OFF
575 1092 0
1.1512420968 5.3091912110 12.0135600007
1.2917329888 5.1959946991 10.9840761656
1.6592323985 4.5743680746 11.3017905556
1.6872527190 4.2662244429 12.5258370813
1.1483386459 5.1140923446 13.2967591078
1.5524863969 4.2748177694 13.7924969305
1.1688396082 5.0642744822 14.4746129454
1.6715190871 4.2044326678 15.0326252463
1.2326490987 5.1138450717 15.5199744968
1.5425522510 4.6261290057 15.9226084281
1.0442934831 6.3410692803 9.8273338062
1.3715413168 5.9482049840 8.9637088362
1.3270152987 5.6604920835 9.5933172074
1.2940767025 5.4757981940 10.2095454106
0.9791378187 6.0626948547 11.0571236621
0.8474777968 6.2582913377 12.1063947261
0.8661538430 6.0624152970 13.0059870304
0.8944925601 5.9655993808 14.1069167833
0.9637174082 5.9053143317 15.1834047759
1.3499973745 5.1372670398 16.2762287569
1.1240629374 5.8793656400 16.2427802559
1.4417202545 5.4436386413 16.9625220733
1.2833586170 6.1196300352 17.0659088336
1.5752635823 5.8534628326 17.6020051886
1.3525425804 7.5041871146 6.4197671555
1.5295489072 7.8476471603 5.5210875658
1.8809477062 7.0517089231 5.6256444603
1.7607762793 6.5359908183 6.7064531766
1.1882457593 7.2655390898 7.5039935363
1.4795565336 6.3146698136 7.9174075060
1.0359291204 7.0418373781 8.7615792643
0.8548130596 7.3372124162 9.7745846718
0.8265449730 7.1393362534 10.6971614057
0.7843642253 7.0505080924 11.7745082904
0.7621585638 6.9829593880 12.7911033007
0.7983744582 6.9216655141 13.8099800077
0.8727090068 6.8370618618 14.8945042799
0.9648246014 6.6265031980 15.8006269856
1.1663851339 6.8518928878 16.6962349212
1.4833354044 6.6001860825 17.5796555259
1.2119472527 8.3391022640 6.2084565407
1.4515047691 8.6207661517 5.4707476165
1.0531236448 8.2136926062 7.1681432041
0.9326340165 8.1045623168 8.2524083314
0.8539220632 8.1088450054 9.3259077154
0.8249676510 8.1308214969 10.3908287070
0.8188044447 8.0275718062 11.4850095950
0.8163784033 7.9064260620 12.5709245132
0.8183617276 7.7092974669 13.4646379236
0.9619318147 7.9238012171 14.5078080816
1.0779751264 7.5857818475 15.7945056845
1.3013987220 7.6921624092 16.7011689020
1.4371610657 7.3489086792 17.2941787189
1.2699873780 8.9751414394 6.0738993030
1.5332604579 9.2889271572 5.6424673944
1.1270927475 9.0093220179 6.8408046315
1.0103560942 9.1031844013 7.9692792515
0.9051319433 8.8589200829 8.9049408406
0.9570077420 9.1154092229 9.9324053441
0.9782725948 8.9837207870 11.1391545350
1.0057194303 8.8534211509 12.2918334427
1.0315307967 8.6514899408 13.5026865851
1.2128268529 8.8553754189 14.4634842259
1.3101534296 8.6059774111 15.3590507928
1.4071768049 8.3067754460 16.2658010965
1.4045892905 9.5830807501 6.4015506272
1.2387936924 9.7262054473 7.3964678418
1.1603762741 9.8614454316 8.2491047244
1.0672562078 9.6765178701 9.0344318146
1.2480504602 10.1810217132 8.7856550306
1.1595362306 9.9057410979 9.8857907926
1.2165967789 9.8090627725 10.7520572795
1.2971776989 9.7091235549 11.8794634137
1.3544204196 9.5531376836 13.0321229722
1.3762583811 9.3755600015 13.9589643878
1.2535951917 10.2032140049 9.4217377759
2.0368123871 3.6208285543 13.3196705863
2.3770802672 3.4488567898 12.5624433958
2.4511528171 3.2136096477 13.1598373440
2.4738674228 3.1450059304 13.7881574357
1.9883832795 3.6302944713 14.2324633289
2.4471729697 3.1887270096 14.6981224761
2.0515939714 3.5967863293 14.8459971951
2.2740122905 3.5167877153 15.4426187517
1.7644990102 5.0675178774 9.5217112910
2.3753582129 4.7117490888 8.8427455811
2.3116802715 4.4707315948 9.5507678646
2.1968631158 4.2894722824 10.3747458697
1.6076418496 4.8639542792 10.4595104101
2.2726307394 3.8436269724 11.5575490740
1.9966314782 4.0748640787 16.1110674550
1.7275644433 4.7203688810 16.6997901877
2.3402144839 4.1159362186 17.1694135273
1.9855506293 5.0598283748 17.7303776546
2.8041447411 4.2037449426 18.4391832006
2.3716583169 5.1306945028 18.6461505658
2.7760718833 4.8317726084 19.2018173177
2.0218636876 5.7521804525 7.3889882183
2.3222642468 5.8314339673 6.6004481630
2.5393202290 5.3508855533 7.0491977205
2.4545374055 5.0636915102 7.8508658658
1.8712486619 5.4577343899 8.3850273168
2.0290014072 6.1310827710 18.4475150333
2.5603126950 5.5824460472 19.3002777123
2.0026372578 7.5970570327 4.7783676870
2.4896035873 7.4763280479 4.1409204441
2.4851682607 6.9003566059 4.7986582092
2.5421877142 6.1992655264 5.7018146152
1.8408609688 7.3129044711 18.0057277569
2.5198315703 6.3821128128 19.3625366404
2.4412339770 7.2705319379 18.9766503275
2.9916312342 6.9191967239 19.8559968679
2.2482393287 8.3262939593 3.9233084609
2.6219211180 8.3841554292 3.0726047047
2.9068191138 7.7294586075 3.3579323967
1.7501656399 8.2670324969 4.8537211795
1.7265641401 8.2096835887 17.1668437302
2.3368790186 8.3010111297 18.1905474142
2.9130154740 8.1857454301 19.0063966656
2.9456129367 7.6196711919 19.5045813571
2.5310130031 8.8527705484 3.0731082696
2.8472564841 8.8854600369 2.6021609072
2.6926768805 8.6366505023 2.7515051644
2.3522257338 9.2874152193 3.7201511854
1.8844216293 9.1166193474 4.7759043814
1.6011594857 9.4229361760 14.8189872735
1.8841364629 9.2303467156 16.0801930306
2.2828122082 9.0867525134 17.2619845160
2.7783881603 9.1511579512 17.9858669298
2.7979523794 8.7425983103 18.5156162765
2.9238311828 9.4713131598 2.8492109510
2.6421525932 9.8638389590 3.6106330160
2.3653599523 9.8937949717 4.4200795489
2.8395777571 10.2347043389 4.0117156168
2.0041974410 10.0319465843 5.6556087887
1.5994022449 10.1835851558 6.9326314561
1.3724091022 10.2386042207 8.0317178061
1.3883858520 10.3203945047 10.1988287260
1.6124087074 10.4016861029 11.3932985939
1.7298638283 10.2693453837 12.5990518823
1.8573207142 10.0654593800 13.8609440920
2.1811238467 10.0303530015 15.0641921870
2.4109688938 10.0015821524 15.8741468669
2.5019821196 9.7645471079 16.6037808883
2.7648644817 9.6112637454 17.2907457549
2.8948803803 10.4656446194 4.9173564739
2.6653157538 10.6274337606 5.7933200190
2.1394903181 10.5301702890 6.4467249737
2.9990550650 10.8221909288 6.1430067355
1.6239764063 10.4583699394 7.6481123917
1.4253863629 10.4402294288 9.1207400414
1.6096060602 10.5847873556 10.5631549919
1.8895439996 10.7610581300 11.5634027187
2.0178056151 10.7467535727 12.2545960646
2.2146614474 10.6685985821 13.2171004907
2.6656531062 10.6108499480 14.3054519397
2.8455804705 10.4173667932 15.3838370515
3.0931385219 2.8091366346 13.0708974756
3.6099343712 2.6809551852 12.1594740157
4.1999287801 2.2466903280 12.8131272504
3.8776791623 2.2322519246 13.9760163673
3.0898746158 2.6860144596 14.3594477591
3.8321843769 2.2238413612 15.1135429484
3.0442961026 2.8282062222 15.5710527471
3.9184067364 2.2713722644 16.2698381909
3.3487574307 2.8030055920 16.7476129294
3.9491392548 2.3878957199 17.1392689974
2.9847016141 3.9676195766 9.5288439071
3.5671320720 3.8685012671 8.7279668754
3.9771025216 3.4127639690 9.3990453795
3.6209680600 3.3060292240 10.2489899320
2.9459334449 3.5465644502 10.7934576286
3.7494964466 2.9026057543 11.2109243076
2.9767832989 3.1713647556 11.8789276079
2.6518051518 3.4206579240 16.4318802663
3.6676611290 2.7482899817 17.5621434061
3.1095993187 3.3628387862 17.6020496505
3.9202220249 2.9248031794 18.4849223084
3.3193377603 3.4945492289 18.4169160419
3.6093779673 3.5896338560 19.1164518016
3.5010274143 4.7753705066 6.5012770422
3.6523565511 4.9922208579 5.9181026107
4.0571991727 4.5235804472 6.2229084957
3.8550588798 4.3211099647 6.9971984344
3.1151105412 4.7579491349 7.2504380504
3.6802048694 4.1067405693 7.8875228680
3.0076309002 4.3946276029 8.3363683358
3.2950848879 4.2906565671 19.5435209188
3.1314075952 5.1287174783 19.9727383608
3.7195197302 4.4709524936 20.3383847336
3.6537151170 5.1219796485 20.6275721366
4.2097034879 4.7419682738 20.8935093885
2.9824120363 5.3472726389 6.3071895593
3.4472460457 5.5552689704 5.3810955427
2.9229216315 6.0351007343 19.9590932650
3.4134708819 5.7725851981 20.5342033147
4.0737553893 5.6450298085 21.0428057481
3.0263915499 6.9785261571 3.9996637488
3.1933262565 6.2937777299 4.6777529137
3.3094294021 6.4156093009 20.3920232790
3.7315670945 6.2607219404 20.7759566933
3.0996051638 8.3562738650 2.6214988727
3.9907425595 8.2530869630 2.2289685564
3.6934574451 7.5523843075 2.7574703719
3.4923687372 7.0818148293 3.3520337885
3.2298953575 7.9763898847 19.4693509952
3.4691629839 7.5987369842 19.8408228902
3.7552882077 6.9185000537 20.4518394996
3.3867896633 8.9609125713 2.2321177414
3.6764020450 9.1539157602 1.9628107395
3.8696259683 8.9008705570 1.9857561833
2.9705768458 9.0464045603 18.4160923075
3.2288051826 8.8448919583 18.6822693276
3.7977929171 8.3312410172 19.2363372900
3.7058944233 9.4515665460 2.2690814113
3.3918955064 9.9276697287 2.7231179001
3.8002854320 9.9700693407 2.6030539908
3.1021375245 10.1104249222 3.3095391635
2.8201626479 10.2141006553 16.1545165802
3.0826364212 10.0585042561 16.7815505360
3.3636567269 9.6784024028 17.6046467981
3.2169247543 9.2475725237 18.2548602606
3.6456160776 10.2361949253 3.0810834677
3.4899893501 10.4358933939 3.9688743838
3.7010225399 10.6315123212 4.8841237690
3.5375407842 10.7825466420 5.7711248537
3.8439313554 10.9212679006 6.5184715923
2.1232076361 10.9062105169 12.1581572982
2.2883644220 10.8991132889 12.7774392697
2.6241459379 10.8655466521 13.6077215666
3.2669249877 10.8766077482 14.1792351267
3.7339295874 10.7087056653 14.8122170293
3.4099300106 10.4215612882 16.0000450933
3.7881718408 10.1659850607 16.7917114106
4.1927581338 2.4592088931 11.8675130198
4.5266778780 2.5120787588 11.2388485957
4.9953610939 2.1224985229 11.9178868049
5.0837610370 1.8564532092 12.9091058548
4.7543855829 1.8471915100 13.8021263082
4.4948750345 1.8749304725 14.7040315453
4.7638956823 1.7594244272 15.8114985604
4.7982325716 1.8946244542 17.2872009087
4.2366622170 2.3948021812 17.8972628437
4.9039502803 2.1299386799 18.4412872882
4.4235184914 2.4596051236 18.4837938328
4.7598562056 2.5012925787 19.0689124984
4.2459281368 3.5881191272 8.4671504861
4.9644121559 3.0627538869 9.0682851444
4.5053429807 2.8518199121 10.2930323170
4.5211090728 3.0658041178 19.6652626362
4.0120817559 3.7803440104 20.0180540626
4.8049234251 3.5245454941 20.5163089139
4.3111921558 4.0777987120 20.6337993053
4.9730993420 4.2007567611 21.0223869804
4.4063154865 4.8269240627 5.3845785252
4.5401154914 4.3170096777 6.0654113875
4.5197864577 4.0624994077 6.6775138569
4.3833400838 3.8203774653 7.5599567761
4.7601852212 5.2244577244 21.1672790846
4.4711338391 5.9805612298 3.6025458372
4.7608817412 6.1661381858 3.0161812084
5.1595315296 5.7260062470 3.2834580889
5.0003885568 5.2233268143 4.1884889244
4.0303530766 5.7154338364 4.4845402900
4.4610419817 5.7086333534 21.2724822373
4.3148000285 5.9805943970 21.2628000628
4.2175549574 6.6938282232 3.0318133011
4.6487933528 7.1969932928 2.3998273130
4.8323578651 6.4950379137 2.6603634402
3.7272750312 6.4570582881 3.8290459373
4.4520440361 6.1418763000 21.2583684101
4.2912197430 6.3675197712 21.0021973721
4.9034535799 7.8629111287 2.1472120395
4.3396901588 6.9463016926 20.6231378078
4.3359232468 7.5056800337 20.0803676411
3.9208052714 9.1288215103 1.9690857754
4.5638591597 8.8380908458 2.2470762583
3.8633272889 9.2091754041 18.3104560875
4.6660653884 8.7673305440 18.6438155905
4.6397572733 9.3348000547 17.9358959735
4.8407515652 8.0819114502 19.3893229584
4.0723002522 10.1245943868 2.8781656283
4.2789228889 9.7019234047 2.5904456947
4.4835658714 9.9942451264 3.0821402260
4.1852000138 9.7745355495 17.4624850299
5.0047770381 9.6611353683 17.1108533414
4.4409481511 10.1061841440 16.7464626856
4.1361450830 10.2978638134 3.4682443757
4.2850288679 10.4341458605 4.3791872740
4.3972204069 10.5885953902 5.4554943507
4.5015176703 10.9472050823 7.4801054814
4.5258739344 10.7636512702 6.6846431790
4.8279080599 10.9978101061 8.6745720689
5.0267347137 10.7991332939 8.0993092256
4.9317854352 11.0524829150 9.8577575251
5.1305621421 10.9072006230 9.3534370765
4.9257257117 11.0725631048 10.9986765211
5.1620670654 10.9455636258 10.5073637027
4.8205668265 11.0604243118 12.0745242831
5.1021607750 10.9408034957 11.6452381460
4.6043072519 10.9914275816 13.1009546161
4.9159416241 10.9324196102 12.6153705967
4.0743243845 10.9182546257 13.9703629867
4.7830275458 10.7280108241 13.7646932562
4.6369646169 10.5516005452 14.8927269082
4.2879530679 10.4092846055 15.8832013545
5.5177343780 1.4487094585 16.7092311413
5.5802481685 1.4090456982 15.7997670192
6.2402064021 1.2737247191 16.3541975959
6.1674939293 1.2776784373 17.3984903296
5.6439809318 1.4649675210 17.5931742538
6.1203101750 1.3525041797 18.0958413025
5.2234569327 2.3558009709 10.8710294565
5.8702682459 1.9708593021 11.2959018658
5.8994792591 1.6720638010 12.3988368248
5.6244723035 1.5731977154 13.5888663608
5.3510827987 1.5463038969 14.7814677101
5.6916427513 1.6564555642 18.4240761118
5.6282435840 2.0840394928 19.3785780911
5.2371363605 2.5495829015 19.7784349830
5.8224296071 2.4083637268 20.1352463165
5.2226243206 4.0090789188 6.1033054372
5.8942384023 4.0545425183 5.5035435762
6.1148410214 3.7018149721 6.2828928827
5.7633364458 3.4812878755 6.9741843437
5.1061274409 3.5985515516 7.2363072646
5.7746811681 3.0910707943 8.1005339513
4.9070297259 3.4007845412 8.0900006185
5.7865929962 2.7080076112 9.1444318501
5.4534708097 2.5748432573 9.9417425059
5.3935884157 2.9070858318 20.3567530785
5.6704934812 3.4991247973 20.9242878018
5.5093256762 4.0874600432 21.1949077000
5.4063131908 4.4996738911 4.9925414875
5.7333890611 4.7891455554 4.2658135629
6.1815848080 4.4252053710 4.7817470585
5.7430955155 4.2149406113 21.2521906057
5.6158714890 4.6809820240 21.1027920827
5.1741292945 6.1023023384 2.7816505815
5.3768342951 6.4969259745 2.4541729357
5.7181876601 5.8962205979 2.8591798234
5.8324010996 5.2704743367 3.5777836010
4.7186220746 6.0034217241 21.1510645885
5.3053335269 5.7752336821 20.9362200130
5.5684862328 7.1372846309 2.1747156416
4.9477031553 6.7221645216 20.6199212951
5.6301582681 6.3857833865 20.4653176560
5.5538989297 6.9561228002 20.1623546767
5.7363967807 7.8726771612 2.2299610290
5.1854930351 7.4372000594 19.9518414501
5.6593115670 7.2568952109 19.8378652330
5.5974293792 7.6790492015 19.3979820006
5.6811753442 8.6249740546 2.7523585477
5.0500086555 9.4497819026 3.0752796549
5.5113967939 9.6193772818 4.0289993135
5.9077729264 9.0250762157 3.5384388153
6.0870804836 9.2496938551 4.2403267200
5.3688653659 8.3281039103 18.8077176293
5.4250350138 8.8966767858 17.9588648019
4.7918075671 10.0479513460 3.7740785495
5.9403753740 9.5979536703 4.8434362166
5.1634583947 10.1239896428 4.9005940101
5.2188608298 10.3500184160 6.1688209386
5.8966492909 9.8508829602 5.7714810069
5.3718171686 10.4638501688 7.3312669765
5.9480279216 9.9990958865 6.8588133543
5.5728247000 10.4917211124 8.2210040935
6.0085582521 10.1130698681 7.9070401092
5.9691518658 10.2684042256 8.7013937752
5.2850161263 10.3276351467 14.5079977997
5.7569748616 10.0440809904 14.3107466000
5.6450527074 10.2460739471 13.6904096634
5.0884688756 10.2184161023 15.4527004964
5.7369276607 9.8913782821 14.9745491833
4.8991154188 10.0887431183 16.2874491189
5.5951107138 9.6773599774 16.1139377905
5.7269169069 9.2312654230 17.0426164763
5.5539165926 10.6085892185 9.0048730974
5.6130712544 10.6501644766 10.0554952155
5.6130093046 10.6410882087 11.2106202401
5.4862614440 10.5735032766 12.5298643928
6.4103379258 1.4063941091 13.2408056467
6.6123647950 1.4292077674 12.3318303238
6.9709589765 1.3471662747 12.7569570733
6.9320417910 1.4572309964 14.0811539648
6.2008163695 1.3798340548 14.3995832332
6.6981218836 1.3902875785 15.4428296396
6.0312157885 1.3284612610 15.3474862780
6.8393025608 1.3546367371 16.4940934870
6.7621165547 1.2979151294 17.2850707538
6.6989234096 1.3018443222 18.2615987608
6.3619633422 1.3984223463 18.6743367681
6.7632168487 1.3831852896 19.0672880204
6.3908179054 2.6220158787 8.9146376361
6.5686941460 2.9324278731 8.2353800626
6.8878195939 2.7115020852 8.7929603065
6.8668468186 2.2939571358 9.6587880307
6.1893162051 2.3656561612 9.7688287566
6.4703223840 1.9894723672 10.5763717799
5.8828899924 2.2276051904 10.4885484696
6.5462249467 1.6428729027 11.5277937496
6.3588957293 1.6256551674 19.3008298895
6.4692020262 2.0331528860 20.1322815445
6.1900946238 2.7254212188 20.6297750909
6.8368637934 2.4220638505 20.7079064344
6.4764618245 4.0507884939 5.6380522768
6.6903296295 3.8107958262 6.4738332042
6.4856387589 3.3789631424 7.3327650225
6.6085812358 3.4432721171 20.9000956082
6.0509311516 4.0393605653 21.0937313149
6.2018933647 4.8234006554 4.0670638633
6.4548451279 5.1682856715 3.7227113043
6.6571919702 4.8529843676 4.3628549302
6.7415723974 4.4888547390 5.1140315863
6.4467795203 4.6011494202 20.7484125511
7.0207492986 4.2551736578 20.5968702943
6.8999414649 4.8701163940 20.3509559166
6.1965526088 6.4562385159 2.4329863046
6.3938772659 5.7323256426 3.1451679966
6.6079652334 5.5022408769 20.1795661714
6.9977430218 5.2827579196 19.9963514248
6.8781625061 5.9660835912 19.5556810271
5.9959318884 5.6105320375 20.5865528392
6.3695661453 7.0877078004 2.0613654161
6.7166285076 6.9637159641 1.9851776247
6.6732336375 6.7564501595 2.2012281188
6.1461854914 6.7063161583 19.7480951482
6.8091834564 6.8025275318 18.7972110415
6.6930143509 7.1121655317 2.0170421673
6.5641774802 7.4590971298 2.3164893719
6.2607227938 8.0471401257 2.6097396757
6.6687563247 7.8227727545 2.8619268475
6.1787094190 7.8557628247 18.5137385330
6.8617299872 7.3611702711 18.0461192856
6.6707495804 7.9491976469 17.6329617544
6.3769011770 8.3703195763 3.2091095270
6.3881930081 9.1764081627 4.7251760509
6.5423071834 8.6811066228 4.1313132302
6.7315122454 8.8334145436 4.9616611738
6.2802300741 9.5967145225 14.1146879860
6.8711384808 8.9954310812 13.7611152590
6.6878253251 9.4102490281 13.2117471898
6.2773615759 9.2742498787 15.3548133639
6.8116918991 8.7815275356 14.6528605007
6.2582222696 8.9806828941 16.4426606515
6.7828263676 8.5129154226 15.7318794728
6.2064313847 8.5973061523 17.4352038721
6.7446886775 8.2350752066 16.7792890605
6.4431860938 9.3222491057 5.4196873574
6.5126530956 9.4280862439 6.3720375574
6.5593677378 9.5350515044 7.4635781152
6.1187123910 10.2272789646 9.5469863893
6.5488331386 9.6933034022 8.7002837610
6.1944944419 10.2097238272 10.6650039365
6.7214950414 9.6239385310 10.0021212637
6.1915850411 10.1467614827 11.8302882500
6.7597344434 9.6218171713 11.2225340380
6.2000452092 9.9592574133 12.9539290626
6.7326028232 9.5494304906 12.3268708912
7.1004169274 1.7075051179 10.8296786104
7.3549868318 1.7486051253 10.5305453112
7.3368047887 1.5194338499 11.0404064401
7.2234466545 1.4041422736 11.9168061291
6.9689333596 1.4209088699 11.8381179418
7.2786511557 1.5655798379 13.3756470379
7.3965302598 1.9839756795 14.3766631749
7.5356771971 2.2625103136 14.0701803909
7.2373503979 1.8534185133 15.2477683703
7.1829274037 1.7252589656 16.2713480421
7.1515882994 1.5479599218 17.0643557291
7.2753647490 1.5511644366 17.9572917636
7.1286563408 1.4020970971 19.0117542162
7.3947312350 1.4695297145 18.4641419616
6.9144258735 1.5720395030 19.7490051478
7.1668507214 1.6342125562 20.0516035855
7.0163745096 1.8607130819 20.3692906983
7.1308110328 2.0936919336 20.6275097918
7.0803401139 3.2766912685 8.2407410555
7.2495238692 2.8309966172 9.0871921366
7.3000070016 2.2841291407 9.8478790680
7.6012431642 2.8259262124 14.5899422062
7.6651498110 3.1881562022 14.3125955333
7.5165522880 2.6368991022 15.2783493984
7.4702478080 2.4758394967 16.1752865347
7.4615970908 2.1797267830 17.1163599510
7.5370260166 2.0443340275 17.7217153703
7.4923591194 1.6458690803 18.1424186472
7.0170491219 2.8224904903 20.8806428912
7.0372870615 4.4497985205 6.0694873764
7.1294277751 4.0176285705 7.3264423829
7.4012579134 4.0026811518 8.2347450114
7.4627926358 3.6255658023 8.7828356326
7.4795141170 3.1814176811 9.2133788517
7.6734123073 3.8547790668 14.6755732310
7.7069433593 4.2554540217 14.3707001339
7.6238320006 3.6372389452 15.3305033550
7.6032127626 3.4739495748 16.1421578285
7.6172819178 3.2275390153 16.8732599780
7.6258134483 2.8650884871 17.3160368173
7.0616262127 3.6072267689 20.8245488031
6.9341603844 5.5958980601 3.9054738550
7.1351418340 5.1802539421 5.0835874235
7.3650251412 5.3051457362 6.1506896239
7.3944914732 5.0115752209 7.0675517789
7.4952866060 4.7998971291 8.0164041636
7.5952622604 4.5479125636 8.6738269079
7.6114710706 4.1316412042 8.9837867183
7.6760095744 4.9651544982 14.6689026145
7.6986347193 5.3775454454 14.3002690996
7.6353660193 4.7288213031 15.3527705473
7.6199717799 4.5754313438 16.1877174291
7.6465189646 4.3303302444 16.8814698835
7.6721769415 3.9075311842 17.1988085064
7.1353457224 4.8347867553 20.1926205860
7.2208165666 4.5950975807 20.2948047329
7.1596400685 5.3406836500 19.7622949034
7.2019399364 4.1085965342 20.6094508839
6.8700500597 6.4851120968 2.9710136505
7.2182121048 6.3673176871 3.9968477588
7.3109783036 5.9885193030 4.6853258418
7.4934391774 6.2262546479 5.7541004560
7.5285091937 6.0465134333 6.9435910840
7.5770786285 5.8361276693 7.9388396395
7.6479628933 5.5700833559 8.6362929820
7.6795725403 5.1596627593 8.9298274406
7.6275275226 6.0986657072 14.5391924751
7.6564306836 6.4838609766 14.0316217754
7.5822317503 5.8303536937 15.3156073690
7.5596310587 5.6534906329 16.1962403225
7.5525922031 5.5338983813 17.1111191641
7.6291502225 4.9747725042 17.3542721853
7.1829984659 6.1269723226 18.8080791435
6.8210424131 6.9869894117 2.2645392177
6.9082540818 7.2855500347 2.8824226287
7.1445885282 7.1405412368 3.8006084081
7.4188497549 6.9143931228 4.9945333275
7.5854161503 6.7649651742 5.5924300007
7.6089028260 6.8288069177 6.0447562399
7.5833561745 7.2428562043 6.1139733317
7.5398850670 7.1599405339 6.7585833976
7.5712428698 6.9511841049 7.9714750593
7.6424554912 6.6727709201 8.7477513358
7.6918168797 6.2351530865 9.0081018537
7.5099151420 7.2807171957 14.1377613573
7.6197963957 7.4106682821 13.4313637593
7.4506213073 6.9114030290 15.1762107732
7.4157531685 6.6684341141 16.1547276650
7.4212299332 6.4044046845 16.9480546849
7.4644633528 5.8532295512 17.8641273455
7.2587224218 6.5447852594 17.8788951527
6.8629568468 7.8967692353 3.5689762364
7.0729610657 8.0223047953 4.7327194344
7.5598694988 7.1790144607 5.6616470924
7.3749316005 7.8012688042 5.9965428322
7.3396826973 8.1699875778 7.1282579938
7.4097643641 8.0209340718 8.0431489490
7.5129113552 7.8748165933 9.1736440663
7.6460319166 7.2982552129 9.3277549394
7.4671707262 8.5072893210 11.9984131093
7.6121423841 8.3100720788 11.8951915722
7.5490858440 8.4575527593 11.1487532343
7.4838631633 8.0373695740 13.1379908796
7.6104345377 8.0299239741 12.5885847274
7.2166798639 8.3044122878 13.9184102086
7.1980968191 7.9178360490 14.9501940570
7.1609695235 7.6410042323 16.0199760385
7.1235292560 7.3249238334 17.1231160768
6.9236131181 8.7495933749 5.7351504879
7.0226694115 8.8095875033 6.8002622173
7.0580683380 8.8951257807 7.9127092739
7.1421958982 8.8683354155 9.1079032982
7.5574385849 8.1573872615 10.0965734127
7.2896940279 8.8133643349 10.5906527678
7.1352387783 9.0950235733 11.8103996577
7.1383284447 8.8487935165 12.8799874346
3 2 1 0
3 4 3 0
3 0 3 2
3 6 5 4
3 4 5 3
3 8 7 6
3 6 7 5
3 8 9 7
3 12 11 10
3 14 13 10
3 10 13 12
3 13 14 1
3 14 0 1
3 14 15 0
3 0 16 4
3 0 15 16
3 4 17 6
3 4 16 17
3 6 18 8
3 6 17 18
3 9 8 19
3 8 20 19
3 8 18 20
3 22 21 20
3 20 21 19
3 22 23 21
3 26 25 24
3 28 27 24
3 24 27 26
3 30 29 28
3 28 29 27
3 29 30 11
3 30 10 11
3 30 31 10
3 10 32 14
3 10 31 32
3 14 33 15
3 14 32 33
3 15 34 16
3 15 33 34
3 16 35 17
3 16 34 35
3 17 36 18
3 17 35 36
3 18 37 20
3 18 36 37
3 20 38 22
3 20 37 38
3 23 22 39
3 39 22 38
3 24 25 40
3 40 25 41
3 24 42 28
3 24 40 42
3 28 43 30
3 28 42 43
3 30 44 31
3 30 43 44
3 31 45 32
3 31 44 45
3 32 46 33
3 32 45 46
3 33 47 34
3 33 46 47
3 34 48 35
3 34 47 48
3 35 49 36
3 35 48 49
3 36 50 37
3 36 49 50
3 52 38 51
3 38 50 51
3 38 37 50
3 38 52 39
3 40 41 53
3 53 41 54
3 40 55 42
3 40 53 55
3 42 56 43
3 42 55 56
3 43 57 44
3 43 56 57
3 44 58 45
3 44 57 58
3 45 59 46
3 45 58 59
3 46 60 47
3 46 59 60
3 47 61 48
3 47 60 61
3 63 49 62
3 49 61 62
3 49 48 61
3 49 63 50
3 50 63 64
3 50 64 51
3 54 65 53
3 53 65 55
3 55 65 66
3 55 66 56
3 56 66 67
3 69 68 67
3 68 56 67
3 68 57 56
3 71 58 70
3 58 68 70
3 58 57 68
3 58 71 59
3 59 71 72
3 59 72 60
3 60 72 73
3 60 73 61
3 61 73 74
3 61 74 62
3 69 75 68
3 68 75 70
3 78 77 76
3 80 79 76
3 76 79 78
3 82 81 80
3 80 81 79
3 82 83 81
3 86 85 84
3 88 87 84
3 84 87 86
3 1 2 88
3 2 87 88
3 2 89 87
3 3 76 77
3 89 3 77
3 2 3 89
3 76 3 5
3 76 5 80
3 80 5 7
3 80 7 82
3 91 90 9
3 9 90 7
3 90 83 7
3 83 82 7
3 93 92 91
3 91 92 90
3 95 94 93
3 93 94 92
3 95 96 94
3 99 98 97
3 101 100 97
3 97 100 99
3 100 101 85
3 85 101 84
3 101 11 84
3 11 12 84
3 84 12 13
3 84 13 88
3 88 13 1
3 19 91 9
3 91 19 21
3 91 21 93
3 93 21 23
3 102 93 23
3 95 93 102
3 96 95 103
3 103 95 102
3 106 105 104
3 25 26 104
3 26 106 104
3 26 107 106
3 27 97 98
3 107 27 98
3 26 27 107
3 97 27 29
3 97 29 101
3 101 29 11
3 39 108 102
3 39 102 23
3 103 102 109
3 102 110 109
3 102 108 110
3 110 111 109
3 114 113 112
3 114 112 105
3 112 104 105
3 112 115 104
3 115 41 25
3 115 25 104
3 51 116 52
3 108 39 52
3 116 108 52
3 117 108 116
3 119 110 118
3 110 117 118
3 110 108 117
3 110 119 111
3 122 121 120
3 122 120 113
3 120 112 113
3 120 123 112
3 112 124 115
3 112 123 124
3 124 54 41
3 124 41 115
3 62 125 63
3 126 64 63
3 126 63 125
3 116 51 64
3 126 116 64
3 127 116 126
3 129 117 128
3 117 127 128
3 117 116 127
3 117 129 118
3 121 130 120
3 120 130 123
3 123 130 131
3 133 132 131
3 132 123 131
3 132 124 123
3 134 65 54
3 124 134 54
3 132 134 124
3 135 66 65
3 135 65 134
3 136 67 66
3 136 66 135
3 136 69 67
3 70 137 71
3 138 72 71
3 138 71 137
3 139 73 72
3 139 72 138
3 140 74 73
3 140 73 139
3 125 62 74
3 140 125 74
3 141 125 140
3 143 126 142
3 126 141 142
3 126 125 141
3 126 143 127
3 127 143 144
3 127 144 128
3 133 145 132
3 132 145 134
3 134 145 146
3 148 147 146
3 147 134 146
3 147 135 134
3 135 149 136
3 135 147 149
3 150 75 69
3 136 150 69
3 149 150 136
3 137 70 75
3 150 137 75
3 151 137 150
3 153 138 152
3 138 151 152
3 138 137 151
3 138 153 139
3 139 153 154
3 139 154 140
3 140 154 155
3 140 155 141
3 141 155 156
3 141 156 142
3 159 158 157
3 161 160 157
3 157 160 159
3 163 162 161
3 161 162 160
3 165 164 163
3 163 164 162
3 165 166 164
3 169 168 167
3 171 170 167
3 167 170 169
3 173 172 171
3 171 172 170
3 172 173 158
3 158 173 157
3 173 77 157
3 77 78 157
3 157 78 79
3 157 79 161
3 161 79 81
3 161 81 163
3 163 81 83
3 174 163 83
3 165 163 174
3 166 165 175
3 165 176 175
3 165 174 176
3 178 177 176
3 176 177 175
3 178 179 177
3 182 181 180
3 184 183 180
3 180 183 182
3 186 185 184
3 184 185 183
3 185 186 168
3 168 186 167
3 186 85 167
3 85 86 167
3 167 86 87
3 167 87 171
3 171 87 89
3 171 89 173
3 173 89 77
3 90 174 83
3 174 90 92
3 174 92 176
3 176 92 94
3 176 94 178
3 188 187 96
3 96 187 94
3 187 179 94
3 179 178 94
3 190 189 188
3 188 189 187
3 190 191 189
3 180 181 192
3 192 181 193
3 192 98 99
3 184 192 99
3 180 192 184
3 184 99 100
3 184 100 186
3 186 100 85
3 103 194 188
3 103 188 96
3 188 195 190
3 188 194 195
3 191 190 196
3 196 190 195
3 198 197 106
3 106 197 105
3 107 192 193
3 198 107 193
3 106 107 198
3 192 107 98
3 109 194 103
3 194 109 111
3 199 194 111
3 195 194 199
3 196 195 200
3 200 195 199
3 203 202 201
3 113 114 201
3 114 203 201
3 114 204 203
3 114 105 197
3 114 197 204
3 118 205 119
3 205 206 119
3 119 206 111
3 206 207 111
3 207 199 111
3 199 207 200
3 210 209 208
3 210 208 202
3 202 208 201
3 208 121 201
3 121 122 201
3 201 122 113
3 128 211 129
3 211 212 129
3 129 212 118
3 212 213 118
3 213 205 118
3 205 213 206
3 209 214 208
3 214 216 215
3 214 215 130
3 208 214 130
3 121 208 130
3 217 131 130
3 217 130 215
3 217 133 131
3 142 218 143
3 219 144 143
3 219 143 218
3 219 220 144
3 144 220 128
3 220 221 128
3 221 211 128
3 211 221 212
3 216 222 215
3 215 222 217
3 217 222 223
3 217 223 133
3 223 145 133
3 223 224 145
3 145 225 146
3 224 225 145
3 148 146 225
3 148 225 226
3 152 227 153
3 228 154 153
3 228 153 227
3 229 155 154
3 229 154 228
3 155 229 230
3 231 155 230
3 156 155 231
3 142 156 218
3 156 232 218
3 156 231 232
3 218 232 219
3 219 232 233
3 219 233 220
3 236 235 234
3 158 159 234
3 159 236 234
3 159 237 236
3 238 159 160
3 238 237 159
3 239 160 162
3 239 238 160
3 240 162 164
3 240 239 162
3 242 241 166
3 241 164 166
3 241 240 164
3 244 243 242
3 242 243 241
3 244 245 243
3 247 246 169
3 169 246 168
3 248 169 170
3 248 247 169
3 172 234 235
3 248 172 235
3 170 172 248
3 234 172 158
3 175 242 166
3 242 175 177
3 242 177 244
3 250 249 179
3 179 249 177
3 249 245 177
3 245 244 177
3 252 251 250
3 250 251 249
3 252 253 251
3 255 254 182
3 182 254 181
3 256 182 183
3 256 255 182
3 257 183 185
3 257 256 183
3 185 168 246
3 185 246 257
3 187 250 179
3 250 187 189
3 250 189 252
3 189 191 252
3 191 253 252
3 191 258 253
3 261 260 259
3 263 262 259
3 259 262 261
3 254 262 263
3 193 254 263
3 181 254 193
3 196 265 264
3 258 196 264
3 191 196 258
3 268 267 266
3 268 266 260
3 266 259 260
3 266 269 259
3 269 197 198
3 263 269 198
3 259 269 263
3 263 198 193
3 271 270 265
3 196 271 265
3 200 271 196
3 266 267 203
3 267 202 203
3 267 272 202
3 266 203 204
3 266 204 269
3 269 204 197
3 274 273 207
3 274 207 206
3 200 207 271
3 271 207 273
3 275 209 210
3 276 275 210
3 202 276 210
3 272 276 202
3 279 278 277
3 213 212 277
3 278 213 277
3 280 213 278
3 206 213 274
3 274 213 280
3 275 214 209
3 282 281 216
3 282 216 214
3 276 282 214
3 275 276 214
3 283 281 282
3 286 285 284
3 284 285 279
3 284 279 277
3 220 284 277
3 221 220 277
3 221 277 212
3 281 222 216
3 283 287 281
3 287 222 281
3 287 223 222
3 223 288 224
3 287 288 223
3 224 289 225
3 288 289 224
3 291 290 226
3 225 291 226
3 289 291 225
3 293 292 290
3 293 290 291
3 295 294 292
3 295 292 293
3 297 296 294
3 297 294 295
3 299 298 296
3 299 296 297
3 301 300 298
3 301 298 299
3 303 302 300
3 303 300 301
3 231 230 302
3 303 231 302
3 304 231 303
3 231 305 232
3 304 305 231
3 284 233 286
3 233 305 286
3 233 232 305
3 233 284 220
3 308 307 306
3 310 309 306
3 306 309 308
3 310 311 309
3 313 312 236
3 236 312 235
3 314 236 237
3 314 313 236
3 315 237 238
3 315 314 237
3 316 238 239
3 316 315 238
3 240 306 307
3 316 240 307
3 239 240 316
3 306 240 241
3 306 241 310
3 317 311 310
3 241 317 310
3 243 317 241
3 319 318 245
3 318 243 245
3 318 317 243
3 319 320 318
3 323 322 321
3 325 324 321
3 321 324 323
3 327 326 325
3 325 326 324
3 246 247 327
3 247 326 327
3 247 328 326
3 329 247 248
3 329 328 247
3 248 235 312
3 248 312 329
3 249 319 245
3 330 320 319
3 249 330 319
3 251 330 249
3 332 331 253
3 331 251 253
3 331 330 251
3 335 334 333
3 335 333 322
3 322 333 321
3 333 254 321
3 254 255 321
3 321 255 256
3 321 256 325
3 325 256 257
3 325 257 327
3 327 257 246
3 337 336 332
3 253 337 332
3 258 337 253
3 340 339 338
3 260 261 338
3 261 340 338
3 261 341 340
3 262 333 334
3 341 262 334
3 261 262 341
3 333 262 254
3 258 264 342
3 343 258 342
3 337 258 343
3 338 339 268
3 339 267 268
3 339 344 267
3 338 268 260
3 347 346 345
3 345 346 343
3 345 343 342
3 271 345 342
3 270 271 342
3 344 272 267
3 348 272 344
3 351 350 349
3 349 350 347
3 349 347 345
3 274 349 345
3 273 274 345
3 273 345 271
3 353 276 352
3 276 348 352
3 276 272 348
3 355 354 353
3 355 353 352
3 356 354 355
3 358 357 278
3 358 278 279
3 349 280 351
3 280 357 351
3 280 278 357
3 280 349 274
3 353 282 276
3 282 353 283
3 353 359 283
3 353 354 359
3 354 356 360
3 361 354 360
3 359 354 361
3 363 362 361
3 363 361 360
3 365 364 362
3 365 362 363
3 367 366 364
3 367 364 365
3 368 366 367
3 371 370 369
3 373 372 369
3 373 369 370
3 375 374 372
3 375 372 373
3 285 286 374
3 375 285 374
3 376 285 375
3 279 285 358
3 358 285 376
3 359 287 283
3 287 359 288
3 288 359 361
3 288 361 289
3 289 361 362
3 289 362 291
3 291 362 364
3 291 364 293
3 293 364 366
3 368 377 366
3 377 293 366
3 377 295 293
3 295 378 297
3 377 378 295
3 297 379 299
3 378 379 297
3 299 380 301
3 379 380 299
3 369 303 371
3 303 380 371
3 303 301 380
3 303 369 304
3 304 369 372
3 304 372 305
3 305 372 374
3 305 374 286
3 383 382 381
3 385 384 381
3 381 384 383
3 387 386 385
3 385 386 384
3 307 308 387
3 308 386 387
3 308 388 386
3 389 308 309
3 389 388 308
3 391 390 311
3 390 309 311
3 390 389 309
3 391 392 390
3 395 394 393
3 397 396 393
3 393 396 395
3 399 398 397
3 397 398 396
3 312 313 399
3 313 398 399
3 313 400 398
3 314 381 382
3 400 314 382
3 313 314 400
3 381 314 315
3 381 315 385
3 385 315 316
3 385 316 387
3 387 316 307
3 317 391 311
3 401 392 391
3 317 401 391
3 318 401 317
3 403 402 320
3 402 318 320
3 402 401 318
3 403 404 402
3 406 405 323
3 323 405 322
3 407 323 324
3 407 406 323
3 326 393 394
3 407 326 394
3 324 326 407
3 393 326 328
3 393 328 397
3 397 328 329
3 397 329 399
3 399 329 312
3 330 403 320
3 330 331 403
3 331 408 403
3 408 404 403
3 331 409 408
3 412 411 410
3 334 335 410
3 335 412 410
3 335 413 412
3 335 322 405
3 335 405 413
3 416 415 414
3 414 415 408
3 414 408 409
3 337 414 409
3 336 337 409
3 418 417 340
3 340 417 339
3 341 410 411
3 418 341 411
3 340 341 418
3 410 341 334
3 421 420 419
3 419 420 416
3 414 419 416
3 422 419 414
3 343 422 337
3 337 422 414
3 425 424 423
3 417 425 423
3 344 417 423
3 339 417 344
3 421 419 426
3 421 426 427
3 347 426 346
3 426 422 346
3 426 419 422
3 346 422 343
3 424 428 423
3 348 344 423
3 429 348 423
3 428 429 423
3 348 429 430
3 431 430 429
3 434 433 432
3 432 433 427
3 432 427 426
3 351 432 426
3 350 351 426
3 350 426 347
3 430 352 348
3 431 435 430
3 435 352 430
3 435 355 352
3 437 436 356
3 355 437 356
3 435 437 355
3 438 436 437
3 441 440 439
3 443 442 439
3 443 439 440
3 445 444 442
3 445 442 443
3 447 446 444
3 447 444 445
3 446 447 434
3 446 434 432
3 358 446 432
3 357 358 432
3 357 432 351
3 436 360 356
3 438 448 436
3 448 360 436
3 448 363 360
3 363 449 365
3 448 449 363
3 365 450 367
3 449 450 365
3 452 451 368
3 367 452 368
3 450 452 367
3 454 453 451
3 454 451 452
3 456 455 453
3 456 453 454
3 458 457 455
3 458 455 456
3 457 458 441
3 457 441 439
3 371 457 439
3 370 371 439
3 370 439 373
3 373 439 442
3 373 442 375
3 375 442 444
3 375 444 376
3 376 444 446
3 376 446 358
3 451 377 368
3 377 451 378
3 378 451 453
3 378 453 379
3 379 453 455
3 379 455 380
3 380 455 457
3 380 457 371
3 461 460 459
3 463 462 459
3 459 462 461
3 382 383 463
3 383 462 463
3 383 464 462
3 466 464 465
3 464 384 465
3 464 383 384
3 386 467 384
3 384 467 465
3 388 468 386
3 386 468 467
3 389 469 388
3 388 469 468
3 390 470 389
3 389 470 469
3 472 470 471
3 470 390 471
3 392 473 471
3 392 471 390
3 475 474 473
3 473 474 471
3 475 476 474
3 477 394 395
3 396 478 395
3 395 478 477
3 460 479 459
3 479 396 459
3 396 398 459
3 396 479 478
3 459 398 400
3 459 400 463
3 463 400 382
3 466 465 480
3 466 480 481
3 482 465 467
3 480 465 482
3 483 467 468
3 482 467 483
3 484 468 469
3 483 468 484
3 470 486 485
3 484 470 485
3 469 470 484
3 392 401 473
3 470 472 486
3 473 401 402
3 473 402 475
3 402 404 475
3 404 476 475
3 404 487 476
3 488 405 406
3 407 489 406
3 406 489 488
3 394 477 407
3 477 489 407
3 477 490 489
3 491 477 478
3 490 477 491
3 478 479 492
3 478 492 491
3 481 480 493
3 481 493 494
3 495 480 482
3 493 480 495
3 496 482 483
3 495 482 496
3 497 483 484
3 496 483 497
3 484 485 498
3 484 498 497
3 408 487 404
3 408 499 487
3 500 411 412
3 413 501 412
3 412 501 500
3 405 488 413
3 488 501 413
3 488 502 501
3 503 488 489
3 502 488 503
3 504 489 490
3 503 489 504
3 505 490 491
3 504 490 505
3 491 492 506
3 491 506 505
3 494 493 507
3 494 507 508
3 509 493 495
3 507 493 509
3 510 495 496
3 509 495 510
3 511 496 497
3 510 496 511
3 497 498 512
3 497 512 511
3 515 514 513
3 415 416 513
3 514 415 513
3 516 415 514
3 408 415 499
3 499 415 516
3 517 417 418
3 411 500 418
3 500 517 418
3 500 518 517
3 519 500 501
3 518 500 519
3 520 501 502
3 519 501 520
3 521 502 503
3 520 502 521
3 522 503 504
3 521 503 522
3 523 504 505
3 522 504 523
3 505 506 524
3 505 524 523
3 508 507 525
3 508 525 526
3 527 507 509
3 525 507 527
3 528 509 510
3 527 509 528
3 529 510 511
3 528 510 529
3 511 512 530
3 511 530 529
3 515 513 420
3 421 515 420
3 531 515 421
3 420 513 416
3 532 424 425
3 417 517 425
3 517 532 425
3 517 533 532
3 534 517 518
3 533 517 534
3 535 518 519
3 534 518 535
3 520 537 536
3 535 520 536
3 519 520 535
3 539 538 537
3 520 539 537
3 521 539 520
3 540 521 522
3 539 521 540
3 541 522 523
3 540 522 541
3 523 524 542
3 523 542 541
3 526 525 543
3 526 543 544
3 545 525 527
3 543 525 545
3 546 527 528
3 545 527 546
3 547 528 529
3 546 528 547
3 529 530 548
3 549 529 548
3 547 529 549
3 548 531 549
3 531 427 549
3 531 421 427
3 532 428 424
3 428 532 429
3 429 532 533
3 429 533 431
3 533 550 431
3 533 534 550
3 551 534 535
3 550 534 551
3 535 536 552
3 553 535 552
3 551 535 553
3 553 552 538
3 539 553 538
3 554 553 539
3 555 539 540
3 554 539 555
3 556 540 541
3 555 540 556
3 541 542 557
3 541 557 556
3 560 559 558
3 562 561 558
3 562 558 559
3 561 562 544
3 543 561 544
3 563 561 543
3 564 543 545
3 563 543 564
3 565 545 546
3 564 545 565
3 566 546 547
3 565 546 566
3 434 566 433
3 566 549 433
3 566 547 549
3 433 549 427
3 550 435 431
3 435 550 437
3 437 550 551
3 437 551 438
3 551 567 438
3 551 553 567
3 568 553 554
3 567 553 568
3 569 554 555
3 568 554 569
3 570 555 556
3 569 555 570
3 556 557 571
3 572 556 571
3 570 556 572
3 572 571 560
3 558 572 560
3 573 572 558
3 574 558 561
3 573 558 574
3 441 574 440
3 574 563 440
3 574 561 563
3 440 563 443
3 443 563 564
3 443 564 445
3 445 564 565
3 445 565 447
3 447 565 566
3 447 566 434
3 567 448 438
3 448 567 449
3 449 567 568
3 449 568 450
3 450 568 569
3 450 569 452
3 452 569 570
3 452 570 454
3 454 570 572
3 454 572 456
3 456 572 573
3 456 573 458
3 458 573 574
3 458 574 441