OFF
478 888 0
0.6803930027 4.5112966572 3.2539393393
0.7208889441 4.5847716523 2.9150215971
0.8297423871 4.2923818915 3.0247265489
0.8652266414 4.1234501073 3.3795172264
0.7047657938 4.4356174171 3.5765016535
0.8334199376 4.2367914242 3.7608991352
0.5814243716 4.9908570254 3.0691270261
0.7168575733 4.8774951408 2.6335230041
0.6029868815 4.8669614408 3.5970823927
0.7346776734 4.5965713473 3.8994259132
0.6083956463 5.4081034742 2.5687094927
0.7845919047 5.2893981085 2.1213702141
0.7212126441 5.1026469644 2.3883925813
0.5087378691 5.4710259258 3.0726527902
0.5326578634 5.3658407155 3.4630326447
0.6693681799 4.9694924038 3.9824005712
0.6209761775 5.3116294926 3.8874249175
0.7403088474 5.2170020736 4.1934724450
0.8635263134 5.8117599914 1.6007863048
0.9945643815 5.9863081681 1.4558932622
1.0499845313 5.7702953219 1.4309331840
0.9515234691 5.4895928207 1.6983311210
0.7352627826 5.7483989380 1.9867838185
0.6290312733 5.9679005227 2.4400298720
0.5478065910 5.8459531875 2.9187025847
0.5281496010 5.7444979899 3.3172004804
0.6466967520 5.8039772217 3.7481870360
0.7817903409 5.5963161817 4.1969872798
0.8454842595 6.0136756874 1.6819185159
0.8031260138 6.2021017383 2.0274001890
0.7079968088 6.2954753281 2.4373892507
0.6551992150 6.2433407389 2.7855769833
0.7529223122 6.4459315535 2.6355609921
0.6588035720 6.1625311278 3.2987661626
0.7823427617 6.2249159159 3.7363031292
0.9180356915 6.0760265662 4.1526528163
0.8907227372 6.6245564580 2.9731761750
0.8539407825 6.4738822851 3.4923760998
1.0402904187 3.8705943081 3.7601396358
1.0983725947 3.7828890300 3.3453519786
1.2443137386 3.5313397301 3.5581987924
1.2664802436 3.5117684960 3.9599931006
1.1374051141 3.8415017026 4.1485591964
1.2834509440 3.6463678381 4.3361735250
0.9414967470 4.4392111221 2.6417615504
1.0565056829 4.0111010715 2.9836664465
0.9749345110 4.3074443933 4.1916224795
1.1996075762 4.0158247713 4.4916723322
0.9012258927 4.8744829023 2.2724721015
1.1243280775 4.8147473123 2.0216971336
1.1394694133 4.5525269483 2.2474887262
0.8281312278 4.8594117107 4.2445966644
1.1396421708 4.4004985837 4.6023532674
1.0428645171 4.7690116724 4.5668080180
1.2163842579 4.6562059988 4.8314135501
1.0049184906 5.0969959224 1.9229760530
1.2148931610 5.1262773600 1.6703295564
1.1832269975 4.9229374636 1.8549853982
0.9572559357 5.2876717507 4.5174161789
1.2204627404 5.0811042988 4.8854761975
1.3725805979 6.0175984370 1.2524107811
1.2897445742 5.4933013401 1.3926552722
0.9999225977 5.7584199602 4.4893277849
1.2348246807 5.6215640442 4.8288664524
1.0648866144 6.2836437795 1.5931045973
1.0091466906 6.5020679481 1.9267333342
1.2172169503 6.6500672387 1.7300555274
0.8943696389 6.5490895150 2.3638887963
1.1793115811 6.4183548817 4.2452699251
0.9971021993 6.4718697797 3.8678526620
1.2236385514 6.1040740910 4.5810852456
1.1682777770 6.8052554283 2.1032594511
1.1033525255 6.8857841397 2.5687621404
1.1209031038 6.9659321867 2.9008035464
1.2725715714 7.1299861076 2.7503529700
1.1334718978 6.9404038354 3.1784104449
1.0742633946 6.7514179693 3.4995526474
1.2793335145 7.1354858807 3.0359883437
1.6916017038 2.7769809134 4.2573127845
1.7630184674 2.6426308158 3.8223795219
1.8765229379 2.4222609047 4.0945451546
1.8814619330 2.4300752813 4.4199415885
1.6666155966 3.0890031374 3.0881708797
1.8728173846 2.9835207623 2.7891988345
1.8522195745 2.7973142314 3.0840138268
1.8048020773 2.7172308458 3.4063713643
1.5204462724 3.1074803710 3.6762471582
1.4575895988 3.2836032740 4.3043850193
1.7945638755 2.6634183476 4.6826033647
1.6447726299 3.1252680398 4.8344036582
1.8555150107 2.7513608348 5.1005426173
1.7905394571 3.1787570509 5.3936243142
1.9430607383 2.8354918225 5.4908639429
1.6620122745 3.4618180031 2.5925813351
1.9224385799 3.4221337253 2.2485474064
1.8832520151 3.2030920451 2.5002784033
1.3578882038 3.5560165537 3.0901455725
1.4218075428 3.7271299188 4.7725287382
1.6374707723 3.6605045367 5.2882405924
1.9780663271 3.1272134138 5.7982387318
1.8315178986 3.6258435059 5.7207703896
1.9760728915 3.5668435542 5.9810982614
1.7039443620 3.9039419316 2.1149762214
1.9385259957 4.1253797598 1.7109319044
2.0194452235 3.6850366269 1.9335069223
1.3213801607 4.0660167088 2.4887326105
1.3089979503 4.2842930838 4.8598719255
1.5217947218 4.2181433442 5.2321971396
1.7584408485 4.1614922825 5.6489010059
2.0070638009 4.0744719516 5.9929759085
1.4379779864 4.5916498004 1.8683642674
1.8476180448 4.6483913609 1.4392930891
1.4065199557 4.7324101085 5.1303774961
1.7026629775 4.7821922522 5.5490942291
2.0085111642 4.6158606322 5.8952099465
1.5478147070 5.0597731857 1.4286195664
1.7815559108 5.4108816911 1.0959400445
1.8086346827 4.9953394428 1.2526822650
1.5391237430 5.3505532513 5.2558804798
1.8374611994 5.3025021295 5.6197226887
1.9937475867 5.0530263673 5.8119055671
1.8356995944 5.9917188720 0.9441817849
1.5755693190 6.0418043492 5.0358295581
1.9151574539 5.7981348159 5.4951064185
1.4167081396 6.5869408800 1.4226562749
1.7810753663 6.5473944760 1.0611587211
1.2886911323 6.7607087020 3.9572483755
1.5485118982 6.6075887063 4.5478202277
1.7981601888 6.4591927995 5.0167398685
1.9035021096 6.2289174085 5.2825703139
1.6704449476 6.9278333718 1.3536874674
1.9160365104 7.0648965283 1.1582099045
1.4937267802 7.0562771686 1.8021827417
1.3619179279 7.1412645497 2.3825255043
1.3740723420 7.1061147047 3.4538075184
1.6318155110 7.1204156458 4.0312695888
1.8206802605 7.0333335515 4.4610848461
2.0009977199 6.8146674520 4.8556971393
2.0615186265 6.5046228092 5.1981264539
1.8137461671 7.3153198336 1.4997295727
1.7381641092 7.4736538265 1.8728949140
1.6329101374 7.4573719983 2.2609913843
1.8349704929 7.7185368852 2.1173599781
1.5565664635 7.4133356700 2.8881827464
1.7406248267 7.4663886005 3.5341002746
1.8713440423 7.4447237612 3.9420507860
1.8906261946 7.2940630599 4.2377280183
1.8641324625 7.8032623196 2.5479165364
2.0240264658 7.8481511962 3.1416624329
2.0875341412 7.6882604667 3.7165942889
2.2498743535 2.0118189007 3.6875984016
2.4433943521 1.9357653337 3.3546180496
2.4608119305 1.7511248278 3.6748657214
2.4623855445 1.6874929652 4.0359316454
2.1345646289 2.0813049892 4.2888140963
2.5073259283 1.6376103362 4.6299936289
2.2807165098 1.9995607378 4.9774442751
2.6869125376 1.5964857863 5.2849935155
2.4149912445 2.0248595664 5.5027685444
2.6752278005 1.7884513737 5.6837070111
2.1174868395 2.4567097811 3.1272258788
2.4213599270 2.4005504640 2.7326246680
2.4180774030 2.1535638357 3.0406174775
1.9780923820 2.3573986341 3.7256366091
1.9882849789 2.3687472426 4.8024019542
2.1036848285 2.4290673578 5.3474820434
2.5836948766 2.0335503267 5.8713901719
2.2996822115 2.3816611266 5.7635223095
2.4409257816 2.3593224021 5.9976143547
2.1492438565 2.9117139553 2.4830981026
2.4639117337 2.8612403307 2.1878067013
2.4307681691 2.6426341796 2.4323822330
2.0959155687 2.7059549771 5.7056961041
2.2271682427 2.7412710228 5.9759863764
2.2289747331 3.2834447102 2.0452374716
2.3855654585 3.6143810926 1.6868840671
2.5389260022 3.1311592132 1.8974698804
2.0958751478 3.2154442894 6.0446763665
2.0627870691 3.7737939584 6.0987257986
2.3024159479 4.2381096324 1.3447670153
2.2417226006 4.2193978999 6.1555075334
2.1080639433 4.8127468316 1.1316621945
2.4573047722 4.6980458528 0.9375904171
2.3760315676 4.5002236596 1.1135481123
2.6352999146 4.4766844524 6.2090506299
2.3443243679 4.5316030487 6.1132506584
2.2670133557 5.1461465291 0.8551004655
2.5803767167 5.3094875234 0.6332395222
2.6002048901 4.9164480838 0.7398807408
2.1385916174 5.4550403032 5.7981251830
2.3881073248 5.0431699651 5.9963003512
2.1812951003 5.6700326604 0.7689636203
2.5725292631 5.8333842062 0.5672363852
2.2748206482 5.8332991381 5.7248735248
2.5248466460 5.5742438469 5.8995627119
2.1765956420 6.2422226901 0.7498788124
2.6033119637 6.4017060025 0.5686591540
2.5916442652 5.9773864286 5.7464917168
2.2640868470 6.2179765056 5.4855255912
2.2307441290 6.8910830282 0.8413234546
2.6918794614 6.9353471602 0.6103990426
2.1187116336 7.2415483869 4.5330463219
2.3472304299 7.0318410736 4.8519139370
2.4228873674 6.6684767288 5.1821244771
2.4627341557 7.3135043170 0.8211308013
2.8168854390 7.3785071599 0.7160294742
2.1846957372 7.5271881515 1.2081407237
1.9576748619 7.7117149542 1.7457937546
2.1071386072 7.5108502332 4.1491053905
2.3226603740 7.4952857542 4.3681408806
2.4608644089 7.3079751317 4.6323029807
2.5606349263 7.6361386535 0.9470240837
2.5042898398 7.9461723942 1.2094713807
2.2236268396 8.0407969928 1.6568609734
2.4833279662 8.2368129703 1.4100437122
2.0303838010 7.9909917795 2.1646491633
2.1723586672 8.1642086713 2.6862583646
2.4138819041 8.1717723388 3.0861368062
2.4174196184 7.9384727637 3.4814004585
2.4684265043 7.6997236368 4.0027565207
2.5402607674 7.5223241721 4.3888474089
2.3321192354 8.2770667510 1.6837584066
2.4973493388 8.3406625911 1.4611745987
2.2017687869 8.2284864358 2.1888001159
2.3110280137 8.3588513766 2.6812904998
2.4062437089 8.3514101496 2.8863369862
2.7586908576 1.5172978651 3.6739023144
3.0544795133 1.4536377350 3.3270340126
3.1860884582 1.1824149145 3.6825757891
3.0588163647 1.1594187397 4.0697814138
2.7866609380 1.3496000995 4.3185869606
3.2212454146 1.0057152244 4.6324931212
2.8489571103 1.3079614828 4.8871365153
3.1436374549 1.1388054091 5.1830238627
2.9075982683 1.3127478891 5.2274630016
3.0534097849 1.3274680639 5.4866606290
2.7525771178 1.9003343291 3.0104668459
3.0823881852 1.9338845471 2.6589862857
3.2062864379 1.5847824923 2.9891760014
3.0120265136 1.5764304860 5.7812240174
2.7764542128 1.7923457435 5.8655010901
2.8739391705 1.8280744021 5.9931450402
2.7596694980 2.3897316047 2.4066587556
3.0090279781 2.4868153658 2.0859361781
3.2603741777 2.1711108516 2.2706404828
2.6608236680 2.1147060075 6.0575954959
2.4107653855 2.5173210673 6.0879407631
2.7765366184 2.7732710256 2.0019331383
2.8993009882 3.1012971252 1.6857457261
3.0490191416 2.6931239751 1.8737597458
2.2565011160 2.8334514984 6.0951215451
2.8397842586 3.7028709406 1.3322870100
2.6729019805 4.2473973060 1.0734424390
3.0313924234 4.1437677724 0.9255535732
2.9546421987 3.9371357832 1.1001459948
2.7988649835 4.5446244090 0.8146792428
2.9750623753 4.8617184069 0.6102051951
3.1237062234 4.4163657541 0.7320663276
3.1133140883 4.4294565677 6.2314939043
2.8985233993 4.7145414670 6.1436048977
2.9805307648 5.3854942010 0.4878735617
2.9034536483 5.2578498246 6.0035952857
3.0177880503 5.9147444084 0.4435563524
2.8858887616 5.7357232496 5.8667512320
3.0713975318 6.4626106435 0.4590538916
2.8502037462 6.0205435063 5.7425852402
2.7513845267 6.3008252218 5.5135476723
3.1502354007 6.9685500488 0.5402516990
2.7871915321 6.6233633433 5.2465800965
2.7810337579 6.9689917861 4.9044114556
3.2318743315 7.3810116693 0.6946200071
2.7874881663 7.5434921879 4.2402363293
3.1077024228 7.5188952376 4.0113400670
2.8398743002 7.7155443817 3.9015944390
2.7224684074 7.3555327675 4.5545907241
3.0720301545 7.2353148510 4.4636311296
2.9786992347 7.8006598924 0.9763273917
2.7248068234 8.1462377578 1.2006636272
2.9999631638 8.1790026355 1.2384062368
2.7298488646 7.8804906672 3.6449855199
2.8123134543 8.0872819553 3.2396695592
2.7349774447 8.3069260525 1.3090237165
3.0366142888 8.3293575700 1.3592431658
2.4629856514 8.4130414013 2.8775074245
2.6449253578 8.3112744187 2.9974200490
3.5662159537 0.7666798363 4.8108526566
3.5422920741 0.7724820391 4.4839047642
3.8123697667 0.6335641441 4.6623791469
3.7520948137 0.7007978855 5.0219679248
3.4232819325 1.2264901794 3.3328503624
3.4506434618 1.0183753902 3.6838777298
3.4173990977 0.9253652261 4.0637046937
3.5336694272 0.9042894500 5.1830464212
3.3979434335 1.1652720445 5.5511284806
3.2592985171 1.3476655263 5.7203120371
3.5711906770 1.4331523347 5.8998858415
3.4945711421 1.6910346008 2.6691163366
3.4834899790 1.4182547750 2.9955834073
3.2403497835 1.6710080792 6.0249023590
2.9405816239 1.8589895088 6.0807054401
3.2408199730 2.4643215423 1.9640504193
3.3264816311 2.7145351101 1.7305576930
3.5530560667 2.3500442225 1.9450668965
3.7121667699 1.9760182554 2.2527882448
3.3800827484 3.1539203513 1.4072074077
3.2855254290 3.7029037838 1.0891282283
3.7274392964 3.6945883064 0.9383758058
3.6441473309 3.3393777686 1.1662095721
3.3878980573 4.0779782191 0.8207605341
3.4502237614 4.5063609035 0.6156006017
3.6909916302 4.1048766665 0.7337786522
3.4453868400 4.2158867675 6.2384346720
3.7337372109 3.9213121885 6.1974327606
3.4995986140 4.3341851638 6.1541552219
3.3281875253 4.9902701754 0.4903479133
3.4362266029 4.9198133703 5.9789936038
3.4172863902 5.4143613113 0.4193591981
3.2589600653 5.5022275553 5.8614658916
3.4797936625 5.9576135695 0.3979416514
3.1300710984 5.9638186722 5.6781000272
3.4068762676 5.7073190087 5.7157236366
3.4651598944 5.9487993800 5.5009211531
3.5485941044 6.4990762514 0.4539781171
3.1649313664 6.4308547353 5.2692563852
3.5023550343 6.2017956088 5.2722470030
3.5261957890 6.4384861035 5.0077661640
3.6330909839 6.9917459639 0.6019046144
3.2592596022 6.8268445667 4.8163031187
3.5466146163 6.7247860959 4.6739987789
3.4026820602 6.9971022406 4.4857900133
3.5701454503 7.3710649998 0.7994640661
3.3079336157 7.5810199939 0.8305809722
3.4625603989 7.6458883554 1.0343123498
3.0991854535 7.7827243443 3.5568039610
3.3946370567 7.4657342620 3.7375570729
3.4961831485 7.6201694204 3.3007299553
3.4167868222 7.2150029309 4.1219096895
3.2436487543 8.2384463913 1.5232968489
3.3167259273 7.9537397730 1.2844943854
3.3768074526 8.1925241573 1.9894859433
3.5073127606 7.9755840098 1.7102001058
3.3594399009 8.1161802802 2.5128335017
3.5786755752 7.9279940168 2.2233013029
3.2451375252 7.9809680991 3.0339665837
3.5616163527 7.8129918917 2.7605526882
3.1837604264 8.3586346306 1.5215399788
3.2715601395 8.3253250351 1.7984841531
3.2758141111 8.2714103735 2.2692763934
3.0774225218 8.2112660488 2.8154464850
3.7665553784 0.8765670873 3.6953482486
4.0439314658 0.9005503495 3.3481096606
4.1147914167 0.6821741797 3.7154391524
4.0030011503 0.5998866142 4.2301349550
3.7185022615 0.7203521473 4.2268783915
4.0477974803 0.5475442735 4.7246072434
3.9675692973 0.6252717753 5.0529329198
3.8438212214 0.7663383624 5.2863914350
4.0414269976 0.7640021388 5.3991657296
3.8101580634 1.2427330899 3.0329035560
4.0810912022 1.3346497146 2.7491835405
4.1411404417 1.0717367676 3.0212965482
3.8062431838 1.0260910819 5.6076437631
3.9570386900 1.3384880537 5.9161342479
3.9058034499 1.6024245682 2.5548472836
4.0450480806 1.8786194074 2.2202558998
4.1586578374 1.5574152329 2.4831101119
3.7302450161 1.7491722496 6.1071727190
3.9962041653 1.7982895250 6.1047475784
3.7647962597 2.6592567189 1.6125582722
3.9197689111 2.2363461321 1.9251884819
4.0180788763 2.1675855702 6.1888215032
4.1561654549 2.4240546633 6.1633030167
3.7914297336 3.0207419417 1.3259285048
3.9344685245 3.2513926261 1.1341485632
4.0647138378 2.8384703269 1.3829902402
4.1040472844 2.7562260162 6.1937791927
4.1858814894 3.1018088120 6.0920993103
4.0220085718 3.5496195679 0.9550075097
4.0066625294 3.3831941130 6.1731970529
3.9788689383 3.8104988029 6.0601391391
3.8142490112 4.3595333556 0.6214850377
3.9785689245 3.9828912386 0.7630204210
3.8631201649 4.4187349368 5.9383007546
3.7393369429 4.8549968162 0.4934519797
4.0310652975 4.4474728026 0.5943483689
3.8458835214 4.8624170669 5.7975419435
4.0833719287 4.6062396297 5.7010453287
4.0432405366 5.0489450878 5.5405591419
3.8119635447 5.4535418418 0.4097314043
3.6763307982 5.4168467894 5.6588850796
3.9767853042 5.4768513995 5.3712064360
3.8739331194 6.0272277307 0.4190762466
3.7757715187 5.9479656338 5.2136132870
4.0579801686 5.6959640802 5.1170957958
4.0106393534 5.9971323502 4.8899682586
3.9867996808 6.5490678171 0.5567421907
3.9554127061 6.5755756117 4.2292342974
4.1419448662 6.3349250786 4.2307287146
4.1296690234 6.5568288910 3.9025908624
3.8128827500 6.3988288011 4.7030317683
4.0929833720 6.1826763259 4.5276835555
3.9937760807 6.9060846400 0.7049700286
3.7947668227 7.0862901813 3.6949127538
4.1276015067 6.8221460564 3.4600329280
4.0271182579 7.1001365893 3.1740383127
3.6676183361 6.8515564528 4.3196761240
3.8560353226 7.1445060475 0.7879086210
3.6777491637 7.6770409721 1.4288812772
3.8694404969 7.3342171548 1.1110444420
3.7914793043 7.6672355445 1.9320460549
4.0049535508 7.3641462842 1.6393995993
3.8224911898 7.5937806291 2.4687774547
4.0508843488 7.3426561965 2.1701601251
3.8074268973 7.4314232777 3.0186581002
4.0577496875 7.2372382220 2.7032138497
4.2029056753 0.8196297598 3.3440341986
4.2204972721 0.6334082245 3.6900724275
4.1730612497 0.5558264967 4.0394854123
4.1379033250 0.5233542163 4.5269635712
4.1208419960 0.5978301071 5.0581956676
4.1411918223 0.7617879973 5.4336864543
4.2201578932 1.2840515223 2.7321265184
4.2390032459 1.0260561414 3.0161785930
4.0691964024 1.0494972348 5.7189658927
4.1051130327 1.5401156014 6.0102219330
4.1991060876 1.7772322690 2.2604456667
4.2444403875 1.5287325279 2.4753468510
4.1802969474 2.0984375119 6.1209314519
4.0713399443 2.4756900798 1.6702793855
4.1402720606 2.1748618034 1.9184000311
4.2947762978 2.7431505502 6.0575603030
4.1243300322 3.2165742473 1.1247171102
4.1918543231 2.8512141339 1.3447292930
4.1839746910 2.5661766786 1.5678200438
4.3703342549 3.2016449690 5.9058013208
4.4126336401 3.0502005233 5.9085909466
4.4591003475 3.3317650935 5.7672115600
4.1216230802 3.7055136343 0.8760706967
4.4154357954 3.6524634730 5.6961654340
4.4870804584 3.5914636090 5.6293328256
4.4743640651 3.9074232908 5.5175562858
4.2580643072 3.5464472588 5.9090238640
4.1323408918 4.1432918146 0.6977187995
4.4056108392 4.1254902892 5.5188762100
4.4422485081 4.3891000438 5.3523077695
4.2149708558 4.1004010707 5.7493134729
4.0175721128 4.9548905009 0.4809818080
4.1352293791 4.4982729258 0.5823250680
4.3070183972 4.7126729231 5.3755451076
4.4319113546 4.9123661702 5.0891978255
4.0186997024 5.6267185099 0.4195089620
4.3685655195 5.3603948874 4.8673189833
4.4511379802 5.2770698396 4.8175119317
4.4278202090 5.6282020458 4.5322265579
4.1908195911 5.3285412771 5.1951491417
4.0903696880 6.1620995876 0.4790697009
4.3106701180 6.0356284427 4.2712214267
4.4212804895 5.9319752832 4.2063774706
4.4097561774 6.2037987378 3.8317318319
4.2007167359 5.7586054853 4.8193222267
4.2210042052 6.5241486421 0.6527561503
4.2259526548 6.7757662647 0.8549767006
4.3303478553 6.6805838462 0.8535959153
4.3934395091 6.8507645526 2.0069665958
4.4674435696 6.7485229458 1.9609909696
4.4111306927 6.8212348703 1.5995824110
4.4099075521 6.7437586111 2.5911268307
4.4720355994 6.6939314177 2.3319715437
4.4116358295 6.6032295309 3.0495641224
4.4677334830 6.5885626918 2.8171046252
4.3266087643 6.4907913776 3.5444030876
4.4382661221 6.4459108189 3.3109134359
4.0778820932 7.0378163770 0.9310963814
4.3569891832 6.8001028428 1.1438210075
4.2389747196 7.0028440836 1.3752949221
4.2235964980 7.1112647677 1.9053673305
4.2609495504 7.0184875963 2.3896283225
4.2570781465 6.8562889172 2.9873410517
3 2 1 0
3 4 3 0
3 0 3 2
3 4 5 3
3 0 1 6
3 6 1 7
3 0 8 4
3 0 6 8
3 5 4 9
3 9 4 8
3 12 11 10
3 12 10 7
3 10 6 7
3 10 13 6
3 6 14 8
3 6 13 14
3 9 8 15
3 8 16 15
3 8 14 16
3 16 17 15
3 20 19 18
3 22 21 18
3 18 21 20
3 21 22 11
3 22 10 11
3 22 23 10
3 10 24 13
3 10 23 24
3 13 25 14
3 13 24 25
3 14 26 16
3 14 25 26
3 17 16 27
3 27 16 26
3 19 28 18
3 18 28 22
3 22 28 29
3 22 29 23
3 23 29 30
3 32 31 30
3 31 23 30
3 31 24 23
3 24 33 25
3 24 31 33
3 35 26 34
3 26 33 34
3 26 25 33
3 26 35 27
3 32 36 31
3 31 36 33
3 33 36 37
3 33 37 34
3 40 39 38
3 42 41 38
3 38 41 40
3 42 43 41
3 45 44 2
3 2 44 1
3 3 38 39
3 45 3 39
3 2 3 45
3 38 3 5
3 46 38 5
3 42 38 46
3 43 42 47
3 47 42 46
3 50 49 48
3 44 50 48
3 7 44 48
3 1 44 7
3 9 51 46
3 9 46 5
3 47 46 52
3 46 53 52
3 46 51 53
3 53 54 52
3 57 56 55
3 57 55 49
3 49 55 48
3 55 11 48
3 11 12 48
3 48 12 7
3 15 51 9
3 51 15 17
3 58 51 17
3 53 51 58
3 54 53 59
3 59 53 58
3 61 60 20
3 20 60 19
3 21 55 56
3 61 21 56
3 20 21 61
3 55 21 11
3 27 62 58
3 27 58 17
3 59 58 63
3 63 58 62
3 60 64 19
3 19 64 28
3 64 66 65
3 29 64 65
3 28 64 29
3 67 30 29
3 67 29 65
3 67 32 30
3 69 68 35
3 69 35 34
3 27 35 62
3 35 70 62
3 35 68 70
3 62 70 63
3 66 71 65
3 65 71 67
3 67 71 72
3 72 74 73
3 72 73 36
3 67 72 36
3 32 67 36
3 36 73 75
3 76 36 75
3 37 36 76
3 34 37 69
3 69 37 76
3 74 77 73
3 73 77 75
3 80 79 78
3 78 81 80
3 84 83 82
3 86 85 82
3 82 85 84
3 85 86 79
3 86 78 79
3 86 87 78
3 81 78 88
3 78 89 88
3 78 87 89
3 91 90 89
3 89 90 88
3 91 92 90
3 95 94 93
3 95 93 83
3 93 82 83
3 93 96 82
3 96 39 40
3 86 96 40
3 82 96 86
3 86 40 41
3 86 41 87
3 87 41 43
3 97 87 43
3 89 87 97
3 89 98 91
3 89 97 98
3 92 91 99
3 91 100 99
3 91 98 100
3 100 101 99
3 104 103 102
3 104 102 94
3 102 93 94
3 102 105 93
3 105 44 45
3 96 105 45
3 93 105 96
3 96 45 39
3 47 106 97
3 47 97 43
3 97 107 98
3 97 106 107
3 98 108 100
3 98 107 108
3 101 100 109
3 109 100 108
3 102 103 110
3 110 103 111
3 110 49 50
3 105 110 50
3 102 110 105
3 105 50 44
3 52 106 47
3 106 52 54
3 112 106 54
3 107 106 112
3 107 113 108
3 107 112 113
3 109 108 114
3 114 108 113
3 117 116 115
3 117 115 111
3 111 115 110
3 115 56 110
3 56 57 110
3 110 57 49
3 59 118 112
3 59 112 54
3 120 113 119
3 113 118 119
3 113 112 118
3 113 120 114
3 115 116 61
3 116 60 61
3 116 121 60
3 115 61 56
3 63 122 118
3 63 118 59
3 119 118 123
3 123 118 122
3 64 60 124
3 60 125 124
3 60 121 125
3 124 66 64
3 69 126 68
3 127 70 68
3 127 68 126
3 122 63 70
3 127 122 70
3 128 122 127
3 123 122 129
3 129 122 128
3 124 125 130
3 130 125 131
3 132 71 66
3 124 132 66
3 130 132 124
3 133 72 71
3 133 71 132
3 133 74 72
3 75 134 76
3 126 69 76
3 134 126 76
3 135 126 134
3 137 127 136
3 127 135 136
3 127 126 135
3 127 137 128
3 128 137 138
3 128 138 129
3 131 139 130
3 130 139 132
3 132 139 140
3 142 141 140
3 141 132 140
3 141 133 132
3 143 77 74
3 133 143 74
3 141 143 133
3 134 75 77
3 143 134 77
3 144 134 143
3 146 135 145
3 135 144 145
3 135 134 144
3 135 146 136
3 142 147 141
3 141 147 143
3 143 147 148
3 143 148 144
3 144 148 149
3 144 149 145
3 152 151 150
3 154 153 150
3 150 153 152
3 156 155 154
3 154 155 153
3 158 157 156
3 156 157 155
3 158 159 157
3 162 161 160
3 162 160 151
3 160 150 151
3 160 163 150
3 163 79 80
3 154 163 80
3 150 163 154
3 154 80 81
3 164 154 81
3 156 154 164
3 156 165 158
3 156 164 165
3 159 158 166
3 158 167 166
3 158 165 167
3 167 168 166
3 171 170 169
3 171 169 161
3 161 169 160
3 169 83 160
3 83 84 160
3 160 84 85
3 160 85 163
3 163 85 79
3 88 164 81
3 164 88 90
3 164 90 165
3 165 90 92
3 172 165 92
3 167 165 172
3 168 167 173
3 173 167 172
3 176 175 174
3 176 174 170
3 170 174 169
3 174 94 169
3 94 95 169
3 169 95 83
3 99 172 92
3 178 177 101
3 101 177 99
3 177 173 99
3 173 172 99
3 174 175 104
3 175 103 104
3 175 179 103
3 174 104 94
3 109 180 178
3 109 178 101
3 183 182 181
3 179 183 181
3 111 179 181
3 103 179 111
3 185 184 180
3 109 185 180
3 114 185 109
3 188 187 186
3 188 186 182
3 182 186 181
3 186 116 181
3 116 117 181
3 181 117 111
3 119 189 120
3 189 190 120
3 190 114 120
3 190 185 114
3 186 187 191
3 191 187 192
3 191 121 116
3 191 116 186
3 123 193 189
3 123 189 119
3 190 189 194
3 194 189 193
3 191 192 195
3 195 192 196
3 195 125 121
3 195 121 191
3 198 197 193
3 123 198 193
3 129 198 123
3 193 197 194
3 195 196 199
3 199 196 200
3 199 131 125
3 199 125 195
3 136 201 137
3 137 201 202
3 203 137 202
3 138 137 203
3 129 138 198
3 198 138 203
3 199 200 204
3 204 200 205
3 206 139 131
3 199 206 131
3 204 206 199
3 207 140 139
3 207 139 206
3 207 142 140
3 145 208 146
3 201 136 146
3 208 201 146
3 209 201 208
3 202 201 210
3 210 201 209
3 205 211 204
3 204 211 206
3 206 211 212
3 214 213 212
3 213 206 212
3 213 207 206
3 215 147 142
3 207 215 142
3 213 215 207
3 216 148 147
3 216 147 215
3 148 216 217
3 218 148 217
3 149 148 218
3 145 149 208
3 149 219 208
3 149 218 219
3 208 219 209
3 209 219 220
3 209 220 210
3 213 214 221
3 221 214 222
3 213 223 215
3 213 221 223
3 225 216 224
3 216 223 224
3 216 215 223
3 216 225 217
3 228 227 226
3 230 229 226
3 226 229 228
3 232 231 230
3 230 231 229
3 234 233 232
3 232 233 231
3 234 235 233
3 238 237 236
3 238 236 227
3 227 236 226
3 236 151 226
3 151 152 226
3 226 152 153
3 226 153 230
3 230 153 155
3 230 155 232
3 232 155 157
3 232 157 234
3 240 239 159
3 159 239 157
3 239 235 157
3 235 234 157
3 240 241 239
3 244 243 242
3 244 242 237
3 237 242 236
3 242 161 236
3 161 162 236
3 236 162 151
3 166 240 159
3 246 245 168
3 168 245 166
3 245 241 166
3 241 240 166
3 249 248 247
3 249 247 243
3 243 247 242
3 247 170 242
3 170 171 242
3 242 171 161
3 173 250 246
3 173 246 168
3 247 248 176
3 248 175 176
3 248 251 175
3 247 176 170
3 177 250 173
3 254 253 252
3 251 254 252
3 179 251 252
3 175 251 179
3 257 256 255
3 257 255 253
3 253 255 252
3 255 182 252
3 182 183 252
3 252 183 179
3 259 258 184
3 259 184 185
3 255 256 188
3 256 187 188
3 256 260 187
3 255 188 182
3 190 259 185
3 190 261 259
3 260 192 187
3 262 192 260
3 194 261 190
3 194 263 261
3 262 196 192
3 264 196 262
3 266 265 197
3 266 197 198
3 194 197 263
3 263 197 265
3 264 200 196
3 267 200 264
3 269 268 203
3 269 203 202
3 198 203 266
3 266 203 268
3 267 205 200
3 270 205 267
3 273 272 271
3 275 274 271
3 275 271 272
3 275 269 274
3 269 210 274
3 269 202 210
3 270 276 205
3 205 276 211
3 276 278 277
3 212 276 277
3 211 276 212
3 277 214 212
3 280 279 218
3 280 218 217
3 271 219 273
3 219 279 273
3 219 218 279
3 219 271 220
3 220 271 274
3 220 274 210
3 277 278 281
3 281 278 282
3 281 222 214
3 281 214 277
3 224 283 225
3 283 284 225
3 284 217 225
3 284 280 217
3 287 286 285
3 285 288 287
3 290 289 228
3 228 289 227
3 291 228 229
3 291 290 228
3 231 285 286
3 291 231 286
3 229 231 291
3 292 288 285
3 231 292 285
3 233 292 231
3 294 293 235
3 293 233 235
3 293 292 233
3 294 295 293
3 297 296 238
3 238 296 237
3 238 227 289
3 238 289 297
3 239 294 235
3 299 298 241
3 241 298 239
3 298 295 239
3 295 294 239
3 302 301 300
3 243 244 300
3 244 302 300
3 244 303 302
3 244 237 296
3 244 296 303
3 245 299 241
3 300 301 249
3 301 248 249
3 301 304 248
3 300 249 243
3 307 306 305
3 304 307 305
3 251 304 305
3 248 304 251
3 310 309 308
3 310 308 306
3 306 308 305
3 308 253 305
3 253 254 305
3 305 254 251
3 313 312 311
3 308 309 257
3 309 256 257
3 309 314 256
3 308 257 253
3 313 311 258
3 259 313 258
3 315 313 259
3 314 260 256
3 316 260 314
3 261 315 259
3 261 317 315
3 316 262 260
3 318 262 316
3 321 320 319
3 320 317 319
3 317 263 319
3 317 261 263
3 318 264 262
3 322 264 318
3 325 324 323
3 323 324 321
3 323 321 319
3 266 323 319
3 265 266 319
3 265 319 263
3 322 267 264
3 326 267 322
3 329 328 327
3 327 328 325
3 327 325 323
3 269 327 323
3 268 269 323
3 268 323 266
3 331 270 330
3 270 326 330
3 270 267 326
3 332 331 330
3 335 334 333
3 272 273 333
3 334 272 333
3 336 272 334
3 327 275 329
3 275 336 329
3 275 272 336
3 275 327 269
3 331 276 270
3 338 337 278
3 338 278 276
3 332 338 276
3 331 332 276
3 340 339 337
3 340 337 338
3 342 341 339
3 342 339 340
3 344 343 341
3 344 341 342
3 343 344 335
3 343 335 333
3 280 343 333
3 279 280 333
3 279 333 273
3 345 282 337
3 337 282 278
3 346 337 339
3 345 337 346
3 347 339 341
3 346 339 347
3 348 341 343
3 347 341 348
3 284 348 280
3 280 348 343
3 351 350 349
3 353 352 349
3 349 352 351
3 286 287 353
3 287 352 353
3 287 354 352
3 356 355 288
3 355 287 288
3 355 354 287
3 356 357 355
3 360 359 358
3 360 358 350
3 350 358 349
3 358 289 349
3 289 290 349
3 349 290 291
3 349 291 353
3 353 291 286
3 292 356 288
3 361 357 356
3 292 361 356
3 293 361 292
3 293 295 361
3 361 295 362
3 365 364 363
3 365 363 359
3 359 363 358
3 363 296 358
3 296 297 358
3 358 297 289
3 295 298 366
3 367 295 366
3 362 295 367
3 369 368 302
3 302 368 301
3 303 363 364
3 369 303 364
3 302 303 369
3 363 303 296
3 367 366 370
3 367 370 371
3 374 373 372
3 368 374 372
3 304 368 372
3 301 368 304
3 371 370 375
3 371 375 376
3 372 373 307
3 373 306 307
3 373 377 306
3 372 307 304
3 376 375 378
3 376 378 379
3 380 309 310
3 381 380 310
3 306 381 310
3 377 381 306
3 379 378 312
3 313 379 312
3 382 379 313
3 384 383 380
3 383 309 380
3 383 314 309
3 384 380 381
3 387 386 385
3 386 382 385
3 382 315 385
3 382 313 315
3 383 316 314
3 388 316 383
3 387 385 389
3 387 389 390
3 317 389 315
3 315 389 385
3 388 318 316
3 391 318 388
3 394 393 392
3 392 393 390
3 392 390 389
3 321 392 389
3 320 321 389
3 320 389 317
3 391 322 318
3 395 322 391
3 398 397 396
3 400 399 396
3 400 396 397
3 399 400 394
3 399 394 392
3 325 399 392
3 324 325 392
3 324 392 321
3 395 326 322
3 401 326 395
3 404 403 402
3 402 403 398
3 396 402 398
3 405 402 396
3 329 405 328
3 405 399 328
3 405 396 399
3 328 399 325
3 401 406 326
3 326 406 330
3 408 407 332
3 330 408 332
3 406 408 330
3 410 409 407
3 410 407 408
3 412 411 409
3 412 409 410
3 414 413 411
3 414 411 412
3 413 414 404
3 413 404 402
3 335 413 402
3 334 335 402
3 334 402 336
3 336 402 405
3 336 405 329
3 407 338 332
3 338 407 340
3 340 407 409
3 340 409 342
3 342 409 411
3 342 411 344
3 344 411 413
3 344 413 335
3 416 415 351
3 351 415 350
3 417 351 352
3 417 416 351
3 418 352 354
3 418 417 352
3 419 354 355
3 419 418 354
3 355 357 419
3 419 357 420
3 422 421 360
3 360 421 359
3 360 350 415
3 360 415 422
3 423 420 357
3 423 357 361
3 361 362 423
3 423 362 424
3 426 425 365
3 365 425 364
3 365 359 421
3 365 421 426
3 367 424 362
3 367 427 424
3 428 368 369
3 429 428 369
3 364 429 369
3 425 429 364
3 371 427 367
3 371 430 427
3 432 431 374
3 374 431 373
3 374 368 428
3 433 374 428
3 432 374 433
3 433 428 429
3 436 435 434
3 435 430 434
3 430 376 434
3 430 371 376
3 431 377 373
3 437 377 431
3 440 439 438
3 438 439 436
3 434 438 436
3 441 438 434
3 379 441 376
3 376 441 434
3 437 381 377
3 442 381 437
3 440 438 443
3 440 443 444
3 445 438 441
3 443 438 445
3 382 445 379
3 379 445 441
3 447 446 384
3 384 446 383
3 384 381 442
3 384 442 447
3 444 443 448
3 444 448 449
3 387 448 386
3 448 445 386
3 448 443 445
3 386 445 382
3 446 388 383
3 450 388 446
3 453 452 451
3 451 452 449
3 448 451 449
3 454 451 448
3 390 454 387
3 387 454 448
3 450 391 388
3 455 391 450
3 458 457 456
3 456 457 453
3 451 456 453
3 459 456 451
3 394 459 393
3 459 454 393
3 459 451 454
3 393 454 390
3 461 395 460
3 395 455 460
3 395 391 455
3 462 461 460
3 465 464 463
3 467 466 463
3 467 463 464
3 469 468 466
3 469 466 467
3 471 470 468
3 471 468 469
3 470 471 458
3 470 458 456
3 398 470 456
3 397 398 456
3 397 456 400
3 400 456 459
3 400 459 394
3 472 401 461
3 461 401 395
3 461 462 473
3 474 461 473
3 472 461 474
3 474 473 465
3 463 474 465
3 475 474 463
3 476 463 466
3 475 463 476
3 477 466 468
3 476 466 477
3 404 477 403
3 477 470 403
3 477 468 470
3 403 470 398
3 472 406 401
3 406 472 408
3 408 472 474
3 408 474 410
3 410 474 475
3 410 475 412
3 412 475 476
3 412 476 414
3 414 476 477
3 414 477 404