OFF
818 1570 0
6.0794234768 33.7190160550 26.3352951361
6.8762618365 33.5231037554 26.0440178649
6.8640157753 32.6628198981 26.1988655628
7.0679839499 32.6898220730 26.5162606495
5.9158274897 34.4574297410 26.2899563790
6.9363010775 34.3521730490 26.1935949675
6.2821897798 34.1351291938 26.5096706395
6.0198752844 34.7564806599 26.3816119144
7.8800417577 31.5003492719 26.2758262529
8.7722973348 31.6504731100 25.7300474937
9.2721570573 30.3099974908 26.0784213816
9.3844853403 30.7409266483 26.5468442498
9.5301099856 33.1750423647 25.6625748365
8.6026111580 32.8575098761 26.7062836186
9.0517791283 33.7336545375 26.3590694868
6.9415029347 34.3471127582 26.4791675594
10.7035962288 29.2960142096 26.1023903559
11.0927834716 29.6943494755 25.3993475454
12.5150662325 28.5724082644 25.5732036795
12.2989823010 29.0187973013 26.3113985380
12.3191750493 31.3304311308 24.4486206178
11.9465146186 30.6947333105 26.8380110032
12.7004395718 33.1185544088 24.9265888559
11.9998533535 32.5573490602 26.7761712808
12.3236156692 33.5022748380 25.9476886974
16.2202532147 20.3315565628 5.1957184414
17.2950369274 19.8470127105 4.0784865344
17.1463428710 18.6425888053 4.8917405542
16.6789437407 19.1506200898 5.9521915308
16.3316183742 21.7188479632 4.6015014681
17.7001149791 22.0309362354 3.7293228739
16.1522224683 20.6464669512 6.4513690105
15.9530868436 22.4644299259 6.0176555737
16.3561445337 21.9357377322 7.5325759818
16.5530464106 23.7601344988 4.9003673046
18.4733808099 25.0076140465 4.1020387726
16.2813446836 24.6373180756 6.3803151209
16.3833618063 23.8241916018 7.5762279845
14.1629706103 28.9297581839 24.1404565308
14.9240860658 28.0189762334 25.2691236002
15.1952280340 28.8939908404 26.4105142694
17.0254363220 25.7563344741 5.7100477129
14.6642060775 30.3149214292 22.9836518948
15.9512013751 31.1304996552 21.6472604457
16.6043997755 29.2181679910 21.6157452634
15.3426053185 30.8400910337 27.0377226936
14.6987305958 31.7488157299 22.8858336996
14.3496634490 32.8166066043 23.7217730868
16.0434865484 33.1079932454 26.7748107422
15.9569405370 34.2901209565 24.6206021220
18.2303431373 17.2326585464 6.0020967406
18.8743657474 17.5392096514 4.2022762734
20.2537172843 15.4568258175 4.9348931072
20.3783833114 14.5625736239 6.9943545227
18.7308683226 17.0475826096 8.3731340188
20.0199328532 15.3315810182 9.3101055145
19.5880498755 19.3188678286 3.2568974397
17.1977193335 19.6725065741 7.7392941661
19.3392361704 17.0944549710 10.3030684188
18.4343628332 19.3775153443 10.1557328177
19.6242372567 18.4705019076 11.8804003878
20.2098980590 22.0927816683 2.9517116782
17.5209858558 23.0337738564 9.8121637319
19.2192084802 21.3256134810 12.6060500670
21.0547672071 24.6049631344 3.0836097322
17.2658745332 26.5402091960 8.2534316335
17.9350997338 26.4314158451 11.3288768049
18.7957559921 24.7338885266 13.1938557351
17.5047941395 27.4708580990 23.1233069408
18.0695399968 27.4876307718 25.0445352234
18.9483328041 29.0022626945 26.6973574074
18.3621010125 27.7126621694 5.9205745717
20.9423143612 27.6127223350 4.3043484389
18.5560438934 29.9931432348 8.3920898088
18.1280585520 29.4859447488 11.7632032128
18.5368877173 27.6062106625 13.8203479091
17.4007504050 31.2701809177 19.0883655049
18.1864346469 30.0883702301 16.8738873450
18.2291378694 28.7889754135 19.0099898951
18.3544032571 27.5956899948 20.9075971839
18.5377046529 31.3330249905 27.4949806219
19.8321024823 29.9070970972 6.2373869226
20.2658954230 32.1357690594 8.0238494699
19.1162135094 32.8793196716 11.2688108610
21.1068071159 34.6313367521 9.9226678083
18.3383794852 29.6439465848 14.7629834988
18.2494916453 31.9502220245 15.1076103877
18.2515743114 34.0275900386 17.7522763800
16.7387566797 33.4283378885 21.4722861211
20.2676455159 33.4769687587 27.9993955517
20.0569777667 35.3762208825 12.0757135578
21.3359738836 36.3092591837 11.7479436626
19.2814466861 35.0444124455 14.5548674990
19.4582048679 35.9124148838 16.9632532616
19.1015871473 35.7078301101 19.3793796458
18.9099178928 36.0007418686 22.2894436398
18.8533381528 36.1064850837 24.5613937513
20.3370481483 37.1498629722 23.5025211070
18.8121680434 35.1911908716 26.3546908623
20.8650017925 36.7142004280 13.6940668034
20.4394599716 36.7559349857 15.6752720547
20.7805393243 37.1211839755 25.3576779267
21.8054513181 12.9560154008 9.4389611304
22.3620978343 12.1455903911 6.9229852686
23.4407280633 10.6517954300 8.1820738368
24.3463279293 10.1815398124 11.2176986935
22.5747017001 13.1759839880 12.4860259137
24.1073969452 11.8219094579 13.8530116650
22.1324631224 15.8167817583 3.5457843632
22.4424602344 13.1833304770 5.1084557257
20.7819296384 15.8319801298 11.7235459230
23.3086566961 13.5328721044 14.5699341918
22.2400992299 15.5716939637 14.3038262585
23.5895281878 14.8926716820 15.9956230612
22.8141368151 18.8964526982 2.6331901427
21.0399406248 18.9448665753 14.3979940276
23.0729511740 17.4240486375 16.6009191443
23.3217692072 22.0766987945 2.4852023575
20.4166821088 23.1870664697 15.9845725391
22.5011437775 20.6855561024 17.5697381827
23.7858448034 25.2150196090 2.9510630713
19.3205507696 26.1279771112 15.6633451217
22.0490962875 23.6034848590 19.5516393857
19.7549770630 26.2959288114 18.9737465976
20.7776084018 25.9673015109 22.6231140147
19.2231446482 26.7201928018 21.4805556277
23.5280689391 26.1339855541 24.8334721143
20.8018339442 27.1725163370 25.2201663704
24.6601731156 28.2022137281 4.0065774732
18.7836356846 28.2125195279 16.4881349023
22.2886061144 28.0072947319 26.4660635022
22.3613616025 30.5075910766 28.1470328667
22.4889072837 30.9007547152 5.8795049232
22.1686856366 33.2640988522 7.7661818137
24.5400152397 32.9799861576 7.1354650067
22.7023480772 33.0791130187 29.2497949630
22.2566038904 34.6998612669 29.0975843362
24.0153584863 34.7887546340 30.3439862781
23.6203516649 34.7553196801 8.9857523410
23.0386255355 36.2417550359 10.9256756101
20.7709267799 37.1429408714 20.0647901057
20.7455754192 37.0515866131 17.7163818702
20.9757891207 37.4553204701 21.9008883377
22.3375373510 38.1707542824 20.5226832098
22.9502368763 35.9438272480 29.3901620190
21.6673548822 36.2462451613 27.8706744604
22.8110592978 37.3266421790 13.0697996863
22.4255075028 37.8521772881 15.9839641043
22.4341211043 38.4831860221 22.9332586511
23.0500862685 38.8141852404 26.2491311338
27.0809973955 6.1879173506 8.6606983985
28.0217242450 5.8906705230 6.8070468659
29.1563668912 4.7748417985 8.3724799210
28.5613362894 4.8415283065 9.9786678015
26.4340304216 7.5997941209 6.3596479170
26.6920037210 8.9866132251 4.7469898806
28.4349119910 7.0146494715 5.2288820901
25.0940578475 8.5535644501 8.2856223781
27.9759616292 5.8399964514 11.3029232586
26.0667175025 7.5416325650 10.3898596166
26.9352874626 7.8993565002 12.7709592457
24.4637392377 10.2656435501 5.9440506888
25.6871312441 11.9360506331 3.8370932978
26.2842748135 10.1993815490 14.8148802529
24.9427052091 12.7933623418 16.1611648326
26.8592606985 11.4838400872 17.1163228606
26.4152930962 13.0428769880 18.1849049723
28.0530327430 12.0332068083 18.7018508599
28.2919744324 13.3253238386 25.7969632114
28.2521010134 13.5960710403 25.2838623538
28.8011986019 13.0555811948 25.6335871802
29.1825930954 13.1543140537 26.0673591955
26.0254074315 15.3545647095 2.6968879215
25.1320149461 15.4203249006 18.2034089705
27.7115989478 14.0031536906 20.2873559186
28.1141653083 14.1191066219 25.4265006453
28.1841508631 14.9160753677 24.5078516521
28.9121774077 13.9507478987 25.8970674053
26.4229959918 18.7659821975 2.2789912468
24.4459275704 18.8303750468 19.0868064811
26.4541588085 17.0078140884 20.8882575043
28.6282781803 15.4572603816 25.1411038935
26.7813418734 22.1703468022 2.3934389510
23.8800598836 21.5154862808 19.9550720639
25.6854150514 20.2398801351 21.4987732291
27.2986356382 25.3772335521 3.0049010367
24.3452398419 23.4942214322 22.3875005457
26.8044875030 24.5142092119 25.2181043503
28.0069300959 28.0433237233 4.0117567164
25.4440341611 27.6181137360 27.2071261977
25.7715436188 29.8634994095 29.3648939092
26.6669815898 30.6969999836 5.5346948428
26.9491649634 32.8429642781 7.2204406245
24.7316119666 32.1374361470 30.1689998208
25.8865630787 33.7549049862 31.8430282903
26.2868229183 34.3889413629 8.6710401759
24.7337754142 37.2298053092 12.2918528492
25.5968065682 36.0374110161 10.5721542822
27.3391500215 37.4488321081 12.7671674753
22.2962422346 38.0327262121 18.6282747865
24.1182995447 38.0897203267 29.8120896392
25.6398423141 36.2562847606 32.2773736572
25.7437408175 39.0289185344 32.7411344511
26.6768621416 37.6371959215 34.2962863640
25.1372672129 38.3041147069 14.7528848169
24.7980835330 39.5455078624 19.1599349899
24.6396021288 40.7691577041 23.6318227750
24.8682401751 42.0370601832 27.6528678241
26.0612622543 43.7741892159 24.4142747296
25.4175396570 41.9137198198 31.6351029483
26.1535094010 41.1033040431 33.7287973991
26.6680844421 39.6950223931 34.7567531664
25.6979215596 45.9735501138 27.5174369791
26.7041833946 47.0451711638 24.9350806536
25.4419247761 45.3585303809 30.5835722791
26.1514383024 42.9921051201 33.9162385889
25.8976750206 45.1367355560 33.3576956175
26.5390181224 44.7468957500 35.3301829135
26.0709671548 49.2087910093 27.5489036004
26.8085372449 49.6586481609 25.6075516296
25.6405539204 48.9412985325 30.4081346616
25.8171216521 48.3439250457 33.2959987863
26.4633062780 47.4733830331 35.7296720553
26.4506935361 51.4689753472 27.1962291181
25.9260062232 52.5889969688 30.0128906917
26.7332508265 54.2055791078 27.7211415067
25.8458760124 52.2859298583 33.7567782450
26.3098897786 50.6680361283 36.0819509784
26.2128272573 56.5934789890 30.5693374318
27.3403536774 57.6819497468 27.9680906212
25.8539440390 55.4405367813 32.9782545535
26.2750260050 53.3293397006 36.8073466251
26.2169986644 56.3297000073 36.5542529733
26.7338613166 54.6413238361 38.9231413279
26.7857174178 56.7065529377 39.4419986779
27.3089698623 55.8123035389 40.8311663314
26.6779058199 60.2721249289 30.7796148705
28.2958329357 61.4457450781 28.1695579411
26.1600084861 59.1674508033 33.8726175665
26.4870229779 59.7839875843 36.9218731511
26.9020540583 58.8626363127 39.1746030034
27.3985919388 57.7676562263 41.0148931883
27.1046280158 63.4649676893 30.8744597511
28.2824368298 64.6282411634 29.5715449903
26.5703524443 62.8078302391 33.1808589456
26.7192723123 62.4361164372 36.0035035506
27.4103976889 65.4716804240 31.1134441851
27.0786530537 65.3400166275 32.5239269835
27.5234721655 66.4056420798 31.8858391973
27.2646728950 65.3560732457 34.9727033281
28.2308069473 67.3297092141 33.1118051773
30.1549724958 5.2905824186 6.4569936567
31.8504507651 4.1992617649 8.3747925684
30.5659500028 4.2050516256 10.5446706341
29.1216439578 4.6636475536 11.1018423498
30.0390254211 4.9171185273 12.3412180573
28.9179253841 9.0749792336 3.8749149105
31.2054624724 6.7541030614 4.7532840882
29.2953350429 6.4434787904 13.6367501238
28.5428455297 8.2502091629 14.9336599001
31.3297200355 7.4704676296 15.5662729066
29.3381181501 11.9494833543 2.9112525045
29.2107154827 10.1021154336 17.1406841466
30.4942402876 12.1868676940 20.1862777693
29.3700329761 13.6567450791 24.6291504410
30.2445849031 13.1638696669 25.8452739552
31.0489132649 13.8597417322 26.4364551806
29.7943365043 15.2467769994 2.3535096766
29.7759532319 13.6190991186 22.7095800333
28.1442871573 15.1512670697 22.7717936205
30.0276071056 14.8304054031 25.7205886701
31.4101180001 14.4080317662 25.8483588484
31.0634652712 14.8163508066 25.1972590639
30.1193855461 18.7035238445 2.2717799342
27.8474813278 17.9492810000 23.6022709805
30.0288107894 17.0649020709 25.3862168543
30.4284550885 22.1187668517 2.6323282531
26.8592576964 21.6710759004 23.5267623778
29.1902152655 21.2552961010 25.4972697457
30.9635308927 25.3560480436 3.5271754896
29.1945570769 24.2582024672 26.7160973380
30.4628596595 28.0892193083 4.6270569301
28.6697628221 29.3642076725 4.7963633421
29.8502588530 29.9543915848 5.7782239700
28.1044740504 26.1102104713 27.2674391233
28.4246476710 27.9149752041 29.6150119053
27.4627320510 31.2474024260 31.8884621691
30.0974772158 28.9117611945 32.9650927633
29.5196476394 31.7468796353 35.1581872651
31.1499392997 29.6308357938 35.6213496747
28.5292400391 33.5436501473 8.4166861358
29.1347104435 31.8464501369 7.1052748506
31.4868294509 32.6883806669 9.0152977445
27.5170653431 34.8196439947 34.4116242388
31.5457416769 31.4293097590 38.1493057071
29.6557652542 34.8756869077 38.1806736531
31.3825667329 33.7423188272 40.2552346474
28.9832195505 35.3273451265 10.4886900707
30.9176877326 37.5217650963 13.0491936203
27.9470703833 38.9410184163 37.2830505520
30.6545412906 35.6965865771 40.9566277808
29.7708656650 38.2618885477 41.0595720270
31.0015866879 36.9085845730 42.5154096741
28.5913745398 39.7091351064 15.8066771057
28.1540458364 42.1985119365 19.0384194891
30.9544917721 42.7436999534 17.1363205544
26.4146785234 42.2214312963 21.5261959107
26.9425478940 42.2561478064 35.9054171559
27.8926083918 42.8302337492 38.6647865422
28.9172552595 41.8375479381 40.9595170527
30.9401386486 38.6206571877 43.3980984528
30.3475246141 41.0565204668 43.4671458826
32.2192770571 39.5553062165 44.9842115570
29.6384320451 44.1396832906 19.1385065395
28.0703465278 45.2585535887 21.5572444688
29.8930793239 45.9054394424 19.6707181808
27.3510245178 45.9474619890 38.0223331639
28.4725285475 45.4475148393 41.0768226017
29.6878036756 44.5545078164 43.5727743146
31.4979850099 43.0861260561 45.5843990831
29.7500529056 48.5445437901 20.6752108029
32.1555990042 49.4610010756 18.7533041012
31.1388413631 46.9109062246 18.8242928941
27.8948800988 49.0340851678 23.3916208203
27.0874193646 49.8105283818 38.3771805770
28.0737701368 49.1633884828 41.0052770339
29.1585000040 48.3254748532 43.5578560107
30.2741392355 47.1267995389 45.4350359513
30.5659287187 51.2792912938 20.4463629387
29.0400188080 52.1487744984 22.6787928967
30.6299971486 53.6802339042 21.1658675634
27.3960519016 51.8979164332 25.2801714602
26.7618920617 52.3569042901 38.2919117172
27.5803010115 53.0190875716 40.7359081104
28.7827255962 52.2666894331 43.4324577547
29.7569451695 50.9753413723 45.3632998537
29.7262579356 55.4207243048 23.0206040316
30.8896905683 55.4573062331 21.6499217405
28.1068788035 54.9879607954 25.2995839643
28.4475787140 56.8041596241 43.0696790653
29.5741774675 54.9649667133 45.2879206697
31.2714506661 57.3257346425 22.5453319933
29.3112070436 58.2923306827 25.1830864095
30.8342423920 59.2410929584 24.0089428655
27.2471422695 61.8818518705 38.8840050463
28.0480573512 60.6003042982 41.7210465191
29.2379557592 60.7125624838 44.1178316646
29.8474838320 59.0240880834 45.4009713313
30.8266016078 61.2047380409 25.3797353703
30.0951906765 63.8981759478 27.5526776797
27.6920001201 65.0417088804 38.0674664847
28.3531445113 64.3122213202 41.0611220187
29.3419831773 63.6822007663 43.5687098759
30.6909145224 63.2134808411 45.4245555705
28.4027709773 66.5665617828 30.8832503409
29.7386355744 66.0230305674 29.1812630700
28.5925783683 68.1089665173 36.7233356532
28.8624351288 67.4252591715 40.2397870252
29.5954877591 66.7089465759 42.8793629479
30.6253238497 65.9833573086 44.5879714502
30.5350592497 68.2464387572 30.8173020947
29.7609121836 69.5805120963 34.0225550836
30.9435570508 70.1750673962 32.5428117152
29.8943923705 70.4450122994 36.6147963248
29.7498863219 69.9436319141 39.3931709628
30.1200556708 69.2355156663 42.1214499071
31.0560504699 68.4405149068 43.9686921036
31.4897098526 71.4003538411 34.4454942481
30.8024186757 71.5687032217 38.1429847642
31.2895297480 70.9759583097 41.4223167679
31.1463298561 70.0291347173 43.1116307770
33.1702829018 5.0487760002 6.3029167532
34.9603299116 4.1827755583 8.2730736264
33.6266662685 3.9685515004 10.5847880248
32.3748587086 4.4942897432 12.6342782673
31.3239004198 5.5392354155 13.9557827210
33.4172881564 5.7107488750 14.4054853872
32.2048242774 9.0234149361 3.4686401855
34.5212526300 6.7168017380 4.5959926238
34.0391428022 7.4812421314 15.6799271954
32.9942372474 11.8881605649 2.6988667525
33.2489584400 10.2158273717 17.6231284295
33.3489099673 12.5260171885 20.5866608627
31.5897950889 13.7976517889 25.3878774079
32.2170218532 13.6231495383 26.3229379932
33.8927254385 14.6007337494 27.4560016716
33.4881481668 15.1211491569 2.4446561002
32.1585920234 13.7670843148 23.6571283220
30.8968736391 13.8133915795 24.5853755817
32.0152932779 15.6236496216 25.9091083467
33.4730731151 15.3725807391 27.3466281085
33.7462843271 18.5029766265 2.6801008576
31.8071733852 19.2052977960 26.8230374713
34.5087572298 17.2968878519 27.5773180756
33.8700965478 21.7996319549 3.2946204370
31.2703087160 22.9564351981 28.1163786846
33.5755907775 20.5191179791 28.9009274534
34.2040381147 24.3341821894 4.1846353665
29.8384926304 25.5417638909 28.3799520185
33.1127074528 23.1069835465 30.4507810484
31.4410314393 25.7676966266 31.0291631163
34.3417807076 24.1513896103 33.4480938332
32.5329266467 27.2902247727 34.9124302718
34.9439391804 25.9962816822 36.8039722458
33.6941229004 27.7249596833 37.4621598587
35.1154961762 27.3457375332 38.7943358922
32.6763452522 26.5484235717 4.6031228778
31.5648321355 30.5916416107 7.2428478230
32.7926904727 28.3592530639 6.0941064251
34.5289185976 29.6647812040 8.4436800271
32.4617892051 29.0244960103 37.1131640940
33.9449980233 29.3191942835 39.3849674347
34.8648145403 32.2750521618 10.3235249005
33.4726704801 32.0960178497 41.3595429535
32.2152393749 34.8949654593 42.5008282089
34.0524165010 33.6679544204 43.4042219166
33.5899334647 35.3337707290 44.1895726144
35.2299294155 34.3188172997 44.5962441654
32.8495057329 34.9399151306 11.2682275619
35.2297352153 37.2600066688 13.1269485437
32.2911867633 37.0569458774 44.0305888826
34.7445867766 36.8568141908 45.4088454316
32.3861568399 40.1067813352 14.9070422222
33.4660691065 42.5520319973 15.7589744823
34.3903068951 40.0898602150 46.4748539362
30.9619906133 45.0320461124 18.3358409767
33.2192515967 45.7105435396 17.0406523056
32.9251048257 42.5808975911 46.6921964717
31.2587495911 45.6946788573 46.3391926522
35.1617554081 48.9986199466 17.1006718545
30.3908801644 49.3758604705 46.2088837188
31.8664197483 52.3551009237 19.6701501591
34.1378163124 52.0480114888 18.5423783618
30.0667535851 53.1995329383 46.1558405682
32.5379199000 54.8516314260 20.3801299351
35.8510488265 54.6829316933 19.2358308775
30.1574600106 57.1135829109 46.1634407410
34.1170763962 57.3912775398 21.1601585939
32.5325391921 59.5693243478 23.1305863533
35.2939663921 59.6870157661 22.2580156816
30.7838960693 61.0113568474 46.1994493006
33.5554646625 61.6849424764 24.1243574235
32.1598199286 63.4257055201 25.8894517188
34.6114795971 63.8143908509 25.3490978556
32.2572594383 64.4402754837 46.2084689351
32.1998798060 65.8418824498 27.6108816815
35.3707956008 66.0302513724 26.7571059265
34.6168783948 66.1773961026 46.2460913048
32.8800550945 66.9807107918 45.3816331116
33.6429632513 68.1918014846 28.8309791073
32.6554343734 70.1985377900 31.3241663427
35.6807268085 69.6702348427 29.8906100422
32.7058631852 69.9682937652 43.7114825510
34.9417412260 69.1260400444 44.5019606072
34.4482443047 70.4912351239 43.5017198476
34.4539597620 71.6311838754 32.5381758447
33.0622327315 72.3659871949 34.2518127035
35.2095734761 72.4988840850 33.8706905980
31.6263555308 72.2632825056 36.6509066873
31.7404938230 71.9716420351 39.7311459329
33.7573287041 71.2861906243 42.1800325357
36.4158124110 5.2402969978 6.2208673110
37.5642371429 4.6364739273 7.9434633488
36.7416335826 4.4635650158 10.3144167802
34.9777316523 4.7011052282 12.6718705139
35.7097410440 6.3591480410 14.1678566223
35.7049707943 9.0035824689 3.4278769512
37.8192755154 6.9454230860 4.6053810284
35.8854759830 8.8036490398 15.3033921734
36.5628684600 11.7161965112 2.9100730577
36.2713237694 11.8220668440 16.3245500489
37.4987914608 10.3804089102 14.0016972085
37.8935428066 13.0493305099 13.8709779286
35.0620034174 12.5794766233 19.0306676662
34.3024556690 14.4982378789 26.0001784332
36.9410407310 14.7803460443 3.0185420493
37.4060434322 14.1637286933 15.7899037543
38.1777306563 15.4920986820 14.2028461771
36.7545316828 14.3005393886 18.2404616364
35.6051724676 14.5496860679 22.1596501185
36.1051685163 16.0231887212 26.1844881631
36.0874283965 16.5229398986 29.4619231032
36.0733496976 15.5161853939 28.3916868604
36.2166620499 16.1643476064 27.9037056626
37.7708057018 16.5069191588 29.8231287297
37.1139558540 18.0279656339 3.8542337209
38.5466645397 18.8308963086 11.6236316857
38.6692051550 18.2154343678 11.5673525939
38.7533051082 19.1000643501 11.2020432588
38.1679074715 16.3358809187 16.4009224362
38.5813280863 18.6712887928 12.0764945288
38.2329436069 16.6175034525 19.7250654208
38.7259680554 16.9785684581 23.6943581519
37.6544562670 17.0010738057 27.5805225679
35.3943443689 16.5235623368 28.0964489357
35.8004825529 18.4036231225 29.6242739296
38.5906638528 17.7065432345 31.4848111119
37.5369306406 18.9566294729 32.2250180252
39.4500798172 19.1539782877 33.4691334436
36.3705710860 21.6392455705 4.5282394967
38.7091904202 19.1441851471 11.9107380296
34.6630832552 21.5826685799 31.1155910689
36.4297413247 21.3290602630 33.1194455626
39.0760756967 21.0499840250 35.1024781009
36.0703711608 23.9030413650 5.1623990148
34.7675320457 25.9269908637 5.4901029850
35.4193781686 27.0992761876 7.1032467631
36.8156736963 24.7529749300 6.7702688668
37.6978757376 26.5630294264 9.1305227379
37.3754069867 23.7307378527 36.5346277003
37.0402141194 26.0919478354 39.0803998596
36.3887194274 28.0796105479 40.6154057084
38.6186037536 27.0571147194 41.0752270596
37.5268597366 29.7779837556 10.3998643175
35.6050271536 30.0630328804 41.6634224800
38.2401419970 29.2635048620 42.7064448390
37.0570482585 32.1816854090 11.2321454829
35.6550706820 34.1113430380 11.6494862810
38.2656615014 33.6567615595 12.3428828748
36.1723179819 32.0027853453 43.5334322503
37.9156421144 34.0116482028 45.2957922331
38.7839117984 36.4902612142 13.2757962706
38.2123639068 37.5116157139 46.4829947881
34.9659402750 40.7252476182 14.5929083242
37.9607978270 40.0575429441 14.0868741010
36.8384985809 39.4419735136 47.0309091601
34.6993581813 40.8374724524 47.0456650433
35.7657411069 43.2897880727 15.2599225217
38.6177773922 43.7041180784 14.8072848382
36.4918807762 46.2929122666 15.7991853801
39.0074312447 46.5251635587 15.3426297165
37.5350134997 48.4834840664 16.1316903627
38.0001977692 51.1120981358 17.3344787240
39.0387233338 54.4170428705 18.7752666821
37.8632863905 57.2850867777 20.5169785259
37.6536751656 59.7992386526 22.1268064215
36.3528529551 61.6642514701 23.5350883541
38.3248266777 63.4677219218 25.1600850943
37.7470967763 66.1497686006 26.9372828605
36.0635643329 67.7534867192 27.9274853083
38.2149296892 67.7616095340 28.4852112498
36.8532810034 65.8890228262 46.2652214240
36.3793642453 67.0138868756 45.5988348801
38.4057372687 69.4202821122 30.3662947837
36.7333153056 68.5785320744 44.5095560274
36.5067506586 70.1751532990 42.7789557184
36.8267899991 70.8970562565 31.5715339712
36.7198563405 72.5210432020 35.5648437699
36.9694075707 71.8553954775 33.8229411732
37.0920367579 72.2477923339 38.2398866423
37.8369683175 71.8612473948 36.7632645186
36.2424480369 71.6597401775 40.8461461173
37.7138732226 71.2912274222 39.7766856458
39.6145129101 6.0918655962 6.3187082595
39.1234705844 5.2885999483 8.6868268606
38.6396998536 5.9326646382 10.7752749717
40.1956095079 6.8160685794 8.9173891255
37.0002536102 5.4807792458 12.3927337471
38.9187611610 8.9498968548 3.6358796373
40.2411239296 7.3945093829 4.5422112548
39.4942618927 7.9538920782 10.6145273949
40.5367163320 9.3336614101 8.8075739099
37.8160103798 7.7621581518 12.8240977020
39.8748515602 11.1252759116 3.6184972592
39.1532317179 11.2439315276 11.1560828513
40.4392376277 11.9196852491 8.4645024705
39.5339585512 14.0755074763 4.0902821805
39.6653469741 14.9618460499 8.5870537020
40.6336113745 13.3569051348 7.0419965382
40.0410807879 15.3542662761 6.3073242788
38.7794187639 15.6645940022 11.7404423962
37.6578104299 16.3397210178 28.8712482746
39.4466330875 16.0105433830 4.9772528739
38.6287371265 18.7224335293 6.3588535817
38.9501510502 18.5367438995 9.8170261487
38.9096026946 18.3020799568 13.3944544497
39.9750657497 19.0460249595 17.1155549309
40.4823437035 18.5529376432 20.6523445548
41.3193924242 18.4575353868 23.1313780555
41.6533784086 18.2301595374 26.3534720588
40.0617238918 17.5785673928 30.0194152396
40.5123042411 18.5460298943 32.6525584889
41.5748345358 20.1321308250 34.7430686149
37.4649161130 22.3520158508 6.0510522275
38.6228489255 22.3481697733 8.6686416620
39.2961911228 20.5322376438 11.5454706040
40.4667651471 21.2474435748 14.2559303560
41.7010326785 21.4306076540 16.4389309114
42.1305477512 20.5464975595 18.7510875528
42.6729470104 19.7933417341 21.4169140553
41.3090148906 21.6647953557 36.7477352861
40.0139436251 22.8304514868 37.5048878072
42.1677567744 23.1614172936 38.5642302409
40.6415417438 24.7246853342 12.1096649416
39.4429505923 27.5876829500 10.9573301234
42.0799927945 23.1709828403 14.9067266480
40.0075751760 24.9713575337 39.5990909114
41.2365075758 27.5660252754 42.3441264783
39.6542130196 29.2967589502 11.4307017520
38.7752454283 31.0509783378 11.5457887025
40.8229334665 30.6100144198 12.4819248848
40.5244561935 29.7848625118 43.9377624732
38.8177836741 31.2449137456 44.3379278831
40.8999333621 31.8899225933 45.0289138510
41.1080620491 33.9362535322 13.2543618429
41.2123675293 34.8909753869 45.8914723931
41.1188862142 37.3770828411 13.8258290194
42.2676344107 38.2879339941 46.3913422497
41.1080224391 40.9000397433 14.3367417495
40.0635434449 39.0191557463 46.9365191151
41.3537251812 44.2415926595 14.9110326302
40.7931486339 46.8297965169 15.4657188313
39.3668424663 48.4628088977 15.9641757112
41.5763591047 48.4557434893 16.3678444298
41.7153810581 52.0321130418 18.0391841802
41.0709587663 54.6979108354 19.1503601817
39.8350777370 55.8452511367 19.5631308102
41.2810909307 56.5373205158 20.5538325326
42.4579733952 57.4464725113 46.8736921211
43.3882836460 55.0955171435 46.6466770003
42.8913882311 57.5261457806 46.3860716161
38.7056706782 60.9921887933 23.1749913890
39.9359537027 58.9933699014 21.9886879951
40.9228321040 60.7952176284 23.7748143930
41.6265819976 60.0316186155 46.5164332886
42.1561292724 61.1718950896 45.5754538627
41.7460639944 62.5557366172 25.5928905857
39.4713547921 64.3055233214 45.8450172853
40.8734016069 64.4426821772 44.9467575519
40.8203444925 65.0459542468 27.4248875977
40.5606616389 67.4936408013 29.7912507090
38.9453058958 67.1743793729 44.1966719877
40.9523621549 65.6342966794 44.0709596198
41.0619741958 66.8138820546 42.5302282561
40.2347388596 68.9762390997 31.4895543434
38.7826572471 70.4246684386 32.4842414461
39.2050659240 70.7252695130 35.1934661474
40.8240722532 69.2047267568 33.7112317419
39.4238797804 70.3603229665 38.2841412369
41.1706115154 69.0548050406 36.6828927472
39.1892515799 69.2701025019 41.3564787908
41.2147867450 68.2766594505 39.7677367269
40.3737858694 6.2200328687 7.6296742765
41.2815522668 8.6483870134 4.0393365227
41.6162115153 7.6591747275 5.0036234257
41.2549243940 8.1104145843 6.6286233946
42.1859968669 8.7174629288 4.9137989293
41.8999878908 9.4194758085 4.2122697048
41.3439294534 10.7921149436 4.9731166275
41.1236207471 11.0879956406 6.8480075300
40.6609120032 13.4752087528 5.5343286101
42.9966523427 19.2674985066 23.7001252690
44.6717577049 21.0012398697 22.8176230590
44.2666245538 19.8226790160 25.3641538914
44.1796536457 19.4476235868 27.7322375070
43.2300731880 18.9235912001 29.8445408812
42.5203325482 19.1177768882 32.4732983594
44.1185834583 20.7901160815 34.4365356429
43.4867749686 22.9833207467 17.0049445038
44.0811983273 21.5786635277 19.8725541158
43.3358764782 21.7413680438 36.8091385619
44.3007237253 23.3813769740 38.8703646804
40.8378281391 27.9259647706 12.0034841421
42.5080201506 27.9585501828 13.2590979579
43.2874815945 25.4721758617 14.6601462340
43.0679930290 25.2358668453 40.7010828942
44.2533129742 28.0146758649 42.8387128176
43.2166827632 31.1758178461 13.7267359291
42.7229295187 29.8897256279 44.1273031822
43.3414715033 32.6035041649 45.1203007448
43.4817402484 34.6647756833 14.0825197310
43.9436738938 35.7827125497 45.5176005001
43.4887392772 38.2176063121 14.4011741674
44.5793489740 38.6647457486 45.5331764756
43.4126210826 41.4775662212 14.7653869613
42.8104439767 40.7670471366 46.6954629570
44.4462753244 41.6397654494 45.8594060672
43.4017219312 43.8425181721 15.1902896457
42.3946595476 45.7997207137 15.4706033728
44.0381379463 45.4006259533 15.9307695904
44.2801104219 44.0367737968 46.4254656640
45.0958117579 45.6910968205 45.5845788782
43.9287807703 48.9808947004 17.2160695465
44.6759712005 47.8118404152 46.2993447687
45.0720442641 49.6332356338 45.4842938529
44.4481031738 51.8721710617 18.8507861807
44.3243728696 51.6488128469 46.3476923978
44.4280910495 54.0380721537 45.5890179761
43.1240538992 54.2430114647 19.7041253778
43.7152998374 56.1134023783 21.4315071116
43.9809599737 57.8843832601 45.1404866449
42.5852246222 58.3396008763 22.6105627275
43.3794360849 60.3092890035 24.7698802444
43.7448138847 60.5664150787 44.4656817940
44.9319231963 58.7989050861 43.8475004545
44.6819226681 61.3174033536 43.0300327883
43.4965436140 62.0861268362 26.3198646166
42.5869921067 63.3309980872 26.7122941681
43.5566288710 63.3642617118 27.8637056150
42.6662407912 63.7412073060 43.6463822946
44.2805291573 63.6593680121 41.7916748477
42.1220740786 67.4695344029 32.1011085007
42.9489205516 65.4337945291 30.0045851781
42.8027347592 67.5077000521 35.0339407964
44.3902594722 65.4354186363 33.1932768489
43.0098735480 67.0652916134 38.1154704598
44.3264899424 65.9708178927 36.3973446712
42.9503827377 65.8624581870 41.0097520922
44.7292921688 64.7346789411 39.2622902189
42.2870401200 8.4317807983 4.3839311847
45.6397209888 21.5795314725 25.1531403382
45.5620826250 21.0892117239 27.4248404371
45.2282324057 20.6189017619 30.0343785179
44.4908641218 20.1439819226 32.0999687427
44.7765768810 23.1690278087 18.4826852662
45.5778415300 22.7747777755 21.4611556264
46.3651025415 23.8391278891 24.1975426533
46.8030786647 25.4518861061 23.1779888807
46.4943842602 23.5868065292 27.0680149835
46.4269284785 23.1454240783 29.8962772693
46.0175038687 22.4601070930 33.0077433011
45.2311237764 22.3394888138 36.2822724662
46.3912169078 23.1372925061 34.4651076697
45.1930849828 23.5130564604 38.8661489903
44.4536988668 28.6066463870 14.6142146114
44.7002934369 25.9042932469 15.9997881883
47.1701857667 27.4976211522 24.6906213670
47.3791893209 28.7926100405 23.7911525619
47.0382875219 26.7896617471 26.8983799505
47.0565777374 26.3406022597 29.5980454512
47.0498984356 25.6767287292 31.9632696258
46.9603184074 24.8316888659 33.3495476548
44.8295952397 25.3997111759 40.9313675231
45.3054514621 27.8743399954 42.6414541033
45.0429042990 32.1417813875 14.6214186571
45.4929411928 29.9174015329 15.1491641259
47.4840376406 31.0172725234 24.9196159049
47.6263835283 32.1284610128 24.0105652314
47.3410696919 30.3825863617 27.0265081261
47.3232292258 29.9047671374 29.6091393562
47.3954876751 29.1727500325 31.7527365427
47.3881026236 27.9413632318 32.8216602247
44.5616825714 30.7697445448 44.2649692858
45.5094647911 30.8345162276 43.7908065924
45.1902720376 35.8176207480 14.7585217210
45.8621316862 33.6961822779 15.0242758270
47.6484112688 34.2402971156 24.9657258693
47.7684641615 34.9708214108 24.1144172372
47.4973620222 33.8696974863 27.0845095840
47.4416838696 33.6238313588 29.8934769887
47.5026543201 32.9132322413 32.1395621403
47.5481505193 31.5036872815 32.9662012405
45.2186557112 33.5563700706 44.6412093285
46.1604410241 34.8854551440 43.9635389687
45.0159380417 39.4878864200 15.0047847366
45.8011273024 37.6256642744 15.1765884682
47.7859063111 36.7115813577 24.9600460385
47.8507011134 36.7262989849 24.3164204470
47.6448119332 36.7752608892 26.8984193198
47.5416880103 37.0430094235 29.9565740455
47.5262250259 37.1267717485 33.4902615125
47.5803303201 35.1781806572 33.9765936208
45.8093559665 37.3950156541 44.2973426487
46.7174287256 38.1497143502 42.6866291959
44.5821358649 42.3839746272 15.2785377447
45.2985381004 42.1565344017 15.6325967602
47.8623142567 38.0651227583 25.1841016579
47.8543325203 39.1846744645 26.3617353451
47.7906024042 38.5970151587 26.5456785651
47.6785300239 39.2585679752 29.2695609923
47.5756600380 40.6812364320 33.4950304271
47.5048223112 38.3716447772 36.4393899011
47.3317971354 40.9146448882 37.8604893784
46.6540601565 40.6606283249 42.1911449210
47.2174569954 39.6234520019 39.8925005257
45.6337021991 40.3817093144 44.5599758134
44.9791739013 46.4980770231 16.6640470921
47.7862950714 39.8570063572 28.1917749227
47.7007249563 41.0477315283 31.3605475796
47.6323183417 43.3612970296 34.9481673627
47.6133984342 46.3716873388 37.5203017243
47.3943026889 44.7104568158 37.8718419141
46.7842689011 44.2634667642 41.2242655811
45.8756802143 43.3882039354 44.0381729624
45.1310396248 49.8099591272 18.0308805987
47.4112195473 48.4865504439 39.2910347309
47.6131205168 48.5995249958 38.6861599366
46.8242662582 48.0507381110 41.2126377838
45.9953935990 47.1322978206 43.7093425719
45.7157931663 52.3117596848 19.8504283964
45.3372832654 54.3305915438 21.1731616021
46.6390380868 55.5323318689 23.5956627426
46.5341966149 53.9752176010 21.9325329692
47.1117290597 54.8864063171 23.5068694751
47.4203632118 50.7968692934 39.9314795675
47.1523224122 53.9328298686 41.0677493891
46.8695152378 51.9740062412 41.4519053965
45.8816115720 51.1175174478 43.6420140985
45.0612683901 57.4887859816 23.7762310648
47.2391030964 56.1850947378 25.0758162836
46.7435914300 58.0229281329 26.3468539722
47.3419665156 57.5311673532 26.6924373135
46.7020160274 55.5227869405 41.9232108826
46.7990876183 57.2156956702 41.5344550788
45.6586612671 55.4658681363 43.5233610667
45.1120780692 60.7341781158 26.9625039438
47.2559746828 59.1290774909 28.3263700848
46.6421159997 60.9584393135 29.5665301602
47.2305241087 60.6407735246 30.0623216600
46.0188715303 58.7467269142 42.3471496944
46.3292872739 60.3809012184 41.1506962186
45.0665391481 63.2387550209 30.0664588283
46.9512333596 62.0605842419 31.6540820875
46.1672646797 63.2954911529 32.4967222063
46.5584782801 63.3327529926 33.5722464620
45.5510713676 62.0936799759 41.2555078934
45.8405130585 63.0463835661 39.4772665227
45.6178750973 64.4236712093 35.8861248685
3 2 1 0
3 0 3 2
3 0 1 4
3 4 1 5
3 3 0 6
3 6 0 4
3 5 7 4
3 4 7 6
3 10 9 8
3 8 11 10
3 8 9 2
3 9 1 2
3 9 12 1
3 2 3 8
3 3 11 8
3 3 13 11
3 15 5 14
3 5 12 14
3 5 1 12
3 14 13 15
3 13 6 15
3 13 3 6
3 15 7 5
3 7 15 6
3 18 17 16
3 16 19 18
3 16 17 10
3 17 9 10
3 17 20 9
3 10 11 16
3 11 19 16
3 11 21 19
3 20 12 9
3 22 12 20
3 13 21 11
3 13 23 21
3 22 24 12
3 12 24 14
3 13 14 23
3 23 14 24
3 27 26 25
3 25 28 27
3 25 26 29
3 29 26 30
3 28 25 31
3 25 32 31
3 25 29 32
3 32 33 31
3 29 30 34
3 34 30 35
3 37 32 36
3 32 34 36
3 32 29 34
3 32 37 33
3 39 38 18
3 18 38 17
3 18 19 39
3 39 19 40
3 35 41 34
3 34 41 36
3 44 43 42
3 38 44 42
3 20 38 42
3 17 38 20
3 21 40 19
3 21 45 40
3 43 46 42
3 20 42 46
3 47 20 46
3 22 20 47
3 23 45 21
3 23 48 45
3 47 49 22
3 22 49 24
3 23 24 48
3 48 24 49
3 52 51 50
3 54 53 50
3 50 53 52
3 54 55 53
3 50 51 27
3 51 26 27
3 51 56 26
3 50 27 28
3 57 50 28
3 54 50 57
3 55 54 58
3 54 59 58
3 54 57 59
3 59 60 58
3 56 30 26
3 61 30 56
3 31 57 28
3 57 31 33
3 62 57 33
3 59 57 62
3 60 59 63
3 63 59 62
3 61 35 30
3 64 35 61
3 36 65 37
3 62 33 37
3 65 62 37
3 66 62 65
3 63 62 67
3 67 62 66
3 69 68 39
3 39 68 38
3 39 40 69
3 69 40 70
3 41 35 71
3 35 72 71
3 35 64 72
3 65 36 41
3 71 65 41
3 73 65 71
3 65 74 66
3 65 73 74
3 67 66 75
3 75 66 74
3 78 77 76
3 43 44 76
3 44 78 76
3 44 79 78
3 44 38 68
3 44 68 79
3 45 70 40
3 45 80 70
3 72 81 71
3 71 81 73
3 73 81 82
3 84 83 82
3 83 73 82
3 83 74 73
3 75 74 85
3 74 86 85
3 74 83 86
3 85 86 77
3 86 76 77
3 86 87 76
3 88 46 43
3 76 88 43
3 87 88 76
3 88 47 46
3 48 80 45
3 48 89 80
3 83 84 90
3 90 84 91
3 83 92 86
3 83 90 92
3 94 87 93
3 87 92 93
3 87 86 92
3 87 94 88
3 88 94 95
3 95 97 96
3 95 96 49
3 88 95 49
3 47 88 49
3 96 98 49
3 98 48 49
3 98 89 48
3 91 99 90
3 90 99 92
3 92 99 100
3 92 100 93
3 97 101 96
3 96 101 98
3 104 103 102
3 106 105 102
3 102 105 104
3 106 107 105
3 109 108 52
3 52 108 51
3 53 102 103
3 109 53 103
3 52 53 109
3 102 53 55
3 110 102 55
3 106 102 110
3 107 106 111
3 106 112 111
3 106 110 112
3 112 113 111
3 108 56 51
3 114 56 108
3 58 110 55
3 110 58 60
3 115 110 60
3 112 110 115
3 113 112 116
3 116 112 115
3 114 61 56
3 117 61 114
3 63 118 115
3 63 115 60
3 116 115 119
3 119 115 118
3 117 64 61
3 120 64 117
3 67 121 118
3 67 118 63
3 119 118 122
3 118 123 122
3 118 121 123
3 125 124 123
3 123 124 122
3 125 68 124
3 68 69 124
3 127 126 124
3 127 124 69
3 70 127 69
3 120 72 64
3 128 72 120
3 75 129 121
3 75 121 67
3 129 77 78
3 123 129 78
3 121 129 123
3 123 78 79
3 123 79 125
3 127 130 126
3 68 125 79
3 127 70 130
3 70 131 130
3 70 80 131
3 128 132 72
3 72 132 81
3 132 134 133
3 82 132 133
3 81 132 82
3 133 84 82
3 85 129 75
3 129 85 77
3 89 136 135
3 131 89 135
3 80 89 131
3 136 137 135
3 134 138 133
3 84 133 138
3 139 84 138
3 91 84 139
3 141 140 94
3 141 94 93
3 140 143 142
3 95 140 142
3 94 140 95
3 142 97 95
3 145 144 136
3 89 145 136
3 98 145 89
3 136 144 137
3 139 146 91
3 91 146 99
3 99 147 100
3 146 147 99
3 93 100 141
3 141 100 147
3 143 148 142
3 142 148 97
3 148 101 97
3 148 149 101
3 98 101 145
3 145 101 149
3 152 151 150
3 150 153 152
3 156 155 154
3 156 154 151
3 154 150 151
3 154 157 150
3 153 150 158
3 150 159 158
3 150 157 159
3 159 160 158
3 154 155 161
3 161 155 162
3 161 103 104
3 157 161 104
3 154 161 157
3 157 104 105
3 157 105 159
3 164 163 107
3 107 163 105
3 163 160 105
3 160 159 105
3 166 165 164
3 164 165 163
3 166 167 165
3 170 169 168
3 168 171 170
3 161 162 109
3 162 108 109
3 162 172 108
3 161 109 103
3 111 164 107
3 164 111 113
3 173 164 113
3 166 164 173
3 167 166 174
3 174 166 173
3 168 169 175
3 175 169 176
3 171 168 177
3 177 168 175
3 172 114 108
3 178 114 172
3 116 179 173
3 116 173 113
3 174 173 180
3 180 173 179
3 176 181 175
3 175 181 177
3 178 117 114
3 182 117 178
3 119 183 179
3 119 179 116
3 180 179 184
3 184 179 183
3 182 120 117
3 185 120 182
3 122 183 119
3 186 184 183
3 122 186 183
3 124 186 122
3 124 126 186
3 186 126 187
3 185 128 120
3 188 128 185
3 189 187 126
3 189 126 130
3 130 131 189
3 189 131 190
3 188 191 128
3 128 191 132
3 134 132 191
3 134 191 192
3 193 190 131
3 193 131 135
3 135 137 193
3 193 137 194
3 192 195 134
3 134 195 138
3 197 196 139
3 138 197 139
3 195 197 138
3 198 196 197
3 141 199 140
3 199 143 140
3 145 200 144
3 194 137 201
3 137 200 201
3 200 202 201
3 137 144 200
3 202 203 201
3 196 146 139
3 198 204 196
3 204 146 196
3 204 147 146
3 141 147 199
3 147 205 199
3 147 204 205
3 199 205 143
3 205 148 143
3 205 206 148
3 206 208 207
3 149 206 207
3 148 206 149
3 200 145 149
3 207 200 149
3 209 200 207
3 211 202 210
3 202 209 210
3 202 200 209
3 202 211 203
3 207 208 212
3 212 208 213
3 207 214 209
3 207 212 214
3 210 209 215
3 209 216 215
3 209 214 216
3 216 217 215
3 212 213 218
3 218 213 219
3 212 220 214
3 212 218 220
3 214 221 216
3 214 220 221
3 217 216 222
3 222 216 221
3 219 223 218
3 225 224 223
3 224 218 223
3 224 220 218
3 220 226 221
3 220 224 226
3 222 221 227
3 227 221 226
3 224 225 228
3 228 225 229
3 224 230 226
3 224 228 230
3 227 226 231
3 226 232 231
3 226 230 232
3 234 233 232
3 232 233 231
3 234 235 233
3 228 229 236
3 236 229 237
3 228 238 230
3 228 236 238
3 240 232 239
3 232 238 239
3 232 230 238
3 232 240 234
3 234 240 241
3 234 241 235
3 236 237 242
3 242 237 243
3 236 244 238
3 236 242 244
3 239 238 245
3 245 238 244
3 243 246 242
3 248 247 246
3 247 242 246
3 247 244 242
3 245 244 249
3 249 244 247
3 248 250 247
3 247 250 249
3 252 251 152
3 152 251 151
3 254 253 153
3 253 152 153
3 253 252 152
3 254 255 253
3 257 256 156
3 156 256 155
3 156 151 251
3 156 251 257
3 158 254 153
3 259 258 160
3 160 258 158
3 258 255 158
3 255 254 158
3 259 260 258
3 256 162 155
3 261 162 256
3 163 259 160
3 262 260 259
3 163 262 259
3 165 262 163
3 165 167 262
3 262 167 263
3 265 264 170
3 170 264 169
3 170 171 265
3 265 171 266
3 261 172 162
3 267 172 261
3 174 269 268
3 263 174 268
3 167 174 263
3 272 271 270
3 268 269 264
3 176 264 269
3 264 176 169
3 271 266 270
3 266 177 270
3 266 171 177
3 267 178 172
3 273 178 267
3 180 274 269
3 180 269 174
3 272 270 275
3 181 275 270
3 275 181 274
3 176 274 181
3 274 176 269
3 181 270 177
3 273 182 178
3 276 182 273
3 184 277 274
3 184 274 180
3 275 274 278
3 278 274 277
3 276 185 182
3 279 185 276
3 186 277 184
3 186 187 277
3 187 278 277
3 187 280 278
3 282 188 281
3 188 279 281
3 188 185 279
3 283 282 281
3 284 280 187
3 284 187 189
3 286 285 190
3 285 189 190
3 285 284 189
3 288 287 286
3 286 287 285
3 288 289 287
3 282 191 188
3 291 290 192
3 291 192 191
3 283 291 191
3 282 283 191
3 292 290 291
3 193 286 190
3 286 193 194
3 293 286 194
3 288 286 293
3 289 288 294
3 288 295 294
3 288 293 295
3 295 296 294
3 290 195 192
3 292 297 290
3 297 195 290
3 297 197 195
3 198 197 297
3 198 297 298
3 201 293 194
3 293 201 203
3 299 293 203
3 295 293 299
3 296 295 300
3 295 301 300
3 295 299 301
3 301 302 300
3 298 303 198
3 198 303 204
3 303 305 304
3 205 303 304
3 204 303 205
3 306 206 205
3 306 205 304
3 306 208 206
3 210 307 211
3 299 203 211
3 307 299 211
3 308 299 307
3 299 309 301
3 299 308 309
3 302 301 310
3 301 311 310
3 301 309 311
3 311 312 310
3 305 313 304
3 315 314 313
3 314 304 313
3 314 306 304
3 314 213 208
3 314 208 306
3 215 307 210
3 307 215 217
3 316 307 217
3 308 307 316
3 308 317 309
3 308 316 317
3 309 318 311
3 309 317 318
3 312 311 319
3 319 311 318
3 322 321 320
3 322 320 315
3 320 314 315
3 320 323 314
3 323 219 213
3 323 213 314
3 222 324 316
3 222 316 217
3 316 325 317
3 316 324 325
3 317 326 318
3 317 325 326
3 319 318 327
3 327 318 326
3 321 328 320
3 330 329 328
3 329 320 328
3 329 323 320
3 331 223 219
3 323 331 219
3 329 331 323
3 331 225 223
3 227 332 324
3 227 324 222
3 324 333 325
3 324 332 333
3 325 334 326
3 325 333 334
3 327 326 335
3 335 326 334
3 329 330 336
3 336 330 337
3 329 338 331
3 329 336 338
3 338 229 225
3 338 225 331
3 231 332 227
3 332 231 233
3 332 233 333
3 333 233 235
3 339 333 235
3 334 333 339
3 335 334 340
3 340 334 339
3 337 341 336
3 343 342 341
3 342 336 341
3 342 338 336
3 342 237 229
3 342 229 338
3 239 344 240
3 345 241 240
3 345 240 344
3 339 235 241
3 345 339 241
3 346 339 345
3 340 339 347
3 347 339 346
3 343 348 342
3 237 342 348
3 349 237 348
3 243 237 349
3 245 350 344
3 245 344 239
3 344 351 345
3 344 350 351
3 345 352 346
3 345 351 352
3 347 346 353
3 353 346 352
3 246 243 354
3 243 355 354
3 243 349 355
3 354 248 246
3 249 356 350
3 249 350 245
3 350 357 351
3 350 356 357
3 351 358 352
3 351 357 358
3 353 352 359
3 359 352 358
3 355 360 354
3 360 362 361
3 360 361 250
3 354 360 250
3 248 354 250
3 356 249 250
3 361 356 250
3 363 356 361
3 356 364 357
3 356 363 364
3 357 365 358
3 357 364 365
3 359 358 366
3 366 358 365
3 362 367 361
3 361 367 363
3 363 367 368
3 363 368 364
3 364 368 369
3 364 369 365
3 365 369 370
3 365 370 366
3 372 371 252
3 252 371 251
3 373 252 253
3 373 372 252
3 375 374 255
3 374 253 255
3 374 373 253
3 375 376 374
3 378 377 257
3 257 377 256
3 257 251 371
3 257 371 378
3 258 375 255
3 258 260 375
3 260 376 375
3 260 379 376
3 377 261 256
3 380 261 377
3 381 379 260
3 381 260 262
3 262 263 381
3 381 263 382
3 384 383 265
3 265 383 264
3 265 266 384
3 384 266 385
3 380 267 261
3 386 267 380
3 387 382 263
3 387 263 268
3 383 388 264
3 383 271 388
3 271 383 389
3 387 389 383
3 389 387 272
3 388 272 387
3 387 268 388
3 388 268 264
3 271 272 388
3 389 390 271
3 390 266 271
3 390 385 266
3 386 273 267
3 391 273 386
3 275 392 389
3 275 389 272
3 390 389 393
3 393 389 392
3 391 276 273
3 394 276 391
3 278 395 392
3 278 392 275
3 393 392 396
3 396 392 395
3 394 279 276
3 397 279 394
3 280 398 395
3 280 395 278
3 396 395 399
3 395 400 399
3 395 398 400
3 402 401 400
3 400 401 399
3 404 403 402
3 402 403 401
3 404 405 403
3 397 406 279
3 279 406 281
3 408 407 283
3 281 408 283
3 406 408 281
3 409 407 408
3 284 398 280
3 398 284 285
3 398 285 400
3 400 285 287
3 400 287 402
3 402 287 289
3 410 402 289
3 404 402 410
3 405 404 411
3 411 404 410
3 407 291 283
3 292 291 407
3 409 292 407
3 412 292 409
3 294 410 289
3 414 413 296
3 296 413 294
3 413 411 294
3 411 410 294
3 416 415 414
3 414 415 413
3 416 417 415
3 412 418 292
3 292 418 297
3 298 297 418
3 298 418 419
3 300 414 296
3 414 300 302
3 420 414 302
3 416 414 420
3 417 416 421
3 421 416 420
3 419 422 298
3 298 422 303
3 305 303 422
3 305 422 423
3 310 420 302
3 310 312 420
3 312 421 420
3 312 424 421
3 313 305 425
3 305 426 425
3 305 423 426
3 425 315 313
3 319 428 427
3 424 319 427
3 312 319 424
3 425 426 322
3 426 321 322
3 426 429 321
3 425 322 315
3 327 430 428
3 327 428 319
3 328 321 431
3 321 432 431
3 321 429 432
3 431 330 328
3 335 433 430
3 335 430 327
3 431 432 434
3 434 432 435
3 434 337 330
3 434 330 431
3 340 436 433
3 340 433 335
3 435 437 434
3 437 439 438
3 437 438 341
3 434 437 341
3 337 434 341
3 438 343 341
3 347 440 436
3 347 436 340
3 439 441 438
3 441 443 442
3 441 442 348
3 438 441 348
3 343 438 348
3 442 349 348
3 353 444 440
3 353 440 347
3 442 443 445
3 445 443 446
3 445 355 349
3 445 349 442
3 448 447 444
3 353 448 444
3 359 448 353
3 446 449 445
3 449 451 450
3 449 450 360
3 445 449 360
3 355 445 360
3 450 362 360
3 454 453 452
3 453 448 452
3 448 366 452
3 448 359 366
3 451 455 450
3 455 457 456
3 455 456 367
3 450 455 367
3 362 450 367
3 458 368 367
3 458 367 456
3 459 369 368
3 459 368 458
3 460 454 452
3 369 460 452
3 370 369 452
3 460 369 459
3 370 452 366
3 462 461 372
3 372 461 371
3 463 372 373
3 463 462 372
3 464 373 374
3 464 463 373
3 374 376 464
3 464 376 465
3 467 466 378
3 378 466 377
3 378 371 461
3 378 461 467
3 379 465 376
3 379 468 465
3 466 380 377
3 469 380 466
3 472 471 470
3 473 470 381
3 470 468 381
3 468 379 381
3 468 470 471
3 382 473 381
3 474 383 384
3 385 474 384
3 469 386 380
3 475 386 469
3 472 470 476
3 472 476 477
3 478 470 473
3 476 470 478
3 387 479 382
3 479 473 382
3 479 478 473
3 383 474 387
3 474 479 387
3 474 480 479
3 390 481 385
3 482 385 481
3 385 482 474
3 483 474 482
3 474 483 480
3 481 484 482
3 475 391 386
3 485 391 475
3 488 487 486
3 477 476 489
3 487 490 486
3 489 476 478
3 489 478 491
3 491 478 479
3 491 479 492
3 492 479 480
3 492 480 493
3 393 494 390
3 393 480 494
3 480 393 493
3 495 493 393
3 493 495 483
3 494 483 495
3 495 481 494
3 494 481 390
3 480 483 494
3 484 481 496
3 481 497 496
3 481 495 497
3 497 498 496
3 485 394 391
3 499 394 485
3 500 488 486
3 500 486 490
3 396 501 495
3 396 495 393
3 495 502 497
3 495 501 502
3 498 497 503
3 503 497 502
3 505 397 504
3 397 499 504
3 397 394 499
3 507 506 505
3 507 505 504
3 508 506 507
3 399 501 396
3 501 399 401
3 501 401 502
3 509 503 502
3 401 509 502
3 403 509 401
3 511 510 405
3 510 403 405
3 510 509 403
3 511 512 510
3 505 406 397
3 406 505 408
3 408 505 506
3 409 408 506
3 508 409 506
3 513 409 508
3 411 514 511
3 411 511 405
3 512 511 515
3 515 511 514
3 517 412 516
3 412 513 516
3 412 409 513
3 518 517 516
3 413 514 411
3 519 515 514
3 413 519 514
3 415 519 413
3 415 417 519
3 519 417 520
3 517 418 412
3 419 418 517
3 518 419 517
3 521 419 518
3 421 520 417
3 421 522 520
3 422 419 523
3 419 524 523
3 419 521 524
3 523 423 422
3 424 526 525
3 522 424 525
3 421 424 522
3 523 524 527
3 527 524 528
3 527 426 423
3 527 423 523
3 427 526 424
3 527 528 529
3 529 528 530
3 529 429 426
3 529 426 527
3 530 531 529
3 429 529 531
3 532 429 531
3 432 429 532
3 532 435 432
3 533 435 532
3 533 534 435
3 435 534 437
3 439 437 534
3 439 534 535
3 535 536 439
3 439 536 441
3 443 441 536
3 443 536 537
3 539 446 538
3 446 537 538
3 446 443 537
3 540 539 538
3 542 541 447
3 542 447 448
3 539 449 446
3 451 449 539
3 540 451 539
3 543 451 540
3 545 544 453
3 545 453 454
3 448 453 542
3 542 453 544
3 543 546 451
3 451 546 455
3 548 547 457
3 455 548 457
3 546 548 455
3 550 549 547
3 550 547 548
3 552 551 549
3 552 549 550
3 552 545 551
3 545 460 551
3 545 454 460
3 554 553 462
3 462 553 461
3 556 554 555
3 554 463 555
3 554 462 463
3 464 557 463
3 463 557 555
3 465 557 464
3 559 558 467
3 467 558 466
3 467 461 553
3 467 553 559
3 556 555 560
3 556 560 561
3 562 555 557
3 560 555 562
3 468 562 465
3 465 562 557
3 558 469 466
3 563 469 558
3 561 560 564
3 561 564 565
3 472 564 471
3 564 562 471
3 564 560 562
3 471 562 468
3 563 475 469
3 566 475 563
3 569 568 567
3 567 568 565
3 564 567 565
3 570 567 564
3 477 570 472
3 472 570 564
3 571 483 482
3 484 571 482
3 573 485 572
3 485 566 572
3 485 475 566
3 573 572 569
3 567 573 569
3 574 573 567
3 488 574 487
3 574 570 487
3 574 567 570
3 490 487 575
3 487 570 575
3 477 489 575
3 477 575 570
3 491 576 489
3 489 576 575
3 492 577 491
3 491 577 576
3 577 492 578
3 492 579 578
3 492 493 579
3 493 483 571
3 580 493 571
3 579 493 580
3 580 571 484
3 496 580 484
3 581 580 496
3 496 498 581
3 581 498 582
3 583 499 573
3 573 499 485
3 584 573 574
3 583 573 584
3 500 585 488
3 585 574 488
3 585 584 574
3 490 575 500
3 575 585 500
3 575 586 585
3 576 588 587
3 586 576 587
3 575 576 586
3 588 576 577
3 588 577 589
3 589 577 578
3 503 591 590
3 582 503 590
3 498 503 582
3 591 592 590
3 583 504 499
3 504 583 507
3 507 583 584
3 584 585 593
3 508 584 593
3 594 508 593
3 584 508 507
3 593 585 586
3 593 586 595
3 595 586 587
3 509 591 503
3 596 592 591
3 509 596 591
3 510 596 509
3 510 512 596
3 596 512 597
3 599 513 598
3 513 594 598
3 513 508 594
3 600 599 598
3 515 602 601
3 597 515 601
3 512 515 597
3 602 603 601
3 599 516 513
3 518 516 599
3 600 518 599
3 604 518 600
3 519 602 515
3 519 520 602
3 520 603 602
3 520 605 603
3 604 521 518
3 606 521 604
3 522 605 520
3 522 607 605
3 606 524 521
3 608 524 606
3 609 607 522
3 609 522 525
3 608 528 524
3 610 528 608
3 612 530 611
3 530 610 611
3 530 528 610
3 613 612 611
3 612 531 530
3 532 531 612
3 613 532 612
3 614 532 613
3 616 533 615
3 533 614 615
3 533 532 614
3 617 616 615
3 620 619 618
3 616 534 533
3 622 621 535
3 622 535 534
3 617 622 534
3 616 617 534
3 623 621 622
3 620 618 624
3 620 624 625
3 621 536 535
3 537 536 621
3 623 537 621
3 626 537 623
3 625 624 627
3 625 627 628
3 626 629 537
3 537 629 538
3 540 538 629
3 540 629 630
3 633 632 631
3 631 632 628
3 631 628 627
3 542 631 627
3 541 542 627
3 635 543 634
3 543 630 634
3 543 540 630
3 637 636 635
3 637 635 634
3 639 638 636
3 639 636 637
3 641 640 638
3 641 638 639
3 640 641 633
3 640 633 631
3 545 640 631
3 544 545 631
3 544 631 542
3 635 546 543
3 546 635 548
3 548 635 636
3 548 636 550
3 550 636 638
3 550 638 552
3 552 638 640
3 552 640 545
3 642 553 554
3 556 642 554
3 644 643 559
3 559 643 558
3 644 559 553
3 645 644 553
3 642 645 553
3 644 645 646
3 561 645 556
3 556 645 642
3 648 563 647
3 563 643 647
3 563 558 643
3 648 647 646
3 645 648 646
3 649 648 645
3 565 649 561
3 561 649 645
3 650 566 648
3 648 566 563
3 569 650 568
3 650 649 568
3 650 648 649
3 568 649 565
3 650 572 566
3 572 650 569
3 653 652 651
3 578 579 651
3 579 653 651
3 579 654 653
3 655 579 580
3 655 654 579
3 656 580 581
3 656 655 580
3 581 582 656
3 656 582 657
3 659 658 588
3 588 658 587
3 589 651 652
3 659 589 652
3 588 589 659
3 651 589 578
3 660 657 582
3 660 582 590
3 590 592 660
3 660 592 661
3 662 594 593
3 662 593 663
3 593 664 663
3 593 595 664
3 595 587 658
3 595 658 664
3 665 661 592
3 665 592 596
3 596 597 665
3 665 597 666
3 662 598 594
3 600 598 662
3 663 600 662
3 667 600 663
3 668 666 597
3 668 597 601
3 601 603 668
3 668 603 669
3 667 604 600
3 670 604 667
3 605 669 603
3 605 671 669
3 670 606 604
3 672 606 670
3 607 671 605
3 607 673 671
3 672 608 606
3 674 608 672
3 607 609 675
3 676 607 675
3 673 607 676
3 678 610 677
3 610 674 677
3 610 608 674
3 679 678 677
3 676 675 680
3 676 680 681
3 678 611 610
3 613 611 678
3 679 613 678
3 682 613 679
3 681 680 683
3 681 683 684
3 682 614 613
3 685 614 682
3 684 683 686
3 684 686 687
3 685 688 614
3 614 688 615
3 617 615 688
3 617 688 689
3 687 686 619
3 620 687 619
3 690 687 620
3 689 691 617
3 617 691 622
3 623 622 691
3 623 691 692
3 695 694 693
3 694 690 693
3 690 625 693
3 690 620 625
3 697 626 696
3 626 692 696
3 626 623 692
3 698 697 696
3 695 693 699
3 695 699 700
3 628 699 625
3 625 699 693
3 697 629 626
3 702 701 630
3 702 630 629
3 698 702 629
3 697 698 629
3 704 703 701
3 704 701 702
3 706 705 703
3 706 703 704
3 708 707 705
3 708 705 706
3 707 708 700
3 707 700 699
3 633 707 699
3 632 633 699
3 632 699 628
3 701 634 630
3 634 701 637
3 637 701 703
3 637 703 639
3 639 703 705
3 639 705 641
3 641 705 707
3 641 707 633
3 709 643 644
3 646 709 644
3 709 647 643
3 647 709 646
3 710 652 653
3 654 711 653
3 653 711 710
3 655 712 654
3 654 712 711
3 656 713 655
3 655 713 712
3 657 713 656
3 715 714 659
3 659 714 658
3 715 659 652
3 716 715 652
3 710 716 652
3 715 716 717
3 718 710 711
3 716 710 718
3 719 711 712
3 718 711 719
3 720 712 713
3 719 712 720
3 720 713 657
3 721 720 657
3 660 721 657
3 722 720 721
3 660 661 721
3 721 661 723
3 724 663 664
3 725 724 664
3 658 725 664
3 714 725 658
3 717 716 726
3 717 726 727
3 728 716 718
3 726 716 728
3 729 718 719
3 728 718 729
3 730 719 720
3 729 719 730
3 720 722 731
3 720 731 730
3 732 723 661
3 732 661 665
3 665 666 732
3 732 666 733
3 734 667 724
3 724 667 663
3 724 725 735
3 724 735 734
3 727 726 736
3 727 736 737
3 738 726 728
3 736 726 738
3 739 728 729
3 738 728 739
3 740 729 730
3 739 729 740
3 730 731 741
3 730 741 740
3 666 668 742
3 743 666 742
3 733 666 743
3 669 742 668
3 744 670 734
3 734 670 667
3 734 735 745
3 734 745 744
3 737 736 746
3 737 746 747
3 748 736 738
3 746 736 748
3 749 738 739
3 748 738 749
3 750 739 740
3 749 739 750
3 740 741 751
3 740 751 750
3 743 742 752
3 743 752 753
3 671 752 669
3 669 752 742
3 754 672 744
3 744 672 670
3 744 745 755
3 744 755 754
3 747 746 756
3 747 756 757
3 758 746 748
3 756 746 758
3 759 748 749
3 758 748 759
3 760 749 750
3 759 749 760
3 750 751 761
3 750 761 760
3 753 752 762
3 753 762 763
3 673 762 671
3 671 762 752
3 764 674 754
3 754 674 672
3 754 755 765
3 754 765 764
3 766 757 756
3 768 767 766
3 756 768 766
3 758 768 756
3 769 758 759
3 768 758 769
3 770 759 760
3 769 759 770
3 760 761 771
3 772 760 771
3 770 760 772
3 774 773 772
3 774 772 771
3 773 774 763
3 762 773 763
3 775 773 762
3 676 775 673
3 673 775 762
3 764 677 674
3 679 677 764
3 765 679 764
3 776 679 765
3 777 767 768
3 777 768 769
3 777 769 778
3 778 769 770
3 778 770 779
3 781 780 779
3 770 781 779
3 772 781 770
3 782 772 773
3 781 772 782
3 783 773 775
3 782 773 783
3 681 783 676
3 676 783 775
3 776 682 679
3 784 682 776
3 780 781 785
3 780 785 786
3 787 781 782
3 785 781 787
3 788 782 783
3 787 782 788
3 684 788 681
3 681 788 783
3 790 685 789
3 685 784 789
3 685 682 784
3 792 791 790
3 792 790 789
3 793 791 792
3 794 786 785
3 796 795 794
3 785 796 794
3 787 796 785
3 797 787 788
3 796 787 797
3 687 797 684
3 684 797 788
3 790 688 685
3 688 790 689
3 790 798 689
3 790 791 798
3 791 793 799
3 800 791 799
3 798 791 800
3 801 800 799
3 795 796 802
3 795 802 803
3 804 796 797
3 802 796 804
3 690 804 687
3 687 804 797
3 798 691 689
3 691 798 692
3 798 805 692
3 798 800 805
3 800 801 806
3 807 800 806
3 805 800 807
3 808 807 806
3 803 802 809
3 803 809 810
3 695 809 694
3 809 804 694
3 809 802 804
3 694 804 690
3 805 696 692
3 696 805 698
3 805 811 698
3 805 807 811
3 807 808 812
3 813 807 812
3 811 807 813
3 814 813 812
3 810 809 815
3 810 815 816
3 700 815 695
3 695 815 809
3 811 702 698
3 702 811 704
3 704 811 813
3 814 817 813
3 817 704 813
3 817 706 704
3 815 708 816
3 708 817 816
3 708 706 817
3 708 815 700