OFF
725 1422 0
1.9338719750 8.7497695311 8.8899761660
2.0411196860 8.6208330603 8.7037787881
2.0822097992 8.5772626054 8.9306534509
2.0096510769 8.8391173549 9.1099015388
2.1266211972 8.8917838739 8.7559586756
2.3262348529 8.3237756719 8.5978402078
2.5747220077 8.1460466459 8.2814594946
2.8339223229 7.9418199239 8.4291679794
2.6826730631 8.2904124386 8.8775136510
2.4127249158 8.5296663389 8.3794263536
3.1075727934 8.5017673564 8.0705593579
2.8308051619 8.1920582012 8.0743850164
2.1670082723 8.6921350006 9.2032657273
2.0501889990 8.8284329694 9.3263082059
2.1456481187 8.8187753428 9.3400309493
2.7172878325 8.9296774060 8.4773442866
2.3435474942 9.1517164507 8.7598420320
2.6418598690 9.1566826947 8.7330160181
2.2359191252 9.0479650567 9.0141919197
2.1193727394 8.8990036527 9.2740237070
2.4151543886 9.2096833862 8.8662676851
2.9960869592 7.9081253527 8.1122953478
3.5712571171 7.9341922149 7.8551873235
3.5962770998 7.5456215161 8.1485563759
3.3016479936 7.7621833418 8.5787362629
3.5076585104 7.9368617389 8.8060891786
4.0185732569 8.4169039551 7.8341521289
2.4337734548 8.7858479261 9.1555709232
3.3018916893 8.5075098487 8.9396185561
3.6570963629 8.8157222634 8.2342025849
2.6883166727 9.0234473149 8.9266276647
3.3618666566 8.9156043706 8.6812197232
4.3701819729 7.0247583233 8.0289317100
4.3865482694 7.2796235932 7.6868588697
5.0048950321 6.6188764224 7.6634170603
4.9745789666 6.6282405258 8.2496575787
4.5917884323 7.8274185339 7.5356331620
4.1158032692 7.3766801168 8.5140845641
4.2544748369 7.9004517588 8.8943955154
4.9327297066 8.4215095313 7.6631269642
4.3382703503 8.5252078477 8.9076635380
4.6416645056 8.8298358899 8.0741123431
4.4750490043 8.9134447693 8.5618047069
5.7047037942 6.0582211287 7.2400582599
6.3689283941 5.9244067311 6.6530909934
6.3017652112 5.3456005953 7.0536424555
5.9491887837 5.5504768611 7.7086467374
5.4077655034 6.0942054690 7.8057633518
5.6894010506 5.9759795394 8.3087802995
5.8733106301 6.3288035605 6.9104647425
5.5176776160 7.0366397526 7.1876156738
5.4848194877 6.5357419807 8.7108267428
5.4300994096 7.9624689138 7.3726532032
4.9740674712 7.1927695230 8.8010799740
5.2831693510 7.9142410356 9.1813733036
5.7545093883 8.5327915196 7.5663168640
5.3601230105 8.7802832865 9.0401900045
5.3769090767 8.8600011159 7.9126025803
5.6234305835 9.2680322262 8.4917888469
6.9164460519 3.5742239678 11.7022056902
7.1650114392 3.4027021557 11.0471356172
7.2294297514 3.0253217078 11.4175178525
7.1589159489 2.9885637651 12.1501138889
6.8471783608 3.6801760954 12.6224022675
7.3237899186 2.9618783670 13.1938491627
6.9477485331 3.7786281448 13.5478918168
7.2897646287 3.3308549300 13.9228176236
6.7741476452 4.8444467234 6.9868698573
6.9558360887 5.1673983816 6.4156571448
7.4206669135 4.5447744664 6.7345581552
7.0438514399 4.5639743615 7.3670820646
6.9350687180 4.1431204801 11.1047565831
6.7026844407 4.4920488846 12.1043855607
6.7611811821 4.9410561078 11.4061352633
6.7163194011 4.5147978293 13.1456705650
7.2518114808 3.8320326252 14.3307157090
6.9488039721 4.5226343429 14.0337945082
7.2836258171 4.4871161385 14.6632303982
7.2411067927 5.8875095981 6.0685917961
6.5357193024 4.9610529491 7.5802689207
6.4069770948 5.2905290132 8.4402092045
6.0969018941 6.1116431683 9.0247296180
6.5791160791 5.5067383319 9.2567628480
6.6801914765 5.3324780696 12.0185223170
6.7873532566 5.7858322948 11.5072090324
6.7078047446 5.4086102922 12.8060170453
6.8621639006 5.2738116587 13.7204123028
7.3204339982 5.2765229797 14.6186682074
6.1577822099 6.5355296953 6.7562821434
6.8482259140 6.5613679485 6.4427800693
5.7214665556 6.9804793412 9.1838196161
6.4905698136 6.0262541595 9.6148071165
6.2901026544 6.6867067415 9.6499597371
6.6162691254 6.3545618174 10.0754538498
6.8155585908 6.0342260982 12.2605728556
7.0221684796 6.7172791186 11.7326869644
6.9050681326 6.1554136196 12.8818068668
6.9681152655 5.9692709814 13.4584084659
7.1659489451 5.8445757929 14.0881915833
6.4159019962 7.0760957327 6.7914726413
6.4684591355 8.0735956521 7.1192256473
6.1138126167 7.5280358951 9.6850624730
6.6019790763 7.1305224554 10.2442775740
7.2012550241 6.7076418150 12.6176243556
6.3277610823 8.7782768060 7.5531212115
6.0267462855 9.1251411305 7.9097447546
6.5452671775 9.3028603062 7.7397605235
6.5579608960 7.9567010545 10.1682859885
6.0867833115 8.4247957903 9.6260071899
6.5265773658 9.9885614584 8.2205145443
6.3540721900 9.9470622818 8.8691332427
6.2960397149 9.4136097121 9.4246335116
6.6474696725 10.4895478641 8.8378517497
6.8551693401 10.9113407568 8.5940761689
6.7222117601 10.4030841314 9.4213530710
6.8733121635 11.0327789498 9.1582159942
7.6387895161 2.5552740618 11.6515825648
7.6753439847 2.9122983761 10.7911049905
8.4270684465 2.2473566328 11.0991245007
8.2164177376 2.0937972659 12.1585641631
7.5991794073 2.4758605781 12.5253338651
8.1094152230 2.1752247097 12.9946465708
7.6640557975 2.4595886981 13.0755822294
7.9367130958 2.4621228437 13.5457443351
7.3615652308 3.6300827058 10.4503463543
7.8932532382 2.9094802137 14.1555487808
7.4818736357 3.3494172787 14.3020026861
7.7796625953 3.4572402543 14.6752030545
7.5591528202 4.8076669345 6.0387905388
7.9780041769 4.8828960953 5.5203154020
8.2148606916 4.4981169799 6.0602959274
8.1785708417 4.2012453174 6.9882975179
7.6935242125 4.2273970660 7.5967315814
7.0773488153 4.5684831262 8.1102806886
7.8759715973 3.9620838151 8.6263916318
7.0611888912 4.7136169925 9.1847853701
7.5949355289 3.8512478920 9.6355410155
7.0679411318 4.5231231061 10.2888013756
6.8853370780 4.7000487369 10.8984149963
7.6771772502 4.0564685951 14.9504377706
7.7019865101 4.7604987819 15.1378423347
8.2633316783 4.2285060908 15.4098742879
7.6065402192 5.2651242403 5.7070789598
8.2513057727 5.2525935340 5.0162881287
6.7963993371 5.5308818997 10.0099841335
6.8464522076 5.2977596362 10.8191634706
7.7563669491 5.2720910091 15.1884239854
8.3736406868 5.1747007492 15.5766994522
8.0868995966 5.8348307998 5.4041253044
7.9393692726 6.8119848152 5.9626477252
6.8257854635 6.3790417750 10.7843244178
7.2360680976 6.5154616200 13.2562074858
7.4638044870 6.4211824288 13.8870099986
7.6491279561 6.0982963064 14.5614738644
7.9330315467 5.7515075377 15.1190680109
7.1633644209 7.3742175640 6.5599515270
7.4067199617 8.1595545165 6.6890542449
7.1066458577 7.8018616523 11.0490376469
7.5683701471 7.5475593020 12.1900151021
7.5547718963 8.0301058204 11.6999308284
7.9740349107 7.1706592674 13.3991444671
8.1679989010 6.7004300690 14.3836259091
6.7624981029 8.9606334003 7.4051395242
7.3330996703 9.0371489005 6.9812062559
6.7671164680 8.8006313439 10.2411226364
7.3371497883 9.0519631578 10.9142848467
7.6488815354 8.5800175689 11.5337058695
6.9989829102 9.7337771684 7.5444861513
7.5189880845 10.1445913757 7.0430549307
7.1100016176 10.0382342027 10.3524947786
7.5558871478 9.7713982544 11.0455854186
7.7510295707 9.3102771219 11.4294093977
7.2022702834 11.0112092278 7.7877979089
7.6521102876 11.0032029185 6.8966665754
7.1285809446 11.2924714016 10.0029213055
7.5820833008 10.3650564327 11.0625369245
7.4723231450 11.0505870970 10.9273171585
7.8139605580 10.8271460696 11.5013639527
8.0822584912 11.9333002582 6.1585037249
8.6167138617 12.1631879515 5.7151231739
8.3436757665 11.5086699208 5.7973094360
7.9782649139 11.2993422589 6.3099263427
7.7051492463 12.0299407621 6.9842197187
7.3765775443 12.2535297835 8.0514179142
7.1419836701 11.9023088518 9.0344044771
7.2679728058 12.3272643292 10.1649053904
7.4818154282 12.0960438789 11.0818642157
7.8016796837 11.5420189504 11.6854737590
8.1618737906 12.5248964199 6.3118739996
7.9792846750 12.9074954839 6.9107988856
7.6966804052 13.1340895521 7.7584088702
8.2751713367 13.5892457695 7.2550010175
7.3978952327 13.0717134014 8.7897679628
7.3384842993 13.0909313258 9.8148651203
7.4628812067 13.0983759195 10.8820487834
7.8072999327 12.2290598674 11.9831762519
7.7059074781 12.9116202882 11.8853721451
8.1799157919 12.5657055356 12.8026833897
7.9307916071 13.4211787742 12.6055854104
8.2691596227 13.2572292779 13.2387239499
7.9459936318 13.8817841024 7.8978328601
8.3589833872 14.1534758569 7.7834254378
7.7116154294 13.9904944069 8.6393561977
7.5008085831 13.8239420937 9.4712456300
7.5990208078 14.0663279025 10.4742484488
7.7320405528 13.8565071338 11.7236801731
7.9699518738 14.0177598026 12.5403975026
8.1694272832 13.7689399241 13.0673531311
8.0899790537 14.3295894000 8.2501438171
8.0910742033 14.6912114312 8.8316612932
7.8074999679 14.6045081160 9.5723088050
8.1053262839 15.0026808447 9.3132201069
7.8967195337 14.8586974507 10.4050369511
7.9252398955 14.6854661288 11.2627907138
8.0251616415 14.4755855563 12.1082998895
8.2638964992 15.2336757878 9.8486967021
8.3832673713 2.7441036236 10.1596828355
9.0269399401 2.8373488798 9.6079961504
9.1314833366 2.3452519135 10.3068211478
9.3500197684 1.8683610696 11.0384588829
8.9670931355 1.7487385861 11.8590347543
8.9524188881 1.7972267742 12.8776276853
8.6500669389 2.1539575969 13.6602378894
8.3186466691 2.4504153607 13.9955547848
8.9163756202 2.4958845163 14.4041072266
8.3300548089 3.2865326321 9.3750587169
8.6242112267 3.5106381559 8.7126494586
8.9528418754 3.1977444728 9.0789545720
7.8564145947 3.2312180758 10.0429509009
8.4980673381 3.1228733874 14.8825993444
8.1883252643 3.6592048140 15.1343057868
8.8923718724 3.5524121136 15.4062260560
9.1452596326 5.0061474347 1.7923947011
9.3175852666 5.0409244546 1.3906291517
9.5512511211 4.7554648463 1.6071732519
9.3578300574 4.7744822184 2.0818551973
9.1228912323 5.0164282710 2.5105752378
9.5306697718 4.8721482128 2.6811910807
8.5802415506 4.8324552794 4.9768235389
9.1492147696 4.5064824422 5.6619805722
8.9891534108 4.2041810972 6.7871427465
8.7769024924 3.8648930617 7.9353788152
9.0097573328 4.1822284712 15.7731733338
9.1210507011 5.3148247030 1.4994679693
9.4410138317 5.3840352714 1.2295555328
9.0607968819 5.4286405695 2.0129772830
9.1754450805 4.9796840459 3.5597061990
9.0149492344 5.2578647732 3.0972720101
8.8837482022 4.9912283903 4.0535477664
8.7577104416 5.2247933498 4.1313058661
8.7721944381 4.7694597249 15.8813550657
8.6884623354 5.3218192068 15.8135294014
9.2128232390 5.6978384571 1.4523122543
9.6091000511 5.7960070565 1.2219020495
9.2308654529 5.8456009033 1.7368385565
9.3146764659 5.6621544948 2.2938414898
9.3017607344 5.4171288767 3.2140771787
8.8385028590 5.5746503108 4.4871603168
8.9161624543 6.3126215968 5.2605397530
8.9698194065 7.1412966947 5.6212811647
8.2203099053 6.3194704616 14.9450564975
8.6343886424 6.0995310889 15.3623076481
9.0320292820 5.9145676210 15.6491492144
9.4029364617 5.9847941849 1.4334498021
7.8423917918 7.7491359028 6.3298593520
8.5119649284 7.8336745073 5.9698710789
7.8685089572 8.2686053051 12.0652627067
8.3490061820 8.1954598881 12.7914022231
9.0630882870 7.9063198744 13.6543961000
9.0097151862 7.2596522194 14.2778563419
8.9019947036 6.6906419695 14.9308787659
8.0619470288 8.6782367557 6.3571517507
8.7965976325 8.7479293413 5.8250765640
8.2025442829 9.1176747410 12.1549901330
8.7531668414 8.9313345733 12.8236924939
9.0677493723 8.5616314009 13.2238632407
8.4459305571 9.6731803104 5.9920166865
9.0613287356 10.0499154673 5.3715881860
8.9246917220 9.3700653158 5.6255219069
7.8878983852 9.6008845132 6.5715235907
7.9514675355 10.0711937794 11.6563808309
8.4315536863 10.0654898613 12.3196996327
8.8301202515 9.6423799336 12.7492695683
8.4220335403 10.7312068667 5.8257867969
8.9874271296 11.2527640556 5.3104637351
7.9740259867 10.4306920189 6.4293548081
8.2966970388 10.9998822874 12.2922825966
8.8782196432 10.4521127697 12.8305588897
9.4529187702 12.0885527155 5.2917248224
8.0799343216 11.8562581438 12.3416012317
9.0347120868 11.1975193154 13.1888229145
8.4650448845 11.7680990420 12.8457556302
8.8530078615 12.0654137033 13.4462788250
8.6355774380 12.8035442760 6.0216695145
9.2343867575 12.7395939246 5.7410370090
8.4377009530 13.1410089196 6.5234202428
8.7241795968 12.8123114627 13.6472159796
8.6938375462 13.6494628918 13.6855294671
9.3558816253 12.9534998887 14.2433594293
9.0991022179 13.2360667164 6.2703199002
8.8915902785 13.5881407153 6.8154881558
9.1031802893 14.0991185579 7.4873932597
8.3853056790 14.4020577702 12.9049791317
8.9958843729 14.4344054012 13.7005420023
9.4770417106 13.7826480289 14.4323033642
8.7317743132 14.6501071568 8.3028136789
8.5486484342 15.1249378522 9.0834860144
9.3780871006 15.1431435151 8.8619688157
8.2197599095 15.2640233667 10.8053622864
8.4728931824 15.1466263773 11.9003697869
8.9279847316 15.0281815053 12.9415101813
9.3145804328 14.9333603508 13.5882805529
9.6866323361 14.5228356977 14.2530872792
9.0994746695 15.5285172699 9.6433484144
8.6195260136 15.5692458678 10.2815982619
9.2855960931 15.7842065588 10.1719274806
8.4994245752 15.5006462725 11.1525044626
8.9064761892 15.6046253189 11.6758271778
9.4014502234 15.5588614973 12.2211564120
9.4611684593 15.2795715392 13.1123399046
9.6599896423 1.5057396896 11.6736142850
10.2046576682 1.7014188353 11.1365636928
10.1579954679 1.4176558235 11.6387803028
10.0116492202 1.3552478746 12.1596072259
9.4952551683 1.4691711576 12.3965974310
9.9258989634 1.3803349109 12.7089443593
9.6507733236 1.5387441448 13.0390434380
10.1303472898 1.5249717599 13.1646982074
9.8095630222 2.6582037489 9.7918807414
9.9565780643 2.1518079509 10.4313063905
9.8326155138 1.9194719510 13.8319458587
9.8496857247 2.4039128582 14.7129983774
9.1624698173 3.4288572798 8.6757924076
9.5828272994 3.1263782289 9.1716365152
9.4195674964 2.8968766050 15.1153186595
10.0425076666 3.3587870953 15.6237210371
9.8234083653 4.9679434827 1.2542850312
10.2494925282 4.6467308036 1.5050596966
9.8685106715 4.6313731829 1.9837578373
10.1504001944 4.7392518973 2.2779713491
9.1260219830 4.7755627986 4.5901962272
9.4626853395 4.9687341025 4.3767691476
9.5895881185 4.7410779891 5.1066984664
9.8075409365 4.6272724513 5.7869832684
9.7982236551 4.4365628068 6.5481078507
9.9194618701 4.1357456156 7.6703210032
9.8198709446 3.6115064140 8.5821606709
9.7125779823 3.8510982005 15.9002872602
9.1487126179 4.2863089199 15.9513823820
10.0719492641 5.3770732472 1.1283358922
9.3955634976 5.2267305867 3.7552145865
10.0023624399 5.1228954032 2.6364917305
9.6064408541 5.2928692043 4.5127453768
9.4090134150 5.7236761637 4.6859162051
9.8373359964 5.6090716425 4.9600345026
10.1610759012 5.7651845868 1.2466391661
10.0920078289 5.6155027720 2.1023064524
9.5866856859 5.9608546567 1.7052254283
9.8492489961 6.4215781480 5.2469632807
9.3661436136 6.7671609594 5.4021322906
10.0515265613 6.3193762848 15.5340278411
9.5082132353 6.4746603216 15.3635697721
9.7212838704 6.0137734979 1.3609019272
9.6673835971 7.2626987424 5.4352203572
9.3243141389 7.9758013132 5.5833662660
9.3969275529 7.6506571459 14.1118417878
9.6873375925 7.4999916999 14.3415086330
9.9425213190 7.0442409379 14.7686922540
9.4197441641 8.9658667346 5.3731016220
10.1723608514 8.7321778941 5.0463880504
9.8687597175 8.2042454650 5.3365779444
9.3288856563 9.2354874231 13.1935142415
9.8674635926 8.6290491130 13.5861139083
9.8331933858 7.8926065832 13.9985716048
9.8150003488 9.6383443441 4.9366451631
10.2486287740 10.0495652964 4.6309113229
10.5461339042 9.3494117357 4.6937030139
9.3897924953 10.0561290474 13.2031638319
10.0635400247 9.6420435767 13.5115803965
9.6654852369 10.5509797884 4.8665067212
10.4080011552 10.6900141966 4.6006834310
9.3057540828 10.6199516448 13.2306966917
9.9186871588 10.6815881022 13.6390017276
9.8515081932 11.3825748057 4.8815996520
10.6430937519 11.3570770742 4.7343037573
9.5712917320 11.6225225308 13.8504064016
9.2917629456 12.3181922654 13.9911714538
10.0701176162 12.1181956615 14.3854920933
10.3983593138 11.9965682729 5.1107957054
10.0772963190 12.6329841298 5.5967496614
10.1384038005 12.9961443705 14.8038509507
9.9113555697 13.1651040349 6.1372717157
9.7886588595 13.6889035659 6.8859035070
10.0093992760 14.1509028268 7.5684134355
10.0308209526 13.6273641149 14.9381471065
9.9137993552 14.0550438361 14.7907559735
10.3944571849 13.7964367146 15.0648365655
9.9598765560 14.6048949638 8.2330349803
10.1875695405 15.0949818283 8.9108370739
10.4026250081 14.6770370088 14.2829202344
9.9044853252 15.0505232108 13.6828213367
10.2925481785 14.2737919066 14.7838469885
9.9909903205 15.4454703643 9.4458673683
9.6490113349 15.8842531359 10.7698281106
9.9400568809 15.7436069245 10.2913731901
9.4595917626 15.8115469534 11.4800454274
10.0404016464 15.7992137848 11.3968929431
10.2413324493 15.6569479711 12.2716575086
10.0813041136 15.4157205735 12.9728068276
10.4964634866 1.5145275679 11.4933634815
10.5485775001 1.4515058115 11.9442659531
10.4240003336 1.4376968145 12.6450770321
10.5119708240 2.5591340771 10.0375768348
10.8273139025 2.1909898388 10.6151374650
11.1368987211 1.8170539870 11.4688291229
11.1181052667 1.6563803129 12.4306585721
10.8231538590 1.7347860153 13.3669140168
10.7481912653 1.9525174830 14.0504102809
10.7294361858 2.2945924611 14.6448762417
10.2636796341 2.7185629777 15.1677874982
11.1597609169 2.9039829868 15.3002251213
10.6418488899 3.2542560999 9.4554250663
11.2657568399 2.7876633999 10.1584637056
11.1333277470 3.3880373675 15.7094417932
10.6245785119 4.9037069709 1.2071948509
11.0943140552 4.6126899174 1.4350811194
10.6255401709 4.5885605515 1.8449047760
10.7919142611 4.8231403217 2.1357073307
9.8435521532 5.1370484138 4.9600767125
10.0255447948 4.9439201021 5.4984899434
10.3786962003 4.9604011525 6.2523046489
10.5047046184 4.6343406617 7.2023325180
10.7550586200 4.4772459823 7.9898870614
10.7243667046 4.0458093859 8.6483524396
10.6400638322 3.5647152054 15.8556823896
10.9372169249 5.2830312181 1.2053438041
10.8400985992 5.1940116266 2.1406791825
10.3497443580 5.6548315637 5.5406809090
11.0003843840 5.6721486757 6.2833458015
11.0176665259 5.1985353660 7.0038972812
11.0792995531 4.8952352656 7.7204535877
10.6506870886 5.6314427627 1.5140465795
10.0320102585 5.9164137190 1.5355559685
11.0754864082 5.3982097552 1.8183650731
10.6246255669 6.5738452463 5.4860404552
11.0134094535 6.2433836992 5.8279062046
11.1425495696 6.1999839544 15.3388808027
10.4662126681 6.5760576127 15.2546699428
10.4684280580 7.6045093021 5.2756553431
9.8638445576 7.7531114339 5.4163778312
11.3177874198 6.9946899629 5.6365720831
10.2189835104 7.5687457530 14.2820824626
10.8282945289 7.2759812600 14.2688205163
10.7285890311 8.0668718324 13.7915074251
10.8113363233 6.8207701531 14.8058062923
10.9491052809 8.5786052648 4.8636816241
10.9473132517 9.1451180552 13.5760654473
11.0630645599 9.8568829287 4.5150537475
11.1878228938 9.1350541144 4.5922457372
10.8480379024 10.1225009618 13.7451770062
11.3337526413 10.6539675614 4.6153517928
10.7600840985 10.8354310913 14.0040779139
10.2690656490 11.3266116765 14.1055110671
10.9250462758 11.4515221632 14.3577453511
11.3803344007 11.3330044671 4.9109731772
10.8509315928 11.7098324396 4.9083039470
11.1962106982 11.8912151768 5.2416879512
10.9344152289 12.2502920131 14.8143804561
10.6237932790 12.9690240617 6.0619567010
11.1269377096 12.4410363063 5.7779822123
11.2545449591 12.9407397386 6.3840030064
10.7864911180 12.8854686240 15.0776229454
10.4721938042 13.3349481704 15.1003581894
11.0951536811 13.2992566093 15.1033819425
10.8341234207 13.3652627956 6.7493828744
10.4307702624 14.2802462793 7.8859409366
10.8066813021 13.9176076077 7.6007897060
10.9270324848 14.3383274547 8.2925819072
10.7495361215 13.9404002026 15.0309047547
10.6541514091 15.2410558304 9.3592651329
11.0510501239 14.7628529740 9.0015005819
11.2335655313 15.1317293185 9.6684798433
11.0631085743 14.5126930794 14.2575165661
10.7892623494 14.9955412808 13.6073786750
10.8524543020 14.2653437138 14.7284093708
10.8333155642 15.4703996015 10.0650199265
10.8256355792 15.6528426267 11.0056346342
10.8745000384 15.6277394569 11.9406608729
10.8514486784 15.4242707870 12.7715747943
11.8287432584 2.4882272431 10.8484543768
12.1522138008 2.1881918198 11.5794385583
11.8010621749 1.9177470869 12.1485761219
11.8583318041 2.0051459682 13.0714159378
11.4888374407 2.1335489057 14.0999197763
11.5488987588 2.4845267288 14.7973593697
12.0727872332 2.5083814626 14.5233008933
11.5959498465 3.3854817917 9.9509300672
11.9644400927 3.0899516807 10.4035883406
12.0694290642 2.8839695840 15.0317343870
12.0749450491 3.5166411577 15.4695807783
11.4804405572 4.8088327445 1.2148440232
11.7749116524 4.6113490278 1.3701719336
11.4894027253 4.6499935004 1.7036075128
11.4458827062 4.9278395984 1.9595691252
11.4647739528 4.8334211286 8.6371592761
11.5885363743 4.1097681876 9.5384918744
11.5716402985 3.6924059765 15.7659114174
11.8292994785 4.9844324736 1.2436408660
11.4261229864 5.1589686688 1.9448218506
11.7229227590 5.0210241608 1.8655385222
11.7025249055 5.1433296405 1.7114506928
11.4637157589 5.7621093932 6.8810132589
11.5917184282 5.4803703589 7.7231562030
11.9091045457 5.5463826146 8.5679563458
11.9247795071 4.8481153521 9.5264378308
12.0262178705 5.3725970953 9.2700397007
12.2142162415 5.2492272867 9.9033208204
11.4499067578 5.2867234045 1.4509643513
11.6479548830 6.3871232263 6.3198546552
11.9718799791 6.1680707795 7.1859660499
12.1697454906 6.0764262750 8.1050443596
12.2968053144 5.9958275566 9.0584079374
12.3427027312 5.7555022479 9.7824325744
12.1273931189 6.7910561782 12.7672435676
12.3912333767 6.3698168930 12.2389032950
12.3696186532 6.9085068795 12.1167010115
11.9408356050 6.6094633480 13.4803656583
12.3038627748 6.1274741692 12.9702631478
11.5070567465 6.6627262432 14.3059552059
12.1394685049 6.0309846768 13.9329078004
11.1897306590 6.4580945207 15.0197863917
11.8719405231 5.9268315610 14.8867097610
11.9665244052 5.5821991580 15.3637663219
11.6899752429 7.9505717176 5.1607149839
12.2694455807 7.2459859201 5.9451723779
12.2103990439 7.3567025587 12.5163078042
12.3239999014 8.1762849739 12.6027863961
11.6645962839 7.4291325861 13.3819348155
11.5983143378 8.6768468765 4.7210289047
11.8051159892 9.1783273195 4.5527508066
12.2415214436 8.5744920935 4.7826361271
11.6445868282 8.5262310094 13.2870370897
12.3058927547 9.1126370224 12.9727563882
12.0731760713 9.7888154380 4.5932316626
11.7616099437 9.2827259322 13.3748673713
11.5260191512 9.8106025030 13.6220559837
12.2072429373 10.4221313546 4.8438135841
11.7414494624 10.8791082110 4.7893766467
12.0807644592 10.9924131832 5.0977906801
11.6524240149 10.7091346429 13.9332428723
11.6271507927 11.6869193793 14.5087584858
11.5768002087 12.0239011542 5.6060340703
12.0073766170 11.5344748643 5.5309491471
11.9703399894 12.0856141888 6.0292114417
11.5430244330 12.2510356207 14.8845324525
11.2319280581 12.6294466306 15.0755682496
11.5926146297 12.6653360494 14.9870472065
11.6357361305 13.1059297867 6.9020096977
12.0175946591 12.5814155805 6.6306536273
12.1503131356 13.0066145283 7.2550419818
11.8416235303 13.5133770146 14.6019108391
11.5070607137 13.5478472769 14.8943495246
11.7826179255 13.0629946372 14.7935482594
11.7758865356 13.4345652700 7.5710023735
11.4459762211 14.3651789319 8.7224946059
11.7541950988 13.9481726727 8.4224767427
11.9121408289 14.3181088698 9.1587573571
11.4690814369 13.9990453059 14.5767599899
11.8902637768 13.7700174893 14.3210140620
11.7378992490 14.3163382821 13.8085320445
11.1533573051 13.8410921986 14.9588980801
11.5645159128 15.1988392607 10.1923204801
11.9770382151 14.6972335260 9.8890529964
12.0371553200 15.0046843161 10.6141449349
11.4446187251 15.0290787439 13.1550274669
11.5604710847 15.3543393265 10.8142613867
11.5793867490 15.3989462313 11.6507205081
11.5410356742 15.2915348656 12.4675262183
12.5281634963 2.5860471242 11.2764015136
12.7244384378 2.4846848617 11.7680151084
12.5140925384 2.2748184776 12.3864368120
12.5759706247 2.3693807322 13.1772313607
12.9215585143 2.6527612185 12.9319287652
12.3201861863 2.4015680076 13.8703631885
12.2623904856 3.8182122468 10.4240159193
12.5622353548 3.1529733864 10.9657822065
12.8694472085 2.7957638910 13.6664575279
12.6330906062 2.9096424781 14.5159134791
12.5621341566 3.2453535153 15.0921818819
12.7198636423 3.6400197207 15.1815424546
12.1196521911 4.7151754861 1.2531625961
12.1446109108 4.6541834064 1.4298059662
11.9539677581 4.8518781571 1.6612350968
12.3132354295 4.7671256343 1.4003484342
12.2282501896 4.6926927097 10.1906208497
12.7844703605 3.8444201242 11.0840886513
12.6721070919 4.6003656288 11.1105176992
12.9923774526 4.1547862580 11.5551918927
12.2505704573 4.3085716482 15.5649956781
12.6263549478 4.1756281434 15.2498498182
12.2864534327 4.8091403733 1.2806163897
12.0460366409 4.9816264429 1.4340964213
12.4951435463 5.5625782522 10.6298612105
12.9422502556 4.6402100536 11.9268375938
12.6413669517 5.5122321372 12.0443918185
12.6160088375 5.4363150070 13.3329711405
12.9704646349 4.7708651006 12.7348676426
12.5164413824 5.3192450441 14.3649249797
12.9459298384 4.7258171242 13.7394796087
12.3956124167 5.0243640886 15.2004393077
12.8460009222 4.5571780682 14.6419227202
12.2633994075 5.0150879271 15.5109604175
12.2915138123 6.7117254344 6.7201797203
12.5380979095 6.6731624218 7.5410540635
12.6643372759 6.6571345920 8.6277787826
12.6844844062 6.5781842063 9.9504653193
12.5828135412 6.5432551608 11.3670460408
12.6877017694 8.0664976308 5.2652518541
13.0158621230 7.5974937242 6.0556555232
12.8229684466 7.1829112299 6.8265087186
13.1113130471 7.3803932328 7.9849945012
13.0832818850 7.3445368626 9.2200107974
13.0666440021 7.4531183211 10.0799484085
13.2076509328 7.9882762967 10.5575843291
12.8867278160 7.3685332932 10.8354191598
12.6186665744 7.5399838885 11.7994374654
12.5120471259 9.0684711152 4.6375338043
12.7768253718 8.6430421820 4.8167145694
13.0716539757 8.1636284931 11.2636775304
12.8433308938 8.3378546402 11.9410303857
12.8570122330 9.0180848673 12.3344088083
12.8208007569 9.4220457881 4.8400213650
12.5463714644 9.9100931199 4.7827307553
12.8436241145 10.0410528702 5.1587353594
12.1677602107 9.8900907868 13.3797662459
12.8099804118 9.8731743917 12.8263263742
12.4067731336 11.0575666447 5.4469172884
12.6336510087 10.6414835664 5.3712783769
12.7212558446 11.0646424158 5.8966754339
12.5744440023 10.6839489932 13.4452414223
12.2998723115 11.4691336213 14.0487629575
12.8851225621 11.5300174379 13.4767136026
12.3665790673 12.1164372547 6.4610366022
12.5475408601 11.6811950098 6.2746111489
12.7082441161 12.0696428941 6.9116133513
12.5662193418 12.1526840147 13.9902308823
12.9304949306 12.4165739434 13.4501503975
12.0297401453 12.3067373995 14.5555193479
12.4419901847 13.0936892180 7.7338089502
12.6175111418 12.6483534290 7.4085591837
12.8266061166 12.8542958348 8.0196192305
12.3026474014 13.1812122734 14.0645992806
12.8626272053 13.1707351024 13.2569432180
12.4791000898 13.3570536845 8.3040785226
12.3607706645 14.2297565999 9.6093748521
12.5726006903 13.7231972120 9.1898188820
12.7058882823 14.0279789309 10.0666736733
12.6066844121 14.3894596847 12.2545666134
13.0477160154 13.8291540375 11.8387724596
12.7871901749 14.3274950517 11.4707235803
12.4967572789 13.9276197989 13.1899366961
13.0055270412 13.5338929642 12.5542427015
12.2433901592 14.9301293780 11.4078254676
12.5481371773 14.5048331053 10.7543546572
12.0804471717 15.0259700723 12.1675890607
12.0547801290 14.7312501448 12.8858433028
12.9454741788 2.9532332209 11.6347720690
13.0126814437 2.7934741877 12.3265340831
13.0323105849 3.5878420039 11.5762329663
13.1847328727 3.4448183306 12.3021780520
13.1555844891 3.2862196325 13.2134540263
13.0479875154 3.3712771623 14.2119700701
12.8906196808 3.3982302454 14.8309584876
12.3766132811 4.6927034008 1.3024752335
13.1376359542 4.1157242400 12.1834753156
13.1803203227 4.0707058972 13.0465271741
13.1256369814 4.0017440091 13.9906923238
12.9785005803 3.8735045855 14.7696732439
13.1239037026 7.9731551296 5.5483256823
13.2705116669 7.7018105728 6.1357042459
13.3242220924 7.7289584543 7.0247990248
13.5555232951 8.2919542409 7.9965964868
13.6565384543 8.6147252462 7.4968636132
13.4434129161 8.0909777948 8.9062663748
13.3535496541 8.0692229485 9.8532789337
12.8959856689 8.9364486547 4.7535661672
13.0350769216 8.7402187699 5.0383807555
13.7322001698 9.3395227305 7.9423482571
13.7064507322 9.4154853988 7.2190375504
13.6901933523 8.9806158860 8.8588730675
13.5926340213 8.7261700250 9.6379123482
13.4901861766 8.9566507473 10.7361683293
13.1803155944 8.8520329425 11.6584003359
13.1822536614 10.3357802565 6.0135662992
13.1895190777 9.6351614798 5.4411263938
13.5842220543 10.1752561862 7.1894617240
13.5166387024 9.8316623160 6.4240305300
13.7198226622 10.3106616962 8.1645951135
13.7762088624 10.0131890649 8.9370419545
13.7513106874 9.6491285480 9.8506397397
13.7411542606 9.6754755244 10.5360488813
13.6426527548 9.7284160134 11.2338528243
13.6661124556 10.4572542939 11.6622960230
13.3713489655 9.8423180488 11.9273483345
13.1394340156 11.2105124741 6.8533171225
13.5242270807 11.1412782192 7.9566764500
13.6989451078 11.0558034750 8.9549418396
13.7900892348 10.8553871940 9.9658546311
13.8313492917 10.3348995997 10.2729457989
13.5674819459 11.1330837858 12.0037732517
13.7571242688 11.1246180466 11.3902388389
13.1641466712 10.7965559081 12.7840138550
13.1267187731 12.1350536950 7.8235009373
13.4441547784 12.0553797208 8.8653578026
13.6131425158 11.9509423915 9.9178362871
13.8238595991 11.0552038414 10.6986925578
13.6766350932 11.7704238608 11.1010662027
13.4984797155 12.0912105429 12.1231198341
13.2906247969 11.7816562374 12.8099616569
13.0329202329 12.8922307313 8.6967998397
13.2147562123 13.0490671006 9.8055023138
13.4663009523 12.7265901722 10.7385278723
13.3615134282 12.9471855575 11.7612582484
13.2303465568 12.6835704898 12.7164717433
13.0980836750 13.6831940505 10.9536810179
3 2 1 0
3 0 3 2
3 1 4 0
3 0 4 3
3 7 6 5
3 5 8 7
3 11 10 9
3 11 9 6
3 6 9 5
3 9 1 5
3 1 2 5
3 13 12 3
3 3 12 2
3 12 8 2
3 8 5 2
3 13 14 12
3 10 15 9
3 15 17 16
3 15 16 4
3 9 15 4
3 1 9 4
3 16 18 4
3 4 18 3
3 18 19 3
3 19 13 3
3 13 19 14
3 17 20 16
3 16 20 18
3 23 22 21
3 6 7 21
3 7 23 21
3 7 24 23
3 7 8 24
3 24 8 25
3 21 22 11
3 22 10 11
3 22 26 10
3 21 11 6
3 8 12 27
3 28 8 27
3 25 8 28
3 14 27 12
3 26 29 10
3 10 29 15
3 31 30 17
3 15 31 17
3 29 31 15
3 30 31 28
3 30 28 27
3 18 30 27
3 19 18 27
3 19 27 14
3 30 20 17
3 20 30 18
3 34 33 32
3 32 35 34
3 32 33 23
3 33 22 23
3 33 36 22
3 37 35 32
3 23 37 32
3 24 37 23
3 24 25 37
3 37 25 38
3 36 26 22
3 39 26 36
3 28 38 25
3 28 40 38
3 39 41 26
3 26 41 29
3 29 42 31
3 41 42 29
3 28 31 40
3 40 31 42
3 45 44 43
3 47 46 43
3 43 46 45
3 47 48 46
3 44 49 43
3 50 33 34
3 43 50 34
3 47 43 34
3 49 50 43
3 34 35 47
3 35 48 47
3 35 51 48
3 50 36 33
3 52 36 50
3 53 51 35
3 53 35 37
3 37 38 53
3 53 38 54
3 52 39 36
3 55 39 52
3 40 54 38
3 40 56 54
3 55 57 39
3 39 57 41
3 41 58 42
3 57 58 41
3 40 42 56
3 56 42 58
3 61 60 59
3 63 62 59
3 59 62 61
3 65 64 63
3 63 64 62
3 65 66 64
3 69 68 67
3 67 70 69
3 60 71 59
3 73 72 71
3 72 59 71
3 72 63 59
3 63 74 65
3 63 72 74
3 66 65 75
3 65 76 75
3 65 74 76
3 76 77 75
3 67 68 45
3 68 44 45
3 68 78 44
3 79 70 67
3 45 79 67
3 46 79 45
3 81 80 48
3 80 46 48
3 80 79 46
3 81 82 80
3 72 73 83
3 83 73 84
3 72 85 74
3 72 83 85
3 74 86 76
3 74 85 86
3 77 76 87
3 87 76 86
3 49 44 88
3 44 89 88
3 44 78 89
3 88 50 49
3 51 90 81
3 51 81 48
3 82 81 91
3 81 92 91
3 81 90 92
3 92 93 91
3 83 84 94
3 94 84 95
3 97 85 96
3 85 94 96
3 85 83 94
3 85 97 86
3 86 97 98
3 86 98 87
3 89 99 88
3 50 88 99
3 100 50 99
3 52 50 100
3 53 90 51
3 90 53 54
3 101 90 54
3 92 90 101
3 93 92 102
3 102 92 101
3 95 103 94
3 94 103 96
3 105 55 104
3 55 100 104
3 55 52 100
3 106 105 104
3 108 107 101
3 54 108 101
3 56 108 54
3 101 107 102
3 105 57 55
3 58 57 105
3 109 58 105
3 106 109 105
3 110 58 109
3 110 111 58
3 111 56 58
3 111 108 56
3 110 109 112
3 112 109 113
3 111 110 114
3 114 110 112
3 113 115 112
3 112 115 114
3 118 117 116
3 120 119 116
3 116 119 118
3 122 121 120
3 120 121 119
3 122 123 121
3 116 117 61
3 117 60 61
3 117 124 60
3 116 61 62
3 116 62 120
3 120 62 64
3 120 64 122
3 126 125 66
3 66 125 64
3 125 123 64
3 123 122 64
3 126 127 125
3 130 129 128
3 68 69 128
3 69 130 128
3 69 131 130
3 133 132 70
3 132 69 70
3 132 131 69
3 135 134 133
3 133 134 132
3 137 136 135
3 135 136 134
3 137 138 71
3 124 137 71
3 60 124 71
3 137 124 136
3 138 73 71
3 75 126 66
3 140 139 77
3 77 139 75
3 139 127 75
3 127 126 75
3 140 141 139
3 128 129 142
3 142 129 143
3 142 78 68
3 142 68 128
3 79 133 70
3 133 79 80
3 133 80 135
3 135 80 82
3 144 135 82
3 137 135 144
3 137 145 138
3 137 144 145
3 145 84 73
3 145 73 138
3 87 146 140
3 87 140 77
3 141 140 147
3 147 140 146
3 143 148 142
3 78 142 148
3 149 78 148
3 89 78 149
3 91 144 82
3 144 91 93
3 150 144 93
3 145 144 150
3 150 95 84
3 150 84 145
3 96 151 97
3 152 98 97
3 152 97 151
3 152 153 98
3 98 153 87
3 153 154 87
3 154 146 87
3 146 154 147
3 149 155 89
3 89 155 99
3 100 99 155
3 100 155 156
3 102 157 150
3 102 150 93
3 150 157 95
3 157 158 95
3 158 103 95
3 157 159 158
3 96 103 151
3 103 160 151
3 103 158 160
3 151 160 152
3 152 160 161
3 152 161 153
3 104 100 162
3 100 163 162
3 100 156 163
3 162 106 104
3 108 164 107
3 157 102 107
3 164 157 107
3 165 157 164
3 159 157 166
3 166 157 165
3 162 163 167
3 167 163 168
3 167 109 106
3 167 106 162
3 111 169 164
3 111 164 108
3 171 165 170
3 165 169 170
3 165 164 169
3 165 171 166
3 167 168 172
3 172 168 173
3 172 113 109
3 172 109 167
3 114 174 169
3 114 169 111
3 170 169 175
3 169 176 175
3 169 174 176
3 176 177 175
3 180 179 178
3 182 181 178
3 178 181 180
3 181 182 173
3 182 172 173
3 182 183 172
3 184 115 113
3 172 184 113
3 183 184 172
3 174 114 115
3 184 174 115
3 185 174 184
3 174 186 176
3 174 185 186
3 177 176 187
3 187 176 186
3 179 188 178
3 178 188 182
3 182 188 189
3 191 190 189
3 190 182 189
3 190 183 182
3 183 192 184
3 183 190 192
3 184 193 185
3 184 192 193
3 185 194 186
3 185 193 194
3 187 186 195
3 186 196 195
3 186 194 196
3 198 197 196
3 196 197 195
3 198 199 197
3 190 191 200
3 200 191 201
3 190 202 192
3 190 200 202
3 192 203 193
3 192 202 203
3 193 204 194
3 193 203 204
3 194 205 196
3 194 204 205
3 207 198 206
3 198 205 206
3 198 196 205
3 198 207 199
3 201 208 200
3 200 208 202
3 202 208 209
3 211 210 209
3 210 202 209
3 210 203 202
3 213 204 212
3 204 210 212
3 204 203 210
3 204 213 205
3 205 213 214
3 205 214 206
3 211 215 210
3 210 215 212
3 218 217 216
3 117 118 216
3 118 218 216
3 118 219 218
3 220 118 119
3 220 219 118
3 221 119 121
3 221 220 119
3 223 222 123
3 222 121 123
3 222 221 121
3 223 224 222
3 227 226 225
3 227 225 217
3 225 216 217
3 225 228 216
3 228 124 117
3 228 117 216
3 125 223 123
3 230 229 127
3 127 229 125
3 229 224 125
3 224 223 125
3 230 231 229
3 234 233 232
3 236 235 232
3 232 235 234
3 236 237 235
3 239 238 130
3 130 238 129
3 240 130 131
3 240 239 130
3 241 131 132
3 241 240 131
3 134 225 226
3 241 134 226
3 132 134 241
3 225 134 136
3 225 136 228
3 228 136 124
3 139 230 127
3 139 141 230
3 141 231 230
3 141 242 231
3 232 233 243
3 243 233 244
3 232 245 236
3 232 243 245
3 237 236 246
3 236 247 246
3 236 245 247
3 249 248 247
3 247 248 246
3 238 248 249
3 143 238 249
3 129 238 143
3 147 251 250
3 242 147 250
3 141 147 242
3 243 244 252
3 252 244 253
3 255 245 254
3 245 252 254
3 245 243 252
3 245 255 247
3 247 255 256
3 247 256 249
3 249 256 257
3 249 257 143
3 257 148 143
3 257 258 148
3 149 148 258
3 149 258 259
3 153 260 154
3 260 261 154
3 154 261 147
3 261 262 147
3 262 251 147
3 253 263 252
3 252 263 254
3 155 149 264
3 149 265 264
3 149 259 265
3 264 156 155
3 159 266 158
3 267 160 158
3 267 158 266
3 160 267 268
3 269 160 268
3 161 160 269
3 153 161 260
3 161 270 260
3 161 269 270
3 260 270 261
3 264 265 271
3 271 265 272
3 271 163 156
3 271 156 264
3 166 273 266
3 166 266 159
3 275 267 274
3 267 273 274
3 267 266 273
3 267 275 268
3 278 277 276
3 278 276 272
3 276 271 272
3 276 279 271
3 279 168 163
3 279 163 271
3 170 280 171
3 273 166 171
3 280 273 171
3 281 273 280
3 274 273 282
3 282 273 281
3 276 277 283
3 283 277 284
3 276 285 279
3 276 283 285
3 285 173 168
3 285 168 279
3 175 280 170
3 280 175 177
3 286 280 177
3 281 280 286
3 282 281 287
3 287 281 286
3 283 284 180
3 284 179 180
3 284 288 179
3 283 180 181
3 283 181 285
3 285 181 173
3 187 289 286
3 187 286 177
3 287 286 290
3 286 291 290
3 286 289 291
3 291 292 290
3 188 179 293
3 179 294 293
3 179 288 294
3 295 189 188
3 295 188 293
3 295 191 189
3 195 289 187
3 289 195 197
3 289 197 291
3 297 296 199
3 199 296 197
3 296 292 197
3 292 291 197
3 297 298 296
3 294 299 293
3 293 299 295
3 295 299 300
3 191 295 300
3 301 191 300
3 201 191 301
3 206 302 207
3 297 199 207
3 302 297 207
3 303 297 302
3 298 297 304
3 304 297 303
3 301 305 201
3 201 305 208
3 305 307 306
3 209 305 306
3 208 305 209
3 306 211 209
3 212 308 213
3 309 214 213
3 309 213 308
3 302 206 214
3 309 302 214
3 310 302 309
3 312 303 311
3 303 310 311
3 303 302 310
3 303 312 304
3 307 313 306
3 313 315 314
3 313 314 215
3 306 313 215
3 211 306 215
3 308 212 215
3 314 308 215
3 316 308 314
3 318 309 317
3 309 316 317
3 309 308 316
3 309 318 310
3 310 318 319
3 310 319 311
3 322 321 320
3 324 323 320
3 320 323 322
3 326 325 324
3 324 325 323
3 326 327 325
3 329 328 218
3 218 328 217
3 219 320 321
3 329 219 321
3 218 219 329
3 320 219 220
3 320 220 324
3 324 220 221
3 324 221 326
3 330 327 326
3 221 330 326
3 222 330 221
3 222 224 330
3 330 224 331
3 332 226 227
3 333 332 227
3 217 333 227
3 328 333 217
3 334 331 224
3 334 224 229
3 229 231 334
3 334 231 335
3 337 336 234
3 234 336 233
3 338 234 235
3 338 337 234
3 235 237 338
3 338 237 339
3 342 341 340
3 238 239 340
3 239 342 340
3 239 343 342
3 344 239 240
3 344 343 239
3 345 240 241
3 345 344 240
3 241 226 332
3 346 241 332
3 345 241 346
3 346 332 333
3 242 348 347
3 335 242 347
3 231 242 335
3 336 244 233
3 349 244 336
3 237 246 350
3 351 237 350
3 339 237 351
3 248 340 246
3 341 246 340
3 246 341 350
3 352 350 341
3 350 352 353
3 248 238 340
3 353 352 354
3 250 348 242
3 349 253 244
3 355 253 349
3 357 356 255
3 357 255 254
3 350 256 351
3 256 356 351
3 256 255 356
3 256 350 257
3 257 350 353
3 258 257 353
3 358 258 353
3 354 358 353
3 359 258 358
3 359 259 258
3 361 360 262
3 361 262 261
3 355 362 253
3 253 362 263
3 254 263 357
3 357 263 362
3 358 363 359
3 259 359 363
3 364 259 363
3 265 259 364
3 268 365 269
3 269 365 366
3 367 269 366
3 270 269 367
3 261 270 361
3 361 270 367
3 370 369 368
3 364 370 368
3 272 364 368
3 265 364 272
3 274 371 275
3 371 372 275
3 275 372 268
3 372 373 268
3 373 365 268
3 365 373 366
3 376 375 374
3 376 374 369
3 369 374 368
3 374 277 368
3 277 278 368
3 368 278 272
3 282 377 371
3 282 371 274
3 372 371 378
3 378 371 377
3 374 375 379
3 379 375 380
3 379 284 277
3 379 277 374
3 287 381 377
3 287 377 282
3 378 377 382
3 382 377 381
3 379 380 383
3 383 380 384
3 383 288 284
3 383 284 379
3 290 381 287
3 386 385 292
3 292 385 290
3 385 382 290
3 382 381 290
3 386 387 385
3 384 388 383
3 288 383 388
3 389 288 388
3 294 288 389
3 296 386 292
3 296 298 386
3 298 387 386
3 298 390 387
3 389 391 294
3 294 391 299
3 299 392 300
3 391 392 299
3 301 300 392
3 301 392 393
3 304 395 394
3 390 304 394
3 298 304 390
3 395 396 394
3 393 397 301
3 301 397 305
3 307 305 397
3 307 397 398
3 400 399 312
3 400 312 311
3 304 312 395
3 312 401 395
3 312 399 401
3 395 401 396
3 398 402 307
3 307 402 313
3 404 403 315
3 313 404 315
3 402 404 313
3 406 405 403
3 406 403 404
3 318 317 405
3 406 318 405
3 407 318 406
3 318 408 319
3 407 408 318
3 311 319 400
3 400 319 408
3 409 321 322
3 323 410 322
3 322 410 409
3 325 411 323
3 323 411 410
3 327 411 325
3 412 328 329
3 413 412 329
3 413 329 321
3 414 413 321
3 409 414 321
3 414 409 410
3 414 410 415
3 415 410 411
3 415 411 416
3 416 411 327
3 330 416 327
3 417 416 330
3 419 418 331
3 418 330 331
3 418 417 330
3 419 420 418
3 422 421 412
3 421 328 412
3 421 333 328
3 422 412 413
3 334 419 331
3 334 335 419
3 335 420 419
3 335 423 420
3 425 424 337
3 337 424 336
3 426 337 338
3 426 425 337
3 338 339 426
3 426 339 427
3 428 341 342
3 343 429 342
3 342 429 428
3 344 430 343
3 343 430 429
3 345 431 344
3 344 431 430
3 431 345 432
3 345 433 432
3 345 346 433
3 346 333 421
3 346 421 433
3 434 423 335
3 434 335 347
3 424 349 336
3 435 349 424
3 351 427 339
3 351 436 427
3 428 352 341
3 352 428 354
3 428 437 354
3 428 429 437
3 430 439 438
3 437 430 438
3 429 430 437
3 439 430 431
3 439 431 440
3 440 431 432
3 442 355 441
3 355 435 441
3 355 349 435
3 356 357 442
3 441 356 442
3 443 356 441
3 351 356 436
3 436 356 443
3 444 358 437
3 437 358 354
3 437 438 445
3 437 445 444
3 447 446 360
3 447 360 361
3 442 362 355
3 362 442 357
3 449 363 448
3 363 358 448
3 448 358 444
3 450 448 444
3 444 445 450
3 363 449 364
3 453 452 451
3 367 366 451
3 452 367 451
3 454 367 452
3 361 367 447
3 447 367 454
3 449 448 370
3 448 369 370
3 448 455 369
3 449 370 364
3 453 451 373
3 372 453 373
3 456 453 372
3 373 451 366
3 458 457 376
3 376 457 375
3 376 369 455
3 376 455 458
3 378 456 372
3 378 459 456
3 457 380 375
3 460 380 457
3 382 462 461
3 459 382 461
3 378 382 459
3 462 463 461
3 465 384 464
3 384 460 464
3 384 380 460
3 466 465 464
3 385 462 382
3 385 387 462
3 387 463 462
3 387 467 463
3 465 388 384
3 469 468 389
3 469 389 388
3 466 469 388
3 465 466 388
3 470 468 469
3 390 472 471
3 467 390 471
3 387 390 467
3 472 473 471
3 468 391 389
3 470 474 468
3 474 391 468
3 474 392 391
3 476 475 393
3 392 476 393
3 474 476 392
3 477 475 476
3 394 472 390
3 394 396 472
3 396 473 472
3 396 478 473
3 475 397 393
3 480 479 398
3 480 398 397
3 477 480 397
3 475 477 397
3 481 479 480
3 483 482 399
3 483 399 400
3 399 484 401
3 482 484 399
3 396 401 478
3 478 401 484
3 479 402 398
3 481 485 479
3 485 402 479
3 485 404 402
3 404 486 406
3 485 486 404
3 406 487 407
3 486 487 406
3 407 488 408
3 487 488 407
3 400 408 483
3 483 408 488
3 490 489 414
3 414 489 413
3 491 414 415
3 491 490 414
3 492 415 416
3 492 491 415
3 493 416 417
3 493 492 416
3 495 493 494
3 493 418 494
3 493 417 418
3 420 494 418
3 497 496 422
3 422 496 421
3 422 413 489
3 422 489 497
3 498 495 494
3 494 420 498
3 420 499 498
3 420 423 499
3 501 500 425
3 425 500 424
3 502 425 426
3 502 501 425
3 426 427 502
3 502 427 503
3 504 432 433
3 505 504 433
3 421 505 433
3 496 505 421
3 506 499 423
3 506 423 434
3 500 435 424
3 507 435 500
3 510 509 508
3 509 503 508
3 503 436 508
3 503 427 436
3 511 438 439
3 440 512 439
3 439 512 511
3 432 504 440
3 504 512 440
3 504 513 512
3 504 505 514
3 515 504 514
3 513 504 515
3 516 515 514
3 507 517 435
3 435 517 441
3 508 443 510
3 443 517 510
3 443 441 517
3 443 508 436
3 519 518 511
3 518 438 511
3 518 445 438
3 519 511 512
3 519 512 520
3 520 512 513
3 520 513 521
3 521 513 515
3 521 515 522
3 522 515 516
3 525 524 523
3 527 526 523
3 527 523 524
3 529 528 526
3 529 526 527
3 531 530 528
3 531 528 529
3 446 447 530
3 531 446 530
3 532 446 531
3 534 533 450
3 450 533 448
3 450 445 518
3 450 518 534
3 535 525 523
3 537 536 535
3 523 537 535
3 526 537 523
3 453 537 452
3 537 528 452
3 537 526 528
3 452 528 454
3 454 528 530
3 454 530 447
3 540 539 538
3 533 540 538
3 455 533 538
3 448 533 455
3 536 537 541
3 536 541 542
3 456 541 453
3 453 541 537
3 538 539 458
3 539 457 458
3 539 543 457
3 538 458 455
3 544 542 541
3 541 456 544
3 456 545 544
3 456 459 545
3 547 460 546
3 460 543 546
3 460 457 543
3 548 547 546
3 549 545 459
3 549 459 461
3 461 463 549
3 549 463 550
3 547 464 460
3 552 551 466
3 552 466 464
3 548 552 464
3 547 548 464
3 553 551 552
3 467 555 554
3 550 467 554
3 463 467 550
3 555 556 554
3 551 469 466
3 558 557 470
3 558 470 469
3 553 558 469
3 551 553 469
3 559 557 558
3 555 467 471
3 562 561 560
3 561 562 473
3 562 556 473
3 555 471 473
3 555 473 556
3 557 474 470
3 559 563 557
3 563 474 557
3 563 476 474
3 565 564 477
3 476 565 477
3 563 565 476
3 566 564 565
3 569 568 567
3 567 568 560
3 561 567 560
3 570 567 561
3 478 570 473
3 473 570 561
3 564 480 477
3 572 571 481
3 572 481 480
3 566 572 480
3 564 566 480
3 573 571 572
3 569 567 482
3 483 569 482
3 574 569 483
3 482 567 484
3 484 567 570
3 484 570 478
3 571 485 481
3 573 575 571
3 575 485 571
3 575 486 485
3 486 576 487
3 575 576 486
3 487 577 488
3 576 577 487
3 483 488 574
3 574 488 577
3 579 578 490
3 490 578 489
3 580 490 491
3 580 579 490
3 582 580 581
3 580 492 581
3 580 491 492
3 493 583 492
3 492 583 581
3 495 583 493
3 584 496 497
3 585 584 497
3 489 585 497
3 578 585 489
3 586 582 581
3 586 581 583
3 586 583 587
3 587 583 495
3 498 587 495
3 588 587 498
3 498 499 588
3 588 499 589
3 591 590 501
3 501 590 500
3 593 591 592
3 591 502 592
3 591 501 502
3 503 592 502
3 594 505 584
3 584 505 496
3 584 585 595
3 596 584 595
3 594 584 596
3 597 596 595
3 499 506 598
3 599 499 598
3 589 499 599
3 601 507 600
3 507 590 600
3 507 500 590
3 601 600 593
3 601 593 592
3 510 601 592
3 509 510 592
3 509 592 503
3 594 514 505
3 514 594 516
3 594 602 516
3 594 596 602
3 596 597 603
3 604 596 603
3 602 596 604
3 606 605 604
3 606 604 603
3 608 607 605
3 608 605 606
3 610 609 607
3 610 607 608
3 609 610 599
3 598 609 599
3 611 609 598
3 601 517 507
3 517 601 510
3 612 518 519
3 520 613 519
3 519 613 612
3 521 614 520
3 520 614 613
3 522 615 521
3 521 615 614
3 516 602 522
3 602 615 522
3 602 616 615
3 525 616 524
3 616 604 524
3 616 602 604
3 524 604 527
3 527 604 605
3 527 605 529
3 529 605 607
3 529 607 531
3 531 607 609
3 531 609 532
3 532 609 611
3 618 617 534
3 534 617 533
3 534 518 612
3 619 534 612
3 618 534 619
3 619 612 613
3 619 613 620
3 620 613 614
3 620 614 621
3 621 614 615
3 621 615 622
3 624 623 622
3 615 624 622
3 616 624 615
3 535 625 525
3 625 616 525
3 625 624 616
3 536 625 535
3 627 626 540
3 540 626 539
3 540 533 617
3 540 617 627
3 628 623 624
3 628 624 625
3 628 625 629
3 625 536 629
3 536 630 629
3 536 542 630
3 632 543 631
3 543 626 631
3 543 539 626
3 633 632 631
3 542 544 634
3 635 542 634
3 630 542 635
3 545 634 544
3 632 546 543
3 637 636 548
3 637 548 546
3 633 637 546
3 632 633 546
3 638 636 637
3 639 635 634
3 641 639 640
3 640 639 549
3 639 634 549
3 634 545 549
3 550 640 549
3 636 552 548
3 643 642 553
3 643 553 552
3 638 643 552
3 636 638 552
3 644 642 643
3 641 640 645
3 641 645 646
3 554 647 550
3 647 640 550
3 647 645 640
3 556 647 554
3 642 558 553
3 649 648 559
3 649 559 558
3 644 649 558
3 642 644 558
3 650 648 649
3 646 645 651
3 646 651 652
3 560 651 562
3 651 647 562
3 651 645 647
3 562 647 556
3 648 563 559
3 650 653 648
3 653 563 648
3 653 565 563
3 655 654 566
3 565 655 566
3 653 655 565
3 656 654 655
3 659 658 657
3 661 660 657
3 661 657 658
3 660 661 652
3 660 652 651
3 569 660 651
3 568 569 651
3 568 651 560
3 654 572 566
3 663 662 573
3 663 573 572
3 656 663 572
3 654 656 572
3 662 663 659
3 657 662 659
3 664 662 657
3 665 657 660
3 664 657 665
3 574 665 569
3 569 665 660
3 662 575 573
3 575 662 576
3 576 662 664
3 576 664 577
3 577 664 665
3 577 665 574
3 666 578 579
3 580 667 579
3 579 667 666
3 582 667 580
3 668 585 666
3 666 585 578
3 669 666 667
3 668 666 669
3 586 670 582
3 670 667 582
3 670 669 667
3 587 671 586
3 586 671 670
3 588 672 587
3 587 672 671
3 589 672 588
3 673 590 591
3 593 673 591
3 668 595 585
3 595 668 597
3 668 674 597
3 668 669 674
3 675 669 670
3 674 669 675
3 676 670 671
3 675 670 676
3 677 671 672
3 676 671 677
3 599 677 589
3 589 677 672
3 673 600 590
3 600 673 593
3 674 603 597
3 603 674 606
3 606 674 675
3 606 675 608
3 608 675 676
3 608 676 610
3 610 676 677
3 610 677 599
3 679 678 618
3 618 678 617
3 680 618 619
3 680 679 618
3 682 680 681
3 680 620 681
3 680 619 620
3 621 683 620
3 620 683 681
3 622 684 621
3 621 684 683
3 623 684 622
3 685 626 627
3 686 685 627
3 617 686 627
3 678 686 617
3 682 681 687
3 682 687 688
3 689 681 683
3 687 681 689
3 690 683 684
3 689 683 690
3 628 691 623
3 691 684 623
3 691 690 684
3 629 692 628
3 628 692 691
3 630 692 629
3 685 631 626
3 694 693 633
3 694 633 631
3 686 694 631
3 685 686 631
3 696 695 693
3 696 693 694
3 695 696 688
3 687 695 688
3 697 695 687
3 698 687 689
3 697 687 698
3 699 689 690
3 698 689 699
3 691 701 700
3 699 691 700
3 690 691 699
3 703 702 701
3 691 703 701
3 692 703 691
3 635 703 630
3 630 703 692
3 693 637 633
3 637 693 638
3 693 704 638
3 693 695 704
3 705 695 697
3 704 695 705
3 706 697 698
3 705 697 706
3 707 698 699
3 706 698 707
3 699 700 708
3 699 708 707
3 702 703 709
3 702 709 710
3 639 711 635
3 711 703 635
3 711 709 703
3 641 711 639
3 704 643 638
3 643 704 644
3 704 712 644
3 704 705 712
3 713 705 706
3 712 705 713
3 714 706 707
3 713 706 714
3 707 708 715
3 716 707 715
3 714 707 716
3 716 715 710
3 709 716 710
3 717 716 709
3 718 709 711
3 717 709 718
3 646 718 641
3 641 718 711
3 712 649 644
3 649 712 650
3 712 719 650
3 712 713 719
3 720 713 714
3 719 713 720
3 721 714 716
3 720 714 721
3 722 716 717
3 721 716 722
3 723 717 718
3 722 717 723
3 652 723 646
3 646 723 718
3 719 653 650
3 653 719 655
3 655 719 720
3 655 720 656
3 720 724 656
3 720 721 724
3 659 724 658
3 724 722 658
3 724 721 722
3 658 722 661
3 661 722 723
3 661 723 652
3 724 663 656
3 663 724 659