OFF
577 1110 0
1.4829580102 9.7196642997 8.2904171261
1.5087035699 9.5565303227 7.5585739848
1.9120854830 8.9589272384 8.0741702174
1.8807405792 9.1694671833 8.7445621861
1.3035474886 10.2329263172 7.5672759559
1.4578063309 10.4293693353 6.9750620031
1.4985396894 9.8772343262 7.0462699795
1.2502276615 10.4123590847 8.2210623099
1.8568932863 9.6064246482 9.1843886641
1.4414561663 10.2902104693 8.8554824182
1.8005194173 10.2310274655 9.5096642542
1.3596073676 10.8158581176 7.3282745887
1.2687589819 10.8895867201 7.9041239770
1.4791905545 11.3214941558 7.5833177278
1.3283145141 10.9195489934 8.5984899807
1.6032103578 10.8605567209 9.3089663055
1.4878350490 11.4916757324 8.2772559050
1.5587339081 11.4108504950 8.9878390952
2.3505940053 8.4610162837 6.8281047930
2.5280713894 8.4266425739 6.1209082217
2.9786446464 7.8557817641 6.6031552512
2.7913830095 7.9812641810 7.6299577497
2.2125853687 8.5120058078 7.5822672509
2.5673932361 8.2755132788 8.3402335429
2.2029655569 9.1309639925 6.0503506220
2.4941679457 9.2147162933 5.3083933731
2.5496661422 8.7131252233 5.5800877239
1.8436836777 9.1849474520 7.0398478043
2.5224806844 8.6426839257 9.0591833669
2.1028655529 9.1034913701 9.1562993997
2.4726804312 9.1210440422 9.6258523548
2.3404551041 10.0090836194 5.3880823830
2.8864577287 10.3000682034 4.6302433109
2.7494543974 9.5341149911 4.8436867663
1.8179753563 10.1006469136 6.3932237485
2.4665271462 9.7684447927 10.0764989023
2.0933027831 10.6625869790 9.9914484760
2.6299608025 10.4141820879 10.5376685537
2.4881847057 10.7441164930 5.1372725298
2.1840631755 10.9797096311 5.8092057129
2.4803185374 11.1638939105 5.2863996936
1.7162393562 11.1139361148 6.8454677789
1.9805949272 11.5447060831 9.7215769586
2.5250235419 11.1629267358 10.5070458735
2.6409865592 11.6544789373 5.5060055158
2.2477686812 11.8324067033 6.4159104975
2.6127964233 12.1675812289 6.0497359643
1.9779368764 12.0889065962 7.6621167231
1.8549446538 12.0243607274 8.8788731848
2.2496361942 12.4220490295 9.6472198750
2.5385438960 12.0482369308 10.3796883166
2.7531783674 12.6654928750 6.6492072050
2.5315172375 12.9385114808 7.7828388461
2.3688886159 12.8384277153 8.7732166327
2.8573091634 13.3755858325 8.2946887479
2.5929108690 13.0087216959 9.6571502635
2.6335655035 12.7187337661 10.1936902776
3.0756485253 13.4966057639 9.2757474852
3.2571476427 8.0711116857 5.1265149306
3.6295835391 8.2346247128 4.5248658309
3.5846032325 7.7582326514 5.0340260115
3.4705250223 7.5948408722 5.7147958038
2.8973073564 8.1950941680 5.6533848848
3.6273334068 7.3067176230 6.6577420820
3.6083586831 7.3768689498 7.6497471926
3.4097117856 7.7477001369 8.6666939756
2.9386485599 8.1403910039 8.9109209936
3.4230625895 8.0812438002 9.4448065242
2.9389679387 8.7458872507 4.9826167440
3.3543633375 9.3891046622 4.2636521011
3.3449786252 8.6202802971 10.0448607893
2.8623450426 9.1581841330 10.1086924764
3.2707380446 9.2372207637 10.5321289840
3.4693024961 10.2760336160 4.0481969300
3.1721724592 9.8875432394 10.8082431812
3.1589541073 10.6593247963 11.0081087427
3.8849366603 9.9909634409 11.2844367195
2.8286411615 11.1118314836 4.8745212351
3.2903073671 10.8812125748 4.3340162135
3.1360957399 11.6071865620 11.0195241122
3.8894243663 10.9118069092 11.4596312441
3.4548724390 11.6934143635 4.6484310086
3.0557831481 12.2876520164 5.5930069605
3.5163452596 12.3517036030 5.0998553678
3.1344294390 12.6103730702 10.8168521041
3.9251906490 12.1064233863 11.4985416285
3.6702436533 12.8819982747 5.5937913987
3.3878869583 13.2702074290 6.5492576416
3.9476368220 13.4501787149 6.1297845455
3.0864567833 13.3675508424 7.4040752438
3.0304236633 13.1980468305 10.2111875132
3.4415397063 13.2421614781 10.7609171966
3.7029014694 12.9599143104 11.1803566053
3.8149169234 13.6898212276 6.9085298862
3.5984963693 13.8492265359 8.1255182533
3.8286937158 13.9732945533 9.4035048429
3.7366929252 13.6574576422 10.2998223368
3.9224232429 13.4027521396 10.9898980126
4.1537083967 7.2855515648 5.0058989618
4.7564271987 7.0373468440 4.2374655097
4.8708130934 6.6237438753 4.9593456287
4.7740228162 6.5702850212 5.7871777307
4.1304396795 6.9952990556 6.1722892925
4.7956841662 6.5227013824 6.8180042715
4.1854927071 6.9218236874 7.1865956838
4.8546277778 6.5878738642 7.8126725475
4.3118435606 6.9376861374 7.9916102602
4.7992870516 6.7694917254 8.5214387717
4.3197693246 7.7855279339 4.0151480005
4.7876680673 8.0823335180 3.2805283130
4.7407111097 7.4495082497 3.7120444483
4.2576564578 7.1755356807 8.6737745263
4.5197889052 7.5211945616 9.7400716835
3.9102571168 8.0568879319 9.9763959191
4.3294524624 8.1593353205 10.4398898329
4.0853440324 8.7653271974 3.7195031192
4.6361455503 9.2658243916 3.0597857621
4.0464523966 8.7870684577 10.7925588209
3.8024153442 9.3806531715 11.0190571890
4.6645826348 9.1280605236 11.3077215098
3.9907241160 9.8316271183 3.5900315719
4.5859000012 10.3065732553 3.0944779626
4.7686958537 10.0210711262 11.6445288735
3.9674689645 10.8479498202 3.7508026530
4.5674230101 10.9795032570 3.2641763382
4.7077129609 10.9647557713 11.8354902361
4.5614336805 11.7000562121 3.6833918209
4.0514826341 12.3632869236 4.6019601542
4.6005251340 12.3796410590 4.1171554779
4.4366540051 11.7474656956 11.8411220483
4.3916857476 12.5758517400 11.7102533087
4.7148578000 12.9255202663 4.6384415227
4.3699813152 13.3510781801 5.5126233141
4.9930773200 13.4700483210 5.2025497991
4.9702371903 13.1602865689 11.6581941047
4.3730854351 13.1057312090 11.4313515091
4.7964034432 13.7861415411 6.1070099635
4.4306457543 14.0302376041 7.1284615523
4.2002892496 14.1240333870 7.7889254947
4.9879625673 14.1970212635 7.1662019230
3.9364319248 14.1130571464 8.7436788356
4.2598288322 14.1693000201 9.6418657971
4.6087341204 14.0408341034 10.2482428778
4.6105068087 13.6657961867 10.9184040016
5.4186158936 6.3229559658 4.4673469828
5.7140056102 6.3109998749 3.7958994124
6.1893758922 5.7482733493 4.2959680839
5.9340612980 5.7719529094 5.1087361613
5.2552539156 7.0048344421 3.5432834991
5.7578890063 6.9099133738 2.9761304317
5.6913927452 6.5591278838 3.3938513570
5.4002262707 6.1307020120 5.4522100330
5.4465432125 6.0869190595 6.4455430836
5.5273860290 6.1503310235 7.5239189496
5.6460909228 6.3829179691 8.7315441488
5.0161905920 6.8991782385 9.2247546050
5.6530773473 6.7236326062 9.5962972022
5.2525337266 7.0213872151 9.7632497439
5.7982436010 7.0961317743 10.2242394030
5.4459891510 7.6635686796 2.7893157475
5.9730439107 7.9742809609 2.1656829530
5.8438888947 7.3449494241 2.5447602742
5.2458237779 7.8104525789 10.6794511871
4.7981001271 8.4067006205 10.9765942818
5.5858519466 8.3454840929 11.2505221703
5.2963414130 8.6796213123 2.5633376155
5.9293245457 9.1500607149 1.9808168815
5.7353042895 9.1044541201 11.6314988567
5.2631939988 9.7972835511 2.5142056168
6.1259755356 10.2439904382 2.0314574956
5.8318243583 9.9321581252 11.9124850065
5.2322416330 10.8883296633 2.7868120061
6.1064901584 11.1259771867 2.4117747789
5.4224828459 10.5748578576 12.0041996842
4.8400895816 11.1494411744 11.9685096603
5.6130788890 11.7356839995 3.0161839271
5.1938896540 12.3764532241 3.7310323352
6.1420438748 12.3607512992 3.2910303994
5.7175775213 12.9200465948 4.0126265912
5.4723623235 13.3280637027 4.6604001390
6.3107171510 13.3718007035 4.4317496535
5.8596403600 13.3360718497 11.6422510662
5.3508519495 13.4712638879 11.3943262420
5.8607728945 13.7165234877 5.3050905580
5.8884072372 14.0046415179 6.1433626503
5.4335188064 14.1275455459 6.7216752643
5.9920032884 14.2372151732 7.0548517428
4.7390858754 14.2051344386 10.1169252156
5.3614931968 14.1516354919 10.3864386196
5.8488478478 13.8905132700 10.7327939568
6.1473870116 6.2149579677 3.3487897099
6.8122188666 5.9203981580 2.9499934743
6.6886890362 5.5765334701 3.6911571087
6.8990725085 5.2195663427 4.3521984156
6.6865803922 5.2469786852 5.3334246524
6.0686747161 5.6492372049 6.0035857936
6.8279097056 5.1955278469 6.5795754059
6.1961384786 5.6674211392 7.0932147325
7.0739132872 5.2841710224 7.7932034462
6.3172742023 5.8090478441 8.1554363857
7.0177000773 5.5942610809 8.6658646227
6.5532284293 5.9662835651 8.9763271615
7.3208362301 5.8191268552 9.4017555938
6.3541879722 6.8383438353 2.4640097018
7.0112278296 6.6407167373 1.9659050320
6.8758952641 6.2767662154 2.4016620299
6.5464290374 6.4037543348 9.7352811752
6.9698858905 6.8866757581 10.5984822134
6.6984982080 7.4948262060 1.7429101990
7.2939325826 7.8002877412 1.2774236926
7.2872232838 7.0658433566 1.4907891482
6.2917587077 7.5915897510 10.9701608420
6.6454872614 8.2192044324 11.4641950326
6.5863955649 8.4802383659 1.5601689223
7.3395225088 8.7317986674 1.1976880266
6.8807359690 8.9781551113 11.8013758110
6.6513334329 9.4402722940 1.5188496313
7.3887861692 9.5696053517 1.2771248536
6.9904041334 9.5677288514 12.0108558769
6.8977886614 10.1049726905 1.5779824479
7.1204016923 10.8136640357 1.9734656441
6.3263712221 10.0205949837 12.0521237335
6.6089968553 11.6955138204 2.6363284449
7.1992274853 12.2786247065 3.0709280395
6.7184881071 12.8958699160 3.7157048272
7.3365243992 13.3373299066 4.2651158120
6.6218821185 13.2180838714 11.6620722672
6.5527201606 13.4031252200 11.3809774807
7.0035570755 13.7070454189 5.0301680919
6.8200760197 13.9629612422 5.9170260977
6.6405400049 14.1503536792 6.8294403518
6.9327835436 14.2332753445 7.5391659090
6.2553742720 14.1548823242 10.3013563957
6.9801503469 14.0633838201 10.0346652678
6.8242671640 14.2174790260 9.9204811789
7.1384126169 13.6653306047 10.7172405006
7.5197372972 5.0882393667 3.5497806779
7.9512408512 5.1276415312 2.6990687167
8.4968098037 4.6143595460 3.1124305458
8.5857007617 4.1897075905 4.3997016262
7.5479302117 4.7435806568 4.9084713201
8.3211183478 4.2969916050 5.7670375555
7.4978105049 4.7431492615 6.0912906228
8.2235987428 4.4503953640 6.8329986800
7.5716979689 4.8158709017 7.1443333200
8.1751709375 4.6162414104 7.5840832455
7.8261051178 4.9028430723 7.9495308302
8.5344468076 4.7635823629 8.2883907998
7.4478176435 5.7766933467 2.3917154979
8.0491235404 5.6766339719 1.9021472969
7.9573933843 5.3673635777 2.2835768944
7.9354711074 5.2809225827 8.8508082158
8.0614873775 5.6828647798 9.6876382476
7.6405525006 6.3638688456 1.6690126038
8.0277685460 6.9199598434 1.2157939268
8.2265503064 6.1179162777 1.4594690051
7.8758294732 6.2118751700 10.2500577071
7.8276025861 6.8262821414 10.8827396586
8.1510837156 7.8958458125 1.0219243921
7.3341727301 7.4177514907 11.1766644958
7.9062820537 7.9998115527 11.5681901583
8.3125745117 8.9089421918 1.0904235275
8.1018757377 8.9638535955 11.8918825229
7.9924374360 9.7432674844 1.2956131150
7.4612900841 10.1555718553 1.4782658458
8.1300568781 10.2868402706 1.6236044464
7.7057470372 9.4620293024 12.0368457151
7.0233857401 9.7490406634 12.0798460680
8.2682681874 10.9234577575 2.0840597251
7.6612349084 11.5751795081 2.4923107899
8.4303111071 12.0549535749 3.0521818861
7.5047549362 12.8812228243 11.6087537243
8.4517433840 12.0966999144 11.7675453033
8.3810568403 12.4836038979 11.4968348492
7.8325527356 12.7987534501 3.6479240755
8.3430458572 13.2446321381 4.2822262823
7.6593107380 13.1596975656 11.2057182730
8.5950343032 12.9247949788 10.8665614826
7.9400882373 13.4235667770 10.6516770943
7.9851661375 13.6184688048 4.8819412025
7.8306371938 13.8499226728 5.7099641182
7.7294251874 13.9970003839 6.6968007900
7.3822699727 14.2176307670 8.4570158617
7.6570255949 14.0950475016 7.8420366659
7.2184005878 14.2134530058 9.3781224641
7.6271533323 14.0815954712 9.0772915948
7.9109999489 13.7565564105 9.9138964355
9.2889067160 3.6591456144 4.7861361274
9.3356866627 3.7008384887 4.1571548772
9.9560033257 3.3333082882 4.5424653216
9.7165189832 3.4583156771 5.2703208719
8.4867259505 5.0783039470 2.2604560391
9.1609998957 5.0503668801 1.9159013648
9.2819837875 4.5750558975 2.5050594061
9.3914658969 4.0171420272 3.3873696078
9.2369855095 3.8159928549 5.6543785570
9.0906460892 4.1147119385 6.7499240319
8.8860410654 4.4133737925 7.6413788829
9.4535665723 4.6040742123 8.4788167372
8.6891453300 5.5512600678 1.6477486945
8.8438804803 6.1739810433 1.2379487259
9.4601521344 5.4925850020 1.4864596084
9.0636928932 5.0358942968 9.0879195714
8.7229362418 5.4886792698 9.6840871248
8.4485238770 5.7985334734 10.0423959948
9.0688514102 5.9649295474 10.3594895785
8.9753776909 6.9922781550 0.9927332604
8.6215621730 6.6254107749 10.8976876245
8.1633940516 7.1862678693 11.2298212906
8.9289037758 7.2646723156 11.3498456648
9.1780038885 7.8918570510 0.9442191261
9.0875415544 8.1300604098 11.6651774005
9.5304483502 8.6970670499 1.1351333191
9.3733867191 9.1420540927 11.8132397278
8.8715225320 9.5767521811 1.3742734908
9.2488316808 10.2753614783 1.9038953294
8.6437652970 9.3855635444 11.9654789087
9.0762774553 10.9578954504 2.3264480150
8.5222336839 11.4207255407 2.4997171918
9.3026807637 11.4151306430 2.7936009190
8.9381802229 11.4787600786 11.8661794140
9.3216805892 10.8110366593 11.8472245043
9.1122872325 11.5606212464 11.6948693285
9.5467243171 11.9405192111 3.3698883408
9.1473968571 12.1996477669 11.2892003740
9.1484509666 12.6322130337 3.9074810139
9.1167157433 13.1775668752 4.5539399506
8.4709481163 13.3841468828 10.2540685402
9.2370518213 13.0543393456 9.9760169549
8.6807256866 13.5207519157 9.6377496997
9.4630914175 12.4964896471 10.7335212253
8.7156188412 13.4813050027 4.8318356090
8.7003110770 13.6547734349 5.4988429156
8.6677541793 13.7707788644 6.4365893649
8.6004486324 13.8181218515 7.5209423022
8.4722333531 13.7808933678 8.7763637435
9.8254338624 3.5556180535 3.8084689381
10.2029668899 3.6917788872 3.3226087158
10.5629125879 3.2960779740 3.8359968056
10.9889881368 2.8028482203 4.6106399552
10.5067486911 3.1463310740 5.5306698967
9.9596683272 3.4864793831 5.9064999918
10.5181914692 3.3822068138 6.3435417326
9.9510430861 4.8862638578 1.9440873720
10.3496020654 4.2192705248 2.6518210053
10.0797198367 3.7378398013 6.7488180382
9.9667194933 4.1955032723 7.8226553063
10.2491727402 4.5269104347 8.6765580203
9.7257111409 6.1762655865 1.1394515835
10.3618991476 5.4886574408 1.4749582562
10.0306789442 4.9014563712 9.2050974471
9.6939326419 5.4025112137 9.8160965533
10.2584917556 5.9731462490 10.4648154187
9.9530606926 6.9938512108 0.9782638369
9.6209546304 6.5887927344 10.9755189201
9.9130959037 7.3596737172 11.3833551627
10.1994685627 7.8140079268 1.0252736321
10.0996211998 8.2623672438 11.5940934460
10.5248525174 8.4802925670 1.2758622040
10.2558371082 9.1227952555 11.6193630866
10.1498473130 9.3453297232 1.6164944445
10.1947083997 10.0238885221 2.0866811869
9.3289243010 9.9131689492 11.8801927936
9.9224798945 10.3264442658 11.6054466474
10.1187833938 10.6171670483 2.5742176694
10.2391205296 11.3028748016 3.2268572215
9.7292888830 11.5274470203 11.3732370192
10.4605421269 11.7683287754 3.8108331537
9.8319852038 12.2138013340 3.7753665500
10.2389140535 12.3268545442 4.2628069123
9.6868467990 12.0343839002 11.1190120235
10.0014208256 11.7279229491 11.1204605871
10.0634618567 12.0063717249 10.7665969357
9.3822915327 13.3441582680 5.2296576188
9.9633986999 12.8499337625 4.8343488951
9.4681150180 13.4642544404 6.1347403953
10.1643951157 13.0650445260 5.8143022640
9.4394305190 13.5112895745 7.1453835104
10.1972640853 13.1291158949 6.8324091309
9.3600556421 13.4627653994 8.2137155959
10.0421248796 13.1602130484 7.7625621634
9.2073977717 13.3827560889 9.1214294528
10.1126977411 12.8609307283 8.9108220304
10.0588350919 12.4611849660 10.0654708400
11.7314600103 1.8250442395 4.7774352275
11.7039925539 1.9030186367 4.5784194645
11.8580768413 1.7160731365 4.6377588133
11.9617354669 1.7514568737 4.8346718124
11.5220235261 2.1871833506 4.8170119705
11.6751617257 2.3325496010 4.3867815790
11.9218401948 2.0523633056 5.1696281886
11.0799484558 3.6544788328 3.1883169447
11.6238468798 3.0335126370 3.8397990091
11.4954498744 2.6069545482 5.5593781463
11.3190855996 3.1453901867 6.5302375404
10.8816163661 3.4909816704 6.9586381824
11.4672732040 3.4593063216 7.3237471164
11.0662182560 4.9167532784 2.0005720015
11.5296260991 4.2430355702 2.6099118170
11.0489691576 3.8419901458 7.7309696625
10.9543566218 4.3512708379 8.5771247584
10.7564295043 4.7421010668 9.1483825576
11.5490770632 4.8125445890 9.2712481634
10.6305552189 6.2236436439 1.2028460183
11.1440465959 5.6472448372 1.5450166599
10.8433290608 5.3136040756 9.8030896702
11.3955094295 6.2089819017 10.4526084288
10.8570336644 7.0255810741 1.1387943014
10.6221591262 6.7206552596 10.9880391302
10.8030014234 7.5770943866 11.2782894029
11.0442175848 7.7578384496 1.2445957546
10.8938321577 8.5538754105 11.3536245983
11.3250424389 8.2843023772 1.6032372316
10.8063092290 8.8107817486 1.5358532572
11.1448069315 8.9986197971 1.9369357570
10.7919790998 9.5169259876 11.3613828171
10.5682873262 10.1057526949 2.3623966841
10.8218429748 9.6561230716 2.1974852716
11.0478931217 10.0426396297 2.7274539610
10.7431792108 10.2412442049 11.2183298884
11.1218547345 9.8260775020 11.1012539185
11.2154695677 10.4108745594 10.7277431681
10.8159951920 11.2668183040 3.6095702632
11.2374492517 10.6245343076 3.4631889735
11.3170133798 11.2525240404 4.0874473472
10.4465874270 11.1859440389 10.9915172437
11.0208459102 11.2289530487 10.4182526534
10.7425211746 12.4087175462 4.8928068905
11.2648124914 11.8140191009 4.6909273954
11.2890235097 12.2105394419 5.3456915509
10.7481915548 12.1817980265 9.5520686630
11.2285253738 11.8531297056 9.3585605477
11.1012458165 12.1632415061 8.8160741172
10.6161380276 11.8272530272 10.2964731252
11.1721832119 11.5991071515 9.8359425968
10.8079044128 12.6222531787 5.5489702604
10.9123443341 12.6857073358 6.5018436730
10.8577283470 12.6251063399 7.7173079539
12.0064672142 1.9394523538 4.4894689928
12.1031656867 1.7539802266 4.6909963117
12.3864200302 1.9594906574 5.0055510384
12.4283301001 2.5633014131 4.2637453776
12.4601059263 2.1666303255 5.4842038017
12.1859630891 2.3732299525 5.7551093608
12.7852791274 2.4539803318 5.9773343100
12.2578402648 3.7669019994 3.2315372590
12.4501852934 3.1842737301 3.7278561391
12.3204979268 2.8162926224 6.4901086774
12.1261981462 3.3093826599 7.3383210522
11.8859363014 3.6697812001 7.8643064201
12.6153124488 3.7448926615 8.0943840360
11.9391930498 4.8014152213 2.2945498654
12.3016564651 4.4384209061 2.6887132319
11.9895021996 4.2139884565 8.5719199079
12.5673207999 5.0439554796 9.3219367668
11.4479509838 6.3344728857 1.4623338487
11.9345298648 5.5841886268 1.9711544849
11.9191521548 5.5093010872 9.8714536994
12.2257447400 6.2074342217 10.1705821690
11.5737564732 7.1651565029 1.4566570058
12.1533318691 6.6090684759 1.9273012145
11.3644961576 7.0468172489 10.9058967890
12.1161783128 7.1362066469 10.4498113471
11.5449181573 7.7150710130 1.4858664205
12.0285348917 7.6044510996 1.9397121255
11.5484822096 7.9324277728 10.9548613419
12.1959460889 8.3867027848 10.4176236429
11.6693161936 9.2888901052 2.6868689976
11.9198619018 8.4528439277 2.2911442979
12.2131705664 9.3605023452 3.3662123716
12.5804756132 8.5669327078 3.1996132426
12.6616518331 9.1904588815 3.8030568869
11.5302259897 9.2340614850 10.8474377532
12.1649890153 9.3080350932 10.2398162040
11.7168751718 9.8521456998 3.2214778751
12.2715764193 9.8739479085 3.8963315129
11.8623363399 10.1984793204 10.0898255784
12.3600971895 9.7814639962 9.7669233030
12.2405018408 10.4131346811 9.4353043396
11.7793294958 11.2563178308 4.5964971766
12.2185437726 10.6002519384 4.5269772597
12.1533879044 11.2254681086 5.1646279017
11.7368192804 11.2729620073 9.2378361659
12.3347047402 10.7711250922 8.8863299458
12.1685524333 11.2825530186 8.4180287375
11.4469240655 10.9649607095 10.0880880667
11.5065097492 12.2306611772 6.1053530939
11.8868420781 11.7567902782 5.6464857776
11.6179169521 12.1498948187 7.1028036950
12.1716169609 11.6533732247 6.6112802188
11.6710176911 11.8829945329 8.1437976858
12.2341008953 11.4842586460 7.6080291542
12.3726481900 2.0066747318 4.6302948049
12.8523116754 2.3288250634 4.8377860751
12.9920710911 2.3061425936 5.4491430911
13.3709664612 2.6291100638 5.1974205527
13.2729459928 2.5188044634 5.9226319535
12.7556260649 3.4999046433 3.5802263166
12.9917080469 3.2855676212 3.9457128694
13.2306354873 2.9387002364 4.5326770468
13.2166283803 2.8204668659 6.5857563628
12.9367952801 3.2768063477 7.4273611808
13.3833372573 3.9505043846 8.2533370235
12.5828182720 5.0920870392 2.5449911178
12.9062034017 4.5233313209 3.0794913279
13.0818621107 3.9086260726 3.5716384492
12.9714292411 4.3827636187 8.7529647004
13.2746723206 5.0363222960 9.1202546661
12.7415493078 6.0144259874 2.5010202203
13.2343180589 5.4234757981 3.0970882462
12.6064251753 5.8132703275 9.8073219793
13.2182513795 5.9142909820 9.4330912075
12.7706829531 7.0724805582 2.6026892485
13.3196293443 6.4451789883 3.1787335866
12.7916631359 6.6435392559 9.9115978361
13.3517517430 7.1396523262 9.4141212649
12.5016976397 7.8906283060 2.5942993894
13.2487974429 7.2446574133 3.2698954191
12.9301100534 7.7341508116 3.0614665325
13.2577976719 7.9047261237 3.6991499238
12.8539417909 7.8799883946 9.8146490839
13.3730975886 8.0543573068 9.2345128360
12.9158621886 9.4382706965 4.3703524358
13.1277352359 8.7054652839 4.1025963949
13.3605863828 9.0329347504 4.7852124972
13.1491773866 8.8991703034 9.0875013865
13.5027475079 8.4569561984 8.9018382286
13.5496595233 8.9267154958 8.4019889624
12.6161215546 9.0289237662 9.7843635932
12.6754751238 9.9534595764 4.4722784148
13.0785505670 9.8187432587 5.0469387687
13.1509363170 9.8921899587 8.1444665792
13.5694333677 9.4859036110 7.6732554370
13.3340160027 10.0843501369 7.2568013330
12.6824359802 9.9566748454 9.0718908608
12.5783469545 11.1234719709 6.0911089605
12.8375175301 10.5580847053 5.5309200413
12.8139206517 10.8289013483 7.1956476871
13.1731604832 10.3967021189 6.4598705973
12.6144633819 10.7518800749 8.2232580355
13.3912273075 2.5018740424 5.6221352639
13.5825660027 3.8416904998 4.1389205984
13.6435747655 3.2349884258 4.8306150767
13.5227663739 2.7333134657 5.8349553086
13.5318633152 2.9179419019 6.6748850380
13.4697259405 3.3284698848 7.4748130614
13.6644552566 3.9457649146 8.1785636153
13.5251093119 4.7109448106 3.6270309100
13.9546064465 4.7953857670 4.0844033108
13.9380806317 4.1575934618 4.3485911248
13.5140319690 4.6545672844 8.8106926607
13.7452554434 4.7343008913 8.6707065322
13.8334420999 5.8949384812 3.8983131408
14.1084208322 5.4354215586 4.1836944816
14.1105699942 4.7915087732 4.2320733253
13.6659417359 5.4328111049 9.0349745675
13.8827214707 5.9307669352 8.9025974963
13.6352054961 7.1010994353 3.8962203294
14.1470296889 6.3167415102 4.4721285082
14.0591239819 7.0883784138 4.7236821353
14.2732268574 7.3849127321 5.3628904817
14.2702597031 6.9778604598 5.0363400099
14.3384575625 7.3114577603 5.4405639205
13.7260371769 6.5518236151 9.0740706063
13.9349147793 7.1070628463 8.7407376007
13.6689566024 8.1217243628 4.6557966853
14.0939949671 8.0331311745 5.6248241920
14.2892496563 7.7146988678 5.7538479367
13.7362630007 7.8909841952 8.7357634667
13.9968460519 8.0717638941 8.1418067893
13.6794253299 9.0438135721 5.6490558841
14.1950936323 8.2357224534 6.3581048057
14.0072072530 8.7031785977 6.5962634686
13.8728151439 8.7573378406 7.6883883009
14.0981805072 8.4662922154 7.2447939322
13.3656298618 9.9141821268 5.9021062876
13.6463952001 9.5306756914 6.7674077856
3 2 1 0
3 0 3 2
3 6 5 4
3 6 4 1
3 4 0 1
3 4 7 0
3 3 0 8
3 0 9 8
3 0 7 9
3 9 10 8
3 5 11 4
3 13 12 11
3 12 4 11
3 12 7 4
3 7 14 9
3 7 12 14
3 10 9 15
3 15 9 14
3 13 16 12
3 12 16 14
3 14 16 17
3 14 17 15
3 20 19 18
3 22 21 18
3 18 21 20
3 22 23 21
3 26 25 24
3 26 24 19
3 24 18 19
3 24 27 18
3 27 1 2
3 22 27 2
3 18 27 22
3 29 28 3
3 3 28 2
3 28 23 2
3 23 22 2
3 29 30 28
3 33 32 31
3 33 31 25
3 31 24 25
3 31 34 24
3 34 5 6
3 27 34 6
3 24 34 27
3 27 6 1
3 8 29 3
3 36 35 10
3 10 35 8
3 35 30 8
3 30 29 8
3 36 37 35
3 32 38 31
3 40 39 38
3 39 31 38
3 39 34 31
3 41 11 5
3 34 41 5
3 39 41 34
3 41 13 11
3 15 42 36
3 15 36 10
3 37 36 43
3 43 36 42
3 40 44 39
3 46 45 44
3 45 39 44
3 45 41 39
3 47 16 13
3 41 47 13
3 45 47 41
3 48 17 16
3 48 16 47
3 42 15 17
3 48 42 17
3 49 42 48
3 43 42 50
3 50 42 49
3 46 51 45
3 45 51 47
3 47 51 52
3 54 53 52
3 53 47 52
3 53 48 47
3 56 49 55
3 49 53 55
3 49 48 53
3 49 56 50
3 54 57 53
3 53 57 55
3 60 59 58
3 62 61 58
3 58 61 60
3 19 20 62
3 20 61 62
3 20 63 61
3 64 20 21
3 64 63 20
3 66 65 23
3 65 21 23
3 65 64 21
3 66 67 65
3 58 59 68
3 68 59 69
3 68 25 26
3 62 68 26
3 58 68 62
3 62 26 19
3 28 66 23
3 71 70 30
3 30 70 28
3 70 67 28
3 67 66 28
3 71 72 70
3 68 69 33
3 69 32 33
3 69 73 32
3 68 33 25
3 35 71 30
3 75 74 37
3 37 74 35
3 74 72 35
3 72 71 35
3 75 76 74
3 38 32 77
3 32 78 77
3 32 73 78
3 77 40 38
3 43 79 75
3 43 75 37
3 76 75 80
3 80 75 79
3 78 81 77
3 81 83 82
3 81 82 44
3 77 81 44
3 40 77 44
3 82 46 44
3 50 84 79
3 50 79 43
3 80 79 85
3 85 79 84
3 83 86 82
3 86 88 87
3 86 87 51
3 82 86 51
3 46 82 51
3 89 52 51
3 89 51 87
3 89 54 52
3 55 90 56
3 84 50 56
3 90 84 56
3 91 84 90
3 85 84 92
3 92 84 91
3 88 93 87
3 87 93 89
3 89 93 94
3 89 94 54
3 94 57 54
3 94 95 57
3 55 57 90
3 57 96 90
3 57 95 96
3 90 96 91
3 91 96 97
3 91 97 92
3 100 99 98
3 102 101 98
3 98 101 100
3 104 103 102
3 102 103 101
3 106 105 104
3 104 105 103
3 106 107 105
3 110 109 108
3 110 108 99
3 99 108 98
3 108 59 98
3 59 60 98
3 98 60 61
3 98 61 102
3 102 61 63
3 102 63 104
3 104 63 64
3 104 64 106
3 111 107 106
3 64 111 106
3 65 111 64
3 113 112 67
3 112 65 67
3 112 111 65
3 113 114 112
3 108 109 115
3 115 109 116
3 115 69 59
3 115 59 108
3 70 113 67
3 118 117 72
3 72 117 70
3 117 114 70
3 114 113 70
3 118 119 117
3 115 116 120
3 120 116 121
3 120 73 69
3 120 69 115
3 74 118 72
3 74 76 118
3 76 119 118
3 76 122 119
3 120 121 123
3 123 121 124
3 123 78 73
3 123 73 120
3 80 122 76
3 80 125 122
3 124 126 123
3 126 128 127
3 126 127 81
3 123 126 81
3 78 123 81
3 127 83 81
3 85 130 129
3 125 85 129
3 80 85 125
3 128 131 127
3 131 133 132
3 131 132 86
3 127 131 86
3 83 127 86
3 132 88 86
3 135 134 130
3 85 135 130
3 92 135 85
3 133 136 132
3 132 136 88
3 136 93 88
3 136 137 93
3 137 139 138
3 94 137 138
3 93 137 94
3 140 95 94
3 140 94 138
3 95 140 141
3 142 95 141
3 96 95 142
3 96 143 97
3 142 143 96
3 92 97 135
3 135 97 143
3 146 145 144
3 144 147 146
3 150 149 148
3 150 148 145
3 145 148 144
3 148 99 144
3 99 100 144
3 151 147 144
3 100 151 144
3 101 151 100
3 152 101 103
3 152 151 101
3 153 103 105
3 153 152 103
3 155 154 107
3 154 105 107
3 154 153 105
3 157 156 155
3 155 156 154
3 157 158 156
3 161 160 159
3 161 159 149
3 149 159 148
3 159 109 148
3 109 110 148
3 148 110 99
3 111 155 107
3 155 111 112
3 155 112 157
3 163 162 114
3 114 162 112
3 162 158 112
3 158 157 112
3 163 164 162
3 159 160 165
3 165 160 166
3 165 116 109
3 165 109 159
3 117 163 114
3 117 119 163
3 119 164 163
3 119 167 164
3 165 166 168
3 168 166 169
3 168 121 116
3 168 116 165
3 122 167 119
3 122 170 167
3 168 169 171
3 171 169 172
3 171 124 121
3 171 121 168
3 125 174 173
3 170 125 173
3 122 125 170
3 172 175 171
3 175 177 176
3 175 176 126
3 171 175 126
3 124 171 126
3 176 128 126
3 129 174 125
3 177 178 176
3 178 180 179
3 178 179 131
3 176 178 131
3 128 176 131
3 179 133 131
3 182 181 134
3 182 134 135
3 180 183 179
3 179 183 133
3 183 136 133
3 183 184 136
3 136 185 137
3 184 185 136
3 139 137 185
3 139 185 186
3 141 187 142
3 142 187 188
3 189 142 188
3 143 142 189
3 135 143 182
3 182 143 189
3 192 191 190
3 145 146 190
3 146 192 190
3 146 193 192
3 195 194 147
3 194 146 147
3 194 193 146
3 197 196 195
3 195 196 194
3 199 198 197
3 197 198 196
3 201 200 199
3 199 200 198
3 201 202 200
3 205 204 203
3 205 203 191
3 191 203 190
3 203 149 190
3 149 150 190
3 190 150 145
3 151 195 147
3 195 151 152
3 195 152 197
3 197 152 153
3 197 153 199
3 199 153 154
3 199 154 201
3 206 202 201
3 154 206 201
3 156 206 154
3 156 158 206
3 206 158 207
3 210 209 208
3 210 208 204
3 204 208 203
3 208 160 203
3 160 161 203
3 203 161 149
3 211 207 158
3 211 158 162
3 162 164 211
3 211 164 212
3 208 209 213
3 213 209 214
3 213 166 160
3 213 160 208
3 167 212 164
3 167 215 212
3 213 214 216
3 216 214 217
3 216 169 166
3 216 166 213
3 170 215 167
3 170 218 215
3 217 219 216
3 169 216 219
3 220 169 219
3 172 169 220
3 221 218 170
3 221 170 173
3 220 222 172
3 172 222 175
3 177 175 222
3 177 222 223
3 223 224 177
3 177 224 178
3 180 178 224
3 180 224 225
3 227 226 181
3 227 181 182
3 225 228 180
3 180 228 183
3 183 229 184
3 228 229 183
3 184 230 185
3 229 230 184
3 186 185 230
3 186 230 231
3 234 233 232
3 189 188 232
3 233 189 232
3 235 189 233
3 182 189 227
3 227 189 235
3 238 237 236
3 240 239 236
3 236 239 238
3 242 241 240
3 240 241 239
3 244 243 242
3 242 243 241
3 246 245 244
3 244 245 243
3 246 247 245
3 250 249 248
3 250 248 237
3 237 248 236
3 248 191 236
3 191 192 236
3 236 192 193
3 236 193 240
3 240 193 194
3 240 194 242
3 242 194 196
3 242 196 244
3 244 196 198
3 244 198 246
3 251 247 246
3 198 251 246
3 200 251 198
3 200 202 251
3 251 202 252
3 255 254 253
3 255 253 249
3 249 253 248
3 253 204 248
3 204 205 248
3 248 205 191
3 256 252 202
3 256 202 206
3 206 207 256
3 256 207 257
3 253 254 210
3 254 209 210
3 254 258 209
3 253 210 204
3 259 257 207
3 259 207 211
3 211 212 259
3 259 212 260
3 258 214 209
3 261 214 258
3 215 260 212
3 215 262 260
3 264 217 263
3 217 261 263
3 217 214 261
3 265 264 263
3 218 267 266
3 262 218 266
3 215 218 262
3 264 219 217
3 220 219 264
3 265 220 264
3 268 220 265
3 221 267 218
3 268 269 220
3 220 269 222
3 223 222 269
3 223 269 270
3 273 272 271
3 270 274 223
3 223 274 224
3 225 224 274
3 225 274 275
3 278 277 276
3 276 277 273
3 276 273 271
3 227 276 271
3 226 227 271
3 275 279 225
3 225 279 228
3 228 280 229
3 279 280 228
3 229 281 230
3 280 281 229
3 283 282 231
3 230 283 231
3 281 283 230
3 285 284 282
3 285 282 283
3 233 234 284
3 285 233 284
3 286 233 285
3 276 235 278
3 235 286 278
3 235 233 286
3 235 276 227
3 289 288 287
3 287 290 289
3 293 292 291
3 237 238 291
3 238 293 291
3 238 294 293
3 239 287 288
3 294 239 288
3 238 239 294
3 295 290 287
3 239 295 287
3 241 295 239
3 296 241 243
3 296 295 241
3 297 243 245
3 297 296 243
3 245 247 297
3 297 247 298
3 301 300 299
3 301 299 292
3 292 299 291
3 299 249 291
3 249 250 291
3 291 250 237
3 302 298 247
3 302 247 251
3 304 303 252
3 303 251 252
3 303 302 251
3 304 305 303
3 299 300 255
3 300 254 255
3 300 306 254
3 299 255 249
3 256 304 252
3 308 307 257
3 257 307 256
3 307 305 256
3 305 304 256
3 308 309 307
3 306 258 254
3 310 258 306
3 259 308 257
3 259 260 308
3 260 309 308
3 260 311 309
3 310 261 258
3 312 261 310
3 262 311 260
3 262 313 311
3 312 314 261
3 261 314 263
3 265 263 314
3 265 314 315
3 316 313 262
3 316 262 266
3 318 268 317
3 268 315 317
3 268 265 315
3 319 318 317
3 322 321 320
3 318 269 268
3 270 269 318
3 319 270 318
3 323 270 319
3 322 320 272
3 273 322 272
3 324 322 273
3 323 325 270
3 270 325 274
3 275 274 325
3 275 325 326
3 329 328 327
3 277 278 327
3 328 277 327
3 330 277 328
3 273 277 324
3 324 277 330
3 326 331 275
3 275 331 279
3 279 332 280
3 331 332 279
3 280 333 281
3 332 333 280
3 281 334 283
3 333 334 281
3 283 335 285
3 334 335 283
3 327 286 329
3 286 335 329
3 286 285 335
3 286 327 278
3 338 337 336
3 288 289 336
3 289 338 336
3 289 339 338
3 341 340 290
3 340 289 290
3 340 339 289
3 341 342 340
3 344 343 293
3 293 343 292
3 294 336 337
3 344 294 337
3 293 294 344
3 336 294 288
3 295 341 290
3 345 342 341
3 295 345 341
3 296 345 295
3 346 296 297
3 346 345 296
3 297 298 346
3 346 298 347
3 349 348 301
3 301 348 300
3 301 292 343
3 301 343 349
3 350 347 298
3 350 298 302
3 351 302 303
3 351 350 302
3 303 305 351
3 351 305 352
3 348 306 300
3 353 306 348
3 354 352 305
3 354 305 307
3 307 309 354
3 354 309 355
3 353 310 306
3 356 310 353
3 311 355 309
3 311 357 355
3 356 312 310
3 358 312 356
3 313 357 311
3 313 359 357
3 358 360 312
3 312 360 314
3 315 314 360
3 315 360 361
3 313 316 362
3 363 313 362
3 359 313 363
3 361 364 315
3 315 364 317
3 319 317 364
3 319 364 365
3 363 362 321
3 322 363 321
3 366 363 322
3 368 323 367
3 323 365 367
3 323 319 365
3 369 368 367
3 372 371 370
3 371 366 370
3 366 324 370
3 366 322 324
3 368 325 323
3 374 373 326
3 374 326 325
3 369 374 325
3 368 369 325
3 376 375 373
3 376 373 374
3 378 377 375
3 378 375 376
3 380 379 377
3 380 377 378
3 382 381 379
3 382 379 380
3 328 329 381
3 382 328 381
3 383 328 382
3 370 330 372
3 330 383 372
3 330 328 383
3 330 370 324
3 373 331 326
3 331 373 332
3 332 373 375
3 332 375 333
3 333 375 377
3 333 377 334
3 334 377 379
3 334 379 335
3 335 379 381
3 335 381 329
3 386 385 384
3 384 387 386
3 384 385 388
3 388 385 389
3 387 384 390
3 390 384 388
3 392 391 338
3 338 391 337
3 339 388 389
3 392 339 389
3 338 339 392
3 393 390 388
3 339 393 388
3 340 393 339
3 395 394 342
3 394 340 342
3 394 393 340
3 395 396 394
3 398 397 344
3 344 397 343
3 344 337 391
3 344 391 398
3 345 395 342
3 399 396 395
3 345 399 395
3 346 399 345
3 401 400 347
3 400 346 347
3 400 399 346
3 401 402 400
3 404 403 349
3 349 403 348
3 349 343 397
3 349 397 404
3 350 401 347
3 405 402 401
3 350 405 401
3 351 405 350
3 351 352 405
3 405 352 406
3 403 353 348
3 407 353 403
3 408 406 352
3 408 352 354
3 354 355 408
3 408 355 409
3 407 356 353
3 410 356 407
3 357 409 355
3 357 411 409
3 413 358 412
3 358 410 412
3 358 356 410
3 414 413 412
3 359 411 357
3 359 415 411
3 413 360 358
3 417 416 361
3 417 361 360
3 414 417 360
3 413 414 360
3 418 416 417
3 421 420 419
3 420 415 419
3 415 363 419
3 415 359 363
3 416 364 361
3 423 422 365
3 423 365 364
3 418 423 364
3 416 418 364
3 424 422 423
3 421 419 425
3 421 425 426
3 366 425 363
3 363 425 419
3 422 367 365
3 428 427 369
3 428 369 367
3 424 428 367
3 422 424 367
3 429 427 428
3 432 431 430
3 434 433 430
3 434 430 431
3 433 434 426
3 433 426 425
3 372 433 425
3 371 372 425
3 371 425 366
3 427 374 369
3 429 435 427
3 435 374 427
3 435 376 374
3 376 436 378
3 435 436 376
3 378 437 380
3 436 437 378
3 430 382 432
3 382 437 432
3 382 380 437
3 382 430 383
3 383 430 433
3 383 433 372
3 439 438 386
3 386 438 385
3 386 387 439
3 439 387 440
3 438 389 385
3 441 389 438
3 390 443 442
3 440 390 442
3 387 390 440
3 443 444 442
3 446 445 392
3 392 445 391
3 392 389 441
3 392 441 446
3 393 443 390
3 447 444 443
3 393 447 443
3 394 447 393
3 449 448 396
3 448 394 396
3 448 447 394
3 449 450 448
3 452 451 398
3 398 451 397
3 398 391 445
3 398 445 452
3 399 449 396
3 453 450 449
3 399 453 449
3 400 453 399
3 400 402 453
3 453 402 454
3 455 403 404
3 456 455 404
3 397 456 404
3 451 456 397
3 457 454 402
3 457 402 405
3 405 406 457
3 457 406 458
3 459 407 455
3 455 407 403
3 455 456 460
3 455 460 459
3 406 408 461
3 462 406 461
3 458 406 462
3 409 461 408
3 463 410 459
3 459 410 407
3 459 460 464
3 459 464 463
3 462 461 465
3 462 465 466
3 411 465 409
3 409 465 461
3 463 412 410
3 468 467 414
3 468 414 412
3 464 468 412
3 463 464 412
3 470 469 467
3 470 467 468
3 471 469 470
3 466 465 472
3 466 472 473
3 415 472 411
3 411 472 465
3 467 417 414
3 417 467 418
3 467 474 418
3 467 469 474
3 469 471 475
3 469 475 474
3 478 477 476
3 476 477 473
3 476 473 472
3 421 476 472
3 420 421 472
3 420 472 415
3 474 423 418
3 480 479 424
3 480 424 423
3 475 480 423
3 474 475 423
3 481 479 480
3 484 483 482
3 482 483 478
3 476 482 478
3 485 482 476
3 426 485 421
3 421 485 476
3 479 428 424
3 487 486 429
3 487 429 428
3 481 487 428
3 479 481 428
3 489 488 486
3 489 486 487
3 491 490 488
3 491 488 489
3 490 491 484
3 490 484 482
3 432 490 482
3 431 432 482
3 431 482 434
3 434 482 485
3 434 485 426
3 486 435 429
3 435 486 436
3 436 486 488
3 436 488 437
3 437 488 490
3 437 490 432
3 492 438 439
3 440 492 439
3 493 441 492
3 492 441 438
3 493 492 440
3 494 493 440
3 442 494 440
3 495 493 494
3 442 444 494
3 494 444 496
3 497 445 446
3 498 497 446
3 498 446 441
3 499 498 441
3 493 499 441
3 499 493 495
3 500 496 444
3 500 444 447
3 501 447 448
3 501 500 447
3 448 450 501
3 501 450 502
3 503 451 452
3 504 503 452
3 504 452 445
3 505 504 445
3 497 505 445
3 505 497 498
3 506 502 450
3 506 450 453
3 453 454 506
3 506 454 507
3 508 456 503
3 503 456 451
3 503 504 509
3 503 509 508
3 454 457 510
3 511 454 510
3 507 454 511
3 458 510 457
3 512 460 508
3 508 460 456
3 508 509 513
3 508 513 512
3 511 510 514
3 511 514 515
3 462 514 458
3 458 514 510
3 516 464 512
3 512 464 460
3 512 513 517
3 518 512 517
3 516 512 518
3 519 518 517
3 515 514 520
3 515 520 521
3 466 520 462
3 462 520 514
3 516 468 464
3 468 516 470
3 470 516 518
3 523 522 471
3 523 471 470
3 519 523 470
3 518 519 470
3 524 522 523
3 527 526 525
3 525 526 521
3 520 525 521
3 528 525 520
3 473 528 466
3 466 528 520
3 529 475 522
3 522 475 471
3 522 524 530
3 522 530 529
3 533 532 531
3 531 532 527
3 525 531 527
3 534 531 525
3 478 534 477
3 534 528 477
3 534 525 528
3 477 528 473
3 529 480 475
3 536 535 481
3 536 481 480
3 530 536 480
3 529 530 480
3 538 537 535
3 538 535 536
3 537 538 533
3 531 537 533
3 539 537 531
3 484 539 483
3 539 534 483
3 539 531 534
3 483 534 478
3 535 487 481
3 487 535 489
3 489 535 537
3 489 537 491
3 491 537 539
3 491 539 484
3 540 495 494
3 496 540 494
3 541 498 499
3 542 541 499
3 542 499 495
3 543 542 495
3 540 543 495
3 543 540 496
3 500 543 496
3 544 543 500
3 545 500 501
3 545 544 500
3 501 502 545
3 545 502 546
3 547 504 505
3 498 541 505
3 541 547 505
3 541 548 547
3 541 542 549
3 541 549 548
3 502 506 550
3 551 502 550
3 546 502 551
3 507 550 506
3 552 509 547
3 547 509 504
3 548 554 553
3 552 548 553
3 547 548 552
3 554 548 549
3 551 550 555
3 551 555 556
3 511 555 507
3 507 555 550
3 557 513 552
3 552 513 509
3 552 553 558
3 559 552 558
3 557 552 559
3 561 560 559
3 561 559 558
3 562 560 561
3 556 555 563
3 556 563 564
3 515 563 511
3 511 563 555
3 557 517 513
3 517 557 519
3 557 565 519
3 557 559 565
3 566 559 560
3 565 559 566
3 560 562 567
3 560 567 566
3 564 563 568
3 564 568 569
3 521 568 515
3 515 568 563
3 565 523 519
3 523 565 524
3 565 570 524
3 565 566 570
3 566 567 571
3 572 566 571
3 570 566 572
3 574 573 572
3 574 572 571
3 573 574 569
3 573 569 568
3 527 573 568
3 526 527 568
3 526 568 521
3 575 530 570
3 570 530 524
3 576 570 572
3 575 570 576
3 533 576 532
3 576 573 532
3 576 572 573
3 532 573 527
3 575 536 530
3 536 575 538
3 538 575 576
3 538 576 533