OFF
877 1702 0
1.1238757354 5.1821745755 9.7473427627
1.4135365239 4.8860138573 9.0218305652
1.3827179073 4.5551739967 9.5521788481
1.3993497909 4.3948096100 10.2051325330
1.1151431660 5.0374503392 10.7986245186
1.4601972679 4.2582934438 11.2602265451
1.2077672958 4.9640064369 11.8432459283
1.6687057223 4.1731551759 12.4703282790
1.3482004235 5.0843543382 12.7820217588
1.6264077209 4.6672900601 13.3181478944
1.1751699799 5.8075929670 8.9314988772
1.5700291136 5.9580048386 8.1206789126
1.4455422402 5.3163989723 8.5205465179
0.9656605468 6.0199573172 9.6624240111
0.9684491105 5.8906076373 10.4330276783
1.0485159879 5.8016304459 11.4368524896
1.1626711183 5.6523136094 12.3012319748
1.5523640476 5.2658817017 13.5262154029
1.4465521171 5.9565517649 13.1430993029
1.8827891839 5.8446649326 14.1148001881
1.2378175860 6.7228994466 8.6025355522
1.5343740760 6.9341242690 8.0639840778
1.0458523999 6.6898215782 9.3552474270
0.9773611078 6.5873039076 10.0790747412
1.1532774071 6.8211589588 11.0180561598
1.2980202175 6.5521186290 12.2207155498
1.7487805285 6.8708831142 13.1633570538
1.8285575582 6.4706155915 13.7136531058
1.3840121328 7.3939995073 8.4588983366
1.2410987380 7.4355882228 9.0776578097
1.5212875936 7.9229993302 8.7469209635
1.2419548587 7.4540409816 10.0377992300
1.6773705699 7.9244240064 11.0860081473
1.5386627685 7.4286419327 11.8305454713
1.6810927596 7.2828936734 12.5229153726
1.5556619486 8.1491388528 9.4596517881
1.6845622570 8.2737843038 10.2550664657
1.8409534376 4.0176603865 9.4617843862
2.3762751621 3.7650163358 8.7741036188
2.3793373686 3.4176515874 9.4039655136
2.3942626058 3.2314030244 10.1194687301
1.8558561281 3.6999202956 10.6351949029
2.4080927391 3.0919204148 11.2084026452
1.9208204037 3.6008667731 11.6797790227
2.4042809539 3.1413766203 12.1942947238
2.0173423459 3.5563203549 12.3244179396
2.2540703571 3.4867953024 12.9330433811
1.8984859016 4.7363639477 8.3435658932
2.4408550459 4.6044331176 7.6863330635
2.3747075929 4.1522836983 8.1797455289
2.0342928063 4.0858328948 13.5769884968
1.9196662422 4.8735183509 14.1729405151
2.4312374565 4.0941716045 14.6065206098
2.3341767254 4.8289189251 15.1237056852
2.9287529590 4.1552992660 15.7158903186
2.6533838136 4.9556096162 15.7683488859
3.0962766231 4.8100150169 16.2595604775
2.1428623122 5.4932997214 7.5277060483
2.7160766611 5.8336140989 6.8237999532
2.5293657019 5.1244323410 7.2150854660
2.1246233013 5.4390130841 14.8001158478
2.4592838639 5.4856413842 15.4317607620
2.9131539278 5.4607943826 15.9770284193
2.0774504568 6.7309622549 7.4345873172
2.9161040299 7.2184443229 6.6317016811
2.0241641512 6.8632903500 13.7239538372
2.4393599935 6.7453487054 14.2640212430
2.4497413115 6.1221636397 14.9685166842
2.8039852993 5.9642544151 15.5977953577
2.3740257355 7.8280147814 7.3324681459
2.8966643614 8.1401015578 6.9272281755
1.8116150485 7.7455472362 8.0612063551
1.8838209235 7.9669174930 11.7736945020
2.0383208082 7.8533463447 12.3095091445
2.1710479011 7.5655750882 12.9967002391
2.3371073960 7.2528918835 13.6236264209
2.6525305151 8.4847419272 7.3740605379
2.3089093552 8.5122782852 7.9261304917
2.8089186674 9.0375381012 7.7860239109
2.0244402551 8.6033766841 8.8186574142
2.1086409042 8.8338686618 9.8636813080
2.2226195677 8.7299015282 10.8050643419
2.5546762901 8.5264282882 11.8569625824
2.7698864856 8.1381175588 12.8182349403
2.5596135017 9.1230915095 8.4354631444
2.7717155804 9.5293652550 9.3555771813
2.7592270035 9.3842785949 10.4509906588
3.0493744850 2.9654904407 9.3847580388
3.4944588665 2.9632860176 8.5089249535
4.1673236559 2.3775307503 9.1471334079
3.8897226677 2.2396447717 10.4029941334
3.0625574736 2.6484279161 10.7614333914
3.8187507687 2.1685102509 11.6082305186
3.0477036047 2.6183985274 11.9299972086
3.8058807339 2.2227209452 12.7677523451
3.0064223497 2.8082902608 13.1098817279
3.8403034194 2.3386027565 13.8578133036
3.3018982575 2.8105959528 14.2440794849
3.8567469199 2.4597078475 14.6276213655
2.9320635491 3.6836636969 8.1091210640
3.4955983629 3.6367291820 7.4823983326
3.4598719124 3.2359226386 8.0018549741
2.6450134965 3.4035216007 13.9139568269
3.6066789489 2.7752140699 14.9906939910
3.1047769247 3.3555299631 15.0144550541
3.8618852790 2.9790493852 15.7588997429
3.3188936239 3.4973326972 15.7339572299
3.6021595383 3.6151147778 16.2437558724
3.0404356523 4.5754811793 7.0897950403
3.6592680179 4.4543137330 6.5184660115
3.5484005244 4.0495465518 6.9663319838
3.4836226699 4.2105443339 16.5127417489
3.6020723195 4.7109254026 16.6597336997
4.0911096020 4.2524789236 16.8727504017
3.3753728229 5.3046844611 6.2977539647
3.9083969359 5.6432231035 5.6799751940
3.8955785519 4.9139308873 5.9783116506
4.1987446154 4.9072968782 16.7210816874
3.5133070025 5.3076226330 16.3956344626
3.3883358368 6.3180859645 6.0591106949
4.0553065717 6.5221697675 5.4394198568
2.8140598888 6.6373493014 14.8863628859
3.0897120144 6.4569543627 15.3343291774
3.4473842152 6.0274800648 15.9266548458
3.7362955781 7.2831881484 5.8693286326
3.6485099842 8.3435648517 6.4114041552
2.7720937248 7.7544909709 13.4096056172
3.1442317688 7.4645609557 13.9983287578
3.4411761097 6.9831498654 14.7874973471
3.8257925657 6.5861242460 15.4852104906
3.1454287950 8.8095783718 7.1615048542
3.2981137932 9.4337850584 7.6502857427
2.8878300469 9.1878484739 11.2561242501
3.6124534446 9.3933042491 11.9788788925
3.7135873926 8.7956889431 12.7599100365
3.5892498149 8.1050981553 13.4824651188
3.1174429016 9.6961232407 8.4094692602
3.2454661388 10.0612264977 9.0642957285
3.5369545706 10.2917408026 8.7380104051
3.3170772226 10.1589358795 9.5645052841
3.3262083285 10.0269555994 10.2154703430
3.4493335619 9.8060438071 11.1015528347
3.5698625731 10.4386029679 9.2562800525
4.0476856888 2.9286022365 7.9528915661
4.7598278368 2.8582818338 7.3997489755
5.0775660637 2.2774369894 8.2801713419
5.1162529224 1.8978756056 9.3191134034
4.8114567346 1.8480790325 10.2166923081
4.6713180427 1.8049016054 11.3349416005
4.6414139128 1.8189105890 12.4895346275
4.6662561438 1.9170851416 13.6515675813
4.5974787917 2.1467857425 14.7827476202
4.1193778970 2.4905358042 15.2707875528
4.6464060288 2.3385011219 15.5832528155
4.3282498528 2.5566095140 15.7406664017
4.7653145337 2.6317919355 16.1602526456
4.1520441856 3.6186319490 6.8911736444
4.6237745393 3.8187786985 6.2305502157
5.1581883119 3.2292115282 6.5834916242
4.3265277579 3.2382299742 16.5296532913
3.9943691798 3.7725464215 16.7298618806
4.6758014191 3.6458810615 16.9367341532
4.2136595829 4.2903299127 6.1350860755
4.5701502399 4.8357480009 5.5287940769
4.6067500109 4.1961356840 5.8829129530
4.9088435005 4.2624034964 16.9568367642
4.5074080755 5.8581195669 5.1527404355
5.1689196989 5.0461766334 16.5314314409
4.2341223986 5.7073065092 16.2673159173
4.6166385770 6.5788245517 4.9891992236
5.2269233400 6.9597540643 4.6440638147
5.0223402764 6.1360698989 4.7653880634
4.0755624489 6.2500905499 15.9116655270
4.4480084128 6.1374929244 15.9729480585
4.5050101120 6.4370696805 15.6308693056
4.4784956205 7.3525361305 5.2426485192
4.1652843626 7.9325864093 5.7240778922
4.3680809213 8.5794084766 5.8302950017
4.4953194809 6.9060603603 15.0369807710
4.4214286755 7.6306589204 14.2408535162
3.7373620883 9.4057312482 7.0914872750
4.3692203149 9.4769443025 6.3444923707
4.1126452133 9.3450512291 12.5591140230
4.6653359303 9.3555351556 12.9747961130
4.8171140193 8.6157591232 13.5407701511
4.2284465394 10.2361717133 7.1912743935
4.6158891072 10.4675214270 6.7002429746
3.7508735925 10.1553319551 7.9819563152
3.7480422339 10.5763499893 9.8597747666
3.9994637702 10.5789563284 10.8202715422
4.1794229567 10.2258091544 11.7278784994
4.4804968018 9.8654383710 12.4517761141
4.5602161087 10.9240308227 7.2510036775
4.3118691162 10.9481081870 7.9384120270
4.6950641355 11.5195718906 7.7121945803
4.0416467746 10.9338304906 9.0304056314
4.2529177493 11.1839732475 10.1820798662
4.4832600929 11.2719655674 10.9780941107
4.5270911454 10.9452080909 11.5266371071
4.5998184288 11.7723058247 8.6249567728
4.5681886244 11.8712342408 9.7579428125
4.6429567122 11.7862577400 10.6573070356
5.5658242440 2.5416111425 7.3213808446
6.1610074749 2.0690184474 7.9244630709
6.0439630650 1.6973931146 8.9721124998
5.7174376524 1.5431028396 10.0300219617
5.5449881024 1.4956637673 11.0811792686
5.4871099631 1.4961900703 12.1958725434
5.5185093168 1.5538738768 13.3419053717
5.6957829315 1.7244394238 14.5954027027
5.4683167460 2.1639868881 15.7238613070
5.5437152718 2.5278149319 16.4790389813
5.1467756489 3.9510801613 5.7798597026
5.8618547886 3.9429248737 5.3940829244
5.9651632818 3.3924705400 5.9494198027
6.1201778513 2.7966591099 6.6346719797
5.1623902790 3.0038275660 16.7713934217
5.6659856844 3.4637426087 17.0181408947
5.4375602681 4.5435716779 5.1519724557
5.8138694384 5.0110848280 4.7272607453
6.2239904493 4.3742651549 4.9479387591
5.8213955405 4.2151498169 16.9235201365
5.1575454781 5.3677741624 4.8988124012
5.7961511448 5.8968699092 4.4708407045
5.0159521358 5.9258267494 15.8966193329
5.9855031568 5.4462434700 15.8530535299
5.6375168923 6.0255438496 15.4802395805
6.1988083760 4.6819164165 16.5142855603
6.1002757870 6.8974764405 4.1233735968
5.1846895339 6.4666533752 15.3014859593
5.8203658565 6.3556793183 15.0856630251
5.5993569806 7.0234602522 14.6679642354
5.0708838982 7.9957932720 4.9209654321
5.6736952545 7.8320858562 4.3562543636
4.6220086968 8.1743246676 5.3959012965
5.9001439872 8.0564132633 14.0503887941
5.4295393691 8.5679166768 4.6854648723
4.9833837583 9.0599691213 5.3376974963
5.5175882901 9.2133943301 4.6605461943
5.9038503098 8.8684870615 13.7416286850
5.5477075163 9.4260493623 13.4360340474
5.9186156202 10.3482342254 4.0368925107
6.3021932655 10.2748944032 3.3919693929
6.1933469929 9.7445095767 3.6109604279
5.8574972991 9.5290817051 4.1612330085
5.4602200899 10.1578849010 4.9289833867
4.9550647224 10.3097070191 5.9724276131
4.9665492152 10.8337859568 12.3516844861
5.3028207241 10.1248791185 13.0198631132
6.2184631240 11.0802427344 3.6191203707
5.7845098631 11.2552802568 4.6355797092
6.1139026862 11.7098413198 4.1184872930
5.3848650412 11.2870736349 5.7360261486
4.9638184225 11.3623228288 6.8474074664
4.9409909216 11.8798339423 11.7046148697
5.3952572903 11.7677204022 12.7219364644
5.8377501262 11.1407404261 13.3041872043
6.0232741818 11.9989108935 4.6636824396
5.8185378790 12.0730125842 5.4188640299
6.2705956352 12.4791414167 4.9967118469
5.5839492980 12.4265165543 6.6492712912
5.0874669644 12.4599307251 8.0333783921
4.9266094742 12.7337616509 9.4428114942
4.9280343157 12.7079377069 10.7663001093
5.1321635094 13.0206163395 11.9221531448
5.3891838678 12.8080796982 12.8689209704
5.8142028857 12.2416223843 13.4986549083
6.2712298154 12.7973706955 5.8339607776
6.2035561452 13.2688458887 6.8251502988
5.7308316138 13.5346105624 7.9054592041
6.2897545390 13.7606619815 7.4501832864
5.3018594450 13.6928631378 9.1974450531
5.1336850282 13.7976227990 10.4549833567
5.1437055245 13.8748642587 11.6553187125
5.2735417975 13.9039513692 12.7858867557
5.7060501304 13.0429575254 13.7594974065
5.5146570849 13.8732084804 13.9165232385
5.8065929183 13.4585931690 14.3597567204
6.2713349664 14.2779088105 8.1468650062
5.7725125682 14.6930984970 9.1457569607
6.4612625336 15.0586905417 8.8374326641
5.3759122605 14.8270784551 10.3111993293
5.2312111408 14.9098150241 11.4963275545
5.2329748883 14.9470986100 12.6654583220
5.3318013061 14.9517873392 13.8444312293
5.7443081443 14.0125112885 14.8427540938
5.5291636103 14.9196779909 15.1323150042
5.9450951802 14.2675860029 15.8139657459
5.7103737318 15.1899392477 16.5406132030
6.3398785677 14.4033554211 17.1780947580
5.8726581400 15.3399590991 17.6982871512
6.2723027514 14.8892409685 18.1204559056
5.9850079176 15.5023468310 9.4943808356
5.6826919833 15.8103112821 10.2329044166
5.9617734132 15.9622192060 9.8450528112
5.3910673263 15.9506702237 11.3829417496
5.2901569032 16.0015147344 12.5427193102
5.2991997149 16.0163419248 13.7117064617
5.3628741378 16.0166212125 14.9107482285
5.4526278927 16.0626367445 16.1481285578
5.5700202364 16.1240704599 17.3644209788
6.0784063876 15.3634743067 18.5234577733
5.7994984277 16.0951864360 18.5693050515
6.3699916182 15.5594153856 19.4233996677
6.0230286533 16.3724517971 19.6295387925
6.3917522478 15.9966119617 20.1053578245
6.0682192566 16.5570126066 10.2131276269
5.6391545318 16.9727743299 11.2645490497
6.0209091691 17.4777718724 10.8100416807
5.4405773655 16.9904941682 12.3799424672
5.4276186863 17.0237557297 13.5296478499
5.4485379591 17.0049414123 14.7065147448
5.4776458113 16.9936167016 15.8849462754
5.5280793701 16.9891898279 17.0574477784
5.6297751447 16.9511512599 18.1916097720
5.7771012030 16.8752851838 19.1040588541
6.3257584803 16.4737078895 20.3914272834
6.0723921186 17.1446664724 19.9123334935
6.3384912765 17.0346598519 20.5433212875
5.7384074123 17.9045835788 11.5507429834
6.0067302788 18.0741832786 11.1029108112
5.5800124944 17.7023770521 12.1697923354
5.7111368670 17.9290422680 13.2313992116
5.7805080681 17.8618992565 14.4645885943
5.7806296448 17.8059589388 15.6272240842
5.7880924054 17.7693162426 16.7754195706
5.8253309891 17.7151119831 17.9026154523
5.9347162049 17.6065705263 19.0298053160
6.2571147666 17.7628401137 19.7932398168
6.5537051706 17.5900597993 20.3814762233
5.8418164879 18.3286307197 11.5479044288
5.7369164851 18.2554718660 12.2826236916
5.8570690190 18.4393534673 11.6490773350
6.1237067049 18.4873014991 13.4218695272
6.4420457648 18.5340773140 14.2683795970
6.3745097081 18.4120041031 15.3775557957
6.3415400242 18.3475597515 16.5007980693
6.3314235332 18.2861148046 17.6032839257
6.3379406760 18.1862921389 18.6235124407
6.3801646729 18.0772606546 19.3760664081
6.6042473329 1.3096820108 9.8690978565
6.9285117053 1.4133478519 9.1727521710
7.4620093209 1.1981210146 9.8062184273
7.2514280251 1.0804545258 10.6770855532
6.4034045292 1.2385274832 10.8403475886
7.1039063587 1.0425442236 11.6505331086
6.3100439473 1.2268542685 11.8987612980
7.0498225340 1.0751182364 12.6762192044
6.2922761803 1.2629742916 12.9825947836
7.0124156506 1.1573765755 13.6818963120
6.3513580706 1.3493618516 14.0069686080
6.9573769465 1.2700461270 14.4237460353
6.5909125878 1.4705995474 14.7788204958
7.2305765447 1.4767036442 14.9858923201
6.3422673299 2.3633398604 7.2054668716
6.8357692107 2.5298819908 6.8071363789
7.1558105652 2.1415301676 7.5155881932
6.9843092772 1.7136108163 8.4454884077
6.6288123223 1.8690600509 15.5485642486
6.2477443494 2.3706276041 16.3996514960
5.8768445001 2.7927519937 16.8252556946
6.5093100658 2.8943281367 16.8315440734
6.6239645618 3.7228175540 5.4055276678
6.9898108736 3.0491414109 6.1321340071
6.5640011398 3.6165164945 16.9606491860
6.5508448332 5.0488129561 4.5244023243
7.1057930389 4.2898990016 4.8928035653
6.4553970814 4.1583067935 16.8708684243
6.8007568497 3.9410156099 16.8694818087
6.8569470827 4.2654472047 16.5743459729
6.8719453190 5.9870886034 4.0820669631
6.1516289339 5.9467323616 15.2720615295
6.7876964516 5.6309422733 15.2131722041
6.4643427143 6.3815600145 14.7957076045
6.9434155485 4.8409121615 15.8911216246
6.7698358233 6.9249836578 3.7469541527
7.1134648175 7.4039827378 3.4140595332
7.4996115000 6.6305978865 3.6237763365
6.8565894189 7.3334165747 14.2133699125
6.4015980405 7.8532621702 3.7511389649
7.1167247214 8.3526221838 3.0822486316
6.7768795374 8.0925938701 14.0026408002
7.0788704736 7.9620946770 13.9887016902
6.9749076100 8.1409764362 13.9521669823
6.3378687210 8.9583576735 3.6052861836
6.7549197078 9.6046449135 2.9954107838
5.8626563838 8.6722670619 4.1905004625
6.2987501898 9.4239893142 13.7126636382
6.9444472079 8.3175740925 13.9426893130
6.9160256189 8.8255241786 13.9241930249
6.6946732470 10.6147377098 2.8839352593
6.8119112667 9.8103991256 13.8590497742
6.2114733886 10.1949330469 13.5867090887
6.7746231063 11.5223266411 2.9150319050
7.4896133109 11.6968665734 2.3180846495
7.1601645342 11.0015608083 2.3860616520
6.4120486736 11.7931141153 3.5902476993
6.5777324532 10.9770602464 13.8717358272
6.5074418726 11.8866663136 14.2149691342
7.3282235533 11.1699732130 14.4001596911
7.1125933473 12.0983386895 2.7504156406
7.5445976208 12.3059743859 2.6173584338
6.8208357592 12.2216226765 3.3046398937
6.5009001377 12.3278317277 4.1660669118
6.0813133355 12.8217711918 14.3262762058
7.2982175903 12.0577424397 15.0797657171
6.6650862765 12.7657081530 15.2272570495
7.2852013201 12.5570215862 15.7320427404
7.2886592100 12.5020696106 3.0159924098
7.2598290354 12.8199329194 3.7106432212
7.0796238593 13.0001515414 4.9009085254
7.0371255539 13.3259069214 6.2333448590
6.6682943511 13.6227083510 6.9675682267
7.1841421035 13.6770176540 6.9372496922
6.1001703120 13.4908157659 15.1023825242
7.0493504810 12.9664363400 16.0990654700
6.5613611738 13.5569562530 16.1919632958
7.3804509845 13.2592897371 16.9649903178
6.8011187649 13.7594570137 17.0154611788
7.1480597609 13.8688055339 17.7019927863
6.8679398602 14.0091038215 7.5268525142
6.8381981125 14.5091064976 8.1599256992
7.2072556120 14.8601830367 8.5022406777
6.9316128237 14.4288279231 18.4176018989
6.5107826958 14.9901340342 18.8609840667
7.0913343500 14.7525993079 19.2903075195
6.6986670991 15.0782484214 19.3696014384
7.0262496967 15.1141659778 19.7996256980
6.3440171551 15.8707478344 9.5048270167
7.1395867811 15.5786596892 9.0867732655
7.0105315630 15.5606223054 20.3099316518
6.5846747686 16.0220179516 20.4625452781
6.8132737339 16.0610783473 20.6970059795
6.7333569079 16.4235497655 9.6998160726
6.4698946460 17.1099075737 10.2076939670
7.2024065306 17.0216255492 9.8931480063
6.5573382406 16.5932532277 20.7649865053
6.5576140799 17.2465355907 20.7126641778
6.5473800410 17.7987775210 10.5069650986
7.4072662641 17.7886834798 10.1385612675
7.3238147376 17.9396754724 20.4115914005
6.7971293142 18.0524539664 19.9253040766
7.0268793258 17.6837044355 20.6559126123
6.9074829355 18.1407209933 10.4456386213
7.7252789494 18.1661361766 10.1955562299
6.1751324832 18.2932523123 11.0544240257
7.4900446022 18.8721269180 14.3938020755
6.9221630062 18.7992614281 13.9620311224
7.2424268660 18.7620499484 15.2114401957
7.1478651503 18.6852000411 16.2701436466
7.1041258414 18.6183626056 17.3603177924
7.0561049029 18.5134465887 18.3897921445
6.9676708887 18.3380733274 19.2683761619
7.6891507587 1.4371657338 9.0615926084
8.2942196599 1.2933195125 9.8053780146
8.0896472239 1.1019842951 10.6153291445
7.8960617731 1.0242138572 11.5498741466
7.6846133128 1.0144715041 12.3792235695
7.8024754353 1.1480799552 13.4178003421
7.5146155725 1.2619544871 14.3672636753
7.7151404906 1.4791569379 14.8814506781
7.6160045564 2.5629075830 6.7848243321
8.1485476971 2.2827521621 7.4409484132
8.0563102364 1.8593320839 8.3259557100
7.7582168990 1.9714831475 15.4017081986
7.1007354899 2.4120771759 16.2897793738
7.2186795267 3.0587246300 16.6738008841
7.5928855951 3.6446747714 5.4777149200
8.1417599811 3.0964462479 6.2351069448
7.2281611396 3.7079443973 16.6594411489
7.6848017363 3.2901180966 16.4021580027
7.7189647265 3.7101111285 16.2482133342
7.5118483091 5.0111446729 4.4595905354
8.0231394712 4.2972410427 4.9794770387
7.4140953200 4.1801941039 16.1907200461
7.8673736694 4.0217605617 15.8325879279
7.6423118124 4.5001007585 15.6348901093
7.9546875753 5.7747424783 4.0710768130
7.6018871338 5.1178065884 15.0758602829
7.4762213078 6.1493400615 14.4544503117
7.9379531833 7.4473894970 3.1180987293
8.4690765336 6.5433623622 3.6628797111
7.8397057131 7.0810964359 13.9512832851
8.2810396766 6.3484843094 13.8851657811
8.6047342054 7.1719017583 13.5718132851
7.8725724975 8.2604592468 2.6412927893
8.2764131925 8.6208454250 2.3014199510
8.5685429059 7.9983366287 2.6272068084
7.1176458189 8.2534360715 13.9330413337
8.1331648898 7.5411867685 13.7680822734
7.6746018352 8.0806791057 13.9003924377
7.6365355851 9.1602982306 2.3869124909
8.4270352188 9.2926629030 1.9633848859
8.0526291296 9.2464388643 13.9558309456
7.9894008833 10.0022065765 1.8640129391
8.3468656761 10.5115067152 1.5658727444
8.6432482063 9.9966603119 1.6207535487
7.2967754715 10.2094026946 2.3269905872
6.9255398879 10.4635494382 13.9574456233
7.5750363461 10.1097175242 14.1192520251
7.8321389283 10.8877322540 1.8918135677
8.5565771349 11.0351925894 1.5788052980
8.2658276485 10.9461243488 14.5500733159
8.2919985472 11.5857244913 1.9525543300
8.0944837548 12.1812520198 2.4024562927
8.1048169026 11.6599837896 15.0895047004
8.0090542151 12.3011564054 15.8907126039
7.5728215435 12.7414129708 16.3821562137
8.0992753318 12.6506728285 16.6308089946
7.8183180450 12.8683207239 16.8459000800
8.3318321575 12.9786169441 17.2434627812
7.9972365509 12.7428950690 3.0816504277
7.7950623226 13.1772204351 3.6471628470
8.1514641655 13.2009633309 3.6216318501
7.6444774420 13.2746975516 4.1646867191
7.8219454694 13.3238617597 4.6815293896
8.1425189316 13.2320236382 5.4840556661
7.5136667481 13.8721872653 7.3089253354
7.9572085826 13.5333609659 6.7774757187
8.0269454530 13.8759976494 7.4813519134
8.0723729812 13.5378110944 18.0464655797
7.6219987739 13.9690497718 18.4758891796
8.2018044607 13.8821840574 18.8233473332
7.9892795349 13.3753707636 3.9174149315
8.0129046311 13.4146194762 4.2719246057
7.5558509177 14.2919981260 7.9196536438
8.1299390113 14.8299804849 8.6258017296
7.8434737033 14.3049237131 19.2011403775
7.7145778714 14.7857968366 19.8672947913
7.4524335790 15.1141550035 20.1852797569
8.0778458009 15.1092073923 20.3991920304
7.8573427198 15.6946011365 9.1745740941
7.3744751879 16.2262820239 9.4517299210
7.9930831722 16.3267855637 9.5539666096
7.5834066828 15.6241836786 20.7113899328
6.9756717071 16.0934061920 20.8577003551
8.0782595029 17.1404079909 9.9089939313
8.2362574115 17.8824564448 10.1311481502
8.2510265006 18.0257469274 20.3591427409
7.6242452490 18.2286566927 19.8913157587
7.8493856462 17.8814544799 20.6193393854
8.5333645158 18.3599539406 10.2800455865
8.5026335854 18.8925057575 14.1904097930
7.9016069544 18.9375151358 13.9695939680
8.2402629915 18.8532821766 15.0497743673
8.0994024588 18.7947040810 16.0659203665
8.0329537283 18.7331611954 17.1478381972
7.9677733452 18.6364113308 18.1979356728
7.8433365482 18.4700482889 19.1359106201
8.4566455375 1.5700609957 9.1589310185
9.1254713839 1.6465565254 9.8847396731
8.8665674312 1.3331879767 10.6039169208
8.6802821712 1.2385155783 11.5118381465
8.4198747690 1.1994766994 12.5923996085
8.4808360280 1.3737054580 13.5641732058
8.8827270714 1.5595472631 13.2052420146
8.1532722329 1.5239979336 14.4121772987
8.3319362142 2.6303043908 6.8873721081
8.7323119297 2.5598462798 7.3318027945
8.8593272534 2.3303990866 8.0140697633
9.0311598660 2.0044908657 8.9161122790
8.7997494177 1.8065168142 13.9646175526
8.5595385712 2.1415779802 14.7690161312
8.3552724119 2.6905556822 15.3776960947
8.8053872862 2.7163116135 14.7807973863
7.7850005698 2.7486865898 16.1064597921
8.4840473079 3.7922680975 5.6335241849
8.8646230311 3.4673198355 6.2764267598
8.8356752507 2.9756126696 6.8384128385
8.6850541311 3.4123251228 14.8743681226
9.0574750889 3.0390468114 14.3374189318
9.0853841519 3.5663868723 14.1395517062
8.1079697450 3.4263108339 15.7807672523
8.4302075148 5.0135994229 4.6493111768
8.7334111038 4.4280083114 5.2311858051
8.8297308574 4.2523874894 14.2482223251
9.2693786409 4.0150715566 13.6415271063
9.1792852162 4.8987515887 13.4921230131
8.2022577153 4.2917439256 15.1077783886
8.8779481289 5.8030132526 4.3552250353
8.3950963659 5.3073275011 14.2111443726
9.0595681877 6.1266912418 13.3545598850
9.0957924566 7.3492131303 3.1952591677
9.4404001439 6.6229774095 4.0043855426
9.4108443552 7.2404195604 13.0581510120
9.0213488713 8.6749385785 2.2371755472
9.3001388825 8.0388236755 2.6763198499
8.4230103428 7.9000530216 13.6679489752
9.0806896990 8.0738762374 13.3853957360
9.1419563520 9.5249822143 1.8637492204
8.6068455809 8.6768539349 13.7104845224
9.4582170894 9.2138766742 13.4556485511
8.8703311985 10.5734625888 1.4745298776
9.1868174269 10.1556409492 1.6247594835
8.8404273753 9.5228831407 13.8546734502
8.5693486596 10.1913170524 14.1655219672
9.0763923603 11.0038146631 1.5360608945
9.1478410619 10.9967570639 14.5162400280
8.7736459070 11.4494333587 14.9743801996
9.3100216396 11.6074778003 15.0417543417
8.9931589126 11.4247937369 1.8045378280
8.4726909939 12.4084726998 2.6529950729
8.8800014192 11.9809926379 2.3845327349
8.8635927153 12.4754977781 3.0800107309
8.9478999994 12.0189650378 15.6125458048
8.8315535388 12.5716630337 16.5920702245
9.1268767328 12.9667154558 17.3180440426
8.3230059049 13.3007690430 4.0787152165
8.6069380667 12.9458527337 3.6767519620
8.2391541783 13.3301033414 4.6096253669
8.7955603483 13.0202655537 4.5896567165
9.0977672521 12.9233467511 5.5263337963
9.0525255553 13.1311752388 6.5673896533
8.3142923709 14.1166506288 7.9483077724
8.7013820779 13.6398248563 7.4650654863
9.0081528550 14.0284826856 8.2398203383
8.9918723050 13.3448115081 17.9806327572
8.8571714401 13.7721627390 18.8252694263
8.5561335010 14.0601791142 19.2876432966
8.9391516964 14.0663792159 19.3860567036
9.1959246223 14.6221053206 8.9670347044
8.7679680274 14.5280608403 19.8508302140
8.8659971804 14.9779145884 20.4225812134
8.6091473676 15.5016265105 9.2805693078
8.8031207400 16.3098241986 9.8038480426
8.9898319389 15.3421377943 20.6690876737
8.8811929263 17.2517699917 10.2001541389
8.9251779097 18.0599998460 10.4176229857
9.1851046156 17.8890118794 20.2202603408
8.5745420223 18.2331557141 19.7797850460
8.8032158844 17.8178740658 20.5315323924
8.9792011978 18.5016895749 10.5087347473
8.8964227802 18.6109217569 10.4642683026
9.1877724592 18.6018257098 10.7795636904
9.4441317377 18.6659422170 13.6254586415
8.8411811497 18.8605646561 13.5578064110
9.1826818916 18.7124095255 14.7210254900
9.0398099694 18.6898628864 15.7798312253
8.9680177042 18.6454322664 16.8724863787
8.9078402412 18.5658448907 17.9531859546
8.7917095654 18.4279270302 18.9503527444
9.3556850784 1.5899441566 10.6069925019
9.4015733962 1.7003825631 11.3687711479
9.1114469079 1.6283988624 12.4096264450
9.2792490140 2.9170712553 7.5722129924
9.6919013763 2.7558637406 8.5727024009
9.7718397724 2.2839488142 9.6323037003
9.7896377922 2.0345658731 10.6292646476
9.9009323075 2.2605737346 11.4563152137
10.1108579821 2.9109908540 11.7609232215
9.6401711903 2.3821765471 12.3492381376
9.2197974181 2.1148650844 13.3022094110
9.0429679475 2.4570364334 14.1656005383
9.2163818407 4.2240724734 6.0202699427
9.3708679229 3.5739057369 6.9014123995
9.9043372634 3.6623265607 7.8199095075
10.2878483371 3.4955827349 8.6278680418
10.3242352677 2.9577548747 9.4405521262
9.8664066474 3.2749353365 12.4936220316
10.2014616951 3.8639011979 11.9313729628
9.4096514776 3.1187787900 13.4454037083
9.2245750518 5.1456652818 5.2530846475
9.6493695645 5.0367642120 6.1944791949
9.8335770111 4.5164647891 7.0476621237
10.1981615487 4.4664411744 7.8461236779
10.3379674376 4.1298851183 8.2650661624
9.7182927732 4.2212664573 12.8364089974
10.1765291076 4.9615854504 12.0411395190
9.5908448037 6.0687278588 4.8965328666
9.8009703194 5.8057787995 5.8716600452
10.0439929361 5.6329936839 7.0080513933
10.2342207170 5.1599344704 7.7621025008
9.7027693872 5.4594628306 12.7300468681
10.1731996444 6.0486417488 12.0279811395
9.8265255174 7.2410420808 3.5956463861
10.0351542295 7.0203384122 4.0852683828
10.0021064481 6.7274184583 4.6750467403
10.3228586035 7.0375270440 5.2196137160
10.0606507997 6.5395383117 5.5269904963
10.1752827043 6.4873156220 6.5724163298
10.2899441105 5.8257118470 7.9319075709
10.3228459913 6.5022259235 7.8227110660
10.4588950097 6.7445955869 8.9648758743
10.4332920486 6.1151770772 8.6770716080
10.5182491776 6.8179972408 9.7319555420
10.5313214310 6.2838792736 9.5943952023
10.5593170141 6.5657464240 10.2698124619
9.7737531246 6.5146840807 12.6438302179
10.1928738458 6.8923519309 12.1091705435
9.6808544527 8.4826481252 2.5123653465
10.0321456120 7.9836474465 3.1486456760
10.4025023663 7.0992307093 6.0706798479
10.4677635270 7.1542872467 7.1976340700
10.5316112476 7.2207924857 8.3630899412
10.5762677206 7.2355650099 9.4232969238
10.5767508783 7.0485934116 10.1911020820
9.9576259353 7.3269343986 12.5567556600
9.8890252038 8.2672689594 12.8279003456
9.7140516945 9.1509024652 2.2214672586
10.0950211176 8.7861004522 2.6024907364
10.1571363834 9.4242754759 12.9462153083
9.4082120085 10.6575463696 1.6528902269
9.7614662627 10.0678716622 2.0188895400
9.3541185014 10.2171642552 13.9434733256
10.0239705655 10.3043909672 13.4946511515
9.4319098298 11.1369617578 1.7715607101
9.8404375694 10.8931955748 2.1094859381
9.8373880181 11.0349248640 14.1699948367
9.6892829211 11.4899185784 14.7270042010
10.0948343672 11.7421098736 14.5836075175
9.5505449275 11.4846587944 2.2471306989
9.3162995279 12.5259292227 3.9264777538
9.6610794466 11.9121592213 3.1364073409
9.5860071172 12.5511268439 4.9624561246
10.0288216564 12.0312575301 4.3027089997
9.7473854044 12.6107005314 6.0150934392
10.2221916169 12.1305741445 5.4353777486
9.8620248830 12.7648095969 6.9029639484
10.3981419447 12.2474762463 6.5988506808
10.2283921968 12.7082363245 7.5117103781
9.8122587663 12.1253175033 15.3258384176
9.6083929654 12.5621797902 16.2524035995
9.5188921043 12.8552853487 16.9505130863
9.9659126184 13.0811117911 16.8387641329
9.6287238396 13.2724634558 7.7163766931
9.7888114546 13.8179846397 8.7045178558
9.7436365179 13.3831169940 17.6263324188
9.5758767217 13.7898874643 18.5637724425
9.3611931237 14.1294188225 19.2939318754
9.8964006151 14.3004006654 19.0864305705
9.8467200032 14.3875059159 9.3415361694
9.5038472436 15.2856690615 9.6998993881
10.0104401790 15.3828008386 10.3121639215
10.1496843362 14.6018629253 9.9770880982
10.3550187608 14.9742752059 10.6464060724
9.6952224726 14.6619197740 19.7199809396
9.4255451222 15.0272681843 20.3185836106
9.9786473798 15.2158191314 20.0930715135
9.6164584041 16.3502580985 10.4000752431
10.2291398904 15.8421425168 10.9682751379
9.8432874733 15.5569293911 20.5771793897
9.8384659550 15.7925933492 20.8392091168
10.1286374563 16.0144028041 20.7203471207
9.5511592254 17.5619154844 10.8601983960
10.0810679016 16.8626286666 11.2300242596
10.1273448149 16.1484076080 20.8428418115
9.3370310625 18.3269149730 10.8999703237
10.0161519210 17.6163235991 11.5394875500
9.7480530476 18.2000494860 11.6957414781
10.1126574290 17.9316947247 12.1105417306
9.8646668082 17.5834734732 19.9550253218
9.4593699467 18.0331201919 19.5486480227
9.7472667735 17.3727934704 20.3657127717
9.4791282686 18.5271751231 11.4496714436
9.9074356391 18.3417687571 12.6840888677
9.5162345328 18.6071925388 12.5797480690
10.0387000997 18.2932740306 13.3990467514
9.9198951617 18.3564646155 14.2488829922
9.8214407642 18.3591146790 15.3074862799
9.7645932648 18.3348964393 16.4151283744
9.7220665945 18.2782959193 17.5278448455
9.6435762678 18.1633936820 18.6060043814
10.2690013263 2.6811021492 10.3649020723
10.1873659633 2.5913603580 11.0788799252
10.5177360762 3.4265178850 9.0654217744
10.5674163775 3.1567474211 9.5818752704
10.5559670062 3.1837978981 10.2680185171
10.6642718915 3.9727877397 10.8262432728
10.4487225090 3.3590103379 11.0878155486
10.4795475812 4.8748642849 8.4491248207
10.5316805061 4.1811482318 8.6752472357
10.5439175120 4.6047221951 11.2242062899
10.7250062790 4.8795879895 10.6243878065
10.4295435874 5.5384115699 8.4078918787
10.6574268351 4.9880280239 9.0544663612
10.5984331897 5.5635558236 9.2307104589
10.6314955688 5.7113870140 10.4554865173
10.7271621840 5.2896626177 9.8644351863
10.4586113654 5.6280693092 11.4055908798
10.2892199842 7.4750561161 3.8583554836
10.3670824323 7.2389488026 4.5553398786
10.5189530104 6.8199909036 11.1483352556
10.4508079127 7.8018788235 3.7293005208
10.5826636472 7.6756178688 4.3214327026
10.6099177001 7.5125811740 5.3571847643
10.6685157518 7.5799052678 6.5862999169
10.6982002670 7.6309122593 7.7641587929
10.7197554619 7.6435003354 8.9416886436
10.7103256395 7.5839939095 10.1967625435
10.6824878350 7.9904837155 11.3422050334
10.3470888541 7.7094211410 12.0621387702
10.2349197806 9.5586217321 2.4934141264
10.3896480215 8.8654323366 2.9189196011
10.5342306658 8.0510350402 3.7558174226
10.7157670793 7.8136075225 4.8382307330
10.7715564746 7.7674162561 5.9807517910
10.7977854785 7.8055461146 7.1636613953
10.8126005037 7.8344654733 8.3456459532
10.8210064954 7.8660098097 9.5398781695
10.8179576494 8.0815473279 10.6801448169
10.7819605810 8.6806476017 11.6114607529
10.7785685864 9.6983417969 12.1432286816
10.5316413546 8.8925040738 12.2437804743
10.3118989422 10.5684819664 2.6840344386
10.5104024823 9.9514557598 2.8207420835
10.6149580601 10.4926139414 12.7017671414
10.8845306628 10.8238424292 12.0378901237
10.0524670406 11.2741445535 2.7103072809
10.5967216207 10.8014174092 3.3255797405
10.3767049686 11.3715130257 3.5915539818
10.5424571812 11.6780251695 4.8031387575
10.6798551734 11.3301807603 4.2652998230
10.6467442327 11.8187404712 5.8152992132
10.7572651228 11.5850449430 5.2907137987
10.7070293803 11.8834360302 6.3779834257
10.7845840441 11.7482474049 6.1174915496
10.6906593046 12.0111209824 6.7504078537
10.9522695096 12.2916310284 10.9152371192
11.0158224088 11.9704662447 10.7254104169
10.9232285563 12.3543454264 10.0779958543
10.8988341630 11.7462221557 12.0567901912
10.9935835233 11.6103026661 11.3782859923
10.7484337226 11.8035743628 13.0253578798
10.4091620687 11.5089058890 13.8071179140
10.3560205533 13.0291722311 8.5599150866
10.5575720673 12.4579194232 7.7030482877
10.7333006582 12.9583042581 9.8821092477
10.7216024526 12.6175366093 9.0246186098
10.8365569174 13.1647662976 10.9097682234
10.9025059890 12.9082670020 11.8063942502
10.8633546951 12.7659214842 12.8520175799
10.7188155507 12.6969036321 13.8751559111
10.4313930070 12.6466412418 14.9448137888
10.2041948112 12.9852451801 16.1060185826
10.3073794067 13.7591514398 9.4726704658
10.5858792151 14.0384148607 10.5494135766
10.7969879130 13.9834924572 11.6684291158
10.8683573481 13.8715467077 12.7428507967
10.8454151932 13.8118258169 13.8350181144
10.7495680448 13.7899766242 14.9394818155
10.6011923098 13.8346586468 16.0690557701
10.3516026306 13.8706205151 17.2141453773
10.1479235415 14.1736237991 18.3665103969
10.5985600758 15.1765840998 11.5555376055
10.7963792943 15.0089077753 12.6887294289
10.8519853951 14.9355792104 13.7998602523
10.8406279463 14.9080861449 14.9238886848
10.7882467097 14.9022966966 16.0531174195
10.6872503997 14.9059516925 17.1746525043
10.5248597567 14.9534057988 18.2739514495
10.2399202509 14.9968367549 19.3170451998
10.4580817485 16.4195086313 11.8469929703
10.6804874497 16.1418844113 12.7149208637
10.7792803207 16.0332959687 13.7755398211
10.8041659441 15.9938597771 14.8931774033
10.7946571220 15.9737694968 16.0255409763
10.7585787808 15.9443474852 17.1437211862
10.6821577293 15.9002446071 18.2020922394
10.5131990319 15.8986852216 19.2029169322
10.2576450547 15.8844056355 20.1450558791
10.3084724767 17.3390251491 12.0121653931
10.5175016793 17.1390691882 12.7694253096
10.6202616308 17.0284475648 13.7303092277
10.6502974846 16.9835208636 14.8109653162
10.6498979521 16.9596305803 15.9369486869
10.6333796128 16.9199697622 17.0647953051
10.5942696856 16.8279125831 18.1479635414
10.5424382060 16.6481781052 18.9911556381
10.2812189427 16.8247302320 19.8748010789
10.1936161658 16.4994600303 20.5285088680
10.2748619929 17.8732846872 12.7575191160
10.3565541056 17.8159250396 13.6076727318
10.3516593644 17.7932515170 14.6157670379
10.3297303691 17.7748897023 15.7174453827
10.3080792266 17.7416614609 16.8448849260
10.2705878553 17.6585951510 17.9686114972
10.1891664673 17.4729574406 19.1163333129
3 2 1 0
3 4 3 0
3 0 3 2
3 6 5 4
3 4 5 3
3 8 7 6
3 6 7 5
3 8 9 7
3 12 11 10
3 12 10 1
3 10 0 1
3 10 13 0
3 0 14 4
3 0 13 14
3 4 15 6
3 4 14 15
3 6 16 8
3 6 15 16
3 9 8 17
3 8 18 17
3 8 16 18
3 18 19 17
3 10 11 20
3 20 11 21
3 10 22 13
3 10 20 22
3 13 23 14
3 13 22 23
3 14 24 15
3 14 23 24
3 15 25 16
3 15 24 25
3 27 18 26
3 18 25 26
3 18 16 25
3 18 27 19
3 21 28 20
3 30 29 28
3 29 20 28
3 29 22 20
3 22 31 23
3 22 29 31
3 33 24 32
3 24 31 32
3 24 23 31
3 24 33 25
3 25 33 34
3 25 34 26
3 30 35 29
3 29 35 31
3 31 35 36
3 31 36 32
3 39 38 37
3 41 40 37
3 37 40 39
3 43 42 41
3 41 42 40
3 45 44 43
3 43 44 42
3 45 46 44
3 49 48 47
3 49 47 38
3 38 47 37
3 47 1 37
3 1 2 37
3 37 2 3
3 37 3 41
3 41 3 5
3 41 5 43
3 43 5 7
3 43 7 45
3 51 50 9
3 9 50 7
3 50 46 7
3 46 45 7
3 53 52 51
3 51 52 50
3 55 54 53
3 53 54 52
3 55 56 54
3 59 58 57
3 59 57 48
3 48 57 47
3 57 11 47
3 11 12 47
3 47 12 1
3 17 51 9
3 51 17 19
3 60 51 19
3 53 51 60
3 53 61 55
3 53 60 61
3 56 55 62
3 62 55 61
3 57 58 63
3 63 58 64
3 63 21 11
3 63 11 57
3 26 65 27
3 65 66 27
3 27 66 19
3 66 67 19
3 67 60 19
3 60 67 61
3 61 67 68
3 61 68 62
3 63 64 69
3 69 64 70
3 71 28 21
3 63 71 21
3 69 71 63
3 71 30 28
3 32 72 33
3 73 34 33
3 73 33 72
3 73 74 34
3 34 74 26
3 74 75 26
3 75 65 26
3 65 75 66
3 70 76 69
3 78 77 76
3 77 69 76
3 77 71 69
3 79 35 30
3 71 79 30
3 77 79 71
3 80 36 35
3 80 35 79
3 80 81 36
3 36 81 32
3 81 82 32
3 82 72 32
3 72 82 73
3 73 82 83
3 73 83 74
3 78 84 77
3 77 84 79
3 79 84 85
3 79 85 80
3 80 85 86
3 80 86 81
3 89 88 87
3 91 90 87
3 87 90 89
3 93 92 91
3 91 92 90
3 95 94 93
3 93 94 92
3 97 96 95
3 95 96 94
3 97 98 96
3 101 100 99
3 101 99 88
3 88 99 87
3 99 38 87
3 38 39 87
3 87 39 40
3 87 40 91
3 91 40 42
3 91 42 93
3 93 42 44
3 93 44 95
3 95 44 46
3 102 95 46
3 97 95 102
3 98 97 103
3 97 104 103
3 97 102 104
3 106 105 104
3 104 105 103
3 106 107 105
3 110 109 108
3 110 108 100
3 100 108 99
3 108 48 99
3 48 49 99
3 99 49 38
3 50 102 46
3 102 50 52
3 102 52 104
3 104 52 54
3 104 54 106
3 112 111 56
3 56 111 54
3 111 107 54
3 107 106 54
3 112 113 111
3 116 115 114
3 116 114 109
3 109 114 108
3 114 58 108
3 58 59 108
3 108 59 48
3 118 117 112
3 56 118 112
3 62 118 56
3 112 117 113
3 114 115 119
3 119 115 120
3 119 64 58
3 119 58 114
3 66 121 67
3 122 68 67
3 122 67 121
3 122 123 68
3 123 62 68
3 123 118 62
3 120 124 119
3 64 119 124
3 125 64 124
3 70 64 125
3 74 126 75
3 126 127 75
3 75 127 66
3 127 128 66
3 128 121 66
3 121 128 122
3 122 128 129
3 122 129 123
3 125 130 70
3 70 130 76
3 78 76 130
3 78 130 131
3 81 132 82
3 82 132 133
3 134 82 133
3 83 82 134
3 74 83 126
3 83 135 126
3 83 134 135
3 126 135 127
3 131 136 78
3 78 136 84
3 136 138 137
3 85 136 137
3 84 136 85
3 85 137 139
3 140 85 139
3 86 85 140
3 81 86 132
3 86 141 132
3 86 140 141
3 132 141 133
3 138 142 137
3 137 142 139
3 145 144 143
3 88 89 143
3 89 145 143
3 89 146 145
3 147 89 90
3 147 146 89
3 148 90 92
3 148 147 90
3 149 92 94
3 149 148 92
3 150 94 96
3 150 149 94
3 152 151 98
3 151 96 98
3 151 150 96
3 154 153 152
3 152 153 151
3 154 155 153
3 158 157 156
3 158 156 144
3 144 156 143
3 156 100 143
3 100 101 143
3 143 101 88
3 103 152 98
3 152 103 105
3 152 105 154
3 160 159 107
3 107 159 105
3 159 155 105
3 155 154 105
3 160 161 159
3 164 163 162
3 164 162 157
3 157 162 156
3 162 109 156
3 109 110 156
3 156 110 100
3 111 160 107
3 111 113 160
3 113 161 160
3 113 165 161
3 162 163 116
3 163 115 116
3 163 166 115
3 162 116 109
3 168 167 117
3 168 117 118
3 113 117 165
3 165 117 167
3 171 170 169
3 166 171 169
3 120 166 169
3 115 166 120
3 174 173 172
3 173 168 172
3 168 123 172
3 168 118 123
3 170 175 169
3 169 175 120
3 175 124 120
3 175 176 124
3 125 124 176
3 125 176 177
3 179 178 128
3 179 128 127
3 172 129 174
3 129 178 174
3 129 128 178
3 129 172 123
3 130 125 180
3 125 181 180
3 125 177 181
3 180 131 130
3 133 182 134
3 134 182 183
3 184 134 183
3 135 134 184
3 127 135 179
3 179 135 184
3 180 181 185
3 185 181 186
3 187 136 131
3 180 187 131
3 185 187 180
3 187 138 136
3 139 188 140
3 189 141 140
3 189 140 188
3 189 190 141
3 141 190 133
3 190 191 133
3 191 182 133
3 182 191 183
3 186 192 185
3 194 193 192
3 193 185 192
3 193 187 185
3 195 142 138
3 187 195 138
3 193 195 187
3 188 139 142
3 195 188 142
3 196 188 195
3 198 189 197
3 189 196 197
3 189 188 196
3 189 198 190
3 194 199 193
3 193 199 195
3 195 199 200
3 195 200 196
3 196 200 201
3 196 201 197
3 203 202 145
3 145 202 144
3 204 145 146
3 204 203 145
3 205 146 147
3 205 204 146
3 206 147 148
3 206 205 147
3 207 148 149
3 207 206 148
3 208 149 150
3 208 207 149
3 209 150 151
3 209 208 150
3 210 151 153
3 210 209 151
3 153 155 210
3 210 155 211
3 214 213 212
3 157 158 212
3 158 214 212
3 158 215 214
3 158 144 202
3 158 202 215
3 216 211 155
3 216 155 159
3 159 161 216
3 216 161 217
3 220 219 218
3 220 218 213
3 213 218 212
3 218 163 212
3 163 164 212
3 212 164 157
3 165 217 161
3 165 221 217
3 218 219 222
3 222 219 223
3 222 166 163
3 222 163 218
3 226 225 224
3 167 168 224
3 225 167 224
3 227 167 225
3 165 167 221
3 221 167 227
3 222 223 171
3 223 170 171
3 223 228 170
3 222 171 166
3 231 230 229
3 229 230 226
3 229 226 224
3 174 229 224
3 173 174 224
3 173 224 168
3 175 170 232
3 170 233 232
3 170 228 233
3 234 176 175
3 234 175 232
3 234 177 176
3 231 229 178
3 179 231 178
3 235 231 179
3 178 229 174
3 233 236 232
3 238 237 236
3 237 232 236
3 237 234 232
3 237 181 177
3 237 177 234
3 240 239 184
3 240 184 183
3 179 184 235
3 235 184 239
3 243 242 241
3 245 244 241
3 241 244 243
3 244 245 238
3 245 237 238
3 245 246 237
3 246 186 181
3 246 181 237
3 190 247 191
3 247 248 191
3 248 183 191
3 248 240 183
3 242 249 241
3 251 250 249
3 250 241 249
3 250 245 241
3 245 252 246
3 245 250 252
3 253 192 186
3 246 253 186
3 252 253 246
3 253 194 192
3 197 254 198
3 247 190 198
3 254 247 198
3 255 247 254
3 248 247 256
3 256 247 255
3 251 257 250
3 259 258 257
3 258 250 257
3 258 252 250
3 252 260 253
3 252 258 260
3 261 199 194
3 253 261 194
3 260 261 253
3 262 200 199
3 262 199 261
3 263 201 200
3 263 200 262
3 254 197 201
3 263 254 201
3 264 254 263
3 254 265 255
3 254 264 265
3 256 255 266
3 266 255 265
3 259 267 258
3 258 267 260
3 260 267 268
3 270 269 268
3 269 260 268
3 269 261 260
3 261 271 262
3 261 269 271
3 262 272 263
3 262 271 272
3 263 273 264
3 263 272 273
3 264 274 265
3 264 273 274
3 266 265 275
3 265 276 275
3 265 274 276
3 276 277 275
3 270 278 269
3 280 279 278
3 279 269 278
3 279 271 269
3 271 281 272
3 271 279 281
3 272 282 273
3 272 281 282
3 273 283 274
3 273 282 283
3 274 284 276
3 274 283 284
3 277 276 285
3 276 286 285
3 276 284 286
3 288 287 286
3 286 287 285
3 290 289 288
3 288 289 287
3 290 291 289
3 280 292 279
3 294 293 292
3 293 279 292
3 293 281 279
3 281 295 282
3 281 293 295
3 282 296 283
3 282 295 296
3 283 297 284
3 283 296 297
3 284 298 286
3 284 297 298
3 286 299 288
3 286 298 299
3 288 300 290
3 288 299 300
3 291 290 301
3 290 302 301
3 290 300 302
3 304 303 302
3 302 303 301
3 304 305 303
3 294 306 293
3 308 307 306
3 307 293 306
3 307 295 293
3 295 309 296
3 295 307 309
3 296 310 297
3 296 309 310
3 297 311 298
3 297 310 311
3 298 312 299
3 298 311 312
3 299 313 300
3 299 312 313
3 300 314 302
3 300 313 314
3 302 315 304
3 302 314 315
3 305 304 316
3 304 317 316
3 304 315 317
3 317 318 316
3 307 308 319
3 319 308 320
3 307 321 309
3 307 319 321
3 309 322 310
3 309 321 322
3 310 323 311
3 310 322 323
3 311 324 312
3 311 323 324
3 312 325 313
3 312 324 325
3 313 326 314
3 313 325 326
3 314 327 315
3 314 326 327
3 329 317 328
3 317 327 328
3 317 315 327
3 317 329 318
3 320 330 319
3 332 331 330
3 331 319 330
3 331 321 319
3 334 322 333
3 322 331 333
3 322 321 331
3 322 334 323
3 323 334 335
3 323 335 324
3 324 335 336
3 324 336 325
3 325 336 337
3 325 337 326
3 326 337 338
3 326 338 327
3 327 338 339
3 327 339 328
3 342 341 340
3 344 343 340
3 340 343 342
3 346 345 344
3 344 345 343
3 348 347 346
3 346 347 345
3 350 349 348
3 348 349 347
3 352 351 350
3 350 351 349
3 352 353 351
3 356 355 354
3 202 203 354
3 203 356 354
3 203 357 356
3 204 340 341
3 357 204 341
3 203 204 357
3 340 204 205
3 340 205 344
3 344 205 206
3 344 206 346
3 346 206 207
3 346 207 348
3 348 207 208
3 348 208 350
3 350 208 209
3 350 209 352
3 358 353 352
3 209 358 352
3 210 358 209
3 360 359 211
3 359 210 211
3 359 358 210
3 360 361 359
3 363 362 214
3 214 362 213
3 215 354 355
3 363 215 355
3 214 215 363
3 354 215 202
3 216 360 211
3 216 217 360
3 217 361 360
3 217 364 361
3 366 365 220
3 220 365 219
3 220 213 362
3 220 362 366
3 369 368 367
3 368 364 367
3 364 221 367
3 364 217 221
3 365 223 219
3 370 223 365
3 373 372 371
3 225 226 371
3 372 225 371
3 374 225 372
3 367 227 369
3 227 374 369
3 227 225 374
3 227 367 221
3 377 376 375
3 370 377 375
3 228 370 375
3 223 370 228
3 373 371 230
3 231 373 230
3 378 373 231
3 230 371 226
3 375 376 379
3 379 376 380
3 379 233 228
3 379 228 375
3 383 382 381
3 382 378 381
3 378 235 381
3 378 231 235
3 379 380 384
3 384 380 385
3 386 236 233
3 379 386 233
3 384 386 379
3 386 238 236
3 239 240 387
3 381 388 383
3 388 381 389
3 381 235 389
3 239 387 389
3 239 389 235
3 384 385 243
3 385 242 243
3 385 390 242
3 384 243 244
3 384 244 386
3 386 244 238
3 392 391 387
3 240 392 387
3 248 392 240
3 387 391 389
3 395 394 393
3 393 396 249
3 390 393 249
3 242 390 249
3 393 390 395
3 396 251 249
3 256 398 397
3 392 256 397
3 248 256 392
3 398 399 397
3 393 394 400
3 400 394 401
3 393 402 396
3 393 400 402
3 403 257 251
3 396 403 251
3 402 403 396
3 403 259 257
3 266 404 398
3 266 398 256
3 399 398 405
3 398 406 405
3 398 404 406
3 406 407 405
3 401 408 400
3 400 408 402
3 402 408 409
3 402 409 403
3 403 409 410
3 403 410 259
3 410 267 259
3 410 411 267
3 411 413 412
3 268 411 412
3 267 411 268
3 412 270 268
3 275 404 266
3 404 275 277
3 414 404 277
3 406 404 414
3 407 406 415
3 406 416 415
3 406 414 416
3 418 417 416
3 416 417 415
3 418 419 417
3 413 420 412
3 412 420 270
3 420 278 270
3 420 421 278
3 280 278 421
3 280 421 422
3 285 414 277
3 414 285 287
3 414 287 416
3 416 287 289
3 416 289 418
3 424 423 291
3 291 423 289
3 423 419 289
3 419 418 289
3 426 425 424
3 424 425 423
3 426 427 425
3 292 280 428
3 280 429 428
3 280 422 429
3 428 294 292
3 301 424 291
3 424 301 303
3 424 303 426
3 431 430 305
3 305 430 303
3 430 427 303
3 427 426 303
3 431 432 430
3 429 433 428
3 433 435 434
3 433 434 306
3 428 433 306
3 294 428 306
3 434 308 306
3 316 431 305
3 437 436 318
3 318 436 316
3 436 432 316
3 432 431 316
3 434 435 438
3 438 435 439
3 438 320 308
3 438 308 434
3 441 440 329
3 441 329 328
3 318 329 437
3 329 442 437
3 329 440 442
3 438 439 443
3 443 439 444
3 445 330 320
3 438 445 320
3 443 445 438
3 445 332 330
3 447 446 334
3 447 334 333
3 334 448 335
3 446 448 334
3 335 449 336
3 448 449 335
3 336 450 337
3 449 450 336
3 337 451 338
3 450 451 337
3 338 452 339
3 451 452 338
3 328 339 441
3 441 339 452
3 454 453 342
3 342 453 341
3 455 342 343
3 455 454 342
3 456 343 345
3 456 455 343
3 457 345 347
3 457 456 345
3 458 347 349
3 458 457 347
3 459 349 351
3 459 458 349
3 351 353 459
3 459 353 460
3 462 461 356
3 356 461 355
3 463 356 357
3 463 462 356
3 357 341 453
3 357 453 463
3 464 460 353
3 464 353 358
3 465 358 359
3 465 464 358
3 359 361 465
3 465 361 466
3 468 467 363
3 363 467 362
3 363 355 461
3 363 461 468
3 471 470 469
3 470 466 469
3 466 364 469
3 466 361 364
3 473 472 366
3 366 472 365
3 366 362 467
3 366 467 473
3 476 475 474
3 474 475 471
3 474 471 469
3 369 474 469
3 368 369 469
3 368 469 364
3 472 370 365
3 477 370 472
3 479 478 372
3 479 372 373
3 474 374 476
3 374 478 476
3 374 372 478
3 374 474 369
3 481 480 377
3 377 480 376
3 377 370 477
3 377 477 481
3 484 483 482
3 483 479 482
3 479 378 482
3 479 373 378
3 487 486 485
3 480 487 485
3 380 480 485
3 376 480 380
3 382 383 488
3 482 489 484
3 489 482 490
3 482 378 490
3 382 488 490
3 382 490 378
3 485 486 491
3 491 486 492
3 491 385 380
3 491 380 485
3 388 488 383
3 388 389 488
3 389 490 488
3 389 493 490
3 496 495 494
3 496 494 492
3 494 491 492
3 494 497 491
3 497 390 385
3 497 385 491
3 392 498 391
3 498 499 391
3 499 389 391
3 499 493 389
3 494 495 500
3 500 495 501
3 500 394 395
3 497 500 395
3 494 500 497
3 497 395 390
3 397 498 392
3 397 399 498
3 399 499 498
3 399 502 499
3 501 503 500
3 394 500 503
3 504 394 503
3 401 394 504
3 505 502 399
3 505 399 405
3 507 506 407
3 506 405 407
3 506 505 405
3 509 508 507
3 507 508 506
3 509 510 508
3 504 511 401
3 401 511 408
3 511 513 512
3 409 511 512
3 408 511 409
3 514 410 409
3 514 409 512
3 410 514 515
3 516 410 515
3 411 410 516
3 518 517 413
3 411 518 413
3 516 518 411
3 519 517 518
3 415 507 407
3 507 415 417
3 507 417 509
3 521 520 419
3 419 520 417
3 520 510 417
3 510 509 417
3 521 522 520
3 513 523 512
3 512 523 514
3 514 523 524
3 514 524 515
3 517 420 413
3 519 525 517
3 525 420 517
3 525 421 420
3 422 421 525
3 422 525 526
3 423 521 419
3 527 522 521
3 423 527 521
3 425 527 423
3 529 528 427
3 528 425 427
3 528 527 425
3 529 530 528
3 532 429 531
3 429 526 531
3 429 422 526
3 533 532 531
3 430 529 427
3 535 534 432
3 432 534 430
3 534 530 430
3 530 529 430
3 532 433 429
3 435 433 532
3 533 435 532
3 536 435 533
3 436 535 432
3 536 439 435
3 537 439 536
3 539 538 440
3 539 440 441
3 440 540 442
3 538 540 440
3 537 444 439
3 541 444 537
3 543 542 446
3 543 446 447
3 446 544 448
3 542 544 446
3 448 545 449
3 544 545 448
3 449 546 450
3 545 546 449
3 450 547 451
3 546 547 450
3 451 548 452
3 547 548 451
3 441 452 539
3 539 452 548
3 549 453 454
3 549 454 550
3 454 551 550
3 454 455 551
3 552 455 456
3 552 551 455
3 553 456 457
3 553 552 456
3 555 553 554
3 553 458 554
3 553 457 458
3 459 556 458
3 458 556 554
3 460 556 459
3 557 461 462
3 557 462 558
3 462 559 558
3 462 463 559
3 463 453 549
3 560 463 549
3 559 463 560
3 560 549 550
3 561 555 554
3 561 554 556
3 561 556 562
3 564 562 563
3 563 562 464
3 562 556 464
3 556 460 464
3 465 565 464
3 464 565 563
3 466 565 465
3 567 566 468
3 468 566 467
3 468 461 557
3 568 468 557
3 567 468 568
3 568 557 558
3 571 570 569
3 569 570 564
3 563 569 564
3 572 569 563
3 471 572 470
3 572 565 470
3 572 563 565
3 470 565 466
3 574 573 473
3 473 573 472
3 473 467 566
3 473 566 574
3 577 576 575
3 575 576 571
3 569 575 571
3 578 575 569
3 476 578 475
3 578 572 475
3 578 569 572
3 475 572 471
3 573 477 472
3 579 477 573
3 577 575 580
3 577 580 581
3 479 580 478
3 580 578 478
3 580 575 578
3 478 578 476
3 583 582 481
3 481 582 480
3 481 477 579
3 481 579 583
3 581 580 483
3 484 581 483
3 584 581 484
3 483 580 479
3 586 585 487
3 487 585 486
3 487 480 582
3 487 582 586
3 484 489 587
3 588 484 587
3 584 484 588
3 490 587 489
3 585 492 486
3 589 492 585
3 588 587 590
3 588 590 591
3 493 590 490
3 490 590 587
3 593 592 496
3 496 592 495
3 496 492 589
3 496 589 593
3 594 591 590
3 590 493 594
3 493 595 594
3 493 499 595
3 592 501 495
3 596 501 592
3 502 598 597
3 595 502 597
3 499 502 595
3 598 599 597
3 596 600 501
3 501 600 503
3 602 601 504
3 503 602 504
3 600 602 503
3 603 601 602
3 505 598 502
3 604 599 598
3 505 604 598
3 506 604 505
3 605 506 508
3 605 604 506
3 508 510 605
3 605 510 606
3 601 511 504
3 608 607 513
3 608 513 511
3 603 608 511
3 601 603 511
3 610 609 607
3 610 607 608
3 516 515 609
3 610 516 609
3 611 516 610
3 516 612 518
3 611 612 516
3 614 613 519
3 518 614 519
3 612 614 518
3 615 613 614
3 616 606 510
3 616 510 520
3 618 617 522
3 617 520 522
3 617 616 520
3 618 619 617
3 607 523 513
3 523 607 524
3 524 607 609
3 524 609 515
3 613 525 519
3 526 525 613
3 615 526 613
3 620 526 615
3 527 618 522
3 621 619 618
3 527 621 618
3 528 621 527
3 528 530 621
3 621 530 622
3 620 623 526
3 526 623 531
3 533 531 623
3 533 623 624
3 625 622 530
3 625 530 534
3 624 536 533
3 626 536 624
3 626 537 536
3 627 537 626
3 629 628 538
3 629 538 539
3 538 630 540
3 628 630 538
3 632 541 631
3 541 627 631
3 541 537 627
3 633 632 631
3 635 634 542
3 635 542 543
3 542 636 544
3 634 636 542
3 544 637 545
3 636 637 544
3 545 638 546
3 637 638 545
3 546 639 547
3 638 639 546
3 547 640 548
3 639 640 547
3 539 548 629
3 629 548 640
3 641 550 551
3 552 642 551
3 551 642 641
3 553 643 552
3 552 643 642
3 555 643 553
3 644 558 559
3 560 645 559
3 559 645 644
3 646 645 560
3 646 560 550
3 647 646 550
3 641 647 550
3 647 641 642
3 647 642 648
3 650 649 648
3 642 650 648
3 643 650 642
3 561 651 555
3 651 643 555
3 651 650 643
3 562 652 561
3 561 652 651
3 564 652 562
3 653 566 567
3 568 654 567
3 567 654 653
3 558 644 568
3 644 654 568
3 644 655 654
3 645 657 656
3 655 645 656
3 644 645 655
3 657 645 646
3 649 650 658
3 649 658 659
3 660 650 651
3 658 650 660
3 571 660 570
3 660 652 570
3 660 651 652
3 570 652 564
3 661 573 574
3 566 653 574
3 653 661 574
3 653 662 661
3 663 653 654
3 662 653 663
3 655 665 664
3 663 655 664
3 654 655 663
3 665 655 656
3 659 658 666
3 659 666 667
3 577 666 576
3 666 660 576
3 666 658 660
3 576 660 571
3 668 579 661
3 661 579 573
3 669 661 662
3 668 661 669
3 670 662 663
3 669 662 670
3 663 664 671
3 663 671 670
3 667 666 672
3 667 672 673
3 581 672 577
3 577 672 666
3 675 674 583
3 583 674 582
3 583 579 668
3 676 583 668
3 675 583 676
3 678 677 676
3 668 678 676
3 669 678 668
3 679 669 670
3 678 669 679
3 670 671 680
3 681 670 680
3 679 670 681
3 683 682 681
3 683 681 680
3 685 684 682
3 685 682 683
3 686 684 685
3 673 672 687
3 673 687 688
3 584 687 581
3 581 687 672
3 689 585 586
3 690 689 586
3 582 690 586
3 674 690 582
3 691 677 678
3 691 678 679
3 691 679 692
3 692 679 681
3 692 681 693
3 693 681 682
3 693 682 694
3 694 682 684
3 694 684 695
3 695 684 686
3 696 688 687
3 687 584 696
3 584 697 696
3 584 588 697
3 699 698 689
3 698 585 689
3 698 589 585
3 699 689 690
3 591 697 588
3 591 700 697
3 701 592 593
3 702 701 593
3 589 702 593
3 698 702 589
3 591 594 703
3 704 591 703
3 700 591 704
3 595 703 594
3 705 596 701
3 701 596 592
3 701 702 706
3 701 706 705
3 707 704 703
3 709 707 708
3 708 707 597
3 707 703 597
3 703 595 597
3 599 708 597
3 705 600 596
3 706 710 705
3 710 600 705
3 710 602 600
3 712 711 603
3 602 712 603
3 710 712 602
3 714 713 711
3 714 711 712
3 716 715 713
3 716 713 714
3 718 717 715
3 718 715 716
3 719 717 718
3 720 709 708
3 720 708 599
3 604 720 599
3 721 720 604
3 723 721 722
3 721 605 722
3 721 604 605
3 606 722 605
3 711 608 603
3 608 711 610
3 610 711 713
3 610 713 611
3 611 713 715
3 611 715 612
3 612 715 717
3 719 724 717
3 724 612 717
3 724 614 612
3 615 614 724
3 615 724 725
3 726 723 722
3 726 722 606
3 616 726 606
3 727 726 616
3 729 727 728
3 727 617 728
3 727 616 617
3 619 728 617
3 731 620 730
3 620 725 730
3 620 615 725
3 733 732 731
3 733 731 730
3 734 732 733
3 735 729 728
3 737 735 736
3 736 735 621
3 735 728 621
3 728 619 621
3 622 736 621
3 731 623 620
3 623 731 624
3 731 738 624
3 731 732 738
3 732 734 739
3 732 739 738
3 740 737 736
3 742 740 741
3 741 740 625
3 740 736 625
3 736 622 625
3 743 626 738
3 738 626 624
3 738 739 744
3 738 744 743
3 745 742 741
3 746 627 743
3 743 627 626
3 743 744 747
3 748 743 747
3 746 743 748
3 749 748 747
3 751 750 628
3 751 628 629
3 628 752 630
3 750 752 628
3 746 631 627
3 631 746 633
3 746 753 633
3 746 748 753
3 748 749 754
3 755 748 754
3 753 748 755
3 634 635 755
3 754 634 755
3 756 634 754
3 634 757 636
3 756 757 634
3 636 758 637
3 757 758 636
3 637 759 638
3 758 759 637
3 638 760 639
3 759 760 638
3 639 761 640
3 760 761 639
3 629 640 751
3 751 640 761
3 762 646 647
3 648 763 647
3 647 763 762
3 649 763 648
3 765 764 657
3 657 764 656
3 657 646 762
3 766 657 762
3 765 657 766
3 768 767 766
3 762 768 766
3 763 768 762
3 659 768 649
3 649 768 763
3 769 664 665
3 770 769 665
3 656 770 665
3 764 770 656
3 767 768 771
3 767 771 772
3 667 771 659
3 659 771 768
3 773 671 769
3 769 671 664
3 769 770 774
3 775 769 774
3 773 769 775
3 777 776 775
3 777 775 774
3 776 777 772
3 771 776 772
3 778 776 771
3 673 778 667
3 667 778 771
3 779 674 675
3 676 780 675
3 675 780 779
3 677 780 676
3 773 680 671
3 680 773 683
3 683 773 775
3 683 775 685
3 685 775 776
3 685 776 686
3 776 781 686
3 776 778 781
3 688 781 673
3 673 781 778
3 782 690 779
3 779 690 674
3 783 779 780
3 782 779 783
3 691 784 677
3 784 780 677
3 784 783 780
3 692 785 691
3 691 785 784
3 693 786 692
3 692 786 785
3 694 787 693
3 693 787 786
3 695 788 694
3 694 788 787
3 686 781 695
3 781 788 695
3 781 789 788
3 696 790 688
3 790 781 688
3 790 789 781
3 697 790 696
3 791 698 699
3 792 791 699
3 792 699 690
3 793 792 690
3 782 793 690
3 793 782 783
3 793 783 794
3 794 783 784
3 794 784 795
3 795 784 785
3 795 785 796
3 796 785 786
3 796 786 797
3 797 786 787
3 797 787 798
3 798 787 788
3 798 788 799
3 799 788 789
3 799 789 800
3 802 801 800
3 789 802 800
3 790 802 789
3 700 802 697
3 697 802 790
3 803 702 791
3 791 702 698
3 791 792 804
3 791 804 803
3 801 802 805
3 801 805 806
3 704 805 700
3 700 805 802
3 807 706 803
3 803 706 702
3 803 804 808
3 809 803 808
3 807 803 809
3 811 810 809
3 811 809 808
3 813 812 810
3 813 810 811
3 815 814 812
3 815 812 813
3 816 814 815
3 819 818 817
3 821 820 817
3 821 817 818
3 820 821 806
3 805 820 806
3 822 820 805
3 707 823 704
3 823 805 704
3 823 822 805
3 709 823 707
3 807 710 706
3 710 807 712
3 712 807 809
3 712 809 714
3 714 809 810
3 714 810 716
3 716 810 812
3 716 812 718
3 718 812 814
3 825 824 719
3 825 719 718
3 816 825 718
3 814 816 718
3 827 826 824
3 827 824 825
3 826 827 819
3 817 826 819
3 828 826 817
3 829 817 820
3 828 817 829
3 830 820 822
3 829 820 830
3 831 822 823
3 830 822 831
3 720 832 709
3 832 823 709
3 832 831 823
3 721 833 720
3 720 833 832
3 723 833 721
3 824 724 719
3 724 824 725
3 824 834 725
3 824 826 834
3 835 826 828
3 834 826 835
3 836 828 829
3 835 828 836
3 837 829 830
3 836 829 837
3 838 830 831
3 837 830 838
3 839 831 832
3 838 831 839
3 840 832 833
3 839 832 840
3 726 841 723
3 841 833 723
3 841 840 833
3 727 842 726
3 726 842 841
3 729 842 727
3 834 730 725
3 730 834 733
3 733 834 835
3 733 835 734
3 835 843 734
3 835 836 843
3 844 836 837
3 843 836 844
3 845 837 838
3 844 837 845
3 846 838 839
3 845 838 846
3 847 839 840
3 846 839 847
3 848 840 841
3 847 840 848
3 849 841 842
3 848 841 849
3 735 850 729
3 850 842 729
3 850 849 842
3 737 850 735
3 851 739 843
3 843 739 734
3 852 843 844
3 851 843 852
3 853 844 845
3 852 844 853
3 854 845 846
3 853 845 854
3 855 846 847
3 854 846 855
3 856 847 848
3 855 847 856
3 857 848 849
3 856 848 857
3 858 849 850
3 857 849 858
3 740 859 737
3 859 850 737
3 859 858 850
3 742 859 740
3 860 744 851
3 851 744 739
3 861 851 852
3 860 851 861
3 862 852 853
3 861 852 862
3 863 853 854
3 862 853 863
3 864 854 855
3 863 854 864
3 865 855 856
3 864 855 865
3 866 856 857
3 865 856 866
3 867 857 858
3 866 857 867
3 868 858 859
3 867 858 868
3 745 869 742
3 869 859 742
3 869 868 859
3 860 747 744
3 747 860 749
3 860 870 749
3 860 861 870
3 871 861 862
3 870 861 871
3 872 862 863
3 871 862 872
3 873 863 864
3 872 863 873
3 874 864 865
3 873 864 874
3 875 865 866
3 874 865 875
3 876 866 867
3 875 866 876
3 751 876 750
3 876 868 750
3 876 867 868
3 750 868 752
3 752 868 869
3 870 754 749
3 754 870 756
3 756 870 871
3 756 871 757
3 757 871 872
3 757 872 758
3 758 872 873
3 758 873 759
3 759 873 874
3 759 874 760
3 760 874 875
3 760 875 761
3 761 875 876
3 761 876 751