OFF
555 1040 0
nan nan nan
nan nan nan
nan nan nan
nan nan nan
nan nan nan
nan nan nan
nan nan nan
nan nan nan
nan nan nan
nan nan nan
nan nan nan
nan nan nan
nan nan nan
nan nan nan
nan nan nan
nan nan nan
nan nan nan
nan nan nan
nan nan nan
nan nan nan
nan nan nan
nan nan nan
nan nan nan
nan nan nan
nan nan nan
nan nan nan
nan nan nan
nan nan nan
nan nan nan
nan nan nan
nan nan nan
nan nan nan
nan nan nan
nan nan nan
nan nan nan
nan nan nan
nan nan nan
nan nan nan
nan nan nan
nan nan nan
nan nan nan
nan nan nan
nan nan nan
nan nan nan
nan nan nan
nan nan nan
nan nan nan
nan nan nan
nan nan nan
nan nan nan
nan nan nan
nan nan nan
nan nan nan
nan nan nan
nan nan nan
nan nan nan
nan nan nan
nan nan nan
nan nan nan
nan nan nan
nan nan nan
nan nan nan
nan nan nan
nan nan nan
nan nan nan
nan nan nan
nan nan nan
nan nan nan
nan nan nan
nan nan nan
nan nan nan
nan nan nan
nan nan nan
nan nan nan
nan nan nan
nan nan nan
nan nan nan
nan nan nan
nan nan nan
nan nan nan
nan nan nan
nan nan nan
nan nan nan
nan nan nan
nan nan nan
nan nan nan
nan nan nan
nan nan nan
nan nan nan
nan nan nan
nan nan nan
nan nan nan
nan nan nan
nan nan nan
nan nan nan
nan nan nan
nan nan nan
nan nan nan
nan nan nan
nan nan nan
nan nan nan
nan nan nan
nan nan nan
nan nan nan
nan nan nan
nan nan nan
nan nan nan
nan nan nan
nan nan nan
nan nan nan
nan nan nan
nan nan nan
nan nan nan
nan nan nan
nan nan nan
nan nan nan
nan nan nan
nan nan nan
nan nan nan
nan nan nan
nan nan nan
nan nan nan
nan nan nan
nan nan nan
nan nan nan
nan nan nan
nan nan nan
nan nan nan
nan nan nan
nan nan nan
nan nan nan
nan nan nan
nan nan nan
nan nan nan
nan nan nan
nan nan nan
nan nan nan
nan nan nan
nan nan nan
nan nan nan
nan nan nan
nan nan nan
nan nan nan
nan nan nan
nan nan nan
nan nan nan
nan nan nan
nan nan nan
nan nan nan
nan nan nan
nan nan nan
nan nan nan
nan nan nan
nan nan nan
nan nan nan
nan nan nan
nan nan nan
nan nan nan
nan nan nan
nan nan nan
nan nan nan
nan nan nan
nan nan nan
nan nan nan
nan nan nan
nan nan nan
nan nan nan
nan nan nan
nan nan nan
nan nan nan
nan nan nan
nan nan nan
nan nan nan
nan nan nan
nan nan nan
nan nan nan
nan nan nan
nan nan nan
nan nan nan
nan nan nan
nan nan nan
nan nan nan
nan nan nan
nan nan nan
nan nan nan
nan nan nan
nan nan nan
nan nan nan
nan nan nan
nan nan nan
nan nan nan
nan nan nan
nan nan nan
nan nan nan
nan nan nan
nan nan nan
nan nan nan
nan nan nan
nan nan nan
nan nan nan
nan nan nan
nan nan nan
nan nan nan
nan nan nan
nan nan nan
nan nan nan
nan nan nan
nan nan nan
nan nan nan
nan nan nan
nan nan nan
nan nan nan
nan nan nan
nan nan nan
nan nan nan
nan nan nan
nan nan nan
nan nan nan
nan nan nan
nan nan nan
nan nan nan
nan nan nan
nan nan nan
nan nan nan
nan nan nan
nan nan nan
nan nan nan
nan nan nan
nan nan nan
nan nan nan
nan nan nan
nan nan nan
nan nan nan
nan nan nan
nan nan nan
nan nan nan
nan nan nan
nan nan nan
nan nan nan
nan nan nan
nan nan nan
nan nan nan
nan nan nan
nan nan nan
nan nan nan
nan nan nan
nan nan nan
nan nan nan
nan nan nan
nan nan nan
nan nan nan
nan nan nan
nan nan nan
nan nan nan
nan nan nan
nan nan nan
nan nan nan
nan nan nan
nan nan nan
nan nan nan
nan nan nan
nan nan nan
nan nan nan
nan nan nan
nan nan nan
nan nan nan
nan nan nan
nan nan nan
nan nan nan
nan nan nan
nan nan nan
nan nan nan
nan nan nan
nan nan nan
nan nan nan
nan nan nan
nan nan nan
nan nan nan
nan nan nan
nan nan nan
nan nan nan
nan nan nan
nan nan nan
nan nan nan
nan nan nan
nan nan nan
nan nan nan
nan nan nan
nan nan nan
nan nan nan
nan nan nan
nan nan nan
nan nan nan
nan nan nan
nan nan nan
nan nan nan
nan nan nan
nan nan nan
nan nan nan
nan nan nan
nan nan nan
nan nan nan
nan nan nan
nan nan nan
nan nan nan
nan nan nan
nan nan nan
nan nan nan
nan nan nan
nan nan nan
nan nan nan
nan nan nan
nan nan nan
nan nan nan
nan nan nan
nan nan nan
nan nan nan
nan nan nan
nan nan nan
nan nan nan
nan nan nan
nan nan nan
nan nan nan
nan nan nan
nan nan nan
nan nan nan
nan nan nan
nan nan nan
nan nan nan
nan nan nan
nan nan nan
nan nan nan
nan nan nan
nan nan nan
nan nan nan
nan nan nan
nan nan nan
nan nan nan
nan nan nan
nan nan nan
nan nan nan
nan nan nan
nan nan nan
nan nan nan
nan nan nan
nan nan nan
nan nan nan
nan nan nan
nan nan nan
nan nan nan
nan nan nan
nan nan nan
nan nan nan
nan nan nan
nan nan nan
nan nan nan
nan nan nan
nan nan nan
nan nan nan
nan nan nan
nan nan nan
nan nan nan
nan nan nan
nan nan nan
nan nan nan
nan nan nan
nan nan nan
nan nan nan
nan nan nan
nan nan nan
nan nan nan
nan nan nan
nan nan nan
nan nan nan
nan nan nan
nan nan nan
nan nan nan
nan nan nan
nan nan nan
nan nan nan
nan nan nan
nan nan nan
nan nan nan
nan nan nan
nan nan nan
nan nan nan
nan nan nan
nan nan nan
nan nan nan
nan nan nan
nan nan nan
nan nan nan
nan nan nan
nan nan nan
nan nan nan
nan nan nan
nan nan nan
nan nan nan
nan nan nan
nan nan nan
nan nan nan
nan nan nan
nan nan nan
nan nan nan
nan nan nan
nan nan nan
nan nan nan
nan nan nan
nan nan nan
nan nan nan
nan nan nan
nan nan nan
nan nan nan
nan nan nan
nan nan nan
nan nan nan
nan nan nan
nan nan nan
nan nan nan
nan nan nan
nan nan nan
nan nan nan
nan nan nan
nan nan nan
nan nan nan
nan nan nan
nan nan nan
nan nan nan
nan nan nan
nan nan nan
nan nan nan
nan nan nan
nan nan nan
nan nan nan
nan nan nan
nan nan nan
nan nan nan
nan nan nan
nan nan nan
nan nan nan
nan nan nan
nan nan nan
nan nan nan
nan nan nan
nan nan nan
nan nan nan
nan nan nan
nan nan nan
nan nan nan
nan nan nan
nan nan nan
nan nan nan
nan nan nan
nan nan nan
nan nan nan
nan nan nan
nan nan nan
nan nan nan
nan nan nan
nan nan nan
nan nan nan
nan nan nan
nan nan nan
nan nan nan
nan nan nan
nan nan nan
nan nan nan
nan nan nan
nan nan nan
nan nan nan
nan nan nan
nan nan nan
nan nan nan
nan nan nan
nan nan nan
nan nan nan
nan nan nan
nan nan nan
nan nan nan
nan nan nan
nan nan nan
nan nan nan
nan nan nan
nan nan nan
nan nan nan
nan nan nan
nan nan nan
nan nan nan
nan nan nan
nan nan nan
nan nan nan
nan nan nan
nan nan nan
nan nan nan
nan nan nan
nan nan nan
nan nan nan
nan nan nan
nan nan nan
nan nan nan
nan nan nan
nan nan nan
nan nan nan
nan nan nan
nan nan nan
nan nan nan
nan nan nan
nan nan nan
nan nan nan
nan nan nan
nan nan nan
nan nan nan
nan nan nan
nan nan nan
nan nan nan
nan nan nan
nan nan nan
nan nan nan
nan nan nan
nan nan nan
nan nan nan
nan nan nan
nan nan nan
nan nan nan
nan nan nan
nan nan nan
nan nan nan
nan nan nan
nan nan nan
nan nan nan
nan nan nan
nan nan nan
nan nan nan
nan nan nan
nan nan nan
nan nan nan
nan nan nan
nan nan nan
nan nan nan
nan nan nan
nan nan nan
nan nan nan
nan nan nan
nan nan nan
nan nan nan
nan nan nan
nan nan nan
nan nan nan
nan nan nan
nan nan nan
nan nan nan
nan nan nan
nan nan nan
nan nan nan
nan nan nan
3 2 1 0
3 0 3 2
3 0 1 4
3 4 1 5
3 3 0 6
3 0 7 6
3 0 4 7
3 7 8 6
3 11 10 9
3 11 9 5
3 9 4 5
3 9 12 4
3 4 13 7
3 4 12 13
3 8 7 14
3 7 15 14
3 7 13 15
3 15 16 14
3 9 10 17
3 17 10 18
3 9 19 12
3 9 17 19
3 12 20 13
3 12 19 20
3 13 21 15
3 13 20 21
3 16 15 22
3 22 15 21
3 18 23 17
3 25 24 23
3 24 17 23
3 24 19 17
3 19 26 20
3 19 24 26
3 28 21 27
3 21 26 27
3 21 20 26
3 21 28 22
3 25 29 24
3 24 29 26
3 26 29 30
3 26 30 27
3 32 31 2
3 2 31 1
3 2 3 32
3 32 3 33
3 36 35 34
3 38 37 34
3 34 37 36
3 31 37 38
3 5 31 38
3 1 31 5
3 39 33 3
3 39 3 6
3 6 8 39
3 39 8 40
3 34 35 41
3 41 35 42
3 41 10 11
3 38 41 11
3 34 41 38
3 38 11 5
3 43 40 8
3 43 8 14
3 14 16 43
3 43 16 44
3 42 45 41
3 10 41 45
3 46 10 45
3 18 10 46
3 22 44 16
3 22 47 44
3 46 48 18
3 18 48 23
3 25 23 48
3 25 48 49
3 27 50 28
3 50 51 28
3 51 22 28
3 51 47 22
3 29 25 52
3 25 53 52
3 25 49 53
3 54 30 29
3 54 29 52
3 50 27 30
3 54 50 30
3 55 50 54
3 51 50 56
3 56 50 55
3 53 57 52
3 52 57 54
3 54 57 58
3 54 58 55
3 55 58 59
3 55 59 56
3 62 61 60
3 64 63 60
3 60 63 62
3 66 65 64
3 64 65 63
3 66 67 65
3 70 69 68
3 72 71 68
3 68 71 70
3 71 72 61
3 72 60 61
3 72 73 60
3 73 31 32
3 64 73 32
3 60 73 64
3 64 32 33
3 74 64 33
3 66 64 74
3 67 66 75
3 75 66 74
3 68 69 76
3 76 69 77
3 76 35 36
3 72 76 36
3 68 76 72
3 72 36 37
3 72 37 73
3 73 37 31
3 39 74 33
3 79 78 40
3 40 78 39
3 78 75 39
3 75 74 39
3 79 80 78
3 76 77 81
3 81 77 82
3 81 42 35
3 81 35 76
3 43 79 40
3 43 44 79
3 44 80 79
3 44 83 80
3 81 82 84
3 84 82 85
3 86 45 42
3 81 86 42
3 84 86 81
3 86 46 45
3 47 88 87
3 83 47 87
3 44 47 83
3 88 89 87
3 85 90 84
3 92 91 90
3 91 84 90
3 91 86 84
3 93 48 46
3 86 93 46
3 91 93 86
3 93 49 48
3 51 94 88
3 51 88 47
3 89 88 95
3 95 88 94
3 92 96 91
3 98 97 96
3 97 91 96
3 97 93 91
3 97 53 49
3 97 49 93
3 56 99 94
3 56 94 51
3 95 94 100
3 100 94 99
3 97 98 101
3 101 98 102
3 103 57 53
3 97 103 53
3 101 103 97
3 104 58 57
3 104 57 103
3 105 59 58
3 105 58 104
3 99 56 59
3 105 99 59
3 106 99 105
3 100 99 107
3 107 99 106
3 102 108 101
3 101 108 103
3 103 108 109
3 111 110 109
3 110 103 109
3 110 104 103
3 104 112 105
3 104 110 112
3 114 106 113
3 106 112 113
3 106 105 112
3 106 114 107
3 111 115 110
3 110 115 112
3 112 115 116
3 112 116 113
3 119 118 117
3 121 120 117
3 117 120 119
3 123 122 121
3 121 122 120
3 123 124 122
3 127 126 125
3 127 125 118
3 125 117 118
3 125 128 117
3 128 61 62
3 121 128 62
3 117 128 121
3 121 62 63
3 121 63 123
3 129 124 123
3 63 129 123
3 65 129 63
3 65 67 129
3 129 67 130
3 133 132 131
3 133 131 126
3 126 131 125
3 131 69 125
3 69 70 125
3 125 70 71
3 125 71 128
3 128 71 61
3 75 135 134
3 130 75 134
3 67 75 130
3 135 136 134
3 131 132 137
3 137 132 138
3 137 77 69
3 137 69 131
3 78 135 75
3 78 80 135
3 80 136 135
3 80 139 136
3 137 138 140
3 140 138 141
3 140 82 77
3 140 77 137
3 83 143 142
3 139 83 142
3 80 83 139
3 143 144 142
3 140 141 145
3 145 141 146
3 145 85 82
3 145 82 140
3 87 143 83
3 87 89 143
3 89 144 143
3 89 147 144
3 145 146 148
3 148 146 149
3 150 90 85
3 145 150 85
3 148 150 145
3 150 92 90
3 95 152 151
3 147 95 151
3 89 95 147
3 154 153 152
3 152 153 151
3 149 155 148
3 157 156 155
3 156 148 155
3 156 150 148
3 158 96 92
3 150 158 92
3 156 158 150
3 158 98 96
3 100 159 152
3 100 152 95
3 152 160 154
3 152 159 160
3 156 157 161
3 161 157 162
3 156 163 158
3 156 161 163
3 163 102 98
3 163 98 158
3 107 164 159
3 107 159 100
3 159 165 160
3 159 164 165
3 162 166 161
3 168 167 166
3 167 161 166
3 167 163 161
3 169 108 102
3 163 169 102
3 167 169 163
3 170 109 108
3 170 108 169
3 170 111 109
3 113 171 114
3 171 172 114
3 114 172 107
3 172 173 107
3 173 164 107
3 164 173 165
3 165 173 174
3 168 175 167
3 177 176 175
3 176 167 175
3 176 169 167
3 169 178 170
3 169 176 178
3 179 115 111
3 170 179 111
3 178 179 170
3 180 116 115
3 180 115 179
3 171 113 116
3 180 171 116
3 181 171 180
3 172 171 182
3 182 171 181
3 177 183 176
3 185 184 183
3 184 176 183
3 184 178 176
3 178 186 179
3 178 184 186
3 179 187 180
3 179 186 187
3 189 181 188
3 181 187 188
3 181 180 187
3 181 189 182
3 192 191 190
3 194 193 190
3 190 193 192
3 196 195 194
3 194 195 193
3 198 197 196
3 196 197 195
3 198 199 197
3 190 191 200
3 200 191 201
3 200 118 119
3 194 200 119
3 190 200 194
3 194 119 120
3 194 120 196
3 196 120 122
3 196 122 198
3 203 202 124
3 124 202 122
3 202 199 122
3 199 198 122
3 203 204 202
3 207 206 205
3 207 205 201
3 201 205 200
3 205 126 200
3 126 127 200
3 200 127 118
3 129 203 124
3 209 208 130
3 130 208 129
3 208 204 129
3 204 203 129
3 209 210 208
3 213 212 211
3 215 214 211
3 211 214 213
3 214 215 206
3 206 215 205
3 215 132 205
3 132 133 205
3 205 133 126
3 134 209 130
3 134 136 209
3 136 210 209
3 136 216 210
3 211 212 217
3 217 212 218
3 211 219 215
3 211 217 219
3 219 138 132
3 219 132 215
3 139 221 220
3 216 139 220
3 136 139 216
3 221 222 220
3 218 223 217
3 225 224 223
3 224 217 223
3 224 219 217
3 224 141 138
3 224 138 219
3 142 221 139
3 142 144 221
3 144 222 221
3 144 226 222
3 225 227 224
3 141 224 227
3 228 141 227
3 146 141 228
3 147 230 229
3 226 147 229
3 144 147 226
3 232 231 230
3 230 231 229
3 228 149 146
3 233 149 228
3 151 230 147
3 230 151 153
3 230 153 232
3 233 234 149
3 149 234 155
3 157 155 234
3 157 234 235
3 235 162 157
3 236 162 235
3 166 162 237
3 162 238 237
3 162 236 238
3 237 168 166
3 172 239 173
3 240 174 173
3 240 173 239
3 238 241 237
3 237 241 168
3 241 175 168
3 241 242 175
3 177 175 242
3 177 242 243
3 245 244 239
3 172 245 239
3 182 245 172
3 239 244 240
3 240 244 246
3 243 247 177
3 177 247 183
3 185 183 247
3 185 247 248
3 188 249 189
3 249 250 189
3 250 182 189
3 250 245 182
3 253 252 251
3 251 254 253
3 256 255 192
3 192 255 191
3 257 192 193
3 257 256 192
3 195 251 252
3 257 195 252
3 193 195 257
3 258 254 251
3 195 258 251
3 197 258 195
3 260 259 199
3 259 197 199
3 259 258 197
3 260 261 259
3 264 263 262
3 255 264 262
3 201 255 262
3 191 255 201
3 202 260 199
3 202 204 260
3 204 261 260
3 204 265 261
3 268 267 266
3 268 266 263
3 263 266 262
3 266 206 262
3 206 207 262
3 262 207 201
3 269 265 204
3 269 204 208
3 208 210 269
3 269 210 270
3 272 271 213
3 213 271 212
3 214 266 267
3 272 214 267
3 213 214 272
3 266 214 206
3 216 270 210
3 216 273 270
3 275 218 274
3 218 271 274
3 218 212 271
3 276 275 274
3 277 273 216
3 277 216 220
3 220 222 277
3 277 222 278
3 275 223 218
3 225 223 275
3 276 225 275
3 279 225 276
3 226 281 280
3 278 226 280
3 222 226 278
3 281 282 280
3 279 283 225
3 225 283 227
3 228 227 283
3 228 283 284
3 229 281 226
3 285 282 281
3 229 285 281
3 231 285 229
3 284 233 228
3 286 233 284
3 286 287 233
3 233 287 234
3 235 234 287
3 235 287 288
3 288 236 235
3 289 236 288
3 291 238 290
3 238 289 290
3 238 236 289
3 292 291 290
3 291 241 238
3 292 293 291
3 293 241 291
3 293 242 241
3 243 242 293
3 243 293 294
3 296 295 244
3 296 244 245
3 244 297 246
3 295 297 244
3 294 298 243
3 243 298 247
3 248 247 298
3 248 298 299
3 302 301 300
3 304 303 300
3 304 300 301
3 304 296 303
3 296 250 303
3 296 245 250
3 307 306 305
3 309 308 305
3 305 308 307
3 252 253 309
3 253 308 309
3 253 310 308
3 312 311 254
3 311 253 254
3 311 310 253
3 312 313 311
3 316 315 314
3 316 314 306
3 306 314 305
3 314 255 305
3 255 256 305
3 305 256 257
3 305 257 309
3 309 257 252
3 258 312 254
3 317 313 312
3 258 317 312
3 259 317 258
3 259 261 317
3 317 261 318
3 314 315 264
3 315 263 264
3 315 319 263
3 314 264 255
3 265 318 261
3 265 320 318
3 322 321 268
3 268 321 267
3 268 263 319
3 268 319 322
3 323 320 265
3 323 265 269
3 269 270 323
3 323 270 324
3 326 325 272
3 272 325 271
3 272 267 321
3 272 321 326
3 273 324 270
3 273 327 324
3 325 328 271
3 271 328 274
3 276 274 328
3 276 328 329
3 330 327 273
3 330 273 277
3 277 278 330
3 330 278 331
3 333 279 332
3 279 329 332
3 279 276 329
3 334 333 332
3 335 331 278
3 335 278 280
3 280 282 335
3 335 282 336
3 333 283 279
3 284 283 333
3 334 284 333
3 337 284 334
3 338 336 282
3 338 282 285
3 340 286 339
3 286 337 339
3 286 284 337
3 341 340 339
3 340 287 286
3 288 287 340
3 341 288 340
3 342 288 341
3 342 289 288
3 343 289 342
3 343 344 289
3 289 344 290
3 346 345 292
3 290 346 292
3 344 346 290
3 347 345 346
3 350 349 348
3 352 351 348
3 352 348 349
3 345 293 292
3 354 353 294
3 354 294 293
3 347 354 293
3 345 347 293
3 355 353 354
3 358 357 356
3 356 357 350
3 356 350 348
3 296 356 348
3 295 296 348
3 295 348 297
3 297 348 351
3 353 298 294
3 360 359 299
3 360 299 298
3 355 360 298
3 353 355 298
3 362 361 359
3 362 359 360
3 301 302 361
3 362 301 361
3 363 301 362
3 356 304 358
3 304 363 358
3 304 301 363
3 304 356 296
3 366 365 364
3 368 367 364
3 364 367 366
3 368 369 367
3 371 370 307
3 307 370 306
3 308 364 365
3 371 308 365
3 307 308 371
3 364 308 310
3 364 310 368
3 372 369 368
3 310 372 368
3 311 372 310
3 311 313 372
3 372 313 373
3 375 374 316
3 316 374 315
3 316 306 370
3 316 370 375
3 376 373 313
3 376 313 317
3 317 318 376
3 376 318 377
3 374 319 315
3 378 319 374
3 320 380 379
3 377 320 379
3 318 320 377
3 380 381 379
3 383 382 322
3 322 382 321
3 322 319 378
3 322 378 383
3 323 380 320
3 323 324 380
3 324 381 380
3 324 384 381
3 385 325 326
3 386 385 326
3 321 386 326
3 382 386 321
3 327 384 324
3 327 387 384
3 385 328 325
3 389 388 329
3 389 329 328
3 386 389 328
3 385 386 328
3 390 388 389
3 391 387 327
3 391 327 330
3 330 331 391
3 391 331 392
3 388 332 329
3 334 332 388
3 390 334 388
3 393 334 390
3 394 392 331
3 394 331 335
3 335 336 394
3 394 336 395
3 393 337 334
3 396 337 393
3 397 395 336
3 397 336 338
3 396 398 337
3 337 398 339
3 341 339 398
3 341 398 399
3 402 401 400
3 399 342 341
3 403 342 399
3 402 400 404
3 402 404 405
3 407 343 406
3 343 403 406
3 343 342 403
3 408 407 406
3 411 410 409
3 409 410 405
3 404 409 405
3 412 409 404
3 407 344 343
3 408 413 407
3 413 344 407
3 413 346 344
3 415 414 347
3 346 415 347
3 413 415 346
3 416 414 415
3 419 418 417
3 417 418 411
3 417 411 409
3 350 417 409
3 349 350 409
3 349 409 352
3 352 409 412
3 414 354 347
3 421 420 355
3 421 355 354
3 416 421 354
3 414 416 354
3 423 422 420
3 423 420 421
3 425 424 422
3 425 422 423
3 424 425 419
3 424 419 417
3 358 424 417
3 357 358 417
3 357 417 350
3 420 360 355
3 360 420 362
3 362 420 422
3 362 422 363
3 363 422 424
3 363 424 358
3 428 427 426
3 430 429 426
3 426 429 428
3 430 431 429
3 426 427 366
3 427 365 366
3 427 432 365
3 426 366 367
3 426 367 430
3 367 369 430
3 369 431 430
3 369 433 431
3 436 435 434
3 370 371 434
3 371 436 434
3 371 437 436
3 371 365 432
3 371 432 437
3 438 433 369
3 438 369 372
3 372 373 438
3 438 373 439
3 434 435 375
3 435 374 375
3 435 440 374
3 434 375 370
3 441 439 373
3 441 373 376
3 376 377 441
3 441 377 442
3 440 378 374
3 443 378 440
3 377 379 444
3 445 377 444
3 442 377 445
3 381 444 379
3 446 382 383
3 447 446 383
3 378 447 383
3 443 447 378
3 448 445 444
3 444 381 448
3 381 449 448
3 381 384 449
3 450 386 446
3 446 386 382
3 446 447 451
3 446 451 450
3 387 449 384
3 387 452 449
3 450 389 386
3 390 389 450
3 451 390 450
3 453 390 451
3 454 452 387
3 454 387 391
3 391 392 454
3 454 392 455
3 457 393 456
3 393 453 456
3 393 390 453
3 458 457 456
3 392 394 459
3 460 392 459
3 455 392 460
3 395 459 394
3 461 396 457
3 457 396 393
3 457 458 462
3 457 462 461
3 460 459 463
3 460 463 464
3 397 465 395
3 465 459 395
3 465 463 459
3 461 398 396
3 467 466 399
3 467 399 398
3 462 467 398
3 461 462 398
3 468 466 467
3 469 464 463
3 402 470 401
3 470 463 401
3 463 465 401
3 470 469 463
3 471 403 466
3 466 403 399
3 466 468 472
3 466 472 471
3 475 474 473
3 474 470 473
3 470 405 473
3 470 402 405
3 471 406 403
3 477 476 408
3 477 408 406
3 472 477 406
3 471 472 406
3 478 476 477
3 475 473 410
3 411 475 410
3 479 475 411
3 410 473 405
3 476 413 408
3 478 480 476
3 480 413 476
3 480 415 413
3 482 481 416
3 415 482 416
3 480 482 415
3 483 481 482
3 485 484 418
3 485 418 419
3 411 418 479
3 479 418 484
3 481 421 416
3 483 486 481
3 486 421 481
3 486 423 421
3 423 487 425
3 486 487 423
3 419 425 485
3 485 425 487
3 488 427 428
3 429 489 428
3 428 489 488
3 431 489 429
3 490 432 488
3 488 432 427
3 491 488 489
3 490 488 491
3 433 491 431
3 431 491 489
3 492 435 436
3 492 436 493
3 436 494 493
3 436 437 494
3 437 432 490
3 495 437 490
3 494 437 495
3 495 490 491
3 495 491 496
3 498 496 497
3 497 496 438
3 496 491 438
3 491 433 438
3 439 497 438
3 500 499 492
3 499 435 492
3 499 440 435
3 500 492 493
3 501 498 497
3 503 501 502
3 502 501 441
3 501 497 441
3 497 439 441
3 442 502 441
3 499 443 440
3 504 443 499
3 503 502 505
3 503 505 506
3 445 505 442
3 442 505 502
3 508 447 507
3 447 504 507
3 447 443 504
3 509 508 507
3 510 506 505
3 512 510 511
3 511 510 448
3 510 505 448
3 505 445 448
3 449 511 448
3 513 451 508
3 508 451 447
3 508 509 514
3 508 514 513
3 515 512 511
3 511 449 515
3 449 516 515
3 449 452 516
3 517 453 513
3 513 453 451
3 513 514 518
3 513 518 517
3 452 454 519
3 520 452 519
3 516 452 520
3 455 519 454
3 517 456 453
3 458 456 517
3 518 458 517
3 521 458 518
3 520 519 522
3 520 522 523
3 460 522 455
3 455 522 519
3 525 462 524
3 462 521 524
3 462 458 521
3 527 526 525
3 527 525 524
3 529 528 526
3 529 526 527
3 530 528 529
3 531 523 522
3 522 460 531
3 460 532 531
3 460 464 532
3 525 467 462
3 467 525 468
3 525 533 468
3 525 526 533
3 534 526 528
3 533 526 534
3 528 530 535
3 528 535 534
3 464 469 536
3 537 464 536
3 532 464 537
3 470 536 469
3 538 472 533
3 533 472 468
3 539 533 534
3 538 533 539
3 534 535 540
3 541 534 540
3 539 534 541
3 542 541 540
3 537 536 474
3 475 537 474
3 543 537 475
3 474 536 470
3 538 477 472
3 477 538 478
3 538 544 478
3 538 539 544
3 545 539 541
3 544 539 545
3 541 542 546
3 547 541 546
3 545 541 547
3 548 547 546
3 551 550 549
3 550 543 549
3 543 479 549
3 543 475 479
3 544 480 478
3 480 544 482
3 482 544 545
3 482 545 483
3 545 552 483
3 545 547 552
3 547 548 553
3 554 547 553
3 552 547 554
3 554 553 551
3 554 551 549
3 485 554 549
3 484 485 549
3 484 549 479
3 552 486 483
3 486 552 487
3 487 552 554
3 487 554 485