OFF
609 1164 0
1.2828735841 7.0848264739 7.8801388458
1.4399803044 6.9012183634 6.9331573448
1.8656708479 6.3760719609 7.4096124661
1.7350708262 6.4565163643 8.5822720725
1.3266745464 7.0352248263 9.0181021453
1.6986110039 6.5631257578 9.3794875132
1.4642703254 7.5827929673 5.0929454255
1.6360872241 7.7556082522 4.8236545360
1.7462929449 7.4136430588 4.8467288821
1.5329867211 7.3103656882 5.3288491251
1.3198389870 7.6671423334 5.7058307379
1.5248299837 7.0596641087 6.0453136945
1.1930634818 7.5564667607 6.8206669033
1.0620048977 7.7928641540 7.7692579235
1.0971629727 7.6976144616 8.6693399235
1.5253522343 6.9578380820 9.8614005709
1.2449950090 7.6323158865 9.7620764674
1.5359024658 7.3363055260 10.5306193064
1.3664656007 7.8150877034 10.5568990313
1.5964102226 7.6716550145 11.0262171878
1.4507766560 7.8717064749 5.1502387579
1.4053525347 8.1851181347 5.5614062233
1.2486524599 8.1889780945 6.2777015798
1.3903984725 8.4912161436 5.9682529787
1.1649503551 8.3060515744 7.2308701246
1.1322743343 8.3703396240 8.2652585203
1.2271720725 8.3554392913 9.3162804842
1.3709772206 8.2943491268 10.2883661995
1.5516887370 8.1334125013 11.0082665348
1.5127732005 8.8843233301 6.5445789301
1.4085788960 8.9856330968 7.7465934028
1.4608930770 9.0331848617 8.8352151422
1.6901428367 9.0545717397 10.0106967336
1.7316845993 8.6944298502 10.9287469168
1.7688780694 6.5949773057 6.5278889792
1.9560923554 6.6211531848 5.9092754875
2.3552276838 6.1712805580 6.3346101221
2.6259580294 5.7589201534 7.3104615313
2.3596403398 5.8890433826 8.3082945407
2.3844581708 6.0004263423 9.5357888331
1.9084237493 6.5117768819 9.9308488347
2.2749382174 6.3386262850 10.3561367574
2.0247397858 7.7819511302 4.5176257476
2.1674380457 7.2609098813 4.5545905050
1.9514610804 6.9496282593 5.2090113906
1.9119479277 6.7962568363 10.5272645848
2.0100224431 7.2141368551 11.3009058729
1.8646372357 7.8667649234 11.5269745945
2.2635801032 7.5654211472 12.0142561409
1.7617170332 8.2300459776 4.9695631612
1.6386729184 8.6510068070 5.6318300474
2.0299036134 8.8412340559 5.1800912696
1.8520831223 8.3725976026 11.4789137236
2.2144958348 8.2136772384 12.0659817551
1.9533811596 9.2103968692 5.8414919507
1.9320007711 9.5107422311 6.5090316354
2.2610435051 9.7392774839 6.0906406004
1.8190918180 9.5556492188 7.2881914781
1.8202377242 9.6248705895 8.3000299153
1.9857356131 9.6878448928 9.3168873308
2.4052716401 9.8599390181 10.3486285314
2.1627702246 9.3154016655 10.9701672185
2.1760964444 8.8523288734 11.6665805139
2.2638035953 10.0048496355 6.8337592669
2.2460523746 10.1324479074 7.7939105086
2.3264333103 10.1925775542 8.7633783473
2.5159959956 10.2313073949 9.5965557244
3.0003584105 5.3969995644 8.0928990774
3.3248810087 5.2400176514 7.3209146753
3.5552311473 5.0105029920 8.0066207660
3.4804560170 5.0683392502 8.7229400800
2.8972900801 5.4911528320 8.9501910306
3.4233836760 5.1848366879 9.5250934700
2.9484604007 5.5202101917 9.5389034289
3.1822190909 5.4839577104 10.1373998029
3.0783971471 6.7973206771 3.6463630137
3.4909265132 6.6573431052 3.0449151054
3.3923735859 6.3338668062 3.5289331361
3.2687127267 6.1658899713 4.1565206314
2.6229170775 6.7125452465 4.5699719273
3.0160074667 5.9634663402 5.3092169119
2.3640361899 6.4604630129 5.4531165129
3.1151867125 5.5661616415 6.4285761114
2.8197474125 5.9500175845 10.6564603250
2.4595479437 6.5104489661 11.1190016518
3.1119665865 6.0262531193 11.6640013851
2.7007008878 6.8332194502 12.1557746308
3.4058157425 6.0860605389 12.7466738393
3.1401660293 6.8276316503 13.2972162319
3.8506190268 6.0523746802 13.9540120429
3.4450932086 6.8928815648 14.2450282106
3.8728471877 6.4491167543 14.6939578272
3.2630627263 7.5123722665 3.0006019177
3.9289878572 7.6502915731 2.1873249214
3.6126486496 7.0761978714 2.5839538686
2.6263353805 7.5817186105 3.9585085044
2.6887104980 7.7311679816 12.8456723374
3.0734305502 7.4946614368 13.7769784821
3.8093032202 6.9573227154 15.0611101603
3.3662123729 7.6914411547 14.6067662214
3.7338319254 7.5902794549 15.3282206224
3.4820512912 8.3131549055 2.7028347638
4.0124228999 8.6996092506 2.3580660530
3.0308960408 8.5622881030 3.4823116192
2.3954385015 8.5690249179 4.4550733758
2.6685990910 8.8281132201 12.6335871960
3.0407628115 8.3871147627 13.7874373919
3.3520528459 8.4525123393 14.6609231244
3.5746551327 8.1317654610 15.1760745974
3.5332736375 9.0634041385 2.9619493043
3.2674037699 9.3710553609 3.5522357328
2.9535023419 9.4753883469 4.2680502269
3.3549521745 9.8658107908 3.9358439210
2.4733894323 9.4975322495 5.2511488919
2.5436603908 9.7516291166 11.0656980051
2.6651103705 9.5511138444 11.7764817687
2.9928056181 9.6023409222 12.6592618701
3.1179332757 9.3203115726 13.4429697546
3.3567386005 9.1242052933 14.3221537528
3.2734856860 10.1150788393 4.4230565629
3.0366132044 10.1471531526 5.0183553958
3.3699241815 10.4215183389 4.7516461697
2.7549258696 10.2826186105 6.0688338815
2.6885999022 10.5445579065 7.2429432048
2.7074019530 10.6339425714 8.2712108647
2.8367259813 10.6521875082 9.2205437887
3.0995285864 10.6182490638 10.3057320859
2.9930647689 10.2036201596 11.2079749767
3.2161797501 10.1355932853 12.2133211341
3.3712367676 10.0116343380 13.1577055243
3.4523156618 9.7661862571 13.9237385198
3.4865022606 10.7438915138 5.3702390713
3.1243932551 10.8728720862 6.6533161419
3.0368834002 10.9640001528 7.7551383720
3.0889133085 10.9861714690 8.7388471512
3.2139155494 10.9541753759 9.5636110577
4.0465395394 4.7179492920 7.5070006459
4.3126302694 4.6056521187 6.7901305319
4.8418095444 4.2163898968 7.2582521174
4.5972620480 4.3340996744 8.1048051731
3.8567294049 5.8726062369 3.4845395884
4.4132811711 5.6414516182 2.8603092155
4.3815960960 5.3348498349 3.4382423300
4.3572203954 5.1383892605 4.1079528520
3.7422198342 5.5251429416 4.6291049230
4.3036818645 4.9190201352 5.1344816620
3.6994145361 5.2797612820 5.6949284433
4.2660280161 4.7574184053 6.0675772563
3.7804291665 5.0221073744 6.6334710014
4.0667230654 4.6777194587 8.4444072163
4.0873827970 4.7322747487 9.3643358502
4.0317740442 4.9179942028 10.4396649557
3.5358196304 5.4406667123 11.1202559138
4.2792805157 4.9217078710 11.6587758879
3.7911860409 5.4563002805 12.1862650432
4.4761293512 4.9366005363 12.7420394323
4.0521806388 5.4641529979 13.2241974729
4.8063039630 4.9527031147 13.8396752085
4.2674759913 5.4551649759 13.8762935316
4.5996779225 5.4527692406 14.4525145939
4.0413185110 6.5102197821 2.4452517417
4.6042945655 6.2752385989 1.9114738927
4.4566720453 5.9650712255 2.3243070130
4.5186433903 5.9752154651 15.0401245210
4.0931634902 6.4645633884 15.1015463133
4.4136056761 6.5459664728 15.5249252799
4.4430689395 7.0042114382 1.7354524794
5.0377119816 7.1540323781 1.3444422341
4.9066358097 6.6104015794 1.4780198315
4.1962971977 7.1830125397 15.7357032887
4.0121669940 8.0553633760 15.8292882034
4.6607144386 7.2739466153 16.2971180955
4.5789336888 7.6265041086 1.6052545709
4.6178657030 8.2843909838 1.8361059397
3.6868546746 8.9043303109 15.2097852168
4.0012652383 8.9755132347 15.8473205215
4.4098260809 7.8261441005 16.3030606724
4.1403373448 8.5987176587 16.1184143260
4.1110871838 9.5107916841 2.7813026612
4.8560912585 9.1579392623 2.2710183722
3.6638094412 9.7707227018 3.4031861655
3.7220968010 9.7619149153 14.6710811770
4.0943701007 9.7800409561 15.5428664896
4.2961820306 9.5513499463 16.0742945795
4.7555034712 9.9259073390 2.8667262131
4.2267410830 10.1673850545 3.3508601924
4.7708980062 10.3877828100 3.3422104781
3.7699770305 10.4029571659 4.2079238775
3.3779569959 10.6539482779 11.0960216073
3.5288757561 10.6373636528 11.7635396258
3.6814676872 10.5725078054 12.7525505355
3.8041255814 10.3855615665 13.8809245530
4.0987489121 10.3876606192 14.8924785690
4.4060554647 10.4498935930 15.5304089466
4.6966870219 10.2816505771 16.0450758431
4.7618064413 10.1053119915 16.2698086232
4.5906971861 10.6446770544 3.9076075857
4.4516459019 10.9751997972 4.7428134431
4.0201771680 11.1055972790 5.3384575104
4.7477719990 11.2434885233 5.0656830077
3.4733784009 11.0604138258 6.1609255634
3.2416984940 11.1088288959 7.2294783476
3.2148992430 11.1375880942 8.2622155897
3.3122440451 11.1167014898 9.2259596177
3.5014278325 11.0385432468 10.2683994373
3.6869718333 10.9606637368 11.1991033763
3.9223398754 10.9737206928 12.2461524847
4.0583267361 10.9141187919 13.3065201435
4.2228881675 10.8367518956 14.3574418239
4.4191997047 10.7647082722 15.1346934759
5.0043757792 4.9017752921 3.4144331953
5.4434300197 4.8857194832 2.6489639972
6.0040383626 4.3865852907 3.2018359979
5.7368209617 4.2090228384 4.2558282419
4.9546857619 4.5637170479 4.6552973709
5.5787209170 4.0535255757 5.3567664625
4.8401001016 4.4249883661 5.6789747557
5.2938061519 4.0388873343 6.3698743027
4.6992059003 4.3870758510 6.4454883421
5.6983056355 3.7147174317 7.2076225808
5.3909334655 3.8635808227 8.3109294809
4.7524101058 4.2826726242 8.9930499964
5.6457963868 3.8332904734 9.6628969120
4.8357627861 4.3500135405 10.0866022485
5.6596542175 3.9885096907 10.8840913030
4.9053462117 4.4364639549 11.2163295389
5.6918463582 4.0828749650 11.9840091902
5.0085209452 4.4794001636 12.3035513983
5.7276300280 4.1592222262 12.9940140488
5.1244607118 4.5188307775 13.2612425564
5.7125110752 4.2850326760 13.8034312809
5.2564102503 4.5325081440 13.8282343555
5.5590274912 4.5462113936 14.3109211207
4.9668073372 5.4925303460 2.3084307619
5.5285041810 5.3830176900 1.8467587199
5.4414326992 5.1020743954 2.2211348371
5.4948593019 4.9783442062 14.8866052338
4.9648263348 5.4510371699 14.9917866529
5.3829518430 5.4916021580 15.4520623459
5.1696359509 6.0045123791 1.6238435922
5.5955374279 6.4405452538 1.2469592393
5.7105131612 5.7701570816 1.4309021108
5.3183748147 6.0488608646 15.9337805337
4.7597623395 6.7372099144 16.0418289348
5.2253978576 6.6638738552 16.4023950769
5.8372521395 7.1567770083 1.1926808413
5.1146090818 7.0466220731 16.6113188548
5.2328954788 7.8023923158 1.4264139089
5.5137493837 8.4771975604 1.7599454818
4.8717605487 7.3360819438 16.5744593401
5.8715021231 9.1097398798 2.2297326704
5.5351012735 9.7125459369 2.7078529339
5.1534123201 10.6117699672 3.6904109691
5.3656127928 10.2522020844 3.2416283190
5.8128793290 10.5417775305 3.8419774133
4.8219318921 10.7820527244 15.7076748239
5.2937183984 10.6580033478 16.1479137091
5.3906010458 10.4557841574 16.3224796021
5.4051677628 10.8847904274 4.3914336957
5.3042931148 11.3198674640 5.1581427005
5.3507885857 11.1924827405 5.0031295388
5.9228788820 11.2489283823 5.3662002748
3.8271721560 11.1385145537 11.0688241532
3.9933201539 11.1426780276 11.8002535438
4.1442166973 11.1225719608 12.7856701159
4.2917878317 11.0645615037 13.8583129150
4.5563783768 10.9786531532 14.9736820140
4.9541173528 10.9694514701 15.6222263807
5.4773328894 10.8793283240 15.9766698323
6.2335843742 3.3770394358 7.9610897946
6.3908152867 3.3418687102 7.0977047838
7.0873937706 2.9714815174 7.5187996163
6.8967597257 3.0873684628 8.6608181640
6.1771071442 3.4442024646 8.9658434475
6.7645635448 3.2230684261 9.4361463254
6.3817645817 3.4488137255 9.7703783512
6.9916943569 3.2732696882 10.1452068671
5.9640642622 4.8253050392 2.2488885257
6.5878304654 4.7984451608 1.9210403497
6.7973690928 4.3604028172 2.6059945153
6.7877392486 4.0203492246 3.3942015432
6.4692921419 3.9515469433 3.9719488664
6.5363696709 3.7019545060 4.9397373172
6.1968609157 3.5879157528 6.1942916961
6.5010113341 3.5714012444 10.6540313568
6.4635121278 3.7334307391 11.7358685497
6.4823504356 3.8312891941 12.7773236465
6.4965292798 3.9736969833 13.7559505553
6.3039338170 4.2517562798 14.4824019452
5.9825713911 4.5355583923 14.7816803822
6.6475669417 4.5355862824 15.2233248977
6.1325678516 5.2549375015 1.6220972964
6.2982755575 5.7883316819 1.2574830934
6.8321609138 5.1833789279 1.5029213999
6.2108184057 5.1175748380 15.6803693112
5.8521086251 5.5132300512 15.8850578198
6.4330875078 5.4737521385 16.2108391720
6.4915094217 6.4327760458 1.1226348565
5.8904613646 6.0902815874 16.4223337610
5.4095856048 6.7416892519 16.6247305260
6.7248298723 7.0826875003 1.2288504221
5.1856323719 7.0776744718 16.6994016601
6.1226766056 7.7985203223 1.4141082998
6.6331889238 8.3881753852 1.9154703627
6.6753735041 9.0711174989 2.4910392939
6.2201638083 9.5168908320 2.6930338050
6.7435367678 9.4612563465 2.9454692517
6.3921543136 9.9529264300 3.3950419304
6.4752245045 10.4287301941 4.1312766268
6.1302386621 10.4701702395 16.3776141786
6.1323694373 10.6652242035 16.1531316243
6.1938894794 10.7380861931 4.4617976013
6.4525490096 10.9643133789 5.2828554917
6.6855635337 11.1781202602 5.9802712016
6.8281527697 11.2886425775 14.4636552975
7.1275737047 11.1697178024 13.9638602374
6.9895510426 11.3255901531 13.8714698903
6.6113539535 11.1565627930 15.1818990872
6.8635860498 11.1431664407 14.7928907488
6.2175368787 10.9690274408 15.7859893050
6.7375742062 10.8813253330 15.5013600318
7.1158597239 3.2620342525 5.7505288418
7.3787682607 3.3976637691 4.9597903433
7.9560571764 3.1212016288 5.4051192316
7.8303986575 2.7702958178 6.4779025434
6.8960600991 3.1645567083 6.5995916421
7.8476384667 2.5589054945 7.4464052966
7.8073492012 2.6983641153 8.4476006480
7.5736565085 3.0131676853 9.6487194917
7.6178927128 3.1636926952 10.5481017131
7.2569853719 4.6813499132 1.9766360451
7.6619505124 4.3011335526 2.6202411630
7.3578662257 4.0136984741 3.1966253657
7.3617894415 3.7114536965 4.0875538076
7.2393254273 3.3287935504 10.8412107705
7.2199579130 3.4440578604 11.5623116932
7.2430594161 3.5374297130 12.5359444309
7.2992001300 3.6476814865 13.5486954782
7.5125453695 3.9142073543 14.6913994887
7.6194535023 4.3596589690 15.5452769374
7.0990276840 5.7348940415 1.2416073836
7.5687715879 5.1478018217 1.5756568570
7.3820951535 4.8716999733 16.0164230971
7.2668877885 5.2506187770 16.4369040983
7.4030861625 6.3567335227 1.2308837512
6.8193654690 5.5234217440 16.5072630010
7.5441897738 7.0097250575 1.4939840181
6.9051751613 7.6303018488 1.5057348834
7.4414706348 7.7562759846 1.8743448102
7.3849118777 8.2717422653 2.1920425730
7.1689971731 8.6755732307 2.4051718755
6.9922458254 9.5363329859 3.2733492829
7.4515013329 8.9850750866 3.0750891934
7.3429806121 9.5648096811 3.7821757279
6.8488880431 10.2536058731 16.2664035098
7.5643653956 9.6604836768 16.1404194829
7.3626062838 9.9985321403 16.0732421476
6.8487097539 10.5489427566 4.7875950886
7.1194402903 10.0821858055 4.3232404111
7.1115918181 10.6220715331 5.3151013990
7.6747025498 10.1313143420 5.3050612781
7.4119332960 10.6316630568 5.9127678017
6.9726232485 10.4409647215 15.9610753868
7.4478144227 10.1369283040 15.7282721378
7.2312159854 10.5252014130 15.4506640801
7.2262418484 11.1725972324 6.8896024149
7.1928843883 11.0024296654 6.3759869994
7.5137955991 11.1742174102 7.8687136277
7.5753893319 11.0104444079 7.3592872145
7.6316510742 11.1745480332 8.8960317170
7.7487321991 11.0119392555 8.3672027143
7.6556357530 11.1729517339 9.9601949687
7.8047389816 11.0091062616 9.4123110074
7.6139713242 11.1712815760 11.0551278428
7.7987651327 11.0014749350 10.4894460636
7.4838750972 11.1822024659 12.1779182306
7.7333645551 10.9866799598 11.6109072382
7.2309505331 11.2505378871 13.2100083348
7.5589518472 10.9755328158 12.8710453454
7.5186771612 10.8152739767 13.8073287884
7.2594274514 10.7952389723 14.7089988432
8.3910909214 2.2503854747 7.0554178285
8.8057038449 2.3196397121 6.4943442839
8.9008799087 1.9514617295 6.9091867631
8.8173976692 1.9567835725 7.4105651716
8.3417349285 2.2923228662 7.8258196199
8.9086594320 2.1682809639 8.1195092430
8.5021473800 2.4341112539 8.5389704763
8.9141590742 2.4586178174 8.7622659649
7.9448232154 3.3897977287 4.6962522290
8.2541530105 3.6324025917 4.2372772792
8.7437123478 3.3523921288 4.9284592635
8.7656698161 2.8302337668 5.8067324246
8.6582533237 2.8111004205 9.5125388662
8.4142777076 3.0932660109 10.8178491992
7.8581990223 3.2313150511 11.3382308312
8.5707865218 3.2075656406 12.0441128762
7.9379383212 3.3082613842 12.2891298361
8.5698025183 3.2631898862 13.0382467502
7.9569712045 3.3770469104 13.2294776090
8.4714542670 3.3170615021 13.7584535922
8.0269027089 3.4793782046 14.0792638642
8.5719433296 3.4282253094 14.3676849116
8.1830834363 3.5624584518 14.5778297495
8.5007538921 3.7046709258 14.8990397970
7.9698175327 4.7406477686 2.1181678103
8.2822876461 4.4634889623 2.7401396883
8.1330741794 4.0255417384 3.4453533668
8.3856354192 4.1860998744 15.5087106656
8.0313134980 4.5145929890 15.8740829408
8.5657000734 4.8098676124 16.0496038593
7.8307499344 5.6978159394 1.4308933758
8.1399571070 5.2360362043 1.8120616266
7.9579405899 5.1417587261 16.3732916386
7.4218283130 5.2985374116 16.5517140838
7.9912583476 6.1539702018 1.4441469136
7.8326742635 6.4957645750 1.3838371663
8.1386817487 6.5439076761 1.7294902157
7.9258695407 7.9400880978 2.4245591406
8.0618226675 7.2247392883 2.0630304563
8.3802755421 7.4650249714 2.6404527958
7.6137139999 8.4751651554 2.5688933749
8.3014916717 7.9497770649 2.9448895314
7.9557693859 8.3686075741 2.8812682029
8.2534133575 8.3756519595 3.4328745524
8.4436768039 8.9506476028 14.4518156477
8.7528016617 8.4431018066 13.9886446485
8.5904204081 9.0432556483 13.5907979591
8.3508224580 8.7984602600 15.2394116911
8.7029930807 8.2348015914 14.7227242493
8.3199236089 8.6498125409 15.7766757284
8.6563549448 8.0568733069 15.4678588211
8.1000165296 8.9383332594 16.0131428361
8.6040125101 7.9736007034 15.9297487379
7.8816557775 9.5851497509 4.6448766006
8.0906294493 8.9867626478 4.0591268551
8.2078097832 9.5818058908 5.2482453833
8.6633265285 8.9111811114 5.1409144250
8.4696282533 9.5339121247 5.8794014347
8.1489147948 9.7410555031 14.1107452123
8.3978302885 9.6620949188 13.2088498027
8.1110924709 9.4291470117 14.9475142639
7.8805395931 9.4723088800 15.7092940548
7.8019663100 10.6391714026 6.8610339722
8.1259531672 10.1170361334 6.3698211879
8.0190622957 10.6434059747 7.8436799260
8.3686723922 10.1263706466 7.3515344312
8.1040055111 10.6389720300 8.8547649964
8.4617026836 10.1375029287 8.3027174259
8.1223898506 10.6243124133 9.9001189869
8.4960238036 10.1067990952 9.2853149381
8.1028145901 10.5955010740 10.9757437510
8.4936343720 10.0679944723 10.3146099105
8.0455667923 10.5270667542 12.0883510013
8.4703536501 10.0003632866 11.3633856863
7.9832712510 10.3461069843 13.2486186225
8.4285212095 9.8706310931 12.3875374564
7.7293020987 10.4209915467 14.1984994962
7.6992054681 10.1142905560 15.0252585395
9.2242196438 1.7276630141 7.1193421708
9.3247960364 1.9520041258 6.7406321109
9.5186708937 1.7071456341 7.0221270097
9.4787159148 1.6605239349 7.2858419259
9.2528878146 1.8444484806 7.5964401445
9.5795295286 1.8801766322 7.5608773120
9.6708181585 2.6028482557 6.3244351099
9.4585815160 2.3011243585 8.1532067180
9.1642746247 2.3680308305 8.5330974860
8.9936922837 4.0024903104 4.1798973516
9.6128251044 3.7360918804 4.9264288354
9.5758035476 3.1898024301 5.4986822340
9.3578978848 2.7908045574 9.0630482253
9.4038080581 3.1711733278 10.0081451591
9.2345724482 3.2498110213 10.8129232965
9.1814957661 3.3377897441 11.8860293395
9.1520644934 3.3797407209 12.9427739588
9.0066585624 3.4104203610 13.9091667164
8.9682103617 3.5727503915 14.6348524464
9.3183871706 3.7339196018 14.5227237927
8.5830245718 5.0927301821 2.5062699168
8.8098972765 4.5577115967 3.3338891321
9.4146504666 4.7486147841 3.9960383141
9.7829269147 4.3984269875 4.6127917838
9.1007233881 3.9840192737 15.1596386285
9.0125823419 4.3859814988 15.7126449474
9.2204868691 4.7453026882 15.8423647384
8.3823229073 5.8474610890 1.9345066127
8.8443643314 5.8686063819 2.7157088627
9.1912790654 5.4122179782 3.4248933206
9.6479001492 5.3607254422 4.1303084684
9.8735857675 5.0133346387 4.4955591127
8.8319656041 5.5541863087 16.2365747552
9.1931021967 5.3197599077 15.9391909344
8.5917680254 6.6911937107 2.5173191923
9.1439018326 6.5107214812 3.5138241434
9.5889383215 6.0122885590 4.1197897152
9.3828277331 6.8218050321 14.1712797106
9.6920274027 6.1106999831 13.7100141152
9.6008587628 6.5864878693 13.2903674840
9.2875550856 6.5705529038 15.1908215032
9.6095118141 5.9331929925 14.5193803634
9.1417504783 6.2397878973 15.9450963648
9.4685198587 5.6851682629 15.3848833305
9.0158409828 6.2663958134 16.2269813171
8.7139176856 7.5346410333 3.3701089682
9.5201877690 6.6905435234 4.3204826050
9.2296122762 7.4200361294 4.3584262087
9.4620052317 7.6345853281 5.1346434637
9.6715936875 7.0323216810 4.9585031474
9.7341013538 7.3558776895 5.5695154593
9.4472394552 8.1130847816 8.9640078861
9.7636779402 7.4309052367 8.4753561648
9.6069017035 7.9472043315 8.0667368388
9.4355907177 7.8977172961 10.0933825764
9.7385893711 7.2284321313 9.3252670251
9.4067266884 7.7537233476 11.1608563702
9.7059489676 7.0451578659 10.3569626340
9.3658673122 7.5843801264 12.2238398838
9.6712589026 6.9060298162 11.4144396806
9.3439484314 7.3008474642 13.2265379284
9.6386024963 6.7389103931 12.4447171539
9.0319675076 7.7486866482 14.0426455360
9.0074326191 7.4452956955 14.9390189333
8.9560852638 7.2210873065 15.6977438375
8.9534498244 6.9479979630 16.0829364614
8.7225123072 8.2571460576 4.2333788821
9.1298284884 8.1017376746 4.9449373753
9.3988688343 8.0771807638 5.7455891030
9.2201874015 8.7949598817 7.9860528510
9.5628618127 8.1676273344 7.4591546756
9.2989443777 8.6768021703 7.0652258349
9.1254196231 8.9164828029 9.0097722373
9.1521484821 8.7236618475 9.8656224153
9.1343235146 8.5906113408 10.8962316510
9.0880395634 8.4499001546 11.9533932293
8.9951129065 8.2528771818 13.1002969405
8.8105725176 9.4092570109 6.9526441783
9.0841530288 8.8201402516 6.2546659065
8.7815332890 9.6142356871 7.8386232550
8.8515375655 9.5169755992 8.6672269958
8.8482160655 9.4658417382 9.6310897995
8.8386170763 9.3784624451 10.6327789928
8.8061546545 9.2703448376 11.6616221358
8.7382104753 9.1217296777 12.6584398068
9.7297040402 2.0590262765 6.9352904204
9.6768682063 1.8051804419 7.2481567389
10.0723882157 2.6092693432 6.9822503456
9.8727670700 2.3631421057 7.5677628704
10.1153013482 3.6289011327 5.3632213521
10.3304831727 3.3674563778 5.8764793633
10.4733866524 3.1538520351 6.6772968216
10.8157148888 3.7407808188 7.2023626495
10.3637917306 3.3019103961 7.6008732020
9.9372155293 3.2389518616 8.6289790208
9.8032745598 3.5685359758 9.8307635640
9.7430811345 3.7094393010 10.8396944426
9.6813855105 3.7567880531 11.8352402298
9.6203042626 3.7781943700 12.8692123951
9.5016804034 3.7649582141 13.8438991551
10.2362573647 4.1598470809 5.1385824762
10.5062119978 3.9059444120 5.4996972608
10.6632107843 4.0702671586 7.7456961234
10.6631490582 4.7812709955 7.9170466467
10.3517452558 4.3544108310 8.5329845062
10.0907096010 4.3413703092 9.6827072496
9.9971582385 4.3928542259 10.7675804328
9.9516521593 4.3922035059 11.7705722862
9.8901422802 4.4102362134 12.7723550840
9.7811155855 4.4004201228 13.8047247830
9.5698036241 4.2910166886 14.7792068662
9.3803825426 4.4282891939 15.4882841228
10.0185246377 5.7060683487 4.7974893945
10.3246083944 4.9309543910 5.0801135503
10.3399052901 5.5841719161 8.5179752426
10.6284176557 5.4488124822 7.7289534338
10.1565256259 5.3368239238 9.6003515276
10.0526953529 5.2524509901 10.6836534207
10.0048339291 5.1757871477 11.7225148199
9.9725328167 5.0281238569 12.5594118046
9.8496219516 5.2661291458 13.5929683928
9.7105378322 5.0786120038 14.6665956182
9.5129128623 4.9131990473 15.4529472177
9.8114019691 6.4088811573 4.7423675844
10.4923798374 5.6364717273 5.5797372173
10.0984179777 6.5255045255 5.6154952783
10.2933514114 6.5309220146 6.7392846490
10.5431847777 5.9904883570 6.2341017598
10.3540902773 6.2105219300 7.6873951511
10.6952122272 5.6902398138 7.0118040357
10.0367341774 6.6704050094 8.5165972932
10.0007487732 6.3325753586 9.5011644725
9.9354955693 6.1647034475 10.5573357990
9.8907114336 6.0430494364 11.6260386927
9.8475846293 5.8717128968 12.7457489852
9.8752294610 7.3414486064 6.3257264308
9.9155002136 7.3020366106 7.5034955448
9.5692083259 8.0905194385 6.7272963180
10.6938112435 3.4466785989 6.2375448725
10.8382091857 3.4760785809 6.7605584389
10.9750508014 3.8113246766 7.0414765144
10.6650009857 4.4828424832 5.4588887248
10.7216068245 3.9849157307 5.7486648078
10.8633579743 4.3589430632 7.4990264108
10.9756738114 4.3755021680 7.2220331401
10.7286204607 5.0793091764 5.6063641251
10.8478541512 4.7696395876 5.7489462895
10.8609923062 4.9620299433 7.4058507260
10.9215726489 5.1255989494 6.9722392192
10.8004633985 5.4170929382 6.1977585188
3 2 1 0
3 4 3 0
3 0 3 2
3 4 5 3
3 8 7 6
3 10 9 6
3 6 9 8
3 12 11 10
3 10 11 9
3 11 12 1
3 12 0 1
3 12 13 0
3 0 14 4
3 0 13 14
3 5 4 15
3 4 16 15
3 4 14 16
3 18 17 16
3 16 17 15
3 18 19 17
3 7 20 6
3 6 20 10
3 10 20 21
3 23 22 21
3 22 10 21
3 22 12 10
3 12 24 13
3 12 22 24
3 13 25 14
3 13 24 25
3 14 26 16
3 14 25 26
3 16 27 18
3 16 26 27
3 19 18 28
3 28 18 27
3 23 29 22
3 22 29 24
3 24 29 30
3 24 30 25
3 25 30 31
3 25 31 26
3 26 31 32
3 26 32 27
3 27 32 33
3 27 33 28
3 36 35 34
3 1 2 34
3 2 36 34
3 2 37 36
3 38 2 3
3 38 37 2
3 40 39 5
3 39 3 5
3 39 38 3
3 40 41 39
3 43 42 8
3 8 42 7
3 44 8 9
3 44 43 8
3 11 34 35
3 44 11 35
3 9 11 44
3 34 11 1
3 15 40 5
3 45 41 40
3 15 45 40
3 17 45 15
3 47 46 19
3 46 17 19
3 46 45 17
3 47 48 46
3 42 49 7
3 7 49 20
3 49 51 50
3 21 49 50
3 20 49 21
3 50 23 21
3 28 52 47
3 28 47 19
3 48 47 53
3 53 47 52
3 51 54 50
3 54 56 55
3 54 55 29
3 50 54 29
3 23 50 29
3 57 30 29
3 57 29 55
3 58 31 30
3 58 30 57
3 59 32 31
3 59 31 58
3 32 59 60
3 61 32 60
3 33 32 61
3 28 33 52
3 33 62 52
3 33 61 62
3 52 62 53
3 56 63 55
3 55 63 57
3 57 63 64
3 57 64 58
3 58 64 65
3 58 65 59
3 59 65 66
3 59 66 60
3 69 68 67
3 71 70 67
3 67 70 69
3 73 72 71
3 71 72 70
3 73 74 72
3 77 76 75
3 79 78 75
3 75 78 77
3 81 80 79
3 79 80 78
3 35 36 81
3 36 80 81
3 36 82 80
3 37 67 68
3 82 37 68
3 36 37 82
3 67 37 38
3 67 38 71
3 71 38 39
3 71 39 73
3 84 83 41
3 41 83 39
3 83 74 39
3 74 73 39
3 86 85 84
3 84 85 83
3 88 87 86
3 86 87 85
3 90 89 88
3 88 89 87
3 90 91 89
3 94 93 92
3 94 92 76
3 92 75 76
3 92 95 75
3 95 42 43
3 79 95 43
3 75 95 79
3 79 43 44
3 79 44 81
3 81 44 35
3 45 84 41
3 84 45 46
3 84 46 86
3 86 46 48
3 96 86 48
3 88 86 96
3 88 97 90
3 88 96 97
3 91 90 98
3 90 99 98
3 90 97 99
3 99 100 98
3 92 93 101
3 101 93 102
3 92 103 95
3 92 101 103
3 104 49 42
3 95 104 42
3 103 104 95
3 104 51 49
3 53 105 96
3 53 96 48
3 96 106 97
3 96 105 106
3 108 99 107
3 99 106 107
3 99 97 106
3 99 108 100
3 102 109 101
3 101 109 103
3 103 109 110
3 112 111 110
3 111 103 110
3 111 104 103
3 113 54 51
3 104 113 51
3 111 113 104
3 113 56 54
3 60 114 61
3 115 62 61
3 115 61 114
3 105 53 62
3 115 105 62
3 116 105 115
3 105 117 106
3 105 116 117
3 107 106 118
3 118 106 117
3 112 119 111
3 121 120 119
3 120 111 119
3 120 113 111
3 122 63 56
3 113 122 56
3 120 122 113
3 123 64 63
3 123 63 122
3 124 65 64
3 124 64 123
3 125 66 65
3 125 65 124
3 125 126 66
3 66 126 60
3 126 127 60
3 127 114 60
3 114 127 115
3 115 127 128
3 115 128 116
3 116 128 129
3 116 129 117
3 117 129 130
3 117 130 118
3 121 131 120
3 120 131 122
3 122 131 132
3 122 132 123
3 123 132 133
3 123 133 124
3 124 133 134
3 124 134 125
3 125 134 135
3 125 135 126
3 138 137 136
3 136 139 138
3 142 141 140
3 144 143 140
3 140 143 142
3 146 145 144
3 144 145 143
3 148 147 146
3 146 147 145
3 147 148 137
3 137 148 136
3 148 68 136
3 68 69 136
3 149 139 136
3 69 149 136
3 70 149 69
3 150 70 72
3 150 149 70
3 152 151 74
3 151 72 74
3 151 150 72
3 154 153 152
3 152 153 151
3 156 155 154
3 154 155 153
3 158 157 156
3 156 157 155
3 158 159 157
3 162 161 160
3 162 160 141
3 141 160 140
3 160 76 140
3 76 77 140
3 140 77 78
3 140 78 144
3 144 78 80
3 144 80 146
3 146 80 82
3 146 82 148
3 148 82 68
3 83 152 74
3 152 83 85
3 152 85 154
3 154 85 87
3 154 87 156
3 156 87 89
3 156 89 158
3 164 163 91
3 91 163 89
3 163 159 89
3 159 158 89
3 164 165 163
3 168 167 166
3 168 166 161
3 161 166 160
3 166 93 160
3 93 94 160
3 160 94 76
3 98 164 91
3 170 169 100
3 100 169 98
3 169 165 98
3 165 164 98
3 170 171 169
3 167 172 166
3 93 166 172
3 173 93 172
3 102 93 173
3 107 174 108
3 170 100 108
3 174 170 108
3 175 170 174
3 171 170 176
3 170 177 176
3 170 175 177
3 109 102 178
3 102 179 178
3 102 173 179
3 180 110 109
3 180 109 178
3 180 112 110
3 118 181 174
3 118 174 107
3 174 182 175
3 174 181 182
3 175 183 177
3 175 182 183
3 179 184 178
3 186 185 184
3 185 178 184
3 185 180 178
3 187 119 112
3 180 187 112
3 185 187 180
3 187 121 119
3 126 188 127
3 189 128 127
3 189 127 188
3 190 129 128
3 190 128 189
3 191 130 129
3 191 129 190
3 181 118 130
3 191 181 130
3 192 181 191
3 194 182 193
3 182 192 193
3 182 181 192
3 182 194 183
3 183 194 195
3 186 196 185
3 185 196 187
3 187 196 197
3 197 199 198
3 197 198 131
3 187 197 131
3 121 187 131
3 200 132 131
3 200 131 198
3 201 133 132
3 201 132 200
3 202 134 133
3 202 133 201
3 203 135 134
3 203 134 202
3 203 204 135
3 135 204 126
3 204 205 126
3 205 188 126
3 188 205 189
3 189 205 206
3 189 206 190
3 190 206 207
3 190 207 191
3 191 207 208
3 191 208 192
3 192 208 209
3 192 209 193
3 212 211 210
3 214 213 210
3 210 213 212
3 216 215 214
3 214 215 213
3 218 217 216
3 216 217 215
3 137 138 218
3 138 217 218
3 138 219 217
3 221 220 139
3 220 138 139
3 220 219 138
3 223 222 221
3 221 222 220
3 225 224 223
3 223 224 222
3 227 226 225
3 225 226 224
3 229 228 227
3 227 228 226
3 231 230 229
3 229 230 228
3 231 232 230
3 235 234 233
3 235 233 211
3 211 233 210
3 233 141 210
3 141 142 210
3 210 142 143
3 210 143 214
3 214 143 145
3 214 145 216
3 216 145 147
3 216 147 218
3 218 147 137
3 149 221 139
3 221 149 150
3 221 150 223
3 223 150 151
3 223 151 225
3 225 151 153
3 225 153 227
3 227 153 155
3 227 155 229
3 229 155 157
3 229 157 231
3 237 236 159
3 159 236 157
3 236 232 157
3 232 231 157
3 237 238 236
3 241 240 239
3 241 239 234
3 234 239 233
3 239 161 233
3 161 162 233
3 233 162 141
3 163 237 159
3 243 242 165
3 165 242 163
3 242 238 163
3 238 237 163
3 243 244 242
3 239 240 168
3 240 167 168
3 240 245 167
3 239 168 161
3 169 243 165
3 169 171 243
3 171 244 243
3 171 246 244
3 245 247 167
3 167 247 172
3 173 172 247
3 173 247 248
3 249 246 171
3 249 171 176
3 248 179 173
3 250 179 248
3 250 251 179
3 179 251 184
3 253 252 186
3 184 253 186
3 251 253 184
3 254 252 253
3 193 255 194
3 194 255 256
3 257 194 256
3 195 194 257
3 252 196 186
3 254 258 252
3 258 196 252
3 258 197 196
3 260 259 199
3 197 260 199
3 258 260 197
3 261 259 260
3 204 262 205
3 263 206 205
3 263 205 262
3 264 207 206
3 264 206 263
3 265 208 207
3 265 207 264
3 266 209 208
3 266 208 265
3 255 193 209
3 266 255 209
3 267 255 266
3 256 255 268
3 268 255 267
3 271 270 269
3 273 272 269
3 269 272 271
3 275 274 273
3 273 274 272
3 275 276 274
3 279 278 277
3 211 212 277
3 212 279 277
3 212 280 279
3 281 212 213
3 281 280 212
3 282 213 215
3 282 281 213
3 283 215 217
3 283 282 215
3 219 269 270
3 283 219 270
3 217 219 283
3 269 219 220
3 269 220 273
3 273 220 222
3 273 222 275
3 284 276 275
3 222 284 275
3 224 284 222
3 285 224 226
3 285 284 224
3 286 226 228
3 286 285 226
3 287 228 230
3 287 286 228
3 289 288 232
3 288 230 232
3 288 287 230
3 289 290 288
3 293 292 291
3 293 291 278
3 278 291 277
3 291 234 277
3 234 235 277
3 277 235 211
3 236 289 232
3 295 294 238
3 238 294 236
3 294 290 236
3 290 289 236
3 295 296 294
3 291 292 241
3 292 240 241
3 292 297 240
3 291 241 234
3 242 295 238
3 299 298 244
3 244 298 242
3 298 296 242
3 296 295 242
3 297 245 240
3 300 245 297
3 246 301 299
3 246 299 244
3 300 302 245
3 245 302 247
3 248 247 302
3 248 302 303
3 249 301 246
3 305 250 304
3 250 303 304
3 250 248 303
3 306 305 304
3 305 251 250
3 306 307 305
3 307 251 305
3 307 253 251
3 254 253 307
3 254 307 308
3 310 309 257
3 310 257 256
3 308 311 254
3 254 311 258
3 258 312 260
3 311 312 258
3 261 260 312
3 261 312 313
3 316 315 314
3 318 317 314
3 318 314 315
3 320 319 317
3 320 317 318
3 320 310 319
3 310 268 319
3 310 256 268
3 323 322 321
3 325 324 321
3 321 324 323
3 270 271 325
3 271 324 325
3 271 326 324
3 327 271 272
3 327 326 271
3 328 272 274
3 328 327 272
3 274 276 328
3 328 276 329
3 331 330 279
3 279 330 278
3 332 279 280
3 332 331 279
3 333 280 281
3 333 332 280
3 282 321 322
3 333 282 322
3 281 282 333
3 321 282 283
3 321 283 325
3 325 283 270
3 334 329 276
3 334 276 284
3 335 284 285
3 335 334 284
3 336 285 286
3 336 335 285
3 337 286 287
3 337 336 286
3 338 287 288
3 338 337 287
3 288 290 338
3 338 290 339
3 341 340 293
3 293 340 292
3 293 278 330
3 293 330 341
3 342 339 290
3 342 290 294
3 294 296 342
3 342 296 343
3 340 297 292
3 344 297 340
3 345 343 296
3 345 296 298
3 347 300 346
3 300 344 346
3 300 297 344
3 348 347 346
3 347 302 300
3 303 302 347
3 348 303 347
3 349 303 348
3 349 350 303
3 303 350 304
3 352 351 306
3 304 352 306
3 350 352 304
3 353 351 352
3 356 355 354
3 351 307 306
3 358 357 308
3 358 308 307
3 353 358 307
3 351 353 307
3 360 359 357
3 360 357 358
3 361 359 360
3 364 363 362
3 362 363 356
3 362 356 354
3 310 362 354
3 309 310 354
3 357 311 308
3 311 357 312
3 312 357 359
3 366 365 313
3 366 313 312
3 361 366 312
3 359 361 312
3 368 367 365
3 368 365 366
3 370 369 367
3 370 367 368
3 372 371 369
3 372 369 370
3 374 373 371
3 374 371 372
3 376 375 373
3 376 373 374
3 378 377 375
3 378 375 376
3 315 316 377
3 378 315 377
3 379 315 378
3 315 380 318
3 379 380 315
3 362 320 364
3 320 380 364
3 320 318 380
3 320 362 310
3 383 382 381
3 385 384 381
3 381 384 383
3 387 386 385
3 385 386 384
3 387 388 386
3 391 390 389
3 322 323 389
3 323 391 389
3 323 392 391
3 324 381 382
3 392 324 382
3 323 324 392
3 381 324 326
3 381 326 385
3 385 326 327
3 385 327 387
3 393 388 387
3 327 393 387
3 328 393 327
3 395 394 329
3 394 328 329
3 394 393 328
3 397 396 395
3 395 396 394
3 399 398 397
3 397 398 396
3 401 400 399
3 399 400 398
3 403 402 401
3 401 402 400
3 403 404 402
3 406 405 331
3 331 405 330
3 407 331 332
3 407 406 331
3 333 389 390
3 407 333 390
3 332 333 407
3 389 333 322
3 334 395 329
3 395 334 335
3 395 335 397
3 397 335 336
3 397 336 399
3 399 336 337
3 399 337 401
3 401 337 338
3 401 338 403
3 409 408 339
3 339 408 338
3 408 404 338
3 404 403 338
3 409 410 408
3 412 411 341
3 341 411 340
3 341 330 405
3 341 405 412
3 342 409 339
3 414 413 343
3 343 413 342
3 413 410 342
3 410 409 342
3 416 344 415
3 344 411 415
3 344 340 411
3 417 416 415
3 345 414 343
3 416 346 344
3 419 418 348
3 419 348 346
3 417 419 346
3 416 417 346
3 420 418 419
3 421 349 418
3 418 349 348
3 418 420 422
3 423 418 422
3 421 418 423
3 424 423 422
3 427 426 425
3 429 428 425
3 429 425 426
3 431 430 428
3 431 428 429
3 433 432 430
3 433 430 431
3 421 350 349
3 350 421 352
3 352 421 423
3 435 434 353
3 435 353 352
3 424 435 352
3 423 424 352
3 437 436 434
3 437 434 435
3 438 436 437
3 427 425 439
3 427 439 440
3 441 425 428
3 439 425 441
3 442 428 430
3 441 428 442
3 356 442 355
3 442 432 355
3 442 430 432
3 434 358 353
3 358 434 360
3 360 434 436
3 444 443 361
3 444 361 360
3 438 444 360
3 436 438 360
3 446 445 443
3 446 443 444
3 448 447 445
3 448 445 446
3 450 449 447
3 450 447 448
3 452 451 449
3 452 449 450
3 454 453 451
3 454 451 452
3 456 455 453
3 456 453 454
3 455 456 440
3 439 455 440
3 457 455 439
3 458 439 441
3 457 439 458
3 364 458 363
3 458 442 363
3 458 441 442
3 363 442 356
3 443 366 361
3 366 443 368
3 368 443 445
3 368 445 370
3 370 445 447
3 370 447 372
3 372 447 449
3 372 449 374
3 374 449 451
3 374 451 376
3 376 451 453
3 376 453 378
3 378 453 455
3 378 455 379
3 379 455 457
3 379 457 380
3 380 457 458
3 380 458 364
3 461 460 459
3 463 462 459
3 459 462 461
3 463 464 462
3 459 460 383
3 460 382 383
3 460 465 382
3 459 383 384
3 459 384 463
3 384 386 463
3 386 466 463
3 466 464 463
3 386 467 466
3 388 467 386
3 468 390 391
3 468 391 469
3 391 470 469
3 391 392 470
3 392 382 465
3 392 465 470
3 471 466 467
3 471 467 388
3 393 471 388
3 472 471 393
3 473 393 394
3 473 472 393
3 474 394 396
3 474 473 394
3 475 396 398
3 475 474 396
3 476 398 400
3 476 475 398
3 478 476 477
3 476 402 477
3 476 400 402
3 404 477 402
3 479 405 406
3 407 480 406
3 406 480 479
3 390 468 407
3 468 480 407
3 468 481 480
3 468 469 482
3 468 482 481
3 483 478 477
3 483 477 404
3 408 483 404
3 484 483 408
3 408 410 484
3 484 410 485
3 486 411 412
3 405 479 412
3 479 486 412
3 479 487 486
3 488 479 480
3 487 479 488
3 481 490 489
3 488 481 489
3 480 481 488
3 490 481 482
3 410 413 491
3 492 410 491
3 485 410 492
3 486 415 411
3 415 486 417
3 486 493 417
3 486 487 493
3 494 487 488
3 493 487 494
3 488 489 495
3 488 495 494
3 498 497 496
3 500 499 496
3 500 496 497
3 502 501 499
3 502 499 500
3 501 502 492
3 491 501 492
3 503 501 491
3 493 419 417
3 419 493 420
3 493 504 420
3 493 494 504
3 494 495 505
3 506 494 505
3 504 494 506
3 508 507 506
3 508 506 505
3 509 507 508
3 512 511 510
3 514 513 510
3 514 510 511
3 516 515 513
3 516 513 514
3 518 517 515
3 518 515 516
3 520 519 517
3 520 517 518
3 519 520 498
3 496 519 498
3 521 519 496
3 522 496 499
3 521 496 522
3 523 499 501
3 522 499 523
3 524 501 503
3 523 501 524
3 504 422 420
3 422 504 424
3 504 525 424
3 504 506 525
3 526 506 507
3 525 506 526
3 507 509 527
3 507 527 526
3 530 529 528
3 528 529 512
3 510 528 512
3 531 528 510
3 532 510 513
3 531 510 532
3 533 513 515
3 532 513 533
3 534 515 517
3 533 515 534
3 535 517 519
3 534 517 535
3 427 535 426
3 535 521 426
3 535 519 521
3 426 521 429
3 429 521 522
3 429 522 431
3 431 522 523
3 431 523 433
3 433 523 524
3 525 435 424
3 435 525 437
3 437 525 526
3 537 536 438
3 537 438 437
3 527 537 437
3 526 527 437
3 536 537 530
3 528 536 530
3 538 536 528
3 539 528 531
3 538 528 539
3 540 531 532
3 539 531 540
3 541 532 533
3 540 532 541
3 542 533 534
3 541 533 542
3 543 534 535
3 542 534 543
3 440 543 427
3 427 543 535
3 536 444 438
3 444 536 446
3 446 536 538
3 446 538 448
3 448 538 539
3 448 539 450
3 450 539 540
3 450 540 452
3 452 540 541
3 452 541 454
3 454 541 542
3 454 542 456
3 456 542 543
3 456 543 440
3 544 460 461
3 462 545 461
3 461 545 544
3 464 545 462
3 546 465 544
3 544 465 460
3 547 544 545
3 546 544 547
3 466 547 464
3 464 547 545
3 548 469 470
3 549 548 470
3 549 470 465
3 550 549 465
3 546 550 465
3 552 551 550
3 546 552 550
3 547 552 546
3 471 553 466
3 553 547 466
3 553 552 547
3 472 554 471
3 471 554 553
3 473 555 472
3 472 555 554
3 474 556 473
3 473 556 555
3 475 557 474
3 474 557 556
3 476 558 475
3 475 558 557
3 478 558 476
3 560 559 548
3 559 469 548
3 559 482 469
3 560 548 549
3 561 551 552
3 563 562 561
3 552 563 561
3 553 563 552
3 564 553 554
3 563 553 564
3 565 554 555
3 564 554 565
3 566 555 556
3 565 555 566
3 567 556 557
3 566 556 567
3 568 557 558
3 567 557 568
3 483 569 478
3 569 558 478
3 569 568 558
3 484 570 483
3 483 570 569
3 485 570 484
3 571 489 490
3 572 571 490
3 482 572 490
3 559 572 482
3 562 563 573
3 562 573 574
3 575 563 564
3 573 563 575
3 576 564 565
3 575 564 576
3 577 565 566
3 576 565 577
3 578 566 567
3 577 566 578
3 579 567 568
3 578 567 579
3 580 568 569
3 579 568 580
3 581 569 570
3 580 569 581
3 492 581 485
3 485 581 570
3 582 495 571
3 571 495 489
3 571 572 583
3 584 571 583
3 582 571 584
3 586 585 584
3 586 584 583
3 588 587 585
3 588 585 586
3 587 588 574
3 573 587 574
3 589 587 573
3 590 573 575
3 589 573 590
3 591 575 576
3 590 575 591
3 592 576 577
3 591 576 592
3 593 577 578
3 592 577 593
3 498 593 497
3 593 579 497
3 593 578 579
3 497 579 500
3 500 579 580
3 500 580 502
3 502 580 581
3 502 581 492
3 582 505 495
3 505 582 508
3 508 582 584
3 508 584 509
3 584 594 509
3 584 585 594
3 595 585 587
3 594 585 595
3 512 595 511
3 595 589 511
3 595 587 589
3 511 589 514
3 514 589 590
3 514 590 516
3 516 590 591
3 516 591 518
3 518 591 592
3 518 592 520
3 520 592 593
3 520 593 498
3 596 527 594
3 594 527 509
3 530 596 529
3 596 595 529
3 596 594 595
3 529 595 512
3 596 537 527
3 537 596 530
3 598 597 550
3 550 597 549
3 550 551 598
3 598 551 599
3 600 559 560
3 601 600 560
3 549 601 560
3 597 601 549
3 551 561 602
3 603 551 602
3 599 551 603
3 562 602 561
3 604 572 600
3 600 572 559
3 600 601 605
3 600 605 604
3 603 602 606
3 603 606 607
3 574 606 562
3 562 606 602
3 604 583 572
3 605 608 604
3 608 583 604
3 608 586 583
3 606 588 607
3 588 608 607
3 588 586 608
3 588 606 574