OFF
820 1572 0
1.3611597983 8.7467406769 7.5423669957
1.4646634580 8.8543594491 6.6097730152
1.7828057458 7.9430755155 7.0562714395
1.6198673211 8.1602407726 7.8240611874
1.1156707258 9.7424800652 7.2638789776
1.3071864680 9.6209915141 6.3554768007
1.4464122083 8.6097264073 8.2608746557
1.1709993504 9.4888809141 8.4683128697
1.6264762994 8.7413648063 9.1408895121
1.3021560962 9.7009878110 9.6234463929
1.6095604118 9.2181610169 9.9046862320
1.1924900071 10.4713348480 6.5145745640
1.4946983270 10.6171985887 5.8064831002
1.4524640968 10.0029057859 5.8702165128
0.9620333940 10.7721330179 7.4155328399
0.9062998840 10.5996480170 8.2891301322
0.9879221306 10.5694274482 9.3778002491
1.5902407920 9.7362543907 10.4459425345
1.2340572645 10.5946013922 10.4364629009
1.5301136004 10.3293503663 10.9389671566
1.3837307959 11.1999745178 6.2049767937
1.1241887825 11.6062091888 7.0695121350
1.5912532393 12.0966695424 6.3186360728
0.8770771994 11.6423298825 8.1677375066
0.8395959628 11.6045387181 9.2338710786
0.9948940681 11.5643636121 10.2703721228
1.4405553679 10.8256192593 11.1417527505
1.3155579656 11.4732244124 11.1373903554
1.7241282028 11.1353603668 11.6520238506
1.3060070087 12.5314583621 7.1158927299
1.6811067387 13.0602819443 6.7944599302
1.0446819860 12.7260064611 8.0060438359
0.8725411804 12.6952623927 9.1142674438
0.9266069515 12.6336538255 10.1736851192
1.2102427212 12.4873445381 11.1305431447
1.7708637702 12.1231680883 11.9860161687
1.3613709635 13.2701916244 7.5168456442
1.1983163578 13.6134745273 8.1522971587
1.0514267303 13.8344625557 8.9703760626
1.3468526541 14.3546377820 8.4198231258
0.9938029477 13.7446080066 10.0372392990
1.1947748678 13.6190957162 11.0429355350
1.5958921015 13.3419504342 11.9227201203
1.2507655230 14.8012093863 9.0599669662
1.6423074477 15.3088770911 8.5896898564
1.1700195089 14.8737758228 9.8474286081
1.2691885183 14.6794984164 10.8142778911
1.6926739629 14.6192437192 11.8667665337
1.3948828204 15.5393567481 9.3649036156
1.7955938251 16.1628012682 9.0792317826
1.3706545440 15.7214881767 9.9251729688
1.4252807284 15.5740601569 10.5331135733
1.6031774062 15.4150323028 11.2488152618
1.5674932115 16.1263184718 9.6347739262
2.2811128319 7.2537422195 5.9586015627
2.4330016466 7.4469144615 5.2878764390
2.5964496349 6.8094833715 5.6835413318
2.5169454148 6.7601604470 6.4274623752
2.1230736420 7.3801108419 6.5108210684
2.3038993428 7.0951560153 7.2283650616
1.9680976430 8.1247559022 5.8944522860
2.3121506157 8.1921907614 5.0089254628
2.0153447157 7.6114705706 7.9125497739
1.7699429763 8.1169097085 8.4654196284
2.2223991676 7.6474731049 8.7540307404
1.9267327465 8.1271576859 8.9624979484
2.1958239606 8.1051350148 9.4881901829
2.0915067661 8.9928645575 5.0885000059
2.4582705332 9.5851118862 4.3830683904
2.4886840883 8.6816298132 4.4955649435
1.6460760874 9.2642714699 5.7869813011
1.9573811529 8.7870762586 10.0127214701
1.7777430556 9.2254730069 10.2747604808
2.0564224420 9.2276210100 10.6802537438
1.9118016265 10.1897559283 5.1649872539
2.4953315060 10.6606031490 4.3498744375
1.9140036789 9.9516403695 11.1559054182
1.7129352158 10.5492748204 11.3701773919
2.1494580780 10.4663275008 11.7789944670
2.1870864911 11.1268372822 4.8742827405
2.5708581972 11.5212901706 4.4759635872
1.8061510297 11.3217208777 5.5430508528
2.2671007981 11.2463484374 12.2778194548
2.3064796657 11.8877443391 5.0434428972
2.0268411629 12.1669466834 5.6465629685
2.0962049634 12.9021655025 6.0426245243
2.5972802309 11.9610946314 12.8766126498
2.1516430276 12.9962952813 12.6702172324
2.7459551417 12.7871442593 13.2864863251
1.7390502542 13.8466686847 7.2832994923
2.1561295807 13.7930276625 6.5950896019
1.4527792052 13.9336181533 7.8380344940
2.0181092661 13.9837384015 12.5806028520
2.5389119864 13.6255153377 13.2036319076
2.0935687336 14.4300312254 7.1776749074
1.7758368829 14.6206098413 7.8268099001
2.2042503446 15.0204250463 7.4534372342
2.0528747429 14.6187883716 12.5536224620
2.4297448885 14.5155529515 13.0308163520
2.0516500011 15.3869521558 7.9608792062
2.1844322204 16.1121436469 8.3280888207
1.6553020715 16.2532521354 10.1853622691
1.8704369435 16.2304527728 10.9806366348
2.0282313215 15.7554845794 11.8083542506
2.2636372329 15.2189746300 12.5486917760
1.9369590729 16.6718196044 9.6523387795
2.3520952570 16.9016918219 8.9347639450
2.0758283438 16.8502262652 10.3632704123
2.2631946045 16.8912395091 10.9918141037
2.2854377289 16.5250796289 11.5470147184
2.4450428664 17.3313710495 9.8008304648
2.4718606535 17.3236878425 10.5883883157
3.4041608073 6.0997298681 4.2277141431
3.8239946037 6.1486617857 3.4546278241
3.7349774078 5.6559270194 3.9544833210
3.6933067286 5.4408856565 4.5321752267
3.2924470363 5.9012148291 4.9730948868
3.6274699297 5.3520660194 5.5017377658
3.0446481759 6.1170902507 5.9025053995
3.6412696751 5.3827786566 6.6713782904
3.0098861643 6.2289675139 7.2817074895
3.9227813152 5.3585428574 8.0506118833
3.2897533189 6.2472114178 8.5517262150
3.8466157088 5.7477184245 8.9705200643
3.2602035513 6.9603695741 3.8963166665
3.6963134326 7.2651194665 3.1219226223
2.9267647223 6.7010782947 4.8791042126
2.6057828044 6.9569111094 8.1986632727
3.6045002993 6.2460746268 9.4191541388
2.9536993174 7.1480390842 9.5115699826
3.9527703601 6.4476620981 10.4437033856
3.3604139612 7.4391313505 10.8097299555
3.9125370486 7.0075758495 11.2606142118
3.2221430271 7.8450864120 3.5970624930
3.6062178836 8.3543001895 3.0207675652
2.7662380123 7.8003510028 4.3884830746
2.6105547500 8.3283842182 10.5341032901
3.6636241108 7.5433644558 11.5407468944
3.2932959105 8.3133078238 11.6555574946
3.8088051786 7.8282834798 12.0565546509
2.9785354537 8.8458758841 3.7632788364
3.5505296897 9.4954739804 3.0305845970
2.5830736569 9.4262581459 11.5524575324
3.9375463332 8.4055508551 12.6179887919
3.3307555288 9.3101121402 12.4431108117
3.9064270428 9.2215296337 13.0774306702
2.9862100738 10.1113748938 3.6875074584
3.5714527322 10.6412973711 3.0735037447
2.8321097425 10.4184465252 12.4770703529
3.6002174415 10.0499646454 13.1370603058
3.0585046172 11.3465277433 3.7954562260
3.6721369543 11.6419108881 3.1528229379
2.7254550493 11.2095488401 12.7381995679
3.2841229463 11.1003496429 13.2473238185
3.4055443304 12.1760087019 3.6419707038
3.7481262894 12.2654537305 3.2841589477
2.9383414468 12.4839842259 4.5029119468
2.4206078618 12.6338542629 5.3581711122
3.4884157930 12.0899067675 13.7901207411
3.1622428647 13.2122439870 13.7870147641
3.7589276123 12.8765795211 14.2754471719
3.7934655220 12.9466171205 3.7004266086
3.3358867072 13.4882054805 4.6005092933
2.7643463148 13.6911689869 5.5828935415
3.4647077864 14.3466002864 4.9942635970
3.0116581928 14.1968538126 13.6871734447
3.6445684567 13.7311468258 14.2989109661
3.1602692336 14.9841986527 5.8440305166
3.6802653876 15.2447445796 5.2546789168
2.5719789694 14.8217146550 6.7021978833
2.9394760552 15.3375904093 13.3517313059
3.5756262961 14.7804655047 14.1971013678
3.4705523535 15.7224966144 5.8354609226
3.7638453926 15.8238147754 5.4931579356
3.1018869173 15.9632236722 6.6601027582
2.5010539010 15.7368517871 7.5094835376
2.6438282584 16.2896023433 12.3784331824
3.2365132572 16.4524568439 13.2403048669
3.6158935384 15.8677103772 14.0023105838
3.8064745130 16.4545138806 5.9608658747
3.4039586268 16.8780710046 6.8768456630
2.9132249773 16.9078156134 7.8295716216
3.5236374988 17.5597468969 7.3105890208
2.7047995353 17.2398840407 11.4201049005
3.1765201279 17.3064879839 12.4330839108
3.5038923661 17.1617977607 13.2090787519
3.6846681523 16.7217815962 13.7441623908
3.3742807069 17.8531006692 7.9850094467
3.6899044378 18.0683855299 7.6093598320
3.0404050657 17.8233885301 8.9635702432
2.9729872598 17.9521299507 10.3914228841
3.2204238893 18.0177863220 11.5185380094
3.4727771110 18.0475171708 12.2346742572
3.5809096858 17.7282969705 12.8328010508
3.8700195626 18.5640005058 8.2220314395
3.5699421389 18.7037439427 9.6474865510
3.5148802810 18.6707584198 10.8687988316
3.5853762478 18.5119575623 11.7519526853
4.2321676046 5.0931808619 3.8561584610
4.8592183401 4.7095688816 3.2457957872
4.7563730708 4.4512041395 3.7756056428
4.7291155369 4.2891009996 4.4433110426
4.1619537187 4.7997012343 4.9667090799
4.7575863701 4.1433546048 5.5549711776
4.1941023227 4.7211848238 6.1139481534
4.9321916826 4.0990923117 6.8321323375
4.2974172022 4.7536805884 7.2504455128
4.9179682650 4.3616697888 7.9240243485
4.4295232940 4.7760675013 7.9574180054
4.7430047927 4.7426777721 8.6255414727
4.4960899998 5.5551914670 2.9503241011
5.0035832765 5.8318907368 2.2921416368
5.0592337725 5.0801190034 2.6495850925
4.4463164293 5.2468220730 9.2022895693
4.1770888514 5.7721125816 9.7573560980
5.0189674155 5.2667182177 10.2909946350
4.4573236210 5.8128965648 10.3539229752
4.8585885886 5.8541096357 10.9868661544
4.3224831428 6.5754725443 2.6345538191
5.0101528212 6.9382123692 1.9294793993
4.6396594881 6.5075896282 11.6170483514
4.1802194831 7.2331002140 11.9737422601
4.7864599293 6.8765802936 12.3141713564
4.5668290882 7.3119361484 12.5446641461
5.0549912548 7.0710268753 12.7776830365
4.2334915553 7.7205245733 2.4490628227
4.8686795673 8.2102425808 1.8823260750
4.2114994604 7.7006630886 12.4711286225
4.7923491524 7.7698586593 13.0686948670
4.1918569822 8.8943238046 2.4151540314
4.9594868629 9.4214815875 1.9033799751
4.5117375205 8.7029506330 13.3771467146
4.3356802414 9.5996454768 13.6383940477
5.1450047052 8.9732923496 13.9535706861
4.1714526162 10.0236781646 2.4781925533
4.7625289691 10.4429637086 2.1494995017
4.0528205620 10.5617318279 13.7641645352
4.9855071288 10.0434773475 14.2786060740
4.2040917637 11.0622103841 2.6009862502
4.9866059328 11.2607856892 2.2575403502
3.7991947169 11.2615760514 13.7996903016
4.4135699011 11.2318752668 14.2923390069
4.2951586718 12.1049582117 2.8649581703
5.2489344626 12.1656344072 2.4723683457
4.3228218484 12.2326937918 14.5457015935
4.3209724194 13.1668913463 14.7615422575
5.0852518325 12.4307038413 15.0577582111
4.7242253361 13.0209073608 3.0546230165
4.3831147620 13.8474460747 3.7106828822
5.2770220761 13.8377024325 3.2648931208
3.8003220703 13.8870372072 4.2687929926
4.2517110400 14.2372812957 14.8040590839
5.0560541409 13.5522251886 15.2534762651
4.7912958392 14.4795267775 3.7997004389
4.1630357680 14.7052891463 4.4329303163
5.0146639390 15.2107247073 4.1880625968
4.2041061932 15.3706359238 14.6819129104
4.9436211837 14.8726638235 15.2369958472
4.2609209186 15.7538584122 5.0107947607
5.0556613412 16.0041105867 4.6971331955
4.2596227350 16.5756729157 14.3929786188
4.8272974714 15.9073221022 15.0068093108
4.6271195085 16.6090913358 5.3234348807
4.3110675832 17.3012185578 6.0540123412
5.0500526270 17.3038422479 5.5890089466
3.8029231628 17.2906738249 6.6150436080
3.9768907078 17.5613462455 13.5584953341
4.6487111588 17.6530708869 14.2970830449
5.1686800219 16.9008600919 14.9216284441
4.7084449189 17.8329345109 6.1640598111
5.3464247324 17.8999546008 5.9568812010
4.1484075949 18.0302979392 6.9643164917
3.9047111525 18.4359005969 12.5704159900
4.5334876914 18.5396989860 13.4787553840
5.1053194103 18.3683014006 14.2750544028
5.1605091188 17.7863776244 14.6980205015
4.9684280028 18.3445144197 6.5909083818
4.6841711794 18.7904529221 7.4426804840
4.5353428441 19.2224029441 8.2123592893
5.2249789818 19.3382086747 7.9051040005
4.2549125121 19.3811029254 9.1222232214
3.9580774124 19.2768579040 10.3856370570
3.9252034029 19.0349374528 11.5515534719
4.4939578695 19.2546363096 12.4055267057
4.9080582845 19.2232616610 13.1500321983
5.0653657277 18.9284548276 13.7108002156
4.8752652912 19.6140276261 8.5562002130
4.8621710724 19.8656358808 9.0746922499
4.3991952179 19.7220273159 9.8427768988
4.8287324601 19.9922587598 9.3214419642
4.2869137105 19.5140817364 11.2663550527
4.8724889247 19.7266388219 12.0597406819
5.3766322272 19.6941711343 12.5520843788
5.3878050319 3.8755132602 3.7805981549
6.1148859593 3.6235928107 3.1028287394
6.1459050367 3.1723884817 3.7344826891
5.9864943320 3.0810236173 4.5212546353
5.3401297885 3.6155790478 4.9742745304
6.0143973979 2.9951566783 5.6102936737
5.4469250668 3.5314493833 6.1350790205
6.2995337420 2.9619953425 6.8853988837
5.6297879127 3.5304122648 7.0678933070
6.1167928519 3.3355670057 7.6989576182
5.5137461993 4.3834560055 2.8570525101
5.6635081588 4.9955127242 2.2557915130
6.2306748094 4.1683304881 2.4682151300
5.5789825885 3.8095900463 7.8490680371
5.7515115932 4.1265338412 9.0448259036
5.2040722642 4.7431557816 9.5937524222
5.9516795990 4.4470076286 10.1507875176
5.4889854346 4.7878310444 10.2133821910
5.8829623783 4.8116597473 10.7505673586
5.7699882479 5.8563161763 1.7463180719
5.9109971092 5.3073551519 11.4575086943
5.3920955267 5.9361756489 11.7775564514
6.0095256126 5.7646455576 12.1903087502
5.6979782841 6.7045622798 1.4778160358
6.2273154852 6.8819499717 1.2415137304
6.1804749870 6.2061189841 1.3618729062
5.6508566881 6.3976570578 12.5685338549
5.5877471221 7.1284156692 13.2192973398
5.5466534818 7.5472608047 1.4654681469
6.2235233119 7.8070729589 1.2196188214
5.5281583428 7.6935899277 13.5751185009
5.1745808714 8.2403873116 13.6468979836
6.0217573745 8.1156170065 14.0061769157
5.5611572921 8.5460895822 1.4730869883
6.2612013010 8.6974191981 1.2771628561
6.0171036574 9.1816163028 14.4819162159
5.7475794905 9.3169210868 1.5147165313
5.6560653754 10.2247954190 1.8113998222
5.7500454643 10.0022245403 14.7341305233
5.3515790959 10.7813721227 14.7715163311
6.1721790983 10.4096206863 15.0198707477
5.9668726150 11.2372168555 2.0712919845
4.9973421177 11.6208287122 14.8205460623
5.8996146560 11.4484481960 15.1628680169
6.1423437049 12.1015702393 2.3345635802
6.0607960393 12.5896363117 15.4294211209
5.6288492134 12.9102274149 2.7044697828
6.2733433618 13.3488536452 2.9449848945
5.7069717436 13.3538067267 15.5131959956
5.2656336978 14.2114792858 15.4603074490
5.3444387157 14.6115313144 3.6390297389
6.1288957516 14.3001948636 3.4195310664
5.5115601408 15.0261785090 15.5060045413
5.7362725523 14.9923061421 3.8042404841
6.0291965445 15.6543443722 4.2901047072
6.2132083538 15.1932926850 15.6133428228
5.7811659494 15.7397213165 15.3803597399
5.5317227797 16.5915365291 4.9736481041
6.0737554627 17.2932822265 5.4910685275
6.0522532394 16.7328261062 15.1898920012
6.0144448689 17.9649946768 6.0168965356
5.6094892056 18.3284596643 6.3589523155
6.3369010054 18.3427815099 6.5396804815
5.3678263323 18.0946390070 14.6855508631
5.7618805410 17.6499180488 14.8801755235
5.6511827001 18.8071064142 7.0765045996
6.1308709194 19.3253113668 7.8420222904
5.3625530390 19.3148330610 13.3599048669
5.6949011059 18.8537397223 13.9726677467
5.6256429125 18.3024456338 14.5462683854
5.6960906463 19.7969825265 8.6296867010
5.3316121467 20.0332535278 9.0348768699
6.0378282821 20.0391107501 9.1905990933
5.5512684998 20.0030532056 11.9393033052
6.1748996504 19.9994787280 11.6795551772
5.9763976580 20.1585679965 11.4702819223
6.0271266670 19.7954103612 12.4574712681
6.0308461073 19.4477852300 13.1356232729
6.6728371998 2.6113958880 4.1532357522
6.7604722973 2.9205333885 3.3699437469
7.2547684783 2.3629145807 3.7691488441
7.4928326966 1.9848163052 4.6791909140
6.6514266383 2.4945334390 5.1366860836
7.3834888725 2.0902505694 5.8905480090
6.6926858242 2.5106850125 6.1816059259
7.3452958282 2.2591281793 6.8510648382
6.8171983987 2.5258709805 6.8392534910
7.1554809377 2.5399443129 7.4868553383
6.8277333479 3.4576150377 2.7079228025
6.9306981750 2.9590345028 8.1855153828
6.3405356650 3.5007020880 8.5630060634
7.1753167564 3.2434080933 9.2316914168
6.6515734872 3.6424668674 9.3984286678
7.2512201487 3.5091187970 9.9147862170
6.6144186557 4.7188490528 1.8935706328
6.7755774938 3.9770520311 2.2837824425
6.8234913979 3.9491330089 10.2120699748
6.6625804519 4.4436118713 10.9533600717
6.3722188773 4.8056296848 11.2719430107
7.0607068481 4.7939786121 11.7723641606
6.4824054669 5.5788891430 1.4714878985
6.8940752118 5.9835130239 1.2470278146
7.0438519857 5.1710227010 1.4590454824
6.8092982824 5.4741954756 12.4198282547
6.3082891785 5.8796937429 12.5803896301
6.7352120785 6.0445994262 12.9826231589
7.0527699684 6.9503683456 1.1597254797
6.4069783349 6.7009677324 13.3643199937
6.1169224074 7.3310204597 13.6712170263
7.0181025414 7.2160284096 13.9034402979
6.9075282999 8.0238109001 1.1900091736
7.2357319119 8.3719039551 14.4355162849
6.8368047238 8.7768922672 1.2803193669
6.7991365581 9.2358887589 14.7682080814
6.3342852763 9.7123513269 14.8580103099
7.0200306263 9.9141606742 15.0261961645
6.4162044749 9.4309586866 1.4539161605
6.8942836769 10.1037068475 1.7860706859
6.7637602944 10.7782608483 15.2179386726
7.0117465287 11.2469739316 2.1773162145
6.9673615342 11.6290697380 15.3859469491
6.8079888100 12.0871870951 2.4099555262
6.3773446294 12.6444211736 2.5727857718
7.2111079323 12.5276127431 2.7694390953
7.2726805623 12.6863240427 15.5533786400
7.2597764238 13.5700802400 3.2984972965
6.5544618813 13.0312636456 15.6035705549
6.9326708988 14.4429605868 3.6267599401
6.3481565258 14.9339760111 3.7742890140
7.0490227346 15.0302158828 4.0247925475
6.7538543737 14.8666650119 15.6879834375
7.1787486344 14.3012255134 15.6711870952
6.9202392586 15.0225223738 15.5768695406
7.1332047491 15.7008584856 4.4767182963
6.8688109477 16.0162635146 15.3403578571
6.5667881747 16.4158321068 4.8616533218
7.3291078041 16.8299006887 5.4283324495
6.8067926700 17.1105307350 15.0102135797
6.9448595413 17.7052795093 6.1097158046
7.1279406369 18.2070815156 6.7449651796
6.3933608748 18.1670963946 14.5077098825
7.2043404718 17.6335438337 14.6637122370
7.2488715012 18.2244509565 14.1637950362
6.8706732556 18.7406985590 7.3356679826
6.8686007684 19.2583229544 8.0336629977
6.5677829006 18.8809262256 13.7796675971
7.3977687027 18.8031100053 13.3845690617
6.7658853919 19.2971263618 13.1201004635
6.5310379354 19.5980383582 8.4464665887
6.4364606579 20.1008766102 9.9343172296
6.6993967061 19.8327738247 9.3378790539
6.3051870526 20.1610117289 10.8668892861
6.6810637497 19.9954375445 10.5354217294
7.0096960843 19.7609096347 11.3164571548
6.6582922008 19.6561832645 12.3588593017
8.1994600652 1.5331058374 4.8975152671
8.1224402220 1.6547284420 4.2936184279
8.7693407084 1.3879122394 4.6005948086
8.6178902886 1.3819914236 5.2905004518
7.6991457671 2.6252985649 3.0500615435
7.7955306486 2.0074132877 3.8405363909
8.2375351118 1.6698043628 5.7483414882
8.1942051527 1.9541280482 6.8578043728
8.1105717479 2.2380308960 7.8905750262
7.6749323836 2.5450774749 8.3018089729
8.3150816965 2.4181692517 8.7596263128
7.4610639153 3.6708849443 2.2301776350
8.4420847776 3.7267224126 1.9158547496
8.2826467628 2.9823862672 2.4056847142
7.9620071355 2.7781549803 9.1744190377
7.9997265606 3.2254487902 10.1317723478
7.6403955969 3.6228603645 10.5228249855
8.1970046839 3.5337637769 10.8650838995
7.5845948542 4.4780834097 1.6755510470
7.6534865499 5.2078548640 1.3590473695
8.2488854736 4.5744630400 1.5534470426
7.8999198742 4.0585213338 11.3280500210
8.0208245751 4.6406995147 12.1570842639
7.7003553725 5.9731831101 1.2272177872
7.6810056088 5.0895561775 12.4963159360
7.8746841642 5.7309043513 13.1429564084
7.2500675777 6.3890061352 13.4985340694
8.0856379131 6.5548521675 13.7695682865
7.8451701332 6.5853841870 1.2408573447
7.6763673042 7.3932431977 1.2818712197
8.4495776307 6.6915334094 1.4621255930
7.9264764210 7.4132583527 14.1493116434
7.4830951756 8.3672467754 1.3715656752
8.3366487628 7.7356244577 1.5938947545
8.3348463769 7.9912066830 14.3472148512
7.1324373649 9.1683355812 1.4690227525
7.9984976194 8.9804586346 1.7582592779
7.4519265774 9.1943428537 14.8081227469
8.3419369958 8.9386923587 14.6444405678
8.0717881802 10.1568218576 2.1684773327
7.8664832264 9.6958366092 14.9588851886
7.7696142478 10.6447608667 15.1941015894
7.8474779797 11.0804317409 2.3840093135
7.4087725891 11.7207081987 2.4594898174
8.2143702852 11.5509412125 2.7706619858
8.0178059809 11.7410486057 15.3905655081
8.2977998017 12.5475074533 3.2663690648
8.1978763405 12.6047119476 15.4668447852
8.1602782064 13.3926187324 3.5472081013
7.2139857530 13.4602128149 15.6486253338
7.8315306676 13.7808498800 15.5189909917
7.9863646870 14.1527072547 3.9053932030
7.9262657642 15.0649098658 4.4079944436
7.8572567187 15.1006110156 15.3453688938
7.8374109103 15.6726462300 4.7168024419
7.4151916307 16.1626206716 4.8838467576
8.2194927027 16.0208854699 5.2112736161
7.8086685547 16.2023523906 15.0994290977
8.3210181302 16.6595703959 5.7926951576
7.6095115797 17.0222121061 14.8620677483
8.1903550318 16.6226850374 14.7860967863
7.9796273096 17.3790058917 14.4222491615
7.8385279388 17.2401082262 6.0728768700
7.4803510447 18.3008770561 7.1080847861
8.0436507176 17.7256665752 6.9010661677
7.8354624496 18.3719254007 7.6375392429
7.9803176409 18.1034431293 13.8104564572
7.1923049524 19.4154472139 8.6775141951
7.5192382570 18.9270423978 8.1614532599
7.4584706257 19.4767996601 9.3790721119
7.8577319144 19.0537053561 9.0031285515
7.9190270930 19.1936688965 9.7766538939
7.4203304477 19.4199484675 11.9448776490
7.9616587078 19.1036825512 11.5902926873
7.6235896602 19.4392024266 11.1515756588
7.2347034457 19.2839714172 12.6957238470
7.9029130245 18.8884635406 12.4974429649
8.0748903212 18.4679296723 13.2292745061
7.3996128560 19.5966102305 10.2837165298
8.5463964154 1.8085530517 3.6498861084
9.2961358402 1.8688604037 3.2563637294
9.4791852110 1.5066698232 4.0568420710
9.4384621058 1.2861456605 4.8480471971
9.1637259118 1.3030915961 5.3749242198
8.9173799440 1.4497685789 5.8778197455
9.5271688878 1.5261806488 6.1420618329
8.7420261049 2.3190483397 2.8248915303
9.0302459177 2.8664113319 2.2728318901
9.5354801540 2.2893185344 2.6960688664
9.1360508156 1.7661887437 6.7990809264
9.0960321832 2.0568925369 7.9332687292
9.0839390697 2.2770037966 8.9685585894
8.7349471919 2.4998915547 9.3883605060
9.2894419793 2.4635332148 9.7671414736
9.2669984557 3.4490076525 1.9506566214
8.9098983868 2.8168857399 10.1338672919
8.7868514449 3.3165151372 10.8788712185
8.5439175572 3.6372251754 11.2260342025
9.1384415139 3.8211228297 11.5940842637
8.3794860891 5.2651628934 1.4139728691
9.0661684350 4.3965921808 1.6964426176
8.8018540571 4.4495438736 12.1956462112
8.5041374373 5.0365913369 12.7162663336
9.2593253685 4.9408065710 12.7111414782
8.3194678749 6.0057851605 1.3480150245
9.1065069993 5.6503551101 1.6310109263
9.1136332957 5.6872975322 13.2321279755
8.5364973883 6.0200713136 13.5267614265
9.3105558192 6.8643112436 1.8961883738
8.8855342913 6.3452321254 13.6899098869
8.8754179868 7.1880595901 14.0026200197
9.0360448656 8.1050511653 2.0159399479
9.2091057080 8.2424142618 14.2673578047
8.9370433361 9.1013955770 2.2166416639
9.4896573071 9.3291232468 14.5098947593
9.1896306024 9.8196467134 2.6061170471
8.5092708152 10.6673734316 2.5422753626
9.1286412316 10.7395489675 2.9370915230
8.6794630537 9.9531512458 14.9083401953
8.9228229116 11.0237635276 15.0929751052
9.0848223014 11.5437997771 3.2687846977
8.7836561272 12.0071983041 15.2915438665
9.3934335625 12.1379691256 3.7559011439
8.8107982371 13.0095380859 3.7425681324
9.4605904937 12.8242715234 4.1344333514
8.8949665809 12.9061330089 15.2642764035
8.4974724612 13.5469958865 3.7965142858
9.0325255052 13.5455225109 4.1956268487
8.9208679852 14.1747015855 15.1084490900
8.4495945534 15.3034583097 4.8513638027
9.0409343529 14.4082255693 4.7504063752
9.1180935874 15.3044930870 5.3765252025
8.6264698248 15.3803378942 15.0216224059
8.9881028991 16.0497824768 5.7909551987
8.5289382415 16.0588123310 14.8703828278
8.9186390491 15.7163253254 14.7647042711
8.8739678909 16.3773066810 14.3714526218
8.9465308406 16.5417044017 6.1903690995
8.5608066551 17.0426309822 6.4108906256
8.7757005012 17.2022015176 6.8947923760
9.3474407657 16.6518835067 6.9002318568
9.0459148625 17.2632583660 7.5036759999
8.6240519818 17.4178308515 13.8408025980
8.2712887368 18.4787184923 8.5584492784
8.6456729244 17.8632147874 8.0011030056
8.4903208883 18.5907597244 9.6740356843
8.9909655002 17.9159796771 9.0553829125
8.7476352018 18.3927117171 10.6653743741
9.1732711087 17.8878203528 10.1306918807
8.5455656096 18.5015715714 11.6746542452
9.1992205761 17.8228751860 11.2116192681
8.5354989373 18.2524202883 12.7472685942
9.0957073542 17.7601271351 12.2572587413
8.4626090382 18.0166397349 13.4174849793
8.9452458646 17.6053348610 13.1384954276
8.1413233445 19.0180222407 10.6742509261
10.0778911158 2.0125107474 3.4182187602
10.1390910457 1.6548070706 4.2008510422
9.9682492745 1.4669002544 4.8197549784
9.7738519812 1.4128816349 5.5070918176
10.0695332493 1.7582220152 6.2188979952
9.7187355895 2.8715374954 2.2261986644
10.0733140518 2.4379673313 2.6532616166
9.9942543388 1.9936729049 6.9705113744
9.9277023671 2.1824296136 7.9060061941
9.9702383323 2.3087179050 8.9749210232
9.8174335843 2.3968980166 9.8095448816
9.6414268725 2.6348430113 10.3097052797
10.1263608346 2.6823730931 10.5502556517
9.7945154414 3.6896782697 1.9306901121
9.6651166184 3.1492664331 10.9889090113
10.1451778240 4.0098958156 11.7964746359
9.8299879978 4.7264697599 1.8221784973
9.6769443195 4.5282704486 12.3005761327
9.8738152306 5.3020589743 12.8094036297
10.0224774903 5.7904880848 2.0388471024
9.9250560024 6.0133976819 13.1836921878
10.1069662423 6.6601767793 2.3594717783
9.8384963207 7.5103508049 2.3779227155
10.4956692240 7.0866043704 2.9649275749
9.5525429108 6.5523129798 13.5863438212
9.8371502068 7.5454962357 13.7948106649
9.6338376058 8.4539806494 2.4393063814
10.1758374716 7.9938620548 2.7667221147
10.1212806262 8.6406518590 14.0229977522
9.4990566728 9.0843800929 2.5152735516
10.0356577082 9.0018223924 2.9010292947
10.1277801788 9.3452349521 14.2654591815
9.7357937210 10.8949156632 3.4050010450
9.8474886059 10.0554407287 3.1216675601
10.2604468943 10.3926156921 3.5516888344
9.4559167797 10.2315930220 14.7801245708
10.1138546932 10.0512683441 14.3721645003
9.6287378684 11.4586965128 3.5875631727
10.1433667636 11.3449288328 3.9235091391
9.7512461256 10.8556679928 14.7564310101
9.5946489072 11.8920412079 14.9022872748
9.7846470121 13.1570937845 4.5896496838
10.1337237527 12.3266754587 4.4435093306
10.2674660163 13.0070396557 4.9500504086
9.6771703089 13.0985920470 14.8474080441
9.5072720631 13.6877667044 4.6536953636
9.9969768837 13.6821172546 5.0994449283
9.7297365130 13.9755680975 14.6897183983
10.1501669477 13.3745870781 14.3807694852
10.1179774643 14.1873272045 14.1380979174
9.7668012582 15.5151635118 6.1474283663
10.0243513522 14.5333282136 5.6836685490
10.3031377462 15.0709209138 6.3618399901
9.4225220426 15.0780125331 14.5356269673
10.0307838383 14.9893182914 13.8444705269
9.4116167691 16.1626699729 6.3127218370
10.3060256007 15.5422715045 6.8732020793
9.8392269632 16.0018142856 6.7204558898
10.0978914750 16.1410223405 7.4382155587
9.8738284655 16.3327618598 12.7955226916
10.3299121065 15.6881015490 12.3587534023
10.1717258454 16.2509826320 11.9407509887
9.6698862581 15.8432488131 13.7558604663
10.2108748517 15.3608063586 13.1154154853
9.4206438353 17.2988981139 8.5051143460
9.7894695667 16.7111096855 7.9595152887
9.6445956428 17.2815192934 9.5697786062
10.0674152712 16.6812286487 9.0259745935
9.7229634745 17.2056035982 10.6607233281
10.1792900594 16.6108553160 10.0905550039
9.7065271888 17.0268691551 11.8398783848
10.1880265259 16.4681468217 11.1055196033
9.4241404277 17.1403110041 12.7474792714
9.2832589393 16.8134519295 13.4972313555
10.4808170287 2.0731704977 4.1743527960
10.4409698797 1.9237412738 4.8655713771
10.2961448306 1.8309408061 5.6471045238
10.1486921172 3.0290684966 2.2895581353
10.4619166981 2.5718800026 3.0779692356
10.7069051496 2.7518194022 3.9149631244
10.8612750232 3.2389741158 3.5954076222
10.7380140731 2.6597308522 4.8424368010
10.6752776100 2.5753014587 5.7682099237
10.5182110405 2.4720359184 6.7273508766
10.5087356640 2.6493076863 7.7955402158
10.5171187588 2.6649659216 8.6203007144
10.5011300960 2.5873611581 9.1890667736
10.2756943608 2.4586069833 9.9125407010
10.3672086347 2.7038896922 10.6351571161
10.1315605785 4.0554215826 1.9442189233
10.9716282370 3.8418128503 4.0711795437
11.0256214203 4.2248844373 3.7256111049
10.9180256061 3.6345150405 4.8290292947
10.8907426850 3.5430643578 5.8006309730
10.8543280768 3.4522402062 6.7661342971
10.8456575008 3.4270634157 7.6787576659
10.8624398410 3.3567188300 8.4328671939
10.8157472174 3.1168895395 8.8510046187
10.2867527289 3.2210676037 11.2071673467
10.4880893255 3.9537618542 11.7259297958
10.2227119926 5.0157613076 1.9526701334
11.0303733101 4.9490550219 4.0358001418
11.0199762567 5.2128073885 3.5894220045
11.0084432757 4.7478669785 4.8398295222
10.9856626793 4.6405039265 5.8237974453
10.9878281129 4.5307856126 6.8397405113
10.9916681463 4.2794448543 7.5837769827
11.0505329613 4.3583823983 8.3137430339
11.0253204202 3.8806141453 8.6800119738
10.3596084021 5.0392721511 12.3574822108
10.6537738965 4.8653404842 12.0410415759
10.3824804502 5.6282983741 2.1839990460
10.9131129409 6.1348651299 3.6784448113
10.8939910639 5.7895791225 3.2519755511
11.0197635607 5.8883460965 4.7659998113
11.0200728579 5.7820001769 5.8131047850
11.0340284171 5.7108404722 6.9037811954
11.0885942004 5.5306333935 7.9950408639
11.1341555669 5.2055485925 8.4865237861
11.1162548058 4.5403093496 8.6143714284
10.8152777309 5.9709392321 12.2589447454
10.9215739510 5.7212318630 12.0401260656
11.0254519086 6.5371428450 11.9526953285
10.4160682890 5.9603675330 12.7852073531
10.5502420671 6.1535798534 2.6965839570
10.8906387641 7.2977840307 3.8716151678
11.0263731834 6.9710884960 4.7188074367
11.0444580740 6.8668080487 5.7542143232
11.0504261720 6.8469942217 6.8647253545
11.0892582211 6.8334456335 7.9605689012
11.1582311672 6.1691379561 8.6200449665
11.1482875990 6.8547955221 8.7152243860
11.1779511883 6.8900450626 8.9426414192
10.9985420927 7.1557554838 12.1063767824
11.0950706028 7.5318060535 11.6535670566
10.7411697004 6.9332362969 12.7103654173
10.2597455386 6.8046030595 13.2670808108
10.5748280903 8.0268079481 3.2807350108
10.9669249850 7.7956806502 4.0840058385
11.1137243317 8.0013305717 4.6040466789
11.0891535444 7.8199808243 4.7725494818
11.0959138832 7.7701066562 5.6752473067
11.0857396649 7.8030934514 6.7401748144
11.0968071746 7.8963952188 7.9270245880
11.1322290450 7.9407843493 9.1174237880
11.1671867578 7.5103249762 9.2542793816
11.0596991307 8.3133317374 11.7860795851
11.1262044368 8.2566759608 10.9935726425
10.9170649127 7.8780489132 12.5444918578
10.5985373046 8.0304820988 13.3162822309
10.4577711202 9.1160388925 3.2613867854
10.3197362058 9.6587174413 3.2946701354
11.1685725992 8.2598768159 5.1138187241
10.4893534758 9.9259974220 3.5262592374
11.1935050345 8.5425407479 5.6243795131
11.1622670018 8.3501952905 5.6292234507
11.1413923092 8.4438304119 6.5156255503
11.1293201109 8.6140513318 7.6478562448
11.1285833024 9.0335705117 9.1053745139
11.1477052271 8.1994266040 10.0137475826
11.1069291003 8.9990204203 10.6285415069
11.0279725267 9.4055299728 11.9223041223
10.9068522499 9.0280023184 12.8634202328
10.8061035971 8.7885386849 13.3802849313
10.5904136366 8.7084263418 13.7145322885
10.4880437892 9.3710282342 13.9671170530
10.4561409607 10.7197290462 3.8513092298
11.1804981611 8.6683909964 6.2246154770
11.1609111816 8.8364347149 7.1876540010
11.1503138166 9.1755436069 8.3670518922
11.1412610366 9.9341207190 9.5531080572
11.1302743909 11.0635787614 10.3482857442
11.1017568606 10.3842841258 10.5183405840
11.0266071714 10.3416642846 11.6635790587
10.9118735970 10.2757154353 12.7212405867
10.7988379917 9.3402980627 13.4991834357
10.6707957793 10.0856107177 13.6498017280
10.4883405043 11.3970498957 4.2226757090
10.4163498945 11.7195332851 4.3385458667
10.4952245944 11.9926577980 4.5658627731
11.0843356991 11.7831764398 10.9209545716
11.1171088209 12.2459787901 10.6543011958
11.0083644461 11.5126421132 11.6486550636
10.9016962222 11.3680198886 12.6054123922
10.6923059580 11.2553085091 13.5264500748
10.2709018663 11.0951947018 14.3043096510
10.4845207018 13.3537265236 5.3609501348
10.5088206131 12.7343085400 5.0217674512
10.6217958685 13.2719003203 5.4498286960
11.0576007262 12.9517567739 11.0098475185
11.0842360189 13.3699317145 10.6696433547
10.9721145499 12.6807855404 11.6981983210
10.8528934468 12.4564772279 12.5937364558
10.7142222511 12.1687014453 13.3563485705
10.3105360890 12.3242148997 14.2078112915
10.3533055835 13.8284351014 5.5193529364
10.5058927979 13.9027478510 5.7291074705
10.9954295043 14.0338679565 10.8923572148
10.9996300002 14.4322725260 10.4424184644
10.9085992828 13.7814129901 11.6115185021
10.7632110983 13.5782354437 12.5393272530
10.5383603253 13.2421941043 13.5719180976
10.5093391571 15.1334683467 6.6602318837
10.4818306583 14.7516539565 6.3185287019
10.5513416922 15.2757824162 6.9337349941
10.8229850818 15.1333590272 10.5770246858
10.8508337867 15.3141638663 9.8603853355
10.8251428121 14.6661740576 11.3550300960
10.6196724111 14.7496929013 12.2811471554
10.4354848401 14.3828106359 13.3120618968
10.3712510511 16.1747487578 8.4482515339
10.4964595462 15.7730558620 7.7351810116
10.5782811965 15.9558734563 9.6288216624
10.6714649099 15.7950280670 8.9118550481
10.5235119898 15.9677871747 10.5705408029
10.5463943523 15.5853058140 11.4676017288
3 2 1 0
3 0 3 2
3 0 1 4
3 4 1 5
3 3 0 6
3 0 7 6
3 0 4 7
3 9 8 7
3 7 8 6
3 9 10 8
3 13 12 11
3 13 11 5
3 11 4 5
3 11 14 4
3 4 15 7
3 4 14 15
3 7 16 9
3 7 15 16
3 10 9 17
3 9 18 17
3 9 16 18
3 18 19 17
3 12 20 11
3 22 21 20
3 21 11 20
3 21 14 11
3 14 23 15
3 14 21 23
3 15 24 16
3 15 23 24
3 16 25 18
3 16 24 25
3 19 18 26
3 18 27 26
3 18 25 27
3 27 28 26
3 21 22 29
3 29 22 30
3 21 31 23
3 21 29 31
3 23 32 24
3 23 31 32
3 24 33 25
3 24 32 33
3 25 34 27
3 25 33 34
3 28 27 35
3 35 27 34
3 30 36 29
3 29 36 31
3 31 36 37
3 39 38 37
3 38 31 37
3 38 32 31
3 32 40 33
3 32 38 40
3 33 41 34
3 33 40 41
3 35 34 42
3 42 34 41
3 38 39 43
3 43 39 44
3 38 45 40
3 38 43 45
3 40 46 41
3 40 45 46
3 42 41 47
3 47 41 46
3 43 44 48
3 48 44 49
3 51 45 50
3 45 48 50
3 45 43 48
3 45 51 46
3 46 51 52
3 46 52 47
3 49 53 48
3 48 53 50
3 56 55 54
3 58 57 54
3 54 57 56
3 58 59 57
3 54 55 60
3 60 55 61
3 60 1 2
3 58 60 2
3 54 60 58
3 63 62 3
3 3 62 2
3 62 59 2
3 59 58 2
3 65 64 63
3 63 64 62
3 65 66 64
3 69 68 67
3 69 67 61
3 67 60 61
3 67 70 60
3 70 5 1
3 70 1 60
3 6 63 3
3 63 6 8
3 63 8 65
3 72 71 10
3 10 71 8
3 71 66 8
3 66 65 8
3 72 73 71
3 67 68 74
3 74 68 75
3 74 12 13
3 70 74 13
3 67 74 70
3 70 13 5
3 17 72 10
3 77 76 19
3 19 76 17
3 76 73 17
3 73 72 17
3 77 78 76
3 74 75 79
3 79 75 80
3 81 20 12
3 74 81 12
3 79 81 74
3 81 22 20
3 26 77 19
3 26 28 77
3 28 78 77
3 28 82 78
3 80 83 79
3 79 83 81
3 81 83 84
3 22 81 84
3 85 22 84
3 30 22 85
3 35 87 86
3 82 35 86
3 28 35 82
3 87 88 86
3 36 30 89
3 30 90 89
3 30 85 90
3 91 37 36
3 91 36 89
3 91 39 37
3 42 92 87
3 42 87 35
3 88 87 93
3 93 87 92
3 90 94 89
3 96 95 94
3 95 89 94
3 95 91 89
3 95 44 39
3 95 39 91
3 47 97 92
3 47 92 42
3 93 92 98
3 98 92 97
3 96 99 95
3 44 95 99
3 100 44 99
3 49 44 100
3 50 101 51
3 102 52 51
3 102 51 101
3 102 103 52
3 52 103 47
3 103 104 47
3 104 97 47
3 97 104 98
3 53 49 105
3 49 106 105
3 49 100 106
3 101 50 53
3 105 101 53
3 107 101 105
3 109 102 108
3 102 107 108
3 102 101 107
3 102 109 103
3 106 110 105
3 105 110 107
3 107 110 111
3 107 111 108
3 114 113 112
3 116 115 112
3 112 115 114
3 118 117 116
3 116 117 115
3 120 119 118
3 118 119 117
3 122 121 120
3 120 121 119
3 122 123 121
3 112 113 124
3 124 113 125
3 112 126 116
3 112 124 126
3 126 55 56
3 118 126 56
3 116 126 118
3 118 56 57
3 118 57 120
3 120 57 59
3 127 120 59
3 122 120 127
3 123 122 128
3 122 129 128
3 122 127 129
3 131 130 129
3 129 130 128
3 131 132 130
3 124 125 133
3 133 125 134
3 124 135 126
3 124 133 135
3 135 61 55
3 135 55 126
3 62 127 59
3 127 62 64
3 127 64 129
3 129 64 66
3 136 129 66
3 131 129 136
3 132 131 137
3 131 138 137
3 131 136 138
3 138 139 137
3 133 134 140
3 140 134 141
3 140 68 69
3 135 140 69
3 133 140 135
3 135 69 61
3 71 136 66
3 136 71 73
3 142 136 73
3 138 136 142
3 139 138 143
3 138 144 143
3 138 142 144
3 144 145 143
3 140 141 146
3 146 141 147
3 146 75 68
3 146 68 140
3 76 142 73
3 142 76 78
3 148 142 78
3 144 142 148
3 145 144 149
3 149 144 148
3 146 147 150
3 150 147 151
3 150 80 75
3 150 75 146
3 82 152 148
3 82 148 78
3 149 148 153
3 153 148 152
3 150 151 154
3 154 151 155
3 156 83 80
3 150 156 80
3 154 156 150
3 157 84 83
3 157 83 156
3 157 85 84
3 86 152 82
3 159 158 88
3 88 158 86
3 158 153 86
3 153 152 86
3 159 160 158
3 155 161 154
3 154 161 156
3 156 161 162
3 164 163 162
3 163 156 162
3 163 157 156
3 163 90 85
3 163 85 157
3 93 165 159
3 93 159 88
3 160 159 166
3 166 159 165
3 163 164 167
3 167 164 168
3 169 94 90
3 163 169 90
3 167 169 163
3 169 96 94
3 98 170 165
3 98 165 93
3 166 165 171
3 171 165 170
3 167 168 172
3 172 168 173
3 167 174 169
3 167 172 174
3 175 99 96
3 169 175 96
3 174 175 169
3 175 100 99
3 103 176 104
3 170 98 104
3 176 170 104
3 177 170 176
3 171 170 178
3 178 170 177
3 173 179 172
3 172 179 174
3 174 179 180
3 182 181 180
3 181 174 180
3 181 175 174
3 181 106 100
3 181 100 175
3 108 183 109
3 176 103 109
3 183 176 109
3 184 176 183
3 186 177 185
3 177 184 185
3 177 176 184
3 177 186 178
3 181 182 187
3 187 182 188
3 189 110 106
3 181 189 106
3 187 189 181
3 190 111 110
3 190 110 189
3 183 108 111
3 190 183 111
3 191 183 190
3 193 184 192
3 184 191 192
3 184 183 191
3 184 193 185
3 188 194 187
3 187 194 189
3 189 194 195
3 189 195 190
3 190 195 196
3 190 196 191
3 191 196 197
3 191 197 192
3 200 199 198
3 202 201 198
3 198 201 200
3 204 203 202
3 202 203 201
3 206 205 204
3 204 205 203
3 208 207 206
3 206 207 205
3 208 209 207
3 212 211 210
3 212 210 199
3 199 210 198
3 210 113 198
3 113 114 198
3 198 114 115
3 198 115 202
3 202 115 117
3 202 117 204
3 204 117 119
3 204 119 206
3 206 119 121
3 206 121 208
3 214 213 123
3 123 213 121
3 213 209 121
3 209 208 121
3 216 215 214
3 214 215 213
3 216 217 215
3 210 211 218
3 218 211 219
3 218 125 113
3 218 113 210
3 128 214 123
3 214 128 130
3 214 130 216
3 221 220 132
3 132 220 130
3 220 217 130
3 217 216 130
3 223 222 221
3 221 222 220
3 223 224 222
3 218 219 225
3 225 219 226
3 225 134 125
3 225 125 218
3 137 221 132
3 221 137 139
3 227 221 139
3 223 221 227
3 224 223 228
3 228 223 227
3 225 226 229
3 229 226 230
3 229 141 134
3 229 134 225
3 143 227 139
3 232 231 145
3 145 231 143
3 231 228 143
3 228 227 143
3 232 233 231
3 229 230 234
3 234 230 235
3 234 147 141
3 234 141 229
3 149 236 232
3 149 232 145
3 233 232 237
3 237 232 236
3 234 235 238
3 238 235 239
3 238 151 147
3 238 147 234
3 153 240 236
3 153 236 149
3 237 236 241
3 241 236 240
3 238 239 242
3 242 239 243
3 242 155 151
3 242 151 238
3 158 240 153
3 245 244 160
3 160 244 158
3 244 241 158
3 241 240 158
3 245 246 244
3 243 247 242
3 247 249 248
3 247 248 161
3 242 247 161
3 155 242 161
3 250 162 161
3 250 161 248
3 250 164 162
3 166 251 245
3 166 245 160
3 246 245 252
3 252 245 251
3 249 253 248
3 255 254 253
3 254 248 253
3 254 250 248
3 254 168 164
3 254 164 250
3 171 256 251
3 171 251 166
3 252 251 257
3 257 251 256
3 254 255 258
3 258 255 259
3 258 173 168
3 258 168 254
3 178 260 256
3 178 256 171
3 257 256 261
3 261 256 260
3 259 262 258
3 262 264 263
3 262 263 179
3 258 262 179
3 173 258 179
3 265 180 179
3 265 179 263
3 265 182 180
3 185 266 186
3 260 178 186
3 266 260 186
3 267 260 266
3 261 260 268
3 268 260 267
3 263 264 269
3 269 264 270
3 263 271 265
3 263 269 271
3 271 188 182
3 271 182 265
3 192 272 193
3 266 185 193
3 272 266 193
3 273 266 272
3 275 267 274
3 267 273 274
3 267 266 273
3 267 275 268
3 270 276 269
3 269 276 271
3 271 276 277
3 277 279 278
3 277 278 194
3 271 277 194
3 188 271 194
3 280 195 194
3 280 194 278
3 281 196 195
3 281 195 280
3 282 197 196
3 282 196 281
3 272 192 197
3 282 272 197
3 283 272 282
3 285 273 284
3 273 283 284
3 273 272 283
3 273 285 274
3 279 286 278
3 278 286 280
3 280 286 287
3 289 288 287
3 288 280 287
3 288 281 280
3 281 290 282
3 281 288 290
3 292 283 291
3 283 290 291
3 283 282 290
3 283 292 284
3 295 294 293
3 297 296 293
3 293 296 295
3 299 298 297
3 297 298 296
3 301 300 299
3 299 300 298
3 301 302 300
3 305 304 303
3 305 303 294
3 294 303 293
3 303 199 293
3 199 200 293
3 293 200 201
3 293 201 297
3 297 201 203
3 297 203 299
3 299 203 205
3 299 205 301
3 306 302 301
3 205 306 301
3 207 306 205
3 308 307 209
3 307 207 209
3 307 306 207
3 310 309 308
3 308 309 307
3 310 311 309
3 303 304 212
3 304 211 212
3 304 312 211
3 303 212 199
3 213 308 209
3 308 213 215
3 308 215 310
3 314 313 217
3 217 313 215
3 313 311 215
3 311 310 215
3 314 315 313
3 318 317 316
3 312 318 316
3 219 312 316
3 211 312 219
3 220 314 217
3 319 315 314
3 220 319 314
3 222 319 220
3 222 224 319
3 319 224 320
3 316 317 321
3 321 317 322
3 321 226 219
3 321 219 316
3 228 324 323
3 320 228 323
3 224 228 320
3 324 325 323
3 321 322 326
3 326 322 327
3 326 230 226
3 326 226 321
3 231 324 228
3 231 233 324
3 233 325 324
3 233 328 325
3 327 329 326
3 230 326 329
3 330 230 329
3 235 230 330
3 237 332 331
3 328 237 331
3 233 237 328
3 332 333 331
3 330 239 235
3 334 239 330
3 241 335 332
3 241 332 237
3 333 332 336
3 336 332 335
3 334 243 239
3 337 243 334
3 244 335 241
3 244 246 335
3 246 336 335
3 246 338 336
3 337 339 243
3 243 339 247
3 249 247 339
3 249 339 340
3 252 342 341
3 338 252 341
3 246 252 338
3 253 249 343
3 249 344 343
3 249 340 344
3 343 255 253
3 257 345 342
3 257 342 252
3 344 346 343
3 255 343 346
3 347 255 346
3 259 255 347
3 349 348 345
3 257 349 345
3 261 349 257
3 347 350 259
3 259 350 262
3 264 262 350
3 264 350 351
3 268 349 261
3 268 352 349
3 354 270 353
3 270 351 353
3 270 264 351
3 355 354 353
3 274 356 275
3 356 357 275
3 357 268 275
3 357 352 268
3 354 276 270
3 355 358 354
3 358 276 354
3 358 277 276
3 279 277 358
3 279 358 359
3 284 360 285
3 360 361 285
3 285 361 274
3 361 362 274
3 362 356 274
3 356 362 357
3 359 363 279
3 279 363 286
3 363 365 364
3 287 363 364
3 286 363 287
3 364 289 287
3 368 367 366
3 292 291 366
3 367 292 366
3 369 292 367
3 284 292 360
3 292 370 360
3 292 369 370
3 360 370 361
3 373 372 371
3 375 374 371
3 371 374 373
3 377 376 375
3 375 376 374
3 379 378 377
3 377 378 376
3 379 380 378
3 371 372 295
3 372 294 295
3 372 381 294
3 371 295 296
3 371 296 375
3 375 296 298
3 375 298 377
3 377 298 300
3 377 300 379
3 383 382 302
3 302 382 300
3 382 380 300
3 380 379 300
3 385 384 383
3 383 384 382
3 385 386 384
3 388 387 305
3 305 387 304
3 305 294 381
3 305 381 388
3 306 383 302
3 383 306 307
3 383 307 385
3 389 386 385
3 307 389 385
3 309 389 307
3 391 390 311
3 390 309 311
3 390 389 309
3 391 392 390
3 395 394 393
3 387 395 393
3 312 387 393
3 304 387 312
3 313 391 311
3 397 396 315
3 315 396 313
3 396 392 313
3 392 391 313
3 397 398 396
3 393 394 318
3 394 317 318
3 394 399 317
3 393 318 312
3 319 397 315
3 401 400 320
3 320 400 319
3 400 398 319
3 398 397 319
3 401 402 400
3 399 322 317
3 403 322 399
3 323 401 320
3 323 325 401
3 325 402 401
3 325 404 402
3 403 327 322
3 405 327 403
3 328 407 406
3 404 328 406
3 325 328 404
3 407 408 406
3 405 409 327
3 327 409 329
3 330 329 409
3 330 409 410
3 331 407 328
3 331 333 407
3 333 408 407
3 333 411 408
3 410 334 330
3 412 334 410
3 336 411 333
3 336 413 411
3 415 337 414
3 337 412 414
3 337 334 412
3 416 415 414
3 338 413 336
3 338 417 413
3 415 339 337
3 340 339 415
3 416 340 415
3 418 340 416
3 419 417 338
3 419 338 341
3 421 344 420
3 344 418 420
3 344 340 418
3 422 421 420
3 425 424 423
3 421 346 344
3 347 346 421
3 422 347 421
3 426 347 422
3 425 423 348
3 349 425 348
3 427 425 349
3 426 428 347
3 347 428 350
3 351 350 428
3 351 428 429
3 352 427 349
3 352 430 427
3 429 431 351
3 351 431 353
3 355 353 431
3 355 431 432
3 435 434 433
3 434 430 433
3 430 357 433
3 430 352 357
3 432 436 355
3 355 436 358
3 359 358 436
3 359 436 437
3 440 439 438
3 438 439 435
3 438 435 433
3 361 438 433
3 362 361 433
3 362 433 357
3 437 441 359
3 359 441 363
3 443 442 365
3 363 443 365
3 441 443 363
3 445 444 442
3 445 442 443
3 367 368 444
3 445 367 444
3 446 367 445
3 367 447 369
3 446 447 367
3 438 370 440
3 370 447 440
3 370 369 447
3 370 438 361
3 450 449 448
3 448 451 450
3 453 452 373
3 373 452 372
3 374 448 449
3 453 374 449
3 373 374 453
3 454 451 448
3 374 454 448
3 376 454 374
3 455 376 378
3 455 454 376
3 457 456 380
3 456 378 380
3 456 455 378
3 457 458 456
3 461 460 459
3 452 461 459
3 381 452 459
3 372 452 381
3 382 457 380
3 462 458 457
3 382 462 457
3 384 462 382
3 464 463 386
3 463 384 386
3 463 462 384
3 464 465 463
3 468 467 466
3 468 466 460
3 460 466 459
3 466 387 459
3 387 388 459
3 459 388 381
3 389 464 386
3 469 465 464
3 389 469 464
3 390 469 389
3 390 392 469
3 469 392 470
3 466 467 395
3 467 394 395
3 467 471 394
3 466 395 387
3 472 470 392
3 472 392 396
3 474 473 398
3 473 396 398
3 473 472 396
3 474 475 473
3 477 399 476
3 399 471 476
3 399 394 471
3 478 477 476
3 400 474 398
3 400 402 474
3 402 475 474
3 402 479 475
3 480 403 477
3 477 403 399
3 477 478 481
3 477 481 480
3 404 479 402
3 404 482 479
3 483 405 480
3 480 405 403
3 480 481 484
3 480 484 483
3 404 406 485
3 486 404 485
3 482 404 486
3 408 485 406
3 483 409 405
3 410 409 483
3 484 410 483
3 487 410 484
3 488 486 485
3 485 408 488
3 408 489 488
3 408 411 489
3 491 412 490
3 412 487 490
3 412 410 487
3 492 491 490
3 413 489 411
3 413 493 489
3 491 414 412
3 416 414 491
3 492 416 491
3 494 416 492
3 417 493 413
3 417 495 493
3 494 418 416
3 496 418 494
3 417 419 497
3 498 417 497
3 495 417 498
3 496 499 418
3 418 499 420
3 422 420 499
3 422 499 500
3 498 497 424
3 425 498 424
3 501 498 425
3 503 426 502
3 426 500 502
3 426 422 500
3 504 503 502
3 427 501 425
3 427 505 501
3 503 428 426
3 429 428 503
3 504 429 503
3 506 429 504
3 509 508 507
3 508 505 507
3 505 430 507
3 505 427 430
3 506 510 429
3 429 510 431
3 512 511 432
3 431 512 432
3 510 512 431
3 513 511 512
3 509 507 434
3 435 509 434
3 514 509 435
3 434 507 430
3 511 436 432
3 516 515 437
3 516 437 436
3 513 516 436
3 511 513 436
3 518 517 515
3 518 515 516
3 519 517 518
3 522 521 520
3 524 523 520
3 524 520 521
3 439 440 523
3 524 439 523
3 525 439 524
3 435 439 514
3 514 439 525
3 515 441 437
3 441 515 443
3 443 515 517
3 519 526 517
3 526 443 517
3 526 445 443
3 520 446 522
3 446 526 522
3 446 445 526
3 446 520 447
3 447 520 523
3 447 523 440
3 529 528 527
3 449 450 527
3 450 529 527
3 450 530 529
3 532 531 451
3 531 450 451
3 531 530 450
3 532 533 531
3 536 535 534
3 536 534 528
3 528 534 527
3 534 452 527
3 452 453 527
3 527 453 449
3 454 532 451
3 537 533 532
3 454 537 532
3 455 537 454
3 538 455 456
3 538 537 455
3 540 539 458
3 539 456 458
3 539 538 456
3 540 541 539
3 534 535 461
3 535 460 461
3 535 542 460
3 534 461 452
3 462 540 458
3 543 541 540
3 462 543 540
3 463 543 462
3 545 544 465
3 544 463 465
3 544 543 463
3 545 546 544
3 547 467 468
3 548 547 468
3 460 548 468
3 542 548 460
3 469 545 465
3 550 549 470
3 470 549 469
3 549 546 469
3 546 545 469
3 550 551 549
3 552 471 547
3 547 471 467
3 547 548 553
3 547 553 552
3 472 550 470
3 472 473 550
3 473 554 550
3 554 551 550
3 473 555 554
3 475 555 473
3 552 476 471
3 478 476 552
3 553 478 552
3 556 478 553
3 557 554 555
3 555 475 557
3 475 558 557
3 475 479 558
3 556 481 478
3 559 481 556
3 482 558 479
3 482 560 558
3 559 484 481
3 561 484 559
3 486 560 482
3 486 562 560
3 564 487 563
3 487 561 563
3 487 484 561
3 565 564 563
3 566 562 486
3 566 486 488
3 488 489 566
3 566 489 567
3 564 490 487
3 492 490 564
3 565 492 564
3 568 492 565
3 493 567 489
3 493 569 567
3 571 494 570
3 494 568 570
3 494 492 568
3 572 571 570
3 495 569 493
3 495 573 569
3 574 496 571
3 571 496 494
3 571 572 575
3 571 575 574
3 498 573 495
3 498 576 573
3 574 499 496
3 578 577 500
3 578 500 499
3 575 578 499
3 574 575 499
3 579 577 578
3 501 576 498
3 501 580 576
3 577 502 500
3 504 502 577
3 579 504 577
3 581 504 579
3 584 583 582
3 583 580 582
3 580 505 582
3 580 501 505
3 586 506 585
3 506 581 585
3 506 504 581
3 588 587 586
3 588 586 585
3 589 587 588
3 584 582 508
3 509 584 508
3 590 584 509
3 508 582 505
3 586 510 506
3 510 586 512
3 512 586 587
3 592 591 513
3 592 513 512
3 589 592 512
3 587 589 512
3 594 593 591
3 594 591 592
3 596 595 593
3 596 593 594
3 598 597 595
3 598 595 596
3 600 599 597
3 600 597 598
3 602 601 599
3 602 599 600
3 602 590 601
3 590 514 601
3 590 509 514
3 591 516 513
3 516 591 518
3 518 591 593
3 518 593 519
3 593 603 519
3 593 595 603
3 522 603 521
3 603 597 521
3 603 595 597
3 521 597 524
3 524 597 599
3 524 599 525
3 525 599 601
3 525 601 514
3 603 526 519
3 526 603 522
3 605 604 529
3 529 604 528
3 606 529 530
3 606 605 529
3 607 530 531
3 607 606 530
3 531 533 607
3 607 533 608
3 610 609 536
3 536 609 535
3 536 528 604
3 536 604 610
3 611 608 533
3 611 533 537
3 612 537 538
3 612 611 537
3 613 538 539
3 613 612 538
3 615 614 541
3 614 539 541
3 614 613 539
3 615 616 614
3 609 542 535
3 617 542 609
3 543 615 541
3 618 616 615
3 543 618 615
3 544 618 543
3 544 546 618
3 618 546 619
3 617 548 542
3 620 548 617
3 621 619 546
3 621 546 549
3 549 551 621
3 621 551 622
3 620 553 548
3 623 553 620
3 554 622 551
3 554 624 622
3 626 556 625
3 556 623 625
3 556 553 623
3 627 626 625
3 628 624 554
3 628 554 557
3 557 558 628
3 628 558 629
3 630 559 626
3 626 559 556
3 626 627 631
3 626 631 630
3 560 629 558
3 560 632 629
3 633 561 630
3 630 561 559
3 630 631 634
3 630 634 633
3 562 632 560
3 562 635 632
3 633 563 561
3 637 636 565
3 637 565 563
3 634 637 563
3 633 634 563
3 638 636 637
3 562 566 639
3 640 562 639
3 635 562 640
3 567 639 566
3 641 568 636
3 636 568 565
3 636 638 642
3 636 642 641
3 643 640 639
3 639 567 643
3 567 644 643
3 567 569 644
3 641 570 568
3 646 645 572
3 646 572 570
3 642 646 570
3 641 642 570
3 647 645 646
3 573 644 569
3 573 648 644
3 649 575 645
3 645 575 572
3 645 647 650
3 645 650 649
3 653 652 651
3 652 648 651
3 648 576 651
3 648 573 576
3 649 578 575
3 655 654 579
3 655 579 578
3 650 655 578
3 649 650 578
3 656 654 655
3 653 651 657
3 653 657 658
3 580 657 576
3 576 657 651
3 659 581 654
3 654 581 579
3 654 656 660
3 661 654 660
3 659 654 661
3 662 661 660
3 665 664 663
3 667 666 663
3 667 663 664
3 666 667 658
3 666 658 657
3 584 666 657
3 583 584 657
3 583 657 580
3 659 585 581
3 585 659 588
3 588 659 661
3 669 668 589
3 669 589 588
3 662 669 588
3 661 662 588
3 671 670 668
3 671 668 669
3 673 672 670
3 673 670 671
3 675 674 672
3 675 672 673
3 674 675 665
3 663 674 665
3 676 674 663
3 677 663 666
3 676 663 677
3 590 677 584
3 584 677 666
3 668 592 589
3 592 668 594
3 594 668 670
3 594 670 596
3 596 670 672
3 596 672 598
3 598 672 674
3 598 674 600
3 600 674 676
3 600 676 602
3 602 676 677
3 602 677 590
3 678 604 605
3 606 679 605
3 605 679 678
3 607 680 606
3 606 680 679
3 608 680 607
3 682 681 610
3 610 681 609
3 682 610 604
3 683 682 604
3 678 683 604
3 682 683 684
3 685 678 679
3 683 678 685
3 686 679 680
3 685 679 686
3 611 687 608
3 687 680 608
3 687 686 680
3 612 688 611
3 611 688 687
3 613 689 612
3 612 689 688
3 689 613 690
3 613 691 690
3 613 614 691
3 614 616 691
3 691 616 692
3 681 617 609
3 693 617 681
3 684 683 694
3 684 694 695
3 696 683 685
3 694 683 696
3 697 685 686
3 696 685 697
3 698 686 687
3 697 686 698
3 699 687 688
3 698 687 699
3 700 688 689
3 699 688 700
3 689 690 701
3 689 701 700
3 702 692 616
3 702 616 618
3 618 619 702
3 702 619 703
3 693 620 617
3 704 620 693
3 695 694 705
3 695 705 706
3 707 694 696
3 705 694 707
3 708 696 697
3 707 696 708
3 709 697 698
3 708 697 709
3 710 698 699
3 709 698 710
3 711 699 700
3 710 699 711
3 700 701 712
3 700 712 711
3 619 621 713
3 714 619 713
3 703 619 714
3 622 713 621
3 704 623 620
3 715 623 704
3 706 705 716
3 706 716 717
3 718 705 707
3 716 705 718
3 719 707 708
3 718 707 719
3 720 708 709
3 719 708 720
3 721 709 710
3 720 709 721
3 711 723 722
3 721 711 722
3 710 711 721
3 723 711 712
3 726 725 724
3 724 725 714
3 713 724 714
3 727 724 713
3 624 727 622
3 622 727 713
3 715 728 623
3 623 728 625
3 716 729 627
3 728 716 627
3 625 728 627
3 717 716 728
3 730 716 718
3 729 716 730
3 731 718 719
3 730 718 731
3 732 719 720
3 731 719 732
3 733 720 721
3 732 720 733
3 721 722 734
3 735 721 734
3 733 721 735
3 736 735 734
3 726 724 737
3 726 737 738
3 739 724 727
3 737 724 739
3 628 740 624
3 740 727 624
3 740 739 727
3 629 740 628
3 742 741 729
3 741 627 729
3 741 631 627
3 744 743 742
3 729 744 742
3 730 744 729
3 745 730 731
3 744 730 745
3 746 731 732
3 745 731 746
3 747 732 733
3 746 732 747
3 748 733 735
3 747 733 748
3 735 736 749
3 735 749 748
3 738 737 750
3 738 750 751
3 752 737 739
3 750 737 752
3 753 739 740
3 752 739 753
3 632 753 629
3 629 753 740
3 755 634 754
3 634 741 754
3 634 631 741
3 743 744 756
3 754 757 755
3 759 758 756
3 744 759 756
3 745 759 744
3 760 745 746
3 759 745 760
3 761 746 747
3 760 746 761
3 762 747 748
3 761 747 762
3 748 749 763
3 764 748 763
3 762 748 764
3 764 763 751
3 750 764 751
3 765 764 750
3 766 750 752
3 765 750 766
3 753 768 767
3 766 753 767
3 752 753 766
3 753 632 768
3 632 769 768
3 632 635 769
3 755 637 634
3 638 637 755
3 757 638 755
3 770 638 757
3 771 758 759
3 771 759 760
3 771 760 772
3 772 760 761
3 772 761 773
3 773 761 762
3 773 762 774
3 776 775 774
3 762 776 774
3 764 776 762
3 777 764 765
3 776 764 777
3 778 765 766
3 777 765 778
3 766 767 779
3 780 766 779
3 778 766 780
3 779 769 780
3 769 640 780
3 769 635 640
3 782 642 781
3 642 770 781
3 642 638 770
3 783 782 781
3 775 776 784
3 775 784 785
3 786 776 777
3 784 776 786
3 787 777 778
3 786 777 787
3 788 778 780
3 787 778 788
3 643 789 640
3 789 780 640
3 789 788 780
3 644 789 643
3 782 646 642
3 791 790 647
3 791 647 646
3 783 791 646
3 782 783 646
3 792 790 791
3 785 784 793
3 785 793 794
3 795 784 786
3 793 784 795
3 796 786 787
3 795 786 796
3 797 787 788
3 796 787 797
3 798 788 789
3 797 788 798
3 648 798 644
3 644 798 789
3 799 650 790
3 790 650 647
3 790 792 800
3 790 800 799
3 794 793 801
3 794 801 802
3 803 793 795
3 801 793 803
3 804 795 796
3 803 795 804
3 805 796 797
3 804 796 805
3 653 805 652
3 805 798 652
3 805 797 798
3 652 798 648
3 799 655 650
3 807 806 656
3 807 656 655
3 800 807 655
3 799 800 655
3 808 806 807
3 802 801 809
3 802 809 810
3 811 801 803
3 809 801 811
3 812 803 804
3 811 803 812
3 813 804 805
3 812 804 813
3 658 813 653
3 653 813 805
3 806 660 656
3 815 814 662
3 815 662 660
3 808 815 660
3 806 808 660
3 817 816 814
3 817 814 815
3 816 817 810
3 809 816 810
3 818 816 809
3 819 809 811
3 818 809 819
3 665 819 664
3 819 812 664
3 819 811 812
3 664 812 667
3 667 812 813
3 667 813 658
3 814 669 662
3 669 814 671
3 671 814 816
3 671 816 673
3 673 816 818
3 673 818 675
3 675 818 819
3 675 819 665