OFF
671 1258 0
1.1038957753 7.0131645667 11.8744394162
1.2903453758 6.7366767816 10.8390082944
1.4740676279 6.1927282442 11.3851950225
1.4792407139 6.0407808114 12.3863374650
1.0938459079 6.8492711566 13.1930812787
1.4759647295 5.9451316109 13.6423365163
1.0982097732 6.7946837135 14.4431947577
1.4860145334 5.9456421680 14.8938563234
1.1312281448 6.8083087057 15.6468191638
1.5141679905 6.0408034240 16.0851121838
1.2092414389 6.8453519426 16.7232496589
1.5173823856 6.2377939871 16.9833924491
1.1634008411 8.2181791154 8.2467881747
1.5093584620 7.8808409262 7.3593672673
1.4840107195 7.4628470233 7.9743664766
1.4645175477 7.1957816516 8.7259458717
1.0689542521 7.9756613895 9.4736941905
1.3748147037 6.9266685884 9.8867544701
0.9975244933 7.7563997121 10.8019484460
0.8486586912 8.0663025177 11.9494105831
0.8494867198 7.8829727295 12.9378680077
0.8519372105 7.7975152085 14.1408384854
0.8788146965 7.7627093127 15.3514361128
0.9604217362 7.7468069614 16.5151603229
1.3555928043 6.7907520631 17.4864714595
1.1504158666 7.6719143740 17.6435792101
1.4777049435 7.0997321320 18.2470767020
1.3505811292 7.8752666554 18.5355524602
1.6631399680 7.5279851548 18.9637155413
1.1943374341 9.0061757717 7.2888993658
1.5701430159 9.1339206814 6.1983807144
1.5180681050 8.3952695543 6.7573630292
0.9350273812 9.2935634756 8.2505935013
0.8762740961 9.0868166343 9.1887589689
0.8257140469 8.9669722732 10.3888743807
0.7705199762 8.9604683190 11.6172739287
0.7335496625 8.9678622453 12.7893211389
0.7343628039 8.9098816083 13.9639372500
0.7593181531 8.8512688725 15.1637102677
0.8217014444 8.7778376967 16.3069174582
0.9688321428 8.7433850190 17.3888323111
1.2250983955 8.6886142503 18.3782619581
1.6096469342 8.4023103944 19.1459103537
1.1644370258 10.2192275729 6.8584624643
1.4727775042 10.4967902134 5.8949577346
0.9360818563 10.1743960383 7.8967464941
0.8184289621 10.1709885401 8.9820665426
0.7726320213 10.1215961177 10.1528469263
0.7411811913 10.0996235470 11.3950541982
0.7156353397 10.0871346134 12.6272982166
0.7151016494 10.0632608267 13.8311861689
0.7515847717 10.0135512943 15.0319487188
0.8217203453 9.8883785013 16.1999271305
0.9090958484 9.6420925620 17.1142247916
1.1648666206 9.8386624865 18.1207989025
1.5421606646 9.4824993066 19.0409991844
1.2117893091 11.3351160592 6.6301526352
1.5131302695 11.6461039641 5.8325128288
1.0113514535 11.2303361455 7.6060515756
0.8944675238 11.2113390656 8.7194947064
0.8414084296 11.2173752214 9.9203087993
0.8172387660 11.2469174445 11.1960799120
0.7918170296 11.2424573688 12.4798489129
0.7767713231 11.1798557364 13.6803443701
0.8306019041 11.1598847318 14.8471495259
0.9446670301 11.0689312909 16.0568598216
1.0944897931 10.7530509497 17.3127306282
1.3598870084 10.8113288023 18.2994101147
1.5160291729 10.3726624452 18.8415606735
1.3387856942 12.1474776412 6.5188963082
1.6101041185 12.5223637260 6.0574531565
1.1877657568 12.1650782380 7.3252918381
1.0778493300 12.1762137888 8.4102749380
1.0222215892 12.1960230461 9.6096119860
0.9983131594 12.2529498692 10.8778379529
1.0080826115 12.4221100562 12.2980640253
0.9623114767 12.2429339784 13.5636473958
0.9519857739 12.0463065618 14.5410584718
1.1946128944 12.2744440956 15.6865969526
1.3666147077 11.9200504195 16.9615258262
1.5587845241 11.5642850006 18.0267889436
1.4877960265 12.8626836375 6.8971224313
1.3502281410 12.9660388421 8.0176068399
1.2763147681 13.0033103048 9.2228274096
1.2428987462 13.0417976328 10.4569902683
1.2313554554 13.1293109661 11.6678819815
1.2667662112 13.2989842586 12.6268708417
1.2671505203 13.1630638736 13.4539179355
1.4913414688 13.6873932743 13.1853850861
1.3387949069 13.0082879842 14.6686823532
1.6201565377 13.1751132524 15.7109948289
1.8384470916 12.8951889792 16.6330662191
1.9935822268 12.3509224328 17.7141320302
1.8569857828 13.7965214054 14.1178862193
2.0415299630 13.6590993611 15.2445505886
2.2397761971 5.3311310972 10.3447198794
2.6281664480 5.1463841914 9.5679547353
2.6746222928 4.8270086377 10.2689126284
2.6492757306 4.6956010077 11.0182983179
1.9863201629 5.3951093556 11.5213661799
2.5954118957 4.5712553785 12.2421938132
1.9840572831 5.2203001908 12.9081522470
2.5787780740 4.4909931935 13.5426373125
1.9844070961 5.1757031213 14.2043631430
2.5903893135 4.4904941746 14.8392541837
2.0080617407 5.2353136745 15.4943996085
2.6777228937 4.5626679855 16.1687075609
2.0534130659 5.4674274355 16.8828993751
2.9682466602 4.6685014464 17.6114227835
2.3337459166 5.5957353969 18.1527253461
2.9840234055 5.0885473892 18.6474886255
2.6603842632 5.7779705062 19.1368353411
3.3793709610 5.2389824064 19.4493687280
1.9856483942 6.7855564239 7.8377642021
2.5861617707 6.5112994137 6.9955454209
2.5617896027 6.0666227695 7.7254917546
2.5648115350 5.6927570726 8.4828885300
1.9641566329 6.1203183195 9.3009531415
1.6908923376 6.0689555807 10.5083367015
1.7330593245 6.2599057030 17.7759288420
2.0296065226 6.6124856151 18.8609266006
3.0918979238 5.8603757495 19.8342174433
2.6504988899 6.5554470087 19.7994220033
3.2613905329 6.3192557045 20.3537549306
2.0078905682 7.7221332645 6.4843302625
2.4424920371 7.7172788640 5.6021300022
2.6313755495 7.0538552679 6.1155409191
2.2186540500 7.7082814646 19.7402879566
3.1331470160 7.2418953227 20.6618882703
2.3919025576 9.0204498044 4.5600899232
2.9091746613 9.2002368930 3.7466270916
2.7854646661 8.5080965431 4.2765991208
2.6438719848 8.1168443897 4.8488391194
2.1166092806 8.5530775589 5.4189908138
2.0819698246 9.0574585332 19.7689323381
2.8508166054 8.5979210394 20.5475204191
2.3034351849 10.1236310806 4.2900318796
2.7988835246 10.5408585929 3.4502808170
1.8982624257 9.7039121297 5.1676897818
2.0205788797 10.2807981089 19.5042778086
2.5739301943 9.6913993784 20.1375400525
2.3230697625 11.3645875988 4.1660536906
2.8867360625 11.7182574321 3.3408205328
1.8541586647 10.9451077591 5.0252425753
1.7656138629 11.1014341803 18.8561757132
2.2946325948 11.2067426915 19.3748296454
2.6678371401 10.5921889118 19.9086844801
2.5274165651 12.4852806990 4.0762297150
3.2228850331 12.7777887863 3.3180053529
1.9767525923 12.2777225257 5.1064817721
2.1397316425 11.8093093971 18.6512130415
2.7033096498 11.6523190678 19.2072082265
2.6832689442 11.2148731506 19.6415695178
2.7941644214 13.2209764570 4.0035311501
3.2646358771 13.5110988661 3.7486242984
2.4367803637 13.2565643489 4.7522585853
2.0120926932 13.4064082502 6.0349872569
1.6862097142 13.5447407472 7.4748216063
1.5382996661 13.5793509256 8.7527392035
1.4781961267 13.6018442555 10.0005179252
1.4545546698 13.6406365815 11.2170699572
1.4653070092 13.7032500042 12.3382302985
2.0780104881 13.4752071604 16.0639613467
2.4740572291 13.3557345863 16.5931644015
2.5927717996 12.9129944517 17.3490830743
2.7897062258 12.2870895213 18.3586174274
2.9423627067 13.6894098440 4.3112672568
2.7690156171 13.9721527496 5.0858609870
2.3689734610 14.1023943959 5.9885583030
2.0359226024 13.9594340036 6.8234327735
2.3720832298 14.2519263693 6.1896263483
1.7387710546 13.8597049597 8.1707941162
1.6189424270 13.8520336596 9.4496138765
1.5756518674 13.8702200465 10.6914270084
1.5862162241 13.9110515271 11.9039569921
1.7534123475 13.9736440255 13.1684107847
2.4587223503 14.1890742379 14.0587132942
3.0340829442 14.0915214452 14.7254031113
2.7343419401 13.6990989590 15.8955450662
3.2798266763 4.3158627635 10.1682871261
3.7576295520 4.1962760472 9.1896835216
4.3388488918 3.5743809138 9.7753326485
3.9255235165 3.5888613890 10.9513623971
3.2738599773 4.0099998188 11.5833659972
4.0884313725 3.2600071377 12.1704002080
3.2575398856 3.8676647404 12.8918554510
3.9422725076 3.2300180453 13.5970963997
3.2271096096 3.8322018048 14.2017833431
3.9120876447 3.2279818729 14.8880219063
3.2710776108 3.8476015400 15.4925158166
4.0179896831 3.2522992013 16.1466897481
3.4603730094 3.8959748769 16.7783563639
4.4194646827 3.2869333151 17.4731083543
3.7570609177 3.9677667858 17.8207903992
4.2988035158 3.7571569668 18.3464327598
3.1930863739 5.4396328231 7.6553369894
3.9108979825 5.1548119357 6.9233689996
3.8309987685 4.8107989363 7.6265476367
3.7801548181 4.5392034749 8.2928441040
3.1814155691 4.8449620823 8.9007030951
3.9522697362 4.4136738065 18.8836912239
4.0992238577 4.9469028987 19.7997560075
3.6449308079 6.6168927815 5.1606651366
3.9940047708 6.8043961903 4.4765518549
4.2269567306 6.2102924258 4.9396597859
4.1865656688 5.6318094462 5.8043508303
3.2791407419 6.2065951926 6.2791655336
3.9068438001 5.6087933646 20.3293701582
3.8624222829 6.4870660462 20.9716771377
3.4020730973 7.7705245726 4.1929858809
4.1207949950 7.8231286702 3.3186201184
4.2685316254 7.1178102916 3.8557423996
2.9744947827 7.2276588651 5.3404155866
4.0263025731 7.2141020680 21.4814810377
3.4690001733 7.9260806354 21.3160585755
3.9522980517 7.3682824749 21.6772389759
3.6339018819 7.9036439675 21.5967146919
3.6921514408 8.7041859521 3.0816333724
4.1008566021 9.3415814166 2.2782792350
4.5773412390 8.3362459129 2.4920809978
3.3816591018 8.7341499164 21.1190436488
3.6052030017 8.4353609991 21.4660700604
3.4061053717 9.8504997614 2.8302650099
3.9594705590 10.3665478773 2.1424659290
3.7374040248 8.8606200914 21.2614194884
3.4230462320 9.6779573585 20.5244539645
3.9849125471 8.6032863882 21.4834576884
3.3617397563 10.9911454562 2.6950839079
3.9832429064 11.3744860695 2.1370226039
3.1703820288 11.0111029403 19.7588266022
3.7137870086 10.5122505177 20.0130335675
3.8181793956 11.0988838435 19.4935868304
3.5370615026 11.9768632673 2.6484916254
4.0371841657 12.0285518419 2.2282157066
3.3086145618 11.7230131514 19.0837246191
3.8067051319 11.6271119405 18.9927596082
3.6551120731 12.0835817529 18.4642468076
4.1636313907 12.6483493651 2.5383918232
3.9529296346 13.4198662312 3.2411088163
3.3194901355 12.6753190184 17.7486429573
3.3392442234 13.2170980926 16.7951882561
3.7984560164 13.9997749941 4.1035048661
3.3892171287 14.2670985291 4.7877150299
4.4164141358 14.3202678071 4.3915858108
2.7102602225 14.2814595043 5.5582165507
3.3840401155 14.4088247486 14.0722952802
4.2302011968 14.3728362931 13.7988551159
4.0354810989 14.5407600430 13.6506010354
4.2767166899 14.0007005735 14.6699763961
3.7134254485 13.7042045710 15.6825739966
4.7355245439 2.6741962665 13.0963017734
4.9020742141 2.6785695012 12.0490529780
5.6137805574 2.1646824490 12.5367131984
5.4321600747 2.1738958172 13.8890139447
4.6322210665 2.6735204483 14.3589921529
5.3776453196 2.2016896422 15.1442609004
4.6332808003 2.6987845386 15.5890812104
5.4142341494 2.2910698874 16.3293378329
4.7397760115 2.7554067622 16.6825702865
5.3599388170 2.4779144437 17.1510121851
4.9486547740 2.7747927365 17.3320319233
5.5138838251 2.7556190899 17.9205310370
4.5178637591 4.2807380540 7.5681477529
5.0319305619 4.2888010108 6.7325621171
5.5585583593 3.7765385831 7.0668885098
5.3085509931 3.3282829347 8.4870581734
4.3163668347 3.9378508972 8.6914595118
5.1939297579 2.9580646191 9.7967619944
4.7733476833 2.9672000085 10.9631776452
5.0834383442 3.4365590081 18.6431912218
4.5438284410 3.8565833476 18.8253662875
4.9893008396 3.9669932745 19.3188489657
4.5868141594 4.7719289154 6.5374679529
4.9708067485 4.9554811109 5.7917235801
5.0233351853 4.5403577755 6.3031395196
4.9957323523 4.5984573917 20.0081314927
4.4477135480 5.0689355521 20.2291215645
4.8461069564 5.2832289020 20.6556075236
4.5854717876 6.4246765262 4.3088664156
4.8466677303 5.6953643876 4.9564718073
4.5792306989 5.9812523820 21.1052360958
4.4581707985 6.7699199438 21.5712010639
4.9966915152 6.3436848297 21.5283752951
4.4351706635 6.8480375173 21.7319243085
4.9075057928 7.2418797642 3.1890649731
4.7952632788 6.7163851669 3.7921919147
4.3184966508 7.1186327476 21.7416772978
4.4054909449 7.6229531833 21.6488256452
4.7660242299 7.3858772257 21.5737913488
4.6431394327 7.1165478702 21.7324375309
4.7189414689 9.0453798558 1.8728689973
5.2046728786 9.2599021549 1.5197497636
5.3590270649 8.5392235629 1.8063461743
5.5024792852 7.6990469023 2.3441352991
4.4080120045 8.6034965247 21.1988761441
5.2811981843 7.9044463911 21.2138741506
5.3675541673 8.7301176687 20.6619727516
4.2605778427 8.3144322657 21.5547163589
4.6183216180 9.7958677296 1.7124991687
5.3968602251 9.9746958644 1.3712759644
4.4974243872 10.0054607215 20.0584249317
5.6075884713 9.4710743729 19.9742952647
5.2618444513 10.3179784075 19.3549467184
4.6539126734 10.7566770654 1.6777642476
5.5705550750 10.9624569063 1.4215226284
4.4827869475 11.3048867634 18.8272146163
5.6415976743 10.8920467646 18.4042540756
4.9841266278 11.6941409324 17.9832142039
4.7374283371 11.8302089204 1.8872722340
5.7834863565 11.8622718844 1.6597578728
4.2729108256 12.3777092049 17.6133763192
4.9711367680 12.0759916428 17.5111796312
5.0535670052 12.4204784533 16.9302194044
5.4066181797 12.6803503892 2.2346868891
4.7225407243 13.2650352164 2.7527166995
5.4168300899 13.3566876641 2.8101668561
4.6801073183 13.5376556652 15.3843760796
5.4391593146 13.3654171482 14.9307321496
5.0087545240 13.7738390101 14.5950842885
4.3947517696 13.0911052559 16.4141119015
5.3613184765 12.8615514385 15.9073839367
4.9265953070 13.7697854133 3.3815777290
5.1308134187 14.1876569248 4.1700318850
5.5033329533 14.3684382630 4.6091751294
4.6589379616 14.5454535049 13.1100136353
5.3516159099 14.3616157285 12.6490594618
5.2216042859 14.5444897212 12.4469187210
5.2095051479 14.0048576706 13.7429327870
5.9892956888 2.5981223074 9.2370278270
6.2908203827 2.7397874059 8.2835552953
6.8752025444 2.2892797391 8.5835726359
6.7537416470 1.9741958144 9.8227668420
5.7113786616 2.4544037184 10.4352371348
6.3058889149 1.9165329964 11.3358214606
5.4342273061 2.4211610175 11.4621086348
6.4406183971 1.6865130129 12.4864871016
6.2578793414 1.7226933813 13.5149216176
6.1780477900 1.7492025213 14.7345522330
6.2020880743 1.8242185656 15.9686218189
6.4324247907 2.0512495059 17.3454416752
6.4579157340 2.5307498733 18.3535115393
5.5724907653 4.3063228059 6.0756482803
6.2726611852 4.2501385641 5.4163333072
6.5496484450 3.6739231703 6.1055119761
6.4922978967 3.0750014583 7.3092638979
6.1427942689 3.0483069615 18.8764475170
5.8625095264 3.6678451264 19.4746567963
5.5621060712 4.0929984372 19.8191095278
6.3244720229 4.3458044052 20.2264216154
6.2155000721 5.2270543572 4.2056900764
6.4173274369 5.6073374838 3.6546575203
6.8242787892 5.0682440892 3.9323812479
6.6942727254 4.5539744325 4.6372488326
5.7102501889 4.9787093309 4.9971676286
5.7110407507 5.0445533267 20.7558074975
5.3639766129 5.6898948976 21.1814491663
6.0287394205 5.5435050211 21.1402571891
5.5019269411 6.1002369776 3.8827356338
6.3747713399 6.2230285566 3.1092194864
5.7738603856 6.2508432508 21.3913138263
5.1929478443 6.8154619390 21.6216905004
5.8073765340 6.8748717682 2.8743959599
6.3102585790 7.1844756834 2.2852008892
6.3601967975 6.7117640257 2.6547033919
5.6176965777 7.1000810256 21.3891068754
6.3076038563 6.6460295450 21.1582498576
6.1857295665 7.6195258407 20.8697091001
6.1360741894 8.9672369771 1.3712316141
6.2331194881 7.9572490656 1.7728655833
6.2286063850 8.6302700921 20.2850673190
6.4382820964 10.0031926007 1.2341112149
6.1992476871 9.2107562297 19.8799229870
6.1582082125 9.8034870771 19.2930844959
6.6989960541 11.0450876582 1.4255659692
5.5691968727 11.7292072400 17.4001440391
6.4523959216 11.0638851308 17.3570353991
6.1208664630 11.7265100978 16.8305710801
6.6333622996 10.2366337746 18.3576730975
6.5881927952 11.9341310788 1.8107634398
6.0045597500 12.3112788920 1.8771620608
6.4200124757 12.5030305615 2.2344005275
5.7430408266 12.1851742520 16.5877406425
6.1676906667 11.9776718983 16.4230878788
6.1307389586 12.3003950569 15.9368094544
5.8009870576 13.6020025255 3.2341807119
6.3840006746 13.0626489119 2.9089311295
6.4384881640 13.5493334123 3.5920863531
5.5396855528 13.6373558619 14.2472235461
5.9894423404 13.2596679696 14.3895923906
6.0781856741 13.5182146046 13.6648978146
6.0814471961 12.8180696734 15.0882947437
5.9067978444 13.9088323320 3.8783928923
6.1751779466 14.3938749685 5.0680122665
6.4118261341 14.1623918141 4.9198181195
6.6781995192 14.3651284593 5.7429803447
6.6632075694 14.5214000441 9.4944927150
7.0269205949 14.3697976609 8.8667050005
6.8449803599 14.5356375001 8.7329750708
6.3507918670 14.4609035292 10.5718317987
6.7105628061 14.3714759858 9.9814719076
5.8003005779 14.4635340474 11.6969503924
6.4724310070 14.1432723991 11.2828833480
6.1370284023 13.8760747462 12.6837131887
7.2839670153 1.4661754651 10.7668708251
7.5933210436 1.5057132988 9.7730650199
8.1358573413 1.1458518877 10.3246589413
7.8982378087 1.0836149747 11.5707556903
7.1132408998 1.3915549466 11.9922734148
7.7891748363 1.0506131674 12.7956327820
7.0469601079 1.3441418348 13.1745567190
7.7364761442 1.0508804640 14.0190139251
6.9791139634 1.3572568650 14.3622119760
7.6918650175 1.0979657216 15.2220526668
6.9506522911 1.4081300829 15.5477826370
7.6324629054 1.2101160035 16.3077522090
6.9909487861 1.5135411201 16.6132148387
7.5397029999 1.3788445822 17.0500706979
7.1623370818 1.5893519047 17.2381665464
7.6352251630 1.6972798519 17.7303091442
6.9276221608 2.5717835603 7.7866021086
7.3348777035 2.6683576209 7.1449793164
7.6890746224 2.2502304098 7.6749925317
7.6982283891 1.7752421091 8.8051952646
7.2595508266 2.2851569263 18.4199465532
6.9410408912 2.7671440001 18.9444379726
7.7219933651 2.8259498825 19.1742072930
6.8877232979 3.9854944574 5.2389252301
7.3766100032 4.0900280266 4.7355577413
7.5137397189 3.6232955209 5.3372015252
7.5480710335 3.0526400713 6.2770384700
6.9687842118 3.4250262144 19.5864804890
7.4186915746 4.1452625578 20.1326733411
7.2139627694 5.5590677505 3.2657570832
7.5808736112 4.6135708082 4.0196784719
6.4381404464 5.1275306035 20.8398350263
7.2438557224 5.1213370666 20.5533365494
6.9904908407 6.5204653451 2.5085420134
7.6673548605 6.7475189534 2.0804991353
7.9090703188 6.0362294685 2.5856490749
6.5565276587 5.8300288116 21.0525913324
7.1455927735 6.4908893156 20.6717897481
7.0375986811 7.2905937409 1.8891587651
7.1134234911 8.0907926261 1.4520594352
7.8246922011 7.3711193024 1.6622421368
7.1402563995 7.8087868681 20.2188425411
7.2870689012 8.9956532828 1.2350470647
6.8148383411 8.8724432622 19.7426956778
7.3790164893 8.3323582766 19.7886081185
7.4871716266 8.7558123595 19.3158272546
7.6159919969 9.9734047520 1.3263930151
6.9958216428 9.4813248401 19.0013141718
7.5489920758 9.2529175610 18.7059157953
7.2640142750 9.7771580880 18.3431407427
7.6186467459 10.8190494518 1.5214592036
6.6008618270 11.6688886983 16.2935904475
7.2532712116 10.8897676603 16.5037118379
7.1789475354 11.5048693804 15.6536066725
7.2662326542 10.2416415795 17.5501606213
7.4164993444 11.4447163307 1.8202824588
6.9059065950 12.6085024020 2.6347847385
7.3564227384 12.1099745128 2.4416766351
7.4386074185 12.6171771476 3.1776433182
6.7564239126 12.7464929102 14.1212195889
7.5060006632 12.1624268882 13.7877072147
7.2936635569 12.7049162821 13.2140688596
6.7182852731 12.1616335649 15.2962430552
7.3749100699 11.8067717190 14.7167071037
6.7858292757 13.7322578806 4.3190240019
7.2863468625 13.1755114054 3.9123003103
7.0508168958 13.8390257898 4.9141635124
7.5250000700 13.4803545051 4.8868065922
7.3924986055 13.8124488151 5.5877635464
6.9601634300 13.5505030763 11.9895101394
7.4836476144 13.1918364076 11.7317263638
7.3915934370 13.4934509999 11.0982576440
6.7949483718 13.2747292598 12.9752494027
7.4309620000 12.9586544991 12.3752124699
7.0422301688 14.3784763827 6.8531850734
7.1276048452 14.1769961926 6.2208269860
7.0354429300 14.4524219695 7.9723205873
7.3731810521 14.1832018231 7.5885747643
7.5523684618 14.0012422410 8.6661221225
7.3029871248 13.9428302858 9.8776599395
8.1178338792 1.3631080498 9.3707509326
8.3693771972 1.4674665154 8.7636925135
8.6187673006 1.1487930526 9.4553272339
8.6791460218 0.9302217195 10.3496844664
8.5182067803 0.8806127558 11.2480036208
8.4011903465 0.8509458339 12.4134938312
8.3430237277 0.8497070029 13.6428629616
8.3047714208 0.8928057860 14.8821563041
8.2475989141 1.0218845189 16.0850150372
8.0973760921 1.2720432874 17.0833838833
8.4346328012 1.6189138026 17.9168198580
7.9278465552 2.5664070309 6.7962733869
8.3043195497 2.7470755126 6.1916358078
8.4573425025 2.2893304119 6.9123365814
8.3563564586 1.8199534349 7.9648783668
8.1492818543 2.2121780370 18.6071256573
8.5646083570 3.0668400456 19.3148896111
8.0500930993 3.9266628569 4.5669159859
8.3970335345 3.3023184209 5.2584530341
8.0065697040 3.6022609495 19.7568361154
8.1470508947 4.5591809758 20.1048203886
8.2482231749 5.0966864779 3.2777288286
8.3382889565 4.3348948105 3.9537042705
8.1074700750 5.7138606922 20.2095611221
8.3707679461 6.7174323995 2.0212674507
8.6029952644 5.8300713298 2.5829281149
7.9915320547 6.8839818636 20.0636614822
7.9882923199 8.1406380599 1.3683171130
8.4094835510 7.5277209400 1.5914738255
7.9159707468 7.9009282846 19.6063829517
8.4629400354 7.2090708947 19.5487732014
8.4619421973 7.7938442582 19.1044783262
8.2130946320 8.9202304123 1.3221013890
8.4025202378 8.8580677582 17.7749324009
8.7940470765 8.3303553310 17.7717219996
8.7762995066 8.6870631121 17.0160034151
8.0814942618 8.6029753398 18.7341612340
8.6757484991 8.0792175764 18.3951463621
8.5776666810 9.5631512204 1.5852298920
8.2501313005 10.4315287747 1.6731993925
8.7751548508 10.2799029320 1.9894828033
8.3988228938 10.1813226881 15.1518723681
8.8374128681 9.5369155309 14.7054774260
8.6480392997 10.2074124485 14.1575380981
8.0837247698 9.8345636367 16.6617749233
8.7804858908 9.1838370334 15.7614029611
7.7995805659 9.4650504024 17.9786592429
8.0359807715 11.0357385498 1.8446879415
8.5663440079 10.8666253676 2.1697303483
8.3935581820 11.5263521107 12.6033257703
8.8139229872 10.8904626960 12.1360692110
8.6374881191 11.5746820203 11.6725860227
8.1098943020 11.2187867730 14.0092586010
8.7156775986 10.5417065009 13.1397888535
7.7664113554 10.9264060839 15.4563335350
8.1445576647 11.4686226560 2.3694194255
8.0415469963 12.6475280552 3.9350804587
8.4367753038 11.9644028247 3.3901816852
8.5499197956 12.4857515825 4.4298192781
8.0703072745 12.5523980412 11.5675781282
8.6847954499 11.9017668458 10.9339909099
8.4984890816 12.5064155236 10.4565707106
7.8311295398 12.2155261369 12.9225103197
8.1394337173 12.9529461017 4.7456780727
7.8156800777 13.7426577989 6.7420451070
8.2236708586 13.2252529591 5.8864585603
8.0154793998 13.6498251378 7.9611408975
8.5096968048 13.1372851591 7.2403625081
8.0327859915 13.4949921473 9.1224216297
8.5846103373 12.9988687988 8.4304074943
8.0036779151 13.1936534829 10.2752738784
8.5566355135 12.7778431539 9.5218043467
8.6940417410 1.4479980747 8.5190306043
8.8469386590 1.1236823042 9.2576540771
8.8557371270 0.9462354046 9.9546447082
8.8041005495 0.8252885278 10.8779971733
8.7068685891 0.7780085810 11.9523417960
8.6400814006 0.7674459499 13.1498005955
8.6021800402 0.7966809426 14.3943632737
8.5699050939 0.9075610266 15.6620861015
8.5555641578 1.2014030078 17.0139338674
8.7192042653 1.5989050042 17.9452570211
8.6817310131 2.7165346016 5.9917770539
8.7610975702 2.2678972707 6.7221066973
8.7003505191 1.9162643256 7.4642729241
8.6969284970 2.2280579728 18.6735189294
8.8934387130 3.0428847006 19.2347329204
8.5834450566 3.8753110261 4.3689914057
8.6787977970 4.3911809387 3.7864298130
8.7664772298 3.6427272108 4.5873223454
8.7735289978 3.1776601095 5.2086086590
8.6303115200 4.0169371170 19.7566968980
8.9691975754 4.0612192434 19.5306382133
8.7367866828 5.2295635653 3.0195776400
9.6670493420 6.0576262273 7.5300997073
9.6959181825 5.8288714629 7.3304744479
9.6838686728 6.3317344969 7.0889091778
9.6360226774 5.9394914001 8.3998285346
9.6805256103 5.6666296320 7.8872864381
9.6138761449 5.8981323177 9.5157144264
9.6578155921 5.5908175309 8.8533692156
9.6052302590 5.8853080791 10.7294220314
9.6442409619 5.5658633212 10.0131332796
9.6088638995 5.8819564400 11.9541144717
9.6423046033 5.5620494953 11.2341908396
9.6293974712 5.8834687139 13.1129773691
9.6531043963 5.5709460336 12.4306916322
9.6693477561 5.8808580354 14.0631085716
9.6793032567 5.5971067252 13.4985583610
9.7064631144 5.8831764312 14.6049729250
9.7122590785 5.6572446030 14.2883739724
9.7252714164 5.7988611317 14.6907117525
8.8294077442 5.1500817524 19.7202612425
9.2201930846 5.3741902303 19.3377061291
8.7755697304 6.4006988757 2.2012794454
8.8525000050 5.7763660346 2.5746204481
9.6423903568 6.8711628697 7.3028199794
9.6714109239 7.2172095467 6.9169314731
9.5961039670 6.7088595114 8.1105522487
9.5596301819 6.6464271279 9.1846042070
9.5397213165 6.6215336171 10.3806554336
9.5330620019 6.6010499379 11.6072040962
9.5408883911 6.5805570549 12.8112656877
9.5749318574 6.5400920558 13.9172981003
9.6392987221 6.4013949517 14.6626275351
9.6921820958 6.1752269111 14.8755936690
9.1776779767 6.3571085224 19.0123941081
9.3773753773 6.1500864362 18.9339311953
9.3727175643 6.8547486342 18.3929538012
8.6749657930 6.3809843973 19.6533980185
8.6014357123 8.2234285253 1.4585968697
8.7323846733 7.4720839195 1.7409326764
9.6366109867 7.8960138889 7.1685026560
9.6796499228 8.2089799425 6.8178164499
9.5703137122 7.7348664261 7.9423699137
9.5132369493 7.6558653162 8.9846089712
9.4741543168 7.6167535944 10.1550757363
9.4472725675 7.5795881424 11.3737296976
9.4360001086 7.5106992991 12.5694286389
9.4329148226 7.4717133725 13.7477692639
9.4740092943 7.3616529010 14.9338363384
9.6006878461 6.8651143303 15.1565966893
9.1415806411 7.6365862817 17.8426111056
9.3833919903 7.3870799787 17.7338163399
9.3725492207 7.6890764275 16.9291348982
8.8500881960 7.2227989398 18.9720188792
8.6807947839 8.8257456464 1.4445598860
8.8491765929 8.7576862881 1.6261801723
9.6567252997 8.8838700794 7.0733088030
9.7032807979 9.0328128219 6.7766932137
9.5700182102 8.8397522989 7.8218034747
9.4833155608 8.7753875001 8.8528207523
9.4192648217 8.6989642578 9.9803027181
9.3558705195 8.6686244413 11.1631633519
9.3020021103 8.5755057846 12.3975995427
9.2998539495 8.3235440505 13.4272220804
9.1829812529 8.5212169054 14.6628934855
9.4659963745 7.5378492985 15.8510826106
9.2179016861 8.1198130182 16.1785915005
9.0333154331 10.6988155906 2.5530718999
9.0039685095 9.9224325318 2.0704672955
9.2015439595 10.4926354444 2.5916549173
9.6869436783 9.4850551519 6.9862362680
9.7109107945 9.5251963260 6.8518598055
9.5836995355 9.8860285639 7.6582893311
9.4529807926 9.9108349180 8.7078140163
9.3482726371 9.7989705820 9.8461911212
9.2819471167 9.6005864947 10.8419007921
9.1096602491 9.8232436012 12.0779667151
9.0411663733 9.3997889988 13.5630599789
8.7279464911 11.2527445488 2.7324884209
9.1863988261 10.9797207848 3.0188911515
8.9940759380 11.2767846067 3.1048562755
8.9995465783 11.5883504376 3.5806734434
9.6624531600 9.9459884898 7.2151235890
9.5373095388 10.7147300531 7.7600731232
9.3686672300 11.6630875977 7.7887405960
9.3294846332 11.2130871033 8.5141043588
9.2663211768 10.7599968849 9.6060321117
9.0494728469 10.8168472172 10.9236995055
8.7401583460 12.6626793005 5.3796914328
8.8805433949 12.2170790767 4.5795127923
8.9100254456 12.6858112889 6.5661053634
9.0625001335 12.4499019085 5.9226511013
9.0677181129 12.3484591742 7.7967274407
9.2130412292 12.2868321375 7.0426667842
8.9631235702 12.2808450550 8.8522433046
8.9575693661 11.8084501681 9.8667799025
3 2 1 0
3 4 3 0
3 0 3 2
3 6 5 4
3 4 5 3
3 8 7 6
3 6 7 5
3 10 9 8
3 8 9 7
3 10 11 9
3 14 13 12
3 16 15 12
3 12 15 14
3 18 17 16
3 16 17 15
3 17 18 1
3 18 0 1
3 18 19 0
3 0 20 4
3 0 19 20
3 4 21 6
3 4 20 21
3 6 22 8
3 6 21 22
3 8 23 10
3 8 22 23
3 11 10 24
3 10 25 24
3 10 23 25
3 27 26 25
3 25 26 24
3 27 28 26
3 31 30 29
3 31 29 13
3 29 12 13
3 29 32 12
3 12 33 16
3 12 32 33
3 16 34 18
3 16 33 34
3 18 35 19
3 18 34 35
3 19 36 20
3 19 35 36
3 20 37 21
3 20 36 37
3 21 38 22
3 21 37 38
3 22 39 23
3 22 38 39
3 23 40 25
3 23 39 40
3 25 41 27
3 25 40 41
3 28 27 42
3 42 27 41
3 29 30 43
3 43 30 44
3 29 45 32
3 29 43 45
3 32 46 33
3 32 45 46
3 33 47 34
3 33 46 47
3 34 48 35
3 34 47 48
3 35 49 36
3 35 48 49
3 36 50 37
3 36 49 50
3 37 51 38
3 37 50 51
3 38 52 39
3 38 51 52
3 39 53 40
3 39 52 53
3 40 54 41
3 40 53 54
3 42 41 55
3 55 41 54
3 43 44 56
3 56 44 57
3 43 58 45
3 43 56 58
3 45 59 46
3 45 58 59
3 46 60 47
3 46 59 60
3 47 61 48
3 47 60 61
3 48 62 49
3 48 61 62
3 49 63 50
3 49 62 63
3 50 64 51
3 50 63 64
3 51 65 52
3 51 64 65
3 52 66 53
3 52 65 66
3 68 54 67
3 54 66 67
3 54 53 66
3 54 68 55
3 56 57 69
3 69 57 70
3 56 71 58
3 56 69 71
3 58 72 59
3 58 71 72
3 59 73 60
3 59 72 73
3 60 74 61
3 60 73 74
3 61 75 62
3 61 74 75
3 62 76 63
3 62 75 76
3 63 77 64
3 63 76 77
3 64 78 65
3 64 77 78
3 65 79 66
3 65 78 79
3 67 66 80
3 80 66 79
3 70 81 69
3 69 81 71
3 71 81 82
3 71 82 72
3 72 82 83
3 72 83 73
3 73 83 84
3 73 84 74
3 74 84 85
3 74 85 75
3 75 85 86
3 88 87 86
3 87 75 86
3 87 76 75
3 76 89 77
3 76 87 89
3 91 78 90
3 78 89 90
3 78 77 89
3 78 91 79
3 79 91 92
3 79 92 80
3 88 93 87
3 87 93 89
3 89 93 94
3 89 94 90
3 97 96 95
3 99 98 95
3 95 98 97
3 101 100 99
3 99 100 98
3 103 102 101
3 101 102 100
3 105 104 103
3 103 104 102
3 107 106 105
3 105 106 104
3 109 108 107
3 107 108 106
3 111 110 109
3 109 110 108
3 111 112 110
3 115 114 113
3 117 116 113
3 113 116 115
3 116 117 96
3 117 95 96
3 117 118 95
3 118 1 2
3 99 118 2
3 95 118 99
3 99 2 3
3 99 3 101
3 101 3 5
3 101 5 103
3 103 5 7
3 103 7 105
3 105 7 9
3 105 9 107
3 107 9 11
3 119 107 11
3 109 107 119
3 109 120 111
3 109 119 120
3 112 111 121
3 111 122 121
3 111 120 122
3 122 123 121
3 126 125 124
3 126 124 114
3 114 124 113
3 124 13 113
3 13 14 113
3 113 14 15
3 113 15 117
3 117 15 17
3 117 17 118
3 118 17 1
3 24 119 11
3 119 24 26
3 119 26 120
3 120 26 28
3 127 120 28
3 122 120 127
3 123 122 128
3 128 122 127
3 131 130 129
3 133 132 129
3 129 132 131
3 132 133 125
3 125 133 124
3 133 30 124
3 30 31 124
3 124 31 13
3 42 134 127
3 42 127 28
3 128 127 135
3 135 127 134
3 129 130 136
3 136 130 137
3 129 138 133
3 129 136 138
3 138 44 30
3 138 30 133
3 55 139 134
3 55 134 42
3 135 134 140
3 140 134 139
3 136 137 141
3 141 137 142
3 136 143 138
3 136 141 143
3 143 57 44
3 143 44 138
3 67 144 68
3 139 55 68
3 144 139 68
3 145 139 144
3 140 139 146
3 146 139 145
3 141 142 147
3 147 142 148
3 141 149 143
3 141 147 149
3 149 70 57
3 149 57 143
3 80 150 144
3 80 144 67
3 152 145 151
3 145 150 151
3 145 144 150
3 145 152 146
3 147 148 153
3 153 148 154
3 147 155 149
3 147 153 155
3 156 81 70
3 149 156 70
3 155 156 149
3 157 82 81
3 157 81 156
3 158 83 82
3 158 82 157
3 159 84 83
3 159 83 158
3 160 85 84
3 160 84 159
3 161 86 85
3 161 85 160
3 161 88 86
3 90 162 91
3 91 162 163
3 164 91 163
3 92 91 164
3 80 92 150
3 92 165 150
3 92 164 165
3 150 165 151
3 154 166 153
3 153 166 155
3 155 166 167
3 155 167 156
3 156 167 168
3 170 169 168
3 169 156 168
3 169 157 156
3 157 171 158
3 157 169 171
3 158 172 159
3 158 171 172
3 159 173 160
3 159 172 173
3 160 174 161
3 160 173 174
3 175 93 88
3 161 175 88
3 174 175 161
3 93 175 176
3 177 93 176
3 94 93 177
3 90 94 162
3 94 178 162
3 94 177 178
3 162 178 163
3 181 180 179
3 183 182 179
3 179 182 181
3 185 184 183
3 183 184 182
3 187 186 185
3 185 186 184
3 189 188 187
3 187 188 186
3 191 190 189
3 189 190 188
3 193 192 191
3 191 192 190
3 193 194 192
3 197 196 195
3 199 198 195
3 195 198 197
3 198 199 180
3 180 199 179
3 199 96 179
3 96 97 179
3 179 97 98
3 179 98 183
3 183 98 100
3 183 100 185
3 185 100 102
3 185 102 187
3 187 102 104
3 187 104 189
3 189 104 106
3 189 106 191
3 191 106 108
3 191 108 193
3 200 194 193
3 108 200 193
3 110 200 108
3 110 112 200
3 200 112 201
3 204 203 202
3 206 205 202
3 202 205 204
3 205 206 196
3 196 206 195
3 206 114 195
3 114 115 195
3 195 115 116
3 195 116 199
3 199 116 96
3 207 201 112
3 207 112 121
3 121 123 207
3 207 123 208
3 211 210 209
3 211 209 203
3 209 202 203
3 209 212 202
3 212 125 126
3 206 212 126
3 202 212 206
3 206 126 114
3 128 214 213
3 208 128 213
3 123 128 208
3 216 215 214
3 214 215 213
3 219 218 217
3 219 217 210
3 210 217 209
3 217 130 209
3 130 131 209
3 209 131 132
3 209 132 212
3 212 132 125
3 135 220 214
3 135 214 128
3 214 221 216
3 214 220 221
3 217 218 222
3 222 218 223
3 222 137 130
3 222 130 217
3 225 224 220
3 135 225 220
3 140 225 135
3 220 224 221
3 221 224 226
3 222 223 227
3 227 223 228
3 227 142 137
3 227 137 222
3 231 230 229
3 230 225 229
3 225 146 229
3 225 140 146
3 227 228 232
3 232 228 233
3 232 148 142
3 232 142 227
3 236 235 234
3 234 235 231
3 234 231 229
3 151 234 229
3 152 151 229
3 152 229 146
3 233 237 232
3 148 232 237
3 238 148 237
3 154 148 238
3 240 239 164
3 240 164 163
3 234 165 236
3 165 239 236
3 165 164 239
3 165 234 151
3 238 241 154
3 154 241 166
3 241 243 242
3 167 241 242
3 166 241 167
3 244 168 167
3 244 167 242
3 244 170 168
3 247 246 245
3 177 176 245
3 246 177 245
3 248 177 246
3 177 249 178
3 248 249 177
3 163 178 240
3 240 178 249
3 252 251 250
3 254 253 250
3 250 253 252
3 256 255 254
3 254 255 253
3 258 257 256
3 256 257 255
3 260 259 258
3 258 259 257
3 260 261 259
3 264 263 262
3 266 265 262
3 262 265 264
3 180 181 266
3 181 265 266
3 181 267 265
3 268 181 182
3 268 267 181
3 184 250 251
3 268 184 251
3 182 184 268
3 250 184 186
3 250 186 254
3 254 186 188
3 254 188 256
3 256 188 190
3 256 190 258
3 258 190 192
3 258 192 260
3 270 269 194
3 194 269 192
3 269 261 192
3 261 260 192
3 270 271 269
3 274 273 272
3 274 272 263
3 263 272 262
3 272 196 262
3 196 197 262
3 262 197 198
3 262 198 266
3 266 198 180
3 200 270 194
3 276 275 201
3 201 275 200
3 275 271 200
3 271 270 200
3 276 277 275
3 279 278 204
3 204 278 203
3 205 272 273
3 279 205 273
3 204 205 279
3 272 205 196
3 207 276 201
3 281 280 208
3 208 280 207
3 280 277 207
3 277 276 207
3 283 282 281
3 281 282 280
3 285 284 211
3 211 284 210
3 211 203 278
3 211 278 285
3 213 281 208
3 215 286 213
3 286 287 213
3 288 213 287
3 213 288 281
3 289 281 288
3 281 289 286
3 286 283 281
3 215 283 286
3 286 289 287
3 292 291 290
3 218 219 290
3 219 292 290
3 219 293 292
3 219 210 284
3 219 284 293
3 296 295 294
3 294 295 288
3 287 294 288
3 297 294 287
3 290 291 298
3 298 291 299
3 298 223 218
3 298 218 290
3 302 301 300
3 300 301 296
3 300 296 294
3 225 300 294
3 224 225 294
3 224 294 226
3 226 294 297
3 298 299 303
3 303 299 304
3 303 228 223
3 303 223 298
3 307 306 305
3 305 306 302
3 305 302 300
3 231 305 300
3 230 231 300
3 230 300 225
3 303 304 308
3 308 304 309
3 308 233 228
3 308 228 303
3 312 311 310
3 310 311 307
3 310 307 305
3 236 310 305
3 235 236 305
3 235 305 231
3 309 313 308
3 313 315 314
3 313 314 237
3 308 313 237
3 233 308 237
3 314 238 237
3 318 317 316
3 320 319 316
3 320 316 317
3 319 320 312
3 319 312 310
3 240 319 310
3 239 240 310
3 239 310 236
3 315 321 314
3 314 321 238
3 321 241 238
3 321 322 241
3 243 241 322
3 243 322 323
3 326 325 324
3 246 247 324
3 325 246 324
3 327 246 325
3 316 248 318
3 248 327 318
3 248 246 327
3 248 316 249
3 249 316 319
3 249 319 240
3 330 329 328
3 332 331 328
3 328 331 330
3 334 333 332
3 332 333 331
3 251 252 334
3 252 333 334
3 252 335 333
3 336 252 253
3 336 335 252
3 337 253 255
3 337 336 253
3 338 255 257
3 338 337 255
3 339 257 259
3 339 338 257
3 259 261 339
3 339 261 340
3 343 342 341
3 263 264 341
3 264 343 341
3 264 344 343
3 265 328 329
3 344 265 329
3 264 265 344
3 328 265 267
3 328 267 332
3 332 267 268
3 332 268 334
3 334 268 251
3 345 340 261
3 345 261 269
3 347 346 271
3 346 269 271
3 346 345 269
3 347 348 346
3 351 350 349
3 353 352 349
3 349 352 351
3 352 353 342
3 342 353 341
3 353 273 341
3 273 274 341
3 341 274 263
3 275 347 271
3 355 354 277
3 277 354 275
3 354 348 275
3 348 347 275
3 355 356 354
3 349 350 357
3 357 350 358
3 357 278 279
3 353 357 279
3 349 357 353
3 353 279 273
3 280 355 277
3 280 282 355
3 282 359 355
3 359 356 355
3 282 360 359
3 363 362 361
3 363 361 358
3 358 361 357
3 361 284 357
3 284 285 357
3 357 285 278
3 366 365 364
3 364 365 359
3 364 359 360
3 288 364 360
3 289 288 360
3 368 367 292
3 292 367 291
3 293 361 362
3 368 293 362
3 292 293 368
3 361 293 284
3 366 364 295
3 296 366 295
3 369 366 296
3 295 364 288
3 367 299 291
3 370 299 367
3 372 371 301
3 372 301 302
3 296 301 369
3 369 301 371
3 370 304 299
3 373 304 370
3 376 375 374
3 306 307 374
3 375 306 374
3 377 306 375
3 302 306 372
3 372 306 377
3 379 309 378
3 309 373 378
3 309 304 373
3 380 379 378
3 383 382 381
3 381 382 376
3 381 376 374
3 312 381 374
3 311 312 374
3 311 374 307
3 379 313 309
3 385 384 315
3 385 315 313
3 380 385 313
3 379 380 313
3 386 384 385
3 389 388 387
3 317 318 387
3 388 317 387
3 390 317 388
3 381 320 383
3 320 390 383
3 320 317 390
3 320 381 312
3 384 321 315
3 386 391 384
3 391 321 384
3 391 322 321
3 393 392 323
3 322 393 323
3 391 393 322
3 394 392 393
3 397 396 395
3 399 398 395
3 399 395 396
3 401 400 398
3 401 398 399
3 325 326 400
3 401 325 400
3 402 325 401
3 387 327 389
3 327 402 389
3 327 325 402
3 327 387 318
3 405 404 403
3 407 406 403
3 403 406 405
3 409 408 407
3 407 408 406
3 411 410 409
3 409 410 408
3 413 412 411
3 411 412 410
3 415 414 413
3 413 414 412
3 417 416 415
3 415 416 414
3 417 418 416
3 421 420 419
3 329 330 419
3 330 421 419
3 330 422 421
3 331 403 404
3 422 331 404
3 330 331 422
3 403 331 333
3 403 333 407
3 407 333 335
3 407 335 409
3 409 335 336
3 409 336 411
3 411 336 337
3 411 337 413
3 413 337 338
3 413 338 415
3 415 338 339
3 415 339 417
3 424 423 340
3 340 423 339
3 423 418 339
3 418 417 339
3 424 425 423
3 428 427 426
3 342 343 426
3 343 428 426
3 343 429 428
3 344 419 420
3 429 344 420
3 343 344 429
3 419 344 329
3 345 424 340
3 430 425 424
3 345 430 424
3 346 430 345
3 346 348 430
3 430 348 431
3 433 432 351
3 351 432 350
3 352 426 427
3 433 352 427
3 351 352 433
3 426 352 342
3 348 354 434
3 435 348 434
3 431 348 435
3 356 434 354
3 438 437 436
3 432 438 436
3 358 432 436
3 350 432 358
3 435 434 439
3 435 439 440
3 359 439 356
3 356 439 434
3 443 442 441
3 443 441 437
3 437 441 436
3 441 362 436
3 362 363 436
3 436 363 358
3 440 439 365
3 366 440 365
3 444 440 366
3 365 439 359
3 441 442 368
3 442 367 368
3 442 445 367
3 441 368 362
3 448 447 446
3 447 444 446
3 444 369 446
3 444 366 369
3 445 370 367
3 449 370 445
3 452 451 450
3 450 451 448
3 450 448 446
3 372 450 446
3 371 372 446
3 371 446 369
3 449 373 370
3 453 373 449
3 456 455 454
3 375 376 454
3 455 375 454
3 457 375 455
3 450 377 452
3 377 457 452
3 377 375 457
3 377 450 372
3 453 458 373
3 373 458 378
3 460 459 380
3 378 460 380
3 458 460 378
3 461 459 460
3 464 463 462
3 466 465 462
3 466 462 463
3 465 466 456
3 465 456 454
3 383 465 454
3 382 383 454
3 382 454 376
3 459 385 380
3 468 467 386
3 468 386 385
3 461 468 385
3 459 461 385
3 470 469 467
3 470 467 468
3 471 469 470
3 474 473 472
3 476 475 472
3 476 472 473
3 475 476 464
3 475 464 462
3 389 475 462
3 388 389 462
3 388 462 390
3 390 462 465
3 390 465 383
3 467 391 386
3 391 467 393
3 393 467 469
3 478 477 394
3 478 394 393
3 471 478 393
3 469 471 393
3 480 479 477
3 480 477 478
3 396 397 479
3 480 396 479
3 481 396 480
3 396 482 399
3 481 482 396
3 472 401 474
3 401 482 474
3 401 399 482
3 401 472 402
3 402 472 475
3 402 475 389
3 485 484 483
3 404 405 483
3 405 485 483
3 405 486 485
3 487 405 406
3 487 486 405
3 488 406 408
3 488 487 406
3 489 408 410
3 489 488 408
3 490 410 412
3 490 489 410
3 491 412 414
3 491 490 412
3 492 414 416
3 492 491 414
3 416 418 492
3 492 418 493
3 496 495 494
3 420 421 494
3 421 496 494
3 421 497 496
3 422 483 484
3 497 422 484
3 421 422 497
3 483 422 404
3 498 493 418
3 498 418 423
3 423 425 498
3 498 425 499
3 501 500 428
3 428 500 427
3 429 494 495
3 501 429 495
3 428 429 501
3 494 429 420
3 502 499 425
3 502 425 430
3 430 431 502
3 502 431 503
3 505 504 433
3 433 504 432
3 433 427 500
3 433 500 505
3 435 503 431
3 435 506 503
3 508 507 438
3 438 507 437
3 438 432 504
3 438 504 508
3 440 506 435
3 440 509 506
3 511 510 443
3 443 510 442
3 443 437 507
3 443 507 511
3 514 513 512
3 513 509 512
3 509 444 512
3 509 440 444
3 510 445 442
3 515 445 510
3 518 517 516
3 520 519 516
3 520 516 517
3 519 520 514
3 519 514 512
3 448 519 512
3 447 448 512
3 447 512 444
3 522 449 521
3 449 515 521
3 449 445 515
3 523 522 521
3 526 525 524
3 528 527 524
3 528 524 525
3 527 528 518
3 516 527 518
3 529 527 516
3 452 529 451
3 529 519 451
3 529 516 519
3 451 519 448
3 530 453 522
3 522 453 449
3 522 523 531
3 522 531 530
3 534 533 532
3 536 535 532
3 536 532 533
3 535 536 526
3 524 535 526
3 537 535 524
3 456 537 455
3 537 527 455
3 537 524 527
3 455 527 457
3 457 527 529
3 457 529 452
3 530 458 453
3 531 538 530
3 538 458 530
3 538 460 458
3 540 539 461
3 460 540 461
3 538 540 460
3 541 539 540
3 544 543 542
3 542 543 534
3 532 542 534
3 545 542 532
3 464 545 463
3 545 535 463
3 545 532 535
3 463 535 466
3 466 535 537
3 466 537 456
3 539 468 461
3 541 546 539
3 546 468 539
3 546 470 468
3 548 547 471
3 470 548 471
3 546 548 470
3 550 549 547
3 550 547 548
3 552 551 549
3 552 549 550
3 554 553 551
3 554 551 552
3 553 554 544
3 553 544 542
3 474 553 542
3 473 474 542
3 473 542 476
3 476 542 545
3 476 545 464
3 547 478 471
3 478 547 480
3 480 547 549
3 480 549 481
3 481 549 551
3 481 551 482
3 482 551 553
3 482 553 474
3 556 555 485
3 485 555 484
3 557 485 486
3 557 556 485
3 558 486 487
3 558 557 486
3 559 487 488
3 559 558 487
3 560 488 489
3 560 559 488
3 561 489 490
3 561 560 489
3 562 490 491
3 562 561 490
3 563 491 492
3 563 562 491
3 492 493 563
3 563 493 564
3 566 565 496
3 496 565 495
3 567 496 497
3 567 566 496
3 497 484 555
3 497 555 567
3 568 564 493
3 568 493 498
3 498 499 568
3 568 499 569
3 572 571 570
3 500 501 570
3 501 572 570
3 501 573 572
3 501 495 565
3 501 565 573
3 499 502 574
3 575 499 574
3 569 499 575
3 503 574 502
3 570 571 505
3 571 504 505
3 571 576 504
3 570 505 500
3 579 578 577
3 581 580 577
3 581 577 578
3 583 582 580
3 583 580 581
3 585 584 582
3 585 582 583
3 587 586 584
3 587 584 585
3 589 588 586
3 589 586 587
3 591 590 588
3 591 588 589
3 593 592 590
3 593 590 591
3 594 592 593
3 575 574 595
3 575 595 596
3 506 595 503
3 503 595 574
3 598 597 508
3 508 597 507
3 508 504 576
3 508 576 598
3 579 577 599
3 579 599 600
3 601 577 580
3 599 577 601
3 602 580 582
3 601 580 602
3 603 582 584
3 602 582 603
3 604 584 586
3 603 584 604
3 605 586 588
3 604 586 605
3 606 588 590
3 605 588 606
3 607 590 592
3 606 590 607
3 592 594 608
3 592 608 607
3 611 610 609
3 609 610 596
3 595 609 596
3 612 609 595
3 509 612 506
3 506 612 595
3 613 510 511
3 614 613 511
3 507 614 511
3 597 614 507
3 600 599 615
3 600 615 616
3 617 599 601
3 615 599 617
3 618 601 602
3 617 601 618
3 619 602 603
3 618 602 619
3 620 603 604
3 619 603 620
3 621 604 605
3 620 604 621
3 622 605 606
3 621 605 622
3 623 606 607
3 622 606 623
3 607 608 624
3 607 624 623
3 627 626 625
3 625 626 611
3 609 625 611
3 628 625 609
3 514 628 513
3 628 612 513
3 628 609 612
3 513 612 509
3 629 515 613
3 613 515 510
3 613 614 630
3 613 630 629
3 616 615 631
3 616 631 632
3 633 615 617
3 631 615 633
3 634 617 618
3 633 617 634
3 635 618 619
3 634 618 635
3 636 619 620
3 635 619 636
3 637 620 621
3 636 620 637
3 638 621 622
3 637 621 638
3 639 622 623
3 638 622 639
3 623 624 640
3 641 623 640
3 639 623 641
3 641 640 627
3 641 627 625
3 518 641 625
3 517 518 625
3 517 625 520
3 520 625 628
3 520 628 514
3 629 521 515
3 643 642 523
3 643 523 521
3 630 643 521
3 629 630 521
3 644 642 643
3 632 631 645
3 632 645 646
3 647 631 633
3 645 631 647
3 648 633 634
3 647 633 648
3 649 634 635
3 648 634 649
3 650 635 636
3 649 635 650
3 651 636 637
3 650 636 651
3 652 637 638
3 651 637 652
3 526 652 525
3 652 639 525
3 652 638 639
3 525 639 528
3 528 639 641
3 528 641 518
3 653 531 642
3 642 531 523
3 642 644 654
3 655 642 654
3 653 642 655
3 656 655 654
3 657 646 645
3 657 645 647
3 657 647 658
3 660 659 658
3 647 660 658
3 648 660 647
3 661 648 649
3 660 648 661
3 662 649 650
3 661 649 662
3 534 662 533
3 662 651 533
3 662 650 651
3 533 651 536
3 536 651 652
3 536 652 526
3 653 538 531
3 538 653 540
3 540 653 655
3 664 663 541
3 664 541 540
3 656 664 540
3 655 656 540
3 666 665 663
3 666 663 664
3 668 667 665
3 668 665 666
3 667 668 659
3 660 667 659
3 669 667 660
3 670 660 661
3 669 660 670
3 544 670 543
3 670 662 543
3 670 661 662
3 543 662 534
3 663 546 541
3 546 663 548
3 548 663 665
3 548 665 550
3 550 665 667
3 550 667 552
3 552 667 669
3 552 669 554
3 554 669 670
3 554 670 544