OFF
911 1806 0
1.5920046650 8.5015101730 10.0114849775
1.7299460724 8.5436994469 9.6149902699
1.7508749084 8.1861731940 9.8015953551
1.6988570469 8.3170659627 10.3782257574
1.5926413381 8.6369022816 10.3393089911
1.7372646032 8.5970588286 10.7375749050
1.6920842618 8.8239868233 9.9742887551
1.7500260925 8.9540144642 10.5492091329
2.1481330872 7.6383503836 8.9081616380
2.3035189763 7.8636178338 8.3659023951
2.3685453240 7.2746246755 8.4988592895
2.3126383416 7.1833257193 9.1583878551
2.0129715287 7.7215824306 9.5090494005
2.2432744047 7.3415230521 9.8621564947
1.9827180064 8.2145014405 9.1207904998
2.2955330336 8.5771277909 8.5567526084
1.9773048931 7.8420730558 10.2231908399
2.0863449619 8.1809345910 11.0244093440
1.9964741770 8.9278942855 11.2308698404
2.3542158712 8.5757125652 11.8064940311
2.0485562399 8.9743065437 9.3401823932
1.9591604170 9.3079252762 10.1311855941
2.0085986629 9.4237503034 10.8404920852
2.2145352269 9.8218914468 10.4892197480
2.1552264160 9.5059283915 11.4389510452
2.3407455665 9.2800460342 11.9807528096
2.3001213329 9.9771518705 11.1885288315
2.3843820238 9.8780911376 11.8465419708
3.1260020041 5.9134345504 6.8636382163
3.3382148291 5.8170119184 6.0706034275
3.4743520248 5.3224860003 6.4564703418
3.5020709160 5.1490465007 7.3285479772
3.0972063808 5.7815318467 7.9287075201
3.6756569766 5.0865809659 8.5380541623
3.1234841833 5.8717192714 9.0077700761
3.6467886988 5.4005270379 9.4741763421
3.3290452705 5.9869450873 10.0257135338
3.9901257155 5.4776727742 10.2444912842
3.1399457266 6.5926875955 6.1381160152
3.4668522832 6.8908842401 5.3553393427
3.4707995344 6.1259319392 5.5443217375
2.8714339325 6.6758345649 6.9434516424
2.8290343063 6.3929298776 7.5418841022
2.6734747264 6.5896904493 8.4855265713
2.7013524782 6.6867213385 9.7254783796
3.7822329182 6.0276196153 10.8919011576
3.1422137678 6.7039021686 10.9447638758
3.7344253002 6.4289752769 11.5143460039
3.1751828926 7.5042625148 5.9328642381
3.4695627649 7.6767996720 5.3838936267
2.8783561719 7.4272654914 6.7608451673
2.6146055331 7.2004340753 7.7051479799
2.4489460804 7.3878414648 10.6312699741
3.5585504459 6.9055721429 11.9986603639
2.8500209079 7.7243368749 11.8924612045
3.5948488277 7.3808570749 12.7887999557
3.2775891943 8.0398768151 13.0830654069
3.7191873799 7.6555559159 13.4189834223
3.3136107351 8.1417751610 5.8224234948
3.0613182292 8.3441454933 6.5629709754
3.3699681662 8.7054352185 6.1045007330
2.6598927757 8.3029351326 7.6480312690
2.7827081032 8.8375915373 12.6990593660
3.7936517241 8.0800360147 13.8857743313
3.3016158165 8.7587741409 13.6771255630
3.7473080226 8.7007954245 14.3016870404
3.2712224762 9.0820908014 6.6454198462
3.0185520516 9.1655017836 7.3565708226
3.3768095757 9.6457406112 7.0587259151
2.6742147736 9.4862852002 8.5378947579
2.3699643819 9.7982752399 9.7377535566
2.6883649618 9.9582414320 12.6449019279
3.0697701371 9.6393070194 13.5699211965
3.5380767209 9.3985804169 14.3387682047
3.2167219612 9.9834578643 7.8276105391
3.0864041055 10.3585968540 8.5841970513
2.8905133217 10.5658718403 9.4443391517
3.3061039958 10.9669542669 8.8820052773
2.6183536803 10.5268789869 10.6200965417
2.6613900919 10.6003802262 11.8634585894
2.8732319951 10.8255329580 12.7996337709
3.0470437713 10.5834627232 13.5193063060
3.4111744083 10.3230863227 14.3231702192
3.2594412231 11.2748862234 9.4702619974
3.4891025628 11.4078837326 9.0993117717
3.1173622934 11.3307897956 10.2393830507
3.0103429983 11.4001659767 11.3613918865
3.0404288023 11.4601097652 12.4474262257
3.1543030654 11.4031133140 13.3656996557
3.3852058388 11.2555618630 14.1894616289
3.7094988619 11.8815735728 9.5732041274
3.4810754047 12.0831736317 10.8650692937
3.4017437524 12.1818388750 12.0344427971
3.4008844307 12.1627774703 13.1259934470
3.4497105552 11.9717498253 13.9324970328
3.9500583787 15.9407540015 17.0819361289
4.1243414524 16.0698720368 16.8068357132
4.0018885950 15.7503219553 16.9542137927
4.0758747932 15.7562056512 17.3275819928
4.1162766760 16.0551752261 17.1758543688
4.1782816215 4.5808334925 5.6254215774
4.5185829665 4.4425793947 5.0590819845
4.5056708838 4.1521635839 5.5519162462
4.4884129983 4.0363726596 6.1746628076
3.9387753900 4.6437943237 6.5816698584
4.5228057263 3.9483216733 7.2228429812
4.0640634080 4.4827646450 7.7856558375
4.8389693777 3.9057962318 8.3940173384
4.2943341302 4.4694170347 8.7071927151
4.7452691734 4.2722865373 9.1656271840
4.1898762668 5.1120920309 4.9503752565
4.5621658070 5.4586160487 4.2322462956
4.5142315780 4.8433628959 4.6079372460
3.7368596035 5.3521729051 5.6697082558
4.4762000957 4.8030998999 9.6654815196
4.6439198153 5.1966713123 10.5372951186
3.9216797630 6.1279079346 4.8636028424
4.4420302110 6.6258922405 4.0599289014
4.4736483746 5.6154270251 11.0275198163
4.4082806347 6.1007867244 11.7538991926
4.0643608430 6.5187131383 12.0902021301
4.5661308079 6.4135195230 12.4531350408
3.9207914885 7.4041504023 4.7442276755
4.5148061481 7.6260542969 4.0021097667
4.2789237968 6.8358895190 12.8005147649
4.2011279899 7.3195613737 13.4710774867
4.0225793846 7.6428249605 13.7628710738
4.5862478912 7.6581582423 14.1705648296
4.2661992530 8.3588994621 4.6066462397
4.7193895939 8.2934746843 4.0229751282
3.7111666182 8.4451435674 5.4146886950
4.3270655697 8.3414314005 14.5904420787
4.0979960956 9.0565368747 14.8581498508
4.6919924712 8.6841705176 15.1305864764
4.7741952991 8.8990184957 4.4495733229
4.2849530471 9.2750628484 5.3007880215
4.9605558127 9.5302193187 4.8965034328
3.6890106828 9.4125994054 6.2586234668
3.9802829244 9.9889284182 15.0977510781
4.6254878405 9.3434868250 15.4846857733
4.7119052361 9.9209630226 5.4951235417
4.2708629584 10.0730759643 6.1448639939
4.8954565339 10.4426510194 5.9582200071
3.8201912703 10.4111633530 7.2399086571
3.4354254206 10.6444177250 8.1962825969
3.7818385047 11.0392017659 15.0002953108
4.4988414772 10.0271352298 15.7119985673
4.3060849335 10.7504828162 15.7083012953
4.9175663133 10.3307577204 16.1419104798
4.5177235883 10.6841617050 6.6401342573
4.4505704079 11.1767082912 7.3743000449
3.8582851827 11.3208677880 8.3742605561
4.4126941051 11.6154697661 7.9600669851
3.7564564666 12.1025406683 14.7917664781
4.1770987281 11.7523561222 15.6744019592
4.8346273897 11.3125045855 16.3822858045
4.5483262118 12.0970847172 8.5573427718
4.2968842476 12.5038990535 9.4930349971
4.7851824099 12.6743498447 9.1318895508
4.0521752824 12.6449741972 10.3799569308
3.8965405466 12.8203611242 11.5301022647
3.8365053061 12.9901465774 12.8098699864
3.7631369716 12.8269265584 14.0717803722
3.9107777830 12.9272525209 14.9016969157
4.1370926556 12.8393169169 15.6012774125
4.5659722265 12.3875237509 16.3674097356
4.6905466800 12.9804705113 9.8776624634
4.5711242161 13.3667954651 10.9739371191
4.2936143388 13.5169945432 12.1373275246
4.2228344951 13.6925680430 12.9868299708
4.0971151170 13.6548443027 13.7768288649
4.3996574919 14.1470825412 13.4690326914
4.1355825119 13.8857000921 15.0904227504
4.2558353529 13.5542333878 15.9515986836
4.4331078918 13.1440396165 16.3327443101
4.3619292902 14.3600741170 14.2115503205
4.3200515278 14.5974820907 14.7797579822
4.3609695735 15.1190682020 15.2628177891
4.2130488818 14.7380174916 16.1471440553
4.2593422553 14.0748979901 16.1319860501
4.4043408267 14.3739589405 16.8727492613
4.2539006245 15.1858824151 17.1776495249
4.8244250922 14.5478416033 17.8567062891
4.5182563721 15.0726096077 17.8637171309
4.8210209614 15.0971503485 18.3428908459
4.1990547516 15.6545731389 16.3002489042
4.5577165430 16.0494804960 15.4608961490
4.4772784635 15.5181510141 17.9007587523
4.3368323024 15.9631947203 17.5214186186
4.4846572253 16.3776832703 16.2135988743
4.7761510479 16.5673953418 15.5424409169
4.6600340829 16.3634692592 17.0370641187
4.7176297672 16.6382386016 16.3808813370
4.8800180456 16.7432875563 15.9035454182
5.0432957390 3.7406006184 5.4547997512
5.4186384177 3.7193046893 4.6132230677
5.8666771737 3.1709154069 5.0061708013
5.9105916884 2.8905315817 6.2399562708
5.0674152937 3.4717613369 6.7037873844
5.6802148850 3.0762221092 7.4076256602
5.0964976045 3.4696334930 7.7001975464
5.5579613944 3.2564835749 8.0989356251
5.2582838049 3.4778713860 8.2653178921
5.7598384960 3.4739063424 8.7664408061
4.9754939226 4.4341266469 4.4032459363
5.4169605045 4.4197261939 3.7802305412
5.4975110582 3.9827593158 4.0872158496
5.4331522229 4.0003789253 9.4335326351
4.9607665379 4.3427607660 9.5883788829
5.3677364428 4.4027157296 10.0490046312
5.1776675412 5.0676703874 3.6727561070
5.6354237394 5.4027418933 3.0663881774
5.6736996314 4.6886127254 3.3451614652
5.4781936420 4.8418515141 10.7568032623
5.0619303050 5.3040494212 11.0969776427
5.6244861159 5.2325514224 11.4614448683
5.0302464202 6.0166336966 3.4927686995
5.6326601107 6.4214904005 2.8445786566
5.2661399677 5.6426177556 11.7932597832
5.2636985150 6.1471252148 12.6244456996
4.9547380534 6.5401210210 13.0047492500
5.4739346844 6.4579788649 13.3039668637
4.9812688392 7.0132659505 3.4312960359
5.4817380626 7.3158141924 3.0426265295
5.2497856884 6.9343752359 13.7534473139
5.4164946841 7.4574162326 14.5056963807
5.0605065804 7.8354311203 3.5244503306
5.7085830848 7.9364689585 3.2143468449
5.3177430609 8.0459186326 14.9925696160
5.2507380430 8.7614329662 15.5451677161
5.2461056407 8.5023758563 3.8080801898
5.4944970000 9.1633472736 4.3051247338
5.3899562920 9.6239444391 4.7430380541
5.2009113450 9.2663676535 15.8602857770
4.9301252211 9.7139958630 15.9251552081
5.6030089981 9.6285096924 16.2203619484
5.4251068427 10.0522755724 5.2440879234
5.3742746125 10.5677697685 5.8093189588
5.6303132880 10.5327365371 16.6478590346
5.3570343060 11.0630473864 6.5064772290
4.9558464283 11.6779025397 7.5392339270
5.6394952766 11.6787423294 7.1036409996
5.4486928144 11.3072689962 16.8971746225
5.1823676475 12.0658517621 16.9603589935
5.8910851642 11.6549035083 17.2462487122
5.5604124165 12.1516314697 7.8786325699
5.2112650056 12.5575691626 8.6224508130
5.9443427136 12.6313267767 8.5047676580
4.9117816522 13.1285217177 17.0915085789
5.7187292226 12.6026165385 17.5367514600
5.4653768158 12.9935287734 9.2709522883
5.3063881808 13.4622424506 10.2103968660
5.2557650275 13.9460451239 11.0374086890
5.9421645103 13.8964389753 10.5857306722
4.8284174496 14.0302346603 11.8369556026
4.5858964988 14.1534401124 12.7547945917
4.4628764329 13.7160667136 16.6079521701
4.6993371226 13.9165370085 17.2458096429
5.4326107136 13.3701955381 17.7603618651
5.0836897976 13.8092812307 17.6876060190
5.7308426481 14.1498531826 18.2750939815
5.7828941988 14.2937094064 11.1842884506
5.3985921631 14.4539706868 11.7337188684
6.0226777606 14.6679767026 11.7030851039
5.0833839094 14.6219942136 12.5382915618
4.8030072633 14.8527832143 13.5890054944
4.5240946529 14.9543495331 14.4842233449
5.5023716949 14.9281722649 19.0719737222
5.0894056419 15.5810718088 18.7703311649
5.5838627809 15.4982023995 19.7598249225
5.6670690886 14.9299054130 12.3719436905
5.3547381606 15.1155472318 13.0448047912
5.3323649374 15.5402452117 13.6650773728
4.8791336811 15.7121561705 14.4816376752
5.3589138876 15.9827661370 14.0438604164
4.8094717976 16.0055571723 17.9987785638
5.2463204156 16.1257013439 18.6106541121
5.5177526937 16.1319593770 19.3735397107
5.8057639660 16.2047975861 21.2664700423
5.7874986118 16.3344701316 21.1640805326
5.8247100550 16.0622207983 21.0574028762
6.0372600387 16.1966959780 21.3181003585
5.2985912588 16.2932359568 14.3727126332
5.6573102440 16.3624629525 14.2741954604
5.6325047861 16.1577288938 14.0315398155
4.9857824215 16.4195197929 14.9373829972
5.4797247245 16.5450583809 16.8290745431
5.0707050987 16.7103339928 16.3139106106
5.3948920750 16.4279588662 17.9154160471
5.6033412759 16.5080007659 18.8158341019
5.8409960125 16.3927938224 21.3475776868
5.3820038986 16.5570544015 14.6491862059
5.2233495439 16.7157403056 15.2276943277
5.2605271271 16.8040903346 15.7385547781
5.5719432133 20.2287293812 22.6690435360
5.6957093746 20.2622419959 22.0104111483
5.6864280452 19.8811898135 22.2545228213
5.7564741908 19.7379931726 22.8584927270
5.7291501711 20.1390654925 23.1639766975
6.0912022874 19.7380802567 23.4285185868
5.5520054992 20.4315721465 22.4312316177
5.7311873040 20.4406170648 21.9094197356
5.6308460897 20.3501557593 23.0011422636
6.1210418670 20.1616235736 23.4941959683
6.5386941966 2.4272484560 6.6075172648
6.5376610131 2.4085828582 6.0314393131
7.0934261163 2.1492903974 6.3773559908
6.9284194994 2.2971324494 7.0167481876
6.3657906563 3.4454425605 3.7196564702
6.5411908588 3.7747184085 3.2609637810
6.8929322090 3.2916504396 3.4980374559
6.7100830477 2.8926620957 4.2829161687
5.9263794685 3.4922867145 4.1896771262
6.4780508080 2.5989417497 5.3410823349
6.5168597934 2.6474034453 7.3770214054
6.2501028318 3.0314171302 8.2239728074
6.8072486386 3.2265411405 9.0900137736
5.9364035106 4.0226129821 3.5687015998
6.3562952879 4.5961343654 2.8477588194
6.4579746345 3.6804750405 9.6953028262
6.1507017583 4.1295201249 10.2463731606
5.8804467546 4.4377377454 10.5336677359
6.5736021291 4.4565793790 11.0260753094
6.1399869281 5.6040840906 2.4884713353
6.4002613189 4.9988700015 11.7002833351
6.0025882005 5.3855629666 11.9932065964
6.5636151722 5.3408449457 12.3356642220
6.5951861481 6.3580960773 1.9045464150
7.0363535666 6.2385539116 1.6029199094
6.8894739899 5.8909896429 1.6711817630
6.5623668918 5.7656152050 1.9897003940
6.1940611684 6.2752593481 2.2805211718
6.1773765142 5.7359158753 12.6447277792
6.0574898186 6.2260609441 13.3213497500
5.8223386292 6.5364735203 13.6430747108
6.4586982357 6.6123195023 14.0108464929
6.9125684868 6.7202790923 1.9498450173
6.2605057508 7.1157341700 2.5235865387
6.9384642662 7.1438085629 2.3300848481
6.1037622422 7.2038649207 14.5562045007
5.8341544768 7.5770884133 14.8533397149
6.4609209700 7.7133980498 15.1846431164
6.8470809958 7.5198781561 2.7044600115
6.4709861888 7.9471110280 3.1033265860
5.9982775017 8.5679957662 3.6560275872
6.7460687422 8.4490804616 3.5910692575
6.0392599167 8.4184568364 15.6405433156
5.6977824686 8.9767270752 15.9223362658
6.4053764864 8.9587971166 16.1309301651
6.5249620869 9.1283765618 4.2120360643
5.8502658746 9.6034057681 4.6575380593
6.5821692408 9.7393577182 16.6183415170
6.5758148844 9.8705616908 4.9851234481
5.9798155360 10.5326507257 5.6550729952
6.7243230399 10.4480353573 5.5511060880
6.3386641188 10.4850871702 16.9498064273
5.9404113211 10.9856608534 17.0360030285
6.5563146101 11.0289498023 17.2223895461
6.6030838007 10.9424892111 6.1385923875
6.1121883674 11.4355284582 6.6575244826
6.7119775930 11.4282840268 6.6738073297
6.6955189604 12.0386137004 17.5343942299
6.3694962845 11.8248353009 7.2020986491
6.5114883043 12.2615082618 7.9748299031
6.6833028543 12.6006947673 8.5522917269
6.2443627152 12.8403230613 17.8374816761
5.8642261447 13.2622323918 17.9515657828
6.2879687220 13.5032104983 18.0244533140
6.4401237146 12.9525117974 9.0971069914
6.1960161489 13.3988271054 9.8397790912
6.8257375082 13.7624409700 10.4542195647
6.3555294998 14.2008524655 18.1221369909
5.9531258217 15.0611457336 20.2202442559
6.0883717710 14.9088628077 19.8473509197
6.1884986458 14.8358950766 20.2622199724
6.2509077966 14.9500176859 20.4982062204
6.5280664075 14.3076032627 11.1738549372
6.6071412080 14.7163857435 11.7975200656
6.1414276141 15.0982148263 19.1365234418
6.2844996270 14.8685777256 18.3987214863
6.3248043074 15.1703895281 19.8698044225
5.8059114904 15.5072817973 20.3675406684
6.1915206117 15.2179769696 20.7236138775
5.9665146119 15.6228254888 20.8069798594
6.2787907531 15.7309403615 21.0347644154
6.3289638912 15.0103446030 12.3260909153
5.9204884166 15.4106083021 13.1235591138
5.6886821946 15.8587850650 13.7320930846
6.1694444541 15.8966484019 13.9232403071
6.4661510972 15.9631928280 15.0370478003
6.2389633072 16.1812153934 14.7211379409
6.0497542576 16.3680590594 15.3256234816
6.4429483454 15.9934889711 15.6195059360
6.3985121010 15.5839400394 18.6649183036
6.5033009429 15.3967645684 18.1613399685
6.5512346676 15.9825015484 18.3435817670
6.4149980814 15.7676553052 19.1428000986
5.7878546904 16.2250486657 20.5036879979
6.4455509254 15.6560253417 19.6480877545
6.3703652698 16.2051318030 21.3194355469
5.8235533950 16.4417111640 14.6726169689
6.2131770447 16.1312572926 14.3872698921
5.5948791253 16.6848116400 15.3490855338
6.0649287428 16.3443374671 16.2488349210
5.5919993627 16.6479716493 15.9515139556
6.1494807724 16.4537249170 17.5285216442
6.5552793654 16.2413579744 18.9035090640
5.9837515677 16.8026373402 18.5206770788
6.3198698583 16.8993927275 18.3760196920
6.5721998226 16.1807338790 19.4112013669
5.9861147576 17.0160874330 19.6135034760
5.9491338877 17.2964547226 20.6685072673
5.9905985980 16.9720131178 21.4711961633
6.5232023221 16.8139241007 21.7336962964
6.3739590245 17.4667823091 22.4329313860
6.7630329586 17.3346680148 22.4298083884
6.4744270648 18.0044013711 23.6892161278
6.7027892787 17.8763542045 23.6240109935
6.5956082366 17.8188925278 23.8502772006
6.4612413687 17.3418105532 19.0569937491
6.5392918844 17.5993168052 19.7213097638
6.1872630961 18.1638920737 20.3680707157
6.6594303303 18.0082443527 19.8843070170
5.9633246030 18.1079566246 21.3763387866
6.0610179132 18.1089840587 22.3448054465
6.7553097235 17.6912277453 23.0014570409
6.3661100640 18.0553945232 23.2096506440
6.4281198807 18.5374542136 23.6014169044
6.4971963238 18.9698726754 20.0163336728
6.8823937202 19.1576758733 19.6083365829
6.7454106499 18.4689375059 19.6131994292
6.1528426221 19.1698173517 20.6753362869
5.9761000301 18.8958017376 21.1935052916
5.8678992133 19.0977584115 22.1212645847
6.1082741920 18.9409460504 23.1185065655
6.6244734362 19.1586308587 23.6729815600
6.8144423902 18.6330207812 23.7665636176
6.6615251071 19.6249089573 19.9080825994
6.3986208313 19.8111553935 20.5191355649
6.7654500783 20.0146233577 20.0825013329
5.9374198587 19.7051901843 21.4326617968
6.6740243585 19.8666957538 23.7235596728
6.8938885137 20.2960353281 20.6094459118
6.2148325005 20.2828045205 21.2512452003
7.0105803939 20.5195977936 21.0976584063
6.9052244208 20.1881813797 23.7225756308
7.1948021391 2.2970760813 4.9705958400
7.5684381111 2.3857514981 4.2892955925
7.9931742659 1.9907523760 4.8080699001
7.7199396802 1.9628323047 5.7174024918
6.9542420021 2.2334024838 5.6588950746
7.8128159319 1.9561223894 6.5725267222
7.5266191443 2.1316723791 7.1167654581
7.2353045683 2.3817252795 7.5839801073
7.9918756000 2.3004148908 7.8790503500
7.2963559970 3.7497084840 2.9120907835
7.7071087745 2.8551332455 3.5759433953
7.4218036249 2.7472021233 8.4829888933
7.6462356846 3.1131420501 9.3896962540
7.1708497946 4.5842764804 2.3035700275
7.7425634871 4.7913566878 1.9987717998
7.9501413669 4.1331422194 2.3952858833
7.4364955963 3.4536425218 9.9035592156
7.2517045750 3.9356608349 10.6255304170
7.5080552618 4.2968815507 11.3709598122
7.1207841990 5.3059256315 1.8380010776
7.3123995182 5.7726617873 1.5751803294
7.6589853342 5.3273742608 1.7389756381
6.6474672781 5.1520351935 2.2303191418
7.3430711838 4.6810381421 11.8422571706
7.2252852375 5.1260077592 12.4142646924
6.9751615944 5.5093973828 12.8214339390
7.7652717425 5.4406352151 13.0882845879
7.4162833219 6.1196853462 1.5583155239
7.0663017061 5.9709446101 13.4574031095
7.6630281653 6.4801199469 14.2528379114
7.2983355503 6.4580520987 1.7078267922
7.2863959200 7.3510482025 2.6095182465
7.5976335388 6.7856716808 2.2301107792
7.7162921240 7.2901781016 2.7870219694
7.1162404394 7.0815675769 14.7569979382
7.6412162834 7.6206457264 15.3741825829
7.4803166281 7.8116707160 3.2399013251
7.3562159686 8.6061210825 3.9314621365
7.0392881161 8.2750926194 15.8053283365
7.4144469799 8.9390696912 16.3201645702
7.2989856408 9.0921342028 4.3467339135
7.0268292135 9.4002520252 4.5579608280
7.7458561378 9.3816082688 4.8655306197
7.6254996316 9.5976576496 16.7585856128
7.0712591534 10.5707992920 5.7666995809
7.4892670089 10.1287063283 5.5383942270
7.5226134156 10.6160623696 6.1093900801
7.0637178274 10.2721401020 17.0184245849
7.4752642089 10.9257765247 17.2557956263
7.0444351794 11.5992571541 7.0245613911
7.4847710521 11.1147302895 6.7207072623
7.5213680595 11.5313492512 7.2822016770
7.6149869517 11.7821207915 17.3875764963
7.1252956164 11.8904867671 7.5839404277
7.1120476910 12.7410676827 8.9798299086
7.4796041559 12.2181331952 8.4775245357
7.5901824567 12.6499231825 9.1891576484
6.6987761618 12.9558918345 17.7973247067
7.3809042899 12.7486032388 17.4870554964
7.3675440154 13.0992113947 9.7808789715
7.6088034031 13.5937406340 10.5927030320
6.8539864382 13.7640889280 17.7478714628
7.4859984470 13.6513330483 17.2163195238
6.3329977881 15.0059639433 20.2878273884
7.3857060672 14.0299767480 11.0940248249
6.9002575144 14.8718656750 12.2552810528
7.2708118596 14.4811603218 11.8483802591
7.3349051037 14.7701988079 12.5392648197
7.0619711646 15.2357954325 14.0096988293
7.6747851115 14.7103219624 13.5697582109
7.3035225398 14.9981475544 13.3899335031
6.9588731958 15.3779523417 15.2687928532
7.7589296446 14.5808235451 14.5745303088
7.0821189254 15.0357549773 16.4750212967
7.6221792082 14.5050904458 15.7261058342
7.0570284614 14.5325675075 17.2789004920
7.5564077510 14.2066602203 16.6277259132
6.6258347416 14.7524795219 17.9005411901
6.5037697248 15.5615210790 20.2656841351
6.4061969400 15.3528625305 20.6838881583
6.8431933943 15.1620498461 13.0347847533
6.5397249619 15.8194646567 14.5036117812
6.5769091069 15.8296942415 16.4186291244
6.6593004427 15.6377862260 17.5665320745
6.6495508501 16.2804795008 19.9670238551
6.6543215742 16.3209651053 20.8630396941
6.6261044357 16.8480278242 18.6295178054
6.7598861357 16.8680299790 19.4454958244
6.8075839329 17.1724673097 20.0564597001
7.0404215507 17.1522499485 20.7271434108
7.0506418376 17.0997751661 21.4315160309
7.0144988685 17.2650917947 22.0672147612
7.4537641370 17.6669426407 21.8786641738
6.7257340338 17.8630196528 23.8594936812
6.7676096405 17.8446449343 19.5861474648
6.9260334252 18.1658948454 19.3618967707
7.0688051678 17.7113207037 19.6047694021
7.0578768179 17.6551231074 20.1132678323
6.8645587243 17.4916571902 19.7255283724
7.1985805286 17.6559353502 22.5785886154
7.2397340855 18.0653670415 23.2546354925
6.9558410862 18.1758733697 23.7330416529
7.3187194856 18.7704091806 23.6109119760
7.2260638964 19.0508648904 19.6041099378
7.1701321685 19.4898108649 23.7359534466
6.9131301977 19.7850665070 19.7628129308
7.1977610690 19.6424277542 19.7270601802
7.3614896121 19.9918326261 23.7018438447
7.0911429435 20.0770928736 20.0187978542
7.3453949287 20.2159298257 20.4179219876
7.4613013418 20.6295358203 21.3841261142
7.6065564615 20.3721653391 21.1874986715
7.8124657251 20.6118699432 21.8416727146
7.5694485231 20.2988358712 23.5900278009
8.4091020128 2.1167440487 4.1111061647
8.5694367888 1.7881452535 4.6856961589
8.7039249130 1.6732806050 5.4157877830
8.5568041130 1.8004159650 6.4432507873
8.3438282749 2.0085849288 7.2513570411
8.9236959122 2.2121016232 8.0655538220
8.5809415722 3.3345931063 2.9182356577
8.6573318396 2.5336993143 3.4607056331
8.6371883356 2.5552120885 8.7272573261
8.4788008087 2.9586441027 9.5140333842
8.1256280625 3.2593522724 9.9382836609
8.7008195196 3.2524786592 10.2238428732
8.2974181928 4.5086727450 2.1789087194
8.6285946990 4.0757496097 2.4640891227
8.3419605414 3.5965581036 10.6346628378
8.2493814820 4.0717036580 11.3830006922
8.0542362713 4.4401425883 11.8769097560
8.8449771558 4.3879758376 12.1236400802
7.8563110637 5.7758911417 1.7617469477
8.2764095827 5.0891067063 2.0181188335
8.2242442815 4.8745500436 12.5378313777
8.7461852870 5.3578113383 13.3147854182
7.6391179022 6.2859178906 1.7644515874
8.6031310939 5.6389801759 2.2887118187
8.0384691932 6.1882469067 2.0560932757
8.4366925878 6.3694507753 2.5478727016
8.2194250517 5.9006830701 13.7676126855
8.7369066159 6.4119492740 14.3770503368
8.0402909910 7.3676866279 3.1042341577
8.2375004125 6.9734168062 2.8725182487
8.7300698035 7.2896343568 3.5411490364
8.2147550272 7.0087271046 14.8907603317
8.7009809245 7.5951630386 15.4363573744
7.8577882504 8.8110976975 4.3393548510
8.2541097844 8.1921860970 4.0144662898
8.6040858240 8.6787231952 4.6562139370
8.1204439018 8.2512045774 15.9195813416
8.5628552271 9.0960429541 16.4316248263
8.7928160656 9.1581623844 5.2676766722
8.2231591537 9.7395344094 16.8604374810
7.7569130264 10.1194117562 17.0375843154
8.2590280514 10.3459693791 17.0380973505
8.3180583992 9.6824338725 5.5409138112
7.9805284277 10.6528722035 6.5008341455
8.5063177759 10.1011291329 6.3217996687
8.3439495603 10.6897185124 7.0127113433
8.2504980104 11.2009135025 17.1340927530
7.7878734648 11.6893365230 7.8621927427
8.0720868101 11.2156089923 7.4626721465
8.0125322127 11.7802443092 8.3261268602
8.3527427946 11.3940087239 8.1917287749
8.3032741595 11.7874996708 8.7982794833
8.1503548324 12.1310318484 17.1736652846
7.8404098220 12.7049853962 9.5266400640
8.0627663557 12.3307071264 9.2588507188
8.2364902151 12.6168199095 9.8930880658
8.0162962671 12.9673084843 17.0575728335
8.0019430792 13.7247523811 11.0884256499
8.3833263028 13.1150233778 10.7473569568
8.4550090895 13.6018239187 11.4732148281
8.2512726951 13.9629286728 15.2217222946
8.8234878755 13.5431447521 14.6850595434
8.3833957862 14.0260008921 14.4578770279
8.1020494287 13.7924785676 16.1160647871
8.7733034682 13.2412253803 15.6382895231
7.9350492264 13.5744159271 16.7581318784
8.4219142673 13.1169349645 16.4912377527
7.9983679481 14.0308337762 11.7071222493
7.4733362121 14.8196383612 13.0282693404
7.9731736059 14.3455539305 12.7137911253
8.2491807144 14.2153030143 13.7517937670
7.3991617360 17.6595280124 21.0226001468
7.4105645759 18.6388652427 19.8760916620
7.5181734844 18.1936714274 20.4369558244
7.9201912084 18.3837592492 21.4805769159
7.8436729981 18.2376293210 22.5037178243
8.1820747137 18.5341172611 22.0633580686
7.7597271297 18.4762467315 23.1840675447
8.1190817670 18.6840320739 22.9306629338
7.5123330609 19.4350179326 19.9916464123
7.8612700699 19.1439434511 20.7271165443
8.2070122477 19.0511915404 21.4523344151
8.2909007231 18.8209161458 21.8621784451
7.9382703489 18.8878893643 23.3117029932
7.8141872297 19.4862989851 23.4800624118
7.3973561837 19.9348014854 20.0461679416
7.6551578826 19.8981869622 20.5196475367
8.1798292170 19.5153441376 21.3616896301
7.9434356107 19.8450944826 21.0746467644
8.1471935461 19.9761593776 21.6926154585
7.9216595639 20.1363715061 23.3872531763
8.0546629584 20.5562931338 22.5548481423
8.0700879993 20.3955441994 22.1241871617
7.9828470555 20.4378801113 23.1754247864
8.1735618526 20.3041274302 22.8437287390
9.2980296851 1.5778584536 4.6417501271
9.8900674740 1.6246197817 4.0859998729
10.2734835029 1.3062022621 4.6285172666
10.0289363567 1.2467163170 5.3046147466
9.4735722915 1.4056103270 5.5094609404
9.9474283595 1.3151764785 5.9184266286
9.2606626325 2.0165418809 3.7916844581
9.3854193650 2.5607785889 3.2761925312
10.0135231054 2.0224857322 3.6226944053
9.5120291493 1.5856146177 6.3517616452
9.3614523580 1.9474506973 7.4133898879
9.6438968456 2.2196199911 8.2562912475
9.5867215505 3.1279590690 3.0248888575
9.5495674562 2.4800894827 8.8293670499
9.4477222216 2.8143307706 9.5423638425
9.3281811938 3.1353337508 10.2232499384
9.1522229318 3.4384695143 10.7274458021
9.8813660822 3.4619671983 10.8817005946
8.8370195716 4.6028261772 2.3608289100
9.3985892112 3.9485566046 2.7857195169
9.3652699147 3.9218925002 11.5173540597
9.5628199446 4.3652593896 12.3333053216
8.8199212970 5.0807338807 2.3060777689
9.4226640802 5.0057163756 2.7561807327
9.4128815778 4.8419208922 12.8858221995
9.4781952937 5.3838267822 13.5078816182
8.8635856971 6.5958871299 3.0760671559
9.1629100958 5.9289708512 2.8901516608
9.6135696155 6.3515403531 3.5177483588
9.1592733652 5.8350348397 13.8911576830
9.7113595082 6.3526989481 14.3290942192
9.7673969729 7.0447555062 4.0692414444
9.2183667308 6.9976397816 14.9157287138
9.6024512452 7.6378347127 15.3855020663
9.4253303706 7.8384914107 4.4601949845
9.4363485356 8.5619960961 5.1225764546
9.1256502252 8.2458222609 15.8863681066
9.4899781920 8.8477097946 16.1219432486
9.5254311094 8.9821043453 5.6994030615
9.0131027332 9.4970055705 5.8917030963
9.1747757294 9.6431969830 6.3339024697
9.6131796113 9.2589713485 6.3133175240
9.4372995746 9.6315930468 6.8499254643
8.7189888698 9.8415599535 16.7659495372
9.4132314861 9.7274935788 16.3797804429
8.7481243085 10.8020243788 7.8659764296
9.0868934858 10.1809034776 7.3569415761
8.9651912282 11.0964309215 8.8617390840
9.4199085929 10.2659279716 8.3543198248
9.3367948523 11.1792966542 9.8029813381
9.6076286997 10.4563556589 9.3361930897
9.7126181931 10.7229196599 10.0777093683
8.8984021367 10.5712423724 16.7923290518
9.5819199165 10.8856260252 16.2711462224
8.7459445916 11.8887064883 9.6443059782
9.5961698146 11.2138318834 10.4236702053
9.2642796252 11.7841173067 10.4102646168
9.6379691756 11.5959828712 10.9489044260
8.8770962192 11.6431982533 16.7295877406
9.3989286271 11.7802587944 16.2213255450
8.8195236725 12.3845069179 10.3831098904
9.2732067429 12.3767408239 11.1682485743
9.0093682632 12.4736234887 16.2379366894
9.4926384299 12.1941851804 15.8493837485
9.3062762863 12.6590094338 15.6008999032
8.5351800592 12.4822804076 16.8045332972
8.6312971427 13.7290670411 12.2260827116
8.9828841295 13.1579194860 11.7148866450
8.7458952321 13.7735687656 13.1886166124
9.2446007542 13.1998285465 12.6643873797
8.7374963262 13.7711733670 13.9876186287
9.2971802071 13.1809442778 13.8177794805
9.3500287566 12.9129833451 14.8938880538
8.3137906891 18.8682432786 22.4314854071
8.3645371085 19.3881566561 21.9694216929
8.4146384944 19.4446799461 22.5978071140
8.2506827551 19.1813565279 23.0119266140
8.3281646855 19.9408440301 22.4090845401
8.2499924609 19.7919429270 23.0175657333
10.6744938096 1.5881601284 4.0842191072
11.0415057123 1.2237051881 4.6413621285
10.7665249441 1.1661231364 5.2590800200
10.5268272918 1.2805181846 5.9321839775
10.2593114017 1.4865586591 6.4527588315
10.9490749492 1.7289695679 6.6445146736
10.1631981054 2.6098122982 3.3193400342
10.6583150835 2.1288069980 3.6698310572
10.3293530630 1.9391864005 7.2982970989
10.1630673769 2.2431963692 8.1754369275
10.0987981234 2.4423066259 8.7576684798
10.5417686100 2.6410144158 8.8946373292
10.2538242050 3.3739047590 3.2061146810
10.3778814636 2.8599200016 9.5645175194
10.1173183944 3.1068807928 10.2729030378
10.5202556512 3.4286868377 10.8034590054
10.2161027783 4.2874777861 3.2001264591
10.4893399267 4.0180600073 11.4686966306
10.0693388867 4.3513542944 12.2673108175
9.8639534159 4.5434617469 12.6416022620
10.1524801589 4.8157150151 12.8676274614
10.1614856969 5.0337556495 3.2956461612
9.7938647194 5.5794890094 3.2190058720
10.3335723204 5.6121238806 3.7240030283
10.0098532729 5.3085379694 13.4101676205
9.7892099693 5.7303116118 13.8394936863
10.2656734056 5.9295887086 13.8414089394
10.3332629875 6.3939211665 4.1609567224
10.3494600112 6.6162070929 14.3010162092
10.2570234822 6.9970853667 4.4245864613
9.9753476485 7.3393218810 4.4130876201
10.2410330010 7.4264491715 4.7934185961
10.0251057759 7.1106571238 14.8410084718
10.2109285961 7.7504925220 15.2235701701
9.9551620400 8.5323840669 5.5709488909
10.0737729166 8.0389966916 5.1997533078
10.3472050062 8.2266704485 5.7686762337
10.4323476645 9.0959117677 9.9213679929
10.7478279893 8.3479249292 9.4759495848
10.5381084013 8.7698073712 9.0104427869
10.5786542655 8.9889226576 10.9130556027
10.7714614641 8.2789013174 10.2772913493
10.6993822764 8.9441349299 11.5892733346
10.8204466807 8.2885286110 11.1774216994
10.8586272181 8.5654284339 11.9153598339
9.9139098394 8.2943885183 15.6976956072
10.0868222009 9.0864692708 15.8531329194
10.0950102641 8.7164882674 6.1246994018
9.8136810056 9.5753523771 7.7745243036
10.1667191004 8.9326354281 7.0039421906
10.0630775965 9.5658816232 8.9305315796
10.4242963019 8.8468110159 8.1212084596
10.0180869811 10.0580101093 9.9834380855
10.3030793457 9.8455101187 10.8188967702
10.5471511018 9.6457785256 11.6012750219
10.7724165427 9.3229563207 12.2212550636
10.1312550453 10.0319846823 15.8795391778
9.9498411876 10.8143827709 10.8273969905
10.3304742351 10.5752584457 11.6588160853
10.6487048313 10.2279137322 12.3502914960
10.1811561754 10.8856632224 15.6407467538
10.5082042417 10.2936118120 15.3704732887
10.5109667166 10.8551045066 15.1119427590
9.9678194581 11.7035335776 11.8736034692
10.4798720834 11.1111793362 12.4928362319
10.2208991955 11.5720173159 15.0338953473
10.5839176072 11.1344295737 14.6229924192
10.4231153504 11.6538023456 14.3011385541
9.8131363373 11.6197836345 15.7582729003
9.5312432698 12.6263355145 12.0806738255
10.3178318641 11.7593547734 12.8215985300
9.8740861418 12.4358031059 13.0126331766
9.9490915372 12.3221827034 14.2803993231
10.3725900622 11.8434416396 13.5823583813
9.7313800360 12.2586968595 15.2582330758
11.3209469181 1.4158892770 4.3106877410
11.5382933890 1.2535183899 4.6268942072
11.4723608189 1.2752777765 5.1782048953
11.1788640203 1.3496771818 5.8760321419
11.4807525267 1.7491558882 6.2833215204
10.8750321340 2.7541329448 3.6217118205
11.3709347199 2.0045805255 4.1202556997
11.1115746128 2.4478277498 7.5620640253
11.5533721227 2.4327764746 6.8678217614
10.7901239352 2.5978334946 8.3418086856
10.9736750739 3.7366434176 3.7276454272
11.4768603733 2.9786659408 4.1654355079
11.5215606519 2.9903369859 7.6313820238
11.7583447883 3.2407754961 7.2724017281
11.3336354876 3.3178645538 8.4701924068
11.0127268193 3.3076021239 9.5357256937
10.9660440339 3.2088775758 10.0952224761
10.7625310609 3.2126332663 10.3704553416
10.9371881732 3.5877435456 10.7566839695
10.7305623113 4.7717545956 3.7550885952
11.5132106658 3.7478447819 4.2925154899
11.3073725921 4.4801241634 4.2973916684
11.6773456278 4.1920872177 4.7375347790
11.6830463762 3.6618132337 7.9474610772
11.5944661652 4.0809507618 8.6313973107
11.6414964343 4.8252252608 8.8950484397
11.3746659344 4.3686411450 9.5624516727
11.1121369402 3.5074941084 10.3650819220
11.0896085233 4.2657354843 10.7953222124
10.9000962146 4.7546732342 11.8778485348
10.5819203174 4.7553840291 12.4485744154
11.0143373770 5.6277639654 4.5610535726
11.5758038788 4.9278787695 4.9903487240
11.4374160745 5.5572724166 9.7478058155
11.6345814201 5.7004871022 8.8964201998
11.2631308532 5.4139737829 10.7457276767
11.1088710780 5.4472429853 11.7986130935
10.8895126985 5.4931937350 12.6695249924
10.5232343269 5.4015920324 13.2051275591
10.6804602299 6.7494886466 4.8303855112
11.4880329181 5.6547428835 5.3657440949
11.1984789179 6.5163445884 5.6426515599
11.4648492977 6.6527309836 6.6634240968
11.6332720814 5.9330081857 6.0893676319
11.7261763774 6.1082130775 6.7854252641
11.3432023753 6.6199260881 9.5657176262
11.5704524028 6.3763890918 8.6860227060
11.2281691940 6.5118255407 10.6932026532
11.1569769265 6.4789310795 11.7673289362
11.0463949644 6.4427531890 12.7675203905
10.7421928269 6.3697117290 13.6401725942
10.6656773354 7.5244380129 5.5815223714
11.0557831861 7.4033909881 6.5448979527
11.6199766842 6.5386488057 7.3006190705
11.2920748903 7.2356017717 7.6060840428
11.3203220293 7.0956009636 8.6851891432
11.6045937739 6.5399070447 7.9898848231
11.0351365545 7.6355292740 9.5371864779
11.0428146442 7.4752522505 10.5162046284
11.0347418429 7.6344686646 11.6854169150
11.0747503177 7.5261596083 12.7741035350
10.9597399387 7.4391573060 13.7306373115
10.6021821997 7.4274602420 14.5786964262
10.5885323200 8.1868520858 6.4027972162
10.7922836128 8.1360735439 7.3842833618
10.9091325848 8.0250118098 8.5621649013
10.9729042417 8.7008850585 12.7553031754
11.0184442730 8.4795578958 13.7227396393
10.8472498697 8.3979279683 14.5720757662
10.4711161269 8.3795888478 15.2767250478
10.8711834312 9.8288194032 12.9970694310
10.9644763705 9.4994327119 13.7414012591
10.9186685667 9.2275634373 14.4385844700
10.6149802059 9.3870983029 15.2273410870
10.7473639787 10.7146073424 13.1051827989
10.8728752035 10.3262398378 13.6894425719
10.7761250853 10.2609577549 14.5720203389
10.5867162864 11.3740945315 13.1766751065
10.6899406165 11.1028463878 13.8854552332
11.6666211753 1.4919988018 4.4083943702
11.8045687413 1.4087508916 4.8270914744
11.8868611717 1.7729132836 5.2892063626
11.9604376405 1.7720503344 4.8105288594
11.6371804034 1.5525252057 5.7659096351
11.8253586812 1.8420650223 4.4761947125
11.8803896790 2.4029755085 4.8153663354
11.9818795616 2.4954627322 5.6340414376
11.8155472321 2.1172071237 6.0692139544
11.8074403763 3.4823020456 4.8057448889
11.9841904397 3.3291057905 5.5908162665
11.9175040469 3.1096165821 6.4739361618
11.0595483491 3.3420992996 10.4443196087
11.8720427330 4.3874474112 5.5065328131
11.9779622868 4.2250611483 6.4641560008
11.8920208048 4.0941350881 7.4246245212
11.7707593935 4.3248081681 8.2289028672
11.7459427386 5.2512317013 5.6656202659
11.8715203681 5.3003887141 6.4625306015
11.9200023521 5.0849173756 7.3531127310
11.8240357344 4.9839426122 8.1778525716
11.8052551032 5.9380034098 7.3592953503
11.7764603756 5.8027952253 8.1126682947
3 2 1 0
3 4 3 0
3 0 3 2
3 4 5 3
3 1 6 0
3 0 6 4
3 4 6 7
3 4 7 5
3 10 9 8
3 12 11 8
3 8 11 10
3 12 13 11
3 8 9 14
3 14 9 15
3 14 1 2
3 12 14 2
3 8 14 12
3 16 13 12
3 2 16 12
3 3 16 2
3 18 17 5
3 17 3 5
3 17 16 3
3 18 19 17
3 15 20 14
3 14 20 1
3 20 6 1
3 20 21 6
3 21 23 22
3 7 21 22
3 6 21 7
3 18 5 7
3 22 18 7
3 24 18 22
3 19 18 25
3 25 18 24
3 23 26 22
3 22 26 24
3 24 26 27
3 24 27 25
3 30 29 28
3 32 31 28
3 28 31 30
3 34 33 32
3 32 33 31
3 36 35 34
3 34 35 33
3 36 37 35
3 40 39 38
3 40 38 29
3 38 28 29
3 38 41 28
3 28 42 32
3 28 41 42
3 32 43 34
3 32 42 43
3 34 44 36
3 34 43 44
3 37 36 45
3 36 46 45
3 36 44 46
3 46 47 45
3 38 39 48
3 48 39 49
3 38 50 41
3 38 48 50
3 41 51 42
3 41 50 51
3 51 9 10
3 43 51 10
3 42 51 43
3 43 10 11
3 43 11 44
3 44 11 13
3 52 44 13
3 46 44 52
3 47 46 53
3 46 54 53
3 46 52 54
3 56 55 54
3 54 55 53
3 56 57 55
3 49 58 48
3 60 59 58
3 59 48 58
3 59 50 48
3 50 61 51
3 50 59 61
3 61 15 9
3 61 9 51
3 16 52 13
3 52 16 17
3 52 17 54
3 54 17 19
3 62 54 19
3 56 54 62
3 57 56 63
3 56 64 63
3 56 62 64
3 64 65 63
3 60 66 59
3 68 67 66
3 67 59 66
3 67 61 59
3 69 20 15
3 61 69 15
3 67 69 61
3 70 21 20
3 70 20 69
3 70 23 21
3 25 71 62
3 25 62 19
3 62 72 64
3 62 71 72
3 65 64 73
3 73 64 72
3 68 74 67
3 67 74 69
3 69 74 75
3 77 76 75
3 76 69 75
3 76 70 69
3 78 26 23
3 70 78 23
3 76 78 70
3 79 27 26
3 79 26 78
3 71 25 27
3 79 71 27
3 80 71 79
3 71 81 72
3 71 80 81
3 73 72 82
3 82 72 81
3 76 77 83
3 83 77 84
3 76 85 78
3 76 83 85
3 78 86 79
3 78 85 86
3 79 87 80
3 79 86 87
3 80 88 81
3 80 87 88
3 82 81 89
3 89 81 88
3 84 90 83
3 83 90 85
3 85 90 91
3 85 91 86
3 86 91 92
3 86 92 87
3 87 92 93
3 87 93 88
3 88 93 94
3 88 94 89
3 97 96 95
3 95 98 97
3 96 99 95
3 95 99 98
3 102 101 100
3 104 103 100
3 100 103 102
3 106 105 104
3 104 105 103
3 108 107 106
3 106 107 105
3 108 109 107
3 112 111 110
3 112 110 101
3 110 100 101
3 110 113 100
3 113 29 30
3 104 113 30
3 100 113 104
3 104 30 31
3 104 31 106
3 106 31 33
3 106 33 108
3 114 109 108
3 33 114 108
3 35 114 33
3 35 37 114
3 114 37 115
3 110 111 116
3 116 111 117
3 116 39 40
3 113 116 40
3 110 116 113
3 113 40 29
3 118 115 37
3 118 37 45
3 120 119 47
3 119 45 47
3 119 118 45
3 120 121 119
3 116 117 122
3 122 117 123
3 122 49 39
3 122 39 116
3 53 120 47
3 124 121 120
3 53 124 120
3 55 124 53
3 126 125 57
3 125 55 57
3 125 124 55
3 126 127 125
3 122 123 128
3 128 123 129
3 130 58 49
3 122 130 49
3 128 130 122
3 130 60 58
3 63 126 57
3 132 131 65
3 65 131 63
3 131 127 63
3 127 126 63
3 132 133 131
3 129 134 128
3 136 135 134
3 135 128 134
3 135 130 128
3 137 66 60
3 130 137 60
3 135 137 130
3 137 68 66
3 73 138 132
3 73 132 65
3 133 132 139
3 139 132 138
3 136 140 135
3 142 141 140
3 141 135 140
3 141 137 135
3 143 74 68
3 137 143 68
3 141 143 137
3 144 75 74
3 144 74 143
3 144 77 75
3 82 145 138
3 82 138 73
3 139 138 146
3 138 147 146
3 138 145 147
3 147 148 146
3 142 149 141
3 141 149 143
3 143 149 150
3 152 151 150
3 151 143 150
3 151 144 143
3 151 84 77
3 151 77 144
3 89 153 145
3 89 145 82
3 145 154 147
3 145 153 154
3 148 147 155
3 155 147 154
3 152 156 151
3 156 158 157
3 156 157 90
3 151 156 90
3 84 151 90
3 159 91 90
3 159 90 157
3 160 92 91
3 160 91 159
3 161 93 92
3 161 92 160
3 162 94 93
3 162 93 161
3 153 89 94
3 162 153 94
3 163 153 162
3 153 164 154
3 153 163 164
3 155 154 165
3 165 154 164
3 158 166 157
3 157 166 159
3 159 166 167
3 159 167 160
3 160 167 168
3 160 168 161
3 161 168 169
3 171 170 169
3 170 161 169
3 170 162 161
3 162 172 163
3 162 170 172
3 174 164 173
3 164 172 173
3 164 163 172
3 164 174 165
3 171 175 170
3 170 175 172
3 172 175 176
3 176 177 172
3 177 178 172
3 179 173 172
3 179 172 178
3 181 180 178
3 178 180 179
3 183 182 181
3 181 182 180
3 183 184 182
3 178 177 185
3 185 177 186
3 185 96 97
3 181 185 97
3 178 185 181
3 183 181 187
3 181 98 187
3 98 188 187
3 98 181 97
3 183 187 184
3 185 186 189
3 189 186 190
3 185 189 96
3 189 191 96
3 191 99 96
3 189 192 191
3 98 99 188
3 188 99 191
3 190 193 189
3 189 193 192
3 196 195 194
3 198 197 194
3 194 197 196
3 200 199 198
3 198 199 197
3 202 201 200
3 200 201 199
3 202 203 201
3 206 205 204
3 206 204 195
3 195 204 194
3 204 101 194
3 101 102 194
3 194 102 103
3 194 103 198
3 198 103 105
3 198 105 200
3 200 105 107
3 200 107 202
3 208 207 109
3 109 207 107
3 207 203 107
3 203 202 107
3 208 209 207
3 212 211 210
3 212 210 205
3 205 210 204
3 210 111 204
3 111 112 204
3 204 112 101
3 114 208 109
3 214 213 115
3 115 213 114
3 213 209 114
3 209 208 114
3 214 215 213
3 210 211 216
3 216 211 217
3 216 117 111
3 216 111 210
3 118 214 115
3 218 215 214
3 118 218 214
3 119 218 118
3 220 219 121
3 219 119 121
3 219 218 119
3 220 221 219
3 216 217 222
3 222 217 223
3 222 123 117
3 222 117 216
3 124 220 121
3 224 221 220
3 124 224 220
3 125 224 124
3 125 127 224
3 224 127 225
3 222 223 226
3 226 223 227
3 226 129 123
3 226 123 222
3 228 225 127
3 228 127 131
3 131 133 228
3 228 133 229
3 227 230 226
3 226 230 129
3 230 134 129
3 230 231 134
3 136 134 231
3 136 231 232
3 139 234 233
3 229 139 233
3 133 139 229
3 234 235 233
3 232 236 136
3 136 236 140
3 142 140 236
3 142 236 237
3 146 234 139
3 146 148 234
3 148 235 234
3 148 238 235
3 237 239 142
3 142 239 149
3 239 241 240
3 150 239 240
3 149 239 150
3 240 152 150
3 155 243 242
3 238 155 242
3 148 155 238
3 243 244 242
3 241 245 240
3 245 247 246
3 245 246 156
3 240 245 156
3 152 240 156
3 246 158 156
3 165 248 243
3 165 243 155
3 244 243 249
3 249 243 248
3 247 250 246
3 246 250 158
3 250 166 158
3 250 251 166
3 251 253 252
3 167 251 252
3 166 251 167
3 254 168 167
3 254 167 252
3 255 169 168
3 255 168 254
3 255 171 169
3 173 256 174
3 248 165 174
3 256 248 174
3 257 248 256
3 249 248 258
3 248 259 258
3 248 257 259
3 259 260 258
3 253 261 252
3 263 262 261
3 262 252 261
3 262 254 252
3 254 264 255
3 254 262 264
3 265 175 171
3 255 265 171
3 264 265 255
3 266 176 175
3 266 175 265
3 179 256 173
3 177 176 266
3 256 179 180
3 256 180 257
3 257 180 182
3 257 182 259
3 268 267 184
3 184 267 182
3 267 260 182
3 260 259 182
3 268 269 267
3 263 270 262
3 262 270 264
3 264 270 271
3 264 271 265
3 265 271 272
3 274 273 272
3 273 265 272
3 273 266 265
3 273 186 177
3 273 177 266
3 188 275 187
3 268 184 187
3 275 268 187
3 276 268 275
3 269 268 277
3 277 268 276
3 280 279 278
3 278 281 280
3 284 283 282
3 284 282 274
3 282 273 274
3 282 285 273
3 285 190 186
3 285 186 273
3 287 286 191
3 287 191 192
3 188 191 275
3 191 288 275
3 191 286 288
3 275 288 276
3 276 288 289
3 276 289 277
3 279 290 278
3 278 290 281
3 283 291 282
3 282 291 285
3 285 291 292
3 285 292 190
3 292 193 190
3 292 293 193
3 192 193 287
3 287 193 293
3 296 295 294
3 298 297 294
3 294 297 296
3 298 299 297
3 294 295 300
3 300 295 301
3 294 302 298
3 294 300 302
3 299 298 303
3 303 298 302
3 306 305 304
3 304 307 306
3 310 309 308
3 312 311 308
3 308 311 310
3 195 196 312
3 196 311 312
3 196 313 311
3 197 304 305
3 313 197 305
3 196 197 313
3 314 307 304
3 197 314 304
3 199 314 197
3 315 199 201
3 315 314 199
3 201 203 315
3 315 203 316
3 308 309 317
3 317 309 318
3 317 205 206
3 312 317 206
3 308 317 312
3 312 206 195
3 319 316 203
3 319 203 207
3 321 320 209
3 320 207 209
3 320 319 207
3 321 322 320
3 317 318 212
3 318 211 212
3 318 323 211
3 317 212 205
3 213 321 209
3 325 324 215
3 215 324 213
3 324 322 213
3 322 321 213
3 325 326 324
3 329 328 327
3 331 330 327
3 327 330 329
3 323 330 331
3 217 323 331
3 211 323 217
3 218 325 215
3 332 326 325
3 218 332 325
3 219 332 218
3 334 333 221
3 333 219 221
3 333 332 219
3 334 335 333
3 328 336 327
3 338 337 336
3 337 327 336
3 337 331 327
3 337 223 217
3 337 217 331
3 224 334 221
3 340 339 225
3 225 339 224
3 339 335 224
3 335 334 224
3 340 341 339
3 338 342 337
3 227 223 337
3 343 227 337
3 342 343 337
3 227 343 344
3 345 344 343
3 228 340 225
3 347 346 229
3 229 346 228
3 346 341 228
3 341 340 228
3 347 348 346
3 344 230 227
3 231 230 344
3 349 231 344
3 345 349 344
3 350 231 349
3 350 232 231
3 233 347 229
3 233 235 347
3 235 348 347
3 235 351 348
3 349 352 350
3 352 354 353
3 352 353 236
3 350 352 236
3 232 350 236
3 353 237 236
3 238 356 355
3 351 238 355
3 235 238 351
3 356 357 355
3 354 358 353
3 358 360 359
3 358 359 239
3 353 358 239
3 237 353 239
3 359 241 239
3 242 356 238
3 242 244 356
3 244 357 356
3 244 361 357
3 360 362 359
3 359 362 241
3 362 245 241
3 362 363 245
3 247 245 363
3 247 363 364
3 249 366 365
3 361 249 365
3 244 249 361
3 366 367 365
3 364 368 247
3 247 368 250
3 250 369 251
3 368 369 250
3 253 251 369
3 253 369 370
3 258 366 249
3 258 260 366
3 260 367 366
3 260 371 367
3 374 373 372
3 372 375 374
3 370 376 253
3 253 376 261
3 263 261 376
3 263 376 377
3 260 267 378
3 379 260 378
3 371 260 379
3 380 378 373
3 267 373 378
3 373 267 372
3 269 372 267
3 372 269 381
3 375 372 382
3 372 383 382
3 372 381 383
3 383 384 382
3 377 385 263
3 263 385 270
3 270 386 271
3 385 386 270
3 386 388 387
3 272 386 387
3 271 386 272
3 274 272 387
3 391 390 389
3 392 391 389
3 395 394 393
3 393 394 379
3 378 393 379
3 396 393 378
3 381 269 397
3 277 397 269
3 398 378 380
3 378 398 396
3 397 279 280
3 383 397 280
3 381 397 383
3 280 281 383
3 281 384 383
3 281 399 384
3 401 400 388
3 400 283 388
3 284 387 388
3 284 388 283
3 387 284 274
3 401 390 400
3 391 400 390
3 400 391 402
3 391 392 403
3 404 391 403
3 402 391 404
3 286 287 404
3 403 286 404
3 405 286 403
3 406 395 393
3 408 407 405
3 288 405 407
3 405 288 286
3 406 396 409
3 396 406 393
3 410 289 407
3 288 407 289
3 398 409 396
3 410 277 289
3 277 410 397
3 411 397 410
3 412 290 279
3 397 412 279
3 411 412 397
3 399 281 413
3 281 412 413
3 412 414 413
3 281 290 412
3 414 415 413
3 418 417 416
3 400 291 283
3 291 400 292
3 292 400 402
3 292 402 293
3 293 402 404
3 293 404 287
3 408 419 407
3 407 419 410
3 410 419 420
3 422 421 420
3 421 410 420
3 421 411 410
3 411 423 412
3 411 421 423
3 412 424 414
3 412 423 424
3 415 414 425
3 414 426 425
3 414 424 426
3 425 426 417
3 426 416 417
3 426 427 416
3 430 429 428
3 430 428 422
3 428 421 422
3 428 431 421
3 421 432 423
3 421 431 432
3 423 433 424
3 423 432 433
3 424 434 426
3 424 433 434
3 436 427 435
3 427 434 435
3 427 426 434
3 429 437 428
3 439 438 437
3 438 428 437
3 438 431 428
3 431 440 432
3 431 438 440
3 440 295 296
3 433 440 296
3 432 440 433
3 433 296 297
3 433 297 434
3 297 299 434
3 299 435 434
3 299 441 435
3 439 442 438
3 444 443 442
3 443 438 442
3 443 440 438
3 443 301 295
3 443 295 440
3 303 441 299
3 303 445 441
3 448 447 446
3 450 449 446
3 446 449 448
3 305 306 450
3 306 449 450
3 306 451 449
3 453 452 307
3 452 306 307
3 452 451 306
3 453 454 452
3 456 455 310
3 310 455 309
3 311 446 447
3 456 311 447
3 310 311 456
3 446 311 313
3 446 313 450
3 450 313 305
3 314 453 307
3 457 454 453
3 314 457 453
3 315 457 314
3 315 316 457
3 457 316 458
3 461 460 459
3 455 461 459
3 318 455 459
3 309 455 318
3 462 458 316
3 462 316 319
3 463 319 320
3 463 462 319
3 320 322 463
3 463 322 464
3 467 466 465
3 467 465 460
3 465 459 460
3 465 468 459
3 468 323 318
3 468 318 459
3 469 464 322
3 469 322 324
3 471 470 326
3 470 324 326
3 470 469 324
3 471 472 470
3 465 466 329
3 466 328 329
3 466 473 328
3 465 329 330
3 465 330 468
3 468 330 323
3 332 471 326
3 474 472 471
3 332 474 471
3 333 474 332
3 333 335 474
3 474 335 475
3 473 476 328
3 328 476 336
3 478 477 338
3 336 478 338
3 476 478 336
3 479 477 478
3 480 475 335
3 480 335 339
3 339 341 480
3 480 341 481
3 477 342 338
3 479 482 477
3 482 342 477
3 482 343 342
3 345 343 482
3 345 482 483
3 484 481 341
3 484 341 346
3 346 348 484
3 484 348 485
3 487 349 486
3 349 483 486
3 349 345 483
3 488 487 486
3 351 485 348
3 351 489 485
3 487 352 349
3 491 490 354
3 491 354 352
3 488 491 352
3 487 488 352
3 492 490 491
3 493 489 351
3 493 351 355
3 355 357 493
3 493 357 494
3 490 358 354
3 496 495 360
3 496 360 358
3 492 496 358
3 490 492 358
3 497 495 496
3 361 494 357
3 361 498 494
3 495 362 360
3 497 499 495
3 499 362 495
3 499 363 362
3 501 500 364
3 363 501 364
3 499 501 363
3 502 500 501
3 361 365 503
3 504 361 503
3 498 361 504
3 367 503 365
3 500 368 364
3 502 505 500
3 505 368 500
3 505 369 368
3 370 369 505
3 370 505 506
3 504 503 507
3 504 507 508
3 371 507 367
3 367 507 503
3 509 373 374
3 375 509 374
3 506 510 370
3 370 510 376
3 512 511 377
3 376 512 377
3 510 512 376
3 513 511 512
3 516 515 514
3 518 517 514
3 518 514 515
3 520 519 517
3 520 517 518
3 522 521 519
3 522 519 520
3 521 522 508
3 507 521 508
3 523 521 507
3 379 523 371
3 371 523 507
3 524 380 509
3 509 380 373
3 382 525 375
3 525 509 375
3 525 524 509
3 384 525 382
3 511 385 377
3 513 526 511
3 526 385 511
3 526 386 385
3 514 527 388
3 526 514 388
3 386 526 388
3 516 514 526
3 390 527 389
3 527 517 389
3 527 514 517
3 389 517 392
3 517 528 392
3 517 519 528
3 529 519 521
3 528 519 529
3 395 529 394
3 529 523 394
3 529 521 523
3 394 523 379
3 530 398 524
3 524 398 380
3 531 524 525
3 530 524 531
3 399 531 384
3 384 531 525
3 527 401 388
3 401 527 390
3 528 403 392
3 403 528 405
3 405 528 529
3 408 405 532
3 405 529 532
3 395 406 532
3 395 532 529
3 409 533 406
3 406 533 532
3 398 530 409
3 530 533 409
3 530 534 533
3 531 536 535
3 534 531 535
3 530 531 534
3 538 536 537
3 537 536 413
3 536 531 413
3 531 399 413
3 415 537 413
3 539 417 418
3 532 419 408
3 419 540 420
3 540 419 541
3 532 541 419
3 541 532 542
3 533 542 532
3 542 544 543
3 544 540 543
3 422 543 540
3 543 422 534
3 420 534 422
3 534 420 544
3 544 533 534
3 542 533 544
3 544 420 540
3 543 534 535
3 545 538 537
3 545 537 415
3 425 545 415
3 546 545 425
3 546 425 417
3 547 546 417
3 539 547 417
3 546 547 548
3 540 541 430
3 541 429 430
3 541 549 429
3 540 430 422
3 548 547 436
3 435 548 436
3 550 548 435
3 437 429 551
3 429 552 551
3 429 549 552
3 551 439 437
3 441 550 435
3 441 553 550
3 552 554 551
3 551 554 439
3 554 442 439
3 554 555 442
3 557 556 444
3 442 557 444
3 555 557 442
3 558 556 557
3 445 553 441
3 445 559 553
3 561 560 448
3 448 560 447
3 562 448 449
3 562 561 448
3 563 449 451
3 563 562 449
3 564 451 452
3 564 563 451
3 452 454 564
3 564 454 565
3 567 566 456
3 456 566 455
3 456 447 560
3 456 560 567
3 568 565 454
3 568 454 457
3 570 569 458
3 569 457 458
3 569 568 457
3 570 571 569
3 573 572 461
3 461 572 460
3 461 455 566
3 461 566 573
3 462 570 458
3 574 571 570
3 462 574 570
3 463 574 462
3 576 575 464
3 575 463 464
3 575 574 463
3 576 577 575
3 578 466 467
3 579 578 467
3 460 579 467
3 572 579 460
3 469 576 464
3 580 577 576
3 469 580 576
3 470 580 469
3 470 472 580
3 580 472 581
3 582 473 578
3 578 473 466
3 578 579 583
3 584 578 583
3 582 578 584
3 585 584 583
3 586 581 472
3 586 472 474
3 474 475 586
3 586 475 587
3 582 476 473
3 476 582 478
3 478 582 584
3 589 588 479
3 589 479 478
3 585 589 478
3 584 585 478
3 590 588 589
3 591 587 475
3 591 475 480
3 480 481 591
3 591 481 592
3 588 482 479
3 594 593 483
3 594 483 482
3 590 594 482
3 588 590 482
3 595 593 594
3 596 592 481
3 596 481 484
3 484 485 596
3 596 485 597
3 593 486 483
3 488 486 593
3 595 488 593
3 598 488 595
3 489 600 599
3 597 489 599
3 485 489 597
3 600 601 599
3 598 602 488
3 488 602 491
3 604 603 492
3 491 604 492
3 602 604 491
3 605 603 604
3 493 600 489
3 493 494 600
3 494 601 600
3 494 606 601
3 603 496 492
3 608 607 497
3 608 497 496
3 605 608 496
3 603 605 496
3 610 609 607
3 610 607 608
3 611 609 610
3 498 606 494
3 498 612 606
3 607 499 497
3 499 607 501
3 501 607 609
3 614 613 502
3 614 502 501
3 611 614 501
3 609 611 501
3 615 613 614
3 504 612 498
3 504 616 612
3 613 505 502
3 618 617 506
3 618 506 505
3 615 618 505
3 613 615 505
3 619 617 618
3 622 621 620
3 624 623 620
3 624 620 621
3 626 625 623
3 626 623 624
3 626 616 625
3 616 508 625
3 616 504 508
3 617 510 506
3 619 627 617
3 627 510 617
3 627 512 510
3 629 628 513
3 512 629 513
3 627 629 512
3 515 516 628
3 629 515 628
3 630 515 629
3 620 518 622
3 518 630 622
3 518 515 630
3 518 620 520
3 520 620 623
3 520 623 522
3 522 623 625
3 522 625 508
3 628 526 513
3 526 628 516
3 631 535 536
3 538 631 536
3 632 541 542
3 543 633 542
3 542 633 632
3 535 631 543
3 631 633 543
3 631 634 633
3 634 631 538
3 635 634 538
3 545 635 538
3 636 634 635
3 638 635 637
3 635 546 637
3 635 545 546
3 548 637 546
3 639 549 632
3 632 549 541
3 640 632 633
3 639 632 640
3 634 642 641
3 640 634 641
3 633 634 640
3 642 634 636
3 643 638 637
3 637 548 643
3 548 644 643
3 548 550 644
3 645 552 639
3 639 552 549
3 646 639 640
3 645 639 646
3 640 641 647
3 648 640 647
3 646 640 648
3 649 648 647
3 553 644 550
3 553 650 644
3 645 554 552
3 554 645 555
3 555 645 646
3 555 646 557
3 557 646 648
3 652 651 558
3 652 558 557
3 649 652 557
3 648 649 557
3 654 653 651
3 654 651 652
3 654 650 653
3 650 559 653
3 650 553 559
3 657 656 655
3 659 658 655
3 655 658 657
3 659 660 658
3 663 662 661
3 663 661 656
3 656 661 655
3 661 560 655
3 560 561 655
3 655 561 562
3 655 562 659
3 664 660 659
3 562 664 659
3 563 664 562
3 665 563 564
3 665 664 563
3 564 565 665
3 665 565 666
3 661 662 567
3 662 566 567
3 662 667 566
3 661 567 560
3 668 666 565
3 668 565 568
3 669 568 569
3 669 668 568
3 671 670 571
3 670 569 571
3 670 669 569
3 671 672 670
3 673 572 573
3 674 673 573
3 566 674 573
3 667 674 566
3 574 671 571
3 675 672 671
3 574 675 671
3 575 675 574
3 575 577 675
3 675 577 676
3 677 579 673
3 673 579 572
3 673 674 678
3 673 678 677
3 679 676 577
3 679 577 580
3 580 581 679
3 679 581 680
3 677 583 579
3 682 681 585
3 682 585 583
3 678 682 583
3 677 678 583
3 683 681 682
3 684 680 581
3 684 581 586
3 586 587 684
3 684 587 685
3 681 589 585
3 590 589 681
3 683 590 681
3 686 590 683
3 687 685 587
3 687 587 591
3 591 592 687
3 687 592 688
3 686 689 590
3 590 689 594
3 595 594 689
3 595 689 690
3 691 688 592
3 691 592 596
3 596 597 691
3 691 597 692
3 694 598 693
3 598 690 693
3 598 595 690
3 696 695 694
3 696 694 693
3 697 695 696
3 597 599 698
3 699 597 698
3 692 597 699
3 601 698 599
3 694 602 598
3 602 694 604
3 604 694 695
3 701 700 605
3 701 605 604
3 697 701 604
3 695 697 604
3 703 702 700
3 703 700 701
3 705 704 702
3 705 702 703
3 706 704 705
3 699 698 707
3 699 707 708
3 606 707 601
3 601 707 698
3 700 608 605
3 608 700 610
3 610 700 702
3 610 702 611
3 702 709 611
3 702 704 709
3 704 706 710
3 711 704 710
3 709 704 711
3 712 711 710
3 708 707 713
3 708 713 714
3 612 713 606
3 606 713 707
3 709 614 611
3 614 709 615
3 709 715 615
3 709 711 715
3 711 712 716
3 711 716 715
3 719 718 717
3 717 718 714
3 713 717 714
3 720 717 713
3 616 720 612
3 612 720 713
3 715 618 615
3 722 721 619
3 722 619 618
3 716 722 618
3 715 716 618
3 724 723 721
3 724 721 722
3 726 725 723
3 726 723 724
3 621 622 725
3 726 621 725
3 727 621 726
3 717 624 719
3 624 727 719
3 624 621 727
3 624 717 626
3 626 717 720
3 626 720 616
3 721 627 619
3 627 721 629
3 629 721 723
3 629 723 630
3 630 723 725
3 630 725 622
3 728 636 635
3 638 728 635
3 729 641 642
3 636 728 642
3 728 729 642
3 728 730 729
3 643 731 638
3 731 728 638
3 731 730 728
3 644 731 643
3 729 647 641
3 647 729 649
3 729 732 649
3 729 730 732
3 733 730 731
3 732 730 733
3 650 733 644
3 644 733 731
3 732 652 649
3 652 732 654
3 654 732 733
3 654 733 650
3 735 734 657
3 657 734 656
3 736 657 658
3 736 735 657
3 738 737 660
3 737 658 660
3 737 736 658
3 738 739 737
3 741 740 663
3 663 740 662
3 663 656 734
3 663 734 741
3 664 738 660
3 742 739 738
3 664 742 738
3 665 742 664
3 744 743 666
3 743 665 666
3 743 742 665
3 744 745 743
3 740 667 662
3 746 667 740
3 668 744 666
3 747 745 744
3 668 747 744
3 669 747 668
3 748 669 670
3 748 747 669
3 670 672 748
3 748 672 749
3 746 674 667
3 750 674 746
3 751 749 672
3 751 672 675
3 753 752 676
3 752 675 676
3 752 751 675
3 753 754 752
3 756 678 755
3 678 750 755
3 678 674 750
3 757 756 755
3 679 753 676
3 759 758 680
3 680 758 679
3 758 754 679
3 754 753 679
3 759 760 758
3 756 682 678
3 683 682 756
3 757 683 756
3 761 683 757
3 684 759 680
3 684 685 759
3 685 760 759
3 685 762 760
3 764 686 763
3 686 761 763
3 686 683 761
3 765 764 763
3 766 762 685
3 766 685 687
3 687 688 766
3 766 688 767
3 764 689 686
3 769 768 690
3 769 690 689
3 765 769 689
3 764 765 689
3 770 768 769
3 773 772 771
3 775 774 771
3 775 771 772
3 777 776 774
3 777 774 775
3 778 776 777
3 779 767 688
3 779 688 691
3 691 692 779
3 779 692 780
3 768 693 690
3 770 781 768
3 781 693 768
3 781 696 693
3 783 782 697
3 696 783 697
3 781 783 696
3 785 784 782
3 785 782 783
3 784 785 773
3 771 784 773
3 786 784 771
3 787 771 774
3 786 771 787
3 788 774 776
3 787 774 788
3 776 778 789
3 776 789 788
3 699 780 692
3 699 790 780
3 782 701 697
3 701 782 703
3 703 782 784
3 703 784 705
3 705 784 786
3 705 786 706
3 786 791 706
3 786 787 791
3 792 787 788
3 791 787 792
3 788 789 793
3 788 793 792
3 796 795 794
3 795 790 794
3 790 708 794
3 790 699 708
3 791 710 706
3 710 791 712
3 791 797 712
3 791 792 797
3 792 793 798
3 792 798 797
3 801 800 799
3 799 800 796
3 794 799 796
3 802 799 794
3 714 802 708
3 708 802 794
3 803 716 797
3 797 716 712
3 797 798 804
3 805 797 804
3 803 797 805
3 807 806 805
3 807 805 804
3 806 807 801
3 799 806 801
3 808 806 799
3 719 808 718
3 808 802 718
3 808 799 802
3 718 802 714
3 803 722 716
3 722 803 724
3 724 803 805
3 724 805 726
3 726 805 806
3 726 806 727
3 727 806 808
3 727 808 719
3 810 809 735
3 735 809 734
3 811 735 736
3 811 810 735
3 812 736 737
3 812 811 736
3 737 739 812
3 812 739 813
3 814 740 741
3 815 814 741
3 734 815 741
3 809 815 734
3 739 742 816
3 817 739 816
3 813 739 817
3 743 818 742
3 742 818 816
3 745 818 743
3 819 746 814
3 814 746 740
3 814 815 820
3 814 820 819
3 817 816 821
3 817 821 822
3 823 816 818
3 821 816 823
3 747 824 745
3 824 818 745
3 824 823 818
3 824 747 825
3 747 826 825
3 747 748 826
3 748 749 826
3 826 749 827
3 828 750 819
3 819 750 746
3 819 820 829
3 830 819 829
3 828 819 830
3 831 830 829
3 832 822 821
3 832 821 823
3 832 823 833
3 835 834 833
3 823 835 833
3 824 835 823
3 824 825 836
3 837 824 836
3 835 824 837
3 838 837 751
3 837 827 751
3 827 749 751
3 827 837 836
3 752 839 751
3 751 839 838
3 754 839 752
3 828 755 750
3 755 828 757
3 828 840 757
3 828 830 840
3 830 831 841
3 830 841 840
3 834 835 842
3 834 842 843
3 844 835 837
3 842 835 844
3 845 837 838
3 844 837 845
3 846 838 839
3 845 838 846
3 758 847 754
3 847 839 754
3 847 846 839
3 760 847 758
3 848 761 840
3 840 761 757
3 840 841 849
3 850 840 849
3 848 840 850
3 852 851 850
3 852 850 849
3 853 851 852
3 843 842 854
3 843 854 855
3 856 842 844
3 854 842 856
3 857 844 845
3 856 844 857
3 858 845 846
3 857 845 858
3 859 846 847
3 858 846 859
3 762 859 760
3 760 859 847
3 848 763 761
3 763 848 765
3 848 860 765
3 848 850 860
3 861 850 851
3 860 850 861
3 851 853 862
3 863 851 862
3 861 851 863
3 865 864 863
3 865 863 862
3 864 865 855
3 854 864 855
3 866 864 854
3 867 854 856
3 866 854 867
3 868 856 857
3 867 856 868
3 869 857 858
3 868 857 869
3 870 858 859
3 869 858 870
3 766 871 762
3 871 859 762
3 871 870 859
3 767 871 766
3 860 769 765
3 769 860 770
3 860 872 770
3 860 861 872
3 873 861 863
3 872 861 873
3 874 863 864
3 873 863 874
3 773 874 772
3 874 866 772
3 874 864 866
3 772 866 775
3 775 866 867
3 775 867 777
3 777 867 868
3 777 868 778
3 868 875 778
3 868 869 875
3 876 869 870
3 875 869 876
3 877 870 871
3 876 870 877
3 779 878 767
3 878 871 767
3 878 877 871
3 780 878 779
3 872 781 770
3 781 872 783
3 783 872 873
3 783 873 785
3 785 873 874
3 785 874 773
3 879 789 875
3 875 789 778
3 880 875 876
3 879 875 880
3 881 876 877
3 880 876 881
3 882 877 878
3 881 877 882
3 790 882 780
3 780 882 878
3 883 793 879
3 879 793 789
3 884 879 880
3 883 879 884
3 885 880 881
3 884 880 885
3 796 885 795
3 885 882 795
3 885 881 882
3 795 882 790
3 886 798 883
3 883 798 793
3 887 883 884
3 886 883 887
3 801 887 800
3 887 885 800
3 887 884 885
3 800 885 796
3 886 804 798
3 804 886 807
3 807 886 887
3 807 887 801
3 889 888 810
3 810 888 809
3 891 889 890
3 889 811 890
3 889 810 811
3 812 892 811
3 811 892 890
3 813 892 812
3 894 815 893
3 815 888 893
3 815 809 888
3 894 893 891
3 890 894 891
3 895 894 890
3 896 890 892
3 895 890 896
3 817 896 813
3 813 896 892
3 897 820 894
3 894 820 815
3 898 894 895
3 897 894 898
3 899 895 896
3 898 895 899
3 822 899 817
3 817 899 896
3 900 825 826
3 827 900 826
3 897 829 820
3 829 897 831
3 897 901 831
3 897 898 901
3 902 898 899
3 901 898 902
3 832 903 822
3 903 899 822
3 903 902 899
3 833 904 832
3 832 904 903
3 834 904 833
3 900 836 825
3 836 900 827
3 905 841 901
3 901 841 831
3 906 901 902
3 905 901 906
3 907 902 903
3 906 902 907
3 908 903 904
3 907 903 908
3 843 908 834
3 834 908 904
3 905 849 841
3 849 905 852
3 852 905 906
3 852 906 853
3 906 909 853
3 906 907 909
3 910 907 908
3 909 907 910
3 855 910 843
3 843 910 908
3 909 862 853
3 862 909 865
3 865 909 910
3 865 910 855