OFF
1312 2574 0
1.5988182150 9.8710654761 2.2098041054
1.6636078531 9.9107233564 1.8839639439
2.0003494860 9.5618954380 2.0925370184
1.8057053605 9.7724122608 2.5728686882
1.5270294832 10.1069931758 2.1084830300
1.6105450029 10.1596933762 1.9068459215
1.6409743129 10.1653411267 2.5633532454
1.7549560717 10.4705479764 2.2032123664
1.5013440820 14.0030414539 5.1972951420
1.5797937912 14.0460780102 4.8659992874
1.5714246459 13.5901913194 4.9759700456
1.6096632599 13.6749365813 5.3351047001
1.5334128914 14.3451527842 5.1560895954
1.6605177635 14.5142221263 4.9182451859
1.7620407573 14.2971439316 5.5277634723
1.7209395314 14.6698497274 5.1847159044
2.0052392858 9.7477990149 1.6650426867
2.3684477091 9.8264737300 1.4511427895
2.5345412974 9.4643221749 1.6452228054
2.8321054210 9.0804716737 2.2227117435
2.3376005886 9.4312902195 2.8085108077
2.0234514435 10.0520624144 3.2998770239
2.6371020629 9.5149942158 3.6137767901
1.9706110061 10.1450136395 1.6893033991
2.6823858761 10.1894512479 1.4554212902
1.8300552421 10.8392396912 3.1458115560
2.4447028502 10.0482716833 4.2166210127
2.0544118041 10.8199434579 4.2705701226
2.4060009513 10.4941961359 4.8637501110
2.3774528459 10.7240937216 1.8978575060
2.0448696302 11.0987955629 2.5165585348
2.4420021397 11.2592422005 2.2808552681
2.0174035699 11.6282570481 3.2269220910
1.8795796802 11.7043873826 4.1133248101
2.2179352465 11.0224127269 5.1343512209
2.0009482008 11.7586085772 5.1517435032
2.2502125148 11.4149171428 5.6845291209
2.2889866982 11.5662122094 2.6934981595
2.4574172489 12.1136832891 3.1519255910
2.0166963318 12.4274774392 3.9172425684
2.4811148767 12.8850008831 3.6785889298
1.7852855459 12.8456354693 4.9702141465
2.1657695764 11.9801822646 5.9353892867
2.0286163015 12.6639920365 5.8416331978
2.2815821093 12.4623239159 6.4235228691
1.8853652531 13.4044150694 4.4199238476
2.3711346636 13.6775707822 4.0739304628
1.9037946397 13.6034741486 5.8148216116
2.3423105151 13.3350110735 6.5223607706
1.9750570971 14.3006624670 4.5172500348
2.6225172119 14.3033179783 4.1829966675
2.0168493566 14.1878033536 5.9280494101
2.2544729301 14.0331520811 6.2220694385
2.3062305313 14.8387717515 4.4772090904
2.7761399447 14.9352650214 4.3697634088
2.0174704623 14.9134129352 4.8741248788
2.1081372777 14.9010594875 5.3576400757
2.3921633667 14.5840950031 5.9238784414
2.4878903797 15.2144486631 4.6744587574
2.3927836921 15.2211647998 5.0518519670
3.3516008651 8.6971066209 2.5084088912
3.4679419577 8.7650503188 2.0759935969
3.8994076224 8.5056208741 2.4332040709
3.6743628809 8.5359259625 2.8529998140
3.0448108652 9.6990136120 1.3671643296
3.4548849812 9.1498878121 1.6373661636
3.2465319582 8.8931793500 3.2027878555
3.1637051586 9.2277333824 3.9709202448
3.4841988158 10.1059472746 1.3645236568
2.8903837220 9.6006139192 4.2843649141
2.9000677961 9.9464286138 5.0433220051
2.5762253760 10.7561587274 5.7115599760
3.1197474325 10.0765116098 6.1148919701
2.8276459991 10.8386062220 6.7632173962
3.2485714334 10.1374172431 7.1408988152
2.9707542524 10.8721822859 7.7673155964
3.3035612270 10.1991385212 8.1251259975
3.0543243699 10.8759348303 8.6947482010
3.2960972234 10.3146524474 8.8887515295
3.1991574239 10.9867293213 12.8379706069
3.2002126802 10.7220037800 11.9762446572
3.4226457554 10.2410835186 12.4222410637
3.7376791469 10.1084802314 13.3997357828
3.3824498897 10.9196232683 13.6277152671
3.7308195506 10.6667811794 14.1285183227
3.2020897308 10.6164565899 1.6594115321
2.7601010457 11.6370789050 2.5544191371
2.9936512158 11.1443659299 2.0931322813
3.3712661095 11.5191973150 2.4529680399
2.4587702004 11.6694019644 6.4630710755
2.7158901379 11.6882165152 7.4876166749
2.8519692623 11.6561945866 8.5129768901
3.1456641177 10.7546926805 9.3726993528
2.9500469664 11.5463695508 9.6120478098
3.1509112326 10.8577878635 10.1634431530
2.9618509971 11.6571514981 10.8220138287
3.1659951541 10.8325468249 11.1532156176
2.9869840205 11.5942860849 11.9869232214
2.9873629272 11.8661169006 12.9270134465
3.1581489518 11.6325495597 13.5732904972
3.4777610057 11.3639060286 14.2064908266
3.2010595115 12.1106428160 2.9625431197
2.7558929361 12.4635808869 3.2597668629
2.5836434266 12.6666378313 7.2048797416
2.7907092232 12.5398047193 8.2508086310
2.8694041690 12.5003255139 9.3223014406
2.8899744406 12.5350369176 10.4627093478
2.8859818685 12.5669670319 11.6051092663
2.9089528540 12.5925298047 12.6489393774
3.0524804261 12.5954089999 13.6112400984
3.3136748679 12.1891264947 14.2401641407
3.0102875603 12.6875361710 3.3631379004
3.2260120246 13.3193951018 3.7559966975
2.7621317995 13.5564909220 7.1974716452
2.9366786171 13.3977119545 7.9580459173
3.0128851972 13.3492267927 8.9818705134
2.9975081745 13.3759664292 10.0967228640
2.9797066024 13.5384489094 11.3092508360
2.9502239440 13.4564442421 12.3875532554
3.0290421229 13.4473991308 13.3258506674
3.2836397216 12.9176279441 14.3268607724
3.2209951555 13.4741535848 14.1003654718
3.5669799214 13.4830056688 14.6814960216
3.4545713256 14.3190714936 4.2449426675
3.2124171537 14.0822970611 7.5170785000
2.8283039758 14.1886799654 6.6592991647
3.4065396207 14.1412171288 8.5140429722
3.3011844964 14.1199028919 9.6914278285
3.2047528294 14.1824903577 10.7526472609
3.1778491389 14.3380443989 11.5475459281
3.1285992043 14.2400149728 12.2092238400
3.3542150038 14.8071121978 12.0099291973
3.1983810313 14.2303318096 13.0836057746
3.3315493059 14.1524997062 13.8891864853
3.5268464263 14.0149269902 14.4429743978
3.1854036223 15.0092238326 4.4708597705
3.3164266176 14.8271975598 6.0631935346
2.7118496791 15.1057304647 5.4350816730
3.4712237982 14.9304095735 12.7331173625
3.7335996665 14.9265115357 13.6883473714
3.7620637790 14.5182344578 14.3336580493
2.8713469921 15.2658622106 4.5759064952
2.8193821504 15.3188054264 4.9246252066
4.1607540214 8.7053286584 1.9265670807
4.7657138770 8.3706483118 2.4498604029
4.3633638937 8.3283313896 3.1071224508
3.8059466720 8.5214771193 3.1941620707
4.1068303461 8.5047930671 3.7184881101
3.9953605531 8.8163783795 10.8034741757
4.1231807251 8.6426405791 10.0002815111
4.3026114203 8.2252979191 10.4451474487
4.4006118943 8.0779113540 11.2445019036
4.1154971239 8.6959932480 11.8451102459
4.7502491520 7.9284967366 12.4197455886
4.2942952216 8.7288070896 12.7907638692
4.7526741932 8.3222979415 13.2076758851
4.0646047874 9.5922663858 1.3705968384
4.4663639032 9.0725236485 1.5329317076
3.7315224070 8.8734687874 4.1901918200
3.3804492022 9.3241821762 4.6707988132
4.0086679185 8.9014098477 5.0926245435
3.5447991320 9.4303887502 5.5738826481
4.1480420379 8.9102472615 6.0599763186
3.6588305174 9.4794679310 6.5816853229
4.1929560721 8.8907955885 7.0835372844
3.7018491595 9.5131458711 7.6235050411
4.1812981261 8.8441220603 8.1527185030
3.6759003643 9.5958979977 8.7659219608
4.1432972627 8.7636134320 9.1998561881
3.7671125449 9.3788479756 9.9337190631
3.6658433581 9.5260204783 10.8295021119
3.7704254958 9.2919311816 11.4651634319
3.7888758740 9.4643843468 12.3844514812
4.6330490475 8.7836222404 13.6102697218
4.1063229239 9.2857091860 13.2392049690
4.3919709562 9.4363974659 13.9485738215
4.2152910672 10.0692171321 1.4456464749
3.8839779032 10.4471163986 1.5868443297
4.6109331484 10.3933472966 1.7919292530
3.3980943478 10.1783195327 9.5872064285
3.4215865429 10.1387099733 10.5152043392
3.4594188446 10.0244155136 11.5253763082
4.4069660969 10.0842775448 14.5463258048
4.0043782346 11.0202049071 14.8154150176
4.4896365050 10.5930325396 15.1400606933
3.9888600524 10.9896464054 2.1291919510
3.9568863215 11.6619103256 2.7332188507
3.7210537956 11.9072256799 14.8173515871
4.4061999836 11.0418629448 15.3460414216
4.2305852871 11.6639272233 15.3540220950
4.7773040267 11.2877072184 15.7077376639
3.8821867981 12.1479998848 3.1020668829
3.5093573640 12.5689380973 3.3096360544
4.2600340751 12.5140046051 3.4862121678
3.6054024611 12.7407318288 14.8041838808
4.0755368365 12.5098153001 15.3224072369
4.7254930522 12.2499998604 15.8450450554
4.3647827851 13.3528754309 4.0323992158
4.0327644008 13.3331741232 15.1871034190
4.4570141908 13.0685039620 15.6133689245
4.5052835658 14.0541266239 4.5686206908
3.7409969430 14.8029327976 4.7923952724
4.4737561960 14.5519671312 5.0865713132
3.7635545439 14.5240089029 7.7476719788
3.5955366209 14.5801868701 6.9770590570
3.9096822481 14.6786216213 8.3744258209
4.2233867211 14.8513484643 7.8597737387
3.8165594963 14.8409319384 9.3143481000
3.5566513753 14.8285816463 10.4355151576
3.4369963421 14.8637345206 11.3432108888
4.6846769044 13.8142484651 15.4744406005
4.1151926106 14.1783731243 14.8790124973
3.1856841958 15.2130964818 4.7428599651
4.1247241675 14.8644594856 5.6159107351
3.3225519644 15.1161826738 5.2339576211
4.1872873592 14.8876095586 6.5926996298
4.3275667587 15.1070087332 8.4904697271
4.3232706940 15.5338456977 9.3738167337
3.9954499699 15.5576218666 10.3184344377
4.3588269460 16.0124982071 10.0335545222
3.7403347836 15.3939552394 11.1089280763
3.7756402528 15.5650186684 12.0617057151
3.9756598430 15.6258781932 13.1043242997
4.3908600393 15.6888976211 13.8650948801
4.4304065682 15.0612401848 14.4769908477
4.2553998425 16.1985966131 10.6185509294
4.0661838536 16.0761438387 11.2709889126
4.3681486781 16.5990706276 11.0514458950
4.1679435735 16.3319891772 11.9877693795
4.2592611720 16.2817901787 12.6685715297
4.4650407517 16.2077505750 13.3732257903
4.3400093788 16.6653963240 11.5910022215
6.0168559258 4.1480998630 7.6410239857
6.1539720542 4.1024420026 7.5335901714
6.2317891102 3.9379375878 7.6689484585
6.1083364901 4.3683034864 7.9550648062
6.0266135172 4.2776529015 7.6533725756
5.1618003170 6.8017748755 10.6979357170
5.2956436351 6.6128637823 9.8448249049
5.5605356593 6.1712574781 10.3189856426
5.8330729073 6.0396802943 11.2893587478
5.3618307971 6.7116771027 11.7337915727
5.7969892654 6.3458568824 12.0613912296
4.9294898371 7.3207901635 9.6537883981
5.1127631875 7.3187797039 8.8400036701
5.2929567574 6.8219264845 9.2358341842
4.6507567095 7.6186035045 10.5333392495
4.8573683119 7.3560578621 11.4796708506
5.7578006676 6.7390847141 12.5515439641
5.1754492505 7.1889839729 12.2406604553
5.4799277963 7.3431116310 12.9590159621
5.2103415829 8.6988529887 1.9052011630
5.7723135974 8.2278654824 2.4635186128
5.4606175811 8.0707358019 3.1916749923
5.1176705754 8.1217062557 4.1232517950
4.4762462679 8.4768323519 4.6132086700
5.1600277687 8.1190138594 5.0823049692
4.6773279717 8.4341556191 5.5575175194
5.4546552163 7.8801075706 6.0055206501
4.7535962322 8.3521528982 6.5558928235
5.3286843717 7.7208171385 7.0757343758
4.7175215343 8.2435236549 7.6018891861
5.1968326496 7.5288808692 8.0597512122
4.6730210866 8.0277394717 8.7369307062
4.4588440436 8.0896229644 9.7424001290
5.4057231343 7.9041806464 13.5414805157
4.9717080758 8.3498930094 13.6188438588
5.2856481682 8.4556285371 14.0501447988
4.8314810099 9.3697007644 1.4142860993
5.1919831572 9.1114438213 1.5542694942
4.9946769582 9.0208871506 14.2997405233
4.7727361071 9.4622121309 14.4666869750
5.4264896814 9.4014242611 14.9603296471
5.0930720699 9.7748804065 1.6282597412
5.3741175430 10.2794313870 2.0454686187
5.0722579108 10.2114794503 15.3121427949
4.7836032107 10.7451291848 15.5043397948
5.3429403347 10.6878651325 15.7839013088
5.1159209404 10.7414916319 2.3519563037
4.4300680449 11.8830154461 3.0854162323
4.7968634153 11.3329116276 2.7798889227
5.1431903298 11.8090414320 3.3470856113
5.3722168596 11.3563664162 16.0793955995
5.2302303676 12.4975490456 3.8791023667
5.1819952881 11.9614845009 16.1443090913
4.9818452992 12.7110083396 16.0781369242
5.1351906761 13.1092433936 4.2155111789
4.8757489129 13.4998540965 4.3371882150
5.5931445959 13.3983097278 4.6788139526
5.1164433538 13.2453626735 16.0797843471
4.9739478661 13.2903831877 15.9078821528
4.8544726741 14.6394324098 5.5463048816
5.1997030151 14.2060719709 5.1591854448
5.5648298191 14.5462719797 5.8255927367
4.1550142174 14.8121359745 7.3099859938
5.5812217899 14.1095324102 15.7473149267
5.1523163351 14.7235113873 15.1758662758
4.9211551880 14.8820416608 6.2484493392
4.8644010367 15.2013201959 7.4709935909
4.7873610777 15.6728463342 8.6288954161
4.6989877911 16.1491146335 9.4807464374
5.1592201508 16.3284388025 8.8841243793
5.1918216236 15.4403121742 14.7853381187
4.9037526788 15.7575689229 14.3768908051
5.0058619862 16.8253364304 9.6364243931
5.3633506321 16.9340199859 9.1188548573
4.6100590118 16.6608527679 10.3664193992
4.5215416420 16.8824922133 12.1926186780
4.8005303865 16.9253272920 13.0879886183
5.0133863427 16.4496896408 13.9813384731
5.2750762734 17.3832092110 9.6233399217
5.0542713508 17.5487718664 10.3907729501
5.4708939083 18.0338950825 9.8706329354
4.7006835794 17.2132905674 11.3401871996
4.9962385816 17.6583853159 12.3406844934
5.1913937349 17.6341421148 13.1754778715
5.2717439879 17.2623948716 13.7394588486
5.3817041093 18.3354610236 10.5493989442
5.7095634948 18.6819925110 10.1924024157
5.2303269987 18.1946470808 11.3912322650
5.3633388367 18.3804128006 12.2817104726
5.3541454316 18.1413652971 12.8940011668
5.7461929985 18.9705417943 10.9778404440
5.6864714860 18.9118810186 11.9319089959
6.4124819693 3.6894287005 7.5377862830
6.3910090391 3.7984044392 7.4536239052
6.5883809130 3.6342524142 7.4936538990
6.6606251785 3.7528699435 7.7653416294
6.5214812221 4.0966742093 7.4718588523
6.4784069089 4.1007773666 8.1758234800
6.3237026210 4.5767509083 8.6738605616
6.8433014714 4.2668852414 8.8227776593
6.2517696394 4.5375576775 7.7318825135
6.0956733678 5.1334324629 8.4296845038
6.4816418849 5.2720284195 7.8395493907
6.6322246186 4.6024513862 9.3281587959
6.2108665808 5.0960490076 9.3937134574
6.8058024927 4.7960267947 10.1927068742
6.0678849645 5.5210060706 10.3867608875
6.5640229009 5.2037131139 10.9278226917
6.2243539634 5.5251308252 11.0982786868
6.6989503226 5.4977072800 11.6384450232
6.0099110752 6.0495902398 8.2130433106
6.5709671467 6.0462702888 7.5832757030
5.7130795913 6.0234453132 9.3022427858
6.3164589741 6.0467343017 12.1769208769
6.0533338400 6.3543160513 12.4425063521
6.5709534391 6.3942325617 12.8823392015
6.0253417910 7.3072867085 6.6652274062
6.2092472430 7.4756476386 5.9864915384
6.6526311713 7.1239801929 6.3619292192
6.7198123841 6.6668611390 6.9820616658
5.8870530664 6.9001765168 7.5893073475
5.5160807535 6.7980375333 8.5409102672
6.2644394732 7.0155946845 13.3921726463
5.8173348967 7.4177312075 13.4853335499
6.2332993096 7.5062119182 13.9316424307
6.1485898890 8.5010783353 2.0875322472
6.5769173726 8.1388104003 2.4020031482
6.6567349686 7.8134946118 3.0954506669
6.2750861676 7.7809611294 4.0861702370
6.0357086225 7.7368366660 5.1426511487
6.2540584943 8.0946467768 14.4794365329
5.6311719188 8.7186445654 14.6031217389
6.2508528837 8.7733226458 15.0679440697
5.3203514192 9.3479750426 1.5222996797
6.1110172403 9.1437224842 1.8942981841
6.2696378828 9.2601199303 15.4247316683
5.8315545349 10.4751611963 2.4749133270
6.1722877759 9.9658080423 2.2682323767
6.3933428390 10.4027544772 2.7667945175
6.1105048008 9.8913490571 15.7016909779
5.9718341876 10.6697951551 16.0847385038
6.0133974327 10.9699167332 3.1014957269
5.9798736654 11.7437541882 3.7488847218
5.8877127941 11.0958796552 16.2649728276
5.9957038510 12.2416450610 4.1167273491
5.6831238657 12.7416433154 4.2722184370
6.4786647699 12.4542373363 4.5312014888
5.6460645886 11.4167316429 16.2713436075
6.7125855407 13.0917740181 5.0769065005
5.4398741457 13.6792127153 15.9966274424
6.2989426523 13.8976530140 5.4861597559
6.2686144028 14.5100081628 6.0756794874
6.5644161815 14.3301066986 15.8511245783
6.2344798546 14.8270591227 15.5340288258
6.1525191323 14.0329933214 15.9643330424
5.8511027830 15.0264077453 6.6372807721
5.8451199194 15.7403990809 7.5275425307
6.7705173836 15.4720633637 7.0451142317
5.3030261975 15.8969720963 8.1555680111
5.5433169624 16.1194574124 14.6906699348
5.9573840836 15.5080530784 15.1509408602
6.4555046867 16.2342171690 7.6496112696
5.8209174881 16.6536165048 8.3643974340
6.6775405418 16.9766248278 7.9887458762
5.7959192849 17.1815177865 14.5903943364
6.4009348772 16.4067568066 15.1903235334
6.2540818425 17.6543198281 8.6187892810
7.0106488698 17.8120009173 8.2478964390
5.6672919863 17.5393833641 9.1496806450
5.6297638013 18.1168053059 13.7845068695
5.9702058783 18.1142656371 14.6658727565
6.3955273958 17.1700864486 15.2494501099
6.2974105105 17.8259796231 15.1771875230
6.7936045081 17.5220535518 15.5327419655
6.5844582992 18.3293443565 8.7388006203
6.0881423361 18.5163904951 9.4089955128
6.8556695094 18.9810925300 9.0654390624
5.7265348956 18.7868074413 12.9140030154
5.9404407751 18.9233875841 13.7420760084
6.0454685846 18.7650032081 14.4350060957
6.3168021990 18.5859125303 15.0874414716
6.7629723364 18.2824926110 15.4981645638
6.5339191170 19.2744431983 9.6244558287
7.0429415996 19.5299068897 9.5244270206
6.2120730949 19.2792734590 10.2721686535
6.2472633714 19.5200004188 11.0120167228
6.1480623988 19.4470895207 11.6508332402
6.1438144695 19.3881855812 12.4746894372
6.2212546793 19.3808832637 13.3237469572
6.6059731798 19.7182088127 12.8986589828
6.3257886346 19.3544008300 14.1499624960
6.4440655000 19.2185827481 14.8736889077
6.7419538931 19.0033088396 15.3611314885
6.8884768639 19.7097414841 10.0956929997
6.7602459850 19.7949351687 10.8372446554
6.8520243421 19.7640420031 13.6723710205
6.8162781550 19.6254127664 14.5706055242
6.8175810326 19.4499232324 15.1319174284
6.7309999255 3.7676903267 7.4409440912
6.8569344387 3.6726006625 7.5748318500
7.1853333603 3.8684829256 7.8714903079
6.9268626321 4.0598027342 7.5032997135
7.0921819045 3.9871903266 8.3206215558
7.5148540564 4.1402652629 8.9421505019
7.4212581197 4.5168959885 10.5516089579
7.3920498589 4.4097191548 10.1168422198
7.8018443491 4.2873082023 10.3540377270
7.9938560355 4.3854274981 10.8531622922
6.8143218302 4.5655275632 7.6020019615
7.3373730460 5.2417042643 7.5937313788
7.2442632559 4.3552481198 9.5342696793
7.3365451236 4.8566432272 11.1424243046
7.7328538384 5.2121080244 12.0196469746
7.1582776956 6.0319263895 7.2799753621
7.4555137602 6.3331493917 6.9601186709
7.8487147072 5.8120701929 7.2577028568
7.2691050168 5.8304383671 12.5821936888
7.3858010684 6.2528115784 13.2258629129
7.3987500122 7.5163276908 3.3849518049
7.4008943670 7.6023172356 2.9425426986
7.9904932505 7.4160304590 3.2308246544
7.8050160988 7.3972494332 3.7321000562
6.8968379988 7.3095462790 5.7601091696
7.4731288727 6.8167661229 6.4152625663
7.1711441285 6.6806383060 13.6158519188
6.9811850164 7.2040324907 14.0954956657
6.7414965212 7.5884877227 14.3674205394
7.4858713583 7.6908150246 14.7782459715
7.1286871339 8.4182178435 2.1739010999
7.2723709601 7.8828814255 2.5469150747
7.3415884781 7.5237562373 4.0500322638
7.1101291647 7.4870399847 4.9459089881
7.0502525954 8.3885554911 15.1882535774
6.8741190326 8.9766401654 15.5303472451
7.6342097284 8.7285109365 15.6415553035
7.4928461053 8.9642099224 2.2342138076
6.6599342998 9.3805405806 15.6850715477
7.3420369359 9.4377855757 15.9250337104
7.1536907777 9.5231803407 2.4405695947
6.6938413456 10.5086629949 3.0910942844
7.1343123056 10.0973924408 2.9830953977
7.1128609766 10.6010159294 3.5110225424
6.7050327737 10.1374847456 16.0870429481
6.1977420591 10.7806240755 16.2505620292
6.5405073617 11.8288642413 4.1518416127
6.7942323837 11.2334630496 3.8573523356
7.3442265782 11.5687706894 4.4620719046
5.9777324294 11.1281757631 16.3257099330
7.4808540434 12.3238480748 5.0018586237
7.5664599591 12.9810172954 5.4432972389
6.9426082935 13.4177639938 5.4232593516
7.2432812711 13.6483505451 5.7502283925
7.1150145803 14.0367738936 16.0444948441
7.9117873798 13.7473973927 16.1537966502
7.6713802843 13.9307572904 16.0883612872
6.6756325234 14.7842578094 6.4689515417
6.9451355449 14.2442055824 6.0811885537
7.5415618496 14.6639669775 6.6037607077
6.9933174996 14.7426783762 15.7090584464
7.4500881211 14.2697062623 15.9190838360
7.8347896550 15.5259146489 7.1310049047
7.5821769757 14.7619603343 15.7100283466
7.2178980297 15.5295998858 15.5005344426
7.2522094734 16.3392123569 7.4736760554
7.4774285820 17.1223669564 7.7850925665
7.1113732858 16.4639221520 15.5093670612
6.7949408590 16.9194891209 15.4781917518
7.3025119228 17.0630281317 15.6324971791
7.6061563534 17.6689305447 8.0205956281
7.3422958561 17.8205664697 15.6667230229
7.0782221695 18.4929823153 8.5693913576
7.7717538749 18.2291081409 8.3211662674
7.3263599427 18.6835267966 15.5526393464
7.5165834123 18.8665570619 8.7376170625
7.6979122389 19.4297942314 9.2299422344
6.6002834009 19.7737097293 11.4485246877
6.6653572558 19.7759847986 12.1559698664
7.0966555340 19.2829064346 15.3731425985
7.6316195983 19.8620639932 9.8983795823
7.5712771925 20.0252782129 10.7043954541
7.3201415361 20.0073629386 11.6692574793
7.3019146990 19.9568680057 12.8102728660
7.4590490863 19.9361886650 13.5272365242
7.5314540736 19.7717312325 14.1945108606
7.2609276371 19.5533567461 14.9830534912
7.0539933089 3.8505188551 7.5723367110
7.3824994423 4.2955057426 7.7541658659
7.9325587370 4.1229052473 8.4539021434
8.2123856308 4.6609269917 7.9345544558
8.1009415119 4.0749773699 9.1436487165
7.8326000771 4.2086850179 9.8927709042
8.4868743900 4.0555019020 10.2851009607
8.6282246099 4.1823067490 11.0367567484
8.2900546472 5.2525217992 7.5770241462
7.8106124941 4.1629344427 9.4219107590
8.4908794125 4.5790709143 11.6174706250
8.5275983884 5.0736046254 12.2916301200
8.2107316186 6.2835252773 6.8391321552
8.7735738832 5.6801933574 7.2680470425
8.2714570271 5.5222727024 12.7121554294
8.0884884422 6.0158712051 13.2485649179
7.8600051915 6.4306817253 13.6654629138
8.6455422708 6.3642469388 13.8571500036
7.8587262550 7.6183420981 2.7230825024
8.1036328265 7.9385796335 2.4068418738
8.6043038529 7.5414618915 2.8669922244
8.6879636801 7.3330303667 3.4226421244
8.3891595695 7.3164665149 3.8260916672
8.0852744235 7.3714675859 4.2021861783
8.7750439995 7.3395793039 4.4483767852
7.8748860740 7.1602337512 5.6795489749
8.5633867263 6.7540264106 6.2975688038
7.9765068449 6.9209564241 14.2271521588
8.5274963239 7.3596562153 14.8254036683
8.1444032452 8.4675099753 2.2871843387
8.2050635022 7.3502058491 4.8963872562
7.7901209570 8.2286647554 15.3587456547
8.5249904728 7.9413081861 15.3212212073
8.3604800729 8.8843349558 2.5361140029
7.9134346690 9.2619579712 2.5682576938
8.4537351840 9.2082337906 2.8992418828
8.2469590109 8.4447393237 15.6331178951
8.4753415235 8.8909633523 15.9320856433
7.9678006919 9.6054223586 3.0149695116
7.5823203538 10.8391692428 4.0772079673
8.2579724351 10.0718122541 3.8719338049
8.2511709225 10.8638449230 4.5679714798
7.7148146814 9.7880448245 16.1991612907
8.4236952419 9.5196281205 16.2338203967
8.1656214606 11.5889520742 4.9687593348
8.2741232988 9.7759548575 16.3214845735
8.1846850782 12.1180684271 5.2539283097
7.9524346502 12.4802617018 5.3272457874
8.6190130321 12.5035997671 5.6459043892
7.6449229913 13.9701673279 6.1660636810
8.0875455817 13.3803199083 5.9410207324
8.4035652321 13.9980112053 6.4354127346
8.6540055793 13.4077467419 16.2150804588
8.3649908333 13.8102021065 16.0448530731
8.5609869951 14.7579872419 6.9310415771
8.0705372020 14.3793024929 15.8172004698
8.8078682427 14.2151842797 15.7784702778
8.2640914987 14.8881344545 15.6251168864
8.4972850568 15.3634621989 7.2140438973
8.3473676141 15.8181019006 7.3270029722
8.9208856528 15.6901623078 7.4250849586
8.6044961066 15.7378755076 15.4963093475
8.0023626231 16.3126161113 7.4229615707
7.6695618193 16.6772917077 7.5331997373
8.5711946344 16.1972614149 7.4875529030
7.7974117980 16.4416823266 15.5798819680
7.9413752533 17.2328332931 15.6422155323
7.9728365300 16.8557138267 7.6118689609
8.3087262534 17.3603444847 7.9086699583
7.9689285329 18.0207702501 15.5912792554
8.7076222286 18.1485510504 8.3267334780
8.0014850729 18.7210195731 15.3534621106
8.5357095635 18.1168457984 15.3764695965
8.7018272905 18.6240294624 15.0159412979
8.4956226644 18.8798700129 8.7905124958
8.5058757403 19.5294597446 9.3163673815
8.0081359157 19.3194230414 14.8280014170
8.8994544473 19.1547341258 14.4101267683
8.2912655229 19.6208043132 14.1433550615
7.5175701423 19.2031442828 15.3072067417
8.2559606615 19.8368164009 9.6881467049
8.6735839365 20.1384600278 10.4563852787
8.3891718412 20.1451994360 11.4575923807
8.0891540939 20.0710115838 12.3321298682
8.2549218785 19.8925025753 13.3259340393
8.9258120723 4.2747357328 8.4627931711
8.8259963001 3.9424162474 9.3223665765
9.5072009989 3.9132940991 8.8966292421
8.2406892061 4.0767353408 9.6130951666
9.2965902833 3.7096647516 10.1532140591
9.2775817982 3.8488196605 10.9327815715
8.9988948563 4.1556608058 11.3607817567
9.6843513239 4.0830162323 11.7290538790
9.3229003803 4.8425667906 7.8308759172
9.6706858781 4.1850627063 8.4064624008
9.2623375736 4.7873425891 12.3138397176
8.9793602307 5.2667400938 12.7240789305
9.7854667227 5.1638442396 12.9319088714
9.2470093996 6.2379677402 6.8135564428
9.8212601551 5.5797817233 7.2791124793
9.1079214867 5.7523710269 13.3151842237
9.7042134709 6.2624499675 14.0477542399
8.8239559952 7.8014972068 2.5232203692
9.3161129801 7.7289552929 2.8718042946
9.3600152964 7.4395299079 3.4123696457
9.1082310525 7.3288095806 3.9546865406
9.5529566398 7.4349165595 4.5957222806
8.9243721876 7.1349603182 5.6977255898
9.6190739408 6.7969959405 6.3102649428
9.1046514347 6.8498136107 14.4896271514
9.5116292615 7.4474102001 15.1410329428
8.7670471195 8.1139147980 2.4143454711
9.1141054975 7.9218753971 2.5512178873
9.2643627942 7.3612402021 5.1299404798
9.2871865438 8.0361459259 15.5652761883
8.7986724304 8.3755311670 15.7015385632
9.4252090125 8.4578932672 15.8856114459
8.7958895734 8.4925847022 2.5431030502
8.7223949416 9.3974832368 3.4534852163
9.1221778979 8.7918531780 3.1083785631
8.9390824975 9.5427844771 3.9259673549
9.3582322483 9.1533869526 3.8870650000
9.2649076790 9.6057662459 4.3649419672
9.3651428165 9.0076422019 16.1932987896
8.9763666518 11.0465314027 5.1340367003
9.0739764688 10.2599586573 4.7416734567
9.8252344612 10.4363922139 5.3281695199
9.0133368588 9.4405695298 16.3285311270
8.5999092390 9.6940095028 16.3529823804
8.7410851009 11.7454201670 5.3478585135
9.7967718211 11.5732521904 5.6996516071
9.6371867118 12.5664009241 5.9646782367
9.2234159063 13.1085427690 16.2625791403
9.8516777449 12.9292256272 16.2194990300
9.2507690049 13.2502856390 16.1710519986
9.0591680534 13.2766996746 6.1761635973
9.5352805416 14.1057321836 6.7326023970
9.3499736135 13.6090538113 15.9473262831
9.2678725249 14.7396710210 7.1013900621
8.9396079472 15.1212809140 7.2279653037
9.5237204925 15.2126354185 7.3700096853
9.5420270391 14.0007367897 15.7279161297
9.3515352408 14.7142602858 15.5521023139
9.4420145467 15.7454647610 7.5558457816
9.6463459497 15.4617266221 15.3969299660
8.4128673117 16.6607351791 7.6036312105
9.1919125292 16.4318792280 7.7253182455
8.4949489516 16.6545087165 15.5359676380
9.3866817774 16.4714847225 15.3544815372
9.4215970298 17.4356903026 8.1687891961
8.6310254791 17.3759898453 15.4861850111
9.3605825322 17.6631105174 15.1424283101
9.3427116554 18.1392850420 8.4557287281
9.0454879530 18.4832586798 8.5717750044
9.7402533524 18.5040742939 8.8838566615
9.4782123888 18.4484098144 14.6985739952
8.9713286638 19.8302487516 9.7902543004
9.2898216148 19.3107681691 9.3410526431
9.7079842124 19.6643765846 9.8483835550
8.8559125023 19.5663625286 13.8205259595
9.5023460256 19.2337242642 13.8852442089
9.3867321525 19.6199519533 13.2819485135
9.5907623610 18.8520076948 14.2984663788
9.5267034445 20.0628561366 10.3372823637
9.1349415848 20.2528099297 10.4868411470
9.2394874986 20.2911121386 10.7348796181
9.5336615627 20.1824625331 11.2626768995
9.2036056198 19.9798258704 12.3619453093
9.9406304390 3.4500277302 9.5933248151
10.6244653337 3.1719379988 9.1509214324
10.5879420155 3.0035734710 9.6509095466
10.6448407460 2.9461129985 10.2868591924
9.9284162704 3.4052403389 10.5493541731
10.4605415485 3.1801982707 10.9674365858
9.9840556267 3.5509520219 11.1860098145
10.6175396939 3.4242930857 11.5329226960
10.1498229723 3.7169310976 8.7750032460
10.4653645242 4.1152164640 8.1687848281
10.7634977012 3.4535133923 8.6085164651
10.7653545789 3.9025706734 12.1317959738
10.4740832687 4.9003992315 7.6266518011
10.2162436167 4.5362959543 12.4876066062
10.9191018576 4.9318242171 13.0980601975
10.5372848479 6.2551236084 6.8873519513
10.6515881620 5.4737428076 7.2880344137
10.3181378086 5.6448907591 13.5917782181
10.8402297548 6.1631231274 14.2714198673
9.7815583075 7.6449793846 3.3166471183
9.9240051584 7.5731155464 3.7058157763
9.7678743921 7.4797602315 4.0799606440
10.0892608334 7.6871779417 4.6647498117
9.8847742716 7.2812866942 5.7925735553
10.4806493511 7.0398809989 6.3434914110
10.2333465027 6.7714015823 14.7056704747
10.7268202129 7.2554349263 15.3033267969
9.3023346643 8.1774584145 2.7775223099
9.7932889821 7.9551214509 3.1977126493
9.6966124158 8.3392404208 3.2577070155
10.0168971575 8.1873522545 3.5944373808
10.0642757404 7.6136645384 5.2318840774
10.1251475588 7.8836922282 15.6530410912
10.3745186852 8.3538390764 16.0668894713
9.8084868435 8.6184105292 3.7675082639
9.7635400689 9.7407453307 4.9322007548
9.9800609188 9.0122395719 4.5618869693
10.5461932211 9.5411305562 5.4099385365
10.0744062783 8.7790063754 16.2515882804
9.5275163872 9.1533251831 16.3120939637
10.7738033411 10.6381186185 5.8079368717
10.5933564811 11.3664375978 5.9392523228
10.4589162117 11.6929242582 5.9602646932
10.6155765234 11.5537620621 6.0206609458
10.6816494140 12.2855330232 5.9803262553
10.7368627168 11.6689188980 6.0107515067
10.8132699976 12.6114341766 16.1733030366
10.2124151492 13.0695824662 16.0528099811
10.0840942841 13.2232064364 6.2901980402
10.6734131023 13.8598696165 6.6399259727
10.0216556707 13.5700417757 15.8252263295
10.8239432732 13.3407526464 15.7956400059
10.2189317422 14.0224422221 15.6186626557
9.7928390310 14.6843437525 7.1408130326
10.4094928085 14.4973722831 7.0701090246
10.3906968297 14.7391673928 15.4242167195
10.1578697690 15.0028960529 7.3487011697
10.0940615736 15.6653177265 7.6425477817
10.4662355601 15.6455860649 15.2812933339
10.2938218207 16.5471704234 8.0670430443
10.4211025276 16.6880146078 15.0925097576
10.2247051009 17.2906436458 8.3660190095
9.8765844858 17.8367662173 8.4997653041
10.6837720587 17.5901453985 8.7444294461
10.3754622255 17.7097095294 14.7159982848
10.8884561626 18.2785257339 9.2676121628
10.1295130928 18.7879066978 13.9990818016
10.7474787022 18.6994478672 13.7052918938
10.2205964613 19.1744196540 13.4665784181
10.0456848635 18.4303881630 14.4047131541
10.7465365650 18.2051329822 14.1828558884
10.4535246785 19.0805747495 9.6637710325
10.3535279046 19.7198887177 10.2839858365
10.2768843883 19.5772360323 12.8040284712
10.2515696894 20.0543731612 10.8980563678
9.6400052089 20.2328733947 10.7932070709
10.3882561635 20.0711647870 11.4204360813
10.4524995022 19.9083009500 12.0147639082
11.2290362593 2.6183267129 9.6194172936
11.6474166487 2.5076755579 9.0256543966
12.1653951891 2.1465676487 9.4302082008
11.8899567027 2.1864973035 10.2470162696
11.3051609590 2.5202257375 10.4354034270
11.7041112361 2.3724471136 10.8238246636
11.2137166396 2.9392898059 8.8465771654
11.4607674753 3.3676325498 8.3286921323
11.7103981522 2.7435920119 8.6379480709
11.1775041680 2.8288904025 11.0678346267
11.7015384272 3.2243473780 11.8373911000
11.4947472444 4.2938224299 7.8369409219
11.4689463369 3.9092118999 12.3990150002
10.9931045715 4.3290441364 12.6069884006
11.6896370907 4.3737615724 12.8267407237
11.1565733745 5.0328335498 7.4796654053
11.3204361678 5.5579627915 7.2559234992
11.8693625468 4.9479004844 7.5380346314
11.9375430830 4.8931688546 13.3236479516
11.6610518777 6.1577772203 7.1277903881
11.6440719036 5.5273112878 13.8696348908
11.7001171119 6.0985671419 14.4853297641
10.0862612894 7.8576375975 3.6717994962
10.1890890855 7.8090268205 4.2306294880
10.7714562116 7.6847292411 5.9409170249
11.5124401737 7.1321656374 6.7338967114
11.5114147562 6.6046269387 14.9630933244
11.6022675337 7.1111086381 15.4915021764
10.1942562731 8.2696270560 4.1671457500
10.5374416594 8.2934068595 5.1367645770
11.1064153373 8.2619516267 5.8590152934
11.5962839205 8.1354505882 6.3006268066
11.2839245007 7.6292313920 15.8297502462
11.1880531924 8.0648939141 16.1368617564
11.3826939814 8.9213892109 5.9034391438
11.3895503386 9.8902495555 5.8926957936
10.8164950793 8.3671022458 16.2230279958
11.4738075117 10.4297009663 5.9906799335
11.3263624168 10.7091274628 5.9950489634
11.5264809239 10.5655477429 6.0504450352
11.2628150891 11.2873818571 5.9263378137
10.7801674541 11.4741111126 6.0116054914
11.5860012528 10.6789001035 6.0244058696
11.7649195544 12.1782909436 5.7358882739
11.7842076823 12.1120423692 16.1938411773
11.4846437312 12.5846125909 16.0196824163
10.9418056844 13.2333624481 6.2508987325
11.6100200360 12.9482410913 5.9649778246
11.8444438839 13.0950710943 15.7203960392
11.1941836886 13.9135141487 15.5409939180
11.6971623726 13.6715313296 6.4768669496
11.3278726040 14.3608148946 7.0870464853
11.4488662879 14.7444897680 15.3445157155
10.8335932522 15.0252027464 7.4646906104
11.0214280514 15.6990718370 7.9096357386
11.4707876907 15.7645865781 15.1471192774
11.1277959837 16.2996860847 8.2718043919
10.8027167312 16.8879896065 8.4214699192
11.6006103347 16.6210722105 8.6885008028
11.4607654458 16.7942891193 14.7989218153
11.6765145924 17.4855151264 9.1950762439
11.1902771144 17.5836114631 14.4543184998
11.9795043009 17.3249968162 14.2842433841
11.4333749660 17.8543281168 14.1259169992
11.7392620827 18.1536076689 9.6425067354
11.1182359562 18.6193007741 9.6122740717
11.4332671361 18.8140154102 9.9623837588
11.3725390198 18.3132643977 13.7392662964
11.2679086883 19.0010874844 13.1269134442
10.9984559732 19.7424385040 10.7819359289
11.1738128450 19.3490174700 10.3311256985
11.8902072356 19.4413738662 10.9687165275
11.0479060203 19.5583530254 12.5375746707
11.7888123686 19.4071403724 12.5385910046
11.3414448241 19.7243685529 12.1516751032
11.2538403821 19.8418968150 11.5066721784
12.0735785925 2.4109701135 8.8271249293
12.2501997075 2.7718285148 8.4708946163
12.7027830848 2.2610163399 8.8644728920
13.0685909688 1.8212703835 9.4387543174
12.7718548270 1.7933409819 10.1868696286
12.3403277803 2.1455478744 10.8651655714
11.8975084307 2.5541684067 11.2686687589
12.6055809460 2.5302962107 11.4595865590
12.3875795925 3.4621599896 8.1275111881
12.8714035570 3.1792764616 12.0087940698
12.6463969798 4.3287115651 7.8856148958
12.2587484457 3.7988554192 12.4553585399
12.6561528582 4.4229751963 12.9903751749
12.0486112624 5.5169663767 7.3789203833
12.4998064454 5.0736087808 7.6310372720
12.6100092248 4.9336548091 13.4728910299
12.2370876260 5.1744522091 13.6586546622
12.8501118669 5.3499327201 13.9620732137
12.2775035740 5.9487665548 7.3623606862
12.2550905719 6.5548447587 7.2462189544
12.7887864365 6.0356575272 7.6041001821
12.5114563782 5.9117762780 14.5866879294
12.0465000550 6.2428439307 14.7815585193
12.4676163186 6.3396156642 15.1047591649
12.4079679665 7.2143419658 7.1350199992
12.9043191629 6.7952465967 7.5326108341
12.4289233664 6.7739052924 15.5682694014
11.9208802352 7.2106635824 15.7310561984
12.1873228720 7.2556167587 15.9169738921
12.3627704306 7.9071945643 6.8004379259
13.0565328652 7.5699501349 7.3105298739
11.7557576739 7.6941721318 16.0876994527
11.3388179327 8.0840610220 16.2112683556
11.9736178073 9.5089427479 6.0857396162
12.3321372349 8.8134503694 6.3746039002
12.0865382206 10.3653581902 5.9503504150
11.6826381892 10.4985376884 6.0382215702
12.5516302810 9.5292541018 6.1725527955
12.3844690522 11.4137753733 5.6071912948
12.3922671229 11.6698296760 16.2381909540
12.9289273474 11.2660033539 16.2044038547
12.5275611763 11.7761330065 16.1001549698
12.4363443110 12.1265292907 5.4826191128
12.9548281201 12.2664415430 5.3486255511
12.8586446727 11.7796310501 5.3462990100
12.4720592045 12.3715376251 15.8478239547
12.3268978469 12.6799113156 5.6209616105
12.9973545895 12.8276024845 5.6132386609
12.6690179355 12.8230818115 15.6257577207
12.4301481945 13.6640626992 15.4677999406
12.3540753968 13.2465281863 5.9735353703
12.5341877844 13.6247613958 6.4616586366
11.7844029165 14.9443316186 7.7300690690
12.4474616746 14.1102380546 7.2176571862
12.3517353484 15.1285882400 8.2257672422
12.5502435329 14.6255006977 7.9177439479
12.8932398628 14.8246356105 8.3548185218
12.7266315028 14.8081798497 15.2886741936
11.7828347109 15.7136817318 8.2724467929
12.6729737453 15.6346160956 8.7618769205
12.3011534580 15.9129320542 15.0058578327
12.3890836887 16.6726386704 9.1566253341
12.5203468360 16.5296716514 14.6545162340
12.3544468113 17.2613668750 9.4411108495
12.1211017147 17.6425367515 9.5208385511
12.7291157462 17.5580532930 9.8752800260
11.8934624501 17.8747955990 13.8661960402
12.5278072925 17.6557638974 13.7291047347
12.1049063373 18.3054789503 13.3904748428
12.8319630781 17.0119964087 14.1493468093
11.8689486381 19.0225964113 10.4326332675
12.2423019726 18.4554286279 10.1931216543
12.5331091707 18.8704801104 10.7666486419
12.4237692505 18.9166405904 12.8004867603
12.7473961903 19.2615321136 11.3149215273
12.4137444307 19.4016077302 12.4234412911
12.0263991148 19.6482506662 12.0997739344
12.4800973673 19.5985502403 11.7084078931
13.4571365262 1.4732466849 9.9367186973
13.8964932640 1.6604978522 9.5115347381
13.9599480984 1.3362515292 9.9344890107
13.7550393609 1.3210979861 10.2375682066
13.4060627504 1.4993372501 10.3949025326
13.8469417149 1.4860133748 10.5872144767
13.1720513930 2.7741203573 8.4549485126
13.5438168355 2.1412351050 8.9409147262
13.2557188527 1.9109817324 10.8970508927
13.5577786437 2.5591681026 11.5116917553
13.2063320353 3.5120893171 8.1708889942
13.8724591137 3.3980855700 12.0071474749
13.6648418861 4.0577944093 8.2569967177
13.1840703889 3.8411489165 12.4967083145
13.4950077492 4.3629352837 12.8619267610
12.5899806911 5.5306517378 7.5629434411
13.2501503071 5.1777658678 7.9936508196
13.4418607517 4.8788973745 13.3941539406
13.9439265856 5.3711783901 14.0318818438
13.4246691613 6.2318138371 8.0134522448
13.6204455003 5.7383046661 14.6629716256
13.2572192347 6.1187879283 15.1852515906
12.9517434624 6.3978479572 15.4324335102
13.5051005592 6.3871809064 15.6888446232
13.5508589108 7.0769973102 7.8755833461
12.9536989572 6.8288846837 15.9132126710
12.3812146172 7.2802971841 16.0451229846
13.2627077237 8.4372219811 6.8420148903
13.9009693782 7.8674696252 7.6376362366
13.0532624701 9.1448153083 6.3610379106
13.1680799625 9.7820462532 6.0183825969
13.8232677807 9.1436983718 6.3696901424
13.2026278141 10.6541448682 5.5690616940
13.3568221202 10.8778225016 16.1838091470
13.6783536669 10.6075525558 16.1021477348
13.5109346521 10.9621268732 15.9822183782
13.0848289381 11.3129738462 5.3630903232
13.4938808672 11.5681570189 5.1583911887
13.4533329109 11.0741987183 5.2839407838
13.2092270171 11.7462924022 15.7922475373
13.7586043754 12.2302792953 5.2880916616
13.0997814336 12.3163905587 15.6509501452
13.6274978013 11.9668725944 15.4812908044
13.4665560270 12.7202642873 15.3941384174
13.6618407894 12.8208108191 5.8253510505
13.0570812302 13.2652985532 6.1218381970
13.1341119089 13.5770274211 6.7907852466
13.7141854011 13.1314712378 6.4995380826
13.2633803583 13.7914837479 7.4115346529
13.7683714481 13.3824782637 7.2704559641
13.7054417811 13.6911470751 7.8284444312
13.6355825076 13.6549025229 15.3723718568
13.2055675901 14.2107603102 7.9860490960
13.6202804658 14.6306776387 8.7593179676
13.6371009827 14.3125554710 15.4518741229
13.5909276074 14.8345573110 15.3696786595
14.1588805486 14.4241613927 15.5132915619
13.4933655004 15.4215900049 9.1731776769
13.1544886161 16.1366714660 9.3383187295
13.8036474285 15.7166888488 9.5428721527
14.1747357674 14.9998392382 15.3478333494
13.3531316935 15.6618601688 14.9717995446
12.8597549888 16.8417378854 9.5234684131
13.6364073089 16.5010494120 9.8528455246
13.2227979348 16.4440622041 14.4642034844
13.9701288792 16.1917525173 14.3097304644
13.4484582446 16.7755174363 14.0242128141
13.7228240992 17.2547668246 10.4208162520
13.2585073791 17.3459912764 13.5472169719
12.9828462250 18.1488305278 13.0503142885
13.0746831411 18.1263581497 10.5760971450
13.2062625441 18.6459722551 11.2132361004
13.1379758601 18.7899465534 12.5850361786
13.4213028488 18.3842299657 12.5230429057
13.4062704048 18.8064154459 12.3075964103
13.1874464908 19.1407655083 11.6657474084
12.9194078413 19.4519097671 11.6315958234
12.6221350070 19.5496540556 12.1640736844
13.0285744798 19.4576592998 11.8428449479
13.2637930620 19.0556853987 12.3637361028
12.9374884780 19.2511127510 12.3845026491
12.9400587021 19.4875102115 12.0639434649
14.2085975003 1.4485553196 9.7683945415
14.2991973128 1.3970743753 10.0050147869
14.1139985968 1.3310611031 10.2905033798
14.2045666053 1.4895674062 10.5665536394
13.9493422729 2.5610345758 8.6701862609
14.3824265679 2.2497079971 9.1245260823
14.5903839222 1.7851510756 9.7890579843
14.2271268649 1.9597308681 10.8933485315
14.3821799060 2.7763442822 11.4347448839
13.9782305275 3.1710984868 8.4667107380
14.4227450015 2.7696038357 8.7548537546
14.5885115146 3.4995917662 11.6727897234
14.4982657074 3.7009203072 8.7519813341
14.1677210556 4.6472289566 8.6103337969
14.7290695958 4.3347752185 9.0833683739
13.8764226747 4.0696194326 12.4930234160
14.4740018349 4.1639664104 12.1322420063
14.0655909719 5.6798404114 8.6461364529
14.6019475169 5.0596632836 9.1645620269
14.2319194508 4.7265863686 12.8557028643
14.2523316640 5.1458219316 13.5044511010
14.6629720601 5.5053487871 13.9205977374
13.9892293176 6.6257020909 8.4693393855
14.5466752005 5.7384274216 9.2625272907
14.4150459142 6.3540248698 9.0887282339
14.7302043052 6.1531226329 9.6209010103
14.7443223287 5.7954659241 14.6670822173
14.3033251458 6.0292803080 15.3829176577
14.3091620259 6.2146732724 15.8541761237
14.0818540102 7.3071078804 8.2729273795
14.4275263045 7.0906430972 8.8772830881
14.7469679529 6.8343712971 9.5635315356
13.8978991114 6.4087639278 15.9608170501
14.2428130517 8.5578630022 7.0149566725
14.5443645810 8.2585652979 7.6862190254
14.5753157381 7.8495565572 8.4592911274
14.8018131802 7.5399343538 9.2765181146
14.1112850896 9.9190330317 5.6874098314
14.9731484803 9.1329641474 6.3416446731
14.2062929541 10.1877538229 15.8594930431
14.9912541720 9.3529103515 15.5548763823
14.6312004052 9.8534351387 15.5857114587
13.9785872337 10.7649138397 5.1646050203
14.6458557196 10.6035586255 4.8189441813
14.4540308023 10.2649561658 5.2030373863
14.5134598692 10.5924798763 15.0819854373
14.8556038981 10.2241233487 14.6719948322
14.7677457806 10.7028002035 14.5723534047
14.2582695378 10.4280250978 15.5863256601
14.7304591009 9.9975113734 15.1864576006
14.7594262273 11.1971867134 4.1692279130
14.9144217062 11.2108966099 4.0575277444
15.0357618441 10.9767476646 4.1706828268
14.7928560611 10.9333486857 4.3785781858
14.4155715144 11.3678744398 4.6974774524
14.4910775184 11.1239377288 14.9001023295
14.2904961218 11.8947739801 15.0115165656
13.9924444625 11.2200323896 15.4383911930
14.8181396267 11.3342683451 4.2262887162
14.9720939834 11.4993348521 4.6125609885
14.6812125574 11.9392145578 5.2649481904
14.2136926685 12.4440576599 5.6418319249
14.6965999739 12.2857666276 5.9119276234
14.8851976130 12.5724257190 9.4029907432
14.9296756870 12.4257282038 9.3025184384
14.8627810831 12.7025345440 9.2678774658
14.9597315915 12.4479116905 9.5320557427
14.4035631307 12.8196810923 15.0576268007
14.2698436834 12.6812320627 6.2187643425
14.3597040142 12.8431719927 7.0611223865
13.8451754212 13.9110418019 8.3073132708
14.3477264289 13.2133986311 8.1363249769
14.8928369876 12.7247180307 9.4974147701
14.2097693845 13.8633199819 8.7505352730
14.5961670268 13.4960392560 15.2764777843
14.1487680873 13.9475864830 15.4775528608
14.7247896764 14.0202430674 15.4733049749
14.3201601437 14.2472071360 9.1972862169
14.7490955220 14.5436936174 15.5082957637
14.1111352255 14.9910993551 9.3993859552
14.4883754499 15.4713698597 9.9689162655
14.8526675741 14.9923677180 15.3257112959
14.3839732524 15.5044775823 14.9471493942
14.5228224418 16.3574881909 10.4568075302
14.3370743974 16.8896415308 12.7922846624
14.7468838696 16.4479867230 12.8027446199
14.6897408520 16.6947978903 12.2206998130
13.9198736267 16.8497429442 13.5061442511
14.7076089108 16.1902475622 13.5597252517
14.7210785828 15.7766491524 14.4380850878
14.3381824665 17.0087741692 10.8548145290
13.8401944002 17.7377911743 11.1672087218
14.1471829310 17.4232345675 12.0187896612
14.5248077421 16.9845582666 11.4599705770
13.7019237590 17.6488027338 12.7552734442
13.5802383133 18.4139323665 11.9476672335
13.2678252572 19.1591754980 12.0948246128
14.4490508115 1.5806824516 10.3407468093
14.9572415134 2.3152770209 9.5047926028
15.1234387148 2.2016706725 9.9146056300
14.9109929547 2.0933154487 10.4145784276
14.8153805111 2.4691079644 10.9729347820
15.2283296938 2.7248530244 10.6670153128
14.5300299804 3.1193796390 8.7159269531
14.9069054434 2.9597408067 9.1641086757
14.9638675812 3.1446057957 11.1964379791
15.3312695921 3.4651725452 10.7679527090
15.0717255011 4.5539473115 9.7170506849
15.0632533374 3.7884295434 9.3556387346
15.3431497729 3.9267091808 9.8579379785
15.0556537584 4.2110580512 11.3710645184
15.3399770438 4.1343435928 10.6749261994
14.8825940898 5.4791262873 9.7870167329
15.3459779464 4.2737460141 10.2350580816
15.1857798362 5.0303297041 10.6301421405
15.1698228029 5.1361203674 11.4302762832
15.0257633788 5.2382426659 12.2459538793
14.8600472483 5.4111308630 13.2853078121
15.0491091283 6.3456990399 10.3134547035
15.2829866582 6.0749829925 11.4240253333
15.4337625941 6.2708336745 12.3284187925
15.4035509150 6.0554029209 13.1126588160
15.3550635036 6.0017345052 14.0958153194
15.6847214037 6.1633071997 15.0049990134
15.3305607212 6.0470394716 15.4038589621
14.9314300430 6.1068464430 15.7580256381
14.4769848780 6.2273847506 15.9711791958
15.0873733916 7.4677234160 10.0263107369
15.3597453930 7.3179201428 11.0088604481
15.5608249659 7.1824800682 11.9776148122
14.8880015992 8.6227820487 7.2686632697
15.0819159499 8.4801458236 8.0600165580
15.2010186838 8.4243440216 9.3061051082
15.3615205975 8.2758722942 10.5241843314
15.5052796226 8.0785798951 11.2183492084
15.5427812709 7.7138694382 11.5162842696
15.5818748845 8.9366981340 12.2682575272
15.5816004720 8.8882474873 12.9447923632
15.6735070377 8.4298417221 12.5761689007
15.7003107192 8.3823061363 13.0772080459
15.0243545459 9.9259555284 5.2753551045
15.8165062581 9.9692316225 5.0040656511
15.8779825936 9.4144721034 5.6203581082
16.1786886702 8.9837443978 6.3910981623
15.5484246154 8.8448178043 7.2719529875
15.6913720505 9.0206366773 8.3047838483
15.5523190537 9.2856230160 9.2540156592
15.5924069812 9.8791266363 9.4123908550
15.4388906587 9.5253388615 10.3362999461
15.5201307586 8.7647857443 11.1650050598
15.4207824515 9.6920046518 12.7052828531
15.5068085121 9.4615919582 11.9183689189
15.6186632033 8.6978595673 13.4918650407
15.4156361552 9.3163346863 13.6311300013
15.1643930306 9.5592162689 14.5879086144
15.5533720942 8.7807869069 14.1682445767
14.9958980595 9.4964568845 15.2782213823
15.4555738399 8.8300700708 15.0355939185
15.6402943519 8.5076804601 15.4448184787
15.2236359479 10.4856887231 4.5738307592
15.4945137686 10.7458486632 4.3746104132
15.7927560208 10.3746046656 4.6295252559
15.4356572874 10.7544815039 9.5959151282
15.7122216701 10.2691372927 8.9688241779
15.6539518195 10.7603618620 8.7759858614
15.3698887500 10.6891685133 10.6365417114
15.5007069960 9.4123087536 11.3465343748
15.4098833816 10.2880317123 11.6364471974
15.3241214024 10.6733730938 12.7583794798
15.1314020928 10.3588955580 13.8431146868
15.1947426228 11.1752970563 4.2700747311
15.8356555319 10.8849180002 4.6862027303
15.4393094851 11.3173073512 4.6632021415
15.8296726123 11.2258681538 5.0574448413
15.3642598028 11.4888920022 8.6741034029
15.6909334938 10.9822552198 8.3867924844
15.6631465600 11.3029220659 7.8880350397
15.1252620903 11.9599716039 9.4693568519
15.2808218108 11.6138165289 10.3452427773
15.3606825127 11.3131836318 11.1970404893
15.4176400633 11.5615382625 12.1727182020
15.2756220913 11.5161351411 13.4351030340
14.8478383975 11.2911911229 14.3558172992
15.3797131208 11.5736546425 5.1508831832
14.9020023978 12.2952583278 6.6350471095
15.3475307483 11.8211154156 5.9925024276
15.0366174998 12.2062630910 7.7411702984
15.5628092696 11.6863585991 7.0067295835
14.9190879884 12.4737891016 8.8382840547
15.0817546708 12.5808480683 9.9559212614
15.3968655331 12.4471001741 11.1362185587
15.5881948288 12.4840452513 12.1113977947
15.5800004611 12.2828145295 12.8918398421
15.4946362113 12.3242272646 13.6351781602
15.6261933059 12.9112803216 14.0747074612
15.0549433802 12.2378329391 14.3528046635
14.7474131887 13.3140694595 9.3053175399
15.1993387533 13.5670553986 10.3645168832
15.5427667621 13.4268385784 11.1720213781
15.6522090518 13.0781452951 11.7494560097
15.1996583674 13.0909921916 14.7890450157
15.2966830278 13.7041175418 15.1695524939
15.2805915608 14.2352969204 15.3914507211
14.7173763558 14.3926230233 9.7573257336
15.1626017368 14.6609771366 10.4104797011
15.5064081739 14.0941435172 10.9300214101
15.2087372471 14.6584628592 15.4238553790
15.1233047512 15.5054480827 10.5813805052
15.2063671748 15.9598424878 12.6954840986
15.6419979962 15.3592920382 12.4032545313
15.4224811118 15.7929289182 11.9481355371
15.3704425532 15.6431431684 13.5958716710
15.8100600375 15.0540178161 13.3379591891
15.6982916973 15.2694852168 14.0406333143
15.2740451833 14.8974247600 15.2850125251
15.1704059200 15.2390693208 14.9178758763
15.1257950388 16.0013423423 10.8359470476
14.8660683245 16.4795204186 11.0588940948
15.0450913238 16.3371303829 11.7491449660
15.3229612297 15.9341862746 11.3390911633
15.2703378390 15.5732634689 14.2337292348
15.3036492609 2.6735198657 9.7736786723
15.3196731464 2.4836844936 10.2056423337
15.3597259158 3.3269130530 9.7601839108
15.4462125853 3.0268696653 10.2482795049
15.4541614734 3.6881301421 10.2673506536
15.6779214226 6.8950594206 12.9495231814
15.7695158359 6.7148489303 13.8747710435
16.0040219138 6.6579235096 14.8361375737
16.1870316508 6.4683133443 15.3369951828
16.0490086097 6.2789924681 15.5426663950
15.7622755354 6.1779959708 15.7022192706
15.7339118448 7.8117587861 12.8125307207
15.8393646450 7.4980449886 13.7146429233
15.9820215986 7.3702209690 14.5975137450
16.3433484062 6.7879392138 15.4351813079
16.2351589958 7.2742751074 15.3599398837
16.4643409005 6.9630187256 15.6874625372
16.7612581946 8.8288166482 6.5516137726
16.8559758449 8.8485223550 6.1526495764
17.1562604255 8.7547123687 6.3220479076
17.1506870126 8.8834692335 6.7079388187
15.6202809050 8.2366031504 11.8873636668
15.7456227812 8.2001478557 13.6229001170
15.7908394088 8.1130025078 14.4293973855
15.9094552923 7.9989923354 15.1604416565
16.3980748878 7.2431067391 15.7087593318
16.0950688126 7.7887658128 15.5366092444
16.4259710586 9.6245716468 5.2920804471
16.7594008529 9.1676985240 5.7202010109
16.4275495066 9.0882079096 7.2579808915
16.1430810678 9.5502881931 8.0447065048
16.6439040558 9.7219001925 7.5724965133
15.8026700159 9.7010844413 8.7321800022
15.5704512393 8.9710835436 11.7009298481
15.9106613125 10.5513171701 4.5913467579
16.4524261498 10.2051593140 5.0598002186
16.0416913313 10.3861209407 8.1546329504
16.7032547655 10.3049454342 7.4020335418
15.9663904329 11.3270083348 5.6723599461
16.4407210466 10.8019468716 5.4281379994
16.0953880666 11.2834740913 6.4794506518
16.5276614184 10.9529665560 6.0948397292
16.1734903464 10.9663644605 7.3091707329
16.7829886861 10.6558045198 6.7798745553
15.8037506829 13.1361099402 12.5997773653
15.7514795784 12.8152852230 13.3696220224
15.7696546455 13.9674077989 11.7736659953
15.9589036662 13.9105018316 12.7162807318
16.0015112071 13.5813567907 13.6036359170
15.8845039893 13.6411497764 14.5656524345
16.1740778720 13.8650064752 14.1785920446
15.7270216997 14.0440710747 15.0864111938
16.0740614635 14.2122220683 14.7982730174
15.5666602492 14.8277579412 11.1125384585
15.7863795293 14.6809306841 11.7065106050
15.8702117049 14.6498807273 12.3957135840
16.0323185746 14.2933774156 13.2170111887
16.1680265773 14.2909228792 13.9623273753
15.6454285227 14.6238343398 15.1106352457
16.0480391421 14.6328093436 14.7103712070
15.4378742017 15.5350918145 11.0519581078
15.6486272801 15.2692871310 11.6747155310
15.7203520932 15.0606519103 14.6012307493
16.0356263497 14.8097373905 14.2362810786
16.4100339337 6.6143158424 15.6710255338
16.2961333442 6.4488914092 15.7689680555
16.4950989304 6.8251106141 15.8098117126
17.3333832196 8.9138179128 5.9613110695
17.5275378047 8.7811945136 6.3486269117
17.6365543517 9.0556011499 6.6562427128
17.0343150342 9.5571001590 5.3972749315
17.3186807258 9.2345037025 5.6142158780
17.1524243254 9.3220010189 7.0803092056
17.1600839551 9.8490378934 7.2244664829
17.3477459842 9.8052251403 5.5640937155
17.0452117560 10.2984032290 5.5863528473
17.4674522921 10.0731384138 5.9225829488
17.1416488523 10.2036957015 7.0895424286
17.3782415360 9.9707364877 7.0314134712
17.3439529485 10.1669135519 6.7486910237
17.1095716176 10.4530465626 6.1351231677
16.2231110566 14.0584389533 14.4437969032
16.2270596001 14.3997515366 14.4828325946
17.6564558136 8.8652396830 6.0951791902
17.7783836033 8.8292069218 6.4134709600
17.8558135785 9.0275202066 6.5456741284
17.4306168272 9.4530115354 5.5254317164
17.5768593243 9.2964312168 5.7544954988
17.5338894404 9.6569494903 6.8459081988
17.7858420171 9.4457291646 6.5112699981
17.6007848755 9.9349114560 6.3804682764
17.6832909125 9.7169743077 6.0161656979
3 2 1 0
3 0 3 2
3 0 1 4
3 4 1 5
3 3 0 6
3 6 0 4
3 5 7 4
3 4 7 6
3 10 9 8
3 8 11 10
3 8 9 12
3 12 9 13
3 11 8 14
3 14 8 12
3 13 15 12
3 12 15 14
3 18 17 16
3 1 2 16
3 2 18 16
3 2 19 18
3 21 20 3
3 20 2 3
3 20 19 2
3 21 22 20
3 16 17 23
3 23 17 24
3 23 5 1
3 23 1 16
3 6 25 21
3 6 21 3
3 22 21 26
3 21 27 26
3 21 25 27
3 27 28 26
3 24 29 23
3 29 31 30
3 29 30 7
3 23 29 7
3 5 23 7
3 25 6 7
3 30 25 7
3 32 25 30
3 25 33 27
3 25 32 33
3 28 27 34
3 27 35 34
3 27 33 35
3 35 36 34
3 31 37 30
3 30 37 32
3 32 37 38
3 40 39 38
3 39 32 38
3 39 33 32
3 33 41 35
3 33 39 41
3 36 35 42
3 35 43 42
3 35 41 43
3 43 44 42
3 39 40 45
3 45 40 46
3 45 9 10
3 41 45 10
3 39 45 41
3 41 10 11
3 47 41 11
3 43 41 47
3 44 43 48
3 48 43 47
3 45 46 49
3 49 46 50
3 49 13 9
3 49 9 45
3 14 51 47
3 14 47 11
3 48 47 52
3 52 47 51
3 49 50 53
3 53 50 54
3 55 15 13
3 49 55 13
3 53 55 49
3 55 56 15
3 15 56 14
3 56 57 14
3 57 51 14
3 51 57 52
3 54 58 53
3 53 58 55
3 55 58 59
3 55 59 56
3 62 61 60
3 60 63 62
3 65 64 18
3 18 64 17
3 19 60 61
3 65 19 61
3 18 19 65
3 66 63 60
3 19 66 60
3 20 66 19
3 20 22 66
3 66 22 67
3 64 24 17
3 68 24 64
3 69 67 22
3 69 22 26
3 71 70 28
3 70 26 28
3 70 69 26
3 73 72 71
3 71 72 70
3 75 74 73
3 73 74 72
3 77 76 75
3 75 76 74
3 77 78 76
3 81 80 79
3 83 82 79
3 79 82 81
3 83 84 82
3 68 85 24
3 24 85 29
3 87 86 31
3 29 87 31
3 85 87 29
3 88 86 87
3 34 71 28
3 71 34 36
3 89 71 36
3 73 71 89
3 73 90 75
3 73 89 90
3 75 91 77
3 75 90 91
3 78 77 92
3 77 93 92
3 77 91 93
3 95 94 93
3 93 94 92
3 97 96 95
3 95 96 94
3 96 97 80
3 97 79 80
3 97 98 79
3 79 99 83
3 79 98 99
3 84 83 100
3 100 83 99
3 86 37 31
3 38 37 86
3 101 38 86
3 88 101 86
3 102 38 101
3 102 40 38
3 42 89 36
3 89 42 44
3 103 89 44
3 90 89 103
3 90 104 91
3 90 103 104
3 91 105 93
3 91 104 105
3 93 106 95
3 93 105 106
3 95 107 97
3 95 106 107
3 97 108 98
3 97 107 108
3 98 109 99
3 98 108 109
3 100 99 110
3 110 99 109
3 101 111 102
3 40 102 111
3 112 40 111
3 46 40 112
3 48 113 103
3 48 103 44
3 103 114 104
3 103 113 114
3 104 115 105
3 104 114 115
3 105 116 106
3 105 115 116
3 106 117 107
3 106 116 117
3 107 118 108
3 107 117 118
3 108 119 109
3 108 118 119
3 110 109 120
3 109 121 120
3 109 119 121
3 121 122 120
3 112 50 46
3 123 50 112
3 125 124 113
3 48 125 113
3 52 125 48
3 113 124 114
3 114 124 126
3 114 126 115
3 115 126 127
3 115 127 116
3 116 127 128
3 116 128 117
3 117 128 129
3 131 130 129
3 130 117 129
3 130 118 117
3 118 132 119
3 118 130 132
3 119 133 121
3 119 132 133
3 122 121 134
3 134 121 133
3 123 54 50
3 135 54 123
3 137 136 57
3 137 57 56
3 52 57 125
3 125 57 136
3 131 138 130
3 130 138 132
3 132 138 139
3 132 139 133
3 133 139 140
3 133 140 134
3 135 141 54
3 54 141 58
3 58 142 59
3 141 142 58
3 56 59 137
3 137 59 142
3 144 143 62
3 62 143 61
3 146 145 63
3 145 62 63
3 145 144 62
3 146 147 145
3 150 149 148
3 152 151 148
3 148 151 150
3 154 153 152
3 152 153 151
3 154 155 153
3 157 156 65
3 65 156 64
3 65 61 143
3 65 143 157
3 66 146 63
3 159 158 67
3 67 158 66
3 158 147 66
3 147 146 66
3 161 160 159
3 159 160 158
3 163 162 161
3 161 162 160
3 165 164 163
3 163 164 162
3 167 166 165
3 165 166 164
3 169 168 167
3 167 168 166
3 168 169 149
3 169 148 149
3 169 170 148
3 148 171 152
3 148 170 171
3 152 172 154
3 152 171 172
3 155 154 173
3 154 174 173
3 154 172 174
3 174 175 173
3 177 68 176
3 68 156 176
3 68 64 156
3 178 177 176
3 69 159 67
3 159 69 70
3 159 70 161
3 161 70 72
3 161 72 163
3 163 72 74
3 163 74 165
3 165 74 76
3 165 76 167
3 167 76 78
3 179 167 78
3 169 167 179
3 169 180 170
3 169 179 180
3 170 181 171
3 170 180 181
3 181 80 81
3 172 181 81
3 171 181 172
3 172 81 82
3 172 82 174
3 183 182 84
3 84 182 82
3 182 175 82
3 175 174 82
3 183 184 182
3 177 85 68
3 178 185 177
3 185 85 177
3 185 87 85
3 88 87 185
3 88 185 186
3 92 179 78
3 179 92 94
3 179 94 180
3 180 94 96
3 180 96 181
3 181 96 80
3 100 187 183
3 100 183 84
3 184 183 188
3 183 189 188
3 183 187 189
3 189 190 188
3 192 101 191
3 101 186 191
3 101 88 186
3 193 192 191
3 110 194 187
3 110 187 100
3 187 195 189
3 187 194 195
3 190 189 196
3 196 189 195
3 192 111 101
3 112 111 192
3 193 112 192
3 197 112 193
3 120 194 110
3 194 120 122
3 198 194 122
3 195 194 198
3 196 195 199
3 199 195 198
3 201 123 200
3 123 197 200
3 123 112 197
3 202 201 200
3 204 203 124
3 204 124 125
3 203 206 205
3 126 203 205
3 124 203 126
3 207 127 126
3 207 126 205
3 208 128 127
3 208 127 207
3 209 129 128
3 209 128 208
3 209 131 129
3 211 210 198
3 122 211 198
3 134 211 122
3 198 210 199
3 212 135 201
3 201 135 123
3 201 202 213
3 214 201 213
3 212 201 214
3 136 137 214
3 213 136 214
3 215 136 213
3 125 136 204
3 204 136 215
3 206 216 205
3 205 216 207
3 207 216 217
3 219 218 217
3 218 207 217
3 218 208 207
3 208 220 209
3 208 218 220
3 221 138 131
3 209 221 131
3 220 221 209
3 222 139 138
3 222 138 221
3 139 222 223
3 224 139 223
3 140 139 224
3 134 140 211
3 211 140 224
3 212 141 135
3 141 212 142
3 142 212 214
3 142 214 137
3 219 225 218
3 227 226 225
3 226 218 225
3 226 220 218
3 229 221 228
3 221 226 228
3 221 220 226
3 221 229 222
3 222 229 230
3 222 230 223
3 227 231 226
3 226 231 228
3 234 233 232
3 232 235 234
3 233 236 232
3 232 236 235
3 239 238 237
3 241 240 237
3 237 240 239
3 241 242 240
3 245 244 243
3 245 243 238
3 243 237 238
3 243 246 237
3 237 247 241
3 237 246 247
3 242 241 248
3 241 249 248
3 241 247 249
3 249 250 248
3 252 251 144
3 144 251 143
3 253 144 145
3 253 252 144
3 255 254 147
3 254 145 147
3 254 253 145
3 257 256 255
3 255 256 254
3 259 258 257
3 257 258 256
3 261 260 259
3 259 260 258
3 263 262 261
3 261 262 260
3 262 263 244
3 263 243 244
3 263 264 243
3 264 149 150
3 246 264 150
3 243 264 246
3 246 150 151
3 246 151 247
3 247 151 153
3 247 153 249
3 266 265 155
3 155 265 153
3 265 250 153
3 250 249 153
3 266 267 265
3 269 268 157
3 157 268 156
3 157 143 251
3 157 251 269
3 158 255 147
3 255 158 160
3 255 160 257
3 257 160 162
3 257 162 259
3 259 162 164
3 259 164 261
3 261 164 166
3 261 166 263
3 263 166 168
3 263 168 264
3 264 168 149
3 173 266 155
3 271 270 175
3 175 270 173
3 270 267 173
3 267 266 173
3 271 272 270
3 268 273 156
3 156 273 176
3 178 176 273
3 178 273 274
3 182 271 175
3 276 275 184
3 184 275 182
3 275 272 182
3 272 271 182
3 276 277 275
3 274 278 178
3 178 278 185
3 280 279 186
3 185 280 186
3 278 280 185
3 281 279 280
3 188 276 184
3 188 190 276
3 190 277 276
3 190 282 277
3 279 191 186
3 193 191 279
3 281 193 279
3 283 193 281
3 196 285 284
3 282 196 284
3 190 196 282
3 287 197 286
3 197 283 286
3 197 193 283
3 288 287 286
3 290 289 285
3 196 290 285
3 199 290 196
3 287 200 197
3 292 291 202
3 292 202 200
3 288 292 200
3 287 288 200
3 293 291 292
3 204 294 203
3 294 206 203
3 296 295 210
3 296 210 211
3 199 210 290
3 290 210 295
3 291 213 202
3 293 297 291
3 297 213 291
3 297 215 213
3 204 215 294
3 215 298 294
3 215 297 298
3 294 298 206
3 298 216 206
3 298 299 216
3 299 301 300
3 217 299 300
3 216 299 217
3 300 219 217
3 303 302 224
3 303 224 223
3 211 224 296
3 296 224 302
3 300 301 304
3 304 301 305
3 306 225 219
3 300 306 219
3 304 306 300
3 306 227 225
3 228 307 229
3 308 230 229
3 308 229 307
3 308 309 230
3 309 223 230
3 309 303 223
3 305 310 304
3 312 311 310
3 311 304 310
3 311 306 304
3 313 231 227
3 306 313 227
3 311 313 306
3 307 228 231
3 313 307 231
3 314 307 313
3 316 308 315
3 308 314 315
3 308 307 314
3 308 316 309
3 311 312 317
3 317 312 318
3 311 319 313
3 311 317 319
3 321 314 320
3 314 319 320
3 314 313 319
3 314 321 315
3 318 322 317
3 317 322 319
3 319 322 323
3 319 323 320
3 326 325 324
3 324 327 326
3 324 325 234
3 325 233 234
3 325 328 233
3 330 329 235
3 235 329 234
3 329 327 234
3 327 324 234
3 330 331 329
3 328 332 233
3 233 332 236
3 236 332 235
3 332 333 235
3 333 330 235
3 333 332 334
3 331 330 335
3 330 336 335
3 330 333 336
3 338 337 336
3 336 337 335
3 340 339 338
3 338 339 337
3 340 341 339
3 333 334 342
3 342 334 343
3 333 344 336
3 333 342 344
3 344 238 239
3 338 344 239
3 336 344 338
3 338 239 240
3 338 240 340
3 346 345 242
3 242 345 240
3 345 341 240
3 341 340 240
3 346 347 345
3 350 349 348
3 352 351 348
3 348 351 350
3 351 352 343
3 352 342 343
3 352 353 342
3 353 244 245
3 344 353 245
3 342 353 344
3 344 245 238
3 248 346 242
3 355 354 250
3 250 354 248
3 354 347 248
3 347 346 248
3 355 356 354
3 358 357 252
3 252 357 251
3 359 252 253
3 359 358 252
3 360 253 254
3 360 359 253
3 361 254 256
3 361 360 254
3 258 348 349
3 361 258 349
3 256 258 361
3 348 258 260
3 348 260 352
3 352 260 262
3 352 262 353
3 353 262 244
3 265 355 250
3 363 362 267
3 267 362 265
3 362 356 265
3 356 355 265
3 363 364 362
3 365 268 269
3 366 365 269
3 251 366 269
3 357 366 251
3 270 363 267
3 270 272 363
3 272 364 363
3 272 367 364
3 365 273 268
3 369 368 274
3 369 274 273
3 366 369 273
3 365 366 273
3 370 368 369
3 371 367 272
3 371 272 275
3 275 277 371
3 371 277 372
3 368 278 274
3 370 373 368
3 373 278 368
3 373 280 278
3 281 280 373
3 281 373 374
3 282 372 277
3 282 375 372
3 377 283 376
3 283 374 376
3 283 281 374
3 378 377 376
3 379 375 282
3 379 282 284
3 377 286 283
3 288 286 377
3 378 288 377
3 380 288 378
3 290 381 289
3 380 382 288
3 288 382 292
3 293 292 382
3 293 382 383
3 385 384 295
3 385 295 296
3 290 295 381
3 295 386 381
3 295 384 386
3 383 387 293
3 293 387 297
3 387 389 388
3 298 387 388
3 297 387 298
3 390 299 298
3 390 298 388
3 390 301 299
3 303 391 302
3 391 392 302
3 392 296 302
3 392 385 296
3 389 393 388
3 395 394 393
3 394 388 393
3 394 390 388
3 394 305 301
3 394 301 390
3 309 396 391
3 309 391 303
3 392 391 397
3 397 391 396
3 394 395 398
3 398 395 399
3 400 310 305
3 394 400 305
3 398 400 394
3 400 312 310
3 315 401 316
3 396 309 316
3 401 396 316
3 402 396 401
3 397 396 403
3 396 404 403
3 396 402 404
3 404 405 403
3 399 406 398
3 408 407 406
3 407 398 406
3 407 400 398
3 407 318 312
3 407 312 400
3 320 409 321
3 401 315 321
3 409 401 321
3 410 401 409
3 401 411 402
3 401 410 411
3 402 412 404
3 402 411 412
3 405 404 413
3 413 404 412
3 407 408 414
3 414 408 415
3 416 322 318
3 407 416 318
3 414 416 407
3 322 416 417
3 418 322 417
3 323 322 418
3 320 323 409
3 323 419 409
3 323 418 419
3 421 420 419
3 420 409 419
3 420 410 409
3 410 422 411
3 410 420 422
3 411 423 412
3 411 422 423
3 413 412 424
3 424 412 423
3 415 425 414
3 414 425 416
3 416 425 426
3 416 426 417
3 421 427 420
3 420 427 422
3 422 427 428
3 422 428 423
3 423 428 429
3 423 429 424
3 431 430 326
3 326 430 325
3 326 327 431
3 431 327 432
3 430 328 325
3 433 328 430
3 434 432 327
3 434 327 329
3 329 331 434
3 434 331 435
3 438 437 436
3 436 439 438
3 433 440 328
3 328 440 332
3 334 332 440
3 334 440 441
3 442 435 331
3 442 331 335
3 337 436 437
3 442 337 437
3 335 337 442
3 443 439 436
3 337 443 436
3 339 443 337
3 339 341 443
3 443 341 444
3 447 446 445
3 441 447 445
3 343 441 445
3 334 441 343
3 448 444 341
3 448 341 345
3 345 347 448
3 448 347 449
3 452 451 450
3 450 453 452
3 455 454 350
3 350 454 349
3 351 445 446
3 455 351 446
3 350 351 455
3 445 351 343
3 456 449 347
3 456 347 354
3 458 457 356
3 457 354 356
3 457 456 354
3 458 459 457
3 461 460 358
3 358 460 357
3 359 450 451
3 461 359 451
3 358 359 461
3 462 453 450
3 359 462 450
3 360 462 359
3 463 360 361
3 463 462 360
3 361 349 454
3 361 454 463
3 362 458 356
3 465 464 364
3 364 464 362
3 464 459 362
3 459 458 362
3 465 466 464
3 460 366 357
3 467 366 460
3 367 468 465
3 367 465 364
3 466 465 469
3 469 465 468
3 467 470 366
3 366 470 369
3 472 471 370
3 369 472 370
3 470 472 369
3 473 471 472
3 371 468 367
3 475 474 372
3 372 474 371
3 474 469 371
3 469 468 371
3 471 373 370
3 477 476 374
3 477 374 373
3 473 477 373
3 471 473 373
3 478 476 477
3 375 479 475
3 375 475 372
3 476 376 374
3 378 376 476
3 478 378 476
3 480 378 478
3 379 479 375
3 482 380 481
3 380 480 481
3 380 378 480
3 483 482 481
3 486 485 484
3 482 382 380
3 488 487 383
3 488 383 382
3 483 488 382
3 482 483 382
3 489 487 488
3 385 490 384
3 491 486 484
3 384 491 484
3 386 384 484
3 491 384 490
3 487 387 383
3 389 387 487
3 489 389 487
3 492 389 489
3 494 493 490
3 385 494 490
3 392 494 385
3 490 493 491
3 492 495 389
3 389 495 393
3 395 393 495
3 395 495 496
3 397 498 497
3 494 397 497
3 392 397 494
3 498 499 497
3 496 399 395
3 500 399 496
3 403 498 397
3 403 405 498
3 405 499 498
3 405 501 499
3 406 399 502
3 399 503 502
3 399 500 503
3 502 408 406
3 413 501 405
3 413 504 501
3 503 505 502
3 408 502 505
3 506 408 505
3 415 408 506
3 417 507 418
3 508 419 418
3 508 418 507
3 508 421 419
3 424 504 413
3 424 509 504
3 506 510 415
3 415 510 425
3 425 511 426
3 510 511 425
3 417 426 507
3 426 512 507
3 426 511 512
3 507 512 508
3 508 512 513
3 508 513 421
3 513 427 421
3 513 514 427
3 427 515 428
3 514 515 427
3 428 516 429
3 515 516 428
3 424 429 509
3 509 429 516
3 517 430 431
3 432 517 431
3 518 433 517
3 517 433 430
3 518 517 432
3 519 518 432
3 434 519 432
3 520 518 519
3 434 435 519
3 519 435 521
3 523 522 438
3 438 522 437
3 438 439 523
3 523 439 524
3 518 440 433
3 441 440 518
3 520 441 518
3 525 441 520
3 526 521 435
3 526 435 442
3 442 437 522
3 442 522 526
3 527 524 439
3 527 439 443
3 443 444 527
3 527 444 528
3 530 529 447
3 447 529 446
3 447 441 525
3 447 525 530
3 531 528 444
3 531 444 448
3 533 532 449
3 532 448 449
3 532 531 448
3 533 534 532
3 537 536 535
3 451 452 535
3 452 537 535
3 452 538 537
3 540 539 453
3 539 452 453
3 539 538 452
3 540 541 539
3 543 542 455
3 455 542 454
3 455 446 529
3 455 529 543
3 456 533 449
3 544 534 533
3 456 544 533
3 457 544 456
3 457 459 544
3 544 459 545
3 535 536 461
3 536 460 461
3 536 546 460
3 535 461 451
3 462 540 453
3 547 541 540
3 462 547 540
3 463 547 462
3 463 454 542
3 463 542 547
3 459 464 548
3 549 459 548
3 545 459 549
3 466 548 464
3 551 467 550
3 467 546 550
3 467 460 546
3 552 551 550
3 553 549 548
3 548 466 553
3 466 554 553
3 466 469 554
3 551 470 467
3 552 555 551
3 555 470 551
3 555 472 470
3 557 556 473
3 472 557 473
3 555 557 472
3 558 556 557
3 469 474 559
3 560 469 559
3 554 469 560
3 556 477 473
3 478 477 556
3 558 478 556
3 561 478 558
3 562 560 559
3 564 480 563
3 480 561 563
3 480 478 561
3 565 564 563
3 564 481 480
3 567 566 483
3 567 483 481
3 565 567 481
3 564 565 481
3 568 566 567
3 570 569 485
3 570 485 486
3 566 488 483
3 489 488 566
3 568 489 566
3 571 489 568
3 574 573 572
3 573 570 572
3 570 491 572
3 570 486 491
3 576 492 575
3 492 571 575
3 492 489 571
3 577 576 575
3 574 572 493
3 494 574 493
3 578 574 494
3 493 572 491
3 580 495 579
3 495 492 579
3 579 492 576
3 581 579 576
3 576 577 581
3 495 580 496
3 582 578 494
3 582 494 497
3 497 499 582
3 582 499 583
3 579 584 580
3 496 580 584
3 585 496 584
3 500 496 585
3 501 583 499
3 501 586 583
3 585 503 500
3 587 503 585
3 590 589 588
3 589 586 588
3 586 504 588
3 586 501 504
3 587 591 503
3 503 591 505
3 506 505 591
3 506 591 592
3 595 594 593
3 593 594 590
3 588 593 590
3 596 593 588
3 509 596 504
3 504 596 588
3 592 597 506
3 506 597 510
3 510 598 511
3 597 598 510
3 511 599 512
3 598 599 511
3 512 600 513
3 599 600 512
3 513 601 514
3 600 601 513
3 593 515 595
3 515 601 595
3 515 514 601
3 515 593 516
3 516 593 596
3 516 596 509
3 602 520 519
3 604 602 603
3 602 519 603
3 521 605 603
3 521 603 519
3 522 523 605
3 523 603 605
3 523 606 603
3 608 607 524
3 607 523 524
3 607 606 523
3 608 609 607
3 611 610 602
3 610 520 602
3 610 525 520
3 521 526 605
3 602 604 611
3 605 526 522
3 527 608 524
3 613 612 528
3 528 612 527
3 612 609 527
3 609 608 527
3 613 614 612
3 616 615 530
3 530 615 529
3 530 525 610
3 530 610 616
3 531 613 528
3 617 614 613
3 531 617 613
3 532 617 531
3 532 534 617
3 617 534 618
3 619 536 537
3 619 537 620
3 537 621 620
3 537 538 621
3 622 538 539
3 622 621 538
3 539 541 622
3 622 541 623
3 625 624 543
3 543 624 542
3 543 529 615
3 543 615 625
3 626 618 534
3 626 534 544
3 544 545 626
3 626 545 627
3 629 628 619
3 628 536 619
3 628 546 536
3 629 619 620
3 630 623 541
3 630 541 547
3 547 542 624
3 547 624 630
3 549 632 631
3 627 549 631
3 545 549 627
3 632 633 631
3 628 634 546
3 546 634 550
3 636 635 552
3 550 636 552
3 634 636 550
3 638 637 635
3 638 635 636
3 639 637 638
3 553 632 549
3 553 554 632
3 554 633 632
3 554 640 633
3 635 555 552
3 555 635 557
3 557 635 637
3 642 641 558
3 642 558 557
3 639 642 557
3 637 639 557
3 643 641 642
3 560 645 644
3 640 560 644
3 554 560 640
3 646 561 641
3 641 561 558
3 641 643 647
3 641 647 646
3 562 645 560
3 646 563 561
3 565 563 646
3 647 565 646
3 648 565 647
3 651 650 649
3 648 652 565
3 565 652 567
3 568 567 652
3 568 652 653
3 651 649 569
3 570 651 569
3 654 651 570
3 656 571 655
3 571 653 655
3 571 568 653
3 657 656 655
3 659 658 573
3 659 573 574
3 570 573 654
3 654 573 658
3 656 575 571
3 577 575 656
3 657 577 656
3 660 577 657
3 578 659 574
3 578 661 659
3 662 579 581
3 663 662 581
3 577 663 581
3 660 663 577
3 578 582 664
3 665 578 664
3 661 578 665
3 583 664 582
3 662 584 579
3 585 584 662
3 663 585 662
3 666 585 663
3 665 664 667
3 665 667 668
3 586 667 583
3 583 667 664
3 670 587 669
3 587 666 669
3 587 585 666
3 671 670 669
3 668 667 589
3 590 668 589
3 672 668 590
3 589 667 586
3 670 591 587
3 674 673 592
3 674 592 591
3 671 674 591
3 670 671 591
3 675 673 674
3 678 677 676
3 594 595 676
3 677 594 676
3 679 594 677
3 590 594 672
3 672 594 679
3 673 597 592
3 598 597 673
3 680 598 673
3 675 680 673
3 681 598 680
3 598 681 682
3 683 598 682
3 599 598 683
3 599 684 600
3 683 684 599
3 676 601 678
3 601 684 678
3 601 600 684
3 601 676 595
3 687 686 685
3 689 688 685
3 685 688 687
3 691 690 689
3 689 690 688
3 691 692 690
3 695 694 693
3 695 693 686
3 686 693 685
3 693 604 685
3 604 603 685
3 685 603 606
3 685 606 689
3 689 606 607
3 689 607 691
3 607 609 691
3 609 692 691
3 609 696 692
3 693 694 611
3 694 610 611
3 694 697 610
3 693 611 604
3 698 696 609
3 698 609 612
3 612 614 698
3 698 614 699
3 701 700 616
3 616 700 615
3 616 610 697
3 616 697 701
3 702 699 614
3 702 614 617
3 617 618 702
3 702 618 703
3 705 704 621
3 621 704 620
3 706 621 622
3 706 705 621
3 622 623 706
3 706 623 707
3 709 708 625
3 625 708 624
3 625 615 700
3 625 700 709
3 710 703 618
3 710 618 626
3 626 627 710
3 710 627 711
3 712 628 629
3 620 704 713
3 712 620 713
3 714 712 713
3 629 620 712
3 715 714 713
3 716 707 623
3 716 623 630
3 630 624 708
3 630 708 716
3 717 711 627
3 717 627 631
3 631 633 717
3 717 633 718
3 712 634 628
3 634 712 636
3 636 712 714
3 715 719 714
3 719 636 714
3 719 638 636
3 721 720 639
3 638 721 639
3 719 721 638
3 722 720 721
3 640 724 723
3 718 640 723
3 633 640 718
3 720 642 639
3 643 642 720
3 722 643 720
3 725 643 722
3 644 724 640
3 727 647 726
3 647 725 726
3 647 643 725
3 728 727 726
3 730 729 727
3 729 647 727
3 729 648 647
3 730 727 728
3 732 731 650
3 732 650 651
3 729 733 648
3 648 733 652
3 653 652 733
3 653 733 734
3 737 736 735
3 736 732 735
3 732 654 735
3 732 651 654
3 655 653 738
3 653 739 738
3 653 734 739
3 738 657 655
3 737 735 658
3 659 737 658
3 740 737 659
3 658 735 654
3 739 741 738
3 657 738 741
3 742 657 741
3 660 657 742
3 661 740 659
3 661 743 740
3 742 663 660
3 744 663 742
3 665 743 661
3 665 745 743
3 747 666 746
3 666 744 746
3 666 663 744
3 748 747 746
3 668 745 665
3 668 749 745
3 747 669 666
3 671 669 747
3 748 671 747
3 750 671 748
3 753 752 751
3 755 754 751
3 755 751 752
3 755 749 754
3 749 672 754
3 749 668 672
3 750 756 671
3 671 756 674
3 675 674 756
3 675 756 757
3 753 751 677
3 678 753 677
3 758 753 678
3 677 751 679
3 679 751 754
3 679 754 672
3 760 680 759
3 680 757 759
3 680 675 757
3 683 682 760
3 759 683 760
3 761 683 759
3 683 762 684
3 761 762 683
3 678 684 758
3 758 684 762
3 765 764 763
3 767 766 763
3 763 766 765
3 767 768 766
3 771 770 769
3 771 769 764
3 764 769 763
3 769 686 763
3 686 687 763
3 763 687 688
3 763 688 767
3 772 768 767
3 688 772 767
3 690 772 688
3 690 692 772
3 772 692 773
3 769 770 695
3 770 694 695
3 770 774 694
3 769 695 686
3 696 776 775
3 773 696 775
3 692 696 773
3 776 777 775
3 780 779 778
3 774 780 778
3 697 774 778
3 694 774 697
3 698 776 696
3 698 699 776
3 699 777 776
3 699 781 777
3 778 779 701
3 779 700 701
3 779 782 700
3 778 701 697
3 783 781 699
3 783 699 702
3 702 703 783
3 783 703 784
3 785 704 705
3 706 786 705
3 705 786 785
3 707 786 706
3 787 708 709
3 788 787 709
3 700 788 709
3 782 788 700
3 789 784 703
3 789 703 710
3 710 711 789
3 789 711 790
3 785 713 704
3 713 785 715
3 785 791 715
3 785 786 791
3 716 792 707
3 792 786 707
3 792 791 786
3 708 787 716
3 787 792 716
3 787 793 792
3 787 788 794
3 787 794 793
3 795 790 711
3 795 711 717
3 717 718 795
3 795 718 796
3 791 719 715
3 719 791 721
3 721 791 792
3 792 793 797
3 722 792 797
3 798 722 797
3 792 722 721
3 797 793 794
3 799 796 718
3 799 718 723
3 801 725 800
3 725 798 800
3 725 722 798
3 802 801 800
3 804 726 803
3 726 725 803
3 803 725 801
3 805 803 801
3 801 802 805
3 726 804 728
3 804 803 730
3 803 729 730
3 803 806 729
3 804 730 728
3 808 807 731
3 808 731 732
3 733 729 809
3 729 810 809
3 729 806 810
3 809 734 733
3 812 811 736
3 812 736 737
3 732 736 808
3 808 736 811
3 810 813 809
3 734 809 813
3 814 734 813
3 739 734 814
3 740 812 737
3 740 815 812
3 814 816 739
3 739 816 741
3 742 741 816
3 742 816 817
3 743 815 740
3 743 818 815
3 820 744 819
3 744 817 819
3 744 742 817
3 821 820 819
3 745 818 743
3 745 822 818
3 820 746 744
3 748 746 820
3 821 748 820
3 823 748 821
3 826 825 824
3 825 822 824
3 822 749 824
3 822 745 749
3 828 750 827
3 750 823 827
3 750 748 823
3 829 828 827
3 831 830 752
3 831 752 753
3 824 755 826
3 755 830 826
3 755 752 830
3 755 824 749
3 828 756 750
3 833 832 757
3 833 757 756
3 829 833 756
3 828 829 756
3 834 832 833
3 837 836 835
3 836 831 835
3 831 758 835
3 831 753 758
3 832 759 757
3 834 838 832
3 838 759 832
3 838 761 759
3 835 762 837
3 762 838 837
3 762 761 838
3 762 835 758
3 841 840 839
3 764 765 839
3 765 841 839
3 765 842 841
3 843 765 766
3 843 842 765
3 845 844 768
3 844 766 768
3 844 843 766
3 845 846 844
3 839 840 771
3 840 770 771
3 840 847 770
3 839 771 764
3 772 845 768
3 772 773 845
3 773 846 845
3 773 848 846
3 847 774 770
3 849 774 847
3 850 848 773
3 850 773 775
3 775 777 850
3 850 777 851
3 853 852 780
3 780 852 779
3 780 774 849
3 780 849 853
3 781 855 854
3 851 781 854
3 777 781 851
3 855 856 854
3 858 782 857
3 782 852 857
3 782 779 852
3 859 858 857
3 783 855 781
3 861 860 784
3 784 860 783
3 860 856 783
3 856 855 783
3 861 862 860
3 863 788 858
3 858 788 782
3 858 859 864
3 858 864 863
3 789 861 784
3 866 865 790
3 790 865 789
3 865 862 789
3 862 861 789
3 866 867 865
3 869 868 863
3 868 788 863
3 868 794 788
3 869 863 864
3 795 866 790
3 871 870 796
3 796 870 795
3 870 867 795
3 867 866 795
3 872 798 797
3 873 872 797
3 794 873 797
3 868 873 794
3 799 871 796
3 875 800 874
3 800 798 874
3 874 798 872
3 876 874 872
3 872 873 876
3 800 875 802
3 875 874 805
3 874 803 805
3 874 877 803
3 875 805 802
3 880 879 878
3 883 882 881
3 877 883 881
3 806 877 881
3 803 877 806
3 880 878 807
3 808 880 807
3 884 880 808
3 881 882 885
3 885 882 886
3 885 810 806
3 885 806 881
3 888 887 811
3 888 811 812
3 808 811 884
3 884 811 887
3 886 889 885
3 885 889 810
3 889 813 810
3 889 890 813
3 892 891 814
3 813 892 814
3 890 892 813
3 894 893 891
3 894 891 892
3 895 893 894
3 815 888 812
3 815 896 888
3 891 816 814
3 816 891 817
3 891 897 817
3 891 893 897
3 893 895 898
3 893 898 897
3 818 896 815
3 818 899 896
3 897 819 817
3 821 819 897
3 898 821 897
3 900 821 898
3 822 899 818
3 822 901 899
3 903 823 902
3 823 900 902
3 823 821 900
3 904 903 902
3 907 906 905
3 825 826 905
3 906 825 905
3 908 825 906
3 822 825 901
3 901 825 908
3 903 827 823
3 910 909 829
3 910 829 827
3 904 910 827
3 903 904 827
3 911 909 910
3 907 905 830
3 831 907 830
3 912 907 831
3 830 905 826
3 909 833 829
3 834 833 909
3 911 834 909
3 913 834 911
3 915 914 836
3 915 836 837
3 831 836 912
3 912 836 914
3 913 916 834
3 834 916 838
3 837 838 915
3 915 838 916
3 919 918 917
3 921 920 917
3 917 920 919
3 921 922 920
3 924 923 841
3 841 923 840
3 842 917 918
3 924 842 918
3 841 842 924
3 917 842 843
3 917 843 921
3 925 922 921
3 843 925 921
3 844 925 843
3 844 846 925
3 925 846 926
3 923 847 840
3 927 847 923
3 848 926 846
3 848 928 926
3 927 849 847
3 929 849 927
3 930 928 848
3 930 848 850
3 850 851 930
3 930 851 931
3 932 852 853
3 933 932 853
3 849 933 853
3 929 933 849
3 934 931 851
3 934 851 854
3 854 856 934
3 934 856 935
3 932 857 852
3 859 857 932
3 933 859 932
3 936 859 933
3 937 935 856
3 937 856 860
3 939 938 862
3 938 860 862
3 938 937 860
3 939 940 938
3 936 864 859
3 941 864 936
3 865 939 862
3 943 942 867
3 867 942 865
3 942 940 865
3 940 939 865
3 945 944 869
3 869 944 868
3 869 864 941
3 869 941 945
3 870 943 867
3 948 947 946
3 944 948 946
3 873 944 946
3 868 944 873
3 946 947 876
3 947 874 876
3 947 949 874
3 946 876 873
3 952 951 950
3 955 954 953
3 949 955 953
3 877 949 953
3 874 949 877
3 952 950 879
3 880 952 879
3 956 952 880
3 953 954 883
3 954 882 883
3 954 957 882
3 953 883 877
3 960 959 958
3 959 956 958
3 956 884 958
3 956 880 884
3 962 886 961
3 886 957 961
3 886 882 957
3 964 963 962
3 964 962 961
3 966 965 963
3 966 963 964
3 967 965 966
3 960 958 887
3 888 960 887
3 968 960 888
3 887 958 884
3 962 889 886
3 889 962 890
3 890 962 963
3 890 963 892
3 892 963 965
3 967 969 965
3 969 892 965
3 969 894 892
3 895 894 969
3 895 969 970
3 896 972 971
3 968 896 971
3 888 896 968
3 972 973 971
3 975 898 974
3 898 970 974
3 898 895 970
3 976 975 974
3 978 977 972
3 896 978 972
3 899 978 896
3 972 977 973
3 979 900 975
3 975 900 898
3 975 976 980
3 975 980 979
3 983 982 981
3 982 978 981
3 978 901 981
3 978 899 901
3 979 902 900
3 904 902 979
3 980 904 979
3 984 904 980
3 986 985 906
3 986 906 907
3 981 908 983
3 908 985 983
3 908 906 985
3 908 981 901
3 984 987 904
3 904 987 910
3 911 910 987
3 911 987 988
3 991 990 989
3 990 986 989
3 986 912 989
3 986 907 912
3 993 913 992
3 913 988 992
3 913 911 988
3 914 915 994
3 992 995 993
3 996 991 989
3 996 989 997
3 989 912 997
3 914 994 997
3 914 997 912
3 993 916 913
3 993 995 916
3 995 998 916
3 994 915 916
3 994 916 998
3 994 998 997
3 999 918 919
3 999 919 1000
3 919 1001 1000
3 919 920 1001
3 920 922 1001
3 1001 922 1002
3 1003 923 924
3 1004 1003 924
3 1004 924 918
3 1005 1004 918
3 999 1005 918
3 1005 999 1000
3 1006 1002 922
3 1006 922 925
3 925 926 1006
3 1006 926 1007
3 1009 1008 1003
3 1008 923 1003
3 1008 927 923
3 1009 1003 1004
3 928 1007 926
3 928 1010 1007
3 1012 929 1011
3 929 1008 1011
3 929 927 1008
3 1013 1012 1011
3 928 930 1014
3 1015 928 1014
3 1010 928 1015
3 931 1014 930
3 1016 933 1012
3 1012 933 929
3 1012 1013 1017
3 1012 1017 1016
3 1018 1015 1014
3 1018 1014 931
3 934 1018 931
3 1019 1018 934
3 934 935 1019
3 1019 935 1020
3 1021 936 1016
3 1016 936 933
3 1016 1017 1022
3 1023 1016 1022
3 1021 1016 1023
3 1024 1023 1022
3 1025 1020 935
3 1025 935 937
3 1026 937 938
3 1026 1025 937
3 938 940 1026
3 1026 940 1027
3 1028 941 1021
3 1021 941 936
3 1029 1021 1023
3 1028 1021 1029
3 1023 1024 1030
3 1023 1030 1029
3 1031 1027 940
3 1031 940 942
3 1033 1032 945
3 945 1032 944
3 945 941 1028
3 1034 945 1028
3 1033 945 1034
3 1034 1028 1029
3 1034 1029 1035
3 1035 1029 1030
3 1037 1036 948
3 948 1036 947
3 948 944 1032
3 948 1032 1037
3 1040 1039 1038
3 1043 1042 1041
3 1036 1043 1041
3 949 1036 1041
3 947 1036 949
3 1046 1045 1044
3 1048 1047 1044
3 1048 1044 1045
3 1047 1048 1040
3 1047 1040 1038
3 952 1047 1038
3 951 952 1038
3 1051 1050 1049
3 1053 1052 1049
3 1049 1052 1051
3 1052 1053 1042
3 1042 1053 1041
3 1053 954 1041
3 954 955 1041
3 1041 955 949
3 1054 1046 1044
3 1056 1055 1054
3 1044 1056 1054
3 1047 1056 1044
3 956 1056 952
3 952 1056 1047
3 1050 1057 1049
3 1049 1057 1053
3 1053 1057 1058
3 957 954 1053
3 1059 957 1053
3 1058 1059 1053
3 957 1059 1060
3 1061 1060 1059
3 1064 1063 1062
3 1065 1062 1063
3 1055 1056 959
3 960 1055 959
3 1066 1055 960
3 959 1056 956
3 1060 961 957
3 1061 1067 1060
3 1067 961 1060
3 1067 964 961
3 964 1068 966
3 1067 1068 964
3 1070 1069 967
3 966 1070 967
3 1068 1070 966
3 1064 1062 1071
3 1070 1072 1069
3 1071 1062 1065
3 968 1074 1073
3 1066 968 1073
3 960 968 1066
3 1074 1075 1073
3 1069 969 967
3 970 969 1069
3 1072 970 1069
3 1076 970 1072
3 971 1074 968
3 971 973 1074
3 973 1075 1074
3 973 1077 1075
3 1076 1078 970
3 970 1078 974
3 976 974 1078
3 976 1078 1079
3 1081 1080 977
3 1081 977 978
3 973 977 1077
3 1077 977 1080
3 1079 980 976
3 1082 980 1079
3 1085 1084 1083
3 1087 1086 1083
3 1087 1083 1084
3 982 983 1086
3 1087 982 1086
3 1088 982 1087
3 978 982 1081
3 1081 982 1088
3 1090 984 1089
3 984 1082 1089
3 984 980 1082
3 1092 1091 1090
3 1092 1090 1089
3 1091 1092 1085
3 1083 1091 1085
3 1093 1091 1083
3 986 1093 985
3 1093 1086 985
3 1093 1083 1086
3 985 1086 983
3 1090 987 984
3 987 1090 988
3 1090 1094 988
3 1090 1091 1094
3 991 1094 990
3 1094 1093 990
3 1094 1091 1093
3 990 1093 986
3 1094 992 988
3 995 992 1095
3 992 1094 1095
3 991 996 1095
3 991 1095 1094
3 997 1095 996
3 1095 998 995
3 998 1095 997
3 1096 1000 1001
3 1002 1096 1001
3 1098 1097 1005
3 1005 1097 1004
3 1005 1000 1096
3 1099 1005 1096
3 1098 1005 1099
3 1101 1099 1100
3 1100 1099 1006
3 1099 1096 1006
3 1096 1002 1006
3 1007 1100 1006
3 1102 1008 1009
3 1103 1102 1009
3 1004 1103 1009
3 1097 1103 1004
3 1101 1100 1104
3 1101 1104 1105
3 1010 1104 1007
3 1007 1104 1100
3 1102 1011 1008
3 1107 1106 1013
3 1107 1013 1011
3 1103 1107 1011
3 1102 1103 1011
3 1108 1106 1107
3 1105 1104 1109
3 1105 1109 1110
3 1015 1109 1010
3 1010 1109 1104
3 1111 1017 1106
3 1106 1017 1013
3 1106 1108 1112
3 1113 1106 1112
3 1111 1106 1113
3 1113 1112 1110
3 1109 1113 1110
3 1114 1113 1109
3 1018 1115 1015
3 1115 1109 1015
3 1115 1114 1109
3 1019 1116 1018
3 1018 1116 1115
3 1020 1116 1019
3 1111 1022 1017
3 1022 1111 1024
3 1111 1117 1024
3 1111 1113 1117
3 1118 1113 1114
3 1117 1113 1118
3 1115 1120 1119
3 1118 1115 1119
3 1114 1115 1118
3 1120 1115 1116
3 1120 1116 1121
3 1121 1116 1020
3 1025 1121 1020
3 1122 1121 1025
3 1123 1025 1026
3 1123 1122 1025
3 1125 1124 1027
3 1124 1026 1027
3 1124 1123 1026
3 1126 1030 1117
3 1117 1030 1024
3 1127 1117 1118
3 1126 1117 1127
3 1118 1119 1128
3 1118 1128 1127
3 1031 1125 1027
3 1129 1032 1033
3 1034 1130 1033
3 1033 1130 1129
3 1035 1131 1034
3 1034 1131 1130
3 1030 1126 1035
3 1126 1131 1035
3 1126 1132 1131
3 1127 1134 1133
3 1132 1127 1133
3 1126 1127 1132
3 1137 1136 1135
3 1128 1134 1127
3 1138 1136 1137
3 1141 1140 1139
3 1036 1037 1139
3 1037 1141 1139
3 1037 1142 1141
3 1037 1032 1129
3 1143 1037 1129
3 1142 1037 1143
3 1143 1129 1130
3 1143 1130 1144
3 1144 1130 1131
3 1144 1131 1145
3 1147 1146 1145
3 1131 1147 1145
3 1132 1147 1131
3 1132 1133 1148
3 1132 1148 1147
3 1135 1136 1149
3 1135 1149 1150
3 1136 1138 1151
3 1152 1136 1151
3 1149 1136 1152
3 1154 1153 1152
3 1154 1152 1151
3 1156 1155 1153
3 1156 1153 1154
3 1039 1040 1155
3 1156 1039 1155
3 1157 1039 1156
3 1160 1159 1158
3 1160 1158 1140
3 1140 1158 1139
3 1158 1042 1139
3 1042 1043 1139
3 1139 1043 1036
3 1163 1162 1161
3 1161 1162 1146
3 1147 1161 1146
3 1164 1161 1147
3 1147 1148 1165
3 1166 1147 1165
3 1164 1147 1166
3 1166 1165 1150
3 1149 1166 1150
3 1167 1166 1149
3 1168 1149 1152
3 1167 1149 1168
3 1046 1168 1045
3 1168 1153 1045
3 1168 1152 1153
3 1045 1153 1048
3 1048 1153 1155
3 1048 1155 1040
3 1169 1050 1051
3 1052 1158 1051
3 1159 1051 1158
3 1051 1159 1169
3 1170 1169 1159
3 1169 1170 1171
3 1052 1042 1158
3 1171 1170 1172
3 1175 1174 1173
3 1173 1174 1163
3 1161 1173 1163
3 1176 1173 1161
3 1177 1161 1164
3 1176 1161 1177
3 1178 1164 1166
3 1177 1164 1178
3 1179 1166 1167
3 1178 1166 1179
3 1180 1167 1168
3 1179 1167 1180
3 1054 1181 1046
3 1181 1168 1046
3 1181 1180 1168
3 1055 1181 1054
3 1169 1057 1050
3 1057 1169 1058
3 1058 1169 1171
3 1172 1182 1171
3 1182 1058 1171
3 1182 1059 1058
3 1184 1183 1061
3 1059 1184 1061
3 1182 1184 1059
3 1186 1185 1183
3 1186 1183 1184
3 1185 1186 1175
3 1173 1185 1175
3 1187 1185 1173
3 1064 1187 1063
3 1187 1176 1063
3 1187 1173 1176
3 1063 1176 1065
3 1176 1188 1065
3 1176 1177 1188
3 1189 1177 1178
3 1188 1177 1189
3 1179 1191 1190
3 1189 1179 1190
3 1178 1179 1189
3 1191 1179 1180
3 1191 1180 1192
3 1194 1193 1192
3 1180 1194 1192
3 1181 1194 1180
3 1066 1194 1055
3 1055 1194 1181
3 1183 1067 1061
3 1067 1183 1068
3 1068 1183 1185
3 1068 1185 1070
3 1070 1185 1187
3 1072 1070 1195
3 1070 1187 1195
3 1064 1071 1195
3 1064 1195 1187
3 1065 1188 1071
3 1188 1195 1071
3 1188 1196 1195
3 1189 1198 1197
3 1196 1189 1197
3 1188 1189 1196
3 1198 1189 1190
3 1199 1193 1194
3 1199 1194 1066
3 1073 1199 1066
3 1200 1199 1073
3 1073 1075 1200
3 1200 1075 1201
3 1202 1076 1195
3 1195 1076 1072
3 1196 1204 1203
3 1202 1196 1203
3 1195 1196 1202
3 1204 1196 1197
3 1077 1201 1075
3 1077 1205 1201
3 1202 1078 1076
3 1079 1078 1202
3 1203 1079 1202
3 1206 1079 1203
3 1209 1208 1207
3 1211 1210 1207
3 1211 1207 1208
3 1212 1210 1211
3 1214 1213 1080
3 1214 1080 1081
3 1077 1080 1205
3 1205 1080 1213
3 1216 1082 1215
3 1082 1206 1215
3 1082 1079 1206
3 1218 1217 1216
3 1218 1216 1215
3 1217 1218 1209
3 1217 1209 1207
3 1085 1217 1207
3 1084 1085 1207
3 1084 1207 1087
3 1087 1207 1210
3 1212 1219 1210
3 1219 1087 1210
3 1219 1088 1087
3 1081 1088 1214
3 1214 1088 1219
3 1216 1089 1082
3 1089 1216 1092
3 1092 1216 1217
3 1092 1217 1085
3 1220 1097 1098
3 1099 1221 1098
3 1098 1221 1220
3 1101 1221 1099
3 1222 1103 1220
3 1220 1103 1097
3 1223 1220 1221
3 1222 1220 1223
3 1105 1223 1101
3 1101 1223 1221
3 1222 1107 1103
3 1107 1222 1108
3 1222 1224 1108
3 1222 1223 1224
3 1110 1224 1105
3 1105 1224 1223
3 1224 1112 1108
3 1112 1224 1110
3 1225 1119 1120
3 1121 1226 1120
3 1120 1226 1225
3 1122 1227 1121
3 1121 1227 1226
3 1227 1122 1228
3 1122 1229 1228
3 1122 1123 1229
3 1230 1123 1124
3 1230 1229 1123
3 1231 1128 1225
3 1225 1128 1119
3 1232 1225 1226
3 1231 1225 1232
3 1233 1226 1227
3 1232 1226 1233
3 1227 1228 1234
3 1235 1227 1234
3 1233 1227 1235
3 1236 1235 1234
3 1239 1238 1237
3 1237 1240 1239
3 1241 1133 1134
3 1134 1128 1241
3 1128 1231 1241
3 1137 1135 1241
3 1137 1241 1231
3 1137 1231 1138
3 1231 1242 1138
3 1231 1232 1242
3 1243 1232 1233
3 1242 1232 1243
3 1244 1233 1235
3 1243 1233 1244
3 1235 1236 1245
3 1246 1235 1245
3 1244 1235 1246
3 1248 1247 1141
3 1141 1247 1140
3 1142 1237 1238
3 1248 1142 1238
3 1141 1142 1248
3 1249 1240 1237
3 1142 1249 1237
3 1143 1249 1142
3 1251 1249 1250
3 1249 1144 1250
3 1249 1143 1144
3 1145 1252 1144
3 1144 1252 1250
3 1146 1252 1145
3 1253 1148 1241
3 1241 1148 1133
3 1150 1253 1135
3 1135 1253 1241
3 1242 1151 1138
3 1151 1242 1154
3 1154 1242 1243
3 1154 1243 1156
3 1156 1243 1244
3 1156 1244 1157
3 1157 1244 1246
3 1254 1159 1160
3 1255 1254 1160
3 1140 1255 1160
3 1247 1255 1140
3 1251 1250 1256
3 1251 1256 1257
3 1163 1256 1162
3 1256 1252 1162
3 1256 1250 1252
3 1162 1252 1146
3 1253 1165 1148
3 1165 1253 1150
3 1254 1170 1159
3 1259 1258 1172
3 1259 1172 1170
3 1255 1259 1170
3 1254 1255 1170
3 1261 1260 1258
3 1261 1258 1259
3 1263 1262 1260
3 1263 1260 1261
3 1262 1263 1257
3 1262 1257 1256
3 1175 1262 1256
3 1174 1175 1256
3 1174 1256 1163
3 1258 1182 1172
3 1182 1258 1184
3 1184 1258 1260
3 1184 1260 1186
3 1186 1260 1262
3 1186 1262 1175
3 1264 1190 1191
3 1192 1265 1191
3 1191 1265 1264
3 1193 1265 1192
3 1266 1197 1198
3 1190 1264 1198
3 1264 1266 1198
3 1264 1267 1266
3 1268 1264 1265
3 1267 1264 1268
3 1268 1265 1193
3 1269 1268 1193
3 1199 1269 1193
3 1270 1268 1269
3 1272 1269 1271
3 1269 1200 1271
3 1269 1199 1200
3 1201 1271 1200
3 1273 1203 1204
3 1197 1266 1204
3 1266 1273 1204
3 1266 1274 1273
3 1275 1266 1267
3 1274 1266 1275
3 1276 1267 1268
3 1275 1267 1276
3 1268 1270 1277
3 1268 1277 1276
3 1272 1271 1278
3 1272 1278 1279
3 1205 1278 1201
3 1201 1278 1271
3 1280 1206 1273
3 1273 1206 1203
3 1281 1273 1274
3 1280 1273 1281
3 1209 1281 1208
3 1281 1275 1208
3 1281 1274 1275
3 1208 1275 1211
3 1211 1275 1276
3 1283 1282 1212
3 1283 1212 1211
3 1277 1283 1211
3 1276 1277 1211
3 1282 1283 1279
3 1282 1279 1278
3 1214 1282 1278
3 1213 1214 1278
3 1213 1278 1205
3 1280 1215 1206
3 1215 1280 1218
3 1218 1280 1281
3 1218 1281 1209
3 1282 1219 1212
3 1219 1282 1214
3 1284 1228 1229
3 1230 1285 1229
3 1229 1285 1284
3 1284 1234 1228
3 1234 1284 1236
3 1284 1286 1236
3 1284 1285 1286
3 1288 1287 1239
3 1239 1287 1238
3 1239 1240 1288
3 1288 1240 1289
3 1286 1245 1236
3 1291 1290 1248
3 1248 1290 1247
3 1248 1238 1287
3 1248 1287 1291
3 1292 1289 1240
3 1292 1240 1249
3 1249 1251 1292
3 1292 1251 1293
3 1295 1255 1294
3 1255 1290 1294
3 1255 1247 1290
3 1296 1295 1294
3 1299 1298 1297
3 1298 1293 1297
3 1293 1257 1297
3 1293 1251 1257
3 1295 1259 1255
3 1296 1300 1295
3 1300 1259 1295
3 1300 1261 1259
3 1297 1263 1299
3 1263 1300 1299
3 1263 1261 1300
3 1263 1297 1257
3 1301 1270 1269
3 1272 1301 1269
3 1302 1277 1301
3 1301 1277 1270
3 1279 1302 1272
3 1272 1302 1301
3 1302 1283 1277
3 1283 1302 1279
3 1304 1303 1288
3 1288 1303 1287
3 1288 1289 1304
3 1304 1289 1305
3 1306 1290 1291
3 1307 1306 1291
3 1287 1307 1291
3 1303 1307 1287
3 1289 1292 1308
3 1309 1289 1308
3 1305 1289 1309
3 1293 1308 1292
3 1306 1294 1290
3 1311 1310 1296
3 1311 1296 1294
3 1307 1311 1294
3 1306 1307 1294
3 1310 1311 1309
3 1310 1309 1308
3 1299 1310 1308
3 1298 1299 1308
3 1298 1308 1293
3 1310 1300 1296
3 1300 1310 1299