OFF
1224 2382 0
1.3418953500 13.5061173422 11.5073137675
1.6494994252 13.4359257512 10.5844530584
1.7238207891 12.8405668127 11.2065776736
1.6518331059 12.8761582010 11.9511868395
1.2798639919 13.5280829676 12.3933353278
1.6224035245 13.0017987177 12.6636705901
1.2050838478 14.3482647875 11.1940916415
1.4968248917 14.4829630557 10.3879386630
1.0369858281 14.3447687155 12.1767780941
1.4119371352 13.4523921730 13.1280594202
1.0869609432 14.2893672529 13.3225780415
1.5286917568 13.6872862061 14.0671012904
1.1472051705 14.5764736673 14.5156275011
1.4797902828 14.1349209794 14.9309931389
1.3010757194 14.7473148782 15.3972561877
1.6966204028 14.2871263956 15.6096779284
1.2417476870 15.2363488838 10.9918739753
1.4845637367 15.1326238540 10.3960561553
0.9779076916 15.3166732606 11.9682154467
0.8641107208 15.3300880174 13.0663144168
0.8966324943 15.3828309830 14.1890876743
1.0451509512 15.4513322525 15.2087812248
1.5287769037 14.8340478779 15.9806651960
1.3225936061 15.4153773759 15.9976483164
1.6543208338 15.2204876177 16.4295271079
1.5808286614 15.8647936762 10.6054268939
1.1659205079 16.3700685317 11.7602417066
1.6455468492 16.9382971253 11.1683816804
0.8805773182 16.3772876114 12.9170395485
0.8176617375 16.3773895474 14.0051095230
0.9144684146 16.3892222255 15.0387457971
1.1754162775 16.3139498518 15.9776606077
1.6273338770 16.0183796464 16.7558257083
1.3239899404 17.4489119816 12.0378988811
1.6596905796 17.6887838445 11.6588561207
1.0462758110 17.3771655526 12.8456241995
0.9237548371 17.4386280965 13.9407251293
0.9151720951 17.3015853016 14.8452265200
1.1054168932 17.4763271205 15.8732862305
1.4380831106 17.1073182270 16.7926921763
1.5332612547 18.0563971454 12.1563374507
1.3099391671 18.1326971283 12.7523318971
1.7085226500 18.5999588380 12.5617942877
1.1812298253 18.3137898065 13.7059196527
1.1967162293 18.7071765285 15.2661302517
1.1920431408 18.3995978265 16.3020878446
1.3282016151 17.9520622890 16.7643601886
1.5009907314 18.7536929210 13.2584246181
1.5784514865 19.2178142595 14.1308570891
1.5398806745 19.5342528542 14.9351541397
1.7324500471 20.1579279031 15.6468658683
1.3117140175 19.8524313119 16.6551031537
1.2128915733 19.0456692690 16.5236122876
1.2898623853 19.4454590620 17.3437076099
1.3006048723 20.1266716439 17.7573565857
1.3625163833 19.7229245631 18.0850832003
1.9224007366 19.8094307114 21.8322376686
2.0013748197 19.9002739030 21.5638995847
1.9218112573 19.6977345037 21.7226549648
2.0583934660 19.6415372573 21.8994769557
1.5896060082 20.5690213920 16.6380779145
2.0148668728 20.8791500617 16.3582040192
1.4745345193 20.6302499866 17.4555969033
1.3896485171 20.1457711402 18.4918010331
1.4951410685 20.6734876836 18.4838597579
1.5908816212 20.2969510811 19.2068965201
1.6744758562 20.7974478911 19.2705884077
1.9148686010 20.5338129471 19.8921005026
2.1771799836 19.8906463748 21.7364307770
1.9548226075 21.0651927494 17.1578110424
1.8731259111 21.1110936771 18.0874668605
1.8969307939 21.0931494502 18.9503344285
1.9730304650 20.9718614728 19.5721303495
2.1690296966 12.3817793485 10.6856203833
2.4711742094 12.1921074541 9.9676155396
2.8136259569 11.5488557675 10.5433205436
2.5631285837 11.7956127503 11.2885765835
2.1461542041 12.9261516174 9.8676656256
2.3996466080 13.3374373782 9.1466521376
2.5162438282 12.5455002911 9.4003955084
2.1289539946 12.2937429383 11.6187728271
2.1884447445 12.3985663380 12.6644129698
1.8703356892 12.9642897527 13.4233751634
2.6317916184 12.3620102708 13.9294756703
2.0812354345 13.0764087625 14.2448830893
2.4957156269 12.9231855772 14.8100605262
1.9378267461 13.9029979331 9.7506544877
2.3412770391 14.3869931790 9.0823349324
2.0005615490 13.5939438646 15.0472469584
2.1685706488 13.9991018596 15.9028117663
1.8598288130 14.9974989370 9.8543087289
2.3432009830 15.3363657533 9.2793492147
1.9239332298 14.6338142986 16.2913413507
2.0626861789 15.2706194670 16.9294692472
2.0877477364 15.9357197325 9.9094293533
1.9150647104 16.4795385225 10.4641821865
2.2639835271 16.6396633501 10.1211298132
2.0928397527 15.9983364187 17.4145738846
1.8925919837 16.8062640848 17.5177800000
2.3062855344 16.4325638762 17.9822100085
2.0876916476 17.0332149279 10.6372812944
2.0696171657 17.6607551006 11.1612308395
1.7147194239 17.9838575744 17.7581382678
2.2122904976 17.2649681280 18.3212711447
1.9355330459 18.2627063816 11.8530717369
2.2002788195 18.8801535258 12.2549706501
1.3475959569 18.6738118652 17.1008991188
1.5113507716 19.0731799719 17.9959782015
2.1243733293 18.0334865176 18.6870043252
1.9012414962 18.8121905510 18.9110031558
2.2489110074 18.3352654669 19.3041943520
2.2030036769 19.1641918152 20.9701810461
2.2554191011 18.8911322208 20.3424084234
2.4928484841 18.5882986008 20.7566606856
2.5792556768 18.8343952332 21.4505538138
2.1272060692 19.3869839084 21.6197674076
2.3976797849 19.3172393768 21.8879641954
2.0289248122 19.2744606630 13.1244221405
2.0848667691 19.7482969008 13.8849019768
2.5259226869 19.8957994961 13.3553743405
1.9288558225 19.9381994272 14.6241008910
1.5792630139 19.6482922816 18.8078710822
2.1758161979 18.8026765298 19.7401446468
1.9712151007 19.6022763968 20.0395532755
2.0376767392 19.6854820412 21.2090485028
2.3789987720 19.6397425278 21.9407152880
2.5223096045 20.2676840631 14.0883364205
2.4082011160 20.5615993501 14.9403369799
2.4809761772 20.9698661220 15.7377422942
2.4730098688 20.2634731859 20.8991885019
2.2735858497 20.8404030312 20.0430663883
2.7914395705 19.8386058957 21.7370825036
2.7618734623 21.4058360866 16.6950470467
2.6287303365 21.4140566913 17.8295865286
2.4081531379 21.3193504103 18.6496092560
2.5271487928 21.1707549743 19.4609475019
3.3723546550 11.0427097575 9.2950070327
3.5863460045 10.9790943520 8.6079076532
3.7585553337 10.5060292076 9.1173321636
3.6877431296 10.4624578042 9.9711123314
3.2165260401 11.0618355763 10.0381465647
3.4529584964 10.7453678412 10.8291510226
3.2772424628 11.7654302130 8.4825341702
3.5337252298 11.9395056899 7.6335003107
3.6476934103 11.2978498620 7.9735755303
2.8977231401 11.7878143686 9.4836199069
3.1058564594 11.2191456636 11.5375417781
2.7014407517 11.7439531928 12.1223726489
3.3604757859 11.1579642321 12.5566280608
2.9153319977 11.7714492080 13.1049423368
3.5131301111 11.3002316487 13.5749285459
3.1112032724 11.7771479961 13.7573763118
3.3836722153 11.7422354372 14.3793551256
3.2563428732 12.8437985077 7.7614955346
3.6186057920 13.3408347274 6.8203541247
3.6546869919 12.4019519143 7.0472028484
2.8322626634 12.6492420877 8.7368885686
3.0799116452 12.4229934208 15.0703195652
2.7066449517 13.3048902155 15.7816392966
3.4475791342 12.6099788905 16.1311203928
3.1787185285 13.4807036647 16.8100720085
3.6762866354 12.9101864215 17.0129282571
3.2301308201 14.1125919555 7.5548043123
3.6501769380 14.4831544904 6.7467706059
2.7972779170 13.7269580114 8.3957140211
2.5464454063 14.3402168844 16.7549984583
3.5244978838 13.5374235409 17.5150269419
3.1621218332 14.3893615208 17.7704000374
3.6243666291 13.9479398224 18.1568030632
3.3470856941 15.2156961796 7.5200795735
3.7071627697 15.4081311080 6.9064847691
2.8361860074 15.0508316309 8.4473997020
2.5855317672 15.4918846052 17.7929456709
3.4990783634 14.6057025047 18.6052950898
3.1746445771 15.4931321912 18.8349052886
3.6083159009 15.0717468068 19.2643211087
3.5593698853 15.9624604942 7.4678886008
3.2339737864 16.2414195071 8.3081000529
3.6374691975 16.6120292462 7.8173314624
2.6464207580 16.2965025197 9.3573508790
2.6855968064 16.6198542568 18.8210576873
3.4957025724 15.7459432768 19.6995256115
3.1716514808 16.6065689094 19.8657275829
3.6039918149 16.2304716461 20.3341466866
3.5220433871 17.0904668002 8.4482874542
3.1922312375 17.3594352534 9.2927249344
3.6481408917 17.7212972171 8.8620242369
2.5840275083 17.4347244104 10.3156448311
2.4486390999 17.6622703482 19.1515332683
2.7741505321 17.3970206916 19.7385898692
3.4584478290 16.9397738319 20.7172534461
2.9811083252 17.8362514412 20.7471943117
3.5806336205 17.5089152726 21.3224224124
3.5457778301 18.1420737390 9.4716550132
3.2396343341 18.3937899029 10.2538512143
3.6595325176 18.5765555711 9.7778002299
2.5918593127 18.5294477007 11.3525261861
2.4951077446 18.2305519482 19.9960850262
3.3003961773 18.5783087274 21.7542939682
2.7468764547 19.0223413810 21.8480517466
3.8652942782 19.1261014262 10.2133417627
3.3508576683 19.2904224509 11.1671972316
3.8294362131 19.6599228486 10.9443493970
2.8210922784 19.5466205537 12.3389185858
2.8131091638 19.3376073815 21.9364870383
3.4713843257 19.4442261770 21.9484339523
3.8996550342 20.1897442510 11.7394284491
3.2488543848 20.4833332741 13.2489082995
3.0457501320 20.8575229207 14.3703577274
2.9275722512 21.0805890402 15.1136762167
3.4346531243 21.3711286943 14.8065948971
2.7952794618 20.8991093060 20.1704444668
3.6345799639 20.7896833119 20.5335603215
3.2479740564 21.1414568983 19.7827013537
3.7468834032 20.1358763030 21.5561249928
3.3330531780 21.5728398629 15.6961608116
3.6124906989 21.8569268313 16.5942950172
3.7124027275 21.7748504380 17.5363471461
3.4712968516 21.4294472252 18.8646071641
4.4596623798 25.6148566656 15.2309218860
4.6666015613 25.6240250206 15.0973322802
4.5612386372 25.4069507624 15.1804005163
4.6682126899 25.4123650336 15.3208975991
4.5473844435 25.7272415155 15.2529014844
4.5106818593 9.9375849094 7.3404912025
4.7419551852 9.9143712830 6.4706501716
4.9360658303 9.3584274765 6.9743511813
4.9642438710 9.1057312295 7.9412953976
4.5268422873 9.6168899144 8.4307192426
5.0391115515 8.9722068801 9.2374632416
4.2830242858 9.8289861417 9.4898264484
4.9516308517 9.1776752939 10.5112064272
4.2175970957 9.9454562574 10.9481799706
5.0336368415 9.3035760893 11.7305961473
4.4877614094 9.8979998148 12.2125635819
5.0912916207 9.4465513080 12.6264906360
4.4268952816 10.7700423211 6.3363859543
4.7366781115 10.8708624801 5.4411423466
4.8209313072 10.2530300253 5.8142944434
4.1977843400 10.6276112580 7.1973284530
4.0257877014 10.4885132722 8.1480018067
3.7850507272 10.5425276737 11.8665886244
4.7844430515 9.8465150562 13.0767308129
4.1385280860 10.5105825314 13.1158052000
4.9437626013 10.0515190097 14.0895141437
4.1732198991 10.9595735762 14.5076113619
5.0184209943 10.4223625909 15.2831529835
4.5100650266 11.1168350455 15.7681615272
5.1069381901 10.6621763566 16.1336256349
4.4976498078 11.7243372295 5.4855643185
4.9389845355 12.2007489492 4.5794958644
4.9230073565 11.2974519883 4.8521255845
4.1976639284 11.5889792028 6.2177383342
3.9407897810 11.4335715588 7.0602694600
3.8000358207 11.7728160698 15.4270486377
4.8731104480 11.1195084047 16.6042111661
4.2653877552 11.9887995077 16.7983617728
5.2753633567 11.3151945109 17.5879378916
4.7673591621 12.2441917085 18.1314369168
5.3295071593 11.7800189858 18.4341683407
4.4710908796 12.9281352639 5.2321153365
5.0247788393 13.3227602018 4.4348976393
4.0315409528 12.4517439553 6.2024093813
4.0434127363 13.1153914370 17.9445320194
5.3387786600 12.2678181908 19.0431781856
4.7196691547 13.1657251079 19.1534156843
5.3482494842 12.7939118495 19.6554892936
4.5654882371 14.1205298788 5.1535672216
5.2930297756 14.4302905515 4.4366480468
4.0410957537 13.7354391287 5.9719989468
3.9842846192 14.2067054427 19.0541169621
5.3274890513 13.3567541418 20.1976987999
4.6732718596 14.2839141383 20.2431530864
5.3017590887 13.9545607062 20.7854062650
4.7619729133 15.1939922661 5.2015998725
5.4037724848 15.4276944637 4.7855136303
4.1423931984 15.0613504609 6.0681011129
3.9650436282 15.3517917098 20.1389990333
5.2009663520 14.5593802106 21.2444144969
4.6102227575 15.4317273799 21.2089122079
5.1138473508 15.1829117332 21.7122572584
4.9638931727 15.8729901276 5.2565006515
4.6081449151 16.1252277060 5.9151601444
4.9790231872 16.2773874013 5.5046766266
4.0030191229 16.2735524023 6.9734889361
3.9937441569 16.5090312223 21.1315845228
4.9906074434 15.6925835771 21.9230746444
4.7060121091 16.4083760724 21.9571034848
5.4215594095 15.9911306996 22.4468675248
5.2056753747 16.7714456186 5.8795009046
4.6640395042 17.1883264324 6.8745212804
5.3057798835 17.4141088592 6.4767514484
3.9992774447 17.3847076356 7.9888208867
4.2398277937 17.6357817874 22.0410190497
5.3113852298 17.0828209572 22.8154001972
5.2852609136 17.9061476424 7.1690394519
4.6855689457 18.0901310753 7.9323215070
5.4730022281 18.5097561720 7.9621976516
4.1003211808 18.4427613394 9.0644785764
4.1286217092 18.8600289670 22.2634820347
4.9005773604 18.3336641866 22.7952629696
4.9305266365 18.7661806306 8.6578217261
4.7677546402 19.3283149969 9.5734985482
4.3522310269 19.8187081597 10.5875518360
5.0422905249 19.9154718322 10.1527515349
4.1995313443 19.6078794607 22.1670151636
4.8158503832 19.2894494599 22.6726995255
4.9566691822 20.3921830311 10.9754154453
4.6448860048 20.8355942494 11.8469580478
5.3620397741 20.9741572475 11.6117086555
4.2456746626 21.1284659151 12.8100465966
3.7552448329 21.2975517464 13.9714420376
3.8944443210 21.1715999297 19.7998973943
4.4854447232 21.0049919476 20.2492248152
4.8941905334 20.5994325774 21.1301472700
4.9514700366 20.0108073707 22.2564108157
4.9514340397 21.2816650209 12.2851447942
4.9205500322 21.7209817300 12.9727728679
4.4698293142 21.8412752252 13.7217953700
4.9076460149 22.1246383985 13.5334819323
4.1117879866 21.9690688099 14.8604148519
4.1309047584 22.1793076546 16.0339358830
4.2410082205 22.1776733529 16.9103974013
4.5446413835 22.1101225073 17.4414090772
4.9143879057 21.7385949410 18.2151992653
4.6290057040 21.3028478086 19.4633078141
4.9700153488 22.6208660294 14.2700584150
4.7230150181 22.7184495135 15.4823905746
4.8056846007 22.5872297785 16.4807112052
4.6947762241 22.3406931637 17.0685118275
4.7785313083 25.0360790279 15.1920342616
4.9166209349 25.1167589139 14.9899427113
5.1443036980 24.4493354244 14.9793315563
5.1014020018 24.6736544476 15.3688917336
5.1838622472 25.3883381419 14.8637151035
5.1126030047 25.2922263697 15.4206346687
4.7107043944 25.8106983298 15.1784171848
5.1834348768 25.7496839693 14.9913057963
4.9142920461 25.6881433327 15.3200440900
6.6578945029 2.6121975313 4.6310275330
6.9258586785 2.6268271268 4.4377413760
6.7223557954 2.3673521659 4.5507036468
6.8852810408 2.3199236213 4.6523664258
6.7224173901 2.9426082810 4.6412493604
6.9995355743 3.2493433236 4.6114986857
6.8832831307 2.8210642265 4.7437187585
6.9932016774 3.2780765783 4.7323013012
5.7022328186 8.6550580678 5.9601670572
5.9388554618 8.6472825645 5.2076806732
6.1158036207 8.1319086222 5.7422498599
6.1048846560 7.9278428224 6.7067328967
5.4776191591 8.6261220261 7.1649023274
6.2078456684 7.7782754692 8.0575453441
5.5430098612 8.4280077749 8.5226532514
6.1496123937 7.9322638002 9.2479765071
5.6523029556 8.3769302252 9.4678543185
6.0749722915 8.1123973542 10.0367252656
5.6297683937 9.3958228141 4.9918222801
5.9312961863 9.5565295067 4.2175540291
6.0353064103 9.0017741740 4.5696196157
5.1769848288 9.4719642920 6.0282981379
5.5949725026 8.5559771810 10.2641130052
5.6957692125 8.6875334830 11.3769328580
5.9032653498 8.8625018588 12.7640354291
5.3838734185 9.4526565476 13.4562734898
6.1222204854 9.0907543053 14.0350089581
5.6236088532 9.5305215573 14.2726202773
6.1494844966 9.3398359935 14.8132528461
5.6883563003 10.2049250341 4.2069846724
6.1431878427 10.6185750813 3.4499878585
6.0172012167 9.9222395597 3.8399785950
5.1713686533 10.3887709334 5.0072522637
5.6504561908 9.8032353527 15.0479223724
5.8984411554 10.1299765390 16.2591947152
5.4316073163 10.7085334495 16.8520330421
6.0190583600 10.4627479353 17.1902634023
5.7010240053 10.7790350215 17.3956211143
6.2747958741 10.7653916763 17.9536963923
5.4616798086 11.3242655163 4.0979905185
6.1427169435 11.9033194974 3.2718889116
5.9920361931 11.4021715264 18.6462364787
5.6036012540 11.8027216364 18.8447583562
6.0008435513 11.8516077166 19.2864085997
5.5454122017 12.5879163531 3.8385328999
6.3526215557 13.0568924010 3.2934637763
6.0687021542 12.3710588455 19.9194453376
5.6307477187 12.8596048566 20.0590543907
6.0250350236 12.9454686272 20.5021385243
5.6850373087 13.6111170531 3.8358293761
6.2758577340 13.8485759850 3.5703773791
6.0353683512 13.5449152019 21.0861565481
5.5575955706 14.0579837364 21.1838630793
5.8791944167 14.2067376180 21.5952923745
5.9501848848 14.2690880099 3.9078377255
6.0979374860 14.9165424476 4.2693954611
5.6339500828 14.8286002915 21.9176980504
5.4098171915 15.3841992711 22.1378485623
6.1571267570 15.1874473143 22.5210781779
5.4365129895 16.1733516261 5.2158693542
6.2784192693 15.7834467943 4.7945503267
6.3088510347 16.0935407745 23.1453682946
6.2138523580 16.6435006205 5.5138329714
5.7384640075 17.2152740248 6.0571067539
6.3105785006 17.2659682749 6.1010705112
6.3111337953 17.0063739219 23.6676185041
5.6874655383 17.9685534512 23.4724413592
6.3179193966 17.7687827761 24.0370674403
6.0024319262 17.6889115777 6.6580730694
5.9939578068 18.1812449685 7.3739845725
6.4188877505 18.5882492895 8.0254014246
5.4789691515 18.9586544211 23.3372341962
6.1289100914 18.6021266211 24.0037308847
5.8684784548 19.1779057824 8.9090021296
5.4957051905 19.6958202366 9.6307392040
6.1315012930 19.7212501181 9.6010247285
5.4176458506 19.6548627980 23.0425715444
6.1732219799 19.7234030691 23.8355770716
5.8258894084 20.1186784360 10.2482312971
5.8299803055 20.5890242526 10.9783380932
6.2236947325 20.9497894613 11.5458597987
6.2215297652 20.6233986819 20.8530404880
5.3424030638 20.9916197690 20.1770015801
5.9116063128 20.3475987455 22.0848354052
5.8126592947 20.0515159480 22.9345619055
5.7372540033 21.5521617386 12.4325109005
5.3431368697 22.1819003612 13.3049748865
5.9342415991 22.1556060520 13.1893815084
5.1863517012 22.3446574145 17.1579678779
6.0077023913 21.9594941716 17.2944543770
5.8112718866 22.5309578894 16.7315527022
6.1347631286 21.4560274023 18.3163797374
5.6267324108 21.2795697950 19.2382895029
6.5294121018 21.9979339335 25.2248619552
6.6885058397 21.8618818042 25.1014607874
6.6599046108 21.3415522999 25.0581965349
5.6486383029 22.7368936163 13.7936656100
5.4711315184 23.5832591404 14.4489126985
5.8830064286 23.2340063751 14.1260891495
5.1614156796 23.6003443524 15.1824747014
5.1666377147 23.1671389177 15.8957206491
5.4586766684 22.9341814463 16.3983384616
6.5602858179 22.4275895769 25.3276063056
6.7989794737 22.5141761405 25.3479122446
5.8147002509 23.7458184022 14.3823984031
5.7215584566 24.6166925211 14.6628998939
5.6234064554 23.8403364665 15.6643172446
5.5197351946 24.8620279616 15.4661608880
6.6701620903 22.7459556991 25.4226641331
5.7822250499 25.5239066509 14.7090091547
6.2497830579 25.6227432229 14.5431552363
6.2167673976 25.2918177340 14.5616661659
5.5772827178 25.4654981484 15.2959357826
6.1608243481 25.7372138692 14.6826086151
5.8080897923 25.7341106807 14.9720312076
5.3419762961 25.7795032004 15.1761233338
7.0491188001 2.0280291924 4.3916639729
7.3530580760 1.7369655172 4.1045644484
7.5692240210 1.6085195606 4.2685962521
7.4102725100 1.8895368166 4.5665940158
7.2568808989 2.0663606707 4.1066664982
7.6305341349 1.9895079357 3.9146693973
7.5457874106 1.7691439805 3.9316317696
7.3793643815 2.4293653653 4.7444822097
7.6053796948 2.4212876553 4.1493022239
7.5149312238 3.3332991053 4.5080096935
7.5205905479 3.2979498718 4.8195720281
7.5427622688 3.9125857393 4.7820030454
6.9163976679 7.3315426338 4.9668416170
7.2497884356 7.1426970594 4.3210358516
7.2541761208 6.7724326472 4.9092180995
7.3107716114 6.5907629518 5.7058835725
6.6420962460 7.4200707222 6.0070622309
7.1958873197 6.7508955575 6.7762345258
6.7429427738 7.2241470049 7.3158184325
7.6459390947 6.5053149526 8.0221160039
6.9177966653 7.1402928092 8.3000618694
7.3838623943 6.8939404629 8.9666642835
6.8761767492 7.9873834496 4.1173886325
7.2251352412 8.3756475135 3.2525930524
7.2392139520 7.6459085148 3.7852571288
6.3888561399 8.2285462161 4.8798493337
6.7995191478 7.3856160631 9.1242270874
6.7842354778 7.6189657820 10.2614973852
6.2806991619 8.1317138420 10.9261705423
7.0936275655 7.6590459556 11.5489817169
6.5256645905 8.2072305314 12.0806145933
7.5169781775 7.6919693720 12.8707397922
6.7901916594 8.2726036120 13.0453443897
7.3562915852 8.0860634124 13.7031518318
6.4548592649 9.2666363178 3.7257394843
7.0193766023 9.4126394780 2.8468646517
6.7806874705 8.5639567490 13.8649540824
7.0440136490 8.8744139773 15.1164682596
6.4326565632 9.4814045778 15.6399788514
7.2099699169 9.2165597062 16.1294375241
6.8057480439 9.6456313558 16.4940480455
7.6365583713 9.4146322998 16.9605809366
6.7904509434 10.2449471367 2.8047276892
7.3714791289 10.7315679647 2.1831415950
7.2830762429 9.9246172727 2.3372283892
6.9944521207 10.0845132709 17.4749951849
7.2081613039 10.5238016585 18.4189187669
6.7740380231 11.3102771579 2.6973084039
7.6523511818 11.7586118511 2.2370901124
6.9998713363 10.9727123927 18.9223238786
6.7821352325 11.4977237675 19.4802854683
6.4929982184 11.8856881802 19.7566894229
7.2278624035 11.8916874717 20.2751657935
6.9170322079 12.3350562324 2.7487973910
7.6463621741 12.5739281737 2.5700850729
6.8390514561 12.5778014641 20.7523626739
6.5060759935 13.0200879086 20.9725801418
7.2145256888 13.0646114122 21.4826018399
7.2918835723 13.1080111089 2.9669695753
6.9508848722 13.7496238035 3.3844096960
6.7519095099 13.8471616765 21.8923579066
6.2809203912 14.4795870308 22.1240197039
7.0741806377 14.4027809253 22.5366125381
6.6379070555 14.3739865016 3.7973571163
7.3232455558 14.9966795693 4.3418362234
7.2150139151 15.1421589848 23.1302724309
7.1510641831 15.8161182064 4.8959557382
6.7021625815 16.1925959046 5.0860133353
7.3566811998 16.3271446301 5.4547420566
7.3416555239 15.8328414845 23.6488697541
6.7347129765 16.3651131647 23.6412034406
7.1476968685 16.5355878774 24.0171316045
6.7379767023 17.5100588393 6.5303575262
7.1452034613 17.0081320984 6.1286509669
7.3765788244 17.4253560012 6.7578177931
7.0176879465 17.2561636284 24.3321655635
6.6873359931 18.1151672554 24.4764133635
7.1607156052 17.7114301177 24.6474295187
7.0229493157 18.4952887513 24.8076379654
7.0864467850 17.9377848651 7.3571308654
7.3045516342 18.4872492560 8.1936202177
6.7012312950 19.1234942425 24.5822710565
7.2087105913 19.0555294392 24.9046194958
7.4754410454 18.7622591516 24.9466005482
7.0414113207 18.9432565455 8.7518324609
6.5960285193 19.9342236259 10.0335544454
6.9646773942 19.4891687750 9.5639128610
7.1944269274 19.8675905926 10.2403885644
6.6964636929 20.0785056604 24.6284236395
7.1746546868 19.9551822606 24.9210100685
6.8760265007 20.3176245348 10.8714456992
6.9529027095 20.8174328894 11.7000302148
6.5400103539 21.0669716897 19.0906028627
7.4519288032 20.7420799813 18.7441618975
6.8701510803 21.1512663476 18.3174658319
6.1464866133 20.9549934096 19.8832891218
6.9623160925 20.6837060738 19.8516615697
7.3473717252 20.3178483538 20.7369079399
6.9402944242 20.2610707394 21.8686117691
6.7049289935 20.2834193427 23.2769488459
6.6865274863 20.8115176772 24.5282349066
7.0335196036 20.7454489684 24.2387273461
6.8460508147 20.6699005040 24.9679411595
6.5849606378 21.2255100644 12.1451832382
6.2729197744 22.5452601871 13.8341958317
6.6322581435 21.6565958811 12.9968249615
6.5605753092 22.6286792271 14.7021392827
6.9630597540 21.8414096548 14.0414531067
6.5255901747 22.5129403942 15.6676385925
7.0453545038 21.8486010987 15.1313019107
6.2667421157 22.3540126627 16.4582273544
6.8459106215 21.7635099412 16.3777121955
6.8045038488 21.4115311504 17.5180910726
6.9530471442 21.3183520274 24.7579907847
7.1411171127 21.8662044906 25.1272990043
6.8514695970 20.9362659177 25.1265089694
6.1364689143 23.5307882408 14.5037889564
6.2268239105 23.5310371871 15.2548028812
6.0205489601 22.9636608971 16.0711437661
7.1929188278 22.5190532466 25.3987380512
6.2360553655 24.4190269128 14.8571083211
6.3062141413 24.9476119278 14.6768112883
6.1095184584 24.7899012706 15.2234305626
6.9316377050 22.7885526459 25.4510864577
6.4649273741 25.5261588355 14.5327343401
6.4986626150 25.2907061773 14.6152046103
6.1361193524 25.4806995923 15.0903954064
6.4266860993 25.6825784137 14.5962693291
6.3397155576 25.6626047791 14.8210118961
7.7139018039 1.5775203940 4.0103541495
8.0496922636 1.7226201683 3.8832925919
8.1748118079 1.4765009072 4.1286537405
7.9315147146 1.5692100991 4.4226546730
7.9698602330 1.9024989421 4.6170817271
7.9478568660 2.0433326973 3.9015765135
8.2283165405 1.9244458539 3.8756740860
8.2729774246 2.1541385069 4.0698344360
8.0004149992 2.5617407861 4.6753855874
7.9766806024 3.6358052788 4.6940554043
8.0709582110 2.6627078882 4.4265278660
8.0131529233 4.7013209040 4.5559487054
7.9534640790 5.0025186013 5.1404762339
8.5252582143 4.4926414899 4.6538941187
8.3956533791 4.3751966422 5.1464497846
7.6771662911 6.1157682269 4.7286652964
8.2311104744 5.9675152572 3.9320981949
8.4119110004 5.1199793771 5.9069157333
7.8913274448 5.7574678271 5.7969381421
8.2990954955 5.5852329826 6.5247079280
8.2312655366 6.0390171059 8.1134193017
8.1436815363 6.0020905396 7.6392755525
8.7623079193 5.6648900146 8.0071355492
8.5105181623 6.0337034017 8.7432399932
7.7409114454 7.1076724180 3.5988515799
8.3166369065 7.0892937937 2.9400407113
8.2613368451 6.5801583732 3.4215151452
7.8179301874 6.1243456130 6.8125528589
8.1840215761 6.4612144892 9.4798943606
7.5191513287 7.0181254866 9.9246026844
8.3929831647 6.6439971900 10.7214454144
7.6872951192 7.1471572285 11.0643826411
8.5635608575 6.7985084915 11.8665212229
7.8928827624 7.2300834368 12.1570566917
8.6167040053 6.9807265518 12.8394760439
8.0764417951 7.2603155106 12.8297577996
8.4404889444 7.2725153138 13.4873718733
7.9458593434 8.0235041699 2.6130054165
8.4983302776 7.9655731137 2.0615591792
8.3797534998 7.5489747589 2.4686353869
8.2149038834 7.7043135949 14.2008770783
7.6167268719 8.2583173584 14.5937171519
8.4771825279 7.9982723360 15.2666708180
7.9704945578 8.4116964155 15.4682696253
8.5604602890 8.2667504139 15.9503021726
8.1839464212 8.8177508420 1.9037848270
8.7407351098 9.1855085295 1.4374815050
8.7490438686 8.4389123050 1.6039514317
7.5529391246 9.1136123365 2.3964435104
8.2592024214 8.7488907406 16.4361192377
8.4779976982 9.1950769237 17.3706399672
7.9522184423 9.8904001059 1.8177189969
8.8200218858 10.1108339800 1.4062887137
8.2147545830 9.6625292085 17.8544335760
8.1061242222 10.2139969787 18.6282711590
7.7521834345 10.6632184304 19.0625611605
8.3624919648 10.5752012024 19.3753195770
8.1834174905 10.9122805398 1.7470700064
9.0338347025 10.9025323420 1.5471149160
8.1013986570 11.0967518874 19.8883008162
8.2764858470 11.6673370821 20.7258377327
8.7474711507 11.6227100782 1.9647891803
8.4192286766 12.3646410313 2.4527702402
8.0833334273 12.2598268692 21.2491876741
8.2202817727 12.8240268690 21.8869349440
8.2223958580 13.0069428162 2.9150689391
7.4080353865 14.2308742770 3.7166455324
7.8934488394 13.6410754087 3.3765478957
8.3110462916 14.2075047329 3.9807835955
8.0706064952 13.5076609382 22.3620961798
7.9928439309 14.3766500427 23.0072007409
8.6449176335 14.7779811240 4.6310412293
7.9973238827 14.9141084100 23.3867005821
7.7416801822 15.2856840052 23.5060488409
8.4417704634 15.3383593948 23.7517429648
8.2871896935 15.5514970471 5.1705330430
8.2899238615 16.1703397684 5.7880645527
7.9483815625 16.1600684307 24.1426134004
7.6770616173 16.7108887477 24.3894207678
8.2572930024 16.5795474106 24.4456053551
7.9454213099 16.6107339300 6.0835615762
7.7368300090 17.5120555708 7.1302203805
8.3347118212 16.9986124860 6.9123837945
8.2447190450 17.5891582618 7.6529719902
7.9905853874 17.2039945232 24.5833954589
7.8098513078 18.6570519691 8.7357238765
8.2908564193 18.1136439504 8.4060047705
8.4605230474 18.5522218852 9.1229925548
7.9557733931 18.5502906753 24.8531645320
7.6945299195 19.1598902614 24.8069902489
7.9922016908 19.0111290517 9.4694823241
7.5194802666 19.9361979030 10.6273091076
7.9446316546 19.5344037971 10.3740985317
7.9618716009 19.9388370463 11.1903738533
7.8504803594 19.9257502174 21.4763861870
8.5675612558 19.6270082749 20.9252091922
8.0732662960 20.0183857216 20.6015360169
7.6357746066 19.8925876390 22.6369999880
8.5501349057 19.3173785125 22.0260076653
7.5226573508 20.1212979105 23.8691243574
8.2461026926 19.3015236054 23.2337933744
7.5721904409 20.2172441342 24.7040604296
8.0325297815 19.2841697695 24.2009687289
7.2842503811 20.9918068548 12.4471632097
7.6728344292 20.4421368790 11.8454164408
7.4953113017 21.1658441365 13.4263738451
8.1680974628 20.5065933915 12.9538576182
7.6261714493 21.2196307449 14.4947818983
8.1245999241 20.7384066389 13.9319677951
7.6305509119 21.1735235697 15.6738587564
8.3849283728 20.5781629072 14.9754952025
7.5311896124 21.0751918873 16.8925491555
8.2846273282 20.5822027821 16.2983771769
7.3787165371 20.9898069923 17.8362800943
8.1885773650 20.4999325463 17.7130017457
8.1208735728 20.4053236718 18.6955110229
8.0222880177 20.2612666343 19.6424399494
7.3116445205 20.9621755351 24.6525262745
7.1026695352 20.6074110713 25.1035446667
7.4617043909 20.7341201703 25.0757006595
7.5051732504 21.2608684931 25.0680713309
7.5091290726 22.0220126562 25.3251953230
7.4642218348 22.4364681973 25.4391335233
7.2186029508 22.7241707207 25.4695209514
6.4711191097 25.0692184578 14.8358343068
6.5505269988 25.4827878245 14.6946325314
6.4396316891 25.3516146804 14.9523013001
8.5330623671 1.5589744569 3.9891435984
8.6639146793 1.4824111324 4.1633012696
8.4303863391 1.5552973240 4.3851270751
8.5061715123 1.9074556510 4.5276456481
8.5120428604 1.8044162443 3.9528503125
8.6958211393 1.9403078377 4.1438958071
8.4692555138 2.2381381140 4.5055045669
8.5504450503 2.1919733988 4.3131666002
8.9709636539 5.2123532379 4.0980154834
9.3552326827 4.6351649010 4.8271980002
9.5527149777 4.5042305547 5.6097146540
8.8211363174 6.2533654096 3.2540855594
9.3529628794 6.3788949815 2.7366307594
9.7827625285 5.7290317938 3.3133922406
8.9911411918 4.7670449972 5.9709552720
9.0317266839 5.1685566438 6.9238918752
8.3959168397 5.7112619227 7.1873194901
9.7174647684 5.1552829262 8.1855911332
9.4836986115 5.6002720724 9.2109564501
8.9405951270 6.0107207805 9.5992956144
9.5676051773 5.8331837123 10.1462225272
8.8962421152 7.0725566108 2.4122846154
9.4985345579 7.0226795221 2.0051574822
9.3991544997 6.6793436920 2.3648565937
9.0627366080 6.1874382042 10.4301909348
9.4489650440 6.3266490603 11.6493876648
9.4944464680 6.6133240643 12.8286768636
9.4362499162 6.9293760263 13.8866217647
8.9854107117 7.2748833498 14.3169656074
9.6519464871 7.1296106647 14.7789064206
9.0979808915 7.7279368869 1.7550099884
9.4752476201 8.2984234747 1.3566486685
9.6748900442 7.4927720493 1.5843248780
9.2925861346 7.5111915481 15.2119053062
9.3113121001 7.9730078744 16.1775231232
8.8582765724 8.3131939540 16.3783681909
9.3335353327 8.3607086668 16.8941252494
9.6153869011 9.2350931302 1.2386979550
9.3853692625 8.8309538076 17.6184365362
8.9635912177 9.3386545513 17.9803271518
9.5738008298 9.2588799038 18.3371983631
9.8198465623 10.1237693652 1.3936556583
9.1886296847 9.7429089803 18.6974782655
9.0510520449 10.3057322096 19.4212352899
8.7668615569 10.6566100138 19.7592849534
9.4977299464 10.7068156989 20.2228695428
9.8482023376 10.8825322379 1.7396124582
9.2438404524 11.3005107292 1.7330955564
9.6323351616 11.4966749987 2.0972919234
9.1878544887 11.3920832921 20.9298005147
8.6986840287 11.7908772578 21.1436707755
9.1397202711 11.9361568499 21.5365605661
9.0007183807 12.7420727141 2.9192660706
9.5545487672 12.1090433549 2.6555168379
9.6692457819 12.6810789469 3.2434649825
8.9198553073 12.4866751486 21.9537940941
8.7072161653 12.9148896420 22.2237438164
9.5044247751 12.9592510444 22.5286100448
9.2722757678 13.3112183298 3.6677884187
9.3987977168 14.0946700407 4.4633841157
8.9584582378 13.9128266416 23.0445053886
8.5731797248 14.5784616761 23.3857026746
9.3778206754 14.5649613022 23.5124271492
9.6692668558 14.5787594556 5.1004298604
8.9982921837 15.0521267025 5.0612096767
9.4770086306 15.1820118673 5.5706803542
9.6693634321 15.4956469493 23.8135342833
8.6997148676 16.4067079650 6.3847299223
9.2444470221 15.8120045831 6.1088465045
9.0232355992 16.5435939037 6.8521036066
9.4186973065 16.2106017855 6.7551041041
9.6652695921 16.5255248241 7.4202581982
8.7832940214 16.1447602082 24.1868644727
8.7441853723 16.8622724329 24.4208661845
8.7923194338 17.6593692057 8.2086397430
9.3027392447 17.2088326275 8.0642599067
9.3304581091 17.6848881927 8.7686496272
8.6546304220 17.6357607284 24.4054754800
9.0679098850 17.1442647762 24.2730790892
9.2318297714 17.4994680056 23.8923909907
8.2592087421 17.9405127646 24.7025007621
8.8254746363 18.6807963451 9.6994400818
9.3483930657 18.1538523649 9.4915188992
9.3857416182 18.5586946677 10.2077371242
8.9524774567 18.6749583682 22.8057395942
9.4323512074 18.2932927873 22.5822720456
9.3557205125 18.6093867697 22.0187212800
8.7093352391 18.4179608713 23.7887780507
9.3902717409 17.9936232525 23.1498203824
8.2588916192 18.4820612034 24.5417027356
8.8302841642 18.9943519110 10.3459335868
8.5894588543 19.9416846285 12.2047675265
8.9741222296 19.3436337020 11.4243191818
8.9472591440 19.9641800481 13.1113540888
9.5983336247 19.3627829530 12.8519271382
9.3936375816 19.7393303999 13.6789367958
9.0126998635 20.0851694184 15.7674726336
9.7195258704 19.5925390960 15.2466583661
9.0950827371 20.0539803612 14.8494378453
8.9270262024 20.0822277015 16.8725325647
9.6151082012 19.6261803883 16.4433448225
8.9792300032 19.9875440623 17.7492539120
9.4553873573 19.6899317911 17.3257448380
9.5166084719 19.5620444980 18.1793721891
8.5341834691 19.8654772775 20.1857976934
9.1002450894 19.4690774852 20.1790246452
8.7935104372 19.8448885173 19.5818406905
9.2437634788 19.0565151218 21.0837652184
8.8211996917 20.2046777475 13.9619195325
8.7435817960 20.0287578050 18.6823706294
7.6328504958 21.5566894043 25.2675556222
7.6445855869 22.0679651032 25.3924450641
8.7953573705 1.6690861345 4.1242019044
8.7756890709 1.6288227426 4.3207231937
8.7691594942 1.9042462559 4.3456315809
10.6901627480 4.0825832839 5.9830234274
10.3961741210 4.3062684376 6.1791622780
10.6327693522 4.1507900760 5.8045843257
10.9114813365 4.1386532221 6.2398773011
10.0905532804 5.0116873552 4.2503069032
10.6022279169 4.4663948070 5.3545324655
9.6163179582 4.6642732171 6.3703466339
11.0924813242 4.3073794385 7.0650899106
10.1671261847 4.6772960768 7.3037590545
11.0091255369 4.5379467687 8.1408722880
10.4584425389 4.8148192417 8.3669711001
10.9892174177 4.7393412237 8.8971992145
9.9045417536 6.3819472221 2.4410423777
10.5228222403 6.4093552314 2.2268687073
10.6588462994 5.9127995112 2.8953081466
10.6192179684 5.3890046297 3.6637129264
10.5557073102 5.0880777863 9.2998194184
10.4840995239 5.5215314862 10.4540032673
9.9306826082 5.9214394117 11.0331489019
10.7732925101 5.7561837638 11.5981319481
10.2980297410 6.0151491820 11.8929271085
10.8748111608 5.9428583797 12.3290742540
10.1219973093 6.9122063504 1.8461701658
10.2621420409 7.5517562384 1.4512769248
10.8616643483 6.8633625194 1.8701075953
10.5021438710 6.2420355224 12.7804148778
10.5057645235 6.5917556502 13.8930688579
10.4822073210 6.9171427589 14.9653104361
10.1074388984 7.2043307794 15.4277366607
10.7288113684 7.1397333659 15.8040126801
10.3853365470 8.3281468478 1.2597715506
10.3601185434 7.5113649293 16.2281664094
10.2940036702 8.0581309629 17.1614255400
9.8593486343 8.4041376483 17.4350948719
10.3459189091 8.4981777849 17.9040280099
10.6732017379 9.1279928024 1.3590845901
10.2330921779 8.9711434640 18.4234570844
10.0721063981 9.4335972337 18.8737425004
10.9887756292 9.2405627125 19.0776297190
10.8259331265 9.8529212000 1.6611284196
10.2590837505 10.3810042063 1.6036910739
10.6934683688 10.4872858292 1.9747264992
10.3124195151 10.0009554919 19.6653844139
10.5772526938 10.5675855056 20.5339211894
10.0710616235 11.6346428057 2.4999840861
10.6172864779 11.0898547995 2.4531095926
10.5700875085 11.6891357860 2.9877278734
10.3280758762 11.0687300516 21.0572939460
10.0677091486 11.6697431025 21.6352558103
9.6737915941 12.2094743269 22.0367819528
10.5333812412 12.2185433038 22.2261938914
10.0054433331 12.8052993685 3.6252194799
10.5629492887 12.2664917207 3.5677788310
10.5005118525 12.8672319802 4.1269677238
10.8196553135 13.0221480038 22.7449641724
10.0376768911 14.0733202654 4.8925175482
10.4998685343 13.4852623589 4.7479697736
10.5841909578 14.0762906439 5.3767330429
10.0604021966 13.7715836038 23.1551244979
10.3733432106 14.5904346203 23.5127801420
10.1214992816 15.3110082414 6.2602189031
10.6165721461 14.6513788761 6.0003929946
10.7940200793 15.1163435280 6.6650384181
10.5987503202 15.2913314703 23.6014557792
10.4724461544 15.7188047696 7.0982138990
10.6720038340 16.2208280963 7.9309675990
9.4426474687 16.6239838150 24.0081230581
10.4060689511 16.1496172326 23.5210224574
10.4045091229 16.7086622013 8.3810858230
9.8644155898 17.6892381249 9.3419416287
10.3035730889 17.2349071558 9.1467016121
10.3707834662 17.6567696628 9.9685997260
10.0224883757 17.8116188738 22.3266733928
10.8726095680 17.2734170157 21.8160686639
10.4703895986 17.8384798143 21.4452468896
9.9017281383 17.1566381385 23.3374890670
10.7515137399 16.7869699422 22.7760640118
9.6779400939 18.6976158909 11.0382755255
10.0919785572 18.1672550480 10.5543362780
9.9813892986 18.8315135813 12.0781691944
10.6051904509 18.2037557790 11.6853256067
10.1998400550 18.8730180610 12.7736513791
10.6637271449 18.4595035490 12.7127009605
10.4517530279 18.8137947457 13.4440729632
10.2025788538 18.9327216579 18.6759076462
10.8875013018 18.4067502259 18.2807855351
10.5426208885 18.7954911984 18.0044115202
9.9108158178 18.8174695620 20.0812162545
10.8196453891 18.1855274702 19.4347169928
9.9319526661 18.3858783665 21.2752421405
10.5516379436 18.0812581523 20.6162099475
9.4362338430 19.7905281336 14.3682425285
10.0029406616 19.3108530393 14.1626488719
10.3892656227 19.0903558383 15.1031362906
10.3175855142 19.1336736810 16.0730888141
10.1886733675 19.1398270203 17.3826842457
9.4066165611 19.4682781069 19.2318913493
10.8737831394 4.1320521644 5.8871498068
11.1072272010 5.0495413679 4.4075100980
11.7622152770 4.7899273464 5.3013988639
11.5375090831 4.3160756336 6.2700988802
11.8800945006 4.2666044701 7.3244844208
11.7500327800 4.3549987098 8.1166229871
11.6816691723 4.5804139721 9.0732940096
11.3307950019 4.8289318284 9.5300528216
11.8771845373 4.7847910180 9.8815334825
10.9957218074 6.2967590865 2.4022609774
11.3136882904 6.0655576994 2.8905218266
11.3171253493 5.6221072992 3.5846428283
11.5409004747 5.1029772927 10.3493182638
11.5474803755 5.4978409363 11.4047956276
11.4861840151 5.7955193714 12.3066468412
11.3107052726 6.0394272837 12.8977315427
12.0156313101 5.9990815344 13.0500991924
11.0011738756 7.5701185980 1.4877938367
11.4398916697 7.1219287184 1.8951696894
11.4729484171 6.5850782841 2.4145672270
11.5880095648 6.3377761608 13.7840526940
11.4852437510 6.7094595474 14.9030906497
11.3836315714 6.9975588120 15.7891857838
11.2104878124 7.2736905021 16.3629723974
11.9414823064 7.2445271799 16.5266919423
11.2214769608 8.2048262592 1.4477815662
11.4381657610 7.6873268591 17.1449716470
11.2047057602 8.2571410323 17.9844293813
10.9280437186 8.6945287286 18.4820110989
11.6886101281 8.7088645365 18.7012015403
11.6001448095 8.7397165450 1.7367948052
11.1980264345 9.2901532751 1.5821258968
11.5908574602 9.3890212043 1.9273303491
11.9952016657 9.2869233518 19.3129591830
11.1176142929 10.5535757233 2.3788346014
11.5585180982 9.9942123067 2.3472231510
11.5275635164 10.5931301219 2.8348662506
11.4854200426 9.7631391075 19.7236828484
11.4604014750 10.3633081752 20.4294206528
11.1216624611 10.8309807059 21.0145408119
11.7343434606 10.8835287789 21.0823469841
11.0706083344 11.7308761345 3.4832896945
11.5096852134 11.1692110599 3.3936059987
11.5091493544 11.7618270125 3.9688277994
11.2799310139 11.4667315874 21.6399613973
11.5609630518 12.3305177890 22.3021609727
11.0379118235 12.9133017594 4.6517408854
11.4944905132 12.3395735820 4.5517149689
11.4956357473 12.9422779884 5.1440910260
11.8750839858 13.2921822649 22.6118939940
11.0910167936 14.0937505260 5.8668457296
11.5063142833 13.5210780931 5.7429338225
11.5333395502 14.1095930176 6.3449825742
11.0760241396 13.9205091159 23.1269034286
11.1698082581 14.7971443210 23.3294030065
11.1167795561 15.1897783925 7.0648621927
11.5565401698 14.6564169544 6.9517885401
11.5236817233 15.2252411020 7.5389586246
11.1189519852 15.5702888958 23.3563195197
11.1416029752 16.3229260799 8.5392692988
11.5575273701 15.7392596090 8.2282244913
11.6780380999 16.1789445184 8.9691848274
11.0645915248 16.1384147842 23.1663140877
11.4533124277 15.8319834620 23.0220035737
11.3434653922 16.2628610426 22.7699924720
11.2014686839 16.6462244408 9.1791710690
10.9682420775 17.6572354954 10.9805612879
11.4424083643 16.9765296146 10.2865575208
11.3215163673 17.6712065713 11.8294183212
11.7462274866 17.1799469844 11.5083732717
11.7877711379 17.3590806711 12.3134318876
11.1776604341 17.5994755351 20.2684556436
11.6929070927 17.1221103764 19.9482482513
11.4439115141 17.5530551440 19.4354449203
10.9319340300 17.5660556193 21.0548525591
11.5186422358 16.9519116272 20.9831531980
11.4334634371 16.5486444764 22.0917275523
11.3059922517 17.8627352662 12.5882000288
10.7863512592 18.6936886767 14.4723830632
11.2508528824 18.1162561266 13.6663891337
10.9240835677 18.6323916317 15.5450192636
11.4192231206 18.0817828594 14.8704283798
10.8839253694 18.6195093077 16.6673822322
11.4610391858 18.0251796370 16.0102083075
10.8043689805 18.6187310894 17.5588039793
11.3738017027 18.0077705987 17.3095307776
11.4362110039 17.7432531983 18.5176355445
12.0365821574 5.5029644862 4.4619174111
12.4774030999 5.1851492157 5.3480151192
12.5066544965 4.7371975698 6.1144344098
12.3929283461 4.3590297127 7.0793796763
12.3779446635 4.3303419293 8.1063358689
12.2624090443 4.4433100440 8.9103192157
12.4033581758 4.6774977085 9.8240259172
12.2593398860 4.9138993349 10.4051206431
12.6089447027 4.9006838244 10.5080680412
11.9355112884 6.2685757341 3.3418684977
12.5531579692 6.2933962922 4.2619501517
12.7656123966 5.8603913069 5.1019325402
12.5540203963 5.2591933741 11.1949648605
12.2514173882 5.6930276932 12.2554086013
12.6177555173 5.9528526819 12.9537978247
11.5626754942 7.5903503419 1.7183723219
12.0087453321 7.2781772206 2.4613831251
12.5212214875 6.9735480837 3.5482863372
12.8558165916 6.9356458019 4.3185369795
12.9632850131 6.5854882702 4.9031748503
12.5269321003 6.2616896064 13.7567539757
12.4777391104 6.6542939071 14.8637358776
12.1986744963 6.9425753558 15.7918281226
12.5655541142 7.2041058745 16.4575958848
11.7941271082 7.9824611437 1.8419018845
12.1990077845 8.2349893891 2.3465466920
12.6001121335 7.8314063966 3.1828746166
12.8786675657 7.5116585148 3.9909020000
12.4164077252 7.5883478909 17.1817270377
12.2140555842 8.1959283293 18.0959172138
12.4538279344 8.8449723916 18.8843235946
11.9548820712 9.4527919586 2.3032649087
12.1133015654 8.9905127192 2.2980243943
12.2594624244 9.4753795095 2.7878534004
12.5430114816 9.3184911471 19.3300381246
11.9398978977 10.6110583073 3.3050075895
12.1277332564 10.1363381394 3.1403942358
12.2829630586 10.5834856862 3.7907355023
12.4689389606 10.0319424705 19.9238478758
12.2027587842 10.6615400744 20.7182433367
12.7001784251 10.8996948729 20.6574177542
11.9387543255 11.7744954762 4.4541988530
12.1334619290 11.2851000290 4.2476159853
12.2951742089 11.7355532351 4.9276792505
12.3141107669 11.3087164874 21.2941242534
12.1076749245 11.8561998487 21.8938780931
12.3572555500 12.5014276169 22.1372135299
11.9405928277 12.9483318218 5.6312265546
12.1370478869 12.4504953883 5.4122586540
12.3078140198 12.8984554457 6.1023534154
12.5852534036 13.2047912631 22.1465518028
11.9657632108 14.1083885326 6.8221664717
12.1552889102 13.6146260363 6.5981880642
12.3308760807 14.0500112805 7.2891308386
11.8109891894 14.3624219788 22.8518094299
12.4375113116 14.0133750647 22.2918013483
11.9695026805 15.2242824110 8.0332359919
12.1699784867 14.7475644551 7.7903172111
12.3483181444 15.1248202977 8.4991750350
12.7245341245 15.7837751471 14.6939610583
13.0354935474 15.1709990783 14.1338377207
12.8206528820 15.8258242140 13.7125523714
12.7053316709 15.7019330844 15.7443562486
13.0291373778 14.9958868566 14.9817897940
12.7427844393 15.6615416130 16.7702548019
13.0318826460 14.9786616481 16.0485703563
13.0301120805 15.1009738677 16.9346686573
12.2294378554 15.0363470551 22.2501684934
12.7250656985 14.5142494883 21.7811455453
12.6205186466 15.1488815628 21.4589243195
11.6610211547 15.2431460396 22.9622768499
11.9713823611 16.3161286082 9.7020691103
12.2401530730 15.7313182310 9.1554789011
12.2756774962 16.3720676965 10.4493664470
12.6096216697 15.8152846672 10.0572253868
12.7148168584 16.0169289855 10.8416003369
12.3466272196 16.6797721984 14.2562085633
12.5298606868 16.4752487960 13.2518304018
12.3546537999 16.5341901595 15.4697911776
12.3712574122 16.4362150910 16.6203928007
12.8531761211 15.5456756007 17.5210443561
12.4746152175 16.2561188995 17.8192452225
12.4861690701 16.2162906169 18.9341738857
12.8398548327 15.6436032408 18.3781924446
12.2177949087 16.3752728563 20.0575180308
12.7930715467 15.6388828574 19.4560339487
12.1180298840 15.9554042560 21.4538950115
12.7011362419 15.4687335748 20.5820368501
11.7661802728 15.8454952185 22.4832114878
12.2983776699 16.5646562113 11.2066439875
11.9671609556 17.2625798889 13.2446005382
12.3586734883 16.6920066673 12.2964530357
11.8351168321 17.5177147475 14.2558674611
11.9364364512 17.3671004853 15.2082030609
11.9406885389 17.2740620147 16.3733959474
11.9545821798 17.1449319801 17.6001504870
11.9824812887 16.9561468557 18.9132052938
12.9665077464 5.4702864281 5.8006157311
12.9930628764 5.0782545882 6.2250763089
12.7730722076 4.5610031715 6.8202826925
12.6957545981 4.3826524432 7.8340403504
12.7262596732 4.5441098427 9.2569856462
12.8576592468 4.8782553985 10.3918788536
13.0360142097 4.8508874352 10.2651615562
13.2617709830 6.5893499349 5.8538243871
13.2701786678 5.8876388048 6.1291664246
13.1049808752 5.2085750349 11.0620023832
13.1327416519 5.5157357644 11.6998578368
13.2830922353 5.5221735757 11.6625737785
12.8927073322 5.7212870608 12.2841916121
13.1751068042 7.5661240902 5.0518092149
13.4269482749 7.6726852889 6.2214287585
13.4956265969 6.7493711210 6.5734757898
13.5656520747 7.5327305571 7.0289282820
13.6270890854 7.3093808487 7.1843609368
13.1963687708 5.7421083541 12.2163488940
12.9560385474 6.0660414553 13.1647995855
12.9693809968 6.5422039487 14.4529499021
13.0627932761 6.8218417620 15.2220040022
13.2032540626 6.8176881448 15.1422531968
12.8455551811 6.9972934009 15.8273772293
12.5679772941 8.7450580627 3.0301364856
12.9753647287 8.4706336475 4.1165499725
13.2664162942 8.6929366055 5.2022213516
13.4129256011 8.5239936448 6.0912905349
13.5457755940 8.4870540605 7.1363756872
13.6749919534 7.8877660073 7.8436969929
13.6603622334 8.5596872082 8.2286031704
13.7329564686 8.9639664150 9.2468925049
13.7243589674 8.4705646433 8.7413093111
13.7564803636 8.7966846377 9.3387563899
13.1438211629 7.0136624853 15.7293897098
12.8890031081 7.3583843816 16.6513312939
12.8143177163 8.0552919531 17.8514598042
12.8202581700 8.5734224081 18.5368876478
13.0730945465 8.7585958080 18.6416582471
12.6824097196 9.6495820476 3.7805115912
13.1176984408 9.5921003210 4.9496993619
13.3674324415 9.5491632450 6.0222930641
13.5035320009 9.4849893257 7.0679972721
13.6020176920 9.4753338768 8.1269692299
13.6849228521 9.5336338747 9.0933479636
13.7638029977 9.1908009593 9.7110482442
13.7443958753 9.5975815329 9.7531091355
13.7665273416 9.6118831161 9.9731084532
12.9228871876 9.2419748924 19.1388421942
13.1731940688 9.3291759300 19.1021319578
12.7376699634 10.7473904891 4.8031578551
13.1851653610 10.6529017305 5.9568524834
13.4276791700 10.5457266564 7.0042047285
13.5566458648 10.4873782968 8.0074230287
13.6474628342 10.4206683414 8.9542211722
13.7172139940 10.2818139407 9.6677248267
13.7526518532 10.0903298017 9.9809347795
13.1220675308 10.0945146611 19.6596244253
13.1074449564 10.9160402287 20.2684655699
13.3912482469 11.1077662736 20.0974527333
12.7672277965 11.8774530939 5.9312643504
13.2405098795 11.7119721191 7.0560999067
13.4775989074 11.4201525284 7.8722359676
13.6031434769 11.5022334299 8.7826928794
13.7020709239 11.0557881121 9.5140427206
13.7393189539 10.7505756916 9.8758031694
13.4049684186 11.7864572816 20.4490509041
13.5341546022 11.7468929340 20.2657747306
12.9993004589 11.7482434429 20.9970993503
12.6248809901 11.9675548809 21.6646593308
12.8038616164 13.0088569631 7.1159713021
13.3678193895 12.7431593651 8.3571934187
13.5959968268 12.3719430355 8.9553781920
13.6862628550 11.6353725591 9.3425103754
13.7301276478 11.2515983615 9.7157269646
13.5943900953 13.8116047877 13.7251096139
13.6708592939 13.6106386112 13.6032962587
13.6182449106 13.9739959117 13.1427762456
13.5534081891 13.7550817958 14.5941893612
13.6582784414 13.5121457688 14.1598939958
13.5506105066 13.7876178597 15.5435695029
13.6429189691 13.5121743166 14.9412400493
13.6332473495 13.5941078415 15.5790782988
13.5294545452 12.4209607679 20.4331209610
13.5162008086 13.3037622918 20.2839818524
13.3234750126 12.9145979419 20.8477368010
12.8961449024 12.6469468968 21.6342100817
12.8297502151 14.1448430001 8.2884188170
13.5279252179 13.3759290964 9.1187811892
13.3267912639 14.1913820432 9.4120950981
13.5209586869 14.0725162470 9.6294581204
13.4742558761 14.4122636553 13.0974833362
13.5201235003 14.5326603174 12.4085746647
13.3392468842 14.4163456002 14.1233644045
13.3271878031 14.2985512938 15.3015962864
13.5594543259 13.8867517373 16.2832147170
13.3487582591 14.4047010739 16.6499027791
13.3977378788 14.5051669228 18.0456840980
13.5111405760 14.1811365312 17.3788685613
13.4137153256 14.4078449814 19.1952420031
13.5250175075 14.2145776058 18.5490907200
13.3810371631 13.9744309386 20.2701217185
13.5276300713 13.9515272883 19.5792452974
13.2471675925 13.7958461094 20.9639291395
12.9673359074 13.6739594852 21.5890434720
12.8378923252 15.0581330767 9.3699386887
13.4465708691 14.5951691688 10.2883160976
13.1486500956 15.2169413239 10.6665216966
13.2862064304 15.1165690749 12.1675688560
13.4325957664 14.8562291061 11.3787515113
13.1842036717 15.0948757433 13.3013963399
13.1315653957 15.0266448732 17.7188975142
13.1602994887 15.0229313821 18.7894982296
13.1332419072 14.8675070110 19.8999002311
13.0311633958 14.5306346965 20.9803582531
12.8581828724 15.9389497728 11.6718790582
12.8987216087 15.8633180271 12.7333350578
3 2 1 0
3 4 3 0
3 0 3 2
3 4 5 3
3 0 1 6
3 6 1 7
3 0 8 4
3 0 6 8
3 5 4 9
3 4 10 9
3 4 8 10
3 12 11 10
3 10 11 9
3 14 13 12
3 12 13 11
3 14 15 13
3 6 7 16
3 16 7 17
3 6 18 8
3 6 16 18
3 8 19 10
3 8 18 19
3 10 20 12
3 10 19 20
3 12 21 14
3 12 20 21
3 15 14 22
3 14 23 22
3 14 21 23
3 23 24 22
3 17 25 16
3 27 26 25
3 26 16 25
3 26 18 16
3 18 28 19
3 18 26 28
3 19 29 20
3 19 28 29
3 20 30 21
3 20 29 30
3 21 31 23
3 21 30 31
3 24 23 32
3 32 23 31
3 26 27 33
3 33 27 34
3 26 35 28
3 26 33 35
3 28 36 29
3 28 35 36
3 29 37 30
3 29 36 37
3 30 38 31
3 30 37 38
3 32 31 39
3 39 31 38
3 34 40 33
3 42 41 40
3 41 33 40
3 41 35 33
3 35 43 36
3 35 41 43
3 36 44 37
3 36 43 44
3 46 38 45
3 38 44 45
3 38 37 44
3 38 46 39
3 42 47 41
3 41 47 43
3 43 47 48
3 43 48 44
3 44 48 49
3 49 50 44
3 50 51 44
3 52 45 44
3 52 44 51
3 54 53 51
3 51 53 52
3 54 55 53
3 58 57 56
3 56 59 58
3 51 50 60
3 60 50 61
3 51 62 54
3 51 60 62
3 55 54 63
3 54 64 63
3 54 62 64
3 66 65 64
3 64 65 63
3 66 67 65
3 57 68 56
3 56 68 59
3 61 69 60
3 60 69 62
3 62 69 70
3 62 70 64
3 64 70 71
3 64 71 66
3 66 71 72
3 66 72 67
3 75 74 73
3 73 76 75
3 79 78 77
3 79 77 74
3 74 77 73
3 77 1 73
3 1 2 73
3 80 76 73
3 2 80 73
3 3 80 2
3 82 81 5
3 81 3 5
3 81 80 3
3 84 83 82
3 82 83 81
3 84 85 83
3 77 78 86
3 86 78 87
3 86 7 1
3 86 1 77
3 9 82 5
3 82 9 11
3 82 11 84
3 88 85 84
3 11 88 84
3 13 88 11
3 13 15 88
3 88 15 89
3 86 87 90
3 90 87 91
3 90 17 7
3 90 7 86
3 92 89 15
3 92 15 22
3 22 24 92
3 92 24 93
3 91 94 90
3 94 96 95
3 94 95 25
3 90 94 25
3 17 90 25
3 95 27 25
3 32 98 97
3 93 32 97
3 24 32 93
3 98 99 97
3 96 100 95
3 27 95 100
3 101 27 100
3 34 27 101
3 39 102 98
3 39 98 32
3 99 98 103
3 103 98 102
3 101 104 34
3 34 104 40
3 42 40 104
3 42 104 105
3 45 106 46
3 102 39 46
3 106 102 46
3 107 102 106
3 103 102 108
3 102 109 108
3 102 107 109
3 109 110 108
3 113 112 111
3 115 114 111
3 111 114 113
3 115 116 114
3 105 117 42
3 42 117 47
3 117 119 118
3 48 117 118
3 47 117 48
3 120 49 48
3 120 48 118
3 52 106 45
3 50 49 120
3 106 52 53
3 106 53 107
3 107 53 55
3 121 107 55
3 109 107 121
3 110 109 122
3 109 123 122
3 109 121 123
3 122 123 112
3 123 111 112
3 123 124 111
3 124 57 58
3 115 124 58
3 111 124 115
3 58 59 115
3 59 116 115
3 59 125 116
3 119 126 118
3 118 126 120
3 120 126 127
3 50 120 127
3 128 50 127
3 61 50 128
3 63 121 55
3 121 63 65
3 121 65 123
3 124 123 129
3 123 67 129
3 67 130 129
3 67 123 65
3 124 129 57
3 129 68 57
3 129 131 68
3 59 68 125
3 125 68 131
3 128 132 61
3 61 132 69
3 69 133 70
3 132 133 69
3 70 134 71
3 133 134 70
3 71 135 72
3 134 135 71
3 67 72 130
3 130 72 135
3 138 137 136
3 140 139 136
3 136 139 138
3 140 141 139
3 144 143 142
3 144 142 137
3 142 136 137
3 142 145 136
3 145 74 75
3 140 145 75
3 136 145 140
3 147 146 76
3 76 146 75
3 146 141 75
3 141 140 75
3 149 148 147
3 147 148 146
3 151 150 149
3 149 150 148
3 151 152 150
3 155 154 153
3 155 153 143
3 153 142 143
3 153 156 142
3 156 78 79
3 145 156 79
3 142 156 145
3 145 79 74
3 80 147 76
3 147 80 81
3 147 81 149
3 149 81 83
3 149 83 151
3 158 157 85
3 85 157 83
3 157 152 83
3 152 151 83
3 160 159 158
3 158 159 157
3 160 161 159
3 153 154 162
3 162 154 163
3 153 164 156
3 153 162 164
3 164 87 78
3 164 78 156
3 88 158 85
3 158 88 89
3 165 158 89
3 160 158 165
3 161 160 166
3 160 167 166
3 160 165 167
3 167 168 166
3 162 163 169
3 169 163 170
3 162 171 164
3 162 169 171
3 171 91 87
3 171 87 164
3 92 165 89
3 165 92 93
3 172 165 93
3 167 165 172
3 168 167 173
3 167 174 173
3 167 172 174
3 174 175 173
3 170 176 169
3 178 177 176
3 177 169 176
3 177 171 169
3 179 94 91
3 171 179 91
3 177 179 171
3 179 96 94
3 97 172 93
3 172 97 99
3 180 172 99
3 174 172 180
3 175 174 181
3 174 182 181
3 174 180 182
3 182 183 181
3 178 184 177
3 186 185 184
3 185 177 184
3 185 179 177
3 187 100 96
3 179 187 96
3 185 187 179
3 187 101 100
3 103 188 180
3 103 180 99
3 180 189 182
3 180 188 189
3 183 182 190
3 182 191 190
3 182 189 191
3 191 192 190
3 186 193 185
3 195 194 193
3 194 185 193
3 194 187 185
3 196 104 101
3 187 196 101
3 194 196 187
3 196 105 104
3 108 188 103
3 188 108 110
3 197 188 110
3 189 188 197
3 197 112 113
3 191 197 113
3 189 197 191
3 113 114 191
3 114 198 191
3 198 192 191
3 114 199 198
3 116 199 114
3 195 200 194
3 202 201 200
3 201 194 200
3 201 196 194
3 203 117 105
3 196 203 105
3 201 203 196
3 203 119 117
3 122 197 110
3 197 122 112
3 198 199 204
3 198 204 205
3 125 204 116
3 116 204 199
3 202 206 201
3 201 206 203
3 203 206 207
3 203 207 119
3 207 126 119
3 207 208 126
3 208 210 209
3 127 208 209
3 126 208 127
3 209 128 127
3 213 212 211
3 129 130 211
3 212 129 211
3 214 129 212
3 204 131 205
3 131 214 205
3 131 129 214
3 131 204 125
3 210 215 209
3 209 215 128
3 215 132 128
3 215 216 132
3 132 217 133
3 216 217 132
3 133 218 134
3 217 218 133
3 211 135 213
3 135 218 213
3 135 134 218
3 135 211 130
3 221 220 219
3 219 222 221
3 220 223 219
3 219 223 222
3 226 225 224
3 228 227 224
3 224 227 226
3 230 229 228
3 228 229 227
3 232 231 230
3 230 231 229
3 234 233 232
3 232 233 231
3 234 235 233
3 238 237 236
3 238 236 225
3 236 224 225
3 236 239 224
3 224 240 228
3 224 239 240
3 240 137 138
3 230 240 138
3 228 240 230
3 230 138 139
3 230 139 232
3 232 139 141
3 241 232 141
3 234 232 241
3 235 234 242
3 234 243 242
3 234 241 243
3 245 244 243
3 243 244 242
3 247 246 245
3 245 246 244
3 247 248 246
3 251 250 249
3 251 249 237
3 249 236 237
3 249 252 236
3 236 253 239
3 236 252 253
3 253 143 144
3 240 253 144
3 239 253 240
3 240 144 137
3 146 241 141
3 241 146 148
3 241 148 243
3 243 148 150
3 243 150 245
3 245 150 152
3 254 245 152
3 247 245 254
3 248 247 255
3 247 256 255
3 247 254 256
3 258 257 256
3 256 257 255
3 258 259 257
3 249 250 260
3 260 250 261
3 249 262 252
3 249 260 262
3 262 154 155
3 253 262 155
3 252 262 253
3 253 155 143
3 157 254 152
3 254 157 159
3 254 159 256
3 256 159 161
3 263 256 161
3 258 256 263
3 259 258 264
3 258 265 264
3 258 263 265
3 265 266 264
3 260 261 267
3 267 261 268
3 260 269 262
3 260 267 269
3 269 163 154
3 269 154 262
3 166 263 161
3 263 166 168
3 270 263 168
3 265 263 270
3 266 265 271
3 265 272 271
3 265 270 272
3 272 273 271
3 267 268 274
3 274 268 275
3 267 276 269
3 267 274 276
3 276 170 163
3 276 163 269
3 173 270 168
3 270 173 175
3 277 270 175
3 272 270 277
3 273 272 278
3 272 279 278
3 272 277 279
3 279 280 278
3 275 281 274
3 283 282 281
3 282 274 281
3 282 276 274
3 284 176 170
3 276 284 170
3 282 284 276
3 284 178 176
3 181 277 175
3 277 181 183
3 285 277 183
3 279 277 285
3 280 279 286
3 279 287 286
3 279 285 287
3 287 288 286
3 283 289 282
3 291 290 289
3 290 282 289
3 290 284 282
3 292 184 178
3 284 292 178
3 290 292 284
3 292 186 184
3 190 285 183
3 285 190 192
3 293 285 192
3 287 285 293
3 288 287 294
3 294 287 293
3 291 295 290
3 297 296 295
3 296 290 295
3 296 292 290
3 298 193 186
3 292 298 186
3 296 298 292
3 298 195 193
3 198 299 293
3 198 293 192
3 294 293 300
3 300 293 299
3 297 301 296
3 296 301 298
3 298 301 302
3 302 304 303
3 302 303 200
3 298 302 200
3 195 298 200
3 303 202 200
3 205 305 299
3 205 299 198
3 300 299 306
3 306 299 305
3 304 307 303
3 307 309 308
3 307 308 206
3 303 307 206
3 202 303 206
3 310 207 206
3 310 206 308
3 311 208 207
3 311 207 310
3 311 210 208
3 213 312 212
3 212 312 313
3 314 212 313
3 214 212 314
3 205 214 305
3 214 315 305
3 214 314 315
3 305 315 306
3 309 316 308
3 308 316 310
3 310 316 317
3 319 318 317
3 318 310 317
3 318 311 310
3 320 215 210
3 311 320 210
3 318 320 311
3 321 216 215
3 321 215 320
3 322 217 216
3 322 216 321
3 217 322 323
3 324 217 323
3 218 217 324
3 213 218 312
3 218 325 312
3 218 324 325
3 312 325 313
3 319 326 318
3 318 326 320
3 320 326 327
3 320 327 321
3 321 327 328
3 321 328 322
3 322 328 329
3 322 329 323
3 332 331 330
3 330 333 332
3 330 331 221
3 331 220 221
3 331 334 220
3 221 222 330
3 222 333 330
3 222 335 333
3 223 220 336
3 220 337 336
3 220 334 337
3 336 338 223
3 338 222 223
3 338 335 222
3 341 340 339
3 339 342 341
3 339 340 343
3 343 340 344
3 342 339 345
3 345 339 343
3 344 346 343
3 343 346 345
3 349 348 347
3 351 350 347
3 347 350 349
3 353 352 351
3 351 352 350
3 355 354 353
3 353 354 352
3 355 356 354
3 359 358 357
3 359 357 348
3 357 347 348
3 357 360 347
3 360 225 226
3 351 360 226
3 347 360 351
3 351 226 227
3 351 227 353
3 353 227 229
3 353 229 355
3 361 356 355
3 229 361 355
3 231 361 229
3 362 231 233
3 362 361 231
3 364 363 235
3 363 233 235
3 363 362 233
3 366 365 364
3 364 365 363
3 366 367 365
3 370 369 368
3 370 368 358
3 368 357 358
3 368 371 357
3 371 237 238
3 360 371 238
3 357 371 360
3 360 238 225
3 242 364 235
3 364 242 244
3 364 244 366
3 372 367 366
3 244 372 366
3 246 372 244
3 374 373 248
3 373 246 248
3 373 372 246
3 376 375 374
3 374 375 373
3 376 377 375
3 368 369 378
3 378 369 379
3 378 250 251
3 371 378 251
3 368 378 371
3 371 251 237
3 255 374 248
3 374 255 257
3 374 257 376
3 381 380 259
3 259 380 257
3 380 377 257
3 377 376 257
3 381 382 380
3 378 379 383
3 383 379 384
3 383 261 250
3 383 250 378
3 264 381 259
3 386 385 266
3 266 385 264
3 385 382 264
3 382 381 264
3 386 387 385
3 383 384 388
3 388 384 389
3 388 268 261
3 388 261 383
3 271 386 266
3 391 390 273
3 273 390 271
3 390 387 271
3 387 386 271
3 391 392 390
3 389 393 388
3 268 388 393
3 394 268 393
3 275 268 394
3 278 391 273
3 396 395 280
3 280 395 278
3 395 392 278
3 392 391 278
3 396 397 395
3 281 275 398
3 275 399 398
3 275 394 399
3 398 283 281
3 286 396 280
3 286 288 396
3 288 397 396
3 288 400 397
3 399 401 398
3 401 403 402
3 401 402 289
3 398 401 289
3 283 398 289
3 402 291 289
3 294 405 404
3 400 294 404
3 288 294 400
3 405 406 404
3 403 407 402
3 402 407 291
3 407 295 291
3 407 408 295
3 297 295 408
3 297 408 409
3 300 410 405
3 300 405 294
3 406 405 411
3 411 405 410
3 409 412 297
3 297 412 301
3 412 414 413
3 302 412 413
3 301 412 302
3 413 304 302
3 306 415 410
3 306 410 300
3 411 410 416
3 416 410 415
3 414 417 413
3 413 417 304
3 417 307 304
3 417 418 307
3 309 307 418
3 309 418 419
3 421 420 314
3 421 314 313
3 314 422 315
3 420 422 314
3 306 315 415
3 315 423 415
3 315 422 423
3 415 423 416
3 419 424 309
3 309 424 316
3 424 426 425
3 317 424 425
3 316 424 317
3 425 319 317
3 429 428 427
3 324 323 427
3 428 324 427
3 430 324 428
3 324 431 325
3 430 431 324
3 313 325 421
3 421 325 431
3 434 433 432
3 426 435 425
3 435 437 436
3 435 436 326
3 425 435 326
3 319 425 326
3 438 327 326
3 438 326 436
3 439 328 327
3 439 327 438
3 440 429 427
3 328 440 427
3 329 328 427
3 440 328 439
3 329 427 323
3 432 433 441
3 441 433 442
3 437 443 436
3 444 331 332
3 436 444 332
3 438 436 332
3 443 444 436
3 439 438 445
3 438 333 445
3 333 446 445
3 333 438 332
3 439 445 440
3 442 447 441
3 450 449 448
3 444 450 448
3 334 444 448
3 331 444 334
3 335 446 333
3 335 451 446
3 449 452 448
3 337 334 448
3 453 337 448
3 452 453 448
3 337 453 454
3 453 451 454
3 451 338 454
3 451 335 338
3 457 456 455
3 455 458 457
3 461 460 459
3 461 459 456
3 456 459 455
3 459 340 455
3 340 341 455
3 341 342 455
3 342 458 455
3 342 462 458
3 460 463 459
3 340 459 463
3 464 340 463
3 344 340 464
3 345 462 342
3 345 465 462
3 464 466 344
3 344 466 346
3 345 346 465
3 465 346 466
3 469 468 467
3 471 470 467
3 467 470 469
3 473 472 471
3 471 472 470
3 475 474 473
3 473 474 472
3 475 476 474
3 479 478 477
3 479 477 468
3 477 467 468
3 477 480 467
3 480 348 349
3 471 480 349
3 467 480 471
3 471 349 350
3 471 350 473
3 473 350 352
3 473 352 475
3 481 476 475
3 352 481 475
3 354 481 352
3 483 482 356
3 482 354 356
3 482 481 354
3 485 484 483
3 483 484 482
3 487 486 485
3 485 486 484
3 487 488 486
3 477 478 489
3 489 478 490
3 489 358 359
3 480 489 359
3 477 489 480
3 480 359 348
3 361 483 356
3 483 361 362
3 483 362 485
3 485 362 363
3 485 363 487
3 491 488 487
3 363 491 487
3 365 491 363
3 493 492 367
3 492 365 367
3 492 491 365
3 495 494 493
3 493 494 492
3 495 496 494
3 499 498 497
3 499 497 490
3 490 497 489
3 497 369 489
3 369 370 489
3 489 370 358
3 372 493 367
3 493 372 373
3 493 373 495
3 500 496 495
3 373 500 495
3 375 500 373
3 375 377 500
3 500 377 501
3 497 498 502
3 502 498 503
3 502 379 369
3 502 369 497
3 504 501 377
3 504 377 380
3 506 505 382
3 505 380 382
3 505 504 380
3 506 507 505
3 502 503 508
3 508 503 509
3 508 384 379
3 508 379 502
3 385 506 382
3 511 510 387
3 387 510 385
3 510 507 385
3 507 506 385
3 511 512 510
3 509 513 508
3 384 508 513
3 514 384 513
3 389 384 514
3 390 511 387
3 516 515 392
3 392 515 390
3 515 512 390
3 512 511 390
3 516 517 515
3 514 518 389
3 389 518 393
3 394 393 518
3 394 518 519
3 395 516 392
3 395 397 516
3 397 517 516
3 397 520 517
3 522 399 521
3 399 519 521
3 399 394 519
3 523 522 521
3 400 525 524
3 520 400 524
3 397 400 520
3 525 526 524
3 522 401 399
3 528 527 403
3 528 403 401
3 523 528 401
3 522 523 401
3 529 527 528
3 404 525 400
3 531 530 406
3 406 530 404
3 530 526 404
3 526 525 404
3 533 532 531
3 531 532 530
3 527 407 403
3 529 534 527
3 534 407 527
3 534 408 407
3 409 408 534
3 409 534 535
3 411 536 531
3 411 531 406
3 538 533 537
3 533 536 537
3 533 531 536
3 535 539 409
3 409 539 412
3 541 540 414
3 412 541 414
3 539 541 412
3 542 540 541
3 416 543 536
3 416 536 411
3 537 536 544
3 544 536 543
3 540 417 414
3 542 545 540
3 545 417 540
3 545 418 417
3 419 418 545
3 419 545 546
3 549 548 547
3 551 550 547
3 551 547 548
3 420 421 550
3 551 420 550
3 552 420 551
3 420 553 422
3 552 553 420
3 422 554 423
3 553 554 422
3 423 554 416
3 554 555 416
3 555 543 416
3 555 554 556
3 544 543 557
3 557 543 555
3 546 558 419
3 419 558 424
3 560 559 426
3 424 560 426
3 558 560 424
3 562 561 559
3 562 559 560
3 564 563 561
3 564 561 562
3 566 565 563
3 566 563 564
3 428 429 565
3 566 428 565
3 567 428 566
3 547 430 549
3 430 567 549
3 430 428 567
3 430 547 431
3 431 547 550
3 431 550 421
3 556 568 555
3 433 568 569
3 568 433 555
3 434 555 433
3 555 434 557
3 570 557 434
3 559 435 426
3 435 559 437
3 559 571 437
3 559 561 571
3 572 561 563
3 571 561 572
3 573 563 565
3 572 563 573
3 440 573 429
3 429 573 565
3 569 442 433
3 574 442 569
3 571 443 437
3 571 572 575
3 444 571 575
3 576 444 575
3 571 444 443
3 446 577 445
3 577 572 445
3 572 573 445
3 577 575 572
3 445 573 440
3 574 578 442
3 442 578 447
3 580 579 450
3 450 579 449
3 450 444 576
3 450 576 580
3 451 577 446
3 451 581 577
3 579 582 449
3 449 582 452
3 452 583 453
3 582 583 452
3 451 453 581
3 581 453 583
3 586 585 584
3 456 457 584
3 457 586 584
3 457 587 586
3 457 458 587
3 587 458 588
3 590 589 585
3 589 460 585
3 461 584 585
3 461 585 460
3 461 456 584
3 589 590 591
3 462 588 458
3 462 592 588
3 589 463 460
3 594 593 464
3 594 464 463
3 591 594 463
3 589 591 463
3 594 592 593
3 592 465 593
3 592 462 465
3 596 466 595
3 466 464 595
3 595 464 593
3 597 595 593
3 597 593 598
3 593 465 598
3 466 596 598
3 466 598 465
3 596 595 599
3 599 595 600
3 598 596 601
3 596 602 601
3 596 599 602
3 602 603 601
3 606 605 604
3 604 607 606
3 610 609 608
3 610 608 600
3 600 608 599
3 608 468 599
3 468 469 599
3 599 469 470
3 599 470 602
3 611 603 602
3 470 611 602
3 472 611 470
3 474 604 605
3 611 474 605
3 472 474 611
3 613 612 476
3 476 612 474
3 612 607 474
3 607 604 474
3 615 614 613
3 613 614 612
3 617 616 615
3 615 616 614
3 619 618 617
3 617 618 616
3 619 620 618
3 623 622 621
3 623 621 609
3 609 621 608
3 621 478 608
3 478 479 608
3 608 479 468
3 481 613 476
3 613 481 482
3 613 482 615
3 615 482 484
3 615 484 617
3 617 484 486
3 617 486 619
3 625 624 488
3 488 624 486
3 624 620 486
3 620 619 486
3 627 626 625
3 625 626 624
3 627 628 626
3 631 630 629
3 631 629 622
3 629 621 622
3 629 632 621
3 632 490 478
3 632 478 621
3 491 625 488
3 625 491 492
3 625 492 627
3 633 628 627
3 492 633 627
3 494 633 492
3 494 496 633
3 633 496 634
3 629 630 635
3 635 630 636
3 635 498 499
3 632 635 499
3 629 635 632
3 632 499 490
3 637 634 496
3 637 496 500
3 639 638 501
3 638 500 501
3 638 637 500
3 639 640 638
3 635 636 641
3 641 636 642
3 641 503 498
3 641 498 635
3 504 639 501
3 643 640 639
3 504 643 639
3 505 643 504
3 505 507 643
3 643 507 644
3 642 645 641
3 503 641 645
3 646 503 645
3 509 503 646
3 647 644 507
3 647 507 510
3 510 512 647
3 647 512 648
3 646 649 509
3 509 649 513
3 651 650 514
3 513 651 514
3 649 651 513
3 652 650 651
3 653 648 512
3 653 512 515
3 515 517 653
3 653 517 654
3 650 518 514
3 519 518 650
3 652 519 650
3 655 519 652
3 520 657 656
3 654 520 656
3 517 520 654
3 657 658 656
3 655 659 519
3 519 659 521
3 523 521 659
3 523 659 660
3 524 657 520
3 662 661 526
3 526 661 524
3 661 658 524
3 658 657 524
3 662 663 661
3 660 664 523
3 523 664 528
3 666 665 529
3 528 666 529
3 664 666 528
3 667 665 666
3 530 662 526
3 668 663 662
3 530 668 662
3 532 668 530
3 665 534 529
3 670 669 535
3 670 535 534
3 667 670 534
3 665 667 534
3 671 669 670
3 673 672 538
3 673 538 537
3 669 539 535
3 671 674 669
3 674 539 669
3 674 541 539
3 676 675 542
3 541 676 542
3 674 676 541
3 677 675 676
3 680 679 678
3 682 681 678
3 682 678 679
3 684 683 681
3 684 681 682
3 686 685 683
3 686 683 684
3 686 673 685
3 673 544 685
3 673 537 544
3 675 545 542
3 688 687 546
3 688 546 545
3 677 688 545
3 675 677 545
3 690 689 687
3 690 687 688
3 692 691 689
3 692 689 690
3 694 693 691
3 694 691 692
3 696 695 693
3 696 693 694
3 698 697 695
3 698 695 696
3 548 549 697
3 698 548 697
3 699 548 698
3 548 700 551
3 699 700 548
3 678 552 680
3 552 700 680
3 552 551 700
3 552 678 553
3 553 678 681
3 553 681 554
3 554 681 683
3 554 683 556
3 683 701 556
3 683 685 701
3 557 702 544
3 703 544 702
3 544 703 685
3 704 685 703
3 685 704 701
3 687 558 546
3 558 687 560
3 560 687 689
3 560 689 562
3 562 689 691
3 562 691 564
3 564 691 693
3 564 693 566
3 566 693 695
3 566 695 567
3 567 695 697
3 567 697 549
3 701 568 556
3 557 570 702
3 568 701 569
3 704 569 701
3 569 704 705
3 707 574 706
3 574 705 706
3 574 569 705
3 708 576 575
3 577 708 575
3 707 578 574
3 709 579 580
3 576 708 580
3 708 709 580
3 708 710 709
3 581 710 577
3 577 710 708
3 709 582 579
3 582 709 583
3 583 709 710
3 583 710 581
3 712 711 586
3 586 711 585
3 713 586 587
3 713 712 586
3 587 588 713
3 713 588 714
3 711 715 585
3 585 715 590
3 591 590 715
3 591 715 716
3 592 714 588
3 592 717 714
3 716 718 591
3 591 718 594
3 592 594 717
3 717 594 718
3 720 719 597
3 597 719 595
3 597 598 720
3 720 598 721
3 724 723 722
3 719 724 722
3 600 719 722
3 595 719 600
3 725 721 598
3 725 598 601
3 727 726 603
3 726 601 603
3 726 725 601
3 605 606 727
3 606 726 727
3 606 728 726
3 730 729 607
3 729 606 607
3 729 728 606
3 730 731 729
3 734 733 732
3 734 732 723
3 723 732 722
3 732 609 722
3 609 610 722
3 722 610 600
3 611 727 603
3 727 611 605
3 612 730 607
3 735 731 730
3 612 735 730
3 614 735 612
3 736 614 616
3 736 735 614
3 737 616 618
3 737 736 616
3 739 738 620
3 738 618 620
3 738 737 618
3 739 740 738
3 743 742 741
3 743 741 733
3 733 741 732
3 741 622 732
3 622 623 732
3 732 623 609
3 624 739 620
3 744 740 739
3 624 744 739
3 626 744 624
3 746 745 628
3 745 626 628
3 745 744 626
3 746 747 745
3 741 742 631
3 742 630 631
3 742 748 630
3 741 631 622
3 633 746 628
3 750 749 634
3 634 749 633
3 749 747 633
3 747 746 633
3 750 751 749
3 748 636 630
3 752 636 748
3 637 750 634
3 753 751 750
3 637 753 750
3 638 753 637
3 755 754 640
3 754 638 640
3 754 753 638
3 755 756 754
3 758 642 757
3 642 752 757
3 642 636 752
3 759 758 757
3 643 755 640
3 761 760 644
3 644 760 643
3 760 756 643
3 756 755 643
3 761 762 760
3 758 645 642
3 764 763 646
3 764 646 645
3 759 764 645
3 758 759 645
3 765 763 764
3 647 761 644
3 767 766 648
3 648 766 647
3 766 762 647
3 762 761 647
3 767 768 766
3 763 649 646
3 765 769 763
3 769 649 763
3 769 651 649
3 652 651 769
3 652 769 770
3 653 767 648
3 772 771 654
3 654 771 653
3 771 768 653
3 768 767 653
3 772 773 771
3 775 655 774
3 655 770 774
3 655 652 770
3 776 775 774
3 656 772 654
3 656 658 772
3 658 773 772
3 658 777 773
3 775 659 655
3 779 778 660
3 779 660 659
3 776 779 659
3 775 776 659
3 781 780 778
3 781 778 779
3 782 780 781
3 783 777 658
3 783 658 661
3 661 663 783
3 783 663 784
3 778 664 660
3 664 778 666
3 666 778 780
3 786 785 667
3 786 667 666
3 782 786 666
3 780 782 666
3 787 785 786
3 790 789 788
3 791 788 668
3 788 784 668
3 784 663 668
3 784 788 789
3 785 670 667
3 793 792 671
3 793 671 670
3 787 793 670
3 785 787 670
3 794 792 793
3 797 796 795
3 799 798 795
3 799 795 796
3 798 799 790
3 788 798 790
3 800 798 788
3 673 800 672
3 800 791 672
3 800 788 791
3 792 674 671
3 794 801 792
3 801 674 792
3 801 676 674
3 803 802 677
3 676 803 677
3 801 803 676
3 805 804 802
3 805 802 803
3 806 804 805
3 809 808 807
3 811 810 807
3 811 807 808
3 813 812 810
3 813 810 811
3 814 812 813
3 817 816 815
3 679 680 815
3 816 679 815
3 818 679 816
3 795 682 797
3 682 818 797
3 682 679 818
3 682 795 684
3 684 795 798
3 684 798 686
3 686 798 800
3 686 800 673
3 802 688 677
3 688 802 690
3 690 802 804
3 806 819 804
3 819 690 804
3 819 692 690
3 807 694 809
3 694 819 809
3 694 692 819
3 694 807 696
3 696 807 810
3 696 810 698
3 698 810 812
3 814 820 812
3 820 698 812
3 820 699 698
3 815 700 817
3 700 820 817
3 700 699 820
3 700 815 680
3 821 704 703
3 822 705 821
3 821 705 704
3 822 706 705
3 823 711 712
3 713 824 712
3 712 824 823
3 714 824 713
3 823 715 711
3 715 823 716
3 823 825 716
3 823 824 825
3 717 825 714
3 714 825 824
3 825 718 716
3 718 825 717
3 828 827 826
3 827 829 826
3 831 830 720
3 720 830 719
3 832 827 721
3 827 831 721
3 831 720 721
3 827 828 831
3 829 827 833
3 827 834 833
3 827 832 834
3 836 835 834
3 834 835 833
3 836 837 835
3 840 839 838
3 723 724 838
3 724 840 838
3 724 841 840
3 724 719 830
3 724 830 841
3 725 832 721
3 832 725 726
3 832 726 834
3 834 726 728
3 834 728 836
3 842 837 836
3 728 842 836
3 729 842 728
3 844 843 731
3 843 729 731
3 843 842 729
3 846 845 844
3 844 845 843
3 846 847 845
3 850 849 848
3 850 848 839
3 839 848 838
3 848 733 838
3 733 734 838
3 838 734 723
3 735 844 731
3 844 735 736
3 844 736 846
3 851 847 846
3 736 851 846
3 737 851 736
3 852 737 738
3 852 851 737
3 854 853 740
3 853 738 740
3 853 852 738
3 854 855 853
3 848 849 743
3 849 742 743
3 849 856 742
3 848 743 733
3 744 854 740
3 857 855 854
3 744 857 854
3 745 857 744
3 859 858 747
3 858 745 747
3 858 857 745
3 859 860 858
3 856 748 742
3 861 748 856
3 749 859 747
3 863 862 751
3 751 862 749
3 862 860 749
3 860 859 749
3 863 864 862
3 866 752 865
3 752 861 865
3 752 748 861
3 867 866 865
3 753 863 751
3 868 864 863
3 753 868 863
3 754 868 753
3 754 756 868
3 868 756 869
3 866 757 752
3 871 870 759
3 871 759 757
3 867 871 757
3 866 867 757
3 872 870 871
3 873 869 756
3 873 756 760
3 875 874 762
3 874 760 762
3 874 873 760
3 875 876 874
3 870 764 759
3 878 877 765
3 878 765 764
3 872 878 764
3 870 872 764
3 879 877 878
3 766 875 762
3 766 768 875
3 768 876 875
3 768 880 876
3 877 769 765
3 882 881 770
3 882 770 769
3 879 882 769
3 877 879 769
3 883 881 882
3 884 880 768
3 884 768 771
3 771 773 884
3 884 773 885
3 881 774 770
3 887 886 776
3 887 776 774
3 883 887 774
3 881 883 774
3 888 886 887
3 777 885 773
3 777 889 885
3 886 779 776
3 888 890 886
3 890 779 886
3 890 781 779
3 782 781 890
3 782 890 891
3 777 783 892
3 893 777 892
3 889 777 893
3 784 892 783
3 891 894 782
3 782 894 786
3 896 895 787
3 786 896 787
3 894 896 786
3 897 895 896
3 900 899 898
3 902 901 898
3 902 898 899
3 901 902 893
3 901 893 892
3 790 901 892
3 789 790 892
3 789 892 784
3 895 793 787
3 904 903 794
3 904 794 793
3 897 904 793
3 895 897 793
3 906 905 903
3 906 903 904
3 908 907 905
3 908 905 906
3 909 907 908
3 912 911 910
3 914 913 910
3 914 910 911
3 916 915 913
3 916 913 914
3 915 916 900
3 915 900 898
3 797 915 898
3 796 797 898
3 796 898 799
3 799 898 901
3 799 901 790
3 903 801 794
3 801 903 803
3 803 903 905
3 803 905 805
3 805 905 907
3 918 917 806
3 918 806 805
3 909 918 805
3 907 909 805
3 808 809 917
3 918 808 917
3 919 808 918
3 808 920 811
3 919 920 808
3 811 921 813
3 920 921 811
3 910 922 814
3 921 910 814
3 813 921 814
3 912 910 921
3 817 922 816
3 922 913 816
3 922 910 913
3 816 913 818
3 818 913 915
3 818 915 797
3 917 819 806
3 819 917 809
3 922 820 814
3 820 922 817
3 923 828 826
3 829 923 826
3 925 924 831
3 831 924 830
3 831 828 923
3 926 831 923
3 925 831 926
3 926 923 829
3 833 926 829
3 927 926 833
3 928 833 835
3 928 927 833
3 930 929 837
3 929 835 837
3 929 928 835
3 930 931 929
3 932 839 840
3 932 840 933
3 840 934 933
3 840 841 934
3 841 830 924
3 841 924 934
3 842 930 837
3 935 931 930
3 842 935 930
3 843 935 842
3 936 843 845
3 936 935 843
3 938 937 847
3 937 845 847
3 937 936 845
3 938 939 937
3 941 940 850
3 850 940 849
3 850 839 932
3 942 850 932
3 941 850 942
3 942 932 933
3 851 938 847
3 943 939 938
3 851 943 938
3 852 943 851
3 944 852 853
3 944 943 852
3 946 945 855
3 945 853 855
3 945 944 853
3 946 947 945
3 940 856 849
3 948 856 940
3 857 946 855
3 949 947 946
3 857 949 946
3 858 949 857
3 951 950 860
3 950 858 860
3 950 949 858
3 951 952 950
3 954 861 953
3 861 948 953
3 861 856 948
3 955 954 953
3 862 951 860
3 862 864 951
3 864 952 951
3 864 956 952
3 954 865 861
3 958 957 867
3 958 867 865
3 955 958 865
3 954 955 865
3 959 957 958
3 960 956 864
3 960 864 868
3 962 961 869
3 961 868 869
3 961 960 868
3 962 963 961
3 957 871 867
3 965 964 872
3 965 872 871
3 959 965 871
3 957 959 871
3 966 964 965
3 873 962 869
3 967 963 962
3 873 967 962
3 874 967 873
3 874 876 967
3 967 876 968
3 964 878 872
3 970 969 879
3 970 879 878
3 966 970 878
3 964 966 878
3 971 969 970
3 880 968 876
3 880 972 968
3 969 882 879
3 974 973 883
3 974 883 882
3 971 974 882
3 969 971 882
3 975 973 974
3 976 972 880
3 976 880 884
3 884 885 976
3 976 885 977
3 973 887 883
3 979 978 888
3 979 888 887
3 975 979 887
3 973 975 887
3 980 978 979
3 889 977 885
3 889 981 977
3 978 890 888
3 983 982 891
3 983 891 890
3 980 983 890
3 978 980 890
3 984 982 983
3 987 986 985
3 986 981 985
3 981 893 985
3 981 889 893
3 982 894 891
3 984 988 982
3 988 894 982
3 988 896 894
3 990 989 897
3 896 990 897
3 988 990 896
3 992 991 989
3 992 989 990
3 993 991 992
3 996 995 994
3 998 997 994
3 998 994 995
3 899 900 997
3 998 899 997
3 999 899 998
3 985 902 987
3 902 999 987
3 902 899 999
3 902 985 893
3 989 904 897
3 904 989 906
3 906 989 991
3 993 1000 991
3 1000 906 991
3 1000 908 906
3 1002 1001 909
3 908 1002 909
3 1000 1002 908
3 1004 1003 1001
3 1004 1001 1002
3 1006 1005 1003
3 1006 1003 1004
3 1008 1007 1005
3 1008 1005 1006
3 911 912 1007
3 1008 911 1007
3 1009 911 1008
3 994 914 996
3 914 1009 996
3 914 911 1009
3 914 994 916
3 916 994 997
3 916 997 900
3 1001 918 909
3 918 1001 919
3 919 1001 1003
3 919 1003 920
3 920 1003 1005
3 920 1005 921
3 921 1005 1007
3 921 1007 912
3 1010 924 925
3 1010 925 1011
3 925 1012 1011
3 925 926 1012
3 1013 926 927
3 1013 1012 926
3 1014 927 928
3 1014 1013 927
3 1015 928 929
3 1015 1014 928
3 1017 1016 931
3 1016 929 931
3 1016 1015 929
3 1017 1018 1016
3 1019 933 934
3 924 1010 934
3 1010 1019 934
3 1010 1020 1019
3 1010 1011 1021
3 1010 1021 1020
3 935 1017 931
3 1022 1018 1017
3 935 1022 1017
3 936 1022 935
3 1023 936 937
3 1023 1022 936
3 937 939 1023
3 1023 939 1024
3 1025 940 941
3 942 1026 941
3 941 1026 1025
3 933 1019 942
3 1019 1026 942
3 1019 1027 1026
3 1020 1029 1028
3 1027 1020 1028
3 1019 1020 1027
3 1029 1020 1021
3 1030 1024 939
3 1030 939 943
3 1031 943 944
3 1031 1030 943
3 1032 944 945
3 1032 1031 944
3 945 947 1032
3 1032 947 1033
3 1034 948 1025
3 1025 948 940
3 1026 1036 1035
3 1034 1026 1035
3 1025 1026 1034
3 1036 1026 1027
3 1036 1027 1037
3 1037 1027 1028
3 1038 1033 947
3 1038 947 949
3 1039 949 950
3 1039 1038 949
3 950 952 1039
3 1039 952 1040
3 1034 953 948
3 1042 1041 955
3 1042 955 953
3 1035 1042 953
3 1034 1035 953
3 1043 1041 1042
3 956 1040 952
3 956 1044 1040
3 1041 958 955
3 1046 1045 959
3 1046 959 958
3 1043 1046 958
3 1041 1043 958
3 1047 1045 1046
3 1048 1044 956
3 1048 956 960
3 1050 1048 1049
3 1048 961 1049
3 1048 960 961
3 963 1049 961
3 1045 965 959
3 1052 1051 966
3 1052 966 965
3 1047 1052 965
3 1045 1047 965
3 1053 1051 1052
3 1054 1050 1049
3 1054 1049 963
3 967 1054 963
3 1055 1054 967
3 967 968 1055
3 1055 968 1056
3 1051 970 966
3 1058 1057 971
3 1058 971 970
3 1053 1058 970
3 1051 1053 970
3 1059 1057 1058
3 972 1056 968
3 972 1060 1056
3 1057 974 971
3 1062 1061 975
3 1062 975 974
3 1059 1062 974
3 1057 1059 974
3 1063 1061 1062
3 972 976 1064
3 1065 972 1064
3 1060 972 1065
3 977 1064 976
3 1061 979 975
3 1067 1066 980
3 1067 980 979
3 1063 1067 979
3 1061 1063 979
3 1068 1066 1067
3 1071 1070 1069
3 1073 1072 1069
3 1073 1069 1070
3 1075 1074 1072
3 1075 1072 1073
3 1076 1074 1075
3 1079 1078 1077
3 1077 1078 1065
3 1064 1077 1065
3 1080 1077 1064
3 981 1080 977
3 977 1080 1064
3 1066 983 980
3 1082 1081 984
3 1082 984 983
3 1068 1082 983
3 1066 1068 983
3 1084 1083 1081
3 1084 1081 1082
3 1085 1083 1084
3 1071 1069 1086
3 1071 1086 1087
3 1088 1069 1072
3 1086 1069 1088
3 1089 1072 1074
3 1088 1072 1089
3 1074 1076 1090
3 1091 1074 1090
3 1089 1074 1091
3 1093 1092 1091
3 1093 1091 1090
3 1095 1094 1092
3 1095 1092 1093
3 1097 1096 1094
3 1097 1094 1095
3 1096 1097 1079
3 1077 1096 1079
3 1098 1096 1077
3 987 1098 986
3 1098 1080 986
3 1098 1077 1080
3 986 1080 981
3 1081 988 984
3 988 1081 990
3 990 1081 1083
3 1085 1099 1083
3 1099 990 1083
3 1099 992 990
3 1101 1100 993
3 992 1101 993
3 1099 1101 992
3 1100 1101 1087
3 1086 1100 1087
3 1102 1100 1086
3 1103 1086 1088
3 1102 1086 1103
3 1104 1088 1089
3 1103 1088 1104
3 1105 1089 1091
3 1104 1089 1105
3 1106 1091 1092
3 1105 1091 1106
3 996 1106 995
3 1106 1094 995
3 1106 1092 1094
3 995 1094 998
3 998 1094 1096
3 998 1096 999
3 999 1096 1098
3 999 1098 987
3 1100 1000 993
3 1000 1100 1002
3 1002 1100 1102
3 1002 1102 1004
3 1004 1102 1103
3 1004 1103 1006
3 1006 1103 1104
3 1006 1104 1008
3 1008 1104 1105
3 1008 1105 1009
3 1009 1105 1106
3 1009 1106 996
3 1107 1011 1012
3 1107 1012 1108
3 1012 1109 1108
3 1012 1013 1109
3 1110 1013 1014
3 1110 1109 1013
3 1111 1014 1015
3 1111 1110 1014
3 1113 1111 1112
3 1111 1016 1112
3 1111 1015 1016
3 1018 1112 1016
3 1114 1021 1107
3 1107 1021 1011
3 1107 1108 1115
3 1107 1115 1114
3 1116 1113 1112
3 1118 1116 1117
3 1117 1116 1022
3 1116 1112 1022
3 1112 1018 1022
3 1023 1119 1022
3 1022 1119 1117
3 1024 1119 1023
3 1120 1028 1029
3 1021 1114 1029
3 1114 1120 1029
3 1114 1121 1120
3 1114 1115 1122
3 1123 1114 1122
3 1121 1114 1123
3 1124 1123 1122
3 1125 1118 1117
3 1125 1117 1119
3 1125 1119 1126
3 1126 1119 1024
3 1030 1126 1024
3 1127 1126 1030
3 1129 1127 1128
3 1127 1031 1128
3 1127 1030 1031
3 1032 1130 1031
3 1031 1130 1128
3 1033 1130 1032
3 1131 1035 1036
3 1037 1132 1036
3 1036 1132 1131
3 1028 1120 1037
3 1120 1132 1037
3 1120 1133 1132
3 1134 1120 1121
3 1133 1120 1134
3 1135 1121 1123
3 1134 1121 1135
3 1123 1124 1136
3 1137 1123 1136
3 1135 1123 1137
3 1139 1138 1137
3 1139 1137 1136
3 1140 1138 1139
3 1141 1129 1128
3 1141 1128 1130
3 1141 1130 1142
3 1142 1130 1033
3 1038 1142 1033
3 1143 1142 1038
3 1145 1143 1144
3 1143 1039 1144
3 1143 1038 1039
3 1040 1144 1039
3 1131 1042 1035
3 1042 1131 1043
3 1131 1146 1043
3 1131 1132 1146
3 1147 1132 1133
3 1146 1132 1147
3 1148 1133 1134
3 1147 1133 1148
3 1149 1134 1135
3 1148 1134 1149
3 1150 1135 1137
3 1149 1135 1150
3 1151 1137 1138
3 1150 1137 1151
3 1138 1140 1152
3 1153 1138 1152
3 1151 1138 1153
3 1154 1153 1152
3 1145 1144 1155
3 1145 1155 1156
3 1044 1155 1040
3 1040 1155 1144
3 1146 1046 1043
3 1046 1146 1047
3 1146 1157 1047
3 1146 1147 1157
3 1158 1147 1148
3 1157 1147 1158
3 1159 1148 1149
3 1158 1148 1159
3 1160 1149 1150
3 1159 1149 1160
3 1161 1150 1151
3 1160 1150 1161
3 1162 1151 1153
3 1161 1151 1162
3 1153 1154 1163
3 1153 1163 1162
3 1164 1156 1155
3 1166 1164 1165
3 1165 1164 1048
3 1164 1155 1048
3 1155 1044 1048
3 1050 1165 1048
3 1157 1052 1047
3 1052 1157 1053
3 1157 1167 1053
3 1157 1158 1167
3 1168 1158 1159
3 1167 1158 1168
3 1169 1159 1160
3 1168 1159 1169
3 1170 1160 1161
3 1169 1160 1170
3 1171 1161 1162
3 1170 1161 1171
3 1162 1163 1172
3 1162 1172 1171
3 1166 1165 1173
3 1166 1173 1174
3 1054 1175 1050
3 1175 1165 1050
3 1175 1173 1165
3 1055 1176 1054
3 1054 1176 1175
3 1056 1176 1055
3 1167 1058 1053
3 1058 1167 1059
3 1167 1177 1059
3 1167 1168 1177
3 1178 1168 1169
3 1177 1168 1178
3 1170 1180 1179
3 1178 1170 1179
3 1169 1170 1178
3 1180 1170 1171
3 1180 1171 1181
3 1181 1171 1172
3 1184 1183 1182
3 1186 1185 1182
3 1186 1182 1183
3 1188 1187 1185
3 1188 1185 1186
3 1189 1187 1188
3 1190 1174 1173
3 1192 1191 1190
3 1173 1192 1190
3 1175 1192 1173
3 1193 1175 1176
3 1192 1175 1193
3 1060 1193 1056
3 1056 1193 1176
3 1177 1062 1059
3 1062 1177 1063
3 1177 1194 1063
3 1177 1178 1194
3 1178 1179 1195
3 1196 1178 1195
3 1194 1178 1196
3 1197 1196 1195
3 1184 1182 1198
3 1184 1198 1199
3 1200 1182 1185
3 1198 1182 1200
3 1201 1185 1187
3 1200 1185 1201
3 1187 1189 1202
3 1203 1187 1202
3 1201 1187 1203
3 1205 1204 1203
3 1205 1203 1202
3 1207 1206 1204
3 1207 1204 1205
3 1209 1208 1206
3 1209 1206 1207
3 1208 1209 1191
3 1192 1208 1191
3 1210 1208 1192
3 1211 1192 1193
3 1210 1192 1211
3 1065 1211 1060
3 1060 1211 1193
3 1194 1067 1063
3 1067 1194 1068
3 1194 1212 1068
3 1194 1196 1212
3 1196 1197 1213
3 1214 1196 1213
3 1212 1196 1214
3 1216 1215 1214
3 1216 1214 1213
3 1215 1216 1199
3 1198 1215 1199
3 1217 1215 1198
3 1071 1217 1070
3 1217 1200 1070
3 1217 1198 1200
3 1070 1200 1073
3 1073 1200 1201
3 1073 1201 1075
3 1075 1201 1203
3 1075 1203 1076
3 1203 1218 1076
3 1203 1204 1218
3 1219 1204 1206
3 1218 1204 1219
3 1220 1206 1208
3 1219 1206 1220
3 1221 1208 1210
3 1220 1208 1221
3 1079 1221 1078
3 1221 1211 1078
3 1221 1210 1211
3 1078 1211 1065
3 1212 1082 1068
3 1082 1212 1084
3 1084 1212 1214
3 1084 1214 1085
3 1214 1222 1085
3 1214 1215 1222
3 1223 1215 1217
3 1222 1215 1223
3 1087 1223 1071
3 1071 1223 1217
3 1218 1090 1076
3 1090 1218 1093
3 1093 1218 1219
3 1093 1219 1095
3 1095 1219 1220
3 1095 1220 1097
3 1097 1220 1221
3 1097 1221 1079
3 1222 1099 1085
3 1099 1222 1101
3 1101 1222 1223
3 1101 1223 1087