OFF
539 1032 0
1.6848964676 7.5420165556 3.3095085550
1.8310245214 7.4819617078 3.1314006611
1.7804710868 7.2981724205 3.3214505826
1.7175376858 7.5199208224 3.5613432009
1.8150905302 7.9127199648 3.3543230938
1.9475740574 7.0199320438 3.7362413043
2.1735081202 7.0161603581 3.0403644533
2.3470523563 6.3977461581 3.3835685512
2.2798853022 6.2362900475 4.1178414651
1.9955593905 6.9610866709 4.7154135140
2.2974611187 6.1385498805 5.1111327478
2.0579994597 6.8977908063 5.7840760033
2.3663381290 6.1340997591 6.1924603259
2.1293380531 6.9063076120 6.8153082834
2.4432432814 6.2763110502 7.2442914937
2.2260065519 6.9824516065 7.6970642045
2.4857490747 6.5533815034 8.0122620397
2.1582861792 7.6790209862 2.8409858744
1.8215808151 7.9159169343 4.2200225076
1.9279514580 7.7756148886 5.3949125209
2.0085868569 7.6732328014 6.4579023831
2.1031483160 7.6302800108 7.4082491708
2.3820399792 7.0465765807 8.3056714924
2.2691979929 7.5870533068 8.1809620549
2.5269552541 7.4322765666 8.6898331249
2.2167463196 8.5538557345 2.9318934166
2.8583238239 8.6429126261 2.3423169275
2.6199940037 7.9460195528 2.4534360750
1.9160408359 8.7250233457 3.7412586700
1.8749940403 8.7466428956 4.3309835501
1.9892968786 8.7996700407 5.0498532920
2.0983250833 8.5385739348 6.1205060975
2.1769346063 8.3742877817 7.1000180495
2.2993778445 8.2598187010 7.9485033410
2.5712775915 8.1138698190 8.6694355887
2.5029433521 9.2834651379 2.7373250995
2.1940094302 9.6430840567 3.4139834421
2.5844588898 10.0574568386 2.8700490536
2.0703253057 9.5438170981 4.3565123967
2.2407908609 9.6916091376 5.1152323509
2.3420699330 9.4101813001 5.8115622697
2.5241593125 9.2271246695 6.8259166454
2.4624943151 8.8551548834 7.6339172099
2.6930639865 8.8405749129 8.3497581660
2.3832696450 10.6507720115 3.4118099696
2.7404799002 10.8495536147 2.9722512902
2.2833892031 10.5247820290 4.0469903652
2.5086482859 10.5223758361 4.8521695650
2.5919732733 11.2603391941 3.3909947662
2.9786474515 11.4657137512 3.1082325340
2.4882360598 11.2481459712 3.8562113658
2.5841846234 11.1765709976 4.3994444549
2.8563675848 11.6841456387 3.6502935170
2.8057851585 11.6253882468 4.2126784290
3.1572613690 4.7873882742 3.7567498597
3.5929659144 4.4227107624 3.1063455275
3.5442875381 4.2116724679 3.5984743604
3.5966823443 4.0874689484 4.2578181223
3.1430608338 4.6960945113 4.8492088348
3.8372198295 3.9398692390 5.4638392311
3.2265619520 4.7210348140 5.8939535112
3.6944791201 4.3066391210 6.3236102942
3.2452381675 5.1835702906 2.9291628052
3.6838993881 5.4136192444 2.3228879286
3.7656362640 4.7125714678 2.5709744920
2.7150040789 5.6776442717 3.5085173085
2.6698765955 5.4510830915 4.4392593332
2.7156472879 5.3906293781 5.5096349327
3.4000737777 4.7392959969 6.6914571239
2.8928304596 5.4125713922 6.7131601239
3.5161831611 4.9764972174 7.5839817088
2.9349848541 5.8682497855 7.9704852225
3.5631019396 5.3567179030 8.5413914049
3.2441489605 6.0051668683 8.8978853938
3.6515631624 5.5979661426 9.1434042005
2.8772340161 6.1732383188 2.7546684438
3.5711997602 6.4318713245 2.0979026526
2.7778459416 6.7280447901 8.6952485688
3.5596904822 6.0039799201 9.4005917502
3.3262202542 6.6502574406 9.3925397255
3.9241982596 6.2179447415 9.7700041365
2.7497706762 7.1549372971 2.4674515343
3.4309584247 7.6699465873 1.9977322458
3.0176920838 7.6393169603 9.2551414118
3.8135691232 7.3456916025 9.9443824639
3.7129516320 8.8948836317 1.8978295069
3.0943757604 8.7325637465 9.1399297355
3.4969401700 8.3284949189 9.7016433947
3.0108529960 9.5040263916 2.3701268925
3.1123750855 10.3292455781 2.5089744913
2.5636556703 10.1103060858 5.5090171580
2.9155184524 10.0882078845 6.2391208381
3.0586881668 9.8344771431 7.0397322148
2.9377677640 9.4483017240 7.7508332833
3.2066740887 9.4013055041 8.6116245400
3.4862264146 9.8550350780 8.1280916437
3.4908873508 9.3933890148 9.2004385161
3.6763529976 9.0697353425 9.6445539650
3.2599454847 11.0761080062 2.6725976338
3.0006221249 10.7581330439 5.5485934494
3.4785858995 10.8343342395 6.1296590673
3.5891759685 10.4246413075 6.8864964811
3.8926163425 9.8842336140 8.8242335409
3.9144752467 9.5797505852 9.4497470128
3.3588135913 11.5402718302 2.8535584558
3.4601586920 11.2697390412 5.6435525397
3.1891123225 11.5031869291 4.9849041279
3.4996706769 11.8975151450 3.2101888938
3.2365158660 11.9377668404 4.1303411722
4.0916125134 3.6853930489 3.4945460867
4.4737189168 3.5812805003 2.8114898395
4.8358711760 3.1100776063 3.1367636157
4.8598417919 2.8136328963 4.1055074819
4.2070878958 3.4128289894 4.6348687984
4.9481617403 2.7886147769 5.3028106384
4.3365020957 3.3406110498 5.3341148282
4.6341376515 3.3187130490 5.9905231781
4.1165360278 4.0959268844 2.6990305622
4.4482636726 4.5033690821 2.1931575546
4.6257989316 3.8024247041 2.4326454621
4.3539914081 3.8383250106 6.6455129128
3.8983174396 4.3880889948 7.0789254817
4.5324167640 4.0853130810 7.5885731946
4.0939926728 4.4896495623 7.7636243235
4.5372292565 4.3403730497 8.2083679572
4.4630267482 5.5004403816 1.8416713204
4.0828788412 4.7726244229 8.3641162908
4.1830269753 5.1322652823 9.1279307789
3.9456572904 5.6549940591 9.5055077544
4.6306710450 5.4363799468 9.7578707062
4.4800942686 6.6610789429 1.5779258327
4.5602836336 6.2427929904 10.1656824480
4.3557024787 7.9147480607 1.5244472875
4.2614664015 6.9898158531 10.2633439275
4.1208728674 7.8991920664 10.2339871135
4.5378054973 8.8072133932 1.4884758064
4.3551443054 8.5365655702 10.2739886974
4.1693989712 8.6591686252 10.0670741813
3.5873250173 9.8360214597 2.1152449336
4.4846749508 9.8405275576 1.7353228799
3.4264661147 10.0005750285 7.5265771357
4.2384033240 9.3793003474 9.7950201352
3.7701021353 10.5832981679 2.2337440072
4.4500223587 10.8294611871 2.0452038643
4.1688303755 10.8607005125 7.0391470429
3.9242388971 10.9610599830 6.5314455168
4.1426263119 10.4471313608 7.8535757320
4.7891704392 10.3646938931 8.8119855462
4.5577910096 9.8592994113 9.4424845921
3.8993105590 11.4018654918 2.5178469906
4.8274345435 11.4261774538 2.1871877050
3.6514500216 11.5743835858 5.5699513205
3.9441407525 11.4012260928 6.0807827240
4.3696884766 11.9318997102 2.6350426357
4.0543697347 12.1587906211 3.0615579264
4.8790615333 12.1321502422 2.6185006584
3.5966866535 12.1384863930 3.8215088456
3.6650517875 12.0077628319 4.8881959103
3.9304520164 11.8082990083 5.6435976097
5.3449517083 2.2701770415 4.7902538415
5.5655194506 2.1437375238 4.1747545055
5.7148962890 1.9363461482 4.6752044402
5.9625204729 1.8813792568 5.2402371600
5.4206698587 2.2752471312 5.2933231903
5.6949814697 2.3056178091 5.8065171375
4.9194336776 3.3674729745 2.5962471543
5.3354684549 3.6100163691 2.2100549830
5.4733691855 2.9168609645 2.7181132705
5.4618691411 2.5032086653 3.4174027812
5.6135526055 2.7896551237 6.4930719700
5.0325095352 3.3325211042 6.7589798929
5.5966392323 3.1859119751 7.2490333045
5.3813516360 4.5111285543 1.7742135588
5.1008033435 3.6125475313 7.4358640513
5.2946683133 3.9696006823 8.4057441389
4.7100416657 4.5309746836 8.8227408714
5.3079890895 4.3892454782 9.1635515045
4.8630545358 4.8119803884 9.3792905060
5.5019038018 4.7582592008 9.6686074394
5.4024865502 5.5141891422 1.4208718368
5.5811300483 5.3503295171 10.1449244095
5.2963116579 6.3551288803 1.2407529091
5.8478938547 6.5121704511 1.0222780874
5.8258765536 5.8577586856 1.1384560739
5.2096962016 5.8682097289 10.3383448005
4.6620664409 6.3920619043 10.3432813410
5.1137810268 7.1897263936 1.2158081090
5.8532281171 7.4076351292 0.9638827477
5.1189941842 8.1616471784 1.1996821491
5.9202766423 8.3495061602 0.9898521222
4.8352516625 9.0094147303 10.2230188415
5.2175999174 9.0782676656 1.2728951185
6.0519180620 9.2094295943 1.1141745089
5.7983855055 9.3101258682 10.2091399565
5.0871004188 9.4616744013 9.9669309764
5.4422390125 9.7987184978 1.3955118083
5.3898445561 10.6172103235 1.7486744135
4.3218322063 11.2625337942 6.6855757299
4.7785025843 11.2342440467 7.3690082602
5.1141148397 10.9161377205 8.2493636346
5.5473679594 10.7291410886 8.8589044630
5.6704178192 10.2088667935 9.4514667134
5.7553606640 11.3819001862 2.0471649451
4.6308238001 11.7617498891 6.5525190188
5.2922861904 11.7544987544 7.3184726044
5.6811441936 11.5163013660 7.9624071791
5.8334165300 11.1380320238 8.5496513926
5.2685742254 11.8914530935 2.3511596891
5.9727642822 12.0493963242 2.4837962758
4.3042276994 12.0157584749 5.8797974599
4.8095703966 12.0338491290 6.4946302172
5.3615083726 12.0177969979 7.0982746772
6.2288635762 1.6415277179 4.5355333353
6.6715352691 1.5538262307 3.9822605741
7.0022946411 1.3214552658 4.5072810035
6.7510967926 1.3672518189 4.9746376883
6.4098558450 1.5282876661 5.0953641184
6.8786199979 1.5400305691 5.5441985122
6.1685405076 2.3194059525 2.9899670084
6.2596971960 2.8540796396 2.3765574397
7.0191354399 2.2177707956 2.7592206799
6.8103319744 1.7989612211 3.3940800839
6.1149006349 1.9420948486 3.7014773101
6.4475784107 1.9924342893 6.0618063988
6.0901864931 2.3236465190 6.3289386056
6.7378191611 2.3486047004 6.8396256914
6.3428087730 3.6012105855 1.8692437502
6.4363094755 2.9160108228 7.5663774777
5.8535171239 3.3911973813 7.9475116909
6.5255822548 3.2602390625 8.2936561593
6.1464538193 3.6051909297 8.5902929503
6.8739771824 3.5395732513 8.8600863841
6.3733177498 4.5071097782 1.4288070155
6.1316696227 4.0933067822 9.2145204905
6.4707176514 4.6587752663 9.8782840877
6.1627023960 5.2691863601 1.1914875040
6.5639908671 5.6492026042 0.9892857889
6.7241399279 4.9052830253 1.1430597198
6.6283516527 5.0813419104 10.2686483463
6.6538407917 6.5551761946 0.8477799939
6.0381921634 5.3949055388 10.3662169110
6.7277428488 7.5045874621 0.8225410502
6.8306503244 8.4426782946 0.9178401365
6.9108777928 9.2718868276 1.1152806885
6.8282789036 9.1152111680 10.2873805758
6.5136378336 9.5932396976 10.0243827007
6.2275216998 9.9609842472 1.3646950585
6.7083459000 10.6622546462 1.7865851890
6.9247596335 10.3418006290 9.6225493959
6.4455744467 10.9299340182 9.0544064654
6.4780389773 11.4403992767 2.1384470785
6.0138028530 11.7998521601 2.2750272647
6.7534118402 11.7995470592 2.4460766131
5.9306548188 11.9794995066 7.6353615090
6.3945301093 11.8734503089 8.0489068647
6.4540812698 11.5093899614 8.4760819350
7.1413185957 12.1041858300 2.7710676099
6.0375781147 12.1421340817 7.5226343991
6.8310406747 12.1772571383 7.8177303035
7.3283611834 1.4230080830 3.9350129663
7.7370258804 1.2285310392 4.5418273578
7.3931013974 1.2629374385 5.0866167392
7.8476701999 1.4442477942 5.6903600068
7.2533096957 2.8237073445 2.1722286149
7.9949281369 2.2075054071 2.7236082941
7.6537502801 1.7304514334 3.3439746799
7.5093983190 1.8595264071 6.4011498557
7.6772331883 2.2273559364 7.1392434436
7.4353915205 3.6397262891 1.6161325758
7.4602342865 2.6061658068 7.6460381835
7.2707925450 3.0683937812 8.3000773166
7.8406185501 3.4611409380 8.9335088753
7.1748292974 4.3739456154 1.2549916357
7.3583835104 4.8922367614 1.0373417481
7.9336038568 4.1806658843 1.2549595819
7.2342625408 4.0488899525 9.4702191553
7.6538218260 4.7801245881 10.0321397356
7.4732059000 5.6676867848 0.8626233901
7.2356968220 5.0960474685 10.3258486586
6.6606380879 5.2041302352 10.3969489591
7.5865600878 6.5787564112 0.7812437229
8.3484154697 6.5998027707 10.4055334248
8.1755540224 6.4555959634 10.4945865844
8.2147712600 5.9788573543 10.4035787254
7.7071439349 7.5396125156 0.8339664707
8.1711163292 6.7857626082 10.5026709347
7.8770294507 8.5117595279 1.0526423451
7.4414097657 8.6918962825 10.3749578393
7.9282496349 8.1164019786 10.3869453710
7.6479070729 8.8366023982 10.2375172572
7.6319428350 9.3404053913 1.2748493223
7.0262285101 9.8689735754 1.3738910826
7.7626438475 9.8906277965 1.6266597542
7.7683379651 9.7751531507 9.9112278932
7.9021899626 10.5184642421 2.0870150317
7.7300829086 10.4796381868 9.6500318312
7.4768172033 10.9336858610 9.3115152956
7.2780863241 11.2358405705 2.2665242559
7.8158879693 11.7102914622 2.8134132750
7.1372994128 11.9221839331 8.2454094076
7.2883621266 11.4627636171 8.7962713115
7.7425337022 12.1916141036 3.0475395001
7.6014675961 12.3020847103 3.0460204645
8.0230241909 12.2928628963 3.2730660720
7.5749465646 12.4021081839 7.6644296791
8.0481767473 12.2737449498 7.7081720473
7.9812980342 12.4783237765 7.4649265716
7.8875645524 11.8525646567 8.4405580447
8.0941216201 1.4038340435 4.0222665754
8.3373326739 1.2775094266 4.5899504721
8.1446510269 1.2659084548 5.0973161586
8.5506640057 1.4845492717 5.5564204174
8.4211096045 2.8786921386 2.1091977565
8.9213182079 2.2860862699 2.7982851616
8.6266403360 1.7997630686 3.5509099266
8.5006471412 1.7577668744 6.2011167799
8.4433500264 2.1274997728 7.0207067638
8.1677111321 2.4226465896 7.5729578907
8.7314271413 2.4809966578 7.6165638241
8.4422205160 3.5837070371 1.5858007173
8.3890734874 2.8963126687 8.2053004828
8.8008417519 3.4801719110 8.9035106082
8.2138130256 4.8476776706 1.0169744542
8.8254687861 4.1349182539 1.3284179645
8.3076617896 4.0343490279 9.4590067320
8.7041647435 4.6480500681 9.7807050678
8.3984252158 5.6746090229 0.8763733805
7.9182728776 5.3374175834 10.3018649119
8.5752946066 5.5703077752 10.1575155146
8.5391422960 6.5878386786 0.8617549409
8.8713387944 6.5216530360 10.1887797393
8.7395647367 7.5122972870 1.0008881577
8.1998580498 7.2886320794 10.4411592893
8.5436654213 7.6523219673 10.2385308046
8.7576605927 8.2650829422 1.1887162408
8.6437044187 8.9081598446 9.9793557880
8.6846403153 8.9689004263 1.5300805886
8.7147026083 9.7962800468 2.0399808663
8.6184258215 9.8125748659 9.7923632901
9.1693983637 9.4308419895 9.6948712819
9.0482329811 10.1048925340 9.5472434433
8.9076083501 10.3666190385 2.5670377794
8.1203239623 11.0136141963 2.5106172042
8.7587565833 11.1182504878 3.0118445937
8.1106299062 10.8304382415 9.4558192936
8.7153235824 10.2224402998 9.6757828996
8.3455111970 10.3773999296 9.6781373819
8.6112726825 11.6842640342 3.2992273404
8.5852035304 10.8124613704 9.3945501027
8.3121184064 11.3238534246 8.9748472096
8.2653469140 12.0802446181 3.3043588298
8.5570833841 12.1989550501 3.6707870177
8.4770265815 12.4696640472 7.0517829321
9.1339222298 12.3012330315 6.7067199059
8.9267652416 12.4332850064 6.4011253783
9.0156609752 12.1387545135 7.6097373153
8.6456074346 11.9009521402 8.2751008005
8.6886306334 1.4844626176 4.3075654077
8.7764061604 1.4662923791 4.9602263011
9.3050221096 2.7197505324 2.4057498075
9.5706924159 2.4458204620 2.8683337115
9.4598868190 2.1556900979 3.4679522622
9.3394492420 1.8869067282 4.4587389057
9.2452263963 1.8899508583 5.6526912850
9.1753111885 2.1389686489 6.6298450854
9.1063032430 2.3721197497 7.2659928717
9.5880057085 2.5329505605 7.0710780574
9.4416177080 3.4577344163 1.9030520053
10.0164599468 2.9277020683 2.6529535761
9.3469899988 2.8223205289 7.7718562706
9.2088098027 3.1965170079 8.4515097248
9.3766507774 3.5159813698 8.7740716021
9.0811406179 4.8843166387 1.1164502976
9.5653638643 4.2759568025 1.4622474515
9.4059066343 4.0854518201 9.1729543669
9.4209615079 5.0069077558 9.6916613848
9.2650633959 5.7349408818 1.0391139086
9.4560915333 5.9393795036 9.8954355052
9.3705689907 6.5870251120 1.0626542802
9.4398006579 6.9773318356 9.9356388201
9.5050762290 7.1847021636 1.1831075040
9.3470047609 7.8269623923 1.2911701772
9.9978516641 7.2948247831 1.5144514648
9.3752130269 8.0702287296 9.8578616743
9.1612988253 8.3510574174 1.3951088556
9.8558970727 8.2071028592 1.8011577280
9.3757106514 8.8403871963 9.7472739231
9.3001078344 9.7861618813 2.4002696363
9.7774614350 9.1373359689 2.3206680770
9.8060742337 9.8081698182 2.8337997363
9.5814018679 9.1736714673 9.5703374246
9.6759669630 9.7581258437 9.2821198967
9.3430318249 11.3606840191 3.7267391637
9.7887589492 10.4776569170 3.3762319160
9.9685165769 10.9488460708 3.9513306350
8.8033617176 10.4973997602 9.5206749986
9.2009320467 10.7762156929 9.0919470281
8.8912906858 11.9454072015 3.7978603843
9.8870119562 11.3545618013 4.2934950235
9.5123784283 11.8476376657 4.5961512596
10.3092774399 11.4648794486 4.9482877630
9.0902754841 11.4926832015 8.6231272027
9.0567595751 12.1355480920 4.3688514695
9.8602553715 12.0092695675 5.7406791922
9.2799155253 12.2349433344 5.5315695433
9.8128496249 12.1137271632 6.5052592990
9.8180115952 11.9433810100 7.2074000995
9.4324433930 11.7762878011 8.0514476377
9.9856585620 2.5237066321 3.2698789794
10.0815535993 2.4318564331 4.0644670399
10.1219570418 2.4608068339 5.2350800770
9.8587942265 2.4680878259 6.3386846991
10.2873253752 3.4942480647 2.2720823190
10.6188190807 3.3496180401 2.7486928631
10.5896976632 3.0064978401 3.4792351083
10.7064841210 2.9245721071 4.5592565644
10.7551445402 2.9912326766 5.3747006584
11.0273517100 3.3550124201 5.8266729272
10.5255825628 2.9558831446 6.1105263404
10.1813522370 3.0764327859 7.1601267493
9.8614135199 3.5065108855 8.2937621996
9.8647417508 5.0044486124 1.3831446970
10.2960472111 4.2283615319 1.9079215861
10.9529917000 3.5586607852 6.6178234364
10.7726264593 3.9303231113 7.6950615960
10.3279728107 4.2376916651 8.6526472082
10.0328361342 4.6861559818 9.2412870866
10.6193584016 4.9577345159 8.8850877405
9.9865803820 5.9250021512 1.3410527452
10.5668596061 5.2963291664 1.8174861079
10.1167051672 5.4205483046 9.4476401278
10.7455096122 5.8411047312 9.0145206993
9.9276929044 6.6768077244 1.3223647818
10.5460909336 6.4342398878 1.7645823728
10.1445892886 6.3860354088 9.5432361652
10.7601360445 6.8859994532 9.0659439723
10.6154384073 7.3602235703 1.9961682934
10.1101853322 7.4751130541 9.5222741298
10.7097228786 7.9929010727 9.0019463892
10.8120016630 7.9695379345 2.4101206141
10.3177999785 8.5150509253 2.2864030772
10.7195858305 8.6368206203 2.7173719192
10.0153773062 8.6940132125 9.3870245724
10.6576588507 8.8262256465 8.8857000242
10.2763913744 9.8443871037 3.2806819651
10.7219341313 9.2273665978 3.2095658160
10.6929510394 9.8856823627 3.7419438017
10.3910970560 9.4995093478 8.8628915845
10.8092576978 9.2399668632 8.6194460598
10.8602872408 9.8841175276 8.2428532942
10.3269061512 11.0194552258 4.3892814317
10.4929329565 10.5194728675 4.0843078665
10.9499640266 10.7216843293 4.7684197614
10.1277910601 10.5187911595 8.5746168636
10.6399921536 10.7634522947 7.9709982218
11.0208331640 11.2234699122 5.3892718429
10.1788711321 11.3430880814 7.8977064896
10.6828552242 11.1232941504 7.6372523758
10.5998713402 11.4376990071 7.2114398488
9.6539185756 11.2614623212 8.4852017606
10.5603373282 11.6725345162 5.6657726883
10.4314509040 11.7912662683 6.4121791939
10.7581912477 3.8427224689 2.4565875153
11.1410312849 3.8152861770 3.1527400647
11.2175761113 3.5247369028 4.1412295019
11.1938101075 3.4334232767 5.0989357317
11.0986987909 4.6395420168 2.4969575796
11.5749123822 4.5490507470 3.1953710853
11.6679829281 4.2426925615 3.8882962631
11.6695143610 4.0801514448 4.8330802313
11.5043523779 3.9834635363 5.9067356794
11.4191716338 4.2276883802 6.9468380473
11.3473205492 4.6140174879 7.7077002994
11.7132461595 4.7714014462 7.2079530404
10.9199476281 4.5618631089 8.2906710178
11.1836865176 5.7727460549 2.3389605402
11.6599583093 5.3233058026 2.9902902028
11.6584184281 5.1359964744 7.6644560030
11.7360359085 5.8380326467 7.8111229539
11.2441195166 5.2897531810 8.3094462952
11.1538506384 6.7692831593 2.3340975023
11.6626285105 6.3144168433 2.9017267947
11.3090627965 6.3357808049 8.4800065005
11.7984623108 6.8657237681 7.8629230081
11.0698285751 7.3774713620 2.3674751463
11.4764174460 7.3379655693 2.8441990778
11.2977138599 7.4488739942 8.4898542190
11.7671289211 7.9894765218 7.8510508476
11.1210649057 8.6700152578 3.1190849764
11.3085262098 8.1828208274 3.0144587247
11.4866411463 8.5765632912 3.5041417752
11.1968407128 8.7266823811 8.3600702887
11.7138010199 8.8553203260 7.7479051813
11.1072292958 10.0631787349 4.3397003161
11.5389214708 9.2053392429 4.1561659914
11.6039809646 9.9559939402 4.9395965402
11.4574895809 9.5999072505 7.7263017268
11.8544485919 9.3321396399 7.3484038099
11.7110289908 10.0447433029 7.0903031051
11.5379333264 10.5967878221 5.4162537682
11.1265211563 10.6556655305 7.4225143061
11.5382262751 10.7022888659 6.7649959761
11.4547117286 11.0326474966 5.7534969925
11.0700765419 11.4135538483 5.9904337109
11.1078680938 11.2445792876 6.6628172355
11.5399147030 10.9567104011 6.2323187202
11.9454550318 5.0139297118 3.7023113165
12.0512723862 4.8471234439 4.5529017618
12.0103615688 4.7710340248 5.5571060784
11.8662936350 4.7281627605 6.5195884302
12.0499660293 5.8886236158 3.5805759731
12.2237640502 5.5460168221 4.2528527054
12.3584309477 5.7408335239 5.2506849651
12.1944527605 5.5021941639 6.3441567585
11.9483301474 5.3356518935 7.1400441445
12.0081504818 6.8751492486 3.5134232521
12.3285112857 6.4311262846 4.2845651195
12.4838151737 6.3914890306 4.9302641958
12.5352041277 6.2601844207 5.7142257025
12.5634568027 6.5667567569 6.2587322235
12.4324797328 6.3899196637 6.3708836909
12.1236940683 6.2148170983 7.1420611200
11.8234143542 7.8045978021 3.4840652681
12.1955626506 7.4881147963 4.0211968277
12.3774678335 7.1609213373 4.4222511021
12.5016382405 7.0793043145 6.6394354737
12.4633480972 7.9373996581 6.7322821782
12.2493480827 7.4654610917 7.0974680527
11.9297037904 8.2904870269 3.9330614397
12.1143526438 8.2987544469 4.3539660973
12.3134052054 8.6977823611 6.6271891458
12.4552423646 8.5565944246 6.4747352615
12.3020364054 9.0718267298 6.0262805505
12.0539090979 8.6343031858 7.2734147677
12.0204423120 9.7675823256 5.8969382060
12.0151783705 9.2708374911 5.0851635632
12.0446051909 9.4788313257 6.7877737777
11.7650318903 10.5886038857 5.9195972203
11.8527612237 10.3022191617 6.4385410204
3 2 1 0
3 0 3 2
3 1 4 0
3 0 4 3
3 7 6 5
3 9 8 5
3 5 8 7
3 11 10 9
3 9 10 8
3 13 12 11
3 11 12 10
3 15 14 13
3 13 14 12
3 15 16 14
3 5 6 2
3 6 1 2
3 6 17 1
3 5 2 3
3 18 5 3
3 9 5 18
3 9 19 11
3 9 18 19
3 11 20 13
3 11 19 20
3 13 21 15
3 13 20 21
3 16 15 22
3 15 23 22
3 15 21 23
3 23 24 22
3 27 26 25
3 25 28 4
3 17 25 4
3 1 17 4
3 25 17 27
3 18 3 4
3 28 18 4
3 29 18 28
3 18 30 19
3 18 29 30
3 19 31 20
3 19 30 31
3 20 32 21
3 20 31 32
3 21 33 23
3 21 32 33
3 24 23 34
3 34 23 33
3 26 35 25
3 37 36 35
3 36 25 35
3 36 28 25
3 28 38 29
3 28 36 38
3 40 30 39
3 30 38 39
3 30 29 38
3 30 40 31
3 31 40 41
3 31 41 32
3 32 41 42
3 32 42 33
3 33 42 43
3 33 43 34
3 36 37 44
3 44 37 45
3 36 46 38
3 36 44 46
3 39 38 47
3 47 38 46
3 44 45 48
3 48 45 49
3 44 50 46
3 44 48 50
3 47 46 51
3 51 46 50
3 49 52 48
3 48 52 50
3 50 52 53
3 50 53 51
3 56 55 54
3 58 57 54
3 54 57 56
3 60 59 58
3 58 59 57
3 60 61 59
3 64 63 62
3 64 62 55
3 62 54 55
3 62 65 54
3 54 66 58
3 54 65 66
3 58 67 60
3 58 66 67
3 61 60 68
3 60 69 68
3 60 67 69
3 71 70 69
3 69 70 68
3 73 72 71
3 71 72 70
3 73 74 72
3 62 63 75
3 75 63 76
3 75 6 7
3 65 75 7
3 62 75 65
3 65 7 8
3 65 8 66
3 66 8 10
3 66 10 67
3 67 10 12
3 67 12 69
3 69 12 14
3 69 14 71
3 71 14 16
3 77 71 16
3 73 71 77
3 74 73 78
3 73 79 78
3 73 77 79
3 79 80 78
3 75 76 81
3 81 76 82
3 81 17 6
3 81 6 75
3 22 77 16
3 77 22 24
3 83 77 24
3 79 77 83
3 80 79 84
3 84 79 83
3 81 82 27
3 82 26 27
3 82 85 26
3 81 27 17
3 34 86 83
3 34 83 24
3 84 83 87
3 87 83 86
3 85 88 26
3 26 88 35
3 37 35 88
3 37 88 89
3 39 90 40
3 91 41 40
3 91 40 90
3 41 91 92
3 93 41 92
3 42 41 93
3 93 95 94
3 43 93 94
3 42 93 43
3 86 34 43
3 94 86 43
3 96 86 94
3 87 86 97
3 97 86 96
3 89 45 37
3 98 45 89
3 47 99 90
3 47 90 39
3 101 91 100
3 91 99 100
3 91 90 99
3 91 101 92
3 95 102 94
3 94 102 96
3 96 102 103
3 96 103 97
3 98 49 45
3 104 49 98
3 106 105 99
3 47 106 99
3 51 106 47
3 99 105 100
3 104 107 49
3 49 107 52
3 52 108 53
3 107 108 52
3 51 53 106
3 106 53 108
3 111 110 109
3 113 112 109
3 109 112 111
3 115 114 113
3 113 114 112
3 115 116 114
3 119 118 117
3 119 117 110
3 110 117 109
3 117 55 109
3 55 56 109
3 109 56 57
3 109 57 113
3 113 57 59
3 113 59 115
3 121 120 61
3 61 120 59
3 120 116 59
3 116 115 59
3 123 122 121
3 121 122 120
3 123 124 122
3 117 118 64
3 118 63 64
3 118 125 63
3 117 64 55
3 68 121 61
3 121 68 70
3 121 70 123
3 126 124 123
3 70 126 123
3 72 126 70
3 128 127 74
3 127 72 74
3 127 126 72
3 128 129 127
3 125 76 63
3 130 76 125
3 78 128 74
3 78 80 128
3 80 129 128
3 80 131 129
3 130 82 76
3 132 82 130
3 84 134 133
3 131 84 133
3 80 84 131
3 132 85 82
3 135 85 132
3 137 136 134
3 84 137 134
3 87 137 84
3 88 85 138
3 85 139 138
3 85 135 139
3 138 89 88
3 92 140 93
3 140 95 93
3 97 137 87
3 97 141 137
3 138 139 142
3 142 139 143
3 142 98 89
3 142 89 138
3 145 144 101
3 145 101 100
3 92 101 140
3 101 146 140
3 101 144 146
3 140 146 95
3 146 102 95
3 146 147 102
3 102 148 103
3 147 148 102
3 97 103 141
3 141 103 148
3 142 143 149
3 149 143 150
3 149 104 98
3 149 98 142
3 106 151 105
3 151 152 105
3 152 100 105
3 152 145 100
3 150 153 149
3 153 155 154
3 153 154 107
3 149 153 107
3 104 149 107
3 156 108 107
3 156 107 154
3 156 157 108
3 108 157 106
3 157 158 106
3 158 151 106
3 151 158 152
3 161 160 159
3 163 162 159
3 159 162 161
3 163 164 162
3 167 166 165
3 110 111 165
3 111 167 165
3 111 168 167
3 112 159 160
3 168 112 160
3 111 112 168
3 159 112 114
3 159 114 163
3 170 169 116
3 116 169 114
3 169 164 114
3 164 163 114
3 170 171 169
3 165 166 119
3 166 118 119
3 166 172 118
3 165 119 110
3 120 170 116
3 173 171 170
3 120 173 170
3 122 173 120
3 175 174 124
3 174 122 124
3 174 173 122
3 177 176 175
3 175 176 174
3 177 178 176
3 172 125 118
3 179 125 172
3 126 175 124
3 175 126 127
3 175 127 177
3 127 129 177
3 129 178 177
3 129 180 178
3 183 182 181
3 179 183 181
3 130 179 181
3 125 179 130
3 131 185 184
3 180 131 184
3 129 131 180
3 181 182 186
3 186 182 187
3 186 132 130
3 186 130 181
3 133 185 131
3 186 187 188
3 188 187 189
3 188 135 132
3 188 132 186
3 137 190 136
3 188 189 191
3 191 189 192
3 191 139 135
3 191 135 188
3 194 193 190
3 137 194 190
3 141 194 137
3 192 195 191
3 139 191 195
3 196 139 195
3 143 139 196
3 145 197 144
3 198 146 144
3 198 144 197
3 199 147 146
3 199 146 198
3 147 199 200
3 201 147 200
3 148 147 201
3 141 148 194
3 194 148 201
3 196 150 143
3 202 150 196
3 152 203 197
3 152 197 145
3 205 198 204
3 198 203 204
3 198 197 203
3 198 205 199
3 199 205 206
3 199 206 200
3 202 207 150
3 150 207 153
3 155 153 207
3 155 207 208
3 157 209 158
3 203 152 158
3 209 203 158
3 210 203 209
3 204 203 211
3 211 203 210
3 214 213 212
3 216 215 212
3 212 215 214
3 216 217 215
3 220 219 218
3 222 221 218
3 218 221 220
3 221 222 213
3 213 222 212
3 222 160 212
3 160 161 212
3 212 161 162
3 212 162 216
3 224 223 164
3 164 223 162
3 223 217 162
3 217 216 162
3 224 225 223
3 218 219 167
3 219 166 167
3 219 226 166
3 218 167 168
3 218 168 222
3 222 168 160
3 169 224 164
3 228 227 171
3 171 227 169
3 227 225 169
3 225 224 169
3 230 229 228
3 228 229 227
3 230 231 229
3 226 172 166
3 232 172 226
3 173 228 171
3 228 173 174
3 228 174 230
3 233 231 230
3 174 233 230
3 176 233 174
3 176 178 233
3 233 178 234
3 237 236 235
3 232 237 235
3 179 232 235
3 172 232 179
3 180 234 178
3 180 238 234
3 235 236 183
3 236 182 183
3 236 239 182
3 235 183 179
3 240 238 180
3 240 180 184
3 239 187 182
3 241 187 239
3 241 189 187
3 242 189 241
3 242 192 189
3 243 192 242
3 245 244 193
3 245 193 194
3 243 246 192
3 192 246 195
3 196 195 246
3 196 246 247
3 249 248 201
3 249 201 200
3 194 201 245
3 245 201 248
3 251 202 250
3 202 247 250
3 202 196 247
3 252 251 250
3 204 253 205
3 205 253 254
3 255 205 254
3 206 205 255
3 200 206 249
3 249 206 255
3 251 207 202
3 208 207 251
3 252 208 251
3 256 208 252
3 211 257 253
3 211 253 204
3 254 253 258
3 258 253 257
3 260 259 214
3 214 259 213
3 261 214 215
3 261 260 214
3 215 217 261
3 261 217 262
3 264 263 220
3 220 263 219
3 265 220 221
3 265 264 220
3 221 213 259
3 221 259 265
3 266 262 217
3 266 217 223
3 223 225 266
3 266 225 267
3 263 226 219
3 268 226 263
3 269 267 225
3 269 225 227
3 270 227 229
3 270 269 227
3 229 231 270
3 270 231 271
3 274 273 272
3 268 274 272
3 232 268 272
3 226 268 232
3 275 271 231
3 275 231 233
3 233 234 275
3 275 234 276
3 272 273 237
3 273 236 237
3 273 277 236
3 272 237 232
3 238 279 278
3 276 238 278
3 234 238 276
3 277 239 236
3 280 239 277
3 279 238 240
3 283 282 281
3 280 241 239
3 284 241 280
3 285 281 282
3 284 242 241
3 286 242 284
3 289 288 287
3 291 243 290
3 243 286 290
3 243 242 286
3 292 291 290
3 289 287 244
3 245 289 244
3 293 289 245
3 291 246 243
3 247 246 291
3 292 247 291
3 294 247 292
3 296 295 248
3 296 248 249
3 245 248 293
3 293 248 295
3 294 297 247
3 247 297 250
3 252 250 297
3 252 297 298
3 254 299 255
3 299 300 255
3 300 249 255
3 300 296 249
3 302 256 301
3 256 298 301
3 256 252 298
3 303 302 301
3 306 305 304
3 305 307 299
3 258 305 299
3 254 258 299
3 304 305 258
3 299 307 300
3 309 308 260
3 260 308 259
3 310 260 261
3 310 309 260
3 261 262 310
3 310 262 311
3 313 312 264
3 264 312 263
3 314 264 265
3 314 313 264
3 265 259 308
3 265 308 314
3 315 311 262
3 315 262 266
3 317 316 267
3 316 266 267
3 316 315 266
3 317 318 316
3 312 268 263
3 319 268 312
3 269 317 267
3 320 318 317
3 269 320 317
3 270 320 269
3 270 271 320
3 320 271 321
3 323 322 274
3 274 322 273
3 274 268 319
3 274 319 323
3 324 321 271
3 324 271 275
3 275 276 324
3 324 276 325
3 322 277 273
3 326 277 322
3 276 278 327
3 328 276 327
3 325 276 328
3 326 280 277
3 329 280 326
3 328 327 283
3 281 328 283
3 330 328 281
3 329 284 280
3 331 284 329
3 281 285 332
3 333 281 332
3 330 281 333
3 331 286 284
3 334 286 331
3 333 332 288
3 289 333 288
3 335 333 289
3 334 336 286
3 286 336 290
3 292 290 336
3 292 336 337
3 340 339 338
3 339 335 338
3 335 293 338
3 335 289 293
3 342 294 341
3 294 337 341
3 294 292 337
3 343 342 341
3 295 296 344
3 338 345 340
3 345 338 346
3 338 293 346
3 295 344 346
3 295 346 293
3 342 297 294
3 298 297 342
3 343 298 342
3 347 298 343
3 349 348 344
3 296 349 344
3 300 349 296
3 344 348 346
3 347 350 298
3 298 350 301
3 303 301 350
3 303 350 351
3 354 353 352
3 305 306 352
3 353 305 352
3 355 305 353
3 305 356 307
3 355 356 305
3 300 307 349
3 349 307 356
3 357 308 309
3 310 358 309
3 309 358 357
3 311 358 310
3 359 312 313
3 359 313 360
3 313 361 360
3 313 314 361
3 314 308 357
3 362 314 357
3 361 314 362
3 362 357 358
3 362 358 363
3 363 358 311
3 315 363 311
3 364 363 315
3 366 364 365
3 364 316 365
3 364 315 316
3 318 365 316
3 368 367 359
3 367 312 359
3 367 319 312
3 368 359 360
3 369 366 365
3 369 365 318
3 320 369 318
3 370 369 320
3 320 321 370
3 370 321 371
3 373 372 323
3 323 372 322
3 323 319 367
3 323 367 373
3 374 371 321
3 374 321 324
3 324 325 374
3 374 325 375
3 372 326 322
3 376 326 372
3 328 375 325
3 328 377 375
3 376 329 326
3 378 329 376
3 330 377 328
3 330 379 377
3 381 331 380
3 331 378 380
3 331 329 378
3 382 381 380
3 333 379 330
3 333 383 379
3 384 334 381
3 381 334 331
3 381 382 385
3 381 385 384
3 335 383 333
3 335 386 383
3 384 336 334
3 388 387 337
3 388 337 336
3 385 388 336
3 384 385 336
3 389 387 388
3 391 390 339
3 391 339 340
3 335 339 386
3 386 339 390
3 387 341 337
3 393 392 343
3 393 343 341
3 389 393 341
3 387 389 341
3 394 392 393
3 340 345 395
3 396 340 395
3 391 340 396
3 346 395 345
3 397 347 392
3 392 347 343
3 392 394 398
3 399 392 398
3 397 392 399
3 400 399 398
3 396 395 348
3 349 396 348
3 401 396 349
3 348 395 346
3 397 350 347
3 350 397 351
3 397 402 351
3 397 399 402
3 399 400 403
3 404 399 403
3 402 399 404
3 353 354 404
3 403 353 404
3 405 353 403
3 353 406 355
3 405 406 353
3 355 407 356
3 406 407 355
3 349 356 401
3 401 356 407
3 408 360 361
3 362 409 361
3 361 409 408
3 363 410 362
3 362 410 409
3 364 411 363
3 363 411 410
3 366 411 364
3 413 412 368
3 368 412 367
3 368 360 408
3 414 368 408
3 413 368 414
3 414 408 409
3 414 409 415
3 415 409 410
3 415 410 416
3 418 417 416
3 410 418 416
3 411 418 410
3 369 419 366
3 419 411 366
3 419 418 411
3 370 420 369
3 369 420 419
3 371 420 370
3 421 372 373
3 422 421 373
3 367 422 373
3 412 422 367
3 423 417 418
3 423 418 419
3 423 419 424
3 424 419 420
3 424 420 425
3 427 425 426
3 426 425 374
3 425 420 374
3 420 371 374
3 375 426 374
3 428 376 421
3 421 376 372
3 421 422 429
3 421 429 428
3 427 426 430
3 427 430 431
3 377 430 375
3 375 430 426
3 432 378 428
3 428 378 376
3 428 429 433
3 428 433 432
3 431 430 434
3 431 434 435
3 379 434 377
3 377 434 430
3 432 380 378
3 382 380 432
3 433 382 432
3 436 382 433
3 435 434 437
3 435 437 438
3 383 437 379
3 379 437 434
3 440 385 439
3 385 436 439
3 385 382 436
3 441 440 439
3 438 437 442
3 438 442 443
3 386 442 383
3 383 442 437
3 440 388 385
3 445 444 389
3 445 389 388
3 441 445 388
3 440 441 388
3 446 444 445
3 449 448 447
3 447 448 443
3 447 443 442
3 391 447 442
3 390 391 442
3 390 442 386
3 444 393 389
3 451 450 394
3 451 394 393
3 446 451 393
3 444 446 393
3 452 450 451
3 449 447 453
3 449 453 454
3 396 453 391
3 391 453 447
3 450 398 394
3 400 398 450
3 452 400 450
3 455 400 452
3 458 457 456
3 456 457 454
3 453 456 454
3 459 456 453
3 401 459 396
3 396 459 453
3 455 460 400
3 400 460 403
3 403 461 405
3 460 461 403
3 456 406 458
3 406 461 458
3 406 405 461
3 406 456 407
3 407 456 459
3 407 459 401
3 462 412 413
3 414 463 413
3 413 463 462
3 415 464 414
3 414 464 463
3 416 465 415
3 415 465 464
3 417 465 416
3 466 422 462
3 462 422 412
3 463 468 467
3 466 463 467
3 462 463 466
3 468 463 464
3 468 464 469
3 469 464 465
3 469 465 470
3 470 465 417
3 423 470 417
3 471 470 423
3 473 471 472
3 471 424 472
3 471 423 424
3 425 474 424
3 424 474 472
3 427 474 425
3 475 429 466
3 466 429 422
3 466 467 476
3 466 476 475
3 477 473 472
3 479 478 477
3 472 479 477
3 474 479 472
3 431 479 427
3 427 479 474
3 480 433 475
3 475 433 429
3 475 476 481
3 475 481 480
3 478 479 482
3 478 482 483
3 435 482 431
3 431 482 479
3 484 436 480
3 480 436 433
3 480 481 485
3 480 485 484
3 483 482 486
3 483 486 487
3 438 486 435
3 435 486 482
3 484 439 436
3 489 488 441
3 489 441 439
3 485 489 439
3 484 485 439
3 490 488 489
3 487 486 491
3 487 491 492
3 443 491 438
3 438 491 486
3 488 445 441
3 494 493 446
3 494 446 445
3 490 494 445
3 488 490 445
3 495 493 494
3 498 497 496
3 496 497 492
3 496 492 491
3 449 496 491
3 448 449 491
3 448 491 443
3 493 451 446
3 452 451 493
3 495 452 493
3 499 452 495
3 498 496 500
3 498 500 501
3 454 500 449
3 449 500 496
3 503 455 502
3 455 499 502
3 455 452 499
3 505 504 503
3 505 503 502
3 504 505 501
3 504 501 500
3 458 504 500
3 457 458 500
3 457 500 454
3 503 460 455
3 460 503 461
3 461 503 504
3 461 504 458
3 506 467 468
3 469 507 468
3 468 507 506
3 470 508 469
3 469 508 507
3 471 509 470
3 470 509 508
3 473 509 471
3 510 476 506
3 506 476 467
3 511 506 507
3 510 506 511
3 512 507 508
3 511 507 512
3 513 508 509
3 512 508 513
3 477 514 473
3 514 509 473
3 514 513 509
3 478 514 477
3 515 481 510
3 510 481 476
3 516 510 511
3 515 510 516
3 512 518 517
3 516 512 517
3 511 512 516
3 520 519 518
3 512 520 518
3 513 520 512
3 521 513 514
3 520 513 521
3 483 521 478
3 478 521 514
3 522 485 515
3 515 485 481
3 523 515 516
3 522 515 523
3 516 517 524
3 516 524 523
3 525 519 520
3 527 526 525
3 520 527 525
3 521 527 520
3 487 527 483
3 483 527 521
3 522 489 485
3 489 522 490
3 522 528 490
3 522 523 528
3 523 524 529
3 523 529 528
3 532 531 530
3 530 531 526
3 527 530 526
3 533 530 527
3 492 533 487
3 487 533 527
3 528 494 490
3 535 534 495
3 535 495 494
3 529 535 494
3 528 529 494
3 534 535 532
3 530 534 532
3 536 534 530
3 498 536 497
3 536 533 497
3 536 530 533
3 497 533 492
3 537 499 534
3 534 499 495
3 538 534 536
3 537 534 538
3 501 538 498
3 498 538 536
3 537 502 499
3 502 537 505
3 505 537 538
3 505 538 501