OFF
644 1240 0
1.0595919761 7.0632246613 10.2035562469
1.3166815674 6.7053095942 9.5112878018
1.3203437438 6.3678149562 10.0472358159
1.3631220012 6.2374000538 10.6340957962
1.1393739331 6.9003843830 11.1273492231
1.5539871977 6.1169288037 11.5956360412
1.2764817466 6.8893209221 11.7895346930
1.5239670483 6.6635791989 12.1845056141
1.0085496885 7.8083798814 9.3076236505
1.3838420834 7.5017534904 8.5211363445
1.3109840207 7.0942407546 8.9793592886
0.8417844603 7.9882858365 10.1865404481
0.9180690651 7.7599632242 10.9047415715
1.1026660820 7.5847181908 11.6616450671
1.3911298940 7.3417922242 12.2542151005
1.0976383913 8.6457137050 8.4297158647
1.5148944377 8.8343203117 7.5590869434
1.5631656275 7.9591447777 7.9272595085
0.8147377135 8.9245983772 9.2200710845
0.7646447641 8.7772342685 9.9403136853
0.8118754150 8.6876364967 10.7634452000
1.0021764450 8.5018761411 11.5464327194
1.3125694888 8.2301177098 12.2283257010
1.0326068822 9.8494506233 8.0291281445
1.4194880141 10.0251608235 7.0751118645
0.8040588077 9.7668644221 8.9283650356
0.7217969487 9.7092850496 9.7654319636
0.7809068723 9.6362640291 10.5901790129
0.9724198632 9.5082376812 11.4154521075
1.2918324985 9.2341894997 12.1495414640
0.9374686232 11.1041250672 7.7296631513
1.1930003087 11.0686974822 6.8940272028
0.7877174923 10.8393318138 8.7212992681
0.7537079157 10.6893029067 9.6375891343
0.7871213518 10.4576038322 10.3675747193
1.0021074503 10.6109771077 11.2066895302
1.3103111065 10.2573867865 12.0062927621
0.9824092367 12.0346773656 7.0574580201
1.2461048634 12.4079381206 6.2081340944
1.3090437363 11.5610105008 6.3990384044
0.7983290202 12.1598229902 7.8951765714
0.7679138232 11.8966088660 8.5940779351
0.8188194181 11.7591897987 9.4887276660
0.9888291028 11.5299446905 10.5212643676
1.2544485525 11.5583267914 11.3825984887
1.3477255696 11.0833001046 11.8430905691
0.9707642627 13.1318245000 6.7866076051
1.2027889781 13.3835783341 5.9858703618
0.8242392201 12.9532383832 7.6443095984
0.8085210149 12.8582003821 8.4759581245
0.8668948594 12.6481599920 9.2032394581
1.1681716220 12.8311619008 10.1012597297
1.6067251716 12.5406027095 11.1844258304
1.0310047364 14.1535006072 6.4920265888
1.2153115377 14.1146990830 5.7813127736
0.9176628773 13.8926225263 7.4278897946
0.8927035742 13.6372130758 8.2110895800
1.1499706473 13.7688043573 9.1737784248
1.6467546236 13.8985595204 10.1445909075
1.6173339411 13.3614090155 10.6600539672
1.1896474967 14.7255484088 5.9203593501
1.4411447074 15.0854917219 5.5062510625
1.3926708506 14.5159251800 5.4172770485
1.1224138215 14.9394737065 6.4742176423
1.0871380851 14.7849235073 7.1826039635
1.1647250729 14.5829684359 8.1939757407
1.6495135689 14.8910160783 9.0640952407
1.6311301573 14.4581556014 9.6263945785
1.3396879990 15.3778266054 6.0614997338
1.3341053383 15.4889637354 6.8029885749
1.4232344586 15.4367846060 7.6530557975
1.5929743086 15.3522644754 8.3875707301
2.1392641895 4.9421629879 11.0119360706
2.4356183826 4.6835473133 10.3400769752
2.7283109186 4.2167096568 11.1037757221
2.5324615104 4.5013350117 11.5820291387
1.7906060426 5.6797846839 10.0158549567
2.2493144160 5.4928073569 9.2645600175
2.2950357757 5.0628253865 9.7959953546
1.6948134746 5.6151464790 10.9392053160
2.2289826960 4.9380897887 11.6856475103
1.8951204079 5.3619373764 11.4690517971
2.0773590418 5.4384790922 12.0593799957
1.7645993526 6.4587146550 8.8708711912
2.2926759313 6.3020053177 8.3050929026
2.2341111643 5.9104515962 8.7447299867
1.8747425765 6.1741918020 12.4071648111
1.7437365940 6.9459420310 12.6501276750
2.0721599947 6.4758315120 12.8673288946
1.8970884104 7.1237858820 8.0700254958
2.1824241615 7.7341567247 7.4091470884
2.4425011734 6.7911381350 7.7658495207
1.6830174825 7.8366583597 12.7400868297
2.0178272052 7.2966393744 13.0398558680
2.1007915762 8.9019014715 6.7983230876
1.7032963087 8.8636109662 12.7374012129
2.0452506719 8.3558418390 13.1210737143
1.9331913078 9.8337998571 6.3798691384
2.4051471568 9.6546461823 5.9758726338
2.2679799563 9.2897343794 6.3391045820
1.7471004291 9.9126977543 12.6355279729
2.2952574797 9.5161561716 13.1341940531
2.0826366808 10.4701287636 5.8283821294
2.4653412045 10.8499253909 5.2389935429
2.5877180509 10.1133956903 5.5216505318
1.5748645341 10.7505302407 6.3441179284
1.8182885908 10.9775127640 12.4270458682
2.2870536907 10.4328960202 12.9302583917
1.7889369660 11.6441671591 5.6372035602
2.4246213569 11.6805338514 4.8697868928
1.6458160126 11.7838206498 11.9069417871
2.1836407677 11.8380845026 12.3704953464
2.5686347071 11.1976910590 12.8258615630
2.0362057440 12.6785753298 4.9107450315
2.6009487682 12.9553764087 4.2560570884
2.6090609406 12.2030891673 4.4795913497
1.5205108623 12.7698980580 5.5635127441
2.0403733295 12.3681721499 11.9057515280
2.5340990002 12.3884362014 12.1922104467
2.8606653156 11.9263861701 12.5988160352
2.0733077757 13.6693904519 4.6070516524
2.5858071436 14.0754687166 4.0104822976
1.5611018356 13.7216236958 5.2590600216
1.8845788337 13.7714104029 10.6310322098
2.1072271044 13.4702466165 10.9946425445
2.5484325800 12.9559165460 11.6188056053
1.8588242622 14.7994675577 4.8391463077
2.4481089619 15.3147217834 4.0811728754
1.9090845412 14.8465615407 9.5588325009
2.1397616422 14.5957089492 9.9353104628
2.3853718677 14.1073448645 10.5374645409
2.1130421321 15.9233540227 4.7018761204
2.4758227068 16.1722810840 4.2068928493
1.7489121335 15.8130900262 5.5121672661
1.6149607034 15.9450280657 6.3251993188
1.8482435056 16.1543551985 7.1263906760
1.9454337776 15.9261209882 8.0486906216
2.1180969866 15.6171510517 8.7432375927
2.4424729172 15.1920477619 9.4091473088
2.3421702751 16.5508676584 4.6186065143
2.1980131996 16.5726377045 5.1937660326
2.4622159746 16.8847458306 4.8594421357
2.1374012447 16.5869075380 6.1671131804
2.3888809150 16.7346350777 7.0019451374
2.5289309897 16.4882747199 7.7404268806
2.4813443442 16.1054781349 8.3891740034
2.7738264588 17.2260258498 5.4070034915
2.8368903580 17.1033967349 6.5640436556
3.0659793517 3.9760776953 10.5483860156
3.4980474313 3.8004859390 10.1185032077
3.7275956531 3.3804184353 10.7673646750
3.3842685269 3.6005970723 11.3124060575
2.8790493424 4.6070881266 9.6331457004
3.2496513857 4.7549351505 8.9602498254
3.7777914112 4.0754265754 9.3847189636
3.0781709295 4.0002367407 11.8454339917
2.6776717342 4.6862047688 12.2481220662
3.5864083764 3.9035444464 12.6576853287
3.0008591651 4.7081969337 12.9168005130
3.4737448792 4.2433683736 13.1236402723
2.7554530657 5.4391264618 8.6846949242
3.2667245847 5.4583544563 8.1791462409
3.2307029330 5.0764212032 8.5796444489
2.3905152224 5.5874565521 12.7379401337
3.1893178794 4.6173389709 13.1906942430
2.7277882704 5.3313670710 13.0752541354
2.8397329147 6.0968801068 7.9669400780
3.1350015386 6.6875929962 7.3231897347
3.2652704104 5.9351545990 7.7570251352
2.3004135916 6.4731817157 13.0869946691
2.8604691576 7.8942891004 6.7469111440
2.1994943846 7.7406257765 13.2388885729
2.7761999680 8.8263826681 6.2147167104
3.5692467440 8.6357885588 5.7791258431
3.4153215926 8.0524694695 6.2516693514
2.3539891155 8.8372633052 13.3123946281
3.0220632018 9.4411017551 5.6125267246
3.1638568664 10.1668653548 5.0464939258
3.8446608844 9.2961919774 5.1766741291
2.8535880226 9.6778817915 13.3802195073
2.9640548600 11.0206881345 4.7117547854
3.6422091624 9.8987604943 13.4945057441
3.1866385332 10.3533018261 13.2428559975
2.9005933668 11.6333878801 4.4639664636
3.2727141140 12.0033110015 4.0998279690
3.3590784446 11.2377676769 4.3410212240
3.3648501995 11.3170524617 12.9585405508
3.3117423407 13.0119157226 3.6922086599
3.5011246001 11.9083564378 12.6814722319
3.3309448514 12.4978087596 12.1979373201
3.1926257175 13.8752197949 3.4655520929
3.6652380618 14.1011932853 3.0710762930
3.6566568544 13.3891070575 3.2859275344
3.6596226243 13.2662423555 11.4703221985
2.8887822272 13.7013349571 11.0687991239
3.0359048500 14.7635614341 3.4613337991
3.7080095449 15.1519246218 2.8433175263
3.1631818909 14.1892532793 10.6383944230
3.0899935674 14.7113969531 10.0551538931
3.0186809092 15.9459556116 3.5615525341
3.8460412710 16.2721531600 2.8648210847
3.5489024146 15.4183616243 9.3219326514
2.8599855231 15.8360924374 8.8638221606
3.3067695346 16.7589405249 3.5052159911
3.8848375909 17.0483488517 3.2167937118
2.7809368483 16.8652660140 4.2842031558
2.8792075687 16.9236383802 7.2697028568
3.3317921482 16.7381763638 7.7575882430
3.0981465047 16.3166187352 8.3281577681
3.2977987801 17.2857261152 3.8211758325
3.0089127570 17.4761147535 4.5229770190
3.0218056479 17.6053010107 5.0526784168
3.0838093174 17.6662362201 4.5496646321
3.3433038732 17.6071984557 5.6916174401
3.6409276248 17.4616312493 6.2677381116
3.5293305337 17.1212750562 7.0990202459
4.2201182566 3.2870713946 10.2181359717
4.2322938031 3.0224705802 10.8549141662
4.1647756165 3.0279436854 11.4724894831
3.7571049514 3.4240976032 12.0592964675
4.4105520972 2.9999985606 12.2934550836
4.0891513876 3.3501498050 12.5385673068
4.7122035315 3.2505646907 12.8880017063
3.7291133757 4.7841729813 8.5230485113
4.3890360476 4.6976415264 8.1556914679
4.4408733756 4.1164178764 8.7700146631
4.6103045638 3.4973175090 9.4488565582
4.0854784620 3.8203370013 13.1335675251
3.5709370715 4.2222957812 13.2533662256
3.8893227574 5.5455135572 7.6867069199
4.6066026508 5.6479104181 7.1852402395
4.8202605926 4.9835378078 7.6476818122
4.0803643240 6.3348190307 6.9480511534
4.4121471679 6.8447612125 6.4245438115
4.9130753999 6.1532199883 6.6877248583
3.6804760923 7.2419890645 6.5857835394
4.2939046915 7.7220332421 5.9460029039
4.2385099583 8.5249689012 5.4642125858
3.8525198527 9.9458266190 4.7275902371
4.2047998826 10.2224877414 4.4023889298
4.5158846970 9.5927599350 4.6596456876
4.7438444724 8.8531391063 5.0388467199
4.2531431313 9.6711214198 13.5914743747
4.8392664842 9.2908273497 13.6204204066
4.4093290153 9.8065501417 13.4814057273
3.6018211508 10.5777818970 4.5166153923
4.1096253131 11.0034123005 4.0951478607
4.3205881470 10.6854762672 13.1517857522
4.1839354425 11.9882309529 3.6276166764
3.9896815251 11.4927029188 12.8713039168
4.7447207765 11.3125344485 12.7952759225
4.1610283458 11.9982723874 12.5086042926
3.9795235125 12.7851771470 3.3481100175
4.3658365592 13.1962465320 3.0056682506
4.5264097466 12.4047139736 3.2612850819
4.3344640427 12.6087107121 11.9724449831
4.3782566721 14.2277682372 2.5680329150
3.5882114207 13.8833351872 10.9261996577
4.3431053688 13.7589493553 10.8633876099
3.8630786611 14.3099319904 10.4396601435
4.6918743221 13.1392835745 11.3828032287
4.2490134998 14.9701519273 2.3424152773
4.6981680562 15.1166338765 1.9733582118
4.5470234448 14.6600188972 2.2092773312
4.1121981296 14.8262402170 9.8528209761
4.2364242592 15.6166813262 2.3154173474
4.7118351075 15.7240073023 1.9271985653
3.5390565756 15.9973410059 8.7419993390
4.2382643236 15.8069065218 8.7911918974
3.8884855730 16.3513226400 8.2567681190
4.4858268087 15.2352390499 9.3245175003
4.5893163634 16.1875207140 2.2465911611
4.6263041451 16.7469800136 2.7062636999
4.1638528901 16.7820779236 7.6326771492
3.7696554264 17.4011960484 3.5289062921
4.7696627679 17.2637576528 3.1658712957
3.2693050197 17.5704165661 4.0828889328
4.6667404192 17.5813539969 6.0815830831
4.1021592019 17.7078321984 5.9471515290
4.5122159817 17.1780205917 6.8792376345
4.9198543347 2.6716425255 10.8950280297
5.4053660752 2.6001655810 10.2181320715
6.0013807924 2.2012042978 10.6703931105
5.6516009450 2.2287544484 11.6634033355
4.9065566006 2.5956613809 11.9149066594
5.4372256184 2.4005591135 12.3191539734
4.9893762126 2.7163002905 12.5194695238
5.6010472180 2.6781220116 12.7858131915
4.9530430463 2.9521011826 10.0024343272
5.2909591084 3.1110033159 9.4353812162
5.3679535104 2.7900114472 9.8291683627
5.9644222578 3.2769422360 13.2227010102
5.1626843685 4.1798454606 8.2525814276
5.0758618272 3.6248872655 8.9214548515
5.1964610636 3.5369688410 13.2693442543
5.4813737618 5.3263448976 7.1381817922
5.5372925575 4.6161282253 7.6656826231
5.2179610500 6.8694916170 6.1018615311
5.8581576157 6.0376992168 6.5515242160
5.1214591523 7.5557489172 5.6618594777
5.4934208840 7.8258693612 5.3661569945
5.8164797279 7.2960129536 5.6302806569
4.8829634609 8.1393708385 5.4036691536
5.5381051934 8.3837470396 5.0532391765
5.3723491960 8.8081253916 13.6499923984
5.9135591913 8.2896653824 13.6364750745
5.5089526910 8.9258341351 13.5550192909
4.9419203757 10.1558874697 4.2153275855
5.5630577188 9.2365319843 4.5840914786
5.3559421661 9.7644059736 13.3080840158
5.1933310509 11.0135144724 3.7245254944
5.3525485623 10.5488803620 13.0120816793
4.9722981133 11.8240507481 3.3746017498
5.2050388648 12.3491306555 3.0701515391
5.7517820343 11.5187362680 3.3176429002
5.5050968797 11.0834128423 12.6898837446
5.2102917504 11.8928779623 12.2539804386
5.3848241014 13.2520293097 2.6189649283
5.0472903370 12.6212029471 11.7707891514
5.6361862821 12.4163134545 11.6928615778
5.3546941736 12.9156811456 11.3614508277
5.0983138873 14.3238728990 2.1068996776
5.7064801296 14.4201723089 1.8291975748
5.9836061544 13.8019841043 2.1892314809
5.4008496652 13.5026665487 10.6637874056
4.7672827052 14.3129727583 10.1476337133
5.3016938069 14.8953371390 1.6843058678
5.5500545866 15.2068924571 1.4779654130
5.8466733590 14.8132778703 1.5742883820
4.7587449041 14.7962460409 9.6897464918
5.0960566797 14.5959273414 9.7246514144
5.1303607522 14.9314310753 9.3391942313
5.1329392127 15.4561228781 1.6426409426
5.5861131424 15.5856957347 1.5412763957
4.9260993831 15.4674712352 8.8652608839
4.8791901453 16.1362204151 8.1355269569
5.1428064885 15.9467701598 1.8148341649
5.2575019745 16.3851392372 2.2151195260
5.6719773940 16.8099145232 2.8452750846
4.8351884102 16.7371212245 7.4941980492
5.2366696863 16.4716962982 7.6077764951
5.3267166070 16.7655430432 7.1288982756
5.5751328145 17.3991101429 3.5061870716
5.3005283126 17.5446347580 3.4961515011
5.6252996976 17.6234208996 3.9666033182
4.8796007492 17.7709694810 5.6590603021
5.4623419222 17.6078376327 5.3707998589
5.3242661365 17.7938863230 5.2258287554
5.5020601505 17.1720796622 6.2726426429
5.8759035641 2.6513161546 9.7178855159
6.5332765738 2.6781112389 9.2726217631
6.7071157339 2.2021669739 9.9224992408
6.9750630599 1.7505078939 10.6677838363
6.6335938523 1.8122945119 11.5623433974
6.1400092460 2.1974553616 12.3370588371
6.4965040666 2.5886885528 12.8914833616
5.9284368846 3.3216365882 8.8004511079
6.6051927658 3.5335055646 8.2955650724
6.8995129959 3.0187419596 8.7536092001
6.8546173886 3.1512861034 13.2105382153
6.0484211895 4.0295444157 8.0137137596
6.2614861469 4.6433848784 7.4836194403
6.8407846853 4.0190348665 7.8620216682
6.1571960513 3.8044597931 13.4521923193
6.9270164107 4.0336948136 13.4267095671
6.5407317537 5.3545500036 7.0343785327
6.6855813982 4.2811575000 13.5474542106
6.2590594573 6.6515861273 6.0393303993
6.8439267871 6.0555111341 6.5390240330
6.1706433323 7.8185995942 5.2472620208
6.6757485620 7.2142509355 5.5977061803
6.4061263833 7.6935363854 13.6277476769
6.8713446885 7.0168857056 13.5715554898
6.5241181150 7.8566957133 13.5262698415
6.4196144206 8.4925378876 4.8640687886
6.3671104877 8.8168225650 13.3182773551
6.0121402705 10.0683049379 4.0560142955
6.7382602516 9.2704007218 4.4458301080
6.2447646180 9.8278434723 13.0129264745
6.2950770587 10.7758567833 3.6134021546
5.9546391256 10.5667037034 12.8099015804
6.3719194988 10.3433384667 12.7368341848
6.2443133316 11.0373948372 12.3470433669
6.2722859372 12.1058753310 3.0017844539
6.4975440705 11.2854720038 3.3069337676
5.9946057305 11.8804417224 11.9185539656
6.5404439873 12.9955754964 2.6113679709
6.1714251416 12.2693705963 11.4977440567
5.9208599120 12.7917850993 11.1464236325
6.4316243998 14.3801071676 1.9300226503
6.8246285691 13.6501157468 2.3169817181
5.5491188881 14.3148270226 9.6989692177
6.1310230049 13.6086187031 10.0269259563
6.3287094243 14.1311204715 9.2687249108
6.2296741228 13.0828246121 10.5582772615
5.9545175701 15.1850001613 1.4996924533
6.1876070878 14.8506567628 1.6085728551
5.7140688036 15.1024554934 8.7140492893
6.3949453319 14.6222024210 8.6675395055
6.4147201953 15.1130268026 8.1192994651
6.0225547529 15.5281369880 1.6376674401
5.7096040683 15.9501145279 1.8231789059
5.9096081697 16.2373899210 2.2368646418
6.2799094708 15.7265889418 1.9952406142
6.5746764866 16.0643615766 2.6099039106
5.8261933905 16.0096932877 7.6517197342
6.4332051994 15.5884890537 7.5981483342
6.4534444150 15.9897659726 7.1258148223
6.5903653602 16.6364439609 3.2302814180
5.9943232445 16.5758529730 6.8320453648
6.4502445457 16.3781300251 6.6642289344
6.3441421224 16.7130942988 6.2107315520
6.1223766622 17.1186503311 3.5128967869
5.6172141518 17.7081286743 4.6963654358
6.0225349538 17.3970571600 4.3455706852
6.1854585896 17.1458739054 5.4047244451
7.3623330673 1.4325575559 11.2172475096
7.6132165370 1.4679775657 10.6648327575
7.9431357930 1.2824134932 11.0564032320
7.7548993844 1.3232682357 11.5427550972
7.3292630687 1.5204541374 11.7768847271
7.8142607044 1.5465100829 12.0182960345
7.2849398622 2.4657206911 9.3150328641
7.6270323652 1.8673555357 10.0138607949
7.1073752082 1.9620367822 12.3535556859
7.3642922709 2.5959403698 12.9063788266
7.3009962845 3.4583468657 8.2921152004
7.6952768585 2.9478812975 8.7927304170
7.5578796280 3.3845814089 13.1762197766
7.1572532271 4.6614671195 7.5031653791
7.6066802913 3.9988714052 7.9468670639
7.7188722369 4.1965320582 13.2705434373
7.6615294717 5.5985786351 7.2815391339
7.0724668748 4.8890866053 13.5397390019
7.5365884922 5.1783858988 13.3863289590
7.1435274954 6.6647008292 6.0479046467
7.5466888830 6.2860596673 6.5283360645
7.2135587191 5.9395288112 13.5306262547
7.3921096764 6.6329590424 13.3805623573
7.0323368092 7.8384940908 5.2259212282
7.4920370337 7.2593805523 5.6657136932
7.2896455756 7.8113863556 13.2204594766
7.3549092286 8.5511033047 4.8890839230
7.2413409538 8.8693999628 12.9450142478
7.2030953448 10.1786206156 3.9927574177
7.6812533543 9.2989526231 4.5744909124
6.9795590511 9.9854682417 12.5667317934
7.6581204739 9.2591567302 12.5549933410
7.7292169557 9.8687347083 12.1331473170
6.9495648603 10.8535903068 3.5161715064
7.0910962312 11.4153912522 3.2864018563
7.4716349345 10.8740319273 3.6244927098
7.2203126006 10.8277379412 11.8275979666
7.9278313325 10.4074160947 11.5945317399
7.7135505991 11.0415684553 11.2639883175
7.3406417164 12.2413968837 3.0624495202
7.2529288041 11.7933652944 10.9692689682
7.9214768005 11.4096965626 10.7299475014
7.6806892062 12.0752069032 10.2859667383
6.5961906561 11.7174964956 11.6181438444
7.3676025796 13.1654673722 2.7273047014
6.9864643556 13.0062027802 9.9354068329
7.8819657046 12.4994598374 9.6092555836
7.6085348081 13.2325232925 9.0498057089
6.5543696542 12.4555426829 10.9710394113
7.1083557142 14.0433137660 2.2634128669
7.3765173016 13.7093951897 2.4916949565
7.0232525095 14.1612581602 8.5812409787
7.8745874873 13.6717055850 8.1650640958
7.4590927548 14.4251738244 7.8199358632
6.4529592903 15.0835278950 1.8225066421
7.2260262683 14.5854503313 2.4065848585
6.8184969507 15.3705604506 2.2730810534
7.3189051302 15.3886778967 2.8351758664
6.9752941551 15.1557324775 7.5247909369
7.4631225361 14.7829116025 7.4147304588
7.4739879319 15.1724025186 6.9381332084
7.2064885009 16.0615175509 3.2291576189
6.9611253534 15.9734750473 6.5486959114
7.4899388114 15.5613379347 6.4370735308
7.4714736124 15.8918788796 5.8941312112
7.1028914467 16.4926723227 3.6158210350
6.6852949255 16.9098801572 3.8911158597
6.7802447003 16.8757075717 4.7209270963
7.2749907686 16.4765944530 4.2085732128
6.8864568228 16.5541947530 5.6220261435
7.4104149439 16.2696378845 5.0308242616
8.1274988401 1.4399310078 10.4814814499
8.3772103192 1.2860441865 10.9544409458
8.2805306877 1.3507073952 11.5616290238
8.3194453958 1.6636098823 12.1066205646
8.1277507467 2.4407936558 9.3458328928
8.3490230074 1.7982254879 9.9292492824
7.9260578338 2.0404096841 12.4953146350
8.1219964810 2.7686779995 12.8128625889
8.0010133635 3.5182830810 8.4420153634
8.2796953347 3.1160364296 8.8874932562
8.2461443695 3.6974395253 12.9687484297
7.9097522279 4.5880240615 7.7993369834
8.1668935182 4.0390673319 8.2094890918
8.2198479115 4.7095942390 13.0490486600
8.1729247445 5.0439470225 7.9607038100
8.2488961438 5.7053201346 8.1328053136
8.4868268634 5.7306270473 8.9141190151
8.4652216901 5.0806580855 8.5561042612
8.6371292852 5.7554641025 9.5388990689
8.6722493471 5.1816293783 9.2766489917
8.7907612016 5.4516615206 9.9166732803
8.1221237813 5.7867359148 13.0488681346
7.8376500813 6.8406357157 6.1726479125
8.0602923498 6.5583486523 6.8173218331
8.2729069800 6.5399359610 7.6847551559
8.4571916162 7.1735394852 7.1000283196
8.4207381577 6.4401848531 8.6102555593
8.5706000531 6.3663445539 9.4113963895
8.7463660875 6.1438378156 10.1023171597
8.0466567266 6.9166514408 12.9386182459
7.8264459249 7.9288525402 5.3966321908
8.0692135838 7.4152190990 5.8583045884
8.5301479197 7.3004481005 7.7094078207
8.6774215290 7.7524243452 7.4293624747
8.5222658097 7.2084167833 8.3721361766
8.5920502658 7.1213990515 9.2023515006
8.7173195873 6.9877540254 10.0157870473
7.9616913938 7.9389473896 12.8095300370
8.1194021201 8.7174265817 5.1596048551
8.7153051763 7.9154422605 8.1163036418
8.7266377681 7.8967120429 9.0024007822
8.7515893773 7.6984033785 9.7617611343
7.9376976627 8.6451928138 12.6417978168
8.3335565063 8.2268619644 12.3725029558
8.2164205834 9.0539289361 12.1210388190
8.0319586276 9.9234495880 4.4405552683
8.2898983809 9.4349252363 4.8927215253
8.2118226157 9.7810825938 11.7398044077
7.7854720526 11.4534020704 3.5129480679
8.0777961879 10.7511398883 4.1057574962
8.3721262290 10.1836147957 11.2476956004
8.1869187825 10.7798899432 11.0074764674
8.0377838788 12.0724604532 3.4324973431
8.3530049569 11.6819648855 3.9338351949
8.3083322781 11.0949688116 10.5794942735
8.2811971485 11.6238933922 10.0722594254
7.9858587706 12.7895084937 3.2354211854
8.3977670132 12.4004481422 3.7280678286
8.4155176422 12.1554455247 9.3069648539
8.1847811535 12.8170950949 8.8108247375
7.4562512307 14.0135239287 2.4711271236
7.8512881454 13.7909794456 2.9596885525
7.8728302182 14.4279771296 7.2706823350
8.3740270367 13.6227870011 7.2963185308
8.3164503403 14.2639898422 6.6658619081
8.4277476732 13.0197018970 8.0272503761
7.8269732732 15.4879814315 3.6038691126
7.8943949783 14.7284708694 3.1812383729
8.2599760578 14.8933328309 3.8009502457
7.9527959817 15.0795861608 6.3110521131
8.4405357765 14.5024809599 6.0464830693
8.3122094855 14.9965854217 5.6103984885
7.5125045361 16.1095946155 3.7767629224
8.2329011439 15.2494651072 4.2126202013
7.8497624977 15.8172423154 4.4292377412
7.9355494432 15.5927138574 5.3754563573
8.3148423140 15.1736936034 4.8934685417
8.5213830650 1.4550703033 10.4858851276
8.6630004890 1.4133654433 11.3231537517
8.7105262707 1.6762024420 11.8964764362
8.9625009327 1.7915791402 11.8396320848
8.5296496346 2.2143158782 9.5638548764
8.5895082174 1.7603590069 9.9467277579
8.9566232066 2.1992250353 12.1680324110
9.1000906727 2.1808134435 12.0764183771
8.5457369772 2.1609527693 12.3758946594
8.5691406128 3.8828198187 8.8799314448
8.5840247702 3.0710723709 9.2069408938
9.0574762641 2.7082650593 12.3016126694
9.0071350110 3.5770875675 12.4179314841
8.7587164377 3.0159957795 12.5511261635
8.3884732126 4.4862103730 8.3304892698
8.6560862865 4.6127984344 8.9413542649
8.8852533098 3.9781773596 9.5417681323
8.9020792124 4.7081914554 9.8180248381
9.1195558188 4.8578847950 10.8964757670
9.1103837172 4.4911102821 10.3138688110
9.2123390695 4.6498245706 10.9341388070
8.7747243520 4.2426330174 12.5727957846
9.0649233796 4.4208688577 12.1327455385
8.9316172761 5.6131465829 10.7578738401
9.1701003971 4.7468465852 11.4987484708
8.9647780875 5.1818984587 11.8787523996
8.6093776004 5.2001299908 12.6648025557
8.3276701965 7.2683676326 6.3982136284
8.8456563386 6.7051663259 10.8126035261
8.8472333339 6.3688117578 11.6594368655
8.5979213141 6.1198888266 12.4735540377
8.4438925986 8.1312797162 5.9284252936
8.6667988056 7.9095607176 6.8014248610
8.8237013653 7.7666614457 10.6547369990
8.8063039168 7.2910077211 11.4568872855
8.5408788868 7.2991999871 12.2623967976
8.6739206291 9.2884632313 5.6577787661
8.8523840138 8.8355667062 6.6130371654
8.8934348517 8.5946227166 7.5941181354
8.9169162030 8.7202122642 8.7221910445
8.8825748734 8.5670389934 9.8507606099
8.8282820049 8.7001135172 10.7988781348
8.6614483035 8.2584684284 11.6238941480
8.5807591563 10.2238890539 4.9762902702
8.9098379556 10.2041916725 5.8433523926
9.0046480429 9.8385101736 6.5933972913
9.0495793554 9.4791495024 7.3426747712
9.1024333434 9.6232963811 8.3091042650
9.0099583402 9.6090817110 9.4826149046
8.8682749667 9.3837749234 10.3840960917
8.6120662571 9.4195044578 11.2429713279
8.6671947983 11.3013018013 4.7068772108
8.9170145027 11.0297794985 5.6239776876
9.0503635899 10.8274897301 6.5920191752
9.1366165191 10.5182568689 7.6952170255
9.2029596540 10.2969993253 8.3568200070
9.1527282266 9.9869310408 8.9675350367
9.0364839459 10.2845116441 9.6474478030
8.9845527740 10.9094652806 9.6491193018
8.7058659002 10.5008847485 10.3230350098
8.7277409811 12.3710490419 4.4788855530
8.9204932787 11.9914830461 5.4277403839
8.9916021801 11.7950217143 6.4063750608
9.0097722090 11.5956781261 7.4782702501
9.1820201405 10.9008254805 8.4073873349
9.0513459198 11.3676278252 8.4398686523
8.8100400860 11.4692363576 9.3745176573
9.0798575412 11.2157108324 9.0197738633
8.4973949484 13.2344786274 3.8531098746
8.8161527303 13.2178486932 4.6488081587
8.8947734119 12.9114065366 5.3370409890
8.9230980061 12.6086940406 6.1196330839
8.7888608456 12.6647360316 7.1718033453
8.7193743988 12.1982375205 8.4228568211
8.3813555899 14.2163837514 3.7460589434
8.7013239339 13.9168412679 4.5011091074
8.8298476872 13.6331464624 5.1905935819
8.7112050024 13.6022014846 6.1715906836
8.5087512123 14.6769054947 4.3960215447
8.6218338272 14.3983285101 5.2764842070
3 2 1 0
3 4 3 0
3 0 3 2
3 6 5 4
3 4 5 3
3 6 7 5
3 10 9 8
3 10 8 1
3 8 0 1
3 8 11 0
3 0 12 4
3 0 11 12
3 4 13 6
3 4 12 13
3 7 6 14
3 14 6 13
3 17 16 15
3 17 15 9
3 15 8 9
3 15 18 8
3 8 19 11
3 8 18 19
3 11 20 12
3 11 19 20
3 12 21 13
3 12 20 21
3 14 13 22
3 22 13 21
3 15 16 23
3 23 16 24
3 15 25 18
3 15 23 25
3 18 26 19
3 18 25 26
3 19 27 20
3 19 26 27
3 20 28 21
3 20 27 28
3 22 21 29
3 29 21 28
3 23 24 30
3 30 24 31
3 23 32 25
3 23 30 32
3 25 33 26
3 25 32 33
3 26 34 27
3 26 33 34
3 27 35 28
3 27 34 35
3 29 28 36
3 36 28 35
3 39 38 37
3 39 37 31
3 37 30 31
3 37 40 30
3 30 41 32
3 30 40 41
3 32 42 33
3 32 41 42
3 33 43 34
3 33 42 43
3 45 35 44
3 35 43 44
3 35 34 43
3 35 45 36
3 37 38 46
3 46 38 47
3 37 48 40
3 37 46 48
3 40 49 41
3 40 48 49
3 41 50 42
3 41 49 50
3 42 51 43
3 42 50 51
3 44 43 52
3 52 43 51
3 46 47 53
3 53 47 54
3 46 55 48
3 46 53 55
3 48 56 49
3 48 55 56
3 49 57 50
3 49 56 57
3 59 51 58
3 51 57 58
3 51 50 57
3 51 59 52
3 62 61 60
3 62 60 54
3 60 53 54
3 60 63 53
3 53 64 55
3 53 63 64
3 55 65 56
3 55 64 65
3 67 57 66
3 57 65 66
3 57 56 65
3 57 67 58
3 61 68 60
3 60 68 63
3 63 68 69
3 63 69 64
3 64 69 70
3 64 70 65
3 65 70 71
3 65 71 66
3 74 73 72
3 72 75 74
3 78 77 76
3 78 76 73
3 76 72 73
3 76 79 72
3 75 72 80
3 72 81 80
3 72 79 81
3 81 82 80
3 85 84 83
3 85 83 77
3 77 83 76
3 83 1 76
3 1 2 76
3 76 2 3
3 76 3 79
3 79 3 5
3 79 5 81
3 87 86 7
3 7 86 5
3 86 82 5
3 82 81 5
3 87 88 86
3 91 90 89
3 91 89 84
3 84 89 83
3 89 9 83
3 9 10 83
3 83 10 1
3 14 92 87
3 14 87 7
3 88 87 93
3 93 87 92
3 89 90 17
3 90 16 17
3 90 94 16
3 89 17 9
3 22 95 92
3 22 92 14
3 93 92 96
3 96 92 95
3 99 98 97
3 94 99 97
3 24 94 97
3 16 94 24
3 29 100 95
3 29 95 22
3 96 95 101
3 101 95 100
3 104 103 102
3 104 102 98
3 102 97 98
3 102 105 97
3 105 31 24
3 105 24 97
3 36 106 100
3 36 100 29
3 101 100 107
3 107 100 106
3 102 103 108
3 108 103 109
3 108 38 39
3 105 108 39
3 102 108 105
3 105 39 31
3 44 110 45
3 106 36 45
3 110 106 45
3 111 106 110
3 107 106 112
3 112 106 111
3 115 114 113
3 115 113 109
3 113 108 109
3 113 116 108
3 116 47 38
3 116 38 108
3 52 117 110
3 52 110 44
3 119 111 118
3 111 117 118
3 111 110 117
3 111 119 112
3 113 114 120
3 120 114 121
3 113 122 116
3 113 120 122
3 122 54 47
3 122 47 116
3 58 123 59
3 123 124 59
3 59 124 52
3 124 125 52
3 125 117 52
3 117 125 118
3 120 121 126
3 126 121 127
3 126 61 62
3 122 126 62
3 120 126 122
3 122 62 54
3 66 128 67
3 128 129 67
3 67 129 58
3 129 130 58
3 130 123 58
3 123 130 124
3 126 127 131
3 131 127 132
3 133 68 61
3 126 133 61
3 131 133 126
3 134 69 68
3 134 68 133
3 135 70 69
3 135 69 134
3 136 71 70
3 136 70 135
3 136 137 71
3 71 137 66
3 137 138 66
3 138 128 66
3 128 138 129
3 132 139 131
3 141 140 139
3 140 131 139
3 140 133 131
3 133 142 134
3 133 140 142
3 144 135 143
3 135 142 143
3 135 134 142
3 135 144 136
3 136 144 145
3 136 145 137
3 141 146 140
3 140 146 142
3 142 146 147
3 142 147 143
3 150 149 148
3 148 151 150
3 154 153 152
3 154 152 149
3 149 152 148
3 152 73 148
3 73 74 148
3 156 155 75
3 75 155 74
3 155 151 74
3 151 148 74
3 158 157 156
3 156 157 155
3 158 159 157
3 162 161 160
3 162 160 153
3 153 160 152
3 160 77 152
3 77 78 152
3 152 78 73
3 80 156 75
3 156 80 82
3 163 156 82
3 158 156 163
3 159 158 164
3 158 165 164
3 158 163 165
3 168 167 166
3 168 166 161
3 161 166 160
3 166 84 160
3 84 85 160
3 160 85 77
3 86 163 82
3 163 86 88
3 169 163 88
3 165 163 169
3 166 167 91
3 167 90 91
3 167 170 90
3 166 91 84
3 93 171 169
3 93 169 88
3 174 173 172
3 170 174 172
3 94 170 172
3 90 170 94
3 96 175 171
3 96 171 93
3 178 177 176
3 178 176 173
3 173 176 172
3 176 98 172
3 98 99 172
3 172 99 94
3 101 179 175
3 101 175 96
3 176 177 104
3 177 103 104
3 177 180 103
3 176 104 98
3 182 181 179
3 101 182 179
3 107 182 101
3 185 184 183
3 180 185 183
3 109 180 183
3 103 180 109
3 112 182 107
3 112 186 182
3 183 184 115
3 184 114 115
3 184 187 114
3 183 115 109
3 189 188 119
3 189 119 118
3 112 119 186
3 186 119 188
3 192 191 190
3 187 192 190
3 121 187 190
3 114 187 121
3 194 193 125
3 194 125 124
3 118 125 189
3 189 125 193
3 190 191 195
3 195 191 196
3 195 127 121
3 195 121 190
3 198 197 130
3 198 130 129
3 124 130 194
3 194 130 197
3 195 196 199
3 199 196 200
3 199 132 127
3 199 127 195
3 202 201 138
3 202 138 137
3 129 138 198
3 198 138 201
3 199 200 203
3 203 200 204
3 205 139 132
3 199 205 132
3 203 205 199
3 205 141 139
3 143 206 144
3 144 206 207
3 208 144 207
3 145 144 208
3 137 145 202
3 202 145 208
3 204 209 203
3 203 209 205
3 205 209 210
3 210 212 211
3 210 211 146
3 205 210 146
3 141 205 146
3 146 211 213
3 214 146 213
3 147 146 214
3 143 147 206
3 147 215 206
3 147 214 215
3 206 215 207
3 217 216 150
3 150 216 149
3 219 218 151
3 218 150 151
3 218 217 150
3 221 220 219
3 219 220 218
3 221 222 220
3 225 224 223
3 153 154 223
3 154 225 223
3 154 226 225
3 154 149 216
3 154 216 226
3 155 219 151
3 219 155 157
3 219 157 221
3 228 227 159
3 159 227 157
3 227 222 157
3 222 221 157
3 231 230 229
3 231 229 224
3 224 229 223
3 229 161 223
3 161 162 223
3 223 162 153
3 164 228 159
3 234 233 232
3 234 232 230
3 230 232 229
3 232 167 229
3 167 168 229
3 229 168 161
3 232 233 235
3 235 233 236
3 235 170 167
3 235 167 232
3 235 236 174
3 236 173 174
3 236 237 173
3 235 174 170
3 240 239 238
3 177 178 238
3 178 240 238
3 178 241 240
3 178 173 237
3 178 237 241
3 244 243 242
3 238 239 245
3 245 239 246
3 245 180 177
3 245 177 238
3 244 242 181
3 182 244 181
3 247 244 182
3 245 246 185
3 246 184 185
3 246 248 184
3 245 185 180
3 251 250 249
3 250 247 249
3 247 186 249
3 247 182 186
3 254 253 252
3 248 254 252
3 187 248 252
3 184 248 187
3 251 249 188
3 189 251 188
3 255 251 189
3 188 249 186
3 252 253 192
3 253 191 192
3 253 256 191
3 252 192 187
3 259 258 257
3 193 194 257
3 258 193 257
3 260 193 258
3 189 193 255
3 255 193 260
3 263 262 261
3 256 263 261
3 196 256 261
3 191 256 196
3 259 257 197
3 198 259 197
3 264 259 198
3 197 257 194
3 261 262 265
3 265 262 266
3 265 200 196
3 265 196 261
3 269 268 267
3 201 202 267
3 268 201 267
3 270 201 268
3 198 201 264
3 264 201 270
3 266 271 265
3 200 265 271
3 272 200 271
3 204 200 272
3 269 267 208
3 207 269 208
3 273 269 207
3 208 267 202
3 209 204 274
3 204 275 274
3 204 272 275
3 276 210 209
3 276 209 274
3 276 212 210
3 278 277 214
3 278 214 213
3 214 279 215
3 277 279 214
3 207 215 273
3 273 215 279
3 282 281 280
3 284 283 280
3 280 283 282
3 286 285 284
3 284 285 283
3 286 287 285
3 290 289 288
3 290 288 281
3 281 288 280
3 288 216 280
3 216 217 280
3 280 217 218
3 280 218 284
3 284 218 220
3 284 220 286
3 220 222 286
3 222 287 286
3 222 291 287
3 293 292 225
3 225 292 224
3 226 288 289
3 293 226 289
3 225 226 293
3 288 226 216
3 294 291 222
3 294 222 227
3 296 295 231
3 231 295 230
3 231 224 292
3 231 292 296
3 298 297 234
3 234 297 233
3 234 230 295
3 234 295 298
3 301 300 299
3 297 301 299
3 236 297 299
3 233 297 236
3 299 300 302
3 302 300 303
3 302 237 236
3 302 236 299
3 306 305 304
3 308 307 240
3 240 307 239
3 241 302 303
3 308 241 303
3 240 241 308
3 302 241 237
3 306 304 243
3 244 306 243
3 309 306 244
3 307 246 239
3 310 246 307
3 247 309 244
3 247 311 309
3 314 313 312
3 310 314 312
3 248 310 312
3 246 310 248
3 316 315 250
3 316 250 251
3 247 250 311
3 311 250 315
3 312 313 254
3 313 253 254
3 313 317 253
3 312 254 248
3 320 319 318
3 319 316 318
3 316 255 318
3 316 251 255
3 323 322 321
3 317 323 321
3 256 317 321
3 253 317 256
3 325 324 258
3 325 258 259
3 318 260 320
3 260 324 320
3 260 258 324
3 260 318 255
3 328 327 326
3 328 326 322
3 322 326 321
3 326 262 321
3 262 263 321
3 321 263 256
3 331 330 329
3 330 325 329
3 325 264 329
3 325 259 264
3 326 327 332
3 332 327 333
3 332 266 262
3 332 262 326
3 335 334 268
3 335 268 269
3 329 270 331
3 270 334 331
3 270 268 334
3 270 329 264
3 333 336 332
3 332 336 266
3 336 271 266
3 336 337 271
3 272 271 337
3 272 337 338
3 341 340 339
3 340 335 339
3 335 273 339
3 335 269 273
3 343 275 342
3 275 338 342
3 275 272 338
3 344 343 342
3 347 346 345
3 277 278 345
3 346 277 345
3 348 277 346
3 339 279 341
3 279 348 341
3 279 277 348
3 279 339 273
3 351 350 349
3 281 282 349
3 282 351 349
3 282 352 351
3 353 282 283
3 353 352 282
3 354 283 285
3 354 353 283
3 285 287 354
3 354 287 355
3 358 357 356
3 358 356 350
3 350 356 349
3 356 289 349
3 289 290 349
3 349 290 281
3 291 355 287
3 291 359 355
3 362 361 360
3 362 360 357
3 357 360 356
3 360 292 356
3 292 293 356
3 356 293 289
3 291 294 363
3 364 291 363
3 359 291 364
3 360 361 296
3 361 295 296
3 361 365 295
3 360 296 292
3 366 364 363
3 368 367 298
3 298 367 297
3 298 295 365
3 298 365 368
3 370 369 301
3 301 369 300
3 301 297 367
3 301 367 370
3 373 372 371
3 369 303 300
3 374 303 369
3 373 371 305
3 306 373 305
3 375 373 306
3 377 376 308
3 308 376 307
3 308 303 374
3 308 374 377
3 309 375 306
3 309 378 375
3 376 310 307
3 379 310 376
3 382 381 380
3 381 378 380
3 378 311 380
3 378 309 311
3 384 383 314
3 314 383 313
3 314 310 379
3 314 379 384
3 382 380 315
3 316 382 315
3 385 382 316
3 315 380 311
3 383 317 313
3 386 317 383
3 388 387 319
3 388 319 320
3 316 319 385
3 385 319 387
3 390 389 323
3 323 389 322
3 323 317 386
3 323 386 390
3 393 392 391
3 324 325 391
3 392 324 391
3 394 324 392
3 320 324 388
3 388 324 394
3 396 395 328
3 328 395 327
3 328 322 389
3 328 389 396
3 399 398 397
3 397 398 393
3 397 393 391
3 331 397 391
3 330 331 391
3 330 391 325
3 401 333 400
3 333 395 400
3 333 327 395
3 403 402 401
3 403 401 400
3 404 402 403
3 407 406 405
3 405 406 399
3 405 399 397
3 335 405 397
3 334 335 397
3 334 397 331
3 401 336 333
3 336 401 337
3 337 401 402
3 338 337 402
3 404 338 402
3 408 338 404
3 411 410 409
3 409 410 407
3 409 407 405
3 341 409 405
3 340 341 405
3 340 405 335
3 408 412 338
3 338 412 342
3 414 413 344
3 342 414 344
3 412 414 342
3 346 347 413
3 414 346 413
3 415 346 414
3 409 348 411
3 348 415 411
3 348 346 415
3 348 409 341
3 418 417 416
3 420 419 416
3 416 419 418
3 420 421 419
3 423 422 351
3 351 422 350
3 352 416 417
3 423 352 417
3 351 352 423
3 416 352 353
3 416 353 420
3 424 421 420
3 353 424 420
3 354 424 353
3 354 355 424
3 424 355 425
3 427 426 358
3 358 426 357
3 358 350 422
3 358 422 427
3 359 425 355
3 359 428 425
3 430 429 362
3 362 429 361
3 362 357 426
3 362 426 430
3 364 428 359
3 364 431 428
3 429 365 361
3 432 365 429
3 364 366 433
3 434 364 433
3 431 364 434
3 436 435 368
3 368 435 367
3 368 365 432
3 368 432 436
3 434 433 437
3 434 437 438
3 440 439 370
3 370 439 369
3 370 367 435
3 370 435 440
3 438 437 372
3 373 438 372
3 441 438 373
3 439 374 369
3 442 374 439
3 375 441 373
3 375 443 441
3 445 444 377
3 377 444 376
3 377 374 442
3 377 442 445
3 448 447 446
3 447 443 446
3 443 378 446
3 443 375 378
3 451 450 449
3 444 451 449
3 379 444 449
3 376 444 379
3 454 453 452
3 452 453 448
3 452 448 446
3 382 452 446
3 381 382 446
3 381 446 378
3 449 450 384
3 450 383 384
3 450 455 383
3 449 384 379
3 458 457 456
3 456 457 454
3 452 456 454
3 459 456 452
3 385 459 382
3 382 459 452
3 455 386 383
3 460 386 455
3 463 462 461
3 461 462 458
3 456 461 458
3 464 461 456
3 388 464 387
3 464 459 387
3 464 456 459
3 387 459 385
3 466 465 390
3 390 465 389
3 390 386 460
3 390 460 466
3 469 468 467
3 467 468 463
3 467 463 461
3 393 467 461
3 392 393 461
3 392 461 394
3 394 461 464
3 394 464 388
3 470 395 396
3 389 465 471
3 470 389 471
3 472 470 471
3 396 389 470
3 473 472 471
3 476 475 474
3 474 475 469
3 474 469 467
3 399 474 467
3 398 399 467
3 398 467 393
3 470 400 395
3 400 470 403
3 403 470 472
3 404 403 472
3 473 404 472
3 477 404 473
3 480 479 478
3 478 479 476
3 478 476 474
3 407 478 474
3 406 407 474
3 406 474 399
3 482 408 481
3 408 477 481
3 408 404 477
3 484 483 482
3 484 482 481
3 486 485 483
3 486 483 484
3 485 486 480
3 485 480 478
3 411 485 478
3 410 411 478
3 410 478 407
3 482 412 408
3 412 482 414
3 414 482 483
3 414 483 415
3 415 483 485
3 415 485 411
3 488 487 418
3 418 487 417
3 489 418 419
3 489 488 418
3 419 421 489
3 489 421 490
3 492 491 423
3 423 491 422
3 423 417 487
3 423 487 492
3 493 490 421
3 493 421 424
3 424 425 493
3 493 425 494
3 496 495 427
3 427 495 426
3 427 422 491
3 427 491 496
3 428 494 425
3 428 497 494
3 499 498 430
3 430 498 429
3 430 426 495
3 430 495 499
3 431 497 428
3 431 500 497
3 502 432 501
3 432 498 501
3 432 429 498
3 504 503 502
3 504 502 501
3 506 505 503
3 506 503 504
3 507 505 506
3 434 500 431
3 434 508 500
3 510 509 436
3 436 509 435
3 510 436 432
3 511 510 432
3 502 511 432
3 510 511 512
3 513 502 503
3 511 502 513
3 514 503 505
3 513 503 514
3 505 507 515
3 505 515 514
3 438 508 434
3 438 516 508
3 518 517 440
3 440 517 439
3 440 435 509
3 440 509 518
3 512 511 519
3 512 519 520
3 521 511 513
3 519 511 521
3 522 513 514
3 521 513 522
3 514 515 523
3 514 523 522
3 441 516 438
3 441 524 516
3 517 442 439
3 525 442 517
3 526 520 519
3 526 519 521
3 526 521 527
3 527 521 522
3 527 522 528
3 528 522 523
3 531 530 529
3 530 524 529
3 524 443 529
3 524 441 443
3 533 532 445
3 445 532 444
3 445 442 525
3 445 525 533
3 531 529 447
3 448 531 447
3 534 531 448
3 447 529 443
3 535 450 451
3 536 535 451
3 444 536 451
3 532 536 444
3 538 537 453
3 538 453 454
3 448 453 534
3 534 453 537
3 539 455 535
3 535 455 450
3 535 536 540
3 535 540 539
3 542 541 457
3 542 457 458
3 454 457 538
3 538 457 541
3 544 543 539
3 543 455 539
3 543 460 455
3 544 539 540
3 546 545 462
3 546 462 463
3 458 462 542
3 542 462 545
3 547 465 466
3 548 547 466
3 460 548 466
3 543 548 460
3 551 550 549
3 468 469 549
3 550 468 549
3 552 468 550
3 463 468 546
3 546 468 552
3 547 471 465
3 554 553 473
3 554 473 471
3 548 554 471
3 547 548 471
3 555 553 554
3 558 557 556
3 556 557 551
3 556 551 549
3 476 556 549
3 475 476 549
3 475 549 469
3 559 477 553
3 553 477 473
3 553 555 560
3 561 553 560
3 559 553 561
3 563 562 561
3 563 561 560
3 562 563 558
3 562 558 556
3 480 562 556
3 479 480 556
3 479 556 476
3 559 481 477
3 481 559 484
3 484 559 561
3 484 561 486
3 486 561 562
3 486 562 480
3 565 564 488
3 488 564 487
3 567 565 566
3 565 489 566
3 565 488 489
3 490 566 489
3 569 568 492
3 492 568 491
3 492 487 564
3 492 564 569
3 567 566 570
3 567 570 571
3 493 572 490
3 572 566 490
3 572 570 566
3 494 572 493
3 573 495 496
3 574 573 496
3 491 574 496
3 568 574 491
3 575 571 570
3 577 576 575
3 570 577 575
3 572 577 570
3 497 577 494
3 494 577 572
3 578 498 499
3 495 573 499
3 573 578 499
3 573 579 578
3 573 574 580
3 581 573 580
3 579 573 581
3 583 582 581
3 583 581 580
3 584 582 583
3 576 577 585
3 576 585 586
3 500 585 497
3 497 585 577
3 578 501 498
3 501 578 504
3 504 578 579
3 504 579 506
3 506 579 581
3 506 581 507
3 581 587 507
3 581 582 587
3 582 584 588
3 589 582 588
3 587 582 589
3 589 588 586
3 585 589 586
3 590 589 585
3 508 590 500
3 500 590 585
3 591 509 510
3 512 591 510
3 592 515 587
3 587 515 507
3 593 587 589
3 592 587 593
3 594 589 590
3 593 589 594
3 516 594 508
3 508 594 590
3 595 517 518
3 509 591 518
3 591 595 518
3 591 596 595
3 520 596 512
3 512 596 591
3 597 523 592
3 592 523 515
3 598 592 593
3 597 592 598
3 599 593 594
3 598 593 599
3 524 599 516
3 516 599 594
3 600 525 595
3 595 525 517
3 601 595 596
3 600 595 601
3 526 602 520
3 602 596 520
3 602 601 596
3 527 603 526
3 526 603 602
3 528 604 527
3 527 604 603
3 523 597 528
3 597 604 528
3 597 605 604
3 606 597 598
3 605 597 606
3 531 606 530
3 606 599 530
3 606 598 599
3 530 599 524
3 607 532 533
3 525 600 533
3 600 607 533
3 600 608 607
3 609 600 601
3 608 600 609
3 610 601 602
3 609 601 610
3 611 602 603
3 610 602 611
3 612 603 604
3 611 603 612
3 613 604 605
3 612 604 613
3 614 605 606
3 613 605 614
3 534 614 531
3 531 614 606
3 615 536 607
3 607 536 532
3 616 607 608
3 615 607 616
3 617 608 609
3 616 608 617
3 618 609 610
3 617 609 618
3 611 620 619
3 618 611 619
3 610 611 618
3 620 611 612
3 620 612 621
3 623 622 621
3 612 623 621
3 613 623 612
3 538 623 537
3 623 614 537
3 623 613 614
3 537 614 534
3 624 540 615
3 615 540 536
3 625 615 616
3 624 615 625
3 626 616 617
3 625 616 626
3 627 617 618
3 626 617 627
3 618 619 628
3 629 618 628
3 627 618 629
3 631 630 629
3 631 629 628
3 630 631 622
3 630 622 623
3 542 630 623
3 541 542 623
3 541 623 538
3 632 543 544
3 540 624 544
3 624 632 544
3 624 633 632
3 634 624 625
3 633 624 634
3 635 625 626
3 634 625 635
3 636 626 627
3 635 626 636
3 637 627 629
3 636 627 637
3 546 637 545
3 637 630 545
3 637 629 630
3 545 630 542
3 638 548 632
3 632 548 543
3 639 632 633
3 638 632 639
3 640 633 634
3 639 633 640
3 641 634 635
3 640 634 641
3 551 641 550
3 641 636 550
3 641 635 636
3 550 636 552
3 552 636 637
3 552 637 546
3 638 554 548
3 554 638 555
3 638 642 555
3 638 639 642
3 643 639 640
3 642 639 643
3 558 643 557
3 643 641 557
3 643 640 641
3 557 641 551
3 642 560 555
3 560 642 563
3 563 642 643
3 563 643 558