OFF
1011 1998 0
0.9866579959 6.8702807350 10.8921695895
1.1202794138 6.6471343552 9.9825094816
1.3010409872 6.1766071347 10.4484228821
1.3867692359 6.0669402148 11.3555927015
1.0977298360 6.7498814637 12.0160110909
1.6724560528 5.9658039741 12.5260436274
1.2995210195 6.7633189532 13.0086472414
1.6987745538 6.2880644494 13.3069371328
1.0141584243 7.6967430504 9.0046574735
1.2241362484 7.8538836934 8.1851767202
1.2592973410 7.1593486378 8.4636842810
1.1733282560 6.8789200087 9.2077076329
0.8915823441 7.4919092039 10.0061268621
0.7604330266 7.7253602770 10.9385395825
0.7995683205 7.5767316035 11.7489460892
0.9357980944 7.5303885288 12.7275850328
1.6931012645 6.7190695567 13.8319070680
1.2608759108 7.5141120218 13.7614837323
1.6844712053 7.1927104720 14.3339046538
1.0036519996 8.5245532751 8.7910944324
1.2390481061 8.7123248369 8.0883520820
0.8415740495 8.4473429047 9.6741689916
0.7337075116 8.4279625926 10.6360353800
0.7008678429 8.4219197583 11.5753833016
0.7600119503 8.3598542575 12.4904729751
0.9475787359 8.3646813996 13.4200295361
1.6806852295 7.7129402946 14.7106085225
1.2680389117 8.3952115026 14.3230050197
1.6520347181 8.3877461019 15.0301179021
1.0807688733 9.1725266247 8.6578214197
1.2848957373 9.4469281495 8.2729640982
0.9451401719 9.3480280374 9.4389666438
0.8067879258 9.2790307032 10.4003313397
0.7567726205 9.2660080074 11.3657950918
0.7861916680 9.2189962015 12.3235591699
0.8677638981 9.0699078590 13.1124853097
1.1609511138 9.3134063701 14.0105380654
1.4876757158 9.0710088440 14.8687362396
1.1766974957 9.8327751920 8.9297620677
1.0900716546 10.0992167547 9.6003900658
0.9774229430 10.0453867084 10.2388453124
1.1919177768 10.5871049748 10.0732775197
0.9242572358 10.0689503948 11.1260965174
0.9502788872 10.0711960701 12.0958276494
1.1014798782 10.0071706965 13.1680031713
1.5814733300 10.4105760034 14.2328162540
1.5038616555 9.7675810582 14.7223635411
1.1808970638 10.7508763227 10.8289595563
1.1871493568 10.8120192461 11.7548062292
1.3139382977 10.8525253955 12.6723494657
1.5682928851 10.9197346972 13.4938427176
1.9936914178 5.6164846766 8.5811531406
2.2189650056 5.5918563130 7.7226658834
2.5873042496 5.1118304790 8.0020506309
2.5605976203 4.8605583447 9.0821769080
1.9966593616 5.3385995659 9.5976558953
2.4046173910 4.8575738746 10.2301552820
1.7905646929 5.5000487947 10.6085573294
2.4668653288 4.8805143026 11.4040427951
1.8891801836 5.4500634959 11.7686545322
2.4053847211 5.1256074887 12.3321676108
2.0015444349 5.4505577479 12.3887972688
2.2866550928 5.4472674340 12.8866799008
2.0118289162 6.5203979572 6.9760640193
2.3852994926 6.6791034512 6.2306538828
2.3149722341 6.1560294116 6.6413020634
2.2570065473 5.8798375046 7.0984706239
1.8878133259 6.1544681793 7.7257231044
1.5244303930 6.4547618177 8.4958533516
1.5081571387 6.0474997453 9.5368983048
2.3113529266 5.8589637800 13.5332313878
1.9232307632 6.2746953363 13.6943745843
2.2694166122 6.3165913269 14.1283619938
1.9054631532 7.3984427815 6.7818151697
2.2851573742 7.7542912210 6.0508747285
1.5785819700 7.0649374170 7.6702641382
2.2863596988 6.8018115651 14.6648619355
1.9129867026 7.2530369440 14.7190850200
2.2743154991 7.3311061693 15.1487223952
1.8906884560 8.4243294851 6.6971248956
2.2825316683 8.7727232203 6.0525991570
1.5293993922 8.0983259878 7.4309007492
2.2809110879 7.9663958089 15.5701999022
1.9618671725 8.8278811060 15.5263475784
2.4536292326 8.5866159990 16.0194916924
1.9873333478 9.3759131196 6.7073977658
2.3052494815 9.5767533288 6.2083025835
1.5888078939 9.2237097160 7.5195673671
1.9212740212 9.7150865239 15.3967651464
2.4235196096 9.3079377566 16.0396296371
2.1609889585 10.0321235618 6.6730910999
1.9122944477 10.2291282680 7.3886921453
2.2292261176 10.5877515336 6.9637279859
1.5457783266 10.2637218451 8.3890873375
1.3547945395 10.5955441328 9.4063677942
1.7960429491 10.2669894575 14.9585945769
2.1615072303 10.4375951961 15.4006841066
2.6730301874 10.2905129453 16.0349733638
2.1528531311 10.9537185653 7.4899400924
1.9503815611 11.0440175237 8.1642385487
2.2845460803 11.4839396588 7.8767949765
1.7812250514 11.3373514288 9.2007139612
1.5295185344 11.3116711648 10.2949332411
1.5189503860 11.4753373942 11.4050417603
1.5337593868 11.4325271771 12.2435206720
1.9002921903 11.6834131984 13.0887252350
2.2589156173 11.5255604553 14.1760842967
2.1887760516 10.9399847881 14.9371213133
2.5765574571 10.8998443176 15.5591213760
2.2008619325 11.8066728540 8.6524373748
2.1125006663 12.0608721245 9.4026834281
1.9734596160 12.0465915870 10.0375717572
2.2310324559 12.3964446913 9.7893686401
1.9382664729 12.1467710908 11.0028631645
1.9995712059 12.1737948715 12.1415104614
2.5042824672 12.5327613921 13.0697595362
2.4788571805 12.1742387206 13.6464155741
2.4480198418 12.7973180687 10.3911455410
2.4151402542 12.8370313911 11.5714611207
2.5300116909 12.8560933767 12.3896161115
3.0171234254 4.3919823162 9.8733043951
3.1640610336 4.3750478146 9.0614374013
3.7524878442 4.0086037426 9.5001512187
3.6059593907 4.0514507645 10.5598038914
2.9605896994 4.4183792758 10.8543114914
3.5549338343 4.1451878478 11.4366545906
3.0758352186 4.4421434496 11.6330892799
3.5178137400 4.3042769378 12.0525349957
2.7770793089 5.7177145945 6.4196936571
3.2228616335 5.6921669774 5.6432233791
3.5361246202 5.1671230645 5.9371672024
3.2921175940 4.8543007066 7.1014534661
2.5865705105 5.3891058560 7.2620577879
3.1304650222 4.5773492839 8.2727719865
3.1445512456 4.6806900840 12.3745650647
2.9421095123 5.1084980908 13.0605051635
2.6790429700 5.4200710222 13.3583594712
3.2981994832 5.4041344691 13.8340240909
2.9251620814 6.2875609136 5.6161108223
3.2681216453 6.6877031616 4.9681194308
3.3516226202 6.0139330853 5.1701447347
3.0431082918 5.9932808504 14.4329652327
2.6435390077 6.3640062812 14.5732976696
3.0689658342 6.4222281701 14.9871833204
2.7626161343 7.1820253062 5.4739486134
3.2015769209 7.6444591553 4.8438690380
3.1094620837 6.9324370844 15.5110887362
2.6521886685 7.4123555146 15.5906599815
3.0422917225 7.5235408801 15.9830997539
2.7116546322 8.2165207675 5.4219807648
3.1906859357 8.6866787131 4.8471417392
2.9385803777 8.1198702711 16.2573781732
2.9479948459 8.8239863687 16.4655176980
3.5865613322 8.2901841162 16.7257974267
2.7268895095 9.3623600872 5.5607589109
3.2529861797 9.6610545872 4.9255994023
3.0040411223 9.6384563681 16.5261129746
3.6073633830 9.1082931093 16.8986693540
3.0148575453 10.2896102001 5.4924860039
3.3217729093 10.2591097276 5.0199805512
2.5383087180 10.3424363682 6.2724269531
3.1141970395 10.1945791874 16.5367137556
3.6610924803 10.0438508608 16.8841538700
3.4112600932 10.8491646128 5.2499526928
3.0196151217 11.1664973527 6.0983657058
3.3590601677 11.3743801985 5.6885125546
2.5417022638 11.2702095846 7.0776333366
2.5351374973 11.4845507258 14.8316358511
2.8032943680 11.4295030443 15.2987192992
3.3306429825 11.2691416214 15.9944152765
3.3858947781 10.6734700884 16.5102448133
3.4357411239 11.8636091264 6.0731770958
3.0734119922 11.9608145478 6.8621078801
3.4143531951 12.2971708142 6.6273767855
2.7249584892 12.1601198626 7.9524547888
2.5165076068 12.5335881300 9.2292551530
2.7793865892 12.5498018053 13.6270715067
3.1322637943 12.4744230774 14.1947180762
3.0340753152 11.9600519016 14.8739187653
3.3679735423 11.8387211018 15.4746072890
3.5258155474 12.7664172516 7.2366262990
3.1542163706 13.0366579198 8.5987177727
2.9508912965 13.2422469968 9.6767475743
2.9640592734 13.4580416227 10.4366315397
3.3122488249 13.7511840134 10.0533173977
2.9185044504 13.4287906655 11.2064938605
2.9685119828 13.3646138294 12.1278831661
3.0133621949 13.1618034813 12.8969388662
3.1129497035 12.9121080521 13.5402799744
3.4156029817 13.9204593980 10.7933850455
3.6196656745 13.9584493038 11.8140532766
3.6245297179 13.6663053750 12.7561202457
3.8204725023 4.2527993128 7.7932301103
4.0697733533 4.3173580874 6.9584294726
4.6706405538 3.8730312617 7.2933656909
4.3392837155 3.8278852846 8.5472817095
3.6030422059 4.1864437480 8.6255936175
4.4877809853 3.6669411557 9.5163526232
4.3487929379 3.7216803685 10.3558302294
4.3076523209 3.8317364001 11.3304736292
4.1636991928 4.0676816379 12.1287192984
3.8638229659 4.3840375866 12.5977109755
4.6280522766 4.2375945546 12.9088460895
4.1082477147 5.4514035313 4.6897535746
4.3346985772 5.7097187132 4.2491726519
4.5061633564 5.2463898873 4.4490043405
4.3151588759 4.9154415156 5.1559383967
3.6951365398 5.5108070709 5.1750573159
4.0864907117 4.5809752031 6.1949547618
4.0049321012 4.7897470423 13.3895907270
4.1913871706 5.2163112395 14.1924535870
3.8103892771 6.0976063152 4.5986157266
4.3727302600 6.4662006836 3.8635706555
3.9860296811 5.6372853272 14.6353294365
3.7949420077 6.1226918345 15.1319269315
3.5587760981 6.4709653572 15.3990864524
4.2086065357 6.5327765810 15.7715662147
3.7340321559 7.0790664115 4.3392748827
4.2009061232 7.5557613013 3.7294879810
3.8332736381 7.1970447130 16.2127903002
3.5197539274 7.7231508370 16.4474177681
4.2478464014 7.6889346367 16.7462434577
3.6852985537 8.1156280786 4.2582044634
4.1961649085 8.5974282307 3.6856013931
4.4443305456 8.4663557121 17.1753622456
3.6937012604 9.1531839976 4.3112714809
4.2270587840 9.6604249556 3.8157726443
4.3198426452 9.4210861572 17.2873861342
3.7092602347 10.1744227315 4.5523030582
4.2384800663 10.5248686702 4.1010433731
4.5048607176 10.2347695233 17.2494669085
3.9428139210 11.0258343086 4.7074186541
3.6850690004 11.4992655547 5.3600185322
4.1317566802 11.6658024119 4.9598348595
3.7575972567 11.1276860288 16.4941840191
4.0933903753 10.8077243914 16.8292822087
3.9404836718 12.0661315649 5.5733112058
3.7698594449 12.4370029222 6.2561475087
4.1378313708 12.4676502763 5.7688417161
3.5219986602 12.4336969073 14.7959767957
3.7528888226 12.3066281111 15.2388489784
4.0111110752 11.9896527021 15.8174158742
4.3561108826 11.4910328749 16.4457457321
4.3378034260 12.9519558125 6.1874363572
4.1458167971 13.3760940395 7.1203073722
4.6357177535 13.5330008302 6.6367218250
3.8895489235 13.6232695471 8.1148954135
3.5208313163 13.7177994462 9.2591316720
3.5663023933 13.3655744835 13.3669437015
3.8124878309 13.1517978497 13.9828789118
4.1831672203 12.8210337529 14.8045028943
4.4144062989 12.4713411276 15.4954558827
4.5583696055 13.8517576915 7.3368430155
4.4926856259 14.2046286310 8.1392226938
4.1357537834 14.2136041324 8.9604909253
4.6465428758 14.5429718769 8.6711592508
3.9288855111 14.2862964345 10.0416382281
4.0729766153 14.4366924482 11.1367588914
4.2789205965 14.4259785270 11.9098093904
4.4284769286 14.1664059836 12.6499574910
4.3655320627 13.6765755863 13.5546975870
4.6245545877 14.7345696780 9.4223821893
4.7807215969 15.0078402561 10.5599589960
4.7533488994 14.7940858705 11.5974140190
4.8357463328 4.2965387281 5.6223096324
5.0303764421 4.5253305004 4.8699587085
5.6190741408 4.1036844451 4.9966889119
5.4661399971 3.7254103508 6.1474188789
4.6029831908 4.1366176735 6.4360561575
5.4151037539 3.4717786418 7.1628214207
5.1688361564 3.4589619612 8.0539776811
5.0736930823 3.4101734723 9.0820819560
5.0566823916 3.3969660018 10.0773207292
5.0751816824 3.4757005825 11.0884130404
5.3129162560 3.6989061110 12.2966613528
5.3983377050 4.1105372697 13.1937441080
4.9876855074 5.4751986655 3.8612888546
4.8701755240 4.9105856843 4.4764164314
5.1262587854 4.5111077905 13.6601173711
4.9229687427 4.9773249925 14.2309895652
4.6985911796 5.3801351204 14.6890308129
5.4895936670 5.3126097299 14.9056693917
5.0462875853 6.3605607384 3.2542131525
5.6866474127 6.2708167316 2.7768551197
5.5327096152 5.6965825024 3.2235942140
4.8103208240 5.8510598469 15.2888853136
5.3900003034 6.3638118060 16.0230773686
5.2259775334 7.2133356616 2.7571734238
5.6781880323 7.6554607811 2.2631373997
5.9287937906 6.8759891922 2.3208132166
4.6717019254 7.1124254339 3.3064872523
4.8324786167 7.0244665924 16.4662554468
5.3022063119 7.6832482438 17.0845210597
5.2282861270 8.2468717427 2.5712194812
5.9130213186 8.5161637117 2.0437024095
4.6857719076 7.9749906972 3.1437599046
5.2505335423 8.3365187653 17.4901867336
5.0095387792 8.9489841258 17.5926641883
5.6228529765 8.6541561857 17.7498147320
5.3730610486 9.0134422630 2.4563393044
4.8083916467 9.0989535239 3.0639729789
5.3589591167 9.8024961626 2.6552796392
4.9900429137 9.6997241727 17.6020255199
5.6465048639 9.2530631020 17.8740007090
4.8267194548 10.3655561964 3.4084930072
5.5769735328 10.7526962771 2.8168119420
5.1094759764 10.2941375558 17.4979198511
5.6038831480 9.9750720930 17.7506644849
5.1970962663 11.3048084949 3.4693720415
5.6896669469 11.4341222876 3.0804339863
4.5625750866 11.3300181041 4.2179278158
5.5049900910 10.4611822306 17.5266846503
5.1092894729 10.9049659840 17.0947239161
5.5726610296 11.8175559320 3.4707694183
5.1461113280 11.9699373194 4.0545506808
5.7699827361 12.3036503433 3.8103988180
4.5846168723 12.2896710156 5.0544936497
5.3929003982 11.6781831170 16.5480051057
4.8834522389 12.1651786211 16.0064586434
5.3640981965 12.5488806133 4.4826113485
5.2099707608 13.0582021736 5.3089036185
4.9463288311 13.4242193890 6.0672439779
5.3224193508 13.5096392035 5.7850679952
4.5393631074 13.3445683739 14.3026434595
5.0343858708 13.1826452952 14.7797638876
5.1961532029 12.7294283456 15.4151813424
5.3960164091 13.9094268360 6.4460746753
5.0540534376 14.2982977230 7.5090477162
4.9364191860 14.5400753212 8.1587701160
5.4030739669 14.6435857354 7.8532161442
4.7711712088 14.5742656407 12.2352359280
5.1715646583 14.4714029113 12.6897004382
5.3907627076 14.0736590333 13.3954719046
5.2597608239 13.5678990143 14.2265360570
5.2589745218 14.8767410159 8.6298312650
5.2739602417 15.2756104699 9.6255923350
5.2091934612 15.4638370688 10.3213687877
5.4642123031 15.6252563817 10.0624250178
5.2849325235 15.4809067071 10.7856169654
5.4816533403 15.2652433886 11.3946097051
5.4108019590 14.8209603261 12.1580866849
5.4427062155 15.6792197159 10.5089887728
6.0421271633 3.2157484515 6.7142513205
6.3101854358 3.2931114232 5.9312912246
6.8950451987 2.8796435766 6.2750577194
6.4986285651 2.8605348081 7.1808795377
5.8831656296 3.1169276603 7.6336140681
6.5721927213 2.6518489100 8.0907981531
5.7818882558 3.0525424784 8.6178087335
6.4002343742 2.6237067039 9.1848881001
5.7204576956 3.0355253805 9.6531066794
6.3698806498 2.6403427557 10.2200071451
5.7373683853 3.0764861433 10.6815850968
6.4875340859 2.7445440549 11.2812099372
5.8089371293 3.2067095533 11.6307851928
6.3641794702 3.0515732172 12.0115170114
5.9799728042 3.3047516724 12.1908623468
6.5041173854 3.3585621064 12.6331880664
5.5583459210 4.6307874586 4.1928808498
6.1716436724 4.5592444580 3.6937726243
6.4453820425 4.1040301197 4.1425101959
6.4499019301 3.5717236382 5.0994784947
6.1280808666 3.8942403031 13.2351116144
5.8511526169 4.2921183420 13.7067013693
6.6563092671 4.2584637450 13.9446292614
5.8060869268 5.0613368427 3.4972349129
6.2403194812 5.4289346619 2.9246505261
6.3671803495 4.8081947781 3.2949435246
5.9685884511 4.7512584044 14.3508668450
6.4819291402 5.2363587161 15.1107803521
6.3593361124 6.1112223840 2.4204768371
5.9494792722 5.7651875026 15.5609195965
6.4838861305 6.2471270573 16.1551889464
6.3913364466 7.4316346615 1.8811116748
6.5202778894 6.5997379864 2.0765276624
5.9279175089 6.9103994141 16.6362089146
6.4429315646 7.5031366717 17.1571026647
6.7029889715 8.3460868333 1.5556084816
5.9637338414 8.1388264769 17.5497489493
6.3238984369 8.7615883959 17.8891289521
5.8028988279 9.4018562304 2.1854629200
6.6236177172 9.4992705111 1.7523130610
6.1137912003 9.1866243706 18.0311920437
6.0315535695 9.6047292091 17.9437601648
5.9988269217 10.1565430506 2.2677968444
6.7078313863 10.5767099680 2.0859517610
5.8306438684 10.3071935744 17.6468875656
6.2983525351 10.0399807363 17.7008497666
5.9680017840 10.6104575128 17.3829450624
6.5601227325 9.5124411716 17.9303559385
6.1606743121 10.8301776074 2.4263404630
6.0314505987 11.2657034478 2.7396635026
6.0489869624 11.2103866970 16.8966534909
6.2302768610 11.8911193299 3.1373685962
6.2417094386 12.4243722330 3.6289818774
6.0226586142 11.7176339378 16.5234484257
5.8606999923 12.1991145847 16.0428807528
6.2415187780 12.9182904020 4.3172566161
5.8636855956 13.5163455117 5.3923122469
6.5942265341 13.5083333057 4.9271435904
5.9465973215 12.6788603332 15.5307907677
5.9049798083 13.1075728354 14.9558907223
6.6057819222 13.9769826629 5.8061750837
6.1549366755 14.3084000183 6.5230246451
6.7144255188 14.3838861405 6.4606351527
5.7450872499 14.4748774931 7.1708242448
6.3137910469 14.1202833721 13.4313858650
5.9577166784 14.5187939852 12.8044318184
6.2552349432 13.6428910077 14.1402196694
6.4752124230 14.6038876411 7.0220304898
6.1371261109 14.8794851024 7.9135033653
5.9864549706 15.2920374480 8.8720411459
5.8343791718 15.6223620100 9.5656590669
6.4924283560 15.6094120009 9.1352027661
5.6908552498 15.7209917794 10.9722737212
6.1710983331 15.6240873672 11.4040714777
6.4797747461 15.0670197772 11.9514334733
6.1938307432 15.7730854350 9.5430386012
6.7872266105 15.7679771390 9.3081584022
5.7184084217 15.7898702300 10.2725539721
5.8101653481 15.8685085932 10.8711256049
6.0485376276 15.8405955019 11.1925388820
7.0882095326 2.2199466868 8.7774063311
7.2665752610 2.2586056020 8.0403803962
7.6603439790 1.9576982751 8.4030833163
7.7693647676 1.7437617265 9.2245255536
7.0167165226 2.1823629817 9.7439384154
7.6740368830 1.7599727325 10.3447680527
7.0029186378 2.2548805529 10.7000634204
7.5218130797 2.0156776473 11.0854139654
7.1565842507 2.3668004263 11.4053665333
7.7882473848 2.2073506851 11.6874034280
6.8665454305 3.1510492263 5.4820439120
7.1957874398 3.2378355893 4.9071152839
7.6238482195 2.8447958335 5.2890622331
7.8957269095 2.3737232712 6.1949830896
7.2626977782 2.4567506794 7.2126479897
7.1338972576 2.7682487105 12.0816106556
7.6090370997 3.2013334664 12.8686100259
6.6512381187 4.4336773468 3.4965294930
6.9281000605 4.7802017759 3.0332469795
7.2788993476 4.1640089204 3.4819448465
7.3693388522 3.5701140541 4.2201735441
7.1136307391 3.7469554259 13.4166131153
7.6888873144 4.1852789140 14.0776850157
7.0541343851 5.4719821679 2.4564346385
7.2030422657 4.7559562491 14.6966388017
7.2633472247 5.2379203609 15.3038346248
6.8660330425 6.1024606902 2.1395561789
7.2150472509 6.5202567107 1.7715249363
7.2395408312 5.8910115036 2.0786009921
6.9196099423 5.6637829991 15.6833427261
7.5871515178 6.0616910051 16.1500737410
7.1234474424 7.5238283398 1.4350673026
7.0181902034 6.8082439645 16.6868357454
7.5306968450 7.5357947551 17.1547531994
7.2528956381 8.1594068353 1.2376371722
7.8190905716 8.2784402714 1.0332101010
7.6313445654 7.6822506664 1.1415988223
6.8154642521 8.1179708226 17.5638670251
7.0227190324 8.6198297426 17.7650355960
7.2593462542 8.8671951783 1.2744446605
8.0822256411 9.1164009442 1.0635560882
6.4766352437 9.1431196236 18.0322970608
6.8534677710 9.0927697229 17.8948045030
7.4608443149 9.5919430213 1.3550663534
7.5832749990 10.3409624039 1.7111650949
7.0729086435 9.5858208345 17.6509982901
7.0119749925 10.4955961664 17.1301236575
6.6245378562 11.2975533366 2.5117942292
7.4516176976 11.1543154294 2.2404968984
6.6965073340 11.5810613497 16.4255397084
7.6375034595 11.0462460321 16.5267409356
7.4305357592 11.7191516501 16.0019459590
7.2773986025 11.8791167145 2.8387533024
6.8188914957 12.4259824279 3.4468708490
7.5177978249 12.3904835139 3.2699899756
6.7271649370 12.4447078260 15.5392311739
7.8223910130 12.1515611625 15.2886703627
7.2657669523 12.7383249063 14.9759677697
7.4985740625 12.8335764756 3.8642768339
7.0442890008 13.2823981701 4.4348469139
7.6503461646 13.2958950648 4.4260067042
6.7690012834 13.0916678912 14.7814262124
7.2360016763 13.0359539195 14.6459422368
7.1285866664 13.3606947949 14.2486775666
7.3713153783 13.6398346325 5.0085457366
7.5769884938 13.9587617807 5.7432769563
7.0542398837 14.5565456899 6.8560808580
7.4321169531 14.2845227364 6.4431916384
7.5735317844 14.5496478833 7.0956023367
6.9112545509 13.8291648666 13.6982031637
7.0084940763 14.3073521329 12.9220214296
7.1674093014 14.7928494245 7.5846728277
6.9843028047 15.2251564290 8.5712875414
7.1793397210 15.6001327187 9.2083051434
6.8305234179 15.6332978688 11.2983250406
7.4527029331 15.2885268437 11.1933415133
7.2640681134 15.7339259461 10.8763456778
7.5720092512 14.7086686871 12.0431456872
7.2735259000 15.7823670082 9.5445282344
7.0629726548 15.8887822722 10.8919322704
7.3441627655 15.8956112192 10.5359336137
7.2987693815 15.9668801055 10.4811835671
6.5314641304 15.8230537354 11.2471956264
8.2675001276 1.3644611792 9.8952410583
8.4638023417 1.3625026618 9.1759543811
8.9128154482 1.1370362680 9.6746210445
8.7327836677 1.1705002981 10.3936026905
8.2518529316 1.3929813519 10.5508655198
8.5904001193 1.3181291117 10.8950445467
8.3563306400 2.0254022609 6.5235074720
8.7164509760 1.9183818109 5.9653595705
8.7377278094 1.7793197662 6.5915740529
8.4932297422 1.8727964160 6.9512673727
7.8292782734 2.0395586824 7.7256127030
8.4124169969 1.6048926973 8.2686205201
8.1648085165 1.6857596575 11.1305497056
8.7228106605 1.9857951091 11.7921000651
7.7379014678 3.1357727735 4.5784547365
8.1539918877 3.2465507221 4.0991106959
8.3463392473 2.8453366735 4.5559253428
8.5664567761 2.3373372081 5.2141927155
8.0258097528 2.1159818922 7.0017273839
8.1700243230 2.6250075713 12.3450529676
8.6497288777 3.1339871535 12.9490426725
7.8973331388 4.6248287053 2.7391991809
8.2799696406 3.7138670690 3.4644251883
8.1518582076 3.6670308958 13.5090043166
8.6989538965 4.1271812974 14.0544228058
7.8329155666 5.5590088992 2.0290697505
8.5958696473 5.5327032957 1.7043580860
8.7280792810 4.8809471863 2.1561503425
8.3084146427 4.6134221209 14.6498686071
7.9788137516 5.1005422029 15.2348811403
7.6366492471 5.5047878803 15.6553991529
8.3288499042 5.5458240591 15.7426259483
8.1153874596 6.1781508028 1.5038254717
8.4460467500 6.6220693441 1.1667721058
8.9072185126 5.9842402304 1.3362910384
8.5730496256 6.0773803174 16.2227579815
7.7916864808 6.9831621352 1.2837248923
8.3712833906 7.4153887112 0.9868552217
8.0322757040 6.7006709055 16.6613155663
8.5520920575 7.2612796235 16.9265539834
8.6370325048 8.2620426851 0.8739664728
7.4539229234 8.2663182114 17.5243061474
8.2133348683 8.2187726289 17.2537952302
8.9147959442 8.9156512239 0.9209995762
7.4871644539 8.8689640014 17.6148912164
8.0442496458 9.3840196452 17.2284621592
8.0733820040 9.8747839342 1.3123967115
8.8515545275 9.6491443008 1.1807716883
8.1455424981 10.3126616059 16.8080373014
8.6823862663 10.3436827885 1.6196334426
8.3842314291 10.9782473031 2.1121236176
8.2131305409 10.7943235267 16.4880347669
8.2366233969 11.2695870533 16.0187912622
8.2386742840 11.5913430316 2.6314215357
7.9094555286 12.5011015504 3.4288037491
8.1167082403 12.1454764649 3.1313740435
8.5176435762 12.5052348486 3.7275348727
7.7365058317 12.8703073029 14.4860882162
8.6060349180 12.3192018682 14.5045741454
8.2872696625 12.9032501850 14.0147796932
8.7627323110 11.5918308304 15.2971641745
8.0446363922 13.4534061410 4.7933330694
8.4028448763 13.0504430958 4.4196559335
8.6180729379 13.3612306474 5.0173855309
7.7822043148 13.5194098039 13.5994836745
8.5186979192 13.1129983230 13.5824989699
8.6081515445 13.5071930378 13.0361483089
8.2641744966 13.6915491570 5.4495953590
8.3092375189 14.0062046153 6.3176189872
7.9204471419 14.6456591522 7.6163892264
8.3137488509 14.3380306470 7.2224314733
8.4634774027 14.5658198334 7.9687928222
8.0159415558 14.1076050665 12.6604816640
8.8630659099 13.9447954071 12.2046257659
8.2764440617 14.4313062241 11.9847305180
8.0018757838 14.8683126286 8.3709999936
7.6070439517 15.5999255848 9.7596443066
7.8088242170 15.2423446030 9.2126782932
7.5714331974 15.6415883171 10.4396633161
8.1763956293 15.1149816547 10.2506985868
8.1947991344 14.7904063531 11.3239103565
7.4419018249 15.8557885540 10.1106730614
9.3504956656 1.5678069869 5.7335471089
9.5932841303 1.6650764859 5.2596170680
9.9514566931 1.3897671495 5.6278100433
9.6831360850 1.3288290277 6.1233234964
9.0405056272 1.2195889390 8.8580663451
9.6479346112 1.0840289040 9.4121721135
9.3712015758 1.0845693019 10.2950023061
9.1019888784 1.2287118726 10.9210816649
8.7849704846 1.4878739923 11.2891393803
9.3519057226 1.5524206217 11.4318946613
9.0980618480 1.8766036720 5.3630003396
9.3815818971 2.0559767470 4.8755636526
9.1886481334 1.5370537504 6.3780336913
8.9848665821 1.5401939727 7.2716486916
8.3585018026 1.8403079293 7.4365834571
9.1672602234 1.3112402895 8.1261344445
9.6263199830 2.0460057358 11.8756631926
8.9556279045 3.0451726741 3.8864744001
9.0152612762 2.5224817179 4.5071192477
9.1727125522 2.5754105260 12.3831198992
9.6183014122 3.1349266637 12.8616129935
9.0738544575 4.0275505627 2.7861875962
9.0724276233 3.4804689576 3.3261949315
9.1709594873 3.6482117385 13.4620589299
9.6390289975 4.1518794939 13.9380117841
9.4515245437 5.1987173868 1.6997527816
9.5103030551 4.4987073883 2.2009850151
9.1920260864 4.5296143294 14.4731666830
9.0111167906 5.0627412647 15.1397527951
9.0679960026 5.6179279964 15.7798509267
9.1383578447 6.6406327790 1.0244706864
9.7779020168 5.8984324674 1.2434904084
9.5037663505 6.1280156758 16.1237929656
8.8401556204 6.5903980736 16.5706219011
9.4723385870 6.9682355131 16.6319275668
9.3314524267 7.4309421822 0.8504965468
9.0711227082 7.7343592674 16.9595093987
9.5506473242 8.2480931987 0.8428288017
9.0508771530 8.5783907038 16.9818841252
9.6911423437 9.0586454148 1.0312021606
9.0137594680 9.6098691237 16.7525842720
9.7113064349 9.7237864134 1.3911735821
9.1545539287 10.0605963627 1.4265611310
9.5214092263 10.2688809474 1.7589534692
8.7695669032 10.4932869565 16.4042165640
9.2545053049 10.0421966384 16.4573449298
9.3689166285 10.3872573029 16.1270291644
8.9829899273 11.3312078485 2.5848293091
9.4628321487 10.7859541289 2.2923332305
9.5846972353 11.2754289469 2.8628521270
9.0038604259 10.9524616694 15.8598347712
9.4352119783 10.7193886705 15.7866585125
9.4378435585 11.0636385220 15.3913920056
9.2222335978 11.7977863804 3.2924605421
9.3402697034 12.2942301075 3.9996847029
8.7809522870 12.7117408089 13.8721443838
9.3553317573 12.3293392135 13.9019250366
9.1169867485 12.9193756494 13.3712798283
9.5041483067 11.6338655660 14.6403966652
9.1030131947 12.6761872077 4.3514555923
8.9669566641 13.4440224221 5.5058342054
9.4336731358 12.9507637063 5.1782197767
9.4704574363 13.3336808051 5.9163936585
9.3563461866 13.3036129172 12.7102767645
9.0169612213 13.6716176669 6.1393994341
9.2474240306 13.8885800682 7.1350164661
8.7508775587 14.6135650327 8.5406752918
9.1570461116 14.2613624184 8.1624901730
9.2069148380 14.4583567769 8.9519752778
8.8712904433 14.5734991701 10.7816987596
9.4764473983 14.2879358483 10.2058763171
8.9489974761 14.6766801100 10.0180023127
8.7482484938 14.3863606307 11.5356393094
9.5080700986 13.9921182573 11.2523175643
9.5548072786 13.6059212627 12.0695422375
8.6570234289 14.8042545447 9.2673912898
10.2492302980 1.7452116253 4.9759006968
10.6030659787 1.3378852797 5.7174641624
10.2330355835 1.2225979676 6.3179021016
9.7145313384 1.2877839850 6.8325303929
10.4088745740 1.2387547558 7.3824141777
9.7035625616 1.2316291093 7.7709109879
10.1916004911 1.1953564428 8.6167876479
9.5788969216 1.1474960274 8.5438819231
10.2534625516 1.2080507553 9.5917751984
10.0037436680 1.1786209221 10.2592346485
9.7193011661 1.2781152617 10.9195399825
9.9968550042 1.6877594602 11.3934443011
9.7911109025 2.4306619316 4.2196506235
10.4329133695 2.5776811510 3.8993959400
10.5174066955 2.1638672608 4.3750681770
10.1475176173 2.0722798263 11.7099566917
9.8877018755 3.2110362763 3.3534361778
10.6595920345 3.4996582442 2.9415081201
10.9732783658 2.9488990676 3.6071308472
10.1711841874 2.6347068558 12.1641837763
10.2089863751 3.1716157100 12.7272532579
10.0447124710 3.9413011207 2.5694343932
10.2476035359 4.5650126217 2.0201670928
10.8632057632 4.0293285902 2.4354508156
10.2015728405 3.6954842656 13.2338587818
10.2344956727 4.1973608787 13.7972920724
10.4269615732 5.2320773667 1.5623771864
10.2176407555 4.7491386297 14.3767892652
9.8413834394 5.4515326857 15.3819985643
10.6193682785 5.3780214514 14.9385299323
10.0470791012 6.6239613755 0.9680971924
10.6747934001 5.9029552187 1.2224851697
10.5273641896 5.9916108411 15.6028281833
10.1160007824 6.5264681516 16.2313439035
10.7962256795 6.7904676841 15.9941766395
10.2957689721 7.4165585207 0.8693977441
10.1919210533 7.0631514354 16.4467998618
9.8571976824 7.8389510310 16.6716618959
10.5333389441 8.2723856952 0.9915355997
9.7783457763 8.8540483740 16.6244315938
10.3715832060 8.9809659153 1.1563708787
10.0674044517 9.3232582772 1.2186304697
10.5311113575 9.3713045675 1.5060995113
9.7237770686 9.6779784794 16.3452990807
10.1394845651 9.1054958827 16.3629478919
10.2998342483 9.4850948718 16.0151415304
9.9071853768 10.4057076920 2.1077412016
10.2953048794 9.9867505523 1.9661404909
10.3139349354 10.4319930464 2.4929948966
9.9079607242 10.3299015804 15.7163761236
10.4004354241 9.8998288031 15.6520802665
10.4384076410 10.3056176725 15.2517786120
9.8579457568 11.3792187645 3.2116895432
10.3040135418 10.8990436983 3.0869907910
10.1982224381 11.4252640698 3.6780300115
10.0127163142 10.9134972969 15.0404155750
10.4323845978 10.7285821023 14.8505378618
10.3047744231 11.1744396623 14.4700674454
9.7651107906 12.4123161084 4.6282380875
9.9911390925 11.9227300767 4.1660595453
10.0418494367 12.4859814685 5.1266480567
10.5315548224 11.9785720876 5.0428893746
10.3303934845 12.5062428466 5.6684112922
10.0271244257 11.8260457074 13.9583255752
10.0509266248 12.4878245203 13.1227621700
9.7651801381 13.4308509071 6.6557653177
10.0794601932 12.9838474709 6.1809834562
10.0369360603 13.5204692947 7.4025432209
10.5725791874 12.9854405224 7.1728712887
10.4657432492 13.3616921589 7.9164584516
10.1085510292 13.4187398354 11.6874292370
10.7098018870 13.1444501660 11.1724906478
10.2285083543 13.5982568849 11.0132760654
9.9482980605 13.1563117753 12.3599141352
10.6632624185 12.7424645721 12.1133122922
9.9373182035 13.7790679228 8.0987294855
9.2938893104 14.4738558629 9.5414244056
9.8549157600 14.0241623613 9.2235189041
10.0939839627 13.8264714645 10.3348714964
10.9412764921 1.5584287265 5.3387821252
11.1251161746 1.4330771010 5.8562479054
10.9332198713 1.3336330362 6.5427339914
11.0685015995 1.4925985796 7.4780407386
11.3649184971 1.6314898861 6.9949547758
10.8256801818 1.4801399070 8.3392389651
10.6921191492 1.4973537797 9.3382280606
10.5141690436 1.5037108360 10.2505533860
10.2269558577 1.4678390393 10.8546921452
10.9340017137 2.3976556427 4.1873327421
11.0814218774 1.9966238129 4.8360126398
11.4403945884 1.8368403486 7.5498857489
11.6343300834 2.2539935729 7.9771957871
11.2971456174 1.8759363945 8.1930023759
11.1624924181 1.9560646415 9.0871997713
10.9898907608 2.0164586626 10.0871364176
10.5929998386 2.0792281057 11.1663210966
11.5021954357 3.5934566039 3.0406137752
11.7425905580 3.1349979172 3.7510647064
11.5678413496 2.6218659264 4.4626672671
11.5926628765 2.4717323073 8.7777125338
11.4694560772 2.5955412623 9.7755882349
11.2679568617 2.6998586189 10.7932939367
10.9731176238 2.9094607626 11.7325690772
10.6870101562 3.2720980079 12.5030807337
11.2368758652 3.5011809555 12.1860859389
11.1520938109 4.6928524234 1.9667538576
11.4989461709 4.1660238884 2.4372079231
11.0198478202 3.8334853173 12.8240734613
10.7574900103 4.2282365479 13.4954882733
11.2543028943 4.2295476617 13.0645755016
11.1581450421 5.3567569892 1.5460149322
11.3744652332 4.7429545182 13.5226022613
11.0621037548 5.1536727093 14.3569653718
11.6143767415 5.3048307961 14.0516776974
10.9609017582 6.6112930461 1.0409291868
11.4747462441 5.9178863448 1.3753358357
11.3497749944 5.7042550801 14.7654468107
11.3421459134 6.3256071948 15.3908528039
11.4357992720 6.8961295015 15.6292062580
11.2152931009 7.3623491104 1.0331058753
10.5589504729 7.5166745275 16.3121989738
11.1965618898 7.6725897978 15.8460778740
11.4628394466 8.0120002951 1.2395335529
10.5334775775 8.5216170445 16.2050856591
11.1719745102 8.5748211389 15.7121526221
11.0034032170 8.7279171931 1.3332539076
11.1885445183 9.0968239080 1.7381693873
10.8465854694 9.4362768543 15.5372067492
11.3262523545 8.9520233417 15.4291675405
11.3975989564 9.4231947622 15.0328752846
10.9496920229 9.5441022373 2.0079982130
10.7279041064 10.4200129438 2.8999325756
11.0047928051 9.9327757169 2.6180696485
11.0945083690 10.3433266661 3.3499538341
10.9184955684 10.3663981338 14.7047422060
11.4487309365 9.9210753956 14.6071407255
11.4554389689 10.4172377258 14.1355771245
10.6789161784 11.4801234145 4.4186206538
10.8876775005 10.9345601106 3.9212359945
10.9559610221 11.4887619762 4.9112365508
11.2122642638 11.0466815970 4.7094974882
11.1986100518 11.4159680561 5.3776039641
10.8551235971 11.3477995469 13.7457728322
11.4647147235 10.9033408241 13.6564550291
11.4837559183 11.3213757510 13.1811571975
10.7351715027 12.5260859745 6.4791227466
10.9687979504 11.9886970040 5.9484832506
10.9841322797 12.5150673221 7.0024444281
11.2365374242 12.0712459122 6.7666395969
11.2160900247 12.4071323887 7.4793904345
11.0059264136 12.0038464858 12.8382805861
11.4900991061 11.7287879011 12.7006963959
11.4209772017 12.0837531183 12.2043102338
10.5617466710 13.4403679045 8.7095491275
10.9693346193 12.9259812887 8.1371236826
10.6327814973 13.4498002870 9.7049199777
11.1554620451 12.9050937027 9.1061910823
10.6096044805 13.4171623621 10.5144862544
11.1942779314 12.8725948244 10.2652412624
11.3316090228 12.5245634372 11.3303262110
11.4214340342 1.7866517885 5.5906573040
11.4659527029 1.6945180797 6.3527792450
11.6773924833 2.2508826838 5.2619696687
11.9041117829 2.3190068816 6.1604246037
11.7502771261 2.1886592229 7.1784280240
11.9228506119 3.4223264319 3.4453449567
12.1484045936 3.4324481953 3.8191066389
12.1671735991 3.2125160391 4.4705174423
12.1614305187 2.8820886573 5.4443293663
12.3122275957 2.9676452905 6.3663471255
12.4968966561 3.4222831540 6.9392218912
12.1950385705 2.8928010491 7.0912050982
12.0467938194 3.0260913182 8.2265317017
11.9067866714 3.1943359013 9.4234496464
11.7680576645 3.3099050742 10.4592259211
11.5435987462 3.4232708265 11.4554510951
11.7974361944 4.5809604044 2.2649386910
12.0075169366 4.2302608054 2.7932243913
12.1594316901 3.8248080233 3.4140718099
12.4625089007 3.6213921946 7.7254887380
12.4343903707 3.8414590262 8.4943270933
12.5925672431 4.3450795473 9.0099903758
12.3006795308 3.8174424599 9.1761122468
12.2030247879 3.9328119122 10.1254452463
12.0497027703 4.0485676920 11.1631081025
11.6721920557 4.1796414729 12.3625516243
11.8355481378 5.2592074355 1.9213195892
12.2117839883 4.8576484160 2.5303773066
12.5743805036 4.5197529034 9.7676664330
12.5320085906 4.6770024322 10.7416163284
12.3842788817 4.8174067796 11.8118511806
12.1306698885 4.9877944162 12.8258665813
11.9750140316 5.2500160972 13.5349655024
12.4117432393 5.5365092920 13.2374819914
11.7501631268 6.6250110126 1.2960145772
12.0700535941 6.0131936797 1.7132182557
12.1359024450 5.7892381482 14.0090445406
11.9399322020 6.2556573429 14.7848401512
11.8090789852 6.6804196312 15.2470155486
12.2603562049 6.8990987473 14.8053460592
11.9370403139 7.3227310843 1.3472843576
11.8420644899 7.3402408998 15.3252760561
12.3411266109 7.7811966716 14.7775326145
12.0159101185 7.8615468767 1.5276661572
11.7064878475 8.5245181611 1.7415374151
12.0630292102 8.6830118625 2.4661265519
12.2582910941 8.0287142457 2.0156280894
12.4229889481 8.1896182995 2.5912099283
11.7274579658 8.4426433254 15.2220189351
12.2798296005 8.5911931163 14.6611869109
11.5095046919 9.2199146438 2.2898352225
12.3044055963 8.6547403613 3.0579196374
11.7948988348 9.4612621960 3.2899636293
12.0564560181 9.6492968686 4.5083507468
12.3658962051 8.8200884656 3.8222867224
12.2217896549 9.7767101600 5.5662274505
12.4760176245 8.9311503146 4.8183259822
12.3798621673 9.8664429606 6.5031359626
12.5682968825 9.0739854351 5.8214970682
12.6337088458 9.3164937586 6.6433234714
11.9268298238 9.4453332412 14.4844143797
12.4038077110 8.9627338424 14.3666269777
12.4717149195 9.4313546910 13.9605593558
11.5144438332 10.3403826236 4.1954583134
11.7158145238 10.5970145736 5.2964367500
11.9967423547 10.6204655192 6.3931914835
12.5380311698 9.8650091290 7.1497458445
12.2686251135 10.6034688201 7.4063801116
12.5792380668 10.1525032010 7.7321274621
12.0013171988 10.4100287114 13.5856730329
12.5258264003 9.9245039930 13.5264260190
12.5406360586 10.3963210824 13.0328095463
11.5167676380 11.3744178718 6.2057767049
11.7297052333 11.5516164681 7.3142052602
12.4686325632 10.6831859613 8.2206050785
12.0996519894 11.4434536026 8.4838828550
12.2511180260 11.6168262937 9.6054860515
12.5621657971 10.9394373171 9.0308294054
12.6403749910 11.1518271054 9.8171091523
12.0073914806 11.2752978554 12.6054069803
12.5454890776 10.8404950824 12.5202159460
12.5231186357 11.1647539975 11.9576145138
11.5275344243 12.2740845862 8.3371241243
11.7283008156 12.2428537950 9.4004021797
12.4381687241 11.5408377024 10.3144967129
11.9314190399 12.0820129895 10.5280239223
11.9607797015 11.8399115860 11.6251628572
12.4656092537 11.4881869086 11.0695839735
12.5232661823 3.9561500103 4.2851079214
12.5706885864 3.6866761356 5.3156764253
12.5697305500 3.5490153917 6.2586539893
12.5575443125 4.7664089913 3.4487151818
12.8148678010 4.7735723928 4.5120383742
12.8358011758 4.5289024128 5.3082818233
12.8294528568 4.3773108920 6.2692183781
12.7503240829 4.2305303184 7.2787925718
12.7032431994 4.3900685459 8.3317309986
12.5024541099 5.7736341283 2.5589739539
12.8129690619 5.7474896348 3.5631788988
12.9025037385 5.5292961352 4.3717356328
12.9746559138 5.4219114284 5.3192149973
12.9966277989 5.3052618743 6.2680397272
12.9873639007 5.1967360749 7.2159322317
12.9667457525 5.1839697040 8.1915942591
12.8941105981 5.1164577321 9.2552283220
12.8623532775 5.1733823674 10.2535186091
13.0011116966 5.5742505745 11.2805319271
12.7118684814 5.5254871910 12.4613355002
12.3541635587 6.7376761329 1.8655841110
12.6894588004 6.7390757787 2.6328135269
12.8337882914 6.5198144966 3.3785662484
12.9430496848 6.4297485212 4.3114510976
13.0053718797 6.3608305928 5.2844084059
13.0606945467 6.2887966708 6.2752101657
13.1104208759 6.1631730054 7.2286408910
13.1254215641 5.9545183289 7.9965210909
13.2278791928 6.1741062238 8.9884582804
13.2356826801 5.9546538138 10.1610277152
13.4159099409 6.1975337853 10.9412927319
13.4302373862 6.2207172570 11.5299649759
13.6400950928 6.6265157822 11.9560302276
13.2257767281 6.1136847668 12.2281658478
12.8807899922 6.2571157332 13.3142272953
12.4664232525 6.4401695653 14.2427224883
12.3158824842 7.4674006067 1.7435089025
12.5663074131 7.4975590454 2.4128933112
12.7731888600 7.3608939159 3.2788539494
12.8728987855 7.3066656587 4.2072703536
12.9393689680 7.3260986939 5.2324568180
13.0233150708 7.3199506377 6.2798425938
13.1432597422 7.2098402510 7.2797065783
13.2793383396 6.9642864520 8.2798094324
13.4681682212 7.0913762931 9.1462567635
13.5323139535 6.7990576327 9.8137809798
13.5770396813 6.5979050211 10.5087209751
13.4426857455 6.6146960360 12.7001640224
13.3965109375 7.0704665599 13.3135552858
13.3479370061 7.8090489892 13.7042781445
12.8424130732 7.2059743936 14.0980772661
12.5825221123 8.1028523919 3.1843098865
12.6876498042 8.1145014660 4.0612515777
12.7624841348 8.1894968227 5.0735932328
12.8421149883 8.4168071295 6.2674004673
13.0519036716 8.3021349215 7.3403547174
13.2899235578 8.0938975290 8.2567004418
13.5316304402 7.8369564934 9.0323264292
12.7981571691 8.4432488535 14.1402215912
13.3212358553 8.5269196277 13.6589345060
12.8049175476 9.3703733778 7.4414967826
13.1489191664 9.2602220564 8.5156580719
13.5161522533 8.7513469064 9.1267133400
13.0045742901 9.4247394734 13.4135395695
13.5077055930 8.8633711397 13.3467076074
13.5038076885 9.4804471681 12.8820829878
12.7805369983 10.1578648275 8.4248362463
13.4379233095 9.5184762586 9.4582842645
13.0567937738 10.3497445494 9.6002516674
13.2816403555 10.5190491040 10.7172792844
13.6157656853 9.8360552677 10.3232315819
13.5796859534 10.2510521622 11.0656331132
13.0485126981 10.3491862876 12.4227347093
13.6084172419 9.9865185411 12.1282639334
13.3790886195 10.4226561147 11.7994947391
12.8320819187 11.0424876289 10.4988894866
13.4095843066 10.5012121695 11.3312725568
13.0154499403 10.8388679621 11.4171373087
13.6881858460 6.6752554140 11.1511521468
13.6745369274 7.5157354870 9.6380766050
13.8403866955 7.3336550774 10.4452651156
13.9467982183 7.1004891564 11.4631113468
13.7809158471 7.1332681101 12.5463689099
14.0252454376 7.1724719136 11.8103466470
13.6759684935 7.5902479508 13.2655078524
13.7961176854 7.8940677992 13.1275638755
13.8141900530 8.3558111681 9.8170101308
13.9898618298 8.0110921461 10.3259872491
14.0466103892 7.4516948060 10.8991714851
14.0922499616 7.2618901401 11.3914215549
13.6433655953 8.2110495696 13.4189671479
13.7228558409 8.7691119726 13.1200115572
13.6967604576 9.1661372564 9.7609066282
13.9592460955 8.7789504834 10.1880838466
13.8579172348 9.1553000227 10.1184496494
13.8680923577 9.4623974642 10.4970460502
13.7372411714 9.5100187164 12.5949358649
13.5997024717 10.2549502335 11.5550185144
13.7445541393 9.9595809128 11.3016947858
13.7795908721 9.8255171161 12.0549734948
3 2 1 0
3 4 3 0
3 0 3 2
3 6 5 4
3 4 5 3
3 6 7 5
3 10 9 8
3 12 11 8
3 8 11 10
3 11 12 1
3 12 0 1
3 12 13 0
3 0 14 4
3 0 13 14
3 4 15 6
3 4 14 15
3 7 6 16
3 6 17 16
3 6 15 17
3 17 18 16
3 8 9 19
3 19 9 20
3 8 21 12
3 8 19 21
3 12 22 13
3 12 21 22
3 13 23 14
3 13 22 23
3 14 24 15
3 14 23 24
3 15 25 17
3 15 24 25
3 18 17 26
3 17 27 26
3 17 25 27
3 27 28 26
3 19 20 29
3 29 20 30
3 19 31 21
3 19 29 31
3 21 32 22
3 21 31 32
3 22 33 23
3 22 32 33
3 23 34 24
3 23 33 34
3 24 35 25
3 24 34 35
3 25 36 27
3 25 35 36
3 28 27 37
3 37 27 36
3 30 38 29
3 29 38 31
3 31 38 39
3 41 40 39
3 40 31 39
3 40 32 31
3 32 42 33
3 32 40 42
3 33 43 34
3 33 42 43
3 34 44 35
3 34 43 44
3 46 36 45
3 36 44 45
3 36 35 44
3 36 46 37
3 41 47 40
3 40 47 42
3 42 47 48
3 42 48 43
3 43 48 49
3 43 49 44
3 44 49 50
3 44 50 45
3 53 52 51
3 55 54 51
3 51 54 53
3 57 56 55
3 55 56 54
3 59 58 57
3 57 58 56
3 61 60 59
3 59 60 58
3 61 62 60
3 65 64 63
3 67 66 63
3 63 66 65
3 66 67 52
3 67 51 52
3 67 68 51
3 51 69 55
3 51 68 69
3 69 1 2
3 57 69 2
3 55 69 57
3 57 2 3
3 57 3 59
3 59 3 5
3 59 5 61
3 71 70 7
3 7 70 5
3 70 62 5
3 62 61 5
3 71 72 70
3 63 64 73
3 73 64 74
3 63 75 67
3 63 73 75
3 75 9 10
3 68 75 10
3 67 75 68
3 68 10 11
3 68 11 69
3 69 11 1
3 16 71 7
3 77 76 18
3 18 76 16
3 76 72 16
3 72 71 16
3 77 78 76
3 73 74 79
3 79 74 80
3 73 81 75
3 73 79 81
3 81 20 9
3 81 9 75
3 26 77 18
3 83 82 28
3 28 82 26
3 82 78 26
3 78 77 26
3 83 84 82
3 79 80 85
3 85 80 86
3 79 87 81
3 79 85 87
3 87 30 20
3 87 20 81
3 37 88 83
3 37 83 28
3 84 83 89
3 89 83 88
3 86 90 85
3 92 91 90
3 91 85 90
3 91 87 85
3 93 38 30
3 87 93 30
3 91 93 87
3 94 39 38
3 94 38 93
3 94 41 39
3 45 95 46
3 88 37 46
3 95 88 46
3 96 88 95
3 89 88 97
3 97 88 96
3 92 98 91
3 100 99 98
3 99 91 98
3 99 93 91
3 93 101 94
3 93 99 101
3 102 47 41
3 94 102 41
3 101 102 94
3 103 48 47
3 103 47 102
3 104 49 48
3 104 48 103
3 105 50 49
3 105 49 104
3 105 106 50
3 50 106 45
3 106 107 45
3 107 95 45
3 95 107 96
3 96 107 108
3 96 108 97
3 100 109 99
3 99 109 101
3 101 109 110
3 112 111 110
3 111 101 110
3 111 102 101
3 102 113 103
3 102 111 113
3 103 114 104
3 103 113 114
3 116 105 115
3 105 114 115
3 105 104 114
3 105 116 106
3 112 117 111
3 111 117 113
3 113 117 118
3 113 118 114
3 114 118 119
3 114 119 115
3 122 121 120
3 124 123 120
3 120 123 122
3 126 125 124
3 124 125 123
3 126 127 125
3 130 129 128
3 132 131 128
3 128 131 130
3 52 53 132
3 53 131 132
3 53 133 131
3 54 120 121
3 133 54 121
3 53 54 133
3 120 54 56
3 120 56 124
3 124 56 58
3 124 58 126
3 134 127 126
3 58 134 126
3 60 134 58
3 136 135 62
3 135 60 62
3 135 134 60
3 136 137 135
3 140 139 138
3 140 138 129
3 129 138 128
3 138 64 128
3 64 65 128
3 128 65 66
3 128 66 132
3 132 66 52
3 70 136 62
3 142 141 72
3 72 141 70
3 141 137 70
3 137 136 70
3 142 143 141
3 138 139 144
3 144 139 145
3 144 74 64
3 144 64 138
3 76 142 72
3 147 146 78
3 78 146 76
3 146 143 76
3 143 142 76
3 147 148 146
3 144 145 149
3 149 145 150
3 149 80 74
3 149 74 144
3 82 147 78
3 152 151 84
3 84 151 82
3 151 148 82
3 148 147 82
3 152 153 151
3 149 150 154
3 154 150 155
3 154 86 80
3 154 80 149
3 89 156 152
3 89 152 84
3 153 152 157
3 157 152 156
3 154 155 158
3 158 155 159
3 160 90 86
3 154 160 86
3 158 160 154
3 160 92 90
3 97 161 156
3 97 156 89
3 157 156 162
3 162 156 161
3 159 163 158
3 165 164 163
3 164 158 163
3 164 160 158
3 166 98 92
3 160 166 92
3 164 166 160
3 166 100 98
3 106 167 107
3 168 108 107
3 168 107 167
3 168 169 108
3 108 169 97
3 169 170 97
3 170 161 97
3 161 170 162
3 165 171 164
3 173 172 171
3 172 164 171
3 172 166 164
3 174 109 100
3 166 174 100
3 172 174 166
3 175 110 109
3 175 109 174
3 175 112 110
3 115 176 116
3 176 177 116
3 116 177 106
3 177 178 106
3 178 167 106
3 167 178 168
3 168 178 179
3 168 179 169
3 173 180 172
3 172 180 174
3 174 180 181
3 174 181 175
3 175 181 182
3 182 184 183
3 182 183 117
3 175 182 117
3 112 175 117
3 185 118 117
3 185 117 183
3 186 119 118
3 186 118 185
3 186 187 119
3 119 187 115
3 187 188 115
3 188 176 115
3 176 188 177
3 184 189 183
3 183 189 185
3 185 189 190
3 185 190 186
3 186 190 191
3 186 191 187
3 194 193 192
3 196 195 192
3 192 195 194
3 121 122 196
3 122 195 196
3 122 197 195
3 198 122 123
3 198 197 122
3 199 123 125
3 199 198 123
3 201 200 127
3 200 125 127
3 200 199 125
3 201 202 200
3 205 204 203
3 207 206 203
3 203 206 205
3 129 130 207
3 130 206 207
3 130 208 206
3 131 192 193
3 208 131 193
3 130 131 208
3 192 131 133
3 192 133 196
3 196 133 121
3 134 201 127
3 209 202 201
3 134 209 201
3 135 209 134
3 135 137 209
3 209 137 210
3 203 204 211
3 211 204 212
3 211 139 140
3 207 211 140
3 203 211 207
3 207 140 129
3 213 210 137
3 213 137 141
3 215 214 143
3 214 141 143
3 214 213 141
3 215 216 214
3 211 212 217
3 217 212 218
3 217 145 139
3 217 139 211
3 146 215 143
3 220 219 148
3 148 219 146
3 219 216 146
3 216 215 146
3 220 221 219
3 217 218 222
3 222 218 223
3 222 150 145
3 222 145 217
3 151 220 148
3 151 153 220
3 153 221 220
3 153 224 221
3 222 223 225
3 225 223 226
3 225 155 150
3 225 150 222
3 157 224 153
3 157 227 224
3 225 226 228
3 228 226 229
3 228 159 155
3 228 155 225
3 162 227 157
3 162 230 227
3 229 231 228
3 231 233 232
3 231 232 163
3 228 231 163
3 159 228 163
3 232 165 163
3 169 234 170
3 234 235 170
3 235 162 170
3 235 230 162
3 233 236 232
3 236 238 237
3 236 237 171
3 232 236 171
3 165 232 171
3 237 173 171
3 177 239 178
3 240 179 178
3 240 178 239
3 240 241 179
3 179 241 169
3 241 242 169
3 242 234 169
3 234 242 235
3 238 243 237
3 243 245 244
3 243 244 180
3 237 243 180
3 173 237 180
3 246 181 180
3 246 180 244
3 247 182 181
3 247 181 246
3 247 184 182
3 187 248 188
3 248 249 188
3 188 249 177
3 249 250 177
3 250 239 177
3 239 250 240
3 240 250 251
3 240 251 241
3 245 252 244
3 244 252 246
3 246 252 253
3 255 254 253
3 254 246 253
3 254 247 246
3 256 189 184
3 247 256 184
3 254 256 247
3 257 190 189
3 257 189 256
3 190 257 258
3 259 190 258
3 191 190 259
3 187 191 248
3 191 260 248
3 191 259 260
3 248 260 249
3 255 261 254
3 254 261 256
3 256 261 262
3 256 262 257
3 257 262 263
3 257 263 258
3 266 265 264
3 268 267 264
3 264 267 266
3 193 194 268
3 194 267 268
3 194 269 267
3 270 194 195
3 270 269 194
3 271 195 197
3 271 270 195
3 272 197 198
3 272 271 197
3 273 198 199
3 273 272 198
3 274 199 200
3 274 273 199
3 200 202 274
3 274 202 275
3 277 276 205
3 205 276 204
3 206 264 265
3 277 206 265
3 205 206 277
3 264 206 208
3 264 208 268
3 268 208 193
3 278 275 202
3 278 202 209
3 280 279 210
3 279 209 210
3 279 278 209
3 280 281 279
3 284 283 282
3 276 284 282
3 212 276 282
3 204 276 212
3 213 280 210
3 285 281 280
3 213 285 280
3 214 285 213
3 214 216 285
3 285 216 286
3 289 288 287
3 289 287 283
3 287 282 283
3 287 290 282
3 290 218 212
3 290 212 282
3 291 286 216
3 291 216 219
3 219 221 291
3 291 221 292
3 287 288 293
3 293 288 294
3 287 295 290
3 287 293 295
3 295 223 218
3 295 218 290
3 224 297 296
3 292 224 296
3 221 224 292
3 297 298 296
3 294 299 293
3 301 300 299
3 300 293 299
3 300 295 293
3 300 226 223
3 300 223 295
3 227 302 297
3 227 297 224
3 298 297 303
3 303 297 302
3 300 301 304
3 304 301 305
3 304 229 226
3 304 226 300
3 230 306 302
3 230 302 227
3 303 302 307
3 307 302 306
3 304 305 308
3 308 305 309
3 310 231 229
3 304 310 229
3 308 310 304
3 310 233 231
3 312 311 306
3 230 312 306
3 235 312 230
3 306 311 307
3 309 313 308
3 315 314 313
3 314 308 313
3 314 310 308
3 316 236 233
3 310 316 233
3 314 316 310
3 316 238 236
3 318 317 242
3 318 242 241
3 235 242 312
3 312 242 317
3 315 319 314
3 314 319 316
3 316 319 320
3 320 322 321
3 320 321 243
3 316 320 243
3 238 316 243
3 321 245 243
3 249 323 250
3 250 323 324
3 325 250 324
3 251 250 325
3 241 251 318
3 318 251 325
3 322 326 321
3 321 326 245
3 326 252 245
3 326 327 252
3 327 329 328
3 253 327 328
3 252 327 253
3 328 255 253
3 258 330 259
3 259 330 331
3 332 259 331
3 260 259 332
3 249 260 323
3 260 333 323
3 260 332 333
3 323 333 324
3 329 334 328
3 328 334 255
3 334 261 255
3 334 335 261
3 335 337 336
3 262 335 336
3 261 335 262
3 262 336 338
3 339 262 338
3 263 262 339
3 258 263 330
3 263 340 330
3 263 339 340
3 330 340 331
3 337 341 336
3 336 341 338
3 344 343 342
3 346 345 342
3 342 345 344
3 348 347 346
3 346 347 345
3 350 349 348
3 348 349 347
3 352 351 350
3 350 351 349
3 354 353 352
3 352 353 351
3 356 355 354
3 354 355 353
3 356 357 355
3 360 359 358
3 265 266 358
3 266 360 358
3 266 361 360
3 267 342 343
3 361 267 343
3 266 267 361
3 342 267 269
3 342 269 346
3 346 269 270
3 346 270 348
3 348 270 271
3 348 271 350
3 350 271 272
3 350 272 352
3 352 272 273
3 352 273 354
3 354 273 274
3 354 274 356
3 363 362 275
3 275 362 274
3 362 357 274
3 357 356 274
3 363 364 362
3 367 366 365
3 367 365 359
3 359 365 358
3 365 276 358
3 276 277 358
3 358 277 265
3 278 363 275
3 368 364 363
3 278 368 363
3 279 368 278
3 279 281 368
3 368 281 369
3 365 366 284
3 366 283 284
3 366 370 283
3 365 284 276
3 371 369 281
3 371 281 285
3 285 286 371
3 371 286 372
3 374 373 289
3 289 373 288
3 289 283 370
3 289 370 374
3 375 372 286
3 375 286 291
3 291 292 375
3 375 292 376
3 373 294 288
3 377 294 373
3 378 376 292
3 378 292 296
3 296 298 378
3 378 298 379
3 299 294 380
3 294 381 380
3 294 377 381
3 380 301 299
3 303 383 382
3 379 303 382
3 298 303 379
3 380 381 384
3 384 381 385
3 384 305 301
3 384 301 380
3 388 387 386
3 387 389 383
3 307 387 383
3 303 307 383
3 386 387 307
3 385 390 384
3 305 384 390
3 391 305 390
3 309 305 391
3 388 386 311
3 312 388 311
3 392 388 312
3 311 386 307
3 391 393 309
3 309 393 313
3 315 313 393
3 315 393 394
3 396 395 317
3 396 317 318
3 312 317 392
3 392 317 395
3 394 397 315
3 315 397 319
3 397 399 398
3 320 397 398
3 319 397 320
3 398 322 320
3 401 400 325
3 401 325 324
3 318 325 396
3 396 325 400
3 399 402 398
3 402 404 403
3 402 403 326
3 398 402 326
3 322 398 326
3 405 327 326
3 405 326 403
3 405 329 327
3 407 406 332
3 407 332 331
3 332 408 333
3 406 408 332
3 324 333 401
3 401 333 408
3 404 409 403
3 403 409 405
3 405 409 410
3 405 410 329
3 410 334 329
3 410 411 334
3 411 413 412
3 335 411 412
3 334 411 335
3 412 337 335
3 338 414 339
3 339 414 415
3 416 339 415
3 340 339 416
3 331 340 407
3 407 340 416
3 412 413 417
3 417 413 418
3 419 341 337
3 412 419 337
3 417 419 412
3 414 338 341
3 419 414 341
3 420 414 419
3 415 414 421
3 421 414 420
3 424 423 422
3 426 425 422
3 422 425 424
3 428 427 426
3 426 427 425
3 430 429 428
3 428 429 427
3 430 431 429
3 434 433 432
3 343 344 432
3 344 434 432
3 344 435 434
3 436 344 345
3 436 435 344
3 347 422 423
3 436 347 423
3 345 347 436
3 422 347 349
3 422 349 426
3 426 349 351
3 426 351 428
3 428 351 353
3 428 353 430
3 437 431 430
3 353 437 430
3 355 437 353
3 355 357 437
3 437 357 438
3 441 440 439
3 359 360 439
3 360 441 439
3 360 442 441
3 361 432 433
3 442 361 433
3 360 361 442
3 432 361 343
3 443 438 357
3 443 357 362
3 362 364 443
3 443 364 444
3 439 440 367
3 440 366 367
3 440 445 366
3 439 367 359
3 446 444 364
3 446 364 368
3 368 369 446
3 446 369 447
3 450 449 448
3 445 450 448
3 370 445 448
3 366 445 370
3 451 447 369
3 451 369 371
3 371 372 451
3 451 372 452
3 448 449 374
3 449 373 374
3 449 453 373
3 448 374 370
3 454 452 372
3 454 372 375
3 375 376 454
3 454 376 455
3 458 457 456
3 453 458 456
3 377 453 456
3 373 453 377
3 459 455 376
3 459 376 378
3 378 379 459
3 459 379 460
3 456 457 461
3 461 457 462
3 461 381 377
3 461 377 456
3 379 382 463
3 464 379 463
3 460 379 464
3 462 465 461
3 381 461 465
3 466 381 465
3 385 381 466
3 468 467 387
3 468 387 388
3 463 389 464
3 389 467 464
3 389 387 467
3 390 385 469
3 385 470 469
3 385 466 470
3 469 391 390
3 473 472 471
3 472 468 471
3 468 392 471
3 468 388 392
3 470 474 469
3 474 476 475
3 474 475 393
3 469 474 393
3 391 469 393
3 475 394 393
3 479 478 477
3 477 478 473
3 477 473 471
3 396 477 471
3 395 396 471
3 395 471 392
3 476 480 475
3 480 482 481
3 480 481 397
3 475 480 397
3 394 475 397
3 481 399 397
3 485 484 483
3 483 484 479
3 483 479 477
3 401 483 477
3 400 401 477
3 400 477 396
3 482 486 481
3 481 486 399
3 486 402 399
3 486 487 402
3 489 488 404
3 402 489 404
3 487 489 402
3 490 488 489
3 492 491 406
3 492 406 407
3 483 408 485
3 408 491 485
3 408 406 491
3 408 483 401
3 488 409 404
3 490 493 488
3 493 409 488
3 493 410 409
3 410 494 411
3 493 494 410
3 413 411 494
3 413 494 495
3 498 497 496
3 416 415 496
3 497 416 496
3 499 416 497
3 407 416 492
3 492 416 499
3 495 418 413
3 500 418 495
3 503 502 501
3 501 502 498
3 496 501 498
3 504 501 496
3 421 504 415
3 415 504 496
3 507 506 505
3 509 508 505
3 505 508 507
3 509 510 508
3 513 512 511
3 511 514 513
3 516 515 424
3 424 515 423
3 425 505 506
3 516 425 506
3 424 425 516
3 505 425 427
3 505 427 509
3 517 510 509
3 427 517 509
3 429 517 427
3 429 431 517
3 517 431 518
3 521 520 519
3 433 434 519
3 434 521 519
3 434 522 521
3 435 511 512
3 522 435 512
3 434 435 522
3 523 514 511
3 435 523 511
3 436 523 435
3 436 423 515
3 436 515 523
3 524 518 431
3 524 431 437
3 437 438 524
3 524 438 525
3 527 526 441
3 441 526 440
3 442 519 520
3 527 442 520
3 441 442 527
3 519 442 433
3 528 525 438
3 528 438 443
3 443 444 528
3 528 444 529
3 532 531 530
3 526 532 530
3 445 526 530
3 440 526 445
3 533 529 444
3 533 444 446
3 535 534 447
3 534 446 447
3 534 533 446
3 535 536 534
3 539 538 537
3 539 537 531
3 531 537 530
3 537 449 530
3 449 450 530
3 530 450 445
3 451 535 447
3 451 452 535
3 452 536 535
3 452 540 536
3 537 538 541
3 541 538 542
3 541 453 449
3 541 449 537
3 543 540 452
3 543 452 454
3 454 455 543
3 543 455 544
3 541 542 458
3 542 457 458
3 542 545 457
3 541 458 453
3 455 459 546
3 547 455 546
3 544 455 547
3 460 546 459
3 545 462 457
3 548 462 545
3 547 546 549
3 547 549 550
3 464 549 460
3 460 549 546
3 465 462 551
3 462 552 551
3 462 548 552
3 551 466 465
3 550 549 467
3 468 550 467
3 553 550 468
3 467 549 464
3 552 554 551
3 466 551 554
3 555 466 554
3 470 466 555
3 557 556 472
3 557 472 473
3 468 472 553
3 553 472 556
3 555 558 470
3 470 558 474
3 560 559 476
3 474 560 476
3 558 560 474
3 561 559 560
3 564 563 562
3 478 479 562
3 563 478 562
3 565 478 563
3 473 478 557
3 557 478 565
3 559 480 476
3 567 566 482
3 567 482 480
3 561 567 480
3 559 561 480
3 568 566 567
3 571 570 569
3 569 570 564
3 569 564 562
3 485 569 562
3 484 485 562
3 484 562 479
3 566 486 482
3 568 572 566
3 572 486 566
3 572 487 486
3 487 573 489
3 572 573 487
3 575 574 490
3 489 575 490
3 573 575 489
3 576 574 575
3 579 578 577
3 577 578 571
3 577 571 569
3 492 577 569
3 491 492 569
3 491 569 485
3 574 493 490
3 576 580 574
3 580 493 574
3 580 494 493
3 582 581 495
3 494 582 495
3 580 582 494
3 584 583 581
3 584 581 582
3 497 498 583
3 584 497 583
3 585 497 584
3 577 499 579
3 499 585 579
3 499 497 585
3 499 577 492
3 586 500 581
3 581 500 495
3 503 586 502
3 586 583 502
3 586 581 583
3 502 583 498
3 589 588 587
3 587 590 589
3 592 591 507
3 507 591 506
3 593 507 508
3 593 592 507
3 595 594 510
3 594 508 510
3 594 593 508
3 595 596 594
3 587 588 597
3 597 588 598
3 513 599 512
3 599 587 512
3 587 597 512
3 587 599 590
3 601 600 514
3 600 513 514
3 600 599 513
3 515 516 601
3 516 600 601
3 516 602 600
3 516 506 591
3 516 591 602
3 517 595 510
3 517 518 595
3 518 596 595
3 518 603 596
3 605 604 521
3 521 604 520
3 522 597 598
3 605 522 598
3 521 522 605
3 597 522 512
3 523 601 514
3 601 523 515
3 606 603 518
3 606 518 524
3 524 525 606
3 606 525 607
3 609 608 527
3 527 608 526
3 527 520 604
3 527 604 609
3 610 607 525
3 610 525 528
3 528 529 610
3 610 529 611
3 613 612 532
3 532 612 531
3 532 526 608
3 532 608 613
3 614 611 529
3 614 529 533
3 615 533 534
3 615 614 533
3 534 536 615
3 615 536 616
3 618 617 539
3 539 617 538
3 539 531 612
3 539 612 618
3 540 620 619
3 616 540 619
3 536 540 616
3 620 621 619
3 617 542 538
3 622 542 617
3 543 620 540
3 543 544 620
3 544 621 620
3 544 623 621
3 622 545 542
3 624 545 622
3 547 623 544
3 547 625 623
3 624 548 545
3 626 548 624
3 550 625 547
3 550 627 625
3 629 552 628
3 552 626 628
3 552 548 626
3 630 629 628
3 633 632 631
3 632 627 631
3 627 553 631
3 627 550 553
3 629 554 552
3 635 634 555
3 635 555 554
3 630 635 554
3 629 630 554
3 636 634 635
3 639 638 637
3 637 638 633
3 637 633 631
3 557 637 631
3 556 557 631
3 556 631 553
3 634 558 555
3 636 640 634
3 640 558 634
3 640 560 558
3 561 560 640
3 561 640 641
3 644 643 642
3 563 564 642
3 643 563 642
3 645 563 643
3 637 565 639
3 565 645 639
3 565 563 645
3 565 637 557
3 641 646 561
3 561 646 567
3 648 647 568
3 567 648 568
3 646 648 567
3 649 647 648
3 644 642 570
3 571 644 570
3 650 644 571
3 570 642 564
3 647 572 568
3 649 651 647
3 651 572 647
3 651 573 572
3 573 652 575
3 651 652 573
3 654 653 576
3 575 654 576
3 652 654 575
3 655 653 654
3 658 657 656
3 660 659 656
3 660 656 657
3 578 579 659
3 660 578 659
3 661 578 660
3 571 578 650
3 650 578 661
3 653 580 576
3 655 662 653
3 662 580 653
3 662 582 580
3 656 584 658
3 584 662 658
3 584 582 662
3 584 656 585
3 585 656 659
3 585 659 579
3 664 663 589
3 589 663 588
3 666 665 590
3 665 589 590
3 665 664 589
3 668 667 666
3 666 667 665
3 670 669 668
3 668 669 667
3 591 592 670
3 592 669 670
3 592 671 669
3 672 592 593
3 672 671 592
3 673 593 594
3 673 672 593
3 594 596 673
3 673 596 674
3 677 676 675
3 663 677 675
3 598 663 675
3 588 663 598
3 599 666 590
3 666 599 600
3 666 600 668
3 668 600 602
3 668 602 670
3 670 602 591
3 603 674 596
3 603 678 674
3 681 680 679
3 681 679 676
3 676 679 675
3 679 604 675
3 604 605 675
3 675 605 598
3 682 678 603
3 682 603 606
3 606 607 682
3 682 607 683
3 686 685 684
3 686 684 680
3 680 684 679
3 684 608 679
3 608 609 679
3 679 609 604
3 687 683 607
3 687 607 610
3 610 611 687
3 687 611 688
3 684 685 613
3 685 612 613
3 685 689 612
3 684 613 608
3 690 688 611
3 690 611 614
3 692 690 691
3 690 615 691
3 690 614 615
3 616 691 615
3 694 693 618
3 618 693 617
3 618 612 689
3 618 689 694
3 695 692 691
3 697 695 696
3 696 695 619
3 695 691 619
3 691 616 619
3 621 696 619
3 693 622 617
3 698 622 693
3 699 697 696
3 696 621 699
3 621 700 699
3 621 623 700
3 698 624 622
3 701 624 698
3 625 700 623
3 625 702 700
3 704 626 703
3 626 701 703
3 626 624 701
3 705 704 703
3 708 707 706
3 707 702 706
3 702 627 706
3 702 625 627
3 704 628 626
3 710 709 630
3 710 630 628
3 705 710 628
3 704 705 628
3 711 709 710
3 714 713 712
3 712 713 708
3 712 708 706
3 633 712 706
3 632 633 706
3 632 706 627
3 709 635 630
3 716 715 636
3 716 636 635
3 711 716 635
3 709 711 635
3 717 715 716
3 720 719 718
3 718 719 714
3 718 714 712
3 639 718 712
3 638 639 712
3 638 712 633
3 715 640 636
3 722 721 641
3 722 641 640
3 717 722 640
3 715 717 640
3 724 723 721
3 724 721 722
3 725 723 724
3 727 726 643
3 727 643 644
3 718 645 720
3 645 726 720
3 645 643 726
3 645 718 639
3 721 646 641
3 646 721 648
3 648 721 723
3 729 728 649
3 729 649 648
3 725 729 648
3 723 725 648
3 731 730 728
3 731 728 729
3 732 730 731
3 735 734 733
3 737 736 733
3 737 733 734
3 737 727 736
3 727 650 736
3 727 644 650
3 728 651 649
3 651 728 652
3 652 728 730
3 732 738 730
3 738 652 730
3 738 654 652
3 740 739 655
3 654 740 655
3 738 740 654
3 657 658 739
3 740 657 739
3 741 657 740
3 733 660 735
3 660 741 735
3 660 657 741
3 660 733 661
3 661 733 736
3 661 736 650
3 739 662 655
3 662 739 658
3 743 742 664
3 664 742 663
3 744 664 665
3 744 743 664
3 746 744 745
3 744 667 745
3 744 665 667
3 669 747 667
3 667 747 745
3 671 748 669
3 669 748 747
3 672 749 671
3 671 749 748
3 673 750 672
3 672 750 749
3 674 750 673
3 751 676 677
3 752 751 677
3 663 752 677
3 742 752 663
3 753 746 745
3 755 754 753
3 745 755 753
3 747 755 745
3 756 747 748
3 755 747 756
3 757 748 749
3 756 748 757
3 758 749 750
3 757 749 758
3 678 758 674
3 674 758 750
3 760 759 681
3 681 759 680
3 681 676 751
3 761 681 751
3 760 681 761
3 761 751 752
3 762 754 755
3 762 755 756
3 762 756 763
3 763 756 757
3 763 757 764
3 764 757 758
3 764 758 765
3 767 765 766
3 766 765 682
3 765 758 682
3 758 678 682
3 683 766 682
3 769 768 686
3 686 768 685
3 686 680 759
3 686 759 769
3 770 767 766
3 772 770 771
3 771 770 687
3 770 766 687
3 766 683 687
3 688 771 687
3 768 689 685
3 773 689 768
3 774 772 771
3 776 774 775
3 775 774 690
3 774 771 690
3 771 688 690
3 692 775 690
3 778 777 694
3 694 777 693
3 694 689 773
3 694 773 778
3 779 776 775
3 779 775 692
3 695 779 692
3 780 779 695
3 695 697 780
3 780 697 781
3 777 698 693
3 782 698 777
3 697 699 783
3 784 697 783
3 781 697 784
3 700 783 699
3 782 701 698
3 785 701 782
3 784 783 786
3 784 786 787
3 702 786 700
3 700 786 783
3 785 788 701
3 701 788 703
3 705 703 788
3 705 788 789
3 792 791 790
3 790 791 787
3 790 787 786
3 708 790 786
3 707 708 786
3 707 786 702
3 789 793 705
3 705 793 710
3 795 794 711
3 710 795 711
3 793 795 710
3 796 794 795
3 799 798 797
3 797 798 792
3 797 792 790
3 714 797 790
3 713 714 790
3 713 790 708
3 794 716 711
3 801 800 717
3 801 717 716
3 796 801 716
3 794 796 716
3 803 802 800
3 803 800 801
3 804 802 803
3 807 806 805
3 805 806 799
3 805 799 797
3 720 805 797
3 719 720 797
3 719 797 714
3 800 722 717
3 722 800 724
3 724 800 802
3 809 808 725
3 809 725 724
3 804 809 724
3 802 804 724
3 811 810 808
3 811 808 809
3 812 810 811
3 815 814 813
3 813 814 807
3 813 807 805
3 727 813 805
3 726 727 805
3 726 805 720
3 808 729 725
3 729 808 731
3 731 808 810
3 817 816 732
3 817 732 731
3 812 817 731
3 810 812 731
3 819 818 816
3 819 816 817
3 821 820 818
3 821 818 819
3 734 735 820
3 821 734 820
3 822 734 821
3 813 737 815
3 737 822 815
3 737 734 822
3 737 813 727
3 816 738 732
3 738 816 740
3 740 816 818
3 740 818 741
3 741 818 820
3 741 820 735
3 823 742 743
3 744 824 743
3 743 824 823
3 746 824 744
3 825 752 823
3 823 752 742
3 826 823 824
3 825 823 826
3 753 827 746
3 827 824 746
3 827 826 824
3 754 827 753
3 828 759 760
3 828 760 829
3 760 830 829
3 760 761 830
3 761 752 825
3 831 761 825
3 830 761 831
3 831 825 826
3 831 826 832
3 834 833 832
3 826 834 832
3 827 834 826
3 762 835 754
3 835 827 754
3 835 834 827
3 763 836 762
3 762 836 835
3 764 837 763
3 763 837 836
3 765 838 764
3 764 838 837
3 767 838 765
3 839 768 769
3 840 839 769
3 840 769 759
3 841 840 759
3 828 841 759
3 841 828 829
3 842 833 834
3 842 834 835
3 842 835 843
3 845 844 843
3 835 845 843
3 836 845 835
3 846 836 837
3 845 836 846
3 847 837 838
3 846 837 847
3 770 848 767
3 848 838 767
3 848 847 838
3 772 848 770
3 850 849 839
3 849 768 839
3 849 773 768
3 850 839 840
3 851 844 845
3 851 845 846
3 851 846 852
3 852 846 847
3 852 847 853
3 853 847 848
3 853 848 854
3 856 854 855
3 855 854 774
3 854 848 774
3 848 772 774
3 776 855 774
3 858 857 778
3 778 857 777
3 778 773 849
3 778 849 858
3 859 856 855
3 859 855 776
3 779 859 776
3 860 859 779
3 862 860 861
3 860 780 861
3 860 779 780
3 781 861 780
3 857 782 777
3 863 782 857
3 862 861 864
3 862 864 865
3 784 864 781
3 781 864 861
3 867 785 866
3 785 863 866
3 785 782 863
3 869 868 867
3 869 867 866
3 870 868 869
3 865 864 871
3 865 871 872
3 787 871 784
3 784 871 864
3 867 788 785
3 788 867 789
3 867 873 789
3 867 868 873
3 868 870 874
3 875 868 874
3 873 868 875
3 877 876 875
3 877 875 874
3 879 878 876
3 879 876 877
3 881 880 878
3 881 878 879
3 882 880 881
3 885 884 883
3 883 884 872
3 883 872 871
3 792 883 871
3 791 792 871
3 791 871 787
3 873 793 789
3 793 873 795
3 795 873 875
3 795 875 796
3 875 886 796
3 875 876 886
3 887 876 878
3 886 876 887
3 888 878 880
3 887 878 888
3 880 882 889
3 890 880 889
3 888 880 890
3 891 890 889
3 894 893 892
3 892 893 885
3 892 885 883
3 799 892 883
3 798 799 883
3 798 883 792
3 886 801 796
3 801 886 803
3 803 886 887
3 803 887 804
3 887 895 804
3 887 888 895
3 896 888 890
3 895 888 896
3 890 891 897
3 898 890 897
3 896 890 898
3 900 899 898
3 900 898 897
3 901 899 900
3 904 903 902
3 902 903 894
3 902 894 892
3 807 902 892
3 806 807 892
3 806 892 799
3 895 809 804
3 809 895 811
3 811 895 896
3 811 896 812
3 896 905 812
3 896 898 905
3 906 898 899
3 905 898 906
3 899 901 907
3 908 899 907
3 906 899 908
3 910 909 908
3 910 908 907
3 909 910 904
3 909 904 902
3 815 909 902
3 814 815 902
3 814 902 807
3 905 817 812
3 817 905 819
3 819 905 906
3 819 906 821
3 821 906 908
3 821 908 822
3 822 908 909
3 822 909 815
3 911 829 830
3 831 912 830
3 830 912 911
3 832 913 831
3 831 913 912
3 833 913 832
3 914 840 841
3 829 911 841
3 911 914 841
3 911 915 914
3 916 911 912
3 915 911 916
3 917 912 913
3 916 912 917
3 842 918 833
3 918 913 833
3 918 917 913
3 843 919 842
3 842 919 918
3 844 919 843
3 920 849 850
3 840 914 850
3 914 920 850
3 914 921 920
3 922 914 915
3 921 914 922
3 923 915 916
3 922 915 923
3 924 916 917
3 923 916 924
3 925 917 918
3 924 917 925
3 926 918 919
3 925 918 926
3 851 927 844
3 927 919 844
3 927 926 919
3 852 928 851
3 851 928 927
3 853 929 852
3 852 929 928
3 854 930 853
3 853 930 929
3 856 930 854
3 931 857 858
3 849 920 858
3 920 931 858
3 920 932 931
3 933 920 921
3 932 920 933
3 934 921 922
3 933 921 934
3 935 922 923
3 934 922 935
3 936 923 924
3 935 923 936
3 937 924 925
3 936 924 937
3 938 925 926
3 937 925 938
3 939 926 927
3 938 926 939
3 940 927 928
3 939 927 940
3 929 942 941
3 940 929 941
3 928 929 940
3 944 943 942
3 929 944 942
3 930 944 929
3 859 945 856
3 945 930 856
3 945 944 930
3 860 946 859
3 859 946 945
3 862 946 860
3 947 863 931
3 931 863 857
3 948 931 932
3 947 931 948
3 949 932 933
3 948 932 949
3 950 933 934
3 949 933 950
3 951 934 935
3 950 934 951
3 952 935 936
3 951 935 952
3 953 936 937
3 952 936 953
3 954 937 938
3 953 937 954
3 939 956 955
3 954 939 955
3 938 939 954
3 956 939 940
3 956 940 957
3 957 940 941
3 958 943 944
3 958 944 945
3 958 945 959
3 961 960 959
3 945 961 959
3 946 961 945
3 865 961 862
3 862 961 946
3 947 866 863
3 866 947 869
3 869 947 948
3 869 948 870
3 948 962 870
3 948 949 962
3 963 949 950
3 962 949 963
3 964 950 951
3 963 950 964
3 965 951 952
3 964 951 965
3 966 952 953
3 965 952 966
3 967 953 954
3 966 953 967
3 954 955 968
3 954 968 967
3 960 961 969
3 960 969 970
3 872 969 865
3 865 969 961
3 962 874 870
3 874 962 877
3 877 962 963
3 877 963 879
3 879 963 964
3 879 964 881
3 881 964 965
3 881 965 882
3 965 971 882
3 965 966 971
3 972 966 967
3 971 966 972
3 967 968 973
3 967 973 972
3 976 975 974
3 974 975 970
3 974 970 969
3 885 974 969
3 884 885 969
3 884 969 872
3 971 889 882
3 889 971 891
3 971 977 891
3 971 972 977
3 972 973 978
3 979 972 978
3 977 972 979
3 981 980 979
3 981 979 978
3 982 980 981
3 985 984 983
3 983 984 976
3 983 976 974
3 894 983 974
3 893 894 974
3 893 974 885
3 977 897 891
3 897 977 900
3 900 977 979
3 900 979 901
3 979 986 901
3 979 980 986
3 980 982 987
3 988 980 987
3 986 980 988
3 988 987 985
3 988 985 983
3 904 988 983
3 903 904 983
3 903 983 894
3 986 907 901
3 907 986 910
3 910 986 988
3 910 988 904
3 989 941 942
3 943 989 942
3 990 955 956
3 957 991 956
3 956 991 990
3 941 989 957
3 989 991 957
3 989 992 991
3 992 989 943
3 993 992 943
3 958 993 943
3 994 992 993
3 996 993 995
3 993 959 995
3 993 958 959
3 960 995 959
3 997 968 990
3 990 968 955
3 991 999 998
3 997 991 998
3 990 991 997
3 999 991 992
3 999 992 1000
3 1000 992 994
3 996 995 1001
3 996 1001 1002
3 970 1001 960
3 960 1001 995
3 1003 973 997
3 997 973 968
3 997 998 1004
3 1005 997 1004
3 1003 997 1005
3 1006 1005 1004
3 1002 1001 975
3 976 1002 975
3 1007 1002 976
3 975 1001 970
3 1003 978 973
3 978 1003 981
3 981 1003 1005
3 1009 1008 982
3 1009 982 981
3 1006 1009 981
3 1005 1006 981
3 984 985 1008
3 1009 984 1008
3 1010 984 1009
3 976 984 1007
3 1007 984 1010
3 1008 987 982
3 987 1008 985