OFF
1373 2694 0
1.3019922878 10.0610711243 19.8995383435
1.4526715676 9.7489616480 19.6357410884
1.4296711907 9.6260500782 19.9733011231
1.4759232056 9.7458799934 20.2210615944
1.3076960909 10.4101999579 19.4291064735
1.5205895291 10.7224088525 18.8757190800
1.5383399164 10.0401021450 19.1509629532
1.2417246870 10.7287320375 19.8099291805
1.4129530919 10.3373487986 20.2828245265
1.2977311138 11.2740349783 19.2952177161
1.5610746801 11.6684435419 18.6410875341
1.2813472532 11.3277923778 19.7965814424
1.3645529863 10.9809872332 20.1663210715
1.3822307446 11.9919631726 19.0918700189
1.5632816607 12.3934286260 18.8226527342
1.3829802690 11.9185579852 19.5817452367
1.5160602850 12.4575903293 19.2720050849
1.7908566519 9.1813966493 20.0814734425
2.0581853706 8.9114728804 19.4534718309
2.2175741138 8.5098449312 19.8562720456
2.2936930879 8.4100159189 20.5468231763
2.0765121191 8.9919121829 20.8338480936
2.4342283797 8.5593975473 21.1993109056
1.7805708549 9.4681000641 19.2983571334
1.9411832783 10.0187480812 18.6168563343
2.1555048037 9.2080244994 18.9066613300
1.8021877118 9.7787954323 20.7454795754
2.3022265014 9.2997963847 21.3983126246
1.8683353450 10.9816444128 18.2821164632
1.7232137681 10.8747734038 20.7232624362
2.2009060755 10.2903916797 21.4220770995
1.8986722827 11.7032540170 18.0855087634
2.2237511876 12.0842221858 17.6150935896
2.1732447549 11.3206282000 17.7765292857
1.5093731673 11.6115949546 20.1653059279
1.8890198445 11.8553343234 20.7243046716
2.2086736307 11.3181051416 21.3730728334
1.8641488710 12.4877287370 18.2613248511
2.2490231888 13.0076291427 17.6673750216
1.7561474437 12.5688525825 19.9773531485
2.0854977439 12.5692768816 20.7766308720
2.2493768031 12.1313487161 21.2511910035
2.0525733264 13.2945509943 18.2501715156
2.2966413428 13.7447684083 17.9297736940
1.8471899991 13.1250614069 19.0273327833
2.0152179419 13.4297339193 19.8247380307
2.1733946691 13.2775455938 20.5280958908
2.2049131445 13.9673316760 18.6084284849
2.1967267363 14.0371934552 19.4749600500
2.2761365579 13.9422262434 20.2003725246
2.2428512800 16.4078256229 5.7176979763
2.3485176691 16.4163529867 4.9533583297
2.4656585326 15.8413139812 5.2558982882
2.4660723036 15.8275930445 5.8114615968
2.1160092225 17.2586938088 5.5486858970
2.3456293342 17.0456749488 4.7290831619
2.3768689803 16.2456266943 6.3411262581
2.1731139459 17.0630034156 6.6024319128
2.6973518917 16.3716543084 7.2742373710
2.3279153122 17.2203944762 7.5053078993
2.6912555123 17.0073583098 8.0460692261
2.3125532251 17.8233655377 4.9401621777
2.7517854933 17.9190533390 4.4273563356
2.7078274665 17.2921738056 4.2472389987
2.0497998712 18.1353991258 5.7213698085
1.9845075488 18.0389901528 6.4885544191
2.0912870340 18.0458780520 7.5316922540
2.4031586034 17.7017650124 8.1878868555
2.5743460632 18.3611612275 4.8308200164
2.3028941619 18.6961966489 5.4936950582
2.8270815310 18.8690269769 5.0872629758
2.0579600822 18.8176596611 6.3706216775
2.0238701746 18.9088698399 7.3390438913
2.2187726160 18.3730846104 8.3660568058
2.1166808222 19.0386860964 8.3529175181
2.2886372907 18.8308407497 8.8751869688
2.6458284361 19.2581437201 5.6377641756
2.3932279621 19.3834295431 6.2446192448
2.9738979924 19.7116728608 6.1427211729
2.2581048711 19.5502108945 7.1420527233
2.2374357362 19.7892756968 8.2194481092
2.2717999022 19.3397111817 9.0941916210
2.2419492167 19.8131723595 8.9843101909
2.4382637847 19.7734660154 9.5337620396
2.7871136497 19.9332618880 6.9430820035
2.6872005460 20.1331204781 7.8797076241
2.6209229249 20.3685962241 8.7747390821
2.3490374088 20.3051316790 9.0327890545
2.5348859321 20.5485948226 9.2563969528
2.4996835076 20.3039242142 9.4975533262
2.4196316197 20.5235325598 9.3334233246
3.0743442181 7.0526915268 20.1632543209
3.2279922715 6.8784029807 19.4336975774
3.3967482622 6.4752190791 19.8727621601
3.4171422858 6.4370337892 20.4723792567
2.9458052332 7.5685990481 19.2007873738
3.1734540970 7.6151005735 18.4869016605
3.2739929479 7.1149203200 18.8573806282
2.6178406571 7.8936827815 20.0134614537
3.2954752843 6.8256051289 20.9758741412
2.8855022056 7.7081562962 21.1220641470
3.6520532574 6.9000885060 21.9074009727
3.2444399414 7.7802188161 22.0488933400
3.6787894384 7.5289447426 22.5508283818
2.9279205788 8.2742883569 18.3914462583
3.1617112932 8.7428377682 17.6035767395
3.2639063530 7.9910278040 17.9608796758
2.4865753929 8.4855380713 19.1256031176
2.8442629338 8.6292328174 21.8964567029
3.4032739245 8.2752020767 22.5891574639
2.6093723799 9.3692150848 18.1065029311
3.0858365150 9.5314998385 17.2638098984
2.7008383497 9.7488376915 22.0371528384
3.2147622242 9.2318870077 22.6158686506
2.8513462258 10.2915260883 17.2575885778
3.1795857697 10.8953921156 16.5452616022
3.2792514843 10.0514330159 16.7273833605
2.3352626464 10.5421724307 17.8477510293
2.6538743031 10.8248403408 22.0290567326
3.1202240489 10.3077399831 22.6282468407
2.6389345268 11.3761076890 17.1691757920
3.0921605228 11.9132729545 16.3733922390
2.6693926489 11.9699444300 21.9267725480
3.0895790984 11.3716648861 22.5824279330
2.6758974563 12.6497470797 16.9258177849
3.1022211458 12.7748678264 16.1902411248
2.4913101842 12.9490847825 21.3756633212
2.8948493044 12.8726529496 22.1074011215
3.1743257576 12.3698436375 22.5963513085
3.2975240439 14.3823910231 4.6190284435
3.4651943326 14.1779341655 3.8605991132
3.8715207971 13.6378317494 4.3401943520
3.7420983481 13.8832969388 5.0260318996
2.9833104455 13.6728446096 16.4092821648
3.3742395494 14.0083862598 15.6926899958
3.3266597125 13.2460892862 15.7718201699
2.5750315999 13.7318778743 17.2996490767
2.5864060802 14.0704261342 21.0226157596
2.9296376583 13.7307264497 21.9246257912
3.2973474968 13.3514898365 22.5931727228
3.1518377073 14.9137475673 3.8842010289
3.5443586845 15.1655850404 3.0879900867
3.5375087124 14.4439801988 3.3137875524
2.9476197003 14.9710341028 4.5714326292
3.5080888893 14.2870517737 5.4749096178
2.9109911341 15.1197719234 5.4658471408
3.5049523891 14.6138703478 6.2130037677
3.1897823779 15.1502572527 6.5667857697
3.6401300972 14.7960321012 6.8491934672
3.1743868778 14.6094519832 16.2138348773
3.4154920097 14.6024153216 15.7053246666
2.8626735140 14.6332816847 17.0625078023
2.5592397509 14.6103411333 18.0714685025
2.4727651928 14.7712824587 19.1371895726
2.5469825171 14.7515052024 20.1802363866
2.8324921412 15.0084676669 21.0599241269
3.0734332679 14.7294461227 21.7843053569
3.4240079876 14.3573554367 22.5006788618
3.0962665562 15.8392430810 3.6530865404
3.7340169816 16.1049954007 2.9832599805
2.7249581081 15.6258899823 4.5209660831
2.7112564216 15.6998389950 6.4115343361
3.6833438132 15.1617132980 7.3587527865
3.0734196602 15.6264025419 7.0883766886
3.4269554765 15.8081934005 7.8131190886
3.4960191301 15.2504290476 15.9023355714
3.1602047051 15.4130620914 16.7783791290
3.4438976894 15.9887941245 16.5315040652
2.9471577947 15.6478361596 17.8270108790
2.7664114132 15.5674197734 18.8661410473
2.7212253683 15.4679511434 19.7136854873
2.9495907123 15.7640657853 20.6072039130
3.2131429246 15.6244920055 21.5514091756
3.7334108554 15.4511802021 22.4103720407
3.2092332822 16.7763830542 3.6070981491
3.7526997609 16.8161369003 3.1940343759
2.6632313668 16.4899935153 4.2280370819
3.3986314071 16.4394877964 8.4872856815
2.9790181347 17.3918830534 8.8878544971
3.5640398180 16.8752358917 9.2216399581
3.2822719254 16.2523890714 17.3122767105
3.1855335528 16.4793668644 18.0699743392
3.0585527068 16.3682797392 18.7419524515
3.3158311720 16.9465626027 18.5885191126
3.0177560252 16.2930069108 19.7260235585
3.2211543319 16.5683550289 20.5484628049
3.3733962506 16.4085522546 21.2467933936
3.6302108585 16.1977827790 21.9065421135
3.5606926261 17.1503919534 3.4617106357
3.4335717403 17.6485362533 3.9120922576
2.5382725349 18.2597209232 8.9363772899
3.5451733513 17.3666024807 9.7209859227
3.0746454423 18.2047230908 9.7923053228
3.5251620167 17.8528648098 10.2067585733
3.3133505086 17.0176189015 19.3484823389
3.3330068451 16.9790451892 20.1182901491
3.1276980370 18.3773216210 4.5229079439
3.5850382779 18.9305122149 4.8910674000
2.6046310598 19.1079595916 9.6073476087
3.5109215456 18.3408389538 10.6770001100
3.1110111312 19.1760866263 10.6346307929
3.4753030167 18.9467517841 11.2283236574
3.2428805239 19.3843424687 5.4824292757
3.7878176398 19.8356145563 6.0434535165
2.8970401531 20.1012541751 10.3430404678
3.3404974098 19.4712812061 11.4282865119
3.1973185900 20.0290385922 11.3756105006
3.4279704355 19.8987882796 11.9327290757
3.5629875671 20.1202780511 6.8094228238
3.4231180739 20.3172010921 7.6945833839
3.2979678178 20.4755969547 8.6442531476
2.5649092997 20.5672843957 9.4470437101
3.0451024205 20.5605190852 9.6206166736
3.3884457958 20.7202410467 10.6830900290
3.3704930956 20.8644211641 11.6983541184
3.9374617073 21.0648281466 11.3405420951
3.3764228520 20.4984576180 12.1655396387
3.9115200174 21.3139009341 12.1228174990
3.5633634329 21.3029753839 12.2373613084
3.3773784708 21.2248493926 12.5030223503
3.3559256249 20.9904257352 12.4438152354
3.5047623889 21.1582479464 12.9317539555
3.5165214816 21.3136527561 12.9988615830
3.9051231307 21.2262603927 13.3578829362
4.0766481770 5.6859940976 19.1486677831
4.4273839572 5.4692376366 18.5548928111
4.4015290686 5.1860343560 19.1468414772
4.3821797973 5.1146902445 19.7743445068
3.8497944683 5.8461966466 20.1867175391
4.4285195215 5.1008410006 20.7266147723
4.1501389772 5.6419137440 21.2435778300
4.5720406137 5.1480285081 21.4695650799
4.0263021425 6.3334086922 18.1890075930
4.2959248316 6.4910493202 17.4428763622
4.4625331350 5.9287328681 17.8143944647
3.5966870251 6.4654267596 19.1064017802
3.6868150396 6.2585790393 21.1151161407
4.6073607026 5.5493576001 22.0475166312
4.0482062913 6.1080202752 21.7843335921
4.3827149887 6.2527328930 22.4399464601
4.0156746072 7.1973099819 17.2929829777
4.4361856236 7.1899260142 16.6593442490
4.3513184699 6.7841362247 17.0638497050
3.5400044366 7.2457487931 18.1457340887
4.3700578244 6.9194909553 22.9286813678
3.9212181856 7.8627099162 23.0555015171
4.3464220324 7.5494213135 23.3568972452
4.0905918809 8.1705001488 16.5097080862
4.5667985431 8.5080524779 15.7375090378
4.6266484454 7.6999501764 16.1011237861
3.5853427808 8.0983354288 17.3366851712
3.7017289739 8.7266353392 23.1165196737
4.1049625470 8.2487861889 23.4388343204
4.0602681564 9.1769037700 16.0133222045
4.4663363210 9.6249825855 15.3095664396
3.5580372809 9.1722099644 16.7389818820
3.5922767747 9.7683267159 23.1702346781
3.9510116849 9.0044147806 23.4857443227
3.7583777752 10.3130154926 15.9343351360
4.2268597186 10.6024045348 15.1571129186
3.4628898798 10.9513769709 23.0733050600
3.8625262482 9.6098829094 23.4865716603
3.6934574833 10.5536511833 23.3456352916
3.9446228956 11.4657319929 15.2410587128
4.3875193025 11.9210598841 14.5468601097
4.4064787655 11.1332215834 14.7321873209
3.4884381162 11.4018737824 15.9228477426
3.4400964743 11.8710442524 23.0038229586
3.7443492530 11.9131639808 23.3552018148
4.3116266623 13.0332718970 3.3405734986
4.6707578163 12.7720003251 2.8928393120
4.7530209036 12.6046299133 3.4331579779
4.5764417474 12.7922380670 3.8378444095
4.1812535614 13.1804533977 3.8726381612
4.6589875088 12.9945418535 4.5088017899
3.9694378959 12.4192370979 14.9621729824
4.3336828638 12.9152457887 14.4488755576
3.5138292227 12.3769879104 15.6268494586
3.6841030074 12.8277063231 23.1460367508
4.0306077855 12.8092492516 23.5271212878
4.0482165300 12.6060042787 23.5980969787
4.3200396507 13.4174814860 2.7569054062
4.7374692432 13.7009920407 2.1602922495
4.7657471451 13.0412999297 2.4165926773
3.8793146696 13.7156863587 3.4036289533
4.3778921140 13.4813863115 5.2562560284
3.9543577772 13.8576164509 5.5453843615
4.3730623591 13.7335202868 5.9114132541
3.7719566976 13.3570667847 15.1315056961
4.2681531197 13.9661457573 14.5035948885
3.8056103879 13.9145208554 23.0550340832
4.2977606126 13.6276391247 23.4872750399
4.0700908842 14.3592471529 2.6578459124
4.9023456569 14.7231582885 1.8947398376
3.9724961117 14.1004168831 6.0863024202
4.1130126432 14.4000192862 6.8161717920
3.9664323322 14.7414799465 7.1883581094
4.6017523754 14.6650829973 7.6003048713
3.7676041637 14.5029283171 15.2114998134
4.2373873875 14.8491321212 14.6525709020
3.9548826293 14.8016419431 22.9611090517
4.3211816612 14.3978989476 23.3132677883
4.1577294358 15.3466664713 2.4691063510
4.7588049455 15.5892298024 2.1321760550
4.2483771334 15.4092822528 8.2554889833
3.7817391058 15.8844113427 8.3634090110
4.1932380695 15.9039388586 8.8561685345
3.9753341188 15.4548503186 15.2135359438
3.7777364260 16.1466517022 15.9292822613
4.2006478309 16.3708892441 15.2258832073
4.1624579212 15.3346444659 22.9251525310
4.5425269127 15.0536300297 23.2068201478
4.3842035150 16.0058372434 2.4876138640
4.4696751373 16.6679862116 2.8496032338
4.2094235370 16.3692313707 9.5021265096
3.8438607349 16.8767472256 9.6144636799
4.1188692645 16.9430562414 10.0933188324
4.0259719518 16.9926916090 15.9803924546
4.3523736378 17.2831006386 15.3459255219
3.6854216521 16.8510732310 16.8478859350
3.4855034474 17.0251361670 17.8969320777
3.6356933680 17.1879879999 20.8607487945
3.8842451070 16.8784024008 21.7017871069
4.2196002111 16.3954518576 22.3167873958
4.6136794950 15.7631997368 22.8705634957
4.0776359956 17.2678219072 3.3583186822
4.4868267617 17.8493761112 3.7694727747
3.8858140467 17.5094474664 10.3973381709
3.7142159580 17.8878022195 10.5435201631
3.9663829513 17.8763487931 10.9511198033
4.2332988700 17.6523813571 15.9577052970
4.4523472214 18.0156227730 15.6122354696
4.0744596819 17.6758870127 16.6407597355
3.9467432964 17.8200216240 17.7025262040
3.6998908542 17.6382253369 18.8534980806
3.6692941653 17.5759457497 19.9623720950
4.0878378686 17.9580725233 20.6765453835
4.2020568537 17.5890563085 21.4446854738
4.5377253056 17.1657738715 22.0525943743
3.9948623188 18.3870551228 4.3221671103
4.5368602697 18.9576101820 4.8029482607
3.8552664063 18.4897942998 11.4605541078
3.6962417542 19.2749836550 11.9515174409
4.1572912023 18.6488083477 12.2531445403
4.0164217967 19.3353614119 12.6281262961
4.3283049303 18.9372221549 12.9474082633
4.4101610740 18.2816793048 16.2627395249
4.3546811893 18.3994120595 17.1220718153
4.3600717479 18.5401949288 17.8764320840
4.2459305654 18.4155747455 18.6251399102
4.6915639807 18.9083382815 18.2975555586
4.2146740924 18.3269946911 19.7388826477
4.4806171010 18.4620177804 20.5544235797
4.6404630546 18.1916662774 21.2251280047
4.7107945124 17.7514332906 21.7712709951
4.1180053434 19.4399501685 5.3885461313
4.7550469997 19.8745371123 5.9932599056
3.7306802745 20.1129269664 12.6806395578
4.1887377861 19.6661803053 13.2457119962
4.8684139924 18.9492151039 19.1570271661
4.8393404796 18.7901665578 20.1346290919
4.5027832051 20.1880846476 6.7378287309
4.3460134596 20.3972590630 7.5940973756
4.2232141200 20.5448561452 8.5264916440
4.0721813602 20.6814535621 9.4800865170
3.9786610331 20.8501278195 10.4258611858
4.7388902999 21.1079446948 11.1752006218
3.4997980222 20.7874398362 12.7272475382
4.0576503370 20.3482907630 13.3918907462
3.7816031953 20.8134841952 13.1896790555
4.2269531792 20.8088671522 13.7220031719
4.6135438290 21.3311475917 12.0304138446
3.9558535320 21.4643913291 12.6091028307
4.5126091729 21.4564646561 12.8973202871
4.1709668116 21.4401500205 13.1823385194
4.5844907755 21.2507479000 13.7567386693
4.8782805008 4.6947666511 19.1484362896
5.4373724100 4.3536608514 18.5259556012
5.4015718216 4.1166374622 19.1391904853
5.4464607065 3.9929755205 19.8192562951
4.9117623469 4.5198108632 20.2968899139
5.6261560781 3.9409795028 20.9518657060
4.9940178536 4.6057626258 21.3103503977
5.5598343371 4.2318907243 21.7063618937
5.2846464212 4.6107520922 21.9530877824
5.7375137806 4.3960049502 22.1841804185
5.2588802402 5.3741736960 17.2818792720
5.4118021213 5.6710378204 16.8119714755
5.6668391353 5.1559314189 17.0524718826
5.6302981419 4.6895720424 17.6672826174
4.9479754627 5.2195576220 17.9836702417
4.9301815516 4.9646895663 21.8875446616
5.4206510418 5.0069394374 22.4747491392
4.7988059312 6.2093364228 17.0361483897
5.3882500999 6.2581072174 16.3558592433
5.0357895613 5.7719655509 22.7529439454
4.7906668070 6.2680112851 22.9131121448
5.4470237791 6.0979201005 23.2712727002
4.9458202662 6.9692908279 16.2410741131
5.2698109968 7.5655682364 15.5948740305
5.3481895259 6.8223675552 15.9608147082
4.8939773379 6.9291128954 23.4251995630
4.4064242517 7.8175936332 23.5460257783
5.0909760661 8.7144324260 15.1197130116
4.1714802158 8.5445889668 23.6108352981
5.0903754511 9.5642622912 14.6873792509
5.6905913154 9.4568124664 14.2686668314
5.5690489724 8.8848526364 14.6388679259
4.0467711224 9.0705342279 23.6172660939
5.2652931166 10.2456726152 14.2301219601
5.5599359796 10.7386259327 13.8502877208
5.8823843238 10.0389551881 13.8992695938
4.6943163001 10.4076273734 14.6892469512
5.2439604160 12.2761840425 3.1069089857
5.4687039711 12.1361118505 2.6206520589
5.8546816256 11.9392381874 2.8682131871
5.9436923911 12.0181667143 3.4677267219
4.9344493558 11.2018033496 14.1880250052
5.5940609134 11.5727882416 13.6095863123
5.1111333300 12.5229479294 2.5204083677
5.3634242563 12.9161600632 2.0433804114
5.5337007006 12.3202024581 2.3035543914
5.3367266454 12.4561589166 4.0285278441
5.4093125626 12.7295400326 4.8190202252
4.9095839519 12.3188452960 13.9445776262
5.5692412693 12.8167303216 13.2623148147
4.3117156155 13.1955178549 23.6564769520
5.4567508193 13.7625133635 1.5992995796
5.2142099054 13.0731540637 5.3334521642
5.0850469295 13.5085814112 6.0907185228
4.5660942658 13.9145094386 6.4972272738
5.1442370358 13.8270963344 6.7931242600
4.7476028050 14.1491950994 7.0577890516
5.3486097416 14.1153989970 7.3201996159
4.8367584969 13.4621057347 13.8564514419
5.3078538694 14.0758084623 13.2160716944
4.8227488974 13.8267142033 23.6835334589
5.4860028812 14.4087772822 1.4134035707
6.0125318201 14.5072542165 1.2104690998
5.8463526865 14.0421379053 1.2520957433
5.6261164613 14.4915750354 7.9434782610
4.7502198245 14.6942205589 13.9669217467
5.2299382222 15.1434781305 13.2697549538
5.5570060604 14.0835035538 23.7504150415
5.1303319018 14.4106343074 23.5410589839
5.5751700141 14.8864312594 1.4701037441
5.5597471331 15.5257401145 1.8123950682
5.2800343999 14.9772257282 8.5383467395
4.9691791041 15.4878960969 9.1142284475
4.6446637469 15.8634607077 9.3687773370
5.1934018093 15.7089203768 9.9910787143
4.9074188099 15.7510900334 13.8906499717
5.1871550611 15.8953296384 13.4017439206
4.4608823103 15.6409295128 14.5444872100
5.2793305510 15.2536331640 23.2550338669
5.0898812489 16.1724020548 2.3159822642
5.5297913397 16.7992798869 2.7125689297
4.7587008582 16.4134275985 10.4556957680
4.4502711874 17.1827429451 10.9679256431
5.0741272814 16.4800140618 11.3383060171
4.8346908982 17.2076269431 11.8910799899
5.2131392716 16.5904261058 12.0339779229
5.0214588118 16.3648868853 13.7535324975
4.6756713613 16.7590454755 14.4206753571
4.9734930778 16.9170547799 13.7232352765
5.4285532486 15.8294433029 22.9942341594
5.1930306997 16.5379721816 22.5631291113
5.0080156879 17.3325349077 3.2377126569
5.5324935269 17.9109607838 3.7156569504
4.3420085790 17.8927610547 11.7163493748
5.0483165833 17.0926952129 12.5047593916
4.6612019938 17.9764819628 12.7810887501
5.0304052776 17.1358191907 13.1532830680
4.7701012927 17.7941813733 13.9277257814
4.6175249599 17.9212397931 14.9246478883
5.2501487451 17.4293452930 22.0959481100
5.0176083269 18.4365672666 4.2512824356
5.5708106752 18.9729709619 4.7749917313
4.5722854557 19.0213308920 13.7755171422
4.7141465980 18.7115590942 14.6295615068
4.7397591592 18.9046414267 15.6224680123
4.7549402369 18.9689059908 16.6706003057
4.7744778777 18.9900703526 17.5572178286
4.9081676348 18.6186991785 20.7902478620
5.3061838474 18.3936906679 21.2550090476
5.1195099886 18.0001157046 21.6872782902
5.1194142183 19.4578291459 5.3509748446
5.7861403013 19.8831526193 5.9755733247
4.4365119228 20.1013347133 13.9321100644
4.8370470701 19.8035407791 14.8758865240
5.0508677871 19.7789199871 15.7109211989
5.1037672332 19.5883173910 16.3276238188
5.2187173459 19.5343312226 17.1286692876
5.4305890714 19.4195431348 18.1602220953
5.6372641724 19.2469131750 19.1510027874
5.3697182375 19.0489531359 19.8042908151
5.5211889471 18.8000187685 20.5667213800
5.5215551387 20.2055232030 6.7094354611
5.3568819202 20.4215232490 7.5513585404
5.2341348536 20.5679035447 8.4684133807
5.0873130050 20.7070126608 9.4009331015
4.9076484340 20.8857225901 10.3042562754
5.7072220506 21.1076026520 11.0999183130
4.7716874191 20.6891967405 14.4088345157
5.1862565317 20.2426055992 15.5780404214
5.2279571464 20.6244868398 15.2212498577
5.4580507208 20.5534667712 15.8438971895
5.5251455953 21.3236503992 11.9432327090
5.4095925307 21.4611531667 12.8237384679
5.3799215096 21.4232745854 13.7455354598
5.4313126677 21.1320551999 14.7099235401
5.7478615790 20.8792649390 15.6652035994
6.0126715068 3.6372236483 19.0722190883
6.3555765488 3.6105757837 18.3333809994
6.8417810072 3.1804418114 18.5925404945
6.8511894031 2.8512632448 19.6642090326
6.1359637251 3.3878339011 20.2704015279
6.9105166207 2.8363145842 20.8528028523
6.3053896935 3.3919851207 21.1478605112
6.7356775567 3.2303308138 21.5506922257
5.9729836167 4.0083209235 18.1957956389
6.2472548722 4.1655974933 17.6179370402
6.3174660352 3.8168809670 17.9862089755
6.3873281699 3.8200484684 21.9455310508
6.2043221028 4.4894177883 22.6040604840
6.0843466854 5.4050751514 16.4988203860
6.0725134404 4.7222879430 17.1409635605
6.0832437039 4.9745335702 22.9456474123
5.6853890766 5.4308382321 23.0149681958
6.4654171155 5.3228571027 23.3115421272
5.8994240562 6.4724095795 15.8054516979
6.6757714769 6.3339169897 15.3952294495
6.5628823335 5.7498012552 15.8771400198
6.4766921889 5.8234401450 23.6241352551
6.1456444938 7.1745533195 15.1874472008
6.4976159737 7.6607259875 14.7138247552
6.9327610880 6.9162245945 14.9055508961
5.8480835848 6.2311616416 23.6018395809
5.7896934989 8.0970178565 14.9016841998
6.3614060514 8.5745284824 14.3217998119
6.2075044791 9.3919731786 13.9866595413
6.3303443573 10.5998644508 13.5426585093
6.4616669641 9.7634016053 13.7354988764
5.8533181085 12.0407203734 2.4563377210
6.0823344639 12.3548959912 2.1140071554
6.4809914442 11.9445236347 2.5541259700
6.3647173487 11.8266894584 3.0799710265
6.6867899523 11.9251112868 3.5169982235
6.4913843223 11.7725253662 13.1130511464
6.2158407133 12.9892194685 1.6152699975
6.3712086230 12.2125315023 4.1215975851
6.0839027493 12.5475882950 4.7783920836
5.8500083210 12.8270878873 5.2801775123
6.5409489905 12.8314414435 5.3903567163
6.2749069947 12.9346398620 12.6233808463
6.7475230074 13.1537082439 12.2400390940
7.0273058161 12.4168659679 12.6440561927
6.0780739206 13.5846673749 1.2943499406
6.5088751370 13.9203309026 1.1087580181
6.5845743895 13.3267017223 1.2516290049
5.9717189991 13.1640269363 5.8491995899
5.9384100650 13.6678222753 6.7108144131
6.0408768736 14.0975188147 7.4522083193
6.2594533940 13.9824782966 11.9374867671
6.6749634176 14.3399669161 11.2474638067
6.9380329930 13.6466568821 11.8314954173
5.8013998108 13.6816219197 12.6674482262
6.1573974529 13.9782685651 23.8022558306
6.8065008729 13.7667764625 23.7609616441
6.1681692333 14.1343785856 23.6990019484
6.7687184210 14.5725920915 1.1077431872
6.5105169511 14.4329498060 7.9289364362
6.0478345541 14.7507198506 8.5551808398
6.6083664403 14.7937538109 8.6337710285
6.0363606954 14.9630490289 11.0170818209
6.3633882572 14.8531018876 10.4860274105
6.4413175272 14.6998921523 10.8057173527
6.0293985548 14.7176420419 11.6749981396
6.0590169200 14.8878622441 11.4309900682
5.7080201821 14.7311013110 12.3853995929
5.9099415427 14.9951187729 11.7855926849
6.1666831238 14.7239003350 23.4279021879
6.2381892624 15.0928667769 1.3699332332
6.6061931213 15.7131427726 1.7091678740
6.2717194601 15.0697263286 9.6259209353
5.3626622753 15.8368288453 10.9103116400
5.9714831111 15.0624392813 11.5134025488
5.5929385915 15.6487530697 11.8146525004
5.4060147060 15.7282426339 12.7945641759
5.9106665259 15.4152858467 23.1802893942
6.4838059496 15.1858496090 23.1797184163
6.2273507115 15.8798006953 22.8701989629
6.0636883494 16.2551589925 2.1939790238
6.5844212491 16.8514757558 2.6631015752
5.2940647557 16.4595478775 12.6057416545
5.1958985551 16.4378588610 13.2578418526
6.2320316319 16.8689071471 22.3348636651
6.0575451926 17.3842617800 3.1872458924
6.5920713718 17.9325288618 3.6998071079
5.8506550830 17.8494800290 21.7710009079
6.6889685215 17.4358249092 21.9204066692
6.4639495487 17.9929898661 21.5423792292
6.0714244771 18.4575960649 4.2312354982
6.6228566910 18.9771662160 4.7686251890
5.9983530005 18.4094188053 21.1923767244
6.6766093611 18.3013753160 21.1144307551
6.2715820904 18.6890021219 20.6795170865
6.1628198845 19.4621501400 5.3401537513
6.8314118515 19.8806366261 5.9670719205
5.3506989909 20.1617497516 16.1177410429
5.4630309741 20.0078489321 16.6800506283
5.8041445039 20.0487839874 17.2604695036
6.1462715473 19.8613646288 17.8590033976
6.4816175027 19.4405669832 18.6206659086
6.1908622337 19.0305563954 19.8676440504
6.5632650247 20.2043984735 6.6953603128
6.3963494023 20.4210177319 7.5304751368
6.2759735230 20.5660204328 8.4413468656
6.1306553130 20.7044202227 9.3668050756
5.9290630541 20.8853575133 10.2544099094
6.7330578291 21.0925614616 11.0633462745
5.7880276433 20.4894245257 16.4204580440
6.2299594631 20.4618769984 16.8727768359
6.3330237223 20.2018758378 17.3612876101
6.5174365632 21.3067844816 11.8819280888
6.3662449140 21.4461991541 12.7313785206
6.2659551148 21.4692842376 13.6129144841
6.2341424310 21.3372023882 14.5166704199
6.1917094974 21.1317202634 15.3064440801
6.4243566365 20.8103663003 16.1279724676
7.3044768332 2.3912409314 20.2910077045
7.4823464290 2.3403648255 19.6414960177
7.9239224369 2.0379388840 20.0370039280
7.6693471280 2.2044777431 20.6285748127
7.3464229303 2.4134495496 20.7754614858
7.7346048090 2.4580485481 21.1653771167
6.7697158223 3.6392627565 17.8046182688
7.3022234232 3.6089554696 17.3226785840
7.6186201539 3.0977362710 17.8203089506
7.6506667256 2.5438922834 18.8345486786
7.3234424656 2.9940520945 21.6597595680
6.9824579985 3.3500397147 21.9184837217
7.6174571894 3.5322560206 22.3096836203
6.8167745303 4.3015530491 16.9754536295
7.5842058964 4.2871585580 16.4464318218
7.5264190523 3.8215849306 16.9005736528
7.0242445087 4.2217746146 22.7235361705
6.6543239723 4.7314683797 23.0237680822
7.4833765059 4.8002009095 23.2338804221
7.0005675093 5.0075175323 16.1990275284
7.2490912916 5.5589674440 15.6257489858
7.7573627353 4.8336461964 15.9055017388
7.3781062032 5.4387591516 23.5940931003
7.4228215115 6.1413213719 15.1425083074
7.1170865762 5.7376579865 23.7468166102
6.5034617242 5.9671070226 23.7423866145
7.4203402762 7.5657482178 14.4100242561
7.6174044544 6.6500315096 14.7715246995
7.1645391949 8.4611513335 14.0270086499
7.4381949932 8.8900365071 13.7776960086
7.9087808183 8.2776475863 13.9689245040
6.7897028524 9.1154842044 13.8650431311
7.2051727986 9.6946728049 13.5779872284
7.3024164601 10.6784104956 13.2964751309
7.1575525615 12.4298333245 2.0266840376
7.1469581535 11.9573644420 2.5506307701
6.9304986353 11.8375013036 2.9862162733
7.2802400244 11.9842076962 3.3727228367
7.5755617994 11.5542917463 13.0056756585
6.9560768852 12.9499039683 1.4407761733
7.2769205823 13.4498756645 1.1778068875
7.5531395537 12.9531160776 1.5070653841
7.1985736381 12.2000674165 3.9655204721
6.9845197956 12.5340444191 4.7733151838
7.0962238025 12.8467620233 5.3644646180
7.4423948319 13.0344738283 12.2887663003
7.8609563766 12.2931126168 12.7162392592
7.2502921095 14.0869595256 1.0368424039
7.1007596665 13.3187525674 5.9801562231
6.7738564492 13.9318106088 7.0683287723
7.5439633272 13.8850970913 6.6268602197
7.1935992371 14.0349321412 11.5641390313
7.4663306827 13.6468828939 11.9228547762
7.7089415997 13.1501011242 23.7513273717
7.2882301680 13.8728749211 23.5610934636
7.6179823673 14.6133991638 1.0971854941
7.4397372368 14.3775500926 7.4209121697
7.0776310051 14.6934592837 8.1902708945
7.6707457922 14.8799687999 8.0917771421
6.6965101484 14.7522687527 10.6218484876
6.0391664288 14.8950237702 11.5881127379
7.2300001498 14.5731125698 11.2147137252
6.9660626612 14.6620466551 23.2987273850
7.7500770070 14.3594550438 23.2017466562
7.1416842604 15.1604849167 23.0055443488
7.1422959539 15.1742914379 1.3168296244
7.6126086679 15.7517394896 1.6877984618
7.1679657406 15.0349641038 8.8199562486
7.4026807658 15.3862122573 9.6610989219
7.2108117941 15.1115841992 10.5544143376
7.1988492657 15.9398248038 22.5979486537
7.1091205220 16.3097347637 2.1527709140
7.6384631003 16.8635600907 2.6543821231
7.7125963605 16.9928451290 11.5599940185
7.8036083993 16.8295321638 11.4236060168
7.7967609062 17.0514699484 11.4222373544
7.7851888754 17.0044424164 11.7636081636
7.2197397989 16.7572135973 22.1758175283
7.1173482745 17.4027025356 3.1732640836
7.6468881544 17.9340501809 3.6987742284
7.7406866797 17.1425442338 11.6303719376
7.8451153400 17.9353699446 12.4317854494
7.7647405153 17.8728991939 12.6192881189
7.7997351084 17.6760011741 12.4380118619
7.8457346947 17.7682953446 12.7856487824
7.2162390934 17.2407908323 21.8977799938
7.1281953724 17.7209949332 21.5178134707
7.1269340553 18.4616453350 4.2277784766
7.6690500920 18.9704163251 4.7693523559
7.8911149264 18.0276641151 12.7794223700
7.1767317704 18.1193879287 21.0708872099
7.0266789298 18.5179231700 20.5136264703
7.2097276133 19.4582272822 5.3362725713
7.8602970068 19.8635670566 5.9519679710
7.1402089133 20.0007436392 17.1483708121
7.5582242619 19.7354725999 16.8570459768
7.3651754349 20.2134122872 16.4394945637
6.6966965891 19.9490288194 17.6488120639
7.3156915797 19.5076798928 17.7716888774
7.3656772113 19.1514430932 18.7053880168
7.1424950181 18.9329524620 19.5356573486
7.5945828876 20.1868235978 6.6712671160
7.4260266636 20.4002311053 7.4980932908
7.3120319176 20.5377356680 8.4038415283
7.1814659462 20.6719471977 9.3346675829
6.9782876497 20.8614217766 10.2277827314
7.7607826692 21.0470579055 11.0348292833
6.7612081738 20.3940834454 16.8694326979
7.0783215825 20.6648210222 16.1054880470
7.5173600706 21.2755983160 11.8252791058
7.3260484150 21.4118461058 12.6218337426
7.1947228890 21.4250679632 13.4506495613
6.9969423366 21.3538328017 14.2222829593
7.1006749327 21.0420558856 15.1732605254
7.9422997526 2.1172475243 19.3653398211
8.4680668077 2.0339654270 18.8694732197
8.4029174399 1.8460340501 19.5130491599
8.6966784400 1.7222922618 20.0655851173
8.2948834289 2.0189052584 20.6983147607
8.7014217946 2.2784646444 21.3520156381
7.8027797907 3.4234767148 17.1584409237
8.1105927784 3.7086363901 16.6743324960
8.4501293046 3.1409547599 17.1415625266
8.6219656770 2.4895757530 17.9453933264
8.1752697646 2.8333549220 21.8427252062
8.6239672712 3.2371470705 22.3017949468
8.2755723184 4.2350887842 16.1299756906
7.8386293087 4.1765024965 22.8917164079
8.7062805639 3.8963553192 22.7698791808
8.1615044728 5.3298814080 15.3802444882
8.2777286367 4.6930694827 15.7654568403
8.3742314280 4.5413287877 23.1663941434
8.6222436532 5.2698736688 23.5185839841
8.0261851705 6.0893631722 14.9414307717
8.3959232170 6.5927502640 14.6228830999
8.5957775517 5.8026961055 14.9525852206
8.0379931750 5.5990306841 23.7162501836
8.6689703440 7.5478248000 14.2488188088
8.1564375944 9.0703327211 13.6881557112
8.6613523388 8.3659893757 13.9395212052
7.9749072193 9.9371613059 13.4509731010
8.2653217263 10.6920643695 13.2933083513
7.4972063417 12.1092634547 2.4690456551
7.5050560070 12.0196347353 2.8860021573
8.5943641234 11.6700848890 13.1006726012
8.7587338238 11.6619650246 23.8850144330
9.1563571549 11.0070784036 23.8771650770
8.9329823493 11.6697738483 23.8125661709
7.9837064174 13.3378931319 1.3572547202
8.3108209041 13.0395756839 1.9308237092
7.9874468833 12.4398300035 2.5872950839
7.8863548330 12.3621777373 3.4873009341
7.7578965262 12.5811685184 4.3884262199
7.5907195187 12.8716751396 5.1136181719
8.0679380016 12.8863179522 4.7373689070
8.1212071084 12.8469366381 12.5544348784
8.4956475083 12.4408002652 12.8255324539
8.4109371665 12.2957463025 23.8248904473
8.4692052612 12.7102816779 23.6518181639
8.1165236949 14.0041755217 1.1481580437
8.5457363218 13.6123591769 1.4612215800
8.2076295706 13.3263170158 5.2457593334
7.9463699521 13.6799654109 6.0443605982
8.3571248840 13.7566089028 5.8069264849
7.7135797272 14.1958454879 11.8074638622
8.1035203212 13.5464253539 12.3130818529
8.3813409411 13.5362774099 23.3635927725
8.3277408609 14.6750049401 1.1606067278
8.3594566893 14.2630405526 6.4659068072
8.0865810168 14.7128691442 7.4339888788
8.2391637537 15.1376611260 7.9321761379
7.9123036994 15.1803721541 11.7071736715
8.3849369291 14.3616707157 12.3392062263
8.5241011527 14.0448509399 23.0749304648
8.1643627858 14.9261229584 22.7646187640
8.0416946489 15.1810016518 1.3286923814
8.5663630626 15.6941275103 1.7257090459
7.9564624406 15.4178175258 8.7482734979
8.0315613845 15.9386897335 9.6666293064
8.3525199428 15.8755473221 8.9647313454
7.7509564607 15.7873371394 10.6457372777
7.9169099190 16.3945337833 11.6494061779
8.8036110277 15.0220456452 12.8526188146
8.3866852352 16.0887300920 12.7840790316
8.9728141860 15.6470043276 13.4044648232
8.1123286050 16.0175563575 22.2317880277
8.1374952048 16.3005251480 2.1596659707
8.6685023109 16.8387655417 2.6793665242
8.6450077586 16.4459055345 9.3017812433
8.9190934157 17.4033254271 9.8938149591
8.1030142135 16.7907443456 10.7317634884
7.9750608290 17.1845122622 12.5359324106
8.9821498836 16.2101509032 13.8582572195
8.4483138962 16.9836328508 13.5646354654
8.9020970213 16.8630400376 14.3575178164
7.7762801045 16.9793249674 21.7929533289
8.3366053875 16.4623392265 21.8846544044
8.4597485116 16.8469825717 21.5143874779
8.1665970874 17.3973602268 3.1783726436
8.6827691150 17.9140468546 3.7109449640
8.4666329547 17.8188481910 10.8541542008
9.0076952238 18.2944079646 10.3976051812
7.9477783361 17.5501291864 11.7788059212
8.1682246407 18.0032563154 13.5007502910
8.5861037943 17.5153112418 14.3894170200
7.8453778902 17.7312133226 21.0358162150
8.6631034565 17.2363208186 21.0405811976
8.5834020275 17.7549616911 20.4894152795
8.1702103495 18.4494978399 4.2330734438
8.6841526378 18.9375502574 4.7820264145
8.6941843021 18.4515284048 10.9180309047
8.7736430580 18.8430378233 11.2166621966
8.4156079725 18.3845201021 11.4997170177
8.1987517829 18.4329108570 12.5215555741
8.3392654549 18.8838602997 13.5159278272
8.4202054165 18.1416496162 14.6525790645
8.2873553593 18.9271504154 14.7214781976
8.2572156797 18.9243281459 15.9369291428
8.5192558656 18.3534368367 15.5110738586
8.0325458969 19.1160286984 17.0131879683
8.5824035377 18.4392278606 16.5795336630
7.9773241604 18.9265029582 18.2489267219
8.6681982176 18.4370304890 17.7959560775
7.9236792823 18.7175364096 19.2268948185
8.5918831781 18.4251167497 18.8649077481
7.8599934373 18.3648782896 20.1163136062
8.5779658751 18.1918828834 19.7321939954
8.2325317506 19.4370507660 5.3342013369
8.8241281975 19.8117866720 5.9228225666
8.7100419716 19.0471876093 11.8606892259
8.6991540992 19.3997865673 12.8509566041
8.5103479968 19.5367206316 13.9593134374
8.3041896167 19.7192114627 14.7870130994
8.1985834772 20.2611791437 14.9784422347
7.9568013926 19.7010373189 15.8186662399
8.5746621058 20.1327903706 6.6111301716
8.4109073091 20.3375837318 7.4236565529
8.2849148334 20.4639449091 8.3091339137
8.1980461668 20.5670648204 9.2472334655
8.0345817407 20.7662171019 10.1864741824
8.7410264178 20.9241224192 11.0391065819
7.6386487657 20.4971925410 15.6183617823
7.9627103509 20.7675454121 14.8674172728
8.4559239557 21.2121872484 11.7647752870
8.2501623768 21.3471969170 12.4976491947
8.0019938729 21.3679959965 13.1896799735
8.0277906913 21.1513974562 14.0449064840
9.1824357506 1.5669547868 19.3102443515
9.7589895956 1.5208791201 18.6889287204
10.0824965107 1.2686073693 19.2356606787
9.7837703544 1.2858386389 19.7876701193
9.3366908502 1.4677528683 20.0632492514
9.9162909531 1.3636973467 20.3706026740
9.2252804263 1.8898874923 18.4029406715
9.5113206934 2.2014017977 17.7279251979
10.0000568710 1.7893155467 18.0684535133
9.2428616103 1.7486000070 20.7385318932
9.6928657175 2.1487716806 21.4313776904
8.9722155422 3.6220421177 16.3795500373
9.5667793795 2.8012065120 16.9982077236
9.1433881929 2.7247022196 21.9300978947
9.4877174567 3.3062254736 22.4062546090
8.8970709002 4.4724995484 15.7207175905
9.8404377616 4.5720229739 15.4819657905
9.5937949198 3.9342324868 15.9086901007
9.7802327562 3.9667810888 22.8328307033
9.1014541846 5.1944180496 15.2011947547
9.3083759681 5.9431467008 14.8145475687
9.7876659967 5.2767928852 15.1038936590
9.2161565386 4.5815170837 23.1847420695
9.6632406390 5.1739062589 23.4214139651
9.1878479638 6.7407336305 14.5120964606
9.0031727180 5.8429584805 23.7332266116
9.7979456319 6.0626185673 23.6532496781
9.5450857154 7.2771834559 14.4050727806
9.5642601059 6.3091044446 23.7904759753
8.9771638333 8.8926586770 13.8267722047
9.5752891881 8.2705915733 14.1867187673
9.8674817553 8.4910624042 23.9021581215
10.0144596555 7.8197167544 23.8482539458
10.0434627558 8.4766731430 23.8354275204
8.8644380252 9.7625235172 13.6048798331
9.5388060069 9.2282648850 13.9201873916
9.7794586723 9.1257467077 23.8943037064
9.9627067794 9.4345600280 23.8067653960
9.1972161090 10.7745760041 13.4769205224
9.5658687162 10.0539856926 23.8750343099
9.6612520982 10.6255919381 23.7628723758
9.5495996867 11.6751760566 13.4251712021
9.4708509574 11.7324119183 23.5916483864
8.5593597885 12.8558589243 2.5139926885
8.5893385175 12.8403007884 3.1303133457
8.4437087632 12.9492414848 4.1617832492
8.7127169951 13.0566091801 12.7563211723
9.1545732268 12.4371539490 13.1066167881
9.2700784653 12.7762508402 23.3306942029
8.8618335746 14.0555924045 1.3755918060
9.2461621867 13.9237610712 1.9360230842
9.0921330617 13.3749930305 2.6480572341
9.1334941713 13.4196125394 3.6370727234
8.9594808021 13.5770488945 4.6055655427
8.7632191226 13.8749755258 5.4620841952
9.2821105100 14.0976367330 5.0113474264
8.8638793411 13.8253170843 12.7471347608
9.4369686124 13.2732695942 13.1476962385
8.9811358344 13.5041505635 23.1547695812
9.3825942980 13.2654159639 23.0839849547
9.2769858845 13.9398430768 22.7646635919
8.8442402581 14.5049173975 1.2646082971
9.2770022114 14.4184652994 1.5261849710
9.1447471444 14.4187469900 5.7099062806
9.0940345171 14.8622238310 6.4087606751
9.4277690314 14.8111444576 5.8487263947
8.6463295290 15.0153458301 7.2397998228
8.9046036208 14.3865998988 12.7855064894
9.5494586599 14.2419341664 13.3124135936
9.0124558060 15.0862151179 22.2976845990
8.8126414858 15.0811995782 1.4005970058
9.4426593615 15.4963708046 1.8659414946
9.6277750887 15.2841528506 6.1765783241
9.6320216361 15.7088609477 6.7744372600
9.2450786297 15.4636340379 7.0323847967
8.7568879440 15.7496171902 8.1507521621
9.2632870726 15.7054552260 13.8222055289
9.6195704291 15.1347085488 13.7926561559
9.6178107515 15.7597627477 14.2999187091
8.9227977038 16.0136950247 21.8296759387
9.5930256239 15.2639918014 21.8644245442
9.6804275432 15.8574886526 21.4492810823
9.1124570449 16.2270920806 2.2292379554
9.6393161225 16.7792134201 2.7763563022
9.6415368497 16.2049502003 7.4364701860
9.2493482827 16.5326890496 8.5259893985
9.1648748722 16.9344175162 9.1391920701
9.4565051894 16.9539966423 8.7796900618
9.1036167519 17.2016276087 15.1733370676
9.5727223687 16.3620572500 14.8822150505
9.6325732724 16.8034448751 15.5897052667
9.1345799470 16.5974024072 21.2883316173
9.7565323199 16.4481983698 20.9536661354
9.2317975795 17.1258345832 20.7260311864
9.1830849160 17.3644227533 3.2124843642
9.6616834535 17.8503487181 3.7508930130
9.5880290636 17.4255738771 9.1003155353
9.6014012567 18.1937807087 9.6894307266
8.7021147372 17.8135083750 15.1423253070
9.4542860734 17.2037740931 15.9528001062
9.0031252954 17.7705223275 16.0366293069
9.1236979712 17.9390622913 17.1617860706
9.6357260282 17.3388383446 16.7969836726
9.2466107543 17.9729919906 17.9686796572
9.6535456367 17.5644635754 17.7450252778
9.5977069500 17.7227491348 18.4062497468
9.2229640608 17.6196757361 20.0950631812
9.1745775191 18.3991458248 4.2574612993
9.6155624738 18.8380739446 4.8342351196
9.0110806288 18.8198130389 10.7827225883
9.4732890056 19.0476221001 10.3291952275
9.1777947332 18.0630791841 18.6151035040
9.1853944847 17.9531440964 19.3890231799
9.1793165569 19.3728822389 5.3487829536
9.6286142827 19.7003197719 5.8986850265
9.1720797891 19.3663451461 11.2148041915
9.1260531133 19.6651831896 12.0326961178
9.1530717577 19.9531735035 12.6435574644
9.4358097888 20.1234807315 12.1759212326
8.9155407875 20.1070392822 13.4604884281
8.5329343850 20.0681887767 14.3105180911
9.4198205796 20.0110213121 6.4914343151
9.2958371074 20.1911672372 7.2546352088
9.1686457908 20.2903067066 8.1497679673
8.9725524445 20.3931086422 8.9792718455
9.1321474251 20.4177375520 10.0736273149
9.5101024526 20.7453969818 11.3233081095
9.4259639929 20.3837293209 12.7374712650
9.2365486043 20.6624465271 13.3759097269
8.9277438936 20.9624472285 13.6395167139
8.6016640442 20.6052082188 14.1616253283
9.2483454960 21.1074674021 11.7728372718
8.9741066918 21.2633142589 12.3134757167
8.9398191598 21.2098277034 13.0564885957
10.4800750154 1.4035277706 18.5648294915
10.9181986510 1.1610818812 19.1861236479
10.5349729377 1.1772855717 19.9429408474
10.5025603343 1.3231867524 20.5797148778
10.2287498479 2.2295741634 17.3910003173
10.9369752344 1.7843276564 17.8207335890
10.1516272801 1.6333507039 20.9510788805
10.7022226551 2.0307471134 21.3802550310
9.8245372297 3.4072475762 16.2840755156
10.3632236253 3.8659601042 15.8793128751
10.5476581214 3.0873949545 16.4705911195
10.3517985192 2.5992301604 16.9270644199
10.1503813370 2.7021324127 21.9355617714
10.4498334935 3.3911919719 22.4151991043
10.4828001656 4.4407863996 15.5553475925
10.6092035157 4.0556079159 22.8476804347
10.0610359150 5.7448764422 14.9470556760
10.5810660564 5.1604883353 15.3284165115
10.1131850167 4.6049732927 23.1635768661
10.5199207123 5.2945345295 23.3472569910
9.9756255994 6.5364448252 14.7099479255
10.5614964922 6.0282466107 15.0464502200
10.6658787140 6.2028300114 23.4833283097
10.2336590076 7.4711406772 14.5930197373
9.9275880782 6.9081325863 23.7962514469
10.4271690091 7.3270493731 23.6597253684
10.4489758272 8.3066004802 14.5480760321
10.5547862737 8.6118836226 23.6331022950
9.7611576839 10.0520727961 13.8340972941
10.3767306004 9.3429895490 14.3159802755
10.4801554578 9.7288713640 23.5838158162
9.9956181327 10.9731590117 13.7567508124
10.3949634329 10.3882650929 14.0929099365
10.3378696812 10.8197185613 23.4672074321
10.1945150737 11.7262729925 13.7239520424
10.6702925815 11.2882726413 14.1293064028
10.2143013012 11.8986581346 23.2189319663
9.9982273846 12.5265908288 13.5229309345
10.5637081932 12.1453173308 13.9158504417
9.9287009384 12.8865242363 22.9530878675
10.4341038858 12.3138679698 22.9443285020
10.5776020258 12.6651194090 22.6311269571
9.5908777835 13.9090511223 2.5581960272
9.7356097373 14.0249340049 3.2631302764
9.5482723455 14.0391660978 4.2546385857
10.1618047885 13.4381405853 13.6064157942
10.1930878580 13.4637975527 22.4435165885
10.7683846936 13.0815165105 22.1837917666
10.6159625718 13.8402506302 21.8535840016
9.3035930939 14.8683548285 1.5223716311
9.7586384930 14.8450179355 1.9757504657
9.9974676712 14.5008516447 2.6495169731
10.2246858052 14.6364867263 3.3768044058
10.4577466782 15.0938883308 3.8646117925
10.0701841275 14.6056170094 4.0628055416
9.7422228514 14.7429122209 5.1469308846
10.4310699249 14.0401544387 13.9632548497
10.0235073669 14.5610152676 13.8087748518
10.3881211197 14.6899826260 14.2433927418
9.8669472617 14.4213949697 22.1358700538
10.3681404793 14.9777298223 21.4204569542
10.0973090887 15.5437015017 2.2616827897
10.3568911806 15.3172724974 4.6618421808
10.1465899236 15.5751800312 5.6185701940
9.9635599528 15.9029202306 6.4661694897
10.3579008549 16.1974684566 6.0729452744
9.9779457809 15.8089632875 14.7987947303
10.3584306338 15.2493108045 14.7257508764
10.3042874570 15.8230873750 15.3266887623
10.1720085874 15.8406441720 21.0841335126
9.9606387182 16.1333841434 2.4311541461
10.5126639512 16.7002549333 3.0403096874
10.2293417393 16.5208678979 6.7983114385
10.1195524942 16.8390314508 7.4929547247
10.4383404230 17.1108416015 7.1445409185
9.8055355953 16.9923888072 8.2702957571
9.9102858641 16.8472887161 16.2568820827
10.1107046737 16.3627579455 15.7916705440
10.1343270859 16.8741896941 16.8888033209
10.4035811556 16.4381892670 16.5922291159
10.4696195410 16.6094845158 17.2460673177
10.2520965381 16.2435575340 20.6433761765
9.8869959486 16.9270503126 20.2649422261
10.1096191054 17.2966921185 3.3088654868
10.4933286112 17.7137286306 3.8264686682
10.3129569582 17.4192617043 7.8696617210
10.1132492107 17.6590792218 8.6241574712
9.9753873528 17.9482718068 9.1497092922
10.2667813830 18.1343432991 8.8955818676
10.1291767461 17.0529573197 17.5356073602
9.6904214826 17.6270785216 19.0517285337
10.1098578359 17.1958483022 18.4727535270
9.6761099617 17.4858152502 19.7012220490
10.1564442102 17.0460991969 19.4419999633
10.0832207862 18.2580106793 4.3213556226
10.3841279061 18.6008420553 4.9762316696
10.0998875137 18.3604960486 9.2770092847
9.9921960065 18.8791997260 9.5344526937
9.9630347729 19.2324430264 5.4346131747
10.1568784747 19.5308567841 5.9485817226
9.5317008923 19.9959527394 10.8938412771
9.7655091005 19.6416574553 9.8120488078
9.4561575799 19.9652593544 11.6228159584
9.9782620214 19.8212754896 6.3354343677
9.9813589833 19.9219920780 6.9317744077
9.9218394709 19.9685883973 7.7959404514
9.7440234518 19.9813354938 8.8916276266
9.7205410564 20.5595925811 11.9528699055
9.8300998870 20.8670596114 11.7633867019
9.6517928744 20.7875717448 12.7655456983
9.3859927502 20.9703093800 13.1853534967
9.6083383654 21.0485337520 12.7857247372
9.7276068914 21.0176105309 11.8329053914
9.5798950561 21.1318680261 12.3297081471
11.2941522041 1.3292894064 18.5141235282
11.6196402492 1.1572122860 19.0661715579
11.4797610767 1.1791082611 19.8176502718
11.0648873657 1.3032525195 20.4985469137
10.7725482602 1.5273613423 20.9289133517
11.2855708651 1.6697535107 20.9727022600
11.0373129978 2.4621288718 17.0071098921
11.7815762652 2.5931878046 16.8696082345
11.7963348989 2.0663762878 17.3817183071
11.7037577276 1.5888465911 18.0022024382
11.3474463517 2.0728863492 21.3082881228
11.0454326587 3.6357195677 16.0710830284
11.5157559752 3.1859566096 16.4551631685
11.2790201294 2.7650197625 21.7701732523
11.2051771973 3.6815011213 22.4648828846
11.0690359325 4.3544078506 15.7406471752
11.5705454059 3.9047792001 16.0677363400
11.1289208600 4.2427473905 22.8615381414
10.7575089537 4.5804059598 23.1015495104
11.2161292889 4.8181957375 23.0302129767
11.3824372166 5.1225281021 15.6633488488
11.2455757343 5.6565460049 23.1745410768
10.7653044374 6.8222551140 15.0072988714
11.2773807842 6.0583940137 15.4998555883
11.2579676077 6.6719048844 23.2646613529
10.9156077063 7.7901500517 14.9585702505
11.4114545738 7.2246682318 15.5242108397
11.2485775965 7.8112266862 23.3091695879
10.9800661404 8.7598837801 14.8589940240
11.4218292891 8.2930155941 15.4606795128
11.2311005137 8.9654425616 23.2883013035
11.0505406389 9.5396296775 14.7620891867
11.4061116961 9.3745851249 15.3005105986
11.1246794132 10.0598935892 23.2099555410
10.9615550748 10.3140638859 14.5541130445
11.2678542823 9.9276369553 14.9279017985
11.5128497983 11.2412477191 15.6975575344
11.5312991671 11.0365664685 16.3868945526
11.5631064378 10.5447607061 15.9450810480
11.5666549749 10.9229194849 17.1183991960
11.6309736687 10.3228305002 16.5989651049
11.6462995702 10.8977363672 17.7389031532
11.7183020932 10.2906540799 17.3969414188
11.7970841316 10.5514714191 18.0948663527
10.9717128033 11.0529224957 23.0688523702
11.1666172503 11.2020533951 14.6434915918
11.5127420962 11.7748688525 16.2010270570
11.5239225566 12.1018012169 15.6281582613
11.5118946392 11.6338993150 16.9125292677
11.5851918545 11.5206103703 17.6524325482
11.7439561972 11.2798812011 18.3258838202
10.9012814844 11.8998241068 22.7846733770
11.3780632979 11.2876937470 22.6237167250
11.3744905420 11.7943638375 22.3428357703
10.6310002930 12.8895978917 13.9375668387
11.0494130005 12.2145369558 14.4309815574
11.5548656577 12.3990671017 16.1185342792
11.5743936476 12.7889923181 15.8320150005
11.5489591306 12.3492773765 16.7176110502
11.5890759862 12.2572817963 17.4772975102
11.7056863014 12.1278237251 18.2642166812
11.0919951341 12.4304973622 22.2718992510
11.4931666899 12.1408411911 21.8656304814
11.2400793020 13.0292700542 21.5963356386
10.6229474401 13.4713798758 13.9473278708
10.9876722924 13.3921934403 14.4238311793
11.6167035033 12.9938685007 16.4751196810
11.6549124743 12.9858300246 17.3091718978
11.7084628396 12.8090741089 18.0306970765
11.0876319094 14.0781681514 21.1723514473
10.3612573142 15.2737575285 2.6217555843
10.5084606859 15.1616536899 3.2595390412
10.7300935272 14.7361665519 14.6583505151
10.8877055438 14.2594849876 14.5787321927
11.0045331213 14.6704655713 15.1002925162
11.0379736659 14.8771999753 20.7503336143
11.4027307580 14.2844049379 20.5630954601
11.3751635765 14.7770837121 20.2069803910
10.5325359674 15.9784051856 2.7818724480
10.7286885926 15.7468659329 3.2076268798
10.7940538916 15.9347096799 4.1213748547
10.5989710095 16.1375803690 5.2975010825
10.6884231352 15.8624267317 16.1785237831
10.8907526711 15.2444290171 15.6240876756
10.8834936496 16.0020099740 17.1993456258
11.1978851124 15.2475164874 16.5426283561
11.0638313093 15.9034829857 18.2632927319
11.3634706638 15.2397823253 17.5498453842
11.0998094306 15.7428343919 19.2558964748
11.4403793900 15.1597755900 18.5717075555
11.0801142393 15.4108829934 20.1122313069
11.4416426306 14.9828711677 19.5137937998
10.6289425580 15.6224225152 20.7111481641
10.9860520261 16.5085948458 3.5176222254
10.9695992709 16.8972052832 3.3794741341
11.1332055950 16.7442833567 4.2521679006
11.1996586417 17.3368505108 4.5599881503
10.9516782100 17.0030858240 5.1387618555
10.6381461669 16.9541238637 6.2837159716
10.5999159630 16.5753679233 17.9611141200
10.6577432621 16.4960413319 18.9243262174
10.5911521706 16.2526060182 19.9529708959
10.8036733473 17.2290831776 3.4754641258
11.0050303846 17.5178518468 3.8830067700
10.9062326809 18.0730577683 5.2470547880
11.1394839653 17.7188145685 4.5879048217
10.8365659981 17.9328335791 6.2770221467
10.6362026973 17.8646273719 7.3464341783
10.4507733316 18.0772637304 8.3324326078
10.8361341989 17.9369042385 4.4108534804
10.4949659009 19.0215213387 5.7197861018
10.7140165807 18.8493159793 6.3594677079
10.6882110507 18.7617539633 7.2690005403
10.5550265744 18.7103852439 8.1935576179
10.3548634914 18.5996562403 8.9113091422
10.3787602493 19.5158359679 6.4168968570
10.4396165519 19.4864304600 7.1765986895
10.3696040622 19.4338511062 8.0991497247
10.2317599932 19.2628672682 8.9603216156
9.8726586698 20.9509575595 12.0401309909
9.8253710237 20.9353372902 12.3852335231
11.9933558264 1.3306044923 18.5380762710
12.2039240277 1.2298201957 19.3134406217
12.1218767031 1.4317279134 20.1282466842
12.5902834496 1.4260526403 19.8328146003
11.6260314823 1.4413744798 20.5005492659
12.1860051450 2.4503796447 17.0114210591
12.3555850823 2.1642647466 17.3008093027
12.2928682864 1.7218047750 17.8549324459
12.4898523197 1.7747887073 20.3689989576
12.6287585880 2.4778211957 20.7886043302
11.9331973488 2.0138850646 20.9248187515
12.1822605457 2.9783515065 16.6809789588
12.5120429054 2.5964019448 16.9786894527
12.2027480725 2.9433206363 21.3936977138
11.8671874028 3.6015644786 22.0352815746
12.4448071736 3.8116857980 21.6200515248
11.8116508178 4.6078165477 15.9740414559
12.1526433825 3.8810573721 16.3277925635
12.1363981509 4.4293479746 22.1867080226
12.5926213476 4.7622697275 21.6962893908
11.6052015730 4.2618003567 22.6008039438
11.9543525205 5.5415908983 16.0088537552
12.3627357104 4.9300175698 16.2877230414
12.2572844743 5.3452673168 22.2758127340
12.6534790189 5.7517875941 21.7682244419
11.7608176226 5.0532797282 22.7307300751
12.0090411389 6.6740059720 16.2573832067
12.5199691498 5.9155923794 16.6242289063
12.3420152661 6.2588955078 22.3193087053
12.6651174357 6.5158163431 21.8882507316
11.8401930512 5.9954478705 22.8076450135
11.8376365819 7.8562725867 16.2287969042
12.4928017163 6.6865217609 17.0146532933
12.2683362938 7.5650051805 17.1983066409
12.5175411412 7.7140050276 18.2294648442
12.6554656304 6.9961232291 17.7653348564
12.6732006498 7.7308796696 18.9068124504
12.7813109256 7.1783465709 18.6114272485
12.8480436811 7.4101782223 19.2614921953
12.4778979093 6.9610672416 22.2410628665
12.4490549029 7.7518316927 22.3136182627
11.9689267708 7.0926269633 22.7825384869
11.7175522345 8.8974663323 16.1128002976
11.9927819067 8.6549609348 17.0405148695
12.2591860245 8.5603807786 18.0596627511
12.5159581241 8.3952899976 18.9227660140
12.7687113680 8.0358846330 19.5383789242
11.9103523904 8.2821281890 22.8590469564
12.4101605297 8.7033212649 22.3240856794
11.6238115105 9.8314959013 15.9775868402
11.7923308395 9.5721548622 16.8338273434
11.9781251814 9.6648249360 17.9336895010
12.3081901243 9.4641202924 19.1200469756
12.6407776180 8.8594047967 19.7443163318
11.8756365180 9.4369859251 22.7408312405
12.3698948182 9.4178495881 22.1888954580
11.4169011545 10.4971688318 15.2265020563
11.9917742290 10.6876087701 18.9819387646
12.5161342873 9.5682723937 20.0518907854
12.2550797579 10.4068966117 20.1795689650
12.2494024259 10.4348946433 21.2869717518
12.5548361511 9.7447137793 20.7973329167
12.1162515301 10.1397545712 22.1276457675
12.5151172595 9.6613215336 21.6043132001
11.5973120268 10.5251949313 22.6842009563
11.4070320711 11.6716403517 15.0826269626
11.8621768761 11.8664536001 19.0939369274
11.9872881794 11.5084340288 20.0355069851
12.0429693599 11.1842421186 20.9102568563
11.7961498242 11.2267006290 21.9059228540
11.4163077074 12.8179282412 15.1803051158
11.8144837336 12.9023328756 18.9197894613
11.8464102421 12.5680172464 19.9197885114
11.7580532806 12.1751843253 21.0077975791
11.2957747083 13.8991484638 15.1728865531
11.5681721451 13.6237574946 16.0294885168
11.6804900008 13.7241432467 17.0898640340
11.7526667962 13.6092619074 18.1733407064
11.7937169507 13.7294975299 19.1259135567
11.7956903053 13.3874235297 19.7101835484
11.5937847408 13.4071130339 20.5851606010
11.3435431961 14.5451065433 15.8719194888
11.5448845727 14.4972527581 16.8154920292
11.6406122006 14.4702426216 17.8498733335
11.6781864854 14.3931754051 18.8685955385
11.6433162812 14.1717054106 19.8380365780
11.1523940834 17.1167429188 3.7001207444
11.2490033579 17.0284279922 4.0164421526
11.2094745829 17.4575194185 4.1725732901
12.4389060259 1.3877388040 18.5741162996
12.6108339840 1.2902599991 19.3408529302
12.7667752019 1.4457517846 19.7672284282
12.5877414268 2.1429882463 17.3911132209
12.5583368888 1.7054783537 17.9239798761
12.7655528920 1.8586730168 20.2427253659
12.8577094729 2.5045804048 20.6184902645
12.5148498769 3.2868376180 16.6524313799
12.6576824457 2.6631248224 16.9860001437
12.6758851927 3.2924622621 21.1735553882
12.8899649781 3.3451217843 20.9185182083
12.5326243256 4.3489019064 16.4295914316
12.8314280805 4.1394900610 21.2218924296
13.0199863216 4.5643618957 20.9218068366
12.6645485014 5.2888500489 16.5731093340
12.9403718898 5.3510156497 21.1087259686
13.1081839192 5.6142176997 20.5296268373
12.8316811384 5.9607219840 17.0838047035
12.7995044374 6.3910209983 17.4065304622
12.9333933511 6.6414147197 18.2688204375
12.9859081248 6.3189320040 17.8611535752
13.0127819892 6.7909297354 19.2864221259
13.0789110397 6.4509925419 18.7774541397
13.0665444970 6.4609796390 20.4091524376
13.1293780011 6.2754889655 19.7412087322
12.8999346139 6.4568169345 21.3121616850
12.9742963045 7.4257426344 19.9809302126
13.0164115830 7.5638958526 20.9603182453
12.7750078257 7.2424090834 21.7462338185
12.9356826974 8.3622817389 20.4533936181
13.0892707503 8.1715982560 20.8946791611
13.0731217243 8.1383951188 21.2028044392
13.0325981338 8.4970716806 21.2525665285
12.8490551587 8.2499652102 21.6319016510
12.7339738811 9.1446578817 20.4364208505
13.0487471598 8.5302748178 20.9444412503
12.8503739665 8.9448893843 21.1402697571
12.6586820624 9.0272928126 21.8289811879
3 2 1 0
3 0 3 2
3 6 5 4
3 6 4 1
3 4 0 1
3 4 7 0
3 3 0 8
3 8 0 7
3 4 5 9
3 9 5 10
3 12 7 11
3 7 9 11
3 7 4 9
3 7 12 8
3 9 10 13
3 13 10 14
3 11 9 15
3 15 9 13
3 14 16 13
3 13 16 15
3 19 18 17
3 21 20 17
3 17 20 19
3 21 22 20
3 25 24 23
3 25 23 18
3 18 23 17
3 23 1 17
3 1 2 17
3 17 2 3
3 26 17 3
3 21 17 26
3 22 21 27
3 27 21 26
3 23 24 6
3 24 5 6
3 24 28 5
3 23 6 1
3 8 29 26
3 8 26 3
3 27 26 30
3 30 26 29
3 33 32 31
3 28 33 31
3 10 28 31
3 5 28 10
3 11 34 12
3 29 8 12
3 34 29 12
3 35 29 34
3 30 29 36
3 36 29 35
3 31 32 37
3 37 32 38
3 37 14 10
3 37 10 31
3 15 39 34
3 15 34 11
3 41 35 40
3 35 39 40
3 35 34 39
3 35 41 36
3 37 38 42
3 42 38 43
3 44 16 14
3 37 44 14
3 42 44 37
3 39 15 16
3 44 39 16
3 45 39 44
3 40 39 46
3 46 39 45
3 43 47 42
3 42 47 44
3 44 47 48
3 44 48 45
3 45 48 49
3 45 49 46
3 52 51 50
3 50 53 52
3 50 51 54
3 54 51 55
3 53 50 56
3 50 57 56
3 50 54 57
3 59 58 57
3 57 58 56
3 59 60 58
3 63 62 61
3 63 61 55
3 61 54 55
3 61 64 54
3 54 65 57
3 54 64 65
3 57 66 59
3 57 65 66
3 60 59 67
3 67 59 66
3 62 68 61
3 70 69 68
3 69 61 68
3 69 64 61
3 64 71 65
3 64 69 71
3 65 72 66
3 65 71 72
3 67 66 73
3 66 74 73
3 66 72 74
3 74 75 73
3 70 76 69
3 78 77 76
3 77 69 76
3 77 71 69
3 71 79 72
3 71 77 79
3 72 80 74
3 72 79 80
3 75 74 81
3 74 82 81
3 74 80 82
3 82 83 81
3 78 84 77
3 77 84 79
3 79 84 85
3 79 85 80
3 80 85 86
3 88 87 86
3 87 80 86
3 87 82 80
3 83 82 89
3 89 82 87
3 88 90 87
3 87 90 89
3 93 92 91
3 91 94 93
3 97 96 95
3 97 95 92
3 95 91 92
3 95 98 91
3 94 91 99
3 91 100 99
3 91 98 100
3 102 101 100
3 100 101 99
3 102 103 101
3 106 105 104
3 106 104 96
3 104 95 96
3 104 107 95
3 107 18 19
3 98 107 19
3 95 107 98
3 98 19 20
3 98 20 100
3 100 20 22
3 108 100 22
3 102 100 108
3 103 102 109
3 109 102 108
3 104 105 110
3 110 105 111
3 110 24 25
3 107 110 25
3 104 110 107
3 107 25 18
3 27 112 108
3 27 108 22
3 109 108 113
3 113 108 112
3 116 115 114
3 116 114 111
3 114 110 111
3 114 117 110
3 117 28 24
3 117 24 110
3 30 118 112
3 30 112 27
3 113 112 119
3 119 112 118
3 114 115 120
3 120 115 121
3 120 32 33
3 117 120 33
3 114 120 117
3 117 33 28
3 36 122 118
3 36 118 30
3 119 118 123
3 123 118 122
3 120 121 124
3 124 121 125
3 124 38 32
3 124 32 120
3 40 126 41
3 122 36 41
3 126 122 41
3 127 122 126
3 123 122 128
3 128 122 127
3 131 130 129
3 129 132 131
3 135 134 133
3 135 133 125
3 133 124 125
3 133 136 124
3 136 43 38
3 136 38 124
3 46 137 126
3 46 126 40
3 126 138 127
3 126 137 138
3 128 127 139
3 139 127 138
3 142 141 140
3 142 140 130
3 140 129 130
3 140 143 129
3 132 129 144
3 129 145 144
3 129 143 145
3 147 146 145
3 145 146 144
3 147 148 146
3 133 134 149
3 149 134 150
3 133 151 136
3 133 149 151
3 152 47 43
3 136 152 43
3 151 152 136
3 153 48 47
3 153 47 152
3 154 49 48
3 154 48 153
3 137 46 49
3 154 137 49
3 155 137 154
3 137 156 138
3 137 155 156
3 139 138 157
3 157 138 156
3 140 141 158
3 158 141 159
3 140 160 143
3 140 158 160
3 160 51 52
3 145 160 52
3 143 160 145
3 145 52 53
3 161 145 53
3 147 145 161
3 148 147 162
3 147 163 162
3 147 161 163
3 163 164 162
3 150 165 149
3 167 166 165
3 166 149 165
3 166 151 149
3 151 168 152
3 151 166 168
3 152 169 153
3 152 168 169
3 153 170 154
3 153 169 170
3 154 171 155
3 154 170 171
3 155 172 156
3 155 171 172
3 157 156 173
3 173 156 172
3 158 159 174
3 174 159 175
3 158 176 160
3 158 174 176
3 176 55 51
3 176 51 160
3 56 161 53
3 161 56 58
3 161 58 163
3 178 177 60
3 60 177 58
3 177 164 58
3 164 163 58
3 178 179 177
3 167 180 166
3 166 180 168
3 168 180 181
3 183 182 181
3 182 168 181
3 182 169 168
3 169 184 170
3 169 182 184
3 186 171 185
3 171 184 185
3 171 170 184
3 171 186 172
3 172 186 187
3 172 187 173
3 175 188 174
3 189 62 63
3 174 189 63
3 176 174 63
3 188 189 174
3 176 63 55
3 67 190 178
3 67 178 60
3 179 178 191
3 178 192 191
3 178 190 192
3 192 193 191
3 183 194 182
3 182 194 184
3 184 194 195
3 184 195 185
3 189 196 62
3 62 196 68
3 70 68 196
3 70 196 197
3 73 190 67
3 190 73 75
3 198 190 75
3 192 190 198
3 193 192 199
3 192 200 199
3 192 198 200
3 200 201 199
3 197 202 70
3 70 202 76
3 78 76 202
3 78 202 203
3 81 198 75
3 198 81 83
3 204 198 83
3 200 198 204
3 201 200 205
3 200 206 205
3 200 204 206
3 206 207 205
3 203 208 78
3 78 208 84
3 84 209 85
3 208 209 84
3 85 210 86
3 209 210 85
3 212 211 88
3 86 212 88
3 210 212 86
3 212 213 204
3 89 212 204
3 83 89 204
3 211 212 89
3 215 214 213
3 214 204 213
3 214 206 204
3 207 206 216
3 216 206 214
3 211 90 88
3 90 211 89
3 215 217 214
3 217 218 214
3 218 219 214
3 220 216 214
3 220 214 219
3 222 221 219
3 219 221 220
3 222 223 221
3 226 225 224
3 228 227 224
3 224 227 226
3 230 229 228
3 228 229 227
3 230 231 229
3 234 233 232
3 234 232 225
3 232 224 225
3 232 235 224
3 235 92 93
3 228 235 93
3 224 235 228
3 228 93 94
3 236 228 94
3 230 228 236
3 231 230 237
3 230 238 237
3 230 236 238
3 238 239 237
3 242 241 240
3 242 240 233
3 240 232 233
3 240 243 232
3 243 96 97
3 235 243 97
3 232 243 235
3 235 97 92
3 99 236 94
3 236 99 101
3 236 101 238
3 245 244 103
3 103 244 101
3 244 239 101
3 239 238 101
3 245 246 244
3 249 248 247
3 249 247 241
3 247 240 241
3 247 250 240
3 250 105 106
3 243 250 106
3 240 250 243
3 243 106 96
3 109 251 245
3 109 245 103
3 246 245 252
3 252 245 251
3 247 248 253
3 253 248 254
3 247 255 250
3 247 253 255
3 255 111 105
3 255 105 250
3 113 256 251
3 113 251 109
3 252 251 257
3 257 251 256
3 253 254 258
3 258 254 259
3 258 115 116
3 255 258 116
3 253 258 255
3 255 116 111
3 119 260 256
3 119 256 113
3 257 256 261
3 256 262 261
3 256 260 262
3 265 264 263
3 265 263 259
3 263 258 259
3 263 266 258
3 266 121 115
3 266 115 258
3 123 267 260
3 123 260 119
3 260 268 262
3 260 267 268
3 271 270 269
3 273 272 269
3 269 272 271
3 273 274 272
3 263 264 275
3 275 264 276
3 263 277 266
3 263 275 277
3 277 125 121
3 277 121 266
3 128 278 267
3 128 267 123
3 280 268 279
3 268 278 279
3 268 267 278
3 283 282 281
3 283 281 270
3 281 269 270
3 281 284 269
3 284 130 131
3 273 284 131
3 269 284 273
3 286 285 132
3 132 285 131
3 285 274 131
3 274 273 131
3 286 287 285
3 275 276 288
3 288 276 289
3 288 134 135
3 277 288 135
3 275 288 277
3 277 135 125
3 139 290 278
3 139 278 128
3 279 278 291
3 291 278 290
3 281 282 292
3 292 282 293
3 292 141 142
3 284 292 142
3 281 292 284
3 284 142 130
3 144 286 132
3 294 287 286
3 144 294 286
3 146 294 144
3 296 295 148
3 295 146 148
3 295 294 146
3 296 297 295
3 288 289 298
3 298 289 299
3 298 150 134
3 298 134 288
3 157 300 290
3 157 290 139
3 291 290 301
3 301 290 300
3 292 293 302
3 302 293 303
3 302 159 141
3 302 141 292
3 162 296 148
3 305 304 164
3 164 304 162
3 304 297 162
3 297 296 162
3 305 306 304
3 299 307 298
3 307 309 308
3 307 308 165
3 298 307 165
3 150 298 165
3 308 167 165
3 173 310 300
3 173 300 157
3 301 300 311
3 311 300 310
3 303 312 302
3 159 302 312
3 313 159 312
3 175 159 313
3 177 305 164
3 315 314 179
3 179 314 177
3 314 306 177
3 306 305 177
3 315 316 314
3 308 309 317
3 317 309 318
3 319 180 167
3 308 319 167
3 317 319 308
3 320 181 180
3 320 180 319
3 320 183 181
3 185 321 186
3 322 187 186
3 322 186 321
3 322 323 187
3 187 323 173
3 323 324 173
3 324 310 173
3 310 324 311
3 313 325 175
3 175 325 188
3 189 188 325
3 189 325 326
3 191 315 179
3 328 327 193
3 193 327 191
3 327 316 191
3 316 315 191
3 328 329 327
3 317 318 330
3 330 318 331
3 317 332 319
3 317 330 332
3 319 333 320
3 319 332 333
3 334 194 183
3 320 334 183
3 333 334 320
3 335 195 194
3 335 194 334
3 321 185 195
3 335 321 195
3 336 321 335
3 321 337 322
3 321 336 337
3 323 322 338
3 338 322 337
3 326 339 189
3 189 339 196
3 197 196 339
3 197 339 340
3 199 328 193
3 342 341 201
3 201 341 199
3 341 329 199
3 329 328 199
3 344 343 342
3 342 343 341
3 344 345 343
3 331 346 330
3 330 346 332
3 332 346 347
3 332 347 333
3 333 347 348
3 350 349 348
3 349 333 348
3 349 334 333
3 334 351 335
3 334 349 351
3 353 336 352
3 336 351 352
3 336 335 351
3 336 353 337
3 337 353 354
3 337 354 338
3 340 355 197
3 197 355 202
3 203 202 355
3 203 355 356
3 205 342 201
3 342 205 207
3 357 342 207
3 344 342 357
3 345 344 358
3 358 344 357
3 350 359 349
3 349 359 351
3 351 359 360
3 351 360 352
3 356 361 203
3 203 361 208
3 208 362 209
3 361 362 208
3 209 363 210
3 362 363 209
3 210 364 212
3 363 364 210
3 212 365 213
3 364 365 212
3 215 213 365
3 215 365 366
3 216 367 357
3 216 357 207
3 358 357 368
3 357 369 368
3 357 367 369
3 369 370 368
3 366 371 215
3 215 371 217
3 367 216 220
3 217 372 218
3 372 217 373
3 371 373 217
3 375 374 373
3 372 373 374
3 367 221 369
3 221 367 220
3 374 375 223
3 375 370 223
3 369 221 223
3 369 223 370
3 378 377 376
3 380 379 376
3 376 379 378
3 382 381 380
3 380 381 379
3 384 383 382
3 382 383 381
3 384 385 383
3 388 387 386
3 390 389 386
3 386 389 388
3 389 390 377
3 377 390 376
3 390 225 376
3 225 226 376
3 376 226 227
3 376 227 380
3 380 227 229
3 380 229 382
3 382 229 231
3 391 382 231
3 384 382 391
3 385 384 392
3 392 384 391
3 386 387 393
3 393 387 394
3 393 233 234
3 390 393 234
3 386 393 390
3 390 234 225
3 237 391 231
3 396 395 239
3 239 395 237
3 395 392 237
3 392 391 237
3 396 397 395
3 400 399 398
3 400 398 394
3 394 398 393
3 398 241 393
3 241 242 393
3 393 242 233
3 244 396 239
3 402 401 246
3 246 401 244
3 401 397 244
3 397 396 244
3 398 399 249
3 399 248 249
3 399 403 248
3 398 249 241
3 252 404 402
3 252 402 246
3 407 406 405
3 403 407 405
3 254 403 405
3 248 403 254
3 257 408 404
3 257 404 252
3 411 410 409
3 411 409 406
3 409 405 406
3 409 412 405
3 412 259 254
3 412 254 405
3 261 408 257
3 415 414 413
3 413 416 415
3 409 410 417
3 417 410 418
3 417 264 265
3 412 417 265
3 409 417 412
3 412 265 259
3 421 420 419
3 421 419 414
3 414 419 413
3 419 270 413
3 270 271 413
3 422 416 413
3 271 422 413
3 272 422 271
3 272 274 422
3 422 274 423
3 417 418 424
3 424 418 425
3 424 276 264
3 424 264 417
3 279 426 280
3 419 420 283
3 420 282 283
3 420 427 282
3 419 283 270
3 428 423 274
3 428 274 285
3 430 429 287
3 429 285 287
3 429 428 285
3 432 431 430
3 430 431 429
3 432 433 431
3 424 425 434
3 434 425 435
3 434 289 276
3 434 276 424
3 291 436 426
3 291 426 279
3 439 438 437
3 427 439 437
3 293 427 437
3 282 427 293
3 294 430 287
3 430 294 295
3 430 295 432
3 295 297 432
3 297 433 432
3 297 440 433
3 434 435 441
3 441 435 442
3 441 299 289
3 441 289 434
3 444 443 436
3 291 444 436
3 301 444 291
3 438 445 437
3 293 437 445
3 446 293 445
3 303 293 446
3 447 440 297
3 447 297 304
3 449 448 306
3 448 304 306
3 448 447 304
3 449 450 448
3 441 442 451
3 451 442 452
3 453 307 299
3 441 453 299
3 451 453 441
3 453 309 307
3 311 444 301
3 311 454 444
3 446 455 303
3 303 455 312
3 313 312 455
3 313 455 456
3 314 449 306
3 458 457 316
3 316 457 314
3 457 450 314
3 450 449 314
3 460 459 458
3 458 459 457
3 460 461 459
3 452 462 451
3 464 463 462
3 463 451 462
3 463 453 451
3 463 318 309
3 463 309 453
3 466 465 324
3 466 324 323
3 311 324 454
3 454 324 465
3 456 467 313
3 313 467 325
3 326 325 467
3 326 467 468
3 327 458 316
3 458 327 329
3 469 458 329
3 460 458 469
3 461 460 470
3 460 471 470
3 460 469 471
3 473 472 471
3 471 472 470
3 472 473 464
3 473 463 464
3 473 474 463
3 474 331 318
3 474 318 463
3 338 466 323
3 338 475 466
3 468 476 326
3 326 476 339
3 340 339 476
3 340 476 477
3 341 469 329
3 469 341 343
3 469 343 471
3 471 343 345
3 478 471 345
3 473 471 478
3 473 479 474
3 473 478 479
3 480 346 331
3 474 480 331
3 479 480 474
3 481 347 346
3 481 346 480
3 482 348 347
3 482 347 481
3 482 350 348
3 352 483 353
3 353 483 484
3 485 353 484
3 354 353 485
3 338 354 475
3 475 354 485
3 477 486 340
3 340 486 355
3 356 355 486
3 356 486 487
3 358 488 478
3 358 478 345
3 478 489 479
3 478 488 489
3 491 480 490
3 480 489 490
3 480 479 489
3 480 491 481
3 481 491 492
3 481 492 482
3 482 492 493
3 482 493 350
3 493 359 350
3 493 494 359
3 359 495 360
3 494 495 359
3 352 360 483
3 360 496 483
3 360 495 496
3 483 496 484
3 487 497 356
3 356 497 361
3 361 498 362
3 497 498 361
3 362 499 363
3 498 499 362
3 363 500 364
3 499 500 363
3 364 501 365
3 500 501 364
3 366 365 501
3 366 501 502
3 368 488 358
3 488 368 370
3 503 488 370
3 489 488 503
3 490 489 504
3 489 505 504
3 489 503 505
3 505 506 504
3 502 507 366
3 366 507 371
3 371 508 373
3 507 508 371
3 373 509 375
3 508 509 373
3 370 375 503
3 375 510 503
3 375 509 510
3 503 510 505
3 505 510 511
3 505 511 506
3 514 513 512
3 516 515 512
3 512 515 514
3 518 517 516
3 516 517 515
3 518 519 517
3 522 521 520
3 522 520 513
3 513 520 512
3 520 377 512
3 377 378 512
3 512 378 379
3 512 379 516
3 516 379 381
3 516 381 518
3 523 519 518
3 381 523 518
3 383 523 381
3 383 385 523
3 523 385 524
3 526 525 388
3 388 525 387
3 389 520 521
3 526 389 521
3 388 389 526
3 520 389 377
3 392 528 527
3 524 392 527
3 385 392 524
3 528 529 527
3 532 531 530
3 525 532 530
3 394 525 530
3 387 525 394
3 395 528 392
3 395 397 528
3 397 529 528
3 397 533 529
3 536 535 534
3 536 534 531
3 531 534 530
3 534 399 530
3 399 400 530
3 530 400 394
3 537 533 397
3 537 397 401
3 534 535 538
3 538 535 539
3 538 403 399
3 538 399 534
3 538 539 407
3 539 406 407
3 539 540 406
3 538 407 403
3 542 541 411
3 411 541 410
3 411 406 540
3 411 540 542
3 545 544 543
3 414 415 543
3 415 545 543
3 415 546 545
3 415 416 546
3 546 416 547
3 541 418 410
3 548 418 541
3 543 544 421
3 544 420 421
3 544 549 420
3 543 421 414
3 550 547 416
3 550 416 422
3 552 551 423
3 551 422 423
3 551 550 422
3 552 553 551
3 556 555 554
3 548 556 554
3 425 548 554
3 418 548 425
3 559 558 557
3 549 559 557
3 427 549 557
3 420 549 427
3 428 552 423
3 560 553 552
3 428 560 552
3 429 560 428
3 561 429 431
3 561 560 429
3 431 433 561
3 561 433 562
3 565 564 563
3 565 563 555
3 563 554 555
3 563 566 554
3 566 435 425
3 566 425 554
3 569 568 567
3 557 558 439
3 558 438 439
3 558 570 438
3 557 439 427
3 440 572 571
3 562 440 571
3 433 440 562
3 572 573 571
3 576 575 574
3 578 577 574
3 577 563 574
3 564 576 574
3 564 574 563
3 580 579 577
3 579 563 577
3 579 566 563
3 579 442 435
3 579 435 566
3 569 567 443
3 444 569 443
3 581 569 444
3 570 582 438
3 438 582 445
3 446 445 582
3 446 582 583
3 447 572 440
3 584 573 572
3 447 584 572
3 448 584 447
3 585 574 450
3 574 584 450
3 584 448 450
3 574 575 584
3 578 574 586
3 574 587 586
3 574 585 587
3 586 587 580
3 587 579 580
3 587 588 579
3 588 452 442
3 588 442 579
3 591 590 589
3 590 581 589
3 581 454 589
3 581 444 454
3 583 592 446
3 446 592 455
3 456 455 592
3 456 592 593
3 457 585 450
3 585 457 459
3 585 459 587
3 587 459 461
3 594 587 461
3 588 587 594
3 595 462 452
3 588 595 452
3 594 595 588
3 595 464 462
3 591 589 465
3 466 591 465
3 596 591 466
3 465 589 454
3 593 597 456
3 456 597 467
3 468 467 597
3 468 597 598
3 470 594 461
3 594 470 472
3 594 472 595
3 595 472 464
3 601 600 599
3 600 596 599
3 596 475 599
3 596 466 475
3 598 602 468
3 468 602 476
3 477 476 602
3 477 602 603
3 606 605 604
3 604 605 601
3 604 601 599
3 484 604 599
3 485 484 599
3 485 599 475
3 603 607 477
3 477 607 486
3 487 486 607
3 487 607 608
3 490 609 491
3 610 492 491
3 610 491 609
3 611 493 492
3 611 492 610
3 493 611 612
3 613 493 612
3 494 493 613
3 494 614 495
3 613 614 494
3 604 496 606
3 496 614 606
3 496 495 614
3 496 604 484
3 608 615 487
3 487 615 497
3 497 616 498
3 615 616 497
3 498 617 499
3 616 617 498
3 499 618 500
3 617 618 499
3 500 619 501
3 618 619 500
3 502 501 619
3 502 619 620
3 504 609 490
3 609 504 506
3 621 609 506
3 610 609 621
3 623 611 622
3 611 621 622
3 611 610 621
3 611 623 612
3 620 624 502
3 502 624 507
3 507 625 508
3 624 625 507
3 508 626 509
3 625 626 508
3 509 627 510
3 626 627 509
3 510 628 511
3 627 628 510
3 506 511 621
3 511 629 621
3 511 628 629
3 621 629 622
3 632 631 630
3 634 633 630
3 630 633 632
3 634 635 633
3 638 637 636
3 513 514 636
3 514 638 636
3 514 639 638
3 515 630 631
3 639 515 631
3 514 515 639
3 630 515 517
3 630 517 634
3 641 640 519
3 519 640 517
3 640 635 517
3 635 634 517
3 641 642 640
3 645 644 643
3 645 643 637
3 637 643 636
3 643 521 636
3 521 522 636
3 636 522 513
3 523 641 519
3 647 646 524
3 524 646 523
3 646 642 523
3 642 641 523
3 647 648 646
3 651 650 649
3 651 649 644
3 644 649 643
3 649 525 643
3 525 526 643
3 643 526 521
3 527 647 524
3 527 529 647
3 529 648 647
3 529 652 648
3 649 650 532
3 650 531 532
3 650 653 531
3 649 532 525
3 533 655 654
3 652 533 654
3 529 533 652
3 657 656 536
3 536 656 535
3 536 531 653
3 536 653 657
3 537 655 533
3 660 659 658
3 656 660 658
3 539 656 658
3 535 656 539
3 658 659 661
3 661 659 662
3 661 540 539
3 661 539 658
3 661 662 542
3 662 541 542
3 662 663 541
3 661 542 540
3 665 664 545
3 545 664 544
3 666 545 546
3 666 665 545
3 546 547 666
3 666 547 667
3 663 548 541
3 668 548 663
3 671 670 669
3 664 671 669
3 549 664 669
3 544 664 549
3 672 667 547
3 672 547 550
3 673 550 551
3 673 672 550
3 551 553 673
3 673 553 674
3 676 675 556
3 556 675 555
3 556 548 668
3 556 668 676
3 669 670 559
3 670 558 559
3 670 677 558
3 669 559 549
3 678 674 553
3 678 553 560
3 680 678 679
3 678 561 679
3 678 560 561
3 562 679 561
3 682 681 565
3 565 681 564
3 565 555 675
3 565 675 682
3 684 683 568
3 684 568 569
3 677 570 558
3 685 570 677
3 686 680 679
3 688 686 687
3 687 686 571
3 686 679 571
3 679 562 571
3 573 687 571
3 689 575 576
3 690 577 578
3 564 689 576
3 689 564 691
3 681 691 564
3 690 580 577
3 694 693 692
3 693 684 692
3 684 581 692
3 684 569 581
3 685 695 570
3 570 695 582
3 583 582 695
3 583 695 696
3 697 688 687
3 697 687 573
3 584 697 573
3 698 697 584
3 584 575 689
3 699 584 689
3 698 584 699
3 578 586 690
3 689 691 699
3 690 586 580
3 694 692 590
3 591 694 590
3 700 694 591
3 590 692 581
3 696 701 583
3 583 701 592
3 593 592 701
3 593 701 702
3 705 704 703
3 706 703 704
3 596 700 591
3 596 707 700
3 702 708 593
3 593 708 597
3 598 597 708
3 598 708 709
3 710 705 703
3 713 712 711
3 706 710 703
3 714 712 713
3 716 715 600
3 716 600 601
3 596 600 707
3 707 600 715
3 709 717 598
3 598 717 602
3 603 602 717
3 603 717 718
3 719 711 712
3 719 712 714
3 721 720 605
3 721 605 606
3 601 605 716
3 716 605 720
3 718 722 603
3 603 722 607
3 608 607 722
3 608 722 723
3 726 725 724
3 728 727 724
3 728 724 725
3 613 612 727
3 728 613 727
3 729 613 728
3 613 730 614
3 729 730 613
3 606 614 721
3 721 614 730
3 723 731 608
3 608 731 615
3 615 732 616
3 731 732 615
3 616 733 617
3 732 733 616
3 617 734 618
3 733 734 617
3 618 735 619
3 734 735 618
3 620 619 735
3 620 735 736
3 726 724 737
3 726 737 738
3 622 737 623
3 737 727 623
3 737 724 727
3 623 727 612
3 736 739 620
3 620 739 624
3 624 740 625
3 739 740 624
3 625 741 626
3 740 741 625
3 626 742 627
3 741 742 626
3 627 743 628
3 742 743 627
3 737 629 738
3 629 743 738
3 629 628 743
3 629 737 622
3 746 745 744
3 631 632 744
3 632 746 744
3 632 747 746
3 748 632 633
3 748 747 632
3 633 635 748
3 748 635 749
3 752 751 750
3 637 638 750
3 638 752 750
3 638 753 752
3 639 744 745
3 753 639 745
3 638 639 753
3 744 639 631
3 754 749 635
3 754 635 640
3 640 642 754
3 754 642 755
3 750 751 645
3 751 644 645
3 751 756 644
3 750 645 637
3 642 646 757
3 758 642 757
3 755 642 758
3 648 757 646
3 760 759 651
3 651 759 650
3 651 644 756
3 651 756 760
3 761 758 757
3 757 648 761
3 648 762 761
3 648 652 762
3 765 764 763
3 759 765 763
3 653 759 763
3 650 759 653
3 766 762 652
3 766 652 654
3 763 764 657
3 764 656 657
3 764 767 656
3 763 657 653
3 769 768 660
3 660 768 659
3 660 656 767
3 660 767 769
3 768 662 659
3 770 662 768
3 770 663 662
3 771 663 770
3 772 664 665
3 666 773 665
3 665 773 772
3 667 773 666
3 771 668 663
3 774 668 771
3 777 776 775
3 778 670 671
3 779 778 671
3 779 671 664
3 780 779 664
3 772 780 664
3 780 772 773
3 780 773 781
3 781 773 667
3 672 781 667
3 782 781 672
3 784 782 783
3 782 673 783
3 782 672 673
3 674 783 673
3 786 785 676
3 676 785 675
3 676 668 774
3 676 774 786
3 777 775 787
3 777 787 788
3 790 789 778
3 789 670 778
3 789 677 670
3 790 778 779
3 791 784 783
3 793 791 792
3 792 791 678
3 791 783 678
3 783 674 678
3 680 792 678
3 794 681 682
3 795 794 682
3 675 795 682
3 785 795 675
3 788 787 683
3 684 788 683
3 796 788 684
3 789 685 677
3 797 685 789
3 798 793 792
3 798 792 680
3 686 798 680
3 799 798 686
3 686 688 799
3 799 688 800
3 801 691 794
3 794 691 681
3 794 795 802
3 794 802 801
3 804 803 693
3 804 693 694
3 684 693 796
3 796 693 803
3 797 805 685
3 685 805 695
3 696 695 805
3 696 805 806
3 807 800 688
3 807 688 697
3 809 807 808
3 807 698 808
3 807 697 698
3 699 810 698
3 698 810 808
3 691 801 699
3 801 810 699
3 801 811 810
3 801 802 812
3 813 801 812
3 811 801 813
3 814 813 812
3 700 804 694
3 700 815 804
3 806 816 696
3 696 816 701
3 702 701 816
3 702 816 817
3 818 809 808
3 820 819 818
3 808 820 818
3 810 820 808
3 705 820 704
3 820 811 704
3 820 810 811
3 704 811 706
3 811 821 706
3 811 813 821
3 813 814 822
3 823 813 822
3 821 813 823
3 824 823 822
3 827 826 825
3 826 815 825
3 815 707 825
3 815 700 707
3 817 828 702
3 702 828 708
3 709 708 828
3 709 828 829
3 819 820 830
3 819 830 831
3 710 832 705
3 832 820 705
3 832 830 820
3 710 706 832
3 706 821 832
3 713 711 832
3 713 832 821
3 713 821 714
3 821 833 714
3 821 823 833
3 823 824 834
3 823 834 833
3 837 836 835
3 835 836 827
3 835 827 825
3 716 835 825
3 715 716 825
3 715 825 707
3 829 838 709
3 709 838 717
3 718 717 838
3 718 838 839
3 840 831 830
3 842 841 840
3 830 842 840
3 832 842 830
3 719 843 711
3 843 832 711
3 843 842 832
3 714 833 719
3 833 843 719
3 833 844 843
3 833 834 845
3 846 833 845
3 844 833 846
3 848 847 846
3 848 846 845
3 850 849 847
3 850 847 848
3 852 851 849
3 852 849 850
3 854 853 851
3 854 851 852
3 856 855 853
3 856 853 854
3 855 856 837
3 855 837 835
3 721 855 835
3 720 721 835
3 720 835 716
3 839 857 718
3 718 857 722
3 723 722 857
3 723 857 858
3 859 841 842
3 859 842 843
3 859 843 860
3 860 843 844
3 860 844 861
3 861 844 846
3 861 846 862
3 864 863 862
3 846 864 862
3 847 864 846
3 726 864 725
3 864 849 725
3 864 847 849
3 725 849 728
3 728 849 851
3 728 851 729
3 729 851 853
3 729 853 730
3 730 853 855
3 730 855 721
3 858 865 723
3 723 865 731
3 731 866 732
3 865 866 731
3 732 867 733
3 866 867 732
3 733 868 734
3 867 868 733
3 734 869 735
3 868 869 734
3 736 735 869
3 736 869 870
3 863 864 871
3 863 871 872
3 738 871 726
3 726 871 864
3 870 873 736
3 736 873 739
3 739 874 740
3 873 874 739
3 740 875 741
3 874 875 740
3 741 876 742
3 875 876 741
3 871 743 872
3 743 876 872
3 743 742 876
3 743 871 738
3 879 878 877
3 881 880 877
3 877 880 879
3 881 882 880
3 885 884 883
3 885 883 878
3 878 883 877
3 883 745 877
3 745 746 877
3 877 746 747
3 877 747 881
3 886 882 881
3 747 886 881
3 748 886 747
3 748 749 886
3 886 749 887
3 889 888 752
3 752 888 751
3 753 883 884
3 889 753 884
3 752 753 889
3 883 753 745
3 890 887 749
3 890 749 754
3 754 755 890
3 890 755 891
3 894 893 892
3 888 894 892
3 756 888 892
3 751 888 756
3 758 891 755
3 758 895 891
3 898 897 896
3 898 896 893
3 893 896 892
3 896 759 892
3 759 760 892
3 892 760 756
3 899 895 758
3 899 758 761
3 761 762 899
3 899 762 900
3 896 897 765
3 897 764 765
3 897 901 764
3 896 765 759
3 762 766 902
3 903 762 902
3 900 762 903
3 901 767 764
3 904 767 901
3 905 903 902
3 906 768 769
3 907 906 769
3 767 907 769
3 904 907 767
3 910 909 908
3 912 911 906
3 911 768 906
3 911 770 768
3 912 906 907
3 910 908 913
3 910 913 914
3 911 771 770
3 915 771 911
3 914 913 916
3 914 916 917
3 915 774 771
3 918 774 915
3 917 916 776
3 777 917 776
3 919 917 777
3 920 779 780
3 781 921 780
3 780 921 920
3 782 922 781
3 781 922 921
3 784 922 782
3 923 785 786
3 924 923 786
3 774 924 786
3 918 924 774
3 788 919 777
3 788 925 919
3 926 789 790
3 927 926 790
3 927 790 779
3 928 927 779
3 920 928 779
3 928 920 921
3 928 921 929
3 929 921 922
3 929 922 930
3 932 930 931
3 931 930 791
3 930 922 791
3 922 784 791
3 793 931 791
3 933 795 923
3 923 795 785
3 923 924 934
3 923 934 933
3 937 936 935
3 936 925 935
3 925 796 935
3 925 788 796
3 939 938 926
3 938 789 926
3 938 797 789
3 939 926 927
3 940 932 931
3 942 940 941
3 941 940 798
3 940 931 798
3 931 793 798
3 799 943 798
3 798 943 941
3 800 943 799
3 944 802 933
3 933 802 795
3 933 934 945
3 933 945 944
3 937 935 803
3 804 937 803
3 946 937 804
3 803 935 796
3 938 947 797
3 797 947 805
3 806 805 947
3 806 947 948
3 949 942 941
3 951 950 949
3 941 951 949
3 943 951 941
3 807 952 800
3 952 943 800
3 952 951 943
3 809 952 807
3 944 812 802
3 954 953 814
3 954 814 812
3 945 954 812
3 944 945 812
3 955 953 954
3 958 957 956
3 957 946 956
3 946 815 956
3 946 804 815
3 948 959 806
3 806 959 816
3 817 816 959
3 817 959 960
3 961 950 951
3 961 951 952
3 961 952 962
3 964 962 963
3 963 962 818
3 962 952 818
3 952 809 818
3 819 963 818
3 953 822 814
3 966 965 824
3 966 824 822
3 955 966 822
3 953 955 822
3 967 965 966
3 970 969 968
3 968 969 958
3 968 958 956
3 827 968 956
3 826 827 956
3 826 956 815
3 960 971 817
3 817 971 828
3 829 828 971
3 829 971 972
3 973 964 963
3 963 819 973
3 819 974 973
3 819 831 974
3 975 834 965
3 965 834 824
3 965 967 976
3 977 965 976
3 975 965 977
3 979 978 977
3 979 977 976
3 981 980 978
3 981 978 979
3 982 980 981
3 970 968 836
3 837 970 836
3 983 970 837
3 836 968 827
3 972 984 829
3 829 984 838
3 839 838 984
3 839 984 985
3 831 840 986
3 987 831 986
3 974 831 987
3 841 986 840
3 975 845 834
3 845 975 848
3 848 975 977
3 848 977 850
3 850 977 978
3 850 978 852
3 852 978 980
3 982 988 980
3 988 852 980
3 988 854 852
3 854 989 856
3 988 989 854
3 837 856 983
3 983 856 989
3 985 990 839
3 839 990 857
3 858 857 990
3 858 990 991
3 992 987 986
3 992 986 841
3 859 992 841
3 993 992 859
3 995 993 994
3 993 860 994
3 993 859 860
3 861 996 860
3 860 996 994
3 862 997 861
3 861 997 996
3 863 997 862
3 991 998 858
3 858 998 865
3 865 999 866
3 998 999 865
3 866 1000 867
3 999 1000 866
3 867 1001 868
3 1000 1001 867
3 868 1002 869
3 1001 1002 868
3 870 869 1002
3 870 1002 1003
3 1004 995 994
3 1004 994 996
3 1004 996 1005
3 1007 1006 1005
3 996 1007 1005
3 997 1007 996
3 872 1007 863
3 863 1007 997
3 1003 1008 870
3 870 1008 873
3 873 1009 874
3 1008 1009 873
3 874 1010 875
3 1009 1010 874
3 1007 876 1006
3 876 1010 1006
3 876 875 1010
3 876 1007 872
3 1012 1011 879
3 879 1011 878
3 1013 879 880
3 1013 1012 879
3 880 882 1013
3 1013 882 1014
3 1016 1015 885
3 885 1015 884
3 885 878 1011
3 885 1011 1016
3 1017 1014 882
3 1017 882 886
3 886 887 1017
3 1017 887 1018
3 1021 1020 1019
3 888 889 1019
3 889 1021 1019
3 889 1022 1021
3 889 884 1015
3 889 1015 1022
3 1023 1018 887
3 1023 887 890
3 890 891 1023
3 1023 891 1024
3 1019 1020 894
3 1020 893 894
3 1020 1025 893
3 1019 894 888
3 895 1024 891
3 895 1026 1024
3 1027 897 898
3 1028 1027 898
3 893 1028 898
3 1025 1028 893
3 1029 1026 895
3 1029 895 899
3 899 900 1029
3 1029 900 1030
3 1032 1031 1027
3 1031 897 1027
3 1031 901 897
3 1032 1027 1028
3 903 1030 900
3 903 1033 1030
3 1031 904 901
3 1034 904 1031
3 903 905 1035
3 1036 903 1035
3 1033 903 1036
3 1034 907 904
3 1037 907 1034
3 1036 1035 909
3 910 1036 909
3 1038 1036 910
3 1039 911 912
3 1040 1039 912
3 907 1040 912
3 1037 1040 907
3 914 1038 910
3 914 1041 1038
3 1042 915 1039
3 1039 915 911
3 1039 1040 1043
3 1039 1043 1042
3 917 1041 914
3 917 1044 1041
3 1045 918 1042
3 1042 918 915
3 1042 1043 1046
3 1042 1046 1045
3 919 1044 917
3 919 1047 1044
3 1049 1048 1045
3 1048 918 1045
3 1048 924 918
3 1049 1045 1046
3 1052 1051 1050
3 1051 1047 1050
3 1047 925 1050
3 1047 919 925
3 1053 927 928
3 929 1054 928
3 928 1054 1053
3 930 1055 929
3 929 1055 1054
3 932 1055 930
3 1048 934 924
3 1056 934 1048
3 1059 1058 1057
3 1057 1058 1052
3 1057 1052 1050
3 937 1057 1050
3 936 937 1050
3 936 1050 925
3 1060 938 939
3 1061 1060 939
3 1061 939 927
3 1062 1061 927
3 1053 1062 927
3 1062 1053 1054
3 1062 1054 1063
3 1065 1064 1063
3 1054 1065 1063
3 1055 1065 1054
3 940 1066 932
3 1066 1055 932
3 1066 1065 1055
3 942 1066 940
3 1068 945 1067
3 945 1056 1067
3 945 934 1056
3 1069 1068 1067
3 1059 1057 1070
3 1059 1070 1071
3 946 1070 937
3 937 1070 1057
3 1060 947 938
3 948 947 1060
3 1061 948 1060
3 1072 948 1061
3 1073 1064 1065
3 1073 1065 1066
3 1073 1066 1074
3 1076 1074 1075
3 1075 1074 949
3 1074 1066 949
3 1066 942 949
3 950 1075 949
3 1068 954 945
3 1078 1077 955
3 1078 955 954
3 1069 1078 954
3 1068 1069 954
3 1079 1077 1078
3 1071 1070 957
3 958 1071 957
3 1080 1071 958
3 957 1070 946
3 1072 1081 948
3 948 1081 959
3 960 959 1081
3 960 1081 1082
3 1083 1076 1075
3 1085 1083 1084
3 1084 1083 961
3 1083 1075 961
3 1075 950 961
3 962 1086 961
3 961 1086 1084
3 964 1086 962
3 1077 966 955
3 1088 1087 967
3 1088 967 966
3 1079 1088 966
3 1077 1079 966
3 1090 1089 1087
3 1090 1087 1088
3 1091 1089 1090
3 1093 1092 969
3 1093 969 970
3 958 969 1080
3 1080 969 1092
3 1082 1094 960
3 960 1094 971
3 972 971 1094
3 972 1094 1095
3 1096 1085 1084
3 1096 1084 1086
3 1096 1086 1097
3 1099 1097 1098
3 1098 1097 973
3 1097 1086 973
3 1086 964 973
3 974 1098 973
3 1087 976 967
3 976 1087 979
3 979 1087 1089
3 1091 1100 1089
3 1100 979 1089
3 1100 981 979
3 1102 1101 982
3 981 1102 982
3 1100 1102 981
3 1104 1103 1101
3 1104 1101 1102
3 1104 1093 1103
3 1093 983 1103
3 1093 970 983
3 1095 1105 972
3 972 1105 984
3 985 984 1105
3 985 1105 1106
3 1107 1099 1098
3 1098 974 1107
3 974 1108 1107
3 974 987 1108
3 1101 988 982
3 988 1101 989
3 989 1101 1103
3 989 1103 983
3 1106 1109 985
3 985 1109 990
3 991 990 1109
3 991 1109 1110
3 987 992 1111
3 1112 987 1111
3 1108 987 1112
3 993 1113 992
3 992 1113 1111
3 995 1113 993
3 1110 1114 991
3 991 1114 998
3 998 1115 999
3 1114 1115 998
3 999 1116 1000
3 1115 1116 999
3 1000 1117 1001
3 1116 1117 1000
3 1111 1002 1112
3 1002 1117 1112
3 1002 1001 1117
3 1111 1113 1118
3 1003 1111 1118
3 1119 1003 1118
3 1111 1003 1002
3 1118 1113 995
3 1004 1118 995
3 1120 1118 1004
3 1122 1120 1121
3 1120 1005 1121
3 1120 1004 1005
3 1006 1121 1005
3 1119 1123 1003
3 1003 1123 1008
3 1008 1124 1009
3 1123 1124 1008
3 1121 1010 1122
3 1010 1124 1122
3 1010 1009 1124
3 1010 1121 1006
3 1126 1125 1012
3 1012 1125 1011
3 1127 1012 1013
3 1127 1126 1012
3 1129 1128 1014
3 1128 1013 1014
3 1128 1127 1013
3 1129 1130 1128
3 1133 1132 1131
3 1015 1016 1131
3 1016 1133 1131
3 1016 1134 1133
3 1016 1011 1125
3 1016 1125 1134
3 1017 1129 1014
3 1017 1018 1129
3 1018 1130 1129
3 1018 1135 1130
3 1136 1020 1021
3 1132 1137 1131
3 1137 1021 1131
3 1021 1022 1131
3 1021 1137 1136
3 1131 1022 1015
3 1138 1135 1018
3 1138 1018 1023
3 1023 1024 1138
3 1138 1024 1139
3 1141 1140 1136
3 1140 1020 1136
3 1140 1025 1020
3 1141 1136 1137
3 1026 1143 1142
3 1139 1026 1142
3 1024 1026 1139
3 1143 1144 1142
3 1140 1028 1025
3 1145 1028 1140
3 1029 1143 1026
3 1029 1030 1143
3 1030 1144 1143
3 1030 1146 1144
3 1147 1031 1032
3 1148 1147 1032
3 1028 1148 1032
3 1145 1148 1028
3 1033 1146 1030
3 1033 1149 1146
3 1150 1034 1147
3 1147 1034 1031
3 1147 1148 1151
3 1147 1151 1150
3 1036 1149 1033
3 1036 1152 1149
3 1153 1037 1150
3 1150 1037 1034
3 1150 1151 1154
3 1150 1154 1153
3 1038 1152 1036
3 1038 1155 1152
3 1156 1040 1153
3 1153 1040 1037
3 1153 1154 1157
3 1153 1157 1156
3 1041 1155 1038
3 1041 1158 1155
3 1160 1159 1156
3 1159 1040 1156
3 1159 1043 1040
3 1163 1162 1161
3 1157 1160 1156
3 1165 1164 1162
3 1165 1162 1163
3 1167 1166 1164
3 1167 1164 1165
3 1168 1166 1167
3 1044 1158 1041
3 1044 1169 1158
3 1159 1046 1043
3 1170 1046 1159
3 1161 1162 1171
3 1161 1171 1172
3 1173 1162 1164
3 1171 1162 1173
3 1174 1164 1166
3 1173 1164 1174
3 1166 1168 1175
3 1166 1175 1174
3 1178 1177 1176
3 1177 1169 1176
3 1169 1047 1176
3 1169 1044 1047
3 1179 1048 1049
3 1180 1179 1049
3 1046 1180 1049
3 1170 1180 1046
3 1172 1171 1181
3 1172 1181 1182
3 1183 1171 1173
3 1181 1171 1183
3 1184 1173 1174
3 1183 1173 1184
3 1174 1175 1185
3 1174 1185 1184
3 1188 1187 1186
3 1186 1187 1178
3 1186 1178 1176
3 1052 1186 1176
3 1051 1052 1176
3 1051 1176 1047
3 1189 1056 1179
3 1179 1056 1048
3 1179 1180 1190
3 1179 1190 1189
3 1191 1182 1181
3 1191 1181 1183
3 1191 1183 1192
3 1192 1183 1184
3 1192 1184 1193
3 1193 1184 1185
3 1188 1186 1058
3 1059 1188 1058
3 1194 1188 1059
3 1058 1186 1052
3 1195 1061 1062
3 1063 1196 1062
3 1062 1196 1195
3 1064 1196 1063
3 1189 1067 1056
3 1198 1197 1069
3 1198 1069 1067
3 1190 1198 1067
3 1189 1190 1067
3 1199 1197 1198
3 1202 1201 1200
3 1201 1194 1200
3 1194 1071 1200
3 1194 1059 1071
3 1203 1072 1195
3 1195 1072 1061
3 1204 1195 1196
3 1203 1195 1204
3 1073 1205 1064
3 1205 1196 1064
3 1205 1204 1196
3 1074 1206 1073
3 1073 1206 1205
3 1076 1206 1074
3 1197 1078 1069
3 1208 1207 1079
3 1208 1079 1078
3 1199 1208 1078
3 1197 1199 1078
3 1210 1209 1207
3 1210 1207 1208
3 1212 1211 1209
3 1212 1209 1210
3 1214 1213 1211
3 1214 1211 1212
3 1216 1215 1213
3 1216 1213 1214
3 1215 1216 1202
3 1200 1215 1202
3 1217 1215 1200
3 1080 1217 1071
3 1071 1217 1200
3 1203 1081 1072
3 1203 1204 1218
3 1082 1203 1218
3 1219 1082 1218
3 1203 1082 1081
3 1218 1204 1205
3 1218 1205 1220
3 1222 1221 1220
3 1205 1222 1220
3 1206 1222 1205
3 1083 1223 1076
3 1223 1206 1076
3 1223 1222 1206
3 1085 1223 1083
3 1207 1088 1079
3 1088 1207 1090
3 1090 1207 1209
3 1090 1209 1091
3 1209 1224 1091
3 1209 1211 1224
3 1225 1211 1213
3 1224 1211 1225
3 1226 1213 1215
3 1225 1213 1226
3 1093 1226 1092
3 1226 1217 1092
3 1226 1215 1217
3 1092 1217 1080
3 1219 1227 1082
3 1082 1227 1094
3 1095 1094 1227
3 1095 1227 1228
3 1221 1222 1229
3 1221 1229 1230
3 1231 1222 1223
3 1229 1222 1231
3 1096 1232 1085
3 1232 1223 1085
3 1232 1231 1223
3 1097 1233 1096
3 1096 1233 1232
3 1099 1233 1097
3 1224 1100 1091
3 1100 1224 1102
3 1102 1224 1225
3 1102 1225 1104
3 1104 1225 1226
3 1104 1226 1093
3 1228 1234 1095
3 1095 1234 1105
3 1229 1235 1106
3 1234 1229 1106
3 1105 1234 1106
3 1230 1229 1234
3 1236 1229 1231
3 1235 1229 1236
3 1237 1231 1232
3 1236 1231 1237
3 1238 1232 1233
3 1237 1232 1238
3 1107 1239 1099
3 1239 1233 1099
3 1239 1238 1233
3 1108 1239 1107
3 1235 1109 1106
3 1109 1235 1110
3 1235 1240 1110
3 1235 1236 1240
3 1241 1236 1237
3 1240 1236 1241
3 1242 1237 1238
3 1241 1237 1242
3 1243 1238 1239
3 1242 1238 1243
3 1112 1243 1108
3 1108 1243 1239
3 1240 1114 1110
3 1114 1240 1115
3 1115 1240 1241
3 1115 1241 1116
3 1116 1241 1242
3 1116 1242 1117
3 1117 1242 1243
3 1117 1243 1112
3 1244 1119 1118
3 1120 1245 1118
3 1118 1245 1244
3 1122 1245 1120
3 1244 1123 1119
3 1123 1244 1124
3 1124 1244 1245
3 1124 1245 1122
3 1247 1246 1126
3 1126 1246 1125
3 1249 1247 1248
3 1247 1127 1248
3 1247 1126 1127
3 1128 1250 1127
3 1127 1250 1248
3 1130 1250 1128
3 1251 1132 1133
3 1251 1133 1252
3 1133 1253 1252
3 1133 1134 1253
3 1134 1125 1246
3 1134 1246 1253
3 1254 1249 1248
3 1256 1255 1254
3 1248 1256 1254
3 1250 1256 1248
3 1135 1256 1130
3 1130 1256 1250
3 1258 1257 1251
3 1257 1132 1251
3 1257 1137 1132
3 1258 1251 1252
3 1259 1255 1256
3 1261 1259 1260
3 1260 1259 1138
3 1259 1256 1138
3 1256 1135 1138
3 1139 1260 1138
3 1262 1140 1141
3 1263 1262 1141
3 1137 1263 1141
3 1257 1263 1137
3 1261 1260 1264
3 1261 1264 1265
3 1142 1266 1139
3 1266 1260 1139
3 1266 1264 1260
3 1144 1266 1142
3 1267 1145 1262
3 1262 1145 1140
3 1262 1263 1268
3 1262 1268 1267
3 1265 1264 1269
3 1265 1269 1270
3 1271 1264 1266
3 1269 1264 1271
3 1146 1271 1144
3 1144 1271 1266
3 1272 1148 1267
3 1267 1148 1145
3 1267 1268 1273
3 1267 1273 1272
3 1270 1269 1274
3 1270 1274 1275
3 1276 1269 1271
3 1274 1269 1276
3 1149 1276 1146
3 1146 1276 1271
3 1277 1151 1272
3 1272 1151 1148
3 1272 1273 1278
3 1279 1272 1278
3 1277 1272 1279
3 1281 1280 1279
3 1281 1279 1278
3 1283 1282 1280
3 1283 1280 1281
3 1284 1282 1283
3 1285 1275 1274
3 1287 1286 1285
3 1274 1287 1285
3 1276 1287 1274
3 1152 1287 1149
3 1149 1287 1276
3 1288 1154 1277
3 1277 1154 1151
3 1289 1277 1279
3 1288 1277 1289
3 1290 1279 1280
3 1289 1279 1290
3 1291 1280 1282
3 1290 1280 1291
3 1282 1284 1292
3 1282 1292 1291
3 1286 1287 1293
3 1286 1293 1294
3 1155 1293 1152
3 1152 1293 1287
3 1295 1157 1288
3 1288 1157 1154
3 1296 1288 1289
3 1295 1288 1296
3 1297 1289 1290
3 1296 1289 1297
3 1298 1290 1291
3 1297 1290 1298
3 1291 1292 1299
3 1291 1299 1298
3 1294 1293 1300
3 1294 1300 1301
3 1158 1300 1155
3 1155 1300 1293
3 1302 1159 1160
3 1160 1157 1302
3 1157 1295 1302
3 1163 1161 1302
3 1163 1302 1295
3 1163 1295 1165
3 1165 1295 1296
3 1165 1296 1167
3 1167 1296 1297
3 1167 1297 1168
3 1297 1303 1168
3 1297 1298 1303
3 1298 1299 1304
3 1305 1298 1304
3 1303 1298 1305
3 1307 1306 1305
3 1307 1305 1304
3 1309 1308 1306
3 1309 1306 1307
3 1308 1309 1301
3 1300 1308 1301
3 1310 1308 1300
3 1169 1310 1158
3 1158 1310 1300
3 1311 1170 1302
3 1302 1170 1159
3 1172 1311 1161
3 1161 1311 1302
3 1312 1175 1303
3 1303 1175 1168
3 1313 1303 1305
3 1312 1303 1313
3 1314 1305 1306
3 1313 1305 1314
3 1315 1306 1308
3 1314 1306 1315
3 1178 1315 1177
3 1315 1310 1177
3 1315 1308 1310
3 1177 1310 1169
3 1316 1180 1311
3 1311 1180 1170
3 1182 1316 1172
3 1172 1316 1311
3 1317 1185 1312
3 1312 1185 1175
3 1318 1312 1313
3 1317 1312 1318
3 1319 1313 1314
3 1318 1313 1319
3 1188 1319 1187
3 1319 1315 1187
3 1319 1314 1315
3 1187 1315 1178
3 1320 1190 1316
3 1316 1190 1180
3 1191 1321 1182
3 1321 1316 1182
3 1321 1320 1316
3 1192 1322 1191
3 1191 1322 1321
3 1193 1323 1192
3 1192 1323 1322
3 1185 1317 1193
3 1317 1323 1193
3 1317 1324 1323
3 1325 1317 1318
3 1324 1317 1325
3 1326 1318 1319
3 1325 1318 1326
3 1194 1326 1188
3 1188 1326 1319
3 1320 1198 1190
3 1198 1320 1199
3 1320 1327 1199
3 1320 1321 1327
3 1328 1321 1322
3 1327 1321 1328
3 1329 1322 1323
3 1328 1322 1329
3 1330 1323 1324
3 1329 1323 1330
3 1331 1324 1325
3 1330 1324 1331
3 1202 1331 1201
3 1331 1326 1201
3 1331 1325 1326
3 1201 1326 1194
3 1327 1208 1199
3 1208 1327 1210
3 1210 1327 1328
3 1210 1328 1212
3 1212 1328 1329
3 1212 1329 1214
3 1214 1329 1330
3 1214 1330 1216
3 1216 1330 1331
3 1216 1331 1202
3 1332 1219 1218
3 1220 1333 1218
3 1218 1333 1332
3 1221 1333 1220
3 1332 1227 1219
3 1227 1332 1228
3 1332 1334 1228
3 1332 1333 1334
3 1230 1334 1221
3 1221 1334 1333
3 1334 1234 1228
3 1234 1334 1230
3 1336 1335 1247
3 1247 1335 1246
3 1247 1249 1336
3 1336 1249 1337
3 1339 1338 1253
3 1253 1338 1252
3 1253 1246 1335
3 1253 1335 1339
3 1340 1337 1249
3 1340 1249 1254
3 1254 1255 1340
3 1340 1255 1341
3 1343 1342 1258
3 1258 1342 1257
3 1258 1252 1338
3 1258 1338 1343
3 1255 1259 1344
3 1345 1255 1344
3 1341 1255 1345
3 1261 1344 1259
3 1342 1263 1257
3 1346 1263 1342
3 1345 1344 1347
3 1345 1347 1348
3 1265 1347 1261
3 1261 1347 1344
3 1346 1268 1263
3 1349 1268 1346
3 1348 1347 1350
3 1348 1350 1351
3 1270 1350 1265
3 1265 1350 1347
3 1353 1273 1352
3 1273 1349 1352
3 1273 1268 1349
3 1355 1354 1353
3 1355 1353 1352
3 1357 1356 1354
3 1357 1354 1355
3 1359 1358 1356
3 1359 1356 1357
3 1358 1359 1351
3 1350 1358 1351
3 1360 1358 1350
3 1275 1360 1270
3 1270 1360 1350
3 1353 1278 1273
3 1278 1353 1281
3 1281 1353 1354
3 1281 1354 1283
3 1283 1354 1356
3 1283 1356 1284
3 1356 1361 1284
3 1356 1358 1361
3 1362 1358 1360
3 1361 1358 1362
3 1285 1363 1275
3 1363 1360 1275
3 1363 1362 1360
3 1286 1363 1285
3 1364 1292 1361
3 1361 1292 1284
3 1362 1366 1365
3 1364 1362 1365
3 1361 1362 1364
3 1368 1367 1366
3 1362 1368 1366
3 1363 1368 1362
3 1294 1368 1286
3 1286 1368 1363
3 1369 1299 1364
3 1364 1299 1292
3 1364 1365 1370
3 1371 1364 1370
3 1369 1364 1371
3 1371 1370 1367
3 1368 1371 1367
3 1372 1371 1368
3 1301 1372 1294
3 1294 1372 1368
3 1369 1304 1299
3 1304 1369 1307
3 1307 1369 1371
3 1307 1371 1309
3 1309 1371 1372
3 1309 1372 1301