OFF
663 1292 0
1.1424756911 9.3408349397 5.5185679240
1.2205421449 9.0925615093 4.7724236625
1.3011001697 8.6582056648 5.2357748616
1.3208616046 8.6624643470 5.9976250607
1.2021389687 9.2847201106 6.2706067826
1.3585831586 8.9223232857 6.7173180207
1.5508177230 9.8580034818 2.8841730390
2.0328268315 10.1658673852 2.4010140073
1.7861087117 9.4501704704 2.5413529246
1.5034008001 9.2806034637 3.1296873039
1.3279558309 9.8822757613 3.5770951789
1.3173537849 9.1893567207 3.9814755366
1.1638339772 9.8950563365 4.6600840103
1.0855433901 9.9196268198 5.4281537330
1.1562951979 9.9455155380 6.0554617302
1.3218609032 9.6460748936 6.8315705302
1.5819275403 10.4479641548 3.1269362643
1.3585763162 10.5435835854 3.9657343297
1.2622029294 10.6406556049 4.6950741548
1.1820159594 10.4560919722 5.3959865479
1.3973478101 11.0092639192 5.1062271831
1.2818059175 10.5817893183 6.0718068536
1.3442954168 10.3262951474 6.6156760797
1.4139713107 10.9813994975 5.6895675322
2.0829569757 7.1456434993 3.8361428592
2.4608905398 6.9277345933 3.1440051355
2.4398068304 6.5985222821 3.6572405636
2.4256649317 6.4380061340 4.2903205555
1.9950140133 7.0399370370 4.8403843240
2.3865105638 6.3214157197 5.3290655057
1.9563838547 7.0673989476 5.9505772601
2.3689842427 6.2908737075 6.4432483593
1.9833950922 7.0775132903 7.1211325100
2.3760855202 6.2813166016 7.5658999200
2.0307775082 7.0550327857 8.2591865076
2.3901345548 6.2760416352 8.6756140764
2.0670008577 7.0388300730 9.3560745185
2.4083097475 6.2826983115 9.7649637631
2.1129220950 7.0358876249 10.4026778926
2.4460991306 6.3217613129 10.8115703224
2.1958804425 7.0449304553 11.3443236915
2.5172937376 6.4460652168 11.7612162855
2.3168142891 7.0685208559 12.0369960025
2.5828362115 6.7645781406 12.4539291417
2.0628510703 7.7717827880 3.0451088386
2.5283217128 7.9819250833 2.2281517380
2.4668790582 7.3544106112 2.6513897945
1.7524178220 7.8849760932 3.7963002520
1.7424339710 7.6455617799 4.4258027988
1.5918896193 7.8989066169 5.3660259676
1.6115942532 8.0618075260 6.6795143346
1.7576798231 7.9869504341 7.9171292391
1.8420812121 7.9219661072 9.0428177138
1.9087990047 7.8852785709 10.0964051929
2.0109272572 7.8456013694 11.0734565416
2.1804001177 7.7440975509 11.9187563692
2.4593401168 7.4979225458 12.6055144299
1.9083372976 8.7044347190 2.6648329846
2.3857808814 9.1873728533 2.0059809702
1.6127730107 8.5398943903 3.4624101055
1.4635025441 8.4045032192 4.4231809072
1.5579024483 9.1020350507 7.6022552252
1.7323687171 8.9177301800 8.8025799730
1.8255713427 8.8071059247 9.8524217447
1.9467100280 8.7642462606 10.8252505898
2.1334515575 8.6614461285 11.7411933398
2.3869139412 8.4059578254 12.5334402813
2.8051858530 10.0771986953 1.7917450688
1.6115447254 10.3380009457 7.4532084531
1.7693040182 9.9698261672 8.5949967150
1.8841710313 9.7686800300 9.6689496332
1.9634523916 9.5522834648 10.5195368302
2.2364112967 9.7335677417 11.4514563864
2.4539978688 9.3566654801 12.3808881798
2.0341784390 11.0028828512 2.7947267723
2.7187256937 10.9652676717 2.2368429176
1.7221783746 11.1130325278 3.5525831109
1.5496519456 11.1435700576 4.4336508067
1.6185755115 11.0218692613 6.4745481674
1.9728636232 11.2859041500 7.4147351923
1.9900497884 10.9242790050 8.3737180828
2.0842108736 10.6997389213 9.4187121953
2.2435048073 10.5071365869 10.5416628924
2.7674789357 10.7947441172 11.5472491737
2.6341371935 10.1554540290 12.2027172904
2.4419283116 11.4769263465 2.6779565262
2.1988498409 11.6018308853 3.2214248853
2.6780161415 11.8540596800 2.9556506974
2.0498633276 11.7001119235 4.0987243231
1.8860097900 11.5872171772 5.3517541353
2.1740795170 11.7597650101 6.5788755517
2.3594934453 11.8298522202 7.3760729862
2.3446973992 11.6265591291 8.1075932826
2.4072844411 11.4533050258 9.0325909447
2.5109187017 11.3259026743 9.9911286111
2.6999765830 11.2640883038 10.7654444903
2.6823138967 12.0824815384 3.6140819297
2.6254464788 12.2728971197 4.6406513480
2.6982146991 12.2943271357 5.8490102694
2.7999202356 12.1884735278 6.9734821934
2.9747807260 6.1029239775 3.5649098723
3.5272563942 5.9902053445 2.8956004678
3.6812663496 5.5010591641 3.4104506780
3.6354075899 5.1706287931 4.2400232127
2.9200499349 5.7440865815 4.7390352863
3.4394960305 5.0714907280 5.3259353468
2.8596932872 5.6416332466 5.8471279057
3.3704810674 5.0268931368 6.3976312154
2.8365591778 5.6147006780 6.9537496919
3.3497952979 5.0118929256 7.4914723901
2.8336349966 5.6086345536 8.0615734786
3.3464261266 5.0089327351 8.5948761168
2.8387099457 5.6120000757 9.1658225274
3.3532086536 5.0159555115 9.7010679593
2.8563204666 5.6365650909 10.2617567007
3.3859685848 5.0461089687 10.8119342428
2.9091697224 5.7247008041 11.3522746579
3.4941061041 5.1184948297 11.9488485603
3.0337911275 5.9992650768 12.5169869874
3.8057024607 5.1509037439 13.1856812806
3.4205641470 6.0606535365 13.5999240870
3.8114217718 5.5530617403 13.9391188085
3.0422169903 6.8539600638 2.4910256382
3.6703201576 6.8975020431 1.8906961754
3.8837848423 6.2334382298 2.3197367357
2.9288876171 6.9906281291 13.2573250146
3.8895621512 6.0088590386 14.4372495670
3.4599604219 6.8328874103 14.1842038530
3.9373852473 6.6980128999 14.8513507424
3.2454364269 7.5906918359 1.7458237017
3.5862014443 8.0217440149 1.3349003583
3.9544004117 7.3600857389 1.4573309271
2.7686282837 8.1204135311 13.2444725968
3.2762457673 7.8399866398 14.0232261872
3.7794851936 7.5073942449 14.7732800531
3.0347943283 8.4788984299 1.5671831191
3.6886396333 8.6776998328 1.2022700179
2.7117910344 8.9926116857 13.0334258531
3.2395812828 9.0074417177 13.7483876016
3.9289673338 8.6027316886 14.6758982827
3.1485713123 9.3365437439 1.4429045448
3.8876401270 9.4038408346 1.1938246058
3.0146509872 9.9567638879 12.9819021906
3.6035428830 9.9405529652 13.6765049846
3.8148809651 9.4420940353 14.1986500703
3.4493237877 9.9507481909 1.4261230756
3.5291063940 10.5798054645 1.7314866005
3.0403540936 10.6341658960 12.3542747464
3.3756580910 10.6984611746 12.7497257740
3.5484283757 10.4614129590 13.2198523499
2.9436407787 11.6346325826 2.5600288901
3.7557846434 11.4053821478 2.2713940124
2.7231710752 12.0357307760 7.7725075642
2.8522269655 11.9658483347 8.5629564225
2.9110507741 11.8618116530 9.5086429827
3.0230329320 11.7518265545 10.3376616057
3.2383277230 11.5362412880 11.0924307986
3.7228425471 11.2111873940 12.0036315526
3.8282240578 10.8614964998 12.8925398167
3.4373255818 12.0669660444 3.0591911493
3.4364478151 12.4848881558 4.0407733918
3.1184084049 12.5968080270 4.5573667997
3.7122447979 12.7057160414 4.5305855151
2.8670294110 12.5392074013 5.1921486697
3.2179227987 12.6070112307 5.8025325248
3.6406261584 12.5302860510 6.4438098362
3.4407405891 12.2793712201 7.8035417230
3.4694561358 12.1589496183 9.0167318469
3.3961663889 12.0520444723 9.8501489465
3.6065741971 11.9394902081 10.4767822740
4.0515110210 4.5524135457 4.9669613502
4.3987909610 4.5208230467 4.2688976633
4.5049850416 4.2104629476 4.8144331133
4.5203722284 4.0736250912 5.4372307595
3.9437442936 4.4986570336 5.8992544793
4.4873556168 3.9729194711 6.4415318880
3.9051829384 4.4632064061 6.9517423414
4.4665638702 3.9268405234 7.5054865892
3.8936633276 4.4480283762 8.0414690783
4.4620200627 3.9004500333 8.5911731632
3.8931198260 4.4427970604 9.1439280485
4.4621841267 3.8875184186 9.6965989646
3.9069714527 4.4475154668 10.2534006827
4.4851854325 3.8880020982 10.8107209887
3.9658469654 4.4665415500 11.3665731641
4.5806502850 3.8983025903 11.9248642389
4.1162493094 4.4916862203 12.4476741363
4.8141204102 3.9276584303 13.0943497544
4.2685312380 4.5089122450 13.1274089106
4.4932621826 4.5536984445 13.7307394395
4.2451142501 5.4477527107 2.8988499116
4.1735673833 5.0035717054 3.6219090434
4.1943361003 5.1364936995 14.0982983889
4.0231655171 5.5180524302 14.3100944173
4.3899243499 5.4345328420 14.6926985182
4.4570194172 6.5254745426 1.7549647384
4.5741187136 5.8161927753 2.2578036872
4.6242908039 6.0786068708 15.3290517917
4.3098776410 7.1090785018 15.3593126450
4.8427046722 6.8016320624 15.8161936707
4.2540576113 7.9612776661 1.1651817780
4.7435731969 7.1777513375 1.3076822781
4.2479153973 7.9510802284 15.2825112384
4.8523702649 7.5874239207 15.8037043214
4.4773944469 8.6864637968 1.0774880883
4.3565907991 8.4684500674 15.2221622989
4.6959918673 8.2679260677 15.5196419645
4.6347876313 9.4020408367 1.1556283207
4.1429135277 9.9681640674 14.0465555602
4.4390453335 9.4939768754 14.5336344100
4.8120391348 8.8665315476 15.1685149122
4.1338875943 10.0422772813 1.3646544525
4.6302483700 10.6077849177 1.7502540884
4.8889477543 10.1711091011 14.0443333605
4.1746123357 10.5146393769 13.4820607245
4.8826583920 11.4065215571 2.2853313546
3.8609636060 11.7231021044 11.0878654714
4.6763575443 11.5744725773 11.1387533597
4.1676539894 11.9251791818 10.5288715948
4.5440501685 11.3209913717 12.0222135964
4.5275405200 11.0260643061 12.7277478189
4.4884608232 11.9689357968 2.8247885070
4.3771182090 12.3825661065 3.6553422617
4.0495377463 12.7544364901 5.1107406067
4.3249606677 12.6426671772 4.6142377756
3.8065947411 12.7133323051 5.7479057465
4.3741057453 12.6551672871 5.6743984763
4.4445116083 12.5489406217 6.4117561323
4.5012319854 12.3782946184 7.2446776874
4.2485100515 12.2244912307 8.5106644271
4.0616502416 12.0998392794 9.6916987628
5.1442199349 3.8752755818 4.7154096967
5.7564503908 3.8710165513 3.8911116581
6.1553567767 3.3714976463 4.5583066704
5.8988488691 3.2082537642 5.5289082597
5.1253962971 3.5719056130 5.9429115824
5.7736364282 3.0702664550 6.6059069088
5.0677300229 3.4734913846 7.0045239317
5.5950649816 3.0570036953 7.5202890122
5.0596417585 3.4063957763 8.0401767583
5.7887466002 2.8317654128 8.4893836161
5.0660320075 3.3509375725 9.1305048581
5.6817369555 2.8058160567 9.7094301698
5.0482978808 3.3367021534 10.2577314375
5.6538259466 2.7971347394 10.8441395687
5.0838324938 3.3379435384 11.3702737362
5.7110715670 2.8130606035 11.9533559973
5.2088638522 3.3494841994 12.4335439018
5.9172540373 2.8439691854 13.0994481673
5.3448678001 3.3609626738 13.1038642955
5.5538328282 3.3971988301 13.7127599046
5.0215721121 4.5769783225 3.4432992484
5.5190564667 4.7843201267 2.7116506229
6.0896662171 4.2373900146 3.0665538676
5.1879380331 4.0068339238 14.1370563459
4.8716909956 4.7155242744 14.6142479516
5.5989701736 4.0923140493 14.9260700212
5.4242334994 4.6694693504 15.2751591882
6.0915820949 4.1867814927 15.5488441455
5.0206691694 5.2229837499 2.5673807936
5.3496696487 5.7307978432 1.9336568491
5.4792186857 5.1398107610 2.3391282299
4.9713431723 5.2116212605 15.1946670965
5.6910880548 5.1924356765 15.8531228215
5.1698506123 6.5189624734 1.4840049247
5.3648712194 6.2167858193 16.0750737613
5.3349151304 6.9870963643 16.2068426945
5.9154312077 6.4693034477 16.4721394451
5.2221965066 7.7671435400 1.1336995901
5.4483047635 6.9223251189 1.2603923937
5.4388149660 7.5701375058 16.1804954713
5.8507996252 7.1716399467 16.4423657192
5.2596423606 8.7073662959 1.1282889134
5.8581479147 7.6817590823 16.2742143481
5.4926138324 8.2206173599 15.8124326164
5.2511803784 9.3669984792 1.2476044579
4.8549799458 9.8892647516 1.3585065549
5.6839913356 9.7173748528 1.5797107138
5.7571615957 9.0119640055 15.2784655709
5.2916072709 9.5770237756 14.7214793060
5.7900166532 10.6894089030 2.1202685441
4.9108219452 10.6845364096 13.3882702563
5.6713884048 10.4650954284 13.5775829693
5.3181998629 10.8742606023 12.9442743519
5.6921791780 10.0133416765 14.2512945276
5.5886267030 11.4285427207 2.4622321495
5.2439374906 11.8209175018 2.7153698329
5.9722681028 11.7062364516 2.9521693971
5.1408641994 12.0861857494 8.0283271906
5.9477000606 11.8911899937 7.4338584850
5.3550741769 12.2044590205 7.1484308907
4.9126364683 11.9627205359 9.1596214715
5.8961156760 11.6362277237 8.5729627058
4.6609252289 11.8856999365 10.1123805226
5.5025473064 11.5520460117 9.9832789941
5.7289516868 11.2662253950 11.1213788018
5.3087047908 11.1632914535 12.1077661164
5.3741061269 12.1530787596 3.3921978077
5.2254812419 12.4325929092 4.3345470424
5.0563186056 12.5400930612 5.1996732735
5.2383067412 12.3988437634 6.2189967040
6.3864121937 2.3246865514 9.2192851394
6.5053041953 2.3759166235 8.3440014944
7.0843328938 1.9971678522 8.6790464772
7.1226920043 1.7809967195 9.7896646755
6.3197400442 2.2710248716 10.3386663111
7.0283824921 1.7415255376 11.0703264351
6.2861613988 2.2910149210 11.4710883737
6.9129838631 1.8902459777 12.1726237708
6.3300422655 2.3529501763 12.4923075369
6.9126883007 2.0543313870 13.0991240257
6.4371806435 2.3784738162 13.1178194744
6.6889438518 2.3929639134 13.7057368459
6.5391159995 3.5794997308 3.7382372605
7.1529657453 3.0786038580 4.3315551031
6.6591840011 2.9440202228 5.1798360442
6.7050920721 2.6863409304 6.1873812673
6.3631694862 2.6184070968 7.4441722502
6.2682476291 2.9085446162 14.1228332893
5.8931464097 3.4824840137 14.5391271468
6.5828698270 3.0586292217 14.9048080947
6.2084842191 3.6099640271 15.1555515605
6.9204548125 3.3797873518 15.5840886257
6.0476982413 4.9503457495 2.2723406687
6.8255959518 5.0799252518 1.9425961600
6.8712652459 4.4429818403 2.4822760781
7.0296108441 3.8514538096 3.0805493696
6.8035769269 4.2992334046 16.1721046737
6.2256487494 5.5783132978 1.7057045552
6.4220414892 6.0790216483 1.4187333116
6.8004496458 5.6345238432 1.5922841433
6.4442527969 5.1827903039 16.4135839899
5.9924178898 5.7761088869 16.3669938419
6.6249674282 5.8610917218 16.6516442934
5.8227076185 6.2674411976 1.4468271055
6.2012048339 6.9030034263 1.2599468295
6.4449552858 6.7668557235 16.5948169594
6.1170197273 7.9533669046 1.2513133195
6.5605477910 7.2901553224 1.2769785955
6.9388991983 7.4789699258 1.4381688019
6.2614308084 7.3706377056 16.4467455163
6.8254687171 7.2107573737 16.4147070729
6.3477194100 7.8331880725 16.1372730515
5.8100457388 8.8953570754 1.3085746604
6.6894087660 8.5864146423 1.5889562484
6.3701811022 8.4963996718 15.6353792316
6.8131847630 9.6489183451 2.0332150349
6.3437788605 9.0166123646 15.2525239838
6.2105221947 9.4822214351 14.7535626956
6.9239804536 10.4446160097 2.5669321935
6.1836598750 11.1513007295 2.5724809737
6.7375099620 11.2156580829 3.0615230265
6.4298516536 11.1886634646 9.3636806972
7.2808274672 10.8155473363 8.8263424679
6.6922535231 11.2242254570 8.4626303654
6.3194477211 11.0994540951 10.4188216003
7.0581240325 10.7530327977 9.9435518406
6.3916387547 10.9826502341 11.1936995562
6.9356747182 10.7042184699 10.9208161373
6.7886438904 10.7000842165 11.6200148996
6.3078698515 10.3447099051 13.4597590632
6.1230294425 10.6637165189 12.8285827840
6.3327794120 10.0196368497 13.9882176712
6.5369530860 11.6971732811 3.3847584263
5.8835549094 12.1060162632 6.6944411824
6.6121975479 11.7712944295 6.5061680681
6.1101267710 12.1292895508 6.0518910362
6.7467976985 11.4267488240 7.5669006510
6.2166330150 10.9273723493 11.8784283675
6.1404887774 11.9926301102 3.4948326810
6.0621765894 12.1620052851 4.1221072030
5.9323292381 12.2583385664 5.1677790999
7.6617735138 1.3740459197 10.5574360087
7.8480302342 1.3863817808 9.7983910142
8.3561465696 1.1631900226 10.3453598799
8.2100690273 1.1412115786 11.2127473970
7.6578531671 1.3364041690 11.3092507637
8.0446339983 1.2039704184 11.8512064615
7.2700570576 2.2574395635 7.0459602758
7.5609030120 2.3254773439 6.1975719918
8.2113880703 1.9989070810 6.6976685942
7.8242143938 1.8522047801 7.8897369462
6.9980948379 2.2002797896 7.8799815828
7.7986040058 1.5877987703 9.0006922169
7.5373879481 1.4670929968 11.9832675858
7.5674338851 1.6196644473 12.9308358940
7.6486336373 1.9280784760 14.0707686641
7.0110781117 2.5005671801 14.5364483323
7.6481368321 2.3150991910 14.9534021808
7.1974949913 2.7308984910 15.1668638470
7.7823162169 2.6932580120 15.5613418645
7.2582673322 3.4163068041 3.5753623962
7.7252777551 3.6232472428 3.1659281910
7.9699557362 3.2269725272 3.6787433049
8.1639693039 2.7656006495 4.3985453203
7.5327956371 2.5909923638 5.2989041191
7.7881429693 3.3821092316 16.1712985060
7.4483501278 4.7493666813 2.1533692770
7.7951435415 4.1761505937 2.6235755878
7.5918364362 4.1080540133 16.5353392291
7.1519511476 4.8855074984 16.6752146977
7.9274936525 4.4537904295 16.7453518238
7.4405770584 4.9394685404 16.8354899283
6.9239560407 6.2182049830 1.4464884292
7.4747506759 5.5009338611 1.7940431356
7.2286450425 5.6060918737 16.7976088272
6.8714392290 6.8702939695 1.3601531267
7.5632761478 6.5772569549 1.6374996907
7.6741773907 6.0347904481 16.6959026042
7.1894183280 6.4190271288 16.6339940170
7.6629872756 7.6312645026 1.7598360124
7.3514269532 6.9726451853 16.3717948265
7.2370956608 7.7360831211 15.8560351695
7.7113009050 8.6403116125 2.0233875601
6.9192155810 8.8214484753 15.1378102350
7.5947680675 8.3241907037 15.1263397176
7.4447150324 8.9012643432 14.6531387314
7.6103246254 9.3851608326 2.2744258828
7.3341900447 9.8254281178 2.3679694680
8.0193539278 9.6836587249 2.7571215529
6.9619900372 9.9826948530 13.4047081904
7.6231370263 9.5120246929 13.3954271515
7.5864506006 9.7917277567 12.7617406359
6.9492451341 9.4567175615 14.3495927568
7.5695298145 9.2398754548 13.9700335425
7.1166852209 11.4089783248 3.8259053812
7.6626340658 10.6200946510 3.3993396100
7.7771516271 10.9775187413 4.1644272358
7.2155985068 11.0400201508 8.0045246102
7.9400322489 10.6326440638 7.8245851172
7.4527902124 11.0674482026 7.3701849848
7.8832498874 10.4898889341 8.6914803556
7.8752127045 10.3339027453 9.4975583021
7.6411600347 10.2958159805 10.6075612681
6.8855260467 10.4333224523 12.3735112171
7.4713281808 10.2056313140 11.6940438141
6.5809083341 11.8782942855 3.8547512590
7.4552428696 11.3614128073 4.5905765723
6.7909553019 11.8293956062 4.6467886119
6.6183195352 11.9304207470 5.5837374270
7.3235363248 11.4680666956 5.5385286637
7.3785385044 11.2790054211 6.6284832543
8.4530778754 1.2730695238 9.4466446259
9.1386770796 1.1595591549 10.0827812256
8.9385934532 1.0894869568 11.1701734814
8.7427149730 1.1179301774 12.2078996331
8.1672194828 1.2690648504 12.6362714987
8.8246810612 1.2025315190 13.2856474619
8.2742627802 1.4097313191 13.5643088717
8.8369627100 1.3298342289 14.0013714538
8.5001558216 1.5763729379 14.3263403168
9.0773605759 1.5809656718 14.6289003338
8.4852527441 2.3611895780 5.1035818407
8.9292024699 2.5583684890 4.4523432001
9.2690199151 2.2540749838 5.0137876564
8.8952795735 2.0447914625 5.9218454237
8.1316741617 2.2283133393 5.8140538543
8.9061399369 1.8579827306 6.6873068717
8.8672513137 1.6775897287 7.5018630572
8.5560125897 1.4577146533 8.5285458866
8.5068063621 2.0713519388 15.1435841755
8.5029078512 2.6870755637 15.9681922596
8.5820956106 3.7356577006 3.0608743560
8.9650033506 3.0548824360 3.7631162380
8.5350498223 3.1487825406 16.3658646557
8.2708572687 3.7573128044 16.5595327060
8.9317249334 3.4106424703 16.4641596746
8.1500412744 4.8836589567 2.1952328717
8.6030725783 4.3941541064 2.5511510713
8.7223586733 4.3739786983 16.5844467597
8.3467557681 4.9341819074 16.7399537275
8.3357400368 5.7665726519 1.9966716696
8.5269643599 5.3340176643 16.5522011538
8.8886297798 4.9890687556 16.4245968944
8.9188711462 5.6333752180 16.0640208938
8.1617166873 5.6807574372 16.6681605138
8.4249950659 6.7823522699 1.9774072564
8.0240331038 6.4443823716 16.2713515832
8.7193942507 6.5575405745 15.5979374251
8.4349162054 7.7349867718 2.0899223613
8.5985286300 7.9302993787 14.2398490737
9.1876622282 7.4686710876 13.7642107584
8.8266550897 8.1379818988 13.5038633903
8.1997976172 7.5172567860 15.2493492846
9.0512904314 6.9675915223 14.7427154603
8.4664864033 8.3931351884 2.2751870357
8.1591208781 8.9752878895 2.3673066400
8.8747587553 8.6503389494 2.6696981354
8.2255666848 8.9018634877 13.3695809198
8.8196607641 8.4607287471 12.9364693762
8.6246556102 8.8992290370 12.5083868706
7.9724650213 8.4918007027 14.4791573474
8.9987973393 9.3102511937 3.2543541161
8.3182981482 9.8673411221 10.2677272354
8.8265499921 9.4694441520 9.9445844226
8.5221985353 9.8681079799 9.4777007778
8.1932758157 9.7485313934 11.2318764581
8.7711349270 9.3128270628 10.7653497050
8.1580197410 9.4782114130 12.2347032989
8.6870061137 9.1301231847 11.7069506012
8.4792408656 9.9792884582 3.4789398992
7.9926995425 10.9539181552 4.9558634897
8.4480374874 10.3889942940 4.2671719078
8.0135250143 10.9254074563 5.9834899448
8.6241942249 10.4154741105 5.3970256353
7.9033744322 10.8807324184 6.8748699271
8.5623242728 10.3757518668 6.6494088871
8.6768325597 10.1214703298 7.6351210311
8.4437747376 10.1086524324 8.6053300495
9.2783760188 1.4117423932 8.4009258015
9.5567089988 1.6320149361 7.7785029900
9.7801353382 1.5515091789 8.4549426674
9.6484724903 1.3695982392 9.3022536183
9.0392749228 1.2567758540 9.1140747512
9.7752297856 1.3488964473 10.2891974487
9.6263309484 1.2795384834 11.1316344209
9.4965719423 1.2634054685 12.1655663628
9.4100447803 1.2904169722 13.1791077029
9.3150116150 1.3656838325 14.0192710942
9.5723713889 1.7013657840 14.6691561117
9.6715897988 2.6075482152 4.2639978121
9.8525671005 2.2315421246 5.0192843427
9.5749925194 2.0605686511 5.6865296094
9.5675731660 1.9229336339 6.7942088068
9.3844077700 2.0168736524 15.2532037930
9.1441358056 2.4367786305 15.8438613390
8.9698569681 2.8525586635 16.2567443778
9.3969700702 2.9593699434 16.1472270873
9.4657455335 3.6682818039 3.2111122774
9.7000510876 3.1549365365 3.6218505133
9.3810387460 3.7317012437 16.2564319109
8.9145985394 5.0820236535 2.3537191559
9.2487957844 4.3816263896 2.7509891430
9.3097654303 4.6529184506 16.1504197399
9.7329055976 4.0218237696 15.8518184590
9.7568625622 4.5845755491 15.6420898939
9.0784635342 6.0430806062 2.2641293366
9.5352262920 5.3093655735 2.5726985873
9.5243195963 5.2732296932 15.6079654173
9.9051384891 4.9086492211 15.1677188169
9.7742235201 5.6068943840 14.9142045236
9.0849111201 7.0726440397 2.2950082202
9.6004612722 6.4323911788 2.5213791363
9.2870557855 6.0931864186 15.3237446204
9.5736814284 6.2943594719 14.6553179710
8.9422090689 7.8982447185 2.3734312070
9.5122069964 7.6198835531 2.6650278408
9.5528277845 8.0337438732 11.2387582749
9.9441900809 7.3712597662 10.7757133595
9.7932058224 7.8925756271 10.2943324368
9.5113559073 7.7412560266 12.2157451477
9.8732901289 7.1905250829 11.6685422281
9.2105729045 7.8960652116 12.9535905152
9.6883422074 7.0858601641 12.8521079453
9.6209180082 6.6798305601 13.9256162073
9.6558435954 8.5084482308 3.2388330828
9.5384147086 9.0477147901 8.0273474190
9.9506490906 8.4616966925 7.5219237767
9.7631718183 8.9438480991 7.0954385053
9.5697664024 8.7273956264 9.0028328108
9.9189670321 8.2433598619 8.3588390871
9.3439138669 8.7330245980 10.1289628610
9.8521248649 8.0505177535 9.3918712345
9.1169006313 8.7504830889 11.2186822086
9.0997874090 8.4298171187 12.1451234734
9.5680115286 9.1047150495 3.7269816195
9.1115824786 9.6871488351 3.9420694963
9.1925256417 9.8363447736 4.8216359783
9.6853661769 9.2364335545 4.3947887151
9.2367007279 9.8056670218 5.8864183900
9.7341224837 9.2490738598 5.2650128221
9.2613588415 9.6227681846 7.0765533662
9.7548116240 9.1155415170 6.2438653782
9.0272768150 9.6985188106 8.0712605971
9.0643060438 9.4116669939 9.0401326793
10.0604611367 2.0087399775 8.0135139497
10.1078052605 1.8163938221 9.0507494971
10.1253008663 1.7301948573 10.0106276439
10.1234975912 1.7301631401 11.0386975726
10.0428043328 1.7214447588 12.1115875381
9.9367511523 1.7052444232 13.1648367998
9.7931731118 1.6970361003 14.0838266920
10.0144808594 2.3654174192 4.5853059749
10.0888757602 2.2757669178 4.9303280957
10.0301577166 2.1783744542 6.0025082111
10.2714411677 2.4887159928 7.2252426209
10.3492520032 2.5041777990 6.7690092421
10.3977420399 2.7305469027 8.1937887385
10.3727175104 2.5177418805 9.0035905575
10.3617344246 2.2691248337 9.7779801054
10.4368421975 2.3842091287 10.7501569305
10.4169503147 2.4430960516 11.9709986002
10.2926799197 2.4282109809 13.1163828543
10.1430730779 2.3359144258 14.1217542100
9.8784747021 2.2894833059 15.0015640116
9.6243525227 2.5129278588 15.6950557712
9.9314710429 3.5536362972 3.3416318588
9.9992943730 3.0707508148 3.7412780307
10.0512879264 2.5395084555 4.3348151464
10.5061343711 3.0695178057 7.3142213406
10.6151967982 4.0452113044 7.5808395381
10.5344760323 3.5325800294 7.9790051332
10.5167429868 3.4467858522 9.0255283258
10.5330718226 3.2244374869 10.2008404985
10.5822813779 2.9649964315 10.8496021730
10.5566533332 2.6790598682 11.4528751223
10.5695610962 3.0507425458 12.2234269922
10.5962683618 3.7257745485 12.4002920526
10.4882019838 3.4524064835 13.0064743810
10.3169289967 3.1944292408 14.0930933096
10.1353408329 2.9812550813 14.8730929960
9.8329744993 3.1826003423 15.6641089575
9.8093814182 4.3569881832 2.9597846236
10.0529319635 3.6413029032 3.3234964656
10.5956794650 4.8504051372 7.9707487463
10.6567344728 5.0125069234 7.3192320248
10.5440156424 4.5142344541 8.9402511929
10.5262735515 4.3969843991 10.0472282207
10.6104947878 3.6459327206 11.0223156613
10.5477519631 4.3594091718 11.2623541922
10.5189396340 4.3837970726 12.5107177931
10.6115740087 4.0350281600 11.8024536710
10.4104577955 4.4277721960 13.4695603639
10.3472749360 4.0178591525 14.0361200056
10.0859701997 3.9898503947 15.0365281274
9.8341666408 5.7349339770 2.6837009881
10.6552458657 6.2430887589 6.3981999894
10.7051996703 6.0478970207 6.2349843994
10.6698000521 6.5764258325 5.8733432913
10.6067782599 5.8013523720 7.2679512657
10.6864782166 5.6742091621 6.7225821047
10.5259833084 5.8421082023 8.1373599580
10.4987855579 5.5550400780 8.8897606149
10.4503946174 5.4419080309 9.8813013510
10.4069714441 5.4090477463 11.0290701687
10.3685141783 5.3369461281 12.2181425867
10.2930774964 5.2219949446 13.3155848469
10.1603521015 4.9084149902 14.3349556143
9.8393773828 6.9035721456 2.7086915973
10.5570985174 7.1292834014 5.9168415376
10.5964147371 7.2911142515 5.3166665884
10.5123392610 6.7890354523 6.8626131541
10.4356694805 6.6423757393 7.8527067019
10.3831163324 6.4793664143 8.8284385217
10.3635397670 6.2395309009 9.6361871453
10.2183975406 6.4707371282 10.7084428668
10.1390077686 6.3046967090 11.9662526275
10.0550843766 6.1302552326 13.1021660099
9.9584670453 5.8645081375 14.0871508408
9.8903589989 7.8379554742 3.0157512578
10.3998782362 7.9873172854 5.0267281222
10.5274787255 7.7563895447 4.7964594291
10.3584578569 8.1343829397 4.3008564363
10.3694562001 7.8945625756 5.8973360783
10.3981656939 7.5366935062 6.5231799417
10.2482257322 7.6317991155 7.4784481238
10.1896128661 7.3861671797 8.6324261397
10.1353418622 7.1531638360 9.7824642319
10.0929514765 8.2757968794 3.5987785388
10.0573499165 8.5841945570 4.0931574768
10.0679562583 8.7411226268 4.8267351250
10.1300021214 8.5644103039 5.6120007882
10.1271694333 8.3217265906 6.6139273871
3 2 1 0
3 4 3 0
3 0 3 2
3 4 5 3
3 8 7 6
3 10 9 6
3 6 9 8
3 12 11 10
3 10 11 9
3 11 12 1
3 12 0 1
3 12 13 0
3 0 14 4
3 0 13 14
3 5 4 15
3 15 4 14
3 7 16 6
3 6 16 10
3 10 16 17
3 10 17 12
3 12 17 18
3 20 19 18
3 19 12 18
3 19 13 12
3 22 14 21
3 14 19 21
3 14 13 19
3 14 22 15
3 20 23 19
3 19 23 21
3 26 25 24
3 28 27 24
3 24 27 26
3 30 29 28
3 28 29 27
3 32 31 30
3 30 31 29
3 34 33 32
3 32 33 31
3 36 35 34
3 34 35 33
3 38 37 36
3 36 37 35
3 40 39 38
3 38 39 37
3 42 41 40
3 40 41 39
3 42 43 41
3 46 45 44
3 46 44 25
3 44 24 25
3 44 47 24
3 24 48 28
3 24 47 48
3 28 49 30
3 28 48 49
3 30 50 32
3 30 49 50
3 32 51 34
3 32 50 51
3 34 52 36
3 34 51 52
3 36 53 38
3 36 52 53
3 38 54 40
3 38 53 54
3 40 55 42
3 40 54 55
3 43 42 56
3 56 42 55
3 44 45 57
3 57 45 58
3 44 59 47
3 44 57 59
3 47 60 48
3 47 59 60
3 60 1 2
3 49 60 2
3 48 60 49
3 49 2 3
3 49 3 50
3 50 3 5
3 61 50 5
3 51 50 61
3 51 62 52
3 51 61 62
3 52 63 53
3 52 62 63
3 53 64 54
3 53 63 64
3 54 65 55
3 54 64 65
3 56 55 66
3 66 55 65
3 57 58 8
3 58 7 8
3 58 67 7
3 57 8 9
3 57 9 59
3 59 9 11
3 59 11 60
3 60 11 1
3 15 68 61
3 15 61 5
3 61 69 62
3 61 68 69
3 62 70 63
3 62 69 70
3 63 71 64
3 63 70 71
3 64 72 65
3 64 71 72
3 66 65 73
3 73 65 72
3 16 7 74
3 7 75 74
3 7 67 75
3 76 17 16
3 76 16 74
3 77 18 17
3 77 17 76
3 77 20 18
3 21 78 22
3 68 15 22
3 78 68 22
3 79 68 78
3 68 80 69
3 68 79 80
3 69 81 70
3 69 80 81
3 70 82 71
3 70 81 82
3 84 72 83
3 72 82 83
3 72 71 82
3 72 84 73
3 75 85 74
3 87 86 85
3 86 74 85
3 86 76 74
3 76 88 77
3 76 86 88
3 89 23 20
3 77 89 20
3 88 89 77
3 78 21 23
3 89 78 23
3 90 78 89
3 92 79 91
3 79 90 91
3 79 78 90
3 79 92 80
3 80 92 93
3 80 93 81
3 81 93 94
3 81 94 82
3 82 94 95
3 82 95 83
3 87 96 86
3 86 96 88
3 88 96 97
3 88 97 89
3 89 97 98
3 89 98 90
3 90 98 99
3 90 99 91
3 102 101 100
3 104 103 100
3 100 103 102
3 106 105 104
3 104 105 103
3 108 107 106
3 106 107 105
3 110 109 108
3 108 109 107
3 112 111 110
3 110 111 109
3 114 113 112
3 112 113 111
3 116 115 114
3 114 115 113
3 118 117 116
3 116 117 115
3 120 119 118
3 118 119 117
3 120 121 119
3 124 123 122
3 124 122 101
3 101 122 100
3 122 25 100
3 25 26 100
3 100 26 27
3 100 27 104
3 104 27 29
3 104 29 106
3 106 29 31
3 106 31 108
3 108 31 33
3 108 33 110
3 110 33 35
3 110 35 112
3 112 35 37
3 112 37 114
3 114 37 39
3 114 39 116
3 116 39 41
3 116 41 118
3 118 41 43
3 125 118 43
3 120 118 125
3 121 120 126
3 120 127 126
3 120 125 127
3 127 128 126
3 131 130 129
3 131 129 123
3 123 129 122
3 129 45 122
3 45 46 122
3 122 46 25
3 56 132 125
3 56 125 43
3 125 133 127
3 125 132 133
3 128 127 134
3 134 127 133
3 129 130 135
3 135 130 136
3 135 58 45
3 135 45 129
3 66 137 132
3 66 132 56
3 132 138 133
3 132 137 138
3 134 133 139
3 139 133 138
3 135 136 140
3 140 136 141
3 140 67 58
3 140 58 135
3 73 142 137
3 73 137 66
3 144 138 143
3 138 142 143
3 138 137 142
3 138 144 139
3 141 145 140
3 67 140 145
3 146 67 145
3 75 67 146
3 83 147 84
3 142 73 84
3 147 142 84
3 148 142 147
3 143 142 149
3 149 142 148
3 85 75 150
3 75 151 150
3 75 146 151
3 150 87 85
3 91 152 92
3 153 93 92
3 153 92 152
3 154 94 93
3 154 93 153
3 155 95 94
3 155 94 154
3 155 156 95
3 95 156 83
3 156 157 83
3 157 147 83
3 147 157 148
3 148 157 158
3 148 158 149
3 151 159 150
3 150 159 87
3 159 96 87
3 159 160 96
3 160 162 161
3 97 160 161
3 96 160 97
3 163 98 97
3 163 97 161
3 98 163 164
3 165 98 164
3 99 98 165
3 91 99 152
3 99 166 152
3 99 165 166
3 152 166 153
3 153 166 167
3 153 167 154
3 154 167 168
3 154 168 155
3 155 168 169
3 155 169 156
3 172 171 170
3 174 173 170
3 170 173 172
3 176 175 174
3 174 175 173
3 178 177 176
3 176 177 175
3 180 179 178
3 178 179 177
3 182 181 180
3 180 181 179
3 184 183 182
3 182 183 181
3 186 185 184
3 184 185 183
3 188 187 186
3 186 187 185
3 188 189 187
3 191 190 102
3 102 190 101
3 103 170 171
3 191 103 171
3 102 103 191
3 170 103 105
3 170 105 174
3 174 105 107
3 174 107 176
3 176 107 109
3 176 109 178
3 178 109 111
3 178 111 180
3 180 111 113
3 180 113 182
3 182 113 115
3 182 115 184
3 184 115 117
3 184 117 186
3 186 117 119
3 186 119 188
3 193 192 121
3 121 192 119
3 192 189 119
3 189 188 119
3 193 194 192
3 196 195 124
3 124 195 123
3 124 101 190
3 124 190 196
3 126 193 121
3 198 197 128
3 128 197 126
3 197 194 126
3 194 193 126
3 198 199 197
3 201 200 131
3 131 200 130
3 131 123 195
3 131 195 201
3 134 202 198
3 134 198 128
3 199 198 203
3 203 198 202
3 200 136 130
3 204 136 200
3 139 205 202
3 139 202 134
3 203 202 206
3 206 202 205
3 204 141 136
3 207 141 204
3 143 208 144
3 208 209 144
3 144 209 139
3 209 210 139
3 210 205 139
3 205 210 206
3 207 211 141
3 141 211 145
3 146 145 211
3 146 211 212
3 214 213 208
3 143 214 208
3 149 214 143
3 208 213 209
3 212 151 146
3 215 151 212
3 218 217 216
3 157 156 216
3 217 157 216
3 219 157 217
3 157 220 158
3 219 220 157
3 149 158 214
3 214 158 220
3 215 221 151
3 151 221 159
3 159 222 160
3 221 222 159
3 224 223 162
3 160 224 162
3 222 224 160
3 226 225 223
3 226 223 224
3 165 164 225
3 226 165 225
3 227 165 226
3 165 228 166
3 227 228 165
3 166 229 167
3 228 229 166
3 167 230 168
3 229 230 167
3 216 169 218
3 169 230 218
3 169 168 230
3 169 216 156
3 233 232 231
3 235 234 231
3 231 234 233
3 237 236 235
3 235 236 234
3 239 238 237
3 237 238 236
3 241 240 239
3 239 240 238
3 243 242 241
3 241 242 240
3 245 244 243
3 243 244 242
3 247 246 245
3 245 246 244
3 249 248 247
3 247 248 246
3 249 250 248
3 253 252 251
3 253 251 232
3 232 251 231
3 251 171 231
3 171 172 231
3 231 172 173
3 231 173 235
3 235 173 175
3 235 175 237
3 237 175 177
3 237 177 239
3 239 177 179
3 239 179 241
3 241 179 181
3 241 181 243
3 243 181 183
3 243 183 245
3 245 183 185
3 245 185 247
3 247 185 187
3 247 187 249
3 255 254 189
3 189 254 187
3 254 250 187
3 250 249 187
3 257 256 255
3 255 256 254
3 257 258 256
3 261 260 259
3 261 259 252
3 252 259 251
3 259 190 251
3 190 191 251
3 251 191 171
3 192 255 189
3 255 192 194
3 262 255 194
3 257 255 262
3 258 257 263
3 263 257 262
3 259 260 196
3 260 195 196
3 260 264 195
3 259 196 190
3 197 262 194
3 266 265 199
3 199 265 197
3 265 263 197
3 263 262 197
3 266 267 265
3 269 268 201
3 201 268 200
3 201 195 264
3 201 264 269
3 203 270 266
3 203 266 199
3 267 266 271
3 271 266 270
3 268 204 200
3 272 204 268
3 274 273 270
3 203 274 270
3 206 274 203
3 270 273 271
3 276 207 275
3 207 272 275
3 207 204 272
3 277 276 275
3 279 278 210
3 279 210 209
3 206 210 274
3 274 210 278
3 276 211 207
3 212 211 276
3 277 212 276
3 280 212 277
3 283 282 281
3 213 214 281
3 282 213 281
3 284 213 282
3 209 213 279
3 279 213 284
3 286 215 285
3 215 280 285
3 215 212 280
3 287 286 285
3 290 289 288
3 292 291 288
3 292 288 289
3 294 293 291
3 294 291 292
3 217 218 293
3 294 217 293
3 295 217 294
3 217 296 219
3 295 296 217
3 281 220 283
3 220 296 283
3 220 219 296
3 220 281 214
3 286 221 215
3 287 297 286
3 297 221 286
3 297 222 221
3 222 298 224
3 297 298 222
3 224 299 226
3 298 299 224
3 226 300 227
3 299 300 226
3 288 228 290
3 228 300 290
3 228 227 300
3 228 288 229
3 229 288 291
3 229 291 230
3 230 291 293
3 230 293 218
3 303 302 301
3 305 304 301
3 301 304 303
3 307 306 305
3 305 306 304
3 309 308 307
3 307 308 306
3 311 310 309
3 309 310 308
3 311 312 310
3 314 313 233
3 233 313 232
3 315 233 234
3 315 314 233
3 316 234 236
3 316 315 234
3 317 236 238
3 317 316 236
3 240 301 302
3 317 240 302
3 238 240 317
3 301 240 242
3 301 242 305
3 305 242 244
3 305 244 307
3 307 244 246
3 307 246 309
3 309 246 248
3 309 248 311
3 319 318 250
3 250 318 248
3 318 312 248
3 312 311 248
3 321 320 319
3 319 320 318
3 321 322 320
3 325 324 323
3 252 253 323
3 253 325 323
3 253 326 325
3 253 232 313
3 253 313 326
3 254 319 250
3 319 254 256
3 319 256 321
3 256 258 321
3 258 322 321
3 258 327 322
3 330 329 328
3 330 328 324
3 324 328 323
3 328 260 323
3 260 261 323
3 323 261 252
3 263 332 331
3 327 263 331
3 258 263 327
3 332 333 331
3 328 329 334
3 334 329 335
3 334 264 260
3 334 260 328
3 265 332 263
3 265 267 332
3 267 333 332
3 267 336 333
3 338 337 335
3 337 268 335
3 269 334 335
3 269 335 268
3 269 264 334
3 337 338 339
3 342 341 340
3 341 336 340
3 336 271 340
3 336 267 271
3 343 272 337
3 337 272 268
3 337 339 344
3 337 344 343
3 342 340 273
3 274 342 273
3 345 342 274
3 273 340 271
3 343 275 272
3 277 275 343
3 344 277 343
3 346 277 344
3 348 347 278
3 348 278 279
3 274 278 345
3 345 278 347
3 350 280 349
3 280 346 349
3 280 277 346
3 351 350 349
3 354 353 352
3 356 355 352
3 356 352 353
3 358 357 355
3 358 355 356
3 359 357 358
3 361 360 282
3 361 282 283
3 282 362 284
3 360 362 282
3 279 284 348
3 348 284 362
3 350 285 280
3 287 285 350
3 351 287 350
3 363 287 351
3 366 365 364
3 289 290 364
3 365 289 364
3 367 289 365
3 352 292 354
3 292 367 354
3 292 289 367
3 292 352 294
3 294 352 355
3 294 355 295
3 295 355 357
3 359 368 357
3 368 295 357
3 368 296 295
3 283 296 361
3 361 296 368
3 363 369 287
3 287 369 297
3 297 370 298
3 369 370 297
3 298 371 299
3 370 371 298
3 364 300 366
3 300 371 366
3 300 299 371
3 300 364 290
3 374 373 372
3 376 375 372
3 372 375 374
3 376 377 375
3 380 379 378
3 382 381 378
3 378 381 380
3 302 303 382
3 303 381 382
3 303 383 381
3 304 372 373
3 383 304 373
3 303 304 383
3 372 304 306
3 372 306 376
3 384 377 376
3 306 384 376
3 308 384 306
3 385 308 310
3 385 384 308
3 387 386 312
3 386 310 312
3 386 385 310
3 389 388 387
3 387 388 386
3 389 390 388
3 393 392 391
3 313 314 391
3 314 393 391
3 314 394 393
3 395 314 315
3 395 394 314
3 316 378 379
3 395 316 379
3 315 316 395
3 378 316 317
3 378 317 382
3 382 317 302
3 318 387 312
3 387 318 320
3 387 320 389
3 320 322 389
3 322 390 389
3 322 396 390
3 398 397 325
3 325 397 324
3 326 391 392
3 398 326 392
3 325 326 398
3 391 326 313
3 327 400 399
3 396 327 399
3 322 327 396
3 402 401 400
3 400 401 399
3 403 329 330
3 404 403 330
3 324 404 330
3 397 404 324
3 331 400 327
3 400 331 333
3 405 400 333
3 402 400 405
3 406 335 403
3 403 335 329
3 403 404 407
3 403 407 406
3 409 408 405
3 333 409 405
3 336 409 333
3 406 338 335
3 339 338 406
3 407 339 406
3 410 339 407
3 412 411 341
3 412 341 342
3 336 341 409
3 409 341 411
3 410 344 339
3 413 344 410
3 416 415 414
3 415 412 414
3 412 345 414
3 412 342 345
3 418 346 417
3 346 413 417
3 346 344 413
3 419 418 417
3 422 421 420
3 424 423 420
3 424 420 421
3 423 424 416
3 423 416 414
3 348 423 414
3 347 348 414
3 347 414 345
3 418 349 346
3 426 425 351
3 426 351 349
3 419 426 349
3 418 419 349
3 427 425 426
3 430 429 428
3 353 354 428
3 429 353 428
3 431 353 429
3 353 432 356
3 431 432 353
3 356 433 358
3 432 433 356
3 435 434 359
3 358 435 359
3 433 435 358
3 434 435 422
3 434 422 420
3 361 434 420
3 360 361 420
3 360 420 362
3 362 420 423
3 362 423 348
3 436 363 425
3 425 363 351
3 425 427 437
3 438 425 437
3 436 425 438
3 440 439 438
3 440 438 437
3 365 366 439
3 440 365 439
3 441 365 440
3 428 367 430
3 367 441 430
3 367 365 441
3 367 428 354
3 434 368 359
3 368 434 361
3 436 369 363
3 369 436 370
3 370 436 438
3 370 438 371
3 371 438 439
3 371 439 366
3 443 442 374
3 374 442 373
3 444 374 375
3 444 443 374
3 446 445 377
3 445 375 377
3 445 444 375
3 448 447 446
3 446 447 445
3 450 449 448
3 448 449 447
3 450 451 449
3 454 453 452
3 456 455 452
3 452 455 454
3 379 380 456
3 380 455 456
3 380 457 455
3 458 380 381
3 458 457 380
3 459 381 383
3 459 458 381
3 383 373 442
3 383 442 459
3 384 446 377
3 446 384 385
3 446 385 448
3 448 385 386
3 448 386 450
3 460 451 450
3 386 460 450
3 388 460 386
3 388 390 460
3 460 390 461
3 463 462 393
3 393 462 392
3 394 452 453
3 463 394 453
3 393 394 463
3 452 394 395
3 452 395 456
3 456 395 379
3 396 465 464
3 461 396 464
3 390 396 461
3 465 466 464
3 468 467 398
3 398 467 397
3 398 392 462
3 398 462 468
3 399 465 396
3 399 401 465
3 401 469 465
3 469 466 465
3 401 470 469
3 467 404 397
3 471 404 467
3 474 473 472
3 472 473 469
3 470 472 469
3 475 472 470
3 471 407 404
3 476 407 471
3 474 472 477
3 474 477 478
3 409 477 408
3 477 475 408
3 477 472 475
3 476 410 407
3 479 410 476
3 482 481 480
3 484 483 480
3 484 480 481
3 483 484 478
3 483 478 477
3 412 483 477
3 411 412 477
3 411 477 409
3 486 413 485
3 413 479 485
3 413 410 479
3 487 486 485
3 490 489 488
3 488 489 482
3 480 488 482
3 491 488 480
3 416 491 415
3 491 483 415
3 491 480 483
3 415 483 412
3 486 417 413
3 419 417 486
3 487 419 486
3 492 419 487
3 495 494 493
3 497 496 493
3 497 493 494
3 499 498 496
3 499 496 497
3 498 499 490
3 498 490 488
3 422 498 488
3 421 422 488
3 421 488 424
3 424 488 491
3 424 491 416
3 492 500 419
3 419 500 426
3 502 501 427
3 426 502 427
3 500 502 426
3 504 503 501
3 504 501 502
3 506 505 503
3 506 503 504
3 429 430 505
3 506 429 505
3 507 429 506
3 429 508 431
3 507 508 429
3 493 432 495
3 432 508 495
3 432 431 508
3 432 493 433
3 433 493 496
3 433 496 435
3 435 496 498
3 435 498 422
3 501 437 427
3 437 501 440
3 440 501 503
3 440 503 441
3 441 503 505
3 441 505 430
3 511 510 509
3 513 512 509
3 509 512 511
3 442 443 513
3 443 512 513
3 443 514 512
3 515 443 444
3 515 514 443
3 516 444 445
3 516 515 444
3 517 445 447
3 517 516 445
3 518 447 449
3 518 517 447
3 449 451 518
3 518 451 519
3 521 520 454
3 454 520 453
3 522 454 455
3 522 521 454
3 523 455 457
3 523 522 455
3 458 509 510
3 523 458 510
3 457 458 523
3 509 458 459
3 509 459 513
3 513 459 442
3 524 519 451
3 524 451 460
3 526 525 461
3 525 460 461
3 525 524 460
3 526 527 525
3 529 528 463
3 463 528 462
3 463 453 520
3 463 520 529
3 464 526 461
3 464 466 526
3 466 527 526
3 466 530 527
3 531 467 468
3 532 531 468
3 462 532 468
3 528 532 462
3 535 534 533
3 534 530 533
3 530 469 533
3 530 466 469
3 536 471 531
3 531 471 467
3 531 532 537
3 531 537 536
3 540 539 538
3 538 539 535
3 538 535 533
3 474 538 533
3 473 474 533
3 473 533 469
3 541 476 536
3 536 476 471
3 536 537 542
3 536 542 541
3 540 538 543
3 540 543 544
3 478 543 474
3 474 543 538
3 545 479 541
3 541 479 476
3 541 542 546
3 541 546 545
3 549 548 547
3 551 550 547
3 551 547 548
3 553 552 550
3 553 550 551
3 481 482 552
3 553 481 552
3 554 481 553
3 543 484 544
3 484 554 544
3 484 481 554
3 484 543 478
3 545 485 479
3 487 485 545
3 546 487 545
3 555 487 546
3 558 557 556
3 560 559 556
3 560 556 557
3 562 561 559
3 562 559 560
3 561 562 549
3 547 561 549
3 563 561 547
3 564 547 550
3 563 547 564
3 490 564 489
3 564 552 489
3 564 550 552
3 489 552 482
3 566 492 565
3 492 555 565
3 492 487 555
3 568 567 566
3 568 566 565
3 570 569 567
3 570 567 568
3 572 571 569
3 572 569 570
3 571 572 558
3 556 571 558
3 573 571 556
3 574 556 559
3 573 556 574
3 495 574 494
3 574 561 494
3 574 559 561
3 494 561 497
3 497 561 563
3 497 563 499
3 499 563 564
3 499 564 490
3 566 500 492
3 500 566 502
3 502 566 567
3 502 567 504
3 504 567 569
3 504 569 506
3 506 569 571
3 506 571 507
3 507 571 573
3 507 573 508
3 508 573 574
3 508 574 495
3 575 510 511
3 512 576 511
3 511 576 575
3 514 577 512
3 512 577 576
3 515 578 514
3 514 578 577
3 516 579 515
3 515 579 578
3 517 580 516
3 516 580 579
3 518 581 517
3 517 581 580
3 519 581 518
3 582 520 521
3 582 521 583
3 521 584 583
3 521 522 584
3 586 584 585
3 584 523 585
3 584 522 523
3 510 575 523
3 575 585 523
3 575 587 585
3 588 575 576
3 587 575 588
3 589 576 577
3 588 576 589
3 590 577 578
3 589 577 590
3 591 578 579
3 590 578 591
3 592 579 580
3 591 579 592
3 593 580 581
3 592 580 593
3 524 594 519
3 594 581 519
3 594 593 581
3 525 595 524
3 524 595 594
3 527 595 525
3 596 528 529
3 597 596 529
3 597 529 520
3 598 597 520
3 582 598 520
3 598 582 583
3 599 586 585
3 601 600 599
3 585 601 599
3 587 601 585
3 602 587 588
3 601 587 602
3 603 588 589
3 602 588 603
3 590 605 604
3 603 590 604
3 589 590 603
3 605 590 591
3 605 591 606
3 608 607 606
3 591 608 606
3 592 608 591
3 609 592 593
3 608 592 609
3 610 593 594
3 609 593 610
3 611 594 595
3 610 594 611
3 530 611 527
3 527 611 595
3 613 612 596
3 612 528 596
3 612 532 528
3 613 596 597
3 600 601 614
3 600 614 615
3 616 601 602
3 614 601 616
3 617 602 603
3 616 602 617
3 603 604 618
3 619 603 618
3 617 603 619
3 621 620 619
3 621 619 618
3 620 621 607
3 608 620 607
3 622 620 608
3 623 608 609
3 622 608 623
3 624 609 610
3 623 609 624
3 535 624 534
3 624 611 534
3 624 610 611
3 534 611 530
3 612 537 532
3 625 537 612
3 628 627 626
3 630 629 626
3 630 626 627
3 629 630 615
3 614 629 615
3 631 629 614
3 632 614 616
3 631 614 632
3 633 616 617
3 632 616 633
3 634 617 619
3 633 617 634
3 635 619 620
3 634 619 635
3 636 620 622
3 635 620 636
3 637 622 623
3 636 622 637
3 540 637 539
3 637 624 539
3 637 623 624
3 539 624 535
3 625 542 537
3 638 542 625
3 628 626 639
3 628 639 640
3 641 626 629
3 639 626 641
3 642 629 631
3 641 629 642
3 643 631 632
3 642 631 643
3 644 632 633
3 643 632 644
3 645 633 634
3 644 633 645
3 646 634 635
3 645 634 646
3 647 635 636
3 646 635 647
3 648 636 637
3 647 636 648
3 544 648 540
3 540 648 637
3 638 546 542
3 649 546 638
3 652 651 650
3 650 651 640
3 639 650 640
3 653 650 639
3 654 639 641
3 653 639 654
3 655 641 642
3 654 641 655
3 656 642 643
3 655 642 656
3 657 643 644
3 656 643 657
3 549 657 548
3 657 645 548
3 657 644 645
3 548 645 551
3 551 645 646
3 551 646 553
3 553 646 647
3 553 647 554
3 554 647 648
3 554 648 544
3 659 555 658
3 555 649 658
3 555 546 649
3 659 658 652
3 650 659 652
3 660 659 650
3 661 650 653
3 660 650 661
3 662 653 654
3 661 653 662
3 558 662 557
3 662 655 557
3 662 654 655
3 557 655 560
3 560 655 656
3 560 656 562
3 562 656 657
3 562 657 549
3 659 565 555
3 565 659 568
3 568 659 660
3 568 660 570
3 570 660 661
3 570 661 572
3 572 661 662
3 572 662 558