OFF
1437 2838 0
1.6753544268 5.3132905127 15.4808870750
1.6401224443 5.4796597062 15.3475357719
1.6862883253 5.1531340884 15.2918662501
1.9962020938 5.1348924419 15.5566748872
0.9716778254 6.9588169009 10.6218468420
1.0999222290 6.8135881236 9.8486941081
1.2012553011 6.3628981025 10.2434429420
1.1649628187 6.3180317282 10.8206911603
1.8249163469 5.5742846816 15.5931569942
0.8817615341 7.7164958189 9.7980093377
1.0802246661 7.6516879805 8.8505473283
1.1644039100 7.0543762172 9.2339177247
0.7766200372 7.7723973011 10.8253131243
1.0370026397 6.6717192319 11.3169039207
0.8557339564 7.4436546251 11.6526849257
1.0573717782 6.7193260364 12.0801128719
0.9221264682 7.4427885561 12.7063088679
1.1123121206 6.7386325643 12.9750952276
1.0099105961 7.3523540391 13.4348610984
1.1837715924 6.8725534953 13.8095484620
1.0891617833 7.5904964478 14.0346440765
1.2739092493 7.2099053576 14.4491489197
0.8648476699 8.6498138205 8.8401871182
1.0929361567 8.6505898717 7.9160205571
1.1651187954 8.0009059493 8.2338023394
0.6999447070 8.7404393640 9.8431685530
0.6763440392 8.5486595740 10.6388484797
0.6972194414 8.4380124871 11.5660151003
0.7901091360 8.3139087588 12.5188150215
0.9436722819 8.1428331908 13.4926861315
1.1152693749 8.1989759266 14.2361267846
1.2487337783 7.7998372149 14.5867125557
0.9120393479 9.5542560526 8.0040176954
1.1618197291 9.9124808803 7.1013334775
1.2222013614 9.0678719559 7.3327943590
0.7107124857 9.7152456307 8.8715418325
0.6451692178 9.5498203175 9.6354177572
0.6047925398 9.4827356583 10.5465763467
0.6258713035 9.3984223506 11.4718244840
0.7141037680 9.2997150124 12.4009087521
0.8780158745 9.1461571423 13.2959245408
1.1017626629 8.9361360945 14.1163215810
0.8683993793 10.6422081522 7.7536515910
1.1017533993 10.8964087944 6.9494986388
0.6950747773 10.5328912262 8.6352450155
0.6016352746 10.4988391512 9.5379784010
0.5735955349 10.4460506797 10.4685786011
0.5960211656 10.3953339549 11.4225224804
0.6850854894 10.3107116740 12.3476375445
0.8534159367 10.1593478451 13.2089508275
1.0939101710 9.9280773591 14.0036100131
0.8473581821 11.6629735649 7.6474200786
1.0886789628 11.8833610762 6.8501310674
0.6800159455 11.5287250284 8.5183503193
0.5885013842 11.4721491464 9.4524001228
0.5600220278 11.4445929929 10.4202670946
0.5858540069 11.4129052695 11.3972911169
0.6772669031 11.3405667431 12.3398802924
0.8503879368 11.1815552912 13.1964506923
1.0914621211 10.9266361296 13.9450394711
1.3912457817 12.1283040147 20.1261865396
1.5296127380 11.8585211211 19.3537854522
1.6139325024 11.6736257693 19.7977814679
1.7962191295 11.7485180042 20.1591349616
0.8429501508 12.6851422620 7.6024536429
1.0901370609 12.9008765973 6.8030008537
0.6749718924 12.5518416218 8.4699609799
0.5858624949 12.4857670175 9.4063791515
0.5585532778 12.4521735066 10.3806480155
0.5842485900 12.4306172647 11.3649654145
0.6781900157 12.3904848264 12.3441881892
0.8555060940 12.2284022584 13.2368079831
1.1149454549 11.9244823533 13.9974664447
1.1572611264 12.7807813187 20.0636173994
1.2776216464 12.8965127448 19.3307035975
1.5708340980 12.2245397683 20.5818803369
1.2731224547 12.8397857969 20.8232515486
1.7603538492 12.5989104856 21.0876224207
0.8456454357 13.7142697077 7.5821061699
1.0951747466 13.9383241880 6.7855255993
0.6777200380 13.5793700623 8.4444422148
0.5921732823 13.5099712073 9.3760354744
0.5696938609 13.4627813553 10.3463567893
0.5924414325 13.4083808172 11.3004364308
0.6804417664 13.4041614361 12.2611218524
0.8748671240 13.3849373785 13.3190458786
1.1209286145 12.9420634104 14.0815468551
1.0360004102 13.6333379975 20.0311640814
1.2486553291 13.8568973768 19.3620039278
1.0062528982 13.5778060190 20.7693205022
1.5268646882 13.1307902853 21.4603242985
1.2273030937 13.7195817988 21.5663959563
1.7455962093 13.5959971340 21.9919402793
0.8550868650 14.7392407381 7.5660196924
1.1018063676 14.9738307586 6.7855565867
0.6885060830 14.5964337309 8.4133419335
0.6088467226 14.5247470853 9.3270013143
0.5987386579 14.4767965337 10.2914430497
0.6338658566 14.3849590986 11.2585684031
0.6853768132 14.1995490140 12.0452431247
0.8624811999 14.4519567556 12.9972605599
1.1123624801 13.7375050286 14.1566825261
1.0581042363 14.3089806904 13.9178829765
1.2724837387 14.2529110280 14.5439097941
1.0658409095 14.4283298649 20.0303884111
1.2834849155 14.6220203162 19.5394215045
0.9574192736 14.3315812523 20.7088232957
1.0012469884 14.2513520625 21.3373682124
1.5196929060 14.1481804095 22.2234761319
1.2267904516 14.5954908180 22.0243020657
1.7353376986 14.7720513717 22.6432291515
0.8835353431 15.7369384093 7.5445665714
1.1291504763 15.9745286011 6.8010279957
0.7179096016 15.5867353171 8.3661759669
0.6405319079 15.4914316345 9.2343803778
0.6478284415 15.4672133697 10.1551675051
0.7119938305 15.4043108746 11.1484749911
0.8195665255 15.1957598456 12.2223662263
1.0211468236 15.3771793956 13.1392420643
1.1423110695 15.0758000821 13.8163991249
1.2925722526 14.7783542435 14.4467119493
1.1948389097 15.0115948313 20.0249866352
1.0824567027 15.0153503876 20.6088770675
1.3017570481 15.4736499140 20.3749548370
1.0854151170 14.9743631977 21.4196603082
1.2613389647 15.1781231758 22.1013599796
1.3912343982 15.0425898181 22.4025677297
0.9535897736 16.6646216589 7.5212433029
1.1958358855 16.9048887822 6.8688662676
0.7870714849 16.5218295014 8.2949065235
0.7118358874 16.4144098055 9.1364172229
0.7029265422 16.2616006822 9.8949303217
0.8301033748 16.4859911519 10.8332010109
0.9363886792 16.2172288890 11.8890095519
1.1106039231 16.0993052013 12.8107918107
1.3033202600 15.6135377648 21.0936796472
1.3352562775 15.5528664726 21.8160969812
1.0613038106 17.3543661017 7.4795394964
1.2661127821 17.6551338366 7.1059037519
0.9392043941 17.4449748362 8.2266385207
0.8166876281 17.1669444183 8.9611065023
0.8826912330 17.2704928994 9.9299570513
1.0458023976 17.4075433205 10.8714790946
1.1231299644 17.1144328625 11.6483126863
1.2094653548 16.8052350917 12.4327258085
1.1757622293 18.0072127095 7.7701361001
1.1106039485 18.1947730697 8.4514846634
1.0099638068 17.9679447824 9.1323367423
1.2442621805 18.6001474998 8.9012157461
1.1121481856 18.1385341349 9.8779220518
1.1454813602 17.9455893014 10.4744118635
1.2545502270 18.5817981561 9.4829301067
1.9045906185 4.7557384610 10.7045442354
2.1548995203 4.5782316620 9.9059801946
2.3255252174 4.1464546808 10.3435607129
2.2936091473 3.9657465610 11.2111609345
1.8871361959 4.5761297568 11.8648463469
2.2812730909 3.8567051874 12.2779264992
1.8981861909 4.5130812854 12.9345654738
2.3062808974 3.8447491275 13.3234807399
1.9349965409 4.4998121512 13.9470367858
2.4045476961 3.9162107866 14.3142091230
1.9845509948 4.4821318824 14.6530316429
2.2673514761 4.2676293119 14.9505356308
1.9280800514 4.7582531731 15.1448900530
2.4108913112 4.5450799253 15.3874857078
1.8720074444 5.2623665145 9.6562183813
2.2726388039 5.0603218825 8.9768915269
2.2018822254 4.7445597065 9.4764460807
1.4615100224 5.7338098225 10.5420449367
1.5484542688 5.3753591891 11.5712057465
1.5814515538 5.2781263116 12.6099584738
1.6182879230 5.2910348249 13.6685160869
1.6909362950 5.2423066853 14.7638467463
2.6091636638 4.9875003269 15.7307320004
2.0411153712 6.4313584380 7.8314191004
2.2700198334 6.6941176334 7.2080461306
2.4642396793 6.1483965025 7.4742723237
2.4492271081 5.5686049443 8.1268835223
1.8928782996 5.9262519118 8.7052608302
1.4268084304 6.2742515061 9.4845904078
1.2491270911 6.1081161406 11.4415428036
1.3041399068 6.0287825468 12.3407512134
1.3549458635 6.0733324157 13.3220537924
1.4612929357 6.3297869067 14.4136159483
1.8194775212 6.2251243982 15.4691661011
2.4913106043 5.7742318232 15.9305013044
1.8779206489 7.2601663375 7.3353139830
2.2751316611 7.2681308150 6.7285214038
1.4828636474 7.0675073803 8.3527309721
1.5678362796 7.5095556069 15.2020970989
2.3437220029 6.6322960102 16.1357637000
2.0920050287 7.3176244323 16.0719677308
2.6193488810 7.1970245642 16.5239059092
1.9268070270 8.0198431482 6.6748836159
2.2378550431 8.4627136026 5.9445013975
2.2470745711 7.7994914616 6.3452504026
1.4569349770 8.1616741787 7.4320234454
1.3697412420 8.5197793874 14.8614208597
1.6266425343 8.3870218135 15.4421949590
1.9509865411 8.3356763082 16.0407012703
2.5533815478 8.0077405672 16.7761884441
1.6326965127 9.2083435439 6.4730698275
2.0509065867 9.4240796484 5.6250157809
1.3817484086 9.6014081919 14.7692371561
1.7093109274 9.1852309517 15.5693606267
2.0238480811 9.1690059691 16.2791783474
2.2693595067 8.7971649143 16.7151108416
2.4175599319 10.0002135311 18.6308183460
2.3824833413 9.8676431993 18.0564224487
2.5650512546 9.6411873728 18.4663318785
2.7226766886 9.7092389230 18.7059534924
1.8110846310 10.4056954269 5.5998068948
2.2397219964 10.4587070217 4.8591352292
2.2247307529 9.8723855865 5.1207004723
1.3975001119 10.2996019649 6.4201386318
1.3823511891 10.6418917665 14.6549751339
1.6905644215 10.2965610142 15.3925152882
1.9703346407 9.9361267104 16.1183763831
2.0424027764 10.8224512531 18.6842195567
2.0954263986 10.7035599946 17.9289272658
2.6769557654 10.3073204951 19.0867315060
2.0991328348 11.3264594665 4.8736139308
2.6716392444 11.6276316088 4.1271103164
2.5550466806 10.7649303857 4.3977639273
1.6712344644 11.4844482029 5.5743496299
1.3902152534 11.1711620460 6.2093552879
1.3572662605 11.5198518692 14.5532300462
1.6880087503 11.4219719692 15.2664330894
1.9475312799 10.8844207466 15.9862667184
1.8701581154 11.5297713194 18.1029984742
1.9915381212 11.9812955566 17.3872199408
2.0590805757 11.1705410951 17.4732918395
1.7004224962 11.5606190962 18.6878670460
2.0955631073 11.2096428067 19.5723882981
2.5065281261 11.5185468516 20.1894559349
2.2077154491 12.1519932468 4.6011991939
1.7864713752 12.3904487238 5.2827060895
2.1367598819 12.9509697885 4.6872512272
1.3875731274 12.1537946766 6.0981053869
1.5153551890 12.5306147775 14.8993224457
1.8351292738 12.2171183089 15.5429070000
1.9525385366 11.7043260251 15.9086586027
1.7817577330 12.5301795740 17.9979374627
1.9758388364 12.9210243273 17.3711124904
1.5693185439 12.2271620039 18.6634945409
2.1088016502 12.0592366661 20.6722432411
2.4923313368 12.5041398830 21.2122185901
1.7584671776 13.5451554357 5.3140842114
2.1406453514 13.8820511554 4.6804555905
1.4042218931 13.1819958754 6.0359750761
1.3861435132 13.6380929238 14.7516586764
1.8408362441 12.8343336085 15.5864226187
1.7270865871 13.5321243363 15.4301814413
1.9520341064 13.3053409027 15.9843761665
1.8061911883 13.4719373408 17.9928108188
1.9952102686 13.6919638436 17.4580799515
1.5205968332 13.2095002674 18.6517056089
2.0928649167 13.0406085643 21.6499875852
2.4906466643 13.5389943442 22.1974771475
1.7833561135 14.6800152604 5.2614731655
2.1769967620 14.6545349499 4.6005647301
1.4059457968 14.2555880982 6.0299334894
1.6455888837 14.6752477410 15.2693643865
1.9319621739 14.0990158498 16.0663140054
1.9125703983 14.1866796193 17.9195843137
1.6231351154 14.3932067813 18.7424279718
1.9796380508 14.9919200621 18.1165778012
2.0978819802 14.1122621867 22.5358569252
2.5298931177 14.6511008185 23.0464292844
2.0834687879 15.5241834536 4.7788974708
2.6449974953 15.8323361681 4.1165628204
2.4643451815 15.0094376010 4.2426095191
1.6813564094 15.6682280283 5.4898126012
1.3999108679 15.3002624499 6.0659262394
1.3191400977 15.9280027478 13.6983819250
1.4815692320 15.4800708884 14.5184440105
1.8414336743 15.8332192882 15.2668635010
1.9659838419 14.8563127883 16.1649309444
1.9863137071 15.4795645723 15.9912023240
2.1126237322 15.3253883262 16.6015922373
1.8526137653 15.4754363491 18.8924948417
2.1031409663 15.7839401714 18.3878407647
1.5110318143 15.3491385899 19.6536224234
1.6565204411 15.5616581654 22.5329113645
2.2342023699 15.3181376908 23.1791878229
2.1318540481 15.9500573311 23.1919258787
2.6712772768 15.8679793214 23.6234058401
2.2322306039 16.3332794782 4.6371693700
1.8459663402 16.5629561056 5.3511166156
2.2274773362 17.1034448444 4.8509636125
1.4377286025 16.3059155369 6.1245914250
1.5278848959 16.9182174088 13.3001453431
1.7883216502 16.5214935037 14.4707515992
2.0888015200 16.5696777907 15.3063021748
2.1617077116 16.2467758085 15.9331326470
2.2122097103 15.9142107201 16.5414968429
2.0671298445 16.1447675577 18.9536471234
1.8803054850 16.1346819213 19.5851026076
2.1747478730 16.6638758955 19.3736665846
1.6635190343 16.1310856858 20.5407276527
1.6918750843 16.1944231641 21.7440053890
1.9724637745 16.3208533833 22.6785424859
2.2234205432 16.4033015156 23.2144137241
2.3621675471 16.2295793564 23.4644789873
1.9503791511 17.6111275363 5.5218443094
2.2741253877 17.8340150340 5.0728443984
1.5534758018 17.4354315281 6.3159025943
1.3989139600 18.0471198729 11.2922583895
1.4924877648 17.5683975461 12.3535009166
1.9402969873 17.9170871427 13.1300341445
2.0490369309 17.4990761026 14.0371811391
2.3867902295 17.3584302273 15.0689853065
2.1109026775 16.8663098671 20.1765444686
2.0706066728 16.9410969823 21.2126393009
2.1445895329 16.9074574195 22.2112037479
2.2670274532 16.7649462846 22.9185022261
2.1265088397 18.2622792351 5.5309067966
1.8768165644 18.4568295746 6.2070402699
2.1796386000 18.7878545689 5.7971211557
1.5351889705 18.4742246153 7.1960198757
1.3848229501 18.7223705926 8.2315457157
1.4329471027 18.6617901898 10.2578210405
1.8033953457 18.9483044845 11.0957191384
1.9425261013 18.5386891446 12.1383774117
2.4924030871 18.7031025911 13.0464114591
2.3789407828 18.2176730208 13.7540409377
2.4898796848 17.9713698544 14.4002307427
2.1013439892 19.1706008045 6.2631410580
1.9192590397 19.2839235459 6.8930297687
2.2693509258 19.7626751824 6.5429710507
1.8139726421 19.5182521154 7.8953150622
1.6303942709 19.2674022855 9.1762454351
1.8690817618 19.4399519985 10.2619563335
2.1037495289 19.5576730603 10.8910290714
2.2469001005 19.3545630823 11.5621511545
2.4807849014 19.1782638403 12.2682892518
2.1571952923 20.0194766623 7.2081693575
2.4182181433 20.2147735550 6.7964764175
2.2150799449 20.3077828839 7.8505417858
2.1165007587 20.1706607887 8.6635049435
2.1526664662 20.0631677097 9.6308920526
2.2448284976 19.9657793006 10.3916190505
2.6127798864 20.6111771879 7.2275487807
3.1296650929 3.4702062840 9.7657817923
3.2571140356 3.6935920778 9.2235652019
3.6906048820 3.1987255384 9.4738948855
3.4349908043 3.0508237899 10.1679317951
2.8267161088 3.5012699559 10.5165302200
3.4942936808 2.7698673523 11.0436479259
2.7871013778 3.2940828793 11.6632228662
3.3434734271 2.7212293230 12.2008639683
2.7783309530 3.2545392319 12.7509996732
3.4313498714 2.7590152386 13.2931530059
2.8199550562 3.3346220752 13.7173021169
3.3234047098 3.0719081958 14.0772968758
2.9587272622 3.4604674605 14.4001872348
3.5484782660 3.3206936795 14.6662577917
2.6440821607 4.1985800583 9.4840599219
3.1693236515 4.1866069766 8.7373251358
2.8948140366 3.9184673380 14.9941809806
3.1444569485 4.4448442266 15.5611916866
2.7617608374 4.7585761765 8.5908422637
3.0336562601 5.0270831295 7.9913527416
3.1171876031 4.5793740692 8.3530193000
3.3203338187 5.1188568362 15.9143921609
2.8341906135 6.4342899282 6.8381273464
2.8508022056 5.6728196403 7.5251404177
3.5702138777 5.8937707479 16.2463047288
2.6529711287 7.4622475764 6.1503024691
3.2041411332 7.2804791936 5.7493043900
3.0756285903 6.8487123358 6.2311492760
3.0054925862 6.6034947153 16.4433304859
3.3497932006 7.3996359369 16.9458386758
2.8586187703 8.1649372421 5.3920002522
3.3598056819 8.1174622504 4.9212017064
3.2790385647 7.7115958054 5.3069352410
3.1741843663 8.1458570507 17.3624948724
2.6590119284 8.9518993469 17.4646363461
3.4802944092 8.5866091121 17.9010848790
3.0137836667 8.8931357853 4.7303734311
3.4012165995 9.3345865602 4.1674759858
3.5035360189 8.6068443263 4.4554486960
2.4826176382 9.1319467829 5.1868617653
2.2379458300 9.5991100098 16.8620053223
2.3680784510 9.6542763927 17.4446139783
2.9552455813 9.2871542916 18.3126062270
3.2898253596 9.6442056761 18.8386408101
2.7026347523 9.8688289180 4.5613552539
3.2780708611 10.4998029221 3.8277561324
2.1171811408 10.4406794472 16.5923111799
2.2033152775 10.3756365386 17.3008313462
3.5833491803 10.2174061424 19.3097123506
3.2756720039 11.5770817799 3.5633353136
2.0810667245 11.4307818667 16.6903020986
2.9986722850 10.8906622298 19.7092120674
3.4343364045 11.4130422734 20.2493394966
2.4977491620 12.5104883751 4.2240482834
3.0446595753 12.5705685539 3.6902658375
2.0147084874 12.4999723466 16.1598456367
2.0662246651 12.4564687823 16.8409554952
2.9419422274 11.9697637857 20.7350439393
3.4150016706 12.4700813532 21.2679582972
2.5555984170 13.3019809956 4.1637166331
3.0706847326 13.7226170810 3.6578020840
2.0551798010 13.5062753512 16.7370133686
2.9363298001 12.9985197442 21.7553633083
3.4161026455 13.5120655572 22.2882818770
2.5506127592 14.2292585802 4.1565957530
3.0240792187 14.8474199477 3.7143509372
2.0934024499 14.6582172448 16.7454767545
2.0775677793 14.4474733177 17.3927029395
2.9471958738 14.0576783275 22.7289181070
3.4401002554 14.5703541509 23.2376400086
3.2398897211 15.7365222224 3.5962485920
2.2406883941 15.7051572992 17.4258419706
3.0177463086 15.1578064417 23.5316204770
3.5113101768 15.5592201591 23.9222542400
2.5613733294 16.7109490297 4.3293729040
3.1821772492 16.7004513103 3.8253157717
2.3509683990 16.8627212951 15.7700254661
2.5372707564 16.8253800165 16.6672710745
2.5545913217 16.8399048053 17.7468293728
2.3469114228 16.6044023012 18.5764827249
2.6348311968 16.7276723097 23.4940297728
3.1457620246 16.2078134946 23.9236604662
3.1202829749 17.2313592525 23.9286086253
2.7344025769 17.6260673618 4.4804968240
3.5918404976 17.8348348129 3.9231817022
2.6121056276 17.2929763404 15.9019915710
2.8564335505 17.5396043682 16.3329893320
2.9307164854 17.5926086700 16.8697155578
2.8430773800 17.4965577982 17.5288518008
3.1222277900 18.0209552889 17.3185035612
2.7606492059 17.6052130631 18.5463054414
2.5065249755 17.4531844832 19.6189299488
2.4622078620 17.6396956298 20.7823108918
2.4957684954 17.6278078853 21.8344595383
2.5737169277 17.3721037451 22.7798842031
3.1120337495 17.7768662606 23.4770459809
3.5622238433 17.9111500018 24.0631624956
3.4102500495 17.6454000904 24.1913458085
3.1050041089 18.5858812060 4.5460729329
3.7379094252 18.7557745211 4.2319896773
2.5122468801 18.5670496947 5.1795401394
2.7016948864 18.6134653828 13.6470328925
2.8674492136 18.4769871308 14.1571546611
2.9425107261 18.1734608442 14.9306485402
2.9128803725 17.8453203112 15.7306133331
3.0997010440 18.1824917783 18.0752215161
3.0562883278 18.3680566498 18.8200080278
2.9120229421 18.2878049555 19.4762492431
3.1896503650 18.8479405409 19.3372560784
2.8335744303 18.3388394320 20.4140645317
2.8599142063 18.3800769734 21.4314466200
3.0351710135 18.3030879906 22.5168844871
3.6240826402 18.6280113406 23.2999374522
3.5953788697 18.2656143123 23.7785902477
3.3766442720 19.1639460405 4.6055172425
2.9996737399 19.3859607595 5.1957972902
3.5270226709 19.5643894188 4.8635870971
2.4453600570 19.3504859390 5.8549042268
2.5070797823 19.9928712796 10.9800689923
2.8691072047 19.8382708115 11.7628196773
3.0627647838 19.3812886194 12.6449378459
3.2348116044 18.9522659330 13.5731209253
3.6576740218 18.7591362056 14.5813098568
3.1755654260 19.0109195144 20.0989654164
3.1842432916 19.0766622862 21.0208046987
3.3173626055 19.0865985635 21.9096772269
3.5652911422 19.0667754591 22.6247429862
3.5375667694 19.9912143669 5.4039160048
2.8644296587 20.1647518656 6.2097514413
3.7495651621 20.5545103463 6.0544469670
2.6131385344 20.8746076487 8.2437570686
2.4872744259 20.6495647927 9.1361413763
2.7401000629 20.6208148077 10.0449419858
3.0641923432 20.4537980955 10.9726961882
3.3746555369 20.3244061024 11.5038345024
3.6473655217 19.9702670264 12.0928374665
3.3290752206 20.9190915930 6.7972800821
3.1020836277 21.2291582817 7.5822906521
3.7375226417 21.4198742294 7.2767855732
3.1044320281 21.4070787940 8.2503067668
2.9969390532 21.2157066401 9.0258844850
3.2842016032 21.2251155529 9.6652308596
3.4699648007 20.9681381751 10.2897433819
3.6882530708 20.6932280852 10.9682636318
3.5479074754 21.6201794047 7.9048264951
3.5034507101 21.6336710865 8.5733897731
3.5188798476 21.5233861997 9.1738556025
3.9648527721 2.2615759417 11.7360942960
4.1880512494 2.2894938283 10.9429526536
4.7368889073 1.8794218710 11.3200525695
4.4151242355 1.8976104388 12.1738071773
3.9249423735 2.2435519991 12.6408857254
4.6125381971 1.7921898847 12.9066017964
4.1214619762 2.2652133597 13.3678796994
4.8437800377 2.0154837620 13.6991838358
3.7882986639 3.6826087073 8.6891753432
4.4653650012 3.0571418231 8.9435368743
4.2580252484 2.6010287314 10.0308008320
4.0672894956 2.7094752157 14.0961360618
4.4224949555 3.2043816242 14.8402168696
3.5292134860 4.4006241123 8.1371414480
4.0705328392 4.3345361837 7.7151306426
3.9758717638 3.9682363287 8.1698968761
3.7889451653 3.8204929828 15.2487403938
4.0457888841 4.4555890326 15.6962290567
3.5424530775 5.2317769922 7.3103657337
4.2277602599 5.1442009890 6.8150056564
4.1384874129 4.7182167918 7.2756869007
4.2923403879 5.1928217452 16.0300359666
3.6825928002 6.2466825022 6.2618029527
4.4380449436 6.2447787575 5.7198178192
4.4441014889 5.5973177947 6.2581179936
4.5893694572 5.9646038470 16.3440505650
3.8247407465 7.2311872107 5.2893858393
4.3447622063 7.4074827469 4.7863265266
4.6155053082 6.7923187933 5.1498738936
3.9540716570 6.6493747021 16.6464974885
4.4143955353 7.2988199643 17.0930005688
3.8980683889 7.9848542469 4.6092989754
4.0270120744 8.6063591463 4.1179130687
4.5139628523 7.8620050567 4.3343072257
3.9482264052 7.9283956533 17.5178397568
4.4080156734 8.4315965357 18.0387276459
4.0997836948 9.4336303113 3.6351259536
3.8426086178 9.0403279618 18.4658633086
4.2030685164 9.5801575766 18.9431847566
4.0022013573 10.2524224861 3.3211448652
4.4876290220 10.4655776987 2.9252292653
4.4868894384 9.7805553333 3.1936673434
4.5783722083 10.1914783999 19.3823811579
3.8302909925 11.0703814764 3.2036810525
4.4299714198 11.4961378639 2.6343853485
3.9792144576 10.8155608543 19.7949461070
4.4428895573 11.3860792960 20.2808348276
3.7285186868 12.0890496428 3.1202855793
4.2913445034 12.5846690116 2.6178394110
3.9170836093 11.9378328224 20.7684946832
4.4220034106 12.4610005277 21.2870311177
3.6822590750 13.1568214098 3.1372573726
4.4129155237 13.6562890733 2.6563840278
3.9122392138 12.9847551334 21.7957282395
4.4219211183 13.5027612621 22.3183901278
3.6705398278 14.2099460718 3.1929470815
4.2357307662 14.5932424796 2.8936148864
3.9181877796 14.0282634532 22.8094173743
4.4323124282 14.5297507297 23.3105343638
3.7092225086 15.1613660785 3.2379651604
4.4264369751 15.3556108407 2.9437249078
3.9501833244 15.0360519263 23.7002052451
4.4650238173 15.3777398546 24.0544197167
3.8198362696 16.0678957107 3.2983132676
4.5965027562 16.2533113925 3.0755665628
4.0025101708 15.6858387000 24.1325093882
4.0071394690 16.9753496977 3.4211823336
4.8031228496 17.0583333224 3.2636350492
3.2231400861 18.1553154092 16.5667231502
3.7043893151 17.9086704529 24.2524382285
4.3621580509 17.6308350797 3.5501782047
4.3983795515 18.3009167420 3.8931705629
3.9890040988 18.8474524172 14.5273238464
4.1114657015 18.8769246177 14.4887511071
4.0398966011 18.8946185775 14.3761867135
3.4411761352 18.4721297607 15.6325105388
4.1504654243 18.8780208220 14.6657660409
3.7650178366 18.8828067266 16.5392409132
3.4640332246 18.7589750564 17.5971544079
3.3343614690 18.9007104743 18.6632098107
3.8694597104 18.5735811392 23.7281528299
4.0511385330 18.4358003606 23.9700228469
4.2678139141 18.2804524388 24.1741713147
3.8091059021 19.3052753629 4.5190335550
4.4899137435 19.0694716273 4.3651816388
4.1772190013 19.0651653023 13.9076248541
3.8606381100 19.4638709993 12.9555936049
4.1472826974 18.9288700361 15.4530558608
4.3358890072 19.3658288006 16.4867388362
3.9998188747 19.5656713931 17.4717355003
4.4146703028 19.8380437308 17.1120912036
3.7218064682 19.6114759313 18.5159277952
3.5169290264 19.5986926059 19.5866761810
3.5203727308 19.7549886765 20.6618025783
3.5627997903 19.6919048582 21.4562220479
3.9349907728 19.8033154550 22.1876493177
4.1451249439 19.3589269709 22.9791690682
4.3660175146 18.9188974787 23.6100067345
4.1941343545 19.7145876789 4.9204363372
4.2114839074 20.2171028007 5.5128913390
4.6092861135 20.5795314842 6.0285932918
3.8341356919 20.4220118703 11.4999173142
4.4162654631 20.2273847061 11.6895351371
4.2350864165 20.6216656607 11.0910186305
4.3305624296 19.8150946504 12.3936677131
4.3241976485 20.1099866079 17.6454347878
4.1401758397 20.2106135418 18.2916087154
4.5071800877 20.4467305967 17.9687712067
4.0159116715 20.4787630273 19.3514420591
3.8231280037 20.3741051619 20.3033831255
4.0480989370 20.5449405296 21.2984218512
4.5447244430 20.5671564763 22.0696252629
4.6492947778 20.0175297941 22.6466134113
4.2335154016 21.0786647438 6.7097259452
4.3245377726 21.4853744718 7.2824397628
4.3857946537 21.0151039212 10.2217722161
3.8492997945 21.3958685153 9.6286300944
4.5005091109 20.7375222613 18.6478270903
4.4814404409 21.1893716990 19.4622673064
4.2294412999 21.2076353736 20.4031654160
4.5107905276 21.6355275229 19.9326542393
4.5387743589 21.3595004496 21.2473274976
4.6018289123 21.0820368393 21.6793651006
4.1095452819 21.6860862845 7.7214871575
3.9459667300 21.7614586498 8.2403028024
4.0711040915 21.6743607644 8.8741027169
4.3792769371 21.6930413324 20.3607269196
4.5467870219 21.8134649462 20.0256559536
4.5241683029 21.6006645986 20.8853725513
5.1058726930 1.5371206874 13.2398184737
5.1512801089 1.4021690836 12.8050776588
5.5849304311 1.2578099947 13.0231832429
5.5670395924 1.5259533856 13.5246235734
4.7095481316 2.1263133716 10.5289786146
5.0587009222 2.1928754531 9.9370304764
5.4839269597 1.8292780354 10.3847165308
5.5931299588 1.4812389458 11.2635639058
5.0961506675 1.5080711901 12.1488380576
5.7003305067 2.0007905557 14.0259100002
4.4956331941 3.6495839516 8.0986118833
5.1023690327 3.5676842189 7.6664895985
5.3517656701 3.0589433309 8.1723705504
5.2978641014 2.4884606268 9.1434894200
5.0513282529 2.5871596315 14.4008547626
5.3942145028 3.1881563739 14.9563689407
4.7114523059 4.2529850661 7.2738551764
5.4172386823 4.2173748076 6.8148477958
5.3496610809 3.7667686188 7.2608077681
4.7442533446 3.8035736320 15.3629719212
5.0257778758 4.5009542508 15.7476906369
4.8948760378 4.8943978869 6.5616992456
5.0536961617 5.4773002793 5.9829348198
5.5676562723 4.7586596613 6.2761955193
5.2860583679 5.2760197939 16.0468744090
5.1209540283 6.1194673350 5.4282790128
5.5759603625 6.0807261322 16.3293500506
4.9890344889 7.1318102522 4.6638146042
5.0882363240 6.5957427418 5.0549166539
4.9588655549 6.6859701487 16.6949760513
5.4011422336 7.3099260474 17.0773210005
4.9086352583 8.3567295603 3.7991830787
5.0293430377 7.6536528526 4.2258952641
4.9415203465 7.8581332511 17.5623788387
5.4280415100 8.4117144137 18.0448796964
4.7867208560 9.1820540364 3.3321391639
5.1859086333 9.5995524004 2.9406038391
5.3343585927 8.7874275330 3.2982550649
4.8274357518 8.9726514360 18.5287366770
5.2205829254 9.5701259974 18.9734166092
5.1780743673 10.6214705239 2.4351978200
5.6128318654 10.1964018922 19.3964845758
5.0134194738 11.4540807858 2.1104131006
5.4453738982 11.3725909971 1.7953932279
5.3364156836 11.0267499318 2.0519863134
5.0035458296 10.8034667101 19.8243801238
5.4766403949 11.3836140572 20.2889469615
5.2013302366 12.0436506820 1.7827630968
5.5730307168 12.1008237162 1.5155773738
5.5870942881 11.7233497576 1.5471191241
4.7353157520 12.1108987509 2.2098823909
4.9417559733 11.9310381294 20.7797953241
5.4551429172 12.4603049281 21.2905902600
5.4097790460 12.5014930661 1.6935384125
4.9456378754 12.8228304449 2.1080062912
5.6415020165 12.9873616184 1.8982856976
4.9359970137 12.9818250613 21.8066063020
5.4526447336 13.5016214309 22.3253315560
5.1500861812 13.5607141432 2.2569392651
5.0525319750 14.4118805808 2.5962618539
4.9377481179 14.0179038822 22.8340141624
5.4565275840 14.5174763144 23.3300611765
5.3016072003 15.3929177853 2.8287608029
4.9529475465 14.9807780617 23.7600420305
5.4779563431 15.3221224421 24.0928294122
5.4608010250 16.3440569408 3.0659786377
4.9794079454 15.5145123074 24.2206256415
5.4002923101 17.0745026950 3.2746771621
5.2745500883 17.6810461841 3.6371667852
5.2267467962 18.5031316026 4.1311582366
4.2499304496 18.9279704342 14.3941695388
5.2929350051 18.5741653405 24.0993142973
4.8219736105 18.6850249808 23.9882807431
5.4340355097 19.0376810696 4.6122326196
4.9249773510 19.5046570811 4.8116245847
5.4689208502 19.4924468788 5.0370121788
4.8238733044 19.0626873085 13.8016103129
4.7768499572 19.3618381096 13.0636702870
4.7206097328 18.9311950694 14.5607971405
4.9572254280 19.1300576102 15.7117428399
4.8172475879 19.7140423793 16.6166000781
5.4398646169 19.4491459075 16.3480243120
5.2473927043 19.1071828688 23.6672907175
4.9247070092 19.5272013718 23.2058909627
5.1682961792 19.9705475985 5.4802506686
5.3348920317 20.4708839146 6.1611812633
5.0199786935 20.1308227798 11.5646504634
4.9815603387 20.4639270146 10.9666117708
4.9851114596 19.8155393235 12.1253679301
5.1245582500 20.0100172755 16.8313632047
5.5188733026 19.9995157506 16.8755975436
4.7405910853 20.2190994452 17.3142639653
5.3687489527 20.0682687797 22.7970506989
5.0941764542 20.5185236538 22.3857246304
5.0935083062 20.8641278258 6.6216577279
4.6066235222 21.6015603808 7.6627186458
4.9591404849 21.2710314693 7.3313310793
4.9943699594 21.4956904637 7.9561455144
4.4336496218 21.4612909245 9.3739868073
5.0978996458 21.2313348786 9.2118051270
4.6718562971 21.5902179080 8.8405235759
5.3835390180 20.7551912715 10.0564853277
5.1776069439 20.3174504998 17.2206366656
5.0090012324 20.6068413721 17.9094150128
5.0804676654 21.0627347798 18.8108390035
4.8608219609 21.4988532760 19.4502728877
5.4984919303 21.4131672684 19.3048382616
4.9386489994 21.4332013131 21.6097805173
5.1367153503 21.0664917254 21.9614916581
4.5226060399 21.6977319279 8.2352474980
4.9660154316 21.7242669200 19.6708913072
5.6586185583 21.7045326227 19.5928361197
5.3764599714 21.4676359106 21.6501845620
5.1778188661 21.6295948507 21.3472118658
5.8746391141 1.2087575276 11.9260925946
6.2417786684 1.2288714317 11.2750592291
6.6354030181 1.0657757784 11.7628616800
6.2207435471 1.0911264691 12.5883856923
5.5606420705 1.2253678680 12.5207245544
6.0695584028 1.2309616465 13.2226076185
6.2856460645 1.5208767010 13.6471371648
5.6701180475 2.0695281317 9.5965204897
6.0795606306 2.1727612112 9.0416568639
6.5056651386 1.7938748226 9.5442907223
6.2862749373 1.4469752480 10.5683949811
6.5735654564 2.0369299058 14.0991911762
5.5915869132 3.3763518987 7.5294384838
5.9069614896 3.6530728866 7.0580747307
6.2133251338 3.1153219374 7.5380280870
6.2921915750 2.5399949105 8.3123329638
6.0044448191 2.5959378945 14.5284293241
6.3605877251 3.2733944647 14.9666285369
6.0659476723 4.1633338354 6.5142096705
5.7196947569 3.8580039682 15.3914267018
5.9814720914 4.6076139551 15.7216808435
5.9255453813 5.2811757898 5.6875512777
6.0577745671 4.6194601941 6.1352719924
6.2236128875 5.4376553179 15.9741646587
5.6744360056 6.3343098801 4.9749179488
6.4887685629 6.2992287829 4.6555449653
6.4153037641 5.6861154537 5.1525549066
6.5291765152 6.3733458464 16.2239263597
5.7522772780 7.2637804827 4.2068452892
6.4299157268 7.4741686399 3.7942452744
6.7477414580 6.8294960779 4.1723852760
5.8667492463 6.8104705312 16.6492865748
6.1580820806 7.3640574270 16.9494644984
5.8359636496 8.0970813106 3.5544331045
5.9986772153 8.7949862805 3.0835634877
6.6336609911 8.0267153840 3.4020574252
6.0284529394 7.8976077556 17.4565060906
6.4205574320 8.5068972636 17.9896623243
6.1359357568 9.7150773884 2.5857839188
5.8744955874 8.9931800380 18.5121644991
6.2753599894 9.6056176344 18.9563527032
5.8464904144 10.7084253599 2.0251680007
6.3971228406 10.8972483301 1.8174721394
6.6389107007 10.2587945325 2.2084233738
6.6438888177 10.2297387528 19.3900448011
5.9067272636 11.2834659317 1.6251455300
5.9780100445 11.7566068760 1.4699172321
6.2852140978 11.3447892696 1.5667523200
6.0399933999 10.8106689188 19.8271614552
6.5166317776 11.3930169419 20.2813286756
5.8563821220 12.3337099987 1.5770636874
6.3518512892 11.9374097820 1.6117187010
6.2719458423 12.5672767614 1.8107810064
5.9806030816 11.9331280399 20.7784473639
6.4950788849 12.4656709339 21.2849129619
6.1762141453 13.1427799766 2.0377607427
5.9715032659 12.9838744277 21.8072928848
6.4837346900 13.5089148354 22.3249534447
5.7668144810 13.6954585508 2.2435246205
6.1376074004 14.3504514720 2.6199867103
5.9682412894 14.0190978973 22.8383064495
6.4787009407 14.5253426373 23.3274616839
6.2284786715 15.3938572494 2.9622107968
5.9776020159 14.9727424870 23.7684670721
6.5029551142 15.3432718037 24.0754500494
6.1666116599 16.1287041717 3.1602641094
5.9344957457 16.7479696055 3.3125804872
6.6198021201 16.2816752620 3.4562362804
6.0040291347 15.4954733705 24.2286167052
5.7188816737 17.2205944859 3.4428427694
6.3859457841 17.1385901105 3.8010453649
6.0602561548 18.2816203863 15.5020271060
6.4204583268 17.7672546746 15.3695345516
6.1580768994 18.0447092594 14.9599756661
6.4534841300 17.9550600451 15.9066465699
5.7388386585 18.5967368763 4.3933231385
6.1756348204 18.0426680961 4.3029134627
6.1370355023 18.6672409681 4.7394740349
5.5367219036 18.7969032419 13.7297786583
6.1868226404 18.3199010216 13.6885036893
6.2619194816 18.5722767112 13.0688136615
5.6092023637 18.5866555046 14.9083030794
6.1438734891 18.1660509563 14.2866662823
5.6355884537 18.8284050166 15.7178980391
6.1082981445 18.7178077890 16.2477921517
6.3347280732 18.5917510199 23.9388228426
5.6750343747 18.8311005239 23.9036713664
5.7155471492 19.6021811301 5.3230832058
6.1278707798 19.1687758879 5.2216267558
6.0609202293 19.6611096301 5.7043666718
5.7145964609 19.8424150065 11.4547779935
6.6158922977 19.5226754542 10.9706865677
6.1706033007 19.9951412675 10.7455706531
5.6429361581 19.2589197347 12.5726688883
6.5315610936 18.9695390772 12.0146744756
5.9350780455 19.5078582109 16.7309522437
5.7999304194 19.1126618975 23.6626444128
5.7625946377 19.5186530179 23.2559668060
5.6935615361 20.6040719234 6.6121745620
6.0732496038 20.1052258035 6.3097418808
6.1317512014 20.4864309710 6.9583121903
5.7549329417 20.3153140466 10.6157937015
6.1569208618 20.2035852490 10.4067289084
6.0770422446 20.4232073475 10.0072454063
5.8636101817 19.9751570118 17.0943340705
5.5475655238 20.3358865473 17.4189983568
5.6354088891 20.5922095833 18.1413478783
6.0324859932 20.1011222781 17.6169516780
5.7550303946 20.8968787256 18.7849980942
6.3606395662 20.2152582226 18.4850365303
6.2029682028 20.9462226096 19.2591523461
5.8960502622 20.0006464870 22.8068106593
5.8084262471 20.5845752951 22.2900953876
5.6760319745 20.8620746557 7.1990217155
5.0334563674 21.4889896560 8.4814566424
5.6074930517 21.0797747441 8.1967446770
5.9033389649 20.7663316828 9.2536429064
6.0907082016 21.4952908341 19.6597214795
5.6792760065 21.2111099860 21.8396840666
6.0345683326 21.0386906279 21.8302740879
5.9610371819 21.4243784601 21.3916555571
6.1220498807 21.7649191578 19.8551222581
5.8186163904 21.7091987514 21.1520595210
6.8729352890 1.1732610849 10.9518884176
7.4640950669 1.0822657054 11.4943790393
7.0887545653 1.0527215970 12.4027408046
6.7273663699 1.1970713751 13.1219513249
7.0718345031 1.5770296622 13.6168560680
6.6547901234 2.1206794057 8.7386106602
7.0829497432 2.3013806318 8.2476115125
7.2804858131 1.9628308006 8.7600938497
7.5219505089 1.6170417395 9.4022600688
7.0888078096 1.3771216422 10.1471063831
7.3714085956 2.1395592915 14.0284101853
6.7406461244 3.5673947124 6.7860830251
7.3127238921 2.8219623684 7.5097471271
6.9171273278 2.6888781915 14.5041213871
7.3011717232 3.5101315990 14.8399780972
6.6477666274 4.3646931039 6.0890270831
7.4617782390 4.3319315094 5.8338867130
7.3176526208 3.8317946599 6.2930529783
6.6269313603 4.0156070369 15.3379201651
6.8202932294 4.8062393707 15.6016318660
6.8813483574 5.0017059608 5.5005279743
7.1288561842 5.5928632436 4.9960432624
7.6821382363 4.9181629744 5.3687276350
7.0282391314 5.6663121144 15.7695893952
7.2609562877 6.1765088976 4.5324495205
7.2443561679 6.4631620538 15.8852070144
7.2149971954 7.2655952480 3.8371600966
7.3802272896 6.6197160040 4.1995964612
6.5300579849 7.0886114409 16.6084164183
7.1334057688 7.1745246940 16.2781501302
6.8693451813 8.7522340210 3.0165193544
7.4234031783 7.9986674245 3.4557491652
6.8729688638 7.7685251116 16.9254912458
6.8350866054 8.2273634390 17.5139890287
7.1905929014 8.6492523620 17.8332071779
7.2241643572 9.5692339142 2.7148353205
7.0096967496 9.1015258160 18.4061384843
7.2735051042 9.7153841025 18.9499456729
6.9051390970 10.6861792635 2.0461033430
7.2296423932 10.2827444149 2.3715602773
7.6244552268 10.3114035817 19.3662376658
6.3560747717 11.5756916403 1.5272176620
6.7490807555 11.3426239500 1.8136613394
7.0670493992 10.8403555579 19.8117394304
7.5538238307 11.4284069661 20.2436908423
6.7255968262 12.8331990249 2.1666907314
6.8185574169 12.0797352157 1.9550826756
7.3294191071 12.2906071864 2.4357550322
7.0268421178 11.9471353207 20.7587036163
7.5310655056 12.4863932978 21.2605574143
6.4159962973 13.5013278653 2.3150282636
7.1534452674 13.4007136509 2.7041693722
7.0024916112 12.9962209529 21.8015462685
7.4897739434 13.5416731539 22.3199952804
6.9373280512 14.5065261780 2.9593513788
6.9832275831 14.0384876174 22.8341674231
7.4544850621 14.5657964420 23.3059408288
6.9176022769 15.1673627553 3.1612712089
6.6489398288 15.7068087285 3.2203485814
7.2691147027 15.4788077589 3.5247122784
6.9797381791 15.0017935993 23.7436741745
7.4769217410 15.4447696855 23.9960196266
7.3141782915 16.3189291674 3.9408520315
7.0503517816 16.9707830973 14.7098408867
7.3825721503 16.4180264313 14.6651403445
7.3519122626 16.7494089514 14.0700614656
6.9234330680 17.2021505266 15.7310298503
7.3929736830 16.3297051546 15.2863696151
7.2376928956 17.1145760259 16.6704175701
7.5970074458 16.2142969644 16.3967190750
7.5893417546 16.8228773067 17.1551246471
7.0381990453 15.6065916601 24.1616044430
7.3351157831 16.9969860599 4.3981350141
6.7632874676 17.4938336098 4.2864607288
7.1083608226 17.6941524169 4.7862063806
6.7717551285 17.7299825092 13.7280801661
7.3551333393 17.2427610008 13.3259184221
7.1811726119 17.7502183201 12.9587724440
6.5686717705 17.6079501544 14.7891131237
6.8115465951 18.0350990890 16.7526861555
7.3546471284 17.5089292548 17.3541701482
6.5031328009 18.7272303917 5.1092978885
6.7482758778 18.3260190007 5.0001739512
6.8595813771 18.7416363954 5.5412575766
6.8706616658 18.2424681140 12.7334177308
7.2418434578 17.9742648097 12.5619097838
7.2429405646 18.3065868995 12.0960253364
6.4121962757 19.0551193470 17.0028614986
7.1655168465 18.1580875173 17.5838699787
6.8727684427 18.8313998192 17.6585675213
7.2456889269 18.5483132605 18.1076407809
6.3507659749 19.0024928735 23.5724886777
6.9722068330 18.5082741875 23.7456165356
7.1044758135 18.8534366032 23.2685607391
7.2062167912 18.2055042256 23.9031023178
6.4464701392 19.6855927187 6.1064247815
6.6552478535 19.2977453757 5.9138136052
6.7963742507 19.6079215367 6.5259426647
6.5753274346 19.9797496409 10.2050516790
7.2989754830 19.3765724124 10.1258816968
7.0148700556 19.8692547109 9.6056643459
7.3518705829 18.8110979718 11.1664608474
6.1711506012 19.6691135640 17.1693943810
6.4668902934 19.5693891458 17.6669967613
7.1051953489 19.0434286090 18.3465949718
6.7895684584 19.4597542050 18.2076841550
7.0198231678 19.5909257432 18.8658750352
6.5170294037 19.6984352920 22.7790921742
7.1651890764 19.2307085365 22.7971604050
7.1808156807 19.6423183441 22.2439382265
6.3051962971 20.5573557215 7.6623827585
6.6471095968 20.0838589718 7.1186246079
6.4498460712 20.5022506367 8.5747143820
6.9431753758 20.0459444686 7.9883940700
6.5506993919 20.2927062829 9.4368499154
7.0438159076 19.9858464762 8.8859049433
6.6168009054 21.0177301137 19.9861350441
6.8095406313 20.3335840738 19.4242436873
7.0674149587 20.3988224043 20.1245084704
6.5681017858 20.5977528943 21.7582387972
7.1938954815 20.1008299713 21.5353683131
6.9722310010 20.5975886094 21.1015829610
6.3607967759 21.5947079381 20.1659235684
6.9601232692 20.7157368692 20.5658839434
6.5709114100 21.1771054175 20.8035950556
6.2844125299 21.8023824080 20.1991184837
6.2429533482 21.6662057096 20.7189849249
7.8197998741 1.3401858473 10.0345502061
8.2866140690 1.6192612970 9.4761558156
8.3116137706 1.4080831521 10.0723143486
8.0710188483 1.2832979243 10.7998467010
7.4839305940 1.1789165739 10.6438499394
8.0654221636 1.2633523856 11.6837311423
7.7886787971 1.1920463019 12.3327036433
7.4673167129 1.2808865682 13.0241685619
7.7536266231 1.7497655961 13.4953533852
7.7697602401 2.2695369742 8.1709402633
8.0232810378 1.9139650052 8.7812038710
7.9225071779 2.2950789719 13.8473796213
7.5726995804 3.3771918188 6.7074985764
8.0418897377 3.7788772695 6.2362422846
8.2761404254 3.1814400022 6.9494625715
8.2923695706 2.6453451878 7.7350031236
7.6718682947 2.7921791179 14.3135041181
7.9466424121 3.4225864746 14.4257535616
8.0842784807 4.3567047718 5.7351934902
7.2888195193 4.3006497772 15.2221142403
7.8945461265 4.2888523878 14.7406523480
8.0203955075 5.6220447992 4.9338373467
8.3904474324 4.8133757920 5.4675429267
7.5085106255 5.0551244421 15.3146857969
8.0555797401 5.3820402210 14.8265893554
7.7728672730 6.2456947131 4.4502046653
7.8676949772 6.7347436196 4.2308970732
8.2190655563 6.2450517646 4.6170214177
7.6585983260 6.0190643198 15.4238949391
8.1401387236 6.4470724039 14.8960834084
7.9566335506 7.4289394677 3.9766870968
7.7658557427 7.1447642994 15.6320144749
8.2351743425 7.5035605452 14.9232756727
7.6777820776 8.7127530369 3.2227292482
8.0220412400 8.1154003632 3.6843415514
8.0651509018 8.1327009172 15.5286868321
8.3337036044 8.5436137566 14.9414517445
7.7486877562 8.2623889381 16.3494847964
7.4971417903 8.4882167279 17.2621405024
7.9417274246 9.3767529535 3.1539693886
8.2107846464 9.1634168946 15.7281303802
8.4027002487 9.6103409467 14.9567753523
8.1933629160 9.2279215856 16.4144216126
8.1176538278 9.0684074943 17.0096492649
7.9900943347 9.1666768532 17.8740050395
7.8294415557 9.4364301022 18.5411513934
8.1366880075 9.8948835756 18.9222073869
7.3534405148 10.8920582941 2.2981763029
7.8235782213 10.2689793026 2.8642332666
8.3719302846 10.3205411704 15.6360309833
8.4388683751 10.6901521861 14.9507763163
8.4039542434 9.9864703067 16.2753640703
8.4908155473 10.4817330168 19.3006744721
7.2699142965 11.5810217715 2.2128075553
7.8336870041 11.4465683456 2.8038423794
8.4000637039 11.4085882997 15.6572306941
8.4284306408 11.7719924587 14.9736827645
8.5168418308 10.9966890491 16.2837381705
8.0492529463 10.9220153370 19.7617209545
8.5568545933 11.5246535381 20.1354162412
7.8620162788 12.5238793704 3.0177285109
8.3449027395 12.5864103470 15.7770680952
8.3781383164 12.8457206594 14.9517578091
8.4986756539 12.0392538348 16.3387566921
8.0810589843 11.9924791534 20.6831352422
8.5143304288 12.5368801553 21.2002095598
7.8543204821 13.2803501512 3.1909529721
7.6055816881 14.0066981349 3.2119655740
8.0794003753 13.6882855839 3.5724981857
8.2201626327 13.6670755970 15.6338595971
8.2845267613 13.8783471060 14.8215171911
8.4302370758 12.8423831012 16.4562789714
8.3120566218 13.5143272777 16.3561168497
8.5099701158 13.3640949054 16.8664491474
7.9940559472 13.0367938782 21.7861272413
8.4118541729 13.6455980022 22.3095040775
7.3722939432 14.7351339381 3.2910159829
7.9162700056 14.5757965400 3.7417229680
8.0171799384 14.7549341531 15.4202012340
8.1526616217 14.7227514082 14.6031903685
8.1505337572 14.4396839145 16.2997675484
8.4357390424 14.1743452243 17.0159462411
7.9351924488 14.1100461488 22.8197101339
8.3023714214 14.6803859423 23.2498581308
7.8860149416 15.5417621691 4.0709049027
7.7899010311 15.7445995518 14.5574366877
8.2026689160 15.0584991442 14.0406321126
8.1100862142 15.6425567396 13.6615220249
7.7230307131 15.6378763096 15.5922272703
7.9102078281 15.2545718769 16.1764009095
8.1702814436 15.2946866728 17.0503550959
7.8756197912 15.0764565712 23.6737689641
8.1908275038 15.5353879509 23.8487876072
7.8696065223 16.1500307395 4.2879192334
7.6612463402 16.5111865122 4.2885956818
7.9790569504 16.5105324029 4.6626596615
8.0704781114 16.6199399516 12.5963423931
8.3503118286 16.2085962909 12.1827057763
8.2179433477 16.9116067839 11.8817082357
7.8040836053 16.4892511458 13.3930334196
8.2393787752 15.8980567901 12.8931199616
7.8437789107 17.1444110093 17.9401043780
7.9757414445 16.3069684033 17.4494390892
8.2229589331 16.6026974916 18.1457206688
8.0789848525 16.0169418052 23.9566485146
7.5085667201 18.0797144156 5.6406839758
7.9457951490 17.1800877998 5.2453818812
8.0533962335 18.1897032689 6.5670121516
8.1992727285 17.6155920744 6.0204582437
8.5869896306 17.6587111693 6.6428167533
7.6701733031 17.4742672690 12.4629903725
8.0748250570 17.5844584505 11.6342859378
7.5246184873 17.9788040082 18.1098515461
8.2247104457 17.1016420467 18.5630717078
8.0152281409 17.8314670393 18.8851621682
8.4246206935 17.3107116455 19.0957343441
7.6839699557 18.0639804985 23.6248030940
8.1726753382 17.4995868628 23.6564297088
8.2076171175 17.8145607523 23.2450071808
7.7021121545 17.8335248150 23.8954152677
8.1158085135 17.3662006874 23.8335576074
7.3467990228 18.8845660181 6.4172699112
8.4972494419 18.1312385998 7.2763944164
7.9423659532 18.7916468616 7.4510687726
8.4332222710 18.4528886069 7.9177599292
7.7603682226 18.1315867581 11.5961670604
8.1492256673 17.9310648802 11.1512057939
7.9441967920 18.3765373683 10.9574348368
7.4932334663 18.7647834146 18.8607962531
8.5235137815 17.7849117381 19.7940484246
8.0196463395 18.6592651050 19.8875703359
8.4732849242 18.3302368782 20.4232958532
7.7230224829 18.7054475536 22.7725246527
8.2450206835 18.1733312450 22.7743077578
8.2446957286 18.4969543740 22.2213171794
7.2656696518 19.4938657028 7.3102695148
8.1324992215 18.8487645155 8.3222044995
7.5795309764 19.4193508812 8.3587685624
7.4229312863 19.5595289799 9.2619830859
7.9662784555 18.9731452229 9.2316273194
7.9469423672 18.6806912231 10.2734122083
7.4024532580 19.6178966281 19.8207357015
8.2626093734 18.7322159051 20.7051966986
7.8567500184 19.2517075807 20.7256952844
7.7143131215 19.3351107706 21.6901391472
8.2532657421 18.7746201286 21.3903408682
7.3470626725 20.0588534606 20.8061420454
8.5593775198 1.5703646744 9.8697558207
8.6211188943 1.6970285269 10.4592749232
8.4584199582 1.6810991810 11.4705249075
8.2614765858 1.5893353394 12.3506806954
7.9877873820 1.5005031451 12.9260490560
8.3715326496 2.2496859975 8.3193987733
8.6309509355 2.0751352242 8.8840920879
8.8123452584 1.9318340076 9.6665725528
8.9493587116 2.1628924713 10.3129812950
9.0672553709 2.6351587028 10.4152051272
8.8303549215 2.5118012782 11.2214479279
8.5718386555 2.2987861358 12.3413003748
8.2520603420 2.1345003870 13.2084829544
8.6261083037 3.6018543454 6.4663257358
8.8469604455 3.3971513064 6.8619901317
8.8355204908 3.0723289539 7.4843983465
8.8079519397 2.5903606396 8.2487447770
9.0192854672 3.4671613552 10.6703524704
9.1684814697 2.9397349004 10.0087020562
9.1678099793 3.4429941962 9.7731917241
8.8722531776 3.5017950988 11.6754719980
8.7402783063 3.2190609802 12.3997236939
8.5152710940 3.0169103944 13.2439198987
8.1830592119 2.8754066345 13.9037784872
8.6572221208 4.1650120427 6.0275585412
8.9642364807 3.7853863640 6.5268105059
9.1330527387 4.7001347810 8.7250113240
9.2542303956 4.0759090436 8.2124913899
9.2498249901 4.6381934941 7.8704902788
9.0537196582 4.3191222782 9.8679133870
9.2053276565 3.7558054209 9.0054312532
8.9420874083 4.5014025110 10.8363060913
8.8834688588 4.3225641677 11.6030083789
8.7834324221 4.1863975980 12.4784915650
8.6173073376 3.9752218279 13.3073306035
8.3261418309 3.7145503129 14.0168144988
8.6939548257 5.2669989487 5.3510157320
8.8768598974 4.7577628509 5.7505444089
9.1469671580 5.4664426327 7.9100675197
9.2822325245 4.9675639944 7.3124345266
9.2392911161 5.6634490688 6.9700733067
9.0127398824 5.6248784631 8.8209710937
8.9677786773 5.3945909719 9.6326494966
8.9116232693 5.3090320760 10.6121081980
8.8563691409 5.2714967470 11.5557745295
8.7865742204 5.1621109714 12.4675851092
8.6510789714 4.9828193473 13.3452889383
8.3869732758 4.6982728756 14.1186276932
8.4918805465 6.8398635205 4.6592859931
8.7183798455 5.9537609728 5.1212981760
9.1017054303 6.5676392323 7.4127584041
9.1863935078 6.3101206176 6.5568567379
8.9905633791 6.4345695602 8.5383322934
8.9125240447 6.3671726461 9.5190169569
8.8722485002 6.2930939125 10.4906473874
8.8361161233 6.2446503607 11.4789847395
8.7799792950 6.1674961756 12.4419267392
8.6652829574 6.0101155318 13.3503724533
8.4398056178 5.7454742504 14.1621977553
8.5126672669 7.9092901931 4.3825751472
8.9271746370 6.5165131605 5.2903163580
8.9078472924 7.3196731115 5.4034054039
9.0929385067 7.0809228115 6.4435940626
9.1213075158 6.5035585664 5.8874427941
9.0867138610 7.7753437651 7.2952442531
8.9886011678 7.4774441139 8.3660385294
8.8999274962 7.3553137551 9.4137382012
8.8529873942 7.3021434077 10.4290077832
8.8231947265 7.2596109492 11.4353258439
8.7759251932 7.1892548974 12.4193583973
8.6745046502 7.0446723449 13.3464190184
8.4770366241 6.7952158080 14.1802843581
8.3256732126 8.8098519593 3.7348331915
8.7150145921 8.7462470271 4.4261510359
8.9094471012 8.4013728790 5.1657850048
9.0854046584 8.1095280625 6.2214801071
9.1693712987 8.3875315069 6.9389568899
9.1544527851 8.4915370209 7.4712673049
9.1896504670 9.1312361850 7.7037775041
9.0429360629 8.5781301468 8.2928996003
8.9154820999 8.3963019234 9.3648216589
8.8527716888 8.3285598013 10.3975319799
8.8191742592 8.2892438214 11.4162904338
8.7748923145 8.2223651624 12.4083335312
8.6832328783 8.0827724714 13.3428899854
8.5131958165 7.8402495404 14.1868090381
8.3894040622 9.7879318234 3.5717061514
8.6889050264 9.3757112177 4.1486463165
8.9791160838 9.4097503407 4.9175348299
9.1407044855 9.0308815560 5.7979305486
9.2271913299 8.8899307588 6.5706708984
9.0696480651 9.6706165879 8.5209475394
9.2220274164 9.9844539495 7.7875585535
8.9392635555 9.4540694945 9.3951903840
8.8617075000 9.3683713666 10.3942535665
8.8206328970 9.3253164892 11.4102297493
8.7754643977 9.2599700076 12.4044186288
8.6899285414 9.1240401397 13.3414071300
8.5438224979 8.8866580788 14.1906244719
8.4365562588 9.6919296068 16.7867409402
8.6260030072 9.7521180415 17.4146833674
8.7063373097 9.6699615109 17.9858975552
8.4916213635 9.6549084618 18.4303772868
8.8277024955 10.1747435578 18.8246400533
8.4014601484 10.8499028363 3.5513395940
8.8347750391 10.2886151136 4.3453459857
9.1332081851 10.2335663158 5.0839974348
9.2349230214 9.8632514001 5.6752166339
9.2877791452 9.5232810877 6.2950667222
9.0746776795 10.6778365407 8.5505177994
9.2194128339 10.8480021129 7.7442779405
8.9489778178 10.5039627354 9.4436246800
8.8690229728 10.4117027122 10.4072322130
8.8230568055 10.3637418363 11.4103659786
8.7757691949 10.2986922635 12.4025864832
8.6926733552 10.1669554920 13.3408381786
8.5622323059 9.9393512403 14.1916175372
8.7234907754 10.5077026942 16.9434314889
9.0044843664 10.4002670628 17.5497340807
9.0039695321 10.0651226685 17.8693746347
9.1417600697 10.8066041814 19.1898753332
8.3662234828 11.9662062438 3.5936196413
8.8255973548 11.5333853904 4.4642432806
9.1228584162 10.9347626466 5.0224869668
9.0431372127 11.7587386081 8.4257135089
9.1877007903 11.5571217489 7.5286667565
8.9381238009 11.5520279341 9.4355599100
8.8672200857 11.4527697651 10.4116337805
8.8221317940 11.3990550530 11.4071059327
8.7735148802 11.3344383515 12.3955579262
8.6898281825 11.2087258116 13.3365761834
8.5651228332 10.9940379910 14.1936175038
8.8154141539 11.6860557879 16.9985330192
9.0995916917 11.1290222302 17.5336726306
8.8948499937 11.0992274518 19.6637882412
9.3794365125 11.7237635252 19.9487258013
8.2712657730 12.9540827099 3.6295396270
8.6597995614 12.6933047293 4.3863752946
9.1148837785 11.6134523893 5.2561307687
8.9745693041 12.4835456698 5.4143182822
9.0742869461 12.6160544833 6.5742719945
9.1939720165 11.8229882397 5.9608128395
9.0524943204 12.5028873557 7.6837225074
9.2172444190 11.7713656678 6.8198761302
8.9468204129 12.7769081579 8.6724862816
8.9027795936 12.5871835974 9.4455384944
8.8522502603 12.4840524064 10.4022508930
8.8127102869 12.4207189211 11.3902730477
8.7644812679 12.3542936137 12.3690386703
8.6781286593 12.2418436436 13.3105814329
8.5499549863 12.0460949232 14.1843617765
8.6683554938 12.6841487793 16.9443484355
9.1539878774 11.8816822637 17.6219643952
9.0203226105 12.5666995215 17.5357833043
9.3070242272 12.3781346233 18.0368138692
9.1809540028 12.1005830478 20.4215204180
9.2082274842 12.5974801111 21.1858554110
8.4541479039 13.8070744669 4.2555552542
8.8148246140 13.5845708933 5.1870288589
8.9799305515 13.5751231907 6.2602560617
8.9953993171 13.5673329197 7.3915812844
8.9328564924 13.5686309670 8.4566687563
8.8700806885 13.5566783794 9.4263963584
8.8265125835 13.4855094488 10.3736930337
8.7861916048 13.4192577387 11.3541611102
8.7401642060 13.3254389199 12.3081682080
8.6512149739 13.2367373611 13.2255882481
8.5114608105 13.0902087953 14.1175122912
8.8345466455 13.5775505413 17.5453900389
9.2658645398 13.1874081073 18.1930890940
8.8360887276 13.1243708313 21.7681928127
9.1691102924 13.9175993004 22.2919938734
8.3850956038 14.9167775952 4.4778968024
8.7111931978 14.4480618481 5.0109645441
8.9569696388 14.6264962917 5.9393173491
9.0480483145 14.6579875471 7.1521811645
8.9609248113 14.5590145359 8.2916548927
8.8682785218 14.5082234733 9.3352088470
8.8024430688 14.4334501413 10.3041691355
8.7402667886 14.3822504979 11.2659378014
8.6709603564 14.2783157761 12.2469862093
8.6165670903 14.0314922042 13.0322853586
8.4315764249 14.1631218085 13.9194080467
8.7470612948 14.8432081300 17.9209280994
9.1872502774 14.2005272791 18.3904390977
8.7334508841 14.3081189843 22.7878764719
8.8848035357 14.8914445148 23.1373590544
8.2816597712 15.8130752106 4.6522823545
8.7442844511 15.3977219746 5.3211061892
9.0568420134 15.4999828782 6.0889058135
9.1571350972 15.3385921586 6.7012847583
9.1837647197 15.4819968534 7.3729405062
9.2444293204 16.0702323389 7.7407154376
9.0847602575 15.5833243688 8.1830665933
8.9127972056 15.5022664124 9.2379706359
8.7791043257 15.3833881417 10.2533927326
8.7055142593 15.1659274817 11.0657495926
8.5534994910 15.3250210618 12.0619283075
8.4317001648 14.9476704247 13.1806484712
8.4492485673 15.8980559776 18.0205265977
9.1473308843 15.0043687212 18.6684454002
8.9413861108 15.7593183066 18.7773443492
9.2865977866 15.4323117927 19.1717718036
8.5794957836 15.2573927084 23.5189872836
8.6573969903 15.9116415060 23.6407587757
8.4897610849 16.3502891868 5.2950697242
8.9490049051 16.1685901602 5.9876176177
9.1841076899 16.3494500474 8.3515916674
9.2608924049 16.6399462241 8.0514088012
9.0157460135 16.4987285642 9.1078903313
8.7685058404 16.3900015706 10.1453763040
8.5677157100 16.1283295075 11.2614196045
8.5831081765 16.6229490222 18.7859321864
9.2336777553 15.9580473871 19.4433434586
8.9933522140 16.5148751519 19.4365244730
9.2846068394 16.3701941372 19.9410765729
8.5232008053 16.8884099884 23.5577624667
9.0094271368 16.3051291774 23.2669988761
9.0061123466 16.8648815713 22.9884681830
8.2893035941 16.7332088048 23.8966720042
8.6675193373 17.0043906399 6.0739187477
8.9383246087 17.2854940954 6.7764093379
9.1810136144 16.9211737889 8.6306292067
9.0543187999 17.2109581304 9.1735088643
8.9432701309 17.6580134816 9.2641342371
8.7724162451 17.3650467616 9.8464185522
8.4461459328 17.2405895991 10.9508434561
8.7301560086 17.1036850552 19.4596792948
9.0387437736 17.1052776075 20.1529897680
8.6791868879 17.6501232630 22.6942594519
9.1409229849 17.1137913192 22.4688281204
9.0202363832 17.5779788801 22.0647579099
8.8585247798 17.6747972669 7.1871828696
8.5282214448 18.4191376718 8.6226498555
8.8507094819 17.9025240253 7.8993515733
8.5435898584 18.1949828742 9.5259757676
8.9261665357 17.8560472638 8.7418818807
8.3440090965 18.0256469014 10.4823903714
8.6149955577 18.3307602521 21.0776343295
8.8425958308 17.8333662232 20.6446321898
8.6744563869 18.1500641264 21.8341667895
8.9964059222 17.7599826849 21.4076754692
9.0438959248 2.5025750260 9.0158834230
9.1143924518 2.4592744847 9.8005062989
9.1289113820 3.6468298452 7.1089567452
9.1746707586 3.3096032060 8.2069494774
9.2132393041 3.0105738110 9.3116491503
9.1310539811 4.3831126878 6.4121270391
9.2844387491 4.2472769987 7.3637702355
9.0925617459 5.3011445820 5.8133092794
9.2830719905 5.0341906476 6.6373109201
9.0949388926 6.0130069419 5.6154301225
9.2341958172 5.7977865156 6.2071700780
9.2340821558 8.8462761735 7.1428367036
9.3020480584 9.5409135763 7.0195210009
9.0116225655 10.0717726095 18.3272544948
9.2892450553 10.6354661144 5.6433740790
9.3492736632 10.2880788238 6.4277330696
9.3271835923 10.3069991616 7.1954444209
9.2576935318 10.7257502461 18.1470815236
9.2392700137 10.5860551171 18.7026335628
9.2587551959 11.2486727730 5.5920513428
9.3217763588 11.1392884824 6.2251566363
9.3145124138 10.9804052305 6.9893627875
9.3701334300 11.6785935483 18.1659119345
9.5135318149 11.4622158944 19.0375102618
9.4334516277 11.3630309841 19.5734042464
9.6220660046 11.5313954603 19.4455700352
9.5525778836 11.7782540244 20.1034195033
9.5373218975 12.5960660730 18.7814233880
9.6440086274 11.8531676932 19.7181554364
9.6283918372 12.2927593276 19.6580189596
9.5639460317 11.9611773689 20.1597620044
9.4783421969 12.1841031248 20.6423922373
9.6409536155 12.2390432817 19.9718016080
9.4340881530 12.6236581987 21.2128395755
9.5313601872 13.8008347015 18.9539795284
9.7440907529 13.3972289443 19.4822782012
9.7909787402 12.9993917063 19.7719244205
9.3170156594 13.1953154494 21.7427184344
9.4485594897 13.9023206614 22.1592197632
9.4394357082 14.7837832685 19.1300088160
9.7364629207 14.6072139093 19.7728807785
9.8572682289 14.0078836660 19.8661042660
9.2620789527 14.7868096867 22.7427675998
9.5374624813 14.7005761586 22.3746668251
9.2024666968 16.0192126176 6.6376732113
9.2631890056 15.8736859363 7.1470997556
9.5067094422 15.6219657978 19.8529229054
9.8897893183 14.9329641216 20.3232061461
9.7839416054 15.5719838898 20.6870054176
9.9146984095 15.4259681038 20.8295571234
9.5423354152 15.4906853584 22.4793416368
9.7431906570 15.4916503712 22.0223872188
9.1292893369 15.5569327700 23.1254848310
9.1039460857 16.7269911708 6.6804835032
9.2653037905 16.5538830256 7.3795750184
9.4569936978 16.4736420864 20.7442001188
9.8552467886 15.6668650834 21.3540739207
9.6597046446 16.0389230321 21.7043159033
9.3415336166 16.3517674359 22.6001866429
9.1099786667 17.2603124753 7.3412961994
9.1717773880 17.2530694712 8.1381571266
9.1192554777 17.4201982676 8.8248081475
9.1877627180 17.2950971182 20.9579098962
9.3266014280 16.9919006937 21.7426773274
3 2 1 0
3 0 3 2
3 6 5 4
3 4 7 6
3 1 8 0
3 0 8 3
3 11 10 9
3 11 9 5
3 9 4 5
3 9 12 4
3 7 4 13
3 4 14 13
3 4 12 14
3 16 15 14
3 14 15 13
3 18 17 16
3 16 17 15
3 20 19 18
3 18 19 17
3 20 21 19
3 24 23 22
3 24 22 10
3 22 9 10
3 22 25 9
3 9 26 12
3 9 25 26
3 12 27 14
3 12 26 27
3 14 28 16
3 14 27 28
3 16 29 18
3 16 28 29
3 31 20 30
3 20 29 30
3 20 18 29
3 20 31 21
3 34 33 32
3 34 32 23
3 32 22 23
3 32 35 22
3 22 36 25
3 22 35 36
3 25 37 26
3 25 36 37
3 26 38 27
3 26 37 38
3 27 39 28
3 27 38 39
3 28 40 29
3 28 39 40
3 30 29 41
3 41 29 40
3 32 33 42
3 42 33 43
3 32 44 35
3 32 42 44
3 35 45 36
3 35 44 45
3 36 46 37
3 36 45 46
3 37 47 38
3 37 46 47
3 38 48 39
3 38 47 48
3 39 49 40
3 39 48 49
3 41 40 50
3 50 40 49
3 42 43 51
3 51 43 52
3 42 53 44
3 42 51 53
3 44 54 45
3 44 53 54
3 45 55 46
3 45 54 55
3 46 56 47
3 46 55 56
3 47 57 48
3 47 56 57
3 48 58 49
3 48 57 58
3 50 49 59
3 59 49 58
3 62 61 60
3 60 63 62
3 51 52 64
3 64 52 65
3 51 66 53
3 51 64 66
3 53 67 54
3 53 66 67
3 54 68 55
3 54 67 68
3 55 69 56
3 55 68 69
3 56 70 57
3 56 69 70
3 57 71 58
3 57 70 71
3 59 58 72
3 72 58 71
3 60 61 73
3 73 61 74
3 63 60 75
3 60 76 75
3 60 73 76
3 76 77 75
3 64 65 78
3 78 65 79
3 64 80 66
3 64 78 80
3 66 81 67
3 66 80 81
3 67 82 68
3 67 81 82
3 68 83 69
3 68 82 83
3 69 84 70
3 69 83 84
3 70 85 71
3 70 84 85
3 72 71 86
3 86 71 85
3 73 74 87
3 87 74 88
3 73 89 76
3 73 87 89
3 77 76 90
3 76 91 90
3 76 89 91
3 91 92 90
3 78 79 93
3 93 79 94
3 78 95 80
3 78 93 95
3 80 96 81
3 80 95 96
3 81 97 82
3 81 96 97
3 82 98 83
3 82 97 98
3 83 99 84
3 83 98 99
3 84 100 85
3 84 99 100
3 86 85 101
3 85 102 101
3 85 100 102
3 102 103 101
3 87 88 104
3 104 88 105
3 87 106 89
3 87 104 106
3 89 107 91
3 89 106 107
3 92 91 108
3 91 109 108
3 91 107 109
3 109 110 108
3 93 94 111
3 111 94 112
3 93 113 95
3 93 111 113
3 95 114 96
3 95 113 114
3 96 115 97
3 96 114 115
3 97 116 98
3 97 115 116
3 98 117 99
3 98 116 117
3 119 100 118
3 100 117 118
3 100 99 117
3 100 119 102
3 102 119 120
3 102 120 103
3 105 121 104
3 123 122 121
3 122 104 121
3 122 106 104
3 106 124 107
3 106 122 124
3 126 109 125
3 109 124 125
3 109 107 124
3 109 126 110
3 111 112 127
3 127 112 128
3 111 129 113
3 111 127 129
3 113 130 114
3 113 129 130
3 114 131 115
3 114 130 131
3 115 132 116
3 115 131 132
3 116 133 117
3 116 132 133
3 118 117 134
3 134 117 133
3 123 135 122
3 122 135 124
3 124 135 136
3 124 136 125
3 127 128 137
3 137 128 138
3 127 139 129
3 127 137 139
3 129 140 130
3 129 139 140
3 130 141 131
3 130 140 141
3 143 132 142
3 132 141 142
3 132 131 141
3 132 143 133
3 133 143 144
3 133 144 134
3 138 145 137
3 137 145 139
3 139 145 146
3 148 147 146
3 147 139 146
3 147 140 139
3 150 141 149
3 141 147 149
3 141 140 147
3 141 150 142
3 148 151 147
3 147 151 149
3 154 153 152
3 156 155 152
3 152 155 154
3 158 157 156
3 156 157 155
3 160 159 158
3 158 159 157
3 162 161 160
3 160 161 159
3 164 163 162
3 162 163 161
3 164 165 163
3 168 167 166
3 168 166 153
3 166 152 153
3 166 169 152
3 152 170 156
3 152 169 170
3 156 171 158
3 156 170 171
3 158 172 160
3 158 171 172
3 160 173 162
3 160 172 173
3 173 1 2
3 164 173 2
3 162 173 164
3 2 3 164
3 3 165 164
3 3 174 165
3 177 176 175
3 179 178 175
3 175 178 177
3 178 179 167
3 179 166 167
3 179 180 166
3 180 5 6
3 169 180 6
3 166 180 169
3 169 6 7
3 181 169 7
3 170 169 181
3 170 182 171
3 170 181 182
3 171 183 172
3 171 182 183
3 172 184 173
3 172 183 184
3 185 8 1
3 173 185 1
3 184 185 173
3 185 186 8
3 186 3 8
3 186 174 3
3 175 176 187
3 187 176 188
3 175 189 179
3 175 187 189
3 189 10 11
3 180 189 11
3 179 189 180
3 180 11 5
3 13 181 7
3 181 13 15
3 181 15 182
3 182 15 17
3 182 17 183
3 183 17 19
3 183 19 184
3 184 19 21
3 190 184 21
3 185 184 190
3 186 185 191
3 185 192 191
3 185 190 192
3 192 193 191
3 196 195 194
3 196 194 188
3 194 187 188
3 194 197 187
3 197 23 24
3 189 197 24
3 187 197 189
3 189 24 10
3 30 198 31
3 190 21 31
3 198 190 31
3 199 190 198
3 190 200 192
3 190 199 200
3 193 192 201
3 201 192 200
3 194 195 202
3 202 195 203
3 202 33 34
3 197 202 34
3 194 202 197
3 197 34 23
3 41 204 198
3 41 198 30
3 198 205 199
3 198 204 205
3 207 200 206
3 200 205 206
3 200 199 205
3 200 207 201
3 210 209 208
3 208 211 210
3 214 213 212
3 214 212 203
3 212 202 203
3 212 215 202
3 215 43 33
3 215 33 202
3 50 216 204
3 50 204 41
3 204 217 205
3 204 216 217
3 206 205 218
3 218 205 217
3 208 209 219
3 219 209 220
3 211 208 221
3 221 208 219
3 224 223 222
3 224 222 213
3 222 212 213
3 222 225 212
3 212 226 215
3 212 225 226
3 226 52 43
3 226 43 215
3 59 227 216
3 59 216 50
3 216 228 217
3 216 227 228
3 218 217 229
3 229 217 228
3 232 231 230
3 232 230 220
3 230 219 220
3 230 233 219
3 62 234 61
3 234 219 61
3 219 233 61
3 219 234 221
3 62 63 234
3 234 63 235
3 223 236 222
3 238 237 236
3 237 222 236
3 237 225 222
3 225 239 226
3 225 237 239
3 239 65 52
3 239 52 226
3 72 240 227
3 72 227 59
3 242 228 241
3 228 240 241
3 228 227 240
3 228 242 229
3 230 231 243
3 243 231 244
3 230 245 233
3 230 243 245
3 245 74 61
3 245 61 233
3 246 235 63
3 246 63 75
3 75 77 246
3 246 77 247
3 237 238 248
3 248 238 249
3 237 250 239
3 237 248 250
3 250 79 65
3 250 65 239
3 86 251 240
3 86 240 72
3 241 240 252
3 240 253 252
3 240 251 253
3 253 254 252
3 243 244 255
3 255 244 256
3 243 257 245
3 243 255 257
3 257 88 74
3 257 74 245
3 258 247 77
3 258 77 90
3 90 92 258
3 258 92 259
3 248 249 260
3 260 249 261
3 248 262 250
3 248 260 262
3 262 94 79
3 262 79 250
3 101 251 86
3 251 101 103
3 263 251 103
3 253 251 263
3 254 253 264
3 264 253 263
3 256 265 255
3 267 266 265
3 266 255 265
3 266 257 255
3 266 105 88
3 266 88 257
3 268 259 92
3 268 92 108
3 108 110 268
3 268 110 269
3 272 271 270
3 272 270 261
3 270 260 261
3 270 273 260
3 260 274 262
3 260 273 274
3 274 112 94
3 274 94 262
3 118 275 119
3 276 120 119
3 276 119 275
3 263 103 120
3 276 263 120
3 277 263 276
3 264 263 278
3 263 279 278
3 263 277 279
3 279 280 278
3 266 267 281
3 281 267 282
3 283 121 105
3 266 283 105
3 281 283 266
3 283 123 121
3 125 284 126
3 269 110 285
3 110 284 285
3 284 286 285
3 110 126 284
3 286 287 285
3 271 288 270
3 290 289 288
3 289 270 288
3 289 273 270
3 273 291 274
3 273 289 291
3 291 128 112
3 291 112 274
3 134 292 275
3 134 275 118
3 275 293 276
3 275 292 293
3 295 277 294
3 277 293 294
3 277 276 293
3 277 295 279
3 279 295 296
3 279 296 280
3 282 297 281
3 299 298 297
3 298 281 297
3 298 283 281
3 300 135 123
3 283 300 123
3 298 300 283
3 301 136 135
3 301 135 300
3 284 125 136
3 301 284 136
3 302 284 301
3 304 286 303
3 286 302 303
3 286 284 302
3 286 304 287
3 289 290 305
3 305 290 306
3 289 307 291
3 289 305 307
3 307 138 128
3 307 128 291
3 142 308 143
3 309 144 143
3 309 143 308
3 292 134 144
3 309 292 144
3 310 292 309
3 292 311 293
3 292 310 311
3 294 293 312
3 312 293 311
3 299 313 298
3 298 313 300
3 300 313 314
3 300 314 301
3 301 314 315
3 301 315 302
3 302 315 316
3 302 316 303
3 306 317 305
3 319 318 317
3 318 305 317
3 318 307 305
3 320 145 138
3 307 320 138
3 318 320 307
3 321 146 145
3 321 145 320
3 321 148 146
3 149 322 150
3 308 142 150
3 322 308 150
3 323 308 322
3 308 324 309
3 308 323 324
3 326 310 325
3 310 324 325
3 310 309 324
3 310 326 311
3 311 326 327
3 311 327 312
3 319 328 318
3 330 329 328
3 329 318 328
3 329 320 318
3 320 331 321
3 320 329 331
3 332 151 148
3 321 332 148
3 331 332 321
3 322 149 151
3 332 322 151
3 333 322 332
3 335 323 334
3 323 333 334
3 323 322 333
3 323 335 324
3 324 335 336
3 324 336 325
3 329 330 337
3 337 330 338
3 340 331 339
3 331 337 339
3 331 329 337
3 331 340 332
3 332 340 341
3 332 341 333
3 333 341 342
3 333 342 334
3 338 343 337
3 337 343 339
3 346 345 344
3 348 347 344
3 344 347 346
3 350 349 348
3 348 349 347
3 352 351 350
3 350 351 349
3 354 353 352
3 352 353 351
3 356 355 354
3 354 355 353
3 356 357 355
3 344 345 358
3 358 345 359
3 358 153 154
3 348 358 154
3 344 358 348
3 348 154 155
3 348 155 350
3 350 155 157
3 350 157 352
3 352 157 159
3 352 159 354
3 354 159 161
3 354 161 356
3 360 357 356
3 161 360 356
3 163 360 161
3 163 165 360
3 360 165 361
3 364 363 362
3 364 362 359
3 359 362 358
3 362 167 358
3 167 168 358
3 358 168 153
3 174 361 165
3 174 365 361
3 367 366 177
3 177 366 176
3 178 362 363
3 367 178 363
3 177 178 367
3 362 178 167
3 186 365 174
3 186 368 365
3 371 370 369
3 366 371 369
3 188 366 369
3 176 366 188
3 372 368 186
3 372 186 191
3 191 193 372
3 372 193 373
3 376 375 374
3 376 374 370
3 370 374 369
3 374 195 369
3 195 196 369
3 369 196 188
3 201 378 377
3 373 201 377
3 193 201 373
3 378 379 377
3 382 381 380
3 382 380 375
3 380 374 375
3 380 383 374
3 383 203 195
3 383 195 374
3 206 384 207
3 378 201 207
3 384 378 207
3 385 378 384
3 210 386 209
3 386 378 209
3 378 385 209
3 378 386 379
3 210 211 386
3 386 211 387
3 380 381 388
3 388 381 389
3 388 213 214
3 383 388 214
3 380 388 383
3 383 214 203
3 218 390 384
3 218 384 206
3 384 391 385
3 384 390 391
3 391 220 209
3 391 209 385
3 221 387 211
3 221 392 387
3 388 389 224
3 389 223 224
3 389 393 223
3 388 224 213
3 229 394 390
3 229 390 218
3 394 231 232
3 391 394 232
3 390 394 391
3 391 232 220
3 395 392 221
3 395 221 234
3 234 235 395
3 395 235 396
3 236 223 397
3 223 398 397
3 223 393 398
3 397 238 236
3 241 399 242
3 394 229 242
3 399 394 242
3 400 394 399
3 400 244 231
3 400 231 394
3 401 396 235
3 401 235 246
3 246 247 401
3 401 247 402
3 397 398 403
3 403 398 404
3 403 249 238
3 403 238 397
3 252 399 241
3 399 252 254
3 405 399 254
3 400 399 405
3 405 256 244
3 405 244 400
3 406 402 247
3 406 247 258
3 258 259 406
3 406 259 407
3 403 404 408
3 408 404 409
3 408 261 249
3 408 249 403
3 264 410 405
3 264 405 254
3 411 265 256
3 405 411 256
3 410 411 405
3 411 267 265
3 412 407 259
3 412 259 268
3 268 269 412
3 412 269 413
3 408 409 272
3 409 271 272
3 409 414 271
3 408 272 261
3 278 410 264
3 410 278 280
3 415 410 280
3 411 410 415
3 415 282 267
3 415 267 411
3 416 413 269
3 416 269 285
3 285 287 416
3 416 287 417
3 288 271 418
3 271 419 418
3 271 414 419
3 418 290 288
3 294 420 295
3 421 296 295
3 421 295 420
3 415 280 296
3 421 415 296
3 422 415 421
3 423 297 282
3 415 423 282
3 422 423 415
3 423 299 297
3 303 424 304
3 417 287 425
3 287 424 425
3 424 426 425
3 287 304 424
3 418 419 427
3 427 419 428
3 427 306 290
3 427 290 418
3 312 429 420
3 312 420 294
3 431 421 430
3 421 429 430
3 421 420 429
3 433 432 431
3 432 421 431
3 432 422 421
3 422 434 423
3 422 432 434
3 435 313 299
3 423 435 299
3 434 435 423
3 436 314 313
3 436 313 435
3 437 315 314
3 437 314 436
3 438 316 315
3 438 315 437
3 424 303 316
3 438 424 316
3 439 424 438
3 441 426 440
3 426 439 440
3 426 424 439
3 427 428 442
3 442 428 443
3 444 317 306
3 427 444 306
3 442 444 427
3 444 319 317
3 325 445 326
3 446 327 326
3 446 326 445
3 446 447 327
3 327 447 312
3 447 448 312
3 448 429 312
3 429 448 430
3 433 449 432
3 432 449 434
3 434 449 450
3 452 451 450
3 451 434 450
3 451 435 434
3 435 453 436
3 435 451 453
3 436 454 437
3 436 453 454
3 437 455 438
3 437 454 455
3 457 439 456
3 439 455 456
3 439 438 455
3 439 457 440
3 443 458 442
3 460 459 458
3 459 442 458
3 459 444 442
3 461 328 319
3 444 461 319
3 459 461 444
3 461 330 328
3 334 462 335
3 463 336 335
3 463 335 462
3 463 464 336
3 336 464 325
3 464 465 325
3 465 445 325
3 445 465 446
3 446 465 466
3 446 466 447
3 452 467 451
3 451 467 453
3 453 467 468
3 453 468 454
3 454 468 469
3 454 469 455
3 455 469 470
3 455 470 456
3 460 471 459
3 473 472 471
3 472 459 471
3 472 461 459
3 472 338 330
3 472 330 461
3 339 474 340
3 475 341 340
3 475 340 474
3 476 342 341
3 476 341 475
3 462 334 342
3 476 462 342
3 477 462 476
3 479 463 478
3 463 477 478
3 463 462 477
3 463 479 464
3 473 480 472
3 480 482 481
3 480 481 343
3 472 480 343
3 338 472 343
3 474 339 343
3 481 474 343
3 483 474 481
3 474 484 475
3 474 483 484
3 486 476 485
3 476 484 485
3 476 475 484
3 476 486 477
3 477 486 487
3 477 487 478
3 482 488 481
3 481 488 483
3 483 488 489
3 483 489 484
3 484 489 490
3 484 490 485
3 493 492 491
3 495 494 491
3 491 494 493
3 497 496 495
3 495 496 494
3 497 498 496
3 500 499 346
3 346 499 345
3 501 346 347
3 501 500 346
3 349 491 492
3 501 349 492
3 347 349 501
3 491 349 351
3 491 351 495
3 495 351 353
3 495 353 497
3 502 498 497
3 353 502 497
3 355 502 353
3 355 357 502
3 502 357 503
3 506 505 504
3 499 506 504
3 359 499 504
3 345 499 359
3 507 503 357
3 507 357 360
3 360 361 507
3 507 361 508
3 511 510 509
3 511 509 505
3 505 509 504
3 509 363 504
3 363 364 504
3 504 364 359
3 365 508 361
3 365 512 508
3 515 514 513
3 515 513 510
3 510 513 509
3 513 366 509
3 366 367 509
3 509 367 363
3 368 512 365
3 368 516 512
3 519 518 517
3 519 517 514
3 514 517 513
3 517 370 513
3 370 371 513
3 513 371 366
3 520 516 368
3 520 368 372
3 372 373 520
3 520 373 521
3 524 523 522
3 524 522 518
3 518 522 517
3 522 375 517
3 375 376 517
3 517 376 370
3 525 521 373
3 525 373 377
3 377 379 525
3 525 379 526
3 522 523 382
3 523 381 382
3 523 527 381
3 522 382 375
3 528 526 379
3 528 379 386
3 386 387 528
3 528 387 529
3 532 531 530
3 527 532 530
3 389 527 530
3 381 527 389
3 392 529 387
3 392 533 529
3 530 531 534
3 534 531 535
3 534 393 389
3 534 389 530
3 536 533 392
3 536 392 395
3 395 396 536
3 536 396 537
3 534 535 538
3 538 535 539
3 538 398 393
3 538 393 534
3 540 537 396
3 540 396 401
3 401 402 540
3 540 402 541
3 538 539 542
3 542 539 543
3 542 404 398
3 542 398 538
3 544 541 402
3 544 402 406
3 406 407 544
3 544 407 545
3 542 543 546
3 546 543 547
3 546 409 404
3 546 404 542
3 548 545 407
3 548 407 412
3 412 413 548
3 548 413 549
3 546 547 550
3 550 547 551
3 550 414 409
3 550 409 546
3 552 549 413
3 552 413 416
3 416 417 552
3 552 417 553
3 550 551 554
3 554 551 555
3 554 419 414
3 554 414 550
3 556 553 417
3 556 417 425
3 554 555 557
3 557 555 558
3 557 428 419
3 557 419 554
3 430 559 431
3 559 433 431
3 440 560 441
3 558 561 557
3 428 557 561
3 562 428 561
3 443 428 562
3 565 564 563
3 566 448 447
3 567 563 564
3 559 430 448
3 566 559 448
3 568 559 566
3 569 449 433
3 559 569 433
3 568 569 559
3 570 450 449
3 570 449 569
3 570 452 450
3 456 571 457
3 571 572 457
3 457 572 440
3 572 573 440
3 573 560 440
3 458 443 574
3 443 575 574
3 443 562 575
3 574 460 458
3 577 576 465
3 577 465 464
3 563 466 565
3 466 576 565
3 466 465 576
3 563 567 466
3 567 578 466
3 566 447 466
3 566 466 578
3 566 578 568
3 568 578 579
3 581 580 579
3 580 568 579
3 580 569 568
3 569 582 570
3 569 580 582
3 583 467 452
3 570 583 452
3 582 583 570
3 584 468 467
3 584 467 583
3 585 469 468
3 585 468 584
3 586 470 469
3 586 469 585
3 586 587 470
3 470 587 456
3 587 588 456
3 588 571 456
3 571 588 572
3 575 589 574
3 574 589 460
3 589 471 460
3 589 590 471
3 473 471 590
3 473 590 591
3 594 593 592
3 479 478 592
3 593 479 592
3 595 479 593
3 464 479 577
3 577 479 595
3 581 596 580
3 598 597 596
3 597 580 596
3 597 582 580
3 582 599 583
3 582 597 599
3 583 600 584
3 583 599 600
3 584 601 585
3 584 600 601
3 603 586 602
3 586 601 602
3 586 585 601
3 586 603 587
3 591 604 473
3 473 604 480
3 482 480 604
3 482 604 605
3 607 606 486
3 607 486 485
3 592 487 594
3 487 606 594
3 487 486 606
3 487 592 478
3 598 608 597
3 597 608 599
3 599 608 609
3 611 610 609
3 610 599 609
3 610 600 599
3 613 601 612
3 601 610 612
3 601 600 610
3 601 613 602
3 605 614 482
3 482 614 488
3 488 615 489
3 614 615 488
3 489 616 490
3 615 616 489
3 485 490 607
3 607 490 616
3 610 611 617
3 617 611 618
3 612 610 619
3 619 610 617
3 622 621 620
3 620 623 622
3 626 625 624
3 492 493 624
3 493 626 624
3 493 627 626
3 628 493 494
3 628 627 493
3 496 620 621
3 628 496 621
3 494 496 628
3 496 498 620
3 498 623 620
3 498 629 623
3 632 631 630
3 499 500 630
3 500 632 630
3 500 633 632
3 501 624 625
3 633 501 625
3 500 501 633
3 624 501 492
3 634 629 498
3 634 498 502
3 502 503 634
3 634 503 635
3 638 637 636
3 638 636 631
3 631 636 630
3 636 505 630
3 505 506 630
3 630 506 499
3 639 635 503
3 639 503 507
3 507 508 639
3 639 508 640
3 643 642 641
3 643 641 637
3 637 641 636
3 641 510 636
3 510 511 636
3 636 511 505
3 512 640 508
3 512 644 640
3 641 642 515
3 642 514 515
3 642 645 514
3 641 515 510
3 516 644 512
3 516 646 644
3 648 647 519
3 519 647 518
3 519 514 645
3 519 645 648
3 649 646 516
3 649 516 520
3 520 521 649
3 649 521 650
3 652 651 524
3 524 651 523
3 524 518 647
3 524 647 652
3 653 650 521
3 653 521 525
3 525 526 653
3 653 526 654
3 657 656 655
3 651 657 655
3 527 651 655
3 523 651 527
3 658 654 526
3 658 526 528
3 528 529 658
3 658 529 659
3 655 656 532
3 656 531 532
3 656 660 531
3 655 532 527
3 533 659 529
3 533 661 659
3 664 663 662
3 660 664 662
3 535 660 662
3 531 660 535
3 665 661 533
3 665 533 536
3 536 537 665
3 665 537 666
3 669 668 667
3 669 667 663
3 667 662 663
3 667 670 662
3 670 539 535
3 670 535 662
3 671 666 537
3 671 537 540
3 540 541 671
3 671 541 672
3 668 673 667
3 675 674 673
3 674 667 673
3 674 670 667
3 674 543 539
3 674 539 670
3 676 672 541
3 676 541 544
3 544 545 676
3 676 545 677
3 675 678 674
3 543 674 678
3 679 543 678
3 547 543 679
3 680 677 545
3 680 545 548
3 548 549 680
3 680 549 681
3 679 551 547
3 682 551 679
3 683 681 549
3 683 549 552
3 552 553 683
3 683 553 684
3 682 555 551
3 685 555 682
3 686 684 553
3 686 553 556
3 685 558 555
3 687 558 685
3 687 688 558
3 558 688 561
3 562 561 688
3 562 688 689
3 565 690 564
3 690 567 564
3 692 691 573
3 692 573 572
3 694 575 693
3 575 689 693
3 575 562 689
3 695 694 693
3 697 696 576
3 697 576 577
3 565 576 690
3 576 698 690
3 576 696 698
3 690 698 567
3 698 578 567
3 698 699 578
3 699 701 700
3 579 699 700
3 578 699 579
3 700 581 579
3 703 702 588
3 703 588 587
3 572 588 692
3 692 588 702
3 694 589 575
3 695 704 694
3 704 589 694
3 704 590 589
3 591 590 704
3 591 704 705
3 707 706 593
3 707 593 594
3 593 708 595
3 706 708 593
3 577 595 697
3 697 595 708
3 700 701 709
3 709 701 710
3 711 596 581
3 700 711 581
3 709 711 700
3 711 598 596
3 713 712 603
3 713 603 602
3 587 603 703
3 703 603 712
3 705 714 591
3 591 714 604
3 716 715 605
3 604 716 605
3 714 716 604
3 717 715 716
3 720 719 718
3 606 607 718
3 719 606 718
3 721 606 719
3 594 606 707
3 707 606 721
3 710 722 709
3 709 722 711
3 711 722 723
3 711 723 598
3 723 608 598
3 723 724 608
3 724 726 725
3 609 724 725
3 608 724 609
3 725 611 609
3 612 727 613
3 727 728 613
3 728 602 613
3 728 713 602
3 715 614 605
3 717 729 715
3 729 614 715
3 729 615 614
3 718 616 720
3 616 729 720
3 616 615 729
3 616 718 607
3 725 726 730
3 730 726 731
3 730 618 611
3 730 611 725
3 733 732 727
3 612 733 727
3 619 733 612
3 727 732 728
3 736 735 734
3 738 737 734
3 734 737 736
3 621 622 738
3 622 737 738
3 622 739 737
3 622 623 739
3 739 623 740
3 743 742 741
3 625 626 741
3 626 743 741
3 626 744 743
3 627 734 735
3 744 627 735
3 626 627 744
3 734 627 628
3 734 628 738
3 738 628 621
3 629 740 623
3 629 745 740
3 748 747 746
3 631 632 746
3 632 748 746
3 632 749 748
3 633 741 742
3 749 633 742
3 632 633 749
3 741 633 625
3 750 745 629
3 750 629 634
3 634 635 750
3 750 635 751
3 746 747 638
3 747 637 638
3 747 752 637
3 746 638 631
3 753 751 635
3 753 635 639
3 639 640 753
3 753 640 754
3 756 755 643
3 643 755 642
3 643 637 752
3 643 752 756
3 644 754 640
3 644 757 754
3 760 759 758
3 755 760 758
3 645 755 758
3 642 755 645
3 646 757 644
3 646 761 757
3 764 763 762
3 764 762 759
3 759 762 758
3 762 647 758
3 647 648 758
3 758 648 645
3 765 761 646
3 765 646 649
3 649 650 765
3 765 650 766
3 769 768 767
3 769 767 763
3 763 767 762
3 767 651 762
3 651 652 762
3 762 652 647
3 770 766 650
3 770 650 653
3 653 654 770
3 770 654 771
3 767 768 657
3 768 656 657
3 768 772 656
3 767 657 651
3 773 771 654
3 773 654 658
3 658 659 773
3 773 659 774
3 777 776 775
3 772 777 775
3 660 772 775
3 656 772 660
3 661 774 659
3 661 778 774
3 781 780 779
3 781 779 776
3 776 779 775
3 779 663 775
3 663 664 775
3 775 664 660
3 782 778 661
3 782 661 665
3 665 666 782
3 782 666 783
3 785 784 780
3 784 668 780
3 669 779 780
3 669 780 668
3 669 663 779
3 784 785 786
3 787 783 666
3 787 666 671
3 671 672 787
3 787 672 788
3 784 673 668
3 675 673 784
3 786 675 784
3 789 675 786
3 790 788 672
3 790 672 676
3 676 677 790
3 790 677 791
3 789 792 675
3 675 792 678
3 679 678 792
3 679 792 793
3 794 791 677
3 794 677 680
3 680 681 794
3 794 681 795
3 793 682 679
3 796 682 793
3 797 795 681
3 797 681 683
3 683 684 797
3 797 684 798
3 800 685 799
3 685 796 799
3 685 682 796
3 801 800 799
3 802 798 684
3 802 684 686
3 803 687 800
3 800 687 685
3 800 801 804
3 800 804 803
3 807 806 805
3 808 805 806
3 803 688 687
3 810 809 689
3 810 689 688
3 804 810 688
3 803 804 688
3 811 809 810
3 814 813 812
3 816 815 812
3 816 812 813
3 815 816 807
3 805 815 807
3 817 815 805
3 805 808 818
3 805 818 817
3 820 819 691
3 820 691 692
3 809 693 689
3 822 821 695
3 822 695 693
3 811 822 693
3 809 811 693
3 823 821 822
3 826 825 824
3 828 827 824
3 828 824 825
3 827 828 814
3 827 814 812
3 697 827 812
3 696 697 812
3 696 812 698
3 698 812 815
3 698 815 699
3 699 815 817
3 701 699 817
3 818 701 817
3 829 701 818
3 831 830 702
3 831 702 703
3 692 702 820
3 820 702 830
3 821 704 695
3 833 832 705
3 833 705 704
3 823 833 704
3 821 823 704
3 834 832 833
3 837 836 835
3 835 836 826
3 835 826 824
3 707 835 824
3 706 707 824
3 706 824 708
3 708 824 827
3 708 827 697
3 839 710 838
3 710 829 838
3 710 701 829
3 841 840 839
3 841 839 838
3 843 842 840
3 843 840 841
3 844 842 843
3 846 845 712
3 846 712 713
3 703 712 831
3 831 712 845
3 832 714 705
3 834 847 832
3 847 714 832
3 847 716 714
3 849 848 717
3 716 849 717
3 847 849 716
3 719 720 848
3 849 719 848
3 850 719 849
3 835 721 837
3 721 850 837
3 721 719 850
3 721 835 707
3 839 722 710
3 722 839 723
3 723 839 840
3 723 840 724
3 724 840 842
3 726 724 842
3 844 726 842
3 851 726 844
3 854 853 852
3 853 846 852
3 846 728 852
3 846 713 728
3 848 729 717
3 729 848 720
3 851 731 726
3 855 731 851
3 854 852 732
3 733 854 732
3 856 854 733
3 732 852 728
3 858 857 736
3 736 857 735
3 859 736 737
3 859 858 736
3 860 737 739
3 860 859 737
3 739 740 860
3 860 740 861
3 864 863 862
3 742 743 862
3 743 864 862
3 743 865 864
3 866 743 744
3 866 865 743
3 744 735 857
3 744 857 866
3 745 861 740
3 745 867 861
3 869 868 748
3 748 868 747
3 749 862 863
3 869 749 863
3 748 749 869
3 862 749 742
3 870 867 745
3 870 745 750
3 750 751 870
3 870 751 871
3 874 873 872
3 868 874 872
3 752 868 872
3 747 868 752
3 875 871 751
3 875 751 753
3 753 754 875
3 875 754 876
3 879 878 877
3 879 877 873
3 873 877 872
3 877 755 872
3 755 756 872
3 872 756 752
3 757 876 754
3 757 880 876
3 877 878 760
3 878 759 760
3 878 881 759
3 877 760 755
3 761 880 757
3 761 882 880
3 884 883 764
3 764 883 763
3 764 759 881
3 764 881 884
3 761 765 885
3 886 761 885
3 882 761 886
3 766 885 765
3 888 887 769
3 769 887 768
3 769 763 883
3 769 883 888
3 889 886 885
3 889 885 766
3 770 889 766
3 890 889 770
3 770 771 890
3 890 771 891
3 887 772 768
3 892 772 887
3 893 891 771
3 893 771 773
3 773 774 893
3 893 774 894
3 896 895 777
3 777 895 776
3 777 772 892
3 777 892 896
3 778 894 774
3 778 897 894
3 898 780 781
3 899 898 781
3 776 899 781
3 895 899 776
3 900 897 778
3 900 778 782
3 782 783 900
3 900 783 901
3 898 785 780
3 903 902 786
3 903 786 785
3 899 903 785
3 898 899 785
3 904 902 903
3 905 901 783
3 905 783 787
3 787 788 905
3 905 788 906
3 907 789 902
3 902 789 786
3 902 904 908
3 902 908 907
3 909 906 788
3 909 788 790
3 790 791 909
3 909 791 910
3 907 792 789
3 793 792 907
3 908 793 907
3 911 793 908
3 912 910 791
3 912 791 794
3 794 795 912
3 912 795 913
3 915 796 914
3 796 911 914
3 796 793 911
3 916 915 914
3 917 913 795
3 917 795 797
3 797 798 917
3 917 798 918
3 915 799 796
3 801 799 915
3 916 801 915
3 919 801 916
3 922 921 920
3 924 923 920
3 924 920 921
3 926 925 923
3 926 923 924
3 927 925 926
3 928 918 798
3 928 798 802
3 930 804 929
3 804 919 929
3 804 801 919
3 931 930 929
3 934 933 932
3 932 933 922
3 920 932 922
3 935 932 920
3 807 935 806
3 935 923 806
3 935 920 923
3 806 923 808
3 923 936 808
3 923 925 936
3 925 927 937
3 925 937 936
3 930 810 804
3 939 938 811
3 939 811 810
3 931 939 810
3 930 931 810
3 940 938 939
3 943 942 941
3 941 942 934
3 941 934 932
3 814 941 932
3 813 814 932
3 813 932 816
3 816 932 935
3 816 935 807
3 944 818 936
3 936 818 808
3 936 937 945
3 946 936 945
3 944 936 946
3 947 946 945
3 950 949 948
3 819 820 948
3 949 819 948
3 951 819 949
3 938 822 811
3 953 952 823
3 953 823 822
3 940 953 822
3 938 940 822
3 954 952 953
3 957 956 955
3 825 826 955
3 956 825 955
3 958 825 956
3 941 828 943
3 828 958 943
3 828 825 958
3 828 941 814
3 959 829 944
3 944 829 818
3 960 944 946
3 959 944 960
3 946 947 961
3 962 946 961
3 960 946 962
3 963 962 961
3 966 965 964
3 964 965 950
3 964 950 948
3 831 964 948
3 830 831 948
3 830 948 820
3 952 833 823
3 968 967 834
3 968 834 833
3 954 968 833
3 952 954 833
3 970 969 967
3 970 967 968
3 972 971 969
3 972 969 970
3 971 972 957
3 971 957 955
3 837 971 955
3 836 837 955
3 836 955 826
3 959 838 829
3 838 959 841
3 841 959 960
3 841 960 843
3 843 960 962
3 974 973 844
3 974 844 843
3 963 974 843
3 962 963 843
3 975 973 974
3 978 977 976
3 976 977 966
3 976 966 964
3 846 976 964
3 845 846 964
3 845 964 831
3 967 847 834
3 847 967 849
3 849 967 969
3 849 969 850
3 850 969 971
3 850 971 837
3 979 851 973
3 973 851 844
3 973 975 980
3 981 973 980
3 979 973 981
3 981 980 978
3 981 978 976
3 854 981 976
3 853 854 976
3 853 976 846
3 982 855 979
3 979 855 851
3 983 979 981
3 982 979 983
3 856 983 854
3 854 983 981
3 986 985 984
3 988 987 984
3 984 987 986
3 857 858 988
3 858 987 988
3 858 989 987
3 990 858 859
3 990 989 858
3 991 859 860
3 991 990 859
3 860 861 991
3 991 861 992
3 994 993 864
3 864 993 863
3 865 984 985
3 994 865 985
3 864 865 994
3 984 865 866
3 984 866 988
3 988 866 857
3 867 992 861
3 867 995 992
3 998 997 996
3 868 869 996
3 869 998 996
3 869 999 998
3 869 863 993
3 869 993 999
3 1000 995 867
3 1000 867 870
3 870 871 1000
3 1000 871 1001
3 996 997 874
3 997 873 874
3 997 1002 873
3 996 874 868
3 871 875 1003
3 1004 871 1003
3 1001 871 1004
3 876 1003 875
3 1006 1005 879
3 879 1005 878
3 879 873 1002
3 879 1002 1006
3 1004 1003 1007
3 1004 1007 1008
3 880 1007 876
3 876 1007 1003
3 1011 1010 1009
3 1005 1011 1009
3 881 1005 1009
3 878 1005 881
3 1008 1007 1012
3 1008 1012 1013
3 882 1012 880
3 880 1012 1007
3 1009 1010 884
3 1010 883 884
3 1010 1014 883
3 1009 884 881
3 1013 1012 1015
3 1013 1015 1016
3 886 1015 882
3 882 1015 1012
3 1018 1017 888
3 888 1017 887
3 888 883 1014
3 888 1014 1018
3 1016 1015 1019
3 1016 1019 1020
3 889 1021 886
3 1021 1015 886
3 1021 1019 1015
3 890 1022 889
3 889 1022 1021
3 891 1022 890
3 1017 892 887
3 1023 892 1017
3 1020 1019 1024
3 1020 1024 1025
3 1021 1027 1026
3 1024 1021 1026
3 1019 1021 1024
3 1027 1021 1022
3 1027 1022 1028
3 1028 1022 891
3 893 1028 891
3 1029 1028 893
3 893 894 1029
3 1029 894 1030
3 1031 895 896
3 1032 1031 896
3 892 1032 896
3 1023 1032 892
3 1025 1024 1033
3 1025 1033 1034
3 1024 1026 1035
3 1024 1035 1033
3 897 1030 894
3 897 1036 1030
3 1037 899 1031
3 1031 899 895
3 1031 1032 1038
3 1031 1038 1037
3 1034 1033 1039
3 1034 1039 1040
3 1033 1035 1041
3 1033 1041 1039
3 1042 1036 897
3 1042 897 900
3 900 901 1042
3 1042 901 1043
3 1037 903 899
3 904 903 1037
3 1038 904 1037
3 1044 904 1038
3 1040 1039 1045
3 1040 1045 1046
3 1039 1041 1047
3 1039 1047 1045
3 1048 1043 901
3 1048 901 905
3 905 906 1048
3 1048 906 1049
3 1051 908 1050
3 908 1044 1050
3 908 904 1044
3 1052 1051 1050
3 1046 1045 1053
3 1046 1053 1054
3 1045 1047 1055
3 1056 1045 1055
3 1053 1045 1056
3 1057 1056 1055
3 1058 1049 906
3 1058 906 909
3 909 910 1058
3 1058 910 1059
3 1060 911 1051
3 1051 911 908
3 1051 1052 1061
3 1051 1061 1060
3 1054 1053 1062
3 1054 1062 1063
3 1064 1053 1056
3 1062 1053 1064
3 1056 1057 1065
3 1056 1065 1064
3 1066 1059 910
3 1066 910 912
3 912 913 1066
3 1066 913 1067
3 1060 914 911
3 916 914 1060
3 1061 916 1060
3 1068 916 1061
3 1071 1070 1069
3 1069 1070 1063
3 1062 1069 1063
3 1072 1069 1062
3 1073 1062 1064
3 1072 1062 1073
3 1064 1065 1074
3 1064 1074 1073
3 1075 1067 913
3 1075 913 917
3 917 918 1075
3 1075 918 1076
3 1078 919 1077
3 919 1068 1077
3 919 916 1068
3 1079 1078 1077
3 1082 1081 1080
3 1084 1083 1080
3 1084 1080 1081
3 1083 1084 1071
3 1083 1071 1069
3 922 1083 1069
3 921 922 1069
3 921 1069 924
3 924 1069 1072
3 924 1072 926
3 926 1072 1073
3 1086 1085 927
3 1086 927 926
3 1074 1086 926
3 1073 1074 926
3 1087 1085 1086
3 1088 1076 918
3 1088 918 928
3 1078 929 919
3 1090 1089 931
3 1090 931 929
3 1079 1090 929
3 1078 1079 929
3 1092 1091 1089
3 1092 1089 1090
3 1093 1091 1092
3 1082 1080 1094
3 1082 1094 1095
3 934 1094 933
3 1094 1083 933
3 1094 1080 1083
3 933 1083 922
3 1096 937 1085
3 1085 937 927
3 1085 1087 1097
3 1098 1085 1097
3 1096 1085 1098
3 1099 1098 1097
3 1102 1101 1100
3 1104 1103 1100
3 1104 1100 1101
3 1089 939 931
3 939 1089 940
3 1089 1105 940
3 1089 1091 1105
3 1091 1093 1106
3 1107 1091 1106
3 1105 1091 1107
3 1108 1107 1106
3 1111 1110 1109
3 1109 1110 1095
3 1109 1095 1094
3 943 1109 1094
3 942 943 1094
3 942 1094 934
3 1096 945 937
3 945 1096 947
3 1096 1112 947
3 1096 1098 1112
3 1098 1099 1113
3 1114 1098 1113
3 1112 1098 1114
3 1115 1114 1113
3 1118 1117 1116
3 1116 1117 1102
3 1116 1102 1100
3 950 1116 1100
3 949 950 1100
3 949 1100 951
3 951 1100 1103
3 1105 953 940
3 953 1105 954
3 1105 1119 954
3 1105 1107 1119
3 1107 1108 1120
3 1121 1107 1120
3 1119 1107 1121
3 1123 1122 1121
3 1123 1121 1120
3 956 957 1122
3 1123 956 1122
3 1124 956 1123
3 1109 958 1111
3 958 1124 1111
3 958 956 1124
3 958 1109 943
3 1112 961 947
3 961 1112 963
3 1112 1125 963
3 1112 1114 1125
3 1114 1115 1126
3 1127 1114 1126
3 1125 1114 1127
3 1129 1128 1127
3 1129 1127 1126
3 1128 1129 1118
3 1128 1118 1116
3 966 1128 1116
3 965 966 1116
3 965 1116 950
3 1119 968 954
3 968 1119 970
3 970 1119 1121
3 970 1121 972
3 972 1121 1122
3 972 1122 957
3 1125 974 963
3 974 1125 975
3 1125 1130 975
3 1125 1127 1130
3 978 1130 977
3 1130 1128 977
3 1130 1127 1128
3 977 1128 966
3 1130 980 975
3 980 1130 978
3 1131 985 986
3 987 1132 986
3 986 1132 1131
3 989 1133 987
3 987 1133 1132
3 990 1134 989
3 989 1134 1133
3 991 1135 990
3 990 1135 1134
3 992 1135 991
3 1136 993 994
3 1137 1136 994
3 1137 994 985
3 1138 1137 985
3 1131 1138 985
3 1138 1131 1132
3 1138 1132 1139
3 1141 1140 1139
3 1132 1141 1139
3 1133 1141 1132
3 1142 1133 1134
3 1141 1133 1142
3 1143 1134 1135
3 1142 1134 1143
3 995 1143 992
3 992 1143 1135
3 1144 997 998
3 1144 998 1145
3 998 1146 1145
3 998 999 1146
3 999 993 1136
3 1147 999 1136
3 1146 999 1147
3 1147 1136 1137
3 1150 1149 1148
3 1148 1149 1140
3 1141 1148 1140
3 1151 1148 1141
3 1152 1141 1142
3 1151 1141 1152
3 1153 1142 1143
3 1152 1142 1153
3 1000 1154 995
3 1154 1143 995
3 1154 1153 1143
3 1001 1154 1000
3 1156 1155 1144
3 1155 997 1144
3 1155 1002 997
3 1156 1144 1145
3 1159 1158 1157
3 1161 1160 1157
3 1161 1157 1158
3 1160 1161 1150
3 1148 1160 1150
3 1162 1160 1148
3 1163 1148 1151
3 1162 1148 1163
3 1164 1151 1152
3 1163 1151 1164
3 1165 1152 1153
3 1164 1152 1165
3 1166 1153 1154
3 1165 1153 1166
3 1004 1166 1001
3 1001 1166 1154
3 1168 1167 1006
3 1006 1167 1005
3 1006 1002 1155
3 1006 1155 1168
3 1171 1170 1169
3 1169 1170 1159
3 1157 1169 1159
3 1172 1169 1157
3 1173 1157 1160
3 1172 1157 1173
3 1174 1160 1162
3 1173 1160 1174
3 1175 1162 1163
3 1174 1162 1175
3 1176 1163 1164
3 1175 1163 1176
3 1177 1164 1165
3 1176 1164 1177
3 1178 1165 1166
3 1177 1165 1178
3 1008 1178 1004
3 1004 1178 1166
3 1179 1010 1011
3 1180 1179 1011
3 1005 1180 1011
3 1167 1180 1005
3 1171 1169 1181
3 1171 1181 1182
3 1183 1169 1172
3 1181 1169 1183
3 1184 1172 1173
3 1183 1172 1184
3 1185 1173 1174
3 1184 1173 1185
3 1186 1174 1175
3 1185 1174 1186
3 1187 1175 1176
3 1186 1175 1187
3 1188 1176 1177
3 1187 1176 1188
3 1189 1177 1178
3 1188 1177 1189
3 1013 1189 1008
3 1008 1189 1178
3 1190 1014 1179
3 1179 1014 1010
3 1179 1180 1191
3 1192 1179 1191
3 1190 1179 1192
3 1194 1193 1192
3 1194 1192 1191
3 1193 1194 1182
3 1181 1193 1182
3 1195 1193 1181
3 1196 1181 1183
3 1195 1181 1196
3 1197 1183 1184
3 1196 1183 1197
3 1198 1184 1185
3 1197 1184 1198
3 1199 1185 1186
3 1198 1185 1199
3 1200 1186 1187
3 1199 1186 1200
3 1201 1187 1188
3 1200 1187 1201
3 1202 1188 1189
3 1201 1188 1202
3 1016 1202 1013
3 1013 1202 1189
3 1203 1017 1018
3 1014 1190 1018
3 1190 1203 1018
3 1190 1204 1203
3 1205 1190 1192
3 1204 1190 1205
3 1206 1192 1193
3 1205 1192 1206
3 1195 1208 1207
3 1206 1195 1207
3 1193 1195 1206
3 1210 1209 1208
3 1195 1210 1208
3 1196 1210 1195
3 1211 1196 1197
3 1210 1196 1211
3 1212 1197 1198
3 1211 1197 1212
3 1213 1198 1199
3 1212 1198 1213
3 1214 1199 1200
3 1213 1199 1214
3 1215 1200 1201
3 1214 1200 1215
3 1216 1201 1202
3 1215 1201 1216
3 1020 1216 1016
3 1016 1216 1202
3 1217 1023 1203
3 1203 1023 1017
3 1218 1203 1204
3 1217 1203 1218
3 1219 1204 1205
3 1218 1204 1219
3 1220 1205 1206
3 1219 1205 1220
3 1206 1207 1221
3 1206 1221 1220
3 1209 1210 1222
3 1209 1222 1223
3 1224 1210 1211
3 1222 1210 1224
3 1225 1211 1212
3 1224 1211 1225
3 1226 1212 1213
3 1225 1212 1226
3 1227 1213 1214
3 1226 1213 1227
3 1228 1214 1215
3 1227 1214 1228
3 1229 1215 1216
3 1228 1215 1229
3 1025 1229 1020
3 1020 1229 1216
3 1230 1026 1027
3 1028 1231 1027
3 1027 1231 1230
3 1231 1028 1232
3 1028 1233 1232
3 1028 1029 1233
3 1029 1030 1233
3 1233 1030 1234
3 1235 1032 1217
3 1217 1032 1023
3 1236 1217 1218
3 1235 1217 1236
3 1219 1238 1237
3 1236 1219 1237
3 1218 1219 1236
3 1238 1219 1220
3 1238 1220 1239
3 1239 1220 1221
3 1223 1222 1240
3 1223 1240 1241
3 1242 1222 1224
3 1240 1222 1242
3 1243 1224 1225
3 1242 1224 1243
3 1244 1225 1226
3 1243 1225 1244
3 1245 1226 1227
3 1244 1226 1245
3 1246 1227 1228
3 1245 1227 1246
3 1247 1228 1229
3 1246 1228 1247
3 1034 1247 1025
3 1025 1247 1229
3 1248 1035 1230
3 1230 1035 1026
3 1231 1250 1249
3 1248 1231 1249
3 1230 1231 1248
3 1250 1231 1232
3 1036 1234 1030
3 1036 1251 1234
3 1252 1038 1235
3 1235 1038 1032
3 1253 1235 1236
3 1252 1235 1253
3 1236 1237 1254
3 1236 1254 1253
3 1241 1240 1255
3 1241 1255 1256
3 1257 1240 1242
3 1255 1240 1257
3 1258 1242 1243
3 1257 1242 1258
3 1259 1243 1244
3 1258 1243 1259
3 1260 1244 1245
3 1259 1244 1260
3 1261 1245 1246
3 1260 1245 1261
3 1262 1246 1247
3 1261 1246 1262
3 1040 1262 1034
3 1034 1262 1247
3 1263 1041 1248
3 1248 1041 1035
3 1248 1249 1264
3 1248 1264 1263
3 1265 1251 1036
3 1265 1036 1042
3 1042 1043 1265
3 1265 1043 1266
3 1267 1044 1252
3 1252 1044 1038
3 1268 1252 1253
3 1267 1252 1268
3 1253 1254 1269
3 1270 1253 1269
3 1268 1253 1270
3 1272 1271 1270
3 1272 1270 1269
3 1274 1273 1271
3 1274 1271 1272
3 1273 1274 1256
3 1255 1273 1256
3 1275 1273 1255
3 1276 1255 1257
3 1275 1255 1276
3 1277 1257 1258
3 1276 1257 1277
3 1278 1258 1259
3 1277 1258 1278
3 1279 1259 1260
3 1278 1259 1279
3 1280 1260 1261
3 1279 1260 1280
3 1281 1261 1262
3 1280 1261 1281
3 1046 1281 1040
3 1040 1281 1262
3 1282 1047 1263
3 1263 1047 1041
3 1263 1264 1283
3 1284 1263 1283
3 1282 1263 1284
3 1285 1284 1283
3 1286 1266 1043
3 1286 1043 1048
3 1048 1049 1286
3 1286 1049 1287
3 1267 1050 1044
3 1050 1267 1052
3 1267 1288 1052
3 1267 1268 1288
3 1289 1268 1270
3 1288 1268 1289
3 1290 1270 1271
3 1289 1270 1290
3 1291 1271 1273
3 1290 1271 1291
3 1292 1273 1275
3 1291 1273 1292
3 1293 1275 1276
3 1292 1275 1293
3 1294 1276 1277
3 1293 1276 1294
3 1295 1277 1278
3 1294 1277 1295
3 1296 1278 1279
3 1295 1278 1296
3 1297 1279 1280
3 1296 1279 1297
3 1298 1280 1281
3 1297 1280 1298
3 1054 1298 1046
3 1046 1298 1281
3 1282 1055 1047
3 1055 1282 1057
3 1282 1299 1057
3 1282 1284 1299
3 1284 1285 1300
3 1284 1300 1299
3 1301 1287 1049
3 1301 1049 1058
3 1058 1059 1301
3 1301 1059 1302
3 1303 1061 1288
3 1288 1061 1052
3 1304 1288 1289
3 1303 1288 1304
3 1305 1289 1290
3 1304 1289 1305
3 1306 1290 1291
3 1305 1290 1306
3 1307 1291 1292
3 1306 1291 1307
3 1308 1292 1293
3 1307 1292 1308
3 1309 1293 1294
3 1308 1293 1309
3 1310 1294 1295
3 1309 1294 1310
3 1311 1295 1296
3 1310 1295 1311
3 1312 1296 1297
3 1311 1296 1312
3 1313 1297 1298
3 1312 1297 1313
3 1063 1313 1054
3 1054 1313 1298
3 1314 1065 1299
3 1299 1065 1057
3 1299 1300 1315
3 1299 1315 1314
3 1316 1302 1059
3 1316 1059 1066
3 1066 1067 1316
3 1316 1067 1317
3 1318 1068 1303
3 1303 1068 1061
3 1319 1303 1304
3 1318 1303 1319
3 1305 1321 1320
3 1319 1305 1320
3 1304 1305 1319
3 1321 1305 1306
3 1321 1306 1322
3 1324 1323 1322
3 1306 1324 1322
3 1307 1324 1306
3 1325 1307 1308
3 1324 1307 1325
3 1326 1308 1309
3 1325 1308 1326
3 1327 1309 1310
3 1326 1309 1327
3 1328 1310 1311
3 1327 1310 1328
3 1329 1311 1312
3 1328 1311 1329
3 1071 1329 1070
3 1329 1313 1070
3 1329 1312 1313
3 1070 1313 1063
3 1330 1074 1314
3 1314 1074 1065
3 1314 1315 1331
3 1332 1314 1331
3 1330 1314 1332
3 1333 1332 1331
3 1334 1317 1067
3 1334 1067 1075
3 1075 1076 1334
3 1334 1076 1335
3 1318 1077 1068
3 1077 1318 1079
3 1318 1336 1079
3 1318 1319 1336
3 1319 1320 1337
3 1319 1337 1336
3 1323 1324 1338
3 1323 1338 1339
3 1340 1324 1325
3 1338 1324 1340
3 1341 1325 1326
3 1340 1325 1341
3 1342 1326 1327
3 1341 1326 1342
3 1082 1342 1081
3 1342 1328 1081
3 1342 1327 1328
3 1081 1328 1084
3 1084 1328 1329
3 1084 1329 1071
3 1330 1086 1074
3 1086 1330 1087
3 1330 1343 1087
3 1330 1332 1343
3 1332 1333 1344
3 1345 1332 1344
3 1343 1332 1345
3 1346 1345 1344
3 1349 1348 1347
3 1350 1347 1088
3 1347 1335 1088
3 1335 1076 1088
3 1335 1347 1348
3 1336 1090 1079
3 1337 1351 1336
3 1351 1090 1336
3 1351 1092 1090
3 1093 1092 1351
3 1093 1351 1352
3 1353 1339 1338
3 1353 1338 1340
3 1353 1340 1354
3 1356 1355 1354
3 1340 1356 1354
3 1341 1356 1340
3 1357 1341 1342
3 1356 1341 1357
3 1095 1357 1082
3 1082 1357 1342
3 1343 1097 1087
3 1097 1343 1099
3 1343 1358 1099
3 1343 1345 1358
3 1345 1346 1359
3 1345 1359 1358
3 1362 1361 1360
3 1360 1361 1349
3 1360 1349 1347
3 1102 1360 1347
3 1101 1102 1347
3 1101 1347 1104
3 1104 1347 1350
3 1352 1363 1093
3 1093 1363 1106
3 1365 1364 1108
3 1106 1365 1108
3 1363 1365 1106
3 1367 1366 1364
3 1367 1364 1365
3 1366 1367 1355
3 1356 1366 1355
3 1368 1366 1356
3 1111 1368 1110
3 1368 1357 1110
3 1368 1356 1357
3 1110 1357 1095
3 1358 1113 1099
3 1370 1369 1115
3 1370 1115 1113
3 1359 1370 1113
3 1358 1359 1113
3 1372 1371 1369
3 1372 1369 1370
3 1371 1372 1362
3 1371 1362 1360
3 1118 1371 1360
3 1117 1118 1360
3 1117 1360 1102
3 1364 1120 1108
3 1120 1364 1123
3 1123 1364 1366
3 1123 1366 1124
3 1124 1366 1368
3 1124 1368 1111
3 1369 1126 1115
3 1126 1369 1129
3 1129 1369 1371
3 1129 1371 1118
3 1373 1137 1138
3 1139 1374 1138
3 1138 1374 1373
3 1140 1374 1139
3 1375 1145 1146
3 1147 1376 1146
3 1146 1376 1375
3 1137 1373 1147
3 1373 1376 1147
3 1373 1377 1376
3 1150 1377 1149
3 1377 1374 1149
3 1377 1373 1374
3 1149 1374 1140
3 1378 1155 1156
3 1145 1375 1156
3 1375 1378 1156
3 1375 1379 1378
3 1159 1379 1158
3 1379 1376 1158
3 1379 1375 1376
3 1158 1376 1161
3 1161 1376 1377
3 1161 1377 1150
3 1380 1167 1168
3 1155 1378 1168
3 1378 1380 1168
3 1378 1381 1380
3 1171 1381 1170
3 1381 1379 1170
3 1381 1378 1379
3 1170 1379 1159
3 1382 1180 1380
3 1380 1180 1167
3 1383 1380 1381
3 1382 1380 1383
3 1182 1383 1171
3 1171 1383 1381
3 1382 1191 1180
3 1191 1382 1194
3 1194 1382 1383
3 1194 1383 1182
3 1384 1207 1208
3 1209 1384 1208
3 1385 1221 1384
3 1384 1221 1207
3 1223 1385 1209
3 1209 1385 1384
3 1386 1232 1233
3 1234 1386 1233
3 1387 1237 1238
3 1239 1388 1238
3 1238 1388 1387
3 1221 1385 1239
3 1385 1388 1239
3 1385 1389 1388
3 1241 1389 1223
3 1223 1389 1385
3 1390 1249 1250
3 1232 1386 1250
3 1386 1390 1250
3 1386 1391 1390
3 1251 1391 1234
3 1234 1391 1386
3 1392 1254 1387
3 1387 1254 1237
3 1393 1387 1388
3 1392 1387 1393
3 1394 1388 1389
3 1393 1388 1394
3 1256 1394 1241
3 1241 1394 1389
3 1395 1264 1390
3 1390 1264 1249
3 1396 1390 1391
3 1395 1390 1396
3 1396 1391 1251
3 1397 1396 1251
3 1265 1397 1251
3 1398 1396 1397
3 1265 1266 1397
3 1397 1266 1399
3 1392 1269 1254
3 1269 1392 1272
3 1272 1392 1393
3 1272 1393 1274
3 1274 1393 1394
3 1274 1394 1256
3 1395 1283 1264
3 1283 1395 1285
3 1395 1400 1285
3 1395 1396 1400
3 1396 1398 1401
3 1402 1396 1401
3 1400 1396 1402
3 1404 1403 1286
3 1403 1405 1286
3 1402 1286 1405
3 1286 1402 1266
3 1401 1266 1402
3 1266 1401 1403
3 1403 1399 1266
3 1404 1399 1403
3 1403 1401 1405
3 1286 1287 1404
3 1404 1287 1406
3 1407 1300 1400
3 1400 1300 1285
3 1408 1400 1402
3 1407 1400 1408
3 1402 1405 1409
3 1402 1409 1408
3 1410 1406 1287
3 1410 1287 1301
3 1301 1302 1410
3 1410 1302 1411
3 1412 1315 1407
3 1407 1315 1300
3 1413 1407 1408
3 1412 1407 1413
3 1408 1409 1414
3 1408 1414 1413
3 1302 1316 1415
3 1416 1302 1415
3 1411 1302 1416
3 1317 1415 1316
3 1417 1320 1321
3 1322 1418 1321
3 1321 1418 1417
3 1323 1418 1322
3 1412 1331 1315
3 1331 1412 1333
3 1412 1419 1333
3 1412 1413 1419
3 1413 1414 1420
3 1421 1413 1420
3 1419 1413 1421
3 1422 1421 1420
3 1416 1415 1423
3 1416 1423 1424
3 1334 1425 1317
3 1425 1415 1317
3 1425 1423 1415
3 1335 1425 1334
3 1426 1337 1417
3 1417 1337 1320
3 1427 1417 1418
3 1426 1417 1427
3 1339 1427 1323
3 1323 1427 1418
3 1419 1344 1333
3 1344 1419 1346
3 1419 1428 1346
3 1419 1421 1428
3 1421 1422 1429
3 1430 1421 1429
3 1428 1421 1430
3 1430 1429 1424
3 1423 1430 1424
3 1431 1430 1423
3 1349 1431 1348
3 1431 1425 1348
3 1431 1423 1425
3 1348 1425 1335
3 1426 1351 1337
3 1351 1426 1352
3 1426 1432 1352
3 1426 1427 1432
3 1353 1433 1339
3 1433 1427 1339
3 1433 1432 1427
3 1354 1434 1353
3 1353 1434 1433
3 1355 1434 1354
3 1435 1359 1428
3 1428 1359 1346
3 1436 1428 1430
3 1435 1428 1436
3 1362 1436 1361
3 1436 1431 1361
3 1436 1430 1431
3 1361 1431 1349
3 1432 1363 1352
3 1363 1432 1365
3 1365 1432 1433
3 1365 1433 1367
3 1367 1433 1434
3 1367 1434 1355
3 1435 1370 1359
3 1370 1435 1372
3 1372 1435 1436
3 1372 1436 1362