OFF
1288 2564 0
1.1491463282 8.0937957692 21.6798677115
1.3331322993 7.9178849119 20.8112867108
1.6740648781 7.3531997908 21.2526511195
1.5570802750 7.3949238447 22.2620080096
1.1863517857 7.9950509829 22.6715354894
1.5507232752 7.4942196905 23.1360279700
1.2889773278 7.9885374881 23.3160571647
1.5660446965 7.7630570927 23.6956024130
1.1113749337 9.0001805392 19.7904345952
1.2642885444 9.1734396336 19.0876611599
1.4576672728 8.6145909505 19.2915989373
1.4636990922 8.1482943555 20.0030232045
1.0109467921 8.7306242456 20.7888800516
0.8701285236 8.9268084040 21.6860112742
0.9537260232 8.7459513635 22.4210260818
1.1303750034 8.5989112405 23.1858792207
1.4247193194 8.3627465978 23.7868997089
0.9620216247 9.9257417161 19.3907086855
1.3026048684 9.6767408533 18.5513070175
0.8433306908 9.7314655234 20.4065520267
0.7994848810 9.6595947764 21.3692204685
0.8568109538 9.6077781721 22.2505114436
1.0696503384 9.4821733073 23.0537199527
1.3896358273 9.2298731901 23.7668098502
1.1958595024 10.9515787910 17.6854494263
1.3787722686 11.1781397049 17.1286232483
1.4966265913 10.6779083170 17.2172560102
1.4516673894 10.1558107531 17.7880046392
1.0261599027 10.6385393453 18.5587851820
0.8260036204 10.8168303763 19.3899840895
0.7926244843 10.6655484064 20.1328464607
0.8053600410 10.5916648943 21.0799011486
0.8828243628 10.4959354155 22.0251901247
1.0831773063 10.3969537793 22.8652535484
1.5244561425 10.3438245592 23.6852674928
1.1979421686 11.6178950074 17.4665021150
1.5026372291 11.7050530792 16.8959346674
1.0183225376 11.5367437684 18.2052705788
0.8919293964 11.4859376421 19.0783787724
0.8198799739 11.3653943731 19.8271986370
0.9192259855 11.5761837729 20.6867057051
1.0312989328 11.4056737084 21.7490929558
1.1990882368 11.2363808052 22.6293202025
1.4625231025 11.0869003178 23.2885337431
1.3519977818 12.1272520734 17.2747879257
1.1879143977 12.1881387494 17.8693628502
1.4700073842 12.5893753844 17.5023772235
1.0940142867 12.2422993474 18.7230927347
1.0262802759 12.1714498985 19.7785448802
1.1508218751 12.3971069434 20.6144381385
1.2609490609 12.2606747389 21.3993091214
1.5270566164 12.1330905911 22.3931946478
1.6489402296 11.7152327856 23.1208801588
1.4374255118 12.8226885619 18.1993359828
1.4293666872 12.9990255919 19.2383900056
1.3229156098 12.8445406909 20.1458585237
1.6683397857 7.5597179113 20.4917565778
2.0449198947 7.4829728882 19.9241568207
2.0332321711 7.1583547565 20.5986082957
2.2202196732 6.8658341474 21.1039891404
2.1084411129 6.8489458624 21.9214722840
2.0514103646 6.9329960101 22.8901468434
2.0564544095 7.2527670657 23.8534436002
1.8392131093 7.9881595416 24.2371434710
2.2977350164 7.5997819397 24.6478221673
1.6885941372 8.9048046362 18.5838795793
1.9196700551 8.1207050277 19.1614081534
1.7737801929 8.8312904501 24.3603418318
2.2233437964 8.3740594054 24.8943930969
1.6450421601 9.4766584691 18.0628124548
1.8532245650 9.6481782488 17.5837462521
1.9768477048 9.1388137612 17.9061031196
1.8679291338 9.8143660934 24.3703827763
2.2375237059 9.3343654168 24.9535388798
1.7887031955 11.0431086969 16.6418395638
1.8722110907 10.2016205994 17.0727562022
2.0838570503 10.6888396187 24.3202097079
2.5489551466 10.4202344482 25.0002600927
1.8944454047 11.8518372266 16.3322504451
2.2930462722 12.1096963896 15.7576644550
2.2005364209 11.3820138042 15.9818268280
2.5318053894 11.1866453993 24.5496895213
2.2126340749 11.5766892392 23.8836197128
2.0636824666 12.4582118627 16.2042394954
2.3590515437 12.7788106330 15.8643952131
1.7291173496 12.4436831367 16.8393659833
1.4881381734 12.9445274209 20.8882915032
1.7570016972 12.9508862993 21.7986501978
2.0149383190 12.8238943563 22.5429833561
2.1366326786 12.4023528803 23.1383285698
2.2020520202 13.0719363511 16.4971331477
1.9142507080 13.2086139618 17.4827765275
1.8325380978 13.4681566913 18.4867969663
1.8569921678 13.6439693193 19.2345556182
2.1688724402 13.9773140786 18.8262044314
1.7541976262 13.4907310456 20.1084292274
1.9222184484 13.5268731534 21.0905646444
2.1298056831 13.5508177001 21.7429833712
2.1959323612 13.3141212197 22.2519938903
2.2217174116 14.1091553994 19.5848673144
2.2699877415 14.0930767624 20.5502721154
2.3203421348 13.9605684467 21.3426932165
2.7115114002 6.7460068032 20.2865217099
3.1294187113 6.7600485329 19.3781929778
3.5679584736 6.2297837135 19.7775702679
3.5055889915 5.9008650250 20.9167360002
2.7224500021 6.4092360541 21.4712607026
3.2744024791 5.8675443774 22.0586141707
2.6442489799 6.3819450446 22.5085555596
3.2064287563 5.8963010524 23.0952696988
2.6344141404 6.5139927464 23.5376587172
3.2387612348 6.0185418708 24.1341460884
2.7553348299 6.8417298214 24.6231605858
3.3661416806 6.2068249078 25.1078651331
3.1091969370 6.8615582693 25.4441860357
3.4905176876 6.5085770329 25.8350647776
2.9489143710 7.6615923322 18.1650729630
3.3418423027 7.6108742492 17.6221535628
3.3111036314 7.2584112992 18.1441989585
3.2198079497 7.0461136633 18.6599547589
2.6083997251 7.4252276109 19.1067705730
2.7982265764 7.7652683845 25.4837668360
3.3168914288 7.2120119486 26.0898516185
2.9281024383 8.4009172045 17.2922535585
3.3350753433 8.4933070972 16.5829060246
3.3399032683 8.0160496719 17.0990849200
2.3424366454 8.4063860236 18.1869332221
2.6405793269 8.8972528601 25.5237555513
3.2249045248 7.9383195011 26.2653494113
3.1116364423 8.6597543235 26.1665998068
3.4824755939 8.4337772844 26.6804508047
2.9366004874 9.3508873909 16.3177598058
3.3384126867 9.4915418301 15.6019179780
3.3237188126 8.9885706435 16.0710401048
2.3298413600 9.3604471286 17.1996965770
2.6401877763 9.6999282877 25.4498656316
3.0735023618 9.6185337056 26.0278187735
3.7049641622 9.3406687950 26.7787452691
3.0026827494 10.2747889185 15.4848954081
3.3623356583 10.7821342028 14.6740179211
3.3484449456 10.0520918274 15.1313120329
2.3976258410 10.4403005119 16.2284217110
2.9062693448 10.1952977841 25.6376342234
3.2583826454 10.3338217549 25.9969669519
3.5431434268 10.1119495694 26.3868325571
2.7489330684 11.5028041938 15.2292699387
3.2083286589 11.7623290379 14.3885120524
2.7566579634 11.6250602472 24.4659808250
3.2525981599 11.4916946866 24.9951735685
3.2055916493 10.7939411695 25.6004600034
3.0615338237 12.5643856778 14.4869631876
3.4918110323 12.8627304522 13.7689295373
3.3280537974 12.2309065027 14.0466914267
2.6653839871 12.6684699932 15.2881118603
2.6146416581 13.3049084333 22.8788361134
3.0197184586 12.7906744349 23.7026090781
3.1466259344 12.1301138942 24.3577123198
3.2378165972 13.3753141018 14.2448357832
3.5036150821 13.7766422061 13.8943077762
2.9980542766 13.4446805808 14.9070308234
2.7009713888 13.5306962171 15.8601611257
2.5754390247 13.9278503118 17.0117314876
2.3269038881 13.9705705944 18.0633857992
2.5960782577 13.9274317983 22.0759700612
3.1090828152 14.0994216251 22.7530435586
3.4170751609 13.7539729227 23.3134532207
3.3332966404 14.1184501653 14.5329399522
3.1624123647 14.2859440487 15.4245070935
3.0416405118 14.4427964447 16.3890728829
3.0094416805 14.6324494407 17.1620961808
2.8312346999 14.5681583212 17.8485425520
3.1975754776 15.0603027985 17.6548426231
2.6611559711 14.5628149960 18.8636518736
2.7375955547 14.6840164683 19.9955585574
2.8410411035 14.5711739576 21.1629834791
3.1996103227 14.5938891667 22.1357571686
3.4713233140 14.5821964412 22.7052203468
3.6003040561 14.3437931738 23.0628681860
3.1755214332 15.1781978920 18.4132560696
3.2143860131 15.2660019571 19.3804633174
3.3647733373 15.2804515298 20.4242411022
3.6633317997 15.2252491814 21.4850052188
3.8083179872 14.9910479588 22.3733531434
4.5326566955 3.6794133150 13.0158173148
4.5720452269 3.8027042631 12.5135657315
4.6727422756 3.3414140799 12.7625833109
4.7050993228 3.3130062853 13.1857299369
4.5035900850 4.0823297940 12.8696371044
4.5755149595 4.3350061727 12.5138091017
4.6834031854 3.6492371048 13.4295362887
4.6251331489 4.0925094242 13.2982646251
5.0183250838 3.9964725914 13.7919593142
4.4115341168 5.8360680327 6.8074262575
4.6077925733 5.8388260628 6.1282314254
4.5892172865 5.4224410958 6.6580263156
4.5981567150 5.3331027116 7.1612474811
4.4296454339 5.7816471815 7.3589456146
4.5930275111 5.4915680585 7.7635050883
4.5718178286 5.3423567195 10.6658854553
4.6414038822 5.4776360305 10.5251431310
4.6331333226 5.1952665877 10.5343877135
4.6229279423 5.2203448962 10.8331522655
4.6607844024 4.5742798949 12.9852150029
4.9000289797 4.5863254120 13.5059231291
3.8944238266 5.3675629336 21.7193272388
4.2721900396 5.2346643958 21.0145565404
4.3312516366 5.0208684818 21.5768565760
4.3308565030 4.9277675253 22.1821844640
3.7795246409 5.3647266648 22.6372605010
4.3113830993 4.8687768265 23.1526007349
3.7682971653 5.3897370119 23.6568165880
4.3561779404 4.8683983454 24.1995052487
3.8410158670 5.4948864438 24.7197840523
4.5330702836 4.9165629369 25.3604210697
3.9683883063 5.7987681635 25.8300822385
4.6564234006 5.2246520139 26.4295311066
4.2989000244 5.8582431573 26.6655807696
4.7648164609 5.5670737733 27.1268215393
4.3632111191 6.5744252783 6.4060812130
4.4609969292 6.5503925866 5.7716640707
4.4045485943 6.3866663397 7.1967916299
4.5439505935 6.0911997999 7.8717521908
4.6311985018 5.5027143390 10.8239076830
3.7921811012 6.8700676480 18.1080530874
4.3441414104 6.8143347223 17.4293617280
4.4720894962 6.3543420959 18.0367939161
4.3212908733 6.0235718376 18.9306964482
3.5944890490 6.5444695172 18.9896591879
4.2346550147 5.5966466587 20.0830974514
3.8989076313 6.6888820299 26.6539683466
4.4685008446 6.2281140411 27.2713013387
4.4205368826 7.0865363122 5.8113272300
4.6241137281 7.4220662353 5.3469945470
4.5573535867 6.9414107307 5.3586962596
4.4107931707 7.2615329455 6.2946188977
4.4665346319 7.1138527817 6.9078246923
4.7260007626 6.9563161592 7.7806172617
3.8324081805 7.6396075215 16.9348423936
4.2205051911 7.8357180032 16.1301601295
4.6462018976 7.0872675154 16.5452120044
3.6229089050 7.7124379907 26.7364232762
4.2950257097 6.8939523634 27.3930315055
4.1071008803 7.5620875378 27.3005855660
4.5099234776 7.3694982092 27.7641173888
4.6096066931 7.6602313030 5.8453254719
4.6459467092 7.7032422658 6.5228427999
4.7626402764 7.5767994931 7.1476137473
3.7603115477 8.6311957401 15.8695985514
4.1125898314 8.8272005518 15.1617007317
4.2555436649 8.2686352690 15.5445693944
3.9754856235 8.5094879780 27.2194684353
4.6231681558 8.2083932231 27.8032111798
3.7697037586 9.6529985856 14.9059364904
4.1733105090 9.7810900389 14.2184446831
4.2418020995 9.2058577431 14.5998433151
4.1328038718 9.1749736835 27.2786797774
4.4841352498 8.9877203405 27.5588169330
3.9198033793 10.5214746602 14.0783975121
4.2553216754 11.0257288285 13.3405210477
4.3598654825 10.2049581325 13.6615901833
3.7476406944 10.7959508760 26.1616704600
4.1205102517 10.3095038416 26.7272754368
4.5399400637 9.7036682140 27.2903879874
3.6875549140 11.7019343581 13.7757076148
4.1619206217 11.8300656736 13.0970206254
3.7129057190 11.3058856024 25.6705590376
4.1701588429 11.3585866949 26.0016681787
4.4341827745 11.0244341692 26.4547602395
3.9766987165 12.5876936101 13.1423655799
4.4013442877 13.1029570751 12.5820818254
4.3875015997 12.2868615099 12.6964988703
3.7401476636 12.7854961101 24.2108616797
3.9961394015 12.3386378336 24.7222025672
4.3117208472 11.8307528603 25.4514642594
4.7621798845 11.5282535547 26.0819741682
3.9173920776 13.7215838586 13.2473275171
4.4526412381 14.1433175206 12.5724245670
4.5609838331 13.0545024115 24.2868077152
3.9972416006 13.4685064008 23.8075399257
4.1428665802 14.7936637458 13.1958924956
4.5106569604 14.9769794513 12.6932849049
3.7473986742 14.7037212423 14.0294329002
3.5439403277 14.9781026197 15.0726233849
3.4317687874 15.0954838676 16.0645581065
3.3391132839 15.1396301626 16.9877648497
3.8987890090 14.7338661560 22.8986241668
4.3109206975 14.4074103339 23.3047396269
4.3653626855 15.4450720292 13.1299839607
4.1539473610 15.6483669405 13.8235884638
4.4785638089 15.9555651502 13.3842321342
3.9274453612 15.6985733437 14.7777732749
3.8118927301 15.7896942521 15.7895505186
3.7275611430 15.8064231128 16.8108287528
3.5932381416 15.7041146854 17.8647345915
3.5746910908 15.7270345015 18.8263112683
3.8857675556 15.9145712112 19.6788931523
4.0540707515 15.7557346133 20.7030715477
4.2981426647 15.6660820185 21.3536466381
4.3779955860 15.4258068138 21.9743292954
4.5212177920 15.1306003334 22.7131346881
4.4528724285 16.2836829015 13.8731716937
4.3296988376 16.3466845761 14.5311888826
4.6971089296 16.6782893846 14.2018775397
4.2508922499 16.4249192266 15.4690994653
4.1776860668 16.4384364218 16.5038980089
4.1163637193 16.3918638005 17.5530881303
4.0919724701 16.3102654355 18.6577350464
4.4236513785 16.4272413033 19.3796321174
4.6766042929 16.2068221173 20.1055316913
4.6417493424 15.9291916647 20.9105563103
4.8373899839 16.9181013184 15.0096118438
4.7288725416 16.9053792206 16.0912373600
4.6771711599 16.8487435690 17.1321027444
4.6145577068 16.7655772727 18.1271990406
4.6197581518 16.6832408983 18.8669432658
5.3899776754 2.6956006829 12.0498507482
5.8108301541 2.5827154208 11.4973275077
5.9353305408 2.1016386247 12.0151914583
5.6945066704 2.3129164578 12.6543209844
5.0818557290 2.8775993138 12.9592750933
5.5453538299 2.5458875660 13.3125424719
5.2818997090 2.8540882737 13.7319644493
5.7057549720 2.8063123316 13.8074376235
5.2427274937 3.5393705800 11.1732044708
5.6677782145 3.8265379479 10.3692371286
5.8604005760 3.1003842905 10.9824025752
4.8835372038 3.3506981193 12.1869238899
4.9840926291 3.2762595874 13.6705127364
5.3948028159 2.9465131232 14.1083720318
5.2307730133 3.0867194661 14.0684021759
5.3491835166 3.1149167704 14.2242648868
5.0433740871 5.0104659345 6.6212499794
5.4773894545 4.8225633770 5.9213826716
5.8326185199 4.4974979016 6.4700141808
5.5313639484 4.5268834226 7.4924571849
4.9484190723 4.9407485435 7.8472569180
5.3588579460 4.5005835605 8.4067274957
5.0506418895 4.7600146016 9.0065992021
5.4858462683 4.3305868544 9.3318617046
5.1403274756 4.3458951997 10.0632913017
4.8003623183 4.7195776301 10.7997035541
4.7413080340 4.2738646780 11.8325207499
5.3412006681 3.4273885744 14.0921143884
5.5513287295 4.0533170815 14.0800106661
4.9285631297 4.6378835059 21.4545383080
5.4472353847 4.5384675789 20.5821893832
5.9481746537 4.0892482575 21.0812771629
5.5721355299 4.0399526926 22.2261382540
4.8766963432 4.4504982186 22.6292075245
5.3752846415 4.0279834160 23.1345113961
4.8848974072 4.3711705476 23.6420022273
5.5748646644 3.8358256303 24.0685603142
4.9598063719 4.3471051786 24.6497913457
5.5124159058 3.9147726667 25.1275910556
5.0831576107 4.3415953974 25.4483008141
5.4644902585 4.0885589533 25.8511574763
5.1617568311 5.4807795282 5.5127657000
5.7133147667 5.4474480577 4.9054776708
5.6402681727 4.9730991774 5.4387079244
4.7599077589 5.5973649762 8.6147409439
4.8079859181 5.2996116447 9.9455940188
4.7583937823 5.3847371673 11.3996024135
4.7634269639 4.9993169962 12.3810312427
5.0573395617 5.2922018131 13.1960983911
5.4869088704 4.8986733549 14.0092612641
4.9741148984 5.3301226526 19.4389757126
5.1066866085 5.5940307435 18.6704493272
5.7343024480 5.1677322160 18.7761273947
5.6711022825 4.7517183805 19.7223177819
4.8917343065 4.9950765240 20.3849324012
5.1269498279 4.5681041691 26.1839838509
5.5297326216 4.8713168771 27.3575020735
5.1353165823 5.8506745821 27.8734038066
5.7344207453 5.3458619228 28.2372905120
5.2657801081 6.3283179500 4.5293578097
5.5315752335 6.6163202950 3.7069337058
5.9405500974 6.0138075323 4.1081902897
4.7560665791 6.3747450894 5.3047917269
4.7408118197 6.3999065267 8.4787219054
4.9495453312 6.4284783815 9.4745561306
4.8407637924 6.0682900200 10.7342094057
4.9362331845 6.1562473154 11.5131747719
5.1207492786 6.0678078088 12.2748057545
5.3424459315 6.0335552757 13.1384909261
5.4548667317 5.7127132057 13.7798448703
5.0123716849 6.3059067756 17.3987719300
4.9080616941 5.9517696465 18.2107443526
4.7380078813 6.7152881913 27.8604590047
5.7638125673 5.8489173976 28.6831444369
5.3048435331 6.5768462180 28.4383964420
5.8886129806 6.5109031519 28.9950813450
5.5110859742 7.5931973111 2.8389792052
5.9445531732 7.6902156012 2.3092291065
5.7174604953 7.2913386668 2.6248805227
5.5991802328 7.0228744082 3.0754027420
5.2728501452 7.2878640847 3.6917658480
4.8910442874 7.2261315078 4.7438683433
4.9451316044 6.8289543186 8.6189468918
5.2947506835 6.9392804809 9.0102434338
5.2996865418 6.9576497338 9.8035118536
5.1717614956 7.1667219493 10.6437478830
5.4431931169 7.3635658658 10.3870138763
5.1962806798 6.9495074410 11.5994598340
5.5839816235 6.9170709235 12.1927804906
5.6127262729 6.4973349420 12.5885194262
4.9972493617 7.7457744769 14.8142699145
5.2391891029 7.7147911038 14.1608387058
5.3056794894 7.2710710525 14.6407220813
5.1916925698 7.0079243984 15.5637803150
4.6444309596 7.7099676668 15.6071192463
5.2999248220 6.4996395831 16.4963469815
5.0346442194 7.4494685917 28.2560009099
5.5925015736 7.1091433277 28.7183968581
5.6161487353 8.1271044159 2.6277425261
5.9150179863 8.4382880389 2.4292538867
5.4047098789 8.1051245932 3.2076846373
5.2287979898 8.0533881662 4.1031861525
4.9992982300 8.0221369380 5.1351789351
5.0095499602 8.1598869030 6.0325405980
5.0682115337 8.0612861899 6.8046782215
5.2224886777 7.6967013056 7.5416812503
5.1646765916 7.1956603542 8.2738410756
5.3672901002 7.8365511927 10.9273719710
5.5313619857 7.8574207293 10.8663657963
5.3743794407 8.2198551852 11.7109930164
5.6052077683 7.6494798947 12.1073000469
5.0252206863 8.3645732516 13.8993968077
5.3033676754 8.2846957254 13.1190963714
5.3446391097 7.8987648305 13.5523630280
4.5555790571 8.4803720194 14.8087845998
5.2179518461 8.2405769244 28.2429428130
5.6219538701 7.7701832484 28.5994054254
5.6731280578 8.6155982450 2.8391177036
5.5788969305 8.6692864232 3.5386141560
5.5926457260 8.6705239838 4.5159242675
5.4272945415 8.5185933718 5.4780912883
5.6165308582 8.5129602315 6.3381502146
5.4229639080 8.1863730582 7.0166818143
5.5127840250 8.2455741372 11.2380075572
5.6810764919 8.7758166608 11.6095853598
5.6041461977 9.5127802415 12.0879163088
5.1517160158 8.9506575185 12.8600103320
5.3965013886 8.2335371261 12.5053220671
4.6190147948 9.3415274708 13.8501214480
5.6758914415 8.4084212573 28.3763567537
5.3464754864 9.1185569745 27.8642820471
4.8996419924 10.3311856342 12.8503576491
5.5732361921 10.5344109483 12.1780628515
5.2503420499 10.0429537485 27.4151838663
4.9256746917 10.5984596806 26.9516213220
5.2101822945 11.3289472449 12.2346854852
5.5349693461 11.9179655706 11.8394713382
5.9178338121 11.1767965851 11.8688572803
4.6141672966 11.5369948261 12.7020873169
5.0079542005 11.1894848787 26.5242693230
5.6089727533 11.0054716404 26.7101222931
5.3605048019 11.4646167918 26.2427499904
4.9234373832 12.3526000197 12.1886374142
5.5923997523 12.7326252861 11.6329680338
5.3859199563 11.9010970419 25.6361871009
5.0011139589 12.4906914606 24.8892450793
4.9809839853 13.4875656916 12.0163623806
5.7581629066 13.8098692273 11.4369956129
5.6487266626 13.1791424882 24.1840284029
4.9877363943 13.8490156072 23.7439818041
5.0569130997 14.7011045512 12.1033207561
5.9215133672 14.9564066743 11.5970654899
5.1735902337 14.5499564835 23.3480091179
5.5256450059 14.2219226802 23.4478033200
5.6738820544 14.5533590299 23.2109010928
5.4011601916 15.6341945798 12.1526602438
5.9458439184 15.7161691649 11.9238910288
4.8036859211 15.6837153708 12.7563186047
5.2380096583 15.4910994535 22.1590222707
4.9038771476 15.7541827946 21.4598445982
5.5164854770 14.8799525754 23.1005723335
5.1149639486 15.3710584315 22.7669175477
5.4561869163 15.3988046570 22.6512258191
5.0677413066 15.0616096668 23.0628097107
5.7455605213 16.1223339397 12.2728297266
5.3283288755 16.2792706386 12.7168403236
5.8920786703 16.5346379423 12.6966907314
4.8869945205 16.4542066236 13.4595386372
5.5213986971 16.3580562574 19.7035956894
4.9696429479 16.6081924807 19.3231711172
5.3796644471 15.9958472070 20.6862309745
5.3073662300 15.3480919087 22.9041784289
5.5518163553 16.7957697636 13.3257860207
5.2433288709 16.9728508208 14.1377823218
5.6390879423 17.2913390122 14.8822512641
5.2864782818 17.1801249452 15.6667289092
5.4020188381 17.0877042993 16.5995281349
5.2342191066 16.9513980265 17.6998054630
5.1117066448 16.8276937727 18.5854457697
6.2834258008 1.7675209565 11.9689376356
6.2867618239 1.9951248121 11.7207033224
6.4168286385 1.6942838102 11.8563798664
6.4768209563 1.7155803970 12.0246371849
6.2955279858 2.6432929804 11.3938550759
6.2817488705 1.9510573327 12.3839017763
6.1066628694 2.3767046008 13.1433444472
6.1842883062 2.8391070971 13.6010948258
6.0431501108 3.4121292887 10.8244388798
6.1653902434 3.0755008406 11.0609023748
5.5328547046 3.1166181616 14.1521856984
5.9355375128 3.4808347452 13.9640063641
6.1469287952 3.4318610407 24.8232104566
6.2491762543 3.3745594398 23.9706386297
6.8970539658 2.9810370573 24.3660191102
6.8024362924 3.0711157271 25.5133337488
6.0635573027 3.6180489286 25.8628513397
6.7448454111 3.2519659385 26.3352945732
6.3650928809 3.6820009584 26.7681373585
7.0730110118 3.3274522379 27.0309952255
5.8806328191 4.6350327318 5.7683768638
6.1113785820 4.8817246284 5.3138763390
6.3852071475 4.5236659374 5.9336669076
6.3236455050 4.3737235379 6.5208937336
6.2141362620 4.4455742918 7.2567455250
5.8676499183 4.4856900073 8.4566662623
5.9249250161 4.6257456328 9.8691317388
6.1644551273 5.0332847055 8.8510297667
6.0891451417 3.9777588654 10.7102301044
6.1318374007 4.7317781426 10.9003239567
6.3134054446 4.2172447068 11.2355502099
6.0766085377 4.4922543883 14.1310504382
5.9839914802 4.3329704584 20.2391585929
6.3287793071 4.3852915035 19.6663272337
6.7202814467 4.0178484346 20.1060949129
6.8613717362 3.6183544037 20.9845137421
6.3887807841 3.6090606487 21.9556166678
6.0782961084 3.5858407169 23.0783983426
5.7358648950 4.1328873258 26.5610986255
6.7351417594 3.8226247079 27.4884201704
6.1242445938 4.1431306357 27.2379628809
6.4468522522 4.3563618613 27.8826482016
6.3309706469 5.3423670469 4.7694203103
5.9908139480 5.6811361817 9.7545071863
6.2079093245 5.8939525854 8.8186623149
5.9868378588 5.5563229895 10.7299803582
6.3095359735 4.7884423546 11.4823674883
6.1372005593 5.5058074580 11.5013776589
6.3598817742 5.2593869065 11.9338515574
6.1596100760 5.1907413439 14.4366915161
5.9111168972 5.8081636063 14.6487316668
6.5840357600 5.5691540639 14.8318121002
5.6258169370 5.6498823623 17.9141903732
6.2765496661 5.5634800247 17.3209543557
6.5550002552 5.1701250256 17.9376110953
6.5469609354 4.6696378965 18.9069094227
6.3929378165 4.9431866493 28.4738968151
6.0253728695 5.3712874619 28.6437703486
6.3036316977 5.4749582697 29.0085817579
6.0996199687 6.9441136747 2.6405777443
6.5745192589 7.0118629103 2.2721188140
6.5588377452 6.6814937784 2.7316864878
6.4909040651 6.3316624348 3.4704871598
5.8868787187 6.5459067781 3.3492065746
6.5512368536 5.7767662585 4.2748916808
5.7420734667 6.7406553753 9.5576722690
6.1243126201 6.6220778926 8.5499266833
5.8623423912 6.5378581266 10.6855847734
5.8824877722 6.4770669342 11.7264020937
6.1333355858 6.3307697911 12.2624723218
5.5813831117 6.4414811053 13.6590979631
5.5625764758 6.6625542954 14.7233223359
6.6360831769 5.8016118573 15.5307978945
5.8553162082 6.2015418549 15.8198845222
6.5811376172 5.7171177419 16.5428031071
5.7795552584 5.9756375332 16.9468371051
6.2245767844 5.9684626579 29.2795604126
6.3499234220 6.4158506269 29.4609295667
6.5897171374 6.0026216406 29.6348281071
6.5616232658 6.3220780835 29.7209535849
6.3282923188 7.2963158815 1.9937245105
6.4681843567 7.3825045859 1.7388426498
6.5388221243 7.2725856391 1.8376344912
5.7391591436 7.2662167648 8.2568978226
6.2632440259 6.9922952644 7.9812839766
6.1795238633 7.5364271109 7.6220165952
5.6960842003 7.3801537281 10.7187739081
5.8814728313 7.4257186190 11.7045293374
5.8909070903 6.9359603584 12.1559846662
6.1409563366 7.2788515438 12.3304552399
5.7147743329 6.9738697561 12.7197909070
5.4934101028 7.2583044929 13.7658540437
6.6827789431 6.4996225538 29.5784732180
6.3687322402 7.1246974558 29.0246646475
6.7597196463 6.2962194110 29.7835718179
6.4447430786 7.6041319673 1.9502624625
6.3172302877 8.1905981754 2.2857687138
5.8676554661 8.0932027448 7.1949939466
6.3270714829 7.8986593209 7.1391119222
6.2835465093 8.3370111662 6.7797870334
5.7718186548 8.1659640946 11.3257575691
6.0771411624 8.2034396726 11.7593512282
6.1065636860 7.8351528448 12.1593932816
5.7621268021 7.3808487907 12.2964941280
5.6524891023 7.6995857983 12.7321850515
6.1114248132 8.0137419103 28.6217246639
6.7919499392 7.9075137434 28.5839026386
6.2486271443 8.6145131422 28.2573898450
5.9490056840 8.8780313233 2.6416087677
6.2259944360 8.7677821166 2.5373813393
5.8990643249 9.0115329686 3.0736370003
5.9401322769 9.0373168973 3.7344627818
6.0932397916 8.9752545922 4.3491555350
6.0593318571 8.7704877538 5.3346054904
6.0844744131 8.8342678327 6.0873569078
6.3314461315 8.7762764018 5.9125461398
6.1012607457 8.6497897711 6.5146771227
6.0828628376 8.8515628668 11.7417535246
5.8579079395 9.2179859698 11.7993642223
6.3829845871 9.3757102283 27.7773175615
6.1401646911 9.0714759179 2.7952480973
6.2133983484 9.1392847889 3.2389209298
6.2863783299 9.0838628306 3.8036100176
6.2538925021 8.8404557056 6.2221392601
6.0974290093 9.4524502319 11.8950554312
6.3808102144 10.1436791150 11.9582279258
5.5675086104 10.5010071602 27.1717892484
5.8693962339 10.0000288853 27.4875796266
6.2237079350 11.9351566125 11.5304548999
6.7716546360 11.0754617345 11.6694883994
6.1748101448 10.9304365816 26.6656100284
6.0613790020 11.3791993301 26.1633805962
6.1116959599 10.5648727908 27.0413750510
6.4068832225 12.8272650730 11.1737635824
6.1150190062 11.8498857103 25.5849363582
6.1164609194 12.3503884342 24.9637504195
6.3827665483 13.5656157210 10.9949229028
6.8842761845 13.6704783740 10.8337601841
6.7778974912 13.1777924990 10.8651396439
5.7333737153 13.8215864292 23.6394828337
6.4293643593 13.5719029201 23.5618233537
6.0615518797 14.1805221828 23.2496410396
6.7047920243 12.8903980556 24.1495785925
6.4050921187 14.2126166364 11.0968258494
7.0776763032 14.2025117713 10.9659902182
6.0712154905 14.7198108212 22.8373004352
6.8284192918 14.8015788841 11.3264401225
6.5253331476 15.4687071323 11.7596895333
5.5403919827 15.7192362332 21.4073052011
5.9677841071 15.4691174470 21.6500630253
6.1509476438 15.6609989964 20.9325676596
5.9927556156 15.1966104661 22.2801047332
5.5790324892 15.1796433174 22.8562078172
6.4201885410 16.0904948476 12.2820385617
6.3844239699 16.5829853143 12.8375577390
5.9321818492 16.9048145061 17.3033383634
6.6889968585 16.6573005124 16.8458350092
6.1197652943 17.0253336371 16.4649721646
5.7580830546 16.7765308758 18.2405594291
6.3705570503 16.6164901181 17.8252626810
5.5415527466 16.6511325698 18.9831094320
6.3419846234 16.3377012505 18.8499118467
6.2233682400 15.9821646129 20.0173609840
6.5516240130 17.5778689132 24.9504047881
6.4969111717 17.6315728848 24.9821496830
6.4945377922 17.6151081644 24.8593185231
6.5971707275 17.6354626477 25.0903868069
6.6035811018 17.7864770027 25.1554455225
6.7769452529 17.9225865657 25.2363526305
6.0872890174 16.8514850033 13.2036790476
6.0367320129 17.1471139818 14.0374938345
6.0881318521 17.4490376731 14.6521014358
6.3332366027 17.3558334283 14.5627544301
6.0905904476 17.4474721582 15.0125451793
5.9437521593 17.2571276274 15.6560344267
6.4927489907 17.7437085937 24.8996169743
6.5570669698 17.7846949732 24.8656677302
6.5877141999 17.9395226378 25.0708727700
6.8001976510 18.2555712085 25.2622310133
6.2616650425 17.4829249190 14.8133363830
6.6089083901 17.9918087431 24.9678594688
6.8366277936 18.5455450107 25.1651527295
6.7151796287 21.4195583524 24.6937107382
6.8850685083 21.3897110660 24.4576953311
6.8905667905 20.8778464993 24.7839120070
6.8997556185 20.8647911463 25.2181778132
6.7195846946 21.5895125356 25.0991717147
6.8747705869 21.4212995984 25.5137062218
6.6686549868 21.8279627782 24.3006099572
6.6858831005 22.0267020766 24.1427491192
6.7836355459 21.8686732291 24.2035895025
6.6410596265 21.9020221575 24.6236278760
6.7856398424 22.0482958529 25.0483836701
6.8242379027 21.7932643005 25.4497122596
6.6912646468 22.0945599319 24.3397058812
6.7138692428 22.1327096991 24.6180248313
6.5469269570 1.7941912156 11.8737314971
6.6373260141 2.1524071473 11.7983575052
6.6974725772 1.9658231978 12.1702915122
6.6398179363 2.2132950825 12.7011543380
6.5627493551 2.6712426625 13.1659070907
6.8505868609 2.5618847007 12.7476226141
6.4004109763 3.4276215804 11.3384283651
6.7231795753 2.7204397345 11.8184255519
6.7454602300 3.4279619643 12.1738123597
6.7593414254 3.2533394059 12.9392127499
6.9107958845 2.7077608159 12.3623194941
6.4485860141 3.2310550526 13.5243687972
7.1900411733 3.2416194494 21.6967800387
7.5141769690 3.3015667692 20.9376463260
8.0433854719 2.9592369261 21.3518820281
7.6630008128 2.8623614400 22.3850490667
6.8635330999 3.2042547133 22.6600050029
7.3195668348 2.8540030767 23.3747834739
6.6641006012 3.1779887259 23.4914825932
7.7484623818 2.5473775004 24.1817952125
7.5611936401 2.6192635072 25.2094748551
7.6820044022 2.7677463053 26.4638038089
7.7266665497 3.1172398376 27.3276703302
6.6792140820 4.8925450198 5.3490705552
6.8876380725 4.6651759294 5.8700873452
6.7322752636 4.5592029925 6.5237557388
6.6800254344 4.8420211576 7.3410237920
7.0650136106 5.0826097836 6.6795466333
6.3267823660 4.7164385951 8.0197443357
6.5303975998 4.3725957777 11.9073404498
6.7285742704 4.3118904072 12.7713073236
6.5495679113 4.1756682067 13.6195152361
6.8817359816 4.2703285056 19.3437725338
7.2847611575 4.3812662181 18.8164129118
7.6418245973 4.0229411006 19.2993159599
7.6316269715 3.5705675674 20.1980885042
7.4343003067 3.5371628523 27.7078609494
7.1470938976 4.0749290382 28.1227320070
6.8585936956 4.4758492963 28.3591532209
7.4261835001 4.6705819545 28.7250278555
6.8927246829 5.4276738208 4.8773235497
6.8849750196 5.5617216039 7.3252353194
7.2069081602 5.8268801123 6.5922787710
6.5134627539 5.3086644263 8.0865054616
6.6000891762 5.3652892495 12.5229313499
6.8886066053 5.4197311077 13.3935045784
6.7393537406 5.2323161421 14.2660910545
6.8180073054 5.3994942520 17.1837177234
7.2418720560 5.4699504547 16.7720931337
7.3882026965 5.1877066635 17.3443991905
7.4835304223 4.7445208341 18.1254311135
6.8643570078 5.2606102237 29.1576381100
6.5950682000 5.6490448920 29.4207329155
6.9590496306 5.6739709725 29.5547804595
6.7599796069 6.7809907443 2.6126039439
6.8551525299 6.6221951405 3.0487124915
7.0121489853 6.4346093280 3.6809431688
6.9857117687 6.0257071236 4.2828894236
6.9530023214 6.4295963977 7.0398287486
7.2251604072 6.5265644259 6.4010004363
6.5442913563 6.2616468231 7.9225945524
6.7884487367 6.5507338824 12.8313772642
7.2620630190 6.3788862763 13.4886460557
7.3475298726 6.0072580325 14.0927665557
7.4462184212 5.8778752023 15.0416098824
7.4080303599 5.7010978953 16.0963011377
7.2493718692 6.4418746319 29.2651380837
6.9732932371 6.2436243051 29.6687308781
7.2878404659 5.8646780431 29.4973313455
6.9157766520 6.0216250983 29.7365717373
6.5584996714 7.3997851587 1.7657027874
6.7232618084 7.3727069618 2.1131741285
6.9504946954 7.0210635572 2.7257292673
7.1401769764 6.7696662514 3.4131738191
6.9814754563 7.2842018512 6.3843779566
7.2960290210 6.9033726562 5.9186539188
7.1755391715 7.4614583143 5.6070524401
6.5834348950 7.2220061138 7.2900112872
6.8307825586 7.7745307190 12.5376145768
7.5305191955 7.2545803511 13.2301218273
7.3014815683 7.1901572700 28.8397591400
6.6220514522 8.5160978550 2.8103260184
6.7343864082 7.8774330544 2.3860423337
6.8604044362 8.4485602947 3.6483364079
7.0073559644 7.9477798715 3.0995198148
6.9532838391 8.2772223020 4.4687932523
7.1696185006 7.8682486301 3.9649017560
6.7313667780 8.2599860571 5.5495029624
7.1924277094 7.7287929761 4.8631124891
6.5872481242 7.9980860062 6.6019361115
6.4807216670 8.4766884990 12.0711879011
7.1077197704 8.7006249476 12.3624648297
7.5574177996 8.1454094082 12.8015954614
7.5089952167 7.7219323486 28.4741379189
7.2638229091 8.5856676882 28.0165351145
6.3756470726 8.9897536532 2.8830561615
6.5237692545 8.9246463500 3.4134961399
6.5370519526 8.7707038879 4.3581278029
6.4103538407 8.5853572422 6.2852864855
6.5753678819 9.2371583611 12.0156090384
7.2519383680 9.5310952476 12.1691568896
7.8842722879 8.8728260748 12.5910183067
7.0550822690 9.6141268993 27.4160726451
7.7364981954 9.1393300130 27.4598329867
7.5363898346 9.7918154148 27.0399150002
7.3555366140 10.3352284794 11.8963472966
6.8566378287 10.5767207859 26.6666114986
7.7815359666 10.1652892369 26.5469562231
7.5153963198 10.8194419188 26.0476439264
6.4734693979 10.0685426971 27.3204620202
7.3184658617 11.8427251268 11.2883089615
7.5370635948 10.9552667113 11.6190434257
6.8838723429 11.5689872018 25.5770952101
7.7777803862 11.2380761460 25.4481853668
7.5191267287 11.7944941610 25.0168868941
7.1055204080 12.6764871547 10.9440522387
7.3546028042 13.0919278534 10.7995088315
7.8123330460 12.4630922455 10.9558316224
7.0719998102 12.2602631850 24.7184282318
7.7537458132 12.1286540318 24.5051003650
7.4419667366 12.6008580832 24.1264629373
7.6534496623 13.5934397083 10.8673314013
7.4933859562 13.1791513793 23.3701746336
6.8705501356 14.0618156598 22.8107286217
7.7730871138 14.1430039838 11.1453772343
7.2657328218 14.5069295724 11.1294197036
7.5772220221 14.6670031148 11.4512354149
6.8071876271 15.0830805726 21.3720382838
7.7027768964 14.6309831222 20.9970978947
7.3986850021 15.0638875354 20.5782264986
6.6765635658 14.6909802907 22.2432813302
7.4996939665 14.2724952879 21.8883989851
6.8782179095 15.6946491406 12.0295809893
7.3887890580 15.2155022911 11.9256033403
7.2098652602 15.7996675599 12.4656744861
7.0040431646 15.7864915207 19.4240903466
7.6856809171 15.5332998593 18.8280397182
7.1602888597 15.9625847885 18.6114844833
6.8862313274 15.4938509925 20.3611217302
7.6553138084 15.2126625162 19.7900004887
6.5822556217 16.7774372480 13.4624437545
6.9244411659 16.3089769506 12.9425400184
6.7201525886 16.9598777584 14.3584367022
7.2022904409 16.4227687295 13.7719820647
6.8981495390 16.8617216598 15.1432335256
7.3335484384 16.4510573529 14.7231946940
6.5815036138 16.9648237429 15.8345128303
7.2605302848 16.4436970658 15.8271737162
7.3611632725 16.2191619418 16.8045895165
7.0671832776 16.2234679257 17.7751423399
6.6008686069 17.7018090551 24.9029505816
6.7420987463 17.8088651082 25.0837528406
6.4325522153 17.2680856081 15.0476426522
6.7625372061 18.1073785962 25.0130429393
6.9546877468 18.2611066912 25.1542756621
6.9502109488 18.1310230382 25.2448367106
7.0176251755 18.5153784044 25.3146315586
7.0457685349 19.0198030255 25.1412570306
7.0356627371 19.5353036834 25.2686213969
7.0793131801 19.2195834165 25.3506490085
7.0267908621 20.1237948045 25.0487074136
7.0971074023 20.6606628711 24.7618793991
7.1853525518 19.9232435818 25.0106053484
7.0200560930 20.1799729740 25.2785030200
7.1340107271 20.2978556760 25.4718085170
7.1797713269 21.1825259230 24.6518114087
7.0976906570 21.1405862585 25.6825313571
7.0542075485 21.7393528703 25.7775338560
7.2724115581 21.5341587222 25.8713879100
6.8058021046 22.0619640094 24.2600222325
7.0524516477 21.7896521811 24.5029452977
6.9483501244 22.0535813391 25.5351632575
7.1662054299 22.1434188108 25.7611632511
7.2821473653 21.9145025748 25.9048565953
6.9450983321 22.1742620559 24.7144836515
7.0520771138 22.2576574073 25.3327934933
7.2093010576 22.2615867961 25.1137266360
7.2695609284 22.2798657945 25.6640556141
7.3496197963 22.1364281530 25.8002482623
6.8765788180 2.3011293697 12.0911198629
6.9011144347 2.2819243875 12.4210432973
8.2829127704 2.2676294092 24.9042725148
8.4067919220 2.2645541007 24.0845042389
9.0820799804 2.0548202489 24.5699619200
8.9138039065 2.0791843906 25.5963096729
8.2081411456 2.3216786721 25.8331388470
8.7810909111 2.1784986786 26.3744389936
8.2759463160 2.3589193190 26.4085414615
8.5768209305 2.4181954884 26.8832791938
8.0209280653 3.2147580095 20.6086952161
8.3669205183 3.3290584591 20.1510579866
8.6737354632 3.0350549520 20.6511541092
8.9410454886 2.6775023008 21.3354110412
8.5061802896 2.5592374375 22.1451623131
8.1989286814 2.4714218547 23.2137589141
8.5256348552 2.8570012688 27.5060483112
8.0308225098 3.2832650627 27.8150778815
8.4778377844 3.3058378712 28.0765816467
7.1222976375 5.0896964989 5.5528801843
7.1152298952 4.8523003721 6.1260790414
7.9112854433 4.3446245323 18.5712836851
8.4416759026 4.6250525169 18.1049136169
8.6676659328 4.1320239619 18.8029883161
8.4610866557 3.6542852837 19.5778974761
7.9722978915 3.7866790593 28.2690377229
8.4542314776 4.2746013152 28.6506371268
7.2987119474 5.8378899252 5.1532798974
7.2950079944 5.4141511021 6.0088826205
7.9262163947 5.4528726762 16.7313882004
8.1914087947 5.0680920640 17.4514023337
7.3696290563 5.3613298129 29.2633790439
8.1234006560 5.4679312000 28.9445954134
7.3138160245 6.6110287838 4.3314944344
7.4417697452 6.3945605269 5.1419683359
7.3908486289 6.2409515471 5.8102028272
7.6638030300 6.6654340543 13.8210046576
7.9786507673 6.5063097333 14.4059288987
8.2433101954 6.3102981927 14.9952385498
8.5073328427 6.0028169772 15.9393147523
7.9651971711 6.6042813907 28.8135344721
6.9991773709 7.5032416734 2.6792682668
7.2157888072 7.2910957477 3.4725468021
7.3402169740 7.3070824694 4.3599680581
7.3875674940 6.9584000252 5.1736521182
8.1373014816 7.1490264885 13.8237941507
8.5156397314 6.9186434400 14.3286530399
8.3974566803 6.5907246190 14.6612234784
7.8797248259 7.2253699541 28.5984761705
8.2565522043 6.9463148340 28.5311752674
8.2426735785 7.6120295072 28.1419813017
8.3916821620 8.0330959874 13.2630653479
8.6810709733 7.4313804233 13.8978581677
8.0656417799 8.5238549224 27.7036662218
8.1837443233 9.7516162634 12.1969969853
8.7615131847 8.9905750861 12.7436315242
8.2114249412 8.8644357823 27.3995575050
8.1885679969 9.3923580423 26.9750156716
8.0197806694 10.4836763619 11.8096537073
8.2297476611 11.0557820642 11.5409319518
8.7432922239 10.3607536841 11.8895931567
8.2862763213 9.8793723327 26.4839367767
8.2359660056 10.4442958832 25.9463944492
8.5491685972 11.8176380270 11.2647748892
8.3779620825 11.0432887202 25.2206982377
8.0816167721 11.6191972704 24.8428559715
8.0728344755 12.9386427459 10.8695626694
8.4854184904 12.4786819628 11.0176848371
8.2058321246 11.9166030859 24.4235533417
8.1408756124 12.3572484818 23.9213806503
8.5066050399 13.2309870835 11.0928294767
8.0992081789 13.7090471629 11.0320172113
8.4996057880 13.7688108154 11.3518895355
7.6905186703 13.6896078362 22.5575511914
8.1670475548 13.2402502564 22.7220678716
8.2715906375 13.5951290861 22.0526797919
8.3345699265 12.7916758201 23.1845914802
7.9162191324 14.7819398597 11.8212909470
8.4118545314 14.2886758111 11.7939055851
8.2470295993 14.8263764669 12.3210685192
7.8790445001 14.8115244555 20.3679429827
8.2414757234 14.4270139945 20.5789719123
8.3397186642 14.6413734132 19.9210460051
8.2826297046 14.0536816153 21.2280896133
7.6004336441 15.8929389114 13.2507888664
7.9322117268 15.3540038699 12.7581093722
7.8229542013 15.9297147552 14.1842889724
8.2634328013 15.3955621818 13.6668333894
7.8894484522 15.9259551669 15.2133333420
8.4155309891 15.4027957339 14.6624080046
7.8836868604 15.8708680990 16.2669485378
8.4513085929 15.3881150212 15.7105992885
7.7901852270 15.8118967050 17.2862288496
8.4106233642 15.3540178621 16.7887342020
7.6152290271 15.7899726085 18.1014331930
8.2646955236 15.2996748286 17.9602713477
8.3184516665 14.9786950059 19.0369406126
7.0904142818 18.5986495459 25.2463708431
7.2124441115 19.4015492193 25.2301994812
7.3263840579 20.5683462659 25.0221771230
7.3233803345 20.2634901005 25.3968537786
7.3669305391 21.4558792348 24.9298334156
7.4580519541 21.1618333394 25.3716979422
7.3401407959 21.0288060118 25.6739526035
7.2959796242 22.0222784517 24.9749318156
7.4705432944 21.7737675165 25.3098752382
7.4305371844 21.7302892106 25.7165551324
7.3979919278 22.1399852177 25.4722723864
9.3031263783 2.3489837672 22.0063670283
9.5909992908 2.5063968195 21.4364061421
10.0283440356 2.3160374274 21.9643441706
9.8437897071 2.1367940914 22.6940354385
9.0413519904 2.2386256068 22.8545676944
9.6589213562 2.0428923032 23.6910648876
8.8566826756 2.1683488870 23.6522661101
9.8973339210 1.9948960269 24.6660531480
9.7381519897 2.0073935286 25.4906732443
9.5668442031 2.0778129585 26.3565461337
9.2888169680 2.2712444953 27.0058115316
9.0088885702 2.4885375404 27.3231070199
9.6152385938 2.7074577660 27.6847383975
9.0804745795 3.3235940928 20.0371583323
9.6522133099 2.9285906830 20.8171977362
9.0591513286 3.2089472248 28.1277339695
8.6699238856 3.6240291278 28.3908636572
9.1708341756 3.7753614091 28.4835067826
9.1508211427 4.5696327273 18.3450054584
9.5671903098 4.2670418153 18.8843326890
9.3274515801 3.7673894360 19.4034526737
9.0968764165 4.5409764714 28.6599589832
8.6300693391 5.4707048236 16.9385856199
9.0763797146 5.1582327141 17.7430599439
9.1182057018 5.2623068691 28.6063555976
9.6614527822 4.6748944124 28.4750334950
9.7194860783 5.3608889575 28.2792331855
8.7751090309 6.6354034426 14.9209450834
9.2783803487 6.9841207352 14.8407099084
9.2554873878 6.6567378711 15.5354656183
9.3343095018 6.3788830658 16.3624568498
9.2280896517 5.8788639281 17.0297436262
8.8192220874 6.3214752697 28.4205988396
9.7222233013 6.1837366760 27.9437485237
9.0223633576 7.1807590022 14.3417439225
9.2524235469 7.8586529523 13.8605878367
9.4618707193 7.4142479299 14.4835467007
9.1974336858 7.1221740051 27.7922008401
9.8599544708 6.7024305559 27.5491212793
9.6756498294 7.4753527069 27.1871314473
9.2107542557 8.5079953596 13.2495599301
8.7693806785 8.3712548660 27.3139109177
9.5234175458 8.4312338495 26.6400914369
9.1690433134 9.6993090357 12.3602817321
9.5742613691 9.1283612207 12.9200280388
8.8757729875 9.4656865921 26.3608977659
9.5341884298 9.0740396822 26.1104566089
9.3600848039 9.6479444578 25.7360651479
9.1108503575 10.9907854176 11.6226353275
9.5594662634 10.3381854666 12.0505176864
9.3098999255 10.5876512127 24.7450525005
9.6381190044 10.2767761439 24.6372863017
9.5791465135 10.8049513928 24.1090274521
8.9421551478 10.3867147222 25.3846694324
9.5373716123 9.9870475178 25.1153115129
9.4248419282 11.5738389374 11.5114733105
8.7727179112 11.4167949830 24.4224689871
9.2840710776 11.5859551774 23.6556811671
8.6092383070 12.7731750690 11.0087072137
9.2538372321 12.4456677194 11.3806147662
8.8895273450 12.8020683950 22.5073209134
9.4643607402 12.3108994362 22.4243801651
9.4826489460 12.6398435742 21.8350334994
8.8327980427 12.1977594329 23.4418389273
9.3891450361 12.0173854670 22.9592060058
8.8863778076 13.8062101219 11.7223747855
9.2272746972 13.2992721887 11.6771349195
9.2475744544 13.7908767317 12.2063871943
8.9224490827 13.9159794683 20.4320010207
9.5019500679 13.4456044212 20.3138032353
9.4985315671 13.7014098617 19.7072176300
8.9174272357 13.3809335859 21.4869461594
9.4938572352 13.1385525863 20.9230994932
8.6536121843 14.8611400020 13.1731817240
8.9781541350 14.3251108132 12.6761534649
8.8912502406 14.8704224722 14.1361939356
9.3168392154 14.3292694006 13.6104326248
8.9834583399 14.8676900488 15.1617279487
9.4739888517 14.3277316669 14.6136612663
8.9936772692 14.8514184678 16.2216923092
9.5229743039 14.3204776495 15.6561179284
8.9583313112 14.8002148214 17.3034997348
9.5239514549 14.2933365968 16.7135495071
8.9342357727 14.6436244158 18.3660792233
9.5110291445 14.2073791730 17.7598952856
8.9377098754 14.3501306424 19.3668839457
9.5018265020 14.0142080690 18.7646010817
10.0965794521 2.5750624504 21.4395477211
10.6827433541 2.5196214724 21.9776425335
10.6725490688 2.2305810956 22.6368165752
10.4012955429 2.0741311619 23.3312490399
10.5710571780 2.1285210162 24.2739968989
10.4934348978 2.1508930766 25.3106866220
10.5336010345 2.2058325904 26.3417396902
10.1405538789 2.2786273142 27.1022208266
10.5347264409 2.5988849708 27.6317806768
9.8857548278 3.5065744802 20.0985480530
10.3472386615 3.3363418403 20.7888286396
10.4931960440 2.9356113980 21.3655847947
9.6571717759 3.3224211580 28.2206835623
10.3866774136 3.2623808921 28.0414302153
9.7942753591 4.9435445425 18.6006447198
10.1013405215 4.5106742793 19.1401030948
10.0534737695 4.0545906576 19.5547794440
9.7811774599 3.9493300114 28.4055912360
10.3821591135 4.3568074002 28.1614713849
9.7941333714 5.9029834791 18.1353674653
10.2834079878 4.9521981903 19.2304632856
10.2559716861 5.6541970993 19.1780290159
10.5079591698 5.2721018659 19.6792785812
10.4316225465 5.4042855633 27.8308086657
9.6910820620 7.3324476467 15.2231947457
9.7027497267 7.0014293688 16.2208229363
9.7632790337 6.6693643991 17.2836781085
10.0217221268 6.7838767677 18.2828947526
10.2039168612 6.5657418435 19.0257200544
10.5524685516 5.7971149074 19.8941027698
10.4694873388 6.4277136227 19.8136122644
10.6770631124 6.2555627818 20.3905849041
10.2149258515 6.1472824244 27.6058210031
10.5504967802 5.8802906262 27.4846658114
10.4359959139 6.5091738277 27.0543847064
9.8772544913 8.0168880736 14.4938515724
10.0295844108 8.0111889273 15.3297103877
9.9778440895 7.7831760565 16.1031764337
9.9866899810 7.6013132061 17.0788828883
10.0721680274 7.4919769135 18.0432161786
10.2283646562 7.4429394500 18.9246399048
10.4368182111 7.3171818628 19.7584984918
10.6671241104 7.0576226731 20.5286093751
10.1566879276 7.6288387199 26.5110134640
9.8851259538 8.6421141010 13.6484389839
10.2537218107 8.6802939244 14.2949900950
10.4939916758 9.0995604749 14.6194611598
10.2857409240 8.6743978093 15.0769246960
10.2031518717 8.5918337686 16.0199575061
10.1564106474 8.4944442105 16.9705451392
10.1829229542 8.3725347341 17.9358660245
10.2494001454 8.1693511314 18.7030804555
10.4476335643 8.3383960738 19.5866958287
10.6551557997 8.0444635318 20.4854336412
10.2588765302 8.7184636486 25.3025848174
10.6017168114 8.1574358780 25.0062802200
10.4844597265 8.7710642315 24.6361783573
9.9825212739 8.5071392334 26.0325222219
10.4559145213 7.8702840706 25.7213257502
9.9320491365 9.8097575245 12.6102442857
10.1555128420 9.3645235004 13.1955368401
10.5345772010 9.3231644872 15.1760379534
10.6299075100 9.8368110012 15.5659384771
10.4429724884 9.4209779544 15.9276799953
10.3313958291 9.3611895082 16.8662095482
10.3180357288 9.2940962411 17.8369637924
10.3983017726 9.1070319293 18.8818117074
10.5792945756 9.2383924868 19.7909840571
10.6653535770 8.8640483663 20.3361106416
10.0688497544 9.7048293504 24.5194431432
10.5458844805 9.1147396918 24.0183701755
10.4418320989 9.7534953140 23.6239073594
9.8111004360 9.2770848844 25.5180889982
9.8680215731 10.9977826268 11.8817804221
10.1574485270 10.4457715666 12.3536030826
10.6113921421 10.1330965024 16.1355530938
10.6710411319 10.6546112535 16.6202802436
10.5179825991 10.1207674331 16.7723781625
10.4740411874 10.1346463390 17.6570856189
10.5068451503 10.0562396160 18.5937750337
10.6168579766 9.9676708002 19.5248863134
10.1298449482 10.6109434255 23.3830755750
10.5340600393 10.1236387857 22.9685402902
10.4055425794 10.7746637462 22.5776020624
10.0131574167 11.7341580960 11.8090111370
10.6366385926 10.8360599451 17.4244752895
10.6289382078 10.8183122451 18.3701564167
10.6600735558 10.6412828678 19.1641185341
9.9649493769 11.6806111244 22.3778114099
10.4641442452 11.1351428280 21.9503429992
10.3374856443 11.7089184753 21.5058448944
9.6995157330 11.3589490436 23.3105722721
10.0677691698 12.3190538861 11.8363386273
9.9921296017 12.9328858175 20.1883520749
10.4503441455 12.3613855909 19.8969924077
10.3331517584 12.7889187052 19.3964465657
9.9814831694 12.3833915869 21.2726636475
10.3936581648 12.0646399279 20.6916382520
9.8456130184 12.7774925183 11.8548858857
9.6790155349 13.7685251859 13.0582033505
9.9476888709 13.1508152439 12.4357631549
9.9097969453 13.7619325192 14.0360909150
10.2590776559 13.1578128616 13.4081035637
9.9983489486 13.7540288409 15.0628484327
10.3927312771 13.1368435697 14.4058795598
10.0186198300 13.7394699079 16.1110831727
10.4319137907 13.1177347201 15.4386207760
10.0137305894 13.6958505242 17.1584184344
10.4284837044 13.0914960204 16.4865694868
10.0010129006 13.5832680008 18.1809156253
10.4083968990 13.0354282037 17.5355968512
9.9865635668 13.3624585771 19.1544825251
10.3807960961 12.9207769976 18.5588274247
11.0190432829 2.3945125513 22.4220440175
11.3248081740 2.4407502552 22.8652595344
11.1810959204 2.2431395602 23.5151017806
11.2668378166 2.5089569214 24.3624745023
11.5533681762 2.4634043730 23.8817151971
11.0051556937 2.4615164996 25.0326066366
11.1706062898 2.6208465982 25.8962618482
11.3343909505 2.5556236633 26.6716796461
11.0314268858 2.4140636767 27.2275812772
11.0953933666 2.8256835880 27.7702619862
10.5590717054 4.0138159962 20.4944682032
10.9053845807 3.6177729167 21.5324387916
11.0598947914 2.9847295144 22.0250159532
11.1761155555 2.6176247970 22.3763687563
11.6098058676 2.9059076275 24.2001531187
11.5741638528 3.4348016483 24.4560367879
11.4427284529 3.2463205728 25.1689694493
11.5589494683 3.2234222391 26.0263063758
11.5738018383 2.9538781642 26.4041459698
11.0938274811 3.5738340903 27.9640601027
10.4974241236 4.6699626676 19.8248829743
10.8052563884 4.7998888364 20.6741764667
10.9805945079 4.5649353430 21.4692887699
11.2893532856 3.4850252260 22.3823491826
11.2353457806 4.3279365254 22.5697772716
11.3911239501 4.4018732899 23.7402330959
11.4875966430 3.6425360161 23.1630106525
11.4557633467 4.1947529125 24.7306982198
11.5725300056 3.6600791972 23.9729096048
11.5121946731 4.2286635911 25.5381598063
11.6383066404 3.8811057693 26.0044462173
11.1574336917 4.5019447413 27.7731509974
10.7379801871 5.5143182661 20.4220207881
10.9669756271 5.5057051169 21.3961343256
11.1206086092 5.3868312111 22.4030607818
11.2197114755 5.3213077115 23.4754169685
11.2770951132 5.2493115094 24.5438692033
11.3744348921 5.0849540564 25.5863215436
11.5980434554 4.6273258267 26.1009648663
11.0134899945 5.4175029754 27.2913047656
11.4977492337 4.7593059984 27.3603229399
11.5294762763 4.9991196850 26.8208101737
10.8730181541 6.5490419033 21.2356369298
11.0403347062 6.3999135832 22.2957771587
11.1062280814 6.2876756468 23.2935020573
11.1065783082 6.2362896502 24.3044387788
11.0901672744 6.1145486699 25.3492778851
11.4885027892 5.1179455846 26.3034458076
11.1227627647 5.7733275888 26.3919367177
10.8457287349 7.7393141791 21.3292068247
10.9736050447 7.4269164216 22.2201219763
11.0120737106 7.2523235139 23.1722828078
11.0043584891 7.0535083329 24.0030424895
10.8525137614 7.2338569743 24.9852144365
10.7119391833 6.8846507782 26.0599753572
10.4683879300 9.3506421937 13.9328382297
10.8283502445 8.8504337989 21.1931269318
10.9130260495 8.4493259175 22.1548048126
10.9366879133 8.1056620932 22.9651680328
10.8099121519 8.1272999567 24.0339770551
10.5358297501 10.2191672985 13.1767761508
10.7630026217 10.1434549766 14.1301170169
10.6968581759 9.8207525517 14.8489704282
10.7576513018 9.7063046618 20.4995071895
10.8459149178 9.7105864634 21.3780906661
10.8659704186 9.3027828506 21.9906650080
10.7652838024 9.1695415766 23.0205480533
10.4585831076 11.1520850293 12.4613623479
10.7794137009 11.1155329642 13.2558655784
10.8632279594 10.8840951201 13.9988490994
10.8675825670 10.7407064397 14.8998450752
10.7622998966 10.5947160948 15.8299397583
10.7355975282 10.7325115841 20.0908494091
10.7957746911 10.3396907037 21.0425570787
10.7191309369 10.2367332002 22.0373576103
10.4443304075 12.0191530191 12.2889065928
10.7134003635 11.8203480131 13.0217266025
10.8547961835 11.7098153081 13.8956833335
10.8844280493 11.6133224208 14.8381452580
10.8401523961 11.5368553137 15.8404910393
10.7514830152 11.4392097181 16.9380745808
10.7065306126 11.5369225431 18.1455721783
10.7098189371 11.3193291553 19.1556128197
10.6489257100 11.6753574468 20.0201898832
10.6424516684 11.1584386943 21.0807480434
10.2677005888 12.5781868244 12.1960011053
10.4842762390 12.5436789463 12.8108797963
10.6566732586 12.4749621704 13.6980418578
10.7263961441 12.4238055106 14.6790948546
10.7273210652 12.3839495861 15.7020319086
10.6907153203 12.3400404515 16.7578593137
10.6473675640 12.2932388603 17.8570298098
10.6109640814 12.1757364206 19.0327039099
11.5425868293 2.3595524491 23.2848296276
11.5987041847 2.3551171734 23.5911403820
11.7118156077 2.6409520069 23.7057853388
11.4871032061 2.5658088075 27.1005343437
11.3943070300 2.6157254887 27.5445366798
11.4022715803 3.1095922428 27.8408975596
11.4595613767 2.9609453033 22.7834027537
11.6457748936 2.6555271418 23.2353122693
11.6672456859 3.0785674735 23.5966279423
11.6544665420 3.2497619230 24.0791374739
11.7499068071 3.5444746560 26.4535139131
11.6978407920 3.0510228674 26.7266640016
11.4425036203 3.8252319120 27.8477601778
11.7457999973 4.3480003343 26.5607750555
11.8319388929 3.8595106174 26.7477124302
11.5783054298 4.3715823443 27.5723577545
11.6417348375 4.8272570208 26.4763817997
11.7375812962 4.4827655467 27.0646277415
3 2 1 0
3 4 3 0
3 0 3 2
3 6 5 4
3 4 5 3
3 6 7 5
3 10 9 8
3 12 11 8
3 8 11 10
3 11 12 1
3 12 0 1
3 12 13 0
3 0 14 4
3 0 13 14
3 4 15 6
3 4 14 15
3 7 6 16
3 16 6 15
3 8 9 17
3 17 9 18
3 8 19 12
3 8 17 19
3 12 20 13
3 12 19 20
3 13 21 14
3 13 20 21
3 14 22 15
3 14 21 22
3 16 15 23
3 23 15 22
3 26 25 24
3 28 27 24
3 24 27 26
3 27 28 18
3 28 17 18
3 28 29 17
3 17 30 19
3 17 29 30
3 19 31 20
3 19 30 31
3 20 32 21
3 20 31 32
3 21 33 22
3 21 32 33
3 23 22 34
3 34 22 33
3 24 25 35
3 35 25 36
3 24 37 28
3 24 35 37
3 28 38 29
3 28 37 38
3 29 39 30
3 29 38 39
3 30 40 31
3 30 39 40
3 31 41 32
3 31 40 41
3 32 42 33
3 32 41 42
3 34 33 43
3 43 33 42
3 36 44 35
3 46 45 44
3 45 35 44
3 45 37 35
3 37 47 38
3 37 45 47
3 38 48 39
3 38 47 48
3 50 40 49
3 40 48 49
3 40 39 48
3 40 50 41
3 41 50 51
3 41 51 42
3 42 51 52
3 42 52 43
3 46 53 45
3 45 53 47
3 47 53 54
3 47 54 48
3 48 54 55
3 48 55 49
3 58 57 56
3 1 2 56
3 2 58 56
3 2 59 58
3 60 2 3
3 60 59 2
3 61 3 5
3 61 60 3
3 63 62 7
3 62 5 7
3 62 61 5
3 63 64 62
3 66 65 10
3 10 65 9
3 11 56 57
3 66 11 57
3 10 11 66
3 56 11 1
3 16 67 63
3 16 63 7
3 64 63 68
3 68 63 67
3 71 70 69
3 65 71 69
3 18 65 69
3 9 65 18
3 23 72 67
3 23 67 16
3 68 67 73
3 73 67 72
3 75 74 26
3 26 74 25
3 27 69 70
3 75 27 70
3 26 27 75
3 69 27 18
3 34 76 72
3 34 72 23
3 73 72 77
3 77 72 76
3 80 79 78
3 74 80 78
3 36 74 78
3 25 74 36
3 82 81 76
3 34 82 76
3 43 82 34
3 76 81 77
3 78 79 83
3 83 79 84
3 85 44 36
3 78 85 36
3 83 85 78
3 85 46 44
3 49 86 50
3 87 51 50
3 87 50 86
3 51 87 88
3 89 51 88
3 52 51 89
3 43 52 82
3 82 52 89
3 84 90 83
3 83 90 85
3 85 90 91
3 85 91 46
3 91 53 46
3 91 92 53
3 92 94 93
3 54 92 93
3 53 92 54
3 95 55 54
3 95 54 93
3 86 49 55
3 95 86 55
3 96 86 95
3 98 87 97
3 87 96 97
3 87 86 96
3 87 98 88
3 94 99 93
3 93 99 95
3 95 99 100
3 95 100 96
3 96 100 101
3 96 101 97
3 104 103 102
3 106 105 102
3 102 105 104
3 108 107 106
3 106 107 105
3 110 109 108
3 108 109 107
3 112 111 110
3 110 111 109
3 114 113 112
3 112 113 111
3 114 115 113
3 118 117 116
3 120 119 116
3 116 119 118
3 119 120 103
3 103 120 102
3 120 57 102
3 57 58 102
3 102 58 59
3 102 59 106
3 106 59 60
3 106 60 108
3 108 60 61
3 108 61 110
3 110 61 62
3 110 62 112
3 112 62 64
3 121 112 64
3 114 112 121
3 115 114 122
3 122 114 121
3 125 124 123
3 125 123 117
3 123 116 117
3 123 126 116
3 126 65 66
3 120 126 66
3 116 126 120
3 120 66 57
3 68 127 121
3 68 121 64
3 122 121 128
3 121 129 128
3 121 127 129
3 129 130 128
3 133 132 131
3 133 131 124
3 131 123 124
3 131 134 123
3 134 70 71
3 126 134 71
3 123 134 126
3 126 71 65
3 73 135 127
3 73 127 68
3 127 136 129
3 127 135 136
3 130 129 137
3 137 129 136
3 140 139 138
3 140 138 132
3 138 131 132
3 138 141 131
3 141 74 75
3 134 141 75
3 131 141 134
3 134 75 70
3 77 142 135
3 77 135 73
3 144 136 143
3 136 142 143
3 136 135 142
3 136 144 137
3 138 139 145
3 145 139 146
3 145 79 80
3 141 145 80
3 138 145 141
3 141 80 74
3 82 147 81
3 147 148 81
3 81 148 77
3 148 149 77
3 149 142 77
3 142 149 143
3 152 151 150
3 152 150 146
3 150 145 146
3 150 153 145
3 153 84 79
3 153 79 145
3 88 154 89
3 154 155 89
3 89 155 82
3 155 156 82
3 156 147 82
3 147 156 148
3 150 151 157
3 157 151 158
3 150 159 153
3 150 157 159
3 160 90 84
3 153 160 84
3 159 160 153
3 161 91 90
3 161 90 160
3 162 92 91
3 162 91 161
3 162 94 92
3 97 163 98
3 154 88 98
3 163 154 98
3 164 154 163
3 155 154 165
3 165 154 164
3 158 166 157
3 157 166 159
3 159 166 167
3 159 167 160
3 160 167 168
3 160 168 161
3 161 168 169
3 171 170 169
3 170 161 169
3 170 162 161
3 172 99 94
3 162 172 94
3 170 172 162
3 173 100 99
3 173 99 172
3 174 101 100
3 174 100 173
3 163 97 101
3 174 163 101
3 175 163 174
3 177 164 176
3 164 175 176
3 164 163 175
3 164 177 165
3 171 178 170
3 170 178 172
3 172 178 179
3 172 179 173
3 173 179 180
3 173 180 174
3 174 180 181
3 174 181 175
3 175 181 182
3 175 182 176
3 185 184 183
3 183 186 185
3 183 184 187
3 187 184 188
3 186 183 189
3 183 190 189
3 183 187 190
3 190 191 189
3 194 193 192
3 196 195 192
3 192 195 194
3 196 197 195
3 200 199 198
3 198 201 200
3 188 202 187
3 187 202 190
3 190 202 203
3 190 203 191
3 206 205 204
3 208 207 204
3 204 207 206
3 210 209 208
3 208 209 207
3 212 211 210
3 210 211 209
3 214 213 212
3 212 213 211
3 216 215 214
3 214 215 213
3 216 217 215
3 192 193 218
3 218 193 219
3 192 220 196
3 192 218 220
3 197 196 221
3 221 196 220
3 199 222 198
3 198 222 201
3 225 224 223
3 227 226 223
3 223 226 225
3 103 104 227
3 104 226 227
3 104 228 226
3 105 204 205
3 228 105 205
3 104 105 228
3 204 105 107
3 204 107 208
3 208 107 109
3 208 109 210
3 210 109 111
3 210 111 212
3 212 111 113
3 212 113 214
3 214 113 115
3 229 214 115
3 216 214 229
3 217 216 230
3 230 216 229
3 233 232 231
3 233 231 219
3 231 218 219
3 231 234 218
3 218 235 220
3 218 234 235
3 221 220 236
3 236 220 235
3 239 238 237
3 239 237 224
3 224 237 223
3 237 117 223
3 117 118 223
3 223 118 119
3 223 119 227
3 227 119 103
3 122 240 229
3 122 229 115
3 230 229 241
3 229 242 241
3 229 240 242
3 242 243 241
3 232 244 231
3 231 244 234
3 234 244 245
3 234 245 235
3 235 245 246
3 235 246 236
3 249 248 247
3 249 247 238
3 238 247 237
3 247 124 237
3 124 125 237
3 237 125 117
3 128 240 122
3 240 128 130
3 250 240 130
3 242 240 250
3 243 242 251
3 251 242 250
3 254 253 252
3 254 252 248
3 248 252 247
3 252 132 247
3 132 133 247
3 247 133 124
3 137 255 250
3 137 250 130
3 251 250 256
3 256 250 255
3 259 258 257
3 259 257 253
3 253 257 252
3 257 139 252
3 139 140 252
3 252 140 132
3 143 260 144
3 260 261 144
3 144 261 137
3 261 262 137
3 262 255 137
3 255 262 256
3 257 258 263
3 263 258 264
3 263 146 139
3 263 139 257
3 148 265 149
3 260 143 149
3 265 260 149
3 266 260 265
3 261 260 267
3 267 260 266
3 270 269 268
3 270 268 264
3 264 268 263
3 268 151 263
3 151 152 263
3 263 152 146
3 155 271 156
3 271 272 156
3 156 272 148
3 272 273 148
3 273 265 148
3 265 273 266
3 266 273 274
3 266 274 267
3 268 269 275
3 275 269 276
3 275 158 151
3 275 151 268
3 278 277 271
3 155 278 271
3 165 278 155
3 271 277 272
3 275 276 279
3 279 276 280
3 281 166 158
3 275 281 158
3 279 281 275
3 282 167 166
3 282 166 281
3 283 168 167
3 283 167 282
3 284 169 168
3 284 168 283
3 284 171 169
3 176 285 177
3 285 286 177
3 286 165 177
3 286 278 165
3 280 287 279
3 289 288 287
3 288 279 287
3 288 281 279
3 281 290 282
3 281 288 290
3 282 291 283
3 282 290 291
3 283 292 284
3 283 291 292
3 293 178 171
3 284 293 171
3 292 293 284
3 294 179 178
3 294 178 293
3 295 180 179
3 295 179 294
3 296 181 180
3 296 180 295
3 181 296 297
3 298 181 297
3 182 181 298
3 176 182 285
3 182 299 285
3 182 298 299
3 285 299 286
3 289 300 288
3 302 301 300
3 301 288 300
3 301 290 288
3 290 303 291
3 290 301 303
3 291 304 292
3 291 303 304
3 292 305 293
3 292 304 305
3 293 306 294
3 293 305 306
3 308 295 307
3 295 306 307
3 295 294 306
3 295 308 296
3 296 308 309
3 296 309 297
3 302 310 301
3 301 310 303
3 303 310 311
3 303 311 304
3 304 311 312
3 304 312 305
3 305 312 313
3 305 313 306
3 306 313 314
3 306 314 307
3 317 316 315
3 319 318 315
3 315 318 317
3 321 320 319
3 319 320 318
3 321 322 320
3 325 324 323
3 325 323 316
3 323 315 316
3 323 326 315
3 326 184 185
3 319 326 185
3 315 326 319
3 319 185 186
3 327 319 186
3 321 319 327
3 322 321 328
3 321 329 328
3 321 327 329
3 329 330 328
3 333 332 331
3 335 334 331
3 331 334 333
3 337 336 335
3 335 336 334
3 339 338 337
3 337 338 336
3 338 339 324
3 339 323 324
3 339 340 323
3 323 341 326
3 323 340 341
3 341 188 184
3 341 184 326
3 189 327 186
3 329 327 342
3 327 191 342
3 191 343 342
3 191 327 189
3 329 342 330
3 346 345 344
3 348 347 344
3 344 347 346
3 350 349 348
3 348 349 347
3 352 351 350
3 350 351 349
3 354 353 352
3 352 353 351
3 354 355 353
3 358 357 356
3 358 356 332
3 332 356 331
3 356 193 331
3 193 194 331
3 331 194 195
3 331 195 335
3 335 195 197
3 359 335 197
3 337 335 359
3 337 360 339
3 337 359 360
3 360 199 200
3 340 360 200
3 339 360 340
3 340 200 201
3 361 340 201
3 341 340 361
3 362 202 188
3 341 362 188
3 361 362 341
3 363 203 202
3 363 202 362
3 363 364 203
3 364 191 203
3 364 343 191
3 367 366 365
3 369 368 365
3 365 368 367
3 368 369 345
3 345 369 344
3 369 205 344
3 205 206 344
3 344 206 207
3 344 207 348
3 348 207 209
3 348 209 350
3 350 209 211
3 350 211 352
3 352 211 213
3 352 213 354
3 370 355 354
3 213 370 354
3 215 370 213
3 372 371 217
3 371 215 217
3 371 370 215
3 372 373 371
3 376 375 374
3 376 374 357
3 374 356 357
3 374 377 356
3 377 219 193
3 377 193 356
3 221 378 359
3 221 359 197
3 359 379 360
3 359 378 379
3 380 222 199
3 360 380 199
3 379 380 360
3 361 201 222
3 380 361 222
3 381 361 380
3 361 382 362
3 361 381 382
3 384 363 383
3 363 382 383
3 363 362 382
3 363 384 364
3 386 385 225
3 225 385 224
3 226 365 366
3 386 226 366
3 225 226 386
3 365 226 228
3 365 228 369
3 369 228 205
3 230 387 372
3 230 372 217
3 373 372 388
3 372 389 388
3 372 387 389
3 389 390 388
3 393 392 391
3 395 394 391
3 391 394 393
3 394 395 375
3 395 374 375
3 395 396 374
3 396 232 233
3 377 396 233
3 374 396 377
3 377 233 219
3 236 397 378
3 236 378 221
3 399 379 398
3 379 397 398
3 379 378 397
3 401 400 399
3 400 379 399
3 400 380 379
3 380 402 381
3 380 400 402
3 404 382 403
3 382 402 403
3 382 381 402
3 382 404 383
3 407 406 405
3 409 408 405
3 405 408 407
3 238 239 409
3 239 408 409
3 239 410 408
3 239 224 385
3 239 385 410
3 241 387 230
3 387 241 243
3 411 387 243
3 389 387 411
3 390 389 412
3 412 389 411
3 391 392 413
3 413 392 414
3 391 415 395
3 391 413 415
3 395 416 396
3 395 415 416
3 417 244 232
3 396 417 232
3 416 417 396
3 418 245 244
3 418 244 417
3 419 246 245
3 419 245 418
3 419 420 246
3 246 420 236
3 420 421 236
3 421 397 236
3 397 421 398
3 400 401 422
3 422 401 423
3 400 424 402
3 400 422 424
3 403 402 425
3 425 402 424
3 428 427 426
3 428 426 406
3 426 405 406
3 426 429 405
3 429 248 249
3 409 429 249
3 405 429 409
3 409 249 238
3 251 430 411
3 251 411 243
3 412 411 431
3 431 411 430
3 414 432 413
3 413 432 415
3 415 432 433
3 415 433 416
3 416 433 434
3 416 434 417
3 417 434 435
3 417 435 418
3 418 435 436
3 418 436 419
3 419 436 437
3 419 437 420
3 423 438 422
3 422 438 424
3 424 438 439
3 439 440 424
3 440 441 424
3 442 425 424
3 442 424 441
3 442 441 427
3 441 426 427
3 441 443 426
3 443 253 254
3 429 443 254
3 426 443 429
3 429 254 248
3 445 444 430
3 251 445 430
3 256 445 251
3 430 444 431
3 441 440 446
3 446 440 447
3 446 258 259
3 443 446 259
3 441 446 443
3 443 259 253
3 449 448 262
3 449 262 261
3 256 262 445
3 445 262 448
3 452 451 450
3 452 450 447
3 450 446 447
3 450 453 446
3 453 264 258
3 453 258 446
3 456 455 454
3 455 449 454
3 449 267 454
3 449 261 267
3 450 451 457
3 457 451 458
3 457 269 270
3 453 457 270
3 450 457 453
3 453 270 264
3 460 459 273
3 460 273 272
3 454 274 456
3 274 459 456
3 274 273 459
3 274 454 267
3 457 458 461
3 461 458 462
3 461 276 269
3 461 269 457
3 464 463 277
3 464 277 278
3 272 277 460
3 460 277 463
3 461 462 465
3 465 462 466
3 465 280 276
3 465 276 461
3 469 468 467
3 468 464 467
3 464 286 467
3 464 278 286
3 465 466 470
3 470 466 471
3 472 287 280
3 465 472 280
3 470 472 465
3 472 289 287
3 474 473 298
3 474 298 297
3 475 469 467
3 477 476 473
3 299 473 476
3 473 299 298
3 475 467 478
3 467 286 478
3 299 476 478
3 299 478 286
3 471 479 470
3 481 480 479
3 480 470 479
3 480 472 470
3 482 300 289
3 472 482 289
3 480 482 472
3 482 302 300
3 484 483 308
3 484 308 307
3 308 485 309
3 483 485 308
3 297 309 474
3 474 309 485
3 477 486 476
3 476 486 478
3 481 487 480
3 480 487 482
3 482 487 488
3 482 488 302
3 488 310 302
3 488 489 310
3 310 490 311
3 489 490 310
3 311 491 312
3 490 491 311
3 312 492 313
3 491 492 312
3 313 493 314
3 492 493 313
3 307 314 484
3 484 314 493
3 496 495 494
3 494 497 496
3 494 495 317
3 495 316 317
3 495 498 316
3 499 497 494
3 317 499 494
3 318 499 317
3 500 318 320
3 500 499 318
3 320 322 500
3 500 322 501
3 503 502 325
3 325 502 324
3 325 316 498
3 325 498 503
3 322 328 504
3 505 322 504
3 501 322 505
3 330 504 328
3 508 507 506
3 510 509 506
3 506 509 508
3 512 511 510
3 510 511 509
3 512 513 511
3 516 515 514
3 332 333 514
3 333 516 514
3 333 517 516
3 518 333 334
3 518 517 333
3 519 334 336
3 519 518 334
3 521 519 520
3 519 338 520
3 519 336 338
3 324 502 522
3 520 324 522
3 523 520 522
3 338 324 520
3 524 523 522
3 505 504 342
3 343 505 342
3 525 505 343
3 342 504 330
3 528 527 526
3 345 346 526
3 346 528 526
3 346 529 528
3 530 346 347
3 530 529 346
3 531 347 349
3 531 530 347
3 351 506 507
3 531 351 507
3 349 351 531
3 506 351 353
3 506 353 510
3 510 353 355
3 532 510 355
3 512 510 532
3 513 512 533
3 512 534 533
3 512 532 534
3 534 535 533
3 514 515 358
3 515 357 358
3 515 536 357
3 514 358 332
3 521 520 537
3 521 537 538
3 539 520 523
3 537 520 539
3 523 524 540
3 541 523 540
3 539 523 541
3 542 541 540
3 364 544 543
3 525 364 543
3 343 364 525
3 544 545 543
3 548 547 546
3 366 367 546
3 367 548 546
3 367 549 548
3 368 526 527
3 549 368 527
3 367 368 549
3 526 368 345
3 370 532 355
3 532 370 371
3 532 371 534
3 551 550 373
3 373 550 371
3 550 535 371
3 535 534 371
3 551 552 550
3 555 554 553
3 557 556 553
3 553 556 555
3 375 376 557
3 376 556 557
3 376 558 556
3 376 357 536
3 376 536 558
3 538 537 559
3 538 559 560
3 561 537 539
3 559 537 561
3 562 539 541
3 561 539 562
3 541 542 563
3 541 563 562
3 383 564 384
3 544 364 384
3 564 544 384
3 565 544 564
3 545 544 566
3 544 567 566
3 544 565 567
3 569 568 567
3 567 568 566
3 568 569 547
3 547 569 546
3 569 385 546
3 385 386 546
3 546 386 366
3 388 551 373
3 571 570 390
3 390 570 388
3 570 552 388
3 552 551 388
3 573 572 571
3 571 572 570
3 576 575 574
3 576 574 554
3 554 574 553
3 574 392 553
3 392 393 553
3 553 393 394
3 553 394 557
3 557 394 375
3 579 578 577
3 577 578 560
3 577 560 559
3 398 577 559
3 399 398 559
3 399 559 401
3 559 580 401
3 559 561 580
3 581 561 562
3 580 561 581
3 583 582 563
3 582 584 563
3 404 563 584
3 563 404 562
3 403 562 404
3 562 403 582
3 582 581 562
3 583 581 582
3 582 403 584
3 564 383 404
3 584 564 404
3 585 564 584
3 585 406 407
3 565 585 407
3 564 585 565
3 565 407 408
3 565 408 567
3 567 408 410
3 567 410 569
3 569 410 385
3 587 586 571
3 390 587 571
3 412 587 390
3 571 586 573
3 573 586 588
3 575 589 574
3 392 574 589
3 590 392 589
3 414 392 590
3 593 592 591
3 591 592 579
3 591 579 577
3 420 591 577
3 421 420 577
3 421 577 398
3 594 423 580
3 580 423 401
3 581 596 595
3 594 581 595
3 580 581 594
3 425 597 403
3 425 581 597
3 581 425 596
3 598 596 425
3 596 598 583
3 597 583 598
3 598 584 597
3 597 584 403
3 581 583 597
3 598 427 428
3 585 598 428
3 584 598 585
3 585 428 406
3 601 600 599
3 600 587 599
3 587 431 599
3 587 412 431
3 432 414 602
3 414 603 602
3 414 590 603
3 604 433 432
3 604 432 602
3 605 434 433
3 605 433 604
3 434 605 606
3 607 434 606
3 435 434 607
3 607 609 608
3 436 607 608
3 435 607 436
3 610 593 591
3 436 610 591
3 437 436 591
3 610 436 608
3 437 591 420
3 594 438 423
3 439 438 594
3 611 439 594
3 595 611 594
3 612 439 611
3 442 598 425
3 440 439 612
3 598 442 427
3 601 599 444
3 445 601 444
3 613 601 445
3 444 599 431
3 603 614 602
3 602 614 604
3 604 614 615
3 604 615 605
3 605 615 616
3 605 616 606
3 609 617 608
3 608 617 610
3 611 618 612
3 440 612 618
3 619 440 618
3 447 440 619
3 449 620 448
3 620 621 448
3 621 445 448
3 621 613 445
3 623 622 452
3 452 622 451
3 452 447 619
3 452 619 623
3 625 624 455
3 625 455 456
3 449 455 620
3 455 626 620
3 455 624 626
3 620 626 621
3 622 458 451
3 627 458 622
3 629 628 459
3 629 459 460
3 456 459 625
3 625 459 628
3 632 631 630
3 627 632 630
3 462 627 630
3 458 627 462
3 635 634 633
3 463 464 633
3 634 463 633
3 636 463 634
3 460 463 629
3 629 463 636
3 630 631 637
3 637 631 638
3 637 466 462
3 637 462 630
3 635 633 468
3 469 635 468
3 639 635 469
3 468 633 464
3 638 640 637
3 466 637 640
3 641 466 640
3 471 466 641
3 644 643 642
3 473 474 642
3 643 473 642
3 645 473 643
3 469 475 639
3 646 639 475
3 639 646 645
3 477 645 646
3 645 477 473
3 478 646 475
3 641 647 471
3 471 647 479
3 481 479 647
3 481 647 648
3 651 650 649
3 653 652 649
3 653 649 650
3 655 654 652
3 655 652 653
3 483 484 654
3 655 483 654
3 656 483 655
3 642 485 644
3 485 656 644
3 485 483 656
3 485 642 474
3 646 486 477
3 486 646 478
3 659 658 657
3 661 660 658
3 658 660 657
3 661 662 660
3 648 663 481
3 481 663 487
3 487 664 488
3 663 664 487
3 664 666 665
3 489 664 665
3 488 664 489
3 489 665 667
3 668 489 667
3 490 489 668
3 649 491 651
3 491 668 651
3 491 490 668
3 491 649 492
3 492 649 652
3 492 652 493
3 493 652 654
3 493 654 484
3 658 659 669
3 669 659 670
3 658 671 661
3 658 669 671
3 662 661 672
3 672 661 671
3 666 673 665
3 665 673 667
3 670 674 669
3 669 674 671
3 671 674 675
3 671 675 672
3 678 677 676
3 680 679 676
3 676 679 678
3 680 681 679
3 684 683 682
3 684 682 677
3 682 676 677
3 682 685 676
3 687 680 686
3 680 685 686
3 680 676 685
3 680 687 681
3 683 688 682
3 682 688 685
3 685 688 689
3 685 689 686
3 690 495 496
3 497 690 496
3 692 691 690
3 691 495 690
3 691 498 495
3 692 690 497
3 499 692 497
3 693 692 499
3 695 693 694
3 693 500 694
3 693 499 500
3 501 694 500
3 696 502 503
3 498 691 697
3 696 498 697
3 698 696 697
3 503 498 696
3 700 699 698
3 700 698 697
3 699 700 695
3 694 699 695
3 701 699 694
3 505 701 501
3 501 701 694
3 704 703 702
3 706 705 702
3 702 705 704
3 708 707 706
3 706 707 705
3 507 508 708
3 508 707 708
3 508 709 707
3 710 508 509
3 710 709 508
3 711 509 511
3 711 710 509
3 511 513 711
3 711 513 712
3 714 713 516
3 516 713 515
3 715 516 517
3 715 714 516
3 717 715 716
3 715 518 716
3 715 517 518
3 519 718 518
3 518 718 716
3 521 718 519
3 696 522 502
3 522 696 524
3 696 719 524
3 696 698 719
3 720 698 699
3 719 698 720
3 721 699 701
3 720 699 721
3 525 721 505
3 505 721 701
3 724 723 722
3 527 528 722
3 528 724 722
3 528 725 724
3 529 702 703
3 725 529 703
3 528 529 725
3 702 529 530
3 702 530 706
3 706 530 531
3 706 531 708
3 708 531 507
3 726 712 513
3 726 513 533
3 728 727 535
3 727 533 535
3 727 726 533
3 728 729 727
3 713 536 515
3 730 536 713
3 717 716 731
3 717 731 732
3 733 716 718
3 731 716 733
3 538 733 521
3 521 733 718
3 719 540 524
3 540 719 542
3 719 734 542
3 719 720 734
3 735 720 721
3 734 720 735
3 543 736 525
3 736 721 525
3 736 735 721
3 545 736 543
3 739 738 737
3 547 548 737
3 548 739 737
3 548 740 739
3 549 722 723
3 740 549 723
3 548 549 740
3 722 549 527
3 550 728 535
3 742 741 552
3 552 741 550
3 741 729 550
3 729 728 550
3 742 743 741
3 744 554 555
3 556 745 555
3 555 745 744
3 745 556 746
3 556 747 746
3 556 558 747
3 558 536 730
3 558 730 747
3 732 731 748
3 732 748 749
3 750 731 733
3 748 731 750
3 560 750 538
3 538 750 733
3 751 563 734
3 734 563 542
3 735 753 752
3 751 735 752
3 734 735 751
3 753 735 736
3 753 736 754
3 754 736 545
3 566 754 545
3 755 754 566
3 568 737 738
3 755 568 738
3 566 568 755
3 737 568 547
3 742 552 570
3 758 757 756
3 572 742 570
3 742 572 743
3 759 743 572
3 743 759 758
3 757 758 759
3 760 575 576
3 761 760 576
3 761 576 554
3 762 761 554
3 744 762 554
3 762 744 745
3 762 745 763
3 763 745 746
3 766 765 764
3 764 765 749
3 748 764 749
3 767 764 748
3 579 767 578
3 767 750 578
3 767 748 750
3 578 750 560
3 768 583 751
3 751 583 563
3 751 752 769
3 751 769 768
3 756 757 586
3 587 756 586
3 770 756 587
3 586 757 588
3 588 757 759
3 760 589 575
3 772 771 590
3 772 590 589
3 761 772 589
3 760 761 589
3 774 773 771
3 774 771 772
3 776 775 773
3 776 773 774
3 778 777 775
3 778 775 776
3 777 778 766
3 764 777 766
3 779 777 764
3 593 779 592
3 779 767 592
3 779 764 767
3 592 767 579
3 780 595 596
3 583 768 596
3 768 780 596
3 768 781 780
3 768 769 782
3 768 782 781
3 784 783 600
3 784 600 601
3 587 600 770
3 770 600 783
3 785 603 771
3 771 603 590
3 786 771 773
3 785 771 786
3 787 773 775
3 786 773 787
3 606 787 607
3 787 777 607
3 787 775 777
3 607 777 609
3 777 788 609
3 777 779 788
3 610 788 593
3 593 788 779
3 789 611 780
3 780 611 595
3 781 791 790
3 789 781 790
3 780 781 789
3 791 781 782
3 794 793 792
3 793 784 792
3 784 613 792
3 784 601 613
3 785 614 603
3 614 785 615
3 615 785 786
3 615 786 616
3 616 786 787
3 616 787 606
3 788 617 609
3 617 788 610
3 789 618 611
3 619 618 789
3 790 619 789
3 795 619 790
3 798 797 796
3 796 797 794
3 792 796 794
3 799 796 792
3 621 799 613
3 613 799 792
3 801 800 623
3 623 800 622
3 623 619 795
3 623 795 801
3 804 803 802
3 802 803 798
3 802 798 796
3 625 802 796
3 624 625 796
3 624 796 626
3 626 796 799
3 626 799 621
3 807 806 805
3 800 807 805
3 627 800 805
3 622 800 627
3 810 809 808
3 808 809 804
3 808 804 802
3 629 808 802
3 628 629 802
3 628 802 625
3 805 806 632
3 806 631 632
3 806 811 631
3 805 632 627
3 813 812 634
3 813 634 635
3 808 636 810
3 636 812 810
3 636 634 812
3 636 808 629
3 815 638 814
3 638 811 814
3 638 631 811
3 816 815 814
3 819 818 817
3 821 820 817
3 821 817 818
3 821 813 820
3 813 639 820
3 813 635 639
3 815 640 638
3 823 822 641
3 823 641 640
3 816 823 640
3 815 816 640
3 824 822 823
3 827 826 825
3 829 828 825
3 829 825 826
3 828 829 819
3 828 819 817
3 644 828 817
3 643 644 817
3 643 817 645
3 645 817 820
3 645 820 639
3 822 647 641
3 831 830 648
3 831 648 647
3 824 831 647
3 822 824 647
3 833 832 830
3 833 830 831
3 835 834 832
3 835 832 833
3 837 836 834
3 837 834 835
3 650 651 836
3 837 650 836
3 838 650 837
3 650 839 653
3 838 839 650
3 825 655 827
3 655 839 827
3 655 653 839
3 655 825 656
3 656 825 828
3 656 828 644
3 840 659 657
3 660 841 657
3 657 841 840
3 662 841 660
3 830 663 648
3 663 830 664
3 664 830 832
3 664 832 666
3 832 842 666
3 832 834 842
3 667 842 668
3 842 836 668
3 842 834 836
3 668 836 651
3 843 670 840
3 840 670 659
3 841 845 844
3 843 841 844
3 840 841 843
3 841 662 845
3 662 846 845
3 662 672 846
3 842 673 666
3 673 842 667
3 843 674 670
3 675 674 843
3 847 675 843
3 844 847 843
3 848 675 847
3 848 849 675
3 849 672 675
3 849 846 672
3 852 851 850
3 852 850 847
3 850 848 847
3 850 853 848
3 849 848 854
3 854 848 853
3 850 851 678
3 851 677 678
3 851 855 677
3 850 678 679
3 850 679 853
3 857 856 681
3 681 856 679
3 856 854 679
3 854 853 679
3 857 858 856
3 859 683 684
3 860 859 684
3 677 860 684
3 855 860 677
3 686 861 687
3 857 681 687
3 861 857 687
3 862 857 861
3 858 857 863
3 863 857 862
3 859 688 683
3 860 864 859
3 864 688 859
3 864 689 688
3 689 864 686
3 864 865 686
3 865 861 686
3 865 864 866
3 868 862 867
3 862 865 867
3 862 861 865
3 862 868 863
3 869 691 692
3 693 870 692
3 692 870 869
3 695 870 693
3 873 872 871
3 875 874 871
3 871 874 873
3 877 876 875
3 875 876 874
3 877 878 876
3 869 697 691
3 697 869 700
3 700 869 870
3 700 870 695
3 881 880 879
3 703 704 879
3 704 881 879
3 704 882 881
3 883 704 705
3 883 882 704
3 884 705 707
3 884 883 705
3 709 871 872
3 884 709 872
3 707 709 884
3 871 709 710
3 871 710 875
3 875 710 711
3 875 711 877
3 886 885 712
3 712 885 711
3 885 878 711
3 878 877 711
3 886 887 885
3 888 713 714
3 715 889 714
3 714 889 888
3 717 889 715
3 892 891 890
3 723 724 890
3 724 892 890
3 724 893 892
3 725 879 880
3 893 725 880
3 724 725 893
3 879 725 703
3 726 886 712
3 894 887 886
3 726 894 886
3 727 894 726
3 727 729 894
3 894 729 895
3 896 730 888
3 888 730 713
3 897 888 889
3 896 888 897
3 732 897 717
3 717 897 889
3 899 898 739
3 739 898 738
3 740 890 891
3 899 740 891
3 739 740 899
3 890 740 723
3 729 741 900
3 901 729 900
3 895 729 901
3 743 900 741
3 902 746 747
3 730 896 747
3 896 902 747
3 896 903 902
3 904 896 897
3 903 896 904
3 749 904 732
3 732 904 897
3 905 752 753
3 754 906 753
3 753 906 905
3 906 754 907
3 754 908 907
3 754 755 908
3 755 738 898
3 755 898 908
3 901 900 758
3 756 901 758
3 909 901 756
3 758 900 743
3 910 761 762
3 763 911 762
3 762 911 910
3 746 902 763
3 902 911 763
3 902 912 911
3 913 902 903
3 912 902 913
3 766 913 765
3 913 904 765
3 913 903 904
3 765 904 749
3 914 769 905
3 905 769 752
3 906 916 915
3 914 906 915
3 905 906 914
3 916 906 907
3 919 918 917
3 918 909 917
3 909 770 917
3 909 756 770
3 910 772 761
3 772 910 774
3 774 910 911
3 774 911 776
3 776 911 912
3 776 912 778
3 778 912 913
3 778 913 766
3 921 920 914
3 920 769 914
3 920 782 769
3 921 914 915
3 919 917 783
3 784 919 783
3 922 919 784
3 783 917 770
3 924 923 791
3 791 923 790
3 791 782 920
3 791 920 924
3 926 925 793
3 926 793 794
3 784 793 922
3 922 793 925
3 929 928 927
3 923 929 927
3 795 923 927
3 790 923 795
3 931 930 797
3 931 797 798
3 794 797 926
3 926 797 930
3 927 928 801
3 928 800 801
3 928 932 800
3 927 801 795
3 934 933 803
3 934 803 804
3 798 803 931
3 931 803 933
3 936 935 807
3 807 935 806
3 807 800 932
3 807 932 936
3 938 937 809
3 938 809 810
3 804 809 934
3 934 809 937
3 940 811 939
3 811 935 939
3 811 806 935
3 941 940 939
3 944 943 942
3 812 813 942
3 943 812 942
3 945 812 943
3 810 812 938
3 938 812 945
3 940 814 811
3 947 946 816
3 947 816 814
3 941 947 814
3 940 941 814
3 948 946 947
3 951 950 949
3 818 819 949
3 950 818 949
3 952 818 950
3 942 821 944
3 821 952 944
3 821 818 952
3 821 942 813
3 946 823 816
3 954 953 824
3 954 824 823
3 948 954 823
3 946 948 823
3 956 955 953
3 956 953 954
3 958 957 955
3 958 955 956
3 960 959 957
3 960 957 958
3 962 961 959
3 962 959 960
3 964 963 961
3 964 961 962
3 826 827 963
3 964 826 963
3 965 826 964
3 949 829 951
3 829 965 951
3 829 826 965
3 829 949 819
3 953 831 824
3 831 953 833
3 833 953 955
3 833 955 835
3 835 955 957
3 835 957 837
3 837 957 959
3 837 959 838
3 838 959 961
3 838 961 839
3 839 961 963
3 839 963 827
3 966 844 845
3 846 966 845
3 967 847 966
3 966 847 844
3 849 967 846
3 846 967 966
3 968 851 852
3 847 967 852
3 967 968 852
3 967 969 968
3 854 969 849
3 849 969 967
3 970 855 968
3 968 855 851
3 971 968 969
3 970 968 971
3 856 972 854
3 972 969 854
3 972 971 969
3 858 972 856
3 973 860 970
3 970 860 855
3 974 970 971
3 973 970 974
3 975 971 972
3 974 971 975
3 863 975 858
3 858 975 972
3 973 864 860
3 864 973 866
3 973 976 866
3 973 974 976
3 867 976 868
3 976 975 868
3 976 974 975
3 868 975 863
3 979 978 977
3 981 980 977
3 977 980 979
3 983 982 981
3 981 982 980
3 872 873 983
3 873 982 983
3 873 984 982
3 985 873 874
3 985 984 873
3 986 874 876
3 986 985 874
3 988 987 878
3 987 876 878
3 987 986 876
3 988 989 987
3 991 990 881
3 881 990 880
3 882 977 978
3 991 882 978
3 881 882 991
3 977 882 883
3 977 883 981
3 981 883 884
3 981 884 983
3 983 884 872
3 885 988 878
3 993 992 887
3 887 992 885
3 992 989 885
3 989 988 885
3 993 994 992
3 996 995 892
3 892 995 891
3 997 892 893
3 997 996 892
3 893 880 990
3 893 990 997
3 894 993 887
3 894 895 993
3 895 994 993
3 895 998 994
3 999 898 899
3 1000 999 899
3 891 1000 899
3 995 1000 891
3 1003 1002 1001
3 1002 998 1001
3 998 901 1001
3 998 895 901
3 1006 1005 1004
3 907 908 1004
3 908 1006 1004
3 908 1007 1006
3 908 898 999
3 1008 908 999
3 1007 908 1008
3 1008 999 1000
3 1003 1001 1009
3 1003 1009 1010
3 909 1009 901
3 901 1009 1001
3 1013 1012 1011
3 1013 1011 1005
3 1005 1011 1004
3 1011 915 1004
3 915 916 1004
3 1004 916 907
3 1016 1015 1014
3 1014 1015 1010
3 1014 1010 1009
3 919 1014 1009
3 918 919 1009
3 918 1009 909
3 1011 1012 921
3 1012 920 921
3 1012 1017 920
3 1011 921 915
3 1016 1014 1018
3 1016 1018 1019
3 922 1018 919
3 919 1018 1014
3 1021 1020 924
3 924 1020 923
3 924 920 1017
3 924 1017 1021
3 1024 1023 1022
3 1022 1023 1019
3 1022 1019 1018
3 926 1022 1018
3 925 926 1018
3 925 1018 922
3 1026 1025 929
3 929 1025 928
3 929 923 1020
3 929 1020 1026
3 1029 1028 1027
3 1031 1030 1027
3 1031 1027 1028
3 1030 1031 1024
3 1030 1024 1022
3 931 1030 1022
3 930 931 1022
3 930 1022 926
3 1025 932 928
3 1032 932 1025
3 1029 1027 1033
3 1029 1033 1034
3 934 1033 933
3 1033 1030 933
3 1033 1027 1030
3 933 1030 931
3 1035 935 936
3 1036 1035 936
3 932 1036 936
3 1032 1036 932
3 1039 1038 1037
3 1041 1040 1037
3 1041 1037 1038
3 1040 1041 1034
3 1040 1034 1033
3 938 1040 1033
3 937 938 1033
3 937 1033 934
3 1035 939 935
3 1043 1042 941
3 1043 941 939
3 1036 1043 939
3 1035 1036 939
3 1044 1042 1043
3 1047 1046 1045
3 1049 1048 1045
3 1049 1045 1046
3 1048 1049 1039
3 1048 1039 1037
3 944 1048 1037
3 943 944 1037
3 943 1037 945
3 945 1037 1040
3 945 1040 938
3 1042 947 941
3 1051 1050 948
3 1051 948 947
3 1044 1051 947
3 1042 1044 947
3 1053 1052 1050
3 1053 1050 1051
3 1055 1054 1052
3 1055 1052 1053
3 1057 1056 1054
3 1057 1054 1055
3 1059 1058 1056
3 1059 1056 1057
3 1061 1060 1058
3 1061 1058 1059
3 1063 1062 1060
3 1063 1060 1061
3 1062 1063 1047
3 1062 1047 1045
3 951 1062 1045
3 950 951 1045
3 950 1045 952
3 952 1045 1048
3 952 1048 944
3 1050 954 948
3 954 1050 956
3 956 1050 1052
3 956 1052 958
3 958 1052 1054
3 958 1054 960
3 960 1054 1056
3 960 1056 962
3 962 1056 1058
3 962 1058 964
3 964 1058 1060
3 964 1060 965
3 965 1060 1062
3 965 1062 951
3 1064 978 979
3 1064 979 1065
3 979 1066 1065
3 979 980 1066
3 1067 980 982
3 1067 1066 980
3 1068 982 984
3 1068 1067 982
3 1069 984 985
3 1069 1068 984
3 1070 985 986
3 1070 1069 985
3 1071 986 987
3 1071 1070 986
3 987 989 1071
3 1071 989 1072
3 1074 1073 991
3 991 1073 990
3 991 978 1064
3 1075 991 1064
3 1074 991 1075
3 1075 1064 1065
3 989 992 1076
3 1077 989 1076
3 1072 989 1077
3 994 1076 992
3 1078 995 996
3 1078 996 1079
3 996 1080 1079
3 996 997 1080
3 997 990 1073
3 997 1073 1080
3 1077 1076 1081
3 1077 1081 1082
3 998 1081 994
3 994 1081 1076
3 1083 1000 1078
3 1078 1000 995
3 1078 1079 1084
3 1085 1078 1084
3 1083 1078 1085
3 1086 1085 1084
3 1082 1081 1002
3 1003 1082 1002
3 1087 1082 1003
3 1002 1081 998
3 1088 1005 1006
3 1007 1089 1006
3 1006 1089 1088
3 1008 1090 1007
3 1007 1090 1089
3 1000 1083 1008
3 1083 1090 1008
3 1083 1091 1090
3 1092 1083 1085
3 1091 1083 1092
3 1085 1086 1093
3 1094 1085 1093
3 1092 1085 1094
3 1095 1094 1093
3 1098 1097 1096
3 1097 1087 1096
3 1087 1010 1096
3 1087 1003 1010
3 1099 1012 1013
3 1005 1088 1013
3 1088 1099 1013
3 1088 1100 1099
3 1101 1088 1089
3 1100 1088 1101
3 1102 1089 1090
3 1101 1089 1102
3 1103 1090 1091
3 1102 1090 1103
3 1104 1091 1092
3 1103 1091 1104
3 1105 1092 1094
3 1104 1092 1105
3 1094 1095 1106
3 1094 1106 1105
3 1098 1096 1015
3 1016 1098 1015
3 1107 1098 1016
3 1015 1096 1010
3 1109 1108 1099
3 1108 1012 1099
3 1108 1017 1012
3 1111 1110 1109
3 1099 1111 1109
3 1100 1111 1099
3 1112 1100 1101
3 1111 1100 1112
3 1113 1101 1102
3 1112 1101 1113
3 1114 1102 1103
3 1113 1102 1114
3 1115 1103 1104
3 1114 1103 1115
3 1116 1104 1105
3 1115 1104 1116
3 1105 1106 1117
3 1105 1117 1116
3 1120 1119 1118
3 1122 1121 1118
3 1122 1118 1119
3 1122 1107 1121
3 1107 1019 1121
3 1107 1016 1019
3 1124 1123 1021
3 1021 1123 1020
3 1021 1017 1108
3 1021 1108 1124
3 1125 1110 1111
3 1127 1126 1125
3 1111 1127 1125
3 1112 1127 1111
3 1128 1112 1113
3 1127 1112 1128
3 1129 1113 1114
3 1128 1113 1129
3 1130 1114 1115
3 1129 1114 1130
3 1116 1132 1131
3 1130 1116 1131
3 1115 1116 1130
3 1132 1116 1117
3 1135 1134 1133
3 1133 1134 1120
3 1118 1133 1120
3 1136 1133 1118
3 1024 1136 1023
3 1136 1121 1023
3 1136 1118 1121
3 1023 1121 1019
3 1138 1137 1026
3 1026 1137 1025
3 1026 1020 1123
3 1026 1123 1138
3 1139 1126 1127
3 1141 1140 1139
3 1127 1141 1139
3 1128 1141 1127
3 1142 1128 1129
3 1141 1128 1142
3 1143 1129 1130
3 1142 1129 1143
3 1130 1131 1144
3 1130 1144 1143
3 1147 1146 1145
3 1145 1146 1135
3 1145 1135 1133
3 1029 1145 1133
3 1028 1029 1133
3 1028 1133 1031
3 1031 1133 1136
3 1031 1136 1024
3 1137 1032 1025
3 1148 1032 1137
3 1149 1140 1141
3 1149 1141 1142
3 1149 1142 1150
3 1150 1142 1143
3 1150 1143 1151
3 1151 1143 1144
3 1154 1153 1152
3 1152 1153 1147
3 1145 1152 1147
3 1155 1152 1145
3 1034 1155 1029
3 1029 1155 1145
3 1148 1036 1032
3 1156 1036 1148
3 1159 1158 1157
3 1161 1160 1157
3 1161 1157 1158
3 1160 1161 1154
3 1160 1154 1152
3 1039 1160 1152
3 1038 1039 1152
3 1038 1152 1041
3 1041 1152 1155
3 1041 1155 1034
3 1156 1162 1036
3 1036 1162 1043
3 1164 1163 1044
3 1043 1164 1044
3 1162 1164 1043
3 1166 1165 1163
3 1166 1163 1164
3 1168 1167 1165
3 1168 1165 1166
3 1170 1169 1167
3 1170 1167 1168
3 1172 1171 1169
3 1172 1169 1170
3 1174 1173 1171
3 1174 1171 1172
3 1176 1175 1173
3 1176 1173 1174
3 1175 1176 1159
3 1175 1159 1157
3 1047 1175 1157
3 1046 1047 1157
3 1046 1157 1049
3 1049 1157 1160
3 1049 1160 1039
3 1163 1051 1044
3 1051 1163 1053
3 1053 1163 1165
3 1053 1165 1055
3 1055 1165 1167
3 1055 1167 1057
3 1057 1167 1169
3 1057 1169 1059
3 1059 1169 1171
3 1059 1171 1061
3 1061 1171 1173
3 1061 1173 1063
3 1063 1173 1175
3 1063 1175 1047
3 1177 1065 1066
3 1177 1066 1178
3 1066 1179 1178
3 1066 1067 1179
3 1181 1179 1180
3 1179 1068 1180
3 1179 1067 1068
3 1069 1182 1068
3 1068 1182 1180
3 1070 1183 1069
3 1069 1183 1182
3 1183 1070 1184
3 1070 1185 1184
3 1070 1071 1185
3 1071 1072 1185
3 1185 1072 1186
3 1187 1073 1074
3 1075 1188 1074
3 1074 1188 1187
3 1189 1188 1075
3 1189 1075 1065
3 1190 1189 1065
3 1177 1190 1065
3 1190 1177 1178
3 1191 1181 1180
3 1193 1192 1191
3 1180 1193 1191
3 1182 1193 1180
3 1183 1195 1194
3 1193 1183 1194
3 1182 1183 1193
3 1195 1183 1184
3 1077 1186 1072
3 1077 1196 1186
3 1197 1079 1080
3 1073 1187 1080
3 1187 1197 1080
3 1187 1198 1197
3 1199 1187 1188
3 1198 1187 1199
3 1188 1189 1200
3 1201 1188 1200
3 1199 1188 1201
3 1203 1202 1201
3 1203 1201 1200
3 1205 1204 1202
3 1205 1202 1203
3 1204 1205 1192
3 1193 1204 1192
3 1206 1204 1193
3 1193 1194 1207
3 1193 1207 1206
3 1082 1196 1077
3 1082 1208 1196
3 1197 1084 1079
3 1084 1197 1086
3 1197 1209 1086
3 1197 1198 1209
3 1210 1198 1199
3 1209 1198 1210
3 1211 1199 1201
3 1210 1199 1211
3 1212 1201 1202
3 1211 1201 1212
3 1213 1202 1204
3 1212 1202 1213
3 1214 1204 1206
3 1213 1204 1214
3 1206 1207 1215
3 1206 1215 1214
3 1218 1217 1216
3 1217 1208 1216
3 1208 1087 1216
3 1208 1082 1087
3 1209 1093 1086
3 1093 1209 1095
3 1209 1219 1095
3 1209 1210 1219
3 1220 1210 1211
3 1219 1210 1220
3 1221 1211 1212
3 1220 1211 1221
3 1222 1212 1213
3 1221 1212 1222
3 1223 1213 1214
3 1222 1213 1223
3 1214 1215 1224
3 1225 1214 1224
3 1223 1214 1225
3 1225 1224 1218
3 1225 1218 1216
3 1098 1225 1216
3 1097 1098 1216
3 1097 1216 1087
3 1226 1106 1219
3 1219 1106 1095
3 1227 1219 1220
3 1226 1219 1227
3 1228 1220 1221
3 1227 1220 1228
3 1229 1221 1222
3 1228 1221 1229
3 1230 1222 1223
3 1229 1222 1230
3 1231 1223 1225
3 1230 1223 1231
3 1107 1231 1098
3 1098 1231 1225
3 1232 1108 1109
3 1110 1232 1109
3 1233 1117 1226
3 1226 1117 1106
3 1234 1226 1227
3 1233 1226 1234
3 1235 1227 1228
3 1234 1227 1235
3 1236 1228 1229
3 1235 1228 1236
3 1120 1236 1119
3 1236 1230 1119
3 1236 1229 1230
3 1119 1230 1122
3 1122 1230 1231
3 1122 1231 1107
3 1237 1123 1124
3 1108 1232 1124
3 1232 1237 1124
3 1232 1238 1237
3 1125 1239 1110
3 1239 1232 1110
3 1239 1238 1232
3 1126 1239 1125
3 1240 1131 1132
3 1117 1233 1132
3 1233 1240 1132
3 1233 1241 1240
3 1242 1233 1234
3 1241 1233 1242
3 1243 1234 1235
3 1242 1234 1243
3 1135 1243 1134
3 1243 1236 1134
3 1243 1235 1236
3 1134 1236 1120
3 1244 1137 1138
3 1123 1237 1138
3 1237 1244 1138
3 1237 1245 1244
3 1246 1237 1238
3 1245 1237 1246
3 1247 1238 1239
3 1246 1238 1247
3 1139 1248 1126
3 1248 1239 1126
3 1248 1247 1239
3 1140 1248 1139
3 1249 1144 1240
3 1240 1144 1131
3 1250 1240 1241
3 1249 1240 1250
3 1251 1241 1242
3 1250 1241 1251
3 1147 1251 1146
3 1251 1243 1146
3 1251 1242 1243
3 1146 1243 1135
3 1252 1148 1244
3 1244 1148 1137
3 1253 1244 1245
3 1252 1244 1253
3 1254 1245 1246
3 1253 1245 1254
3 1255 1246 1247
3 1254 1246 1255
3 1256 1247 1248
3 1255 1247 1256
3 1149 1257 1140
3 1257 1248 1140
3 1257 1256 1248
3 1150 1258 1149
3 1149 1258 1257
3 1151 1259 1150
3 1150 1259 1258
3 1144 1249 1151
3 1249 1259 1151
3 1249 1260 1259
3 1261 1249 1250
3 1260 1249 1261
3 1154 1261 1153
3 1261 1251 1153
3 1261 1250 1251
3 1153 1251 1147
3 1262 1156 1252
3 1252 1156 1148
3 1263 1252 1253
3 1262 1252 1263
3 1264 1253 1254
3 1263 1253 1264
3 1265 1254 1255
3 1264 1254 1265
3 1266 1255 1256
3 1265 1255 1266
3 1267 1256 1257
3 1266 1256 1267
3 1268 1257 1258
3 1267 1257 1268
3 1269 1258 1259
3 1268 1258 1269
3 1159 1269 1158
3 1269 1260 1158
3 1269 1259 1260
3 1158 1260 1161
3 1161 1260 1261
3 1161 1261 1154
3 1262 1162 1156
3 1162 1262 1164
3 1164 1262 1263
3 1164 1263 1166
3 1166 1263 1264
3 1166 1264 1168
3 1168 1264 1265
3 1168 1265 1170
3 1170 1265 1266
3 1170 1266 1172
3 1172 1266 1267
3 1172 1267 1174
3 1174 1267 1268
3 1174 1268 1176
3 1176 1268 1269
3 1176 1269 1159
3 1271 1270 1179
3 1179 1270 1178
3 1179 1181 1271
3 1271 1181 1272
3 1274 1273 1185
3 1185 1273 1184
3 1185 1186 1274
3 1274 1186 1275
3 1276 1189 1190
3 1178 1270 1277
3 1276 1178 1277
3 1278 1276 1277
3 1190 1178 1276
3 1279 1278 1191
3 1278 1272 1191
3 1272 1181 1191
3 1272 1278 1277
3 1192 1279 1191
3 1280 1194 1195
3 1281 1280 1195
3 1184 1281 1195
3 1273 1281 1184
3 1196 1275 1186
3 1196 1282 1275
3 1276 1200 1189
3 1200 1276 1203
3 1203 1276 1278
3 1203 1278 1205
3 1205 1278 1279
3 1205 1279 1192
3 1283 1207 1280
3 1280 1207 1194
3 1280 1281 1284
3 1280 1284 1283
3 1208 1282 1196
3 1208 1285 1282
3 1286 1215 1283
3 1283 1215 1207
3 1287 1217 1218
3 1283 1287 1218
3 1286 1283 1218
3 1287 1283 1284
3 1208 1217 1285
3 1285 1217 1287
3 1286 1224 1215
3 1224 1286 1218