OFF
795 1542 0
0.9954263459 7.8269595642 6.9013403903
1.1583135515 7.9217009405 6.0266547100
1.2106616686 7.1980652304 6.2901839559
1.1501239140 7.0069115597 7.0774091319
0.9143244138 7.7398678273 7.8345437142
1.1156962294 6.9195068218 8.0756054727
0.8839908648 7.7063574153 8.8477524659
1.1138362590 6.9048852232 9.1266809291
0.8844065744 7.7140182986 9.8892576076
1.1281464309 6.9483473219 10.1859551645
0.9082196042 7.7538736996 10.9161793891
1.1512127967 7.0533540628 11.2073376928
0.9617273249 7.8027794465 11.8553050353
1.1600545306 7.2381430420 12.0045831350
0.9482240763 8.6751014083 6.7084662588
1.1500972562 8.8424974872 5.8855462497
0.8224538920 8.5898257038 7.6126523026
0.7646486996 8.5516326275 8.5964295895
0.7486938717 8.5447323391 9.6276510446
0.7589319197 8.5590837234 10.6725571865
0.8020728907 8.5835621506 11.7110721803
1.0570107650 7.7501843344 12.5228706376
0.9076789389 8.5568569390 12.7634188592
1.1120857596 8.0132380120 13.2697799540
1.0096582210 8.8054712478 13.7622441167
1.1821397403 8.3344403639 14.0204147442
0.9950096857 9.5260512187 6.5731129558
1.2162975387 9.7589554725 5.8837955562
0.8534734669 9.4443884371 7.4058028534
0.7774155963 9.4141622751 8.3591666948
0.7483241138 9.4058674941 9.3783129526
0.7450059839 9.4113872014 10.4248382380
0.7630208476 9.4348096713 11.4826112243
0.8191197669 9.4828372377 12.5514216263
0.9204226223 9.5363178099 13.5638429092
1.1404762502 8.8990958294 14.4001026917
1.0680514637 9.5158395218 14.3728664126
1.2532525068 9.3298289590 14.8802587025
1.1097003152 10.1959398074 6.5044778351
1.3246725337 10.5252380425 6.1201629197
0.9988541061 10.2250099163 7.1928662304
0.9178981672 10.2408079665 8.1106696362
0.8792153390 10.2471405141 9.1186684467
0.8669313881 10.2514694611 10.1606883664
0.8687672856 10.2656075262 11.2129977609
0.8909855235 10.3168734633 12.2731068142
0.9758734946 10.4769674486 13.3967425871
1.1132690623 10.3508844655 14.3269337934
1.3130822477 10.1049599221 15.0299670871
1.2592258520 10.8633247735 6.8669773574
1.1671435499 10.9937814395 7.8247062670
1.1123550547 11.0415292965 8.8433526917
1.0889365785 11.0545950879 9.8862263959
1.0820773746 11.0586266339 10.9318811491
1.0830292350 11.0722323288 11.9590373369
1.1034434070 11.1319227523 12.9276657869
1.1635264610 11.2732006639 13.6563677020
1.2301153711 11.1545175177 14.2252123514
1.3798563088 11.7066729162 14.0464588697
1.5705769831 11.1632240414 15.0758392845
1.5508771968 11.7525740590 14.5365767608
1.9807750207 4.7570666357 5.7491635374
2.2908069084 4.3992867367 4.9962707841
2.2854063650 4.1510716371 5.5679170698
2.2916277088 4.0548592929 6.1916005115
1.9505413753 4.6726936833 6.7711570996
2.2916434839 4.0251910509 7.1381204730
1.9827769606 4.6362941998 7.7047187147
2.2718761569 4.1182575106 7.9048483534
2.0846615443 5.5885972731 3.9321440565
2.4318177066 5.6657215842 3.1638396780
2.3596705975 5.1218017873 3.6146206122
2.3215409237 4.8012538964 4.1582432827
1.9273158301 5.3241509928 4.8468282087
1.6978577234 5.5627588745 5.6712668160
1.6626604349 5.4474092739 6.5001717364
1.6704834068 5.3617144139 7.5191971659
2.0866501893 4.5323611350 8.3916900085
1.7602858076 5.2592264333 8.6218203350
2.0950719875 4.6736417049 9.1966203488
1.7641693163 5.4275314584 9.8245731731
2.1393165256 4.7605911192 10.2339336222
1.7954915272 5.5356080442 10.9458370461
2.2088139757 4.8104132133 11.3264926651
1.8599303992 5.6041245224 12.0615916450
2.2945822328 4.8647193381 12.4444006706
1.9681981592 5.6421934306 13.1482010041
2.4241626268 4.9332238726 13.5346822087
2.1419310048 5.6768923425 14.1742639595
2.7428949927 4.9804664916 14.6406406967
2.3199782510 5.7171985449 14.9196205781
2.6650914250 5.5053901022 15.3542207305
1.9884374739 6.5111175396 3.6818957474
2.3236954109 6.8177716693 2.8910257029
1.7532351190 6.2852819167 4.5301869645
1.6238883754 6.0875261201 5.2789940564
1.4328875255 6.3358438031 6.1842621930
1.3868443259 6.1766508931 7.2711867923
1.3960196413 6.1129416901 8.3389244348
1.4199262405 6.1385371708 9.4401809880
1.4379765961 6.2450835577 10.5540278986
1.4528482747 6.4594487891 11.7530340987
1.5966354695 6.4623739831 12.8790204982
1.7595019370 6.5128109103 13.9477718061
2.0142650356 6.4993065765 14.9826413538
2.3849225774 6.1023716927 15.5222123893
1.9290714304 7.5564851269 3.5483460462
2.2648111813 7.8903463653 2.8070071287
1.6600185872 7.2877502145 4.3893324449
1.4383891798 7.0157219891 5.3749731674
1.2800773843 7.2180757958 12.6975975601
1.4049122574 7.4871867687 13.7772515204
1.6812166485 7.4724129981 14.8410979252
2.2051292708 6.7150989336 15.7395159961
2.0031220003 7.4403170917 15.8131555119
2.3216995431 7.0399691298 16.2097992410
1.9263600418 8.5985941940 3.5022544263
2.2851601059 8.8941187087 2.7997396138
1.6381509011 8.3358180946 4.3005282508
1.3855323174 8.0825754148 5.1538641893
1.3931143274 8.5051581415 14.7754060144
1.7455455123 8.4569160758 15.7062371674
2.3298045266 7.5329186697 16.5471437899
2.0506944309 8.3248978621 16.4560779695
2.3032931849 8.0494880504 16.8094914716
2.1955870436 9.0052911474 16.9128545941
1.9909166251 9.5865818449 3.4904933364
2.3674883736 9.8523144850 2.8586805858
1.6916475136 9.3849760060 4.2852676963
1.4096860592 9.1203674369 5.1045253195
1.5848084704 9.5679010426 15.5888330912
2.0299698450 9.4228093108 16.4862939967
2.4433887094 9.7466815719 17.0945579371
2.4280520849 9.5393080113 17.2139374698
2.1175948718 10.4194395950 3.4756265089
2.4228838486 10.5941498822 3.0449146275
1.8556499012 10.3403217772 4.2105759881
1.5532481774 10.2719694565 5.2308533896
1.6401087705 10.5341030818 15.6112054368
2.0631878193 10.5091779713 16.2482310934
2.4968279773 10.3315652382 16.8475848907
2.2945133374 10.9583279140 3.4478296412
2.1266479064 11.0372446543 3.9832196197
2.3637012018 11.2994787965 3.6997107009
1.9512422831 11.1858210945 4.8959504151
1.6932969175 11.4271129712 6.2025422006
1.5124067444 11.6858847016 7.4744374571
1.4188442595 11.8007795298 8.5615411180
1.3680760969 11.8281842254 9.6197334698
1.3527159808 11.8309127596 10.6667726499
1.3480015619 11.8159046589 11.6922845342
1.3443284636 11.7908269591 12.6430942519
1.3739310773 11.7946627406 13.4703636380
1.9506257803 11.1297551931 15.8247158941
2.5142430418 11.3956511046 16.2626446179
2.5733383733 10.9399648777 16.6535899237
2.5250043350 11.7683434007 4.2807521598
2.2337531219 12.0493264414 5.5203550334
2.0931166375 12.3011753258 6.4058347613
1.9018610129 12.3271135726 7.1700967018
2.2694334486 12.7983424731 6.9308489775
1.8050491776 12.5798846326 8.2840603037
1.6812655732 12.5696527941 9.3682268488
1.6582437084 12.5770462702 10.4063750404
1.6607486978 12.5540775743 11.4426318859
1.6571578281 12.4808549687 12.4340738015
1.6249477056 12.3284217953 13.2151069712
1.8338954787 12.3706281435 14.0797713702
2.0149602368 12.0979584803 14.9658877656
2.2140894924 11.7708885078 15.6305581754
2.1902378903 13.0232932923 7.7163184213
2.1030347021 13.2363833086 8.4876791356
1.9840048371 13.2003542704 9.1714167344
2.2204936990 13.5661027980 8.9459110611
1.9922633390 13.2342530652 10.1113843614
2.0468619401 13.2276818571 11.1433456396
2.0649290626 13.1462612362 12.1849759839
2.0678880561 12.9758193214 13.2336940274
2.3828920556 13.0402186613 14.0057104798
2.6008518010 12.7541047338 14.7393101873
2.2562175576 13.6707515811 9.7023575308
2.5307761395 13.7711077319 10.7262290701
2.6243350613 13.6613753406 11.8163914681
2.5976435415 13.5157862816 12.8288433714
2.6071171337 13.3735537465 13.5753599205
2.7205473608 3.6136436039 5.4995368924
3.2295451077 3.2932924015 4.8365207957
3.2240936370 3.0559888885 5.4580725231
3.2296860395 2.9263975245 6.1168563303
2.7184292640 3.4368678118 6.6253517697
3.2381197837 2.8246535909 7.1614231978
2.7021574483 3.4863122095 7.7825765701
3.2943131476 2.7903870636 8.2601587677
2.8597475216 3.4113228076 8.9188000460
3.4452379798 2.7573612072 9.4193134375
2.9522818873 3.4589766326 9.9781159373
3.4515138844 2.9705006307 10.4998997304
3.0364004607 3.5337692041 10.9493741599
3.4583414831 3.1421563846 11.2712133465
2.7916123775 4.5715045833 3.4709771861
3.3205631174 4.3726537577 2.8632239705
3.2683831772 4.0208937628 3.3528030112
3.2479795480 3.7123937596 3.9307168434
2.7327584274 4.0227830179 4.4428739796
2.4013036141 4.0332293768 8.6097056076
2.4871471259 4.0638481301 9.5746724727
2.5713463419 4.1078477559 10.6186988280
3.2088846311 3.5035419323 11.6847634166
2.7386767315 4.0919383553 11.7636417241
3.2690053673 3.6625014666 12.4981080021
2.8115730446 4.2653205736 12.9538822536
3.4912392350 3.8028930312 13.6078855647
2.9408637790 4.3870668843 13.9370865915
3.4306634830 4.1180308665 14.3622938376
3.1107313869 4.4360157939 14.5072490670
3.5755985837 4.4167883821 15.0382327196
2.9828227838 5.1301203185 2.6510907435
3.4381508580 5.3956660883 2.0023925216
3.3658938249 4.7880276991 2.3976682358
3.2853275980 5.0995640144 15.6655907783
2.9067755503 5.8041539232 16.0280512816
3.3921843842 5.4582076068 16.2684260905
2.8256107778 6.1189162846 2.3658608976
3.2856115734 6.4859802411 1.7260897111
2.5571383069 6.4865961287 16.1413798231
3.3182256833 5.8106791463 16.5168972706
3.0709626787 6.2849442560 16.5849575370
3.6894689297 5.9774779747 16.8569792813
2.7752715672 7.2919596229 2.1273398993
3.2840579268 7.2973003701 1.5524365116
2.7230961080 6.9067503157 16.6358671827
3.4383800677 6.5971001820 17.0369010216
3.1656088724 8.1606666275 1.6725746011
3.9503754802 8.3378644717 1.2147874146
3.6654253465 7.6105541208 1.2701962564
2.6161020096 8.2838408315 2.2595161255
2.8163538509 7.2449384295 16.9346326516
3.4266331883 8.9684014924 1.5752218392
2.8416325590 9.2022012509 2.1484927938
3.5370059589 9.8255571509 1.8189691138
2.7994562426 9.9612248078 17.3138316377
2.8872249140 10.3617917778 2.4717762292
3.4704998348 10.6073188919 2.1494074739
3.4621373095 10.3468510404 17.3375382840
2.9964941681 10.3291188056 17.2044074240
3.2255925768 11.0192465862 2.5360058590
3.7895284444 11.1103942010 2.3521245593
2.7493311784 11.2352899734 3.2003178156
2.8499694681 11.2862218176 16.6451536508
3.1208975838 10.9515956503 16.9073473805
3.5062609773 11.5388438203 2.9015838835
3.2310912599 11.9564709720 3.6428439365
3.1071803523 12.3692089722 4.3350375563
3.7356047993 12.4753654095 4.0929950677
2.8667449749 12.6291502130 5.1706737133
2.5208067626 12.7741279931 6.1970852484
2.5580574233 12.3384860800 15.3879140997
2.8830357803 12.0665450917 15.9125811756
3.2758196320 11.6253247598 16.4743553513
3.4329649738 12.7656214102 4.6973281627
3.4779130815 13.1272849797 5.2854252594
3.1023020148 13.2354529023 6.0185312176
3.6006912968 13.4651846736 5.8134233168
2.7774917195 13.4040524937 7.1276062115
2.4221061026 13.5452205185 8.2221942301
3.4103679016 12.9798464381 14.8177419948
2.9860812939 13.2531780733 14.1667403459
3.1616654605 12.5819510525 15.4072637839
3.6216787305 13.6866107109 6.5950478197
3.4135863884 13.8683178443 7.3575510213
2.9257027205 13.8180178690 7.9043016492
3.6997582585 14.0383672000 7.7006816261
2.4490317678 13.7983304046 9.0014851380
2.5393948284 13.9263726675 10.0673393451
3.0505252659 14.0533970988 10.7071888392
3.4920732912 13.9717902655 11.3285659402
3.2950682708 13.7705762078 12.5031211076
3.1905385415 13.5529636152 13.4438236344
3.8151266033 2.6069869121 5.4471822606
4.3298287974 2.4982906479 4.7327651830
4.7048580780 2.0712928489 5.3641809529
4.3921867426 2.0259949619 6.1511495822
3.8134823125 2.3455709213 6.6035889285
4.5455125805 1.7487849603 7.1290956538
3.8265113911 2.2356870152 7.6692928898
4.4021253249 1.7337646352 8.2361380208
3.8499752430 2.2198869268 8.6943339163
4.3594530830 1.7948655419 9.1681182752
3.9519032327 2.2007261448 9.4656773577
4.3023959681 1.9566932117 9.8693739980
3.8614630112 3.5704416236 3.2807096317
4.3465844444 3.5956874278 2.6179869657
4.8204973628 3.0396121024 3.0488252676
4.4765749869 2.7623268329 3.9457098379
3.7982995806 3.0317656521 4.3557816072
3.9281191956 2.3991160451 10.1901188503
4.0363871420 2.6205244126 11.2653518242
3.6932691655 3.1372030730 12.0345240708
4.4759272274 2.7047372150 12.5346128859
3.8936393185 3.2652962712 13.0101369328
4.5355192929 3.0233544249 13.5547786949
4.1150480635 3.3873730480 13.8146134747
4.5384082256 3.2680942910 14.1763235016
3.9058454087 4.3341316031 2.2930761998
4.6026934289 4.3022820313 1.7607934613
4.5213913177 3.8328026741 2.1761717880
4.2956315976 3.7247992965 14.6373373586
4.3640677608 4.1836718483 15.4508225443
4.1440527376 5.0388317476 1.6015668080
4.4666867978 5.4936993416 1.2050412883
4.8309809933 4.8463301301 1.3157237861
4.0926691282 4.6382707834 15.8497589966
3.9071315087 5.1483414746 16.3224895367
3.6997986108 5.5606242305 16.6107598443
4.3004481986 5.4758932914 16.8025668072
3.8867089411 5.9222478921 1.4062779299
4.4630193901 6.2329022469 1.0496882165
4.4392630980 6.0279196909 17.1880606656
3.7869421556 6.8278314921 1.2648373423
4.4165020217 7.2679012003 0.9946612305
4.0334331621 6.4808663565 17.2966549707
3.4185232371 6.8518543789 17.1868047369
4.7467106189 8.0244924715 0.9733459498
3.9438115523 9.1861312597 1.3884323635
4.6987348080 8.8879718412 1.1839364713
4.3911735818 9.7296551725 1.5469174508
4.1752364818 10.5284779064 1.9711524399
4.2801254751 10.5084617629 17.2747264579
3.7849502406 10.6773445426 17.1726739932
4.3671064993 11.1178531152 2.3187938776
3.9557539998 11.2337538495 16.7951368782
4.2689258025 11.5417593971 2.7561685535
4.0639561844 12.0167163266 3.3979570413
4.6189188579 12.4438426654 4.0262324036
3.9816739787 11.7872868121 16.3592751251
3.6039384332 12.2100875644 15.9462707754
4.2059602150 12.9811807658 4.8291021780
3.9181447810 13.3684962230 5.4120850627
4.3907194828 13.3787073242 5.4710647443
3.9651481493 12.9208682862 14.8459469812
3.8364282653 13.2197789800 14.2025214096
3.8768091988 12.6341801277 15.3356683849
4.0840009474 13.5967846706 5.9375253093
4.4111298464 13.7705514014 6.6144049644
4.1936955625 13.9733821905 7.4309271238
4.3678365192 14.1295092020 8.0885418452
4.3237246893 14.2289898102 9.9534884655
4.6620113650 14.1727774941 9.4274132088
4.5038141476 14.2752489127 9.3714949186
3.7965686537 14.1530146440 10.6169364503
4.4786003939 14.0366884903 10.4711580238
4.3651181094 13.8761568320 11.4256833526
4.0981792178 13.7748808558 12.2397329735
3.9595188508 13.5639715087 13.2098649749
5.0898464351 1.3146016786 7.9477002067
5.3048994589 1.3209694749 7.1530069680
5.8627278497 1.0309444741 7.7366484259
5.6904876978 1.0222681904 8.6631901852
4.9588240501 1.3606998734 8.8961633801
5.5573229543 1.1169600653 9.5682387043
4.8823280918 1.5343436382 9.8969856660
5.5139819839 1.2647069345 10.3171310963
5.2091501138 1.6084595951 10.8800197288
5.9498018328 1.3392612237 10.9970832245
4.9827402099 2.2196015318 4.5197771471
5.6322922110 1.7196161883 5.0799909266
5.2136412142 1.5848914945 6.2226731701
4.5172122258 2.0059369499 10.6353241755
5.7098770872 1.7018250899 11.7255547743
4.9177594253 2.1044783722 11.7223262323
5.5510578814 2.0057455345 12.3546152328
5.1778404097 2.3030549856 12.6379068121
5.8124346590 2.2079212188 13.0387629697
4.8270156098 3.4236099768 2.4198318809
5.1251321968 3.7309677366 1.9713667644
5.5023397427 3.1769929061 2.4240022078
5.7234770016 2.6158103615 3.0303989587
5.2476759114 2.4336841152 3.7233373238
5.2953566064 2.6348184456 13.4635489382
5.0676479215 3.0533560206 14.1969735597
4.8087192332 3.3212153353 14.5174624494
5.3966582019 3.3808906501 14.8940160469
5.3208452648 4.2289162694 1.5053747778
5.1752727482 3.9508338347 15.6063937439
4.7411120105 4.3591163027 15.9563586479
5.2836096838 4.3678524987 16.2148612172
5.1860789929 5.4472767275 1.0142329136
5.4495784746 4.7117747605 1.1867417129
4.7591515411 4.8300759089 16.4459131773
5.3475088130 5.3455438561 16.9876294402
5.2229892637 6.3832802146 0.8722507643
5.4383127022 5.8978716627 17.3646727033
5.3624238551 7.2668473367 0.8722181924
4.8491863655 6.1649415301 17.4137066234
5.5269109188 8.1695856970 1.0130511943
5.4450864718 8.9321249962 1.2164682817
5.2132587560 9.5184500892 1.4794423603
4.9184220094 10.8431744190 2.2591632538
5.0293763429 10.2045914924 1.8637813605
5.6055664903 10.5398257447 2.2804188199
4.9529490261 10.4066801750 17.2288283870
4.8417718758 10.7037784627 16.9794601193
4.8583778418 11.3300592210 2.6442817824
5.6252009023 11.1190060785 2.8006293865
5.0209308963 11.7889827595 15.7765284544
5.5838640868 11.4936420555 15.6769641690
5.3539328354 11.9531202752 15.2824341113
4.6240779800 11.4680323656 16.4056295169
5.4792726040 11.0200629239 16.3060767995
5.2402411814 11.8002748936 3.4066906011
5.4187814961 12.3417309103 4.1606106303
4.6653430293 12.5618106092 14.9267254057
5.5443280683 12.1949253769 14.7618558484
5.2561959844 12.6681322861 14.2483218803
4.3217375168 12.1250582504 15.8397641495
5.1707909852 12.7363250730 4.6629751114
4.7267959140 13.5335822663 6.0269039922
5.1137701032 13.1394716238 5.4668216440
4.9915645733 13.6501792640 6.6297505205
5.4283584036 13.3597568862 6.3715578191
5.4575070901 13.5489826824 7.0396623536
5.0298547548 13.7200951413 11.0975840088
5.7385898546 13.4798038963 10.7336489109
5.2272127671 13.7912547782 10.3644975868
4.8700393156 13.6005214209 11.9861743402
5.6175113640 13.3429188239 11.6393862484
4.7347357305 13.4286580300 12.9067981954
5.4818189868 13.1892433791 12.5838031659
4.6474653851 13.1284903893 13.8472625005
5.3737519874 12.9453988697 13.4979921529
4.9526440823 13.8080188721 7.3022654061
4.6201323512 14.2098299046 8.8131602030
5.0211256568 13.9726477182 8.4544658842
5.1512496431 13.9335295757 9.6277512152
5.9609092084 1.1538626881 6.8128248521
6.7603755706 0.8799948514 7.4636454230
6.5255658436 0.8275445678 8.5050835262
6.3370297408 0.8898789372 9.4262141660
6.1618395745 1.0606432913 10.2580555101
6.7684499207 1.2207351127 10.9931851445
6.0018459732 2.1314570356 3.5917370457
6.3991433964 2.3038951546 3.0662488170
6.6383534405 1.9454167490 3.4477994234
6.4659365818 1.6471553129 4.2252645161
5.6466093394 2.0077538152 4.2220334595
6.4154554795 1.3784686109 5.1351830350
6.1064438534 1.3047451334 5.9013050201
6.5410148734 1.5354207669 11.7749760164
6.3104998308 1.8853899160 12.5878802545
6.4438147947 2.1526353512 13.3011212201
6.1471083448 3.7215675465 1.7844119423
6.5102562511 2.8375216121 2.4947132324
6.2138634284 2.4626821304 13.7421151976
5.9070371400 2.8951782991 14.3320373509
6.4677731601 3.2819988770 15.0645446463
5.8901960075 4.3260912730 1.3246340777
6.0659312138 4.9165043780 1.0791737819
6.4532478806 4.3223945758 1.3401551282
6.0278154645 3.6928948120 15.5704906700
6.0628855709 4.2103066149 16.2029113689
5.5924035781 4.6882085612 16.5930507269
6.4124070764 4.8763979184 16.7872691258
5.8677161879 5.7014788777 0.9001814788
6.4191809919 5.6990842278 17.2172444384
6.0701364675 6.4023690477 0.8732268269
6.0533848861 5.9658968941 17.4333315059
5.4594792324 6.0452721289 17.4809124653
6.2735408513 7.2512317332 0.9648975132
6.2746214899 7.9626363475 1.1015800761
6.0815492197 8.6090205938 1.2598573643
6.7852039999 8.1230722035 1.3540683555
5.8732853225 9.2283489027 1.4718647623
6.7200147121 8.9880267871 1.7057517984
5.6569835723 10.1145794840 17.1456092732
6.2672437460 9.6218924922 17.1858417706
6.2930536802 9.7474842113 17.0385975295
6.0178326119 9.8516200707 1.9472784503
6.5009019922 10.5115856248 2.6948684974
5.8190236801 10.2975197064 16.8466445694
6.3053911598 9.9685735870 16.8020743648
6.2431819696 10.3534226158 16.4008106784
6.4399741451 11.1220360018 3.2912194721
5.8940474281 11.4345063241 3.2776145655
6.2838655237 11.5594734656 3.7271607808
6.1251913255 11.0267020009 15.7112376094
5.8926101543 11.6569948823 15.1695518111
5.8134891458 12.4860651367 4.6294154483
6.2406302373 12.0102626897 4.3448579617
6.2957976914 12.3886170562 4.9886274722
6.0293987386 11.8862441177 14.7215863304
5.9677458765 12.2793279893 14.1373042826
5.8478601889 12.7366749556 5.2106266404
6.0148456641 12.9367222411 6.0689433084
5.6511969866 13.6127089891 7.8048775178
6.2255525071 13.1273176748 7.2235927311
5.8236999215 13.6611722659 8.5485209280
6.3141605863 13.3183190029 8.3405660079
6.2264952011 13.4705458362 8.9809240653
6.3518264265 13.2530445238 10.1840986392
5.7616540958 13.6349930900 9.9346930404
6.4207670688 13.0071214137 11.1832703304
6.2172539105 12.8900091226 12.2220623670
6.0983919433 12.6601070402 13.1699706100
5.7352366869 13.7273652704 9.1773117693
7.0495661335 1.2479467305 4.8597519531
7.2234509071 1.3696460824 4.1686478154
7.7395810593 1.2260793526 4.6190486438
7.5761734702 1.0832200812 5.6010922476
6.8614424023 1.1223166428 5.7456251803
7.4046539641 0.9463076016 6.6907348927
6.6158691621 1.0405195335 6.4989316395
7.5809343078 0.7986689592 7.6891064398
7.3589658189 0.7435902682 8.4393034979
7.1684909935 0.7902833528 9.3391112875
6.9780583668 0.9573226260 10.1949832083
7.5930664138 1.2363573580 10.8924132356
7.1610924550 2.1841571043 3.0179549290
7.1670548400 1.6580585979 3.6256701595
7.4098797333 1.5517777092 11.7154784220
7.1827238769 1.8171711127 12.5317381598
7.0213900829 2.0756744236 13.2379890642
6.8450142429 2.3279315027 13.7333052122
7.4689950369 2.4046942743 13.8117624031
7.0991121460 3.3845670845 2.0353195181
7.5127203350 2.8315302751 2.4976209424
6.9435975774 2.7670406276 14.3500840550
7.4280268301 3.3549767308 15.1082452070
6.7895258607 4.7371517583 1.2020129297
7.2394013094 4.2015990307 1.5798084217
6.9152105995 3.8427503006 15.8168371683
6.8491461291 4.3584566525 16.4121012574
7.4737509780 4.3465865786 16.2688642182
6.6728212528 5.5164272960 1.0210138547
7.2683454300 4.9996124206 1.2629034746
7.1893398673 4.7329200030 16.6604900418
7.2380717508 5.3506438389 16.9204325492
6.8533165568 6.3870090659 1.0177391520
6.8338031780 6.1746401002 17.3466723269
7.4596420790 6.3566273466 17.0903043088
6.9746562538 6.9925789287 1.1102258084
6.7558297092 7.5344570675 1.1489101221
7.3921833819 7.2923556285 1.3928186637
7.3058997305 6.7060203529 17.2685226365
7.4753290532 8.2012919325 1.7310881681
6.7927867537 9.1639329264 17.0895469602
7.2224959867 8.4493534689 17.1343289456
7.2627263439 8.6716478379 16.9472637735
7.5726199037 8.9427113127 2.0668998999
6.8179960095 9.5499817739 16.6790464450
7.3178921612 8.9871349744 16.6590909203
7.3642988829 9.3494315936 16.2048991950
7.2405018393 9.6845205468 2.3884941469
7.3302764297 10.2878024661 2.9470723388
7.2410972382 10.4357312076 15.0928608715
7.6726477616 10.0561070942 14.8910026583
7.4981608768 10.6352339620 14.4615605701
6.8551349428 10.2729405434 15.7907764020
7.5032080168 9.7875390428 15.4957538707
7.1742022688 10.7244445531 3.3506159144
6.7115721240 11.6116931715 4.1741731916
7.0846520004 11.1934390232 3.9787646151
7.0968471612 11.5797512240 4.6668121700
6.6425436543 11.3071457268 14.7589430445
7.3273125700 11.3113357254 13.8879192050
6.5453337920 12.4867296349 5.6855682578
6.8707198567 12.0397286106 5.2129334538
6.8012095901 12.5663043420 6.6150774070
7.2387090226 12.0584881261 6.1118551383
7.0256031668 12.6049169881 7.4415413711
7.5872260605 12.0055186432 7.1679304382
7.4392500731 12.3469031491 7.9773242400
6.8828825186 12.5516228505 11.8804019726
7.3663285099 12.2282155586 11.5454990794
7.0659149829 12.5758652178 11.1553982385
6.7778542377 12.3652601888 12.7608241292
7.3549007756 12.0391420639 12.2886100216
6.7079475630 11.9980460546 13.6740511361
7.3119172728 11.7774098521 13.1355827040
6.9302771422 12.8198567929 8.1954238297
6.2209066170 13.4522536391 9.5210216641
6.7962990197 13.0131918932 9.2941635313
6.9723859075 12.7740704476 10.3974639258
7.6301063382 1.4119103461 3.9006552530
7.7684286021 1.7687433256 3.4793619193
8.0853152473 1.4976886437 4.0906291832
8.2553906168 1.3889152148 4.7734217606
8.1728911016 1.2668259433 5.5082123007
8.1294223173 1.1622309431 6.5137765771
8.1681484262 0.9750096357 7.5425461030
8.0083445247 0.7620389005 8.3633149104
7.8680693573 0.7789621389 9.2358730316
7.7302670826 0.9459514231 10.0959190905
8.1486873306 1.2761798843 10.6675818420
7.9684063823 2.3659789448 3.0635673893
8.2672470453 1.8253161249 11.4701124979
7.9600317855 2.0008003035 12.4632462222
7.7174201368 2.1707057982 13.2190357623
7.9610006344 2.4730701903 13.7073996054
7.9055096311 3.6012312225 2.1390500752
8.1678224428 2.9897795597 2.7108188931
7.9990775136 2.9589932808 14.3092649656
8.1057166291 3.6140601878 15.1102086104
7.9207391396 4.2381555863 1.7716123702
7.7883704383 3.9577799383 15.7012636517
8.0090903477 4.4996295798 16.1007929732
7.4086545691 5.7547365911 1.2171564253
7.8552707945 5.0078530951 1.5379325985
7.7504001487 4.9204444564 16.5486176121
7.9405468419 5.6698000251 16.7004883122
7.3805698229 6.5243820451 1.2135552450
7.9123478438 6.2756971144 1.5045158336
8.1107616986 6.4348068012 16.6759939928
8.1244508793 7.3936382618 1.9146072131
7.5294721612 7.6259764937 17.0528835446
7.9685568604 7.2616857906 16.7225550596
8.0732090446 8.3645053396 2.2021642533
7.7443533767 8.3940234363 16.5256502189
8.2183943281 7.7680331903 16.2464465042
8.1652297137 8.3599099810 15.9304439674
7.9955099245 8.9681883818 2.3454412813
7.7400731253 9.2752738279 2.3178979130
7.9751012223 9.3831787439 2.6633567252
7.9798047409 9.4408231968 15.0691570238
8.3488471291 9.0569225419 14.5502268077
8.0823420048 9.8585854113 14.2577413871
7.8628824805 9.0301042128 15.7939198476
8.2865227822 8.6725697732 15.2522668194
7.6921520896 10.3872261630 3.3457961418
7.8339511213 9.9365864047 3.0297858857
8.0515971817 10.1613119981 3.5568960151
7.8990384963 10.6655488703 13.7376892605
7.7500690560 10.6294200823 3.8656607012
7.5544942347 11.5422177719 5.5123547694
7.8252214611 10.9257510813 4.7447304307
7.8391583044 11.5446509325 6.4145906533
8.1345856118 10.9482773576 5.7948053057
8.0003606847 11.5112147318 6.9822404167
8.2570033263 11.0322531334 6.7070293351
8.1631232849 11.3356205671 7.4692396946
7.9479549575 11.8036143369 9.7689062880
8.3247345067 11.2173365804 9.2691933367
8.0756622105 11.6691613985 8.9015050524
8.0412570731 11.5541587725 10.6562725563
8.3534244352 11.0542809246 10.0526632358
7.8453381731 11.6435084363 11.5873447396
8.3207674161 10.9585161138 11.0257180521
7.8079006368 11.4323487220 12.6036851523
8.2470187664 10.8840408769 12.0197156872
7.7355515650 11.2338377454 13.3182807304
8.1437285157 10.7566878079 12.9393564547
7.5506714486 12.3084666256 8.8784557685
7.9128539020 11.8192956214 8.1468848211
7.4131598306 12.4463619135 9.8144461984
7.5580912689 12.1751515018 10.7153240929
8.3210818379 2.0460396579 3.7606379787
8.5003844341 1.8294154592 4.5762399611
8.5548421950 1.7193889666 5.4603995188
8.5671446297 1.6506735311 6.4427668935
8.6434428376 1.5626114013 7.5264250135
8.5894818446 1.2179871624 7.8923442077
8.3489806128 0.8701220730 8.2068091242
8.2200022397 0.7941392757 8.9820303450
8.2048146012 1.0262046500 9.9797855389
8.5429789226 1.6677894717 10.6782805490
8.5471799083 2.8765080304 3.4622442701
8.6948388293 2.5705310259 4.4219951086
8.7634762556 2.4325602401 5.3837437290
8.7945326198 2.3755195447 6.3945461825
8.8403028139 2.3486365547 7.4694511464
8.8531770674 1.7469456296 8.3171867168
8.9323336081 2.3546641312 8.6427788749
8.9662893986 2.5476075327 9.8887412776
8.9684779153 2.1273837806 9.2512301390
8.8030752225 2.4143552294 10.9380249969
8.8841437584 2.1236437909 10.1914648800
8.7109593417 2.5435481995 11.8346072162
8.4870079613 2.3625251458 12.3562976633
8.3620885482 2.6136374663 13.2798493043
8.5757214643 3.6310444142 2.8225251817
8.8282976737 3.6598726828 3.6335434368
8.8490978874 3.4512715135 4.3730659547
8.8805981905 3.3257567986 5.3368026787
8.9005075613 3.2712555986 6.3602005709
8.9213302226 3.2536423330 7.4178329575
8.9554626450 3.2569602434 8.5131417363
8.9827703891 3.2936828123 9.6396620962
8.9637398633 3.3006065384 10.7386221388
8.9138454297 3.2540216424 11.7514248832
8.8021072137 3.0661080306 12.6153277228
8.7573864021 3.1006608283 13.2554816885
8.5828940117 3.2083476233 14.0266935506
8.5354662128 3.7184994105 14.7204038024
8.8081659162 3.9411580065 14.4310153015
8.3134478960 4.3081553328 2.0649050587
8.7912081191 4.1093374310 2.8252120066
8.9989457152 4.4023212709 3.2556377802
8.9488040617 4.3031553961 3.4877725761
8.9639662642 4.3572494187 4.3620063865
8.9509342223 4.3003527681 5.3199961720
8.9483021789 4.2620038967 6.3444043332
8.9528059183 4.2475265209 7.3945808594
8.9633263003 4.2458375639 8.4598288413
8.9762446857 4.2525704192 9.5379735438
8.9831048986 4.2549966898 10.6185533045
8.9848168940 4.2252199620 11.6862564288
8.9871452083 4.1145302260 12.7334775073
8.9541590973 3.6477243244 13.0206510006
8.8127531423 4.5773096202 14.7682743708
8.9675639354 4.4594105189 14.1461953009
8.3907205111 4.3491663266 15.4979814766
8.2190525032 5.5158721991 1.6880554213
9.0608809143 4.9512382970 3.6981806090
9.0709561584 5.9239584056 3.9938889041
9.0380783748 5.3867930751 4.3236215354
8.9954521234 5.3252271658 5.3120587334
8.9719407603 5.2941058520 6.3388049831
8.9646768593 5.2826575043 7.3870015279
8.9651303314 5.2795612264 8.4430079838
8.9684924196 5.2788176427 9.5029874520
8.9725969215 5.2751193048 10.5650548973
8.9784643382 5.2572828005 11.6304261878
8.9869313789 5.2001331550 12.7159776686
9.0220764869 4.3259905106 13.4532916466
8.9744767459 5.0682028009 13.9055861738
8.8647351846 5.4431018760 14.9361241735
8.6542440025 5.2449399126 15.5804555418
8.2723921513 5.0858220550 16.1814051111
8.3172990080 6.5850815984 1.8189550413
9.0260613675 6.7360778097 4.4102140673
9.0105600561 6.8480036716 3.7555753498
9.0089513377 6.4280112662 5.3290078694
8.9814947947 6.3506504201 6.3396364825
8.9676643824 6.3317543464 7.3837835376
8.9633552216 6.3270177628 8.4374520246
8.9621740279 6.3233279471 9.4924621659
8.9607159977 6.3140014706 10.5448267803
8.9581623962 6.2923303249 11.5907169344
8.9527655986 6.2562337889 12.6390597751
8.9359233411 6.1956510283 13.7046856917
8.8797955036 6.1626145713 14.7077937119
8.7258752905 6.1163478442 15.5501602035
8.4292262050 5.9216812840 16.2219981339
8.5623849528 7.2631580096 2.3355424308
8.5810668096 7.8811129117 2.7355585840
8.9054818635 7.6259696680 3.7457645759
8.8402692697 7.3494486629 3.0850582086
8.9663645531 7.7496290099 4.6351845420
8.9828533505 7.5216651540 5.3838793179
8.9707389692 7.4133661533 6.3465628916
8.9588532867 7.3805191982 7.3766809943
8.9523649077 7.3717787371 8.4276882292
8.9483615109 7.3651383060 9.4829770461
8.9423473110 7.3498377341 10.5338079861
8.9298594390 7.3127163875 11.5697698983
8.9104808985 7.2449142791 12.5677409504
8.8666653798 7.1995777751 13.5694198258
8.7986459364 7.0983651553 14.5781516614
8.7240562836 6.8516240800 15.3520873391
8.4452996418 6.9058367549 16.1257464437
8.3433982038 8.7844537399 2.7561386090
8.6765491916 8.6076189253 3.5174538575
8.8544007600 8.5317682834 4.4416159666
8.9087871451 8.5005414056 5.3755928293
8.9218191410 8.4417126513 6.3373505247
8.9224009876 8.4083057555 7.3503769774
8.9168150152 8.3979262338 8.3931960374
8.9091589468 8.3882317608 9.4516132545
8.8989149767 8.3659746516 10.5069230036
8.8758986400 8.3181425313 11.5469860693
8.8330929992 8.2103654282 12.5530184003
8.7999817965 7.9989910457 13.3678049754
8.6388566913 8.1526094537 14.3870909619
8.5160167045 7.7373392826 15.4799410297
8.3293313905 9.5099776252 3.3999821290
8.6196596833 9.4135260860 4.2979015447
8.7456440617 9.3987933326 5.2627378203
8.7934546155 9.4142626137 6.2773223825
8.8236946452 9.3858781041 7.2858909560
8.8310820703 9.3734666093 8.2969809311
8.8152259772 9.3795959574 9.3588794446
8.8019603193 9.3379766151 10.4281003034
8.7722733236 9.2849990307 11.4723081196
8.7044223596 9.1834455609 12.4998097703
8.5819257024 8.9621071391 13.5949432194
8.2497273295 10.1704474562 4.1633996694
8.4250828680 10.2115534745 5.0791003228
8.5443487776 10.2613797423 6.0893421496
8.5709456631 10.4037391756 7.2198604656
8.6914788279 10.1463974090 8.0936625681
8.6183175206 10.3798748128 9.1344439882
8.6223017374 10.2457323205 10.2606272791
8.5902262899 10.1734278853 11.3042432813
8.5211858934 10.0881233900 12.3082838131
8.3709683963 9.9632268854 13.2736608264
8.3868424136 11.0308463958 8.3531267011
3 2 1 0
3 4 3 0
3 0 3 2
3 6 5 4
3 4 5 3
3 8 7 6
3 6 7 5
3 10 9 8
3 8 9 7
3 12 11 10
3 10 11 9
3 12 13 11
3 0 1 14
3 14 1 15
3 0 16 4
3 0 14 16
3 4 17 6
3 4 16 17
3 6 18 8
3 6 17 18
3 8 19 10
3 8 18 19
3 10 20 12
3 10 19 20
3 13 12 21
3 12 22 21
3 12 20 22
3 24 23 22
3 22 23 21
3 24 25 23
3 14 15 26
3 26 15 27
3 14 28 16
3 14 26 28
3 16 29 17
3 16 28 29
3 17 30 18
3 17 29 30
3 18 31 19
3 18 30 31
3 19 32 20
3 19 31 32
3 20 33 22
3 20 32 33
3 22 34 24
3 22 33 34
3 25 24 35
3 24 36 35
3 24 34 36
3 36 37 35
3 26 27 38
3 38 27 39
3 26 40 28
3 26 38 40
3 28 41 29
3 28 40 41
3 29 42 30
3 29 41 42
3 30 43 31
3 30 42 43
3 31 44 32
3 31 43 44
3 32 45 33
3 32 44 45
3 33 46 34
3 33 45 46
3 34 47 36
3 34 46 47
3 37 36 48
3 48 36 47
3 39 49 38
3 38 49 40
3 40 49 50
3 40 50 41
3 41 50 51
3 41 51 42
3 42 51 52
3 42 52 43
3 43 52 53
3 43 53 44
3 44 53 54
3 44 54 45
3 45 54 55
3 45 55 46
3 46 55 56
3 58 57 56
3 57 46 56
3 57 47 46
3 48 47 59
3 59 47 57
3 58 60 57
3 57 60 59
3 63 62 61
3 65 64 61
3 61 64 63
3 67 66 65
3 65 66 64
3 67 68 66
3 71 70 69
3 73 72 69
3 69 72 71
3 72 73 62
3 73 61 62
3 73 74 61
3 61 75 65
3 61 74 75
3 65 76 67
3 65 75 76
3 68 67 77
3 67 78 77
3 67 76 78
3 80 79 78
3 78 79 77
3 82 81 80
3 80 81 79
3 84 83 82
3 82 83 81
3 86 85 84
3 84 85 83
3 88 87 86
3 86 87 85
3 90 89 88
3 88 89 87
3 90 91 89
3 69 70 92
3 92 70 93
3 69 94 73
3 69 92 94
3 73 95 74
3 73 94 95
3 74 96 75
3 74 95 96
3 75 97 76
3 75 96 97
3 76 98 78
3 76 97 98
3 78 99 80
3 78 98 99
3 80 100 82
3 80 99 100
3 82 101 84
3 82 100 101
3 84 102 86
3 84 101 102
3 86 103 88
3 86 102 103
3 88 104 90
3 88 103 104
3 91 90 105
3 105 90 104
3 92 93 106
3 106 93 107
3 92 108 94
3 92 106 108
3 94 109 95
3 94 108 109
3 109 1 2
3 96 109 2
3 95 109 96
3 96 2 3
3 96 3 97
3 97 3 5
3 97 5 98
3 98 5 7
3 98 7 99
3 99 7 9
3 99 9 100
3 100 9 11
3 100 11 101
3 101 11 13
3 110 101 13
3 102 101 110
3 102 111 103
3 102 110 111
3 103 112 104
3 103 111 112
3 105 104 113
3 104 114 113
3 104 112 114
3 114 115 113
3 106 107 116
3 116 107 117
3 106 118 108
3 106 116 118
3 108 119 109
3 108 118 119
3 119 15 1
3 119 1 109
3 21 110 13
3 110 21 23
3 110 23 111
3 111 23 25
3 120 111 25
3 112 111 120
3 112 121 114
3 112 120 121
3 115 114 122
3 114 123 122
3 114 121 123
3 125 124 123
3 123 124 122
3 116 117 126
3 126 117 127
3 116 128 118
3 116 126 128
3 118 129 119
3 118 128 129
3 129 27 15
3 129 15 119
3 35 120 25
3 120 35 37
3 130 120 37
3 121 120 130
3 121 131 123
3 121 130 131
3 133 125 132
3 125 131 132
3 125 123 131
3 126 127 134
3 134 127 135
3 126 136 128
3 126 134 136
3 128 137 129
3 128 136 137
3 137 39 27
3 137 27 129
3 48 138 130
3 48 130 37
3 130 139 131
3 130 138 139
3 132 131 140
3 140 131 139
3 135 141 134
3 143 142 141
3 142 134 141
3 142 136 134
3 136 144 137
3 136 142 144
3 145 49 39
3 137 145 39
3 144 145 137
3 146 50 49
3 146 49 145
3 147 51 50
3 147 50 146
3 148 52 51
3 148 51 147
3 149 53 52
3 149 52 148
3 150 54 53
3 150 53 149
3 151 55 54
3 151 54 150
3 152 56 55
3 152 55 151
3 152 58 56
3 59 153 138
3 59 138 48
3 155 139 154
3 139 153 154
3 139 138 153
3 139 155 140
3 143 156 142
3 142 156 144
3 144 156 157
3 144 157 145
3 145 157 158
3 160 159 158
3 159 145 158
3 159 146 145
3 146 161 147
3 146 159 161
3 147 162 148
3 147 161 162
3 148 163 149
3 148 162 163
3 149 164 150
3 149 163 164
3 150 165 151
3 150 164 165
3 151 166 152
3 151 165 166
3 167 60 58
3 152 167 58
3 166 167 152
3 167 168 60
3 60 168 59
3 168 169 59
3 169 153 59
3 153 169 154
3 160 170 159
3 159 170 161
3 161 170 171
3 173 172 171
3 172 161 171
3 172 162 161
3 162 174 163
3 162 172 174
3 163 175 164
3 163 174 175
3 164 176 165
3 164 175 176
3 165 177 166
3 165 176 177
3 179 167 178
3 167 177 178
3 167 166 177
3 167 179 168
3 173 180 172
3 172 180 174
3 174 180 181
3 174 181 175
3 175 181 182
3 175 182 176
3 176 182 183
3 176 183 177
3 177 183 184
3 177 184 178
3 187 186 185
3 189 188 185
3 185 188 187
3 191 190 189
3 189 190 188
3 193 192 191
3 191 192 190
3 195 194 193
3 193 194 192
3 197 196 195
3 195 196 194
3 197 198 196
3 201 200 199
3 203 202 199
3 199 202 201
3 202 203 186
3 186 203 185
3 203 62 185
3 62 63 185
3 185 63 64
3 185 64 189
3 189 64 66
3 189 66 191
3 191 66 68
3 204 191 68
3 193 191 204
3 193 205 195
3 193 204 205
3 195 206 197
3 195 205 206
3 198 197 207
3 197 208 207
3 197 206 208
3 210 209 208
3 208 209 207
3 212 211 210
3 210 211 209
3 214 213 212
3 212 213 211
3 214 215 213
3 218 217 216
3 218 216 200
3 200 216 199
3 216 70 199
3 70 71 199
3 199 71 72
3 199 72 203
3 203 72 62
3 77 204 68
3 204 77 79
3 204 79 205
3 205 79 81
3 205 81 206
3 206 81 83
3 206 83 208
3 208 83 85
3 208 85 210
3 210 85 87
3 210 87 212
3 212 87 89
3 212 89 214
3 220 219 91
3 91 219 89
3 219 215 89
3 215 214 89
3 220 221 219
3 216 217 222
3 222 217 223
3 222 93 70
3 222 70 216
3 105 224 220
3 105 220 91
3 221 220 225
3 220 226 225
3 220 224 226
3 226 227 225
3 222 223 228
3 228 223 229
3 228 107 93
3 228 93 222
3 113 224 105
3 224 113 115
3 230 224 115
3 226 224 230
3 227 226 231
3 231 226 230
3 234 233 232
3 234 232 229
3 232 228 229
3 232 235 228
3 235 117 107
3 235 107 228
3 122 230 115
3 236 231 230
3 122 236 230
3 124 236 122
3 233 237 232
3 239 238 237
3 238 232 237
3 238 235 232
3 238 127 117
3 238 117 235
3 132 240 133
3 238 239 241
3 241 239 242
3 241 135 127
3 241 127 238
3 244 243 240
3 132 244 240
3 140 244 132
3 241 242 245
3 245 242 246
3 247 141 135
3 241 247 135
3 245 247 241
3 247 143 141
3 154 248 155
3 248 249 155
3 249 140 155
3 249 244 140
3 246 250 245
3 245 250 247
3 247 250 251
3 251 253 252
3 251 252 156
3 247 251 156
3 143 247 156
3 254 157 156
3 254 156 252
3 255 158 157
3 255 157 254
3 255 160 158
3 168 256 169
3 256 257 169
3 169 257 154
3 257 258 154
3 258 248 154
3 248 258 249
3 253 259 252
3 252 259 254
3 254 259 260
3 262 261 260
3 261 254 260
3 261 255 254
3 263 170 160
3 255 263 160
3 261 263 255
3 264 171 170
3 264 170 263
3 264 173 171
3 266 265 179
3 266 179 178
3 168 179 256
3 179 267 256
3 179 265 267
3 256 267 257
3 262 268 261
3 261 268 263
3 263 268 269
3 271 270 269
3 270 263 269
3 270 264 263
3 272 180 173
3 264 272 173
3 270 272 264
3 273 181 180
3 273 180 272
3 181 273 274
3 275 181 274
3 182 181 275
3 182 276 183
3 275 276 182
3 183 277 184
3 276 277 183
3 178 184 266
3 266 184 277
3 280 279 278
3 282 281 278
3 278 281 280
3 284 283 282
3 282 283 281
3 286 285 284
3 284 285 283
3 288 287 286
3 286 287 285
3 288 289 287
3 292 291 290
3 294 293 290
3 290 293 292
3 293 294 279
3 279 294 278
3 294 186 278
3 186 187 278
3 278 187 188
3 278 188 282
3 282 188 190
3 282 190 284
3 284 190 192
3 284 192 286
3 286 192 194
3 286 194 288
3 295 289 288
3 194 295 288
3 196 295 194
3 297 296 198
3 296 196 198
3 296 295 196
3 299 298 297
3 297 298 296
3 301 300 299
3 299 300 298
3 301 302 300
3 305 304 303
3 305 303 291
3 291 303 290
3 303 200 290
3 200 201 290
3 290 201 202
3 290 202 294
3 294 202 186
3 207 297 198
3 297 207 209
3 297 209 299
3 299 209 211
3 299 211 301
3 306 302 301
3 211 306 301
3 213 306 211
3 213 215 306
3 306 215 307
3 310 309 308
3 310 308 304
3 304 308 303
3 308 217 303
3 217 218 303
3 303 218 200
3 311 307 215
3 311 215 219
3 313 312 221
3 312 219 221
3 312 311 219
3 313 314 312
3 308 309 315
3 315 309 316
3 315 223 217
3 315 217 308
3 225 313 221
3 225 227 313
3 227 314 313
3 227 317 314
3 315 316 318
3 318 316 319
3 318 229 223
3 318 223 315
3 231 321 320
3 317 231 320
3 227 231 317
3 318 319 234
3 319 233 234
3 319 322 233
3 318 234 229
3 236 321 231
3 237 233 323
3 233 324 323
3 233 322 324
3 323 239 237
3 324 325 323
3 239 323 325
3 326 239 325
3 242 239 326
3 328 327 243
3 328 243 244
3 326 246 242
3 329 246 326
3 249 328 244
3 249 330 328
3 329 331 246
3 246 331 250
3 250 332 251
3 331 332 250
3 253 251 332
3 253 332 333
3 335 334 258
3 335 258 257
3 249 258 330
3 330 258 334
3 333 336 253
3 253 336 259
3 336 338 337
3 260 336 337
3 259 336 260
3 337 262 260
3 340 339 265
3 340 265 266
3 265 341 267
3 339 341 265
3 257 267 335
3 335 267 341
3 338 342 337
3 337 342 262
3 342 268 262
3 342 343 268
3 268 344 269
3 343 344 268
3 271 269 344
3 271 344 345
3 348 347 346
3 350 349 346
3 350 346 347
3 275 274 349
3 350 275 349
3 351 275 350
3 275 352 276
3 351 352 275
3 276 353 277
3 352 353 276
3 266 277 340
3 340 277 353
3 356 355 354
3 358 357 354
3 354 357 356
3 360 359 358
3 358 359 357
3 362 361 360
3 360 361 359
3 362 363 361
3 365 364 280
3 280 364 279
3 366 280 281
3 366 365 280
3 283 354 355
3 366 283 355
3 281 283 366
3 354 283 285
3 354 285 358
3 358 285 287
3 358 287 360
3 360 287 289
3 367 360 289
3 362 360 367
3 363 362 368
3 362 369 368
3 362 367 369
3 371 370 369
3 369 370 368
3 371 372 370
3 375 374 373
3 291 292 373
3 292 375 373
3 292 376 375
3 377 292 293
3 377 376 292
3 293 279 364
3 293 364 377
3 295 367 289
3 367 295 296
3 367 296 369
3 369 296 298
3 369 298 371
3 378 372 371
3 298 378 371
3 300 378 298
3 380 379 302
3 379 300 302
3 379 378 300
3 380 381 379
3 373 374 305
3 374 304 305
3 374 382 304
3 373 305 291
3 306 380 302
3 384 383 307
3 307 383 306
3 383 381 306
3 381 380 306
3 384 385 383
3 387 386 310
3 310 386 309
3 310 304 382
3 310 382 387
3 311 384 307
3 388 385 384
3 311 388 384
3 312 388 311
3 312 314 388
3 388 314 389
3 386 316 309
3 390 316 386
3 317 389 314
3 317 391 389
3 390 319 316
3 392 319 390
3 393 391 317
3 393 317 320
3 392 322 319
3 394 322 392
3 394 324 322
3 395 324 394
3 395 396 324
3 324 396 325
3 398 397 326
3 325 398 326
3 396 398 325
3 399 397 398
3 401 400 327
3 401 327 328
3 402 329 397
3 397 329 326
3 397 399 403
3 397 403 402
3 406 405 404
3 408 407 404
3 408 404 405
3 408 401 407
3 401 330 407
3 401 328 330
3 402 331 329
3 403 409 402
3 409 331 402
3 409 332 331
3 333 332 409
3 333 409 410
3 413 412 411
3 411 412 406
3 404 411 406
3 414 411 404
3 335 414 334
3 414 407 334
3 414 404 407
3 334 407 330
3 410 415 333
3 333 415 336
3 417 416 338
3 336 417 338
3 415 417 336
3 419 418 416
3 419 416 417
3 420 418 419
3 423 422 421
3 425 424 421
3 425 421 422
3 427 426 424
3 427 424 425
3 429 428 426
3 429 426 427
3 428 429 413
3 428 413 411
3 340 428 411
3 339 340 411
3 339 411 341
3 341 411 414
3 341 414 335
3 416 342 338
3 342 416 343
3 343 416 418
3 420 430 418
3 430 343 418
3 430 344 343
3 432 431 345
3 344 432 345
3 430 432 344
3 347 348 431
3 432 347 431
3 433 347 432
3 421 350 423
3 350 433 423
3 350 347 433
3 350 421 351
3 351 421 424
3 351 424 352
3 352 424 426
3 352 426 353
3 353 426 428
3 353 428 340
3 435 434 356
3 356 434 355
3 436 356 357
3 436 435 356
3 437 357 359
3 437 436 357
3 438 359 361
3 438 437 359
3 361 363 438
3 438 363 439
3 442 441 440
3 444 443 440
3 440 443 442
3 364 365 444
3 365 443 444
3 365 445 443
3 446 365 366
3 446 445 365
3 366 355 434
3 366 434 446
3 447 439 363
3 447 363 368
3 448 368 370
3 448 447 368
3 370 372 448
3 448 372 449
3 451 450 375
3 375 450 374
3 376 440 441
3 451 376 441
3 375 376 451
3 440 376 377
3 440 377 444
3 444 377 364
3 452 449 372
3 452 372 378
3 453 378 379
3 453 452 378
3 379 381 453
3 453 381 454
3 457 456 455
3 450 457 455
3 382 450 455
3 374 450 382
3 458 454 381
3 458 381 383
3 460 459 385
3 459 383 385
3 459 458 383
3 460 461 459
3 455 456 387
3 456 386 387
3 456 462 386
3 455 387 382
3 388 460 385
3 388 389 460
3 389 461 460
3 389 463 461
3 462 390 386
3 464 390 462
3 391 466 465
3 463 391 465
3 389 391 463
3 464 392 390
3 467 392 464
3 393 466 391
3 469 394 468
3 394 467 468
3 394 392 467
3 470 469 468
3 471 395 469
3 469 395 394
3 469 470 472
3 469 472 471
3 475 474 473
3 471 396 395
3 472 476 471
3 476 396 471
3 476 398 396
3 399 398 476
3 399 476 477
3 480 479 478
3 478 479 475
3 478 475 473
3 401 478 473
3 400 401 473
3 482 403 481
3 403 477 481
3 403 399 477
3 483 482 481
3 485 484 405
3 485 405 406
3 478 408 480
3 408 484 480
3 408 405 484
3 408 478 401
3 482 409 403
3 487 486 410
3 487 410 409
3 483 487 409
3 482 483 409
3 488 486 487
3 490 489 412
3 490 412 413
3 406 412 485
3 485 412 489
3 486 415 410
3 488 491 486
3 491 415 486
3 491 417 415
3 417 492 419
3 491 492 417
3 494 493 420
3 419 494 420
3 492 494 419
3 496 495 493
3 496 493 494
3 497 495 496
3 499 498 422
3 499 422 423
3 422 500 425
3 498 500 422
3 425 501 427
3 500 501 425
3 427 502 429
3 501 502 427
3 413 429 490
3 490 429 502
3 493 430 420
3 430 493 432
3 432 493 495
3 497 503 495
3 503 432 495
3 503 433 432
3 423 433 499
3 499 433 503
3 506 505 504
3 508 507 504
3 504 507 506
3 510 509 508
3 508 509 507
3 434 435 510
3 435 509 510
3 435 511 509
3 512 435 436
3 512 511 435
3 513 436 437
3 513 512 436
3 514 437 438
3 514 513 437
3 438 439 514
3 514 439 515
3 517 516 442
3 442 516 441
3 443 504 505
3 517 443 505
3 442 443 517
3 504 443 445
3 504 445 508
3 508 445 446
3 508 446 510
3 510 446 434
3 518 515 439
3 518 439 447
3 519 447 448
3 519 518 447
3 521 520 449
3 520 448 449
3 520 519 448
3 521 522 520
3 524 523 451
3 451 523 450
3 451 441 516
3 451 516 524
3 452 521 449
3 525 522 521
3 452 525 521
3 453 525 452
3 453 454 525
3 525 454 526
3 527 456 457
3 528 527 457
3 450 528 457
3 523 528 450
3 529 526 454
3 529 454 458
3 531 529 530
3 529 459 530
3 529 458 459
3 461 530 459
3 533 532 527
3 532 456 527
3 532 462 456
3 533 527 528
3 534 531 530
3 530 461 534
3 461 535 534
3 461 463 535
3 532 464 462
3 536 464 532
3 463 465 537
3 538 463 537
3 535 463 538
3 540 467 539
3 467 536 539
3 467 464 536
3 541 540 539
3 542 538 537
3 540 468 467
3 470 468 540
3 541 470 540
3 543 470 541
3 546 545 544
3 543 472 470
3 547 472 543
3 550 549 548
3 548 549 546
3 548 546 544
3 475 548 544
3 474 475 544
3 547 551 472
3 472 551 476
3 477 476 551
3 477 551 552
3 555 554 553
3 557 556 553
3 557 553 554
3 556 557 550
3 556 550 548
3 480 556 548
3 479 480 548
3 479 548 475
3 552 558 477
3 477 558 481
3 560 559 483
3 481 560 483
3 558 560 481
3 561 559 560
3 555 553 562
3 555 562 563
3 485 562 484
3 562 556 484
3 562 553 556
3 484 556 480
3 559 487 483
3 565 564 488
3 565 488 487
3 561 565 487
3 559 561 487
3 567 566 564
3 567 564 565
3 569 568 566
3 569 566 567
3 570 568 569
3 573 572 571
3 575 574 571
3 575 571 572
3 577 576 574
3 577 574 575
3 576 577 563
3 576 563 562
3 490 576 562
3 489 490 562
3 489 562 485
3 564 491 488
3 491 564 492
3 492 564 566
3 492 566 494
3 494 566 568
3 570 578 568
3 578 494 568
3 578 496 494
3 580 579 497
3 496 580 497
3 578 580 496
3 498 499 579
3 580 498 579
3 581 498 580
3 571 500 573
3 500 581 573
3 500 498 581
3 500 571 501
3 501 571 574
3 501 574 502
3 502 574 576
3 502 576 490
3 579 503 497
3 503 579 499
3 584 583 582
3 505 506 582
3 506 584 582
3 506 585 584
3 586 506 507
3 586 585 506
3 587 507 509
3 587 586 507
3 588 509 511
3 588 587 509
3 589 511 512
3 589 588 511
3 590 512 513
3 590 589 512
3 591 513 514
3 591 590 513
3 514 515 591
3 591 515 592
3 582 583 517
3 583 516 517
3 583 593 516
3 582 517 505
3 594 592 515
3 594 515 518
3 595 518 519
3 595 594 518
3 596 519 520
3 596 595 519
3 520 522 596
3 596 522 597
3 599 598 524
3 524 598 523
3 524 516 593
3 524 593 599
3 600 597 522
3 600 522 525
3 525 526 600
3 600 526 601
3 598 528 523
3 602 528 598
3 603 601 526
3 603 526 529
3 529 531 603
3 603 531 604
3 605 532 533
3 606 605 533
3 528 606 533
3 602 606 528
3 607 604 531
3 607 531 534
3 534 535 607
3 607 535 608
3 609 536 605
3 605 536 532
3 605 606 610
3 605 610 609
3 538 608 535
3 538 611 608
3 609 539 536
3 541 539 609
3 610 541 609
3 612 541 610
3 538 542 613
3 614 538 613
3 611 538 614
3 612 543 541
3 615 543 612
3 618 617 616
3 616 617 614
3 616 614 613
3 546 616 613
3 545 546 613
3 620 547 619
3 547 615 619
3 547 543 615
3 621 620 619
3 624 623 622
3 626 625 622
3 626 622 623
3 625 626 618
3 625 618 616
3 550 625 616
3 549 550 616
3 549 616 546
3 620 551 547
3 628 627 552
3 628 552 551
3 621 628 551
3 620 621 551
3 629 627 628
3 624 622 554
3 555 624 554
3 630 624 555
3 554 622 557
3 557 622 625
3 557 625 550
3 627 558 552
3 629 631 627
3 631 558 627
3 631 560 558
3 633 632 561
3 560 633 561
3 631 633 560
3 635 634 632
3 635 632 633
3 637 636 634
3 637 634 635
3 638 636 637
3 641 640 639
3 643 642 639
3 643 639 640
3 645 644 642
3 645 642 643
3 647 646 644
3 647 644 645
3 649 648 646
3 649 646 647
3 649 630 648
3 630 563 648
3 630 555 563
3 632 565 561
3 565 632 567
3 567 632 634
3 567 634 569
3 569 634 636
3 651 650 570
3 651 570 569
3 638 651 569
3 636 638 569
3 650 651 641
3 639 650 641
3 652 650 639
3 653 639 642
3 652 639 653
3 573 653 572
3 653 644 572
3 653 642 644
3 572 644 575
3 575 644 646
3 575 646 577
3 577 646 648
3 577 648 563
3 650 578 570
3 578 650 580
3 580 650 652
3 580 652 581
3 581 652 653
3 581 653 573
3 654 583 584
3 585 655 584
3 584 655 654
3 586 656 585
3 585 656 655
3 587 657 586
3 586 657 656
3 588 658 587
3 587 658 657
3 658 588 659
3 588 660 659
3 588 589 660
3 661 589 590
3 661 660 589
3 662 590 591
3 662 661 590
3 591 592 662
3 662 592 663
3 664 593 654
3 654 593 583
3 665 654 655
3 664 654 665
3 666 655 656
3 665 655 666
3 667 656 657
3 666 656 667
3 668 657 658
3 667 657 668
3 658 659 669
3 670 658 669
3 668 658 670
3 672 671 670
3 672 670 669
3 674 673 671
3 674 671 672
3 675 673 594
3 673 663 594
3 663 592 594
3 663 673 674
3 595 676 594
3 594 676 675
3 596 677 595
3 595 677 676
3 597 677 596
3 678 598 599
3 593 664 599
3 664 678 599
3 664 679 678
3 680 664 665
3 679 664 680
3 681 665 666
3 680 665 681
3 682 666 667
3 681 666 682
3 683 667 668
3 682 667 683
3 684 668 670
3 683 668 684
3 685 670 671
3 684 670 685
3 686 671 673
3 685 671 686
3 687 673 675
3 686 673 687
3 688 675 676
3 687 675 688
3 677 690 689
3 688 677 689
3 676 677 688
3 692 690 691
3 691 690 600
3 690 677 600
3 677 597 600
3 601 691 600
3 694 693 678
3 693 598 678
3 693 602 598
3 696 695 694
3 678 696 694
3 679 696 678
3 697 679 680
3 696 679 697
3 698 680 681
3 697 680 698
3 699 681 682
3 698 681 699
3 700 682 683
3 699 682 700
3 701 683 684
3 700 683 701
3 702 684 685
3 701 684 702
3 703 685 686
3 702 685 703
3 704 686 687
3 703 686 704
3 705 687 688
3 704 687 705
3 688 689 706
3 688 706 705
3 692 691 707
3 692 707 708
3 603 709 601
3 709 691 601
3 709 707 691
3 604 709 603
3 693 606 602
3 710 606 693
3 711 695 696
3 713 712 711
3 696 713 711
3 697 713 696
3 714 697 698
3 713 697 714
3 715 698 699
3 714 698 715
3 716 699 700
3 715 699 716
3 717 700 701
3 716 700 717
3 718 701 702
3 717 701 718
3 719 702 703
3 718 702 719
3 720 703 704
3 719 703 720
3 721 704 705
3 720 704 721
3 705 706 722
3 723 705 722
3 721 705 723
3 723 722 708
3 707 723 708
3 724 723 707
3 725 707 709
3 724 707 725
3 607 726 604
3 726 709 604
3 726 725 709
3 608 726 607
3 710 610 606
3 727 610 710
3 712 713 728
3 712 728 729
3 730 713 714
3 728 713 730
3 731 714 715
3 730 714 731
3 732 715 716
3 731 715 732
3 733 716 717
3 732 716 733
3 734 717 718
3 733 717 734
3 735 718 719
3 734 718 735
3 736 719 720
3 735 719 736
3 737 720 721
3 736 720 737
3 738 721 723
3 737 721 738
3 739 723 724
3 738 723 739
3 740 724 725
3 739 724 740
3 741 725 726
3 740 725 741
3 611 741 608
3 608 741 726
3 743 612 742
3 612 727 742
3 612 610 727
3 745 744 743
3 745 743 742
3 744 745 729
3 728 744 729
3 746 744 728
3 747 728 730
3 746 728 747
3 748 730 731
3 747 730 748
3 749 731 732
3 748 731 749
3 750 732 733
3 749 732 750
3 751 733 734
3 750 733 751
3 752 734 735
3 751 734 752
3 753 735 736
3 752 735 753
3 754 736 737
3 753 736 754
3 755 737 738
3 754 737 755
3 756 738 739
3 755 738 756
3 757 739 740
3 756 739 757
3 758 740 741
3 757 740 758
3 614 758 611
3 611 758 741
3 759 615 743
3 743 615 612
3 760 743 744
3 759 743 760
3 761 744 746
3 760 744 761
3 762 746 747
3 761 746 762
3 763 747 748
3 762 747 763
3 764 748 749
3 763 748 764
3 765 749 750
3 764 749 765
3 766 750 751
3 765 750 766
3 767 751 752
3 766 751 767
3 768 752 753
3 767 752 768
3 769 753 754
3 768 753 769
3 770 754 755
3 769 754 770
3 771 755 756
3 770 755 771
3 772 756 757
3 771 756 772
3 618 772 617
3 772 758 617
3 772 757 758
3 617 758 614
3 759 619 615
3 619 759 621
3 759 773 621
3 759 760 773
3 774 760 761
3 773 760 774
3 775 761 762
3 774 761 775
3 776 762 763
3 775 762 776
3 777 763 764
3 776 763 777
3 778 764 765
3 777 764 778
3 779 765 766
3 778 765 779
3 780 766 767
3 779 766 780
3 781 767 768
3 780 767 781
3 782 768 769
3 781 768 782
3 783 769 770
3 782 769 783
3 624 783 623
3 783 771 623
3 783 770 771
3 623 771 626
3 626 771 772
3 626 772 618
3 773 628 621
3 628 773 629
3 773 784 629
3 773 774 784
3 785 774 775
3 784 774 785
3 786 775 776
3 785 775 786
3 787 776 777
3 786 776 787
3 788 777 778
3 787 777 788
3 789 778 779
3 788 778 789
3 790 779 780
3 789 779 790
3 791 780 781
3 790 780 791
3 792 781 782
3 791 781 792
3 793 782 783
3 792 782 793
3 630 793 624
3 624 793 783
3 784 631 629
3 631 784 633
3 633 784 785
3 633 785 635
3 635 785 786
3 635 786 637
3 637 786 787
3 637 787 638
3 787 794 638
3 787 788 794
3 641 794 640
3 794 789 640
3 794 788 789
3 640 789 643
3 643 789 790
3 643 790 645
3 645 790 791
3 645 791 647
3 647 791 792
3 647 792 649
3 649 792 793
3 649 793 630
3 794 651 638
3 651 794 641