OFF
805 1566 0
1.5073479141 10.4222536074 9.3805620269
1.6077767891 10.5245533015 9.2566161704
1.6083440243 10.2892077338 9.2709734827
1.6066273375 10.3210213122 9.5065279271
1.6060601023 10.5563668799 9.4921706148
2.0544226059 9.6210555972 8.6809184840
2.2539309888 9.8129928817 8.0484599095
2.2890920911 9.1423764270 8.2301133438
2.2182527827 9.0353854405 8.9221488899
1.8835135468 9.8622892664 9.3988260608
2.2713571192 9.1211788088 9.8093679584
2.0816313307 9.7997481515 10.1252224636
2.3893291643 9.4191987169 10.5573934542
1.8904430206 10.3523130266 8.8242855571
2.2898482253 10.6930758194 8.0588904636
1.8797134302 10.4994703732 9.9493327164
2.2651726823 10.1868404193 10.7600276133
2.0826132624 11.0576931939 8.6645435398
2.3719552741 11.4544087262 8.2831346360
1.8782955596 10.9862210152 9.3712197590
2.0349214077 11.2299617851 10.0927694211
2.2061557887 11.0521281458 10.7435562060
2.2485124222 11.7331125157 8.9847079678
2.1949597003 11.8179766088 9.8563867962
2.2502235353 11.7141049295 10.5638244057
3.0909984426 6.7267403663 6.8834535712
3.2435190454 6.8515662942 6.0782621168
3.3461679196 6.2077070149 6.3946115244
3.3621812442 5.9807092087 7.1461733703
3.0783974724 6.6444245955 7.8005873820
3.5492686893 5.7981094060 8.2813862400
3.1388248677 6.7078422335 8.7361929060
3.4569415565 6.2769982287 9.1154232457
2.9598335207 7.5041442333 6.6467015814
3.1819427404 7.7172904812 5.8777059186
2.8229412888 7.4288883212 7.4930128340
2.8041973430 7.4485844982 8.4628432562
3.2569557905 6.7737419577 9.4160595869
2.9598800313 7.4543948833 9.5029499111
3.2764593713 7.0489741927 9.9351704510
2.8981100215 8.3643798395 6.5620729745
3.1721733635 8.6613655512 5.8439670842
2.7258889315 8.1080389540 7.2201673411
2.5334040010 8.3294375728 8.1273549028
2.5557308048 8.2868158910 9.2235085523
3.1674027915 7.5505271730 10.3532016475
2.7943384104 8.4693558927 10.4762716388
3.4501156168 7.7642266196 11.3104373766
3.1045139703 8.6720980379 11.4963909920
3.4431851515 8.4389508281 12.0327197873
2.9062036719 9.2564303891 6.5519005379
3.1769441659 9.4424733278 5.9598827658
2.5820568214 9.0090023107 7.4033734442
2.7569199439 9.6182842285 11.4750662579
3.2255685411 9.1565481621 12.1836361209
3.0189888945 9.9444549459 6.4367741264
2.6680125839 10.1152371813 7.2164868269
3.0482931476 10.7390096276 6.6378967848
2.5434815261 10.7958494992 11.5659113998
3.0759247265 9.8493371114 12.3532628842
2.8944334142 10.5215111501 12.3237830837
3.1757791913 10.3258734435 12.8693752281
2.7232324337 11.3347751354 7.5317565542
3.1573583304 11.7147195312 6.8377711789
2.4948257930 11.8642193413 11.4667232327
2.8096841585 11.5715134637 12.5479722415
3.0977331865 11.0184538520 13.1004875523
2.9727296956 12.1777384950 7.5064123040
3.2469403079 12.5074483670 7.1237988670
2.7017752740 12.3753600830 8.3900948765
2.5073489255 12.5792471176 9.5651058894
2.4770517150 12.5379653439 10.6831227046
2.6226392195 12.7829122474 11.6664955915
2.7442993838 12.5757241802 12.4421645584
3.0573442569 11.7204161050 13.3986241597
3.0031092977 12.5183347822 13.4236803316
3.2269785452 12.0894833161 14.0351418544
3.2783283140 12.8182742707 14.2387321672
3.4479328554 12.4862530926 14.6320881395
3.1003893330 12.8882081448 7.7799287958
3.0044115723 13.2529203050 8.4357118246
2.8662597711 13.4467619531 9.2668645148
3.1718992847 13.9072487110 8.7264148213
2.7288163060 13.4360130477 10.3351725578
2.7345711296 13.4618311464 11.3618080137
2.8237604118 13.4268247215 12.3115307180
2.9470956593 13.2601835080 13.0841701241
3.2853530485 13.5604660855 13.9420138554
3.7191731997 13.3961358343 14.8767420044
3.1187771527 14.2062149198 9.3755802982
3.3592388601 14.5110478825 9.0180136345
3.0118947549 14.2032702753 10.0836094610
2.9648366302 14.2258418844 11.0412831566
3.0083970242 14.2166045363 12.0373748576
3.1691492605 14.1452109375 13.0885626364
3.6253387861 14.5325723174 13.9936529249
3.7210460824 14.1225419384 14.5177496369
3.3322616855 14.7844406811 9.7484915703
3.2627190352 14.8811248471 10.6765134892
3.2641158836 14.9070070130 11.6391293359
3.3611756755 14.8975721013 12.5914632654
3.5293060593 14.8901059641 13.3506440516
4.1701058325 4.7180276489 6.5894642314
4.4858617014 4.5829435934 5.8061587987
4.6490764435 4.1776438388 6.3557025376
4.7820199666 3.9340190055 7.2445059264
4.1986114505 4.5602893739 7.6243845792
4.7005481292 4.1536262167 8.2564555736
4.2625088522 4.6054239657 8.3335376906
4.6209644480 4.4652706469 8.8681242219
4.0755996492 5.3176991563 5.5097949604
4.3081671764 5.4599163456 4.6311597887
4.7360151962 4.7977263305 4.9349308160
3.6646965294 5.5551356911 6.4071322709
3.7525984545 5.2254116234 7.3299369219
3.9280725593 5.0083802666 8.0764066545
4.1789663365 5.0490993736 8.8896006408
4.1097688035 6.5724342307 3.7884884543
4.4760903653 6.5929875183 3.0450280103
4.4031845352 6.1331396345 3.4853621087
4.3406833849 5.8507847331 3.9768932977
3.9140470651 6.2060782490 4.7071886923
3.5854030950 6.1552142436 5.6832617950
3.8932549204 5.7533869013 9.3663732234
3.6402744018 6.4463431127 9.9216829137
4.3212948684 5.8004947506 10.3959187821
3.9730489843 6.4907568314 10.8124692660
4.5544568386 6.1051694021 11.3709271385
4.1788214646 6.6174872342 11.4722437847
4.5977545844 6.4681372356 12.0013178034
4.0473817119 7.5429986036 3.4340996107
4.3915567456 7.3778618359 2.7219111403
3.7584235216 7.2641661350 4.3773445223
3.4961115460 7.0134014801 5.2607200451
3.5231434328 7.0453223740 10.5786285533
3.8183935971 6.9965135332 11.2246538434
4.1319538123 7.1212796176 11.9977209005
4.2745109707 8.2290130761 2.7622136069
4.7715350818 8.3635268403 2.1519658691
4.6469717957 7.6577337081 2.3167482553
3.9619666162 8.5220810721 3.4878740370
3.7321872089 8.3165853536 4.2384544790
3.4532907726 8.0192862028 5.0941564666
3.8545143099 7.9243682337 12.3606407331
3.6958736960 8.7867377650 12.8495761543
4.1793007874 8.1242840235 13.2003151759
4.0564607120 8.7670280156 13.5669688173
4.4069330319 8.3963506826 13.8788601728
4.4504624602 8.9884568013 2.5278222257
4.9699663863 9.4063990851 2.1029506362
4.1431107014 9.1401692062 3.1501040681
3.8671084874 9.3836812285 4.0889288606
3.4839584709 9.1899448621 5.1472322779
3.3975484164 9.6983814647 12.9334159477
3.8214667948 9.5872351436 13.7485401398
4.2607953999 9.0802356346 14.2032839060
4.4605757217 9.7545178394 2.8050932886
4.1740172402 9.9348966553 3.5352020904
4.0127822188 10.2318311552 4.1955341300
3.7208794976 10.3641325948 5.0184473311
4.0871827592 10.9538170757 4.4865710933
3.3165082070 10.1411322589 5.8663451514
3.4419261807 10.5858783409 13.6489718888
4.1052922587 9.7628359948 14.4792901476
3.8545094035 10.5233846195 14.5693032174
4.1805468321 10.1080149681 14.9276832186
3.8475349185 11.5340276499 5.3214250523
4.2865288469 11.8622587397 4.6162646323
3.4403642030 11.1406958371 6.0005796169
3.2573554729 11.3992666660 13.7597499513
3.5240360586 11.5756194000 14.4914750119
4.0964973299 10.5894229017 15.1815079165
3.8656939520 11.3846151203 15.2312288576
4.1986044574 10.7216771136 15.4749824038
3.9502876668 11.4517353828 15.5275968941
4.0497992950 12.5663946969 5.4621145064
4.6075941790 12.8226549855 4.7313589139
3.5715664974 12.3255654237 6.3216955142
3.7285348116 12.5009996113 15.1937236366
3.8628747925 12.1441135874 15.5032348100
4.3145509595 13.4208873332 5.5291314593
4.7472926853 13.5350490658 5.0859601736
3.9013406529 13.3814643806 6.3008439036
3.4901540516 13.3554426724 7.2635131848
3.2515030399 13.5631834636 8.0718376109
3.9384626009 13.2390637094 15.3937663644
4.0597044267 13.1065718006 15.5896593167
4.6613419988 13.9709409152 5.5457420409
4.3038848267 14.1327366634 6.1784780289
4.9266116055 14.6145984802 5.9814574209
3.9513258411 14.3474356965 7.1334951303
3.5473138616 14.3056711681 8.1754791765
3.9232815743 14.5510937917 14.5252676885
4.3661056997 14.4343733789 14.9852401515
4.4716033696 13.8188812925 15.5529155098
4.5506464148 13.6430128788 15.7862236874
4.4544277012 14.8466336180 6.7384920535
4.2407699065 15.0639109844 7.3727403644
4.0049904989 15.0375066695 7.9664734004
4.3029281568 15.3601568513 7.7463876922
3.7463050420 15.1353471492 9.0101066458
3.6518926617 15.4466232709 10.2390355858
3.5115643106 15.3724128780 11.1887377855
3.6489505638 15.5008560735 12.1434664025
3.7517647234 15.3953315491 13.0844007233
3.9301113054 15.2280401048 13.7900175509
4.1825359836 14.9709203558 14.4109827513
4.3992690404 15.6327272524 8.3355445792
4.0370616898 15.7631544371 9.4789761045
3.9242744398 15.8860963824 10.2660677568
3.7793959671 15.7615575105 11.1253160643
3.9594111649 15.9818221709 10.4534172840
3.9006971770 15.8398561553 12.2931061827
3.9879377420 15.7847935027 12.9336389795
4.1038292519 15.6461230854 13.5256998570
5.3533041133 3.4006239992 7.5181776562
5.2674173671 3.4802888835 6.9427379668
5.8465786134 3.0714005644 7.2339599439
5.7911046473 3.1501568547 7.9466357538
5.0541761085 4.0870509597 5.7188659274
5.0228269213 3.7813518016 6.4971976237
5.4008895681 3.5784457110 8.2865792302
5.3246081336 4.0433071318 9.2296785365
4.9065412372 4.6636479548 9.6719133251
5.5488745368 4.2740889541 10.0241493019
4.8833148259 5.6562966008 3.3144352480
5.3280021416 5.6164423248 2.6788497789
5.6651556705 5.1965796521 2.9558361823
5.4668742785 4.7590625771 3.9335819291
4.7018415593 5.2745025625 4.1410524824
5.3746581230 4.2797228469 4.8719719629
4.4156183180 5.2608177802 9.7357426778
5.5794021596 4.6019498040 10.5909807937
4.9295812488 5.1296180233 10.4457413274
5.4698384459 5.0258796221 11.1230625442
5.0339388282 6.1387863804 2.5840502159
5.4426439008 6.4287037621 2.0952616892
5.4832025537 5.8532588932 2.3211714476
5.0419812169 5.5105873384 11.2442442180
5.4160988437 5.8596118645 12.3553523940
4.8824305204 6.7688060852 12.8450918288
5.5958923175 6.2887117457 13.2491007731
4.8300956645 6.9168244747 2.3806409496
5.2899047573 7.4267682073 1.9051721458
4.3515885256 7.4748652956 12.8267909502
5.4697446721 6.7918892630 13.7598565463
4.8269135965 7.6066642971 13.7757640785
5.5279123282 7.2536059449 14.4329573733
5.2000242900 7.7895620033 14.5995925990
5.5962257729 7.6093923436 14.9270845981
5.4126279343 8.4520901979 1.6921632602
4.8242377357 8.5464831002 14.6641977294
5.3991506533 8.1091925555 15.0983592454
5.6722080270 9.3060725610 1.5385876758
4.4473204235 9.4944620398 14.8639558625
5.3129001273 8.6570379005 15.3313088396
4.9674277332 9.3182983563 15.3904605362
5.8083883608 8.9038457158 15.7477166599
4.8770755347 10.4525341742 2.5653812895
5.6098171423 10.4031939608 1.8761681002
4.4722567334 10.5374269992 3.2690632368
4.2321265825 10.5676861134 3.8642232177
4.4258093032 10.0624836619 15.3134638081
5.4034978877 9.3971130020 15.7678470140
4.7294970539 9.9242647965 15.5825647494
5.2519278077 11.2052306047 2.5017217639
5.7301279140 11.2804916641 2.1633491923
4.8114023469 11.2499479905 3.1474684848
4.4379062528 11.2116301391 3.8639051250
5.5734706491 11.7119054338 2.5418518435
5.2285033456 11.8532839601 3.0279553807
5.7860646044 12.1828058983 2.9178373137
4.8263912239 12.0633174095 3.8282902129
5.3943276205 12.3978356044 3.4478256027
5.2559499913 12.8415971409 4.0634609504
5.1014218909 13.3490564125 4.6390740488
5.3705956522 14.0080656937 5.1225522209
5.7092965898 14.6874240410 5.7035315558
4.8788680849 14.3415163527 15.4658247574
5.3730760615 14.2038077583 15.7372589139
5.2602411515 13.8964385605 15.9237605317
4.9325014320 15.1733590596 6.6084920523
5.4610150236 15.1462961987 6.2921362400
4.6771403881 15.4153369192 7.3341272706
4.4845374988 15.5582367215 14.1327191653
4.9202592119 15.1983776107 14.7476598229
5.4329174466 14.7386117903 15.3124343398
5.3480968037 15.5095917390 6.9485798728
5.2742915825 15.7987635205 7.7958919322
4.8951521847 15.9367423052 8.3414727104
5.5923328246 15.9990934864 8.2778024786
4.3624353357 15.9317310878 9.0166663842
4.0939981085 15.9936113203 9.8425252445
4.0959881831 15.9256922195 12.9305718234
4.3001830592 15.8400097734 13.5482415701
4.6854282009 15.7828781717 14.1023755145
5.2036519941 15.6465930583 14.4946671941
5.6080560357 3.4312728387 6.2961196811
6.3509119769 3.1402687232 5.8344156018
6.2099150751 2.9301022160 6.6107112891
6.4831077767 2.6716056457 7.2249765423
6.5963550440 2.7162484001 8.1882215323
6.0696944900 3.1577705836 8.5445253567
6.6182113498 3.0142221539 8.9993078350
6.0091134721 4.0719978664 4.4518269161
6.2511397368 4.3122711774 3.7757720507
6.7277996199 3.9104819765 3.9987672997
6.6448436934 3.4698008089 4.8380740213
5.8033464303 3.7379842166 5.3292341438
6.2086490655 3.4538242192 9.3166711247
6.1979402782 3.9367451817 10.2152325083
5.8835068658 4.2509999209 10.4398592178
6.2906913971 4.2799056218 10.9392691486
5.7399849246 5.4957490246 2.4471011887
5.9986445119 5.8482388985 2.0819586937
6.3249442322 5.2671249352 2.4467591662
6.4131088987 4.6902331459 3.1271058766
6.1841697719 4.7197479735 11.5446999365
5.7177636127 5.2342821943 11.8276759157
6.3651277784 5.0498507109 12.3333496527
5.9335749723 5.3593753675 12.3481341060
6.2935574286 5.4043695258 12.8222273079
6.1801188908 6.6190009900 1.6688078776
6.3578340906 5.8381313970 13.4694963965
5.9915614767 6.3405747357 13.8161612942
6.4775484651 6.2258455306 14.1270091684
6.0303750769 7.6580270085 1.4536661706
6.1670695927 6.7103956283 14.4247366436
6.0850038757 7.2698519072 14.9839386463
5.9370583998 7.8208521370 15.3312219860
6.5093574280 7.5315986673 15.4105486808
6.0413176305 8.5281880970 1.3209578197
5.7476133391 8.3432337879 15.5039927760
6.4697975577 8.2060584735 15.7170795088
6.1712947656 9.1205510581 1.2330575569
6.6684201890 9.2102858754 1.1268253057
6.5199539953 8.6421761272 1.1282924711
6.7840247684 8.9186609078 16.0110495555
6.1533081220 9.7698944162 1.3423294839
6.7464063301 9.9233701917 1.2357280214
6.2413427043 9.2135345731 15.9987993747
6.3073325107 10.3968711962 1.4756835851
6.3290176340 11.0608512047 1.8463538900
6.1097448025 11.7404707974 2.3679223762
6.5618642542 12.2309839495 2.8483975888
6.0549606200 12.7876383975 3.5565323100
5.7665971147 13.4057273892 4.3326723596
6.6166005327 13.3269415357 4.0837427849
5.9777958817 13.7995442741 16.0978038524
6.6417147045 13.5947827999 16.0999419176
6.0833053931 13.9202415012 15.9965023366
6.3921422344 13.8836967124 4.7732146961
6.0837130367 14.3401916988 5.2526697752
6.6333959304 14.2740876867 5.2298292719
6.2466574715 14.3236348033 15.7004045146
6.5047866835 14.6297549615 5.6906219571
6.1489143812 15.0750789389 6.2176063770
6.4295387291 14.8909727261 15.2699439063
5.8917260158 15.4193106965 14.8081260833
5.8807800891 15.4114299670 6.6727227179
5.9741712729 15.6382532783 7.3378443764
6.1555419374 16.0556782192 8.8498344736
6.1512648307 15.8604224187 8.2601701553
6.4545698692 16.1313072418 9.6507134904
6.6071205495 15.9427521278 9.3149858278
6.5902881685 16.1805269038 10.2450913844
6.7215683369 16.0755629375 10.2212824223
6.8010628983 16.1237118378 10.8512543551
6.4793633480 16.0024106682 13.8949240206
6.8588011315 15.9461888481 13.4502149659
6.6994973522 16.1022997643 13.3710729433
6.0041590973 15.8055943799 14.4104089369
6.4994891705 15.7667821183 14.2649704174
6.9903644986 2.5166282854 6.5488724614
7.5886671682 2.4114303196 5.8794752760
7.8716940411 2.0492228163 6.5431250643
7.6762043172 2.0482355895 7.3557833421
7.0259982408 2.3451769518 7.6014835726
7.5730428187 2.1209067217 8.1276598157
7.1107827439 2.3253833309 8.1551297877
7.4115794355 2.3448079252 8.6404501705
7.0908654654 2.8725312937 5.4722213848
7.3430713054 3.1115412846 4.7646087031
7.8845961224 2.6970575893 5.0936791738
7.4383450423 2.7252337875 9.3216740251
6.9647195717 3.1267388111 9.6088385116
7.5263370881 3.0743493932 10.0426311826
6.7840710202 4.2289262003 3.4569432857
7.2077810064 4.3995685635 3.0699179718
7.3928299091 3.9750722727 3.4930030450
7.4276161803 3.4829353767 4.1194119810
7.1278285602 3.4602674847 10.3289811986
7.1251754043 3.9595575555 11.2017331866
6.8236724176 4.3444259109 11.6141743773
7.3860719285 4.2499037348 11.9545514975
6.8690582906 5.7775087587 1.8767434366
7.2901168134 4.9704248142 2.5122819923
7.0954133970 4.6506568337 12.3402580303
6.9850838570 5.1074579059 12.9931562829
6.7469771315 5.4120515719 13.2841443226
7.3395232696 5.4496540313 13.7048407647
6.9215816094 6.4133472928 1.4370248930
7.2554046377 6.7020698006 1.2513379737
7.4692474072 6.1727146220 1.5085370583
7.0845463936 5.9783572607 14.2210231945
6.8351814108 6.4066723189 14.5735941565
7.5454283718 6.3457423900 14.8069550085
6.7258189344 7.0793466269 1.2826113366
7.2572089503 7.3629024485 1.1489261746
6.8967045527 6.9296855336 15.0764452350
7.2331554241 7.5692947325 15.5986851912
6.6269021201 7.9282680646 1.1742623460
7.1778961820 8.3486637846 1.1047220882
7.4636605659 8.3335440444 15.9188334820
7.3591832503 9.2937430796 1.1955668274
7.8049903647 9.2208264416 16.1016873150
7.2358351777 10.0644929777 1.3302073968
7.1384847780 9.3864504158 16.1415482350
6.8371531093 10.5583945178 1.4762287920
6.9932505387 11.0450772723 1.8078323632
6.8338351361 11.5961700791 2.2469596865
7.4775810931 11.9529000925 2.8070341552
7.1443477031 12.7443817887 3.5098236424
7.3196787668 13.2449551806 4.1166663952
7.4615001818 13.0199371479 16.0500991178
7.0675987534 13.6748688620 15.8950996852
7.0736432154 13.6100928976 4.5118336477
6.9301606893 14.3632253016 5.4661524465
7.3769834730 13.9382106085 5.2033165661
7.2610643277 14.4388751530 5.9145814363
7.0810133860 14.3513827143 15.5047303861
6.4985467829 15.3132011779 6.9077384892
6.9088230397 14.8864885477 6.4211833215
6.7114218636 15.4925215950 7.7832102118
7.3259905162 15.0113739012 7.3600266790
6.8938033022 15.6239481412 8.7179944569
7.4078331489 15.2098644911 8.3533574306
7.0803188721 15.6720883047 9.4604591667
7.4699763010 15.3403940367 9.2387721868
7.4336508948 15.4933040392 9.9055853943
7.0966758932 14.8657693904 15.1072984443
6.7508862367 15.3300434133 14.7404377667
7.0689613797 15.8033870436 10.1218000141
6.9741579404 16.0620597032 11.7901528570
7.1231063556 15.8974706111 11.1184480704
6.8981877583 16.0761495238 12.7575486048
7.2106350622 15.8532237760 12.4152249093
7.3249910563 15.6507013204 13.2981847057
7.0995255911 15.5601722529 14.0498386347
8.3401603600 2.1058527139 5.8767867780
8.3962446150 1.8144999929 6.5156209984
8.4990213100 1.7397911084 7.1998262917
8.3105107969 1.9117166538 8.0951738518
8.0732825437 2.1578225497 8.7727672250
7.8338463907 2.3730334041 9.1060246108
8.4408782405 2.5185464098 9.5277220996
7.8259733657 3.0916700646 4.4297697931
8.0702271463 3.2850269254 4.0038517086
8.4780913267 2.9948780784 4.3842829938
8.7488920770 2.4870735376 5.1129993213
8.2336459283 2.9662163336 10.2910997289
7.8681255669 3.2355372361 10.5900383422
8.3524983531 3.2619951591 10.9390472414
8.1223577814 4.3558110462 3.0420603975
8.0652028355 3.6642958300 3.5882171031
8.0043423077 3.5921017624 11.2372388098
7.9589290686 4.0570940349 11.9673818544
7.8175798631 4.4153429316 12.4809070664
8.4846184008 4.4215324563 12.6643646688
7.7726494370 5.6203192098 1.9936979607
8.1701922086 5.1211229205 2.5012675427
8.0023156950 4.9156731691 13.2363832040
8.1748481090 5.3859536420 14.0056788084
7.7439273118 6.7545516612 1.3455209080
8.0281922171 6.1981852553 1.7035843666
7.9096943863 5.8057988408 14.4016965592
8.5428770784 6.2658062858 14.9187890760
7.8359766981 7.5812146100 1.2917881745
7.8940244361 6.9175225054 15.3210499383
8.1687898484 7.6374031964 15.7192830870
7.8693250089 8.4842472809 1.2970426671
8.4003793049 8.4374989928 15.9506104915
7.9377642696 9.1453593845 1.3975878817
7.7749726498 9.8450840577 1.5295480308
8.1860728381 9.4208175589 1.6951845266
8.6318127012 9.1757170823 16.0217501367
7.3991919972 10.5667601993 1.6487419082
8.1836263769 9.9146459520 1.9208140496
7.9201112230 10.5154369967 2.0023122758
8.3440726158 10.3173021094 2.3436776696
7.8863199427 9.9639852024 16.1650131336
8.4968925916 10.1369348382 16.0433661933
7.4891994055 11.1848891527 2.1484878855
8.1505834548 11.1693354683 2.6757540621
8.2337990745 10.9322594568 16.1065004726
8.5659296156 11.4457845989 15.9001626480
8.1376310515 11.9325177550 3.1560251964
8.0729098470 12.0547044021 16.0446994401
8.0665011603 12.7499239699 15.8195594913
7.8597158457 12.4092114384 3.3943934365
7.6678645572 13.4540119987 4.5944161796
8.0325370439 12.8644991521 4.0970688840
7.9158588500 13.5748039307 4.9905257703
8.1774299775 13.2826033052 4.7854477345
8.3464766547 13.5048909770 5.3965916059
7.8379823343 13.7171676434 15.4858880678
7.6871572454 14.5598602791 6.7249444932
8.1436249520 14.0063147589 6.1877129338
7.9827110831 14.6036226562 7.4336723105
8.3895866389 14.1906212912 7.1616603088
8.4141055681 14.3511402248 7.8645925107
8.0424422986 14.5981309454 14.3950407027
8.5919867708 14.1400029612 14.0445322764
8.2679692237 14.6459998363 13.7411517023
7.6772460548 14.4481501666 15.0623303719
8.4122377121 13.8543064333 14.8301880457
7.9768471983 14.7486308693 8.1115442325
7.9986990901 14.8754879762 8.9952201986
7.5704922090 15.4830584205 10.6629400431
7.9618671202 15.0386671787 9.9879970393
7.6668992717 15.4687201625 11.6933053829
8.1138095998 14.9856295292 11.0583402339
7.7353567156 15.3724387808 12.7294996228
8.1848320583 14.9349538616 12.0744076863
7.7432625319 15.1595992312 13.7303581121
8.2206788927 14.8320257271 13.0227000214
7.4217236740 15.0522293963 14.5770265918
9.0225302967 1.6319015647 6.5338712742
9.6243404231 1.7014071792 6.1608194875
9.6642619295 1.4307439260 6.6598075683
9.4952540791 1.4083009578 7.0391387069
9.1750213390 1.5166206944 7.2904495597
9.6747966663 1.5334834362 7.5759662451
9.1281143351 2.0073831384 5.7183214352
9.4991449193 2.4302106824 5.2863308385
9.6106247983 2.0353505408 5.6681579913
9.1940678257 1.7577691911 8.0436661767
8.8885541758 2.1277118550 8.8681563356
9.4654840385 2.7389105881 9.6089003832
8.5052259458 3.3687720857 3.8165719974
8.7163723287 3.7838254768 3.5040378024
9.0295845302 3.3902590864 4.0299683567
9.2370977657 2.9474360573 4.6689983032
9.0339438542 3.0436770725 10.3944180709
8.8227940387 3.2785337249 11.0064249407
8.6416496212 3.4943147672 11.3965630489
9.0441052682 3.6689795630 11.5721414566
8.9468840879 4.3229941780 3.3078048640
8.7192262466 3.9570922373 11.9872628848
9.1230621437 4.5317346072 12.6486518277
8.5673332321 5.9279254067 2.3459842684
8.8713094855 5.0632521378 2.9853546664
9.0114250182 4.9507921920 13.2905272346
8.8389912743 5.3413831846 13.9636676415
8.6073870758 5.6882791773 14.4299762820
9.3560895542 5.9385712238 14.5551095240
8.3464423595 6.8969261543 1.7815724727
8.8054564501 6.7762113752 2.4010966776
9.1013809081 5.8015508901 2.9956049505
9.0858663927 6.4536100582 2.9019109428
9.3706634860 6.2097181637 3.3827446038
9.3632029858 6.5410343913 15.0784139621
8.3519710137 7.9263948112 1.6830026973
8.7650296909 7.5649584868 2.2762253209
9.1126624082 7.2806396449 2.9085020565
9.4153306679 6.9250692617 3.4782177860
8.8304081498 6.9990297613 15.4138030351
9.0595403712 7.7620271749 15.7048930470
8.3084005264 8.8006795322 1.6886873495
8.7072718048 8.5236144196 2.2453354276
9.0912503911 8.2236118123 2.9082117578
9.4438187074 7.8483159088 3.5493820767
9.2022954587 8.5922186167 15.8422083600
8.5347189051 9.5135133859 2.2304337665
9.0067892820 9.2680275186 2.9372836048
9.4456105207 8.8856555501 3.6196588471
9.2260159663 9.5112093683 15.8443817425
8.7873995924 10.4353277889 3.0185820637
9.3712150101 9.9994061453 3.7132775220
9.2048882459 10.5835217110 15.7113079973
8.6794415706 11.6034588480 3.4862712277
9.2382332552 11.0574666000 3.9027318519
9.0880839908 11.3885338279 15.6080280197
9.3836397903 11.0850454300 15.4776794928
9.4097357247 11.6413951185 15.1793258524
8.3311488584 12.2711051320 3.6152137198
9.1041390407 11.8033867996 4.1291060408
8.7242574394 12.3096933987 4.1131947347
9.1522808720 12.2459933509 4.6153580356
8.8247149755 12.1594233729 15.5229821542
9.1470071913 12.5336574257 15.0006278828
8.7447836395 12.8589806804 4.8590043811
8.9908399312 13.1162765721 5.6166989437
8.9350633613 13.8934244442 9.6543240038
9.3353111254 13.3165376071 9.2688161692
9.1015516587 13.6979239277 8.8167765400
8.9852400533 13.7900895211 10.7256617987
9.3411949385 13.1787180660 10.0383980755
9.0089122712 13.7545869406 11.7273233611
9.3458590546 13.0806334372 11.0205676758
9.0193234381 13.7585727794 12.6550642148
9.3489349322 13.0958557148 12.0331498773
9.3164788834 13.2154142961 12.8720095436
8.5685883747 13.0699680299 15.3085123673
8.9375608435 13.1992476116 14.7973703118
8.8039882422 13.5067008886 6.0828824030
8.9346359632 13.6222806090 6.8468584457
8.5838340928 14.2855409453 8.7049961299
8.9795806852 13.7779536333 7.9067607965
8.4372388240 14.5190527852 9.5581945551
8.5370606289 14.4449822684 10.4117485166
8.6028527936 14.3910270261 11.4156460467
8.6351591615 14.3499289327 12.3871812655
9.0250697641 13.6907597709 13.4747039457
8.6481060726 14.2740550277 13.2619641672
8.9931688888 13.4967564914 14.2247757802
9.8619434463 1.5043606085 6.4730793625
9.9959081960 1.5109263690 6.7468682284
9.9104931361 1.4766496942 7.1293163310
10.1343387188 1.7552105736 7.6149228925
9.7954697251 2.2322507229 5.5642298746
9.9516429283 2.0833797959 5.9426902905
10.0622906044 1.7861831091 6.4553632652
9.9714074388 1.9236553816 8.1594342217
9.6959458989 2.1939467841 8.8117841758
10.0866953114 2.7248765858 9.1421134994
9.3149055179 3.9940824992 3.8032085789
9.6766849185 3.6300898407 4.5201187778
9.8536093430 3.0496951005 5.1148398770
10.0153408327 2.5677065690 5.6410367159
9.6606869875 3.5731630408 10.4718035041
10.1370730608 3.5478886785 9.6098007838
9.3343168658 3.6327480258 11.1773375701
9.4048581990 4.7497505932 3.6312515727
9.7773520139 4.4835416179 4.3098850026
10.1124977194 3.6305327046 5.1514545956
10.1133555097 4.2569815046 4.9965952883
10.3600001770 4.0241798793 5.5418054547
10.0216786238 4.5461753839 10.4596921778
10.2976308807 4.4644073358 9.6170366316
9.7306219334 4.3359957584 11.3060713683
9.4062728411 4.2946368162 12.0142172302
9.4141258808 5.5689114585 3.5155700808
9.7867895433 5.3897579923 4.2057513089
10.1274082940 5.1258044998 4.9507705339
10.4242074729 4.7640411381 5.6607364367
10.2155421321 5.4292671172 9.8658284077
10.4665136256 4.9161128714 9.0993945949
10.4376521309 5.7550971158 8.9172427510
10.0531014094 5.5461669647 10.7643789811
9.9596140179 5.2524778909 11.4233578331
9.8064481935 5.0008543561 12.0537609464
9.7290080820 5.2747034840 12.9550605927
9.5897702354 5.5351026019 13.8768596143
9.7138309038 6.4107490435 4.0433581277
10.1022774175 6.1410851748 4.8816362301
10.4223174739 5.7546559095 5.6973735640
10.1939650717 6.6405996292 9.6101730512
10.3824513906 6.5714456448 8.7426334856
10.0819594670 6.4020315807 10.5986465565
10.0551178519 6.2469764840 11.4753738422
10.0637030339 5.9811604971 12.3671410456
10.2286218083 6.1557471255 13.1844864254
10.2182307216 6.0234215880 13.7957053443
10.0093076161 6.0248631650 14.3419753687
10.0947618943 6.6254949741 14.8419747825
9.7102637339 7.3763280386 4.0414740952
10.0742819094 7.3038781511 4.7720728171
10.3858493195 6.8309691847 5.6038788491
10.2477058282 7.4903287830 8.9471742833
10.4573921956 6.9721999862 8.2242257604
10.4259508743 7.7977739663 8.0500723074
10.0878684026 7.6580111197 9.8216887446
10.0563194779 7.4266929486 10.5397497406
10.0834572233 7.2621797785 11.4127210595
10.1946949677 7.0754402043 12.2671708031
10.3741813072 6.8878025876 13.0499631679
9.6476716681 7.1864926505 15.3488329345
9.7916978949 7.9961028926 15.5399988339
9.8680091295 8.3404118097 4.3269268911
10.2378877069 8.2270202153 5.0422949650
10.3831317336 7.7262750911 5.4824050351
10.2266936362 8.5695700338 8.7679959153
10.4149192376 8.8100458396 7.9431183350
10.0789572657 8.4724853208 9.6493865952
10.0243412598 8.4139364770 10.5250522091
10.0736257880 8.2857285524 11.3840704391
10.2127550130 8.1079610407 12.2247535321
10.4162089095 7.8570819511 13.0168549789
9.8360158217 8.8687297583 15.5609190546
9.8400834416 9.5364813804 4.3532131279
10.2232939231 9.0983053501 4.9983981593
10.2252243697 9.5750488621 8.6791242221
10.4191193022 9.7854255946 7.9203496921
10.0660050710 9.4642093261 9.5530652406
10.0018831973 9.3968020062 10.4839257498
10.0490095760 9.3002605097 11.3906411956
10.1929589097 9.1210690361 12.2235081520
10.3906239580 8.8575101840 12.9935030109
9.8014350702 9.8109509161 15.4607242483
9.7888929030 10.7050267499 4.5879041224
10.1993482552 10.0984432889 5.0579957500
10.2353804129 10.4938867330 8.5841501922
10.4092839979 10.5546972613 7.9735106888
10.0479446444 10.4751914470 9.4464636022
9.9573601021 10.4106231042 10.4437553597
9.9920489795 10.3280897935 11.4390126151
10.1420164148 10.1183228314 12.2989955708
10.3407120072 9.7977625195 12.9997729612
9.7551302574 10.7414554477 15.2166095661
10.1470427552 10.0880261251 15.0111346289
10.1470000392 10.6431144514 14.7360635457
9.4903314340 11.6662811183 4.6499522565
10.1797364082 10.8664239632 5.2685066075
9.9526963327 11.5986336728 5.4155656622
10.2999910107 11.2430072526 5.7519090176
10.2803609168 11.0888083660 8.3657790359
10.2185146380 11.6296274567 8.3140902939
10.0020135363 11.5581892875 9.1224363543
9.8609506123 11.4147400058 10.3327485059
9.8546119552 11.3604653624 11.4391731121
9.9989270534 11.2045051570 12.5761912815
10.2607033917 10.6354788057 13.1321725040
9.9107179428 11.3606173242 14.5637689005
10.2393282757 10.8776349554 14.3176973452
10.1350336140 11.3124339555 13.9878771221
9.4264131509 12.4478258054 5.3921193893
10.2317876129 11.7245109698 6.0904293851
9.9140550790 12.3384353415 6.3210233507
10.2754953119 11.9428865914 6.6170029265
9.9538903450 12.3276916600 8.3205901731
10.2663872324 11.8824130272 7.8667896215
10.1270840341 12.2973011477 7.5905777754
9.6546062399 12.6533028862 9.2638778677
9.6545367696 12.3631803343 10.1974664797
9.6332302628 12.2921185905 11.2758557908
9.6482719873 12.3472657676 12.5122715967
10.1465132346 11.2566663360 13.4524478543
9.8100356213 11.9781167086 13.7140215143
9.5666836329 12.1039360509 14.5886353447
9.3460025451 13.0442108226 6.2862008957
10.1251611858 12.3160540388 7.0404810824
9.6587053664 12.9117884188 7.3723262273
9.4859791763 13.1389278460 8.5084171712
9.3969411742 12.9761919025 13.5533718307
9.3536821751 12.7756552353 14.3478106896
10.2922845770 1.9013541241 7.0980605636
10.3943662131 2.5345711937 6.5088808143
10.5752435058 2.4355047261 7.2641583427
10.5414269046 2.4300347723 7.9499514917
10.2459250224 2.4025129534 8.6218482746
10.3382960818 3.3279359357 5.7910481636
10.6501229131 3.4763663795 6.6253277034
10.7661693921 3.1049559021 7.4738312168
10.8310579293 2.8899158674 7.9682577508
10.7823024348 2.8817188874 8.2883824894
10.8448342736 3.2182899430 8.3352646739
10.5713928699 3.0889202835 8.6869156815
10.6043496441 4.1849336474 6.2240992918
10.8227595380 4.3165875114 7.2210890721
10.8935897681 3.2264869230 8.0151399353
10.8088726309 3.7118994778 8.1412103688
10.5480147082 4.0920002570 8.9154067827
10.7269652901 5.1971585811 6.6033394609
10.8940340375 4.9500527794 7.1094752159
10.8962329581 4.8901289069 7.4897549905
10.8804886577 5.2568653910 7.5188725084
10.7368597335 4.9824155234 8.0959994970
10.6155824270 6.3699034892 6.4845294502
10.8782897370 5.3167892635 7.1385927338
10.7671167335 5.7643671538 7.3317858025
10.5883543804 6.1570150509 8.1094720157
10.5200605288 6.6704594669 13.6255697854
10.5445551096 6.4760993497 13.9507895082
10.3656173311 6.3105829736 14.3716978329
10.4458267945 6.6774372181 14.7077150226
10.5625950726 7.6079935444 6.3334164606
10.6008600579 6.9675096657 7.3778249267
10.6213348548 7.5152244139 13.7585156496
10.6921295754 7.0258936591 13.9182933490
10.2520637698 7.5382762763 15.1103160181
10.5281215822 7.2520035545 14.7521108116
10.4912239641 8.6291122489 5.7560517492
10.6093443449 8.5856984452 6.5583301180
10.5643506045 8.1379872140 7.2173017012
10.5658550295 8.5125407649 13.7401075762
10.7060576335 7.4705993648 14.2779117309
10.5694528073 8.1050173326 14.5645036126
10.2496464780 8.3090091963 15.2244010653
10.4760150432 9.7178225876 5.6855734466
10.6042116331 9.4480432636 6.4394319833
10.5683931518 9.1514909870 7.1948865728
10.4958426152 9.4715607808 13.6840815798
10.5457249677 9.0911920580 14.3015951599
10.3057870647 9.1849193527 14.9881317636
10.4205608456 10.6154561556 5.7221245212
10.5712009466 10.3966466090 6.3899086244
10.5540961459 10.2235306391 7.2298204576
10.4140366247 10.2162649701 13.6102227539
10.3957146291 10.0760437201 14.3454264318
10.4480592538 11.2792637872 6.3889049918
10.5356677139 11.0015336760 6.9953022286
10.4224500127 11.1874696827 7.7306880697
10.3198585434 10.7922249345 13.8212044717
10.3722773192 11.7559464369 7.1989387801
3 2 1 0
3 0 3 2
3 1 4 0
3 0 4 3
3 7 6 5
3 9 8 5
3 5 8 7
3 11 10 9
3 9 10 8
3 11 12 10
3 5 6 13
3 13 6 14
3 13 1 2
3 9 13 2
3 5 13 9
3 9 2 3
3 15 9 3
3 11 9 15
3 12 11 16
3 16 11 15
3 13 14 17
3 17 14 18
3 19 4 1
3 13 19 1
3 17 19 13
3 15 3 4
3 19 15 4
3 20 15 19
3 16 15 21
3 21 15 20
3 18 22 17
3 17 22 19
3 19 22 23
3 19 23 20
3 20 23 24
3 20 24 21
3 27 26 25
3 29 28 25
3 25 28 27
3 31 30 29
3 29 30 28
3 31 32 30
3 25 26 33
3 33 26 34
3 25 35 29
3 25 33 35
3 29 36 31
3 29 35 36
3 32 31 37
3 31 38 37
3 31 36 38
3 38 39 37
3 33 34 40
3 40 34 41
3 33 42 35
3 33 40 42
3 35 43 36
3 35 42 43
3 36 44 38
3 36 43 44
3 39 38 45
3 38 46 45
3 38 44 46
3 48 47 46
3 46 47 45
3 48 49 47
3 40 41 50
3 50 41 51
3 40 52 42
3 40 50 52
3 52 6 7
3 43 52 7
3 42 52 43
3 43 7 8
3 43 8 44
3 44 8 10
3 44 10 46
3 46 10 12
3 53 46 12
3 48 46 53
3 49 48 54
3 54 48 53
3 51 55 50
3 57 56 55
3 56 50 55
3 56 52 50
3 56 14 6
3 56 6 52
3 16 58 53
3 16 53 12
3 54 53 59
3 53 60 59
3 53 58 60
3 60 61 59
3 56 57 62
3 62 57 63
3 62 18 14
3 62 14 56
3 21 64 58
3 21 58 16
3 58 65 60
3 58 64 65
3 61 60 66
3 66 60 65
3 62 63 67
3 67 63 68
3 69 22 18
3 62 69 18
3 67 69 62
3 70 23 22
3 70 22 69
3 71 24 23
3 71 23 70
3 64 21 24
3 71 64 24
3 72 64 71
3 64 73 65
3 64 72 73
3 66 65 74
3 65 75 74
3 65 73 75
3 77 76 75
3 75 76 74
3 77 78 76
3 68 79 67
3 67 79 69
3 69 79 80
3 82 81 80
3 81 69 80
3 81 70 69
3 70 83 71
3 70 81 83
3 71 84 72
3 71 83 84
3 72 85 73
3 72 84 85
3 73 86 75
3 73 85 86
3 75 87 77
3 75 86 87
3 78 77 88
3 88 77 87
3 81 82 89
3 89 82 90
3 81 91 83
3 81 89 91
3 83 92 84
3 83 91 92
3 84 93 85
3 84 92 93
3 85 94 86
3 85 93 94
3 96 87 95
3 87 94 95
3 87 86 94
3 87 96 88
3 90 97 89
3 89 97 91
3 91 97 98
3 91 98 92
3 92 98 99
3 92 99 93
3 93 99 100
3 93 100 94
3 94 100 101
3 94 101 95
3 104 103 102
3 106 105 102
3 102 105 104
3 108 107 106
3 106 107 105
3 108 109 107
3 112 111 110
3 112 110 103
3 110 102 103
3 110 113 102
3 102 114 106
3 102 113 114
3 106 115 108
3 106 114 115
3 109 108 116
3 116 108 115
3 119 118 117
3 121 120 117
3 117 120 119
3 120 121 111
3 121 110 111
3 121 122 110
3 122 26 27
3 113 122 27
3 110 122 113
3 113 27 28
3 113 28 114
3 114 28 30
3 114 30 115
3 124 123 32
3 32 123 30
3 123 116 30
3 116 115 30
3 126 125 124
3 124 125 123
3 128 127 126
3 126 127 125
3 128 129 127
3 117 118 130
3 130 118 131
3 117 132 121
3 117 130 132
3 121 133 122
3 121 132 133
3 133 34 26
3 133 26 122
3 37 124 32
3 124 37 39
3 134 124 39
3 126 124 134
3 126 135 128
3 126 134 135
3 129 128 136
3 136 128 135
3 139 138 137
3 139 137 131
3 137 130 131
3 137 140 130
3 130 141 132
3 130 140 141
3 132 142 133
3 132 141 142
3 142 41 34
3 142 34 133
3 45 134 39
3 134 45 47
3 134 47 135
3 144 143 49
3 49 143 47
3 143 136 47
3 136 135 47
3 146 145 144
3 144 145 143
3 146 147 145
3 137 138 148
3 148 138 149
3 137 150 140
3 137 148 150
3 140 151 141
3 140 150 151
3 141 152 142
3 141 151 152
3 152 51 41
3 152 41 142
3 54 153 144
3 54 144 49
3 144 154 146
3 144 153 154
3 147 146 155
3 155 146 154
3 149 156 148
3 148 156 150
3 150 156 157
3 150 157 151
3 151 157 158
3 160 159 158
3 159 151 158
3 159 152 151
3 161 55 51
3 152 161 51
3 159 161 152
3 161 57 55
3 59 153 54
3 153 59 61
3 162 153 61
3 154 153 162
3 155 154 163
3 154 164 163
3 154 162 164
3 164 165 163
3 159 160 166
3 166 160 167
3 159 168 161
3 159 166 168
3 168 63 57
3 168 57 161
3 66 169 162
3 66 162 61
3 162 170 164
3 162 169 170
3 165 164 171
3 164 172 171
3 164 170 172
3 174 173 172
3 172 173 171
3 166 167 175
3 175 167 176
3 166 177 168
3 166 175 177
3 177 68 63
3 177 63 168
3 74 169 66
3 169 74 76
3 169 76 170
3 170 76 78
3 178 170 78
3 172 170 178
3 172 179 174
3 172 178 179
3 175 176 180
3 180 176 181
3 175 182 177
3 175 180 182
3 183 79 68
3 177 183 68
3 182 183 177
3 184 80 79
3 184 79 183
3 184 82 80
3 88 185 178
3 88 178 78
3 178 186 179
3 178 185 186
3 181 187 180
3 189 188 187
3 188 180 187
3 188 182 180
3 182 190 183
3 182 188 190
3 183 191 184
3 183 190 191
3 191 90 82
3 191 82 184
3 95 192 96
3 192 193 96
3 96 193 88
3 193 194 88
3 194 185 88
3 185 194 186
3 186 194 195
3 189 196 188
3 188 196 190
3 190 196 197
3 199 198 197
3 198 190 197
3 198 191 190
3 200 97 90
3 191 200 90
3 198 200 191
3 201 98 97
3 201 97 200
3 202 99 98
3 202 98 201
3 203 100 99
3 203 99 202
3 204 101 100
3 204 100 203
3 204 205 101
3 101 205 95
3 205 206 95
3 206 192 95
3 192 206 193
3 199 207 198
3 198 207 200
3 200 207 208
3 200 208 201
3 201 208 209
3 211 210 209
3 210 201 209
3 210 202 201
3 213 203 212
3 203 210 212
3 203 202 210
3 203 213 204
3 204 213 214
3 204 214 205
3 217 216 215
3 215 218 217
3 220 219 104
3 104 219 103
3 105 215 216
3 220 105 216
3 104 105 220
3 221 218 215
3 105 221 215
3 107 221 105
3 223 222 109
3 222 107 109
3 222 221 107
3 223 224 222
3 227 226 225
3 229 228 225
3 225 228 227
3 111 112 229
3 112 228 229
3 112 230 228
3 112 103 219
3 112 219 230
3 116 231 223
3 116 223 109
3 224 223 232
3 223 233 232
3 223 231 233
3 233 234 232
3 237 236 235
3 237 235 226
3 226 235 225
3 235 118 225
3 118 119 225
3 225 119 120
3 225 120 229
3 229 120 111
3 123 231 116
3 231 123 125
3 231 125 233
3 238 234 233
3 125 238 233
3 127 238 125
3 240 239 129
3 239 127 129
3 239 238 127
3 240 241 239
3 235 236 242
3 242 236 243
3 242 131 118
3 242 118 235
3 136 244 240
3 136 240 129
3 241 240 245
3 240 246 245
3 240 244 246
3 248 247 246
3 246 247 245
3 248 249 247
3 242 243 139
3 243 138 139
3 243 250 138
3 242 139 131
3 143 244 136
3 244 143 145
3 244 145 246
3 246 145 147
3 251 246 147
3 248 246 251
3 249 248 252
3 252 248 251
3 250 149 138
3 253 149 250
3 155 254 251
3 155 251 147
3 252 251 255
3 251 256 255
3 251 254 256
3 256 257 255
3 156 149 258
3 149 259 258
3 149 253 259
3 260 157 156
3 260 156 258
3 261 158 157
3 261 157 260
3 261 160 158
3 163 254 155
3 254 163 165
3 262 254 165
3 256 254 262
3 257 256 263
3 256 264 263
3 256 262 264
3 258 259 265
3 265 259 266
3 258 267 260
3 258 265 267
3 260 268 261
3 260 267 268
3 268 167 160
3 268 160 261
3 171 262 165
3 262 171 173
3 262 173 264
3 266 269 265
3 271 270 269
3 270 265 269
3 270 267 265
3 267 272 268
3 267 270 272
3 272 176 167
3 272 167 268
3 271 273 270
3 270 273 272
3 272 273 274
3 176 272 274
3 275 176 274
3 181 176 275
3 275 276 181
3 181 276 187
3 189 187 276
3 189 276 277
3 193 278 194
3 194 278 279
3 280 194 279
3 195 194 280
3 196 189 281
3 189 282 281
3 189 277 282
3 283 197 196
3 283 196 281
3 283 199 197
3 205 284 206
3 284 285 206
3 206 285 193
3 285 286 193
3 286 278 193
3 278 286 279
3 282 287 281
3 281 287 283
3 283 287 288
3 288 290 289
3 288 289 207
3 283 288 207
3 199 283 207
3 291 208 207
3 291 207 289
3 292 209 208
3 292 208 291
3 292 211 209
3 212 293 213
3 294 214 213
3 294 213 293
3 284 205 214
3 294 284 214
3 295 284 294
3 285 284 296
3 296 284 295
3 299 298 297
3 216 217 297
3 217 299 297
3 217 300 299
3 302 301 218
3 301 217 218
3 301 300 217
3 302 303 301
3 306 305 304
3 308 307 304
3 304 307 306
3 307 308 298
3 298 308 297
3 308 219 297
3 219 220 297
3 297 220 216
3 221 302 218
3 309 303 302
3 221 309 302
3 222 309 221
3 311 310 224
3 310 222 224
3 310 309 222
3 311 312 310
3 315 314 313
3 226 227 313
3 227 315 313
3 227 316 315
3 228 304 305
3 316 228 305
3 227 228 316
3 304 228 230
3 304 230 308
3 308 230 219
3 232 311 224
3 318 317 234
3 234 317 232
3 317 312 232
3 312 311 232
3 320 319 318
3 318 319 317
3 320 321 319
3 313 314 237
3 314 236 237
3 314 322 236
3 313 237 226
3 238 318 234
3 318 238 239
3 318 239 320
3 324 323 241
3 241 323 239
3 323 321 239
3 321 320 239
3 324 325 323
3 322 243 236
3 326 243 322
3 245 324 241
3 327 325 324
3 245 327 324
3 247 327 245
3 329 328 249
3 328 247 249
3 328 327 247
3 329 330 328
3 326 250 243
3 331 250 326
3 252 332 329
3 252 329 249
3 330 329 333
3 333 329 332
3 336 335 334
3 331 336 334
3 253 331 334
3 250 331 253
3 255 332 252
3 255 257 332
3 257 333 332
3 257 337 333
3 334 335 338
3 338 335 339
3 338 259 253
3 338 253 334
3 340 337 257
3 340 257 263
3 339 341 338
3 259 338 341
3 342 259 341
3 266 259 342
3 342 343 266
3 266 343 269
3 271 269 343
3 271 343 344
3 344 345 271
3 271 345 273
3 345 347 346
3 274 345 346
3 273 345 274
3 346 275 274
3 350 349 348
3 347 351 346
3 351 353 352
3 351 352 276
3 346 351 276
3 275 346 276
3 352 277 276
3 350 348 280
3 279 350 280
3 354 350 279
3 353 355 352
3 277 352 355
3 356 277 355
3 282 277 356
3 358 357 286
3 358 286 285
3 279 286 354
3 354 286 357
3 356 359 282
3 282 359 287
3 287 360 288
3 359 360 287
3 362 361 290
3 288 362 290
3 360 362 288
3 364 363 361
3 364 361 362
3 366 365 363
3 366 363 364
3 367 365 366
3 370 369 368
3 372 371 368
3 372 368 369
3 372 358 371
3 358 296 371
3 358 285 296
3 375 374 373
3 377 376 373
3 373 376 375
3 379 378 377
3 377 378 376
3 379 380 378
3 383 382 381
3 383 381 374
3 374 381 373
3 381 298 373
3 298 299 373
3 373 299 300
3 373 300 377
3 377 300 301
3 377 301 379
3 385 384 303
3 303 384 301
3 384 380 301
3 380 379 301
3 385 386 384
3 389 388 387
3 305 306 387
3 306 389 387
3 306 390 389
3 307 381 382
3 390 307 382
3 306 307 390
3 381 307 298
3 309 385 303
3 391 386 385
3 309 391 385
3 310 391 309
3 393 392 312
3 392 310 312
3 392 391 310
3 393 394 392
3 396 395 315
3 315 395 314
3 316 387 388
3 396 316 388
3 315 316 396
3 387 316 305
3 317 393 312
3 397 394 393
3 317 397 393
3 319 397 317
3 399 398 321
3 398 319 321
3 398 397 319
3 399 400 398
3 403 402 401
3 395 403 401
3 322 395 401
3 314 395 322
3 323 399 321
3 405 404 325
3 325 404 323
3 404 400 323
3 400 399 323
3 405 406 404
3 401 402 407
3 407 402 408
3 407 326 322
3 407 322 401
3 327 405 325
3 409 406 405
3 327 409 405
3 328 409 327
3 328 330 409
3 409 330 410
3 407 408 411
3 411 408 412
3 411 331 326
3 411 326 407
3 333 410 330
3 333 413 410
3 411 412 336
3 412 335 336
3 412 414 335
3 411 336 331
3 337 413 333
3 337 415 413
3 414 339 335
3 416 339 414
3 417 415 337
3 417 337 340
3 416 418 339
3 339 418 341
3 342 341 418
3 342 418 419
3 419 420 342
3 342 420 343
3 344 343 420
3 344 420 421
3 421 422 344
3 344 422 345
3 347 345 422
3 347 422 423
3 425 424 349
3 425 349 350
3 423 426 347
3 347 426 351
3 428 427 353
3 351 428 353
3 426 428 351
3 429 427 428
3 354 425 350
3 354 430 425
3 427 355 353
3 432 431 356
3 432 356 355
3 429 432 355
3 427 429 355
3 434 433 431
3 434 431 432
3 436 435 433
3 436 433 434
3 438 437 435
3 438 435 436
3 439 437 438
3 441 440 357
3 441 357 358
3 354 357 430
3 430 357 440
3 431 359 356
3 359 431 360
3 360 431 433
3 360 433 362
3 362 433 435
3 362 435 364
3 364 435 437
3 439 442 437
3 442 364 437
3 442 366 364
3 444 443 367
3 366 444 367
3 442 444 366
3 446 445 443
3 446 443 444
3 369 370 445
3 446 369 445
3 447 369 446
3 369 448 372
3 447 448 369
3 358 372 441
3 441 372 448
3 450 449 375
3 375 449 374
3 451 375 376
3 451 450 375
3 452 376 378
3 452 451 376
3 454 453 380
3 453 378 380
3 453 452 378
3 454 455 453
3 458 457 456
3 382 383 456
3 383 458 456
3 383 459 458
3 383 374 449
3 383 449 459
3 384 454 380
3 461 460 386
3 386 460 384
3 460 455 384
3 455 454 384
3 461 462 460
3 464 463 389
3 389 463 388
3 390 456 457
3 464 390 457
3 389 390 464
3 456 390 382
3 391 461 386
3 465 462 461
3 391 465 461
3 392 465 391
3 467 466 394
3 466 392 394
3 466 465 392
3 467 468 466
3 470 469 396
3 396 469 395
3 396 388 463
3 396 463 470
3 397 467 394
3 471 468 467
3 397 471 467
3 398 471 397
3 398 400 471
3 471 400 472
3 474 473 403
3 403 473 402
3 403 395 469
3 403 469 474
3 475 472 400
3 475 400 404
3 404 406 475
3 475 406 476
3 473 408 402
3 477 408 473
3 478 476 406
3 478 406 409
3 409 410 478
3 478 410 479
3 477 412 408
3 480 412 477
3 413 479 410
3 413 481 479
3 483 414 482
3 414 480 482
3 414 412 480
3 484 483 482
3 415 481 413
3 415 485 481
3 486 416 483
3 483 416 414
3 483 484 487
3 488 483 487
3 486 483 488
3 489 488 487
3 415 417 490
3 491 415 490
3 485 415 491
3 486 418 416
3 418 486 419
3 486 492 419
3 486 488 492
3 488 489 493
3 488 493 492
3 491 490 494
3 491 494 495
3 492 420 419
3 421 420 492
3 493 421 492
3 496 421 493
3 495 494 497
3 495 497 498
3 496 499 421
3 421 499 422
3 501 500 423
3 422 501 423
3 499 501 422
3 503 502 500
3 503 500 501
3 504 502 503
3 498 497 424
3 425 498 424
3 505 498 425
3 500 426 423
3 426 500 428
3 428 500 502
3 507 506 429
3 507 429 428
3 504 507 428
3 502 504 428
3 509 508 506
3 509 506 507
3 510 508 509
3 513 512 511
3 515 514 511
3 515 511 512
3 515 505 514
3 505 430 514
3 505 425 430
3 506 432 429
3 432 506 434
3 434 506 508
3 510 516 508
3 516 434 508
3 516 436 434
3 436 517 438
3 516 517 436
3 519 518 439
3 438 519 439
3 517 519 438
3 521 520 518
3 521 518 519
3 523 522 520
3 523 520 521
3 525 524 522
3 525 522 523
3 524 525 513
3 511 524 513
3 526 524 511
3 441 526 440
3 526 514 440
3 526 511 514
3 440 514 430
3 518 442 439
3 442 518 444
3 444 518 520
3 444 520 446
3 446 520 522
3 446 522 447
3 447 522 524
3 447 524 448
3 448 524 526
3 448 526 441
3 529 528 527
3 531 530 527
3 527 530 529
3 531 532 530
3 535 534 533
3 535 533 528
3 528 533 527
3 533 449 527
3 449 450 527
3 527 450 451
3 527 451 531
3 536 532 531
3 451 536 531
3 452 536 451
3 537 452 453
3 537 536 452
3 453 455 537
3 537 455 538
3 541 540 539
3 457 458 539
3 458 541 539
3 458 542 541
3 459 533 534
3 542 459 534
3 458 459 542
3 533 459 449
3 543 538 455
3 543 455 460
3 545 544 462
3 544 460 462
3 544 543 460
3 545 546 544
3 539 540 464
3 540 463 464
3 540 547 463
3 539 464 457
3 465 545 462
3 548 546 545
3 465 548 545
3 466 548 465
3 466 468 548
3 548 468 549
3 550 469 470
3 551 550 470
3 463 551 470
3 547 551 463
3 552 549 468
3 552 468 471
3 554 553 472
3 553 471 472
3 553 552 471
3 554 555 553
3 556 473 474
3 469 550 474
3 550 556 474
3 550 557 556
3 550 551 558
3 559 550 558
3 557 550 559
3 560 559 558
3 475 554 472
3 475 476 554
3 476 555 554
3 476 561 555
3 562 477 556
3 556 477 473
3 563 556 557
3 562 556 563
3 564 557 559
3 563 557 564
3 559 560 565
3 559 565 564
3 566 561 476
3 566 476 478
3 478 479 566
3 566 479 567
3 568 480 562
3 562 480 477
3 569 562 563
3 568 562 569
3 570 563 564
3 569 563 570
3 564 565 571
3 564 571 570
3 481 567 479
3 481 572 567
3 568 482 480
3 482 568 484
3 568 573 484
3 568 569 573
3 574 569 570
3 573 569 574
3 570 571 575
3 570 575 574
3 485 572 481
3 485 576 572
3 573 487 484
3 487 573 489
3 573 577 489
3 573 574 577
3 574 575 578
3 574 578 577
3 491 576 485
3 491 579 576
3 580 493 577
3 577 493 489
3 577 578 581
3 577 581 580
3 584 583 582
3 583 579 582
3 579 495 582
3 579 491 495
3 585 496 580
3 580 496 493
3 580 581 586
3 587 580 586
3 585 580 587
3 588 587 586
3 584 582 589
3 584 589 590
3 498 589 495
3 495 589 582
3 585 499 496
3 499 585 501
3 501 585 587
3 588 591 587
3 591 501 587
3 591 503 501
3 504 503 591
3 504 591 592
3 595 594 593
3 597 596 593
3 597 593 594
3 599 598 596
3 599 596 597
3 601 600 598
3 601 598 599
3 602 600 601
3 590 589 603
3 590 603 604
3 505 603 498
3 498 603 589
3 592 605 504
3 504 605 507
3 507 606 509
3 605 606 507
3 608 607 510
3 509 608 510
3 606 608 509
3 607 608 595
3 593 607 595
3 609 607 593
3 610 593 596
3 609 593 610
3 611 596 598
3 610 596 611
3 612 598 600
3 611 598 612
3 600 602 613
3 614 600 613
3 612 600 614
3 512 513 614
3 613 512 614
3 615 512 613
3 603 515 604
3 515 615 604
3 515 512 615
3 515 603 505
3 607 516 510
3 516 607 517
3 517 607 609
3 517 609 519
3 519 609 610
3 519 610 521
3 521 610 611
3 521 611 523
3 523 611 612
3 523 612 525
3 525 612 614
3 525 614 513
3 616 528 529
3 616 529 617
3 529 618 617
3 529 530 618
3 530 532 618
3 618 532 619
3 620 534 535
3 621 620 535
3 621 535 528
3 622 621 528
3 616 622 528
3 622 616 617
3 623 619 532
3 623 532 536
3 624 536 537
3 624 623 536
3 537 538 624
3 624 538 625
3 626 540 541
3 542 627 541
3 541 627 626
3 628 627 542
3 628 542 534
3 629 628 534
3 620 629 534
3 629 620 621
3 538 543 630
3 631 538 630
3 625 538 631
3 544 632 543
3 543 632 630
3 546 632 544
3 633 547 626
3 626 547 540
3 634 626 627
3 633 626 634
3 627 628 635
3 636 627 635
3 634 627 636
3 637 636 635
3 631 630 638
3 631 638 639
3 640 630 632
3 638 630 640
3 548 641 546
3 641 632 546
3 641 640 632
3 549 641 548
3 642 551 633
3 633 551 547
3 643 633 634
3 642 633 643
3 644 634 636
3 643 634 644
3 636 637 645
3 636 645 644
3 648 647 646
3 646 647 639
3 638 646 639
3 649 646 638
3 650 638 640
3 649 638 650
3 651 640 641
3 650 640 651
3 552 652 549
3 652 641 549
3 652 651 641
3 553 653 552
3 552 653 652
3 555 653 553
3 642 558 551
3 558 642 560
3 642 654 560
3 642 643 654
3 655 643 644
3 654 643 655
3 644 645 656
3 644 656 655
3 648 646 657
3 648 657 658
3 659 646 649
3 657 646 659
3 660 649 650
3 659 649 660
3 661 650 651
3 660 650 661
3 652 663 662
3 661 652 662
3 651 652 661
3 663 652 653
3 663 653 664
3 653 555 664
3 555 665 664
3 555 561 665
3 666 565 654
3 654 565 560
3 667 654 655
3 666 654 667
3 655 656 668
3 655 668 667
3 671 670 669
3 669 670 658
3 657 669 658
3 672 669 657
3 673 657 659
3 672 657 673
3 674 659 660
3 673 659 674
3 675 660 661
3 674 660 675
3 661 662 676
3 661 676 675
3 677 665 561
3 677 561 566
3 566 567 677
3 677 567 678
3 679 571 666
3 666 571 565
3 667 681 680
3 679 667 680
3 666 667 679
3 681 667 668
3 671 669 682
3 671 682 683
3 684 669 672
3 682 669 684
3 685 672 673
3 684 672 685
3 686 673 674
3 685 673 686
3 687 674 675
3 686 674 687
3 675 676 688
3 675 688 687
3 572 678 567
3 572 689 678
3 690 575 679
3 679 575 571
3 679 680 691
3 679 691 690
3 683 682 692
3 683 692 693
3 694 682 684
3 692 682 694
3 695 684 685
3 694 684 695
3 696 685 686
3 695 685 696
3 697 686 687
3 696 686 697
3 687 688 698
3 687 698 697
3 576 689 572
3 576 699 689
3 700 578 690
3 690 578 575
3 690 691 701
3 690 701 700
3 693 692 702
3 693 702 703
3 704 692 694
3 702 692 704
3 705 694 695
3 704 694 705
3 706 695 696
3 705 695 706
3 707 696 697
3 706 696 707
3 697 698 708
3 697 708 707
3 711 710 709
3 710 699 709
3 699 579 709
3 699 576 579
3 712 581 700
3 700 581 578
3 700 701 713
3 714 700 713
3 712 700 714
3 715 714 713
3 716 703 702
3 718 717 716
3 702 718 716
3 704 718 702
3 719 704 705
3 718 704 719
3 720 705 706
3 719 705 720
3 721 706 707
3 720 706 721
3 707 708 722
3 707 722 721
3 725 724 723
3 723 724 711
3 723 711 709
3 584 723 709
3 583 584 709
3 583 709 579
3 712 586 581
3 586 712 588
3 712 726 588
3 712 714 726
3 714 715 727
3 728 714 727
3 726 714 728
3 729 728 727
3 732 731 730
3 730 731 717
3 718 730 717
3 733 730 718
3 734 718 719
3 733 718 734
3 735 719 720
3 734 719 735
3 736 720 721
3 735 720 736
3 721 722 737
3 738 721 737
3 736 721 738
3 738 737 725
3 723 738 725
3 739 738 723
3 590 739 584
3 584 739 723
3 726 591 588
3 591 726 592
3 726 740 592
3 726 728 740
3 728 729 741
3 742 728 741
3 740 728 742
3 742 741 732
3 730 742 732
3 743 742 730
3 595 743 594
3 743 733 594
3 743 730 733
3 594 733 597
3 597 733 734
3 597 734 599
3 599 734 735
3 599 735 601
3 601 735 736
3 601 736 602
3 736 744 602
3 736 738 744
3 745 738 739
3 744 738 745
3 604 745 590
3 590 745 739
3 740 605 592
3 605 740 606
3 606 740 742
3 606 742 608
3 608 742 743
3 608 743 595
3 744 613 602
3 613 744 615
3 615 744 745
3 615 745 604
3 746 617 618
3 619 746 618
3 747 621 622
3 617 746 622
3 746 747 622
3 746 748 747
3 623 749 619
3 749 746 619
3 749 748 746
3 624 750 623
3 623 750 749
3 625 750 624
3 751 628 629
3 621 747 629
3 747 751 629
3 747 752 751
3 753 747 748
3 752 747 753
3 749 755 754
3 753 749 754
3 748 749 753
3 757 756 755
3 749 757 755
3 750 757 749
3 631 757 625
3 625 757 750
3 751 635 628
3 635 751 637
3 751 758 637
3 751 752 758
3 759 752 753
3 758 752 759
3 753 754 760
3 761 753 760
3 759 753 761
3 761 760 756
3 757 761 756
3 762 761 757
3 639 762 631
3 631 762 757
3 763 645 758
3 758 645 637
3 759 765 764
3 763 759 764
3 758 759 763
3 767 766 765
3 759 767 765
3 761 767 759
3 648 767 647
3 767 762 647
3 767 761 762
3 647 762 639
3 768 656 763
3 763 656 645
3 763 764 769
3 770 763 769
3 768 763 770
3 770 769 766
3 767 770 766
3 771 770 767
3 658 771 648
3 648 771 767
3 772 662 663
3 772 663 773
3 663 774 773
3 663 664 774
3 664 665 774
3 774 665 775
3 776 668 768
3 768 668 656
3 777 768 770
3 776 768 777
3 671 777 670
3 777 771 670
3 777 770 771
3 670 771 658
3 778 676 772
3 772 676 662
3 772 773 779
3 772 779 778
3 665 677 780
3 781 665 780
3 775 665 781
3 678 780 677
3 782 680 681
3 668 776 681
3 776 782 681
3 776 783 782
3 784 776 777
3 783 776 784
3 683 784 671
3 671 784 777
3 785 688 778
3 778 688 676
3 778 779 786
3 787 778 786
3 785 778 787
3 787 786 781
3 780 787 781
3 788 787 780
3 689 788 678
3 678 788 780
3 789 691 782
3 782 691 680
3 790 782 783
3 789 782 790
3 791 783 784
3 790 783 791
3 693 791 683
3 683 791 784
3 792 698 785
3 785 698 688
3 793 785 787
3 792 785 793
3 794 787 788
3 793 787 794
3 699 794 689
3 689 794 788
3 795 701 789
3 789 701 691
3 796 789 790
3 795 789 796
3 797 790 791
3 796 790 797
3 703 797 693
3 693 797 791
3 798 708 792
3 792 708 698
3 799 792 793
3 798 792 799
3 711 799 710
3 799 794 710
3 799 793 794
3 710 794 699
3 795 713 701
3 713 795 715
3 795 800 715
3 795 796 800
3 801 796 797
3 800 796 801
3 716 802 703
3 802 797 703
3 802 801 797
3 717 802 716
3 803 722 798
3 798 722 708
3 725 803 724
3 803 799 724
3 803 798 799
3 724 799 711
3 800 727 715
3 727 800 729
3 800 804 729
3 800 801 804
3 732 804 731
3 804 802 731
3 804 801 802
3 731 802 717
3 803 737 722
3 737 803 725
3 804 741 729
3 741 804 732