OFF
708 1348 0
1.3736728417 7.3516831108 4.4767430751
1.7479442313 6.8555926106 3.7818036747
1.6518590400 6.6584821197 4.2549113804
1.6213846875 6.6937889122 4.6936717017
1.4637037715 7.9900951662 3.6979563824
2.0574584847 8.0848534542 2.8022969165
1.9869201886 7.1697404178 3.1265563804
1.1222209540 8.3654910353 4.6437334936
1.4307017220 7.1867173871 5.2202943807
1.1604150423 8.1548983457 5.5858298305
1.5129965579 7.4375490415 6.1462338485
1.2566664863 8.4057774340 6.8092152280
1.6043727744 7.7969125563 7.1110028741
1.5280048410 9.1711789809 3.3842329427
2.2306128231 9.4096877850 2.5905124242
1.1185942266 9.2508726028 4.3674231154
0.9591198538 9.3174301679 5.4731466532
1.0068596878 9.3535269555 6.6410312467
1.4440809149 8.4994164331 7.6415847045
1.2089901061 9.3967108832 7.8055931446
1.5229158399 8.9723824740 8.3388609193
1.6339843007 10.0720443007 3.2654313486
1.2442020176 10.3867392596 4.1320833003
1.5429430481 10.8083179350 3.5979832883
0.9620825708 10.4650143419 5.3267018061
0.8930717518 10.4925459301 6.5327963111
1.0075371328 10.4909505444 7.6898285492
1.4276718131 9.6833069973 8.7318880176
1.2453633029 10.4628330752 8.6910618411
1.5546112302 10.2973081281 9.3906888254
1.3672087044 11.3590270409 4.1942766302
1.1161352465 11.7206645489 5.2022356201
1.4668731412 12.3224480072 4.5552416061
0.9270786094 11.6832287426 6.4430893898
0.9544363014 11.6531635821 7.6177050503
1.1498086830 11.5538417452 8.6952007934
1.4796692976 11.3077407571 9.6269742108
1.2576898099 12.9755968485 5.4967972658
1.5532238721 13.2849483718 4.9472306945
1.0611538972 12.8420768393 6.4027780432
1.0198139095 12.8058118598 7.5162852981
1.1470668248 12.7200091176 8.6234781986
1.4183800644 12.5305488519 9.6658836031
1.4270216910 13.7918366743 5.6125566318
1.2610431168 13.8166460709 6.3491465659
1.5047279265 14.4770807202 6.1485628136
1.1899512028 13.8543637205 7.3655622868
1.2408859996 13.8027089948 8.4551766601
1.4347757859 13.7090585107 9.5323450851
1.4485031275 14.7591768527 7.1091775550
1.4442956029 14.8027307933 8.2767836666
1.5022030006 14.6135131977 9.2365696298
2.1617056157 6.0250761772 4.3789105614
2.8213768813 5.4600523214 3.6348203779
2.7745697744 5.2510398539 4.2385748768
2.8296127736 5.1795063571 4.9652714020
2.3837927158 5.8601542098 5.6501225579
2.9089610468 5.2154077840 5.8882255135
2.3446729208 6.3064017910 3.3135877477
2.7533732448 6.8290569538 2.5554405531
2.9894723723 5.8194801753 2.9331982961
1.8233182098 6.6012907545 5.4514765002
2.7399609213 5.7202305366 6.5601024736
2.1799766714 6.7609962265 6.8828472283
3.2399990019 5.8665127851 7.7956538621
2.7086411519 7.0360346338 8.4152136465
3.3534267445 6.4552781753 8.8079809308
2.9291575953 8.1053634392 2.0584726630
1.9364468767 8.0483353937 8.1621287561
3.3609755950 7.0572679810 9.4895007620
2.6659450607 8.1101877204 9.5389610136
3.3564165946 7.6778759116 10.1547605294
3.0112227124 9.2666086222 1.9573681090
1.9002174292 9.3068142162 9.3280741030
3.3262074625 8.3184464588 10.7305906744
2.6482956669 9.3792754299 10.6774494800
3.2938859048 8.9942194001 11.3478656652
2.0320191247 10.6911238639 3.0044020931
3.0026781636 10.5352035137 2.2511067632
2.0007699043 10.7085458296 10.4479304859
3.2222010299 9.6745996423 11.8033641793
2.6514919114 10.5672623555 11.5766722307
3.1604600401 10.4764531735 12.2788094141
2.4061536991 11.7498498453 3.0348562410
3.2090059636 11.9685863980 2.5372826810
1.7605722524 11.6396033949 3.6818955374
1.8159286987 12.2072945207 10.6627524477
2.3742790080 11.8763490010 11.7493567615
2.9188919899 11.2722538467 12.3913377171
2.6702032491 12.6679951797 3.0916515488
2.0438882509 13.0060344180 3.9792048559
2.7085078839 13.6240044913 3.3806386937
1.7458501722 13.5240559351 10.6211283766
2.1540178755 13.2319417615 11.6819168795
2.8454767038 12.0866594351 12.6463010491
2.6722328956 12.9710317768 12.6219241209
3.2996555976 12.5047221587 13.2644918133
2.3183683889 14.4817240143 4.2431394278
2.8762406129 14.6943469025 3.5657184504
1.7900060210 14.3273424446 5.2226839052
1.7757129345 14.8477018681 10.3848895118
2.0901800404 14.5215054970 11.5911317328
2.5390351604 14.2067639871 12.6109842033
3.2286238196 13.7512381963 13.5147527710
2.6208188442 15.5670188600 4.2727081558
2.9884619510 15.4168170128 3.6977278274
2.1645251081 15.6226088895 5.2705737379
1.8002294960 15.5617124385 6.5279248428
1.7281363227 15.8065443972 8.0056466832
1.7675466573 15.7105687123 9.4200527378
1.9619893548 15.9722463522 10.5949198888
2.1227344075 15.7296907053 11.4713052762
2.4710868732 15.4882249276 12.4986608325
3.0068751127 15.1123812789 13.4410389349
3.1957381923 16.2062216810 3.9650620354
2.6073748903 16.8371282850 5.1261159019
3.3753490762 17.5071279475 4.5663704869
2.1865366029 16.8393807225 6.3283033716
2.0417917959 16.9061079021 7.6463131144
2.0262713907 16.8903013914 9.0218048911
2.0946176334 16.8230100715 10.2933826051
2.1860602175 16.6242160120 11.2276882007
2.4931557591 16.7786981327 12.2270323953
2.9332196221 16.4055774668 13.2832764235
2.8336527351 18.1006371981 5.4861990743
3.4343728441 18.5957952228 5.1850710424
2.4656005483 17.7768914072 6.1093459370
2.3976107277 18.1255663977 7.2577165946
2.3260439283 18.0113195479 8.6693811452
2.3488897823 17.8876406976 10.0020982973
2.4454540513 17.6504469741 11.3218885334
2.7337905928 17.8492579071 12.3579405139
2.9246026540 17.4564883424 13.0263582237
2.9798684051 18.8510971225 5.7290869760
2.7180827065 18.7583005743 6.3474271665
2.9834093504 19.2085909817 6.0716898594
2.7635532777 19.2034631049 7.2980192190
2.6759248485 19.1072726452 8.3630574216
2.6561070665 18.9706549220 9.6624697503
2.7125460641 18.7809738115 10.9448353648
2.8170118916 18.5357442885 11.9590287550
3.1812730127 19.6720414348 6.6257437666
3.4940521712 4.6611777595 4.1792335876
3.9773604901 4.5668866770 3.2961052317
4.6311047357 3.9419653222 3.7905420448
4.2768647756 3.9023892010 4.9546642920
3.5955791388 4.5043498520 5.6832723463
4.8108951566 3.5308521082 6.2676082300
4.0401981084 4.3765753240 6.9105344013
4.6751498915 3.9415536091 7.3230418324
3.4625977914 5.1104368985 3.1549053914
3.7969344391 5.6485047196 2.3991363415
3.9209324215 4.9116849787 2.8392865261
3.3117056645 5.0768648226 6.7151153752
4.5564236605 4.4247018397 7.9202456916
3.7990670069 4.9667343901 7.5490459605
4.2415470071 5.1607328082 8.4216688697
3.6051645937 6.9002879678 1.8866818053
4.1777118407 5.8693366331 9.1550396590
3.6873681047 6.4720653787 9.3100384712
4.1600721346 6.5121269773 9.8653083059
3.7058965241 7.6933499453 1.6040123027
4.3769385565 7.8070040614 1.3785584310
4.2250095358 7.0533182327 1.4998975752
4.1636953249 7.1614786584 10.5289309156
3.6718132389 7.7452421560 10.6236463718
4.1193949782 7.8217484106 11.1520298917
3.6225941845 8.5822749145 1.6007332337
4.4262084976 8.8809721342 1.4046137799
4.0374935670 8.5181757709 11.7286100423
3.5667617036 9.1009467536 11.7965872955
3.9227456960 9.2447938136 12.2441852174
3.6252810430 9.6000865051 1.6754892428
4.1902150638 9.7662841701 1.5278489485
3.7489082060 9.9883174035 12.5787242562
3.5761103648 10.8665198006 12.8869186599
4.4407209341 10.2318482471 13.2009942288
3.8326894141 10.3018886345 1.7556872093
4.1426977645 11.0977563962 2.0018152207
3.3060129131 11.6726157309 13.0024474162
4.2049881267 11.5147034985 13.6144678117
3.1823518937 12.9753166322 2.8062097314
4.1092804471 12.6497539065 2.4086963101
3.9343405060 12.8402008122 13.9297358126
3.4172453641 13.8650639867 2.9338273338
4.3556045458 13.9822404866 2.6484673345
3.9154444306 13.7125565037 14.1997290921
3.7191009378 14.6609502514 14.2150952677
4.5118447472 13.9989699925 14.7166652865
3.5559740668 15.0675002260 3.2199107670
4.4964229125 15.0369184641 2.8772896232
3.5778802482 15.9603057475 14.1793650198
4.4725532114 15.2490443802 14.9826130741
4.0141507005 15.9693977616 3.3609608471
3.7966512441 16.8079509235 3.8541062035
4.7210490684 16.6831811857 3.5607575040
3.5180666605 17.4602094194 13.9511555363
4.2130193702 16.7365280510 14.8851552609
4.0994190208 17.4366497883 4.0634902571
4.2999157690 18.2590327492 4.5567555232
3.2309621062 18.6492268039 13.0261576463
3.8124210166 18.7127018260 14.0305830099
4.3481254939 18.1900434173 14.8302023384
3.3918846272 19.3170384551 5.7756371358
4.2480653688 19.2329868803 5.3150609874
3.1357599825 20.1567553817 7.9801748911
2.9986421917 20.0354705206 9.3401838773
3.0235100788 19.8808510251 10.6441432331
3.1604565574 19.5859831349 11.9991681068
3.4401695957 19.6664760104 12.8976258124
3.8489089738 19.7573196884 13.6109858810
4.3876622803 19.4309708354 14.4408675956
3.9906927094 20.0035242597 6.1172859414
3.7665871512 20.7043011640 7.1369244195
4.5561334388 20.7411985973 6.5052535172
3.5563476461 21.1375285700 8.1751260108
3.3543196504 21.0480849857 9.1135419953
3.3276767494 20.9722801835 10.3062576759
3.4557935927 20.8266960745 11.5557660331
3.7225990233 20.5750883335 12.7651063117
4.2913302075 20.7951861687 13.5813208313
4.4333937057 20.2613289598 14.1120393149
4.3651701362 21.3007710800 7.1409821494
4.0284607407 21.5996942298 7.8548964695
4.7515235882 21.8782686863 7.6556604005
3.8161212275 21.9956782569 8.9516123249
3.5924094319 21.8336595660 9.9524800321
3.7957449120 22.0380007643 11.1265524587
3.9877498053 21.6629664838 12.2854535445
4.2522536200 21.4051790283 13.0513390166
4.3645488187 22.2615009185 8.3748536293
4.3456064989 22.8327958776 9.1018800901
3.9818847030 22.8448578731 10.1655441028
4.3276781663 23.4047604786 9.5954412173
4.1729615188 22.9671972684 11.2661627572
4.4845544689 22.6299874760 12.0890693196
4.5644053487 22.0420238700 12.8090330680
4.1511413655 23.4590667078 10.1400792822
4.3549750550 23.6364528713 9.7000457247
4.2709226272 23.3790492656 11.0215881021
5.4630349678 2.9228052782 6.2524956854
5.3889403616 2.9298324008 5.7504703357
6.0416163037 2.5682475469 5.9864038083
5.9820335149 2.8673479171 6.8879945132
4.5685840610 4.6018734176 2.7312672068
5.4571781174 4.5205515775 2.2691536667
5.5441017396 3.9004501536 2.9222613349
5.7024298204 3.2669858317 3.7499354619
5.1943888741 3.2216757611 4.8838331437
5.4460620174 3.5510397275 7.6196012772
4.9372672429 3.9656998617 7.8198826552
5.3557643588 4.0340128922 8.3271470298
4.8670322965 5.2329991295 1.9923691247
5.2353515744 5.7584150745 1.5654493286
5.7899594826 5.0460057304 1.7918973943
5.3365364382 4.6419961161 8.9835133060
4.7070457738 5.2394806226 9.0730112912
5.2362708172 5.3175313780 9.6434296478
4.4565331630 6.1856569293 1.6959326156
5.1043302301 6.7323456958 1.3701890760
5.2377320508 5.9758608680 10.3034268998
4.6577395260 6.5626049711 10.4271245247
5.1882402185 6.6398634496 10.9542858420
5.3531821583 7.8532771946 1.3018064627
5.1872383156 7.3232307214 11.5832896496
4.5811331521 7.9130313668 11.6879855704
5.0314594807 8.0685594263 12.1723557033
5.2201543719 8.7910068510 1.3691134767
4.8384894179 9.5438603755 1.4828850395
5.5765596684 9.1946067439 1.5049051059
4.7294948521 8.7923730750 12.5368537957
4.4324394697 9.4785608925 12.8056849973
5.4063682616 9.2420273861 13.1938922883
4.4343962646 10.2299295223 1.6480318274
5.3371716974 10.1648493031 1.7319590286
5.4513731329 10.3733068966 13.8142467351
5.3364515274 11.5104199969 2.0632131558
5.1962843570 11.3214331473 14.1654024274
4.8120487638 12.2436678844 14.3173467038
5.7951753197 11.6774159926 14.5871626016
5.3806322903 12.8703467829 2.3337890712
4.4872703574 13.1628030681 14.4527362929
5.5112154784 12.9407864899 14.9548670903
5.4290208410 14.1372606430 2.5914239616
5.2759922181 14.1598571735 15.3064348273
5.1848545731 15.0741416754 2.8291450297
4.7522952389 15.7170627777 3.0854941336
5.6251299405 15.5963351329 3.1305275145
5.4564095056 14.9686128871 15.7088267591
4.8909049244 16.1590780150 15.5561471910
5.3917567880 15.8504865955 15.9600500673
5.7699259120 16.4614705140 3.5220637283
4.7681205674 17.3448425601 15.4844236377
5.1849955531 16.8041403466 15.9222082458
4.6948148631 17.6473496688 4.0123557669
5.5103515255 17.3865960076 3.8760166226
4.9272744971 18.2879043304 15.4606932773
5.1894634418 17.8570551516 15.8349501894
5.1392091265 18.1136030076 4.2619488111
5.5810423874 18.8360572038 4.8789836184
5.3113935489 18.6936680376 15.6675653033
5.1037595248 19.2400906827 15.1378489679
5.1515525280 20.0303752343 5.8084439017
5.3078240708 20.7942088669 6.3889581600
4.8196654826 20.8415396540 14.0542372459
5.0336690621 20.2245623295 14.5470057269
5.0523844458 21.3180519453 6.9214609797
5.8324378725 21.7706551733 7.5120369535
5.5235258975 21.0014496023 14.2198990093
4.9583831857 21.5543312379 13.5095466252
5.2516523844 22.6699808574 8.5123178952
4.7757203113 23.2915242483 9.1140965105
5.4384115822 23.4302172873 9.1572809049
4.6562641391 23.3316726829 11.7483522470
5.1816961699 23.1187716091 12.2468271543
5.3588539270 22.4657401758 12.8425195740
4.8256691457 23.6224924434 9.3636494874
5.5395227956 23.7556126344 9.3979254272
4.7214714849 23.5525234663 11.6322078611
5.3451195625 23.4544003805 12.0309719944
6.1567202334 2.7261332813 4.4221637239
6.4742125954 2.8658901760 3.6451080248
7.0863405999 2.4717868200 3.9972118044
6.9155565467 2.1930898432 5.1589010434
5.8675851186 2.6729908844 5.2469012900
7.1280471091 2.1528120278 6.4930810751
6.9522925824 2.5901656617 7.4361798801
6.6136027275 4.1762675176 2.2681881267
6.4669775170 3.3204519763 3.0393706457
6.5702789886 3.0781314905 7.9524528098
6.2429113077 3.6593091444 8.5531908159
5.8901869406 4.0894211390 8.8610809338
6.6985803695 4.1136494477 9.3904379587
5.9758089153 5.8480931165 1.4662080588
6.6133882669 5.1220335133 1.7236641609
6.2372724179 4.8858879812 9.9367654578
5.8347118428 5.3814940526 10.1990525552
6.6161567625 5.4369867030 10.7201646698
6.1220753569 6.7948043822 1.3456440630
6.1317769847 6.2213509454 11.2070993092
5.7861568953 6.7142159710 11.4733350212
6.5713013015 6.7976815438 11.9390174073
6.2581678558 7.5785062458 1.3562863230
6.0464105746 7.6824950752 12.4409728270
5.5600276226 8.3816632019 12.7543951375
6.4826170077 8.3462730326 13.0912974429
5.9615040795 8.3900984071 1.4124182745
6.5546552543 8.9742082307 1.6810740576
6.7298142121 9.3397459897 13.7203386130
6.5978046898 10.3436287963 1.9679510071
6.4255545023 10.2666820795 14.1694975448
5.8885460233 10.8762265440 14.2976832574
6.6839365196 10.9063509257 14.5432103011
6.5804676446 11.7077522355 2.2142907235
6.8468759565 11.9265907039 15.0192025693
6.6037673302 13.0255871001 2.4717060482
6.5456380204 12.8428453122 15.4071866826
6.0761240775 13.5712148698 15.5575896548
6.8731661811 13.2703941598 15.7398249295
6.3340784166 14.0505014113 2.6767272035
5.8173319682 14.7210495491 2.7916303888
6.6135277968 14.6652106027 2.9916732416
5.8175509341 14.1933949533 15.6850168164
6.5008094679 14.0682935811 15.9540518101
6.7682652222 15.6463479542 3.4569362121
5.9148469240 15.0902355256 16.0718459056
5.4848351945 16.2696005736 16.1039060124
6.4099671430 16.7672930136 3.7889065783
5.3719877671 17.3745671989 16.0446751257
6.2732662359 17.5032622665 4.0647754489
5.8293502140 18.0320585560 4.2644904621
6.7826073225 17.9200295138 4.5051799457
5.5665291031 18.5591884322 15.8952960121
7.0110153053 18.8280554492 5.1399812399
5.7682663303 19.3473215539 15.6023870807
6.1345665146 19.3642104506 15.8261602817
6.4688287158 19.6926119003 5.6657479145
5.7784576000 21.1382604655 6.7650100817
6.1449675345 20.5297170501 6.3003769275
6.6739089165 21.0859768478 7.0027312169
6.4000185632 19.7140285346 15.6083158449
6.0568015716 20.1969221167 14.9555735066
6.7744172214 19.6306937535 15.7640607054
7.0366478965 21.6524487731 7.7805103478
6.2118362342 20.9973477834 14.3186434653
6.0762238468 21.6960179414 13.6288789875
6.5203949968 22.3102433817 8.3660306004
6.0965047138 23.6648403730 9.6228719661
6.3743660206 23.0174757851 9.2173160579
6.6739459333 23.3708366091 9.9763417908
6.1815372258 22.4112234960 12.9797310461
6.1275099033 23.0307512093 12.3473438915
5.9484664992 23.8674142563 9.6382199435
6.5272609942 23.6782884394 10.2105464378
6.2853993948 23.8399221457 10.0149011358
6.6039218649 23.6781246742 10.6605770846
6.0489415186 23.4493716365 12.0154244405
7.6558709489 1.7156146601 5.7686471731
7.8796399507 1.7307322070 5.1054583136
8.3773769353 1.4966070140 5.5186467157
8.1675929629 1.5385900054 6.0654394748
7.7555701650 1.7080265914 6.2714207828
8.2829250659 1.7838684250 6.6624501879
7.1063178465 2.8318205961 3.2952366349
7.4643865959 3.2590898590 2.7578024577
8.0801006732 2.5573589508 3.4368480891
7.9223343790 2.0286438962 4.3885173689
7.9205243210 2.3297241251 7.5793152707
7.4001975218 2.7514569368 8.0927129924
8.0096805529 2.7091373219 8.3774824438
7.8648143345 3.8606976744 2.3154536667
7.6211862164 3.2592206224 8.8853684948
7.8435657075 3.8857278486 9.7431006168
6.9154825503 5.9299125630 1.5563268824
7.6983330050 4.8880652486 1.9386889426
7.6617866637 4.5749113769 10.3569976719
7.7834658501 5.2893754299 11.1028409065
6.9851519607 6.9868272547 1.5037678012
7.9130785439 6.1682717978 1.7752139305
7.2794540844 5.9529981713 11.5236915363
8.0708119122 6.5304718749 12.1886796854
6.7315076502 7.9124458326 1.5119170218
7.7470220477 7.6356756344 1.7800285256
7.2706932553 7.4569152113 12.7088132430
7.7059418984 8.2799917828 13.3195304066
7.8473956785 9.0825230407 2.0058923188
8.1281401748 9.1428231283 13.8271115644
7.9386956456 10.5018310279 2.2699377790
7.4031671236 10.0461799979 14.2468041655
7.7894938224 10.9031071186 14.6854021319
7.6516736268 11.8887464523 2.4524579751
8.1815511766 11.8459424150 15.1243815744
7.6188387777 12.7833903349 2.6354256250
7.4637807037 12.6283492916 15.5249103083
7.7173619018 13.3444710168 15.9259938858
7.2160918043 13.6595206258 2.7926124077
7.9466457183 14.2702896415 3.3078278932
7.3449672705 13.8325055830 16.1304980721
6.6291829472 14.3260304600 16.1571498765
7.7806251816 15.3781002039 3.7090042967
7.3295878980 16.2591056807 3.9039396887
8.1818137384 15.7819067991 4.0400699812
6.9358769817 17.0880561054 4.1032122559
7.9445629190 16.7861409468 4.3889982417
8.0311794018 17.9408632244 4.9867214567
7.8811929472 18.7974435257 5.4082005899
7.4641124478 19.3889259767 5.6934507518
8.4762573349 19.1478890824 5.9813201906
7.2460474651 19.7577570058 15.3971140524
8.1955431375 19.1620763258 15.4320865005
8.1049934431 19.7569309237 14.8732074352
7.3273815977 19.5093541724 15.7541822582
7.9943084586 19.0669040264 15.7298658193
7.5719108004 20.1870603941 6.5013120460
7.7456066681 21.0202196923 7.4289399192
7.1388239451 20.7869415690 14.2850840894
8.2815177865 20.3432524294 14.1811431134
7.9468881450 21.0970098563 13.5423347441
8.0985124859 21.4684820055 8.2363956930
7.3979965855 22.0063594472 8.4236643553
7.9906773602 21.9459960991 8.8993317323
7.0901703013 22.0426157006 12.9543680057
8.3153551413 21.5322473626 12.5744634932
7.6953154422 22.2937145965 12.0923095542
7.3168876528 22.4159675120 9.0784312154
6.9488391605 23.3014592047 10.8138923970
7.3677520579 22.7794129973 10.0996260767
7.0484834161 22.8807137675 11.8659845787
7.6309388539 22.6430725119 11.2330592403
6.5894147534 23.3996906139 11.5680969969
8.6299774861 1.6460893976 4.8605302819
9.0358993152 1.4660528777 5.3721652042
8.9155451231 1.4942292738 6.0221996875
9.1977310232 1.7502355026 6.6075292141
8.5718111286 3.2080149812 2.7296473486
9.2987947622 2.5971480949 3.3734066165
8.9445889043 2.0284059442 4.1462413626
9.0042165932 2.1380119502 7.3460564018
8.7375733607 2.6154961024 8.3231500079
8.2832633264 2.8469959165 8.7061394385
8.6053315022 3.0265362475 8.9575337246
8.8026279585 4.0791132149 2.3033397146
8.7578424092 3.6362826067 9.6365997964
8.2832728812 4.0426006782 10.0918647309
8.6593979248 4.2535259915 10.3305721339
8.9033808458 5.2074956907 2.0873934971
8.8745764409 5.0030248141 10.9874145086
8.2847441377 5.6986405993 11.5899074539
9.1687646098 5.9668770486 11.8066381872
8.9490282739 6.5052586536 2.0374713140
9.0718287155 6.7717463617 12.4156023058
8.9737421696 7.8534250308 2.1229396623
8.4756938186 7.4201443895 12.8570434159
8.8734934515 8.2850273603 13.3410686091
9.1152032140 9.1742558176 2.3325610795
9.2254959439 9.1848266772 13.7593318065
9.0087770314 10.2081993514 2.4985102327
8.6592282203 11.1272616299 2.5932433830
9.4173972999 10.5747900156 2.7210052907
8.5575165986 10.0116638303 14.2594065211
8.9417589875 10.9770810128 14.6347974880
8.4348154486 12.2010571195 2.7666105656
9.3507678349 11.4801591239 2.9336617750
9.3601907146 12.1585154802 14.9749603731
8.0859228094 13.1475666552 2.9143673342
9.0683135080 12.8348044930 3.2188915064
8.5081600660 12.7451362521 15.5656564801
8.6890556159 13.3775998837 15.8765730135
9.2230615229 13.9066472828 3.6562807723
8.3143060573 13.6190629226 16.0531483522
8.6547161688 14.9044100160 3.8457157256
9.1442913050 15.5511636273 4.3353801362
9.1846768349 16.8071704426 4.9411545187
8.9559171461 17.7615434494 5.3004445859
8.5323380096 18.4076634765 5.4592466746
9.3733022345 18.2159485802 5.8032910978
8.6688402793 18.5054094302 15.6449366281
9.1251583543 18.0391809132 15.4945458417
8.9880269552 18.7513237259 15.0288982712
8.5936307950 18.4117715204 15.8148165708
9.1444251528 17.7170604198 15.6756712416
9.5542192646 18.9790107687 6.4471651857
8.7464975801 19.6807358201 14.4935804484
8.9787399156 19.7732309051 6.8218322822
8.4187475974 21.0073702381 7.8215399327
8.6135150712 20.5297703174 7.4098214318
9.0905469282 20.8942894948 8.2920926075
8.8422929124 20.0350311517 14.0907021075
8.8228669110 20.5559653141 13.4764695144
8.1512880348 22.1258995316 9.7031774612
8.8442830665 21.4852494987 9.2327546200
8.2654679472 22.1633750768 10.7431691032
8.8596084336 21.6902788290 10.2664793402
8.2332529614 22.0564358008 11.6487955952
9.0745506472 21.4024536655 11.4436882812
9.1556880716 20.9216674421 12.5686418048
9.4394051282 1.6876744143 4.9300542953
9.5651513309 1.5355665938 5.6519346230
9.5870523037 1.6317723566 6.1961006524
9.8890125074 1.7037055799 5.9922327343
9.5938464638 3.3540526718 2.7570534395
10.1616937858 2.8064490700 3.3610987502
9.9390813252 2.1835396843 4.3588856834
9.9806518330 2.1855385325 6.6713785256
9.6636712040 2.6599111472 7.9916052954
9.3415092140 3.0812570909 8.8876006015
10.0238471873 3.2685839400 8.6711154850
9.7705409874 4.3422942644 2.4272789677
9.7729344495 3.7246448107 9.4422330353
9.4153419568 4.2679147584 10.2260675050
10.0911236994 4.4034389400 9.9617640581
9.8557998452 5.5236238854 2.3037992138
9.8646340858 4.9432376645 10.6801548006
9.6735788477 5.4459483893 11.2889387684
10.1580083464 5.5787809177 11.0862352389
9.8909363291 6.7947209605 2.3067192746
9.9258364036 5.9842758761 11.5933651021
9.8000356299 6.6777828535 12.1147482202
9.9248607929 8.0209540732 2.3980248189
9.4640917153 7.4978684707 12.7693129190
9.8031314047 8.4529058041 13.1443354546
9.9993492971 8.9078391689 2.5328821282
9.9688230543 9.3506581348 13.5326683409
9.7255236427 9.7474097654 2.6230532914
10.0827156722 10.4172805856 2.9351947270
9.5573462070 10.0999829339 14.0844995877
9.8803135932 11.1027540818 14.3101259776
10.1108834582 11.8511663681 3.3515635255
10.1598474891 12.0558016763 14.3966192841
9.9546679571 13.0712218908 3.6557036823
9.3455245054 13.2984684309 15.4996088032
10.0939475017 13.2745975826 14.7642343925
9.9068434986 13.8638942829 3.9149256393
9.4713728050 14.5272119140 4.0082943370
10.1090993764 14.4450824668 4.2628990478
9.8209870610 14.3541816739 15.4178033726
10.3008880794 14.7512470025 14.7438269069
9.2367041871 13.9536450163 15.8227650624
10.1286043449 15.6434622467 4.8220506457
9.9407321342 15.6861540467 15.3298492367
10.2991218090 16.1334494566 14.6470668472
9.7010802973 15.1201767730 15.6733339246
10.2056769948 16.6271489314 5.3692077569
9.6198102989 17.3712850640 5.4437544121
10.1635626125 17.5326514079 5.8575591484
9.6753773495 17.2648251744 15.1911962128
10.2285452171 17.2081457981 14.4716752763
9.6381409220 16.4478138094 15.5988412608
10.1558036483 18.2697878093 6.3062800201
9.8615131105 18.1991954127 14.4480555142
10.4099911823 17.7781418997 13.9345523091
10.2224133857 18.7198505427 13.6517691043
10.3153080493 18.8742389204 6.9020209357
9.8146488307 19.4772047841 7.0566238252
10.2643405955 19.5364827818 7.5564141238
9.4283323139 19.4805004861 13.9919742179
10.0488578487 19.5349102823 13.2659759372
9.6627683510 20.1152719420 7.7249947179
9.9189273843 20.4933546820 8.6090024754
9.7713482008 20.6352697332 12.1144651693
10.3006368745 20.2467827344 11.7148138940
9.9281480144 20.7692106495 11.2480598442
9.6185026264 20.2208087602 13.0328361261
10.2229165329 19.9155656670 12.5221103602
9.6452230089 20.9177505326 9.1469693270
9.6644502933 21.0441856265 10.2125945059
9.9987960659 1.8602141604 5.4998811901
10.3499780630 3.6389810079 2.8131900141
10.5652387465 3.1572819488 3.2168398754
10.4308518566 2.5439494450 4.0762766177
10.4763870786 2.4449502249 5.6353837984
10.7537668904 3.1127736170 6.9603602038
11.0054497583 3.2882955779 6.6258764006
10.3953027338 3.1571538355 7.8830832276
10.4681815392 4.7027092480 2.5732742584
10.6970962181 4.0788890341 2.8003803093
11.1517538294 3.9228936485 7.2855204246
11.2346452088 3.8636132599 7.0159542971
10.9042122104 4.0308705653 8.0367129353
10.4643296728 4.0932542050 9.0593837057
10.5186584762 5.9173746251 2.5065780006
10.7728389094 5.2121528620 2.6421978248
11.3031576466 4.4429173069 7.4979003913
11.3394782344 5.0408255082 7.9758680630
11.2286861045 4.9390030287 8.1811931550
10.9382968862 5.1593881901 9.1746730070
10.4888756112 5.2645683624 10.2617229899
10.5188252905 7.1826665996 2.5352329234
10.7863161728 6.4656894945 2.6195745425
11.3271750561 5.6847339665 8.5697297200
11.3251645493 6.4194382986 9.1417999617
11.2179120959 6.2608085677 9.3278815699
10.9000985703 6.4478861157 10.3619228596
10.4125814515 6.4499441086 11.3723012305
10.4616656817 8.3893055286 2.6296482357
10.7258805185 7.7923696218 2.6854070949
11.2887771322 7.2777555702 9.7437804481
11.2819009075 8.6097890390 10.2413570516
11.1455729050 7.8599828945 10.4998303184
10.7710429603 7.7393709604 11.5317138067
10.2215953661 7.6095925894 12.3382448912
10.2771370908 9.3281420403 2.7237674639
10.5390549963 9.3151610171 2.8597623096
11.2184995442 9.6347120422 10.7811415685
11.3191048622 9.8407892447 10.2173415657
10.9725040796 9.1589893093 11.7059863245
10.4919445231 8.9576788051 12.7228009735
10.4642041049 10.8312375524 3.2130687677
11.3085604171 10.8231595454 10.3064677281
11.3537861276 10.5879682107 9.9878531772
11.3642910232 11.3485665471 9.8934438862
11.2051312891 10.9026259074 11.0802736484
11.0663556143 10.5423322169 11.8430427478
10.7746610509 10.2801669198 12.7887942419
10.2879445775 10.1694841357 13.5987230156
10.5972298245 11.9302316077 3.5880206678
10.5177076801 12.6834613491 3.7842282709
10.7179945979 12.6340321904 3.8665706971
11.3387711130 11.9842953603 10.1478799588
11.3873694205 12.2356444115 9.8056828196
11.2419366756 11.8807585603 10.9159383519
11.1050500255 11.7787113570 11.8808547153
10.8855545464 11.5453571309 12.8598603327
10.5087794235 11.2791700689 13.7036539332
10.3319916793 13.4729944798 3.9636034391
10.5723293821 13.5335080549 4.1180303091
11.3783773072 12.8369186093 10.0661605949
11.4074541989 12.8238917533 9.8244583846
11.2935802129 12.9141483831 10.7833412669
11.1531314313 12.9542299723 11.8117233546
10.9394064526 12.8046927016 12.8853319657
10.6021733157 12.4795577335 13.8197841260
10.4753573808 14.7550336005 4.5750684381
11.4032743711 13.3168771211 10.1175958868
11.3899453201 13.7796602414 10.5276753750
11.3581892048 13.5856338680 10.6245359421
11.2335269406 14.0853741215 11.7091184495
10.9973893034 14.0863554069 12.8630173370
10.6576712930 13.7912686632 13.8886328541
10.5604677127 15.6037529088 5.0092400513
10.4992595910 15.9782365688 5.1662941657
10.5931268324 16.2672994512 5.3828376511
11.3358670910 14.1939649400 11.1697453256
11.2439715376 15.0324158459 12.0952940754
11.1651785036 16.1910201127 12.7106950022
11.0614323423 15.4634656910 12.8811864287
10.7155700537 15.1753326196 13.8581312320
10.5851083514 17.8263232027 6.3123198847
10.5781084521 17.1239409376 5.8836611900
10.7431681175 17.7005145737 6.3573617362
11.0229729452 16.7739794937 13.0618460560
11.0701027616 17.4047264697 12.7909275824
10.6985719793 16.6700135499 13.7553785912
10.5323091858 18.2980838778 6.5767864247
10.6766268738 18.3498493535 6.7835485916
10.7767535054 18.0715946108 13.0674260333
10.9925403961 18.5566382805 12.2758390168
10.4471005557 19.9282500269 8.5248926235
10.6220220211 19.2550860707 7.7349760818
10.7740908897 19.9401525898 9.7587303482
10.8373543786 19.6695396116 9.0248539452
10.9103657475 19.7122374773 10.7631897918
11.0058928625 19.6385870403 10.1899972679
10.7343751641 19.4239041113 11.9179913529
11.0181001335 19.3224971224 11.2845105472
10.4718791290 19.1611903727 12.9172337316
10.2611897356 20.4587521668 9.4736382482
10.4657638221 20.2571852057 10.7183784307
3 2 1 0
3 0 3 2
3 6 5 4
3 6 4 1
3 4 0 1
3 4 7 0
3 3 0 8
3 0 9 8
3 0 7 9
3 11 10 9
3 9 10 8
3 11 12 10
3 4 5 13
3 13 5 14
3 4 15 7
3 4 13 15
3 7 16 9
3 7 15 16
3 9 17 11
3 9 16 17
3 12 11 18
3 11 19 18
3 11 17 19
3 19 20 18
3 14 21 13
3 23 22 21
3 22 13 21
3 22 15 13
3 15 24 16
3 15 22 24
3 16 25 17
3 16 24 25
3 17 26 19
3 17 25 26
3 20 19 27
3 19 28 27
3 19 26 28
3 28 29 27
3 23 30 22
3 32 31 30
3 31 22 30
3 31 24 22
3 24 33 25
3 24 31 33
3 25 34 26
3 25 33 34
3 26 35 28
3 26 34 35
3 29 28 36
3 36 28 35
3 31 32 37
3 37 32 38
3 31 39 33
3 31 37 39
3 33 40 34
3 33 39 40
3 34 41 35
3 34 40 41
3 36 35 42
3 42 35 41
3 38 43 37
3 45 44 43
3 44 37 43
3 44 39 37
3 39 46 40
3 39 44 46
3 40 47 41
3 40 46 47
3 42 41 48
3 48 41 47
3 45 49 44
3 44 49 46
3 46 49 50
3 46 50 47
3 47 50 51
3 47 51 48
3 54 53 52
3 56 55 52
3 52 55 54
3 56 57 55
3 60 59 58
3 60 58 53
3 53 58 52
3 58 1 52
3 1 2 52
3 52 2 3
3 61 52 3
3 56 52 61
3 57 56 62
3 56 63 62
3 56 61 63
3 65 64 63
3 63 64 62
3 65 66 64
3 58 59 6
3 59 5 6
3 59 67 5
3 58 6 1
3 8 61 3
3 61 8 10
3 61 10 63
3 63 10 12
3 68 63 12
3 65 63 68
3 66 65 69
3 65 70 69
3 65 68 70
3 70 71 69
3 67 14 5
3 72 14 67
3 18 68 12
3 68 18 20
3 73 68 20
3 70 68 73
3 71 70 74
3 70 75 74
3 70 73 75
3 75 76 74
3 21 14 77
3 14 78 77
3 14 72 78
3 77 23 21
3 27 73 20
3 73 27 29
3 79 73 29
3 75 73 79
3 76 75 80
3 75 81 80
3 75 79 81
3 81 82 80
3 77 78 83
3 83 78 84
3 85 30 23
3 77 85 23
3 83 85 77
3 85 32 30
3 36 86 79
3 36 79 29
3 79 87 81
3 79 86 87
3 82 81 88
3 88 81 87
3 84 89 83
3 91 90 89
3 90 83 89
3 90 85 83
3 90 38 32
3 90 32 85
3 42 92 86
3 42 86 36
3 86 93 87
3 86 92 93
3 88 87 94
3 87 95 94
3 87 93 95
3 95 96 94
3 90 91 97
3 97 91 98
3 99 43 38
3 90 99 38
3 97 99 90
3 99 45 43
3 48 100 92
3 48 92 42
3 92 101 93
3 92 100 101
3 93 102 95
3 93 101 102
3 96 95 103
3 103 95 102
3 97 98 104
3 104 98 105
3 97 106 99
3 97 104 106
3 107 49 45
3 99 107 45
3 106 107 99
3 108 50 49
3 108 49 107
3 109 51 50
3 109 50 108
3 100 48 51
3 109 100 51
3 110 100 109
3 100 111 101
3 100 110 111
3 101 112 102
3 101 111 112
3 103 102 113
3 113 102 112
3 105 114 104
3 116 115 114
3 115 104 114
3 115 106 104
3 106 117 107
3 106 115 117
3 107 118 108
3 107 117 118
3 108 119 109
3 108 118 119
3 109 120 110
3 109 119 120
3 110 121 111
3 110 120 121
3 111 122 112
3 111 121 122
3 113 112 123
3 123 112 122
3 115 116 124
3 124 116 125
3 115 126 117
3 115 124 126
3 117 127 118
3 117 126 127
3 118 128 119
3 118 127 128
3 119 129 120
3 119 128 129
3 120 130 121
3 120 129 130
3 132 122 131
3 122 130 131
3 122 121 130
3 122 132 123
3 125 133 124
3 135 134 133
3 134 124 133
3 134 126 124
3 137 127 136
3 127 134 136
3 127 126 134
3 127 137 128
3 128 137 138
3 128 138 129
3 129 138 139
3 129 139 130
3 130 139 140
3 130 140 131
3 135 141 134
3 134 141 136
3 144 143 142
3 146 145 142
3 142 145 144
3 148 147 146
3 146 147 145
3 148 149 147
3 152 151 150
3 152 150 143
3 143 150 142
3 150 53 142
3 53 54 142
3 142 54 55
3 142 55 146
3 146 55 57
3 153 146 57
3 148 146 153
3 149 148 154
3 148 155 154
3 148 153 155
3 155 156 154
3 150 151 60
3 151 59 60
3 151 157 59
3 150 60 53
3 62 153 57
3 153 62 64
3 153 64 155
3 159 158 66
3 66 158 64
3 158 156 64
3 156 155 64
3 159 160 158
3 163 162 161
3 157 163 161
3 67 157 161
3 59 157 67
3 69 159 66
3 165 164 71
3 71 164 69
3 164 160 69
3 160 159 69
3 165 166 164
3 161 162 167
3 167 162 168
3 167 72 67
3 167 67 161
3 74 165 71
3 170 169 76
3 76 169 74
3 169 166 74
3 166 165 74
3 170 171 169
3 167 168 172
3 172 168 173
3 172 78 72
3 172 72 167
3 80 170 76
3 175 174 82
3 82 174 80
3 174 171 80
3 171 170 80
3 175 176 174
3 173 177 172
3 78 172 177
3 178 78 177
3 84 78 178
3 88 179 175
3 88 175 82
3 176 175 180
3 180 175 179
3 89 84 181
3 84 182 181
3 84 178 182
3 181 91 89
3 94 179 88
3 94 96 179
3 96 180 179
3 96 183 180
3 181 182 184
3 184 182 185
3 184 98 91
3 184 91 181
3 103 187 186
3 183 103 186
3 96 103 183
3 187 188 186
3 184 185 189
3 189 185 190
3 189 105 98
3 189 98 184
3 113 191 187
3 113 187 103
3 188 187 192
3 192 187 191
3 190 193 189
3 193 195 194
3 193 194 114
3 189 193 114
3 105 189 114
3 194 116 114
3 123 196 191
3 123 191 113
3 192 191 197
3 197 191 196
3 195 198 194
3 116 194 198
3 199 116 198
3 125 116 199
3 131 200 132
3 196 123 132
3 200 196 132
3 201 196 200
3 197 196 202
3 202 196 201
3 133 125 203
3 125 204 203
3 125 199 204
3 203 135 133
3 136 205 137
3 206 138 137
3 206 137 205
3 207 139 138
3 207 138 206
3 208 140 139
3 208 139 207
3 200 131 140
3 208 200 140
3 209 200 208
3 200 210 201
3 200 209 210
3 202 201 211
3 211 201 210
3 204 212 203
3 212 214 213
3 212 213 141
3 203 212 141
3 135 203 141
3 205 136 141
3 213 205 141
3 215 205 213
3 205 216 206
3 205 215 216
3 206 217 207
3 206 216 217
3 207 218 208
3 207 217 218
3 208 219 209
3 208 218 219
3 221 210 220
3 210 219 220
3 210 209 219
3 210 221 211
3 214 222 213
3 224 223 222
3 223 213 222
3 223 215 213
3 215 225 216
3 215 223 225
3 216 226 217
3 216 225 226
3 217 227 218
3 217 226 227
3 218 228 219
3 218 227 228
3 220 219 229
3 229 219 228
3 224 230 223
3 223 230 225
3 225 230 231
3 233 232 231
3 232 225 231
3 232 226 225
3 235 227 234
3 227 232 234
3 227 226 232
3 227 235 228
3 228 235 236
3 228 236 229
3 232 233 237
3 237 233 238
3 234 232 239
3 239 232 237
3 242 241 240
3 240 243 242
3 246 245 244
3 143 144 244
3 144 246 244
3 144 247 246
3 248 144 145
3 248 247 144
3 147 240 241
3 248 147 241
3 145 147 248
3 250 249 149
3 149 249 147
3 249 243 147
3 243 240 147
3 250 251 249
3 254 253 252
3 254 252 245
3 245 252 244
3 252 151 244
3 151 152 244
3 244 152 143
3 154 250 149
3 256 255 156
3 156 255 154
3 255 251 154
3 251 250 154
3 256 257 255
3 252 253 258
3 258 253 259
3 258 157 151
3 258 151 252
3 158 256 156
3 261 260 160
3 160 260 158
3 260 257 158
3 257 256 158
3 261 262 260
3 258 259 163
3 259 162 163
3 259 263 162
3 258 163 157
3 164 261 160
3 265 264 166
3 166 264 164
3 264 262 164
3 262 261 164
3 265 266 264
3 268 168 267
3 168 263 267
3 168 162 263
3 269 268 267
3 169 265 166
3 271 270 171
3 171 270 169
3 270 266 169
3 266 265 169
3 271 272 270
3 273 173 268
3 268 173 168
3 268 269 274
3 268 274 273
3 174 271 171
3 174 176 271
3 176 272 271
3 176 275 272
3 273 177 173
3 178 177 273
3 274 178 273
3 276 178 274
3 180 278 277
3 275 180 277
3 176 180 275
3 278 279 277
3 276 182 178
3 280 182 276
3 183 281 278
3 183 278 180
3 279 278 282
3 282 278 281
3 280 185 182
3 283 185 280
3 186 281 183
3 186 188 281
3 188 282 281
3 188 284 282
3 286 190 285
3 190 283 285
3 190 185 283
3 287 286 285
3 192 289 288
3 284 192 288
3 188 192 284
3 289 290 288
3 286 193 190
3 195 193 286
3 287 195 286
3 291 195 287
3 197 292 289
3 197 289 192
3 290 289 293
3 293 289 292
3 198 195 294
3 195 295 294
3 195 291 295
3 294 199 198
3 202 296 292
3 202 292 197
3 293 292 297
3 297 292 296
3 295 298 294
3 199 294 298
3 299 199 298
3 204 199 299
3 301 300 296
3 202 301 296
3 211 301 202
3 296 300 297
3 299 302 204
3 204 302 212
3 214 212 302
3 214 302 303
3 220 304 221
3 304 305 221
3 305 211 221
3 305 301 211
3 303 306 214
3 214 306 222
3 224 222 306
3 224 306 307
3 309 308 304
3 220 309 304
3 229 309 220
3 304 308 305
3 307 310 224
3 224 310 230
3 310 312 311
3 231 310 311
3 230 310 231
3 311 233 231
3 234 313 235
3 235 313 314
3 315 235 314
3 236 235 315
3 229 236 309
3 309 236 315
3 311 312 316
3 316 312 317
3 316 238 233
3 316 233 311
3 239 318 313
3 239 313 234
3 314 313 319
3 319 313 318
3 322 321 320
3 324 323 320
3 320 323 322
3 241 242 324
3 242 323 324
3 242 325 323
3 242 243 325
3 325 243 326
3 328 327 246
3 246 327 245
3 247 320 321
3 328 247 321
3 246 247 328
3 320 247 248
3 320 248 324
3 324 248 241
3 329 326 243
3 329 243 249
3 331 330 251
3 330 249 251
3 330 329 249
3 331 332 330
3 334 333 254
3 254 333 253
3 254 245 327
3 254 327 334
3 255 331 251
3 336 335 257
3 257 335 255
3 335 332 255
3 332 331 255
3 336 337 335
3 333 259 253
3 338 259 333
3 260 336 257
3 340 339 262
3 262 339 260
3 339 337 260
3 337 336 260
3 340 341 339
3 338 263 259
3 342 263 338
3 264 340 262
3 344 343 266
3 266 343 264
3 343 341 264
3 341 340 264
3 344 345 343
3 342 346 263
3 263 346 267
3 269 267 346
3 269 346 347
3 270 344 266
3 270 272 344
3 272 345 344
3 272 348 345
3 347 274 269
3 349 274 347
3 275 351 350
3 348 275 350
3 272 275 348
3 351 352 350
3 349 276 274
3 353 276 349
3 277 351 275
3 277 279 351
3 279 352 351
3 279 354 352
3 353 280 276
3 355 280 353
3 282 357 356
3 354 282 356
3 279 282 354
3 357 358 356
3 360 283 359
3 283 355 359
3 283 280 355
3 361 360 359
3 284 362 357
3 284 357 282
3 358 357 363
3 363 357 362
3 360 285 283
3 287 285 360
3 361 287 360
3 364 287 361
3 288 362 284
3 366 365 290
3 290 365 288
3 365 363 288
3 363 362 288
3 364 291 287
3 367 291 364
3 293 368 366
3 293 366 290
3 370 295 369
3 295 367 369
3 295 291 367
3 371 370 369
3 297 372 368
3 297 368 293
3 370 298 295
3 299 298 370
3 371 299 370
3 373 299 371
3 301 374 300
3 372 297 300
3 374 372 300
3 375 372 374
3 373 376 299
3 299 376 302
3 378 377 303
3 302 378 303
3 376 378 302
3 379 377 378
3 381 380 374
3 301 381 374
3 305 381 301
3 374 380 375
3 375 380 382
3 377 306 303
3 307 306 377
3 379 307 377
3 383 307 379
3 385 384 308
3 385 308 309
3 305 308 381
3 381 308 384
3 383 386 307
3 307 386 310
3 388 387 312
3 310 388 312
3 386 388 310
3 389 387 388
3 391 390 315
3 391 315 314
3 309 315 385
3 385 315 390
3 392 317 387
3 387 317 312
3 387 389 393
3 394 387 393
3 392 387 394
3 395 394 393
3 319 391 314
3 319 396 391
3 399 398 397
3 401 400 397
3 397 400 399
3 401 402 400
3 405 404 403
3 321 322 403
3 322 405 403
3 322 406 405
3 323 397 398
3 406 323 398
3 322 323 406
3 397 323 325
3 397 325 401
3 408 407 326
3 326 407 325
3 407 402 325
3 402 401 325
3 408 409 407
3 403 404 328
3 404 327 328
3 404 410 327
3 403 328 321
3 329 408 326
3 411 409 408
3 329 411 408
3 330 411 329
3 330 332 411
3 411 332 412
3 413 333 334
3 414 413 334
3 327 414 334
3 410 414 327
3 415 412 332
3 415 332 335
3 335 337 415
3 415 337 416
3 417 338 413
3 413 338 333
3 413 414 418
3 413 418 417
3 419 416 337
3 419 337 339
3 339 341 419
3 419 341 420
3 421 342 417
3 417 342 338
3 417 418 422
3 417 422 421
3 423 420 341
3 423 341 343
3 343 345 423
3 423 345 424
3 421 346 342
3 347 346 421
3 422 347 421
3 425 347 422
3 348 424 345
3 348 426 424
3 425 349 347
3 427 349 425
3 428 426 348
3 428 348 350
3 350 352 428
3 428 352 429
3 427 353 349
3 430 353 427
3 354 429 352
3 354 431 429
3 430 355 353
3 432 355 430
3 433 431 354
3 433 354 356
3 356 358 433
3 433 358 434
3 432 435 355
3 355 435 359
3 361 359 435
3 361 435 436
3 363 438 437
3 434 363 437
3 358 363 434
3 440 364 439
3 364 436 439
3 364 361 436
3 441 440 439
3 365 438 363
3 442 367 440
3 440 367 364
3 440 441 443
3 440 443 442
3 442 369 367
3 371 369 442
3 443 371 442
3 444 371 443
3 446 373 445
3 373 444 445
3 373 371 444
3 447 446 445
3 450 449 448
3 452 451 448
3 452 448 449
3 446 376 373
3 447 453 446
3 453 376 446
3 453 378 376
3 379 378 453
3 379 453 454
3 457 456 455
3 455 456 450
3 455 450 448
3 381 455 448
3 380 381 448
3 380 448 382
3 382 448 451
3 459 383 458
3 383 454 458
3 383 379 454
3 460 459 458
3 463 462 461
3 461 462 457
3 461 457 455
3 385 461 455
3 384 385 455
3 384 455 381
3 459 386 383
3 460 464 459
3 464 386 459
3 464 388 386
3 466 465 389
3 388 466 389
3 464 466 388
3 468 467 465
3 468 465 466
3 467 468 463
3 467 463 461
3 391 467 461
3 390 391 461
3 390 461 385
3 465 393 389
3 393 465 395
3 465 469 395
3 465 467 469
3 396 469 391
3 391 469 467
3 471 470 399
3 399 470 398
3 472 399 400
3 472 471 399
3 400 402 472
3 472 402 473
3 475 474 405
3 405 474 404
3 476 405 406
3 476 475 405
3 406 398 470
3 406 470 476
3 477 473 402
3 477 402 407
3 479 478 409
3 478 407 409
3 478 477 407
3 479 480 478
3 474 410 404
3 481 410 474
3 411 479 409
3 483 482 412
3 412 482 411
3 482 480 411
3 480 479 411
3 483 484 482
3 481 414 410
3 485 414 481
3 415 483 412
3 487 486 416
3 416 486 415
3 486 484 415
3 484 483 415
3 487 488 486
3 485 418 414
3 489 418 485
3 419 487 416
3 419 420 487
3 420 488 487
3 420 490 488
3 489 422 418
3 491 422 489
3 492 490 420
3 492 420 423
3 423 424 492
3 492 424 493
3 491 425 422
3 494 425 491
3 426 493 424
3 426 495 493
3 497 427 496
3 427 494 496
3 427 425 494
3 498 497 496
3 499 495 426
3 499 426 428
3 428 429 499
3 499 429 500
3 501 430 497
3 497 430 427
3 497 498 502
3 497 502 501
3 431 500 429
3 431 503 500
3 504 432 501
3 501 432 430
3 501 502 505
3 501 505 504
3 506 503 431
3 506 431 433
3 433 434 506
3 506 434 507
3 504 435 432
3 436 435 504
3 505 436 504
3 508 436 505
3 509 507 434
3 509 434 437
3 508 510 436
3 436 510 439
3 441 439 510
3 441 510 511
3 511 443 441
3 512 443 511
3 514 444 513
3 444 512 513
3 444 443 512
3 515 514 513
3 518 517 516
3 520 519 516
3 520 516 517
3 514 445 444
3 447 445 514
3 515 447 514
3 521 447 515
3 518 516 449
3 450 518 449
3 522 518 450
3 449 516 452
3 452 516 519
3 521 523 447
3 447 523 453
3 525 524 454
3 453 525 454
3 523 525 453
3 526 524 525
3 528 527 456
3 528 456 457
3 450 456 522
3 522 456 527
3 524 458 454
3 530 529 460
3 530 460 458
3 526 530 458
3 524 526 458
3 532 531 529
3 532 529 530
3 534 533 531
3 534 531 532
3 462 463 533
3 534 462 533
3 535 462 534
3 457 462 528
3 528 462 535
3 529 464 460
3 464 529 466
3 466 529 531
3 466 531 468
3 468 531 533
3 468 533 463
3 537 536 471
3 471 536 470
3 539 537 538
3 537 472 538
3 537 471 472
3 473 538 472
3 541 540 475
3 475 540 474
3 542 475 476
3 542 541 475
3 476 470 536
3 476 536 542
3 543 539 538
3 543 538 473
3 477 543 473
3 544 543 477
3 546 544 545
3 544 478 545
3 544 477 478
3 480 545 478
3 540 481 474
3 547 481 540
3 548 546 545
3 550 548 549
3 549 548 482
3 548 545 482
3 545 480 482
3 484 549 482
3 547 485 481
3 551 485 547
3 552 550 549
3 554 552 553
3 553 552 486
3 552 549 486
3 549 484 486
3 488 553 486
3 551 489 485
3 555 489 551
3 556 554 553
3 553 488 556
3 488 557 556
3 488 490 557
3 555 491 489
3 558 491 555
3 559 557 490
3 559 490 492
3 492 493 559
3 559 493 560
3 558 494 491
3 561 494 558
3 495 560 493
3 495 562 560
3 561 563 494
3 494 563 496
3 498 496 563
3 498 563 564
3 565 562 495
3 565 495 499
3 499 500 565
3 565 500 566
3 564 502 498
3 567 502 564
3 503 566 500
3 503 568 566
3 567 505 502
3 569 505 567
3 503 506 570
3 571 503 570
3 568 503 571
3 507 570 506
3 573 508 572
3 508 569 572
3 508 505 569
3 574 573 572
3 571 570 575
3 571 575 576
3 509 577 507
3 577 570 507
3 577 575 570
3 573 510 508
3 511 510 573
3 574 511 573
3 578 511 574
3 576 575 579
3 576 579 580
3 581 575 577
3 579 575 581
3 583 512 582
3 512 578 582
3 512 511 578
3 584 583 582
3 580 579 585
3 580 585 586
3 587 579 581
3 585 579 587
3 583 513 512
3 515 513 583
3 584 515 583
3 588 515 584
3 591 590 589
3 589 590 586
3 589 586 585
3 518 589 585
3 517 518 585
3 517 585 520
3 520 585 587
3 593 521 592
3 521 588 592
3 521 515 588
3 594 593 592
3 591 589 595
3 591 595 596
3 522 595 518
3 518 595 589
3 593 523 521
3 594 597 593
3 597 523 593
3 597 525 523
3 526 525 597
3 526 597 598
3 601 600 599
3 603 602 599
3 603 599 600
3 602 603 596
3 602 596 595
3 528 602 595
3 527 528 595
3 527 595 522
3 598 604 526
3 526 604 530
3 530 605 532
3 604 605 530
3 599 534 601
3 534 605 601
3 534 532 605
3 534 599 535
3 535 599 602
3 535 602 528
3 606 536 537
3 539 606 537
3 607 540 541
3 607 541 608
3 541 609 608
3 541 542 609
3 542 536 606
3 610 542 606
3 609 542 610
3 612 610 611
3 611 610 543
3 610 606 543
3 606 539 543
3 544 613 543
3 543 613 611
3 546 613 544
3 614 547 607
3 607 547 540
3 607 608 615
3 607 615 614
3 612 611 616
3 612 616 617
3 618 611 613
3 616 611 618
3 548 619 546
3 619 613 546
3 619 618 613
3 550 619 548
3 620 551 614
3 614 551 547
3 614 615 621
3 614 621 620
3 622 617 616
3 624 623 622
3 616 624 622
3 618 624 616
3 625 618 619
3 624 618 625
3 552 626 550
3 626 619 550
3 626 625 619
3 554 626 552
3 627 555 620
3 620 555 551
3 620 621 628
3 620 628 627
3 629 623 624
3 631 630 629
3 624 631 629
3 625 631 624
3 632 625 626
3 631 625 632
3 556 633 554
3 633 626 554
3 633 632 626
3 557 633 556
3 634 558 627
3 627 558 555
3 627 628 635
3 627 635 634
3 636 630 631
3 638 637 636
3 631 638 636
3 632 638 631
3 639 632 633
3 638 632 639
3 559 640 557
3 640 633 557
3 640 639 633
3 560 640 559
3 641 561 634
3 634 561 558
3 634 635 642
3 634 642 641
3 637 638 643
3 637 643 644
3 645 638 639
3 643 638 645
3 646 639 640
3 645 639 646
3 562 646 560
3 560 646 640
3 641 563 561
3 564 563 641
3 642 564 641
3 647 564 642
3 650 649 648
3 648 649 644
3 643 648 644
3 651 648 643
3 652 643 645
3 651 643 652
3 653 645 646
3 652 645 653
3 565 654 562
3 654 646 562
3 654 653 646
3 566 654 565
3 656 567 655
3 567 647 655
3 567 564 647
3 657 656 655
3 650 648 658
3 650 658 659
3 660 648 651
3 658 648 660
3 661 651 652
3 660 651 661
3 662 652 653
3 661 652 662
3 663 653 654
3 662 653 663
3 568 663 566
3 566 663 654
3 664 569 656
3 656 569 567
3 656 657 665
3 656 665 664
3 659 658 666
3 659 666 667
3 668 658 660
3 666 658 668
3 669 660 661
3 668 660 669
3 670 661 662
3 669 661 670
3 671 662 663
3 670 662 671
3 571 671 568
3 568 671 663
3 664 572 569
3 574 572 664
3 665 574 664
3 672 574 665
3 673 667 666
3 675 674 673
3 666 675 673
3 668 675 666
3 676 668 669
3 675 668 676
3 677 669 670
3 676 669 677
3 678 670 671
3 677 670 678
3 576 678 571
3 571 678 671
3 680 578 679
3 578 672 679
3 578 574 672
3 681 680 679
3 682 674 675
3 682 675 676
3 682 676 683
3 685 684 683
3 676 685 683
3 677 685 676
3 686 677 678
3 685 677 686
3 580 686 576
3 576 686 678
3 680 582 578
3 688 687 584
3 688 584 582
3 681 688 582
3 680 681 582
3 689 687 688
3 684 685 690
3 684 690 691
3 692 685 686
3 690 685 692
3 586 692 580
3 580 692 686
3 693 588 687
3 687 588 584
3 687 689 694
3 687 694 693
3 691 690 695
3 691 695 696
3 591 695 590
3 695 692 590
3 695 690 692
3 590 692 586
3 693 592 588
3 698 697 594
3 698 594 592
3 694 698 592
3 693 694 592
3 700 699 697
3 700 697 698
3 702 701 699
3 702 699 700
3 704 703 701
3 704 701 702
3 703 704 696
3 695 703 696
3 705 703 695
3 596 705 591
3 591 705 695
3 697 597 594
3 597 697 598
3 697 706 598
3 697 699 706
3 707 699 701
3 706 699 707
3 601 707 600
3 707 703 600
3 707 701 703
3 600 703 603
3 603 703 705
3 603 705 596
3 706 604 598
3 604 706 605
3 605 706 707
3 605 707 601