OFF
1282 2538 0
1.2809561357 12.2563132229 10.4291537863
1.3188661152 12.0512566785 9.9589595944
1.3717468595 11.7075399732 10.2496770184
1.4041129030 11.8543037398 10.7420230881
1.3275603700 12.6219934940 9.9690627883
1.4628934431 12.5684529129 9.5048674769
1.4234023697 12.2146179707 9.5817021208
1.3572561107 12.8235619835 10.5364323711
1.4445657873 12.5011871826 10.9655485513
1.6404565968 13.0293390824 9.5378060472
1.5001445506 13.2462397236 10.2065231223
1.6619655347 13.4948706898 9.8864828597
1.7603823358 13.3470771381 10.9616931034
1.9261213502 13.8310475565 10.2296023704
2.1919050374 9.1822768225 10.0380632706
2.3282733597 8.9928761798 9.2559542343
2.5547328767 8.5281255320 9.6176721806
2.7779605512 8.3331988732 10.5140572134
2.3624457912 9.1239408165 11.0301652243
2.7376288780 8.6383316862 11.2626394254
2.0666350632 9.7288577036 9.2612575215
2.4604953130 9.7639280883 8.4877556613
2.3560346178 9.2252419644 8.8767390253
1.8511453144 10.0348789334 10.0131167618
1.9591187712 9.9602214059 10.8152267922
2.7348792473 9.0789665541 11.7820237360
2.2976960801 9.8918722283 11.8074171690
2.6942997710 9.5919537188 12.2756203303
1.9768840987 10.6258101774 8.9378497867
2.3684033607 10.8552411206 8.2768164814
1.7618754995 10.5449407950 9.6161356810
1.6239597968 11.0055140539 10.4976915604
1.9167637532 10.8349691111 11.5557603028
2.7070996025 10.1511076274 12.6486090430
2.3062174473 10.7845952850 12.4077380241
2.6579632511 10.8082195026 12.9708577554
1.9556871087 11.4213726420 8.7628241326
2.3105685684 11.7747366231 8.3023102662
1.5922966719 11.4760792855 9.5536418062
1.6852511377 11.8839489772 11.4008512526
2.1155570178 11.6358684809 12.2158800563
2.6266007611 11.4697132873 12.9109409539
1.8115555117 12.2741672752 9.0116732550
2.2844716405 12.3843141361 8.4394676049
1.7241634204 12.7483811919 11.4571910600
2.1165974884 12.5838945171 12.0315383416
2.5162925523 12.1690243515 12.5953385400
2.3698883481 13.0383183158 8.7349023257
2.0251087929 13.6085056219 9.5288459320
2.5702238745 13.7316966338 9.0994565346
2.0421872074 13.2138700538 11.6459571316
2.4658517067 13.2547935303 12.0007042048
2.8037033678 12.8209879770 12.4467383803
2.5455665402 14.1395447971 9.7202644091
2.4053793884 14.3174933319 10.3314866267
2.9426292635 14.5379429109 10.1652469366
2.3175485853 14.1216809653 10.8184842738
2.5503151269 13.7836214048 11.5021995784
2.7492998193 14.5042202356 10.6191330145
3.2831176456 7.6605110899 9.0048748639
3.5249664170 7.7193590568 8.3889493658
3.6976708388 7.2101592352 8.8057497736
3.6636709247 7.2025673762 9.5327225868
3.0303476133 7.8759691432 9.6896914851
3.4728331473 7.4807502491 10.1731031849
3.1460687928 7.7922760092 10.3150993253
3.5861273495 7.7299938003 10.8347181248
2.8341154269 8.5596589154 8.7570032935
3.4563646966 8.3869233413 7.9671978609
3.2352985440 8.2854203140 11.3420021251
2.9735704862 8.6256485677 11.6112285085
3.4499143965 8.6680835982 11.9908100118
3.1000730792 9.2155634186 7.9529720824
3.5957121481 9.5428621513 7.4384863682
3.6290891007 8.8418818118 7.5873163268
3.1478677492 9.3066042143 12.3946084562
2.9472118042 9.7063456601 12.6030152937
3.4710514793 9.8930137181 12.9305709668
2.9459024239 10.2022613486 7.8085624194
3.5824974073 10.5106880152 7.3165161132
3.0450156756 10.5681437799 13.1878971148
2.9303459406 11.1083495017 13.3115024614
3.2420799848 10.9287048412 13.4453707075
2.8952091320 11.2227077576 7.7613169803
3.6066420417 11.5299573317 7.3145553118
3.0548994221 11.5326665681 13.3065545946
3.2291543811 11.2653478800 13.4745230245
2.8813383395 12.2523765916 7.9420840920
3.7868939779 12.4203407695 7.4286192254
3.4373673618 11.5298455097 13.3788702067
3.2683423203 12.0845244118 12.9958026001
3.2980747219 13.0484507544 8.0539000305
2.9930224395 13.5477412984 8.6054729468
3.7259203656 13.6229535494 8.3257078225
3.6602932706 12.9276129908 12.5866192268
3.1644827185 13.4815944558 12.0990222040
3.2683254279 14.0410590161 9.0374488945
3.2473563262 14.4266728612 9.6497978063
3.7063425982 14.6829633134 10.0112373633
3.5528685534 14.0861856509 11.6298809512
3.0346795162 14.3841565424 11.0727919296
3.4182225312 14.6774602586 10.5919885751
4.1241650960 6.7585422191 9.0213065826
4.1969331705 6.9866311572 8.2175225852
4.7113609418 6.3264899669 8.6514778262
4.6025924576 6.4355056268 9.3432361384
4.2372835522 6.7507990579 9.6615654478
4.8259513025 6.5438668630 9.9702773975
3.9945076172 7.7459621852 7.7930357221
4.2532099165 7.1019384282 10.4255362885
4.3381206423 7.4847673808 11.1790088518
3.9204727276 8.3267718132 7.5570634756
4.2585736297 8.7388198551 7.2106583034
4.3870742172 7.9714264360 7.3472499542
4.2225417189 7.9941559282 11.7134285433
4.2190312692 8.5446597937 12.3035833474
4.2991708884 9.6994160993 7.0243072973
3.8837352825 9.0876046117 12.5851547693
4.5167732737 9.4607671915 12.9798640441
4.4264756486 10.7370898328 6.8568073494
3.5092596463 10.5803056530 13.3345358965
4.2596277233 10.4398425578 13.2727391951
4.3696446669 11.8002456160 6.9203952388
3.6224415989 11.0620152642 13.4426481313
4.1466476507 11.4566979277 13.2562783163
4.5226839423 12.4833036728 7.0697892612
4.2622849159 12.3114267807 12.9282285452
4.3193949126 13.0922438781 7.6305151997
4.5935250690 13.6934193868 8.1982933061
4.4435895685 12.9231449583 12.6149052778
4.2652613324 13.5686910723 12.1800138226
4.0867011311 14.0338790198 8.7087916551
4.0437569187 14.4366720536 9.3369443027
4.4147661761 14.7661887284 9.8253487739
4.5784123943 14.2898285395 11.6575817152
3.9573280847 14.5918542218 11.1178998849
4.4045450649 14.8859589191 10.4737928819
4.4988067456 18.9482798062 11.9733850146
4.5997001648 18.8217543498 11.3344729072
4.7756583426 18.4604542285 11.5910908172
4.8786749368 18.3721208201 12.0875911078
4.3221915705 19.5561833028 11.3755202952
4.4752909362 19.7717151954 10.6361535516
4.6987819772 19.0862333455 10.7948486564
4.2240155730 19.6913232889 12.1806578645
4.7427734602 18.7929509052 12.6422970988
4.4235332215 19.4320263397 12.7215056952
4.7263924711 19.2154609710 13.1682260687
4.1479410498 20.6368898009 10.9905471330
4.5041246234 20.3723435368 10.1409706448
4.0632901187 20.4611942077 12.0095457180
4.2223371599 20.3524873170 12.9919832414
4.5791266250 19.8187715731 13.4383493614
4.2029158762 21.5480179235 10.1312012551
4.6233966399 21.4919228720 9.2026820556
4.6283417504 20.8260777738 9.6004722372
3.9468112124 21.6867854635 11.1064180426
3.9164561064 21.4645714454 11.8964042361
3.9891583363 21.3688780674 12.8707373918
4.5725021812 20.5230163547 13.9439311521
4.2471703978 21.3519523546 13.8931542616
4.6091334102 21.0704694194 14.4480738558
4.4840130356 21.5989846771 14.6076650168
4.8221782340 21.3282498923 14.8850460197
4.2689681701 22.5186182805 9.3370417034
4.5161583970 22.9147916642 8.6111397221
4.7303132330 22.1353916400 8.6407123875
3.9833890453 22.6908691708 10.1702809566
3.8897167440 22.5285178557 10.9257361415
3.8313814721 22.4671377099 11.8407872561
3.8726433686 22.3875011532 12.7869062328
4.0401088985 22.3224552441 13.7357955093
4.3457892915 22.2401025561 14.5535113741
4.7630096264 21.9701363671 15.0798806241
4.2016673367 23.6134248084 9.0773397347
4.6198289051 23.7688084650 8.2475415494
3.9649911303 23.5290498991 9.9262668554
3.8403011102 23.5073856267 10.8214769588
3.8037288930 23.4597153382 11.7602669533
3.8344322670 23.4145299896 12.7305685296
3.9689442062 23.3470783122 13.6732591757
4.2544763913 23.2098701320 14.5291814935
4.7500232917 22.9071303234 15.2729211387
4.2296982687 24.6245585547 8.9152258830
4.6254572176 24.8757089968 8.1997820821
3.9725606247 24.5170818502 9.7660843175
3.8483376689 24.4769098768 10.6890926427
3.8175393740 24.4618062233 11.6608188080
3.8522067034 24.4320197955 12.6504194667
3.9702876172 24.3755979007 13.6024663505
4.2336065714 24.2723106777 14.4750478948
4.6465503969 24.0175676265 15.2344942777
4.3284670515 25.5672442899 8.8265342265
4.7498440234 25.8026629025 8.2208712796
4.0632465382 25.4803310248 9.6386354128
3.9136589845 25.4144637581 10.5463251721
3.8866561471 25.4190353696 11.4954181557
3.9387599498 25.4230685083 12.4989167453
4.0465355383 25.3522398005 13.4729617655
4.2699978554 25.2593676284 14.3381518571
4.7487093188 25.1973275752 15.1723250351
4.4785372011 26.1858974538 8.7482842380
4.7726779087 26.4135827362 8.4961002181
4.3062273743 26.3591372628 9.4486727861
4.0989914661 26.2857795928 10.4209526638
4.0038065974 26.1505967227 11.2291728947
4.1298852268 26.4058359010 12.1959454537
4.2423326704 26.2651476438 13.2642851425
4.4138762007 26.1105496237 14.1405604393
4.6761375873 25.9493162696 14.7911242152
4.6233340026 26.6331422468 8.9246380394
4.6893612504 27.0353680307 9.4142626462
4.4540293506 27.0355576495 10.2375715451
4.8718175799 27.4851822222 9.9178112587
4.3340181884 26.9840123308 11.3289369265
4.4473260989 27.1954157771 12.2625158988
4.5184575955 27.0508490987 12.9979976115
4.8225256551 26.9551712945 13.9467987920
4.8886355720 26.5465385628 14.6429903196
4.9237651795 27.7143228826 10.8154631865
4.8073483841 27.6821819330 11.9334126990
5.4104463772 5.5501296904 7.0292417224
5.5854541504 5.5660217318 6.4170689286
5.7230662721 5.1233725327 6.5612868324
5.7888815993 5.0301495960 7.3076137661
5.3681229899 5.5385460544 7.6656340965
5.6841704610 5.3160566555 8.0504829200
5.2911258200 5.7854239193 8.3620714728
5.9554010453 5.5007425276 8.7567040133
5.3563186299 6.0126800305 6.7729706576
4.9893150355 6.2325127694 7.5993379759
5.2883149040 6.7323764774 6.7933535946
5.3939444504 6.0818654635 9.4005787965
5.4816996627 6.4003438268 10.2123095981
4.6517217386 7.2339216985 7.4164839324
5.1574708110 7.8976808808 6.8102952610
5.2276996053 6.7749513847 10.6644765061
4.9817484090 7.2332893477 11.1989953879
4.7274647007 7.5601843791 11.5303189365
5.3624214063 7.6629128840 11.8526203239
4.9190397969 8.9432966505 6.8348107523
4.9665106744 8.3136084558 12.3653464910
4.5928706608 8.8240860570 12.6639661642
5.3579197852 8.8725057824 12.8652522635
5.1416732267 9.7146660921 6.6369273691
5.5687383333 9.7849141392 13.2736442967
5.1786916577 10.4938221014 6.5125922651
5.7567208002 10.6800343393 6.2950922494
5.6481376639 10.0090916867 6.3943311385
5.0527434409 10.8135265703 13.2898923475
5.0666663779 11.2675788840 6.5250308996
5.8222703134 11.6009102182 6.2231803928
5.2391441068 11.6883434772 13.0949159483
5.0756606609 12.0838066616 6.6463683521
5.6168783204 12.2700107111 6.5076333356
4.9716236797 12.5077804766 12.7936759869
5.8211648363 12.3924544464 12.7743958951
5.1961186836 13.0947428306 12.4739139524
5.2288778715 12.7201667742 7.0157981200
5.2592039193 13.2822942079 7.6951476670
5.3280214637 13.7179847787 8.2467376011
5.4686357242 13.8619816746 12.0712530528
4.9112779844 14.1749726130 8.8005447611
4.8494406271 14.6191174654 9.4097341399
5.7722460328 14.5659577457 9.2228799860
5.4149965342 14.5543645455 11.7062852307
4.9168574340 14.8530141705 11.1942732799
5.1578719405 14.9772693406 9.9009822619
5.3903896374 15.3119049474 10.6398486775
4.9543495911 18.4801880671 11.0516945379
5.1569820168 18.0640067495 11.5378219875
5.2480313600 17.9708713351 12.1397130667
4.9091145584 19.5385349800 10.0876339621
5.1174433723 18.7847638210 10.4473007416
5.0832568546 18.3225882065 12.5931900104
5.1715516807 18.6861611182 13.2562565805
4.9916181108 19.4132033511 13.7292467425
5.4492380958 19.0197901413 13.9755942299
4.8613199031 20.2240389622 9.6370249340
5.0799375362 20.7023716118 9.0497059087
5.2412708038 19.8699789023 9.4114821125
4.9035947652 20.0045176680 14.0622851836
5.3411447274 19.6688407784 14.3502508030
4.9970027971 21.4613030764 8.6655824439
5.2332839361 20.5160334555 14.7671018675
5.2943794780 21.4353479470 15.3326272391
4.9865398844 22.7437266682 8.0173561485
5.1432873753 21.9137490005 8.2235842353
5.2473212654 22.2312621942 15.6008711214
5.0838872621 23.5059853335 7.6468318448
5.5238653339 23.7837011614 7.1505974216
5.4042110732 23.0294435781 7.4104561362
5.2844942973 22.8763291439 15.8261404408
5.1669387839 23.6343828800 15.8482082360
5.7562936655 23.0827507044 16.2603860361
5.0758553307 24.3115393541 7.6152492254
5.7604184838 24.7731292618 7.0573864756
5.1781769114 24.6636369762 15.8600351754
5.7357449860 24.0834352178 16.4621600967
5.1545221832 25.2345415007 7.6635191531
5.7907923032 25.7000210889 7.3857098023
5.3254266595 25.5364587112 15.7964165354
5.8521814072 25.2759015831 16.4168994262
5.2440262570 25.9101108289 7.8026028110
5.0854907036 26.3231604378 8.1546121709
5.7320120035 25.9642832655 15.9732756350
5.4444928124 26.3327554431 15.3526472054
5.2261176015 26.9570849001 8.6540663096
5.0932818686 27.4321892390 9.3554863603
5.4039602902 27.5078694652 9.1145537432
4.7809051595 27.5727082589 12.6856389120
5.0732156563 27.6070085881 13.3712040652
5.6335528292 27.6520266592 14.1340573591
5.4292084226 27.0835745658 14.6902938035
5.5632310768 27.9332284451 9.7609489027
5.5406386162 28.2740242693 10.7840372903
5.3903520273 28.2237972345 11.6511651506
5.3522092726 28.0771003569 12.6877562331
5.6442256967 28.0499249954 13.4917465153
6.5209571078 3.8363239894 5.6719737879
6.6822349278 3.6328182288 4.8745401415
7.0881676439 3.0963258776 5.3604147904
6.9483157610 3.3766608733 6.0693605684
6.3779214092 4.3860053261 4.9702467762
6.6761595469 4.6661939119 4.1262867811
6.7196502349 3.9278896236 4.2880863016
6.1903761250 4.4271462649 5.6708307164
6.7074782765 3.7910673197 6.4870118155
6.1605617628 4.4695128352 6.4574467964
6.5984042493 4.1502015700 7.0232298271
6.2974816653 4.5520952731 7.3204385077
6.8888667074 4.3564667399 7.6502489031
6.3712772194 5.2473274187 4.7580419733
6.7089508570 5.3776769425 4.1384989749
5.9874246395 5.1558774114 5.7464893796
6.3441820758 4.9433987951 8.0805982043
6.8567758746 5.3026872701 8.9220141495
6.5804326289 5.8103361727 4.5498719117
6.2583315205 6.0755535418 5.2980895681
6.7513892198 6.2870175743 4.7154532008
5.7074636915 6.0884880628 6.1575771836
6.4645481732 5.7928186801 9.5513169852
6.1613224370 6.2210793463 10.1903388640
5.9069097329 6.5629561687 10.6790921647
6.6858416029 6.5503236924 10.8274521877
6.7198184551 6.8357332146 5.2688845487
5.9754035671 7.0291256557 6.0618495121
6.7319948591 7.6630530373 5.8161948211
5.9985815958 7.0200402509 11.2891465564
6.5827686799 7.5564332992 12.0155840525
6.0193846485 7.9226018140 6.2900615077
5.7135320062 8.7272888358 6.5001256740
5.9908215917 8.1935124753 12.5205161540
6.4801235021 8.8567812030 13.0990660787
5.8516481928 9.4173419603 6.4012903579
6.3765892142 9.7361791314 6.2316206937
6.3345357229 8.9401999933 6.2699135818
6.4829399958 9.4407316581 13.4453107288
6.3777411628 9.9002585435 13.4977116157
6.8896653448 9.6268220961 13.5833744652
6.5981939758 10.8715939421 6.1805029551
6.9609878139 10.1123389581 13.5518278261
6.0954457353 10.6562460949 13.3467830791
6.2865282770 11.4741679393 5.9520083937
6.3888488383 11.5994336134 5.9306968743
6.4610738589 11.4239055909 5.9671296366
6.4256113592 11.5500018708 13.0886645550
6.2338199086 11.7228182481 6.0276319551
6.1031857753 12.0740859299 6.3280639665
6.8644463527 12.2645528692 12.7827164042
6.3358666736 13.2081660710 12.3964454860
5.8828787756 12.5171652254 6.7086828424
5.9676330009 12.8532497319 7.2553473932
5.7604532753 13.9442140818 8.6017235432
6.1103411113 13.3554407362 8.0308829946
6.6920874362 13.8221138943 8.7285282895
6.2531816251 13.8424907848 12.0825245391
6.5749481318 13.7087019907 12.1565676876
6.4524199108 13.8750630169 12.0287549388
6.9279573830 14.7694525956 9.2818866058
5.8069160020 15.3114375930 11.5614755675
6.4062783581 14.0123705953 12.0192996086
6.3422633830 14.3839848540 12.0911299485
6.1610480628 15.5400683129 9.8545294620
5.9117230878 16.2148170666 10.8806055365
6.2825874926 16.5575713217 9.9956735314
6.0774484143 16.3166929592 12.0253971531
6.6154782219 15.5253024017 12.4907226483
5.9591918436 17.2139014524 10.4616487510
6.2862876957 17.2496141917 9.8143619850
5.6773198730 17.3441497915 11.6653199096
6.4223327880 16.3944282561 12.7774416220
6.0510372467 17.1718486054 12.8449089054
6.4861269817 16.7936421108 13.2789691222
6.0470768417 17.9715979514 9.7544308868
6.4691409229 17.9853542313 9.1432016177
6.3837642547 17.5529208183 9.5118300970
5.4975405043 18.0837009048 10.6590299842
5.5121417848 17.9272354280 12.7331712969
6.3350449421 17.3243679756 13.6133127945
5.9095167090 18.1476779341 13.7656544306
6.5628013559 17.6037981864 14.2245018620
6.4138343227 18.3014961400 14.5840444001
7.0164926307 17.8405790971 14.8505349751
6.1546682069 18.7924223545 9.0222798845
6.5567569270 19.2245508159 8.2578834217
6.5334936757 18.5204360637 8.7278494592
5.5436418354 18.9886337687 9.7064918011
5.9447977784 19.1004069007 14.6041776338
6.7975765604 18.7767187506 15.2133171294
5.8005150333 20.0106757764 8.6421034101
6.3406712848 20.2171074504 7.8455759996
5.6599680718 19.8081024248 14.7812210319
6.1840076251 19.8388859087 15.2562061851
6.0435969609 21.0547173257 7.6591131939
6.5439324066 21.0913164812 7.0089655075
6.4442247200 20.6316572406 7.4382548218
5.4437437848 21.2057071859 8.2939729807
5.9924729890 20.8060962865 15.5684272952
5.9059242259 21.6864414696 15.8903513963
6.7211231797 21.0270582708 16.1370965588
6.2091466738 21.9550477288 6.9293297578
6.5770974398 22.5462493299 6.2726949827
6.6874437488 21.7191421913 6.4582330399
5.5882567613 22.1332103087 7.5958445438
5.7247328373 22.4182659883 16.0367427514
6.5653129686 22.1421783079 16.5091281246
5.9606820929 23.0230732596 6.8272994501
6.5386815103 23.5284752107 6.1612081074
6.2593433281 23.2231189688 16.7531866219
6.0844196211 24.0558106496 6.5977825095
6.5837204448 24.3034224283 6.1667274537
6.1590966150 23.8760425376 16.9184731894
6.0771336971 24.6339123587 16.9208848584
6.3266714774 23.9539727500 17.1221011285
6.2134418049 24.6182130178 17.1179289379
6.3688807391 24.7424392548 6.5001423340
6.6296027232 25.4496211950 6.7891516259
6.1887612664 25.2322320557 16.8747542124
6.3406845293 25.1802212365 17.0502400866
5.6503800325 26.3899451393 7.8675502475
6.5258696949 26.2749944689 7.4423786415
5.9750403406 26.3228092313 15.8648570540
6.3236618107 26.0716157704 16.2391703155
6.6880569977 25.6564239874 16.8171957886
6.7701721110 25.5333660306 17.0775378226
6.2079657317 26.9708906702 8.1099389194
5.9086977773 27.5335025209 8.8174820289
6.8137722368 27.5327902237 8.4448560852
5.9132485833 27.4868231702 14.6633690533
6.1503403080 27.1805345955 15.0765999369
6.5594406991 26.6696952687 15.7352346650
6.4430071553 28.0404988197 9.1318308019
6.2881994690 28.4156626100 9.7265322675
6.9464074386 28.5167629322 9.5061132651
6.0795607847 28.5788258826 10.3852798709
6.0345377962 28.7003587766 11.2832253471
6.0178721224 28.6202597511 12.2466280669
6.0889138630 28.4523851139 13.1302609044
6.2634675944 28.2079477587 13.8401017325
6.5500380238 27.7949322132 14.5246812703
6.6385111933 28.7794766530 10.0709412551
6.7096412883 29.1025760328 10.7809429743
6.7417665565 29.1388977001 11.7440365531
6.7270365755 28.8448679519 12.7034011628
6.7096485012 28.5847840240 13.4221834489
7.5904226324 2.6460291562 3.6160515512
7.9311382719 2.6597769657 3.0134822242
8.1265157338 2.2518350292 3.3805262511
8.1784999075 1.9750403953 4.1446486940
7.5370761099 2.4478514290 4.3328653500
7.8518120562 2.1990001605 4.8186393516
7.4121212749 2.6061802922 4.8700010241
7.8878310366 2.4596142292 5.5543151228
7.6167137921 3.2590756287 2.9625027524
8.0930615052 3.6776910110 2.3695994957
8.2315515212 3.0145076620 2.5489287590
7.2763570662 3.2106265515 3.5195615282
7.0971732293 3.1425907939 4.2594808452
7.5646992037 3.0135975471 6.2634731243
7.1564849857 3.4097908591 6.5751189636
7.5684483750 3.3330595112 6.8597627870
7.6157555450 3.9396016885 2.7146947905
7.1411977675 3.9657895669 3.4587369480
7.5624379805 4.6091334853 2.8054163056
7.1981178680 3.7784671937 7.1234750224
7.8316053352 4.1324561851 7.8046260119
7.1345527788 5.1268139746 3.4801944504
7.6961099831 5.3667270147 2.8594937215
7.3039173564 4.7705767152 8.3554908421
7.7976565537 5.2318371386 8.9921914443
7.4839589359 5.7856477602 3.3501311945
7.9038759951 5.8942222771 3.0073989655
7.0732554478 5.9430434811 4.0240541990
7.4514571013 5.6821142947 9.5796831402
7.1145853704 6.1222308770 10.2272526930
7.7136247031 6.5275644895 10.8208343265
7.8631528556 6.3035625161 3.6761308881
7.3256452671 6.6244481411 4.5601064768
7.3927669298 7.2496317569 5.2185539194
7.3302188429 7.7627644904 5.6302164662
7.2021094039 7.0056697790 11.4442519964
7.7521060220 7.5302768640 12.0503907685
6.4252212455 8.3451962562 6.1911011131
7.2039768839 8.5325157443 6.0299095342
7.1285080204 8.1111055222 12.6202654744
7.6483471119 8.6443680007 13.1123805979
7.2430088274 9.7249418619 6.2601308068
7.1819929588 9.1918631394 13.4564655177
7.5451966174 9.6279717971 13.6089259182
7.4027214645 10.3794251470 6.4133687494
7.8105435199 10.1765135158 13.5478252215
7.1425727804 10.7918485831 13.3582880209
6.6068353283 11.6526131301 6.2679289882
7.4974107580 11.0255832401 6.7273791543
7.1163257767 11.9125245319 6.9815460616
7.7405708297 11.5777474230 7.2797569440
7.4697059526 11.4962692306 13.0726167082
6.4306338893 12.3211327840 6.7815783150
7.5475295726 12.1284208829 7.6123055812
6.7983021630 12.6323662851 7.5385765921
6.9208898211 13.1006699874 8.1938303582
7.3974181848 12.6320805368 8.0342168095
7.5963400128 13.0690279417 8.5578314222
7.8648144480 12.1282190796 12.8097953934
7.3524536130 12.8110912568 12.5940082977
7.8189924815 13.9412763252 9.1083855473
6.6039611263 13.9362192862 12.0926743876
7.2696236339 13.6958153205 12.4376308863
7.5510602637 14.7473142465 9.3114118858
7.3516780474 15.0552114887 9.3475595225
7.5259739342 14.9515056678 9.3709511900
7.3006350398 14.6782076169 12.6707533985
7.2402971351 15.7185692873 9.3077352765
6.6071267141 16.2005468357 9.6256234034
7.5704231365 15.1012430907 9.3509524324
7.4853656734 15.4147415990 13.1728102407
6.9379888073 16.1913039942 13.3158165318
7.6147060751 15.9030359307 13.7074635619
7.3105791309 16.4676640392 14.0190337786
7.9516589449 16.1479440141 14.2238837783
6.7199674953 17.0190026613 9.3448842637
7.4717708425 16.9015097323 8.8031313484
6.7667716963 16.9065522302 13.8342590358
7.6379201036 16.6817496308 14.5009810706
7.1318216937 17.1070068586 14.4329034206
7.7216120344 17.2393046368 14.9145856143
7.0058396380 18.0085538110 8.5648266020
7.6402366252 17.9633258266 8.0811582077
7.5343688775 17.5060367477 8.4388058385
7.7093908934 18.0649006473 15.3992836756
7.2509045140 18.8357668008 7.8228316508
7.7143199229 19.2073081902 7.2192794044
7.8341615997 18.4628151012 7.6227923183
7.4523201433 18.7941141293 15.6827193076
7.0701515176 19.4927269566 15.7423201432
7.8382018015 19.1910601465 15.9892266505
6.9217167743 20.0474945273 7.3149000077
7.6140954647 20.0305763279 6.6610353477
6.6966004274 20.2630823335 15.8210276649
7.5664872912 20.1329926524 16.2016619302
7.4738513895 21.1482108164 5.8977041804
7.7739379397 21.4399335476 5.6066819896
7.8336119074 20.8647808896 5.7713265656
7.6700764326 20.5651796183 6.1225890665
7.1177496277 20.9506234430 6.4376975386
7.6617455271 21.1221232479 16.6476835383
7.1725553003 21.8889688594 5.9078403333
7.7392612441 22.3074311884 5.4903413968
7.6544879431 21.8525686310 17.0439334076
6.9354088691 22.6699488571 17.0864535842
7.5392696175 22.2674652462 17.3040127838
7.1137480946 22.9663330525 5.7462113247
7.7329822795 23.2895122954 5.4292048479
6.4881483374 23.3902194609 17.0753698971
7.2400803519 22.5989748757 17.3262719353
6.7572592936 23.1636539028 17.2202514815
7.1362296557 24.0266036864 5.7424505615
7.8044812591 24.1213155254 5.4635688890
7.4368738376 24.6516528062 5.6825240333
7.8968320580 24.7255770145 5.6250526383
6.9827704653 24.8835916283 6.0987930039
7.5158940998 25.0564816312 5.8714766312
7.4571854617 25.4054089111 6.3100634932
7.7602427542 25.9846916690 7.0237905129
7.5810542066 25.7420592481 16.8599454669
7.3546476247 26.1810916790 16.3561146621
7.4116036961 25.5943102866 17.0880481999
7.2700338119 26.8749532231 7.8024626041
7.8411148795 27.4590548509 8.3276301190
7.6612594901 26.8097964906 15.7626917597
7.1491709941 27.3304651540 15.1772349221
7.3560269951 28.0399403771 8.8958397120
7.7663957966 28.4956803101 9.4343276530
7.7444813117 27.9043218153 14.4307903842
7.0857627897 28.3452167988 13.9175902899
7.3629234964 29.0328840083 10.1616179976
7.2077002333 29.4839985190 10.7104693934
7.5627188151 29.5356786814 10.6757128281
7.1354953459 29.5984759240 11.1803926494
7.2701344300 29.5262055217 11.6100313066
7.4479615913 29.1766175846 12.1508713587
7.4450156370 28.7489781224 13.1531503960
7.3596708550 29.7448327886 10.8973685501
7.5742236267 29.7674477440 10.9084144297
7.3625248161 29.8338760484 11.1420207844
7.3967316021 29.7636364531 11.3309144431
8.7194759066 1.5473084525 4.4788417775
8.7809848517 1.5641001307 4.0458139093
9.1185007912 1.3616540619 4.3258094231
9.2184118637 1.4026032735 4.7908894019
8.5117880827 2.4384374496 2.8803886166
8.8230017529 1.8961677435 3.4803559960
8.6296232482 1.8545063089 5.1335118738
8.6497243324 2.2269193198 5.9036729531
8.6707966624 3.4632166065 2.1571021108
8.9790802303 2.8962497894 2.3820000591
8.3965061371 2.6601450622 6.3681431832
8.1707480536 3.1477362159 6.9066678598
7.8578414689 3.5582572127 7.2729726428
8.5668940040 3.6188574066 7.4666763832
7.9891779116 4.2801683682 2.3674132917
8.8017593039 4.2750588915 1.9889122548
8.8357622155 4.2945249439 8.0303029980
8.1292764950 4.9026945658 2.3784647153
8.7230154365 5.1008745586 2.1938539971
8.2525741735 4.7606176582 8.4794464251
8.6581219777 5.2821178792 8.9904965098
8.2667060534 5.5661150626 2.5583370215
8.9601683810 5.6292284963 2.4729544640
8.2851390729 5.6202062649 9.4486750616
8.2158113758 6.0787050565 10.0969071156
8.5759380393 6.5208701141 10.6628813315
8.4449933551 6.0691484265 2.9649028810
8.7494511132 6.4476552091 3.6032432913
8.3124206356 6.9270460310 4.6329660473
7.9575865682 7.6413119477 5.4925922640
8.5915695195 7.3364418048 5.3374378251
8.4360569264 7.0048674438 11.3260352437
8.8550882112 7.5901265507 11.9733170872
8.4708012510 7.6262535191 5.6646749439
8.3450418047 8.0878359057 6.0915538868
7.9695925567 9.0082849273 6.3931223797
8.6268687936 8.5877403262 6.6542110090
8.2665259744 8.0876072632 12.5955327828
8.6975070854 8.6789937170 13.0580781769
7.8657633898 9.8518250871 6.5597038818
8.4725774657 9.3520903866 6.8709212585
8.0770659670 9.1452718664 13.4518363385
8.3649039546 9.6541960003 13.5859911502
7.7698237437 10.3893467317 6.6274150359
8.2537327842 10.2565138163 7.0012851683
8.6776908316 10.1552689305 13.4719766449
8.1354241028 10.7925356944 13.3019501553
8.0740968557 11.7280902790 7.7213615184
8.4041868618 11.0243113154 7.5332403616
8.5069870675 11.6228774341 8.0335539122
8.4143514678 11.4372497869 13.0038539307
8.0957148963 12.2513397313 8.2044483494
8.6822387441 12.7171833322 8.9246210772
8.6403402250 11.9716679604 12.7955265031
8.4697379982 12.7659135794 12.6678541143
8.6455603899 13.5101774600 9.2702522202
8.5140353787 14.0619726084 9.3217845374
9.0466637199 13.7110636869 9.4306174557
8.3823629651 13.5791867169 12.7370416801
8.1043076253 14.2047224455 12.8677654699
8.8419053864 13.9187272913 12.9922555787
8.1011925049 14.8797346717 9.2458109569
7.6759236843 14.9156014818 9.3506009075
9.1112456683 14.2897239714 9.3757406898
8.0322802772 14.8405898452 13.1573989461
8.8247195045 14.5382904590 13.3449921872
8.2863924588 16.0259303347 8.8284470509
8.4916982294 15.3989697160 13.8195233685
8.5497570660 16.0371393175 14.4432689381
8.0966735840 17.1088059078 8.3330611160
8.8460800554 17.0754829645 8.0181432266
8.7456899639 16.5030616515 8.4079524148
8.2368515942 16.5970898320 14.7333398960
8.8053736760 17.3115693091 15.2728089937
8.2876108659 17.7950216612 7.8005044006
8.4372099741 18.4865399289 7.3080419235
9.0404934131 17.7066422747 7.5638895693
8.4120855372 18.1268143956 15.6836290358
7.9860952182 18.5540407976 15.7995469744
8.6427068611 18.7821533273 15.9837005624
8.3936665363 19.3511967009 6.7191795068
8.4251044797 19.5712583106 16.2356960712
8.1425822656 20.3769465483 5.9510560944
8.2625017157 20.8755391780 5.6648412492
8.7042461829 20.2461716792 5.9667565053
8.4658708816 19.8654120951 6.2306218915
8.0359956094 20.0225346569 6.3037038023
8.6313442646 20.3747317643 16.5693171941
8.3377514381 21.6271092367 5.4801716735
8.4460452662 21.0437483927 16.8845504486
8.0967848924 21.3639444965 16.9682240792
8.6277692551 21.5033098435 17.1382019023
8.4435437437 22.6038490428 5.3880802418
8.1322400797 21.9407429387 17.3098985177
7.6576166018 22.2699142042 17.3956585874
8.2735533106 23.5119344977 5.3602859457
8.4476333764 24.1408748658 5.5224831301
8.3196668889 24.7508533877 5.7437956903
7.9446730062 25.1414102051 5.9517650507
8.0753640188 25.4298783872 6.3790570944
8.4972721609 25.0009967595 6.1020409575
8.8038759646 25.2792096003 6.6680179813
8.1297819983 25.4256651049 17.0687071652
8.7770582867 25.0682436876 17.0045843923
8.4207493186 25.6238590591 16.6473216799
8.0412791601 25.3667639029 17.2004805622
8.6533717395 24.9801983098 17.2007138340
8.9106701158 25.9584666884 7.2709549982
8.3346525736 26.3189529189 16.0849128979
8.5941598633 26.7100871922 7.8268469317
8.6543660217 27.3807751319 8.4248307024
8.3019666421 26.7798741679 15.7232610843
8.2435946825 27.2092212494 15.2233226830
8.4337501091 27.9118102241 8.9673310888
8.4211483664 28.4053334123 9.5732871835
7.8092921348 28.4161306732 13.7224894757
8.5550580412 28.1563892658 13.6200304981
8.1372309655 28.5908307215 13.2134143928
8.7646487420 27.5832874190 14.4657293370
8.0792650894 28.7687638163 9.9270335745
7.7770941461 29.5703907875 11.0392448229
8.0771706341 29.0944526383 10.6091670220
7.6180688050 29.5763552559 11.4869009597
8.1209916982 29.1288689138 11.5527294501
8.1224977392 28.8419701135 12.5205144465
7.5618598179 29.8052770154 11.1704234982
9.3737184029 1.4707485194 3.9294734350
9.7409266368 1.2740365734 4.4784909251
9.7726468033 1.3058508038 4.9732924650
9.3542449317 2.2994738961 2.8500355957
9.7953220100 1.8017995172 3.4287253702
9.5711499867 1.5712560576 5.3388621817
9.3752242534 2.0231863315 5.8895767706
9.0962973339 2.4406581575 6.3800102412
9.9761975042 2.5625141775 6.5307478327
9.4742227556 3.6148010774 1.9367580111
9.8491533997 2.8367815811 2.3750442734
9.1144150508 3.0180602292 6.9548935017
9.5645385519 3.8285582797 7.5669497460
9.3772241876 4.1203081206 1.6454949154
9.5465321724 4.2403983581 1.5366706563
9.6733273188 4.0781163591 1.6339909322
9.6480267001 4.6721654697 8.1408580519
9.4061937242 4.3849857130 1.6660373330
9.6108592065 4.8592645085 2.0541884874
9.0653326961 4.9308872645 8.5572022511
9.1847928494 5.3362121519 8.9298627803
9.7307985484 5.6439615053 2.6679981859
9.1528227821 6.0969653408 2.9786311298
9.4112883102 6.3344508747 3.4888475367
9.7724476417 6.0425730199 3.1680602150
10.0074995114 6.2182625075 3.7285272358
9.2228306470 5.8304509553 9.4392181789
9.0312025054 6.3042608075 10.1934925019
9.5918112113 6.3641533863 9.9714617712
9.4368913619 6.5905670183 4.2679764128
8.9502594053 7.4759499525 5.8397053046
9.2195350685 6.9960502361 5.2067485239
9.1922116091 7.8695600480 6.6643284824
9.8427277976 6.9949750142 6.1714214914
9.5815790647 7.9988564246 7.3831325990
9.8972750990 7.3975724836 7.2083888009
9.9873342328 7.7703859375 7.7959420944
9.3913696561 6.7510882197 10.6278769241
9.4813552636 7.2610584916 11.3375828927
9.6800672633 7.6664957460 11.8082479055
9.1504309829 8.7294941210 7.2649318626
9.7737012851 8.4197234053 7.8819263315
9.4421054301 8.1784490442 12.4108313202
9.6637206392 8.9883688515 12.9433123350
9.9415922885 8.8442508328 15.7986956934
9.9832602986 8.8394274896 15.7268555384
10.0818937553 8.7394822011 15.7011804310
10.0318920607 8.7845948764 15.7922391607
8.9060401387 9.7223099046 7.4106489342
9.5303479188 9.3111276453 7.9279695945
8.9184672706 9.2505245410 13.3992858890
8.9975307562 9.6912962532 13.5131945665
9.9062364455 8.9273658439 15.8041694652
10.0105246253 8.8957247641 15.7274816339
9.9522616094 8.9008321420 15.8300583265
8.7192191652 10.3465224816 7.4632564320
9.1993308058 10.3203923025 7.9503804238
9.3274149969 9.9741591842 13.3406346879
9.2206284712 10.7150622003 13.0933181982
9.9279765412 8.9633240477 15.8143838675
8.7940652255 11.8789880834 8.4677023360
9.0457131589 11.2007609388 8.2381511381
9.5190598384 11.5931391596 8.8923936275
9.0896130084 11.4943380759 12.8676894017
9.7360657370 11.3303775962 12.7314306581
9.3147782560 12.0062234782 12.6816272604
9.6832165013 12.3833065482 9.3431731193
9.6649993479 12.6058878927 12.6440742839
9.2927613099 13.1273930693 9.3911862724
9.8147528395 13.5734294165 9.6148150836
9.2114371527 13.3343796948 12.8377693576
9.6730372599 13.9829332028 13.2182539394
9.2816326166 15.1798134623 9.0390423769
10.0545389037 14.3892083404 9.4382265684
9.5277257133 14.6128765196 13.6215435991
9.1288158838 14.9092775061 13.7253299776
9.6823477806 15.1917076656 14.0416903849
9.1280871520 15.9579926621 8.6284573938
9.4322889325 16.4387371490 8.2638084869
9.9240059972 15.7780448257 8.6290239805
9.2325978862 15.8504677488 14.4785846309
8.8793298870 16.4056662619 14.8149294889
9.5969045368 16.4860989970 14.9450428293
9.5836530147 17.0237414296 7.8420594288
9.8888244588 17.1292175158 15.2588268925
9.4868799671 18.4861493023 7.0851546534
9.6928792091 17.5469597102 7.5009522735
9.0260517726 18.1333209438 15.7270451082
9.9235821709 18.0052588255 15.5926748038
9.1025970068 19.5205710726 6.4242884709
9.5495727159 19.6211518444 6.4231001864
9.6984860673 19.2340549419 6.6794042781
9.4166040595 18.6365490200 15.9203459781
9.4859365406 19.5405912790 16.2435321297
8.8683265873 20.9361476632 5.7330109124
9.4007183189 20.2165341832 6.1759281988
9.6177944589 20.4346527671 16.6319293626
8.9753806200 21.7822528085 5.5872226313
9.4991990864 21.1762279729 5.9765255799
9.1967302471 20.9733160361 16.9152018573
9.6695613383 21.6329321909 17.1483968569
9.0849530279 22.4810865099 5.5451017176
9.5253497496 22.0683641101 5.8527857370
9.0934482607 21.8522542386 17.2948230211
8.9123301560 23.2565627997 5.5125271938
9.4220638962 22.7647921713 5.7464892410
9.0303487083 23.8689548672 5.7052408699
8.8017023249 24.4434044312 5.8471548840
9.0420977173 24.6534383828 6.2405219003
9.3417078116 24.0512908062 6.0695893484
9.6897248946 24.3582067613 6.6255065208
9.2433265078 24.5135327519 17.1278059058
9.7912676678 23.9710684706 17.0224889708
9.4815320336 24.7531880319 16.7109065309
9.1643885287 24.4525802756 17.2545989337
9.6362159649 23.8426223203 17.2293164320
9.6959338797 25.2566148271 7.1704374182
9.2924858176 25.7164674176 16.1160368906
9.5160450383 25.9197913541 7.4923823817
9.1922473629 26.2674200585 7.6072704094
9.8000913461 26.2461602087 7.9685494397
8.9108620229 26.5683175394 15.6479398860
9.4524340929 26.1536090390 15.7201828112
9.5297544510 26.5002676459 15.3467723399
8.9757837871 27.5219340993 8.7274837403
9.4131783991 27.0490745087 8.5479102477
9.3320590326 27.5656701167 9.1707838607
9.0966418848 27.0340374330 15.0590584942
9.5594366734 26.8343920440 14.9755166898
9.4957112649 27.1503818175 14.5393687503
8.6586434131 28.5613244799 10.1777877530
9.0275950436 28.0677028077 9.6867364460
8.7705844964 28.6476678718 11.0470739652
9.3119813541 28.1382150746 10.5362454682
8.7625882917 28.5914888817 12.0335954510
9.3928295007 28.1368282114 11.5386784828
8.6098703784 28.4955423982 12.8390906787
9.2770623185 28.0424351462 12.7018514420
9.3748218291 27.6186675031 13.7479016464
10.1511687127 1.4416620897 4.0151141030
10.3664527100 1.2875047121 4.4874299686
10.2511862526 1.2749542930 4.8954596076
10.1267254966 1.4172439577 5.2824342681
10.5798535970 1.4603514532 5.2451320460
10.2947941477 2.2875722287 2.9186369010
10.7868575158 1.8486566973 3.6686989452
10.4050162353 1.8569750230 5.7752392934
10.9006659577 2.4763177718 6.3355646666
10.2630559328 3.3377355157 2.1207996211
10.6835789639 2.8461291625 2.5017112677
9.9926444791 3.2417291174 7.1026331043
10.8856533989 3.2742643708 6.8519609643
9.7022968553 4.3427939515 1.6545333498
10.2072690324 4.0640612365 1.9392988974
10.3430149777 3.7598040647 7.3322638400
10.3058588486 4.4734449258 7.6674741521
10.6261481606 4.6747210046 2.2839459137
9.6279863530 5.3255336570 8.7102080795
10.2616547644 5.3238283956 8.2311694149
10.3317640205 5.2232758072 2.5373504850
10.6054270979 5.6357549435 3.3058512142
10.5635895756 6.0582588675 4.0486776852
10.4932389048 6.4778702714 6.3921471560
10.8975374108 6.0937543747 6.0086731652
10.4388492883 6.4868439142 5.8279644651
10.8301586157 6.0591452161 6.7979754958
10.0778430844 5.9259320946 8.9626532208
9.9455744755 6.2550586049 9.5387763459
10.3868260558 6.4751283150 9.3568405100
10.1959601636 6.3583366118 4.3545923392
10.1107585494 6.5688099307 5.1258805541
10.3774143503 6.7318354647 7.0563295386
10.2937924488 8.0331034795 8.3281833178
10.4426373588 7.2126927249 8.0503981707
10.1235701569 6.6913128219 9.9977587327
10.6189706396 7.7585202204 8.6346030108
10.2533365368 7.1960949974 10.7014049286
10.1198105154 7.5105679568 11.3652759312
10.5995878825 7.6199944070 11.1086352362
10.1537205801 8.8814983035 8.4776422867
10.7288454805 8.3892875781 9.0073105792
10.3680617897 7.9687355151 11.7391356868
10.3409121926 8.5618466078 12.3535457599
10.4138127220 9.1418334307 12.6157914091
10.1801332265 8.7463273492 15.5893428605
10.3202783415 8.6728181309 15.4887893020
10.2615651845 8.6707562379 15.5760064623
10.1683962811 8.7045376243 15.7031465632
10.1153124652 8.7963167626 15.7532444401
9.9290236415 9.8674040023 8.5399718478
10.5742435245 9.4249893481 9.1331518740
9.4449246856 9.5270013156 13.3101416298
10.0153076855 9.8738181316 12.9074125508
10.3070731323 8.7041943595 15.5027267250
10.2030697471 8.7797230052 15.6277371935
10.0254188632 8.9071761256 15.7759274532
9.6376887343 10.7179280711 8.5607363080
10.2911201285 10.5973032531 9.2151069843
10.0472432347 10.7202104641 12.7520658349
10.2619182399 11.6506128330 9.5297693699
10.3520817648 11.2043715283 12.4465031272
10.1343875143 11.8684766175 12.4611924803
10.2781527310 12.3482433758 9.7127739760
9.9436259019 12.8631046783 9.6216417483
10.5889704148 12.9047408080 10.0346476078
10.5298848283 12.4940270880 12.4664487595
10.7265099066 13.8042148630 9.8894370577
10.1462596698 13.2059086876 12.8415340654
10.7498347387 13.8355345292 13.1394175832
10.4307629509 15.1021965907 9.0832737112
11.0051378242 14.5495714767 9.5804779596
10.3070054401 14.5805127457 13.6603706823
10.8524656206 15.4024613965 14.1584855134
10.3917639351 16.5079157525 8.1653534125
10.8467439190 15.7366771123 8.6948770291
10.1684758846 15.8906971337 14.5886247612
10.5753501615 16.6717056448 14.9905687785
10.1143682566 17.1152475500 7.7185299394
10.2205924131 17.6432280840 7.4827706347
10.6018991908 17.1331733711 7.8055926453
10.5389944891 17.4081394751 15.3029635163
10.4145036897 18.2300563659 7.3469396070
10.8499177828 17.9798408089 15.4319560882
9.9541648104 19.7615951291 6.5960134996
10.3437506238 19.0713709172 7.0777082317
10.0329085855 18.8722102835 15.9209078079
10.8502837178 18.7996728175 15.7038000589
10.0572978363 20.6532895682 6.4690382348
10.5942338302 20.0979721866 6.9859729810
10.4644547717 19.4641410861 16.0622385847
10.5903739765 20.4123950136 16.4124283054
10.0657842650 21.6540863974 6.3310157839
10.7396554446 21.2600519664 6.9403796432
10.0576725005 21.0241248731 16.8560110747
10.3458134289 21.5947164473 16.9958748091
9.9279509186 22.6905865302 6.2039936176
10.4988842059 22.2306092606 6.6934921591
9.8336571166 22.3877146405 17.2701869418
10.2735832152 22.2186838926 17.1068389257
9.4541373733 23.3653138293 5.8796009752
9.8123649831 23.5487342342 6.2976330224
10.4401922141 23.2791162444 6.8062835446
10.0956007187 23.1240415673 17.1286722932
10.6260388257 22.6766956669 16.8837287347
10.4464098062 23.6372290670 16.6595438998
9.8739555788 23.1248819851 17.2846877646
10.5227267766 24.3498766078 7.2276768581
10.3213988334 24.7822879348 16.0994701446
10.3735716937 25.0955801647 7.4703849796
10.0178199542 25.6217437251 7.5739788431
10.6498970542 25.4247974900 7.8978332898
9.9880728727 25.7744368255 15.6256518836
10.5081865915 25.2173829273 15.6870258814
10.5783827621 25.6107220198 15.2710317255
10.7044905024 26.0123369908 8.4347483608
10.0669506407 26.4351968861 14.8875640812
10.6132074074 25.9829650502 14.8444738782
10.6135022013 26.3168374586 14.3266719602
10.2207893011 26.5797861641 8.6399446675
9.7583831739 27.6104516941 9.9928575393
10.1803522184 27.0023447801 9.3582346862
9.9569664982 27.6307105946 10.9746768437
10.4554929825 27.0876383339 10.4065952203
9.9967141254 27.5784201069 12.0293365274
10.5614771285 27.0802315197 11.4398827086
10.0021854568 27.3806186074 13.0738490278
10.5897536772 26.9786491584 12.4726453473
10.0401086511 27.0005896131 14.0141155691
10.6023888759 26.7286978014 13.4535026935
10.7447384333 1.4733916835 4.2769152946
10.7951245342 1.4182800069 4.7951837580
11.1619369421 2.4437917944 3.0748820150
11.6701058785 2.2222062354 3.7757789210
11.3900951653 1.7922396269 4.4986352289
11.1446554129 1.7281307247 5.2782454748
11.4091985147 2.1687044574 5.8603883163
11.6919044972 2.8215404500 6.3084146734
10.9322889608 3.4556289574 2.3018789557
11.3252517046 2.9821466256 2.7028604305
11.6107919831 3.3987286821 6.6420838156
11.1092532918 4.0861160868 2.3423291110
10.8352660654 4.1501202460 7.2436740566
11.5083430098 4.0946520619 6.8182335354
11.2635222208 4.5437502431 2.5958848608
10.9976097854 5.0214228786 2.7933238456
11.2344365865 5.1573376575 3.2273947345
11.6839250979 4.5944406865 3.2271271509
11.4790026968 5.1925651196 3.7807045938
10.9480537124 5.2321779569 7.3351694960
11.6458338340 4.8115220301 6.6249376134
10.7137884188 6.1477321014 4.7312500417
11.1224869212 5.7034587639 4.2786916921
10.7297201590 6.2335113203 5.3945649315
11.2826239476 5.7365702367 5.2734635021
11.4087182230 5.4425196326 6.2732742824
10.6804327953 6.3177417622 7.5783254704
10.6206755262 6.3861924719 8.5514203813
10.8648460633 7.5506754353 9.0909005637
10.7722014744 7.1627338128 9.8083342353
10.8585356660 7.5366832698 10.6072246708
11.1594154423 7.8000717126 10.3700379103
11.1878504625 8.3164552851 9.6941857567
11.0994547820 8.9851534340 9.6665561502
11.0449743641 8.0500375109 11.0785799810
11.3480219545 8.7467098136 10.0258728046
10.9421345090 8.4831282544 11.8031682562
10.8369217443 8.9168274281 12.2367194060
11.2150384624 9.0289616409 11.8188174415
10.3283746456 8.6808241151 15.5198497506
10.2603650051 8.7006605066 15.6277637414
11.0056624020 9.9364288534 9.9487346666
11.3621776637 9.2104642892 10.2505103937
10.8669230009 9.5952819641 12.2615764716
11.2972401045 9.5620765058 11.6999590698
10.8004288656 11.0358925225 10.0389786523
11.3543119441 9.7694691598 10.6019467660
11.1537534624 10.5652588453 10.8590156737
11.1171791071 10.2747503090 11.7320500133
11.3925814029 9.7810964407 11.1783749452
10.6227587067 10.5343434331 12.3648102517
10.7438565651 11.9863807631 10.1340422103
11.0268263621 11.5351243491 10.7338584271
10.9311516804 11.6146299982 11.8185413015
11.2069219779 12.5640213057 10.9426805990
11.1989546260 13.3731866616 10.4151109323
11.3704879217 12.6002966121 11.8100357697
11.1548000368 12.6851395202 12.3079243374
10.8347244642 13.0951461110 12.7118900167
11.3146278582 13.4161229707 12.6878312504
11.6047869846 14.2695058451 10.2872945654
11.4571515121 14.1266729553 13.0473417943
11.4077483248 15.2431274173 9.1940709848
11.6713911328 14.7989111472 9.6822901982
11.2204392066 14.6978260766 13.5548912162
11.7421996079 15.5166098583 13.8691835521
11.2082617989 16.2599936385 8.4705611541
11.5211429198 15.8556976287 8.8144271642
10.9515894861 16.1015386184 14.6409125867
11.6495881366 16.2124287055 14.4171000840
10.8739627617 17.6932020327 7.7053435395
11.2419506688 17.0032436213 8.1787223952
11.3242052018 16.6209721394 14.8150939712
11.3931025220 17.4429268720 15.0824054915
11.0151500010 18.5226949897 7.5917857314
11.5161597522 17.9472229689 8.0827643399
11.4513909672 18.3497959894 15.3644887174
11.1198823865 19.5001564276 7.5079084753
11.6410097471 18.9371610128 8.0343362046
11.8291462304 19.2323799473 15.4919052189
11.2730927031 20.5519222966 7.4864493637
11.7560555281 19.9801527785 8.0232322863
11.2522733003 19.7579903235 15.9469213836
11.5975718520 20.6194936998 16.0884865840
11.3984366696 21.4412221084 7.4943854719
11.9644564627 21.1271777066 8.1111663264
10.6628966293 21.2466598581 16.7558830037
11.2253826584 21.3622815283 16.4544890455
11.1607504291 22.3508610421 7.2823939433
11.7555424266 21.9796257853 7.8087922890
10.7961377931 21.9246473697 16.8245656616
11.2688488272 22.5060175513 16.4206338318
11.1835282528 23.4868009310 7.4623614385
11.2807167046 23.7452595548 16.0018517577
11.1557836398 24.2322038789 7.6356791896
10.8456117248 24.7609674996 7.6155176254
11.2820074300 24.7293803572 8.0270620016
11.0279332091 24.7786540627 15.5750373588
11.5214486122 24.1891598738 15.6143135742
11.6082155244 24.5866846930 15.1919355175
11.2539782276 25.3798669330 8.4458887701
11.1333924334 25.4579126795 14.7913256972
11.6554252885 24.9524200997 14.7564385230
11.6637207321 25.2653569977 14.2053417897
11.2011165876 25.8602329315 8.8268280540
10.8237950305 26.3559955986 9.0610371101
10.9472838239 26.5074832146 9.8809606712
11.3607485499 25.9347530650 9.4122794668
11.0611964436 26.5341809939 10.8634383056
11.4924363211 25.9399366272 10.2677532598
11.1116234654 26.4900631596 11.8901441456
11.5692188751 25.9244847880 11.2721089975
11.1335577107 26.3361032205 12.8995341783
11.6091474243 25.8514618143 12.2995927090
11.1462021850 26.0088313203 13.8555734792
11.6468477770 25.6384996113 13.2928878189
11.8687183364 2.8458678544 3.2816396105
12.2160338556 2.5689921583 3.9164279923
12.1559813454 2.2825946270 4.4779920962
11.9571337791 2.1422691430 5.2618672496
12.0492321437 2.4191369875 5.8242859340
12.3615746169 2.4576657943 5.5537350549
11.6357830427 3.5389009139 2.7506635233
12.1181586795 3.4352210322 3.3113462760
12.3964985466 3.0946864179 3.8591115395
12.4495692982 2.8631663097 5.8277732061
12.1669224661 3.5274006590 6.3074197509
11.6018454748 4.1555210879 2.7316527276
11.9502108912 3.9253770325 3.1108689774
12.3149552923 3.8730212345 3.8162969388
12.1058153641 4.3003164844 6.3286045680
11.7838153471 5.1938596371 4.6707638087
12.1097937627 4.6175096941 4.1671157219
11.9327161768 5.0881192250 5.5451503590
12.3473801253 4.5815658595 5.0225876737
11.9626611500 4.8602031153 6.1486270946
12.3661423895 4.4655389358 5.7632063105
11.1802993442 7.8465957752 9.8868356511
11.3881407798 8.5432223879 10.5212249781
11.3160698909 8.6249395993 11.3261527416
11.4836030141 9.2979750098 10.7741258126
11.4515412915 9.1383912847 11.2545290162
11.6520123397 13.5843471646 11.0147504624
11.6512928327 13.2508616622 11.7046507025
11.5293970016 13.1193818520 12.2224722419
11.9601250590 14.3473767302 11.0973971351
11.9396936847 14.0695679641 11.7303959819
11.7694858878 13.9056849916 12.4511879219
11.9775337378 15.2265249492 9.5124554083
12.0890940752 15.0496412626 9.9911256846
12.1923036404 15.1579386830 10.8120485214
12.4043413523 15.7386012650 10.1787717947
12.1803633286 14.9415905372 11.7109320936
12.0806758479 14.6856280729 12.3517894565
11.9498416053 14.9947341466 13.1433328147
11.7850776153 16.4695729661 8.6972397749
12.0446536647 15.8479962180 9.2042901142
12.4669436310 16.2091229858 10.8784614802
12.5812583076 16.6223524808 10.2413602000
12.3810335384 15.9174356542 11.6667861225
12.3202268179 15.6569419992 12.5623167894
12.3524749855 15.8414619522 13.2688179132
12.2124572087 15.7620958641 13.6303110234
12.2177842489 16.2822506141 13.9978676537
11.9601578027 17.3614520215 8.6059303203
12.2952305894 16.7729247079 9.1376587535
12.6147148097 17.1201642747 10.8765838676
12.7044182239 17.5277049649 10.3344310422
12.5457826445 16.8918081546 11.5928553247
12.5321145592 16.6984468135 12.4029687870
12.5330056545 16.5223742567 13.1535178240
11.8063547871 16.9116620680 14.7319840807
12.2236947627 16.9538426277 14.3882648919
12.0916999703 18.3739147721 8.5796666430
12.4358377531 17.7937298753 9.1588819528
12.7270738906 17.8168151500 10.8789758150
12.8122579209 18.2580083906 10.6107237508
12.6904284183 17.7390498321 11.4826476299
12.6812590290 17.6065431792 12.2546434260
12.6903259600 17.4396797983 13.0460058222
12.0925991007 17.4843493429 14.7550372258
12.1302930585 18.3512376750 14.9855894097
12.1779987609 19.4161874263 8.5705972890
12.5310416345 18.8913970766 9.1919399857
12.8415099516 18.4678170834 11.2829170273
12.8421885130 18.4412991011 12.1278731548
12.8249228464 18.2217948692 12.8369049925
12.4417249851 19.2906291557 15.0577691617
12.2694722103 20.3942092163 8.5691988896
12.5962581370 19.9578682442 9.1744876336
11.9120021274 20.0536714624 15.7747589204
12.3684218931 20.0188977734 15.3979770456
12.3633829656 20.9937891303 8.6105464464
12.6192028941 20.8760016707 9.0933187625
12.1766276484 20.6286644813 15.7553587343
12.0131255790 21.5385511916 15.9220678244
11.8471503058 22.8962223701 8.0091597488
12.2290907411 22.1375750019 8.3709056973
12.4925383151 21.5511982867 8.8039571386
12.0169626430 22.7540688648 15.7753207760
11.6401823441 23.9295973437 8.0667350013
12.3631680771 22.8513985938 8.6410365254
12.1976828668 23.6530865081 8.8008606709
12.5649053846 23.1531350824 9.1332818313
11.9800655668 23.7503637235 15.4165388228
12.4560193367 23.0187370992 15.2313826728
12.4519455677 23.6071034392 14.9096459972
11.7695836585 24.6989171541 8.7733395634
12.5280781351 23.6524758763 9.5247610274
12.2205802754 24.4368285943 9.7716226568
12.3464920068 24.5751520786 10.9299498330
12.6148892424 23.8335737955 10.2999551061
12.4066801987 24.6050702827 11.9617148442
12.6870343711 23.9113689196 11.2750050882
12.4667182646 24.5427200555 12.8799711133
12.7303872709 23.9492371856 12.2545525511
12.7350585796 24.0059445351 13.0426494118
12.1129445402 24.4203001974 14.6357298528
12.5832614095 23.8299807343 14.4161426670
12.4811251681 24.2870419105 14.0401524381
11.5423552646 25.4560717373 8.9765174467
11.7811017205 25.3070371377 9.6110208959
11.9435128911 25.2656809355 10.5847294082
12.0135067034 25.2673439017 11.6365700541
12.0684418895 25.1765966721 12.6507367990
12.5593279958 24.3425143021 13.5099232244
12.1667747202 24.8647103303 13.6462352661
12.5325224330 2.7373975712 4.3864687065
12.6120180584 2.6904778647 5.1155253105
12.7541967593 3.3353826409 4.6664714075
12.9329584965 3.0976316185 5.1210268794
12.8631851322 3.0647401483 5.5006937668
12.7370816129 3.4246420824 5.7864173156
12.9686515081 3.4271721308 5.4777668241
12.5622109914 4.0692584496 4.5961177815
12.9873948909 3.4180372532 5.1614988164
12.7717553306 3.8415531550 5.3305680412
12.5284014154 3.9216903512 5.9603801581
12.2812965598 15.5470256892 9.6725939207
12.4498955744 16.2277571597 9.6565440809
12.4497157587 16.2959203991 13.6143155798
12.5996832447 17.1753750290 9.7073185516
12.5646916778 17.0967007466 13.7909426620
12.7449111009 18.3251907836 9.9295099045
12.8073880137 18.2940480544 13.6787239274
12.5051768294 17.8402136272 14.3884173885
12.8452068117 19.5576837525 9.9329870487
12.9532593512 19.2173421213 10.8609702793
13.0051904058 19.3063274299 11.9655026013
12.9853450965 19.1573637513 13.0373886592
12.9387825368 19.3027716394 13.9757513342
12.6876176211 18.8507064867 14.5024713498
12.8933323261 20.6478857434 9.8758822712
13.0567052513 20.3996474384 10.7921311417
13.1219849931 20.2811348400 11.8008745688
13.1250433462 20.2256341262 12.8430229263
13.0520371019 20.1581238241 13.8294255456
12.7986160199 19.9542082341 14.7086032048
12.8639639942 21.7071988214 9.7268311520
13.0698685745 21.4577554353 10.7304950304
13.1593387511 21.3159497056 11.7291819327
13.1781369790 21.2256703070 12.7361273031
13.1277782514 21.1310221964 13.6929819125
12.9436511873 21.0341712267 14.5705521772
12.5775689728 20.8838375616 15.3184348239
12.6573595104 22.4489856786 9.1552472757
12.8966676314 22.5841744776 9.9573565268
13.0152261892 22.4085810622 10.6925859202
13.0986466882 22.3109213733 11.6771741980
13.1368451196 22.2009961335 12.6707056018
13.1045324311 22.0780208098 13.6071602888
12.9978405385 21.8752565984 14.3605298293
12.6315319544 22.0227846493 15.1689168438
12.7510042828 23.1518057792 9.7510901945
12.8718392469 23.1900446544 10.5818582727
12.9402581878 23.1848549878 11.5376576013
12.9648498867 23.2167140996 12.6563962789
13.0167551521 22.8719721533 13.4658104588
12.8202529158 22.9154609655 14.4336790400
12.7851207178 23.6970816770 13.7079174187
3 2 1 0
3 0 3 2
3 6 5 4
3 6 4 1
3 4 0 1
3 4 7 0
3 3 0 8
3 8 0 7
3 5 9 4
3 11 10 9
3 10 4 9
3 10 7 4
3 8 7 12
3 12 7 10
3 11 13 10
3 10 13 12
3 16 15 14
3 18 17 14
3 14 17 16
3 18 19 17
3 22 21 20
3 22 20 15
3 20 14 15
3 20 23 14
3 14 24 18
3 14 23 24
3 19 18 25
3 18 26 25
3 18 24 26
3 26 27 25
3 20 21 28
3 28 21 29
3 20 30 23
3 20 28 30
3 23 31 24
3 23 30 31
3 24 32 26
3 24 31 32
3 27 26 33
3 26 34 33
3 26 32 34
3 34 35 33
3 28 29 36
3 36 29 37
3 28 38 30
3 28 36 38
3 38 1 2
3 31 38 2
3 30 38 31
3 31 2 3
3 39 31 3
3 32 31 39
3 32 40 34
3 32 39 40
3 35 34 41
3 41 34 40
3 36 37 42
3 42 37 43
3 42 5 6
3 38 42 6
3 36 42 38
3 38 6 1
3 8 44 39
3 8 39 3
3 39 45 40
3 39 44 45
3 41 40 46
3 46 40 45
3 43 47 42
3 47 49 48
3 47 48 9
3 42 47 9
3 5 42 9
3 48 11 9
3 12 50 44
3 12 44 8
3 52 45 51
3 45 50 51
3 45 44 50
3 45 52 46
3 49 53 48
3 53 55 54
3 53 54 13
3 48 53 13
3 11 48 13
3 54 56 13
3 13 56 12
3 56 57 12
3 57 50 12
3 50 57 51
3 55 58 54
3 54 58 56
3 61 60 59
3 63 62 59
3 59 62 61
3 65 64 63
3 63 64 62
3 65 66 64
3 59 60 67
3 67 60 68
3 67 15 16
3 63 67 16
3 59 67 63
3 63 16 17
3 63 17 65
3 70 69 19
3 19 69 17
3 69 66 17
3 66 65 17
3 70 71 69
3 74 73 72
3 74 72 68
3 68 72 67
3 72 21 67
3 21 22 67
3 67 22 15
3 25 70 19
3 76 75 27
3 27 75 25
3 75 71 25
3 71 70 25
3 76 77 75
3 72 73 78
3 78 73 79
3 78 29 21
3 78 21 72
3 33 76 27
3 81 80 35
3 35 80 33
3 80 77 33
3 77 76 33
3 81 82 80
3 78 79 83
3 83 79 84
3 83 37 29
3 83 29 78
3 41 85 81
3 41 81 35
3 82 81 86
3 86 81 85
3 83 84 87
3 87 84 88
3 87 43 37
3 87 37 83
3 90 89 85
3 41 90 85
3 46 90 41
3 85 89 86
3 88 91 87
3 91 93 92
3 91 92 47
3 87 91 47
3 43 87 47
3 92 49 47
3 95 94 52
3 95 52 51
3 46 52 90
3 90 52 94
3 93 96 92
3 92 96 49
3 96 53 49
3 96 97 53
3 55 53 97
3 55 97 98
3 100 99 57
3 100 57 56
3 51 57 95
3 95 57 99
3 98 101 55
3 55 101 58
3 56 58 100
3 100 58 101
3 104 103 102
3 106 105 102
3 102 105 104
3 106 107 105
3 102 103 61
3 103 60 61
3 103 108 60
3 102 61 62
3 102 62 106
3 109 107 106
3 62 109 106
3 64 109 62
3 64 66 109
3 109 66 110
3 113 112 111
3 108 113 111
3 68 108 111
3 60 108 68
3 114 110 66
3 114 66 69
3 69 71 114
3 114 71 115
3 111 112 74
3 112 73 74
3 112 116 73
3 111 74 68
3 117 115 71
3 117 71 75
3 75 77 117
3 117 77 118
3 116 79 73
3 119 79 116
3 77 80 120
3 121 77 120
3 118 77 121
3 82 120 80
3 119 84 79
3 122 84 119
3 121 120 123
3 121 123 124
3 86 123 82
3 82 123 120
3 122 88 84
3 125 88 122
3 124 123 89
3 90 124 89
3 126 124 90
3 89 123 86
3 125 127 88
3 88 127 91
3 93 91 127
3 93 127 128
3 130 129 94
3 130 94 95
3 90 94 126
3 126 94 129
3 128 131 93
3 93 131 96
3 96 132 97
3 131 132 96
3 98 97 132
3 98 132 133
3 135 134 99
3 135 99 100
3 95 99 130
3 130 99 134
3 133 136 98
3 98 136 101
3 100 101 135
3 135 101 136
3 139 138 137
3 137 140 139
3 143 142 141
3 143 141 138
3 141 137 138
3 141 144 137
3 140 137 145
3 137 146 145
3 137 144 146
3 146 147 145
3 141 142 148
3 148 142 149
3 141 150 144
3 141 148 150
3 144 151 146
3 144 150 151
3 147 146 152
3 152 146 151
3 155 154 153
3 155 153 149
3 153 148 149
3 153 156 148
3 148 157 150
3 148 156 157
3 150 158 151
3 150 157 158
3 152 151 159
3 151 160 159
3 151 158 160
3 162 161 160
3 160 161 159
3 162 163 161
3 166 165 164
3 166 164 154
3 164 153 154
3 164 167 153
3 153 168 156
3 153 167 168
3 156 169 157
3 156 168 169
3 157 170 158
3 157 169 170
3 158 171 160
3 158 170 171
3 160 172 162
3 160 171 172
3 163 162 173
3 173 162 172
3 164 165 174
3 174 165 175
3 164 176 167
3 164 174 176
3 167 177 168
3 167 176 177
3 168 178 169
3 168 177 178
3 169 179 170
3 169 178 179
3 170 180 171
3 170 179 180
3 171 181 172
3 171 180 181
3 173 172 182
3 182 172 181
3 174 175 183
3 183 175 184
3 174 185 176
3 174 183 185
3 176 186 177
3 176 185 186
3 177 187 178
3 177 186 187
3 178 188 179
3 178 187 188
3 179 189 180
3 179 188 189
3 180 190 181
3 180 189 190
3 182 181 191
3 191 181 190
3 183 184 192
3 192 184 193
3 183 194 185
3 183 192 194
3 185 195 186
3 185 194 195
3 186 196 187
3 186 195 196
3 187 197 188
3 187 196 197
3 188 198 189
3 188 197 198
3 189 199 190
3 189 198 199
3 191 190 200
3 200 190 199
3 192 193 201
3 201 193 202
3 192 203 194
3 192 201 203
3 194 204 195
3 194 203 204
3 195 205 196
3 195 204 205
3 196 206 197
3 196 205 206
3 197 207 198
3 197 206 207
3 198 208 199
3 198 207 208
3 200 199 209
3 209 199 208
3 202 210 201
3 201 210 203
3 203 210 211
3 213 212 211
3 212 203 211
3 212 204 203
3 204 214 205
3 204 212 214
3 216 206 215
3 206 214 215
3 206 205 214
3 206 216 207
3 207 216 217
3 207 217 208
3 208 217 218
3 208 218 209
3 213 219 212
3 212 219 214
3 214 219 220
3 214 220 215
3 223 222 221
3 225 224 221
3 221 224 223
3 227 226 225
3 225 226 224
3 227 228 226
3 222 229 221
3 231 230 229
3 230 221 229
3 230 225 221
3 230 103 104
3 227 230 104
3 225 230 227
3 232 228 227
3 104 232 227
3 105 232 104
3 105 107 232
3 232 107 233
3 230 231 234
3 234 231 235
3 234 108 103
3 234 103 230
3 236 233 107
3 236 107 109
3 238 237 110
3 237 109 110
3 237 236 109
3 238 239 237
3 234 235 113
3 235 112 113
3 235 240 112
3 234 113 108
3 114 238 110
3 242 241 115
3 115 241 114
3 241 239 114
3 239 238 114
3 242 243 241
3 240 116 112
3 244 116 240
3 117 242 115
3 117 118 242
3 118 243 242
3 118 245 243
3 248 247 246
3 244 248 246
3 119 244 246
3 116 244 119
3 121 245 118
3 121 249 245
3 246 247 250
3 250 247 251
3 250 122 119
3 250 119 246
3 124 249 121
3 124 252 249
3 250 251 253
3 253 251 254
3 253 125 122
3 253 122 250
3 257 256 255
3 256 252 255
3 252 126 255
3 252 124 126
3 254 258 253
3 253 258 125
3 258 127 125
3 258 259 127
3 128 127 259
3 128 259 260
3 257 255 129
3 130 257 129
3 261 257 130
3 129 255 126
3 260 262 128
3 128 262 131
3 262 264 263
3 132 262 263
3 131 262 132
3 263 133 132
3 266 265 134
3 266 134 135
3 130 134 261
3 261 134 265
3 264 267 263
3 263 267 133
3 267 136 133
3 267 268 136
3 135 136 266
3 266 136 268
3 270 269 139
3 139 269 138
3 139 140 270
3 270 140 271
3 273 272 143
3 143 272 142
3 143 138 269
3 143 269 273
3 274 271 140
3 274 140 145
3 276 275 147
3 275 145 147
3 275 274 145
3 276 277 275
3 280 279 278
3 272 280 278
3 149 272 278
3 142 272 149
3 152 281 276
3 152 276 147
3 277 276 282
3 282 276 281
3 278 279 155
3 279 154 155
3 279 283 154
3 278 155 149
3 159 281 152
3 284 282 281
3 159 284 281
3 161 284 159
3 161 163 284
3 284 163 285
3 287 286 166
3 166 286 165
3 166 154 283
3 166 283 287
3 173 285 163
3 173 288 285
3 291 290 289
3 286 291 289
3 175 286 289
3 165 286 175
3 182 293 292
3 288 182 292
3 173 182 288
3 293 294 292
3 289 290 295
3 295 290 296
3 295 184 175
3 295 175 289
3 191 297 293
3 191 293 182
3 294 293 298
3 298 293 297
3 295 296 299
3 299 296 300
3 299 193 184
3 299 184 295
3 200 301 297
3 200 297 191
3 298 297 302
3 302 297 301
3 300 303 299
3 193 299 303
3 304 193 303
3 202 193 304
3 306 305 301
3 200 306 301
3 209 306 200
3 301 305 302
3 304 307 202
3 202 307 210
3 307 309 308
3 211 307 308
3 210 307 211
3 308 213 211
3 215 310 216
3 311 217 216
3 311 216 310
3 217 311 312
3 313 217 312
3 218 217 313
3 209 218 306
3 306 218 313
3 309 314 308
3 308 314 213
3 314 219 213
3 314 315 219
3 219 316 220
3 315 316 219
3 215 220 310
3 220 317 310
3 220 316 317
3 310 317 311
3 311 317 318
3 311 318 312
3 321 320 319
3 319 322 321
3 325 324 323
3 325 323 320
3 323 319 320
3 323 326 319
3 322 319 327
3 319 328 327
3 319 326 328
3 330 329 328
3 328 329 327
3 330 331 329
3 323 324 332
3 332 324 333
3 323 334 326
3 323 332 334
3 334 222 223
3 328 334 223
3 326 334 328
3 328 223 224
3 328 224 330
3 335 331 330
3 224 335 330
3 226 335 224
3 226 228 335
3 335 228 336
3 333 337 332
3 339 338 337
3 338 332 337
3 338 334 332
3 340 229 222
3 334 340 222
3 338 340 334
3 340 231 229
3 341 336 228
3 341 228 232
3 343 342 233
3 342 232 233
3 342 341 232
3 343 344 342
3 339 345 338
3 347 346 345
3 346 338 345
3 346 340 338
3 346 235 231
3 346 231 340
3 236 343 233
3 348 344 343
3 236 348 343
3 237 348 236
3 237 239 348
3 348 239 349
3 347 350 346
3 235 346 350
3 351 235 350
3 240 235 351
3 352 349 239
3 352 239 241
3 241 243 352
3 352 243 353
3 356 355 354
3 351 356 354
3 244 351 354
3 240 351 244
3 245 358 357
3 353 245 357
3 243 245 353
3 358 359 357
3 354 355 248
3 355 247 248
3 355 360 247
3 354 248 244
3 362 361 358
3 245 362 358
3 249 362 245
3 358 361 359
3 365 364 363
3 360 365 363
3 251 360 363
3 247 360 251
3 252 362 249
3 252 366 362
3 364 367 363
3 251 363 367
3 368 251 367
3 254 251 368
3 370 369 256
3 370 256 257
3 252 256 366
3 366 256 369
3 368 371 254
3 254 371 258
3 258 372 259
3 371 372 258
3 374 373 260
3 259 374 260
3 372 374 259
3 375 373 374
3 378 377 376
3 377 370 376
3 370 261 376
3 370 257 261
3 373 262 260
3 264 262 373
3 375 264 373
3 379 264 375
3 265 266 380
3 376 381 378
3 381 376 382
3 376 261 382
3 265 380 382
3 265 382 261
3 379 383 264
3 264 383 267
3 383 385 384
3 268 383 384
3 267 383 268
3 380 266 268
3 384 380 268
3 386 380 384
3 382 380 387
3 387 380 386
3 384 385 388
3 388 385 389
3 384 390 386
3 384 388 390
3 387 386 391
3 386 392 391
3 386 390 392
3 392 393 391
3 396 395 394
3 396 394 389
3 394 388 389
3 394 397 388
3 397 269 270
3 390 397 270
3 388 397 390
3 390 270 271
3 398 390 271
3 392 390 398
3 393 392 399
3 392 400 399
3 392 398 400
3 402 401 400
3 400 401 399
3 402 403 401
3 406 405 404
3 406 404 395
3 404 394 395
3 404 407 394
3 407 272 273
3 397 407 273
3 394 407 397
3 397 273 269
3 274 398 271
3 398 274 275
3 398 275 400
3 400 275 277
3 408 400 277
3 402 400 408
3 403 402 409
3 409 402 408
3 404 405 410
3 410 405 411
3 410 279 280
3 407 410 280
3 404 410 407
3 407 280 272
3 282 412 408
3 282 408 277
3 409 408 413
3 413 408 412
3 416 415 414
3 416 414 411
3 414 410 411
3 414 417 410
3 417 283 279
3 417 279 410
3 284 412 282
3 419 418 285
3 285 418 284
3 418 413 284
3 413 412 284
3 419 420 418
3 423 422 421
3 423 421 415
3 421 414 415
3 421 424 414
3 424 286 287
3 417 424 287
3 414 424 417
3 417 287 283
3 288 425 419
3 288 419 285
3 420 419 426
3 426 419 425
3 421 422 427
3 427 422 428
3 427 290 291
3 424 427 291
3 421 427 424
3 424 291 286
3 292 425 288
3 292 294 425
3 294 426 425
3 294 429 426
3 427 428 430
3 430 428 431
3 430 296 290
3 430 290 427
3 298 433 432
3 429 298 432
3 294 298 429
3 435 434 433
3 433 434 432
3 431 436 430
3 296 430 436
3 437 296 436
3 300 296 437
3 302 438 433
3 302 433 298
3 433 439 435
3 433 438 439
3 303 300 440
3 300 441 440
3 300 437 441
3 440 304 303
3 306 442 305
3 442 443 305
3 305 443 302
3 443 444 302
3 444 438 302
3 438 444 439
3 439 444 445
3 441 446 440
3 446 448 447
3 446 447 307
3 440 446 307
3 304 440 307
3 447 309 307
3 312 449 313
3 449 450 313
3 313 450 306
3 450 451 306
3 451 442 306
3 442 451 443
3 448 452 447
3 452 454 453
3 452 453 314
3 447 452 314
3 309 447 314
3 455 315 314
3 455 314 453
3 456 316 315
3 456 315 455
3 457 317 316
3 457 316 456
3 458 318 317
3 458 317 457
3 458 459 318
3 318 459 312
3 459 460 312
3 460 449 312
3 449 460 450
3 454 461 453
3 453 461 455
3 455 461 462
3 455 462 456
3 456 462 463
3 456 463 457
3 457 463 464
3 457 464 458
3 458 464 465
3 458 465 459
3 468 467 466
3 470 469 466
3 466 469 468
3 472 471 470
3 470 471 469
3 472 473 471
3 476 475 474
3 476 474 467
3 474 466 467
3 474 477 466
3 466 478 470
3 466 477 478
3 478 320 321
3 472 478 321
3 470 478 472
3 480 479 322
3 322 479 321
3 479 473 321
3 473 472 321
3 480 481 479
3 475 482 474
3 484 483 482
3 483 474 482
3 483 477 474
3 483 324 325
3 478 483 325
3 477 483 478
3 478 325 320
3 327 480 322
3 485 481 480
3 327 485 480
3 329 485 327
3 329 331 485
3 485 331 486
3 483 484 487
3 487 484 488
3 487 333 324
3 487 324 483
3 489 486 331
3 489 331 335
3 335 336 489
3 489 336 490
3 487 488 491
3 491 488 492
3 493 337 333
3 487 493 333
3 491 493 487
3 493 339 337
3 494 490 336
3 494 336 341
3 495 341 342
3 495 494 341
3 342 344 495
3 495 344 496
3 492 497 491
3 491 497 493
3 493 497 498
3 493 498 339
3 498 345 339
3 498 499 345
3 347 345 499
3 347 499 500
3 501 496 344
3 501 344 348
3 348 349 501
3 501 349 502
3 350 347 503
3 347 504 503
3 347 500 504
3 503 351 350
3 505 502 349
3 505 349 352
3 352 353 505
3 505 353 506
3 503 504 356
3 504 355 356
3 504 507 355
3 503 356 351
3 508 506 353
3 508 353 357
3 357 359 508
3 508 359 509
3 507 360 355
3 510 360 507
3 512 511 361
3 512 361 362
3 359 361 509
3 509 361 511
3 513 364 365
3 360 510 514
3 513 360 514
3 515 513 514
3 365 360 513
3 516 515 514
3 366 512 362
3 366 517 512
3 513 367 364
3 367 513 368
3 513 518 368
3 513 515 518
3 515 516 519
3 520 515 519
3 518 515 520
3 522 521 520
3 522 520 519
3 523 521 522
3 525 524 369
3 525 369 370
3 366 369 517
3 517 369 524
3 518 371 368
3 371 518 372
3 372 518 520
3 372 520 374
3 374 520 521
3 375 374 521
3 523 375 521
3 526 375 523
3 378 527 377
3 527 528 377
3 528 370 377
3 528 525 370
3 530 379 529
3 379 526 529
3 379 375 526
3 531 530 529
3 381 527 378
3 381 382 527
3 382 528 527
3 382 532 528
3 534 383 533
3 383 379 533
3 533 379 530
3 535 533 530
3 530 531 535
3 383 534 385
3 387 537 536
3 532 387 536
3 382 387 532
3 539 538 537
3 537 538 536
3 539 540 538
3 534 533 541
3 541 533 542
3 541 389 385
3 541 385 534
3 391 537 387
3 537 391 393
3 543 537 393
3 539 537 543
3 540 539 544
3 539 545 544
3 539 543 545
3 545 546 544
3 549 548 547
3 549 547 542
3 542 547 541
3 547 395 541
3 395 396 541
3 541 396 389
3 399 543 393
3 543 399 401
3 543 401 545
3 401 403 545
3 403 546 545
3 403 550 546
3 553 552 551
3 553 551 548
3 548 551 547
3 551 405 547
3 405 406 547
3 547 406 395
3 409 555 554
3 550 409 554
3 403 409 550
3 555 556 554
3 551 552 557
3 557 552 558
3 557 411 405
3 557 405 551
3 413 559 555
3 413 555 409
3 556 555 560
3 560 555 559
3 563 562 561
3 565 564 561
3 561 564 563
3 564 565 558
3 558 565 557
3 565 415 557
3 415 416 557
3 557 416 411
3 418 559 413
3 418 420 559
3 420 560 559
3 420 566 560
3 561 562 567
3 567 562 568
3 567 422 423
3 565 567 423
3 561 567 565
3 565 423 415
3 426 570 569
3 566 426 569
3 420 426 566
3 570 571 569
3 567 568 572
3 572 568 573
3 572 428 422
3 572 422 567
3 429 574 570
3 429 570 426
3 571 570 575
3 570 576 575
3 570 574 576
3 572 573 577
3 577 573 578
3 577 431 428
3 577 428 572
3 432 574 429
3 574 432 434
3 574 434 576
3 577 578 579
3 579 578 580
3 581 436 431
3 577 581 431
3 579 581 577
3 581 437 436
3 580 582 579
3 579 582 581
3 581 582 583
3 437 581 583
3 584 437 583
3 441 437 584
3 586 585 444
3 586 444 443
3 444 587 445
3 585 587 444
3 584 588 441
3 441 588 446
3 448 446 588
3 448 588 589
3 591 590 451
3 591 451 450
3 443 451 586
3 586 451 590
3 589 592 448
3 448 592 452
3 454 452 592
3 454 592 593
3 595 594 460
3 595 460 459
3 450 460 591
3 591 460 594
3 593 596 454
3 454 596 461
3 596 598 597
3 462 596 597
3 461 596 462
3 599 463 462
3 599 462 597
3 463 599 600
3 601 463 600
3 464 463 601
3 464 602 465
3 601 602 464
3 459 465 595
3 595 465 602
3 597 598 603
3 603 598 604
3 606 599 605
3 599 603 605
3 599 597 603
3 599 606 600
3 609 608 607
3 607 610 609
3 612 611 468
3 468 611 467
3 469 607 608
3 612 469 608
3 468 469 612
3 613 610 607
3 469 613 607
3 471 613 469
3 471 473 613
3 613 473 614
3 616 615 476
3 476 615 475
3 476 467 611
3 476 611 616
3 617 614 473
3 617 473 479
3 619 618 481
3 618 479 481
3 618 617 479
3 619 620 618
3 482 475 621
3 475 622 621
3 475 615 622
3 621 484 482
3 485 619 481
3 485 486 619
3 486 620 619
3 486 623 620
3 621 622 624
3 624 622 625
3 624 488 484
3 624 484 621
3 626 623 486
3 626 486 489
3 489 490 626
3 626 490 627
3 624 625 628
3 628 625 629
3 628 492 488
3 628 488 624
3 630 627 490
3 630 490 494
3 631 494 495
3 631 630 494
3 495 496 631
3 631 496 632
3 629 633 628
3 628 633 492
3 633 497 492
3 633 634 497
3 497 635 498
3 634 635 497
3 635 637 636
3 499 635 636
3 498 635 499
3 636 500 499
3 638 632 496
3 638 496 501
3 501 502 638
3 638 502 639
3 637 640 636
3 504 500 636
3 641 504 636
3 640 641 636
3 504 641 642
3 643 642 641
3 644 639 502
3 644 502 505
3 505 506 644
3 644 506 645
3 646 507 642
3 642 507 504
3 642 643 647
3 642 647 646
3 648 645 506
3 648 506 508
3 508 509 648
3 648 509 649
3 650 510 646
3 646 510 507
3 646 647 651
3 646 651 650
3 653 652 511
3 653 511 512
3 509 511 649
3 649 511 652
3 650 514 510
3 655 654 516
3 655 516 514
3 651 655 514
3 650 651 514
3 656 654 655
3 517 653 512
3 517 657 653
3 654 519 516
3 656 658 654
3 658 519 654
3 658 522 519
3 523 522 658
3 523 658 659
3 661 660 524
3 661 524 525
3 517 524 657
3 657 524 660
3 663 526 662
3 526 659 662
3 526 523 659
3 664 663 662
3 528 666 665
3 661 528 665
3 525 528 661
3 666 667 665
3 669 529 668
3 529 526 668
3 668 526 663
3 670 668 663
3 663 664 670
3 529 669 531
3 532 671 666
3 532 666 528
3 667 666 672
3 672 666 671
3 669 668 535
3 668 533 535
3 668 673 533
3 669 535 531
3 536 671 532
3 674 672 671
3 536 674 671
3 538 674 536
3 538 540 674
3 674 540 675
3 678 677 676
3 673 678 676
3 542 673 676
3 533 673 542
3 679 675 540
3 679 540 544
3 544 546 679
3 679 546 680
3 683 682 681
3 683 681 677
3 677 681 676
3 681 548 676
3 548 549 676
3 676 549 542
3 550 685 684
3 680 550 684
3 546 550 680
3 685 686 684
3 681 682 553
3 682 552 553
3 682 687 552
3 681 553 548
3 554 685 550
3 554 556 685
3 556 686 685
3 556 688 686
3 691 690 689
3 693 692 689
3 689 692 691
3 687 692 693
3 558 687 693
3 552 687 558
3 560 688 556
3 560 694 688
3 689 690 563
3 690 562 563
3 690 695 562
3 689 563 564
3 689 564 693
3 693 564 558
3 566 697 696
3 694 566 696
3 560 566 694
3 697 698 696
3 695 568 562
3 699 568 695
3 569 697 566
3 701 700 571
3 571 700 569
3 700 698 569
3 698 697 569
3 699 573 568
3 702 573 699
3 575 701 571
3 702 578 573
3 703 578 702
3 705 580 704
3 580 703 704
3 580 578 703
3 707 706 705
3 707 705 704
3 708 706 707
3 711 710 709
3 713 712 709
3 713 709 710
3 705 582 580
3 582 705 583
3 583 705 706
3 584 583 706
3 708 584 706
3 714 584 708
3 711 709 585
3 586 711 585
3 715 711 586
3 585 709 587
3 587 709 712
3 714 716 584
3 584 716 588
3 589 588 716
3 589 716 717
3 719 718 590
3 719 590 591
3 586 590 715
3 715 590 718
3 717 720 589
3 589 720 592
3 593 592 720
3 593 720 721
3 724 723 722
3 594 595 722
3 723 594 722
3 725 594 723
3 591 594 719
3 719 594 725
3 721 726 593
3 593 726 596
3 728 727 598
3 596 728 598
3 726 728 596
3 730 729 727
3 730 727 728
3 601 600 729
3 730 601 729
3 731 601 730
3 722 602 724
3 602 731 724
3 602 601 731
3 602 722 595
3 732 604 727
3 727 604 598
3 605 732 606
3 732 729 606
3 732 727 729
3 606 729 600
3 734 733 609
3 609 733 608
3 609 610 734
3 734 610 735
3 737 736 612
3 612 736 611
3 612 608 733
3 612 733 737
3 738 735 610
3 738 610 613
3 740 739 614
3 739 613 614
3 739 738 613
3 740 741 739
3 743 742 616
3 616 742 615
3 616 611 736
3 616 736 743
3 617 740 614
3 744 741 740
3 617 744 740
3 618 744 617
3 618 620 744
3 744 620 745
3 748 747 746
3 742 748 746
3 622 742 746
3 615 742 622
3 623 745 620
3 623 749 745
3 747 750 746
3 622 746 750
3 751 622 750
3 625 622 751
3 752 749 623
3 752 623 626
3 626 627 752
3 752 627 753
3 755 629 754
3 629 751 754
3 629 625 751
3 757 756 755
3 757 755 754
3 758 756 757
3 759 753 627
3 759 627 630
3 761 759 760
3 759 631 760
3 759 630 631
3 632 760 631
3 755 633 629
3 633 755 634
3 634 755 756
3 758 762 756
3 762 634 756
3 762 635 634
3 764 763 637
3 635 764 637
3 762 764 635
3 766 765 763
3 766 763 764
3 768 767 765
3 768 765 766
3 769 767 768
3 770 761 760
3 770 760 632
3 638 770 632
3 771 770 638
3 638 639 771
3 771 639 772
3 763 640 637
3 640 763 641
3 641 763 765
3 641 765 643
3 765 773 643
3 765 767 773
3 767 769 774
3 767 774 773
3 775 772 639
3 775 639 644
3 644 645 775
3 775 645 776
3 779 778 777
3 777 780 779
3 781 647 773
3 773 647 643
3 773 774 782
3 773 782 781
3 783 776 645
3 783 645 648
3 648 649 783
3 783 649 784
3 777 778 785
3 785 778 786
3 780 777 787
3 787 777 785
3 788 651 781
3 781 651 647
3 781 782 789
3 781 789 788
3 791 790 652
3 791 652 653
3 649 652 784
3 784 652 790
3 786 792 785
3 785 792 787
3 788 655 651
3 794 793 656
3 794 656 655
3 789 794 655
3 788 789 655
3 795 793 794
3 798 797 796
3 797 791 796
3 791 657 796
3 791 653 657
3 793 658 656
3 659 658 793
3 795 659 793
3 799 659 795
3 798 796 660
3 661 798 660
3 800 798 661
3 660 796 657
3 799 801 659
3 659 801 662
3 664 662 801
3 664 801 802
3 803 800 661
3 803 661 665
3 665 667 803
3 803 667 804
3 806 805 670
3 670 805 668
3 670 664 802
3 670 802 806
3 672 808 807
3 804 672 807
3 667 672 804
3 808 809 807
3 812 811 810
3 805 812 810
3 673 805 810
3 668 805 673
3 674 808 672
3 814 813 675
3 675 813 674
3 813 809 674
3 809 808 674
3 814 815 813
3 810 811 678
3 811 677 678
3 811 816 677
3 810 678 673
3 679 814 675
3 679 680 814
3 680 815 814
3 680 817 815
3 819 818 683
3 683 818 682
3 683 677 816
3 683 816 819
3 680 684 820
3 821 680 820
3 817 680 821
3 686 820 684
3 824 823 822
3 818 824 822
3 687 818 822
3 682 818 687
3 825 821 820
3 820 686 825
3 686 826 825
3 686 688 826
3 827 690 691
3 823 828 822
3 828 691 822
3 691 692 822
3 691 828 827
3 822 692 687
3 694 826 688
3 694 829 826
3 830 695 827
3 827 695 690
3 827 828 831
3 827 831 830
3 832 829 694
3 832 694 696
3 696 698 832
3 832 698 833
3 834 699 830
3 830 699 695
3 830 831 835
3 830 835 834
3 836 833 698
3 836 698 700
3 838 837 834
3 837 699 834
3 837 702 699
3 838 834 835
3 840 703 839
3 703 837 839
3 703 702 837
3 842 841 840
3 842 840 839
3 843 841 842
3 846 845 844
3 848 847 844
3 848 844 845
3 840 704 703
3 704 840 707
3 707 840 841
3 708 707 841
3 843 708 841
3 849 708 843
3 846 844 710
3 711 846 710
3 850 846 711
3 710 844 713
3 713 844 847
3 852 714 851
3 714 849 851
3 714 708 849
3 853 852 851
3 856 855 854
3 855 850 854
3 850 715 854
3 850 711 715
3 852 716 714
3 858 857 717
3 858 717 716
3 853 858 716
3 852 853 716
3 859 857 858
3 862 861 860
3 860 861 856
3 860 856 854
3 719 860 854
3 718 719 854
3 718 854 715
3 857 720 717
3 864 863 721
3 864 721 720
3 859 864 720
3 857 859 720
3 866 865 863
3 866 863 864
3 868 867 865
3 868 865 866
3 870 869 867
3 870 867 868
3 723 724 869
3 870 723 869
3 871 723 870
3 860 725 862
3 725 871 862
3 725 723 871
3 725 860 719
3 863 726 721
3 726 863 728
3 728 863 865
3 728 865 730
3 730 865 867
3 730 867 731
3 731 867 869
3 731 869 724
3 873 872 734
3 734 872 733
3 875 874 735
3 874 734 735
3 874 873 734
3 875 876 874
3 878 877 737
3 737 877 736
3 737 733 872
3 737 872 878
3 738 875 735
3 879 876 875
3 738 879 875
3 739 879 738
3 739 741 879
3 879 741 880
3 882 881 743
3 743 881 742
3 743 736 877
3 743 877 882
3 741 744 883
3 884 741 883
3 880 741 884
3 745 883 744
3 885 747 748
3 886 885 748
3 742 886 748
3 881 886 742
3 887 884 883
3 883 745 887
3 745 888 887
3 745 749 888
3 885 750 747
3 751 750 885
3 886 751 885
3 889 751 886
3 749 752 890
3 891 749 890
3 888 749 891
3 753 890 752
3 889 892 751
3 751 892 754
3 754 893 757
3 892 893 754
3 758 757 893
3 758 893 894
3 897 896 895
3 898 895 896
3 899 891 890
3 901 899 900
3 900 899 759
3 899 890 759
3 890 753 759
3 761 900 759
3 894 902 758
3 758 902 762
3 762 903 764
3 902 903 762
3 895 766 897
3 766 903 897
3 766 764 903
3 898 904 895
3 904 766 895
3 904 768 766
3 906 905 769
3 768 906 769
3 904 906 768
3 901 900 907
3 906 908 905
3 907 900 761
3 770 907 761
3 909 907 770
3 911 909 910
3 909 771 910
3 909 770 771
3 772 910 771
3 912 774 905
3 905 774 769
3 905 908 913
3 905 913 912
3 914 911 910
3 914 910 772
3 775 914 772
3 915 914 775
3 775 776 915
3 915 776 916
3 919 918 917
3 778 779 917
3 779 919 917
3 779 920 919
3 779 780 920
3 920 780 921
3 922 782 912
3 912 782 774
3 912 913 923
3 912 923 922
3 776 783 924
3 925 776 924
3 916 776 925
3 918 926 917
3 924 783 784
3 786 778 917
3 927 786 917
3 926 927 917
3 786 927 928
3 927 921 928
3 921 787 928
3 921 780 787
3 929 789 922
3 922 789 782
3 922 923 930
3 922 930 929
3 925 924 790
3 791 925 790
3 931 925 791
3 790 924 784
3 928 792 786
3 792 928 787
3 929 794 789
3 795 794 929
3 930 795 929
3 932 795 930
3 934 933 797
3 934 797 798
3 791 797 931
3 931 797 933
3 936 799 935
3 799 932 935
3 799 795 932
3 937 936 935
3 800 934 798
3 800 938 934
3 936 801 799
3 802 801 936
3 937 802 936
3 939 802 937
3 940 938 800
3 940 800 803
3 803 804 940
3 940 804 941
3 943 942 806
3 806 942 805
3 806 802 939
3 806 939 943
3 944 941 804
3 944 804 807
3 807 809 944
3 944 809 945
3 947 946 812
3 812 946 811
3 812 805 942
3 812 942 947
3 948 945 809
3 948 809 813
3 813 815 948
3 948 815 949
3 952 951 950
3 946 952 950
3 816 946 950
3 811 946 816
3 817 949 815
3 817 953 949
3 950 951 819
3 951 818 819
3 951 954 818
3 950 819 816
3 821 953 817
3 821 955 953
3 956 823 824
3 957 956 824
3 818 957 824
3 954 957 818
3 821 825 958
3 959 821 958
3 955 821 959
3 826 958 825
3 960 828 956
3 956 828 823
3 956 957 961
3 956 961 960
3 962 959 958
3 958 826 962
3 826 963 962
3 826 829 963
3 964 831 960
3 960 831 828
3 960 961 965
3 960 965 964
3 966 963 829
3 966 829 832
3 832 833 966
3 966 833 967
3 968 835 964
3 964 835 831
3 964 965 969
3 964 969 968
3 833 836 970
3 971 833 970
3 967 833 971
3 972 837 838
3 835 968 838
3 968 972 838
3 968 973 972
3 968 969 974
3 968 974 973
3 977 976 975
3 975 976 971
3 970 975 971
3 978 975 970
3 972 839 837
3 839 972 842
3 842 972 973
3 843 842 973
3 974 843 973
3 979 843 974
3 977 975 845
3 846 977 845
3 980 977 846
3 845 975 848
3 848 975 978
3 982 849 981
3 849 979 981
3 849 843 979
3 983 982 981
3 986 985 984
3 985 980 984
3 980 850 984
3 980 846 850
3 982 851 849
3 853 851 982
3 983 853 982
3 987 853 983
3 990 989 988
3 988 989 986
3 988 986 984
3 856 988 984
3 855 856 984
3 855 984 850
3 987 991 853
3 853 991 858
3 993 992 859
3 858 993 859
3 991 993 858
3 995 994 992
3 995 992 993
3 997 996 994
3 997 994 995
3 999 998 996
3 999 996 997
3 1001 1000 998
3 1001 998 999
3 1000 1001 990
3 1000 990 988
3 862 1000 988
3 861 862 988
3 861 988 856
3 992 864 859
3 864 992 866
3 866 992 994
3 866 994 868
3 868 994 996
3 868 996 870
3 870 996 998
3 870 998 871
3 871 998 1000
3 871 1000 862
3 1002 872 873
3 874 1003 873
3 873 1003 1002
3 876 1003 874
3 1005 1004 878
3 878 1004 877
3 878 872 1002
3 1006 878 1002
3 1005 878 1006
3 1006 1002 1003
3 1006 1003 1007
3 1007 1003 876
3 879 1007 876
3 1008 1007 879
3 879 880 1008
3 1008 880 1009
3 1011 1010 882
3 882 1010 881
3 882 877 1004
3 882 1004 1011
3 884 1009 880
3 884 1012 1009
3 1010 886 881
3 1013 886 1010
3 884 887 1014
3 1015 884 1014
3 1012 884 1015
3 888 1014 887
3 1017 889 1016
3 889 1013 1016
3 889 886 1013
3 1019 1018 1017
3 1019 1017 1016
3 1020 1018 1019
3 1015 1014 1021
3 1015 1021 1022
3 891 1021 888
3 888 1021 1014
3 1017 892 889
3 892 1017 893
3 893 1017 1018
3 1024 1023 894
3 1024 894 893
3 1020 1024 893
3 1018 1020 893
3 1026 1025 1023
3 1026 1023 1024
3 896 897 1025
3 1026 896 1025
3 1027 896 1026
3 1021 1028 898
3 1027 1021 898
3 896 1027 898
3 1022 1021 1027
3 899 1029 891
3 1029 1021 891
3 1029 1028 1021
3 901 1029 899
3 1023 902 894
3 902 1023 903
3 903 1023 1025
3 903 1025 897
3 1028 904 898
3 904 1028 906
3 906 1028 1029
3 908 906 1030
3 1029 1030 906
3 1030 1029 1031
3 901 1031 1029
3 1031 901 907
3 1033 1031 1032
3 1031 909 1032
3 1031 907 909
3 911 1032 909
3 1035 913 1034
3 913 1030 1034
3 913 908 1030
3 1033 1032 1036
3 1034 1037 1035
3 1036 1032 911
3 914 1036 911
3 1038 1036 914
3 1040 1038 1039
3 1038 915 1039
3 1038 914 915
3 916 1039 915
3 1041 918 919
3 920 1042 919
3 919 1042 1041
3 921 1042 920
3 1043 923 1035
3 1035 923 913
3 1035 1037 1044
3 1035 1044 1043
3 1040 1039 1045
3 1040 1045 1046
3 925 1045 916
3 916 1045 1039
3 1041 926 918
3 926 1041 927
3 927 1041 1042
3 927 1042 921
3 1047 930 1043
3 1043 930 923
3 1043 1044 1048
3 1049 1043 1048
3 1047 1043 1049
3 1051 1050 1049
3 1051 1049 1048
3 1050 1051 1046
3 1045 1050 1046
3 1052 1050 1045
3 931 1052 925
3 925 1052 1045
3 1053 932 1047
3 1047 932 930
3 1054 1047 1049
3 1053 1047 1054
3 1055 1049 1050
3 1054 1049 1055
3 934 1055 933
3 1055 1052 933
3 1055 1050 1052
3 933 1052 931
3 1053 935 932
3 1053 1054 1056
3 937 1053 1056
3 1057 937 1056
3 1053 937 935
3 1056 1054 1055
3 1056 1055 1058
3 934 938 1055
3 938 1059 1055
3 1059 1058 1055
3 1059 938 1060
3 1060 1061 1059
3 1057 939 937
3 1062 939 1057
3 940 1060 938
3 940 941 1060
3 941 1061 1060
3 941 1063 1061
3 1065 1064 943
3 943 1064 942
3 943 939 1062
3 943 1062 1065
3 1066 1063 941
3 1066 941 944
3 944 945 1066
3 1066 945 1067
3 1069 1068 947
3 947 1068 946
3 947 942 1064
3 947 1064 1069
3 945 948 1070
3 1071 945 1070
3 1067 945 1071
3 949 1070 948
3 1072 951 952
3 1073 1072 952
3 946 1073 952
3 1068 1073 946
3 1074 1071 1070
3 1070 949 1074
3 949 1075 1074
3 949 953 1075
3 1076 954 1072
3 1072 954 951
3 1072 1073 1077
3 1072 1077 1076
3 955 1075 953
3 955 1078 1075
3 1079 957 1076
3 1076 957 954
3 1076 1077 1080
3 1076 1080 1079
3 959 1078 955
3 959 1081 1078
3 1082 961 1079
3 1079 961 957
3 1079 1080 1083
3 1079 1083 1082
3 1084 1081 959
3 1084 959 962
3 962 963 1084
3 1084 963 1085
3 1086 965 1082
3 1082 965 961
3 1082 1083 1087
3 1082 1087 1086
3 963 966 1088
3 1089 963 1088
3 1085 963 1089
3 967 1088 966
3 1091 1090 1086
3 1090 965 1086
3 1090 969 965
3 1091 1086 1087
3 1089 1088 1092
3 1089 1092 1093
3 971 1092 967
3 967 1092 1088
3 1090 974 969
3 1094 974 1090
3 1093 1092 976
3 977 1093 976
3 1095 1093 977
3 976 1092 971
3 1097 979 1096
3 979 1094 1096
3 979 974 1094
3 1098 1097 1096
3 1101 1100 1099
3 1100 1095 1099
3 1095 980 1099
3 1095 977 980
3 1097 981 979
3 983 981 1097
3 1098 983 1097
3 1102 983 1098
3 1105 1104 1103
3 1103 1104 1101
3 1103 1101 1099
3 986 1103 1099
3 985 986 1099
3 985 1099 980
3 1107 987 1106
3 987 1102 1106
3 987 983 1102
3 1109 1108 1107
3 1109 1107 1106
3 1111 1110 1108
3 1111 1108 1109
3 1113 1112 1110
3 1113 1110 1111
3 1115 1114 1112
3 1115 1112 1113
3 1117 1116 1114
3 1117 1114 1115
3 1116 1117 1105
3 1116 1105 1103
3 990 1116 1103
3 989 990 1103
3 989 1103 986
3 1107 991 987
3 991 1107 993
3 993 1107 1108
3 993 1108 995
3 995 1108 1110
3 995 1110 997
3 997 1110 1112
3 997 1112 999
3 999 1112 1114
3 999 1114 1001
3 1001 1114 1116
3 1001 1116 990
3 1118 1004 1005
3 1118 1005 1119
3 1005 1120 1119
3 1005 1006 1120
3 1121 1006 1007
3 1121 1120 1006
3 1123 1121 1122
3 1121 1008 1122
3 1121 1007 1008
3 1009 1122 1008
3 1124 1010 1011
3 1004 1118 1011
3 1118 1124 1011
3 1118 1125 1124
3 1118 1119 1126
3 1118 1126 1125
3 1127 1123 1122
3 1122 1009 1127
3 1009 1128 1127
3 1009 1012 1128
3 1129 1013 1124
3 1124 1013 1010
3 1130 1124 1125
3 1129 1124 1130
3 1125 1126 1131
3 1125 1131 1130
3 1015 1128 1012
3 1015 1132 1128
3 1129 1016 1013
3 1016 1129 1019
3 1019 1129 1130
3 1134 1133 1020
3 1134 1020 1019
3 1131 1134 1019
3 1130 1131 1019
3 1136 1135 1133
3 1136 1133 1134
3 1138 1137 1135
3 1138 1135 1136
3 1138 1132 1137
3 1132 1022 1137
3 1132 1015 1022
3 1133 1024 1020
3 1024 1133 1026
3 1026 1133 1135
3 1026 1135 1027
3 1027 1135 1137
3 1027 1137 1022
3 1139 1030 1031
3 1033 1139 1031
3 1139 1034 1030
3 1037 1034 1140
3 1034 1139 1140
3 1033 1036 1140
3 1033 1140 1139
3 1038 1141 1036
3 1036 1141 1140
3 1040 1141 1038
3 1142 1044 1140
3 1140 1044 1037
3 1143 1140 1141
3 1142 1140 1143
3 1046 1143 1040
3 1040 1143 1141
3 1142 1048 1044
3 1048 1142 1051
3 1051 1142 1143
3 1051 1143 1046
3 1144 1057 1056
3 1058 1145 1056
3 1056 1145 1144
3 1059 1146 1058
3 1058 1146 1145
3 1061 1146 1059
3 1147 1062 1144
3 1144 1062 1057
3 1148 1144 1145
3 1147 1144 1148
3 1149 1145 1146
3 1148 1145 1149
3 1063 1149 1061
3 1061 1149 1146
3 1151 1150 1065
3 1065 1150 1064
3 1151 1065 1062
3 1152 1151 1062
3 1147 1152 1062
3 1151 1152 1153
3 1154 1147 1148
3 1152 1147 1154
3 1155 1148 1149
3 1154 1148 1155
3 1066 1156 1063
3 1156 1149 1063
3 1156 1155 1149
3 1067 1156 1066
3 1157 1068 1069
3 1158 1157 1069
3 1064 1158 1069
3 1150 1158 1064
3 1153 1152 1159
3 1153 1159 1160
3 1161 1152 1154
3 1159 1152 1161
3 1162 1154 1155
3 1161 1154 1162
3 1156 1164 1163
3 1162 1156 1163
3 1155 1156 1162
3 1156 1067 1164
3 1067 1165 1164
3 1067 1071 1165
3 1166 1073 1157
3 1157 1073 1068
3 1157 1158 1167
3 1157 1167 1166
3 1160 1159 1168
3 1160 1168 1169
3 1170 1159 1161
3 1168 1159 1170
3 1171 1161 1162
3 1170 1161 1171
3 1162 1163 1172
3 1162 1172 1171
3 1071 1074 1173
3 1174 1071 1173
3 1165 1071 1174
3 1075 1173 1074
3 1175 1077 1166
3 1166 1077 1073
3 1166 1167 1176
3 1166 1176 1175
3 1169 1168 1177
3 1169 1177 1178
3 1179 1168 1170
3 1177 1168 1179
3 1180 1170 1171
3 1179 1170 1180
3 1171 1172 1181
3 1171 1181 1180
3 1182 1174 1173
3 1173 1075 1182
3 1075 1183 1182
3 1075 1078 1183
3 1184 1080 1175
3 1175 1080 1077
3 1175 1176 1185
3 1175 1185 1184
3 1186 1178 1177
3 1186 1177 1179
3 1186 1179 1187
3 1187 1179 1180
3 1187 1180 1188
3 1188 1180 1181
3 1081 1183 1078
3 1081 1189 1183
3 1190 1083 1184
3 1184 1083 1080
3 1184 1185 1191
3 1184 1191 1190
3 1081 1084 1192
3 1193 1081 1192
3 1189 1081 1193
3 1085 1192 1084
3 1194 1087 1190
3 1190 1087 1083
3 1190 1191 1195
3 1190 1195 1194
3 1196 1193 1192
3 1192 1085 1196
3 1085 1197 1196
3 1085 1089 1197
3 1198 1090 1091
3 1199 1198 1091
3 1199 1091 1087
3 1200 1199 1087
3 1194 1200 1087
3 1200 1194 1195
3 1093 1197 1089
3 1093 1201 1197
3 1202 1094 1198
3 1198 1094 1090
3 1198 1199 1203
3 1204 1198 1203
3 1202 1198 1204
3 1205 1204 1203
3 1208 1207 1206
3 1207 1201 1206
3 1201 1095 1206
3 1201 1093 1095
3 1202 1096 1094
3 1096 1202 1098
3 1202 1209 1098
3 1202 1204 1209
3 1204 1205 1210
3 1211 1204 1210
3 1209 1204 1211
3 1213 1212 1211
3 1213 1211 1210
3 1215 1214 1212
3 1215 1212 1213
3 1217 1216 1214
3 1217 1214 1215
3 1218 1216 1217
3 1221 1220 1219
3 1219 1220 1208
3 1219 1208 1206
3 1101 1219 1206
3 1100 1101 1206
3 1100 1206 1095
3 1222 1102 1209
3 1209 1102 1098
3 1223 1209 1211
3 1222 1209 1223
3 1224 1211 1212
3 1223 1211 1224
3 1225 1212 1214
3 1224 1212 1225
3 1226 1214 1216
3 1225 1214 1226
3 1216 1218 1227
3 1228 1216 1227
3 1226 1216 1228
3 1228 1227 1221
3 1228 1221 1219
3 1105 1228 1219
3 1104 1105 1219
3 1104 1219 1101
3 1222 1106 1102
3 1106 1222 1109
3 1109 1222 1223
3 1109 1223 1111
3 1111 1223 1224
3 1111 1224 1113
3 1113 1224 1225
3 1113 1225 1115
3 1115 1225 1226
3 1115 1226 1117
3 1117 1226 1228
3 1117 1228 1105
3 1229 1119 1120
3 1121 1230 1120
3 1120 1230 1229
3 1123 1230 1121
3 1231 1126 1229
3 1229 1126 1119
3 1230 1233 1232
3 1231 1230 1232
3 1229 1230 1231
3 1235 1233 1234
3 1234 1233 1127
3 1233 1230 1127
3 1230 1123 1127
3 1128 1234 1127
3 1236 1131 1231
3 1231 1131 1126
3 1231 1232 1237
3 1238 1231 1237
3 1236 1231 1238
3 1238 1237 1235
3 1234 1238 1235
3 1239 1238 1234
3 1132 1239 1128
3 1128 1239 1234
3 1236 1134 1131
3 1134 1236 1136
3 1136 1236 1238
3 1136 1238 1138
3 1138 1238 1239
3 1138 1239 1132
3 1240 1150 1151
3 1153 1240 1151
3 1241 1158 1240
3 1240 1158 1150
3 1160 1241 1153
3 1153 1241 1240
3 1242 1163 1164
3 1165 1242 1164
3 1243 1167 1241
3 1241 1167 1158
3 1169 1243 1160
3 1160 1243 1241
3 1244 1172 1242
3 1242 1172 1163
3 1174 1244 1165
3 1165 1244 1242
3 1245 1176 1243
3 1243 1176 1167
3 1178 1245 1169
3 1169 1245 1243
3 1246 1181 1244
3 1244 1181 1172
3 1182 1247 1174
3 1247 1244 1174
3 1247 1246 1244
3 1183 1247 1182
3 1248 1185 1245
3 1245 1185 1176
3 1186 1249 1178
3 1249 1245 1178
3 1249 1248 1245
3 1187 1250 1186
3 1186 1250 1249
3 1188 1251 1187
3 1187 1251 1250
3 1181 1246 1188
3 1246 1251 1188
3 1246 1252 1251
3 1253 1246 1247
3 1252 1246 1253
3 1189 1253 1183
3 1183 1253 1247
3 1254 1191 1248
3 1248 1191 1185
3 1255 1248 1249
3 1254 1248 1255
3 1256 1249 1250
3 1255 1249 1256
3 1257 1250 1251
3 1256 1250 1257
3 1258 1251 1252
3 1257 1251 1258
3 1259 1252 1253
3 1258 1252 1259
3 1193 1259 1189
3 1189 1259 1253
3 1260 1195 1254
3 1254 1195 1191
3 1261 1254 1255
3 1260 1254 1261
3 1262 1255 1256
3 1261 1255 1262
3 1263 1256 1257
3 1262 1256 1263
3 1264 1257 1258
3 1263 1257 1264
3 1265 1258 1259
3 1264 1258 1265
3 1196 1266 1193
3 1266 1259 1193
3 1266 1265 1259
3 1197 1266 1196
3 1267 1199 1200
3 1195 1260 1200
3 1260 1267 1200
3 1260 1268 1267
3 1269 1260 1261
3 1268 1260 1269
3 1270 1261 1262
3 1269 1261 1270
3 1271 1262 1263
3 1270 1262 1271
3 1272 1263 1264
3 1271 1263 1272
3 1273 1264 1265
3 1272 1264 1273
3 1274 1265 1266
3 1273 1265 1274
3 1201 1274 1197
3 1197 1274 1266
3 1267 1203 1199
3 1203 1267 1205
3 1267 1275 1205
3 1267 1268 1275
3 1276 1268 1269
3 1275 1268 1276
3 1277 1269 1270
3 1276 1269 1277
3 1278 1270 1271
3 1277 1270 1278
3 1279 1271 1272
3 1278 1271 1279
3 1280 1272 1273
3 1279 1272 1280
3 1208 1280 1207
3 1280 1274 1207
3 1280 1273 1274
3 1207 1274 1201
3 1275 1210 1205
3 1210 1275 1213
3 1213 1275 1276
3 1213 1276 1215
3 1215 1276 1277
3 1215 1277 1217
3 1217 1277 1278
3 1217 1278 1218
3 1278 1281 1218
3 1278 1279 1281
3 1221 1281 1220
3 1281 1280 1220
3 1281 1279 1280
3 1220 1280 1208
3 1281 1227 1218
3 1227 1281 1221