OFF
1109 2196 0
1.3541192909 6.6437180216 9.4581788703
1.4271750775 6.5596327538 9.0210409001
1.6417972966 6.1959407951 9.5843139884
1.5750177009 6.2396061841 9.8606118873
1.4500257578 6.7430752568 9.8696502376
1.8446024724 6.2834904379 10.1651201251
1.3769020392 7.0435946897 8.9308444936
1.6705654954 6.9540662718 8.4035170254
1.4693233690 6.7112173689 8.6863892573
1.3286299509 7.1767721273 9.4814857934
1.5172225892 7.2769729624 9.8946423791
1.6982679921 6.9010994268 10.1658721850
1.7070619455 7.5079371416 8.5899906342
1.4857109555 7.5963917079 9.1397422978
1.9206408633 7.9769352979 8.9530090661
1.4894510561 7.6031866126 9.5791348319
1.7493452458 7.9226454935 9.4276151789
2.2673475961 5.5843087352 8.7482745878
2.3682742767 5.8042240018 8.1316427716
2.7922367005 5.3089866441 8.3762249455
2.7361575991 5.0688299288 9.2106585880
1.9943970817 5.7780770793 9.5798376826
2.3600380592 5.3928758735 9.8245735341
1.9275904462 5.8324422068 9.9747435190
2.4308086194 5.6499805760 10.2482936514
1.8209663747 6.2660695925 8.6174386007
2.2154312690 6.2609123280 7.9175318450
1.7830211085 6.0030794290 9.9180258934
1.8891411081 6.2450460918 10.1344763458
1.9363615243 6.1260059833 10.0559926279
2.0849325996 6.0226084476 10.1989480681
2.0833718762 6.7283924150 7.9569659847
2.6006149936 6.9735656033 7.6426017367
2.4650299397 6.5025517658 7.6317694088
1.8181632473 7.2966505936 10.1886325356
2.0424322396 6.3778388140 10.3032878467
2.2303291037 6.8670255231 10.5045019135
2.1240807671 7.3164539289 8.0578406451
2.2368744313 7.8651498338 8.3765519796
2.4238244945 8.2680881125 8.7968122192
2.0609954666 7.5018381473 10.2911916544
1.8689585606 7.7499813159 9.9281211389
2.4087710745 8.3393855261 9.5820358037
3.2419574360 4.6342334858 9.4977810326
3.3480704026 4.6146837131 9.1224414335
3.6853926313 4.4135514872 9.3778315138
3.6954606608 4.4897138023 9.8206739732
2.8661912426 5.6234404433 7.8659582462
3.2743092852 5.9067088543 7.5622024274
3.5095771307 5.3319611020 7.9571940123
3.3927806548 4.8710446741 8.6300065236
3.0111376500 4.9791748584 9.9508625176
3.1567404571 5.3072183887 10.5041542649
2.6520773775 6.0647768048 7.6719645618
3.0118461345 6.4804323226 7.4585110687
2.2215075048 6.2862114938 10.4051046165
2.9075828223 6.0629883688 10.8217175257
3.3172963219 7.0755315807 7.4570185811
2.9968705763 6.9111985387 11.1915792729
2.8444272749 7.6612160949 7.8586073856
2.7766309512 8.2153751436 8.3482167142
3.5208334387 8.4436282567 8.0468285025
2.4747619151 7.9028783848 10.4410471692
2.8802383585 7.5905690075 11.0901713086
2.9866901715 8.2024005593 11.0170436438
3.2530415908 8.0395603748 11.5170285277
3.0314907142 8.7433288422 8.9261576668
3.1004907582 9.0129230772 9.7436313379
3.0625470823 8.7456985908 10.5580192505
3.3231695390 8.5438822720 11.3726330116
3.9603689681 4.4875913607 8.9619542792
4.3892285580 4.2251304494 9.5307241536
4.2900537589 4.3280345859 10.1626217266
3.8661297905 5.7626320672 7.5569507106
4.3325912449 5.4237833518 7.7609800836
4.3081651334 4.8533534934 8.3307547322
3.7267300875 4.7676659708 10.3956160198
3.7375660436 5.2644896874 10.9779449512
3.9339288153 6.4593990523 7.3390206258
4.3744929816 5.9122868083 7.4574082181
3.7305627125 5.8077584437 11.4467932699
3.5670130045 6.5187255722 11.7120112308
4.0029860661 5.9526364693 11.9648971278
4.1606761699 6.7764514908 13.1896742192
4.1179855060 6.4310896361 12.7696689142
4.3082312223 6.2080489780 13.1811258997
4.3988301169 6.4385614996 13.6511556111
4.0398575070 7.2916541355 7.3220828974
3.5526427336 7.6636589178 7.5789581107
4.0614375805 7.9455071798 7.4827831292
3.3814551038 7.4208392303 11.7246390894
3.9819926212 6.3570070282 12.3111324525
3.8535629073 7.0492992516 12.4607482269
4.0653364512 7.5451630843 13.1237930992
4.3456893111 7.1255283709 13.7772657526
4.1970151335 8.6516728192 7.6275260600
3.7355973016 8.2919211885 12.2579678409
4.1229803683 8.2631908292 13.2072590390
4.3006474509 7.8489427764 13.6997001320
3.6847859076 9.3745245188 8.7886820345
4.0977323206 9.3665475637 8.1205771899
3.4692965286 9.4284341002 9.4541463060
3.6160002030 9.6885551718 10.3085010201
3.6486085078 9.2924950214 11.4035386425
3.9452610697 9.3297556842 12.2929823412
4.1542473362 9.0182218206 13.0061213502
4.0756459412 9.9893557907 8.7591752770
3.9562540315 10.2587611797 9.6647719461
4.2248918197 10.5504577800 9.0604790416
3.8963725533 10.2018448545 10.2194176087
3.8892155638 10.1933771122 10.4926210348
3.9280816658 10.2127575932 10.9808896124
3.9870104872 10.4190069469 10.5485613584
4.0372752910 10.0511521527 11.9121877935
4.2470194686 9.8795281462 12.7353463959
4.2228475470 10.8168765008 9.4563146416
4.2796660715 11.1089422098 9.9548866421
4.1220553167 10.7780615853 10.5769239167
3.9941674767 10.4274746892 10.2753579323
4.2530496543 10.8581861613 11.5202148340
4.3059356099 11.2243095953 11.0200940828
4.3308085735 10.5471672425 12.3531462665
4.3632074487 11.3935469679 10.6249211627
4.8152402091 4.3552606908 8.8919168890
5.1856835068 4.0323098210 9.3924059412
5.1657084846 3.9116808915 10.1846654750
4.4926672885 4.5205376650 10.9200472933
5.2660195876 3.9051905026 11.2338168656
4.8877543950 4.4484646095 11.8155931751
5.3243462829 3.9353404752 11.9817557958
5.1404720800 4.6698318312 13.8178224273
5.1920541660 4.2934942080 13.0208565422
5.4903086610 3.9527784326 13.5280552311
5.8040027768 3.8465648039 14.4967858571
5.4023162175 4.6754728243 14.8667162952
5.7986249873 4.1920080899 15.2357416387
4.9574252181 5.1480675577 7.9417116341
5.2682699229 4.6747691495 8.3516155600
4.2992864289 5.2380968948 11.7641487918
5.1353869776 4.2592619728 12.4253875108
4.7906435093 4.9061158602 12.7039215819
4.6340985664 5.6999137926 13.5718414111
4.9963655224 5.5042218811 14.5690394126
5.7458120462 4.6647186452 15.6324129760
5.3471186640 5.3680460269 15.4003333678
5.7103408055 5.2797498681 15.9600384098
4.7184859333 6.3023556722 7.2979662775
5.0311850681 5.7228436313 7.5340421333
4.3097712073 5.8187078715 12.6118326636
4.6937226504 6.5530178607 14.3880440084
5.1162572125 6.2499093265 15.2780070163
5.5501851230 5.9795415481 15.9471054423
4.9131711312 7.1623581981 7.0772852694
4.4178835452 7.6164958352 7.2587835014
5.2890965419 6.2886148110 7.2297799462
4.6414869675 7.7738815962 14.4252825258
5.0350733141 7.2945269375 15.2329691047
5.4621737144 6.9113473003 15.9239946908
4.5986381178 8.1911596107 7.2418644998
5.2497986743 8.4918234377 6.7330547164
4.4530960973 8.6500838174 13.8427813659
4.8085907119 8.7233535195 14.5840425097
5.1209175762 8.3970741006 15.2219390222
5.5153686471 7.9548967845 15.9096053814
4.6996057225 9.4266770235 7.3767190256
5.2001976667 9.4941694642 6.6678356364
4.5305038656 9.6543403562 13.5431041943
4.7868232614 9.3826517475 14.2543898436
5.2487394378 9.5191523147 15.0031312890
5.8192583406 9.1660688458 15.9188881575
5.0939617420 10.3531821885 6.8699705110
5.4280611006 10.5514102552 6.3123378723
5.4222555406 9.9630567015 6.3192234298
4.7808862034 10.5849405163 7.6288228516
4.4316808946 10.3657799831 8.3285329984
3.9601816240 10.3347751441 10.3855573784
4.6209357056 10.5537437504 13.0964612480
5.0801951413 10.4508161630 14.1349057315
5.7267020518 10.5789813976 15.0779651511
5.8045986313 10.0032881219 15.5549352687
5.2714880937 11.0650177298 6.6679034999
5.0382043726 11.3967427214 7.3899205792
5.3613931781 11.8036389449 6.7979377900
4.7408751898 11.3695774105 8.3157161299
4.4658113878 11.2225527566 9.2116394704
4.5903146109 11.6810961303 11.3158722380
4.6339614231 11.2488295428 12.3275421816
5.1000851767 11.4678948643 13.2796437735
5.3839351427 11.3640270664 14.0265182787
5.6130764827 11.1543184357 14.5343215394
5.2080104527 12.2079927320 7.4248479494
5.4508647699 12.5496754643 7.0643837992
5.0457716160 12.3401693241 8.2199808377
4.8342194820 12.1881139192 9.1984870520
4.6451067701 11.9306807094 10.2300943842
5.0496209889 12.6007074681 11.1448505205
5.1230659130 12.2354550745 12.2410968944
5.6570790851 12.4749879534 13.2173753590
5.5207826549 11.9052736249 13.7545758867
5.3386680052 12.8969785044 7.7482679118
5.2691805631 13.1228634280 8.4263811800
5.1622392067 13.0287011184 9.0774828912
5.4361755463 13.5796163867 8.8658979736
5.1527047157 13.0015846200 10.1091267884
5.5675281811 13.4737157541 11.0958562912
5.4732183748 13.0703332215 11.8126692419
5.6688989535 12.9573014345 12.5007352476
5.4999425778 13.6985296570 9.5824256519
5.6157099114 13.7712605635 10.3460474831
5.6901143708 16.4279900631 4.5554924885
5.9760602102 16.3737311833 4.2852864935
5.8986996432 16.1036867976 4.4747955278
5.7975040409 16.1212423240 4.8673049671
5.7076457449 16.5803398324 4.8518409373
5.9507204766 16.2960166829 5.3050774193
5.7342299963 16.6409467626 4.5065509096
6.1666392891 16.5811280538 4.2378171755
5.8047357081 16.8112431333 4.8479545179
6.0229323350 16.7390864141 5.1281466641
5.8970140723 3.4090967724 10.7842497022
6.0123948687 3.4964214356 10.0030584638
6.7277774376 3.0487952403 10.2572772696
6.4184950034 2.9767135286 11.2412161126
5.8475095527 3.3811804232 11.8231141284
6.5881377406 2.7210015784 12.1636218803
6.0638158764 3.1534154205 12.7152873922
6.5481632896 2.7126088705 13.2619212647
6.0024053728 3.3163658480 13.6357473959
6.7347595639 2.7303611122 14.3461390604
6.2021974155 3.2482852740 14.3733659800
6.4993399494 3.2239331936 14.9556128038
5.7303909028 4.1445962642 8.8616172611
5.7401344380 3.7846760492 9.5367836432
5.5475491495 3.7430469904 12.7177227697
6.3675223306 3.7379326587 15.5080789826
5.9916054490 4.1881371503 15.6085037671
6.2691314868 4.2695644016 15.9663239192
5.7850598602 5.1331423673 7.8130166674
5.8652002728 4.5429578361 8.3273697545
6.1563354244 4.8615409161 16.2209830388
6.0929572942 5.6097083932 16.4128123154
6.7361127241 5.0238688745 16.6749188190
5.6632650290 5.8473052866 7.3682601441
6.0251071384 6.3607687132 6.9510869689
6.0628692105 5.6467898587 7.3676161066
5.9884201623 6.5096176135 16.4566107333
6.7633455206 6.0441264997 16.9114262397
5.8291538852 7.5677706858 6.5254225713
5.9614741508 7.4644643886 16.4383436072
6.4697800610 7.0085943010 16.7976695416
5.8989196129 8.3905581331 6.1755420125
6.4152337468 8.1462252317 5.8361508596
6.1950932128 7.8258031648 6.1545095118
6.0938773880 8.4221910064 16.4257653824
6.6243507177 7.8569123642 16.8096896960
6.1641691452 8.9944683393 5.7339297080
6.6488648409 9.3502021865 5.2240496444
6.6879871977 8.5651578590 5.4369814665
5.6191887528 9.2532730873 6.1990051047
6.2501249040 9.0403762211 16.4290626570
6.8075538581 8.8386243879 16.7412869507
5.9128822485 10.1485742982 5.7683066533
6.6328818017 10.4804310665 4.9855155589
6.0536552146 10.4583621105 15.5756264856
6.5157692584 10.2624200045 16.0054242437
6.5666678754 9.5468546712 16.4250574193
6.0738714013 11.3000867037 5.5752284482
6.4745427929 11.4824195064 5.0557798575
5.6078732918 11.2107273941 6.1843074040
5.8556874009 11.8754579829 14.3049249002
6.2703517646 11.5483220139 14.9764105901
6.4203496270 10.9574600035 15.5268659149
6.2157023951 12.0679417910 5.4486599670
5.8070453813 12.3688277022 6.2381014159
6.2512903744 12.9251817959 5.5325745083
5.8534311584 12.3366812834 13.8648407856
6.1722984421 12.4711641253 14.1942742978
6.4894549096 12.3372944952 14.6111954802
6.0157763139 13.6332887604 6.2367016997
6.2725545855 13.8912344013 5.5139994309
5.7201538198 13.4380306769 7.1888818064
5.5699481733 13.6272950513 8.1973636531
5.7470217928 13.5217963251 11.6887564173
5.9423760861 13.4939795102 12.1781958975
6.3625280117 13.4123538637 13.0262874329
6.2845196624 12.9060328404 13.7784427788
6.5637632769 12.8082964981 14.2833607255
6.1091560984 14.5819117704 5.9748435472
6.2172821109 14.6214346812 5.3889216723
6.1157076835 14.5742349868 6.8957088074
5.9939943404 14.3446737806 7.9295165801
5.8966961896 14.2392763835 8.9880293654
6.0118252400 14.2944357358 10.0241777228
6.0643815926 14.1524695511 10.8605136383
6.1530970594 13.9466915195 11.6578915606
6.4565416125 13.9051033410 12.3518508734
6.1162214223 15.6039850761 4.6896935283
6.4606483020 15.7740850589 4.2172901449
6.5747127074 15.1183277649 4.4121674348
6.3398890173 14.9050522092 4.9010472249
6.0733777566 15.4507769861 5.4301149936
6.2028233615 15.2583093101 6.2576259864
6.6067835550 15.5534372500 6.9170628196
6.4523508331 15.1027842987 7.6805043668
6.4527194970 14.9501200189 8.5885096710
6.6031080875 14.9231515291 9.6610554217
6.6279073430 14.7054242267 10.6400641844
6.6037650275 16.3039260615 4.1364648823
6.3592173611 16.0176609233 5.9819973990
6.2882773052 16.5378979631 5.5203034823
6.7842765577 16.6464815405 4.3498428463
6.7156225193 16.7996248609 5.2713618057
6.2303029116 16.9069100136 4.9886592933
7.1220948767 2.2541981757 12.8743897790
7.2410058686 2.2589500753 12.0511192935
7.8552671508 1.8631418317 12.4393129321
7.7058744189 1.8824426187 13.5033922975
7.0944274816 2.2759572506 13.7962009304
7.6053917672 2.0133510271 14.3189193837
7.1673933852 2.2886586251 14.3536034456
7.4231505409 2.3015551510 14.8164706325
6.4928334008 3.5995528914 9.2582773011
7.0809042211 3.6719419234 8.6448341911
7.5040972161 3.1264950906 9.1740057466
7.6852951582 2.5631513694 10.1300856113
7.1598179746 2.5099539811 11.1815669881
7.3305116456 2.7584027633 15.3637479891
6.8150940960 3.2248180939 15.4719549229
7.1517869136 3.3212545093 15.8884404310
6.5264127521 4.2868843712 8.2929392918
7.2069840724 4.3195118333 7.8021844790
7.1378127400 3.9407363707 8.2434551813
6.9038867557 3.8913614097 16.1910986420
6.6799296944 4.4317492509 16.4042463705
7.4602307831 4.2216336637 16.6879122270
6.6756939936 5.1873657329 7.3818955051
7.4009469359 5.1040040409 6.9505460816
7.2930742898 4.7130438010 7.3560384369
7.4764118566 5.0308791489 17.0506047250
6.9781539328 5.9459238638 6.6357170649
7.5112313296 6.2551786696 6.0836407415
7.6020289429 5.5576059174 6.4642611287
7.2221217588 5.6659939561 17.1497772992
7.1958311916 6.3882800916 17.1705480272
6.6729103396 7.1387589632 6.1479439489
7.4937186458 7.0262806228 5.6427791680
7.6672948691 6.7841298644 17.2856428493
7.2822639930 7.0995243802 17.1151772803
7.0169362017 7.8275593175 5.5353817773
7.3847901891 8.3809778309 5.0580640628
7.6236812392 7.5501871139 5.2809067642
7.4628975017 8.1392136974 17.0472551463
7.3707817330 9.4253072310 4.6493488077
7.6410389597 8.8901332078 16.9784109416
7.2400410934 10.3050860128 4.4524284594
7.7211830995 10.5202951950 4.0889586619
7.7075906853 9.8031155385 4.2615320375
6.9754330271 10.0306391660 16.4359832873
7.4115809381 9.6153501489 16.7259288950
7.0222876293 11.2853597753 4.5009521627
7.6947460971 11.5968534273 3.8764994173
6.9104077791 11.6052230844 15.4447272550
7.3340146901 11.2038548634 15.8839524217
7.6140207580 10.4450656376 16.4024685073
7.0892976882 12.3450101603 4.3581472392
7.4793117892 12.5378777228 3.9076445256
6.6030199386 12.2450491528 4.9356910122
7.5189252568 11.9051433402 15.5624503301
7.1561211034 12.2788533853 15.1042946689
7.1808933916 13.0346981091 4.2118581361
6.7129901198 13.3343793037 4.7943195597
7.1193558434 13.6174349024 4.2400888493
6.7057188930 13.3837325040 13.6486383038
6.9089870750 13.2491138138 14.0727722058
7.0963952147 12.8973347661 14.5866556082
6.8258442193 14.3202179164 4.4630554016
7.3399558050 14.8847702310 3.9413180724
7.3393807769 14.0364020586 3.9559456739
6.4563816863 14.2244977673 5.0278274377
6.6097877708 14.4654933084 11.3384819858
6.8802107402 14.3748023444 12.0249487587
7.0616587976 14.1188223680 12.7924204490
7.3568773098 13.7936978026 13.6206302064
7.5561850284 13.4087095210 14.3106577877
7.2190640496 15.7526029323 4.0105243081
6.8424443025 15.5502214723 7.5679734776
6.9573583612 15.4856137243 8.1820430041
7.0580027103 15.4008101936 9.0859603659
7.2069056485 15.3811454750 9.8049256147
7.2067364827 15.1915972024 10.4432810731
7.4338471920 14.9378367968 11.4236495997
7.6718048374 14.6180380396 12.4389066480
7.4832070371 16.2633453814 4.2247972552
6.7140428801 16.5037314526 5.8422830596
7.0491500035 16.2207089254 6.4646564018
7.5108493019 15.9341677026 7.5099442160
7.6606560468 15.7600361596 8.6995632040
7.6764343670 15.6440365406 9.5900274790
7.2856578899 16.7379962281 4.7545644871
6.7001184079 16.8752542506 4.7933352766
7.5077791262 16.7744670227 5.3374974126
7.3366508562 16.6229842642 5.8846532258
7.9931025584 2.1428066117 10.8254064781
8.3654328044 2.2206487024 10.0760350750
8.8927989265 1.8455456784 10.5067536516
8.3735881027 1.7825677560 11.5094109459
7.6870273705 2.0867394703 11.5970785350
8.7219133568 1.4655996228 12.3153141387
8.4440152244 1.5025820985 13.2416530345
8.3942708315 1.6069712328 14.2646274185
8.0809796258 1.9818684004 14.9644979716
7.7955791245 2.2921893645 15.2594051055
8.3856455761 2.2974195634 15.6449629054
7.6508524656 3.6795629293 8.2070399244
8.2977383106 3.6288743478 7.7913590746
8.3967877734 3.1404062234 8.4037946198
8.5048202449 2.5638636523 9.2654438485
7.9580439768 2.9891260924 16.1008198065
7.5644808318 3.5493298296 16.3638341523
8.3199770062 3.4920238707 16.6208265650
7.8671596103 4.3020527093 7.3561535530
8.4424968213 4.3872472923 6.8884659202
8.6187373029 3.8834988543 7.2900654485
8.6110579161 4.2464855726 17.0552229505
8.0131803947 4.9353087455 6.6751658846
8.1673319198 5.5132579468 6.1597837968
8.6484120604 4.7935834575 6.4268261041
8.1297568859 4.7887013112 17.2090291742
7.5856537167 5.1772718106 17.2048293912
8.2346801913 6.2591292021 5.6481412775
8.2348501694 7.0219531153 17.3175629605
8.0750308069 6.8056813873 17.3652531802
8.3879304810 6.8428839213 17.3798772800
8.0278372530 6.9939207895 5.3338127386
8.3326467165 7.4143246626 4.9885487992
8.5501030995 6.6409766434 5.2548840048
8.1401061292 7.6089725414 17.2164997878
8.2616901577 8.4143456119 4.5571522750
8.4960599998 8.3920612795 17.1615874076
8.0268374932 9.2035972194 4.3053017943
8.4160505298 9.5829534806 4.0177610691
8.5616336489 8.8253114858 4.2171210581
8.1908094812 9.2160151084 16.9806042862
8.5474187375 10.5936064963 3.6675221415
8.3680193814 9.8708630052 16.7749132915
8.3149099231 11.5370130908 3.4249793623
8.5821737239 11.9785773460 3.1062046311
8.9903511503 11.2352438645 3.2483028185
8.6952684188 10.5690380090 16.5049955219
8.2325676070 11.1065305722 16.1932836308
7.9960503183 12.4114009868 3.4167684102
8.5213114739 12.8077536771 2.8262621113
7.9430817423 12.3823790230 15.3892520788
8.3483654296 11.8308904602 15.8050619753
8.6131896632 13.6849932182 1.4986475708
8.6300155365 13.7155380789 1.4057607975
8.7547208439 13.4486364672 1.6628688434
8.6906042550 13.4998408536 1.8075234512
8.0401935878 13.2081630274 3.2444372531
8.3138370916 13.5312729242 2.9366522134
7.5645994838 13.2745664407 3.7603017221
8.7549039090 12.6129624468 15.3821963636
7.9964889771 13.0091381027 14.8785654177
8.5802316600 13.8357520575 1.3820219294
8.6407243193 13.8204981376 1.3819831062
8.6683328276 13.7542832777 1.6598345942
7.8846922615 13.9636695753 3.4425242460
8.4800356311 14.0321521805 3.0019919908
7.7381950207 14.3266438449 13.1170358573
8.1543084684 14.2238430446 13.5448254973
8.4568026165 13.7999558645 14.1833207586
8.6230373742 13.8716845393 1.4182056756
8.1698159050 14.5674184635 3.4695264835
8.4337346620 15.2841079430 3.8885534259
7.6205748391 15.5109598012 10.2014561382
7.8708386777 15.4151822037 10.8123157683
8.2242677764 15.3200635054 11.3916543987
8.4954859969 15.0491957748 12.0610392148
8.4900308093 14.6077402218 13.0015794403
8.3628413691 16.1055913639 4.3640659879
7.9529647592 16.5057959892 4.5870517998
8.6339237713 16.3752331905 4.8120479772
8.7510975666 16.2041160612 7.2865423495
7.9164438244 16.3935489909 6.5603453235
8.5104908752 15.9885040371 8.4016073713
8.4248379104 15.8328412951 9.4440602117
8.2214683267 15.6691467543 10.2607300641
8.5728947646 15.5640051246 10.9640167767
8.0586057425 16.6695682071 5.0717240575
8.1843017976 16.6271289819 5.7827869424
9.1829419702 1.1837493460 13.0335825229
9.3985288037 1.1937986095 12.3031473880
9.9318461424 0.9698480435 12.8383922439
9.7738713970 0.9724167523 13.6933390260
9.0575352976 1.2249234453 13.8858175102
9.6438127578 1.0701084583 14.4514083388
9.0985124756 1.3073713396 14.5773029514
9.5103885572 1.2564481689 14.9686281542
8.9059339036 2.1325057094 9.7118611556
9.3019525365 2.2735111828 9.1390482452
9.6092997264 1.8976762218 9.6724996871
9.9305918158 1.4722332317 10.4522064341
9.3181014918 1.4111193540 11.4486578851
8.9686706363 1.6438477545 15.1543409201
9.5899631587 1.9607997125 15.8917023733
8.9249684550 3.3904416788 7.7023753791
9.4946967435 2.7755296078 8.2698780631
8.9417779014 2.7413849702 16.3227991020
9.3489298465 3.3414362643 16.7934101475
9.0639795744 4.1355137902 6.8044882681
9.0698199876 3.6897413980 7.2490381073
9.7342319335 3.9123026881 17.0691604567
9.0526988702 5.2655857723 5.8849436276
9.1556353124 4.6004290656 6.3359974030
8.9157759004 4.5932475654 17.2712032292
9.5860135604 4.4754741029 17.2618714939
8.9187422337 6.0565038446 5.4108106774
9.2860397374 6.4609769576 5.0532592660
9.4800625311 5.6788342032 5.3963302499
8.9049660583 6.9521699002 17.3518797600
9.3896797638 4.6520465999 17.3405931227
9.3226554786 7.4222981594 4.5929125217
9.7283245322 6.7439189423 17.3177848088
9.3182555000 7.4497463134 17.2531811743
9.0135388900 8.2514017658 4.3030182823
9.2182936790 8.7403651976 4.0520220320
9.7798171570 7.9302032436 4.2222936003
9.1042693005 8.1111624196 17.2500167880
9.0572026992 8.5254748071 17.1962852419
9.3915014038 9.4991192620 3.7783413689
9.4732015030 8.4810717028 17.1570814099
9.1232671989 9.0361347631 17.0219569948
9.6227356065 10.3397009415 3.4836940422
9.2625172626 9.9405029330 16.7397734749
9.2656025093 12.0700064210 2.8180566942
9.8430033919 11.1124009123 3.1992589925
9.4940725780 10.4755216368 16.5061298677
9.2725634393 11.1652738777 16.1889334219
8.8971266490 13.0107561663 2.2057484798
9.0819849873 13.1986599478 1.9731057294
9.3637570213 12.7035175500 2.4053451836
9.4900913019 12.0366006949 15.7567210819
8.8090933286 13.5948868923 1.5754934143
9.0923712311 13.4955780860 1.9450477093
8.6889571988 13.5493084577 2.3579078980
9.7431981521 12.7847092635 15.2941961155
9.0481475527 13.2817699337 14.8710006797
8.7775264500 13.7623223672 1.5966970041
8.9415708149 13.7060625041 2.0633969919
9.0772673677 13.9041492004 2.7413166168
8.7462106283 14.4581214245 3.2746702936
9.5700268919 14.2765339078 3.4494655880
8.7402071154 14.3175472203 13.6184352924
9.3976094206 14.1790547612 13.8775914035
9.1788659885 14.5330960909 13.3280368615
9.3717367670 13.7532382786 14.4324074056
9.7902421006 15.0073017801 4.1303012799
8.7739677184 15.4027980512 11.5080238165
9.4289102725 15.3057394823 11.7465947550
9.1296146516 15.5555277671 11.1919180721
9.4691632649 14.8434202307 12.6617012996
9.3713242351 15.7791650350 4.6256525404
9.2517572664 16.2576029414 5.1668034202
8.6799766487 16.4394450525 6.4004274081
9.5372119304 16.2346394052 6.4859069246
8.9292065988 16.4911556221 5.9207168998
9.6531017100 16.1267753898 7.4376262645
9.4582893540 16.0413371251 8.2092132286
9.3467342121 15.8994207311 9.2320979367
9.2025762455 15.7205799381 10.4087640872
8.7589003485 16.5276390598 5.3697263143
10.4530695965 1.1775938974 10.7440947408
10.6506784743 1.2894334315 10.2782239561
11.0349204903 1.0576130991 10.7652861728
10.7018879518 1.0176639629 11.1940939792
10.0061152816 1.0655831973 11.9888861073
10.7992007578 0.8359554420 12.5592494856
10.5892559958 0.8161546956 13.5530330611
10.3864854647 0.9098315199 14.3872604378
10.1158380608 1.1270850555 15.0351867967
9.7321330278 1.4291533503 15.3935708182
10.4219076972 1.4353522780 15.6211256471
10.0935584993 2.1557301465 8.8815819402
10.7077918809 1.6478657460 9.5271154695
10.1378809215 1.1671440882 11.2252046150
10.6070129782 1.9204093492 16.1670667661
9.6206007616 3.5139239706 7.2270411628
10.4055819040 3.5809343140 6.8336603819
10.4951571930 3.0293750412 7.4823090588
10.6517534626 2.4645990305 8.1730042618
9.9741896553 2.5589259643 16.4885035520
10.5023864590 3.1832576487 16.8472240517
9.8373505172 4.2853021270 6.3418527498
10.5534314054 4.4800722574 5.8886182022
10.8503960138 3.9376289496 6.3306352310
10.6653008482 4.2712253622 17.1280900732
9.9794274746 5.0299161927 5.6520090003
10.1488538530 5.6718287061 5.1876229982
10.7990259915 4.9797206410 5.4579427706
10.1650216250 4.6455097220 17.2831959270
9.7027678875 4.6626476190 17.3421352386
10.2569499893 6.4358014038 4.7834751632
10.4515456591 6.4321209791 17.2212772372
10.2864048622 6.2862245533 17.2979081183
10.7254894499 5.7493391792 17.2371123300
10.3766865044 7.1531541374 4.4185227409
10.4850940470 7.1528038539 17.1079665138
10.2555656232 8.4706346211 3.9452293373
10.5283121116 7.6653598318 4.1624102214
9.5202681042 8.0667593154 17.2108129560
10.1348624975 8.2064082621 17.0119977665
10.4433460387 9.3995148415 3.6815255522
9.9649366031 9.3239963116 16.7970056573
10.7033728157 10.3478901967 3.4834210963
9.9146875514 10.0064225773 16.6131192195
10.4805957263 9.6404694019 16.5599017916
10.3206206038 10.4049257479 16.3328078276
10.0561414276 11.6832652487 3.0429471863
10.5332714298 11.1870283443 3.2775011389
10.3744201689 11.3352307777 15.9741785451
9.5467877877 13.0955817461 2.4389576241
9.9571026541 12.3789324462 2.8333412172
10.4856604641 12.1724423077 15.5931120747
9.3047962667 13.5573230861 2.3783035244
10.0905853560 12.9583023316 2.9297491829
9.7132514264 13.5261517667 2.8720958598
10.5276445229 13.2934358853 3.4237856750
10.7391249846 12.8948054158 15.0519753957
9.9361867010 13.4131684465 14.7568960872
10.7045807140 14.1797180725 4.0418642913
9.7642688405 14.5015885579 13.3447487709
10.2296092367 14.1811146219 13.7552994708
9.9445964625 13.8715079807 14.2667262120
10.7051230526 14.8837869927 4.5719161801
10.0560353543 15.3346612440 4.5193711054
10.4103114655 15.4629160181 4.9905368224
9.6020739225 15.5553754161 11.1574323278
10.0425919877 15.4009019911 11.4259958743
10.3882417254 15.0447122140 11.9655221495
10.4859018935 14.5661452777 12.9634009490
9.3363456423 16.3483107355 5.6717470151
10.0394630849 15.9598833712 5.6046130733
10.4020952050 15.9719038774 6.4822326293
10.3090555689 16.0052277347 7.2279472031
10.1511914547 15.9836545396 7.9600615324
10.3207361253 15.8239054808 8.8554424421
10.1384948844 15.7064978515 9.9474987329
10.0858743904 15.5671028710 10.8244917155
11.3185968095 1.2349593735 10.1252011893
11.8430296502 0.9907300248 10.8024253386
11.4279601091 0.8642235491 11.7083725041
10.5954646471 0.9617153953 11.7065720305
11.6695979515 0.7491917113 12.7439539463
11.4388265323 0.7431952687 13.4817719621
11.2369952127 0.8306721288 14.3196276221
10.9452892939 1.0660193091 15.0820440703
11.4125748871 1.4687867632 15.7652124697
10.8975547207 2.0445937303 8.7041724116
11.3979992571 2.2409280385 8.2773490526
11.7099658352 1.8434116072 8.8922616108
11.6599292522 1.4577556416 9.5720844827
11.3367082321 1.9933875350 16.2991747558
10.7928496456 2.4006152397 16.5442546507
11.4873927872 2.5668902473 16.6089516899
11.2292692309 3.3544178303 6.9045985262
11.5828932436 2.7337585589 7.6389322973
11.5041638638 3.4130839910 16.9017479046
11.3307989012 4.3744347835 5.8460191094
11.7968573536 3.8199413070 6.3580987649
11.6658758573 4.2112191318 17.0106294995
11.0638642993 5.6411131424 5.0306181271
11.7265779695 4.9508473990 5.3973399450
10.7460558220 5.0037562890 17.2177074730
11.4570569562 5.3140704381 17.0576170441
11.3092749559 6.4499041445 4.6014168389
11.1920346048 6.4413628354 17.0338464369
11.0464467373 7.1735380927 4.2824194217
11.1711872387 7.7287038077 4.0662740597
11.8019856973 7.0397851697 4.2925170806
11.2913479643 7.2434867425 16.8697921671
11.2791064102 8.5047850889 3.8555124334
11.1264490489 8.0793904596 16.7431365226
11.7185461645 7.6492416685 16.6307544505
11.6368957973 8.3519287482 16.4795081282
11.4574902633 9.3573960409 3.7005129853
10.7942050774 8.8631107636 16.6635823064
11.3344031666 9.4376014204 16.3024620267
11.6735899697 10.0815020010 3.6451825928
11.3105683866 10.5238586059 16.0063170702
10.6621037663 11.8314854160 3.2250753638
11.4058069447 11.0410192267 3.5426807575
11.3423125137 11.4930941154 15.6996534142
10.5476384015 12.5356713509 3.1834160441
11.3732362060 12.2275300111 3.6059371127
11.2060628951 12.2477803654 15.4098445000
11.6076200484 13.1935792922 4.0454999842
10.6909381995 13.6431416744 14.3141701986
11.4505956213 13.1512905444 14.5322669205
11.4223517638 13.6386156946 13.9578752412
11.5845862007 12.5691073633 15.0369126970
11.6877573027 13.9068793436 4.5087766104
11.1397691624 14.4035021321 4.4501391254
11.5306355592 14.4859433768 4.8632924416
10.9905650181 14.0895997578 13.5655960231
11.7676526448 13.9061329969 13.2522438129
11.2482066157 14.3484367046 12.9542428771
10.8613323361 15.5412440685 5.5820978841
11.3936876340 15.0069604190 5.3723775852
11.3849069566 15.3692502783 5.9774697585
10.9509428911 15.5293243942 9.6294921164
11.7318522697 15.2141825345 9.2523375031
11.1319089235 15.5832126661 8.8446029089
10.7861742726 15.4191900574 10.5367350582
11.4295889749 15.2051123349 10.1818975371
10.5654538010 15.3170834855 11.2304925095
11.3712141623 14.9392882554 11.2080194111
11.2051300401 14.6486820683 12.2862447180
10.9237015135 15.7080735082 6.1905208609
11.0082867461 15.7507751627 7.0139828505
10.9145413778 15.7501098988 7.9935676319
12.1604815593 1.2052741090 10.1029523676
12.6909504649 1.0278125008 10.7760558607
12.4766874435 0.8851157056 11.5831545230
12.3676789850 0.8070275178 12.5307964950
12.2500712695 0.7865900926 13.4596250960
11.9700997353 0.8200780086 14.1680492431
11.9295490776 1.0624758106 15.0094319487
12.1281613549 1.3758557988 15.6125087875
12.1991900975 2.2608334401 8.2304390389
12.7106690531 1.9192398030 8.8338835859
12.4626078493 1.5337012067 9.4743402006
12.2742011891 1.9057445770 16.0680929167
12.4238729877 2.8403681912 16.5948584359
12.2971876390 3.2921936656 6.9829918640
12.8736834991 2.7475111081 7.7266284490
12.2295456381 3.6710491408 16.8605843217
12.3141578845 4.3780953046 5.8764529440
12.8292654920 3.8744688222 6.4336870180
12.4185478328 4.5514261502 16.8637653227
12.0958987251 5.6422433637 4.9868320451
12.7466749870 5.0239867225 5.4380735826
12.2142543387 5.1000314757 16.9064213507
12.4977362460 5.0781482507 16.8358003316
12.3732801016 5.2323213198 16.8551368398
12.4341305020 6.3694922540 4.6236397594
12.1748264874 5.4142219610 16.8854217495
12.2153850721 6.0823391437 16.7780103498
12.0383651509 7.7311747972 4.0559549754
12.6877397378 7.0727517887 4.3313179841
12.0638763840 7.0333914670 16.6483847471
12.5775152495 6.6819087872 16.5254645206
12.4141194466 7.4982555960 16.3753273039
12.2150453711 8.5301520618 3.8974440378
12.3489549925 8.5504866566 16.1261923442
12.3528400813 9.3853822042 3.8218284653
12.3260448224 9.6740723080 15.8418902271
12.3846407132 10.2908493944 3.8088170680
12.0637248663 10.7447987659 15.6807095903
12.4339805414 11.2990937209 3.9161039658
12.0355640484 11.3473053889 15.5103821585
12.3783909911 11.0086036284 15.4534868106
12.4647548766 11.5019765950 15.1361048906
12.3231302260 12.2845538167 4.0875095893
11.8172620030 11.9282188119 15.3434342636
12.1480039011 12.2301327440 14.9426074568
12.5582669664 12.8487421755 4.4847650730
12.0740764274 13.3858844849 4.4165329986
12.4345869625 13.4683747664 4.7800694021
12.0291336047 12.7213040039 14.6067908829
12.1183011155 13.2000217214 13.9463829590
11.8993323243 14.5281085125 5.2836924899
12.3518008119 13.9996551701 5.2339911408
12.2290109742 14.5269506690 5.7886132225
11.9093228893 14.4347480476 11.9186035742
12.4046014274 14.1627074319 11.7763068245
12.3105576401 14.3962664200 11.2022467280
11.7101882033 14.3003954388 12.5809730697
12.3309986415 13.9497207566 12.4253113962
12.4294057886 13.5055687995 13.1773469196
11.5714255763 15.4122413257 6.6721807265
11.9487892720 15.0009855342 6.2423008716
11.6336345432 15.4257170691 7.5776490372
12.1918840253 15.0057229101 7.1550565935
11.5705720561 15.4274003474 8.3943180203
12.2252714504 15.0023020385 8.2593396675
12.4176872014 14.7837563467 9.1904578691
12.1740520742 14.7520833337 10.1792091740
12.9841302998 1.2844522141 10.1504392218
13.3135709601 1.1501441024 10.7656181138
13.2597301444 1.0418325865 11.4437993075
13.1734058956 0.9785429204 12.3544008115
13.0450639105 0.9674364697 13.3401519025
12.7576420339 1.0338622391 14.3681271111
12.6949556356 1.3688988043 15.3170415371
13.3546410539 1.4143047302 14.8841156691
12.9657412223 2.2635674106 8.3334648646
13.3946950929 2.0788586939 8.7838406632
13.5074544326 1.7248461625 9.5855211744
13.3593317036 1.8721037579 15.5886760069
13.0420087301 2.3345605876 16.1940142183
13.7234948412 2.5653855958 15.9673934216
13.5358338352 3.4790802290 7.0890111709
13.9355053557 2.9836776374 7.8088557787
13.6624635212 2.4640508656 8.3407680519
13.2113926922 2.8481432452 16.4073536658
13.0158056840 3.6076706931 16.6270969484
13.4759133675 4.5482578057 6.0349739408
13.5825001763 4.0117064278 6.5084158778
13.1736508439 4.4862673494 16.6003792289
13.2039707084 5.7654832324 5.0645130145
13.5918295492 5.2180128568 5.5337211047
12.4583083948 5.3923387360 16.8148007304
12.8194223637 5.2171751018 16.6960059102
13.3482618092 6.5923987793 4.6889723155
13.2340261504 6.5396864347 16.2094362790
12.7976066271 6.2817472559 16.5327352924
12.9899906971 5.8549906416 16.5227243266
12.8884983398 7.8031056347 4.1484883385
13.3873376597 7.2565792418 4.4344370865
13.1561071059 7.7286704727 15.9382581241
13.0556441499 8.6315235776 4.0666088114
13.0793236689 8.7049036992 15.7379877456
13.1295043965 9.5391533353 4.0476270643
13.1152686777 9.4365218898 15.5173789280
13.5783031284 8.9013114149 15.3833640731
13.5914926102 9.6123841380 15.1242121602
13.1408084216 10.4133921114 4.0872731360
12.8534356719 10.4393946616 15.3215812439
13.5577875206 10.4436042925 14.7876574910
13.2197683467 11.0373862974 4.2170911229
13.0191335002 11.7169598643 4.3041481381
13.6673356998 11.1846488028 4.5871380054
13.1347596792 11.2009321861 14.7346346966
13.5661514922 10.9768750578 14.4963103914
13.5184701153 11.5728305144 14.1049777994
12.8579483787 12.2685706818 4.3935399060
13.4473048065 12.1261737609 4.8620514835
12.7177606934 12.2442815078 14.3699060935
13.2720071792 12.3265315776 13.7273277846
12.7762464467 13.4991947161 5.1492517852
13.0561307826 13.0238440593 5.0741702956
13.1243641216 13.4352508581 5.5991136677
12.9908207035 13.7562809827 11.5635982318
13.7695609992 13.2345660065 11.0496069849
13.3889024055 13.7140113752 10.7080229119
12.9790783075 13.3203848683 12.6527343406
13.7079892809 12.8881420785 12.0827371600
12.8511195466 12.9213549247 13.5128962685
13.4479982420 12.6484842570 13.0599719248
12.6161453307 14.5178661739 6.6409790513
12.9128256265 13.9831569788 6.1019666927
12.8204765008 14.5058045229 7.6212106182
13.2685487105 13.9582933680 7.0355331636
12.9078989648 14.4507475371 8.6339228427
13.4317350670 13.9552295507 8.0581025359
12.9000003617 14.3535576963 9.6072287361
13.4518604661 13.9395825256 9.0725735911
12.8843917308 14.1640033603 10.5483939880
13.4119391140 13.8649920570 9.9823389568
13.6207294131 1.3920142548 10.4162948437
13.8356140732 1.3322519701 11.1508639280
13.8607376937 1.2934917509 12.0954909223
13.7809772129 1.2857645262 13.1037647366
13.6026809900 1.3182661092 14.0917569565
14.0773910673 2.1783364375 9.0400311519
14.3320415069 1.9854364370 9.7206489750
14.2716662908 1.7433747483 10.5404729388
14.4378880122 1.7330814876 11.6922903516
14.4032247630 1.7573888427 12.7971381895
14.2478941488 1.7654841842 13.8414556013
13.9959858750 1.8273290043 14.8289865326
14.0025958981 2.1782261792 15.4698287451
14.2311027489 2.6040081164 15.5647010736
14.1606447996 3.3609930166 7.4807737435
14.6952288732 3.3379561868 7.8605183409
14.7249088959 2.7225324670 8.6199767854
13.6246963501 3.2189215215 16.2920452203
14.1787948434 3.3141377915 15.8049383471
13.8955438358 4.2784432034 6.4042383466
14.1401785199 4.0862830551 6.7728197612
14.4979499366 3.7826567067 7.3217298372
13.7099566556 4.0076922823 16.2910446254
14.2751795665 4.3926026832 15.7674742892
13.9822320630 5.6712277151 5.3900965907
14.4240144633 5.3652990222 5.9761355273
14.3179787353 4.6194573227 6.4431585238
13.6289828508 5.2127219774 16.2367506679
14.3162226970 5.2538487288 15.6743176778
14.0157733833 6.2683862028 5.1016778351
14.4772548629 6.0116661553 5.5159135367
14.0739610358 6.0627078429 15.7341085106
14.5872778179 5.7320409074 15.2987443670
14.5371408982 6.5755126369 15.1621070260
13.6518923836 7.9359858263 4.3987290634
14.0988789049 7.1792028217 4.8358443470
13.8997734240 7.0945850792 15.6101867601
14.4185348558 7.6408980919 15.0090289960
13.7822832356 8.8545769999 4.3809854499
14.3467645383 8.2080096576 4.8171334789
13.7554971763 8.1175474768 15.4584370643
14.1768643011 8.8014874083 14.8947674286
13.7747974444 9.8042490124 4.3927287684
14.3937573064 9.2429702483 4.8497806675
14.0864576128 9.8297165612 14.5918773570
13.6541409259 10.5517437443 4.3891090013
14.2399570210 10.3563109562 4.8701065452
13.9716754569 10.7121974763 14.2260128253
14.4007742293 10.1569184923 14.0768149677
14.3851578771 10.6913552670 13.7355679957
14.1817472119 11.2878241459 5.1236159346
14.1069029487 11.3916502688 13.5192317690
14.5345482385 10.9878220754 13.2330617461
14.4279826839 11.5039060220 12.8933347768
14.1706170514 11.8847469175 5.4969828329
13.7929492769 12.6519219794 5.7453660295
14.2277070777 12.7280441558 6.6936218795
14.6363168274 11.8829079897 6.2907943710
14.6949519708 12.3090955508 7.0344413462
14.0437001187 12.1225902018 12.7966690745
14.4831321134 11.8135255994 12.3884162427
14.2718877415 12.2980536711 12.0608640367
13.7008608800 12.0458582261 13.4642244087
13.5920514304 13.3612176370 6.4174145371
14.4756051419 12.7245091493 7.3880197150
13.9553730089 13.3078567256 7.4555719050
13.9747011732 13.4217659779 8.5685005316
14.4779236194 12.8433326055 8.1495170058
13.9212315774 13.4326407855 9.5617863402
14.4409740603 12.8946953410 9.1397442305
13.7836047725 13.4466254782 10.3234121295
14.3096420732 12.8770538059 10.2350396820
14.3076748673 12.5647262863 11.2941197851
14.7304713638 2.2888625938 9.4055466216
14.9117928055 2.1691510731 10.1588249003
14.9896705130 2.1778446519 11.1603535800
15.0242479435 2.3875050023 12.4094460420
14.7692273087 2.3730758477 13.5813529071
14.5329730794 2.3325822960 14.5215666011
14.3403617048 2.3167231917 15.1505818054
15.3656439550 3.2962721612 8.3027269377
15.8000678863 2.9490913704 8.8811200839
15.4882591268 2.5645504375 9.6372034330
15.4740493037 2.4830375658 10.6006963297
15.6233888437 2.7959782733 11.5987508098
15.4791021696 3.0127086033 12.5734149078
15.5758164108 3.4663806257 13.0140319123
15.2249969391 3.1388485988 13.4227046948
14.8722115999 3.0628019595 14.3874904472
14.5449875227 2.8700012729 15.1460536648
14.9343022576 4.5356154654 7.0585028921
15.4959108409 4.0582443416 7.8562309260
15.4734146084 3.8225895709 13.5410577789
15.5279455136 4.5250785131 13.7565822982
15.1506754768 4.0141753380 14.2871055064
14.6900391991 3.7472341875 15.1362728873
14.9021186959 5.0887703787 6.6050182474
15.3548768773 5.2105097121 7.0186781865
15.7041196880 5.0020034814 7.5491464003
15.2365969457 4.9527307538 14.3748802132
15.5320339855 5.4416204098 13.8807783539
14.7949250992 4.8609849032 15.0779180513
14.6848291156 6.7105773352 5.3926234166
15.0260236043 6.2703564836 5.9559332428
15.3420820756 5.8102712337 6.6648064560
15.7696813017 5.6358140678 7.3149697919
15.0511658191 5.8785870771 14.6395449760
15.4819481343 6.4657107061 13.9037318371
14.8563782146 7.6280850199 5.3295437387
15.2841946202 7.1467862352 5.8880517388
15.0045252331 7.0623938746 14.4926028387
15.4307794387 7.5227118296 13.7731721249
14.9552040595 8.6386896817 5.3731880410
15.4266678246 8.0773585030 5.9298322578
14.9248988295 8.2833859461 14.2377419238
15.3995504230 8.3618842837 13.5533057513
14.9535153766 9.7507321829 5.5178862131
15.4565799634 9.0570040325 6.0412387648
15.1719739039 9.2089155890 13.4549464198
15.5523429211 8.7472712422 13.0495140349
15.4930099648 9.3122447010 12.7351579632
14.6247381985 9.4051146874 14.1635096390
14.7214992219 10.7317955600 5.5091532660
15.4158968907 9.8252165871 6.1575557017
15.1793272671 10.4625093572 6.0618357750
15.5226306239 10.2669405062 6.5887548791
15.3573939236 10.4991458376 11.8168126782
15.6772676759 10.0628436787 11.3006016494
15.5301142844 10.7162791617 10.9836185441
15.2286601300 10.0226967819 12.6820972953
15.5995734361 9.6775788035 12.0203971601
14.7718559891 10.2246589175 13.4367565861
14.5734251330 11.3940549684 5.6535064659
14.9232195481 11.1159348802 6.0200989926
15.2738969637 11.0333967598 6.7110880631
15.2778793409 11.7659467394 9.5289149995
15.5991651287 11.2523315945 9.1622784233
15.4069852052 11.6167918118 8.7601108773
15.5829357926 11.2207347738 9.7069705924
15.1472044641 11.2766671219 11.3732857196
15.3565185947 11.3081976940 10.6727466197
14.8540806442 11.0566586421 12.4541057167
14.8698054307 12.2989280706 7.7332468079
15.0857175739 11.7717008618 7.2050919123
14.9750765879 12.2450149773 8.7031971280
15.2948642679 11.7162396352 8.0424448992
14.8188315775 12.3821811204 9.6360316486
15.3893384422 11.4713987753 10.1522551007
14.9417633102 11.9778760368 10.5782976884
14.6941353170 11.8754042215 11.6969558447
16.4264548513 2.7521696057 9.4737072641
16.7944110505 2.7312110799 9.2494410613
16.9266080228 2.6771950339 9.4229296953
16.9765761655 2.9235459196 9.8205486842
16.0978797935 3.5577232503 8.4885495751
16.6490247600 3.0912988789 8.9962741412
16.2299109025 2.9299815486 10.5154936409
16.1699247179 3.4328644948 11.5684217547
16.5596724390 3.5235207175 11.0376890627
15.8180423700 3.4581339616 12.3659637100
16.3223527707 4.1921838054 8.3415257898
16.8710293437 3.8919592759 8.7743512137
16.4883186944 3.9481963426 11.5507978966
16.5831215646 4.6666795728 11.7082142420
16.1564632330 4.2162082702 12.2923550704
15.7608204870 4.0428774777 13.0519912928
16.2626877757 4.8278170399 8.1567453088
16.7661346281 4.5801055972 8.5924392201
16.2382143555 5.2624655563 12.4574212147
16.5842242283 5.5855984906 11.7631742879
15.8726101086 4.8908106266 13.1471429403
15.6385121621 6.7748067499 6.5585154999
16.0348644747 6.4365357552 7.4432049736
16.2772720862 5.6896667360 8.0046497956
16.2189421471 6.3626306153 12.3973430863
16.5201536401 6.3276383109 11.6469629631
15.8849490787 5.8981829430 13.2028776178
15.7383079864 7.5883253545 6.4291955077
16.1282200849 7.5213867305 7.2145945788
16.4385246810 6.4201827362 8.2704328817
16.4244560243 7.2057004440 8.2690142950
16.5247746945 7.5225080938 9.4566226132
16.6484172841 6.6482352261 9.0268418617
16.4443839582 7.4532710304 10.6458602956
16.7238806095 6.6786812100 10.0202585316
16.3019334445 7.1757425395 11.7203781695
16.6432637020 6.5766324133 10.9761882108
16.0462329845 7.2888786232 12.5402116822
15.8288564063 6.9322583294 13.1783005713
15.9657883434 8.5188417156 6.7863507538
16.3337252688 8.2509730281 7.3897355596
16.4657718760 7.9608982209 7.9193130859
16.5426858905 7.9496181610 8.6833118092
16.4995684134 8.2265271174 9.3241890418
16.4456589220 8.7209946128 9.3859175199
16.3043377658 8.5139094234 10.1715485513
16.1461801628 8.1918574087 11.3923779138
16.0274078556 7.9011404058 12.2186354918
15.7544226420 7.9563293041 12.9875929081
15.7587051896 9.5760142869 6.7156657964
16.3393206613 8.7414755970 7.4279755474
16.1612293257 9.3695427417 7.5077360910
16.4462439282 8.9878797900 7.8343361965
16.2279500130 9.4354127238 9.4981969299
16.4798484580 8.9739297832 8.9768443834
16.3978981227 9.3264960063 8.6947137676
16.1046203764 9.3210649649 10.3370490497
15.9435035558 9.2433244453 11.1571966615
15.8062494565 8.7497866252 12.2628482401
15.7617863376 10.3625442879 7.3961274255
16.3858158631 9.3240725310 8.1580863188
16.1133678443 9.9340050362 8.4339545799
15.8520661514 10.5644647500 9.4168514147
15.8749931543 10.0563187553 10.4352724176
15.4722590084 11.2037515073 7.5366049849
15.6887474414 10.9773882377 8.3881024901
15.6281736872 10.9181794315 10.2385685343
17.0831740208 2.8256325400 9.2385038615
17.2013867520 2.7559491072 9.4637587475
17.3825773714 3.0119510830 9.5854886207
17.2780804768 3.3720399898 9.1258569917
16.9292748061 3.4689927730 10.4698395454
17.4502404065 3.5679790882 9.9132290578
17.3398484249 3.9251309410 9.0299601535
17.2727484829 4.1317613124 10.4693629672
17.5485630158 4.1310863843 10.1202317156
16.8441704027 4.0916759771 11.0493437095
16.8417980019 5.3027474110 8.7501514822
17.3127102749 4.5386253242 9.0948812859
17.4939389696 4.6706403772 10.2361296700
17.3434835439 5.2247356814 10.3576070605
17.0305875491 5.0127699157 10.9367701461
16.6711428580 6.0301488940 8.6915981494
17.2793799022 5.2437134727 9.3847246790
16.9757814581 5.9162097375 9.4675540034
17.0149998078 5.8390982165 10.4420579441
17.3494999275 5.3950491951 9.9269141212
16.7816458092 5.8808966326 11.1922965436
16.5097218519 8.5332646045 7.8422869772
16.5775582841 8.3586191751 8.3181027390
16.5591386450 8.5062153085 8.8521375885
16.5377933761 8.8699611863 8.3756088179
17.3731978015 2.9640200159 9.3506908640
17.5481250881 3.3601735625 9.4520579880
17.5664010015 3.8811787167 9.2639843379
17.6628956656 3.7284354309 9.5987962924
17.6567129377 4.2190116322 9.8362784041
17.6304864116 4.3921876785 9.4586652060
17.5550808904 4.8255790934 9.7173164340
17.5156724495 5.0646777915 10.0826053165
3 2 1 0
3 4 3 0
3 0 3 2
3 4 5 3
3 8 7 6
3 8 6 1
3 6 0 1
3 6 9 0
3 11 4 10
3 4 9 10
3 4 0 9
3 4 11 5
3 7 12 6
3 14 13 12
3 13 6 12
3 13 9 6
3 10 9 15
3 15 9 13
3 14 16 13
3 13 16 15
3 19 18 17
3 21 20 17
3 17 20 19
3 23 22 21
3 21 22 20
3 23 24 22
3 17 18 25
3 25 18 26
3 25 1 2
3 21 25 2
3 17 25 21
3 3 27 2
3 27 28 2
3 29 2 28
3 2 29 21
3 30 21 29
3 21 30 27
3 27 23 21
3 3 23 27
3 27 30 28
3 28 30 5
3 30 24 5
3 23 3 5
3 23 5 24
3 33 32 31
3 33 31 26
3 26 31 25
3 31 7 25
3 7 8 25
3 25 8 1
3 11 10 34
3 28 35 29
3 35 28 36
3 28 5 36
3 11 34 36
3 11 36 5
3 32 37 31
3 31 37 7
3 37 12 7
3 37 38 12
3 14 12 38
3 14 38 39
3 41 40 34
3 10 41 34
3 15 41 10
3 34 40 36
3 39 42 14
3 14 42 16
3 15 16 41
3 41 16 42
3 45 44 43
3 43 46 45
3 49 48 47
3 18 19 47
3 19 49 47
3 19 50 49
3 20 43 44
3 50 20 44
3 19 20 50
3 51 46 43
3 20 51 43
3 22 51 20
3 22 24 51
3 51 24 52
3 47 48 53
3 53 48 54
3 53 26 18
3 53 18 47
3 29 55 30
3 55 56 30
3 56 24 30
3 56 52 24
3 53 54 33
3 54 32 33
3 54 57 32
3 53 33 26
3 35 55 29
3 35 36 55
3 36 56 55
3 36 58 56
3 57 59 32
3 32 59 37
3 59 61 60
3 38 59 60
3 37 59 38
3 60 39 38
3 41 62 40
3 58 36 63
3 36 62 63
3 62 64 63
3 36 40 62
3 64 65 63
3 61 66 60
3 60 66 39
3 66 42 39
3 66 67 42
3 41 42 62
3 42 68 62
3 42 67 68
3 62 68 64
3 64 68 69
3 64 69 65
3 71 70 45
3 45 70 44
3 45 46 71
3 71 46 72
3 73 48 49
3 73 49 74
3 49 75 74
3 49 50 75
3 50 44 70
3 50 70 75
3 76 72 46
3 76 46 51
3 51 52 76
3 76 52 77
3 79 78 73
3 78 48 73
3 78 54 48
3 79 73 74
3 56 81 80
3 77 56 80
3 52 56 77
3 81 82 80
3 85 84 83
3 83 86 85
3 88 57 87
3 57 78 87
3 57 54 78
3 89 88 87
3 58 90 81
3 58 81 56
3 82 81 91
3 81 92 91
3 81 90 92
3 91 92 84
3 92 83 84
3 92 93 83
3 86 83 94
3 94 83 93
3 88 59 57
3 61 59 88
3 89 61 88
3 95 61 89
3 63 90 58
3 90 63 65
3 96 90 65
3 92 90 96
3 98 93 97
3 93 96 97
3 93 92 96
3 93 98 94
3 66 61 99
3 61 100 99
3 61 95 100
3 101 67 66
3 101 66 99
3 102 68 67
3 102 67 101
3 103 69 68
3 103 68 102
3 96 65 69
3 103 96 69
3 104 96 103
3 97 96 105
3 105 96 104
3 100 106 99
3 108 107 106
3 107 99 106
3 107 101 99
3 110 102 109
3 102 107 109
3 102 101 107
3 112 111 110
3 111 102 110
3 111 103 102
3 103 113 104
3 103 111 113
3 105 104 114
3 114 104 113
3 108 115 107
3 115 116 107
3 116 117 107
3 118 109 107
3 118 107 117
3 120 119 117
3 119 111 117
3 112 118 117
3 112 117 111
3 111 119 113
3 113 119 121
3 113 121 114
3 116 122 117
3 117 122 120
3 124 123 71
3 71 123 70
3 126 125 72
3 125 71 72
3 125 124 71
3 128 127 126
3 126 127 125
3 128 129 127
3 132 131 130
3 134 133 130
3 130 133 132
3 134 135 133
3 137 136 75
3 75 136 74
3 75 70 123
3 75 123 137
3 76 126 72
3 126 76 77
3 138 126 77
3 128 126 138
3 129 128 139
3 128 140 139
3 128 138 140
3 139 140 131
3 140 130 131
3 140 141 130
3 130 142 134
3 130 141 142
3 135 134 143
3 134 144 143
3 134 142 144
3 144 145 143
3 146 78 79
3 147 146 79
3 74 147 79
3 136 147 74
3 80 138 77
3 138 80 82
3 148 138 82
3 140 138 148
3 148 84 85
3 141 148 85
3 140 148 141
3 141 85 86
3 149 141 86
3 142 141 149
3 142 150 144
3 142 149 150
3 145 144 151
3 151 144 150
3 153 87 152
3 87 78 152
3 152 78 146
3 154 152 146
3 146 147 154
3 87 153 89
3 91 148 82
3 148 91 84
3 94 155 149
3 94 149 86
3 149 156 150
3 149 155 156
3 151 150 157
3 157 150 156
3 153 152 158
3 158 152 159
3 158 95 89
3 158 89 153
3 97 160 98
3 155 94 98
3 160 155 98
3 161 155 160
3 155 162 156
3 155 161 162
3 157 156 163
3 163 156 162
3 158 159 164
3 164 159 165
3 164 100 95
3 164 95 158
3 105 166 160
3 105 160 97
3 160 167 161
3 160 166 167
3 161 168 162
3 161 167 168
3 163 162 169
3 169 162 168
3 172 171 170
3 172 170 165
3 170 164 165
3 170 173 164
3 174 106 100
3 164 174 100
3 173 174 164
3 174 108 106
3 109 175 110
3 175 112 110
3 114 176 166
3 114 166 105
3 166 177 167
3 166 176 177
3 179 168 178
3 168 177 178
3 168 167 177
3 168 179 169
3 171 180 170
3 182 181 180
3 181 170 180
3 181 173 170
3 173 183 174
3 173 181 183
3 184 115 108
3 174 184 108
3 183 184 174
3 118 175 109
3 116 115 184
3 112 175 118
3 119 120 185
3 186 121 119
3 186 119 185
3 176 114 121
3 186 176 121
3 187 176 186
3 189 177 188
3 177 187 188
3 177 176 187
3 177 189 178
3 181 182 190
3 190 182 191
3 181 192 183
3 181 190 192
3 183 193 184
3 183 192 193
3 194 122 116
3 184 194 116
3 193 194 184
3 185 120 122
3 194 185 122
3 195 185 194
3 185 196 186
3 185 195 196
3 198 187 197
3 187 196 197
3 187 186 196
3 187 198 188
3 191 199 190
3 190 199 192
3 192 199 200
3 202 201 200
3 201 192 200
3 201 193 192
3 193 203 194
3 193 201 203
3 205 195 204
3 195 203 204
3 195 194 203
3 195 205 196
3 196 205 206
3 196 206 197
3 202 207 201
3 201 207 203
3 203 207 208
3 203 208 204
3 211 210 209
3 213 212 209
3 209 212 211
3 213 214 212
3 209 210 215
3 215 210 216
3 218 213 217
3 213 215 217
3 213 209 215
3 213 218 214
3 221 220 219
3 223 222 219
3 219 222 221
3 225 224 223
3 223 224 222
3 227 226 225
3 225 226 224
3 229 228 227
3 227 228 226
3 229 230 228
3 232 231 124
3 124 231 123
3 125 219 220
3 232 125 220
3 124 125 232
3 219 125 127
3 219 127 223
3 223 127 129
3 233 223 129
3 225 223 233
3 233 131 132
3 227 233 132
3 225 233 227
3 227 132 133
3 227 133 229
3 235 234 135
3 135 234 133
3 234 230 133
3 230 229 133
3 235 236 234
3 238 237 137
3 137 237 136
3 137 123 231
3 137 231 238
3 139 233 129
3 233 139 131
3 143 235 135
3 240 239 145
3 145 239 143
3 239 236 143
3 236 235 143
3 240 241 239
3 244 243 242
3 237 244 242
3 147 237 242
3 136 237 147
3 151 245 240
3 151 240 145
3 241 240 246
3 246 240 245
3 242 243 154
3 243 152 154
3 243 247 152
3 242 154 147
3 157 248 245
3 157 245 151
3 246 245 249
3 249 245 248
3 252 251 250
3 247 252 250
3 159 247 250
3 152 247 159
3 163 253 248
3 163 248 157
3 249 248 254
3 254 248 253
3 257 256 255
3 257 255 251
3 255 250 251
3 255 258 250
3 258 165 159
3 258 159 250
3 169 259 253
3 169 253 163
3 254 253 260
3 260 253 259
3 255 256 261
3 261 256 262
3 261 171 172
3 258 261 172
3 255 261 258
3 258 172 165
3 178 263 179
3 263 264 179
3 179 264 169
3 264 265 169
3 265 259 169
3 259 265 260
3 261 262 266
3 266 262 267
3 268 180 171
3 261 268 171
3 266 268 261
3 268 182 180
3 188 269 189
3 269 270 189
3 189 270 178
3 270 271 178
3 271 263 178
3 263 271 264
3 267 272 266
3 274 273 272
3 273 266 272
3 273 268 266
3 273 191 182
3 273 182 268
3 197 275 198
3 269 188 198
3 275 269 198
3 276 269 275
3 270 269 277
3 277 269 276
3 273 274 278
3 278 274 279
3 280 199 191
3 273 280 191
3 278 280 273
3 281 200 199
3 281 199 280
3 281 202 200
3 204 282 205
3 283 206 205
3 283 205 282
3 283 284 206
3 206 284 197
3 284 285 197
3 285 275 197
3 275 285 276
3 276 285 286
3 276 286 277
3 278 279 287
3 287 279 288
3 278 289 280
3 278 287 289
3 280 290 281
3 280 289 290
3 291 207 202
3 281 291 202
3 290 291 281
3 292 208 207
3 292 207 291
3 292 293 208
3 208 293 204
3 293 294 204
3 294 282 204
3 282 294 283
3 283 294 295
3 283 295 284
3 298 297 296
3 300 299 296
3 296 299 298
3 299 300 288
3 300 287 288
3 300 301 287
3 303 289 302
3 289 301 302
3 289 287 301
3 289 303 290
3 290 303 304
3 290 304 291
3 291 304 305
3 291 305 292
3 292 305 306
3 292 306 293
3 296 297 211
3 297 210 211
3 297 307 210
3 296 211 212
3 296 212 300
3 301 300 308
3 300 214 308
3 214 309 308
3 214 300 212
3 301 308 302
3 307 216 210
3 310 216 307
3 312 311 218
3 312 218 217
3 214 218 309
3 309 218 311
3 315 314 313
3 317 316 313
3 313 316 315
3 319 318 317
3 317 318 316
3 319 320 318
3 323 322 321
3 220 221 321
3 221 323 321
3 221 324 323
3 325 221 222
3 325 324 221
3 224 313 314
3 325 224 314
3 222 224 325
3 313 224 226
3 313 226 317
3 317 226 228
3 317 228 319
3 327 326 230
3 230 326 228
3 326 320 228
3 320 319 228
3 327 328 326
3 331 330 329
3 331 329 322
3 322 329 321
3 329 231 321
3 231 232 321
3 321 232 220
3 234 327 230
3 333 332 236
3 236 332 234
3 332 328 234
3 328 327 234
3 333 334 332
3 337 336 335
3 337 335 330
3 330 335 329
3 335 237 329
3 237 238 329
3 329 238 231
3 239 333 236
3 239 241 333
3 241 334 333
3 241 338 334
3 341 340 339
3 341 339 336
3 336 339 335
3 339 243 335
3 243 244 335
3 335 244 237
3 246 343 342
3 338 246 342
3 241 246 338
3 339 340 344
3 344 340 345
3 344 247 243
3 344 243 339
3 347 346 343
3 246 347 343
3 249 347 246
3 350 349 348
3 350 348 345
3 345 348 344
3 348 251 344
3 251 252 344
3 344 252 247
3 254 347 249
3 254 351 347
3 348 349 257
3 349 256 257
3 349 352 256
3 348 257 251
3 260 351 254
3 260 353 351
3 356 355 354
3 352 356 354
3 262 352 354
3 256 352 262
3 264 357 265
3 357 358 265
3 358 260 265
3 358 353 260
3 354 355 359
3 359 355 360
3 359 267 262
3 359 262 354
3 270 361 271
3 361 362 271
3 271 362 264
3 362 363 264
3 363 357 264
3 357 363 358
3 359 360 364
3 364 360 365
3 366 272 267
3 359 366 267
3 364 366 359
3 366 274 272
3 368 367 361
3 270 368 361
3 277 368 270
3 361 367 362
3 365 369 364
3 371 370 369
3 370 364 369
3 370 366 364
3 370 279 274
3 370 274 366
3 284 372 285
3 373 286 285
3 373 285 372
3 373 374 286
3 374 277 286
3 374 368 277
3 377 376 375
3 377 375 371
3 375 370 371
3 375 378 370
3 378 288 279
3 378 279 370
3 293 379 294
3 380 295 294
3 380 294 379
3 380 381 295
3 295 381 284
3 381 382 284
3 382 372 284
3 372 382 373
3 373 382 383
3 373 383 374
3 375 376 298
3 376 297 298
3 376 384 297
3 375 298 299
3 375 299 378
3 378 299 288
3 302 385 303
3 386 304 303
3 386 303 385
3 387 305 304
3 387 304 386
3 305 387 388
3 389 305 388
3 306 305 389
3 293 306 379
3 306 390 379
3 306 389 390
3 379 390 380
3 380 390 391
3 380 391 381
3 384 307 297
3 392 307 384
3 309 393 308
3 393 394 308
3 308 394 302
3 394 395 302
3 395 385 302
3 385 395 386
3 386 395 396
3 386 396 387
3 387 396 397
3 387 397 388
3 399 310 398
3 310 392 398
3 310 307 392
3 311 312 399
3 398 311 399
3 400 311 398
3 309 311 393
3 311 401 393
3 311 400 401
3 393 401 394
3 404 403 402
3 406 405 402
3 402 405 404
3 314 315 406
3 315 405 406
3 315 407 405
3 408 315 316
3 408 407 315
3 409 316 318
3 409 408 316
3 411 410 320
3 410 318 320
3 410 409 318
3 411 412 410
3 415 414 413
3 322 323 413
3 323 415 413
3 323 416 415
3 324 402 403
3 416 324 403
3 323 324 416
3 402 324 325
3 402 325 406
3 406 325 314
3 326 411 320
3 418 417 328
3 328 417 326
3 417 412 326
3 412 411 326
3 418 419 417
3 422 421 420
3 422 420 414
3 414 420 413
3 420 330 413
3 330 331 413
3 413 331 322
3 332 418 328
3 332 334 418
3 334 419 418
3 334 423 419
3 426 425 424
3 426 424 421
3 421 424 420
3 424 336 420
3 336 337 420
3 420 337 330
3 338 428 427
3 423 338 427
3 334 338 423
3 424 425 341
3 425 340 341
3 425 429 340
3 424 341 336
3 428 338 342
3 432 431 430
3 435 434 433
3 429 435 433
3 345 429 433
3 340 429 345
3 430 431 346
3 347 430 346
3 436 430 347
3 433 434 350
3 434 349 350
3 434 437 349
3 433 350 345
3 351 436 347
3 351 438 436
3 441 440 439
3 437 441 439
3 352 437 439
3 349 437 352
3 353 438 351
3 353 442 438
3 439 440 356
3 440 355 356
3 440 443 355
3 439 356 352
3 358 442 353
3 358 444 442
3 447 446 445
3 443 447 445
3 360 443 445
3 355 443 360
3 449 448 363
3 449 363 362
3 358 363 444
3 444 363 448
3 445 446 450
3 450 446 451
3 450 365 360
3 450 360 445
3 368 452 367
3 452 453 367
3 453 362 367
3 453 449 362
3 456 455 454
3 454 457 456
3 450 451 458
3 458 451 459
3 460 369 365
3 450 460 365
3 458 460 450
3 460 371 369
3 462 461 452
3 368 462 452
3 374 462 368
3 452 461 453
3 454 455 463
3 463 455 464
3 457 454 465
3 465 454 463
3 458 459 466
3 466 459 467
3 466 376 377
3 460 466 377
3 458 466 460
3 460 377 371
3 381 468 382
3 382 468 469
3 470 382 469
3 383 382 470
3 374 383 462
3 462 383 470
3 464 471 463
3 463 471 465
3 467 472 466
3 376 466 472
3 473 376 472
3 384 376 473
3 388 474 389
3 475 390 389
3 475 389 474
3 390 475 476
3 477 390 476
3 391 390 477
3 381 391 468
3 391 478 468
3 391 477 478
3 468 478 469
3 480 392 479
3 392 473 479
3 392 384 473
3 481 480 479
3 483 482 395
3 483 395 394
3 395 484 396
3 482 484 395
3 396 485 397
3 484 485 396
3 388 397 474
3 397 486 474
3 397 485 486
3 474 486 475
3 475 486 487
3 475 487 476
3 480 398 392
3 481 488 480
3 488 398 480
3 488 400 398
3 400 489 401
3 488 489 400
3 394 401 483
3 483 401 489
3 492 491 490
3 494 493 490
3 490 493 492
3 496 495 494
3 494 495 493
3 496 497 495
3 500 499 498
3 403 404 498
3 404 500 498
3 404 501 500
3 502 404 405
3 502 501 404
3 407 490 491
3 502 407 491
3 405 407 502
3 490 407 408
3 490 408 494
3 494 408 409
3 494 409 496
3 503 497 496
3 409 503 496
3 410 503 409
3 410 412 503
3 503 412 504
3 506 505 415
3 415 505 414
3 416 498 499
3 506 416 499
3 415 416 506
3 498 416 403
3 507 504 412
3 507 412 417
3 417 419 507
3 507 419 508
3 510 509 422
3 422 509 421
3 422 414 505
3 422 505 510
3 423 508 419
3 423 511 508
3 513 512 426
3 426 512 425
3 426 421 509
3 426 509 513
3 423 427 514
3 515 423 514
3 511 423 515
3 518 517 516
3 512 518 516
3 429 512 516
3 425 512 429
3 432 430 519
3 514 520 515
3 516 517 435
3 517 434 435
3 517 521 434
3 516 435 429
3 523 522 519
3 430 523 519
3 436 523 430
3 526 525 524
3 521 526 524
3 437 521 524
3 434 521 437
3 438 528 527
3 523 438 527
3 436 438 523
3 524 525 441
3 525 440 441
3 525 529 440
3 524 441 437
3 531 530 528
3 438 531 528
3 442 531 438
3 529 443 440
3 532 443 529
3 444 531 442
3 444 533 531
3 535 534 447
3 447 534 446
3 447 443 532
3 447 532 535
3 537 536 448
3 537 448 449
3 444 448 533
3 533 448 536
3 540 539 538
3 534 540 538
3 451 534 538
3 446 534 451
3 453 537 449
3 453 541 537
3 542 455 456
3 543 542 539
3 456 539 542
3 539 456 538
3 457 538 456
3 538 457 544
3 544 459 451
3 544 451 538
3 546 545 461
3 546 461 462
3 453 461 541
3 541 461 545
3 547 464 542
3 542 464 455
3 465 544 457
3 544 465 548
3 547 548 465
3 548 547 543
3 542 543 547
3 467 459 544
3 549 467 544
3 548 549 544
3 467 549 550
3 551 550 549
3 554 553 552
3 470 469 552
3 553 470 552
3 555 470 553
3 462 470 546
3 546 470 555
3 547 471 464
3 471 547 465
3 550 472 467
3 473 472 550
3 551 473 550
3 556 473 551
3 559 558 557
3 477 476 557
3 558 477 557
3 560 477 558
3 552 478 554
3 478 560 554
3 478 477 560
3 478 552 469
3 556 561 473
3 473 561 479
3 481 479 561
3 481 561 562
3 565 564 563
3 482 483 563
3 564 482 563
3 566 482 564
3 482 567 484
3 566 567 482
3 484 568 485
3 567 568 484
3 485 569 486
3 568 569 485
3 557 487 559
3 487 569 559
3 487 486 569
3 487 557 476
3 562 570 481
3 481 570 488
3 563 489 565
3 489 570 565
3 489 488 570
3 489 563 483
3 573 572 571
3 571 574 573
3 576 575 492
3 492 575 491
3 577 492 493
3 577 576 492
3 578 493 495
3 578 577 493
3 580 579 497
3 579 495 497
3 579 578 495
3 580 581 579
3 583 582 500
3 500 582 499
3 501 571 572
3 583 501 572
3 500 501 583
3 584 574 571
3 501 584 571
3 502 584 501
3 502 491 575
3 502 575 584
3 503 580 497
3 503 504 580
3 504 581 580
3 504 585 581
3 588 587 586
3 505 506 586
3 506 588 586
3 506 589 588
3 506 499 582
3 506 582 589
3 590 585 504
3 590 504 507
3 507 508 590
3 590 508 591
3 594 593 592
3 594 592 587
3 587 592 586
3 592 509 586
3 509 510 586
3 586 510 505
3 511 591 508
3 511 595 591
3 598 597 596
3 598 596 593
3 593 596 592
3 596 512 592
3 512 513 592
3 592 513 509
3 515 600 599
3 595 515 599
3 511 515 595
3 596 597 518
3 597 517 518
3 597 601 517
3 596 518 512
3 600 515 520
3 604 603 602
3 601 521 517
3 605 521 601
3 602 603 522
3 523 602 522
3 606 602 523
3 608 607 526
3 526 607 525
3 526 521 605
3 526 605 608
3 523 527 609
3 610 523 609
3 606 523 610
3 607 529 525
3 611 529 607
3 610 609 530
3 531 610 530
3 612 610 531
3 611 532 529
3 613 532 611
3 616 615 614
3 615 612 614
3 612 533 614
3 612 531 533
3 618 617 535
3 535 617 534
3 535 532 613
3 535 613 618
3 616 614 536
3 537 616 536
3 619 616 537
3 536 614 533
3 620 539 540
3 621 620 540
3 534 621 540
3 617 621 534
3 541 619 537
3 541 622 619
3 623 543 620
3 620 543 539
3 620 621 624
3 625 620 624
3 623 620 625
3 626 625 624
3 628 627 545
3 628 545 546
3 541 545 622
3 622 545 627
3 623 548 543
3 548 623 549
3 549 623 625
3 551 549 625
3 626 551 625
3 629 551 626
3 554 630 553
3 553 630 631
3 632 553 631
3 555 553 632
3 546 555 628
3 628 555 632
3 634 556 633
3 556 629 633
3 556 551 629
3 635 634 633
3 559 636 558
3 558 636 637
3 638 558 637
3 560 558 638
3 554 560 630
3 560 639 630
3 560 638 639
3 630 639 631
3 634 561 556
3 641 640 562
3 641 562 561
3 635 641 561
3 634 635 561
3 564 565 640
3 641 564 640
3 642 564 641
3 564 643 566
3 642 643 564
3 566 644 567
3 643 644 566
3 567 645 568
3 644 645 567
3 568 646 569
3 645 646 568
3 559 569 636
3 569 647 636
3 569 646 647
3 636 647 637
3 640 570 562
3 570 640 565
3 649 648 573
3 573 648 572
3 651 650 574
3 650 573 574
3 650 649 573
3 575 576 651
3 576 650 651
3 576 652 650
3 653 576 577
3 653 652 576
3 654 577 578
3 654 653 577
3 655 578 579
3 655 654 578
3 579 581 655
3 655 581 656
3 659 658 657
3 582 583 657
3 583 659 657
3 583 660 659
3 583 572 648
3 583 648 660
3 584 651 574
3 651 584 575
3 585 662 661
3 656 585 661
3 581 585 656
3 662 663 661
3 665 664 588
3 588 664 587
3 589 657 658
3 665 589 658
3 588 589 665
3 657 589 582
3 590 662 585
3 590 591 662
3 591 663 662
3 591 666 663
3 668 667 594
3 594 667 593
3 594 587 664
3 594 664 668
3 595 666 591
3 595 669 666
3 671 670 598
3 598 670 597
3 598 593 667
3 598 667 671
3 595 599 672
3 673 595 672
3 669 595 673
3 670 601 597
3 674 601 670
3 673 672 604
3 602 673 604
3 675 673 602
3 678 677 676
3 674 678 676
3 605 674 676
3 601 674 605
3 606 675 602
3 606 679 675
3 676 677 608
3 677 607 608
3 677 680 607
3 676 608 605
3 683 682 681
3 682 679 681
3 679 610 681
3 679 606 610
3 680 611 607
3 684 611 680
3 683 681 685
3 683 685 686
3 612 685 610
3 610 685 681
3 684 613 611
3 687 613 684
3 686 685 615
3 616 686 615
3 688 686 616
3 615 685 612
3 689 617 618
3 690 689 618
3 613 690 618
3 687 690 613
3 619 688 616
3 619 691 688
3 692 621 689
3 689 621 617
3 689 690 693
3 689 693 692
3 622 691 619
3 622 694 691
3 692 624 621
3 626 624 692
3 693 626 692
3 695 626 693
3 698 697 696
3 627 628 696
3 697 627 696
3 699 627 697
3 622 627 694
3 694 627 699
3 701 629 700
3 629 695 700
3 629 626 695
3 702 701 700
3 705 704 703
3 703 704 698
3 703 698 696
3 631 703 696
3 632 631 696
3 632 696 628
3 701 633 629
3 707 706 635
3 707 635 633
3 702 707 633
3 701 702 633
3 708 706 707
3 711 710 709
3 713 712 709
3 713 709 710
3 715 714 712
3 715 712 713
3 638 637 714
3 715 638 714
3 716 638 715
3 703 639 705
3 639 716 705
3 639 638 716
3 639 703 631
3 706 641 635
3 708 717 706
3 717 641 706
3 717 642 641
3 642 718 643
3 717 718 642
3 643 719 644
3 718 719 643
3 709 645 711
3 645 719 711
3 645 644 719
3 645 709 646
3 646 709 712
3 646 712 647
3 647 712 714
3 647 714 637
3 721 720 649
3 649 720 648
3 722 649 650
3 722 721 649
3 723 650 652
3 723 722 650
3 724 652 653
3 724 723 652
3 725 653 654
3 725 724 653
3 726 654 655
3 726 725 654
3 655 656 726
3 726 656 727
3 729 728 659
3 659 728 658
3 730 659 660
3 730 729 659
3 660 648 720
3 660 720 730
3 731 727 656
3 731 656 661
3 661 663 731
3 731 663 732
3 734 733 665
3 665 733 664
3 665 658 728
3 665 728 734
3 666 732 663
3 666 735 732
3 737 736 668
3 668 736 667
3 668 664 733
3 668 733 737
3 669 735 666
3 669 738 735
3 740 739 671
3 671 739 670
3 671 667 736
3 671 736 740
3 743 742 741
3 742 738 741
3 738 673 741
3 738 669 673
3 739 674 670
3 744 674 739
3 745 743 741
3 741 673 745
3 673 746 745
3 673 675 746
3 748 747 678
3 678 747 677
3 678 674 744
3 678 744 748
3 751 750 749
3 750 746 749
3 746 679 749
3 746 675 679
3 747 680 677
3 752 680 747
3 751 749 682
3 683 751 682
3 753 751 683
3 682 749 679
3 752 684 680
3 754 684 752
3 686 753 683
3 686 755 753
3 754 687 684
3 756 687 754
3 688 755 686
3 688 757 755
3 756 690 687
3 758 690 756
3 761 760 759
3 760 757 759
3 757 691 759
3 757 688 691
3 758 693 690
3 762 693 758
3 761 759 763
3 761 763 764
3 694 763 691
3 691 763 759
3 766 695 765
3 695 762 765
3 695 693 762
3 767 766 765
3 769 768 697
3 769 697 698
3 763 699 764
3 699 768 764
3 699 697 768
3 699 763 694
3 766 700 695
3 771 770 702
3 771 702 700
3 767 771 700
3 766 767 700
3 772 770 771
3 775 774 773
3 777 776 773
3 777 773 774
3 704 705 776
3 777 704 776
3 778 704 777
3 698 704 769
3 769 704 778
3 770 707 702
3 780 779 708
3 780 708 707
3 772 780 707
3 770 772 707
3 782 781 779
3 782 779 780
3 784 783 781
3 784 781 782
3 710 711 783
3 784 710 783
3 785 710 784
3 710 786 713
3 785 786 710
3 773 715 775
3 715 786 775
3 715 713 786
3 715 773 716
3 716 773 776
3 716 776 705
3 779 717 708
3 717 779 718
3 718 779 781
3 718 781 719
3 719 781 783
3 719 783 711
3 788 787 721
3 721 787 720
3 789 721 722
3 789 788 721
3 790 722 723
3 790 789 722
3 791 723 724
3 791 790 723
3 792 724 725
3 792 791 724
3 794 792 793
3 792 726 793
3 792 725 726
3 727 793 726
3 795 728 729
3 795 729 796
3 729 797 796
3 729 730 797
3 730 720 787
3 730 787 797
3 798 794 793
3 800 798 799
3 799 798 731
3 798 793 731
3 793 727 731
3 732 799 731
3 802 801 734
3 734 801 733
3 734 728 795
3 803 734 795
3 802 734 803
3 803 795 796
3 804 800 799
3 799 732 804
3 732 805 804
3 732 735 805
3 807 806 737
3 737 806 736
3 737 733 801
3 737 801 807
3 738 805 735
3 738 808 805
3 810 809 740
3 740 809 739
3 740 736 806
3 740 806 810
3 743 811 742
3 811 812 742
3 812 738 742
3 812 808 738
3 809 744 739
3 813 744 809
3 811 743 745
3 816 815 814
3 815 816 746
3 816 812 746
3 811 745 746
3 811 746 812
3 818 817 748
3 748 817 747
3 748 744 813
3 748 813 818
3 814 815 750
3 751 814 750
3 819 814 751
3 750 815 746
3 817 752 747
3 820 752 817
3 753 819 751
3 753 821 819
3 820 754 752
3 822 754 820
3 825 824 823
3 824 821 823
3 821 755 823
3 821 753 755
3 822 756 754
3 826 756 822
3 825 823 827
3 825 827 828
3 757 827 755
3 755 827 823
3 830 758 829
3 758 826 829
3 758 756 826
3 831 830 829
3 834 833 832
3 832 833 828
3 832 828 827
3 761 832 827
3 760 761 827
3 760 827 757
3 835 762 830
3 830 762 758
3 830 831 836
3 830 836 835
3 834 832 837
3 834 837 838
3 764 837 761
3 761 837 832
3 835 765 762
3 840 839 767
3 840 767 765
3 836 840 765
3 835 836 765
3 841 839 840
3 844 843 842
3 846 845 842
3 846 842 843
3 848 847 845
3 848 845 846
3 847 848 838
3 847 838 837
3 769 847 837
3 768 769 837
3 768 837 764
3 839 771 767
3 850 849 772
3 850 772 771
3 841 850 771
3 839 841 771
3 852 851 849
3 852 849 850
3 854 853 851
3 854 851 852
3 856 855 853
3 856 853 854
3 858 857 855
3 858 855 856
3 857 858 844
3 857 844 842
3 775 857 842
3 774 775 842
3 774 842 777
3 777 842 845
3 777 845 778
3 778 845 847
3 778 847 769
3 849 780 772
3 780 849 782
3 782 849 851
3 782 851 784
3 784 851 853
3 784 853 785
3 785 853 855
3 785 855 786
3 786 855 857
3 786 857 775
3 859 787 788
3 789 860 788
3 788 860 859
3 790 861 789
3 789 861 860
3 791 862 790
3 790 862 861
3 792 863 791
3 791 863 862
3 794 863 792
3 865 864 797
3 797 864 796
3 797 787 859
3 866 797 859
3 865 797 866
3 866 859 860
3 866 860 867
3 867 860 861
3 867 861 868
3 868 861 862
3 868 862 869
3 869 862 863
3 869 863 870
3 870 863 794
3 798 870 794
3 871 870 798
3 798 800 871
3 871 800 872
3 873 801 802
3 873 802 874
3 802 875 874
3 802 803 875
3 803 796 864
3 803 864 875
3 800 804 876
3 877 800 876
3 872 800 877
3 805 876 804
3 878 806 807
3 879 878 807
3 879 807 801
3 880 879 801
3 873 880 801
3 880 873 874
3 877 876 881
3 877 881 882
3 808 881 805
3 805 881 876
3 883 809 810
3 884 883 810
3 884 810 806
3 885 884 806
3 878 885 806
3 885 878 879
3 882 881 886
3 882 886 887
3 812 886 808
3 808 886 881
3 889 888 883
3 888 809 883
3 888 813 809
3 889 883 884
3 892 891 890
3 890 891 887
3 890 887 886
3 814 890 886
3 816 814 886
3 816 886 812
3 893 817 818
3 894 893 818
3 813 894 818
3 888 894 813
3 892 890 895
3 892 895 896
3 819 895 814
3 814 895 890
3 897 820 893
3 893 820 817
3 893 894 898
3 893 898 897
3 896 895 899
3 896 899 900
3 821 899 819
3 819 899 895
3 901 822 897
3 897 822 820
3 897 898 902
3 897 902 901
3 900 899 824
3 825 900 824
3 903 900 825
3 824 899 821
3 904 826 901
3 901 826 822
3 901 902 905
3 901 905 904
3 908 907 906
3 907 903 906
3 903 828 906
3 903 825 828
3 904 829 826
3 831 829 904
3 905 831 904
3 909 831 905
3 912 911 910
3 910 911 908
3 910 908 906
3 834 910 906
3 833 834 906
3 833 906 828
3 914 836 913
3 836 909 913
3 836 831 909
3 916 915 914
3 916 914 913
3 917 915 916
3 920 919 918
3 918 919 912
3 910 918 912
3 921 918 910
3 838 921 834
3 834 921 910
3 914 840 836
3 840 914 841
3 914 922 841
3 914 915 922
3 915 917 923
3 924 915 923
3 922 915 924
3 926 925 924
3 926 924 923
3 928 927 925
3 928 925 926
3 930 929 927
3 930 927 928
3 843 844 929
3 930 843 929
3 931 843 930
3 918 846 920
3 846 931 920
3 846 843 931
3 846 918 848
3 848 918 921
3 848 921 838
3 922 850 841
3 850 922 852
3 852 922 924
3 852 924 854
3 854 924 925
3 854 925 856
3 856 925 927
3 856 927 858
3 858 927 929
3 858 929 844
3 932 864 865
3 866 933 865
3 865 933 932
3 867 934 866
3 866 934 933
3 868 935 867
3 867 935 934
3 869 936 868
3 868 936 935
3 870 937 869
3 869 937 936
3 871 938 870
3 870 938 937
3 872 938 871
3 940 939 875
3 875 939 874
3 875 864 932
3 941 875 932
3 940 875 941
3 941 932 933
3 941 933 942
3 942 933 934
3 942 934 943
3 943 934 935
3 943 935 944
3 946 945 944
3 935 946 944
3 936 946 935
3 947 936 937
3 946 936 947
3 948 937 938
3 947 937 948
3 877 948 872
3 872 948 938
3 949 879 880
3 950 949 880
3 874 950 880
3 939 950 874
3 951 945 946
3 953 952 951
3 946 953 951
3 947 953 946
3 954 947 948
3 953 947 954
3 882 954 877
3 877 954 948
3 955 884 885
3 879 949 885
3 949 955 885
3 949 956 955
3 949 950 957
3 949 957 956
3 952 953 958
3 952 958 959
3 960 953 954
3 958 953 960
3 887 960 882
3 882 960 954
3 961 888 889
3 962 961 889
3 962 889 884
3 963 962 884
3 955 963 884
3 963 955 956
3 963 956 964
3 964 956 957
3 959 958 965
3 959 965 966
3 892 965 891
3 965 960 891
3 965 958 960
3 891 960 887
3 967 894 961
3 961 894 888
3 961 962 968
3 961 968 967
3 966 965 969
3 966 969 970
3 896 969 892
3 892 969 965
3 971 898 967
3 967 898 894
3 967 968 972
3 967 972 971
3 970 969 973
3 970 973 974
3 900 973 896
3 896 973 969
3 975 902 971
3 971 902 898
3 971 972 976
3 971 976 975
3 979 978 977
3 977 978 974
3 973 977 974
3 980 977 973
3 903 980 900
3 900 980 973
3 981 905 975
3 975 905 902
3 975 976 982
3 983 975 982
3 981 975 983
3 984 983 982
3 987 986 985
3 989 988 985
3 989 985 986
3 988 989 979
3 977 988 979
3 990 988 977
3 908 990 907
3 990 980 907
3 990 977 980
3 907 980 903
3 991 909 981
3 981 909 905
3 992 981 983
3 991 981 992
3 983 984 993
3 983 993 992
3 996 995 994
3 997 994 995
3 987 985 998
3 987 998 999
3 1000 985 988
3 998 985 1000
3 912 1000 911
3 1000 990 911
3 1000 988 990
3 911 990 908
3 991 913 909
3 913 991 916
3 916 991 992
3 1002 1001 917
3 1002 917 916
3 993 1002 916
3 992 993 916
3 1004 1003 1001
3 1004 1001 1002
3 1003 1004 996
3 994 1003 996
3 1005 1003 994
3 994 997 1006
3 1007 994 1006
3 1005 994 1007
3 1007 1006 999
3 998 1007 999
3 1008 1007 998
3 920 1008 919
3 1008 1000 919
3 1008 998 1000
3 919 1000 912
3 1001 923 917
3 923 1001 926
3 926 1001 1003
3 926 1003 928
3 928 1003 1005
3 928 1005 930
3 930 1005 1007
3 930 1007 931
3 931 1007 1008
3 931 1008 920
3 1011 1010 1009
3 1009 1012 1011
3 1013 939 940
3 1010 1014 1009
3 1014 940 1009
3 940 941 1009
3 940 1014 1013
3 1015 1012 1009
3 941 1015 1009
3 942 1015 941
3 1017 1015 1016
3 1015 943 1016
3 1015 942 943
3 944 1018 943
3 943 1018 1016
3 945 1018 944
3 1019 950 1013
3 1013 950 939
3 1013 1014 1020
3 1013 1020 1019
3 1021 1017 1016
3 1023 1022 1021
3 1016 1023 1021
3 1018 1023 1016
3 951 1024 945
3 1024 1018 945
3 1024 1023 1018
3 952 1024 951
3 1026 1025 1019
3 1025 950 1019
3 1025 957 950
3 1026 1019 1020
3 1022 1023 1027
3 1022 1027 1028
3 1029 1023 1024
3 1027 1023 1029
3 959 1029 952
3 952 1029 1024
3 1030 962 963
3 964 1031 963
3 963 1031 1030
3 1032 1031 964
3 957 1032 964
3 1025 1032 957
3 1028 1027 1033
3 1028 1033 1034
3 1035 1027 1029
3 1033 1027 1035
3 966 1035 959
3 959 1035 1029
3 1036 968 1030
3 1030 968 962
3 1037 1030 1031
3 1036 1030 1037
3 1031 1032 1038
3 1039 1031 1038
3 1037 1031 1039
3 1041 1040 1039
3 1041 1039 1038
3 1043 1042 1040
3 1043 1040 1041
3 1045 1044 1042
3 1045 1042 1043
3 1044 1045 1034
3 1033 1044 1034
3 1046 1044 1033
3 1047 1033 1035
3 1046 1033 1047
3 970 1047 966
3 966 1047 1035
3 1048 972 1036
3 1036 972 968
3 1037 1050 1049
3 1048 1037 1049
3 1036 1037 1048
3 1050 1037 1039
3 1050 1039 1051
3 1051 1039 1040
3 1051 1040 1052
3 1054 1053 1052
3 1040 1054 1052
3 1042 1054 1040
3 1055 1042 1044
3 1054 1042 1055
3 1056 1044 1046
3 1055 1044 1056
3 1057 1046 1047
3 1056 1046 1057
3 974 1057 970
3 970 1057 1047
3 1058 976 1048
3 1048 976 972
3 1048 1049 1059
3 1060 1048 1059
3 1058 1048 1060
3 1061 1060 1059
3 1064 1063 1062
3 1062 1063 1053
3 1054 1062 1053
3 1065 1062 1054
3 1066 1054 1055
3 1065 1054 1066
3 1067 1055 1056
3 1066 1055 1067
3 979 1067 978
3 1067 1057 978
3 1067 1056 1057
3 978 1057 974
3 1058 982 976
3 982 1058 984
3 1058 1068 984
3 1058 1060 1068
3 1060 1061 1069
3 1070 1060 1069
3 1068 1060 1070
3 1070 1069 1064
3 1062 1070 1064
3 1071 1070 1062
3 1072 1062 1065
3 1071 1062 1072
3 987 1072 986
3 1072 1066 986
3 1072 1065 1066
3 986 1066 989
3 989 1066 1067
3 989 1067 979
3 1073 993 1068
3 1068 993 984
3 1074 1068 1070
3 1073 1068 1074
3 996 1074 995
3 1074 1071 995
3 1074 1070 1071
3 995 1071 997
3 1071 1075 997
3 1071 1072 1075
3 999 1075 987
3 987 1075 1072
3 1073 1002 993
3 1002 1073 1004
3 1004 1073 1074
3 1004 1074 996
3 1075 1006 997
3 1006 1075 999
3 1077 1076 1011
3 1011 1076 1010
3 1011 1012 1077
3 1077 1012 1078
3 1076 1014 1010
3 1079 1014 1076
3 1012 1015 1080
3 1081 1012 1080
3 1078 1012 1081
3 1017 1080 1015
3 1079 1020 1014
3 1082 1020 1079
3 1081 1080 1083
3 1081 1083 1084
3 1021 1085 1017
3 1085 1080 1017
3 1085 1083 1080
3 1022 1085 1021
3 1086 1025 1026
3 1087 1086 1026
3 1020 1087 1026
3 1082 1087 1020
3 1088 1084 1083
3 1090 1089 1088
3 1083 1090 1088
3 1085 1090 1083
3 1028 1090 1022
3 1022 1090 1085
3 1091 1032 1086
3 1086 1032 1025
3 1086 1087 1092
3 1093 1086 1092
3 1091 1086 1093
3 1095 1094 1093
3 1095 1093 1092
3 1094 1095 1089
3 1090 1094 1089
3 1096 1094 1090
3 1034 1096 1028
3 1028 1096 1090
3 1091 1038 1032
3 1038 1091 1041
3 1041 1091 1093
3 1041 1093 1043
3 1043 1093 1094
3 1043 1094 1045
3 1045 1094 1096
3 1045 1096 1034
3 1097 1049 1050
3 1051 1098 1050
3 1050 1098 1097
3 1052 1099 1051
3 1051 1099 1098
3 1053 1099 1052
3 1097 1059 1049
3 1059 1097 1061
3 1097 1100 1061
3 1097 1098 1100
3 1064 1100 1063
3 1100 1099 1063
3 1100 1098 1099
3 1063 1099 1053
3 1100 1069 1061
3 1069 1100 1064
3 1101 1076 1077
3 1078 1101 1077
3 1102 1079 1101
3 1101 1079 1076
3 1081 1102 1078
3 1078 1102 1101
3 1104 1103 1102
3 1103 1079 1102
3 1103 1082 1079
3 1102 1081 1104
3 1081 1105 1104
3 1081 1084 1105
3 1107 1087 1106
3 1087 1103 1106
3 1087 1082 1103
3 1108 1107 1088
3 1107 1105 1088
3 1105 1084 1088
3 1105 1107 1106
3 1089 1108 1088
3 1107 1092 1087
3 1092 1107 1095
3 1095 1107 1108
3 1095 1108 1089