OFF
566 1094 0
1.1808005155 8.1508623081 4.7187469193
1.2551851151 8.2278211624 3.8857973567
1.4206263404 7.5915228958 4.2697820475
1.4223199512 7.5536474442 4.8487078569
0.9677062027 9.1045349135 4.4942684089
1.1205151500 8.9817131486 3.5749394880
1.3184787931 7.9564471113 5.3524170983
1.1113814371 8.7878174022 5.5970587767
1.5849729139 8.0728152962 6.2033775484
1.2932867322 8.8802486253 6.4511713725
1.5884713156 8.6377884570 6.8406774069
0.9088441339 9.9988738261 3.6867011203
1.1439473974 9.9827654281 2.8155521570
1.2124079215 9.3623578957 3.0116155457
0.7724656277 10.0982462404 4.6937167099
0.8581681617 9.8556981124 5.4969541752
1.1207002252 9.7318267154 6.5263352410
1.4663564463 9.2245673979 7.0466855256
0.9821087203 10.8302611274 2.9520907865
1.3914252205 10.8923676092 2.1282613823
1.2320626111 10.3016063341 2.4670597514
0.7585740625 11.0624920344 3.7747875077
0.7007027414 10.9069028123 4.5186448669
0.7220611972 10.8361718159 5.4115873846
0.8941943064 10.7687994963 6.3229940146
1.5728248349 9.9122571781 7.4972881284
1.2210540407 10.7550313515 7.2070202007
1.5709548402 10.7404741865 7.8461335423
1.0287498847 11.8541546964 2.6875831435
1.3992868026 12.0086478379 2.0023209552
0.7831489515 11.8545855313 3.5352486988
0.6765621648 11.8421138164 4.4185474735
0.6794870531 11.7610091769 5.2900762294
0.8057407030 11.7400773460 6.1625314202
1.0921407024 11.7247484349 7.0210152799
1.5162867747 11.6073911178 7.8270349107
1.1460842779 12.7333090820 2.5254147876
1.4178569768 12.6572535523 2.0225009732
0.8774075026 12.7763861904 3.3552802041
0.7400142865 12.7714175092 4.2862862606
0.7263503717 12.6978937564 5.2170800636
0.7856795876 12.5177488834 5.9539798090
1.0552274633 12.7611497928 6.7759644135
1.4664798551 12.6020936615 7.5545707313
1.5100114205 13.3278197946 2.2404031064
1.1036148541 13.6478195762 3.1571400120
1.4195872967 14.0584581131 2.7828338242
0.9007116648 13.6548966388 4.1094632906
0.8742008409 13.6259038806 5.0968188760
0.9722887620 13.4651951307 6.1163452345
1.2432302754 13.6285124839 6.8962094565
1.4519410198 13.3548034203 7.3352474621
1.2678350488 14.3371889491 3.2963746564
1.1351831242 14.3534681382 3.8744659550
1.3359978413 14.6588074219 3.6048226338
1.1311265213 14.4201050713 4.8060376827
1.2098182782 14.3556333018 5.8410198775
1.3762872648 14.2209406015 6.6751473460
1.5111668474 14.9706334260 4.1442903752
1.5935387596 15.0324002677 5.5571685553
1.7255708224 14.8053403032 6.5191526088
2.1045869521 6.7404692844 2.8314151134
2.4889225716 6.7392551682 2.0986428027
2.4131449816 6.2763130048 2.5407479184
2.4065205408 6.0759401685 3.0926661487
2.0370633497 6.5887204861 3.5647169441
2.4240570068 6.0379760811 4.0556977437
1.8756065786 6.8909073947 4.5495241068
2.6863777595 6.0624100791 5.2421386399
2.1785399788 6.8043370360 5.6321711404
2.6813785880 6.4188248678 6.0056495857
1.9512122513 7.5704498635 2.5171043431
2.3490125548 7.7826836262 1.8149802923
1.6789998596 7.3973570340 3.4757456726
1.6594362796 7.4044610527 5.4444243238
2.5380411998 6.8772525617 6.4072509565
1.9814714603 7.3229579971 6.0965341846
2.2317255627 7.5463883812 6.7082242243
1.8834658239 8.4225163317 2.1941392817
2.2258157407 8.7595137283 1.6640207366
1.4870999439 8.4695927764 2.9499082882
2.0362702263 8.1871391845 7.0312116488
1.9093162558 8.8341972598 7.3627982155
2.5924546765 8.3231178099 7.6068329135
1.5962528412 9.5572177044 2.2115876644
2.1687886823 9.5366969620 1.5219100501
1.7621851134 9.3226372641 7.4957725039
2.3450409387 9.2732265882 7.9708830681
1.9786437754 10.3192945472 1.5529971119
2.5797893635 10.5867665093 1.1100491461
2.5107387557 9.8483138104 1.2039898300
1.9764057381 10.2864208153 8.1789961045
1.8448087026 11.0991377915 8.2891702122
2.1710636911 10.7233654181 8.5538176851
1.9223338243 11.3397095637 1.5021463956
2.6493368382 11.5991260051 1.0834501167
1.8797997122 11.7611058040 8.3436551467
2.1306676518 11.4471767685 8.5993594113
1.9258082259 12.4662587235 1.5895090988
2.8907059655 12.6841238518 1.1256203463
2.1271258553 12.1374416888 8.5178384015
1.8841195395 12.4402863726 8.1546451795
2.2090177468 13.4326243227 1.6685758396
1.8678039143 14.0915935160 2.2759286489
2.5929735367 14.2188259853 1.8184960250
1.6449906799 14.0028623843 7.2812963433
2.0785617329 13.4939680168 7.8683713491
2.1632260987 14.5987521363 2.3523346455
2.6461407883 14.7832686765 2.1879937637
1.6909126278 14.6771466957 3.0331027021
1.8101339916 14.5298151316 7.0764991355
2.1518217637 14.3165867152 7.4976449828
2.2763834104 14.9606592411 2.6333587395
2.1312480074 15.2272815201 3.2218552788
1.8417238753 15.3384642130 3.9385498193
2.1954086880 15.4276598983 3.3717313783
1.6823477215 15.2926076581 4.9119742229
1.9655356345 15.3686735800 5.8910853462
2.3040599507 15.2312898162 6.5544985732
2.3491962614 14.8071773357 7.1646207800
3.3159571862 4.8794645547 2.7808661819
3.4820705445 4.9271625542 2.1930602560
3.8165985518 4.4256970013 2.5152064651
3.7015349258 4.4275872063 3.0548533544
2.9000138602 5.6838494412 2.3769046944
3.5068553257 5.3350311980 1.7272314353
3.4265401744 4.7330812608 3.4164953739
2.9371964147 5.3550234625 3.4682343135
3.5465474440 4.8517972465 4.2615238525
2.9734913224 5.4749922416 4.5501439290
3.4941265651 5.1921394093 5.1225853365
3.0818151613 5.5406197565 5.1614025513
3.3601811034 5.5630414980 5.6499280124
3.1413160200 6.1476628195 1.6096149110
3.6488494525 6.3772467462 1.1409230452
3.6838912421 5.7021425607 1.3154239193
3.3324943465 6.0253938503 6.2437250235
2.8993013672 6.4497274796 6.3889755874
3.1743722639 6.5765694645 6.7613907623
2.9617592377 7.0869644762 1.4270190810
3.5967131088 7.3213242949 1.0016672156
2.8954069650 7.1637292433 7.0432923442
2.6037164695 7.7385681271 7.2474055263
3.3994997072 7.5306901562 7.6030983977
2.8540028239 8.0875870550 1.2866042653
3.5125692636 8.3625420018 0.9239500386
3.4571952778 8.3923480820 8.1601143365
2.7270450363 9.0592780563 1.2029927056
3.3151564918 9.5550433311 0.8976243332
3.2219160847 9.1260534482 8.5311275824
2.5555417219 9.9691480300 8.5766127268
3.1197934952 9.5232999877 8.7465901783
2.6984252082 10.0929419500 8.7784071554
3.4242031684 10.6474159881 0.8136784228
2.3952770800 10.8537468147 8.7290305700
3.5463132889 11.6523376237 0.8034128635
2.3950304273 12.1005954364 8.6729566814
3.7847269067 12.4243860064 0.8322417451
2.3716303656 12.8550484492 8.4429658706
2.9394021253 13.1712990288 8.6348839178
2.8821146894 13.5870529196 1.3515835114
3.7242727007 13.3156484072 1.0717252691
2.8367731292 13.6112637297 8.3608635542
3.3242280982 13.6416496373 8.5928278437
3.7976262314 13.5521143286 8.6824980762
3.3166974107 14.0360792723 1.4331821523
3.4566913631 14.6614531646 1.8644220581
3.3515448651 13.9395458053 8.3681730780
2.9813666879 14.3121438298 7.8487356987
2.9540765831 15.1615516726 2.4855645443
2.6926917529 15.3952476381 2.8993758049
3.5811116089 15.3592912078 2.5094040284
2.4091894338 15.4316746364 6.4528050170
2.9922264259 15.3236657842 6.8725793525
3.2345421979 15.0195805143 7.2653121972
4.1475565987 4.5345691129 1.8932354741
4.2603923834 4.1082039000 2.4297828195
4.3078927364 3.9933916478 3.0849020261
3.9341632316 4.3365613986 3.7190864402
4.7603882510 3.8492005257 4.1980325898
4.1875483388 4.3648682043 4.4533655067
4.6883470306 4.2056359380 4.9184066680
4.0015548855 5.1579725184 1.3991645420
4.3628188513 5.5142387694 1.0761485331
4.5073594847 4.7894291190 1.3514353284
4.2245023644 4.6925220115 5.1724166151
3.9997721617 5.2006738229 5.8058119564
3.7488171667 5.5534586067 6.1010843130
4.3492355564 5.5544242171 6.4974224407
4.4241670737 6.4401198283 0.8552202259
3.9350158438 6.2704231454 6.9648729352
3.5350444056 6.8383020766 7.2345698769
4.2779477444 6.7931765788 7.5160844332
4.4188433128 7.4505215394 0.7548265346
4.5210348493 7.5901420435 8.0527421497
4.3680309624 8.5325812546 0.7128108092
4.3343967693 8.2813150637 8.4444900898
3.9247333543 8.6761982529 8.5805780655
4.6838462231 8.6477656834 8.7141768771
4.3459571479 9.6298997755 0.6809100362
3.9956592855 8.9798069606 8.7635327812
4.3913186447 10.6818762323 0.6618455003
4.4818126110 11.6559829072 0.6902622691
4.5858220651 12.5680712751 0.8106324753
4.8264041215 13.3933618896 1.0579217502
3.7328001781 13.8155324187 8.5372044047
4.3237949573 13.7399005804 8.5071881998
3.8756204683 14.1180264951 8.2041924435
4.7155601221 13.3829347794 8.7307583913
4.1983227518 14.0954728392 1.3968079472
4.6651315729 14.7009509881 1.8449944451
3.9516536207 14.6179979985 7.7061821578
4.0985981944 15.1441582878 2.2338663845
4.6666160666 15.3479670132 2.4700789971
3.9867295608 14.9841061242 7.3963341157
4.0042582749 15.1368006709 7.1775471433
4.9447042996 3.6899472697 2.4346344441
5.5030788296 3.5698319184 1.8694541084
5.7135673890 3.1609001956 2.3164722276
5.8362698747 2.9110997923 3.1284323097
5.0826942087 3.4510709278 3.4882704332
5.6873386503 3.1249155576 4.0224005387
5.2200369687 3.4197728540 4.0907639494
5.5199693460 3.4310703515 4.5745003225
4.9841732114 4.1624890229 1.6152139605
5.1764875454 4.6934604574 1.1449658896
5.7542560554 3.8989169620 1.4089749115
5.4820136877 3.8713287542 5.2072729449
4.9341910597 4.3598906404 5.4644683492
5.4378342003 4.3198071771 5.8289193897
5.3046784923 5.4859459383 0.8583636127
4.8953955669 4.8185771053 6.0190407778
5.5844205607 5.1968991747 6.7638685218
5.3678656022 6.4611260239 0.7087690431
4.9222679518 6.0257826658 7.1947709930
5.3339871180 6.6722477262 7.7214131065
5.3778965914 7.5105624895 0.6568920218
5.7491053076 7.4344090358 8.1412016506
5.3626644575 8.5981956048 0.6391007297
5.1681312365 8.1595073344 8.4770168677
5.6960075154 8.8658652507 8.7659483361
5.3571383116 9.6783565232 0.6292908200
5.0647518126 8.9809068753 8.8739837207
5.3823684084 10.7132594835 0.6447064014
5.4478523019 11.6979865116 0.7226045719
5.5297214597 12.6162767866 0.8769742767
5.2564967540 13.0768266066 8.8074100681
5.8168942732 12.7869235061 8.6945377550
5.2813532908 13.1706785617 8.6997886517
5.7101426685 13.3342815271 1.1044932489
4.9713090381 13.5071250322 8.5152396054
4.8384541886 14.0795312022 7.9839673567
5.4622794487 14.0469995406 1.4879487524
5.5282127963 14.6927543087 1.9586880433
4.6578828032 14.7915819436 7.4007054765
5.2149905737 14.4428880828 7.4927618987
5.4165686590 14.7348667515 7.0981795728
5.4174670237 15.1135687120 2.3951067699
5.6505899146 15.3980855115 2.8079541733
5.0728755615 15.0414608838 6.9600065134
5.5672852437 14.9883316485 6.7573380351
5.7567933480 15.0725261631 6.5103667192
6.4526507456 2.4238381716 3.4093192463
6.4252842301 2.4237760364 2.9157748986
6.8890276426 2.0960036362 3.1901531549
6.8018621008 2.2958706389 3.7241526685
6.2094516844 3.1235299143 1.8799947903
6.1923787234 2.7265325970 2.4951248906
6.4530260706 2.6946139334 4.0068959003
6.2198039788 3.1378903298 4.6707698019
5.9304922740 3.4449930594 5.0148132167
6.5572741139 3.5220905353 5.3694477200
6.2049884668 4.4415137752 1.0292347884
6.4696959343 3.5816651658 1.3759660148
6.1459626121 4.1119461033 5.9434818523
5.7212327922 4.5767133235 6.2723963765
6.4818906250 4.5918493774 6.5413440621
6.3115709226 5.4476578385 0.7798491038
6.6357143170 5.1805939880 7.0754734889
6.3829422146 6.4709561688 0.7045889125
5.9804494375 5.8470130574 7.3775489986
6.5337663176 6.5087976609 7.7791356930
6.3892891482 7.5664221594 0.6946590309
6.8785959675 7.5861308644 8.1312311536
6.3649883595 8.6912870626 0.6920088373
6.1132242963 8.2224021129 8.4663709108
6.4454628356 8.8964364711 8.6354648156
6.3300880632 9.7665997280 0.6902589377
5.9320332103 9.4420990001 8.9383203942
6.5591237761 9.7261686021 8.8116810138
6.3511535502 10.7510152898 0.7386344702
6.4639637311 10.1463189709 8.9789639728
6.6797034498 10.3992721376 8.9286059128
6.4752667251 11.7327864810 0.8884310574
6.7275648284 10.9048707045 8.9090153943
6.2939414317 12.7074950318 1.0373933673
5.6883661709 13.2720937903 8.3102926977
6.4340233980 12.4564095030 8.4703775607
6.5398449309 13.0241735450 7.9266019605
6.4437985433 12.0928233205 8.7554978888
6.2862680571 13.2792978533 1.2204637147
6.0196412963 13.6214884144 1.3067258330
6.7049709104 13.5876696094 1.6319147983
5.8981854215 14.0069415582 7.4823583281
6.7763211252 13.5046458750 7.3824232195
6.5670416044 14.1059013929 6.9630723963
5.9294539358 14.8362968793 2.2256428701
6.2575680497 14.4186324427 2.0296880410
6.5481351817 14.8495015623 2.6412204930
6.1190438212 14.7353593312 6.6149455869
6.8550578621 14.4105450139 6.4401271359
6.6868826378 14.8744055207 5.9800298611
6.2051392393 15.4653113486 3.2433788666
6.3677118979 15.2888695353 3.1787083550
6.6190384522 15.4143738859 3.7771503059
6.3937235970 15.1248200716 5.8737584256
6.8968439069 15.1300366690 5.2215492740
6.6754460036 15.3136177441 5.1973796043
7.2587043750 1.7453978837 2.6127257739
7.3597978001 1.8933303753 2.4151057813
7.4801438871 1.6913109036 2.6409792975
7.3902314717 1.6592311651 2.8504572933
7.1547624071 1.8152797682 2.8552958728
7.3627548132 1.8539991241 3.1995812134
6.8787508781 2.2677091892 2.4266640679
7.4533654885 2.3360639970 2.1205753549
7.2468426762 2.1473505700 3.6899071479
7.0592558194 2.4390749824 4.1042418298
7.5528834677 2.4435555017 4.0915256156
7.0007702236 2.9456959035 1.7241571641
7.1201362255 3.6691858137 1.2625126443
7.7881004313 3.0073114842 1.7532244126
7.2610225096 2.9124783933 4.6779535861
7.6908434343 3.4918323875 5.4986244824
7.1827174629 4.5212082923 0.9611017341
7.1479433465 4.0315258535 6.0936907815
7.5530386575 4.7145598014 6.7581322138
7.2928385709 5.4555928582 0.8400326370
7.3084836535 5.3036749676 7.2590867340
6.7923376031 5.6976637786 7.4530467870
7.4213352539 5.8795892493 7.5475979789
7.4605824378 6.4969252549 0.8577180299
7.5470680921 6.6983047849 7.8019696192
7.3341507631 7.7342204815 0.8500135823
7.8034988300 7.4908239073 7.9415699373
7.3638997372 8.9125623031 0.8640407924
6.8219528745 8.4633315384 8.4085383876
7.6309278284 8.4430048923 8.1557900998
7.0841722948 9.9351426782 0.8111852037
7.0919841078 9.2002198552 8.4912188375
7.8812862742 9.6103799673 8.1803136480
7.3211433593 10.6734753280 0.9381507500
7.2335234859 10.0239109436 8.5305778664
6.9851574216 10.6995408256 8.7122348337
7.3214646336 11.4179601874 1.0617079226
7.0572641388 12.1684771752 1.1574366451
7.8323097445 11.5775896392 1.3246178783
6.8254196165 11.5887723875 8.6750176434
7.1856009767 11.2962671200 8.4752613058
7.2283569047 12.0390024009 8.0804054394
6.6731987927 11.5469678788 8.8607396630
6.7857751232 12.8984920911 1.2804581582
7.6296235810 12.5686467094 1.5675630865
7.1349068119 12.9045133568 7.6153709442
7.8533206482 13.3245640374 2.0574086012
7.2455685046 13.2218906244 7.3029833207
7.2164608631 13.7142352803 6.8777239877
7.4147824173 14.1247317583 2.4603207018
7.3637208895 14.6664273936 3.0596931695
7.3202031465 14.1442760057 6.3800326584
7.2877732489 14.5597886188 5.8327852507
7.0292868586 15.0141440399 3.3332399606
6.8125379627 15.3570384710 4.5727404244
7.0942213491 15.1450133245 4.1646960482
7.4226427006 14.8447255393 5.0406583832
7.6686577927 1.9640738765 2.5019827324
7.6434702060 1.8234904878 2.9280020197
7.9182151519 2.4154914442 2.2808316149
8.0197880993 2.2375952817 2.8173746196
7.8111735657 2.1980314309 3.4936640269
7.8828580956 3.7983694621 1.2755667265
8.3865241151 3.4200764940 1.6976294407
8.5116489137 2.9229167220 2.4397090477
8.3722053400 2.5928452393 3.2679671662
8.3091785890 2.8232451155 4.1389201553
8.1670056942 3.1769238802 4.9638212108
8.5279101103 3.5614403480 5.3900391776
8.0263914084 4.5837422235 1.0831247646
8.3479205273 4.0888037585 6.0472398242
8.7517710065 4.8927529839 6.6667130345
8.1580022730 5.4261352734 1.0387938832
8.0269123980 5.3422022160 7.2014186090
8.2106026758 6.0686677744 7.4930461209
8.3208031896 6.0853950618 1.0825653579
8.1953551806 6.9231518653 1.0798710098
8.9019074466 6.2036004641 1.3386278322
8.3930997783 6.9195734955 7.6662093159
8.1710460454 7.9633441745 1.1026572178
8.9363344942 7.1850274606 1.4005652721
8.5599514039 7.9503727886 7.7850953811
8.2158056888 8.8029177605 1.1184368255
8.9459555256 8.3520924726 1.4549426635
8.3798297141 8.8623477872 7.9547304793
7.9122368439 9.6632498500 1.0297777223
8.5885718638 9.2287947374 1.2924992205
8.6314192405 9.4967571456 7.8656804596
8.0571857265 10.3501835758 1.1413452486
7.8385559565 10.9317606988 1.1551334608
8.5015302882 10.6710499717 1.4480337997
7.6129097867 10.8049806312 8.2457854558
8.5032652924 10.3885510615 7.8116390134
8.5379369385 11.6685405966 1.7270493234
8.1324113941 11.4806910149 7.6863685195
8.8104570873 11.0262529893 7.4528630944
8.7139899210 11.8288552636 7.1252823381
8.5978189181 12.5524491215 2.0568906221
7.7910106623 12.7211938497 7.2330599351
8.5839780287 12.7618601208 6.6218688603
8.6175555563 13.1879068170 2.4654262059
8.0827902131 13.6510252748 2.4196364938
8.3523107487 13.7641851268 2.8607081108
7.9120362631 13.6911147547 6.3189627638
8.5343322698 13.2933795880 6.2290440503
8.5120443766 13.6597066643 5.7496385303
7.6507896951 14.7393546153 3.7305729293
8.0140108408 14.2819478934 3.2772617411
7.8463683698 14.6378525906 4.5661461920
8.3203831684 14.2590108329 4.0940455086
7.9288571081 14.3128503079 5.4241613115
8.4669983027 14.0524490242 4.9508537397
8.4846282577 3.9740431840 1.4126699651
9.0103688093 3.7588030159 1.9555660184
9.2359447339 3.3964171020 2.6540776589
9.0102353988 3.0863803345 3.3478473420
9.1227989105 3.2320092485 4.0837391915
9.5578803447 3.4612605350 3.6891388733
8.8912502302 3.3556955502 4.7623356898
8.8222355608 4.6586461761 1.4160038760
9.4748894957 4.4303373090 1.8986225569
9.7617093071 3.9862177338 2.5424951881
9.5979591982 3.6559911061 4.3529785222
9.3684574658 3.9711908650 5.3486758054
9.1818273577 4.3986214610 6.1068229071
9.5369415214 4.8528059637 6.2998469833
8.7684649305 5.5041634143 1.2659585330
9.4517044939 5.3098918303 1.6586306250
8.7543747744 5.6043294256 7.1248552580
9.6513157464 5.7118117662 6.6618250537
9.6247456298 6.3435652387 1.7197458137
8.9928977399 6.3255374516 7.2890963243
9.6493548529 6.7091563130 7.0431114732
9.7481381668 7.4224440238 1.8509113587
9.1621105292 7.2312101863 7.4281698194
9.9087054766 7.6499011503 7.0637699877
9.6585416575 8.4378212551 1.8842648113
9.3263040317 8.0140178473 7.4771507736
9.1073793768 8.8341256888 7.6381643331
8.4979762735 9.8752894603 1.2944313978
9.2179476327 9.5321438497 1.7221522004
9.1505028091 9.7656763091 7.5852782037
9.2671037605 10.7991449376 1.9896412533
9.1298478117 10.4486266867 7.4616090970
9.5653398582 10.0856854610 7.2533715442
9.4387991098 10.9244067373 7.0294337268
9.2255727570 11.7823865645 2.2126350744
9.3664958541 11.9891442904 6.5156515105
9.1656056528 12.4012923470 2.3593553691
8.9432868238 12.7484259688 2.3434938243
9.2107879875 12.7435485436 2.6907928898
9.0437783657 12.9107039353 6.0671752154
9.5165643495 12.3974686575 6.0897740002
9.5562384474 12.6767115695 5.6043261497
8.7175287352 13.7868256264 3.6120996535
9.0239597890 13.2542911879 3.1256371620
8.9436177262 13.6656654220 4.4627199797
9.3294685644 13.1809484004 3.9263426361
9.0389730067 13.3778714141 5.3096700810
9.5087934584 12.9876230876 4.8000367245
9.6064690811 3.5371511828 3.1331339771
10.0359508025 4.7371276467 2.1905904607
10.3577677220 4.4651162302 2.7477572847
10.1631508276 4.0413051260 3.5381818460
10.1655176841 4.1650804570 4.6070718333
10.1712056935 4.4706481233 5.3071444414
10.5344272101 4.5039217560 4.8271755281
9.7302453913 4.4962531121 5.8468339493
10.2171633110 5.5749533151 2.1150079612
10.7633212572 4.9165347845 5.1331651555
10.7419543549 5.2962384648 5.6177741999
10.2153556854 5.0432218060 5.8862097666
10.3410671295 6.5128675191 2.1867922640
10.6896618590 5.8493636171 5.9764089039
10.3971984413 6.7983187256 6.5289936192
10.4021709469 7.2593764701 2.2877818387
10.2235059719 7.9999842986 2.2602907553
10.6952145951 7.6226200200 2.6555789394
10.5408566995 7.7645596442 6.5852063495
10.0660710328 8.9608224790 2.2931611960
10.6404764293 8.4234792239 2.8145767114
9.7197759316 8.4859002683 7.2875059418
10.2868868832 8.6635762833 6.7997511762
9.9472414223 10.0301441424 2.3984324129
10.5159904536 9.4389315038 2.9163804875
9.7173412555 9.3005931547 7.2572903266
10.1285003738 9.9524172375 6.7166943704
9.9044688217 11.1353865081 2.7009248184
10.4236635728 10.3792212371 3.0544491434
10.0480267071 11.0816732405 6.3702477641
9.5904638156 12.0939958676 2.7571066021
10.3823545345 11.0576681584 3.3350486787
10.0861711834 11.8064587792 3.5081114486
10.3225184068 11.8453116055 4.4156176927
10.5365614993 11.2537761844 3.9659572571
10.6160882983 11.3443653213 4.6111231077
9.9517629938 11.9285797220 5.9216253591
10.4002590342 11.2550463916 5.8285993225
10.3651285353 11.6802502012 5.4751684339
9.5802177692 12.6236744700 3.3463774633
9.8667146070 12.4877809132 4.1954196469
10.4596910862 11.6876578658 5.0063903222
10.0524849652 12.2313797836 5.1064266470
10.5655310968 5.0271940343 2.5374218363
10.8983756065 4.8892618205 3.2119508972
10.8335263165 4.6571986792 4.2309991871
10.9620542441 5.7968010893 2.7425016915
11.3871874968 5.4464238533 3.2353063757
11.4793349208 5.2574956567 3.8036970884
11.3579481270 5.2379048123 4.6124911448
11.1568617503 5.5191612613 5.3154560988
11.6924537074 5.8678199659 4.8958523381
10.8722668081 6.8719437265 2.7022612095
11.5112407593 5.8900410117 3.1925716287
11.3977956586 6.5314644838 3.2026673617
11.7567131928 6.1746697145 3.5272140524
11.3610910452 6.1956224492 5.5096277633
11.0387177371 6.6202866411 5.9767119942
11.4547191408 6.9153409866 5.5890128432
11.1879924896 7.6667782101 3.4152863791
11.7316791587 6.8784158735 3.8588482648
11.0403735501 7.4578138100 6.0420595020
11.4530438104 7.5250038753 5.4942740473
10.9506801411 8.9385830883 3.5766149397
11.5782643228 7.5783997790 4.2595073380
11.2716835528 8.4877169555 4.4818139595
11.1937946670 8.3156501262 5.5444044543
11.5667506855 7.7086767209 4.9458308854
10.8221900334 8.2867575313 6.2604680769
10.7856045174 9.9569387861 3.6222264861
11.0164873585 9.6364986409 4.3832581947
11.0263081442 9.4025182281 5.2578868905
10.7499214238 9.1830270351 6.1131143039
10.6497374220 10.6690595096 3.6360046512
10.8029037957 10.6304298246 4.3528767629
10.8984173648 10.2556828013 5.0341745919
10.6323433518 10.3456768794 5.8405620538
10.6639539135 11.0739865579 5.2081866327
11.6786456624 5.6678409212 3.4685554641
11.8138075285 5.7717024358 3.7673706631
11.7524572664 5.5481034935 4.3292383577
11.9016663015 5.8921541537 4.6415759223
11.9057154235 6.3829829225 3.8361314591
11.7442537429 6.5824660256 5.1042180455
11.9253468356 6.3980396290 4.7084818383
11.9434056299 6.6871409818 4.2529444725
11.8240400958 7.0190407981 4.6221206477
11.6851302268 7.1623898294 5.1769464824
3 2 1 0
3 0 3 2
3 0 1 4
3 4 1 5
3 3 0 6
3 0 7 6
3 0 4 7
3 9 8 7
3 7 8 6
3 9 10 8
3 13 12 11
3 13 11 5
3 11 4 5
3 11 14 4
3 4 15 7
3 4 14 15
3 7 16 9
3 7 15 16
3 10 9 17
3 17 9 16
3 20 19 18
3 20 18 12
3 18 11 12
3 18 21 11
3 11 22 14
3 11 21 22
3 14 23 15
3 14 22 23
3 15 24 16
3 15 23 24
3 17 16 25
3 16 26 25
3 16 24 26
3 26 27 25
3 18 19 28
3 28 19 29
3 18 30 21
3 18 28 30
3 21 31 22
3 21 30 31
3 22 32 23
3 22 31 32
3 23 33 24
3 23 32 33
3 24 34 26
3 24 33 34
3 27 26 35
3 35 26 34
3 28 29 36
3 36 29 37
3 28 38 30
3 28 36 38
3 30 39 31
3 30 38 39
3 31 40 32
3 31 39 40
3 32 41 33
3 32 40 41
3 33 42 34
3 33 41 42
3 35 34 43
3 43 34 42
3 37 44 36
3 46 45 44
3 45 36 44
3 45 38 36
3 38 47 39
3 38 45 47
3 39 48 40
3 39 47 48
3 40 49 41
3 40 48 49
3 51 42 50
3 42 49 50
3 42 41 49
3 42 51 43
3 46 52 45
3 54 53 52
3 53 45 52
3 53 47 45
3 47 55 48
3 47 53 55
3 48 56 49
3 48 55 56
3 50 49 57
3 57 49 56
3 54 58 53
3 53 58 55
3 55 58 59
3 55 59 56
3 56 59 60
3 56 60 57
3 63 62 61
3 65 64 61
3 61 64 63
3 67 66 65
3 65 66 64
3 69 68 67
3 67 68 66
3 69 70 68
3 61 62 71
3 71 62 72
3 61 73 65
3 61 71 73
3 73 1 2
3 67 73 2
3 65 73 67
3 67 2 3
3 74 67 3
3 69 67 74
3 70 69 75
3 69 76 75
3 69 74 76
3 76 77 75
3 71 72 78
3 78 72 79
3 71 80 73
3 71 78 80
3 80 5 1
3 80 1 73
3 6 74 3
3 74 6 8
3 74 8 76
3 82 81 10
3 10 81 8
3 81 77 8
3 77 76 8
3 82 83 81
3 78 79 84
3 84 79 85
3 84 12 13
3 80 84 13
3 78 84 80
3 80 13 5
3 17 86 82
3 17 82 10
3 83 82 87
3 87 82 86
3 90 89 88
3 90 88 85
3 85 88 84
3 88 19 84
3 19 20 84
3 84 20 12
3 25 86 17
3 92 91 27
3 27 91 25
3 91 87 25
3 87 86 25
3 92 93 91
3 88 89 94
3 94 89 95
3 94 29 19
3 94 19 88
3 35 96 92
3 35 92 27
3 93 92 97
3 97 92 96
3 94 95 98
3 98 95 99
3 98 37 29
3 98 29 94
3 101 100 96
3 35 101 96
3 43 101 35
3 96 100 97
3 99 102 98
3 102 104 103
3 102 103 44
3 98 102 44
3 37 98 44
3 103 46 44
3 50 105 51
3 105 106 51
3 106 43 51
3 106 101 43
3 103 104 107
3 107 104 108
3 109 52 46
3 103 109 46
3 107 109 103
3 109 54 52
3 57 110 105
3 57 105 50
3 106 105 111
3 111 105 110
3 108 112 107
3 107 112 109
3 109 112 113
3 113 115 114
3 113 114 58
3 109 113 58
3 54 109 58
3 116 59 58
3 116 58 114
3 59 116 117
3 118 59 117
3 60 59 118
3 57 60 110
3 60 119 110
3 60 118 119
3 110 119 111
3 122 121 120
3 120 123 122
3 120 121 124
3 124 121 125
3 123 120 126
3 120 127 126
3 120 124 127
3 129 128 127
3 127 128 126
3 131 130 129
3 129 130 128
3 131 132 130
3 135 134 133
3 135 133 125
3 125 133 124
3 133 62 124
3 62 63 124
3 124 63 64
3 124 64 127
3 127 64 66
3 127 66 129
3 129 66 68
3 129 68 131
3 137 136 70
3 70 136 68
3 136 132 68
3 132 131 68
3 137 138 136
3 133 134 139
3 139 134 140
3 139 72 62
3 139 62 133
3 75 137 70
3 142 141 77
3 77 141 75
3 141 138 75
3 138 137 75
3 142 143 141
3 139 140 144
3 144 140 145
3 144 79 72
3 144 72 139
3 81 142 77
3 81 83 142
3 83 143 142
3 83 146 143
3 144 145 147
3 147 145 148
3 147 85 79
3 147 79 144
3 87 150 149
3 146 87 149
3 83 87 146
3 152 151 150
3 150 151 149
3 147 148 90
3 148 89 90
3 148 153 89
3 147 90 85
3 91 150 87
3 150 91 93
3 154 150 93
3 152 150 154
3 153 95 89
3 155 95 153
3 97 156 154
3 97 154 93
3 155 99 95
3 157 99 155
3 101 158 100
3 156 97 100
3 158 156 100
3 159 156 158
3 102 99 160
3 99 161 160
3 99 157 161
3 160 104 102
3 106 162 158
3 106 158 101
3 164 159 163
3 159 162 163
3 159 158 162
3 161 165 160
3 104 160 165
3 166 104 165
3 108 104 166
3 168 167 162
3 106 168 162
3 111 168 106
3 162 167 163
3 166 169 108
3 108 169 112
3 169 171 170
3 113 169 170
3 112 169 113
3 170 115 113
3 117 172 118
3 118 172 173
3 174 118 173
3 119 118 174
3 111 119 168
3 168 119 174
3 176 175 122
3 122 175 121
3 178 177 123
3 177 122 123
3 177 176 122
3 180 179 178
3 178 179 177
3 180 181 179
3 184 183 182
3 175 184 182
3 125 175 182
3 121 175 125
3 126 178 123
3 178 126 128
3 178 128 180
3 185 181 180
3 128 185 180
3 130 185 128
3 187 186 132
3 186 130 132
3 186 185 130
3 187 188 186
3 182 183 135
3 183 134 135
3 183 189 134
3 182 135 125
3 136 187 132
3 191 190 138
3 138 190 136
3 190 188 136
3 188 187 136
3 191 192 190
3 189 140 134
3 193 140 189
3 141 191 138
3 141 143 191
3 143 192 191
3 143 194 192
3 193 145 140
3 195 145 193
3 146 197 196
3 194 146 196
3 143 146 194
3 197 198 196
3 195 148 145
3 199 148 195
3 149 197 146
3 200 198 197
3 149 200 197
3 151 200 149
3 199 153 148
3 201 153 199
3 201 155 153
3 202 155 201
3 202 157 155
3 203 157 202
3 203 161 157
3 204 161 203
3 207 206 205
3 164 163 205
3 206 164 205
3 208 164 206
3 204 209 161
3 161 209 165
3 166 165 209
3 166 209 210
3 207 205 167
3 168 207 167
3 211 207 168
3 167 205 163
3 210 212 166
3 166 212 169
3 171 169 212
3 171 212 213
3 215 214 174
3 215 174 173
3 168 174 211
3 211 174 214
3 218 217 216
3 220 219 216
3 216 219 218
3 222 221 220
3 220 221 219
3 222 223 221
3 226 225 224
3 226 224 217
3 217 224 216
3 224 175 216
3 175 176 216
3 216 176 177
3 216 177 220
3 220 177 179
3 220 179 222
3 228 227 181
3 181 227 179
3 227 223 179
3 223 222 179
3 228 229 227
3 224 225 184
3 225 183 184
3 225 230 183
3 224 184 175
3 185 228 181
3 231 229 228
3 185 231 228
3 186 231 185
3 186 188 231
3 231 188 232
3 230 189 183
3 233 189 230
3 234 232 188
3 234 188 190
3 190 192 234
3 234 192 235
3 233 193 189
3 236 193 233
3 194 235 192
3 194 237 235
3 236 195 193
3 238 195 236
3 239 237 194
3 239 194 196
3 196 198 239
3 239 198 240
3 238 199 195
3 241 199 238
3 242 240 198
3 242 198 200
3 241 201 199
3 243 201 241
3 243 202 201
3 244 202 243
3 244 203 202
3 245 203 244
3 248 247 246
3 245 204 203
3 249 204 245
3 251 250 206
3 251 206 207
3 246 208 248
3 208 250 248
3 208 206 250
3 249 252 204
3 204 252 209
3 210 209 252
3 210 252 253
3 256 255 254
3 255 251 254
3 251 211 254
3 251 207 211
3 253 257 210
3 210 257 212
3 213 212 257
3 213 257 258
3 261 260 259
3 259 260 256
3 259 256 254
3 215 259 254
3 214 215 254
3 214 254 211
3 264 263 262
3 262 265 264
3 267 266 218
3 218 266 217
3 219 262 263
3 267 219 263
3 218 219 267
3 268 265 262
3 219 268 262
3 221 268 219
3 270 269 223
3 269 221 223
3 269 268 221
3 270 271 269
3 273 272 226
3 226 272 225
3 226 217 266
3 226 266 273
3 227 270 223
3 275 274 229
3 229 274 227
3 274 271 227
3 271 270 227
3 275 276 274
3 272 230 225
3 277 230 272
3 231 275 229
3 231 232 275
3 232 276 275
3 232 278 276
3 277 233 230
3 279 233 277
3 280 278 232
3 280 232 234
3 234 235 280
3 280 235 281
3 279 236 233
3 282 236 279
3 237 281 235
3 237 283 281
3 282 238 236
3 284 238 282
3 285 283 237
3 285 237 239
3 239 240 285
3 285 240 286
3 284 241 238
3 287 241 284
3 240 242 288
3 289 240 288
3 286 240 289
3 287 243 241
3 290 243 287
3 289 288 291
3 289 291 292
3 290 244 243
3 293 244 290
3 294 292 291
3 293 245 244
3 295 245 293
3 298 297 296
3 247 248 296
3 297 247 296
3 299 247 297
3 301 249 300
3 249 295 300
3 249 245 295
3 302 301 300
3 305 304 303
3 303 304 298
3 303 298 296
3 251 303 296
3 250 251 296
3 250 296 248
3 301 252 249
3 307 306 253
3 307 253 252
3 302 307 252
3 301 302 252
3 308 306 307
3 311 310 309
3 309 310 305
3 309 305 303
3 256 309 303
3 255 256 303
3 255 303 251
3 306 257 253
3 313 312 258
3 313 258 257
3 308 313 257
3 306 308 257
3 314 312 313
3 317 316 315
3 315 316 311
3 315 311 309
3 261 315 309
3 260 261 309
3 260 309 256
3 320 319 318
3 322 321 318
3 318 321 320
3 322 323 321
3 318 319 324
3 324 319 325
3 324 263 264
3 322 324 264
3 318 324 322
3 327 326 265
3 265 326 264
3 326 323 264
3 323 322 264
3 327 328 326
3 331 330 329
3 331 329 325
3 325 329 324
3 329 266 324
3 266 267 324
3 324 267 263
3 268 327 265
3 332 328 327
3 268 332 327
3 269 332 268
3 269 271 332
3 332 271 333
3 329 330 273
3 330 272 273
3 330 334 272
3 329 273 266
3 335 333 271
3 335 271 274
3 274 276 335
3 335 276 336
3 334 277 272
3 337 277 334
3 278 339 338
3 336 278 338
3 276 278 336
3 339 340 338
3 337 279 277
3 341 279 337
3 280 339 278
3 280 281 339
3 281 340 339
3 281 342 340
3 341 282 279
3 343 282 341
3 283 342 281
3 283 344 342
3 343 284 282
3 345 284 343
3 283 285 346
3 347 283 346
3 344 283 347
3 286 346 285
3 345 287 284
3 348 287 345
3 347 346 349
3 347 349 350
3 289 349 286
3 286 349 346
3 348 290 287
3 351 290 348
3 352 350 349
3 349 289 352
3 289 353 352
3 289 292 353
3 355 293 354
3 293 351 354
3 293 290 351
3 356 355 354
3 359 358 357
3 360 357 294
3 357 353 294
3 353 292 294
3 353 357 358
3 361 295 355
3 355 295 293
3 355 356 362
3 355 362 361
3 359 357 297
3 298 359 297
3 363 359 298
3 297 357 299
3 299 357 360
3 361 300 295
3 302 300 361
3 362 302 361
3 364 302 362
3 366 365 304
3 366 304 305
3 298 304 363
3 363 304 365
3 364 367 302
3 302 367 307
3 308 307 367
3 308 367 368
3 370 369 310
3 370 310 311
3 305 310 366
3 366 310 369
3 368 371 308
3 308 371 313
3 373 372 314
3 313 373 314
3 371 373 313
3 316 317 372
3 373 316 372
3 374 316 373
3 311 316 370
3 370 316 374
3 375 319 320
3 321 376 320
3 320 376 375
3 323 376 321
3 377 325 375
3 375 325 319
3 378 375 376
3 377 375 378
3 326 379 323
3 379 376 323
3 379 378 376
3 328 379 326
3 381 380 331
3 331 380 330
3 331 325 377
3 382 331 377
3 381 331 382
3 382 377 378
3 382 378 383
3 383 378 379
3 383 379 384
3 384 379 328
3 332 384 328
3 385 384 332
3 332 333 385
3 385 333 386
3 380 334 330
3 387 334 380
3 388 386 333
3 388 333 335
3 335 336 388
3 388 336 389
3 387 337 334
3 390 337 387
3 391 389 336
3 391 336 338
3 338 340 391
3 391 340 392
3 394 341 393
3 341 390 393
3 341 337 390
3 395 394 393
3 342 392 340
3 342 396 392
3 397 343 394
3 394 343 341
3 394 395 398
3 394 398 397
3 344 396 342
3 344 399 396
3 400 345 397
3 397 345 343
3 397 398 401
3 397 401 400
3 347 399 344
3 347 402 399
3 404 403 400
3 403 345 400
3 403 348 345
3 404 400 401
3 350 402 347
3 350 405 402
3 407 351 406
3 351 403 406
3 351 348 403
3 408 407 406
3 350 352 409
3 410 350 409
3 405 350 410
3 353 409 352
3 407 354 351
3 356 354 407
3 408 356 407
3 411 356 408
3 414 413 412
3 412 413 410
3 412 410 409
3 359 412 409
3 358 359 409
3 358 409 353
3 411 362 356
3 415 362 411
3 414 412 416
3 414 416 417
3 363 416 359
3 359 416 412
3 419 364 418
3 364 415 418
3 364 362 415
3 420 419 418
3 423 422 421
3 421 422 417
3 421 417 416
3 366 421 416
3 365 366 416
3 365 416 363
3 419 367 364
3 425 424 368
3 425 368 367
3 420 425 367
3 419 420 367
3 427 426 424
3 427 424 425
3 429 428 426
3 429 426 427
3 428 429 423
3 428 423 421
3 370 428 421
3 369 370 421
3 369 421 366
3 424 371 368
3 371 424 373
3 373 424 426
3 373 426 374
3 374 426 428
3 374 428 370
3 430 380 381
3 382 431 381
3 381 431 430
3 431 382 432
3 382 433 432
3 382 383 433
3 435 433 434
3 433 384 434
3 433 383 384
3 385 436 384
3 384 436 434
3 386 436 385
3 437 387 430
3 430 387 380
3 431 439 438
3 437 431 438
3 430 431 437
3 439 431 432
3 440 435 434
3 440 434 436
3 440 436 441
3 441 436 386
3 388 441 386
3 442 441 388
3 388 389 442
3 442 389 443
3 444 390 437
3 437 390 387
3 437 438 445
3 437 445 444
3 389 391 446
3 447 389 446
3 443 389 447
3 392 446 391
3 444 393 390
3 395 393 444
3 445 395 444
3 448 395 445
3 447 446 449
3 447 449 450
3 396 449 392
3 392 449 446
3 448 398 395
3 451 398 448
3 450 449 452
3 450 452 453
3 399 452 396
3 396 452 449
3 451 401 398
3 454 401 451
3 455 453 452
3 452 399 455
3 399 456 455
3 399 402 456
3 457 403 404
3 458 457 404
3 401 458 404
3 454 458 401
3 405 456 402
3 405 459 456
3 457 406 403
3 408 406 457
3 458 408 457
3 460 408 458
3 463 462 461
3 462 459 461
3 459 410 461
3 459 405 410
3 460 411 408
3 464 411 460
3 463 461 413
3 414 463 413
3 465 463 414
3 413 461 410
3 467 415 466
3 415 464 466
3 415 411 464
3 468 467 466
3 471 470 469
3 470 465 469
3 465 417 469
3 465 414 417
3 467 418 415
3 473 472 420
3 473 420 418
3 468 473 418
3 467 468 418
3 475 474 472
3 475 472 473
3 477 476 474
3 477 474 475
3 476 477 471
3 476 471 469
3 423 476 469
3 422 423 469
3 422 469 417
3 472 425 420
3 425 472 427
3 427 472 474
3 427 474 429
3 429 474 476
3 429 476 423
3 478 432 433
3 435 478 433
3 480 479 439
3 439 479 438
3 439 432 478
3 481 439 478
3 480 439 481
3 481 478 435
3 440 481 435
3 482 481 440
3 484 482 483
3 482 441 483
3 482 440 441
3 442 485 441
3 441 485 483
3 443 485 442
3 479 445 438
3 486 445 479
3 487 484 483
3 489 488 487
3 483 489 487
3 485 489 483
3 447 489 443
3 443 489 485
3 486 448 445
3 490 448 486
3 491 488 489
3 489 447 491
3 447 492 491
3 447 450 492
3 494 451 493
3 451 490 493
3 451 448 490
3 495 494 493
3 453 492 450
3 453 496 492
3 497 454 494
3 494 454 451
3 494 495 498
3 494 498 497
3 453 455 499
3 500 453 499
3 496 453 500
3 456 499 455
3 501 458 497
3 497 458 454
3 497 498 502
3 497 502 501
3 500 499 503
3 500 503 504
3 459 503 456
3 456 503 499
3 505 460 501
3 501 460 458
3 501 502 506
3 501 506 505
3 504 503 462
3 463 504 462
3 507 504 463
3 462 503 459
3 508 464 505
3 505 464 460
3 505 506 509
3 510 505 509
3 508 505 510
3 512 511 510
3 512 510 509
3 513 511 512
3 516 515 514
3 515 507 514
3 507 465 514
3 507 463 465
3 508 466 464
3 466 508 468
3 508 517 468
3 508 510 517
3 518 510 511
3 517 510 518
3 511 513 519
3 520 511 519
3 518 511 520
3 520 519 516
3 520 516 514
3 471 520 514
3 470 471 514
3 470 514 465
3 517 473 468
3 473 517 475
3 475 517 518
3 475 518 477
3 477 518 520
3 477 520 471
3 521 479 480
3 481 522 480
3 480 522 521
3 482 523 481
3 481 523 522
3 484 523 482
3 524 486 521
3 521 486 479
3 522 526 525
3 524 522 525
3 521 522 524
3 526 522 523
3 526 523 527
3 529 527 528
3 528 527 487
3 527 523 487
3 523 484 487
3 488 528 487
3 530 490 524
3 524 490 486
3 524 525 531
3 532 524 531
3 530 524 532
3 533 532 531
3 534 529 528
3 536 534 535
3 535 534 491
3 534 528 491
3 528 488 491
3 492 535 491
3 530 493 490
3 493 530 495
3 530 537 495
3 530 532 537
3 532 533 538
3 532 538 537
3 536 535 539
3 536 539 540
3 496 539 492
3 492 539 535
3 541 498 537
3 537 498 495
3 537 538 542
3 543 537 542
3 541 537 543
3 545 544 543
3 545 543 542
3 544 545 540
3 539 544 540
3 546 544 539
3 500 546 496
3 496 546 539
3 547 502 541
3 541 502 498
3 548 541 543
3 547 541 548
3 549 543 544
3 548 543 549
3 550 544 546
3 549 544 550
3 504 550 500
3 500 550 546
3 551 506 547
3 547 506 502
3 552 547 548
3 551 547 552
3 553 548 549
3 552 548 553
3 554 549 550
3 553 549 554
3 507 554 504
3 504 554 550
3 551 509 506
3 509 551 512
3 512 551 552
3 512 552 513
3 552 555 513
3 552 553 555
3 516 555 515
3 555 554 515
3 555 553 554
3 515 554 507
3 555 519 513
3 519 555 516
3 556 525 526
3 556 526 557
3 526 558 557
3 526 527 558
3 527 529 558
3 558 529 559
3 556 531 525
3 533 531 556
3 557 533 556
3 560 533 557
3 529 534 561
3 562 529 561
3 559 529 562
3 536 561 534
3 564 538 563
3 538 560 563
3 538 533 560
3 564 563 562
3 561 564 562
3 565 564 561
3 540 565 536
3 536 565 561
3 564 542 538
3 542 564 545
3 545 564 565
3 545 565 540