OFF
1209 2342 0
1.4355717444 9.7108280485 14.2149685320
1.5155591830 9.7638222893 13.5405950292
1.8682620001 9.2072502214 13.8020831981
1.8104389522 9.1723033750 14.4215455261
1.3750707400 9.6273993424 23.4625171684
1.3836415968 9.3439046937 22.8514759674
1.7343588332 8.7803854649 23.3881687202
1.7064104474 9.2715403380 23.9356312656
1.1911368276 10.5228037649 13.9123632125
1.5300690324 10.1848752878 13.0843649104
1.5809687486 9.5463867024 14.9392484915
1.1645981553 10.4046213970 15.0449513179
1.5055501405 9.9109266192 15.7551036115
1.1672688686 10.6480283171 16.1379384183
1.4736438649 10.2126591726 16.4957989708
1.1247614880 10.5263940311 21.8978132727
1.2418355159 10.7411508581 21.0146845030
1.3717580117 9.9370392862 21.2741822858
1.3423344081 9.5875227094 22.0765717972
1.1449173359 10.2413867223 22.8381028702
1.2392405865 10.3518202129 23.5711251165
1.5481595316 9.9852155340 24.0321481517
1.3789053486 11.0529848070 13.1726335790
1.8709200607 11.0399393821 12.4920097483
1.7183747403 10.4943327135 12.6481766477
1.0510205400 11.4424356954 13.9893085198
0.9327962337 11.3697196751 14.8221396252
0.9225094786 11.4017417466 15.8988731373
1.2726726211 10.7064333084 16.8459891709
1.0298497663 11.4147654358 16.9973534991
1.2701688408 10.9875770225 17.4100483863
1.0111807147 11.5170850767 21.6621309836
1.1169443854 11.6384084527 20.8130059955
0.9945959627 11.3191075822 22.5719876016
1.1293793139 11.1332440593 23.3923877287
1.4364605219 10.8689595660 24.0367848506
1.6443541079 11.6615369336 12.9025614753
1.2765319461 12.0678939538 13.6795261547
1.7602078652 12.3373125578 13.1521774810
0.9779942781 12.2307262467 14.6535771545
0.8607804546 12.3172767171 15.7095268485
0.8569851685 12.3607597559 16.8611009707
1.1438637762 11.4978010699 17.8546208732
0.9548471215 12.3435876908 18.1026138642
1.1945453463 11.7070373561 18.6874870803
1.0130680569 12.5208572717 19.3295999556
1.1992839806 11.8676861429 19.4686885624
0.9472267709 12.5845249660 21.3445539859
1.0413480525 12.3213611159 20.5557265706
0.9377875033 12.4158590743 22.3648424409
1.0726759778 12.1766995561 23.2589503973
1.3794000690 11.8631583936 23.9824521724
1.5007873094 12.7604524682 13.7865983701
1.2311925898 12.8897982155 14.4388140477
1.6170992445 13.3559315160 14.2573248880
1.0674856775 13.2150880676 15.4710244144
0.9185711363 13.2732125188 16.6337851889
0.8909720655 13.3637124098 17.8478786809
0.9050267367 13.4119268428 19.1416103768
1.0678205449 12.3623658591 19.9977216447
0.9300870461 13.2524526854 20.5570351826
0.9078398886 13.3584825875 21.3164718525
0.9155203293 13.4569636088 21.0847323905
0.9151282599 13.6090376309 22.1055267261
0.8960216418 13.6994050900 21.4717668248
1.0652491609 13.3037804152 23.1555192810
1.3665623635 12.9540111698 23.9364613662
1.3824830350 13.5391436760 14.9160725383
1.4210266767 14.0077467403 15.5742018370
1.1948622202 14.0247425867 16.3850212329
1.5402015675 14.5008825006 16.1573678088
1.0944940689 14.1916379282 17.4661300674
1.0284855997 14.4506490241 18.8079840120
0.9404045501 14.3822107729 20.1406231986
0.9057478340 13.6588244524 21.1699945707
0.9106023150 14.2970037394 21.4065928160
0.9519707610 14.6725669644 22.4146819046
1.0995879719 14.4301182171 23.1260647290
1.3969304201 14.0843942244 23.8949089537
1.4868031800 14.7478212425 16.9435217308
1.4231025182 15.1077171011 18.0927894099
1.2538312584 15.2648953820 19.0489999830
1.1280845964 15.2374414730 19.7974641884
1.3237981269 15.6164824605 19.5053834216
1.1025461065 15.4575907637 20.9981232240
1.0469535651 15.4188028429 22.1482372579
1.1632062190 15.3850705707 23.0214629609
1.5354643635 15.2476419714 23.8195706401
1.4907393025 16.0731890528 20.1389715322
1.4009846044 16.2865406888 21.1646904408
1.3182154773 16.2014504874 21.9301070437
1.6619240829 16.7197347393 21.6697846375
1.3573695073 16.1302396920 22.7834415072
1.5092281139 15.9759546591 23.4328665182
1.8805296257 16.8040655847 22.5238709175
1.7909344023 16.4844260090 23.2706694508
2.2833645856 8.1528136042 19.7355384211
2.4552397293 8.2061158394 19.1096595230
2.5952654283 7.7221863240 19.2888497217
2.5181668849 7.5221281471 20.0651375569
2.1187433047 8.1472642212 20.6193399045
2.4419800983 7.4439970360 21.0782604502
2.0269664361 8.0788464971 21.6452939677
2.4180346040 7.4315955584 22.0870285391
2.0575890393 7.9494476043 22.4516045120
2.3946831605 7.5757429659 22.9644690263
1.9833050820 8.1587138502 23.0114548367
2.2903259372 8.0089193948 23.6321131810
1.9601770324 9.4948117186 13.0208734885
2.3856787138 8.8774318246 13.4344582640
2.5051625277 8.5983967946 14.4607186208
2.0013522275 9.0500341696 14.9090073477
2.3694337169 8.8036834977 15.3013666289
2.2239657624 8.6363375837 19.4327342374
1.9853025086 8.8473720259 20.0957278564
2.0626724989 9.2853298890 19.4627691314
1.7011507357 9.0069964546 21.1889893559
1.6919737385 8.6676239060 22.3960097426
2.1730410107 8.6594206566 24.1236482714
2.0735340368 9.4793245460 24.4408198263
2.7716364652 8.7173805184 24.6917663130
1.8787720782 9.9939293594 12.6377078706
2.2741287744 10.2512841927 12.2146523184
2.1765611071 9.6813891908 12.5357087324
1.9652470012 9.2651080311 15.5688761613
1.9748112904 9.5472172006 16.5657447735
1.6149963334 10.3397268570 17.3162839913
2.1234352179 9.6274066519 17.6433024516
1.8168380077 10.3041547079 18.2472357978
2.1310338896 9.7494999378 18.3527398733
1.6387245397 9.9538643674 20.2314171318
1.8981993288 9.9716424259 19.3256998852
1.9220876018 10.4422896357 24.5341323481
2.6572572654 9.9217225906 24.9915720822
2.2836764717 10.9877492758 12.1047682951
1.4240586532 10.9704197320 18.1206004547
1.9458741602 10.1150323016 18.8111337143
1.5328869335 10.8698186392 19.2497607123
1.3486813978 10.9868014884 20.2701982560
1.8190959723 11.4370329897 24.5334892515
2.2731460312 10.9761662207 24.8987624918
2.3171039344 11.7608305727 12.3213926197
2.2462421083 12.6596993175 12.9093071484
1.2173702249 11.6984108767 20.0602833544
1.8045744919 12.4877806577 24.5379581701
2.2837120062 11.8825502502 24.9610807039
1.9243201581 13.0560705561 13.5574383531
2.0714879123 13.6965032703 14.0677448849
0.9119502973 13.5437936258 21.2699813798
1.7958762458 13.6043738790 24.5174856304
2.2918961393 12.9939710354 25.0037151304
1.8303786584 14.0676833034 14.8764152010
1.7738707730 14.5038207723 15.6326391594
2.1680996694 14.7556967289 15.3382521852
1.8502203435 14.6793136474 24.4605105603
2.1872494720 14.1703154973 24.9031433285
1.9970496599 15.0774105723 16.2492339586
1.8945379913 15.4399664753 17.3079617786
1.8531846707 15.7370873238 18.0968764627
2.2231686498 16.0293001765 17.7014358199
1.6143122121 15.8083296056 18.9732190515
2.0678567255 15.5060067458 24.3972625622
2.3102314232 15.1315453297 24.8041863628
2.1554370210 16.3022336464 18.5007125600
1.9899566312 16.4941757487 19.4390520519
1.9513912015 16.7347857968 20.1848954352
2.3030354402 17.0301904274 19.8276870734
1.7988852205 16.7559237531 20.9168392511
2.7234531863 15.9613143579 24.6109908574
2.1131093142 16.1792451205 23.9300903015
2.3082749447 17.2426238680 20.5892906122
2.2915229069 17.2933197478 21.6451546982
2.8090668010 17.4352189007 22.6753034569
2.5012575881 16.8832069456 23.4017582813
3.3695624527 6.8220816315 18.5491304504
3.7085414718 6.8568873900 17.8874346001
3.8384752989 6.2441124376 18.3579515969
3.5818835018 6.2280585805 19.0093445660
3.0057733990 7.0074035022 19.3488987075
3.4331033885 6.2185894109 19.9198657792
2.9180794864 6.8413911380 20.4886929040
3.4291435124 6.1857436839 21.0194377419
2.9005096522 6.8182923033 21.5935994844
3.4743544282 6.2564103414 22.1761591484
2.9221487823 6.9161692795 22.6689807695
3.6037759284 6.4177446250 23.3304204337
2.9429918868 7.2241235615 23.6692880484
3.5383825840 6.7938979281 24.0592747684
3.3091697830 7.2756345712 24.3269388319
3.8223225337 6.9535992391 24.4763665560
3.4417583380 8.2068178672 12.6194215669
3.5376705984 8.5787022754 11.8436829938
4.0584109144 7.8625329318 12.0383729337
4.0189140257 7.4811918430 13.2120753458
3.0796933600 8.2432500180 13.5450692590
3.6433404130 7.6611047765 14.2787003320
3.1076383170 8.0758055214 14.3283743413
3.3230340751 7.9315264276 14.9681687149
2.8822950365 7.8537337749 18.3861025495
3.4359130583 7.6356569865 17.2601604182
2.8076093755 7.8999233540 24.2743898000
3.6184652320 7.7273606341 24.7516817636
2.7551725650 9.1196293351 12.4715558159
3.2884960675 9.2183776925 11.6305923081
2.9284717162 8.3344025305 15.5286308195
2.5211013326 8.8026380708 16.0964131766
3.1849184580 8.1279197623 16.4341140576
2.6637266291 8.6773004539 17.2178436754
2.4171063165 9.0464240542 18.2117234860
2.3796384292 8.7586206548 18.8884734607
3.5316023695 8.7251713355 25.1246296557
2.9981872553 9.8949187579 11.6558333170
3.4751941868 10.3488721882 11.0766383686
3.5084824083 9.6294923878 11.1767464979
2.1732991371 9.5119858822 18.8435724296
3.1846246211 9.4920900805 25.2435513574
2.8893207041 10.4060992614 25.2664575845
2.8514110813 10.8714502601 11.6445648419
3.4292539630 11.0049949603 11.1281937051
2.8888700883 11.0629450832 25.3446818420
2.6975895606 11.1498483161 25.2147971427
3.3985435614 11.8322284067 11.4207822022
2.8407393419 12.6703869895 12.3532326523
3.4966868245 12.8783471977 11.8174125795
2.6797126929 12.1228757722 25.2556345311
3.1967429097 13.4788908335 12.5232379864
3.5974396957 13.4398163656 12.0409882294
2.5458544828 13.4868563303 13.2990006463
2.6355298773 12.7748121878 25.2581047421
2.4227807911 13.6869076819 25.1302168846
3.7192081182 14.0961602028 12.3800289651
3.1454814326 14.4060716042 13.3689039643
3.6398213098 14.8492804874 13.0413859367
2.5117764876 14.4753776402 14.4046266949
2.4144003592 14.6643043421 25.0303082520
3.4497168890 15.1998212563 13.6518587754
3.1194617761 15.2786155789 14.3548067641
3.5642596139 15.7978393944 14.1549253805
2.7354305924 15.5877167367 15.5782112507
2.4382598078 15.9080168155 16.8683201024
2.6922905943 15.4909244478 24.9206211695
3.3900157910 16.1471825077 15.0009177724
3.2424881410 16.4704868320 15.8572551220
2.9875055117 16.5235943198 16.6335163118
3.4038685980 17.0465472642 16.4345321270
2.7416062424 16.7820416984 17.8557946107
2.5050065582 16.9783859316 19.0492898159
3.6323246296 16.3615297433 24.6674342000
3.0624655690 16.6458509886 24.1470392302
3.3438229465 16.0051409286 24.8686550995
3.2979663912 17.3300935928 17.2768280975
3.2196890974 17.5981722525 18.1029388496
3.0129674844 17.5850910106 18.8391195117
3.4063659396 18.1211256120 18.6534019476
2.8059357415 17.6512601601 19.9059364772
2.8587966431 17.8718411194 21.0229027227
3.1042610691 17.9734395891 21.9648103494
3.7027131395 18.0571556618 22.7257799438
3.7200395435 17.3453247485 23.6115271785
3.3631314954 18.3123397123 19.4950769863
3.3368520745 18.4264077743 20.5082118665
3.4718932850 18.5138501346 21.4220240017
3.7526887969 18.5221172471 22.1190582648
4.3557201710 5.0259789902 19.4813758249
4.7455561507 4.7661210234 18.9309919647
4.7420513484 4.5618640442 19.3468107589
4.7223412115 4.5525367333 19.7227619972
4.2041370963 5.5304297235 18.7240785822
4.5065014255 5.8893263864 17.9004214822
4.7891540239 5.1229216764 18.3604026117
3.8771858335 5.6751389161 19.4562096345
4.4731008598 4.8607523219 20.1616306671
3.9905136715 5.4864960128 20.3602778404
4.5410339317 4.9500145351 21.0122780887
4.0334619865 5.6053874019 21.5997622474
4.8012597912 5.0876986569 22.2365059593
4.1295760863 5.7681847057 22.7334612408
4.7737721534 5.5181345117 23.3104604480
4.2474552516 5.9323825213 23.5414960172
4.6596982194 5.8611003621 23.9235526584
4.5657054447 6.9477648278 13.6464157203
4.6670414677 6.9482371781 13.0553685611
5.1608290301 6.5828414333 13.5188056806
4.8927062512 6.7312971793 14.1923364574
4.3271576762 6.7470372253 17.0893378662
4.1730284270 6.3618242159 24.1256809385
4.6095831601 6.8543300887 24.6814703710
4.1331113027 8.3243736332 11.2332405731
4.5608624850 8.2399661282 10.7075671137
4.7425838144 7.7049591277 11.1383132684
4.7552431063 7.1537016331 12.2094665298
4.3363781856 7.1210922976 14.2650731851
4.1650483960 7.2735653901 15.2239451304
3.6392458799 7.7169870191 15.8549954123
4.3308251813 7.0746002573 16.2195842078
3.8028802217 7.4795573460 16.5904158407
4.6706930690 7.8728897383 25.0779211656
4.3340178703 8.8020594851 10.6248792977
4.8120376404 9.1737952664 10.0158991486
4.7778390984 8.5105960079 10.2681356827
3.7885526433 9.0175085119 11.1522371847
4.2582851397 8.4691676824 25.2584587317
3.6545296056 8.9011967828 25.2904043245
4.1249463318 9.7345365100 10.5791115197
5.0857170278 10.2871644431 9.7233505848
4.1011022183 10.9588582778 10.6108569205
5.0499733164 11.5121852054 10.0596240683
2.8679039327 11.6378047657 25.3573881078
4.3785260311 12.0024531144 10.6807041521
4.0095567074 12.5820191693 11.2087990328
4.8115408761 12.8991949493 10.7942397252
2.8317284150 12.1934081791 25.3573675337
4.1174499487 13.4037637686 11.5623303518
4.9814727027 13.8021741589 11.1816910384
5.3376220827 13.6736362035 25.2508961679
5.1725778700 13.5031882736 25.3650299448
5.3585981077 12.9900506772 25.2847744514
4.4591789661 14.2885497528 11.8072952995
4.1499082850 14.9316687126 12.5165551904
4.9249582533 15.1142516889 12.0112401047
5.1455452370 13.8488661872 25.3586005342
4.5079044602 15.6628734240 12.6932852913
5.0520503598 15.8044056041 12.3734242050
3.9340546836 15.6362057264 13.3822232246
4.8282849893 16.1638295613 12.7846349004
4.4672878392 16.3026390962 13.3352197390
5.0218696949 16.6599999908 13.1309633801
4.0624391994 16.6629952799 14.4177490684
3.6801923661 17.0120941693 15.6725010866
3.8850404031 16.8019225909 24.3297222177
4.4822457742 16.4516563305 24.6709095001
4.3550262458 16.0071544364 24.9148142303
4.7312192480 16.9256867192 13.7700537326
4.7380761689 17.5391972587 14.5162780337
4.2557197808 17.8108772634 15.5773277856
4.7630404003 18.1985784748 15.2188484396
3.7971939914 17.8622304971 16.7497306486
3.5987875589 18.1271842338 17.9081397841
4.9164963544 17.5274469395 23.8132170913
4.5712997912 18.0965577549 23.2364590820
4.6045967110 16.9750958392 24.2566798796
4.6066669112 18.5273041227 15.8300527377
4.3821369019 18.7300614681 16.5990154734
4.7198668319 18.9075139243 16.1498947604
4.0711069310 18.8411490124 17.7169374269
3.8403970559 18.8838448544 18.8931611750
3.8220346175 19.0535664422 20.1014250723
3.8047412706 18.9986140192 20.9674256337
4.1584080011 19.1373005874 21.7231543621
4.5183941956 18.7914227583 22.5272364828
4.9584699753 19.3651498152 16.5721418961
4.6001862906 19.5071451707 17.4841345894
5.0997064481 19.8867097185 17.2891313941
4.4279746283 19.6761532655 18.5369248870
4.3660638934 19.7772040338 19.6832456039
4.3804875450 19.6764859339 20.8617999478
4.6711893506 19.7119683438 21.6355995950
4.7642157162 19.4335581233 22.1022713038
5.0325528555 20.1566008795 18.1068860089
4.9779179405 20.5097171608 19.1993399229
5.0152645213 20.4987910229 20.2794395426
5.1064613145 20.1489212005 21.2351589940
5.3184555681 4.1222684176 19.4805574136
5.9902519027 4.0876814060 18.8840965423
6.1666972491 3.5648462025 19.4120792413
6.1440195670 3.3296990898 20.0717565539
5.4922716400 3.8395090921 20.5119717790
5.9558531155 3.3783293823 20.7593560692
6.0568925942 4.2783078301 3.8083507171
6.1870743856 4.2972740558 3.4314441695
6.1160359482 4.0359474079 3.5454450857
6.0218997079 3.9000535308 4.1448164561
6.0445380125 4.3041256099 4.4832551553
5.9913662337 3.8312481139 5.0524057721
6.0230812649 4.2903443603 5.5055934298
6.0210601977 3.8517949009 6.0648172521
6.0665552556 4.3518402576 6.5214402006
6.1746776758 4.0060029151 7.0150853612
6.2128825695 4.5296129820 7.3442329220
6.5622151715 4.4930570192 7.9970667527
5.3127776408 4.5690262856 18.5951545311
5.3385836104 5.1197269992 17.9914769282
5.8878087001 4.6058589526 18.3383622941
4.9212339474 4.4112102482 20.3540347367
5.6785110303 3.7338054769 21.1648593912
5.2124654574 4.3345931149 21.3531471375
5.8281389504 3.9264209897 21.8011206863
5.5034653235 4.5211325097 22.2617465320
6.2219784795 4.2753196260 22.5100387264
6.4749566500 4.6950701236 3.5822184685
6.3819971439 4.6258473993 4.8224967333
6.3360084041 4.5806125590 5.9628975452
6.3507378507 4.7076540958 7.0195736603
6.4701492522 5.0329390028 7.9638381546
5.4808222927 5.8068289995 17.2135359326
5.6025943188 5.0667946568 23.1288459418
5.2870626975 5.6790405135 23.9351032571
4.8562072011 6.1305535103 24.3218527512
5.5404440484 6.2351204117 24.4778327478
5.0967044600 6.7102776388 12.7465700610
5.5359337974 6.5829039237 12.1562761793
5.5848261840 6.3885132560 12.9046923949
5.9711706886 6.1541877877 13.6220132526
5.6481107196 6.3364420265 14.5821619664
4.9193049961 6.7458471098 14.9480059886
5.5597510929 6.3637426108 15.5013909347
4.9620785229 6.6788454972 15.8251096229
5.7324890582 6.1134899346 16.3339555519
4.9832810000 6.4835000353 16.5567973667
5.6222577636 7.0647597083 24.8690390295
4.9606495246 8.0579975822 10.4052786516
5.3456378551 8.4416433321 9.7699206716
5.4800520329 7.5595445410 10.2863259597
5.4637309826 6.9806428851 11.1971505661
5.8874655522 8.0411792135 25.0276739464
5.3905489582 9.3695997987 9.3910115114
5.1903835038 8.3888828644 25.2013339995
5.5832683039 9.8993394512 9.1300855978
5.8870966767 9.8726890963 8.8571770892
5.7928087149 9.5406130977 8.9489518315
5.7768627855 10.4891839028 25.2680500013
5.8446288311 10.0202654507 25.2375234190
5.9525019056 10.4186627657 25.1215416728
5.9841707790 10.3454084713 8.9740412486
5.9730019455 11.2509693305 9.4109595585
5.7289477088 11.1089767419 25.2290382688
5.8942208731 11.5294903203 25.0526822572
5.0973947916 12.2911511782 10.3075195434
5.8945848687 12.2350661751 9.9237767432
5.5913064693 12.0773910345 25.2158429321
5.7292899748 12.7263563028 25.0651868967
5.5165027817 12.7903872779 10.3267071758
5.7973985663 13.4752331840 10.6339447694
5.7752379052 13.6609172880 24.9863235768
5.1151374621 14.4820158012 11.4784270322
5.7886814528 14.2954275314 11.1184944639
5.2144615157 14.3515611255 25.2512943785
5.5401030854 14.5893290048 25.0263377547
5.6022120303 14.9233060532 11.5490796578
5.8920467293 15.7226635955 12.0302190365
5.0721170365 15.2163434325 25.0876697608
5.2418640216 15.7679348946 24.8450363738
5.3326287668 16.3127167079 12.6097737167
5.4433359762 16.7652248886 12.9527416643
5.1628484195 16.5066799483 24.5635930274
5.5704053157 17.3474248821 13.5680541365
5.2868151410 18.1663801773 14.6273307012
6.0916804378 18.2474486755 14.2200849989
5.3548676117 18.0275135566 23.4966975825
5.8704787270 17.5256892902 23.8254428750
5.5166642613 16.9394861814 24.2221461424
5.6842254280 18.6582147734 14.8533212602
6.1696003691 18.7653939221 14.7566940981
5.1577617160 18.8331180778 15.5710932725
6.1304456972 18.1628940923 23.4074513082
5.4193882306 18.6019036516 23.0212981228
5.9690289796 19.0614317766 15.3470054202
5.7047515348 19.4448304231 16.1288912162
5.4769627280 19.8256583307 16.8132803049
6.1470937298 19.8658642828 16.7121287626
5.1481701661 19.8255009140 21.8764622952
5.5000326868 19.3803349040 22.3733975108
5.7522989543 20.2088069014 17.5275109552
5.6900828537 20.7014408006 18.6336024381
5.4128875799 21.1275776259 19.2762186589
5.8122813782 21.1993495087 19.2028456771
5.2601565669 21.0781434307 19.7645493129
5.5172079172 21.0961474041 20.1528838282
5.7653406000 20.6609580851 20.6890424902
5.8675904317 20.0676164417 21.6340670837
5.5801912877 21.3743055367 19.3339522408
5.8171779511 21.4186413498 19.3964991703
5.3937853914 21.3333698125 19.5796908192
5.4665570897 21.3201485863 19.8877726602
6.7449701420 2.8162011044 3.7458215648
6.9723087633 2.8152890896 2.9167785672
7.3989032669 2.3914951353 3.1843762871
7.4442150636 2.0567166123 4.3562615315
6.6734099623 2.6816094666 4.9612538238
7.1661753914 2.2441542721 5.6000087100
6.6251631262 2.7452519429 6.0298321234
7.0703318498 2.4445631718 6.5114441651
6.6815167469 2.8819146480 6.8653784914
7.0371689294 2.6569335974 7.0967128681
6.5544934747 2.9285297261 20.7742419947
6.9119177449 2.8984860880 20.1634169151
7.1570257951 2.5557426845 20.5333279043
7.0389010490 2.6172167389 21.2034146194
6.6914361804 2.9748145302 21.4676058820
7.1143987351 2.8333503309 21.5638228807
6.6853984614 3.2723403096 2.9594452836
7.0498262101 3.5051753970 2.3494093654
6.9619252841 3.0629851542 2.5826518813
6.3017812251 3.5567093296 3.5996562377
6.2406227025 3.3203616206 4.4966689381
6.2232270058 3.2679415424 5.5413432151
6.2922604521 3.3419703067 6.5195677910
6.8431128257 3.0206175528 7.3646361835
6.5206766466 3.5056095732 7.3161019878
6.9739758289 3.5463879112 7.7238631162
6.6654900452 3.5761958891 19.2390813689
6.8313665402 3.1108309444 19.7553628156
6.1479871803 3.3521784098 21.3344185250
6.9797180514 3.0880328338 21.7928388692
6.4475512293 3.4729214512 21.8993167056
6.9761148490 3.4620169789 22.0960913794
6.5244273303 4.0484361003 2.9752326921
6.9831334643 4.1062376917 2.3503019153
7.0309751825 4.4900122600 8.2312379003
6.1471603535 5.0520854278 17.8527358904
6.7264639300 4.5333979707 18.6603031101
6.8635141678 4.6433922906 22.6259186393
7.0864453629 4.7623989772 2.5135423182
6.9163989706 5.2589669731 2.9613113405
7.2342457063 5.5393332109 2.5395764896
6.9331786249 5.2918023889 3.3513507861
7.0057837675 4.9832131166 4.0649614676
6.9924001847 4.6236302164 5.3167970674
6.7998461812 4.6297834554 6.5144529245
6.8090538988 4.9493903951 7.6902544836
7.0379411611 5.2462108335 8.9648053695
6.6729622509 5.6969283389 9.0146144273
6.7169325123 5.7578744472 8.5906074052
7.2149032483 5.8141997704 9.5279164309
6.3512829281 6.0074453959 12.6062812800
6.7100354175 5.9087271642 11.6249868056
7.2846622777 5.4886939917 12.2085566020
7.1973048648 5.5322602957 13.3875538399
6.6271866355 5.8223048478 13.6577182110
7.1272947850 5.6256010385 14.1618801541
6.0922204246 5.7766731018 16.8362332272
6.4117371680 5.7864153663 16.5469612572
6.6443334428 5.4808197706 17.2128191517
6.7804387372 5.0668527499 17.8876561221
7.0424447636 5.5104810598 20.5228239931
7.1018503314 5.2438099052 20.1506389142
7.1956944531 5.6611112613 20.1509203151
7.0408510483 5.5356976449 20.9077888180
7.0396987735 5.1094308846 20.6978341777
7.0931283661 5.2967752485 21.2643260152
6.4196194348 5.0085902400 23.1983886526
6.2337573479 5.6514649588 23.9166732668
6.4867914917 6.4459549008 24.5280940532
7.2476074255 5.7293826429 2.8270924124
6.5219795940 6.5053582135 9.1512039890
6.9241686773 6.7619755770 8.8899504472
7.0255943153 6.0959978686 9.7598177042
6.2600769749 6.6157239943 10.0870964391
6.7470092259 6.0801683814 10.7124536371
6.1558693401 6.3527834768 11.3898338253
6.6453925374 5.8810162754 14.5663319475
6.4861721905 5.9419376044 15.7319472871
7.1951034148 5.8650959312 20.6948853851
7.1779599529 5.7419285251 21.2618233132
6.4095878928 7.2476539614 24.8202881159
6.2222534409 7.6568547582 9.2710243649
6.9205579182 7.8366439281 8.6909478128
6.7647031656 7.8683020174 24.7148074039
6.5988052699 8.6217941718 8.6194177831
7.0205473256 9.1591576816 8.2731854029
7.3183920593 8.4990998907 8.3455341043
5.9248550986 8.8794934030 9.0409212401
5.9535357088 9.2279677014 25.1046187113
6.5304792300 8.7875790867 24.8060085084
6.3722654832 9.6007922114 8.6086523794
7.2609395434 9.7834736887 8.2358777221
6.4343479820 9.7979740793 24.8094110708
6.9299000365 9.3196038050 24.4776669392
6.9776245947 10.1625146299 24.3411698248
6.8064408560 10.3796717035 8.5701191967
6.5009745472 10.9042573625 8.9096070239
7.1651633841 10.9670269468 8.7488443708
6.4077456780 10.8700396841 24.7276808435
7.0933147113 11.2744415700 24.1855849826
6.7567097468 11.3457474406 9.0927694527
6.8124933049 11.8900701233 9.4849399464
6.3653120212 12.0252061866 24.6756780875
7.0835440415 12.5875539166 24.2225081227
6.1171001143 12.9606306341 10.1986034344
6.8968586699 12.7299121510 9.9605520730
6.2917467515 13.1300731120 24.6925840720
6.8113347918 13.5920085139 24.4082830370
6.5809167435 13.3640380389 10.3403954507
6.9468263252 14.0354137726 10.7853560736
6.2213200229 14.1193687202 24.7131744796
6.8982144186 14.4705981059 24.3743384852
6.4431710080 14.9383312847 11.3817433052
6.9704740544 15.5448830040 11.7449645647
6.1173858224 15.1390617665 24.6644149140
6.8489096345 15.5304418486 24.3028958996
5.9734669363 16.6362098419 12.6953970226
7.0768507379 16.3213116757 12.3344875747
5.9308435179 16.1394846679 24.4971675252
6.6241489716 16.6722356760 24.0778843754
6.6906328203 17.1595552608 13.0284689917
6.4840823419 17.7525381280 13.5778512263
7.2609958191 17.6476812685 13.4279776448
6.7621629371 17.5537597005 23.6942909409
6.9736140664 18.1385645322 13.9914636095
6.7646265032 18.6087254651 14.5963788244
6.8828339035 18.1282212841 23.3528289619
6.5957381378 18.8424255488 22.8024147859
6.5539021782 18.9892243469 15.1176388782
6.8099496577 19.3529164157 16.0021890276
6.8448285290 19.8369694043 16.8521242207
6.3598180489 19.6175596814 22.1623505967
7.2406168767 19.4723601702 21.9906239874
6.6596566556 19.9631707376 21.6731770434
6.4896619467 20.1281451510 17.2901170425
6.6052038886 20.3919242263 18.1377455929
6.0093400647 21.2504511332 19.6238800704
6.4367466368 20.7906441664 19.1960433266
5.8949854660 21.1186803497 20.1174018669
6.3475799458 20.8249528870 20.0988572040
6.6466001321 20.3463198406 20.9243877943
5.8774503259 21.4419244348 19.6094985855
5.7637173486 21.3454282068 19.8936278975
7.9707783367 1.6172689863 4.6016124794
8.0182716029 1.6177087746 4.0701299924
8.3358015341 1.4648115704 4.3056766512
8.3308646585 1.5875229759 4.8851182536
7.3957744097 2.8366402332 2.4211511426
7.9944778269 2.8133954104 2.0228071062
8.0298190708 2.3993394178 2.5567666770
8.1027571729 1.9230988761 3.3940015432
7.8552562349 1.8853666270 5.3798956764
7.5430387501 2.1710082671 6.2033406851
7.5012137350 2.5106392557 6.9332903855
7.1685073533 2.8753695531 7.4099159431
7.4840001350 3.0527757579 7.4398219274
7.1729373763 2.7644831042 19.9465220294
7.1658177063 2.9647972023 19.6600557671
7.3731954642 2.5647132182 20.1266926416
7.4447606239 2.4271064746 20.6619879429
7.3628776549 2.4398636294 21.1453239111
7.2821810858 2.5947112056 21.5917974815
7.2024305566 2.8853042907 21.7710675183
7.2925170268 2.8048972976 21.8506030622
7.6864304125 3.2862490917 1.8890424912
8.0446947967 3.5757734258 1.5984264161
8.2825479947 3.1350264650 1.6721351759
7.3617825443 3.7451039106 7.7014595386
7.0729901332 3.6306952505 19.5482160195
7.2867168426 2.9644022371 19.7353349957
7.1776274413 3.0446132185 19.8349108077
7.2950361696 2.8231344103 20.1426808591
7.1413479379 3.3623484198 20.3462682779
7.1735548302 3.3471840749 21.5098361530
7.3227178992 2.8555233003 21.1897687030
7.2333363790 3.0181687735 21.7218687824
7.3293284426 2.8810575725 21.7219177740
7.1937293873 3.3338244526 21.8886885989
7.5432518041 4.0024655138 1.9322067525
8.2350082286 3.9666860069 1.6172336953
7.3834501860 4.3338882715 6.0816863172
7.8030357586 4.0451465958 5.8834105164
7.7290236454 4.2556079673 5.3356785208
7.2565293829 4.3709480608 6.9796862177
7.7637064806 3.9098190488 6.4350168270
7.2069219302 4.4834347512 7.8191066526
7.6084296334 3.8246774871 7.2048330054
7.0721363380 4.4844042135 19.3663663151
7.1214015835 4.5118742599 20.0731227553
7.1312662301 4.4638143356 21.1700018498
7.1151757888 4.1161278470 21.9723219096
7.9997843861 4.6577161675 1.9722971557
7.5565258434 5.4131063911 2.2376017928
7.9927623720 5.5893541700 2.1516491000
7.6237762660 5.1377263876 3.6585656164
7.8749619816 5.6468786469 2.9497359266
7.3631037526 5.5372727276 3.2514261847
7.6408782679 4.6644743970 4.4316792429
7.2037988642 5.5422654253 8.8559508167
7.8123244821 5.4928913588 10.0153600478
7.9185762384 5.8800173113 9.5698198224
7.3264667040 5.8368080074 10.1883709280
7.6821251328 5.3780477859 11.1964938072
7.1273224687 5.7157035435 11.1957356687
8.0542582983 5.0464827751 12.1479422210
8.1005369546 5.0577719830 13.2732351735
7.8948282934 5.3485636150 14.4346689176
7.3796982193 5.6096629569 14.7801748983
7.8877485031 5.4999717405 15.2779210874
6.9419554897 5.6746277540 16.5416290570
7.5331301851 5.5296368820 16.9041128838
7.5553780222 5.3656365237 17.9110203072
7.3690488589 5.3500700091 19.3508056109
8.2975975533 5.9340537724 18.6443586016
7.2840461763 5.5264563037 22.1116456151
7.0692141939 5.5999647315 23.3727757913
7.4549597793 5.9639027920 22.9841956918
6.9392095118 5.9684128291 24.1073533299
7.3396432030 6.1104724310 23.9392576157
7.6824813136 6.2476873960 2.2105767938
8.0468852029 6.6529702450 1.9258537321
7.6771597505 6.1787058709 2.5576197170
7.4177327643 6.3777986482 9.2192421505
7.4477630768 5.9518649784 9.4872122472
7.7406230501 6.2145920877 9.5536026436
7.3318447071 5.6970753450 15.4452025223
7.4176361954 5.6616588972 16.2190090691
7.9355929784 6.1574960569 19.3691885283
8.4851508327 6.4857007253 19.2307069312
7.5991963219 6.1843942889 20.1288626647
7.5401936418 6.3132922306 21.2186897459
7.6633141295 6.5121455971 22.0359213347
7.6952261445 6.5443077657 22.7586470811
7.1619480457 6.3763796823 24.3081125724
7.0905673012 7.0405056830 24.4818557284
8.0085669359 7.4197948602 1.6219606826
8.1303140669 7.8448320917 1.3461987369
8.1368099870 7.4809143430 1.5049444951
7.9363177228 7.0078786175 1.9350187182
8.0525131309 7.5767074578 1.6089806624
7.6731783459 7.5757145645 8.6863519338
8.2984159998 6.9627403860 9.1119426106
8.1814964221 6.6288935971 19.7664913684
8.1868975552 6.9884699321 20.6170344361
7.9552249622 7.0664907260 21.7114979560
7.8481358286 6.9582853726 22.3108546915
7.8482340658 8.0566831969 23.4606538445
7.5971864761 7.9356321841 23.9510034113
7.8052041078 7.5677345901 23.5432408278
7.2872778996 7.7124146981 24.3612256558
7.5681024695 7.2895635769 24.0226178185
8.0940012433 7.9933767426 1.3317314937
8.1829828324 8.0766128151 1.2606061789
8.1011820877 7.9119891674 1.4163691402
7.6965710013 9.1811833563 8.1129898101
8.1338032697 8.5419498649 8.2944097402
7.6570432598 8.4971124019 23.7991625164
7.5236964841 9.3089472458 23.9081278360
7.2027219873 8.4935848623 24.3322018108
8.1331676355 8.1389388517 1.2821243824
8.0408115641 9.7733498578 8.1059398309
7.6064936331 10.3345892127 23.8057030754
7.7243021925 10.4151058996 8.3938929459
7.8256114537 10.9852572099 8.7437234029
7.7498098243 11.0391693698 23.7185470727
8.1563698723 10.5132228590 23.4293170003
8.3442321153 11.1856723814 23.4174644488
7.4584400120 11.4624685232 9.0914423484
8.0113720611 12.0175082931 9.6108160542
7.7336479653 11.8084060820 23.7918485100
8.4885784460 12.0559349549 23.4950893892
7.7321904823 12.9051408624 10.0765607154
7.2169504952 13.3550206616 10.2975277044
7.9725397389 13.4499584214 10.4721011184
7.8712266972 12.6168497493 23.8167190532
7.6346864989 13.5799628945 24.0328663322
8.3063803855 14.1265706034 10.9901468606
7.7210618953 14.7518662311 24.0483107157
7.5832625786 14.8979625403 11.3606973983
7.9565751723 15.6293836728 11.8986066721
7.6936989234 15.8542384079 23.9630323778
8.2710729634 16.2618836362 12.4283354109
7.6725619321 16.9206031583 23.7284281054
7.9398682912 16.9868432627 12.9918053672
7.9745085088 17.5839527950 13.5706995965
7.3966237144 17.6851213762 23.5054045078
8.0607456404 17.5027063641 23.3839800847
7.5471736445 18.1741378777 23.1265560492
7.6404421958 17.9538216415 13.8903747329
7.2125410220 18.8813056988 15.2436080839
7.7598458182 18.3289814515 14.6748929570
7.4744136635 19.0365865365 15.7641857794
8.0045771785 18.6994023625 15.6612127009
7.9035883906 19.0629110864 16.3326151323
7.7649485132 18.7325495746 22.5597050527
7.1567659080 20.0236507886 17.5302349928
7.6583693921 19.5380048598 17.0382270208
7.3860169378 20.1543558138 18.2047117277
7.8786581369 19.8046889395 17.9799602038
7.8480081005 20.0066917825 18.6572264776
7.1884434938 19.9695633929 21.3409674404
7.9157527959 19.6555431078 21.1220823545
7.3938620028 20.1184566524 20.7587312489
8.1850747390 19.0837420497 21.9093409585
7.2742352690 20.3340754581 18.9112271658
7.1732631158 20.3905539102 19.9566798394
8.3960930024 1.5807073802 3.8060424837
8.8117555919 1.9113724559 3.4040248203
8.7108053241 1.5745426822 4.0405517697
8.6191979639 1.5142296637 4.5197586172
8.6736998232 1.7285240747 4.9158121356
8.6214013854 2.7114646761 2.0331171054
8.7028335278 2.2323688655 2.6842226644
8.4397770911 1.9308582544 5.4717002048
8.0803103928 2.2382516544 6.2723323115
7.9430292470 2.7604581480 6.9401640444
8.3287853676 2.6254757866 6.4329100758
7.3993903258 2.6953525363 19.9424550225
7.4703696659 2.5650358651 20.4945310948
7.4734180558 2.5349820101 21.1586460929
7.4193612467 2.5618436947 21.5705717369
8.5287218449 3.4825887190 1.5161396840
8.7458120767 3.1338617603 1.6475786479
8.2488670405 3.6113989349 5.6375593608
8.7298188271 3.0156619777 5.1997377037
8.6549497220 3.4972795982 4.7916836145
8.0968340264 3.2350161421 6.6284123202
8.5459681482 2.8200138476 5.8968943906
7.7549068937 3.2805047244 7.2831588316
8.7931854408 3.7237876881 1.6827393581
8.4618185874 4.1805839098 1.7105371955
8.7091841309 4.2014361809 1.9704262567
8.2621410414 4.7019153057 3.5673804053
8.7688484652 4.1275816838 3.4303052718
8.7030728199 4.4593202296 2.9060142527
8.2498066746 4.1047858659 4.6402865129
8.7371554350 3.8164433686 4.0110932968
8.6645089016 4.8637029247 11.3793481814
9.2092054443 4.8250590492 10.9810360166
9.4942225494 4.4931357285 11.3452028841
9.6340041034 4.0656598210 12.2360665891
8.7421057107 4.6297093611 12.6564021867
9.4183273596 4.2994414614 13.3074335466
8.8663617041 4.6595908514 13.5597774160
9.3532545920 4.5438415145 14.0226610770
8.2254989387 5.5214005011 2.5342858049
8.4771966128 4.7768535023 2.2888197457
8.5337383516 5.7294457102 9.9278337951
8.9589318007 5.2460262749 10.4735862743
8.9266647299 4.9245075467 14.4670555786
8.7183936741 5.3133563723 15.6575964700
7.9997704436 5.5382231814 16.0250908409
8.4593768429 5.4992260849 16.9170406427
7.9080503644 5.5555048135 16.5365605039
9.3544093052 5.6953215263 17.6026406742
8.5571236210 5.6798288320 17.8390239739
7.5502631841 6.2678886783 23.4814008839
8.0386203368 6.6155141853 2.1311137559
8.8625161003 6.3067538020 9.5780805975
9.1586342551 5.7130624785 10.0201436305
9.0969876361 5.9563089085 18.2169862378
9.2606234314 6.4422550048 18.8878027763
7.7567920609 6.9680878204 23.4612239203
7.5006167763 6.6320769268 24.0205087241
8.2342403990 7.8185011988 1.3365967993
8.1915234962 7.3739599148 1.5925469480
8.1629661618 7.6110590055 1.5562906374
8.7997483138 7.9636748349 8.6926409497
9.3151757824 7.2481901964 9.1390117045
8.9618020336 7.0567740702 19.8045990178
8.8049863570 7.5236352108 20.5647055224
9.2753626719 7.6155764809 20.3333575442
8.5452751936 7.7747621702 21.4626101151
8.0316406603 7.5985673263 22.7087661861
8.2549337342 7.9527344822 1.3183665477
8.1852607100 8.0541947489 1.3202853837
8.4350078162 9.2435195849 8.1381373606
8.8413091540 8.7695873703 8.3721297951
9.1964227464 7.9578892811 20.9147140501
9.1206917001 8.3675583572 21.5777888129
9.4313597658 8.9463578658 22.0120829851
8.6307403195 8.6489007208 22.3956942845
8.0073446960 8.6380604987 23.2523540622
8.6104414208 9.7354821651 8.1646722737
8.9964674737 9.4523020584 22.6114738797
8.9314293398 10.3290447955 23.0022267645
8.2626616056 9.6174041346 23.2066787760
8.3890334619 10.1357492864 8.2556366216
8.2026650404 11.2515704085 9.0521004272
8.5185755061 10.5867914905 8.6530674203
9.1133116748 10.9723216743 9.2988860290
9.1843016423 11.3146524389 23.1485319720
9.2745398609 11.8333738173 9.9409957727
9.4001485581 12.3730990608 23.2845886469
8.5860381256 12.6992010403 10.1686904038
9.0846107993 13.2744772732 10.7010682397
8.5224027867 13.0000756653 23.6318774688
8.5267601061 13.9974919733 23.7482032323
9.3366665678 13.9929080579 11.2200299291
8.5753403669 15.0590978492 23.7478789240
8.9531099965 14.8192520295 11.6470663931
8.9653597533 15.6436819685 12.2272722842
8.5394005074 16.1470791236 23.6283006770
9.1832182335 16.1394478288 12.7558934247
8.5882452960 16.5676017469 12.7762706480
8.9969012790 16.6972631056 13.2125958309
8.4563767607 16.9242105355 23.4859381108
8.2988145573 17.8216095117 14.1597606685
8.7755363400 17.2599096125 13.7671998292
8.5848792933 17.9834971159 14.8007751731
9.0458097490 17.5784709531 14.5993428898
9.1201745893 17.8215858526 15.2418611812
8.6007045898 17.2843162167 23.2722052951
8.5226444208 17.9202235937 22.8683778550
8.6627676140 18.2227802327 15.4891604012
8.4407087626 19.0865235483 17.0636324268
9.0203869765 18.4813556378 16.6606393303
9.0321502761 18.8896265364 17.5831748564
8.4577171180 18.5799121347 22.3844730889
8.8580305491 18.2769600975 22.4193801157
8.8910264888 18.6091270915 21.9741536137
8.4956871137 19.3395459776 17.8058962533
7.9322680786 20.0007833665 19.4621042602
8.5223830366 19.5604160062 18.8440431830
7.8514084591 19.9778564989 20.3007786714
8.5821145583 19.5010133037 20.1423223586
8.7725025510 19.0896382818 21.2058018064
9.0040566663 1.8960316069 3.9136160712
8.8821895618 1.7749793533 4.4622339328
9.1169290824 2.5846831857 2.2979991655
9.2125977436 2.4115196284 2.7923430099
9.1843294758 2.4826750536 3.5121093734
9.4138460247 2.9263896542 2.7720574596
9.0636869519 2.2113325736 4.2689897576
8.8169031481 2.2897012148 5.1050298373
8.5319986376 2.3252909642 5.9218723827
10.5086674570 2.9175221506 12.5498777844
10.4670625866 2.9826403246 12.3060437487
10.6688039525 2.7749931235 12.3894280218
10.7618998567 2.8121901964 12.6416996072
8.8710593636 3.3583506637 1.5931472430
9.1256588780 3.1112369952 1.9332443825
9.1144645313 3.5166339256 3.2437137550
9.3550132229 3.4431958717 2.5605874318
8.9862112465 2.9483815422 4.3258750400
10.2482884102 3.3202273712 12.5428005296
10.3497545284 3.4026126803 12.0372470415
10.6218353768 3.1600044159 12.9542054529
9.0098685225 4.0217220150 2.4811728977
9.1792285411 3.6210746960 2.1064157959
9.7919574925 4.8241033571 10.7736338240
10.2624187005 4.0774368630 11.4193721697
10.1857394593 3.7870163360 13.2357468959
9.9816155527 4.3173664319 14.0403340705
9.7200098287 4.6760132813 14.6221770084
10.4332995217 4.6942385459 14.8607667052
9.6138020764 5.3841135875 10.2749012025
9.7964976189 5.8931830797 9.9084460781
10.2763156724 5.3026452030 10.2902893974
9.9230154676 5.0795469624 15.5774042345
9.7503574657 5.4480064839 16.8104505500
10.0821050937 5.6815228086 17.6192637731
10.0725663337 6.7349613861 9.5223578177
10.0221288654 6.0370238432 18.2624863472
10.1138937801 6.5323412455 18.9262889796
8.2726862661 7.7551608324 1.3961433679
9.6359756085 7.9423716965 8.9369978184
10.0492584608 7.5530860291 9.2048075271
9.8980348468 6.9570156600 19.4552105561
9.8007276450 7.4798365983 20.0835572187
9.6858988940 7.8913769688 20.5972121764
10.2986471654 7.9191352741 20.6120847583
9.0943997311 9.4277778745 8.4157270314
9.5499558633 8.6891055934 8.7303300639
9.8250511114 8.3907266435 21.2405613436
10.2403893161 9.0925999049 21.8550082815
8.8367554749 10.0141516694 8.3861098976
9.6964101241 9.4329288025 8.8281718512
9.2794353418 10.0762295322 8.7777641532
10.0803086067 9.9111053390 9.3079110374
9.6966670176 9.6907775139 22.4340996063
9.8884801526 10.5436851196 22.7667728609
10.2122112352 10.8978862205 9.9073482518
10.0511057864 11.4560497956 22.9819817797
10.2053426625 11.7624060061 10.4370058106
9.4400055871 12.4625420675 10.3778481602
10.0038227768 12.6252750601 10.8073618142
10.2164244907 12.2302963694 23.0892327990
9.9241037550 13.3335361598 11.1344110459
9.1924743519 13.3694713455 23.4782880697
10.0176884652 13.2539562157 23.2371770558
10.1023919613 13.8552197736 11.5746542193
9.6009550261 14.3256237612 11.5418517910
9.9382820712 14.4914047216 11.9002511162
9.3507551256 14.2524267518 23.4904907043
10.1420301876 14.4953411793 23.2149865854
9.5154877282 15.6734508932 12.5397970937
9.8869470536 15.1117609841 12.3930642112
9.9352875596 15.6931080805 12.9249412975
9.3805937535 15.3902080098 23.4112355393
10.1729863750 15.6817183189 23.0261633272
9.4994602081 16.7996027539 13.7927468672
9.9410204384 16.1934806114 13.5252743386
10.0232351184 16.6107023257 14.1979685449
9.2130552218 16.7416841901 23.1282023289
10.2220685759 16.7181433657 22.6169236097
9.6028580405 17.0776225721 14.4227658471
9.4453625612 17.8795337771 15.9952710841
9.7873352949 17.3406838031 15.3662505382
9.7107792860 17.9355467107 16.6263327364
10.2689381805 17.3770892865 16.5221553640
10.0261603899 17.9434197050 17.2393885687
9.4893832998 17.7966536169 22.3024715182
10.4682499571 17.3507306591 22.0194514551
10.0583488374 17.9651705562 21.6357433371
9.2404505714 18.9983960580 18.4574405265
9.8019339686 18.4279365343 17.9694844624
9.3339948724 19.0491500401 19.5013051665
9.9781638908 18.5544174286 19.0810792507
9.4243139090 18.8712682044 20.5250223442
9.9619899241 18.5875353544 19.9645771821
9.4921230967 18.4802439183 21.4372882775
10.1835371373 18.2303885403 20.8372430119
9.3972022597 2.7890427567 2.3727180700
10.7365045693 2.9565047229 12.1307312295
10.9556834291 2.7659243405 12.4368191450
11.0887222278 2.9704371149 12.9518600003
9.4336175824 3.1578831616 2.3114214767
10.8084999324 3.4260090939 11.7068188664
10.9440597220 3.2812739419 13.3054810310
10.7232549826 3.5328867236 13.4439058214
10.9607487443 3.5587677390 13.5956474398
10.6266004986 4.6426635665 10.7571460500
10.9538508252 4.0039975860 11.1929104770
10.8547196848 4.1311432003 14.0305936583
11.0769239947 4.9564138098 14.9778938331
10.5689065887 5.9509967270 9.9009605436
10.9059018394 5.2580729262 10.2810816443
10.9022094449 5.2797866578 15.7366902877
10.7820719195 5.5076793095 16.7022055115
10.5718365769 5.6283829126 17.4914080438
10.4445645665 5.7814556805 17.9033786129
10.8126316302 5.9384775431 18.1932460841
10.7902248891 6.6465156357 9.6604728101
10.6755453837 6.3981559344 18.8373302445
10.5191451713 6.8060777524 19.3086016560
10.9761936726 6.8249615830 19.4307257992
10.2241715841 8.2791274981 9.1271205466
10.6848717142 7.5967081073 9.4495001855
10.5826129461 7.3203437538 19.9365486671
10.9368234267 7.9120433422 20.6403071500
10.1483064495 9.0413774288 9.0807075532
10.8106061839 8.9159644200 9.5173597466
10.6532609676 8.5039368143 21.2461441535
10.9909217540 9.2365632610 21.8490489639
10.8569720210 9.9774782177 9.8482540450
10.5113767648 9.8576140855 22.3267932411
10.7047577144 10.7664349068 22.6751035276
11.0199865549 10.5851084932 10.3162857405
10.6408741411 11.1356133651 10.3392430126
10.9414664047 11.2798678335 10.8046896180
10.6174655168 11.6814828514 22.9265530672
10.5073359659 12.8322953981 11.3107486852
10.7182608471 12.0489401919 11.1076041881
10.9983779408 12.4294543915 11.7014466385
10.6895093555 12.5257743506 23.0239755315
10.3663507931 13.3284464135 11.4403759599
10.7597824983 13.2782487463 11.8958240176
10.7221012552 13.6588693907 23.0611909772
10.3119067033 14.5863756995 12.2721200934
10.5318849540 14.1065857862 12.1588913497
10.6315872196 14.5916689478 12.7018704926
10.8089359944 14.8401244695 22.9351151528
10.3213716354 15.6896152857 13.3281293136
10.4880562998 15.2343448542 13.1133969527
10.6462276202 15.5782920538 13.7503572779
10.9182340141 15.9648810303 22.5983975565
10.2774824019 16.7118027582 14.9147621809
10.5368460209 16.1387862587 14.3724839456
10.5369656445 16.8041194551 15.8037187257
10.8535116052 16.1643616257 15.2478035744
10.7363071115 16.8244849247 16.4023191055
11.0188271184 16.3048325390 16.1575635421
10.9492277060 16.7520315979 16.9386057468
10.8129598339 16.7124153054 22.3200998498
10.4484772574 17.9036000089 17.9753960391
10.6936544126 17.4083881148 17.5281374349
10.8874481324 17.5480576385 18.2798720887
10.5385484888 17.7419222517 21.4254317621
10.9092603617 17.3404665996 21.5841615653
10.8970322086 17.6161233386 20.9025587637
11.0078969267 16.9744961065 21.9503477933
10.5491047175 18.0233895325 18.7165161855
10.6458851820 18.0073513204 19.8291150095
11.0422504682 2.9954451954 12.0531426433
11.1841052779 2.7946723432 12.5750840326
11.2984100520 2.9160796352 12.9315948832
11.1147871794 3.5447495463 11.5100126457
11.1591593608 3.5021500478 13.5214741789
11.3247526196 3.3042372007 13.3154145037
11.0953966276 4.5956943106 10.7089428719
11.1904581613 4.0053740875 11.1287602233
11.3819487388 4.1785895576 13.8986119268
11.4877611619 5.1320116715 14.5523103012
11.7047832480 5.1982197880 14.1480957311
11.0227294335 6.0021352761 9.9220551117
11.1505021888 5.2496415770 10.2762319653
11.8182094599 6.0377118781 14.3321544785
11.8693179744 5.8154930909 14.0533696107
11.9219156192 6.5310773281 13.9717415596
11.7124887407 6.1060194633 15.0152823126
11.4877381845 5.8305632199 15.6256284678
11.3908677703 5.9231597568 16.4956383524
11.3186937578 5.8504537449 16.9797251735
11.0377872575 5.7180694761 17.5657271304
11.1143205912 5.9518249407 18.2493281308
11.0306361497 7.0619980115 9.6389907496
11.9022279513 7.1616844299 14.1999009712
11.9460484737 7.5398390565 13.7519886140
11.8305233301 6.9706851703 14.9450702027
11.7632843006 6.9086759814 15.8140895822
11.7491454263 6.9029299310 16.7358077721
11.6580177836 6.4641433738 16.9579037360
11.0856673307 6.3532140241 18.8678150108
11.1959462371 6.8186328920 19.4797394918
11.0854003790 8.1126741659 9.5987237878
11.9093285750 8.3798083688 13.9430382270
11.9505266729 8.5044920423 13.3690708953
11.8598296155 8.0568322190 14.8522330603
11.8273143015 7.9607122734 15.8200268291
11.8414297440 7.9792427525 16.8285931336
11.8708659520 7.3459437053 17.4164238705
11.9215521643 8.1475702017 17.7820030682
11.9621879815 8.0048587365 17.9571885278
11.1053985243 7.3447389834 20.0525883810
11.1942578331 7.9145274638 20.6686986883
11.2911311118 8.9862617960 9.7917685148
11.2878300386 9.5519624021 9.9465644459
11.4506611598 9.4972195130 10.0329087257
11.9005923495 9.3762879609 13.2714534273
11.9402116764 9.1369352924 12.9854226411
11.8592669024 9.8422112900 12.6655822677
11.8691651301 9.4374981709 14.0413690004
11.8478196397 9.1727969336 14.8052065039
11.8263582955 9.0553963038 15.7966595156
11.8357383753 9.0411105880 16.8519081159
11.8914413121 9.1122865657 17.8854484075
11.9918284707 8.6212061500 18.4596890492
11.9759212692 9.2931165300 18.7917797204
12.0135793674 9.1785385257 18.9784135728
11.1360944236 8.5270665177 21.2474815891
11.2703183628 9.1355570592 21.7521325642
11.2354017889 10.0285786065 10.1057622176
11.3783526791 10.0604185293 10.2895933979
11.7561074452 10.6113868783 12.7962408409
11.6488658538 10.6069353347 12.0040598838
11.8330862245 10.3441860046 13.8101108102
11.8261610350 10.2421501224 14.7681658187
11.8138717620 10.1597271069 15.7773695182
11.8169881224 10.1313366899 16.8491433696
11.8518627765 10.1495553063 17.9209632804
11.9220412052 10.2100637340 18.8975338855
12.0161652869 9.7243755429 19.3900098654
11.9922284141 10.2618156561 19.5658544589
12.0195346105 10.2730924088 19.7851855624
11.0497092320 9.9779410665 22.3084819313
11.2578925096 9.6873679229 22.1165095267
11.3611262977 11.4678713063 11.8084504737
11.3518645415 10.7672557725 11.0144546757
11.6206090603 11.6890607427 12.8489210708
11.7605373740 11.4358941872 13.6919607953
11.7999882905 11.3114855301 14.6999635776
11.8030904141 11.2575296388 15.7515344928
11.8074898469 11.2324368731 16.8313695832
11.8293410307 11.2284875160 17.9168017911
11.8814952609 11.2442974776 18.9517182607
11.9608019690 11.2827010947 19.8503215830
12.0049707303 10.8846554917 20.0317360312
11.1348419808 10.4821172686 22.4979704183
10.9561228779 11.6325011041 22.8301026664
11.3318207208 12.6542506206 12.5712418807
11.6366885121 12.5188591336 13.6387019889
11.7498766855 12.4102919205 14.6625169785
11.7863914719 12.3535008285 15.7229202423
11.8044882688 12.3245438930 16.7943148540
11.8268782673 12.3073223112 17.8684471797
11.8656969493 12.2866460501 18.9118007220
11.9269614904 12.2722638411 19.8316130467
12.0023348196 11.7329060541 20.4132620441
11.9880249112 12.3167515935 20.4763094341
12.0128829578 12.3632068345 20.7073735128
10.9888621907 12.9367011860 22.9689066968
11.0382317780 13.8088763977 12.7371558761
11.4263345513 13.6040050759 13.6145278857
11.6407096076 13.5034273997 14.6445024179
11.7347259687 13.4528958978 15.7122381906
11.7875039116 13.3903607534 16.7513124692
11.8303907408 13.3561613089 17.7698144276
11.8741911234 13.3004368103 18.7940501438
11.9247704934 13.1896338565 19.7286329499
11.9776237315 13.0832751396 20.4235159463
12.0082840459 12.9033646002 20.7295062507
11.0687171263 14.1361713616 22.9163746451
11.0468344585 14.6869424435 13.5819162167
11.4156112832 14.5441032321 14.6055354559
11.5850772155 14.5401805911 15.6889051696
11.7061259394 14.4965506744 16.7901469370
11.8023143110 14.2557372063 17.6235322777
11.8734364365 14.3623189735 18.5899323944
11.9397496130 13.9864402240 19.5298928408
11.9838600877 13.7789620396 20.2591797894
12.0075315974 13.5498283562 20.6269580608
11.2652624749 15.3286486834 22.6160272183
11.0500817389 15.4437758275 14.5326893811
11.2918204261 15.4672685600 15.5279568572
11.4156222217 15.7114151061 16.7702040553
11.7197030504 15.4871861802 18.0717366301
11.8783790790 15.1769924622 18.7250485702
11.9417055573 14.5256469834 19.2789274993
11.9853398980 14.1918147614 19.9911839360
12.0087331452 13.9759909531 20.4402077217
11.6099077540 16.3530355792 21.8463442605
11.4210493803 16.1107747839 22.1932321763
11.5503946347 15.8686735867 22.2544295511
11.2670438160 16.7598901454 17.9863373170
11.8184982984 16.0548508114 18.8000765645
11.6200140431 16.7027034206 19.0398544135
11.7936973680 16.6195000308 19.2450276821
11.3814723052 16.8766964892 21.4568492951
11.6423516450 16.7195273151 21.3620457605
11.6193286627 16.9680533485 20.7142490443
11.1837954749 16.5193161453 22.1507812897
11.1335322272 17.4345602229 19.0266804793
11.6922251644 16.9345086734 19.8099397506
11.3684502071 17.2622395699 20.1361830925
3 2 1 0
3 0 3 2
3 6 5 4
3 4 7 6
3 0 1 8
3 8 1 9
3 3 0 10
3 0 11 10
3 0 8 11
3 13 12 11
3 11 12 10
3 13 14 12
3 17 16 15
3 19 18 15
3 15 18 17
3 18 19 5
3 19 4 5
3 19 20 4
3 7 4 21
3 21 4 20
3 24 23 22
3 24 22 9
3 22 8 9
3 22 25 8
3 8 26 11
3 8 25 26
3 11 27 13
3 11 26 27
3 14 13 28
3 13 29 28
3 13 27 29
3 29 30 28
3 15 16 31
3 31 16 32
3 15 33 19
3 15 31 33
3 19 34 20
3 19 33 34
3 21 20 35
3 35 20 34
3 23 36 22
3 38 37 36
3 37 22 36
3 37 25 22
3 25 39 26
3 25 37 39
3 26 40 27
3 26 39 40
3 27 41 29
3 27 40 41
3 30 29 42
3 29 43 42
3 29 41 43
3 45 44 43
3 43 44 42
3 45 46 44
3 31 32 47
3 47 32 48
3 31 49 33
3 31 47 49
3 33 50 34
3 33 49 50
3 35 34 51
3 51 34 50
3 38 52 37
3 54 53 52
3 53 37 52
3 53 39 37
3 39 55 40
3 39 53 55
3 40 56 41
3 40 55 56
3 41 57 43
3 41 56 57
3 43 58 45
3 43 57 58
3 46 45 59
3 45 60 59
3 45 58 60
3 62 61 60
3 61 47 60
3 48 59 60
3 48 60 47
3 64 63 61
3 63 47 61
3 63 49 47
3 49 65 50
3 49 63 65
3 51 50 66
3 66 50 65
3 54 67 53
3 53 67 55
3 55 67 68
3 70 69 68
3 69 55 68
3 69 56 55
3 56 71 57
3 56 69 71
3 57 72 58
3 57 71 72
3 58 73 60
3 58 72 73
3 62 60 74
3 60 75 74
3 60 73 75
3 74 75 64
3 75 63 64
3 75 76 63
3 63 77 65
3 63 76 77
3 66 65 78
3 78 65 77
3 70 79 69
3 69 79 71
3 71 79 80
3 71 80 72
3 72 80 81
3 83 82 81
3 82 72 81
3 82 73 72
3 73 84 75
3 73 82 84
3 75 85 76
3 75 84 85
3 76 86 77
3 76 85 86
3 78 77 87
3 87 77 86
3 83 88 82
3 82 88 84
3 84 88 89
3 91 90 89
3 90 84 89
3 90 85 84
3 85 92 86
3 85 90 92
3 87 86 93
3 93 86 92
3 91 94 90
3 90 94 92
3 92 94 95
3 92 95 93
3 98 97 96
3 100 99 96
3 96 99 98
3 102 101 100
3 100 101 99
3 104 103 102
3 102 103 101
3 106 105 104
3 104 105 103
3 106 107 105
3 109 108 2
3 2 108 1
3 111 110 3
3 110 2 3
3 110 109 2
3 111 112 110
3 97 113 96
3 115 114 113
3 114 96 113
3 114 100 96
3 100 116 102
3 100 114 116
3 102 117 104
3 102 116 117
3 117 5 6
3 106 117 6
3 104 117 106
3 119 118 7
3 7 118 6
3 118 107 6
3 107 106 6
3 119 120 118
3 123 122 121
3 108 123 121
3 9 108 121
3 1 108 9
3 10 111 3
3 124 112 111
3 10 124 111
3 12 124 10
3 126 125 14
3 125 12 14
3 125 124 12
3 128 127 126
3 126 127 125
3 128 129 127
3 114 115 130
3 130 115 131
3 130 16 17
3 116 130 17
3 114 130 116
3 116 17 18
3 116 18 117
3 117 18 5
3 21 132 119
3 21 119 7
3 120 119 133
3 133 119 132
3 121 122 24
3 122 23 24
3 122 134 23
3 121 24 9
3 28 126 14
3 126 28 30
3 135 126 30
3 128 126 135
3 129 128 136
3 128 137 136
3 128 135 137
3 136 137 131
3 137 130 131
3 137 138 130
3 138 32 16
3 138 16 130
3 35 139 132
3 35 132 21
3 133 132 140
3 140 132 139
3 134 141 23
3 23 141 36
3 38 36 141
3 38 141 142
3 42 135 30
3 135 42 44
3 135 44 137
3 137 44 46
3 143 137 46
3 138 137 143
3 143 48 32
3 143 32 138
3 51 144 139
3 51 139 35
3 140 139 145
3 145 139 144
3 142 146 38
3 38 146 52
3 54 52 146
3 54 146 147
3 59 143 46
3 48 143 59
3 61 62 148
3 148 64 61
3 66 149 144
3 66 144 51
3 145 144 150
3 150 144 149
3 147 151 54
3 54 151 67
3 151 153 152
3 68 151 152
3 67 151 68
3 152 70 68
3 74 148 62
3 148 74 64
3 78 154 149
3 78 149 66
3 150 149 155
3 155 149 154
3 153 156 152
3 152 156 70
3 156 79 70
3 156 157 79
3 157 159 158
3 80 157 158
3 79 157 80
3 160 81 80
3 160 80 158
3 160 83 81
3 87 161 154
3 87 154 78
3 155 154 162
3 162 154 161
3 159 163 158
3 158 163 160
3 160 163 164
3 164 166 165
3 164 165 88
3 160 164 88
3 83 160 88
3 167 89 88
3 167 88 165
3 167 91 89
3 169 168 161
3 87 169 161
3 93 169 87
3 161 168 162
3 166 170 165
3 165 170 167
3 167 170 171
3 167 171 91
3 171 94 91
3 171 172 94
3 94 173 95
3 172 173 94
3 93 95 169
3 169 95 173
3 176 175 174
3 178 177 174
3 174 177 176
3 180 179 178
3 178 179 177
3 182 181 180
3 180 181 179
3 184 183 182
3 182 183 181
3 186 185 184
3 184 185 183
3 188 187 186
3 186 187 185
3 188 189 187
3 192 191 190
3 194 193 190
3 190 193 192
3 196 195 194
3 194 195 193
3 196 197 195
3 174 175 198
3 198 175 199
3 198 97 98
3 178 198 98
3 174 198 178
3 178 98 99
3 178 99 180
3 180 99 101
3 180 101 182
3 182 101 103
3 182 103 184
3 184 103 105
3 184 105 186
3 186 105 107
3 200 186 107
3 188 186 200
3 189 188 201
3 201 188 200
3 190 191 202
3 202 191 203
3 202 108 109
3 194 202 109
3 190 202 194
3 194 109 110
3 194 110 196
3 205 204 112
3 112 204 110
3 204 197 110
3 197 196 110
3 207 206 205
3 205 206 204
3 206 207 199
3 207 198 199
3 207 208 198
3 209 113 97
3 198 209 97
3 208 209 198
3 209 115 113
3 118 200 107
3 118 120 200
3 120 201 200
3 120 210 201
3 213 212 211
3 213 211 203
3 203 211 202
3 211 122 202
3 122 123 202
3 202 123 108
3 124 205 112
3 205 124 125
3 205 125 207
3 207 125 127
3 207 127 208
3 208 127 129
3 214 208 129
3 209 208 214
3 214 131 115
3 214 115 209
3 133 216 215
3 210 133 215
3 120 133 210
3 211 212 217
3 217 212 218
3 217 134 122
3 217 122 211
3 136 214 129
3 214 136 131
3 220 219 216
3 133 220 216
3 140 220 133
3 218 221 217
3 221 223 222
3 221 222 141
3 217 221 141
3 134 217 141
3 222 142 141
3 145 220 140
3 145 224 220
3 222 223 225
3 225 223 226
3 227 146 142
3 222 227 142
3 225 227 222
3 227 147 146
3 150 229 228
3 224 150 228
3 145 150 224
3 226 230 225
3 232 231 230
3 231 225 230
3 231 227 225
3 233 151 147
3 227 233 147
3 231 233 227
3 233 153 151
3 155 234 229
3 155 229 150
3 232 235 231
3 237 236 235
3 236 231 235
3 236 233 231
3 238 156 153
3 233 238 153
3 236 238 233
3 239 157 156
3 239 156 238
3 239 159 157
3 162 240 234
3 162 234 155
3 237 241 236
3 236 241 238
3 238 241 242
3 244 243 242
3 243 238 242
3 243 239 238
3 245 163 159
3 239 245 159
3 243 245 239
3 246 164 163
3 246 163 245
3 246 166 164
3 248 247 168
3 248 168 169
3 162 168 240
3 168 249 240
3 168 247 249
3 244 250 243
3 243 250 245
3 245 250 251
3 253 252 251
3 252 245 251
3 252 246 245
3 254 170 166
3 246 254 166
3 252 254 246
3 255 171 170
3 255 170 254
3 256 172 171
3 256 171 255
3 172 256 257
3 258 172 257
3 173 172 258
3 169 173 248
3 248 173 258
3 253 259 252
3 252 259 254
3 254 259 260
3 254 260 255
3 255 260 261
3 255 261 256
3 256 261 262
3 256 262 257
3 265 264 263
3 263 266 265
3 269 268 267
3 269 267 264
3 267 263 264
3 267 270 263
3 266 263 271
3 263 272 271
3 263 270 272
3 274 273 272
3 272 273 271
3 276 275 274
3 274 275 273
3 278 277 276
3 276 277 275
3 278 279 277
3 282 281 280
3 280 283 282
3 267 268 176
3 268 175 176
3 268 284 175
3 267 176 177
3 267 177 270
3 270 177 179
3 270 179 272
3 272 179 181
3 272 181 274
3 274 181 183
3 274 183 276
3 276 183 185
3 276 185 278
3 285 279 278
3 185 285 278
3 187 285 185
3 187 189 285
3 285 189 286
3 289 288 287
3 191 192 287
3 192 289 287
3 192 290 289
3 193 280 281
3 290 193 281
3 192 193 290
3 291 283 280
3 193 291 280
3 195 291 193
3 293 292 197
3 292 195 197
3 292 291 195
3 295 294 293
3 293 294 292
3 284 294 295
3 199 284 295
3 175 284 199
3 201 286 189
3 201 296 286
3 299 298 297
3 299 297 288
3 297 287 288
3 297 300 287
3 300 203 191
3 300 191 287
3 204 293 197
3 293 204 206
3 293 206 295
3 295 206 199
3 210 302 301
3 296 210 301
3 201 210 296
3 297 298 303
3 303 298 304
3 303 212 213
3 300 303 213
3 297 303 300
3 300 213 203
3 215 302 210
3 303 304 305
3 305 304 306
3 305 218 212
3 305 212 303
3 220 307 219
3 306 308 305
3 308 310 309
3 308 309 221
3 305 308 221
3 218 305 221
3 309 223 221
3 224 311 307
3 224 307 220
3 309 310 312
3 312 310 313
3 312 226 223
3 312 223 309
3 311 224 228
3 316 315 314
3 313 317 312
3 317 319 318
3 317 318 230
3 312 317 230
3 226 312 230
3 318 232 230
3 320 314 315
3 318 319 321
3 321 319 322
3 323 235 232
3 318 323 232
3 321 323 318
3 323 237 235
3 322 324 321
3 326 325 324
3 325 321 324
3 325 323 321
3 327 241 237
3 323 327 237
3 325 327 323
3 328 242 241
3 328 241 327
3 328 244 242
3 248 329 247
3 247 329 330
3 331 247 330
3 249 247 331
3 326 332 325
3 325 332 327
3 327 332 333
3 335 334 333
3 334 327 333
3 334 328 327
3 336 250 244
3 328 336 244
3 334 336 328
3 337 251 250
3 337 250 336
3 337 253 251
3 339 338 258
3 339 258 257
3 248 258 329
3 258 340 329
3 258 338 340
3 329 340 330
3 335 341 334
3 343 342 341
3 342 334 341
3 342 336 334
3 336 344 337
3 336 342 344
3 345 259 253
3 337 345 253
3 344 345 337
3 346 260 259
3 346 259 345
3 347 261 260
3 347 260 346
3 348 262 261
3 348 261 347
3 348 349 262
3 349 257 262
3 349 339 257
3 343 350 342
3 352 351 350
3 351 342 350
3 351 344 342
3 344 353 345
3 344 351 353
3 345 354 346
3 345 353 354
3 346 355 347
3 346 354 355
3 357 348 356
3 348 355 356
3 348 347 355
3 348 357 349
3 352 358 351
3 351 358 353
3 353 358 359
3 353 359 354
3 354 359 360
3 354 360 355
3 355 360 361
3 355 361 356
3 364 363 362
3 366 365 362
3 362 365 364
3 366 367 365
3 370 369 368
3 372 371 368
3 368 371 370
3 374 373 372
3 372 373 371
3 376 375 374
3 374 375 373
3 378 377 376
3 376 377 375
3 378 379 377
3 382 381 380
3 382 380 363
3 363 380 362
3 380 264 362
3 264 265 362
3 362 265 266
3 383 362 266
3 366 362 383
3 367 366 384
3 366 385 384
3 366 383 385
3 387 386 385
3 385 386 384
3 387 388 386
3 369 389 368
3 368 389 372
3 372 389 390
3 372 390 374
3 374 390 391
3 374 391 376
3 376 391 392
3 376 392 378
3 378 392 393
3 378 393 379
3 380 381 269
3 381 268 269
3 381 394 268
3 380 269 264
3 271 383 266
3 383 271 273
3 383 273 385
3 385 273 275
3 385 275 387
3 395 388 387
3 275 395 387
3 277 395 275
3 397 396 279
3 396 277 279
3 396 395 277
3 397 398 396
3 401 400 399
3 281 282 399
3 282 401 399
3 282 402 401
3 404 403 283
3 403 282 283
3 403 402 282
3 406 405 404
3 404 405 403
3 408 407 406
3 406 407 405
3 394 407 408
3 284 394 408
3 268 394 284
3 285 397 279
3 285 286 397
3 286 398 397
3 286 409 398
3 412 411 410
3 288 289 410
3 289 412 410
3 289 413 412
3 290 399 400
3 413 290 400
3 289 290 413
3 399 290 281
3 291 404 283
3 404 291 292
3 404 292 406
3 406 292 294
3 406 294 408
3 408 294 284
3 296 409 286
3 296 414 409
3 410 411 299
3 411 298 299
3 411 415 298
3 410 299 288
3 416 414 296
3 416 296 301
3 419 418 417
3 415 419 417
3 304 415 417
3 298 415 304
3 422 421 420
3 418 423 417
3 304 417 423
3 424 304 423
3 306 304 424
3 422 420 425
3 422 425 426
3 308 306 427
3 306 428 427
3 306 424 428
3 427 310 308
3 426 425 429
3 426 429 430
3 428 431 427
3 310 427 431
3 432 310 431
3 313 310 432
3 430 429 316
3 314 430 316
3 433 430 314
3 317 313 434
3 313 435 434
3 313 432 435
3 434 319 317
3 314 320 436
3 437 314 436
3 433 314 437
3 435 438 434
3 319 434 438
3 439 319 438
3 322 319 439
3 437 436 440
3 437 440 441
3 439 442 322
3 322 442 324
3 326 324 442
3 326 442 443
3 441 440 331
3 330 441 331
3 444 441 330
3 443 445 326
3 326 445 332
3 445 447 446
3 333 445 446
3 332 445 333
3 446 335 333
3 339 448 338
3 338 448 449
3 450 338 449
3 340 338 450
3 330 340 444
3 444 340 450
3 446 447 451
3 451 447 452
3 453 341 335
3 446 453 335
3 451 453 446
3 453 343 341
3 455 454 448
3 339 455 448
3 349 455 339
3 448 454 449
3 452 456 451
3 451 456 453
3 453 456 457
3 457 459 458
3 457 458 350
3 453 457 350
3 343 453 350
3 458 352 350
3 356 460 357
3 460 461 357
3 461 349 357
3 461 455 349
3 459 462 458
3 458 462 352
3 462 358 352
3 462 463 358
3 463 465 464
3 359 463 464
3 358 463 359
3 466 360 359
3 466 359 464
3 360 466 467
3 468 360 467
3 361 360 468
3 356 361 460
3 361 469 460
3 361 468 469
3 460 469 461
3 464 465 470
3 470 465 471
3 464 472 466
3 464 470 472
3 467 466 473
3 473 466 472
3 476 475 474
3 478 477 474
3 474 477 476
3 480 479 478
3 478 479 477
3 482 481 480
3 480 481 479
3 482 483 481
3 486 485 484
3 488 487 484
3 484 487 486
3 488 489 487
3 492 491 490
3 492 490 475
3 490 474 475
3 490 493 474
3 474 494 478
3 474 493 494
3 478 495 480
3 478 494 495
3 480 496 482
3 480 495 496
3 483 482 497
3 482 498 497
3 482 496 498
3 498 499 497
3 501 500 364
3 364 500 363
3 365 484 485
3 501 365 485
3 364 365 501
3 484 365 367
3 502 484 367
3 488 484 502
3 489 488 503
3 488 504 503
3 488 502 504
3 504 505 503
3 490 491 506
3 506 491 507
3 506 369 370
3 493 506 370
3 490 506 493
3 493 370 371
3 493 371 494
3 494 371 373
3 494 373 495
3 495 373 375
3 495 375 496
3 496 375 377
3 496 377 498
3 377 379 498
3 379 499 498
3 379 508 499
3 509 381 382
3 510 509 382
3 363 510 382
3 500 510 363
3 384 502 367
3 502 384 386
3 502 386 504
3 386 388 504
3 388 505 504
3 388 511 505
3 507 512 506
3 512 514 513
3 512 513 389
3 506 512 389
3 369 506 389
3 389 513 515
3 516 389 515
3 390 389 516
3 390 517 391
3 516 517 390
3 391 518 392
3 517 518 391
3 392 519 393
3 518 519 392
3 379 520 508
3 520 379 521
3 393 521 379
3 521 393 522
3 519 522 393
3 521 523 520
3 526 525 524
3 528 527 524
3 524 527 526
3 528 529 527
3 532 531 530
3 533 532 509
3 532 394 509
3 394 381 509
3 532 530 394
3 533 509 510
3 536 535 534
3 538 537 534
3 538 534 535
3 539 537 538
3 540 511 388
3 540 388 395
3 541 395 396
3 541 540 395
3 396 398 541
3 541 398 542
3 514 543 513
3 513 543 515
3 521 522 544
3 544 522 545
3 523 521 546
3 521 547 546
3 521 544 547
3 549 548 547
3 547 548 546
3 548 549 525
3 525 549 524
3 549 400 524
3 400 401 524
3 524 401 402
3 524 402 528
3 550 529 528
3 402 550 528
3 403 550 402
3 551 403 405
3 551 550 403
3 407 530 531
3 551 407 531
3 405 407 551
3 530 407 394
3 552 536 534
3 552 534 537
3 552 537 553
3 553 537 539
3 409 542 398
3 409 554 542
3 544 545 555
3 555 545 556
3 555 411 412
3 547 555 412
3 544 555 547
3 547 412 413
3 547 413 549
3 549 413 400
3 414 554 409
3 414 557 554
3 560 559 558
3 560 558 556
3 558 555 556
3 558 561 555
3 561 415 411
3 561 411 555
3 414 416 562
3 563 414 562
3 557 414 563
3 558 559 564
3 564 559 565
3 564 418 419
3 561 564 419
3 558 564 561
3 561 419 415
3 568 567 566
3 566 567 563
3 566 563 562
3 422 566 562
3 421 422 562
3 565 569 564
3 569 571 570
3 569 570 423
3 564 569 423
3 418 564 423
3 570 424 423
3 568 566 572
3 568 572 573
3 426 572 422
3 422 572 566
3 571 574 570
3 424 570 574
3 575 424 574
3 428 424 575
3 573 572 576
3 573 576 577
3 430 576 426
3 426 576 572
3 431 428 578
3 428 579 578
3 428 575 579
3 578 432 431
3 577 576 580
3 577 580 581
3 433 580 430
3 430 580 576
3 579 582 578
3 432 578 582
3 583 432 582
3 435 432 583
3 581 580 584
3 581 584 585
3 437 584 433
3 433 584 580
3 583 586 435
3 435 586 438
3 439 438 586
3 439 586 587
3 585 584 588
3 585 588 589
3 441 588 437
3 437 588 584
3 442 439 590
3 439 591 590
3 439 587 591
3 590 443 442
3 589 588 592
3 589 592 593
3 444 592 441
3 441 592 588
3 591 594 590
3 594 596 595
3 594 595 445
3 590 594 445
3 443 590 445
3 595 447 445
3 593 592 450
3 449 593 450
3 597 593 449
3 450 592 444
3 596 598 595
3 447 595 598
3 599 447 598
3 452 447 599
3 601 600 454
3 601 454 455
3 449 454 597
3 597 454 600
3 599 602 452
3 452 602 456
3 456 603 457
3 602 603 456
3 459 457 603
3 459 603 604
3 607 606 605
3 606 601 605
3 601 461 605
3 601 455 461
3 604 608 459
3 459 608 462
3 462 609 463
3 608 609 462
3 611 610 465
3 463 611 465
3 609 611 463
3 613 612 610
3 613 610 611
3 468 467 612
3 613 468 612
3 614 468 613
3 605 469 607
3 469 614 607
3 469 468 614
3 469 605 461
3 615 471 610
3 610 471 465
3 616 610 612
3 615 610 616
3 473 616 467
3 467 616 612
3 619 618 617
3 617 620 619
3 623 622 621
3 475 476 621
3 476 623 621
3 476 624 623
3 477 617 618
3 624 477 618
3 476 477 624
3 625 620 617
3 477 625 617
3 479 625 477
3 626 479 481
3 626 625 479
3 628 627 483
3 627 481 483
3 627 626 481
3 628 629 627
3 632 631 630
3 485 486 630
3 486 632 630
3 486 633 632
3 634 486 487
3 634 633 486
3 636 635 489
3 635 487 489
3 635 634 487
3 636 637 635
3 640 639 638
3 640 638 622
3 622 638 621
3 638 491 621
3 491 492 621
3 621 492 475
3 497 628 483
3 497 499 628
3 499 629 628
3 499 641 629
3 643 642 631
3 642 500 631
3 501 630 631
3 501 631 500
3 645 644 643
3 645 630 644
3 630 645 485
3 646 485 645
3 485 646 501
3 644 501 646
3 646 642 644
3 644 642 643
3 630 501 644
3 648 647 646
3 648 646 645
3 650 649 648
3 649 636 648
3 489 648 636
3 648 489 647
3 503 647 489
3 647 503 649
3 649 651 647
3 650 651 649
3 649 503 636
3 651 650 505
3 650 637 505
3 636 503 505
3 636 505 637
3 638 639 652
3 652 639 653
3 652 507 491
3 652 491 638
3 656 655 654
3 658 657 654
3 658 654 655
3 660 659 657
3 660 657 658
3 660 641 659
3 641 508 659
3 641 499 508
3 661 510 642
3 642 510 500
3 662 642 646
3 661 642 662
3 663 646 647
3 662 646 663
3 664 647 651
3 663 647 664
3 511 664 505
3 505 664 651
3 653 665 652
3 665 667 666
3 665 666 512
3 652 665 512
3 507 652 512
3 514 512 666
3 670 669 668
3 516 515 670
3 668 516 670
3 671 516 668
3 654 517 656
3 517 671 656
3 517 516 671
3 517 654 518
3 518 654 657
3 518 657 519
3 519 657 659
3 522 519 672
3 519 659 672
3 508 520 672
3 508 672 659
3 674 672 673
3 672 520 673
3 523 675 673
3 523 673 520
3 677 676 675
3 675 676 673
3 525 526 677
3 526 676 677
3 526 678 676
3 679 526 527
3 679 678 526
3 681 680 529
3 680 527 529
3 680 679 527
3 681 682 680
3 683 531 532
3 683 532 684
3 532 685 684
3 532 533 685
3 685 533 510
3 686 685 510
3 661 686 510
3 685 686 687
3 536 686 535
3 686 662 535
3 686 661 662
3 535 662 538
3 538 662 663
3 538 663 539
3 663 688 539
3 663 664 688
3 688 664 511
3 689 688 511
3 540 689 511
3 690 688 689
3 692 689 691
3 689 541 691
3 689 540 541
3 542 691 541
3 666 667 693
3 693 667 694
3 669 670 695
3 543 695 670
3 695 543 693
3 514 693 543
3 693 514 666
3 543 670 515
3 696 545 672
3 672 545 522
3 698 697 674
3 698 675 697
3 675 698 546
3 696 546 698
3 546 696 523
3 697 523 696
3 696 672 697
3 697 672 674
3 675 523 697
3 675 546 548
3 675 548 677
3 677 548 525
3 550 681 529
3 699 682 681
3 550 699 681
3 551 699 550
3 551 531 683
3 700 551 683
3 699 551 700
3 700 683 684
3 687 686 701
3 687 701 702
3 552 703 536
3 703 686 536
3 703 701 686
3 553 704 552
3 552 704 703
3 539 688 553
3 688 704 553
3 688 705 704
3 688 690 706
3 688 706 705
3 707 692 691
3 691 542 707
3 542 708 707
3 542 554 708
3 711 710 709
3 713 712 709
3 712 693 709
3 694 711 709
3 694 709 693
3 693 712 695
3 715 714 696
3 714 545 696
3 714 556 545
3 715 696 698
3 716 702 701
3 716 701 703
3 716 703 717
3 717 703 704
3 717 704 718
3 718 704 705
3 718 705 719
3 722 721 720
3 706 719 705
3 724 723 721
3 724 721 722
3 724 708 723
3 708 557 723
3 708 554 557
3 709 710 725
3 725 710 726
3 713 709 727
3 727 709 725
3 729 728 560
3 560 728 559
3 560 556 714
3 560 714 729
3 730 720 721
3 732 731 730
3 721 732 730
3 723 732 721
3 563 732 557
3 557 732 723
3 726 733 725
3 725 733 727
3 728 565 559
3 734 565 728
3 731 732 567
3 568 731 567
3 735 731 568
3 567 732 563
3 734 736 565
3 565 736 569
3 571 569 736
3 571 736 737
3 740 739 738
3 739 735 738
3 735 573 738
3 735 568 573
3 737 741 571
3 571 741 574
3 575 574 741
3 575 741 742
3 740 738 743
3 740 743 744
3 577 743 573
3 573 743 738
3 746 579 745
3 579 742 745
3 579 575 742
3 747 746 745
3 748 744 743
3 743 577 748
3 577 749 748
3 577 581 749
3 746 582 579
3 583 582 746
3 747 583 746
3 750 583 747
3 585 749 581
3 585 751 749
3 750 752 583
3 583 752 586
3 587 586 752
3 587 752 753
3 589 751 585
3 589 754 751
3 753 591 587
3 755 591 753
3 593 754 589
3 593 756 754
3 755 757 591
3 591 757 594
3 596 594 757
3 596 757 758
3 761 760 759
3 760 756 759
3 756 597 759
3 756 593 597
3 758 762 596
3 596 762 598
3 764 763 599
3 598 764 599
3 762 764 598
3 766 765 763
3 766 763 764
3 767 765 766
3 761 759 600
3 601 761 600
3 768 761 601
3 600 759 597
3 763 602 599
3 602 763 603
3 603 763 765
3 770 769 604
3 770 604 603
3 767 770 603
3 765 767 603
3 772 771 769
3 772 769 770
3 773 771 772
3 776 775 774
3 606 607 774
3 775 606 774
3 777 606 775
3 601 606 768
3 768 606 777
3 769 608 604
3 608 769 609
3 609 769 771
3 773 778 771
3 778 609 771
3 778 611 609
3 611 779 613
3 778 779 611
3 774 614 776
3 614 779 776
3 614 613 779
3 614 774 607
3 782 781 780
3 618 619 780
3 619 782 780
3 619 783 782
3 619 620 783
3 783 620 784
3 786 785 623
3 623 785 622
3 624 780 781
3 786 624 781
3 623 624 786
3 780 624 618
3 787 784 620
3 787 620 625
3 788 625 626
3 788 787 625
3 790 788 789
3 788 627 789
3 788 626 627
3 629 789 627
3 791 631 632
3 633 792 632
3 632 792 791
3 634 793 633
3 633 793 792
3 635 794 634
3 634 794 793
3 637 794 635
3 796 795 640
3 640 795 639
3 640 622 785
3 640 785 796
3 799 798 797
3 801 800 797
3 801 797 798
3 800 801 790
3 789 800 790
3 802 800 789
3 641 802 629
3 629 802 789
3 791 643 631
3 643 791 645
3 645 791 792
3 645 792 648
3 648 792 793
3 648 793 650
3 650 793 794
3 650 794 637
3 804 653 803
3 653 795 803
3 653 639 795
3 805 804 803
3 808 807 806
3 810 809 806
3 810 806 807
3 809 810 799
3 809 799 797
3 656 809 797
3 655 656 797
3 655 797 658
3 658 797 800
3 658 800 660
3 660 800 802
3 660 802 641
3 813 812 811
3 815 814 811
3 811 814 813
3 817 816 815
3 815 816 814
3 817 818 816
3 804 665 653
3 820 819 667
3 820 667 665
3 805 820 665
3 804 805 665
3 819 820 808
3 819 808 806
3 669 819 806
3 668 669 806
3 668 806 671
3 671 806 809
3 671 809 656
3 821 674 673
3 812 822 811
3 822 673 811
3 673 676 811
3 673 822 821
3 811 676 678
3 811 678 815
3 815 678 679
3 815 679 817
3 823 818 817
3 679 823 817
3 680 823 679
3 825 824 682
3 824 680 682
3 824 823 680
3 827 826 825
3 825 826 824
3 827 684 826
3 684 685 826
3 829 828 826
3 829 826 685
3 687 829 685
3 830 690 689
3 692 830 689
3 831 694 819
3 819 694 667
3 695 831 669
3 669 831 819
3 833 832 821
3 832 674 821
3 832 698 674
3 833 821 822
3 699 825 682
3 825 699 700
3 825 700 827
3 829 834 828
3 684 827 700
3 829 687 834
3 687 835 834
3 687 702 835
3 836 706 830
3 830 706 690
3 707 837 692
3 837 830 692
3 837 836 830
3 708 837 707
3 839 838 711
3 711 838 710
3 711 694 839
3 831 839 694
3 839 831 840
3 712 840 831
3 840 712 713
3 712 831 695
3 842 841 715
3 715 841 714
3 715 698 832
3 715 832 842
3 843 835 702
3 843 702 716
3 845 843 844
3 843 717 844
3 843 716 717
3 718 846 717
3 717 846 844
3 719 847 718
3 718 847 846
3 719 706 847
3 706 836 847
3 722 720 847
3 722 847 836
3 722 836 724
3 724 836 837
3 724 837 708
3 849 726 848
3 726 838 848
3 726 710 838
3 848 840 849
3 840 727 849
3 840 713 727
3 851 850 729
3 729 850 728
3 729 714 841
3 729 841 851
3 852 845 844
3 852 844 846
3 852 846 853
3 855 854 853
3 846 855 853
3 847 855 846
3 730 856 720
3 856 847 720
3 856 855 847
3 731 856 730
3 849 733 726
3 733 849 727
3 850 734 728
3 857 734 850
3 858 854 855
3 860 859 858
3 855 860 858
3 856 860 855
3 735 860 731
3 731 860 856
3 857 861 734
3 734 861 736
3 863 862 737
3 736 863 737
3 861 863 736
3 864 862 863
3 859 860 739
3 740 859 739
3 865 859 740
3 739 860 735
3 862 741 737
3 742 741 862
3 864 742 862
3 866 742 864
3 744 865 740
3 744 867 865
3 866 868 742
3 742 868 745
3 747 745 868
3 747 868 869
3 870 867 744
3 870 744 748
3 748 749 870
3 870 749 871
3 869 750 747
3 872 750 869
3 751 871 749
3 751 873 871
3 872 874 750
3 750 874 752
3 753 752 874
3 753 874 875
3 754 873 751
3 754 876 873
3 878 755 877
3 755 875 877
3 755 753 875
3 879 878 877
3 756 876 754
3 756 880 876
3 878 757 755
3 882 881 758
3 882 758 757
3 879 882 757
3 878 879 757
3 884 883 881
3 884 881 882
3 885 883 884
3 887 886 760
3 887 760 761
3 756 760 880
3 880 760 886
3 881 762 758
3 762 881 764
3 764 881 883
3 885 888 883
3 888 764 883
3 888 766 764
3 890 889 767
3 766 890 767
3 888 890 766
3 891 889 890
3 894 893 892
3 893 887 892
3 887 768 892
3 887 761 768
3 889 770 767
3 891 895 889
3 895 770 889
3 895 772 770
3 897 896 773
3 772 897 773
3 895 897 772
3 899 898 896
3 899 896 897
3 775 776 898
3 899 775 898
3 900 775 899
3 892 777 894
3 777 900 894
3 777 775 900
3 777 892 768
3 896 778 773
3 778 896 779
3 779 896 898
3 779 898 776
3 901 781 782
3 783 902 782
3 782 902 901
3 784 902 783
3 904 903 786
3 786 903 785
3 904 786 781
3 905 904 781
3 901 905 781
3 904 905 906
3 907 901 902
3 905 901 907
3 787 908 784
3 908 902 784
3 908 907 902
3 788 909 787
3 787 909 908
3 790 909 788
3 912 911 910
3 910 913 912
3 914 795 796
3 915 914 796
3 785 915 796
3 903 915 785
3 906 905 916
3 906 916 917
3 918 905 907
3 916 905 918
3 799 918 798
3 918 908 798
3 918 907 908
3 798 908 801
3 801 908 909
3 801 909 790
3 910 911 919
3 919 911 920
3 913 910 921
3 921 910 919
3 914 803 795
3 923 922 805
3 923 805 803
3 915 923 803
3 914 915 803
3 922 923 917
3 922 917 916
3 808 922 916
3 807 808 916
3 807 916 810
3 810 916 918
3 810 918 799
3 925 924 813
3 813 924 812
3 814 919 920
3 925 814 920
3 813 814 925
3 926 921 919
3 814 926 919
3 816 926 814
3 928 927 818
3 927 816 818
3 927 926 816
3 928 929 927
3 922 820 805
3 820 922 808
3 932 931 930
3 924 932 930
3 822 924 930
3 812 924 822
3 823 928 818
3 933 929 928
3 823 933 928
3 824 933 823
3 934 824 826
3 934 933 824
3 826 828 934
3 934 828 935
3 930 931 833
3 931 832 833
3 931 936 832
3 930 833 822
3 937 935 828
3 937 828 834
3 834 835 937
3 937 835 938
3 939 838 839
3 840 939 839
3 941 940 842
3 842 940 841
3 842 832 936
3 842 936 941
3 942 938 835
3 942 835 843
3 944 943 845
3 943 843 845
3 943 942 843
3 944 945 943
3 939 848 838
3 848 939 840
3 946 850 851
3 947 946 851
3 841 947 851
3 940 947 841
3 852 944 845
3 948 945 944
3 852 948 944
3 853 948 852
3 853 854 948
3 948 854 949
3 950 857 946
3 946 857 850
3 946 947 951
3 952 946 951
3 950 946 952
3 953 952 951
3 954 949 854
3 954 854 858
3 858 859 954
3 954 859 955
3 950 861 857
3 861 950 863
3 863 950 952
3 864 863 952
3 953 864 952
3 956 864 953
3 865 955 859
3 865 957 955
3 959 866 958
3 866 956 958
3 866 864 956
3 960 959 958
3 867 957 865
3 867 961 957
3 959 868 866
3 869 868 959
3 960 869 959
3 962 869 960
3 867 870 963
3 964 867 963
3 961 867 964
3 871 963 870
3 966 872 965
3 872 962 965
3 872 869 962
3 967 966 965
3 964 963 968
3 964 968 969
3 873 968 871
3 871 968 963
3 966 874 872
3 971 970 875
3 971 875 874
3 967 971 874
3 966 967 874
3 972 970 971
3 969 968 973
3 969 973 974
3 876 973 873
3 873 973 968
3 970 877 875
3 976 975 879
3 976 879 877
3 972 976 877
3 970 972 877
3 977 975 976
3 974 973 978
3 974 978 979
3 880 978 876
3 876 978 973
3 975 882 879
3 977 980 975
3 980 882 975
3 980 884 882
3 982 981 885
3 884 982 885
3 980 982 884
3 984 983 981
3 984 981 982
3 985 983 984
3 988 987 986
3 986 987 979
3 986 979 978
3 887 986 978
3 886 887 978
3 886 978 880
3 981 888 885
3 888 981 890
3 890 981 983
3 990 989 891
3 990 891 890
3 985 990 890
3 983 985 890
3 992 991 989
3 992 989 990
3 994 993 991
3 994 991 992
3 996 995 993
3 996 993 994
3 995 996 988
3 995 988 986
3 894 995 986
3 893 894 986
3 893 986 887
3 989 895 891
3 895 989 897
3 897 989 991
3 897 991 899
3 899 991 993
3 899 993 900
3 900 993 995
3 900 995 894
3 997 903 904
3 906 997 904
3 999 998 912
3 912 998 911
3 912 913 999
3 999 913 1000
3 1001 915 997
3 997 915 903
3 917 1001 906
3 906 1001 997
3 998 920 911
3 1002 920 998
3 921 1004 1003
3 1000 921 1003
3 913 921 1000
3 1004 1005 1003
3 1001 923 915
3 923 1001 917
3 1007 1006 925
3 925 1006 924
3 925 920 1002
3 925 1002 1007
3 926 1004 921
3 1008 1005 1004
3 926 1008 1004
3 927 1008 926
3 927 929 1008
3 1008 929 1009
3 1011 1010 932
3 932 1010 931
3 932 924 1006
3 932 1006 1011
3 1012 1009 929
3 1012 929 933
3 1013 933 934
3 1013 1012 933
3 1015 1014 935
3 1014 934 935
3 1014 1013 934
3 1015 1016 1014
3 1010 936 931
3 1017 936 1010
3 937 1015 935
3 1019 1018 938
3 938 1018 937
3 1018 1016 937
3 1016 1015 937
3 1019 1020 1018
3 1021 940 941
3 1022 1021 941
3 936 1022 941
3 1017 1022 936
3 942 1019 938
3 1023 1020 1019
3 942 1023 1019
3 943 1023 942
3 943 945 1023
3 1023 945 1024
3 1025 947 1021
3 1021 947 940
3 1021 1022 1026
3 1021 1026 1025
3 1027 1024 945
3 1027 945 948
3 948 949 1027
3 1027 949 1028
3 1025 951 947
3 953 951 1025
3 1026 953 1025
3 1029 953 1026
3 1030 1028 949
3 1030 949 954
3 954 955 1030
3 1030 955 1031
3 1033 956 1032
3 956 1029 1032
3 956 953 1029
3 1034 1033 1032
3 957 1031 955
3 957 1035 1031
3 1033 958 956
3 1037 1036 960
3 1037 960 958
3 1034 1037 958
3 1033 1034 958
3 1038 1036 1037
3 961 1035 957
3 961 1039 1035
3 1040 962 1036
3 1036 962 960
3 1036 1038 1041
3 1036 1041 1040
3 964 1039 961
3 964 1042 1039
3 1040 965 962
3 1044 1043 967
3 1044 967 965
3 1041 1044 965
3 1040 1041 965
3 1045 1043 1044
3 969 1042 964
3 969 1046 1042
3 1043 971 967
3 1048 1047 972
3 1048 972 971
3 1045 1048 971
3 1043 1045 971
3 1049 1047 1048
3 974 1046 969
3 974 1050 1046
3 1047 976 972
3 1052 1051 977
3 1052 977 976
3 1049 1052 976
3 1047 1049 976
3 1054 1053 1051
3 1054 1051 1052
3 1056 1055 1053
3 1056 1053 1054
3 1057 1055 1056
3 979 1050 974
3 979 1058 1050
3 1051 980 977
3 980 1051 982
3 982 1051 1053
3 982 1053 984
3 984 1053 1055
3 1060 1059 985
3 1060 985 984
3 1057 1060 984
3 1055 1057 984
3 1061 1059 1060
3 1064 1063 1062
3 987 988 1062
3 1063 987 1062
3 1065 987 1063
3 979 987 1058
3 1058 987 1065
3 1059 990 985
3 1061 1066 1059
3 1066 990 1059
3 1066 992 990
3 992 1067 994
3 1066 1067 992
3 1062 996 1064
3 996 1067 1064
3 996 994 1067
3 996 1062 988
3 1069 1068 999
3 999 1068 998
3 999 1000 1069
3 1069 1000 1070
3 1068 1002 998
3 1071 1002 1068
3 1000 1003 1072
3 1073 1000 1072
3 1070 1000 1073
3 1005 1072 1003
3 1075 1074 1007
3 1007 1074 1006
3 1007 1002 1071
3 1007 1071 1075
3 1076 1073 1072
3 1078 1076 1077
3 1077 1076 1008
3 1076 1072 1008
3 1072 1005 1008
3 1009 1077 1008
3 1080 1079 1011
3 1011 1079 1010
3 1011 1006 1074
3 1011 1074 1080
3 1083 1082 1081
3 1081 1082 1078
3 1077 1081 1078
3 1084 1081 1077
3 1012 1085 1009
3 1085 1077 1009
3 1085 1084 1077
3 1013 1086 1012
3 1012 1086 1085
3 1086 1013 1087
3 1013 1088 1087
3 1013 1014 1088
3 1014 1016 1088
3 1088 1016 1089
3 1079 1017 1010
3 1090 1017 1079
3 1083 1081 1091
3 1083 1091 1092
3 1093 1081 1084
3 1091 1081 1093
3 1094 1084 1085
3 1093 1084 1094
3 1095 1085 1086
3 1094 1085 1095
3 1086 1087 1096
3 1086 1096 1095
3 1097 1089 1016
3 1097 1016 1018
3 1018 1020 1097
3 1097 1020 1098
3 1090 1022 1017
3 1099 1022 1090
3 1092 1091 1100
3 1092 1100 1101
3 1102 1091 1093
3 1100 1091 1102
3 1103 1093 1094
3 1102 1093 1103
3 1104 1094 1095
3 1103 1094 1104
3 1095 1096 1105
3 1106 1095 1105
3 1104 1095 1106
3 1107 1106 1105
3 1108 1098 1020
3 1108 1020 1023
3 1023 1024 1108
3 1108 1024 1109
3 1111 1026 1110
3 1026 1099 1110
3 1026 1022 1099
3 1112 1111 1110
3 1115 1114 1113
3 1113 1114 1101
3 1100 1113 1101
3 1116 1113 1100
3 1117 1100 1102
3 1116 1100 1117
3 1118 1102 1103
3 1117 1102 1118
3 1119 1103 1104
3 1118 1103 1119
3 1120 1104 1106
3 1119 1104 1120
3 1106 1107 1121
3 1122 1106 1121
3 1120 1106 1122
3 1123 1122 1121
3 1124 1109 1024
3 1124 1024 1027
3 1027 1028 1124
3 1124 1028 1125
3 1126 1029 1111
3 1111 1029 1026
3 1111 1112 1127
3 1111 1127 1126
3 1115 1113 1128
3 1115 1128 1129
3 1130 1113 1116
3 1128 1113 1130
3 1131 1116 1117
3 1130 1116 1131
3 1132 1117 1118
3 1131 1117 1132
3 1133 1118 1119
3 1132 1118 1133
3 1134 1119 1120
3 1133 1119 1134
3 1135 1120 1122
3 1134 1120 1135
3 1122 1123 1136
3 1137 1122 1136
3 1135 1122 1137
3 1138 1137 1136
3 1028 1030 1139
3 1140 1028 1139
3 1125 1028 1140
3 1031 1139 1030
3 1126 1032 1029
3 1142 1141 1034
3 1142 1034 1032
3 1127 1142 1032
3 1126 1127 1032
3 1141 1142 1129
3 1128 1141 1129
3 1143 1141 1128
3 1144 1128 1130
3 1143 1128 1144
3 1145 1130 1131
3 1144 1130 1145
3 1146 1131 1132
3 1145 1131 1146
3 1147 1132 1133
3 1146 1132 1147
3 1148 1133 1134
3 1147 1133 1148
3 1149 1134 1135
3 1148 1134 1149
3 1150 1135 1137
3 1149 1135 1150
3 1137 1138 1151
3 1137 1151 1150
3 1152 1140 1139
3 1139 1031 1152
3 1031 1153 1152
3 1031 1035 1153
3 1141 1037 1034
3 1037 1141 1038
3 1141 1154 1038
3 1141 1143 1154
3 1155 1143 1144
3 1154 1143 1155
3 1156 1144 1145
3 1155 1144 1156
3 1157 1145 1146
3 1156 1145 1157
3 1158 1146 1147
3 1157 1146 1158
3 1159 1147 1148
3 1158 1147 1159
3 1160 1148 1149
3 1159 1148 1160
3 1161 1149 1150
3 1160 1149 1161
3 1150 1151 1162
3 1163 1150 1162
3 1161 1150 1163
3 1164 1163 1162
3 1039 1153 1035
3 1039 1165 1153
3 1166 1041 1154
3 1154 1041 1038
3 1167 1154 1155
3 1166 1154 1167
3 1168 1155 1156
3 1167 1155 1168
3 1169 1156 1157
3 1168 1156 1169
3 1170 1157 1158
3 1169 1157 1170
3 1171 1158 1159
3 1170 1158 1171
3 1172 1159 1160
3 1171 1159 1172
3 1173 1160 1161
3 1172 1160 1173
3 1174 1161 1163
3 1173 1161 1174
3 1163 1164 1175
3 1163 1175 1174
3 1042 1165 1039
3 1042 1176 1165
3 1166 1044 1041
3 1044 1166 1045
3 1166 1177 1045
3 1166 1167 1177
3 1178 1167 1168
3 1177 1167 1178
3 1179 1168 1169
3 1178 1168 1179
3 1180 1169 1170
3 1179 1169 1180
3 1181 1170 1171
3 1180 1170 1181
3 1182 1171 1172
3 1181 1171 1182
3 1183 1172 1173
3 1182 1172 1183
3 1184 1173 1174
3 1183 1173 1184
3 1174 1175 1185
3 1174 1185 1184
3 1046 1176 1042
3 1046 1186 1176
3 1177 1048 1045
3 1048 1177 1049
3 1177 1187 1049
3 1177 1178 1187
3 1188 1178 1179
3 1187 1178 1188
3 1189 1179 1180
3 1188 1179 1189
3 1190 1180 1181
3 1189 1180 1190
3 1182 1192 1191
3 1190 1182 1191
3 1181 1182 1190
3 1192 1182 1183
3 1192 1183 1193
3 1193 1183 1184
3 1193 1184 1194
3 1197 1196 1195
3 1185 1194 1184
3 1197 1186 1196
3 1186 1050 1196
3 1186 1046 1050
3 1187 1052 1049
3 1052 1187 1054
3 1054 1187 1188
3 1054 1188 1056
3 1056 1188 1189
3 1056 1189 1057
3 1189 1198 1057
3 1189 1190 1198
3 1190 1191 1199
3 1200 1190 1199
3 1198 1190 1200
3 1201 1200 1199
3 1204 1203 1202
3 1202 1203 1195
3 1196 1202 1195
3 1205 1202 1196
3 1058 1205 1050
3 1050 1205 1196
3 1198 1060 1057
3 1060 1198 1061
3 1198 1206 1061
3 1198 1200 1206
3 1200 1201 1207
3 1208 1200 1207
3 1206 1200 1208
3 1208 1207 1204
3 1208 1204 1202
3 1064 1208 1202
3 1063 1064 1202
3 1063 1202 1065
3 1065 1202 1205
3 1065 1205 1058
3 1206 1066 1061
3 1066 1206 1067
3 1067 1206 1208
3 1067 1208 1064