OFF
785 1508 0
1.5675869482 7.2889376266 7.1783936578
1.5658251591 7.1134266194 6.7609366147
1.9034641323 6.7575703058 7.0063764841
1.9427824991 6.8878504668 7.4891409590
1.3994887540 7.9990061900 6.0677215728
1.5696507500 8.1873736955 5.6346132584
1.6991247593 7.6876673169 5.7754902795
1.6445796838 7.2916628310 6.2482963885
1.3843029364 7.6978105756 6.6580920613
1.4673342143 8.0284266491 7.1603010856
1.8176809770 7.5397598048 7.7136615343
1.3814180952 8.6221155531 5.8221105589
1.6904002274 8.8091531178 5.4172962824
1.3639864649 8.7075902128 6.4412704688
1.6223891224 8.7998205937 7.2008479836
1.6845513743 8.2388336983 7.5867498859
1.4439462152 9.4242461277 5.7672089940
1.7890797280 9.6670330508 5.2919588616
1.4985937914 9.6848594175 6.2351868684
1.5566911156 9.3565311082 6.7017631260
1.5813652405 10.0785885154 5.5614470120
1.8943856101 10.3696921632 5.3681831333
1.5293647523 10.0771487363 5.8596065059
1.7161358778 10.4252218509 5.7051089703
1.8553278757 6.8405831557 6.5562515597
2.0745038008 6.8695266230 6.1903896223
2.4540177671 6.4998613823 6.4995736888
2.5580043838 6.2927486476 7.3347923076
2.3226068985 6.8131982662 7.9775527050
2.1384124686 7.9664527609 5.3552560037
2.1127644893 7.2373590133 5.7864853450
2.2551809772 7.4567299230 8.2467600292
2.3532854729 8.9778446024 4.9422723896
1.8104418701 8.5879689486 7.6533221170
2.0799491507 8.2318241436 8.0350973803
2.2858420394 10.0603747793 4.9546088388
1.7254023684 9.8725346729 6.5806724299
1.8819279758 9.5621578868 7.0734197544
2.0612231573 9.0254542019 7.6821427325
2.3157606467 10.7318999330 5.1997466729
2.0466864402 10.1654805519 6.7581390910
1.8217107011 10.3392102829 6.1742915823
2.1021497866 10.7649761588 5.7104701601
2.9852897355 6.0117596102 8.1615474483
3.3405985261 5.5788844639 7.4914742801
3.4235955661 5.4211130869 8.0107892357
3.5430263942 5.3865523034 8.5563610781
3.3072815264 6.0222597526 9.0268980660
3.7156449983 5.4178221056 9.2382451551
2.5144209084 6.7906095139 5.9298368078
2.8155957575 7.1578311888 5.4444084929
3.1672012670 6.4757111687 5.8862202218
3.3546823591 5.8838811894 6.6221222159
2.7820072812 6.9295371584 8.7199049247
3.8385476663 5.8688842721 9.8668059509
3.3522145568 6.7512908214 9.5655502132
3.8504727323 6.6210705098 10.2475712081
3.0564225673 7.9658240698 4.8444028980
2.5430028678 7.8546264511 8.5955916915
3.0672630359 7.7974001823 9.2815738584
3.6187325909 7.4146914889 10.0729606035
3.0030271387 8.7703534542 4.5352785458
3.5242856206 8.9851974302 4.1381326377
3.3546062503 8.3863618672 4.4329506939
2.7047077316 8.8965697768 8.5157100188
3.2357600254 8.6594155538 9.3711623958
3.4978079503 8.1784623304 9.8634614119
2.8649256895 9.6193891449 4.5029772636
3.4219993988 10.1304502074 4.0228250535
2.4392227976 9.9655371528 7.4789026472
3.0272407897 10.0953864896 8.2909306817
3.3377225107 9.5167875789 9.1224661053
2.8427227883 10.7470600891 4.6519840168
3.4704634722 11.2260704848 4.0117030392
2.4285738497 10.8341492137 6.4862294949
2.9758302558 10.9890913304 7.4309898810
3.3106580209 10.8210062709 8.2164107218
3.4711138470 10.3613547262 8.8091442885
3.1561966581 11.8038496111 4.6437904156
3.5874889731 12.1821297667 4.0577585719
2.6947905212 11.3723070628 5.4689633916
3.0309409666 11.8260064494 6.4002483704
3.2862537133 11.7951997842 7.2099138858
3.3949572437 11.4243752222 7.8247746419
3.4155904332 12.5337664081 4.5406310812
3.6521567015 12.7366640401 4.2043728585
3.2364471891 12.4227813990 5.3278617957
3.3658129359 12.6315559917 6.1157377259
3.4083054658 12.3671914396 6.7647477893
3.7591892494 13.2086214600 4.6581708064
3.5725546538 13.1041878741 5.6083407962
4.0132586075 4.9471066906 7.9019461865
4.3976063003 4.8524381076 7.1430288282
4.9681223725 4.3828342470 7.5559008429
4.6829191584 4.3463912303 8.5218040986
4.1627181893 4.8205254966 9.0462759301
5.0916088329 4.0563992145 9.5937016575
4.4777707552 4.7280085398 9.8111869710
4.9106873874 4.5421369319 10.3050072949
3.9259812675 5.2418650667 7.0217118190
4.2105978472 5.4134784016 6.3944708217
4.3375157403 5.0557987418 6.7582903302
4.0675765133 5.1792611155 9.6739287672
4.4856843091 5.1988580106 10.3439261186
3.9270303604 6.8027615134 5.1351748685
3.9167190878 6.0045192848 5.9023009207
4.5435079595 6.0572904759 10.8250122954
4.2014040444 7.1203020874 10.7191234716
4.8574879818 6.9323899662 11.3050287867
3.9132335385 7.9230555202 4.3600350374
4.7831647456 7.7574721451 3.9930649799
4.5933268491 7.1464182957 4.4769505992
4.0581705109 8.1525108160 10.4961714670
4.6010943809 7.6963759717 11.0853659518
4.2890187378 8.6023814826 3.7877692244
4.6323333345 9.1007448927 3.3837883476
5.0676089644 8.4033460854 3.5235764674
3.7035354137 8.9645208170 9.8691356820
4.2831165400 9.2185831525 10.4429965538
4.8307275836 8.6562295558 11.0812179404
4.0506905392 9.5463414684 3.6093346561
4.6686092856 9.8932739319 3.1428861179
4.0256347474 10.1858239726 9.6570515357
4.5734124624 9.9874844241 10.4446231091
4.7858176244 9.5113851241 10.8411469042
4.0327056561 10.5949811781 3.4762466769
4.7931068923 11.0011144471 2.8838805053
3.7887988486 11.2506128507 8.6011116965
4.4602079965 11.4363515968 9.4084777166
4.9424098777 10.9173830633 10.2654869790
4.0886176235 11.7160389428 3.4674483104
4.8806004030 12.3503518944 2.9047515796
3.7390912757 12.2539632473 7.5758990532
4.4126687356 12.3860327671 8.5474649351
4.9826899065 12.2871458784 9.3810610577
4.9774754076 11.7178982223 9.8359056105
4.1125961028 12.8050445674 3.7464720758
4.8953078731 13.4908885930 3.2971502260
3.7884742241 13.1439582007 6.5013139032
4.3936031993 13.3753569515 7.5060499529
4.9734788283 13.3626987019 8.3663875206
4.9914835781 12.8595210154 8.8901703633
4.3451840549 13.7112101175 3.9848201733
4.2437463942 14.0986025511 4.6382448865
4.4968945036 14.2214928242 4.1404001716
3.9859468450 13.7953308338 5.5159987577
4.4212581142 14.2067833366 6.4383101332
4.8962041299 14.3301833376 7.2712330797
4.9573688991 13.9092685694 7.8146892836
4.7149245900 14.6942650038 4.3901292145
4.5036683159 14.6692258975 5.3611403634
4.7938923779 15.1334799225 4.9184197154
4.9343028339 15.0531354900 6.2220816315
4.8914363022 14.7779530425 6.7361286955
4.8620924410 15.2379392973 5.5065383600
5.6095597534 3.5386916962 9.7030935409
5.6090435308 3.5387434973 9.2749970137
6.1788939361 3.2084671137 9.6210145905
5.8222225924 3.5454900175 10.2033827372
4.8513409486 4.8958091493 6.6047076066
5.5444774340 4.8939625641 6.1247612885
5.7062433923 4.3721114373 6.7746751414
5.9193427832 3.8521900472 7.5320195130
5.4576889276 3.7946933325 8.5009236371
5.6503937843 4.0645835756 10.7587969395
5.1146810018 4.8227192425 10.8624188475
5.6858145109 4.6149805896 11.3041931493
4.8856494635 5.6401478135 5.6734228431
5.6448025241 5.8001156282 5.1100817987
5.9615049787 5.2152221715 5.5706963672
4.8321482126 5.3363666057 10.8802359952
5.3382679425 5.3373802645 11.3451993505
5.0492625821 6.4097514131 4.8390028123
5.3635392387 6.9877880316 4.2693464056
5.9326449288 6.2789140255 4.6162088437
5.3307910875 6.1991016607 11.5779787060
5.4489469880 6.9129683118 11.7532472071
6.1065596694 6.4541926947 12.0776046150
5.6586415841 7.6244336990 3.7897263388
5.8635310904 7.3263800139 11.9772720423
5.3004380820 7.7604180646 11.5826377407
5.3161642994 9.1316387827 3.1060785948
5.9789638579 8.3284334751 3.3308308276
5.7069604870 8.8207530086 11.5995189100
5.4691934036 10.0295903104 2.6853492406
5.0884866089 10.1903941432 10.8107492454
5.3936621050 9.5823903459 11.2117680290
5.4252041021 10.8086711958 2.4277637925
5.9079260936 11.0400243331 2.0916225635
5.8544902511 10.4225787396 2.2951763610
5.3725410769 10.7120396608 10.7672025846
5.7599540160 10.4478054012 11.0981922393
5.3673063993 11.5820152199 2.3846856288
5.9819373793 11.8517375947 1.9363074420
5.2273529970 12.0993294970 9.8124663013
5.5852091987 11.8980472495 10.1739135129
5.8890188437 11.2607048939 10.7464595951
5.5750551597 12.3976261389 2.2957146146
5.7283185247 13.3398391298 2.5425857911
5.2520839313 13.2346097672 8.8261272571
5.6535563393 13.0879599427 9.2699488812
5.5880551158 12.4977337272 9.7587671940
4.8725815361 14.2538235141 3.7421456442
5.7004486588 14.3620915068 3.1382433592
5.1933492717 14.2824360041 7.7229527361
5.6106279211 14.1778962184 8.1861807409
5.6099049841 13.6397722394 8.7375538693
5.3050162167 14.8865578583 3.7770107848
5.1107885594 15.2491951041 4.3525438027
5.6590594559 15.4000132422 3.7947056567
5.1759465978 15.1067766496 6.7079359018
5.3080709976 14.9452598764 7.0857771493
5.4886887361 14.6528347837 7.6022513933
5.3531465999 15.5076477755 4.2630919055
5.6922781433 15.5843073382 3.8762371523
5.0423977055 15.4143440677 5.0161736213
5.3116700483 15.4586212767 6.0477852310
5.7471762500 15.3890839908 6.8460231793
6.2772648033 3.3928509496 8.1439355934
6.6055509911 3.5145632198 7.4842665616
6.9717799235 3.1886274330 7.8312816161
6.9348632487 2.9189446084 8.7305675280
6.0335084999 3.3275246770 8.8589926758
7.0498836336 2.7476589995 9.8545291938
6.6016760100 3.1659979066 10.5666989672
6.1027262403 3.5403604140 10.7285101902
6.4547753606 3.5938903835 11.1614031179
6.3769628600 4.5713438622 6.1290808872
6.6950701717 3.9199436142 6.8181775840
6.2864340059 4.1524080096 11.5093451892
6.1419048990 4.8619549395 11.7679303003
6.9217061122 4.2926811457 11.9780838944
6.4519535648 5.6207741391 5.0278000468
6.9290251453 4.9705188864 5.5216386998
5.9157911396 5.6155455894 11.8569567789
6.7899741915 5.3010145343 12.2240809919
6.2883879328 6.8668121507 4.1312464047
6.8843449935 6.1435348450 4.5287802562
7.0636089371 6.4573536695 12.5008112585
6.6583453561 7.5295599098 3.6807722743
6.0996210761 8.1362435477 11.9728500210
6.5640168776 7.4562354017 12.2726778391
6.3344683205 9.1621339232 2.8112228430
7.0552087235 8.2522696306 3.2285584860
6.4055004246 8.9599327672 11.9260574584
6.9707124858 8.5713548997 12.2571016335
6.1972144073 9.9190183714 2.4040638820
6.4921058511 10.4378350479 2.0660307667
7.0087193486 9.7317383357 2.3365913828
6.9663674136 9.3952848023 12.0362619311
6.4335936716 9.8890578011 11.6152487124
6.6393172500 11.2231151457 1.6933702464
6.6052925809 10.9810223038 11.2298080376
6.5494217755 12.0719817433 1.5264002856
7.0837324970 12.2421884293 1.2272775569
6.9902544892 11.6565147178 1.3455874932
6.7087187349 11.6581377810 10.9266755376
6.4832633228 12.0948084138 10.5382104496
6.7373166114 12.6968577568 1.4335019368
7.3163813483 12.9591556347 1.2509650815
6.2087362573 12.7744651355 1.8748713247
6.0388500660 12.9138587303 9.7130111884
6.2759455990 12.6217811847 10.0605444638
6.8135014652 13.3043471992 1.6117712316
6.4609397332 13.5640283106 2.0431936876
6.6644395415 14.2389442873 2.4379220600
6.0358481956 14.0628265124 8.6537156734
6.3448216940 13.8372705068 9.0410596305
6.7203122410 13.3409769476 9.6715582099
5.9070855707 15.0665131359 3.3953794082
6.6733612879 14.9807139367 2.9763591145
5.8640908885 15.1051690545 7.3987890168
6.2248871055 14.8675154184 7.9256855893
6.6308720157 14.4853332329 8.5769510253
6.2146978347 15.3668691837 3.3763056518
6.0780833712 15.5368880475 3.5590290207
6.7827565540 15.7156399263 7.1944597205
6.1585214577 15.7041443303 6.7390004644
6.6055500307 15.3702427214 7.5540801687
7.6348952598 2.4143292078 9.3356965681
7.8405680497 2.4990830001 8.5726682104
8.4022381227 2.1237648097 8.9995533487
8.2918255593 2.0702531105 9.8482235448
7.6842378730 2.3795387290 10.0592983818
8.1523153439 2.2116755130 10.4809391818
7.2790087477 3.3969502085 7.2121483119
7.9045488762 2.8983793749 7.7046782720
7.5861956353 2.6523629810 10.7301439712
7.2359303247 3.2109112122 11.3330308139
6.9135059407 3.7243783908 11.6607776692
7.6422157062 3.5748838273 11.9164892947
7.4745792137 4.2634940620 6.0885226418
7.5563497699 3.7033351313 6.6637139833
7.7556810235 4.2882154476 12.3247220905
7.4251023090 5.4494483740 4.9803150155
7.9000045823 4.8108540171 5.4423063488
7.7141476643 5.1867596504 12.6047057818
7.3409783703 6.7439337245 4.0709842597
7.9170798009 5.9740290037 4.4984756457
7.5108009950 5.9946499813 12.6854632487
7.4090334185 6.9804675988 12.6723238145
7.7765758661 7.4395386315 3.6354799798
7.6271373273 7.6742326766 12.7044533926
7.4487116411 7.8656101696 12.5727288280
7.5546738647 8.9670565327 2.7682582600
8.2147605661 8.1925366991 3.2077784144
7.6390391238 8.7166104697 12.4718512811
7.5557705796 10.5374778223 1.8223431977
8.0755233133 9.6595532174 2.3302382307
7.3212260104 10.0126164218 11.9491481370
7.8087450220 9.5034422297 12.2885847152
7.2989018571 11.1996916763 1.4315752162
7.5858795275 11.7219345096 1.2010958346
7.8358822702 11.1492007851 1.4124883965
7.9527983047 10.3439339663 12.0267483453
7.5225705069 10.8289019430 11.6407556735
7.5981091760 12.3800975753 1.0981294165
7.1930104677 12.1580127013 10.8034092863
7.4334305035 11.6658120015 11.1784677092
7.9073259623 12.7966731720 1.1263465281
8.0092506773 12.4005498326 10.8966685157
7.3326309271 12.8121700539 10.3594235169
7.3563745332 13.5956003824 1.4966376804
7.9811231191 13.4330798236 1.3552991390
7.0648681812 13.9144198659 1.8683585169
7.9544510176 13.6522696974 9.8937010519
7.4651964689 14.2221652462 9.2131112509
7.7426079742 14.0112756500 1.7097722764
7.4773827676 14.3361796018 2.0974566351
7.6451880050 14.7258026174 2.5015229259
7.5357952734 14.8208072368 8.6943671495
7.1496745025 15.1157013055 8.1832601656
6.7158600059 15.3653106443 3.1909128346
7.8672381463 15.1250082368 2.8758364631
6.8219604580 15.8524180620 7.0490477672
7.5034724819 15.8396679008 7.3957824976
7.8304656769 15.5889118343 7.8488638258
8.5903495697 2.3464089046 8.1917716382
9.2385818933 1.9550061245 8.5853741197
9.1836002928 1.7169453226 9.5390333549
9.0741756069 1.8402886300 10.6477816730
8.3576200909 2.3183883512 10.9970727499
8.8596278956 2.2795566405 11.3539948577
7.9709208638 3.3464472323 6.9416910831
8.2949524403 3.7193729449 6.3877800263
8.7607522879 3.1618742041 6.8824692726
9.0418436175 2.6131154305 7.4804491772
8.2175919707 2.8080181357 11.5400848258
8.7346975122 3.2971028449 12.1812284092
8.4912051399 4.2805055229 5.7791637798
8.6688371352 4.1123517433 12.6063737875
8.4675248310 5.2070086404 4.9724302658
8.5399157603 4.7104215612 5.3770852870
8.2939506697 4.7353115576 12.7298488121
7.8553715918 5.3276868287 12.7315356272
8.5803826542 6.5382381541 4.0627275059
8.7927510095 5.7532306060 4.5009885399
8.9322998266 7.3929143166 3.6067700154
8.0006260074 8.2829413214 12.7013620639
8.8149707465 8.9964357274 2.7841297617
9.3352973615 8.1558850631 3.2433709005
8.5127466053 8.7886640644 12.7118795739
8.3275524941 8.9549804338 12.5978554346
8.6549196029 10.2840606900 2.0395562818
8.9641317013 9.7170603132 2.3879570230
8.5750421770 9.6347270051 12.4518340384
8.1877248516 11.5316643481 1.2888437718
8.5437629240 11.0750819967 1.6263560024
8.4030755245 10.9194121871 11.8758636968
8.7431909714 10.2929274261 12.2246462173
8.2039589830 12.1974485264 1.1632521209
8.6751891981 11.7654704879 1.3838403549
9.2258705997 11.1405756478 11.9048169446
8.5748062840 11.7704423696 11.4234168929
8.4724149308 12.8901650374 1.2507161367
8.7999656589 12.5891304983 10.9803429709
8.6642701480 13.1591242902 10.5059544402
8.7810145824 13.4265761087 1.5510783276
8.3267266291 13.9209415256 1.6545248811
8.7893080020 13.9851046231 1.8553361949
8.8534195038 13.8337074700 9.9937625115
8.6104419056 14.2907888705 9.5146851929
8.2881421698 14.3638147133 2.0652528809
8.9151589397 14.7331367193 2.6217656528
7.9612449934 15.1948077858 8.4431941395
8.3525975408 14.8181857301 8.9432500109
9.4403231070 15.2454912876 3.1601343037
9.1798822562 15.7005648578 7.9961936067
8.5419754404 15.8362156910 7.7025291190
8.8254991786 15.3051391979 8.4842108594
9.6930678759 1.4050328314 10.1744059028
9.9507965289 1.3781203901 9.5857603907
10.3980098360 1.1937400662 9.9917360926
10.1168124080 1.2720210686 10.4991951112
9.7162596374 1.4389293021 10.6221791703
10.1469714432 1.5343324358 10.9818820954
9.3426111389 2.2174043464 7.9333605099
9.8037040199 2.3739694028 7.4852949564
10.1536437376 1.9662703780 8.0241121657
10.0120493673 1.5955766178 8.9023106331
9.6047093066 2.0820905271 11.4790971137
9.0658246142 2.5746045497 11.7953741568
9.8501782292 2.6150603981 12.0472168816
9.3774800752 3.6964648179 6.1008001289
9.8995843120 2.8748661932 6.8296605826
9.7960257426 3.2643193067 12.5031387766
9.2279113232 4.5406732287 5.3473221728
9.9965986802 4.6792033503 5.0294627386
10.2242226564 4.0773512894 5.5027470850
9.3535948182 3.7414461111 12.6968174116
8.8153113491 4.2163573828 12.7393527447
9.3956356252 5.1924021445 4.7734619309
9.5670393725 5.8430945747 4.3228392147
10.2778063918 5.1713420883 4.6241643185
9.7550850029 6.6042772008 3.9307962781
10.0471963948 7.4042194622 3.5900783702
9.7998903520 8.7759911408 2.9920106213
10.3695500413 8.1730905047 3.2983435338
9.1065447670 9.2353947893 12.6676009392
9.3840486631 10.1635968731 2.2586864835
9.9208278169 9.6445840037 2.6476933181
10.0880726104 9.5498452223 12.6101623314
9.3587527384 9.7341202967 12.5120488660
9.3696997839 10.8173475650 2.0116254487
9.9530437970 10.4793892250 2.3376169021
9.8259822124 10.5392559122 12.2208534452
8.8860653763 12.3984048077 1.3888194810
9.3598182172 11.7694436448 1.7563049499
10.1286076631 11.2627974818 11.8750725120
9.6180858540 11.7606615684 11.5757895736
8.9297172887 12.9150803424 1.4187455415
9.4016478499 12.8277509903 1.7430752892
9.1381190284 12.8813167325 10.8480256685
9.5182590244 12.4700776927 11.1150280419
9.0751538664 14.2154018942 2.1938883596
9.3621538531 13.6500931976 1.9865363581
9.9435964176 13.9712970781 2.5384641374
9.3425709793 14.1858926992 9.7539976581
9.6123881985 13.6293289596 10.2323368265
9.4723420884 13.0732136839 10.7015367606
10.2209335643 14.7956253093 3.1555736795
9.9721241993 14.1574032812 9.7715508974
9.5858712526 14.7253160070 9.1844318947
10.3917502849 15.4209381140 3.7118066994
10.0496315710 15.5788183915 3.6227362435
10.5471733681 15.7236531539 4.1535229717
10.2625874191 15.7450125882 7.8678866848
9.6369754357 15.8762768072 7.7282957090
9.9637194533 15.3687587496 8.4466211201
10.6775244506 1.2769250680 9.2855524508
11.3251273227 1.0923620567 9.7639143034
10.8117419827 1.1975453444 10.5010514841
11.2001528712 1.4507679955 11.0547454889
10.5949913144 2.3454087389 7.2674942346
11.1108838944 1.9605586304 7.6777925828
11.0675238964 1.5500231324 8.4350576967
10.6553101285 1.9906962529 11.6148429906
11.1647417111 2.7429916296 12.2137167566
10.5949349405 3.3613394360 6.1010907077
11.0177692673 2.7487770513 6.6424523120
10.6403965018 3.1151101699 12.5664118154
9.9653714454 3.3598706987 12.6650315170
10.8388522602 4.4948472420 5.0219300317
11.2498421594 3.7947202095 5.5335455900
10.5671613375 5.8424703946 4.2234827822
11.2845547411 5.0909753237 4.5720311768
10.8494216846 6.6255254759 3.8893722256
11.1368008338 7.4663674507 3.6094469967
10.6551033312 8.9341784710 3.0416757561
11.3558670538 8.3054624109 3.3579336263
10.9532304615 9.6369700599 2.8876714491
11.1045491832 9.3901746343 12.5705213593
10.6631578206 9.8992015251 12.4146685046
10.1469630213 11.2711172717 2.2301060514
10.8264445019 10.5476414593 2.6517941992
10.7121423906 10.7212968458 12.0764337047
10.1670539210 12.2925920628 2.1720449836
10.9716673086 11.7204160630 2.5792236499
10.7012933893 11.2597499424 11.8130819927
10.5556765292 11.8830426514 11.3901628738
9.9859769971 13.1648738655 2.1987112473
10.8621317762 12.9065761721 2.6481800244
10.3156635594 12.9224122875 10.7024026624
11.1386643199 12.3604630580 10.8684208797
11.2408582334 12.9903024909 10.3771503706
11.1097339121 13.9098681731 3.1104668664
10.5538931830 13.6571824994 10.0899490565
11.4203639757 13.6320091740 9.8386912327
10.7038921372 14.2719438182 9.5159005311
11.2696364264 14.6228869306 3.6206647204
10.7088207510 15.0880173003 3.5884569792
11.1400916292 15.2137157772 4.0523127461
10.8040263643 14.8867184422 8.8899261172
10.9693280081 15.8684749882 4.8857252035
11.0766932099 15.6304505649 4.5897114678
11.1667561157 15.9515621504 5.4579727946
11.3260554457 15.8332467778 5.4763950334
11.3388611742 15.9154933920 6.0744547428
11.1264227597 15.7533859297 7.4249036547
10.5609714460 15.8954025844 7.4591332211
11.0825893836 15.4030090849 8.1841648557
11.4369242195 1.2149979608 9.0337730057
11.9282793046 1.3491331858 8.5388425607
12.1753286045 1.1219738122 9.1980777628
12.0123039057 1.0466424615 9.8168346896
11.7712781073 1.1611758350 10.4166624603
11.8503726319 1.3973756314 10.9575922410
11.5127109181 2.3045395330 7.0659278700
12.1853513864 1.7978792901 7.6968934836
11.9664430721 1.8995788608 11.4014225043
12.4924175582 2.7185585019 11.8942453085
11.6859853071 3.0804115757 6.1191007639
11.6713521991 2.6377318696 6.5961659697
11.5667257298 3.1979123659 12.5435919367
12.3305565578 3.4518179849 12.4131483398
11.9938570419 4.2843392508 5.0425619035
12.1111389934 3.5675005444 5.5686531614
12.1560040751 3.5784659982 12.6117685467
11.6307372439 5.8383395589 4.1917294255
12.3693248896 5.0892905330 4.5409097391
11.9473093157 6.6803930856 3.9060257067
12.2910088123 7.6565201169 3.6754927623
11.5573001623 9.1075323008 3.1669651001
12.1515918015 8.5481731711 3.4312907674
11.7088800848 9.0359268375 12.5753745387
12.1172951071 8.6470683894 12.5303177983
11.8841530870 9.1748587675 12.3618404792
11.7420535301 9.9867660680 3.0393681407
11.4825152348 10.2027483111 12.0746203183
11.9188380785 11.0968107449 2.9880011456
11.2900397137 11.0275250336 11.7262296130
11.8122504890 10.4990797818 11.7894811300
11.9934690010 10.8564915767 11.4500834505
11.6896179439 12.1317732548 2.9070488350
11.5459295086 11.6347274319 11.1894575548
12.2004330301 11.3610222988 10.9763728075
11.9531951170 12.1774902072 10.5868735899
11.9609424491 12.9480524362 3.1935267624
11.9992168676 12.9569602748 10.0712045474
11.8878068832 13.7035148926 3.4065992558
11.6246156050 14.1102810577 3.4633453908
12.2396544335 14.0627544250 3.8860064213
12.1365498142 13.4522750569 9.6562113914
11.8150337580 14.2278942058 9.1822236545
11.6285831167 15.3181457214 4.6664621318
11.9755260329 14.8214005987 4.3770045428
12.1476955351 15.1535838776 5.0073400727
11.5881417089 14.9449667068 8.6500942311
12.2324619763 14.7386064923 8.5661090427
11.8754421931 15.1746748017 8.2305007533
11.8453670824 15.4999835210 5.4179946080
11.1957225818 15.8887656780 6.8684151119
11.7272600886 15.6770614952 6.5267475894
11.8338618282 15.4448220016 7.5995082421
12.6939612839 1.3449552984 8.4541971118
12.9518001182 1.1803211269 9.0373894510
12.6831046837 1.1607217323 9.8395301779
12.4094167455 1.3849103088 10.6649597870
12.9345758076 1.3592230396 10.3210515210
12.3626969441 2.4919699947 6.6533316174
13.2586319261 2.6570190027 6.3175822535
13.4284519365 2.1142353246 7.0978499428
13.2146507858 1.6226847978 7.9127265239
13.0858111274 1.7596922402 10.7383937476
12.8343733570 2.2095130951 11.4043354972
13.2565927544 2.1815337929 11.1523717486
12.6631157410 3.0782423222 5.9324762287
12.9233187990 3.7017829570 5.3897200603
13.5792984516 3.1644561039 5.8028832274
13.3944696483 2.6579039228 11.4168541877
13.3345472382 3.5376089862 11.9483282439
13.1448899966 4.4486699326 4.9139834749
12.6291429895 4.1194596959 12.5978942309
13.0869041387 4.3921124220 12.4151624807
12.6929543783 5.8928869580 4.2096006877
13.3825436822 5.2293057011 4.5320249651
13.0366697500 5.0668686169 12.5772264145
13.3925351152 5.4968500241 12.4047276831
13.0143621431 6.7579256379 3.9905398020
13.1246520776 6.2575918695 12.5148685865
13.3739371497 6.6657977312 12.3151917784
13.2886617145 7.5203983940 3.8654575810
12.7595813412 7.8293163267 12.3843777429
13.2995643526 7.6792012862 12.0549399401
12.4350540667 9.2991053890 3.3575764363
13.0833155686 8.4353967069 3.6698507103
12.7937416602 8.6791181159 12.0021595691
13.3401595188 8.3810227287 11.6594691377
13.1076261789 9.2233583292 11.4251183525
12.6433216912 10.2640166366 3.3158326040
13.3454409321 9.4979835289 3.6274724956
12.3475614126 9.9047720258 11.7220181202
12.9309281186 10.0091970788 11.1833587882
12.7923276254 11.0765474473 3.3320822358
13.5064461255 10.6040367464 3.6944220859
12.5866922636 10.6744752363 11.1109890884
13.0845166443 10.5085877466 10.7355110965
12.7917098198 11.4196789498 10.4550928860
12.5647908614 11.9011061954 3.2808762718
13.1930548990 11.4526704208 3.5529258808
12.6086372238 12.3990781121 10.0473498388
12.9747929867 12.5754674793 3.6931182554
12.4428307816 13.3518722799 3.6020693796
12.9957989814 13.3866557859 4.0768288458
12.5166400103 12.9826739028 9.7769171402
12.8576609281 12.7169841391 9.6901730625
12.8028616543 13.3529923010 9.2532632633
12.9357445570 13.9328355033 4.3865977902
12.6107261978 14.2027780595 8.7978557115
12.6297321557 14.3719713837 4.4948701999
12.4602162657 15.1634136146 5.5118098310
12.7078420992 14.7221892943 5.1038584240
12.8920341113 14.8806862455 5.8231531300
12.7768929962 14.5426376356 8.3191982014
12.4486503093 15.0084262098 7.9471887372
12.4729308648 15.2688603447 6.1754446472
12.5066315342 15.1942678896 7.1020451824
13.4650360050 1.3868970916 8.5634711806
13.4519594090 1.2781099391 9.2798550788
13.3827969054 1.4030080997 9.9279084676
13.7833912579 1.4445123535 9.4940115707
14.1989887645 2.6783759176 6.3555023054
14.4940198330 2.1718438259 7.1169905442
14.0851812870 1.7710275142 7.9900446581
13.9905532847 1.8126778378 9.8711764766
13.7114745861 2.2028838341 10.7627582154
14.1770443835 2.2308524980 10.3408233213
13.9930846112 3.8890356578 5.3296152709
14.3638390184 3.2813030420 5.7894158841
14.2633464230 2.7176064566 10.7663656120
13.9190590785 3.1697185643 11.4273212247
14.3157242660 3.2259881678 11.1735513535
14.0938272019 4.7679756517 4.8696454426
14.2934373990 3.7661776170 11.4392272790
13.8894209840 4.7216799895 11.9777574997
13.6694110514 6.0308476866 4.2907346543
14.1352588266 5.4656769311 4.5704491068
13.8870611339 5.9236086119 12.0529945555
14.0361194709 6.9820774289 4.1511912185
13.7966122505 6.8945696813 11.9197193331
13.8812894528 7.8830737993 3.9467095844
14.0647323661 7.7847829035 11.0903699578
14.3773590441 7.3803772773 10.8432788792
14.2621427613 8.0932949614 10.4919393766
13.7407822977 7.7359068147 11.5724822114
14.1660420376 7.0976795850 11.3878327367
14.0437344355 8.7016782355 3.9076049747
13.7536735157 8.6663932372 10.9547004103
14.1551009316 8.8206628641 10.1848304634
14.2132425160 9.6387937677 3.9625383578
13.9028427109 9.5665915111 10.1827283146
14.2799919998 9.2867901752 9.6419368234
14.1572466971 10.1275822193 9.3980790978
13.4096066782 9.7726280469 10.7784841395
14.3871926918 10.4910494269 4.2488607145
13.5578030428 10.6821452820 10.0493411571
14.0072640229 11.2211737091 9.1090567884
13.1664212861 11.9176802023 3.6003287239
13.7518575148 11.6681953063 4.0802466611
13.3210707547 12.1242197733 9.5370903015
13.9374955550 12.1232787941 8.7852153208
13.4774590746 13.5713150223 4.8029886619
13.6160719057 12.7528423579 4.3803871218
13.9461222482 12.9887328227 4.9965058304
13.6311014127 13.0061610246 8.6131135352
14.1141564097 12.4900791975 8.2374992150
14.0229317849 13.0402645466 7.8948729945
13.0915880291 14.1835272527 4.8727283686
13.8826475404 13.4406155829 5.4459326590
13.4129952208 14.1823092315 5.7064842536
13.6238910098 14.0569478952 6.8612828421
13.9953909979 13.4672917195 6.2091737447
13.6657006582 13.7068301565 7.8008446500
14.0650809025 13.2928374637 7.1427143909
13.1622249430 13.9396752063 8.4442605366
13.0761045259 14.7584925923 6.5679995662
13.1084969460 14.5299114683 7.6140495008
13.9957973145 1.5488986387 8.9725276902
14.9369472973 2.5531727934 6.6319148631
15.1542140432 2.2925777319 7.1786502034
14.8284939580 2.0206035846 7.7880357906
14.7198259910 1.9926361466 8.8451160860
14.5992472030 2.2832983249 9.8693163928
15.0062537296 2.3290283072 9.4164634820
14.7655473690 3.7181681046 5.5787294670
15.1153737268 3.1938532935 6.0836317874
15.0712340543 2.7947695815 9.9967990009
14.7398778180 3.2882785386 10.8048812190
15.1542926939 3.3365551243 10.4424191923
14.8636789249 4.4590011873 5.2272225039
15.2037832406 3.9263245298 5.5984289508
15.1068292246 3.9773966616 10.7898922202
14.6190955990 4.5543224779 11.4250462538
15.0749632492 4.9279347810 11.0173726301
14.5052834130 6.1647580909 4.4825191228
14.7664117490 5.3955463951 4.8232599411
14.5265407216 5.4971613082 11.5046913871
15.0199357251 5.6273137753 10.9382654730
14.8047961067 6.9048607337 4.4242292332
15.2343349389 6.4501797742 4.8116448264
15.0570158206 6.7496911152 9.9223033136
15.3916229738 6.2383787218 9.6411710541
15.2975367351 6.7781548391 9.1899489258
14.6858298884 6.5068942120 10.8979126795
15.2256270484 5.9782195570 10.3445922511
14.2400215239 6.3668153512 11.6334252856
14.7399459607 7.8456363060 4.2798329732
15.1430017474 7.2054963616 4.5723065800
15.1428595015 8.0861635558 8.0188985557
15.4494920292 7.5016375403 7.5525853414
15.3588801507 8.0992807087 7.1714077947
14.9866732419 7.5885604888 9.1411940562
15.3747913649 7.1327351545 8.3817168098
14.6592448565 7.4599484196 10.1674746142
14.7197160894 8.8774104982 4.1566711943
15.1339407805 8.9568369914 7.2095536499
15.4191599355 8.4717354006 6.5399816176
15.3004397748 9.2614808534 6.2334738090
14.8959127422 8.9441818086 8.0978028952
14.8272849241 8.4952194904 8.7218013964
14.5399899516 8.4556874109 9.5970775931
14.9801920024 9.5178927657 4.3961958654
14.9839698912 10.1301672757 6.7868729460
15.1602779377 10.0184766640 5.9413654823
14.8024161593 9.8013751301 7.8226766040
14.5773955721 9.3898385034 8.8215927615
14.9545589930 10.1978886982 4.7182893960
14.5946375942 11.1330099469 4.9547633084
14.8679197833 10.9340455732 6.0053083399
15.1064774316 10.2290995884 5.3101037883
14.7871691876 11.0864813746 6.8725606288
14.6933725312 10.8194865886 7.5948516466
14.4609188935 10.5214680284 8.5027126842
14.1747943915 12.2476856155 4.9189168003
14.5312903390 11.9754523727 5.7422421752
14.6305120982 11.8230033114 6.6502283712
14.6047151040 11.5970306805 7.3679732036
14.3553313281 11.6352574700 8.1862677170
14.2178185384 12.8348823029 5.6106274924
14.3595522264 12.6856735068 6.4721666936
14.3589586604 12.4198054504 7.4535431287
15.3927053934 2.6902333032 6.6378203429
15.4628540928 2.4656678207 7.0918777605
15.2656341888 2.2089646930 8.0847484629
15.2814498460 2.3903313399 9.0747772135
15.4717938016 2.4329686246 8.8436186298
15.5102483428 2.9829608129 6.3773813681
15.5874590593 2.8333297735 6.5775677896
15.4863783384 2.8402724488 9.5565585731
15.4254740824 3.3678314211 10.1526252697
15.6036267577 3.3837498248 9.9607122829
15.3771489353 4.4181733738 5.4167285407
15.4536066194 3.8733118034 5.7453021053
15.5249173467 3.2283592257 6.2024797399
15.5593756475 4.0362448701 10.2768146747
15.4775762859 4.7448098067 10.4522332017
15.7076033553 4.8766776854 9.9941738346
15.3138973720 5.2461550493 5.1143372826
15.5024628841 4.5334717824 5.4246835302
15.9942558092 6.3855639626 6.7643419560
15.9658022356 6.2110860559 7.3102753783
16.0410509061 6.0428833266 7.2135074557
15.8941920296 5.9905071489 8.1384272275
16.0132524860 5.8668131429 7.7535395052
15.8395862145 5.6975930341 8.9304424109
15.9547408655 5.6480826009 8.5282565057
15.6148750989 5.5253783630 9.7961613733
15.8474067272 5.3764945969 9.3321115291
15.3431860907 5.3329108223 10.5713392489
15.5056852591 6.2031458415 5.0582357312
15.8698960425 6.8020205524 6.6729351139
15.8848445844 6.8249864203 6.0992025837
15.7124912629 6.7351383665 7.6242749620
15.6197693488 6.2598162295 8.8189892194
15.4535818568 7.6665691616 4.9326086420
15.6558173705 6.8981509523 5.3124647449
15.7448595490 7.3712322389 5.8374907524
15.6213694856 7.6142090548 6.6778620757
15.2436713392 8.5983945677 4.4969647162
15.5637509320 8.4371658582 4.9385473990
15.5769050953 8.9124761360 4.9734296760
15.5603321688 8.5234433532 5.5830462980
15.3983507899 9.1495941218 4.6435408875
15.3621587058 9.4587977923 4.9694348155
15.3554907925 9.5075241590 5.5625101431
3 2 1 0
3 0 3 2
3 6 5 4
3 8 7 4
3 4 7 6
3 7 8 1
3 8 0 1
3 8 9 0
3 3 0 10
3 10 0 9
3 4 5 11
3 11 5 12
3 4 13 8
3 4 11 13
3 15 9 14
3 9 13 14
3 9 8 13
3 9 15 10
3 11 12 16
3 16 12 17
3 19 13 18
3 13 16 18
3 13 11 16
3 13 19 14
3 16 17 20
3 20 17 21
3 18 16 22
3 22 16 20
3 21 23 20
3 20 23 22
3 26 25 24
3 1 2 24
3 2 26 24
3 2 27 26
3 2 3 27
3 27 3 28
3 30 29 6
3 6 29 5
3 7 24 25
3 30 7 25
3 6 7 30
3 24 7 1
3 10 28 3
3 10 31 28
3 29 12 5
3 32 12 29
3 14 33 15
3 33 34 15
3 34 10 15
3 34 31 10
3 32 17 12
3 35 17 32
3 18 36 19
3 36 37 19
3 19 37 14
3 37 38 14
3 38 33 14
3 33 38 34
3 35 21 17
3 39 21 35
3 41 40 36
3 18 41 36
3 22 41 18
3 36 40 37
3 39 42 21
3 21 42 23
3 22 23 41
3 41 23 42
3 45 44 43
3 47 46 43
3 43 46 45
3 47 48 46
3 51 50 49
3 25 26 49
3 26 51 49
3 26 52 51
3 27 43 44
3 52 27 44
3 26 27 52
3 43 27 28
3 53 43 28
3 47 43 53
3 48 47 54
3 47 55 54
3 47 53 55
3 55 56 54
3 49 50 30
3 50 29 30
3 50 57 29
3 49 30 25
3 31 58 53
3 31 53 28
3 53 59 55
3 53 58 59
3 56 55 60
3 60 55 59
3 63 62 61
3 57 63 61
3 32 57 61
3 29 57 32
3 34 64 58
3 34 58 31
3 66 59 65
3 59 64 65
3 59 58 64
3 59 66 60
3 61 62 67
3 67 62 68
3 67 35 32
3 67 32 61
3 37 69 38
3 64 34 38
3 69 64 38
3 70 64 69
3 65 64 71
3 71 64 70
3 67 68 72
3 72 68 73
3 72 39 35
3 72 35 67
3 41 74 40
3 69 37 40
3 74 69 40
3 75 69 74
3 77 70 76
3 70 75 76
3 70 69 75
3 70 77 71
3 72 73 78
3 78 73 79
3 80 42 39
3 72 80 39
3 78 80 72
3 74 41 42
3 80 74 42
3 81 74 80
3 83 75 82
3 75 81 82
3 75 74 81
3 75 83 76
3 78 79 84
3 84 79 85
3 78 86 80
3 78 84 86
3 88 81 87
3 81 86 87
3 81 80 86
3 81 88 82
3 85 89 84
3 84 89 86
3 86 89 90
3 86 90 87
3 93 92 91
3 95 94 91
3 91 94 93
3 97 96 95
3 95 96 94
3 97 98 96
3 101 100 99
3 101 99 92
3 92 99 91
3 99 44 91
3 44 45 91
3 91 45 46
3 91 46 95
3 95 46 48
3 102 95 48
3 97 95 102
3 98 97 103
3 103 97 102
3 105 104 51
3 51 104 50
3 52 99 100
3 105 52 100
3 51 52 105
3 99 52 44
3 54 102 48
3 107 106 56
3 56 106 54
3 106 103 54
3 103 102 54
3 107 108 106
3 111 110 109
3 104 111 109
3 57 104 109
3 50 104 57
3 60 112 107
3 60 107 56
3 108 107 113
3 113 107 112
3 116 115 114
3 116 114 110
3 110 114 109
3 114 62 109
3 62 63 109
3 109 63 57
3 65 117 66
3 112 60 66
3 117 112 66
3 118 112 117
3 113 112 119
3 119 112 118
3 114 115 120
3 120 115 121
3 120 68 62
3 120 62 114
3 71 122 117
3 71 117 65
3 124 118 123
3 118 122 123
3 118 117 122
3 118 124 119
3 120 121 125
3 125 121 126
3 125 73 68
3 125 68 120
3 76 127 77
3 122 71 77
3 127 122 77
3 128 122 127
3 123 122 129
3 129 122 128
3 125 126 130
3 130 126 131
3 130 79 73
3 130 73 125
3 82 132 83
3 127 76 83
3 132 127 83
3 133 127 132
3 135 128 134
3 128 133 134
3 128 127 133
3 128 135 129
3 130 131 136
3 136 131 137
3 136 85 79
3 136 79 130
3 87 138 88
3 132 82 88
3 138 132 88
3 139 132 138
3 141 133 140
3 133 139 140
3 133 132 139
3 133 141 134
3 137 142 136
3 142 144 143
3 142 143 89
3 136 142 89
3 85 136 89
3 145 90 89
3 145 89 143
3 138 87 90
3 145 138 90
3 146 138 145
3 148 139 147
3 139 146 147
3 139 138 146
3 139 148 140
3 144 149 143
3 151 150 149
3 150 143 149
3 150 145 143
3 153 146 152
3 146 150 152
3 146 145 150
3 146 153 147
3 151 154 150
3 150 154 152
3 157 156 155
3 155 158 157
3 161 160 159
3 92 93 159
3 93 161 159
3 93 162 161
3 163 93 94
3 163 162 93
3 96 155 156
3 163 96 156
3 94 96 163
3 165 164 98
3 98 164 96
3 164 158 96
3 158 155 96
3 165 166 164
3 169 168 167
3 169 167 160
3 160 167 159
3 167 100 159
3 100 101 159
3 159 101 92
3 103 170 165
3 103 165 98
3 166 165 171
3 171 165 170
3 174 173 172
3 174 172 168
3 168 172 167
3 172 104 167
3 104 105 167
3 167 105 100
3 106 170 103
3 176 175 108
3 108 175 106
3 175 171 106
3 171 170 106
3 176 177 175
3 172 173 111
3 173 110 111
3 173 178 110
3 172 111 104
3 180 179 176
3 108 180 176
3 113 180 108
3 176 179 177
3 182 181 116
3 116 181 115
3 116 110 178
3 116 178 182
3 119 180 113
3 119 183 180
3 181 121 115
3 184 121 181
3 123 185 124
3 185 186 124
3 186 119 124
3 186 183 119
3 189 188 187
3 184 189 187
3 126 184 187
3 121 184 126
3 129 190 185
3 129 185 123
3 186 185 191
3 191 185 190
3 187 188 192
3 192 188 193
3 192 131 126
3 192 126 187
3 134 194 135
3 194 195 135
3 135 195 129
3 195 196 129
3 196 190 129
3 190 196 191
3 193 197 192
3 131 192 197
3 198 131 197
3 137 131 198
3 140 199 141
3 199 200 141
3 141 200 134
3 200 201 134
3 201 194 134
3 194 201 195
3 142 137 202
3 137 203 202
3 137 198 203
3 202 144 142
3 147 204 148
3 204 205 148
3 148 205 140
3 205 206 140
3 206 199 140
3 199 206 200
3 203 207 202
3 207 209 208
3 207 208 149
3 202 207 149
3 144 202 149
3 208 151 149
3 152 210 153
3 210 211 153
3 153 211 147
3 211 212 147
3 212 204 147
3 204 212 205
3 208 209 213
3 213 209 214
3 215 154 151
3 208 215 151
3 213 215 208
3 215 216 154
3 154 216 152
3 216 217 152
3 217 210 152
3 210 217 211
3 220 219 218
3 222 221 218
3 218 221 220
3 156 157 222
3 157 221 222
3 157 223 221
3 225 224 158
3 224 157 158
3 224 223 157
3 225 226 224
3 228 227 161
3 161 227 160
3 162 218 219
3 228 162 219
3 161 162 228
3 218 162 163
3 218 163 222
3 222 163 156
3 164 225 158
3 230 229 166
3 166 229 164
3 229 226 164
3 226 225 164
3 230 231 229
3 233 232 169
3 169 232 168
3 169 160 227
3 169 227 233
3 171 234 230
3 171 230 166
3 231 230 235
3 235 230 234
3 237 236 174
3 174 236 173
3 174 168 232
3 174 232 237
3 175 234 171
3 175 177 234
3 177 235 234
3 177 238 235
3 236 178 173
3 239 178 236
3 180 240 179
3 240 241 179
3 241 177 179
3 241 238 177
3 243 242 182
3 182 242 181
3 182 178 239
3 182 239 243
3 183 244 240
3 183 240 180
3 241 240 245
3 245 240 244
3 248 247 246
3 242 248 246
3 184 242 246
3 181 242 184
3 250 249 244
3 183 250 244
3 186 250 183
3 244 249 245
3 246 247 189
3 247 188 189
3 247 251 188
3 246 189 184
3 191 250 186
3 191 252 250
3 255 254 253
3 251 255 253
3 193 251 253
3 188 251 193
3 257 256 196
3 257 196 195
3 191 196 252
3 252 196 256
3 253 254 258
3 258 254 259
3 260 197 193
3 253 260 193
3 258 260 253
3 260 198 197
3 200 261 201
3 261 262 201
3 262 195 201
3 262 257 195
3 259 263 258
3 258 263 260
3 260 263 264
3 198 260 264
3 265 198 264
3 203 198 265
3 205 266 206
3 266 267 206
3 206 267 200
3 267 268 200
3 268 261 200
3 261 268 262
3 207 203 269
3 203 270 269
3 203 265 270
3 269 209 207
3 211 271 212
3 271 272 212
3 212 272 205
3 272 273 205
3 273 266 205
3 266 273 267
3 270 274 269
3 209 269 274
3 275 209 274
3 214 209 275
3 277 276 217
3 277 217 216
3 211 217 271
3 217 278 271
3 217 276 278
3 271 278 272
3 281 280 279
3 283 282 279
3 279 282 281
3 283 284 282
3 286 285 220
3 220 285 219
3 221 279 280
3 286 221 280
3 220 221 286
3 279 221 223
3 279 223 283
3 287 284 283
3 223 287 283
3 224 287 223
3 289 288 226
3 288 224 226
3 288 287 224
3 289 290 288
3 292 291 228
3 228 291 227
3 228 219 285
3 228 285 292
3 229 289 226
3 229 231 289
3 231 290 289
3 231 293 290
3 295 294 233
3 233 294 232
3 233 227 291
3 233 291 295
3 235 293 231
3 235 296 293
3 298 297 237
3 237 297 236
3 237 232 294
3 237 294 298
3 238 300 299
3 296 238 299
3 235 238 296
3 297 239 236
3 301 239 297
3 303 302 300
3 238 303 300
3 241 303 238
3 305 304 243
3 243 304 242
3 243 239 301
3 243 301 305
3 245 303 241
3 245 306 303
3 308 307 248
3 248 307 247
3 248 242 304
3 248 304 308
3 250 309 249
3 309 310 249
3 310 245 249
3 310 306 245
3 313 312 311
3 307 313 311
3 251 307 311
3 247 307 251
3 315 314 309
3 250 315 309
3 252 315 250
3 309 314 310
3 311 312 255
3 312 254 255
3 312 316 254
3 311 255 251
3 257 317 256
3 317 318 256
3 318 252 256
3 318 315 252
3 316 259 254
3 319 259 316
3 321 320 317
3 257 321 317
3 262 321 257
3 317 320 318
3 263 259 322
3 259 323 322
3 259 319 323
3 324 264 263
3 324 263 322
3 324 265 264
3 326 325 268
3 326 268 267
3 262 268 321
3 321 268 325
3 323 327 322
3 322 327 324
3 324 327 328
3 265 324 328
3 329 265 328
3 270 265 329
3 331 330 273
3 331 273 272
3 267 273 326
3 326 273 330
3 274 270 332
3 270 333 332
3 270 329 333
3 332 275 274
3 277 334 276
3 276 334 335
3 336 276 335
3 278 276 336
3 272 278 331
3 331 278 336
3 338 337 281
3 281 337 280
3 339 281 282
3 339 338 281
3 341 340 284
3 340 282 284
3 340 339 282
3 341 342 340
3 345 344 343
3 285 286 343
3 286 345 343
3 286 346 345
3 286 280 337
3 286 337 346
3 287 341 284
3 347 342 341
3 287 347 341
3 288 347 287
3 288 290 347
3 347 290 348
3 343 344 292
3 344 291 292
3 344 349 291
3 343 292 285
3 293 348 290
3 293 350 348
3 352 351 295
3 295 351 294
3 295 291 349
3 295 349 352
3 296 354 353
3 350 296 353
3 293 296 350
3 356 355 298
3 298 355 297
3 298 294 351
3 298 351 356
3 299 354 296
3 355 301 297
3 357 301 355
3 303 358 302
3 360 359 305
3 305 359 304
3 305 301 357
3 305 357 360
3 362 361 358
3 303 362 358
3 306 362 303
3 364 363 308
3 308 363 307
3 308 304 359
3 308 359 364
3 310 362 306
3 310 365 362
3 366 312 313
3 367 366 313
3 307 367 313
3 363 367 307
3 315 368 314
3 368 369 314
3 369 310 314
3 369 365 310
3 371 370 366
3 370 312 366
3 370 316 312
3 371 366 367
3 373 372 368
3 315 373 368
3 318 373 315
3 368 372 369
3 370 319 316
3 374 319 370
3 376 375 320
3 376 320 321
3 318 320 373
3 373 320 375
3 378 323 377
3 323 374 377
3 323 319 374
3 379 378 377
3 381 380 325
3 381 325 326
3 321 325 376
3 376 325 380
3 378 327 323
3 379 382 378
3 382 327 378
3 382 328 327
3 329 328 382
3 329 382 383
3 331 384 330
3 384 385 330
3 385 326 330
3 385 381 326
3 383 333 329
3 386 333 383
3 388 387 336
3 388 336 335
3 331 336 384
3 336 389 384
3 336 387 389
3 384 389 385
3 392 391 390
3 394 393 390
3 390 393 392
3 394 395 393
3 398 397 396
3 337 338 396
3 338 398 396
3 338 399 398
3 339 390 391
3 399 339 391
3 338 339 399
3 390 339 340
3 390 340 394
3 401 400 342
3 342 400 340
3 400 395 340
3 395 394 340
3 401 402 400
3 404 403 345
3 345 403 344
3 346 396 397
3 404 346 397
3 345 346 404
3 396 346 337
3 347 401 342
3 347 348 401
3 348 402 401
3 348 405 402
3 408 407 406
3 403 408 406
3 349 403 406
3 344 403 349
3 350 410 409
3 405 350 409
3 348 350 405
3 413 412 411
3 413 411 407
3 407 411 406
3 411 351 406
3 351 352 406
3 406 352 349
3 353 410 350
3 411 412 356
3 412 355 356
3 412 414 355
3 411 356 351
3 414 357 355
3 415 357 414
3 417 416 360
3 360 416 359
3 360 357 415
3 360 415 417
3 362 418 361
3 419 363 364
3 420 419 364
3 359 420 364
3 416 420 359
3 422 421 418
3 362 422 418
3 365 422 362
3 424 423 419
3 423 363 419
3 423 367 363
3 424 419 420
3 369 422 365
3 369 425 422
3 426 370 371
3 427 426 371
3 367 427 371
3 423 427 367
3 429 428 372
3 429 372 373
3 369 372 425
3 425 372 428
3 430 374 426
3 426 374 370
3 426 427 431
3 426 431 430
3 376 432 375
3 432 433 375
3 433 373 375
3 433 429 373
3 430 377 374
3 435 434 379
3 435 379 377
3 431 435 377
3 430 431 377
3 436 434 435
3 381 437 380
3 437 438 380
3 380 438 376
3 438 439 376
3 439 432 376
3 432 439 433
3 434 382 379
3 383 382 434
3 436 383 434
3 440 383 436
3 442 441 437
3 381 442 437
3 385 442 381
3 437 441 438
3 444 386 443
3 386 440 443
3 386 383 440
3 445 444 443
3 447 446 387
3 447 387 388
3 387 448 389
3 446 448 387
3 385 389 442
3 442 389 448
3 450 449 392
3 392 449 391
3 451 392 393
3 451 450 392
3 393 395 451
3 451 395 452
3 454 453 398
3 398 453 397
3 455 398 399
3 455 454 398
3 399 391 449
3 399 449 455
3 456 452 395
3 456 395 400
3 400 402 456
3 456 402 457
3 459 458 404
3 404 458 403
3 404 397 453
3 404 453 459
3 405 461 460
3 457 405 460
3 402 405 457
3 463 462 408
3 408 462 407
3 408 403 458
3 408 458 463
3 409 461 405
3 465 464 413
3 413 464 412
3 413 407 462
3 413 462 465
3 464 414 412
3 466 414 464
3 466 415 414
3 467 415 466
3 469 468 417
3 417 468 416
3 417 415 467
3 417 467 469
3 468 420 416
3 470 420 468
3 472 471 421
3 472 421 422
3 473 423 424
3 474 473 424
3 420 474 424
3 470 474 420
3 425 472 422
3 425 475 472
3 476 427 473
3 473 427 423
3 473 474 477
3 473 477 476
3 479 478 428
3 479 428 429
3 425 428 475
3 475 428 478
3 480 431 476
3 476 431 427
3 476 477 481
3 476 481 480
3 484 483 482
3 483 479 482
3 479 433 482
3 479 429 433
3 480 435 431
3 436 435 480
3 481 436 480
3 485 436 481
3 488 487 486
3 486 487 484
3 486 484 482
3 438 486 482
3 439 438 482
3 439 482 433
3 490 440 489
3 440 485 489
3 440 436 485
3 491 490 489
3 488 486 441
3 442 488 441
3 492 488 442
3 441 486 438
3 490 443 440
3 494 493 445
3 494 445 443
3 491 494 443
3 490 491 443
3 496 495 493
3 496 493 494
3 497 495 496
3 499 498 446
3 499 446 447
3 446 500 448
3 498 500 446
3 442 448 492
3 492 448 500
3 503 502 501
3 449 450 501
3 450 503 501
3 450 504 503
3 505 450 451
3 505 504 450
3 451 452 505
3 505 452 506
3 508 507 454
3 454 507 453
3 455 501 502
3 508 455 502
3 454 455 508
3 501 455 449
3 509 506 452
3 509 452 456
3 456 457 509
3 509 457 510
3 512 511 459
3 459 511 458
3 459 453 507
3 459 507 512
3 457 460 513
3 514 457 513
3 510 457 514
3 516 515 463
3 463 515 462
3 463 458 511
3 463 511 516
3 517 514 513
3 519 518 465
3 465 518 464
3 465 462 515
3 465 515 519
3 518 466 464
3 520 466 518
3 520 467 466
3 521 467 520
3 523 522 469
3 469 522 468
3 469 467 521
3 469 521 523
3 526 525 524
3 522 470 468
3 527 470 522
3 526 524 471
3 472 526 471
3 528 526 472
3 527 474 470
3 529 474 527
3 532 531 530
3 531 528 530
3 528 475 530
3 528 472 475
3 529 477 474
3 533 477 529
3 536 535 534
3 534 535 532
3 534 532 530
3 479 534 530
3 478 479 530
3 478 530 475
3 533 481 477
3 537 481 533
3 536 534 483
3 484 536 483
3 538 536 484
3 483 534 479
3 540 485 539
3 485 537 539
3 485 481 537
3 541 540 539
3 543 542 487
3 543 487 488
3 484 487 538
3 538 487 542
3 540 489 485
3 545 544 491
3 545 491 489
3 541 545 489
3 540 541 489
3 546 544 545
3 549 548 547
3 548 543 547
3 543 492 547
3 543 488 492
3 544 494 491
3 546 550 544
3 550 494 544
3 550 496 494
3 552 551 497
3 496 552 497
3 550 552 496
3 498 499 551
3 552 498 551
3 553 498 552
3 547 500 549
3 500 553 549
3 500 498 553
3 500 547 492
3 555 554 503
3 503 554 502
3 556 503 504
3 556 555 503
3 558 556 557
3 556 505 557
3 556 504 505
3 506 557 505
3 561 560 559
3 507 508 559
3 508 561 559
3 508 562 561
3 508 502 554
3 508 554 562
3 563 558 557
3 565 563 564
3 564 563 509
3 563 557 509
3 557 506 509
3 510 564 509
3 568 567 566
3 568 566 560
3 560 566 559
3 566 511 559
3 511 512 559
3 559 512 507
3 569 565 564
3 564 510 569
3 510 570 569
3 510 514 570
3 566 567 516
3 567 515 516
3 567 571 515
3 566 516 511
3 514 517 572
3 573 514 572
3 570 514 573
3 575 574 519
3 519 574 518
3 519 515 571
3 519 571 575
3 573 572 576
3 573 576 577
3 574 520 518
3 578 520 574
3 577 576 579
3 577 579 580
3 578 521 520
3 581 521 578
3 580 579 582
3 580 582 583
3 584 522 523
3 585 584 523
3 521 585 523
3 581 585 521
3 588 587 586
3 586 587 583
3 586 583 582
3 526 586 582
3 525 526 582
3 589 527 584
3 584 527 522
3 584 585 590
3 584 590 589
3 588 586 591
3 588 591 592
3 528 591 526
3 526 591 586
3 593 529 589
3 589 529 527
3 589 590 594
3 589 594 593
3 597 596 595
3 595 596 592
3 595 592 591
3 532 595 591
3 531 532 591
3 531 591 528
3 599 598 593
3 598 529 593
3 598 533 529
3 599 593 594
3 597 595 535
3 536 597 535
3 600 597 536
3 535 595 532
3 602 537 601
3 537 598 601
3 537 533 598
3 603 602 601
3 606 605 604
3 605 600 604
3 600 538 604
3 600 536 538
3 602 539 537
3 541 539 602
3 603 541 602
3 607 541 603
3 606 604 542
3 543 606 542
3 608 606 543
3 542 604 538
3 607 609 541
3 541 609 545
3 611 610 546
3 545 611 546
3 609 611 545
3 612 610 611
3 614 613 548
3 614 548 549
3 543 548 608
3 608 548 613
3 610 550 546
3 612 615 610
3 615 550 610
3 615 552 550
3 552 616 553
3 615 616 552
3 549 553 614
3 614 553 616
3 618 617 555
3 555 617 554
3 620 618 619
3 618 556 619
3 618 555 556
3 558 619 556
3 622 621 561
3 561 621 560
3 623 561 562
3 623 622 561
3 562 554 617
3 562 617 623
3 624 620 619
3 626 624 625
3 625 624 563
3 624 619 563
3 619 558 563
3 565 625 563
3 628 627 568
3 568 627 567
3 568 560 621
3 568 621 628
3 629 626 625
3 631 629 630
3 630 629 569
3 629 625 569
3 625 565 569
3 570 630 569
3 627 571 567
3 632 571 627
3 633 631 630
3 630 570 633
3 570 634 633
3 570 573 634
3 636 635 575
3 575 635 574
3 575 571 632
3 575 632 636
3 577 634 573
3 577 637 634
3 635 578 574
3 638 578 635
3 580 637 577
3 580 639 637
3 638 581 578
3 640 581 638
3 643 642 641
3 645 644 641
3 645 641 642
3 645 639 644
3 639 583 644
3 639 580 583
3 640 585 581
3 646 585 640
3 643 641 647
3 643 647 648
3 588 647 587
3 647 644 587
3 647 641 644
3 587 644 583
3 646 590 585
3 649 590 646
3 652 651 650
3 650 651 648
3 647 650 648
3 653 650 647
3 592 653 588
3 588 653 647
3 649 594 590
3 654 594 649
3 652 650 655
3 652 655 656
3 597 655 596
3 655 653 596
3 655 650 653
3 596 653 592
3 657 598 599
3 658 657 599
3 594 658 599
3 654 658 594
3 656 655 659
3 656 659 660
3 600 659 597
3 597 659 655
3 657 601 598
3 662 661 603
3 662 603 601
3 658 662 601
3 657 658 601
3 663 661 662
3 666 665 664
3 664 665 660
3 664 660 659
3 606 664 659
3 605 606 659
3 605 659 600
3 667 607 661
3 661 607 603
3 661 663 668
3 669 661 668
3 667 661 669
3 671 670 669
3 671 669 668
3 673 672 670
3 673 670 671
3 672 673 666
3 664 672 666
3 674 672 664
3 608 674 606
3 606 674 664
3 667 609 607
3 609 667 611
3 611 667 669
3 611 669 612
3 669 675 612
3 669 670 675
3 676 670 672
3 675 670 676
3 614 676 613
3 676 674 613
3 676 672 674
3 613 674 608
3 675 615 612
3 615 675 616
3 616 675 676
3 616 676 614
3 677 617 618
3 620 677 618
3 679 678 622
3 622 678 621
3 680 622 623
3 680 679 622
3 623 617 677
3 681 623 677
3 680 623 681
3 683 681 682
3 682 681 624
3 681 677 624
3 677 620 624
3 626 682 624
3 684 627 628
3 685 684 628
3 621 685 628
3 678 685 621
3 686 683 682
3 688 686 687
3 687 686 629
3 686 682 629
3 682 626 629
3 631 687 629
3 690 689 684
3 689 627 684
3 689 632 627
3 690 684 685
3 691 688 687
3 693 691 692
3 692 691 633
3 691 687 633
3 687 631 633
3 634 692 633
3 694 635 636
3 695 694 636
3 632 695 636
3 689 695 632
3 693 692 696
3 693 696 697
3 637 696 634
3 634 696 692
3 698 638 694
3 694 638 635
3 694 695 699
3 694 699 698
3 702 701 700
3 704 703 700
3 704 700 701
3 703 704 697
3 696 703 697
3 705 703 696
3 639 705 637
3 637 705 696
3 707 706 698
3 706 638 698
3 706 640 638
3 707 698 699
3 710 709 708
3 712 711 708
3 712 708 709
3 711 712 702
3 700 711 702
3 713 711 700
3 643 713 642
3 713 703 642
3 713 700 703
3 642 703 645
3 645 703 705
3 645 705 639
3 706 646 640
3 714 646 706
3 717 716 715
3 715 716 710
3 708 715 710
3 718 715 708
3 719 708 711
3 718 708 719
3 720 711 713
3 719 711 720
3 648 720 643
3 643 720 713
3 714 649 646
3 721 649 714
3 717 715 722
3 717 722 723
3 724 715 718
3 722 715 724
3 725 718 719
3 724 718 725
3 652 725 651
3 725 720 651
3 725 719 720
3 651 720 648
3 727 654 726
3 654 721 726
3 654 649 721
3 729 728 727
3 729 727 726
3 728 729 723
3 722 728 723
3 730 728 722
3 731 722 724
3 730 722 731
3 732 724 725
3 731 724 732
3 656 732 652
3 652 732 725
3 733 658 727
3 727 658 654
3 734 727 728
3 733 727 734
3 735 728 730
3 734 728 735
3 736 730 731
3 735 730 736
3 737 731 732
3 736 731 737
3 660 737 656
3 656 737 732
3 733 662 658
3 662 733 663
3 733 738 663
3 733 734 738
3 739 734 735
3 738 734 739
3 740 735 736
3 739 735 740
3 666 740 665
3 740 737 665
3 740 736 737
3 665 737 660
3 738 668 663
3 668 738 671
3 671 738 739
3 671 739 673
3 673 739 740
3 673 740 666
3 741 678 679
3 741 679 742
3 679 743 742
3 679 680 743
3 745 743 744
3 743 681 744
3 743 680 681
3 683 744 681
3 746 685 741
3 741 685 678
3 741 742 747
3 741 747 746
3 748 745 744
3 750 748 749
3 749 748 686
3 748 744 686
3 744 683 686
3 688 749 686
3 751 689 690
3 752 751 690
3 752 690 685
3 753 752 685
3 746 753 685
3 753 746 747
3 754 750 749
3 756 754 755
3 755 754 691
3 754 749 691
3 749 688 691
3 693 755 691
3 758 757 751
3 757 689 751
3 757 695 689
3 761 760 759
3 752 758 751
3 763 762 760
3 763 760 761
3 765 764 762
3 765 762 763
3 767 766 764
3 767 764 765
3 766 767 756
3 755 766 756
3 768 766 755
3 697 768 693
3 693 768 755
3 757 699 695
3 769 699 757
3 759 760 770
3 759 770 771
3 772 760 762
3 770 760 772
3 773 762 764
3 772 762 773
3 702 773 701
3 773 766 701
3 773 764 766
3 701 766 704
3 704 766 768
3 704 768 697
3 774 706 707
3 699 769 775
3 774 699 775
3 776 774 775
3 707 699 774
3 776 775 771
3 770 776 771
3 777 776 770
3 710 777 709
3 777 772 709
3 777 770 772
3 709 772 712
3 712 772 773
3 712 773 702
3 779 778 774
3 778 706 774
3 778 714 706
3 781 780 779
3 774 781 779
3 776 781 774
3 717 781 716
3 781 777 716
3 781 776 777
3 716 777 710
3 783 721 782
3 721 778 782
3 721 714 778
3 783 782 780
3 781 783 780
3 784 783 781
3 723 784 717
3 717 784 781
3 783 726 721
3 726 783 729
3 729 783 784
3 729 784 723