OFF
1371 2704 0
1.4731708865 9.7135120982 7.6891997518
1.7011080515 9.7941350418 7.1762465573
1.7947135791 9.2430745458 7.5063472707
1.6603986081 9.3995401989 7.9667896806
1.5378425812 9.7693177963 8.1182073032
1.8172613713 9.5315472250 8.3397326719
1.4459358204 10.0679334793 7.5260535822
1.6316162438 10.2950164973 7.3285874688
1.4859398561 10.1253986189 7.9361255019
1.9109758832 10.1616856748 8.5796988854
1.5437515145 10.3959181896 7.6518781988
1.7678193276 10.6034603371 8.0514942152
2.3793766442 8.5695587418 6.8668064152
2.5883635091 8.7280569933 6.5180916652
2.8427649234 8.2428389933 6.6800602495
2.6267106818 8.2434584778 7.2065857498
2.1940802217 8.7087476863 7.3547793071
2.5224986152 8.3989800455 7.7030936881
2.1230834142 9.1454440753 6.8570823083
2.7326918777 9.3889619001 6.3127863968
2.2950975312 8.9106273068 8.1400041237
2.2424939866 9.5369672160 8.7379590096
2.1525844856 9.8039367008 6.6921260430
2.0166113246 10.3766893121 6.9730034222
2.2990734858 9.9666976222 9.0273818396
2.2912234472 10.2649141081 9.0604353418
2.8167400210 10.2068881867 9.3523367694
1.9282057711 10.7766895559 7.5077871686
2.1261654645 11.0646036862 8.0329437837
2.4003568389 11.3272989583 7.6751095274
2.2138581070 10.9110283083 8.5373384152
2.5136712913 10.6710628862 9.0735700456
2.6831042313 11.5159453715 8.3245619882
2.3557434803 14.0165237253 4.1442400547
2.5553309841 13.7325735985 3.8821984296
2.5022429488 13.5801954521 4.1917989833
2.5293508864 13.6759869632 4.4556799405
2.4026383761 14.4508690580 3.7382563392
2.8126083749 14.7633115102 3.2261844852
2.7045018821 14.0504196121 3.4616004417
2.2996705761 14.5476170908 4.1639618076
2.4514382291 14.2447855483 4.5556354374
2.4674408837 15.0716019664 3.5999368986
2.3422467613 15.0247646700 3.9829234717
2.5013526357 15.4765446175 3.8331693410
2.4490405676 14.9523143832 4.4665566065
2.5148020121 15.4685433388 4.2239881304
3.2983086572 8.4794499032 6.2364933251
3.4299194620 7.8849285943 6.5452033260
3.2087152258 7.8288913049 7.0490062373
3.0953573373 7.9890788164 7.7275048272
2.7772104778 8.3515475639 8.0434122244
3.4373432831 8.2513883276 8.4930295850
3.5130485802 9.1672359009 5.9653799110
2.9717623696 9.0885848216 8.9289918125
2.6675178083 9.6632206617 9.1463934587
3.3353523345 9.5698869940 9.4344722845
2.5753864897 10.3618904026 6.4489021944
3.3591893054 10.1608575105 5.9090590573
3.5386321034 10.1723503074 9.7058236899
2.9857600684 11.2450235874 6.1163322078
3.5284533311 11.2205611983 5.4984193936
2.5233892343 11.1838266845 6.9471545300
2.7997280857 11.2351377927 8.9595978567
3.5728203914 11.0926547112 9.6642367752
2.9489900403 13.0618733773 4.3758311761
3.3942182766 12.9679105441 3.8204582971
3.6347996084 12.5187912450 4.1989462578
3.6602552828 11.9770345016 4.8372987827
3.1168028268 12.3795993794 5.5184841997
3.0520991640 12.1585548963 6.4966643266
3.1297937800 12.6471488554 6.0324301157
2.9829827537 11.9681174675 7.5520198333
3.2732726396 12.0919337642 8.3503616354
3.3724497746 11.8198090739 8.9898375218
2.9993760173 13.4736667589 3.6202716870
3.2132889404 14.0046082904 3.1363378791
3.6550025336 13.3382240572 3.3432954760
2.8173409322 13.6201590989 5.0647860825
3.1472404420 13.2197852453 5.8379869913
3.4784007828 14.6855422558 2.7480139937
2.7583080746 14.6500792904 5.0404784605
3.1491893695 14.1846114085 5.7031028697
2.7502972709 15.5435954826 3.4463326162
3.2625323155 15.5919077607 2.8937951803
2.8197750019 15.5837127726 4.8122084021
3.1840471190 15.1958601502 5.5801984110
3.0637849613 16.1081132253 3.3604275288
3.4305245738 16.3934905933 3.0228125560
2.8598310829 16.0648465298 4.0539360958
3.0866928720 16.3357779484 4.8019611604
3.2770311091 16.1218277007 5.4405236639
3.3353168067 16.7165695843 3.6181790287
3.3242224052 16.8825228109 4.4687996228
3.3970987648 16.8044547810 5.1939104444
3.7530168741 18.7043843736 7.0795215155
3.8396727370 18.5958848624 6.8011434832
3.7816026281 18.5734088627 7.0784968649
3.9231995719 18.6984189979 7.2015394669
3.8909102709 18.8688684770 7.0533363899
3.8885609789 7.4304570757 6.8240971441
4.2108795252 7.6935406534 6.2078659202
4.5390228939 7.0665487202 6.5912504661
4.5058904597 6.9610592554 7.3008704408
3.7382289304 7.4723711618 7.4716008608
4.2585740866 7.2427580089 7.9014059254
3.7359944974 7.6600766015 8.0319769237
4.3225908564 7.5283372406 8.4423734977
4.1990081726 8.5220201793 5.8731977726
4.4473534410 7.9727527404 8.9950175712
4.2111328332 9.3904409776 5.7219466614
4.1698683957 8.7223476252 9.3781502661
4.1214606967 9.6238636225 9.8410638641
4.3002427693 10.3773896670 5.4831156739
4.0904405321 10.3684495848 10.0320115174
4.0581357676 11.2051415999 5.1627959983
4.3337808203 11.5265771939 4.8406180271
4.7435125726 10.9559822750 5.1307431844
4.1998365119 10.8980610184 10.1664331545
4.1970984184 11.2515496125 10.1484880434
4.7897318734 11.1808203005 10.4509341546
4.0579410526 12.7334331934 3.7456797206
4.4143494421 12.0869910666 4.3278646492
3.2633460979 12.8928324054 6.3559449321
3.4803112383 12.8641557834 7.0714571296
3.6317617008 12.6284119479 7.9862020388
3.8634773496 12.5058174109 8.7809463669
4.3466603983 12.3582734804 9.6286632940
4.4505563497 11.7418277679 10.1409870619
4.0639925084 13.9798362881 2.7988999274
4.5507548733 13.2198148287 3.2292288124
3.5081405927 13.6679093894 6.4431399047
3.8650078171 13.5865491590 7.0849550327
4.0146973623 13.3123422678 7.6742796230
4.2344338644 13.1456199749 8.4335824677
4.4995851305 13.0156329162 9.1104977247
4.0353232808 14.6447478911 2.4395844583
4.3651408888 15.0090247350 2.2182902533
4.6498388561 14.4763837106 2.3734608255
3.5998464723 14.7333006294 6.2635286206
3.9897192402 14.3009647897 6.9082111594
3.8588483712 15.2918255563 2.4137147892
4.4249415701 15.6698928493 2.1418043484
3.6593675477 15.7649727085 6.1579906368
4.0981219219 15.2697208795 6.8336643885
3.9037599459 16.2332010087 2.5037033226
4.5844375359 16.4563534769 2.1251196086
3.7201554677 16.8619748047 6.0116521417
4.1428091171 16.3272652169 6.8053335415
4.2726409515 16.9402296083 2.4317046921
4.8381636140 17.1916735161 2.2364631640
3.8844715005 17.0738259178 3.0248033979
3.7830697603 17.4460735784 3.9810108359
3.7782726134 17.6655888936 5.1976539017
3.8636594148 17.8988232624 6.3450884928
4.1230692845 17.3556004314 6.8846335120
4.4357360341 17.4699395803 2.6594993245
4.4124295330 17.9071462357 3.3353819039
4.2373429937 18.1667665614 4.3595936322
4.2051915857 18.4859065328 5.1551245563
4.0439092863 18.6187621272 6.0035579864
4.5254839470 19.1179158786 5.4547616205
3.9971587129 18.2414387499 7.0641763141
4.3966776937 18.6044224173 7.4336452677
4.3684641907 19.2811838571 6.1605527991
4.7142188960 19.6128306095 5.8899525302
4.1713281469 19.1247417219 6.7354132959
4.2643965411 19.0335078903 7.2194223595
4.7130132072 19.6534127378 6.5929608574
4.6519340516 19.4206841016 7.0837986877
5.1194676205 6.5825221775 6.7849843247
5.2249103478 6.9713003334 6.0600869168
5.9239192766 6.2249182939 6.2973796208
5.7047857007 6.1256199225 7.1941723399
5.1651532769 6.4972609970 7.4484313785
5.5895439671 6.2547738261 7.7995894699
5.2100601744 7.8799463200 5.6978065974
5.1432607437 6.7913301463 8.1834734773
5.0380864113 7.4078104204 8.8839444784
4.9419671828 8.7453318507 5.6479128790
5.0419004400 7.8261421925 9.2663755968
4.7658894972 8.1588828298 9.3551531258
5.4518913300 8.1139630678 9.6999130878
5.1278826539 9.4764029537 5.5394521277
5.0214797168 9.0802094828 10.0400125619
4.7533370286 9.8970895942 10.2602719312
5.4884680923 9.5125616280 10.4735646935
5.3545316159 10.2616174286 5.3755015104
4.5993845407 10.5357136883 10.3455033159
5.3534477460 10.3454488874 10.6539125064
5.0533169657 11.4805568752 4.7449343284
5.6208351625 10.9133517148 5.1054071465
5.7513412793 11.2712241463 10.9131875785
4.9925665105 12.5878524168 3.7462505126
5.4910281171 12.0109994509 4.2909934767
4.7939343774 12.2848001944 10.1600682756
5.3061327793 12.1096095590 10.5233472056
5.2020131505 13.8662895874 2.7284835880
5.5609191460 13.1416653597 3.2557626458
4.2183503276 13.9358141248 7.4344803572
4.5784151686 13.9248629254 8.0904836850
4.8663780268 13.6498364393 8.8735965861
5.3045402442 13.4586558304 9.6714036250
5.2330057595 12.7948587163 10.1630871087
5.0539994032 15.1660166722 2.1040471772
5.3771181874 14.5312139531 2.3267778151
4.5202902398 14.7172520467 7.5256601891
4.9453382135 14.6226701675 8.1278694182
5.1624675278 14.3381222742 8.6311039385
5.4643568649 14.1590625324 9.2057151682
5.0274617968 15.9394674989 1.9854554556
4.6152647114 15.7903312609 7.4417364377
5.0512364653 15.3264155393 8.0223972034
5.3118934718 16.6212106250 1.9804767114
4.6815955981 16.8946908633 7.5405766999
5.1509861265 16.2323667530 8.0471293491
5.6683292630 17.4404125737 2.1317712648
4.5140405622 17.8771616636 7.4836919953
5.2337419449 16.9878234800 8.1307307144
5.0913686714 17.6509780878 7.9878357901
5.6685568183 17.4471210196 8.4746316327
5.0328078200 17.9085442300 2.6117263820
4.9916721725 18.3622709899 3.1470142569
5.4298179580 18.4125277423 2.8204005164
4.8089277023 18.5521064417 3.8287924116
4.6453948486 18.7989377157 4.6604464346
5.0166208118 18.4167871320 7.8394296778
5.6145394244 18.1682864628 8.2967624461
5.4254593100 18.7462365041 3.3634750295
5.2924659291 19.1101526203 4.1775910809
4.9553006230 19.2485464637 4.8723698603
5.0325261248 19.5601245079 5.2317529797
5.7017489305 18.8334645677 8.0551904234
5.0181155597 19.1359150353 7.5414973171
4.8764702603 19.8413527349 6.2128301018
5.0538034919 19.7782117823 5.5456944249
5.2123862185 19.9171588713 6.7811005777
5.4083684050 19.7304745180 7.1909736643
5.9914550610 6.6162290431 5.6942853420
6.5034712175 6.7606055940 5.3283278867
6.6618490413 6.2502042163 5.5738093003
6.8015650434 5.7207254350 6.1019024461
6.4085697284 5.6890755440 6.9246656689
6.3451411853 5.7735148947 7.9366526789
5.7650584307 6.2586638738 8.1527686218
6.0502690210 6.3220803865 8.5685123500
5.9268551810 7.1701025003 5.5015231132
6.7515303690 7.3197392446 5.1746293638
5.7678596741 6.9227667060 8.9691993324
5.5315729240 7.4803989883 9.3000355720
6.3392455457 7.1416101885 9.5673630121
6.0978729520 7.7616711198 5.3843754581
6.0255770646 8.6047580283 5.4688424875
6.5545780740 7.8059903061 10.1035784111
6.0254157635 9.5601293837 5.4707912579
6.2428175577 8.6734267809 10.4343305307
6.1607800666 9.6386856202 10.8442157551
6.4652986719 10.3051375644 5.3799619948
6.1519983893 10.4385302656 11.0732489184
5.9442673682 11.4666643064 4.7757932917
6.3403242611 11.0160305432 5.1168643737
6.3286988421 10.9960753618 11.2375082124
6.3581904051 11.5226136172 11.2211250567
6.9292025092 11.1668968158 11.4587501677
6.0789468107 12.5853211915 3.8006135930
6.6436476771 11.9967431558 4.4447711876
6.7668702167 11.8526786712 11.3297640609
6.2927649381 12.2014764335 11.0019663652
6.1108961022 13.6634368135 2.9148317891
6.5681901431 13.2024550864 3.3265232018
5.6979124337 13.3053282650 10.1841972783
6.1057216674 13.0472895500 10.5545999753
5.7917584767 14.9907659063 2.1764987498
6.2676638874 14.4263601594 2.5070870104
5.3274817020 14.9592404739 8.4789644878
5.7527474184 14.9035147219 9.0372599292
6.2534764364 14.5260516511 9.7411642445
6.1974145350 13.7771713690 10.1919026404
5.8932894379 15.8451773026 1.9989959309
6.3880817683 15.1920220840 2.2025649775
5.6655890484 15.7308773699 8.6601214832
6.0696884841 15.4978446361 9.1225419367
6.2908465871 15.2336461092 9.4177031958
6.0173062777 16.7474228870 1.9446746656
5.6760329212 16.6634095563 8.5523481959
6.1881897709 15.9410224277 9.1089959259
6.0989919229 16.3793890776 8.9529755143
6.6898087981 16.3678774366 9.3842801292
6.4397493256 17.2242682860 2.0240491130
6.3345453062 17.1524801071 8.9749272084
6.2293143285 17.9515238366 8.7151928304
5.7209397923 18.1224016987 2.4601976489
6.4867675557 17.9254139746 2.3104346627
6.1782606583 18.5223259933 8.4568066090
6.1071561606 18.5944625612 2.8468874088
6.0336946832 19.1255885150 3.5762834155
5.9006966389 19.5237939830 4.2184768789
6.6505319316 19.4835520955 3.8171355427
5.3696133776 19.4934836040 4.6779814095
6.5616902811 19.0216906038 8.2483667493
6.0131375482 19.4288678066 7.7351662086
6.4051182789 19.7779127176 4.2566838337
5.7249265761 19.7550881720 4.7425733291
6.6967369993 19.9083727875 4.3463989388
6.4937134073 19.8719491544 7.4445232279
6.0138272503 20.0015577481 7.1572726993
7.0765506285 5.2611508776 6.6426554331
7.4143410396 5.3233776784 6.0361231015
7.6150012922 4.9700328157 6.4039387017
7.5814417688 4.7588282026 7.0784273139
6.9187424467 5.2403184380 7.4055641326
7.3848641346 4.8612062347 7.8549099368
6.9262739060 5.2495597216 7.9270672309
7.1476348356 5.2235253216 8.3916447254
7.4225090244 6.6692089795 5.0198051064
7.6829290201 5.7709937752 5.3425838561
6.8120464249 5.8433750314 8.8139978513
6.4600050801 6.4655946157 9.1279700949
7.2558239505 6.1530104396 9.5327535342
7.4364879478 7.2594982627 4.9876222316
7.2932200912 7.0331205427 10.0780655299
6.6453633991 7.9679345515 5.2625098011
7.3915016351 7.8007586651 5.1117373959
7.1674604343 7.6946431619 10.3610791398
6.8526336679 8.0830021059 10.4162345835
7.4743555577 8.0770097710 10.7324689619
6.9767740395 8.3896764830 5.3098469526
7.2012047644 9.1828546877 5.4666899778
7.0183842203 9.0580086006 11.0087651272
6.8214812838 9.8806158647 11.2417819397
7.5306605262 9.4161177844 11.3817074471
7.7430256559 10.2232484687 5.6159705924
6.7059307878 10.5440782472 11.3534206651
7.5046458551 10.2458216784 11.5740942388
6.6732756202 11.4120426199 4.9294220242
7.1144723041 10.9524483988 5.2813052820
7.7136929443 11.0353726995 11.7023755646
7.3580761568 12.7700365600 3.9042179787
7.6939281171 12.2159741375 4.5130358279
7.4429171246 11.6069729887 4.9611842917
7.0234117683 12.3487815186 11.2657161429
7.4963786419 11.8344655207 11.5376945638
7.0066484346 13.8954764407 2.9315002446
7.3686031517 13.3932534797 3.3504380399
7.7304172400 12.6452832609 11.3330174003
7.0205933203 12.9715099784 10.9878162721
7.0838386499 14.4624476858 2.6441611703
6.7323959376 14.2699149133 10.2201765773
7.1028371121 13.8536081090 10.5915778719
6.7699220569 15.7172341869 2.1275578290
7.1736710639 15.1030569318 2.4196983037
6.4328862107 15.7186320296 9.3731302657
6.9197322839 15.5430068005 9.7688031757
7.3460000369 14.7980410064 10.2608867252
6.8039768249 16.5130133103 2.0250817112
7.4965028450 15.9761650934 2.2444318717
7.6151042989 16.4223454187 9.8926762436
7.2232585948 17.3162138511 2.1542829745
6.8152778975 17.8119576688 9.0609566997
7.3027006024 17.3117694766 9.4423371426
7.4360852737 17.9628893531 2.4797096402
6.8568183189 18.4449109615 2.6660604539
7.3737589931 18.5319999477 2.8333035199
7.3763153867 18.0480913729 9.1848161849
6.9145866075 18.4503976652 8.7694906927
6.8919085671 18.9544064246 3.1823110177
7.6057693187 19.3251003480 3.6293245436
7.6389342445 19.0546346078 8.4661284510
7.0448130758 19.5489647525 7.8815750029
7.1444095218 19.7794945142 4.0659028883
7.5988167240 19.9257997463 4.2006174263
7.5440471572 19.9339242378 7.5414015704
7.0220334308 20.0669498279 7.3304543681
7.9744984219 4.3311260661 7.7027787102
8.2621876378 4.2057947509 7.0850445749
8.3903799327 3.9589910422 7.5646543245
8.4823584781 3.8819519425 8.1319243055
7.9076732916 4.5354880300 8.5257715187
8.7444961463 3.8541872133 9.1045157998
8.1988504694 4.6166742079 9.2593658792
8.6514940707 4.4096985252 9.6637711998
8.1280293664 4.9623979863 5.8693619222
8.0470105268 4.6019321486 6.5316527810
7.5843199429 5.2399972388 9.0817998937
8.2108434878 5.2300841837 9.7587587234
8.1060782217 6.2373967687 4.7702289161
8.6924940417 6.3067087592 4.5257354738
8.6427147437 5.8442826000 4.7187684066
8.6597497929 5.2468909240 5.1377807306
8.0184959541 6.1808437477 10.1012803454
8.2786577395 6.6385597089 4.6628687410
8.2499820575 7.2982835610 4.8638172694
7.9935610765 6.8099203905 10.3674260754
7.6729997184 7.3595440417 10.4548930141
8.4113981139 7.0858023334 10.7309103029
8.0912813739 8.0045364003 5.1280847378
7.5956020285 8.3923710396 5.2739117964
8.2750115241 8.5974449178 5.3582402576
8.5065348404 7.8552940780 11.1255513088
8.5317923597 9.4211675540 5.6737109563
7.9415140169 8.6754636846 11.2481333840
8.4494912279 9.2297479167 11.6675314602
8.5039922237 10.0770064681 5.8682021048
8.4104573679 10.5122293401 5.8273879153
8.8711415802 10.3438383479 5.9795224736
8.6260711144 10.4210617793 11.9604262521
8.1827786282 11.0924918756 5.4922400516
8.9819587030 10.8194408155 5.8743499589
8.2376579053 11.4026316928 11.8023867046
7.9730027928 12.5831680033 4.2585304232
8.3937075666 12.4661163001 4.5318820525
8.5180086136 11.9592506950 5.0175775097
8.3757953722 12.1296892685 11.6508438477
7.7843861475 13.8399529952 3.1642284590
8.1395663311 13.4482298871 3.5845930370
8.5466113645 12.9788304623 4.1487153629
8.6230682493 12.8912925318 11.3944861227
7.9645988822 13.4356142469 11.0395205093
7.8222290333 14.5207590530 2.8372359189
8.5232069121 14.1238853683 3.2764992095
8.3191286947 14.3859062251 10.7347050108
8.2257706776 15.5361216019 2.6205650147
8.2238122487 15.1873555914 10.4645804327
7.7890961985 15.6528686019 10.1885336554
7.6607471216 16.6959733355 2.1829605523
8.1323450069 16.3041741152 2.3888254316
8.1708720029 16.1380984275 10.2319647959
8.3061010182 16.5923849655 10.1561006189
8.7598148689 16.1864332396 10.3928899686
7.8598145983 17.1806901046 2.2681717141
7.7296768540 17.5076701874 2.3148442337
8.2788795691 17.4736029419 2.6015447158
8.8894044483 16.8746220670 10.2158534350
8.1962429482 17.1674562406 9.8799164409
7.6527544845 18.8140741303 3.1589780129
8.0044961713 18.2972043118 2.8936943582
8.3699602520 18.7922189032 3.3549604391
7.7144819874 18.4898454269 8.9975349140
8.1894162665 17.9834470964 9.4372120659
8.5620528198 19.3415143044 3.7920023421
8.7277455812 19.2535031904 8.3933738198
8.0965795935 19.6208916282 7.9318148875
8.5080263520 18.7006763647 8.9504838823
8.0227390735 19.7361691210 4.0268149668
8.6142360960 19.9083207121 4.2207764460
8.5786005344 19.9643793343 7.5559851365
8.0583556393 20.0971321027 7.3865005479
8.9541373465 3.5793815638 7.3870626585
9.2869930151 3.6057114950 6.5983914830
9.7450261379 3.0878260579 6.9515399824
9.8032389670 2.7281544172 7.9833562583
9.1255036312 3.2933263932 8.4788787722
9.7980090337 2.7265641422 9.0749871693
9.2322470176 3.2485491175 9.0902704721
9.4433113413 3.2933661787 9.5588284441
8.7614566030 4.1775653930 6.3575268318
9.3330749023 4.1064551333 5.7995626012
9.2786638307 3.8302515831 6.2083043565
9.2069489608 3.8969746705 9.8652232903
9.0241689824 4.6344314315 10.1347815653
9.7657421711 3.9976721397 10.3558898884
8.9211468051 4.6342741611 5.5627408735
9.3732000039 4.7756301068 5.0642304941
9.3803069152 4.4170802411 5.3923177026
8.7866754758 5.5389731761 10.3291508941
9.6300091803 4.8890330891 10.6027327338
9.5285153509 6.0848390266 4.3930870266
9.3984647759 5.3716634681 4.6423874574
8.5166514162 6.3324866722 10.4691859257
9.3242570439 6.0257385515 10.8037175409
9.0420200503 6.7432495988 4.5310469904
9.4812686213 7.3970377041 4.7482362083
9.3366801781 7.0384205526 11.1721614838
8.8968600630 7.9900367518 5.0952801959
9.2871616058 8.6926321492 5.4228828181
9.1514677583 7.7914484178 11.3991932737
8.7038393827 8.3645050684 11.4484440701
9.4815966662 8.2112439483 11.7623079006
9.6435397664 9.3695585759 5.7503590861
9.4736617673 9.2502446894 12.1600639412
9.1562118302 9.9170322002 5.9432128626
9.5189308935 10.4309245073 6.0384775334
9.4064832389 10.0445210031 12.3033878873
9.3301239085 10.6455992171 12.2643559227
9.9171830940 10.3135502484 12.5687332027
9.3144262856 11.5364137888 5.5733333087
9.8260115073 11.0169180220 5.9561454962
9.7120580010 10.9840398003 12.3653483272
9.1560759546 11.4669629694 12.0107829024
9.3503798926 12.6823835472 4.7503999253
9.4143729908 12.1452388012 5.1953258117
9.1435426324 12.3537554738 11.6969879351
9.2437600407 13.8103061077 3.8291020103
9.4398765512 13.2934909497 4.2931359396
9.5571307693 12.9809887998 11.4723374749
8.9749359437 13.6391338041 11.1265267594
8.7735777213 14.8714420800 3.0277162060
9.2343848882 14.4870151246 3.4000673679
9.3421380363 14.3215781985 10.9342182243
9.0537363550 15.5960791715 2.9406053357
8.4259269292 15.7109798618 10.4072955878
9.1735091293 15.2811112914 10.6623336172
8.2025904998 16.8331780898 2.3875296235
8.8293172995 16.4983946067 2.7441812471
9.6808526256 16.3324554704 10.5001516579
9.0522039161 17.3447266977 2.9458508371
9.5562469500 17.1400516673 10.2188522116
8.9895724161 17.5712348490 9.8925271958
8.8156592889 18.0755380279 3.0905492080
9.5470568431 18.7461840589 3.5725429652
9.3261693326 18.2840280733 9.4135423145
9.1684041683 19.4930779324 3.9748335810
8.6994027317 19.7115935752 4.0782984803
9.1896634474 19.8091805315 4.1921376835
9.5699131444 19.3636850356 8.2786277149
9.1011425761 19.6800414674 7.8981920451
9.5223374728 18.9012910290 8.8222508367
9.6502877303 20.0015981303 4.3716227480
9.5935179501 19.9738643410 7.5211032466
9.0855733296 20.1087640024 7.3756186213
10.2645018463 2.1959799250 8.6770981299
10.5271358180 2.0667206582 8.0941683549
10.6381008186 1.8710566189 8.5932497287
10.8361787997 1.8438229984 9.0944553546
10.2946265793 2.2194256251 9.1341203975
10.4728996207 2.3190444300 9.5477140965
9.7662038710 3.5098483062 6.1299488412
10.5554663176 3.1409950533 5.6979091836
10.2960608359 2.8926708975 6.4488766522
10.4972000007 2.4167765938 7.1976954415
10.1083068417 2.8724879396 9.8423880340
9.7899553936 3.4163751830 10.0649308231
10.5521155741 3.2224099994 10.3851819058
9.9543637716 4.0528115910 5.2905723338
10.6336413178 4.1021977165 4.7209783864
10.6648985408 3.5555965412 5.0927752570
10.5113315171 4.1119094346 10.7719075310
10.0579126479 4.7494767627 4.6751293630
10.2923351198 5.3875746274 4.3154212407
10.8204080193 4.6776155548 4.3523521302
10.4237946344 5.1197181832 11.0639566421
10.6897619388 6.1108501560 4.1779525538
10.1295321125 6.1701429668 11.2452811221
10.0832401840 6.7923945233 4.4152316891
10.6525135760 7.5854309353 4.6913762268
10.0629725932 6.8455037710 11.4509647601
9.7054721207 7.4233710330 11.5105329578
10.4585839104 7.1991833863 11.8353094755
9.9248624177 8.1012866944 5.0817141399
10.3956154523 8.8612417395 5.4402012384
10.4563331146 8.2058267403 12.3599441155
10.4672738294 9.5345476418 5.7799026959
10.1950258141 9.0689293439 12.5725665887
9.8483673412 9.6381932232 12.4940711524
10.3937890852 9.6089768428 12.8584858096
10.0072622997 9.9651800350 5.9818265240
10.4083634606 10.5999556859 6.0689777265
10.6375447313 10.3441366644 12.9844493234
10.3184506463 11.5964216588 5.7770636026
10.5031892679 11.1523023618 6.0119979192
9.9707200643 11.4777160779 12.2672284317
10.3282673857 10.9883971845 12.5984671340
9.8334197528 12.4366921061 5.1261338464
10.1001917604 12.1260421408 5.4078383488
10.7078995222 11.6768191826 12.3618509413
10.0308487494 12.2058149928 11.9058848199
9.7995057393 13.6495753277 4.2059411648
10.2343817477 13.4744473601 4.5716945137
10.4587462012 12.8008346215 5.0822558691
10.5506412004 13.0226432045 11.5395944368
9.9496018639 13.7134643902 11.1971082700
9.5431847102 15.1813570194 3.2884878362
9.9249095144 14.6691368177 3.7125930376
10.2227769656 14.1275137693 4.1569874077
10.1905944340 14.5256468606 10.9611011527
9.6573579937 16.0459942327 3.1734056533
10.3735574709 15.6628748976 3.6089769784
10.3948989576 15.4186800159 10.7774157952
9.6363860294 16.9477204736 3.1444408137
10.2548662845 16.5598228794 3.4047018121
10.6775504397 16.1631475356 10.6304349404
9.4969100420 17.7386589656 3.2320859662
10.3066945020 17.5722918498 3.4143227275
9.9015036629 17.6993803339 9.9137917520
10.4565099164 16.9881636165 10.3310964750
10.7108057435 18.5302477601 3.4350596640
9.8666543965 18.5815177103 9.1869716261
10.3891921761 18.2850892018 9.4329254982
10.2570576522 18.7522716578 8.9757035777
10.8229789786 17.6721243571 9.9362221430
9.9026896154 19.6634184821 4.0856555727
10.6361970304 19.3059302602 3.6899800712
10.4568406805 19.1902048623 8.4330592122
10.0734345106 19.6684890837 7.8712785960
10.8201496487 19.8433723394 4.1003064768
10.4880335325 20.1145170449 4.4851212445
10.1900628993 20.1954117963 4.5798443500
10.5363055039 20.2600122603 4.6628496920
10.6107651765 19.9688825869 7.4213346831
10.0955550737 20.1127104131 7.2949891891
11.1289510728 1.5933420611 8.4751612811
11.5569223890 1.4980785355 7.9850669815
11.8078408386 1.3031306427 8.4402615688
11.6082411020 1.3488832211 8.8501565412
11.2813161105 1.4968998532 8.9703978769
11.7011135463 1.5374607268 9.3008206932
11.2845745356 2.6210459280 5.5732008201
11.5572533617 2.8024791181 4.9912829711
12.0271702078 2.3482332974 5.4484509921
11.6511990676 2.2209418202 6.0531813002
11.0978988707 1.8453053673 7.6695893820
11.1958002210 2.0550472942 7.0064648935
11.8600320099 1.6705845438 7.3466779983
11.2458766767 2.0510342622 9.7604458346
10.7584610293 2.5466088239 10.0427567640
11.5045083190 2.5702197434 10.3197807357
11.0392963877 3.0796603217 5.1784643333
11.2232886132 3.4682289232 4.7164017894
10.9973156718 2.4498734298 6.3392301201
11.5370243280 3.3764547538 10.8501094352
11.1688589591 4.0870335624 4.4257878674
11.2234980030 4.2602586781 11.1461727099
11.3698314175 5.2501300112 4.0830135499
11.4733095228 4.4364330452 4.2116295513
11.2051138387 4.8797822003 11.3521289290
10.9459517113 5.6183428437 11.4642679926
11.7307126354 5.0939092054 11.6218446390
11.7985209573 6.2449237811 3.9698229952
10.6332004357 6.3901716908 11.5739889994
11.5386539831 6.1562263962 11.9432235636
11.1283634247 6.8849489903 4.2782273525
11.6707894464 7.5609371352 4.4800188180
11.3252757411 7.2002475859 12.3758503930
10.7475729986 8.2718268151 5.0732630744
11.4718321389 8.2053256213 4.8823148457
11.4322941329 7.8602340707 12.9100264778
10.9200944935 8.7630643146 13.0581152601
11.6809818599 8.2612157981 13.5350150695
11.4536747488 8.8892002380 13.7847158476
11.8563078165 8.4803763579 14.0170499588
11.2053187355 8.7382053293 5.2343467787
11.3562697837 9.5396076603 5.5614038379
11.0512376505 9.6659881028 13.4684549048
11.9378553730 8.8499180778 14.3405045813
11.5845112735 9.5277559400 14.1590185292
11.9122688588 9.4366732107 14.5808838009
10.8255316627 10.0725162634 5.9375455937
11.0873583276 10.5829510991 6.0187274588
11.1847398297 10.4385762516 13.3902835122
11.5486954182 10.2404887053 13.9128981712
11.9962645902 10.1927029309 14.5247046885
10.9141114759 11.5045834973 5.8903221038
11.0084512044 11.0407800593 6.0189417297
11.7501997700 10.8632919367 13.5400065518
11.1777969264 11.0890800997 12.9240016675
12.1022264622 10.7578730606 14.1182961374
11.2425923407 12.2149993959 5.5042521035
11.3979688094 11.4533539521 5.8207395451
11.6632405406 11.8372615890 12.4557569741
11.1251886113 12.3846925581 11.9601709943
11.0157346943 13.5126769498 4.8978102945
11.3259996354 13.1279553681 5.1624270004
11.5838305142 13.0818080451 11.5616966479
10.9390344592 13.7836733278 11.2283201539
10.7638605322 14.9666251021 4.0536974908
11.2479291991 14.3245708426 4.5608792455
11.2172011467 14.6050388143 10.9939328058
11.1174336572 15.7370525862 3.9441622225
11.5750231476 15.3438139930 4.2465511176
11.4202049096 15.4731345010 10.8062695056
11.1701337827 16.6493401328 3.6637041880
11.6439444967 16.0522012374 4.0162767161
11.5309365406 16.4152898028 10.5529115015
11.2838210223 17.8089621120 3.3965297499
11.2383490951 17.1757464462 10.2532923945
12.0079607230 17.0375934596 10.2724444434
11.5580895726 17.5500250818 9.9929416814
11.3571627634 18.5212855109 3.2442303990
11.7475993981 18.8158762325 3.0398566917
11.9609879525 18.2351325802 3.1045011725
11.5597865457 18.1062945015 9.5017961219
11.0665320345 18.7104379673 8.9326677105
11.3154968950 19.0709897501 3.3155606425
12.0167738028 19.2724761618 2.9998834692
11.6004559386 19.1736737348 8.3479438950
11.1022496497 19.6282124585 7.8167052900
11.7528147418 19.7238214114 3.6817375768
11.5239802146 20.1332595341 4.5515880759
11.0428966682 20.2597557113 4.7302899896
11.7675519086 20.2730420695 5.1155722485
11.6972030683 19.9785559241 7.1718786845
11.0682373883 20.1256743298 7.0810501402
12.0230247112 1.3567553400 7.9942513262
12.3850959979 1.2230000690 8.3303221497
12.2515269376 1.2559624108 8.8612255709
12.4831284899 1.4434473652 9.3085215794
12.0215790644 2.6194187824 4.8240664866
12.2535407606 2.8094945071 4.5769279159
12.4886493180 2.5347154622 4.9511089632
12.9137050720 2.3026562854 5.6761549013
12.4233804415 1.9271060453 6.5312766272
11.6121796754 2.0276937624 6.6173587792
12.5194225326 1.6017008160 7.2955341888
12.5483045015 1.3785824104 7.8298465516
12.3169514766 1.9258759807 9.8517161644
12.6687210526 2.6993714614 10.6022357639
11.8431005382 3.0739846672 4.5656320833
12.2916996908 3.3683894219 4.3756802349
12.3687114713 3.3075274413 11.0853799809
11.9843848684 3.8618166491 11.2725697848
12.7406866770 3.7127115251 11.3399484362
11.7193138317 3.7787071726 4.3448732632
12.2913180991 4.4254053651 4.1070291544
11.6999113310 4.4552195035 11.4130362622
12.3647204520 4.3973361795 11.5524456557
12.2637152605 5.4601048048 3.8506824346
12.6475133802 5.2387736805 11.9179069253
12.7687681949 6.0819639693 3.5874342500
12.4743898807 6.0110120727 12.2786028053
12.1445037711 6.6276479483 12.5061925338
12.8519811942 6.3321952778 12.6129570940
11.8847973470 7.0073871331 4.1650593626
12.4908877279 6.8225394630 3.9538618865
11.9888629233 7.2330078865 12.8332705880
12.7923935014 6.9142064557 13.0198713330
12.3188504915 7.4215596983 4.2781509304
12.5183563001 8.2119667783 4.6779412747
12.3360639872 7.6317745002 13.4217233534
12.2822795024 8.1448792376 13.9955784594
12.1458685812 8.4389342506 14.2586671420
12.6631596515 8.3942347871 14.4540677752
11.9269552045 8.9082296828 5.1304843048
12.2068496116 9.5934245683 5.3077324678
12.3132350191 8.9618377184 14.6709701512
12.0386835092 9.7032310909 14.7476039843
11.4327290651 10.2995396881 5.8408806578
12.0982898864 10.3968752238 5.5335553167
12.1655521025 10.2158283826 14.7694947144
11.5634031451 10.8958178729 5.8565095528
12.0935605182 11.4947861704 5.5231041283
12.6029456331 11.1814960228 13.7079967669
12.1541968854 11.4183631532 13.0322737853
12.5700988266 11.0703785393 14.2202561194
13.0454056039 11.2134503114 14.1467929272
12.4827489438 10.8617753228 14.5010240139
12.6202754836 10.6999264378 14.6949842837
12.2761666301 12.4062122488 5.3034111321
12.6710024673 11.9523594639 12.4758595912
12.1527512688 12.4657410859 11.9801075969
12.8355549166 11.1334692334 14.4245127609
11.6861959794 13.7782054754 4.9762049336
12.0857631903 13.2206850098 5.1641404130
12.6161102637 13.0923903065 11.5540847641
11.9718364738 13.8116658055 11.2353538768
12.0213073589 14.3239519616 4.8200811966
12.2394665024 13.9574752416 4.9850488268
12.2568735187 14.6239542376 10.9917107601
12.2804226966 14.9430191871 4.5219539631
12.5099166930 14.3749987528 4.7983288864
12.4430383316 15.5006813656 10.7818988595
12.0117768601 16.5044872898 3.8752556464
12.3097829883 15.8941944236 4.1573725530
12.6525499064 16.3103071631 10.5427639580
12.3213940476 17.2352987992 3.4665882094
12.5896444949 16.5078021907 3.8721701656
12.9548738023 16.9675002873 10.2269427423
12.3312696539 17.5801304280 9.8812082565
12.3791793831 18.8003717221 2.7195687089
12.9122585593 18.0741590068 2.8256313868
12.7261862058 18.1177951390 9.3763670612
12.1394246731 18.6646484639 8.8800939686
12.5518117247 19.2723074344 2.6230549831
13.1065427141 19.3586626690 2.4275887174
12.8344102460 19.0426411489 2.3930520716
12.6577940618 19.1480284699 8.2978068743
12.1323936490 19.5926547905 7.7550255993
12.7285061233 19.6558718749 3.0063083808
12.8047227738 19.9607497936 3.7191068467
12.5725783446 20.0999402303 4.4421842918
12.1368293134 20.2540187317 5.8625021579
12.4748243108 20.2126601725 5.3836771766
11.8504767202 20.1809714364 6.6104541668
12.5035276854 20.1204448116 6.4746018916
12.5677448050 19.8718060303 7.2227432275
12.7299271365 1.2255098603 8.2023680932
12.9761355427 1.3088932805 8.0778033526
12.8654877458 1.2261375075 8.5122416990
13.2602653366 1.3679960220 8.7164533922
12.8537650195 1.3036231063 8.9734144460
12.6333036262 2.9327414089 4.6106339348
13.1788886426 2.8386502860 5.0554993108
13.8353151927 2.6115047545 5.8274834054
13.6566231379 2.1149177891 6.5978923501
13.2234925658 1.6156092380 7.5632251651
13.2085420814 1.6110984164 9.2649420893
13.3715987859 2.1014917696 9.9326752959
13.7490942195 2.5489522398 10.3363476880
12.9721892254 3.5991412916 4.4874111522
13.6570824788 3.4749606018 4.9073240978
13.8649996527 3.0719491851 5.3276309992
12.9434197718 3.2071845906 11.0761586331
13.5606503627 3.0545237382 10.8322332813
13.1167353801 4.4382083843 4.1801557815
13.6227666612 4.1855818685 4.5460495720
13.4005652500 3.5377131256 11.1970141435
13.4136963506 4.2814722484 11.5237720139
13.4301322431 5.7637108193 2.7254587422
13.4622450215 5.7950286552 2.5378241943
13.4830174452 5.7619762378 2.5979158563
13.4975870842 5.8115543662 2.8383028573
13.0724907784 5.2944986302 3.7341976080
13.5709128843 4.8688289150 4.2000943107
13.8030875965 5.1180474320 11.9588200673
13.4033819716 5.8449090210 2.6321777133
13.4566214199 5.8934517468 2.5822720200
13.4442962982 5.7216815292 3.2247147307
13.2629380623 5.8363369202 3.0505200131
13.2704561505 5.7882167942 12.3527046024
13.6753885314 6.3902005380 12.8335388871
13.3860476664 5.9636016525 2.7587619667
13.2811039294 6.1342920595 3.1503142338
13.1359034875 6.6120394013 3.6884678095
13.5523225963 6.9456000501 13.3111999123
13.1328684740 7.3170935597 13.5382082085
13.8874503812 7.3234336334 13.7307022997
12.9625216433 7.3499650950 4.1920911738
13.5516806887 7.8630859055 4.5616400849
13.1795208378 7.8128502296 14.0464713179
13.7339180366 8.1552277429 14.5706315422
12.6192967723 9.1564691507 5.0417918080
13.4480183501 9.0715461597 4.8974741713
13.2279057532 8.4624982180 14.7287868121
12.8467026922 9.9201149210 5.1729310706
13.6305764877 10.2686401077 4.9988179152
12.9049509851 10.9197659364 5.2236444901
13.6839037244 11.3270761002 4.9228309874
13.6636762022 11.2780600134 13.7120150657
13.1632294532 11.5567859249 13.0522072136
13.5486052773 11.1992539781 14.2363635833
13.5876894367 10.9960607352 14.5928781078
13.0298278080 11.0541368931 14.5916759244
12.9433177224 11.9566756859 5.1318139086
13.7233973540 12.4442490174 4.7197801997
13.6977493585 11.9796171951 12.4138740563
13.1650046931 12.4829705778 11.9529827898
13.1906427199 11.1965607127 14.4195482599
12.8862491205 12.9417571855 5.0004907356
13.4460839802 13.5385396202 4.6223851778
13.6248702566 13.0349852961 11.5136722351
13.0342915778 13.7820042043 11.2122617983
12.7407335628 13.8170159653 4.8907278952
13.1274744205 14.5295072885 4.5069999159
13.3227445338 14.6050483156 10.9478258762
13.0087487031 15.4591621072 4.2350599355
13.4743801112 15.4902360501 10.7266308187
12.9556115887 16.1080783057 4.0098148969
13.2945322338 16.5593311588 3.6371045067
13.4668963702 15.8586731682 3.9272090346
13.6349950514 16.2696082685 10.4879192153
13.3950187186 17.3053854811 3.1642153312
13.9255220347 16.8777534834 10.1812839874
13.3598806061 17.5216169466 9.8141255801
13.0058545843 18.6695900043 2.4235621468
13.3951346574 18.9548414441 2.1964624420
13.7093311070 18.3736948462 2.2998796031
13.7845397686 17.7347638727 2.7185380031
13.8304181102 18.0649358513 9.3196573685
13.2228285487 18.6415307336 8.8246670321
13.8011879704 19.2958626564 2.2241469017
13.6896647311 19.1282786405 8.2580644374
13.0945264463 19.5625977717 7.7088738340
13.6364199345 19.6554508558 2.7189694811
13.6018972484 19.9300369191 3.4621067027
13.5591871804 20.0994702749 4.3223881989
13.4863469922 20.1554804680 5.2364366773
13.4318046814 20.0941653830 6.1811983109
13.3456582689 19.8870388054 7.0306226617
13.2831709291 1.3757875985 8.2682028960
14.1854213607 2.4156386317 6.3663312275
14.6723246195 2.4264929141 6.9089546009
14.3337369381 2.0024863391 7.6009099259
13.7903614093 1.6575452212 8.4670904544
14.0909227450 1.9653648117 9.3145153148
14.0572667941 2.2240148448 9.8771887204
14.3977504259 2.2030953227 9.6344203586
14.1616572062 3.4997408819 5.2513916879
14.5575317841 3.2997535993 5.7687442965
14.5996430254 2.7808831240 6.2785715658
14.5186568488 2.5354834562 9.9073477151
14.2346753769 2.9434697408 10.4819056404
14.1671546254 4.0492338257 4.9876380112
14.5577421333 3.8701748946 5.3918537296
14.3538329784 3.6271717981 10.8930795404
14.6058578397 4.5438867975 11.4373373656
13.5037198514 5.8729994735 2.6919041384
13.7621862395 5.6065111912 3.9697370787
14.1851002193 4.9458356879 4.6745783539
14.6557154760 5.2153380573 11.9155068772
13.4591231070 6.0093363344 2.8211356071
13.5459659238 6.1221321973 3.3499637422
13.9499932139 6.3623028654 4.1246947244
14.3700327465 6.0079354320 4.6303054267
14.2485452677 5.7355300185 12.3422181426
14.7493387610 6.2667608677 12.7108096857
13.6062946506 6.9311678050 4.0803091475
14.2838002200 7.1152484853 4.6676245153
14.3565184574 6.8250486065 13.2590655233
14.8578057446 7.3064410605 13.6991787656
14.3329304601 8.3585518444 4.9157919618
14.3128582748 7.7629974160 14.2089021612
14.7797877868 8.1240925376 14.6175851342
14.4976907647 9.6267507082 4.9845735745
14.2455711240 8.2941200332 14.7910763477
14.3333433497 10.6861185188 4.8774014116
14.5542965614 11.6134693029 4.6626405657
14.7908751274 11.1655389199 13.5003299583
14.2234515070 11.5516934237 12.9543823469
13.5392114424 11.1328655095 14.4780492079
14.3130087566 11.0190918496 14.2381792435
14.4130332184 10.9044513557 14.5135533991
14.4219311007 12.4477158104 4.4164045751
14.7288490563 12.8428849592 4.1881437681
15.0518026327 12.2465295973 4.3428153519
14.7861174610 11.9489991897 12.2157120555
14.1114314078 12.4501503957 11.8621946320
14.1618782286 13.1616109903 4.3356950513
14.7446342837 13.5658400447 3.9974988388
14.4218418774 12.8805540917 11.4761003657
14.2238960625 13.6397575433 11.1410913012
13.9911098125 14.1077181227 4.2001973762
14.6863927526 14.6316016496 3.7156245609
14.3695744270 14.6400113071 10.8215789097
13.7634572662 15.1050696614 4.0401583712
14.1862337505 15.8549981021 3.5494663691
14.4027937147 15.5424761493 10.6144057085
14.0291549956 16.7826289437 3.2332981810
14.4848471612 16.2517173022 10.4036851403
14.0023648160 17.2654737674 2.9801620628
14.4010202391 17.3561993221 2.7249676746
14.3381269130 17.0109528194 2.9848655319
14.7069728822 16.6994161405 10.1688472266
14.5405095099 17.3352595050 9.7901829052
14.1395549786 18.8381203130 1.9749155134
14.5339920503 18.6899079994 1.8215541944
14.5484732788 18.3398370559 2.0327343976
14.3029134801 17.8898449054 2.3847727371
14.9236636819 18.0047310748 9.2584418883
14.2931573047 18.6090395399 8.7841052854
14.6129174940 18.8802766660 1.8825952182
14.4646808902 19.1901458436 2.1324428039
14.2573374444 19.5319716216 2.5004088851
14.9403074321 19.4339730131 2.6145624105
14.7280503635 19.1019378984 8.2107507922
14.0612771188 19.5483331694 7.6363623562
14.5455580449 19.7996245089 3.2062607824
14.5015845083 20.0305891320 4.1679687687
14.4675399701 20.1013768519 5.1171479858
14.4091407487 20.0490447810 6.0477454315
14.2928774593 19.8650966705 6.9033234308
14.9313467549 2.2875431161 7.4559335903
15.0248681078 2.2500970766 7.8884216141
14.7016584081 2.0792225472 8.5412554943
14.7428241346 2.2621286586 9.2799739170
15.0916557572 2.3343103927 8.8809410756
14.9763827724 3.1672939666 6.2380119832
15.3365171459 3.0872802583 6.7416842877
15.4813880410 2.6984773302 7.5823857952
15.2864515995 2.7250500792 9.2876250233
14.9161289877 3.0836709755 10.1313592653
15.4301404662 3.1532569934 9.7616843559
14.7345055266 4.5607946566 5.2793110904
15.0784376891 4.1248319550 5.7675275675
15.3277365366 3.6520020089 6.2568172815
15.4897830299 3.6455932459 10.1919794897
15.1370935597 4.0817137861 10.8714062852
15.5807953790 4.0979051639 10.6132087982
14.8831160643 5.5039437791 5.1968863564
15.3560581838 5.0181844766 5.7352058330
15.5932270582 4.5336815810 10.9534511237
15.2452564064 5.0225199071 11.5627485076
14.9654195831 6.5619034298 5.1856744361
15.5066714446 6.0239986693 5.7101688476
15.3466112152 5.6960358230 12.0366174855
15.3931165547 6.2353969727 12.5388129821
15.0201824294 7.6865781138 5.2262013313
15.6073469589 7.0995058409 5.6992735830
15.4660426021 6.7644229879 12.9778097078
15.6915877759 7.3619118611 13.5170349228
15.1135138342 8.7926212937 5.2326576530
15.7714877709 8.2593415643 5.6916417486
15.4332653640 7.8252937198 14.1217071271
15.6506383200 8.2586583804 14.6052817074
15.2896942092 9.6465293525 5.1688466171
15.7715323017 9.2779648808 5.4844246985
15.1874085824 8.3268474351 14.7962208319
15.3071562651 10.6391787649 4.9513960786
15.7717968114 10.0065630610 5.2859315547
15.4466163023 11.6207945962 4.6241686052
15.7021287606 11.0094174897 13.1986854492
15.2033081424 11.4241385835 12.7937558293
15.5756952794 10.6955139382 13.9230841234
15.2825393109 10.6369515259 14.4112022439
15.3863216421 12.9276610398 4.0560631551
15.9009044764 12.2589830401 4.3729802951
14.8363429008 12.4647287081 11.6806370138
15.5742062421 12.2083159417 11.6529538048
15.1629633553 12.9134444375 11.2774389786
15.7409939932 11.6239060892 12.2006674997
15.6043414654 13.8486053365 3.6913308393
15.4161539114 13.7612066466 10.8352365930
15.4270397596 14.6296987186 3.3956267342
15.7323119969 15.0281836560 3.1692567392
16.0696317398 14.4694718498 3.3347530476
15.2489217385 14.8402709137 10.6043624433
15.0989296327 15.3871608040 3.2675049650
15.7151856103 15.7574477722 2.9797670112
15.1589599469 15.6768823356 10.4487669312
14.8486909922 16.5564621811 2.9653806080
15.8509240269 16.7249469920 2.7240212307
15.1144008915 16.2546151886 10.2909682563
15.6963363436 15.9025334400 10.2563547140
15.5293496405 16.5945111894 10.0208020079
15.0669338123 17.5696892995 2.4014077276
15.4946339074 17.8541113507 2.2750705006
15.7520109807 17.5160247670 2.4532586309
15.6295225677 17.3413500765 9.6153691822
14.8177567787 18.6433109699 1.8945434367
15.2397859439 18.2944053378 2.1376086012
15.9507696043 17.9285456564 9.1894992314
15.3740523780 18.5499257289 8.7376717355
15.0876434046 18.9218158908 2.1734515543
15.7528091821 19.1497684279 2.7789241684
15.8040379188 19.0530897861 8.1258422730
15.0615128432 19.5218110538 7.5531394985
15.5120595224 19.6432648888 3.2738552210
15.4150000957 19.8911985401 4.0361517339
15.3943106557 19.9956457289 4.9700323508
15.3540506134 19.9763084599 5.9133956418
15.2577965593 19.8224388786 6.7859697084
15.3297391265 2.4646964247 8.4250844642
15.9526948787 3.2654597537 7.2619470119
16.1470749759 3.2148508316 7.7876566331
15.9242524313 3.0162543699 8.4874374150
15.8522229863 3.2598772304 9.3339496090
16.2557053315 3.4073674181 8.8598351326
15.7437752307 4.5035361803 6.2690115591
16.0486446366 3.9003691274 6.8859403506
16.3782669615 3.8480614920 9.3987034938
16.0304638094 4.1649677306 10.2632835876
16.4805721502 4.2558034970 9.9039740475
15.9829310089 5.4936472116 6.2452097357
16.3999295025 4.9442975219 6.8251609161
16.4699889568 4.7334264491 10.4089333863
15.9557946068 5.1512051522 11.2401116075
16.4790972297 5.2261282580 10.9134498780
16.1248017370 6.5483054958 6.2210874316
16.5904152409 5.9988574654 6.7691488847
16.4385124300 5.7577854598 11.4243206855
15.9604111980 6.2387542216 12.2449276988
16.4856239798 6.2625813892 11.9195935151
16.2340066736 7.5915740262 6.1730761857
16.7786915699 7.1320788919 6.7591889913
16.4942038213 6.7656862674 12.3912304788
16.1566864218 7.1728414586 13.0775330924
16.5545149662 7.2431163176 12.8762820709
16.3646273346 8.3823400081 6.1335753303
16.7798114632 8.1532006757 6.5592198892
16.4834699981 7.7755356507 13.4160563300
16.1151335981 8.1770530794 14.2357194261
16.2026334970 8.4942239399 14.5211705248
16.3214598552 9.0600970322 5.9254816810
16.7358759521 8.8460073535 6.3476822866
15.9280211043 8.5226742211 14.7084519789
16.1154205727 10.5739189823 5.2521996718
16.3814403941 9.9879857300 5.6688521399
16.0406616755 10.2443055159 14.3509058585
16.4521712903 9.8922669521 14.2633591224
16.3931118174 10.1384033214 13.9474243123
15.9397019836 10.2315603769 14.5137280573
16.3857471565 9.7518673467 14.4159103525
16.4739858376 11.5358441718 4.9919580103
16.6340011018 10.7863081175 5.4927939651
15.8933607528 11.2423920295 12.6610800827
16.2924561741 10.9143020005 12.8341302507
16.4285120260 11.1856318512 12.2949763203
16.3380857938 10.5553875418 13.3584022679
16.3956337613 13.0945547405 4.0277806800
16.7101599903 12.4411698303 4.4807946045
16.4459732699 11.7086685488 11.6543839362
16.3391818736 12.6379545843 10.9885808382
16.5973827736 13.9732058309 3.6125263657
16.3248046198 13.5073447775 10.5989913578
16.9754913918 13.1407282614 10.4290517704
16.7413334039 13.8242780560 10.3342222079
16.3816461127 15.1387160542 3.1021828892
16.7036442928 14.5631506859 3.3260831151
16.0900298274 14.2672587162 10.4797683702
16.7828462655 14.5899161659 10.1914045016
16.3489989672 15.9072117301 2.9154485267
15.9562244110 15.1685985251 10.3511592484
16.6916630817 15.7376617330 10.0525933867
16.7113845400 16.4519103808 2.9249491842
16.3521386419 16.7017983806 9.8021285456
15.8457866370 18.0333540411 2.4134563586
16.4272693229 17.4216141027 2.7788638365
16.5365426107 17.2814820911 9.4997630477
15.6808221189 18.6025983628 2.4001787299
16.3518569056 18.4541054358 2.8713111916
16.7324847539 17.7765686170 9.1790840726
16.5645915230 18.3939105492 8.7014124302
16.4000942978 19.1039171927 3.2035225339
16.9873073477 19.0310650774 7.9123889844
16.0428134956 19.4866743127 7.4050761750
16.1173703855 19.4607286061 3.3202123288
16.1696466350 19.6624288220 3.8936874187
16.2260456946 19.7895753100 4.7607986040
16.2187404318 19.8365839456 5.7197370239
16.1506798122 19.7484665474 6.6099405861
16.3801600473 3.6543568450 7.5148819234
16.5772173583 3.7214977937 8.2983307616
16.7572464220 4.4170968899 7.5515287799
17.0937709888 4.4196137061 8.2312753980
17.0113239112 4.2739467877 8.8582677239
16.8558274628 4.4218742492 9.5794630861
17.2720935788 4.7426275806 9.2283518085
16.9848635652 5.4700571647 7.3605759477
17.2927516631 5.1102014159 8.0077120278
17.1347369852 4.9934783254 9.8590207532
16.8945975627 5.3372970550 10.5815251572
17.3548737160 5.5620276531 10.1596503908
17.1305282942 6.4562009775 7.2820126734
17.4501455778 6.0308598238 7.8776169615
17.1715408925 5.9379183011 10.8384792369
16.9131681640 6.3368521248 11.5783078468
17.4075087535 6.5158895976 11.1314781038
17.2775390514 7.2216530850 7.2783383702
17.5528948696 6.9228244947 7.7487760560
17.2096567757 6.8953764986 11.8033941362
16.9732712339 7.3053872617 12.5039364902
17.4046075870 7.3229331657 12.0007767142
17.2621806870 7.9450964052 7.1132210653
17.5770590959 7.6349435420 7.5818473142
17.4549394056 7.9375624168 12.4473270447
17.0795476662 8.5301830953 13.4212463233
17.5196074252 8.6500179549 12.9278909583
16.5782690286 8.5422052891 14.0812720712
16.9058608220 9.6153314269 6.2777179012
17.2831367447 8.9886120672 6.9024698522
17.3104109274 9.0224143679 13.3654571603
17.2599079053 9.4643377707 13.3481517502
16.8105234528 9.3655480717 13.9382361312
16.4428964286 8.9433214381 14.4427870707
17.1303599554 10.6332936314 6.0774025863
17.5289648092 10.1450318837 6.8403371496
16.9688571140 10.5053525370 12.6388749892
17.4859772386 10.0812521430 12.4273207621
17.5278737509 10.4207203721 11.9894734463
16.9072166799 9.9793034147 13.3989808342
17.3980662677 9.8003381825 12.8461814070
17.0510932151 11.2425451976 5.6013469525
17.4915390402 11.3753377344 6.0177682555
17.8764373396 11.2580211936 6.7776302044
17.0765050205 11.0426300887 11.8510949736
17.5288900723 10.8568701011 11.5402959540
17.3700558072 11.5245354580 11.0342085126
17.1845208069 12.9672144559 4.3269661180
17.5780964657 12.6086671621 4.9307188736
17.5091175853 11.9030014951 5.5595332674
17.8683988001 11.8144944572 6.1705129148
17.2672124261 12.4259487223 10.5299953469
17.3888351270 13.6753771827 3.9999246112
17.7806552659 13.2864330990 4.4509184882
17.5941669798 12.8346437780 10.1322638409
17.4835790326 13.7216937422 10.0153765368
17.0173106249 14.9785614084 3.2449885745
17.3737880376 14.5652928607 3.5718247891
17.6548438682 14.9178684502 9.8812244776
17.0029660353 15.6355272020 3.0999190626
17.4596278517 15.2424455849 3.3549592046
17.4214586451 15.5041709831 10.0335516193
17.3601390059 15.8177325688 9.9976245810
17.5656212789 15.6392277521 10.0357914316
17.2890551628 16.2081752813 3.1512763160
17.2191393917 16.9142676920 3.1572732876
17.7704996064 16.3415375613 3.4401807127
17.6594819249 15.8046840389 9.9168060854
17.3582182510 16.4425807994 9.6980406119
17.1518756052 17.8365846925 3.2929118355
17.8488021536 17.1968302009 3.5996082188
17.1976600237 17.3067695325 9.3620200548
17.8940601755 17.0956804657 9.2832488200
17.4308588086 17.7878663522 9.0153364317
17.0449986755 18.7769562974 3.6602244337
17.9513772451 18.0905268511 3.9990664429
17.7042589846 18.3695550245 8.5256702282
16.5737269630 19.3496066783 3.6609245483
17.7943553486 18.8553975868 4.5268927710
16.9603487569 19.3863854802 4.4465296854
16.9844984743 19.6006642096 5.4754905851
17.7464187006 19.2756964306 5.3531941814
16.9758870867 19.6100674563 6.4064297299
17.6228261469 19.4472990344 6.1469727781
16.8315835551 19.4788699735 7.1440739176
17.9095688190 19.3127111001 7.1616387388
18.0446597717 18.8525872468 8.0160171453
17.3959032225 4.8894111392 8.6717947098
17.6361306381 5.7171538013 8.5796773895
17.5570187961 5.4631765618 9.3997867162
17.8121650857 6.6657196705 8.4298508340
17.8901363554 6.4297154065 9.2777134965
17.6765593495 6.2978541591 10.2779349527
17.8849894267 7.5812200325 8.1614598975
18.1640046651 7.4819928719 9.0567413037
18.1104491470 7.1995869021 10.0512891294
17.7742006834 7.2524178397 11.2428143645
17.7858171216 8.4966351476 7.7285845250
18.2058120026 8.3521774265 8.5687936620
18.4421685231 8.3053401634 9.2173808611
18.4460903064 8.0146791229 9.8369849153
18.3248131623 7.9258766362 10.6911887058
18.0986680197 8.1803944434 11.5717090369
17.8657226519 8.7191471194 12.2948843053
18.2700231038 8.9444282932 11.5869012279
17.8752178531 9.6653529235 7.6076724367
18.2242746598 9.2864636452 8.3762435147
18.4956453261 8.9950752641 9.0604786870
17.8630164032 9.6267250339 12.1259632635
18.2989413164 9.6002726554 11.3953400285
17.5952484854 9.1903777449 12.8719252531
18.0213347939 10.6679651090 7.5287850415
18.2777748450 10.3521692689 8.4406773004
18.5033964696 9.7871475335 9.0438058990
17.9935945669 10.4172102332 11.2713709462
18.4441552607 9.8869514719 10.9124705115
18.3892930625 10.3608851301 10.5769407340
18.1697040357 11.2822874055 7.4901843479
18.3077656226 11.2503856771 8.1384403931
18.4819923243 10.4259028565 9.2523471458
18.3387409634 11.2371930793 9.2646010134
18.1243993226 11.0350915572 10.3716103602
18.4774724719 10.5238242295 9.9080014656
17.9198634070 12.4393561137 5.4708161558
18.1132277603 12.3360384780 5.9348540500
18.2969848838 12.1623264121 6.6431927600
18.4109398329 11.9288204190 7.5698717598
18.4853845771 11.9773436666 8.5831132941
18.3379344960 12.1513796431 9.3033076787
18.1693709479 12.9305080578 9.5701347177
17.9237146414 12.0228601884 10.0472933297
18.1094398276 13.8009369636 4.3211350216
18.4989035379 13.5961377636 4.9293901391
18.3944735370 12.9357836803 5.5933033923
18.5588044454 12.7399344327 6.3020730136
18.2878264311 13.9758403547 9.4732644607
18.0976591253 14.4110997426 4.0229916832
18.5640975928 14.2261429038 4.4462092712
18.4620769766 14.8119860002 9.4241635481
17.5704543189 15.7569510546 3.3208837579
18.0923866556 15.4452019475 3.7369546294
17.7208015641 15.4911224532 9.9527331237
18.1529177846 15.6692904190 9.6155460122
18.3901131663 16.5162350448 3.8753434196
18.2037233896 16.4589970048 9.4211425109
18.5170999966 17.3373434654 4.0836337374
18.5752905257 16.8512663671 9.1494519913
18.4718496142 17.5956316371 8.8619070560
18.8527499820 17.8684176932 4.5670458957
18.4306349367 18.4595528079 4.6428575979
18.9719951827 18.3813299260 5.0418620883
18.7487551258 18.3634573964 8.3943235983
18.6141168669 18.8588450360 5.3559319586
18.4585298206 19.2651438749 6.3102598668
18.6388887636 19.3999636167 7.0021443176
19.1183485663 19.3456168379 6.8518363354
18.7461391437 19.3543193805 7.3814342858
18.9233120842 19.0065601149 7.8393015614
19.0256357069 19.4367550413 7.2135285573
18.6289988365 8.7451713261 9.7016100256
18.6048403061 8.5770459183 10.3886249927
18.4588903544 8.5334219276 11.0416860941
18.6600678397 9.4470665008 9.6335040508
18.6996924968 9.1622164435 10.1743743233
18.5693803277 9.2056886858 10.8552816643
18.6061062996 10.0409153191 9.6202182528
18.6211378905 9.8259641514 10.2612686681
18.8110446373 12.8677924269 7.1594753543
18.7272605071 12.7013408882 8.2097767573
18.5377794841 12.6024854428 8.9373768487
18.8426388530 13.4969047096 5.5649656997
19.0063065332 13.4039888685 6.2613189178
19.2666265318 13.6154973762 7.1124972007
19.1258831886 13.5906522594 8.0093632381
18.6948978924 13.3267887075 8.8769730666
18.7477816994 14.9575273823 4.3187148090
19.0736719123 14.5080632369 4.8677830673
19.2786060482 14.1232305746 5.6339416069
19.5734473194 14.1591962222 6.6192603664
19.5896041077 14.1746674238 7.5083945348
19.4581426196 14.3165388603 8.1763952319
19.5523152819 14.9617789105 8.4625895434
18.9904954431 14.3010132031 8.8327991681
18.9035052891 15.8977121866 4.2742521153
19.3622374872 15.3750717292 4.8009540180
18.9973597714 15.2955710275 9.0701085697
19.6710875399 15.9352984188 8.6049162299
18.9899594831 16.7926647361 4.3349049158
19.4924091272 16.3007099127 4.7928535558
18.8580031360 16.1793212337 9.1616021562
19.2702752031 16.8626832622 8.8243724183
18.9712830870 17.3428503494 4.4045338597
19.4355863694 17.2152469809 4.8188983769
19.5573739231 17.7047176131 8.5444453801
19.3317078826 18.5491588733 5.5528535191
19.6345747353 17.9300891819 5.3350273829
19.8161858908 18.4347259009 5.8766149707
19.7826860085 18.4919756088 8.2352433062
19.5857938686 18.9098562184 6.3405140648
19.6377031788 19.2679738441 7.0127800932
19.9733850159 19.0406216384 7.8008259944
19.2955157611 19.3221950989 7.5081417988
19.3679463184 19.4071659054 7.2098601225
19.5928081904 14.9191682288 5.3350481037
19.9531234305 14.9687043888 6.1216496475
20.0366218634 14.8644156040 7.1663341190
19.7959275815 14.7030877447 7.8784059297
19.9456205125 15.7573398725 5.4444791507
20.3561418270 15.7319841139 6.1161290180
20.4292581664 15.4994382080 6.7349537557
20.4226411434 15.4778428158 7.3544378694
20.5178668410 15.8551147864 7.6930995621
20.1002757774 15.3755019850 7.9286384784
19.9693127735 16.7260747365 5.3014384807
20.4013525649 16.4159718944 5.8907668362
20.3105926954 16.0853553941 8.1037969115
20.2382666310 16.9034128508 8.3254341995
19.8816641502 17.3188653264 5.2767099577
20.3001405227 17.2894813493 5.7855458331
20.6550478445 17.9637262153 8.2527917067
20.1334633237 18.5079404890 6.2373452390
20.2791323538 18.0670282177 6.0575824378
20.7117579149 18.4655205658 6.7655164706
20.7290833297 18.7150431303 8.1556991639
19.7327660874 19.2867039978 7.3819902677
20.3029195918 19.0524576473 7.2593577130
20.9147685405 19.0459841867 7.8619959193
20.6823214008 16.2182464430 6.5401817392
20.7052952547 16.0423716723 7.1957429554
20.7170256299 16.8829946663 6.3373086735
21.0190049897 16.9816638600 7.0785435035
20.7180100743 16.5058199753 7.7365739191
20.8015420417 17.5991019405 6.4978548828
21.3470659370 17.8887383762 7.0904929950
21.4347497879 17.5631922019 7.4232431486
21.5739784674 17.7666502326 7.6943159717
21.0912179606 17.3668525556 7.8226890614
21.4410273570 18.4807752438 7.2285339289
21.4389759730 18.0082713039 8.0047511997
21.3488954433 18.5165860267 8.1976184198
21.3080689908 18.9502034544 7.5601730143
21.4554385886 19.1520907491 7.9671148832
21.6486178812 19.1741067783 7.9552467547
21.4262606930 19.0089431690 8.1387680289
21.6377722310 19.1998361261 8.0927513543
21.6644873637 17.8943782502 7.4428553936
21.6830639574 18.2222179255 7.3670373612
21.7219321602 18.0551433019 7.7221435406
21.6578636631 18.3784183425 8.0664046373
21.6727831444 18.8649350320 8.1356616614
21.6464540740 18.7178048438 7.4924188070
21.7110372488 19.1318703321 8.0930565178
21.7020902385 19.0346253017 7.8750650683
3 2 1 0
3 4 3 0
3 0 3 2
3 4 5 3
3 0 1 6
3 6 1 7
3 0 8 4
3 0 6 8
3 5 4 9
3 9 4 8
3 7 10 6
3 6 10 8
3 8 10 11
3 8 11 9
3 14 13 12
3 16 15 12
3 12 15 14
3 16 17 15
3 12 13 18
3 18 13 19
3 18 1 2
3 16 18 2
3 12 18 16
3 20 17 16
3 2 20 16
3 3 20 2
3 3 5 20
3 20 5 21
3 19 22 18
3 1 18 22
3 23 1 22
3 7 1 23
3 9 25 24
3 21 9 24
3 5 9 21
3 25 26 24
3 23 27 7
3 7 27 10
3 27 29 28
3 11 27 28
3 10 27 11
3 28 30 11
3 11 30 9
3 30 31 9
3 31 25 9
3 25 31 26
3 29 32 28
3 28 32 30
3 35 34 33
3 33 36 35
3 39 38 37
3 39 37 34
3 37 33 34
3 37 40 33
3 36 33 41
3 41 33 40
3 38 42 37
3 44 43 42
3 43 37 42
3 43 40 37
3 41 40 45
3 45 40 43
3 44 46 43
3 43 46 45
3 48 47 14
3 14 47 13
3 49 14 15
3 49 48 14
3 51 50 17
3 50 15 17
3 50 49 15
3 51 52 50
3 47 19 13
3 53 19 47
3 20 51 17
3 55 54 21
3 21 54 20
3 54 52 20
3 52 51 20
3 55 56 54
3 22 19 57
3 19 58 57
3 19 53 58
3 57 23 22
3 24 55 21
3 24 26 55
3 26 56 55
3 26 59 56
3 57 58 60
3 60 58 61
3 62 27 23
3 57 62 23
3 60 62 57
3 62 29 27
3 30 63 31
3 63 64 31
3 64 26 31
3 64 59 26
3 67 66 65
3 69 68 65
3 65 68 67
3 71 70 69
3 70 60 69
3 61 68 69
3 61 69 60
3 60 70 62
3 62 70 72
3 62 72 29
3 72 32 29
3 72 73 32
3 30 32 63
3 32 74 63
3 32 73 74
3 63 74 64
3 77 76 75
3 77 75 66
3 66 75 65
3 75 34 65
3 34 35 65
3 65 35 36
3 78 65 36
3 69 65 78
3 71 69 79
3 79 69 78
3 75 76 39
3 76 38 39
3 76 80 38
3 75 39 34
3 41 81 78
3 41 78 36
3 79 78 82
3 82 78 81
3 42 38 83
3 38 84 83
3 38 80 84
3 83 44 42
3 45 85 81
3 45 81 41
3 82 81 86
3 86 81 85
3 83 84 87
3 87 84 88
3 89 46 44
3 83 89 44
3 87 89 83
3 85 45 46
3 89 85 46
3 90 85 89
3 86 85 91
3 91 85 90
3 88 92 87
3 87 92 89
3 89 92 93
3 89 93 90
3 90 93 94
3 90 94 91
3 97 96 95
3 95 98 97
3 96 99 95
3 95 99 98
3 102 101 100
3 104 103 100
3 100 103 102
3 106 105 104
3 104 105 103
3 106 107 105
3 100 101 48
3 101 47 48
3 101 108 47
3 100 48 49
3 100 49 104
3 104 49 50
3 104 50 106
3 50 52 106
3 52 107 106
3 52 109 107
3 108 53 47
3 110 53 108
3 111 109 52
3 111 52 54
3 54 56 111
3 111 56 112
3 110 58 53
3 113 58 110
3 59 112 56
3 59 114 112
3 117 116 115
3 113 117 115
3 61 113 115
3 58 113 61
3 64 119 118
3 114 64 118
3 59 64 114
3 119 120 118
3 122 121 67
3 67 121 66
3 68 115 116
3 122 68 116
3 67 68 122
3 61 115 68
3 70 71 123
3 124 72 70
3 124 70 123
3 125 73 72
3 125 72 124
3 126 74 73
3 126 73 125
3 126 127 74
3 74 127 64
3 127 128 64
3 128 119 64
3 119 128 120
3 130 129 77
3 77 129 76
3 77 66 121
3 77 121 130
3 79 131 123
3 79 123 71
3 133 124 132
3 124 131 132
3 124 123 131
3 124 133 125
3 125 133 134
3 125 134 126
3 126 134 135
3 126 135 127
3 138 137 136
3 129 138 136
3 80 129 136
3 76 129 80
3 82 139 131
3 82 131 79
3 132 131 140
3 140 131 139
3 136 137 141
3 141 137 142
3 141 84 80
3 141 80 136
3 86 143 139
3 86 139 82
3 140 139 144
3 144 139 143
3 141 142 145
3 145 142 146
3 145 88 84
3 145 84 141
3 91 147 143
3 91 143 86
3 144 143 148
3 148 143 147
3 145 146 149
3 149 146 150
3 151 92 88
3 145 151 88
3 149 151 145
3 152 93 92
3 152 92 151
3 153 94 93
3 153 93 152
3 147 91 94
3 153 147 94
3 154 147 153
3 148 147 155
3 155 147 154
3 150 156 149
3 149 156 151
3 151 156 157
3 151 157 152
3 152 157 158
3 152 158 153
3 153 158 159
3 161 160 159
3 160 153 159
3 160 154 153
3 97 162 96
3 162 154 96
3 154 160 96
3 154 162 155
3 97 98 162
3 162 98 163
3 160 161 164
3 164 161 165
3 166 99 96
3 160 166 96
3 164 166 160
3 166 167 99
3 167 98 99
3 167 163 98
3 165 168 164
3 164 168 166
3 166 168 169
3 166 169 167
3 172 171 170
3 174 173 170
3 170 173 172
3 174 175 173
3 170 171 102
3 171 101 102
3 171 176 101
3 170 102 103
3 170 103 174
3 177 175 174
3 103 177 174
3 105 177 103
3 105 107 177
3 177 107 178
3 176 108 101
3 179 108 176
3 109 181 180
3 178 109 180
3 107 109 178
3 181 182 180
3 179 110 108
3 183 110 179
3 111 181 109
3 185 184 112
3 112 184 111
3 184 182 111
3 182 181 111
3 185 186 184
3 183 113 110
3 187 113 183
3 114 188 185
3 114 185 112
3 186 185 189
3 189 185 188
3 191 190 117
3 117 190 116
3 117 113 187
3 117 187 191
3 118 188 114
3 118 120 188
3 120 189 188
3 120 192 189
3 194 193 122
3 122 193 121
3 122 116 190
3 122 190 194
3 127 195 128
3 195 196 128
3 196 120 128
3 196 192 120
3 198 197 130
3 130 197 129
3 130 121 193
3 130 193 198
3 132 199 133
3 200 134 133
3 200 133 199
3 201 135 134
3 201 134 200
3 201 202 135
3 135 202 127
3 202 203 127
3 203 195 127
3 195 203 196
3 205 204 138
3 138 204 137
3 138 129 197
3 138 197 205
3 140 206 199
3 140 199 132
3 208 200 207
3 200 206 207
3 200 199 206
3 200 208 201
3 201 208 209
3 201 209 202
3 204 142 137
3 210 142 204
3 144 211 206
3 144 206 140
3 207 206 212
3 212 206 211
3 210 146 142
3 213 146 210
3 148 214 211
3 148 211 144
3 212 211 215
3 215 211 214
3 213 150 146
3 216 150 213
3 155 217 214
3 155 214 148
3 215 214 218
3 214 219 218
3 214 217 219
3 219 220 218
3 216 221 150
3 150 221 156
3 221 223 222
3 157 221 222
3 156 221 157
3 224 158 157
3 224 157 222
3 225 159 158
3 225 158 224
3 225 161 159
3 162 217 155
3 217 162 163
3 226 217 163
3 219 217 226
3 220 219 227
3 227 219 226
3 223 228 222
3 222 228 224
3 224 228 229
3 224 229 225
3 225 229 230
3 161 225 230
3 231 161 230
3 165 161 231
3 233 232 226
3 163 233 226
3 167 233 163
3 226 232 227
3 168 165 234
3 165 235 234
3 165 231 235
3 168 234 236
3 237 168 236
3 169 168 237
3 167 169 233
3 233 169 237
3 240 239 238
3 171 172 238
3 172 240 238
3 172 241 240
3 242 172 173
3 242 241 172
3 244 243 175
3 243 173 175
3 243 242 173
3 244 245 243
3 238 239 246
3 246 239 247
3 246 176 171
3 246 171 238
3 177 244 175
3 249 248 178
3 178 248 177
3 248 245 177
3 245 244 177
3 249 250 248
3 247 251 246
3 176 246 251
3 252 176 251
3 179 176 252
3 180 249 178
3 180 182 249
3 182 250 249
3 182 253 250
3 252 183 179
3 254 183 252
3 255 253 182
3 255 182 184
3 184 186 255
3 255 186 256
3 254 187 183
3 257 187 254
3 189 256 186
3 189 258 256
3 260 259 191
3 191 259 190
3 191 187 257
3 191 257 260
3 192 262 261
3 258 192 261
3 189 192 258
3 262 263 261
3 265 264 194
3 194 264 193
3 194 190 259
3 194 259 265
3 267 266 262
3 192 267 262
3 196 267 192
3 262 266 263
3 269 268 198
3 198 268 197
3 198 193 264
3 198 264 269
3 202 270 203
3 270 271 203
3 271 196 203
3 271 267 196
3 272 204 205
3 273 272 205
3 197 273 205
3 268 273 197
3 207 274 208
3 275 209 208
3 275 208 274
3 275 276 209
3 209 276 202
3 276 277 202
3 277 270 202
3 270 277 271
3 279 278 272
3 278 204 272
3 278 210 204
3 279 272 273
3 212 280 274
3 212 274 207
3 282 275 281
3 275 280 281
3 275 274 280
3 275 282 276
3 278 213 210
3 283 213 278
3 215 284 280
3 215 280 212
3 281 280 285
3 280 286 285
3 280 284 286
3 286 287 285
3 283 216 213
3 288 216 283
3 218 284 215
3 286 284 289
3 284 220 289
3 220 290 289
3 220 284 218
3 286 289 287
3 221 216 291
3 216 292 291
3 216 288 292
3 291 223 221
3 227 290 220
3 227 293 290
3 292 294 291
3 291 294 223
3 294 228 223
3 294 295 228
3 295 297 296
3 229 295 296
3 228 295 229
3 298 230 229
3 298 229 296
3 298 231 230
3 300 299 232
3 300 232 233
3 227 232 293
3 293 232 299
3 297 301 296
3 303 302 301
3 302 296 301
3 302 298 296
3 302 235 231
3 302 231 298
3 305 304 237
3 305 237 236
3 233 237 300
3 300 237 304
3 308 307 306
3 310 309 306
3 306 309 308
3 312 311 310
3 310 311 309
3 312 313 311
3 315 314 240
3 240 314 239
3 241 306 307
3 315 241 307
3 240 241 315
3 306 241 242
3 306 242 310
3 310 242 243
3 310 243 312
3 317 316 245
3 245 316 243
3 316 313 243
3 313 312 243
3 317 318 316
3 314 247 239
3 319 247 314
3 248 317 245
3 248 250 317
3 250 318 317
3 250 320 318
3 251 247 321
3 247 322 321
3 247 319 322
3 321 252 251
3 253 324 323
3 320 253 323
3 250 253 320
3 324 325 323
3 322 326 321
3 252 321 326
3 327 252 326
3 254 252 327
3 255 324 253
3 329 328 256
3 256 328 255
3 328 325 255
3 325 324 255
3 329 330 328
3 327 257 254
3 331 257 327
3 258 332 329
3 258 329 256
3 330 329 333
3 333 329 332
3 334 259 260
3 335 334 260
3 257 335 260
3 331 335 257
3 261 332 258
3 261 263 332
3 263 333 332
3 263 336 333
3 338 337 265
3 265 337 264
3 265 259 334
3 339 265 334
3 338 265 339
3 339 334 335
3 267 340 266
3 340 341 266
3 341 263 266
3 341 336 263
3 343 342 269
3 269 342 268
3 269 264 337
3 269 337 343
3 345 344 340
3 267 345 340
3 271 345 267
3 340 344 341
3 342 273 268
3 346 273 342
3 276 347 277
3 347 348 277
3 348 271 277
3 348 345 271
3 349 278 279
3 350 349 279
3 273 350 279
3 346 350 273
3 281 351 282
3 351 352 282
3 282 352 276
3 352 353 276
3 353 347 276
3 347 353 348
3 355 354 349
3 354 278 349
3 354 283 278
3 355 349 350
3 285 351 281
3 285 287 351
3 287 352 351
3 287 356 352
3 354 288 283
3 357 288 354
3 290 358 289
3 358 359 289
3 359 287 289
3 359 356 287
3 361 292 360
3 292 357 360
3 292 288 357
3 362 361 360
3 364 363 358
3 290 364 358
3 293 364 290
3 358 363 359
3 361 294 292
3 362 365 361
3 365 294 361
3 365 295 294
3 297 295 365
3 297 365 366
3 368 367 299
3 368 299 300
3 293 299 364
3 364 299 367
3 366 369 297
3 297 369 301
3 303 301 369
3 303 369 370
3 372 371 304
3 372 304 305
3 300 304 368
3 368 304 371
3 375 374 373
3 377 376 373
3 373 376 375
3 379 378 377
3 377 378 376
3 379 380 378
3 382 381 308
3 308 381 307
3 309 373 374
3 382 309 374
3 308 309 382
3 373 309 311
3 373 311 377
3 377 311 313
3 383 377 313
3 379 377 383
3 380 379 384
3 384 379 383
3 387 386 385
3 314 315 385
3 315 387 385
3 315 388 387
3 315 307 381
3 315 381 388
3 316 383 313
3 316 318 383
3 318 384 383
3 318 389 384
3 386 390 385
3 314 385 390
3 391 314 390
3 319 314 391
3 320 393 392
3 389 320 392
3 318 320 389
3 393 394 392
3 396 322 395
3 322 391 395
3 322 319 391
3 397 396 395
3 323 393 320
3 323 325 393
3 325 394 393
3 325 398 394
3 396 326 322
3 327 326 396
3 397 327 396
3 399 327 397
3 400 398 325
3 400 325 328
3 328 330 400
3 400 330 401
3 403 331 402
3 331 399 402
3 331 327 399
3 404 403 402
3 333 401 330
3 333 405 401
3 407 406 403
3 406 331 403
3 406 335 331
3 407 403 404
3 336 405 333
3 336 408 405
3 409 337 338
3 409 338 410
3 338 411 410
3 338 339 411
3 339 335 406
3 339 406 411
3 341 408 336
3 341 412 408
3 413 342 343
3 414 413 343
3 414 343 337
3 415 414 337
3 409 415 337
3 415 409 410
3 417 416 344
3 417 344 345
3 341 344 412
3 412 344 416
3 419 418 413
3 418 342 413
3 418 346 342
3 419 413 414
3 348 417 345
3 348 420 417
3 418 350 346
3 421 350 418
3 423 422 353
3 423 353 352
3 348 353 420
3 420 353 422
3 425 424 355
3 355 424 354
3 355 350 421
3 355 421 425
3 356 427 426
3 423 356 426
3 352 356 423
3 427 428 426
3 430 357 429
3 357 424 429
3 357 354 424
3 431 430 429
3 433 432 427
3 356 433 427
3 359 433 356
3 427 432 428
3 430 360 357
3 435 434 362
3 435 362 360
3 431 435 360
3 430 431 360
3 436 434 435
3 364 437 363
3 437 438 363
3 438 359 363
3 438 433 359
3 434 365 362
3 366 365 434
3 436 366 434
3 439 366 436
3 441 440 367
3 441 367 368
3 364 367 437
3 367 442 437
3 367 440 442
3 437 442 438
3 439 443 366
3 366 443 369
3 370 369 443
3 370 443 444
3 446 445 371
3 446 371 372
3 368 371 441
3 441 371 445
3 449 448 447
3 451 450 447
3 447 450 449
3 453 452 451
3 451 452 450
3 453 454 452
3 457 456 455
3 457 455 448
3 448 455 447
3 455 374 447
3 374 375 447
3 447 375 376
3 447 376 451
3 451 376 378
3 451 378 453
3 459 458 380
3 380 458 378
3 458 454 378
3 454 453 378
3 459 460 458
3 463 462 461
3 463 461 456
3 456 461 455
3 461 381 455
3 381 382 455
3 455 382 374
3 384 464 459
3 384 459 380
3 460 459 465
3 465 459 464
3 467 466 387
3 387 466 386
3 388 461 462
3 467 388 462
3 387 388 467
3 461 388 381
3 389 468 464
3 389 464 384
3 465 464 469
3 469 464 468
3 466 470 386
3 386 470 390
3 391 390 470
3 391 470 471
3 392 468 389
3 392 394 468
3 394 469 468
3 394 472 469
3 471 473 391
3 391 473 395
3 397 395 473
3 397 473 474
3 398 476 475
3 472 398 475
3 394 398 472
3 476 477 475
3 474 399 397
3 478 399 474
3 400 476 398
3 400 401 476
3 401 477 476
3 401 479 477
3 478 480 399
3 399 480 402
3 404 402 480
3 404 480 481
3 405 483 482
3 479 405 482
3 401 405 479
3 483 484 482
3 486 485 407
3 407 485 406
3 407 404 481
3 407 481 486
3 488 487 483
3 405 488 483
3 408 488 405
3 483 487 484
3 490 489 411
3 411 489 410
3 411 406 485
3 411 485 490
3 412 488 408
3 412 491 488
3 493 492 415
3 415 492 414
3 415 410 489
3 415 489 493
3 495 494 416
3 495 416 417
3 412 416 491
3 491 416 494
3 497 496 419
3 419 496 418
3 419 414 492
3 419 492 497
3 420 495 417
3 420 498 495
3 496 421 418
3 499 421 496
3 423 500 422
3 500 501 422
3 501 420 422
3 501 498 420
3 502 424 425
3 503 502 425
3 421 503 425
3 499 503 421
3 426 500 423
3 426 428 500
3 428 501 500
3 428 504 501
3 502 429 424
3 431 429 502
3 503 431 502
3 505 431 503
3 507 506 432
3 507 432 433
3 428 432 504
3 504 432 506
3 505 508 431
3 431 508 435
3 436 435 508
3 436 508 509
3 438 507 433
3 438 510 507
3 512 439 511
3 439 509 511
3 439 436 509
3 513 512 511
3 515 514 440
3 515 440 441
3 440 516 442
3 514 516 440
3 438 442 510
3 510 442 516
3 512 443 439
3 444 443 512
3 513 444 512
3 517 444 513
3 519 518 445
3 519 445 446
3 441 445 515
3 515 445 518
3 522 521 520
3 524 523 520
3 520 523 522
3 524 525 523
3 528 527 526
3 448 449 526
3 449 528 526
3 449 529 528
3 450 520 521
3 529 450 521
3 449 450 529
3 520 450 452
3 520 452 524
3 531 530 454
3 454 530 452
3 530 525 452
3 525 524 452
3 531 532 530
3 535 534 533
3 535 533 527
3 527 533 526
3 533 456 526
3 456 457 526
3 526 457 448
3 458 531 454
3 458 460 531
3 460 532 531
3 460 536 532
3 539 538 537
3 539 537 534
3 534 537 533
3 537 462 533
3 462 463 533
3 533 463 456
3 465 536 460
3 465 540 536
3 537 538 467
3 538 466 467
3 538 541 466
3 537 467 462
3 469 540 465
3 469 542 540
3 541 543 466
3 466 543 470
3 471 470 543
3 471 543 544
3 472 546 545
3 542 472 545
3 469 472 542
3 546 547 545
3 544 548 471
3 471 548 473
3 474 473 548
3 474 548 549
3 475 546 472
3 475 477 546
3 477 547 546
3 477 550 547
3 549 478 474
3 551 478 549
3 479 553 552
3 550 479 552
3 477 479 550
3 553 554 552
3 551 555 478
3 478 555 480
3 481 480 555
3 481 555 556
3 482 553 479
3 482 484 553
3 484 554 553
3 484 557 554
3 559 558 486
3 486 558 485
3 486 481 556
3 486 556 559
3 488 560 487
3 560 561 487
3 561 484 487
3 561 557 484
3 562 489 490
3 563 562 490
3 485 563 490
3 558 563 485
3 565 564 560
3 488 565 560
3 491 565 488
3 560 564 561
3 566 492 493
3 567 566 493
3 567 493 489
3 568 567 489
3 562 568 489
3 568 562 563
3 570 569 494
3 570 494 495
3 491 494 565
3 565 494 569
3 571 496 497
3 572 571 497
3 572 497 492
3 573 572 492
3 566 573 492
3 573 566 567
3 498 570 495
3 498 574 570
3 575 499 571
3 571 499 496
3 571 572 576
3 571 576 575
3 501 574 498
3 501 577 574
3 578 503 575
3 575 503 499
3 575 576 579
3 575 579 578
3 504 577 501
3 504 580 577
3 581 505 578
3 578 505 503
3 578 579 582
3 578 582 581
3 507 583 506
3 583 584 506
3 584 504 506
3 584 580 504
3 581 508 505
3 509 508 581
3 582 509 581
3 585 509 582
3 588 587 586
3 587 589 583
3 510 587 583
3 507 510 583
3 586 587 510
3 583 589 584
3 511 509 590
3 509 591 590
3 509 585 591
3 590 513 511
3 593 592 514
3 593 514 515
3 586 516 588
3 516 592 588
3 516 514 592
3 516 586 510
3 591 594 590
3 517 513 590
3 595 517 590
3 594 595 590
3 517 595 596
3 597 596 595
3 599 598 518
3 599 518 519
3 515 518 593
3 593 518 598
3 602 601 600
3 604 603 600
3 600 603 602
3 604 605 603
3 608 607 606
3 606 609 608
3 612 611 610
3 612 610 601
3 601 610 600
3 610 521 600
3 521 522 600
3 600 522 523
3 600 523 604
3 614 613 525
3 525 613 523
3 613 605 523
3 605 604 523
3 614 615 613
3 606 607 616
3 616 607 617
3 528 618 527
3 618 606 527
3 606 616 527
3 606 618 609
3 529 610 611
3 618 529 611
3 528 529 618
3 610 529 521
3 530 614 525
3 530 532 614
3 532 615 614
3 532 619 615
3 616 617 535
3 617 534 535
3 617 620 534
3 616 535 527
3 536 619 532
3 536 621 619
3 623 622 539
3 539 622 538
3 539 534 620
3 539 620 623
3 540 625 624
3 621 540 624
3 536 540 621
3 625 626 624
3 622 541 538
3 627 541 622
3 542 628 625
3 542 625 540
3 626 625 629
3 629 625 628
3 627 630 541
3 541 630 543
3 544 543 630
3 544 630 631
3 545 628 542
3 545 547 628
3 547 629 628
3 547 632 629
3 548 544 633
3 544 634 633
3 544 631 634
3 633 549 548
3 550 636 635
3 632 550 635
3 547 550 632
3 638 637 636
3 636 637 635
3 638 639 637
3 634 640 633
3 549 633 640
3 641 549 640
3 551 549 641
3 552 636 550
3 636 552 554
3 642 636 554
3 638 636 642
3 639 638 643
3 638 644 643
3 638 642 644
3 644 645 643
3 641 646 551
3 551 646 555
3 556 555 646
3 556 646 647
3 557 648 642
3 557 642 554
3 642 649 644
3 642 648 649
3 645 644 650
3 650 644 649
3 651 558 559
3 652 651 559
3 556 652 559
3 647 652 556
3 654 653 648
3 557 654 648
3 561 654 557
3 648 653 649
3 649 653 655
3 649 655 650
3 657 656 651
3 656 558 651
3 656 563 558
3 657 651 652
3 659 658 564
3 659 564 565
3 561 564 654
3 654 564 658
3 661 660 568
3 568 660 567
3 568 563 656
3 568 656 661
3 663 662 569
3 663 569 570
3 565 569 659
3 659 569 662
3 664 572 573
3 665 664 573
3 567 665 573
3 660 665 567
3 574 663 570
3 574 666 663
3 667 576 664
3 664 576 572
3 664 665 668
3 664 668 667
3 577 666 574
3 577 669 666
3 671 670 667
3 670 576 667
3 670 579 576
3 671 667 668
3 580 669 577
3 580 672 669
3 670 582 579
3 673 582 670
3 676 675 674
3 675 672 674
3 672 584 674
3 672 580 584
3 679 678 677
3 673 679 677
3 585 673 677
3 582 673 585
3 681 680 587
3 681 587 588
3 674 589 676
3 589 680 676
3 589 587 680
3 589 674 584
3 677 678 682
3 682 678 683
3 682 591 585
3 682 585 677
3 685 684 592
3 685 592 593
3 588 592 681
3 681 592 684
3 683 686 682
3 682 686 591
3 686 594 591
3 686 687 594
3 687 689 688
3 595 687 688
3 594 687 595
3 688 597 595
3 691 690 598
3 691 598 599
3 593 598 685
3 685 598 690
3 692 601 602
3 692 602 693
3 602 694 693
3 602 603 694
3 603 605 694
3 694 605 695
3 698 697 696
3 607 608 696
3 608 698 696
3 608 699 698
3 701 700 609
3 700 608 609
3 700 699 608
3 611 612 701
3 612 700 701
3 612 702 700
3 612 601 692
3 703 612 692
3 702 612 703
3 703 692 693
3 704 695 605
3 704 605 613
3 613 615 704
3 704 615 705
3 696 697 706
3 706 697 707
3 706 617 607
3 706 607 696
3 618 701 609
3 701 618 611
3 619 709 708
3 705 619 708
3 615 619 705
3 709 710 708
3 706 707 711
3 711 707 712
3 711 620 617
3 711 617 706
3 621 713 709
3 621 709 619
3 710 709 714
3 714 709 713
3 711 712 623
3 712 622 623
3 712 715 622
3 711 623 620
3 624 713 621
3 624 626 713
3 626 714 713
3 626 716 714
3 715 627 622
3 717 627 715
3 629 719 718
3 716 629 718
3 626 629 716
3 719 720 718
3 630 627 721
3 627 722 721
3 627 717 722
3 721 631 630
3 632 723 719
3 632 719 629
3 720 719 724
3 724 719 723
3 722 725 721
3 631 721 725
3 726 631 725
3 634 631 726
3 635 723 632
3 727 724 723
3 635 727 723
3 637 727 635
3 729 728 639
3 728 637 639
3 728 727 637
3 729 730 728
3 726 731 634
3 634 731 640
3 641 640 731
3 641 731 732
3 643 729 639
3 734 733 645
3 645 733 643
3 733 730 643
3 730 729 643
3 646 641 735
3 641 736 735
3 641 732 736
3 735 647 646
3 650 737 734
3 650 734 645
3 735 736 738
3 738 736 739
3 738 652 647
3 738 647 735
3 741 740 653
3 741 653 654
3 740 743 742
3 655 740 742
3 653 740 655
3 742 744 655
3 655 744 650
3 744 745 650
3 745 737 650
3 738 739 657
3 739 656 657
3 739 746 656
3 738 657 652
3 748 747 658
3 748 658 659
3 654 658 741
3 741 658 747
3 743 749 742
3 742 749 744
3 750 660 661
3 751 750 661
3 656 751 661
3 746 751 656
3 753 752 662
3 753 662 663
3 659 662 748
3 748 662 752
3 754 665 750
3 750 665 660
3 750 751 755
3 750 755 754
3 666 753 663
3 666 756 753
3 758 757 754
3 757 665 754
3 757 668 665
3 758 754 755
3 669 756 666
3 669 759 756
3 760 670 671
3 761 760 671
3 668 761 671
3 757 761 668
3 672 759 669
3 672 762 759
3 764 763 760
3 763 670 760
3 763 673 670
3 764 760 761
3 766 765 675
3 766 675 676
3 672 675 762
3 762 675 765
3 768 767 679
3 679 767 678
3 679 673 763
3 679 763 768
3 770 769 680
3 770 680 681
3 676 680 766
3 766 680 769
3 773 772 771
3 767 773 771
3 683 767 771
3 678 767 683
3 775 774 684
3 775 684 685
3 681 684 770
3 770 684 774
3 772 776 771
3 771 776 683
3 776 686 683
3 776 777 686
3 686 778 687
3 777 778 686
3 780 779 689
3 687 780 689
3 778 780 687
3 782 781 779
3 782 779 780
3 690 691 781
3 782 690 781
3 783 690 782
3 685 690 775
3 775 690 783
3 786 785 784
3 784 693 786
3 693 694 786
3 788 787 786
3 788 786 694
3 695 788 694
3 789 697 698
3 699 790 698
3 698 790 789
3 790 699 791
3 699 792 791
3 699 700 792
3 793 700 702
3 793 792 700
3 703 784 785
3 793 703 785
3 702 703 793
3 788 794 787
3 693 784 703
3 794 788 695
3 704 794 695
3 795 794 704
3 704 705 795
3 795 705 796
3 797 707 789
3 789 707 697
3 790 799 798
3 797 790 798
3 789 790 797
3 799 790 791
3 705 708 800
3 801 705 800
3 796 705 801
3 710 800 708
3 802 712 797
3 797 712 707
3 797 798 803
3 797 803 802
3 804 801 800
3 800 710 804
3 710 805 804
3 710 714 805
3 808 807 806
3 806 809 808
3 811 810 802
3 810 712 802
3 810 715 712
3 811 802 803
3 716 805 714
3 716 812 805
3 806 807 813
3 813 807 814
3 809 806 815
3 806 816 815
3 806 813 816
3 810 815 816
3 717 810 816
3 715 810 717
3 817 812 716
3 817 716 718
3 718 720 817
3 817 720 818
3 814 819 813
3 813 819 816
3 816 819 820
3 717 816 820
3 821 717 820
3 722 717 821
3 724 823 822
3 818 724 822
3 720 724 818
3 823 824 822
3 821 825 722
3 722 825 725
3 726 725 825
3 726 825 826
3 727 823 724
3 827 824 823
3 727 827 823
3 728 827 727
3 728 730 827
3 827 730 828
3 731 726 829
3 726 830 829
3 726 826 830
3 829 732 731
3 831 828 730
3 831 730 733
3 829 830 832
3 832 830 833
3 832 736 732
3 832 732 829
3 832 833 834
3 834 833 835
3 834 739 736
3 834 736 832
3 837 836 740
3 837 740 741
3 743 740 836
3 743 836 838
3 840 839 745
3 840 745 744
3 834 835 841
3 841 835 842
3 841 746 739
3 841 739 834
3 844 843 747
3 844 747 748
3 741 747 837
3 837 747 843
3 838 845 743
3 743 845 749
3 744 749 840
3 840 749 845
3 841 842 846
3 846 842 847
3 846 751 746
3 846 746 841
3 849 848 752
3 849 752 753
3 748 752 844
3 844 752 848
3 846 847 850
3 850 847 851
3 850 755 751
3 850 751 846
3 756 849 753
3 756 852 849
3 850 851 758
3 851 757 758
3 851 853 757
3 850 758 755
3 759 852 756
3 759 854 852
3 857 856 855
3 853 857 855
3 761 853 855
3 757 853 761
3 762 854 759
3 762 858 854
3 855 856 764
3 856 763 764
3 856 859 763
3 855 764 761
3 861 860 765
3 861 765 766
3 762 765 858
3 858 765 860
3 864 863 862
3 767 768 862
3 768 864 862
3 768 865 864
3 768 763 859
3 768 859 865
3 867 866 769
3 867 769 770
3 766 769 861
3 861 769 866
3 862 863 773
3 863 772 773
3 863 868 772
3 862 773 767
3 870 869 774
3 870 774 775
3 770 774 867
3 867 774 869
3 868 871 772
3 772 871 776
3 776 872 777
3 871 872 776
3 777 873 778
3 872 873 777
3 778 874 780
3 873 874 778
3 780 875 782
3 874 875 780
3 782 876 783
3 875 876 782
3 775 783 870
3 870 783 876
3 877 785 786
3 787 877 786
3 878 791 792
3 878 792 879
3 792 880 879
3 792 793 880
3 793 785 877
3 881 793 877
3 880 793 881
3 881 877 787
3 794 881 787
3 882 881 794
3 884 882 883
3 882 795 883
3 882 794 795
3 796 883 795
3 885 798 799
3 886 885 799
3 886 799 791
3 887 886 791
3 878 887 791
3 887 878 879
3 888 884 883
3 883 796 888
3 796 889 888
3 796 801 889
3 891 890 885
3 890 798 885
3 890 803 798
3 891 885 886
3 892 889 801
3 892 801 804
3 804 805 892
3 892 805 893
3 894 807 808
3 809 894 808
3 895 810 811
3 896 895 811
3 803 896 811
3 890 896 803
3 812 893 805
3 812 897 893
3 898 814 894
3 894 814 807
3 815 899 809
3 899 894 809
3 899 898 894
3 810 895 815
3 895 899 815
3 895 900 899
3 895 896 901
3 895 901 900
3 902 897 812
3 902 812 817
3 817 818 902
3 902 818 903
3 898 819 814
3 819 898 820
3 820 898 899
3 820 899 821
3 899 904 821
3 899 900 904
3 900 901 905
3 900 905 904
3 906 903 818
3 906 818 822
3 822 824 906
3 906 824 907
3 904 825 821
3 826 825 904
3 905 826 904
3 908 826 905
3 909 907 824
3 909 824 827
3 827 828 909
3 909 828 910
3 908 830 826
3 911 830 908
3 912 910 828
3 912 828 831
3 911 833 830
3 913 833 911
3 913 835 833
3 914 835 913
3 916 915 836
3 916 836 837
3 918 917 838
3 836 918 838
3 915 918 836
3 839 840 917
3 918 839 917
3 919 839 918
3 922 921 920
3 914 922 920
3 842 914 920
3 835 914 842
3 924 923 843
3 924 843 844
3 837 843 916
3 916 843 923
3 917 845 838
3 845 917 840
3 920 921 925
3 925 921 926
3 925 847 842
3 925 842 920
3 928 927 848
3 928 848 849
3 844 848 924
3 924 848 927
3 925 926 929
3 929 926 930
3 929 851 847
3 929 847 925
3 852 928 849
3 852 931 928
3 929 930 932
3 932 930 933
3 932 853 851
3 932 851 929
3 854 931 852
3 854 934 931
3 932 933 857
3 933 856 857
3 933 935 856
3 932 857 853
3 858 934 854
3 858 936 934
3 939 938 937
3 935 939 937
3 859 935 937
3 856 935 859
3 941 940 860
3 941 860 861
3 858 860 936
3 936 860 940
3 944 943 942
3 863 864 942
3 864 944 942
3 864 945 944
3 865 937 938
3 945 865 938
3 864 865 945
3 937 865 859
3 947 946 866
3 947 866 867
3 861 866 941
3 941 866 946
3 943 948 942
3 868 863 942
3 949 868 942
3 948 949 942
3 868 949 950
3 951 950 949
3 953 952 869
3 953 869 870
3 867 869 947
3 947 869 952
3 950 871 868
3 951 954 950
3 954 871 950
3 954 872 871
3 872 955 873
3 954 955 872
3 873 956 874
3 955 956 873
3 874 957 875
3 956 957 874
3 875 958 876
3 957 958 875
3 870 876 953
3 953 876 958
3 959 879 880
3 959 880 960
3 880 961 960
3 880 881 961
3 963 961 962
3 961 882 962
3 961 881 882
3 884 962 882
3 964 886 887
3 965 964 887
3 965 887 879
3 966 965 879
3 959 966 879
3 966 959 960
3 967 963 962
3 969 967 968
3 968 967 888
3 967 962 888
3 962 884 888
3 889 968 888
3 970 890 891
3 971 970 891
3 971 891 886
3 972 971 886
3 964 972 886
3 972 964 965
3 973 969 968
3 975 973 974
3 974 973 892
3 973 968 892
3 968 889 892
3 893 974 892
3 976 896 970
3 970 896 890
3 970 971 977
3 970 977 976
3 978 975 974
3 974 893 978
3 893 979 978
3 893 897 979
3 980 901 976
3 976 901 896
3 976 977 981
3 976 981 980
3 982 979 897
3 982 897 902
3 902 903 982
3 982 903 983
3 984 905 980
3 980 905 901
3 980 981 985
3 980 985 984
3 986 983 903
3 986 903 906
3 906 907 986
3 986 907 987
3 988 908 984
3 984 908 905
3 984 985 989
3 984 989 988
3 990 987 907
3 990 907 909
3 909 910 990
3 990 910 991
3 992 911 988
3 988 911 908
3 988 989 993
3 988 993 992
3 994 991 910
3 994 910 912
3 996 995 992
3 995 911 992
3 995 913 911
3 996 992 993
3 995 914 913
3 997 914 995
3 999 998 915
3 999 915 916
3 915 1000 918
3 998 1000 915
3 918 1001 919
3 1000 1001 918
3 1003 1002 922
3 922 1002 921
3 922 914 997
3 922 997 1003
3 1006 1005 1004
3 923 924 1004
3 1005 923 1004
3 1007 923 1005
3 916 923 999
3 999 923 1007
3 1002 926 921
3 1008 926 1002
3 1006 1004 927
3 928 1006 927
3 1009 1006 928
3 927 1004 924
3 1012 1011 1010
3 1008 1012 1010
3 930 1008 1010
3 926 1008 930
3 931 1009 928
3 931 1013 1009
3 1010 1011 1014
3 1014 1011 1015
3 1014 933 930
3 1014 930 1010
3 934 1013 931
3 934 1016 1013
3 1014 1015 1017
3 1017 1015 1018
3 1017 935 933
3 1017 933 1014
3 1021 1020 1019
3 1020 1016 1019
3 1016 936 1019
3 1016 934 936
3 1024 1023 1022
3 1024 1022 1018
3 1018 1022 1017
3 1022 938 1017
3 938 939 1017
3 1017 939 935
3 1021 1019 940
3 941 1021 940
3 1025 1021 941
3 940 1019 936
3 1026 943 944
3 1023 1027 1022
3 1027 944 1022
3 944 945 1022
3 944 1027 1026
3 1022 945 938
3 1029 1028 946
3 1029 946 947
3 941 946 1025
3 1025 946 1028
3 1026 948 943
3 1027 1030 1026
3 1030 948 1026
3 1030 949 948
3 951 949 1030
3 951 1030 1031
3 1033 1032 952
3 1033 952 953
3 947 952 1029
3 1029 952 1032
3 1031 1034 951
3 951 1034 954
3 954 1035 955
3 1034 1035 954
3 955 1036 956
3 1035 1036 955
3 956 1037 957
3 1036 1037 956
3 957 1038 958
3 1037 1038 957
3 953 958 1033
3 1033 958 1038
3 1039 960 961
3 963 1039 961
3 1041 1040 966
3 966 1040 965
3 966 960 1039
3 1042 966 1039
3 1041 966 1042
3 1044 1042 1043
3 1043 1042 967
3 1042 1039 967
3 1039 963 967
3 969 1043 967
3 1045 971 972
3 1046 1045 972
3 965 1046 972
3 1040 1046 965
3 1047 1044 1043
3 1049 1047 1048
3 1048 1047 973
3 1047 1043 973
3 1043 969 973
3 975 1048 973
3 1050 977 1045
3 1045 977 971
3 1045 1046 1051
3 1045 1051 1050
3 1052 1049 1048
3 1054 1052 1053
3 1053 1052 978
3 1052 1048 978
3 1048 975 978
3 979 1053 978
3 1055 981 1050
3 1050 981 977
3 1050 1051 1056
3 1050 1056 1055
3 1057 1054 1053
3 1059 1057 1058
3 1058 1057 982
3 1057 1053 982
3 1053 979 982
3 983 1058 982
3 1060 985 1055
3 1055 985 981
3 1055 1056 1061
3 1055 1061 1060
3 1062 1059 1058
3 1064 1062 1063
3 1063 1062 986
3 1062 1058 986
3 1058 983 986
3 987 1063 986
3 1065 989 1060
3 1060 989 985
3 1060 1061 1066
3 1060 1066 1065
3 1067 1064 1063
3 1067 1063 987
3 990 1067 987
3 1068 1067 990
3 990 991 1068
3 1068 991 1069
3 1071 1070 1065
3 1070 989 1065
3 1070 993 989
3 1071 1065 1066
3 1072 1069 991
3 1072 991 994
3 1073 995 996
3 1074 1073 996
3 993 1074 996
3 1070 1074 993
3 1077 1076 1075
3 1079 1078 1075
3 1079 1075 1076
3 1081 1080 1073
3 1080 995 1073
3 1080 997 995
3 1081 1073 1074
3 1084 1083 1082
3 998 999 1082
3 1083 998 1082
3 1085 998 1083
3 1075 1000 1077
3 1000 1085 1077
3 1000 998 1085
3 1000 1075 1001
3 1001 1075 1078
3 1087 1086 1003
3 1003 1086 1002
3 1003 997 1080
3 1003 1080 1087
3 1089 1088 1005
3 1089 1005 1006
3 1082 1007 1084
3 1007 1088 1084
3 1007 1005 1088
3 1007 1082 999
3 1086 1008 1002
3 1090 1008 1086
3 1093 1092 1091
3 1092 1089 1091
3 1089 1009 1091
3 1089 1006 1009
3 1095 1094 1012
3 1012 1094 1011
3 1012 1008 1090
3 1012 1090 1095
3 1093 1091 1096
3 1093 1096 1097
3 1013 1096 1009
3 1009 1096 1091
3 1094 1015 1011
3 1098 1015 1094
3 1097 1096 1099
3 1097 1099 1100
3 1016 1099 1013
3 1013 1099 1096
3 1098 1018 1015
3 1101 1018 1098
3 1100 1099 1020
3 1021 1100 1020
3 1102 1100 1021
3 1020 1099 1016
3 1103 1023 1024
3 1104 1103 1024
3 1018 1104 1024
3 1101 1104 1018
3 1025 1102 1021
3 1025 1105 1102
3 1106 1027 1103
3 1103 1027 1023
3 1103 1104 1107
3 1103 1107 1106
3 1109 1108 1028
3 1109 1028 1029
3 1025 1028 1105
3 1105 1028 1108
3 1106 1030 1027
3 1031 1030 1106
3 1107 1031 1106
3 1110 1031 1107
3 1112 1111 1032
3 1112 1032 1033
3 1029 1032 1109
3 1109 1032 1111
3 1110 1113 1031
3 1031 1113 1034
3 1034 1114 1035
3 1113 1114 1034
3 1035 1115 1036
3 1114 1115 1035
3 1036 1116 1037
3 1115 1116 1036
3 1037 1117 1038
3 1116 1117 1037
3 1033 1038 1112
3 1112 1038 1117
3 1118 1040 1041
3 1042 1119 1041
3 1041 1119 1118
3 1044 1119 1042
3 1120 1046 1118
3 1118 1046 1040
3 1119 1122 1121
3 1120 1119 1121
3 1118 1119 1120
3 1124 1122 1123
3 1123 1122 1047
3 1122 1119 1047
3 1119 1044 1047
3 1049 1123 1047
3 1125 1051 1120
3 1120 1051 1046
3 1120 1121 1126
3 1120 1126 1125
3 1127 1124 1123
3 1129 1127 1128
3 1128 1127 1052
3 1127 1123 1052
3 1123 1049 1052
3 1054 1128 1052
3 1130 1056 1125
3 1125 1056 1051
3 1125 1126 1131
3 1125 1131 1130
3 1132 1129 1128
3 1134 1132 1133
3 1133 1132 1057
3 1132 1128 1057
3 1128 1054 1057
3 1059 1133 1057
3 1135 1061 1130
3 1130 1061 1056
3 1130 1131 1136
3 1130 1136 1135
3 1137 1134 1133
3 1139 1137 1138
3 1138 1137 1062
3 1137 1133 1062
3 1133 1059 1062
3 1064 1138 1062
3 1141 1140 1135
3 1140 1061 1135
3 1140 1066 1061
3 1141 1135 1136
3 1142 1139 1138
3 1144 1142 1143
3 1143 1142 1067
3 1142 1138 1067
3 1138 1064 1067
3 1068 1145 1067
3 1067 1145 1143
3 1069 1145 1068
3 1146 1070 1071
3 1147 1146 1071
3 1066 1147 1071
3 1140 1147 1066
3 1148 1144 1143
3 1150 1149 1148
3 1143 1150 1148
3 1145 1150 1143
3 1072 1151 1069
3 1151 1145 1069
3 1151 1150 1145
3 1152 1074 1146
3 1146 1074 1070
3 1146 1147 1153
3 1146 1153 1152
3 1156 1155 1154
3 1158 1157 1154
3 1158 1154 1155
3 1157 1158 1149
3 1157 1149 1150
3 1077 1157 1150
3 1076 1077 1150
3 1076 1150 1079
3 1079 1150 1151
3 1159 1080 1081
3 1074 1152 1081
3 1152 1159 1081
3 1152 1160 1159
3 1152 1153 1161
3 1152 1161 1160
3 1164 1163 1162
3 1162 1163 1156
3 1162 1156 1154
3 1084 1162 1154
3 1083 1084 1154
3 1083 1154 1085
3 1085 1154 1157
3 1085 1157 1077
3 1165 1086 1087
3 1166 1165 1087
3 1166 1087 1080
3 1167 1166 1080
3 1159 1167 1080
3 1167 1159 1160
3 1167 1160 1168
3 1168 1160 1161
3 1164 1162 1088
3 1089 1164 1088
3 1169 1164 1089
3 1088 1162 1084
3 1171 1170 1165
3 1170 1086 1165
3 1170 1090 1086
3 1171 1165 1166
3 1173 1172 1092
3 1173 1092 1093
3 1089 1092 1169
3 1169 1092 1172
3 1174 1094 1095
3 1175 1174 1095
3 1090 1175 1095
3 1170 1175 1090
3 1097 1173 1093
3 1097 1176 1173
3 1178 1177 1174
3 1177 1094 1174
3 1177 1098 1094
3 1178 1174 1175
3 1100 1180 1179
3 1176 1100 1179
3 1097 1100 1176
3 1180 1181 1179
3 1183 1101 1182
3 1101 1177 1182
3 1101 1098 1177
3 1184 1183 1182
3 1186 1185 1180
3 1100 1186 1180
3 1102 1186 1100
3 1180 1185 1181
3 1187 1104 1183
3 1183 1104 1101
3 1183 1184 1188
3 1183 1188 1187
3 1191 1190 1189
3 1190 1186 1189
3 1186 1105 1189
3 1186 1102 1105
3 1192 1107 1187
3 1187 1107 1104
3 1187 1188 1193
3 1187 1193 1192
3 1191 1189 1108
3 1109 1191 1108
3 1194 1191 1109
3 1108 1189 1105
3 1195 1110 1192
3 1192 1110 1107
3 1192 1193 1196
3 1197 1192 1196
3 1195 1192 1197
3 1199 1198 1197
3 1199 1197 1196
3 1201 1200 1198
3 1201 1198 1199
3 1203 1202 1200
3 1203 1200 1201
3 1111 1112 1202
3 1203 1111 1202
3 1204 1111 1203
3 1109 1111 1194
3 1194 1111 1204
3 1195 1113 1110
3 1113 1195 1114
3 1114 1195 1197
3 1114 1197 1115
3 1115 1197 1198
3 1115 1198 1116
3 1116 1198 1200
3 1116 1200 1117
3 1117 1200 1202
3 1117 1202 1112
3 1205 1121 1122
3 1124 1205 1122
3 1206 1126 1205
3 1205 1126 1121
3 1127 1207 1124
3 1207 1205 1124
3 1207 1206 1205
3 1129 1207 1127
3 1208 1131 1206
3 1206 1131 1126
3 1209 1206 1207
3 1208 1206 1209
3 1132 1210 1129
3 1210 1207 1129
3 1210 1209 1207
3 1134 1210 1132
3 1211 1136 1208
3 1208 1136 1131
3 1212 1208 1209
3 1211 1208 1212
3 1213 1209 1210
3 1212 1209 1213
3 1137 1214 1134
3 1214 1210 1134
3 1214 1213 1210
3 1139 1214 1137
3 1215 1140 1141
3 1136 1211 1141
3 1211 1215 1141
3 1211 1216 1215
3 1212 1218 1217
3 1216 1212 1217
3 1211 1212 1216
3 1218 1212 1213
3 1218 1213 1219
3 1219 1213 1214
3 1219 1214 1220
3 1222 1220 1221
3 1221 1220 1142
3 1220 1214 1142
3 1214 1139 1142
3 1144 1221 1142
3 1223 1147 1215
3 1215 1147 1140
3 1224 1215 1216
3 1223 1215 1224
3 1216 1217 1225
3 1216 1225 1224
3 1222 1221 1226
3 1222 1226 1227
3 1148 1228 1144
3 1228 1221 1144
3 1228 1226 1221
3 1149 1228 1148
3 1229 1153 1223
3 1223 1153 1147
3 1230 1223 1224
3 1229 1223 1230
3 1224 1225 1231
3 1224 1231 1230
3 1234 1233 1232
3 1232 1233 1227
3 1232 1227 1226
3 1156 1232 1226
3 1155 1156 1226
3 1155 1226 1158
3 1158 1226 1228
3 1158 1228 1149
3 1235 1161 1229
3 1229 1161 1153
3 1236 1229 1230
3 1235 1229 1236
3 1230 1231 1237
3 1238 1230 1237
3 1236 1230 1238
3 1240 1239 1238
3 1240 1238 1237
3 1239 1240 1234
3 1239 1234 1232
3 1164 1239 1232
3 1163 1164 1232
3 1163 1232 1156
3 1241 1166 1167
3 1168 1242 1167
3 1167 1242 1241
3 1243 1242 1168
3 1243 1168 1161
3 1244 1243 1161
3 1235 1244 1161
3 1244 1235 1236
3 1244 1236 1245
3 1245 1236 1238
3 1245 1238 1246
3 1248 1247 1246
3 1238 1248 1246
3 1239 1248 1238
3 1169 1248 1164
3 1164 1248 1239
3 1249 1170 1171
3 1250 1249 1171
3 1250 1171 1166
3 1251 1250 1166
3 1241 1251 1166
3 1251 1241 1242
3 1251 1242 1252
3 1252 1242 1243
3 1247 1248 1172
3 1173 1247 1172
3 1253 1247 1173
3 1172 1248 1169
3 1255 1254 1249
3 1254 1170 1249
3 1254 1175 1170
3 1255 1249 1250
3 1176 1253 1173
3 1176 1256 1253
3 1257 1177 1178
3 1258 1257 1178
3 1175 1258 1178
3 1254 1258 1175
3 1176 1179 1259
3 1260 1176 1259
3 1256 1176 1260
3 1181 1259 1179
3 1257 1182 1177
3 1184 1182 1257
3 1258 1184 1257
3 1261 1184 1258
3 1260 1259 1185
3 1186 1260 1185
3 1262 1260 1186
3 1185 1259 1181
3 1261 1188 1184
3 1263 1188 1261
3 1265 1264 1190
3 1265 1190 1191
3 1186 1190 1262
3 1262 1190 1264
3 1267 1193 1266
3 1193 1263 1266
3 1193 1188 1263
3 1268 1267 1266
3 1194 1265 1191
3 1194 1269 1265
3 1267 1196 1193
3 1268 1270 1267
3 1270 1196 1267
3 1270 1199 1196
3 1199 1271 1201
3 1270 1271 1199
3 1271 1273 1272
3 1203 1271 1272
3 1201 1271 1203
3 1203 1272 1274
3 1275 1203 1274
3 1204 1203 1275
3 1194 1204 1269
3 1269 1204 1275
3 1273 1276 1272
3 1272 1276 1274
3 1277 1217 1218
3 1219 1278 1218
3 1218 1278 1277
3 1220 1279 1219
3 1219 1279 1278
3 1222 1279 1220
3 1280 1225 1277
3 1277 1225 1217
3 1281 1277 1278
3 1280 1277 1281
3 1282 1278 1279
3 1281 1278 1282
3 1227 1282 1222
3 1222 1282 1279
3 1283 1231 1280
3 1280 1231 1225
3 1284 1280 1281
3 1283 1280 1284
3 1234 1284 1233
3 1284 1282 1233
3 1284 1281 1282
3 1233 1282 1227
3 1283 1237 1231
3 1237 1283 1240
3 1240 1283 1284
3 1240 1284 1234
3 1285 1243 1244
3 1245 1286 1244
3 1244 1286 1285
3 1246 1287 1245
3 1245 1287 1286
3 1247 1287 1246
3 1288 1250 1251
3 1252 1289 1251
3 1251 1289 1288
3 1243 1285 1252
3 1285 1289 1252
3 1285 1290 1289
3 1291 1285 1286
3 1290 1285 1291
3 1292 1286 1287
3 1291 1286 1292
3 1253 1292 1247
3 1247 1292 1287
3 1293 1254 1255
3 1294 1293 1255
3 1294 1255 1250
3 1295 1294 1250
3 1288 1295 1250
3 1295 1288 1289
3 1295 1289 1296
3 1296 1289 1290
3 1296 1290 1297
3 1297 1290 1291
3 1297 1291 1298
3 1300 1299 1298
3 1291 1300 1298
3 1292 1300 1291
3 1256 1300 1253
3 1253 1300 1292
3 1301 1258 1293
3 1293 1258 1254
3 1293 1294 1302
3 1293 1302 1301
3 1299 1300 1303
3 1299 1303 1304
3 1260 1303 1256
3 1256 1303 1300
3 1305 1261 1301
3 1301 1261 1258
3 1301 1302 1306
3 1301 1306 1305
3 1304 1303 1307
3 1304 1307 1308
3 1262 1307 1260
3 1260 1307 1303
3 1309 1263 1305
3 1305 1263 1261
3 1305 1306 1310
3 1305 1310 1309
3 1308 1307 1264
3 1265 1308 1264
3 1311 1308 1265
3 1264 1307 1262
3 1309 1266 1263
3 1313 1312 1268
3 1313 1268 1266
3 1310 1313 1266
3 1309 1310 1266
3 1314 1312 1313
3 1269 1311 1265
3 1269 1315 1311
3 1312 1270 1268
3 1314 1316 1312
3 1316 1270 1312
3 1316 1271 1270
3 1273 1271 1316
3 1273 1316 1317
3 1319 1318 1275
3 1319 1275 1274
3 1269 1275 1315
3 1315 1275 1318
3 1317 1320 1273
3 1273 1320 1276
3 1274 1276 1319
3 1319 1276 1320
3 1321 1294 1295
3 1296 1322 1295
3 1295 1322 1321
3 1297 1323 1296
3 1296 1323 1322
3 1298 1324 1297
3 1297 1324 1323
3 1299 1324 1298
3 1325 1302 1321
3 1321 1302 1294
3 1322 1327 1326
3 1325 1322 1326
3 1321 1322 1325
3 1327 1322 1323
3 1327 1323 1328
3 1330 1329 1328
3 1323 1330 1328
3 1324 1330 1323
3 1304 1330 1299
3 1299 1330 1324
3 1331 1306 1325
3 1325 1306 1302
3 1325 1326 1332
3 1325 1332 1331
3 1333 1329 1330
3 1330 1304 1333
3 1304 1334 1333
3 1304 1308 1334
3 1335 1310 1331
3 1331 1310 1306
3 1331 1332 1336
3 1331 1336 1335
3 1311 1334 1308
3 1311 1337 1334
3 1335 1313 1310
3 1339 1338 1314
3 1339 1314 1313
3 1336 1339 1313
3 1335 1336 1313
3 1340 1338 1339
3 1315 1337 1311
3 1315 1341 1337
3 1338 1316 1314
3 1343 1342 1317
3 1343 1317 1316
3 1340 1343 1316
3 1338 1340 1316
3 1318 1319 1342
3 1343 1318 1342
3 1344 1318 1343
3 1315 1318 1341
3 1341 1318 1344
3 1342 1320 1317
3 1320 1342 1319
3 1345 1326 1327
3 1328 1346 1327
3 1327 1346 1345
3 1329 1346 1328
3 1347 1332 1345
3 1345 1332 1326
3 1348 1345 1346
3 1347 1345 1348
3 1333 1349 1329
3 1349 1346 1329
3 1349 1348 1346
3 1334 1349 1333
3 1350 1336 1347
3 1347 1336 1332
3 1348 1352 1351
3 1350 1348 1351
3 1347 1348 1350
3 1354 1353 1352
3 1348 1354 1352
3 1349 1354 1348
3 1337 1354 1334
3 1334 1354 1349
3 1350 1339 1336
3 1340 1339 1350
3 1351 1340 1350
3 1355 1340 1351
3 1356 1353 1354
3 1354 1337 1356
3 1337 1357 1356
3 1337 1341 1357
3 1355 1358 1340
3 1340 1358 1343
3 1358 1360 1359
3 1344 1358 1359
3 1343 1358 1344
3 1359 1361 1344
3 1361 1341 1344
3 1361 1357 1341
3 1360 1362 1359
3 1359 1362 1361
3 1363 1351 1352
3 1353 1363 1352
3 1365 1364 1363
3 1364 1351 1363
3 1364 1355 1351
3 1365 1363 1353
3 1356 1365 1353
3 1366 1365 1356
3 1356 1357 1366
3 1366 1357 1367
3 1364 1368 1355
3 1355 1368 1358
3 1370 1369 1360
3 1358 1370 1360
3 1368 1370 1358
3 1370 1367 1369
3 1367 1361 1369
3 1367 1357 1361
3 1369 1362 1360
3 1362 1369 1361