OFF
696 1352 0
1.1975664714 4.8952892406 5.9450122702
1.2847503767 5.1389675239 5.0098023861
1.6205670422 4.3592351860 5.2531150173
1.6851338793 3.9670875799 6.2926004335
1.2113884867 4.7556998692 7.0067294673
1.7888306075 3.9156918488 7.5487075934
1.3095710423 4.7914250283 8.0145162709
1.7068554531 4.2882388759 8.3187491561
0.9267159934 5.8903789941 5.6485323637
1.1149804667 5.8188967702 4.7878973667
0.8757539782 5.6711685260 6.7255936030
0.9319781610 5.6188709254 7.7759977154
1.5932416089 4.7692270861 8.8367595271
1.1452409262 5.6159806995 8.8338523412
1.4724315743 5.3187096168 9.3556455545
0.9414241473 6.6679997461 4.9502580001
1.1928280522 6.9385777708 4.1039599668
1.2039018536 6.1856828857 4.3100079719
0.7516082240 6.8440939646 5.8327907502
0.7065386617 6.6477851737 6.6200500767
0.7114092483 6.5669827249 7.6294390027
0.8280152676 6.5586808918 8.6858755782
1.3090601325 5.8295922060 9.6050932020
1.1163796578 6.5634612767 9.7600749138
1.4488130252 6.1242529109 10.1344199250
0.9497202716 7.6880119962 4.7042381164
1.2231335337 7.8833636620 3.9128255654
0.7653312636 7.6271462355 5.6019940131
0.6619269869 7.6166528448 6.5544516604
0.6277704364 7.5696733825 7.5533216068
0.6656831861 7.5450855017 8.5920322198
0.8227851862 7.5524217014 9.6320145314
1.6268943162 6.6536083485 10.7542009373
1.1550022582 7.5908011846 10.6832759458
1.5737312114 7.3459191288 11.2663890872
1.0309134843 8.5772744755 4.5163880241
1.2965546989 8.7717432140 3.8491995234
0.8497303127 8.5314785004 5.3762107443
0.7286034695 8.5705250735 6.3906627504
0.6525193731 8.5987871517 7.4711968447
0.6293692767 8.5649412421 8.5345544298
0.6921706170 8.5140527856 9.5268119165
0.8790851358 8.5158507449 10.4610010562
1.3820385813 7.8798863050 11.3936415840
1.1791153052 8.4976664919 11.2729881456
1.5644028601 8.2289600065 11.7899075400
1.1693471843 9.2198512576 4.3543448932
1.3488054418 9.3457621525 3.9750446663
1.0366050205 9.3246526815 5.0724365274
0.8947896377 9.4223555508 6.0900841593
0.7933249976 9.6882088596 7.3048459624
0.6883133282 9.6333524710 8.4784647960
0.6914051532 9.5182699034 9.5064663403
0.7780276236 9.3083626710 10.2716517828
1.0158291456 9.4985142120 11.1109934270
1.3957458831 9.1222083246 11.8139554652
1.4069977474 9.9839785206 4.4872505610
1.1482622402 10.1497293740 5.7011229681
1.0098430958 10.2729877555 6.7013435036
0.9366361913 10.5844993983 7.4928627314
0.8152024207 10.7901219520 8.4100585431
0.9969979506 11.3379419459 7.7933217209
0.7562056184 10.6115823678 9.5002189190
0.8604570056 10.3511146470 10.5158904047
1.0701919210 10.4516638668 11.3088098872
1.2212919248 10.0246513882 11.6696371031
0.8992041613 11.9777803457 8.6033399736
1.0711757473 12.2423665861 7.8258526043
0.8262233000 11.7247421201 9.4697746550
0.8957577211 11.5203059097 10.3762335842
1.0728388880 11.3030994826 11.1615028531
0.9900614402 13.0105737476 8.5060104993
1.1281590502 12.9629563533 7.7531047179
0.9055029205 12.7575776474 9.4037892680
0.9557460841 12.5599145882 10.2549676282
1.1211616543 12.3412535622 11.0178895847
1.1423787230 13.5775870242 7.9787738406
1.3605717372 13.9167084571 7.5078652087
1.2779696170 13.3407177279 7.3690487096
1.0859124608 13.8028352683 8.5905610076
1.0316144772 13.6416035570 9.2699554243
1.0539746197 13.4613853051 10.0823812575
1.1995311390 13.2959014948 10.8245185890
1.3020604566 14.2614048667 8.1884346069
1.2535334232 14.3603637089 9.0341542369
1.2504104648 14.2318120382 9.8858154544
1.2884754426 13.9902735902 10.5561308809
2.1010957541 3.3402183983 6.9200405434
2.2695739101 3.2192139414 6.2175015002
2.4359879494 2.9739856776 6.7480138556
2.7124509991 2.8843487260 7.3776919783
2.1830147005 3.3321314084 7.4463836283
2.4473661854 3.3397021197 7.9871356709
1.7104071843 4.7601395300 4.4248957098
2.1994223694 4.4431099479 3.9741787782
2.0315482325 4.1092221466 4.6765288862
2.1188232564 3.6582509121 5.3896100865
2.3177079930 3.8238150153 8.6163300452
1.8901729323 4.2823244978 8.7232872273
2.1636538535 4.3420835880 9.2066010565
1.9048521665 5.2909867189 3.6275711124
2.3736983723 5.2180374229 3.0288535523
2.2806287781 4.8038722057 3.4557703596
1.4232707251 5.5183339472 4.2620106977
1.9122119931 4.9011339927 9.5873282518
1.7120657709 5.5352689182 10.0044699561
2.2600695798 5.0424779997 10.2296701006
2.1423262732 5.5433144094 10.5576899306
2.7017919527 5.1675369588 10.7617569143
2.0405904944 6.2205570399 2.9335018019
2.5894621687 6.5524544250 2.1843326531
2.5823128743 5.7041816391 2.4886748334
1.5203890715 6.1969010932 3.7070577721
1.8173720735 5.9805158368 10.5327115049
2.4460769036 5.9622114012 11.1223847611
2.0556905110 7.3984497088 2.6200257252
2.7693500222 7.7514055126 1.8737120598
1.5621083744 7.1379929860 3.3562175842
2.2686297237 6.8695419441 11.6060011393
1.7294390133 7.6255996065 11.6720308362
2.0475622321 7.7000293515 11.9921957498
2.1084861034 8.4671512569 2.5533662010
2.6109275772 8.7897534712 2.1049085971
1.6087658910 8.1778182309 3.2184704104
1.8090558671 8.4241537412 12.1311612604
2.2597344792 9.2532619048 2.5478851197
2.8573868346 9.5954961063 2.2125985104
1.7312686736 9.3172936481 3.3436650957
1.6544104952 9.0194449507 12.1447553083
1.3967936582 10.0057619035 11.9619402814
2.2940165493 9.9758768738 2.8655618325
1.9377110673 10.3955539730 3.6553249391
1.7541638414 11.0704708830 4.5420549532
2.2447838108 11.2678499335 3.8012577584
1.4224029336 10.9510899048 5.4630933272
1.2209369991 10.9329974245 6.4086208571
1.0851308105 10.9281947306 7.1258618627
1.2701322846 10.9207504403 11.7356167623
1.3745915892 10.8639849295 11.9578336903
2.0206875174 11.9906392463 4.6112917212
2.6562646392 12.1557910010 3.9346805003
1.6454727499 11.8353189160 5.4066449956
1.3969822152 11.7361149702 6.2719305204
1.1928144675 11.6142357659 7.1028232851
1.3039528942 12.0252463401 11.5916835384
1.3867638554 11.6397835780 11.8670224111
2.2306800556 12.8559479363 4.7201391362
2.7537269928 13.0685263193 4.3417739930
1.8208208989 12.7427408418 5.4642362487
1.5453756437 12.5003983536 6.1529637815
1.3097991554 12.5734252925 7.0249721601
1.4295808138 13.0990321540 11.4393282940
1.5225361680 12.7077285633 11.7619401692
2.3685481093 13.4479754766 4.8015821066
2.0871752929 13.6371386680 5.4324008745
2.3552924912 13.8080198718 5.0368103337
1.6148090303 13.5301665428 6.5833733364
1.5588518889 14.0332721765 11.1421341547
1.9712138596 13.9992913887 11.7156502449
2.4903919655 14.2639379355 5.3648374489
2.1194239547 14.5638601248 6.2852766550
2.4837916892 14.7813323959 5.8454617120
1.7018539654 14.6654203978 7.4834030806
1.6029079706 14.9828106006 8.6211458953
1.5890839048 14.9656292106 9.6418592460
1.5987370864 14.6595134825 10.5377189145
2.0882550805 14.8856990835 11.2761457555
2.7075515603 14.7632071276 11.9121098110
2.7236724418 14.3745368385 12.1576802721
2.6529100487 15.2615091133 6.2760876508
2.2468978786 15.3974831511 7.1149024795
2.7296477542 15.7980781595 6.9047501224
2.0724643288 15.6028817524 8.1382054451
2.0467675917 15.6995531928 9.2470912143
2.1087760265 15.5122677952 10.4005629171
2.4204775511 15.5579762087 11.1334519352
2.6059194185 15.3135396051 11.5519817758
2.6269859932 16.0680045228 7.6496226318
2.6006428770 16.3884041874 8.7082604489
2.6667500161 16.3300303373 9.8757842807
2.7428195899 15.9977712394 10.7861707279
2.9354302188 2.6254252854 6.5115104315
3.2371984352 2.5250662123 5.7201408817
3.8283469348 2.0908574986 6.2311319742
3.5800475454 2.2165415850 7.0260784176
3.1650887674 2.4754101947 7.1886888435
3.6828103812 2.3774719671 7.7743049061
2.6615068375 3.5683478193 4.5058852901
3.2288949940 3.4409857700 3.8499896751
3.2148263391 3.0795139457 4.4068129587
3.2010187135 2.8186003657 4.9697401497
2.7022865644 3.0222138437 5.5445177337
3.2747499743 2.9470878999 8.4213704168
2.7683369101 3.3430800441 8.5295419949
3.1711568687 3.3917257854 9.0663879365
2.7478879316 4.3003083362 3.4086674317
3.2701149415 4.2468390075 2.8460009596
3.2401557508 3.8268421610 3.3089176178
2.9523311815 3.9284366180 9.6029099218
2.5092101714 4.5019609393 9.9010990884
3.0744335942 4.2865587636 10.2329978964
2.7677145320 4.6887937960 10.4121541303
3.3543769997 4.5850983825 10.7245137988
2.8845981456 4.9615977258 2.6382088013
3.2383034484 5.4947702031 2.0120936388
3.2764214632 4.7512038548 2.4004201720
3.4048200765 5.2383013206 11.2647589439
3.1854011743 6.6571738981 1.6044944811
3.1287104644 5.8683866533 11.5752418557
2.7891817591 6.2504818349 11.6085732525
3.4037181477 6.2097371600 11.9225575293
3.3444561895 7.3203846104 1.3783146162
4.0035278058 7.4053257835 1.1294584073
3.7107275506 6.7641802251 1.2268256100
2.7468571303 7.0312222761 12.0658837205
2.1616714611 7.9181402215 12.2078538093
3.4145403561 7.9130585538 1.4028778798
3.3938317180 8.7706348359 1.6926554223
1.9155121570 8.4654938912 12.2643623153
3.4650795579 9.5415869090 1.9228369373
2.8445021286 10.4552017281 2.6421192410
3.5057705571 10.1708010368 2.2082709291
2.4091001261 10.6915185844 3.1695966255
3.3408109176 10.8289388932 2.6137453216
2.9089874865 11.2634825470 3.1575105673
3.8030559385 11.3203263827 2.8911557296
3.3475209371 11.9176223228 3.3997208029
3.4192054226 12.6178072168 3.8446231578
2.7090191211 13.7401718246 4.7458756422
3.4500964416 13.4664873459 4.3491862800
3.1655109719 14.3321370029 12.3515201537
3.6614554133 14.3046317467 12.3597583082
3.2317175348 14.4752050159 12.2663473150
3.1532094033 14.1897242893 4.9284362213
2.9421192052 14.7917066950 5.5517852798
3.8240728775 14.6226491989 5.2214180082
3.4018714326 14.8153665396 12.0787042596
3.4170997627 15.2932322077 5.9175203024
3.1268563109 15.7293570773 6.4830166093
3.8103741466 15.7801338993 6.4073140576
2.8354542975 15.7085131360 11.3399905034
3.2255994530 15.3489543894 11.7213666533
3.3399527287 16.1692097436 7.1191968822
3.1605041373 16.6084280096 7.9986530496
3.0826750025 16.9637370875 8.6638919717
3.5773827982 17.0125839058 8.2649929628
2.9810709758 16.8778827359 9.3508717062
3.2410249101 16.7899496452 9.9387501887
3.2971594359 16.4320833617 10.4890676998
3.3979275800 15.9375638671 11.1947807972
3.3620431296 17.1833536567 8.5963800565
3.8367286820 17.1980732256 8.4297375430
3.1623014725 17.1301466024 9.0899604653
3.4354808117 17.0401320658 9.6923582825
3.8139642707 2.6927792997 4.3355135809
4.2611576046 2.7550062156 3.5698960942
4.7540851093 2.2725511021 4.0514505416
4.5301265892 1.9194649569 5.3104864980
3.6935993089 2.3449666597 5.3163162867
4.5654641435 1.6615247688 6.3497050758
4.5717052476 1.7984812524 7.3359927220
4.5476851786 2.1264398638 8.2314728926
3.7625006833 3.4134211062 3.2422174755
4.3048547017 3.3777550034 2.6902502335
4.2652358281 3.0098963033 3.1430529206
4.2603495173 2.5170600468 8.7070600649
4.0951877184 3.0325462682 9.3967510216
3.6625182223 3.4921499875 9.7234028932
4.2268105481 3.4034419920 10.0580658481
3.8193960221 4.2694130557 2.3183938513
4.4682515725 4.1512521343 1.8407942299
4.3598356030 3.7619237502 2.2348432125
3.7698512233 3.9188493989 10.3184588614
4.4274861018 4.3884005600 11.0508132468
4.0675426581 4.9869306951 1.6183019395
4.5928979327 5.3442339909 1.1700814760
4.6759805354 4.6210498114 1.3984274619
4.1881627219 5.1383378137 11.5655080758
3.6927307673 5.6082502651 11.7017051017
4.3711077405 5.5715555030 11.9053853238
3.8335608056 5.9552377188 1.3679268652
4.5104805308 6.3616851783 1.0170149111
4.4445387147 5.9651037604 12.1880355213
4.8415733692 7.1058930915 0.9613873110
3.7873954217 6.3547998791 12.2041798094
3.9118798448 8.1792802221 1.2914899622
4.7495614151 7.9496987114 1.1558881468
4.2943242054 8.6569634239 1.4418225402
4.2742718813 9.4945215264 1.8498420347
4.1753847245 10.2881964911 2.2045698938
3.8299763773 10.7189039138 2.4416480079
4.4718099845 10.7713785276 2.5354801909
4.7971816133 11.3801795527 2.9978762255
4.1562985129 12.0610609940 3.3989274696
4.3821738372 12.8723713584 3.9485416201
4.1912179102 13.5728341173 4.3693792662
3.7900609423 14.0061249040 4.6685096509
4.4932782672 14.0169570594 4.7534484999
4.3958351597 14.2042017046 12.2636441727
3.9291291911 14.4828055391 12.2161456574
4.7833570128 14.5366847524 5.2446673699
4.0125201736 15.0259871702 11.8823083575
4.4942245946 15.2082224523 5.8588596309
4.5111625464 15.7707955233 6.4652159162
3.7846906936 15.5452504502 11.5972425077
4.1563183879 15.4092522253 11.6208432163
4.1079052572 15.7570128210 11.2824035385
4.2180402672 16.1351327770 6.9504984668
4.0278657419 16.5815950998 7.7379897762
4.2139347231 16.9851585731 8.3581821068
3.8947754690 16.2357233016 10.7959418038
3.9580566409 16.7341458131 10.1233368026
4.2948236650 17.1794650723 8.6560697102
3.9370377479 17.0581777893 9.8087009881
5.0593892806 1.4759583979 6.0934589702
5.2596013696 1.5964248832 5.5159775865
5.5196440259 1.4596391570 6.0309574556
5.6187011388 1.3620734509 6.7123537861
5.0480145758 1.4208102048 6.8234456459
5.5166763919 1.3360800725 7.2197230922
5.1716391149 1.4356755087 7.2910330171
5.6824488322 1.5395989492 7.7611655111
4.7873554036 2.7220166884 3.0882239213
5.3726671919 2.6274042395 2.6563303400
5.7475718793 2.1576100175 3.3560818993
5.5138977759 1.8645761290 4.6975826762
5.4001422537 1.9195125675 8.4215162107
4.9546009906 2.2360960985 8.8130949258
5.4982763018 2.2064393585 9.1128423333
4.9394141557 3.3060917665 2.2227676340
5.6826909434 3.2832337356 1.7625869264
5.6036162262 2.8252958115 2.2052386228
5.0821122843 2.6020715957 9.4528277462
4.8943269448 3.1611939734 10.1028045974
4.5586079172 3.6511959607 10.5053411882
5.3252230164 3.6256250891 10.7068053071
5.1281919536 3.9630262607 1.5572251874
5.2971392598 4.6172049932 1.1543386900
5.8788953801 3.8597521311 1.3064475337
5.6806860102 4.2687212544 11.2366435390
5.4045852920 5.4387681708 0.9377914795
5.0466020081 4.9548228603 11.6330376016
5.4103033409 5.5518301423 12.0390510184
5.5383571999 6.3493490421 0.8899496372
5.1089793334 5.8857433445 12.2670179207
4.4727793689 6.0979443366 12.3083626192
5.6615812361 7.2783005491 1.0197927028
5.5131825757 8.0204012444 1.2075970627
5.3394380863 8.6738002772 1.5605633096
5.3106433457 9.4677229926 1.9964353917
4.8886098908 10.1058388799 2.2291108362
5.4355655059 10.6018001395 2.6827675693
5.6617350156 11.2746687224 3.1363396130
5.3436417261 12.0310208068 3.5649775426
5.2737831933 12.7944653228 4.0453074854
4.9258614167 13.3817404706 4.3694970916
5.5620540595 13.8112840110 4.9194769800
5.0700081220 13.9752424692 12.1672644173
4.8947363151 14.3662181297 11.9643412836
5.4392248344 14.4942174898 5.4241453496
5.0431836614 14.8322571714 5.5695060461
5.5456575237 14.9100852276 5.9379583732
4.6433089869 15.1818078971 11.5077318055
5.2028903987 14.6777122252 11.5829629103
5.2858419718 15.0769677545 11.1424969296
4.8422860185 15.9445195471 6.8639499897
5.2535581523 15.5056700560 6.5454697141
5.3281706354 15.8423571523 7.1660281528
4.6757075745 15.9098873021 10.7153743047
5.3022677151 15.4857095364 10.6876650018
5.2957764657 15.8433033104 10.1556958867
4.8364213676 16.2021620711 7.4456710011
4.6291811392 16.9047190592 8.9770863089
4.9141863485 16.4579565865 8.3267680266
4.7234809917 16.5351349792 9.8056206095
5.2197313419 16.2642621987 9.2910832363
4.4616890976 17.1582271605 9.0289728701
4.3732609066 17.0038115867 9.5457966699
5.7996440739 1.7275834567 5.6153819449
5.9613247675 1.6230836380 6.4029744059
6.1677811698 1.5050837669 7.0517098359
6.1625226517 1.4181102048 7.5223383305
6.5582434260 1.6328473322 8.0407291359
5.8931008280 2.4442263663 2.5297404472
6.2315922484 2.7319810712 2.0287940747
6.5925882954 2.2336762560 2.5687920015
6.9019065497 1.8453051066 3.3101196399
6.3098978969 1.9073633461 4.1047182753
6.3465893121 2.0760333257 5.0402367793
6.6129234423 2.7790740522 5.5947505677
6.3085572863 2.2565638375 6.1369640096
6.4160034919 1.9337331978 7.0038387482
6.4480250833 1.8259376061 8.4010592407
6.1252371068 2.0919992545 9.1069216561
5.8515584903 2.4119366135 9.5701809282
6.4988441874 2.4783654263 9.7338311200
6.4337619582 3.2289279625 1.5292325325
6.5618786812 3.2511927695 6.3257493782
6.7367310790 3.6908904389 5.8071170453
6.6091605296 2.7811840145 6.9775154999
5.8747826283 2.9466482562 10.1599011252
6.3208825213 3.6311533616 10.7981388975
6.2538170090 4.5011418508 1.0034902698
6.5639748359 3.7220672041 1.1991461777
6.6479647394 4.2602536715 6.3989044346
6.7917762755 4.6675141270 5.8941777729
6.7239366770 3.8421394846 6.9695359426
6.6818858466 4.3035410103 11.2195939471
6.3743021818 5.4432590866 0.8862365872
6.6959357006 5.1930314253 6.4060027938
6.8473554607 5.5719204157 5.9728761064
6.7765962508 4.8638759269 6.9364314147
6.1304592666 4.9396708289 11.6381396888
6.6234933540 5.7051835433 11.9195695353
6.6082229160 6.3559235139 1.0056898470
6.7619190960 5.8545428310 6.3870724924
6.9332767487 6.2119667452 6.1620318271
6.8336063084 5.7410017613 6.8244862677
6.0139288880 5.8687013262 12.1784662041
6.4880408687 7.1555399253 1.1668618787
6.1072794259 7.7625453296 1.2588539534
6.7449359719 7.5092660602 1.4203239999
6.9262388908 6.2919236234 6.5718774972
5.8462308496 8.2053123056 1.3746778658
6.4801317925 8.1978341794 1.6867596795
5.6740819910 9.8602863249 2.3361170792
6.3511232815 9.0827043875 2.2021655080
6.3113606310 9.9846687167 2.7041812973
6.2219894254 10.7047628314 3.0488900965
6.2168774258 11.2190592744 3.3202306293
5.9404041429 11.5561724625 3.4096880558
6.4965574747 11.6004130477 3.7613799825
5.6381013706 13.1140391322 4.3897319206
6.0098379499 12.4895827336 4.1075143411
6.3030721481 13.0358265094 4.6363408357
5.8737322060 13.5867775817 11.9900099201
6.7877072324 12.5555034945 12.0601692095
6.6841114353 13.1178898834 11.7883785258
6.5430279409 13.5357146939 5.1495330052
5.8996012586 14.1896903480 11.4685258128
6.9159747292 13.5987884139 11.1477475956
6.3878935073 14.3218372488 10.9032925902
6.2947066691 14.1881546464 5.6408614061
6.2890308124 14.7079019503 6.2527274748
5.8607278324 15.0074279157 10.6246615904
6.3775097235 14.6199666080 10.5484844492
6.3744225963 14.9009985304 10.0578132390
5.9647040573 15.1164220568 6.5521660039
5.5492307728 15.9114626988 7.8640929319
5.9962044217 15.4016587267 7.2782347760
5.7229679739 15.8573660698 8.7839978164
6.2498516006 15.3984942219 8.2790008027
5.8308540878 15.5586219880 9.7082961274
6.3503288211 15.2330311672 9.2173668305
7.4588760345 1.6671534734 3.4738704933
7.5650380063 1.6192806159 3.0817266959
7.8318468038 1.5497827122 3.2515388764
7.8691254433 1.8357693581 3.6185152850
6.6422077757 1.6403838560 7.6891706742
6.8527604020 1.6124148000 8.1866544737
6.9893275938 1.7073920145 8.1801540091
6.8770110693 1.7388850608 8.4359191682
7.1118405085 1.8793273807 8.7501272802
7.2252266833 2.7380186590 1.8356628029
7.5550458202 1.9657522527 2.5803504704
7.1080543780 2.0256245806 4.1541304342
6.8801626910 2.4942572257 4.9379938860
7.3620663440 2.7222082413 4.5822916307
6.7827527434 2.1587535809 7.8198894178
6.8660063323 1.7379838789 8.0841633114
7.0426655978 2.0229788717 8.3256489088
6.8553605624 2.0804418065 9.1125444162
7.1043605797 2.6365435645 9.7575567243
7.0173901850 3.3275040960 1.3529572339
7.1927625241 3.9104942598 1.1073224800
7.5407096477 3.3238413474 1.3675933572
7.0104965589 3.1898590932 5.1930144451
7.4889394368 3.5865540737 4.7562652977
6.9602494644 3.3664753647 7.6229798802
7.2430684809 2.9433864248 8.2684054062
6.8366066210 3.0973748569 10.2871134372
7.2383981130 3.8389421068 10.7695160041
7.0333428181 4.6979341840 0.9455869232
7.0843906353 4.1253143818 5.3289111574
7.5428501067 4.5960250454 4.8380293346
7.0307042056 4.4681645979 7.5526091979
7.3466951128 4.0281935908 8.2257344797
7.2627330770 4.3571760305 11.1183185514
7.3650992522 5.3640789268 1.0003120953
7.1322849382 5.1353751850 5.4198061951
7.5813503639 5.6364161619 4.9223207367
7.0790490489 5.4936640699 7.4462916993
7.3937371284 5.1111785777 8.1664797798
7.1753983206 4.9972945376 11.3755244473
7.2980171667 5.7551104581 11.6380091528
7.4506655022 6.0581169980 1.1407391824
7.2251616765 6.1728902147 5.6023513232
7.6622320646 6.5649570605 5.0332562105
7.1826257984 6.4495374961 7.1663100231
7.4491986557 6.1375040949 8.0214733042
6.8289796640 6.3390503989 12.1123623366
7.3156706981 6.5569556521 11.8418781223
7.3472852973 6.7481714114 1.4050842761
7.2617699470 7.5714200909 1.7752914335
7.5075612037 6.9369630085 5.5314095799
7.7367229349 7.1295967421 5.1996608240
7.2900313511 6.9000776027 6.3167801892
7.4489383762 7.2183137321 7.1268325492
7.5628577282 7.0332282561 7.8065112817
7.3104943937 7.2365743644 12.0911900075
7.6014731686 7.7239186733 11.8572915936
7.1954696753 8.1066833655 2.0465633480
6.9079960839 8.4774249551 2.1043957339
7.4712377133 8.4796268255 2.5365806967
7.8352482782 7.6932413316 5.6794625138
7.6955545265 7.7908416216 6.7871187373
7.7038190744 7.6740412848 7.5251845082
7.5241998246 8.3084117255 12.1108254316
7.7220503862 8.8485756103 11.9157956779
6.9186893853 10.2364876091 3.1920754986
7.1174967166 9.4365411409 2.8648277151
7.5227332622 9.8188074083 3.3770955747
7.5818264017 9.3943606206 12.1448939477
7.7251987025 9.9334196201 11.9803529863
6.6850927076 10.8846205580 3.4065160573
7.4223832269 10.6771665264 3.8336238251
7.5188195554 10.4631039311 12.1604986167
7.6210874086 10.9931529301 11.9818391663
7.2863242187 11.5896807031 4.2866898949
7.2933466526 11.5226454165 12.1294086455
7.3397271420 12.1074884114 11.8879919643
6.8179399477 12.2997821472 4.4161523687
7.0130278593 12.9116124777 4.9946767001
7.2908778090 12.8217145326 11.5525704463
7.0442159660 13.4027264739 5.3915408527
6.7857775347 13.7446278588 5.4749239099
7.0614823951 13.7403167549 5.8185040570
6.8421881684 14.2557514230 10.4040356049
7.5622197160 13.5614587479 10.2896766723
7.2925460650 14.1281089578 9.8456946221
7.6705251095 12.9567716878 11.0193279063
6.5677756788 14.8276179878 6.8922317787
6.8749521212 14.2792183284 6.3718270418
6.7584588738 14.8901278585 7.7693554190
7.2097221285 14.3079759600 7.2133971796
6.8641326988 14.8291125253 8.7259759131
7.3617349101 14.3213451778 8.1980542904
6.8731576943 14.6278902513 9.6069600685
7.3563478824 14.2793586092 9.1355354205
8.0120097071 1.6171845954 2.9218942947
8.1436812463 1.6067101108 3.2198753455
8.3806803381 1.9324025801 3.3333030833
7.2147642906 1.9702364734 8.5977251202
8.0132012158 2.4045005974 2.0685959741
8.3104442024 1.9404717058 2.5443027823
7.7215059223 2.3425669791 4.0857466710
8.2271714051 2.4635751162 3.7548347583
7.4331010616 2.6526626564 8.7952574450
7.3655872060 2.4755747106 9.2510708756
7.8525485163 3.7220728694 1.2296976205
8.1245789094 3.2221748631 1.5690742442
7.9135913491 3.0479863606 4.2193599471
8.4897060113 3.4383559440 3.7603264682
7.5980283493 3.6060765564 8.9064321876
7.6482530607 3.2294168080 9.3955069508
7.5613113940 3.3935077053 10.0813479430
7.7870942064 4.4250422695 1.0792318172
8.2072132449 3.9870460842 1.2692023145
8.0117199943 4.0413713879 4.2834026209
8.4706508700 4.6164705080 3.7955102472
7.6726944364 4.6966288435 8.9543578014
7.8302091594 4.2308456244 9.8587145016
7.9216485102 4.0207108751 10.3693450360
7.7776098779 3.9491352806 10.5891597650
7.6781324447 4.3995441011 10.8694109782
8.0316649115 5.0024454277 1.1398962643
7.9413392597 5.6268857014 1.2363604729
8.3524506180 5.1207906076 1.3686677404
8.0230588637 5.1213574834 4.3334243159
8.4150296603 5.7185646662 3.8341557961
7.7130331740 5.8010380335 8.8629330436
7.8555864220 5.4586545115 9.7775265636
7.9324847075 4.3976225428 10.5250034333
7.7621157899 5.1638346404 10.7437868158
7.5252664837 5.4890014592 11.3338568301
7.7968928687 6.1348132419 1.3273065329
8.2242241029 6.0380542569 1.6989551134
8.0258434072 6.1700454228 4.4371746669
8.3621725039 6.7698553628 3.9816519576
7.7932409677 6.8343906174 8.6557262712
7.9423746117 6.5971688632 9.6157786946
7.8881637335 6.3101291896 10.5688573667
7.6395225698 6.0595870742 11.3070133288
7.6537920708 7.7591804579 2.1933883319
7.9258712789 7.0272558951 2.0361460757
8.1080422471 7.5895215284 2.6442872476
8.0448093258 7.1747662132 4.7410739811
8.3702645297 7.6534049282 4.2695382437
7.9031877057 7.7114313611 8.2656538158
8.1218190132 7.7121743611 9.3019242262
8.0856460486 7.5183924723 10.4331496736
7.7781735378 7.0773009461 11.2913312529
8.1201604011 8.3059645348 3.1036739630
8.2640669412 8.1208504387 4.9507763571
8.2506640822 8.6439397292 5.6913407145
8.4472482181 8.8676049964 5.1955642839
8.0698231595 8.5527579861 6.5322493707
8.0308598663 8.4244233068 7.5956441137
8.2305409470 8.4857392332 8.6380033710
8.3838945918 8.5507760877 9.3774004338
8.3591748806 8.3283652928 10.0200998650
8.2894190950 8.3897417362 10.6588446535
8.3282888626 9.0624005075 10.9377783625
7.9932239582 8.2861627431 11.3017157820
7.8356145705 9.0920533822 3.2269499238
8.0128554506 9.7566175796 3.8223238057
8.4712951652 9.2545947586 5.7176500817
8.5669704169 9.7792183645 6.1612295521
8.3818686452 9.2720517489 6.3503848175
8.3341335923 9.2801953103 7.2432252246
8.3895026420 9.2349225383 8.1929605058
8.5036838843 9.1974323440 9.0594179754
8.0342507954 9.4234746511 11.5349108797
8.3623663525 9.9723840016 11.0434445119
8.0976582855 10.4143206458 4.3229206070
7.9297393282 11.2466547221 4.6884047762
8.3404381273 10.6831264263 4.8497898556
8.5688354753 9.9888736125 6.9661240754
8.5869199657 10.0041924138 7.9353613655
8.6135761879 9.8397465693 8.7211262770
8.0154404198 10.4565080840 11.6017334435
8.3479274793 10.9245820494 11.0656259981
7.5034441976 12.1733955006 4.9010149111
8.3384652599 11.2570739983 5.2713146229
8.0908414112 12.0413658272 5.5663614202
8.4587580909 11.5897231629 5.8272172354
7.9204238549 11.4502022553 11.5732666949
8.2665617760 11.7997480998 11.0145716664
7.5301951518 12.9856030971 5.6494648111
8.3940341612 12.1522694465 6.2572912067
8.0747098917 12.8671016204 6.5214929354
8.4486740661 12.4577829548 6.8379614967
7.7974261161 12.2960647024 11.4127217915
8.1242340357 12.4491111842 10.8912369136
7.4952859390 13.6659043770 6.5098452074
8.3035015771 12.9449157872 7.3230137279
7.8518097737 13.6132047815 7.5301237386
7.8323624650 13.7629173301 8.6787486425
8.2764129263 13.1147076882 8.1616363030
7.6813760716 13.8141772262 9.5073555828
8.1491589608 13.1727097140 9.3149434691
8.1460501312 12.8186129534 10.2886152994
8.3658254455 1.6998423277 2.9854492790
8.4182586030 2.5156860349 2.0256209868
8.5575553904 2.0561304741 2.4803746120
8.5635365843 1.9606500410 2.9473581892
8.6678923404 2.6593085120 3.4335099065
8.4648347263 3.2781370771 1.6435306946
8.8767918320 3.4064766789 3.4419604198
8.9454614156 3.2290102817 3.3761141770
8.9982444069 3.8242235205 3.3161731973
8.2765659575 4.5309173062 1.2247013793
8.4533810215 4.2205999992 1.4281486075
8.8361306347 4.1801434693 3.4250967059
8.9480999368 4.6935445277 3.1533982024
7.9442797195 4.1868249627 10.6259845710
8.5392156612 5.3082441513 1.6440212766
8.7419347783 5.3423991421 3.2552467632
8.8245890476 5.5583290187 2.7700373259
8.6448775676 5.8336979896 2.1632668050
8.5332757311 6.4109878260 2.6497574912
8.5766912374 6.3518282877 3.4020740611
8.4413513825 7.5639512081 3.4905216185
8.3073948420 8.8475767282 3.7454904164
8.4739694823 8.6409944632 4.4676874303
8.5448453961 9.0590955966 9.8210781530
8.4720569252 8.8536850110 10.3965444302
8.4188678440 9.8116660534 4.5621548633
8.5744092452 9.6781682983 5.4154857438
8.6769008997 9.9487817688 9.5905640425
8.5612637717 9.5440772389 10.3977021552
8.5565447838 10.7650104913 5.5516045989
8.6733363536 10.6405922437 6.5415926583
8.7262665890 10.7980252796 7.7315497561
8.7469290490 10.6835352137 8.8550425923
8.7461922214 10.8091025471 9.7938550650
8.6165510928 10.4308655403 10.4166990959
8.6088703088 11.6962882353 6.5745607014
8.7182389027 11.6461902452 7.5678594187
8.7467971935 11.6213388640 8.6228134223
8.7221184590 11.5266246046 9.6056694094
8.6023457601 11.3058896410 10.4122231946
8.5573513371 12.4328001693 7.4983477945
8.5741102166 12.4432491494 8.4619204012
8.5456041231 12.3405909926 9.4758645356
8.4741709948 12.1002833919 10.3348657158
3 2 1 0
3 4 3 0
3 0 3 2
3 6 5 4
3 4 5 3
3 6 7 5
3 0 1 8
3 8 1 9
3 0 10 4
3 0 8 10
3 4 11 6
3 4 10 11
3 7 6 12
3 6 13 12
3 6 11 13
3 13 14 12
3 17 16 15
3 17 15 9
3 15 8 9
3 15 18 8
3 8 19 10
3 8 18 19
3 10 20 11
3 10 19 20
3 11 21 13
3 11 20 21
3 14 13 22
3 13 23 22
3 13 21 23
3 23 24 22
3 15 16 25
3 25 16 26
3 15 27 18
3 15 25 27
3 18 28 19
3 18 27 28
3 19 29 20
3 19 28 29
3 20 30 21
3 20 29 30
3 21 31 23
3 21 30 31
3 24 23 32
3 23 33 32
3 23 31 33
3 33 34 32
3 25 26 35
3 35 26 36
3 25 37 27
3 25 35 37
3 27 38 28
3 27 37 38
3 28 39 29
3 28 38 39
3 29 40 30
3 29 39 40
3 30 41 31
3 30 40 41
3 31 42 33
3 31 41 42
3 34 33 43
3 33 44 43
3 33 42 44
3 44 45 43
3 35 36 46
3 46 36 47
3 35 48 37
3 35 46 48
3 37 49 38
3 37 48 49
3 38 50 39
3 38 49 50
3 39 51 40
3 39 50 51
3 40 52 41
3 40 51 52
3 41 53 42
3 41 52 53
3 42 54 44
3 42 53 54
3 45 44 55
3 55 44 54
3 47 56 46
3 46 56 48
3 48 56 57
3 48 57 49
3 49 57 58
3 49 58 50
3 50 58 59
3 61 60 59
3 60 50 59
3 60 51 50
3 51 62 52
3 51 60 62
3 52 63 53
3 52 62 63
3 65 54 64
3 54 63 64
3 54 53 63
3 54 65 55
3 60 61 66
3 66 61 67
3 60 68 62
3 60 66 68
3 62 69 63
3 62 68 69
3 64 63 70
3 70 63 69
3 66 67 71
3 71 67 72
3 66 73 68
3 66 71 73
3 68 74 69
3 68 73 74
3 70 69 75
3 75 69 74
3 78 77 76
3 78 76 72
3 76 71 72
3 76 79 71
3 71 80 73
3 71 79 80
3 73 81 74
3 73 80 81
3 75 74 82
3 82 74 81
3 77 83 76
3 76 83 79
3 79 83 84
3 79 84 80
3 80 84 85
3 80 85 81
3 81 85 86
3 81 86 82
3 89 88 87
3 91 90 87
3 87 90 89
3 91 92 90
3 95 94 93
3 1 2 93
3 2 95 93
3 2 96 95
3 3 87 88
3 96 3 88
3 2 3 96
3 87 3 5
3 87 5 91
3 98 97 7
3 7 97 5
3 97 92 5
3 92 91 5
3 98 99 97
3 102 101 100
3 102 100 94
3 100 93 94
3 100 103 93
3 103 9 1
3 103 1 93
3 12 98 7
3 105 104 14
3 14 104 12
3 104 99 12
3 99 98 12
3 107 106 105
3 105 106 104
3 107 108 106
3 111 110 109
3 111 109 101
3 109 100 101
3 109 112 100
3 112 16 17
3 103 112 17
3 100 112 103
3 103 17 9
3 22 105 14
3 105 22 24
3 113 105 24
3 107 105 113
3 108 107 114
3 114 107 113
3 109 110 115
3 115 110 116
3 109 117 112
3 109 115 117
3 117 26 16
3 117 16 112
3 32 113 24
3 119 118 34
3 34 118 32
3 118 114 32
3 114 113 32
3 119 120 118
3 115 116 121
3 121 116 122
3 115 123 117
3 115 121 123
3 123 36 26
3 123 26 117
3 43 119 34
3 43 45 119
3 45 120 119
3 45 124 120
3 121 122 125
3 125 122 126
3 121 127 123
3 121 125 127
3 127 47 36
3 127 36 123
3 55 129 128
3 124 55 128
3 45 55 124
3 126 130 125
3 125 130 127
3 127 130 131
3 131 133 132
3 131 132 56
3 127 131 56
3 47 127 56
3 134 57 56
3 134 56 132
3 135 58 57
3 135 57 134
3 136 59 58
3 136 58 135
3 136 61 59
3 64 137 65
3 129 55 65
3 137 129 65
3 138 129 137
3 132 133 139
3 139 133 140
3 132 141 134
3 132 139 141
3 134 142 135
3 134 141 142
3 135 143 136
3 135 142 143
3 143 67 61
3 143 61 136
3 70 144 137
3 70 137 64
3 137 145 138
3 137 144 145
3 139 140 146
3 146 140 147
3 139 148 141
3 139 146 148
3 141 149 142
3 141 148 149
3 142 150 143
3 142 149 150
3 150 72 67
3 150 67 143
3 75 151 144
3 75 144 70
3 144 152 145
3 144 151 152
3 147 153 146
3 155 154 153
3 154 146 153
3 154 148 146
3 148 156 149
3 148 154 156
3 156 77 78
3 150 156 78
3 149 156 150
3 150 78 72
3 82 157 151
3 82 151 75
3 151 158 152
3 151 157 158
3 155 159 154
3 161 160 159
3 160 154 159
3 160 156 154
3 162 83 77
3 156 162 77
3 160 162 156
3 163 84 83
3 163 83 162
3 164 85 84
3 164 84 163
3 165 86 85
3 165 85 164
3 157 82 86
3 165 157 86
3 166 157 165
3 168 158 167
3 158 166 167
3 158 157 166
3 161 169 160
3 171 170 169
3 170 160 169
3 170 162 160
3 162 172 163
3 162 170 172
3 163 173 164
3 163 172 173
3 164 174 165
3 164 173 174
3 176 166 175
3 166 174 175
3 166 165 174
3 166 176 167
3 171 177 170
3 170 177 172
3 172 177 178
3 172 178 173
3 173 178 179
3 173 179 174
3 174 179 180
3 174 180 175
3 183 182 181
3 185 184 181
3 181 184 183
3 185 186 184
3 189 188 187
3 191 190 187
3 187 190 189
3 190 191 182
3 182 191 181
3 191 88 181
3 88 89 181
3 181 89 90
3 181 90 185
3 193 192 92
3 92 192 90
3 192 186 90
3 186 185 90
3 193 194 192
3 197 196 195
3 197 195 188
3 188 195 187
3 195 94 187
3 94 95 187
3 187 95 96
3 187 96 191
3 191 96 88
3 97 193 92
3 199 198 99
3 99 198 97
3 198 194 97
3 194 193 97
3 201 200 199
3 199 200 198
3 201 202 200
3 205 204 203
3 205 203 196
3 196 203 195
3 203 101 195
3 101 102 195
3 195 102 94
3 104 199 99
3 199 104 106
3 199 106 201
3 106 108 201
3 108 202 201
3 108 206 202
3 203 204 111
3 204 110 111
3 204 207 110
3 203 111 101
3 114 209 208
3 206 114 208
3 108 114 206
3 209 210 208
3 213 212 211
3 207 213 211
3 116 207 211
3 110 207 116
3 118 209 114
3 215 214 120
3 120 214 118
3 214 210 118
3 210 209 118
3 212 216 211
3 116 211 216
3 217 116 216
3 122 116 217
3 124 218 215
3 124 215 120
3 217 126 122
3 219 126 217
3 128 218 124
3 130 126 220
3 126 221 220
3 126 219 221
3 222 131 130
3 222 130 220
3 222 133 131
3 221 223 220
3 225 224 223
3 224 220 223
3 224 222 220
3 224 140 133
3 224 133 222
3 225 226 224
3 140 224 226
3 227 140 226
3 147 140 227
3 153 147 228
3 147 229 228
3 147 227 229
3 228 155 153
3 232 231 230
3 229 233 228
3 233 235 234
3 233 234 159
3 228 233 159
3 155 228 159
3 234 161 159
3 232 230 168
3 167 232 168
3 236 232 167
3 235 237 234
3 237 239 238
3 237 238 169
3 234 237 169
3 161 234 169
3 238 171 169
3 175 240 176
3 240 241 176
3 241 167 176
3 241 236 167
3 239 242 238
3 238 242 171
3 242 177 171
3 242 243 177
3 243 245 244
3 178 243 244
3 177 243 178
3 246 179 178
3 246 178 244
3 179 246 247
3 248 179 247
3 180 179 248
3 175 180 240
3 180 249 240
3 180 248 249
3 240 249 241
3 244 245 250
3 250 245 251
3 244 252 246
3 244 250 252
3 247 246 253
3 253 246 252
3 256 255 254
3 258 257 254
3 254 257 256
3 182 183 258
3 183 257 258
3 183 259 257
3 260 183 184
3 260 259 183
3 184 186 260
3 260 186 261
3 264 263 262
3 264 262 255
3 255 262 254
3 262 188 254
3 188 189 254
3 254 189 190
3 254 190 258
3 258 190 182
3 265 261 186
3 265 186 192
3 267 266 194
3 266 192 194
3 266 265 192
3 267 268 266
3 271 270 269
3 271 269 263
3 263 269 262
3 269 196 262
3 196 197 262
3 262 197 188
3 198 267 194
3 272 268 267
3 198 272 267
3 200 272 198
3 200 202 272
3 272 202 273
3 276 275 274
3 276 274 270
3 270 274 269
3 274 204 269
3 204 205 269
3 269 205 196
3 206 278 277
3 273 206 277
3 202 206 273
3 278 279 277
3 274 275 280
3 280 275 281
3 280 207 204
3 280 204 274
3 208 278 206
3 208 210 278
3 210 279 278
3 210 282 279
3 280 281 213
3 281 212 213
3 281 283 212
3 280 213 207
3 284 282 210
3 284 210 214
3 216 212 285
3 212 286 285
3 212 283 286
3 285 217 216
3 286 287 285
3 217 285 287
3 288 217 287
3 219 217 288
3 290 221 289
3 221 288 289
3 221 219 288
3 291 290 289
3 290 223 221
3 225 223 290
3 291 225 290
3 292 225 291
3 292 293 225
3 225 293 226
3 227 226 293
3 227 293 294
3 296 229 295
3 229 294 295
3 229 227 294
3 297 296 295
3 299 298 231
3 299 231 232
3 296 233 229
3 235 233 296
3 297 235 296
3 300 235 297
3 236 299 232
3 236 301 299
3 300 302 235
3 235 302 237
3 239 237 302
3 239 302 303
3 306 305 304
3 305 301 304
3 301 241 304
3 301 236 241
3 303 307 239
3 239 307 242
3 242 308 243
3 307 308 242
3 245 243 308
3 245 308 309
3 311 310 248
3 311 248 247
3 304 249 306
3 249 310 306
3 249 248 310
3 249 304 241
3 309 251 245
3 312 251 309
3 253 311 247
3 253 313 311
3 316 315 314
3 318 317 314
3 314 317 316
3 320 319 318
3 318 319 317
3 320 321 319
3 324 323 322
3 255 256 322
3 256 324 322
3 256 325 324
3 257 314 315
3 325 257 315
3 256 257 325
3 314 257 259
3 314 259 318
3 318 259 260
3 318 260 320
3 327 326 261
3 261 326 260
3 326 321 260
3 321 320 260
3 327 328 326
3 331 330 329
3 331 329 323
3 323 329 322
3 329 263 322
3 263 264 322
3 322 264 255
3 265 327 261
3 332 328 327
3 265 332 327
3 266 332 265
3 334 333 268
3 333 266 268
3 333 332 266
3 334 335 333
3 338 337 336
3 338 336 330
3 330 336 329
3 336 270 329
3 270 271 329
3 329 271 263
3 272 334 268
3 272 273 334
3 273 335 334
3 273 339 335
3 336 337 276
3 337 275 276
3 337 340 275
3 336 276 270
3 341 339 273
3 341 273 277
3 277 279 341
3 341 279 342
3 340 281 275
3 343 281 340
3 282 345 344
3 342 282 344
3 279 282 342
3 343 283 281
3 346 283 343
3 284 345 282
3 346 286 283
3 347 286 346
3 347 348 286
3 286 348 287
3 288 287 348
3 288 348 349
3 349 350 288
3 288 350 289
3 291 289 350
3 291 350 351
3 351 292 291
3 352 292 351
3 352 353 292
3 292 353 293
3 294 293 353
3 294 353 354
3 354 355 294
3 294 355 295
3 297 295 355
3 297 355 356
3 358 357 298
3 358 298 299
3 360 300 359
3 300 356 359
3 300 297 356
3 361 360 359
3 364 363 362
3 363 358 362
3 358 301 362
3 358 299 301
3 360 302 300
3 366 365 303
3 366 303 302
3 361 366 302
3 360 361 302
3 367 365 366
3 370 369 368
3 368 369 364
3 368 364 362
3 306 368 362
3 305 306 362
3 305 362 301
3 365 307 303
3 367 371 365
3 371 307 365
3 371 308 307
3 373 372 309
3 308 373 309
3 371 373 308
3 375 374 372
3 375 372 373
3 374 375 370
3 374 370 368
3 311 374 368
3 310 311 368
3 310 368 306
3 376 312 372
3 372 312 309
3 377 372 374
3 376 372 377
3 313 377 311
3 311 377 374
3 378 315 316
3 317 379 316
3 316 379 378
3 379 317 380
3 317 381 380
3 317 319 381
3 319 321 381
3 381 321 382
3 385 384 383
3 323 324 383
3 324 385 383
3 324 386 385
3 387 324 325
3 387 386 324
3 325 315 378
3 388 325 378
3 387 325 388
3 390 389 388
3 378 390 388
3 379 390 378
3 379 380 391
3 379 391 390
3 392 382 321
3 392 321 326
3 394 393 328
3 393 326 328
3 393 392 326
3 394 395 393
3 383 384 331
3 384 330 331
3 384 396 330
3 383 331 323
3 389 390 397
3 389 397 398
3 390 391 399
3 390 399 397
3 332 394 328
3 400 395 394
3 332 400 394
3 333 400 332
3 333 335 400
3 400 335 401
3 403 402 338
3 338 402 337
3 338 330 396
3 338 396 403
3 398 397 404
3 398 404 405
3 397 399 406
3 397 406 404
3 339 401 335
3 339 407 401
3 402 340 337
3 408 340 402
3 405 404 409
3 405 409 410
3 404 406 411
3 404 411 409
3 412 407 339
3 412 339 341
3 341 342 412
3 412 342 413
3 408 343 340
3 414 343 408
3 410 409 415
3 410 415 416
3 409 411 417
3 409 417 415
3 418 413 342
3 418 342 344
3 420 346 419
3 346 414 419
3 346 343 414
3 421 420 419
3 422 416 415
3 422 415 417
3 423 347 420
3 420 347 346
3 420 421 424
3 420 424 423
3 423 348 347
3 426 425 349
3 426 349 348
3 424 426 348
3 423 424 348
3 427 425 426
3 425 350 349
3 351 350 425
3 427 351 425
3 428 351 427
3 430 352 429
3 352 428 429
3 352 351 428
3 431 430 429
3 430 353 352
3 433 432 354
3 433 354 353
3 431 433 353
3 430 431 353
3 434 432 433
3 437 436 435
3 432 355 354
3 356 355 432
3 434 356 432
3 438 356 434
3 441 440 439
3 439 440 437
3 439 437 435
3 358 439 435
3 357 358 435
3 438 442 356
3 356 442 359
3 361 359 442
3 361 442 443
3 446 445 444
3 444 445 441
3 444 441 439
3 364 444 439
3 363 364 439
3 363 439 358
3 443 447 361
3 361 447 366
3 449 448 367
3 366 449 367
3 447 449 366
3 451 450 448
3 451 448 449
3 453 452 450
3 453 450 451
3 452 453 446
3 452 446 444
3 370 452 444
3 369 370 444
3 369 444 364
3 448 371 367
3 371 448 373
3 373 448 450
3 373 450 375
3 375 450 452
3 375 452 370
3 456 455 454
3 454 457 456
3 458 380 381
3 460 458 459
3 458 381 459
3 382 461 459
3 382 459 381
3 461 462 459
3 464 463 385
3 385 463 384
3 386 454 455
3 464 386 455
3 385 386 464
3 465 457 454
3 386 465 454
3 387 465 386
3 467 465 466
3 465 388 466
3 465 387 388
3 389 466 388
3 468 391 458
3 458 391 380
3 470 469 460
3 470 461 469
3 461 470 392
3 468 392 470
3 392 468 382
3 469 382 468
3 468 458 469
3 469 458 460
3 461 382 469
3 471 462 461
3 392 471 461
3 393 471 392
3 393 395 471
3 471 395 472
3 475 474 473
3 463 475 473
3 396 463 473
3 384 463 396
3 467 466 476
3 467 476 477
3 398 476 389
3 389 476 466
3 478 399 468
3 468 399 391
3 468 470 479
3 468 479 478
3 480 472 395
3 480 395 400
3 400 401 480
3 480 401 481
3 473 474 403
3 474 402 403
3 474 482 402
3 473 403 396
3 477 476 483
3 477 483 484
3 405 483 398
3 398 483 476
3 485 406 478
3 478 406 399
3 478 479 486
3 478 486 485
3 407 481 401
3 407 487 481
3 482 408 402
3 488 408 482
3 484 483 489
3 484 489 490
3 410 489 405
3 405 489 483
3 491 411 485
3 485 411 406
3 485 486 492
3 485 492 491
3 493 487 407
3 493 407 412
3 412 413 493
3 493 413 494
3 488 414 408
3 495 414 488
3 490 489 496
3 490 496 497
3 416 496 410
3 410 496 489
3 498 417 491
3 491 417 411
3 491 492 499
3 491 499 498
3 413 418 500
3 501 413 500
3 494 413 501
3 495 502 414
3 414 502 419
3 421 419 502
3 421 502 503
3 497 496 504
3 497 504 505
3 422 506 416
3 506 496 416
3 506 504 496
3 417 498 422
3 498 506 422
3 498 507 506
3 498 499 508
3 498 508 507
3 501 500 509
3 501 509 510
3 512 424 511
3 424 503 511
3 424 421 503
3 513 512 511
3 514 505 504
3 514 504 506
3 514 506 515
3 515 506 507
3 515 507 516
3 516 507 508
3 510 509 517
3 510 517 518
3 512 426 424
3 520 519 427
3 520 427 426
3 513 520 426
3 512 513 426
3 521 519 520
3 518 517 522
3 518 522 523
3 524 428 519
3 519 428 427
3 519 521 525
3 519 525 524
3 523 522 526
3 523 526 527
3 524 429 428
3 431 429 524
3 525 431 524
3 528 431 525
3 527 526 529
3 527 529 530
3 528 531 431
3 431 531 433
3 434 433 531
3 434 531 532
3 530 529 436
3 437 530 436
3 533 530 437
3 535 438 534
3 438 532 534
3 438 434 532
3 536 535 534
3 539 538 537
3 440 441 537
3 538 440 537
3 540 440 538
3 437 440 533
3 533 440 540
3 535 442 438
3 542 541 443
3 542 443 442
3 536 542 442
3 535 536 442
3 544 543 541
3 544 541 542
3 546 545 543
3 546 543 544
3 548 547 545
3 548 545 546
3 547 548 539
3 547 539 537
3 446 547 537
3 445 446 537
3 445 537 441
3 541 447 443
3 447 541 449
3 449 541 543
3 449 543 451
3 451 543 545
3 451 545 453
3 453 545 547
3 453 547 446
3 550 549 456
3 456 549 455
3 456 457 550
3 550 457 551
3 552 460 459
3 462 552 459
3 554 553 464
3 464 553 463
3 464 455 549
3 464 549 554
3 457 465 555
3 556 457 555
3 551 457 556
3 467 555 465
3 557 470 552
3 552 470 460
3 471 558 462
3 558 552 462
3 558 557 552
3 472 558 471
3 559 474 475
3 560 559 475
3 463 560 475
3 553 560 463
3 556 555 561
3 556 561 562
3 477 561 467
3 467 561 555
3 563 479 557
3 557 479 470
3 564 557 558
3 563 557 564
3 480 565 472
3 565 558 472
3 565 564 558
3 481 565 480
3 567 566 559
3 566 474 559
3 566 482 474
3 567 559 560
3 562 561 568
3 562 568 569
3 484 568 477
3 477 568 561
3 570 486 563
3 563 486 479
3 571 563 564
3 570 563 571
3 565 573 572
3 571 565 572
3 564 565 571
3 565 481 573
3 481 574 573
3 481 487 574
3 576 488 575
3 488 566 575
3 488 482 566
3 577 576 575
3 569 568 578
3 569 578 579
3 490 578 484
3 484 578 568
3 580 492 570
3 570 492 486
3 581 570 571
3 580 570 581
3 571 572 582
3 583 571 582
3 581 571 583
3 584 583 493
3 583 574 493
3 574 487 493
3 574 583 582
3 494 584 493
3 585 495 576
3 576 495 488
3 576 577 586
3 576 586 585
3 579 578 587
3 579 587 588
3 497 587 490
3 490 587 578
3 589 499 580
3 580 499 492
3 590 580 581
3 589 580 590
3 591 581 583
3 590 581 591
3 592 583 584
3 591 583 592
3 501 592 494
3 494 592 584
3 585 502 495
3 594 593 503
3 594 503 502
3 586 594 502
3 585 586 502
3 595 593 594
3 588 587 596
3 588 596 597
3 505 596 497
3 497 596 587
3 598 508 589
3 589 508 499
3 599 589 590
3 598 589 599
3 600 590 591
3 599 590 600
3 601 591 592
3 600 591 601
3 510 601 501
3 501 601 592
3 593 511 503
3 513 511 593
3 595 513 593
3 602 513 595
3 603 597 596
3 605 603 604
3 604 603 514
3 603 596 514
3 596 505 514
3 515 606 514
3 514 606 604
3 516 607 515
3 515 607 606
3 508 598 516
3 598 607 516
3 598 608 607
3 599 610 609
3 608 599 609
3 598 599 608
3 610 599 600
3 610 600 611
3 613 612 611
3 600 613 611
3 601 613 600
3 518 613 510
3 510 613 601
3 602 614 513
3 513 614 520
3 521 520 614
3 521 614 615
3 616 605 604
3 618 617 616
3 604 618 616
3 606 618 604
3 619 606 607
3 618 606 619
3 620 607 608
3 619 607 620
3 608 609 621
3 608 621 620
3 612 613 622
3 612 622 623
3 523 622 518
3 518 622 613
3 625 525 624
3 525 615 624
3 525 521 615
3 626 625 624
3 627 617 618
3 627 618 619
3 627 619 628
3 628 619 620
3 628 620 629
3 629 620 621
3 623 622 630
3 623 630 631
3 527 630 523
3 523 630 622
3 632 528 625
3 625 528 525
3 625 626 633
3 634 625 633
3 632 625 634
3 635 634 633
3 631 630 636
3 631 636 637
3 530 636 527
3 527 636 630
3 632 531 528
3 531 632 532
3 632 638 532
3 632 634 638
3 634 635 639
3 640 634 639
3 638 634 640
3 641 640 639
3 637 636 642
3 637 642 643
3 533 642 530
3 530 642 636
3 638 534 532
3 534 638 536
3 638 644 536
3 638 640 644
3 640 641 645
3 646 640 645
3 644 640 646
3 648 647 646
3 648 646 645
3 650 649 647
3 650 647 648
3 538 539 649
3 650 538 649
3 651 538 650
3 642 540 643
3 540 651 643
3 540 538 651
3 540 642 533
3 644 542 536
3 542 644 544
3 544 644 646
3 544 646 546
3 546 646 647
3 546 647 548
3 548 647 649
3 548 649 539
3 652 549 550
3 551 652 550
3 654 653 554
3 554 653 553
3 554 549 652
3 655 554 652
3 654 554 655
3 652 551 655
3 551 656 655
3 551 556 656
3 653 560 553
3 657 560 653
3 660 659 658
3 659 656 658
3 656 562 658
3 656 556 562
3 661 566 567
3 662 661 567
3 560 662 567
3 657 662 560
3 660 658 663
3 660 663 664
3 569 663 562
3 562 663 658
3 665 572 573
3 574 665 573
3 661 575 566
3 577 575 661
3 662 577 661
3 666 577 662
3 664 663 667
3 664 667 668
3 579 667 569
3 569 667 663
3 665 582 572
3 582 665 574
3 670 586 669
3 586 666 669
3 586 577 666
3 670 669 668
3 667 670 668
3 671 670 667
3 588 671 579
3 579 671 667
3 670 594 586
3 594 670 595
3 670 672 595
3 670 671 672
3 597 672 588
3 588 672 671
3 673 602 672
3 672 602 595
3 603 674 597
3 674 672 597
3 674 673 672
3 605 674 603
3 675 609 610
3 611 676 610
3 610 676 675
3 612 676 611
3 673 614 602
3 614 673 615
3 673 677 615
3 673 674 677
3 616 678 605
3 678 674 605
3 678 677 674
3 617 678 616
3 679 621 675
3 675 621 609
3 680 675 676
3 679 675 680
3 623 680 612
3 612 680 676
3 677 624 615
3 624 677 626
3 677 681 626
3 677 678 681
3 627 682 617
3 682 678 617
3 682 681 678
3 628 683 627
3 627 683 682
3 629 684 628
3 628 684 683
3 621 679 629
3 679 684 629
3 679 685 684
3 686 679 680
3 685 679 686
3 631 686 623
3 623 686 680
3 681 633 626
3 633 681 635
3 681 687 635
3 681 682 687
3 688 682 683
3 687 682 688
3 689 683 684
3 688 683 689
3 690 684 685
3 689 684 690
3 691 685 686
3 690 685 691
3 637 691 631
3 631 691 686
3 687 639 635
3 639 687 641
3 687 692 641
3 687 688 692
3 693 688 689
3 692 688 693
3 694 689 690
3 693 689 694
3 695 690 691
3 694 690 695
3 643 695 637
3 637 695 691
3 692 645 641
3 645 692 648
3 648 692 693
3 648 693 650
3 650 693 694
3 650 694 651
3 651 694 695
3 651 695 643