OFF
1286 2514 0
1.3989437093 11.1674283787 19.4885007078
1.4230769631 11.2474062068 18.9673748025
1.6462014331 10.8182112457 19.1497344866
1.6631359192 10.6082440956 19.9764654372
1.4190805303 11.1817228584 20.1052998817
1.6142246382 10.8473150679 20.5715515789
1.3895389041 11.5979399519 19.0598740444
1.5648247909 11.8508262889 18.5232411992
1.4311473088 11.4804164693 18.7302244952
1.4043065701 11.6438394526 19.6623040758
1.4637400109 11.5855115932 20.2222099556
1.5393865265 11.2683204095 20.5897320395
1.6872779419 13.0270373004 16.3961833228
1.7514024341 12.8922037324 16.2779394337
1.6954969118 12.8484634607 16.4663788608
1.8090414749 13.0604055314 16.7238552106
1.6416072201 12.2123635815 19.1312328634
1.6728915940 12.0619403719 20.0169902376
1.8775843831 13.2785477103 16.2405566159
1.9465227273 10.2472137373 20.7886318181
2.0406705756 10.0097038106 20.1487137098
2.2804201207 9.6396082189 20.5888969299
2.3527475845 9.6118316360 21.3042959734
2.1324350489 10.2385924932 21.5021275368
2.4013806732 9.8596176407 21.9818101957
1.6519406077 11.2738922315 18.4839242272
1.9974636507 11.1438214956 17.8880108459
2.0460888074 10.5992323631 18.5511949497
2.0507612832 10.1873921119 19.4127796109
1.8866034450 11.0119137106 21.2095898612
2.2766076328 10.6185533116 22.0610150006
1.8999811985 12.4126424187 16.5951743819
2.2098936613 12.2883984369 15.8985836955
2.3011158104 11.7504795372 16.2914381528
2.1702986842 11.4292601792 17.0903747046
1.8111329868 11.9128260765 17.7064548688
1.7259694918 11.6949009780 20.6909069473
2.0300371347 11.7536836873 21.2570008196
2.2577410002 11.4693374685 21.9030314655
2.0387288367 12.8811674896 15.8891242821
2.3889314695 13.1368879456 15.3778708527
2.3885403327 12.5902765135 15.4390110046
1.8414496096 12.6924416082 17.3298759113
1.8377541798 12.6226884420 18.2002777771
1.9989976645 12.8711976376 18.9075769186
2.0542633791 12.7233311174 19.6940787162
2.1399749856 12.3803700424 20.7317516898
2.3355667486 12.1262947519 21.5824210647
2.1953884235 13.5128920404 15.7723882389
2.1234113993 13.7555033659 16.1730867867
2.3980525598 14.0017219964 15.9124994312
2.0710113640 13.6628102730 16.6653207030
2.0948810034 13.4008615358 17.5052808064
2.1870555069 13.3035425104 18.3962868738
2.3471291939 14.0856850890 16.3632615491
3.0837622612 8.2615505708 23.1820199650
3.2104238344 8.0120779590 22.2852085914
3.4389928394 7.5366857090 22.7940737738
3.4801340441 7.4393588771 23.6534767928
3.1793002516 8.1387658084 24.2692285123
3.5298759822 7.4624202198 24.6714883901
3.2862814683 8.1452012604 25.1453998724
3.5697081620 7.6689920318 25.4414086880
2.9485737970 8.9634315322 19.6639912546
3.1661686809 8.9442621931 18.9171530176
3.3856979518 8.4653167132 19.4321075953
3.3362128580 8.2679297190 20.2899633437
2.7537003410 8.9817591728 20.7497384017
3.2428613522 8.1409727925 21.3866078233
2.7841521824 8.9649157599 22.1136491879
2.8149041283 9.1820823264 23.1992907980
2.9504230852 8.9819410080 24.0357490845
3.1026836420 8.8977463132 24.9444932069
3.4495700265 8.1775795874 25.7710588685
3.3093855191 8.8052073643 25.7180890824
3.5801484568 8.6018126476 26.2537769933
2.9285801403 9.9560409927 17.5026526893
3.1737901171 10.0002461020 16.7670600100
3.3538610505 9.4581636219 17.2880172743
3.2556958227 9.1917029867 18.1013965838
2.6507900281 9.7271355352 18.7123777905
2.4396202364 9.5517123298 19.8838964446
2.6131814950 10.0534435345 22.8194292721
2.8263030845 9.8903664581 23.8430196284
3.0256006396 9.8043893245 24.7479884348
3.3020132692 9.7269384848 25.6412730148
3.6018442008 9.4175061310 26.3866820300
3.0855051915 10.9936536697 15.5145283971
3.4529468997 10.8705110139 14.9784939308
3.4000296687 10.4985465130 15.4615066089
3.2930179130 10.2795140968 16.0275533758
2.7373334162 10.8444418642 16.5246741020
2.4147302580 10.5987034308 17.6960232724
2.5707511042 11.1812437776 22.7268219802
2.8362095908 10.8862098965 23.6571731304
3.0071121588 10.6049323616 24.4662025774
3.3858133400 10.8445661974 25.3750958307
3.8765228480 10.6409824570 26.4555423064
3.1430186888 11.6517383074 14.8485166480
3.5345600471 12.0231348778 14.1416555448
3.4780123726 11.3567686865 14.5147541241
2.6458388555 11.8401144093 15.5585416416
2.6319772050 12.0804092111 22.3207866519
2.9832283620 12.0059618595 23.3475252098
3.2763503689 11.6426224612 24.5004345287
3.8674081617 12.0009003342 25.4933196942
3.8927214905 11.4778362429 26.0246234618
2.8864940905 12.7732598309 14.8133171026
3.4657286836 13.1498492307 13.9580990446
2.4064233347 13.4032774259 19.1471089690
2.6464365765 13.3128797910 20.2520330769
2.7396908664 12.8582853859 21.5282233640
3.0427003831 12.7796361638 22.5926634064
3.2984204648 12.8318716328 23.2984770045
3.4868870525 12.6252256768 24.0265516944
3.7985345002 12.5305980409 24.8121021273
3.1881758540 13.7863883812 14.4497744488
3.5162609749 13.7943618864 13.9233331541
2.6874088091 13.8058701493 15.2908583947
2.4803647396 14.1530867133 17.0121147029
2.6812173162 14.1153439144 18.1992333534
2.9179637848 14.0239742436 19.3907438840
3.1449334163 14.0318283722 20.1837086920
3.1758735439 13.7445280374 21.0226570140
3.3114163497 13.5164300195 22.0352595270
3.4367134596 13.3415082784 22.8321299311
3.6487136104 14.3772089954 14.0862886960
3.2184149857 14.5180372747 14.9338017032
3.5688108931 14.8830892790 14.6067768977
2.8630963399 14.5689873238 16.0617187535
2.9884416911 14.7934091235 17.2223380101
3.1811066694 14.9096798414 17.9963989927
3.2691953360 14.7340234364 18.8276287360
3.3658959539 14.5371089572 19.6792182423
3.6347063317 15.3151061430 15.2475476619
3.4297055195 15.3778536146 16.5446732805
3.4010515097 15.3304376715 17.4574483370
4.1868027471 6.7922479617 21.7518759158
4.3681202752 6.7995639064 20.9706701620
4.7459405488 6.3336622921 21.3182804261
4.7225125380 6.1185640977 22.3652302066
3.9597769130 6.8386192581 22.9013044194
4.5535574676 6.1209129553 23.5873224205
3.9739625568 6.7744627943 24.1575532928
4.5848085267 6.1449794124 24.7739877845
4.0597594309 6.9601060305 25.3877786596
4.9063732571 6.1546990424 26.0225790698
4.4460617364 7.0054051270 26.4642369280
4.9419912628 6.5182983437 26.8049160283
4.1956755715 7.8890035499 18.4488239061
4.3913623606 7.9831094745 17.6575140952
4.8193143541 7.4364495760 18.0215558664
4.7170301722 7.1096721491 19.1321592200
3.9123965858 7.7871023902 19.5927333220
4.4107847073 7.0164459288 20.2040335753
3.8501978152 7.4338213375 20.8932272472
3.6243180444 7.4172917392 22.0001399732
3.8638111103 7.8330108477 26.2156075662
4.9315516747 6.9842793941 27.2829854399
4.3885870242 7.7619800608 27.0856346520
4.8638916453 7.6195721172 27.7046037668
4.0848842050 8.9418364915 16.4640826499
4.4431136458 8.9225860145 15.8582377495
4.4564009397 8.5268802210 16.4076060432
4.4052812396 8.2989661615 16.9525234793
3.8474329889 8.6945601692 17.5249125589
3.6149947288 8.4745542871 18.6758558449
4.0496822825 8.8623675781 27.0451712303
4.5822849386 8.3677475617 27.7240524938
3.8681525038 9.8820327901 15.5045453437
4.3996863281 9.8538284911 14.7587123254
4.4056943001 9.3655614123 15.3050526643
3.5914904454 9.5246982962 16.5813445431
3.9742058924 9.8841572612 26.9873857104
4.5315218174 9.1622557098 27.8222086879
4.4515133057 9.9341798568 27.6313893398
4.9820195791 9.7957122005 28.2303407920
3.9350059187 10.8452438411 14.3801753039
4.4597448448 10.8063938474 13.7647264946
4.4048846559 10.3385432663 14.2224089924
4.2876523689 10.5336808336 27.2256867252
4.8772280204 10.8553290294 27.7269483370
4.9435439304 10.4054522784 28.0592607713
4.1369298878 11.6160907687 13.5978032424
4.6176844160 11.9635275009 12.9773233390
4.5212029736 11.3171361624 13.3280743184
4.1473020867 11.9678830790 26.0575730857
4.5605928724 11.8718988646 26.5706779572
4.6277782004 11.2707197937 27.1428498079
3.9907734516 12.6183273518 13.4163378391
4.5000226718 13.0822459185 12.8661565833
3.7267831133 13.3949106156 23.5100776941
4.1449665744 13.3473219561 24.4377661806
4.5147754622 13.0232426057 25.3961316352
4.5250755774 12.4611582117 26.0250937667
3.9603868064 13.6654911383 13.4324299821
4.4604952884 13.7831312307 12.9525226860
3.6313430189 14.5762772688 20.5417196324
3.6308536364 14.1887354581 21.5362686342
3.9585089679 14.1635780655 22.5947338846
4.3007413315 14.0498344268 23.6873009346
4.8359211419 14.1053424281 24.4474100559
4.7071712622 13.6582884759 24.9448390595
4.4672223928 14.5401693064 13.3111753200
3.9621973002 15.0788543932 14.2413113301
4.4845308421 15.3722550590 13.8527289328
3.6126195440 15.4052488867 18.2299672777
3.8922002741 15.3327110773 19.4366958187
4.1324349144 15.2744169791 20.4729748488
4.1786893246 14.9416050167 21.4414715250
4.7570662773 15.1192756220 22.4024262322
4.6217611942 14.6815887600 23.1792137498
4.8157573370 14.5318957568 23.8089728429
4.2246127161 15.6788268820 14.5320576285
4.1412250155 15.9372446190 15.1415948160
4.4348850679 16.0509287107 14.7400967416
3.9703605725 15.9554190950 15.9954224618
3.8664674495 15.9064374660 17.2585496029
4.1285868015 15.9975159791 18.3903800698
4.6088615637 16.1734047517 19.3175748593
4.4998040085 15.8229004665 20.0742292498
4.5984779626 15.6436598642 20.8846336212
4.7758955589 15.5270329806 21.6029578943
4.5926683978 16.3413092939 15.2521377544
4.2950083925 16.3928826002 16.5337260866
4.3094273147 16.4069574190 17.6349964419
4.5178888082 16.4252485328 18.4897704365
5.2086595170 5.5551132727 23.0970568933
5.3389799558 5.5862690503 22.2678246664
5.8403616459 5.1674609258 22.4969291269
5.8842664723 4.9680270188 23.6002394137
5.1636236774 5.5292351222 24.2128819050
5.8815459246 4.9942934215 24.9159166330
5.2133935583 5.5841003850 25.2946894788
5.7837703132 5.2749114784 25.8997096922
5.3245274094 5.6230494914 25.9288270986
5.6118421188 5.6306464352 26.4595631665
4.9841562032 6.5452188611 19.9531194758
5.4212121920 6.4261117007 19.2888970917
5.4170786461 6.1991393552 19.8880292315
5.2885087876 6.0881771978 20.5762149357
4.7438688458 6.5362572486 20.6149183152
5.2793199370 5.8165059975 21.5488794135
5.5408899076 6.0694265436 27.0463803022
5.1849892284 6.5069203717 27.1928399795
5.5227971643 6.5310091222 27.5844471178
4.9664680728 8.1254558796 16.3553124345
5.5652404291 8.0865800556 15.6677333234
5.6885784897 7.5997038363 16.2852961976
5.5249895173 7.2468812038 17.1892115111
4.8001678682 7.7750108188 17.2523783625
5.4304107105 6.8024169979 18.3447723577
5.5652700099 7.0489571398 28.0526200153
5.1058218642 7.9706577772 28.2242257651
5.5575262734 7.4714017218 28.4536945456
4.9904970953 8.9343570677 15.1608973865
5.4193137214 9.1382397543 14.4064472933
5.9451277707 8.4264943882 14.7941304458
4.8941525879 8.8803238528 28.2260034538
5.3575767259 7.8667959848 28.5131873029
5.1338916199 8.5461738226 28.4481784487
4.9240239403 9.8857794151 14.1234826095
5.4532376189 9.8972456182 13.5571015639
5.4100403866 9.4853441637 14.0018350985
5.2860791857 9.4872975694 28.5116446518
5.5852893602 10.1132949414 28.5575178404
5.0211963793 10.8124447425 13.2198452426
5.6361304494 10.7211063098 12.7136758672
5.5161362440 10.3138142541 13.1091651205
5.1727330910 10.7793837014 28.0977888149
5.5217637690 10.5904138966 28.3402912816
5.3083654937 11.5530931631 12.5365410241
5.8347890056 11.9388092867 12.0659362921
5.8606242461 11.2133849642 12.2628017883
4.9919687008 11.8264932120 27.1125208507
5.5033510532 11.7150379852 27.5813275002
5.5452623118 11.1572914995 28.0614578168
5.1563756142 12.5486129261 12.4054074370
5.8834060083 12.8866677502 11.9910720073
4.9168542002 12.9482403333 25.9759913992
5.3965349875 12.8175014251 26.4778911371
5.4079526174 12.2816017087 27.0442596584
5.0985366042 13.6750638884 12.5150788250
6.1571060451 13.9323160068 12.0512201695
5.0748857187 13.9785477901 24.9513193462
5.1640586852 13.7301877509 25.3293929693
5.3114982341 13.3572834442 25.8740485024
5.4258931745 14.6767767891 12.6360987480
5.0627541088 15.3606827529 13.2883502948
5.8887455433 15.4711102098 12.8353063232
5.0138120053 15.0919289051 23.0052832505
5.1738595368 14.9704515651 23.4763712214
5.3900881769 14.6973746185 24.1387276633
5.7194297567 14.2815800643 24.9519022732
5.4838466633 15.8725863285 13.3877391071
6.0204124409 16.0146826114 13.2509343693
4.9017772068 15.9901633327 14.1267993265
4.8812025326 16.2049570372 19.9309811101
5.0355892411 16.1326502007 20.4729296046
5.1831953289 15.9797616589 21.2294850114
5.3601865400 15.7520569588 21.9837630726
5.6749160290 15.4315270175 22.8937169013
5.7744929008 15.1153484154 23.6959842781
5.7779462336 16.2784287389 13.8103978012
5.4405841856 16.5110192027 14.5177675765
5.1245927790 16.6379677841 15.0923112763
5.9421255492 16.7276300921 14.6889416076
4.6101381356 16.5938653601 15.9833909640
4.4539210277 16.5997932609 17.0596278892
4.5696523493 16.5938694629 18.0639969369
4.9448037680 16.5578909282 19.0728596018
5.4495922110 16.4991458587 19.9227345671
5.7516282903 16.3463400864 20.8146108228
5.7702141362 16.1409187726 21.5204789872
6.4448684204 4.5100549787 24.3008179686
6.5392324317 4.4854863560 23.4662228635
7.1552610738 4.0669536691 23.7963401641
7.0533014449 4.1453152090 24.8818555795
6.5286492938 4.5235786017 25.1343899278
7.0020508856 4.3161047572 25.6031804162
6.0287781962 5.8115617119 19.7549949685
6.6175457051 5.7268589338 18.8891726783
7.0795108944 5.2729296920 19.4232233766
6.5745340718 5.2391523689 20.4045678739
5.9044515043 5.5247417139 20.9307275051
6.5469391421 4.9368854480 21.5106224620
5.7678481499 5.3865859635 21.7619889556
6.4647004713 4.6868086025 22.6886556000
6.5650041027 4.7606613180 25.9342156416
6.3775203142 5.2599833718 26.7626314566
5.9503356673 5.6232284230 26.9533151893
6.3207614979 5.6756607352 27.3799758036
6.1730003696 6.5404861054 17.7241633917
6.3215512329 6.8184940950 16.9607398899
6.9463778525 6.3936072174 17.1239488002
6.8763682356 5.9558969448 18.0421213659
6.0664496925 6.1904163356 18.6721094402
6.1253877554 6.1385214455 27.7493201775
5.9554004362 6.5084580285 27.9722018171
6.6274474398 6.3273971151 28.2663276509
6.3104748132 7.5823512279 15.6722384796
6.1377500429 7.1891514649 16.4828540001
6.1117368185 6.9585218574 28.4812775642
5.6784788947 7.4497110570 28.5780634540
5.9047538192 9.1658649015 13.8841296210
6.4426056889 9.1176710017 13.3933618413
6.6878129122 8.5070413724 13.8813377227
6.8286861115 7.8451848506 14.7432434320
6.0621530450 9.8535936281 13.0445230836
6.7411284018 9.8679645461 12.4690247775
6.6817442705 9.3534818896 12.9156963020
5.9906752142 10.1397723710 28.6936471963
6.2608552834 10.5601604043 12.3693833614
6.4726075411 11.2427774712 11.9387810903
6.9524714391 10.4861052947 11.9875214986
6.8753165353 10.4137360848 28.7529148868
6.2808710540 10.5419385459 28.6172668866
6.6049541876 12.0778115051 11.7277451154
5.9909093422 11.5545904327 28.0116764000
6.3763103001 11.1852198353 28.3077056256
6.7521091769 12.9723149545 11.6977043297
5.8762449964 12.7016527747 26.9768492873
6.1732255255 12.4280696026 27.3496967333
6.5581693717 11.9158418662 27.8866970787
7.0582674496 13.6615150555 11.7552169345
5.7801161722 13.8412956765 25.6408714279
6.1349796759 13.4939703851 26.1958980057
6.4724344525 13.0018093919 26.8810102146
6.2057826411 14.8335198720 12.3315485857
7.0767781375 14.5063122322 12.0688018072
6.8467716611 14.5450570837 24.8972419153
6.2239296686 14.8842358799 24.2661785587
6.5658715311 14.0261246211 25.6420338321
6.7737355847 15.3189679842 12.5359883858
6.6089434851 15.8830036278 13.0232533789
6.8091337603 15.6903329673 22.7132573680
6.1834719319 15.9655069620 22.0940569700
6.5331549092 15.2982240679 23.5411739400
6.5628059179 16.2859700004 13.5996421279
6.4839223820 16.6066651369 14.3559631385
6.8338742698 16.8054131119 14.9098391757
5.5329678502 16.6812091470 19.6180576696
6.1746622545 16.7278875717 19.8830609214
6.6937628290 16.5990869814 20.3146457865
6.4685201116 16.3119880685 21.3206588342
8.2956620572 1.2916356375 5.7196525631
8.3793029769 1.3235141040 5.5518713845
8.5641138378 1.1753239607 5.8166421499
8.3750478202 1.2936729059 6.1004864113
8.0801587423 1.2690817213 8.3640130754
8.0870047673 1.5646694183 7.8041565592
8.4841262695 1.0896523502 7.8626776111
8.3957341850 0.9665096696 8.9173426294
8.0053568223 1.2869163378 9.1036993625
8.3434992524 0.9790217873 9.8446421726
7.9926950236 1.3179148144 9.9492686345
8.3208055200 1.0690861763 10.6623045964
8.0362987268 1.3485727749 10.5905265660
8.2907141621 1.2702132423 11.1361317521
8.3508209273 1.6135236580 5.6854783141
7.9466191072 1.7276274816 8.5080362019
7.9167248321 1.7782268207 9.4022119324
7.9821868571 1.7476006624 10.2807904461
8.1334570172 1.5975085771 10.9511377184
7.1733719848 4.3783239877 22.0989618644
7.3776719692 4.4930252376 21.2670353027
7.9311735684 4.1201093033 21.5381751814
7.8466269430 3.8446922125 22.6679778023
6.9973426913 4.2786222598 22.9421360248
7.8685822511 3.6162668747 23.7021571801
7.7210605269 3.6954721001 24.6095380757
7.8262727978 3.8725452817 25.7925131071
7.2846139444 4.3739394116 26.1883711269
7.8067806407 4.2601091175 26.5800656207
7.1808534083 5.5248222606 18.5781428574
7.5574358173 5.5890200113 18.0384779016
7.9386841644 5.2159309245 18.5555709569
8.0112252233 4.8094125031 19.4488913127
7.3819138780 4.7677665179 20.4154708734
7.3631329609 4.7486851813 26.8791332116
7.1200178031 5.3329183191 27.5306579437
6.7719910706 5.8115281575 27.8916956872
7.5513303711 5.6720646727 28.1474894707
6.8884485403 6.8999879381 16.2658124709
7.6432126145 6.8291823447 15.7719284397
7.7309757687 6.4212993886 16.4608040250
7.7900299830 5.9056603462 17.3156963376
7.7167871546 6.0321358844 28.5690729621
7.1899896788 7.2712056742 15.3633082429
7.4778840791 7.4949402472 14.6612670297
8.0381429370 7.0402416587 14.9879826350
7.0843849826 6.3972720764 28.6083023608
6.9017655810 8.8868251294 13.1631182008
7.2675652059 9.1843111641 12.4582636287
7.4068378815 8.4168306664 13.0722319263
7.4067908938 7.8837220121 13.9569449373
7.2601518240 9.8595301970 12.0559457006
7.4999236321 11.1465907348 11.5357345284
7.5381690937 10.2445250359 11.6717816075
7.8539115310 10.2297175000 28.7904056258
7.3999614344 10.7078142791 28.5886408434
7.3845012510 12.1941763947 11.5357502833
7.3451549546 11.5039894280 28.1942966495
7.6754601039 12.9060360940 11.5813912885
7.2728373040 12.0313858231 27.9026948813
7.1209525231 12.5151233076 27.4641181473
7.8802989662 13.7462130723 11.7976267333
7.2254722250 13.0200293558 26.9950897702
7.1932780241 13.4774014019 26.4024280409
8.1401183115 14.4768263017 12.1534464389
7.7386521058 14.6157821713 24.6418945904
7.1459912574 14.9922848439 24.1440717657
7.6591084884 14.0585320614 25.5146284331
7.7070859331 15.1340307953 12.5049462847
7.1860682888 16.1304460332 13.4084006084
7.4403990235 15.7193774283 12.9801941472
7.9251572069 16.0344403617 13.6001447140
7.7778685246 15.7132525318 22.3006395353
7.0784505316 16.0671880455 21.8877921273
7.6055569056 15.3058347234 23.3061579688
7.4622548343 16.4057758653 14.1328961570
7.4812745743 16.8773761772 15.5706838754
7.5384800038 16.7000316491 15.1142112781
7.7648674652 16.9160273359 16.1623398554
7.9107812763 16.8144154334 16.1230760334
8.0105437623 16.8636727532 16.7926331284
7.6168624943 16.8619377608 18.9939602137
8.0650259596 16.7584797792 18.4664095639
7.8914645396 16.8877168765 18.3710073713
7.0086992246 16.8037469421 19.6747668077
7.5797169655 16.7245232909 19.4945423608
7.7754322158 16.4754042251 20.1977969795
7.3495481002 16.3306853961 21.0566655758
8.7782220609 1.4437757746 5.2636106810
9.2833365885 1.0539696482 5.8548981420
8.9310320839 1.0132563178 6.8018520706
8.2774865021 1.6804369357 6.8100144272
9.1974678195 0.7902103575 7.9577173099
9.0737492507 0.7635481434 8.8185349593
9.0069216172 0.7546827453 9.8103072396
8.9611579550 0.8212046001 10.7707438307
8.9068596473 1.0418497941 11.6524114633
8.5531694187 1.5987138954 11.7293988519
9.1787053432 1.2972795795 12.5809322757
8.9601137620 1.8131555442 12.5690432022
9.4967767773 1.6175150779 13.2189653227
9.1018700556 2.2226079859 4.0417146270
9.3206403515 2.3844555766 3.6410534162
9.5475324099 2.0427867219 3.8118565493
9.2079320645 1.7645744442 4.4870247931
8.7122613310 2.2502676898 4.8540025305
8.3563919736 2.3798825814 5.9752780671
8.2159372173 2.5932419525 6.9116500463
8.0759522192 2.3393003513 7.8573887381
8.0052122349 2.4142599241 8.9590533824
8.0677730989 2.4135054594 9.9373686179
8.2899224197 2.2658253621 10.9989050760
8.7197199111 2.3238265574 11.9971292466
9.0425143116 2.3303858927 12.6097304428
9.2704113273 2.0655107480 12.9841384012
9.1546046316 2.8702650461 3.8383551968
8.7928434827 3.0028188316 4.6628619946
8.5709491919 3.0080984810 5.4228205800
8.7599717509 3.4582066407 5.0464483683
8.3888076982 3.3771835619 6.4892320152
8.2158357765 3.3983725402 7.6619935565
8.1520278014 3.2928484294 8.7552549372
8.1625875763 3.1163005672 9.6047168224
8.3839937256 3.3075222354 10.5767551482
8.7009527234 3.0895660451 11.5421448910
9.2465883653 3.0476967506 12.4086411860
8.4901386056 3.3052232849 23.2294932924
8.6752083801 3.4219648167 22.4481921211
9.2264068952 3.0532962779 22.7232148495
9.2223331477 2.7536617707 23.7193882977
8.4028598742 3.2336119698 24.2241863629
9.1014314066 2.7956779618 24.8919052115
8.3546341000 3.3358296105 25.2025783074
8.9343223644 3.1285423448 25.7618380836
8.4175290556 3.4325504184 25.7984414264
8.6848188510 3.5171411708 26.2715365841
8.6407362089 3.7355248221 5.7357575267
8.5370456543 4.1530262446 6.4427238181
8.3749445320 4.5781768964 7.4313880070
8.5799688555 4.7368970127 6.6095323158
8.2632236809 4.3889666686 8.6968292174
8.3556114821 4.2252037010 9.9422399892
8.5802227048 4.1835510017 10.7858395607
8.7871959209 3.9184414098 11.3452198637
9.1083699343 3.7243137202 11.9309078775
8.2772091177 4.4293786280 20.1374964109
8.7234760319 4.5161078841 19.5116913670
9.1240345265 4.2043052066 20.0497218118
8.5975897930 4.0735204815 20.8077290465
7.9042416700 4.3549255221 20.8117751871
8.7679994907 3.6898030505 21.6793309887
8.4385948145 3.9757814132 26.7125432059
8.1830472894 4.4233409283 27.1059301598
9.0674212065 4.2600055680 27.3564374492
8.5606819906 5.5176160221 6.9863860376
8.8940196151 5.7197559317 6.1791265054
8.7506743900 5.0755346653 6.2174280281
8.3666146672 5.7077097685 7.9057553900
8.2980657920 5.5072531524 8.6958384647
8.3411837912 5.4059721082 9.7608430414
8.6063283448 4.7555528225 10.7959627902
8.5254295873 5.3530354950 10.6848896311
8.7739486191 5.2661849175 11.2870270262
8.1555731476 5.4825146155 17.8028184888
8.6313191980 5.6273280456 17.3210367138
8.9890317887 5.2214916503 17.9688982540
8.8041388338 4.8106616296 18.8519583934
8.2188165650 4.9790817235 27.7064982462
8.6743349326 5.5907837141 28.4056071137
8.7507164547 6.3663743477 6.8440459470
9.0086477101 6.2689492168 6.2367932830
8.4907060526 6.4671275112 7.7471816557
8.3439109820 6.4929654028 8.6910773134
8.3269519418 6.4904485330 9.6959476599
8.4466437460 6.4229021775 10.8567313140
8.7294299306 5.9323834484 11.5105838165
8.4026786194 6.5770016771 15.7661824751
8.7746617533 6.0636912285 16.5725454437
8.3948924469 5.9329464621 28.6839151899
7.7681140131 6.1540573348 28.7226188854
9.1556543945 6.8477214936 6.5172502196
8.7950716356 7.2466572463 7.4986484994
9.1011232947 7.4083489090 7.0254715800
8.5183315945 7.3810326985 8.6044556556
8.3878549175 7.3309156755 9.4959506535
8.3600819572 7.6873824735 10.6402819370
8.6088414038 6.5983043621 11.8408716235
8.3635424720 7.3076236857 11.8291587412
8.6586335323 6.8750633345 12.7109957704
8.0885748782 7.6278105429 13.0913722664
8.7707954009 6.9194547922 14.0225256389
7.9536832191 7.4087178028 14.1624440353
8.8688016270 6.7268292782 15.0819452222
9.2485998220 7.8972389447 7.4705298952
8.8795573348 8.0789570288 8.3878884192
9.3272226157 8.4206419347 8.1164657386
8.6161114559 8.4634219510 9.8215232491
8.4461697854 8.3993469176 10.5943501977
8.3430547883 8.3917622391 10.9861955493
8.0411641614 8.4574182606 11.7613070086
8.3374497555 8.6818862840 11.0422282292
9.2359277451 8.7475176419 8.9066260504
9.1495389329 9.2061837901 9.6726392272
8.7619599718 9.5493347783 10.3805001125
8.3128292564 9.1124033172 10.9267469108
8.4405647526 8.6894709626 10.6503828776
7.7776224780 9.5189460407 11.6755907068
8.5263098053 9.8113114829 28.8366331802
9.1329899160 9.2511813262 28.8219988707
8.6467782382 9.9732906979 28.6792295160
8.1822894482 10.1437791717 11.1398127086
8.9383042122 10.3113493904 10.7396109434
8.3914022833 10.9701115689 28.2574128578
8.4356253225 10.8890398017 11.1486328878
8.4797103566 11.7858207260 11.4093912208
7.9308363372 11.9347540777 27.8151678075
8.5631342079 11.5051405058 27.9116536975
8.6300549742 11.9723800100 27.5024337158
8.6541528658 12.8798278030 11.6861915157
7.9757714380 12.7578402476 27.0574054274
8.6670288848 12.4221333911 27.0865270898
8.6877323278 12.8392469535 26.6238515278
8.9135753588 13.7190193391 12.0344577805
8.1434621431 13.4081721311 26.2606396687
8.6786199924 13.2593256655 26.1570852217
8.5708112039 13.6382504165 25.6704970244
9.0476206731 14.4164751122 12.4753394448
8.4645128817 14.9420536363 12.5666566065
8.9964341339 14.9313764182 12.8647516051
7.8813767179 14.9350165099 24.0050307719
8.3541375812 14.6124514342 24.2548029749
8.4749943350 14.8754358742 23.5723580646
8.4494731652 14.1827882712 24.8934331096
8.5675695654 15.4355374587 13.2201613495
8.5939501450 15.9189899867 13.9220751916
8.1869028878 16.1496607141 20.8142718105
8.9093352248 15.9150205343 20.3434203058
8.4395706229 16.2632893694 20.0679483004
7.8375242710 16.0276872583 21.5489907605
8.7277303494 15.6323243686 21.4619138235
8.5444968213 15.2480345946 22.6434679854
8.2522374894 16.2186659037 14.2055253393
8.2798409702 16.3930157881 14.9029087329
8.3885334764 16.5295387686 15.9103615226
8.0702963468 16.8471034134 17.6967803245
8.4093195150 16.6356232772 17.1944154894
8.6221875439 16.4787223230 18.2768512304
8.3605140802 16.4663659294 19.2746247542
9.6157487682 1.2871595168 5.0629887909
10.2562619406 0.9478410828 5.7997353336
10.0100536896 0.7979766667 6.7145513570
9.9270955400 0.7037305111 7.7380085548
9.9223982493 0.6451406471 8.7730478988
9.8742489990 0.6392175060 9.7850584435
9.8222630570 0.6715728010 10.7969129891
9.7662653339 0.7748449557 11.7541539436
9.7529636267 0.9621849148 12.6150808598
9.7931224296 1.2140812502 13.2655763459
9.8556838901 1.4187534073 13.5619657259
10.2609093913 1.3677325452 13.6591593854
9.8213515673 2.5687557777 3.2320203619
10.3299040161 1.9730708726 3.6292948089
9.9753296466 1.5935619047 4.3138004655
9.4108533457 2.5557089689 12.9226348001
9.8102613119 2.2003286309 13.3379303232
10.0451488036 1.7161889251 13.6402106617
9.6725403172 2.2931551676 24.4222697379
9.9777701522 2.1851733270 23.7791917993
10.0708416125 1.9796500753 24.2793884305
10.2704260682 1.9469794560 24.8525141321
9.7334305856 2.3500358318 25.0931643700
10.1047339181 2.2505408890 25.4660841534
9.7480005391 3.5239573216 2.7987140855
10.2583657171 3.5764681564 2.1027201077
10.3946419646 3.0461351177 2.5061682817
9.3026851811 3.7122670792 3.6766274885
8.9915603247 3.5539756449 4.4086345788
9.6048544545 2.9486930811 12.8546443607
9.8564776394 2.7590147643 13.1100768149
9.2138246402 3.3097284072 22.0778064393
9.5891427072 3.4244393787 21.5966455017
9.9161426782 3.0750109554 22.1458023987
10.0713724406 2.5829205376 22.9511187484
9.7343422101 2.6823358403 25.7378478565
9.4865624253 3.2213723508 26.3938945167
9.1127581678 3.6888583009 26.8234610810
9.8967861316 3.6656613845 27.0181740252
10.0876588825 3.9691182032 2.0244534875
10.3889546760 4.2054519463 1.7600644045
10.4858673521 3.9042551452 1.7446086200
9.8941935252 4.1978663795 2.4489504638
9.6477184686 4.3770591183 3.2898031048
9.2283390989 4.3074179355 4.3285982925
8.8972190125 4.0733637573 5.1270392480
8.7427501665 4.4479683062 5.9250987642
8.8563521514 4.6962037757 11.3675883645
9.2619940389 4.4962054350 11.9610272790
9.7433773222 4.0391844729 12.4160315777
10.0982613655 3.3501015238 12.8581596342
9.4846048393 4.4592387542 19.3266911828
10.0735982126 4.1253759327 19.9781958674
9.6258903044 3.7902392152 20.8472176979
10.1272311583 4.3407507545 27.6197798060
10.1958340806 4.3443240404 2.0471576485
10.1587255520 4.6883633628 2.5858669169
9.9562587334 4.9842607970 3.3325437146
9.6401537116 5.1420419467 4.2561350041
10.1815988806 5.3599297236 3.7136757735
9.0693622740 4.9793289376 5.3580066729
9.1953158291 5.5017101320 12.1480467599
9.9913268050 5.0506735415 12.6251814232
9.5316206267 5.6074231601 17.1602118738
10.1968266710 5.2156520435 17.8510790167
9.8038185723 4.8084192639 18.6132376505
9.4280953252 4.9582979456 28.0118491748
9.9081303892 5.6999737635 28.4615145190
10.2155817748 5.7750738595 4.4479421968
9.4879038282 6.0307175455 5.4984860898
10.4189870874 6.3746832046 5.2076732529
8.8846865351 6.2796176734 12.2719478294
9.8570981914 5.8348912654 13.0657448308
9.2549617882 6.3386255437 13.1405789460
9.8804146037 6.2883012768 13.6450048736
9.5785261696 6.5496140111 14.0088754937
10.2644452352 6.5146606911 14.2361659749
9.3865559765 6.4116198425 15.7312525507
9.9977500368 6.0366443771 16.4300402543
9.2765392725 5.8803715064 28.6495591965
9.9194122648 6.8937515646 5.9969482583
9.5495180421 7.4568356425 6.7189932133
10.3470032139 7.4717971692 6.4559399672
9.7627699263 6.6282860084 14.8402146729
9.9715161117 7.7245426954 28.8655717837
10.1639286204 7.0847783190 28.7884914254
10.1341799080 7.7513301170 28.7530013071
9.9724863374 7.9552828039 7.0953718477
9.7053593715 8.3376042869 7.6671424844
10.3749518362 8.3766469731 7.5789611073
8.4207929746 8.5776280147 10.8294096239
9.7131891751 8.3866442435 28.8417515424
9.7397300130 8.8879894130 28.6527656741
9.9498533402 8.7349164617 8.3246659636
9.8429452612 9.2417280186 9.3069255680
9.4822843492 9.7819208529 10.1033191732
10.0513951029 9.6180867427 9.8523865879
9.5180036083 9.9963709892 28.3099661332
10.0191156753 9.8995297340 10.2631276233
9.7292886374 10.3620931143 10.7639973941
9.0507600712 10.9228638873 11.0560362201
9.6183692883 11.1519828563 11.3382350272
9.2066426347 11.1009978073 27.8293298610
9.9392735481 10.3455759164 27.9258508832
9.9790068118 10.9598553211 27.4785634300
9.4883590938 12.0573188389 11.6921756487
9.3219221828 11.9902905078 27.0282818132
10.1642410164 11.4668590187 26.9491420920
9.9183089705 12.1182192059 26.4403281467
9.5414589772 12.8732366266 11.9628895189
9.2840288463 12.9232573200 26.0109917338
10.2222083937 12.4843967359 25.6407145359
9.7132797620 13.1399936938 25.2502794583
9.8701300004 13.3747586726 12.3679079511
9.4022247957 13.9221552949 12.3270703424
9.8256727477 13.9911036394 12.7111546202
9.1338353469 14.2038879785 24.1113056621
9.7628261266 13.8023128141 24.0137584317
9.8348298140 14.0476959659 23.4357749424
9.1517760014 13.6409118675 25.0943214685
9.7199231477 13.5413056332 24.5538875627
9.2139121132 15.0501236409 13.1904636877
9.7253204777 14.5610791760 13.1780405109
9.5225185059 15.1057354234 13.6919070417
9.3827931133 15.0198928590 22.0542657479
10.1144901942 14.7684076195 21.4287349678
9.5697602362 15.2194706916 21.2511687971
9.2456289073 14.6640311448 23.0460385295
10.0766662298 14.3586496058 22.4418185257
8.8626909172 16.0342299338 14.6100360620
9.2148280247 15.5941405626 14.1482708210
9.0335935258 16.1230962594 15.5380850626
9.5610637585 15.6627220064 15.0707471457
9.1004880533 16.1994824196 16.6090293142
9.8078195741 15.6691918093 16.1690673546
9.1514822740 16.1856190452 17.6913024127
9.6893408124 15.8263581928 17.1451959495
9.1010009663 16.1269945450 18.7494670470
9.8962609242 15.6303376308 18.1594555847
8.8955372143 16.1215072695 19.5936777486
9.5838902940 15.6796822399 19.4744847830
9.5256634710 15.4667615647 20.5405577400
10.5663231252 1.2001371328 4.9832547664
11.2537547850 0.9044003594 5.7578640081
11.0298326142 0.7303160721 6.6614906261
10.8991574153 0.6405140135 7.6552950125
10.8470680690 0.6048281281 8.6953421758
10.8169806494 0.6066546331 9.7373124412
10.7653230704 0.6391548207 10.7670910117
10.6673745082 0.7039647361 11.7358999643
10.5650030867 0.8478861738 12.6012020568
10.4262096200 1.0740325788 13.2879907009
10.8218499990 1.3405833605 13.6438025977
10.5728988159 1.7310684713 24.1532801275
11.0717917426 1.7323810469 23.6891626777
11.1920735769 1.4765668000 24.1870127893
10.9720576190 1.5068385908 24.5498311560
10.6892476102 1.6396704485 24.6710392984
11.0170714076 1.7593550779 25.0678340335
10.7463033481 2.4191667813 2.9888814238
11.2663019414 1.9253421499 3.5558438599
10.9050343699 1.5305829933 4.2373530112
10.3481671164 2.1067757869 13.6522271031
10.6823336180 1.7642652216 13.7657415617
10.5630021347 2.0475720300 23.3944894986
10.7888492043 2.3317894573 22.9147388645
11.0519213138 2.0345203643 23.2322716340
10.5680960235 2.1102371973 25.5515884556
10.3290807239 2.4163305041 25.8740215481
10.6463983075 2.3752579294 25.9505051640
10.8900121594 3.4991017471 2.0151240599
11.2068519880 2.8766813865 2.4614406666
10.7037320364 2.1779179517 13.6902914494
10.5442067141 2.6276364271 13.3653169335
10.4450808871 3.3916193542 21.4742244520
11.0284921185 2.8511039867 22.3754160788
10.5918672658 2.9023267050 26.3230465895
10.9365817687 3.8252547712 27.1221419533
10.6753069756 4.1716428083 1.6588260686
10.8983191441 3.9494505321 1.7248824039
10.9596312730 3.3497004508 12.9906549389
10.9113290842 4.5028264992 12.6798500876
10.4261602880 4.4623487666 19.3013779887
10.9703494387 4.1942221102 19.9670608474
10.7590684129 3.8250378146 20.6836547451
10.8853274343 4.5242729481 27.7025389599
10.7640029081 4.4936739190 2.0382009657
10.6071100510 4.9618929361 2.5089233035
11.0092209692 4.9440933952 2.4893194363
10.4036624468 5.1722157832 3.0487093417
10.6484883666 5.3533556260 12.9374467202
10.3570430832 5.6477713431 13.1195634790
10.7901228052 5.9023196360 13.2385365659
10.6519335302 5.6658992474 17.1190356710
11.2673987725 5.3491783847 17.8681625563
10.9777941502 4.8694734042 18.7280762975
10.4195448873 5.0176449492 28.0764945628
10.7438942567 5.6490189376 28.3013362341
10.8374511347 5.2058252090 2.8641380739
10.9155851867 5.5119847881 3.6730786644
10.9243181296 5.9967031635 4.5556233617
11.3293716314 6.3805760252 5.1579052857
10.4790794582 6.2017979200 13.5985875610
10.9273210726 6.6674545181 14.1492897154
10.5049080348 6.4453444487 15.7144874478
11.1098817567 6.1487981809 16.4652129485
10.0020362649 6.3077332126 28.6918953645
10.5832799454 6.6277931914 28.5393842001
10.9070827270 6.9613935960 5.8533148588
11.0377964149 7.4498365165 6.3998079715
10.9673666422 6.7686834029 14.9275040740
10.7207383275 7.9207950734 28.4065699101
10.9795495714 7.8881523047 7.0013276581
11.0684262430 8.3411027752 7.6280429401
10.3626547961 9.0835006213 28.2915501872
10.8082136853 8.6394527529 8.1399810137
10.6626174871 8.9368139712 8.9381950492
10.3984918023 9.6563210085 10.1262843320
10.5494855541 9.3061164599 9.6866824763
10.8937663546 9.3563313646 10.3643565507
10.2474345018 9.7395991781 28.0959794425
10.6417537179 9.3728008156 28.0340444066
10.6612242284 10.0200482704 27.6409516732
10.4320329683 9.9074532802 10.6337700799
10.3431146425 11.3423558088 11.8484987574
10.5093764791 10.3772680630 11.3549864499
11.0936214426 10.5697520884 12.1625091937
10.5193729212 10.8636687216 27.2042804700
10.2018442958 12.2406204227 12.1064915423
10.9950972448 11.6352722450 12.5121518007
10.6125231040 11.1736240730 26.8880445012
10.6080940348 11.6265013408 26.3861886111
10.0779587531 12.8095524725 12.2136001843
10.6225953630 12.6567409688 12.5998853458
10.3488487465 13.3672674427 23.9430771858
11.1044375224 12.8985690467 23.6216400977
10.7807438658 13.3748234595 23.2615613069
10.1896013089 13.0092300602 24.8392378788
10.9434976421 12.4652549525 24.7012709480
10.9038878862 11.9594542398 25.6391709412
10.2182139352 14.0333525544 13.1255183948
10.6432037147 13.4075601598 13.1122829067
10.5577868032 14.0547764889 13.6439413949
10.4349731541 13.7681938878 23.0673490452
10.7981119226 13.5666337858 22.8887734784
10.7673760067 13.8166761108 22.4512962721
9.9524430758 15.1671450161 14.5568252299
10.2737018749 14.6297091242 14.0715646766
10.2386527617 15.2021347539 15.4838182831
10.6265856411 14.6792158541 14.9849062219
10.4371088272 15.1802433582 16.2485183797
10.8070145319 14.7505545715 15.8799262760
10.8049204065 14.8840413290 16.5787786604
10.4088278315 15.1764544992 18.9756466409
11.0016734875 14.7258147847 18.8176973220
10.8113538561 14.9224137037 17.9895620417
10.2163785031 15.1459210517 19.9431223572
10.7943049226 14.7993749959 19.5005855545
10.0596527072 15.0571156472 20.7271063773
10.8050820074 14.5477775074 20.4670310928
10.7550949234 14.2002833908 21.6189315595
10.3722056610 15.2960090190 17.0713874602
11.5345166878 1.1740526789 4.9470401115
12.1453915278 0.8996940525 5.7037625928
11.9507282632 0.7142356170 6.5877513275
11.8201948344 0.6218205866 7.5704483843
11.7518812217 0.6004885566 8.6138676272
11.7057840070 0.6226317127 9.6458893784
11.6745779221 0.6905394725 10.6624975178
11.5605430825 0.7821284835 11.6664379515
11.2962857493 0.8576626371 12.4385479830
11.2632759599 1.1455832169 13.1780101384
11.3026982509 1.6051163411 13.6263280370
11.4740584997 1.5930429021 23.9327481828
11.5675794509 1.4804631585 24.2798518684
11.3835649582 1.4853209050 24.6101714710
11.5806443379 1.7424688828 24.9029562743
11.6471627495 2.3720467470 2.9719256028
12.1407042815 1.9617784565 3.5591479758
11.8359186420 1.5292744378 4.2111557621
11.1875205504 2.1331136344 13.6011156526
11.6124093413 1.8490594550 13.5606460607
11.8007682038 2.1470115896 13.3384565555
11.2803237919 2.3265480118 22.9723043894
11.5483056335 1.9857064045 23.5271328595
11.0323885202 2.2749940920 25.7448886741
11.5094027175 2.0823289026 25.3187903191
11.5920361201 3.2771089045 2.2243608577
11.9855080878 2.8354238918 2.5708401419
11.4151639042 2.7277918405 13.2098567853
12.0293036774 2.5967832067 12.9804079999
11.8083520126 3.4294448135 12.6943955669
11.6698244862 3.5752563651 21.5241332417
12.0455277909 3.1757811947 22.3766432397
11.8978598734 2.6372297272 23.1518312567
11.6806063164 2.7680943332 25.8459604880
11.4245322142 3.2849734632 26.5408633002
11.8525327977 3.2866186734 26.3476374856
10.9653122709 4.1660467591 1.7504240790
11.5233975931 3.9324038672 2.1227588548
12.0324449807 4.5072538929 12.2317088580
11.1974083814 4.4999738183 19.4883989294
11.5875402929 4.3615286368 19.9837860265
11.6068613194 4.0703485633 20.5807888346
11.8743894629 3.8242806125 26.7363025546
11.5558904199 4.4978097602 27.4151964530
11.3599052108 5.1219182354 3.0145331172
11.5256957031 4.6273009310 2.5331629799
11.7153217566 5.3266109573 3.6541607931
12.1819219779 4.8032432738 3.3210997551
12.2199355529 5.2623155487 3.9773581447
11.1633938109 5.7755056477 12.9018726643
11.7423339778 5.6963543668 12.2775746925
11.7731708517 5.8689429790 17.2458429020
11.9514204552 5.5158777360 17.9049132907
11.9804573642 5.2499015122 18.6729663299
11.8887914316 4.7628710839 19.6218047761
11.1995764086 5.1157908906 27.9403619808
11.3794921625 5.9290617413 28.1184953730
11.9015762956 5.7598803399 4.5038140911
12.0729075207 6.2930300716 5.2915674356
11.5765954997 6.6747773360 12.6198815923
11.8417678578 6.7109226920 12.0400793882
11.2569918246 6.6874627402 13.4517873287
11.7140742830 6.7231047113 15.9144756999
11.8681964397 6.3213223993 16.5615557307
11.4163836354 6.8773025256 28.1832388016
11.8470975844 6.7337463995 5.7801757364
11.4082760916 7.5585134499 6.6298002730
11.6366265906 7.2221160637 6.3163710333
11.9669814136 7.5586276041 6.9749161662
11.7326713565 7.6239468736 11.9652090024
11.9674737914 7.1840880773 11.5788685224
11.8731346859 7.8004927096 11.2631427147
11.6756814310 7.6941896367 12.8877467469
11.7261525785 7.5563824272 13.6197273764
11.6171003435 7.2516704178 14.3294354916
11.8508196422 7.2100405561 15.1568211477
11.4877011100 7.6652347532 28.0619144172
11.9506408858 7.0843395331 27.8412466873
11.9722722599 7.8400847100 27.6415323702
11.4154480387 8.4426968873 8.0500183730
11.7877409780 8.0435123280 7.6852042983
11.8987099224 8.2473830342 8.3779821322
11.5062415877 8.6829479482 11.0530287663
11.8937890820 8.0938857919 10.7623920199
11.7401305501 8.4343525639 10.4291326251
11.6268761541 8.6444322516 12.2028730505
11.8217108180 8.6256517506 12.9241965422
11.9048039257 8.1801943700 13.3852002674
11.1891302706 8.7479090318 27.8921934941
11.9471991154 8.7180599769 27.3271795579
11.4158073069 8.5822372554 8.7059839986
11.3983660723 8.7313990317 9.7926833847
10.9422735100 9.6108885688 11.0247628086
11.2501497448 9.5992243620 11.7420621918
11.6865959840 9.6411450525 12.6909562454
11.4897719482 9.5544717805 27.2705692907
11.9618828752 9.2851936370 27.0336761042
11.9153341984 9.9224619945 26.6103812888
11.6067019762 10.8143670817 12.8955028582
11.1135137300 10.6700213989 26.8270787850
11.6676932128 10.7268828087 26.2370118973
11.5635800291 11.5784628062 13.0764615823
11.2842149601 12.2275210507 13.0376262790
11.7187914780 11.9714581625 13.4902527514
11.4295126481 11.7317672967 25.2829842803
11.8999597149 11.4246178444 24.9761351415
11.6291704064 11.9080668931 24.6269123820
11.2749348703 11.3376183480 26.0305916498
11.8160085776 11.0951240664 25.6093096854
11.0501651939 12.7685332424 13.0673922947
11.4465534663 12.7063508576 13.6075246960
11.1882839498 13.2690042727 22.7958154780
11.6400224498 12.6594596216 23.1260450682
11.8130685219 12.8946057609 22.3244376594
11.6494125639 12.2486403195 23.8907940183
10.9691545335 14.0975939081 14.5012931411
11.2170118774 13.4686147067 14.0122972548
11.2150958529 14.1638180469 15.4407027388
11.5470588686 13.5176283238 14.8964141146
11.2863656450 14.3212717053 16.4748842698
11.7295403483 13.5689313443 15.8627062802
11.3887032717 14.3323917887 17.4321293920
11.8113390069 13.6773727636 16.8841026472
11.7965283572 13.8359448750 17.7314102897
11.3885821666 13.8913402435 21.0130055662
11.8830484816 13.5149085924 20.5326218158
11.5357410034 13.9771524153 20.1881869904
11.3174102402 13.5876863882 21.9229392337
11.8889572140 13.2396166645 21.3455336028
10.9654129128 14.7747843892 17.1263490229
11.4265661008 14.3219552392 18.3064986461
11.3972340257 14.2510706959 19.3374372159
12.3635466026 1.1920050661 4.9132696025
12.7690030771 0.9193314970 5.6171220691
12.6349394429 0.7238459478 6.4400627941
12.5209837630 0.6237143559 7.3935889648
12.4557002644 0.6087641154 8.4449643422
12.4230210518 0.6778062802 9.5415707523
12.3262942847 0.7540969495 10.4326875098
12.4378910186 1.0006484119 11.4423744774
12.0485016450 1.1442701674 12.5238310449
11.9076143195 1.6008430372 13.2478926490
12.4415406508 1.5885089876 12.7906683358
11.7839200326 1.7736271638 24.1485633299
11.7277225427 1.6373841255 24.5571485632
12.4131213315 2.4554742674 3.0466350939
12.7818707913 2.1318021878 3.5661019611
12.5773056010 1.6053808309 4.1827712119
12.3172493879 2.0548628884 12.9668906064
12.7092680048 1.9386036524 12.5543642789
12.5696017330 2.6757181352 12.4710333152
12.0037473799 2.2469987754 23.9211808061
11.9698912234 2.2117403986 24.7759691656
12.2043870163 3.3101188253 2.4280519619
12.5478541355 2.9005318409 2.7401025575
12.5532125573 3.6730782114 12.1193397124
12.2592607495 3.4877991429 22.0131917905
12.5394656768 3.5228520900 22.4183129306
12.5517633289 3.2935949415 23.1154198346
12.4603439772 2.9291895949 24.1412523759
12.3942588907 3.0572064508 25.2503334012
12.2323990353 3.4075860309 26.0579502247
12.6717568380 3.6589074956 25.6664961338
12.3886470002 3.7091946622 2.5823453379
12.2260720764 4.2157841411 2.7533655697
12.5786130997 4.3163173904 3.1764446896
12.8429200120 3.8072725058 3.1124486120
12.8212354997 4.4150767208 3.5802615420
12.6131221264 4.4541827263 11.8229359425
12.9458628894 4.0045256078 11.6530172211
12.9312231484 4.8161986314 11.3595196583
12.0480002355 4.4239520353 20.3637488475
12.3014309574 4.2372607930 21.1272445224
12.5260870220 3.9014089936 21.9420430795
12.5257416189 4.0787407248 26.3069409170
12.2483996093 4.6275953780 27.0013296547
12.7729991824 4.8581566448 26.4963028554
12.4326421603 5.3755599262 4.3415304940
12.7529334395 4.9730459714 4.1328970048
12.6978905799 5.4963893721 4.7220839922
12.4439348298 5.3935750315 11.6422515256
12.8596946668 5.5917531276 11.0937830704
12.2002115937 5.7401693175 17.7394924172
12.3802171689 5.6542433085 18.2256490305
12.5816887551 5.6139873918 18.9166007010
12.5602218859 5.3391044072 19.6853262961
12.5439755686 4.8513441208 20.5842259748
12.4951198098 5.4127756473 27.1583323841
12.8776358777 5.5673348610 26.7003169662
11.8939028511 5.2704857336 27.6165597945
12.4628851339 6.4966126848 5.7691017584
12.7025972657 6.0215532075 5.3465245152
12.8391653587 6.4679092191 5.9745527311
12.6164867446 6.3517370692 10.9384105981
12.9453977235 5.9636859871 10.7747751369
12.9640704481 6.4304157276 10.3573926475
12.1484552836 6.4414335001 11.5933115012
12.1607723015 6.5897306766 16.4309999131
12.3304292878 6.4385506110 16.9183755350
12.5166235580 6.1499785415 17.7521227276
12.7425077190 6.0016620906 18.5678643825
12.6623724243 6.0680247121 27.1390434032
12.5108164533 6.9567962771 27.2632603205
12.1071335230 6.2064897871 27.6869579168
12.5653778733 6.9355474267 6.4666816282
12.6666235929 7.3690051785 7.2697916724
12.5712463072 7.2463693488 10.1146962426
12.9517272084 6.9159707807 9.8867777212
12.8192257251 7.3275919417 9.3591844611
12.1816305793 7.3319734387 10.9232390698
12.0650092484 8.1013757212 14.0163555876
12.3285956334 7.9280518954 14.8827833102
12.4070908950 7.4698465892 15.7321063528
12.4635597958 6.9880304024 16.4440846485
12.9791604122 8.0773347273 19.0128757860
13.0328310437 7.5668696490 18.5257937978
13.0486632439 8.2424311733 18.2375781751
12.9786905583 7.9917825800 19.7916832218
13.0265966195 7.3881971666 19.2557844086
13.0439476006 7.9776303141 20.4306551203
13.0780522629 7.4053493860 20.1017281670
13.1491495206 7.6540437195 20.7915895633
12.4861727122 8.0060829232 27.0425274353
12.4438285672 7.6707626936 7.6441790365
12.1418128489 8.0540921325 9.2473415983
12.5161396207 7.7602340085 8.4196158745
12.0260831997 8.0342729251 10.1901223293
12.1163280984 9.0368527428 13.5663802341
12.4827992299 8.8019261269 14.4260318783
12.7483163443 8.6427804308 15.0943620911
12.7581898251 8.1696631365 15.5791355926
12.9762692077 8.8077019546 18.8030435949
13.0767183896 9.0526947408 18.1307506698
12.9378274903 8.6997423805 19.5668433424
12.9974421472 8.5957853915 20.3325461740
13.1340845988 8.3620675870 21.0108248013
12.3845916065 8.9722616256 26.7143753016
12.8131684491 8.2857437197 26.4539404939
12.8000363650 8.8854633196 26.1275267515
12.0965256637 10.2386592733 13.5276573104
12.5119759900 9.7866022588 14.2690207332
12.8326663919 9.4136519816 14.9902172239
13.0149784412 9.4254600714 18.6990923937
13.0877765934 9.7493431036 18.3299164671
12.9727306840 9.4189406159 19.3523375114
13.0009216909 9.3397197068 20.1471991874
13.1117157429 9.2032344447 20.9417992162
12.5072666960 9.7149276796 25.9371530593
12.9265928250 9.1707921297 25.5713596020
12.8114162046 9.7924168353 25.1734832454
11.9627753561 11.2649831492 13.5802648231
12.4309110513 10.9481415197 14.4325494826
12.8165051379 10.3169564477 14.9894753827
13.0455351809 10.0476324770 19.0543805057
13.0535544835 10.0778339996 19.9627822477
13.1086881629 9.8845929307 20.7068813330
12.6262666831 11.0041474004 23.9055956265
12.9839079406 10.4964245089 23.5104210416
12.8293754277 11.0911411189 23.1158713341
12.3780330685 10.6754827626 25.0469134168
12.9009546455 10.1410571746 24.3442807409
12.0869471582 10.4544227778 25.9255096120
12.0302000862 12.0799174884 14.2756360335
12.7582169665 11.0428965473 15.2619401348
12.4589144028 11.8932772367 15.4200230419
12.5850152665 12.1250866931 16.6514456209
12.8423022643 11.3069054332 16.0274412713
12.6512442790 12.1850081115 17.7597032281
12.9071435515 11.3826424201 17.0093476398
12.7099725561 12.1695071567 18.7761404597
12.9320005556 11.4072618545 18.0551356120
12.7441930962 12.1836237998 19.6996794979
12.9415832970 11.5023312812 19.0972864748
12.9492295996 11.6651101156 19.9177298898
12.3265734827 11.9356731449 22.9994250014
12.8571119699 11.3740904487 22.4907400269
12.7171742472 11.8707223522 22.0344845829
12.1148967780 11.5549366508 24.2504512150
11.7249913754 12.9292253559 14.3841233646
12.0099884540 12.8174469216 15.1763086939
12.1839250555 12.8655489327 16.2474895698
12.2253277928 13.0539882595 17.4845245637
12.3667425813 12.9002258278 18.5928019323
12.4787557512 12.7260783302 19.4373312564
12.8139683874 12.0757767649 20.4042150691
12.4048006426 12.7648527811 20.5038029391
12.3576854513 12.5032558852 21.7448685273
12.7686316533 12.0475621835 21.1820547121
11.9160883938 13.6680885406 18.5087245878
12.0338042414 13.4440804626 19.5885543961
12.8486433665 1.2503463455 4.8637862740
12.9913345102 0.9343811996 5.5651576188
12.9462205289 0.7651292310 6.1885639759
12.8542652008 0.6471835678 7.0598029829
12.7867919895 0.6126015302 8.0793513389
12.7693531753 0.6906902487 9.2232148457
12.8586588157 1.0091564833 10.6093727770
13.0831988595 1.5490378145 11.5230845191
13.3377385210 1.7089937945 11.2055514288
12.7343839581 1.4955568519 12.2130583203
12.9287897946 2.7776963029 3.1345058460
13.0670510978 2.4484490469 3.5154490029
12.9409360473 1.8135052361 4.0332777967
13.3996423405 2.3244199726 11.4379589667
13.5384148620 2.2108208517 11.2426434338
13.5674592216 2.7851716429 11.1981673445
13.0274924816 2.1318715941 12.0189188381
12.7591177525 3.2733706618 2.8053756630
13.0266942700 3.2501253043 3.0829453194
13.1104843069 3.2479342673 3.3150042484
13.4553822694 3.1557337817 11.2803298504
13.5139266265 3.6544090705 11.0564978821
13.1037419962 3.1163144465 11.7353549493
12.9534498904 4.0711919283 22.8862686835
12.9628416128 3.7919377579 23.9691871322
12.8558414939 3.6562959330 24.9388619738
13.0282041816 4.5276659654 3.9448478123
13.0815613304 4.1150815993 3.6694778537
13.0724316486 4.6988298167 4.1844737478
13.2886932092 4.1058680485 11.1966560316
13.4240674269 4.7224240733 10.7618511424
12.9911502123 4.8583975020 21.9223259021
13.2736697388 4.9178169000 23.1108701417
13.2646356191 4.6650391047 23.9419831406
13.1657314601 4.4877009970 24.8990761378
12.9354245657 4.3051790472 25.7159350969
12.9639637957 5.6245921428 5.0851847462
13.0087273308 5.2893129120 4.7470583613
13.0378551207 5.7859112069 5.3282908207
13.1887727852 5.4789180777 10.6870743481
13.4003557461 5.7600151203 10.2226448745
12.9420612561 6.1101578287 19.5357163785
13.0463185867 5.7516646258 20.8824670197
13.3017214532 5.8868481853 22.0769479659
13.3776487659 5.6922964049 22.9547979608
13.4210713571 5.5773719323 23.9358710000
13.3466610477 5.4415331982 24.8940360091
13.1234641257 5.3042058044 25.8949287652
12.9706642704 6.6054333756 6.2531506311
13.0254794211 6.3090978422 5.9248243083
13.0050654418 6.7425604286 6.5206058895
13.2295986071 6.5434878714 9.7697741305
13.4238688463 6.3645744981 9.7142251237
13.3485488218 6.8203891360 9.1583107825
12.7833684592 6.9422550873 17.2864620143
12.9541788317 6.7716790413 18.5143957017
13.0760788553 6.8469578261 19.6107169793
13.1724309073 6.8550299800 20.6359772054
13.3307049543 6.7288430453 21.8173384814
13.4431160065 6.6351721354 22.8798985872
13.4715609492 6.5172074060 23.8680616544
13.4257080186 6.3995993651 24.8198697934
13.2615175356 6.3197416970 25.7380611211
12.9752277870 6.2548176081 26.5819168629
12.9240726309 7.4129836419 7.9633149921
12.9874716998 7.1378331056 7.3192176208
13.1051284077 7.1964067084 8.8257941999
13.2084224864 7.1586909427 8.3210234929
12.9215808908 7.9323478385 16.5556042762
13.0352762199 7.6226472026 17.7260604502
13.2880317769 7.8222599259 21.6550348214
13.4170224907 7.6337079212 22.7691825665
13.4562852933 7.4759883690 23.7816570195
13.4095259045 7.3451997273 24.7375400057
13.3053644832 7.1449113482 25.5193322803
12.9909142636 7.3213543777 26.3897557325
13.0217177547 8.9742406856 15.8259153517
13.1504859367 8.9568996782 16.7261903566
13.1176431541 8.5443391340 17.4399847596
13.2527806676 8.9449474224 21.7436895033
13.3456785992 8.6850995220 22.6609193776
13.3691942289 8.4701061920 23.6961378357
13.3540411880 8.1585583114 24.5533859939
13.1460307879 8.2076117135 25.5804778285
13.0470097686 9.9760415235 15.6649321180
13.1623830025 9.7894814436 16.5194461765
13.1591519508 9.6036246611 17.5154784543
13.2060510232 9.9514325921 21.5785982653
13.2749859087 9.5658261899 22.4304188189
13.2124924453 9.5985949101 23.4557833807
13.1493358599 9.1121248776 24.6873067281
12.9673432807 10.6732030738 15.6174106061
13.0670114249 10.6312048175 16.3279159906
13.1034634768 10.5726310270 17.2894256508
13.0786710081 10.5576826069 18.4190297199
13.0594815863 10.8915650086 19.7028946439
13.1314444026 10.6472687360 20.8547355339
13.1778126388 10.6435768496 21.6752614158
13.1245445096 10.5307550277 22.5233823967
13.0059148603 11.4826564808 20.6330907884
13.0259715174 11.2747851200 21.6507716100
3 2 1 0
3 4 3 0
3 0 3 2
3 4 5 3
3 8 7 6
3 8 6 1
3 6 0 1
3 6 9 0
3 11 4 10
3 4 9 10
3 4 0 9
3 4 11 5
3 14 13 12
3 12 15 14
3 7 16 6
3 6 16 9
3 9 16 17
3 9 17 10
3 13 18 12
3 12 18 15
3 21 20 19
3 23 22 19
3 19 22 21
3 23 24 22
3 27 26 25
3 1 2 25
3 2 27 25
3 2 28 27
3 3 19 20
3 28 3 20
3 2 3 28
3 19 3 5
3 29 19 5
3 23 19 29
3 24 23 30
3 30 23 29
3 33 32 31
3 35 34 31
3 31 34 33
3 34 35 26
3 26 35 25
3 35 7 25
3 7 8 25
3 25 8 1
3 10 36 11
3 29 5 11
3 36 29 11
3 37 29 36
3 30 29 38
3 38 29 37
3 41 40 39
3 41 39 32
3 32 39 31
3 39 13 31
3 13 14 31
3 31 14 15
3 42 31 15
3 35 31 42
3 43 16 7
3 35 43 7
3 42 43 35
3 16 43 44
3 45 16 44
3 17 16 45
3 10 17 36
3 17 46 36
3 17 45 46
3 36 46 37
3 37 46 47
3 37 47 38
3 40 48 39
3 48 50 49
3 48 49 18
3 39 48 18
3 13 39 18
3 49 51 18
3 18 51 15
3 51 52 15
3 52 42 15
3 42 52 43
3 43 52 53
3 43 53 44
3 50 54 49
3 49 54 51
3 57 56 55
3 59 58 55
3 55 58 57
3 61 60 59
3 59 60 58
3 61 62 60
3 65 64 63
3 67 66 63
3 63 66 65
3 69 68 67
3 67 68 66
3 68 69 56
3 69 55 56
3 69 70 55
3 55 71 59
3 55 70 71
3 59 72 61
3 59 71 72
3 62 61 73
3 61 74 73
3 61 72 74
3 74 75 73
3 78 77 76
3 80 79 76
3 76 79 78
3 79 80 64
3 80 63 64
3 80 81 63
3 81 20 21
3 67 81 21
3 63 81 67
3 67 21 22
3 67 22 69
3 69 22 24
3 82 69 24
3 70 69 82
3 70 83 71
3 70 82 83
3 71 84 72
3 71 83 84
3 72 85 74
3 72 84 85
3 75 74 86
3 86 74 85
3 89 88 87
3 91 90 87
3 87 90 89
3 90 91 77
3 91 76 77
3 91 92 76
3 92 26 27
3 80 92 27
3 76 92 80
3 80 27 28
3 80 28 81
3 81 28 20
3 30 93 82
3 30 82 24
3 82 94 83
3 82 93 94
3 83 95 84
3 83 94 95
3 84 96 85
3 84 95 96
3 86 85 97
3 97 85 96
3 100 99 98
3 100 98 88
3 98 87 88
3 98 101 87
3 101 32 33
3 91 101 33
3 87 101 91
3 91 33 34
3 91 34 92
3 92 34 26
3 38 102 93
3 38 93 30
3 93 103 94
3 93 102 103
3 94 104 95
3 94 103 104
3 106 96 105
3 96 104 105
3 96 95 104
3 96 106 97
3 98 99 107
3 107 99 108
3 107 40 41
3 101 107 41
3 98 107 101
3 101 41 32
3 44 109 45
3 110 46 45
3 110 45 109
3 111 47 46
3 111 46 110
3 102 38 47
3 111 102 47
3 112 102 111
3 114 103 113
3 103 112 113
3 103 102 112
3 103 114 104
3 104 114 115
3 104 115 105
3 107 108 116
3 116 108 117
3 118 48 40
3 107 118 40
3 116 118 107
3 118 50 48
3 51 119 52
3 120 53 52
3 120 52 119
3 109 44 53
3 120 109 53
3 121 109 120
3 123 110 122
3 110 121 122
3 110 109 121
3 110 123 111
3 111 123 124
3 111 124 112
3 112 124 125
3 112 125 113
3 117 126 116
3 128 127 126
3 127 116 126
3 127 118 116
3 129 54 50
3 118 129 50
3 127 129 118
3 119 51 54
3 129 119 54
3 130 119 129
3 132 120 131
3 120 130 131
3 120 119 130
3 120 132 121
3 121 132 133
3 121 133 122
3 128 134 127
3 127 134 129
3 129 134 135
3 129 135 130
3 130 135 136
3 130 136 131
3 139 138 137
3 141 140 137
3 137 140 139
3 143 142 141
3 141 142 140
3 145 144 143
3 143 144 142
3 147 146 145
3 145 146 144
3 147 148 146
3 151 150 149
3 153 152 149
3 149 152 151
3 155 154 153
3 153 154 152
3 154 155 138
3 155 137 138
3 155 156 137
3 156 56 57
3 141 156 57
3 137 156 141
3 141 57 58
3 141 58 143
3 143 58 60
3 143 60 145
3 145 60 62
3 157 145 62
3 147 145 157
3 148 147 158
3 147 159 158
3 147 157 159
3 159 160 158
3 163 162 161
3 165 164 161
3 161 164 163
3 164 165 150
3 165 149 150
3 165 166 149
3 166 64 65
3 153 166 65
3 149 166 153
3 153 65 66
3 153 66 155
3 155 66 68
3 155 68 156
3 156 68 56
3 73 157 62
3 157 73 75
3 167 157 75
3 159 157 167
3 160 159 168
3 168 159 167
3 171 170 169
3 171 169 162
3 169 161 162
3 169 172 161
3 172 77 78
3 165 172 78
3 161 172 165
3 165 78 79
3 165 79 166
3 166 79 64
3 86 173 167
3 86 167 75
3 168 167 174
3 167 175 174
3 167 173 175
3 175 176 174
3 179 178 177
3 179 177 170
3 170 177 169
3 177 88 169
3 88 89 169
3 169 89 90
3 169 90 172
3 172 90 77
3 97 180 173
3 97 173 86
3 182 175 181
3 175 180 181
3 175 173 180
3 175 182 176
3 185 184 183
3 185 183 178
3 178 183 177
3 183 99 177
3 99 100 177
3 177 100 88
3 105 186 106
3 186 187 106
3 106 187 97
3 187 188 97
3 188 180 97
3 180 188 181
3 183 184 189
3 189 184 190
3 189 108 99
3 189 99 183
3 113 191 114
3 192 115 114
3 192 114 191
3 192 193 115
3 115 193 105
3 193 194 105
3 194 186 105
3 186 194 187
3 189 190 195
3 195 190 196
3 195 117 108
3 195 108 189
3 122 197 123
3 198 124 123
3 198 123 197
3 199 125 124
3 199 124 198
3 191 113 125
3 199 191 125
3 200 191 199
3 202 192 201
3 192 200 201
3 192 191 200
3 192 202 193
3 196 203 195
3 203 205 204
3 203 204 126
3 195 203 126
3 117 195 126
3 204 128 126
3 131 206 132
3 207 133 132
3 207 132 206
3 197 122 133
3 207 197 133
3 208 197 207
3 197 209 198
3 197 208 209
3 211 199 210
3 199 209 210
3 199 198 209
3 199 211 200
3 200 211 212
3 200 212 201
3 205 213 204
3 213 215 214
3 213 214 134
3 204 213 134
3 128 204 134
3 216 135 134
3 216 134 214
3 217 136 135
3 217 135 216
3 206 131 136
3 217 206 136
3 218 206 217
3 220 207 219
3 207 218 219
3 207 206 218
3 207 220 208
3 208 220 221
3 208 221 209
3 209 221 222
3 209 222 210
3 215 223 214
3 214 223 216
3 216 223 224
3 216 224 217
3 217 224 225
3 217 225 218
3 218 225 226
3 218 226 219
3 229 228 227
3 231 230 227
3 227 230 229
3 233 232 231
3 231 232 230
3 235 234 233
3 233 234 232
3 235 236 234
3 239 238 237
3 241 240 237
3 237 240 239
3 138 139 241
3 139 240 241
3 139 242 240
3 140 227 228
3 242 140 228
3 139 140 242
3 227 140 142
3 227 142 231
3 231 142 144
3 231 144 233
3 233 144 146
3 233 146 235
3 244 243 148
3 148 243 146
3 243 236 146
3 236 235 146
3 244 245 243
3 248 247 246
3 250 249 246
3 246 249 248
3 150 151 250
3 151 249 250
3 151 251 249
3 152 237 238
3 251 152 238
3 151 152 251
3 237 152 154
3 237 154 241
3 241 154 138
3 158 244 148
3 253 252 160
3 160 252 158
3 252 245 158
3 245 244 158
3 253 254 252
3 257 256 255
3 257 255 247
3 247 255 246
3 255 162 246
3 162 163 246
3 246 163 164
3 246 164 250
3 250 164 150
3 168 258 253
3 168 253 160
3 254 253 259
3 253 260 259
3 253 258 260
3 263 262 261
3 263 261 256
3 256 261 255
3 261 170 255
3 170 171 255
3 255 171 162
3 174 258 168
3 260 258 264
3 258 176 264
3 176 265 264
3 176 258 174
3 268 267 266
3 268 266 262
3 262 266 261
3 266 178 261
3 178 179 261
3 261 179 170
3 181 269 182
3 269 270 182
3 270 176 182
3 270 265 176
3 273 272 271
3 273 271 267
3 267 271 266
3 271 184 266
3 184 185 266
3 266 185 178
3 187 274 188
3 274 275 188
3 188 275 181
3 275 276 181
3 276 269 181
3 269 276 270
3 271 272 277
3 277 272 278
3 277 190 184
3 277 184 271
3 193 279 194
3 279 280 194
3 194 280 187
3 280 281 187
3 281 274 187
3 274 281 275
3 277 278 282
3 282 278 283
3 282 196 190
3 282 190 277
3 201 284 202
3 284 285 202
3 202 285 193
3 285 286 193
3 286 279 193
3 279 286 280
3 283 287 282
3 287 289 288
3 287 288 203
3 282 287 203
3 196 282 203
3 288 205 203
3 210 290 211
3 291 212 211
3 291 211 290
3 291 292 212
3 212 292 201
3 292 293 201
3 293 284 201
3 284 293 285
3 288 289 294
3 294 289 295
3 296 213 205
3 288 296 205
3 294 296 288
3 296 215 213
3 219 297 220
3 298 221 220
3 298 220 297
3 299 222 221
3 299 221 298
3 299 300 222
3 222 300 210
3 300 301 210
3 301 290 210
3 290 301 291
3 291 301 302
3 291 302 292
3 295 303 294
3 294 303 296
3 296 303 304
3 304 306 305
3 304 305 223
3 296 304 223
3 215 296 223
3 307 224 223
3 307 223 305
3 308 225 224
3 308 224 307
3 309 226 225
3 309 225 308
3 309 310 226
3 226 310 219
3 310 311 219
3 311 297 219
3 297 311 298
3 298 311 312
3 298 312 299
3 299 312 313
3 299 313 300
3 316 315 314
3 318 317 314
3 314 317 316
3 318 319 317
3 322 321 320
3 324 323 320
3 320 323 322
3 326 325 324
3 324 325 323
3 228 229 326
3 229 325 326
3 229 327 325
3 230 314 315
3 327 230 315
3 229 230 327
3 314 230 232
3 314 232 318
3 328 319 318
3 232 328 318
3 234 328 232
3 330 329 236
3 329 234 236
3 329 328 234
3 330 331 329
3 334 333 332
3 336 335 332
3 332 335 334
3 335 336 321
3 321 336 320
3 336 238 320
3 238 239 320
3 320 239 240
3 320 240 324
3 324 240 242
3 324 242 326
3 326 242 228
3 243 330 236
3 338 337 245
3 245 337 243
3 337 331 243
3 331 330 243
3 338 339 337
3 341 340 248
3 248 340 247
3 249 332 333
3 341 249 333
3 248 249 341
3 332 249 251
3 332 251 336
3 336 251 238
3 252 338 245
3 343 342 254
3 254 342 252
3 342 339 252
3 339 338 252
3 346 345 344
3 256 257 344
3 257 346 344
3 257 347 346
3 257 247 340
3 257 340 347
3 259 343 254
3 350 349 348
3 350 348 345
3 345 348 344
3 348 262 344
3 262 263 344
3 344 263 256
3 265 351 264
3 354 353 352
3 354 352 349
3 349 352 348
3 352 267 348
3 267 268 348
3 348 268 262
3 356 355 351
3 265 356 351
3 270 356 265
3 352 353 273
3 353 272 273
3 353 357 272
3 352 273 267
3 275 358 276
3 358 359 276
3 359 270 276
3 359 356 270
3 357 278 272
3 360 278 357
3 280 361 281
3 361 362 281
3 281 362 275
3 362 363 275
3 363 358 275
3 358 363 359
3 360 283 278
3 364 283 360
3 285 365 286
3 365 366 286
3 286 366 280
3 366 367 280
3 367 361 280
3 361 367 362
3 287 283 368
3 283 369 368
3 283 364 369
3 368 289 287
3 371 370 293
3 371 293 292
3 285 293 365
3 293 372 365
3 293 370 372
3 365 372 366
3 369 373 368
3 289 368 373
3 374 289 373
3 295 289 374
3 376 375 301
3 376 301 300
3 301 377 302
3 375 377 301
3 292 302 371
3 371 302 377
3 374 378 295
3 295 378 303
3 303 379 304
3 378 379 303
3 306 304 379
3 306 379 380
3 310 381 311
3 311 381 382
3 383 311 382
3 312 311 383
3 312 384 313
3 383 384 312
3 300 313 376
3 376 313 384
3 387 386 385
3 385 388 387
3 391 390 389
3 393 392 389
3 389 392 391
3 395 394 393
3 393 394 392
3 397 396 395
3 395 396 394
3 397 398 396
3 386 399 385
3 385 399 388
3 390 400 389
3 389 400 393
3 393 400 401
3 393 401 395
3 395 401 402
3 395 402 397
3 397 402 403
3 397 403 398
3 406 405 404
3 408 407 404
3 404 407 406
3 315 316 408
3 316 407 408
3 316 409 407
3 410 316 317
3 410 409 316
3 412 411 319
3 411 317 319
3 411 410 317
3 412 413 411
3 416 415 414
3 321 322 414
3 322 416 414
3 322 417 416
3 418 322 323
3 418 417 322
3 325 404 405
3 418 325 405
3 323 325 418
3 404 325 327
3 404 327 408
3 408 327 315
3 328 412 319
3 419 413 412
3 328 419 412
3 329 419 328
3 421 420 331
3 420 329 331
3 420 419 329
3 421 422 420
3 425 424 423
3 333 334 423
3 334 425 423
3 334 426 425
3 335 414 415
3 426 335 415
3 334 335 426
3 414 335 321
3 337 421 331
3 337 339 421
3 339 422 421
3 339 427 422
3 430 429 428
3 430 428 424
3 424 428 423
3 428 340 423
3 340 341 423
3 423 341 333
3 431 427 339
3 431 339 342
3 434 433 432
3 345 346 432
3 346 434 432
3 346 435 434
3 347 428 429
3 435 347 429
3 346 347 435
3 428 347 340
3 432 433 350
3 433 349 350
3 433 436 349
3 432 350 345
3 438 437 354
3 354 437 353
3 354 349 436
3 354 436 438
3 440 439 355
3 440 355 356
3 437 357 353
3 441 357 437
3 359 440 356
3 359 442 440
3 441 360 357
3 443 360 441
3 445 444 363
3 445 363 362
3 359 363 442
3 442 363 444
3 443 364 360
3 446 364 443
3 448 447 367
3 448 367 366
3 362 367 445
3 445 367 447
3 446 369 364
3 449 369 446
3 451 450 370
3 451 370 371
3 370 452 372
3 450 452 370
3 366 372 448
3 448 372 452
3 449 453 369
3 369 453 373
3 455 454 374
3 373 455 374
3 453 455 373
3 456 454 455
3 458 457 375
3 458 375 376
3 375 459 377
3 457 459 375
3 371 377 451
3 451 377 459
3 454 378 374
3 456 460 454
3 460 378 454
3 460 379 378
3 462 461 380
3 379 462 380
3 460 462 379
3 464 463 461
3 464 461 462
3 465 463 464
3 468 467 466
3 470 469 466
3 470 466 467
3 383 382 469
3 470 383 469
3 471 383 470
3 383 472 384
3 471 472 383
3 376 384 458
3 458 384 472
3 474 473 387
3 387 473 386
3 476 475 388
3 475 387 388
3 475 474 387
3 390 391 476
3 391 475 476
3 391 477 475
3 478 391 392
3 478 477 391
3 479 392 394
3 479 478 392
3 480 394 396
3 480 479 394
3 482 481 398
3 481 396 398
3 481 480 396
3 484 483 482
3 482 483 481
3 484 485 483
3 488 487 486
3 490 489 486
3 486 489 488
3 490 491 399
3 473 490 399
3 386 473 399
3 490 473 489
3 476 388 399
3 491 476 399
3 492 476 491
3 493 400 390
3 476 493 390
3 492 493 476
3 494 401 400
3 494 400 493
3 495 402 401
3 495 401 494
3 496 403 402
3 496 402 495
3 482 398 403
3 496 482 403
3 497 482 496
3 499 484 498
3 484 497 498
3 484 482 497
3 484 499 485
3 487 500 486
3 486 500 490
3 490 500 501
3 503 502 501
3 502 490 501
3 502 491 490
3 491 504 492
3 491 502 504
3 492 505 493
3 492 504 505
3 493 506 494
3 493 505 506
3 494 507 495
3 494 506 507
3 495 508 496
3 495 507 508
3 496 509 497
3 496 508 509
3 498 497 510
3 510 497 509
3 513 512 511
3 515 514 511
3 511 514 513
3 517 516 515
3 515 516 514
3 519 518 517
3 517 518 516
3 519 520 518
3 503 521 502
3 502 521 504
3 504 521 522
3 524 523 522
3 523 504 522
3 523 505 504
3 505 525 506
3 505 523 525
3 506 526 507
3 506 525 526
3 528 508 527
3 508 526 527
3 508 507 526
3 508 528 509
3 509 528 529
3 509 529 510
3 532 531 530
3 534 533 530
3 530 533 532
3 405 406 534
3 406 533 534
3 406 535 533
3 407 511 512
3 535 407 512
3 406 407 535
3 511 407 409
3 511 409 515
3 515 409 410
3 515 410 517
3 517 410 411
3 517 411 519
3 537 536 413
3 413 536 411
3 536 520 411
3 520 519 411
3 537 538 536
3 541 540 539
3 541 539 524
3 539 523 524
3 539 542 523
3 523 543 525
3 523 542 543
3 525 544 526
3 525 543 544
3 527 526 545
3 526 546 545
3 526 544 546
3 546 547 545
3 550 549 548
3 415 416 548
3 416 550 548
3 416 551 550
3 417 530 531
3 551 417 531
3 416 417 551
3 530 417 418
3 530 418 534
3 534 418 405
3 419 537 413
3 552 538 537
3 419 552 537
3 420 552 419
3 420 422 552
3 552 422 553
3 539 540 554
3 554 540 555
3 539 556 542
3 539 554 556
3 542 557 543
3 542 556 557
3 543 558 544
3 543 557 558
3 544 559 546
3 544 558 559
3 547 546 560
3 560 546 559
3 562 561 425
3 425 561 424
3 426 548 549
3 562 426 549
3 425 426 562
3 548 426 415
3 427 564 563
3 553 427 563
3 422 427 553
3 555 565 554
3 567 566 565
3 566 554 565
3 566 556 554
3 556 568 557
3 556 566 568
3 557 569 558
3 557 568 569
3 558 570 559
3 558 569 570
3 560 559 571
3 559 572 571
3 559 570 572
3 574 573 572
3 572 573 571
3 576 575 574
3 574 575 573
3 429 430 576
3 430 575 576
3 430 577 575
3 430 424 561
3 430 561 577
3 431 564 427
3 567 578 566
3 580 579 578
3 579 566 578
3 579 568 566
3 568 581 569
3 568 579 581
3 583 570 582
3 570 581 582
3 570 569 581
3 585 584 583
3 584 570 583
3 584 572 570
3 584 433 434
3 574 584 434
3 572 584 574
3 574 434 435
3 574 435 576
3 576 435 429
3 580 586 579
3 579 586 581
3 581 586 587
3 587 588 581
3 588 589 581
3 590 582 581
3 590 581 589
3 590 589 585
3 589 584 585
3 589 591 584
3 591 436 433
3 591 433 584
3 594 593 592
3 589 588 595
3 595 588 596
3 595 437 438
3 591 595 438
3 589 595 591
3 591 438 436
3 594 592 439
3 440 594 439
3 597 594 440
3 596 598 595
3 437 595 598
3 599 437 598
3 441 437 599
3 602 601 600
3 601 597 600
3 597 442 600
3 597 440 442
3 599 443 441
3 603 443 599
3 606 605 604
3 604 605 602
3 604 602 600
3 445 604 600
3 444 445 600
3 444 600 442
3 603 446 443
3 607 446 603
3 610 609 608
3 608 609 606
3 608 606 604
3 448 608 604
3 447 448 604
3 447 604 445
3 612 449 611
3 449 607 611
3 449 446 607
3 613 612 611
3 616 615 614
3 450 451 614
3 615 450 614
3 617 450 615
3 608 452 610
3 452 617 610
3 452 450 617
3 452 608 448
3 612 453 449
3 613 618 612
3 618 453 612
3 618 455 453
3 456 455 618
3 456 618 619
3 622 621 620
3 624 623 620
3 624 620 621
3 457 458 623
3 624 457 623
3 625 457 624
3 614 459 616
3 459 625 616
3 459 457 625
3 459 614 451
3 619 626 456
3 456 626 460
3 460 627 462
3 626 627 460
3 462 628 464
3 627 628 462
3 630 629 465
3 464 630 465
3 628 630 464
3 467 468 629
3 630 467 629
3 631 467 630
3 467 632 470
3 631 632 467
3 620 471 622
3 471 632 622
3 471 470 632
3 471 620 472
3 472 620 623
3 472 623 458
3 634 633 474
3 474 633 473
3 635 474 475
3 635 634 474
3 636 475 477
3 636 635 475
3 637 477 478
3 637 636 477
3 638 478 479
3 638 637 478
3 639 479 480
3 639 638 479
3 640 480 481
3 640 639 480
3 641 481 483
3 641 640 481
3 643 642 485
3 642 483 485
3 642 641 483
3 643 644 642
3 646 645 488
3 488 645 487
3 647 488 489
3 647 646 488
3 489 473 633
3 489 633 647
3 498 648 499
3 648 649 499
3 499 649 485
3 649 650 485
3 650 643 485
3 643 650 644
3 653 652 651
3 655 654 651
3 651 654 653
3 655 656 654
3 659 658 657
3 657 660 500
3 645 657 500
3 487 645 500
3 657 645 659
3 661 501 500
3 661 500 660
3 661 503 501
3 510 662 648
3 510 648 498
3 649 648 663
3 663 648 662
3 666 665 664
3 512 513 664
3 513 666 664
3 513 667 666
3 514 651 652
3 667 514 652
3 513 514 667
3 651 514 516
3 651 516 655
3 668 656 655
3 516 668 655
3 518 668 516
3 670 669 520
3 669 518 520
3 669 668 518
3 670 671 669
3 674 673 672
3 674 672 658
3 672 657 658
3 672 675 657
3 657 676 660
3 657 675 676
3 660 677 661
3 660 676 677
3 678 521 503
3 661 678 503
3 677 678 661
3 679 522 521
3 679 521 678
3 679 524 522
3 527 680 528
3 681 529 528
3 681 528 680
3 681 682 529
3 529 682 510
3 682 683 510
3 683 662 510
3 662 683 663
3 685 684 532
3 532 684 531
3 686 532 533
3 686 685 532
3 535 664 665
3 686 535 665
3 533 535 686
3 664 535 512
3 536 670 520
3 536 538 670
3 538 671 670
3 538 687 671
3 673 688 672
3 672 688 675
3 675 688 689
3 675 689 676
3 676 689 690
3 692 691 690
3 691 676 690
3 691 677 676
3 677 693 678
3 677 691 693
3 693 540 541
3 679 693 541
3 678 693 679
3 679 541 524
3 545 680 527
3 680 545 547
3 694 680 547
3 681 680 694
3 682 681 695
3 695 681 694
3 697 696 550
3 550 696 549
3 698 550 551
3 698 697 550
3 551 531 684
3 551 684 698
3 699 687 538
3 699 538 552
3 552 553 699
3 699 553 700
3 692 701 691
3 703 702 701
3 702 691 701
3 702 693 691
3 702 555 540
3 702 540 693
3 560 704 694
3 560 694 547
3 695 694 705
3 694 706 705
3 694 704 706
3 708 707 706
3 706 707 705
3 708 709 707
3 711 710 562
3 562 710 561
3 562 549 696
3 562 696 711
3 712 700 553
3 712 553 563
3 703 713 702
3 713 715 714
3 713 714 565
3 702 713 565
3 555 702 565
3 714 567 565
3 571 704 560
3 704 571 573
3 704 573 706
3 706 573 575
3 706 575 708
3 716 709 708
3 575 716 708
3 577 716 575
3 577 561 710
3 577 710 716
3 719 718 717
3 715 720 714
3 720 722 721
3 720 721 578
3 714 720 578
3 567 714 578
3 721 580 578
3 582 723 583
3 723 585 583
3 719 717 724
3 719 724 725
3 722 726 721
3 721 726 580
3 726 586 580
3 726 727 586
3 727 729 728
3 587 727 728
3 586 727 587
3 590 723 582
3 588 587 728
3 723 590 585
3 725 724 593
3 594 725 593
3 730 725 594
3 729 731 728
3 596 588 728
3 732 596 728
3 731 732 728
3 596 732 733
3 734 733 732
3 737 736 735
3 736 730 735
3 730 597 735
3 730 594 597
3 733 598 596
3 599 598 733
3 734 599 733
3 738 599 734
3 741 740 739
3 739 740 737
3 739 737 735
3 602 739 735
3 601 602 735
3 601 735 597
3 738 603 599
3 742 603 738
3 745 744 743
3 743 744 741
3 743 741 739
3 606 743 739
3 605 606 739
3 605 739 602
3 747 607 746
3 607 742 746
3 607 603 742
3 748 747 746
3 751 750 749
3 753 752 749
3 753 749 750
3 752 753 745
3 752 745 743
3 610 752 743
3 609 610 743
3 609 743 606
3 747 611 607
3 755 754 613
3 755 613 611
3 748 755 611
3 747 748 611
3 756 754 755
3 759 758 757
3 761 760 757
3 761 757 758
3 760 761 751
3 760 751 749
3 616 760 749
3 615 616 749
3 615 749 617
3 617 749 752
3 617 752 610
3 754 618 613
3 763 762 619
3 763 619 618
3 756 763 618
3 754 756 618
3 765 764 762
3 765 762 763
3 767 766 764
3 767 764 765
3 769 768 766
3 769 766 767
3 771 770 768
3 771 768 769
3 773 772 770
3 773 770 771
3 621 622 772
3 773 621 772
3 774 621 773
3 757 624 759
3 624 774 759
3 624 621 774
3 624 757 625
3 625 757 760
3 625 760 616
3 762 626 619
3 626 762 627
3 627 762 764
3 627 764 628
3 628 764 766
3 628 766 630
3 630 766 768
3 630 768 631
3 631 768 770
3 631 770 632
3 632 770 772
3 632 772 622
3 776 775 634
3 634 775 633
3 777 634 635
3 777 776 634
3 778 635 636
3 778 777 635
3 779 636 637
3 779 778 636
3 780 637 638
3 780 779 637
3 781 638 639
3 781 780 638
3 782 639 640
3 782 781 639
3 783 640 641
3 783 782 640
3 784 641 642
3 784 783 641
3 642 644 784
3 784 644 785
3 788 787 786
3 790 789 786
3 786 789 788
3 790 791 789
3 793 792 646
3 646 792 645
3 794 646 647
3 794 793 646
3 647 633 775
3 647 775 794
3 649 795 650
3 795 796 650
3 796 644 650
3 796 785 644
3 799 798 797
3 799 797 787
3 787 797 786
3 797 652 786
3 652 653 786
3 786 653 654
3 786 654 790
3 801 800 656
3 656 800 654
3 800 791 654
3 791 790 654
3 801 802 800
3 804 803 659
3 659 803 658
3 659 645 792
3 659 792 804
3 806 805 795
3 649 806 795
3 663 806 649
3 795 805 796
3 808 807 666
3 666 807 665
3 667 797 798
3 808 667 798
3 666 667 808
3 797 667 652
3 668 801 656
3 809 802 801
3 668 809 801
3 669 809 668
3 669 671 809
3 809 671 810
3 812 811 674
3 674 811 673
3 674 658 803
3 674 803 812
3 814 813 683
3 814 683 682
3 663 683 806
3 806 683 813
3 816 815 685
3 685 815 684
3 817 685 686
3 817 816 685
3 686 665 807
3 686 807 817
3 687 810 671
3 687 818 810
3 811 819 673
3 673 819 688
3 819 821 820
3 689 819 820
3 688 819 689
3 822 690 689
3 822 689 820
3 822 692 690
3 695 824 823
3 814 695 823
3 682 695 814
3 824 825 823
3 827 826 697
3 697 826 696
3 828 697 698
3 828 827 697
3 698 684 815
3 698 815 828
3 829 818 687
3 829 687 699
3 699 700 829
3 829 700 830
3 821 831 820
3 820 831 822
3 822 831 832
3 822 832 692
3 832 701 692
3 832 833 701
3 703 701 833
3 703 833 834
3 705 824 695
3 835 825 824
3 705 835 824
3 707 835 705
3 707 709 835
3 835 709 836
3 838 837 711
3 711 837 710
3 711 696 826
3 711 826 838
3 700 712 839
3 840 700 839
3 830 700 840
3 834 841 703
3 703 841 713
3 715 713 841
3 715 841 842
3 843 836 709
3 843 709 716
3 716 710 837
3 716 837 843
3 840 839 718
3 719 840 718
3 844 840 719
3 842 845 715
3 715 845 720
3 722 720 845
3 722 845 846
3 725 844 719
3 725 847 844
3 846 848 722
3 722 848 726
3 726 849 727
3 848 849 726
3 851 850 729
3 727 851 729
3 849 851 727
3 852 850 851
3 855 854 853
3 854 847 853
3 847 730 853
3 847 725 730
3 850 731 729
3 852 856 850
3 856 731 850
3 856 732 731
3 858 857 734
3 732 858 734
3 856 858 732
3 859 857 858
3 855 853 736
3 737 855 736
3 860 855 737
3 736 853 730
3 861 738 857
3 857 738 734
3 857 859 862
3 857 862 861
3 864 863 740
3 864 740 741
3 737 740 860
3 860 740 863
3 865 742 861
3 861 742 738
3 861 862 866
3 861 866 865
3 869 868 867
3 871 870 867
3 871 867 868
3 744 745 870
3 871 744 870
3 872 744 871
3 741 744 864
3 864 744 872
3 865 746 742
3 874 873 748
3 874 748 746
3 866 874 746
3 865 866 746
3 875 873 874
3 878 877 876
3 876 877 869
3 876 869 867
3 751 876 867
3 750 751 867
3 750 867 753
3 753 867 870
3 753 870 745
3 873 755 748
3 880 879 756
3 880 756 755
3 875 880 755
3 873 875 755
3 882 881 879
3 882 879 880
3 884 883 881
3 884 881 882
3 885 883 884
3 888 887 886
3 890 889 886
3 890 886 887
3 892 891 889
3 892 889 890
3 758 759 891
3 892 758 891
3 893 758 892
3 876 761 878
3 761 893 878
3 761 758 893
3 761 876 751
3 879 763 756
3 763 879 765
3 765 879 881
3 765 881 767
3 767 881 883
3 885 894 883
3 894 767 883
3 894 769 767
3 886 771 888
3 771 894 888
3 771 769 894
3 771 886 773
3 773 886 889
3 773 889 774
3 774 889 891
3 774 891 759
3 896 895 776
3 776 895 775
3 897 776 777
3 897 896 776
3 898 777 778
3 898 897 777
3 899 778 779
3 899 898 778
3 900 779 780
3 900 899 779
3 901 780 781
3 901 900 780
3 902 781 782
3 902 901 781
3 903 782 783
3 903 902 782
3 904 783 784
3 904 903 783
3 784 785 904
3 904 785 905
3 907 906 788
3 788 906 787
3 908 788 789
3 908 907 788
3 789 791 908
3 908 791 909
3 911 910 793
3 793 910 792
3 912 793 794
3 912 911 793
3 794 775 895
3 794 895 912
3 915 914 913
3 914 905 913
3 905 796 913
3 905 785 796
3 916 798 799
3 917 916 799
3 787 917 799
3 906 917 787
3 791 800 918
3 919 791 918
3 909 791 919
3 802 918 800
3 921 920 804
3 804 920 803
3 804 792 910
3 804 910 921
3 924 923 922
3 922 923 915
3 922 915 913
3 806 922 913
3 805 806 913
3 805 913 796
3 926 925 808
3 808 925 807
3 808 798 916
3 927 808 916
3 926 808 927
3 927 916 917
3 928 919 918
3 930 928 929
3 929 928 809
3 928 918 809
3 918 802 809
3 810 929 809
3 931 811 812
3 932 931 812
3 803 932 812
3 920 932 803
3 924 922 813
3 814 924 813
3 933 924 814
3 813 922 806
3 934 815 816
3 934 816 935
3 816 936 935
3 816 817 936
3 817 807 925
3 817 925 936
3 937 930 929
3 929 810 937
3 810 938 937
3 810 818 938
3 931 819 811
3 940 939 821
3 940 821 819
3 932 940 819
3 931 932 819
3 942 941 939
3 942 939 940
3 943 941 942
3 814 823 944
3 945 814 944
3 933 814 945
3 825 944 823
3 947 946 827
3 827 946 826
3 948 827 828
3 948 947 827
3 828 815 934
3 949 828 934
3 948 828 949
3 949 934 935
3 950 938 818
3 950 818 829
3 829 830 950
3 950 830 951
3 939 831 821
3 831 939 832
3 832 939 941
3 943 952 941
3 952 832 941
3 952 833 832
3 834 833 952
3 834 952 953
3 945 944 954
3 945 954 955
3 835 956 825
3 956 944 825
3 956 954 944
3 836 956 835
3 958 957 838
3 838 957 837
3 838 826 946
3 838 946 958
3 840 951 830
3 840 959 951
3 953 960 834
3 834 960 841
3 962 961 842
3 841 962 842
3 960 962 841
3 963 961 962
3 966 965 964
3 964 965 955
3 954 964 955
3 967 964 954
3 956 969 968
3 967 956 968
3 954 956 967
3 969 956 836
3 843 969 836
3 970 969 843
3 843 837 957
3 843 957 970
3 973 972 971
3 972 959 971
3 959 844 971
3 959 840 844
3 961 845 842
3 975 974 846
3 975 846 845
3 963 975 845
3 961 963 845
3 976 974 975
3 979 978 977
3 977 978 966
3 964 977 966
3 980 977 964
3 967 982 981
3 980 967 981
3 964 967 980
3 982 967 968
3 973 971 983
3 973 983 984
3 847 983 844
3 844 983 971
3 974 848 846
3 976 985 974
3 985 848 974
3 985 849 848
3 849 986 851
3 985 986 849
3 977 987 852
3 986 977 852
3 851 986 852
3 979 977 986
3 988 977 980
3 987 977 988
3 980 981 989
3 980 989 988
3 992 991 990
3 990 991 984
3 990 984 983
3 855 990 983
3 854 855 983
3 854 983 847
3 987 856 852
3 856 987 858
3 858 987 988
3 859 858 988
3 989 859 988
3 993 859 989
3 992 990 994
3 992 994 995
3 860 994 855
3 855 994 990
3 997 862 996
3 862 993 996
3 862 859 993
3 998 997 996
3 1001 1000 999
3 1003 1002 999
3 1003 999 1000
3 1002 1003 995
3 1002 995 994
3 864 1002 994
3 863 864 994
3 863 994 860
3 1004 866 997
3 997 866 862
3 997 998 1005
3 997 1005 1004
3 1008 1007 1006
3 868 869 1006
3 1007 868 1006
3 1009 868 1007
3 999 871 1001
3 871 1009 1001
3 871 868 1009
3 871 999 872
3 872 999 1002
3 872 1002 864
3 1004 874 866
3 1011 1010 875
3 1011 875 874
3 1005 1011 874
3 1004 1005 874
3 1013 1012 1010
3 1013 1010 1011
3 1015 1014 1012
3 1015 1012 1013
3 1017 1016 1014
3 1017 1014 1015
3 1018 1016 1017
3 1021 1020 1019
3 1023 1022 1019
3 1023 1019 1020
3 1022 1023 1008
3 1022 1008 1006
3 878 1022 1006
3 877 878 1006
3 877 1006 869
3 1010 880 875
3 880 1010 882
3 882 1010 1012
3 882 1012 884
3 884 1012 1014
3 884 1014 885
3 1014 1024 885
3 1014 1016 1024
3 1025 887 888
3 1016 1025 888
3 1024 1016 888
3 1025 1016 1018
3 887 1026 890
3 1025 1026 887
3 1019 892 1021
3 892 1026 1021
3 892 890 1026
3 892 1019 893
3 893 1019 1022
3 893 1022 878
3 1024 894 885
3 894 1024 888
3 1028 1027 896
3 896 1027 895
3 1029 896 897
3 1029 1028 896
3 1030 897 898
3 1030 1029 897
3 1031 898 899
3 1031 1030 898
3 1032 899 900
3 1032 1031 899
3 1033 900 901
3 1033 1032 900
3 1034 901 902
3 1034 1033 901
3 1035 902 903
3 1035 1034 902
3 1037 1035 1036
3 1035 904 1036
3 1035 903 904
3 905 1036 904
3 1038 906 907
3 908 1039 907
3 907 1039 1038
3 909 1039 908
3 1041 1040 911
3 911 1040 910
3 1042 911 912
3 1042 1041 911
3 912 895 1027
3 912 1027 1042
3 1045 1044 1043
3 1043 1044 1037
3 1043 1037 1036
3 915 1043 1036
3 914 915 1036
3 914 1036 905
3 1046 917 1038
3 1038 917 906
3 1047 1038 1039
3 1046 1038 1047
3 919 1047 909
3 909 1047 1039
3 1049 1048 921
3 921 1048 920
3 921 910 1040
3 921 1040 1049
3 1045 1043 923
3 924 1045 923
3 1050 1045 924
3 923 1043 915
3 1051 925 926
3 1051 926 1052
3 926 1053 1052
3 926 927 1053
3 927 917 1046
3 1054 927 1046
3 1053 927 1054
3 1054 1046 1047
3 1054 1047 1055
3 1057 1055 1056
3 1056 1055 928
3 1055 1047 928
3 1047 919 928
3 930 1056 928
3 1059 932 1058
3 932 1048 1058
3 932 920 1048
3 1061 1060 1059
3 1061 1059 1058
3 1062 1060 1061
3 1065 1064 1063
3 1064 1050 1063
3 1050 933 1063
3 1050 924 933
3 1066 935 936
3 1067 1066 936
3 1067 936 925
3 1068 1067 925
3 1051 1068 925
3 1068 1051 1052
3 1069 1057 1056
3 1071 1069 1070
3 1070 1069 937
3 1069 1056 937
3 1056 930 937
3 938 1070 937
3 1059 940 932
3 940 1059 942
3 942 1059 1060
3 1073 1072 943
3 1073 943 942
3 1062 1073 942
3 1060 1062 942
3 1074 1072 1073
3 1065 1063 1075
3 1065 1075 1076
3 945 1075 933
3 933 1075 1063
3 1077 946 947
3 948 1078 947
3 947 1078 1077
3 1078 948 1079
3 948 1080 1079
3 948 949 1080
3 949 935 1066
3 1081 949 1066
3 1080 949 1081
3 1081 1066 1067
3 1071 1070 1082
3 1071 1082 1083
3 950 1084 938
3 1084 1070 938
3 1084 1082 1070
3 951 1084 950
3 1072 952 943
3 1086 1085 953
3 1086 953 952
3 1074 1086 952
3 1072 1074 952
3 1087 1085 1086
3 1090 1089 1088
3 1088 1089 1076
3 1075 1088 1076
3 1091 1088 1075
3 955 1091 945
3 945 1091 1075
3 1092 957 958
3 1093 1092 958
3 1093 958 946
3 1094 1093 946
3 1077 1094 946
3 1094 1077 1078
3 1094 1078 1095
3 1095 1078 1079
3 1096 1083 1082
3 1098 1097 1096
3 1082 1098 1096
3 1084 1098 1082
3 959 1098 951
3 951 1098 1084
3 1085 960 953
3 1087 1099 1085
3 1099 960 1085
3 1099 962 960
3 963 962 1099
3 963 1099 1100
3 1103 1102 1101
3 1101 1102 1090
3 1088 1101 1090
3 1104 1101 1088
3 966 1104 965
3 1104 1091 965
3 1104 1088 1091
3 965 1091 955
3 1105 968 969
3 970 1106 969
3 969 1106 1105
3 1107 1106 970
3 1107 970 957
3 1108 1107 957
3 1092 1108 957
3 1108 1092 1093
3 1111 1110 1109
3 1113 1112 1109
3 1113 1109 1110
3 1115 1114 1112
3 1115 1112 1113
3 1116 1114 1115
3 1097 1098 972
3 973 1097 972
3 1117 1097 973
3 972 1098 959
3 1100 1118 963
3 963 1118 975
3 1120 1119 976
3 975 1120 976
3 1118 1120 975
3 1119 1120 1103
3 1101 1119 1103
3 1121 1119 1101
3 979 1121 978
3 1121 1104 978
3 1121 1101 1104
3 978 1104 966
3 1122 981 982
3 968 1105 982
3 1105 1122 982
3 1105 1123 1122
3 1106 1125 1124
3 1123 1106 1124
3 1105 1106 1123
3 1125 1106 1107
3 1111 1109 1126
3 1111 1126 1127
3 1128 1109 1112
3 1126 1109 1128
3 1129 1112 1114
3 1128 1112 1129
3 1114 1116 1130
3 1114 1130 1129
3 1133 1132 1131
3 1132 1117 1131
3 1117 984 1131
3 1117 973 984
3 1119 985 976
3 985 1119 986
3 986 1119 1121
3 986 1121 979
3 1134 989 1122
3 1122 989 981
3 1135 1122 1123
3 1134 1122 1135
3 1123 1124 1136
3 1123 1136 1135
3 1127 1126 1137
3 1127 1137 1138
3 1139 1126 1128
3 1137 1126 1139
3 1140 1128 1129
3 1139 1128 1140
3 1129 1130 1141
3 1129 1141 1140
3 1144 1143 1142
3 1142 1143 1133
3 1142 1133 1131
3 992 1142 1131
3 991 992 1131
3 991 1131 984
3 1145 993 1134
3 1134 993 989
3 1146 1134 1135
3 1145 1134 1146
3 1135 1136 1147
3 1135 1147 1146
3 1148 1138 1137
3 1148 1137 1139
3 1148 1139 1149
3 1149 1139 1140
3 1149 1140 1150
3 1150 1140 1141
3 1153 1152 1151
3 1155 1154 1151
3 1155 1151 1152
3 1154 1155 1144
3 1142 1154 1144
3 1156 1154 1142
3 995 1156 992
3 992 1156 1142
3 1145 996 993
3 996 1145 998
3 1145 1157 998
3 1145 1146 1157
3 1146 1147 1158
3 1159 1146 1158
3 1157 1146 1159
3 1161 1160 1159
3 1161 1159 1158
3 1163 1162 1160
3 1163 1160 1161
3 1165 1164 1162
3 1165 1162 1163
3 1167 1166 1164
3 1167 1164 1165
3 1168 1166 1167
3 1171 1170 1169
3 1169 1170 1153
3 1151 1169 1153
3 1172 1169 1151
3 1001 1172 1000
3 1172 1154 1000
3 1172 1151 1154
3 1000 1154 1003
3 1003 1154 1156
3 1003 1156 995
3 1173 1005 1157
3 1157 1005 998
3 1174 1157 1159
3 1173 1157 1174
3 1175 1159 1160
3 1174 1159 1175
3 1176 1160 1162
3 1175 1160 1176
3 1177 1162 1164
3 1176 1162 1177
3 1178 1164 1166
3 1177 1164 1178
3 1166 1168 1179
3 1180 1166 1179
3 1178 1166 1180
3 1182 1181 1180
3 1182 1180 1179
3 1181 1182 1171
3 1181 1171 1169
3 1008 1181 1169
3 1007 1008 1169
3 1007 1169 1009
3 1009 1169 1172
3 1009 1172 1001
3 1173 1011 1005
3 1011 1173 1013
3 1013 1173 1174
3 1013 1174 1015
3 1015 1174 1175
3 1015 1175 1017
3 1017 1175 1176
3 1017 1176 1018
3 1176 1183 1018
3 1176 1177 1183
3 1184 1177 1178
3 1183 1177 1184
3 1021 1184 1020
3 1184 1180 1020
3 1184 1178 1180
3 1020 1180 1023
3 1023 1180 1181
3 1023 1181 1008
3 1183 1025 1018
3 1025 1183 1026
3 1026 1183 1184
3 1026 1184 1021
3 1186 1185 1028
3 1028 1185 1027
3 1187 1028 1029
3 1187 1186 1028
3 1188 1029 1030
3 1188 1187 1029
3 1189 1030 1031
3 1189 1188 1030
3 1190 1031 1032
3 1190 1189 1031
3 1191 1032 1033
3 1191 1190 1032
3 1193 1191 1192
3 1191 1034 1192
3 1191 1033 1034
3 1035 1194 1034
3 1034 1194 1192
3 1037 1194 1035
3 1195 1040 1041
3 1195 1041 1196
3 1041 1197 1196
3 1041 1042 1197
3 1042 1027 1185
3 1042 1185 1197
3 1200 1199 1198
3 1198 1199 1193
3 1192 1198 1193
3 1201 1198 1192
3 1045 1201 1044
3 1201 1194 1044
3 1201 1192 1194
3 1044 1194 1037
3 1202 1048 1049
3 1040 1195 1049
3 1195 1202 1049
3 1195 1203 1202
3 1195 1196 1204
3 1195 1204 1203
3 1200 1198 1205
3 1200 1205 1206
3 1207 1198 1201
3 1205 1198 1207
3 1050 1207 1045
3 1045 1207 1201
3 1208 1052 1053
3 1054 1209 1053
3 1053 1209 1208
3 1055 1210 1054
3 1054 1210 1209
3 1057 1210 1055
3 1202 1058 1048
3 1058 1202 1061
3 1061 1202 1203
3 1212 1211 1062
3 1212 1062 1061
3 1204 1212 1061
3 1203 1204 1061
3 1213 1211 1212
3 1206 1205 1214
3 1206 1214 1215
3 1065 1214 1064
3 1214 1207 1064
3 1214 1205 1207
3 1064 1207 1050
3 1216 1067 1068
3 1052 1208 1068
3 1208 1216 1068
3 1208 1217 1216
3 1218 1208 1209
3 1217 1208 1218
3 1219 1209 1210
3 1218 1209 1219
3 1069 1220 1057
3 1220 1210 1057
3 1220 1219 1210
3 1071 1220 1069
3 1211 1073 1062
3 1222 1221 1074
3 1222 1074 1073
3 1213 1222 1073
3 1211 1213 1073
3 1223 1221 1222
3 1215 1214 1224
3 1215 1224 1225
3 1076 1224 1065
3 1065 1224 1214
3 1226 1079 1080
3 1081 1227 1080
3 1080 1227 1226
3 1067 1216 1081
3 1216 1227 1081
3 1216 1228 1227
3 1229 1216 1217
3 1228 1216 1229
3 1230 1217 1218
3 1229 1217 1230
3 1231 1218 1219
3 1230 1218 1231
3 1232 1219 1220
3 1231 1219 1232
3 1083 1232 1071
3 1071 1232 1220
3 1221 1086 1074
3 1234 1233 1087
3 1234 1087 1086
3 1223 1234 1086
3 1221 1223 1086
3 1235 1233 1234
3 1238 1237 1236
3 1236 1237 1225
3 1236 1225 1224
3 1090 1236 1224
3 1089 1090 1224
3 1089 1224 1076
3 1239 1093 1094
3 1095 1240 1094
3 1094 1240 1239
3 1079 1226 1095
3 1226 1240 1095
3 1226 1241 1240
3 1242 1226 1227
3 1241 1226 1242
3 1243 1227 1228
3 1242 1227 1243
3 1244 1228 1229
3 1243 1228 1244
3 1245 1229 1230
3 1244 1229 1245
3 1246 1230 1231
3 1245 1230 1246
3 1247 1231 1232
3 1246 1231 1247
3 1096 1248 1083
3 1248 1232 1083
3 1248 1247 1232
3 1097 1248 1096
3 1233 1099 1087
3 1250 1249 1100
3 1250 1100 1099
3 1235 1250 1099
3 1233 1235 1099
3 1252 1251 1249
3 1252 1249 1250
3 1251 1252 1238
3 1251 1238 1236
3 1103 1251 1236
3 1102 1103 1236
3 1102 1236 1090
3 1253 1107 1108
3 1093 1239 1108
3 1239 1253 1108
3 1239 1254 1253
3 1111 1254 1110
3 1254 1240 1110
3 1254 1239 1240
3 1110 1240 1113
3 1113 1240 1241
3 1113 1241 1115
3 1115 1241 1242
3 1115 1242 1116
3 1242 1255 1116
3 1242 1243 1255
3 1256 1243 1244
3 1255 1243 1256
3 1257 1244 1245
3 1256 1244 1257
3 1258 1245 1246
3 1257 1245 1258
3 1259 1246 1247
3 1258 1246 1259
3 1260 1247 1248
3 1259 1247 1260
3 1117 1260 1097
3 1097 1260 1248
3 1249 1118 1100
3 1118 1249 1120
3 1120 1249 1251
3 1120 1251 1103
3 1261 1124 1125
3 1107 1253 1125
3 1253 1261 1125
3 1253 1262 1261
3 1263 1253 1254
3 1262 1253 1263
3 1127 1263 1111
3 1111 1263 1254
3 1264 1130 1255
3 1255 1130 1116
3 1265 1255 1256
3 1264 1255 1265
3 1266 1256 1257
3 1265 1256 1266
3 1267 1257 1258
3 1266 1257 1267
3 1268 1258 1259
3 1267 1258 1268
3 1133 1268 1132
3 1268 1260 1132
3 1268 1259 1260
3 1132 1260 1117
3 1269 1136 1261
3 1261 1136 1124
3 1270 1261 1262
3 1269 1261 1270
3 1271 1262 1263
3 1270 1262 1271
3 1138 1271 1127
3 1127 1271 1263
3 1272 1141 1264
3 1264 1141 1130
3 1273 1264 1265
3 1272 1264 1273
3 1274 1265 1266
3 1273 1265 1274
3 1275 1266 1267
3 1274 1266 1275
3 1144 1275 1143
3 1275 1268 1143
3 1275 1267 1268
3 1143 1268 1133
3 1276 1147 1269
3 1269 1147 1136
3 1277 1269 1270
3 1276 1269 1277
3 1278 1270 1271
3 1277 1270 1278
3 1148 1279 1138
3 1279 1271 1138
3 1279 1278 1271
3 1149 1280 1148
3 1148 1280 1279
3 1150 1281 1149
3 1149 1281 1280
3 1141 1272 1150
3 1272 1281 1150
3 1272 1282 1281
3 1283 1272 1273
3 1282 1272 1283
3 1153 1283 1152
3 1283 1274 1152
3 1283 1273 1274
3 1152 1274 1155
3 1155 1274 1275
3 1155 1275 1144
3 1276 1158 1147
3 1158 1276 1161
3 1161 1276 1277
3 1161 1277 1163
3 1163 1277 1278
3 1163 1278 1165
3 1165 1278 1279
3 1165 1279 1167
3 1167 1279 1280
3 1167 1280 1168
3 1280 1284 1168
3 1280 1281 1284
3 1285 1281 1282
3 1284 1281 1285
3 1171 1285 1170
3 1285 1283 1170
3 1285 1282 1283
3 1170 1283 1153
3 1284 1179 1168
3 1179 1284 1182
3 1182 1284 1285
3 1182 1285 1171