OFF
659 1270 0
1.0335688384 8.7278608361 8.4444061751
1.2127214421 8.6089700894 7.5352352214
1.3581196842 7.9961622011 8.0204787766
1.3091756167 7.7786899807 8.9290257382
1.0224128053 8.4720015134 9.5899053630
1.2780336119 7.6408129435 9.9726615462
1.0708368451 8.3263016431 10.6160202541
1.3172654786 7.5656576695 10.9519220531
1.1622255400 8.1814459548 11.4001523470
1.3982372193 7.6770267891 11.8344587866
1.2589188587 8.4202437237 12.0232985756
1.5164167661 8.0134190955 12.4845812409
0.9865271127 9.5893290428 7.4445590835
1.2016902088 9.5764174423 6.4953272542
1.2793657996 8.9376597468 6.8708373909
0.8394428700 9.6454532139 8.4677202302
0.8542831313 9.3744196092 9.2910246788
0.9268402447 9.2272042448 10.2808041023
1.0873443055 9.0340424519 11.3476454675
1.2983997573 9.0842010388 12.1555764222
1.4771849406 8.6429921800 12.5816613025
1.0511119348 10.4852449570 6.5200509640
1.3179907051 10.8114985501 5.6002410200
1.3191779740 9.9728225588 5.9033607049
0.8662502959 10.6314009954 7.3965474795
0.8054850740 10.4090149200 8.1769566292
0.8050819996 10.2746272056 9.0825847911
0.8632352811 10.0421251991 9.8870037024
1.0450406827 10.1834000079 10.8267885876
1.2957454490 9.8704676556 11.8401677655
1.1058857943 11.5109036936 6.1669572970
1.3785125556 11.7919719433 5.4247405110
0.9359474861 11.4096301611 7.0486639980
0.8544965506 11.2986145565 7.9837647144
0.8377715433 11.0400956470 8.7950746683
0.9866832360 11.1106177609 9.8475790819
1.2133280440 11.1512990128 10.8489430930
1.3248648985 10.7405659101 11.4762817007
1.2231585125 12.2514002755 6.0060856434
1.4647965976 12.6174865093 5.5904801848
1.0961377563 12.2542559934 6.7387095040
1.0216286958 12.1858928565 7.7180084060
1.0228281150 11.9616021890 8.8503122376
1.2118571580 12.1236878126 9.7941106702
1.2964056680 11.8203009106 10.4828122912
1.3664295573 12.9518765005 6.3518052526
1.2800560035 13.0155398521 7.3600780337
1.2708399709 12.9053221761 8.4192384289
1.3187595195 12.7038776036 9.3311153623
2.1200363395 6.2878151016 9.4125915913
2.3531251907 6.2353192180 8.3943451942
2.8125240052 5.6114452361 8.7913053589
2.7781489900 5.3290581689 10.0493024988
2.1052355554 6.1214739858 10.7187281038
2.5831936908 5.4165006655 11.2956371018
2.1075795703 6.1974130413 11.8430534090
2.5507904126 5.5606113973 12.3492684867
2.2244168533 6.3104800715 12.7903312699
2.5693055417 5.7945483577 13.1351154862
2.1047315400 7.1962819842 7.0546378949
2.4696956804 7.0738086071 6.4302037316
2.4485555709 6.7178204878 6.9924674131
2.3823934646 6.5203795200 7.5858350969
1.8202504753 7.0913668713 8.2260715830
1.5956575612 7.0843999343 9.3731680538
1.6395290021 6.8865785598 10.3149908366
1.6794077893 6.8945499189 11.3815687020
1.8105036106 7.1701779174 12.4610670253
2.4289277408 6.3289155303 13.4638354090
2.1935532309 7.0600833341 13.3710625282
2.5640065841 6.7439226409 13.9610324711
2.0854136917 7.9586863479 6.0829676119
2.5050403863 7.9558110948 5.2992842564
2.4674016850 7.4851123052 5.8679392608
1.6014059868 8.0758624959 7.0859933577
1.9389318916 8.2781022427 13.2227585049
2.5160452363 7.6584399346 14.0732736406
2.1109428147 8.9872944068 5.0436219908
2.4815763222 9.2026031809 4.2366537098
2.5940858167 8.5305385747 4.5814636808
1.5733409563 9.0551802682 6.0410390099
1.6741695771 9.4977447071 12.7275016247
2.2055898890 9.4445524825 13.5176712709
2.5776704508 8.8243518898 14.1000112993
2.1739113793 10.1279632630 4.2668890665
2.7151517387 10.4998893704 3.4090919075
2.7364686640 9.5984211253 3.7085211429
1.6568061899 10.0115964125 5.2047152285
1.6628881749 10.6627723129 12.2294845092
2.2306652988 10.5331890213 13.1565709177
2.9070419715 10.0473727165 14.0667906114
2.1721798862 11.3933273122 3.9533500721
2.7341651913 11.6682443805 3.1091937616
1.6983189921 11.0973295993 4.7974509492
1.6315555141 11.7528594740 11.4126050868
2.1103274318 11.5365158118 12.4496214614
2.6320821276 11.5005167985 13.0738927194
2.8264069253 10.9454487415 13.5861156988
2.2671779419 12.4894977715 3.7700358614
2.6815317780 12.7376055527 3.1541998554
1.7989644177 12.3599482517 4.7427684498
1.6418939519 12.7616693431 10.3414324079
1.9057340776 12.6250406429 11.2207180307
2.2495035638 12.5122652587 11.8764562359
2.5681800310 12.1316113405 12.5742187191
2.4461248166 13.2154588476 3.6183979572
2.6987903904 13.3288013030 3.2970093129
2.1798945708 13.3382885835 4.3680201147
1.8153966326 13.5663803669 5.6392948435
1.6043434031 13.7405556706 6.9524247904
1.5831814835 13.7239873318 8.0730399404
1.6403661796 13.4726152844 9.1809075486
2.1695944427 13.8891428176 10.0048062750
2.2979285566 13.3220908103 11.0620233126
2.7018676814 13.1890205688 11.7227331305
2.8958460869 12.7499190536 12.2634755912
2.7729120177 13.8991813428 3.7816807875
2.3130042247 14.1730721750 4.8835324911
2.1304220295 14.4329303890 5.7023303014
1.9477541401 14.4563667005 6.6377281306
2.2435823071 14.8523711820 5.9621746495
1.8214515881 14.3149290173 7.6653438985
2.0746955514 14.4517499778 8.8351734007
2.7601527166 14.7079300093 9.8238220112
2.8570416387 14.2081773747 10.6259310698
2.9177463997 13.7002632162 11.3115394215
2.1205033579 14.8866164600 6.6292292169
2.3120815580 15.0226854420 6.0007871376
2.0284471850 14.7330625492 7.7399537584
2.2949372610 14.9708182785 8.7842925896
2.5464945931 15.0080331548 9.2652271704
3.1706187128 4.7302054247 10.9366145321
3.5008692124 4.5239158626 10.1481786713
3.6075934775 4.2968272267 10.7849005323
3.7257918914 4.1892938852 11.5610880684
3.0757439507 4.8462219780 11.9673320995
3.6297287738 4.3493081412 12.7031416983
3.0376452925 5.0954213775 13.1039074188
3.5703932227 4.5070288010 13.5819739717
3.2991569101 5.0029043774 14.1206042518
3.7771243140 4.3678571207 14.3723953636
3.6554361616 5.2451693355 15.7205966059
3.5615012441 4.8912539008 15.3027157858
3.8057470317 4.6497887951 15.7309912904
3.9864534104 4.8403149007 16.1769994787
2.9455925542 6.2689596341 6.9022477410
3.3678651481 6.2938592575 6.1121473507
3.7524159940 5.6965672985 6.5701019887
3.5853601778 5.2483418375 7.8243978988
2.7891618766 5.9302443062 7.9107331107
3.4437990420 4.8721724818 9.1389553059
2.8498182122 5.8812700245 13.9403114052
3.5085465017 4.8087163939 14.7968740743
3.3057327746 5.5207972914 14.9169772761
3.5898948372 6.1081659576 15.5898058495
4.1229698988 5.6119709268 16.3449951798
2.9379901213 7.0080003943 5.7511123039
3.4900903262 6.8542557583 5.1336128649
3.4009783787 6.5453321135 5.6620079192
3.0932993486 6.8523310066 14.7755700094
3.7562798349 6.9973159197 15.5399266059
4.0079833593 6.4381494959 15.9893794447
3.4484272946 7.8885735697 3.9896668636
3.7815745529 8.2059235283 3.4502962715
3.9022708615 7.5440863025 3.7989741968
3.6881458216 7.2478876930 4.3642165800
3.0606045946 7.7443077294 4.6820403664
3.0565590134 8.1726460436 14.6977731362
3.5451764383 7.7101459709 15.1754342529
3.0415315248 8.6696077433 3.9013061697
3.5288753639 9.4355490733 3.0511636521
3.1939930679 9.2144376789 14.6415450932
3.7174073040 8.5921616732 15.0873918380
3.2764237100 10.7384390191 2.7370809753
3.3885507390 9.8295444633 14.5972104403
3.8398488358 9.5027830176 14.8884485106
3.2840650523 11.4611568127 2.5362607757
3.9059035535 11.5835473863 2.1401018315
3.5953909661 11.0336354357 2.3660601779
3.1767808219 11.5077925376 13.4011978015
3.4811160645 10.9653457692 13.8774590676
3.8318917594 10.2853515806 14.4869546949
3.1963417790 12.2360763160 2.6255516575
3.7711280773 12.5493533058 2.3497185401
3.9901044871 11.7441744356 13.2529053578
3.2059534431 12.1718722716 12.8576826102
3.2060305976 13.2126650148 2.9041035697
4.1600953493 13.2693024262 2.5317680195
3.5087378483 12.8125656796 12.3495392492
3.3812528354 13.3857242237 11.7882616863
3.6791507724 14.0333449398 3.1759083270
3.3995484550 14.6500632340 3.8774726463
4.1944835515 14.6552399804 3.5312103801
2.7652421216 14.6622712384 4.5760568498
2.3977573912 14.7077712256 5.2976485732
3.1446597155 14.6864930367 10.2821213369
3.4229154982 14.5685528975 10.5501492867
3.5366053072 14.0951839361 11.0871187872
4.0338358584 15.0884597431 4.1432197379
3.3311246137 15.0384594334 4.4534468382
4.1276863185 15.3364756662 4.5818729664
2.5934849597 14.9639765129 5.2758503797
2.6264853219 15.1691457741 9.2249826916
3.0939427739 15.1161106415 9.5985639217
3.6420672011 14.9211522050 10.0323284971
4.1737746651 3.8606846608 10.6422473939
4.5430897717 3.6624213097 9.8056567893
4.9408169143 3.2406468207 10.4778144426
4.8992515566 3.2952701605 11.4386782166
4.3579722027 3.6797085718 11.6423526876
4.8179427036 3.3981498635 12.2167606863
4.3936367245 3.7917143245 14.8511708233
4.6386125383 3.5640382241 14.2679523076
5.0610830588 3.3015684055 14.6238280754
5.0866734409 3.2419677066 15.6919613127
4.3272489484 4.0833345273 16.0486981541
4.9541814831 3.3830044128 16.7177677148
4.6519753614 3.9964868845 16.9223983662
4.9938013813 3.6105896427 17.3485418464
4.1202730805 4.4330433369 8.5979465631
4.5397945367 4.3996289278 7.8337532566
4.6313860792 4.0469707370 8.4099780078
4.6046553594 3.8444399918 9.0013034216
4.0391950682 4.1914658927 9.5246278159
4.2717154411 3.7888567339 12.4641141795
4.2497396395 3.8712766848 13.6544516819
3.8440283237 4.3950660574 15.2062796593
4.3935924699 4.7522129309 16.7692395857
4.9170897244 4.3502382066 17.4207366265
3.8667901514 6.1333473383 5.6485871004
4.6326290431 5.7490156281 5.2568113408
4.3762619000 5.4663096447 6.0409387625
4.4403826920 4.9716493316 6.8670164014
4.4659735701 5.3212202528 16.8532747966
4.7350001286 5.0823529124 17.1414835384
4.3228270720 6.9387185892 4.0234528218
4.4823607800 7.4635823704 3.4260169965
4.9773744223 6.7684660184 3.6748407801
4.9493971268 6.1574722255 4.3599261462
4.1340244811 6.5052316831 4.7756024561
4.2868489101 6.9791438761 15.9248676883
4.5700592858 6.3965294752 16.3334030415
4.8265114928 5.6957119608 16.8758388795
4.5457933379 8.2802232778 2.8716900852
4.9696463945 7.1057767858 16.0338459341
4.3137480332 7.7805950646 15.5486988930
4.3871039421 9.1977787833 2.5039915093
4.9833988138 9.3763087082 2.1601670630
4.9535507570 8.6505893236 2.4170696610
4.5738696264 8.8590167143 15.2219787534
4.1183844556 10.3470686963 2.2726412046
5.1240566680 10.3550458971 1.8697386287
4.5648942859 9.8192382749 14.8543847463
4.4987094815 11.0782477718 1.8124194911
4.6592592684 11.3570377722 1.6391712632
4.9253539122 11.1209417553 1.6773195618
4.4859947168 10.3997157239 14.5470667669
4.4565814412 10.9378327061 14.0279351256
4.4867931191 11.5808593544 1.7619846394
4.7031544628 12.1853496221 1.9998528978
3.9408849164 12.4592769388 12.6019624892
4.8707805391 12.3114528368 12.3302599484
4.2138812793 13.0854648344 11.9129498246
5.0353959627 11.5341885056 13.2137823775
5.2238697017 13.1589651257 2.3909243918
4.0077053235 13.7151139971 11.4392175107
4.7607740959 14.0510740527 2.9849014745
4.9157624179 14.6391940296 3.5243104028
4.1917326041 14.1177920508 10.9874260533
3.9906728926 14.5370846074 10.5623192127
4.7637972815 14.9968697438 4.0282342699
4.6462846811 15.5275016170 5.1382892701
4.7793722546 15.3283977301 4.7869287954
4.9044941783 15.6039646924 5.6624577038
5.0691998269 15.5112932264 5.6396908166
5.2177611993 15.5328246744 6.2405751420
3.9685195367 15.1533360953 9.6341618941
4.3990991653 15.0145922830 9.6864280571
4.7523977278 15.0728755120 9.2829413333
4.3960553380 14.7659080808 10.0573543750
5.7901215059 2.6873151832 9.4281731252
6.2790125175 2.5353088710 8.7039052602
6.5001075514 2.1023025868 9.5113744195
6.2650832003 2.2770204615 10.2807828108
5.5746989101 2.7416135753 10.3156002115
6.0666058704 2.4501945668 10.9826191097
5.5609109474 2.8362673710 16.5794272525
5.8010352010 2.8212606959 15.8762075827
6.1158353162 2.6376207814 16.3958551145
6.1582958122 2.5548445279 17.2476955521
5.4575372442 2.9856219716 17.4797578549
5.9508561132 2.5768580200 17.9994472059
5.5983660822 2.9901402961 18.1665225142
5.8456171858 2.6460877776 18.3311008755
5.6526437277 3.0109490202 18.3847712126
5.3538550581 3.4982618403 8.3168079790
5.8889883802 3.6281481608 7.2859007377
6.4733389459 2.9952128765 7.7289199530
5.0960640376 3.2539334786 9.5340315402
5.5458174516 2.8220548278 11.2486598318
5.6783684643 2.9557945956 12.4837703783
4.9286714430 3.3949174532 13.1046665331
5.6558913041 3.0802807709 13.9056272619
4.9040537820 3.4153116631 13.9153579940
5.7678443726 2.9783215198 15.0615216591
5.2867326737 3.6083844110 17.8596588501
5.6274757390 3.6718871592 18.2307726746
5.2426295039 4.9078779177 5.8719680697
5.7397578807 5.0083410443 5.0920317587
6.2320245505 4.5642613543 5.3963959207
6.1149568135 4.0329753490 6.3741468688
5.2355562407 4.2274662555 7.0846347714
5.4170677780 4.3072665417 17.9103885228
5.8185990068 4.2793377955 18.1042606236
6.1962954837 4.0251659196 18.1465902084
5.3197781483 5.4235818739 4.9224865173
5.7128407033 5.5895966934 4.3553954530
5.7406464133 5.2423701932 4.7247057502
5.7447272148 4.7591209621 17.7705302687
5.2828041406 5.0881744355 17.4053687167
5.5570920179 7.1667570067 3.0578995347
5.6873114999 6.2236345872 3.7453067481
5.3937972547 5.6791309261 17.0488784931
5.4115972692 6.2776125615 16.5803476289
5.3539315984 8.0251477683 2.5617650043
5.6485869767 8.5221379632 2.2378975717
6.1601416331 7.6886370550 2.4790282090
5.7760463688 6.9735416031 16.0644878021
5.5076300276 7.9279811107 15.5667969507
5.8651506914 9.2946633428 1.9765640355
5.5748906262 9.2010315733 15.0207575030
6.0450207134 10.0635292294 1.8399901901
5.1934858425 10.2672799777 14.5038568984
6.0540123262 9.7967513054 14.5988929488
5.8875214389 10.3961524274 14.1631856914
4.8528848608 11.5193916975 1.6837521260
5.6422190827 11.1565148707 1.8099600213
5.4018055220 10.9213936367 13.8189563523
6.2143404377 10.7706127621 13.5005875808
5.7415172411 11.2862303299 13.1809791858
5.9354496042 12.2320499909 2.0909495243
5.1324534827 13.0478344604 11.3574830808
5.9537525005 12.4447238236 11.2825169828
5.7350511117 13.0591961929 10.7888714847
5.8977793794 11.7207091177 12.3641710238
6.2602750591 13.0322070127 2.4818551885
5.3437674492 13.7066763936 10.4786238686
5.9752567165 13.3270205344 10.2524658931
5.9654456000 13.8433111621 9.7011443408
4.6183737939 13.6868100089 11.1488781651
5.8093212315 13.7295839188 2.8693620830
5.3661372589 14.8023748436 3.9439566825
5.7265759794 14.3454677108 3.5693005957
5.9746481195 14.6829445245 4.2510861951
5.2181786879 14.6145284851 9.4983898772
6.1577529614 14.3180461284 8.9137524198
5.7960887943 14.8124963082 8.5204425850
4.6538195124 14.2940697692 10.4782984241
5.5814117626 15.0274977648 4.6683586738
5.6040109163 15.2499559061 5.5997002259
5.5175271148 15.3358454616 7.1779995591
5.5935709171 15.3464368174 6.4752391959
5.4338065186 15.0677000016 8.4027404431
5.9350114883 15.0352107759 7.5837040705
7.0179843444 1.7409996755 9.5096424019
6.8927656295 1.9388306511 8.9925422589
7.3018150318 1.6384962843 9.2188129494
7.5112067792 1.6236643565 9.6494545436
6.9937316032 2.2896039349 8.3304800521
7.0925094834 1.8891195048 10.2147046714
6.8391531332 2.1884671497 11.2275632384
6.2666768676 2.5087688342 11.7944757053
6.9469748773 2.3619301204 12.1123592180
6.5968147658 2.5908850265 12.5711275618
7.3230643275 2.5326969529 12.7753274162
6.5486024951 2.8672783606 15.6885462610
6.5332153926 2.6305270431 16.6379546089
6.6039556908 2.5671601529 17.1574736450
6.7895337169 2.7797149545 16.9451604491
6.5967829603 2.5601345708 17.5569480076
6.4365856947 2.5111634293 17.9386653320
6.2461114946 2.4817524001 18.2395318108
6.4752877432 3.4605099611 6.9367687957
6.8519635711 3.6041230097 6.4005956187
7.2530530246 3.1399490019 6.9043462987
7.3773678861 2.5841102024 7.6780123444
6.7367254463 2.8371585341 13.5140476016
6.4594890518 2.9401300623 14.5719908584
6.7967393799 2.7568944619 17.3549956400
6.2516442930 5.0567969678 4.6268775433
6.9552774762 5.0939446382 4.2330545763
7.0613920478 4.6058884382 4.8277717674
7.0992884547 4.0080294343 5.6705410767
6.5440162728 4.6364608889 17.3744794813
6.8926118646 4.2453346768 17.1010623367
6.8189858288 4.9442238163 16.7652117732
6.1772391802 4.5375181509 17.8150904574
6.6490457490 3.9753896387 17.7574889256
6.6768285890 3.6130410329 18.1375123370
6.4100610942 5.5853116868 3.9579314198
6.5826564371 6.2500829495 3.3381606446
7.2957926035 5.5609340412 3.7091504346
6.0531635256 5.3667460909 17.1167521016
6.6921315674 5.6459478986 16.4812552194
6.7619623564 6.9286516320 2.7746267326
6.2737368745 6.2809367172 16.3431642574
6.9191220139 6.1238202556 16.0114553380
6.6254236080 7.0387070065 15.6814174772
6.6711873411 8.2975433432 2.1526309275
6.9694281559 7.4570627766 2.4101198003
6.6253283980 8.2761119038 15.1147374443
6.7886728205 9.2611821624 1.9472758208
6.4189717457 9.1878625500 14.8223232789
6.8405804511 10.2341565936 1.9145806969
6.5720389229 9.5263435035 14.5669335800
6.5898636685 9.9826302027 14.1061734650
6.8697963492 11.2786120735 2.0395639411
6.2473979631 11.2376959866 12.8287582712
6.7930243673 10.8536121233 12.7699795976
6.6264239905 11.3234259420 12.2307095427
6.8800502706 10.3592263945 13.3894937936
7.0787734844 12.2125775304 2.3732332997
6.2343746721 12.8793158471 10.4718988074
6.9038548805 12.4571938054 10.2000619703
6.5423179083 13.2506929208 9.7465936652
6.8611215982 11.6890346564 11.2937210629
7.1434491548 12.9454372805 2.8289942686
6.5418123037 13.4750434671 2.8938858892
7.0430057174 13.4530162443 3.2542867715
6.4719098989 13.7874053551 9.2555134271
6.5452503505 13.8645884589 3.4316420336
6.3388330482 14.7402729950 4.8158595524
6.8709252438 14.1966548534 4.4610571492
6.8487544125 14.5637844001 5.2881302106
6.2370466035 14.6585014840 8.2200456053
6.6147836469 14.2794485177 8.3797387484
6.6206532442 14.5374514672 7.6940017959
6.6988987459 13.9511188920 8.7849130219
6.3203893169 14.9086365135 5.5036023007
6.3521410240 14.9121213165 6.5855120771
7.5271467137 1.8233084019 8.7655044182
7.6757475529 1.5829525579 9.2287154195
7.9849443574 1.6419930933 9.5004291280
7.6167944157 2.1649544966 8.1905345122
7.9812421129 2.3435952610 7.8187473376
8.2037675205 2.0139207967 8.4577610356
8.0416034116 1.8660830279 10.2318954242
7.6354405758 2.0258811030 11.0359950379
7.6818513555 2.2886852081 11.9796921260
8.0042543754 2.5771859399 12.7341891699
6.8504453850 2.9397573928 16.4570927434
6.7920499353 2.8436101907 17.8396482919
6.6388235512 2.6536692307 18.1758391532
7.4681498021 3.5141837632 6.1748576330
7.9579157645 3.7267958420 5.6996571756
8.2189325893 3.2474349235 6.3355687431
8.0459587458 2.7283151384 7.1963062053
7.8006990607 2.8652202699 13.4543038527
7.4506031105 3.2052410415 14.6324790281
7.2046641342 3.3976508975 15.9195318667
7.7971120337 3.9942523969 15.2859159676
6.9560702592 3.3656387667 17.1065795520
6.8431321514 3.3616035591 17.9173357971
6.8135636292 3.0877635212 18.1585222632
7.7563910989 4.9426964757 4.2427762108
8.0840319142 4.2854276846 4.9756706601
7.2979884337 4.3089284628 16.2668245512
7.8316394866 4.9767561541 15.4456004259
7.7446239760 6.3273103115 3.0796704643
8.2229875191 5.5222498293 3.6797190352
7.2323986989 5.3682844464 16.0783527577
7.5716498590 6.2002526746 15.3944065681
7.4727970603 7.0018432948 2.5936978438
7.6709704101 7.6419445055 2.3390841622
8.0418389681 6.9703499829 2.6456051118
7.4349593014 7.3674092747 15.0804861816
7.4815065526 8.5099932925 2.1081886925
7.4292056884 8.1037257155 14.7907040692
7.8076532438 7.6555845283 14.7212517212
7.9093942684 8.2089887563 14.2906392721
7.7016851023 9.2936438104 2.0842854002
7.1092122085 9.0274667047 14.4689666860
7.7136441849 9.0440328044 13.9025099953
7.8882588419 10.3223006634 2.1870833933
7.8092396188 10.3051016843 11.8951238880
8.1955668039 9.9641519660 11.4725856343
7.9341679940 10.5527097101 11.1349786495
7.4545387788 10.2222217994 12.7406424211
8.0930983166 9.6817183987 12.2824608500
7.2996022624 9.7164854941 13.6781083379
7.8965393391 9.3986093203 13.2019656419
7.7974045155 11.3167259099 2.3335987440
7.3110899259 10.9133016788 11.8536625717
7.5952630527 11.1629134239 10.9181344869
8.0151765686 11.8791074791 2.7258174688
7.5433765098 12.4373992094 2.6873675438
7.8969139335 12.5204140720 3.1088124604
7.2023958851 13.0354479448 9.1776018405
7.7174771965 12.3230850358 9.1856214568
7.7026091928 12.9546550776 8.5400559499
7.6189541033 11.6538244623 10.1405904388
7.3220299956 13.6128829534 3.8918480550
7.6638745754 13.0806997368 3.5111431818
7.5737236651 13.6863215961 4.4491936246
8.1303018627 13.1095302209 4.4012403120
7.8431062758 13.6488153189 5.0528060167
7.2179760087 13.7195908773 8.2624878686
7.8159347364 13.1836357735 8.0692309752
7.8229874824 13.4924787524 7.4834372392
6.8660250099 13.5484281994 9.0593429538
7.0371758730 14.5158623455 6.1048842178
7.4727554117 14.1180568283 5.5767913572
7.1837902226 14.2446285709 7.1158996981
7.7348053231 13.9028397047 6.5374783970
8.0191911524 1.7067891922 9.0491666049
8.5477525033 2.3853224023 7.7111703266
8.8725477752 2.1788725730 8.4984634928
8.5249456256 1.9276606844 9.3702599260
8.8706493326 2.2948167552 10.4285168584
8.4263448838 2.2924041806 11.3830326286
8.3684490799 2.5134067433 12.2747044800
8.8166288875 2.7557033628 12.1314059987
8.8013317270 3.7537785936 5.5163198414
8.9940913337 3.2386554099 6.1798862265
8.7412751941 2.8073377126 6.9124812196
8.5713553381 2.9698223805 12.9432814596
8.3656588108 3.3653039087 13.8730938201
8.2264177197 3.7839241988 14.5512204524
8.7401242522 4.0495227733 14.0371231644
8.7468582527 4.9335011402 4.2597626724
8.8768344420 4.3241811845 4.8397157901
8.3801054749 4.5257453743 14.7320179817
8.8764524833 4.9488614607 14.0713984161
8.5957041957 6.0735689830 3.3250259579
8.8636855244 5.6579288894 3.6790414635
8.3603311387 5.5955031960 14.7364756238
8.8759978235 6.0380850052 13.9704029158
8.3845951961 7.4020335946 2.5465114387
8.6558937535 6.8191815718 2.9419559442
8.2309526365 6.9837315508 14.5042563464
8.8526389905 6.9537511351 13.7497317142
8.3305138259 8.2780575043 2.3691003584
8.8515598842 7.6291982223 2.7208229009
8.5642490283 7.8707261414 13.6303544032
9.0324004411 7.3352338144 13.2006842071
8.9218414458 7.9446183513 12.8458522709
8.5520692491 9.3210721581 2.4092001617
9.0392595078 9.5950582230 8.6465732795
9.3435977886 9.0008509013 8.0469096302
9.2504725655 9.7796443506 7.7381843784
8.9066775388 9.3658725945 9.6224086919
9.2579043916 8.7304187621 8.8509399029
8.8628243356 9.1121244143 10.4981274922
9.1839239295 8.5391022683 9.8583733303
8.6180886559 9.1947212022 11.5133357919
9.0993890581 8.4237914222 10.9035818329
8.4961036060 8.7622602358 12.7685919183
9.0005157131 8.2402886215 11.9818900262
8.1568522270 8.6932264886 13.6112190587
8.6645799935 10.0732824309 2.5052575781
8.4461866965 10.7672094157 2.5195240412
8.9381911780 10.4094919713 2.8462879669
8.8650406981 10.5116559810 8.3703724969
9.1352279900 10.7445488556 7.4802558338
8.6281746180 10.2716271036 9.3859340062
8.4748384001 9.9236416971 10.5397576047
8.2954939443 11.3016839722 2.5884024071
8.7251940744 11.1769518082 3.0163618635
8.7464082110 11.3643960004 8.0287147693
8.9521269576 11.7054725821 7.2862782620
8.3150518459 11.3577562531 9.0353568638
8.1183421901 10.8442195078 10.1849015205
8.3241469569 12.5814387079 3.7969990762
8.5319735217 11.9625124471 3.3987102764
8.5910618762 12.5687390574 4.2944435467
8.8469263019 12.0608919040 4.1433610724
8.8258669426 12.4026170498 4.7946876236
8.2939625149 12.4680491358 7.9617633602
8.7566183989 12.4594103805 7.0092224640
8.1776772689 13.4903663832 5.9754233662
8.5351527033 12.9842876070 5.3812279946
8.3250567616 13.1523494555 6.8960456895
8.7425524953 12.7653009047 6.2645774672
9.0036670284 2.4717480670 7.6152352474
9.1472976232 2.2783417991 8.5149046578
9.1828364383 2.3997651894 9.5809694918
9.4258367909 2.9783463391 10.6468896846
9.6190935835 3.2893599216 10.2867570607
9.1232701096 2.8386896910 11.4394739093
9.1930328145 3.4855314681 5.8003306265
9.2647077104 3.3216639915 6.0288509188
9.1226084683 2.9351727408 6.6540371856
9.7096045939 3.9134705037 10.7918193965
9.8125881467 4.2690541821 10.3423078317
9.5062314301 3.6718969774 11.5536332758
9.1666062300 3.4703341054 12.4866351373
8.8958575314 3.5911940328 13.3755062657
9.1078151995 4.5557031872 4.6017178163
9.1594288870 4.2151405266 4.9675010895
9.2301519553 3.6832185163 5.5601684002
9.8049787745 5.0544787910 10.6197686197
9.8770681250 5.1898082831 9.8999151461
9.6757256248 4.6928929060 11.5440115126
9.4607771487 4.4717708099 12.4567841091
9.1572075560 4.2849420394 13.3309582113
9.1069501858 6.3519523404 3.3854545972
9.1781290860 5.6703517832 3.8325934623
9.1725433841 4.8229755958 4.4054003231
9.9077022341 6.6100164792 7.8339503803
9.9596440057 6.4058670117 7.6765036068
9.9345265842 6.8788050846 7.3092552557
9.8627608694 6.3477285946 8.7033637345
9.9403203633 6.1645322957 8.2283659798
9.8203276317 5.9669517062 9.7943628779
9.9074732066 5.8153204512 9.0833728935
9.7415714707 6.0248123994 10.7408984525
9.6879375270 5.7155261810 11.4896843451
9.5377368555 5.5061897468 12.3772580697
9.2682560833 5.2874185521 13.2735513333
9.2957462872 7.4177041067 3.1211683469
9.4157928136 6.7744643753 3.4359146360
9.8314729124 7.4426235227 7.3621537618
9.9123091590 7.5739839740 6.8405246950
9.7482258486 7.1501877592 8.3250435426
9.6904437498 6.9349061136 9.3867607104
9.6388003513 6.8065329899 10.4539604961
9.5828647874 6.6482045396 11.4298573683
9.5217874964 6.3494973461 12.1867241452
9.2580823505 6.4250785052 13.0811115654
9.1287622823 8.5119259923 2.8200881637
9.5531702614 8.3258851783 3.1987479444
9.6023983969 7.8010580107 3.3202098258
9.8302726427 8.2610878044 6.7164631441
9.9117326899 8.1273186891 6.4740564801
9.8652650367 8.8081140797 6.2522357784
9.7275253623 8.1269383411 7.2320055886
9.5809501651 8.1290181521 7.9637521424
9.4956426383 7.8448958312 9.0726460466
9.4364190105 7.6969737068 10.1613192768
9.3760775671 7.5531748276 11.2431568883
9.2901363653 7.2645822992 12.3377463731
9.1140920973 9.6414341700 2.8594994376
9.5108595731 9.2282847426 3.2449803515
9.6840969308 8.7706319224 3.3824206028
9.7367097803 9.3395054472 6.3939170619
9.7830868851 9.7573620900 5.8679156793
9.5836697836 8.9144911704 7.2159872008
9.3311985992 10.4309365157 3.5456532509
9.6335593724 9.7426265765 3.6312522585
9.6004666818 10.4910166124 5.9220610393
9.6659407298 10.5121317472 5.1914277845
9.4774549807 10.0422938306 6.8632412906
9.0373091252 11.4030570154 3.7678798255
9.5923105603 10.5074942730 4.2900370618
9.3475477230 11.2912190664 4.7995131097
9.3744640128 11.4343307641 5.9079028807
9.3353582619 11.0802976321 6.6564733539
9.0731859827 12.1872387016 5.6326348944
9.1152881923 11.9799098940 6.4864782430
3 2 1 0
3 4 3 0
3 0 3 2
3 6 5 4
3 4 5 3
3 8 7 6
3 6 7 5
3 10 9 8
3 8 9 7
3 10 11 9
3 14 13 12
3 14 12 1
3 12 0 1
3 12 15 0
3 0 16 4
3 0 15 16
3 4 17 6
3 4 16 17
3 6 18 8
3 6 17 18
3 20 10 19
3 10 18 19
3 10 8 18
3 10 20 11
3 23 22 21
3 23 21 13
3 21 12 13
3 21 24 12
3 12 25 15
3 12 24 25
3 15 26 16
3 15 25 26
3 16 27 17
3 16 26 27
3 17 28 18
3 17 27 28
3 19 18 29
3 29 18 28
3 21 22 30
3 30 22 31
3 21 32 24
3 21 30 32
3 24 33 25
3 24 32 33
3 25 34 26
3 25 33 34
3 26 35 27
3 26 34 35
3 37 28 36
3 28 35 36
3 28 27 35
3 28 37 29
3 30 31 38
3 38 31 39
3 30 40 32
3 30 38 40
3 32 41 33
3 32 40 41
3 33 42 34
3 33 41 42
3 44 35 43
3 35 42 43
3 35 34 42
3 35 44 36
3 39 45 38
3 38 45 40
3 40 45 46
3 40 46 41
3 41 46 47
3 41 47 42
3 42 47 48
3 42 48 43
3 51 50 49
3 53 52 49
3 49 52 51
3 55 54 53
3 53 54 52
3 57 56 55
3 55 56 54
3 57 58 56
3 61 60 59
3 63 62 59
3 59 62 61
3 62 63 50
3 63 49 50
3 63 64 49
3 49 65 53
3 49 64 65
3 53 66 55
3 53 65 66
3 55 67 57
3 55 66 67
3 58 57 68
3 57 69 68
3 57 67 69
3 69 70 68
3 73 72 71
3 73 71 60
3 71 59 60
3 71 74 59
3 74 1 2
3 63 74 2
3 59 74 63
3 63 2 3
3 63 3 64
3 64 3 5
3 64 5 65
3 65 5 7
3 65 7 66
3 66 7 9
3 66 9 67
3 67 9 11
3 75 67 11
3 69 67 75
3 70 69 76
3 76 69 75
3 79 78 77
3 79 77 72
3 77 71 72
3 77 80 71
3 80 13 14
3 74 80 14
3 71 80 74
3 74 14 1
3 19 81 20
3 75 11 20
3 81 75 20
3 82 75 81
3 76 75 83
3 83 75 82
3 86 85 84
3 86 84 78
3 84 77 78
3 84 87 77
3 87 22 23
3 80 87 23
3 77 87 80
3 80 23 13
3 29 88 81
3 29 81 19
3 81 89 82
3 81 88 89
3 83 82 90
3 90 82 89
3 84 85 91
3 91 85 92
3 84 93 87
3 84 91 93
3 93 31 22
3 93 22 87
3 36 94 37
3 88 29 37
3 94 88 37
3 95 88 94
3 97 89 96
3 89 95 96
3 89 88 95
3 89 97 90
3 91 92 98
3 98 92 99
3 91 100 93
3 91 98 100
3 100 39 31
3 100 31 93
3 43 101 44
3 94 36 44
3 101 94 44
3 102 94 101
3 94 103 95
3 94 102 103
3 96 95 104
3 104 95 103
3 98 99 105
3 105 99 106
3 98 107 100
3 98 105 107
3 108 45 39
3 100 108 39
3 107 108 100
3 109 46 45
3 109 45 108
3 110 47 46
3 110 46 109
3 111 48 47
3 111 47 110
3 101 43 48
3 111 101 48
3 112 101 111
3 101 113 102
3 101 112 113
3 115 103 114
3 103 113 114
3 103 102 113
3 103 115 104
3 106 116 105
3 105 116 107
3 107 116 117
3 107 117 108
3 108 117 118
3 120 119 118
3 119 108 118
3 119 109 108
3 109 121 110
3 109 119 121
3 110 122 111
3 110 121 122
3 124 112 123
3 112 122 123
3 112 111 122
3 112 124 113
3 113 124 125
3 113 125 114
3 119 120 126
3 126 120 127
3 119 128 121
3 119 126 128
3 130 122 129
3 122 128 129
3 122 121 128
3 122 130 123
3 133 132 131
3 135 134 131
3 131 134 133
3 137 136 135
3 135 136 134
3 139 138 137
3 137 138 136
3 139 140 138
3 143 142 141
3 141 144 143
3 147 146 145
3 149 148 145
3 145 148 147
3 50 51 149
3 51 148 149
3 51 150 148
3 52 131 132
3 150 52 132
3 51 52 150
3 131 52 54
3 131 54 135
3 135 54 56
3 135 56 137
3 137 56 58
3 151 137 58
3 139 137 151
3 140 139 152
3 139 153 152
3 139 151 153
3 152 153 142
3 153 141 142
3 153 154 141
3 144 141 155
3 155 141 154
3 158 157 156
3 158 156 146
3 146 156 145
3 156 60 145
3 60 61 145
3 145 61 62
3 145 62 149
3 149 62 50
3 68 151 58
3 151 68 70
3 159 151 70
3 153 151 159
3 161 154 160
3 154 159 160
3 154 153 159
3 154 161 155
3 164 163 162
3 166 165 162
3 162 165 164
3 165 166 157
3 157 166 156
3 166 72 156
3 72 73 156
3 156 73 60
3 76 167 159
3 76 159 70
3 160 159 168
3 168 159 167
3 162 163 169
3 169 163 170
3 169 78 79
3 166 169 79
3 162 169 166
3 166 79 72
3 83 171 167
3 83 167 76
3 168 167 172
3 172 167 171
3 169 170 86
3 170 85 86
3 170 173 85
3 169 86 78
3 90 174 171
3 90 171 83
3 172 171 175
3 175 171 174
3 178 177 176
3 173 178 176
3 92 173 176
3 85 173 92
3 96 179 97
3 179 180 97
3 97 180 90
3 180 181 90
3 181 174 90
3 174 181 175
3 176 177 182
3 182 177 183
3 182 99 92
3 182 92 176
3 185 184 179
3 96 185 179
3 104 185 96
3 179 184 180
3 182 183 186
3 186 183 187
3 186 106 99
3 186 99 182
3 189 188 115
3 189 115 114
3 104 115 185
3 185 115 188
3 187 190 186
3 190 192 191
3 190 191 116
3 186 190 116
3 106 186 116
3 193 117 116
3 193 116 191
3 194 118 117
3 194 117 193
3 194 120 118
3 123 195 124
3 124 195 196
3 197 124 196
3 125 124 197
3 114 125 189
3 189 125 197
3 192 198 191
3 200 199 198
3 199 191 198
3 199 193 191
3 193 201 194
3 193 199 201
3 201 127 120
3 201 120 194
3 129 202 130
3 202 203 130
3 130 203 123
3 203 204 123
3 204 195 123
3 195 204 196
3 207 206 205
3 209 208 205
3 205 208 207
3 209 210 208
3 213 212 211
3 215 214 211
3 211 214 213
3 217 216 215
3 215 216 214
3 217 218 216
3 221 220 219
3 223 222 219
3 219 222 221
3 222 223 206
3 206 223 205
3 223 132 205
3 132 133 205
3 205 133 134
3 205 134 209
3 224 210 209
3 134 224 209
3 136 224 134
3 225 136 138
3 225 224 136
3 226 211 140
3 211 225 140
3 225 138 140
3 211 212 225
3 226 142 143
3 215 226 143
3 211 226 215
3 215 143 144
3 227 215 144
3 217 215 227
3 218 217 228
3 228 217 227
3 231 230 229
3 146 147 229
3 147 231 229
3 147 232 231
3 148 219 220
3 232 148 220
3 147 148 232
3 219 148 150
3 219 150 223
3 223 150 132
3 152 226 140
3 226 152 142
3 155 233 227
3 155 227 144
3 228 227 234
3 234 227 233
3 237 236 235
3 239 238 235
3 235 238 237
3 238 239 230
3 230 239 229
3 239 157 229
3 157 158 229
3 229 158 146
3 160 240 161
3 240 241 161
3 161 241 155
3 241 242 155
3 242 233 155
3 233 242 234
3 235 236 164
3 236 163 164
3 236 243 163
3 235 164 165
3 235 165 239
3 239 165 157
3 245 244 240
3 160 245 240
3 168 245 160
3 240 244 241
3 248 247 246
3 243 248 246
3 170 243 246
3 163 243 170
3 172 245 168
3 172 249 245
3 246 247 250
3 250 247 251
3 250 173 170
3 250 170 246
3 175 249 172
3 175 252 249
3 255 254 253
3 255 253 251
3 251 253 250
3 253 177 250
3 177 178 250
3 250 178 173
3 257 256 181
3 257 181 180
3 175 181 252
3 252 181 256
3 254 258 253
3 177 253 258
3 259 177 258
3 183 177 259
3 262 261 260
3 184 185 260
3 261 184 260
3 263 184 261
3 180 184 257
3 257 184 263
3 259 187 183
3 264 187 259
3 262 260 188
3 189 262 188
3 265 262 189
3 188 260 185
3 264 266 187
3 187 266 190
3 192 190 266
3 192 266 267
3 269 268 197
3 269 197 196
3 189 197 265
3 265 197 268
3 267 270 192
3 192 270 198
3 272 271 200
3 198 272 200
3 270 272 198
3 274 273 271
3 274 271 272
3 275 273 274
3 278 277 276
3 204 203 276
3 277 204 276
3 279 204 277
3 196 204 269
3 269 204 279
3 282 281 280
3 284 283 280
3 280 283 282
3 284 285 283
3 288 287 286
3 290 289 286
3 286 289 288
3 292 291 290
3 290 291 289
3 294 293 292
3 292 293 291
3 297 296 295
3 297 295 281
3 295 280 281
3 295 298 280
3 298 206 207
3 284 298 207
3 280 298 284
3 299 285 284
3 207 299 284
3 208 299 207
3 301 300 210
3 300 208 210
3 300 299 208
3 303 302 301
3 301 302 300
3 212 213 303
3 213 302 303
3 213 304 302
3 214 286 287
3 304 214 287
3 213 214 304
3 286 214 216
3 286 216 290
3 290 216 218
3 305 290 218
3 292 290 305
3 292 306 294
3 292 305 306
3 309 308 307
3 311 310 307
3 307 310 309
3 310 311 296
3 296 311 295
3 311 220 295
3 220 221 295
3 295 221 222
3 295 222 298
3 298 222 206
3 224 301 210
3 301 224 225
3 301 225 303
3 303 225 212
3 228 312 305
3 228 305 218
3 314 306 313
3 306 312 313
3 306 305 312
3 317 316 315
3 317 315 308
3 308 315 307
3 315 230 307
3 230 231 307
3 307 231 232
3 307 232 311
3 311 232 220
3 319 318 312
3 228 319 312
3 234 319 228
3 312 318 313
3 321 320 237
3 237 320 236
3 238 315 316
3 321 238 316
3 237 238 321
3 315 238 230
3 323 322 242
3 323 242 241
3 234 242 319
3 319 242 322
3 326 325 324
3 320 326 324
3 243 320 324
3 236 320 243
3 328 327 244
3 328 244 245
3 241 244 323
3 323 244 327
3 324 325 248
3 325 247 248
3 325 329 247
3 324 248 243
3 249 328 245
3 249 330 328
3 329 251 247
3 331 251 329
3 334 333 332
3 333 330 332
3 330 252 332
3 330 249 252
3 335 254 255
3 336 335 255
3 251 336 255
3 331 336 251
3 339 338 337
3 337 338 334
3 337 334 332
3 257 337 332
3 256 257 332
3 256 332 252
3 335 258 254
3 259 258 335
3 336 259 335
3 340 259 336
3 343 342 341
3 261 262 341
3 342 261 341
3 344 261 342
3 337 263 339
3 263 344 339
3 263 261 344
3 263 337 257
3 340 264 259
3 345 264 340
3 348 347 346
3 346 347 343
3 341 346 343
3 349 346 341
3 265 349 262
3 262 349 341
3 345 350 264
3 264 350 266
3 352 351 267
3 266 352 267
3 350 352 266
3 353 351 352
3 356 355 354
3 354 355 348
3 346 354 348
3 357 354 346
3 269 357 268
3 357 349 268
3 357 346 349
3 268 349 265
3 351 270 267
3 353 358 351
3 358 270 351
3 358 272 270
3 272 359 274
3 358 359 272
3 361 360 275
3 274 361 275
3 359 361 274
3 363 362 360
3 363 360 361
3 362 363 356
3 362 356 354
3 278 362 354
3 277 278 354
3 277 354 279
3 279 354 357
3 279 357 269
3 366 365 364
3 364 367 366
3 364 365 282
3 365 281 282
3 365 368 281
3 369 367 364
3 282 369 364
3 283 369 282
3 371 370 285
3 370 283 285
3 370 369 283
3 373 372 371
3 371 372 370
3 373 374 372
3 376 375 288
3 288 375 287
3 378 376 377
3 376 289 377
3 376 288 289
3 377 289 379
3 289 380 379
3 289 291 380
3 381 291 293
3 381 380 291
3 384 383 382
3 296 297 382
3 297 384 382
3 297 385 384
3 297 281 368
3 297 368 385
3 299 371 285
3 371 299 300
3 371 300 373
3 386 374 373
3 300 386 373
3 302 386 300
3 387 302 304
3 387 386 302
3 304 287 375
3 304 375 387
3 388 378 377
3 388 377 379
3 391 390 389
3 308 309 389
3 309 391 389
3 309 392 391
3 310 382 383
3 392 310 383
3 309 310 392
3 382 310 296
3 395 394 393
3 397 396 393
3 397 393 394
3 314 313 396
3 397 314 396
3 398 314 397
3 401 400 399
3 401 399 390
3 390 399 389
3 399 316 389
3 316 317 389
3 389 317 308
3 395 393 402
3 395 402 403
3 319 402 318
3 402 396 318
3 402 393 396
3 318 396 313
3 399 400 321
3 400 320 321
3 400 404 320
3 399 321 316
3 407 406 405
3 405 406 403
3 405 403 402
3 323 405 402
3 322 323 402
3 322 402 319
3 409 408 326
3 326 408 325
3 326 320 404
3 326 404 409
3 407 405 327
3 328 407 327
3 410 407 328
3 327 405 323
3 408 329 325
3 411 329 408
3 330 410 328
3 330 412 410
3 411 331 329
3 413 331 411
3 415 414 333
3 415 333 334
3 330 333 412
3 412 333 414
3 413 336 331
3 416 336 413
3 419 418 417
3 338 339 417
3 418 338 417
3 420 338 418
3 334 338 415
3 415 338 420
3 416 340 336
3 421 340 416
3 424 423 422
3 342 343 422
3 423 342 422
3 425 342 423
3 417 344 419
3 344 425 419
3 344 342 425
3 344 417 339
3 427 345 426
3 345 421 426
3 345 340 421
3 428 427 426
3 424 422 347
3 348 424 347
3 429 424 348
3 347 422 343
3 427 350 345
3 428 430 427
3 430 350 427
3 430 352 350
3 432 431 353
3 352 432 353
3 430 432 352
3 433 431 432
3 436 435 434
3 355 356 434
3 435 355 434
3 437 355 435
3 348 355 429
3 429 355 437
3 431 358 353
3 433 438 431
3 438 358 431
3 438 359 358
3 359 439 361
3 438 439 359
3 434 363 436
3 363 439 436
3 363 361 439
3 363 434 356
3 441 440 366
3 366 440 365
3 366 367 441
3 441 367 442
3 445 444 443
3 440 445 443
3 368 440 443
3 365 440 368
3 446 442 367
3 446 367 369
3 447 369 370
3 447 446 369
3 448 370 372
3 448 447 370
3 372 374 448
3 448 374 449
3 450 375 376
3 378 450 376
3 451 379 380
3 381 452 380
3 380 452 451
3 455 454 453
3 383 384 453
3 384 455 453
3 384 456 455
3 385 443 444
3 456 385 444
3 384 385 456
3 443 385 368
3 457 449 374
3 457 374 386
3 458 386 387
3 458 457 386
3 458 387 375
3 459 458 375
3 450 459 375
3 458 459 460
3 388 461 378
3 461 450 378
3 461 459 450
3 379 451 388
3 451 461 388
3 451 462 461
3 463 451 452
3 462 451 463
3 465 464 391
3 391 464 390
3 392 453 454
3 465 392 454
3 391 392 465
3 453 392 383
3 460 459 466
3 460 466 467
3 395 466 394
3 466 461 394
3 466 459 461
3 394 461 397
3 397 461 462
3 397 462 398
3 398 462 463
3 469 468 401
3 401 468 400
3 401 390 464
3 401 464 469
3 467 466 470
3 467 470 471
3 403 470 395
3 395 470 466
3 474 473 472
3 468 474 472
3 404 468 472
3 400 468 404
3 471 470 406
3 407 471 406
3 475 471 407
3 406 470 403
3 472 473 409
3 473 408 409
3 473 476 408
3 472 409 404
3 479 478 477
3 478 475 477
3 475 410 477
3 475 407 410
3 476 411 408
3 480 411 476
3 479 477 481
3 479 481 482
3 412 481 410
3 410 481 477
3 480 413 411
3 483 413 480
3 486 485 484
3 488 487 484
3 488 484 485
3 490 489 487
3 490 487 488
3 489 490 482
3 489 482 481
3 415 489 481
3 414 415 481
3 414 481 412
3 483 416 413
3 491 416 483
3 486 484 492
3 486 492 493
3 419 492 418
3 492 487 418
3 492 484 487
3 418 487 420
3 420 487 489
3 420 489 415
3 495 421 494
3 421 491 494
3 421 416 491
3 496 495 494
3 499 498 497
3 423 424 497
3 498 423 497
3 500 423 498
3 492 425 493
3 425 500 493
3 425 423 500
3 425 492 419
3 495 426 421
3 502 501 428
3 502 428 426
3 496 502 426
3 495 496 426
3 504 503 501
3 504 501 502
3 505 503 504
3 508 507 506
3 506 507 499
3 497 506 499
3 509 506 497
3 429 509 424
3 424 509 497
3 501 430 428
3 430 501 432
3 432 501 503
3 511 510 433
3 511 433 432
3 505 511 432
3 503 505 432
3 513 512 510
3 513 510 511
3 512 513 508
3 512 508 506
3 436 512 506
3 435 436 506
3 435 506 437
3 437 506 509
3 437 509 429
3 510 438 433
3 438 510 439
3 439 510 512
3 439 512 436
3 514 440 441
3 442 514 441
3 516 515 445
3 445 515 444
3 445 440 514
3 517 445 514
3 516 445 517
3 517 514 442
3 446 517 442
3 518 517 446
3 519 446 447
3 519 518 446
3 521 519 520
3 519 448 520
3 519 447 448
3 449 520 448
3 523 522 455
3 455 522 454
3 524 455 456
3 524 523 455
3 456 444 515
3 456 515 524
3 525 521 520
3 525 520 449
3 457 525 449
3 526 525 457
3 528 526 527
3 526 458 527
3 526 457 458
3 460 527 458
3 530 529 465
3 465 529 464
3 465 454 522
3 465 522 530
3 528 527 531
3 528 531 532
3 467 531 460
3 460 531 527
3 534 533 469
3 469 533 468
3 469 464 529
3 469 529 534
3 532 531 535
3 532 535 536
3 471 535 467
3 467 535 531
3 537 473 474
3 538 537 474
3 468 538 474
3 533 538 468
3 536 535 539
3 536 539 540
3 475 539 471
3 471 539 535
3 542 541 537
3 541 473 537
3 541 476 473
3 542 537 538
3 545 544 543
3 543 544 540
3 543 540 539
3 479 543 539
3 478 479 539
3 478 539 475
3 541 480 476
3 546 480 541
3 549 548 547
3 551 550 547
3 551 547 548
3 553 552 550
3 553 550 551
3 555 554 552
3 555 552 553
3 557 556 554
3 557 554 555
3 556 557 545
3 543 556 545
3 558 556 543
3 482 558 479
3 479 558 543
3 560 483 559
3 483 546 559
3 483 480 546
3 561 560 559
3 549 547 562
3 549 562 563
3 564 547 550
3 562 547 564
3 565 550 552
3 564 550 565
3 486 565 485
3 565 554 485
3 565 552 554
3 485 554 488
3 488 554 556
3 488 556 490
3 490 556 558
3 490 558 482
3 566 491 560
3 560 491 483
3 560 561 567
3 560 567 566
3 563 562 568
3 563 568 569
3 570 562 564
3 568 562 570
3 571 564 565
3 570 564 571
3 493 571 486
3 486 571 565
3 566 494 491
3 573 572 496
3 573 496 494
3 567 573 494
3 566 567 494
3 575 574 572
3 575 572 573
3 576 574 575
3 569 568 577
3 569 577 578
3 499 577 498
3 577 570 498
3 577 568 570
3 498 570 500
3 500 570 571
3 500 571 493
3 572 502 496
3 502 572 504
3 504 572 574
3 580 579 505
3 580 505 504
3 576 580 504
3 574 576 504
3 582 581 579
3 582 579 580
3 581 582 578
3 581 578 577
3 508 581 577
3 507 508 577
3 507 577 499
3 579 511 505
3 511 579 513
3 513 579 581
3 513 581 508
3 584 583 516
3 516 583 515
3 585 516 517
3 585 584 516
3 587 585 586
3 585 518 586
3 585 517 518
3 519 588 518
3 518 588 586
3 521 588 519
3 589 522 523
3 589 523 590
3 523 591 590
3 523 524 591
3 524 515 583
3 524 583 591
3 587 586 592
3 587 592 593
3 594 586 588
3 592 586 594
3 525 595 521
3 595 588 521
3 595 594 588
3 526 596 525
3 525 596 595
3 528 596 526
3 597 529 530
3 598 597 530
3 598 530 522
3 599 598 522
3 589 599 522
3 599 589 590
3 593 592 600
3 593 600 601
3 602 592 594
3 600 592 602
3 603 594 595
3 602 594 603
3 604 595 596
3 603 595 604
3 532 604 528
3 528 604 596
3 605 533 534
3 606 605 534
3 606 534 529
3 607 606 529
3 597 607 529
3 607 597 598
3 610 609 608
3 612 611 608
3 612 608 609
3 614 613 611
3 614 611 612
3 613 614 601
3 600 613 601
3 615 613 600
3 616 600 602
3 615 600 616
3 617 602 603
3 616 602 617
3 618 603 604
3 617 603 618
3 536 618 532
3 532 618 604
3 619 538 605
3 605 538 533
3 605 606 620
3 605 620 619
3 610 608 621
3 610 621 622
3 623 608 611
3 621 608 623
3 624 611 613
3 623 611 624
3 625 613 615
3 624 613 625
3 626 615 616
3 625 615 626
3 627 616 617
3 626 616 627
3 628 617 618
3 627 617 628
3 540 628 536
3 536 628 618
3 629 541 542
3 538 619 542
3 619 629 542
3 619 630 629
3 619 620 631
3 619 631 630
3 634 633 632
3 632 633 622
3 621 632 622
3 635 632 621
3 636 621 623
3 635 621 636
3 637 623 624
3 636 623 637
3 638 624 625
3 637 624 638
3 639 625 626
3 638 625 639
3 640 626 627
3 639 626 640
3 545 640 544
3 640 628 544
3 640 627 628
3 544 628 540
3 641 546 629
3 629 546 541
3 642 629 630
3 641 629 642
3 630 631 643
3 630 643 642
3 634 632 644
3 634 644 645
3 646 632 635
3 644 632 646
3 549 646 548
3 646 636 548
3 646 635 636
3 548 636 551
3 551 636 637
3 551 637 553
3 553 637 638
3 553 638 555
3 555 638 639
3 555 639 557
3 557 639 640
3 557 640 545
3 641 559 546
3 559 641 561
3 641 647 561
3 641 642 647
3 642 643 648
3 642 648 647
3 645 644 649
3 645 649 650
3 651 644 646
3 649 644 651
3 563 651 549
3 549 651 646
3 652 567 647
3 647 567 561
3 647 648 653
3 654 647 653
3 652 647 654
3 654 653 650
3 649 654 650
3 655 654 649
3 656 649 651
3 655 649 656
3 569 656 563
3 563 656 651
3 652 573 567
3 573 652 575
3 575 652 654
3 575 654 576
3 654 657 576
3 654 655 657
3 658 655 656
3 657 655 658
3 578 658 569
3 569 658 656
3 657 580 576
3 580 657 582
3 582 657 658
3 582 658 578