OFF
1380 2696 0
1.2209815061 19.2079386207 10.1134773865
1.3087566688 19.2231688764 9.4162969677
1.3280602575 18.6128818679 9.6597977224
1.3067823194 18.6741047276 10.2326905279
1.2170759754 19.8657369654 9.9996687015
1.3652948820 20.0350660615 9.3553644539
1.2569989440 19.1815193469 10.6286256705
1.2406793828 19.8008708283 10.6320085043
1.3327247955 19.5720197116 11.0946742854
1.3019089594 20.4431805148 9.9100471680
1.5009019954 20.7171288189 9.5228987256
1.3150748140 20.4676129561 10.4821131102
1.4808016049 20.4930000638 11.3243133668
1.5556813526 21.1368323899 13.0688345122
1.6704742575 21.2316257108 12.6867507936
1.5632624717 20.7449447942 12.8993590330
1.7013593859 20.8330597188 13.3444135196
1.5262095505 20.9923588930 10.1329175848
1.5770476042 21.0372642705 10.7733211915
1.6358009785 21.4108144261 13.0434945012
1.8870403353 21.5975091068 12.9157688429
1.6830701272 21.2962540695 13.2803565236
1.8743399060 21.5465774244 13.2131265119
2.3263519286 12.5927654415 20.2528759153
2.5216355720 12.7355782241 19.5705675475
2.6144368756 12.0214655754 19.8648898513
2.5193401501 11.9489240639 20.5115889457
2.3048276559 12.5196592713 20.8060001238
2.4559243451 12.1917767056 21.1492849902
2.0844332896 13.7788073349 10.3319916511
2.2363992758 13.5380547147 9.4299006528
2.4215198520 13.0846887147 9.9268812262
2.4621009538 12.9702028554 10.8091363527
2.1395104651 13.6355924390 11.4611355631
2.5579542609 12.9014285643 11.8738384265
2.2837405683 13.5682692526 12.4620801252
2.8710057318 12.8879818217 12.9742039365
2.4516273168 13.5889399317 13.1954155280
2.7962806815 13.3935293376 13.6704659071
2.2398822405 13.4394978189 20.1425705304
2.4428174727 13.6986657814 19.4296116563
2.2033872167 13.2182323165 20.8197162320
2.3301813704 12.8796585023 21.4005812252
2.1067312507 14.7293269754 7.1809305211
2.2244550431 14.7790886040 6.2128243226
2.4066555486 14.1036820365 6.6290187787
2.3843316809 13.8663579939 7.5255215836
2.0312282078 14.5820465550 8.2273582213
2.3057975099 13.6876387648 8.5827079650
1.9670387895 14.4157762604 9.3916831379
1.8437564326 14.6869911433 10.3897977643
1.8819073142 14.5213379940 11.2431153650
1.9835417539 14.4173674358 12.2573330318
2.1850363384 14.2628871067 13.1329366142
2.5198295559 14.0151107329 13.8022105215
2.2102096083 14.3524819353 20.0569543261
2.3751114032 14.4980180633 19.4680305214
2.1454716594 14.2744729117 20.8957225249
2.2369141320 13.7843992417 21.5375855544
2.4084224063 14.6192436440 24.0625575943
2.3996092510 14.7568926226 23.6608736172
2.4510283448 14.2254981273 23.8204383351
2.5164639546 14.3042855697 24.2479802950
2.1574251506 15.9250773001 4.6460665580
2.3710742386 15.8219470773 3.8826089192
2.4040004896 15.2964998996 4.1722756922
2.3090755925 15.1906106284 4.7293017211
1.9311077925 15.7020736858 6.7763040569
2.0882980123 15.4360808512 5.8539293684
1.8457380877 15.5523525175 7.9234173822
1.7882396801 15.4750884193 9.0205111033
1.7474861703 15.4756140225 10.1029619647
1.7457355116 15.4671735557 11.1214562269
1.8159802943 15.3996457784 12.1463598062
1.9938295589 15.3047488450 13.2779856786
2.2906357623 14.7960058240 13.9354249021
2.2421798454 15.0157123366 19.8793919687
2.1469814775 15.3347530126 20.5792849908
2.2504107420 15.7646001370 19.9115915350
2.1967555463 14.5772642416 21.6739572748
2.1673947698 15.2714036506 21.4688442758
2.2620215436 15.1164280812 22.1322189790
2.4109339844 14.9935975573 24.0569236584
2.4624636566 15.3331482790 23.8136565048
2.5170939447 14.8634745231 24.4045574158
2.2714000391 16.6399514772 3.9945328307
2.8175980641 16.9556406305 3.1642581173
2.5962802083 16.1224317127 3.3771974918
2.0118353847 16.7690109354 4.8730181499
2.1366193799 15.5438889515 5.2552888155
1.9387910378 16.3728315294 5.7907771582
1.7803864410 16.7026770747 6.9113889295
1.7238074066 16.5185392531 7.7519268470
1.6617028428 16.4995967188 8.7930159065
1.6383848936 16.5251002233 9.9145982504
1.6664553666 16.4745839863 11.0088084172
1.7258236296 16.4021173577 12.0343691732
1.8403326911 16.3734474944 13.0865650945
2.1632628626 15.5101336480 14.2188131630
2.0256310005 16.3606054924 14.2799797568
2.2763190357 15.8273536653 14.9961650227
2.1722028964 16.5960685687 15.4000758483
2.4036010948 16.0426464172 15.9064710759
2.2854399263 16.6826263670 16.1405308800
2.4550751371 16.3794007804 16.6107884404
2.1880701407 16.3478609262 20.4369777215
2.2764549245 16.4714337345 19.8614909159
2.2064458680 16.2841810185 21.2601553807
2.3110335294 15.9355977938 22.1182499828
2.5324072855 15.3756686971 24.2350137274
2.3855664382 17.5403609675 3.7955665794
2.8712642661 17.9050220174 3.3697844265
2.0909457826 17.4810863705 4.5618510545
1.9284569038 17.5050453537 5.5441705421
1.7891659247 17.5190976961 6.6418301194
1.6567072159 17.4666692213 7.6905670451
1.5898322674 17.2985745027 8.5365795086
1.4841992390 17.7612213283 9.7257891600
1.5676778725 17.5880337149 10.9429613137
1.6751013770 17.4670308096 12.0301830644
1.7729847763 17.2441484952 12.8766375060
1.9243396301 17.4769081032 13.9364460270
2.0838119007 17.3234040388 15.0204426426
2.2211275050 17.2601752060 15.9275009672
2.3901280334 17.0849323316 16.6952936058
2.3037177202 17.0227903928 20.0939171084
2.4939632341 17.4629095527 19.6281222362
2.3926494152 16.9138960640 19.5136049207
2.2776560174 17.0395572346 20.7568909818
2.3466888291 17.0805841561 21.3585584879
2.3848341131 16.7469859499 21.8862766264
2.4847590871 18.1257285746 3.7839224065
2.2842640284 18.1443086669 4.2640589504
2.4726719644 18.4440444221 4.0363523429
2.1366943425 18.3060538084 5.1413125692
1.9510008978 18.5921961757 6.3788757029
1.6908815237 18.4868653976 7.5914074581
1.4898904124 18.3087452690 8.7462169454
1.4090706468 18.7151960495 10.9413578252
1.5874085089 18.6270646814 12.0149102814
1.8092118821 18.4375757787 13.2880271566
1.9892834726 18.3418017761 14.1776450754
2.1037811280 18.1384565781 14.8156125336
2.2555721191 18.0180517384 15.6978704470
2.3795448289 17.7808122397 16.4586604289
2.4986196878 17.6470217222 20.3045572137
2.4779824469 17.5607120499 21.0083149629
2.6087957156 18.8919345698 4.5411579605
2.3445386259 19.1525682428 5.6758749894
2.1780761711 19.4867397702 6.5392921854
1.9034976023 19.6379791777 7.5015792846
2.3809747659 20.2028200889 6.9164194705
1.5388146317 19.3725577461 8.5572213068
1.4788852138 19.6492156850 11.8033992096
1.6756902199 19.8660755475 12.9874717838
2.0017327486 18.8622921957 14.1856578416
1.9579084993 19.4836904689 14.0174013971
2.1433417611 19.2516017287 14.7265719870
2.1911493036 19.9023883306 14.7227022604
2.3290681892 19.5752936843 15.2377441864
2.1742360172 20.7239530454 7.7757103403
2.7885661695 21.0395127375 7.2161172819
1.7389064420 20.5026578438 8.6770263346
1.5669432466 20.5563960856 12.3058111991
2.0596756064 20.4498087138 14.0464112144
2.3955246067 20.4375828276 14.8370758949
2.4399156454 20.0548341950 15.2632886681
2.4535984139 21.3752582908 7.8698444669
2.8895667630 21.6634579451 7.7493982760
2.1914534307 21.3796432125 8.4972579721
1.9567291216 21.4150463586 9.5057584864
1.9558440098 21.5777442351 10.5261338045
1.8969344873 21.4103514483 11.2984369581
1.8079388117 21.2345089210 12.0069310063
2.1624407830 21.7124544839 12.4808471044
2.7052195436 21.0742277199 14.5956671410
2.1353143257 21.3002881590 13.6614565505
2.6290335151 21.8113284746 8.2411622401
2.6622326266 22.1082643520 9.0150290620
2.5999967494 22.2196803081 10.1794699951
2.4694245552 22.0369380899 11.2018533789
2.4591852508 21.8226660646 13.1393737717
3.2945284077 10.5978880962 21.0230501381
3.5169750720 10.4301561784 20.1491174099
3.8938849521 9.9803274798 20.5056412727
3.8075366008 9.8753224161 21.4136431271
3.7057113618 11.4759812951 2.6296303851
3.7998483758 11.5550566309 2.1007353952
4.1440712538 10.8032867458 2.4532045412
3.9770854714 11.1776741223 3.0319119303
3.3719445962 11.1715059614 19.1938503593
3.5729316458 11.4757144378 18.6952130361
3.8057934834 10.9508939934 18.8575277337
3.6866182641 10.5903152132 19.4529517068
3.0395653853 11.2111968253 20.0282581241
2.7696229437 11.5259464272 21.1247059525
3.3852576315 10.3826787478 21.8963695131
3.0030896700 11.2302079404 22.1598161083
3.3588640943 10.5254012022 22.7246700710
3.0854042648 11.3467465254 23.3649162770
3.4322349103 10.6131439095 23.7154966923
3.1992928133 11.3988139358 24.3493096963
3.4700234906 10.7865353042 24.5354194128
3.4351321446 12.2593243834 2.7140409730
3.6334124093 12.4745824694 2.0022570687
3.6352236392 11.7496103991 3.1770027084
3.1829337247 12.3700395353 8.9435201939
3.3607603661 12.3348299624 8.0880449508
3.8886989315 11.8239423566 8.5815781805
3.6912895575 11.8594100793 9.7785482464
2.9493507145 12.4483853263 10.1076012614
3.6256883119 11.8906719783 10.9379215612
2.9813881128 12.3620962875 11.3289129744
3.5906593806 11.9777370922 11.9836712863
3.0550614580 12.3738507423 12.2908462677
3.5061109189 12.1364127696 12.6727990875
3.2247171825 12.3763547916 12.8442697634
3.7296178323 12.3532668037 13.3529495789
3.0220479743 11.9390657915 19.1598835146
3.5502232541 12.3025899207 18.2476381489
2.5933892432 12.3276324485 21.9831454224
2.7831729476 12.2509306848 23.0755443722
2.9344198462 12.2863739459 24.1729229561
3.3439188134 11.3321234907 25.0343769358
3.1604160619 12.1733827228 25.2103597778
3.4428041406 11.6054449270 25.7251125106
3.3475179654 12.3293764218 26.0116450806
3.5856939285 11.9864143594 26.3759093004
3.2943939723 13.1821968985 2.5447906627
3.5415676846 13.2602992405 1.9921561279
3.3829726498 12.3347399379 3.4358778437
3.1250764017 13.1657823061 3.5266140458
3.3715927567 12.5544824989 4.2030512411
3.0076704282 13.3051464315 4.7463859989
3.4014177057 12.6100601490 5.2128586698
3.0235454325 13.1573336268 5.6983824000
3.3617351694 12.6272062478 6.2400480438
2.8238341719 13.3058081545 6.7020424125
3.3056407480 12.5513494014 7.2496477270
2.8227465234 12.9854630158 8.0167664690
2.6135230884 12.9754476974 9.1393056533
3.4538138901 12.9761049329 14.0752389214
3.0094209303 13.6743165304 14.3362544178
3.5151786513 13.3739875800 14.8150864044
2.8785306006 13.0440870360 18.8242438661
3.2315335218 13.4616131360 18.0417548559
2.4071183367 13.4069758535 22.1894510176
2.5683791043 13.0781878427 22.8556911676
2.6513455416 13.4640689020 23.9187139967
2.9527712604 13.2608641479 25.0280836262
3.2529017764 13.0983466271 25.9301579085
3.5723563056 12.7893694085 26.5888617492
3.3326452839 13.7873055975 2.3021200100
3.0519128563 14.1655824395 2.9666717445
3.3298850509 14.3405978499 2.3065891131
2.6645574214 14.3940273860 4.2994092967
2.6191395816 13.9745454606 5.6449945729
2.7224813551 14.4670305460 14.6519232613
3.2474751014 13.9194039981 15.0780420812
2.7180110114 14.3485447389 18.6791525669
3.0696083970 14.2998624677 17.8106859670
2.3192880741 14.3856924987 22.2817005466
2.4488800195 14.0784679788 23.1127725750
2.7948330760 14.4242875239 24.8731564690
3.2386076591 14.1980814796 25.8306887118
3.6193070045 13.8251515368 26.6136839139
3.2228967886 15.0073498671 2.5310641680
3.8132571846 15.4348871202 1.9924251000
3.5886501397 14.6963538954 2.0061932554
2.7267237909 15.2529856103 3.3906653514
2.3221983323 14.8728641916 5.3224740801
2.4030269595 15.1734727772 14.6465227076
3.0401659181 14.4645012191 15.4091070997
2.6668673006 15.1761478533 15.4887414017
3.1205128188 14.6113732739 16.1541901590
2.7386763812 15.5230269568 16.6698916223
3.1445845876 14.5644519302 17.0762147167
2.7911897682 15.2698127061 17.8502368474
2.5998496696 15.4321742803 18.7143371390
2.4227411255 15.1989905755 19.3266302595
2.4252664176 15.3223279983 23.0061638980
2.7902670264 15.4554212309 24.7426995446
3.2962424062 15.4541267181 25.6257353051
3.9165113164 15.0728390115 26.5922314138
3.1462660002 16.0176202389 2.6954721177
3.8840226020 16.3929796906 2.1984280027
2.5890350861 16.5132471229 17.4921324213
2.6075978617 16.1471855463 18.4132931964
2.4383589089 16.1844424250 19.2264464616
2.6181269558 16.7218426959 22.7571107814
2.7522572824 16.1670911459 24.0048912599
3.2068526168 16.3799659850 25.0380679503
3.7287359464 16.5469451805 25.7403653752
3.8779737563 16.0039341170 26.1893241408
3.4065911359 16.8435212888 2.5775561368
3.5683759205 17.6133459149 2.7956559638
2.5957469366 17.8245774199 17.3586972587
2.6033376141 17.2702296234 18.6858119853
2.6433113763 17.5377624910 21.7823423094
2.9729641792 17.8087271715 22.6732003786
3.0414778052 17.3905672590 23.6088698834
3.2849327614 17.2341128672 24.5302420819
3.7512803193 17.3238632013 25.2640739581
2.8061462002 18.5341134985 3.7733903406
3.5920014119 18.5810593812 3.3451385865
2.1135960142 18.7083843658 14.6638322934
2.3034205452 18.8760425247 15.3831210908
2.5645571711 18.6526010415 16.4911709560
2.7888445014 18.6970702210 17.3206735852
2.9779286686 18.6683020690 18.2039144984
2.8595429235 18.2504477589 19.5453189370
2.8720551800 18.2368967289 20.8300777215
3.0801995852 18.3569595250 21.8694773340
3.2782122123 18.4926825566 22.5834793714
3.3319636239 18.2692340240 23.3055965314
3.4912461228 18.0803398971 24.1320665697
3.7576522440 17.9695015762 24.8004016548
3.1949201357 19.1167719025 3.9600083838
3.1561215800 19.4980534324 4.4672634451
3.4569907322 19.5531727659 4.1588614393
2.9587189741 19.7501635237 5.2978512078
2.5315635562 19.8137485141 6.1498292687
2.6521217594 19.6908303373 15.9185015111
3.0938712808 19.5722713564 17.1365608612
3.6506079616 19.7038206494 18.2126300553
3.4142815638 19.1843868281 19.0880691115
3.3771704974 19.0130242560 20.1318302522
3.4205447204 18.9900677836 21.2361945690
3.4557761561 18.9240268597 22.1044580227
3.8016753368 20.0011340796 4.5848299716
3.5737180747 20.3038678981 5.4713493638
3.0288572384 20.4300012569 6.2594279296
3.8674489822 20.7400820617 6.0529355051
2.7930030598 20.5159422869 15.4279970503
3.2100615935 20.4023826438 16.2869982977
3.5019558329 20.3539472196 16.9727291473
3.6361127368 20.1570994054 17.4926873842
3.4507857706 21.0353359973 6.6963706168
3.5966092415 21.6145086414 7.3491718233
2.2716341121 21.7905993034 11.8573833376
3.3406077350 21.5952587115 14.6460847204
2.9212012548 21.7054059825 13.9612469443
3.5842660786 21.1922101241 15.5291384534
3.8589806718 20.8231858705 16.5797496309
3.3396318073 22.2156610983 8.2564575419
3.2471311238 22.5874218991 8.9724410363
3.6904959723 22.7139419770 8.7788623019
3.1345449301 22.6576768209 9.6422135244
3.1970423605 22.7320135019 10.3468999548
3.1046658924 22.5738814144 11.0491462973
3.0864983584 22.3316728669 12.2480991762
3.4401476618 22.1842488974 13.4983368919
3.6887038033 22.9054410754 9.3578183514
3.6834092620 22.9855132077 10.1078367949
4.2909407128 9.2812290585 22.0619967712
4.6794137549 9.0423968609 21.4347885354
4.9729495557 8.7437492584 21.7524719794
4.8894328052 8.5462709299 22.6635835994
4.2753403817 9.1926215992 23.2571335119
4.6578335202 8.6382738235 23.5303946041
4.3880197146 9.4106800834 26.2426996799
4.4069253343 9.1015511167 25.6072801748
4.6095894112 8.7624645711 26.0429277401
4.6838942064 8.9536526137 26.6397219948
4.6112140482 10.0138776236 1.7072203771
4.7843900942 10.1552667783 1.4093886633
4.9196050357 9.6663675423 1.6125392037
4.9695927695 9.6359139167 2.0944814936
4.4611088073 10.2069955982 2.0707062870
4.7059152142 10.1406179227 2.6317895167
3.9209365324 10.1327044548 19.8485957605
4.1790654430 10.1794240877 19.4178280437
4.4913892686 9.8530721825 19.8577261707
4.5774996039 9.4168217440 20.8707807106
3.6823545962 9.9433177833 22.2167861572
3.7852776624 9.8779343907 23.0369172448
4.3521490421 9.0604009222 24.0325006292
3.8935717209 9.9047451555 24.2833966861
4.3448162067 9.1328198193 24.8489067209
4.0746977634 9.9313208282 25.5890115364
4.2072059554 10.2322026795 26.5859832093
4.5443214009 9.6536544652 26.9994542910
4.2927968991 10.7380470499 1.7114864232
4.6855705542 10.9840537822 1.2848976971
4.6870842079 10.6487008834 3.3672829260
4.1131389446 11.3854542560 3.8006187624
4.7594981187 10.9921294109 4.1658535358
4.3332926282 11.2812411723 18.2381066065
4.2499724279 10.5406055623 18.9303598124
3.6446717921 10.7642551000 25.2543928172
3.8372338903 11.0903869795 26.2712661461
4.3945190757 10.3686110661 27.2456476639
4.1812235713 11.0532973872 27.1348992843
4.4538225249 10.8528190405 27.7104048895
4.8172404853 11.4301801122 30.5505982479
4.7566506802 11.5273543879 30.0855911143
4.8842841417 10.9449825392 30.3621061645
5.0612112576 11.0469649925 30.7631523628
4.1175231080 11.7555559594 1.5472240130
4.6430496413 11.9994905767 1.2144809691
3.6319440899 11.9849869062 3.8117735674
4.5471224439 11.3402857919 4.6855214333
3.8902644439 11.9346672616 4.6892633377
4.4540788628 11.5900410252 5.5421905133
3.8707555236 12.0925484465 5.8028781412
4.3297259359 11.7177312723 6.4025938877
3.8376115056 12.0904057628 6.8059876140
4.4722794438 11.5545761757 7.4974218756
3.7516087190 12.0545126292 7.6481040534
4.5851031370 11.3648607199 8.6063226041
4.4056555201 11.4105860454 9.5102152081
4.3421032811 11.4541860215 10.5946375396
4.4657297444 11.5615271421 11.8066117510
4.2060964799 11.9016744992 12.7656814668
4.7625742498 12.0425978289 13.6566936632
4.2009431675 12.1454883830 17.5989937313
4.4061322086 12.5097406409 16.9545762409
4.9784003929 11.7495010621 17.2368441790
3.9552692025 12.1097260627 27.0738822250
4.3693404188 11.6919925624 27.8248401812
4.8107940711 11.9857889115 30.4410911963
4.8161231176 12.2995225972 29.9127791806
5.0356599469 11.7100979346 30.7892669775
4.0253868812 12.8880814785 1.5183772789
4.6637549810 13.0107035108 1.1871264126
4.3999263806 12.4512287527 14.3354279764
4.1148537147 12.9048624613 15.0106902568
3.7932143263 13.4469539983 15.6058369562
4.4258958026 12.8477727724 15.8390616164
3.7922414231 13.0075419248 17.3546160988
4.0894533842 13.0667914592 16.7127611585
3.9949329244 13.3137095601 27.2303546595
4.3631574127 12.7668092689 27.8421039702
4.9351095943 12.5019348084 30.2948958189
5.0987447929 12.8244084381 29.8795837512
5.1179591236 12.2978221796 30.6375323642
4.2054456881 13.7014087086 1.3866864038
4.6903302895 13.9202726146 1.2194012339
3.6909246098 13.9239314369 1.8240860554
3.3884695186 14.0577867070 15.7470493291
4.0982626004 13.2006216559 16.2329625111
3.6285767059 13.7441458136 16.5369338307
3.3922503135 13.8274172625 17.3718179064
4.1187582810 14.3312534920 27.1900965435
4.5937187187 13.8686134850 27.8022508248
5.3367109578 12.7877524363 30.2745172406
4.1270404403 14.5621097499 1.5495726740
4.7455981170 14.6685699153 1.3079449539
4.3075040153 14.9239234151 27.1474548498
4.6058682183 14.6892791454 27.4625082018
4.4143693743 15.1956967012 1.5490832943
4.6495908541 15.8203333743 1.7875287960
4.2076471799 16.6371652263 26.1716991891
4.5783808743 16.1852391840 26.5819866817
4.8160223174 15.3672375848 27.1499217581
3.9185522736 17.0956607633 2.3657696124
4.6542687093 16.8566438890 2.1436432318
4.7206545950 16.9401367619 26.2892142298
4.4166312529 17.3651315434 25.8585217220
4.2914289768 17.5198429909 2.4425889728
4.4407493964 18.1443306328 2.8057894800
3.6654778234 19.0544988898 22.8976182895
3.7033362382 18.7654278668 23.7378528510
4.0507218168 18.8047461538 24.4871207855
4.4324668088 18.3161013512 25.2789339818
3.8496937012 19.4209224145 3.8558686736
4.7433373006 19.0406334209 3.3960637508
3.8622268043 19.6731182491 18.9102762972
3.9238246945 19.6097823577 19.5682882063
3.9505957904 19.5863107214 20.6180902545
3.9601541448 19.6260684800 21.9239311696
3.9869138618 19.6332588576 22.8254329894
4.1274350152 19.5897317995 23.6441330123
4.4459670923 19.5920653786 24.4613377260
4.6371434465 19.2255056916 24.9444044926
4.5387862518 19.9103987825 4.1157812768
4.3050869162 20.2842468040 4.4045648043
4.5914250441 20.3241054693 4.4202972888
4.2813483786 20.3862804721 4.6343122822
4.4103794024 20.4669625119 5.1994681029
4.7363484851 20.8572055153 6.0621439583
3.9069220488 20.5593425374 17.2197598475
4.1972073620 20.3620746066 17.7871800761
4.5653451874 20.0695368705 18.7875215260
4.5341648186 19.9339127930 19.9407521428
4.6627093727 20.1354826145 20.9801982021
4.4653874341 20.2723992001 21.9556894399
4.3242634258 20.1696155956 22.7422480735
4.6107277539 20.5439001776 22.3380853909
4.5364907474 20.3955668523 23.5266218171
4.5828400302 20.1623374846 24.1502859289
4.4213943535 20.4319231827 4.4894527350
4.2090117146 21.2219935178 6.6645399562
4.6450849000 21.7105600137 7.2590918357
3.6213797350 21.9690116574 14.2491183903
3.9911039125 21.8267811963 14.8821231332
4.3737099103 21.6518117442 15.4650080518
4.6472204837 21.2875602385 16.1698029621
4.5122365681 20.8185432376 17.0944545068
4.8640013823 20.8751228360 22.8516211670
4.1674205399 22.1354765095 7.8189052873
4.1242136857 22.9332948902 9.0415184987
4.2716799853 22.6271841738 8.4565697431
4.6238442371 22.9681027706 8.9814506142
3.5715873687 22.9220993228 10.7704373647
3.7340614657 22.8917925849 11.4976859799
4.0106271980 22.8867523220 12.2770462804
4.1236236036 22.6785139087 13.1166866732
4.4673494254 22.3397704599 14.2301716780
4.6385469773 21.9874748332 15.0366127190
4.4757633935 23.1575353355 9.7621408451
4.1327978878 23.1514488266 10.7956533168
4.3904551499 23.1909619318 11.6970475379
5.6938204571 4.8704355840 27.5312314071
5.7616260728 4.9874283387 26.9411634435
5.9027217740 4.2769182481 27.2588445982
5.9499238402 4.1422228988 27.7408518757
5.8436609058 4.7258634335 27.9734767319
6.1865512166 4.2010568507 28.1525216603
5.5406787968 5.7162190609 27.1782383671
5.5997428884 5.7524176603 26.6571604882
5.7381462489 5.5619882901 27.7914698842
6.1162281747 4.9576385948 28.1782320731
5.3879631242 6.6975814102 26.5860799717
5.6322109775 6.4363437224 25.8518176307
5.6083156776 6.0606082305 26.3271231635
5.5610170287 6.5467814276 27.4039257107
5.8724708385 6.3824480755 27.7593928557
6.1540671164 5.7733126238 27.9912602222
5.2087614392 8.0040964407 23.4995387093
5.4714743080 7.9901135461 22.6989622286
5.8477569686 7.5776767415 23.0459045663
5.8353099666 7.2605428343 23.9234177069
5.2140075559 7.7283241518 24.5776597075
5.6826188517 6.9341824097 24.9760500903
5.2381348873 7.3742687287 25.6050977079
4.9817223227 8.1000240464 26.4189437545
5.4041204288 7.6608491782 27.2557523636
5.8670583662 7.2705504280 27.6414637824
5.2454371574 9.3323063911 1.7668890587
5.2437024444 9.6482841986 1.4635936866
5.6294291603 9.3143816933 1.7241283631
5.5423412037 9.1816607948 1.9750053288
5.3163688425 9.2629581408 2.0320286118
5.5949128789 9.3828249348 2.3593085799
5.0321190368 8.9659885745 21.1778799700
5.5039574447 9.2225414234 20.6924855665
5.5425465779 8.7032224690 21.3597688305
5.5848353408 8.2577271598 22.0623144197
4.7288964115 8.4815877996 24.2866284518
4.7592476148 8.3728259979 25.3293293640
5.0774602413 8.9726824767 27.5164775063
5.8460365347 8.3859316204 27.9111914050
5.4725721833 9.6158237429 30.7658933764
5.5948014125 9.4121619990 30.6070489863
5.9189474326 9.1545640442 30.7040327658
5.2462317832 10.3014132842 1.2775497109
5.3024308700 9.8021842263 2.7932165622
5.0479809837 10.1375350593 3.0905677720
5.6408859088 10.2261202496 3.5272917174
4.6159170763 10.1436472990 19.2000572691
4.9545156670 10.4984827610 18.6852711301
5.1790395534 10.0055117056 19.3549784326
5.1476971132 9.6169526259 20.0796767287
4.6952138436 10.1179621960 27.7830517580
5.5841347669 9.1207748996 28.4384853159
5.1208982942 9.8730362153 28.7077695832
5.7260529785 9.3492482092 29.3302103244
5.2926186017 9.8738233580 29.6940930780
5.6105010904 9.4478718931 30.1520457730
5.2294717914 10.1581593491 30.4916620459
5.3048100249 10.1111211904 30.8326698731
5.2539048915 11.2066565252 1.1896575756
5.5025415749 10.6975171289 4.4071179943
5.0833445810 11.0057177128 4.7385839115
5.5589533891 10.9031596791 5.1930300224
5.1993658524 11.1058657832 8.2368041803
5.2776975722 11.1337614848 7.3510251648
6.0005410304 10.8757856595 7.8484581037
5.8685216019 10.8580590882 8.9902368941
5.1133538279 11.0740731449 9.2567369768
5.7657020893 10.8711639853 10.0224281559
5.0315301948 11.1020765762 10.2624192218
5.6822110531 10.9371663122 10.9620997269
5.0466735615 11.1734388244 11.2347206829
5.6317895440 11.0507242650 11.6711948911
5.2795278305 11.2689839903 12.0282112196
5.9620109809 11.2134847937 12.3408013588
5.4992403806 10.9841615711 17.9130406763
4.6936066958 11.0476471023 28.5189540135
4.9202110506 10.7263705543 29.6330214341
5.3511059453 10.7738378900 30.9268359538
5.4593709065 11.4379342598 30.9864183060
5.2642087744 12.2251689186 1.1613792028
5.0716221300 11.1748110279 5.4025965918
5.0147984512 11.2907672510 6.4193127092
5.3977525262 11.6072859232 12.9754535377
5.6154484521 11.9026119701 13.9331747102
4.9213875685 12.3154629490 16.3430935749
5.4070208330 12.1202168985 16.0122298709
5.6320115190 11.8350787302 16.4981470497
5.8788591521 11.3619462087 17.1399845703
4.6424416079 12.2619978088 28.5352946434
4.7660784530 11.8108810350 29.3364994836
5.4444138890 11.9830736931 30.8885147344
5.2617076760 13.2311428141 1.1732470232
5.3148590091 12.1379810088 14.4799127592
5.0752506854 12.3570631596 15.3696216214
4.4109051709 12.7992103608 16.4287290345
4.7331735029 13.1722963643 28.3838145546
5.0185619807 12.9354675667 29.1431259668
5.6734748354 12.4510058950 30.6624287423
5.2302862869 14.1056377794 1.2230833914
5.1305677188 13.7918130015 28.4343386261
5.4825820043 13.6511855562 28.8745655428
5.7606218096 13.2378255417 29.4903129385
5.8671811327 12.8665572849 30.2378165518
5.2040141088 14.7284317840 1.3278540924
4.8914807143 15.1669520393 1.4485255048
5.4975237304 15.1371064131 1.6194581011
5.6476052046 14.0902896425 28.4143516613
5.3992319221 14.6298177730 27.8034155721
5.5531256026 16.1554204768 1.9860698533
5.7989207934 15.5368811700 27.2580063488
5.3710104316 16.0996723133 26.8956336375
5.4101287504 16.9973939166 2.2110769933
5.1231038961 17.4406054632 26.1566324250
5.4655162807 16.8663766219 26.4979453428
5.0132658830 17.5807056545 2.4259553445
5.5987734111 18.1527992457 2.8574726395
5.8634041747 17.6757051158 26.1435873838
5.2460773167 18.1249089168 25.8074041594
5.9185975336 18.9677327033 3.4313629045
5.0002545599 20.1004520832 24.7993513420
5.3988223483 19.2164420940 25.3893754752
5.4463144169 19.6199559993 3.9166571204
4.5676865064 20.4261391374 4.6500447666
5.1879641475 20.1976043270 4.6776273843
5.4092284175 20.5355886241 5.6171998914
5.4702714743 20.8653691894 6.2335720086
5.7598284722 20.3125068618 18.2833156978
5.0630641448 20.5766659280 17.7402390410
5.7002569611 20.0932105152 19.7909028837
5.2875139599 20.4875352400 20.9149741783
5.7502296936 20.5168057997 20.7728038959
4.9606915228 20.6739753519 21.7821560182
5.0107872785 21.0239248487 24.0891428691
5.3951157145 20.9455050890 24.8899795438
5.7817468807 20.3712481078 25.2646765327
5.1089494610 21.2308999671 6.6720966931
5.7524381920 21.5805609165 7.2715205487
5.7037051173 21.4636362123 15.8805493256
5.0759250715 21.7719266891 15.5022395989
5.5260492010 20.9904068630 16.8111958624
5.5047192862 20.7968699595 21.3590122327
5.5854300885 21.2760366305 22.1754698671
5.3470332836 21.7336837125 23.2652799951
5.6400450911 21.8261604810 22.6990408717
5.3348604079 21.9514118977 24.1549797091
5.4883213912 21.7044031933 24.7530000489
5.9532100008 21.3326383974 25.2169147786
5.1060363281 22.2810359356 7.9585106318
5.0059561415 22.7787819552 8.5934654183
5.7448533178 22.6829150383 8.5600097154
4.6011006012 23.1079408350 12.6482635259
5.0631134081 22.9463301832 13.6045395243
5.5460509443 22.6274811786 14.3017234659
5.2962061040 22.1744856971 14.8785508482
5.8174218354 22.2733189842 23.0413024407
5.5931321868 22.5228550386 23.8247434580
5.8423977820 22.7194304005 23.4437038666
5.6381026034 22.4219286106 24.6072412646
6.0371296834 22.1519871374 25.1382558011
5.2844029290 23.0517530849 9.1594487166
5.4232229536 23.3227429002 9.8826810916
4.8488178777 23.3888227591 10.8197360446
4.8270380261 23.3578353615 11.8993651753
5.0657183923 23.4988151172 11.0856633900
5.0514255307 23.2242106267 13.0002898133
5.6468112887 23.1731128939 13.6269589599
5.9377905184 23.0118992347 13.9511524310
5.9881967586 23.0218185673 23.7090456124
5.7682599379 22.8962915744 24.2944129864
5.9501530823 23.1951121629 23.9507717887
6.1429614294 22.6865598003 25.0186469626
6.7056579149 2.7288121517 26.9544113991
6.9919946623 2.6178509337 26.5532672987
7.1530286808 2.2210564442 26.7430572791
6.9654598746 2.4419801426 27.1368403349
6.6218269830 2.9127169128 27.4767322393
7.0406352013 2.6636425463 27.5431243359
6.5697739385 3.1895121001 26.7369312818
6.8908956248 3.2878795932 26.4691410269
6.2630331904 3.4967573884 27.2604532881
6.7253005909 3.1069295239 27.8872307069
6.3406018139 3.5291193602 27.8624249148
6.6542226354 3.6454913824 28.1713077023
6.2629275705 4.0954856736 26.7304546969
6.8085505360 4.2746020031 26.4228319888
6.5907584534 4.3595017781 28.2955455523
6.0073050651 5.3918308791 26.2770586988
6.5822529019 5.4623106406 26.0360973857
6.5583037730 5.1137518064 28.1535143345
6.2325996503 6.6856709856 24.6023305325
6.4668381826 6.9367647458 23.7709276598
6.7440611894 6.7553163566 24.3789181313
6.5950250687 6.2706389434 25.2913760244
6.1017272586 6.1822587248 25.4757524442
6.5735905041 5.8189452242 27.8320392821
6.3649805953 6.7064058374 27.6458100222
5.9086436291 7.8002986817 22.4802128277
6.1927015072 7.9566221737 22.2112345609
6.4014310594 7.5045788038 22.7328809261
6.2613868507 7.2124877103 23.2758257467
6.4184306136 7.8865475444 27.6649211568
5.7178982817 9.7662866770 1.5141696360
6.0004904710 9.4813081343 1.8359472633
5.9032131828 9.2908669834 2.0948433578
6.1018385569 9.5224538612 2.5048164041
6.0159197252 8.9178034286 21.1353188361
6.1418495360 8.4402324375 21.7139780520
6.4901804812 8.7075148509 28.0777081891
6.0570439700 9.1530820266 30.0118020163
6.2507047013 9.1652529714 29.4959119867
6.4841626881 9.1796215795 29.9494542077
6.3532440072 9.1086096640 30.4575772884
5.8960033669 9.1538781269 30.4632709279
6.3447360063 9.0623200724 30.7000218730
5.7991850037 10.5250655627 1.4163828189
6.1798979223 10.0148254900 1.8085896381
5.9720077521 9.7980168561 2.9494544946
6.5210713366 10.3767168741 3.5234655408
5.8112756519 10.4159943174 18.7563850532
5.9837313327 9.8947387801 19.8549001091
6.2121813724 9.4059598888 20.7301229778
6.4793517106 9.8797195810 20.4636022969
6.6257200573 9.6626933544 20.9893884206
6.2208443597 9.0644809723 28.7404611256
5.8510744839 11.4822927235 1.3820228902
6.3130770448 10.8482426909 1.7887832338
6.4549398018 10.6065557268 4.4242363979
6.3544829149 10.7913460926 5.5173176205
5.7204878144 10.9698440972 6.0228799133
6.4881574904 10.8377429618 6.8755706194
5.7127698476 10.9875610784 6.8765975911
6.8016787283 10.7921599292 7.9439361247
6.6672906617 10.7867005132 8.8240906347
6.5529599740 10.7992025380 9.8542317389
6.4271627793 10.8538517567 10.8297782235
6.2615123381 10.9846761518 11.6754551015
6.8071315612 11.2422538477 12.4574565239
6.0740781470 11.0526193357 17.5529953219
6.4424362916 11.1675750333 17.2715795867
6.4517242074 10.8591423357 17.9826881654
6.7249047272 10.5707992970 19.0313385808
6.7470487249 10.3611481444 20.0795208897
6.8186422324 10.1408222453 20.7796777801
5.9015610675 11.3146873001 31.0707031685
5.8647738597 12.5252835548 1.3812605650
6.4059285231 11.8299495105 1.7997871741
6.4340060032 11.4594820524 13.0802549588
6.5577365384 11.7571260342 14.0446357792
6.0169601145 11.9640961754 14.4770967676
6.5380392555 11.9007481252 14.8538355943
5.8992522087 11.9696127946 15.8114751968
6.6117459342 11.5692917489 16.4316516694
6.6053857431 11.2648792292 31.0344047211
6.1841208352 11.7988881789 30.9110271810
5.8029526905 13.5612529075 1.3938784721
6.4241025513 12.9475850630 1.8071298887
5.9325269131 12.0491524205 15.0773029540
6.3240847382 12.4659739569 30.4752465344
5.6198149770 14.3644449499 1.4042590657
6.2471903762 14.2089924375 1.7845268440
5.9297992415 13.8138879235 28.7397615504
6.4505917355 13.5155827417 28.6894687472
6.2994570690 14.1932881343 28.0886173924
6.5062134005 13.0912046053 29.2425302430
6.3785366908 12.8598028509 29.8777485268
6.2370052121 15.2901827820 1.9865937225
6.3633905407 14.9639181545 27.5259801469
6.3043548228 15.9924150833 2.1733810156
6.0818580225 16.7039989508 2.2952937414
6.7919756881 16.2105013892 2.4598324523
6.5403192773 15.5496189118 27.1281963692
6.2720494520 16.2515386486 26.7748847950
5.7459400991 17.3945858669 2.4510914208
6.6117423672 17.2359953490 2.7156369929
6.3947049162 17.1148255488 26.3556525239
6.7841105416 18.2221246287 3.2371458063
6.5918803629 17.7295974642 26.0364734950
6.3158501534 18.5039344895 25.7418475929
6.8171554170 18.9273300986 3.7652609900
6.2025449955 19.4045966724 3.8832683996
6.7049994139 19.3974657737 4.2304403836
6.3461786564 19.7498389684 19.6741730727
6.7282726178 19.4576076264 19.5856911875
6.5014155463 19.7068171108 19.2959350227
6.5254538588 19.6745803096 20.0424754047
6.4675583241 19.6863266960 25.4772411936
6.1592835908 19.7688298732 4.4457667954
6.4042808075 20.1081165794 5.4122830806
5.8409759628 21.0620965964 6.6512206902
6.2090925721 20.6255594890 6.2211485926
6.5878077634 20.9782937912 6.9404916734
5.8785617321 20.6485888031 17.4547237143
6.6938086482 20.3858499237 17.3423255550
6.3261883519 20.7940823422 16.8925683379
6.6877799934 19.8773042622 18.4564193926
6.0679499595 20.7892780649 21.3188856916
6.2865171631 20.2041636267 20.6232611039
6.7837488301 20.3692790537 21.2662986676
6.6168748954 20.7769073730 25.3986734037
6.7492757794 21.4964267062 7.6322802708
5.7885848444 21.8770883704 15.2569536863
6.5853452044 21.6157234252 15.1354228468
6.1992057444 22.2521382487 14.6316011149
6.5394208676 21.0842847391 16.1034250864
6.5635829333 21.3092999975 21.9531097427
5.9799335917 21.8157473288 22.4437621161
6.6627866678 21.7413266103 25.3709202999
6.1556500645 22.1278315076 8.0089920867
6.4694040578 22.4995094679 8.5711353971
6.2397443818 22.7347202002 14.2050712954
6.4323961057 22.1278277965 22.5858236916
6.2595232349 22.6962563260 23.1560060139
7.0821749089 22.4557350627 22.8667080501
6.7150816432 22.4817708363 25.3191204884
6.3724026118 22.9701415604 9.3217906372
6.0082810573 23.3499223808 9.8526433296
6.7227629059 23.2119194899 9.8694823305
5.3802971111 23.4856034487 10.4241127979
6.5503165089 22.9539973787 13.9183416508
6.4833147316 23.1461383660 13.7359275509
6.6950301152 23.0406257596 23.3833148595
6.3637729868 23.2535951551 23.6755459684
7.0874093839 23.2176151735 23.5548115932
6.9146304179 22.8657788138 25.2718230597
7.4538945942 1.9001020845 26.6311378083
7.4394471101 2.1137661408 26.4883564618
7.5643398836 1.8164796366 26.5365264520
7.5694781774 1.8349179055 26.6434803370
7.3308646520 2.6475487138 26.3965925692
7.4599275827 2.2053725312 26.9594172582
7.4062294303 2.7305553529 27.5336806398
7.4503476546 3.1617370383 26.4699381709
7.0870248049 3.1384040394 27.9447959473
7.0761455141 3.7840033505 28.1647127649
7.3628566208 3.8714600069 26.6675404050
7.0926220265 4.7912502983 26.6965846515
7.2716466275 4.6640170722 27.3972664395
7.4914639628 4.0198625844 27.1166683465
7.4843439853 4.1275112377 27.6059736533
7.0165394197 4.4860491800 28.1447887670
6.9145348978 5.9707063815 26.2235798018
7.0464700829 5.3626312969 27.0822526660
7.2838585336 4.4894466673 27.8539149188
6.9700447293 5.1796380155 27.7484035823
6.6447210940 7.1068112139 23.1928994814
6.9004751584 7.2882076839 22.9588704381
6.9357233033 7.0094703545 23.5246349386
7.1549225348 7.2344200835 23.4024580442
7.1213224055 7.2331494734 24.0925457207
6.9901979666 6.7865279175 25.1592645694
7.1399305668 7.0718903569 26.0994017473
6.8647509328 6.2276053825 27.1510150754
6.7852309382 8.0702880942 22.4570392927
7.0987655852 7.4237920197 23.0254055960
7.1838631581 7.8005888582 23.3708929397
7.2802203694 7.7968669946 24.0453311262
7.3320766819 7.7223254500 24.8932409028
7.4230762349 7.7828948480 25.7402178349
7.3331281182 7.7683099347 26.3241330493
7.3801390172 8.3843170581 26.6697517077
6.9527953112 7.5160700047 27.0437981555
6.2799931830 9.6772572097 2.2224841945
6.5679823101 9.0355247489 21.4990198765
7.0000838776 9.0485943984 22.2215547606
7.1700298820 8.6219384512 22.9168164420
7.4077643173 8.6111664632 23.8661265652
7.5629062048 8.5694841016 24.7724454863
7.5599932440 8.2699631333 25.3476656540
7.0215219249 8.7225761957 27.5232885718
7.5008480388 9.2975230646 26.8871341722
6.6957516275 9.3568092089 29.4166145617
6.9465424917 9.5359212270 30.2089590193
6.7279178051 9.3014861373 30.6089526130
6.5760429545 10.3977549842 2.3204634872
6.4821609706 10.0464713379 2.7917542381
7.0082296949 9.9017723742 21.5915843103
7.3601276847 9.7092070285 22.8423531033
7.5973889002 9.6179886020 23.7979181834
7.6512974870 9.2264820623 24.4354514641
7.3348955766 9.9010413259 27.7498108761
7.6335929843 10.2884173568 27.0032352868
6.9168498886 9.4879150074 28.5437693781
7.1969885941 10.0019640311 29.5243773903
7.3347618094 10.0260963944 30.1289279170
7.3088176344 10.0226859764 30.4781220598
7.3262182380 10.5022565839 30.7058227209
7.1391563499 9.9398676970 30.6759376706
6.7245762668 11.2128992508 2.2698934834
7.0571968674 11.0507314898 3.1000656553
7.2694222229 10.9859188588 4.1755784388
7.4656372510 11.2443215000 3.7192239100
7.2781134203 10.9565000774 5.2915852192
7.3006521696 10.9301946002 6.4384879982
7.3804896534 10.9040231733 7.5708637101
7.4076102755 10.9013495657 8.6326225101
7.3411902102 10.9299429603 9.7003979550
7.2055278299 10.9583166717 10.7203050566
7.0326716122 11.0464371241 11.6231892509
7.6395559213 11.4342001014 12.3660999501
7.1131013747 11.1789144825 17.3674398951
7.3855249908 10.9644375155 18.2602424497
7.3878544835 10.8903408234 18.9486402561
7.7758405693 11.0704218278 18.7347941400
7.2467255687 10.8456347309 19.6683603749
7.2642494308 10.9043039319 20.8400849005
7.4007865663 10.8312070763 22.1293084229
7.5807563899 10.7483366366 22.9580480750
7.6530722315 10.3162540096 23.5156345163
7.4901208612 10.9288749241 27.7991964603
7.6831296642 11.0961119887 27.1464220205
7.3217755435 10.7447998619 28.8426793674
7.4316497939 10.6604667618 29.5840733814
7.4506311518 10.3951238282 29.9360474567
7.0982454742 10.7056712022 30.9114111414
7.0534088642 11.2315827541 30.8109953220
6.9896557274 12.1685116709 2.4518831739
7.4443368313 11.9506350076 3.1011166471
7.5628250550 11.5719995042 3.5064345966
7.4150163077 11.6593971945 13.5002563231
7.4311203655 11.7945565617 14.3155939045
7.7194913905 11.8340321939 14.2172044723
7.4641632537 11.8234156135 15.2165614180
7.6092052254 11.8420861750 14.6003344506
6.5315885804 11.8660746509 15.4735050844
7.6792619741 11.5240847426 16.7641328535
7.7294300349 11.1565801019 19.3064525000
7.6312623482 11.2735435228 20.0204394135
7.7576575925 11.8157951179 20.6783960635
7.8506399046 12.6907381016 21.1586015595
7.5963943240 12.0872076440 21.8730864127
7.6460970740 11.6140230037 22.8013905698
7.5573428454 11.6359905378 27.6438797724
7.4387338384 12.4299716882 27.7684251885
7.3027175170 11.8873293821 28.5090908463
7.4367433659 11.1678267988 29.5993642106
7.2528784242 11.7873944014 29.5243812101
7.4189470455 11.4986998387 29.9779935088
6.8910490878 11.9232718438 30.5542670281
7.0068835933 13.4986039760 2.3224476900
7.5634033410 12.8781081673 2.9577486814
7.6581579709 11.8471126436 14.3986552341
7.6955002018 13.3095361125 21.9085547323
7.9020445919 13.6485476813 21.2798869998
7.6855383080 12.4370922714 22.8100755693
7.6717321108 13.1479253057 22.6343517490
7.7693914361 13.0183896767 23.2758629924
6.9827965581 12.8791324977 28.5862455025
7.1176636440 13.4842504443 27.7913784517
6.9064183589 12.5517087440 29.3430023913
7.2207630820 11.8711175049 30.1597717468
6.8691465154 12.3346927305 30.0583302504
6.9123811522 14.6745527497 2.2791816239
7.6813343829 14.2041391282 2.8667960038
7.7405355805 14.1696432466 21.8377992843
7.9201753876 14.6567770366 21.3168925407
7.7017169947 14.1937270418 22.5447493990
7.7864948799 13.8439001258 23.3238099732
7.0056565637 14.4501568354 27.4224746756
6.7483421792 15.5112728948 2.2793456209
7.3352487154 15.3810405861 2.6127829147
7.7632663000 15.0844902341 22.0492750923
7.8985585738 15.6653800301 21.3919364445
7.7718018755 15.0928686346 22.7555062157
7.8049664278 14.6846394309 23.2317307288
6.9377550555 15.1218318263 27.1762714648
7.3525331307 14.8219807192 26.8739380047
7.1305878503 15.6473899004 26.6365385160
7.5096791623 16.3417455300 2.8511747660
7.8136595562 15.9134515489 21.9415103258
7.8785364238 16.4154382972 21.6106148312
7.8338139259 15.8389226449 22.5383544218
7.0237786100 16.6058018579 26.2897168131
7.6641296448 17.3214137303 3.1878016956
7.5753534013 18.2446969080 20.6934349182
7.7994896791 17.5468948738 20.7658758665
7.6446697522 17.9939236804 20.1767102167
7.8746554157 16.4809220661 22.1503837755
7.7454467528 17.8808045616 21.1346715464
6.9803579001 17.2992989234 26.0761332091
7.4035015362 17.0180174905 25.8014484937
7.2426910392 17.8796978662 25.6025203342
7.6370620367 18.0628957931 3.5690021034
7.2088347810 18.4903735150 3.5810717498
7.5663491934 18.5517523104 3.9882718207
7.5177496746 18.6306276484 19.1666205867
7.7972858361 18.2575505559 18.9900555901
7.7746566796 18.6697423372 18.5150660987
7.2278224970 18.8660823436 19.9514284608
7.7150125481 18.1060387304 19.5081286588
7.3803327520 18.9246524883 20.8075209180
7.6954888647 18.4451530154 21.3194779661
7.2649506962 19.0214452134 25.3699765651
6.9884359211 19.5605311335 4.8952737420
7.3439698210 19.0584367253 4.4514001213
7.3411926399 19.7197550069 5.6554716125
7.8948212496 19.0960255546 5.3651407642
7.8834893603 19.5520291200 6.1006378544
7.1183277379 19.2440356868 19.0040294872
7.4466844644 19.3689796117 18.1698178220
6.9435792921 19.6036456185 20.6733586017
7.4641537433 19.5403252544 21.4259050628
7.3521046077 20.1304867738 25.3139467705
7.4140821647 20.1818673391 6.5484474761
7.4136042809 20.8726881657 7.4499656192
6.9088820075 20.7061114525 16.5456685653
7.5723503499 20.3272799682 16.2869052341
7.2513580290 20.7897302010 15.9488057531
7.5878478453 19.7678113255 17.2918278939
7.3295640780 20.5986725962 21.8024777917
7.4789064849 21.2532823259 25.2826860105
7.4330509236 21.3321146996 8.0171609290
7.0282502982 21.9472675670 8.3469260980
7.4303545651 22.0580945662 8.9236213471
7.8667385768 21.3944967857 8.7237436806
7.8158221516 21.8498823958 9.3446287307
7.3549012555 22.0860298905 13.7539235936
7.7282442858 21.7437977726 13.3880632576
7.6181175422 22.2010332701 13.1594779774
6.9217619652 22.0030036576 14.3642968610
7.4583103992 21.4791373281 14.2500749624
7.2930045918 21.0737792362 15.2520697528
7.3008056775 21.2987215236 22.1116444140
7.0226507190 21.8277428093 22.3508509236
7.6926982264 21.6679435058 22.5476800642
7.2660092030 22.1181356644 25.3347806430
6.9550731777 22.4460368351 8.8850729253
7.3673446928 22.4425226309 9.5159443125
7.5192037919 23.0361449354 11.1991132229
7.7068570130 22.6434181580 11.0153982018
7.4727347729 22.9324873140 10.5749888664
7.5848724498 23.0209950392 11.8505169824
7.7298543481 22.6257237843 11.8279450537
7.3366072347 22.5258551322 13.4343454855
7.6231725308 22.9048167553 12.2097428522
7.0750417480 22.9435764502 13.5036120574
6.8485643730 22.5393679022 13.9933717025
7.8743270854 22.3645850142 22.9876456365
7.4412569292 22.7407139928 25.2320603082
7.2604877546 23.1612268423 10.5045261874
7.1633072065 22.9559834836 9.9780002036
7.4122584591 23.2087897459 11.0928453925
7.5049580338 23.1594431185 11.6231414276
7.5461523517 23.0412411575 12.3208068197
7.0291656265 23.1489701877 13.4608740249
7.6342181092 22.9042212574 23.3813533132
7.7465417513 23.1534561314 23.8069349378
7.4720977490 23.0679760812 25.1905219250
7.7002304557 23.0568822756 25.1034461712
7.8253371609 23.1290450342 24.9280615082
7.6637233225 1.9914917240 26.5868170320
7.7450106296 2.4046923156 26.4653785554
7.8596210400 2.3196502933 26.7085101535
7.7358871223 2.7766504719 27.1573776027
7.9633028987 2.6320591451 26.7298713186
7.8888956914 2.7173553338 26.5530304998
7.7370678606 3.2083566957 26.8490826541
7.6357526873 3.5323796081 27.4451097926
7.4622660483 3.2727975363 27.7758492108
7.3979696949 3.9410019136 27.9257964733
7.1053742035 7.1411837416 23.1796417856
7.5619001899 8.3314756606 25.9520330560
7.7270944200 9.1591140846 25.3575354922
7.6399523177 8.9379483959 26.2133853408
7.8214372129 10.2663117103 24.5036684434
7.8781300809 10.2040714779 25.5333977942
7.7556031695 9.7572774852 26.2076020611
7.4694594119 10.4344845324 30.3461270005
7.7820732386 11.6000560499 4.0494076195
8.0126358080 11.5426798976 4.9781138074
8.0320116048 11.3041280272 6.1100789323
8.0435900442 11.1928149460 7.2043886475
8.0562919661 11.1862643958 8.2818601843
8.0499182418 11.2491888521 9.4068281404
8.0087758356 11.3377075741 10.6535740523
7.6867186884 11.2448932068 11.4853586387
7.8863629612 11.2661964063 17.6796898619
8.1182822282 11.2673503811 18.3887859945
8.3077505709 11.4071166958 17.9596951303
8.0749294457 11.3067997510 18.9853701464
8.3697571882 11.5700733675 18.9125064531
7.8059568406 11.2614870762 23.7053777049
7.9652762638 11.3840496268 24.6103933751
7.9658623640 11.1116855443 25.3833383758
7.8464466247 10.8667861091 26.3386145871
7.5003280404 10.9456578758 30.0689453810
7.4256669215 10.9084935648 30.5228018291
7.8430689549 12.2441882774 3.5732436303
8.2833002381 12.3524791004 4.3224073910
8.5418598755 12.1705710695 5.0515265297
8.5894763859 11.8982363886 5.7813102980
8.6707438515 11.7167573920 6.8695944868
8.5344056081 11.5138945613 7.8602769090
8.6709097353 11.7539739778 8.9163833018
8.5848146768 11.7777910563 10.1319477326
8.5725253296 11.8578342958 11.0481377897
8.7958179783 12.2307739639 11.6124384922
8.3484282055 11.7682379725 11.8923231926
8.3318937096 11.9639603601 13.0849877247
8.6342216865 12.1013212375 12.5250651177
8.1671790296 12.0193366459 14.4071720563
7.7603834739 11.8724268230 14.5484943214
8.4100273248 12.1402455947 15.5560365830
8.3253000888 11.9518758531 16.5103662708
8.3376918210 11.6399507468 17.4750151477
8.1268454777 11.7285487060 19.6832961065
8.0884247483 12.3463535245 20.4383390208
8.4384904984 12.5747006250 19.9044515033
7.8134410755 12.3165466804 23.4909711935
7.9649334272 12.2479422196 24.3663217028
8.0188937683 12.1195306669 25.2806173223
7.9248663617 11.9350303253 26.1780591983
7.7362849062 11.7915386569 27.0116023836
7.3359612243 11.4388220999 30.4042254673
8.2021258682 13.3329184724 3.6187483373
8.6379936038 13.1972882001 4.3327128186
8.7108885514 12.7253618247 4.7977077754
8.8000671158 12.2945956550 12.1942353300
8.1848891590 13.1090127460 20.6150026071
8.5524453113 13.4895244229 19.9948063726
7.9171084762 13.3419856588 24.1112818171
8.0074788255 13.1182832846 25.1387551350
7.9280066000 12.9570779912 26.0593120509
7.6876127484 12.7667598572 26.9598670159
8.3444987904 14.4073516592 3.4145170355
8.8151648050 14.2428254740 4.1363298458
8.2247428851 14.1068014070 20.6585106516
8.5743951218 14.5302230017 19.9319538937
7.9241633078 14.6570426774 24.0912745171
7.9565995830 14.1883256664 25.0807757925
7.9135016388 13.8221288277 25.8615707657
7.6047786032 13.9034270839 26.7687568409
8.1317489276 15.3606026769 3.1132974496
8.6585000135 14.9882147980 3.5666272342
8.8056434868 15.8066564590 14.8027873575
9.0081939284 15.2551463973 14.2822571997
8.9416219049 16.0020430871 14.0566140907
8.7691971267 15.7164889918 15.5902888804
8.9561299409 15.0320422385 15.0541695001
8.8036868950 15.7031083219 16.2287694633
8.9269747710 15.0871875202 15.9406666475
8.9188363621 15.3643419641 16.5972067337
8.2118755614 15.3315979496 20.5542320002
8.5536871036 15.4390433893 19.7519350345
7.9146682451 15.5998525988 23.4277285224
7.9857592808 15.6315463954 24.3267854277
7.9190660790 15.2720920697 25.0606117681
7.7174770429 14.8463199801 26.0551858146
8.2713230635 16.4465356680 3.2672818516
8.7600279251 16.5662411708 14.6033426845
8.9139238936 16.8411173147 14.0051787654
8.6897878948 16.4473085509 15.3418643400
8.7247666928 16.3436776652 16.0953336020
8.8388863706 16.0472739691 16.7516735448
8.3200173131 16.4059663744 19.7610892989
8.6618945849 15.9230087522 19.2042815709
8.5585903158 16.6309434146 18.9267823617
7.9907116888 16.5781804439 20.8394302772
8.0091432170 16.7698020163 22.9568644410
8.0183461904 16.4774303387 24.1009194890
7.9367333994 16.1257285689 24.8790809514
7.6337690159 16.1074819351 25.7303773590
8.3726431178 17.1012948233 3.4798589266
8.7916503665 17.1883518647 14.5113045704
8.9081973182 17.5310188409 14.1952406056
8.7148415768 17.1562592047 15.1213216471
8.7051451357 17.0701995600 15.8568877453
8.7702850597 16.9856807427 16.6490397383
8.1896616131 17.6169726144 18.8823780727
8.6112611274 17.0679140611 18.3521155051
8.5278148862 17.6803929967 18.0271184431
7.9447247383 17.3544284416 19.9886924533
7.9216591328 17.4147164987 21.7468348619
8.2162166362 17.9538519621 22.8437871053
8.1828605482 17.6433346396 23.9140634323
7.8289835652 17.0956063162 25.0163212928
8.1632471502 17.5891545811 3.5959403577
8.0160563797 18.5845235913 4.6697698384
8.2577733047 17.9503259748 4.1450328959
8.2932489968 18.5853880882 5.1634426428
8.5528133973 18.1031720862 4.9493052496
8.5661155565 18.4696948132 5.5925412410
8.8144727441 17.7665980499 14.8588676240
8.7522702050 17.7116443291 15.6726631560
8.7436241538 17.5077073175 16.1959333815
8.4600279261 18.6756022952 17.1118921641
8.2939315543 18.3284802673 17.9214643629
8.5983032100 18.0293428245 17.4302093321
8.0444139383 18.8048027456 22.1325221919
8.4151102185 18.7794019099 22.8840866261
8.4752796627 18.4704109111 23.4850244371
8.4015318355 18.4874481689 24.1034739465
8.4285366175 19.1542823895 24.3858045887
7.9662303816 18.3868411388 24.8019992057
8.0851162792 19.6403053763 6.5342244760
8.4964757821 19.0434278993 6.3493026798
8.3377191083 19.7470168340 7.0763894763
8.0017442750 19.0719953788 17.6412138419
8.2309327424 19.2947217335 16.9010773416
7.9272652673 20.0355369629 22.1283789090
8.3929649253 19.6113603588 22.7238905654
7.9873934611 19.5284455982 24.9506260403
8.4702304478 20.0596436084 24.5301703190
7.9672422014 20.8802906649 8.1096637921
8.1108675650 20.3430514825 7.5968707585
8.2422951302 20.8815644506 8.5662012932
8.4645977853 20.4869369149 8.4094806875
8.4729878454 20.8027082707 9.0576551907
8.3806130107 21.1364447400 12.1678005342
8.7368313014 20.5579122351 11.8608975473
8.5527023210 21.0303359401 11.3629715178
8.1243508225 21.0856148652 13.3373301641
8.6567670076 20.3965745146 12.7069297784
7.9477663282 20.7677985008 14.5388583221
8.5097846031 20.2123991065 13.8138370774
7.7226265322 20.6298702689 15.4412172902
8.2711223354 20.0584632058 15.1062831189
8.2198900483 19.6611169201 16.1935716133
7.7521562448 20.8949057089 22.2071738251
8.2615925507 20.7689300134 22.7174428469
8.0580768966 20.5099168237 25.0092919730
8.4698173241 20.8443400333 24.6600051353
7.9814112551 21.8938306068 10.0780315591
8.2718807047 21.3048288876 9.6044293214
8.0814240782 21.8842691048 11.2233503205
8.4687906722 21.1961815795 10.5357587828
7.9207914587 21.9144434706 12.5402918841
8.2805436846 21.7620219773 23.0090670954
8.1698387826 21.2771419765 24.9663774910
7.9436448364 22.0849896240 25.0434755372
7.6561961950 22.5099882087 10.3634038403
7.5639221220 22.6982675975 12.7633531317
8.2669147736 22.3408159732 23.2052016772
8.0560069745 22.6367613404 23.2314829427
8.2523009234 22.6076092327 23.5270011934
7.9850133627 22.8481612706 24.8664931344
8.3224606526 22.4050681284 24.6269261267
8.2673473900 22.8080501757 24.4057582184
7.3562398129 23.0456875547 13.0395443106
8.0391386184 23.0824758952 24.4036057634
8.1296091517 22.9190201159 23.9292833340
7.9894779904 2.4480015671 26.5584776341
8.5657754801 11.7508980542 18.3184215769
8.9045938262 12.6216974657 5.4448859856
9.0589527479 12.3843858246 6.2275630003
9.0475928574 12.0957284426 6.8807417033
8.9546450953 12.0200230825 7.9676896144
9.1528575265 12.5209091124 8.8686484462
9.2877653802 12.8245855194 8.3656364676
9.0256307154 12.3815778484 9.7971934797
8.9356166797 12.3598251834 10.8556533705
8.8828245604 12.4957136287 12.8788744375
8.9006462185 12.5364585990 13.9679187484
8.9042678475 12.5923343122 15.2352958955
8.8462500773 12.5758076162 16.4377514364
8.7886052594 12.3354733008 17.6293163511
8.8300436023 12.3956801652 18.6092110760
8.5974896592 12.1031014732 19.1523130180
9.0066769265 13.5154249065 5.0069684122
9.2450345282 13.2939676819 5.9387666138
9.2920483145 12.8846539116 6.2664835142
9.2090759006 12.4282145293 6.4548219058
9.4088668413 13.3578052464 8.6225785533
9.4506328872 13.5207265498 7.9510846607
9.2964115288 12.9778822301 9.4550162267
9.2673472388 13.0371882082 10.4469009304
9.1342461752 12.9769977733 12.0040941582
9.1826185394 13.2504894131 13.4656148170
9.2008526397 12.9904683634 14.0573526847
9.1350497566 12.7379878736 14.6656246870
9.1866343784 13.0525853737 15.4104855596
9.2461628736 13.6268193893 15.5052868044
9.1328345428 13.4925949807 16.1986166201
9.0539288927 13.2859553296 17.4412283863
8.9714619422 13.1178792278 18.4704555398
8.7820741686 12.8939980926 19.2817679960
9.1671537904 14.4615940570 4.9664853337
9.3043569539 14.2636771891 5.7184715735
9.4037460184 13.4929248513 6.4759476952
9.4263776015 14.0003883333 6.5595534511
9.4933476471 14.1184510080 7.5953703565
9.4761243851 13.7922333879 7.1547541103
9.5030349664 13.9156004418 8.5557195664
9.4469969167 13.5603740993 9.4224070725
9.4240066997 13.4931396319 10.1945189466
9.3329158849 13.3494324239 11.2431311078
9.3202063506 13.7646688366 12.2707618850
9.3367562527 14.6875539191 12.8598013433
9.2758300126 14.0356849389 13.0195531435
9.2729847345 13.5831793223 14.1459913763
9.1956700588 14.2993589773 14.2088456207
9.1424486942 14.2556051771 15.4877258548
9.2667103465 13.9049328481 14.8490646235
9.0606475797 14.6267499993 16.5246061161
9.1019968390 14.3021013163 17.3727228920
9.0396730244 14.0879618811 18.3390842363
8.8564730748 13.8478300085 19.2393133753
8.7203415785 15.7923935435 3.5212052480
8.9494909825 15.2115457556 3.8946617690
9.1703750383 15.0168091797 4.6784472504
9.3063684593 15.8947927033 5.0825739231
9.3338432203 15.3523768090 5.4816852483
9.4435551856 14.9719862785 6.4792958503
9.5038743233 14.8466296903 7.2128760289
9.5268688508 14.2803784231 8.0944297804
9.5182819423 13.9647684055 8.9315307208
9.4948088564 13.7620642588 9.5482882517
9.2119259103 15.3334565554 13.4222137365
9.3571935566 15.7085655475 12.9003001078
8.9785448694 15.4081091289 17.3362280582
9.0136548085 14.9891050086 18.1325104486
8.8425955161 14.9977446232 19.0458467058
8.8001368417 16.6756920173 3.7739703779
8.9900595861 16.0845044741 3.8083430513
9.2515667194 16.6266695068 5.3837484641
9.2202115210 16.6027717905 4.8098872030
9.3801245927 16.2043777624 6.0950656820
9.4492486785 15.7915891122 6.5819771860
9.3035175097 16.5610722166 12.9508888969
9.4011250049 16.4268041515 12.6912384752
9.3943413509 17.1754732234 12.5351150297
9.0999855271 16.4014388102 13.5177585448
8.8621554284 16.3822680497 17.3548120344
8.8310554408 16.0973167650 18.2838496069
8.5824487334 17.3340072816 3.8687047853
9.0815688033 16.6536752270 4.2155611973
8.9169700574 17.2196512162 4.5691783372
8.9613273794 17.6781298998 5.4666536068
9.2020395649 17.3358357893 6.0314913510
9.3187792542 16.9294663976 6.3628026911
9.2971380324 17.7628850898 12.7114052552
9.3719436811 18.1675651761 12.1909885934
9.1004990597 17.4196998365 13.5086410646
8.7457669064 17.2177887225 17.5430297613
8.9112134409 18.1734293441 6.0416965015
9.0173931284 18.1941779648 6.4826752398
9.2328617265 18.9068108101 12.2581522477
9.3387564055 19.0168459872 11.5586700000
9.0969771250 18.5573912428 13.2942592449
8.9223759336 18.3510073249 14.3585616226
8.7891183738 18.3934164015 15.4806711744
8.7219022998 17.9998448030 16.5486621566
8.6191996935 19.2424301204 23.3489700381
8.6027646091 18.9645927631 23.8519632507
8.6892589891 19.9566282618 8.0194821873
8.7965467584 19.3399840289 7.3227895873
8.8918724459 20.1831938517 9.1262451396
8.9881761354 19.7924588103 8.5373829761
9.1084705142 20.0037517067 10.2754282796
9.1627497799 19.8404921746 9.6468817594
9.2058761684 19.5986397402 11.2836001866
9.2833133429 19.5697014679 10.6709682943
8.9936861080 19.8860842984 12.0220595617
8.9347852317 19.5509240629 13.0296553684
8.7958289553 19.3492984024 14.1369874247
8.6665736905 19.1867372954 15.2544176736
8.5830248171 18.9434236798 16.2514501624
8.6384755523 20.1864771139 23.3363698823
8.6695004532 19.6915832723 23.9214297512
8.7487139400 20.6353541376 9.9377520976
8.8871658165 20.4010375556 11.0367046747
8.6138654858 21.1914808618 23.3941293279
8.6829000541 20.7412818007 24.0501638793
8.5250508042 22.0210743740 23.4949833111
8.6725494164 21.6132409361 23.9097185320
8.4942762620 21.6408991022 24.5173617001
8.4785434078 22.3487219400 24.0711807636
3 2 1 0
3 0 3 2
3 0 1 4
3 4 1 5
3 3 0 6
3 0 7 6
3 0 4 7
3 7 8 6
3 4 5 9
3 9 5 10
3 4 11 7
3 4 9 11
3 8 7 12
3 12 7 11
3 15 14 13
3 13 16 15
3 10 17 9
3 9 17 11
3 11 17 18
3 11 18 12
3 13 14 19
3 19 14 20
3 16 13 21
3 21 13 19
3 20 22 19
3 19 22 21
3 25 24 23
3 27 26 23
3 23 26 25
3 27 28 26
3 31 30 29
3 33 32 29
3 29 32 31
3 35 34 33
3 33 34 32
3 37 36 35
3 35 36 34
3 37 38 36
3 23 24 39
3 39 24 40
3 23 41 27
3 23 39 41
3 28 27 42
3 42 27 41
3 45 44 43
3 47 46 43
3 43 46 45
3 49 48 47
3 47 48 46
3 48 49 30
3 49 29 30
3 49 50 29
3 29 51 33
3 29 50 51
3 33 52 35
3 33 51 52
3 35 53 37
3 35 52 53
3 38 37 54
3 54 37 53
3 39 40 55
3 55 40 56
3 39 57 41
3 39 55 57
3 42 41 58
3 58 41 57
3 61 60 59
3 59 62 61
3 65 64 63
3 63 66 65
3 43 44 67
3 67 44 68
3 43 69 47
3 43 67 69
3 47 70 49
3 47 69 70
3 49 71 50
3 49 70 71
3 50 72 51
3 50 71 72
3 51 73 52
3 51 72 73
3 52 74 53
3 52 73 74
3 54 53 75
3 75 53 74
3 56 76 55
3 78 77 76
3 77 55 76
3 77 57 55
3 58 57 79
3 57 80 79
3 57 77 80
3 80 81 79
3 59 60 82
3 82 60 83
3 62 59 84
3 84 59 82
3 87 86 85
3 87 85 64
3 85 63 64
3 85 88 63
3 66 63 89
3 63 90 89
3 63 88 90
3 89 90 68
3 90 67 68
3 90 91 67
3 67 92 69
3 67 91 92
3 69 93 70
3 69 92 93
3 70 94 71
3 70 93 94
3 71 95 72
3 71 94 95
3 72 96 73
3 72 95 96
3 73 97 74
3 73 96 97
3 75 74 98
3 74 99 98
3 74 97 99
3 101 100 99
3 99 100 98
3 103 102 101
3 101 102 100
3 103 104 102
3 77 78 105
3 105 78 106
3 77 107 80
3 77 105 107
3 81 80 108
3 108 80 107
3 83 109 82
3 82 109 84
3 85 86 110
3 110 86 111
3 85 112 88
3 85 110 112
3 88 113 90
3 88 112 113
3 90 114 91
3 90 113 114
3 91 115 92
3 91 114 115
3 92 116 93
3 92 115 116
3 93 117 94
3 93 116 117
3 94 118 95
3 94 117 118
3 95 119 96
3 95 118 119
3 96 120 97
3 96 119 120
3 97 121 99
3 97 120 121
3 99 122 101
3 99 121 122
3 101 123 103
3 101 122 123
3 104 103 124
3 124 103 123
3 127 126 125
3 127 125 106
3 125 105 106
3 125 128 105
3 130 107 129
3 107 128 129
3 107 105 128
3 107 130 108
3 111 131 110
3 133 132 131
3 132 110 131
3 132 112 110
3 112 134 113
3 112 132 134
3 113 135 114
3 113 134 135
3 114 136 115
3 114 135 136
3 115 137 116
3 115 136 137
3 137 1 2
3 117 137 2
3 116 137 117
3 117 2 3
3 138 117 3
3 118 117 138
3 118 139 119
3 118 138 139
3 119 140 120
3 119 139 140
3 142 121 141
3 121 140 141
3 121 120 140
3 121 142 122
3 122 142 143
3 122 143 123
3 123 143 144
3 123 144 124
3 126 145 125
3 125 145 128
3 128 145 146
3 128 146 129
3 133 147 132
3 132 147 134
3 134 147 148
3 134 148 135
3 135 148 149
3 151 150 149
3 150 135 149
3 150 136 135
3 136 152 137
3 136 150 152
3 152 5 1
3 152 1 137
3 6 138 3
3 138 6 8
3 153 138 8
3 139 138 153
3 139 154 140
3 139 153 154
3 141 140 155
3 140 156 155
3 140 154 156
3 158 157 156
3 156 157 155
3 158 159 157
3 150 151 160
3 160 151 161
3 150 162 152
3 150 160 162
3 162 10 5
3 162 5 152
3 12 163 153
3 12 153 8
3 163 14 15
3 154 163 15
3 153 163 154
3 154 15 16
3 164 154 16
3 156 154 164
3 166 158 165
3 158 164 165
3 158 156 164
3 158 166 159
3 160 161 167
3 167 161 168
3 160 169 162
3 160 167 169
3 170 17 10
3 162 170 10
3 169 170 162
3 171 18 17
3 171 17 170
3 171 172 18
3 18 172 12
3 172 173 12
3 173 163 12
3 14 163 173
3 174 14 173
3 20 14 174
3 176 175 164
3 16 176 164
3 21 176 16
3 164 175 165
3 168 177 167
3 167 177 169
3 169 177 178
3 169 178 170
3 170 178 179
3 170 179 171
3 171 179 180
3 171 180 172
3 174 181 20
3 20 181 22
3 21 22 176
3 176 22 181
3 184 183 182
3 182 185 184
3 188 187 186
3 186 189 188
3 192 191 190
3 194 193 190
3 190 193 192
3 193 194 183
3 194 182 183
3 194 195 182
3 185 182 196
3 182 197 196
3 182 195 197
3 199 198 197
3 197 198 196
3 201 200 199
3 199 200 198
3 201 202 200
3 186 187 203
3 203 187 204
3 189 186 205
3 205 186 203
3 208 207 206
3 210 209 206
3 206 209 208
3 212 211 210
3 210 211 209
3 214 213 212
3 212 213 211
3 216 215 214
3 214 215 213
3 216 217 215
3 190 191 218
3 218 191 219
3 218 24 25
3 194 218 25
3 190 218 194
3 194 25 26
3 194 26 195
3 195 26 28
3 220 195 28
3 197 195 220
3 197 221 199
3 197 220 221
3 199 222 201
3 199 221 222
3 202 201 223
3 201 224 223
3 201 222 224
3 226 225 224
3 224 225 223
3 226 227 225
3 203 204 228
3 228 204 229
3 205 203 230
3 203 231 230
3 203 228 231
3 233 232 231
3 231 232 230
3 235 234 233
3 233 234 232
3 237 236 235
3 235 236 234
3 239 238 237
3 237 238 236
3 238 239 207
3 239 206 207
3 239 240 206
3 240 30 31
3 210 240 31
3 206 240 210
3 210 31 32
3 210 32 212
3 212 32 34
3 212 34 214
3 214 34 36
3 214 36 216
3 242 241 38
3 38 241 36
3 241 217 36
3 217 216 36
3 242 243 241
3 218 219 244
3 244 219 245
3 244 40 24
3 244 24 218
3 42 246 220
3 42 220 28
3 220 247 221
3 220 246 247
3 221 248 222
3 221 247 248
3 222 249 224
3 222 248 249
3 224 250 226
3 224 249 250
3 227 226 251
3 251 226 250
3 229 252 228
3 254 253 252
3 253 228 252
3 253 231 228
3 231 255 233
3 231 253 255
3 233 256 235
3 233 255 256
3 256 44 45
3 237 256 45
3 235 256 237
3 237 45 46
3 237 46 239
3 239 46 48
3 239 48 240
3 240 48 30
3 54 257 242
3 54 242 38
3 243 242 258
3 258 242 257
3 244 245 259
3 259 245 260
3 259 56 40
3 259 40 244
3 58 261 246
3 58 246 42
3 246 262 247
3 246 261 262
3 262 60 61
3 248 262 61
3 247 262 248
3 248 61 62
3 263 248 62
3 249 248 263
3 249 264 250
3 249 263 264
3 251 250 265
3 265 250 264
3 268 267 266
3 268 266 254
3 266 253 254
3 266 269 253
3 269 64 65
3 255 269 65
3 253 269 255
3 255 65 66
3 270 255 66
3 256 255 270
3 270 68 44
3 270 44 256
3 75 271 257
3 75 257 54
3 258 257 272
3 257 273 272
3 257 271 273
3 275 274 273
3 273 274 272
3 277 276 275
3 275 276 274
3 276 277 260
3 277 259 260
3 277 278 259
3 279 76 56
3 259 279 56
3 278 279 259
3 279 78 76
3 79 261 58
3 261 79 81
3 280 261 81
3 262 261 280
3 280 83 60
3 280 60 262
3 84 281 263
3 84 263 62
3 263 282 264
3 263 281 282
3 265 264 283
3 283 264 282
3 266 267 284
3 284 267 285
3 284 86 87
3 269 284 87
3 266 284 269
3 269 87 64
3 89 270 66
3 270 89 68
3 98 271 75
3 271 98 100
3 271 100 273
3 273 100 102
3 273 102 275
3 275 102 104
3 286 275 104
3 277 275 286
3 277 287 278
3 277 286 287
3 278 288 279
3 278 287 288
3 288 106 78
3 288 78 279
3 108 289 280
3 108 280 81
3 290 109 83
3 280 290 83
3 289 290 280
3 281 84 109
3 290 281 109
3 291 281 290
3 293 282 292
3 282 291 292
3 282 281 291
3 282 293 283
3 285 294 284
3 86 284 294
3 295 86 294
3 111 86 295
3 124 296 286
3 124 286 104
3 286 297 287
3 286 296 297
3 297 126 127
3 288 297 127
3 287 297 288
3 288 127 106
3 129 298 130
3 289 108 130
3 298 289 130
3 299 289 298
3 289 300 290
3 289 299 300
3 290 301 291
3 290 300 301
3 292 291 302
3 302 291 301
3 131 111 303
3 111 304 303
3 111 295 304
3 303 133 131
3 141 305 142
3 306 143 142
3 306 142 305
3 307 144 143
3 307 143 306
3 296 124 144
3 307 296 144
3 308 296 307
3 296 309 297
3 296 308 309
3 310 145 126
3 297 310 126
3 309 310 297
3 311 146 145
3 311 145 310
3 298 129 146
3 311 298 146
3 312 298 311
3 314 299 313
3 299 312 313
3 299 298 312
3 299 314 300
3 300 314 315
3 300 315 301
3 301 315 316
3 301 316 302
3 304 317 303
3 317 319 318
3 317 318 147
3 303 317 147
3 133 303 147
3 320 148 147
3 320 147 318
3 321 149 148
3 321 148 320
3 321 151 149
3 155 305 141
3 305 155 157
3 305 157 306
3 306 157 159
3 322 306 159
3 307 306 322
3 307 323 308
3 307 322 323
3 325 309 324
3 309 323 324
3 309 308 323
3 309 325 310
3 310 325 326
3 310 326 311
3 311 326 327
3 311 327 312
3 312 327 328
3 312 328 313
3 319 329 318
3 318 329 320
3 320 329 330
3 332 331 330
3 331 320 330
3 331 321 320
3 331 161 151
3 331 151 321
3 165 333 166
3 322 159 166
3 333 322 166
3 334 322 333
3 336 323 335
3 323 334 335
3 323 322 334
3 323 336 324
3 332 337 331
3 161 331 337
3 338 161 337
3 168 161 338
3 172 339 173
3 339 174 173
3 341 340 175
3 341 175 176
3 165 175 333
3 175 342 333
3 175 340 342
3 333 342 334
3 334 342 343
3 334 343 335
3 338 344 168
3 168 344 177
3 344 346 345
3 178 344 345
3 177 344 178
3 347 179 178
3 347 178 345
3 179 347 348
3 349 179 348
3 180 179 349
3 172 180 339
3 180 350 339
3 180 349 350
3 339 350 174
3 350 181 174
3 350 351 181
3 176 181 341
3 341 181 351
3 346 352 345
3 345 352 347
3 347 352 353
3 347 353 348
3 356 355 354
3 358 357 354
3 354 357 356
3 358 359 357
3 362 361 360
3 360 363 362
3 366 365 364
3 368 367 364
3 364 367 366
3 368 369 367
3 372 371 370
3 183 184 370
3 184 372 370
3 184 373 372
3 374 354 185
3 354 373 185
3 373 184 185
3 354 355 373
3 354 375 358
3 354 374 375
3 359 358 376
3 358 377 376
3 358 375 377
3 379 378 377
3 377 378 376
3 378 379 361
3 379 360 361
3 379 380 360
3 363 360 381
3 381 360 380
3 364 365 382
3 382 365 383
3 382 187 188
3 368 382 188
3 364 382 368
3 385 384 189
3 189 384 188
3 384 369 188
3 369 368 188
3 385 386 384
3 388 387 192
3 192 387 191
3 193 370 371
3 388 193 371
3 192 193 388
3 370 193 183
3 196 374 185
3 374 196 198
3 374 198 375
3 375 198 200
3 375 200 377
3 377 200 202
3 389 377 202
3 379 377 389
3 379 390 380
3 379 389 390
3 381 380 391
3 380 392 391
3 380 390 392
3 392 393 391
3 396 395 394
3 394 397 396
3 382 383 398
3 398 383 399
3 398 204 187
3 398 187 382
3 205 400 385
3 205 385 189
3 386 385 401
3 385 402 401
3 385 400 402
3 404 403 402
3 402 403 401
3 406 405 404
3 404 405 403
3 408 407 406
3 406 407 405
3 207 208 408
3 208 407 408
3 208 409 407
3 410 208 209
3 410 409 208
3 411 209 211
3 411 410 209
3 412 211 213
3 412 411 211
3 413 213 215
3 413 412 213
3 215 217 413
3 413 217 414
3 417 416 415
3 387 417 415
3 219 387 415
3 191 387 219
3 223 389 202
3 389 223 225
3 389 225 390
3 390 225 227
3 418 390 227
3 392 390 418
3 393 392 419
3 419 392 418
3 394 395 420
3 420 395 421
3 397 394 422
3 422 394 420
3 398 399 423
3 423 399 424
3 423 229 204
3 423 204 398
3 230 400 205
3 400 230 232
3 400 232 402
3 402 232 234
3 402 234 404
3 404 234 236
3 404 236 406
3 406 236 238
3 406 238 408
3 408 238 207
3 425 414 217
3 425 217 241
3 427 426 243
3 426 241 243
3 426 425 241
3 427 428 426
3 415 416 429
3 429 416 430
3 429 245 219
3 429 219 415
3 251 431 418
3 251 418 227
3 419 418 432
3 432 418 431
3 420 421 433
3 433 421 434
3 422 420 435
3 435 420 433
3 423 424 436
3 436 424 437
3 438 252 229
3 423 438 229
3 436 438 423
3 438 254 252
3 258 439 427
3 258 427 243
3 428 427 440
3 427 441 440
3 427 439 441
3 440 441 430
3 441 429 430
3 441 442 429
3 442 260 245
3 442 245 429
3 265 443 431
3 265 431 251
3 432 431 444
3 444 431 443
3 434 445 433
3 433 445 435
3 436 437 446
3 446 437 447
3 446 267 268
3 438 446 268
3 436 446 438
3 438 268 254
3 272 439 258
3 439 272 274
3 439 274 441
3 441 274 276
3 441 276 442
3 442 276 260
3 283 448 443
3 283 443 265
3 444 443 449
3 449 443 448
3 447 450 446
3 267 446 450
3 451 267 450
3 285 267 451
3 292 452 293
3 452 453 293
3 293 453 283
3 453 454 283
3 454 448 283
3 448 454 449
3 294 285 455
3 285 456 455
3 285 451 456
3 455 295 294
3 458 457 452
3 292 458 452
3 302 458 292
3 452 457 453
3 456 459 455
3 295 455 459
3 460 295 459
3 304 295 460
3 313 461 314
3 462 315 314
3 462 314 461
3 463 316 315
3 463 315 462
3 463 464 316
3 464 302 316
3 464 458 302
3 317 304 465
3 304 466 465
3 304 460 466
3 465 319 317
3 324 467 325
3 468 326 325
3 468 325 467
3 469 327 326
3 469 326 468
3 470 328 327
3 470 327 469
3 461 313 328
3 470 461 328
3 471 461 470
3 461 472 462
3 461 471 472
3 474 463 473
3 463 472 473
3 463 462 472
3 463 474 464
3 466 475 465
3 475 477 476
3 475 476 329
3 465 475 329
3 319 465 329
3 329 476 478
3 479 329 478
3 330 329 479
3 332 330 479
3 332 479 480
3 335 481 336
3 481 482 336
3 336 482 324
3 482 483 324
3 483 467 324
3 467 483 468
3 468 483 484
3 468 484 469
3 469 484 485
3 469 485 470
3 470 485 486
3 488 487 486
3 487 470 486
3 487 471 470
3 490 472 489
3 472 487 489
3 472 471 487
3 472 490 473
3 477 491 476
3 476 491 478
3 480 492 332
3 332 492 337
3 338 337 492
3 338 492 493
3 341 494 340
3 495 342 340
3 495 340 494
3 342 495 496
3 497 342 496
3 343 342 497
3 335 343 481
3 343 498 481
3 343 497 498
3 481 498 482
3 488 499 487
3 487 499 489
3 493 500 338
3 338 500 344
3 502 501 346
3 344 502 346
3 500 502 344
3 503 501 502
3 348 504 349
3 505 350 349
3 505 349 504
3 350 505 506
3 507 350 506
3 351 350 507
3 341 351 494
3 351 508 494
3 351 507 508
3 494 508 495
3 495 508 509
3 495 509 496
3 501 352 346
3 503 510 501
3 510 352 501
3 510 353 352
3 348 353 504
3 353 511 504
3 353 510 511
3 504 511 505
3 505 511 512
3 505 512 506
3 515 514 513
3 517 516 513
3 513 516 515
3 517 518 516
3 513 514 519
3 519 514 520
3 513 521 517
3 513 519 521
3 518 517 522
3 522 517 521
3 525 524 523
3 525 523 520
3 523 519 520
3 523 526 519
3 528 521 527
3 521 526 527
3 521 519 526
3 521 528 522
3 531 530 529
3 533 532 529
3 529 532 531
3 535 534 533
3 533 534 532
3 534 535 524
3 535 523 524
3 535 536 523
3 523 537 526
3 523 536 537
3 527 526 538
3 538 526 537
3 541 540 539
3 543 542 539
3 539 542 541
3 543 544 542
3 547 546 545
3 355 356 545
3 356 547 545
3 356 548 547
3 357 529 530
3 548 357 530
3 356 357 548
3 529 357 359
3 549 529 359
3 533 529 549
3 533 550 535
3 533 549 550
3 550 361 362
3 536 550 362
3 535 550 536
3 536 362 363
3 551 536 363
3 537 536 551
3 538 537 552
3 552 537 551
3 555 554 553
3 539 540 366
3 540 365 366
3 540 556 365
3 539 366 367
3 539 367 543
3 558 557 369
3 369 557 367
3 557 544 367
3 544 543 367
3 558 559 557
3 562 561 560
3 371 372 560
3 372 562 560
3 372 563 562
3 373 545 546
3 563 373 546
3 372 373 563
3 545 373 355
3 376 549 359
3 549 376 378
3 549 378 550
3 550 378 361
3 381 564 551
3 381 551 363
3 552 551 565
3 551 566 565
3 551 564 566
3 568 567 566
3 566 567 565
3 570 569 568
3 568 569 567
3 569 570 554
3 570 553 554
3 570 571 553
3 556 383 365
3 572 383 556
3 384 558 369
3 574 573 386
3 386 573 384
3 573 559 384
3 559 558 384
3 574 575 573
3 578 577 576
3 580 579 576
3 576 579 578
3 582 581 580
3 580 581 579
3 584 583 582
3 582 583 581
3 586 585 584
3 584 585 583
3 586 587 585
3 560 561 388
3 561 387 388
3 561 588 387
3 560 388 371
3 391 564 381
3 564 391 393
3 589 564 393
3 566 564 589
3 566 590 568
3 566 589 590
3 590 395 396
3 570 590 396
3 568 590 570
3 571 570 591
3 570 397 591
3 397 592 591
3 397 570 396
3 572 399 383
3 593 399 572
3 401 574 386
3 594 575 574
3 401 594 574
3 403 594 401
3 595 403 405
3 595 594 403
3 407 576 577
3 595 407 577
3 405 407 595
3 576 407 409
3 576 409 580
3 580 409 410
3 580 410 582
3 582 410 411
3 582 411 584
3 584 411 412
3 584 412 586
3 596 587 586
3 412 596 586
3 413 596 412
3 413 414 596
3 596 414 597
3 600 599 598
3 416 417 598
3 417 600 598
3 417 601 600
3 417 387 588
3 417 588 601
3 419 602 589
3 419 589 393
3 589 603 590
3 589 602 603
3 603 421 395
3 603 395 590
3 422 592 397
3 422 604 592
3 593 424 399
3 605 424 593
3 606 597 414
3 606 414 425
3 607 425 426
3 607 606 425
3 608 598 428
3 598 607 428
3 607 426 428
3 598 599 607
3 608 430 416
3 608 416 598
3 432 609 602
3 432 602 419
3 602 610 603
3 602 609 610
3 610 434 421
3 610 421 603
3 435 604 422
3 435 611 604
3 605 437 424
3 612 437 605
3 440 608 428
3 608 440 430
3 444 613 609
3 444 609 432
3 615 610 614
3 610 613 614
3 610 609 613
3 610 615 434
3 615 445 434
3 615 616 445
3 435 445 611
3 611 445 616
3 618 447 617
3 447 612 617
3 447 437 612
3 619 618 617
3 621 620 613
3 444 621 613
3 449 621 444
3 613 620 614
3 618 450 447
3 451 450 618
3 619 451 618
3 622 451 619
3 624 623 454
3 624 454 453
3 449 454 621
3 621 454 623
3 622 456 451
3 625 456 622
3 458 626 457
3 626 627 457
3 627 453 457
3 627 624 453
3 625 628 456
3 456 628 459
3 460 459 628
3 460 628 629
3 631 630 626
3 458 631 626
3 464 631 458
3 626 630 627
3 629 466 460
3 632 466 629
3 473 633 474
3 633 634 474
3 634 464 474
3 634 631 464
3 632 635 466
3 466 635 475
3 637 636 477
3 475 637 477
3 635 637 475
3 479 478 636
3 637 479 636
3 638 479 637
3 480 479 638
3 480 638 639
3 641 640 483
3 641 483 482
3 483 642 484
3 640 642 483
3 642 644 643
3 485 642 643
3 484 642 485
3 645 486 485
3 645 485 643
3 645 488 486
3 489 646 490
3 633 473 490
3 646 633 490
3 647 633 646
3 634 633 648
3 648 633 647
3 636 491 477
3 491 636 478
3 639 649 480
3 480 649 492
3 493 492 649
3 493 649 650
3 652 651 497
3 652 497 496
3 497 653 498
3 651 653 497
3 482 498 641
3 641 498 653
3 644 654 643
3 643 654 645
3 645 654 655
3 655 657 656
3 655 656 499
3 645 655 499
3 488 645 499
3 646 489 499
3 656 646 499
3 658 646 656
3 646 659 647
3 646 658 659
3 648 647 660
3 660 647 659
3 650 661 493
3 493 661 500
3 661 663 662
3 502 661 662
3 500 661 502
3 662 503 502
3 506 664 507
3 665 508 507
3 665 507 664
3 508 665 666
3 667 508 666
3 509 508 667
3 496 509 652
3 652 509 667
3 657 668 656
3 670 669 668
3 669 656 668
3 669 658 656
3 658 671 659
3 658 669 671
3 660 659 672
3 672 659 671
3 663 673 662
3 662 673 503
3 673 510 503
3 673 674 510
3 510 675 511
3 674 675 510
3 675 677 676
3 512 675 676
3 511 675 512
3 664 506 512
3 676 664 512
3 678 664 676
3 680 665 679
3 665 678 679
3 665 664 678
3 665 680 666
3 670 681 669
3 683 682 681
3 682 669 681
3 682 671 669
3 672 671 684
3 684 671 682
3 687 686 685
3 689 688 685
3 685 688 687
3 689 690 688
3 685 686 691
3 691 686 692
3 685 693 689
3 685 691 693
3 690 689 694
3 689 695 694
3 689 693 695
3 695 696 694
3 691 692 697
3 697 692 698
3 697 514 515
3 693 697 515
3 691 697 693
3 693 515 516
3 693 516 695
3 516 518 695
3 518 696 695
3 518 699 696
3 697 698 700
3 700 698 701
3 700 520 514
3 700 514 697
3 522 699 518
3 522 702 699
3 705 704 703
3 707 706 703
3 703 706 705
3 706 707 701
3 701 707 700
3 707 524 700
3 524 525 700
3 700 525 520
3 709 708 528
3 709 528 527
3 522 528 702
3 702 528 708
3 712 711 710
3 530 531 710
3 531 712 710
3 531 713 712
3 532 703 704
3 713 532 704
3 531 532 713
3 703 532 534
3 703 534 707
3 707 534 524
3 538 709 527
3 538 714 709
3 715 540 541
3 715 541 716
3 541 717 716
3 541 542 717
3 542 544 717
3 717 544 718
3 720 719 547
3 547 719 546
3 548 710 711
3 720 548 711
3 547 548 720
3 710 548 530
3 552 714 538
3 552 721 714
3 724 723 722
3 726 725 722
3 722 725 724
3 554 555 726
3 555 725 726
3 555 727 725
3 728 556 715
3 715 556 540
3 715 716 729
3 715 729 728
3 730 718 544
3 730 544 557
3 557 559 730
3 730 559 731
3 732 561 562
3 563 733 562
3 562 733 732
3 546 719 734
3 733 546 734
3 735 733 734
3 563 546 733
3 736 735 734
3 737 721 552
3 737 552 565
3 567 722 723
3 737 567 723
3 565 567 737
3 722 567 569
3 722 569 726
3 726 569 554
3 738 572 728
3 728 572 556
3 728 729 739
3 728 739 738
3 740 731 559
3 740 559 573
3 742 741 575
3 741 573 575
3 741 740 573
3 744 743 742
3 742 743 741
3 577 578 744
3 578 743 744
3 578 745 743
3 746 578 579
3 746 745 578
3 747 579 581
3 747 746 579
3 748 581 583
3 748 747 581
3 749 583 585
3 749 748 583
3 585 587 749
3 749 587 750
3 753 752 751
3 754 753 732
3 753 588 732
3 588 561 732
3 753 751 588
3 754 732 733
3 754 733 755
3 755 733 735
3 755 735 756
3 756 735 736
3 592 757 591
3 758 593 738
3 738 593 572
3 738 739 759
3 738 759 758
3 594 742 575
3 742 594 595
3 742 595 744
3 744 595 577
3 760 750 587
3 760 587 596
3 762 761 597
3 761 596 597
3 761 760 596
3 762 763 761
3 765 764 600
3 600 764 599
3 601 751 752
3 765 601 752
3 600 601 765
3 751 601 588
3 767 766 757
3 592 767 757
3 604 767 592
3 768 605 758
3 758 605 593
3 758 759 769
3 758 769 768
3 606 762 597
3 770 763 762
3 606 770 762
3 607 770 606
3 607 599 764
3 607 764 770
3 611 767 604
3 611 771 767
3 772 612 768
3 768 612 605
3 768 769 773
3 768 773 772
3 776 775 774
3 615 614 774
3 775 615 774
3 777 615 775
3 615 778 616
3 777 778 615
3 611 616 771
3 771 616 778
3 772 617 612
3 619 617 772
3 773 619 772
3 779 619 773
3 776 774 620
3 621 776 620
3 780 776 621
3 620 774 614
3 782 622 781
3 622 779 781
3 622 619 779
3 783 782 781
3 785 784 623
3 785 623 624
3 621 623 780
3 780 623 784
3 786 625 782
3 782 625 622
3 782 783 787
3 782 787 786
3 627 785 624
3 627 788 785
3 786 628 625
3 629 628 786
3 787 629 786
3 789 629 787
3 791 790 630
3 791 630 631
3 627 630 788
3 788 630 790
3 793 632 792
3 632 789 792
3 632 629 789
3 794 793 792
3 797 796 795
3 798 795 796
3 634 791 631
3 634 799 791
3 793 635 632
3 794 800 793
3 800 635 793
3 800 637 635
3 637 801 638
3 800 801 637
3 803 802 639
3 638 803 639
3 801 803 638
3 804 802 803
3 807 806 805
3 640 641 805
3 806 640 805
3 808 640 806
3 795 642 797
3 642 808 797
3 642 640 808
3 810 809 644
3 810 644 642
3 798 810 642
3 795 798 642
3 811 809 810
3 648 799 634
3 648 812 799
3 802 649 639
3 650 649 802
3 804 650 802
3 813 650 804
3 816 815 814
3 651 652 814
3 815 651 814
3 817 651 815
3 805 653 807
3 653 817 807
3 653 651 817
3 653 805 641
3 809 654 644
3 655 654 809
3 818 655 809
3 811 818 809
3 819 655 818
3 819 657 655
3 660 812 648
3 660 820 812
3 813 821 650
3 650 821 661
3 663 661 821
3 663 821 822
3 816 814 667
3 666 816 667
3 823 816 666
3 667 814 652
3 818 824 819
3 824 826 825
3 824 825 668
3 819 824 668
3 657 819 668
3 825 670 668
3 672 820 660
3 672 827 820
3 822 828 663
3 663 828 673
3 828 830 829
3 674 828 829
3 673 828 674
3 831 675 674
3 831 674 829
3 831 677 675
3 833 832 680
3 833 680 679
3 666 680 823
3 823 680 832
3 826 834 825
3 834 836 835
3 834 835 681
3 825 834 681
3 670 825 681
3 835 683 681
3 684 827 672
3 684 837 827
3 840 839 838
3 838 841 840
3 838 839 687
3 839 686 687
3 839 842 686
3 843 841 838
3 687 843 838
3 688 843 687
3 688 690 843
3 843 690 844
3 842 692 686
3 845 692 842
3 846 844 690
3 846 690 694
3 694 696 846
3 846 696 847
3 849 698 848
3 698 845 848
3 698 692 845
3 851 850 849
3 851 849 848
3 852 850 851
3 699 847 696
3 699 853 847
3 854 701 849
3 849 701 698
3 855 849 850
3 854 849 855
3 850 852 856
3 857 850 856
3 855 850 857
3 856 853 857
3 853 702 857
3 853 699 702
3 860 859 858
3 858 704 860
3 704 705 860
3 862 861 860
3 862 860 705
3 706 863 705
3 705 863 862
3 701 854 706
3 854 863 706
3 854 864 863
3 865 854 855
3 864 854 865
3 709 865 708
3 865 857 708
3 865 855 857
3 708 857 702
3 866 711 712
3 713 858 712
3 859 712 858
3 712 859 866
3 867 866 859
3 866 867 868
3 858 713 704
3 867 861 868
3 862 868 861
3 868 862 869
3 870 862 863
3 869 862 870
3 864 872 871
3 870 864 871
3 863 864 870
3 874 873 872
3 864 874 872
3 865 874 864
3 714 874 709
3 709 874 865
3 875 716 717
3 718 875 717
3 876 719 720
3 711 866 720
3 866 876 720
3 866 877 876
3 878 866 868
3 877 866 878
3 879 868 869
3 878 868 879
3 870 881 880
3 879 870 880
3 869 870 879
3 881 870 871
3 873 874 882
3 873 882 883
3 721 882 714
3 714 882 874
3 884 723 724
3 725 885 724
3 724 885 884
3 727 886 725
3 725 886 885
3 887 729 875
3 875 729 716
3 730 888 718
3 888 875 718
3 888 887 875
3 731 888 730
3 876 734 719
3 734 876 736
3 876 889 736
3 876 877 889
3 890 877 878
3 889 877 890
3 879 892 891
3 890 879 891
3 878 879 890
3 892 879 880
3 883 882 893
3 883 893 894
3 737 895 721
3 895 882 721
3 895 893 882
3 723 884 737
3 884 895 737
3 884 896 895
3 885 898 897
3 896 885 897
3 884 885 896
3 900 899 898
3 885 900 898
3 886 900 885
3 901 739 887
3 887 739 729
3 902 887 888
3 901 887 902
3 902 888 731
3 903 902 731
3 740 903 731
3 904 902 903
3 905 740 741
3 905 903 740
3 906 741 743
3 906 905 741
3 907 743 745
3 907 906 743
3 908 745 746
3 908 907 745
3 909 746 747
3 909 908 746
3 910 747 748
3 910 909 747
3 911 748 749
3 911 910 748
3 749 750 911
3 911 750 912
3 914 913 753
3 753 913 752
3 916 914 915
3 914 754 915
3 914 753 754
3 755 917 754
3 754 917 915
3 756 918 755
3 755 918 917
3 736 889 756
3 889 918 756
3 889 919 918
3 890 921 920
3 919 890 920
3 889 890 919
3 921 890 891
3 894 893 922
3 894 922 923
3 924 893 895
3 922 893 924
3 896 926 925
3 924 896 925
3 895 896 924
3 926 896 897
3 899 900 927
3 899 927 928
3 929 759 901
3 901 759 739
3 902 931 930
3 929 902 930
3 901 902 929
3 931 902 904
3 932 912 750
3 932 750 760
3 934 932 933
3 932 761 933
3 932 760 761
3 936 933 935
3 933 761 935
3 763 937 935
3 763 935 761
3 764 765 937
3 765 935 937
3 765 938 935
3 765 752 913
3 765 913 938
3 939 916 915
3 939 915 917
3 939 917 940
3 940 917 918
3 940 918 941
3 943 942 941
3 918 943 941
3 919 943 918
3 919 920 944
3 919 944 943
3 945 923 922
3 947 946 945
3 922 947 945
3 924 947 922
3 924 925 948
3 949 924 948
3 947 924 949
3 950 949 948
3 928 927 766
3 767 928 766
3 951 928 767
3 952 769 929
3 929 769 759
3 929 930 953
3 929 953 952
3 954 934 933
3 763 770 937
3 933 936 954
3 937 770 764
3 942 943 955
3 942 955 956
3 943 944 957
3 958 943 957
3 955 943 958
3 959 958 957
3 946 947 960
3 946 960 961
3 962 947 949
3 960 947 962
3 949 950 963
3 964 949 963
3 962 949 964
3 963 951 964
3 951 771 964
3 951 767 771
3 965 773 952
3 952 773 769
3 952 953 966
3 952 966 965
3 956 955 967
3 956 967 968
3 969 955 958
3 967 955 969
3 958 959 970
3 958 970 969
3 961 960 775
3 776 961 775
3 971 961 776
3 775 960 777
3 777 960 962
3 777 962 778
3 778 962 964
3 778 964 771
3 972 779 965
3 965 779 773
3 965 966 973
3 965 973 972
3 968 967 974
3 968 974 975
3 969 977 976
3 974 969 976
3 967 969 974
3 977 969 970
3 980 979 978
3 979 971 978
3 971 780 978
3 971 776 780
3 972 781 779
3 783 781 972
3 973 783 972
3 981 783 973
3 975 974 982
3 975 982 983
3 974 976 984
3 974 984 982
3 980 978 784
3 785 980 784
3 985 980 785
3 784 978 780
3 981 787 783
3 986 787 981
3 989 988 987
3 983 982 990
3 988 991 987
3 990 982 984
3 994 993 992
3 993 985 992
3 985 788 992
3 985 785 788
3 996 789 995
3 789 986 995
3 789 787 986
3 997 996 995
3 1000 999 998
3 1002 1001 998
3 1002 998 999
3 1001 1002 989
3 987 1001 989
3 1003 1001 987
3 987 991 1004
3 987 1004 1003
3 994 992 790
3 791 994 790
3 1005 994 791
3 790 992 788
3 996 792 789
3 1007 1006 794
3 1007 794 792
3 997 1007 792
3 996 997 792
3 1009 1008 1006
3 1009 1006 1007
3 1010 1008 1009
3 1000 998 1011
3 1000 1011 1012
3 797 1011 796
3 1011 1001 796
3 1011 998 1001
3 796 1001 798
3 1001 1013 798
3 1001 1003 1013
3 1003 1004 1014
3 1003 1014 1013
3 799 1005 791
3 799 1015 1005
3 1006 800 794
3 800 1006 801
3 801 1006 1008
3 1010 1016 1008
3 1016 801 1008
3 1016 803 801
3 804 803 1016
3 804 1016 1017
3 1020 1019 1018
3 806 807 1018
3 1019 806 1018
3 1021 806 1019
3 1011 808 1012
3 808 1021 1012
3 808 806 1021
3 808 1011 797
3 1013 810 798
3 811 810 1013
3 1014 811 1013
3 1022 811 1014
3 812 1015 799
3 812 1023 1015
3 1025 813 1024
3 813 1017 1024
3 813 804 1017
3 1027 1026 1025
3 1027 1025 1024
3 1028 1026 1027
3 1031 1030 1029
3 1033 1032 1029
3 1033 1029 1030
3 815 816 1032
3 1033 815 1032
3 1034 815 1033
3 1018 817 1020
3 817 1034 1020
3 817 815 1034
3 817 1018 807
3 1036 818 1035
3 818 1022 1035
3 818 811 1022
3 1037 1036 1035
3 820 1023 812
3 820 1038 1023
3 1025 821 813
3 821 1025 822
3 1025 1039 822
3 1025 1026 1039
3 1026 1028 1040
3 1026 1040 1039
3 1043 1042 1041
3 1045 1044 1041
3 1045 1041 1042
3 1031 1029 1046
3 1045 1047 1044
3 1049 1048 1046
3 1029 1049 1046
3 1032 1049 1029
3 823 1049 816
3 816 1049 1032
3 1036 824 818
3 826 824 1036
3 1037 826 1036
3 1050 826 1037
3 827 1038 820
3 827 1051 1038
3 1039 828 822
3 1053 1052 830
3 1053 830 828
3 1040 1053 828
3 1039 1040 828
3 1052 1053 1043
3 1041 1052 1043
3 1054 1052 1041
3 1055 1041 1044
3 1054 1041 1055
3 1044 1047 1056
3 1044 1056 1055
3 1048 1049 832
3 833 1048 832
3 1057 1048 833
3 832 1049 823
3 1050 1058 826
3 826 1058 834
3 836 834 1058
3 836 1058 1059
3 1062 1061 1060
3 1061 1051 1060
3 1051 837 1060
3 1051 827 837
3 1063 839 840
3 841 1063 840
3 1065 1064 1063
3 1064 839 1063
3 1064 842 839
3 1067 1065 1066
3 1066 1065 843
3 1065 1063 843
3 1063 841 843
3 844 1066 843
3 1069 845 1068
3 845 1064 1068
3 845 842 1064
3 1069 1068 1067
3 1066 1069 1067
3 1070 1069 1066
3 846 1071 844
3 1071 1066 844
3 1071 1070 1066
3 847 1071 846
3 1069 848 845
3 848 1069 851
3 851 1069 1070
3 851 1070 852
3 1070 1072 852
3 1070 1071 1072
3 853 1072 847
3 847 1072 1071
3 1072 856 852
3 856 1072 853
3 1073 859 860
3 861 1073 860
3 1073 867 859
3 867 1073 861
3 1074 871 872
3 873 1074 872
3 1075 880 881
3 871 1074 881
3 1074 1075 881
3 1074 1076 1075
3 883 1076 873
3 873 1076 1074
3 1077 891 892
3 880 1075 892
3 1075 1077 892
3 1075 1078 1077
3 1079 1075 1076
3 1078 1075 1079
3 894 1079 883
3 883 1079 1076
3 1080 897 898
3 899 1080 898
3 1081 904 903
3 905 1082 903
3 903 1082 1081
3 906 1083 905
3 905 1083 1082
3 907 1084 906
3 906 1084 1083
3 908 1085 907
3 907 1085 1084
3 909 1086 908
3 908 1086 1085
3 910 1087 909
3 909 1087 1086
3 911 1088 910
3 910 1088 1087
3 912 1088 911
3 1089 913 914
3 1091 1089 1090
3 1089 914 1090
3 916 1092 1090
3 916 1090 914
3 1092 1093 1090
3 1094 920 921
3 891 1077 921
3 1077 1094 921
3 1077 1095 1094
3 1096 1077 1078
3 1095 1077 1096
3 1097 1078 1079
3 1096 1078 1097
3 923 1097 894
3 894 1097 1079
3 1098 925 926
3 897 1080 926
3 1080 1098 926
3 1080 1099 1098
3 928 1099 899
3 899 1099 1080
3 1100 930 931
3 904 1081 931
3 1081 1100 931
3 1081 1101 1100
3 1082 1103 1102
3 1101 1082 1102
3 1081 1082 1101
3 1103 1082 1083
3 1103 1083 1104
3 1104 1083 1084
3 1104 1084 1105
3 1105 1084 1085
3 1105 1085 1106
3 1106 1085 1086
3 1106 1086 1107
3 1107 1086 1087
3 1107 1087 1108
3 1110 1109 1108
3 1087 1110 1108
3 1088 1110 1087
3 1110 1088 912
3 1111 1110 912
3 932 1111 912
3 1112 1110 1111
3 1114 1113 934
3 1113 932 934
3 1113 1111 932
3 936 935 1114
3 935 1113 1114
3 935 1115 1113
3 1116 935 938
3 1116 1115 935
3 938 913 1089
3 1117 938 1089
3 1116 938 1117
3 916 939 1092
3 1089 1091 1117
3 1118 1093 1092
3 939 1118 1092
3 940 1118 939
3 1120 1118 1119
3 1118 941 1119
3 1118 940 941
3 942 1119 941
3 1121 944 1094
3 1094 944 920
3 1122 1094 1095
3 1121 1094 1122
3 1123 1095 1096
3 1122 1095 1123
3 1124 1096 1097
3 1123 1096 1124
3 945 1125 923
3 1125 1097 923
3 1125 1124 1097
3 946 1125 945
3 1098 948 925
3 948 1098 950
3 1098 1126 950
3 1098 1099 1126
3 951 1126 928
3 928 1126 1099
3 1127 953 1100
3 1100 953 930
3 1101 1129 1128
3 1127 1101 1128
3 1100 1101 1127
3 1129 1101 1102
3 1130 1109 1110
3 1130 1110 1112
3 954 1114 934
3 1114 954 936
3 1120 1119 1131
3 1120 1131 1132
3 956 1131 942
3 942 1131 1119
3 1121 957 944
3 957 1121 959
3 1121 1133 959
3 1121 1122 1133
3 1134 1122 1123
3 1133 1122 1134
3 1135 1123 1124
3 1134 1123 1135
3 1136 1124 1125
3 1135 1124 1136
3 961 1136 946
3 946 1136 1125
3 1126 963 950
3 963 1126 951
3 1137 966 1127
3 1127 966 953
3 1127 1128 1138
3 1127 1138 1137
3 1132 1131 1139
3 1132 1139 1140
3 968 1139 956
3 956 1139 1131
3 1141 970 1133
3 1133 970 959
3 1142 1133 1134
3 1141 1133 1142
3 1143 1134 1135
3 1142 1134 1143
3 1144 1135 1136
3 1143 1135 1144
3 971 1144 961
3 961 1144 1136
3 1146 1145 1137
3 1145 966 1137
3 1145 973 966
3 1146 1137 1138
3 1149 1148 1147
3 1151 1150 1147
3 1151 1147 1148
3 1153 1152 1150
3 1153 1150 1151
3 1154 1152 1153
3 1140 1139 1155
3 1140 1155 1156
3 975 1155 968
3 968 1155 1139
3 1157 976 977
3 970 1141 977
3 1141 1157 977
3 1141 1158 1157
3 1159 1141 1142
3 1158 1141 1159
3 1160 1142 1143
3 1159 1142 1160
3 980 1160 979
3 1160 1144 979
3 1160 1143 1144
3 979 1144 971
3 1145 981 973
3 1161 981 1145
3 1149 1147 1162
3 1149 1162 1163
3 1164 1147 1150
3 1162 1147 1164
3 1165 1150 1152
3 1164 1150 1165
3 1152 1154 1166
3 1152 1166 1165
3 1169 1168 1167
3 1167 1168 1156
3 1155 1167 1156
3 1170 1167 1155
3 983 1170 975
3 975 1170 1155
3 1171 984 1157
3 1157 984 976
3 1172 1157 1158
3 1171 1157 1172
3 1173 1158 1159
3 1172 1158 1173
3 1174 1159 1160
3 1173 1159 1174
3 985 1174 980
3 980 1174 1160
3 1161 986 981
3 1175 986 1161
3 1163 1162 1176
3 1163 1176 1177
3 1178 1162 1164
3 1176 1162 1178
3 1179 1164 1165
3 1178 1164 1179
3 1165 1166 1180
3 1165 1180 1179
3 1183 1182 1181
3 1181 1182 1169
3 1167 1181 1169
3 1184 1181 1167
3 989 1184 988
3 1184 1170 988
3 1184 1167 1170
3 991 988 1185
3 988 1170 1185
3 983 990 1185
3 983 1185 1170
3 984 1171 990
3 1171 1185 990
3 1171 1186 1185
3 1187 1171 1172
3 1186 1171 1187
3 1188 1172 1173
3 1187 1172 1188
3 994 1188 993
3 1188 1174 993
3 1188 1173 1174
3 993 1174 985
3 1175 1189 986
3 986 1189 995
3 1191 1190 997
3 995 1191 997
3 1189 1191 995
3 1193 1192 1190
3 1193 1190 1191
3 1194 1192 1193
3 1195 1177 1176
3 1195 1176 1178
3 1195 1178 1196
3 1196 1178 1179
3 1196 1179 1197
3 1200 1199 1198
3 1180 1197 1179
3 1199 1200 1183
3 1199 1183 1181
3 1000 1199 1181
3 999 1000 1181
3 999 1181 1002
3 1002 1181 1184
3 1002 1184 989
3 1201 1004 1185
3 1185 1004 991
3 1186 1203 1202
3 1201 1186 1202
3 1185 1186 1201
3 1203 1186 1187
3 1203 1187 1204
3 1206 1205 1204
3 1187 1206 1204
3 1188 1206 1187
3 1005 1206 994
3 994 1206 1188
3 1190 1007 997
3 1007 1190 1009
3 1009 1190 1192
3 1208 1207 1010
3 1208 1010 1009
3 1194 1208 1009
3 1192 1194 1009
3 1209 1207 1208
3 1198 1199 1210
3 1198 1210 1211
3 1012 1210 1000
3 1000 1210 1199
3 1212 1014 1201
3 1201 1014 1004
3 1201 1202 1213
3 1201 1213 1212
3 1205 1206 1214
3 1205 1214 1215
3 1015 1214 1005
3 1005 1214 1206
3 1207 1016 1010
3 1217 1216 1017
3 1217 1017 1016
3 1209 1217 1016
3 1207 1209 1016
3 1219 1218 1216
3 1219 1216 1217
3 1220 1218 1219
3 1223 1222 1221
3 1225 1224 1221
3 1225 1221 1222
3 1227 1226 1224
3 1227 1224 1225
3 1229 1228 1226
3 1229 1226 1227
3 1019 1020 1228
3 1229 1019 1228
3 1230 1019 1229
3 1210 1021 1211
3 1021 1230 1211
3 1021 1019 1230
3 1021 1210 1012
3 1231 1022 1212
3 1212 1022 1014
3 1212 1213 1232
3 1212 1232 1231
3 1215 1214 1233
3 1215 1233 1234
3 1023 1233 1015
3 1015 1233 1214
3 1216 1024 1017
3 1024 1216 1027
3 1027 1216 1218
3 1236 1235 1028
3 1236 1028 1027
3 1220 1236 1027
3 1218 1220 1027
3 1238 1237 1235
3 1238 1235 1236
3 1237 1238 1223
3 1221 1237 1223
3 1239 1237 1221
3 1031 1239 1030
3 1239 1224 1030
3 1239 1221 1224
3 1030 1224 1033
3 1033 1224 1226
3 1033 1226 1034
3 1034 1226 1228
3 1034 1228 1020
3 1231 1035 1022
3 1037 1035 1231
3 1232 1037 1231
3 1240 1037 1232
3 1241 1234 1233
3 1233 1023 1241
3 1023 1242 1241
3 1023 1038 1242
3 1243 1040 1235
3 1235 1040 1028
3 1043 1243 1042
3 1243 1237 1042
3 1243 1235 1237
3 1042 1237 1045
3 1045 1237 1239
3 1047 1045 1244
3 1045 1239 1244
3 1031 1046 1244
3 1031 1244 1239
3 1048 1244 1046
3 1246 1050 1245
3 1050 1240 1245
3 1050 1037 1240
3 1247 1246 1245
3 1250 1249 1248
3 1249 1242 1248
3 1242 1051 1248
3 1242 1038 1051
3 1243 1053 1040
3 1053 1243 1043
3 1251 1056 1244
3 1244 1056 1047
3 1057 1251 1048
3 1048 1251 1244
3 1246 1058 1050
3 1253 1252 1059
3 1253 1059 1058
3 1247 1253 1058
3 1246 1247 1058
3 1252 1253 1250
3 1252 1250 1248
3 1062 1252 1248
3 1061 1062 1248
3 1061 1248 1051
3 1254 1064 1065
3 1067 1254 1065
3 1254 1068 1064
3 1068 1254 1067
3 1255 1091 1090
3 1093 1255 1090
3 1256 1102 1103
3 1104 1257 1103
3 1103 1257 1256
3 1257 1104 1258
3 1104 1259 1258
3 1104 1105 1259
3 1261 1259 1260
3 1259 1106 1260
3 1259 1105 1106
3 1107 1262 1106
3 1106 1262 1260
3 1108 1263 1107
3 1107 1263 1262
3 1109 1263 1108
3 1264 1112 1111
3 1113 1265 1111
3 1111 1265 1264
3 1115 1266 1113
3 1113 1266 1265
3 1116 1267 1115
3 1115 1267 1266
3 1117 1268 1116
3 1116 1268 1267
3 1091 1255 1117
3 1255 1268 1117
3 1255 1269 1268
3 1118 1270 1093
3 1270 1255 1093
3 1270 1269 1255
3 1120 1270 1118
3 1271 1128 1129
3 1102 1256 1129
3 1256 1271 1129
3 1256 1272 1271
3 1257 1274 1273
3 1272 1257 1273
3 1256 1257 1272
3 1274 1257 1258
3 1261 1260 1275
3 1261 1275 1276
3 1277 1260 1262
3 1275 1260 1277
3 1278 1262 1263
3 1277 1262 1278
3 1130 1279 1109
3 1279 1263 1109
3 1279 1278 1263
3 1112 1264 1130
3 1264 1279 1130
3 1264 1280 1279
3 1265 1282 1281
3 1280 1265 1281
3 1264 1265 1280
3 1282 1265 1266
3 1282 1266 1283
3 1285 1284 1283
3 1266 1285 1283
3 1267 1285 1266
3 1286 1267 1268
3 1285 1267 1286
3 1287 1268 1269
3 1286 1268 1287
3 1288 1269 1270
3 1287 1269 1288
3 1132 1288 1120
3 1120 1288 1270
3 1289 1138 1271
3 1271 1138 1128
3 1290 1271 1272
3 1289 1271 1290
3 1272 1273 1291
3 1292 1272 1291
3 1290 1272 1292
3 1294 1293 1292
3 1294 1292 1291
3 1293 1294 1276
3 1275 1293 1276
3 1295 1293 1275
3 1296 1275 1277
3 1295 1275 1296
3 1278 1298 1297
3 1296 1278 1297
3 1277 1278 1296
3 1298 1278 1279
3 1298 1279 1299
3 1301 1300 1299
3 1279 1301 1299
3 1280 1301 1279
3 1280 1281 1302
3 1303 1280 1302
3 1301 1280 1303
3 1305 1304 1303
3 1305 1303 1302
3 1304 1305 1284
3 1285 1304 1284
3 1306 1304 1285
3 1307 1285 1286
3 1306 1285 1307
3 1308 1286 1287
3 1307 1286 1308
3 1309 1287 1288
3 1308 1287 1309
3 1140 1309 1132
3 1132 1309 1288
3 1310 1145 1146
3 1311 1310 1146
3 1311 1146 1138
3 1312 1311 1138
3 1289 1312 1138
3 1314 1313 1312
3 1289 1314 1312
3 1290 1314 1289
3 1315 1290 1292
3 1314 1290 1315
3 1293 1317 1316
3 1315 1293 1316
3 1292 1293 1315
3 1317 1293 1295
3 1317 1295 1318
3 1318 1295 1296
3 1318 1296 1319
3 1319 1296 1297
3 1300 1301 1320
3 1300 1320 1321
3 1149 1320 1148
3 1320 1303 1148
3 1320 1301 1303
3 1148 1303 1151
3 1151 1303 1304
3 1151 1304 1153
3 1153 1304 1306
3 1153 1306 1154
3 1306 1322 1154
3 1306 1307 1322
3 1323 1307 1308
3 1322 1307 1323
3 1324 1308 1309
3 1323 1308 1324
3 1156 1324 1140
3 1140 1324 1309
3 1325 1161 1310
3 1310 1161 1145
3 1310 1311 1326
3 1310 1326 1325
3 1313 1314 1327
3 1313 1327 1328
3 1329 1314 1315
3 1327 1314 1329
3 1315 1316 1330
3 1315 1330 1329
3 1333 1332 1331
3 1331 1332 1321
3 1320 1331 1321
3 1334 1331 1320
3 1163 1334 1149
3 1149 1334 1320
3 1335 1166 1322
3 1322 1166 1154
3 1336 1322 1323
3 1335 1322 1336
3 1169 1336 1168
3 1336 1324 1168
3 1336 1323 1324
3 1168 1324 1156
3 1337 1175 1325
3 1325 1175 1161
3 1325 1326 1338
3 1339 1325 1338
3 1337 1325 1339
3 1339 1338 1328
3 1327 1339 1328
3 1340 1339 1327
3 1341 1327 1329
3 1340 1327 1341
3 1329 1330 1342
3 1329 1342 1341
3 1333 1331 1343
3 1333 1343 1344
3 1345 1331 1334
3 1343 1331 1345
3 1177 1345 1163
3 1163 1345 1334
3 1346 1180 1335
3 1335 1180 1166
3 1183 1346 1182
3 1346 1336 1182
3 1346 1335 1336
3 1182 1336 1169
3 1337 1189 1175
3 1189 1337 1191
3 1191 1337 1339
3 1191 1339 1193
3 1193 1339 1340
3 1193 1340 1194
3 1340 1347 1194
3 1340 1341 1347
3 1341 1342 1348
3 1341 1348 1347
3 1344 1343 1349
3 1344 1349 1350
3 1351 1343 1345
3 1349 1343 1351
3 1195 1352 1177
3 1352 1345 1177
3 1352 1351 1345
3 1196 1353 1195
3 1195 1353 1352
3 1197 1354 1196
3 1196 1354 1353
3 1197 1180 1354
3 1180 1346 1354
3 1200 1198 1354
3 1200 1354 1346
3 1200 1346 1183
3 1355 1202 1203
3 1204 1356 1203
3 1203 1356 1355
3 1205 1356 1204
3 1347 1208 1194
3 1358 1357 1209
3 1358 1209 1208
3 1348 1358 1208
3 1347 1348 1208
3 1360 1359 1357
3 1360 1357 1358
3 1362 1361 1359
3 1362 1359 1360
3 1364 1363 1361
3 1364 1361 1362
3 1363 1364 1350
3 1349 1363 1350
3 1365 1363 1349
3 1366 1349 1351
3 1365 1349 1366
3 1367 1351 1352
3 1366 1351 1367
3 1368 1352 1353
3 1367 1352 1368
3 1369 1353 1354
3 1368 1353 1369
3 1211 1369 1198
3 1198 1369 1354
3 1370 1213 1355
3 1355 1213 1202
3 1371 1355 1356
3 1370 1355 1371
3 1215 1371 1205
3 1205 1371 1356
3 1357 1217 1209
3 1217 1357 1219
3 1219 1357 1359
3 1219 1359 1220
3 1359 1372 1220
3 1359 1361 1372
3 1373 1361 1363
3 1372 1361 1373
3 1223 1373 1222
3 1373 1365 1222
3 1373 1363 1365
3 1222 1365 1225
3 1225 1365 1366
3 1225 1366 1227
3 1227 1366 1367
3 1227 1367 1229
3 1229 1367 1368
3 1229 1368 1230
3 1230 1368 1369
3 1230 1369 1211
3 1374 1232 1370
3 1370 1232 1213
3 1375 1370 1371
3 1374 1370 1375
3 1234 1375 1215
3 1215 1375 1371
3 1372 1236 1220
3 1236 1372 1238
3 1238 1372 1373
3 1238 1373 1223
3 1376 1240 1374
3 1374 1240 1232
3 1377 1374 1375
3 1376 1374 1377
3 1241 1378 1234
3 1378 1375 1234
3 1378 1377 1375
3 1242 1378 1241
3 1376 1245 1240
3 1245 1376 1247
3 1376 1379 1247
3 1376 1377 1379
3 1250 1379 1249
3 1379 1378 1249
3 1379 1377 1378
3 1249 1378 1242
3 1379 1253 1247
3 1253 1379 1250