OFF
507 938 0
nan nan nan
nan nan nan
nan nan nan
nan nan nan
nan nan nan
nan nan nan
nan nan nan
nan nan nan
nan nan nan
nan nan nan
nan nan nan
nan nan nan
nan nan nan
nan nan nan
nan nan nan
nan nan nan
nan nan nan
nan nan nan
nan nan nan
nan nan nan
nan nan nan
nan nan nan
nan nan nan
nan nan nan
nan nan nan
nan nan nan
nan nan nan
nan nan nan
nan nan nan
nan nan nan
nan nan nan
nan nan nan
nan nan nan
nan nan nan
nan nan nan
nan nan nan
nan nan nan
nan nan nan
nan nan nan
nan nan nan
nan nan nan
nan nan nan
nan nan nan
nan nan nan
nan nan nan
nan nan nan
nan nan nan
nan nan nan
nan nan nan
nan nan nan
nan nan nan
nan nan nan
nan nan nan
nan nan nan
nan nan nan
nan nan nan
nan nan nan
nan nan nan
nan nan nan
nan nan nan
nan nan nan
nan nan nan
nan nan nan
nan nan nan
nan nan nan
nan nan nan
nan nan nan
nan nan nan
nan nan nan
nan nan nan
nan nan nan
nan nan nan
nan nan nan
nan nan nan
nan nan nan
nan nan nan
nan nan nan
nan nan nan
nan nan nan
nan nan nan
nan nan nan
nan nan nan
nan nan nan
nan nan nan
nan nan nan
nan nan nan
nan nan nan
nan nan nan
nan nan nan
nan nan nan
nan nan nan
nan nan nan
nan nan nan
nan nan nan
nan nan nan
nan nan nan
nan nan nan
nan nan nan
nan nan nan
nan nan nan
nan nan nan
nan nan nan
nan nan nan
nan nan nan
nan nan nan
nan nan nan
nan nan nan
nan nan nan
nan nan nan
nan nan nan
nan nan nan
nan nan nan
nan nan nan
nan nan nan
nan nan nan
nan nan nan
nan nan nan
nan nan nan
nan nan nan
nan nan nan
nan nan nan
nan nan nan
nan nan nan
nan nan nan
nan nan nan
nan nan nan
nan nan nan
nan nan nan
nan nan nan
nan nan nan
nan nan nan
nan nan nan
nan nan nan
nan nan nan
nan nan nan
nan nan nan
nan nan nan
nan nan nan
nan nan nan
nan nan nan
nan nan nan
nan nan nan
nan nan nan
nan nan nan
nan nan nan
nan nan nan
nan nan nan
nan nan nan
nan nan nan
nan nan nan
nan nan nan
nan nan nan
nan nan nan
nan nan nan
nan nan nan
nan nan nan
nan nan nan
nan nan nan
nan nan nan
nan nan nan
nan nan nan
nan nan nan
nan nan nan
nan nan nan
nan nan nan
nan nan nan
nan nan nan
nan nan nan
nan nan nan
nan nan nan
nan nan nan
nan nan nan
nan nan nan
nan nan nan
nan nan nan
nan nan nan
nan nan nan
nan nan nan
nan nan nan
nan nan nan
nan nan nan
nan nan nan
nan nan nan
nan nan nan
nan nan nan
nan nan nan
nan nan nan
nan nan nan
nan nan nan
nan nan nan
nan nan nan
nan nan nan
nan nan nan
nan nan nan
nan nan nan
nan nan nan
nan nan nan
nan nan nan
nan nan nan
nan nan nan
nan nan nan
nan nan nan
nan nan nan
nan nan nan
nan nan nan
nan nan nan
nan nan nan
nan nan nan
nan nan nan
nan nan nan
nan nan nan
nan nan nan
nan nan nan
nan nan nan
nan nan nan
nan nan nan
nan nan nan
nan nan nan
nan nan nan
nan nan nan
nan nan nan
nan nan nan
nan nan nan
nan nan nan
nan nan nan
nan nan nan
nan nan nan
nan nan nan
nan nan nan
nan nan nan
nan nan nan
nan nan nan
nan nan nan
nan nan nan
nan nan nan
nan nan nan
nan nan nan
nan nan nan
nan nan nan
nan nan nan
nan nan nan
nan nan nan
nan nan nan
nan nan nan
nan nan nan
nan nan nan
nan nan nan
nan nan nan
nan nan nan
nan nan nan
nan nan nan
nan nan nan
nan nan nan
nan nan nan
nan nan nan
nan nan nan
nan nan nan
nan nan nan
nan nan nan
nan nan nan
nan nan nan
nan nan nan
nan nan nan
nan nan nan
nan nan nan
nan nan nan
nan nan nan
nan nan nan
nan nan nan
nan nan nan
nan nan nan
nan nan nan
nan nan nan
nan nan nan
nan nan nan
nan nan nan
nan nan nan
nan nan nan
nan nan nan
nan nan nan
nan nan nan
nan nan nan
nan nan nan
nan nan nan
nan nan nan
nan nan nan
nan nan nan
nan nan nan
nan nan nan
nan nan nan
nan nan nan
nan nan nan
nan nan nan
nan nan nan
nan nan nan
nan nan nan
nan nan nan
nan nan nan
nan nan nan
nan nan nan
nan nan nan
nan nan nan
nan nan nan
nan nan nan
nan nan nan
nan nan nan
nan nan nan
nan nan nan
nan nan nan
nan nan nan
nan nan nan
nan nan nan
nan nan nan
nan nan nan
nan nan nan
nan nan nan
nan nan nan
nan nan nan
nan nan nan
nan nan nan
nan nan nan
nan nan nan
nan nan nan
nan nan nan
nan nan nan
nan nan nan
nan nan nan
nan nan nan
nan nan nan
nan nan nan
nan nan nan
nan nan nan
nan nan nan
nan nan nan
nan nan nan
nan nan nan
nan nan nan
nan nan nan
nan nan nan
nan nan nan
nan nan nan
nan nan nan
nan nan nan
nan nan nan
nan nan nan
nan nan nan
nan nan nan
nan nan nan
nan nan nan
nan nan nan
nan nan nan
nan nan nan
nan nan nan
nan nan nan
nan nan nan
nan nan nan
nan nan nan
nan nan nan
nan nan nan
nan nan nan
nan nan nan
nan nan nan
nan nan nan
nan nan nan
nan nan nan
nan nan nan
nan nan nan
nan nan nan
nan nan nan
nan nan nan
nan nan nan
nan nan nan
nan nan nan
nan nan nan
nan nan nan
nan nan nan
nan nan nan
nan nan nan
nan nan nan
nan nan nan
nan nan nan
nan nan nan
nan nan nan
nan nan nan
nan nan nan
nan nan nan
nan nan nan
nan nan nan
nan nan nan
nan nan nan
nan nan nan
nan nan nan
nan nan nan
nan nan nan
nan nan nan
nan nan nan
nan nan nan
nan nan nan
nan nan nan
nan nan nan
nan nan nan
nan nan nan
nan nan nan
nan nan nan
nan nan nan
nan nan nan
nan nan nan
nan nan nan
nan nan nan
nan nan nan
nan nan nan
nan nan nan
nan nan nan
nan nan nan
nan nan nan
nan nan nan
nan nan nan
nan nan nan
nan nan nan
nan nan nan
nan nan nan
nan nan nan
nan nan nan
nan nan nan
nan nan nan
nan nan nan
nan nan nan
nan nan nan
nan nan nan
nan nan nan
nan nan nan
nan nan nan
nan nan nan
nan nan nan
nan nan nan
nan nan nan
nan nan nan
nan nan nan
nan nan nan
nan nan nan
nan nan nan
nan nan nan
nan nan nan
nan nan nan
nan nan nan
nan nan nan
nan nan nan
nan nan nan
nan nan nan
nan nan nan
nan nan nan
nan nan nan
nan nan nan
nan nan nan
nan nan nan
nan nan nan
nan nan nan
nan nan nan
nan nan nan
nan nan nan
nan nan nan
nan nan nan
nan nan nan
nan nan nan
nan nan nan
nan nan nan
nan nan nan
nan nan nan
nan nan nan
nan nan nan
nan nan nan
nan nan nan
nan nan nan
nan nan nan
nan nan nan
nan nan nan
nan nan nan
nan nan nan
nan nan nan
nan nan nan
nan nan nan
nan nan nan
nan nan nan
nan nan nan
nan nan nan
nan nan nan
nan nan nan
nan nan nan
nan nan nan
nan nan nan
nan nan nan
nan nan nan
nan nan nan
nan nan nan
nan nan nan
nan nan nan
nan nan nan
nan nan nan
nan nan nan
nan nan nan
nan nan nan
nan nan nan
nan nan nan
nan nan nan
nan nan nan
nan nan nan
nan nan nan
3 2 1 0
3 0 3 2
3 6 5 4
3 8 7 4
3 4 7 6
3 7 8 1
3 8 0 1
3 8 9 0
3 3 0 10
3 0 11 10
3 0 9 11
3 13 12 11
3 11 12 10
3 13 14 12
3 5 15 4
3 17 16 15
3 16 4 15
3 16 8 4
3 8 18 9
3 8 16 18
3 9 19 11
3 9 18 19
3 11 20 13
3 11 19 20
3 14 13 21
3 13 22 21
3 13 20 22
3 22 23 21
3 16 17 24
3 24 17 25
3 16 26 18
3 16 24 26
3 18 27 19
3 18 26 27
3 19 28 20
3 19 27 28
3 20 29 22
3 20 28 29
3 23 22 30
3 22 31 30
3 22 29 31
3 31 32 30
3 24 25 33
3 33 25 34
3 24 35 26
3 24 33 35
3 26 36 27
3 26 35 36
3 27 37 28
3 27 36 37
3 28 38 29
3 28 37 38
3 29 39 31
3 29 38 39
3 32 31 40
3 31 41 40
3 31 39 41
3 34 42 33
3 33 42 35
3 35 42 43
3 45 44 43
3 44 35 43
3 44 36 35
3 36 46 37
3 36 44 46
3 37 47 38
3 37 46 47
3 38 48 39
3 38 47 48
3 39 49 41
3 39 48 49
3 45 50 44
3 52 51 50
3 51 44 50
3 51 46 44
3 46 53 47
3 46 51 53
3 47 54 48
3 47 53 54
3 48 55 49
3 48 54 55
3 52 56 51
3 51 56 53
3 53 56 57
3 53 57 54
3 54 57 58
3 54 58 55
3 55 58 59
3 62 61 60
3 60 63 62
3 66 65 64
3 68 67 64
3 64 67 66
3 70 69 68
3 68 69 67
3 72 71 70
3 70 71 69
3 72 73 71
3 76 75 74
3 76 74 61
3 74 60 61
3 74 77 60
3 63 60 78
3 60 79 78
3 60 77 79
3 81 80 79
3 79 80 78
3 83 82 81
3 81 82 80
3 82 83 65
3 83 64 65
3 83 84 64
3 64 85 68
3 64 84 85
3 85 1 2
3 70 85 2
3 68 85 70
3 70 2 3
3 86 70 3
3 72 70 86
3 73 72 87
3 72 88 87
3 72 86 88
3 88 89 87
3 92 91 90
3 92 90 75
3 90 74 75
3 90 93 74
3 74 94 77
3 74 93 94
3 77 95 79
3 77 94 95
3 79 96 81
3 79 95 96
3 81 97 83
3 81 96 97
3 97 5 6
3 84 97 6
3 83 97 84
3 84 6 7
3 84 7 85
3 85 7 1
3 10 86 3
3 86 10 12
3 86 12 88
3 99 98 14
3 14 98 12
3 98 89 12
3 89 88 12
3 101 100 99
3 99 100 98
3 101 102 100
3 91 103 90
3 105 104 103
3 104 90 103
3 104 93 90
3 93 106 94
3 93 104 106
3 94 107 95
3 94 106 107
3 95 108 96
3 95 107 108
3 96 109 97
3 96 108 109
3 110 15 5
3 97 110 5
3 109 110 97
3 110 17 15
3 21 99 14
3 99 21 23
3 111 99 23
3 101 99 111
3 102 101 112
3 101 113 112
3 101 111 113
3 105 114 104
3 116 115 114
3 115 104 114
3 115 106 104
3 106 117 107
3 106 115 117
3 107 118 108
3 107 117 118
3 108 119 109
3 108 118 119
3 109 120 110
3 109 119 120
3 120 25 17
3 120 17 110
3 30 111 23
3 111 30 32
3 121 111 32
3 113 111 121
3 116 122 115
3 115 122 117
3 117 122 123
3 117 123 118
3 118 123 124
3 118 124 119
3 119 124 125
3 127 126 125
3 126 119 125
3 126 120 119
3 126 34 25
3 126 25 120
3 40 121 32
3 127 128 126
3 126 128 34
3 128 42 34
3 128 129 42
3 129 131 130
3 43 129 130
3 42 129 43
3 130 45 43
3 131 132 130
3 132 134 133
3 132 133 50
3 130 132 50
3 45 130 50
3 133 52 50
3 134 135 133
3 135 137 136
3 135 136 56
3 133 135 56
3 52 133 56
3 138 57 56
3 138 56 136
3 139 58 57
3 139 57 138
3 140 59 58
3 140 58 139
3 143 142 141
3 145 144 141
3 141 144 143
3 147 146 145
3 145 146 144
3 149 148 147
3 147 148 146
3 151 150 149
3 149 150 148
3 153 152 151
3 151 152 150
3 155 154 153
3 153 154 152
3 155 156 154
3 159 158 157
3 159 157 142
3 142 157 141
3 157 61 141
3 61 62 141
3 141 62 63
3 160 141 63
3 145 141 160
3 145 161 147
3 145 160 161
3 147 162 149
3 147 161 162
3 162 65 66
3 151 162 66
3 149 162 151
3 151 66 67
3 151 67 153
3 153 67 69
3 153 69 155
3 163 156 155
3 69 163 155
3 71 163 69
3 165 164 73
3 164 71 73
3 164 163 71
3 165 166 164
3 169 168 167
3 169 167 158
3 158 167 157
3 167 75 157
3 75 76 157
3 157 76 61
3 78 160 63
3 160 78 80
3 160 80 161
3 161 80 82
3 161 82 162
3 162 82 65
3 87 165 73
3 171 170 89
3 89 170 87
3 170 166 87
3 166 165 87
3 173 172 171
3 171 172 170
3 173 174 172
3 167 168 92
3 168 91 92
3 168 175 91
3 167 92 75
3 98 171 89
3 171 98 100
3 171 100 173
3 177 176 102
3 102 176 100
3 176 174 100
3 174 173 100
3 175 178 91
3 91 178 103
3 180 179 105
3 103 180 105
3 178 180 103
3 181 179 180
3 112 177 102
3 179 114 105
3 183 182 116
3 183 116 114
3 181 183 114
3 179 181 114
3 184 182 183
3 182 122 116
3 184 185 182
3 185 122 182
3 185 123 122
3 123 186 124
3 185 186 123
3 186 188 187
3 125 186 187
3 124 186 125
3 187 127 125
3 188 189 187
3 187 189 127
3 189 128 127
3 189 190 128
3 190 192 191
3 129 190 191
3 128 190 129
3 191 131 129
3 192 193 191
3 193 195 194
3 193 194 132
3 191 193 132
3 131 191 132
3 194 134 132
3 195 196 194
3 194 196 134
3 196 135 134
3 196 197 135
3 137 135 197
3 137 197 198
3 201 200 199
3 203 202 199
3 199 202 201
3 205 204 203
3 203 204 202
3 207 206 205
3 205 206 204
3 209 208 207
3 207 208 206
3 211 210 209
3 209 210 208
3 213 212 211
3 211 212 210
3 213 214 212
3 217 216 215
3 219 218 215
3 215 218 217
3 218 219 200
3 200 219 199
3 219 142 199
3 142 143 199
3 199 143 144
3 199 144 203
3 203 144 146
3 203 146 205
3 205 146 148
3 205 148 207
3 207 148 150
3 207 150 209
3 209 150 152
3 209 152 211
3 211 152 154
3 211 154 213
3 221 220 156
3 156 220 154
3 220 214 154
3 214 213 154
3 221 222 220
3 215 216 223
3 223 216 224
3 223 158 159
3 219 223 159
3 215 223 219
3 219 159 142
3 163 221 156
3 225 222 221
3 163 225 221
3 164 225 163
3 227 226 166
3 226 164 166
3 226 225 164
3 227 228 226
3 223 224 169
3 224 168 169
3 224 229 168
3 223 169 158
3 170 227 166
3 230 228 227
3 170 230 227
3 172 230 170
3 232 231 174
3 231 172 174
3 231 230 172
3 234 175 233
3 175 229 233
3 175 168 229
3 235 234 233
3 176 232 174
3 234 178 175
3 235 236 234
3 236 178 234
3 236 180 178
3 181 180 236
3 181 236 237
3 237 238 181
3 181 238 183
3 240 239 184
3 183 240 184
3 238 240 183
3 241 239 240
3 239 185 184
3 241 242 239
3 242 185 239
3 242 186 185
3 244 243 188
3 186 244 188
3 242 244 186
3 245 243 244
3 243 189 188
3 245 246 243
3 246 189 243
3 246 190 189
3 248 247 192
3 190 248 192
3 246 248 190
3 249 247 248
3 247 193 192
3 251 250 195
3 251 195 193
3 249 251 193
3 247 249 193
3 252 250 251
3 250 196 195
3 252 253 250
3 253 196 250
3 253 197 196
3 198 197 253
3 198 253 254
3 257 256 255
3 259 258 255
3 255 258 257
3 261 260 259
3 259 260 258
3 263 262 261
3 261 262 260
3 265 264 263
3 263 264 262
3 267 266 265
3 265 266 264
3 269 268 267
3 267 268 266
3 269 270 268
3 273 272 271
3 273 271 256
3 256 271 255
3 271 200 255
3 200 201 255
3 255 201 202
3 255 202 259
3 259 202 204
3 259 204 261
3 261 204 206
3 261 206 263
3 263 206 208
3 263 208 265
3 265 208 210
3 265 210 267
3 267 210 212
3 267 212 269
3 275 274 214
3 214 274 212
3 274 270 212
3 270 269 212
3 277 276 275
3 275 276 274
3 277 278 276
3 280 279 217
3 217 279 216
3 218 271 272
3 280 218 272
3 217 218 280
3 271 218 200
3 220 275 214
3 275 220 222
3 281 275 222
3 277 275 281
3 278 277 282
3 277 283 282
3 277 281 283
3 283 284 282
3 279 224 216
3 285 224 279
3 225 281 222
3 281 225 226
3 281 226 283
3 287 286 228
3 228 286 226
3 286 284 226
3 284 283 226
3 289 288 287
3 287 288 286
3 285 229 224
3 290 229 285
3 230 287 228
3 287 230 231
3 287 231 289
3 290 291 229
3 229 291 233
3 235 233 291
3 235 291 292
3 292 293 235
3 235 293 236
3 237 236 293
3 237 293 294
3 294 295 237
3 237 295 238
3 238 296 240
3 295 296 238
3 241 240 296
3 241 296 297
3 297 298 241
3 241 298 242
3 242 299 244
3 298 299 242
3 301 300 245
3 244 301 245
3 299 301 244
3 302 300 301
3 300 246 245
3 302 303 300
3 303 246 300
3 303 248 246
3 249 248 303
3 249 303 304
3 304 305 249
3 249 305 251
3 307 306 252
3 251 307 252
3 305 307 251
3 309 308 306
3 309 306 307
3 310 308 309
3 306 253 252
3 253 306 254
3 306 311 254
3 306 308 311
3 308 310 312
3 313 308 312
3 311 308 313
3 315 314 313
3 315 313 312
3 317 316 314
3 317 314 315
3 320 319 318
3 318 321 320
3 324 323 322
3 256 257 322
3 257 324 322
3 257 325 324
3 326 257 258
3 326 325 257
3 260 318 319
3 326 260 319
3 258 260 326
3 327 321 318
3 260 327 318
3 262 327 260
3 328 262 264
3 328 327 262
3 329 264 266
3 329 328 264
3 330 266 268
3 330 329 266
3 332 331 270
3 331 268 270
3 331 330 268
3 332 333 331
3 336 335 334
3 336 334 323
3 323 334 322
3 334 272 322
3 272 273 322
3 322 273 256
3 274 332 270
3 337 333 332
3 274 337 332
3 276 337 274
3 339 338 278
3 338 276 278
3 338 337 276
3 339 340 338
3 334 335 280
3 335 279 280
3 335 341 279
3 334 280 272
3 282 339 278
3 343 342 284
3 284 342 282
3 342 340 282
3 340 339 282
3 345 344 343
3 343 344 342
3 341 285 279
3 346 285 341
3 286 343 284
3 343 286 288
3 343 288 345
3 348 290 347
3 290 346 347
3 290 285 346
3 349 348 347
3 348 291 290
3 351 350 292
3 351 292 291
3 349 351 291
3 348 349 291
3 352 350 351
3 350 293 292
3 354 353 294
3 354 294 293
3 352 354 293
3 350 352 293
3 356 355 353
3 356 353 354
3 357 355 356
3 353 295 294
3 295 353 296
3 296 353 355
3 359 358 297
3 359 297 296
3 357 359 296
3 355 357 296
3 361 360 358
3 361 358 359
3 362 360 361
3 358 298 297
3 298 358 299
3 299 358 360
3 362 363 360
3 363 299 360
3 363 301 299
3 302 301 363
3 302 363 364
3 364 365 302
3 302 365 303
3 367 366 304
3 303 367 304
3 365 367 303
3 369 368 366
3 369 366 367
3 370 368 369
3 366 305 304
3 305 366 307
3 307 366 368
3 370 371 368
3 371 307 368
3 371 309 307
3 373 372 310
3 309 373 310
3 371 373 309
3 374 372 373
3 372 312 310
3 374 375 372
3 375 312 372
3 375 315 312
3 315 376 317
3 375 376 315
3 379 378 377
3 381 380 377
3 377 380 379
3 383 382 381
3 381 382 380
3 319 320 383
3 320 382 383
3 320 384 382
3 386 385 321
3 385 320 321
3 385 384 320
3 388 387 386
3 386 387 385
3 390 389 388
3 388 389 387
3 390 391 389
3 394 393 392
3 394 392 378
3 378 392 377
3 392 323 377
3 323 324 377
3 377 324 325
3 377 325 381
3 381 325 326
3 381 326 383
3 383 326 319
3 327 386 321
3 386 327 328
3 386 328 388
3 388 328 329
3 388 329 390
3 395 391 390
3 329 395 390
3 330 395 329
3 396 330 331
3 396 395 330
3 398 397 333
3 397 331 333
3 397 396 331
3 398 399 397
3 392 393 336
3 393 335 336
3 393 400 335
3 392 336 323
3 337 398 333
3 401 399 398
3 337 401 398
3 338 401 337
3 403 402 340
3 402 338 340
3 402 401 338
3 403 404 402
3 400 341 335
3 405 341 400
3 342 403 340
3 406 404 403
3 342 406 403
3 344 406 342
3 408 346 407
3 346 405 407
3 346 341 405
3 409 408 407
3 408 347 346
3 411 410 349
3 411 349 347
3 409 411 347
3 408 409 347
3 412 410 411
3 410 351 349
3 414 413 352
3 414 352 351
3 412 414 351
3 410 412 351
3 415 413 414
3 413 354 352
3 415 416 413
3 416 354 413
3 416 356 354
3 418 417 357
3 356 418 357
3 416 418 356
3 420 419 417
3 420 417 418
3 421 419 420
3 417 359 357
3 359 417 361
3 361 417 419
3 423 422 362
3 423 362 361
3 421 423 361
3 419 421 361
3 425 424 422
3 425 422 423
3 426 424 425
3 422 363 362
3 363 422 364
3 422 427 364
3 422 424 427
3 424 426 428
3 429 424 428
3 427 424 429
3 431 430 429
3 431 429 428
3 432 430 431
3 427 365 364
3 365 427 367
3 367 427 429
3 367 429 369
3 369 429 430
3 434 433 370
3 434 370 369
3 432 434 369
3 430 432 369
3 435 433 434
3 433 371 370
3 435 436 433
3 436 371 433
3 436 373 371
3 438 437 374
3 373 438 374
3 436 438 373
3 439 437 438
3 437 375 374
3 439 440 437
3 440 375 437
3 440 376 375
3 441 378 379
3 441 379 442
3 379 443 442
3 379 380 443
3 444 380 382
3 444 443 380
3 445 382 384
3 445 444 382
3 446 384 385
3 446 445 384
3 447 385 387
3 447 446 385
3 448 387 389
3 448 447 387
3 389 391 448
3 448 391 449
3 450 393 394
3 451 450 394
3 451 394 378
3 452 451 378
3 441 452 378
3 452 441 442
3 453 449 391
3 453 391 395
3 454 395 396
3 454 453 395
3 455 396 397
3 455 454 396
3 397 399 455
3 455 399 456
3 458 457 450
3 457 393 450
3 457 400 393
3 458 450 451
3 459 456 399
3 459 399 401
3 461 459 460
3 459 402 460
3 459 401 402
3 404 460 402
3 463 405 462
3 405 457 462
3 405 400 457
3 464 463 462
3 465 461 460
3 465 460 404
3 406 465 404
3 466 465 406
3 463 407 405
3 468 467 409
3 468 409 407
3 464 468 407
3 463 464 407
3 469 467 468
3 467 411 409
3 471 470 412
3 471 412 411
3 469 471 411
3 467 469 411
3 473 472 470
3 473 470 471
3 475 474 472
3 475 472 473
3 477 476 474
3 477 474 475
3 478 476 477
3 470 414 412
3 414 470 415
3 470 479 415
3 470 472 479
3 480 472 474
3 479 472 480
3 481 474 476
3 480 474 481
3 476 478 482
3 483 476 482
3 481 476 483
3 485 484 483
3 485 483 482
3 486 484 485
3 479 416 415
3 416 479 418
3 418 479 480
3 418 480 420
3 420 480 481
3 420 481 421
3 481 487 421
3 481 483 487
3 488 483 484
3 487 483 488
3 484 486 489
3 490 484 489
3 488 484 490
3 492 491 490
3 492 490 489
3 493 491 492
3 487 423 421
3 423 487 425
3 425 487 488
3 425 488 426
3 488 494 426
3 488 490 494
3 495 490 491
3 494 490 495
3 491 493 496
3 491 496 495
3 494 428 426
3 428 494 431
3 431 494 495
3 498 497 432
3 498 432 431
3 496 498 431
3 495 496 431
3 499 497 498
3 497 434 432
3 501 500 435
3 501 435 434
3 499 501 434
3 497 499 434
3 503 502 500
3 503 500 501
3 505 504 502
3 505 502 503
3 500 436 435
3 436 500 438
3 438 500 502
3 438 502 439
3 502 506 439
3 502 504 506
3 506 440 439