OFF
912 1786 0
1.0518757619 6.9370505688 7.6328107205
1.1707864891 6.7695483064 6.8687439243
1.2999455504 6.2979992540 7.2233732455
1.3105072925 6.2401224486 7.9787674977
1.1168851796 6.7899738192 8.3226287057
1.3097365101 6.4412589695 8.6977317537
0.9801701215 7.6061680227 6.9812075026
1.1774405804 7.8375624723 6.0865488341
1.2346262286 7.0455174779 6.3217978074
0.8728256016 7.7624363665 7.8270706707
0.9681144591 7.4583153449 8.3974158946
1.1589509950 7.0998177234 8.9677858416
0.9079184880 8.6462299982 6.7700251502
1.1551589660 8.8502744650 5.9238364863
0.7875271754 8.5544707106 7.6801045446
0.8295434449 8.4437311302 8.6479332509
1.0188019285 7.8947913151 9.1482164796
0.8854855490 9.6835607319 6.6729169500
1.1745987398 9.9069980247 5.8471313839
0.7236678096 9.5587393306 7.5751110345
0.6906005952 9.4965123319 8.5686954938
0.9263759328 8.5832836374 9.4791538881
0.7696112698 9.4517555744 9.6875391311
0.9706294391 8.8667582805 10.2350954150
0.8258230733 9.7099406534 10.8684531097
1.0439565862 8.9892880446 11.1675982271
0.9004346534 9.8134946425 11.8592842356
1.1321968208 9.1214352233 12.1164892265
1.0133332352 9.8922184960 12.6921559931
1.2224660734 9.3730972941 12.8729764609
0.8857714735 10.7399735033 6.6387613950
1.1917559234 10.9986872096 5.8317822812
0.6975380922 10.5995764485 7.5255318254
0.6190150836 10.5393532755 8.4983757090
0.6238127535 10.5237636300 9.5460925336
0.6675221808 10.5681519198 10.6323047491
0.7339151048 10.6288374347 11.6684139511
0.8538186484 10.6329437721 12.5715276293
1.1772883439 9.9243113877 13.2650028362
1.0531297534 10.5527336728 13.2773577307
1.3163273855 10.3179720166 13.7021819867
0.8847246051 11.8115857906 6.6232043291
1.1806251101 12.1054579099 5.8182880596
0.6906052412 11.6527971562 7.5063739246
0.5943442115 11.5851779138 8.4670424027
0.5684928940 11.5645389335 9.4853330336
0.5865236165 11.5665681280 10.5297014832
0.6420935785 11.5699366655 11.5527708244
0.7595102269 11.5335599229 12.4917644521
0.9752244945 11.4035147047 13.2831874964
1.3070684169 11.1025274227 13.8764054925
0.8705400001 12.8929328400 6.5860400630
1.1348071637 13.1641622908 5.7759530338
0.6864033312 12.7137924715 7.4872369354
0.5895442946 12.6335675220 8.4492396761
0.5557643851 12.6055160497 9.4556414972
0.5633568289 12.5970858888 10.4809414617
0.6116436978 12.5836101472 11.4927083174
0.7248612519 12.5295048836 12.4430779802
0.9396953146 12.3846951281 13.2750374982
1.2802777876 12.0962929263 13.9454603627
0.8537105711 14.0183342240 6.4819423930
1.0946300978 13.9541768910 5.6935135870
0.6802631802 13.7796754551 7.4502281393
0.5928234097 13.6791682547 8.4219114285
0.5625227379 13.6368629469 9.4201181259
0.5711265334 13.6205258057 10.4271858713
0.6213596910 13.6103489028 11.4283630837
0.7369584596 13.5625765395 12.3911005164
0.9490367167 13.4199594291 13.2539483415
1.2791401546 13.1335778810 13.9638589906
0.9937935583 14.7529138053 5.9098538189
1.2386544601 14.9191562114 5.3112175617
1.2422723016 14.3470662542 5.3092493203
0.7838471499 15.0017245213 6.7073300780
0.6750344980 14.8069810529 7.4374205654
0.6065091514 14.7028830711 8.3723959089
0.5890095352 14.6501080004 9.3577172596
0.6018767319 14.5977171752 10.3321346186
0.6601034448 14.5987254101 11.2953133896
0.7860771439 14.5902591977 12.2682319391
1.0095318831 14.4782996075 13.1919169505
1.3233616288 14.1975938910 13.9558066345
1.0982132977 15.4265248998 5.6983299419
0.8981475633 15.7703768868 6.4552918461
1.1525314543 16.1761650130 5.8469150315
0.7198986283 15.7397604826 7.3887146610
0.6472455051 15.6533793875 8.2836081162
0.6463979374 15.6230837933 9.2294320449
0.6806754549 15.5655974982 10.2224855433
0.7085176657 15.3799152736 11.0473659839
0.8787385919 15.6428540842 11.9882594188
1.0844916191 15.4700134251 12.9920563698
1.4805144213 15.3932582246 13.9466199268
1.0093342226 16.7056692691 6.5446506085
1.2295054495 16.9164905069 6.0617493112
0.8460222517 16.6044853958 7.2910064985
0.7575717208 16.5382256050 8.1914085100
0.7229663116 16.3790840411 8.9814807696
0.8329105316 16.6099633874 9.9641077033
0.8926048971 16.3391872342 11.1499440940
1.0855979453 16.5605179703 12.0394184878
1.2156453054 16.3610344854 12.7540412837
1.4056714419 16.1569749456 13.4542261951
1.1674597004 17.3148914690 6.5519769955
1.0410531966 17.3413463481 7.1611538234
1.2869153831 17.8071943603 6.9031630099
0.9659926211 17.3538535039 8.0194933846
0.9345803041 17.2576251391 9.0754394932
1.0753856779 17.5126629428 9.9988967605
1.1186535470 17.3053082538 10.8368531748
1.1751324060 17.0942320922 11.6511850881
1.2691928129 18.0143397442 7.6647184238
1.2423396043 18.0622780871 8.6651109566
1.2283807399 17.9949763544 9.5402578432
1.9276062663 5.6667582495 5.6005444942
2.1794440834 5.6408524077 4.8971252623
2.3062210675 5.1363496283 5.2469368283
2.2065767419 4.9142202512 6.0156928329
1.8590869445 5.4082972016 6.4408930816
2.1063528209 4.8416768623 6.9357038800
1.6631626294 5.6024590776 7.3633941171
2.0810776892 4.8432020254 7.9715754808
1.6649590345 5.7002802870 8.6554230633
2.1612846272 4.8374953755 9.1086909509
1.8507325334 5.6490394256 9.8744556860
2.3008337891 4.8395594156 10.2475767036
2.0168052253 5.6307889189 10.9852572838
2.5274579356 4.8096883112 11.4159190707
2.1648107195 5.6778168273 11.9690396474
2.4785990781 5.2029333046 12.2482669658
1.9362746603 6.3126111480 4.9408693032
2.3349616369 6.5223515912 4.1498814720
2.2412492147 5.9238124455 4.5401231933
1.6949442973 6.2706798381 5.5621277075
1.5138244606 6.2168478928 6.3389310621
1.4525511465 6.5945316143 9.5929749030
1.6614724567 6.4999476419 10.7176212313
1.8326145274 6.4806066334 11.7695849923
2.3644846996 5.6596494377 12.6565588554
2.1035955480 6.4109062836 12.7852690269
2.6730725319 5.8533760663 13.3907933267
2.3142664539 6.6170959653 13.5567884147
2.6462729155 6.4791810448 13.9394489904
1.8697751083 7.3220582809 4.6719942077
2.2603417223 7.7135197797 3.9262980978
1.5268830233 6.9889190467 5.5493765784
1.2189776135 7.5696246916 9.7462791815
1.3954544800 7.4103644175 10.5841577933
1.5486349895 7.4055791540 11.6102293969
1.7658385641 7.3995237905 12.6389263211
2.0659519505 7.2983620944 13.4782891310
2.4454277939 7.1083164676 14.0365262094
1.8496559276 8.3880490077 4.5159952805
2.2379140096 8.7892692117 3.8613091228
1.4846563981 8.0695654780 5.2699308273
1.0732958793 8.2343393216 9.8006411813
1.1789371461 8.2205541301 10.4851008536
1.2910734715 8.2610869998 11.4253014862
1.4506323480 8.4820196883 12.5642664751
1.8612890046 8.3702440694 13.5913161576
2.2809709037 7.8907940976 14.1173733128
1.8832150336 9.3556294460 4.4552518250
2.2028271284 9.5961822817 3.9450657251
1.5017563909 9.1179780138 5.1447056429
1.5091403888 9.4778200254 13.5492015734
2.2345820830 8.6059331531 14.2913893527
2.0356627234 9.3424879286 14.2496943135
2.6129107518 9.0035609382 14.6865903549
1.9847130337 10.0563273005 4.3509597058
1.5982295716 10.2233596978 5.0239644064
1.9548954488 10.8289948285 4.4584777050
1.7728710218 10.4463571136 14.2653524344
2.4507825031 9.9865073067 14.7666452087
1.5690959864 11.4059501380 5.1103230168
1.9527990149 11.8116905763 4.4438505215
1.7410736442 11.6268110622 14.4472139831
2.2898927605 11.0667149094 14.8373956310
1.5638998017 12.5801548380 5.0256431482
1.9596561995 12.6280230614 4.3443001264
1.7242614524 12.6904080637 14.5078561701
2.2298185963 12.1325313479 14.9016458999
1.7928166231 13.4076790779 4.4973829707
2.1030063860 13.9253912462 3.8789981687
2.1393483230 13.0780360788 3.9436463813
1.3916279879 13.6498810363 5.1447577441
1.7284356930 13.7350980199 14.5271268578
2.2063530366 13.1529990702 14.9368167483
1.6121889245 14.5716852180 4.6799094857
2.0980841694 15.0084630391 3.8461648180
1.7461746782 14.7387190973 14.5080454792
2.1891022478 14.2120761647 14.9487739096
1.7640989225 15.7756462222 4.5335289862
2.1681206254 16.0630459281 3.8553905263
1.3739587365 15.5811273168 5.1914899731
1.7931806513 15.3704908846 14.5005997582
2.0518317584 15.2433637399 14.7847728308
1.9174655283 16.7537160314 4.5233300892
2.2222362894 16.8714024529 3.9799458103
1.5147249083 16.6558949551 5.3262785669
1.4322735248 17.2628469225 12.4387193941
1.6240099332 16.9446861598 13.3108861440
1.7901880483 16.4727546615 13.9852396929
1.9431429971 15.9326631717 14.4862157328
2.1070304995 17.4050256881 4.4324943034
1.8650465184 17.6685489575 5.1726297427
2.2373561730 18.0849453119 4.6434117945
1.4870074953 17.6501702912 6.1335689289
1.4182879339 18.1985665875 10.4668265040
1.4908078398 17.9118796009 11.6272561488
1.6981650705 17.9719551090 12.3669014241
1.9532737588 17.9119633619 13.0577978114
2.1171159053 17.3876112508 13.8757459689
2.1110848160 18.4486939093 5.2667576658
2.4134684201 18.7353493348 4.9463277169
1.9144875686 18.4622450571 5.9633273917
1.6786940916 18.4993867860 7.0143980958
1.6483593125 18.7224853648 8.2087805534
1.6233549918 18.7444957584 9.4371619955
1.8304674449 19.0663978867 10.4953529013
1.7541177693 18.6966331235 11.2408772715
2.0618048652 18.7577522927 12.2116095940
2.5843701227 18.7910257005 13.1922939194
2.4165364745 18.1302818340 13.7244901263
2.3441206974 19.0303407096 5.6430236230
2.2296159744 19.1869519263 6.5775719535
2.1506414916 19.3377164125 7.6683982959
2.0884052552 19.4487675195 8.8183072203
2.0705846751 19.5384098308 9.8585638217
2.1374692735 19.6616115709 10.6021649229
2.1527801832 19.4676266367 11.3058487191
2.3825760601 20.0242313881 10.9400183832
2.6308937486 19.7542321965 12.0462187468
2.5988923894 19.3546109094 12.6087863424
2.5744410628 20.1053665626 11.4138775171
2.8704233517 3.6486856917 6.5803700170
3.1088425331 3.4955781071 5.7614127998
3.2908865324 3.0526789324 6.2763684162
3.2915252925 2.9352105712 7.1140405516
2.8829765829 3.5121030952 7.6950661827
3.3035034252 2.9170296242 8.1273111763
2.9417075685 3.4854822938 8.6578523794
3.2902416776 3.0236724679 8.9054246320
3.0287964573 4.3593505021 4.5816348421
3.2557063699 4.6954791487 3.8991634253
3.4271206595 3.9468737308 4.2987278366
3.2545975453 3.6718458286 5.0086545899
2.7114084163 4.3229317227 5.4846645016
2.4577126796 4.3417722113 6.4662994378
2.4728085654 4.1811659345 7.3405229613
2.5204926624 4.1240588165 8.3829224538
3.0754612606 3.4120018412 9.3542559160
2.6744475404 4.0520695290 9.4993448565
3.0955269235 3.5706537473 10.1039548080
2.7468206937 4.1951158466 10.5915090054
3.1589779326 3.7438416107 10.9815947186
2.8539817068 4.2129194239 11.1969601262
3.0730408913 4.1393341714 11.6937160147
2.6404780347 5.3167563179 4.3983949461
3.0970121327 5.4108808990 3.6058233022
2.8708716558 4.7048720665 12.3058118029
2.7136294195 5.2332831716 12.8442715083
3.1987232020 4.7909480511 12.9979096459
2.9917366350 5.2577473471 13.2750554959
3.5702554863 5.2078222884 13.6540071295
2.8585421750 6.0810598576 3.5730410892
3.2813186580 6.4267061915 2.9161275642
3.2000165564 5.7866784890 3.2594943110
3.1758500966 6.1024029677 14.0875459207
2.9554261930 6.8122734048 14.3572410698
3.5154156030 6.5090016930 14.4818956506
2.7384109454 7.0830998747 3.3800532697
3.1531291222 7.5502879493 2.7313700338
2.7941123896 7.5924381085 14.4902574184
3.4558013538 7.2119919154 14.6765171614
2.6790751178 8.2066111386 3.2578108863
3.1450793645 8.5806591930 2.6187756594
2.6022506566 8.2877876317 14.5431173686
3.2923648241 8.2556889263 14.8244434779
2.6530130250 9.4876207742 3.2519273255
3.1857323006 9.4191766490 2.5352112528
3.2388844068 9.4161929471 15.0429879772
3.0138941180 10.3682079748 2.7476328323
3.6048746697 10.4850720698 2.2539815437
3.5268093908 9.7148858704 2.2342716937
2.5759774932 10.5546162752 3.3786092106
2.2826670863 10.2925955695 3.8744720567
2.8440305504 10.5170906965 15.1142552680
3.0703768556 11.4082266972 2.6524331727
3.6463265258 11.5420062930 2.2953317129
2.6509257055 11.3397083479 3.2216676366
2.2974989874 11.1899608176 3.8616997827
2.6872646148 11.5476348958 15.1569636085
3.0217972220 12.4339655674 2.6550192855
3.4868170984 12.7553835433 2.3474082893
2.6952069784 12.1333156371 3.0735274407
2.3180757250 12.2107982858 3.7390092637
2.6268812223 12.5287123414 15.1888176826
2.9551007166 13.5336922747 2.6646154097
3.4985628074 13.9185587830 2.2974150394
2.5175565910 13.1122011031 3.2727655034
2.5835289103 13.3972228148 15.2076643354
2.9314533979 14.6188708789 2.6399756039
3.3457018063 14.9155711681 2.3168653496
2.5008769111 14.2806625489 3.1951296863
2.5164168658 14.0248593490 15.1894086301
2.2965572163 14.9179127155 15.0106287942
2.9770999858 15.6148093703 2.6539818197
3.5282521756 15.6577958648 2.2932718603
2.5217539449 15.3693023176 3.1897302589
2.2925387139 16.0620359030 14.7917077005
3.1538294537 16.4820729930 2.6696272433
3.6766146420 16.3975008893 2.3356592389
2.6054298783 16.5152237041 3.3089266880
2.2857473323 16.8511616448 14.4593942017
2.8424207854 17.2402788831 14.7771754604
3.4153658373 17.0179690010 2.6419801714
2.9990972093 17.4846843550 3.2490137094
3.7094925133 17.6069239105 2.8601726088
2.4447369591 17.5108370368 3.9375757377
2.7848996446 17.8679709675 14.3680958301
3.3316873555 17.7633111696 14.8116867093
3.5813985474 17.5672424979 14.9767314184
3.3295692522 18.4345505310 3.5100714212
3.9921035302 18.4316644684 3.2348281583
2.7407087411 18.4601577657 4.1877386965
2.8440141748 18.5250291210 13.8880633810
3.2030544648 18.5327444895 14.2281666393
3.4800601665 18.2264673300 14.5973765337
3.7033990425 19.0031723997 3.6847189210
3.2925844077 19.1641193667 4.1878910138
3.9075089811 19.4813603585 4.1531993846
2.8929842363 19.3254976588 5.0673301437
2.7757264879 19.6390398786 6.1099863432
2.7176510678 19.8457417738 7.1184418311
2.6868769724 20.1099249396 8.3115297152
2.4597906878 20.1015199153 9.4420094622
2.4031666600 20.1068089364 10.3202579465
2.8819062157 19.7296159864 12.5114105838
3.0971419545 19.5086077316 12.9176109634
3.4494249463 19.0515543404 13.6792595363
3.6515326434 18.6818688169 14.2897470014
3.6254746915 19.7309035046 4.8503344943
3.4442080902 19.9539015098 5.7741209752
3.2552738940 20.1079819224 6.6154116892
3.3730122890 20.4343436496 7.5154757494
3.2421877252 20.6812208734 8.3988566115
2.9463849334 20.6854084312 9.2323069702
3.5839700374 21.0537997804 8.8365225388
2.6916684031 20.5237793721 10.0352178852
2.8305199018 20.5634979109 10.8942705977
3.0895230856 20.4226448045 11.6805552519
3.3866180833 20.0759994986 12.3306313094
3.2387237369 21.0388755299 9.3441138383
3.6390579838 21.2053935967 9.0977518452
2.9650703613 20.8454435472 10.1260521575
3.2969149424 20.9536835857 10.9364814914
3.4815314142 20.8842845999 11.3638973876
4.0310426575 2.3947519606 5.4850699356
4.4603036594 2.2650162896 4.9415428067
4.4046458591 1.9828403491 5.4985250729
4.3506751285 1.8804891456 6.1263785941
3.7656184270 2.4305294659 6.4543898195
4.2958547770 1.8043997787 7.1514777542
3.7667985081 2.3329747985 7.6367209846
4.3239079079 1.7880341972 8.2663850833
3.7722713936 2.4305465247 8.8316764558
4.4822331247 1.7952189416 9.4556786466
3.9504910730 2.4474084791 9.9572651802
4.5057049543 2.0226581687 10.5071443493
4.0639854034 2.5838932609 10.8959816958
4.5111103507 2.2305018719 11.2080497576
4.2718882729 3.3321587161 3.7831709773
4.4172745103 3.7224220317 3.3724723320
4.6914253809 3.2744722930 3.5512454231
4.6775669017 2.7411184216 4.1239923023
3.9007377474 3.1308095368 4.5581269755
3.5291835086 2.9869780091 5.5618950370
3.4417696112 2.9780959005 9.6067643137
3.5568377180 3.0876848195 10.5329958955
4.2548288431 2.6263100708 11.5477855854
3.7276323829 3.3183134946 11.6309876551
4.3783058317 2.8833496093 12.1430886041
4.0678506141 3.5671864442 12.5977409314
4.7902699133 3.1447206181 12.7501553977
3.8668998659 4.0380074884 3.6642782579
4.3784491039 4.4381418173 3.0275189838
3.4347389832 4.1201422491 12.4419108528
4.4080383369 3.8147332197 13.1337675622
3.8215359494 4.3008623904 13.1331746413
4.4240213166 4.4369655780 13.5424852569
3.6480322102 5.2645638800 3.1076611359
4.3506304676 5.3072271351 2.5136550910
4.5774517795 5.1875460754 13.9483926681
3.9386652826 6.1626571205 2.3340484103
4.4317937794 6.2295701701 1.8614048458
4.3580042818 5.8040604682 2.1494660523
3.9791338351 5.9200532329 14.2518789934
4.1543193504 6.6692106828 14.5899707492
4.1040159788 7.0522743322 1.8168343745
4.6336727599 7.2762115024 1.4148409394
4.6144332719 6.6763681980 1.5345167821
3.5907340236 7.0342119733 2.3344246728
4.1648075130 7.5813680371 14.8084328619
4.1459957850 7.9501399626 1.6531777126
4.7153202162 7.9313644220 1.4091369593
3.6132669177 7.8645068620 2.1398252864
4.3130367883 8.7178081794 14.9901180444
4.2901275213 8.5430768409 1.6238935403
3.7112836361 8.8107161635 2.0371435317
4.2647191087 9.3586850997 1.8829158003
3.8789285437 9.3761614772 15.1740111520
3.2655251410 10.0668215915 15.2202338632
4.3136283032 10.4223836788 2.0993301182
2.9728019815 11.0176239408 15.2583364308
4.2562448787 11.2077884935 2.2209525301
4.1030886169 12.0518272425 2.3055906274
4.7264696245 11.3577358108 2.4075086856
2.8539352643 11.9858622015 15.2858283499
4.0262554433 13.0562677957 2.2940481382
4.8130818257 12.4381323615 2.5575719207
2.7936687719 12.8532692245 15.3055285757
4.0840836804 13.8381726414 2.2153071647
4.5181734676 13.3970154146 2.3577603666
2.7258325856 13.4482124455 15.3002190972
3.9799508574 14.7308309660 2.1688892349
4.6093265520 14.1449096504 2.2733390219
4.2303193454 15.7144007660 2.1771065606
4.1302895228 16.4522670130 2.2836014902
3.8093288815 16.9148486855 2.4547132347
4.3176181614 16.9473876107 2.5138096525
4.5090555083 17.6666721028 2.8723964172
4.1399449774 17.4263626830 15.0412667188
4.0894879622 17.7762557816 14.8580405163
4.7106808044 18.3960609488 3.2315167507
4.0016682590 18.4058044571 14.5345829633
4.3916430446 19.0561594095 3.6896300949
4.5114232596 19.5341984476 4.2201965087
4.2721850572 19.3209480117 13.5009097015
3.9169562213 19.7010450763 12.9617404517
4.2652325243 18.8258592856 14.0676977241
4.3045005354 19.8307252904 4.7128194456
4.2265171643 20.0762829362 5.5438034447
4.1038971357 20.3935641241 6.7023037279
3.9982447830 20.7258114956 7.4959281484
4.4637995750 20.7351587878 7.4012282282
3.7794452486 20.8790333339 8.1049418952
4.4590211511 20.2670244393 12.1385256196
3.8030581746 20.6754162790 11.7645984940
4.3547115297 20.9376731039 7.9172432203
4.2695903239 21.1080914655 8.5648591609
4.2118866537 21.2350850428 9.0864654951
3.9419444798 20.9853125477 11.4575392692
3.9819544240 21.0805049114 11.1901138308
4.9325400883 1.6487207956 5.6247896387
5.4112832581 1.6326451886 5.1077529586
5.6362260860 1.3899158621 5.7465620605
5.4760572600 1.2667058088 6.5712728579
4.8702798774 1.4340862762 6.7726350533
5.4269692578 1.1858826343 7.5807064651
4.8594748263 1.3714405440 7.8346526712
5.4245030611 1.1714484133 8.5873475814
4.9138125481 1.3678632276 8.8506004646
5.4360035104 1.1997336233 9.4878749181
5.0386701422 1.3622998479 9.6249845701
5.3877870431 1.2819486886 10.1121334301
5.0543758187 2.0415104681 4.6964788535
5.3780455216 2.4589424023 4.1783841327
5.6065122135 1.9371219268 4.6539944940
5.0074724418 1.5502719890 10.2911849774
5.1044570714 1.8503380599 11.2649271157
4.6976866275 2.3359937769 11.7784222693
5.1400050079 2.2011058447 12.0028858017
4.8584623057 2.5689172445 12.2886035195
5.3280028683 2.5602790023 12.4537623136
5.0067947484 3.7955204497 3.2005824223
5.2026570364 3.0714393956 3.6741922678
5.5268022624 3.1414897730 12.8560093544
5.0623278011 4.7632717487 2.6547121253
5.0536538942 3.7807427512 13.2434246810
5.2174827654 4.5109731018 13.6105784252
4.8083085243 5.5677336500 2.0856575521
5.2501180530 5.6801544895 1.9004145618
5.3251093196 5.2813545943 2.2424373723
5.3124357736 5.2046873097 13.8769933418
4.9434829374 6.1303179007 1.6676829619
5.1021514988 6.6764168825 1.4129967261
5.5241475610 6.0977063791 1.7342112414
4.9754322910 6.0652101830 14.2088385975
4.8325484249 6.9690942904 14.5623707568
5.2596728435 7.2814439211 1.3202327814
4.9098688928 7.8356755897 14.6893434031
5.3055503773 7.9257493709 1.4908210699
4.7339573620 8.5090627039 1.5550268782
5.1128308434 8.7398808009 1.7765874914
5.1410797169 8.6001658738 14.7113279406
4.9405792943 9.5439123784 2.0124161283
4.6521924435 9.3444179610 15.1186827633
5.1884936980 9.3895740608 14.9063443983
4.9276534605 10.1445058667 2.1827184781
4.6881165228 10.7031240325 2.2412664595
5.2856944960 10.4355285964 2.4765398188
5.2398277807 9.8499490692 15.0667265336
5.4708594118 9.9949448423 14.9672556845
5.4049588332 11.3520652729 2.7917232157
5.7137070808 10.5198693761 14.9355658184
5.4206558088 12.0807194565 2.9128798694
5.4213794580 12.6731804025 2.8782299085
5.8853945023 12.2444786227 3.1796123201
5.2802035168 13.5515787344 2.6350233856
5.9374413310 13.0152337443 3.0915812032
4.7222405631 14.9528788446 2.2031849740
5.1678825970 14.4545538512 2.3940627008
5.4390000949 15.1256208897 15.1821503684
5.6160352962 14.6641094055 15.1416115823
5.6106085211 15.0670521029 15.0273700138
4.8883232640 15.5697408051 2.2358656405
5.2655595870 15.7674791188 15.1118279516
5.3819205122 16.0820539246 14.9195967213
4.6866194245 16.2086441276 2.3193725060
5.1730052227 16.6894702380 2.6971371275
4.8122108529 16.8957109990 14.9896333489
5.2276858665 16.8228125683 14.8009918929
5.3431152562 17.6731464356 3.1237016891
4.9056357689 17.4681019640 14.7215474041
5.4147655934 17.1619749120 14.5239442372
5.2980231766 17.8083773162 14.2873211498
5.2476178479 18.3814143865 3.3752907987
4.6072627524 18.1897172987 14.4730820592
5.0674936951 18.5477190931 13.9648472669
4.9925670360 18.8022006090 3.5777588110
4.8578997924 19.7000434523 4.6320725606
5.2859674479 19.1809447972 4.2643382674
5.3505825905 19.6419012262 4.9906470882
4.8247483807 19.1026039048 13.6088616263
4.8927322331 19.5888880876 12.9372448719
4.9066040844 19.9352998414 5.2618254209
5.0974883317 20.1517564398 6.2585321138
4.8039009567 20.8388390402 7.7683625352
5.0651355986 20.5137970433 7.3042763707
5.2200713490 20.7386976484 8.0243798165
4.4683298134 20.8895956199 11.3535274584
5.2558510293 20.4966766689 11.2259241610
5.0080654937 20.9587295678 10.7805290801
5.3991535373 19.9431788792 12.0805450545
4.8440502745 20.9835912847 8.3441637235
4.7326170368 21.2378171254 9.7601081787
4.8850142136 21.1100290118 9.1733865489
4.6793459467 21.1448254169 10.6587550172
5.0668301747 21.0855275652 10.0906219919
5.8645394092 1.6395708174 5.2080138781
6.0750382404 1.5144178155 5.8375011993
6.0153574649 1.3639812555 6.5372040727
5.9634963057 1.2832283726 7.4653989341
5.9418761202 1.2549487561 8.4647160097
5.9233554461 1.2680139496 9.4420171790
5.8563472005 1.3181041912 10.3623222588
5.5253726590 1.4156085404 10.7776209912
5.9109691186 1.4367984074 11.0865856153
5.6880675835 1.5922048831 11.3737900737
5.9933371581 1.6854688893 11.5330515779
5.8599032352 2.3442588046 4.4165011230
6.0205894236 2.0258710577 4.8449465418
5.6623464082 2.0229897721 11.9118266684
5.9030545220 2.6341494276 12.4029590878
5.5851843634 3.5075444155 3.4703284422
5.8559339805 3.0129510045 4.0184311819
6.0038139776 3.1420196720 12.6982543027
5.6680276024 4.2004996360 3.1719685361
6.0119938038 3.7568371552 3.6876444386
5.9626864475 3.8618036670 13.0171815679
5.8937632461 4.8348773816 13.4693461801
5.6090290568 5.5510805699 2.1169876382
5.8042337595 5.1000650472 2.7270548927
5.7749436784 5.6508980966 13.7107563951
5.6389020152 6.7121023939 1.4887741993
5.9544299541 6.3992346321 1.8912685560
5.9853292597 5.8747646847 2.3166398237
5.7410400551 6.6010964021 13.8123354734
6.1687871169 6.0606614231 13.3482565835
6.2403232921 6.6083549774 13.1863401079
5.2634184380 6.6748689744 14.2868978650
5.7172090100 7.1355152248 1.4282525714
5.5720950990 7.4314399202 1.3775074882
5.8191948087 7.5108280404 1.6539061820
6.1550310680 7.3249645350 13.3001851017
6.4755150605 6.9680561791 12.7859528335
6.4997873708 7.5524801434 12.7574713720
5.7727970567 7.4643352690 13.9047610684
5.3683923831 7.2352656077 14.3135259276
5.5580249874 9.0031614716 2.1393318245
5.7270554061 8.1985989105 1.9225147324
6.0258194471 8.5648603029 2.4068132379
6.3331995837 7.9804227477 13.1136213820
6.3488226414 8.5294086668 13.2891460096
6.0070495023 8.1877045488 13.7099704712
5.5064330437 8.0479140970 14.3168905434
5.3561454517 9.6957923831 2.2633969180
5.8932511528 9.4727338638 2.6334742125
6.1755385791 8.9364016469 13.7294514505
6.2238238635 9.6912519882 13.9851854199
5.7275976783 9.0028302396 14.3268045694
5.9161563845 10.4132425074 2.9413152205
5.8092331404 10.0452409583 14.6427774508
6.2821150912 10.4934243184 14.2543822336
5.9898225730 11.0790471413 3.1531841410
5.7949353686 11.6550256277 3.1121292349
6.3680458907 11.4873866339 3.4978610057
6.0955994807 10.9913700287 14.6849319126
6.0371666634 11.5248381115 14.9003788018
6.2687350399 11.9453352606 14.6980467823
6.5458601278 12.5147811561 3.5640233891
6.1237229030 12.5839990443 14.9079580775
6.2939204178 12.9780320992 14.6936934164
6.1363635099 13.7880948666 3.0247788049
6.4723254619 13.2924182793 3.3405304443
5.9605467679 13.9217655009 14.9429776701
6.2529749493 13.8051513934 14.6514791190
5.3499529739 15.1506598210 2.4163679502
5.7836488393 14.5132488897 2.7152334459
6.0526424739 14.5831361069 14.7051199899
6.4106230968 14.2248758170 14.3575036704
6.3483549218 15.0377926823 14.2297278772
5.2648093080 15.8447327176 2.4454586276
5.9914455821 15.6190258707 2.9032993696
5.8637623319 15.5391673864 14.6400069568
6.2124397136 16.0629323784 14.0973604872
5.9640402744 16.7821971185 3.1684022533
5.6712179958 16.4726266764 14.5469904643
5.9276218772 17.1629456979 14.0094883378
5.9870087799 17.4679754952 3.4047475888
5.8018453552 18.1086790550 3.6143821259
6.2772866850 17.6448714800 3.7590281176
5.7406367283 18.1392144684 13.7106167779
5.4332342768 18.6687598277 3.7140549277
6.3922036756 18.0777211973 4.2582603662
5.8370471677 18.6039236702 4.0645940916
6.1907143230 18.7600690544 4.6846742179
5.5152608071 18.9328463872 13.3068149623
6.0666225527 18.4731216832 13.1410010014
6.0303140515 18.9375271886 12.8005563741
5.6123461443 19.7900114923 5.7061441843
6.0385753382 19.2948361141 5.2788283673
5.8536864335 19.8870844948 6.4014516708
6.2668684654 19.5081878434 6.1587893317
6.2905136421 19.6796706415 6.8248720634
5.6990723932 19.4215067071 12.6197297161
6.1553161757 19.1735337832 12.3079484224
5.9557370335 19.5887139475 12.0039173814
5.8047520569 20.0697703297 7.0788849806
5.4096944241 20.7687844240 8.7261305538
5.8020595370 20.3098398359 8.0637054943
5.4801452016 20.7870884858 9.6446246361
5.9475386387 20.3213727435 9.1214130282
5.3855857251 20.7851258550 10.4252138469
5.8825630208 20.2626207321 10.2513128984
5.9249491949 19.8898124953 11.2913007933
6.3059791252 2.0180395056 5.5443428304
6.3850513918 1.8029816618 6.4779337627
6.3800402692 1.6974148646 7.4155438816
6.3664911458 1.6488118148 8.4023544770
6.3513871730 1.6382815985 9.3894978298
6.3010148439 1.6530119837 10.3316724613
6.1924262986 1.6661431199 11.1125530495
6.2853389699 2.6722030792 4.8313161943
6.5729278854 2.7135322897 5.6517605347
6.6256025576 2.5106503980 6.4100003136
6.6512976804 2.3925822142 7.3676392723
6.6543407930 2.3172565768 8.3599566522
6.6507569300 2.2597706975 9.3229170374
6.6277485206 2.2682403015 10.2647080487
6.4957622480 2.2790863304 11.1773672749
6.1817827393 2.1622443042 11.7973938593
6.4020121779 3.7274258907 4.4450567365
6.6477140472 3.4224266914 5.3960562613
6.7828478342 3.3479206516 6.3037073085
6.8321779278 3.2823364683 7.2852687341
6.8406140895 3.1731517646 8.3005443476
6.8490433750 3.0720365875 9.2808126001
6.8275963958 2.9086000089 10.0699630580
6.8332278125 3.1714190756 11.0200814636
6.4454135485 3.1079471111 12.1267104471
6.2784592017 4.6243532558 3.6957017706
6.6316564355 4.6580598730 4.5773046948
6.7615459794 4.3399937799 5.3089235804
6.8596633662 4.0791734544 6.0632736889
7.0131036495 4.3951423697 7.1213860471
7.0002264417 4.1077830900 8.1978376129
7.0064446268 3.9841341919 9.1889821609
7.0244226889 3.8353263307 10.2321973525
7.0999349011 4.0374929814 11.0976154945
6.9682313864 3.8765863098 11.7623482771
6.7242991827 4.0732556960 12.4654767762
6.5109970394 4.6508166901 12.9283676337
6.9362720050 4.6708668768 12.4802072092
6.3945037590 5.8012142475 3.2917566566
6.6688828139 5.4939959177 4.3424141216
6.8598654794 5.3099677921 5.2678513828
7.0103693992 5.0597306781 6.2526192859
7.1810506478 5.2824242566 7.0964745216
7.2223228196 5.1992251566 7.6203018100
7.3352605610 5.5915699135 8.1432854417
7.1800010430 4.9579795209 8.1611197203
7.1664264839 4.8396745094 9.0219132567
7.1808719038 4.7389866270 9.8974614525
7.2378313860 4.7848702460 10.7643802273
6.8632187041 5.3260626666 12.5266171156
7.1294148680 4.9934892329 12.1452394549
7.1559124124 5.4618620019 11.9570717542
6.3435433885 5.4139151400 13.1706894210
6.0115398918 6.9585561489 1.8104425405
6.3130362727 6.6571007049 2.5689599244
6.6105743756 6.7355540997 3.4709211569
6.7465077916 6.4754556127 4.2218199245
6.9131274233 6.2986437839 5.1353501368
7.0847310785 6.1276262371 6.0454992559
7.2507832341 5.9915157264 6.9007016000
7.3413029832 5.6015088665 8.8540197675
7.3161864534 5.4611436094 9.7205552577
7.2940042733 5.2499743841 10.2737190787
7.2494132343 6.5971060871 11.2825247155
7.0293200248 6.0981695828 12.0140521398
7.2509174476 5.8264242218 11.4823988562
6.5941394001 6.2163243799 12.7360287835
6.1992766405 7.6808527345 2.3463020777
6.5762219427 7.5493345412 3.2563820532
6.7976937140 7.3966196950 4.1295106408
6.9561335512 7.2716616038 4.9894734945
7.1353675087 7.1508376710 5.8919374660
7.3228719117 6.9542173717 6.7781169495
6.8850818957 7.2102237158 12.1307294111
7.3395977974 7.6215766486 11.1564894877
6.4283937127 8.6733582011 3.1013940741
6.8035375803 8.3713269197 4.0224958482
6.9715984670 8.0649251960 4.7666317233
7.1852743099 8.2175664841 5.6487686206
7.3819864888 7.9679025373 6.6166330701
7.1585518241 8.3524604320 11.8812250335
7.5296950090 8.5919492731 11.0987791009
6.6871417159 8.3071476938 12.6866894925
6.3344062327 9.7071248948 3.1987268934
6.7782906751 9.5751257527 3.9176864993
7.1084112686 9.0307783799 4.9198615512
7.3498684704 9.1280745167 5.7938052613
7.4367004563 8.8102577560 6.3914229473
7.4080233451 9.0780775306 11.7725548051
7.5107800610 9.8630070363 12.0457793750
7.0581301062 9.3330782782 12.5506528790
6.5475838886 9.1988554046 13.2887370460
6.4136514842 10.4895702770 3.4459123985
6.8873176592 10.7337726785 4.0469786851
7.2090914875 10.1078974095 4.7570644619
7.3856412711 9.7237678584 5.4900376218
7.2446868333 10.2516794368 12.6967789869
7.2285262606 11.0506810536 12.9868801699
6.7620061891 10.3600193650 13.4821075533
6.9859251848 11.7295690562 4.0804918037
6.9015388048 11.5867150845 13.6550515821
7.2641339683 11.9662353906 13.0742544757
6.4923690752 11.2848141355 14.2290790607
7.1204221612 12.5379460002 4.1168589393
6.9598805262 12.5898266351 13.6708603680
7.2863060600 12.8840377451 13.0344722109
6.5958130783 12.2929275763 14.2540262415
6.6768003935 13.8102716242 3.3671929972
6.9931005734 13.3446604802 3.8226536485
6.9998235824 13.4162610493 13.5689759697
7.2495383105 13.8368539725 13.0146869811
6.6197590581 13.3780390973 14.1918378212
6.5544702900 14.5511887251 3.2242599754
7.0089329219 14.1117238541 3.6745479529
6.8069641292 14.3322074593 13.7436192483
7.1839719543 14.8525916858 12.9812563224
6.7531499008 15.3137770565 3.4513327547
6.6551922364 16.1693790886 3.5912564886
7.0946199571 16.1678604145 4.1626014204
7.1197878758 15.5506607781 3.9765987294
7.3342593614 15.8654059269 4.5170300475
6.7436767356 15.4855282301 13.5797878255
7.1232655807 15.8671452127 12.8499906254
6.4345544962 17.0522683047 3.6468382509
6.8834975955 16.8049520706 4.1332340131
7.2528629532 16.5586037799 4.7137463707
6.6409995104 16.6515170634 13.3327180289
7.0780965716 16.6499245364 12.6165815768
6.6310963244 17.4251325595 4.0820428420
6.9849047480 17.4782824006 4.7472515728
7.1413621512 18.2381471615 8.8893510306
7.4021872029 17.6164942750 8.2745507002
7.2253110006 18.2806413470 7.9530184820
7.0935987258 18.1032737838 9.8555081378
7.3780096784 17.4224402847 9.0792952483
7.0528885403 17.9559388052 10.8128479202
7.3405603183 17.2975853746 10.0673390425
6.9645040495 17.7812260377 11.7389800579
7.2942920820 17.1730940239 11.0442125401
6.8227073652 17.4133951143 12.5933467099
7.2099813249 16.9643070640 11.9367445438
6.3238099781 17.7414243762 13.2452143801
6.5957905694 18.8298422610 5.3121409833
6.7800974632 18.3136735813 5.0342357920
6.9599884454 18.5614338495 5.6274101903
6.8111449394 19.0830383702 8.5339961554
6.9682334416 18.9111849374 7.6078655296
6.8021348516 18.9057832961 9.6326836446
6.7735104089 18.7175375094 10.6282574253
6.7585832448 18.4609961042 11.4391785492
6.4803716658 18.4413594641 12.3891119535
6.7019373934 19.0098875107 5.9138059799
6.4605818787 19.6060689065 7.6457114340
6.7939120824 19.1169702454 6.7936477336
6.3450311210 19.8336462009 8.5634160408
6.4159178911 19.6831489123 9.4336630568
6.4057126788 19.4856076961 10.4714868145
6.3892684690 19.1683588547 11.5283260662
7.1977242965 4.4687914410 11.4772684526
7.1092880113 4.5104991173 12.0285223349
7.3489622362 5.8478868880 7.6348073770
7.2617989640 5.1251693799 11.5243311494
7.4653945529 6.7256922084 7.6299677544
7.4936986523 6.3902794400 8.5182032911
7.4665916282 6.2643027414 9.5808174048
7.3548903064 5.8123525690 10.6306926049
7.5546584038 7.7488072590 7.5407816228
7.6414535883 7.4765093128 8.4668056211
7.6162571929 7.2332190940 9.4189474655
7.4763073645 6.9404467453 10.3802205683
7.6332710820 8.8939839926 7.3593621304
7.7363339663 8.5130015538 8.3954601674
7.7517788808 8.2688575118 9.3378570809
7.6236206917 7.9876303508 10.2704776635
7.6163852650 9.8388890862 6.4961801320
7.7716366766 9.9115168786 7.6375021234
7.8159006988 9.5533432792 8.4574195573
7.8393308549 9.1672972123 9.2207046738
7.8249616874 9.1816174639 10.2424180253
7.6762364900 9.3203978687 11.2749497726
7.8594315412 9.3624945018 10.6538009226
7.6837496646 9.8954426194 11.7415006649
7.3476011826 11.1197410002 4.7679609431
7.5554204181 10.5560438258 5.5684464830
7.8210999920 11.0620622652 6.4296914739
7.8341419584 10.7892896663 7.4364402475
7.8706799169 10.6053252253 8.5126732975
7.9083162154 10.2808515642 9.6573617133
7.9454326354 9.9579672212 10.1871999522
7.9275138154 9.5323538861 10.3799223525
7.5289826772 10.7530198457 12.3366123895
7.7151230288 10.5782732441 11.8417441029
7.4401335226 12.1213353983 4.7474509114
7.7434289197 11.6509870253 5.7090277346
7.9005066265 11.4849392947 6.2026414636
7.9363712033 11.5332400252 6.5960565519
7.9511880788 11.9001034764 6.6343178296
7.9153864687 11.8470131607 7.2454769590
7.8955009280 11.6617859287 8.4263922549
7.8993380247 11.5213572336 9.5384334697
7.9435342474 10.7058847541 10.4316113326
7.8845649705 11.4301726110 10.6728009201
7.7291765489 11.4174246051 11.8026188484
7.8667452806 11.0442138296 11.1957006548
7.4977591188 11.4750065982 12.5390966299
7.4403787359 13.1066811962 4.6199013489
7.7140610106 12.7938099896 5.5317156867
7.9153235020 11.8518027459 6.2409027414
7.8882701035 12.5086363519 6.5748782117
7.9064474505 12.8709074087 7.6179023802
7.8995181935 12.7096340467 8.4360951284
7.8829064961 12.6060832126 9.4716290355
7.8506564466 12.5099675149 10.5251388844
7.7491566648 12.3895072267 11.5369291364
7.5476768771 12.2300884800 12.4015579195
7.3880209900 14.1613102306 4.4145918465
7.6786189590 13.8788749204 5.4058567417
7.8258824636 13.6991713920 6.4165250366
7.8777469738 13.6817180765 7.4572012516
7.8775440608 13.7035580588 8.4611077474
7.8612099168 13.6454729735 9.4534617810
7.8223037451 13.5604738380 10.4642146204
7.7278141887 13.4166039897 11.4335117328
7.5456656613 13.1873181866 12.3045211910
7.1108252683 14.7846727496 3.8273372397
7.4153175406 15.1840688874 4.5321335408
7.6376066891 14.9328330683 5.3497449172
7.7785789101 14.7606196482 6.3258281599
7.8285006476 14.6926403825 7.3535080514
7.8324039862 14.6763413586 8.3974585023
7.8186171068 14.6484837261 9.4265353977
7.7829392499 14.5796380721 10.4305424410
7.6935525329 14.4407354232 11.3852114219
7.5145917738 14.1961492357 12.2547538829
7.5336855010 16.0048149885 5.2989902501
7.7133433505 15.7618846898 6.2602926615
7.7611775472 15.6804046135 7.2386461105
7.7496413663 15.6649420534 8.2923503234
7.7315236755 15.6147928651 9.3521589034
7.7014921109 15.5494026593 10.3714620557
7.6284257990 15.4233377635 11.3277118351
7.4644654514 15.2000570678 12.1955476479
7.3957312220 17.0866726599 5.4951435261
7.6024388628 16.7501818089 6.2976058596
7.6845494884 16.4730539933 7.0517297760
7.6115588361 16.7000097751 8.0855690734
7.5828185458 16.5444948315 9.2157059377
7.5520777051 16.4544539676 10.2506388036
7.4985510270 16.3333351466 11.2203868920
7.3790037059 16.1268951167 12.0826322349
7.1903960600 17.9679924686 5.5847392821
7.4220964010 17.7019192969 6.3388816203
7.5090077379 17.4244487434 7.3077568889
7.1357545209 18.4884658044 6.2344672450
7.2462240866 18.3476648884 7.0546862017
3 2 1 0
3 4 3 0
3 0 3 2
3 4 5 3
3 8 7 6
3 8 6 1
3 6 0 1
3 6 9 0
3 0 10 4
3 0 9 10
3 5 4 11
3 11 4 10
3 6 7 12
3 12 7 13
3 6 14 9
3 6 12 14
3 9 15 10
3 9 14 15
3 11 10 16
3 16 10 15
3 12 13 17
3 17 13 18
3 12 19 14
3 12 17 19
3 14 20 15
3 14 19 20
3 16 15 21
3 15 22 21
3 15 20 22
3 24 23 22
3 22 23 21
3 26 25 24
3 24 25 23
3 28 27 26
3 26 27 25
3 28 29 27
3 17 18 30
3 30 18 31
3 17 32 19
3 17 30 32
3 19 33 20
3 19 32 33
3 20 34 22
3 20 33 34
3 22 35 24
3 22 34 35
3 24 36 26
3 24 35 36
3 26 37 28
3 26 36 37
3 29 28 38
3 28 39 38
3 28 37 39
3 39 40 38
3 30 31 41
3 41 31 42
3 30 43 32
3 30 41 43
3 32 44 33
3 32 43 44
3 33 45 34
3 33 44 45
3 34 46 35
3 34 45 46
3 35 47 36
3 35 46 47
3 36 48 37
3 36 47 48
3 37 49 39
3 37 48 49
3 40 39 50
3 50 39 49
3 41 42 51
3 51 42 52
3 41 53 43
3 41 51 53
3 43 54 44
3 43 53 54
3 44 55 45
3 44 54 55
3 45 56 46
3 45 55 56
3 46 57 47
3 46 56 57
3 47 58 48
3 47 57 58
3 48 59 49
3 48 58 59
3 50 49 60
3 60 49 59
3 51 52 61
3 61 52 62
3 51 63 53
3 51 61 63
3 53 64 54
3 53 63 64
3 54 65 55
3 54 64 65
3 55 66 56
3 55 65 66
3 56 67 57
3 56 66 67
3 57 68 58
3 57 67 68
3 58 69 59
3 58 68 69
3 60 59 70
3 70 59 69
3 73 72 71
3 73 71 62
3 71 61 62
3 71 74 61
3 61 75 63
3 61 74 75
3 63 76 64
3 63 75 76
3 64 77 65
3 64 76 77
3 65 78 66
3 65 77 78
3 66 79 67
3 66 78 79
3 67 80 68
3 67 79 80
3 68 81 69
3 68 80 81
3 70 69 82
3 82 69 81
3 72 83 71
3 85 84 83
3 84 71 83
3 84 74 71
3 74 86 75
3 74 84 86
3 75 87 76
3 75 86 87
3 76 88 77
3 76 87 88
3 77 89 78
3 77 88 89
3 78 90 79
3 78 89 90
3 79 91 80
3 79 90 91
3 80 92 81
3 80 91 92
3 82 81 93
3 93 81 92
3 84 85 94
3 94 85 95
3 84 96 86
3 84 94 96
3 86 97 87
3 86 96 97
3 87 98 88
3 87 97 98
3 88 99 89
3 88 98 99
3 89 100 90
3 89 99 100
3 102 91 101
3 91 100 101
3 91 90 100
3 91 102 92
3 92 102 103
3 92 103 93
3 95 104 94
3 106 105 104
3 105 94 104
3 105 96 94
3 96 107 97
3 96 105 107
3 97 108 98
3 97 107 108
3 110 99 109
3 99 108 109
3 99 98 108
3 99 110 100
3 100 110 111
3 100 111 101
3 106 112 105
3 105 112 107
3 107 112 113
3 107 113 108
3 108 113 114
3 108 114 109
3 117 116 115
3 119 118 115
3 115 118 117
3 121 120 119
3 119 120 118
3 123 122 121
3 121 122 120
3 125 124 123
3 123 124 122
3 127 126 125
3 125 126 124
3 129 128 127
3 127 128 126
3 129 130 128
3 133 132 131
3 133 131 116
3 131 115 116
3 131 134 115
3 115 135 119
3 115 134 135
3 135 1 2
3 121 135 2
3 119 135 121
3 121 2 3
3 121 3 123
3 123 3 5
3 136 123 5
3 125 123 136
3 125 137 127
3 125 136 137
3 127 138 129
3 127 137 138
3 130 129 139
3 129 140 139
3 129 138 140
3 142 141 140
3 140 141 139
3 142 143 141
3 131 132 144
3 144 132 145
3 131 146 134
3 131 144 146
3 146 7 8
3 135 146 8
3 134 146 135
3 135 8 1
3 11 147 136
3 11 136 5
3 136 148 137
3 136 147 148
3 137 149 138
3 137 148 149
3 138 150 140
3 138 149 150
3 140 151 142
3 140 150 151
3 143 142 152
3 152 142 151
3 144 145 153
3 153 145 154
3 144 155 146
3 144 153 155
3 155 13 7
3 155 7 146
3 16 156 147
3 16 147 11
3 147 157 148
3 147 156 157
3 148 158 149
3 148 157 158
3 149 159 150
3 149 158 159
3 150 160 151
3 150 159 160
3 152 151 161
3 161 151 160
3 153 154 162
3 162 154 163
3 153 164 155
3 153 162 164
3 164 18 13
3 164 13 155
3 21 156 16
3 156 21 23
3 156 23 157
3 157 23 25
3 157 25 158
3 158 25 27
3 158 27 159
3 159 27 29
3 165 159 29
3 160 159 165
3 161 160 166
3 160 167 166
3 160 165 167
3 167 168 166
3 163 169 162
3 171 170 169
3 170 162 169
3 170 164 162
3 170 31 18
3 170 18 164
3 38 165 29
3 165 38 40
3 172 165 40
3 167 165 172
3 168 167 173
3 173 167 172
3 170 171 174
3 174 171 175
3 174 42 31
3 174 31 170
3 50 176 172
3 50 172 40
3 173 172 177
3 177 172 176
3 174 175 178
3 178 175 179
3 178 52 42
3 178 42 174
3 60 180 176
3 60 176 50
3 177 176 181
3 181 176 180
3 184 183 182
3 184 182 179
3 182 178 179
3 182 185 178
3 185 62 52
3 185 52 178
3 70 186 180
3 70 180 60
3 181 180 187
3 187 180 186
3 182 183 188
3 188 183 189
3 188 72 73
3 185 188 73
3 182 188 185
3 185 73 62
3 82 190 186
3 82 186 70
3 187 186 191
3 191 186 190
3 188 189 192
3 192 189 193
3 194 83 72
3 188 194 72
3 192 194 188
3 194 85 83
3 93 195 190
3 93 190 82
3 191 190 196
3 196 190 195
3 192 193 197
3 197 193 198
3 192 199 194
3 192 197 199
3 199 95 85
3 199 85 194
3 101 200 102
3 201 103 102
3 201 102 200
3 201 202 103
3 103 202 93
3 202 203 93
3 203 195 93
3 195 203 196
3 198 204 197
3 206 205 204
3 205 197 204
3 205 199 197
3 207 104 95
3 199 207 95
3 205 207 199
3 207 106 104
3 109 208 110
3 209 111 110
3 209 110 208
3 200 101 111
3 209 200 111
3 210 200 209
3 200 211 201
3 200 210 211
3 202 201 212
3 212 201 211
3 205 206 213
3 213 206 214
3 205 215 207
3 205 213 215
3 216 112 106
3 207 216 106
3 215 216 207
3 217 113 112
3 217 112 216
3 218 114 113
3 218 113 217
3 208 109 114
3 218 208 114
3 219 208 218
3 208 220 209
3 208 219 220
3 209 221 210
3 209 220 221
3 223 211 222
3 211 221 222
3 211 210 221
3 211 223 212
3 214 224 213
3 213 224 215
3 215 224 225
3 215 225 216
3 216 225 226
3 216 226 217
3 217 226 227
3 217 227 218
3 218 227 228
3 218 228 219
3 219 228 229
3 231 230 229
3 230 219 229
3 230 220 219
3 233 221 232
3 221 230 232
3 221 220 230
3 221 233 222
3 231 234 230
3 230 234 232
3 237 236 235
3 239 238 235
3 235 238 237
3 241 240 239
3 239 240 238
3 241 242 240
3 245 244 243
3 247 246 243
3 243 246 245
3 246 247 236
3 247 235 236
3 247 248 235
3 235 249 239
3 235 248 249
3 239 250 241
3 239 249 250
3 242 241 251
3 241 252 251
3 241 250 252
3 254 253 252
3 252 253 251
3 256 255 254
3 254 255 253
3 256 257 255
3 243 244 258
3 258 244 259
3 258 116 117
3 247 258 117
3 243 258 247
3 247 117 118
3 247 118 248
3 248 118 120
3 248 120 249
3 249 120 122
3 249 122 250
3 250 122 124
3 250 124 252
3 252 124 126
3 252 126 254
3 254 126 128
3 254 128 256
3 261 260 130
3 130 260 128
3 260 257 128
3 257 256 128
3 263 262 261
3 261 262 260
3 263 264 262
3 267 266 265
3 267 265 259
3 259 265 258
3 265 132 258
3 132 133 258
3 258 133 116
3 139 261 130
3 261 139 141
3 261 141 263
3 269 268 143
3 143 268 141
3 268 264 141
3 264 263 141
3 269 270 268
3 265 266 271
3 271 266 272
3 271 145 132
3 271 132 265
3 152 273 269
3 152 269 143
3 270 269 274
3 274 269 273
3 271 272 275
3 275 272 276
3 275 154 145
3 275 145 271
3 161 277 273
3 161 273 152
3 274 273 278
3 278 273 277
3 275 276 279
3 279 276 280
3 279 163 154
3 279 154 275
3 166 277 161
3 166 168 277
3 168 278 277
3 168 281 278
3 284 283 282
3 284 282 280
3 282 279 280
3 282 285 279
3 286 169 163
3 279 286 163
3 285 286 279
3 286 171 169
3 173 281 168
3 173 287 281
3 282 283 288
3 288 283 289
3 282 290 285
3 282 288 290
3 285 291 286
3 285 290 291
3 291 175 171
3 291 171 286
3 177 287 173
3 177 292 287
3 288 289 293
3 293 289 294
3 288 295 290
3 288 293 295
3 290 296 291
3 290 295 296
3 296 179 175
3 296 175 291
3 181 292 177
3 181 297 292
3 293 294 298
3 298 294 299
3 293 300 295
3 293 298 300
3 300 183 184
3 296 300 184
3 295 300 296
3 296 184 179
3 187 297 181
3 187 301 297
3 298 299 302
3 302 299 303
3 298 304 300
3 298 302 304
3 304 189 183
3 304 183 300
3 191 306 305
3 301 191 305
3 187 191 301
3 302 303 307
3 307 303 308
3 302 309 304
3 302 307 309
3 309 193 189
3 309 189 304
3 196 310 306
3 196 306 191
3 307 308 311
3 311 308 312
3 307 313 309
3 307 311 313
3 313 198 193
3 313 193 309
3 202 314 203
3 310 196 203
3 314 310 203
3 315 310 314
3 312 316 311
3 318 317 316
3 317 311 316
3 317 313 311
3 319 204 198
3 313 319 198
3 317 319 313
3 319 206 204
3 212 320 314
3 212 314 202
3 322 315 321
3 315 320 321
3 315 314 320
3 317 318 323
3 323 318 324
3 317 325 319
3 317 323 325
3 325 214 206
3 325 206 319
3 222 326 223
3 320 212 223
3 326 320 223
3 327 320 326
3 321 320 328
3 328 320 327
3 324 329 323
3 331 330 329
3 330 323 329
3 330 325 323
3 332 224 214
3 325 332 214
3 330 332 325
3 333 225 224
3 333 224 332
3 334 226 225
3 334 225 333
3 335 227 226
3 335 226 334
3 336 228 227
3 336 227 335
3 337 229 228
3 337 228 336
3 337 231 229
3 232 338 233
3 338 339 233
3 233 339 222
3 339 340 222
3 340 326 222
3 326 340 327
3 327 340 341
3 327 341 328
3 331 342 330
3 330 342 332
3 332 342 343
3 332 343 333
3 333 343 344
3 333 344 334
3 334 344 345
3 334 345 335
3 335 345 346
3 348 347 346
3 347 335 346
3 347 336 335
3 336 349 337
3 336 347 349
3 350 234 231
3 337 350 231
3 349 350 337
3 350 351 234
3 234 351 232
3 351 352 232
3 352 338 232
3 338 352 339
3 347 348 353
3 353 348 354
3 347 355 349
3 347 353 355
3 357 350 356
3 350 355 356
3 350 349 355
3 350 357 351
3 360 359 358
3 362 361 358
3 358 361 360
3 364 363 362
3 362 363 361
3 366 365 364
3 364 365 363
3 368 367 366
3 366 367 365
3 370 369 368
3 368 369 367
3 370 371 369
3 374 373 372
3 376 375 372
3 372 375 374
3 375 376 359
3 376 358 359
3 376 377 358
3 377 236 237
3 362 377 237
3 358 377 362
3 362 237 238
3 362 238 364
3 364 238 240
3 364 240 366
3 366 240 242
3 378 366 242
3 368 366 378
3 368 379 370
3 368 378 379
3 371 370 380
3 370 381 380
3 370 379 381
3 383 382 381
3 381 382 380
3 383 384 382
3 372 373 385
3 385 373 386
3 385 244 245
3 376 385 245
3 372 385 376
3 376 245 246
3 376 246 377
3 377 246 236
3 251 378 242
3 378 251 253
3 378 253 379
3 379 253 255
3 379 255 381
3 381 255 257
3 387 381 257
3 383 381 387
3 384 383 388
3 383 389 388
3 383 387 389
3 389 390 388
3 385 386 391
3 391 386 392
3 391 259 244
3 391 244 385
3 260 387 257
3 387 260 262
3 387 262 389
3 262 264 389
3 264 390 389
3 264 393 390
3 396 395 394
3 396 394 392
3 392 394 391
3 394 266 391
3 266 267 391
3 391 267 259
3 397 393 264
3 397 264 268
3 268 270 397
3 397 270 398
3 401 400 399
3 401 399 395
3 399 394 395
3 399 402 394
3 402 272 266
3 402 266 394
3 274 398 270
3 274 403 398
3 399 400 404
3 404 400 405
3 399 406 402
3 399 404 406
3 406 276 272
3 406 272 402
3 278 403 274
3 278 407 403
3 405 408 404
3 410 409 408
3 409 404 408
3 409 406 404
3 409 280 276
3 409 276 406
3 281 412 411
3 407 281 411
3 278 281 407
3 409 410 284
3 410 283 284
3 410 413 283
3 409 284 280
3 287 414 412
3 287 412 281
3 416 289 415
3 289 413 415
3 289 283 413
3 417 416 415
3 292 418 414
3 292 414 287
3 419 294 416
3 416 294 289
3 416 417 420
3 416 420 419
3 297 421 418
3 297 418 292
3 422 299 419
3 419 299 294
3 419 420 423
3 419 423 422
3 301 424 421
3 301 421 297
3 426 425 422
3 425 299 422
3 425 303 299
3 426 422 423
3 305 424 301
3 425 308 303
3 427 308 425
3 429 312 428
3 312 427 428
3 312 308 427
3 430 429 428
3 429 316 312
3 318 316 429
3 430 318 429
3 431 318 430
3 433 432 322
3 433 322 321
3 431 324 318
3 434 324 431
3 328 433 321
3 328 435 433
3 434 436 324
3 324 436 329
3 331 329 436
3 331 436 437
3 439 438 340
3 439 340 339
3 340 440 341
3 438 440 340
3 328 341 435
3 435 341 440
3 437 441 331
3 331 441 342
3 342 442 343
3 441 442 342
3 343 443 344
3 442 443 343
3 443 445 444
3 345 443 444
3 344 443 345
3 446 346 345
3 446 345 444
3 446 348 346
3 448 447 352
3 448 352 351
3 339 352 439
3 439 352 447
3 445 449 444
3 444 449 446
3 446 449 450
3 348 446 450
3 451 348 450
3 354 348 451
3 453 452 357
3 453 357 356
3 351 357 448
3 448 357 452
3 456 455 454
3 458 457 454
3 454 457 456
3 460 459 458
3 458 459 457
3 462 461 460
3 460 461 459
3 464 463 462
3 462 463 461
3 464 465 463
3 468 467 466
3 468 466 455
3 455 466 454
3 466 359 454
3 359 360 454
3 454 360 361
3 454 361 458
3 458 361 363
3 458 363 460
3 460 363 365
3 460 365 462
3 462 365 367
3 462 367 464
3 469 465 464
3 367 469 464
3 369 469 367
3 471 470 371
3 470 369 371
3 470 469 369
3 473 472 471
3 471 472 470
3 473 474 472
3 476 475 374
3 374 475 373
3 375 466 467
3 476 375 467
3 374 375 476
3 466 375 359
3 380 471 371
3 471 380 382
3 471 382 473
3 382 384 473
3 384 474 473
3 384 477 474
3 475 386 373
3 478 386 475
3 479 477 384
3 479 384 388
3 388 390 479
3 479 390 480
3 483 482 481
3 478 483 481
3 392 478 481
3 386 478 392
3 393 480 390
3 393 484 480
3 487 486 485
3 487 485 482
3 482 485 481
3 485 395 481
3 395 396 481
3 481 396 392
3 488 484 393
3 488 393 397
3 397 398 488
3 488 398 489
3 485 486 401
3 486 400 401
3 486 490 400
3 485 401 395
3 403 489 398
3 403 491 489
3 493 405 492
3 405 490 492
3 405 400 490
3 494 493 492
3 407 491 403
3 407 495 491
3 493 408 405
3 410 408 493
3 494 410 493
3 496 410 494
3 407 411 497
3 498 407 497
3 495 407 498
3 500 413 499
3 413 496 499
3 413 410 496
3 501 500 499
3 498 497 502
3 498 502 503
3 500 415 413
3 417 415 500
3 501 417 500
3 504 417 501
3 505 503 502
3 507 420 506
3 420 504 506
3 420 417 504
3 508 507 506
3 510 509 507
3 509 420 507
3 509 423 420
3 510 507 508
3 512 511 426
3 426 511 425
3 426 423 509
3 426 509 512
3 515 514 513
3 511 427 425
3 516 427 511
3 515 513 517
3 515 517 518
3 516 519 427
3 427 519 428
3 430 428 519
3 430 519 520
3 518 517 521
3 518 521 522
3 520 431 430
3 523 431 520
3 526 525 524
3 524 525 522
3 524 522 521
3 433 524 521
3 432 433 521
3 523 434 431
3 527 434 523
3 526 524 528
3 526 528 529
3 435 528 433
3 433 528 524
3 527 530 434
3 434 530 436
3 532 531 437
3 436 532 437
3 530 532 436
3 533 531 532
3 535 534 438
3 535 438 439
3 528 440 529
3 440 534 529
3 440 438 534
3 440 528 435
3 531 441 437
3 533 536 531
3 536 441 531
3 536 442 441
3 442 537 443
3 536 537 442
3 539 538 445
3 443 539 445
3 537 539 443
3 540 538 539
3 543 542 541
3 447 448 541
3 542 447 541
3 544 447 542
3 439 447 535
3 535 447 544
3 538 449 445
3 540 545 538
3 545 449 538
3 545 450 449
3 547 546 451
3 450 547 451
3 545 547 450
3 549 548 546
3 549 546 547
3 548 549 543
3 548 543 541
3 453 548 541
3 452 453 541
3 452 541 448
3 551 550 456
3 456 550 455
3 552 456 457
3 552 551 456
3 553 457 459
3 553 552 457
3 554 459 461
3 554 553 459
3 555 461 463
3 555 554 461
3 557 556 465
3 556 463 465
3 556 555 463
3 559 558 557
3 557 558 556
3 559 560 558
3 562 561 468
3 468 561 467
3 468 455 550
3 468 550 562
3 469 557 465
3 557 469 470
3 557 470 559
3 563 560 559
3 470 563 559
3 472 563 470
3 472 474 563
3 563 474 564
3 565 475 476
3 566 565 476
3 467 566 476
3 561 566 467
3 477 564 474
3 477 567 564
3 569 568 565
3 568 475 565
3 568 478 475
3 569 565 566
3 570 567 477
3 570 477 479
3 479 480 570
3 570 480 571
3 572 482 483
3 573 572 483
3 478 573 483
3 568 573 478
3 484 571 480
3 484 574 571
3 576 575 487
3 487 575 486
3 487 482 572
3 577 487 572
3 576 487 577
3 577 572 573
3 580 579 578
3 581 578 488
3 578 574 488
3 574 484 488
3 574 578 579
3 489 581 488
3 583 490 582
3 490 575 582
3 490 486 575
3 584 583 582
3 587 586 585
3 585 586 580
3 578 585 580
3 588 585 578
3 589 578 581
3 588 578 589
3 491 589 489
3 489 589 581
3 583 492 490
3 591 590 494
3 591 494 492
3 584 591 492
3 583 584 492
3 592 590 591
3 593 587 585
3 595 594 593
3 585 595 593
3 588 595 585
3 596 588 589
3 595 588 596
3 495 596 491
3 491 596 589
3 597 496 590
3 590 496 494
3 590 592 598
3 590 598 597
3 599 594 595
3 601 600 599
3 595 601 599
3 596 601 595
3 498 601 495
3 495 601 596
3 597 499 496
3 501 499 597
3 598 501 597
3 602 501 598
3 600 601 603
3 600 603 604
3 503 603 498
3 498 603 601
3 606 504 605
3 504 602 605
3 504 501 602
3 607 606 605
3 608 604 603
3 610 608 609
3 609 608 505
3 608 603 505
3 603 503 505
3 606 506 504
3 508 506 606
3 607 508 606
3 611 508 607
3 610 609 612
3 610 612 613
3 615 614 510
3 510 614 509
3 510 508 611
3 510 611 615
3 613 612 616
3 613 616 617
3 618 511 512
3 619 618 512
3 509 619 512
3 614 619 509
3 622 621 620
3 620 621 617
3 620 617 616
3 515 620 616
3 514 515 616
3 623 516 618
3 618 516 511
3 618 619 624
3 618 624 623
3 622 620 625
3 622 625 626
3 518 625 515
3 515 625 620
3 623 519 516
3 520 519 623
3 624 520 623
3 627 520 624
3 626 625 628
3 626 628 629
3 522 628 518
3 518 628 625
3 631 523 630
3 523 627 630
3 523 520 627
3 632 631 630
3 629 628 525
3 526 629 525
3 633 629 526
3 525 628 522
3 634 527 631
3 631 527 523
3 631 632 635
3 636 631 635
3 634 631 636
3 637 636 635
3 640 639 638
3 639 633 638
3 633 529 638
3 633 526 529
3 634 530 527
3 530 634 532
3 532 634 636
3 642 641 533
3 642 533 532
3 637 642 532
3 636 637 532
3 644 643 641
3 644 641 642
3 645 643 644
3 648 647 646
3 646 647 640
3 646 640 638
3 535 646 638
3 534 535 638
3 534 638 529
3 641 536 533
3 536 641 537
3 537 641 643
3 645 649 643
3 649 537 643
3 649 539 537
3 651 650 540
3 539 651 540
3 649 651 539
3 653 652 650
3 653 650 651
3 655 654 652
3 655 652 653
3 542 543 654
3 655 542 654
3 656 542 655
3 646 544 648
3 544 656 648
3 544 542 656
3 544 646 535
3 650 545 540
3 545 650 547
3 547 650 652
3 547 652 549
3 549 652 654
3 549 654 543
3 657 550 551
3 552 658 551
3 551 658 657
3 553 659 552
3 552 659 658
3 554 660 553
3 553 660 659
3 555 661 554
3 554 661 660
3 556 662 555
3 555 662 661
3 558 663 556
3 556 663 662
3 560 663 558
3 664 561 562
3 550 657 562
3 657 664 562
3 657 665 664
3 666 657 658
3 665 657 666
3 667 658 659
3 666 658 667
3 668 659 660
3 667 659 668
3 669 660 661
3 668 660 669
3 670 661 662
3 669 661 670
3 671 662 663
3 670 662 671
3 563 672 560
3 672 663 560
3 672 671 663
3 564 672 563
3 673 566 664
3 664 566 561
3 674 664 665
3 673 664 674
3 675 665 666
3 674 665 675
3 676 666 667
3 675 666 676
3 677 667 668
3 676 667 677
3 678 668 669
3 677 668 678
3 679 669 670
3 678 669 679
3 680 670 671
3 679 670 680
3 681 671 672
3 680 671 681
3 567 681 564
3 564 681 672
3 682 568 569
3 566 673 569
3 673 682 569
3 673 683 682
3 684 673 674
3 683 673 684
3 685 674 675
3 684 674 685
3 686 675 676
3 685 675 686
3 687 676 677
3 686 676 687
3 688 677 678
3 687 677 688
3 689 678 679
3 688 678 689
3 680 691 690
3 689 680 690
3 679 680 689
3 691 680 681
3 691 681 692
3 694 692 693
3 693 692 570
3 692 681 570
3 681 567 570
3 571 693 570
3 695 573 682
3 682 573 568
3 696 682 683
3 695 682 696
3 697 683 684
3 696 683 697
3 698 684 685
3 697 684 698
3 686 700 699
3 698 686 699
3 685 686 698
3 702 701 700
3 686 702 700
3 687 702 686
3 703 687 688
3 702 687 703
3 704 688 689
3 703 688 704
3 689 690 705
3 689 705 704
3 708 707 706
3 706 707 694
3 693 706 694
3 709 706 693
3 574 709 571
3 571 709 693
3 710 575 576
3 577 711 576
3 576 711 710
3 573 695 577
3 695 711 577
3 695 712 711
3 713 695 696
3 712 695 713
3 714 696 697
3 713 696 714
3 715 697 698
3 714 697 715
3 698 699 716
3 698 716 715
3 717 701 702
3 717 702 703
3 717 703 718
3 718 703 704
3 718 704 719
3 722 721 720
3 705 719 704
3 721 722 708
3 706 721 708
3 723 721 706
3 580 723 579
3 723 709 579
3 723 706 709
3 579 709 574
3 710 582 575
3 582 710 584
3 710 724 584
3 710 711 724
3 725 711 712
3 724 711 725
3 726 712 713
3 725 712 726
3 727 713 714
3 726 713 727
3 728 714 715
3 727 714 728
3 715 716 729
3 715 729 728
3 720 721 730
3 720 730 731
3 587 730 586
3 730 723 586
3 730 721 723
3 586 723 580
3 724 591 584
3 591 724 592
3 724 732 592
3 724 725 732
3 733 725 726
3 732 725 733
3 734 726 727
3 733 726 734
3 735 727 728
3 734 727 735
3 728 729 736
3 728 736 735
3 731 730 737
3 731 737 738
3 593 739 587
3 739 730 587
3 739 737 730
3 594 739 593
3 740 598 732
3 732 598 592
3 741 732 733
3 740 732 741
3 742 733 734
3 741 733 742
3 735 744 743
3 742 735 743
3 734 735 742
3 744 735 736
3 745 738 737
3 747 746 745
3 737 747 745
3 739 747 737
3 599 748 594
3 748 739 594
3 748 747 739
3 600 748 599
3 749 602 740
3 740 602 598
3 741 751 750
3 749 741 750
3 740 741 749
3 751 741 742
3 751 742 752
3 752 742 743
3 753 746 747
3 755 754 753
3 747 755 753
3 748 755 747
3 604 755 600
3 600 755 748
3 749 605 602
3 607 605 749
3 750 607 749
3 756 607 750
3 754 755 757
3 754 757 758
3 608 759 604
3 759 755 604
3 759 757 755
3 610 759 608
3 756 611 607
3 760 611 756
3 758 757 761
3 758 761 762
3 763 757 759
3 761 757 763
3 613 763 610
3 610 763 759
3 764 614 615
3 765 764 615
3 611 765 615
3 760 765 611
3 762 761 766
3 762 766 767
3 768 761 763
3 766 761 768
3 617 768 613
3 613 768 763
3 770 769 764
3 769 614 764
3 769 619 614
3 770 764 765
3 767 766 771
3 767 771 772
3 622 771 621
3 771 768 621
3 771 766 768
3 621 768 617
3 774 624 773
3 624 769 773
3 624 619 769
3 776 775 774
3 776 774 773
3 777 775 776
3 772 771 778
3 772 778 779
3 626 778 622
3 622 778 771
3 780 627 774
3 774 627 624
3 781 774 775
3 780 774 781
3 775 777 782
3 775 782 781
3 779 778 783
3 779 783 784
3 629 783 626
3 626 783 778
3 780 630 627
3 630 780 632
3 780 785 632
3 780 781 785
3 781 782 786
3 781 786 785
3 789 788 787
3 791 790 787
3 791 787 788
3 793 792 790
3 793 790 791
3 795 794 792
3 795 792 793
3 797 796 794
3 797 794 795
3 796 797 784
3 783 796 784
3 798 796 783
3 633 798 629
3 629 798 783
3 785 635 632
3 800 799 637
3 800 637 635
3 786 800 635
3 785 786 635
3 801 799 800
3 789 787 802
3 789 802 803
3 804 787 790
3 802 787 804
3 805 790 792
3 804 790 805
3 806 792 794
3 805 792 806
3 807 794 796
3 806 794 807
3 640 807 639
3 807 798 639
3 807 796 798
3 639 798 633
3 799 642 637
3 801 808 799
3 808 642 799
3 808 644 642
3 810 809 645
3 644 810 645
3 808 810 644
3 809 810 803
3 802 809 803
3 811 809 802
3 812 802 804
3 811 802 812
3 813 804 805
3 812 804 813
3 814 805 806
3 813 805 814
3 648 814 647
3 814 807 647
3 814 806 807
3 647 807 640
3 809 649 645
3 649 809 651
3 651 809 811
3 651 811 653
3 653 811 812
3 653 812 655
3 655 812 813
3 655 813 656
3 656 813 814
3 656 814 648
3 815 690 691
3 692 816 691
3 691 816 815
3 694 816 692
3 817 699 700
3 701 817 700
3 818 705 815
3 815 705 690
3 708 818 707
3 818 816 707
3 818 815 816
3 707 816 694
3 819 716 817
3 817 716 699
3 717 820 701
3 820 817 701
3 820 819 817
3 718 821 717
3 717 821 820
3 719 822 718
3 718 822 821
3 719 705 822
3 705 818 822
3 722 720 822
3 722 822 818
3 722 818 708
3 823 729 819
3 819 729 716
3 824 819 820
3 823 819 824
3 825 820 821
3 824 820 825
3 826 821 822
3 825 821 826
3 731 826 720
3 720 826 822
3 827 736 823
3 823 736 729
3 828 823 824
3 827 823 828
3 829 824 825
3 828 824 829
3 830 825 826
3 829 825 830
3 738 830 731
3 731 830 826
3 831 743 744
3 736 827 744
3 827 831 744
3 827 832 831
3 833 827 828
3 832 827 833
3 834 828 829
3 833 828 834
3 835 829 830
3 834 829 835
3 835 830 738
3 836 835 738
3 745 836 738
3 837 835 836
3 745 746 836
3 836 746 838
3 839 750 751
3 752 840 751
3 751 840 839
3 743 831 752
3 831 840 752
3 831 841 840
3 842 831 832
3 841 831 842
3 843 832 833
3 842 832 843
3 844 833 834
3 843 833 844
3 835 846 845
3 844 835 845
3 834 835 844
3 846 835 837
3 746 753 847
3 848 746 847
3 838 746 848
3 754 847 753
3 849 756 839
3 839 756 750
3 850 839 840
3 849 839 850
3 841 852 851
3 850 841 851
3 840 841 850
3 854 853 852
3 841 854 852
3 842 854 841
3 855 842 843
3 854 842 855
3 856 843 844
3 855 843 856
3 844 845 857
3 858 844 857
3 856 844 858
3 860 859 858
3 860 858 857
3 859 860 848
3 847 859 848
3 861 859 847
3 758 861 754
3 754 861 847
3 862 760 849
3 849 760 756
3 863 849 850
3 862 849 863
3 850 851 864
3 865 850 864
3 863 850 865
3 865 864 853
3 854 865 853
3 866 865 854
3 867 854 855
3 866 854 867
3 868 855 856
3 867 855 868
3 869 856 858
3 868 856 869
3 870 858 859
3 869 858 870
3 871 859 861
3 870 859 871
3 762 871 758
3 758 871 861
3 872 765 862
3 862 765 760
3 873 862 863
3 872 862 873
3 874 863 865
3 873 863 874
3 875 865 866
3 874 865 875
3 876 866 867
3 875 866 876
3 877 867 868
3 876 867 877
3 878 868 869
3 877 868 878
3 879 869 870
3 878 869 879
3 880 870 871
3 879 870 880
3 767 880 762
3 762 880 871
3 881 769 770
3 765 872 770
3 872 881 770
3 872 882 881
3 883 872 873
3 882 872 883
3 884 873 874
3 883 873 884
3 885 874 875
3 884 874 885
3 886 875 876
3 885 875 886
3 887 876 877
3 886 876 887
3 888 877 878
3 887 877 888
3 889 878 879
3 888 878 889
3 890 879 880
3 889 879 890
3 772 890 767
3 767 890 880
3 881 773 769
3 773 881 776
3 776 881 882
3 776 882 777
3 882 891 777
3 882 883 891
3 892 883 884
3 891 883 892
3 893 884 885
3 892 884 893
3 894 885 886
3 893 885 894
3 895 886 887
3 894 886 895
3 896 887 888
3 895 887 896
3 897 888 889
3 896 888 897
3 898 889 890
3 897 889 898
3 779 898 772
3 772 898 890
3 899 782 891
3 891 782 777
3 900 891 892
3 899 891 900
3 901 892 893
3 900 892 901
3 902 893 894
3 901 893 902
3 903 894 895
3 902 894 903
3 904 895 896
3 903 895 904
3 905 896 897
3 904 896 905
3 906 897 898
3 905 897 906
3 784 906 779
3 779 906 898
3 907 786 899
3 899 786 782
3 908 899 900
3 907 899 908
3 909 900 901
3 908 900 909
3 789 909 788
3 909 902 788
3 909 901 902
3 788 902 791
3 791 902 903
3 791 903 793
3 793 903 904
3 793 904 795
3 795 904 905
3 795 905 797
3 797 905 906
3 797 906 784
3 907 800 786
3 800 907 801
3 907 910 801
3 907 908 910
3 911 908 909
3 910 908 911
3 803 911 789
3 789 911 909
3 910 808 801
3 808 910 810
3 810 910 911
3 810 911 803