OFF
758 1464 0
2.8418526747 26.9193720647 14.5907877036
2.9979844275 26.7481880936 14.1902197068
3.2760716487 26.4039594757 14.6540676421
3.3608826857 26.5314636747 15.0890224407
2.8431500109 27.2743796978 14.0707663706
3.3152504764 27.5077889882 13.6289612210
3.2895864903 26.9488684825 13.7146828899
2.8098560429 27.4118068766 14.5196788294
3.1688517864 27.1142732111 15.0639583230
3.1670223377 27.7460140711 14.1494345936
3.1841329409 27.6355504052 14.7986292096
3.8174678576 26.2154256533 14.1552138738
4.3565817471 25.8247728040 15.2835884614
4.1307331979 26.5564205869 15.7243035275
3.9999708346 27.0973759794 13.2594503077
3.8573047740 26.5930086849 13.5389792004
3.8930615743 27.4185508628 15.4841088065
4.1710244397 27.9336647386 13.4407509536
3.8202338965 27.9568751668 14.7274912203
5.1455124937 25.1736467582 14.6517391718
5.9760582896 24.6294282825 14.0132205135
6.5190453640 24.0280648542 15.2667290963
5.9192334343 24.7435331626 15.9193435341
4.8816598407 25.9828330008 13.4131410570
5.9862548955 25.7465942014 12.6068745499
5.8324184338 25.1650387675 13.2393601045
5.7713079182 25.6009472790 16.7135577283
5.0589947537 26.9163100826 16.4190619791
6.3769169599 26.4700900795 17.4272414649
5.2915236042 27.0769874014 12.4938733978
6.7724177065 27.3991731131 11.4826984296
6.5247371729 26.3997515797 11.8423231901
4.8123725356 27.8501113158 15.8631112388
5.8963353871 27.3590244836 16.8693669437
5.4079425166 28.1009720195 12.2626979687
4.8137249417 28.3968674849 13.0477628088
5.4752814671 28.4430135996 12.1983289133
4.4571083967 28.2530989308 14.5832633685
5.0521522956 28.1795232365 15.7843380646
6.0873677826 27.8832142641 16.6914746042
7.1483907008 23.4214895280 14.5223932370
7.8474263902 22.8571802475 13.8649766553
8.3475706304 22.2530635270 15.0476503432
7.7837700920 22.9885028139 15.7401825002
6.8412158781 24.2845888301 13.1848989274
7.7954480857 23.9351750175 12.4357473875
7.6955263548 23.3758501007 13.1089579166
7.5215120945 23.7926157910 16.7250755573
6.5807097500 24.6018490025 16.7841072396
7.2111648230 24.6525730017 17.6354200860
7.1173135175 25.2309974573 12.0543169417
7.9684745408 25.9912358979 11.2193809734
8.1601080229 24.6463835759 11.6356821689
7.0369151795 25.4738169323 18.1022776460
7.3759537434 26.1323772026 18.4311251181
7.7649618981 25.4051340837 19.0386473233
7.8877954055 25.8240936851 19.1251703707
8.3058643744 25.3264723851 19.4580908656
8.3734434716 27.0943672378 10.8734000527
8.0642286551 26.2158431615 18.6646709899
7.5113412605 27.1689994673 17.5451505819
8.2470288626 25.7978299873 19.2449372884
6.3743171550 28.1498646448 11.6148612561
8.1478304941 27.8029805799 11.0473451951
7.5380190455 28.0343454657 17.0348659491
8.5037597119 28.0048633949 16.9853065268
8.4061103179 28.2943753157 16.8315117506
8.8691325098 21.6958278089 14.2550558468
9.2943977900 21.3556600208 13.5623144494
9.6807391642 20.7415636686 14.3028585845
9.7373017176 20.9953634808 15.5379828011
8.5922037540 22.5137225548 13.0541224956
9.5087576663 22.0997132147 12.3722173947
9.3552389711 21.5980972542 13.0184046412
8.9667728364 22.2002909211 16.1748590726
8.4098330522 22.9094072532 16.5283663985
9.3445290797 23.0795000267 17.3020000257
8.8371617817 23.4283595376 11.9393279216
9.5101365052 24.3277858604 11.0045902765
9.8376169280 22.8500883391 11.5207854584
8.4257501785 24.1619740043 18.2940290014
7.8899158734 24.7990161365 18.7507546700
8.4667658933 24.5723452993 19.1908393098
8.2371036562 24.9403282320 19.3839002801
8.5931502831 24.8162749827 19.4945731496
10.0196827230 26.0792221355 10.5006988651
9.1343685543 26.0635944616 18.0698603178
8.6226502375 25.8143467026 18.9193371542
9.2042578024 25.1607656197 18.7569657840
8.6334112795 25.4569712621 19.2884210243
8.8500603441 24.9266995043 19.2826821590
9.4847381643 27.4160797148 10.7858560402
9.2492372803 27.2681748704 17.1978933686
10.2197287044 27.9900080933 11.1671470060
9.3439428050 27.9302459620 16.7941641136
9.4595152010 28.1858609169 16.5208888373
11.1836581219 17.8391468715 15.0974372718
11.4070958506 17.5197567386 14.0053503005
11.6702143053 16.7122057244 14.7296290512
11.7657195322 16.6651376235 15.9246655397
11.4865039760 17.7299003734 16.2346407332
12.1124662537 17.2566666932 17.0815348497
10.9624672851 18.7222357605 13.7713644430
11.3044273787 19.2625555094 12.4975299043
11.5472802092 18.0095941013 13.0782361222
10.4985340835 19.5466806485 14.8947701328
11.1052931124 18.6569086190 15.9268451088
11.7272296838 18.6872942517 16.8346982100
10.2003755995 20.5638980661 13.1213906828
11.0589984501 20.4912398218 11.9737903477
10.9487592639 19.9217406793 16.2849712210
10.4997116575 20.7790772064 16.3634418855
10.4882238978 21.6344293437 11.7977005349
11.0558477916 22.5940555615 10.7981588920
11.4126024701 21.1431061182 11.2564836170
10.1465469788 21.5937312930 16.6232265665
11.0140059200 22.0487435999 17.2557727272
11.1685087706 24.2672859642 10.0297093113
9.2736690066 24.3051150528 18.5392313946
10.5587666454 24.1938099404 17.7772539843
8.8090527780 24.5024150590 19.1298570223
11.3314844747 25.3172983562 9.8065420908
12.1675334546 25.1279192362 9.4170201180
11.8326728497 24.6268293284 9.4337591979
10.8495774389 26.0870345470 17.1687403175
11.8925498420 26.0464024316 10.1903004989
11.1376808121 27.2691389903 10.9587735502
10.4224247986 27.5603433407 16.5052669110
11.5932643607 26.7936417048 16.4798895595
11.7512792032 27.5367642083 15.7532225869
11.5999081362 28.1029389763 11.8580180796
11.1157905999 28.4024567306 11.7641572131
11.6994621010 28.5027934421 12.5678057045
10.9999825826 28.1583260797 15.5839564826
12.0310867010 28.1590827228 14.6031320288
11.5935770078 28.4752589581 14.6035500000
12.8431064180 14.1255480157 17.0410784330
13.0176046219 13.7031986197 15.6696453578
13.3499056055 12.8871434296 16.5935265705
13.4228108616 12.8461124196 17.8839225579
13.1601523175 13.9638331325 18.5608914333
13.5500037635 13.0677103271 19.0145235816
12.7484076933 15.2757486310 13.2341504633
13.1288571229 15.2182010871 11.9943268664
13.3206733385 14.2712849137 12.6991564395
13.1473724692 13.9333408271 14.1823974786
12.3770262602 15.2832755674 15.1649936438
12.3730207177 15.7468893399 16.9862100027
12.8303252030 15.0568639167 18.1058675527
13.5759780266 13.8900865444 19.5320694593
13.4291885871 15.1874686277 19.3093676928
14.2441085574 14.4495744634 20.4099062996
14.2209154864 16.2917413206 7.8193840101
14.6687378482 16.1567848128 7.6726073094
14.4468109022 15.7894568081 7.8265977621
14.2039240181 16.3171952070 8.3310674325
12.7493156795 16.3774888476 12.0051964263
13.2522218065 17.1562202634 10.6670439779
13.2940794378 15.8052591693 11.0503455162
12.0511287106 16.7024918948 13.4185478991
12.9520176426 16.5797463842 18.2898532793
14.0177344771 16.7180899566 19.5350455435
14.0959936388 15.7488299931 20.1379515831
14.3127592387 16.5061435206 7.8795516917
12.2869266688 18.0680745204 11.8766574932
13.3734167391 19.1266639209 10.3868560775
13.7026873638 17.7653371943 18.7271523807
12.9209826306 18.5490893996 17.8390229733
11.9802782770 19.8651184888 11.3819439606
12.5138407077 21.0754562157 10.5356392053
10.9952255634 20.8941213322 16.8059258235
12.0558267131 20.3865147501 17.2427755049
12.6190483260 22.6945849092 9.8239058459
12.5297910250 22.3660030128 17.4607410160
12.6466350694 24.2425234971 9.0814160392
13.2242897806 24.1493741229 8.9398561276
13.4888987515 23.5805433420 9.0454790375
12.9477105637 23.4049303577 9.2388227073
12.2032754771 23.8731624843 9.4212819647
12.6627360104 24.4286860763 17.1411030556
13.0228143687 24.6747373164 9.1738546279
12.7609699465 25.3703874383 9.6535197405
13.7819012128 24.8370765655 9.7407249728
13.2750843656 25.7558238656 10.3651526808
12.2731214049 25.8747434408 16.7256514822
13.4317314696 25.3635795314 16.4967465838
12.7040820223 26.5287853530 16.0782057987
12.1291479684 27.5472391574 11.5512086624
13.0517314989 26.6658370121 11.3209538270
12.8158929629 27.5800053368 12.3335451626
12.8953129094 27.2823829809 15.1661358893
11.8846656204 28.5259174667 13.7090774091
12.3437865351 28.1817167653 13.2309385871
12.9141482324 27.7704755419 14.2349640568
15.3315051214 6.2059215372 13.0449145204
15.4122671674 6.3762742994 12.3405034459
15.5409319824 5.5730560519 12.6338494669
15.5236362165 5.7305182114 13.4461490185
15.2752471064 6.7884418093 13.0374937287
15.3329102340 7.2480615315 12.6404776986
15.3674917980 6.6278873174 13.7387788090
15.2984971085 7.3771276398 13.4250037707
14.6633850543 10.5589109619 18.6228267624
14.7705471195 10.0312307395 17.2491331402
15.1292935594 9.3217700271 18.0431379293
15.2478144977 9.5271157103 19.1323362910
14.7187271999 11.9864441978 9.9184003637
15.1857291651 11.7121785350 8.7221997687
15.2904000030 10.8514600994 9.2398940744
15.0870085842 10.6099527183 10.4777935265
14.5879384391 11.6594897440 11.4814922434
14.9462950009 10.5955917242 11.8037941379
14.3219901220 11.4501453494 14.9002793858
14.5820846203 11.2206635755 13.6573782136
14.7939678697 10.4881237858 14.4713757873
14.7454583786 10.2479380593 15.8360504277
14.0894024655 11.5208517252 16.9413625406
14.0037986818 12.0167099105 18.7816804889
15.0570333559 10.4323945837 19.8327165530
14.6150450784 11.5977406937 19.8965989275
15.2473128119 11.1428797313 20.7135277469
14.7627962836 13.0805113271 8.7927278192
15.5279524684 13.3580128007 7.7089405176
15.5277105136 12.1070248217 8.0046269235
14.2584139571 13.2949808302 10.0150345717
14.2233446071 12.7804429344 11.0762326579
14.6415542151 11.2773733232 12.6325011890
14.0099709752 12.6238342488 13.0084919373
13.6331512924 12.6429980346 15.2441995506
14.0791005087 12.9384162050 19.8763500425
15.0274773666 12.8144389311 21.0702361896
14.5133851267 14.8426093488 8.3735056771
15.4423071614 14.9602362060 7.5101101792
14.1478553789 14.2927987945 9.5129583938
13.7333883963 14.2886690468 11.0962061651
15.3551828784 14.6623606205 21.5512656984
15.7060331755 16.0484332415 7.5675042796
13.8367482079 15.8040619899 9.6916381506
14.4846184540 16.3927408247 20.2633142392
14.8584359349 15.8004801610 20.7925118725
14.8604704203 16.8485523713 8.0994818500
14.2368386949 17.5258794160 9.2698834412
15.7681713249 17.9390428683 8.6320545564
14.1511923087 18.8666056117 18.4907662926
14.7844244844 18.0816097238 19.2653392984
15.3321877435 17.0816146771 20.3675828062
14.8258943087 19.0455494182 9.4392656325
14.6208928499 21.0029361565 9.7694371365
15.4343693435 19.4405229514 18.6430502621
13.9918073217 20.4758390534 17.8333383654
13.8607670560 22.6439537489 9.3824054754
14.4452364717 23.0712435069 9.3292506622
14.9578546711 22.2689306667 9.5823585575
14.4797970473 22.7539838643 17.1917126206
13.9042051217 23.9958635002 9.2226573884
15.0937092987 23.4207872928 9.7503090320
14.4123699029 24.1618190263 9.6293584966
14.9027176563 24.3481553466 10.1994960790
14.1267660263 24.3273243491 16.7479881181
13.9552566674 25.9015337707 11.0123742424
14.4155578953 25.2436136034 10.6589024298
15.0723578219 25.6432567052 11.7939286751
14.3465859013 24.9573391871 16.3309749916
14.1909885796 25.9339790105 15.5605420161
13.5074420374 27.4202037127 13.5420003390
14.2088383682 26.7138722004 12.7161706307
13.7085817093 27.0752782340 14.5637530396
14.8197423310 26.3826861838 14.1309334054
17.6113795708 2.2873600221 6.9921234615
17.8041196131 2.6431339550 6.0776691194
18.5964189327 1.8929765137 6.2860364732
18.1381418532 1.7714806308 8.0068100568
17.1621516525 2.6467046114 8.3802176519
17.8984174455 1.8386831311 9.7800318395
16.9352538580 2.7296166667 10.3495243202
17.7786529035 1.9369396378 11.6170630182
16.8108552816 2.8939609475 12.1563631717
17.7030004056 2.1210121275 13.3383264570
16.8444713086 3.0847366273 13.8173203769
17.5727843190 2.4011686581 14.5927506059
17.2555385948 3.0626636123 6.9248791662
16.8562829140 3.6158091819 7.8950825262
16.4847864181 4.0383353555 9.4659982858
16.7304221689 4.7794512418 8.0485181758
16.3155665914 3.7830793290 11.2094513343
16.0475633772 4.4870452900 13.0303252433
17.0768579426 3.0669048688 15.0396493670
16.4774789467 4.2491651229 15.1201017170
17.0519662331 3.5020925084 15.9392621869
16.1941744389 6.0740494299 9.4641741128
16.7187714653 6.0534851412 7.9272100128
15.8618937344 5.3014114922 11.3359380242
15.7688964390 5.9421653084 14.7457879600
16.7804493958 4.3501496859 16.5839438834
16.2703167897 5.8060767034 16.8751291322
16.9912901135 4.8285301304 17.9285546604
16.7328098380 6.2712095944 18.9589784634
17.3486826969 5.1684938292 19.2400598732
16.4314949892 7.6028134361 8.3362764775
17.2088877071 8.1272241267 6.9929888601
17.0940433061 6.7460744733 7.1661936135
15.8441101001 7.8757038724 9.9252602616
15.5868457184 7.1986658273 11.4127248964
15.3905233895 7.6771755319 14.6490126805
15.6794835988 7.2283140926 16.2710385843
15.8184098857 8.0144763874 18.4029903194
17.6274843271 6.0670460068 20.4942581612
16.7917458556 7.8232138860 20.6249090214
17.6648028726 7.1485716120 21.5095960017
16.4811364369 9.1384458871 7.8547878141
17.3042554605 9.9785398463 6.8832189784
15.7478582902 9.4014406738 9.2734621376
15.3627536415 9.1785643637 11.2806232109
15.3050456223 8.3389170163 13.0292223912
15.1152656762 9.3013064364 14.6378085641
15.2434118687 8.8070602405 16.4945628532
15.7917189238 9.6545888928 20.4378852397
17.7553701917 8.1504146342 22.2782685733
16.7826964725 9.5268004894 21.9762552418
17.6393360810 9.4497407675 23.0369197843
15.9575770999 10.6881701399 8.0946068674
16.5482554305 11.8292915391 7.2595790531
14.9991829448 10.1011822064 13.0999706501
16.0749583257 11.4029488334 21.9711053065
17.2014813063 10.7767972460 23.2019042967
16.8605653606 13.3456724225 7.0437136237
16.0939588041 13.5490422549 22.5521176247
16.8975015308 12.4486121522 23.4360140961
17.1502622935 14.9311205581 7.2051018145
16.1857944082 14.9930621108 22.4657837673
16.8412402443 13.7253602302 23.6435466969
16.7156419787 14.6543201948 23.3434186329
17.2763665021 14.4229624577 24.1319216746
16.7517836444 16.2117415334 7.5818204074
15.9652325460 16.8800082122 7.9165288049
17.1032963022 17.1079577323 8.0324714648
16.9065953497 15.7370181603 22.9938275584
16.1130032072 16.1449592836 21.7054346536
17.3707072421 15.2505499254 23.9178357330
17.5026998721 18.3556949342 8.6771890267
17.1257096661 17.6302587777 21.1574585788
16.2906397038 18.4677103204 19.7082605974
16.2022783282 19.4738893116 9.2434519473
16.6146533635 20.6474598879 9.6551648864
17.1904417384 19.6732325077 18.8019441482
16.1404824698 21.0687990168 17.7015690148
15.2652231475 22.6860285828 9.6224335054
16.4058717938 22.1040456533 10.0736288181
16.0931082726 22.5923143096 16.8647486439
17.4052371995 21.9983838300 16.7557019511
16.8067409190 23.1480046262 16.2398820050
15.4826392055 24.6820137119 11.0066628784
16.1599932837 23.6402924829 10.6816816303
16.6617850212 24.3536797144 11.7235967365
15.4031985661 24.1370998208 16.2378428986
16.8902133586 24.0811065295 15.4783011322
16.7334464508 25.0486797857 12.7647402809
15.8279554472 25.2340551143 15.0386536801
17.1120781579 24.7959737452 14.4750380540
16.1305467109 25.6348280399 14.1091563240
15.7015278293 25.9008771225 13.1932578563
18.6205688485 2.7326866979 5.0628803648
19.7358809996 2.9115045929 3.7880638610
20.0140794445 1.8532167378 4.7405243180
19.8577089474 1.3981749377 6.3916138349
19.4253974097 1.3385103614 7.7907803730
19.2018406484 1.3190625877 9.5270067226
19.0957358783 1.3606134541 11.3507297487
19.0215971083 1.4736681933 13.1862841448
18.8520966542 1.7581607429 15.0850309694
17.8471238918 2.6111047890 16.0363904702
19.1606877855 1.9343513117 17.0766407232
18.2922411577 2.7596074184 17.7579514942
19.2739181759 2.1671449256 18.5717090626
18.6509917025 2.9035497280 19.0954324371
19.2996705368 2.4163633087 19.4899190446
18.7496465818 3.8681006334 4.5853631354
19.7351338830 4.1209085130 3.8262194228
17.7677825410 3.7483042675 5.8581363771
17.1135592536 4.0238260235 7.0264625181
17.4000174147 3.6027474479 17.1369847357
17.8189472724 3.9295222278 18.7340411100
19.0873982845 2.9193944040 19.9022142805
18.6101096651 3.7461875516 19.9447871194
19.5747579111 3.3405173647 20.5695693519
19.0658341756 4.8445652955 4.4203447835
18.2781981457 5.0792872050 5.3215394922
19.2504684619 6.0266441205 4.7828044483
17.3315549449 5.2781048410 6.7250442026
17.9993862246 4.7510421052 19.9458168283
19.0331577194 4.8209619527 21.1025073877
18.0135040932 6.7690776123 5.9994767884
19.1171269099 7.4840996154 5.3196825535
18.4675779100 6.3817200866 21.7617934624
18.1917269485 7.2240108144 22.1466088798
19.2617121640 7.1253532254 22.8207851411
18.2625743509 8.5573552672 6.0424878782
19.7040661208 8.8635991858 5.4305318463
18.6514127644 8.7327017966 23.4646263742
18.2951742805 10.1171610560 23.9831657384
19.3975419025 9.3852299631 24.3331741222
18.5968812970 9.9135563246 6.0446095512
18.4344114928 11.5809932692 6.4490716338
18.0477326638 11.7806618449 24.4667225085
19.3577802233 10.6540684165 24.9954851929
18.3826998165 13.3826679647 6.7632373995
17.5733987177 13.4180788521 24.4046039223
19.0153188855 11.9223851000 25.3866791860
18.6116604691 13.1189324032 25.2948206444
19.7185537668 12.5587962367 25.9323947248
19.1549715433 14.4725043665 7.0410220132
18.2896118930 14.8433980599 24.9076894476
19.6394846778 14.0235722827 25.9565332912
18.1055675357 15.9520806408 7.5338974164
18.7479814567 17.1338291383 8.0994970697
17.3147882320 16.7430585719 22.4754405314
18.0533100255 16.3038267397 23.8208677167
18.9618843737 16.1834520356 24.9874307022
19.6603809933 15.4949471091 25.7938503969
19.4387067507 18.5590329211 8.8546104141
18.4603800191 18.3122537530 21.2247528042
17.9003971063 18.7732684756 20.0621467263
18.5426747214 17.6167271278 22.6137353350
19.4938699972 17.2157915349 24.3421327528
19.8580621020 16.5264239366 25.4289061720
17.8350343753 19.7268303222 9.3333961669
17.7962142830 20.8846799407 9.8587321259
19.1158709595 19.5974465491 19.0548001953
18.1373277096 20.7191403985 17.6685528349
18.5426661906 21.5436410978 10.4888901660
19.0027364054 21.6263260381 16.2335901869
17.9866630031 23.0070404333 15.6582109038
18.0885406707 22.8129111741 11.4320548631
17.9618196669 23.9251423610 12.6992332020
17.7888619010 23.9648595988 14.9765435389
17.6697130692 24.5598752775 13.6231757644
16.7672472211 25.3046242285 13.6285426776
18.0557131461 24.1522598357 14.3549855134
20.4720932517 2.1981863953 3.3730329542
21.1040701376 2.2186818855 2.8960358097
21.3932232267 1.8051288447 3.5925612877
21.4798984294 1.4331947951 4.8134848742
21.1237059377 1.2698207544 6.0829660613
20.9153678938 1.1306716493 7.7022744870
20.7552800897 1.0856923996 9.4232798559
20.6737818975 1.0836003012 11.2386361782
20.6281452893 1.1244602273 13.0830963266
20.5700076893 1.2348864696 14.9306032183
20.5288745465 1.4138233451 16.7480244343
20.4216153779 1.6862752867 18.3558782482
20.1127840907 2.0964869332 19.5106870064
19.6919038945 2.5763035212 20.0749132697
20.6394054891 2.6160172288 20.4672542943
20.6396999662 2.6273277114 3.0002179773
20.7488149444 3.4012733907 3.2279740910
20.7230033638 3.6996998411 21.4110501190
19.7754533571 5.0989976579 4.0758118357
20.8508787330 4.6466128056 3.6579827431
20.2645284090 4.8292353587 21.9972950677
19.5331010422 5.7561828540 22.1511777244
20.9114344466 5.5885486304 22.7378515897
20.3123234279 5.7178085307 4.1659301904
20.6675230715 6.9461253850 4.6676419597
21.0630967436 6.9208101869 23.5860143442
21.2218946606 8.3983224459 5.0945382402
20.0627803526 8.2074993029 23.9593323230
20.9615372314 9.2964638957 24.9133571329
19.5087527990 10.3479944684 5.8123504319
20.8765514411 9.8823707654 5.5447255021
20.4968587688 10.6968526426 25.5830501438
19.8017735131 11.4888483916 25.7043528055
20.7951803096 11.6742071692 26.0639814109
20.0765493696 11.1271947101 5.9715792946
20.4193617024 12.4636022839 6.4664668812
20.9815509520 13.0738092643 26.3888198841
21.0593804855 14.1802790799 7.0804712654
21.1860307140 14.7545070134 26.5166136004
19.8722420472 15.7212323770 7.5492249388
20.5607155801 16.9131210370 8.1566260198
20.6974524865 16.0419982495 26.0185686443
21.2009739402 17.8967643656 8.7438411733
19.1323162838 18.8729567834 20.5350112856
19.5745579289 18.4997985781 21.7938550527
19.9689722310 18.1400158418 23.2551424184
20.5762840979 17.8737856089 24.2815062257
20.9850587514 17.0554431546 25.2520414531
19.3149548200 20.2397825344 9.7929879879
20.9144608729 19.2431210805 9.4994783411
20.9860225338 19.5648990473 18.3539386309
19.7633906541 20.4494932378 17.3782246849
20.5287298100 19.0267138585 20.5475983509
20.8074873618 18.6257569427 22.4091458147
20.9631957579 18.3345380713 23.6031132769
20.4040530769 20.2243943299 10.0544887503
20.0198573713 20.9925389078 10.7731598973
19.2006104944 21.8740049628 11.1257088667
19.7971153487 21.8348889400 11.9029042778
19.0624325979 22.6609023794 14.9338624839
20.0066975636 21.6538876234 14.9810588066
19.6135667427 22.4721948855 14.0146562568
20.2179586740 20.9174716507 16.1059829530
18.7017451864 23.5083799167 13.8868986439
19.2262675806 22.7519592217 12.8766873644
18.4297821631 23.5105543168 14.7773730128
21.7956098003 2.1575069069 2.9140734844
22.6563359488 1.9877326185 3.4603464103
22.7057518962 1.5422750078 4.5327248977
22.6235446720 1.2620673388 5.9696649379
22.4987916871 1.1150794599 7.6030410605
22.4083208909 1.0289742289 9.3604474559
22.3505502280 0.9916151856 11.1732958144
22.3191790546 0.9933768439 13.0163160757
22.2804533693 1.0412041566 14.8594620986
22.1898316515 1.1672388663 16.6579048353
21.9629575640 1.4334789867 18.3103077300
21.4735384207 1.9227401529 19.6560680828
22.2898796658 2.6917630516 20.9870154984
21.4884170724 2.6935553333 2.8364512374
22.3077797788 3.5576654592 3.2983804390
22.0536462162 3.6476975451 21.9162108224
21.2745605978 4.3903895882 22.2054487551
22.4209044138 4.4867032648 22.5690986594
22.0136523793 4.8568694998 3.7312863220
21.2223207752 5.6379773298 4.0216977269
22.2862895836 5.8121457356 4.2197898291
22.7015842500 5.8296550313 23.3813055242
22.4573579211 7.1611366913 4.8087079638
22.2459173721 7.0635149260 24.0313199903
21.3518620402 7.8711364713 24.2693334487
22.5362416489 8.0351691179 24.5987126135
22.4972129218 8.7625975579 5.3504062026
22.9252342403 9.2838649232 25.2592680996
22.0338584012 10.0961104062 5.7008092108
21.1899057967 10.9779869628 5.9178461877
22.5189795088 10.9318755145 6.1843398927
21.8051195058 10.5193574843 25.7557022886
22.2499093768 11.8621515099 26.2982597317
22.5091579971 12.6216122357 6.7958945798
22.6212337442 13.5539142700 26.6864528993
22.7081560123 14.0533676373 7.3056951705
22.1347833739 14.4917360554 26.8896599863
22.0211093341 15.0852977558 26.7911697373
21.6280685229 15.4340152755 7.6465236678
22.4894208347 16.4040110774 8.3462910989
22.6533049861 15.0468710358 26.7902091646
22.1959403288 15.7956238954 26.2635924119
22.5793493193 17.9572806825 9.2529168826
22.7549775819 17.0556640948 25.0412027152
21.6320718884 17.9187583667 24.3407290733
22.1101166733 19.1145327378 9.9695398979
21.2294245589 20.0205817398 10.4618381790
21.2051856237 20.6008930164 11.9336626336
22.4805689965 19.3604913411 11.0789542351
21.5702307173 20.4110105509 13.5146268085
22.4243091882 19.5918164103 12.7275284029
21.1349472477 20.5679600619 15.1149750725
22.3286877635 19.5817621550 14.4792130176
20.8756644935 20.2192347348 16.7195058182
22.0504266156 19.4699882235 16.5364400796
22.3253814382 19.0106021979 18.2470383483
22.0344612107 18.8927284112 19.8286025181
21.9059541070 18.6645316273 21.6373539657
21.8426222629 18.3992073179 23.1818194754
20.4614125108 21.5230246216 13.4554309025
22.3766092904 2.5218802347 2.9937512876
23.4306810351 2.6060418231 3.5136505233
24.0948864656 2.0006514909 4.4894471376
24.0712282481 1.5521152651 5.8940642824
24.0570300587 1.3197817547 7.5309748094
24.0055832508 1.1402697057 9.2787051317
23.9323846816 1.0135146587 11.0653199194
23.8974340590 0.9690306459 12.8907062735
23.8689608640 0.9855409528 14.7349195324
23.7993691414 1.0841316418 16.5583765291
23.6050303115 1.3313613785 18.2765092275
23.1522676374 1.8199085792 19.7649477678
24.1573577267 2.5057969654 21.0279379193
23.9401860320 3.4530451525 3.7365599588
23.3926701307 3.4383155518 21.9696271337
24.0002697648 4.5103870917 22.7797087612
23.2258680357 4.5564983070 3.8639325008
23.9036626430 5.5732192011 4.5745824302
24.5198702990 5.7562871815 23.5219336788
24.0025392920 7.2622395706 5.2868090131
23.5684968773 6.9054703551 24.1074446536
24.0934991214 8.1213844715 24.7341046819
23.7165585794 8.6048263938 5.6388823504
23.0247256499 9.5879379466 5.7690034791
24.1732181938 9.3782331121 6.1979154063
24.5354118793 9.5128673740 25.3180873576
24.0641590738 11.0891368719 6.7901103220
23.4277893713 10.6198564914 25.8712901883
23.8120486458 12.0324011754 26.3096510235
24.0854149120 12.7554477013 7.3118596726
24.1187138075 13.2222562309 26.4730295730
23.7676996826 14.0584472606 7.6169649752
22.9895107993 15.0010013818 7.7672491855
24.1496497940 14.8283724816 8.2525276062
22.7669790259 14.4533093354 26.8886994137
23.5639387467 14.6235213345 26.5153138607
24.1010311388 16.3485220285 9.1405947609
23.7557946382 15.9344471677 25.8119276189
23.8041012717 17.5474319876 9.7279947273
23.3802893936 18.6974354943 12.0313740854
24.0709460262 17.9993322119 11.4913459225
23.5039490727 18.5214567977 10.9551273088
23.3266966869 18.6906243116 13.6177621579
24.1914184859 17.8319783026 12.7257255869
23.2463538089 18.6255808531 15.4506690805
24.2080235907 17.7327764616 14.4567802452
23.2239554827 18.4968904040 17.3131396400
24.1947322128 17.6689074341 16.3066571057
23.1959838077 18.3687365844 19.0979679209
24.1818196779 17.6162294355 18.1628843827
23.0856352753 18.2695894455 20.8831853993
24.1457567942 17.5667821984 20.0113790290
22.9381883313 18.1132219359 22.6079577277
24.0534336147 17.4817610620 21.8596083194
22.6376788105 17.8894627375 23.8946261239
23.8166372371 17.2548778021 23.7278214539
24.0557423449 16.6108463178 24.9736500142
23.1584558020 18.4713847915 10.1335196982
24.6627652189 2.7533635584 4.1607642815
25.2465775730 2.4943232099 4.9848080478
25.2758524162 2.1572119331 5.9643623436
25.3467194604 1.8813478285 7.4427318751
25.4538078569 1.5783448758 9.1733828128
25.1958421434 1.1620219748 10.8456759368
25.1107327759 1.0081458181 12.5981444668
25.0776023437 0.9794358524 14.4205179952
25.0394080012 1.0535695883 16.2685045585
24.9525683723 1.2959642677 18.0995746691
24.7156217972 1.7764076444 19.7436459120
25.5930629502 2.5567322732 21.0936793118
24.8827792649 3.5139474254 4.2224893624
24.3583463787 4.2287678410 4.1393878773
25.1223740086 4.4045598816 4.7738499581
24.9148325800 3.4338032702 22.0397985965
25.4998740359 4.6149431575 22.8643971307
25.1479540919 5.8007055599 5.3913777811
25.7149831528 6.0361904771 23.6483620450
25.1305463155 7.0241616987 5.8026098100
24.5789139763 8.0125087983 5.8237808910
25.3882846199 7.9494807731 6.4309135996
25.0146783709 7.0059452172 24.1716208339
25.5287349182 8.3948759793 24.7232150625
25.3907241810 9.5284711743 7.0821393337
25.7361967391 10.1572125902 25.2163811058
25.2792079150 11.2891622154 7.5590206657
24.8790546032 10.9893212613 25.7799932603
25.0746279172 12.3835636906 26.0563108712
25.1607296681 12.5807572006 7.8540747734
24.5908310137 13.5385709385 7.8185058275
25.3187215987 13.4959977502 8.4823567892
25.0144159853 13.7124365198 26.0930837202
25.2236319111 14.7922513053 9.1636022973
24.8429415444 14.9954148270 25.7965928879
25.1786933110 15.7469026188 9.7805701594
24.6904028646 16.7561609133 10.1671801757
24.8406913942 16.9862119883 11.5782173096
25.5031437945 15.7992999314 10.7855860741
25.0289343843 16.7888355611 13.3972757827
25.7017845344 15.7173876808 12.2895918352
25.0695680014 16.7099823525 15.2438455768
25.8041123942 15.6272773265 14.0712749880
25.0775453821 16.6821869699 17.1170050255
25.8446812671 15.6020349784 15.9369745113
25.0764874889 16.6692180848 18.9979925439
25.8695683950 15.6220209844 17.8410887814
25.0545154701 16.6347279544 20.8829613549
25.8877961139 15.6418594284 19.7645030337
24.9783525407 16.5329786862 22.7224999724
25.8842012720 15.5786107618 21.6983913338
24.8896729065 16.2842424830 24.2862245951
25.7688687935 15.4818859193 23.4778047995
24.7065623197 15.9253063396 25.2925556086
25.4869099986 15.2939011761 24.8517292554
24.0960739984 17.7785579949 10.5660359781
25.4837434591 3.3271183739 4.9067149724
25.9501924586 3.1366425682 6.0360987540
26.1968886406 2.9103060446 7.4345411321
26.3197006605 2.5768175736 8.7413861043
26.3014962351 2.1495155316 9.5528311947
25.8769322568 1.4334870784 10.4900492504
25.6974996478 1.1088940751 12.0352497883
25.6340954690 1.0007867002 13.7893590602
25.6037120082 1.0271171327 15.6265439091
25.5794138133 1.2247838930 17.5183982212
25.6405982197 1.7679522486 19.5762416675
26.0691217956 2.4001770615 20.8780791239
25.9761229808 4.6073306775 5.9490194463
26.5606328722 4.3563376439 7.4243083769
26.8881827397 4.2502282748 9.0421600022
26.8204478668 3.3589064060 9.4709291027
25.8839246783 3.5034580748 22.0943036541
26.1742176232 3.0880844324 21.7040780504
25.9091788062 6.3837538380 6.3518332241
26.5138637381 5.7572091134 7.2275934807
26.9977082690 6.2956350039 8.9415338832
27.1896537341 4.8325461305 10.1645262496
27.2914700718 6.1806940797 10.6593132458
27.3672948998 5.8788434562 10.9911832326
26.1423064052 4.0982528821 22.5064093641
26.0976534830 5.3119019585 23.2323233671
26.4215646827 7.6896466139 7.6265980997
26.9733311304 7.4718903425 8.6663640990
27.2133794954 7.5143189400 9.7897353711
27.2663934501 8.7414806329 10.5748946311
27.2946111846 7.9385248024 10.9347960376
27.4242162605 6.8433516683 11.6869949072
27.4048247319 7.8028208645 12.0430310087
27.4502793256 7.7707392691 12.3954551973
25.9074548314 7.1414171047 24.1727188951
26.1819437176 6.5705444190 23.8680388182
26.3446102066 9.9871593968 8.2664050628
26.7933254814 8.7034413467 8.3764949082
27.1798690181 10.0060336750 11.3519356524
27.1131322173 9.8819305209 10.2320524663
27.3246137751 9.6394955544 12.8226206500
27.4190139199 8.8277052844 12.9536766615
26.1494822886 7.8429585763 24.4137694957
26.1505759509 9.3823269041 24.8460824592
25.9575430203 11.9507129017 8.5671768771
26.8801126137 9.8863198323 9.1570240156
26.7552415120 11.1824050917 10.0069351422
26.9642235203 11.6939529448 11.7790123004
27.1141840105 11.4427844202 13.1409780826
27.3679660098 10.2932984545 14.0153415219
27.2342306003 11.5533876288 14.7960452489
27.3366732428 11.3221195374 15.1070450820
25.9092431725 11.7648015760 25.4213968702
26.4018035073 11.3529122242 24.9104152642
26.0974317479 13.3933239615 9.7659483369
26.6148242879 13.0239768749 11.4012280741
26.7954103410 12.9832111452 13.1000003030
26.9006473193 12.9855046676 14.8725261317
27.2545072582 12.2478579285 16.2784226674
27.0075780830 13.2004545368 16.9150828057
27.0023947454 13.7662054031 19.1171448277
27.1922374664 13.1172476632 18.0602114061
27.0372938724 13.8922023291 20.8255041921
27.2001670174 13.5277810629 19.7542114675
27.2028003456 13.6602283553 20.8741298099
26.4694869354 13.1192454474 24.5312972146
26.7716854604 12.6066520154 24.3111256448
26.8811136532 13.4356712120 23.3840250304
25.8287280081 12.9864965635 25.5839650201
25.7619636871 14.8682663085 10.0650747960
26.1247516994 14.5458567440 11.1511800023
26.3357846249 14.3976066971 12.7772330298
26.4287697640 14.3592754957 14.5790797152
26.4904585146 14.4026564795 16.4836703951
26.5348912689 14.5429549847 18.4718132994
26.5700861776 14.6174226082 20.4518962544
27.0527530885 13.7835049085 21.9524710528
26.5986089277 14.3069797867 22.6129143831
26.1661114720 14.5042738919 24.2365258410
25.7953999407 14.1245002065 25.2973874709
3 2 1 0
3 0 3 2
3 6 5 4
3 6 4 1
3 4 0 1
3 4 7 0
3 3 0 8
3 8 0 7
3 5 9 4
3 4 9 7
3 7 9 10
3 7 10 8
3 12 11 2
3 2 11 1
3 2 3 12
3 12 3 13
3 15 14 6
3 6 14 5
3 6 1 11
3 6 11 15
3 8 13 3
3 8 16 13
3 14 17 5
3 5 17 9
3 9 18 10
3 17 18 9
3 8 10 16
3 16 10 18
3 21 20 19
3 19 22 21
3 25 24 23
3 25 23 20
3 20 23 19
3 23 11 19
3 11 12 19
3 27 26 13
3 13 26 12
3 26 22 12
3 22 19 12
3 27 28 26
3 31 30 29
3 31 29 24
3 24 29 23
3 29 14 23
3 14 15 23
3 23 15 11
3 16 32 27
3 16 27 13
3 28 27 33
3 33 27 32
3 30 34 29
3 34 36 35
3 34 35 17
3 29 34 17
3 14 29 17
3 37 18 17
3 37 17 35
3 32 16 18
3 37 32 18
3 38 32 37
3 33 32 39
3 39 32 38
3 42 41 40
3 40 43 42
3 46 45 44
3 46 44 41
3 41 44 40
3 44 20 40
3 20 21 40
3 48 47 22
3 22 47 21
3 47 43 21
3 43 40 21
3 48 49 47
3 52 51 50
3 52 50 45
3 45 50 44
3 50 24 44
3 24 25 44
3 44 25 20
3 26 48 22
3 54 53 28
3 28 53 26
3 53 49 26
3 49 48 26
3 56 55 54
3 54 55 53
3 56 57 55
3 50 51 31
3 51 30 31
3 51 58 30
3 50 31 24
3 60 59 54
3 28 60 54
3 33 60 28
3 54 59 56
3 56 59 61
3 56 61 57
3 34 30 62
3 30 63 62
3 30 58 63
3 62 36 34
3 66 65 64
3 65 60 64
3 60 39 64
3 60 33 39
3 69 68 67
3 67 70 69
3 73 72 71
3 73 71 68
3 68 71 67
3 71 41 67
3 41 42 67
3 75 74 43
3 43 74 42
3 74 70 42
3 70 67 42
3 75 76 74
3 79 78 77
3 79 77 72
3 72 77 71
3 77 45 71
3 45 46 71
3 71 46 41
3 47 75 43
3 81 80 49
3 49 80 47
3 80 76 47
3 76 75 47
3 83 82 81
3 81 82 80
3 83 84 82
3 77 78 52
3 78 51 52
3 78 85 51
3 77 52 45
3 81 49 53
3 88 87 86
3 90 89 88
3 87 88 89
3 81 55 83
3 55 81 53
3 89 90 57
3 90 84 57
3 83 55 57
3 83 57 84
3 85 58 51
3 91 58 85
3 86 87 59
3 60 86 59
3 92 86 60
3 59 87 61
3 61 87 89
3 61 89 57
3 91 63 58
3 93 63 91
3 95 94 65
3 95 65 66
3 60 65 92
3 92 65 94
3 98 97 96
3 100 99 96
3 96 99 98
3 100 101 99
3 104 103 102
3 104 102 97
3 102 96 97
3 102 105 96
3 96 106 100
3 96 105 106
3 101 100 107
3 107 100 106
3 102 103 108
3 108 103 109
3 108 68 69
3 105 108 69
3 102 108 105
3 106 105 110
3 105 70 110
3 70 111 110
3 70 105 69
3 106 110 107
3 114 113 112
3 114 112 109
3 109 112 108
3 112 72 108
3 72 73 108
3 108 73 68
3 115 111 70
3 115 70 74
3 74 76 115
3 115 76 116
3 112 113 79
3 113 78 79
3 113 117 78
3 112 79 72
3 76 80 118
3 119 76 118
3 116 76 119
3 82 120 80
3 80 120 118
3 84 120 82
3 123 122 121
3 117 123 121
3 85 117 121
3 78 117 85
3 119 118 88
3 86 119 88
3 124 119 86
3 88 118 90
3 90 118 120
3 90 120 84
3 122 125 121
3 85 121 125
3 126 85 125
3 91 85 126
3 129 128 127
3 128 124 127
3 124 92 127
3 124 86 92
3 131 93 130
3 93 126 130
3 93 91 126
3 132 131 130
3 135 134 133
3 133 134 129
3 133 129 127
3 95 133 127
3 94 95 127
3 94 127 92
3 138 137 136
3 140 139 136
3 136 139 138
3 140 141 139
3 144 143 142
3 146 145 142
3 142 145 144
3 145 146 137
3 146 136 137
3 146 147 136
3 136 148 140
3 136 147 148
3 141 140 149
3 140 150 149
3 140 148 150
3 150 151 149
3 154 153 152
3 152 155 154
3 158 157 156
3 158 156 143
3 156 142 143
3 156 159 142
3 159 97 98
3 146 159 98
3 142 159 146
3 146 98 99
3 146 99 147
3 147 99 101
3 160 147 101
3 148 147 160
3 162 150 161
3 150 160 161
3 150 148 160
3 150 162 151
3 153 163 152
3 152 163 155
3 156 157 164
3 164 157 165
3 164 103 104
3 159 164 104
3 156 164 159
3 159 104 97
3 167 166 160
3 101 167 160
3 107 167 101
3 160 166 161
3 164 165 168
3 168 165 169
3 168 109 103
3 168 103 164
3 111 170 110
3 170 171 110
3 171 107 110
3 171 167 107
3 168 169 114
3 169 113 114
3 169 172 113
3 168 114 109
3 115 170 111
3 115 116 170
3 116 171 170
3 116 173 171
3 176 175 174
3 178 177 174
3 174 177 176
3 172 177 178
3 117 172 178
3 113 172 117
3 119 173 116
3 119 179 173
3 175 180 174
3 182 181 180
3 122 180 181
3 180 122 174
3 123 174 122
3 174 123 178
3 123 117 178
3 181 182 183
3 186 185 184
3 185 179 184
3 179 124 184
3 179 119 124
3 181 125 122
3 188 187 126
3 188 126 125
3 183 188 125
3 181 183 125
3 189 187 188
3 186 184 128
3 129 186 128
3 190 186 129
3 128 184 124
3 187 130 126
3 192 191 132
3 192 132 130
3 189 192 130
3 187 189 130
3 134 135 191
3 192 134 191
3 193 134 192
3 129 134 190
3 190 134 193
3 196 195 194
3 194 197 196
3 194 195 198
3 198 195 199
3 197 194 200
3 200 194 198
3 199 201 198
3 198 201 200
3 204 203 202
3 202 205 204
3 208 207 206
3 210 209 206
3 206 209 208
3 210 211 209
3 214 213 212
3 216 215 212
3 212 215 214
3 215 216 203
3 216 202 203
3 216 217 202
3 205 202 218
3 202 219 218
3 202 217 219
3 219 220 218
3 223 222 221
3 223 221 207
3 221 206 207
3 221 224 206
3 206 225 210
3 206 224 225
3 211 210 226
3 210 227 226
3 210 225 227
3 226 227 213
3 227 212 213
3 227 228 212
3 228 137 138
3 216 228 138
3 212 228 216
3 216 138 139
3 216 139 217
3 217 139 141
3 229 217 141
3 219 217 229
3 220 219 230
3 230 219 229
3 221 222 231
3 231 222 232
3 221 233 224
3 221 231 233
3 224 234 225
3 224 233 234
3 234 143 144
3 227 234 144
3 225 234 227
3 227 144 145
3 227 145 228
3 228 145 137
3 149 229 141
3 149 151 229
3 151 230 229
3 151 235 230
3 231 232 154
3 232 153 154
3 232 236 153
3 231 154 155
3 237 231 155
3 233 231 237
3 237 157 158
3 234 237 158
3 233 237 234
3 234 158 143
3 161 238 162
3 238 239 162
3 239 151 162
3 239 235 151
3 236 240 153
3 153 240 163
3 163 240 155
3 240 241 155
3 241 237 155
3 241 240 242
3 241 165 157
3 241 157 237
3 167 243 166
3 243 244 166
3 166 244 161
3 244 245 161
3 245 238 161
3 238 245 239
3 242 246 241
3 165 241 246
3 247 165 246
3 169 165 247
3 249 248 243
3 167 249 243
3 171 249 167
3 243 248 244
3 252 251 250
3 247 252 250
3 172 247 250
3 169 247 172
3 173 249 171
3 173 253 249
3 254 175 176
3 177 250 176
3 251 176 250
3 176 251 254
3 255 254 251
3 254 255 256
3 177 172 250
3 256 255 257
3 179 253 173
3 179 258 253
3 254 180 175
3 180 254 182
3 182 254 256
3 260 259 183
3 260 183 182
3 257 260 182
3 256 257 182
3 261 259 260
3 263 262 185
3 263 185 186
3 179 185 258
3 258 185 262
3 259 188 183
3 265 264 189
3 265 189 188
3 261 265 188
3 259 261 188
3 267 266 264
3 267 264 265
3 267 263 266
3 263 190 266
3 263 186 190
3 264 192 189
3 192 264 193
3 193 264 266
3 193 266 190
3 270 269 268
3 272 271 268
3 268 271 270
3 274 273 272
3 272 273 271
3 276 275 274
3 274 275 273
3 278 277 276
3 276 277 275
3 278 279 277
3 269 280 268
3 268 280 272
3 272 280 281
3 283 282 281
3 282 272 281
3 282 274 272
3 274 284 276
3 274 282 284
3 276 285 278
3 276 284 285
3 279 278 286
3 278 287 286
3 278 285 287
3 287 288 286
3 282 283 289
3 289 283 290
3 282 291 284
3 282 289 291
3 291 195 196
3 285 291 196
3 284 291 285
3 285 196 197
3 292 285 197
3 287 285 292
3 288 287 293
3 287 294 293
3 287 292 294
3 296 295 294
3 294 295 293
3 296 297 295
3 300 299 298
3 300 298 290
3 298 289 290
3 298 301 289
3 289 302 291
3 289 301 302
3 302 199 195
3 302 195 291
3 200 303 292
3 200 292 197
3 292 304 294
3 292 303 304
3 294 305 296
3 294 304 305
3 297 296 306
3 296 307 306
3 296 305 307
3 307 308 306
3 298 299 309
3 309 299 310
3 298 311 301
3 298 309 311
3 301 312 302
3 301 311 312
3 313 201 199
3 302 313 199
3 312 313 302
3 303 200 201
3 313 303 201
3 314 303 313
3 303 315 304
3 303 314 315
3 315 203 204
3 305 315 204
3 304 315 305
3 305 204 205
3 316 305 205
3 307 305 316
3 308 307 317
3 307 318 317
3 307 316 318
3 318 319 317
3 309 310 320
3 320 310 321
3 320 207 208
3 311 320 208
3 309 320 311
3 311 208 209
3 311 209 312
3 312 209 211
3 322 312 211
3 313 312 322
3 322 213 214
3 314 322 214
3 313 322 314
3 314 214 215
3 314 215 315
3 315 215 203
3 218 316 205
3 316 218 220
3 323 316 220
3 318 316 323
3 319 318 324
3 324 318 323
3 320 321 223
3 321 222 223
3 321 325 222
3 320 223 207
3 226 322 211
3 322 226 213
3 230 326 323
3 230 323 220
3 324 323 327
3 327 323 326
3 325 232 222
3 328 232 325
3 235 329 326
3 235 326 230
3 327 326 330
3 326 331 330
3 326 329 331
3 331 332 330
3 334 236 333
3 236 328 333
3 236 232 328
3 335 334 333
3 337 336 329
3 235 337 329
3 239 337 235
3 329 336 331
3 331 336 338
3 331 338 332
3 334 240 236
3 242 240 334
3 335 242 334
3 339 242 335
3 341 340 245
3 341 245 244
3 239 245 337
3 337 245 340
3 339 342 242
3 242 342 246
3 247 246 342
3 247 342 343
3 345 344 248
3 345 248 249
3 244 248 341
3 341 248 344
3 346 251 252
3 347 346 252
3 247 347 252
3 343 347 247
3 350 349 348
3 349 345 348
3 345 253 348
3 345 249 253
3 346 255 251
3 352 351 257
3 352 257 255
3 347 352 255
3 346 347 255
3 353 351 352
3 350 348 354
3 350 354 355
3 258 354 253
3 253 354 348
3 351 260 257
3 261 260 351
3 353 261 351
3 356 261 353
3 359 358 357
3 357 358 355
3 357 355 354
3 263 357 354
3 262 263 354
3 262 354 258
3 356 360 261
3 261 360 265
3 357 267 359
3 267 360 359
3 267 265 360
3 267 357 263
3 363 362 361
3 269 270 361
3 270 363 361
3 270 364 363
3 365 270 271
3 365 364 270
3 366 271 273
3 366 365 271
3 367 273 275
3 367 366 273
3 368 275 277
3 368 367 275
3 370 369 279
3 369 277 279
3 369 368 277
3 372 371 370
3 370 371 369
3 374 373 372
3 372 373 371
3 374 375 373
3 361 362 376
3 376 362 377
3 378 280 269
3 361 378 269
3 376 378 361
3 379 281 280
3 379 280 378
3 379 283 281
3 286 370 279
3 370 286 288
3 380 370 288
3 372 370 380
3 372 381 374
3 372 380 381
3 375 374 382
3 374 383 382
3 374 381 383
3 383 384 382
3 377 385 376
3 387 386 385
3 386 376 385
3 386 378 376
3 378 388 379
3 378 386 388
3 388 290 283
3 388 283 379
3 293 380 288
3 380 293 295
3 380 295 381
3 381 295 297
3 389 381 297
3 383 381 389
3 384 383 390
3 390 383 389
3 386 387 391
3 391 387 392
3 391 299 300
3 388 391 300
3 386 391 388
3 388 300 290
3 306 389 297
3 394 393 308
3 308 393 306
3 393 390 306
3 390 389 306
3 394 395 393
3 391 392 396
3 396 392 397
3 396 310 299
3 396 299 391
3 317 394 308
3 399 398 319
3 319 398 317
3 398 395 317
3 395 394 317
3 399 400 398
3 397 401 396
3 310 396 401
3 402 310 401
3 321 310 402
3 324 403 399
3 324 399 319
3 400 399 404
3 404 399 403
3 402 325 321
3 405 325 402
3 327 406 403
3 327 403 324
3 404 403 407
3 403 408 407
3 403 406 408
3 408 409 407
3 405 328 325
3 410 328 405
3 330 406 327
3 406 330 332
3 411 406 332
3 408 406 411
3 409 408 412
3 412 408 411
3 410 413 328
3 328 413 333
3 335 333 413
3 335 413 414
3 337 415 336
3 416 338 336
3 416 336 415
3 411 332 338
3 416 411 338
3 417 411 416
3 412 411 418
3 418 411 417
3 414 339 335
3 419 339 414
3 421 420 340
3 421 340 341
3 337 340 415
3 340 422 415
3 340 420 422
3 415 422 416
3 416 422 423
3 416 423 417
3 417 423 424
3 417 424 418
3 419 425 339
3 339 425 342
3 343 342 425
3 343 425 426
3 428 427 344
3 428 344 345
3 341 344 421
3 421 344 427
3 426 347 343
3 429 347 426
3 431 430 349
3 431 349 350
3 345 349 428
3 428 349 430
3 429 432 347
3 347 432 352
3 353 352 432
3 353 432 433
3 355 431 350
3 355 434 431
3 436 356 435
3 356 433 435
3 356 353 433
3 358 359 436
3 435 358 436
3 437 358 435
3 355 358 434
3 434 358 437
3 436 360 356
3 360 436 359
3 440 439 438
3 362 363 438
3 363 440 438
3 363 441 440
3 442 363 364
3 442 441 363
3 443 364 365
3 443 442 364
3 444 365 366
3 444 443 365
3 445 366 367
3 445 444 366
3 446 367 368
3 446 445 367
3 447 368 369
3 447 446 368
3 448 369 371
3 448 447 369
3 449 371 373
3 449 448 371
3 451 450 375
3 450 373 375
3 450 449 373
3 451 452 450
3 439 453 438
3 362 438 453
3 454 362 453
3 377 362 454
3 382 451 375
3 382 384 451
3 384 452 451
3 384 455 452
3 385 377 456
3 377 457 456
3 377 454 457
3 456 387 385
3 390 459 458
3 455 390 458
3 384 390 455
3 459 460 458
3 457 461 456
3 387 456 461
3 462 387 461
3 392 387 462
3 393 459 390
3 393 395 459
3 395 460 459
3 395 463 460
3 462 397 392
3 464 397 462
3 465 463 395
3 465 395 398
3 398 400 465
3 465 400 466
3 401 397 467
3 397 468 467
3 397 464 468
3 467 402 401
3 404 470 469
3 466 404 469
3 400 404 466
3 470 471 469
3 468 472 467
3 402 467 472
3 473 402 472
3 405 402 473
3 407 470 404
3 407 409 470
3 409 471 470
3 409 474 471
3 473 410 405
3 475 410 473
3 412 474 409
3 412 476 474
3 475 477 410
3 410 477 413
3 414 413 477
3 414 477 478
3 418 476 412
3 418 479 476
3 478 419 414
3 480 419 478
3 421 481 420
3 482 422 420
3 482 420 481
3 483 423 422
3 483 422 482
3 423 483 484
3 485 423 484
3 424 423 485
3 418 424 479
3 479 424 485
3 425 419 486
3 419 487 486
3 419 480 487
3 486 426 425
3 489 488 427
3 489 427 428
3 421 427 481
3 427 490 481
3 427 488 490
3 481 490 482
3 482 490 491
3 482 491 483
3 483 491 492
3 483 492 484
3 487 493 486
3 429 426 486
3 494 429 486
3 493 494 486
3 429 494 495
3 496 495 494
3 499 498 497
3 430 431 497
3 498 430 497
3 500 430 498
3 428 430 489
3 489 430 500
3 495 432 429
3 502 501 433
3 502 433 432
3 496 502 432
3 495 496 432
3 501 502 499
3 497 501 499
3 503 501 497
3 434 503 431
3 431 503 497
3 501 435 433
3 435 501 437
3 437 501 503
3 437 503 434
3 505 504 440
3 440 504 439
3 506 440 441
3 506 505 440
3 507 441 442
3 507 506 441
3 508 442 443
3 508 507 442
3 509 443 444
3 509 508 443
3 510 444 445
3 510 509 444
3 511 445 446
3 511 510 445
3 512 446 447
3 512 511 446
3 513 447 448
3 513 512 447
3 514 448 449
3 514 513 448
3 515 449 450
3 515 514 449
3 450 452 515
3 515 452 516
3 504 517 439
3 439 517 453
3 454 453 517
3 454 517 518
3 455 520 519
3 516 455 519
3 452 455 516
3 520 521 519
3 523 457 522
3 457 518 522
3 457 454 518
3 524 523 522
3 458 520 455
3 458 460 520
3 460 521 520
3 460 525 521
3 523 461 457
3 462 461 523
3 524 462 523
3 526 462 524
3 463 528 527
3 525 463 527
3 460 463 525
3 528 529 527
3 526 464 462
3 530 464 526
3 465 528 463
3 465 466 528
3 466 529 528
3 466 531 529
3 533 468 532
3 468 530 532
3 468 464 530
3 534 533 532
3 535 531 466
3 535 466 469
3 469 471 535
3 535 471 536
3 533 472 468
3 473 472 533
3 534 473 533
3 537 473 534
3 474 536 471
3 474 538 536
3 537 475 473
3 539 475 537
3 476 541 540
3 538 476 540
3 474 476 538
3 539 542 475
3 475 542 477
3 478 477 542
3 478 542 543
3 545 544 541
3 476 545 541
3 479 545 476
3 543 480 478
3 546 480 543
3 548 547 485
3 548 485 484
3 479 485 545
3 545 485 547
3 550 487 549
3 487 546 549
3 487 480 546
3 552 551 550
3 552 550 549
3 554 553 551
3 554 551 552
3 556 555 553
3 556 553 554
3 558 557 555
3 558 555 556
3 488 489 557
3 558 488 557
3 559 488 558
3 488 560 490
3 559 560 488
3 490 561 491
3 560 561 490
3 491 562 492
3 561 562 491
3 484 492 548
3 548 492 562
3 550 493 487
3 493 550 494
3 494 550 551
3 494 551 496
3 551 563 496
3 551 553 563
3 499 563 498
3 563 555 498
3 563 553 555
3 498 555 500
3 500 555 557
3 500 557 489
3 563 502 496
3 502 563 499
3 564 504 505
3 564 505 565
3 505 566 565
3 505 506 566
3 567 506 507
3 567 566 506
3 568 507 508
3 568 567 507
3 569 508 509
3 569 568 508
3 570 509 510
3 570 569 509
3 571 510 511
3 571 570 510
3 572 511 512
3 572 571 511
3 573 512 513
3 573 572 512
3 574 513 514
3 574 573 513
3 575 514 515
3 575 574 514
3 515 516 575
3 575 516 576
3 564 517 504
3 518 517 564
3 565 518 564
3 577 518 565
3 578 576 516
3 578 516 519
3 519 521 578
3 578 521 579
3 577 580 518
3 518 580 522
3 524 522 580
3 524 580 581
3 525 579 521
3 525 582 579
3 581 526 524
3 583 526 581
3 584 582 525
3 584 525 527
3 527 529 584
3 584 529 585
3 587 530 586
3 530 583 586
3 530 526 583
3 588 587 586
3 531 585 529
3 531 589 585
3 587 532 530
3 534 532 587
3 588 534 587
3 590 534 588
3 591 589 531
3 591 531 535
3 535 536 591
3 591 536 592
3 590 537 534
3 593 537 590
3 538 592 536
3 538 594 592
3 596 539 595
3 539 593 595
3 539 537 593
3 597 596 595
3 538 540 598
3 599 538 598
3 594 538 599
3 596 542 539
3 543 542 596
3 597 543 596
3 600 543 597
3 599 598 544
3 545 599 544
3 601 599 545
3 600 546 543
3 602 546 600
3 605 604 603
3 607 606 603
3 607 603 604
3 609 608 606
3 609 606 607
3 611 610 608
3 611 608 609
3 613 612 610
3 613 610 611
3 615 614 612
3 615 612 613
3 617 616 614
3 617 614 615
3 619 618 616
3 619 616 617
3 547 548 618
3 619 547 618
3 620 547 619
3 545 547 601
3 601 547 620
3 602 621 546
3 546 621 549
3 603 552 605
3 552 621 605
3 552 549 621
3 552 603 554
3 554 603 606
3 554 606 556
3 556 606 608
3 556 608 558
3 558 608 610
3 558 610 559
3 559 610 612
3 559 612 560
3 560 612 614
3 560 614 561
3 561 614 616
3 561 616 562
3 562 616 618
3 562 618 548
3 623 622 566
3 566 622 565
3 624 566 567
3 624 623 566
3 625 567 568
3 625 624 567
3 626 568 569
3 626 625 568
3 627 569 570
3 627 626 569
3 628 570 571
3 628 627 570
3 629 571 572
3 629 628 571
3 630 572 573
3 630 629 572
3 631 573 574
3 631 630 573
3 632 574 575
3 632 631 574
3 575 576 632
3 632 576 633
3 635 577 634
3 577 622 634
3 577 565 622
3 636 635 634
3 637 633 576
3 637 576 578
3 578 579 637
3 637 579 638
3 635 580 577
3 581 580 635
3 636 581 635
3 639 581 636
3 582 638 579
3 582 640 638
3 642 583 641
3 583 639 641
3 583 581 639
3 643 642 641
3 644 640 582
3 644 582 584
3 584 585 644
3 644 585 645
3 642 586 583
3 588 586 642
3 643 588 642
3 646 588 643
3 589 645 585
3 589 647 645
3 646 590 588
3 648 590 646
3 649 647 589
3 649 589 591
3 591 592 649
3 649 592 650
3 652 593 651
3 593 648 651
3 593 590 648
3 653 652 651
3 594 650 592
3 594 654 650
3 652 595 593
3 597 595 652
3 653 597 652
3 655 597 653
3 599 654 594
3 599 656 654
3 658 600 657
3 600 655 657
3 600 597 655
3 660 659 658
3 660 658 657
3 662 661 659
3 662 659 660
3 664 663 661
3 664 661 662
3 666 665 663
3 666 663 664
3 668 667 665
3 668 665 666
3 670 669 667
3 670 667 668
3 672 671 669
3 672 669 670
3 674 673 671
3 674 671 672
3 676 675 673
3 676 673 674
3 676 656 675
3 656 601 675
3 656 599 601
3 677 602 658
3 658 602 600
3 605 677 604
3 677 659 604
3 677 658 659
3 604 659 607
3 607 659 661
3 607 661 609
3 609 661 663
3 609 663 611
3 611 663 665
3 611 665 613
3 613 665 667
3 613 667 615
3 615 667 669
3 615 669 617
3 617 669 671
3 617 671 619
3 619 671 673
3 619 673 620
3 620 673 675
3 620 675 601
3 677 621 602
3 621 677 605
3 678 622 623
3 624 679 623
3 623 679 678
3 625 680 624
3 624 680 679
3 626 681 625
3 625 681 680
3 681 626 682
3 626 683 682
3 626 627 683
3 684 627 628
3 684 683 627
3 685 628 629
3 685 684 628
3 686 629 630
3 686 685 629
3 687 630 631
3 687 686 630
3 688 631 632
3 688 687 631
3 632 633 688
3 688 633 689
3 678 634 622
3 634 678 636
3 678 690 636
3 678 679 690
3 691 679 680
3 690 679 691
3 692 680 681
3 691 680 692
3 681 682 693
3 681 693 692
3 633 637 694
3 695 633 694
3 689 633 695
3 638 694 637
3 696 639 690
3 690 639 636
3 697 690 691
3 696 690 697
3 698 691 692
3 697 691 698
3 692 693 699
3 700 692 699
3 698 692 700
3 701 700 699
3 702 695 694
3 694 638 702
3 638 703 702
3 638 640 703
3 696 641 639
3 641 696 643
3 696 704 643
3 696 697 704
3 698 706 705
3 704 698 705
3 697 698 704
3 708 707 706
3 698 708 706
3 700 708 698
3 700 701 709
3 710 700 709
3 708 700 710
3 711 710 709
3 640 644 712
3 713 640 712
3 703 640 713
3 645 712 644
3 714 646 704
3 704 646 643
3 704 705 715
3 704 715 714
3 707 708 716
3 707 716 717
3 718 708 710
3 716 708 718
3 710 711 719
3 710 719 718
3 720 713 712
3 712 645 720
3 645 721 720
3 645 647 721
3 722 648 714
3 714 648 646
3 714 715 723
3 724 714 723
3 722 714 724
3 724 723 717
3 716 724 717
3 725 724 716
3 726 716 718
3 725 716 726
3 718 719 727
3 728 718 727
3 726 718 728
3 729 728 727
3 647 649 730
3 731 647 730
3 721 647 731
3 650 730 649
3 722 651 648
3 651 722 653
3 722 732 653
3 722 724 732
3 733 724 725
3 732 724 733
3 734 725 726
3 733 725 734
3 735 726 728
3 734 726 735
3 728 729 736
3 737 728 736
3 735 728 737
3 739 738 737
3 739 737 736
3 741 740 738
3 741 738 739
3 742 740 741
3 745 744 743
3 743 744 731
3 730 743 731
3 746 743 730
3 654 746 650
3 650 746 730
3 747 655 732
3 732 655 653
3 748 732 733
3 747 732 748
3 749 733 734
3 748 733 749
3 750 734 735
3 749 734 750
3 751 735 737
3 750 735 751
3 752 737 738
3 751 737 752
3 753 738 740
3 752 738 753
3 740 742 754
3 755 740 754
3 753 740 755
3 755 754 745
3 743 755 745
3 756 755 743
3 757 743 746
3 756 743 757
3 656 757 654
3 654 757 746
3 747 657 655
3 657 747 660
3 660 747 748
3 660 748 662
3 662 748 749
3 662 749 664
3 664 749 750
3 664 750 666
3 666 750 751
3 666 751 668
3 668 751 752
3 668 752 670
3 670 752 753
3 670 753 672
3 672 753 755
3 672 755 674
3 674 755 756
3 674 756 676
3 676 756 757
3 676 757 656