OFF
1317 2606 0
1.5676204995 8.7303930065 5.9629199647
1.8040871786 8.5742252573 5.5346047477
1.8003631609 8.2661636988 5.8359133319
1.8139499637 8.2813514658 6.3919223775
1.5225562676 8.8488566319 6.4170264184
1.7317108396 8.7522257869 6.7808460495
1.6831032234 9.2559225187 5.5901388686
1.4731652331 9.2731897346 6.1964598731
1.5538200486 9.7673628515 6.0357345392
1.6238701417 9.2771246195 6.7191906754
1.5866788089 9.7602008960 6.4834202544
2.1098812603 7.8701473648 6.0159505132
2.2033337965 8.0629794727 5.5135106158
2.6680580774 7.5217256637 5.8119013693
2.5154393876 7.5576813476 6.3576649756
2.1135040978 7.8388839147 6.3746047539
2.3017555667 7.8761989122 6.7326024062
2.2512276535 8.6821486362 5.0795946242
2.1374448754 8.3903742937 7.0105671144
2.0805463412 9.0736891607 7.1921676752
2.6979246433 8.5847890190 7.4850049329
2.0883740784 9.7745686416 4.9839060891
2.6435307273 9.8240502602 4.3252101727
2.5696430089 9.1055023559 4.5822906798
1.7364481771 10.0499751795 5.6402504990
2.0050454607 9.9665281324 7.0568289437
2.7857534032 9.5459486741 7.7529394872
2.2637575632 10.5788362643 4.6392413351
2.6689901904 10.7739956324 4.1083108262
1.9925012905 10.9854467870 5.4144121982
1.7921419645 10.4784128824 6.3207326909
2.1439644123 10.9803171934 7.0494087695
2.6043989784 10.5922114881 7.5685067476
2.2841487186 11.5245792643 4.6135171409
2.7094944425 11.8031988367 3.9612774409
2.1211190427 11.8079864321 5.1633359456
2.0786266416 11.8771667244 5.6648505735
2.1007097414 11.8012039144 6.5082819298
2.1940423137 12.5164271964 5.9326731097
2.2683132242 11.6283932637 7.1734946448
2.4970153096 11.3186526661 7.4543587445
2.4163569936 12.2577127569 4.4028439513
2.6586324656 12.6166700127 4.1509067359
2.2793878674 12.3211489484 4.8867880169
2.2529320362 12.8651393183 6.5730287173
2.3380000360 13.1703528805 6.1345823977
2.3505858288 12.0982348131 7.2001024241
2.4079229946 12.6873717490 7.1077741526
2.7645080540 12.3669676566 7.5442202118
2.4895358983 12.7861109482 4.5958043260
2.3985371245 13.4722584640 6.5811085170
2.4968568791 13.4140777298 7.0288481016
2.6193102293 13.8854718698 6.8268219675
2.9740478872 13.2928204586 7.5504959577
2.8670904118 13.9349830946 7.2568426830
3.0246834168 7.6862836448 5.1792281819
3.1861008182 7.1576112491 5.7254032318
3.2466641740 7.0560105194 6.3167768032
2.9352552248 7.5119030126 6.8945462721
2.6348005456 8.0015021554 7.1750222414
3.2913622763 7.8647070444 7.4448827301
2.8671453920 8.4565870309 4.6520024903
3.2764656535 8.8669326465 4.2062853073
3.4273597773 8.0407432479 4.5570766963
3.5392326001 8.7630632748 7.9174360176
3.3598919095 9.8898027240 3.7779869532
3.2397371333 9.4224632392 8.1243276487
3.1983902670 9.7106277432 8.1385591206
3.3292217748 9.5859976003 8.2415637052
3.1608600485 10.9606216356 3.6226197738
3.4834696459 9.6876020627 8.2028691582
3.3494551756 10.1624088878 7.9993250240
3.1855772880 11.6862388764 3.5002949078
3.6948556972 11.8357269350 3.2052451209
3.5902512645 11.1537831630 3.3020271942
2.1933610270 12.3192289826 5.3791236526
2.5558875409 11.8104470213 7.4750764450
3.1946527185 11.4184129436 7.7904037374
3.1154262100 12.5393141189 3.6469835833
3.7876202252 12.7514801937 3.1396223467
2.4560324136 13.0750647164 5.3402899452
3.5265116327 12.5264192840 7.8695211460
3.3717896674 13.3428128871 3.5621316348
3.8834579510 13.6539137325 3.1329051047
2.9220344839 13.4120600186 4.3566688574
2.9094153726 14.0319199239 5.3320133333
2.6479512179 13.8485792460 6.1792687521
3.7484421740 13.3475816306 7.9485317891
3.5175467254 14.0769022886 3.8005342766
3.3192996030 14.3927897932 4.6852748780
3.2475127713 14.6411137401 5.4035268929
3.1071440882 14.5699242773 6.0002280897
3.3833128703 14.9226637504 5.7476837726
3.0936363926 14.4584177269 6.8500533965
3.6024153539 14.2355327551 7.7459850068
3.6405719683 15.2261314098 6.2994046064
3.6728174577 15.0372034181 7.2908590490
4.6909951248 4.8041348885 7.0973033908
4.6193782445 4.7613403412 6.7763681539
4.8681081019 4.3729203517 7.0066193797
5.2112749381 4.3690761410 7.4746660317
4.3721948273 5.5045058800 6.7256861902
4.5597765665 5.3152743882 6.1028405289
4.5673449885 4.9584380315 6.5132828001
4.7830881329 5.2205121485 7.3453466140
4.5034318675 5.6635973000 7.1865754007
3.9361711826 6.4874053547 5.7535683631
4.7588635280 6.3909531282 5.0580182585
4.7291770954 5.7081553222 5.5410460453
3.8944514280 6.4150199520 6.6052722487
4.2657832762 6.1522190849 7.1174070108
3.9966652082 7.2835783516 4.8255980868
4.1359411940 8.0172003856 4.2362197139
4.9153371123 7.1778237532 4.4852937732
3.7577993687 6.9876886362 7.1133526054
4.2683666141 7.4969415607 7.7290025936
4.2003349812 8.8755938115 3.7307026082
4.5158899716 8.3404499808 8.0102784758
4.0714228077 9.6191241341 3.4378622614
4.5333512688 9.8573261285 3.1897876288
4.5815214641 9.2204269038 3.3682733624
3.5248165122 9.3994375586 8.1886376863
4.1578316182 9.4016335947 8.1132569049
3.8092889763 10.3813394300 3.3531813931
4.3582239803 10.8642885376 3.0559785115
4.2781516057 10.5255138784 8.0525830075
4.4901805951 11.9135408691 2.8818612238
4.3562179098 11.6486975612 8.0417252368
4.5893102109 13.0319549490 2.7321219865
4.4697453454 12.6757486827 8.1322144777
4.3674245509 13.9610618070 2.7109487151
4.6647052994 14.2104589395 2.4742554605
4.9099411551 13.7319956017 2.4791582115
4.4935401996 13.6429185871 8.2620918677
4.4510375462 14.4622513655 2.6925960024
4.8042623952 14.5636353274 2.5489974380
4.0987293108 14.4721657897 3.2226079537
3.8707541156 14.8126367750 4.1237795593
3.6955799013 15.0664594492 5.1820373361
4.3598772871 14.4186413106 8.3174414958
4.2255315272 15.1460363125 8.0864687119
4.9010573363 14.7018404553 8.7244652413
4.6184653278 14.8496620960 2.9782202902
4.3980969004 15.0472863394 3.6020553219
4.4431200236 15.4510166196 4.4543008744
4.2091081794 15.6739848258 5.5295601786
4.2159868536 15.8703516912 6.3067904275
4.6264055984 16.1290766355 5.8267189046
4.1757213056 15.7655239869 7.2146460565
4.5050139475 15.8891755040 8.1002410675
4.9048119742 15.5421520053 8.8861902304
4.6814528826 16.3138595565 6.5658217424
4.7844718066 16.4679072128 7.5995614280
4.8542912796 16.2476794439 8.5221346748
5.3758115014 3.5492386068 6.6849590546
5.6385120667 3.5280221415 6.2462925148
5.6450221452 3.1763949893 6.6294335996
5.6810713036 3.1408582566 6.9759790646
5.2602358404 3.7993338038 7.0596252684
5.9075269405 3.3092155134 7.5442432265
4.9807856621 4.3562292323 6.4496596920
5.4274652928 4.2408949551 5.8943977392
5.9841093880 4.0627129866 8.0272931160
5.0988536951 4.9334906459 5.7554023820
5.5245844920 5.3857308105 5.2292988512
5.6560001122 4.5621971277 5.5170581716
4.7376921761 5.8832764170 7.5044840608
5.5276680389 5.2815483011 7.9239975842
5.7116425200 6.3118712508 4.7701049382
4.4200498367 6.5905359320 7.4863150699
5.0501211075 6.5075473588 7.8346840218
5.1800687290 8.0211295626 3.9212927925
5.9383091470 7.1510183125 4.3391383612
5.2663177643 7.4655136094 8.0239748081
4.9712018248 8.7330178569 3.5002372538
5.2055134979 9.2341769897 3.2237654647
5.7548157465 8.5784262797 3.4826569553
5.3334168920 8.5071268312 8.1069956428
6.1898804202 9.0195650731 16.2425518141
6.2885629211 9.2023870582 16.0849523649
6.3388624206 8.9093171966 16.2566639304
6.3060042512 9.0197964624 16.3577505411
5.2698360721 10.0328808258 2.9843625764
5.3334683333 9.5915206321 8.1191888365
6.2294650323 9.2255556980 16.1879063773
5.3241376636 10.9893638306 2.7863658692
5.3862235336 10.6912834687 8.1246825514
5.4431475746 12.0336416658 2.6241165780
5.4496127254 11.7768268199 8.2039716586
5.9434391612 12.1494512331 14.7502970510
6.1301596101 12.3394636074 14.4196892160
6.2077203754 11.7930892741 14.7631137693
6.1990105012 11.6200615407 15.2170770255
5.9246842893 12.1369297691 15.1061682199
6.1517242805 12.0268866801 15.4244577586
5.6194193443 13.1140213566 2.5096592803
5.4680942798 12.8215541420 8.3904071349
6.0478861785 12.6339599494 14.4396894034
5.9401447692 12.5304479543 14.8461003129
6.1300188852 12.8974179574 14.5470219870
6.0842192457 12.4392145240 15.3103278160
5.0545041589 14.2064471977 2.4118677442
5.4178255837 13.8483073008 2.4451289922
5.2422246628 13.5802945602 8.5609952009
4.8885675720 14.0959983956 8.5733275534
5.6658175615 13.9853643008 8.8868931413
6.3369182860 12.9364797634 15.0022133988
5.2038430576 14.5553251581 2.5349675057
5.0683965686 14.8556569070 2.7986061484
5.6814050558 14.7427257373 2.8494592448
5.7198718571 14.8064404243 9.4247253112
5.1456310042 15.3150797491 3.5090231798
5.1212105260 15.8359404162 4.3380950916
5.7984034269 15.9125626413 4.0853678979
4.8457632347 16.0215348193 5.0750443949
5.4340735687 15.5035045448 9.6875562843
5.2508226441 16.2198472213 9.4364225910
5.6494929329 15.7324774237 10.3472043721
5.6893921373 16.4185715542 10.4694714014
5.8779362250 15.7958279932 11.0933003416
5.9338417898 16.1875451960 11.2533358851
6.1946775179 15.7567431947 11.7069636875
5.4547331742 16.2131898560 4.7512581903
5.3596867185 16.5538596830 5.6597423681
5.2312132052 16.8258696024 6.7403104960
5.2838612778 17.0089868207 7.4841000132
5.6739293818 17.2458706848 6.9594574382
5.2655592766 16.8919796993 8.4319573553
5.6004412988 17.0095829394 9.4987103045
6.0703058943 17.1795979645 10.2896774129
6.1745421508 16.6892421502 11.1015140678
6.2832779975 16.2108894163 11.6656529071
5.7608023326 17.4217225411 7.6811679677
5.8999096335 17.5872589535 8.6692695135
6.0089713916 17.5487892727 9.5180540176
6.1209231209 2.7209375999 6.5906292448
6.6951328743 2.3834381506 6.2024061424
6.6261793991 2.1880999331 6.5910276233
6.6421131197 2.1703460038 6.9864080040
6.1726906727 2.6668942039 7.1750288788
6.8005433554 2.3552041438 7.6020274020
6.2890653154 3.0559325125 5.9444740832
6.6792046582 3.3811768417 5.5024559911
6.8516143941 2.7215867433 5.7544272213
6.7161129541 3.1211641342 8.1545330679
5.9852189527 3.8450798527 5.6756879614
6.4151035881 4.3623443703 5.2770475127
6.5780529805 3.8294591652 8.3945170510
6.3611291698 4.5673127040 8.3766246785
7.0560265255 4.0046054897 8.6406283681
6.5703892375 5.3692751292 4.9974683985
6.3630811299 5.3571215108 8.3602452899
7.0186131987 4.8174177539 8.6306050047
6.8081085950 6.4071513584 4.7001079804
7.0379705996 5.6871383660 8.5056071655
6.0883065428 6.3593778591 8.1845392732
6.5111816124 7.8886316632 3.9278949274
6.7128943114 7.1979376594 4.3457416168
6.2798941261 7.5360388214 8.1739367265
6.1501122346 9.3249069678 3.0962993582
6.5522963053 8.6138354562 3.4394120653
6.3880340249 8.6016553243 8.1565801261
6.5065659212 9.0788656898 16.0902154467
6.6686641858 8.8516551756 16.2572296216
6.4790608909 8.8142508649 16.3874068137
6.4022794229 8.9515791164 16.4560492948
6.0624926851 10.2243873453 2.8088597973
6.4422719581 9.6794082512 8.1614980917
6.3750704311 9.6931727963 15.9272919542
6.5679943776 9.6745476461 15.8210202860
6.4346992255 9.4394318509 16.2053701741
6.5634413968 9.2228001867 16.3909460801
6.3918990365 11.0781295622 2.5623189087
6.4935870757 10.7763664995 8.2193743531
6.4882179840 10.7555761668 15.3751423758
6.7695450074 11.0675584911 15.2091968504
6.7324354000 10.3823674238 15.5120942050
6.5940941131 10.0638090654 15.8782283663
6.6985902759 10.9361458971 15.5767734210
6.3922053803 12.1872429713 2.4350155992
6.6017611288 11.9205642069 8.3869599577
6.3928449725 12.2779515247 14.4195201724
6.6623284091 11.8262986614 14.7962887765
6.6555072641 11.7697886415 15.6452496649
6.4621458913 12.2829664788 15.6993093560
6.9258199052 12.1671333550 15.9170241411
6.6448866036 13.0675440034 2.4805525782
6.3083539908 12.7862241605 8.5702081372
5.8304687805 13.2931573931 8.6490827096
6.5358388624 13.3279115380 8.8510962954
6.5953741107 13.0065842733 14.1139111706
6.2568939904 12.9754470653 14.2958367288
6.7490948721 12.5894586394 14.4117545538
6.4602092363 12.7096941400 15.5592236195
7.0142388684 12.6759817979 15.9131202206
5.4856152617 14.2688003188 2.5022157090
6.0924608875 13.9403439952 2.6094989450
6.7605718427 14.0401210618 9.3899717125
6.6375520208 13.3927572533 14.2779000553
6.9573338597 13.3150452942 14.7940009988
6.8918634549 13.1318831300 15.4922776821
6.6051524663 14.6507578254 3.0026654032
6.7235933951 14.6270621603 10.1185317742
6.0136124550 15.1381783145 10.2559836417
6.7664511374 14.8589269668 10.9726180203
6.1298748389 15.3091722605 10.9837478740
6.6280668017 15.0242389601 11.5826304841
6.2371678760 15.3891338648 11.5489852009
6.7209524372 15.1153118556 12.2241251066
6.1738448310 15.3522020780 3.4320944376
6.7154523872 15.9275535085 3.9936254985
6.6617313660 15.7995407097 12.2064785396
6.2226926295 16.5020904614 4.7767260279
6.1469602496 16.9649751888 5.5076649060
6.8670118909 17.0890809069 5.2246683754
5.8643619443 17.1357960789 6.2185811115
6.3433738299 17.1181070605 10.8016383297
6.6606794157 17.0153845424 11.1459504570
6.9395834682 16.5063427152 11.8713070808
6.4877672174 17.3483141242 5.8700163670
6.4270585931 17.6671740248 6.7483439840
6.3582977456 17.9055277451 7.8146334094
6.4511962872 18.0550300592 8.4919228776
6.8705220081 18.2495626554 8.0582193229
6.4029940159 17.9594163720 9.1384179567
6.5118958821 17.7622775379 9.8483267579
6.8169737001 17.4523664611 10.5843529474
7.0498786334 18.3126553385 8.7418638388
6.9266377146 18.1325760053 9.4246728407
7.2439428340 1.8304906589 6.6191341915
7.9453973164 1.7891431438 6.1897579843
8.1625881976 1.4232735507 6.7699304317
7.7336504847 1.4932475629 7.1573106245
7.1823539383 1.8040619134 7.2277263014
7.6873968949 1.7009119441 7.6523807375
7.3092473447 2.2194442763 5.9492835018
7.4469028549 2.8302967631 5.5186817688
7.8837579721 2.2277178544 5.7630594748
7.5987579024 2.2439283344 8.1816954657
7.2081881390 3.6409428367 5.2861726225
7.4093708498 2.8647467701 8.4788710113
7.0713344404 3.3990215957 8.5300497585
7.8235617063 3.2156777754 8.7527188639
7.4063693020 4.3852323213 5.1583935866
7.8037557638 4.1435123046 8.8597940266
7.7067476014 5.3600764618 5.0732384886
7.7958953976 5.0109370618 8.7701381652
7.8585705923 6.3619725485 4.9129600249
7.9684958401 5.8251744074 8.5912603213
7.1653997821 6.6224196396 8.3500361501
7.0573111574 7.4886349875 4.2419473274
7.3969314481 7.0744338792 4.5232514639
7.3627434774 7.6056227536 8.2527127216
7.0173479671 9.0585196787 3.2029812916
7.3336742716 8.4799422181 3.5980650706
7.6978607598 7.7930685380 4.1474825425
7.4926019320 8.6368000109 8.2291037565
6.8212588333 9.1780726531 16.0714549097
6.9712895866 8.9337551951 16.2577459730
6.8477418174 8.8157195664 16.3487434358
7.1591426865 9.9678057176 2.7732949813
7.8802127956 9.1588507619 3.2031601790
7.5228337326 9.7345598075 8.2646845641
6.9094813931 9.7858789618 15.8629986918
6.9362280020 9.3040086820 16.3393602874
6.7748612044 9.5793317691 16.2011770941
7.2925696365 10.8389471568 2.3977048386
7.8066835048 11.1966929016 2.1724711047
8.0630731710 10.5854880204 2.3627199143
7.5629763279 10.8344690254 8.3552262613
6.9272538146 10.7805373930 15.5053695430
6.8644573412 10.0824758571 15.8790058999
7.1421135515 11.5547394086 2.2848683537
7.9074938520 11.7896332133 2.0702073588
7.8129662222 11.8419710854 8.5312517743
7.0955590505 11.7187787731 15.1281264744
7.2634128288 11.6940146380 15.5605936915
7.2134557272 11.9665000454 15.8690940512
7.4334861096 12.3497999748 16.0444959432
7.2256888778 12.3373857572 2.2804519223
8.0146774505 12.4153286622 2.1824550134
7.1208358638 12.6249098145 8.6537289862
7.5705186891 13.2765210678 9.0491825650
7.0905336651 13.1761910849 14.3360297577
7.2228859727 12.7688290815 14.7174384600
7.6348399889 12.8016785084 16.0864328533
7.4214122500 12.9685738123 2.4364784024
7.1895458339 13.8031514416 2.7612442373
7.7660763023 13.8855803105 9.5782915069
7.0737934581 14.1535569490 13.2769472448
7.5172424141 14.1059010574 13.0027993478
7.5697263566 13.6882941047 13.7089570715
7.6226914858 13.3587575580 14.4558256518
7.1999531521 14.2724824971 13.9551393624
7.1115351757 13.5514476371 14.4031782039
7.3784682552 13.7537808840 14.6619506479
7.4113456447 13.6537283470 15.3375271554
7.5720635189 13.3004935560 15.8704339791
7.3532080721 14.5894018901 3.1536341102
7.4768631653 14.2977327979 9.9865345795
7.8027432190 14.5647662555 10.8163075279
7.5290538386 14.5177824414 12.1548577786
7.0964024350 15.1721497581 13.0163653257
7.6118085277 15.1692599988 13.7049759975
7.7449136090 14.6609396303 14.4000366829
7.9976037774 14.3115621710 15.1369803649
7.9034023116 13.8507444986 15.6465452543
7.0699914757 15.2456691588 3.4633465092
7.7266855538 15.7164961157 3.9560735671
7.1450803399 15.9099451363 12.6029743906
7.5225921254 15.6896520293 13.1303327628
7.2747350026 16.5247883378 4.5367700965
7.9198324801 17.2395030499 5.0925960323
7.9813687592 16.8080965044 12.0997402830
7.3999035189 17.1532399870 11.2970317962
7.7175871387 16.2390484274 12.7300204113
7.2109480384 17.7002773786 5.8710497567
7.2427712043 18.0905762702 6.5203600559
7.6114552453 18.1378170046 6.1811801130
7.0652079771 18.2052561393 7.2851179395
7.8970626360 17.7052534230 10.6344450524
7.2629577110 17.9691684943 9.9724424360
8.0441202687 18.5392473686 6.7273633808
7.6809631770 18.5316457805 7.9973405156
7.7006032940 18.5113773552 8.7237061511
7.6657185387 18.3455557277 9.3243714105
8.6293269719 1.5463978267 6.4017666810
9.0448879647 1.2938398650 6.9197912135
8.5434180374 1.3177319487 7.4739763626
8.3843268936 1.6248207759 8.0869231573
8.1817562608 2.6011766082 5.5631092985
8.6273371540 2.0749687570 5.9331906567
8.3263083881 2.0118739023 8.4530283224
7.9742204291 2.4909878824 8.5687955940
8.7525848326 2.3607257504 8.7707907593
8.0887450978 3.3900385618 5.3470110068
8.8283289158 2.7869448254 5.6090615335
8.8899017529 3.3661121395 9.0840506233
8.4301366992 4.2863600809 5.2938710360
8.4782287703 4.3713623158 8.9731420505
8.5346407007 5.0001667090 5.3146710586
8.4572468515 5.7106593607 5.2492117195
9.1167892924 5.1291001290 5.5277811885
8.6714862384 5.0611290684 8.8328778545
8.5772622192 6.3897367347 5.1308971080
9.1523008624 5.9290758853 5.4469764673
8.9631351096 5.7870188141 8.6128531417
8.2557113964 6.6508733474 8.4152087333
8.4216257084 7.1156658262 4.7251198871
9.2178138717 6.6773127380 5.1800695731
8.5096021020 7.5712054254 8.3397767064
8.3752351401 8.5358599004 3.7050953985
8.9099962252 7.9387627424 4.2507580051
8.6642127097 8.6505986039 8.3977846621
7.0570601095 9.2218183845 16.1549930429
7.0714060815 9.0781727437 16.3055499617
8.4449271210 9.8768214283 2.7569726037
8.9800276752 9.2421315717 3.2456346204
8.4656032768 9.8767311409 8.4550636861
7.0275358448 9.4719123971 16.1657233862
8.7893101214 11.3575464601 1.9758545135
9.0123658055 10.5406477656 2.3239508554
8.4754565107 10.9038785910 8.5496952440
8.7001947397 11.9167272627 1.8504038966
9.2197409238 11.8765046917 1.6447469173
9.2590843704 11.6851782213 1.7426853001
8.5940775835 11.6550776799 8.6639424336
7.6519137256 12.3482923323 15.2123729443
7.8884660031 12.2728050629 15.5993405905
7.7150544299 12.1679850243 15.8791384592
7.9526385803 12.6054963372 16.0387378581
9.0547830859 12.0201124663 1.7579477260
8.9103953293 12.2912814497 2.1100492990
8.1357278211 13.1385203838 2.6227561384
8.6396568759 13.4517902444 3.0574737795
8.8645319448 12.9104961624 2.7076722795
9.2109199027 13.2367038140 3.1029252414
7.8556333043 12.6110209092 8.7350403628
8.4142452244 12.3182462128 8.7491090454
7.8534270088 12.9249747076 14.9116442641
8.2643224757 12.9181157396 15.3929334984
8.0726427271 13.1334998681 15.9995195937
8.0837158434 14.1266988395 3.2007417556
9.0604593814 13.9776379942 3.5416241005
8.2730256539 12.9018032867 8.9515452319
8.6172783932 13.4142184377 9.4740435722
7.9355098872 14.1017276970 13.0439558302
8.3307092300 13.9629294876 13.5400049379
8.4254290994 13.7288351112 14.2466127380
8.2614004700 13.3194367581 14.8089673157
8.1313690638 13.6237509347 15.8517010377
7.7587779532 14.9550980960 3.4914728268
8.5093616400 14.9548328355 3.8077916030
8.3884758123 14.2338422246 10.2190708209
8.3894522440 14.6037618577 10.6657933954
8.6759945633 14.5454652038 10.6666827246
8.4626789078 14.6460204390 10.9639800245
8.7626945685 14.4648620477 11.6712833513
8.7099706300 14.2628532143 13.0049298670
8.0819032587 15.2919350941 14.1524743398
8.3629266481 15.0560547903 14.7185482898
8.8877309808 14.8304803502 15.2493726188
8.4375579928 14.1078542153 15.5668855872
8.4907029182 15.7493392301 4.1666043902
8.5810638671 14.6771532446 10.7954631751
8.6247941930 15.6429371015 14.3304516187
8.1587340706 15.8357984408 13.5821425189
8.9645466519 15.4331912957 14.8753842865
8.2015754358 16.3976444494 4.4604377593
8.9056506417 16.8184970201 4.7644489760
8.9061919879 17.0442786022 12.2149190617
8.3570669749 17.3042902753 11.4518921019
8.7232583809 16.5297725099 13.0753790889
8.0631154884 18.0420298982 5.8103831855
9.0128591568 17.7963573913 5.3115295122
7.9878292391 18.1296100526 9.9516665054
8.7889891325 18.1147605828 10.2716404077
8.3901518149 18.3690266888 9.5957866186
8.8048090970 17.6951618109 10.9792786518
8.7704826217 18.5407406206 6.0006267341
8.7756777258 18.9184006841 6.4839152919
9.3618638082 19.0101053509 6.2790356300
8.7754231957 19.0098664555 6.9375895227
8.7474851113 18.9297073581 7.7089929547
8.5254483471 18.6590589197 8.8553272570
9.1784428009 19.1648495202 6.7199879335
9.4395325308 1.6855496385 6.4472909960
9.8979914978 1.3234346180 7.0466979933
9.5879144401 1.2088326669 7.5721962873
9.2166784186 1.3779215478 8.1029103236
8.8783611622 1.7256722996 8.4521384855
9.5863625379 1.7532708583 8.6237745594
9.4628953056 2.4354517611 5.9991278671
9.7294120175 2.4102554343 9.0986324697
8.9599422543 3.4798498654 5.4713548988
9.4273279461 3.0536059486 5.7270956269
9.6754721188 2.9547152803 9.3399401446
9.6026062557 3.4381623092 9.3132832393
10.0608889081 3.0963918751 9.4180641843
9.1542297204 4.0042196423 5.4985240105
8.9940663634 4.5271770854 5.4633549750
9.6360619290 4.2700675232 5.7621935061
10.0503888740 3.6591343662 9.2589736579
9.3523552682 4.1908801440 9.0735965136
10.0007727737 5.2916141015 5.8735989226
9.5505541140 5.0292253891 8.7949046325
9.7844083577 6.2041535174 5.5430607924
9.7985073511 5.5968294588 8.5863045437
9.5271001809 6.4504986767 8.4584973454
9.5159059099 7.3778118495 4.7791708805
10.1001842913 6.8225484587 5.2680692769
9.6910145242 7.4714213402 8.4881313317
9.5128172715 8.6527669386 3.7727187741
10.0472291868 8.0647507623 4.3060961786
9.6119261744 8.2624640166 8.5941713019
9.3589662905 9.0984103581 8.6558605794
10.1981847947 8.4102735610 8.8553114578
9.6451655175 10.0223663241 2.7648027164
10.0902162926 9.3552377186 3.3202425725
9.2429040887 10.1250304269 8.7581478860
10.0697322317 9.3544013734 9.0290205030
9.4688039161 11.0420036830 1.9982357270
9.7492686557 10.6300085004 2.3077678177
9.1782413326 11.1282880944 8.8565161686
9.9931433916 10.4489609397 9.2217781069
9.6798458185 11.7721125999 1.6098175284
9.8821153767 11.4544150903 1.7851977068
9.3345939948 11.4889542383 1.8215693647
9.3138448716 11.7325529366 1.9212016009
9.2437922382 11.9042982798 2.0140241613
9.3073903649 11.8413251718 1.8552633543
9.5755617018 12.0266125884 2.1002530116
9.0408923503 12.0320985726 8.9526755862
9.7362626170 11.5842791944 9.3033100815
8.1217618042 12.5208064874 15.8132145612
9.4873208416 11.9712833168 1.7645892211
9.5728593827 12.5542352889 2.5683262048
10.0691695217 13.4849922957 3.4371597157
8.7851674766 12.7053440141 9.0529794356
9.4498346337 12.6516905957 9.4816133960
8.2808303696 12.9157886074 15.8587189359
9.7351965529 14.1463896380 3.8876754567
9.3513158785 14.7037314490 4.0378882643
10.0370532340 14.6770528399 4.1799713900
9.4149311087 13.4020600000 9.8708434648
8.8969720883 14.0600800575 13.8384130403
9.1573867145 14.0413717285 14.4312498443
8.8372507431 13.7358807276 15.0168768545
8.5119727796 13.5360648082 15.6566449297
9.0577997378 14.2644321024 15.3744647042
9.1036293062 15.4671936640 4.2348661938
9.7404789694 15.2480528944 4.3183444606
9.0828564930 13.8658905160 10.0921133119
9.1904454386 14.2373987318 10.8380921815
8.7492212272 14.5877237850 10.9648693537
9.8657518956 14.2204847299 11.8870800662
9.7334839286 14.3631737998 12.8897693871
9.6549240245 14.3273903353 13.9985251259
9.7024828708 14.8985365722 15.3918044993
8.8740216110 16.1209666160 4.4283829122
9.6432795275 16.0932853662 4.5395083632
8.9284526727 16.1308726266 13.9401315044
9.3514243784 15.9406454721 14.6147440360
9.6789100101 15.5208808622 15.2574690014
9.8260499873 17.0856216623 4.8796918777
9.5717996611 17.2637309954 12.2244371237
9.2199812610 17.4476655484 11.6073702401
9.6100868447 16.9855623733 12.9291258166
9.8445934862 16.5590115918 14.0243893305
10.1567856306 16.1144040925 15.0146192712
10.1680271016 17.9514595705 5.2230642567
9.0005054404 18.4858158650 9.6457632211
9.6641101259 18.4393570380 10.1761036840
9.7469308893 17.9674443737 11.0631007013
9.6512391346 18.5716069144 5.7173204656
10.2086956106 19.1165830500 6.1853505042
9.5181101719 19.2283853752 7.8341602330
9.3109293790 19.2237778775 7.2399774081
9.4879431618 19.0614334103 8.5241484177
9.5953580708 18.8010825749 9.4039440776
9.8671929123 19.3426755297 6.8745989684
10.1404221887 1.6112484840 6.7506168112
10.4617969798 1.4881069043 7.1396814092
10.4993101610 1.3470457349 7.6787460957
10.1235785781 1.3858006843 8.2117150426
10.5635656038 1.8776867777 8.7735332230
10.1239965070 2.1656974746 6.4842219459
10.5467862215 1.8563892068 6.9208186968
10.3801520178 2.3749692374 9.2033093822
10.0836239772 2.6685985066 9.3715856777
10.4645381190 2.7890858857 9.3217592435
9.5114549445 3.5722066987 5.6794995887
10.0650715484 3.2019297757 6.1555499487
10.4127272338 3.2501210428 9.3160486542
10.3801846465 4.2413283132 6.2510276499
10.5430790490 3.6598634135 9.0591763260
10.2461310495 4.3402999762 8.8724616680
10.6619199752 4.8702555732 6.3363349355
10.7436280970 5.4258256420 6.1897590804
11.1734625152 5.0491083081 6.5694404407
10.2305191651 5.0752380576 8.6511661550
10.7930093646 4.7765914864 8.5055302147
10.6568732145 5.5884911763 8.4317863403
10.6358269892 6.1226039523 5.7857240634
11.3196086440 5.6984644965 6.2610565357
10.7334990238 6.5153051785 8.4985120732
10.5557732901 7.4666957655 4.8304644137
11.0639819523 6.8741108317 5.3393053974
10.5652989776 7.2088756798 8.6393083794
10.2046787023 7.7632617335 8.6833649372
11.0086995872 7.5613751683 8.9160427061
10.7629355149 8.8020227774 3.8074047034
11.1252288493 8.0658045960 4.3661893273
11.0637646406 8.5149631431 9.3212491473
10.7310604446 10.0257394672 3.0118868682
10.9858819649 9.5014737510 3.3718956324
10.7085486259 9.5865227141 9.4632463609
10.0589644333 11.0148219412 2.1028853623
10.5567027162 10.7257998242 2.5302187640
10.6653663974 10.2919160591 9.6331539329
10.4696272926 11.0709978748 9.7022640973
11.1215447039 10.5122378381 10.0233361122
10.1139922942 11.7374767332 1.6559987177
10.3955279789 11.6730957570 1.8656590470
9.5763271741 11.9260569084 1.9206407561
10.5526886682 11.3689529888 2.1485815826
10.2915985906 12.0711870552 9.8914271387
11.0923063211 11.4520276533 10.2986198548
9.9877939890 11.9016323273 1.7025892819
10.0463640296 12.1062212287 2.1001190604
10.6808401597 12.6625626844 2.8518068589
11.1250972699 13.3127914356 3.3794917699
10.1231450449 13.0715603458 10.2847508278
10.8867750767 12.4276346343 10.5520124221
10.2787061773 14.1649656468 3.9567146290
11.0374301436 14.1306032694 3.8391390452
9.6322617038 13.7260208851 10.3824898204
10.8872026987 13.1498910660 11.0802109462
10.1929396430 13.7644238509 11.1461880207
11.0109040024 13.6583649015 11.8075421241
10.5662066049 14.0054419342 12.0160395871
11.0731249774 13.9953500241 12.4347551148
9.6748467290 14.4019734386 14.9729120148
10.6112224284 14.6324247552 4.1539883262
10.5756436317 15.4676636765 4.3860184514
10.6938264492 14.2904272282 12.8606846479
10.5915886379 14.5284748714 13.8915803851
10.4913154768 14.6739864590 14.8016905343
10.3977327086 14.9400728144 15.4073319871
10.3330660512 15.3709486662 15.6100883742
10.8268483995 15.3032961261 15.6852328125
10.4639139062 16.4614311457 4.6504419361
10.3805322024 15.7941146372 15.5161350137
10.8519289369 15.6719807563 15.7182266959
10.8387711643 17.2621287678 4.8585498486
9.8878306501 17.5712730552 11.8663290005
10.2094075382 17.3964503683 12.5719549975
10.4336426952 17.1178585947 13.4310503542
10.7512720667 16.8697535617 14.1135538161
10.8663947483 16.4800622950 14.7790631338
10.8403196403 16.0645992377 15.4223964333
11.2085821453 18.0996916266 5.1637620700
10.5706395500 18.2807649968 11.1770596880
10.2746556498 18.4258581090 10.6549045893
10.6383249053 17.9132002422 11.9319728531
11.1157422046 17.5570847351 12.9957909738
11.1175952377 17.1604131497 13.7499347514
10.6416623264 18.6701675786 5.6125158233
11.1510532144 19.2273490183 6.0897548553
9.8748472658 19.3912498581 7.5371646786
10.1560527124 19.3888836096 8.2188287728
10.3574847613 19.2151274161 9.1340410016
10.4777481997 18.8482341359 10.0989127960
10.7529559245 19.5092443184 6.7977656181
10.5114888551 19.5674357519 7.5979045427
11.1365594216 19.6512350653 8.6763573624
11.2578159388 19.3278842843 9.8187573970
10.9250819697 1.8004291098 7.4990436610
11.0947530568 1.5356233823 7.9932059646
10.8961487815 1.4814047150 8.2964372748
11.1794742703 1.7195558871 8.5539011034
10.7554363518 2.6048375528 6.9762205315
11.2030051793 2.4338322728 7.8098205199
11.3204060090 1.8556138626 8.0855000157
10.8246460595 2.4678151690 8.9864722878
11.1769878581 2.1089655306 8.6500645510
10.7329920813 3.5565693306 6.7005845335
11.1836987838 3.5579778016 7.4944736370
11.3519415337 2.1855636480 8.3235066732
11.1581697121 2.8085218553 8.4369279706
10.7921565543 3.1314150156 9.0124859886
10.9870156803 4.3100142810 6.7415887570
11.5792530094 4.6607340575 7.1090981312
11.5215793558 4.3673185222 7.7263915114
11.6176475901 4.9799826690 8.0515883725
11.0335348998 3.9372826768 8.4339278456
11.7079975852 5.3120030356 6.6785218542
11.7148406708 5.8267440188 8.3280451273
11.5940626522 6.3324256538 5.8361887515
12.1058162528 5.8478914425 6.3581693770
11.6880815458 6.4018125458 8.5852345354
11.1870286909 6.8690195351 8.6957379166
11.9104749291 6.8465898325 8.8900738560
11.5725769071 7.4438481611 4.8681568746
11.9854755387 6.8865448770 5.3599034366
12.0053477820 7.5055119413 9.3624725293
11.7387347922 8.5667825902 4.0024944633
12.1257003000 7.9640071707 4.4033890019
12.1507103673 8.1978148006 9.8337419764
11.4720235150 9.1130204370 9.8132801706
12.1436783184 8.9068490463 10.1876576476
11.4661861652 9.9642320261 3.2132384988
11.9342863196 9.3997855825 3.5381447243
11.1289518931 9.8411905066 9.8295594947
11.7741808788 9.7485161179 10.2540658053
11.6598872051 10.6786459018 2.9470810612
12.0416946786 10.1945630108 3.2193978367
11.6943484986 10.6665914569 10.4943279842
10.3372940347 11.8778474289 1.8455676189
10.7861529695 11.9427167599 2.3029558279
11.3932841915 11.4648182382 2.6223647707
11.7211014859 11.3083849439 10.7296802442
11.5498681493 11.9733671924 10.8689001349
12.1706763715 11.5038157692 11.1652568977
11.7222533475 12.4265829216 2.9503827361
11.3133286053 12.8717066723 3.1331271820
11.4134072701 12.6376435058 11.1261356725
12.0762838953 12.3303361924 11.4931936623
11.6785432682 13.0807796564 3.2761950985
11.9839385996 13.7102061138 3.5574788381
11.7024001346 13.1289355137 11.7736111107
11.6704455823 13.7883682002 12.4696429832
11.4493242634 14.2120313005 12.9889011784
12.2836159965 14.3460692083 13.2328264956
11.1632576214 14.9033550315 4.1566523723
12.1011809154 14.8502739651 3.9570573199
11.4970292615 14.6735330891 13.8284828430
11.2080371316 14.8994776229 14.7315828091
11.0172422974 15.0740927755 15.3748973869
11.2418729689 15.4827883188 15.6352908215
11.4850679591 15.4949639751 4.2722604436
11.4295980641 16.3862000779 4.5162594260
11.2434961069 15.8492558934 15.5950417107
12.0022176680 17.4735511705 4.7721188904
11.4749339442 16.4182010364 14.8033398095
11.4911188380 16.7600706763 14.3098152970
11.3869569359 16.1454067868 15.1926140154
12.0886098910 18.2883335434 5.1377792392
10.8029715309 18.6164116240 10.8111693307
11.3061525815 18.5039653943 11.4461674409
11.6042066104 18.1086310264 12.3462022408
12.0534781062 17.7167582707 13.0270053726
11.8012656647 17.2257147861 13.6443416761
11.6338019378 18.7763402939 5.5329141492
12.1898049508 19.3243003757 5.9297350800
11.3125491542 18.9572183539 10.6624790645
11.9545303523 18.9057374403 11.1756526557
12.2702074942 18.5469985579 11.8912957897
12.3142537313 18.1458252501 12.5530140482
11.5354913283 19.6261431685 6.6297953516
11.2381169163 19.7856607212 7.5270570767
11.4519844258 19.8809169570 8.2403201825
11.4772508635 19.9146683591 7.6288095648
11.8877476423 19.8547719009 9.0620849009
12.2121440825 19.6796214359 9.7228535084
12.0957325568 19.2789619447 10.5270707515
11.2981715688 1.6201139113 8.3148578667
11.3852313117 1.8546414121 8.4351626530
11.9177947329 4.8684437441 7.4952894478
12.2852083981 5.3195076914 7.0044363117
12.3188983934 5.2091716835 7.5543343756
12.6004111457 5.5456402333 7.8920760598
12.4650788720 6.4352469402 5.8067325817
13.1916739613 5.9682455999 6.4708121918
12.8052569176 6.1811220244 8.5473027919
12.7294583678 6.8213327838 9.2156688196
12.5770635074 7.2807031567 4.9204175179
12.5852793905 6.8344712644 5.3716196235
12.7346571903 7.2417225922 9.5949046435
12.5051641955 7.5897251444 9.7123961998
13.1747392141 7.5502943392 10.0011292637
12.7789118904 8.5383758480 3.9331640605
12.9492003637 7.7939930877 4.4026150457
12.8305185970 8.4111839764 10.3667598535
12.6039488473 9.2163855948 10.6195721850
13.3246351593 8.7448194589 10.8143695866
13.0839547534 9.3887570083 3.4871640915
12.3795377876 10.1141036592 10.8095708678
13.3030300773 9.5627714772 11.1832942043
12.4776689117 10.6872390123 3.1099531967
12.6804305890 10.1025728998 3.2833690786
12.1517661277 10.8659003866 10.9067515452
12.8413824940 10.7314827300 11.3784866668
12.8917507338 11.5943012422 2.9962944368
13.1037475625 10.6546491065 3.1170136070
12.7251119978 11.7192830590 11.7048090738
12.6316165348 12.6391622642 3.1537635968
12.2050917820 13.0552763784 3.2737578464
12.9371911565 13.3537533651 3.3814231358
12.6250542908 12.3552162064 11.9283300768
12.3520725057 12.8000715885 11.9919270376
12.7996553161 12.7040126372 12.2596123028
12.7911607233 14.1498332467 3.6540315672
12.5240421740 13.3701967945 12.4981319808
13.5345523039 13.9683963874 13.0117937303
13.1534989687 14.7553382074 3.7886231175
12.2317191920 15.2254371544 14.0494896369
13.0030459132 15.2305310063 13.5532215935
11.7383054010 15.3002342915 14.7141041133
11.4523481017 15.2785226631 15.2717914179
12.1212760607 15.8365789943 4.2347752497
13.0845345645 15.6992292529 4.0332097160
12.5992594474 15.7590823685 14.0665227012
12.5807803297 16.2260538652 14.1035671142
11.9882954373 16.0560605032 14.5839925565
11.5907128238 15.7022622521 15.2911051565
12.5076081876 16.6117493594 4.3755080577
13.5097644341 16.7024406636 4.2350799134
12.2718586225 16.6919905505 14.0310555554
12.8353386834 16.4821422323 13.7824577432
12.6992752794 17.1040634322 13.4262870372
12.9691483249 17.3363770547 4.5371716265
13.0600539662 18.1351829416 4.9149369740
12.8136353968 17.7820879342 12.8727616170
12.6094404457 18.8134503369 5.3959505252
13.1200191145 19.2405086746 5.6199587811
13.0657647268 18.5575748334 11.8726754180
12.8616518225 18.9644429102 11.2273916572
12.9010050494 18.2417076467 12.3661452299
12.1407481882 19.6506166441 6.3818472705
13.1267136303 19.5122268966 5.8669019426
11.6331605698 19.8265382906 7.0571618377
13.3707649285 19.7870675307 9.8998854190
12.7878020355 19.8922185640 9.5813592283
13.0926304982 19.4421440157 10.4395286856
12.9154212957 5.5358705371 7.2996236458
13.2437363649 6.6911616880 5.4233447091
14.0337344540 6.8010414604 5.0355426115
14.2703795330 6.2832374928 5.7610577283
14.1129459699 5.9559631558 6.5738489398
13.9940480411 5.8051071528 7.5531179067
14.0283197927 6.1050603762 8.6356230721
13.5933533743 6.4967403657 9.2031333364
13.2600314408 6.9483708126 9.5870675291
14.0092777757 6.8829803704 9.7729723293
13.4905498911 7.2695365807 4.7102995428
13.7352739766 7.8778401299 4.1549646935
14.3473897545 7.2156554621 4.4956131065
14.2401701618 7.3883415969 10.3218782359
13.8973469423 8.6802359179 3.6399736018
13.7084632948 8.0603642469 10.6020412660
14.2930220499 8.6435911257 11.1538004871
13.7881487850 9.4049653372 3.3473745498
14.2387164022 9.7194852982 3.1596160993
14.3027941088 9.1124029929 3.3336013944
14.1067224142 9.4818008757 11.5874520644
13.7370434148 10.2130252275 11.7744483460
14.4431447958 9.8808267237 11.9584670851
13.4744353339 10.0223396022 3.2220482853
14.0002777009 10.6198473310 3.0226371073
13.5161811894 11.2125632606 12.0904741970
14.3618167995 10.5812537446 12.3109669780
14.2734387498 11.4279887601 2.9528954732
13.1314570932 12.1275837420 12.2071252623
14.1329291283 11.2652601965 12.5454585691
13.7968975212 11.9468007238 12.5717676979
14.5012328800 11.6595865802 12.8258851132
13.3096606754 12.6489805829 3.1706702471
14.2208173717 12.3482953260 3.0782955450
13.3344653405 12.8000702866 12.6074423731
14.2807140233 12.6699766387 12.9073285004
13.7881319413 13.1484163306 3.2837962983
13.7597938267 13.9824629393 3.5281313905
14.5081594218 14.3529676532 12.9069460836
14.1267800529 14.1076129528 12.9752659813
14.5804677729 13.6320540716 12.9585025213
14.0418559580 14.9410541341 3.7562541299
14.0364307990 14.4850027515 12.9987200599
13.7949762617 15.0794513822 13.1414301104
14.2477483826 15.9016963250 3.9559043541
12.9418062315 15.9991612134 13.8052025684
13.4630568136 16.1985505364 13.3259067929
14.5436179366 16.8102878078 4.1738214624
13.5000943181 17.2269132689 12.9411495789
13.8695046346 17.5397680097 4.5046860295
14.3777345024 18.3558666834 4.8907478161
13.5995687866 18.1844398795 12.1464092141
14.2996930913 18.0769682350 11.8898247654
13.7673618149 18.5741450060 11.5825875385
13.4040083594 17.8494935639 12.5898665386
14.1893528886 17.5137494119 12.3977986215
13.6141940086 18.8736762720 5.2803701703
14.0786428877 19.3734979133 5.5874306599
13.9201413845 19.0336812570 10.9338807172
14.0971887424 19.5716367816 5.7491611593
14.2654760623 19.8317618741 9.7675691702
13.7690032381 19.9299600167 9.6688386766
14.2413032802 19.5063871410 10.2358481111
15.0742830749 5.6812213319 7.7704845872
15.0600842411 5.6712009256 7.2797497340
15.5483006023 5.5898839045 7.5210903493
15.7599591605 5.6682618974 8.0031074553
14.7932852869 6.6624673571 4.9511307781
15.5279922193 6.2232697695 5.4899637158
14.9773259891 5.8757843323 6.5562635258
15.0558673255 5.9250759070 8.4788715090
14.5996145217 6.3712103086 9.2765471135
15.0986897018 6.8531821024 10.0133241913
14.9261142000 7.8248955970 3.9272887782
15.0830781966 7.0446632724 4.4323277168
14.9615359954 7.4054924055 10.5546293249
14.4723119720 7.8395740724 10.7509603438
15.1955360771 7.8941542229 10.9327693679
14.7085491309 8.6272880923 3.4757209053
14.9326325846 9.1716764242 3.2231027772
15.5127881056 8.5125389515 3.4612053733
15.5029826268 8.5661288657 11.3738375683
14.9765506811 9.9441858904 3.0270435002
14.8969373550 9.2808576839 11.7223332316
15.2448548534 10.0375544470 12.2344166427
15.0345454340 10.7827570182 2.9236692529
15.0082080013 10.6644330822 12.6035779400
14.6116406937 11.0401275524 12.6884301790
15.1583106161 11.2056820723 12.8514278067
15.1805766271 11.6280937355 2.9482602386
15.1567608961 11.9690867489 12.9997995521
15.3750792015 12.4676541132 3.0959911006
15.2297738059 12.7768512418 13.0202318110
14.6353473486 13.2448960292 3.2905376346
14.9066611542 14.0806677008 3.5285114520
15.5284110271 13.4725611523 12.9137686187
15.0839483142 14.1005661737 12.8485304825
15.1382039756 15.0012887018 3.7459395505
14.3441384625 14.8955610762 12.9426369031
15.0561874061 14.8741601460 12.7681108787
15.3241564522 15.9651235330 3.9426054980
14.3742191601 15.6118850541 12.9283453427
15.1918297795 15.8594532759 12.5901049529
15.5995776392 16.8330991798 4.1777814529
14.3239224568 16.5791347811 12.7727213837
15.1159608298 16.7952308188 12.3277521536
14.9264551698 17.5972946491 4.4618550680
15.3767546014 18.1642878840 4.7575302517
15.0354900791 17.5676575553 11.9281775748
14.9262818430 18.3747642864 11.3011079606
14.4981538237 19.0088306260 5.2826411513
15.4417136466 18.8042067399 5.1899802981
14.7428237233 19.0511838530 10.6923432425
15.5829661004 18.8292234943 10.6176116530
15.1410447860 19.3078979212 10.2451579113
15.0373861275 19.2952695491 5.5076964557
15.0952455009 19.5394236550 5.7657482078
15.3049575818 19.6818855595 9.5806032231
14.7274622141 19.9072262983 9.4932043070
15.7423365901 5.6424345697 7.0311056672
16.1578798783 5.5734828369 7.5293560362
16.5569019611 5.6767739864 8.0198622187
15.5040013698 6.6608305624 4.7445813443
15.8340165654 7.1185254413 4.2868262444
16.2893337956 6.5528730788 4.8239195573
16.7561187758 6.0581917427 5.5475134645
16.1490143802 5.8275121678 6.3250754531
16.1972505098 5.9089418496 8.6294508767
15.6935592481 6.2881604571 9.3218308570
16.2891440266 6.7195588584 9.9753776022
16.2763001401 7.8669715073 3.8167096886
15.7785533064 7.2827149794 10.5395145202
16.2063325800 7.8838918017 10.9878130125
15.8687179016 9.3165297168 3.1708007663
16.3457912648 8.6095666408 3.4434926008
16.6019148953 8.6302704060 11.4153761570
15.7373765048 10.1651175366 2.9775298245
15.9311648672 9.3104734589 11.8351260263
16.4443853601 10.1812847964 12.2831532209
15.9526671046 10.8832938252 2.9412608902
15.7228390444 10.6896633504 12.6501546226
15.9777243756 11.4576017255 12.9168107581
16.1260887296 11.7049937148 3.0032201162
15.8257157466 12.1968730211 13.0392974518
16.3057405070 12.4436534195 3.1658518759
16.0750899457 12.7810390758 12.9838859949
15.6645691853 13.2208442358 3.3155353412
16.1475890399 13.9040167823 3.5772448473
16.4011483100 13.3908152084 12.8190261598
15.8520168969 14.1518493777 12.7321623790
16.2259591876 15.0087371690 3.8156737697
16.0630231186 15.0204027170 12.5161060883
16.3665782022 15.9736508466 4.0057624372
16.1517072006 16.0657892418 12.2194834753
16.6574825183 16.7852029061 4.2753528058
15.7626420056 16.9547304475 11.9856895935
16.5812271315 16.6961498694 11.8169842193
15.9285695212 17.5092928912 11.5823286281
15.9844313507 17.5617007399 4.5089543476
16.2761550078 18.2219782037 4.9320489728
16.2206041194 18.1177633772 11.0139776174
16.5142408107 18.7846283104 5.3974568917
16.6367876571 18.6740062370 10.2821708463
15.9286542825 19.2360758689 9.9725787856
16.1027352375 19.3149331280 5.7903140336
16.1507245295 19.6385442759 6.2649216105
15.6094050971 19.8978036593 9.0234319714
16.2536142081 19.7796864190 8.6189880813
16.1357689342 19.9250733075 8.4857339448
16.3345879335 19.4899028380 9.2703819073
17.3146908345 5.8485504260 5.7250220801
17.5273596293 6.0668705549 5.4438557029
17.4934622479 5.8250871793 5.6061363332
17.5698458677 5.8367971108 5.8177468234
16.5643318526 5.6383546095 7.0259270535
16.7449973566 5.5990135297 7.5506338365
17.1510974834 5.7209044143 7.8231018111
16.8951385788 7.1552073901 4.3075776373
17.2290919061 6.5201445034 4.9147083547
17.3219116569 5.8445071354 6.4361142450
17.2333634177 5.9489326079 8.4754905040
16.8005415206 6.2677580889 9.2907100870
17.3570741995 6.7053430356 9.8737007672
17.0732657817 7.7620902534 3.9513659634
16.8623503247 7.2499168048 10.4782354166
17.3313239575 7.9739320703 10.9317431725
16.7336650967 9.1310715963 3.3153618211
17.2681062121 8.5426799271 3.6890001186
17.7518023900 8.8903386622 11.3667318612
16.7235750552 10.0526787224 3.1205209071
17.3249405555 9.4176525353 3.3855330911
16.9903526602 9.4351256864 11.8062035305
17.4841455315 10.2137466992 12.0586982324
16.7160012937 11.0144466943 3.0335023063
16.4557671738 10.9033091502 12.6752234579
17.2343460379 11.0179064483 12.4737484172
17.0255177811 11.7022782021 3.1581636028
16.7437820085 11.4117610176 12.7967488598
16.6000974881 12.1004267345 12.9255815745
16.9597762997 12.4271566990 3.2909129469
16.4996337800 12.9951027079 3.3594376263
17.2917039153 12.8792177653 3.5634196216
16.7424220691 12.7720763398 12.8791189935
17.2299536143 13.9985178504 3.8221848011
17.1052867496 13.1308531129 12.7071124802
16.9467613590 13.9976121994 12.5360828685
17.2101424051 15.0642945791 3.9802595918
17.0886154254 15.0579474119 12.2523153528
17.3163963546 15.9650148384 4.1517276700
17.1919522211 15.8928932760 11.9746015291
17.5735146388 16.6458448883 4.4224247831
17.3645670539 16.4240015038 11.6865128894
17.0655206986 17.2119356946 11.3392515640
17.2235075662 17.4492723676 4.7611468285
17.1968214637 18.2283679348 5.2734586278
17.2278766285 17.9439722115 10.7627594304
17.3098473279 18.6929498381 5.7744335131
16.7539918123 19.0583045948 5.7329574058
17.0315644064 19.1668617879 6.1903121501
16.6360145750 19.1518614712 9.6621751220
17.3341728606 18.8423766023 9.4751779698
16.9328257513 19.2745385942 9.1585509858
17.5690756917 18.3028368926 10.1887347957
16.5941597373 19.7568812757 7.0599042850
16.7200856807 19.5403158299 6.6122801024
16.4928419361 19.8555351771 7.9118824904
16.8666709028 19.6245974425 7.6427503306
16.9003994525 19.4800128388 8.5602340154
17.6629137651 5.8910054339 5.6408622541
17.1656971704 5.6965983795 7.3073595658
17.6943307674 7.0283318329 4.5824690951
18.1821859910 6.7067055144 5.1562790382
18.1162637646 6.1660587834 5.8924722776
18.2617077287 6.1167804974 6.7958581362
17.8699698985 5.9754355725 7.6778151838
17.9466064665 6.1170373562 8.4927481622
17.8415184547 6.3584793988 9.1675057193
18.0173011552 6.7113979245 9.7367870015
17.7691070840 7.7399877269 4.1998757315
18.2719833878 7.3534880564 4.6467803761
18.1287081482 7.2716571040 10.2245524597
18.4667335147 8.2385498284 10.8403417386
18.3163030137 8.6641170919 4.0719192188
18.5327709930 8.9192219569 11.1778153794
17.6022413721 10.0103257763 3.3366429482
18.0848565701 9.5652297680 3.6813470007
17.8013396823 9.6512257828 11.7247231770
18.6446872067 9.6993131443 11.4404577796
17.4954038054 10.7854418366 3.2316712774
18.0797653024 10.3809636264 3.4885356426
18.1778864857 10.2013330857 11.8304517690
18.1991934598 11.0176339660 12.0751094272
17.7244477059 11.4640287599 3.3404538564
17.4844820489 12.0572783989 3.3691552432
18.1592123979 11.8114301587 3.6631850462
17.2008824692 11.7522799679 12.7191766541
17.8198697147 11.8866395921 12.4371538775
18.3364862247 12.9311549384 4.0292924722
17.2902195980 12.4409393404 12.7239335482
17.8749709714 13.0227128027 12.3996342758
18.1007803254 14.1850527936 4.1365009279
17.9691785867 14.1679155984 12.1892302234
18.0324158327 15.1823780684 4.2344920892
18.0273497588 15.1535343310 11.9448990481
18.0872694486 15.9630643057 4.3867935050
17.8326106744 15.8924638076 11.7642467201
18.3627761642 15.6143292722 11.6431514739
18.0807025082 16.3768804941 11.3853777515
18.3056578799 16.4984957429 4.7134352622
17.8307356053 16.9697472594 4.6599745303
18.1564537409 17.1208392898 4.9891072716
18.0006196989 17.2935138627 10.8979030294
17.6941004253 18.2524891715 5.6024118818
18.0911537145 17.6950353862 5.4786366246
18.0444736696 18.2547525176 6.0603798831
17.8546500467 17.8555951380 10.5825882283
18.1997456458 17.6252981102 10.5881072742
18.2049799015 17.8973929220 10.2275355575
17.3543791561 19.2369601690 7.0227159959
17.7449610012 18.7688738236 6.5224846830
17.4589887284 19.2103874429 7.9756473997
17.9894733297 18.7657834555 7.4474679470
17.3577403326 19.1501707201 8.7484152292
17.9813442978 18.6885945209 8.5622023147
18.1105908397 18.2975088983 9.5414158318
18.5635875604 6.5493678607 5.5927445538
18.8298174804 6.5822970010 5.9246813736
18.8997446480 6.4908327855 6.5462598437
18.8574826313 6.4115225160 7.4710791613
18.6093572287 6.4110883153 8.5126277606
18.5683533035 6.7536454438 9.4348716574
19.2342101177 6.8629299504 8.9672052297
18.6559633630 8.0508948997 4.5276112950
18.8766078648 7.4894500730 5.0482876005
18.9336560216 6.9502032801 5.5517970712
19.2557609339 7.2927017330 9.6937046823
18.9767743351 7.7298324973 10.3462068755
19.6827443407 7.8984614806 10.1211978960
18.9920978060 8.7716663802 4.4388349527
19.4699562695 8.4601795414 5.0547740953
19.2507183544 8.2245492651 10.5869863012
19.2989016196 9.0169987700 10.9087024460
18.8925663999 9.4854868409 4.1618362440
19.4054981656 9.2606971370 4.6049361804
19.3818847614 9.8443960510 11.1786142644
18.1155387119 11.0027067083 3.4872383773
18.7408369147 10.6342767203 3.9178105900
18.7150909244 10.5617090580 11.7270656928
19.4672189173 10.7455789418 11.3583826010
19.0102128177 11.7616272567 4.1680080630
18.9559130729 11.2382640837 11.7823030985
18.7298236681 12.1582731044 11.9949663209
19.3872059819 12.4667176239 4.5853021030
18.9506842412 13.5074864882 4.4824487010
19.5699986947 13.1744830581 4.8896079667
18.7885684594 13.4158901260 11.9395247042
18.7566651858 14.5026534014 4.5217770505
19.4169904316 13.9551583244 4.9391689252
18.7410671309 14.4107530981 11.8306458226
18.6415967637 15.4025293350 4.5870821585
19.2635055089 14.9074044202 5.0355911056
18.7063169047 15.0923013899 11.6718526947
19.1660114206 14.7649653308 11.4676162368
18.9551431763 15.6119958130 11.2317879793
18.5398012226 15.9577647791 4.6266764141
18.9793091145 15.9083439645 5.0757333199
18.7613948727 16.5830980420 10.8530825037
18.5185068246 17.1932696422 5.3434682242
18.7436527459 16.7295805288 5.2522156167
18.8434047566 17.1402762777 5.7736983066
18.6375721961 17.3005031600 10.4481209918
19.0858632062 16.7693870877 10.4762727404
19.2122407158 17.0119123554 10.0106983890
18.4204936395 18.2490976335 6.8832641067
18.6910514484 17.6897677650 6.3098397314
18.6172366565 18.1913486554 7.8632031485
19.0416337171 17.6390050018 7.2178442988
18.6984109123 18.0141329195 8.8714968323
19.2275664968 17.5373378446 8.2130568354
18.7257189661 17.6972717048 9.7513526167
19.2795336674 17.3367055509 9.1873316936
19.3447811814 7.0080015241 6.1661555119
19.6153699023 7.0101611678 7.0837920135
19.4712838983 6.8463182360 8.1437265619
19.4659989323 7.6039595582 5.6246105748
19.9296103402 7.6587952425 6.3473303763
20.1746088502 7.6099279892 7.0474667092
20.1262989334 7.4363135640 7.8219014230
19.9226558478 7.3559141209 8.8663301392
19.9370352015 7.6138640596 9.5773199270
20.1920531106 7.9692518458 9.7606489040
19.9035423526 8.1756930720 5.7499266358
20.2349827950 8.3085862489 6.1711286477
20.3455263086 8.0708822541 6.6658167400
19.7496919231 8.4603140941 10.4651070796
20.1347669036 8.3157391558 10.0983102843
19.4934820634 10.0835644726 4.5110894402
19.9094966992 9.5214543214 5.0825347635
20.1531798534 8.8632713560 5.6962144335
20.2029499267 9.0058320574 10.3819421242
20.0171400516 10.0125409411 10.8581894905
19.5460186766 11.0656733194 4.4939899461
20.0668790231 10.5606623235 5.0598746639
20.2074656171 11.0128217732 10.9324109282
19.5466866438 11.7291037448 4.5286338120
19.9990265117 11.6767251522 5.0075196557
19.4200507050 11.7750859255 11.5783594277
20.0604893868 11.9355240722 11.0880405288
19.9549905234 13.4666313205 5.3689931314
20.0000581656 12.6461312226 5.2010586332
20.3479653824 13.0315322214 5.7545278005
19.5793632221 12.8385608397 11.4687637410
20.1861552280 12.9215796380 10.9365028803
19.8570078884 14.3589350135 5.5389223013
20.3332567031 13.8160232716 6.0227922642
19.9937625143 13.7168297852 10.9778011899
20.4085644963 13.4482041586 10.5508239003
20.3170886586 14.2572521680 10.3530839649
19.3984676208 13.9821331606 11.4748563839
19.7137981205 15.4111994118 5.8225913295
20.2321262533 14.7185553901 6.2430513870
19.7079467738 14.8129425317 10.8909475764
20.1703706370 15.2278299873 10.0669659703
19.3018415054 16.4090391278 5.8392373691
20.1595543378 15.4104728647 6.5534087159
19.8391577544 16.1847680315 6.7308756651
20.0843956445 16.3100633356 7.7251237319
20.3058494281 15.6628133042 7.2350007537
20.3964019755 15.8216938567 7.9135670166
19.5207875723 16.0986754655 10.3932478335
20.0709714902 15.9664698004 9.7082195083
19.2913525281 17.0221596992 6.5512709926
19.6067218518 16.9506462442 7.5027145867
20.2445338324 16.2065644909 8.3721494733
19.8149246043 16.7912888747 8.5395925206
19.7340747912 16.6185336178 9.5263205029
20.1874346462 16.1767123183 9.0324174224
20.5175235641 8.0880361342 7.2997145520
20.5909138287 8.0520257406 8.4007241814
20.3186801333 7.8286329332 9.2620168491
20.5642136597 8.7996725299 6.4982761174
20.8672253470 8.7585655036 7.3372611111
20.9144420636 8.4973849102 8.0368907232
20.8106430285 8.3673925579 8.8927458992
20.7825664755 8.6282015790 9.5226572464
20.5513358310 8.3913268606 9.5705667852
20.4933958417 9.8966523124 5.8092848082
20.8790895084 9.6530291527 6.5821722826
21.0244158146 9.4076527022 7.0096173807
21.0202816221 8.8850682414 7.4744184540
20.6705563417 9.1886860484 10.0739781947
20.5471529226 9.8188738864 10.4638647255
20.7884989480 10.2075071477 10.3486232842
20.5273974900 11.1467294693 5.6583247856
20.8652077795 10.7051165692 6.2215645549
21.0165693109 10.2944510731 6.5823392161
20.6376535007 10.7939062511 10.5476275502
20.9216715564 11.1366265698 10.2780569482
20.4700134451 12.2268641165 5.7168327302
20.8306203496 11.8274990933 6.2086538025
20.9929337610 11.3281402789 6.4352619729
20.8854766819 11.8872118884 10.2035772670
21.0285425389 11.7850380046 10.0557242193
21.0379873769 12.4289166340 9.7679372083
20.5445851290 11.6424283365 10.6612177373
20.7314173121 13.1125113307 6.5257113429
20.9525926357 12.4024554264 6.6354556874
20.9174935561 12.9333629196 9.7450365911
21.0303895952 13.1945198675 9.1840590131
20.5877241839 12.6326226278 10.4559920279
20.5887724347 14.2998907042 6.8310317378
20.9559347727 13.2898669445 7.3061652100
20.8493376890 14.0155849533 7.7495908244
20.8910592752 13.8372791856 9.0103386301
21.0015907779 13.5921516151 8.3023633134
20.6782835335 13.6324714273 9.9480508555
20.4334189502 15.0424120532 6.8828119020
20.5982739454 15.0694130881 7.6752379859
20.7073919387 14.8035382964 8.6398910527
20.5954293631 14.5710849710 9.5635509845
20.4868824393 15.6428216644 8.5093859163
20.4336596076 15.4521996833 9.2855411675
3 2 1 0
3 4 3 0
3 0 3 2
3 4 5 3
3 1 6 0
3 8 7 6
3 7 0 6
3 7 4 0
3 5 4 9
3 9 4 7
3 8 10 7
3 7 10 9
3 13 12 11
3 15 14 11
3 11 14 13
3 15 16 14
3 11 12 2
3 12 1 2
3 12 17 1
3 11 2 3
3 11 3 15
3 19 18 5
3 5 18 3
3 18 16 3
3 16 15 3
3 19 20 18
3 23 22 21
3 21 24 6
3 17 21 6
3 1 17 6
3 21 17 23
3 24 8 6
3 9 25 19
3 9 19 5
3 20 19 26
3 26 19 25
3 21 22 27
3 27 22 28
3 21 29 24
3 21 27 29
3 30 10 8
3 24 30 8
3 29 30 24
3 25 9 10
3 30 25 10
3 31 25 30
3 26 25 32
3 32 25 31
3 27 28 33
3 33 28 34
3 36 29 35
3 29 33 35
3 29 27 33
3 38 37 36
3 37 29 36
3 37 30 29
3 40 31 39
3 31 37 39
3 31 30 37
3 31 40 32
3 33 34 41
3 41 34 42
3 35 33 43
3 43 33 41
3 37 38 44
3 44 38 45
3 39 37 46
3 37 47 46
3 37 44 47
3 47 48 46
3 42 49 41
3 41 49 43
3 45 50 44
3 52 51 50
3 51 44 50
3 51 47 44
3 48 47 53
3 53 47 51
3 52 54 51
3 51 54 53
3 56 55 13
3 13 55 12
3 57 13 14
3 57 56 13
3 59 58 16
3 58 14 16
3 58 57 14
3 59 60 58
3 63 62 61
3 55 63 61
3 17 55 61
3 12 55 17
3 18 59 16
3 18 20 59
3 20 60 59
3 20 64 60
3 61 62 23
3 62 22 23
3 62 65 22
3 61 23 17
3 26 67 66
3 64 26 66
3 20 26 64
3 67 68 66
3 65 28 22
3 69 28 65
3 71 70 67
3 26 71 67
3 32 71 26
3 67 70 68
3 74 73 72
3 69 74 72
3 34 69 72
3 28 69 34
3 35 75 36
3 75 38 36
3 39 76 40
3 76 77 40
3 77 32 40
3 77 71 32
3 72 73 78
3 78 73 79
3 78 42 34
3 78 34 72
3 43 80 75
3 43 75 35
3 80 45 38
3 80 38 75
3 46 76 39
3 46 48 76
3 48 77 76
3 48 81 77
3 78 79 82
3 82 79 83
3 84 49 42
3 78 84 42
3 82 84 78
3 80 43 49
3 84 80 49
3 85 80 84
3 86 50 45
3 80 86 45
3 85 86 80
3 86 52 50
3 53 81 48
3 53 87 81
3 83 88 82
3 82 88 84
3 84 88 89
3 84 89 85
3 85 89 90
3 92 91 90
3 91 85 90
3 91 86 85
3 93 54 52
3 86 93 52
3 91 93 86
3 93 94 54
3 94 53 54
3 94 87 53
3 92 95 91
3 91 95 93
3 93 95 96
3 93 96 94
3 99 98 97
3 97 100 99
3 103 102 101
3 105 104 101
3 104 97 101
3 98 103 101
3 98 101 97
3 97 104 100
3 108 107 106
3 108 106 102
3 106 101 102
3 106 109 101
3 105 101 110
3 110 101 109
3 113 112 111
3 113 111 107
3 107 111 106
3 111 55 106
3 55 56 106
3 106 56 57
3 106 57 109
3 114 110 109
3 57 114 109
3 58 114 57
3 58 60 114
3 114 60 115
3 111 112 63
3 112 62 63
3 112 116 62
3 111 63 55
3 64 115 60
3 64 117 115
3 120 119 118
3 116 120 118
3 65 116 118
3 62 116 65
3 64 66 121
3 122 64 121
3 117 64 122
3 68 121 66
3 118 119 123
3 123 119 124
3 123 69 65
3 123 65 118
3 122 121 70
3 71 122 70
3 125 122 71
3 70 121 68
3 123 124 74
3 124 73 74
3 124 126 73
3 123 74 69
3 77 125 71
3 77 127 125
3 126 79 73
3 128 79 126
3 81 127 77
3 81 129 127
3 132 131 130
3 128 132 130
3 83 128 130
3 79 128 83
3 87 129 81
3 87 133 129
3 130 131 134
3 134 131 135
3 136 88 83
3 130 136 83
3 134 136 130
3 137 89 88
3 137 88 136
3 138 90 89
3 138 89 137
3 138 92 90
3 94 140 139
3 133 94 139
3 87 94 133
3 140 141 139
3 135 142 134
3 134 142 136
3 136 142 143
3 136 143 137
3 137 143 144
3 137 144 138
3 138 144 145
3 145 147 146
3 145 146 95
3 138 145 95
3 92 138 95
3 148 96 95
3 148 95 146
3 140 94 96
3 148 140 96
3 149 140 148
3 141 140 150
3 150 140 149
3 147 151 146
3 146 151 148
3 148 151 152
3 148 152 149
3 149 152 153
3 149 153 150
3 156 155 154
3 158 157 154
3 154 157 156
3 158 159 157
3 154 155 160
3 160 155 161
3 160 98 99
3 158 160 99
3 154 160 158
3 99 100 158
3 100 159 158
3 100 162 159
3 165 164 163
3 165 163 161
3 161 163 160
3 163 102 160
3 102 103 160
3 98 160 103
3 104 105 166
3 166 167 104
3 167 100 104
3 167 162 100
3 163 164 108
3 164 107 108
3 164 168 107
3 163 108 102
3 110 169 166
3 110 166 105
3 167 166 170
3 170 166 169
3 172 171 113
3 113 171 112
3 113 107 168
3 113 168 172
3 114 169 110
3 114 115 169
3 115 170 169
3 115 173 170
3 176 175 174
3 171 176 174
3 116 171 174
3 112 171 116
3 117 173 115
3 117 177 173
3 180 179 178
3 178 181 180
3 174 175 120
3 175 119 120
3 175 182 119
3 174 120 116
3 122 177 117
3 122 183 177
3 179 184 178
3 178 184 181
3 182 124 119
3 185 124 182
3 125 183 122
3 125 186 183
3 185 126 124
3 187 126 185
3 127 186 125
3 127 188 186
3 191 190 189
3 193 192 189
3 189 192 191
3 193 194 192
3 187 128 126
3 195 128 187
3 129 188 127
3 129 196 188
3 190 197 189
3 199 198 197
3 198 189 197
3 198 193 189
3 194 193 200
3 200 193 198
3 202 201 132
3 132 201 131
3 132 128 195
3 132 195 202
3 133 204 203
3 196 133 203
3 129 133 196
3 204 205 203
3 199 206 198
3 198 206 200
3 208 135 207
3 135 201 207
3 135 131 201
3 209 208 207
3 139 204 133
3 139 141 204
3 141 205 204
3 141 210 205
3 208 142 135
3 209 211 208
3 211 142 208
3 211 143 142
3 211 213 212
3 144 211 212
3 143 211 144
3 214 145 144
3 214 144 212
3 214 147 145
3 150 216 215
3 210 150 215
3 141 150 210
3 218 217 216
3 216 217 215
3 220 219 218
3 218 219 217
3 220 221 219
3 213 222 212
3 212 222 214
3 214 222 223
3 214 223 147
3 223 151 147
3 223 224 151
3 224 226 225
3 152 224 225
3 151 224 152
3 227 153 152
3 227 152 225
3 216 150 153
3 227 216 153
3 228 216 227
3 230 218 229
3 218 228 229
3 218 216 228
3 218 230 220
3 220 230 231
3 220 231 221
3 226 232 225
3 225 232 227
3 227 232 233
3 227 233 228
3 228 233 234
3 228 234 229
3 237 236 235
3 239 238 235
3 235 238 237
3 239 240 238
3 243 242 241
3 243 241 236
3 236 241 235
3 241 155 235
3 155 156 235
3 235 156 157
3 235 157 239
3 157 159 239
3 159 240 239
3 159 244 240
3 241 242 245
3 245 242 246
3 245 161 155
3 245 155 241
3 162 248 247
3 244 162 247
3 159 162 244
3 248 249 247
3 245 246 165
3 246 164 165
3 246 250 164
3 245 165 161
3 167 251 248
3 167 248 162
3 249 248 252
3 252 248 251
3 250 168 164
3 253 168 250
3 255 254 251
3 167 255 251
3 170 255 167
3 251 254 252
3 257 256 172
3 172 256 171
3 172 168 253
3 172 253 257
3 173 255 170
3 173 258 255
3 260 259 176
3 176 259 175
3 176 171 256
3 176 256 260
3 177 258 173
3 177 261 258
3 263 262 180
3 180 262 179
3 265 264 181
3 264 180 181
3 264 263 180
3 259 182 175
3 266 182 259
3 183 261 177
3 183 267 261
3 184 179 268
3 179 269 268
3 179 262 269
3 268 270 184
3 184 270 181
3 270 271 181
3 271 265 181
3 266 185 182
3 272 185 266
3 186 267 183
3 186 273 267
3 276 275 274
3 278 277 274
3 277 268 274
3 269 276 274
3 269 274 268
3 268 277 270
3 272 187 185
3 279 187 272
3 188 273 186
3 188 280 273
3 281 190 191
3 275 282 274
3 282 191 274
3 191 192 274
3 191 282 281
3 284 283 194
3 194 283 192
3 283 278 192
3 278 274 192
3 284 285 283
3 279 195 187
3 286 195 279
3 196 288 287
3 280 196 287
3 188 196 280
3 288 289 287
3 291 197 290
3 197 190 290
3 290 190 281
3 292 290 281
3 281 282 292
3 197 291 199
3 200 293 284
3 200 284 194
3 285 284 294
3 294 284 293
3 295 201 202
3 296 295 202
3 195 296 202
3 286 296 195
3 203 288 196
3 203 205 288
3 205 289 288
3 205 297 289
3 290 298 291
3 291 298 199
3 298 206 199
3 298 299 206
3 200 206 293
3 206 300 293
3 206 299 300
3 293 300 294
3 295 207 201
3 209 207 295
3 296 209 295
3 301 209 296
3 210 303 302
3 297 210 302
3 205 210 297
3 305 304 303
3 303 304 302
3 307 306 305
3 305 306 304
3 307 308 306
3 301 309 209
3 209 309 211
3 213 211 309
3 213 309 310
3 215 303 210
3 303 215 217
3 303 217 305
3 305 217 219
3 305 219 307
3 219 221 307
3 221 308 307
3 221 311 308
3 310 312 213
3 213 312 222
3 312 314 313
3 223 312 313
3 222 312 223
3 315 224 223
3 315 223 313
3 315 226 224
3 229 316 230
3 230 316 317
3 318 230 317
3 231 230 318
3 221 231 311
3 311 231 318
3 314 319 313
3 313 319 315
3 315 319 320
3 315 320 226
3 320 232 226
3 320 321 232
3 321 323 322
3 233 321 322
3 232 321 233
3 324 234 233
3 324 233 322
3 324 325 234
3 234 325 229
3 325 326 229
3 326 316 229
3 316 326 317
3 323 327 322
3 322 327 324
3 324 327 328
3 324 328 325
3 331 330 329
3 333 332 329
3 329 332 331
3 333 334 332
3 337 336 335
3 337 335 330
3 330 335 329
3 335 236 329
3 236 237 329
3 329 237 238
3 329 238 333
3 238 240 333
3 240 334 333
3 240 338 334
3 335 336 243
3 336 242 243
3 336 339 242
3 335 243 236
3 244 341 340
3 338 244 340
3 240 244 338
3 341 342 340
3 339 246 242
3 343 246 339
3 247 341 244
3 247 249 341
3 249 342 341
3 249 344 342
3 343 250 246
3 345 250 343
3 252 344 249
3 252 346 344
3 345 253 250
3 347 253 345
3 349 348 254
3 349 254 255
3 252 254 346
3 346 254 348
3 350 256 257
3 351 350 257
3 253 351 257
3 347 351 253
3 258 349 255
3 258 352 349
3 353 259 260
3 354 353 260
3 354 260 256
3 355 354 256
3 350 355 256
3 355 350 351
3 261 352 258
3 261 356 352
3 358 357 263
3 263 357 262
3 359 263 264
3 359 358 263
3 361 360 353
3 360 259 353
3 360 266 259
3 361 353 354
3 267 356 261
3 267 362 356
3 357 269 262
3 363 269 357
3 365 364 271
3 365 271 270
3 368 367 366
3 360 368 366
3 272 360 366
3 266 360 272
3 273 362 267
3 273 369 362
3 370 275 276
3 277 278 371
3 370 371 278
3 371 370 363
3 276 363 370
3 363 276 269
3 270 277 365
3 365 277 371
3 366 367 372
3 372 367 373
3 372 279 272
3 372 272 366
3 280 369 273
3 280 374 369
3 376 375 370
3 375 275 370
3 375 282 275
3 376 370 278
3 283 376 278
3 377 376 283
3 283 285 377
3 377 285 378
3 372 373 379
3 379 373 380
3 379 286 279
3 379 279 372
3 381 374 280
3 381 280 287
3 287 289 381
3 381 289 382
3 383 290 292
3 384 383 292
3 282 384 292
3 375 384 282
3 294 378 285
3 294 385 378
3 380 386 379
3 286 379 386
3 387 286 386
3 296 286 387
3 297 382 289
3 297 388 382
3 391 390 389
3 391 383 392
3 383 391 290
3 389 290 391
3 290 389 298
3 393 298 389
3 298 394 299
3 394 383 299
3 384 299 383
3 299 384 395
3 392 395 384
3 395 392 394
3 394 393 395
3 298 393 394
3 394 392 383
3 396 300 299
3 396 299 395
3 396 397 300
3 397 294 300
3 397 385 294
3 387 301 296
3 398 301 387
3 399 388 297
3 399 297 302
3 400 302 304
3 400 399 302
3 401 304 306
3 401 400 304
3 402 389 308
3 389 401 308
3 401 306 308
3 389 390 401
3 404 393 403
3 393 402 403
3 393 389 402
3 393 404 395
3 395 404 405
3 395 405 396
3 396 405 406
3 396 406 397
3 398 407 301
3 301 407 309
3 310 309 407
3 310 407 408
3 311 409 402
3 311 402 308
3 403 402 410
3 410 402 409
3 408 411 310
3 310 411 312
3 314 312 411
3 314 411 412
3 414 413 318
3 414 318 317
3 311 318 409
3 318 415 409
3 318 413 415
3 409 415 410
3 412 416 314
3 314 416 319
3 416 418 417
3 320 416 417
3 319 416 320
3 419 321 320
3 419 320 417
3 419 323 321
3 421 420 326
3 421 326 325
3 317 326 414
3 414 326 420
3 418 422 417
3 417 422 419
3 419 422 423
3 419 423 323
3 423 327 323
3 423 424 327
3 327 425 328
3 424 425 327
3 325 328 421
3 421 328 425
3 427 426 331
3 331 426 330
3 428 331 332
3 428 427 331
3 332 334 428
3 428 334 429
3 430 336 337
3 431 430 337
3 330 431 337
3 426 431 330
3 338 433 432
3 429 338 432
3 334 338 429
3 433 434 432
3 436 435 430
3 435 336 430
3 435 339 336
3 436 430 431
3 340 433 338
3 340 342 433
3 342 434 433
3 342 437 434
3 435 343 339
3 438 343 435
3 344 437 342
3 344 439 437
3 441 345 440
3 345 438 440
3 345 343 438
3 442 441 440
3 346 439 344
3 346 443 439
3 444 347 441
3 441 347 345
3 441 442 445
3 441 445 444
3 447 446 348
3 447 348 349
3 346 348 443
3 443 348 446
3 449 448 444
3 448 347 444
3 448 351 347
3 449 444 445
3 352 447 349
3 352 450 447
3 452 451 355
3 355 451 354
3 355 351 448
3 355 448 452
3 356 450 352
3 356 453 450
3 454 357 358
3 359 455 358
3 358 455 454
3 457 456 361
3 361 456 360
3 361 354 451
3 361 451 457
3 362 453 356
3 362 458 453
3 459 363 454
3 454 363 357
3 365 459 364
3 459 455 364
3 459 454 455
3 461 460 368
3 368 460 367
3 368 360 456
3 368 456 461
3 369 458 362
3 369 462 458
3 459 371 363
3 371 459 365
3 465 464 463
3 460 465 463
3 373 460 463
3 367 460 373
3 374 462 369
3 374 466 462
3 467 375 376
3 467 376 468
3 376 469 468
3 376 377 469
3 377 378 469
3 469 378 470
3 464 471 463
3 380 373 463
3 472 380 463
3 471 472 463
3 380 472 473
3 475 474 473
3 475 473 472
3 476 474 475
3 374 381 477
3 478 374 477
3 466 374 478
3 382 477 381
3 479 384 467
3 467 384 375
3 467 468 480
3 467 480 479
3 385 470 378
3 385 481 470
3 473 386 380
3 386 473 387
3 473 482 387
3 473 474 482
3 474 476 483
3 474 483 482
3 484 478 477
3 477 382 484
3 382 485 484
3 382 388 485
3 486 390 391
3 486 391 487
3 391 488 487
3 391 392 488
3 392 384 479
3 489 392 479
3 488 392 489
3 489 479 480
3 397 481 385
3 397 490 481
3 491 398 482
3 482 398 387
3 482 483 492
3 482 492 491
3 493 485 388
3 493 388 399
3 495 493 494
3 493 400 494
3 493 399 400
3 494 400 496
3 400 497 496
3 400 401 497
3 401 390 486
3 498 401 486
3 497 401 498
3 404 403 499
3 486 487 498
3 500 405 404
3 500 404 499
3 405 500 501
3 502 405 501
3 406 405 502
3 397 406 490
3 490 406 502
3 491 407 398
3 408 407 491
3 492 408 491
3 503 408 492
3 504 495 494
3 504 494 496
3 506 505 499
3 403 506 499
3 410 506 403
3 499 505 500
3 500 505 507
3 500 507 501
3 503 508 408
3 408 508 411
3 412 411 508
3 412 508 509
3 511 510 413
3 511 413 414
3 413 512 415
3 510 512 413
3 410 415 506
3 506 415 512
3 416 412 513
3 412 514 513
3 412 509 514
3 513 418 416
3 517 516 515
3 420 421 515
3 516 420 515
3 518 420 516
3 414 420 511
3 511 420 518
3 514 519 513
3 519 521 520
3 519 520 422
3 513 519 422
3 418 513 422
3 422 520 522
3 523 422 522
3 423 422 523
3 423 524 424
3 523 524 423
3 515 425 517
3 425 524 517
3 425 424 524
3 425 515 421
3 521 525 520
3 520 525 522
3 527 526 427
3 427 526 426
3 528 427 428
3 528 527 427
3 530 529 429
3 529 428 429
3 529 528 428
3 530 531 529
3 526 431 426
3 532 431 526
3 432 530 429
3 432 434 530
3 434 531 530
3 434 533 531
3 535 534 436
3 436 534 435
3 436 431 532
3 436 532 535
3 437 537 536
3 533 437 536
3 434 437 533
3 537 538 536
3 540 438 539
3 438 534 539
3 438 435 534
3 541 540 539
3 543 542 537
3 437 543 537
3 439 543 437
3 537 542 538
3 540 440 438
3 442 440 540
3 541 442 540
3 544 442 541
3 443 543 439
3 443 545 543
3 544 445 442
3 546 445 544
3 548 547 446
3 548 446 447
3 443 446 545
3 545 446 547
3 550 549 449
3 449 549 448
3 449 445 546
3 449 546 550
3 450 548 447
3 450 551 548
3 553 552 452
3 452 552 451
3 452 448 549
3 452 549 553
3 453 555 554
3 551 453 554
3 450 453 551
3 555 556 554
3 558 557 457
3 457 557 456
3 457 451 552
3 457 552 558
3 458 559 555
3 458 555 453
3 556 555 560
3 560 555 559
3 562 561 461
3 461 561 460
3 461 456 557
3 461 557 562
3 462 563 559
3 462 559 458
3 560 559 564
3 564 559 563
3 566 565 465
3 465 565 464
3 561 567 460
3 567 568 460
3 569 460 568
3 460 569 465
3 570 465 569
3 465 570 567
3 567 566 465
3 561 566 567
3 567 570 568
3 571 569 568
3 466 572 563
3 466 563 462
3 564 563 573
3 573 563 572
3 574 468 469
3 470 574 469
3 565 575 464
3 464 575 471
3 569 472 570
3 472 575 570
3 472 471 575
3 571 576 569
3 576 472 569
3 576 475 472
3 476 475 576
3 476 576 577
3 478 578 572
3 478 572 466
3 573 572 579
3 579 572 578
3 580 480 574
3 574 480 468
3 481 580 470
3 470 580 574
3 582 483 581
3 483 577 581
3 483 476 577
3 583 582 581
3 484 578 478
3 484 485 578
3 485 579 578
3 485 584 579
3 585 487 488
3 585 488 586
3 488 587 586
3 488 489 587
3 587 489 480
3 588 587 480
3 580 588 480
3 587 588 589
3 490 588 481
3 481 588 580
3 590 492 582
3 582 492 483
3 582 583 591
3 582 591 590
3 592 584 485
3 592 485 493
3 594 593 495
3 593 493 495
3 593 592 493
3 496 497 594
3 497 593 594
3 497 595 593
3 596 497 498
3 596 595 497
3 498 487 585
3 597 498 585
3 596 498 597
3 597 585 586
3 589 588 502
3 501 589 502
3 598 589 501
3 502 588 490
3 599 503 590
3 590 503 492
3 590 591 600
3 590 600 599
3 504 594 495
3 594 504 496
3 506 601 505
3 602 507 505
3 602 505 601
3 602 603 507
3 603 501 507
3 603 598 501
3 599 508 503
3 509 508 599
3 600 509 599
3 604 509 600
3 606 605 510
3 606 510 511
3 510 607 512
3 605 607 510
3 506 512 601
3 512 608 601
3 512 607 608
3 601 608 602
3 602 608 609
3 602 609 603
3 604 514 509
3 610 514 604
3 517 611 516
3 516 611 612
3 613 516 612
3 518 516 613
3 511 518 606
3 606 518 613
3 610 614 514
3 514 614 519
3 521 519 614
3 521 614 615
3 617 616 523
3 617 523 522
3 523 618 524
3 616 618 523
3 517 524 611
3 524 619 611
3 524 618 619
3 611 619 612
3 615 620 521
3 521 620 525
3 522 525 617
3 617 525 620
3 621 526 527
3 621 527 622
3 527 623 622
3 527 528 623
3 624 528 529
3 624 623 528
3 529 531 624
3 624 531 625
3 627 626 621
3 626 526 621
3 626 532 526
3 627 621 622
3 533 629 628
3 625 533 628
3 531 533 625
3 629 630 628
3 631 534 535
3 632 631 535
3 532 632 535
3 626 632 532
3 536 629 533
3 536 538 629
3 538 630 629
3 538 633 630
3 631 539 534
3 541 539 631
3 632 541 631
3 634 541 632
3 636 635 542
3 636 542 543
3 538 542 633
3 633 542 635
3 638 544 637
3 544 634 637
3 544 541 634
3 639 638 637
3 642 641 640
3 641 636 640
3 636 545 640
3 636 543 545
3 644 643 638
3 643 544 638
3 643 546 544
3 644 638 639
3 642 640 547
3 548 642 547
3 645 642 548
3 547 640 545
3 647 646 550
3 550 646 549
3 550 546 643
3 550 643 647
3 551 649 648
3 645 551 648
3 548 551 645
3 649 650 648
3 652 651 553
3 553 651 552
3 553 549 646
3 553 646 652
3 554 649 551
3 554 556 649
3 556 650 649
3 556 653 650
3 655 654 558
3 558 654 557
3 558 552 651
3 558 651 655
3 560 653 556
3 560 656 653
3 657 561 562
3 658 657 562
3 557 658 562
3 654 658 557
3 564 660 659
3 656 564 659
3 560 564 656
3 660 661 659
3 663 662 566
3 566 662 565
3 568 570 664
3 561 657 566
3 665 566 657
3 566 665 663
3 657 658 665
3 568 664 571
3 573 666 660
3 573 660 564
3 661 660 667
3 667 660 666
3 662 668 565
3 565 668 575
3 570 575 664
3 575 669 664
3 575 668 669
3 664 669 571
3 669 576 571
3 669 670 576
3 577 576 670
3 577 670 671
3 579 672 666
3 579 666 573
3 667 666 673
3 673 666 672
3 581 577 674
3 577 675 674
3 577 671 675
3 674 583 581
3 584 676 672
3 584 672 579
3 673 672 677
3 672 678 677
3 672 676 678
3 680 679 678
3 678 679 677
3 680 681 679
3 682 586 587
3 589 682 587
3 675 683 674
3 583 674 683
3 684 583 683
3 591 583 684
3 592 676 584
3 676 592 593
3 676 593 678
3 678 593 595
3 678 595 680
3 685 681 680
3 595 685 680
3 596 685 595
3 686 596 597
3 686 685 596
3 597 586 682
3 687 597 682
3 686 597 687
3 589 598 682
3 598 688 682
3 688 687 682
3 688 598 689
3 689 690 688
3 684 600 591
3 691 600 684
3 603 692 689
3 603 689 598
3 690 689 693
3 693 689 692
3 691 604 600
3 694 604 691
3 606 695 605
3 696 607 605
3 696 605 695
3 697 608 607
3 697 607 696
3 608 697 698
3 699 608 698
3 609 608 699
3 603 609 692
3 609 700 692
3 609 699 700
3 692 700 693
3 694 610 604
3 701 610 694
3 703 702 613
3 703 613 612
3 606 613 695
3 613 704 695
3 613 702 704
3 695 704 696
3 696 704 705
3 696 705 697
3 697 705 706
3 697 706 698
3 701 707 610
3 610 707 614
3 615 614 707
3 615 707 708
3 617 709 616
3 710 618 616
3 710 616 709
3 711 619 618
3 711 618 710
3 711 712 619
3 712 612 619
3 712 703 612
3 708 713 615
3 615 713 620
3 617 620 709
3 620 714 709
3 620 713 714
3 709 714 710
3 710 714 715
3 710 715 711
3 711 715 716
3 711 716 712
3 717 622 623
3 717 623 718
3 623 719 718
3 623 624 719
3 624 625 719
3 719 625 720
3 721 626 627
3 622 717 627
3 717 721 627
3 717 722 721
3 717 718 723
3 717 723 722
3 625 628 724
3 725 625 724
3 720 625 725
3 630 724 628
3 726 632 721
3 721 632 626
3 727 721 722
3 726 721 727
3 722 723 728
3 729 722 728
3 727 722 729
3 729 728 725
3 724 729 725
3 730 729 724
3 633 730 630
3 630 730 724
3 731 634 726
3 726 634 632
3 727 733 732
3 731 727 732
3 726 727 731
3 735 734 733
3 727 735 733
3 729 735 727
3 636 735 635
3 735 730 635
3 735 729 730
3 635 730 633
3 731 637 634
3 639 637 731
3 732 639 731
3 736 639 732
3 734 735 641
3 642 734 641
3 737 734 642
3 641 735 636
3 739 738 644
3 644 738 643
3 644 639 736
3 644 736 739
3 645 741 740
3 737 645 740
3 642 645 737
3 741 742 740
3 744 743 647
3 647 743 646
3 647 643 738
3 647 738 744
3 648 741 645
3 648 650 741
3 650 742 741
3 650 745 742
3 747 746 652
3 652 746 651
3 652 646 743
3 652 743 747
3 653 749 748
3 745 653 748
3 650 653 745
3 749 750 748
3 751 654 655
3 752 751 655
3 651 752 655
3 746 752 651
3 656 753 749
3 656 749 653
3 750 749 754
3 754 749 753
3 756 755 751
3 755 654 751
3 755 658 654
3 756 751 752
3 659 753 656
3 659 661 753
3 661 754 753
3 661 757 754
3 758 662 663
3 665 759 663
3 663 759 758
3 760 759 665
3 658 760 665
3 755 760 658
3 667 762 761
3 757 667 761
3 661 667 757
3 762 763 761
3 758 668 662
3 668 758 669
3 669 758 759
3 670 669 759
3 764 670 759
3 760 764 759
3 765 670 764
3 765 671 670
3 673 766 762
3 673 762 667
3 763 762 767
3 767 762 766
3 764 768 765
3 671 765 768
3 769 671 768
3 675 671 769
3 677 766 673
3 770 767 766
3 677 770 766
3 679 770 677
3 772 771 681
3 771 679 681
3 771 770 679
3 772 773 771
3 683 675 774
3 675 775 774
3 675 769 775
3 774 684 683
3 685 772 681
3 776 773 772
3 685 776 772
3 686 776 685
3 777 686 687
3 777 776 686
3 778 687 688
3 778 777 687
3 688 690 778
3 778 690 779
3 775 780 774
3 684 774 780
3 781 684 780
3 691 684 781
3 693 779 690
3 693 782 779
3 781 694 691
3 783 694 781
3 785 784 699
3 785 699 698
3 699 786 700
3 784 786 699
3 693 700 782
3 782 700 786
3 783 701 694
3 787 701 783
3 703 788 702
3 789 704 702
3 789 702 788
3 790 705 704
3 790 704 789
3 705 790 791
3 792 705 791
3 706 705 792
3 698 706 785
3 785 706 792
3 787 793 701
3 701 793 707
3 708 707 793
3 708 793 794
3 712 795 788
3 712 788 703
3 797 789 796
3 789 795 796
3 789 788 795
3 789 797 790
3 790 797 798
3 790 798 791
3 794 799 708
3 708 799 713
3 713 800 714
3 799 800 713
3 800 802 801
3 715 800 801
3 714 800 715
3 715 801 803
3 804 715 803
3 716 715 804
3 712 716 795
3 716 805 795
3 716 804 805
3 795 805 796
3 806 718 719
3 720 806 719
3 807 723 806
3 806 723 718
3 725 807 720
3 720 807 806
3 807 728 723
3 728 807 725
3 808 732 733
3 734 808 733
3 810 809 808
3 809 732 808
3 809 736 732
3 808 734 810
3 734 811 810
3 734 737 811
3 813 812 739
3 739 812 738
3 739 736 809
3 739 809 813
3 814 811 737
3 814 737 740
3 740 742 814
3 814 742 815
3 817 816 744
3 744 816 743
3 744 738 812
3 744 812 817
3 745 819 818
3 815 745 818
3 742 745 815
3 819 820 818
3 822 821 747
3 747 821 746
3 747 743 816
3 747 816 822
3 748 819 745
3 824 823 750
3 750 823 748
3 823 820 748
3 820 819 748
3 824 825 823
3 821 752 746
3 826 752 821
3 754 827 824
3 754 824 750
3 825 824 828
3 828 824 827
3 829 755 756
3 830 829 756
3 752 830 756
3 826 830 752
3 757 831 827
3 757 827 754
3 828 827 832
3 832 827 831
3 834 833 829
3 833 755 829
3 833 760 755
3 834 829 830
3 761 831 757
3 761 763 831
3 763 832 831
3 763 835 832
3 837 764 836
3 764 833 836
3 764 760 833
3 838 837 836
3 767 840 839
3 835 767 839
3 763 767 835
3 840 841 839
3 837 768 764
3 769 768 837
3 838 769 837
3 842 769 838
3 770 840 767
3 843 841 840
3 770 843 840
3 771 843 770
3 771 773 843
3 843 773 844
3 842 775 769
3 845 775 842
3 773 776 846
3 847 773 846
3 844 773 847
3 777 848 776
3 776 848 846
3 778 849 777
3 777 849 848
3 779 849 778
3 780 775 850
3 775 851 850
3 775 845 851
3 850 781 780
3 852 847 846
3 854 853 852
3 846 854 852
3 848 854 846
3 855 848 849
3 854 848 855
3 782 855 779
3 779 855 849
3 850 851 856
3 856 851 857
3 856 783 781
3 856 781 850
3 860 859 858
3 858 859 853
3 858 853 854
3 785 858 854
3 784 785 854
3 784 854 786
3 786 854 855
3 786 855 782
3 857 861 856
3 783 856 861
3 862 783 861
3 787 783 862
3 860 858 792
3 791 860 792
3 863 860 791
3 792 858 785
3 862 864 787
3 787 864 793
3 794 793 864
3 794 864 865
3 867 866 797
3 867 797 796
3 797 868 798
3 866 868 797
3 791 798 863
3 863 798 868
3 799 794 869
3 794 870 869
3 794 865 870
3 871 800 799
3 871 799 869
3 871 802 800
3 873 872 804
3 873 804 803
3 804 874 805
3 872 874 804
3 796 805 867
3 867 805 874
3 875 809 810
3 811 875 810
3 878 877 876
3 812 813 876
3 813 878 876
3 813 879 878
3 813 809 875
3 880 813 875
3 879 813 880
3 880 875 811
3 814 880 811
3 881 880 814
3 883 882 815
3 882 814 815
3 882 881 814
3 883 884 882
3 887 886 885
3 887 885 877
3 877 885 876
3 885 816 876
3 816 817 876
3 876 817 812
3 818 883 815
3 818 820 883
3 820 884 883
3 820 888 884
3 885 886 822
3 886 821 822
3 886 889 821
3 885 822 816
3 890 888 820
3 890 820 823
3 823 825 890
3 890 825 891
3 894 893 892
3 889 894 892
3 826 889 892
3 821 889 826
3 828 896 895
3 891 828 895
3 825 828 891
3 896 897 895
3 892 893 898
3 898 893 899
3 898 830 826
3 898 826 892
3 832 900 896
3 832 896 828
3 897 896 901
3 901 896 900
3 898 899 834
3 899 833 834
3 899 902 833
3 898 834 830
3 835 903 900
3 835 900 832
3 901 900 904
3 900 905 904
3 900 903 905
3 905 906 904
3 836 833 907
3 833 908 907
3 833 902 908
3 907 838 836
3 839 903 835
3 903 839 841
3 909 903 841
3 905 903 909
3 906 905 910
3 910 905 909
3 908 911 907
3 838 907 911
3 912 838 911
3 842 838 912
3 909 841 843
3 915 914 913
3 914 915 844
3 915 910 844
3 909 843 844
3 909 844 910
3 912 845 842
3 916 845 912
3 917 913 914
3 914 844 917
3 844 918 917
3 844 847 918
3 916 851 845
3 919 851 916
3 847 852 920
3 921 847 920
3 918 847 921
3 853 920 852
3 919 857 851
3 922 857 919
3 921 920 859
3 860 921 859
3 923 921 860
3 859 920 853
3 922 924 857
3 857 924 861
3 862 861 924
3 862 924 925
3 928 927 926
3 930 929 926
3 930 926 927
3 930 923 929
3 923 863 929
3 923 860 863
3 925 931 862
3 862 931 864
3 865 864 931
3 865 931 932
3 928 926 866
3 867 928 866
3 933 928 867
3 866 926 868
3 868 926 929
3 868 929 863
3 932 870 865
3 934 870 932
3 936 935 872
3 936 872 873
3 872 937 874
3 935 937 872
3 867 874 933
3 933 874 937
3 940 939 938
3 938 941 940
3 943 942 878
3 878 942 877
3 944 878 879
3 944 943 878
3 880 938 939
3 944 880 939
3 879 880 944
3 945 941 938
3 880 945 938
3 881 945 880
3 946 881 882
3 946 945 881
3 882 884 946
3 946 884 947
3 949 948 887
3 887 948 886
3 887 877 942
3 887 942 949
3 888 951 950
3 947 888 950
3 884 888 947
3 951 952 950
3 955 954 953
3 948 955 953
3 889 948 953
3 886 948 889
3 890 951 888
3 890 891 951
3 891 952 951
3 891 956 952
3 953 954 894
3 954 893 894
3 954 957 893
3 953 894 889
3 958 956 891
3 958 891 895
3 895 897 958
3 958 897 959
3 957 899 893
3 960 899 957
3 901 962 961
3 959 901 961
3 897 901 959
3 962 963 961
3 960 902 899
3 964 902 960
3 904 962 901
3 904 906 962
3 906 963 962
3 906 965 963
3 964 908 902
3 966 908 964
3 910 965 906
3 910 967 965
3 966 968 908
3 908 968 911
3 912 911 968
3 912 968 969
3 971 970 915
3 971 915 913
3 910 915 967
3 967 915 970
3 969 916 912
3 972 916 969
3 913 917 973
3 974 913 973
3 971 913 974
3 918 973 917
3 972 919 916
3 975 919 972
3 974 973 976
3 974 976 977
3 921 976 918
3 918 976 973
3 975 922 919
3 978 922 975
3 977 976 979
3 977 979 980
3 923 979 921
3 921 979 976
3 978 981 922
3 922 981 924
3 925 924 981
3 925 981 982
3 984 983 927
3 984 927 928
3 979 930 980
3 930 983 980
3 930 927 983
3 930 979 923
3 931 925 985
3 925 986 985
3 925 982 986
3 985 932 931
3 989 988 987
3 988 984 987
3 984 933 987
3 984 928 933
3 986 990 985
3 932 985 990
3 991 932 990
3 934 932 991
3 993 992 935
3 993 935 936
3 987 937 989
3 937 992 989
3 937 935 992
3 937 987 933
3 995 994 940
3 940 994 939
3 940 941 995
3 995 941 996
3 999 998 997
3 942 943 997
3 943 999 997
3 943 1000 999
3 1001 943 944
3 1001 1000 943
3 944 939 994
3 944 994 1001
3 1002 996 941
3 1002 941 945
3 1003 945 946
3 1003 1002 945
3 946 947 1003
3 1003 947 1004
3 997 998 949
3 998 948 949
3 998 1005 948
3 997 949 942
3 1006 1004 947
3 1006 947 950
3 950 952 1006
3 1006 952 1007
3 1009 1008 955
3 955 1008 954
3 955 948 1005
3 955 1005 1009
3 956 1007 952
3 956 1010 1007
3 1008 957 954
3 1011 957 1008
3 1012 1010 956
3 1012 956 958
3 958 959 1012
3 1012 959 1013
3 1011 960 957
3 1014 960 1011
3 1015 1013 959
3 1015 959 961
3 961 963 1015
3 1015 963 1016
3 1014 964 960
3 1017 964 1014
3 965 1016 963
3 965 1018 1016
3 1017 966 964
3 1019 966 1017
3 967 1018 965
3 967 1020 1018
3 1019 1021 966
3 966 1021 968
3 969 968 1021
3 969 1021 1022
3 1024 1023 970
3 1024 970 971
3 967 970 1020
3 1020 970 1023
3 1022 972 969
3 1025 972 1022
3 974 1024 971
3 974 1026 1024
3 1025 975 972
3 1027 975 1025
3 977 1026 974
3 977 1028 1026
3 1027 978 975
3 1029 978 1027
3 1032 1031 1030
3 1031 1028 1030
3 1028 980 1030
3 1028 977 980
3 1029 1033 978
3 978 1033 981
3 982 981 1033
3 982 1033 1034
3 1032 1030 983
3 984 1032 983
3 1035 1032 984
3 983 1030 980
3 1034 986 982
3 1036 986 1034
3 1038 1037 988
3 1038 988 989
3 984 988 1035
3 1035 988 1037
3 1036 1039 986
3 986 1039 990
3 991 990 1039
3 991 1039 1040
3 1043 1042 1041
3 992 993 1041
3 1042 992 1041
3 1044 992 1042
3 989 992 1038
3 1038 992 1044
3 1047 1046 1045
3 1045 1048 1047
3 1050 1049 995
3 995 1049 994
3 995 996 1050
3 1050 996 1051
3 1053 1052 999
3 999 1052 998
3 1000 1045 1046
3 1053 1000 1046
3 999 1000 1053
3 1054 1048 1045
3 1000 1054 1045
3 1001 1054 1000
3 1001 994 1049
3 1001 1049 1054
3 1055 1051 996
3 1055 996 1002
3 1056 1002 1003
3 1056 1055 1002
3 1003 1004 1056
3 1056 1004 1057
3 1052 1005 998
3 1058 1005 1052
3 1059 1057 1004
3 1059 1004 1006
3 1006 1007 1059
3 1059 1007 1060
3 1061 1008 1009
3 1062 1061 1009
3 1005 1062 1009
3 1058 1062 1005
3 1010 1060 1007
3 1010 1063 1060
3 1065 1064 1061
3 1064 1008 1061
3 1064 1011 1008
3 1065 1061 1062
3 1066 1063 1010
3 1066 1010 1012
3 1012 1013 1066
3 1066 1013 1067
3 1064 1014 1011
3 1068 1014 1064
3 1013 1015 1069
3 1070 1013 1069
3 1067 1013 1070
3 1016 1069 1015
3 1068 1017 1014
3 1071 1017 1068
3 1072 1070 1069
3 1069 1016 1072
3 1016 1073 1072
3 1016 1018 1073
3 1075 1019 1074
3 1019 1071 1074
3 1019 1017 1071
3 1076 1075 1074
3 1020 1073 1018
3 1020 1077 1073
3 1075 1021 1019
3 1022 1021 1075
3 1076 1022 1075
3 1078 1022 1076
3 1080 1079 1023
3 1080 1023 1024
3 1020 1023 1077
3 1077 1023 1079
3 1078 1025 1022
3 1081 1025 1078
3 1026 1080 1024
3 1026 1082 1080
3 1081 1027 1025
3 1083 1027 1081
3 1028 1082 1026
3 1028 1084 1082
3 1083 1029 1027
3 1085 1029 1083
3 1087 1086 1031
3 1087 1031 1032
3 1028 1031 1084
3 1084 1031 1086
3 1085 1088 1029
3 1029 1088 1033
3 1034 1033 1088
3 1034 1088 1089
3 1035 1087 1032
3 1035 1090 1087
3 1092 1036 1091
3 1036 1089 1091
3 1036 1034 1089
3 1093 1092 1091
3 1096 1095 1094
3 1037 1038 1094
3 1095 1037 1094
3 1097 1037 1095
3 1035 1037 1090
3 1090 1037 1097
3 1092 1039 1036
3 1099 1098 1040
3 1099 1040 1039
3 1093 1099 1039
3 1092 1093 1039
3 1101 1100 1098
3 1101 1098 1099
3 1042 1043 1100
3 1101 1042 1100
3 1102 1042 1101
3 1094 1044 1096
3 1044 1102 1096
3 1044 1042 1102
3 1044 1094 1038
3 1103 1046 1047
3 1048 1103 1047
3 1104 1049 1050
3 1051 1104 1050
3 1105 1052 1053
3 1106 1105 1053
3 1106 1053 1046
3 1107 1106 1046
3 1103 1107 1046
3 1107 1103 1048
3 1054 1107 1048
3 1108 1107 1054
3 1054 1049 1104
3 1109 1054 1104
3 1108 1054 1109
3 1109 1104 1051
3 1055 1109 1051
3 1110 1109 1055
3 1111 1055 1056
3 1111 1110 1055
3 1056 1057 1111
3 1111 1057 1112
3 1114 1113 1105
3 1113 1052 1105
3 1113 1058 1052
3 1114 1105 1106
3 1115 1112 1057
3 1115 1057 1059
3 1059 1060 1115
3 1115 1060 1116
3 1113 1062 1058
3 1117 1062 1113
3 1063 1116 1060
3 1063 1118 1116
3 1119 1064 1065
3 1120 1119 1065
3 1062 1120 1065
3 1117 1120 1062
3 1063 1066 1121
3 1122 1063 1121
3 1118 1063 1122
3 1067 1121 1066
3 1124 1123 1119
3 1123 1064 1119
3 1123 1068 1064
3 1124 1119 1120
3 1125 1122 1121
3 1121 1067 1125
3 1067 1126 1125
3 1067 1070 1126
3 1128 1071 1127
3 1071 1123 1127
3 1071 1068 1123
3 1129 1128 1127
3 1070 1072 1130
3 1131 1070 1130
3 1126 1070 1131
3 1073 1130 1072
3 1128 1074 1071
3 1076 1074 1128
3 1129 1076 1128
3 1132 1076 1129
3 1131 1130 1133
3 1131 1133 1134
3 1077 1133 1073
3 1073 1133 1130
3 1132 1078 1076
3 1135 1078 1132
3 1134 1133 1079
3 1080 1134 1079
3 1136 1134 1080
3 1079 1133 1077
3 1135 1081 1078
3 1137 1081 1135
3 1082 1136 1080
3 1082 1138 1136
3 1137 1083 1081
3 1139 1083 1137
3 1142 1141 1140
3 1141 1138 1140
3 1138 1084 1140
3 1138 1082 1084
3 1144 1085 1143
3 1085 1139 1143
3 1085 1083 1139
3 1145 1144 1143
3 1142 1140 1086
3 1087 1142 1086
3 1146 1142 1087
3 1086 1140 1084
3 1144 1088 1085
3 1148 1147 1089
3 1148 1089 1088
3 1145 1148 1088
3 1144 1145 1088
3 1149 1147 1148
3 1152 1151 1150
3 1151 1146 1150
3 1146 1090 1150
3 1146 1087 1090
3 1147 1091 1089
3 1154 1153 1093
3 1154 1093 1091
3 1149 1154 1091
3 1147 1149 1091
3 1156 1155 1153
3 1156 1153 1154
3 1158 1157 1155
3 1158 1155 1156
3 1095 1096 1157
3 1158 1095 1157
3 1159 1095 1158
3 1150 1097 1152
3 1097 1159 1152
3 1097 1095 1159
3 1097 1150 1090
3 1153 1099 1093
3 1099 1153 1101
3 1101 1153 1155
3 1101 1155 1102
3 1102 1155 1157
3 1102 1157 1096
3 1160 1106 1107
3 1160 1107 1161
3 1107 1162 1161
3 1107 1108 1162
3 1163 1108 1109
3 1163 1162 1108
3 1164 1109 1110
3 1164 1163 1109
3 1166 1164 1165
3 1164 1111 1165
3 1164 1110 1111
3 1112 1165 1111
3 1167 1113 1114
3 1168 1167 1114
3 1168 1114 1106
3 1169 1168 1106
3 1160 1169 1106
3 1169 1160 1161
3 1170 1166 1165
3 1172 1170 1171
3 1171 1170 1115
3 1170 1165 1115
3 1165 1112 1115
3 1116 1171 1115
3 1173 1117 1167
3 1167 1117 1113
3 1167 1168 1174
3 1167 1174 1173
3 1175 1172 1171
3 1171 1116 1175
3 1116 1176 1175
3 1116 1118 1176
3 1178 1177 1173
3 1177 1117 1173
3 1177 1120 1117
3 1178 1173 1174
3 1122 1176 1118
3 1122 1179 1176
3 1180 1123 1124
3 1181 1180 1124
3 1120 1181 1124
3 1177 1181 1120
3 1122 1125 1182
3 1183 1122 1182
3 1179 1122 1183
3 1126 1182 1125
3 1180 1127 1123
3 1129 1127 1180
3 1181 1129 1180
3 1184 1129 1181
3 1185 1183 1182
3 1182 1126 1185
3 1126 1186 1185
3 1126 1131 1186
3 1188 1132 1187
3 1132 1184 1187
3 1132 1129 1184
3 1189 1188 1187
3 1134 1186 1131
3 1134 1190 1186
3 1191 1135 1188
3 1188 1135 1132
3 1188 1189 1192
3 1188 1192 1191
3 1136 1190 1134
3 1136 1193 1190
3 1194 1137 1191
3 1191 1137 1135
3 1191 1192 1195
3 1191 1195 1194
3 1198 1197 1196
3 1197 1193 1196
3 1193 1138 1196
3 1193 1136 1138
3 1199 1139 1194
3 1194 1139 1137
3 1194 1195 1200
3 1194 1200 1199
3 1198 1196 1141
3 1142 1198 1141
3 1201 1198 1142
3 1141 1196 1138
3 1199 1143 1139
3 1203 1202 1145
3 1203 1145 1143
3 1200 1203 1143
3 1199 1200 1143
3 1204 1202 1203
3 1207 1206 1205
3 1206 1201 1205
3 1201 1146 1205
3 1201 1142 1146
3 1202 1148 1145
3 1209 1208 1149
3 1209 1149 1148
3 1204 1209 1148
3 1202 1204 1148
3 1211 1210 1208
3 1211 1208 1209
3 1213 1212 1210
3 1213 1210 1211
3 1215 1214 1212
3 1215 1212 1213
3 1214 1215 1207
3 1214 1207 1205
3 1152 1214 1205
3 1151 1152 1205
3 1151 1205 1146
3 1208 1154 1149
3 1154 1208 1156
3 1156 1208 1210
3 1156 1210 1158
3 1158 1210 1212
3 1158 1212 1159
3 1159 1212 1214
3 1159 1214 1152
3 1216 1161 1162
3 1163 1217 1162
3 1162 1217 1216
3 1164 1218 1163
3 1163 1218 1217
3 1166 1218 1164
3 1219 1168 1169
3 1161 1216 1169
3 1216 1219 1169
3 1216 1220 1219
3 1217 1222 1221
3 1220 1217 1221
3 1216 1217 1220
3 1222 1217 1218
3 1222 1218 1223
3 1223 1218 1166
3 1170 1223 1166
3 1224 1223 1170
3 1170 1172 1224
3 1224 1172 1225
3 1226 1174 1219
3 1219 1174 1168
3 1220 1228 1227
3 1226 1220 1227
3 1219 1220 1226
3 1228 1220 1221
3 1172 1175 1229
3 1230 1172 1229
3 1225 1172 1230
3 1176 1229 1175
3 1231 1177 1178
3 1232 1231 1178
3 1232 1178 1174
3 1233 1232 1174
3 1226 1233 1174
3 1233 1226 1227
3 1234 1230 1229
3 1229 1176 1234
3 1176 1235 1234
3 1176 1179 1235
3 1236 1181 1231
3 1231 1181 1177
3 1231 1232 1237
3 1231 1237 1236
3 1183 1235 1179
3 1183 1238 1235
3 1239 1184 1236
3 1236 1184 1181
3 1236 1237 1240
3 1236 1240 1239
3 1183 1185 1241
3 1242 1183 1241
3 1238 1183 1242
3 1186 1241 1185
3 1239 1187 1184
3 1244 1243 1189
3 1244 1189 1187
3 1240 1244 1187
3 1239 1240 1187
3 1245 1243 1244
3 1242 1241 1246
3 1242 1246 1247
3 1190 1246 1186
3 1186 1246 1241
3 1248 1192 1243
3 1243 1192 1189
3 1243 1245 1249
3 1243 1249 1248
3 1252 1251 1250
3 1250 1251 1247
3 1246 1250 1247
3 1253 1250 1246
3 1193 1253 1190
3 1190 1253 1246
3 1254 1195 1248
3 1248 1195 1192
3 1248 1249 1255
3 1248 1255 1254
3 1252 1250 1256
3 1252 1256 1257
3 1198 1256 1197
3 1256 1253 1197
3 1256 1250 1253
3 1197 1253 1193
3 1258 1200 1254
3 1254 1200 1195
3 1254 1255 1259
3 1260 1254 1259
3 1258 1254 1260
3 1262 1261 1260
3 1262 1260 1259
3 1263 1261 1262
3 1257 1256 1264
3 1257 1264 1265
3 1201 1264 1198
3 1198 1264 1256
3 1258 1203 1200
3 1203 1258 1204
3 1258 1266 1204
3 1258 1260 1266
3 1267 1260 1261
3 1266 1260 1267
3 1261 1263 1268
3 1269 1261 1268
3 1267 1261 1269
3 1271 1270 1269
3 1271 1269 1268
3 1270 1271 1265
3 1270 1265 1264
3 1207 1270 1264
3 1206 1207 1264
3 1206 1264 1201
3 1266 1209 1204
3 1209 1266 1211
3 1211 1266 1267
3 1211 1267 1213
3 1213 1267 1269
3 1213 1269 1215
3 1215 1269 1270
3 1215 1270 1207
3 1272 1221 1222
3 1223 1273 1222
3 1222 1273 1272
3 1224 1274 1223
3 1223 1274 1273
3 1225 1274 1224
3 1275 1227 1228
3 1221 1272 1228
3 1272 1275 1228
3 1272 1276 1275
3 1273 1278 1277
3 1276 1273 1277
3 1272 1273 1276
3 1280 1279 1278
3 1273 1280 1278
3 1274 1280 1273
3 1230 1280 1225
3 1225 1280 1274
3 1281 1232 1233
3 1227 1275 1233
3 1275 1281 1233
3 1275 1282 1281
3 1276 1284 1283
3 1282 1276 1283
3 1275 1276 1282
3 1284 1276 1277
3 1285 1279 1280
3 1287 1285 1286
3 1286 1285 1234
3 1285 1280 1234
3 1280 1230 1234
3 1235 1286 1234
3 1288 1237 1281
3 1281 1237 1232
3 1289 1281 1282
3 1288 1281 1289
3 1282 1283 1290
3 1282 1290 1289
3 1287 1286 1291
3 1287 1291 1292
3 1238 1291 1235
3 1235 1291 1286
3 1293 1240 1288
3 1288 1240 1237
3 1294 1288 1289
3 1293 1288 1294
3 1289 1290 1295
3 1289 1295 1294
3 1298 1297 1296
3 1296 1297 1292
3 1291 1296 1292
3 1299 1296 1291
3 1242 1299 1238
3 1238 1299 1291
3 1293 1244 1240
3 1244 1293 1245
3 1293 1300 1245
3 1293 1294 1300
3 1294 1295 1301
3 1294 1301 1300
3 1298 1296 1302
3 1298 1302 1303
3 1304 1296 1299
3 1302 1296 1304
3 1247 1304 1242
3 1242 1304 1299
3 1305 1249 1300
3 1300 1249 1245
3 1300 1301 1306
3 1307 1300 1306
3 1305 1300 1307
3 1309 1308 1307
3 1309 1307 1306
3 1308 1309 1303
3 1302 1308 1303
3 1310 1308 1302
3 1252 1310 1251
3 1310 1304 1251
3 1310 1302 1304
3 1251 1304 1247
3 1311 1255 1305
3 1305 1255 1249
3 1312 1305 1307
3 1311 1305 1312
3 1313 1307 1308
3 1312 1307 1313
3 1314 1308 1310
3 1313 1308 1314
3 1257 1314 1252
3 1252 1314 1310
3 1311 1259 1255
3 1259 1311 1262
3 1262 1311 1312
3 1262 1312 1263
3 1312 1315 1263
3 1312 1313 1315
3 1316 1313 1314
3 1315 1313 1316
3 1265 1316 1257
3 1257 1316 1314
3 1315 1268 1263
3 1268 1315 1271
3 1271 1315 1316
3 1271 1316 1265