OFF
566 1074 0
1.3629661312 8.3585807804 8.6149565338
1.5896566357 8.4406262495 7.8901501942
1.5984195740 7.9010206985 8.1968459733
1.5103487622 7.7615816312 8.9910201943
1.2878870910 8.3610552311 9.5089287571
1.4735484388 7.7867315363 9.9905218121
1.3069958315 8.4002958571 10.4668032722
1.4707009727 7.9325754561 10.7947578194
1.4297150501 8.8228717968 8.3069571273
1.6769952365 8.9903409081 7.8465632536
1.3455857047 8.9292207788 9.0198678192
1.3385281825 9.0055986201 10.0314541520
1.4142852941 8.3566103767 11.2062471708
1.4554483230 8.9872074475 11.1730565721
1.6215984460 8.5446469231 11.9108629815
1.7011929323 9.1228447829 12.0443329900
1.9920597079 8.8331305197 12.6768682477
1.6238412901 9.3315882226 8.4166887898
1.6205343749 9.6297006737 9.4105991161
1.6390454325 9.6527109721 10.5955597384
1.9144312590 9.7007495646 11.7388342338
2.0575307932 9.4179690512 12.5036139775
2.2348901681 7.0912950923 7.3768553612
2.4348432659 7.3475059778 6.6445758211
2.5724010975 6.6641432464 6.9424883008
2.4736522031 6.5021703726 7.7841147157
1.9512740843 7.2121180966 8.2782757487
2.3807233706 6.4696215670 8.8869200679
1.8716542067 7.1350617113 9.4765614420
2.3601118448 6.5090700512 10.0554550428
1.8599583453 7.2867910643 10.6915009809
2.4123529932 6.6281432268 11.1743866021
2.0909839750 7.2967668122 11.7610247262
2.4686513772 6.8056149599 12.0130709349
1.9663075235 7.8459446693 7.4158506866
2.3669545712 8.2843724212 6.5755932604
1.6833068282 7.8959063281 11.5204679603
2.3205538532 7.2644000772 12.4718392266
2.0554208566 7.9704078078 12.5718777343
2.4713724654 7.4682617246 13.1361494016
2.3358335325 7.9343804768 13.2674796157
2.6095010693 7.7978664569 13.6689052672
1.9693045854 8.7190804638 7.2945844141
2.3938575212 9.1178840057 6.7639383663
2.4362346598 8.4320414013 13.4644821375
2.6098705077 9.3557289478 13.2872625521
2.0939991862 9.5107273078 7.6129783198
1.9660184467 9.9118457164 8.5622821229
1.9677522349 10.1592752463 9.2816090965
2.2070813454 10.3244520811 8.8290944299
1.9258421302 10.1701449422 10.0800812477
2.0773310100 10.2195209907 11.0619633970
2.5308201970 10.3345455337 11.9972534018
2.5172046856 9.9229950907 12.5957677915
2.2032696710 10.4744041608 9.5842039183
2.2544011509 10.5468974491 10.5182276422
2.4393891100 10.5720909870 11.3151965464
3.6338468906 5.1921301536 5.3343906823
3.8042079261 5.3608079420 4.7578291659
4.0725819748 4.7753187987 5.0016387544
3.9142456548 4.7228363054 5.5558380594
3.3927759335 5.9328261688 5.1816628295
3.7776551715 6.1385159217 4.3294087561
3.6328653837 5.0190917354 5.9048557179
3.3050700261 5.6011265492 5.9785288487
3.5383598959 5.1204377549 6.6610539199
2.9962728941 5.9049638742 7.0395866692
3.4704557955 5.1552225289 7.7509700780
2.9199529063 5.8203057792 8.2985022328
3.4225355579 5.1695369281 8.9009705190
2.8891587103 5.8231865713 9.4655645596
3.4245478090 5.2040149875 10.0155764150
2.9051357776 5.9037006585 10.6280780408
3.4826850496 5.2886833098 11.1799511842
2.9468342921 6.1269652529 11.8644683308
3.5760132846 5.4496251284 12.3385561375
3.2198919182 6.1741509628 12.9602381790
3.6671507562 5.6310792873 13.2039116909
3.2372941733 6.9367095764 5.0264120648
3.6115631299 7.3029008130 4.2051036963
2.9187115344 6.5674587388 6.0396854715
2.7171438894 6.7976007266 12.7333342659
3.5316951987 6.1199636716 13.7450444723
3.0784361262 7.0008569593 13.8351806558
3.9185383104 6.2608716962 14.7668893550
3.5380053049 7.2936764225 15.0482532835
4.0246573945 6.8097721945 15.6148638934
3.2049062019 8.0629317104 4.9282017339
3.6655512438 8.3689634775 4.1145065551
2.7976128877 7.6884473872 5.7952837650
3.0008273133 8.0791692188 14.3781343377
4.0061541530 7.4160360128 16.0122682505
3.5533496541 8.1806231257 15.4631903944
3.9838063205 8.1009017123 16.2182351868
3.3347882559 9.0826193769 4.8322308679
3.7766149919 9.3133562666 4.1563782542
2.8504891041 8.9000246026 5.8322042432
2.8945114818 8.8876436217 14.0622287530
3.3032621430 8.8477405684 14.8077568179
3.6327985149 8.8665811679 15.4670943719
3.8562942180 8.6053497670 15.9696244362
3.5514651000 9.7434187802 4.6813388589
3.8170845509 9.8590683888 4.3306703177
3.2600322167 9.8125868997 5.4377529842
2.7930764290 9.9637867042 6.6974781747
2.4018415870 10.1987335021 7.9780400017
2.8941591191 10.3009937055 12.6312024305
3.3971378174 10.1753737743 13.3009847430
3.3872919510 9.5632782194 14.2258020446
3.6688061145 9.3282333816 15.0670449966
3.8492334703 10.2682727785 4.7602344457
3.3555704230 10.4419460802 5.8783988124
3.1300090492 10.5852118295 6.6527511642
2.8185503815 10.5011514906 7.4167935616
3.1493709188 10.7244536121 6.8224696149
2.4320694494 10.5208861769 8.7715112820
2.3723949637 10.6554482701 9.9802204035
2.4957143588 10.7024209753 10.9582687721
2.8251470626 10.6583894557 11.9016172728
3.1817408605 10.5439546738 12.5829034015
4.3572624351 3.9982666018 9.4376043237
4.5315533496 3.7879855345 8.6248250035
4.7932693684 3.4628630664 9.1433772696
4.7963324023 3.4821116289 9.7695435038
4.3941049453 5.0250248332 4.2761647968
4.4801984588 4.4462840807 4.8693031046
4.4408259998 4.2457539878 5.5621747168
3.9884674743 4.5815645577 6.2310489961
4.5393714737 3.9795825855 6.6679036799
4.0062883700 4.5166129156 7.2344454706
4.5403315563 3.8623864067 7.7651114720
4.0203353041 4.4374888521 8.4404540710
3.8483392150 4.6475829977 9.4475647852
4.5448989605 3.8334905198 10.2659577001
4.0389255930 4.4966825892 10.4666795323
4.6014001842 3.9423833957 11.1844864061
4.0883506355 4.6778831791 11.7692853885
4.7594737037 4.0736471164 12.4055383920
4.2068003678 4.9175544501 13.0692452868
5.1236000126 4.1697339465 13.7695290987
4.5118810848 4.9719526266 14.1199233761
5.0260791878 4.6533060548 14.6172792373
4.3222174864 5.8994484576 3.6190720889
4.8192323400 5.6608067597 3.1625347493
4.6520457346 5.2945496587 3.6170187100
3.9805381666 5.5595765433 13.9145725801
4.6967745861 5.1128883333 14.7918110160
4.3020778383 5.4931769126 14.5736888023
4.6142204992 5.5753224501 15.2500875596
4.5227213921 6.6540277121 3.0240575239
5.0805615318 6.8312702061 2.3503422500
5.0662625039 6.0904634224 2.6356922771
4.0116602660 6.7153898894 3.6697873987
4.6374778594 6.2351555453 16.0128058330
4.2736988095 6.8531777873 16.0894286667
4.5955872021 6.9757548995 16.5884215345
4.6618295952 7.6528475827 2.7234192211
5.1852919106 7.5481912698 2.1489739504
4.0754334349 7.5870740846 3.4602631063
4.4603870826 7.7392760366 16.7398427553
4.3558920073 8.5785445419 16.5795532069
4.9535309384 8.1383907212 17.2530514019
5.1875694412 8.3512392831 2.4080224443
4.3412872359 8.6780184878 3.3357661848
5.1694034171 9.3228213800 2.9870536109
4.0825873480 9.2420306718 15.8110158542
4.6535908788 9.3007667064 16.4978828735
4.9100699120 8.8102598325 17.0287727839
4.3465170299 9.7819127093 3.8447199627
5.1905943794 10.0403853473 3.5505690567
3.9198691687 10.0998009794 14.0816670693
4.1802891527 9.8978376699 14.8962448271
4.6415413796 9.8244553242 15.8451387378
5.0367605766 9.7254218593 16.3965857378
5.2524766198 9.2821975235 16.8962056854
4.7419256122 10.4205402197 4.1004729903
4.3403193729 10.6250881954 4.5823893133
5.2139813228 10.6933180036 4.2099704910
3.7185674936 10.6374664769 5.3729276577
3.3659523958 10.7223338891 6.2278291535
3.3644007578 10.7023218093 12.5294640926
3.9877779798 10.6265740759 13.0626926966
4.7990166936 10.4873654295 13.9070941663
5.0233951599 10.2470929900 15.2151347866
5.1892948282 10.0474762776 15.9721161942
5.6499411493 2.7249889898 8.3208035386
5.8303956640 2.6534702094 7.4370288257
6.4367586491 2.2025368914 8.0382475461
6.2452721519 2.2797602693 9.2521445809
5.3795111048 2.9281226825 9.5626479022
6.1794500608 2.3596048555 10.3904360142
5.6148708032 2.8200047532 10.8286717524
6.1674944702 2.4446555489 11.2356293513
5.1002501067 3.9754617313 4.8223895143
5.7554008707 3.7427401828 4.1536722055
5.7520793380 3.3845005119 4.7898522157
5.7461142409 3.1506007302 5.4974689753
5.1195816283 3.5414874071 6.0473946772
5.7400980213 2.8812600897 6.5560023838
5.1888968322 3.2475778042 7.3003503282
4.9954199179 3.3012722345 8.4311148281
5.0120695163 3.3575835890 10.5364049533
5.8747643159 2.7502595881 11.6631743530
5.3004686719 3.3147191037 11.7249758146
6.0437239733 2.8943898109 12.6046331816
5.4482904124 3.5214791743 12.9614760915
6.1029332426 3.2067086086 13.6109106699
5.6203205266 3.6005735216 13.6675234296
5.9915236353 3.6116582299 14.3015279188
5.1894791701 4.6896241244 3.6359043610
5.7970395865 4.5711729715 3.0548011861
5.7621696627 4.1333428535 3.5554312579
5.7751743084 4.1957164665 15.0193662158
5.2256578998 4.9272091116 15.3908029062
5.9936183760 4.5963138416 15.9827780920
5.5671145593 5.0776989407 16.1251416046
6.0357945413 4.9960441912 16.6034417430
5.3776418151 5.3342241108 2.8136924941
5.7577077259 5.8528955006 2.1872362233
5.8079438784 5.0946468126 2.5799912674
5.0998349934 5.4631705835 15.9031409675
5.5445619133 5.6046159339 16.6700235961
5.6501777529 6.9508465763 1.8473382019
5.2391689279 6.4180437067 17.0246891645
5.1392418459 7.2607090463 17.3766521188
5.7070942417 6.6028582251 17.7645947790
5.6631628432 7.1965091128 17.9531880354
6.0240474128 6.8332254135 18.1829059656
5.7058773912 7.6957595503 1.8153095920
6.3047841538 7.5855356792 1.5529132430
6.1589470580 7.1423911299 1.5395139186
5.5043282822 7.7969856258 17.7896702146
6.0222260307 7.4842584015 18.1626009477
6.1468630488 8.2809718391 1.9440631193
5.6161254663 8.8906775429 2.3865726759
6.0830690541 8.9343743032 2.2992825329
5.8065782079 8.0159101061 17.9360608163
5.5784403083 8.5391192237 17.4953443793
5.8163365573 9.2877253108 2.6236204872
6.1510858790 9.7680023567 3.1667090329
5.8789081878 9.1442624198 17.0648064853
5.6952979969 9.7289494759 16.4634883613
5.8371733238 10.4770713295 3.9410262758
6.1368214623 10.7959735354 4.4136727087
5.9022296339 10.9193479340 12.2146542715
6.4539164558 10.8432827769 11.6262984163
6.2582227574 10.9725735779 11.5077353499
5.1398805231 10.7844286849 12.9994089073
5.9366524901 10.7449693544 12.8966581537
5.9484595280 10.5831732539 13.9085163305
5.7565457362 10.4331447477 14.7941882951
5.7279914092 10.1901378197 15.7000171887
6.4257893686 2.9114107974 4.7611828354
6.8993573761 2.9119963983 3.9095256278
7.4474504803 2.2652071994 4.5096129388
7.1624831995 2.1248171527 5.7286716026
6.3754598590 2.5300152449 6.0956238217
6.9983997936 2.0025064927 7.0456808894
6.2555118753 2.4108844891 7.0280282567
7.2103210651 1.8030724567 8.1453806783
7.0547196377 1.8490831343 9.0653534588
6.9636667249 1.9207647807 10.1738841714
6.9058235898 2.0774918773 11.3583189440
6.4414451851 2.4382162459 12.0202990537
7.1591459027 2.2035868634 12.5057982731
6.6820788751 2.4941194573 12.7840051754
7.1784985207 2.3971918156 13.2507063182
6.3465820704 3.6668352428 3.5110230785
6.9397905351 3.6206796673 2.9251879727
6.8947012649 3.2018780725 3.4227677658
6.7139786745 2.7289875376 13.4833367816
7.0194662824 3.0707191187 14.5546617647
6.5202946679 3.6388093006 15.0809029552
7.1501251083 3.5087225210 15.4655007218
6.3975023934 4.5865384014 2.5082753546
7.0798072325 4.5102225626 2.0225190646
6.9968623076 4.0598512529 2.4289632063
6.7537064484 4.0369577862 15.9040990579
6.6876189985 4.6466264603 16.7247017795
6.4046592640 5.3333153770 17.3598118445
7.2814094423 4.9834418848 17.4623367654
6.6298949806 5.3720854880 1.7990228532
7.1110382278 5.8073959436 1.4251168790
7.2335743295 5.0544950039 1.5971902169
5.8541894215 5.9673730048 17.4466951820
7.0090979679 5.4676171752 18.0443419525
6.3546514209 6.0843036751 18.1015470898
6.8364566293 5.7700259358 18.3498567883
6.5419057161 6.1945849849 18.4116473465
6.3545342798 6.3658652554 1.5980911620
7.0280157879 6.8923957244 1.4123696904
6.4218320323 6.8566296742 18.3741089841
6.7422551683 7.6851333830 1.5686478528
7.2004216007 7.4763171334 1.5427270674
7.2074998250 7.9914442557 1.8779114455
6.1889837996 8.0736315578 17.9208035085
6.6335055801 7.4842035156 18.2248377697
6.7971238813 8.0430299588 17.7623963951
6.9680111469 7.1291389990 18.3949725781
6.3300684519 9.2401275975 2.5792806419
6.7466518422 8.7322752418 2.2820121915
7.0249719919 9.2337087604 2.8100215910
6.3141524648 8.6352179601 17.4394485959
6.7960252671 8.5319193706 17.3228342498
6.5980127036 9.1574780873 16.7440951395
7.2703093481 9.7375555693 3.4119330909
6.2804107217 9.8772824130 16.0948855255
6.8678030760 10.2575731230 3.8831277058
6.8134685236 10.9175049496 5.0321665846
6.8659820219 10.6844129459 4.6352469918
7.1472087266 10.9661134979 5.5966411690
7.2888891231 10.8427409100 5.5417526665
7.4908467873 10.8561092315 6.2049909618
6.9694608521 10.8472587171 10.0882011142
7.1729890953 10.7420590054 9.8456965650
7.3278924750 10.7072879548 9.4466332353
6.6073532957 10.9202226937 10.8668008426
6.9959927694 10.7224523132 10.5339912148
7.0045873473 10.5716669420 11.3694894828
6.7919925580 10.5524961315 12.3146408198
6.6573915019 10.4649449166 13.4156272633
6.5746078862 10.3194782188 14.4668868934
6.4287055080 10.1405887987 15.3963029258
7.4501164660 2.8372887722 3.4169162427
8.2547807918 2.6146745613 3.0403026171
8.1341710505 2.0923264092 3.8472739993
8.1725746818 1.7575655197 4.6082224698
7.9588548473 1.7221140366 5.4441695660
7.8265190733 1.6626094609 6.5719214304
7.8076053016 1.5944986842 7.7308736696
7.8029690255 1.5611784513 8.8284803537
7.7511240277 1.5913283349 9.9122140889
7.7282064101 1.6823385287 11.0137697877
7.8091678418 1.8695708075 12.1173070380
7.9942988670 2.2573761485 13.3856059463
7.3893083697 2.5512727332 13.9406048474
7.8627119691 2.5254499193 14.2299949012
7.5571582054 2.6812908363 14.4349348120
7.9107926436 2.8433897243 14.7580721959
7.6513447411 3.6093883313 2.4532551384
8.3043192253 3.9482785036 1.9792125042
8.5370239580 3.1634059175 2.4252388030
7.8902139842 3.3324074917 15.5062478447
7.5453531070 3.7415180355 16.0393990184
8.1919556067 3.8208632269 16.2871521197
7.6947325585 4.4571731796 1.7760707277
7.7313258336 5.1735451906 1.4530600258
8.1947589359 4.6255255293 1.6370955034
7.6163885134 4.3203963540 16.7290251589
8.1307051712 5.0761690967 17.3687297015
7.7657333871 5.9593002182 1.3579364525
7.6538869419 5.4537818245 17.9953205163
7.3602160028 5.5747953185 18.2960678082
7.8896030321 6.5623146959 1.4162893988
7.3595666629 7.2513983480 18.0825071298
7.8149972428 6.7191466403 18.0444125489
7.8935100934 7.0837723416 17.5739150315
7.3892923741 6.9555119972 18.3763977120
7.7325900174 6.5471855299 18.2427128199
7.8718775337 7.2077127654 1.6930541453
7.9718908194 7.8495519083 2.0919851875
7.3778017769 8.1335739972 17.1723490371
8.0237560491 7.6065416460 16.8938816112
7.8655508828 8.2420371731 16.4548905511
7.8058845144 8.4810567334 2.5359989439
7.8676578998 9.1797191958 3.1740560833
7.4200781667 8.9962725025 16.1195941098
7.9804470175 8.5648973163 15.8251940445
7.7907963412 9.0892810230 15.3328283586
8.0917808223 9.5781604332 3.7770424425
7.5883737682 10.0507462962 3.9345637427
8.0484034796 9.9885455762 4.3063569272
7.5894592761 10.4135805264 9.6378993561
8.0695011174 9.9469463345 9.4817125126
8.1098108090 10.0974904060 8.8019525426
7.4798872979 10.2856669368 10.7418385563
8.0063285262 9.8520476642 10.1527977869
7.4152847986 10.1915050319 11.7742013949
7.9385103268 9.7440061812 11.1604522280
7.3425209933 10.1182179777 12.8551985077
7.9120492030 9.6347540316 12.2271339051
7.2847901169 9.9928298108 13.9710104836
7.8824279788 9.5245504492 13.3431349218
7.2109269126 9.7320294791 15.1313711855
7.8411042887 9.3386933959 14.4527180023
6.8302767030 9.6671393426 15.9379008925
7.5692875484 10.3416929193 4.4873660911
7.7160916424 10.5185425479 5.3352649646
7.7857029967 10.6684413422 7.2098409668
7.8934473345 10.5647542109 6.4334092363
7.7569383534 10.5264955062 8.5200575391
8.1031437863 10.3449156527 7.6911207253
8.6895874394 1.6423680942 4.2724506687
8.7495271434 1.9634971900 3.5080142536
9.1014963299 1.6435128426 4.0021774036
9.1939321616 1.5690309083 4.8864117614
8.6213575642 1.5029465465 5.1778870944
9.0847616465 1.4741548745 5.9281169713
8.5226834467 1.4527001594 6.2125692097
9.0491341913 1.4254605093 6.9682332537
8.4812728053 1.4185724609 7.3307038380
9.0516114839 1.3864383766 8.0917127543
8.4720502074 1.3956701613 8.4747584867
9.0436235185 1.3802048792 9.2824401848
8.4519776374 1.4029209675 9.6104949338
9.0020497855 1.4309930479 10.4412658426
8.4208176072 1.4505342995 10.6981991729
8.9280355954 1.4879653117 11.4104747479
8.4243019201 1.5689631675 11.6837911874
8.8725505779 1.6020242013 12.0840135372
8.5426986953 1.8445497355 12.5606635798
9.0247687477 1.8913792844 12.5295724570
8.8911737300 2.4685947775 2.8631850516
8.8777327160 2.3833443054 13.2988948098
8.5748327051 2.4900216315 13.8553970229
8.3499547954 2.6429749606 14.3204330253
8.8226204245 3.6290080357 2.1010092532
9.0553279789 3.0484981287 2.3871875122
8.8892268100 2.9193532597 14.2596895510
8.6017035334 3.2122365580 15.1275000384
8.5516977920 3.5765342918 15.8821320137
8.7214529505 3.9638557575 16.3264134716
8.3453628181 5.2762955342 1.5479409570
8.7690134557 4.4647262031 1.8500390160
8.4727829749 4.3771161194 16.7807185993
8.7442835657 4.9317638131 16.9410531224
8.3745518437 6.0850136766 1.5601076429
8.9569820951 5.5292194610 1.9889202715
8.0697537483 6.1142063426 17.8031932754
8.6445930898 5.6842394603 17.0863062227
7.7638930872 5.8691597286 18.2277179650
8.2591061235 6.6246931889 1.5841615465
8.6941931223 6.6203795723 2.0423926161
8.8348758417 6.9471296279 15.9656880952
9.1663503151 6.3697742698 15.6426414727
9.0846033286 6.8999524797 15.2445352227
8.4469978744 6.7609071180 16.9075141671
8.9766491119 6.0948184516 16.3598780276
8.2789616601 7.9730264328 2.3757420713
8.4790564785 7.4932338316 2.2533105710
8.5965150951 8.0109608470 2.7838685569
8.8410465960 8.5829051885 10.6461083776
9.2807019804 7.9586614376 10.1575541656
9.0857386295 8.4754803692 9.6721492464
8.8228453695 8.3418781479 11.9121371078
9.2400597900 7.7234899259 11.2052190685
8.7967577329 8.1893929703 13.0600006812
9.1915794876 7.5563842653 12.3770951578
8.7699852739 7.9771257594 14.1660176439
9.1501686520 7.4035194827 13.4361508873
8.7682685060 7.5848457951 15.1821226995
9.1241883613 7.1485669853 14.4383831108
8.3490422183 7.7733457853 16.0757472061
8.3325583742 9.1489480341 3.4852464253
8.4567614542 8.6838901732 3.2254936177
8.6643936831 9.0284874418 3.8547804089
8.5953344765 9.3000596381 9.4574394312
9.0956461459 8.6636060703 9.1490446795
9.0906239535 8.9167888085 8.5113213533
8.3659927899 9.3127159332 10.5811769242
8.3926345796 9.0954172363 11.5294237773
8.3810637200 8.9523321296 12.6506053076
8.3542585693 8.7925663629 13.7917804691
8.2955381157 8.4976868402 14.9983170243
8.2287221004 10.0783197761 4.9766228184
8.5494605769 9.5657720302 4.4679006090
8.3936632288 10.1009667840 5.9326894683
8.8109987772 9.5348101762 5.3371020551
8.5234131623 9.9879030066 7.0305012942
8.9645332257 9.4530448529 6.3696512017
8.5938694255 9.7136020736 8.1670559510
9.0545723771 9.2550308399 7.4601872593
9.1514148710 1.9597517690 3.4134628079
9.4276194576 1.7540199297 4.3459200370
9.6237166131 2.0240109626 5.1003503177
9.7414807084 2.3060480343 4.7897195219
9.5095278252 1.8571912451 5.8759979363
9.4196464984 1.6776075393 6.6669149836
9.5078410709 1.6682456306 7.6674529228
9.4733943731 1.4883642925 8.8707222674
9.4937114543 1.6296745692 10.2340045909
9.3415486819 1.7373496449 11.3660709293
9.1704370717 1.7180980003 12.0110868068
9.1867303467 2.5574887945 2.7099469231
9.8274154103 2.8281368416 5.2306670066
9.8797687076 3.1863109323 4.8862132597
9.7666687562 2.6265324619 5.9482320922
9.7440319697 2.4196159961 6.9571518253
9.7609414534 2.1092467851 7.6621284674
9.6742160225 1.6637376767 8.4383310106
9.6738265261 1.6194606198 9.5390205337
9.7489484603 1.9317110237 10.6500093887
9.8330351377 2.3769818962 11.3704306680
9.6904038293 2.3052142354 11.5350064387
9.3761720316 2.3460854100 12.4817539592
9.1096673179 3.7515952871 2.1044690192
9.2331607539 3.0637720071 2.3624095454
9.8919946765 3.8646605155 5.1969839801
9.9054900660 4.2272536428 4.7214402002
9.8642936316 3.6391029187 5.9471794929
9.8686525545 3.5079097140 6.7912008686
9.8908773615 2.8647871917 7.4854164817
9.9235454975 3.4816193185 7.4289965964
9.9632587415 3.5114209889 7.6469113587
9.8386703911 3.0193578976 12.0144676429
9.8493777095 4.0880579485 12.5546273708
9.7125076400 3.4572010888 12.7254928498
9.3725905329 3.3728182249 13.7762424599
9.1766468685 3.7057332763 14.9626862371
8.9745687743 3.8653393413 15.8180669951
9.1590789357 4.7725334535 2.0518850908
9.8680101267 5.0764429684 4.9441191297
9.8424688095 5.1633846124 4.2051457714
9.8754796937 4.7591904005 5.8995646370
9.8879085689 4.6189118724 6.8229530458
9.9320233419 4.4394151954 7.5163174298
9.9687653799 4.1572411629 7.7523790046
9.7786587527 4.7866588598 13.0252120974
9.8241360786 5.2219604023 12.5865499076
9.6433568877 4.4955191717 13.7859462570
9.4632580449 4.4870114495 14.7739698772
9.2583691087 4.5280397750 15.7426068915
8.9716428540 4.4496721379 16.4418134610
9.3875992594 5.4971286651 2.5048081443
9.3635452652 6.1970330606 2.8849254621
9.7276728872 5.9893214818 4.0981382953
9.6621746072 5.6562430987 3.3553158606
9.8076543553 6.1184142441 5.0755747251
9.8451558251 5.8479356216 5.8523119825
9.8625988023 5.7563994602 6.8243143679
9.8940069971 5.6924854948 7.8607142896
9.9470376260 5.1132525842 8.0449093621
9.6809612396 5.9884383689 12.8178704351
9.7556773950 6.1549134206 12.0483277037
9.6263388297 5.5708953055 13.7848492781
9.5470820970 5.2813530783 14.5665651846
9.3340957084 5.4834675412 15.5441376163
9.0742891922 5.1981081217 16.4570542597
9.0297213039 7.2470418717 2.8551174100
9.4592077544 7.0679540547 3.7973766380
9.6838603847 6.9661346999 4.8507916629
9.7754025043 6.8548665768 5.8588111324
9.8211623568 6.6372174521 6.6712771413
9.8038248192 6.9906106779 7.7896930416
9.8925021511 6.0705597450 8.7247028296
9.7878757343 6.7625419945 8.9393397403
9.5992666766 7.2046594026 10.2855220437
9.7998503576 6.6694145144 9.7872064646
9.5618077639 6.8576299326 11.8023421937
9.7318465311 6.6902303111 11.0037131673
9.4388233667 6.8700639152 12.8286272487
9.4361922345 6.5554544546 13.6904235780
9.3747907057 6.2262178893 14.7464429795
9.0435671536 8.1347320581 3.6635676424
9.4272547374 7.9608505393 4.6993386229
9.6028463949 7.8425893980 5.7852352388
9.7271575400 7.6659919292 7.0199734813
9.8072565511 7.6252755769 7.6997127463
9.7524674685 7.6778304234 8.1731698084
9.6847068031 8.0421089897 8.1813896330
9.5086881453 7.9227122738 8.8967312886
9.0455843094 8.8702173314 4.6003651865
9.2791155484 8.7679835325 5.5942143937
9.4097117633 8.6286632378 6.6984035886
9.7394958856 7.9895541431 7.7079325708
9.5093918991 8.4016059474 7.8131329726
3 2 1 0
3 4 3 0
3 0 3 2
3 6 5 4
3 4 5 3
3 6 7 5
3 0 1 8
3 8 1 9
3 0 10 4
3 0 8 10
3 4 11 6
3 4 10 11
3 7 6 12
3 6 13 12
3 6 11 13
3 15 14 13
3 13 14 12
3 15 16 14
3 9 17 8
3 8 17 10
3 10 17 18
3 10 18 11
3 11 18 19
3 11 19 13
3 13 19 20
3 13 20 15
3 15 20 21
3 15 21 16
3 24 23 22
3 26 25 22
3 22 25 24
3 28 27 26
3 26 27 25
3 30 29 28
3 28 29 27
3 32 31 30
3 30 31 29
3 32 33 31
3 22 23 34
3 34 23 35
3 34 1 2
3 26 34 2
3 22 34 26
3 26 2 3
3 26 3 28
3 28 3 5
3 28 5 30
3 30 5 7
3 36 30 7
3 32 30 36
3 33 32 37
3 32 38 37
3 32 36 38
3 40 39 38
3 38 39 37
3 40 41 39
3 34 35 42
3 42 35 43
3 42 9 1
3 42 1 34
3 12 36 7
3 36 12 14
3 36 14 38
3 40 38 44
3 38 16 44
3 16 45 44
3 16 38 14
3 40 44 41
3 43 46 42
3 42 46 9
3 46 17 9
3 46 47 17
3 47 49 48
3 18 47 48
3 17 47 18
3 50 19 18
3 50 18 48
3 51 20 19
3 51 19 50
3 20 51 52
3 53 20 52
3 21 20 53
3 16 21 45
3 45 21 53
3 49 54 48
3 48 54 50
3 50 54 55
3 50 55 51
3 51 55 56
3 51 56 52
3 59 58 57
3 57 60 59
3 57 58 61
3 61 58 62
3 60 57 63
3 57 64 63
3 57 61 64
3 66 65 64
3 64 65 63
3 68 67 66
3 66 67 65
3 70 69 68
3 68 69 67
3 72 71 70
3 70 71 69
3 74 73 72
3 72 73 71
3 76 75 74
3 74 75 73
3 76 77 75
3 61 62 78
3 78 62 79
3 61 80 64
3 61 78 80
3 80 23 24
3 66 80 24
3 64 80 66
3 66 24 25
3 66 25 68
3 68 25 27
3 68 27 70
3 70 27 29
3 70 29 72
3 72 29 31
3 72 31 74
3 74 31 33
3 81 74 33
3 76 74 81
3 77 76 82
3 76 83 82
3 76 81 83
3 85 84 83
3 83 84 82
3 85 86 84
3 78 79 87
3 87 79 88
3 78 89 80
3 78 87 89
3 89 35 23
3 89 23 80
3 37 81 33
3 81 37 39
3 81 39 83
3 83 39 41
3 90 83 41
3 85 83 90
3 86 85 91
3 85 92 91
3 85 90 92
3 92 93 91
3 87 88 94
3 94 88 95
3 87 96 89
3 87 94 96
3 96 43 35
3 96 35 89
3 45 97 44
3 90 41 44
3 97 90 44
3 98 90 97
3 100 92 99
3 92 98 99
3 92 90 98
3 92 100 93
3 94 95 101
3 101 95 102
3 94 103 96
3 94 101 103
3 104 46 43
3 96 104 43
3 103 104 96
3 105 47 46
3 105 46 104
3 105 49 47
3 52 106 53
3 106 107 53
3 53 107 45
3 107 108 45
3 108 97 45
3 97 108 98
3 98 108 109
3 98 109 99
3 102 110 101
3 101 110 103
3 103 110 111
3 103 111 104
3 104 111 112
3 114 113 112
3 113 104 112
3 113 105 104
3 115 54 49
3 105 115 49
3 113 115 105
3 116 55 54
3 116 54 115
3 117 56 55
3 117 55 116
3 117 118 56
3 56 118 52
3 118 119 52
3 119 106 52
3 106 119 107
3 122 121 120
3 120 123 122
3 125 124 59
3 59 124 58
3 127 126 60
3 126 59 60
3 126 125 59
3 129 128 127
3 127 128 126
3 131 130 129
3 129 130 128
3 130 131 121
3 131 120 121
3 131 132 120
3 123 120 133
3 120 134 133
3 120 132 134
3 136 135 134
3 134 135 133
3 138 137 136
3 136 137 135
3 140 139 138
3 138 139 137
3 140 141 139
3 144 143 142
3 124 144 142
3 62 124 142
3 58 124 62
3 63 127 60
3 127 63 65
3 127 65 129
3 129 65 67
3 129 67 131
3 131 67 69
3 131 69 132
3 132 69 71
3 132 71 134
3 134 71 73
3 134 73 136
3 136 73 75
3 136 75 138
3 138 75 77
3 145 138 77
3 140 138 145
3 141 140 146
3 140 147 146
3 140 145 147
3 147 148 146
3 151 150 149
3 151 149 143
3 149 142 143
3 149 152 142
3 152 79 62
3 152 62 142
3 82 145 77
3 145 82 84
3 145 84 147
3 154 153 86
3 86 153 84
3 153 148 84
3 148 147 84
3 154 155 153
3 149 150 156
3 156 150 157
3 149 158 152
3 149 156 158
3 158 88 79
3 158 79 152
3 91 154 86
3 160 159 93
3 93 159 91
3 159 155 91
3 155 154 91
3 160 161 159
3 157 162 156
3 164 163 162
3 163 156 162
3 163 158 156
3 163 95 88
3 163 88 158
3 99 165 100
3 160 93 100
3 165 160 100
3 166 160 165
3 161 160 167
3 167 160 166
3 163 164 168
3 168 164 169
3 168 102 95
3 168 95 163
3 107 170 108
3 171 109 108
3 171 108 170
3 165 99 109
3 171 165 109
3 172 165 171
3 174 166 173
3 166 172 173
3 166 165 172
3 166 174 167
3 169 175 168
3 175 177 176
3 175 176 110
3 168 175 110
3 102 168 110
3 178 111 110
3 178 110 176
3 179 112 111
3 179 111 178
3 179 114 112
3 118 180 119
3 180 181 119
3 119 181 107
3 181 182 107
3 182 170 107
3 170 182 171
3 171 182 183
3 171 183 172
3 172 183 184
3 172 184 173
3 187 186 185
3 189 188 185
3 185 188 187
3 191 190 189
3 189 190 188
3 191 192 190
3 195 194 193
3 197 196 193
3 193 196 195
3 199 198 197
3 197 198 196
3 198 199 186
3 199 185 186
3 199 200 185
3 200 121 122
3 189 200 122
3 185 200 189
3 189 122 123
3 201 189 123
3 191 189 201
3 192 191 202
3 191 203 202
3 191 201 203
3 205 204 203
3 203 204 202
3 207 206 205
3 205 206 204
3 207 208 206
3 211 210 209
3 211 209 194
3 194 209 193
3 209 124 193
3 124 125 193
3 193 125 126
3 193 126 197
3 197 126 128
3 197 128 199
3 199 128 130
3 199 130 200
3 200 130 121
3 133 201 123
3 201 133 135
3 201 135 203
3 203 135 137
3 203 137 205
3 205 137 139
3 205 139 207
3 213 212 141
3 141 212 139
3 212 208 139
3 208 207 139
3 215 214 213
3 213 214 212
3 215 216 214
3 219 218 217
3 219 217 210
3 210 217 209
3 217 143 209
3 143 144 209
3 209 144 124
3 146 213 141
3 213 146 148
3 220 213 148
3 215 213 220
3 216 215 221
3 221 215 220
3 217 218 151
3 218 150 151
3 218 222 150
3 217 151 143
3 153 220 148
3 224 223 155
3 155 223 153
3 223 221 153
3 221 220 153
3 226 225 224
3 224 225 223
3 226 227 225
3 230 229 228
3 222 230 228
3 157 222 228
3 150 222 157
3 159 224 155
3 224 159 161
3 231 224 161
3 226 224 231
3 227 226 232
3 232 226 231
3 229 233 228
3 233 235 234
3 233 234 162
3 228 233 162
3 157 228 162
3 234 164 162
3 237 236 231
3 161 237 231
3 167 237 161
3 231 236 232
3 235 238 234
3 164 234 238
3 239 164 238
3 169 164 239
3 241 240 174
3 241 174 173
3 167 174 237
3 237 174 240
3 239 242 169
3 169 242 175
3 177 175 242
3 177 242 243
3 246 245 244
3 248 247 244
3 248 244 245
3 182 181 247
3 248 182 247
3 249 182 248
3 182 250 183
3 249 250 182
3 183 251 184
3 250 251 183
3 173 184 241
3 241 184 251
3 254 253 252
3 256 255 252
3 252 255 254
3 258 257 256
3 256 257 255
3 186 187 258
3 187 257 258
3 187 259 257
3 260 187 188
3 260 259 187
3 261 188 190
3 261 260 188
3 263 262 192
3 262 190 192
3 262 261 190
3 265 264 263
3 263 264 262
3 265 266 264
3 269 268 267
3 269 267 253
3 253 267 252
3 267 194 252
3 194 195 252
3 252 195 196
3 252 196 256
3 256 196 198
3 256 198 258
3 258 198 186
3 202 263 192
3 263 202 204
3 263 204 265
3 270 266 265
3 204 270 265
3 206 270 204
3 272 271 208
3 271 206 208
3 271 270 206
3 272 273 271
3 276 275 274
3 276 274 268
3 268 274 267
3 274 210 267
3 210 211 267
3 267 211 194
3 212 272 208
3 277 273 272
3 212 277 272
3 214 277 212
3 279 278 216
3 278 214 216
3 278 277 214
3 279 280 278
3 283 282 281
3 283 281 275
3 275 281 274
3 281 218 274
3 218 219 274
3 274 219 210
3 221 284 279
3 221 279 216
3 280 279 285
3 279 286 285
3 279 284 286
3 288 287 286
3 286 287 285
3 281 282 289
3 289 282 290
3 289 222 218
3 289 218 281
3 223 284 221
3 284 223 225
3 284 225 286
3 286 225 227
3 291 286 227
3 288 286 291
3 293 292 290
3 292 229 290
3 230 289 290
3 230 290 229
3 230 222 289
3 292 293 294
3 297 296 295
3 296 298 291
3 232 296 291
3 227 232 291
3 295 296 232
3 292 233 229
3 300 299 235
3 300 235 233
3 294 300 233
3 292 294 233
3 301 299 300
3 304 303 302
3 302 303 297
3 302 297 295
3 237 302 295
3 236 237 295
3 236 295 232
3 299 238 235
3 239 238 299
3 301 239 299
3 305 239 301
3 304 302 240
3 241 304 240
3 306 304 241
3 240 302 237
3 305 307 239
3 239 307 242
3 309 308 243
3 242 309 243
3 307 309 242
3 311 310 308
3 311 308 309
3 312 310 311
3 315 314 313
3 317 316 313
3 317 313 314
3 245 246 316
3 317 245 316
3 318 245 317
3 245 319 248
3 318 319 245
3 248 320 249
3 319 320 248
3 249 321 250
3 320 321 249
3 250 322 251
3 321 322 250
3 241 251 306
3 306 251 322
3 325 324 323
3 253 254 323
3 254 325 323
3 254 326 325
3 327 254 255
3 327 326 254
3 328 255 257
3 328 327 255
3 329 257 259
3 329 328 257
3 330 259 260
3 330 329 259
3 331 260 261
3 331 330 260
3 332 261 262
3 332 331 261
3 333 262 264
3 333 332 262
3 335 334 266
3 334 264 266
3 334 333 264
3 337 336 335
3 335 336 334
3 337 338 336
3 341 340 339
3 341 339 324
3 324 339 323
3 339 268 323
3 268 269 323
3 323 269 253
3 270 335 266
3 335 270 271
3 335 271 337
3 343 342 273
3 273 342 271
3 342 338 271
3 338 337 271
3 343 344 342
3 347 346 345
3 347 345 340
3 340 345 339
3 345 275 339
3 275 276 339
3 339 276 268
3 277 343 273
3 348 344 343
3 277 348 343
3 278 348 277
3 278 280 348
3 348 280 349
3 345 346 283
3 346 282 283
3 346 350 282
3 345 283 275
3 351 349 280
3 351 280 285
3 352 285 287
3 352 351 285
3 350 290 282
3 353 290 350
3 356 355 354
3 358 357 354
3 358 354 355
3 353 359 290
3 290 359 293
3 294 293 359
3 294 359 360
3 363 362 361
3 361 362 356
3 361 356 354
3 297 361 354
3 296 297 354
3 296 354 298
3 298 354 357
3 360 364 294
3 294 364 300
3 301 300 364
3 301 364 365
3 368 367 366
3 366 367 363
3 366 363 361
3 304 366 361
3 303 304 361
3 303 361 297
3 370 305 369
3 305 365 369
3 305 301 365
3 371 370 369
3 374 373 372
3 376 375 372
3 376 372 373
3 378 377 375
3 378 375 376
3 380 379 377
3 380 377 378
3 382 381 379
3 382 379 380
3 384 383 381
3 384 381 382
3 383 384 368
3 366 383 368
3 385 383 366
3 306 385 304
3 304 385 366
3 370 307 305
3 371 386 370
3 386 307 370
3 386 309 307
3 309 387 311
3 386 387 309
3 389 388 312
3 311 389 312
3 387 389 311
3 391 390 388
3 391 388 389
3 390 391 374
3 390 374 372
3 315 390 372
3 314 315 372
3 314 372 317
3 317 372 375
3 317 375 318
3 318 375 377
3 318 377 319
3 319 377 379
3 319 379 320
3 320 379 381
3 320 381 321
3 321 381 383
3 321 383 322
3 322 383 385
3 322 385 306
3 394 393 392
3 396 395 392
3 392 395 394
3 398 397 396
3 396 397 395
3 400 399 398
3 398 399 397
3 402 401 400
3 400 401 399
3 404 403 402
3 402 403 401
3 406 405 404
3 404 405 403
3 408 407 406
3 406 407 405
3 410 409 408
3 408 409 407
3 410 411 409
3 392 393 325
3 393 324 325
3 393 412 324
3 392 325 326
3 392 326 396
3 396 326 327
3 396 327 398
3 398 327 328
3 398 328 400
3 400 328 329
3 400 329 402
3 402 329 330
3 402 330 404
3 404 330 331
3 404 331 406
3 406 331 332
3 406 332 408
3 408 332 333
3 408 333 410
3 333 334 410
3 334 413 410
3 413 411 410
3 334 414 413
3 336 415 334
3 334 415 414
3 338 415 336
3 417 416 341
3 341 416 340
3 341 324 412
3 341 412 417
3 418 413 414
3 418 414 415
3 418 415 419
3 419 415 338
3 342 419 338
3 420 419 342
3 342 344 420
3 420 344 421
3 422 346 347
3 423 422 347
3 340 423 347
3 416 423 340
3 424 421 344
3 424 344 348
3 348 349 424
3 424 349 425
3 426 350 422
3 422 350 346
3 422 423 427
3 422 427 426
3 349 351 428
3 429 349 428
3 425 349 429
3 352 430 351
3 351 430 428
3 431 353 426
3 426 353 350
3 426 427 432
3 426 432 431
3 435 434 433
3 437 436 433
3 437 433 434
3 436 437 429
3 436 429 428
3 356 436 428
3 355 356 428
3 355 428 358
3 358 428 430
3 431 359 353
3 439 438 360
3 439 360 359
3 432 439 359
3 431 432 359
3 440 438 439
3 443 442 441
3 445 444 441
3 445 441 442
3 447 446 444
3 447 444 445
3 449 448 446
3 449 446 447
3 451 450 448
3 451 448 449
3 450 451 435
3 433 450 435
3 452 450 433
3 363 452 362
3 452 436 362
3 452 433 436
3 362 436 356
3 438 364 360
3 454 453 365
3 454 365 364
3 440 454 364
3 438 440 364
3 455 453 454
3 458 457 456
3 456 457 443
3 441 456 443
3 459 456 441
3 460 441 444
3 459 441 460
3 461 444 446
3 460 444 461
3 462 446 448
3 461 446 462
3 463 448 450
3 462 448 463
3 368 463 367
3 463 452 367
3 463 450 452
3 367 452 363
3 453 369 365
3 465 464 371
3 465 371 369
3 455 465 369
3 453 455 369
3 467 466 464
3 467 464 465
3 469 468 466
3 469 466 467
3 471 470 468
3 471 468 469
3 470 471 458
3 470 458 456
3 374 470 456
3 373 374 456
3 373 456 376
3 376 456 459
3 376 459 378
3 378 459 460
3 378 460 380
3 380 460 461
3 380 461 382
3 382 461 462
3 382 462 384
3 384 462 463
3 384 463 368
3 464 386 371
3 386 464 387
3 387 464 466
3 387 466 389
3 389 466 468
3 389 468 391
3 391 468 470
3 391 470 374
3 473 472 394
3 394 472 393
3 475 473 474
3 473 395 474
3 473 394 395
3 397 476 395
3 395 476 474
3 399 477 397
3 397 477 476
3 401 478 399
3 399 478 477
3 403 479 401
3 401 479 478
3 405 480 403
3 403 480 479
3 407 481 405
3 405 481 480
3 409 482 407
3 407 482 481
3 411 482 409
3 472 412 393
3 483 412 472
3 475 474 484
3 475 484 485
3 486 474 476
3 484 474 486
3 487 476 477
3 486 476 487
3 478 489 488
3 487 478 488
3 477 478 487
3 489 478 479
3 489 479 490
3 490 479 480
3 490 480 491
3 493 492 491
3 480 493 491
3 481 493 480
3 494 481 482
3 493 481 494
3 413 494 411
3 411 494 482
3 496 495 417
3 417 495 416
3 417 412 483
3 417 483 496
3 485 484 497
3 485 497 498
3 499 484 486
3 497 484 499
3 500 486 487
3 499 486 500
3 487 488 501
3 502 487 501
3 500 487 502
3 503 502 501
3 504 492 493
3 506 505 504
3 493 506 504
3 494 506 493
3 418 507 413
3 507 494 413
3 507 506 494
3 419 508 418
3 418 508 507
3 420 509 419
3 419 509 508
3 421 509 420
3 495 423 416
3 510 423 495
3 498 497 511
3 498 511 512
3 513 497 499
3 511 497 513
3 514 499 500
3 513 499 514
3 515 500 502
3 514 500 515
3 502 503 516
3 502 516 515
3 505 506 517
3 505 517 518
3 519 506 507
3 517 506 519
3 520 507 508
3 519 507 520
3 521 508 509
3 520 508 521
3 424 522 421
3 522 509 421
3 522 521 509
3 425 522 424
3 524 427 523
3 427 510 523
3 427 423 510
3 526 525 524
3 526 524 523
3 525 526 512
3 511 525 512
3 527 525 511
3 528 511 513
3 527 511 528
3 529 513 514
3 528 513 529
3 530 514 515
3 529 514 530
3 515 516 531
3 515 531 530
3 518 517 532
3 518 532 533
3 534 517 519
3 532 517 534
3 535 519 520
3 534 519 535
3 536 520 521
3 535 520 536
3 537 521 522
3 536 521 537
3 429 537 425
3 425 537 522
3 538 432 524
3 524 432 427
3 539 524 525
3 538 524 539
3 540 525 527
3 539 525 540
3 541 527 528
3 540 527 541
3 542 528 529
3 541 528 542
3 543 529 530
3 542 529 543
3 530 531 544
3 545 530 544
3 543 530 545
3 547 546 545
3 547 545 544
3 549 548 546
3 549 546 547
3 548 549 533
3 532 548 533
3 550 548 532
3 551 532 534
3 550 532 551
3 552 534 535
3 551 534 552
3 435 552 434
3 552 536 434
3 552 535 536
3 434 536 437
3 437 536 537
3 437 537 429
3 538 439 432
3 439 538 440
3 538 553 440
3 538 539 553
3 554 539 540
3 553 539 554
3 555 540 541
3 554 540 555
3 556 541 542
3 555 541 556
3 543 558 557
3 556 543 557
3 542 543 556
3 560 559 558
3 543 560 558
3 545 560 543
3 443 560 442
3 560 546 442
3 560 545 546
3 442 546 445
3 445 546 548
3 445 548 447
3 447 548 550
3 447 550 449
3 449 550 551
3 449 551 451
3 451 551 552
3 451 552 435
3 553 454 440
3 454 553 455
3 553 561 455
3 553 554 561
3 562 554 555
3 561 554 562
3 563 555 556
3 562 555 563
3 556 557 564
3 565 556 564
3 563 556 565
3 565 564 559
3 565 559 560
3 458 565 560
3 457 458 560
3 457 560 443
3 561 465 455
3 465 561 467
3 467 561 562
3 467 562 469
3 469 562 563
3 469 563 471
3 471 563 565
3 471 565 458