OFF
724 1402 0
1.3751046275 12.0327984212 7.4602758427
1.5203026986 12.0061446053 7.1121353596
1.4703930304 11.7182648811 7.4164488817
1.5024994781 11.7803635537 7.6566495410
1.3640647245 12.5247898992 7.3618215682
1.4750934009 12.7424040765 6.9669667042
1.4642015579 12.3055123992 7.7657544655
1.4051131389 13.0342708375 7.2416330333
1.4926941923 13.1766390290 7.0119347458
1.4983416894 13.0016947239 7.6578620412
1.6438636643 13.5299103644 7.2633952637
1.8018805599 11.2703086483 7.4542290249
2.0987622735 10.9645880911 6.8146864218
2.1971983977 10.5604438241 7.1939259939
2.2027891055 10.4838481832 7.8689937706
2.0109400183 11.0608877540 8.1840814134
2.2788834963 10.6457033539 8.5427243552
1.9025753449 11.5848446229 6.6946179269
2.2247755543 11.9179896206 6.0929344288
2.2599498604 11.1961574812 6.3273010109
1.7777704685 11.8095051189 8.1563992306
2.1738045757 11.3818884176 8.7941668382
1.7909124920 12.3829707208 6.5581062904
2.1900504888 12.8601890935 6.0618331106
1.7464962429 12.7557569151 8.2371368804
2.1008577289 12.3504639610 8.8680374749
1.7700402129 13.2231672148 6.6682953950
2.1938628687 13.6524972688 6.2598523343
1.8465731710 13.6816613410 8.0352046016
2.1250838956 13.3405013785 8.8060165088
2.0063513717 14.0011650819 6.8251636882
1.9717193988 14.2379633089 7.4904824075
2.2339321356 14.6087065138 7.0861369422
2.0964545646 14.4120780016 8.0536935166
2.2327116814 14.2133860102 8.6215416096
2.2981114577 14.8574199214 7.7099506927
2.3683659741 14.8174326451 8.3233759262
2.9254045117 9.0300742811 7.5842220398
3.1648196800 8.8492617640 6.7907503254
3.2719913076 8.3813025678 7.2409416442
3.2413293217 8.1922955954 8.0510798541
2.9477667980 8.8730264203 8.7064683590
3.2672095071 8.0811617202 9.0361442877
3.0575097808 8.7888474943 9.6407210084
3.3381384529 8.1431776535 9.9575098762
3.1872993069 8.7756074288 10.3115851850
3.4112867646 8.4446421353 10.6607476621
2.9145776462 9.5647334944 6.5672964213
3.1956558408 9.6079484846 5.8771707155
3.2757179537 9.1151959532 6.1977788256
2.5298873292 9.9316862878 7.3518325910
2.5815606282 9.8470178877 8.4177345413
2.8176331271 9.6504571097 9.4502267467
3.0471754872 9.4700557465 10.2723668713
3.3133337933 9.1866540865 10.9069780820
2.9697168321 10.2046030628 5.8508502471
3.3654840326 10.5207655366 5.1764621569
3.2729771567 9.9109360137 5.5373468439
2.5027324036 10.4771527328 6.5160330852
2.5609852859 10.7333804558 9.3343449358
2.9190604628 10.4264807371 10.2254126382
3.2237135919 10.1295797652 10.9671610521
2.7242254420 11.1971758340 5.7210924059
3.2477153710 11.7480824312 4.9470680789
2.4828578898 11.9076973795 9.5255510277
2.8458898776 11.5000391813 10.2320875741
3.1845382420 11.1578705665 10.9720732424
2.6877224296 12.3715530136 5.4967501084
3.2118142709 12.9328882230 4.8704782210
2.4872896687 12.9746141099 9.5263410383
2.8527607057 12.5906380285 10.2447424069
3.1956567278 12.2175141758 10.9531916879
2.6829012904 13.5735977076 5.6137015355
3.2345996052 14.0382071098 4.9615107450
2.5613552484 13.9861153629 9.3620901500
2.9575012050 13.6737169054 10.1636736037
3.2868649930 13.2576255701 10.8994882668
2.9413171819 14.6175211598 5.6313489492
3.2841132770 14.8466004614 5.1571825812
2.4836673106 14.4723166000 6.3721974520
2.6569999018 14.8468618651 8.9527904402
3.1344651817 14.7810198145 9.8693576499
3.6363642236 14.3785425651 10.8619094212
3.1659699282 15.2677995628 5.6169014651
2.9207918004 15.3880060175 6.3139916610
3.2446314715 15.7686881604 5.9196966331
2.5882230370 15.1980638403 7.1283738492
2.7716577919 15.5219330258 8.1468670442
3.1385106353 15.5661603589 9.1637870395
3.6759906379 15.6691037984 9.8921225149
3.6567033884 15.1618840820 10.3914902552
3.1731943625 16.0460015170 6.4695555314
2.9951631272 15.9798191751 7.1926636278
3.2782764630 16.3969381811 6.8666561106
3.1291586917 16.2434790922 7.9175706463
3.2891770125 16.1881776812 8.6104837134
3.5857292711 16.1344777800 9.2720859545
3.2593233390 16.4845297514 7.4504651709
4.1107437738 6.8837980782 7.5578125518
4.3373326214 6.8752457532 6.7430156546
4.7200136402 6.3899141752 7.0440651228
4.7140428397 6.0455890750 8.0951856027
4.0759157108 6.6861231951 8.7669644401
4.5878616485 6.0100265251 9.3001687788
4.1133061338 6.7066199238 9.8965748371
4.7508417718 6.0005293024 10.4913046294
4.2413037137 6.8263891581 10.8801036710
4.6355568411 6.4139588047 11.2538117132
4.0092273640 7.4617103832 6.5857210294
4.3580182224 7.4491063637 5.9568610585
4.3194342247 7.1044524462 6.3593654311
3.6017067801 7.7328531619 7.3676915775
3.6164516513 7.4339868863 8.3676773000
3.6436472651 7.3942496587 9.4334768549
3.7467387579 7.6354165438 10.5619489852
4.4193222541 6.8729856923 11.5172588764
4.1427871937 7.5651425092 11.5950282597
4.5205289016 7.1041449799 11.9617262652
4.0321297432 8.1361589408 5.8105675029
4.4097879817 8.4659686013 5.1175885756
4.3879836693 7.8697358391 5.5298572785
3.5490533393 8.3880043281 6.4659883040
3.7008886091 8.6290793922 11.4483606565
4.5805120956 7.5722650847 12.3907835859
4.1272828269 8.4099290565 12.2560608252
4.4195223887 8.2486058521 12.7024895087
3.6756795236 9.2868413391 5.4612949870
4.2478901731 9.3194031277 4.7577943159
3.5376493999 9.7714298522 11.6150443456
3.8881293713 9.4795552539 12.2980422332
4.1871501042 8.8939312062 12.7258739037
4.0058292790 10.0849991591 4.6591499713
4.5461760235 10.4321187863 4.0909035650
4.5340542235 9.6817752670 4.3475101177
3.5013071008 10.8035514972 11.6562318296
3.7416557030 10.4323187270 12.1680869011
4.0659762682 9.5296136427 12.7375368045
3.9719789336 10.6452415941 12.6314659120
3.8774151957 11.1245611728 4.4416182720
4.5200534292 11.5505838167 3.7751485544
3.5383779219 11.8637640205 11.6484953331
3.8859356317 11.4729793990 12.3326184825
4.1545439669 11.5714171137 12.8133207354
4.1626392098 11.3914959162 12.9072048284
3.7919032180 12.2891513126 4.2817856490
4.3149145339 12.7504756632 3.6852259836
3.5957319735 12.8892520161 11.5540495328
3.9839659193 12.6013565343 12.1865838994
4.4227643598 12.3876224926 12.7532219810
3.7816339225 13.5513865370 4.2096587989
4.3052398686 13.6155404359 3.5937326002
3.6804093091 13.6908033566 11.4168000437
4.0677377245 13.5864312064 11.9755210065
4.5467804121 13.2938044930 12.4925687526
4.2059571871 14.4901923628 3.7990756160
4.8977820964 14.7801076649 3.2730990182
4.6549494678 14.0050859050 3.2818993003
3.6530023803 14.6723136192 4.5647608724
4.0165644160 14.1755553624 11.5839541085
4.3564096182 14.2211941456 11.9377199106
4.5535065325 13.9324612922 12.2603891872
4.4171595836 15.2095226718 3.7228512706
4.0687123831 15.4491094578 4.3025433904
4.3961747859 15.6095742951 3.9092988413
3.5428919400 15.5551623989 5.2077924274
3.9372807036 15.5341254961 10.3706348258
4.1582169823 15.2431687732 10.7585548762
4.5498070256 14.7451330348 11.4920719224
4.5211304816 16.0620988334 4.1958422017
4.0572703354 16.2784995675 4.9924095243
4.4724924479 16.5093683752 4.6070480106
3.5218453362 16.2939766276 6.0441159391
3.4524857195 16.6069066950 8.0702159579
3.8641094599 16.6311408351 8.8873107230
4.1758846015 16.3235464540 9.5994489355
4.4447449896 15.8613697008 10.2835574241
4.5619846734 16.8212832814 4.9095391477
3.9917104830 16.7200023807 5.6745127519
4.4665613609 16.9878614311 5.1839472748
3.5272479028 16.6670325510 7.0924492653
3.7708109030 16.8183578087 8.2690491952
4.3212692753 16.9253984104 8.8772090916
4.6596953667 16.7925260755 9.2396161278
5.1696146633 5.4750176272 8.8227574540
5.3450541898 5.4958545135 8.0026431335
5.9245072160 5.0680388865 8.3341559649
5.7362102287 5.0512084958 9.4493255048
5.1075115532 5.4823657801 9.7979960977
5.6399638410 5.1799945216 10.3546539576
5.1717615469 5.4882084962 10.3974652361
5.4278012795 5.5013395994 10.9403685739
4.7129605342 6.8494909131 6.2391138116
5.2744562342 6.7397612276 5.8403568361
5.2899563957 6.2737683331 6.4505957995
5.3604214929 5.7926750157 7.2341287762
5.2036226088 5.9810710003 11.5080721344
4.8337827115 6.5789364419 11.8799788355
5.3209387854 6.2527408620 12.1150714565
5.1722775491 6.6035947553 12.3451839426
5.6199622299 6.3421669022 12.4715742940
4.8883203367 7.4846744049 5.4203467914
5.4772494567 7.5348297527 4.9277909336
5.6255821764 6.9658765370 5.3447682650
4.8588225224 6.9574071257 12.3005954177
5.3556211736 6.8984206818 12.6902952021
5.0866407761 8.1698073302 4.7343145572
5.3869233661 8.6166026173 4.2989317000
5.7594739461 7.9384953764 4.4949681357
4.8331320855 7.7031923261 12.8095659938
4.4199323674 8.5046442957 12.8884304179
4.7872213420 8.9710707364 4.4867271059
5.2576731648 9.4802033326 4.0133734072
4.2293230772 9.0131235225 12.8942601562
5.3010648787 10.5466048511 3.5750371289
5.1477952186 11.3934125637 3.3275101898
5.5762239075 11.6540380921 2.9692950527
5.6097011744 10.9816374411 3.1922499005
4.3938487185 11.9850942953 12.9709380058
4.9370108430 12.2093170237 3.2519405153
5.5244804955 12.6431744091 2.7295236754
4.8872269809 12.5996200376 13.0142240794
4.7973029777 13.1944418698 3.1883229832
5.3315901816 13.8288132766 2.8005949958
5.5555298882 12.8819547415 13.0998138087
5.2311729752 13.1078627158 12.8706294452
5.7534886322 14.7017389738 2.8202472940
4.7784891415 14.3446593109 12.0895872601
5.1753477063 13.9034344014 12.4634355226
4.7840508022 15.5670763983 3.6388689251
5.5134624628 15.4354803886 3.3032360325
5.3326986645 15.0692820840 11.4366605312
4.9471638640 15.4439514343 10.9257073087
5.3799066761 14.5575210923 11.9856839445
5.2622290073 16.0731284320 3.8226314994
4.9401520802 16.5624068318 4.3536460577
5.7424622732 16.5456700976 4.1504713944
5.3815522576 15.9470148373 10.4054520394
5.0311901119 16.4223888885 9.7811795215
5.3437307339 16.9180700936 4.5938074217
4.9846676844 17.0656465739 4.8723472521
5.7433972563 17.0916324138 4.7716498594
5.6329934571 16.8442784301 9.1147459404
5.0953200201 17.0279531405 8.9655787443
5.8002438777 5.3486356249 7.5627913257
5.9987897994 5.5095866573 6.9857714096
6.5145361886 5.1047223016 7.2970113211
6.7793644066 4.6429837302 8.1182963136
6.4845110718 4.6372492535 9.1087042800
6.4700927435 4.7200777881 10.2555291056
6.2356398400 5.1249190517 11.2143828521
5.7989387894 5.5331551249 11.5804682165
6.2973930307 5.4151116460 11.9000883802
5.9210481184 6.3260891969 5.8670302222
5.8209153573 5.8658928939 6.5601802406
5.8888367507 5.8626452131 12.1462782477
6.4066320604 6.1081842885 12.7204051427
6.1482546887 7.1586774816 4.8862822989
6.1166235291 6.6788115866 5.3333299035
6.0263111191 6.6058798406 12.9321869050
5.4102451849 7.1094537883 12.9092341883
6.1804512604 8.4987668888 4.0541729280
6.4128760081 7.6687752919 4.4000073072
6.2677160451 9.5492309995 3.5692491448
5.9972162334 10.4131752550 3.2614945486
6.2101112304 10.9355487845 2.9359474673
6.7395953313 10.1193055329 3.1275465168
6.2677878240 11.7878496325 2.5229941513
6.1114940552 12.5261599175 2.3040726415
6.5681374056 12.7417269868 1.9780180063
6.4477934709 12.2201468211 2.1827760933
6.0656319814 12.8396601605 13.1508159983
6.5828964100 12.7090293193 13.0840511894
6.0774906170 12.9728410079 13.0279303968
5.9635851830 13.2361640816 2.3124055786
6.4420563440 13.4949420297 2.0128396665
6.0375085619 13.5440913802 12.6752918794
6.0956141162 14.0218522331 2.3616801394
6.7384875017 13.9725187699 2.0540637455
5.7910919117 14.1286562451 12.3781512708
6.1941776380 13.9853288774 12.4064893376
6.1432888389 14.3650444720 12.0643913433
6.6419025323 14.5807713018 2.5199754341
6.3219577700 15.2719359537 3.0360978410
5.9083886786 14.8614674702 11.6170492658
5.8698055131 15.3961035143 10.9840340912
6.3023445764 15.9502149142 3.6390220496
6.4468702559 16.4984208768 4.1581475958
5.9942436006 15.8570936645 10.4425459855
5.9926809903 16.2736888093 9.8498107577
6.3062877404 16.8744178027 4.6286914186
6.4395831434 17.1197566748 5.0974115369
6.4128562310 17.2453336778 7.7630494988
6.7469906348 17.2071341075 7.2064434042
6.6276376306 17.3228662789 7.1635938398
5.8847689964 17.1223393516 8.5214954343
6.5279086924 16.9815004397 8.2014623598
6.3914510313 16.6301426034 9.0854387181
7.2224904144 4.2576215968 8.7308305518
7.3922952612 4.3368334275 7.9665113573
7.9071449950 4.0250996952 8.1782118838
7.9839095274 3.7960324600 9.2670604789
7.1255030127 4.2717910910 9.7195995190
7.7355622719 4.0332957358 10.3220871770
7.1930241771 4.3616739216 10.5322346932
7.6372981273 4.2724163080 10.9563172650
6.5244273058 5.6626640671 6.3348516135
7.2919130944 5.6175001403 5.8762247765
7.2879133798 5.1303554064 6.5362518018
7.3893474156 4.6346753221 7.2851129329
7.1843481090 4.6701294713 11.2511848180
6.9409393279 5.1618575240 11.9476423771
6.5867183404 5.5854391628 12.3244559157
7.3161505423 5.4901940349 12.5422917794
6.7817673508 6.3397660062 5.3644191625
7.5344942694 6.4929775215 4.8920744464
7.7612523127 5.8928183261 5.3475247131
7.4714556971 5.8332552095 12.9542703593
6.9511524262 7.0550712679 4.6480702646
7.0891597004 7.7377996333 4.1741039459
7.7919287550 7.0218213053 4.4453335016
6.8811432754 6.1599346608 13.0222470856
7.1960648088 8.5545441228 3.7618596203
7.3281178647 9.3187794474 3.3718224447
7.2553485005 10.7806838533 2.6517038164
7.4958989855 9.8704624948 3.0519339623
7.0034149112 11.8810891776 2.0905050418
7.6132146184 11.9714002200 1.7905962190
7.8701969765 11.3655474160 2.1535008473
7.2254941560 12.4973165131 1.6752850713
7.4999112630 12.8051865013 1.4566543181
7.7639572735 12.3593374906 1.5296849183
7.1864048104 12.3421072792 13.0297851898
7.0200687480 12.7640434268 12.8277837073
7.0781754682 13.2815163308 1.6858158003
7.6050493255 13.1482244891 1.4656402762
6.7625368401 13.7279778215 12.2882738719
7.5462846617 13.0113402181 12.3998200826
7.5906244696 13.6365011391 11.8631429973
7.4347609413 13.4702367071 1.5971018649
7.3566537300 13.8285603809 1.9050853086
7.0652220592 14.2425063438 2.2020320006
7.6559390818 14.3070094916 2.5170468118
6.7576360451 14.6256874046 11.4316345056
7.7714192398 14.2651340609 11.1329980447
7.2521358225 14.9448832595 10.7865424683
6.7619813537 15.5352578433 3.2708267785
7.1051141328 15.0972633192 2.9968709427
7.3290432853 15.6052733506 3.5956770544
6.6772804999 15.5515873919 10.4395344622
7.2667137556 15.2657911008 10.4056643295
7.3596199568 15.5463918748 9.9278794883
6.7601578208 16.6123393092 4.4145637600
7.1196869315 16.2184941114 4.2161766827
7.1075399122 16.6280289226 4.8387216698
7.0243256363 16.5160803678 8.6604297097
7.6364685571 16.3283807298 8.1084869144
7.1709141801 16.7276219149 7.9442403334
6.8435326598 16.1329487677 9.5173673710
7.6322035162 15.8998194340 9.0458591296
6.8153113268 17.1834881085 5.8064690881
6.8940778148 16.9856480921 5.3578548387
6.8098804072 17.2677342548 6.5963886984
7.0865013425 17.0430355517 6.3428189300
7.1226498550 16.9239478806 7.2913774664
8.5692006235 3.4014359085 9.5702078611
8.6283272476 3.3920601310 9.0040829611
9.1680654787 3.1017719876 9.2950660471
8.9231100439 3.2695350948 9.9389811534
7.8475030488 4.2668123779 7.5431613781
8.0696624782 4.4289351695 7.0194811603
8.5673994397 4.0782063028 7.3389488901
8.6780682056 3.6097316858 8.2651385117
8.4916527381 3.6376907918 10.2666654681
8.2542509865 4.0500002867 11.0102264266
7.9375426509 4.4127171864 11.4507238632
8.6856955718 4.3540022788 11.6915870407
8.0504678512 5.2062367528 5.9496120654
7.8982502893 4.7624413933 6.6170934570
7.9526076805 4.8849444571 12.0639879023
8.4089542707 5.4270372832 12.7551216691
8.4191693325 6.2551555703 4.8639226674
8.4742652639 5.5882919013 5.3725239276
8.1390095218 5.7432190156 13.0399219539
7.5252592639 5.9473021128 13.0999722021
8.0386461319 7.7501587525 4.0079892180
8.7541811101 6.9997935931 4.3511315147
8.2958962939 8.6259985074 3.5769691271
8.0216224266 9.3667314060 3.2246348173
8.1953244370 9.9438709137 2.9331511386
8.8164752387 9.2721552301 3.2486946988
8.7566327768 10.0078486874 13.2383173271
9.1360429656 9.6360877662 13.1874071993
8.8474790027 10.0524545333 13.1832172603
8.4165606491 10.6469691214 2.5646416969
8.5186612492 10.5281986559 13.1634890320
8.7345421997 10.6316036526 13.0263972617
8.2865526197 11.9365640730 1.8262950405
8.6947246049 11.2592061858 2.2378076679
7.9861003897 11.6225893392 12.9705079622
8.5985691056 11.3854299063 12.7807214158
7.8908165607 12.7127728117 1.4365344131
8.0866551662 12.3743117540 1.5336582555
8.0148954044 12.2211187064 12.6472407142
8.6478911890 11.8796358721 12.4869191024
8.3492189165 12.6775144219 12.1348214315
7.9836943808 13.0262651956 1.5369839619
7.7585684969 13.4289699238 1.6599406217
7.9221689603 13.6826410782 2.0251068508
8.2394046813 13.1795001375 1.8448597045
8.6049035646 13.4509497428 2.4108039366
8.3424508243 13.4449460949 11.5307819412
8.6894688501 14.1853219509 3.0968984194
7.7527605893 14.9224577851 10.3936602710
8.2567806684 14.3488562917 10.6394476510
8.3818089284 14.7123140661 10.0411501683
8.4368216439 13.8860689763 11.0252663826
7.9591830780 14.9406832171 3.2838257917
8.1079197405 15.3618877007 3.8473995645
7.9780570774 15.2752865804 9.6847084140
8.4128959612 15.0292520395 9.5652790414
8.3501660317 15.3519483477 9.0904640916
7.8231509798 15.7918165176 4.1872298875
7.4998082291 16.6410870431 5.6814861340
7.8982561879 16.1029922385 4.9652232133
7.6262106051 16.6292641445 6.6683120994
8.1748939798 16.1543105077 6.0865190189
7.5561919031 16.5964227294 7.4489998611
8.1574924595 16.1361452924 7.2501487054
8.2579884258 15.7876329464 8.2742698301
9.0751239471 3.2425103946 8.6270757855
9.3688986920 3.3190523256 8.1146713130
9.7961691169 2.9953364011 8.5535796136
10.0751051372 2.6712249726 9.3630520933
9.5497856540 3.0359866799 9.9941540105
9.1549229938 3.3685556474 10.4331450444
9.8641078428 3.2957638504 10.6711759076
8.6224036312 4.5933663227 6.4431165866
9.3412692819 4.6709357993 6.0836127257
9.3893628713 4.2366375341 6.6825402180
9.5046976309 3.6907483382 7.4645803181
9.1769583859 3.7926774847 11.0874884621
9.6805560280 4.3113046312 11.8449364159
8.9110991167 5.0910046901 5.7296847489
9.1857736691 5.6535826942 5.2157667072
9.6675769979 5.1058557968 5.6628611138
9.1056772831 4.8710466361 12.3239208502
9.6763473399 5.5132220961 12.7903214585
9.4308485098 6.3531225965 4.7478279880
9.0488934637 5.6923068373 12.9862418171
9.0977922518 7.7777136986 3.9564416452
9.7174924072 7.0871807035 4.3361285007
9.5524379558 8.6221449196 3.6203409955
9.1916306705 10.0016225962 2.9546986224
9.6155759548 9.3505689841 3.2997796812
9.7673123589 8.9736794411 13.0721939463
9.4162962072 9.7514563641 13.0020139385
9.2664703315 10.8349575126 2.6179021949
9.2737389434 10.6774710800 12.7264194665
8.9267019985 11.6809641672 2.1188855218
9.2635076086 11.3807305061 2.3775568321
9.0288352540 11.3564384625 12.5552030915
9.3573949314 11.1244950643 12.4695776009
9.2688291084 11.7537990795 12.1317132357
8.3270186522 12.5899205803 1.6863549210
8.8629674849 12.1973443542 2.0407897081
8.7121102085 12.7844893154 2.0559394385
9.3435276803 12.4988433700 2.4996724705
9.0290544038 12.7584764252 11.5926665604
9.5727022431 13.3219953980 3.0874493481
8.9462917132 13.9535292790 10.4478429008
9.6328265099 13.5296278166 10.2880400448
9.4838217040 13.9946930417 9.8212371470
8.8619528585 13.4211654350 11.1503839990
9.5149321837 13.0530185248 10.9137874606
9.5071038337 14.0546696624 3.6612328887
8.8134188166 14.8081534640 3.8824793005
9.1983852143 15.0040162661 4.7478862311
9.6678850154 14.4306324929 4.3918935579
9.7944172869 14.6457489021 5.0220956114
8.9573534716 14.6695802202 9.4191805039
9.8120100387 14.1892675819 9.0567181460
9.3892926994 14.7490109982 8.6726383865
8.4735746538 15.4666190404 4.4798456980
9.5442971219 15.0038137935 5.4888536864
8.8126593712 15.5463153319 5.4724451074
8.8433987595 15.6520659749 6.5826675661
9.3608913757 15.2541784052 6.1331229925
8.8654047591 15.5201516564 7.6018987883
9.5378715186 15.1124185199 6.9928927181
8.8785396394 15.2148687907 8.5153109048
9.4339414805 14.9936761632 7.9610155021
10.5966839851 2.3294358779 9.6007885720
10.7014774941 2.2325018227 9.2547436784
10.8951728403 2.0470900974 9.4919255013
11.0293063226 2.2867696463 9.7767422334
9.9296351472 3.2783384352 7.8745160744
10.3858237064 3.5604576065 7.4828328842
10.5897414710 3.0803622430 8.0964143175
10.5618947776 2.6101246526 8.7843257664
10.4285850193 2.7652823472 10.1002594471
10.7973505143 3.2741482605 10.8076574959
9.9743865940 4.6279751685 6.2370386369
10.1926425292 4.1143786379 6.9042088283
10.2439508915 3.7805234788 11.3316595003
10.6864752745 4.3856192780 11.9002408541
10.1069280106 5.7997994356 5.2776670386
10.2982942996 5.1670747427 5.8771485502
10.1328247817 4.9014345949 12.3721695715
10.5137597398 5.4809218195 12.6524762985
10.2878803282 6.6096360755 4.7527180106
9.8966556558 6.0880034010 13.0090367324
10.4919617337 6.2622097854 12.8715149486
10.1489869245 7.8561959770 4.0474678515
10.4297447114 7.2240897840 4.4157828566
10.3226239278 6.9148871771 13.0387624632
10.6200984920 7.3789083985 12.8949094805
10.3016152260 8.5052890166 3.8097630165
10.2632809108 7.9714109651 13.0293038516
10.3640006524 8.7065049415 12.7812439124
9.9699750415 9.8053000642 3.2039207471
10.4633383705 9.2653762841 3.6043014332
9.9912283470 9.9095826093 12.6044248705
9.9513147854 10.4857468153 2.9932674164
10.4846372906 10.0987355122 3.3182042362
9.8227775602 10.7658729552 12.3226663813
10.2656401759 10.1755338044 12.3071848562
10.4109856003 10.5540106462 11.9568091229
9.3104966793 11.8251733127 2.3245176614
9.8883658421 11.4926288274 2.7749072142
10.0602713857 11.3109808578 11.7913817566
10.4927823752 11.0131532737 11.5894867983
10.4647215983 11.6334397397 11.1456058741
10.1626767042 12.4087764631 3.0669620432
9.7656209606 12.1694083761 11.4380824424
10.1210951242 12.4644288525 10.8679389258
10.4916332119 12.9216894625 3.5641049532
10.0742763036 13.5428443640 3.6433249965
10.5319538443 13.3972329289 3.9841082444
10.1059277681 13.0279581085 10.3373302942
10.0213562221 13.5916413255 9.7417819551
10.1845638723 13.8648218506 4.1821030140
10.0472023239 14.6192514622 5.5264522319
10.4550075196 14.0775557128 5.1297887968
10.3791770421 14.4243201503 5.9038915856
10.0232189103 14.6319150853 7.5802412843
10.5377272075 14.2751345770 7.1000622573
10.1285245847 14.6951286424 6.8717680872
9.8450674079 14.5388141522 8.3076033045
10.5028545205 13.9778683609 8.1583293302
10.3983027927 13.6343587486 9.1059270441
9.9468037632 14.8253293415 6.1898143933
11.1220892618 1.9276416558 9.5093277602
11.0683715865 1.9462715583 9.3303309105
11.2292897427 1.8660493044 9.4156432650
11.3175877497 2.0962790232 9.5166400704
11.0663718514 2.2685922689 9.0643265436
11.5760540705 2.6183884069 9.8203934376
10.9497053344 3.4850880862 7.7268685938
11.1891035399 3.2487544435 8.1714935988
11.1292057867 2.7930883919 8.6374998176
11.2870198673 2.8491755238 10.3009663570
11.7010007215 3.3816174012 10.8206320561
10.7440189988 4.8891478028 6.6809250291
10.9398859735 4.0614653525 7.3582217263
11.2490012339 3.8659947298 11.3596687416
11.6616450431 4.6495889463 11.8249303141
10.8050011042 5.7696292456 5.9189330012
11.0596510936 5.7289141271 6.7236758975
11.1834027384 4.6835078897 7.4469606428
11.2173767016 5.4575268757 7.5359963505
11.4542042568 5.6168509776 8.4562570711
11.4431342531 4.9166636534 8.0868371851
11.6249345941 5.1734838763 8.7502823403
10.9926085581 5.0637089698 12.3161091310
11.1238135998 5.8272333391 12.5357591763
10.8104220496 6.3777056031 5.2396114067
11.1368932955 6.4346626041 5.6922461876
11.3936627942 7.0040750622 5.8443662689
11.2259006544 6.4534270322 6.3929674703
11.2658411816 6.3181258067 7.3131672540
11.3730570471 6.2719917628 8.2093888236
11.6362674124 5.6837360571 9.0773945930
11.5451636517 6.2435378776 9.0027996221
11.7597083420 6.0609514127 9.5572798536
11.1380357862 6.7615725806 12.5917065197
10.7901216146 7.6653101064 4.3526399006
10.9626845124 7.1536539398 4.8133106812
11.4504838417 7.1529266855 6.4348570619
11.5891511074 7.6145042612 6.1351135458
11.4143367086 7.0768751471 7.1110837925
11.4364554527 7.0316755528 8.0037013014
11.5336686294 6.9456239718 8.8678028292
11.7263122944 6.7672343201 9.6494438016
11.0459566656 7.7689017493 12.5511826947
10.9019881270 8.4211410118 4.1145265022
11.2201035591 7.8910179292 4.6006145671
11.6169830180 7.7769640638 6.8674532121
11.6006691438 7.7943497823 7.7862972150
11.6261898603 7.7102621940 8.7248127792
11.6960330350 7.4771037306 9.4731993784
11.0055045601 8.5676609241 12.3565025936
11.3724604510 8.0734948108 12.1147097317
11.3224771085 8.8293597620 11.8198512935
11.4329317609 9.3601250063 4.0800497947
10.7253484361 9.5924422082 12.1475267541
11.2427803269 9.6304927315 11.5181960717
10.6680274359 10.8596146340 3.2863338215
11.1525641752 10.1688502403 3.6790897839
10.9302405899 10.5694610593 11.3460565019
11.4048722407 10.0246707611 10.9728219249
11.3517196466 10.6441855115 10.6273200291
10.7299580651 11.7669831872 3.3358950502
11.4679172690 11.1701650024 3.8524779994
11.0811274065 11.4763200859 10.4323013993
11.4830800729 11.0002815585 10.0306058744
11.4094878213 11.6098530947 9.6792201077
10.6866386021 12.3575357828 3.4147887377
11.1626044427 12.2379977737 3.8866607085
11.1023766588 12.3551726828 9.5694832151
11.4967921378 11.9705570898 9.0836163004
11.3684349078 12.5388748721 8.7855264472
10.6055888061 12.3620693134 10.3619456895
10.7675430321 13.5242284037 4.5400255319
10.9951675516 12.9806139357 4.2051206886
10.9596078784 13.5583714687 5.0079315235
11.2511747025 13.0989047700 4.8767787745
11.1775041648 13.4188656563 5.5223448507
10.9594831342 13.1689405638 8.7991983783
11.3880708034 12.8672545545 8.2305711664
11.1366178541 13.3748199094 7.9691125113
10.5639191644 13.0589885606 9.6731890700
10.4121779770 14.4724418685 6.4644815996
10.8324170306 13.9720053642 6.2495857058
11.0523166049 13.6662570667 7.2193947683
11.2746829195 2.0259870853 9.3061430197
11.4804597561 2.5515361526 9.2475956321
11.3576041418 3.7734783686 8.0116953509
11.6264619917 3.4166367126 8.8130495158
12.0231886065 3.2578759861 9.7224409052
12.0943950542 3.1629383223 10.3160948862
12.3542399499 3.3741342727 10.1365036083
12.2894315218 3.4721252784 10.7537833674
11.3743874417 4.3268277018 7.8465489161
11.6761426872 4.4196756251 8.6272216503
12.1231509320 4.2446848730 9.6259567719
12.4730778820 3.8024269390 10.2060680370
12.2051851142 4.0144240829 11.1749830414
12.3822841270 4.7528684717 11.5271896970
11.9005792211 5.2844174107 9.4860050122
12.4988520167 4.4770409393 10.3472263807
12.3369316413 5.1506948574 10.2843022035
12.6379073504 4.9461247715 10.8057834644
11.5883745233 5.3869566362 12.2043276160
12.1156465089 5.3712013565 11.8750875219
11.2268734253 6.8908558666 5.3354739405
12.0788179628 6.1915000600 10.3967813745
12.5490584595 5.6130270288 10.9573635499
11.7477978601 6.1832253113 12.1168760851
12.2972309964 5.9550554767 11.6407405159
11.5372234512 7.7960776648 5.3392028073
11.8441733634 7.4594819961 10.3867302494
12.3565766539 6.1068659443 11.1972702266
11.9881224482 6.7666826456 11.3731423524
11.5495729501 7.2576083569 12.0947009769
11.5965479816 8.6317882578 4.6229716655
12.0596411583 9.0434176393 5.3329788584
11.8469510198 8.5369816192 6.3735879409
11.7983003748 8.5831305464 7.5299527501
11.7720166155 8.5304123706 8.5565297442
11.7864412227 8.3130267323 9.6167589978
11.7851619526 8.4339870946 10.5475669266
11.6881255029 8.0111619397 11.3900370620
12.0762487227 9.4916746720 4.5619127075
12.4617951381 9.7990421530 4.9427186189
12.3814862240 9.6887959185 5.4770492909
12.4339831115 10.2098493753 5.6853017438
12.1748469621 9.6923390384 6.2590711275
11.9777564627 9.4795241294 7.3300054734
11.8915367641 9.3828723571 8.3449038853
11.8313970124 9.2667502806 9.3262602472
11.7827492669 9.0789700884 10.1517265486
11.6075648319 9.1671115990 10.9846834837
12.0501064362 10.2659057336 4.1954271738
12.4408403453 9.9901525827 4.5057316552
12.2348262761 10.7134053826 6.4134450452
12.3997983879 10.9600605718 5.7049630016
12.0705384713 10.4392702435 7.2583238250
11.9371592720 10.2718961447 8.2063200990
11.8507377732 10.0428408190 9.0444061145
11.6734269336 10.0638786738 10.0797889339
12.1445040762 11.0092189015 4.3418097142
11.8823465077 11.7573049833 4.5474416090
12.3843843826 11.1249993216 4.7766937440
12.1045482475 11.6885702397 6.3034692102
12.2565569200 11.5817089913 5.5659162466
12.0202967934 11.3767403993 7.2301570999
11.9227485705 11.0733323637 8.0146571186
11.7216722817 11.0523041385 9.0785200666
11.4795212333 12.5260234091 4.5761157204
12.2264532015 11.6289105941 5.1099792388
11.7981409066 12.4085945157 5.4879024105
11.8089052700 12.5089593016 6.5471101485
11.8828209310 12.1463948866 7.1348753841
11.7077917581 12.0434572867 8.1430379832
11.4314354785 13.1917260566 6.4044319118
11.5417415372 12.8883746249 7.3877653709
12.5002239915 3.4531157197 10.3441623853
12.4594642615 3.3914045715 10.5584983880
12.5453094070 3.7233653318 10.7812573965
12.6366586681 3.7660065475 10.5327014757
12.6188935219 4.2270981721 10.8011924886
12.5627143418 4.4264029385 11.2173866806
12.6719302490 4.8301654645 11.2052594289
12.7218954140 5.2653403582 11.1003959755
12.5475742503 5.3833859492 11.5417169456
12.6871864916 5.5477101948 11.2894237398
12.5705430512 5.7655522210 11.3761069932
12.5293164443 9.9917500544 5.2660134915
12.5131139372 10.2663091508 4.4246584653
12.6405825955 10.1792238698 4.6795907005
12.5835928842 10.4784195442 5.0371860752
12.6849397052 10.4198684562 4.7147257218
12.4972943421 10.6071463818 4.5402240556
12.4449071283 11.1606490038 5.2306239234
3 2 1 0
3 0 3 2
3 0 1 4
3 4 1 5
3 3 0 6
3 6 0 4
3 4 5 7
3 7 5 8
3 6 4 9
3 9 4 7
3 8 10 7
3 7 10 9
3 13 12 11
3 15 14 11
3 11 14 13
3 15 16 14
3 19 18 17
3 19 17 12
3 12 17 11
3 17 1 11
3 1 2 11
3 11 2 3
3 20 11 3
3 15 11 20
3 16 15 21
3 21 15 20
3 17 18 22
3 22 18 23
3 22 5 1
3 22 1 17
3 6 24 20
3 6 20 3
3 21 20 25
3 25 20 24
3 22 23 26
3 26 23 27
3 26 8 5
3 26 5 22
3 9 28 24
3 9 24 6
3 25 24 29
3 29 24 28
3 27 30 26
3 30 32 31
3 30 31 10
3 26 30 10
3 8 26 10
3 28 9 10
3 31 28 10
3 33 28 31
3 29 28 34
3 34 28 33
3 32 35 31
3 31 35 33
3 33 35 36
3 33 36 34
3 39 38 37
3 41 40 37
3 37 40 39
3 43 42 41
3 41 42 40
3 45 44 43
3 43 44 42
3 45 46 44
3 49 48 47
3 49 47 38
3 47 37 38
3 47 50 37
3 37 51 41
3 37 50 51
3 41 52 43
3 41 51 52
3 43 53 45
3 43 52 53
3 46 45 54
3 54 45 53
3 57 56 55
3 57 55 48
3 55 47 48
3 55 58 47
3 58 12 13
3 50 58 13
3 47 58 50
3 50 13 14
3 50 14 51
3 51 14 16
3 59 51 16
3 52 51 59
3 52 60 53
3 52 59 60
3 54 53 61
3 61 53 60
3 55 56 62
3 62 56 63
3 62 18 19
3 58 62 19
3 55 62 58
3 58 19 12
3 21 64 59
3 21 59 16
3 59 65 60
3 59 64 65
3 61 60 66
3 66 60 65
3 62 63 67
3 67 63 68
3 67 23 18
3 67 18 62
3 25 69 64
3 25 64 21
3 64 70 65
3 64 69 70
3 66 65 71
3 71 65 70
3 67 68 72
3 72 68 73
3 72 27 23
3 72 23 67
3 29 74 69
3 29 69 25
3 69 75 70
3 69 74 75
3 71 70 76
3 76 70 75
3 72 73 77
3 77 73 78
3 79 30 27
3 72 79 27
3 77 79 72
3 79 32 30
3 34 80 74
3 34 74 29
3 74 81 75
3 74 80 81
3 76 75 82
3 82 75 81
3 78 83 77
3 85 84 83
3 84 77 83
3 84 79 77
3 86 35 32
3 79 86 32
3 84 86 79
3 87 36 35
3 87 35 86
3 80 34 36
3 87 80 36
3 88 80 87
3 90 81 89
3 81 88 89
3 81 80 88
3 81 90 82
3 85 91 84
3 93 92 91
3 92 84 91
3 92 86 84
3 95 87 94
3 87 92 94
3 87 86 92
3 87 95 88
3 88 95 96
3 88 96 89
3 93 97 92
3 92 97 94
3 100 99 98
3 102 101 98
3 98 101 100
3 104 103 102
3 102 103 101
3 106 105 104
3 104 105 103
3 106 107 105
3 110 109 108
3 110 108 99
3 108 98 99
3 108 111 98
3 98 112 102
3 98 111 112
3 102 113 104
3 102 112 113
3 104 114 106
3 104 113 114
3 107 106 115
3 106 116 115
3 106 114 116
3 116 117 115
3 120 119 118
3 120 118 109
3 118 108 109
3 118 121 108
3 121 38 39
3 111 121 39
3 108 121 111
3 111 39 40
3 111 40 112
3 112 40 42
3 112 42 113
3 113 42 44
3 113 44 114
3 114 44 46
3 122 114 46
3 116 114 122
3 117 116 123
3 116 124 123
3 116 122 124
3 124 125 123
3 118 119 126
3 126 119 127
3 126 48 49
3 121 126 49
3 118 126 121
3 121 49 38
3 54 128 122
3 54 122 46
3 122 129 124
3 122 128 129
3 125 124 130
3 130 124 129
3 133 132 131
3 133 131 127
3 127 131 126
3 131 56 126
3 56 57 126
3 126 57 48
3 61 134 128
3 61 128 54
3 128 135 129
3 128 134 135
3 130 129 136
3 129 137 136
3 129 135 137
3 131 132 138
3 138 132 139
3 138 63 56
3 138 56 131
3 66 140 134
3 66 134 61
3 134 141 135
3 134 140 141
3 143 137 142
3 137 141 142
3 137 135 141
3 138 139 144
3 144 139 145
3 144 68 63
3 144 63 138
3 71 146 140
3 71 140 66
3 140 147 141
3 140 146 147
3 142 141 148
3 148 141 147
3 144 145 149
3 149 145 150
3 149 73 68
3 149 68 144
3 76 151 146
3 76 146 71
3 146 152 147
3 146 151 152
3 148 147 153
3 153 147 152
3 156 155 154
3 156 154 150
3 154 149 150
3 154 157 149
3 157 78 73
3 157 73 149
3 82 158 151
3 82 151 76
3 160 152 159
3 152 158 159
3 152 151 158
3 152 160 153
3 155 161 154
3 163 162 161
3 162 154 161
3 162 157 154
3 164 83 78
3 157 164 78
3 162 164 157
3 164 85 83
3 89 165 90
3 165 166 90
3 90 166 82
3 166 167 82
3 167 158 82
3 158 167 159
3 163 168 162
3 170 169 168
3 169 162 168
3 169 164 162
3 171 91 85
3 164 171 85
3 169 171 164
3 171 93 91
3 94 172 95
3 173 96 95
3 173 95 172
3 173 174 96
3 96 174 89
3 174 175 89
3 175 165 89
3 165 175 166
3 170 176 169
3 178 177 176
3 177 169 176
3 177 171 169
3 179 97 93
3 171 179 93
3 177 179 171
3 172 94 97
3 179 172 97
3 180 172 179
3 182 173 181
3 173 180 181
3 173 172 180
3 173 182 174
3 185 184 183
3 187 186 183
3 183 186 185
3 189 188 187
3 187 188 186
3 189 190 188
3 193 192 191
3 99 100 191
3 100 193 191
3 100 194 193
3 101 183 184
3 194 101 184
3 100 101 194
3 183 101 103
3 183 103 187
3 187 103 105
3 187 105 189
3 196 195 107
3 107 195 105
3 195 190 105
3 190 189 105
3 198 197 196
3 196 197 195
3 198 199 197
3 202 201 200
3 202 200 192
3 192 200 191
3 200 109 191
3 109 110 191
3 191 110 99
3 115 196 107
3 196 115 117
3 203 196 117
3 198 196 203
3 199 198 204
3 204 198 203
3 207 206 205
3 207 205 201
3 201 205 200
3 205 119 200
3 119 120 200
3 200 120 109
3 123 203 117
3 209 208 125
3 125 208 123
3 208 204 123
3 204 203 123
3 205 206 210
3 210 206 211
3 210 127 119
3 210 119 205
3 130 212 209
3 130 209 125
3 210 211 133
3 211 132 133
3 211 213 132
3 210 133 127
3 136 212 130
3 216 215 214
3 213 216 214
3 139 213 214
3 132 213 139
3 142 217 143
3 214 215 218
3 218 215 219
3 218 145 139
3 218 139 214
3 148 220 217
3 148 217 142
3 218 219 221
3 221 219 222
3 221 150 145
3 221 145 218
3 224 223 220
3 148 224 220
3 153 224 148
3 221 222 156
3 222 155 156
3 222 225 155
3 221 156 150
3 159 226 160
3 226 227 160
3 227 153 160
3 227 224 153
3 161 155 228
3 155 229 228
3 155 225 229
3 228 163 161
3 231 230 167
3 231 167 166
3 159 167 226
3 167 232 226
3 167 230 232
3 226 232 227
3 229 233 228
3 233 235 234
3 233 234 168
3 228 233 168
3 163 228 168
3 234 170 168
3 237 236 175
3 237 175 174
3 166 175 231
3 231 175 236
3 235 238 234
3 238 240 239
3 238 239 176
3 234 238 176
3 170 234 176
3 239 178 176
3 242 241 182
3 242 182 181
3 174 182 237
3 237 182 241
3 245 244 243
3 184 185 243
3 185 245 243
3 185 246 245
3 247 185 186
3 247 246 185
3 248 186 188
3 248 247 186
3 250 249 190
3 249 188 190
3 249 248 188
3 250 251 249
3 253 252 193
3 193 252 192
3 194 243 244
3 253 194 244
3 193 194 253
3 243 194 184
3 195 250 190
3 254 251 250
3 195 254 250
3 197 254 195
3 197 199 254
3 254 199 255
3 257 256 202
3 202 256 201
3 202 192 252
3 202 252 257
3 204 259 258
3 255 204 258
3 199 204 255
3 261 260 207
3 207 260 206
3 207 201 256
3 207 256 261
3 208 259 204
3 260 211 206
3 262 211 260
3 265 264 263
3 262 265 263
3 213 262 263
3 211 262 213
3 263 264 216
3 264 215 216
3 264 266 215
3 263 216 213
3 269 268 267
3 266 269 267
3 219 266 267
3 215 266 219
3 272 271 270
3 267 268 273
3 273 268 274
3 273 222 219
3 273 219 267
3 272 270 223
3 224 272 223
3 275 272 224
3 273 274 276
3 276 274 277
3 276 225 222
3 276 222 273
3 280 279 278
3 279 275 278
3 275 227 278
3 275 224 227
3 277 281 276
3 225 276 281
3 282 225 281
3 229 225 282
3 284 283 230
3 284 230 231
3 278 232 280
3 232 283 280
3 232 230 283
3 232 278 227
3 282 285 229
3 229 285 233
3 235 233 285
3 235 285 286
3 288 287 236
3 288 236 237
3 231 236 284
3 284 236 287
3 286 289 235
3 235 289 238
3 240 238 289
3 240 289 290
3 293 292 291
3 295 294 291
3 295 291 292
3 241 242 294
3 295 241 294
3 296 241 295
3 237 241 288
3 288 241 296
3 299 298 297
3 301 300 297
3 297 300 299
3 303 302 301
3 301 302 300
3 303 304 302
3 307 306 305
3 244 245 305
3 245 307 305
3 245 308 307
3 246 297 298
3 308 246 298
3 245 246 308
3 297 246 247
3 297 247 301
3 301 247 248
3 301 248 303
3 309 304 303
3 248 309 303
3 249 309 248
3 311 310 251
3 310 249 251
3 310 309 249
3 311 312 310
3 315 314 313
3 315 313 306
3 306 313 305
3 313 252 305
3 252 253 305
3 305 253 244
3 254 311 251
3 254 255 311
3 255 312 311
3 255 316 312
3 319 318 317
3 319 317 314
3 314 317 313
3 317 256 313
3 256 257 313
3 313 257 252
3 320 316 255
3 320 255 258
3 317 318 261
3 318 260 261
3 318 321 260
3 317 261 256
3 321 262 260
3 322 262 321
3 324 323 265
3 265 323 264
3 265 262 322
3 265 322 324
3 327 326 325
3 323 327 325
3 266 323 325
3 264 323 266
3 330 329 328
3 330 328 326
3 326 328 325
3 328 268 325
3 268 269 325
3 325 269 266
3 332 331 271
3 332 271 272
3 328 329 333
3 333 329 334
3 333 274 268
3 333 268 328
3 337 336 335
3 336 332 335
3 332 275 335
3 332 272 275
3 334 338 333
3 277 274 333
3 339 277 333
3 338 339 333
3 277 339 340
3 341 340 339
3 344 343 342
3 342 343 337
3 342 337 335
3 280 342 335
3 279 280 335
3 279 335 275
3 340 281 277
3 346 345 282
3 346 282 281
3 341 346 281
3 340 341 281
3 347 345 346
3 350 349 348
3 348 349 344
3 348 344 342
3 284 348 342
3 283 284 342
3 283 342 280
3 345 285 282
3 352 351 286
3 352 286 285
3 347 352 285
3 345 347 285
3 353 351 352
3 356 355 354
3 358 357 354
3 358 354 355
3 357 358 350
3 357 350 348
3 288 357 348
3 287 288 348
3 287 348 284
3 351 289 286
3 360 359 290
3 360 290 289
3 353 360 289
3 351 353 289
3 362 361 359
3 362 359 360
3 292 293 361
3 362 292 361
3 363 292 362
3 354 295 356
3 295 363 356
3 295 292 363
3 295 354 296
3 296 354 357
3 296 357 288
3 366 365 364
3 364 367 366
3 370 369 368
3 298 299 368
3 299 370 368
3 299 371 370
3 300 364 365
3 371 300 365
3 299 300 371
3 372 367 364
3 300 372 364
3 302 372 300
3 374 373 304
3 373 302 304
3 373 372 302
3 374 375 373
3 377 376 307
3 307 376 306
3 308 368 369
3 377 308 369
3 307 308 377
3 368 308 298
3 309 374 304
3 378 375 374
3 309 378 374
3 310 378 309
3 310 312 378
3 378 312 379
3 381 380 315
3 315 380 314
3 315 306 376
3 315 376 381
3 316 383 382
3 379 316 382
3 312 316 379
3 385 384 319
3 319 384 318
3 319 314 380
3 319 380 385
3 320 383 316
3 384 321 318
3 386 321 384
3 389 388 387
3 386 389 387
3 322 386 387
3 321 386 322
3 392 391 390
3 387 388 324
3 388 323 324
3 388 393 323
3 387 324 322
3 392 390 394
3 392 394 395
3 397 396 327
3 327 396 326
3 327 323 393
3 327 393 397
3 395 394 398
3 395 398 399
3 401 400 330
3 330 400 329
3 330 326 396
3 330 396 401
3 404 403 402
3 402 403 399
3 402 399 398
3 332 402 398
3 331 332 398
3 406 334 405
3 334 400 405
3 334 329 400
3 408 407 406
3 408 406 405
3 409 407 408
3 404 402 336
3 337 404 336
3 410 404 337
3 336 402 332
3 406 338 334
3 338 406 339
3 339 406 407
3 341 339 407
3 409 341 407
3 411 341 409
3 414 413 412
3 343 344 412
3 413 343 412
3 415 343 413
3 337 343 410
3 410 343 415
3 411 416 341
3 341 416 346
3 347 346 416
3 347 416 417
3 420 419 418
3 418 419 414
3 418 414 412
3 350 418 412
3 349 350 412
3 349 412 344
3 417 421 347
3 347 421 352
3 423 422 353
3 352 423 353
3 421 423 352
3 425 424 422
3 425 422 423
3 427 426 424
3 427 424 425
3 355 356 426
3 427 355 426
3 428 355 427
3 418 358 420
3 358 428 420
3 358 355 428
3 358 418 350
3 422 360 353
3 360 422 362
3 362 422 424
3 362 424 363
3 363 424 426
3 363 426 356
3 431 430 429
3 365 366 429
3 366 431 429
3 366 432 431
3 434 433 367
3 433 366 367
3 433 432 366
3 434 435 433
3 438 437 436
3 369 370 436
3 370 438 436
3 370 439 438
3 371 429 430
3 439 371 430
3 370 371 439
3 429 371 365
3 372 434 367
3 440 435 434
3 372 440 434
3 373 440 372
3 373 375 440
3 440 375 441
3 444 443 442
3 444 442 437
3 437 442 436
3 442 376 436
3 376 377 436
3 436 377 369
3 445 441 375
3 445 375 378
3 378 379 445
3 445 379 446
3 442 443 381
3 443 380 381
3 443 447 380
3 442 381 376
3 448 446 379
3 448 379 382
3 450 449 385
3 385 449 384
3 385 380 447
3 385 447 450
3 449 386 384
3 451 386 449
3 453 452 389
3 389 452 388
3 389 386 451
3 389 451 453
3 455 454 391
3 455 391 392
3 452 393 388
3 456 393 452
3 395 455 392
3 395 457 455
3 459 458 397
3 397 458 396
3 397 393 456
3 397 456 459
3 462 461 460
3 461 457 460
3 457 399 460
3 457 395 399
3 463 400 401
3 396 458 464
3 463 396 464
3 465 463 464
3 401 396 463
3 466 465 464
3 462 460 403
3 404 462 403
3 467 462 404
3 403 460 399
3 463 405 400
3 405 463 408
3 408 463 465
3 409 408 465
3 466 409 465
3 468 409 466
3 471 470 469
3 473 472 469
3 473 469 470
3 473 467 472
3 467 410 472
3 467 404 410
3 475 411 474
3 411 468 474
3 411 409 468
3 477 476 475
3 477 475 474
3 478 476 477
3 481 480 479
3 479 480 471
3 479 471 469
3 414 479 469
3 413 414 469
3 413 469 415
3 415 469 472
3 415 472 410
3 475 416 411
3 416 475 417
3 475 482 417
3 475 476 482
3 476 478 483
3 484 476 483
3 482 476 484
3 486 485 484
3 486 484 483
3 488 487 485
3 488 485 486
3 490 489 487
3 490 487 488
3 489 490 481
3 489 481 479
3 420 489 479
3 419 420 479
3 419 479 414
3 482 421 417
3 421 482 423
3 423 482 484
3 423 484 425
3 425 484 485
3 425 485 427
3 427 485 487
3 427 487 428
3 428 487 489
3 428 489 420
3 493 492 491
3 491 494 493
3 497 496 495
3 430 431 495
3 431 497 495
3 431 498 497
3 432 491 492
3 498 432 492
3 431 432 498
3 499 494 491
3 432 499 491
3 433 499 432
3 433 435 499
3 499 435 500
3 502 501 438
3 438 501 437
3 439 495 496
3 502 439 496
3 438 439 502
3 495 439 430
3 503 500 435
3 503 435 440
3 440 441 503
3 503 441 504
3 506 505 444
3 444 505 443
3 444 437 501
3 444 501 506
3 507 504 441
3 507 441 445
3 445 446 507
3 507 446 508
3 505 447 443
3 509 447 505
3 446 448 510
3 511 446 510
3 508 446 511
3 513 512 450
3 450 512 449
3 450 447 509
3 450 509 513
3 511 510 514
3 511 514 515
3 512 451 449
3 516 451 512
3 515 514 517
3 515 517 518
3 519 452 453
3 520 519 453
3 451 520 453
3 516 520 451
3 518 517 454
3 455 518 454
3 521 518 455
3 523 522 519
3 522 452 519
3 522 456 452
3 523 519 520
3 526 525 524
3 525 521 524
3 521 457 524
3 521 455 457
3 527 458 459
3 528 527 459
3 456 528 459
3 522 528 456
3 531 530 529
3 529 530 526
3 529 526 524
3 462 529 524
3 461 462 524
3 461 524 457
3 527 464 458
3 466 464 527
3 528 466 527
3 532 466 528
3 531 529 533
3 531 533 534
3 467 533 462
3 462 533 529
3 536 468 535
3 468 532 535
3 468 466 532
3 537 536 535
3 539 538 470
3 539 470 471
3 533 473 534
3 473 538 534
3 473 470 538
3 473 533 467
3 536 474 468
3 537 540 536
3 540 474 536
3 540 477 474
3 542 541 478
3 477 542 478
3 540 542 477
3 543 541 542
3 546 545 544
3 548 547 544
3 548 544 545
3 480 481 547
3 548 480 547
3 549 480 548
3 471 480 539
3 539 480 549
3 541 483 478
3 543 550 541
3 550 483 541
3 550 486 483
3 544 488 546
3 488 550 546
3 488 486 550
3 488 544 490
3 490 544 547
3 490 547 481
3 553 552 551
3 551 554 553
3 551 552 493
3 552 492 493
3 552 555 492
3 493 494 551
3 494 554 551
3 494 556 554
3 558 557 497
3 497 557 496
3 559 497 498
3 559 558 497
3 498 492 555
3 498 555 559
3 560 556 494
3 560 494 499
3 499 500 560
3 560 500 561
3 562 501 502
3 563 562 502
3 496 563 502
3 557 563 496
3 564 561 500
3 564 500 503
3 503 504 564
3 564 504 565
3 566 505 506
3 501 562 506
3 562 566 506
3 562 567 566
3 562 563 568
3 569 562 568
3 567 562 569
3 571 570 569
3 571 569 568
3 572 570 571
3 573 565 504
3 573 504 507
3 507 508 573
3 573 508 574
3 576 575 566
3 575 505 566
3 575 509 505
3 578 577 576
3 566 578 576
3 567 578 566
3 579 567 569
3 578 567 579
3 580 569 570
3 579 569 580
3 570 572 581
3 582 570 581
3 580 570 582
3 583 582 581
3 511 574 508
3 511 584 574
3 585 512 513
3 586 585 513
3 509 586 513
3 575 586 509
3 577 578 587
3 577 587 588
3 589 578 579
3 587 578 589
3 590 579 580
3 589 579 590
3 591 580 582
3 590 580 591
3 582 583 592
3 582 592 591
3 515 584 511
3 515 593 584
3 595 594 585
3 594 512 585
3 594 516 512
3 595 585 586
3 596 588 587
3 596 587 589
3 596 589 597
3 597 589 590
3 597 590 598
3 598 590 591
3 598 591 599
3 599 591 592
3 602 601 600
3 601 593 600
3 593 518 600
3 593 515 518
3 594 520 516
3 603 520 594
3 602 600 604
3 602 604 605
3 521 604 518
3 518 604 600
3 606 522 523
3 607 606 523
3 520 607 523
3 603 607 520
3 610 609 608
3 608 609 605
3 608 605 604
3 526 608 604
3 525 526 604
3 525 604 521
3 611 528 606
3 606 528 522
3 606 607 612
3 606 612 611
3 615 614 613
3 613 614 610
3 613 610 608
3 531 613 608
3 530 531 608
3 530 608 526
3 616 532 611
3 611 532 528
3 611 612 617
3 611 617 616
3 620 619 618
3 618 619 615
3 613 618 615
3 621 618 613
3 534 621 531
3 531 621 613
3 616 535 532
3 623 622 537
3 623 537 535
3 617 623 535
3 616 617 535
3 625 624 622
3 625 622 623
3 626 624 625
3 629 628 627
3 627 628 620
3 618 627 620
3 630 627 618
3 539 630 538
3 630 621 538
3 630 618 621
3 538 621 534
3 622 540 537
3 540 622 542
3 542 622 624
3 632 631 543
3 632 543 542
3 626 632 542
3 624 626 542
3 545 546 631
3 632 545 631
3 633 545 632
3 627 548 629
3 548 633 629
3 548 545 633
3 548 627 549
3 549 627 630
3 549 630 539
3 631 550 543
3 550 631 546
3 634 552 553
3 554 634 553
3 635 555 634
3 634 555 552
3 556 635 554
3 554 635 634
3 636 557 558
3 559 637 558
3 558 637 636
3 555 635 559
3 635 637 559
3 635 638 637
3 638 635 556
3 639 638 556
3 560 639 556
3 640 638 639
3 560 561 639
3 639 561 641
3 642 563 636
3 636 563 557
3 643 636 637
3 642 636 643
3 644 637 638
3 643 637 644
3 638 640 645
3 638 645 644
3 646 641 561
3 646 561 564
3 564 565 646
3 646 565 647
3 642 568 563
3 568 642 571
3 571 642 643
3 571 643 572
3 643 648 572
3 643 644 648
3 644 645 649
3 650 644 649
3 648 644 650
3 651 650 649
3 565 573 652
3 653 565 652
3 647 565 653
3 574 652 573
3 654 575 576
3 577 654 576
3 648 581 572
3 581 648 583
3 648 655 583
3 648 650 655
3 650 651 656
3 650 656 655
3 653 652 657
3 653 657 658
3 584 657 574
3 574 657 652
3 659 586 654
3 654 586 575
3 588 659 577
3 577 659 654
3 660 592 655
3 655 592 583
3 655 656 661
3 662 655 661
3 660 655 662
3 662 661 658
3 657 662 658
3 663 662 657
3 593 663 584
3 584 663 657
3 664 594 595
3 586 659 595
3 659 664 595
3 659 665 664
3 596 666 588
3 666 659 588
3 666 665 659
3 597 667 596
3 596 667 666
3 598 668 597
3 597 668 667
3 599 669 598
3 598 669 668
3 592 660 599
3 660 669 599
3 660 670 669
3 671 660 662
3 670 660 671
3 602 671 601
3 671 663 601
3 671 662 663
3 601 663 593
3 672 603 664
3 664 603 594
3 665 674 673
3 672 665 673
3 664 665 672
3 676 675 674
3 665 676 674
3 666 676 665
3 677 666 667
3 676 666 677
3 678 667 668
3 677 667 678
3 679 668 669
3 678 668 679
3 680 669 670
3 679 669 680
3 681 670 671
3 680 670 681
3 605 681 602
3 602 681 671
3 683 682 672
3 682 603 672
3 682 607 603
3 683 672 673
3 675 676 684
3 675 684 685
3 686 676 677
3 684 676 686
3 687 677 678
3 686 677 687
3 688 678 679
3 687 678 688
3 689 679 680
3 688 679 689
3 610 689 609
3 689 681 609
3 689 680 681
3 609 681 605
3 691 612 690
3 612 682 690
3 612 607 682
3 692 691 690
3 685 684 693
3 685 693 694
3 695 684 686
3 693 684 695
3 696 686 687
3 695 686 696
3 697 687 688
3 696 687 697
3 615 697 614
3 697 689 614
3 697 688 689
3 614 689 610
3 698 617 691
3 691 617 612
3 691 692 699
3 700 691 699
3 698 691 700
3 700 699 694
3 693 700 694
3 701 700 693
3 702 693 695
3 701 693 702
3 703 695 696
3 702 695 703
3 620 703 619
3 703 697 619
3 703 696 697
3 619 697 615
3 698 623 617
3 623 698 625
3 625 698 700
3 625 700 626
3 700 704 626
3 700 701 704
3 705 701 702
3 704 701 705
3 629 705 628
3 705 703 628
3 705 702 703
3 628 703 620
3 704 632 626
3 632 704 633
3 633 704 705
3 633 705 629
3 707 706 639
3 639 706 640
3 639 641 707
3 707 641 708
3 710 645 709
3 645 706 709
3 645 640 706
3 711 710 646
3 710 708 646
3 708 641 646
3 708 710 709
3 647 711 646
3 710 649 645
3 710 711 712
3 651 710 712
3 713 651 712
3 710 651 649
3 711 647 712
3 647 714 712
3 647 653 714
3 716 656 715
3 656 713 715
3 656 651 713
3 715 714 716
3 714 658 716
3 714 653 658
3 716 661 656
3 661 716 658
3 717 673 674
3 675 717 674
3 719 718 683
3 683 718 682
3 719 683 673
3 720 719 673
3 717 720 673
3 719 720 721
3 685 720 675
3 675 720 717
3 718 722 682
3 682 722 690
3 720 723 692
3 722 720 692
3 690 722 692
3 721 720 722
3 694 723 685
3 685 723 720
3 723 699 692
3 699 723 694