OFF
720 1380 0
1.5032179429 10.6796477329 8.7666632766
1.6270363405 10.6615555823 8.2055078069
1.6495279942 10.2277240801 8.7390979388
1.6844045357 10.3090097306 9.0969834537
1.3707594566 11.5684787159 8.4980022369
1.4100413496 11.5978082930 7.7670209033
1.5761904308 11.0436113293 9.2286707539
1.2368235047 12.6826335315 7.6901950919
1.3698246054 12.7816592699 6.8538003841
1.4364364665 12.0779223377 7.1806509535
1.2919772707 12.6019887341 8.5514389403
1.4957224300 12.0714461716 9.1786823260
1.2330612278 13.7513403821 6.8829030430
1.4554707059 14.2636615164 5.9141529544
1.5044182460 13.2733661668 6.2358455323
1.1471708491 13.6658545247 7.5794614011
1.2510465417 13.6335599821 8.2439791029
1.5053816769 13.1352089964 9.0660045589
1.2354845597 15.0767061374 6.5220331995
1.4039035687 15.4375435913 5.5878404219
1.2151394157 14.6303912385 7.5470902871
1.3943307184 14.6254057611 8.3578911027
1.5420889080 14.0710802921 8.8848794897
1.2623864310 16.4269938977 6.1037791999
1.3877878613 16.3603473985 5.2761942617
1.3410921069 16.0098930050 7.1808566352
1.5236395559 15.6132251339 8.1124246602
1.3257218041 17.2526289578 5.3193707170
1.5578896707 17.8153314545 4.5931497048
1.5469361749 16.8765723444 4.7341840931
1.3110714720 17.6703086946 5.9954954555
1.4555802910 17.2352466890 6.8430533159
1.9185299985 17.0220089784 7.9186964869
1.3901706195 18.3703957737 5.2615753212
1.6265021326 18.8553304689 4.5229678960
1.4212845390 18.4939600968 5.9068662017
1.5737495081 18.2377757003 6.5216322614
1.8960826943 18.0101063683 7.2344799093
1.5394181430 19.2040823022 5.0171514144
1.7859772493 19.6442821119 4.6363410007
1.5722882051 19.1504429682 5.5757814098
1.7780655772 19.7542782452 5.1760789607
2.0726771955 9.6367879665 8.8482497693
2.4506480699 9.2816088336 7.9593788634
2.6344480489 8.6486339606 8.5814960932
2.6268260777 8.4608570553 9.5183298847
2.3674421568 9.2820547315 10.0701875098
2.7435764415 8.4145835255 10.4693802233
2.6491574125 9.1589642250 10.7970558375
2.9681774080 8.6892609113 11.1371822310
2.1248581329 10.1864129107 7.5294858399
2.4914320938 10.1990334028 6.7591748554
2.6026059972 9.5819726464 7.2257682621
1.9941391224 10.3742724772 9.8069772967
2.4902474518 9.9996057769 10.6814308533
2.9559484771 9.6193476741 11.2370868033
2.1971514616 11.0443528649 6.5043342403
2.6715178537 11.0151094527 5.8187582091
2.5832385707 10.5070136699 6.3208848332
1.7083549168 11.2587115850 7.2540493975
1.8732690664 11.5915731442 9.8528382648
2.3945172192 11.1136446787 10.5552835704
2.9715790937 10.6150425909 11.1691951106
2.3096444914 11.9790353881 5.6376999485
2.7671993037 12.4486289302 4.7745143170
2.7281705643 11.6492800914 5.2817064662
1.7436468951 12.2445168900 6.3953446638
1.8040737900 12.6095100079 9.6769527706
2.4006129898 12.4379288564 10.3571931174
3.0446762711 11.6803980920 11.0180003934
1.9945097513 13.3994441696 5.3122602240
2.5577839163 13.5812665763 4.3939047008
2.0823756679 13.7863239721 9.6887472995
2.7818156534 13.4314749688 10.3948797264
3.2722806535 12.7178691342 10.8476186121
2.2415839210 14.6507604523 4.3587425667
2.8175411633 15.0271591127 3.5262403976
2.8230506335 14.1162313048 3.8434527281
1.7225868442 14.7179780599 5.1369136586
1.8403795650 15.0682308502 8.9688064326
2.4155838122 14.9636089009 9.6448167029
2.8948807507 14.3575739179 10.1544539082
2.2877362632 15.7912809644 3.8896452173
2.7905148260 16.2778303251 3.1520187542
1.7531776997 15.8490631642 4.6736391952
1.9449263557 16.1518113642 8.6295648259
2.5029639731 16.0097172309 9.2723471977
3.1044790351 15.3713422475 9.9002865790
2.0338268663 17.0952723191 3.8859050257
2.5585325590 17.3813534764 3.0637255309
2.3459726325 16.8130818444 8.7293690253
3.0053395857 16.9844311303 9.1050323545
3.3936880494 16.3036482767 9.6135091065
2.3177748928 18.2977396088 3.2475497556
2.8191110980 18.4388458644 2.5658420628
2.6773170684 17.8713581982 2.7835181392
1.8653588170 18.3462176723 3.9778228841
1.6955673767 18.9746341968 6.1752622671
2.1758102933 19.0115618964 6.8738044939
2.7574909190 18.4624205435 7.8761134791
2.7469537811 17.5927832900 8.5294468469
2.5125727393 19.2050163245 2.9543321454
2.1137967971 19.5141683031 3.8154507131
2.6103236291 20.1207896292 2.9971258947
2.1225307979 19.8809592844 5.9366378383
2.7150378561 19.9424992508 6.8038002080
2.9237398646 19.4349390797 7.3871267533
2.4546595985 20.6225218900 3.6730780578
2.8797977766 21.0871929527 3.0371072215
2.3147800964 20.5873059326 4.7405552853
2.5937325782 20.7493943026 5.7116004470
2.7194417259 20.4960643767 6.3104953888
2.7859333564 21.4033498846 3.8407299713
3.2785279065 21.8139043975 3.1770723769
2.9106871737 21.5944746285 4.5244520050
3.0785948457 21.4070626800 5.3552264122
3.0957591996 21.0099697297 6.1234643559
3.4675811386 22.0934596750 3.9232997400
3.8558734970 5.6615648484 11.0419607709
4.0377644814 5.4291203867 10.5152593906
4.2069116810 5.0952679592 10.9593647112
4.5414153616 4.8387256644 11.3167912041
3.5068726807 6.5051026966 10.2675642710
3.8550988970 6.2348596585 9.3729916592
3.9121767187 5.7908095344 10.0202470685
3.4308967217 6.5642579006 11.0219458871
4.1255126690 5.3399843309 11.4173472771
3.6181832685 6.1448781071 11.2772818434
3.5712685375 7.6119417518 7.7405905492
4.0177841580 7.4103033116 7.1535765156
3.9424538443 7.0612208760 7.6957012433
3.8745035647 6.7731578241 8.3500036677
3.2199579891 7.5243620331 8.9401660241
3.0036203288 7.6436097858 10.0513061087
3.1355237125 7.5736116359 10.8738132243
3.3167672757 7.1291904160 11.2399740147
3.6104996766 8.3410946521 6.8502196168
4.0126474198 8.7602110518 6.0027042538
4.1840491974 7.8723244992 6.4817407037
2.9939350677 8.6481747699 7.6395511691
3.2482723476 8.3784868493 11.3865339555
3.2726228656 9.2307572368 11.5020140305
3.1017204794 9.7679208299 6.3147092765
3.8992821050 9.8138039127 5.3805921137
3.6191753554 10.1547859165 11.5634725722
3.3355335815 11.0658211112 5.0685746220
4.1490317103 11.1516856479 4.2667892751
4.0914959713 10.4307075189 4.7885388112
3.6187502153 11.0875193799 11.4059816759
3.5916296818 12.1238303523 4.1240611870
3.9175787046 12.8919312063 3.3903319043
4.4957910146 11.9060441810 3.5141255803
3.9308214435 11.9415563460 11.2623681118
3.1557467154 13.2128811949 3.9164063773
3.5109073552 14.0549005727 3.2349291151
4.2158932865 12.9118313818 11.0044392205
3.5443405778 13.6869931146 10.6276769074
3.4427572478 15.2270907303 2.8798245287
3.7802089704 14.6502339028 10.3424960805
3.4594082850 16.0913380375 2.5728098482
4.0202491277 16.2495551921 2.1044630980
4.0029030078 15.4307763070 2.3906570920
4.0117143110 15.5979907374 10.0351472128
3.1907461162 17.2549504873 2.4525277531
3.9964039929 17.2099725202 1.7894989714
4.3186838862 16.4252921486 9.6969562388
3.7948681009 17.0105006029 9.3472519103
3.5269699605 18.3719666032 1.9054490609
4.2499074667 18.6530088833 1.3534293353
4.2255381665 17.8035545557 1.4697123056
3.1804121933 18.1491134100 8.4574192516
3.6427742034 17.7369578067 8.8721326000
3.5959972068 19.6083901834 1.7489502890
4.3435608684 19.7363574915 1.2556658463
2.9759296095 19.4218589830 2.3649498160
3.2817419289 20.0127536871 7.3070676694
3.8935939698 19.6179652650 7.9547427282
3.7399129626 18.5457247668 8.4297132120
3.7683115315 20.6685664102 1.6951296516
4.5009991728 20.7501120622 1.2637017322
3.1487136263 20.4813794953 2.3193396461
3.6725445311 20.2924157757 7.4423598940
3.3561776043 20.6139577196 6.8573891430
4.0455906820 21.4157948838 1.6748404107
4.7237856185 21.6065185705 1.4824244043
3.5495583146 21.5166103187 2.3431018526
3.3719740565 21.9518578524 4.7407514601
3.7574690585 21.8989586337 5.2699572494
4.0156398428 21.4276821450 6.2867456734
4.2111752629 21.9832831803 2.0058545342
4.1866373908 22.3858777790 2.8316135521
4.2959990584 22.4494466970 3.7762096554
4.0301134430 22.2272798460 4.5732196538
4.6622308891 4.6830078282 10.7053501537
4.9575466586 4.4997712713 10.1592843482
5.4552513894 4.0341381940 10.5381911600
5.3405426455 4.1457007968 11.1994381372
4.4309271598 5.2102597495 9.8413793759
4.9642748288 4.9905740782 9.1967069879
4.9304532132 4.6784860418 9.7645601081
5.2258600375 4.3639202749 11.6489302159
4.4597655524 6.4854128731 7.6711339604
5.0502379054 6.3502176597 7.0094500614
5.0401118431 5.9224045061 7.5842608603
5.0211131530 5.5295076156 8.2357682084
4.4068803410 5.8413282729 8.7806553469
4.7419160695 4.7651836320 11.6464532904
4.5699214386 7.1143805585 6.7361044377
4.8801365183 7.7366713906 5.8918938571
5.0115466778 6.8846574464 6.4493761885
4.5649459831 9.0161285667 5.2857801825
3.6163751144 9.4603031114 11.6516968689
4.4373289824 9.7969326503 4.9006591134
4.7780013699 10.2577514264 4.3398359722
4.9328181121 9.4159802802 4.7179207572
4.2953866573 10.1744498000 11.7184743143
4.8375991850 11.0339816783 3.8189197079
5.2453035987 10.1617045880 11.7151985430
4.6739799921 10.9229734268 11.5521199523
4.5935591583 12.6425604569 2.9961134899
5.0738486243 12.8991732053 2.6219617905
5.2706338198 12.1528745364 2.8892673038
5.4036152669 11.3134733354 3.2947036705
4.9159641428 12.1177189604 11.2652607765
4.3899952770 13.4352737722 2.8040586547
5.1749878053 13.7369732750 2.3165261736
5.1812165764 12.9782924818 10.9698923723
4.5462780110 13.8180315887 10.6841106495
4.2293763082 14.4893986399 2.5605620484
4.9727062439 15.1309420218 1.9505676895
4.7860031440 14.7807532464 10.3298231416
4.6634088012 16.3776439288 1.6336860408
4.9195698638 15.6935117564 9.9913865929
4.5670404386 17.1348852360 1.4267837074
4.9925740610 17.5823148707 1.1760498343
5.0842829395 16.6991679798 1.3149106831
5.1511371311 16.3235535018 9.6735057473
4.8552665969 17.2483232636 9.2339540243
5.1425562082 18.6755436903 1.0147270587
4.4336515908 18.1570004937 8.7917695601
5.2987195317 18.1973988420 8.8525153118
4.6582649748 18.8494412204 8.5334438158
5.2641136829 19.7817481635 0.9661344424
5.0307941870 19.5427954783 8.5087454691
5.4310468825 20.8091770495 1.0735228994
4.2664908129 20.7698700846 7.6031822382
4.8958899215 20.3724452022 8.4280349978
5.2519544442 21.3223212975 8.6969544933
5.6184066107 20.8224127041 9.0193340205
5.6905081643 21.6559366253 1.3994943982
5.2945404698 21.7352921368 6.1970749590
4.5585503942 22.0177524406 5.3182921360
5.0530998540 21.4376460870 7.4857324848
5.6903332729 21.5154814696 8.6413077391
5.7150039182 21.7477245898 9.2077767366
5.6403354497 21.9060848763 9.4556640432
5.7389016540 21.6550942941 9.5314114128
6.0461768665 22.2222506906 10.0170701725
4.9940546240 22.3543367745 2.0635024930
4.7191210695 22.6995272930 2.4771507148
5.0918864238 22.7422707919 2.4116736464
4.7293001353 22.7645402271 2.7864575591
4.9905747855 22.6285412766 3.2127537513
5.0361427956 22.3193724588 4.3305490567
5.9970836577 22.2602858876 9.5653946490
5.4591914204 4.2757085701 9.7248900812
6.3002694889 3.8474723779 9.3116621403
6.1010377212 3.6574857242 10.1497294634
6.3756661718 3.3969324032 10.9364161095
5.9217794162 3.8153980847 11.5579191714
5.7312825602 5.4234929062 7.4538647991
6.2101409394 5.5944221202 6.6147893234
6.7777173655 4.9349287851 7.0219106803
6.6573777376 4.2522827750 8.1661744241
5.6646784366 4.6798321484 8.6995914357
5.6470988448 4.1076005819 11.7835948499
5.2069312098 4.4484271111 11.7971956489
5.6477084942 6.4098546095 6.2969734725
6.3598975198 6.2955822744 5.7096919454
6.2282778719 5.9110494806 6.1780446601
6.7766960342 7.0841314660 11.9861548013
6.6830445071 6.9945054707 12.0234614328
7.0591087262 6.8292114599 11.9860809843
5.9304339350 7.3396134654 5.2470751972
6.7485450307 7.4258606341 4.6296072813
6.6583501493 6.7311497363 5.1310616319
6.5589807325 7.4226189302 11.9730542652
6.7963212711 7.6653832106 11.8652937198
6.1405695038 8.3166335080 4.4474378672
6.4439006230 8.9527289884 3.9280005583
6.9933904589 8.2060974704 4.0795510396
5.3240307779 8.5443043553 4.9303489700
6.4332745271 8.2688958084 11.8523288045
6.6850164816 8.7639725138 11.6525294809
5.6269755160 9.4033875082 4.2028702992
6.3978557897 9.7712745214 3.5872844748
6.0455418689 9.3420348075 11.7443349849
6.0136162125 10.1458533777 11.5370652098
5.5323449872 10.4375109096 3.7171923805
6.2943420355 10.6927717766 3.1869435112
5.7838941578 11.4345223974 11.2927335070
6.0698890720 12.6427148483 2.3851530934
6.1720994182 11.5710298041 2.7932171439
5.6802015859 12.3388265047 11.1065296095
6.4255398317 13.9694710282 1.8687831620
5.8356389125 12.8273996373 10.9065326358
5.8058248940 13.6839857467 10.5430154161
5.9475226583 15.0614326195 1.5668713646
6.3027719290 15.6426159515 1.2976713787
6.6583809515 14.8589605562 1.4901532531
5.6866854796 14.9748539951 10.1062300971
5.4532830792 15.8884533807 1.4404374610
5.7984372330 16.5925007168 1.1572163358
5.6298063680 15.7539889910 9.8271151785
6.2839402137 15.3281748750 9.7664560988
6.0872787911 16.2756681114 9.4341427547
6.0382079201 17.5624110366 0.9702614969
6.2218539918 17.5360045600 9.0236532963
6.1978164558 18.6959088511 0.8594183912
6.0189759316 18.4398907506 8.8625138383
5.4972784881 18.9094026575 8.7068907024
6.3266928518 19.8125535659 0.8758538654
5.6864261979 19.4516327174 8.7471769777
5.4840852383 20.0075075643 8.7406245104
6.1850921548 19.8205040474 8.9945176091
6.5029279383 20.8132440531 1.0634886282
6.2906412053 20.9941964639 9.3073970508
6.7091759972 21.5714485664 1.4255168281
5.3657986216 22.0257155436 5.1966561496
5.9288442755 21.7746473416 5.4944834837
6.0134174790 21.9744217825 4.6702032549
6.1749365592 21.5626647621 6.1792116861
6.0970224221 21.5747135996 7.4608951638
6.1186153347 21.7888208631 8.9587789238
6.9464463334 21.7482694115 8.3741431603
5.7967001365 21.4272025397 9.2629420386
6.1653306643 21.6048511777 9.6478500814
6.2669537331 21.9802925465 10.1850850694
6.3635912472 22.2598754955 10.3955652780
6.6970065007 22.1638842130 10.5129240787
6.0939782503 22.1515434401 1.9011740523
5.1020654897 22.8072837261 2.7209804907
5.5872649347 22.5622276906 2.5862628527
6.0681276533 22.2529581289 3.5536961088
6.6218118178 22.3569975085 9.3559957226
6.2957266942 22.5836366488 9.7000770287
6.6581879117 22.6606704117 9.7844088783
6.2609105371 22.5456731282 10.0060386470
6.7284005059 22.4484115644 10.3561829018
7.0339685782 3.0930481792 10.0027490035
7.5325509994 2.9873246872 9.2429709979
8.1716627342 2.5251465091 9.6791027874
7.8363680129 2.5512825066 10.6173383484
7.1379095929 2.8840922158 10.7623729778
7.3794638692 2.8012817212 11.1653100033
7.0581815674 3.4423720803 8.9799181241
7.5300906930 3.5336124089 8.3081209348
7.5117774680 3.1914699326 8.8040899135
6.7028716122 3.2539256132 11.4652153947
6.1300861362 3.7201337600 11.7115755267
6.8121726577 5.5467979414 6.1472967127
7.5630996728 5.4875731995 5.7728247784
7.6787798350 4.9204346158 6.4150944710
7.7715314457 4.1462456645 7.3580838165
7.0848443208 6.0640828004 5.4400954616
7.3721564925 6.6557421204 4.8668058651
7.9422509706 5.9343714670 5.2467877927
7.8135950729 6.7099762284 11.8748557608
7.3063370233 7.0612281045 11.8829309582
7.6617967924 7.3795717057 4.3463343686
7.5409840502 7.7940893475 11.6292919475
7.2272631396 9.0254077618 3.6193051249
7.9792238163 8.1819098151 3.8708370085
7.3617655768 8.6856819331 11.4139066069
8.0914182272 8.3421515203 11.2873340037
7.6950988150 9.0909214084 11.1849419707
7.3953356375 10.0319326330 3.1459931077
7.0099861219 9.5541919298 11.3253212444
7.7054575595 9.9092355324 11.0058627861
6.9747759876 10.9557625031 2.8082179043
7.1253110704 11.7003525029 2.4669610924
7.9293912743 10.8414283324 2.6872520516
6.7939319051 10.7296801025 11.1436650387
7.7148418593 11.0332433968 10.7613260138
7.3535220837 12.6526646499 2.1128279037
6.5771415739 12.2043801591 10.8329249162
7.8322586276 12.1444256595 10.4103624020
7.7176289453 13.4494569424 1.8575133468
7.0857540726 13.2547740290 10.2684303552
8.1179522509 13.0318239060 9.9709439650
7.5510357714 13.9437817817 9.8019360482
7.0766242079 15.3392181596 1.3243201100
7.6245828315 14.4825362786 1.5916226390
6.6328297424 14.4043073102 9.9894479283
7.3355921143 15.1346916427 9.3904893538
6.9227055891 16.3746693504 1.1115422281
7.9171500486 15.5455981856 1.3346053023
7.1243594632 16.5021620654 9.0129508681
7.1788023004 17.6106740992 0.9378721717
7.2643807032 17.5242617840 8.8183310924
7.8309894173 16.7942462670 8.6542020480
8.0531887002 17.7168026042 8.5233268771
7.3055087087 18.7797568331 0.8727560149
6.0811941152 19.0278039371 8.8404480338
7.5105165157 18.1502877274 8.7882591267
6.8207039857 18.6278925345 8.9413389039
7.4257426967 19.8454599439 0.9615048990
7.2309976702 19.8818833259 9.3077333118
7.6208916034 20.7970186243 1.2509752038
6.7772775666 21.4042198646 5.3231321569
7.4731918409 20.9301174799 5.2103892483
7.4589811182 21.1780666226 4.5840288496
6.8264849801 21.2324045821 6.5098271552
7.4809299492 20.7980783695 5.8919463612
6.9940218798 21.2863011597 7.3960279992
7.5246891774 20.7887553582 6.8648499982
7.7062190493 21.0104002438 7.7939238015
7.2260906336 20.7139154869 9.7363914865
6.8846083090 21.2378877677 9.9063186265
7.7945506864 21.1348625276 10.1497708429
7.5096461215 21.4988467499 1.6579609405
6.9096023408 21.9338478770 1.8613051777
7.4317373930 21.7865739276 2.1464184561
6.8306564852 21.7259068355 4.2313048499
7.3935756791 21.4761911172 3.9846555544
7.1565084554 21.7767749939 3.4546299335
7.8555699062 21.5999768960 8.5861430930
6.9988925895 21.7416007091 10.3361378935
7.3238719436 22.1626540744 10.6046916969
6.7321250997 22.1159019553 2.5630472404
7.5128331510 22.1568947481 9.1512560526
6.6764201657 22.6621414443 10.0741877437
7.2776195711 22.4989403164 9.9265425814
7.5484619010 22.3804018813 10.4587021571
8.0779985221 2.9557422864 8.7095244599
8.7779245751 2.9043318449 8.2402864695
8.9362356659 2.4856957742 8.8854593596
9.2206407321 2.0374126964 9.6763507894
8.8059347596 2.0984908623 10.4557709249
8.6459463256 2.3869835117 11.1641598157
7.5874028847 2.7520236341 11.3910910364
8.3204669265 3.3897944762 7.9002713497
8.7663115801 3.7581624585 7.2878345354
9.1564938354 3.2182601255 7.6942445994
8.4242796731 5.2499935873 5.7797508061
8.8750963013 4.4591617812 6.5525904236
8.3439616331 6.5904526346 4.7094374821
8.9746506234 5.8537469944 5.1740578797
8.7943703131 6.5059937584 11.7014092625
8.2271218611 6.9526888751 11.7099772882
8.7234004059 7.3653363100 4.2270201885
8.6105189363 7.5054386636 11.4270990939
8.3082060173 9.0563845974 3.4359284150
9.0865566561 8.2090414563 3.7942691147
9.0055048173 8.1410272959 11.0913175795
8.4509086277 9.0430449858 10.9801715265
8.7072676085 9.9686771528 3.0198691771
8.6530855903 10.0164387670 10.7021267707
8.2646283562 11.7260953718 2.3298634382
9.0861095755 10.8896168828 2.6323353671
8.7427487841 11.1332180633 10.4239863227
8.5065235040 12.6696116053 2.0432962885
8.7955613859 12.1183759559 10.1133310003
8.6715134540 13.6446881787 1.8220589421
8.9103907046 12.8234560987 9.7873872167
8.6124699948 13.8668245344 9.3963765713
8.9524696234 14.7834654033 1.6243215687
8.3875101653 14.9469022547 8.9610288504
9.2219427796 14.5902755103 8.7420519360
8.7862477546 15.4291713986 8.5472196002
8.0872386629 16.6295374641 1.1501394613
8.8086054086 15.8659972076 1.3911918068
8.0223197849 15.8596513188 8.7801075159
8.7291074276 16.5355875480 8.2015219003
8.4005564148 17.8347187387 1.0645050941
8.6926697515 17.7265725491 8.0227099231
8.2074761144 18.9643701833 1.0023351838
7.8500878015 18.8817108080 8.8844245193
8.4550211617 18.6659472653 8.3701854221
8.5395809905 19.7806264918 1.2436036351
8.1777216547 20.4228221436 5.1211484698
9.0423650795 19.7520044891 4.9738503610
8.8148954768 20.2533021184 4.3119924675
8.1404895510 20.1795565833 6.3621926634
8.9642958423 19.3894415729 5.9120113149
8.0631381074 20.3432047518 7.2002297440
8.6343702726 19.5399068320 7.1386186883
8.4602979767 19.4997308407 8.8477450885
8.2910855976 20.3120994599 7.7701795089
8.2198549087 19.9256466430 9.3518810563
7.8745059659 20.4360492158 9.7387834343
8.7122139572 20.7524659481 9.8676219199
8.4491149550 20.5735358796 1.4633568652
8.0471877214 21.0556315458 3.7939657068
9.1086944077 20.3972302089 3.3767554036
8.4147930728 21.0667082225 2.8798244857
8.3198151586 20.8829029401 8.3675589580
8.6919467377 21.4250688644 10.3156022645
8.1043721671 21.0678622373 1.5910583869
7.6919687683 21.5956016865 2.7951881843
8.1382226994 21.2949884111 2.1375885292
8.4573627524 21.4637039595 8.8528770114
8.2182150772 21.9109722709 9.0982829503
8.9170361717 21.6673372239 9.3711597699
7.9328977612 21.7760035618 10.5403658441
7.9847146919 22.1487273106 10.5975036419
8.2656147158 22.1719673430 9.6283419035
8.3395239013 22.2010221657 10.2511189618
9.6083420611 1.7212862175 10.3180176795
9.9178285650 1.7594147186 9.7581561012
10.2261619604 1.5809726184 10.2331438006
10.0042208590 1.6218069758 10.6790921996
9.5158662123 1.9254975834 10.9083583164
10.1257988404 1.8516918668 10.9921405785
9.4805021026 2.7026118521 8.2078040013
9.9777323258 2.2152509774 8.9493264315
9.9478273225 2.4620017784 11.3187564391
9.5370347673 2.6079013799 11.4836734776
9.7648170819 3.7328229161 7.1681168364
9.8295526559 3.0608300665 7.7083632241
10.0675103799 3.0776070874 11.5578567361
10.3885629977 3.2459987569 11.4377357751
9.5536731801 5.1637962451 5.7508724319
10.1620002904 4.5476359763 6.4157728386
10.4488683321 4.0227439824 11.4543621005
9.4426278779 6.5987207991 4.6538898968
10.0546386565 5.8872911763 5.1430704356
9.7327322182 6.0287944453 11.5001989239
9.3495131476 6.7074599164 11.4380253204
9.8175195650 7.4492538840 4.1955559885
9.4097113411 7.4099920484 11.2022313891
9.4798124069 9.1036661862 3.4041033562
10.1274204438 8.3273385797 3.7974092729
9.7835567751 7.8388780005 10.8807219990
9.5694055216 8.8794392924 10.6549988372
9.9767490177 10.1313548610 3.0236191746
9.6767746108 10.1581226342 10.3505332222
9.4837980513 11.9102375153 2.3056868822
9.9958957172 11.0790019575 2.6326463022
9.7401367778 11.3336927374 10.0616457216
9.4018914468 12.9084088667 2.0304708693
9.4552917125 12.2341495175 9.8611747112
10.1689522028 12.0518383142 9.6496739206
9.6017440233 12.8965332301 9.4897993009
9.6932520446 13.7492968570 1.8943413567
9.7982841315 13.6883409735 8.9840159188
9.9595610748 14.6006298798 1.7902139486
10.1078627144 14.4024309972 8.4225277447
9.6012548082 15.4106994172 8.1131426560
9.1544670884 16.7760457935 1.3294414186
9.8138922340 15.7176974403 1.6218143057
9.5613456938 16.3250083227 7.6622295190
10.1886344663 15.8870783120 7.4241768165
9.9227477822 16.6645325092 7.1797543233
9.4190870184 17.6623792749 1.3155354054
10.1526308866 17.0865329223 1.6197135047
9.3047205345 17.3325452445 7.4375590369
9.9166164075 17.3874624877 6.7224533936
9.1822039126 18.6257417358 1.2637093013
9.9442838350 18.0679956161 1.5279059437
9.3523694463 18.3562604381 6.7155187827
9.8768980542 17.9433098400 6.3271315225
9.7758567457 18.4802882545 5.8683474291
8.8689718069 18.5490375434 7.6578766028
9.4420468094 19.3517356157 1.5366179603
9.1544471365 20.1349564726 1.8178512900
10.0878296689 19.3388521526 2.0893906349
9.5802301155 19.1417537410 5.2191688106
9.6617418694 19.5923271038 4.3286735831
8.6362643646 19.8296574841 8.2994309430
8.8986123448 20.4079867454 9.2475794127
8.6012585148 20.8159154978 1.8216641286
9.6742576658 20.0385045237 2.6155099855
8.8963378221 20.6871123705 2.4059446878
10.0505190071 19.7504607948 3.4042753089
8.8296036070 20.9241538598 8.9357657781
9.3993226808 21.1589340349 9.4857106073
9.5187284786 20.9900781247 9.7711261035
9.4674681650 21.2535113772 10.0820394889
9.6613071266 21.5928208217 9.7472233632
8.5164425705 21.9046823402 10.4927991248
9.2323130240 21.7400707369 10.2159157702
9.1235371920 21.9295518381 9.8937540904
10.4778072673 1.8251183702 9.6826076714
10.6714797235 1.6969178427 10.2127542566
10.4614144882 1.6662202571 10.6526556032
10.5687268753 2.1213948731 10.9431242689
10.1293520065 2.7066674208 8.1331751920
10.4580561618 3.2362786548 7.7380470658
10.6647137628 2.7042774326 8.4807260334
10.7321010750 2.2577263350 9.1826229106
10.6821073294 2.8929756244 11.0858290843
10.9070056791 4.1960398538 7.2776895212
10.7605291706 3.7932114262 11.1526504035
10.6281613997 5.2862358691 5.6976145799
10.9245487845 4.7653374742 6.4073656249
10.6775600022 4.7656606553 11.1489051837
11.0298485752 4.3511336485 10.7027085789
10.9799117160 5.2762301864 10.5334298590
10.3222712990 5.1759970493 11.4023578896
10.5298451019 6.7034888708 4.6526218720
10.8051349604 5.9859051517 5.1159350293
10.3318787839 5.9069626784 11.1254182166
10.8403345418 6.4532180004 10.3976156265
10.6974419475 7.7217683663 4.1554390601
10.1054937816 7.0111934769 10.9479315745
10.5791489593 7.8379476307 10.3168237817
10.4973130715 9.1803603086 3.4873540924
10.8332457945 8.5347312310 3.8126462494
10.5586888263 9.2518741615 10.0991712165
10.9525673310 9.9687643003 3.2746156039
10.5502068347 10.4372035719 9.9384076367
10.3868910394 11.7011453167 2.4780386820
10.7648348901 10.9963316278 2.8191461120
10.5635771319 11.2957876184 9.7423658049
10.3839197176 12.7663783071 2.1951717712
10.8800408548 11.9380406971 2.5025205367
10.8429362875 11.8361283268 9.3614492855
10.5459646319 12.8154859789 9.0586765127
10.4105978941 13.9191704150 1.9646996761
10.5208960052 13.6984238506 8.6208036164
10.5672819514 14.8755064771 1.8632090840
10.7639287465 14.2059945513 8.1314189164
10.5069294392 14.9834162708 7.7788330175
10.6737338737 16.0916354460 1.7925627928
10.8106495325 15.5979408382 7.1037396417
10.5201235802 16.5670072091 6.6875856239
10.8452017507 17.0865467637 1.8705992512
10.3621506049 17.5898935591 6.0415988994
10.8324798133 16.9078428466 6.1252209271
10.9359181789 17.4232630373 5.5560154944
9.9401787774 18.7396866748 1.6323569667
10.6853753790 18.2009462900 2.0479469306
10.3912412684 18.4911314936 5.0448105719
10.9927977553 17.9713661189 4.9803452982
10.9980017358 18.4441405458 4.4035993276
10.7709067656 18.9991318364 2.5473116347
10.5033390581 19.1592521252 4.0303626766
10.9694030408 18.9505970303 3.7241806097
10.6544692740 19.3692015837 3.3927945821
10.4396154876 19.5089128005 2.8232924735
9.9483217609 21.3097597281 9.8104478482
9.9659987017 21.2569707843 9.9551144421
9.9338428937 21.4788487536 10.0459056007
10.0579391499 21.5105460972 9.9151065236
9.7464934866 21.6992874450 9.9866494261
10.9708064413 2.1679100986 9.8975425465
10.8263471973 1.9117882841 10.5038294583
11.0786311100 3.4511017028 8.2103006731
11.1587735898 2.8862688414 9.1557423817
11.2267913846 2.8305886052 9.9754217948
10.9959336879 2.4899096937 10.5467146461
11.3706180578 4.2560291586 8.1510334470
11.3886402216 3.8529420297 8.9412548135
11.3438823508 3.4546687802 9.6866301487
11.1314142036 3.4439462568 10.4894592654
11.1209032008 5.1527565997 6.0347732815
11.3424519602 4.9301674642 6.9417840687
11.5503790165 5.1347444643 7.8503281167
11.7385603205 5.6555540300 7.5447103547
11.5086301554 4.8814034670 8.8295971880
11.3227375595 4.4200017993 9.8534714058
11.1091175257 6.3920284938 4.8875541571
11.1256349050 5.8221698733 5.3039643557
11.8224025811 6.2091053074 8.0118565602
11.9364404810 6.4160561761 7.7666016101
11.6180905424 6.0118375052 8.7232324913
11.3348692702 5.6810986124 9.6589505421
11.0958304713 7.1091820798 4.5130502926
11.2687746757 6.4294203782 4.8959588359
11.9459987418 6.8237201536 8.0323204405
11.9944566885 6.8820918565 7.9195135227
11.7553218313 7.1426391496 8.6541793232
11.3248788977 6.9554268307 9.5415400664
11.1721083712 9.2009669270 3.6298036422
11.1794168399 8.3745626167 3.9695710887
11.9309357308 7.2643512397 8.2861614579
11.7823894920 8.0189966467 8.8459484399
11.7452085862 9.0675210796 9.1279683132
11.3970412703 8.5030733305 9.4409244991
11.4123733871 9.8164846180 3.4665315481
11.4608118353 9.3508214447 3.6630651672
11.6276650433 9.9374918452 9.2241853649
11.8184408127 9.8339963388 9.0696412256
11.7993244867 10.5659952924 8.9473671251
11.1519498354 9.7919751436 9.6543558369
11.2962248131 10.5120065455 3.1580594598
11.5294766784 9.9294672928 3.4637989799
11.6399821134 11.0157758230 8.9751933969
11.7307211205 11.5773512894 8.6585067152
11.1938190507 10.9110911253 9.4042065423
11.0680498115 12.5522410053 2.3705312455
11.1883854530 11.7402729649 2.6561281649
11.3824045124 12.1866133671 8.7162806840
11.7264574880 12.6271711928 8.1182122382
10.9128133541 13.6692780469 2.1117842135
11.2214872588 12.6605194258 2.3838186708
11.7641452294 14.0932238515 7.0838514990
11.8964253170 13.9758406295 6.9677312869
11.8357013920 14.5540123369 6.6508842271
11.5965801457 13.3753256093 7.8115090586
11.8329844563 13.4722689808 7.4306302208
11.0904087952 13.4618735894 8.3068457967
10.9409692621 15.2808584343 1.9141837566
11.6489085593 14.9180115159 6.6582457139
11.6795476591 15.4875316703 6.2208820401
11.2599224089 14.5690618603 7.3787863647
11.0284925308 16.4953851966 1.9034389084
11.2659540929 16.1369403827 6.2313960201
11.5910110177 16.5587074544 5.5539949441
11.0842305911 17.5015505227 2.0722676195
11.3820473713 17.4972380286 4.9463064567
11.6263942176 17.2729518938 4.9027496381
11.5667105117 17.8520892965 4.2333566874
11.2365875495 18.1554314741 2.5529977442
11.1927196705 18.5554890028 2.8682591522
11.3260343954 18.4035270841 3.7867352037
11.4586324194 18.2604443775 3.3385470840
10.9831165312 19.0409409577 3.1501526422
10.1559191137 21.3794448728 9.9436248234
3 2 1 0
3 0 3 2
3 0 1 4
3 4 1 5
3 3 0 6
3 6 0 4
3 9 8 7
3 9 7 5
3 7 4 5
3 7 10 4
3 6 4 11
3 11 4 10
3 14 13 12
3 14 12 8
3 12 7 8
3 12 15 7
3 7 16 10
3 7 15 16
3 11 10 17
3 17 10 16
3 12 13 18
3 18 13 19
3 12 20 15
3 12 18 20
3 22 16 21
3 16 20 21
3 16 15 20
3 16 22 17
3 18 19 23
3 23 19 24
3 18 25 20
3 18 23 25
3 21 20 26
3 26 20 25
3 29 28 27
3 29 27 24
3 27 23 24
3 27 30 23
3 23 31 25
3 23 30 31
3 26 25 32
3 32 25 31
3 27 28 33
3 33 28 34
3 36 30 35
3 30 33 35
3 30 27 33
3 30 36 31
3 31 36 37
3 31 37 32
3 33 34 38
3 38 34 39
3 35 33 40
3 40 33 38
3 39 41 38
3 38 41 40
3 44 43 42
3 46 45 42
3 42 45 44
3 48 47 46
3 46 47 45
3 48 49 47
3 52 51 50
3 52 50 43
3 43 50 42
3 50 1 42
3 1 2 42
3 42 2 3
3 53 42 3
3 46 42 53
3 46 54 48
3 46 53 54
3 49 48 55
3 55 48 54
3 58 57 56
3 58 56 51
3 56 50 51
3 56 59 50
3 59 5 1
3 59 1 50
3 6 60 53
3 6 53 3
3 53 61 54
3 53 60 61
3 55 54 62
3 62 54 61
3 65 64 63
3 65 63 57
3 63 56 57
3 63 66 56
3 66 8 9
3 59 66 9
3 56 66 59
3 59 9 5
3 11 67 60
3 11 60 6
3 60 68 61
3 60 67 68
3 62 61 69
3 69 61 68
3 63 64 70
3 70 64 71
3 70 13 14
3 66 70 14
3 63 70 66
3 66 14 8
3 17 72 67
3 17 67 11
3 74 68 73
3 68 72 73
3 68 67 72
3 68 74 69
3 77 76 75
3 77 75 71
3 75 70 71
3 75 78 70
3 78 19 13
3 78 13 70
3 21 79 22
3 72 17 22
3 79 72 22
3 80 72 79
3 73 72 81
3 81 72 80
3 75 76 82
3 82 76 83
3 75 84 78
3 75 82 84
3 84 24 19
3 84 19 78
3 26 85 79
3 26 79 21
3 79 86 80
3 79 85 86
3 81 80 87
3 87 80 86
3 82 83 88
3 88 83 89
3 88 28 29
3 84 88 29
3 82 88 84
3 84 29 24
3 32 90 85
3 32 85 26
3 92 86 91
3 86 90 91
3 86 85 90
3 86 92 87
3 95 94 93
3 95 93 89
3 93 88 89
3 93 96 88
3 96 34 28
3 96 28 88
3 35 97 36
3 98 37 36
3 98 36 97
3 98 99 37
3 37 99 32
3 99 100 32
3 100 90 32
3 90 100 91
3 94 101 93
3 103 102 101
3 102 93 101
3 102 96 93
3 102 39 34
3 102 34 96
3 40 104 97
3 40 97 35
3 106 98 105
3 98 104 105
3 98 97 104
3 98 106 99
3 102 103 107
3 107 103 108
3 109 41 39
3 102 109 39
3 107 109 102
3 104 40 41
3 109 104 41
3 110 104 109
3 105 104 111
3 111 104 110
3 107 108 112
3 112 108 113
3 115 109 114
3 109 112 114
3 109 107 112
3 109 115 110
3 110 115 116
3 110 116 111
3 113 117 112
3 112 117 114
3 120 119 118
3 118 121 120
3 124 123 122
3 124 122 119
3 122 118 119
3 122 125 118
3 121 118 126
3 118 127 126
3 118 125 127
3 130 129 128
3 132 131 128
3 128 131 130
3 131 132 123
3 132 122 123
3 132 133 122
3 122 134 125
3 122 133 134
3 125 135 127
3 125 134 135
3 138 137 136
3 138 136 129
3 136 128 129
3 136 139 128
3 139 43 44
3 132 139 44
3 128 139 132
3 132 44 45
3 132 45 133
3 133 45 47
3 133 47 134
3 135 134 140
3 134 49 140
3 49 141 140
3 49 134 47
3 136 137 142
3 142 137 143
3 142 51 52
3 139 142 52
3 136 142 139
3 139 52 43
3 55 141 49
3 55 144 141
3 147 146 145
3 147 145 143
3 143 145 142
3 145 57 142
3 57 58 142
3 142 58 51
3 62 144 55
3 62 148 144
3 151 150 149
3 151 149 146
3 146 149 145
3 149 64 145
3 64 65 145
3 145 65 57
3 69 148 62
3 69 152 148
3 149 150 153
3 153 150 154
3 153 71 64
3 153 64 149
3 156 155 74
3 156 74 73
3 69 74 152
3 152 74 155
3 153 154 77
3 154 76 77
3 154 157 76
3 153 77 71
3 81 156 73
3 81 158 156
3 161 160 159
3 157 161 159
3 83 157 159
3 76 157 83
3 87 158 81
3 87 162 158
3 159 160 163
3 163 160 164
3 163 89 83
3 163 83 159
3 166 165 92
3 166 92 91
3 87 92 162
3 162 92 165
3 169 168 167
3 169 167 164
3 164 167 163
3 167 94 163
3 94 95 163
3 163 95 89
3 99 170 100
3 170 171 100
3 171 91 100
3 171 166 91
3 167 168 172
3 172 168 173
3 174 101 94
3 167 174 94
3 172 174 167
3 174 103 101
3 105 175 106
3 175 176 106
3 106 176 99
3 176 177 99
3 177 170 99
3 170 177 171
3 172 173 178
3 178 173 179
3 172 180 174
3 172 178 180
3 180 108 103
3 180 103 174
3 182 181 175
3 105 182 175
3 111 182 105
3 175 181 176
3 178 179 183
3 183 179 184
3 178 185 180
3 178 183 185
3 185 113 108
3 185 108 180
3 114 186 115
3 115 186 187
3 188 115 187
3 116 115 188
3 111 116 182
3 182 116 188
3 184 189 183
3 183 189 185
3 185 189 190
3 185 190 113
3 190 117 113
3 190 191 117
3 114 117 186
3 117 192 186
3 117 191 192
3 186 192 187
3 195 194 193
3 193 196 195
3 199 198 197
3 199 197 194
3 194 197 193
3 197 119 193
3 119 120 193
3 120 121 193
3 121 196 193
3 121 200 196
3 203 202 201
3 205 204 201
3 201 204 203
3 204 205 198
3 198 205 197
3 205 123 197
3 123 124 197
3 197 124 119
3 206 200 121
3 206 121 126
3 209 208 207
3 209 207 202
3 202 207 201
3 207 129 201
3 129 130 201
3 201 130 131
3 201 131 205
3 205 131 123
3 207 208 138
3 208 137 138
3 208 210 137
3 207 138 129
3 141 211 140
3 214 213 212
3 210 214 212
3 143 210 212
3 137 210 143
3 144 215 211
3 144 211 141
3 212 213 147
3 213 146 147
3 213 216 146
3 212 147 143
3 218 217 215
3 144 218 215
3 148 218 144
3 221 220 219
3 150 151 219
3 151 221 219
3 151 222 221
3 151 146 216
3 151 216 222
3 152 218 148
3 152 223 218
3 219 220 224
3 224 220 225
3 224 154 150
3 224 150 219
3 227 226 155
3 227 155 156
3 152 155 223
3 223 155 226
3 224 225 228
3 228 225 229
3 228 157 154
3 228 154 224
3 158 227 156
3 158 230 227
3 228 229 161
3 229 160 161
3 229 231 160
3 228 161 157
3 162 230 158
3 162 232 230
3 235 234 233
3 231 235 233
3 164 231 233
3 160 231 164
3 237 236 165
3 237 165 166
3 162 165 232
3 232 165 236
3 233 234 169
3 234 168 169
3 234 238 168
3 233 169 164
3 241 240 239
3 240 237 239
3 237 171 239
3 237 166 171
3 238 173 168
3 242 173 238
3 241 239 177
3 176 241 177
3 243 241 176
3 177 239 171
3 242 179 173
3 244 179 242
3 182 245 181
3 243 176 246
3 176 245 246
3 245 247 246
3 176 181 245
3 247 248 246
3 244 184 179
3 249 184 244
3 251 250 188
3 251 188 187
3 182 188 245
3 188 252 245
3 188 250 252
3 245 252 247
3 247 252 253
3 253 254 247
3 254 255 247
3 256 248 247
3 256 247 255
3 255 257 256
3 249 258 184
3 184 258 189
3 258 260 259
3 190 258 259
3 189 258 190
3 190 259 261
3 262 190 261
3 191 190 262
3 191 263 192
3 262 263 191
3 187 192 251
3 251 192 263
3 254 264 255
3 255 264 257
3 267 266 265
3 194 195 265
3 195 267 265
3 195 268 267
3 195 196 268
3 268 196 269
3 272 271 270
3 274 273 270
3 270 273 272
3 273 274 266
3 266 274 265
3 274 198 265
3 198 199 265
3 265 199 194
3 200 276 275
3 269 200 275
3 196 200 269
3 279 278 277
3 279 277 271
3 271 277 270
3 277 202 270
3 202 203 270
3 270 203 204
3 270 204 274
3 274 204 198
3 276 200 206
3 282 281 280
3 285 284 283
3 285 283 278
3 278 283 277
3 283 208 277
3 208 209 277
3 277 209 202
3 280 281 286
3 280 286 287
3 290 289 288
3 290 288 284
3 288 283 284
3 288 291 283
3 291 210 208
3 291 208 283
3 287 286 292
3 287 292 293
3 288 289 294
3 294 289 295
3 294 213 214
3 291 294 214
3 288 294 291
3 291 214 210
3 293 292 296
3 293 296 297
3 294 295 298
3 298 295 299
3 298 216 213
3 298 213 294
3 297 296 217
3 218 297 217
3 300 297 218
3 302 301 221
3 221 301 220
3 222 298 299
3 302 222 299
3 221 222 302
3 298 222 216
3 223 300 218
3 223 303 300
3 301 225 220
3 304 225 301
3 306 305 226
3 306 226 227
3 223 226 303
3 303 226 305
3 309 308 307
3 304 309 307
3 229 304 307
3 225 304 229
3 230 306 227
3 230 310 306
3 307 308 311
3 311 308 312
3 311 231 229
3 311 229 307
3 315 314 313
3 314 310 313
3 310 232 313
3 310 230 232
3 311 312 235
3 312 234 235
3 312 316 234
3 311 235 231
3 315 313 236
3 237 315 236
3 317 315 237
3 236 313 232
3 316 238 234
3 318 238 316
3 320 319 240
3 320 240 241
3 237 240 317
3 317 240 319
3 318 242 238
3 321 242 318
3 243 323 322
3 320 243 322
3 241 243 320
3 323 324 322
3 321 244 242
3 325 244 321
3 246 323 243
3 246 248 323
3 248 324 323
3 248 326 324
3 325 249 244
3 327 249 325
3 330 329 328
3 250 251 328
3 329 250 328
3 331 250 329
3 250 332 252
3 331 332 250
3 332 334 333
3 253 332 333
3 252 332 253
3 336 335 256
3 336 254 335
3 254 336 333
3 326 333 336
3 333 326 253
3 335 253 326
3 326 248 335
3 335 248 256
3 254 253 335
3 338 337 257
3 337 256 257
3 337 336 256
3 338 339 337
3 327 340 249
3 249 340 258
3 342 341 260
3 258 342 260
3 340 342 258
3 262 261 341
3 342 262 341
3 343 262 342
3 328 263 330
3 263 343 330
3 263 262 343
3 263 328 251
3 334 344 333
3 344 346 345
3 344 345 264
3 333 344 264
3 254 333 264
3 345 347 264
3 264 347 257
3 347 348 257
3 348 338 257
3 338 348 339
3 351 350 349
3 353 352 349
3 349 352 351
3 353 354 352
3 357 356 355
3 357 355 350
3 350 355 349
3 355 266 349
3 266 267 349
3 349 267 268
3 349 268 353
3 359 358 269
3 269 358 268
3 358 354 268
3 354 353 268
3 362 361 360
3 271 272 360
3 272 362 360
3 272 363 362
3 273 355 356
3 363 273 356
3 272 273 363
3 355 273 266
3 275 359 269
3 366 365 364
3 366 364 361
3 361 364 360
3 364 278 360
3 278 279 360
3 360 279 271
3 368 367 282
3 368 282 280
3 364 365 285
3 365 284 285
3 365 369 284
3 364 285 278
3 287 368 280
3 287 370 368
3 372 371 290
3 290 371 289
3 290 284 369
3 290 369 372
3 375 374 373
3 374 370 373
3 370 293 373
3 370 287 293
3 371 295 289
3 376 295 371
3 375 373 377
3 375 377 378
3 297 377 293
3 293 377 373
3 381 380 379
3 376 381 379
3 299 376 379
3 295 376 299
3 378 377 382
3 378 382 383
3 300 382 297
3 297 382 377
3 379 380 302
3 380 301 302
3 380 384 301
3 379 302 299
3 383 382 385
3 383 385 386
3 303 385 300
3 300 385 382
3 384 304 301
3 387 304 384
3 390 389 388
3 388 389 386
3 388 386 385
3 306 388 385
3 305 306 385
3 305 385 303
3 391 308 309
3 392 391 309
3 304 392 309
3 387 392 304
3 390 388 393
3 390 393 394
3 310 393 306
3 306 393 388
3 396 395 391
3 395 308 391
3 395 312 308
3 396 391 392
3 394 393 314
3 315 394 314
3 397 394 315
3 314 393 310
3 395 316 312
3 398 316 395
3 401 400 399
3 400 397 399
3 397 317 399
3 397 315 317
3 398 318 316
3 402 318 398
3 319 320 403
3 399 404 401
3 404 399 405
3 399 317 405
3 319 403 405
3 319 405 317
3 402 321 318
3 406 321 402
3 322 403 320
3 322 324 403
3 324 405 403
3 324 407 405
3 406 325 321
3 408 325 406
3 411 410 409
3 413 412 409
3 413 409 410
3 415 414 412
3 415 412 413
3 416 414 415
3 326 418 417
3 407 326 417
3 324 326 407
3 418 419 417
3 421 327 420
3 327 408 420
3 327 325 408
3 422 421 420
3 425 424 423
3 423 424 411
3 423 411 409
3 330 423 409
3 329 330 409
3 329 409 331
3 331 409 412
3 331 412 332
3 332 412 414
3 334 332 414
3 416 334 414
3 426 334 416
3 336 418 326
3 427 419 418
3 336 427 418
3 337 427 336
3 337 339 427
3 427 339 428
3 421 340 327
3 422 429 421
3 429 340 421
3 429 342 340
3 423 343 425
3 343 429 425
3 343 342 429
3 343 423 330
3 426 430 334
3 334 430 344
3 432 431 346
3 344 432 346
3 430 432 344
3 348 347 431
3 432 348 431
3 433 348 432
3 339 348 428
3 428 348 433
3 436 435 434
3 350 351 434
3 351 436 434
3 351 437 436
3 438 351 352
3 438 437 351
3 440 439 354
3 439 352 354
3 439 438 352
3 443 442 441
3 443 441 435
3 435 441 434
3 441 356 434
3 356 357 434
3 434 357 350
3 358 440 354
3 445 444 362
3 362 444 361
3 363 441 442
3 445 363 442
3 362 363 445
3 441 363 356
3 447 446 366
3 366 446 365
3 366 361 444
3 366 444 447
3 449 448 367
3 449 367 368
3 446 369 365
3 450 369 446
3 370 449 368
3 370 451 449
3 453 452 372
3 372 452 371
3 372 369 450
3 372 450 453
3 455 454 374
3 455 374 375
3 370 374 451
3 451 374 454
3 452 376 371
3 456 376 452
3 378 455 375
3 378 457 455
3 459 458 381
3 381 458 380
3 381 376 456
3 381 456 459
3 383 457 378
3 383 460 457
3 458 384 380
3 461 384 458
3 386 460 383
3 386 462 460
3 461 387 384
3 463 387 461
3 465 464 389
3 465 389 390
3 386 389 462
3 462 389 464
3 463 392 387
3 466 392 463
3 469 468 467
3 468 465 467
3 465 394 467
3 465 390 394
3 471 470 396
3 396 470 395
3 396 392 466
3 396 466 471
3 469 467 472
3 469 472 473
3 397 472 394
3 394 472 467
3 470 398 395
3 474 398 470
3 473 472 400
3 401 473 400
3 475 473 401
3 400 472 397
3 474 402 398
3 476 402 474
3 401 404 477
3 478 401 477
3 475 401 478
3 405 477 404
3 476 406 402
3 479 406 476
3 482 481 480
3 484 483 480
3 484 480 481
3 486 485 483
3 486 483 484
3 478 477 487
3 486 488 485
3 405 407 477
3 407 489 477
3 489 487 477
3 489 407 490
3 490 491 489
3 479 408 406
3 492 408 479
3 495 494 493
3 493 494 482
3 493 482 480
3 411 493 480
3 410 411 480
3 410 480 413
3 413 480 483
3 413 483 415
3 415 483 485
3 416 415 485
3 488 416 485
3 496 416 488
3 417 490 407
3 417 419 490
3 419 491 490
3 419 497 491
3 492 498 408
3 408 498 420
3 500 499 422
3 420 500 422
3 498 500 420
3 499 500 495
3 499 495 493
3 425 499 493
3 424 425 493
3 424 493 411
3 502 426 501
3 426 496 501
3 426 416 496
3 503 502 501
3 504 497 419
3 504 419 427
3 427 428 504
3 504 428 505
3 499 429 422
3 429 499 425
3 502 430 426
3 503 506 502
3 506 430 502
3 506 432 430
3 432 507 433
3 506 507 432
3 428 433 505
3 505 433 507
3 510 509 508
3 512 511 508
3 508 511 510
3 512 513 511
3 515 514 436
3 436 514 435
3 437 508 509
3 515 437 509
3 436 437 515
3 508 437 438
3 508 438 512
3 438 439 512
3 439 516 512
3 516 513 512
3 439 517 516
3 519 518 443
3 443 518 442
3 443 435 514
3 443 514 519
3 516 517 520
3 516 520 521
3 523 522 445
3 445 522 444
3 445 442 518
3 445 518 523
3 524 521 520
3 526 525 447
3 447 525 446
3 447 444 522
3 447 522 526
3 528 527 448
3 528 448 449
3 525 450 446
3 529 450 525
3 451 528 449
3 451 530 528
3 532 531 453
3 453 531 452
3 453 450 529
3 453 529 532
3 534 533 454
3 534 454 455
3 451 454 530
3 530 454 533
3 531 456 452
3 535 456 531
3 457 534 455
3 457 536 534
3 538 537 459
3 459 537 458
3 459 456 535
3 459 535 538
3 460 536 457
3 460 539 536
3 537 461 458
3 540 461 537
3 543 542 541
3 542 539 541
3 539 462 541
3 539 460 462
3 540 463 461
3 544 463 540
3 543 541 464
3 465 543 464
3 545 543 465
3 464 541 462
3 544 466 463
3 546 466 544
3 548 547 468
3 548 468 469
3 465 468 545
3 545 468 547
3 549 470 471
3 550 549 471
3 466 550 471
3 546 550 466
3 553 552 551
3 552 548 551
3 548 473 551
3 548 469 473
3 554 474 549
3 549 474 470
3 549 550 555
3 549 555 554
3 553 551 556
3 553 556 557
3 475 556 473
3 473 556 551
3 559 558 554
3 558 474 554
3 558 476 474
3 559 554 555
3 562 561 560
3 560 561 557
3 556 560 557
3 563 560 556
3 478 563 475
3 475 563 556
3 565 479 564
3 479 558 564
3 479 476 558
3 566 565 564
3 568 567 481
3 568 481 482
3 560 484 562
3 484 567 562
3 484 481 567
3 484 560 486
3 486 560 563
3 488 486 569
3 486 563 569
3 478 487 569
3 478 569 563
3 489 570 487
3 487 570 569
3 491 570 489
3 571 492 565
3 565 492 479
3 565 566 572
3 573 565 572
3 571 565 573
3 494 495 573
3 572 494 573
3 574 494 572
3 482 494 568
3 568 494 574
3 575 496 569
3 569 496 488
3 570 577 576
3 575 570 576
3 569 570 575
3 570 491 577
3 491 578 577
3 491 497 578
3 571 498 492
3 498 571 500
3 500 571 573
3 500 573 495
3 575 501 496
3 503 501 575
3 576 503 575
3 579 503 576
3 497 504 580
3 581 497 580
3 578 497 581
3 505 580 504
3 579 582 503
3 503 582 506
3 580 507 581
3 507 582 581
3 507 506 582
3 507 580 505
3 584 583 510
3 510 583 509
3 585 510 511
3 585 584 510
3 511 513 585
3 585 513 586
3 589 588 587
3 514 515 587
3 515 589 587
3 515 590 589
3 515 509 583
3 515 583 590
3 516 586 513
3 516 591 586
3 587 588 519
3 588 518 519
3 588 592 518
3 587 519 514
3 521 591 516
3 521 593 591
3 595 594 523
3 523 594 522
3 523 518 592
3 523 592 595
3 598 597 596
3 599 596 524
3 596 593 524
3 593 521 524
3 593 596 597
3 601 600 526
3 526 600 525
3 526 522 594
3 526 594 601
3 598 596 602
3 598 602 603
3 528 602 527
3 602 599 527
3 602 596 599
3 600 529 525
3 604 529 600
3 603 602 605
3 603 605 606
3 530 605 528
3 528 605 602
3 608 607 532
3 532 607 531
3 532 529 604
3 532 604 608
3 606 605 533
3 534 606 533
3 609 606 534
3 533 605 530
3 607 535 531
3 610 535 607
3 536 609 534
3 536 611 609
3 612 537 538
3 613 612 538
3 535 613 538
3 610 613 535
3 539 611 536
3 539 614 611
3 616 615 612
3 615 537 612
3 615 540 537
3 616 612 613
3 618 617 542
3 618 542 543
3 539 542 614
3 614 542 617
3 615 544 540
3 619 544 615
3 545 618 543
3 545 620 618
3 619 546 544
3 621 546 619
3 623 622 547
3 623 547 548
3 545 547 620
3 620 547 622
3 621 550 546
3 624 550 621
3 626 625 552
3 626 552 553
3 548 552 623
3 623 552 625
3 624 555 550
3 627 555 624
3 630 629 628
3 629 626 628
3 626 557 628
3 626 553 557
3 631 558 559
3 632 631 559
3 555 632 559
3 627 632 555
3 635 634 633
3 633 634 630
3 633 630 628
3 562 633 628
3 561 562 628
3 561 628 557
3 631 564 558
3 566 564 631
3 632 566 631
3 636 566 632
3 639 638 637
3 637 638 635
3 637 635 633
3 568 637 633
3 567 568 633
3 567 633 562
3 636 640 566
3 566 640 572
3 637 574 639
3 574 640 639
3 574 572 640
3 574 637 568
3 642 641 577
3 577 641 576
3 577 578 642
3 642 578 643
3 645 579 644
3 579 641 644
3 579 576 641
3 644 643 645
3 643 581 645
3 643 578 581
3 645 582 579
3 582 645 581
3 646 583 584
3 585 647 584
3 584 647 646
3 586 647 585
3 648 588 589
3 590 649 589
3 589 649 648
3 583 646 590
3 646 649 590
3 646 650 649
3 651 646 647
3 650 646 651
3 591 651 586
3 586 651 647
3 652 592 648
3 648 592 588
3 653 648 649
3 652 648 653
3 654 649 650
3 653 649 654
3 655 650 651
3 654 650 655
3 593 655 591
3 591 655 651
3 657 656 595
3 595 656 594
3 657 595 592
3 658 657 592
3 652 658 592
3 657 658 659
3 660 652 653
3 658 652 660
3 661 653 654
3 660 653 661
3 598 661 597
3 661 655 597
3 661 654 655
3 597 655 593
3 662 600 601
3 663 662 601
3 594 663 601
3 656 663 594
3 659 658 664
3 659 664 665
3 666 658 660
3 664 658 666
3 667 660 661
3 666 660 667
3 603 667 598
3 598 667 661
3 669 668 662
3 668 600 662
3 668 604 600
3 669 662 663
3 665 664 670
3 665 670 671
3 672 664 666
3 670 664 672
3 673 666 667
3 672 666 673
3 606 673 603
3 603 673 667
3 674 607 608
3 675 674 608
3 604 675 608
3 668 675 604
3 676 671 670
3 676 670 672
3 676 672 677
3 679 678 677
3 672 679 677
3 673 679 672
3 609 679 606
3 606 679 673
3 680 610 674
3 674 610 607
3 674 675 681
3 674 681 680
3 684 683 682
3 682 683 678
3 679 682 678
3 685 682 679
3 611 685 609
3 609 685 679
3 687 686 680
3 686 610 680
3 686 613 610
3 687 680 681
3 684 682 688
3 684 688 689
3 690 682 685
3 688 682 690
3 614 690 611
3 611 690 685
3 691 615 616
3 692 691 616
3 613 692 616
3 686 692 613
3 689 688 693
3 689 693 694
3 618 693 617
3 693 690 617
3 693 688 690
3 617 690 614
3 696 695 691
3 695 615 691
3 695 619 615
3 696 691 692
3 699 698 697
3 701 700 697
3 701 697 698
3 700 701 694
3 693 700 694
3 702 700 693
3 620 702 618
3 618 702 693
3 695 621 619
3 703 621 695
3 699 697 704
3 699 704 705
3 706 697 700
3 704 697 706
3 623 706 622
3 706 702 622
3 706 700 702
3 622 702 620
3 703 624 621
3 707 624 703
3 705 704 708
3 705 708 709
3 626 708 625
3 708 706 625
3 708 704 706
3 625 706 623
3 707 627 624
3 710 627 707
3 713 712 711
3 711 712 709
3 711 709 708
3 630 711 708
3 629 630 708
3 629 708 626
3 715 632 714
3 632 710 714
3 632 627 710
3 717 716 715
3 717 715 714
3 716 717 713
3 716 713 711
3 635 716 711
3 634 635 711
3 634 711 630
3 718 636 715
3 715 636 632
3 639 718 638
3 718 716 638
3 718 715 716
3 638 716 635
3 718 640 636
3 640 718 639
3 719 641 642
3 643 719 642
3 719 644 641
3 644 719 643