OFF
697 1376 0
0.9388513456 8.0957664314 8.9082854134
1.1137596830 7.9122795125 7.9910264101
1.2534373741 7.3540269285 8.4582230730
1.2003568578 7.2014624841 9.3509486245
0.9059314548 7.9036773537 10.0322143489
1.1569324347 7.1138075844 10.3637538103
0.9064366587 7.8339305149 11.0529331074
1.1694114700 7.0843418122 11.3656176755
0.9521406162 7.8433503672 12.0124780207
1.2126243396 7.1774981233 12.3433719331
1.0488968370 7.9105972085 12.8459726599
1.2653912695 7.4166120272 13.0949023433
0.8774055412 8.8738536431 7.9254378373
1.0557707873 8.7603279356 6.9233802824
1.1588187531 8.1599231344 7.3304161662
0.7443422485 9.0044839435 8.9762908700
0.7386381243 8.7930660890 9.8183433510
0.7463942826 8.6817982039 10.8126641542
0.7908401120 8.6173798752 11.7596013556
0.9043918453 8.6230275915 12.6237889334
1.1991308695 7.9496828596 13.4362139233
1.0954508503 8.5803109968 13.3630174930
1.3358421597 8.3516278728 13.8537371039
0.9900178215 10.0455794179 5.7713580951
1.1912174045 9.9606355280 4.9830980416
1.2288916589 9.4347406310 5.3281062447
1.1366163540 9.0988956098 6.1074471420
0.8651139750 9.6991180548 6.9296680592
0.7359185302 9.9072896173 7.8899833015
0.7042561007 9.7713092098 8.7074407232
0.6810129086 9.7047295260 9.6619794955
0.6966107986 9.6066642677 10.6360495563
0.7569014236 9.5039150516 11.5997857792
0.8424180091 9.3218454671 12.3604760671
1.0916884865 9.5115376779 13.1784501280
1.3732748494 9.1284785359 13.9165462059
1.1037114888 10.6524047618 5.0334850773
1.3624451221 10.8280984675 4.4391019146
1.3422864589 10.2666805158 4.5088425155
0.9270419462 10.8854159147 5.7833634153
0.8280587246 10.7309747418 6.5863440746
0.7454543937 10.6426130669 7.5400771425
0.7281006737 10.6576631059 8.4623990205
0.7431993682 10.6284675063 9.4323230255
0.7595824797 10.5423981473 10.4392527198
0.8303452423 10.4549367633 11.4266676291
1.0142689194 10.3053631803 12.4434166800
1.4359577265 10.5325262221 13.3388227036
1.4607084806 9.9284624909 13.8286213306
1.2406109708 11.2462482108 4.7983672442
1.0711608840 11.3958045906 5.4183089614
1.3328325887 11.7900734073 5.0596602401
0.9505500132 11.6327322347 6.3491724048
0.8459837522 11.5070809015 7.3235038007
0.8099732547 11.3597549093 8.1247878481
0.9586038461 11.6317475112 9.0833425480
0.9555343986 11.4358120682 10.1736565672
1.0017447577 11.3310071359 11.1463831192
1.1408798565 11.2555021710 12.0374632445
1.4757850517 11.2724503344 12.7975478845
1.2295928844 12.1241364982 5.7798939343
1.1295745537 12.3766254350 6.5195578777
1.0367961788 12.2948159443 7.1835264569
1.2453479943 12.8154264755 6.9887945022
1.0728899068 12.2462766156 8.1611607618
1.4911052873 12.6579482689 9.1461945265
1.3095123536 12.2263242358 9.9336841491
1.3186122342 12.0609459039 10.8183024928
1.3908851484 11.9511227591 11.6890862648
1.5241899177 11.8319674144 12.3510808435
1.2960347693 12.9305789817 7.6922874471
1.4564236247 12.9997321967 8.4052097872
1.9445091383 5.8201161360 9.7969934725
2.1451173442 5.7226014152 8.8510176531
2.5286677184 5.1988211979 9.2255200808
2.5494303545 4.9905109269 10.3458290041
1.9504565857 5.6751300574 11.0512423212
2.4548193968 5.0052806172 11.5851779195
1.9749677824 5.7063286362 12.2179132790
2.5595333573 5.0043310163 12.7886488696
2.0921587302 5.7988258387 13.3084621171
2.6273434219 5.2358563600 13.8555929792
2.3014220375 5.8753127145 14.2196894689
2.7192040972 5.4169464613 14.5353385886
1.9425677622 6.7944033464 6.7300078875
2.2955766515 6.6440310067 6.0439459272
2.2978360597 6.2997116444 6.5915039725
2.2751178396 6.0890644782 7.1797144570
1.8871447464 6.4806187138 7.6173622560
2.1778569251 5.9015267048 8.0716024579
1.6706666984 6.4997759911 8.6686225156
1.4667081210 6.5582545763 9.7653482094
1.5025742066 6.3959662297 10.6765768250
1.5253179553 6.4006280559 11.7558731407
1.5892738586 6.6278313944 12.9231126761
1.8894618292 6.6079441499 13.9370423387
2.6655232007 5.8789682234 14.9844747331
2.2403356665 6.5576684826 14.7372190713
2.5907553898 6.5151547790 15.3192743136
1.8848737189 7.5583730068 5.7553579016
2.3182929648 7.4856484113 4.9081849014
2.2814987357 7.0329656920 5.4900312859
1.6522160690 7.4206413414 6.5835966287
1.4851720802 7.3076560417 7.4645048431
1.5218900551 7.5458252048 13.7946528930
1.9694583004 7.4267475379 14.6043639346
2.4149852817 7.2100282047 15.2739891035
1.9361450399 8.4604355715 4.6064155203
2.2230231751 8.6726772055 3.8444143864
2.3803912870 8.0789358461 4.1576707203
1.4876145284 8.6781550175 5.4379039885
1.3861320714 8.1177464206 6.4852885036
1.7706860271 8.5303892921 14.4734725002
2.3118354745 8.1531340998 15.2016425675
1.9757169928 9.3035800616 3.8630660538
2.3552729605 9.6917151071 3.1539692266
2.2813574232 9.0424009310 3.4945490640
1.5239488743 9.4962393317 4.5945011680
1.8559595324 9.7329249322 14.4357924777
2.3773870422 9.2412268240 15.1083323581
1.7763884883 10.4268260393 3.8597957071
2.3331130059 10.7663060504 3.0076935439
1.8586046904 10.5367962487 14.0063570577
2.1663535301 10.4093368234 14.4854795466
2.3356501837 10.0267315375 14.8360894200
2.0962106109 11.4079291553 3.5105149007
2.4357157340 11.3683598415 2.9753082778
1.6220750076 11.5188153292 4.3550898889
2.4462780836 10.9375764921 14.2163159959
2.0699824405 11.3117400988 13.4826786840
2.5302357852 10.4727510562 14.7118791664
2.6172848126 11.9103872569 3.1870681056
2.1633102809 12.1729165232 4.0272302530
2.6850544684 12.4830915001 3.7219695903
1.7752194445 12.5498209535 5.1659461977
1.4254632728 12.8278270789 6.3001681512
1.6803922342 12.6938183152 9.8118221751
1.7720981577 12.6165666412 10.4203953088
1.8267016390 12.4749386548 11.3155672824
1.8869972542 12.2965793807 12.1207933029
1.9959479293 11.9324707535 12.7873014254
2.5479560841 12.8266231860 4.4737729321
2.4056047464 13.3232878591 5.3587378575
1.8747871318 13.4081694150 6.1577344740
2.3520257366 13.7325882339 5.9178904087
1.5479702871 13.3445849939 7.1429050182
1.6705105648 13.4359348846 8.0565117593
1.9479528423 13.3435971522 8.7648851968
2.3172502354 13.0753820104 9.6634514740
2.4398201737 12.8235927428 10.8246440978
2.4244909867 12.6229582825 11.7704463975
2.4070903730 12.3546193753 12.4746593500
2.1281257070 13.7968952935 6.2867385847
2.6803829514 13.9522700177 6.1812720266
1.7931783100 13.6679170966 6.8540208984
1.7699187756 13.6620085969 7.6603333464
2.1636021159 13.7210274042 8.3365513854
3.0203069006 4.4433524593 11.0876305199
3.1367366726 4.4173509364 10.2414905154
3.6765833706 3.9620528415 10.5856666500
3.5732081450 4.0013296836 11.7038386635
2.9923335209 4.4634130345 12.1191771426
3.5761973928 4.0790198374 12.6953039661
3.0980529131 4.4564445498 12.9212721913
3.5283287417 4.2445430626 13.4051150237
2.7873618127 5.8469698925 6.4625428053
3.1615351723 5.8557645376 5.6877191243
3.5357936917 5.3045914186 6.1032342501
3.4628831873 4.9191166198 7.1687402743
2.7001657955 5.4619360700 7.6257832093
3.0914244379 4.8514790448 8.4045957740
2.5114955388 5.3916270470 8.4463363402
3.0594342658 4.6232677186 9.4762947148
3.1048103201 4.6627006390 13.6342685310
3.3686959997 4.9206544136 14.7113307413
2.9491575785 5.3885576663 14.9188064382
3.2518982570 5.5147735008 15.4166440158
2.7520792483 6.5531343767 5.3465403582
3.3314213176 6.3990806238 4.7490210190
3.1970884737 6.0906042008 5.2628452695
3.0214909886 6.1710037422 15.6858720013
2.8797854151 6.9132557882 15.7925484971
3.3083609765 6.5703978313 16.1861329067
3.2379420994 7.5981980190 3.5212569396
3.3470687520 7.9847788093 3.0195216747
3.7266331214 7.4507909736 3.1818424732
3.7191493821 6.8441658840 3.8637185421
2.8842403714 7.3322933445 4.2543003519
2.7966613345 7.7611910654 15.7603111426
3.3594267701 7.3850942376 16.2691749662
2.7369632280 8.4811260293 3.3478446871
3.3145756366 8.5751282868 2.5711099172
2.7844312843 8.6411251718 15.6513805378
3.2031147234 8.2127498243 16.0289963896
2.9911326934 9.4012114773 2.4530274682
3.4940648873 9.3943780167 1.8821936216
3.3500121281 9.0207423130 2.1924327388
2.8871691325 9.3071289101 15.5464790749
3.2498244460 8.9250845405 15.8543539215
3.3136580957 10.2174334524 1.9306327816
4.0426420012 10.3028291181 1.4817625194
3.8227138316 9.7548279006 1.5240213987
2.7302755641 10.2884783840 2.5215117909
3.1619240833 9.4621774194 15.6075778479
2.9145451088 9.9403569200 15.1591892527
3.6437724855 10.8738504517 1.8466344412
2.9631881917 11.1608819741 2.4638104366
3.8115381557 11.4477178825 2.1729946374
2.6832522786 11.4652452405 13.7870915532
3.0556338743 11.1380736395 14.1832973196
2.9033705111 10.6550113490 14.6432874006
3.3589535629 11.9416355177 2.7488486047
3.0798116016 12.3790356786 3.2799903244
3.6988801599 12.4185196024 3.1775853336
3.0517191904 11.5532991814 13.7555628306
2.8093385039 11.9003631660 13.1781588195
3.3115815909 12.7797875376 3.8900412569
3.2393490133 13.2735463428 4.9233210274
2.9059139307 13.7328103706 5.6788778613
3.4222492684 13.6120063319 5.5280240890
3.3202513768 13.3459052075 9.1666497187
2.7181600876 13.6607280603 8.6966153940
3.3367997851 12.9705015277 10.2446111225
3.1270955086 12.7368299564 11.3587916425
3.0188770488 12.4408378318 12.2811861158
3.2790104299 13.8012728121 5.8341847255
3.2023257602 13.9338016107 6.3339409183
3.0255103186 14.0929825867 6.8089052661
3.0427228303 14.0980639176 7.5708557890
3.2872322958 14.0064383485 7.2138890114
2.7640299856 13.9571130989 8.1968130812
3.1397631816 13.9397490866 8.0032640294
3.8237492088 4.3187362685 7.9850394907
4.2367563509 4.2274460418 7.2734841312
4.2968174104 3.9731477021 7.8255651383
4.2694086931 3.8427581856 8.4524886677
3.6420176221 4.2413447558 8.9209234219
4.1446685913 3.7323190538 9.5519452981
3.5166876465 4.1808068688 9.7456817105
4.3134274369 3.5021800621 10.4636240713
4.2093343355 3.5550635506 11.3455489132
4.2061695259 3.6369051032 12.3979316099
4.3274728968 3.8376953099 13.6080890092
3.7494894064 4.3418540753 14.1375888963
4.4233011211 4.1611708713 14.6466873752
3.9310422631 4.4486572077 14.7112020921
4.2617737747 4.5584458931 15.2289892062
3.6432751584 5.6966910772 5.2792436950
4.3464856532 5.3418179938 5.0218796584
4.1006157540 5.0883124634 5.6712415827
4.1658588205 4.6650884004 6.4055203688
4.0559304220 5.1475427474 15.8243029095
3.6585940150 5.9005842015 16.2265798566
4.2587360184 5.5947809332 16.5313902494
4.0969298451 6.0682557435 16.8407866651
4.6244628089 5.9522292611 16.9127259040
3.9929577956 6.0117360778 4.5231713621
4.5328557947 6.2040783577 3.8783837726
4.5798465999 5.6485213257 4.4265193154
3.7388853575 6.6624523526 16.6841892914
4.3408312575 6.2140124253 17.0806357765
4.0300149656 6.4643567643 17.0043570050
3.9123990041 7.9395512507 2.5484514264
4.6135754083 7.0122615174 2.9748626730
3.8197196856 7.3746655506 16.6964467518
4.0081917174 7.0622093954 16.9622564610
3.7674455885 8.6777308261 2.0427365677
4.3333536004 8.4840683485 1.7212084559
4.1488984088 8.2137732464 2.0719939178
4.1425315177 7.4821648528 16.8508178313
3.8739406792 8.1997199617 16.2709530027
4.3448120411 7.2728775922 17.0363201476
4.0482170699 9.1292876541 1.5592720441
4.5544661409 9.5063704748 1.2545617385
4.5999836350 8.8219702703 1.3643549671
3.5926244229 9.3910035166 15.6016109676
4.1009839802 8.9240822111 15.8239156433
4.1768244954 9.4922435559 15.3388664355
4.9053182855 10.1901825560 1.3007053884
3.5968593038 10.3747467638 14.7714334191
4.2057988774 10.0227145213 14.8582364976
4.2202760383 10.5086563328 14.3486315205
4.4420764282 10.9360818274 1.7194668607
4.4774447866 11.4801229081 2.1471450660
3.6241668486 11.3102593722 13.7890568267
4.2431198855 10.9860891968 13.8306102202
4.2817089610 11.3716746050 13.2749095885
4.3031910495 11.9351836201 2.6852879666
4.3173644567 12.3938106001 3.2717189257
3.8836854495 12.6526129882 10.9786707988
4.6404193358 12.3955141556 10.6122576656
4.1341243034 12.7751474090 10.2160358567
3.7398420978 12.4077202968 11.8903221827
4.3441393732 12.2869950580 11.4623362815
3.6543372960 11.9758176069 12.8117267533
4.4302780132 11.8565630911 12.3181346128
4.0163339100 12.6758722534 3.6530942617
4.1600690060 12.9261246667 4.4354401807
3.6674593978 13.6821024258 6.0346948578
4.0924506004 13.2964563127 5.4731336535
3.7301868255 13.7469516428 6.8595872847
4.2969455923 13.3896968685 6.4838616981
3.6370625115 13.7475664108 7.7459067494
4.2577844337 13.4002060572 7.4917279874
3.3694446586 13.6745808574 8.4370708832
3.9506980832 13.3877126224 8.4357275499
4.1648592243 12.9994063666 9.3640582813
4.9041805444 3.6082525339 7.7211536090
5.4131736739 3.5951493067 7.0209214539
5.7143435950 3.2303292758 7.5230807119
5.7176490482 2.8936481660 8.3435695121
4.8697384947 3.3079316702 8.8741695560
5.4750168167 2.7349927604 9.3964434911
4.8155901363 3.1678330541 9.9276609318
5.3905072203 2.6663262946 10.4243810761
4.8081600702 3.1168619170 10.9333576788
5.4095895277 2.6715032135 11.4752345159
4.8315481006 3.1618326609 11.9716686072
5.5971490411 2.7539542221 12.6220083749
4.9160447601 3.2929267782 12.9991005551
5.5516820035 3.0642836785 13.4704599434
5.1618847627 3.4160069222 13.8009639011
5.8484195862 3.2519833225 14.1648492325
4.9076085717 4.5988935612 5.6471097125
5.4901575598 4.6694486751 5.0001729887
5.8808360516 4.2217377241 5.5495359501
5.5843410442 3.8906048434 6.3326881197
4.8507958624 4.0618902209 6.7039181152
5.2875028797 3.7638292874 14.5948304327
5.0555015897 4.2907840620 15.3542268689
4.7734641376 4.7409322035 15.8431347785
5.5717392699 4.7762308306 16.0151078213
5.0006129592 5.1242288359 4.7368643337
5.1623317803 5.5873865400 4.0972226607
5.6390600508 5.0207537853 4.4290580574
4.8637290032 5.2923233179 16.4277169217
5.1375860681 5.8648065014 16.7458735083
5.3142912881 6.1311541294 3.4528944427
4.6396684803 6.5896550733 17.0747709937
4.9823966475 6.4778638862 16.8962030463
4.6594680391 7.8295853802 2.0533627039
5.2499885794 7.7905899756 1.6503541506
5.5375318522 7.2721372695 2.0800480407
5.7193540317 6.5426511947 2.7924875624
4.6388091762 7.3350909016 16.7814402522
5.1346815455 6.8989255374 16.7157906445
5.2271026742 7.4146769863 16.3277338892
4.5555523912 7.0833075710 17.0867515425
4.9180852040 8.2622792717 1.4933987522
5.2999068172 8.6778562104 1.1799504856
5.4320205253 8.0633069341 1.3447683043
4.6931619554 8.4458348507 15.8867133371
5.2980920368 7.9594759342 15.8936035406
5.3349130519 8.5099982709 15.3903330346
5.5193443776 9.4165881886 1.1160120340
4.7778213103 9.5402195613 14.8847060188
5.3590295852 9.0576871428 14.8812804533
5.3685785295 9.5729223235 14.3511397996
5.8032982076 10.0186881492 1.3088650572
4.8169883900 10.5047113263 13.8578782521
5.3723897874 10.0671754184 13.8250610864
5.3816116514 10.4922776696 13.2966701560
5.3728399076 10.6388195263 1.6193891707
4.7818359784 11.6142140482 2.3933528160
5.1970914667 11.2162155840 2.1986251985
5.1949335132 11.6571373977 2.8296102344
4.8894027066 11.1688336600 12.9563702359
5.3624387869 10.9871222444 12.6455569921
5.0569959043 11.4596230617 12.2772961355
4.6555623454 12.5409684691 3.8551713853
4.9567738820 12.1128174656 3.3631767068
4.9345403902 12.6544172673 4.4924118072
5.5088542324 12.1853584696 4.2683577567
5.3870160100 12.5276752660 4.9460579262
4.6062534265 12.6657949747 9.8464021009
5.1344482223 12.3289733071 9.8050711084
4.8571458181 12.6815111600 9.2478554066
5.3018802514 11.9652134523 10.5105475854
5.0256118032 11.8319698884 11.4496574919
4.8648847444 12.8727576908 5.1547045265
4.9301727340 12.9863293461 6.0782779609
4.9673868054 12.9787504819 7.1304688263
4.7934808776 12.9183041468 8.3374938453
6.1889189364 2.3131278340 9.0161865520
6.5014951638 2.4469062812 8.3867947040
6.8128329971 2.0645462446 8.7762780067
6.7655953807 1.7791732875 9.4984123370
6.0259817091 2.2021302284 9.9354747600
6.5659671198 1.7247551965 10.4967998190
5.9597295455 2.1791168430 10.9462131814
6.5262493295 1.7429208474 11.4686277595
6.0322135033 2.2166789560 11.9414157612
6.6262454401 1.8288438647 12.3444433497
6.2769427910 2.2770047176 12.7556734621
6.9103874732 2.0145334353 13.1508467079
6.0932350296 3.3890360677 6.9597985356
6.5136045386 2.8767729496 7.7112716054
6.3682049759 2.7101277842 13.6216942939
6.5224101724 3.1494193741 14.4102272722
6.1050409607 4.5755801591 4.8107555523
6.8267146390 4.1529341035 5.4106302757
6.4507150058 3.7247943884 6.2736982387
6.2692351890 3.5625869060 14.8340630462
5.9602386437 4.0994828045 15.3906869297
6.4040496184 4.5698975434 15.8093171242
6.0193871351 5.4358666589 3.8034287248
6.1180059829 4.9109638885 4.3178365572
5.5104652434 5.4874232214 16.4691173700
6.2404629475 5.4016157744 16.1637816786
5.9533073240 5.9957162722 3.2370047569
6.4396779955 6.0984692977 2.9065497351
6.3363388279 5.7428665971 3.3169548739
5.5907613785 6.3856825127 16.4860379903
6.3907961957 6.3112773331 16.0520414713
5.7061301612 7.6887166929 1.5206862050
5.9600270800 8.0502314221 1.2517106017
6.2898202131 7.4709799029 1.6059079166
6.5478255229 6.7661239042 2.2169478130
5.8905913567 7.4294885709 15.7934437318
6.6216110679 6.8102864138 15.7042567228
6.6035874503 7.4901851096 15.2462140926
6.1867761387 8.6444618177 1.1127621430
5.9662624980 8.5706283381 14.8153499359
6.7466403184 8.0953734037 14.6566560139
6.4905958279 8.7667130205 14.1992626821
6.5034337979 9.2883487930 1.2335383028
5.9544930092 9.6034915258 13.7389032836
6.7598286721 9.0948500054 13.5287801726
6.4323103686 9.7202615401 13.0325474026
6.6094106764 9.8960087663 1.5854911174
6.0494592129 10.3855993838 1.6362969105
6.5110414119 10.3563423335 1.9692000740
6.1787172420 10.7007833850 11.6873818795
6.7404201027 10.3095549101 11.2311199650
6.3735794773 10.8293086561 10.9516875018
5.9282653016 10.4068074253 12.6745925487
6.6705978237 9.9486620775 12.2143720120
6.0111831884 10.7523733245 2.1183356296
5.7266202328 11.7342886659 3.5982482697
6.1832343661 11.1290187987 3.0554595054
6.0042417574 11.7827746993 4.1540759396
6.4002625916 11.4171028175 4.0693615266
6.2816479176 11.7416829388 4.7173362149
6.1158831113 11.8567943406 8.5889867023
6.6896025225 11.4293655120 8.1063073894
6.2964993662 11.8996129643 7.8028564733
5.8459114675 11.7541284001 9.7353053471
6.6284685711 11.1839720035 9.1409759497
5.8149891661 11.3615858330 10.9433790671
6.3948670251 11.0760646334 10.2117923696
5.5614558208 11.1675893816 11.9606187667
5.5239137851 12.5786218040 5.6914376353
5.9462813639 12.1666575266 5.2293012753
5.6206523880 12.5604094208 6.6508107561
6.1479556802 12.1408895799 6.1539888882
5.6711202357 12.4042369527 7.7876914837
6.2205627383 12.0710357878 7.0769804141
5.4322096570 12.3501056595 8.9133458795
7.2103684609 1.3791451347 10.1932684420
7.3794493640 1.4362047136 9.4967487356
7.8470283273 1.2703759560 9.9678766926
7.6997788596 1.1893563172 10.9035316088
7.0956285442 1.3663554776 11.1223072999
7.6158327272 1.2055634143 11.8055734619
7.0736997552 1.4311043524 12.0031643689
7.5681843325 1.3337689087 12.5701803300
7.1208087882 1.5758426577 12.6680027783
7.4959704523 1.6312992959 13.1422322302
7.3275271790 2.3190925313 8.3142757622
7.3309300767 1.7328083558 8.9571113154
7.4402211311 2.0060067777 13.5505392078
6.9113021571 3.2667442648 7.0393826657
7.2985758776 2.8882699041 7.6468903778
7.1329150275 2.3873952385 13.7640371338
7.1971575967 2.9692294909 14.3697938273
6.8772424575 3.3743948678 14.8124995675
7.2034991245 3.3991621906 14.8795193834
6.7203699320 4.7742756258 4.3554696681
7.4438952006 4.8424139626 4.0990004903
7.5706136187 4.4141465173 4.8820230897
7.6296111337 4.0638280070 5.7311637560
7.3966373005 3.6904061051 6.4840674260
7.0155302989 3.9389252173 15.2525604720
7.0120548284 4.8949301110 15.7400542650
6.9737448791 5.4538636810 3.4356816049
7.7295633845 5.6951084399 3.0301997338
8.0052675314 5.1856056143 3.7110987791
6.9307918428 5.6919299442 15.8949270295
7.1839274023 6.1186020134 2.6531549135
7.5156043508 6.6930968184 2.1580978085
7.9548353771 6.1670105001 2.5616847655
6.9056728358 6.2628202082 15.8034059081
7.2000211983 5.9841479961 15.6822618965
7.2235174077 6.5890910926 15.3129666238
6.7162615936 7.9603534291 1.3068821529
7.1282075225 7.3268860100 1.7147269751
7.1079705852 7.4406810795 14.8817463709
7.0051236841 8.5205826629 1.2541037091
7.2311231168 7.8366637366 14.4421922064
7.0236996666 8.4168496540 14.0764435116
7.3552590337 8.9267997935 1.5286689856
6.9643972694 9.4305933331 1.4616271414
7.3058713034 9.4946550806 1.8417940399
6.8777083071 9.4258439631 12.8694959985
7.2195265880 8.9772408224 13.0589934228
7.2876672571 9.2296380143 12.3773571195
7.2888694615 8.5988078125 13.5143202751
6.7563147007 10.5182970302 2.5926136751
7.1030946985 10.0085683660 2.2176329922
7.0326559992 10.6275695681 3.2905278132
7.5795010947 10.0375144082 3.0917597600
7.4883348983 10.4307013443 3.7886850841
6.9265254887 10.6247113734 9.8244097211
7.3371918979 10.1642561027 9.4512819554
7.1501533890 10.5960909653 9.0757747305
6.7366980496 10.5896590900 10.5476157333
7.2125922807 10.0037459554 10.3638864571
7.2492818114 9.6103729224 11.4251415647
6.9972716176 10.8946655908 3.9543781349
6.5989321791 11.6697657400 5.6399785239
7.0249752733 11.1326230198 4.9512797202
6.7063057128 11.6338294290 6.6244444218
7.2154837761 11.0757901821 6.1301449308
6.6453511322 11.6399346801 7.3947208667
7.1481484514 11.0691313316 7.2892339689
7.1562767443 10.8161652863 8.3212826662
7.7511297303 1.4487501422 9.2598798218
7.8902780275 1.7954509029 8.8751861482
8.1804865683 1.5137681176 9.4749226129
8.3365795350 1.4060866017 10.1403023186
8.2373075855 1.2987059884 10.8333892860
8.1430021094 1.2537912078 11.7121231600
8.0570779405 1.2818750441 12.4968350565
7.9743145232 1.4644786362 13.0960008566
7.8869811664 1.8550964235 13.5409361388
8.2441687474 1.7461214965 13.4018770437
8.0756236629 2.2862660135 8.5968163440
7.6855742287 2.3975370334 13.9310290678
8.2088324015 2.2926784368 13.7283472619
7.5780764670 3.2455184144 7.2893067286
7.9648927682 2.9196926969 8.0427125492
7.9768417196 3.1011481211 14.2996557341
7.5117237215 3.4367297728 14.8126136664
7.9627269036 4.7086494242 4.3729254442
8.1880644619 4.5432060644 4.9178212175
8.1276611946 4.3133234536 5.5782594657
8.0816333655 4.0499313753 6.4392269415
8.0620504862 3.6247587856 7.3348061519
7.8297859754 3.9102594763 14.9089876657
7.5721374695 4.5437421600 15.3390132918
8.0648807587 4.6559471020 14.9312798661
8.5779754528 5.7722963820 3.1444882191
8.7830411714 5.3273254953 3.8074715637
8.5556383155 4.9378503524 4.5083416683
8.4430846904 5.8412745043 8.0597161074
8.5929244705 5.2554191993 7.4264358423
8.6388703179 6.0063430345 7.1662244995
8.3806625564 5.7348889782 8.9543800822
8.5099677141 5.0623663761 8.2527109248
8.4214645468 5.6829525412 9.8095508480
8.5226247877 4.9970448368 9.1841324622
8.5083776075 5.6623037850 10.4573395120
8.5858371525 5.0282199864 10.0589269781
8.6397909655 5.2893564439 10.7758129407
7.5643515390 5.4635031423 15.3980836064
8.1348467301 5.3523522115 14.8041955634
8.1690536454 6.6452229078 2.2796916927
8.5232274736 6.3287322177 2.6024013156
8.3849474615 6.7301183741 7.8958847726
8.6356024935 6.9844824820 7.0497414242
8.2646274738 6.5909352659 8.7944506658
8.2822216043 6.4822301461 9.6809937209
8.4015734877 6.3296702610 10.4514827706
8.5670880332 6.0175742684 11.0615436131
8.1735385291 6.5622719059 14.0380626282
8.5008556291 6.0618161461 13.5656371458
8.3927528688 6.8243333560 13.2542517331
7.8958465939 6.1379961096 14.7781250156
8.3615834401 5.6873657963 14.2115558100
7.4549093020 7.9464475737 1.5116384686
8.0037653263 7.3352793391 2.0137184220
8.3186928262 7.6986114719 7.7869788784
8.5541764158 7.9675555362 6.9874265936
8.1640931142 7.5354280828 8.6847100609
8.1506707169 7.4053745409 9.6358366423
8.2801032604 7.1918230506 10.4775743266
8.4679892306 6.8710979307 11.1445974272
8.0016714839 7.4326636857 13.6187380150
8.2422198486 7.5692086035 12.9628446498
7.6290325541 7.1546679132 14.4746005005
7.5142911552 8.4084344033 1.4559479995
7.9716115893 8.2690110146 1.8998097504
8.2152528328 8.6438482123 7.6639403246
8.4156824941 8.8551722294 6.8760927484
8.0448424266 8.4877555688 8.5540391913
7.9686339884 8.3766535137 9.5685735255
8.0763633283 8.1671976397 10.6751396048
8.3494416253 7.6613911642 11.2623380729
7.7938506268 8.3534817777 12.8787488873
8.2690259296 7.8959349990 12.4887228545
8.1420525752 8.2880127124 12.1215876405
7.5273429850 7.9926355975 13.8737856567
7.7252218426 9.5551852062 2.4843428256
7.8868241537 8.9965487986 2.1377829837
7.9908476621 9.5561950350 2.9522911405
8.2276548627 9.1204523095 2.8154916785
8.2398647525 9.4403021881 3.4363365377
7.9926539959 9.6046734615 7.4873105557
8.2504024830 9.5396999017 6.6149578893
7.9221298386 9.2556662595 8.3209758254
7.6959139393 9.3829918848 9.3441414520
7.6866648628 9.1055638322 10.5252933971
8.1943850154 8.2251034738 11.5458061992
7.8077353689 8.7789326283 11.6681724300
7.6237213053 10.4970037996 4.5450152809
7.9953181639 9.9622650726 4.0244219201
7.7370997567 10.4816700672 5.5322881140
8.1916120239 9.8977877495 4.9329526866
7.7849107191 10.3106184709 6.6702725437
8.2552444235 9.7714952554 5.8673927700
7.5693373104 10.4029516877 7.6739879298
7.5759072841 10.0618703211 8.5386224394
8.3872625390 2.0244384105 9.1931215891
8.5691348102 1.8352784299 9.9642072448
8.6079359094 1.7252673084 10.8129514467
8.5485392626 1.6432981508 11.6992994328
8.4441369892 1.5621179609 12.5042386611
8.3135209690 1.5161745719 13.0182100235
8.4677964230 2.7466449989 8.9095317557
8.7055179464 2.5602909857 9.8096010364
8.8015234731 2.4373437474 10.7488767880
8.7919361617 2.3448292915 11.7041233501
8.6826590623 2.2192719924 12.5958626543
8.4877786395 1.9860098602 13.2076766357
8.4846821156 3.6519214329 8.4559408840
8.7171235945 3.4488041846 9.6273292988
8.8494084003 3.3480132056 10.6689675128
8.8902267128 3.2494494640 11.6759831398
8.8129959989 3.1393427299 12.6470785386
8.5403499914 2.9362305961 13.5431375165
8.5744556693 4.7241364224 5.4372135829
8.4705497756 4.4905025000 6.2215863318
8.4961379203 4.4255802941 7.3728525781
8.5710439450 4.4380760179 8.5439533356
8.6460805788 4.2882568381 9.4182960288
8.7575479587 4.4070817060 10.5563182250
8.8658808391 4.2451463853 11.6081094695
8.8517702898 4.1387259724 12.5854215531
8.6891430721 4.0213838917 13.5252158023
8.3451447207 3.9057845234 14.3256520470
9.0264212861 5.5827093450 3.5324995739
9.2172233385 5.5344352491 3.8660864182
9.1339851486 5.3492319318 4.3895614308
9.0108727790 5.2363388964 5.1721640215
9.2524450070 5.8843174530 5.5305445142
8.7962421355 5.2365046994 6.3312918961
8.7355049166 5.3634196586 11.5875940538
8.8085573842 4.9964774151 12.4102155708
8.6770214635 5.1257984258 13.3813189978
8.4535809217 4.8048105557 14.2766235694
8.6887212481 6.8924293044 2.5070146948
9.0601245720 6.3791018438 2.9464490137
9.3544270633 5.9340379774 3.5404483365
8.9684731233 6.3351613349 6.3231767806
9.3331936340 6.7394058733 5.5976899910
8.6097060493 6.4883060584 11.7972706108
8.6530996890 6.0276358578 12.6733212725
8.7020467843 7.7633130904 2.6259577870
9.3040485180 7.0682247200 3.0579079257
8.9609957736 7.4196583528 6.2101302768
9.2978031582 7.4546260419 5.4922106346
8.5071684619 7.2631586334 11.7321035396
8.4930976651 7.1700933652 12.4328097372
8.3860413671 8.5448735594 2.5425502285
9.2389895604 7.7194754486 3.3357614559
8.7832058946 8.5461492019 3.4421688190
9.0153327468 8.5019471216 4.5850990199
9.3665256147 7.8514042855 4.0495145852
8.9961233431 8.2482996238 5.5708701793
9.3849459453 7.7394453939 4.8802193948
8.7334339129 8.3055323263 6.3601835164
8.3821671304 7.8225997017 11.9451107824
8.5389545464 9.2841511291 4.2854349453
8.6538580356 9.1569210700 5.2406849445
8.5941688796 9.0078842406 6.1044251241
9.4874462635 5.7827145928 4.2473794044
9.3823579152 5.6699370843 4.8393442672
9.5061019271 6.4805799300 3.2617679370
9.6269658395 6.1533239047 3.5952178114
9.6891802319 6.1460864229 4.0956225810
9.8149175141 6.6662636613 4.3285868228
9.6175832652 6.3667370531 4.7885951567
9.6709647830 6.9758243156 3.4515862155
9.6142870575 7.3131424555 3.6863588092
9.6888409912 7.1599722126 4.4073872380
9.8112727805 7.0350137705 3.9619724619
9.5403670919 7.0940325222 5.0644832505
3 2 1 0
3 4 3 0
3 0 3 2
3 6 5 4
3 4 5 3
3 8 7 6
3 6 7 5
3 10 9 8
3 8 9 7
3 10 11 9
3 14 13 12
3 14 12 1
3 12 0 1
3 12 15 0
3 0 16 4
3 0 15 16
3 4 17 6
3 4 16 17
3 6 18 8
3 6 17 18
3 8 19 10
3 8 18 19
3 11 10 20
3 10 21 20
3 10 19 21
3 21 22 20
3 25 24 23
3 27 26 23
3 23 26 25
3 26 27 13
3 27 12 13
3 27 28 12
3 12 29 15
3 12 28 29
3 15 30 16
3 15 29 30
3 16 31 17
3 16 30 31
3 17 32 18
3 17 31 32
3 18 33 19
3 18 32 33
3 19 34 21
3 19 33 34
3 22 21 35
3 35 21 34
3 38 37 36
3 38 36 24
3 36 23 24
3 36 39 23
3 23 40 27
3 23 39 40
3 27 41 28
3 27 40 41
3 28 42 29
3 28 41 42
3 29 43 30
3 29 42 43
3 30 44 31
3 30 43 44
3 31 45 32
3 31 44 45
3 32 46 33
3 32 45 46
3 48 34 47
3 34 46 47
3 34 33 46
3 34 48 35
3 37 49 36
3 51 50 49
3 50 36 49
3 50 39 36
3 39 52 40
3 39 50 52
3 40 53 41
3 40 52 53
3 41 54 42
3 41 53 54
3 42 55 43
3 42 54 55
3 43 56 44
3 43 55 56
3 44 57 45
3 44 56 57
3 45 58 46
3 45 57 58
3 47 46 59
3 59 46 58
3 51 60 50
3 50 60 52
3 52 60 61
3 63 62 61
3 62 52 61
3 62 53 52
3 53 64 54
3 53 62 64
3 66 55 65
3 55 64 65
3 55 54 64
3 55 66 56
3 56 66 67
3 56 67 57
3 57 67 68
3 57 68 58
3 58 68 69
3 58 69 59
3 63 70 62
3 62 70 64
3 64 70 71
3 64 71 65
3 74 73 72
3 76 75 72
3 72 75 74
3 78 77 76
3 76 77 75
3 80 79 78
3 78 79 77
3 82 81 80
3 80 81 79
3 82 83 81
3 86 85 84
3 88 87 84
3 84 87 86
3 90 89 88
3 88 89 87
3 89 90 73
3 90 72 73
3 90 91 72
3 72 92 76
3 72 91 92
3 76 93 78
3 76 92 93
3 78 94 80
3 78 93 94
3 80 95 82
3 80 94 95
3 83 82 96
3 82 97 96
3 82 95 97
3 97 98 96
3 101 100 99
3 101 99 85
3 99 84 85
3 99 102 84
3 84 103 88
3 84 102 103
3 103 1 2
3 90 103 2
3 88 103 90
3 90 2 3
3 90 3 91
3 91 3 5
3 91 5 92
3 92 5 7
3 92 7 93
3 93 7 9
3 93 9 94
3 94 9 11
3 104 94 11
3 95 94 104
3 95 105 97
3 95 104 105
3 98 97 106
3 106 97 105
3 109 108 107
3 109 107 100
3 107 99 100
3 107 110 99
3 99 111 102
3 99 110 111
3 111 13 14
3 103 111 14
3 102 111 103
3 103 14 1
3 20 104 11
3 104 20 22
3 112 104 22
3 105 104 112
3 106 105 113
3 113 105 112
3 116 115 114
3 116 114 108
3 114 107 108
3 114 117 107
3 117 24 25
3 110 117 25
3 107 117 110
3 110 25 26
3 110 26 111
3 111 26 13
3 35 118 112
3 35 112 22
3 113 112 119
3 119 112 118
3 114 115 120
3 120 115 121
3 120 37 38
3 117 120 38
3 114 120 117
3 117 38 24
3 47 122 48
3 118 35 48
3 122 118 48
3 123 118 122
3 119 118 124
3 124 118 123
3 120 121 125
3 125 121 126
3 127 49 37
3 120 127 37
3 125 127 120
3 127 51 49
3 129 128 122
3 47 129 122
3 59 129 47
3 122 128 123
3 123 128 130
3 123 130 124
3 126 131 125
3 133 132 131
3 132 125 131
3 132 127 125
3 134 60 51
3 127 134 51
3 132 134 127
3 135 61 60
3 135 60 134
3 135 63 61
3 65 136 66
3 137 67 66
3 137 66 136
3 138 68 67
3 138 67 137
3 139 69 68
3 139 68 138
3 139 140 69
3 140 59 69
3 140 129 59
3 133 141 132
3 132 141 134
3 134 141 142
3 144 143 142
3 143 134 142
3 143 135 134
3 145 70 63
3 135 145 63
3 143 145 135
3 146 71 70
3 146 70 145
3 146 147 71
3 71 147 65
3 147 148 65
3 148 136 65
3 136 148 137
3 137 148 149
3 137 149 138
3 138 149 150
3 138 150 139
3 139 150 151
3 139 151 140
3 143 144 152
3 152 144 153
3 143 154 145
3 143 152 154
3 145 155 146
3 145 154 155
3 147 146 156
3 156 146 155
3 159 158 157
3 161 160 157
3 157 160 159
3 163 162 161
3 161 162 160
3 163 164 162
3 167 166 165
3 169 168 165
3 165 168 167
3 171 170 169
3 169 170 168
3 73 74 171
3 74 170 171
3 74 172 170
3 75 157 158
3 172 75 158
3 74 75 172
3 157 75 77
3 157 77 161
3 161 77 79
3 161 79 163
3 173 164 163
3 79 173 163
3 81 173 79
3 175 174 83
3 174 81 83
3 174 173 81
3 175 176 174
3 179 178 177
3 179 177 166
3 166 177 165
3 177 85 165
3 85 86 165
3 165 86 87
3 165 87 169
3 169 87 89
3 169 89 171
3 171 89 73
3 96 175 83
3 181 180 98
3 98 180 96
3 180 176 96
3 176 175 96
3 181 182 180
3 185 184 183
3 187 186 183
3 183 186 185
3 186 187 178
3 178 187 177
3 187 100 177
3 100 101 177
3 177 101 85
3 106 188 181
3 106 181 98
3 182 181 189
3 189 181 188
3 183 184 190
3 190 184 191
3 190 108 109
3 187 190 109
3 183 190 187
3 187 109 100
3 113 192 188
3 113 188 106
3 189 188 193
3 193 188 192
3 196 195 194
3 196 194 191
3 191 194 190
3 194 115 190
3 115 116 190
3 190 116 108
3 119 197 192
3 119 192 113
3 193 192 198
3 198 192 197
3 201 200 199
3 201 199 195
3 199 194 195
3 199 202 194
3 202 121 115
3 202 115 194
3 204 203 197
3 119 204 197
3 124 204 119
3 197 203 198
3 200 205 199
3 207 206 205
3 206 199 205
3 206 202 199
3 206 126 121
3 206 121 202
3 129 208 128
3 128 208 209
3 210 128 209
3 130 128 210
3 124 130 204
3 204 130 210
3 207 211 206
3 211 213 212
3 211 212 131
3 206 211 131
3 126 206 131
3 212 133 131
3 215 214 208
3 129 215 208
3 140 215 129
3 208 214 209
3 213 216 212
3 212 216 133
3 216 141 133
3 216 217 141
3 217 219 218
3 142 217 218
3 141 217 142
3 218 144 142
3 221 220 148
3 221 148 147
3 148 222 149
3 220 222 148
3 149 223 150
3 222 223 149
3 150 224 151
3 223 224 150
3 140 151 215
3 215 151 224
3 219 225 218
3 153 144 218
3 226 153 218
3 225 226 218
3 153 226 227
3 229 228 227
3 229 227 226
3 231 230 228
3 231 228 229
3 231 221 230
3 221 156 230
3 221 147 156
3 234 233 232
3 236 235 232
3 232 235 234
3 238 237 236
3 236 237 235
3 158 159 238
3 159 237 238
3 159 239 237
3 240 159 160
3 240 239 159
3 241 160 162
3 241 240 160
3 243 242 164
3 242 162 164
3 242 241 162
3 245 244 243
3 243 244 242
3 245 246 244
3 249 248 247
3 166 167 247
3 167 249 247
3 167 250 249
3 168 232 233
3 250 168 233
3 167 168 250
3 232 168 170
3 232 170 236
3 236 170 172
3 236 172 238
3 238 172 158
3 173 243 164
3 243 173 174
3 243 174 245
3 252 251 176
3 176 251 174
3 251 246 174
3 246 245 174
3 254 253 252
3 252 253 251
3 254 255 253
3 258 257 256
3 258 256 248
3 248 256 247
3 256 178 247
3 178 179 247
3 247 179 166
3 180 252 176
3 252 180 182
3 259 252 182
3 254 252 259
3 255 254 260
3 254 261 260
3 254 259 261
3 263 262 185
3 185 262 184
3 186 256 257
3 263 186 257
3 185 186 263
3 256 186 178
3 189 264 259
3 189 259 182
3 259 265 261
3 259 264 265
3 268 267 266
3 262 268 266
3 191 262 266
3 184 262 191
3 270 269 264
3 189 270 264
3 193 270 189
3 264 269 265
3 265 269 271
3 274 273 272
3 274 272 267
3 267 272 266
3 272 195 266
3 195 196 266
3 266 196 191
3 277 276 275
3 276 270 275
3 270 198 275
3 270 193 198
3 272 273 201
3 273 200 201
3 273 278 200
3 272 201 195
3 281 280 279
3 279 280 277
3 279 277 275
3 204 279 275
3 203 204 275
3 203 275 198
3 278 282 200
3 200 282 205
3 207 205 282
3 207 282 283
3 286 285 284
3 284 285 281
3 284 281 279
3 209 284 279
3 210 209 279
3 210 279 204
3 283 287 207
3 207 287 211
3 213 211 287
3 213 287 288
3 291 290 289
3 293 292 289
3 293 289 290
3 295 294 292
3 295 292 293
3 294 295 286
3 294 286 284
3 215 294 284
3 214 215 284
3 214 284 209
3 288 296 213
3 213 296 216
3 216 297 217
3 296 297 216
3 299 298 219
3 217 299 219
3 297 299 217
3 301 300 298
3 301 298 299
3 303 302 300
3 303 300 301
3 305 304 302
3 305 302 303
3 220 221 304
3 305 220 304
3 306 220 305
3 289 222 291
3 222 306 291
3 222 220 306
3 222 289 223
3 223 289 292
3 223 292 224
3 224 292 294
3 224 294 215
3 298 225 219
3 225 298 226
3 226 298 300
3 226 300 229
3 229 300 302
3 229 302 231
3 231 302 304
3 231 304 221
3 309 308 307
3 311 310 307
3 307 310 309
3 313 312 311
3 311 312 310
3 315 314 313
3 313 314 312
3 317 316 315
3 315 316 314
3 319 318 317
3 317 318 316
3 321 320 319
3 319 320 318
3 321 322 320
3 325 324 323
3 327 326 323
3 323 326 325
3 326 327 308
3 308 327 307
3 327 233 307
3 233 234 307
3 307 234 235
3 307 235 311
3 311 235 237
3 311 237 313
3 313 237 239
3 313 239 315
3 315 239 240
3 315 240 317
3 317 240 241
3 317 241 319
3 319 241 242
3 319 242 321
3 328 322 321
3 242 328 321
3 244 328 242
3 330 329 246
3 329 244 246
3 329 328 244
3 330 331 329
3 334 333 332
3 334 332 324
3 324 332 323
3 332 248 323
3 248 249 323
3 323 249 250
3 323 250 327
3 327 250 233
3 251 330 246
3 335 331 330
3 251 335 330
3 253 335 251
3 253 255 335
3 335 255 336
3 332 333 258
3 333 257 258
3 333 337 257
3 332 258 248
3 255 260 338
3 339 255 338
3 336 255 339
3 342 341 340
3 262 263 340
3 263 342 340
3 263 343 342
3 263 257 337
3 263 337 343
3 346 345 344
3 344 345 339
3 338 344 339
3 347 344 338
3 350 349 348
3 350 348 341
3 341 348 340
3 348 267 340
3 267 268 340
3 340 268 262
3 353 352 351
3 351 352 346
3 351 346 344
3 270 351 344
3 269 270 344
3 269 344 271
3 271 344 347
3 348 349 274
3 349 273 274
3 349 354 273
3 348 274 267
3 357 356 355
3 355 356 353
3 355 353 351
3 277 355 351
3 276 277 351
3 276 351 270
3 354 278 273
3 358 278 354
3 361 360 359
3 359 360 357
3 359 357 355
3 281 359 355
3 280 281 355
3 280 355 277
3 358 362 278
3 278 362 282
3 364 363 283
3 282 364 283
3 362 364 282
3 365 363 364
3 368 367 366
3 366 367 361
3 366 361 359
3 286 366 359
3 285 286 359
3 285 359 281
3 363 287 283
3 370 369 288
3 370 288 287
3 365 370 287
3 363 365 287
3 372 371 369
3 372 369 370
3 373 371 372
3 376 375 374
3 290 291 374
3 375 290 374
3 377 290 375
3 290 378 293
3 377 378 290
3 366 295 368
3 295 378 368
3 295 293 378
3 295 366 286
3 369 296 288
3 296 369 297
3 297 369 371
3 373 379 371
3 379 297 371
3 379 299 297
3 299 380 301
3 379 380 299
3 301 381 303
3 380 381 301
3 303 382 305
3 381 382 303
3 374 306 376
3 306 382 376
3 306 305 382
3 306 374 291
3 385 384 383
3 387 386 383
3 383 386 385
3 389 388 387
3 387 388 386
3 391 390 389
3 389 390 388
3 393 392 391
3 391 392 390
3 393 394 392
3 396 395 309
3 309 395 308
3 310 383 384
3 396 310 384
3 309 310 396
3 383 310 312
3 383 312 387
3 387 312 314
3 387 314 389
3 389 314 316
3 389 316 391
3 391 316 318
3 391 318 393
3 397 394 393
3 318 397 393
3 320 397 318
3 320 322 397
3 397 322 398
3 400 399 325
3 325 399 324
3 401 325 326
3 401 400 325
3 326 308 395
3 326 395 401
3 402 398 322
3 402 322 328
3 403 328 329
3 403 402 328
3 329 331 403
3 403 331 404
3 406 405 334
3 334 405 333
3 334 324 399
3 334 399 406
3 331 335 407
3 408 331 407
3 404 331 408
3 336 407 335
3 411 410 409
3 405 411 409
3 337 405 409
3 333 405 337
3 408 407 412
3 408 412 413
3 339 412 336
3 336 412 407
3 416 415 414
3 341 342 414
3 342 416 414
3 342 417 416
3 343 409 410
3 417 343 410
3 342 343 417
3 409 343 337
3 420 419 418
3 418 419 413
3 418 413 412
3 346 418 412
3 345 346 412
3 345 412 339
3 414 415 350
3 415 349 350
3 415 421 349
3 414 350 341
3 424 423 422
3 422 423 420
3 422 420 418
3 353 422 418
3 352 353 418
3 352 418 346
3 421 354 349
3 425 354 421
3 428 427 426
3 426 427 424
3 426 424 422
3 357 426 422
3 356 357 422
3 356 422 353
3 430 358 429
3 358 425 429
3 358 354 425
3 431 430 429
3 434 433 432
3 436 435 432
3 436 432 433
3 435 436 428
3 435 428 426
3 361 435 426
3 360 361 426
3 360 426 357
3 430 362 358
3 431 437 430
3 437 362 430
3 437 364 362
3 439 438 365
3 364 439 365
3 437 439 364
3 441 440 438
3 441 438 439
3 442 440 441
3 445 444 443
3 447 446 443
3 447 443 444
3 449 448 446
3 449 446 447
3 448 449 434
3 432 448 434
3 450 448 432
3 368 450 367
3 450 435 367
3 450 432 435
3 367 435 361
3 438 370 365
3 370 438 372
3 372 438 440
3 452 451 373
3 452 373 372
3 442 452 372
3 440 442 372
3 454 453 451
3 454 451 452
3 456 455 453
3 456 453 454
3 455 456 445
3 443 455 445
3 457 455 443
3 376 457 375
3 457 446 375
3 457 443 446
3 375 446 377
3 377 446 448
3 377 448 378
3 378 448 450
3 378 450 368
3 451 379 373
3 379 451 380
3 380 451 453
3 380 453 381
3 381 453 455
3 381 455 382
3 382 455 457
3 382 457 376
3 460 459 458
3 462 461 458
3 458 461 460
3 464 463 462
3 462 463 461
3 466 465 464
3 464 465 463
3 466 467 465
3 469 468 385
3 385 468 384
3 386 458 459
3 469 386 459
3 385 386 469
3 458 386 388
3 458 388 462
3 462 388 390
3 462 390 464
3 464 390 392
3 464 392 466
3 392 394 466
3 394 467 466
3 394 470 467
3 472 471 396
3 396 471 395
3 396 384 468
3 396 468 472
3 473 470 394
3 473 394 397
3 475 474 398
3 474 397 398
3 474 473 397
3 475 476 474
3 479 478 477
3 399 400 477
3 400 479 477
3 400 480 479
3 481 400 401
3 481 480 400
3 401 395 471
3 401 471 481
3 402 475 398
3 482 476 475
3 402 482 475
3 403 482 402
3 403 404 482
3 482 404 483
3 486 485 484
3 486 484 478
3 478 484 477
3 484 405 477
3 405 406 477
3 477 406 399
3 408 483 404
3 408 487 483
3 490 489 488
3 490 488 485
3 485 488 484
3 488 410 484
3 410 411 484
3 484 411 405
3 493 492 491
3 492 487 491
3 487 413 491
3 487 408 413
3 495 494 416
3 416 494 415
3 417 488 489
3 495 417 489
3 416 417 495
3 488 417 410
3 493 491 419
3 420 493 419
3 496 493 420
3 419 491 413
3 494 421 415
3 497 421 494
3 499 498 423
3 499 423 424
3 420 423 496
3 496 423 498
3 501 425 500
3 425 497 500
3 425 421 497
3 502 501 500
3 505 504 503
3 427 428 503
3 504 427 503
3 506 427 504
3 424 427 499
3 499 427 506
3 501 429 425
3 508 507 431
3 508 431 429
3 502 508 429
3 501 502 429
3 510 509 507
3 510 507 508
3 511 509 510
3 514 513 512
3 516 515 512
3 516 512 513
3 433 434 515
3 516 433 515
3 517 433 516
3 503 436 505
3 436 517 505
3 436 433 517
3 436 503 428
3 507 437 431
3 437 507 439
3 439 507 509
3 511 518 509
3 518 439 509
3 518 441 439
3 520 519 442
3 441 520 442
3 518 520 441
3 522 521 519
3 522 519 520
3 524 523 521
3 524 521 522
3 444 445 523
3 524 444 523
3 525 444 524
3 512 447 514
3 447 525 514
3 447 444 525
3 447 512 449
3 449 512 515
3 449 515 434
3 519 452 442
3 452 519 454
3 454 519 521
3 454 521 456
3 456 521 523
3 456 523 445
3 528 527 526
3 459 460 526
3 460 528 526
3 460 529 528
3 530 460 461
3 530 529 460
3 531 461 463
3 531 530 461
3 532 463 465
3 532 531 463
3 534 533 467
3 533 465 467
3 533 532 465
3 534 535 533
3 526 527 469
3 527 468 469
3 527 536 468
3 526 469 459
3 470 537 534
3 470 534 467
3 535 534 538
3 538 534 537
3 539 471 472
3 540 539 472
3 468 540 472
3 536 540 468
3 473 537 470
3 473 474 537
3 474 541 537
3 541 538 537
3 474 542 541
3 476 542 474
3 543 478 479
3 543 479 544
3 479 545 544
3 479 480 545
3 546 480 481
3 546 545 480
3 481 471 539
3 547 481 539
3 546 481 547
3 547 539 540
3 548 541 542
3 550 548 549
3 549 548 482
3 548 542 482
3 542 476 482
3 483 549 482
3 552 551 486
3 486 551 485
3 486 478 543
3 553 486 543
3 552 486 553
3 553 543 544
3 556 555 554
3 558 557 554
3 558 554 555
3 560 559 557
3 560 557 558
3 562 561 559
3 562 559 560
3 563 561 562
3 550 549 564
3 550 564 565
3 487 564 483
3 483 564 549
3 567 566 490
3 490 566 489
3 490 485 551
3 490 551 567
3 556 554 568
3 556 568 569
3 570 554 557
3 568 554 570
3 571 557 559
3 570 557 571
3 572 559 561
3 571 559 572
3 561 563 573
3 561 573 572
3 576 575 574
3 578 577 574
3 578 574 575
3 577 578 565
3 577 565 564
3 493 577 564
3 492 493 564
3 492 564 487
3 579 494 495
3 580 579 495
3 489 580 495
3 566 580 489
3 569 568 581
3 569 581 582
3 583 568 570
3 581 568 583
3 584 570 571
3 583 570 584
3 585 571 572
3 584 571 585
3 572 573 586
3 572 586 585
3 576 574 587
3 576 587 588
3 589 574 577
3 587 574 589
3 496 589 493
3 493 589 577
3 590 497 579
3 579 497 494
3 579 580 591
3 579 591 590
3 582 581 592
3 582 592 593
3 594 581 583
3 592 581 594
3 595 583 584
3 594 583 595
3 596 584 585
3 595 584 596
3 585 586 597
3 585 597 596
3 600 599 598
3 598 599 588
3 587 598 588
3 601 598 587
3 499 601 498
3 601 589 498
3 601 587 589
3 498 589 496
3 590 500 497
3 603 602 502
3 603 502 500
3 591 603 500
3 590 591 500
3 605 604 602
3 605 602 603
3 606 604 605
3 593 592 607
3 593 607 608
3 609 592 594
3 607 592 609
3 610 594 595
3 609 594 610
3 611 595 596
3 610 595 611
3 596 597 612
3 613 596 612
3 611 596 613
3 613 612 600
3 613 600 598
3 505 613 598
3 504 505 598
3 504 598 506
3 506 598 601
3 506 601 499
3 602 508 502
3 508 602 510
3 510 602 604
3 615 614 511
3 615 511 510
3 606 615 510
3 604 606 510
3 617 616 614
3 617 614 615
3 619 618 616
3 619 616 617
3 618 619 608
3 607 618 608
3 620 618 607
3 621 607 609
3 620 607 621
3 514 621 513
3 621 610 513
3 621 609 610
3 513 610 516
3 516 610 611
3 516 611 517
3 517 611 613
3 517 613 505
3 614 518 511
3 518 614 520
3 520 614 616
3 520 616 522
3 522 616 618
3 522 618 524
3 524 618 620
3 524 620 525
3 525 620 621
3 525 621 514
3 622 527 528
3 529 623 528
3 528 623 622
3 530 624 529
3 529 624 623
3 531 625 530
3 530 625 624
3 532 626 531
3 531 626 625
3 533 627 532
3 532 627 626
3 535 627 533
3 628 536 622
3 622 536 527
3 629 622 623
3 628 622 629
3 630 623 624
3 629 623 630
3 631 624 625
3 630 624 631
3 632 625 626
3 631 625 632
3 633 626 627
3 632 626 633
3 538 633 535
3 535 633 627
3 634 540 628
3 628 540 536
3 635 628 629
3 634 628 635
3 636 629 630
3 635 629 636
3 637 630 631
3 636 630 637
3 638 631 632
3 637 631 638
3 639 632 633
3 638 632 639
3 541 639 538
3 538 639 633
3 640 544 545
3 546 641 545
3 545 641 640
3 547 642 546
3 546 642 641
3 540 634 547
3 634 642 547
3 634 643 642
3 644 634 635
3 643 634 644
3 645 635 636
3 644 635 645
3 646 636 637
3 645 636 646
3 647 637 638
3 646 637 647
3 648 638 639
3 647 638 648
3 548 649 541
3 649 639 541
3 649 648 639
3 550 649 548
3 650 551 552
3 650 552 651
3 552 652 651
3 552 553 652
3 553 544 640
3 653 553 640
3 652 553 653
3 655 654 653
3 640 655 653
3 641 655 640
3 556 655 555
3 655 642 555
3 655 641 642
3 555 642 558
3 558 642 643
3 558 643 560
3 560 643 644
3 560 644 562
3 562 644 645
3 562 645 563
3 645 656 563
3 645 646 656
3 657 646 647
3 656 646 657
3 658 647 648
3 657 647 658
3 659 648 649
3 658 648 659
3 565 659 550
3 550 659 649
3 660 566 567
3 661 660 567
3 661 567 551
3 662 661 551
3 650 662 551
3 662 650 651
3 654 655 663
3 654 663 664
3 569 663 556
3 556 663 655
3 665 573 656
3 656 573 563
3 666 656 657
3 665 656 666
3 576 666 575
3 666 658 575
3 666 657 658
3 575 658 578
3 578 658 659
3 578 659 565
3 667 580 660
3 660 580 566
3 660 661 668
3 660 668 667
3 664 663 669
3 664 669 670
3 582 669 569
3 569 669 663
3 671 586 665
3 665 586 573
3 672 665 666
3 671 665 672
3 588 672 576
3 576 672 666
3 673 591 667
3 667 591 580
3 667 668 674
3 675 667 674
3 673 667 675
3 677 676 675
3 677 675 674
3 679 678 676
3 679 676 677
3 678 679 670
3 669 678 670
3 680 678 669
3 593 680 582
3 582 680 669
3 681 597 671
3 671 597 586
3 600 681 599
3 681 672 599
3 681 671 672
3 599 672 588
3 673 603 591
3 603 673 605
3 605 673 675
3 605 675 606
3 675 682 606
3 675 676 682
3 683 676 678
3 682 676 683
3 684 678 680
3 683 678 684
3 608 684 593
3 593 684 680
3 681 612 597
3 612 681 600
3 682 615 606
3 615 682 617
3 617 682 683
3 617 683 619
3 619 683 684
3 619 684 608
3 685 651 652
3 653 686 652
3 652 686 685
3 654 686 653
3 688 687 662
3 662 687 661
3 662 651 685
3 689 662 685
3 688 662 689
3 691 690 689
3 685 691 689
3 686 691 685
3 664 691 654
3 654 691 686
3 693 668 692
3 668 687 692
3 668 661 687
3 695 694 693
3 695 693 692
3 694 695 690
3 691 694 690
3 696 694 691
3 670 696 664
3 664 696 691
3 693 674 668
3 674 693 677
3 677 693 694
3 677 694 679
3 679 694 696
3 679 696 670