OFF
615 1182 0
1.0761374224 6.9181688737 4.6457356812
1.2467197125 6.7264757292 3.8836682052
1.2806630308 6.3306537977 4.2582138610
1.2276044044 6.1595842807 5.0646597821
0.9805997315 6.8308992747 5.7681246792
1.2293711342 6.0368120124 6.1166590732
0.9779190652 6.7946334229 6.8684979982
1.3345529683 5.9917908784 7.2421689220
1.0661736950 6.8027849293 7.9527271183
1.5927128909 5.9950591249 8.5032719036
1.1743214879 6.9065610344 8.8875511596
1.4994568828 6.5191801376 9.3231439559
1.2203022783 7.2350017901 3.8414609552
1.4124681748 7.2828272963 3.3592498423
1.3884218462 6.9214136914 3.4245507301
1.0906705374 7.7073043584 4.5059111714
0.9157055549 7.6499116716 5.4819599103
0.8261309549 7.6640794015 6.5839553586
0.8212261899 7.6593680862 7.6728281601
0.9102602855 7.6470800558 8.6523894708
1.3018287937 7.0335732408 9.5481197503
1.0817721884 7.6015208057 9.4440889882
1.3325397136 7.4705038727 10.0177638935
1.4824870905 7.8990875647 3.6073456938
1.1945798461 8.3075525577 4.4922335442
1.0098248021 8.3407166402 5.2268963317
1.1787317758 8.8120045746 4.9769480189
0.8704643745 8.6176392530 6.3224728078
0.7624772526 8.6216009111 7.5008298648
0.7838695512 8.5781440346 8.5712012164
0.9324886960 8.4390897153 9.4582034558
1.1905991397 8.2044959776 10.1635167145
1.0632843925 9.0672806335 5.7041662018
0.9698925018 9.4386407211 6.4371753040
0.8424389411 9.6960449774 7.3559515093
1.0291114404 10.1760090808 6.6897023530
0.7672225748 9.6118916678 8.5159944152
0.8629864538 9.5140839631 9.6329522631
1.0628629422 9.0718282870 10.2856513312
0.9403148364 10.8133565355 7.4724880941
1.1278938790 11.0359136907 6.6864691204
0.8332814258 10.6681418085 8.4352419156
0.8413866382 10.5684558215 9.5162309887
1.0156121534 9.7746288525 10.5107766259
0.9544616021 10.4232526131 10.4501361428
1.1454364316 10.1933109448 11.1126002675
1.1141571936 10.9204407312 11.1953538355
1.3113416502 10.6065628108 11.6788527467
1.0751783678 11.6835641180 7.2832551895
1.2132883232 11.7234996637 6.6031340750
0.9705389387 11.6296126836 8.2276999518
0.9479901598 11.6580991944 9.3936354193
1.0056205910 11.4063028261 10.5123982325
1.1917162215 11.5636396026 11.3530315425
1.3214786583 11.2004464381 11.7681250872
1.2798404026 12.3283840019 6.8236474264
1.4714608666 12.4258004154 6.2570959819
1.3872581354 12.0586532588 6.2276641559
1.1992695063 12.4944169095 7.7936579971
1.3621585905 12.7833931585 7.1493510526
1.1150077536 12.4357905132 8.9020967022
1.1098383142 12.4929248051 9.7050793997
1.1021384203 12.2842508402 10.3173185670
1.2490082553 12.8968457613 10.2318924415
1.2424545712 12.2142257266 11.1179453539
1.6460379073 12.8872673089 6.4997204753
1.3156839412 12.8460271628 10.8004964949
1.9825252186 4.7986683303 4.6522247641
2.3572139705 4.5047699984 3.8932701383
2.3507478221 4.2112500063 4.5336436310
2.4152820707 4.0578747997 5.2275399118
2.0067416606 4.6366648470 5.8116742994
2.6506674790 3.8866943295 6.4168780892
2.1149159384 4.6201441565 6.8416787950
2.5368901845 4.2114978819 7.2351909999
1.9667714593 5.3903457237 3.5457682678
2.2424588700 5.4937863967 2.7735069435
2.3852634958 4.9371132952 3.1239709393
1.5509984966 5.6954733934 4.3720727950
1.5573284119 5.3943018277 5.3930455294
1.6325263497 5.2856536010 6.4861771108
2.3164912309 4.6025447316 7.6042633721
1.8766094739 5.2130350173 7.6339592082
2.5215900307 4.7688975488 8.4630919721
2.0098631598 5.3282733483 8.4100087640
2.2536984110 5.3802526715 9.0784817156
2.0007568168 6.1195792985 2.7953602818
2.3270791294 6.5477119756 2.1867614592
2.3887305145 5.8622755193 2.3011431996
1.5560832949 6.3087474600 3.5331170195
2.0051706674 6.0034379938 9.6146640290
1.7266972419 6.8066685609 10.1489541165
2.5681387129 6.0583133543 10.7024656176
2.1317693364 6.9638429032 11.0952287088
2.6162156833 6.5249983136 11.4108788682
1.7915764998 7.0413010485 2.8717351270
2.2739905453 7.1659944530 2.2294696458
1.6152701547 7.8082480469 10.8426322845
2.4394045303 7.0106810505 11.6917601428
2.1352900706 7.7501242106 11.8188388934
2.7255801355 7.2453330580 12.2508722610
2.2833642797 7.9421437890 2.5054845353
1.8497705810 8.8244664713 3.4507847277
2.3582816072 8.9756102560 2.7973883637
1.4231059403 8.8393134928 4.3125375978
1.3495138772 8.8579379102 10.9456052736
1.7216487215 8.7282389712 11.7178091386
2.4949193463 7.9472799781 12.5566777407
2.1016787625 8.6355279647 12.4446498479
2.3926346043 8.5410824443 12.8694350850
2.1178479123 9.6152966829 3.4558831654
2.4516603874 9.5160223066 2.9558501062
1.6893472691 9.6561877443 4.2832704964
1.3199794612 9.5669715002 5.2094409666
1.1268049517 9.7197613784 6.0269996955
1.1879551084 9.5499641319 10.9281512309
1.4433928956 9.7766556972 11.6439776403
1.8338382536 9.5704673426 12.4114625163
2.1496136189 9.2449693510 12.9093625995
2.6251240943 10.1099130433 3.2289668606
2.0460540313 10.5647738282 4.2077884226
2.7343613944 11.0605404862 3.7982136813
1.5604456471 10.4905438071 5.1238329169
1.2567377214 10.3978724202 5.9721158195
1.6663169492 10.8852882787 12.3744532901
1.9779941887 10.0893748649 12.9231638715
2.1751737450 11.5825616401 4.5983769685
2.7459899032 11.9114965319 4.3277490954
1.7608769477 11.2809099024 5.0751484936
1.4148913263 11.3508048365 5.9088660100
1.5016000786 11.9499892799 11.9386385850
1.7696608767 11.8903960915 12.4916298459
1.9411280883 10.8123938439 12.9286208451
2.0698451210 11.9598436704 12.8447349348
2.2845928344 12.2207667014 4.8340000951
1.8117083288 12.2175915243 5.5479471412
2.2472703960 12.5798260783 5.1489551981
1.5466775829 13.3259393115 7.5556894234
1.3696163499 13.2061796369 8.6400611680
1.3059815362 13.1008965778 9.6109820549
1.6083895477 13.0296366511 11.5596645151
1.9892773022 12.7264152978 12.4799415209
2.4851547655 12.7784562351 13.0092210558
2.7845824460 12.6272898479 13.2062378856
2.3905394735 13.0942803743 5.6270274457
2.0785608603 13.7359637926 6.7463096093
2.6230720805 13.7834570811 6.0801970003
1.8579772825 14.0598084369 7.6857269697
1.6574833172 13.9591633789 8.4812955542
1.5701207917 13.8584566206 9.4781819383
1.5649361098 13.6113612911 10.6260347569
1.7991274435 13.7765993646 11.4736052863
2.1416465470 13.8159349791 12.1338132104
2.6785064492 13.5114278593 12.8373620457
2.6648351944 14.2509227774 6.6547792718
2.2608785011 14.4423185736 7.3836430686
2.8526321201 14.7313652196 7.2254495858
2.0262559764 14.6308523223 8.3065811267
1.8008024996 14.4650567707 9.1646585542
1.8666878314 14.5777450641 10.2153527722
2.0420900777 14.4290016944 11.3785723763
2.5623557443 14.6194316692 12.1854196375
2.6396332771 14.2127939579 12.5746237553
2.4803466784 14.8947695808 7.8037964372
2.4394767754 15.1350239066 8.3367395873
2.0578880030 14.9595948087 9.2013856209
2.4026488365 15.2549756248 8.6089436240
2.0549779070 15.0735063072 10.3873215193
2.1595812987 15.0337706663 11.0438373275
2.4297093029 14.9698718794 11.6691678837
2.8477812268 3.6827422655 4.4660628620
3.4139284120 3.3435845997 3.7938119979
3.3652490498 3.1121339638 4.4486908455
3.4287740489 2.9745926298 5.1258635221
2.9728548791 3.4138885681 5.6206685445
3.7055143537 2.8345492010 6.2407661539
3.1259528562 3.3215443999 6.3040908425
3.3959402203 3.2975218266 6.9604239550
3.2475010452 4.4498353565 2.2523681484
3.4859967654 4.5765047540 1.7033731119
3.8340601617 4.1324028443 1.9312779284
3.7128808258 3.6474836312 2.7873232906
2.8992331460 4.2217253982 3.2175068536
3.0715731886 3.7768836724 7.4774610563
2.7882852402 4.2330649128 7.9470404357
3.5400669951 3.8069633894 8.4998850808
3.0008085353 4.2741289422 8.4930082046
3.2941480340 4.3192216298 9.0893473896
3.1966212885 5.0502164883 1.7280160120
3.5745905368 5.3900736182 1.2959745481
3.5881375598 4.8502734586 1.4074225560
2.7003093190 5.1364729678 2.3924100237
2.9691611519 4.8564260701 9.5152568340
2.6867722334 5.4224093093 10.0001550922
3.5343150872 4.9328713341 10.4994754812
3.0069522125 5.4464413680 10.5814045218
3.3721434109 5.4882677876 11.0860540166
2.9074190456 5.9089895953 1.7477896558
3.6243258822 6.2210129105 1.2324837536
3.3452524580 6.0620557655 11.6984586513
2.8443414230 6.6841978814 11.8806796667
3.3039740794 6.6855731940 12.3153020685
2.8732188566 7.0035822306 1.7440889378
3.8096189716 7.1122059163 1.2617918401
3.1828439226 7.1358857440 12.6311799467
3.1914337010 7.8950441764 1.7525418818
2.8116036216 8.5751246136 2.2219385657
3.5161853437 8.6429838859 1.8933735663
2.8929705779 7.5351190194 12.6989884744
2.8364430163 7.9299979570 12.9238805600
2.3983653572 8.8637989387 13.0658277808
2.9465380564 9.3271540716 2.5183650058
3.8638060333 9.3439291376 2.1943942376
2.1654791224 9.6377105187 13.1266017969
3.3917533465 10.0062031300 2.7445622552
3.1290326667 10.5627028859 3.2040660265
3.7817186697 10.5493561402 3.0402686862
2.0498636706 10.2168033007 13.1190252345
3.4155882202 10.9763861482 3.4377242875
3.4173040872 11.5392167051 3.8676576813
2.7133230150 12.5640221900 4.8252620151
3.4593868552 12.2780816547 4.3858950276
3.6144019807 12.7785268641 13.3807288269
3.1551618720 13.0377748681 13.2235590812
3.4389986738 13.0049504305 5.0426873950
3.0047729260 13.5561774791 5.5999137691
3.5449713095 13.6094104563 5.5347821116
3.4575060016 13.5424580413 13.0985587890
3.2757077423 14.0235606835 6.0834561241
3.2785138860 14.4728088845 6.7032759288
3.6583311421 14.8001235152 7.2104160633
2.8304841934 14.5300623379 12.5748736615
3.2127082074 14.2118364033 12.7867415173
3.1293408180 15.1295446009 7.7970609919
2.8598280401 15.3192349344 8.2039947682
3.6566210643 15.3135992258 8.0453238261
2.2127027399 15.2347292086 10.9856646005
2.4504918955 15.1894173001 11.4710731738
3.0523042864 14.9914572245 12.0897762466
3.0637865112 14.7047984134 12.4844080684
3.9787679347 2.6551808375 4.4380426417
4.3762532218 2.5582886284 3.7007071791
4.9522391187 2.1158602551 4.1472127238
4.6807074329 2.1040918212 5.2737450784
4.0260503490 2.4719331243 5.5506772964
4.5107053224 2.1883490230 6.0075823171
4.1647487880 2.4065787148 6.1441753497
4.6078917773 2.3272369681 6.7051230465
3.9878644863 2.9649495563 3.4724941716
4.3723027455 3.0224406514 2.8760637663
4.3508808366 2.7378470858 3.2973928073
4.3161734587 2.8035126513 7.4631227812
3.7789029136 3.3308491317 7.8854009085
4.5052023799 3.0653358611 8.4437843395
4.0317353237 3.3764589516 8.4705663191
4.3962193583 3.4089659274 9.0332592119
3.8390030685 4.4955011614 1.4858651530
4.0744134228 4.8370102736 1.2179312751
4.4198596767 4.2339509322 1.5000718498
4.5804433883 3.5301987199 2.1224877368
4.1905500421 3.8846727284 9.6130614827
3.7039971762 4.4154281227 9.9314221059
4.3321020623 4.1799800496 10.3199286206
4.0164927391 4.4719540944 10.4462506976
4.5537205003 4.4828898276 10.9255868096
4.2938857156 5.4855834039 1.0211665289
4.1425380500 5.1015350448 11.3491701469
3.7995296969 5.5169633705 11.5692214638
4.4072470504 5.5437239725 12.0228419207
4.5076511078 6.3064183768 0.9615210518
4.0739051152 6.2174114519 12.4512718311
3.7675196253 6.8281025929 12.8114003024
4.6743689148 6.3895304845 12.9328285737
4.7721436774 7.1362114487 1.0631783513
3.2550450284 7.3481962564 12.8753449587
4.3072982904 6.7463606014 13.0568953444
3.5535210758 7.2299489537 12.9947599894
4.1064532958 7.9191704568 1.4159751478
4.4420952522 8.6405438626 1.7026516711
4.8181808630 9.2755431209 2.0955780503
4.3332148165 9.9999462120 2.6082807609
4.4053109608 10.5476097453 3.0323439910
4.2442770245 11.0610554322 3.4933496552
4.1183830535 11.7992939104 4.0477594008
4.1165565610 12.2902531300 4.4052154412
3.8748107006 12.5846943197 4.6146464842
4.5669801250 12.6088770452 4.8663503794
4.4898941691 12.5643998731 13.4684191541
4.1606402570 13.0075537567 13.3130848081
3.9591999521 13.8514141823 5.8764310451
4.2419427180 13.3596975652 5.4499065217
4.6963272893 13.7404674551 6.0475149078
4.2327209138 13.8271595703 12.9586810775
4.1861936273 14.2888877891 6.6075558005
4.4333801963 14.7143220085 7.3117268829
3.8218414267 14.6695226029 12.4912300137
4.6935429511 14.3777082127 12.5773576941
4.5250139982 14.8703049710 12.1855608055
4.2790704145 15.0868726858 7.8684611199
4.4791442920 15.3296518663 8.4008719107
4.1449583644 15.1079125222 11.9939322541
4.8732563053 15.1619183471 11.5563210788
4.6196957074 15.3266319579 11.5081139977
4.8273041200 2.5118400619 3.1909971629
5.3349395907 2.4515090637 2.7334975625
5.6248487545 2.0755396039 3.2280417652
5.8605072330 1.6339281699 4.1021477829
5.5966576202 1.6352707883 5.1703306130
5.2908458530 1.8844353701 6.2665981253
5.4039600508 2.0583281785 7.1580142829
4.9988106513 2.8542383612 2.5132210494
5.4684369704 3.0951689361 2.0372502812
5.5195974873 2.6449445553 2.3641189687
5.0797562496 2.3632569013 7.5429052853
5.3275047950 2.5955696922 8.4021742850
5.2747174509 3.0501548524 9.3295379270
4.9150740666 3.4578282981 9.7470232982
5.4724628373 3.3251720694 10.0612709889
4.8813225399 4.7313380671 1.1239863563
5.4251804815 3.8768899343 1.5263995502
5.2350438589 3.8106856163 10.5354621081
5.3814510901 4.2856816845 11.2855597677
5.1968377129 5.4840865850 0.9136645722
5.2409499130 4.8391344912 11.7842721515
5.2753286376 5.3917872108 12.3683426907
5.4578950174 6.3151109419 0.8976967246
4.9762262094 5.8776324221 12.6474346804
5.6887371201 6.1621900899 13.0219798734
5.7569097169 7.0973549170 1.0664384199
5.2067940156 6.4777592287 13.1533271745
5.1108809279 7.8893995009 1.3287264206
5.4236826461 8.5749892932 1.7229515268
5.7045020931 9.1398073285 2.1809697352
5.2723592244 9.7500611515 2.5515355852
4.7295193895 10.6935543546 3.2325337897
4.9788975616 10.3259353829 2.9797479287
5.2386793762 10.7761589413 3.5310663186
4.6053234499 12.0337923579 4.3486235935
4.8930703888 11.4720974474 4.0116136646
5.2805495583 11.8996078733 4.5536200878
5.1126650672 12.2596509846 13.4996399677
5.7271884132 11.9997700173 13.4188307296
5.1275131494 12.4399550060 13.4094432996
5.6427909970 12.3437945639 5.1594528242
5.1554830436 13.0204520353 13.1549043169
5.3781491692 13.0687682556 5.7141621447
5.4124144597 13.6148388722 6.3371842015
5.1964106635 13.7571703800 12.8197481417
5.0656135138 13.9982286339 6.6265879505
4.7977786321 14.7957524797 7.6520753893
5.2868120544 14.3406905082 7.4191283454
5.1686065182 14.8387429722 8.1411720064
5.2209354978 14.2096819318 12.5522695923
5.2114322183 14.6165239153 12.1165452318
5.0156634263 15.3695157672 9.1721144838
5.0076033486 15.1924251321 8.6695692269
5.1622117715 15.3979168984 10.0958788604
5.4288143642 15.1992975238 9.6662471488
4.9583133656 15.3876952202 10.9540217556
5.2985019193 15.2493236109 10.6836133185
5.5403853983 14.9034999622 11.3456929653
6.2672655240 1.3194468784 4.7660215120
6.4412092505 1.3646012788 4.0799497134
6.8768684139 1.2262914131 4.5404713609
6.7308026367 1.1809053363 5.3680298179
6.2430281206 1.3062153442 5.4873546494
6.6014807399 1.2391457229 5.9835212444
5.7633241688 2.3487343105 2.5947315114
6.0183075139 2.6366730539 2.2414789385
6.2743024606 2.1743459516 2.7247608277
6.4364571837 1.6784075725 3.4226051378
6.1198351184 1.4675263890 6.1571259035
6.2779315916 1.7099054933 7.2695961027
5.7967313052 2.1434534050 7.9161236749
6.5307932498 1.9914416182 8.3509618133
6.1096816033 2.2922257347 8.6345220112
6.5917112088 2.2476927939 8.9959022316
6.2140374751 3.2084974941 1.8558194372
6.2099300918 2.6426291547 9.3249842030
6.0526481518 3.1239832779 10.0474432625
5.8020383352 3.4065944184 10.4048202210
6.3271554233 3.5650164414 10.7408539060
5.8362468631 4.6690218204 1.1200990889
6.4339067855 3.9386042476 1.4915442738
5.9976031237 4.0844442003 11.3142211201
5.7596287977 4.4092470275 11.6270957665
6.2575402644 4.5963692340 11.9039929152
6.1181564864 5.4968710800 0.9742816242
5.9626472837 5.1958126577 12.3931203722
5.6766364427 5.6507228432 12.7157286778
6.3407513823 5.7302960696 12.7946794869
6.3389370078 6.3255685778 1.0051693320
6.6970317887 6.4360438664 13.0696476787
6.5563661629 7.0079779696 1.1639586030
6.1325372304 6.5344438670 13.2243361399
6.2370097949 7.7676594199 1.4604867651
6.2517538232 8.5384638694 1.9563518254
6.4583075552 8.9939462850 2.4751192859
5.9571006271 9.5197953573 2.6180959960
6.4029155560 9.5302907172 2.9749812584
5.8255062530 10.0656388343 3.1327119063
6.0462289065 10.5486001731 3.7919187507
5.7287915453 11.1920914325 4.1935626948
6.1072618543 11.6221693019 4.8405642700
6.5253082961 11.4371778032 13.2746004313
6.0931772539 12.1485559063 13.1821341909
6.4720171779 12.0580180085 5.5488348384
5.9671684246 12.5863829011 5.5837075316
6.3146594773 12.7006960908 6.0230291626
6.0356780983 13.0828594194 12.8101303219
5.7243373338 13.8160203071 6.9241705732
6.1466124607 13.2562666602 6.5631954015
5.9300909789 13.9372359528 7.3909756608
6.3497759427 13.5632893413 7.3374313657
6.2144923390 13.9331693973 7.9136640981
5.7579393073 13.9383676300 12.4533140606
6.2509378687 13.4907763526 12.4940885579
6.3351510748 13.8232076951 12.0978209692
5.6394951777 14.8850331815 8.9708094969
5.8970298330 14.4299517163 8.4243164812
5.9312373750 14.8576025044 9.7011781116
6.2383627291 14.4711766936 9.3182341259
6.3085567556 14.5432405934 10.0631260057
5.8960385794 14.4082618228 11.8426874657
6.3552439578 14.2036103191 11.5541218350
6.0601186828 14.6081267589 11.2411131289
5.8873660802 14.8820541819 10.5102119110
6.8154006183 1.3708994997 3.8434542261
7.0128263102 1.6220997566 3.5035343466
7.2240332066 1.4496857436 4.0582234788
7.3508628221 1.3324185549 4.6905893500
7.2574357146 1.2418308993 5.3149935516
7.1424709536 1.2319962059 6.1748534749
6.7542468524 1.3351281890 6.6692607430
7.2161442762 1.2837486452 6.9203367947
7.0076069876 1.4281972192 7.3130188953
7.3686501379 1.3908663105 7.3826736892
6.6886422259 2.6437095465 2.3550801622
6.9273893395 2.0752228424 2.9932383673
7.1549023009 1.6871616592 8.0591811082
7.0358412303 2.0936665565 8.9496931211
6.8818582217 2.4388206166 9.4350153449
7.2603064080 2.4331318069 9.4761401876
6.9626013123 3.3756669544 2.0296690036
7.0214270229 3.0621193006 10.0715611086
7.0658990735 3.7319384869 10.9214827582
6.6993693299 4.7365100355 1.2947907537
7.0848150234 4.1147146204 1.7262625212
6.7392823071 4.1235342289 11.4342878748
6.9607972531 4.6622384152 11.9189948389
6.8974711828 5.6123319285 1.2524575131
6.7141263520 5.1754789396 12.3802313824
7.0406694902 5.8530044979 12.6629514894
6.9892296776 6.4473726217 1.2803867748
7.2886814866 6.5401389156 12.7912088508
6.9873837902 7.0137934093 1.3515277489
6.7471594614 7.3231953460 1.3332104701
6.9777337856 7.4458966328 1.6464841142
6.8734640866 6.9370577470 13.2317211946
7.2684487831 7.1367275854 13.0259576087
6.6852457385 8.5335657634 2.2043870212
6.8117251750 8.0744900648 1.9885160861
7.0010229469 8.4665835611 2.5401823717
7.2786957503 7.4429277497 13.1453587693
6.6416109819 9.9069754778 3.6850901509
6.9162026233 9.1035459792 3.1187685020
7.1403743415 10.0405947683 4.4865250061
7.2620517514 9.2695409543 3.9111599320
7.4986066818 9.5243932141 4.6410093987
7.3970267271 10.0136675379 13.1558294515
7.5629123584 9.3412478732 12.9619036403
7.4409057186 10.0972928433 12.9490459389
6.5577746091 10.7707367965 4.4682836504
7.4652900071 10.0804502109 5.0675555226
7.1745864536 10.6929867506 5.1245588413
7.5806507181 10.5197662011 5.6377451022
7.1276927390 10.6467498972 13.1893557429
7.0533168299 11.1737535339 12.9238255441
6.7612417045 11.3238578403 5.1700191056
7.2925470795 11.3591292417 5.8791350835
6.8170969845 12.2226669509 12.6896313670
6.7510145338 12.7691286665 6.5737602690
6.9863780680 12.2154973660 6.2835015005
7.1788151147 12.4776855576 6.8800479995
6.7144877132 13.0904481398 12.3235436031
7.2065501886 12.4232216785 12.2082724683
7.1773127103 12.9218879527 11.8479760784
6.8540328516 13.0072870495 7.1631456603
6.6022919724 13.9127967836 8.8187771554
6.9403048083 13.2721706486 8.0738297301
6.7926479133 13.9390717552 9.9114946932
7.2069434573 13.2426761986 9.1897753647
7.0038567689 13.6522167312 10.7789580529
7.3489687748 13.1376847467 10.2321423281
6.8185233199 13.6134551030 11.5670267199
7.3287669409 13.0265871205 11.1651636121
6.4989690520 14.2698527173 10.8288477197
7.4463903164 2.0488816393 3.6636665060
7.6097292667 1.7563750254 4.5701134232
7.6036309882 1.5274743669 5.2108374137
7.6491765349 1.5105278095 6.0024162723
7.5243184632 1.3439866570 6.8171784249
7.3698574798 2.8377961103 2.8688866443
7.7321328375 2.8008616132 3.7271049816
7.8208443292 2.5247264272 4.5322042592
7.8956362838 2.2591140441 5.6134027067
7.9118877651 1.9314297236 6.1761786849
7.7492387377 1.5165239362 6.6554238527
7.5506409941 1.4802637916 7.4940751056
7.4697368465 1.7014304733 8.2424533898
7.3908950686 2.0860528448 8.9426865008
7.5560753138 2.8218733893 9.5822508428
7.5348223083 3.9629963766 2.4836752747
7.7905609562 3.5972584269 3.4848313132
7.9277367718 3.4413329357 4.4594077287
7.9979034693 3.3319125596 5.5061196425
8.0566147229 2.6461389663 6.4350059094
8.0775448812 3.3729009861 6.6922040202
8.1094213837 3.7217723864 7.9487055920
8.1262980600 3.2298388407 7.3382307619
8.0304123123 3.7637413765 8.9929321815
8.0960859172 3.4289521119 8.3657075688
7.7461116811 3.5958258574 9.8866244319
7.9257432173 3.3176391497 9.2256912590
7.4730218065 3.7899629653 10.6418708961
7.3850772442 4.9290932756 1.8518108297
7.7553535503 4.8748332187 2.6467481277
7.8734418968 4.5797728221 3.3967723363
7.9662132278 4.4206254161 4.3780735190
8.0183989632 4.3510687544 5.4246505907
8.0557743962 4.3440274362 6.5251734381
8.0798803620 4.4177508306 7.6639343782
8.0629634748 4.4854157344 8.7706392979
7.9644381088 4.4631005261 9.7879597999
7.7605429760 4.4425078370 10.6822476547
7.3691028146 4.4191844910 11.3810005453
7.4119457576 5.9871768814 1.7514941032
7.7353659974 5.7030451620 2.4969839813
7.9131930252 5.5556099365 3.3793258821
7.9868529976 5.4450536844 4.3457293112
8.0215755074 5.3914338142 5.3847880355
8.0403049459 5.3758017057 6.4569982812
8.0523940618 5.3868250949 7.5477484454
8.0517388798 5.4063232349 8.6373083665
8.0180894580 5.4007037099 9.6943229713
7.9151931757 5.3572031366 10.6754164262
7.6866229633 5.2776833751 11.5049487954
7.2988208622 5.2162151992 12.1015661204
7.3106152798 6.8447826944 1.7336261900
7.6426189782 6.6745629431 2.4430570308
7.8672193925 6.5487712229 3.3429202398
7.9754396016 6.4823231034 4.3341605815
8.0183009849 6.4467837186 5.3717567365
8.0335614939 6.4336514003 6.4341122679
8.0393474458 6.4323153299 7.5074219125
8.0393568120 6.4332058886 8.5826962828
8.0249318629 6.4199200536 9.6446976863
7.9705872234 6.3688950628 10.6606213452
7.8232296123 6.2572210133 11.5740506052
7.5297729440 6.0497780745 12.2616481971
7.3426991686 7.6312206938 2.3752495765
7.7025658252 7.5567899833 3.3147898249
7.8955605723 7.5350704798 4.3265373925
7.9921502578 7.5078888125 5.3679111870
8.0273322087 7.4978080005 6.4246957273
8.0365939725 7.4951597790 7.4905232493
8.0363496055 7.4932154098 8.5588438841
8.0250473889 7.4772368573 9.6210120068
7.9876423357 7.4185901008 10.6487016207
7.8906433502 7.2861832551 11.5811406204
7.6454089466 7.0943394187 12.4213418576
7.3857993224 8.4365409206 3.2460234080
7.6781589093 8.6360881661 4.3116132214
7.9092686202 8.5725614815 5.3658452396
8.0048294102 8.5613787353 6.4110776077
8.0347255362 8.5564480521 7.4703344020
8.0408158974 8.5522835013 8.5292350574
8.0300043257 8.5469944212 9.5882495175
7.9895788004 8.4900700741 10.6292131707
7.9070974843 8.3326843154 11.5821397717
7.7897271881 8.0288065669 12.2570959133
7.5837882910 8.0758680544 12.8206142880
7.7439617602 9.6209942019 5.3892125536
7.9400680730 9.6075216858 6.3706988049
8.0122548856 9.6322725758 7.4348176544
8.0419392112 9.5775890359 8.4817632457
8.0434151095 9.5984171388 9.5096161993
7.9950547987 9.5916746940 10.5598643155
7.8799594303 9.4317842815 11.5624545981
7.7182712107 9.1207694186 12.4490825520
7.8352626776 10.4269669642 6.2534767344
7.6629340204 10.9030368675 6.0438119609
7.8199388127 11.0704738806 6.7006472510
7.9008529308 10.8360911337 7.3110321920
8.0041363821 10.6182010823 8.4972552340
8.0422605616 10.4314630283 9.3504584349
8.0256299079 10.7834211242 10.3947171106
7.8554316671 10.5595412224 11.4255930215
7.6136840360 10.3278271079 12.3338327916
7.6659501217 11.2746629439 6.3705961818
7.5678283748 11.7224842942 6.8420215542
7.7161754102 11.8752167543 7.7508235072
7.8548155597 11.6530245894 8.5598134657
7.9761621268 11.4543314599 9.7422365614
8.0646035460 11.4005810544 10.3555990812
8.0429649659 11.4231087328 10.7207073572
7.9853219750 11.7931020784 10.7807460333
7.8714193608 11.5540681121 11.1603926941
7.4791000993 11.5199490401 12.1372414950
7.3738907559 12.5106089343 7.5366853046
7.5282464645 12.5303912019 8.4536454141
7.6714371758 12.4206280010 9.4971285485
8.0069605551 11.7705744000 10.4156377573
7.7728146820 12.2334676364 10.6234828795
7.5338064333 12.3129039906 11.5993044528
3 2 1 0
3 4 3 0
3 0 3 2
3 6 5 4
3 4 5 3
3 8 7 6
3 6 7 5
3 10 9 8
3 8 9 7
3 10 11 9
3 14 13 12
3 14 12 1
3 12 0 1
3 12 15 0
3 0 16 4
3 0 15 16
3 4 17 6
3 4 16 17
3 6 18 8
3 6 17 18
3 8 19 10
3 8 18 19
3 11 10 20
3 10 21 20
3 10 19 21
3 21 22 20
3 13 23 12
3 12 23 15
3 15 23 24
3 26 25 24
3 25 15 24
3 25 16 15
3 16 27 17
3 16 25 27
3 17 28 18
3 17 27 28
3 18 29 19
3 18 28 29
3 19 30 21
3 19 29 30
3 22 21 31
3 31 21 30
3 26 32 25
3 25 32 27
3 27 32 33
3 35 34 33
3 34 27 33
3 34 28 27
3 28 36 29
3 28 34 36
3 29 37 30
3 29 36 37
3 31 30 38
3 38 30 37
3 34 35 39
3 39 35 40
3 34 41 36
3 34 39 41
3 36 42 37
3 36 41 42
3 38 37 43
3 37 44 43
3 37 42 44
3 46 45 44
3 44 45 43
3 46 47 45
3 39 40 48
3 48 40 49
3 39 50 41
3 39 48 50
3 41 51 42
3 41 50 51
3 42 52 44
3 42 51 52
3 54 46 53
3 46 52 53
3 46 44 52
3 46 54 47
3 57 56 55
3 59 58 55
3 58 48 55
3 49 57 55
3 49 55 48
3 48 58 50
3 50 58 60
3 50 60 51
3 51 60 61
3 63 62 61
3 62 51 61
3 62 52 51
3 53 52 64
3 64 52 62
3 56 65 55
3 55 65 59
3 63 66 62
3 62 66 64
3 69 68 67
3 71 70 67
3 67 70 69
3 73 72 71
3 71 72 70
3 73 74 72
3 77 76 75
3 77 75 68
3 75 67 68
3 75 78 67
3 67 79 71
3 67 78 79
3 71 80 73
3 71 79 80
3 74 73 81
3 73 82 81
3 73 80 82
3 84 83 82
3 82 83 81
3 84 85 83
3 88 87 86
3 88 86 76
3 86 75 76
3 86 89 75
3 89 1 2
3 78 89 2
3 75 89 78
3 78 2 3
3 78 3 79
3 79 3 5
3 79 5 80
3 80 5 7
3 80 7 82
3 82 7 9
3 82 9 84
3 91 90 11
3 11 90 9
3 90 85 9
3 85 84 9
3 93 92 91
3 91 92 90
3 93 94 92
3 86 87 95
3 95 87 96
3 95 13 14
3 89 95 14
3 86 95 89
3 89 14 1
3 20 91 11
3 91 20 22
3 97 91 22
3 93 91 97
3 94 93 98
3 93 99 98
3 93 97 99
3 99 100 98
3 96 101 95
3 101 103 102
3 101 102 23
3 95 101 23
3 13 95 23
3 104 24 23
3 104 23 102
3 104 26 24
3 31 105 97
3 31 97 22
3 97 106 99
3 97 105 106
3 100 99 107
3 99 108 107
3 99 106 108
3 108 109 107
3 102 103 110
3 110 103 111
3 102 112 104
3 102 110 112
3 113 32 26
3 104 113 26
3 112 113 104
3 114 33 32
3 114 32 113
3 114 35 33
3 38 115 105
3 38 105 31
3 105 116 106
3 105 115 116
3 106 117 108
3 106 116 117
3 109 108 118
3 118 108 117
3 111 119 110
3 121 120 119
3 120 110 119
3 120 112 110
3 112 122 113
3 112 120 122
3 113 123 114
3 113 122 123
3 123 40 35
3 123 35 114
3 43 115 38
3 115 43 45
3 115 45 116
3 116 45 47
3 124 116 47
3 117 116 124
3 118 117 125
3 125 117 124
3 120 121 126
3 126 121 127
3 120 128 122
3 120 126 128
3 122 129 123
3 122 128 129
3 129 49 40
3 129 40 123
3 53 130 54
3 124 47 54
3 130 124 54
3 131 124 130
3 125 124 132
3 124 133 132
3 124 131 133
3 127 134 126
3 136 135 134
3 135 126 134
3 135 128 126
3 135 56 57
3 129 135 57
3 128 135 129
3 49 129 57
3 58 59 137
3 138 60 58
3 138 58 137
3 139 61 60
3 139 60 138
3 139 63 61
3 64 140 130
3 64 130 53
3 130 141 131
3 130 140 141
3 143 133 142
3 133 141 142
3 133 131 141
3 136 144 135
3 144 146 145
3 144 145 65
3 135 144 65
3 56 135 65
3 137 59 65
3 145 137 65
3 147 137 145
3 137 148 138
3 137 147 148
3 138 149 139
3 138 148 149
3 150 66 63
3 139 150 63
3 149 150 139
3 140 64 66
3 150 140 66
3 151 140 150
3 140 152 141
3 140 151 152
3 142 141 153
3 153 141 152
3 146 154 145
3 156 155 154
3 155 145 154
3 155 147 145
3 147 157 148
3 147 155 157
3 148 158 149
3 148 157 158
3 149 159 150
3 149 158 159
3 150 160 151
3 150 159 160
3 162 152 161
3 152 160 161
3 152 151 160
3 152 162 153
3 156 163 155
3 155 163 157
3 157 163 164
3 166 165 164
3 165 157 164
3 165 158 157
3 168 159 167
3 159 165 167
3 159 158 165
3 159 168 160
3 160 168 169
3 160 169 161
3 172 171 170
3 174 173 170
3 170 173 172
3 176 175 174
3 174 175 173
3 176 177 175
3 180 179 178
3 182 181 178
3 178 181 180
3 181 182 171
3 171 182 170
3 182 68 170
3 68 69 170
3 170 69 70
3 170 70 174
3 174 70 72
3 174 72 176
3 184 183 74
3 74 183 72
3 183 177 72
3 177 176 72
3 186 185 184
3 184 185 183
3 186 187 185
3 190 189 188
3 190 188 179
3 188 178 179
3 188 191 178
3 191 76 77
3 182 191 77
3 178 191 182
3 182 77 68
3 81 184 74
3 184 81 83
3 184 83 186
3 193 192 85
3 85 192 83
3 192 187 83
3 187 186 83
3 195 194 193
3 193 194 192
3 195 196 194
3 188 189 197
3 197 189 198
3 197 87 88
3 191 197 88
3 188 197 191
3 191 88 76
3 90 193 85
3 193 90 92
3 193 92 195
3 200 199 94
3 94 199 92
3 199 196 92
3 196 195 92
3 200 201 199
3 197 198 202
3 202 198 203
3 202 96 87
3 202 87 197
3 98 200 94
3 98 100 200
3 100 201 200
3 100 204 201
3 203 205 202
3 205 207 206
3 205 206 101
3 202 205 101
3 96 202 101
3 206 103 101
3 208 204 100
3 208 100 107
3 210 209 109
3 209 107 109
3 209 208 107
3 206 207 211
3 211 207 212
3 211 111 103
3 211 103 206
3 118 213 210
3 118 210 109
3 212 214 211
3 214 216 215
3 214 215 119
3 211 214 119
3 111 211 119
3 215 121 119
3 125 217 213
3 125 213 118
3 216 218 215
3 121 215 218
3 219 121 218
3 127 121 219
3 132 217 125
3 134 127 220
3 127 221 220
3 127 219 221
3 220 136 134
3 223 222 143
3 223 143 142
3 221 224 220
3 224 226 225
3 224 225 144
3 220 224 144
3 136 220 144
3 225 146 144
3 153 223 142
3 153 227 223
3 226 228 225
3 225 228 146
3 228 154 146
3 228 229 154
3 156 154 229
3 156 229 230
3 161 231 162
3 231 232 162
3 232 153 162
3 232 227 153
3 230 233 156
3 156 233 163
3 233 235 234
3 164 233 234
3 163 233 164
3 234 166 164
3 167 236 168
3 237 169 168
3 237 168 236
3 237 238 169
3 169 238 161
3 238 239 161
3 239 231 161
3 231 239 232
3 242 241 240
3 244 243 240
3 240 243 242
3 246 245 244
3 244 245 243
3 246 247 245
3 250 249 248
3 250 248 241
3 241 248 240
3 248 171 240
3 171 172 240
3 240 172 173
3 240 173 244
3 244 173 175
3 244 175 246
3 252 251 177
3 177 251 175
3 251 247 175
3 247 246 175
3 254 253 252
3 252 253 251
3 254 255 253
3 258 257 256
3 179 180 256
3 180 258 256
3 180 259 258
3 181 248 249
3 259 181 249
3 180 181 259
3 248 181 171
3 183 252 177
3 252 183 185
3 252 185 254
3 261 260 187
3 187 260 185
3 260 255 185
3 255 254 185
3 263 262 261
3 261 262 260
3 263 264 262
3 256 257 190
3 257 189 190
3 257 265 189
3 256 190 179
3 192 261 187
3 261 192 194
3 261 194 263
3 267 266 196
3 196 266 194
3 266 264 194
3 264 263 194
3 267 268 266
3 265 198 189
3 269 198 265
3 199 267 196
3 271 270 201
3 201 270 199
3 270 268 199
3 268 267 199
3 271 272 270
3 269 203 198
3 273 203 269
3 204 274 271
3 204 271 201
3 272 271 275
3 271 276 275
3 271 274 276
3 273 277 203
3 203 277 205
3 207 205 277
3 207 277 278
3 208 274 204
3 274 208 209
3 274 209 276
3 278 212 207
3 279 212 278
3 279 280 212
3 212 280 214
3 216 214 280
3 216 280 281
3 281 282 216
3 216 282 218
3 219 218 282
3 219 282 283
3 285 221 284
3 221 283 284
3 221 219 283
3 286 285 284
3 288 287 222
3 288 222 223
3 285 224 221
3 290 289 226
3 290 226 224
3 286 290 224
3 285 286 224
3 291 289 290
3 227 288 223
3 227 292 288
3 289 228 226
3 291 293 289
3 293 228 289
3 293 229 228
3 230 229 293
3 230 293 294
3 297 296 295
3 296 292 295
3 292 232 295
3 292 227 232
3 294 298 230
3 230 298 233
3 235 233 298
3 235 298 299
3 302 301 300
3 300 301 297
3 300 297 295
3 238 300 295
3 239 238 295
3 239 295 232
3 305 304 303
3 241 242 303
3 242 305 303
3 242 306 305
3 307 242 243
3 307 306 242
3 308 243 245
3 308 307 243
3 245 247 308
3 308 247 309
3 312 311 310
3 312 310 304
3 304 310 303
3 310 249 303
3 249 250 303
3 303 250 241
3 313 309 247
3 313 247 251
3 314 251 253
3 314 313 251
3 316 315 255
3 315 253 255
3 315 314 253
3 316 317 315
3 319 318 258
3 258 318 257
3 259 310 311
3 319 259 311
3 258 259 319
3 310 259 249
3 260 316 255
3 320 317 316
3 260 320 316
3 262 320 260
3 262 264 320
3 320 264 321
3 318 265 257
3 322 265 318
3 323 321 264
3 323 264 266
3 266 268 323
3 323 268 324
3 322 269 265
3 325 269 322
3 326 324 268
3 326 268 270
3 270 272 326
3 326 272 327
3 325 273 269
3 328 273 325
3 329 327 272
3 329 272 275
3 328 330 273
3 273 330 277
3 278 277 330
3 278 330 331
3 331 279 278
3 332 279 331
3 332 333 279
3 279 333 280
3 335 334 281
3 280 335 281
3 333 335 280
3 336 334 335
3 334 282 281
3 338 337 283
3 338 283 282
3 336 338 282
3 334 336 282
3 339 337 338
3 342 341 340
3 337 284 283
3 286 284 337
3 339 286 337
3 343 286 339
3 342 340 287
3 288 342 287
3 344 342 288
3 343 345 286
3 286 345 290
3 291 290 345
3 291 345 346
3 292 344 288
3 292 347 344
3 346 348 291
3 291 348 293
3 350 349 294
3 293 350 294
3 348 350 293
3 351 349 350
3 353 352 296
3 353 296 297
3 292 296 347
3 347 296 352
3 349 298 294
3 355 354 299
3 355 299 298
3 351 355 298
3 349 351 298
3 357 356 354
3 357 354 355
3 359 358 356
3 359 356 357
3 301 302 358
3 359 301 358
3 360 301 359
3 297 301 353
3 353 301 360
3 363 362 361
3 365 364 361
3 361 364 363
3 365 366 364
3 369 368 367
3 304 305 367
3 305 369 367
3 305 370 369
3 306 361 362
3 370 306 362
3 305 306 370
3 361 306 307
3 361 307 365
3 371 366 365
3 307 371 365
3 308 371 307
3 373 372 309
3 372 308 309
3 372 371 308
3 375 374 373
3 373 374 372
3 375 376 374
3 367 368 312
3 368 311 312
3 368 377 311
3 367 312 304
3 313 373 309
3 373 313 314
3 373 314 375
3 378 376 375
3 314 378 375
3 315 378 314
3 380 379 317
3 379 315 317
3 379 378 315
3 380 381 379
3 383 382 319
3 319 382 318
3 319 311 377
3 319 377 383
3 320 380 317
3 385 384 321
3 321 384 320
3 384 381 320
3 381 380 320
3 385 386 384
3 382 322 318
3 387 322 382
3 323 385 321
3 389 388 324
3 324 388 323
3 388 386 323
3 386 385 323
3 389 390 388
3 387 325 322
3 391 325 387
3 326 389 324
3 326 327 389
3 327 390 389
3 327 392 390
3 391 328 325
3 393 328 391
3 394 392 327
3 394 327 329
3 393 395 328
3 328 395 330
3 331 330 395
3 331 395 396
3 398 332 397
3 332 396 397
3 332 331 396
3 399 398 397
3 398 333 332
3 399 400 398
3 400 333 398
3 400 335 333
3 336 335 400
3 336 400 401
3 401 402 336
3 336 402 338
3 339 338 402
3 339 402 403
3 405 404 341
3 405 341 342
3 407 343 406
3 343 403 406
3 343 339 403
3 408 407 406
3 344 405 342
3 344 409 405
3 407 345 343
3 411 410 346
3 411 346 345
3 408 411 345
3 407 408 345
3 413 412 410
3 413 410 411
3 414 412 413
3 417 416 415
3 416 409 415
3 409 347 415
3 409 344 347
3 410 348 346
3 348 410 350
3 350 410 412
3 419 418 351
3 419 351 350
3 414 419 350
3 412 414 350
3 421 420 418
3 421 418 419
3 422 420 421
3 425 424 423
3 423 424 417
3 423 417 415
3 353 423 415
3 352 353 415
3 352 415 347
3 418 355 351
3 355 418 357
3 357 418 420
3 422 426 420
3 426 357 420
3 426 359 357
3 423 360 425
3 360 426 425
3 360 359 426
3 360 423 353
3 429 428 427
3 362 363 427
3 363 429 427
3 363 430 429
3 431 363 364
3 431 430 363
3 433 432 366
3 432 364 366
3 432 431 364
3 435 434 433
3 433 434 432
3 435 436 434
3 438 437 369
3 369 437 368
3 370 427 428
3 438 370 428
3 369 370 438
3 427 370 362
3 371 433 366
3 433 371 372
3 433 372 435
3 439 436 435
3 372 439 435
3 374 439 372
3 441 440 376
3 440 374 376
3 440 439 374
3 441 442 440
3 437 377 368
3 443 377 437
3 378 441 376
3 444 442 441
3 378 444 441
3 379 444 378
3 379 381 444
3 444 381 445
3 447 446 383
3 383 446 382
3 383 377 443
3 383 443 447
3 448 445 381
3 448 381 384
3 384 386 448
3 448 386 449
3 446 387 382
3 450 387 446
3 451 449 386
3 451 386 388
3 388 390 451
3 451 390 452
3 450 391 387
3 453 391 450
3 392 452 390
3 392 454 452
3 456 393 455
3 393 453 455
3 393 391 453
3 457 456 455
3 392 394 458
3 459 392 458
3 454 392 459
3 456 395 393
3 461 460 396
3 461 396 395
3 457 461 395
3 456 457 395
3 462 460 461
3 463 459 458
3 460 397 396
3 465 464 399
3 465 399 397
3 462 465 397
3 460 462 397
3 467 466 464
3 467 464 465
3 468 466 467
3 471 470 469
3 464 400 399
3 400 464 401
3 464 472 401
3 464 466 472
3 466 468 473
3 474 466 473
3 472 466 474
3 475 474 473
3 471 469 476
3 471 476 477
3 472 402 401
3 402 472 403
3 472 478 403
3 472 474 478
3 474 475 479
3 474 479 478
3 477 476 404
3 405 477 404
3 480 477 405
3 478 406 403
3 482 481 408
3 482 408 406
3 479 482 406
3 478 479 406
3 483 481 482
3 486 485 484
3 485 480 484
3 480 409 484
3 480 405 409
3 481 411 408
3 483 487 481
3 487 411 481
3 487 413 411
3 489 488 414
3 413 489 414
3 487 489 413
3 491 490 488
3 491 488 489
3 493 492 490
3 493 490 491
3 495 494 492
3 495 492 493
3 494 495 486
3 494 486 484
3 417 494 484
3 416 417 484
3 416 484 409
3 488 419 414
3 419 488 421
3 421 488 490
3 421 490 422
3 490 496 422
3 490 492 496
3 425 496 424
3 496 494 424
3 496 492 494
3 424 494 417
3 496 426 422
3 426 496 425
3 497 428 429
3 430 498 429
3 429 498 497
3 431 499 430
3 430 499 498
3 432 500 431
3 431 500 499
3 434 501 432
3 432 501 500
3 436 501 434
3 502 437 438
3 428 497 438
3 497 502 438
3 497 503 502
3 504 497 498
3 503 497 504
3 505 498 499
3 504 498 505
3 500 507 506
3 505 500 506
3 499 500 505
3 507 500 501
3 507 501 508
3 508 501 436
3 439 508 436
3 509 508 439
3 510 439 440
3 510 509 439
3 440 442 510
3 510 442 511
3 512 443 502
3 502 443 437
3 513 502 503
3 512 502 513
3 514 503 504
3 513 503 514
3 515 504 505
3 514 504 515
3 505 506 516
3 517 505 516
3 515 505 517
3 519 518 517
3 519 517 516
3 521 520 518
3 521 518 519
3 523 522 520
3 523 520 521
3 524 522 444
3 522 511 444
3 511 442 444
3 511 522 523
3 445 524 444
3 525 446 447
3 443 512 447
3 512 525 447
3 512 526 525
3 527 512 513
3 526 512 527
3 528 513 514
3 527 513 528
3 529 514 515
3 528 514 529
3 530 515 517
3 529 515 530
3 531 517 518
3 530 517 531
3 532 518 520
3 531 518 532
3 533 520 522
3 532 520 533
3 534 522 524
3 533 522 534
3 448 535 445
3 535 524 445
3 535 534 524
3 449 535 448
3 536 450 525
3 525 450 446
3 537 525 526
3 536 525 537
3 538 526 527
3 537 526 538
3 539 527 528
3 538 527 539
3 540 528 529
3 539 528 540
3 541 529 530
3 540 529 541
3 542 530 531
3 541 530 542
3 543 531 532
3 542 531 543
3 544 532 533
3 543 532 544
3 545 533 534
3 544 533 545
3 546 534 535
3 545 534 546
3 451 547 449
3 547 535 449
3 547 546 535
3 452 547 451
3 548 453 536
3 536 453 450
3 549 536 537
3 548 536 549
3 550 537 538
3 549 537 550
3 551 538 539
3 550 538 551
3 552 539 540
3 551 539 552
3 553 540 541
3 552 540 553
3 554 541 542
3 553 541 554
3 555 542 543
3 554 542 555
3 556 543 544
3 555 543 556
3 557 544 545
3 556 544 557
3 558 545 546
3 557 545 558
3 559 546 547
3 558 546 559
3 454 559 452
3 452 559 547
3 548 455 453
3 455 548 457
3 548 560 457
3 548 549 560
3 561 549 550
3 560 549 561
3 562 550 551
3 561 550 562
3 563 551 552
3 562 551 563
3 564 552 553
3 563 552 564
3 565 553 554
3 564 553 565
3 566 554 555
3 565 554 566
3 567 555 556
3 566 555 567
3 568 556 557
3 567 556 568
3 569 557 558
3 568 557 569
3 570 558 559
3 569 558 570
3 459 570 454
3 454 570 559
3 560 461 457
3 461 560 462
3 560 571 462
3 560 561 571
3 572 561 562
3 571 561 572
3 573 562 563
3 572 562 573
3 574 563 564
3 573 563 574
3 575 564 565
3 574 564 575
3 576 565 566
3 575 565 576
3 577 566 567
3 576 566 577
3 578 567 568
3 577 567 578
3 579 568 569
3 578 568 579
3 580 569 570
3 579 569 580
3 463 581 459
3 581 570 459
3 581 580 570
3 571 465 462
3 465 571 467
3 467 571 572
3 467 572 468
3 572 582 468
3 572 573 582
3 583 573 574
3 582 573 583
3 584 574 575
3 583 574 584
3 585 575 576
3 584 575 585
3 586 576 577
3 585 576 586
3 587 577 578
3 586 577 587
3 588 578 579
3 587 578 588
3 589 579 580
3 588 579 589
3 471 589 470
3 589 581 470
3 589 580 581
3 582 473 468
3 582 583 590
3 475 582 590
3 591 475 590
3 582 475 473
3 593 592 590
3 583 593 590
3 584 593 583
3 594 584 585
3 593 584 594
3 595 585 586
3 594 585 595
3 596 586 587
3 595 586 596
3 597 587 588
3 596 587 597
3 598 588 589
3 597 588 598
3 477 598 471
3 471 598 589
3 600 479 599
3 479 591 599
3 479 475 591
3 600 599 592
3 593 600 592
3 601 600 593
3 602 593 594
3 601 593 602
3 603 594 595
3 602 594 603
3 596 605 604
3 603 596 604
3 595 596 603
3 607 606 605
3 596 607 605
3 597 607 596
3 608 597 598
3 607 597 608
3 480 608 477
3 477 608 598
3 600 482 479
3 482 600 483
3 600 609 483
3 600 601 609
3 610 601 602
3 609 601 610
3 611 602 603
3 610 602 611
3 603 604 612
3 613 603 612
3 611 603 613
3 613 612 606
3 607 613 606
3 614 613 607
3 486 614 485
3 614 608 485
3 614 607 608
3 485 608 480
3 609 487 483
3 487 609 489
3 489 609 610
3 489 610 491
3 491 610 611
3 491 611 493
3 493 611 613
3 493 613 495
3 495 613 614
3 495 614 486