OFF
634 1172 0
1.6364612755 8.9882367552 9.2281414008
2.0031767410 8.9686530446 7.8865988158
2.0226996446 8.1864388966 8.7675853567
2.0858441993 7.8732616270 9.7088431267
1.6102059794 8.8403836305 10.6687108248
2.3084602562 7.5734084530 11.3182618172
1.6678581738 8.8365569480 12.1264232700
2.1147209021 8.0830274653 12.5909057552
1.3671156734 10.5081066118 8.5923788686
1.7040581302 10.3611670847 7.2313208608
1.2350157262 10.1981172487 10.2455144629
1.2429072319 10.0917218884 11.8227234062
1.8041955073 8.7877702551 13.2160802841
1.3825248085 9.9844864299 13.5008577460
1.8493418284 9.1170617953 14.4080385985
1.4638500758 10.3245933682 15.2321719655
1.9733310497 9.4256527352 15.8644683652
1.6180724401 10.5160495466 16.5841558465
2.0499700396 9.8342140934 17.0159656709
1.3666625822 11.9163105789 7.2813667207
1.7397979823 11.9207908252 5.9666119232
1.8413032259 11.0091398349 6.3339708062
1.0868067229 12.0617473334 8.8075503635
1.0291377705 11.7085428777 10.0448487556
1.0000998439 11.5594464210 11.5865745750
1.0423556389 11.5054607207 13.2032578252
1.1366817208 11.5436921926 14.8318429457
1.3004784363 11.6240649296 16.3421529215
1.8475780873 10.6124139801 17.5364670688
1.5749989866 11.5406903071 17.5306749005
1.9534340102 11.2426713198 18.2925823881
1.5040909638 13.1715015199 6.1200841955
2.0413895539 13.3632291210 4.8815357010
1.8636253545 12.4164921166 5.4262358569
1.1704451673 13.5256078236 7.3574395176
1.0335816423 13.3114166406 8.5249777695
0.9392755269 13.2140640867 9.9518417352
0.9103855144 13.1029612535 11.4552541768
0.9207047135 13.0411723027 13.0420231454
0.9791001095 13.0018294858 14.6358212814
1.1105853906 12.9610789847 16.1493388928
1.3963385259 12.9780450987 17.6483815370
1.8088605438 12.3794981005 18.6100037764
1.6034623449 14.5980967635 5.6681469152
1.9766029850 14.7557525547 4.7854373138
1.2678680458 14.6874136454 6.9233780490
1.0545765187 14.7306836697 8.3198466105
0.9587746505 14.6849567638 9.7800354343
0.9301204016 14.6450776688 11.3176312048
0.9370136693 14.5957910691 12.9023755033
0.9765696610 14.5250421633 14.4940611445
1.0771156840 14.3960255823 16.0198232955
1.2319756546 14.1404089681 17.2139259933
1.7097135628 13.5304001166 18.8244159244
1.5562388039 14.5453554351 18.4574373737
1.9227302487 14.3101940559 19.3893866653
1.8062111901 15.5484013378 5.3154576294
1.5534102545 16.0127621747 6.4279579825
2.0542007398 16.4881609602 5.4315911210
1.2628906667 16.1010378206 7.9918835751
1.1016423407 16.1146737171 9.5354261051
1.0607792831 16.1229278960 11.0712943217
1.0834502778 16.1258852074 12.6692701565
1.1113766567 16.0247880924 14.2764799714
1.1970167719 15.8770045513 15.8488491694
1.3972470480 15.5811037171 17.4444465622
1.7404453593 15.7329925764 18.6977097805
1.9381375715 15.1748148826 19.3447137998
1.9169212161 17.0860233664 6.3300154894
2.4373564013 17.3419910349 5.6428910904
1.6995640353 17.2728490069 7.4960284119
1.4909750373 17.5798511906 9.2580875440
1.2682964285 17.2713803796 10.6569389723
1.4160811238 17.6796735399 12.2477509890
1.4035821042 17.4286197796 13.9338315288
1.4591215154 17.2539963042 15.4850506109
1.6003042984 17.0286984066 16.9737238076
1.8935430107 16.7863407749 18.3370663353
2.4056455611 17.9169854736 6.6530542542
2.2302112855 18.5251737571 8.2354773123
1.8685682630 18.7458136406 9.6927794357
1.6632850557 18.5365405536 10.9319789241
1.9996896305 19.2555000099 10.4293633733
1.9951401829 19.1223332667 12.5531157040
1.8361943607 18.6318465048 13.6470215576
1.8704351559 18.4259975101 15.0262458900
1.9885595911 18.2134361484 16.5235849498
2.1188490326 17.8463593770 17.7980653529
2.0450206927 19.3947752475 11.3832580300
2.6807486863 7.3755842548 8.5464704526
3.4290255663 6.9460805181 7.5623171274
3.4136221121 6.4911080452 8.4428528379
3.4293581916 6.2637395562 9.4068736370
2.7322178369 6.9009349537 10.0978766947
3.4110081214 6.1709773439 10.7802865659
2.8507448898 6.7266556105 10.9986598088
3.1620812988 6.5727659338 11.8567743125
2.8390298101 8.2274851355 6.9129360365
3.4842329386 8.1174844346 5.9929319941
3.4355320196 7.4680741533 6.7205085023
2.7435341044 7.3032029289 12.8079895709
2.3179120312 8.1183816429 13.7075469908
3.1173126047 7.2932649990 14.2858404971
2.5303145757 8.3196480511 15.1621072285
3.4634255313 7.4519813744 15.9592146084
2.7665967963 8.7548223899 16.9262367777
4.0543361344 7.5830193189 17.8136939125
3.3612695205 8.8969265127 18.5692372266
4.1194253735 8.1704820728 19.0047855411
2.9591039796 9.3641316553 5.6500487247
3.5367532512 9.9460311145 4.5396132716
3.5131069230 8.8830643935 5.2663198428
2.2429226635 9.8179111747 6.4537407517
2.4488829579 10.1229289012 18.2189234376
4.0279093414 8.8807947419 19.7358649781
3.2745455396 10.1238718748 19.7313185619
3.9919303414 9.5957030000 20.4169723192
2.4266779480 11.3296466255 5.1341989935
3.2243639268 11.4703664513 3.9285456933
2.4517473507 11.6604143820 19.4201898820
3.9919087093 10.3277704842 20.9026301883
3.1985354773 11.5140555830 20.6127069118
3.7092091577 11.4061611490 21.2983896601
2.8898492425 12.8177801215 3.7623468974
3.6889330039 12.6717182697 2.8611559068
3.4179621553 12.0529212487 3.3614392907
2.1456879064 13.2994113357 19.5841447749
2.7483842063 13.0008266972 20.4893591846
3.2937304708 12.5769144450 21.2571063812
3.4059355612 14.1671038695 2.8738114452
4.4539291827 14.4844938225 2.1019074738
4.1913613076 13.3691084366 2.2583259320
2.5360951192 14.4486248881 3.9451130580
2.4757235009 14.8215300727 20.2139682237
3.0630120540 14.0993502181 21.1511685686
3.6730682311 15.2739653776 2.6099950868
3.0965759785 15.6338416278 3.4151970594
3.6346571795 15.9003357805 2.8329130958
2.3084513671 15.6785939601 4.5066922954
2.2149811242 16.2013062449 19.4449187095
2.8059065312 16.5450819952 20.3056330507
3.0995543683 15.7182420621 21.0285706514
3.8704136443 16.5554810830 3.2952724211
2.9128912363 16.8150939594 4.4966790323
3.8483662131 17.3946418297 4.1631992722
2.6826490399 17.7516969421 19.1972471261
3.1750450692 17.5756610121 20.3689321421
3.2738320384 16.9335451888 20.9009200271
3.4078070373 17.9290313325 5.3879695516
3.3589906964 18.8166224028 6.8676090128
3.0870317357 19.3995130487 8.1577274233
3.9075318302 19.4831144949 7.4018290893
2.3715509828 19.3395928764 9.3728992019
2.1798921825 19.3084352912 13.5835402048
2.2981989714 19.2944247349 14.5041065808
2.4718776914 19.1836873254 15.9477769433
2.7622891947 18.8964912137 17.6727494270
3.3597157419 18.9529389121 19.0180461013
3.5316290037 18.4752731426 20.0480286906
4.0175521556 19.8543272577 8.0696115383
3.1593368903 19.7883281504 8.9423737241
4.3812852289 20.0835997742 8.4208018809
2.3450906940 19.6427912315 10.5287593635
2.3475105278 19.7352739427 12.3336756546
2.5201291626 19.7588667408 13.7192930582
2.8138838213 19.8250879520 15.2096106804
3.1554069274 19.7665311705 16.7256091918
3.8807514464 19.7186112703 18.2550790043
4.2372896435 19.3312891536 19.6291253002
4.3375861010 5.8313181127 8.3950915168
4.9486875489 5.8035255141 7.1578175924
5.8846273226 4.9057909089 7.9985897863
5.5293052389 4.7718836297 9.8324789235
4.3419950758 5.4762883370 10.3275783184
5.4258046101 4.7936628423 11.5758864259
4.2535143020 5.6297000342 12.0811255689
5.4668978268 4.9232875949 13.1853616156
4.6371812635 5.5961158730 13.7549529381
5.4876870719 5.0820822736 14.3482414215
4.1737081492 6.8367304190 6.6120169071
4.9572605945 6.7766082421 5.7462154394
4.9014689482 6.2008732270 6.4613408959
3.6518022096 6.4108619707 13.2659846444
5.0538303689 5.5289196125 14.9176822053
4.1945613544 6.3469131822 14.9878371129
5.3108403371 5.7676776769 16.2447739272
4.4367200837 6.6561919995 16.6978820506
5.2807755134 6.2697485766 17.5542919808
4.6581745620 6.7819724542 17.6330332114
5.0977477512 6.8234099045 18.3683273586
4.2606271171 8.1348687160 5.1326795221
5.1786611661 7.9935996273 4.3840186453
5.0351079658 7.3774648069 5.0273435078
5.0832724717 7.5226972387 19.2895072918
4.4668774631 8.1854111201 19.5625863564
4.9047135119 8.3208610992 20.1124059951
4.5918058063 9.2955819021 3.9195059413
5.3136003578 9.8127834718 3.0323115240
5.4520511208 8.7251021821 3.6111216978
4.6228283444 9.0665318805 20.5965216527
4.4084348775 9.6108158269 20.8718458998
5.2463382494 9.4259312444 21.2671647829
4.1420660498 11.0925058225 3.2152727042
5.2806427708 11.0023691550 2.3828523595
4.4821836523 10.5747253372 21.4882483980
3.7118604839 12.0024608525 21.5564897440
4.6027188096 12.2063322923 2.3025177647
5.3123533679 12.9944702456 1.8064357348
5.5104969477 11.8026616018 1.9189882163
3.3661481954 13.4249800639 21.5261094020
5.5970147328 14.0852744830 1.7129833356
3.3073395405 15.0150644462 21.4194320179
4.2980144146 15.7425244781 2.4779238234
5.4031029067 15.2396748938 2.0228530214
3.5760407353 16.7967819709 21.2472056585
5.3204114516 16.4249889301 2.8283721001
4.5906503225 17.2320335028 3.5681918177
5.4153569115 17.3509591668 3.6356495724
3.7015783751 17.8741178521 20.8696955758
4.4377880771 18.3327519325 21.1820435023
4.8375257864 17.8938744554 4.4942377481
4.6024390070 18.6376633999 5.7904553624
4.4237490206 19.2305482193 6.6972323623
5.4962182920 19.1383348927 6.3998221015
4.3220085744 18.8200710003 20.6523287052
5.0818881805 19.0093621015 21.0327644493
5.6192498844 18.9189317742 21.2236806623
5.0275873501 19.6698851178 7.3837788644
5.0497175178 20.0320191225 8.1132192258
5.6467407956 20.1403763209 8.4986415568
2.6791012673 20.0117411946 13.5040619731
2.8996327422 20.0701778975 14.5585589566
3.2106410800 20.0819062337 15.9352232516
3.7421275847 20.0743013561 17.2956580813
4.7146701555 20.1373257257 18.1989445225
5.4755083275 19.9151466040 18.9629954394
5.1987762105 19.4066523192 20.3283588739
5.7051894614 5.7382000822 6.4037366817
6.7511307804 5.5570186105 5.7751853060
6.9182968041 4.7732956153 6.7973908370
7.2789106957 4.0401756424 7.9803135729
6.9329490164 3.9957474031 9.5515737318
6.6318163869 4.1456967765 11.2266298127
6.6540582793 4.2903722476 12.9034057661
6.6492545394 4.5655162512 14.6333758420
5.9061270897 5.0972244984 15.4628497313
6.9740578318 4.7652047440 16.2377682223
6.2712566952 5.1992329325 16.5524519690
6.9939229977 5.0404439153 17.2018833623
5.9427246327 6.7244165558 5.0254807114
6.8766524690 6.9200484428 4.2771207331
7.3403493924 6.0034951231 4.9509749512
6.3699976622 5.5957602809 17.6069964933
6.0672628108 6.2953936320 18.5803286383
5.6992670580 6.8116151655 19.0420515746
6.6282674585 6.8198274612 19.6340939999
6.1175345220 7.7744054335 3.9351324481
6.3356134124 8.7517429865 3.1241142587
7.2448763310 7.6566693839 3.5346945399
6.0259749428 7.8389676514 20.3705747203
5.4552573556 8.6089687923 20.7917964263
6.5552595051 8.4528474907 21.1704863526
6.4062426454 9.9342544540 2.3620363805
6.7625711550 9.0206556503 21.7101172583
6.0853243720 10.9984270803 1.9495727986
6.6245378049 11.6563447711 1.6721480958
6.8605954263 10.5606061900 1.8568755477
5.8351642675 9.6054933229 21.7332472241
6.7938455874 13.0625125158 1.6205060553
6.4099735807 14.4031051967 1.7696183548
6.3156516562 15.2479168035 2.0464563908
5.9441558706 15.7515407109 2.2676989822
6.9586606154 15.7641297064 2.7166375047
5.9793170676 17.7269579121 4.2377282388
6.5934390181 17.0029833224 3.6748322085
6.8195029683 17.6732838698 4.5360266223
6.3650099872 18.3215192677 5.4207229754
6.5754660093 19.0251919424 6.5398319364
7.0659781211 18.9041464142 20.9964537706
6.0202233226 19.2297097839 20.8701200056
6.1335942131 19.4704239335 7.1202540223
6.5340454094 19.8177365395 8.2522726991
6.8844454280 20.1234282437 9.2522371943
5.9078929137 20.2725382543 18.1304725577
6.9195496197 20.1538397375 17.7392758787
6.7097734884 20.3641297000 17.5052008306
6.9791651734 19.7827797825 18.8862848317
6.3345810771 19.5593827301 20.0049945514
7.9972254268 3.4531625030 8.9181472029
8.2469210544 3.5012202203 7.8806737430
9.1715918128 2.9677393721 8.4932201390
8.8702874089 3.0384360084 9.8647406100
7.9587285243 3.4269597242 10.0158244268
8.5919272155 3.2010618206 10.8452519526
8.1020307689 4.8495626313 5.8273569900
8.1362530697 3.9698733244 6.9825616575
7.7420991203 3.5998746658 11.0245107808
7.8131187612 3.7354087908 12.5076669282
8.1866806896 3.9002782930 14.3328172148
8.1572003229 4.2979798471 16.0453839997
8.0462242818 4.7465170315 17.4763540193
7.3992670081 5.1986774023 17.9862126817
8.1507509801 5.1477079737 18.4909099503
7.9940823585 6.5964639645 4.1450065162
8.6462587154 5.5986671361 4.8207982218
7.4112133528 5.7772738071 18.8599224222
8.5308016407 6.3274960472 19.9845091014
7.7551943090 8.6977466042 2.6700087773
8.6422088581 7.3671888662 3.3723921722
7.5618260713 7.4913222709 20.7066734316
8.2345191782 8.3272078361 21.5194679647
7.4940032157 9.7907396945 2.0458014178
7.8555451892 10.5346898522 1.7223537604
8.6891991584 9.4344691604 2.0573421427
7.7916496574 8.8617184419 21.8753963519
6.8191856648 9.2190602905 21.9140317445
8.2731591656 11.6706009115 1.6283075205
8.1145671816 12.8046812385 1.7401694480
7.5623811766 13.8025494388 1.9006514126
8.6893511983 13.3039101967 2.1067375078
7.1051698684 14.7720552068 2.1103992640
8.4622258223 14.4905895071 2.6574585832
8.2660099558 15.5691333123 3.2467037495
7.9230605872 16.3594596445 3.7516494281
7.2805023145 17.8081184243 5.0522753114
7.9023614234 17.1984453323 4.7535803093
7.9901741312 17.8320563210 5.7870846825
7.1091769058 19.2852906478 7.4144267255
7.7549143124 18.5657309112 6.7803006155
7.4571180497 19.4445830785 8.1231444244
8.1397665757 18.9926831375 8.0389081380
8.0080889443 19.4329188839 8.9522469683
7.4981145366 19.3360058883 19.6983113695
8.5101065939 19.0154818616 19.0798454816
7.8830866209 19.4899332660 18.7600796289
7.0263507743 19.1900739841 20.5406250509
8.3319752187 18.6574684526 20.3485372695
8.4849402065 18.3281622122 21.0453441312
7.8007002167 20.1624618769 10.6171713855
7.7391682937 19.9045242990 9.7784422557
8.2481783559 20.2372380868 12.1706874422
8.5244696647 19.9280144454 11.4491968789
8.2809674263 20.3091499494 13.6960226097
8.6266429245 20.0878800743 13.1173457900
8.0587958900 20.2888914850 15.2032125616
8.4479183725 20.1590048507 14.4784610863
7.4454471892 20.2998737012 16.6334113628
8.2728712394 19.9442106352 16.1532343968
7.9039223536 19.7428356008 17.8065166544
9.0105529923 3.3151404954 7.3689876987
9.5817417804 3.6728952571 6.3982501021
10.1751692349 2.7267240678 7.5047680000
10.2843525471 2.4609805763 8.6232324315
10.0588321453 2.5672400541 9.7783595651
9.8152886178 2.7941985917 11.3544252310
8.8090223913 3.2597716253 12.0488178795
10.0074107443 2.9682067732 13.0813731379
9.0341739598 3.3935719496 13.4891637622
10.0210636286 3.1717176962 14.2209857349
9.4641249347 3.4828459175 14.6783892045
10.4480450081 3.2941831944 15.2693634512
9.5928034815 4.7097089267 5.3067225866
9.6725727873 3.7818448507 15.9699203357
9.4506876048 4.3310099534 17.4308257261
9.1294096172 4.8996518446 18.5496323040
8.6313018780 5.4569936536 19.1742258075
9.7494962201 5.4513442705 19.5161197527
9.4337538302 6.1831217434 4.1015345393
9.5608944595 5.3951710075 4.7038630059
10.2410654641 6.2951413772 20.3959975641
9.6300581351 8.2178441881 2.6839228628
9.9145490787 7.0428006102 3.3825381380
9.3055712860 7.3132891032 20.9661950002
10.2909829793 8.3453487022 21.5802277212
9.2655541963 10.3551244453 1.7327808501
10.1146579587 9.3518266084 2.0750709547
9.2717263253 8.7069691870 21.8321202618
9.9524907236 11.1935579581 1.7909056344
9.3542915430 12.3100842974 1.9545206930
10.0230572409 13.2014056013 2.6899331914
10.0277560025 14.2759216674 3.4999678343
9.2253831274 15.1512454854 3.6004047701
10.1561667094 14.9527446736 4.2064932514
8.8209472454 15.8682279964 3.8855255356
9.6640264122 15.6511704203 4.4414748243
9.0020017196 16.3963618397 4.6830220035
8.8696505063 17.8831171035 6.8022479146
9.6075417108 16.9498709241 6.2181784797
9.7371537470 17.6131457208 7.5147820915
9.3405986558 17.8883526847 20.8840272660
10.2286500316 17.3831892146 20.4057714480
9.4741258864 18.0212677971 20.2030921457
9.3463532666 17.7763976138 21.2146272961
10.3281773568 17.0605955853 21.1571572038
9.0415612276 18.2850912413 7.8479395006
8.8422916334 19.3966306290 10.3710991779
9.3077959347 18.6784344759 9.3302813771
9.3483815391 19.4109986666 11.6168821025
10.1460659159 18.6567692104 11.2363458954
9.9528860543 19.1073315149 12.3876576904
8.8737406039 19.3616610078 17.1364287180
9.5651887146 18.9325069811 16.9237065701
9.4612244732 19.2052947355 16.0340870815
8.5283526891 19.3121434219 18.1458986698
9.3919130637 18.7601771450 17.9534066774
9.3680063743 18.3641473106 19.3111824994
9.2949588514 19.6215842472 12.7372976378
9.2185157414 19.6310829635 14.4212541148
11.2313285178 2.2176590395 7.4058781094
11.0855730877 2.7674030367 6.6508141438
12.0245028720 2.0591412889 7.1961097787
11.7932379938 1.8615902596 7.9248958928
11.0916598237 3.8059899566 5.6148378126
11.0798901563 2.1288893230 8.2302336279
11.1239884783 2.1112808132 9.4564703964
11.2989575048 2.1982868785 11.1051642633
11.2062989195 2.4980542489 12.8122858842
11.1566317025 2.8613504545 14.4920517501
11.3738313509 3.1399956751 15.7855363491
10.5983249538 5.1757929465 4.6372179917
11.7281025153 5.6149378242 4.1938386280
11.8974657333 4.5369942735 4.8685179823
10.8998284268 3.4702433089 16.2947801276
10.9859488912 3.9150166121 17.4530970164
10.4826888647 4.6791868168 18.6738027762
11.1728875867 5.4243923844 19.7649979858
10.7631717518 6.2712287557 3.8207680260
11.0942873086 7.3616626474 3.1684294698
11.7129759948 6.4963091616 3.6535797481
11.5777020578 6.3316668603 20.6020854259
11.1083694389 8.6306254562 2.5716255516
10.8626952373 7.2013694989 21.0745327954
11.7066073055 8.0426761261 21.3995067337
10.5704002320 10.2517134818 1.8595199073
11.1724682553 9.5717186847 2.1811115411
10.7425335365 9.1854079064 21.8720172437
11.8436513196 9.6169416589 21.6950980297
10.9958877617 10.9158232414 1.9552313134
11.5744781304 9.9773754374 21.8990658327
10.9985231398 11.8143496779 2.3617859617
11.3273110188 12.7297885844 3.0646070497
11.1957103138 13.5051086590 3.6574828239
10.7515842419 15.3171126813 5.1966793672
11.1041058649 14.3672924641 4.4614831413
11.9018859560 14.6588249973 5.5693784149
9.9658410194 16.0901832591 5.3020350917
11.6445003217 15.4462548057 6.4104850690
10.6751009236 16.0185211448 6.0651326575
11.2410823886 16.2285111227 7.2058121195
10.9575615735 16.3940951693 21.4959005414
11.4559699200 15.7646736544 21.4844503157
11.1073840849 16.2870675011 21.3319641044
10.1874173033 17.7996698346 8.7562307247
10.7371652896 17.0292763688 8.0079907399
10.6156734197 17.9703434946 10.2068675421
11.4309515105 17.1360861959 9.6604969169
10.9180611547 18.0148978211 11.1504923755
11.5289589155 17.4810721796 11.0788712983
11.2805939028 17.9087953687 12.0294356804
10.3873068018 18.2943768268 16.7595742766
11.2840144113 17.5446785472 16.6348347494
11.2401808085 17.8301583456 15.6700104068
10.2884499823 17.9105750305 18.4334150132
11.2329510701 17.2899500588 17.6659213133
10.0998238050 17.7414912536 19.5861937668
11.0334354718 16.9718553034 19.3371117198
11.0842387702 16.5090342658 20.6613418440
10.1300404224 19.0408445393 13.5922969819
10.7619882057 18.4792860442 12.8140051061
10.2928990998 18.7558743165 15.0823057357
11.0809975256 18.2189116995 14.2322407483
12.2981999318 2.6900961829 6.2748298848
12.8423313712 1.9009991288 7.1219046301
12.5660373106 1.6103352296 8.2301087006
11.9304669550 1.7592127965 8.9364849595
12.6754313034 1.4961895807 9.7177051433
12.0890937722 1.7717511811 10.3009388471
12.8104960367 1.5604497503 11.1163349419
12.3432074274 1.8109992883 11.4754081462
12.8484750486 1.7108441728 12.1746323934
12.3027640679 3.6032697255 5.4668351162
12.2826423716 2.0267037609 12.5379154228
12.4359139911 2.3141414226 14.1419200722
12.2841080064 2.8725137629 15.8820104219
11.7870715341 3.3491641939 16.7845094265
12.5004790729 3.2787404807 17.1897040716
12.1169717572 3.6767678639 17.7446253454
12.7198116602 3.7118193060 18.1052372495
12.4832314793 5.1438784945 4.4555275538
12.7392047830 4.2392851303 4.9835469831
11.9612723035 4.4534691684 18.7975293563
12.5127594885 5.7539013507 20.1286740371
12.1243538139 7.1263141572 3.3981696666
12.5857386706 6.3576997423 3.8811589899
12.3717897825 6.6198395462 20.8022541113
11.8681418086 7.0774812975 21.0657690381
12.5160915674 7.4740848078 21.1394651700
12.1076514987 8.1043331812 3.0565264949
12.6855237854 7.5551259650 3.4363992862
12.6168357232 8.7104299641 21.3801711729
11.5267212828 10.3543837167 2.1778851282
12.1248737485 9.5005117414 2.7339025019
12.8074321387 10.0293773602 21.4291725804
11.5208607268 11.0182619757 2.2088800032
12.1544709302 10.9817663255 2.7697721613
12.1482808853 11.0480484457 21.7451620138
12.6884969147 11.5270375552 21.4245027603
12.0174199701 12.9087845394 3.6901095520
12.1018878618 12.1342781556 3.2008170009
12.6163309199 12.5526258522 3.9157833135
12.4369840196 12.9672189177 21.4631976554
12.7693336872 13.0983039925 21.1755237047
12.4286007744 13.4991491641 4.7286116277
12.6923230410 14.3637553473 5.9975695762
12.4187619449 14.3135545142 20.9832005194
12.8642464378 13.6788166251 20.8450882775
12.8415490572 14.3141750623 20.2268881848
12.0242436948 14.6895574925 21.3890293261
12.4517091761 14.9395833329 6.5702548289
11.9166256769 16.3918107387 8.6858318333
12.5473467159 15.5137474245 7.7856201149
12.3387520259 16.5100098424 9.8852632866
12.7792369830 16.0082990535 9.4488672622
12.8328700430 16.3229196817 10.5768244119
12.0919066797 16.7794262054 16.5905085036
12.8471749083 16.0544318812 16.5425742329
12.7949393226 16.3765225004 15.5762506232
12.0556196788 16.2562398754 18.3576599750
12.8316414394 15.7393042179 17.5267131846
12.0328855088 15.6124539482 20.0081517444
12.8148788026 15.1532360037 18.9908077970
11.7058850072 15.5661405889 21.0967972578
12.3238422600 16.8042793231 10.9204743700
11.7476523996 17.6478823925 13.4172377357
12.3254308211 17.0559995514 12.3935831001
12.0000822122 17.2828712135 14.9161106354
12.6495649490 16.7862673463 14.0827883441
13.0883206930 2.2921423087 6.4639180132
13.2411607564 1.9148541130 6.9324262704
13.0541432141 1.5819247503 7.8351973870
12.9737948915 1.4085422593 9.1006762620
13.0500680815 1.4151011218 10.5803152170
13.1793284361 1.5878830128 12.2256710863
13.0425849360 1.8478918758 13.2475103257
13.3974950702 1.7887398245 13.6640822185
13.2366039394 2.0070735148 14.2684418367
13.4104684495 1.9965809994 14.5125622050
12.9521633198 3.1386888675 5.7420816751
13.2808675863 2.3504856264 6.3653619760
13.0196134093 2.3995965980 15.2655127889
12.8800150870 3.1164088683 17.0226651097
13.0046556034 3.7011234294 18.1856929805
12.9270658792 5.2135362721 4.4517067981
13.0424431516 4.1444360657 5.0396601678
12.8265558634 4.5551109253 19.1297722079
13.0171607574 5.6289967768 20.0190741574
13.0199970451 6.3790456394 3.9839952550
14.1354457781 7.7750634059 11.3045162450
14.1624568059 7.5024418549 11.0714184883
14.1580888279 8.0911601488 10.7398111953
14.1079649362 7.6362444003 12.3828812129
14.1457402562 7.3082456170 11.7740397423
14.1107335022 7.5925305888 13.6693440597
14.1332335566 7.2280291726 12.9381450548
14.1477246795 7.5865422979 14.8136205182
14.1493463155 7.2338882873 14.1777677186
14.1864366669 7.6037128353 15.4886932532
14.1840719785 7.3116521928 15.1481001161
14.2034516643 7.5023306501 15.6201137564
12.8706847262 6.8446027993 20.7968748711
13.1540292775 6.8567219229 20.6313770221
12.8839717352 8.7240838532 3.3194998123
13.0630417075 7.6476007541 3.6489577004
14.1290157647 8.6921839627 10.9529928008
14.1641807657 9.0430583291 10.4788140548
14.0848072921 8.5160567709 11.9490993171
14.0706211900 8.4380702552 13.2276636648
14.1009863715 8.3689600646 14.4663277504
14.1533779702 8.2348427231 15.3541499072
14.1889332545 7.9903149979 15.7021421180
13.1062938565 7.9076128914 21.0552039248
13.4125447233 8.5250361480 20.9875571540
13.0646910249 10.3530397524 3.4795930489
13.3174804566 9.3456756053 3.6371271250
14.1533779702 9.6753144140 10.6969877468
14.1889332545 9.9198421392 10.3489955360
14.1009863715 9.5411970725 11.5848099036
14.0706211900 9.4720868819 12.8234739891
14.0848072921 9.3941003662 14.1020383368
14.1290157647 9.2179731744 15.0981448532
14.1641807657 8.8670988080 15.5723235992
13.2448616573 9.3560507960 21.1938241000
13.5039679808 10.1436428890 21.0199451092
12.8788788625 11.6825736065 3.6471647658
13.5285116590 10.7230230086 3.9922209360
13.4041042647 11.5779313331 4.1693919809
13.5833978947 11.6446410960 4.4101205894
14.1864366669 10.3064443018 10.5624444007
14.2034516643 10.4078264870 10.4310238976
14.1477246795 10.3236148392 11.2375171357
14.1107335022 10.3176265483 12.3817935943
14.1079649362 10.2739127368 13.6682564410
14.1354457781 10.1350937312 14.7466214090
14.1580888279 9.8189969883 15.3113264587
13.2674680679 10.9519075093 21.1212902647
13.5054996011 11.7978059777 20.7287329350
13.0644134915 12.4070188331 4.2951112097
13.2743596182 12.6302348009 4.7930958494
14.1840719785 10.5985049443 10.9030375378
14.1493463155 10.6762688497 11.8733699353
14.1332335566 10.6821279645 13.1129925991
14.1457402562 10.6019115201 14.2770979116
14.1624568059 10.4077152822 14.9797191656
13.1912209721 12.8551191857 20.6844382000
13.5300512465 13.2426284341 19.9752445224
13.0481031922 14.7327819230 6.9676123204
13.1100125379 13.9744853272 6.0089165550
13.2892994047 15.0412304879 7.8600988812
13.3965251465 14.6588629907 7.2977069642
13.4690383218 15.0125180507 8.0766404370
13.3657916342 15.5264720223 16.5246769116
13.6659611317 15.2316741840 16.5176875173
13.5997194045 15.6042106332 15.4914036887
13.3663655788 14.8945057896 18.1672058310
13.6259489381 14.8872396731 17.5216575832
13.3270729049 14.1100969372 19.5149065975
13.5898944353 14.2405349418 18.8233912029
13.1991713219 15.4784006147 8.8333419473
12.9888150765 16.4247333650 11.7619545896
13.1731415846 16.0338673014 10.6715014572
13.1548640414 16.3718878674 13.2956505022
13.3588673435 16.1539062235 12.4833387886
13.3032484403 16.0495583230 14.8453519616
13.5049356345 15.9795141130 14.0501068268
3 2 1 0
3 4 3 0
3 0 3 2
3 6 5 4
3 4 5 3
3 6 7 5
3 0 1 8
3 8 1 9
3 0 10 4
3 0 8 10
3 4 11 6
3 4 10 11
3 7 6 12
3 6 13 12
3 6 11 13
3 15 14 13
3 13 14 12
3 17 16 15
3 15 16 14
3 17 18 16
3 21 20 19
3 21 19 9
3 19 8 9
3 19 22 8
3 8 23 10
3 8 22 23
3 10 24 11
3 10 23 24
3 11 25 13
3 11 24 25
3 13 26 15
3 13 25 26
3 15 27 17
3 15 26 27
3 18 17 28
3 17 29 28
3 17 27 29
3 29 30 28
3 33 32 31
3 33 31 20
3 31 19 20
3 31 34 19
3 19 35 22
3 19 34 35
3 22 36 23
3 22 35 36
3 23 37 24
3 23 36 37
3 24 38 25
3 24 37 38
3 25 39 26
3 25 38 39
3 26 40 27
3 26 39 40
3 27 41 29
3 27 40 41
3 30 29 42
3 42 29 41
3 31 32 43
3 43 32 44
3 31 45 34
3 31 43 45
3 34 46 35
3 34 45 46
3 35 47 36
3 35 46 47
3 36 48 37
3 36 47 48
3 37 49 38
3 37 48 49
3 38 50 39
3 38 49 50
3 39 51 40
3 39 50 51
3 40 52 41
3 40 51 52
3 42 41 53
3 41 54 53
3 41 52 54
3 54 55 53
3 44 56 43
3 58 57 56
3 57 43 56
3 57 45 43
3 45 59 46
3 45 57 59
3 46 60 47
3 46 59 60
3 47 61 48
3 47 60 61
3 48 62 49
3 48 61 62
3 49 63 50
3 49 62 63
3 50 64 51
3 50 63 64
3 51 65 52
3 51 64 65
3 67 54 66
3 54 65 66
3 54 52 65
3 54 67 55
3 57 58 68
3 68 58 69
3 57 70 59
3 57 68 70
3 59 71 60
3 59 70 71
3 60 72 61
3 60 71 72
3 61 73 62
3 61 72 73
3 62 74 63
3 62 73 74
3 63 75 64
3 63 74 75
3 64 76 65
3 64 75 76
3 66 65 77
3 77 65 76
3 69 78 68
3 68 78 70
3 70 78 79
3 70 79 71
3 71 79 80
3 82 81 80
3 81 71 80
3 81 72 71
3 84 73 83
3 73 81 83
3 73 72 81
3 73 84 74
3 74 84 85
3 74 85 75
3 75 85 86
3 75 86 76
3 76 86 87
3 76 87 77
3 82 88 81
3 81 88 83
3 91 90 89
3 93 92 89
3 89 92 91
3 95 94 93
3 93 94 92
3 95 96 94
3 99 98 97
3 99 97 90
3 90 97 89
3 97 1 89
3 1 2 89
3 89 2 3
3 89 3 93
3 93 3 5
3 93 5 95
3 101 100 7
3 7 100 5
3 100 96 5
3 96 95 5
3 103 102 101
3 101 102 100
3 105 104 103
3 103 104 102
3 107 106 105
3 105 106 104
3 107 108 106
3 111 110 109
3 111 109 98
3 109 97 98
3 109 112 97
3 112 9 1
3 112 1 97
3 12 101 7
3 101 12 14
3 101 14 103
3 103 14 16
3 103 16 105
3 105 16 18
3 113 105 18
3 107 105 113
3 108 107 114
3 107 115 114
3 107 113 115
3 115 116 114
3 109 110 117
3 117 110 118
3 117 20 21
3 112 117 21
3 109 117 112
3 112 21 9
3 28 113 18
3 113 28 30
3 119 113 30
3 115 113 119
3 116 115 120
3 115 121 120
3 115 119 121
3 121 122 120
3 125 124 123
3 125 123 118
3 118 123 117
3 123 32 117
3 32 33 117
3 117 33 20
3 42 126 119
3 42 119 30
3 119 127 121
3 119 126 127
3 122 121 128
3 128 121 127
3 131 130 129
3 131 129 124
3 129 123 124
3 129 132 123
3 132 44 32
3 132 32 123
3 53 126 42
3 126 53 55
3 133 126 55
3 127 126 133
3 128 127 134
3 134 127 133
3 130 135 129
3 137 136 135
3 136 129 135
3 136 132 129
3 138 56 44
3 132 138 44
3 136 138 132
3 138 58 56
3 66 139 67
3 133 55 67
3 139 133 67
3 140 133 139
3 134 133 141
3 141 133 140
3 137 142 136
3 144 143 142
3 143 136 142
3 143 138 136
3 143 69 58
3 143 58 138
3 77 145 139
3 77 139 66
3 147 140 146
3 140 145 146
3 140 139 145
3 140 147 141
3 144 148 143
3 143 148 69
3 148 78 69
3 148 149 78
3 149 151 150
3 79 149 150
3 78 149 79
3 152 80 79
3 152 79 150
3 152 82 80
3 83 153 84
3 154 85 84
3 154 84 153
3 155 86 85
3 155 85 154
3 156 87 86
3 156 86 155
3 145 77 87
3 156 145 87
3 157 145 156
3 146 145 158
3 158 145 157
3 151 159 150
3 161 160 159
3 160 150 159
3 160 152 150
3 162 88 82
3 152 162 82
3 160 162 152
3 162 163 88
3 88 163 83
3 163 164 83
3 164 153 83
3 153 164 154
3 154 164 165
3 154 165 155
3 155 165 166
3 155 166 156
3 156 166 167
3 156 167 157
3 157 167 168
3 157 168 158
3 171 170 169
3 173 172 169
3 169 172 171
3 175 174 173
3 173 174 172
3 177 176 175
3 175 176 174
3 177 178 176
3 181 180 179
3 181 179 170
3 170 179 169
3 179 90 169
3 90 91 169
3 169 91 92
3 169 92 173
3 173 92 94
3 173 94 175
3 175 94 96
3 182 175 96
3 177 175 182
3 178 177 183
3 177 184 183
3 177 182 184
3 186 185 184
3 184 185 183
3 188 187 186
3 186 187 185
3 188 189 187
3 192 191 190
3 192 190 180
3 180 190 179
3 190 98 179
3 98 99 179
3 179 99 90
3 100 182 96
3 182 100 102
3 182 102 184
3 184 102 104
3 184 104 186
3 186 104 106
3 186 106 188
3 194 193 108
3 108 193 106
3 193 189 106
3 189 188 106
3 194 195 193
3 198 197 196
3 198 196 191
3 191 196 190
3 196 110 190
3 110 111 190
3 190 111 98
3 114 194 108
3 200 199 116
3 116 199 114
3 199 195 114
3 195 194 114
3 200 201 199
3 196 197 202
3 202 197 203
3 202 118 110
3 202 110 196
3 120 200 116
3 205 204 122
3 122 204 120
3 204 201 120
3 201 200 120
3 208 207 206
3 208 206 203
3 203 206 202
3 206 124 202
3 124 125 202
3 202 125 118
3 128 209 205
3 128 205 122
3 206 207 131
3 207 130 131
3 207 210 130
3 206 131 124
3 134 211 209
3 134 209 128
3 135 130 212
3 130 213 212
3 130 210 213
3 212 137 135
3 141 214 211
3 141 211 134
3 213 215 212
3 215 217 216
3 215 216 142
3 212 215 142
3 137 212 142
3 216 144 142
3 146 218 147
3 214 141 147
3 218 214 147
3 219 214 218
3 217 220 216
3 216 220 144
3 220 148 144
3 220 221 148
3 221 223 222
3 149 221 222
3 148 221 149
3 222 151 149
3 158 224 218
3 158 218 146
3 226 219 225
3 219 224 225
3 219 218 224
3 223 227 222
3 222 227 151
3 227 159 151
3 227 228 159
3 161 159 228
3 161 228 229
3 163 230 164
3 231 165 164
3 231 164 230
3 232 166 165
3 232 165 231
3 233 167 166
3 233 166 232
3 167 233 234
3 235 167 234
3 168 167 235
3 158 168 224
3 168 236 224
3 168 235 236
3 224 236 225
3 239 238 237
3 170 171 237
3 171 239 237
3 171 240 239
3 241 171 172
3 241 240 171
3 242 172 174
3 242 241 172
3 243 174 176
3 243 242 174
3 245 244 178
3 244 176 178
3 244 243 176
3 247 246 245
3 245 246 244
3 247 248 246
3 251 250 249
3 251 249 238
3 238 249 237
3 249 180 237
3 180 181 237
3 237 181 170
3 183 245 178
3 245 183 185
3 245 185 247
3 252 248 247
3 185 252 247
3 187 252 185
3 254 253 189
3 253 187 189
3 253 252 187
3 254 255 253
3 258 257 256
3 258 256 250
3 250 256 249
3 256 191 249
3 191 192 249
3 249 192 180
3 193 254 189
3 260 259 195
3 195 259 193
3 259 255 193
3 255 254 193
3 260 261 259
3 256 257 198
3 257 197 198
3 257 262 197
3 256 198 191
3 199 260 195
3 199 201 260
3 201 261 260
3 201 263 261
3 266 265 264
3 262 266 264
3 203 262 264
3 197 262 203
3 267 263 201
3 267 201 204
3 264 265 208
3 265 207 208
3 265 268 207
3 264 208 203
3 268 210 207
3 269 210 268
3 271 213 270
3 213 269 270
3 213 210 269
3 272 271 270
3 271 215 213
3 274 273 217
3 274 217 215
3 272 274 215
3 271 272 215
3 275 273 274
3 273 220 217
3 275 276 273
3 276 220 273
3 276 221 220
3 223 221 276
3 223 276 277
3 279 278 226
3 279 226 225
3 277 280 223
3 223 280 227
3 227 281 228
3 280 281 227
3 229 228 281
3 229 281 282
3 285 284 283
3 235 234 283
3 284 235 283
3 286 235 284
3 235 287 236
3 286 287 235
3 225 236 279
3 279 236 287
3 290 289 288
3 292 291 288
3 288 291 290
3 292 293 291
3 295 294 239
3 239 294 238
3 240 288 289
3 295 240 289
3 239 240 295
3 288 240 241
3 288 241 292
3 296 293 292
3 241 296 292
3 242 296 241
3 297 242 243
3 297 296 242
3 298 243 244
3 298 297 243
3 299 244 246
3 299 298 244
3 301 300 248
3 300 246 248
3 300 299 246
3 301 302 300
3 304 303 251
3 251 303 250
3 251 238 294
3 251 294 304
3 252 301 248
3 305 302 301
3 252 305 301
3 253 305 252
3 253 255 305
3 305 255 306
3 308 307 258
3 258 307 257
3 258 250 303
3 258 303 308
3 309 306 255
3 309 255 259
3 259 261 309
3 309 261 310
3 313 312 311
3 307 313 311
3 262 307 311
3 257 307 262
3 263 315 314
3 310 263 314
3 261 263 310
3 311 312 266
3 312 265 266
3 312 316 265
3 311 266 262
3 267 315 263
3 318 268 317
3 268 316 317
3 268 265 316
3 319 318 317
3 320 269 318
3 318 269 268
3 318 319 321
3 318 321 320
3 320 270 269
3 272 270 320
3 321 272 320
3 322 272 321
3 322 323 272
3 272 323 274
3 325 324 275
3 274 325 275
3 323 325 274
3 326 324 325
3 324 276 275
3 328 327 277
3 328 277 276
3 326 328 276
3 324 326 276
3 330 329 327
3 330 327 328
3 331 329 330
3 334 333 332
3 336 335 332
3 336 332 333
3 278 279 335
3 336 278 335
3 337 278 336
3 327 280 277
3 280 327 281
3 281 327 329
3 339 338 282
3 339 282 281
3 331 339 281
3 329 331 281
3 341 340 338
3 341 338 339
3 343 342 340
3 343 340 341
3 345 344 342
3 345 342 343
3 347 346 344
3 347 344 345
3 284 285 346
3 347 284 346
3 348 284 347
3 332 286 334
3 286 348 334
3 286 284 348
3 286 332 287
3 287 332 335
3 287 335 279
3 351 350 349
3 289 290 349
3 290 351 349
3 290 352 351
3 353 290 291
3 353 352 290
3 355 354 293
3 354 291 293
3 354 353 291
3 357 356 355
3 355 356 354
3 359 358 357
3 357 358 356
3 359 360 358
3 349 350 295
3 350 294 295
3 350 361 294
3 349 295 289
3 296 355 293
3 355 296 297
3 355 297 357
3 357 297 298
3 357 298 359
3 362 360 359
3 298 362 359
3 299 362 298
3 363 299 300
3 363 362 299
3 365 364 302
3 364 300 302
3 364 363 300
3 365 366 364
3 368 367 304
3 304 367 303
3 304 294 361
3 304 361 368
3 305 365 302
3 305 306 365
3 306 366 365
3 306 369 366
3 371 370 308
3 308 370 307
3 308 303 367
3 308 367 371
3 372 369 306
3 372 306 309
3 309 310 372
3 372 310 373
3 375 374 313
3 313 374 312
3 313 307 370
3 313 370 375
3 376 373 310
3 376 310 314
3 374 316 312
3 377 316 374
3 377 378 316
3 316 378 317
3 319 317 378
3 319 378 379
3 381 321 380
3 321 379 380
3 321 319 379
3 382 381 380
3 383 322 381
3 381 322 321
3 381 382 384
3 381 384 383
3 383 323 322
3 384 385 383
3 385 323 383
3 385 325 323
3 387 386 326
3 325 387 326
3 385 387 325
3 388 386 387
3 391 390 389
3 393 392 389
3 393 389 390
3 386 328 326
3 388 394 386
3 394 328 386
3 394 330 328
3 396 395 331
3 330 396 331
3 394 396 330
3 398 397 395
3 398 395 396
3 399 397 398
3 402 401 400
3 404 403 400
3 404 400 401
3 333 334 403
3 404 333 403
3 405 333 404
3 389 336 391
3 336 405 391
3 336 333 405
3 336 389 337
3 337 389 392
3 395 339 331
3 339 395 341
3 341 395 397
3 399 406 397
3 406 341 397
3 406 343 341
3 343 407 345
3 406 407 343
3 400 347 402
3 347 407 402
3 347 345 407
3 347 400 348
3 348 400 403
3 348 403 334
3 410 409 408
3 408 411 410
3 408 409 351
3 409 350 351
3 409 412 350
3 413 411 408
3 351 413 408
3 352 413 351
3 414 352 353
3 414 413 352
3 415 353 354
3 415 414 353
3 416 354 356
3 416 415 354
3 417 356 358
3 417 416 356
3 358 360 417
3 417 360 418
3 421 420 419
3 412 421 419
3 361 412 419
3 350 412 361
3 422 418 360
3 422 360 362
3 423 362 363
3 423 422 362
3 424 363 364
3 424 423 363
3 364 366 424
3 424 366 425
3 428 427 426
3 428 426 420
3 420 426 419
3 426 367 419
3 367 368 419
3 419 368 361
3 369 425 366
3 369 429 425
3 426 427 371
3 427 370 371
3 427 430 370
3 426 371 367
3 431 429 369
3 431 369 372
3 372 373 431
3 431 373 432
3 434 433 375
3 375 433 374
3 375 370 430
3 375 430 434
3 373 376 435
3 436 373 435
3 432 373 436
3 433 377 374
3 437 377 433
3 438 436 435
3 437 439 377
3 377 439 378
3 379 378 439
3 379 439 440
3 440 441 379
3 379 441 380
3 443 442 382
3 380 443 382
3 441 443 380
3 444 442 443
3 445 384 442
3 442 384 382
3 442 444 446
3 447 442 446
3 445 442 447
3 448 447 446
3 451 450 449
3 445 385 384
3 385 445 387
3 387 445 447
3 453 452 388
3 453 388 387
3 448 453 387
3 447 448 387
3 455 454 452
3 455 452 453
3 457 456 454
3 457 454 455
3 458 456 457
3 461 460 459
3 463 462 459
3 463 459 460
3 465 464 462
3 465 462 463
3 390 391 464
3 465 390 464
3 466 390 465
3 449 393 451
3 393 466 451
3 393 390 466
3 452 394 388
3 394 452 396
3 396 452 454
3 396 454 398
3 398 454 456
3 468 467 399
3 468 399 398
3 458 468 398
3 456 458 398
3 470 469 467
3 470 467 468
3 469 470 461
3 469 461 459
3 402 469 459
3 401 402 459
3 401 459 404
3 404 459 462
3 404 462 405
3 405 462 464
3 405 464 391
3 467 406 399
3 406 467 407
3 407 467 469
3 407 469 402
3 472 471 410
3 410 471 409
3 474 473 411
3 473 410 411
3 473 472 410
3 476 475 474
3 474 475 473
3 478 477 476
3 476 477 475
3 478 479 477
3 471 412 409
3 480 412 471
3 413 474 411
3 474 413 414
3 474 414 476
3 476 414 415
3 476 415 478
3 481 479 478
3 415 481 478
3 416 481 415
3 482 416 417
3 482 481 416
3 484 483 418
3 483 417 418
3 483 482 417
3 486 485 484
3 484 485 483
3 486 487 485
3 489 488 421
3 421 488 420
3 421 412 480
3 421 480 489
3 422 484 418
3 484 422 423
3 484 423 486
3 490 487 486
3 423 490 486
3 424 490 423
3 424 425 490
3 490 425 491
3 492 427 428
3 493 492 428
3 420 493 428
3 488 493 420
3 429 495 494
3 491 429 494
3 425 429 491
3 495 496 494
3 498 497 492
3 497 427 492
3 497 430 427
3 498 492 493
3 431 495 429
3 431 432 495
3 432 496 495
3 432 499 496
3 500 433 434
3 501 500 434
3 430 501 434
3 497 501 430
3 436 499 432
3 436 502 499
3 503 437 500
3 500 437 433
3 500 501 504
3 500 504 503
3 436 438 505
3 506 436 505
3 502 436 506
3 503 439 437
3 508 507 440
3 508 440 439
3 504 508 439
3 503 504 439
3 509 507 508
3 506 505 510
3 506 510 511
3 507 441 440
3 509 512 507
3 512 441 507
3 512 443 441
3 444 443 512
3 444 512 513
3 516 515 514
3 514 515 511
3 510 514 511
3 517 514 510
3 513 518 444
3 444 518 446
3 520 519 448
3 446 520 448
3 518 520 446
3 522 521 519
3 522 519 520
3 523 521 522
3 526 525 524
3 528 527 524
3 528 524 525
3 530 529 527
3 530 527 528
3 529 530 516
3 514 529 516
3 531 529 514
3 451 531 450
3 531 517 450
3 531 514 517
3 519 453 448
3 453 519 455
3 455 519 521
3 523 532 521
3 532 455 521
3 532 457 455
3 534 533 458
3 457 534 458
3 532 534 457
3 536 535 533
3 536 533 534
3 535 536 526
3 535 526 524
3 461 535 524
3 460 461 524
3 460 524 463
3 463 524 527
3 463 527 465
3 465 527 529
3 465 529 466
3 466 529 531
3 466 531 451
3 533 468 458
3 468 533 470
3 470 533 535
3 470 535 461
3 537 471 472
3 537 472 538
3 472 539 538
3 472 473 539
3 540 473 475
3 540 539 473
3 541 475 477
3 541 540 475
3 543 542 479
3 542 477 479
3 542 541 477
3 545 544 543
3 543 544 542
3 545 546 544
3 548 547 537
3 547 471 537
3 547 480 471
3 548 537 538
3 481 543 479
3 543 481 482
3 543 482 545
3 549 546 545
3 482 549 545
3 483 549 482
3 550 483 485
3 550 549 483
3 485 487 550
3 550 487 551
3 553 552 489
3 489 552 488
3 489 480 547
3 489 547 553
3 554 551 487
3 554 487 490
3 490 491 554
3 554 491 555
3 552 493 488
3 556 493 552
3 559 558 557
3 561 560 557
3 561 557 558
3 563 562 560
3 563 560 561
3 565 564 562
3 565 562 563
3 567 566 564
3 567 564 565
3 568 566 567
3 491 494 569
3 570 491 569
3 555 491 570
3 496 569 494
3 571 497 498
3 572 571 498
3 493 572 498
3 556 572 493
3 559 557 573
3 559 573 574
3 575 557 560
3 573 557 575
3 576 560 562
3 575 560 576
3 577 562 564
3 576 562 577
3 578 564 566
3 577 564 578
3 566 568 579
3 566 579 578
3 570 569 580
3 570 580 581
3 499 580 496
3 496 580 569
3 582 501 571
3 571 501 497
3 571 572 583
3 571 583 582
3 574 573 584
3 574 584 585
3 586 573 575
3 584 573 586
3 587 575 576
3 586 575 587
3 588 576 577
3 587 576 588
3 589 577 578
3 588 577 589
3 578 579 590
3 578 590 589
3 581 580 591
3 581 591 592
3 502 591 499
3 499 591 580
3 593 504 582
3 582 504 501
3 582 583 594
3 595 582 594
3 593 582 595
3 596 595 594
3 585 584 597
3 585 597 598
3 599 584 586
3 597 584 599
3 600 586 587
3 599 586 600
3 601 587 588
3 600 587 601
3 602 588 589
3 601 588 602
3 589 590 603
3 589 603 602
3 592 591 604
3 592 604 605
3 506 604 502
3 502 604 591
3 593 508 504
3 508 593 509
3 593 606 509
3 593 595 606
3 595 596 607
3 595 607 606
3 608 598 597
3 608 597 599
3 608 599 609
3 609 599 600
3 609 600 610
3 610 600 601
3 610 601 611
3 611 601 602
3 611 602 612
3 612 602 603
3 605 604 613
3 605 613 614
3 511 613 506
3 506 613 604
3 606 512 509
3 616 615 513
3 616 513 512
3 607 616 512
3 606 607 512
3 618 617 615
3 618 615 616
3 619 617 618
3 622 621 620
3 624 623 620
3 624 620 621
3 626 625 623
3 626 623 624
3 625 626 614
3 625 614 613
3 516 625 613
3 515 516 613
3 515 613 511
3 615 518 513
3 518 615 520
3 520 615 617
3 619 627 617
3 627 520 617
3 627 522 520
3 629 628 523
3 522 629 523
3 627 629 522
3 631 630 628
3 631 628 629
3 633 632 630
3 633 630 631
3 632 633 622
3 632 622 620
3 526 632 620
3 525 526 620
3 525 620 528
3 528 620 623
3 528 623 530
3 530 623 625
3 530 625 516
3 628 532 523
3 532 628 534
3 534 628 630
3 534 630 536
3 536 630 632
3 536 632 526