OFF
621 1192 0
1.1673089759 6.8385927548 7.0977225970
1.2938840420 6.8089468052 6.4757511254
1.3893758892 6.3291513080 6.5963983975
1.3573866138 6.2382637356 7.3082297246
1.1069065161 6.8903466930 7.8981459264
1.3107064133 6.3500177164 8.0613645242
1.1546810294 7.3104007611 6.8540942855
1.0090466473 7.6787755737 7.6835930909
1.1686281088 8.0272971318 6.9394040344
1.1602371694 6.7983521280 8.5750499872
0.9729915323 7.5958932687 8.8258510965
1.2182151475 6.9577903293 9.4130040713
1.0136928411 7.7831507066 10.0543460069
1.4012623345 7.0383332963 10.5766127865
1.1144819789 7.9092983059 11.1508673104
1.4731633192 7.3674776684 11.6663004744
1.2825671338 8.0053141530 12.0864188695
1.5726169298 7.5633980707 12.3573152256
1.0134172510 8.6808890043 7.7372675490
1.2603290953 8.9413990470 7.0434222387
0.8858570509 8.5559322889 8.6101057197
0.8640878465 8.5774970355 9.6335521014
0.9245955572 8.6576302339 10.7125961830
1.0542382372 8.6639625653 11.7240270728
1.6651435252 7.9525997392 12.8703556555
1.3087120161 8.6297344638 12.5901516946
1.6842038978 8.5750716977 13.2592692285
1.1108845325 9.3909190831 7.7277159752
1.3374676530 9.7116662976 7.3459886998
0.9796360601 9.4951987366 8.5202680238
0.8753652688 9.2769849827 9.3032257628
0.9434215254 9.5436588393 10.2567475291
1.0342778877 9.4404869494 11.3526950805
1.2004136491 9.3328023424 12.2861731320
1.5072862910 9.2257521187 13.0790142153
1.2098823048 10.0520317014 8.0763862845
1.1194307623 10.2438048786 8.7760152712
1.0227903838 10.0764895335 9.4534563788
1.2124383792 10.6316057093 9.2375850680
1.1156944444 10.3289751607 10.2096772452
1.1944400542 10.2381492246 10.9860909205
1.3266562761 10.0917365561 11.9715860237
1.4698776903 9.8479764880 12.7616087323
1.2169244436 10.6703765073 9.7920391037
2.0732426262 4.9825634859 5.5930749837
2.2695982807 4.8580595809 4.8945470794
2.4255761455 4.4340996827 5.2435752733
2.3694594419 4.3798665474 5.8470490176
2.0306991696 5.6274403074 4.8876756480
2.4187958803 5.3941733715 4.1114358834
2.3145219283 5.0416345955 4.5280070185
1.8218841460 5.6003337350 5.6542438012
2.1324339580 4.7584719066 6.3240644426
1.7411795377 5.5647994956 6.5116107657
2.1399663449 4.8510790652 7.1871126526
1.7101337214 5.6605930887 7.8701092943
2.3049570848 4.8817508050 8.3384288372
1.9383233351 5.6157748302 9.0492341152
2.6779599436 4.9101388155 9.6530470309
2.1149107789 5.7235492429 10.0275510311
2.5674449101 5.4102913011 10.5056409773
2.2463081004 6.4065755267 4.0698701452
2.7485071127 6.7159652650 3.2633904017
2.6323366094 5.8683770032 3.5313002376
1.8691070873 6.6514200066 4.8836833417
1.6066613848 6.3909883765 5.7933222600
1.4508670791 6.2706667948 8.7677472604
1.6236904696 6.3104984526 9.7302893868
2.2598288945 5.8471175043 10.7160397614
1.8727151901 6.2939071204 10.6013979212
2.1945148652 6.1661224818 11.1874022966
2.3570659178 7.2209557886 3.7730846449
2.0291205637 7.4907733641 4.5042136821
2.3642214914 7.9436449062 3.9341199651
1.6658998439 7.4360541639 5.4511209061
1.3589301335 7.3557767283 6.2526900415
1.8511286225 6.7031079447 11.3893867307
1.9626569574 7.0562800033 12.3187198728
1.7888640120 7.4843584730 12.6915546172
2.1644599258 7.3897717858 13.0703398384
2.1556674253 8.3151038259 4.4947259139
2.4500393313 8.6178942462 4.1713706024
1.8781165912 8.4937930292 5.3004327946
1.4738888851 8.2936327053 6.2101018858
2.3452092971 8.0481316151 13.7554550690
1.9830863596 9.0008730062 13.7548790194
2.4961344537 8.7512843009 14.2872695115
2.2740941686 8.9808943882 4.7723553987
2.0871554447 9.3624808646 5.4538279670
1.7138196466 9.5322424655 6.4047238051
2.2936550211 10.0917663748 5.7883061807
1.8771911805 9.8875475614 13.5288407526
2.3704018719 9.4911024266 14.2815345234
2.0929445806 10.6884494890 6.6528686241
2.7452596940 10.9288704441 6.0768632561
1.6047441035 10.5385046268 7.5627798105
1.3591936731 10.7122646773 8.6060704665
1.3787906680 10.8600607739 10.4575313344
1.6165066835 10.9343630024 11.5251329252
1.7660001502 10.5889247390 12.7335387266
2.0791606211 10.6115130989 13.5720896390
2.3526631975 10.3180588955 14.1799975721
2.4411015935 11.3376436116 6.7456592212
2.9057716858 11.5262595884 6.5789187517
2.1185519585 11.4261664664 7.4701802791
1.7134900893 11.2941218908 8.4744389619
1.4742196844 11.1232929151 9.5315406559
1.7544038854 11.4899080508 10.6223324120
1.9553851364 11.5744826029 11.5177341736
2.0280798887 11.3596885858 12.3268650450
2.1922603029 11.1626919065 13.2687043825
2.3808363918 10.9398150926 13.9594099630
2.7231904593 11.7867508627 7.1338474465
2.5648309342 11.9618166451 7.6512326067
2.1529804826 11.8006868887 8.1938983389
2.8499719728 12.1593768512 7.8918866762
1.7970866784 11.6202139317 9.4950765476
1.9675755559 11.8559464962 10.6670174081
2.0499663865 11.8588267943 11.2146352186
3.2263317965 3.6157565575 4.5786864011
3.3252132389 3.9382420316 3.8344772394
3.7072838525 3.2658105265 4.0837759173
3.6679264831 2.9379754513 5.0370054812
2.8974000702 3.7602256326 5.5890945203
3.5652944100 2.8948267821 6.2401318621
3.0527015731 3.5378159866 6.9003791248
3.8037116660 2.8033488080 7.5388576486
3.2084313938 3.5552152429 7.9647324961
3.6854995702 3.1740962835 8.3839230091
2.7209030261 4.4747162126 4.4087290081
3.1026713802 4.5413817252 3.5896392424
2.5034686577 4.2102778365 6.5625349147
2.6515466537 4.1803332424 7.6026526512
3.4372748303 3.5711751005 8.7332172587
2.9654365842 4.1538578159 8.7576790194
3.6979722974 3.7631043088 9.5776755399
3.1546508145 4.2840187738 9.5434175806
3.4961410336 4.3482584765 10.2268745947
2.8396260318 5.1416022958 3.5754847084
3.1226582445 5.7551288363 2.9458010454
3.2195924479 4.9586052189 3.1314641107
3.2700155515 4.9551283573 10.9031432953
2.7163374073 5.6841818143 11.3277858234
3.4806438648 5.3140004306 11.8905798475
3.0418707796 5.8893990609 12.2682220749
3.5988114434 5.5713037302 12.5412383042
3.3118029961 6.5981015048 2.6475837322
2.3975712931 6.3382506866 11.9143346634
3.4444135655 5.9914226656 12.9836780317
2.7581602633 6.6164189338 12.9414407347
3.3902285997 6.3911882728 13.4563170057
3.1568758951 6.8124925836 13.6730555541
3.6594129615 6.6195484455 13.8933815735
2.6576667885 7.5789026132 3.4275575385
3.2348516933 7.5750517619 2.9168648862
2.7280229045 7.2243910272 13.5845353518
3.3841523907 7.3181103573 14.2178648097
2.8297178841 8.3969126381 3.5788480644
3.3749530046 8.4790392214 3.1366547451
3.0603716291 8.2169723318 14.5506476341
2.9549774917 9.0223304304 14.7752356982
3.6510919815 8.4286186693 15.0583852108
3.2161083148 9.0096307744 3.5783793236
3.7455401520 9.0013032283 3.2895014625
2.8472054358 9.3405617298 4.3021148718
2.4515335953 9.6306444603 5.0774668492
2.8398677578 9.9280219037 14.7864003286
3.5006872348 9.3318232006 15.2489627951
3.5404499848 9.5264346765 3.8891223404
3.4208533768 9.9695715522 4.5036942501
2.9477668647 10.2332093514 5.1688361494
3.7835067944 10.4788490308 5.0306160254
2.8013226127 10.8925509213 14.6081540646
3.2365636874 10.4080599838 15.1671070718
3.4147182891 10.8642108969 5.6114682591
3.5480906704 11.3949777218 6.2508858083
2.2273076168 11.8756717115 11.9778100952
2.3619751229 11.6892961088 12.9403808376
2.6069039386 11.4810716631 13.9360530915
3.0404701120 11.5412456852 14.6436169060
3.3336523843 11.2740674215 15.0617156392
3.4135049586 11.8320685588 6.9343971043
3.3279243684 12.1302513197 7.6345836404
3.6031910471 12.3232319305 8.0983207199
2.1859727217 12.0178669943 11.4254217835
2.3262553604 12.0544397906 11.9726052850
2.4155097150 11.9584920735 12.5896545610
2.5948052010 11.8232936872 13.4775411279
2.9524712932 11.7753072435 14.3073500741
3.6350314756 11.8561249406 14.8990933425
4.1459152034 2.3167578859 5.6924897967
4.2466423934 2.3848055471 4.8846268745
4.7390234698 1.9561028893 5.1091992864
4.8036754151 1.7280932414 6.1626481102
4.1817445748 2.2500352682 6.7351633639
4.8866132191 1.7384216460 7.3699865503
4.2967912955 2.2262071977 7.4241251730
4.5928736274 2.2343428593 8.0579963761
3.8361924500 3.6714182746 3.3216243926
4.3805858112 3.4205753484 2.9053392441
4.1724694523 3.0841035522 3.5766718178
4.1932411057 2.7031955752 4.2253913143
4.3526379937 2.7529049540 8.7057129250
3.9132889227 3.2616561235 9.0750683834
4.4988798061 3.0538394516 9.5379576289
4.0961233691 3.3489656038 9.5624527262
4.4333134739 3.3954532760 10.0401427752
4.0572490069 4.2118270922 2.5595216420
4.5732078431 4.1907382109 2.0083390598
4.4779326318 3.7794987073 2.3999083164
3.5083270849 4.3701924568 3.1396341255
4.4707164102 3.8510570634 10.7093436684
3.9789083671 4.4128260796 11.0176311249
4.5861187157 4.2581986994 11.4623482551
4.2086769121 5.0715254961 1.9346542148
4.7499652791 5.3013464030 1.4261513340
4.7488394291 4.6675138902 1.5791273902
3.6133961560 5.0546152376 2.6056716001
4.2298178897 4.7459309105 11.8055315655
4.1788648465 5.2256031974 12.5506472497
3.9630995116 5.6276696375 12.9961173972
4.6266464984 5.4722421099 13.2395485743
4.2808705371 5.9913165753 1.7117905399
4.8291802897 5.9539918850 1.3768917274
3.7099097148 5.9258547562 2.2644460939
4.0539796141 6.0610571279 13.5687537490
4.4167157627 6.6439765047 14.2706743822
4.5160017394 6.5283924115 1.6507542447
3.9464507175 6.8887880102 2.1788013366
4.8006342443 7.1138172259 1.9352436964
4.1826495971 7.3187519411 14.7120630748
3.7186428494 7.8001762894 14.7980998676
4.3918882881 7.8017392506 15.0959308818
4.1188288453 8.1247316064 2.6643669983
5.0411511569 7.9314617905 2.4058686246
4.3649703945 8.4535209061 15.4166946382
4.8205887665 8.5160357383 2.8252627711
4.4577752005 8.9751783154 3.2171414171
4.1042212599 9.4622605434 3.6557731106
4.8208687348 9.4875193459 3.8458843871
3.9832919777 9.0843332699 15.5081297979
3.5492657871 9.9465477894 15.4104866322
4.2039733364 9.9667490891 4.3320653557
4.6580150015 10.4816998731 5.0783465841
3.4987637654 10.8731325224 15.3066836287
4.2698203455 10.9948278127 5.7416850323
4.3448989551 11.4334403224 6.4046169091
3.9455543239 11.6691339887 15.1562206450
4.0302476188 11.7206857427 6.7741943480
4.2273540909 11.9686169451 7.5021845788
4.1446857868 12.3853402687 8.5042873761
4.2717151637 12.2496828652 8.3413595270
4.6552931582 12.3328108585 9.0249426872
4.1895004947 12.1945164766 14.8880621665
4.5425755336 12.1096246267 14.8542604269
4.5024852973 12.3029529240 14.7612083244
4.8685727667 11.8538725384 15.1923620377
5.3065887779 1.3305147137 6.8136163760
5.4116095351 1.3066861176 6.0938787072
5.9771143453 1.0755240996 6.5187704684
5.7563490131 1.1528084631 7.3385428683
5.3239217796 1.3356687190 7.3611871094
5.5536531182 1.3715587292 7.8379259156
4.8577792548 2.6264236047 3.4557324492
5.5107379148 2.6054503164 2.8273604707
5.6124758930 2.1545878744 3.3564017841
5.4380059591 1.8240870046 4.2455292843
4.6714370538 2.2496768623 4.3724816986
5.3483861317 1.4976522081 5.3456155624
5.5010564740 1.7883663900 8.4695486308
5.0297454078 2.2806713970 8.8114799988
5.5933027426 2.1659263242 9.1971405686
5.0343338046 3.3622598149 2.3722159536
5.6559518724 3.5306817662 1.8704804514
5.9062710922 2.9169570711 2.2964664070
5.2485297711 2.6185636822 9.5542492016
5.1263539276 3.0916358616 10.2265507525
4.8780753606 3.4091600372 10.5252007564
5.5406584224 3.4122612263 11.0147721234
5.1466079021 4.0635797408 1.6911526710
5.2637259737 4.6660586600 1.3515345597
5.7936880202 4.0509836566 1.5030112678
5.3565047253 3.9782966628 11.7085808019
4.9859548596 4.4038230275 12.0355161599
5.5239805727 4.3231249334 12.3445515854
5.3850254549 5.3189595729 1.2438773525
5.2631905322 4.8260099619 12.7736782640
5.3466921366 5.3784466957 13.5068969822
5.2938707836 5.9444263328 1.3229783469
4.9743134973 6.4148990331 1.4929962954
5.6318249239 6.3122143507 1.6024236344
4.9767062869 5.8983983049 13.8617734942
5.6690519058 6.3300248269 14.4082758004
5.7271803210 7.2065622214 2.0893269300
5.0386193421 7.1337072353 14.8504051643
5.3994491354 7.7772099076 15.3030941476
5.7986904796 7.8951062676 2.5707457051
5.3223771505 8.3722611986 2.7784477601
5.7473949558 8.3897933496 2.9897158096
5.0854668935 8.2105186797 15.5283634226
4.4937911385 8.5811311845 15.5761012209
5.4533450815 8.8504900271 3.4008504123
5.5550454289 9.4019484768 4.1015410475
5.3445542944 9.9115176434 4.6609254925
5.3748188604 10.4134181602 5.3276981748
5.0548846463 10.7708158827 5.6727257608
4.7090184041 11.6308918891 7.0168636245
5.2160104221 11.1142719552 6.4906004818
4.9687819556 11.7790308813 7.6694264281
5.4332275600 11.4362102878 7.4674708456
5.4457481827 11.6573613803 8.1258479636
5.2495375872 11.7032229541 15.4149597296
5.5286681482 11.5241069417 15.4535707028
5.4541687955 11.6200458529 15.2861380447
4.9591437619 11.9633672494 8.3042412714
5.1565941286 12.2809769941 9.8973880612
5.1446873327 12.1141815845 9.2754924988
5.4285507298 12.2741798237 10.7920421752
5.5202210082 12.1152546551 10.4023577172
5.5511099007 12.2616705366 11.4271456130
5.6733936948 12.1340227141 11.3470178865
5.7090832678 12.1370084024 12.0872291124
4.8720460181 12.2904703763 14.4689605822
5.2566735461 12.1201366034 14.2678239199
5.2678460562 12.2361192943 13.9971464246
5.3125852394 11.8600738953 14.8286079578
6.0535696225 1.2941752847 4.8943810718
6.2632460888 1.4646265681 4.0939276349
6.9158356106 1.1724987565 4.5281893655
6.5877757192 1.0442998460 5.6830335268
5.8477639017 1.1780743353 5.6841477507
6.6921981647 1.0091459498 6.6652212102
6.4157464189 1.0585729173 7.3646138026
6.1394189967 1.2145287739 7.9831304309
5.8943946210 1.4047253941 8.2881250000
6.3926922233 1.5351353685 8.6554242014
6.2245672763 2.2042082148 2.8802751773
6.0745549984 1.7872661008 3.5639020634
6.2132853609 1.9795957900 9.2659568687
6.0098380727 2.3563295629 9.7326056104
6.7379139357 2.3762613928 9.9319329151
6.4940337833 3.4207815037 1.8567126879
6.5962673294 2.6356971440 2.3255888279
6.2151857510 2.8500271299 10.5112379123
6.4520982688 3.2685674319 11.3479518675
5.8749397358 4.6367674898 1.2891853129
6.3470379916 4.1652399325 1.4869180599
6.2785599682 3.6612246791 11.8315283423
6.1214241353 4.1141791316 12.3769515468
5.8626409079 4.4230629548 12.6665271633
6.4875218899 4.5532240650 13.0014527397
5.9867394450 5.1022543341 1.2861742679
5.7500027662 5.6098331770 1.3269519275
6.4229077072 5.3648724304 1.5689292698
6.0873907211 5.1722550690 13.5425234378
5.7291903779 5.6669086132 13.9262323202
6.5003001023 5.7060207489 14.0977863534
6.5607619420 6.3576236877 1.9845313036
6.8197382485 6.3912398243 14.5717700783
6.3720610973 7.1024704266 2.2383471137
6.0907956159 7.4596404011 2.3315250200
6.5318830559 7.4986045130 2.6293387353
6.1437851376 7.0696514778 14.9504517643
6.6590444183 7.8327655919 15.2840193824
5.9570503919 8.5089052696 3.2688535948
6.3397703381 8.1064643929 3.1245539679
6.3195825304 8.5405287629 3.6466297852
6.0061471790 8.0725516427 15.4694492574
5.8763674517 9.5124775350 4.4769531960
6.3123670422 9.0150687262 4.2881619633
6.2512665197 9.5562490911 4.9608880236
5.7443087478 10.5791923282 5.9739040048
6.0423146068 10.0717193956 5.4918307008
6.0524500253 10.7077551159 6.6465847889
6.6275524800 10.1394487553 6.4550884504
6.5302275821 10.5537136228 7.1418922364
5.9723513753 11.1729659497 15.3371844524
6.4872404917 10.5380300481 15.3644749423
6.5221347299 10.6976137466 15.1519767135
6.0312135676 10.9801014552 7.3096788911
5.6591052239 11.6983914215 8.9050797082
6.0996865959 11.2292934429 8.2991768444
5.8657273400 11.7488021802 9.9482098187
6.3585917571 11.2697398315 9.4527165010
6.0300052281 11.7790070865 11.0512098231
6.5171884818 11.3065794118 10.5656561155
6.0585766302 11.8326694570 12.2428425697
6.6842399054 11.2976917486 11.7762805856
6.1519962246 11.7140441533 13.2524622942
6.6198113795 11.3747279675 12.8821739110
5.9251656515 11.6967902375 14.1302864393
6.4991487172 11.3748418177 13.6959163361
5.9592705954 11.3795083557 14.9372487551
6.6506853473 10.9929235343 14.4821143995
5.7114325751 12.0276287110 13.3183658863
6.8414472162 1.6077895324 3.4740251444
7.6080685059 1.7516888938 3.1057994525
7.6722201835 1.3176849089 3.8918695699
7.6200248708 1.1043315023 4.6960420735
7.2998645821 1.0454828381 5.3100639044
7.3461693028 1.1671453490 6.3455367457
7.0877937332 1.1907502967 7.3847484278
6.7910669074 1.2792862249 8.1137385728
7.0701112896 1.6249881012 8.7311714404
7.0480642707 2.1278189734 2.6980610674
7.2742064216 2.7690658135 2.2303343256
7.6341643602 2.2116005128 2.6158119196
6.9564541196 1.9700861547 9.3045948156
7.5301194217 2.5488117455 9.8181321428
7.2022854518 3.4024446043 1.9515168579
7.3387539570 2.8560902985 10.6044620564
7.1502731961 3.1628522243 11.3112137586
6.9756998506 3.4684087168 11.8305144917
7.7277852063 3.5495993077 11.9399177759
6.3761292743 4.6699789020 1.4055746031
7.0509121279 4.2306774229 1.7874651756
7.1269637389 3.9473081635 12.4431822377
7.7072677000 4.5594305105 13.1759317165
7.3904850481 5.3489008599 2.0916124809
7.0939753178 5.1190324527 13.6780905584
7.5057776880 5.7885894655 14.1842571069
7.3200357567 6.2275567545 2.3330560287
7.8141523764 6.5561093334 14.5686065334
6.9430237093 6.8632172539 2.4205631620
7.1349690314 7.2188720845 2.8419297216
7.1883724202 7.1265520518 14.9444000392
7.5087523680 7.7886926422 15.1224365474
6.9431488762 7.6554522545 3.1334078689
6.7365657720 8.5334677267 4.0651681645
7.0160932644 8.0352204551 3.7581790580
7.1411903859 8.4309604823 4.5206725956
6.7862774109 8.5471891004 15.4163175139
7.3971781802 8.6421564234 15.2408680008
6.8028532869 9.5917524157 5.7724131464
6.9975822759 9.0123677960 5.1921591871
7.1357102875 9.6075339676 6.3522672380
7.5852706608 8.9774781641 6.2394076772
7.4015147408 9.6142149383 6.9528810270
6.9811056791 9.7129107381 15.2987097428
7.5059022416 9.5756902261 15.0757419985
6.7011594595 10.6598428009 7.9230574220
7.0956179735 10.1534244865 7.4572284605
6.8940698687 10.7351054446 8.9512090787
7.3755130134 10.1892156213 8.4327534589
7.0503938933 10.7926964787 10.0559137854
7.6501278378 10.1856276705 9.5586728115
7.1573378228 10.8489625772 11.1161337112
7.6938622041 10.3457666428 10.6831731804
7.2894734332 10.8359714670 11.9259385136
7.7426418124 10.4372430796 11.6638974204
7.6740101471 10.5606549808 12.3862328674
7.1008499154 10.2588446308 14.9709834184
7.4902394158 10.0247379207 14.8688884553
7.3744039744 10.3905338001 14.4914070661
7.2046917412 10.9289414777 12.6405175400
7.1524662120 10.8602975332 13.6474300151
8.0854226013 1.6212484608 3.4482527836
8.2373805843 1.4581804393 3.9356346306
8.1147426304 1.2856820074 4.5290855839
7.9129241602 1.2810024369 5.4462269156
7.9735482397 1.6894266687 6.5256007602
8.3369012570 1.8793038273 5.8006315741
7.6633281911 1.6115373666 7.4030014514
7.3924179649 1.5969719388 8.2163007236
7.8850068127 2.6119931864 2.4777281430
8.1455869027 2.1771603477 2.9982934653
8.3104576001 2.4054649968 6.6693341953
8.5680810117 2.6584153157 5.9984420000
8.0715966316 2.2603752947 7.4530483382
7.8730385463 2.2069201936 8.3052739001
7.5479532625 2.1149858525 9.0076023567
7.7993458298 3.3751264080 2.2570135612
8.2638479639 2.8761308119 2.7386669756
8.5080365821 3.1635463442 6.7583921693
8.6816389365 3.3926881540 6.2611769931
8.3343795585 3.0148309765 7.4796590337
8.1856677982 2.8339979160 8.1981104899
8.1778962602 3.0437622000 9.2540633754
8.1911058190 3.2111537785 10.3889904717
8.4551580055 3.4164851889 9.9465825783
7.9982793879 3.3167369866 11.2709066742
8.4898940770 3.7036381175 11.8435304766
7.9572969355 4.3831515456 2.3175005168
8.6514525496 3.7792554692 6.7995308244
8.7290392395 4.2959624157 7.2316270699
8.5470079628 3.7471469639 7.4230343772
8.4552216713 3.6311030864 8.3360601837
8.5752583402 3.8352747539 9.1384100604
8.5917169073 3.6955024457 9.6681024153
8.3788373294 4.0778106212 12.5537627687
8.8068019715 4.7764664135 13.2962283925
8.0985945010 5.1191409112 2.4936711638
7.9369634168 5.8815789792 2.6900285119
8.3699945317 5.3900172706 2.8924660830
8.7181534821 4.4055651736 8.0028046183
8.7234899930 4.2979930149 8.7549837919
8.1286588344 5.2271167995 13.7583797561
8.5293006170 6.0184552397 14.1538094917
7.5339084289 6.6870546270 2.8065256403
8.3549857403 5.8836201745 3.2074655773
8.0519453352 6.5900059795 3.4510310932
8.4629029953 6.1490424177 3.7092381954
8.6240801645 6.9207543244 14.4479290774
7.4780256218 7.2993506672 3.3820317330
8.3393360372 6.6702828641 4.1571474125
7.8412634427 7.5066101282 4.3889114550
8.1941159988 7.6474076058 5.4849921968
8.4338236992 6.8967651790 4.9192175465
8.3758449329 7.7425608717 6.1895912790
8.5672591991 7.0927788702 5.8259027285
8.6001125650 7.4470457214 6.5710634275
8.0241994823 7.3531846402 14.8248292615
8.0766380463 8.1729541484 14.9482711951
7.6763577977 8.3219232855 5.3363386101
8.0599456556 8.2066421902 6.0474752559
8.3021136724 8.2314423618 6.8212179686
8.0062848874 9.0025089359 14.9192757891
7.7331504979 9.6406947197 7.8793547515
8.0070628551 9.0274515309 7.3227456205
7.9875598924 9.6659854545 8.8207990934
8.2751464591 9.0826814834 8.2450763340
8.2002789831 9.6476108239 9.5720246739
8.4742251889 9.1395333603 9.1394421888
8.5398780252 9.3173499711 9.8980627644
7.8734528709 9.7609845518 14.6526859545
8.3282079949 9.2682094150 14.5478284454
8.2640757928 9.6863829302 14.2110926785
8.2110213464 9.8058211404 10.3080096770
8.3063559957 9.8886946149 11.3007744232
7.7792837246 10.4418761960 13.1405121213
8.2948059159 9.9882730937 12.4648233571
7.8376472996 10.2065767670 13.9918336747
8.3499740133 9.8299200521 13.5437723170
8.4645057429 1.9451719166 3.7144266451
8.5001351394 1.7090072783 4.4227494480
8.3654386204 1.5592105123 5.0498525975
8.6198615596 2.8397939065 3.4898066988
8.7225015431 2.4746619695 4.3991513345
8.6132010594 2.1682174918 5.1615345995
8.4713433853 3.7294632854 2.9157653691
8.8146916954 3.7463055142 3.7162312125
8.8733852554 3.4522951941 4.4396804757
8.7938925283 3.2013514344 5.4198349573
8.7448044301 3.8154379041 10.2379159785
8.8252363750 3.8027390507 11.1236374566
8.4657259272 4.7318374912 2.8795143822
8.7711083922 4.5374636550 3.5894891411
8.9276945904 4.4323470444 4.4525528095
8.9322018975 4.3174483787 5.4093111000
8.8281575240 4.2186175255 6.4338831280
8.9103001555 4.3871160541 9.5380473893
9.3003717569 4.5503696631 10.4661216368
9.4410921495 4.2860903421 11.2570654299
9.2389818044 4.1149886109 12.0081286834
9.1659045276 4.3605819526 12.7760548800
9.4333884151 4.7451632004 13.1467642409
8.6279591240 5.4407261219 3.5260351662
8.8382998038 5.3476018549 4.3918296957
8.9236412384 5.3599017621 5.3770765813
8.9405840030 5.3393863689 6.4553896945
8.9292363614 5.1674288021 7.6034509005
8.9836678011 5.0244336472 8.7314323074
9.3567854664 5.4168548015 9.6416503001
9.7388154179 5.5215236723 10.3362641017
9.7868625822 4.7726939222 10.9714008746
8.8926103485 5.4341247993 13.7817405056
9.4773906037 5.4740070479 13.5898273443
8.6342061106 6.1314316912 4.3153097240
8.7541077145 6.2313957197 5.2134952714
8.8289019274 6.5070114156 6.3733798621
8.9820423926 6.4136887451 7.5766082368
9.2349799897 6.2761948644 8.9026586367
9.5392853910 6.1900270592 9.6512761915
9.6394846720 5.9134087113 9.9318551848
9.2039001142 5.9218961480 13.9328274372
9.1897306139 6.5772869153 14.1178772672
8.7419606777 7.5880105036 7.4752417192
9.0229898555 7.4907162474 8.6502916892
9.5489322015 6.7695568348 9.7116540777
9.3694153404 7.5484172429 9.7615327317
9.6852793958 7.2189100529 10.1398597459
8.6539314290 7.7911982666 14.5558016615
9.1869513140 7.4132890214 14.1878365932
8.4566462700 8.4888365443 7.6950649183
8.6943056614 8.4139633014 8.4961900020
8.9179790116 8.5607382366 9.6480655261
9.6612234420 7.7866891776 10.4805284779
9.3475189855 8.5126214097 10.7720610565
9.8374641301 8.1048617285 11.0746874686
9.0793918994 8.3679417808 14.0133301728
9.5085071149 7.8024915818 13.8519106394
9.5072834365 8.4300004176 13.4051672718
8.5340692259 8.6298090111 14.5720057083
8.7519264938 9.2672842669 10.6616380093
9.6235213076 8.7129236116 11.7411716229
9.0170369708 9.2561538158 11.8501750079
8.9775949067 9.1795368175 13.1696673259
9.5111039571 8.8505569071 12.6113433905
8.6536473223 9.1900263486 14.0584639278
9.7033697803 4.3839450056 11.5408060911
9.6999393100 4.3361575067 11.9327350734
9.5483597606 4.4459247937 12.6596030205
9.6686147358 5.0044116007 13.2549279907
9.9444784299 5.3349472083 10.7064081582
9.9613585120 4.8830393667 11.0255437487
9.8867145601 4.5740730209 11.3858622803
9.7467746707 5.5872127595 13.5343022737
9.8021594332 6.5129039790 10.1706296175
9.9940299532 6.2100974484 10.4972004260
10.0378665465 6.8815218494 10.5727301407
10.1054538010 6.8515209868 10.6690788945
9.5368546186 6.2649988245 13.8753874947
9.7278499438 6.3938538745 13.7174055645
9.8960548389 7.3535922302 10.5685765905
10.0470844895 7.4753939691 10.8581002690
9.5803531638 7.0253896205 13.9144479103
9.7162158514 7.6523194176 13.6006371113
9.9961808178 8.0684621371 11.2297288931
9.7211665673 8.4613186751 13.0072408218
9.8811329882 8.4631119487 11.6262067514
9.7676848105 8.6913590903 12.2862895980
3 2 1 0
3 4 3 0
3 0 3 2
3 4 5 3
3 1 6 0
3 8 7 6
3 7 0 6
3 7 4 0
3 5 4 9
3 4 10 9
3 4 7 10
3 12 11 10
3 10 11 9
3 14 13 12
3 12 13 11
3 16 15 14
3 14 15 13
3 16 17 15
3 7 8 18
3 18 8 19
3 7 20 10
3 7 18 20
3 10 21 12
3 10 20 21
3 12 22 14
3 12 21 22
3 14 23 16
3 14 22 23
3 17 16 24
3 16 25 24
3 16 23 25
3 25 26 24
3 18 19 27
3 27 19 28
3 18 29 20
3 18 27 29
3 20 30 21
3 20 29 30
3 21 31 22
3 21 30 31
3 22 32 23
3 22 31 32
3 23 33 25
3 23 32 33
3 26 25 34
3 34 25 33
3 28 35 27
3 27 35 29
3 29 35 36
3 38 37 36
3 37 29 36
3 37 30 29
3 40 31 39
3 31 37 39
3 31 30 37
3 31 40 32
3 32 40 41
3 32 41 33
3 33 41 42
3 33 42 34
3 38 43 37
3 37 43 39
3 46 45 44
3 44 47 46
3 50 49 48
3 50 48 45
3 48 44 45
3 48 51 44
3 47 44 52
3 44 53 52
3 44 51 53
3 55 54 53
3 53 54 52
3 57 56 55
3 55 56 54
3 59 58 57
3 57 58 56
3 59 60 58
3 63 62 61
3 63 61 49
3 61 48 49
3 61 64 48
3 48 65 51
3 48 64 65
3 65 1 2
3 53 65 2
3 51 65 53
3 53 2 3
3 53 3 55
3 55 3 5
3 66 55 5
3 57 55 66
3 57 67 59
3 57 66 67
3 60 59 68
3 59 69 68
3 59 67 69
3 69 70 68
3 62 71 61
3 73 72 71
3 72 61 71
3 72 64 61
3 64 74 65
3 64 72 74
3 75 6 1
3 65 75 1
3 74 75 65
3 75 8 6
3 9 66 5
3 66 9 11
3 66 11 67
3 67 11 13
3 67 13 69
3 76 70 69
3 13 76 69
3 15 76 13
3 78 77 17
3 77 15 17
3 77 76 15
3 78 79 77
3 72 73 80
3 80 73 81
3 72 82 74
3 72 80 82
3 74 83 75
3 74 82 83
3 83 19 8
3 83 8 75
3 24 78 17
3 85 84 26
3 26 84 24
3 84 79 24
3 79 78 24
3 85 86 84
3 81 87 80
3 80 87 82
3 82 87 88
3 90 89 88
3 89 82 88
3 89 83 82
3 89 28 19
3 89 19 83
3 34 91 85
3 34 85 26
3 86 85 92
3 92 85 91
3 89 90 93
3 93 90 94
3 95 35 28
3 89 95 28
3 93 95 89
3 96 36 35
3 96 35 95
3 96 38 36
3 39 97 40
3 98 41 40
3 98 40 97
3 99 42 41
3 99 41 98
3 91 34 42
3 99 91 42
3 100 91 99
3 92 91 101
3 101 91 100
3 93 94 102
3 102 94 103
3 93 104 95
3 93 102 104
3 95 105 96
3 95 104 105
3 106 43 38
3 96 106 38
3 105 106 96
3 97 39 43
3 106 97 43
3 107 97 106
3 109 98 108
3 98 107 108
3 98 97 107
3 98 109 99
3 99 109 110
3 99 110 100
3 100 110 111
3 100 111 101
3 103 112 102
3 102 112 104
3 104 112 113
3 115 114 113
3 114 104 113
3 114 105 104
3 105 116 106
3 105 114 116
3 118 107 117
3 107 116 117
3 107 106 116
3 107 118 108
3 121 120 119
3 123 122 119
3 119 122 121
3 125 124 123
3 123 124 122
3 127 126 125
3 125 126 124
3 127 128 126
3 119 120 129
3 129 120 130
3 129 45 46
3 123 129 46
3 119 129 123
3 123 46 47
3 131 123 47
3 125 123 131
3 125 132 127
3 125 131 132
3 128 127 133
3 127 134 133
3 127 132 134
3 136 135 134
3 134 135 133
3 136 137 135
3 140 139 138
3 140 138 130
3 130 138 129
3 138 49 129
3 49 50 129
3 129 50 45
3 52 131 47
3 131 52 54
3 131 54 132
3 132 54 56
3 132 56 134
3 134 56 58
3 134 58 136
3 142 141 60
3 60 141 58
3 141 137 58
3 137 136 58
3 144 143 142
3 142 143 141
3 144 145 143
3 138 139 63
3 139 62 63
3 139 146 62
3 138 63 49
3 68 142 60
3 142 68 70
3 147 142 70
3 144 142 147
3 145 144 148
3 144 149 148
3 144 147 149
3 151 150 149
3 149 150 148
3 151 152 150
3 71 62 153
3 62 154 153
3 62 146 154
3 153 73 71
3 76 147 70
3 147 76 77
3 147 77 149
3 149 77 79
3 155 149 79
3 151 149 155
3 152 151 156
3 156 151 155
3 153 154 157
3 157 154 158
3 157 81 73
3 157 73 153
3 84 155 79
3 160 159 86
3 86 159 84
3 159 156 84
3 156 155 84
3 160 161 159
3 157 158 162
3 162 158 163
3 164 87 81
3 157 164 81
3 162 164 157
3 165 88 87
3 165 87 164
3 165 90 88
3 92 166 160
3 92 160 86
3 161 160 167
3 167 160 166
3 163 168 162
3 162 168 164
3 164 168 169
3 171 170 169
3 170 164 169
3 170 165 164
3 170 94 90
3 170 90 165
3 101 172 166
3 101 166 92
3 167 166 173
3 173 166 172
3 171 174 170
3 94 170 174
3 175 94 174
3 103 94 175
3 108 176 109
3 177 110 109
3 177 109 176
3 178 111 110
3 178 110 177
3 172 101 111
3 178 172 111
3 179 172 178
3 173 172 180
3 180 172 179
3 175 181 103
3 103 181 112
3 112 182 113
3 181 182 112
3 115 113 182
3 115 182 183
3 117 184 118
3 176 108 118
3 184 176 118
3 185 176 184
3 176 186 177
3 176 185 186
3 177 187 178
3 177 186 187
3 178 188 179
3 178 187 188
3 180 179 189
3 189 179 188
3 192 191 190
3 194 193 190
3 190 193 192
3 196 195 194
3 194 195 193
3 196 197 195
3 200 199 198
3 120 121 198
3 121 200 198
3 121 201 200
3 122 190 191
3 201 122 191
3 121 122 201
3 190 122 124
3 190 124 194
3 194 124 126
3 194 126 196
3 203 202 128
3 128 202 126
3 202 197 126
3 197 196 126
3 205 204 203
3 203 204 202
3 205 206 204
3 209 208 207
3 209 207 199
3 207 198 199
3 207 210 198
3 210 130 120
3 210 120 198
3 133 203 128
3 203 133 135
3 203 135 205
3 212 211 137
3 137 211 135
3 211 206 135
3 206 205 135
3 212 213 211
3 216 215 214
3 216 214 208
3 214 207 208
3 214 217 207
3 217 139 140
3 210 217 140
3 207 217 210
3 210 140 130
3 141 212 137
3 218 213 212
3 141 218 212
3 143 218 141
3 220 219 145
3 219 143 145
3 219 218 143
3 220 221 219
3 214 215 222
3 222 215 223
3 214 224 217
3 214 222 224
3 224 146 139
3 224 139 217
3 148 220 145
3 225 221 220
3 148 225 220
3 150 225 148
3 150 152 225
3 225 152 226
3 223 227 222
3 229 228 227
3 228 222 227
3 228 224 222
3 228 154 146
3 228 146 224
3 156 231 230
3 226 156 230
3 152 156 226
3 231 232 230
3 228 229 233
3 233 229 234
3 233 158 154
3 233 154 228
3 159 231 156
3 159 161 231
3 161 232 231
3 161 235 232
3 234 236 233
3 163 158 233
3 237 163 233
3 236 237 233
3 163 237 238
3 239 238 237
3 167 241 240
3 235 167 240
3 161 167 235
3 238 168 163
3 239 242 238
3 242 168 238
3 242 169 168
3 171 169 242
3 171 242 243
3 173 244 241
3 173 241 167
3 243 245 171
3 171 245 174
3 175 174 245
3 175 245 246
3 180 247 244
3 180 244 173
3 246 248 175
3 175 248 181
3 181 249 182
3 248 249 181
3 251 250 183
3 182 251 183
3 249 251 182
3 252 250 251
3 255 254 253
3 254 256 247
3 189 254 247
3 180 189 247
3 253 254 189
3 259 258 257
3 261 260 257
3 257 260 259
3 261 262 260
3 265 264 263
3 267 266 263
3 263 266 265
3 191 192 267
3 192 266 267
3 192 268 266
3 193 257 258
3 268 193 258
3 192 193 268
3 257 193 195
3 257 195 261
3 270 269 197
3 197 269 195
3 269 262 195
3 262 261 195
3 270 271 269
3 274 273 272
3 274 272 264
3 264 272 263
3 272 199 263
3 199 200 263
3 263 200 201
3 263 201 267
3 267 201 191
3 202 270 197
3 275 271 270
3 202 275 270
3 204 275 202
3 277 276 206
3 276 204 206
3 276 275 204
3 277 278 276
3 281 280 279
3 281 279 273
3 273 279 272
3 279 208 272
3 208 209 272
3 272 209 199
3 211 277 206
3 283 282 213
3 213 282 211
3 282 278 211
3 278 277 211
3 283 284 282
3 279 280 216
3 280 215 216
3 280 285 215
3 279 216 208
3 218 283 213
3 286 284 283
3 218 286 283
3 219 286 218
3 219 221 286
3 286 221 287
3 289 223 288
3 223 285 288
3 223 215 285
3 290 289 288
3 291 287 221
3 291 221 225
3 225 226 291
3 291 226 292
3 289 227 223
3 229 227 289
3 290 229 289
3 293 229 290
3 294 292 226
3 294 226 230
3 230 232 294
3 294 232 295
3 297 234 296
3 234 293 296
3 234 229 293
3 298 297 296
3 235 300 299
3 295 235 299
3 232 235 295
3 297 236 234
3 298 301 297
3 301 236 297
3 301 237 236
3 239 237 301
3 239 301 302
3 240 300 235
3 302 303 239
3 239 303 242
3 243 242 303
3 243 303 304
3 304 305 243
3 243 305 245
3 307 306 246
3 245 307 246
3 305 307 245
3 309 308 306
3 309 306 307
3 310 308 309
3 313 312 311
3 306 248 246
3 248 306 249
3 249 306 308
3 310 314 308
3 314 249 308
3 314 251 249
3 316 315 252
3 251 316 252
3 314 316 251
3 318 317 315
3 318 315 316
3 320 319 317
3 320 317 318
3 321 319 320
3 324 323 322
3 254 255 322
3 323 254 322
3 325 254 323
3 311 256 313
3 256 325 313
3 256 254 325
3 328 327 326
3 330 329 326
3 326 329 328
3 258 259 330
3 259 329 330
3 259 331 329
3 332 259 260
3 332 331 259
3 334 333 262
3 333 260 262
3 333 332 260
3 334 335 333
3 337 336 265
3 265 336 264
3 266 326 327
3 337 266 327
3 265 266 337
3 326 266 268
3 326 268 330
3 330 268 258
3 269 334 262
3 339 338 271
3 271 338 269
3 338 335 269
3 335 334 269
3 339 340 338
3 342 341 274
3 274 341 273
3 274 264 336
3 274 336 342
3 275 339 271
3 343 340 339
3 275 343 339
3 276 343 275
3 276 278 343
3 343 278 344
3 346 345 281
3 281 345 280
3 281 273 341
3 281 341 346
3 347 344 278
3 347 278 282
3 349 348 284
3 348 282 284
3 348 347 282
3 349 350 348
3 352 285 351
3 285 345 351
3 285 280 345
3 353 352 351
3 286 349 284
3 355 354 287
3 287 354 286
3 354 350 286
3 350 349 286
3 355 356 354
3 352 288 285
3 290 288 352
3 353 290 352
3 357 290 353
3 291 355 287
3 291 292 355
3 292 356 355
3 292 358 356
3 360 293 359
3 293 357 359
3 293 290 357
3 361 360 359
3 362 358 292
3 362 292 294
3 294 295 362
3 362 295 363
3 360 296 293
3 365 364 298
3 365 298 296
3 361 365 296
3 360 361 296
3 366 364 365
3 367 363 295
3 367 295 299
3 364 301 298
3 369 368 302
3 369 302 301
3 366 369 301
3 364 366 301
3 370 368 369
3 368 303 302
3 372 371 304
3 372 304 303
3 370 372 303
3 368 370 303
3 374 373 371
3 374 371 372
3 375 373 374
3 378 377 376
3 371 305 304
3 305 371 307
3 307 371 373
3 375 379 373
3 379 307 373
3 379 309 307
3 381 380 310
3 309 381 310
3 379 381 309
3 383 382 380
3 383 380 381
3 385 384 382
3 385 382 383
3 387 386 384
3 387 384 385
3 389 388 386
3 389 386 387
3 391 390 388
3 391 388 389
3 393 392 390
3 393 390 391
3 392 393 378
3 392 378 376
3 313 392 376
3 312 313 376
3 380 314 310
3 314 380 316
3 316 380 382
3 316 382 318
3 318 382 384
3 318 384 320
3 320 384 386
3 320 386 321
3 386 394 321
3 386 388 394
3 324 394 323
3 394 390 323
3 394 388 390
3 323 390 325
3 325 390 392
3 325 392 313
3 397 396 395
3 327 328 395
3 328 397 395
3 328 398 397
3 399 328 329
3 399 398 328
3 400 329 331
3 400 399 329
3 401 331 332
3 401 400 331
3 402 332 333
3 402 401 332
3 333 335 402
3 402 335 403
3 406 405 404
3 406 404 396
3 396 404 395
3 404 336 395
3 336 337 395
3 395 337 327
3 407 403 335
3 407 335 338
3 338 340 407
3 407 340 408
3 404 405 342
3 405 341 342
3 405 409 341
3 404 342 336
3 410 408 340
3 410 340 343
3 412 411 344
3 411 343 344
3 411 410 343
3 412 413 411
3 414 345 346
3 415 414 346
3 341 415 346
3 409 415 341
3 347 412 344
3 416 413 412
3 347 416 412
3 348 416 347
3 348 350 416
3 416 350 417
3 414 351 345
3 353 351 414
3 415 353 414
3 418 353 415
3 419 417 350
3 419 350 354
3 354 356 419
3 419 356 420
3 418 357 353
3 421 357 418
3 358 420 356
3 358 422 420
3 421 423 357
3 357 423 359
3 361 359 423
3 361 423 424
3 425 422 358
3 425 358 362
3 362 363 425
3 425 363 426
3 424 427 361
3 361 427 365
3 429 428 366
3 365 429 366
3 427 429 365
3 430 428 429
3 363 367 431
3 432 363 431
3 426 363 432
3 428 369 366
3 434 433 370
3 434 370 369
3 430 434 369
3 428 430 369
3 436 435 433
3 436 433 434
3 437 435 436
3 432 431 438
3 432 438 439
3 433 372 370
3 372 433 374
3 374 433 435
3 441 440 375
3 441 375 374
3 437 441 374
3 435 437 374
3 443 442 440
3 443 440 441
3 445 444 442
3 445 442 443
3 447 446 444
3 447 444 445
3 449 448 446
3 449 446 447
3 450 448 449
3 453 452 451
3 451 452 439
3 451 439 438
3 378 451 438
3 377 378 438
3 440 379 375
3 379 440 381
3 381 440 442
3 381 442 383
3 383 442 444
3 383 444 385
3 385 444 446
3 385 446 387
3 387 446 448
3 450 454 448
3 454 387 448
3 454 389 387
3 389 455 391
3 454 455 389
3 451 393 453
3 393 455 453
3 393 391 455
3 393 451 378
3 457 456 397
3 397 456 396
3 458 397 398
3 458 457 397
3 459 398 399
3 459 458 398
3 461 459 460
3 459 400 460
3 459 399 400
3 401 462 400
3 400 462 460
3 402 463 401
3 401 463 462
3 403 463 402
3 464 405 406
3 465 464 406
3 396 465 406
3 456 465 396
3 461 460 466
3 461 466 467
3 468 460 462
3 466 460 468
3 469 462 463
3 468 462 469
3 407 470 403
3 470 463 403
3 470 469 463
3 408 470 407
3 472 471 464
3 471 405 464
3 471 409 405
3 472 464 465
3 467 466 473
3 467 473 474
3 475 466 468
3 473 466 475
3 476 468 469
3 475 468 476
3 477 469 470
3 476 469 477
3 477 470 408
3 478 477 408
3 410 478 408
3 479 477 478
3 480 410 411
3 480 478 410
3 411 413 480
3 480 413 481
3 471 415 409
3 482 415 471
3 483 474 473
3 485 484 483
3 473 485 483
3 475 485 473
3 486 475 476
3 485 475 486
3 477 488 487
3 486 477 487
3 476 477 486
3 488 477 479
3 489 481 413
3 489 413 416
3 416 417 489
3 489 417 490
3 492 418 491
3 418 482 491
3 418 415 482
3 493 492 491
3 494 484 485
3 494 485 486
3 494 486 495
3 495 486 487
3 496 490 417
3 496 417 419
3 419 420 496
3 496 420 497
3 498 421 492
3 492 421 418
3 492 493 499
3 500 492 499
3 498 492 500
3 501 500 499
3 422 497 420
3 422 502 497
3 498 423 421
3 423 498 424
3 498 503 424
3 498 500 503
3 500 501 504
3 505 500 504
3 503 500 505
3 507 506 505
3 507 505 504
3 509 508 506
3 509 506 507
3 510 508 509
3 511 502 422
3 511 422 425
3 425 426 511
3 511 426 512
3 503 427 424
3 427 503 429
3 429 503 505
3 429 505 430
3 505 513 430
3 505 506 513
3 514 506 508
3 513 506 514
3 508 510 515
3 508 515 514
3 432 512 426
3 432 516 512
3 513 434 430
3 434 513 436
3 436 513 514
3 518 517 437
3 518 437 436
3 515 518 436
3 514 515 436
3 520 519 517
3 520 517 518
3 522 521 519
3 522 519 520
3 523 521 522
3 526 525 524
3 525 516 524
3 516 439 524
3 516 432 439
3 517 441 437
3 441 517 443
3 443 517 519
3 443 519 445
3 445 519 521
3 523 527 521
3 527 445 521
3 527 447 445
3 447 528 449
3 527 528 447
3 530 529 450
3 449 530 450
3 528 530 449
3 532 531 529
3 532 529 530
3 531 532 526
3 531 526 524
3 453 531 524
3 452 453 524
3 452 524 439
3 529 454 450
3 454 529 455
3 455 529 531
3 455 531 453
3 533 456 457
3 458 534 457
3 457 534 533
3 459 535 458
3 458 535 534
3 461 535 459
3 536 465 533
3 533 465 456
3 537 533 534
3 536 533 537
3 538 534 535
3 537 534 538
3 467 538 461
3 461 538 535
3 539 471 472
3 465 536 472
3 536 539 472
3 536 540 539
3 541 536 537
3 540 536 541
3 542 537 538
3 541 537 542
3 474 542 467
3 467 542 538
3 543 479 478
3 480 544 478
3 478 544 543
3 481 544 480
3 545 482 539
3 539 482 471
3 546 539 540
3 545 539 546
3 547 540 541
3 546 540 547
3 548 541 542
3 547 541 548
3 483 549 474
3 549 542 474
3 549 548 542
3 484 549 483
3 550 487 488
3 479 543 488
3 543 550 488
3 543 551 550
3 544 553 552
3 551 544 552
3 543 544 551
3 553 544 481
3 489 553 481
3 554 553 489
3 489 490 554
3 554 490 555
3 545 491 482
3 491 545 493
3 545 556 493
3 545 546 556
3 557 546 547
3 556 546 557
3 558 547 548
3 557 547 558
3 559 548 549
3 558 548 559
3 494 560 484
3 560 549 484
3 560 559 549
3 495 561 494
3 494 561 560
3 487 550 495
3 550 561 495
3 550 562 561
3 551 564 563
3 562 551 563
3 550 551 562
3 564 551 552
3 490 496 565
3 566 490 565
3 555 490 566
3 497 565 496
3 556 499 493
3 499 556 501
3 556 567 501
3 556 557 567
3 568 557 558
3 567 557 568
3 569 558 559
3 568 558 569
3 570 559 560
3 569 559 570
3 571 560 561
3 570 560 571
3 562 573 572
3 571 562 572
3 561 562 571
3 573 562 563
3 574 566 565
3 565 497 574
3 497 575 574
3 497 502 575
3 567 504 501
3 504 567 507
3 507 567 568
3 507 568 509
3 509 568 569
3 509 569 510
3 569 576 510
3 569 570 576
3 577 570 571
3 576 570 577
3 571 572 578
3 579 571 578
3 577 571 579
3 580 579 578
3 502 511 581
3 582 502 581
3 575 502 582
3 512 581 511
3 583 515 576
3 576 515 510
3 584 576 577
3 583 576 584
3 585 577 579
3 584 577 585
3 579 580 586
3 587 579 586
3 585 579 587
3 588 587 586
3 591 590 589
3 589 590 582
3 581 589 582
3 592 589 581
3 516 592 512
3 512 592 581
3 583 518 515
3 518 583 520
3 520 583 584
3 520 584 522
3 522 584 585
3 522 585 523
3 585 593 523
3 585 587 593
3 587 588 594
3 595 587 594
3 593 587 595
3 597 596 595
3 597 595 594
3 596 597 591
3 589 596 591
3 598 596 589
3 526 598 525
3 598 592 525
3 598 589 592
3 525 592 516
3 593 527 523
3 527 593 528
3 528 593 595
3 528 595 530
3 530 595 596
3 530 596 532
3 532 596 598
3 532 598 526
3 599 552 553
3 599 553 600
3 553 601 600
3 553 554 601
3 554 555 601
3 601 555 602
3 604 603 564
3 564 603 563
3 564 552 599
3 605 564 599
3 604 564 605
3 605 599 600
3 566 602 555
3 566 606 602
3 607 572 573
3 563 603 608
3 607 563 608
3 609 607 608
3 573 563 607
3 610 609 608
3 566 574 611
3 612 566 611
3 606 566 612
3 575 611 574
3 607 578 572
3 578 607 580
3 607 613 580
3 607 609 613
3 609 610 614
3 609 614 613
3 612 611 615
3 612 615 616
3 582 615 575
3 575 615 611
3 613 586 580
3 588 586 613
3 614 588 613
3 617 588 614
3 616 615 590
3 591 616 590
3 618 616 591
3 590 615 582
3 617 619 588
3 588 619 594
3 594 620 597
3 619 620 594
3 591 597 618
3 618 597 620