OFF
502 966 0
1.7298964746 4.7025965640 5.1392864767
1.7669473100 4.7458925435 4.9246405550
1.8957830410 4.5072431808 5.1369431474
1.9602536611 4.5112461994 5.3579692982
1.7831295409 5.0325043352 4.9291992140
2.0120559559 5.3320008011 4.6336144829
1.9550676066 4.9934590444 4.6363808317
1.9012452653 4.8180404437 5.3212262235
1.9946297624 5.1841722377 5.1750080059
2.0395909283 5.3997245385 4.8853985577
2.1028669566 4.5738221571 4.8248864481
2.4845766233 4.1621104521 5.3656902172
2.3297907398 4.5170492366 5.7175726976
2.3882541246 5.3671136807 4.3263813997
2.3533359137 4.8655034967 4.3969925630
2.3029119010 5.0153866946 5.6137057093
2.5020719362 5.5742782248 5.2882383882
2.4673361368 5.7180129010 4.6627443516
3.3848448456 3.6201203151 4.4807032073
3.5980609188 3.6498607812 3.9457651011
3.9898449658 3.2479288487 4.2714695280
3.9859604316 2.9584050712 5.2645462552
3.1266157733 3.6619521840 5.1083143425
3.3483453228 3.4868098283 5.8796724463
3.2794661847 4.1508748346 3.9078508773
3.6610394858 4.4879327956 3.3544760673
3.6892231526 3.9063548062 3.5870542072
2.7463298059 4.2834200450 4.5401501389
2.9616786263 4.0460432842 6.2111884008
2.8245444065 4.7019238269 6.3061419757
3.3694693113 4.1554692839 6.9894465648
3.2883526159 4.7619398794 7.0257686117
3.6502769881 4.4265151248 7.5507655307
3.0086468980 5.0763749259 3.8399826512
3.7476947887 5.3808981197 3.0572305770
2.7371472554 5.2897126796 5.9239441550
3.1127203457 5.2520419038 6.5080228342
3.4207394095 5.2307387642 7.0617181541
3.6238499674 4.9251917141 7.4997236856
3.4005575766 5.8784019500 3.4514330325
3.7208116237 6.0410600723 3.1032766388
3.0786755089 6.0174588854 4.1008194271
3.2921139852 6.3486479350 5.0625784673
3.1844328474 5.8552035430 5.9646570729
3.4473302147 5.6530860132 6.7112242936
3.8248973424 6.5906338430 3.4225483518
3.6497669530 6.7421407185 4.2560071600
4.5130610325 2.4742474184 5.4971310483
4.6216870086 2.5129224816 5.1802701167
5.0266915854 2.2351685733 5.5741951591
4.6636237656 2.4088217073 6.0004312601
3.9882126273 3.5369260471 3.7281229669
4.2251178938 3.8906236305 3.3183916311
4.7306450651 3.2503184117 3.8004266816
4.6283025797 2.7873866417 4.6207797455
4.1329903309 2.8816050577 6.3993518522
3.6810147425 3.4895021135 6.8104951440
4.4380458467 2.9142542370 7.4257338208
4.0562010228 3.7385014367 7.7746199241
4.9207704785 2.9766954595 8.5472981215
4.5188573257 3.8110876411 8.6067089739
4.9847084004 3.5433743636 9.1645545634
4.3784490589 4.5938725176 2.8210979963
4.1833541614 4.7278885511 8.2139233390
4.8131794034 4.3164801291 9.1387912373
4.3304142510 5.3187440399 2.5816732206
4.8580479040 5.5699218425 2.2854537177
4.7570819535 4.9494915267 2.4082036749
3.8586765115 5.5782928476 7.4250213980
4.4990241218 5.8349936056 8.2436632377
5.0170207345 5.4456680689 9.1464289656
4.2239076225 6.0806115711 2.7195899280
5.1101642180 6.4810814460 2.2730553968
3.5861762163 6.3944759569 5.8304276759
3.8382205309 6.2845456151 6.5752133548
4.3767035378 6.4150540862 7.4980258478
4.9829428973 6.6936286333 8.2561855164
5.0182965137 6.2256704347 8.7591003862
4.4902410846 6.8967956176 2.8123813781
4.3820083338 7.2513034258 3.3196247631
4.7809550560 7.4155657583 2.9782230289
4.2180559556 7.2663564327 3.9895270044
4.0785474101 7.1500634549 4.8426770592
4.0991009804 6.9385540970 5.8127987245
4.5119263748 6.9993156591 6.8152532451
4.8876893298 7.0643396363 7.5768038497
4.9164774898 7.7299457148 3.6294391987
4.7486538913 7.7165087688 4.6206797250
5.2371346592 2.3777014510 5.0060243082
5.7253288551 2.0675752550 5.4910490340
5.7028995729 1.8908651777 6.3469765769
4.9404017587 2.3298842341 6.9563051619
5.8223649492 1.8184056685 7.6173401958
5.1547693181 2.3702736735 7.9492541784
5.7638755809 2.0760911629 8.5186416834
5.3231171160 2.4142985471 8.5421060859
5.6400165371 2.4467939057 9.0375731956
5.1921318439 3.8423148731 3.0196102293
5.8872686904 3.1527846995 3.6314106457
5.5049981171 2.6973231495 4.3461264399
5.6886514007 3.0048680037 9.6074014126
5.3434142528 3.8712749417 9.7234160602
5.8697414119 3.5843639585 10.1633646328
5.0775817891 4.4690632116 2.5191542161
5.3834446026 4.9359950967 2.2219548407
5.8523171399 4.2884912951 2.4891483638
5.3312800030 4.7427098539 9.7558538352
5.8216300506 4.3030323756 10.2544896662
5.6992410157 5.6803385346 1.9927102136
5.4595632910 5.3523092142 9.7741869308
6.0362055285 5.3090456830 10.2944207042
6.1550354503 6.5126416018 1.8221790717
5.2708383275 6.6435181923 8.7713766233
5.6943150918 6.5595640644 9.2699872971
5.7759976195 5.9405034412 9.7892799750
5.0408085330 7.1945816657 2.5677432950
5.7450909416 7.2222138445 2.2913203396
4.6160464117 7.5385763293 5.4042493587
4.8706936078 7.5730387417 6.2332406724
5.1749528186 7.5806895965 7.1484253002
5.6209688072 7.5616009931 8.0708362653
5.6423500047 7.1058875960 8.7294523034
5.3792177213 7.6693650921 2.8797354324
5.7564245311 8.1469992943 3.4884713590
5.4873826346 8.1919949661 4.4077333812
5.3474113019 8.0820212801 5.5282897901
5.5729694630 8.0892572465 6.6438869401
5.7636185797 8.0307812236 7.4285370066
6.4524961569 1.4180521610 7.1402894398
6.6769769480 1.4727590559 6.4574612910
7.2553295412 1.1728889074 7.0090777639
7.0682084606 1.1519959668 7.7125893534
6.5210101926 1.3951183078 7.8540826878
6.9688225690 1.2651731536 8.2692419784
6.1414013145 2.2615324599 4.9319584250
6.6778296690 1.8170924887 5.6883799888
6.5527806472 1.6304249869 8.5730741236
6.3224925447 2.0895198806 9.2390521734
6.0500967080 2.4463462728 9.5128651086
6.6452678594 2.4603314033 9.9441332254
6.4188519814 3.6834937991 2.9998088842
7.0571371695 3.1518123807 3.6233204707
6.5747843662 2.6526978306 4.2617023361
6.4200239426 3.1357783943 10.3499153190
6.3663999437 3.8257655225 10.6036878381
6.9363118321 3.3887016698 10.7825445774
6.2920031926 4.9405005100 2.0972527372
6.9025227022 4.2942606029 2.4841281548
6.4253378442 4.6376465630 10.7076475714
7.0506718754 4.0690299390 10.9800945100
6.6815300868 5.7738573829 1.7411168832
6.5388228674 5.2283692905 10.7447070354
7.1380663837 5.1037112862 11.0447682705
6.7033367087 6.3571300167 1.5174291612
7.0000067116 6.5523063680 1.4170486244
7.1425715291 6.2302981735 1.4790919054
6.1448179090 6.5076872850 9.8073275616
6.6779239683 6.4309182426 10.2965570779
6.8153273219 5.7960387244 10.7416480369
6.7290966233 6.7289545954 1.5671109016
6.7445916302 7.2540766251 1.9714986470
6.0291219165 7.5733976344 8.6760696822
6.4985351603 7.5309471224 9.2103480811
6.5897335760 7.0274290814 9.7854509937
6.3309229775 7.9366163354 2.7328745703
6.4372183222 8.4387861485 3.4149360859
7.0983957998 8.4685791154 3.1057791551
6.2325771474 8.5666043364 4.1522545436
6.1248779817 8.5943230749 5.1525181683
6.1555955490 8.5605817699 6.2281216508
6.2638339961 8.4733169707 7.1939132127
6.3163022716 8.2530012258 7.9585939364
6.4247613599 7.9818375173 8.5952311233
6.9480897943 8.7802636883 3.8483166136
6.8442093160 8.9200665801 4.7836935012
6.8327786509 8.9506785673 5.8728749132
6.9171628669 8.8885105157 6.9430665872
6.9789395460 8.7115417557 7.8540211852
7.5222705519 1.3841118134 6.2792206554
8.2132188112 1.0715371924 6.9557872741
7.9122999889 0.9867427359 7.7246444849
7.6217818273 1.1026457633 8.3850713528
7.2954574975 1.3554122619 8.8076641602
8.0466828196 1.2693011230 9.1345556867
7.2356629239 2.2146017853 4.9238916245
7.9139153950 1.7791580094 5.5766255427
7.3964595400 1.7865148932 9.5701724402
7.4950881695 2.2889459421 10.2985682803
7.7596117890 3.8176298506 3.0728655303
8.1163810490 3.2529194663 3.7143429523
7.7186295609 2.7150979968 4.2745715362
7.1969402862 2.8079397110 10.5897136338
7.7848000576 3.2414325709 11.0131001229
7.3880055203 5.0545548734 2.0825412644
7.7983145647 4.4695618779 2.5153013515
7.9101328505 4.2625079021 11.3109582415
7.5923774390 5.8861775377 1.7393921647
7.9249258499 5.4440657298 11.3599294970
7.3356421267 6.5494441013 1.4279624267
7.6448632493 6.3736816811 1.5505277757
7.1505680776 6.3511003176 10.7464609916
7.6189945020 6.1741404122 11.0510766565
7.2122117739 6.8688416858 1.5627619225
7.8188933579 7.2734826596 1.9504546260
7.0351989059 7.5269687963 9.7457298345
7.5724960407 7.4249542318 10.2219938359
7.5735096849 6.8333203239 10.7150372907
7.3974717013 7.9525146475 2.4670375398
8.0153771773 8.4980864629 2.9881153402
6.9327471169 8.4518944437 8.4537749734
7.1741425795 8.2449865542 9.0301086246
7.4399802200 7.9489051095 9.6327199415
7.6207481815 8.8238330684 3.5341416882
7.6216138267 9.0865072124 4.3265616796
7.4133848220 9.1935795906 5.4535022354
7.5928383329 9.2223601577 6.6991846642
7.7180640942 9.0693299775 7.7743043119
7.7453210722 8.7519326737 8.6895947480
8.6139353181 1.3818496443 6.2237458479
9.2936584525 1.0708529543 6.9603507803
8.9317901127 0.9028860846 7.7599002466
8.6370756121 0.9885513971 8.6348779484
8.8122781999 1.1846555308 9.3985326723
8.4515920398 2.3092459668 4.9394275894
9.0866481423 1.8694080062 5.5833368261
8.5375301798 1.5301397118 9.8385827618
8.2472234466 2.0461071246 10.3509039911
7.8983762645 2.5495408838 10.7007282094
8.6679054925 2.5248747537 10.8810745274
8.3818872979 3.6057392819 3.4263776016
8.9460018143 3.5835060654 3.7252620495
8.9696205495 2.9916868319 4.3204008325
8.8713535709 3.2057310876 11.3100403565
8.2104930752 4.9360600941 2.3436197840
8.7468743154 4.6328830411 2.8294689656
8.7901999621 4.0089905379 3.2933024074
8.5786213247 3.8993629536 11.4782818055
8.1694355043 4.8478449025 11.4852548762
8.2646255681 5.5698097329 2.0845125040
8.7963045213 5.2946932956 2.4305870103
8.3151384480 5.7721209635 11.4999978916
7.6980849859 6.7297479854 1.5967947004
8.4134119602 6.5498159524 1.9287639219
8.6756330310 6.3582545047 11.5017855933
8.4967241271 6.4361758132 11.3542298282
8.7466014464 7.3720615981 2.2012722696
8.0783792901 7.3057480892 10.6887986966
8.3317129024 7.0104693426 10.9908966263
8.4496620967 7.9433203775 2.4924770184
9.0749085415 8.4547399191 3.0653913994
7.9018136123 8.4400417253 9.3928902887
8.3213071456 8.1798470081 9.9565381740
8.7516464002 7.7215974976 10.6121537003
8.5230655760 8.9311180000 3.6253931600
8.2810095885 9.1801183834 4.1859477507
9.2246900944 9.0958509059 3.8676554290
7.7801302485 9.2709408186 5.0027284144
7.7495719170 9.3311618637 6.0574923601
8.0705697784 9.3823580646 7.0527798334
8.2687799920 9.3222055617 7.7129287660
8.6877662465 9.1257002970 8.6717740834
8.6795849822 8.7188161709 9.4454060041
9.8262914364 1.5117393172 6.2251222672
10.3691769124 1.1391856919 7.0402975924
9.9838241240 0.9015757794 7.7793002910
9.7025616305 0.8949945817 8.5967509201
9.5032603727 1.0731923371 9.3477846088
9.2724416220 1.3438611799 9.8538097184
10.0497695888 1.3652685979 9.9949243119
9.8477494899 2.5474590827 5.0825933842
9.9529947477 1.9926415436 5.6295722075
9.3242019143 1.8279271177 10.4306098936
9.7516454471 2.4236537506 11.0378136897
9.7991082462 3.6495315812 4.0981391058
9.9996332799 3.2132856436 4.5317905837
9.9755456162 2.8372255131 11.4081098242
9.2491872553 4.4308372812 3.2193190802
9.6999273405 4.2844363950 3.6002762490
9.3789863909 3.2436725055 11.5088257260
9.0613487697 5.9916412060 2.3019808482
9.5696550204 5.5792485250 2.7731121130
9.7216767338 4.9393524565 3.1997503127
9.3135355573 6.6280711338 2.2621391684
9.7780093414 6.4375673355 2.5853303180
9.1795789872 6.8709761329 11.4128832809
9.3150329923 7.1306286625 2.2868402284
9.7576046264 6.9586191427 2.4636852972
10.0980473781 7.3553701430 11.3145241571
9.3712496321 7.3205616981 11.1502143125
9.5803732825 7.7541004273 2.7107090244
9.9513570997 8.3481507329 3.2390293836
9.9940328719 8.0004852016 10.7299421755
9.3924149006 8.4157405020 10.1433098093
9.9205317888 8.8124103167 3.6915233757
10.2630337121 9.0946514619 4.0992731759
8.4440475877 9.4108894299 7.7028147649
8.7867484629 9.3391020849 8.2995766019
9.5108577837 9.2174153264 9.0318267758
9.8305128993 8.9446233617 9.5754705012
10.9336545255 1.5746687186 6.5166818696
11.3052472414 1.2770114313 7.1784525822
10.9633966694 1.0019425600 7.8142308360
10.6924073865 0.9289287614 8.5894659631
10.4232176852 1.0581220305 9.3582758181
11.0417419957 1.3954366759 10.0067442852
10.3840969905 2.2660559089 5.4984184830
10.6621126929 2.0012901620 5.8998432391
10.5279151653 1.8442551090 10.5961982785
11.0048969752 2.4126001033 11.1458926630
10.5014769489 3.6957023925 4.3951920132
10.8970493121 3.3877834754 4.8415865917
11.0749681383 2.6754392111 5.4795675656
10.6982599440 2.7284516631 11.4430386869
10.0374130694 2.9580049943 11.5323580772
10.6824890033 4.3556610227 4.0937785387
11.0903644546 4.0306177183 4.4844085184
10.2640378720 5.6044028299 3.1981367887
10.6305719531 5.2142384759 3.6376808741
10.3431399825 6.2612458072 3.0221969515
10.8031854733 6.0025949905 3.4128382368
9.7939428191 7.2922136875 2.5335277627
10.3002085260 7.1180220727 2.9021568300
11.1781484790 7.5462541152 11.2353816231
10.5823166510 7.6837067849 11.1151500741
10.3886770507 8.4638157023 3.5416609897
10.7276679389 7.8898480957 3.4579308260
10.9199533827 8.5107635109 3.9588068616
11.1173602207 8.0896057135 10.7505574434
10.5845602125 8.5265029172 10.2484360742
10.9272908959 9.1569195976 4.4908707667
11.1312505778 8.9374102121 4.4724245441
11.5413607468 9.1517372766 4.9728336310
11.1644585590 8.9221947741 9.7772084081
10.5686931718 9.1387768558 9.4790109939
11.6632987204 1.6536108493 6.7686802650
12.0991697206 1.5734205128 7.3168359068
11.7873487573 1.2168684932 7.8384769903
11.5888483134 1.0970419649 8.5466035152
11.3436142008 1.1416497519 9.3115793654
11.8475913977 1.4540122623 9.8516413216
11.8012785088 2.2557242354 6.2471898291
12.1208898107 1.9023968223 6.7851682819
11.8067325577 1.9074134812 10.5187952587
12.4383182728 2.6070301795 11.0997760091
11.8534358370 3.4923650210 5.2678031397
11.9828960348 2.9797123459 5.7037668313
11.7102405879 2.6826513940 11.3573860909
11.4356796801 4.5516898614 4.3851353088
11.8211183759 4.2497539719 4.7905259229
11.4436466578 5.1633237209 4.1397950398
11.9413863516 4.9659393348 4.5012110482
10.9785052958 6.6991193482 3.3896492995
11.4785727525 6.1154588493 3.8809061442
10.9579390922 7.2745252019 3.3761096041
11.5633594384 7.1744986068 3.8735970410
12.3602186250 7.4407534669 11.1213168762
11.6084448222 7.7419795294 11.0556693163
11.4735325425 8.5676114627 4.4008339582
11.8510970415 7.9721364395 4.3716763591
11.9910401791 8.5891631068 4.8663253592
11.9446873740 7.9992852541 10.7638717563
11.8507541963 8.4394136815 10.2637756956
12.0650428350 9.1855304743 5.5237146283
12.2470757551 8.9597712265 5.4766197136
12.5564596974 9.1708721242 6.1707701876
12.3671656794 8.8948158779 9.5030075492
11.6619194210 9.1210401135 9.4386969950
12.2859022302 1.4517845036 7.8527417428
12.3296900136 1.4218970586 8.4042374151
12.1858218393 1.3958293390 9.2127496908
12.3276576939 2.1762719386 6.6622980146
12.5703501193 2.0913173613 7.0823107946
12.7876686106 1.9107333619 7.8942453400
13.0763006954 1.9442620788 9.0276299557
12.6129413797 1.7909794519 9.9028855368
12.9466492101 2.2380354974 10.5363870635
13.4743846489 2.8097466993 10.8794857324
12.4509873620 3.4917455670 5.6166339370
12.5621999748 3.0633525731 6.0693410762
12.6636276287 2.5881249485 6.6308591066
12.6822712606 3.0355779818 11.3988308933
13.3880005295 3.4025859021 11.3065214779
12.6896026541 4.2386267296 5.3601844929
12.9330635126 3.7086018008 5.8683286106
13.2277667390 3.4978609905 11.4793392228
12.1713619034 5.6999483115 4.4247249743
12.5544237947 5.0985035555 4.8690842716
12.2854770125 6.6277107571 4.3893288134
12.9129278106 6.0565297138 4.8913809039
12.2215958073 7.2874081924 4.3893995578
12.9486781912 7.1806814900 4.9875176288
12.3560738563 7.7118833150 10.9363195480
13.0865058181 7.4344726236 10.8827389508
12.6725524807 7.9561712008 10.5691004927
13.4960941608 6.8040595854 11.1250823247
12.5482789928 8.5919820967 5.3568492392
12.6975869321 8.1379116547 5.1760333935
13.2397219138 8.4550147639 5.9389259013
12.9471908290 8.3628992721 9.9910919059
12.9468507650 9.2010475836 7.1343237553
13.1019708754 8.9771933164 6.6219795888
12.9297370588 9.2138928803 8.1045502075
13.2699511109 9.0668144780 7.7132353433
12.4992188967 9.1621005495 8.9342255519
13.0380720456 9.0350945323 8.6725860702
13.3233549974 8.6514733511 9.3124626132
13.1868464676 2.6612798455 7.3084267066
13.6850603280 2.6828400573 8.2915437667
14.0573626466 2.6814557598 9.3660803722
13.5257257575 2.2392589225 9.9842826660
13.6326757796 2.4555459610 10.4861241724
13.8966608699 2.4703881827 10.2926385798
13.2757751596 3.4300713432 6.5379182962
13.9142059362 3.4915620746 7.4610270846
14.2281500967 3.3473917571 8.1992814123
14.3189979850 3.1399717337 8.7528644614
14.1165239325 2.8652897060 10.5080966504
14.1930830585 3.5867285349 10.9419033656
13.4305508328 4.3266173334 5.9502162268
13.9564252835 4.2650193336 6.6539235289
14.5135244592 4.4249674342 7.3807733334
14.4367426868 3.8393789645 7.9232972539
13.6579013304 4.0471682016 11.4629636640
14.0513986884 4.3233398342 11.2914128125
13.4026291748 5.2658538913 5.4384749755
14.0174747620 5.0340653671 6.1007073997
14.4094391382 4.9351587855 6.6850038387
13.9997983611 4.9078331614 11.4118356684
14.2923138388 5.3074977313 11.2203499769
13.6787085872 6.2720611527 5.4324066926
13.9943877877 5.8452418436 11.2980882802
14.1568168716 6.2519117823 11.0663956849
14.0273873549 7.0228814651 5.8394496961
13.4377054413 7.7580874400 5.6054238891
14.0326422967 7.8196537309 6.2122259009
13.8092761040 6.9876961275 10.8594263084
13.6875325732 7.6714058310 10.3264013749
13.9743798855 8.3117192228 6.5373154032
13.6308752768 8.2385468428 9.7930513302
14.0173737596 7.9602047161 9.8417998899
14.0222435967 8.2365633623 9.3539341438
13.6818501263 8.6565680087 6.6784960919
13.7755136788 8.7561458060 7.3663455972
13.8077270544 8.6573068406 8.4386108488
14.0968940120 2.6129265592 10.0611625911
14.7328752819 3.8113130015 8.5610435611
14.7470662389 3.4664066047 9.3152027917
14.5871796139 3.1672742698 10.0347274811
14.5833982705 3.3882766946 10.5533489339
14.9205557876 3.6881458579 10.3547528278
14.7937865692 4.2784699430 8.0450004108
15.1258972090 4.4625964075 8.4693075075
15.3679330250 4.4325094622 9.1977350307
14.7772068353 3.8927408396 10.6844047810
14.7049575378 4.6561851437 10.8790536440
14.0532661308 5.7118035211 5.7976226024
14.5296287823 5.6758197684 6.3699824648
14.8559681844 5.3033042384 7.1085578956
15.1453514844 4.9738357208 7.9275966555
15.4948904582 4.9403681351 8.6048179079
14.7186202257 5.7570931604 10.8305685434
14.2716512934 6.2466665721 5.9190560516
14.6798954710 6.4861767541 6.4219895705
14.9764545980 5.9989327384 6.8960420479
14.4808356280 6.7032787902 10.5643260690
14.9877588350 6.1239286077 10.5154388412
15.1156514813 6.5495355015 10.1298932316
14.5225877704 7.9296678999 6.9659515735
14.6457823772 7.2429440645 6.5981334691
14.9965518593 7.3888032406 7.2087124123
14.5789072913 7.4705633520 9.7782481457
15.1988970649 6.9760767071 9.7182941253
15.1858401494 7.2894667468 9.1888802056
14.1369131333 8.4443404872 7.0420861357
14.9458224789 7.7310758476 7.6055431443
14.4596942213 8.2383424062 7.7854926073
14.5680874425 7.9964109990 8.8254573201
15.0840001675 7.6224421126 8.3284821927
15.1151317454 3.9061756808 9.8994375789
15.4701605189 4.6439385906 9.9194146488
15.1437970754 4.3412913073 10.3872896884
15.3174045115 5.8422824410 7.5835885145
15.7346254412 5.6290643502 8.3887719051
15.8921550436 5.2693768632 9.0160576777
15.9154867026 5.2398960335 9.6342647966
16.0865250996 5.7676618877 9.7932602710
15.3937456213 5.4873783721 10.2541260598
15.1647298875 6.6729334838 7.2040395770
15.6847905196 6.4255018267 8.1411794105
16.0512236896 6.1007772123 8.6272301718
16.1272206935 5.7657978505 8.8762764198
16.1367293705 6.3533512042 9.2061646569
15.7021127732 6.4449150576 9.6184873316
16.2365933231 6.0884287307 9.5838867555
15.3271197947 7.1718372083 7.8480377884
16.0413914176 6.4159756055 8.7435939428
15.6632919697 6.8732727632 8.7293525075
16.2480075829 5.6601710574 9.2949441799
16.2730999616 5.6039463079 9.6497362265
16.3618795842 5.8514048765 9.6619476951
16.2612513622 6.0819395066 9.0326690229
16.3633143087 6.0152941840 9.3917938558
3 2 1 0
3 0 3 2
3 6 5 4
3 8 7 4
3 7 0 4
3 1 6 4
3 1 4 0
3 0 7 3
3 5 9 4
3 4 9 8
3 11 10 2
3 2 10 1
3 2 3 11
3 11 3 12
3 14 13 6
3 6 13 5
3 7 8 15
3 16 15 8
3 10 6 1
3 6 10 14
3 3 7 12
3 12 7 15
3 13 17 5
3 5 17 9
3 8 9 16
3 16 9 17
3 20 19 18
3 22 21 18
3 18 21 20
3 22 23 21
3 26 25 24
3 26 24 19
3 24 18 19
3 24 27 18
3 27 10 11
3 22 27 11
3 18 27 22
3 29 28 12
3 12 28 11
3 28 23 11
3 23 22 11
3 31 30 29
3 29 30 28
3 31 32 30
3 24 25 33
3 33 25 34
3 33 13 14
3 27 33 14
3 24 33 27
3 10 27 14
3 15 16 35
3 29 12 15
3 35 29 15
3 36 29 35
3 38 31 37
3 31 36 37
3 31 29 36
3 31 38 32
3 33 34 39
3 39 34 40
3 41 17 13
3 33 41 13
3 39 41 33
3 41 42 17
3 17 42 16
3 42 43 16
3 43 35 16
3 35 43 36
3 36 43 44
3 36 44 37
3 40 45 39
3 39 45 41
3 41 45 46
3 41 46 42
3 49 48 47
3 47 50 49
3 53 52 51
3 19 20 51
3 20 53 51
3 20 54 53
3 21 47 48
3 54 21 48
3 20 21 54
3 56 55 23
3 23 55 21
3 55 50 21
3 50 47 21
3 58 57 56
3 56 57 55
3 60 59 58
3 58 59 57
3 60 61 59
3 51 52 26
3 52 25 26
3 52 62 25
3 51 26 19
3 28 56 23
3 56 28 30
3 56 30 58
3 58 30 32
3 63 58 32
3 60 58 63
3 61 60 64
3 64 60 63
3 67 66 65
3 62 67 65
3 34 62 65
3 25 62 34
3 37 68 38
3 63 32 38
3 68 63 38
3 69 63 68
3 64 63 70
3 70 63 69
3 65 66 71
3 71 66 72
3 71 40 34
3 71 34 65
3 42 73 43
3 74 44 43
3 74 43 73
3 68 37 44
3 74 68 44
3 75 68 74
3 77 69 76
3 69 75 76
3 69 68 75
3 69 77 70
3 72 78 71
3 78 80 79
3 78 79 45
3 71 78 45
3 40 71 45
3 81 46 45
3 81 45 79
3 81 82 46
3 46 82 42
3 82 83 42
3 83 73 42
3 73 83 74
3 74 83 84
3 74 84 75
3 75 84 85
3 75 85 76
3 80 86 79
3 79 86 81
3 81 86 87
3 81 87 82
3 89 88 49
3 49 88 48
3 91 90 50
3 90 49 50
3 90 89 49
3 93 92 91
3 91 92 90
3 95 94 93
3 93 94 92
3 95 96 94
3 98 97 53
3 53 97 52
3 99 53 54
3 99 98 53
3 54 48 88
3 54 88 99
3 55 91 50
3 91 55 57
3 91 57 93
3 93 57 59
3 93 59 95
3 101 100 61
3 61 100 59
3 100 96 59
3 96 95 59
3 101 102 100
3 105 104 103
3 97 105 103
3 62 97 103
3 52 97 62
3 64 106 101
3 64 101 61
3 102 101 107
3 107 101 106
3 103 104 67
3 104 66 67
3 104 108 66
3 103 67 62
3 70 109 106
3 70 106 64
3 107 106 110
3 110 106 109
3 108 72 66
3 111 72 108
3 76 112 77
3 112 113 77
3 77 113 70
3 113 114 70
3 114 109 70
3 109 114 110
3 78 72 115
3 72 116 115
3 72 111 116
3 115 80 78
3 82 117 83
3 118 84 83
3 118 83 117
3 119 85 84
3 119 84 118
3 119 120 85
3 85 120 76
3 120 121 76
3 121 112 76
3 112 121 113
3 116 122 115
3 115 122 80
3 122 86 80
3 122 123 86
3 86 124 87
3 123 124 86
3 82 87 117
3 87 125 117
3 87 124 125
3 117 125 118
3 118 125 126
3 118 126 119
3 119 126 127
3 119 127 120
3 130 129 128
3 132 131 128
3 128 131 130
3 132 133 131
3 135 134 89
3 89 134 88
3 90 128 129
3 135 90 129
3 89 90 135
3 128 90 92
3 128 92 132
3 136 133 132
3 92 136 132
3 94 136 92
3 138 137 96
3 137 94 96
3 137 136 94
3 138 139 137
3 141 140 98
3 98 140 97
3 142 98 99
3 142 141 98
3 99 88 134
3 99 134 142
3 100 138 96
3 144 143 102
3 102 143 100
3 143 139 100
3 139 138 100
3 144 145 143
3 147 146 105
3 105 146 104
3 105 97 140
3 105 140 147
3 107 148 144
3 107 144 102
3 145 144 149
3 149 144 148
3 146 108 104
3 150 108 146
3 110 151 148
3 110 148 107
3 149 148 152
3 152 148 151
3 155 154 153
3 150 155 153
3 111 150 153
3 108 150 111
3 113 156 114
3 156 157 114
3 114 157 110
3 157 158 110
3 158 151 110
3 151 158 152
3 154 159 153
3 111 153 159
3 160 111 159
3 116 111 160
3 120 161 121
3 161 162 121
3 121 162 113
3 162 163 113
3 163 156 113
3 156 163 157
3 160 164 116
3 116 164 122
3 164 166 165
3 123 164 165
3 122 164 123
3 167 124 123
3 167 123 165
3 168 125 124
3 168 124 167
3 169 126 125
3 169 125 168
3 170 127 126
3 170 126 169
3 170 171 127
3 127 171 120
3 171 172 120
3 172 161 120
3 161 172 162
3 166 173 165
3 165 173 167
3 167 173 174
3 167 174 168
3 168 174 175
3 168 175 169
3 169 175 176
3 169 176 170
3 170 176 177
3 170 177 171
3 179 178 130
3 130 178 129
3 180 130 131
3 180 179 130
3 182 181 133
3 181 131 133
3 181 180 131
3 182 183 181
3 185 184 135
3 135 184 134
3 135 129 178
3 135 178 185
3 136 182 133
3 186 183 182
3 136 186 182
3 137 186 136
3 137 139 186
3 186 139 187
3 189 188 141
3 141 188 140
3 190 141 142
3 190 189 141
3 142 134 184
3 142 184 190
3 191 187 139
3 191 139 143
3 143 145 191
3 191 145 192
3 194 193 147
3 147 193 146
3 147 140 188
3 147 188 194
3 149 192 145
3 149 195 192
3 193 150 146
3 196 150 193
3 152 195 149
3 152 197 195
3 199 198 155
3 155 198 154
3 155 150 196
3 155 196 199
3 157 200 158
3 200 201 158
3 201 152 158
3 201 197 152
3 198 202 154
3 154 202 159
3 160 159 202
3 160 202 203
3 162 204 163
3 204 205 163
3 163 205 157
3 205 206 157
3 206 200 157
3 200 206 201
3 203 207 160
3 160 207 164
3 166 164 207
3 166 207 208
3 171 209 172
3 209 210 172
3 172 210 162
3 210 211 162
3 211 204 162
3 204 211 205
3 208 212 166
3 166 212 173
3 173 213 174
3 212 213 173
3 174 214 175
3 213 214 174
3 175 215 176
3 214 215 175
3 176 216 177
3 215 216 176
3 171 177 209
3 177 217 209
3 177 216 217
3 209 217 210
3 219 218 179
3 179 218 178
3 220 179 180
3 220 219 179
3 221 180 181
3 221 220 180
3 181 183 221
3 221 183 222
3 224 223 185
3 185 223 184
3 185 178 218
3 185 218 224
3 225 222 183
3 225 183 186
3 227 226 187
3 226 186 187
3 226 225 186
3 227 228 226
3 229 188 189
3 229 189 230
3 189 231 230
3 189 190 231
3 190 184 223
3 190 223 231
3 191 227 187
3 191 192 227
3 192 228 227
3 192 232 228
3 233 193 194
3 234 233 194
3 234 194 188
3 235 234 188
3 229 235 188
3 235 229 230
3 195 237 236
3 232 195 236
3 192 195 232
3 239 238 233
3 238 193 233
3 238 196 193
3 239 233 234
3 197 240 237
3 197 237 195
3 241 198 199
3 242 241 199
3 196 242 199
3 238 242 196
3 244 243 240
3 197 244 240
3 201 244 197
3 241 202 198
3 203 202 241
3 242 203 241
3 245 203 242
3 205 246 206
3 246 247 206
3 247 201 206
3 247 244 201
3 245 248 203
3 203 248 207
3 208 207 248
3 208 248 249
3 210 250 211
3 250 251 211
3 211 251 205
3 251 252 205
3 252 246 205
3 246 252 247
3 249 253 208
3 208 253 212
3 253 255 254
3 213 253 254
3 212 253 213
3 256 214 213
3 256 213 254
3 257 215 214
3 257 214 256
3 215 257 258
3 259 215 258
3 216 215 259
3 216 260 217
3 259 260 216
3 210 217 250
3 217 261 250
3 217 260 261
3 250 261 251
3 263 262 219
3 219 262 218
3 264 219 220
3 264 263 219
3 265 220 221
3 265 264 220
3 267 266 222
3 266 221 222
3 266 265 221
3 267 268 266
3 270 269 224
3 224 269 223
3 224 218 262
3 224 262 270
3 225 267 222
3 271 268 267
3 225 271 267
3 226 271 225
3 226 228 271
3 271 228 272
3 274 273 231
3 231 273 230
3 231 223 269
3 231 269 274
3 232 272 228
3 232 275 272
3 276 234 235
3 277 276 235
3 230 277 235
3 273 277 230
3 278 275 232
3 278 232 236
3 279 238 239
3 280 279 239
3 280 239 234
3 281 280 234
3 276 281 234
3 281 276 277
3 282 242 279
3 279 242 238
3 279 280 283
3 279 283 282
3 244 284 243
3 286 285 282
3 285 242 282
3 285 245 242
3 286 282 283
3 288 287 284
3 244 288 284
3 247 288 244
3 285 289 245
3 245 289 248
3 249 248 289
3 249 289 290
3 292 291 252
3 292 252 251
3 247 252 288
3 288 252 291
3 290 293 249
3 249 293 253
3 255 253 293
3 255 293 294
3 258 295 259
3 296 260 259
3 296 259 295
3 260 296 297
3 298 260 297
3 261 260 298
3 251 261 292
3 292 261 298
3 300 299 263
3 263 299 262
3 301 263 264
3 301 300 263
3 302 264 265
3 302 301 264
3 303 265 266
3 303 302 265
3 266 268 303
3 303 268 304
3 305 269 270
3 306 305 270
3 262 306 270
3 299 306 262
3 307 304 268
3 307 268 271
3 271 272 307
3 307 272 308
3 309 273 274
3 310 309 274
3 310 274 269
3 311 310 269
3 305 311 269
3 311 305 306
3 275 313 312
3 308 275 312
3 272 275 308
3 315 314 309
3 314 273 309
3 314 277 273
3 315 309 310
3 278 313 275
3 316 280 281
3 317 316 281
3 277 317 281
3 314 317 277
3 319 318 316
3 318 280 316
3 318 283 280
3 319 316 317
3 320 285 286
3 321 320 286
3 283 321 286
3 318 321 283
3 323 322 287
3 323 287 288
3 320 289 285
3 325 324 290
3 325 290 289
3 321 325 289
3 320 321 289
3 326 324 325
3 328 327 291
3 328 291 292
3 288 291 323
3 323 291 327
3 324 293 290
3 330 329 294
3 330 294 293
3 326 330 293
3 324 326 293
3 331 329 330
3 333 332 298
3 333 298 297
3 292 298 328
3 328 298 332
3 334 299 300
3 334 300 335
3 300 336 335
3 300 301 336
3 337 301 302
3 337 336 301
3 338 302 303
3 338 337 302
3 303 304 338
3 338 304 339
3 341 340 334
3 340 299 334
3 340 306 299
3 341 334 335
3 342 339 304
3 342 304 307
3 307 308 342
3 342 308 343
3 345 344 311
3 311 344 310
3 311 306 340
3 311 340 345
3 346 343 308
3 346 308 312
3 347 314 315
3 348 347 315
3 310 348 315
3 344 348 310
3 350 349 347
3 349 314 347
3 349 317 314
3 350 347 348
3 351 318 319
3 352 351 319
3 317 352 319
3 349 352 317
3 353 321 351
3 351 321 318
3 351 352 354
3 351 354 353
3 356 355 322
3 356 322 323
3 353 325 321
3 358 357 326
3 358 326 325
3 354 358 325
3 353 354 325
3 359 357 358
3 361 360 327
3 361 327 328
3 323 327 356
3 356 327 360
3 357 330 326
3 363 362 331
3 363 331 330
3 359 363 330
3 357 359 330
3 364 362 363
3 366 365 332
3 366 332 333
3 328 332 361
3 361 332 365
3 367 335 336
3 337 368 336
3 336 368 367
3 338 369 337
3 337 369 368
3 339 369 338
3 370 340 341
3 371 370 341
3 371 341 335
3 372 371 335
3 367 372 335
3 372 367 368
3 372 368 373
3 373 368 369
3 373 369 374
3 374 369 339
3 342 374 339
3 375 374 342
3 342 343 375
3 375 343 376
3 377 344 345
3 378 377 345
3 378 345 340
3 379 378 340
3 370 379 340
3 379 370 371
3 343 346 380
3 381 343 380
3 376 343 381
3 383 382 377
3 382 344 377
3 382 348 344
3 383 377 378
3 384 381 380
3 385 349 350
3 386 385 350
3 348 386 350
3 382 386 348
3 387 352 385
3 385 352 349
3 385 386 388
3 385 388 387
3 389 354 387
3 387 354 352
3 387 388 390
3 387 390 389
3 393 392 391
3 355 356 391
3 392 355 391
3 394 355 392
3 389 358 354
3 396 395 359
3 396 359 358
3 390 396 358
3 389 390 358
3 397 395 396
3 393 391 360
3 361 393 360
3 398 393 361
3 360 391 356
3 395 363 359
3 400 399 364
3 400 364 363
3 397 400 363
3 395 397 363
3 402 401 399
3 402 399 400
3 404 403 401
3 404 401 402
3 365 366 403
3 404 365 403
3 405 365 404
3 361 365 398
3 398 365 405
3 406 371 372
3 373 407 372
3 372 407 406
3 407 373 408
3 373 409 408
3 373 374 409
3 411 409 410
3 409 375 410
3 409 374 375
3 376 410 375
3 412 378 379
3 371 406 379
3 406 412 379
3 406 413 412
3 407 415 414
3 413 407 414
3 406 407 413
3 415 407 408
3 416 411 410
3 410 376 416
3 376 417 416
3 376 381 417
3 418 382 383
3 378 412 383
3 412 418 383
3 412 419 418
3 413 421 420
3 419 413 420
3 412 413 419
3 421 413 414
3 381 384 422
3 423 381 422
3 417 381 423
3 425 424 418
3 424 382 418
3 424 386 382
3 425 418 419
3 425 419 426
3 426 419 420
3 423 422 427
3 423 427 428
3 424 388 386
3 429 388 424
3 428 427 430
3 428 430 431
3 433 390 432
3 390 429 432
3 390 388 429
3 434 433 432
3 436 435 392
3 436 392 393
3 430 394 431
3 394 435 431
3 394 392 435
3 433 396 390
3 397 396 433
3 434 397 433
3 437 397 434
3 440 439 438
3 439 436 438
3 436 398 438
3 436 393 398
3 437 441 397
3 397 441 400
3 400 442 402
3 441 442 400
3 402 443 404
3 442 443 402
3 438 405 440
3 405 443 440
3 405 404 443
3 405 438 398
3 444 408 409
3 411 444 409
3 445 414 415
3 446 445 415
3 446 415 408
3 447 446 408
3 444 447 408
3 449 447 448
3 448 447 416
3 447 444 416
3 444 411 416
3 417 448 416
3 450 420 421
3 414 445 421
3 445 450 421
3 445 451 450
3 445 446 452
3 445 452 451
3 453 449 448
3 448 417 453
3 417 454 453
3 417 423 454
3 455 424 425
3 426 456 425
3 425 456 455
3 457 456 426
3 457 426 420
3 458 457 420
3 450 458 420
3 458 450 451
3 458 451 459
3 459 451 452
3 428 454 423
3 428 460 454
3 461 429 455
3 455 429 424
3 456 463 462
3 461 456 462
3 455 456 461
3 463 456 457
3 466 465 464
3 465 460 464
3 460 431 464
3 460 428 431
3 461 432 429
3 468 467 434
3 468 434 432
3 462 468 432
3 461 462 432
3 469 467 468
3 472 471 470
3 470 471 466
3 470 466 464
3 436 470 464
3 435 436 464
3 435 464 431
3 473 437 467
3 467 437 434
3 467 469 474
3 475 467 474
3 473 467 475
3 477 476 475
3 477 475 474
3 476 477 472
3 476 472 470
3 440 476 470
3 439 440 470
3 439 470 436
3 473 441 437
3 441 473 442
3 442 473 475
3 442 475 443
3 443 475 476
3 443 476 440
3 478 446 447
3 449 478 447
3 479 452 478
3 478 452 446
3 453 480 449
3 480 478 449
3 480 479 478
3 454 480 453
3 481 457 458
3 459 482 458
3 458 482 481
3 483 482 459
3 483 459 452
3 484 483 452
3 479 484 452
3 486 485 484
3 479 486 484
3 480 486 479
3 460 486 454
3 454 486 480
3 487 462 463
3 457 481 463
3 481 487 463
3 481 488 487
3 482 490 489
3 488 482 489
3 481 482 488
3 493 492 491
3 483 490 482
3 492 493 485
3 492 485 486
3 466 492 486
3 465 466 486
3 465 486 460
3 487 468 462
3 468 487 469
3 487 494 469
3 487 488 494
3 488 489 495
3 496 488 495
3 494 488 496
3 496 495 491
3 496 491 492
3 472 496 492
3 471 472 492
3 471 492 466
3 494 474 469
3 474 494 477
3 477 494 496
3 477 496 472
3 498 497 484
3 484 497 483
3 484 485 498
3 498 485 499
3 500 489 490
3 493 491 501
3 500 501 491
3 501 500 497
3 490 497 500
3 497 490 483
3 485 493 499
3 499 493 501
3 500 495 489
3 495 500 491