OFF
1282 2532 0
1.2576041247 18.9999545478 16.3569219825
1.2990554641 18.8347567553 15.7252601707
1.4333452468 18.4116555548 15.9947512796
1.5077277036 18.3350139860 16.5115191233
1.1558758635 19.5584993560 15.7683315629
1.5398493225 19.5420239963 15.0571923035
1.3451363163 19.0466881124 15.4053124111
1.0892053385 19.7836502209 16.4244190834
1.6531166149 18.7126245021 17.1135454962
1.3215113086 19.5944497511 16.9909519519
1.6869919238 19.4368380533 17.5234917770
1.2137862063 20.3998633040 15.4955027034
1.7481815920 20.5888680810 14.9065376261
1.0471881949 20.4052197238 16.1610967335
1.2041182007 20.4044172407 16.8410574494
1.6467796486 20.2560729959 17.5108915129
1.3409454114 21.1189166059 15.4192266617
1.7716359546 21.2812253830 15.1068707275
1.1016348119 20.9727419248 15.9009727205
1.1871287160 21.1400778913 16.5615980020
1.5582736128 21.0532854641 17.2144315162
1.5739789698 21.5438400105 15.3999875549
1.2836090064 21.4511338809 15.9067761692
1.8023652094 21.7260968349 15.4757003161
1.3096176227 21.5720523815 16.6790041615
1.4994771264 21.5193847373 17.0223002954
2.1666713706 16.8235301103 16.1943325603
2.3070687839 16.6217242874 15.6349699975
2.4560237505 16.2540979433 15.9350113151
2.4670218485 16.2384725979 16.4017425101
2.0553309005 17.2481831792 15.5615246619
2.3834955979 17.3275865449 14.9209986457
2.3343561797 16.8119614386 15.3096349941
1.7693798606 17.7435394269 16.1778906811
2.3985276440 16.6147708529 16.7386723791
2.1519066407 17.2845797719 16.8241287015
2.7271529125 16.7707765200 17.2331707719
1.7257999314 18.3485540737 15.2834256453
2.2566657993 18.1881213126 14.5869680210
1.8267654938 17.9707428053 16.8598851397
2.4108849252 17.8577486570 17.5150979675
2.0817491674 18.9484499350 14.5433143525
2.6863563448 19.1407449110 14.1185562235
2.5771951907 18.4880886381 14.2224866688
2.1494451920 18.8791771676 17.7876701025
2.1197926101 19.7076723734 17.9450330157
2.7359027630 19.1050951628 18.2068145692
2.1346027914 19.8128562324 14.4514346305
2.8478737415 19.9013203786 14.1391571779
2.1749821360 20.3888686863 17.9614019630
2.8053497614 20.0204007912 18.2448482212
2.3893632863 20.4561931639 14.4528001406
2.4979870772 21.0973952584 14.8235803376
2.5867832333 20.7415512580 18.0320732722
2.0974888720 20.9553811521 17.6970005529
2.1465557124 21.6200919287 15.2307647154
2.5200635310 21.8280506582 15.4503660070
1.6059733015 21.6816916195 17.0646099682
2.1979578789 21.5565718981 17.3330689028
3.2969431383 14.6517416241 16.2937082917
3.6052519458 14.2655355854 15.8815865397
3.5782261743 14.1042153946 16.2400884801
3.6098486370 14.1236331944 16.5092824442
3.2428558693 15.0394727149 15.6449824900
3.6073607348 15.2347528670 15.0466349503
3.7061322738 14.5556899616 15.3984784384
2.8341994591 15.6224223397 16.1765940137
3.5065666108 14.5059599074 16.7648898275
3.2302917630 15.2062436481 16.8056814530
3.8310621335 14.6970646390 17.1648280703
2.8095661868 16.1676705277 15.2698902370
3.5557902499 16.0157685980 14.5961261603
2.8004084842 16.0343897912 16.8311606333
3.5302439009 15.8194500752 17.3729311789
3.0725639572 16.8409744756 14.5021627171
3.5133197260 17.2516396557 14.0749357647
3.6459873392 16.5572930842 14.2286865661
3.4156226771 16.9918579769 17.8075165127
2.8091588525 17.7421728627 14.3049713945
3.3367897093 18.2490406701 13.9652437462
3.1020110391 17.8221321966 18.0308614618
2.7224096989 18.4017020630 18.0394972293
3.4511344032 18.3022915450 18.3130924429
3.5183628504 19.1676198752 13.9298545013
3.5025751354 19.2085842348 18.4365804387
3.6521005521 19.9267192924 14.0723207680
3.5988999128 19.9510683505 18.4007674691
3.0923202044 20.5406237482 14.3546654191
3.6666418983 21.0029069362 14.7954280354
2.8146515664 21.2621648301 17.7263369391
3.3349585548 20.7053209155 18.1380287304
3.1043070933 21.6146282401 15.3634979143
3.1755815399 21.8970274845 15.8558099124
2.8635628813 21.8808366931 17.1475384799
3.2486430357 21.7477979171 17.0944417641
3.1621086017 21.9796948472 16.9308606582
3.6404373429 21.2731052055 17.6828668429
4.1185839529 13.6067474455 16.2885239936
4.6391107921 13.4418665071 15.7759265646
4.8814056558 13.0064523120 16.1239577593
4.9161094077 12.7334147110 16.6717967491
4.4515878833 13.3490894500 16.9040062867
5.0333134261 12.8218672547 17.1716585441
4.1347606686 13.9752084792 15.5875954410
4.2623028626 14.5219105893 15.0889853924
4.8699314913 13.8373687655 15.3263342102
3.9474561630 13.9835166744 16.8648772064
4.6297848487 13.7930370544 17.3092412461
4.3971187338 15.3446656412 14.6051326008
4.5469411121 14.9003182973 17.5635119766
4.0842915930 16.0846815040 14.2740478087
4.1989563979 16.6601971092 14.0367290266
4.7955082411 16.0029488334 14.2108322121
4.5336664372 16.0935051013 17.8607965012
4.2165251945 17.4636808820 13.8758696493
4.1658066799 17.0106372718 18.1144009958
3.6698636674 17.5404724516 18.1752554404
4.2816113244 17.6166876735 18.3281517044
4.2995214841 18.3346540288 13.8393412148
4.3034642877 18.4315021907 18.4686276249
4.5387302349 19.2095185130 13.9949360919
4.3127489400 19.3249073396 18.4687037780
4.3526524434 19.9756797160 14.2049488010
3.8214546247 20.4393631439 14.3239131879
4.5248647633 20.4455680757 14.5709668986
4.2095589099 20.2609861412 18.2753709739
4.6776691828 20.9378538219 15.0955705785
3.9510348253 20.8786352735 18.0509000019
4.3339230406 20.7138949877 18.0729628665
4.3345635678 21.0216925277 17.7432512193
4.1319807247 21.4096457902 15.4901847594
3.3436810515 21.9560523901 16.5145864678
3.7224122021 21.7433610915 16.1993628671
4.2463868157 21.4304974167 17.0239084230
5.3129064122 12.2596925256 17.0351915767
5.5743387530 12.0416075482 16.7494969039
5.6366113280 11.9099978450 17.0561279586
5.7496067773 12.0907250183 17.3050785311
5.5137454525 13.1319875964 15.6530793994
5.5656283505 12.4557152152 16.2178238642
5.5470906979 12.9507108598 17.4998822566
5.1601428509 14.5224184618 14.8859374030
5.7970627664 13.8461728946 15.1748982165
5.4860510317 13.9442102105 17.6342178330
5.5620667513 15.3504685954 14.5016815936
5.5441141753 15.0239476643 17.7793676786
5.0590455213 16.7717033188 13.9768475633
5.5574580944 16.0875881286 14.1979241106
5.7200998864 16.0474731398 17.9611974540
4.9426730107 17.6067929144 13.8496235957
4.9575246019 16.8753269629 18.1736211702
5.1057997312 17.6722059298 18.3685016027
5.3001561673 18.2630100837 13.9390033770
5.1420491824 18.5358507475 18.4322185736
5.4047287140 18.9540841981 14.1053901310
5.1524209200 19.4651680190 18.2905890071
5.3610587482 19.6126686547 14.4444933188
5.3818657761 20.3622895528 14.9715787999
4.8922907539 20.4055630542 17.9629009943
5.5972280238 19.7943313769 17.9988675912
5.6390476819 20.2901293025 17.5844755397
5.4813402302 20.7800253171 15.5167813111
4.8777469724 21.2123542620 15.5964083675
5.2923145626 21.1289059702 15.9519974977
4.9775906128 20.9258933384 17.3696331302
5.6626475956 20.7549229494 16.9318086896
5.0151094899 21.2134181931 16.7854276283
4.6927985243 21.4129462152 16.1815980781
6.1576683987 11.5157148469 16.9717097386
6.7800933661 11.0687703123 16.5558232851
6.8109866877 10.8608848066 17.0691402793
6.6561698421 11.3457811728 17.4864399289
6.2465683058 11.7682577644 16.3598781970
6.6262751802 12.4316834380 15.6743720529
7.0751655767 11.4410393722 15.8872355190
6.2688472053 12.2212441944 17.6005222819
6.5495850842 13.3759861472 15.3327137269
6.3685931417 12.9992821951 17.7031271555
6.2370767696 14.6115566798 14.8409950421
6.5918160274 14.0026023365 15.0934654721
6.4731187298 14.0394407872 17.7346867958
6.3690146821 15.2534781318 14.6058796436
6.6241186435 15.1434712393 17.7726253601
5.8719314899 16.5559072811 14.1124235899
6.4573401139 15.9907179163 14.4078058857
6.7731387553 16.2968231387 17.8660605078
5.7606049103 17.3009745599 13.9972458047
6.3939712524 16.8008560298 14.2085801943
5.8653291515 16.9551892324 18.1600245840
5.9044476285 17.8025978015 18.2804675866
6.0673179580 17.8782679658 14.0906571185
5.9865723582 18.5079096033 14.1957189528
6.6723761425 17.9176412165 14.3858035582
5.8977099989 18.6154048295 18.2626379403
5.8298569415 19.0197476082 14.2999150902
6.5492073562 18.8430879866 14.6924882697
5.9086091235 19.2233334859 18.1227371476
6.4205264526 18.7532881863 18.0015204717
6.3074047678 19.4689620052 17.7322397887
5.8777791248 20.3458109286 15.3242804603
6.3415382714 19.7328288849 15.2252727546
6.2162210995 20.3026070212 15.7684187346
6.2816197694 20.1167451504 17.2389421901
5.3482184051 21.1265692759 16.4045685819
5.8768320857 20.7353972619 16.2403455426
6.2630716261 20.4187019939 16.7722880206
7.3038219881 10.3609837963 17.4874375400
7.3482468157 10.3581712279 16.7171036122
7.7272747083 9.7383990839 17.1575511515
7.8384291402 9.6168089004 17.8459519242
7.6445147658 10.1775773037 18.0322350707
8.0828384846 9.7983224712 18.4429735869
7.2640977348 10.7982225360 16.2176900046
7.3998410318 10.8634146216 17.9151682715
7.8824392959 10.4546383445 18.2840774106
7.3821570632 11.9787568369 15.3990498299
8.0011188734 12.2627489994 14.9921151596
7.8983800798 11.3902670596 15.1921189083
7.5789272778 10.8766750197 15.7708557658
7.9956001484 11.1561065638 18.1762212791
7.1643225098 11.9312457115 17.8203336384
7.4732359713 12.5074924537 15.2702894271
7.4804206422 13.1685029503 15.2285582358
7.3659576361 13.0510295347 17.7539377841
7.0031551944 14.4597427172 14.9639460612
7.3671952734 13.9871933654 15.1115079325
7.5078598054 14.1656809004 17.6488966847
7.1717172096 15.2210125724 14.7441856137
7.5566083173 14.6496318327 14.9569683214
7.7356714647 15.3953332320 17.5367063273
7.3119921770 15.9858006954 14.5856879989
7.4925100584 16.3135127023 17.6446747956
6.4638648392 17.3567921521 14.1985956574
7.2346315068 16.8612509796 14.5177993970
6.5297470771 17.2175287844 18.0582948170
7.2686688230 17.1769896831 17.7172208083
7.5582120742 17.8900986303 14.8641248318
6.5868170620 17.9911384034 18.0352176297
7.1409232489 18.4872484344 17.5449663704
7.5332791661 18.5706556974 15.2798870058
6.9560089396 19.1281159786 15.1881514504
7.2637672832 19.1585165094 15.6705449172
6.8764665595 19.4837633266 17.2407219898
6.5630650725 20.1863335816 16.4171099494
6.9022361374 19.7138183520 16.0336098589
6.6753099073 20.0118139913 16.9127542915
7.0731779607 19.6117418394 16.7046959600
8.9438579489 8.1199424689 19.8545291873
8.8438935261 7.9647003791 19.4533453171
9.1677424186 7.6003970112 19.6886895443
9.3092889073 7.7560459872 20.1134383375
8.4902681778 8.8370672378 16.5906352485
8.7231792241 8.9324265116 15.9024534823
8.7733810253 8.4957476400 16.4318561476
8.7414878774 8.3415786473 17.0039997548
8.2395965687 8.9996526910 17.3404513292
8.6942654726 8.2413449487 17.9454333504
8.3490802290 8.9205653786 18.4508141132
8.7343789071 8.1149117388 18.8506433354
8.6534168142 8.5193240934 19.3245648143
8.9006604473 8.7427827217 19.7925237481
9.2735832535 8.2642736748 20.2015002641
8.0787233108 9.6365032829 16.3386987494
8.4770853119 9.6716815486 15.5030154116
8.6122435358 9.3633517460 19.1396582685
9.0729369098 9.2768218299 19.6739905290
9.3751419957 8.8537421435 20.0867824717
8.5846873358 10.8728902536 14.5348254083
8.9224146723 10.7352152074 14.0089599713
8.9114536499 10.3490579196 14.1961047937
8.6741834578 10.0442368387 14.8136874120
8.1156918726 10.4107307812 15.4507820913
7.6600619893 10.3968751945 16.1012942585
9.1978255731 9.8518819367 19.2691604348
8.5583616725 10.3641071907 18.6615823041
9.0206570065 11.1927712155 13.9145658502
8.7503050614 11.9456429454 14.3739898696
8.9393137866 11.2838970461 18.2914115564
8.2147957719 12.1191871789 17.9219960032
7.9624523014 12.8387615315 15.0448317997
8.6273606027 12.9951736346 14.6826834786
8.4756720713 13.2055795434 17.6050738222
8.2016068302 13.3246815960 14.9880070685
8.1345040013 13.8721315397 15.0232487752
8.3783390860 14.3087431731 17.4105963824
7.9699515898 15.0788788769 14.8618499347
8.1023184595 14.5297097046 14.9639545606
8.5190461717 14.9968045807 17.2472343773
8.9595890147 14.4974743451 17.1258077859
9.0975125243 15.2414705648 16.8911892689
8.2473223123 15.8531928568 14.7296520325
8.5569049198 15.0561190011 14.7996040276
8.4549300095 15.6478942575 17.1942914510
8.0643524384 16.4769995521 17.3223436987
8.4802526825 16.9589715901 14.9821232954
7.9130965745 17.5801922333 17.2364127805
8.2583255265 17.6824937801 15.2160506937
7.9373752810 18.0902859981 15.2027071490
8.2261871185 18.0141268294 15.5633931965
7.8158371317 18.3919996085 16.9567771584
8.2485325813 17.8418223590 16.7826026223
8.1016986961 18.3228385877 16.4913286774
7.5786465514 18.9991711269 16.4225532838
7.9365947707 18.5090190208 15.9435708896
7.3807667073 19.0206296600 17.0165258373
9.2058289701 8.0527222038 16.2904364575
9.5870305200 7.9343254929 15.4933508484
9.7538039361 7.4480726090 16.0097398527
9.7033812036 7.2128575172 16.9063716615
9.1727363966 7.7109667044 17.4468704229
9.6502586094 7.0506656221 18.0206158139
9.1160352054 7.6103145734 18.4579575479
9.5334160482 7.1221816922 19.1152068558
9.0398640600 7.6438700878 19.1725755380
9.6588514853 7.2133763263 19.9310272795
9.8243881977 7.6947834577 20.3852829782
9.2602003498 8.6605112308 15.1729341682
9.5750429070 8.7213500225 14.3933294281
9.6919591041 8.1777766111 14.8538795852
9.7400387725 8.3955156404 20.3777264488
9.5692632127 9.7501342491 13.4222063800
9.8036958204 10.1781483615 12.8487492527
9.8980637385 9.4732643801 12.9891350943
9.7251498575 9.0681563174 13.6716878000
9.2183953319 9.5576955141 14.2618511537
8.8596679642 9.3681518040 15.1081178792
10.0204024335 8.8453883667 20.2216132345
9.6608657760 9.3833193826 19.7900567560
9.3044825710 10.5019355744 13.5758385570
9.7135426387 10.9110282532 12.9529738173
10.0648778537 9.9154181701 19.3371831898
9.5591264704 10.5532339254 18.7952438592
9.4557919928 11.3345892824 13.3985622666
9.2289290176 11.7292454367 13.7903606167
9.5637341947 11.9131672700 13.4670574132
10.0546731707 11.2804337908 18.2982129770
9.3933471186 12.2137940879 17.8168697598
9.3502321468 12.2078251155 13.8406427263
9.3426071462 12.8677585125 14.0661659459
9.3757940376 13.0343609999 17.4261026904
10.1429004746 12.7561015067 17.4009870373
9.7983529919 13.4308054106 17.1435518685
8.6554806579 13.7328689703 14.8074723400
9.3329939365 13.9342768644 14.3628221625
9.1127883446 13.7617858313 17.2465724402
9.7581113926 14.3063928866 16.8304746766
8.7580800940 14.4249054760 14.7858270003
9.4559732786 15.2231581537 14.5147517594
9.7528045840 15.1840001345 16.5217597753
9.4582253181 16.2360860569 14.8443509608
8.7969236583 16.2028866121 16.8486685518
9.4547150071 15.9274691499 16.4204081460
9.4503500384 16.6977289933 15.2582337908
8.8652483292 17.2257737292 15.6066990251
9.0272096731 16.7953974856 16.2974677297
9.7826799773 16.4291851123 15.7931997193
8.4897958157 17.1127555311 16.8191650527
8.4871729455 17.7213523196 16.2273227195
10.6111437448 5.9226623659 19.5845563201
10.7823086952 5.6207087722 18.7975902506
11.2260786364 5.1051595404 19.3992210343
11.0493852868 5.4139426441 19.9889534981
10.5256426728 6.7259880579 15.1480124161
10.7467875981 6.6804049708 14.4754195397
10.8985135177 6.2436931445 14.9619830701
10.8320187906 6.0552369594 15.7992082562
10.2519696260 6.7355489475 16.1954862533
10.7272291083 5.9187764284 16.8773472343
10.2056130261 6.4852491500 17.4386688080
10.7015226546 5.7741211365 17.9308284275
10.2098082288 6.3485827961 18.6527650866
10.0437707928 6.6241252014 19.5536201865
10.7697772153 5.8502471297 20.2041478068
10.2906133434 6.6521128189 20.2421231881
10.7742173477 5.9746749959 20.4799505067
10.4540509431 6.6682338828 20.5418636155
10.5393118206 7.7739782548 13.3061666903
10.9558301861 7.5922351759 12.5899848279
10.8926579908 7.2199061813 13.1646326521
10.8264423035 6.9585733191 13.7516204103
10.4361469730 7.2848386403 14.3078845034
10.0335203182 7.4758553746 15.1542173423
10.3289965502 7.4122840915 20.5867762578
10.6244968013 8.4857561388 12.3768328587
10.8740952394 9.0102013862 11.5299058070
11.0510130329 8.1606878351 11.8451905911
10.1680921731 8.7633758392 13.0643222393
10.0143957249 8.1725185360 14.0897831620
10.7003008369 7.8542911003 20.6940158569
10.4592576528 8.1924194355 20.5200433236
10.3312116039 9.6570775923 12.1767562928
10.7556154190 9.8563237371 11.2863511597
10.5651750244 8.7348159344 20.2725473076
10.5356156205 9.2330102865 19.8716014156
10.6026223184 10.7432034712 11.4205012687
11.0013558884 11.1630979281 10.6445857718
10.9551353488 10.3479443934 10.7931267664
10.1259518945 10.8286860132 12.3178363565
10.8820445711 9.7256102576 19.3595686139
10.7413613342 10.4246687455 18.8135264288
10.7715205959 11.6118109250 11.1653660472
11.0507520564 12.0184156970 10.7239839225
10.4633296086 11.8018705664 11.9471030835
9.9264070289 11.7200793434 12.8724959665
11.1875563208 11.1757409548 18.2455121576
10.6175877713 11.9729897341 17.8176051111
10.8690114318 12.3908638746 11.3487245276
10.6799429746 12.6513563454 12.0153607159
10.3311743368 12.7037419293 12.7326702415
10.7203301117 13.1872152802 12.3687418901
9.7861137324 12.5038941504 13.4381468204
11.0679513115 12.6078722296 17.4077485549
10.6675361369 13.5091582636 16.9519002319
10.5643841181 13.5140564562 12.8812263938
10.0531248495 13.5033891012 13.5439167566
10.6386991270 14.2680093600 13.1959989217
10.4874481453 14.2280320711 16.5687995226
10.9897785375 14.1147513950 16.5642445458
10.7978880019 14.5691557819 16.3508635035
10.1383111010 14.5875452752 13.9006258646
10.7218220861 15.0438375055 13.5443549263
10.3081121024 14.8391534765 16.3862939850
10.9614581393 15.2256221826 16.1147490251
10.3911067967 15.3807636859 14.0571263334
10.4031283667 16.0103349977 14.4769262546
10.1821996576 15.6245624556 16.1448804683
10.8454132768 16.0526310400 15.7285015384
10.4858821032 16.4346154528 15.1368912377
11.5816605911 4.6323827711 17.4917387754
11.7613107481 4.5222000740 16.6169887461
12.0146061326 4.0882709621 17.1479268785
12.0933734361 3.9520879676 18.0137075444
11.7272271595 4.3919948714 18.4126357541
12.2457573675 3.8955351199 19.0999642819
11.6346520429 4.5492735718 19.0233165961
11.8642642196 4.4229153674 19.7127120829
11.5570491105 5.7038718858 14.0750550101
11.7772377824 5.7473456109 13.3784466644
11.9787550239 5.1899687693 13.8793832523
11.8785213887 4.9592177421 14.7123666231
11.3264793778 5.5839056058 15.1415275939
11.7695972574 4.7488444093 15.7398907540
11.2924033999 5.2389696328 16.4442796359
11.0969801733 5.3100831383 17.4243639501
11.2304847788 5.0396434787 18.3627357136
11.5112445859 4.9061160743 20.1139636760
11.1646106327 5.3847887135 20.3862029981
11.6488479973 4.8618687168 20.4759614502
11.2068992321 5.3944477059 20.5498589983
11.3328761926 6.5941208322 13.1194585894
11.7337136134 6.5508575067 12.3171904629
11.8347264008 6.0347080446 12.8007714516
11.1041049357 6.2753683517 14.2470435240
11.8518332034 7.4073973892 11.2242953791
12.2134950070 7.6009553381 10.6503966628
12.2789431137 6.9161680877 11.0844165526
11.9818352249 6.7376395078 11.6630852973
11.4581424119 7.3505370356 11.9303751622
11.3453230268 7.9391864034 20.6375118678
12.2307653325 7.4184742687 20.7318671618
12.0822810641 7.7626796911 20.5221419563
11.5113066290 8.3652624609 10.9986497895
12.0917555518 8.4813137711 10.1637826932
11.3071752761 8.4985404969 20.2271601449
12.2813939313 8.1100166534 20.0815024026
11.8674918641 8.6816366440 19.8271243253
11.6711852945 9.3005429509 10.1766185392
12.0095000174 9.8190110723 9.4130764169
12.0354058709 9.0968411015 9.7985332876
11.1637423485 9.5557698800 10.7704399848
11.3866539475 9.1661238606 19.6507191017
12.0158298450 8.9943939808 19.4664337002
11.7456719012 9.6449071684 19.0812055399
12.1648723582 11.2617321228 6.8599969477
12.2835190596 11.4150996493 6.4646327545
12.4629799740 11.0584595225 6.6011110303
12.4188166516 10.8433712346 7.1283789913
11.4015668101 10.4489619147 10.0994867159
11.7876893602 11.1036099865 9.1770837777
11.8102735628 10.4252484327 18.5432761249
12.1281492607 11.6422030024 6.6994628153
12.3654659938 11.9417321010 6.2887517675
12.1185726933 11.2217633599 7.2753838514
12.0476254909 11.6038797074 7.1152678966
12.0490350643 11.4904947198 7.5524458232
11.4000857860 11.8706146252 9.9705116001
11.7649795467 12.2670259519 9.0053029857
12.0472497887 10.9770996928 18.1925481670
11.9264081757 11.8957996083 17.8089400146
12.1788699915 12.0978806138 6.8662293380
12.0571082398 11.9004934165 7.4334591312
11.5986714626 13.0395904342 9.6237092633
11.8240863739 13.1167596746 8.8789734641
11.3228715178 13.1288425646 10.7038613707
10.9935335823 13.2150102721 11.7201602557
11.6421406565 12.6088282137 17.4403208902
11.4466854052 13.0789945180 17.1841770321
11.8075541267 13.9399071422 9.1261390851
12.2041784875 14.2894449338 8.3283782211
12.0381575786 13.5400072764 8.4074813928
11.6002283285 13.9412036502 10.1287528393
11.5391487511 13.8114326697 10.6069819589
11.5023668646 13.8445260533 10.8813551920
11.3755357225 14.1382949532 11.4595150919
11.5746547043 14.1903503018 10.8750280456
10.9422106834 13.8818518789 12.4120501704
11.3325573592 14.5823868391 16.3664363775
11.7416045893 13.8594149005 16.8245616115
11.9761228455 14.8939057796 8.9713674741
12.4797649635 15.2172278926 8.3907438429
11.7493746821 14.6408014897 9.6767660716
11.6114365908 14.1572569183 10.6006548124
11.6980834614 14.8308527495 10.6485049654
11.6249118005 15.1102068966 11.6400098527
11.7788333195 15.3001787124 11.1872797601
11.2273357942 15.0146191738 12.6872866192
11.7184549398 15.7746290640 12.2605960555
11.6465199156 15.1167497881 16.1637645048
11.9665021580 14.6679855028 16.4126456741
12.1365944652 15.5525249198 8.9335396900
12.4772539359 15.8978923676 8.7672745913
11.9322393776 15.4558611721 9.6299426935
11.9562968183 15.7291637998 10.3755986420
11.8938337250 15.5980229025 10.9234669418
11.5739150477 16.0784070806 13.0408045143
11.8824738210 16.4107692561 12.6368521118
11.0680323244 15.8664807565 13.7354717436
12.3480204673 15.2560151804 16.1699354785
11.7266752730 15.7524989882 15.8818070617
12.2217114699 15.9866719882 9.2158357464
12.2246404056 16.2246621999 9.8562089339
11.8631028569 16.7033733587 13.1261976602
11.6594720151 16.6691479595 13.6844161246
12.0481251158 17.1557088559 13.4600317947
11.4031953281 16.6563892931 14.4916465092
11.9485838846 16.6200082743 15.3541943604
12.0726468610 17.2978877156 14.1045586150
12.2283303476 17.2765416324 14.7753465246
12.6803462846 3.5939763429 15.4149944174
13.1221902658 3.3609328516 14.6541485065
13.1069511173 3.0965024986 15.2962709278
13.1240944606 2.9427758113 15.9418273854
12.7056092080 3.3318667561 16.3802799721
13.1441577931 2.8432656041 16.9661562314
12.5473823735 3.4600369905 17.3532218544
13.2749156566 2.8311742212 18.1699562753
12.6459832568 3.4027700749 18.5117721561
13.2041812972 3.0707346394 19.1405616666
12.7329112716 3.4086481498 19.1479291804
12.9445447182 3.4076988486 19.6626582164
12.8445219047 4.5595922846 12.9774181024
13.0644089795 4.7023116401 12.2955686105
13.4342331844 4.1495358475 12.6137805760
13.3304578274 3.6836805960 13.5975957650
12.5090507912 4.3476200936 14.1872468796
12.1944743897 4.3061237340 15.2590238195
12.2171619185 3.9847262910 16.2676191005
12.5131965451 3.8638957138 19.9962631294
12.0865737327 4.3550838651 20.3045039367
12.6794557955 3.8569160888 20.4282412146
12.1717006163 4.3395873720 20.5186216285
12.6874944970 5.2741190692 12.1889354253
13.0858141440 5.3167514301 11.5780010573
13.0472496613 4.9706763874 11.9491465389
12.2366493565 5.2970649262 13.0733280196
12.5878473465 6.1092049152 11.4482403000
12.9297927636 6.6706875580 10.6579249231
13.1953311248 5.8035711841 11.0611220515
12.1564524887 6.0061184271 12.2168071473
12.7756703664 6.9947424338 20.7534051622
13.3652341719 6.6040568927 20.6182549136
12.7738978605 7.1617872208 20.6059242363
12.8231215272 7.7333395020 9.9782176245
12.6006628431 7.5736017880 20.3775366496
12.4907902007 8.7672619065 9.5166933668
13.0955020696 8.5851405314 9.0621027318
12.9477196477 8.1921126381 9.5029574342
12.3593696544 8.5425374681 19.6388989474
12.9013941618 8.0492893319 19.6629324535
12.7104183805 8.8340581340 19.1534000722
12.8489956522 7.6572790328 20.0896879309
12.7869780868 10.1476786609 7.7407948723
13.1951578738 10.0915262593 7.3125584549
13.3837774564 9.7440583667 7.6803311010
13.4147016606 9.1652529240 8.3241237056
12.6374199341 9.4891485931 8.7478719470
12.6715771153 9.7443310238 18.5963677687
12.6728720149 11.4386569178 6.0410620975
13.0884568887 10.6726433840 6.6893069832
12.2295118294 10.9767029736 7.7237573611
12.2211294744 10.5310098118 8.4876347970
12.4861040637 10.4497626244 18.3214765840
13.0265009575 10.1684551607 18.2332515799
12.8407076503 10.8781344884 18.0335760431
12.6910338915 12.3006640592 5.5449739049
13.0303507181 12.1532018448 4.9259034832
12.8824269401 11.7562310362 5.4671908946
12.0227221171 11.7036367635 8.1421191207
13.0625200926 11.6084016997 17.8859281207
12.8833386225 13.1298027225 4.6265937021
13.0913925301 13.2127137115 3.8634928881
13.1524604150 12.6319145708 4.2287447393
12.7323525569 13.0611365984 5.3656967627
12.6336911899 12.9641169202 6.2502026327
12.2054976904 12.5085883066 7.4159869753
12.0394580897 12.7830074176 8.2345730967
12.1349780375 12.9187095445 17.4289560042
12.7620312988 12.3553792291 17.8088032447
12.8371527330 13.0068407231 17.6631907187
13.2801788875 12.6166989705 17.8762061739
13.0261657475 13.9838919124 3.8043263325
13.3629883302 14.2941495238 3.0908863516
13.2687462914 13.5867224593 3.3511446650
12.9137231441 13.9811255578 4.3921600591
12.9768568362 13.9312090631 5.0633640137
13.3275268532 13.8762795459 5.6822491457
13.1778453123 13.5011329911 6.4987403631
12.5083260396 13.4968463320 7.4976663870
13.2967646764 13.7947743279 7.1282650460
11.5845773243 13.9985962886 10.7445011291
12.6364874115 13.5959880076 17.2267289616
13.1368501575 13.3523573537 17.5366667716
13.1631155169 13.0301216318 17.7764109048
13.1778371761 14.7820039244 3.4572093311
13.5643882481 15.1240063221 3.0042750416
13.1269614205 14.8766088125 4.1329113794
13.3974985185 15.0482671034 4.7549908715
13.3392283421 14.4812411038 5.2076105790
12.7765523066 14.4508588624 7.7664180740
13.3947530655 14.5407003531 7.5755096830
11.8822268518 15.7460164825 11.4915338743
13.2065906207 13.7871737795 17.1458597569
12.8531204836 14.4242365949 16.6412663946
13.3098989181 15.4484374532 3.5001088574
13.5921426819 15.7235684994 3.2671966845
13.4850685292 15.9258864151 3.8809155405
13.4591573987 15.6869562688 4.3000093173
13.0563946500 15.1186596954 7.9494904773
13.1965501827 15.9224997750 8.4612094218
12.1880801487 16.4113428287 10.9088648012
12.0482677848 16.4277689341 11.9699193912
13.2877731895 15.3160054669 16.1462670254
12.7112930757 15.9979112639 15.8301783990
13.4826276352 15.8916550952 3.5153312442
12.6784463376 16.4773262706 9.2053477048
12.6525135026 16.9931716024 10.0568441207
12.9456646085 17.0131779830 9.4685148483
12.5865936182 17.2760130005 10.9294264534
12.4198056517 17.1842069397 11.7501948165
12.2068647558 17.0983603072 12.7250942692
13.1521811584 16.7096479409 15.5964682687
13.2498516936 17.4760534958 9.7753707855
12.9802752667 17.7171961400 10.5376051974
13.3136160117 17.9557852171 10.2720235409
12.8970323354 17.8785897430 11.4533538985
12.7568886083 17.8653277331 12.4903609128
12.5615916865 17.7710547948 13.5407281983
12.7141426848 17.8400409188 14.4711582397
13.1474870379 17.5854617883 15.2598100494
13.5178975437 18.3561115750 10.9020882286
13.4287349436 18.5420951985 12.1381931558
13.2591824754 18.4042010466 13.2631087078
13.1224911113 18.2866567620 14.0886768801
13.3871909896 18.3457049330 14.8099647713
13.6614529496 2.6476252995 15.2251381792
14.0515398391 2.5678653273 14.4799439126
14.5765015780 2.1211719226 14.9013960474
14.2825408678 2.0638059495 15.8735848553
13.7109146387 2.3940153361 16.4238540245
14.5824712339 1.8150989142 16.9907558799
13.7943427995 2.3382053198 17.5321906202
14.4545006526 2.0427432236 18.1719312173
13.9280678646 2.3686155047 18.4023979720
14.3745700922 2.2413814783 18.8632623979
13.6610801450 2.9803791260 14.2714915954
13.9865981168 3.0353760546 13.6479339482
14.0216751134 2.7500146950 14.0786609880
13.9572096497 2.5968178616 19.1501521544
13.8012376062 3.0063761774 19.9014328103
13.1941417492 3.4223538877 20.2508187609
13.7991161505 3.1857169099 20.3493220592
13.2638874123 3.4481999794 20.4767000907
13.4916453667 4.6449572023 11.8635305643
14.2519028966 4.4327438150 11.4705149658
14.0947922569 3.9428291284 12.1451550888
13.9917167408 3.4874053600 12.9111801588
13.6918832399 5.1459154577 11.2091129434
13.8098314039 5.8098197148 10.6389135610
14.4646462897 4.9782767544 10.8772412343
13.7787709928 6.7541429696 9.9911309185
13.3952401468 6.8419970808 20.3595975617
13.8534345213 6.3276117330 20.4164884486
13.9381691770 6.6317951770 20.0109772214
14.0599435961 6.0212305740 20.5283435415
13.4869569748 7.7217648253 9.4439697290
14.1576722808 7.4904889592 9.1839802042
13.9911868417 7.1505442818 9.5364929483
13.4054062294 7.3213506194 19.8898173624
13.9111487260 7.0821565374 19.6027413193
13.7365620331 7.8455902741 19.1186655824
13.0116996747 7.2829934279 20.3084529518
13.7938314033 8.2373984511 8.8568455587
14.4253045509 8.6170984668 8.4454094060
14.4101749028 7.8939046044 8.7958002916
13.4505636255 8.9780544158 18.5781650713
13.6365782346 10.0782261717 7.2974966429
14.0464366251 9.5024049394 7.9140179239
13.3651124365 9.6564279575 18.2869820369
13.8691007302 9.3057340933 18.1247939820
13.6751308838 10.1111893235 17.9363163159
13.2616724345 11.4517524249 5.4871313113
13.9534483405 11.6486851054 5.0656006001
13.7658649991 11.0944337516 6.1061934101
13.8261511742 10.5885163057 6.8654696587
13.5798287157 10.9374281931 17.8249361989
13.9031809415 12.2866455710 3.5846705097
14.2458822742 12.3941268467 3.1535132178
14.3099685704 12.1149430572 3.6332547051
14.0310881478 11.9348576740 4.1637555755
13.5238534257 12.0566806288 4.3867999635
13.8438305683 11.5665461954 17.7351727241
13.3403268759 12.0616777849 17.9046617225
13.6866480475 12.1967971107 17.8653404462
14.0061244270 12.8286434353 2.9534798723
14.3266647611 13.3137975215 2.4357435799
14.5812373069 12.7892529193 2.6975873630
13.4776331741 12.8502807184 3.5327424409
13.6324609172 13.3877415323 6.5133054199
14.0077106208 13.0283476266 6.2284258920
13.8292106038 13.5131879606 5.8652226283
13.8894691244 13.2276808295 6.8294396413
13.9307336041 12.8702786463 17.5348338024
13.4683099286 13.0049123336 17.7249672916
13.7166872775 12.5820367544 17.8037586539
13.7723647412 13.6271998318 2.7818758256
14.5066712956 14.0137582169 2.1460953948
13.8756785307 14.1334473093 5.4049023727
13.8496186753 13.8947728342 7.3759925359
13.6155668324 13.4014350176 17.3659205089
14.1078267491 13.2454152333 17.1494498726
13.8420151153 13.8876307688 16.8206769881
13.8818067038 14.5174861070 2.5703805724
14.3547787378 14.7002587034 2.3305433679
13.5289541462 14.8644692324 5.0635098423
13.6623084495 14.5802987702 5.2410218410
13.8788915784 14.5601473073 7.6810502605
13.8646660069 14.6735939822 16.3531968850
14.0548398483 15.0761168022 2.6152962438
14.0835772177 15.5845051196 3.0184787781
13.7329837954 16.3252303436 4.2060429027
13.8793358044 16.0798511141 4.4491365890
13.8228938587 15.2209952846 4.8283520327
13.6195449673 15.1690494637 7.9082618516
14.0684938815 15.6233233658 8.2851259981
14.0865867961 15.2439537707 16.0417803792
13.8753245778 16.0101542855 15.8060302169
13.8632057567 16.1629822127 3.5761669326
13.9444317146 16.7001424736 4.0347724413
14.2906111295 16.8702303574 4.0281028747
14.1355150513 17.0372281652 4.2977003960
13.3425330133 16.8575135080 9.0907443756
14.0560235416 16.5177110343 8.7371675859
14.1216926942 17.0552103662 15.5968505001
14.3602058589 17.5900267040 4.2493519035
14.0472826019 17.3529314629 9.3471010044
13.7422709604 17.9862324263 10.0371897441
14.2576746506 17.9407019538 9.8307869208
14.0094509978 17.8745216305 15.5936481110
13.8163937403 18.4185033304 15.4593288399
14.2647661206 18.2918810629 15.6950794713
14.5258777052 19.5111217409 4.6618588199
14.6140706386 19.3315374314 4.4470205870
14.6254321651 18.9221500170 4.5791974546
14.6567979355 19.4984959242 4.9259277538
14.3110948359 18.3947569493 10.4344248269
14.0492774258 18.8245750716 11.0059989904
14.4481209934 18.8840291366 10.9466328233
13.8926489594 18.9199424452 11.5911714756
13.9765322535 18.9983030594 12.2539564271
14.0044104625 18.8495592852 13.0058531903
13.8695435362 18.6838965868 14.2066214682
13.8669042335 18.7768006795 15.0931656476
14.1694175288 18.8656664066 14.9485328840
14.0174058317 18.8480860893 15.5045116133
14.2103378132 18.6921274574 15.6875354896
14.5603975436 19.7883065465 4.6288729546
14.7666629225 19.8053054210 4.5166714659
14.6078157766 19.8805024544 4.9682850526
14.3335873896 19.0845525375 11.3866388877
14.3296424686 19.1403995739 11.9798287939
14.1141943423 18.9569442970 15.3371906120
14.2216512333 18.9236927850 15.5684848374
14.7436944404 20.1122796331 4.8825165951
15.2555373986 1.4219906751 17.2717129596
15.2150393208 1.3974651862 16.6646837708
15.7274294390 1.2052365183 16.9087272725
15.7591968202 1.3174289100 17.6156415840
14.5056905075 2.5199946026 13.9505083640
15.0800271670 2.4684006789 13.4003105601
15.4246090636 2.0162761737 14.0719683735
15.2277184563 1.7610770615 14.9210676501
15.1254013434 1.5959031993 15.7926618759
15.2571723907 1.6939743990 18.0577162895
15.0441429510 2.0954446215 19.0112127687
14.6117822470 2.3324030901 19.3708598348
15.0572022179 2.3571814051 19.6671365680
14.6953747289 3.3261684008 12.4262634338
14.8629972986 3.7835640126 11.7569801675
15.3863667466 3.2609386543 12.0724383514
15.3657971852 2.7716570128 12.7174560112
14.5820843129 2.9082948373 13.1530950309
14.6099631493 2.6203658431 19.8260266749
14.7835291067 3.0523506123 20.2417050226
15.0301380500 4.2817023125 11.1739760860
14.9052339010 5.6218264580 10.2249654171
15.1817138997 4.7513639047 10.7205835172
14.4995902610 5.8240414887 20.2282956550
15.0142743008 5.1911080166 20.2209911003
15.0577388241 5.5462560133 19.7791668751
14.5203524158 5.5775250774 20.4891326828
14.9761414515 5.0533455994 20.4056559195
14.6269110017 6.7093382982 9.5354963040
15.3337895261 6.7226798049 9.2464093784
15.5516047539 6.0787502597 9.6406698545
14.5067601443 6.6172001117 19.3989649455
15.1679233943 6.0609118692 19.1256113266
15.0145150347 6.6649975143 18.7466581057
14.8278813496 7.2971611999 9.0199335220
15.0438744494 7.8524580776 8.6645870337
15.5966827488 7.1869872634 8.9137787000
14.6774414303 7.4386285264 18.5054556685
15.1300285626 6.9308124898 18.3808947937
15.2574601416 7.2969631759 17.9882896187
15.3213965221 8.3931304648 8.5066442344
14.9088206298 8.1731381511 17.8034405524
15.4705078113 7.7961477110 17.4667727146
15.3519314432 8.6244931087 17.1641440019
14.2076081385 8.5077661715 18.2687589513
14.3825549724 10.2942249694 7.6194853216
15.1905586690 9.3456831906 8.4145719038
14.5210937918 9.3021436300 17.6345909426
15.1797794682 9.8263571818 16.8360012383
14.1444093693 11.5829595888 5.9240214256
14.2421691841 11.2354156225 6.8786381035
14.6875725305 11.1858302371 7.9200267588
15.0733134822 10.4954009805 8.4288828190
14.3495417627 10.5727154540 17.4570922694
14.9045758720 10.8553815211 16.8939603243
14.5577985086 12.3506642549 3.1922526830
14.6713039596 12.2487399288 3.5966274984
14.4563849660 12.0655098419 4.3082472179
14.3559642179 12.0965344669 5.2963364122
14.7149316482 12.5914332193 4.6225479649
14.2503281674 12.3435948332 6.4334669837
14.5170970129 12.1131141901 7.5775587669
15.0231581841 11.2270257693 8.6157251889
14.8810015186 11.9869189699 8.6367464088
15.1420287574 11.5580701603 9.1114595101
15.2863229022 11.8709751844 15.5099737250
15.4353129157 11.6120336145 15.2556156251
15.4015012658 12.0777546039 15.1734088977
15.2110580922 11.9538787820 15.7792810495
15.2868976257 11.5135073503 15.8223002070
14.5217360010 11.4862572957 17.2705649236
15.1560310985 11.9764818146 16.0500149232
14.1440301369 12.2039903762 17.5761965901
14.6254482650 12.0990292343 17.1299968458
14.9302025684 13.4341326373 2.0773545475
15.0846643118 12.9963159106 2.4816678554
14.9696932993 12.6682505650 3.0836381286
14.3724098933 12.9186886737 5.4677447043
14.8070814951 13.3528604073 4.6315483790
14.2739013560 13.1009431900 7.3879250847
14.7049914639 13.1085444577 8.3748280640
15.1196042580 12.0322154956 9.4581605443
15.0391971815 12.7920536914 9.5305776427
15.2112961404 12.9133099992 10.6114314430
15.2680852774 12.2332167497 10.2341103254
15.3028565245 12.9573365645 11.3190260499
15.3924532921 12.4163737614 11.1470881085
15.4463450395 12.7175673042 11.7810955725
15.2661861535 12.2421746265 15.5782588869
15.1776798255 12.1799392381 15.8873733347
14.6112452952 13.2451049757 16.6165251900
14.4133593030 12.6906511305 17.1856904918
14.7985751219 12.4554005870 16.7607308570
14.9711676315 13.8258744900 1.7580231631
15.1290553230 13.8746325432 1.6171375626
15.1479491016 13.7407176128 1.6992170747
14.3904273259 13.9140446010 5.0704039341
14.8427637572 14.0623338276 4.4580659560
14.3476587637 14.0965022903 7.9139504120
14.7899723621 14.0918656104 8.5570833248
15.0333846418 13.7432789674 9.2382656743
15.2137279947 13.5921388051 10.2047641092
15.3275237543 13.4940551151 11.1410906750
15.4139991263 13.2280724565 11.7755234279
14.5328918070 14.1425412630 16.2841882510
15.0839393709 14.0154632142 1.8303660491
14.8528544590 14.4990395021 2.2206818263
14.6365723229 14.7230179489 4.4726962506
14.9775339672 14.5011698749 4.0636221541
14.8363920210 15.1489213267 3.9042678117
14.1449233888 14.7528637762 4.9242981839
14.1358203075 14.9203187656 7.9696415944
14.6345882032 14.9828843171 8.4407595600
14.4898478804 14.7840198105 16.0829947037
14.9612370949 14.4840619212 15.8777789647
14.8075129409 15.2704795979 15.7378530874
14.5378747777 15.0761731030 2.5802915723
14.6504101635 15.4045552828 3.0008891398
14.3711326070 15.7782557797 4.2569917873
14.6803772941 15.6127526272 3.7533497012
14.6235476103 15.9641757472 8.6903477966
14.8558334523 16.2185875789 15.5518702849
14.4290307053 15.9018976615 3.5394267289
14.3853649324 17.2249994838 4.3178258175
14.5956502636 16.6032340115 8.8847888386
14.3781727173 16.9267336918 8.9724878946
14.6813118789 17.0255391179 9.2276125936
14.9787951530 16.9453439523 15.4659934547
14.6609543450 18.3811007096 4.3385797101
14.5570386580 18.2652497568 4.3881669769
14.6796798371 18.1221669176 4.3976772783
14.5965209466 18.1489916416 4.4675825211
14.5879587255 18.0227043913 9.9957255086
14.6622373710 17.5984440340 9.6730692539
15.1083308039 17.8835145139 10.2966946598
14.7108006361 17.7697623278 15.5248926947
14.5579570247 18.4324444341 15.6629571405
14.8648878976 19.3439226109 4.3718766809
14.9952254215 19.3146925767 5.0272739903
14.8587161780 19.8816224101 5.4545592551
15.1241469143 19.8425704380 5.7140839419
15.0983493073 20.0960354890 5.9630694110
15.3400889474 20.1825490568 6.0952253789
14.7129562623 19.0096949412 11.2553954599
14.9750307258 18.6061637803 10.9160060386
15.0764500170 18.8608748682 11.4719090625
14.3370863958 19.0906178759 12.5273764058
14.5798756132 18.9617843361 12.9174058152
14.5989954723 18.7212055509 13.5936764118
14.3901957915 18.8631092724 15.2999520088
14.6300003232 18.5942015774 14.6118112084
14.4326346485 18.7689312351 15.6091136322
14.7136166225 18.5232150531 15.3375150247
15.1048892962 19.7358727852 4.5096999852
14.8603930688 20.2640433017 5.4129497560
15.0567065829 20.3528039924 5.9240204423
15.2643082613 20.3874163925 6.2000127308
14.7531856624 19.0824692520 11.7517638831
14.7472247786 19.0430787261 12.3858656417
14.9869266946 20.0818503258 4.7550096487
15.1151060110 20.3726107372 5.3071912309
15.1866356702 20.6349329412 5.8756874819
15.4583876670 20.7184360777 5.9348145977
15.3406182229 20.6931187168 6.2207267382
15.4485146495 20.8849633874 6.1844574545
15.6402472850 1.2532789501 16.2810511875
15.8834013835 1.2769033732 15.7300312444
16.4078193653 1.1200276937 16.2766718712
16.3139818520 1.1643666232 17.2394867704
16.2484213396 1.3241808616 17.8390863336
15.6126367929 2.3160666588 13.2325014420
16.0332999505 2.4617485911 12.8091947348
16.2049985565 2.1026892431 13.3519077020
16.4262522009 1.7139190475 14.0657008161
15.8868801096 1.5084205529 14.9375935517
15.9399313530 1.5397233029 18.1785860228
15.9712034191 2.0544485430 18.8800840804
15.5787899352 2.3467878169 19.6250402650
15.2895673204 2.6860979708 20.0357359696
15.7940837295 2.7499910313 19.9485129654
15.7990530790 3.6997244733 11.4773207035
16.2426141063 2.9622639653 12.2028121806
15.5904048548 3.3458994050 20.1726638445
15.3278101083 3.7800035868 20.3766618452
15.6671803855 4.2844405018 10.9331655697
15.8625830896 4.7793841895 10.5098870621
16.4562921605 4.1506600372 10.9340442212
15.4499146305 4.5027267362 20.1155535655
15.9278053344 3.8330375932 19.8900403786
15.9249477982 4.4117225738 19.5975419048
15.2888767935 4.4018738895 20.4289132218
16.0432494649 5.3614816847 10.0251235783
16.0447563690 5.3156457502 18.6374419067
16.4403549977 4.8608336700 18.4446436352
16.3529616134 5.5358827960 18.0529492259
15.6424174762 5.2441731415 19.2687621098
16.1807724165 4.6335416273 19.0218781305
16.1890570477 6.4490191462 9.2829276088
16.2947077239 5.7840584099 9.6550611380
15.6246028175 6.2766508155 18.3711923786
16.2758318191 6.3137393327 17.6241000413
15.8666369849 7.7662838163 8.6787143830
16.4377926125 7.1316499116 8.9347674654
15.8300468438 7.0655625471 17.5810984078
16.3472564191 6.9002034087 17.1880849109
16.0672051335 7.7532288660 16.9511204466
16.1748668535 8.4054568629 8.7038551860
15.9570151500 8.8875207082 16.4282486600
16.3818117083 9.0934879312 9.0542478808
15.8301882439 10.0622214031 9.1669864559
16.5212896403 9.5926415457 9.5151791538
15.7457092136 9.8672918057 16.0473359396
16.1079486148 9.3237142560 15.9474541784
16.1612973529 9.7332718671 15.4758374825
15.3755561316 10.9625619088 9.1487516491
16.4695647865 10.0635516223 9.9848847900
15.8741813343 10.8455826247 10.0007174621
16.3613262089 10.5418002854 10.5296760421
15.9810951578 10.9812019179 14.2527760901
16.2774382170 10.4678824011 14.1338481616
16.2654866335 10.7845580446 13.5571728171
15.7120875357 10.8004622150 15.2942230683
16.2324140823 10.2085234821 14.7039005756
15.3143643806 10.7476742894 16.2526421971
14.9160339156 12.5493464783 3.8437890764
15.3877277321 11.5575041738 9.7830319563
16.1073173607 10.9823854246 10.8083152433
15.6753428036 11.6199082478 10.7940743355
15.7346380773 11.9896806033 11.9793164117
16.1356882219 11.1740159310 11.5811179884
15.8672479038 11.8169703287 13.3244206550
16.2026325267 11.1335097597 12.5950436695
15.6455927023 11.8662150936 14.5765555580
14.9953097549 11.7018441581 16.5655358215
15.3326199225 13.2964874830 2.2216080147
15.3837574580 13.1343050150 2.6448249793
15.2833969626 13.2008988024 3.3329202401
15.5566736055 13.5733285712 2.6804315715
15.0437460877 13.0439672111 4.0878332517
15.6302510162 12.9586204669 12.5456641515
15.7479152678 13.0051787561 13.8300876705
15.4993870240 12.8500750939 15.0652401569
15.1104394959 12.5392340963 16.0647570373
15.2156970496 13.8484817201 1.6610589930
15.3403575339 13.7091938292 1.9489626843
15.3816756154 13.9963293385 3.1125754542
15.4971884158 14.0526378282 2.5715598850
15.1397230253 13.8145226292 3.9006750085
15.0785146491 14.6253625226 9.0845151532
15.3165347534 14.4207727057 9.8917280730
15.4704787888 14.3169889343 10.8983616239
15.5930685294 14.0090613832 11.9997044695
15.7954546603 13.9304085896 13.0991534275
15.9151371955 13.9571032437 13.8460927569
15.8375696860 13.7073957585 14.4770751274
15.6464862223 13.7887546612 15.1036102629
15.4953192186 14.5555937569 15.3608528673
15.1787759700 13.6547592352 15.7887860168
15.1063371758 14.6971561981 2.7715671185
15.3252161374 14.1546987936 2.2013962210
15.1285424764 14.6195284793 3.5109879515
15.0837271249 15.5226794405 9.0795936997
15.3597505187 15.1580495577 9.6320470291
15.6215730407 15.3031766737 10.5130035056
15.7806494770 15.2387281713 11.7416221473
15.8639078052 14.9508285793 12.8192418850
15.9885185110 14.7076303976 13.6352541396
15.5038663163 15.5397229761 15.2699635289
14.8710438007 15.3098790013 3.3810872348
14.9929451550 16.3867901081 9.1746441771
15.4461785602 16.0753959682 9.8306565118
15.7934870302 16.1840392711 10.5845650398
15.9169169419 15.9625665723 11.2245922540
15.9705314430 16.1018767866 11.9304807100
15.9961692553 16.7854465107 12.2089510942
15.9212932289 16.1983261586 12.8827320902
16.0221686120 15.6241279555 13.6092878717
15.5023861688 16.3990448396 15.2095267872
15.1507152064 17.0268280939 9.7194672653
15.6666115465 17.0131782264 10.4356706028
15.7754901279 17.3461716907 12.9551996780
15.9011647557 17.5759830908 12.1948228562
15.9791067121 16.3910073211 13.8169629665
15.7302423968 17.1511161782 13.9189967900
15.9258805319 16.7218443541 14.3193147575
15.3950460702 17.1588024537 15.1453537232
14.9510801737 18.7437019247 4.5377410331
15.6913055331 17.7380645657 10.7266232702
15.5511146683 18.1510133929 12.6767407111
15.7044068159 18.1793899054 12.0131175837
15.2672879293 18.1261153953 13.6906212017
15.6899395732 17.1471434537 14.6546846767
15.1824827749 17.8820614661 14.8614835536
14.8434466896 18.2006786184 15.4481317580
15.1684162073 19.2468908595 4.4482402286
15.3103105904 19.3389578657 4.6971054511
15.3664595733 19.7410414478 5.0809243457
15.4516085914 19.6321288388 4.7132291712
15.3753164391 20.0011302850 5.6998797385
15.4929858127 18.1884701576 10.8667890046
15.2536572712 18.7132759331 12.1052613702
15.5307156511 18.4032279870 11.4294423797
15.0496930611 18.6922786338 12.9268201849
15.3772430470 19.6337349080 4.5579245065
15.3018363657 19.9662537242 4.8763805596
15.4035188546 20.2512957385 5.4943628430
15.5839184635 20.5017957079 5.9995723687
15.5586532499 20.3829298945 6.1449980925
15.5338354768 20.6097570181 6.3119707612
15.6738013303 20.8154898331 6.2007074121
15.5662355064 20.8908841821 6.3340218118
15.6174045763 20.9418849789 6.2506916711
16.7601662256 1.3638901800 14.7402805714
17.2559024865 1.6290172410 14.1593909409
17.3132546931 1.3324871707 14.7015848222
17.1570101059 1.1928811831 15.4820382243
16.4250456314 1.2219526017 15.4051932172
17.0781268369 1.1096307406 16.2394815107
17.0284561753 1.2030238849 16.9300879923
16.7461987469 1.3457422061 17.6828288583
16.4839059884 1.6670090988 18.2423616659
17.0064781474 1.7443169219 17.9828958092
16.7261336101 2.4264774491 12.7981927469
16.9716043337 2.0139529610 13.4402103468
16.8258210420 2.4354114960 18.4942890970
16.3710587497 2.6296617264 19.2337694958
16.0336277263 2.5252337272 19.5856265323
16.9370296801 3.5573141968 11.5647256561
17.3870918263 2.9689019410 12.3596777843
16.5909903444 3.2229216320 19.0560663567
16.9489240411 3.3123149592 18.4783385702
16.1465072496 3.1336793047 19.7106854206
16.9054049204 4.7858657820 10.3675473732
17.5050607930 4.1656905455 10.9831721037
16.6683652226 4.0658292887 18.6404622694
17.1137035112 3.8191266780 18.0571810154
16.9239414465 4.7285100237 17.8320005122
16.2806320448 3.8770241072 19.3808797215
16.7442348882 5.3657831537 9.8872153466
16.9551426521 5.8495780161 9.5902753333
17.4735767163 5.2907915364 9.9742717599
16.8094598207 5.7060736425 17.4029208435
17.1805341783 6.5883305125 9.3158404898
16.6911193188 6.3950126696 17.1493623491
17.0997852860 6.1089698584 16.8312511630
16.8379251018 6.9931058071 16.6222706887
16.6549758954 7.6786474865 8.8178968741
17.0609113977 7.2358477869 9.0265569639
16.6292454618 8.0384441780 16.2391578248
17.0482237259 8.0283252616 9.0424340088
16.6978980515 8.5345658418 8.9550488154
17.0883058527 8.5841523551 9.2874596450
16.5111450376 8.8998975948 15.7536314817
16.9715455886 8.2785373806 15.6859461471
16.9413252136 8.7608610089 15.2716067042
16.8042014516 9.5977404649 9.8573693130
17.1202164623 9.0799205522 9.7594050450
17.0683382086 9.5797575814 10.3284297893
16.6794396747 9.9213996153 14.0377224905
17.2066088508 9.2980720611 13.8650425201
17.0317018966 9.7750425700 13.3456133950
16.6207886659 9.4144730690 14.9991751529
17.1002636863 9.0157996607 14.5935895686
16.5234073926 10.5967111266 11.2263564515
16.8278190826 10.0851961140 10.7873393488
16.6166726413 10.5679819185 12.1061886470
17.0349851751 10.0326141344 11.6610314684
16.6532983569 10.3696094801 13.0359508646
17.0864455815 9.9166802204 12.5833922073
15.5448824007 13.4592636205 2.3037193003
15.5669103445 13.7812544975 2.2892320211
16.0071809054 14.4748535666 14.2902471142
15.8686570843 14.2775438893 14.8083328417
16.0606829696 15.2944761356 14.2336425974
15.9078897479 14.9825923042 14.8025439500
15.9835023516 16.6767890122 11.0728369564
16.0462208225 16.4926633926 11.6070732503
16.0343624693 16.1067924439 14.2730613838
15.9082755703 15.8313572584 14.7847686229
15.9492911761 17.4043807753 11.0750234031
16.0475647627 17.1138956972 11.6232036357
15.8345102619 16.5964713284 14.7718827802
15.8106437589 17.9610189650 11.1183580594
15.9150536843 17.8052690983 11.5780537678
15.4325565986 19.4631438648 4.5514318584
15.6821211021 20.6711160864 6.2588887706
15.6850332328 20.8627396211 6.3337427377
17.5653349845 1.4690673123 14.5025198220
17.6592180233 1.3920874685 14.9320075801
17.7553778773 1.3722409831 15.5354465470
17.5776605741 1.3086885280 16.2655259744
17.5938358983 1.5309285872 17.0521426370
17.9284777063 1.6329700068 16.6138431571
17.2285208118 1.5070659810 17.5172920092
17.3778419267 2.4087168616 13.0039168727
17.6536336092 2.1585738883 13.6546875191
17.8534225055 1.8107407292 14.4736622458
17.9833910320 1.6294416629 15.1702012550
17.8939849491 1.8744929601 17.0492151871
17.9507622436 2.2923372857 17.0743118974
17.5107765079 2.1223794215 17.6066132517
18.1109903840 3.8131832252 11.7496327619
18.1289032126 3.3069013607 12.5433964985
17.9239864056 2.7741673924 13.1058438359
18.0147996288 3.4240873927 16.5677658545
18.2565081360 3.0346235384 16.0226635085
18.2464849680 3.7394247191 15.7723039480
17.7900922291 2.9002078207 17.2216609818
18.1230264909 2.6639933497 16.6047000129
17.3309748666 3.0706413750 17.9062221065
18.1344941712 4.8006116415 10.5152914180
18.3099583428 4.3238813374 11.0510352877
17.9172143895 4.3530824383 16.3620461129
18.2245748023 4.6531651787 15.5483833707
17.5323869337 3.9224405217 17.2820164825
17.7459137054 5.8810648916 9.7150455584
18.1670996467 5.4087131089 10.0684300951
17.8936430279 5.2256269466 16.0517833115
18.1550067700 5.6249227359 15.3600686070
17.4226671480 5.1890940821 16.8463386823
17.9706471157 6.4728644145 9.6766109921
17.5994966013 6.3125628026 16.0040296132
18.0784619752 6.4700155166 15.1422274476
17.1575836979 7.5543146000 9.0047591161
17.6484577836 7.3052815212 9.4371885837
17.7861816934 7.3611418319 15.0453208369
18.2165071223 6.9042735700 14.5793039496
18.1048594265 7.5406092696 14.2280407068
17.2347399803 7.5286233667 15.8276011434
17.4460773148 8.5819550741 9.6404127227
17.5886967922 8.1269733929 9.5655276221
17.7521652526 8.4809639606 10.0738651172
17.9095346844 8.6506181426 12.9918538034
18.2708467826 8.1723420028 12.6938893183
18.0720619786 8.6308258340 12.2546874395
17.6668420001 8.4305970923 14.0899696416
18.1988353323 7.9044642669 13.4558792856
17.3248716772 8.2323087283 15.1264130534
17.3924197598 9.5046915964 11.1589597558
17.6305969471 8.9858581080 10.5949299515
17.5940103655 9.2983608132 12.1865114891
17.9371910008 8.8217151784 11.4856673972
17.4444666584 9.2581754370 13.1846617901
18.0588428893 1.7340487797 15.9003739988
18.2033803472 2.6558485200 14.1207985820
18.2030490632 2.1657616503 15.1131001649
18.2626900055 2.4128773819 15.9184565344
18.1145763728 2.0576390979 16.5760935873
18.5159199411 3.8236624924 12.4873262013
18.4412841504 3.4910184395 13.3196649629
18.4802461697 3.4639172950 14.2844855753
18.3670686379 3.0412363626 15.1608639271
18.6336681904 4.6040348357 10.8835634044
18.8938722861 4.6052707500 11.3474456521
18.8223459652 4.3529960608 12.0783964723
19.0972343202 5.0066744743 12.2763381181
18.7914776932 4.4848049969 12.9785772929
18.6122726853 4.2581747976 13.9993915000
18.4517998451 4.0107013094 14.9162111945
18.4429402408 5.9525941287 10.0402345157
18.7403359400 5.3839095492 10.3906258701
18.9069939336 4.9490237199 10.7806161506
18.9463401072 5.5066223444 12.9722924866
19.1751416926 5.8063243482 12.2513541388
18.7103121191 5.2250374510 13.8108817907
18.4750481810 4.9760988082 14.7092056194
18.5095021166 6.7642840283 10.2038390749
19.0577391860 5.9790757613 10.5552790499
18.8826629379 6.4992421657 12.8076785741
19.1288481761 6.4383353713 12.0673156144
18.7309469036 6.0657313427 13.6000238069
18.4446004547 6.0534975868 14.4681986299
18.1386550044 7.7267354288 10.1634234037
19.0377029510 6.5616879462 10.8567545756
18.6833492186 7.3229183560 11.0481724206
18.8549725594 7.0964348338 12.0224038570
19.1349478993 6.6123164019 11.4717010298
18.5579260370 7.4757185405 12.7944924887
18.4830766731 6.9524890248 13.7489259306
18.1667436857 8.2583875756 10.8616458884
18.4187345409 8.0090221589 11.8845084593
19.1154924014 4.7740177373 11.8074552631
19.1923425965 5.4270408323 10.6942550573
19.2689054799 5.1507676045 11.0876693351
19.3062434515 5.3494566836 11.5905385903
19.4551529028 5.5623300221 11.1535124272
19.3908075480 5.7510070833 10.8576178862
19.3479545998 5.9988037351 11.1529528865
19.3003425337 6.0554034996 11.7109043932
3 2 1 0
3 0 3 2
3 6 5 4
3 6 4 1
3 4 0 1
3 4 7 0
3 3 0 8
3 0 9 8
3 0 7 9
3 9 10 8
3 4 5 11
3 11 5 12
3 4 13 7
3 4 11 13
3 7 14 9
3 7 13 14
3 10 9 15
3 15 9 14
3 11 12 16
3 16 12 17
3 11 18 13
3 11 16 18
3 13 19 14
3 13 18 19
3 15 14 20
3 20 14 19
3 17 21 16
3 23 22 21
3 22 16 21
3 22 18 16
3 25 19 24
3 19 22 24
3 19 18 22
3 19 25 20
3 28 27 26
3 26 29 28
3 32 31 30
3 32 30 27
3 30 26 27
3 30 33 26
3 29 26 34
3 26 35 34
3 26 33 35
3 35 36 34
3 30 31 37
3 37 31 38
3 37 1 2
3 33 37 2
3 30 37 33
3 33 2 3
3 39 33 3
3 35 33 39
3 36 35 40
3 40 35 39
3 43 42 41
3 43 41 38
3 38 41 37
3 41 5 37
3 5 6 37
3 37 6 1
3 8 39 3
3 45 44 10
3 10 44 8
3 44 40 8
3 40 39 8
3 45 46 44
3 41 42 47
3 47 42 48
3 47 12 5
3 47 5 41
3 15 49 45
3 15 45 10
3 46 45 50
3 50 45 49
3 48 51 47
3 12 47 51
3 52 12 51
3 17 12 52
3 54 53 49
3 15 54 49
3 20 54 15
3 49 53 50
3 52 55 17
3 17 55 21
3 23 21 55
3 23 55 56
3 24 57 25
3 57 58 25
3 58 20 25
3 58 54 20
3 61 60 59
3 59 62 61
3 65 64 63
3 65 63 60
3 63 59 60
3 63 66 59
3 62 59 67
3 59 68 67
3 59 66 68
3 68 69 67
3 63 64 70
3 70 64 71
3 70 27 28
3 66 70 28
3 63 70 66
3 66 28 29
3 72 66 29
3 68 66 72
3 69 68 73
3 73 68 72
3 76 75 74
3 76 74 71
3 71 74 70
3 74 31 70
3 31 32 70
3 70 32 27
3 34 72 29
3 34 36 72
3 36 73 72
3 36 77 73
3 74 75 78
3 78 75 79
3 78 38 31
3 78 31 74
3 40 81 80
3 77 40 80
3 36 40 77
3 81 82 80
3 78 79 43
3 79 42 43
3 79 83 42
3 78 43 38
3 44 81 40
3 44 46 81
3 46 82 81
3 46 84 82
3 83 48 42
3 85 48 83
3 50 84 46
3 50 86 84
3 85 87 48
3 48 87 51
3 52 51 87
3 52 87 88
3 54 89 53
3 89 90 53
3 90 50 53
3 90 86 50
3 88 91 52
3 52 91 55
3 56 55 91
3 56 91 92
3 95 94 93
3 94 96 89
3 58 94 89
3 54 58 89
3 93 94 58
3 89 96 90
3 99 98 97
3 101 100 97
3 97 100 99
3 101 102 100
3 105 104 103
3 105 103 98
3 98 103 97
3 103 60 97
3 60 61 97
3 97 61 62
3 106 97 62
3 101 97 106
3 102 101 107
3 107 101 106
3 103 104 65
3 104 64 65
3 104 108 64
3 103 65 60
3 67 106 62
3 67 69 106
3 69 107 106
3 69 109 107
3 112 111 110
3 108 112 110
3 71 108 110
3 64 108 71
3 73 109 69
3 73 113 109
3 110 111 76
3 111 75 76
3 111 114 75
3 110 76 71
3 77 116 115
3 113 77 115
3 73 77 113
3 116 117 115
3 114 79 75
3 118 79 114
3 80 116 77
3 80 82 116
3 82 117 116
3 82 119 117
3 118 83 79
3 120 83 118
3 84 119 82
3 84 121 119
3 123 85 122
3 85 120 122
3 85 83 120
3 124 123 122
3 86 121 84
3 86 125 121
3 123 87 85
3 88 87 123
3 124 88 123
3 126 88 124
3 129 128 127
3 128 125 127
3 125 90 127
3 125 86 90
3 126 130 88
3 88 130 91
3 132 131 92
3 91 132 92
3 130 132 91
3 94 95 131
3 132 94 131
3 133 94 132
3 127 96 129
3 96 133 129
3 96 94 133
3 96 127 90
3 136 135 134
3 134 137 136
3 139 138 99
3 99 138 98
3 100 134 135
3 139 100 135
3 99 100 139
3 100 102 134
3 102 137 134
3 102 140 137
3 142 141 105
3 105 141 104
3 105 98 138
3 105 138 142
3 107 140 102
3 107 143 140
3 141 108 104
3 144 108 141
3 109 143 107
3 109 145 143
3 147 146 112
3 112 146 111
3 112 108 144
3 112 144 147
3 113 145 109
3 113 148 145
3 146 114 111
3 149 114 146
3 150 148 113
3 150 113 115
3 115 117 150
3 150 117 151
3 149 118 114
3 152 118 149
3 119 151 117
3 119 153 151
3 152 120 118
3 154 120 152
3 121 153 119
3 121 155 153
3 154 156 120
3 120 156 122
3 124 122 156
3 124 156 157
3 160 159 158
3 159 155 158
3 155 125 158
3 155 121 125
3 162 126 161
3 126 157 161
3 126 124 157
3 163 162 161
3 166 165 164
3 164 165 160
3 164 160 158
3 129 164 158
3 128 129 158
3 128 158 125
3 162 130 126
3 163 167 162
3 167 130 162
3 167 132 130
3 164 133 166
3 133 167 166
3 133 132 167
3 133 164 129
3 170 169 168
3 168 171 170
3 174 173 172
3 174 172 169
3 169 172 168
3 172 135 168
3 135 136 168
3 136 137 168
3 137 171 168
3 137 175 171
3 172 173 139
3 173 138 139
3 173 176 138
3 172 139 135
3 140 175 137
3 140 177 175
3 179 178 142
3 142 178 141
3 142 138 176
3 142 176 179
3 143 177 140
3 143 180 177
3 178 144 141
3 181 144 178
3 145 180 143
3 145 182 180
3 183 146 147
3 184 183 147
3 144 184 147
3 181 184 144
3 148 182 145
3 148 185 182
3 187 186 183
3 186 146 183
3 186 149 146
3 187 183 184
3 188 185 148
3 188 148 150
3 150 151 188
3 188 151 189
3 191 152 190
3 152 186 190
3 152 149 186
3 192 191 190
3 153 189 151
3 153 193 189
3 194 154 191
3 191 154 152
3 191 192 195
3 191 195 194
3 198 197 196
3 197 193 196
3 193 155 196
3 193 153 155
3 194 156 154
3 200 199 157
3 200 157 156
3 195 200 156
3 194 195 156
3 201 199 200
3 198 196 159
3 160 198 159
3 202 198 160
3 159 196 155
3 199 161 157
3 204 203 163
3 204 163 161
3 201 204 161
3 199 201 161
3 165 166 203
3 204 165 203
3 205 165 204
3 160 165 202
3 202 165 205
3 203 167 163
3 167 203 166
3 208 207 206
3 210 209 206
3 206 209 208
3 210 211 209
3 206 207 170
3 207 169 170
3 207 212 169
3 206 170 171
3 213 206 171
3 210 206 213
3 211 210 214
3 214 210 213
3 217 216 215
3 173 174 215
3 174 217 215
3 174 218 217
3 174 169 212
3 174 212 218
3 220 219 213
3 171 220 213
3 175 220 171
3 213 219 214
3 216 221 215
3 173 215 221
3 222 173 221
3 176 173 222
3 177 220 175
3 177 223 220
3 224 178 179
3 225 224 179
3 176 225 179
3 222 225 176
3 180 223 177
3 180 226 223
3 228 227 224
3 227 178 224
3 227 181 178
3 228 224 225
3 182 226 180
3 182 229 226
3 227 184 181
3 230 184 227
3 185 229 182
3 185 231 229
3 232 186 187
3 233 232 187
3 184 233 187
3 230 233 184
3 185 188 234
3 235 185 234
3 231 185 235
3 189 234 188
3 232 190 186
3 192 190 232
3 233 192 232
3 236 192 233
3 235 234 237
3 235 237 238
3 193 237 189
3 189 237 234
3 240 195 239
3 195 236 239
3 195 192 236
3 241 240 239
3 238 237 197
3 198 238 197
3 242 238 198
3 197 237 193
3 240 200 195
3 244 243 201
3 244 201 200
3 241 244 200
3 240 241 200
3 246 245 243
3 246 243 244
3 246 242 245
3 242 202 245
3 242 198 202
3 243 204 201
3 204 243 205
3 205 243 245
3 205 245 202
3 249 248 247
3 247 250 249
3 253 252 251
3 255 254 251
3 251 254 253
3 257 256 255
3 255 256 254
3 259 258 257
3 257 258 256
3 258 259 248
3 259 247 248
3 259 260 247
3 250 247 261
3 261 247 260
3 251 252 262
3 262 252 263
3 262 207 208
3 255 262 208
3 251 262 255
3 255 208 209
3 255 209 257
3 257 209 211
3 264 257 211
3 259 257 264
3 266 260 265
3 260 264 265
3 260 259 264
3 260 266 261
3 269 268 267
3 271 270 267
3 267 270 269
3 270 271 263
3 271 262 263
3 271 272 262
3 272 212 207
3 272 207 262
3 274 273 264
3 211 274 264
3 214 274 211
3 264 273 265
3 268 275 267
3 276 216 217
3 267 276 217
3 271 267 217
3 275 276 267
3 271 217 218
3 271 218 272
3 272 218 212
3 278 277 219
3 278 219 220
3 214 219 274
3 274 219 277
3 221 216 279
3 216 280 279
3 216 276 280
3 279 222 221
3 223 278 220
3 223 281 278
3 280 282 279
3 222 279 282
3 283 222 282
3 225 222 283
3 226 281 223
3 226 284 281
3 285 227 228
3 286 285 228
3 225 286 228
3 283 286 225
3 289 288 287
3 288 284 287
3 284 229 287
3 284 226 229
3 291 290 285
3 290 227 285
3 290 230 227
3 291 285 286
3 292 289 287
3 287 229 292
3 229 293 292
3 229 231 293
3 290 233 230
3 294 233 290
3 235 293 231
3 235 295 293
3 297 236 296
3 236 294 296
3 236 233 294
3 298 297 296
3 301 300 299
3 300 295 299
3 295 238 299
3 295 235 238
3 297 239 236
3 303 302 241
3 303 241 239
3 298 303 239
3 297 298 239
3 302 303 301
3 299 302 301
3 304 302 299
3 242 304 238
3 238 304 299
3 302 244 241
3 244 302 246
3 246 302 304
3 246 304 242
3 307 306 305
3 309 308 305
3 305 308 307
3 311 310 309
3 309 310 308
3 313 312 311
3 311 312 310
3 248 249 313
3 249 312 313
3 249 314 312
3 249 250 314
3 314 250 315
3 318 317 316
3 318 316 306
3 306 316 305
3 316 252 305
3 252 253 305
3 305 253 254
3 305 254 309
3 309 254 256
3 309 256 311
3 311 256 258
3 311 258 313
3 313 258 248
3 261 315 250
3 261 319 315
3 322 321 320
3 324 323 320
3 320 323 322
3 323 324 317
3 324 316 317
3 324 325 316
3 325 263 252
3 325 252 316
3 327 326 266
3 327 266 265
3 261 266 319
3 319 266 326
3 320 321 328
3 328 321 329
3 328 268 269
3 324 328 269
3 320 328 324
3 324 269 270
3 324 270 325
3 325 270 263
3 331 330 273
3 331 273 274
3 265 273 327
3 327 273 330
3 329 332 328
3 332 334 333
3 332 333 275
3 328 332 275
3 268 328 275
3 333 276 275
3 336 335 277
3 336 277 278
3 274 277 331
3 331 277 335
3 334 337 333
3 276 333 337
3 338 276 337
3 280 276 338
3 341 340 339
3 340 336 339
3 336 281 339
3 336 278 281
3 282 280 342
3 280 343 342
3 280 338 343
3 342 283 282
3 341 339 344
3 341 344 345
3 284 344 281
3 281 344 339
3 342 343 346
3 346 343 347
3 346 286 283
3 346 283 342
3 345 344 288
3 289 345 288
3 348 345 289
3 288 344 284
3 346 347 291
3 347 290 291
3 347 349 290
3 346 291 286
3 289 292 350
3 351 289 350
3 348 289 351
3 293 350 292
3 353 294 352
3 294 349 352
3 294 290 349
3 355 354 353
3 355 353 352
3 354 355 351
3 350 354 351
3 356 354 350
3 295 356 293
3 293 356 350
3 353 296 294
3 296 353 298
3 353 357 298
3 353 354 357
3 301 357 300
3 357 356 300
3 357 354 356
3 300 356 295
3 357 303 298
3 303 357 301
3 360 359 358
3 358 361 360
3 364 363 362
3 366 365 362
3 362 365 364
3 368 367 366
3 366 367 365
3 370 369 368
3 368 369 367
3 369 370 359
3 370 358 359
3 370 371 358
3 361 358 372
3 358 373 372
3 358 371 373
3 375 374 373
3 373 374 372
3 378 377 376
3 380 379 376
3 376 379 378
3 379 380 363
3 380 362 363
3 380 381 362
3 381 306 307
3 366 381 307
3 362 381 366
3 366 307 308
3 366 308 368
3 368 308 310
3 368 310 370
3 370 310 312
3 370 312 371
3 371 312 314
3 371 314 373
3 373 314 315
3 382 373 315
3 375 373 382
3 385 384 383
3 385 383 377
3 383 376 377
3 383 386 376
3 376 387 380
3 376 386 387
3 387 317 318
3 381 387 318
3 380 387 381
3 381 318 306
3 389 388 382
3 315 389 382
3 319 389 315
3 383 384 390
3 390 384 391
3 390 321 322
3 386 390 322
3 383 390 386
3 386 322 323
3 386 323 387
3 387 323 317
3 393 392 326
3 393 326 327
3 319 326 389
3 389 326 392
3 396 395 394
3 396 394 391
3 394 390 391
3 394 397 390
3 397 329 321
3 397 321 390
3 399 398 330
3 399 330 331
3 327 330 393
3 393 330 398
3 394 395 400
3 400 395 401
3 394 402 397
3 394 400 402
3 403 332 329
3 397 403 329
3 402 403 397
3 403 334 332
3 405 404 335
3 405 335 336
3 331 335 399
3 399 335 404
3 401 406 400
3 400 406 402
3 402 406 407
3 409 408 407
3 408 402 407
3 408 403 402
3 410 337 334
3 403 410 334
3 408 410 403
3 410 338 337
3 412 411 340
3 412 340 341
3 336 340 405
3 405 340 411
3 409 413 408
3 415 414 413
3 414 408 413
3 414 410 408
3 414 343 338
3 414 338 410
3 418 417 416
3 417 412 416
3 412 345 416
3 412 341 345
3 414 415 419
3 419 415 420
3 419 347 343
3 419 343 414
3 418 416 421
3 418 421 422
3 348 421 345
3 345 421 416
3 420 423 419
3 347 419 423
3 424 347 423
3 349 347 424
3 422 421 425
3 422 425 426
3 351 425 348
3 348 425 421
3 424 427 349
3 349 427 352
3 425 355 426
3 355 427 426
3 355 352 427
3 355 425 351
3 430 429 428
3 432 431 428
3 428 431 430
3 434 433 432
3 432 433 431
3 434 435 433
3 438 437 436
3 440 439 436
3 436 439 438
3 442 441 440
3 440 441 439
3 441 442 429
3 442 428 429
3 442 443 428
3 428 444 432
3 428 443 444
3 444 359 360
3 434 444 360
3 432 444 434
3 446 445 361
3 361 445 360
3 445 435 360
3 435 434 360
3 448 447 446
3 446 447 445
3 451 450 449
3 451 449 437
3 449 436 437
3 449 452 436
3 452 363 364
3 440 452 364
3 436 452 440
3 440 364 365
3 440 365 442
3 442 365 367
3 442 367 443
3 443 367 369
3 443 369 444
3 444 369 359
3 372 446 361
3 446 372 374
3 446 374 448
3 455 454 453
3 457 456 453
3 453 456 455
3 456 457 450
3 450 457 449
3 457 377 449
3 377 378 449
3 449 378 379
3 449 379 452
3 452 379 363
3 460 459 458
3 453 454 461
3 461 454 462
3 461 384 385
3 457 461 385
3 453 461 457
3 457 385 377
3 465 464 463
3 463 464 460
3 463 460 458
3 389 463 458
3 388 389 458
3 468 467 466
3 468 466 462
3 466 461 462
3 466 469 461
3 469 391 384
3 469 384 461
3 472 471 470
3 470 471 465
3 470 465 463
3 393 470 463
3 392 393 463
3 392 463 389
3 475 474 473
3 473 476 475
3 466 467 477
3 477 467 478
3 477 395 396
3 469 477 396
3 466 477 469
3 469 396 391
3 472 470 398
3 399 472 398
3 479 472 399
3 398 470 393
3 473 474 480
3 480 474 481
3 476 473 482
3 473 483 482
3 473 480 483
3 483 484 482
3 477 478 485
3 485 478 486
3 485 401 395
3 485 395 477
3 488 487 404
3 488 404 405
3 399 404 479
3 479 404 487
3 481 489 480
3 480 489 483
3 483 489 490
3 483 490 484
3 485 486 491
3 491 486 492
3 493 406 401
3 485 493 401
3 491 493 485
3 494 407 406
3 494 406 493
3 494 409 407
3 496 495 411
3 496 411 412
3 405 411 488
3 488 411 495
3 499 498 497
3 499 497 492
3 497 491 492
3 497 500 491
3 502 493 501
3 493 500 501
3 493 491 500
3 504 503 502
3 503 493 502
3 503 494 493
3 505 413 409
3 494 505 409
3 503 505 494
3 505 415 413
3 418 506 417
3 506 507 417
3 507 412 417
3 507 496 412
3 497 498 508
3 508 498 509
3 497 510 500
3 497 508 510
3 501 500 511
3 500 512 511
3 500 510 512
3 514 513 512
3 513 503 512
3 504 511 512
3 504 512 503
3 516 515 513
3 515 503 513
3 515 505 503
3 515 420 415
3 515 415 505
3 422 517 506
3 422 506 418
3 507 506 518
3 518 506 517
3 508 509 519
3 519 509 520
3 508 521 510
3 508 519 521
3 523 512 522
3 512 521 522
3 512 510 521
3 512 523 514
3 515 516 524
3 524 516 525
3 526 423 420
3 515 526 420
3 524 526 515
3 526 424 423
3 528 527 517
3 422 528 517
3 426 528 422
3 517 527 518
3 520 529 519
3 519 529 521
3 521 529 530
3 521 530 522
3 525 531 524
3 533 532 531
3 532 524 531
3 532 526 524
3 534 427 424
3 526 534 424
3 532 534 526
3 534 535 427
3 535 426 427
3 535 528 426
3 533 536 532
3 532 536 534
3 534 536 537
3 534 537 535
3 540 539 538
3 542 541 538
3 538 541 540
3 544 543 542
3 542 543 541
3 546 545 544
3 544 545 543
3 548 547 546
3 546 547 545
3 548 549 547
3 552 551 550
3 554 553 550
3 550 553 552
3 553 554 539
3 554 538 539
3 554 555 538
3 538 556 542
3 538 555 556
3 556 429 430
3 544 556 430
3 542 556 544
3 544 430 431
3 544 431 546
3 546 431 433
3 546 433 548
3 558 557 435
3 435 557 433
3 557 549 433
3 549 548 433
3 560 559 558
3 558 559 557
3 563 562 561
3 563 561 551
3 561 550 551
3 561 564 550
3 564 437 438
3 554 564 438
3 550 564 554
3 554 438 439
3 554 439 555
3 555 439 441
3 555 441 556
3 556 441 429
3 445 558 435
3 558 445 447
3 558 447 560
3 567 566 565
3 567 565 562
3 565 561 562
3 565 568 561
3 568 450 451
3 564 568 451
3 561 568 564
3 564 451 437
3 571 570 569
3 565 566 455
3 566 454 455
3 566 572 454
3 565 455 456
3 565 456 568
3 568 456 450
3 571 569 459
3 460 571 459
3 573 571 460
3 576 575 574
3 572 576 574
3 462 572 574
3 454 572 462
3 579 578 577
3 464 465 577
3 578 464 577
3 580 464 578
3 460 464 573
3 573 464 580
3 583 582 581
3 585 584 581
3 581 584 583
3 584 585 575
3 575 585 574
3 585 467 574
3 467 468 574
3 574 468 462
3 579 577 471
3 472 579 471
3 586 579 472
3 471 577 465
3 588 587 475
3 475 587 474
3 589 581 476
3 581 588 476
3 588 475 476
3 581 582 588
3 581 590 585
3 581 589 590
3 590 478 467
3 590 467 585
3 593 592 591
3 592 586 591
3 586 479 591
3 586 472 479
3 596 595 594
3 587 596 594
3 481 587 594
3 474 587 481
3 482 589 476
3 589 482 484
3 597 589 484
3 590 589 597
3 597 486 478
3 597 478 590
3 593 591 487
3 488 593 487
3 598 593 488
3 487 591 479
3 601 600 599
3 601 599 595
3 599 594 595
3 599 602 594
3 603 489 481
3 594 603 481
3 602 603 594
3 604 490 489
3 604 489 603
3 597 484 490
3 604 597 490
3 605 597 604
3 605 492 486
3 605 486 597
3 496 606 495
3 598 488 607
3 488 606 607
3 606 608 607
3 488 495 606
3 608 609 607
3 612 611 610
3 612 610 600
3 610 599 600
3 610 613 599
3 599 614 602
3 599 613 614
3 616 603 615
3 603 614 615
3 603 602 614
3 618 617 616
3 617 603 616
3 617 604 603
3 617 498 499
3 605 617 499
3 604 617 605
3 605 499 492
3 501 619 502
3 619 504 502
3 507 620 606
3 507 606 496
3 622 608 621
3 608 620 621
3 608 606 620
3 608 622 609
3 610 611 623
3 623 611 624
3 610 625 613
3 610 623 625
3 627 614 626
3 614 625 626
3 614 613 625
3 614 627 615
3 617 618 628
3 628 618 629
3 628 509 498
3 628 498 617
3 511 619 501
3 504 619 511
3 513 514 630
3 630 516 513
3 632 631 620
3 507 632 620
3 518 632 507
3 620 631 621
3 623 624 633
3 633 624 634
3 636 625 635
3 625 633 635
3 625 623 633
3 625 636 626
3 629 637 628
3 509 628 637
3 638 509 637
3 520 509 638
3 522 639 523
3 630 514 523
3 639 630 523
3 640 630 639
3 640 525 516
3 640 516 630
3 642 641 527
3 642 527 528
3 518 527 632
3 632 527 641
3 634 643 633
3 633 643 635
3 638 644 520
3 520 644 529
3 644 646 645
3 530 644 645
3 529 644 530
3 639 522 530
3 645 639 530
3 647 639 645
3 639 648 640
3 639 647 648
3 649 531 525
3 640 649 525
3 648 649 640
3 649 533 531
3 535 642 528
3 535 650 642
3 646 651 645
3 653 652 651
3 652 645 651
3 652 647 645
3 647 654 648
3 647 652 654
3 648 655 649
3 648 654 655
3 656 536 533
3 649 656 533
3 655 656 649
3 657 537 536
3 657 536 656
3 657 658 537
3 658 535 537
3 658 650 535
3 653 659 652
3 652 659 654
3 654 659 660
3 654 660 655
3 655 660 661
3 655 661 656
3 656 661 662
3 656 662 657
3 657 662 663
3 657 663 658
3 666 665 664
3 668 667 664
3 664 667 666
3 670 669 668
3 668 669 667
3 672 671 670
3 670 671 669
3 672 673 671
3 676 675 674
3 676 674 665
3 665 674 664
3 674 539 664
3 539 540 664
3 664 540 541
3 664 541 668
3 668 541 543
3 668 543 670
3 670 543 545
3 670 545 672
3 677 673 672
3 545 677 672
3 547 677 545
3 679 678 549
3 678 547 549
3 678 677 547
3 681 680 679
3 679 680 678
3 684 683 682
3 551 552 682
3 552 684 682
3 552 685 684
3 553 674 675
3 685 553 675
3 552 553 685
3 674 553 539
3 557 679 549
3 679 557 559
3 679 559 681
3 688 687 686
3 688 686 683
3 683 686 682
3 686 562 682
3 562 563 682
3 682 563 551
3 686 687 567
3 687 566 567
3 687 689 566
3 686 567 562
3 692 691 690
3 570 571 690
3 691 570 690
3 693 570 691
3 696 695 694
3 689 696 694
3 572 689 694
3 566 689 572
3 699 698 697
3 697 698 692
3 690 697 692
3 700 697 690
3 573 700 571
3 571 700 690
3 703 702 701
3 703 701 695
3 695 701 694
3 701 575 694
3 575 576 694
3 694 576 572
3 699 697 578
3 579 699 578
3 704 699 579
3 578 697 580
3 580 697 700
3 580 700 573
3 706 705 583
3 583 705 582
3 584 701 702
3 706 584 702
3 583 584 706
3 701 584 575
3 709 708 707
3 708 704 707
3 704 586 707
3 704 579 586
3 712 711 710
3 587 588 710
3 588 712 710
3 588 713 712
3 588 582 705
3 588 705 713
3 709 707 592
3 593 709 592
3 714 709 593
3 592 707 586
3 717 716 715
3 719 718 715
3 715 718 717
3 718 719 711
3 711 719 710
3 719 595 710
3 595 596 710
3 710 596 587
3 598 721 720
3 714 598 720
3 593 598 714
3 721 722 720
3 725 724 723
3 725 723 716
3 723 715 716
3 723 726 715
3 726 600 601
3 719 726 601
3 715 726 719
3 719 601 595
3 729 728 727
3 730 727 728
3 721 598 607
3 733 732 731
3 732 733 609
3 733 722 609
3 721 607 609
3 721 609 722
3 723 724 734
3 734 724 735
3 734 611 612
3 726 734 612
3 723 734 726
3 726 612 600
3 729 727 616
3 615 729 616
3 736 729 615
3 618 616 727
3 730 618 727
3 737 618 730
3 740 739 738
3 738 739 731
3 738 731 732
3 621 738 732
3 622 621 732
3 622 732 609
3 734 735 741
3 741 735 742
3 741 624 611
3 741 611 734
3 626 743 627
3 743 744 627
3 744 615 627
3 744 736 615
3 737 629 618
3 745 629 737
3 740 738 631
3 632 740 631
3 746 740 632
3 631 738 621
3 742 747 741
3 624 741 747
3 748 624 747
3 634 624 748
3 635 749 636
3 749 750 636
3 636 750 626
3 750 751 626
3 751 743 626
3 743 751 744
3 745 752 629
3 629 752 637
3 638 637 752
3 638 752 753
3 755 754 641
3 755 641 642
3 632 641 746
3 746 641 754
3 748 756 634
3 634 756 643
3 643 756 635
3 756 757 635
3 757 749 635
3 757 756 758
3 750 749 759
3 759 749 757
3 644 638 760
3 638 761 760
3 638 753 761
3 760 646 644
3 650 755 642
3 650 762 755
3 758 763 757
3 757 763 759
3 761 764 760
3 764 766 765
3 764 765 651
3 760 764 651
3 646 760 651
3 765 653 651
3 658 768 767
3 762 658 767
3 650 658 762
3 768 769 767
3 772 771 770
3 770 773 772
3 766 774 765
3 774 776 775
3 774 775 659
3 765 774 659
3 653 765 659
3 777 660 659
3 777 659 775
3 660 777 778
3 779 660 778
3 661 660 779
3 661 780 662
3 779 780 661
3 780 782 781
3 663 780 781
3 662 780 663
3 768 658 663
3 781 768 663
3 783 768 781
3 769 768 784
3 784 768 783
3 770 771 785
3 785 771 786
3 773 770 787
3 787 770 785
3 776 788 775
3 775 788 777
3 777 788 789
3 777 789 778
3 782 790 781
3 781 790 783
3 783 790 791
3 783 791 784
3 786 792 785
3 785 792 787
3 795 794 793
3 793 796 795
3 799 798 797
3 665 666 797
3 666 799 797
3 666 800 799
3 801 666 667
3 801 800 666
3 669 793 794
3 801 669 794
3 667 669 801
3 802 796 793
3 669 802 793
3 671 802 669
3 804 803 673
3 803 671 673
3 803 802 671
3 804 805 803
3 808 807 806
3 810 809 806
3 806 809 808
3 809 810 798
3 798 810 797
3 810 675 797
3 675 676 797
3 797 676 665
3 677 804 673
3 811 805 804
3 677 811 804
3 678 811 677
3 812 678 680
3 812 811 678
3 806 807 684
3 807 683 684
3 807 813 683
3 806 684 685
3 806 685 810
3 810 685 675
3 815 814 688
3 688 814 687
3 688 683 813
3 688 813 815
3 818 817 816
3 820 819 816
3 820 816 817
3 823 822 821
3 814 823 821
3 689 814 821
3 687 814 689
3 826 825 824
3 824 825 818
3 824 818 816
3 692 824 816
3 691 692 816
3 691 816 693
3 693 816 819
3 829 828 827
3 829 827 822
3 822 827 821
3 827 695 821
3 695 696 821
3 821 696 689
3 832 831 830
3 830 831 826
3 830 826 824
3 699 830 824
3 698 699 824
3 698 824 692
3 827 828 703
3 828 702 703
3 828 833 702
3 827 703 695
3 836 835 834
3 834 835 832
3 830 834 832
3 837 834 830
3 704 837 699
3 699 837 830
3 838 705 706
3 839 838 706
3 702 839 706
3 833 839 702
3 836 834 840
3 836 840 841
3 709 840 708
3 840 837 708
3 840 834 837
3 708 837 704
3 842 711 712
3 713 843 712
3 712 843 842
3 705 838 713
3 838 843 713
3 838 844 843
3 838 839 845
3 838 845 844
3 841 840 846
3 841 846 847
3 714 846 709
3 709 846 840
3 848 716 717
3 848 717 849
3 717 850 849
3 717 718 850
3 850 718 711
3 851 850 711
3 842 851 711
3 850 851 852
3 853 842 843
3 851 842 853
3 854 843 844
3 853 843 854
3 844 845 855
3 856 844 855
3 854 844 856
3 857 856 855
3 860 859 858
3 862 861 858
3 862 858 859
3 847 846 863
3 862 864 861
3 866 863 865
3 865 863 720
3 863 846 720
3 846 714 720
3 722 865 720
3 868 867 725
3 725 867 724
3 725 716 848
3 869 725 848
3 868 725 869
3 869 848 849
3 852 851 870
3 852 870 871
3 729 870 728
3 870 853 728
3 870 851 853
3 728 853 730
3 853 872 730
3 853 854 872
3 873 854 856
3 872 854 873
3 856 857 874
3 875 856 874
3 873 856 875
3 877 876 875
3 877 875 874
3 879 878 876
3 879 876 877
3 880 878 879
3 881 860 858
3 881 858 861
3 881 861 882
3 885 884 883
3 864 882 861
3 884 885 866
3 884 866 865
3 731 884 865
3 733 731 865
3 733 865 722
3 888 887 886
3 867 888 886
3 735 867 886
3 724 867 735
3 871 870 889
3 871 889 890
3 736 889 729
3 729 889 870
3 891 737 872
3 872 737 730
3 873 893 892
3 891 873 892
3 872 873 891
3 893 873 875
3 893 875 894
3 894 875 876
3 894 876 895
3 895 876 878
3 895 878 896
3 896 878 880
3 883 884 739
3 740 883 739
3 897 883 740
3 739 884 731
3 887 898 886
3 735 886 898
3 899 735 898
3 742 735 899
3 902 901 900
3 900 901 890
3 889 900 890
3 903 900 889
3 744 903 736
3 736 903 889
3 904 745 891
3 891 745 737
3 891 892 905
3 891 905 904
3 908 907 906
3 907 897 906
3 897 746 906
3 897 740 746
3 899 909 742
3 742 909 747
3 748 747 909
3 748 909 910
3 902 900 911
3 902 911 912
3 750 911 751
3 911 903 751
3 911 900 903
3 751 903 744
3 904 752 745
3 753 752 904
3 905 753 904
3 913 753 905
3 908 906 754
3 755 908 754
3 914 908 755
3 754 906 746
3 910 915 748
3 748 915 756
3 911 916 758
3 915 911 758
3 756 915 758
3 912 911 915
3 759 916 750
3 750 916 911
3 918 761 917
3 761 913 917
3 761 753 913
3 919 918 917
3 762 914 755
3 762 920 914
3 922 763 921
3 763 758 921
3 921 758 916
3 923 921 916
3 923 916 924
3 916 759 924
3 763 922 924
3 763 924 759
3 918 764 761
3 926 925 766
3 926 766 764
3 919 926 764
3 918 919 764
3 927 925 926
3 928 920 762
3 928 762 767
3 767 769 928
3 928 769 929
3 922 921 772
3 921 771 772
3 921 930 771
3 932 931 773
3 773 931 772
3 931 924 772
3 924 922 772
3 934 933 932
3 932 933 931
3 934 935 933
3 925 774 766
3 937 936 776
3 937 776 774
3 927 937 774
3 925 927 774
3 938 936 937
3 778 939 779
3 779 939 940
3 941 779 940
3 780 779 941
3 943 942 782
3 780 943 782
3 941 943 780
3 945 944 942
3 945 942 943
3 945 929 944
3 929 784 944
3 929 769 784
3 930 786 771
3 946 786 930
3 787 947 932
3 787 932 773
3 932 948 934
3 932 947 948
3 935 934 949
3 949 934 948
3 936 788 776
3 938 950 936
3 950 788 936
3 950 789 788
3 778 789 939
3 789 951 939
3 789 950 951
3 939 951 940
3 942 790 782
3 790 942 791
3 791 942 944
3 791 944 784
3 946 952 786
3 786 952 792
3 787 792 947
3 792 953 947
3 792 952 953
3 955 954 953
3 954 947 953
3 954 948 947
3 949 948 956
3 956 948 954
3 955 957 954
3 954 957 956
3 960 959 958
3 794 795 958
3 795 960 958
3 795 961 960
3 795 796 961
3 961 796 962
3 965 964 963
3 798 799 963
3 799 965 963
3 799 966 965
3 967 799 800
3 967 966 799
3 801 958 959
3 967 801 959
3 800 801 967
3 958 801 794
3 968 962 796
3 968 796 802
3 969 802 803
3 969 968 802
3 971 970 805
3 970 803 805
3 970 969 803
3 971 972 970
3 974 973 808
3 808 973 807
3 809 963 964
3 974 809 964
3 808 809 974
3 963 809 798
3 811 971 805
3 811 812 971
3 812 975 971
3 975 972 971
3 812 976 975
3 979 978 977
3 973 979 977
3 813 973 977
3 807 973 813
3 982 981 980
3 980 981 975
3 976 980 975
3 983 980 976
3 977 978 815
3 978 814 815
3 978 984 814
3 977 815 813
3 987 986 985
3 989 988 985
3 989 985 986
3 988 989 982
3 988 982 980
3 818 988 980
3 817 818 980
3 817 980 820
3 820 980 983
3 991 990 823
3 823 990 822
3 823 814 984
3 823 984 991
3 987 985 992
3 987 992 993
3 826 992 825
3 992 988 825
3 992 985 988
3 825 988 818
3 995 994 829
3 829 994 828
3 829 822 990
3 829 990 995
3 998 997 996
3 996 997 993
3 996 993 992
3 832 996 992
3 831 832 992
3 831 992 826
3 994 833 828
3 999 833 994
3 998 996 835
3 836 998 835
3 1000 998 836
3 835 996 832
3 1002 839 1001
3 839 999 1001
3 839 833 999
3 1003 1002 1001
3 1006 1005 1004
3 1005 1000 1004
3 1000 841 1004
3 1000 836 841
3 1007 845 1002
3 1002 845 839
3 1002 1003 1008
3 1009 1002 1008
3 1007 1002 1009
3 1010 1009 1008
3 1013 1012 1011
3 1015 1014 1011
3 1015 1011 1012
3 1014 1015 1006
3 1004 1014 1006
3 1016 1014 1004
3 847 1016 841
3 841 1016 1004
3 1017 849 850
3 852 1017 850
3 1007 855 845
3 855 1007 857
3 1007 1018 857
3 1007 1009 1018
3 1009 1010 1019
3 1020 1009 1019
3 1018 1009 1020
3 1022 1021 1020
3 1022 1020 1019
3 1024 1023 1021
3 1024 1021 1022
3 1023 1024 1013
3 1011 1023 1013
3 1025 1023 1011
3 860 1025 859
3 1025 1014 859
3 1025 1011 1014
3 859 1014 862
3 862 1014 1016
3 864 862 1026
3 862 1016 1026
3 847 863 1026
3 847 1026 1016
3 866 1026 863
3 1028 1027 868
3 868 1027 867
3 1030 1028 1029
3 1028 869 1029
3 1028 868 869
3 849 1017 869
3 1017 1029 869
3 1017 1031 1029
3 871 1031 852
3 852 1031 1017
3 1018 874 857
3 874 1018 877
3 877 1018 1020
3 877 1020 879
3 879 1020 1021
3 879 1021 880
3 1021 1032 880
3 1021 1023 1032
3 1033 1023 1025
3 1032 1023 1033
3 881 1034 860
3 1034 1025 860
3 1034 1033 1025
3 882 1035 881
3 881 1035 1034
3 882 864 1035
3 864 1026 1035
3 885 883 1035
3 885 1035 1026
3 885 1026 866
3 1036 887 888
3 1037 1036 888
3 867 1037 888
3 1027 1037 867
3 1030 1029 1038
3 1030 1038 1039
3 1040 1029 1031
3 1038 1029 1040
3 890 1040 871
3 871 1040 1031
3 1041 892 893
3 894 1042 893
3 893 1042 1041
3 895 1043 894
3 894 1043 1042
3 896 1044 895
3 895 1044 1043
3 880 1032 896
3 1032 1044 896
3 1032 1045 1044
3 1033 1047 1046
3 1045 1033 1046
3 1032 1033 1045
3 1047 1033 1034
3 1047 1034 1048
3 1050 1049 1048
3 1034 1050 1048
3 1035 1050 1034
3 897 1050 883
3 883 1050 1035
3 1036 898 887
3 1052 1051 899
3 1052 899 898
3 1037 1052 898
3 1036 1037 898
3 1051 1052 1039
3 1038 1051 1039
3 1053 1051 1038
3 902 1053 901
3 1053 1040 901
3 1053 1038 1040
3 901 1040 890
3 1054 905 1041
3 1041 905 892
3 1055 1041 1042
3 1054 1041 1055
3 1056 1042 1043
3 1055 1042 1056
3 1057 1043 1044
3 1056 1043 1057
3 1058 1044 1045
3 1057 1044 1058
3 1045 1046 1059
3 1045 1059 1058
3 1049 1050 907
3 908 1049 907
3 1060 1049 908
3 907 1050 897
3 1051 909 899
3 909 1051 910
3 1051 1061 910
3 1051 1053 1061
3 912 1061 902
3 902 1061 1053
3 1062 913 1054
3 1054 913 905
3 1063 1054 1055
3 1062 1054 1063
3 1056 1065 1064
3 1063 1056 1064
3 1055 1056 1063
3 1065 1056 1057
3 1065 1057 1066
3 1068 1067 1066
3 1057 1068 1066
3 1058 1068 1057
3 1058 1059 1069
3 1058 1069 1068
3 914 1060 908
3 914 1070 1060
3 1061 915 910
3 915 1061 912
3 1062 917 913
3 917 1062 919
3 1062 1071 919
3 1062 1063 1071
3 1063 1064 1072
3 1063 1072 1071
3 1067 1068 1073
3 1067 1073 1074
3 1068 1069 1075
3 1076 1068 1075
3 1073 1068 1076
3 1077 1076 1075
3 920 1070 914
3 920 1078 1070
3 1079 921 923
3 924 1079 923
3 1071 926 919
3 927 926 1071
3 1072 927 1071
3 1080 927 1072
3 1074 1073 1081
3 1074 1081 1082
3 1083 1073 1076
3 1081 1073 1083
3 1076 1077 1084
3 1085 1076 1084
3 1083 1076 1085
3 1086 1085 928
3 1085 1078 928
3 1078 920 928
3 1078 1085 1084
3 929 1086 928
3 1088 1087 1079
3 1087 921 1079
3 1087 930 921
3 1090 1088 1089
3 1089 1088 931
3 1088 1079 931
3 1079 924 931
3 933 1091 931
3 931 1091 1089
3 935 1091 933
3 1080 1092 927
3 927 1092 937
3 1094 1093 938
3 937 1094 938
3 1092 1094 937
3 1093 1094 1082
3 1081 1093 1082
3 1095 1093 1081
3 940 1095 941
3 1095 1083 941
3 1095 1081 1083
3 941 1083 943
3 943 1083 1085
3 943 1085 945
3 945 1085 1086
3 945 1086 929
3 1097 946 1096
3 946 1087 1096
3 946 930 1087
3 1097 1096 1090
3 1089 1097 1090
3 1098 1097 1089
3 1091 1100 1099
3 1098 1091 1099
3 1089 1091 1098
3 1091 935 1100
3 935 1101 1100
3 935 949 1101
3 1093 950 938
3 950 1093 951
3 951 1093 1095
3 951 1095 940
3 1097 952 946
3 952 1097 953
3 953 1097 1098
3 955 953 1098
3 1099 955 1098
3 1102 955 1099
3 956 1101 949
3 956 1103 1101
3 1102 1104 955
3 955 1104 957
3 956 957 1103
3 1103 957 1104
3 1107 1106 1105
3 1109 1108 1105
3 1105 1108 1107
3 959 960 1109
3 960 1108 1109
3 960 1110 1108
3 1111 960 961
3 1111 1110 960
3 1113 1112 962
3 1112 961 962
3 1112 1111 961
3 1113 1114 1112
3 1116 1115 965
3 965 1115 964
3 966 1105 1106
3 1116 966 1106
3 965 966 1116
3 1105 966 967
3 1105 967 1109
3 1109 967 959
3 968 1113 962
3 968 969 1113
3 969 1117 1113
3 1117 1114 1113
3 969 1118 1117
3 970 1119 969
3 969 1119 1118
3 972 1119 970
3 1121 1120 974
3 974 1120 973
3 974 964 1115
3 974 1115 1121
3 1117 1118 1122
3 1117 1122 1123
3 1124 1118 1119
3 1122 1118 1124
3 975 1124 972
3 972 1124 1119
3 1126 1125 979
3 979 1125 978
3 979 973 1120
3 979 1120 1126
3 1129 1128 1127
3 1127 1128 1123
3 1122 1127 1123
3 1130 1127 1122
3 982 1130 981
3 1130 1124 981
3 1130 1122 1124
3 981 1124 975
3 1133 1132 1131
3 1125 1133 1131
3 984 1125 1131
3 978 1125 984
3 1129 1127 986
3 987 1129 986
3 1134 1129 987
3 986 1127 989
3 989 1127 1130
3 989 1130 982
3 1131 1132 991
3 1132 990 991
3 1132 1135 990
3 1131 991 984
3 1138 1137 1136
3 1137 1134 1136
3 1134 993 1136
3 1134 987 993
3 1140 1139 995
3 995 1139 994
3 995 990 1135
3 995 1135 1140
3 1138 1136 997
3 998 1138 997
3 1141 1138 998
3 997 1136 993
3 1143 999 1142
3 999 1139 1142
3 999 994 1139
3 1144 1143 1142
3 1147 1146 1145
3 1146 1141 1145
3 1141 1000 1145
3 1141 998 1000
3 1143 1001 999
3 1149 1148 1003
3 1149 1003 1001
3 1144 1149 1001
3 1143 1144 1001
3 1150 1148 1149
3 1153 1152 1151
3 1155 1154 1151
3 1155 1151 1152
3 1154 1155 1147
3 1154 1147 1145
3 1006 1154 1145
3 1005 1006 1145
3 1005 1145 1000
3 1148 1008 1003
3 1157 1156 1010
3 1157 1010 1008
3 1150 1157 1008
3 1148 1150 1008
3 1159 1158 1156
3 1159 1156 1157
3 1161 1160 1158
3 1161 1158 1159
3 1160 1161 1153
3 1160 1153 1151
3 1013 1160 1151
3 1012 1013 1151
3 1012 1151 1015
3 1015 1151 1154
3 1015 1154 1006
3 1156 1019 1010
3 1019 1156 1022
3 1022 1156 1158
3 1022 1158 1024
3 1024 1158 1160
3 1024 1160 1013
3 1162 1027 1028
3 1030 1162 1028
3 1163 1037 1162
3 1162 1037 1027
3 1039 1163 1030
3 1030 1163 1162
3 1164 1046 1047
3 1048 1165 1047
3 1047 1165 1164
3 1049 1165 1048
3 1163 1052 1037
3 1052 1163 1039
3 1166 1059 1164
3 1164 1059 1046
3 1167 1164 1165
3 1166 1164 1167
3 1060 1167 1049
3 1049 1167 1165
3 1168 1064 1065
3 1066 1169 1065
3 1065 1169 1168
3 1067 1169 1066
3 1170 1069 1166
3 1166 1069 1059
3 1171 1166 1167
3 1170 1166 1171
3 1070 1171 1060
3 1060 1171 1167
3 1172 1072 1168
3 1168 1072 1064
3 1173 1168 1169
3 1172 1168 1173
3 1074 1173 1067
3 1067 1173 1169
3 1170 1075 1069
3 1075 1170 1077
3 1170 1174 1077
3 1170 1171 1174
3 1078 1174 1070
3 1070 1174 1171
3 1175 1080 1172
3 1172 1080 1072
3 1176 1172 1173
3 1175 1172 1176
3 1082 1176 1074
3 1074 1176 1173
3 1174 1084 1077
3 1084 1174 1078
3 1177 1087 1088
3 1090 1177 1088
3 1175 1092 1080
3 1092 1175 1094
3 1094 1175 1176
3 1094 1176 1082
3 1177 1096 1087
3 1096 1177 1090
3 1178 1099 1100
3 1101 1178 1100
3 1179 1102 1178
3 1178 1102 1099
3 1103 1179 1101
3 1101 1179 1178
3 1179 1104 1102
3 1104 1179 1103
3 1180 1106 1107
3 1108 1181 1107
3 1107 1181 1180
3 1181 1108 1182
3 1108 1183 1182
3 1108 1110 1183
3 1185 1183 1184
3 1183 1111 1184
3 1183 1110 1111
3 1112 1186 1111
3 1111 1186 1184
3 1114 1186 1112
3 1187 1115 1116
3 1188 1187 1116
3 1188 1116 1106
3 1189 1188 1106
3 1180 1189 1106
3 1189 1180 1181
3 1189 1181 1190
3 1190 1181 1182
3 1191 1185 1184
3 1193 1192 1191
3 1184 1193 1191
3 1186 1193 1184
3 1117 1193 1114
3 1114 1193 1186
3 1195 1194 1121
3 1121 1194 1120
3 1121 1115 1187
3 1196 1121 1187
3 1195 1121 1196
3 1196 1187 1188
3 1199 1198 1197
3 1201 1200 1197
3 1201 1197 1198
3 1200 1201 1192
3 1193 1200 1192
3 1202 1200 1193
3 1123 1202 1117
3 1117 1202 1193
3 1204 1203 1126
3 1126 1203 1125
3 1126 1120 1194
3 1126 1194 1204
3 1199 1197 1205
3 1199 1205 1206
3 1207 1197 1200
3 1205 1197 1207
3 1129 1207 1128
3 1207 1202 1128
3 1207 1200 1202
3 1128 1202 1123
3 1209 1208 1133
3 1133 1208 1132
3 1133 1125 1203
3 1133 1203 1209
3 1206 1205 1210
3 1206 1210 1211
3 1212 1205 1207
3 1210 1205 1212
3 1134 1212 1129
3 1129 1212 1207
3 1208 1135 1132
3 1213 1135 1208
3 1211 1210 1214
3 1211 1214 1215
3 1138 1214 1137
3 1214 1212 1137
3 1214 1210 1212
3 1137 1212 1134
3 1216 1139 1140
3 1217 1216 1140
3 1135 1217 1140
3 1213 1217 1135
3 1220 1219 1218
3 1218 1219 1215
3 1214 1218 1215
3 1221 1218 1214
3 1141 1221 1138
3 1138 1221 1214
3 1216 1142 1139
3 1223 1222 1144
3 1223 1144 1142
3 1217 1223 1142
3 1216 1217 1142
3 1224 1222 1223
3 1227 1226 1225
3 1229 1228 1225
3 1229 1225 1226
3 1228 1229 1220
3 1218 1228 1220
3 1230 1228 1218
3 1147 1230 1146
3 1230 1221 1146
3 1230 1218 1221
3 1146 1221 1141
3 1222 1149 1144
3 1232 1231 1150
3 1232 1150 1149
3 1224 1232 1149
3 1222 1224 1149
3 1234 1233 1231
3 1234 1231 1232
3 1233 1234 1227
3 1225 1233 1227
3 1235 1233 1225
3 1153 1235 1152
3 1235 1228 1152
3 1235 1225 1228
3 1152 1228 1155
3 1155 1228 1230
3 1155 1230 1147
3 1231 1157 1150
3 1157 1231 1159
3 1159 1231 1233
3 1159 1233 1161
3 1161 1233 1235
3 1161 1235 1153
3 1236 1182 1183
3 1185 1236 1183
3 1237 1188 1189
3 1190 1238 1189
3 1189 1238 1237
3 1182 1236 1190
3 1236 1238 1190
3 1236 1239 1238
3 1191 1240 1185
3 1240 1236 1185
3 1240 1239 1236
3 1192 1240 1191
3 1241 1194 1195
3 1196 1242 1195
3 1195 1242 1241
3 1188 1237 1196
3 1237 1242 1196
3 1237 1243 1242
3 1244 1237 1238
3 1243 1237 1244
3 1199 1244 1198
3 1244 1239 1198
3 1244 1238 1239
3 1198 1239 1201
3 1201 1239 1240
3 1201 1240 1192
3 1245 1203 1204
3 1246 1245 1204
3 1246 1204 1194
3 1247 1246 1194
3 1241 1247 1194
3 1249 1248 1247
3 1241 1249 1247
3 1242 1249 1241
3 1250 1242 1243
3 1249 1242 1250
3 1251 1243 1244
3 1250 1243 1251
3 1206 1251 1199
3 1199 1251 1244
3 1252 1208 1209
3 1253 1252 1209
3 1253 1209 1203
3 1254 1253 1203
3 1245 1254 1203
3 1254 1245 1246
3 1248 1249 1255
3 1248 1255 1256
3 1257 1249 1250
3 1255 1249 1257
3 1258 1250 1251
3 1257 1250 1258
3 1211 1258 1206
3 1206 1258 1251
3 1259 1213 1252
3 1252 1213 1208
3 1252 1253 1260
3 1252 1260 1259
3 1256 1255 1261
3 1256 1261 1262
3 1263 1255 1257
3 1261 1255 1263
3 1264 1257 1258
3 1263 1257 1264
3 1215 1264 1211
3 1211 1264 1258
3 1265 1217 1259
3 1259 1217 1213
3 1259 1260 1266
3 1267 1259 1266
3 1265 1259 1267
3 1269 1268 1267
3 1269 1267 1266
3 1268 1269 1262
3 1261 1268 1262
3 1270 1268 1261
3 1271 1261 1263
3 1270 1261 1271
3 1220 1271 1219
3 1271 1264 1219
3 1271 1263 1264
3 1219 1264 1215
3 1265 1223 1217
3 1223 1265 1224
3 1265 1272 1224
3 1265 1267 1272
3 1273 1267 1268
3 1272 1267 1273
3 1227 1273 1226
3 1273 1270 1226
3 1273 1268 1270
3 1226 1270 1229
3 1229 1270 1271
3 1229 1271 1220
3 1272 1232 1224
3 1232 1272 1234
3 1234 1272 1273
3 1234 1273 1227
3 1274 1246 1247
3 1248 1274 1247
3 1276 1275 1254
3 1254 1275 1253
3 1276 1254 1246
3 1277 1276 1246
3 1274 1277 1246
3 1276 1277 1278
3 1256 1277 1248
3 1248 1277 1274
3 1280 1260 1279
3 1260 1275 1279
3 1260 1253 1275
3 1280 1279 1278
3 1277 1280 1278
3 1281 1280 1277
3 1262 1281 1256
3 1256 1281 1277
3 1280 1266 1260
3 1266 1280 1269
3 1269 1280 1281
3 1269 1281 1262