OFF
1361 2716 0
1.2398508718 13.5481144574 8.8334805825
1.3668152130 13.1689053977 8.2198500898
1.4144460609 12.9690556541 8.6986918945
1.5075913069 12.9545925114 9.0555162477
1.1199334870 14.3127709474 7.1890769761
1.4553570972 14.3483531499 6.4440793389
1.3741567393 13.8087298971 6.8903920280
1.3470739850 13.5170400652 7.4243950099
1.0534465367 14.1158244592 8.0731344109
1.0447438836 14.3682548316 8.8147930553
1.6148225778 13.3731443238 9.5974489234
1.2842296576 14.1991583424 9.4014054693
1.6975978860 14.1770116402 10.0109917326
1.0506501720 15.2138505757 6.9104722641
1.3510071820 15.4640487073 6.1811462431
0.9129071260 15.0781207603 7.6980162701
0.9575619221 15.0759835947 8.4987784519
1.1783374550 15.0474538009 9.2367595875
1.4800488047 14.8318954947 9.7848177247
1.0391401478 16.1754903321 6.7315684809
1.3357134191 16.4900862802 6.0817863394
0.9125713674 16.0090528093 7.4710194666
0.9269990847 15.8399683715 8.1609441528
1.2101323933 16.0850678380 8.9555113671
1.6590634584 15.7813892245 9.7988515350
1.1016641340 17.0697229518 6.6636042313
1.3847090671 17.4276971969 6.1077601223
0.9729046515 16.7860217281 7.2538060029
1.1072631545 16.9269122561 8.1151193308
1.5739122952 17.2180162665 9.0976759884
1.6672072489 16.6407048934 9.5597143865
1.2236270580 17.7584608452 6.6348064683
1.4662165523 18.1238827475 6.3034477039
1.1394229396 17.6253735739 7.3056802066
1.3054763472 17.8768731695 7.9779514362
1.4745560491 17.7721138342 8.5270073801
1.4102027056 18.3327196167 6.9156956699
1.4152743908 18.3246054883 7.5795269377
1.8457791013 12.4221636481 8.7251531495
2.1055064590 12.1100518862 8.0120692221
2.3784289744 11.7286920282 8.5305467355
2.6820923360 11.6161655753 9.3774210153
2.1629903843 12.2629622898 9.5291971188
2.5841145442 12.0815995134 9.9785731125
1.8450673318 13.2061874637 6.7477436934
2.4926314579 12.9770276832 6.0658994405
2.4830929989 12.4050151334 6.6350460549
2.2250917536 12.2544712865 7.3077426473
1.7361918626 12.7392419704 7.7076977320
1.7993462396 12.7045518932 9.4050825717
2.1989306300 12.7286106246 10.0249949788
2.0583492313 13.8324974271 5.9205844797
2.3633440035 14.2413937929 5.3880720964
2.6331738788 13.5341589147 5.5187490101
2.1091619205 13.5376017066 10.2997179385
2.1480400359 14.2225083540 10.4816603612
2.7302477303 13.8187748217 10.8690969231
1.8526108167 14.7925199314 5.6954298284
2.4341751960 15.1005750180 5.0621834111
2.4960624877 14.6403408786 10.7596295451
1.9944266429 14.9976009337 10.3127498587
1.7846644749 15.8435030121 5.5342719759
2.3014881156 16.2911519390 4.9820127564
2.2415469762 15.9099664341 10.3726804845
1.7652547198 16.9283739837 5.5171189734
2.2914804710 17.3968532894 5.0050566842
1.8814890485 17.1297315913 9.6365461426
2.3246283059 16.9140834605 10.1466484357
1.8275558620 18.0375570889 5.6721936047
2.3638605235 18.4434631182 5.0950967288
1.7385201697 18.5419677516 8.2580427321
1.9471569977 18.1644422749 9.0369639957
2.1456144597 17.6794307848 9.6287880007
2.0929400984 18.8705110739 5.6384635079
2.4346825591 19.2572316824 5.3247694526
1.8135506937 18.8488606138 6.3634219991
1.8053403603 19.0117786417 7.4049649143
2.1174412978 19.2776456591 8.1616472736
2.4290777461 19.1422181317 8.9565110810
2.2665251629 19.5652482161 5.9813872984
2.1792850379 19.6806739328 6.8518392159
2.2871711573 19.7772180124 7.6977309156
2.4825445210 19.7659871171 8.3763243755
3.0955748265 11.0303977777 7.8322040143
3.3954697152 10.9309175663 7.2518194662
3.4861905232 10.6337442871 7.7842646791
3.6091612611 10.5256580638 8.4702742326
2.9384400948 11.1330874750 8.6590762676
3.4730305810 10.7365283845 9.1792992527
3.1233380806 11.0629574024 9.2929411911
3.6080097068 10.9910727877 9.8377796298
2.8544311268 11.6339179159 7.0815127186
3.1746019293 12.0567052127 6.1983308487
3.2873261590 11.3562356920 6.7424357654
2.5594040245 11.6088851059 7.8827605664
3.2359466913 11.6730190254 10.2530900438
2.9010562697 12.3575496159 10.5119800767
3.5857638032 12.0003805150 10.8240692204
2.9756026857 12.9202375943 5.6507160648
2.6273048879 13.0328246725 10.6061213785
3.4356821263 12.8495582426 11.1310962643
3.0526517950 13.9773103792 5.0189097565
3.0536052500 13.2987025404 5.3392130082
3.4313762681 13.7993696633 11.3633731154
3.0651360112 14.8498069634 4.6479727706
3.5646934869 15.0732670942 4.3457225857
3.5297566006 14.3790743632 4.5550984636
2.6498250121 15.4443593670 10.7879949746
3.1875812554 14.7517317339 11.2287476960
2.9301999885 15.6809412675 4.5695099066
3.5768907657 15.9769714813 4.2249814794
2.7889940343 16.3741405443 10.7137134632
3.4017526048 15.9798147149 11.2450453082
2.8877942125 16.7174783234 4.5254278905
3.5943196882 17.0202338423 4.1628824989
2.8893319826 16.9688526418 10.6426747067
3.3510029169 16.9490077046 11.0074074074
2.9003127594 17.8267982864 4.5498208174
3.6208570539 18.1607775738 4.1306233304
2.5202989363 18.5148050278 9.5756354327
2.7795123980 18.0343715879 10.1207994707
3.1297569987 17.5604735815 10.6426999216
2.9452371778 19.0820412158 4.7010887022
3.6918418976 19.3228488651 4.0783660787
2.7745325067 19.0542985028 9.5525392584
3.0616640142 18.9068692416 9.9868333904
3.2627903920 20.2242346662 4.6251134954
3.9581428106 20.4600805468 3.9779006918
2.7517908601 20.1310550527 5.4617636111
2.5728281872 20.3361635012 6.4746155885
2.5258236973 20.2855563390 7.2634754658
2.7646564655 20.4363618427 8.0468260346
2.8956237620 20.0697865644 8.8790821864
3.0601555224 19.5800782241 9.5647457853
3.5003325774 21.0744106979 4.5937760738
3.9707574001 21.6026035048 4.3723902507
3.1639334783 21.0821729838 5.2506614446
2.9645839745 21.0910751665 6.1736701600
2.9165237886 21.0083458589 7.2346921918
3.1344261288 21.1475411850 8.0874698308
3.1662853268 20.8033957258 8.6634892185
3.5444223469 21.8541512991 5.0434336391
3.3230271926 21.9161951962 5.9063568597
3.2532280614 21.8512517916 6.8958195081
3.2811996411 21.6711283307 7.7376875043
4.0449392755 10.2739847106 7.6681581675
4.3831646212 10.2652596045 6.9046979303
4.9920808783 9.7274983874 7.3869979522
4.8084308176 9.6486922174 8.3910230509
4.2533409495 10.0286967014 8.6412655532
4.7391030483 9.7408539507 9.0905111527
3.8528409519 10.9322204055 6.6116006994
4.4439124642 10.8294179693 6.1070540532
4.3566069514 10.5024998182 6.4929660208
4.3315137412 10.2431009568 9.5060546052
4.3914628965 10.6749865637 10.2522129658
4.0259350572 11.6112074707 5.8189639184
4.5437101326 11.9723121720 5.3057048351
4.6513103440 11.2667663676 5.6442269244
4.2964915364 11.2580426709 10.7369417495
4.2111997966 12.0430747447 11.2827902366
3.6469977286 12.7750423294 5.3257434360
4.5810216916 12.8008055899 4.9003115378
4.2214424384 12.6115078899 11.6005268545
4.0674608623 13.3433328322 11.7164709512
4.7887260836 12.7807901261 12.0197394923
3.9420357480 13.6365785085 4.7246191344
4.1732017193 14.3580154964 4.3532682502
4.8035648009 13.5760378498 4.5190327318
3.9396859540 14.3031785948 11.7509825475
4.8140949126 13.8282522432 12.3071120765
4.3027601288 15.1870728267 4.1318126164
3.9179842451 15.3021586173 11.7043452288
4.4496908478 14.8330768016 12.0998906107
4.3830323899 16.1526354957 3.9943398567
4.0673953085 16.1214192202 11.7068161523
4.6210205377 15.7922800971 12.1419672567
4.4349853334 17.2303938061 3.8746569484
4.4790967151 16.6175095908 11.9208869237
3.9730111300 16.8456693429 11.5015057478
4.4671013076 18.4038477292 3.7013419259
3.4757143672 18.5220468713 10.5980885173
3.9294823498 17.8557048148 11.2307768667
4.3024900508 19.4862176290 3.6238407122
3.6712930737 19.6403714425 10.3321689019
4.1708208639 19.0469625773 11.1286103790
4.4320244211 20.0556735013 3.5245291793
4.9482431795 20.0691504468 3.3635802055
4.7543510303 19.6088647109 3.3721720860
3.4766337083 20.5777957596 9.4932049917
4.0199603557 20.6941711199 10.3488041820
4.3348363306 20.1136033571 11.0116101866
4.5474478583 20.5127067045 3.5902291364
4.5835109455 21.1765095669 3.8788738579
3.5458007734 21.6937706753 8.7177151727
3.9335729077 21.5040346251 9.7940464242
4.2644407499 21.4085331733 10.4614857262
4.4277804056 20.9422205408 10.8873631479
4.0112335588 22.5703499177 4.8352303539
4.6824769667 22.3414624645 4.2850713401
3.6908608554 22.7392911271 5.6587761878
3.5527282301 22.7301055380 6.6710357971
3.5708022998 22.5318716669 7.7830577198
3.8029670678 22.7292249363 8.6899014607
4.0036639106 22.4657202073 9.4425029724
4.3085416887 22.1639263100 10.2344836338
4.4131007254 23.1949746729 4.6721633854
4.8270602020 23.4603730846 4.4619822226
4.1503138949 23.5967184479 5.3236229232
3.8367309473 23.6868288947 6.4296102115
3.7767145482 23.5622665536 7.4972767385
3.8421670353 23.3568731604 8.3192229713
4.1023410388 23.5090481820 9.1562441409
4.3916970922 23.1159597446 10.0051218606
4.6862934301 23.9338909267 4.7123112270
4.6534664749 24.1660620058 5.0181402568
4.1190764388 24.8107365970 6.1455411412
4.4382666384 24.9311641501 5.3901897270
3.9504623156 24.6169548944 7.3378943413
4.0398055101 24.3441757520 8.4242436942
4.3101731441 24.4235309981 9.2885008023
4.4641957345 23.9709961684 9.8146280247
4.2490486993 25.8127476337 5.7859847579
4.5641824593 26.1408546313 5.1425610362
4.5595294181 25.3419761873 5.1544130052
4.0567467646 25.9073060907 6.5562746310
4.0358588739 25.6742532790 7.2305555601
4.1342788954 25.4891837579 8.1580351628
4.3630997633 25.2512440800 9.0399961203
4.3138257959 26.7980623034 5.6914978450
4.6336114889 27.0700237466 5.1113646994
4.1375181980 26.6536615375 6.4230501970
4.0749652791 26.4591582380 7.0796346884
4.2212627074 26.5683043051 7.8780586166
4.4599432654 26.2539060409 8.7810095664
4.4380426918 27.4765561840 5.5941471723
4.7088214813 27.7849950121 5.2512787005
4.3115044788 27.4412598247 6.2314921646
4.2618525411 27.2747095074 7.1403451611
4.4325744691 27.4031161870 7.9238591273
4.5492181783 27.0726704332 8.5032254466
4.6096089724 28.0546548319 5.8651666799
4.5596211383 28.0689572999 6.7433424318
4.5649883381 27.9161312780 7.5382275595
4.9007590744 10.2273470913 6.4787726883
5.6432994617 10.2652391659 6.1062938205
5.6925239914 9.7436982259 6.7279970316
5.9235629882 9.2479424829 7.4175001429
5.5781327805 9.1878322197 8.2082228469
5.5870408863 9.3071981639 9.2558317961
4.9488266822 9.7346054498 9.4895232183
5.2708346472 9.8282525668 9.9285721268
5.0733911665 10.7327995500 5.8540296657
5.2979438134 11.3771774624 5.3923119555
5.6697031875 10.7582344454 5.6795911899
5.0047635382 10.3340593199 10.3510378521
4.8089780208 10.7118765734 10.6297398049
5.5693847574 10.6887394068 11.0209394670
5.1774158700 12.1459750442 5.0480780889
5.1067765507 11.5485018925 11.4868300929
4.7434370230 12.1798089267 11.7172579919
5.4776485877 12.0607391995 12.0795830112
5.4709842964 12.7984462146 4.7619139254
5.5785635238 12.7975199326 12.6097817062
5.0163789811 14.3806836072 4.2303257033
5.7100567604 13.6143828722 4.4592155875
5.5070213991 13.5467153818 12.8500262120
5.3630967230 14.1664175450 12.8011211809
5.8995457891 13.9256166236 13.2728758828
5.1991166494 15.2848141823 4.0323930459
5.6459773520 14.6237743311 13.0276264349
5.1082759178 14.9310240020 12.5675426271
5.3011054421 16.2995026875 3.8646739247
5.2780353730 15.8660251153 12.6072671580
5.4252002532 17.3960756351 3.6496574151
4.5941527908 17.4481366819 11.8646534691
5.1343851194 16.7997056330 12.3877167116
5.2210909080 18.2742869915 3.4489335681
5.5412405797 18.6603158758 3.3038431177
5.9462521066 18.0277192052 3.4181628517
4.7020750002 18.5090382377 11.7732489304
5.2691718334 17.9796625196 12.3495712765
4.9103712044 18.9679036740 3.3976123374
5.4653506012 19.3805968750 3.2637354305
4.8110022570 19.6110061667 11.6857000926
5.3458062654 19.0784023246 12.2954952377
5.6483384245 20.0696225644 3.3217286840
4.8807777380 20.7775476374 11.5417464082
5.3973789174 20.1593851580 12.2266641709
5.1448728363 20.6468820237 3.5261380286
5.5679596875 21.3527095531 3.8726357226
4.6659195683 21.7628751002 10.9851724857
5.1135893833 21.7127445906 11.6506305282
5.4736121787 21.1968579593 12.1762963346
5.3995158335 22.2621632054 4.1975472946
5.1315389437 23.0131412797 4.3800392877
5.6874971772 22.6595536367 4.3472655324
4.6597421161 22.7058367696 10.6581444074
5.0995583939 22.6702516353 11.3529904653
5.5452958282 22.1863831561 12.0698934725
5.0420167668 23.8205774046 4.5578469247
5.3909749416 23.5249164558 4.5563380296
4.9212968081 23.8022526351 10.6445828409
5.3885813103 23.5369885329 11.4370150290
5.5729593923 22.9931180971 11.8857009625
5.2903800259 24.3917265000 4.4334208949
4.8959472500 24.4680207163 4.6387222822
5.3645576586 23.9896203301 4.5222377396
4.8815918290 24.1570859758 4.6931097053
4.8545372114 24.4919663553 4.8227736269
4.7174639816 24.9106812340 9.8868092704
5.2207064418 24.9520545847 10.5876379127
5.6466713067 24.4826069545 11.2755940053
4.9358485687 25.2815429629 4.6884544228
5.6020140455 25.6006174505 4.2731153470
4.7249869839 25.8998454326 9.4805614560
5.2434385924 25.9509554728 10.1551569602
5.7596395589 25.5433736419 10.8486454806
5.0525685979 26.4258443116 4.6160384876
5.7395395294 26.7349086136 4.1437823328
5.0406020793 27.0110218274 9.3266479342
5.7020431943 26.8975851448 10.1257677381
5.8412326473 26.3016163588 10.5549129406
5.1490282012 27.5885245480 4.6495688694
5.8574343336 27.9067349771 3.9950117382
4.8585870669 27.8935369860 8.3509207175
5.4232430815 28.1432223443 9.0963288474
5.7718880871 27.7215233539 9.7176886927
5.4290023589 28.4363828782 4.5301807187
5.7959081026 28.8140218049 4.1776591918
5.0741876592 28.4885441950 5.2621551738
4.9807423727 28.7126359102 6.2775980328
5.0107879339 28.6323889505 7.4083900319
5.3916731679 28.7425091069 8.3756251132
5.9299639320 28.8628889832 9.0348364892
5.9085279716 28.3790286649 9.4707505264
5.5971840153 29.1415224076 4.8073569174
5.4740768062 29.3111339511 5.7248133292
5.4816754858 29.3660299744 6.7514475762
5.6253362625 29.3405888604 7.7203724282
5.8644858448 29.2903883967 8.4213903990
6.6476738494 3.8221332198 18.5027315416
6.7487179980 3.8470800527 17.9782744102
6.8450892826 3.3054538344 18.2257123837
6.8360104164 3.2896070780 18.6029567834
6.5161730205 4.6651883561 18.3651586747
6.6728708482 4.4864664365 17.7783820518
6.7991478660 3.6651880787 18.8860022811
6.7009588368 4.3365580721 18.9470416150
7.1435680105 3.8253515243 19.2640681207
6.5272188246 5.3884475408 17.8929761983
6.9635457142 5.4552525799 17.3156730552
6.8949789699 4.7103416471 17.4451324631
6.3980415251 5.6064795253 18.5414671910
6.6062211742 5.2715884928 19.0314104156
7.0976025179 4.7706159876 19.4695516626
6.5337590337 6.4271555166 17.7403562087
7.0006766828 6.4511722968 17.1903060804
6.3596806458 6.4065941498 18.4083018797
6.5092012708 6.2695583533 19.0712704264
7.0378180666 5.9029976788 19.6857345221
6.5679306745 7.4169216918 17.6351278822
7.0189640873 7.4712961038 17.0836410323
6.3694361755 7.3708564253 18.3033162722
6.4502455253 7.2515022688 19.0089548203
6.8167067608 7.0112302716 19.6519801988
6.3272494046 8.8024018282 8.0116169743
6.6225270832 8.9853756768 7.4590981724
6.9635432080 8.6774015845 7.8345457750
7.0141404519 8.3382460445 8.5065782228
6.1884346181 8.7806787333 8.7425401278
6.6873501333 8.5754253800 9.0994900072
6.2502136161 8.8408236942 9.2382999267
6.7032493142 8.9368475909 9.6653790897
6.6451016287 8.3274029158 17.5417715561
7.0278563437 8.4662080138 17.0139825316
6.4581020290 8.2868406531 18.1879584510
6.4924995050 8.1855663137 18.9043064736
6.7587663553 7.9731465231 19.5739746045
6.2826074436 9.9622156347 6.3198222145
6.6326115466 9.4668058758 6.8635248743
6.1468576964 9.5559685003 10.1591376338
5.6995040820 10.0508576801 10.5079978731
6.5010702130 10.0493527636 10.8256286515
6.7693796771 9.0352967901 17.4612259862
6.6484075181 9.0610406966 18.0116127127
6.8896917221 9.5844690114 17.7243058157
6.6822154701 9.0036382223 18.7189830888
6.8499993738 8.7934970004 19.4181538557
6.0250401767 11.1280637070 5.4500024457
6.3805070848 10.5527276314 5.8316442014
6.7456340977 10.5757212182 11.4123571876
7.0603701614 9.7427201104 18.3584880204
7.1772030168 9.4391398540 19.1674339869
6.0476284451 11.9116363219 5.1132480451
6.7261231699 11.2485416157 5.4598089990
6.3919559091 11.2369303919 11.9295355351
6.3348822105 11.9731773333 12.6552965547
6.5279650159 12.8855855829 4.7940504155
6.2532854642 12.4529451232 13.0914921898
6.0513649674 13.0681136738 13.2691618929
6.5247166790 12.5375937415 13.5899596622
6.3808496371 12.9292663554 13.6662904918
6.6477064756 12.7841198332 13.9613766390
5.9273081971 14.4568552504 4.2295061986
6.4878888578 13.7745896339 4.4896132211
6.3960993468 13.3914877913 13.7883115800
6.2844715287 14.0176778785 13.6674452742
6.2469527378 15.4374178849 4.0530139017
5.7329311066 15.3900181592 13.0172905561
6.2185375414 14.7103452329 13.5174507500
6.1374357673 16.4668420596 3.8212374316
5.8056103820 16.3749872095 12.9587655608
6.3668396781 15.8110980280 13.4792631811
6.6029238606 17.2220455928 3.6683153572
5.8527292494 17.4438292734 12.8886884173
6.4447261501 16.8997705969 13.4027028911
6.3248175342 18.7222022220 3.2915157044
6.6838761881 18.0148071516 3.4374832289
5.9248035207 18.5683586319 12.8497648435
6.5202672958 18.0142537900 13.3567054486
6.3468269610 19.5476167224 3.2985710557
5.9434457715 19.6508619348 12.7840682515
6.6270100163 19.2452029925 13.3337826894
6.2779574445 20.1424324694 3.4082721995
5.8083781099 20.5733610696 3.5042778315
6.4384540161 20.6208837648 3.6744637422
5.9664200249 20.6664531067 12.7203846088
6.4359277142 20.1993671727 13.1351333357
6.5740231076 21.2028679603 4.0094963620
6.0450701347 21.6951669127 12.6622539224
6.5757176805 21.0923277676 13.1534928127
6.0900251567 21.9466817298 4.1841592728
6.5573901489 22.5875628921 4.4048511898
6.1340551354 22.8446223418 12.5084394515
6.7089703222 22.1466166475 13.1324218732
6.0716763106 23.4930743459 4.4231791910
6.1931029512 24.0477927581 4.3117076858
6.9430506380 23.3967426464 4.3709965260
5.8680087317 23.7046037379 11.9390417560
6.4334160562 23.8139876323 12.4708513637
7.0176000140 23.2641281397 13.1515534832
6.3102854376 24.8697929197 4.1380383197
6.2815688969 24.4580695712 11.9297404167
6.6877779439 24.3807891391 12.3621869737
6.8934301967 24.0341705619 12.7403400101
6.4413505646 25.8638870179 3.9504748508
6.9566388052 24.9113494387 12.0073490244
6.3503426467 25.2414568124 11.4200037212
6.5953602444 26.9396542584 3.6926767295
6.2238950538 26.7854347020 10.5205304382
6.4915648772 26.1582916782 10.9316936458
6.4563885877 27.8874283968 3.5137785979
6.7958838218 28.2809612573 3.2099809247
7.0629814912 27.5287886897 3.2865544493
6.8976480721 26.9153340073 10.5994387448
6.3735506841 27.4084428745 10.1979317308
6.2837548136 28.7636649216 3.6027576662
6.9179084712 29.1069084933 3.0092466554
6.2052361716 28.6727678058 9.4584111175
6.4902810286 28.2332297215 9.7729889953
6.5183782290 29.5848481694 3.4808450269
6.8980474977 29.9931298944 3.1266264939
6.1481175865 29.6055576892 4.1949617214
6.0000950280 29.8800901260 5.1861143631
5.9830923601 29.9662485171 6.1893534026
6.0864787653 29.9312766292 7.1793092812
6.2347120482 29.7682130062 8.0431269308
6.4234987109 29.4459252048 8.7347326813
6.6836976047 28.9575000054 9.3355121115
6.7079155144 30.3045095896 3.7367084171
6.5569946719 30.4548684454 4.6612236412
6.4995075785 30.5318719530 5.6627794270
6.5878387559 30.5124298808 6.6308924554
6.8696632237 30.3292784576 7.6208691274
6.8251111178 29.8923498481 8.3664489953
6.8990989003 37.6735773841 1.4481761187
7.1512587972 37.6429415937 1.1998078748
7.1317619194 37.1399757772 1.3849969964
7.0483795406 37.2525784567 1.7241950041
6.8929812860 37.9852420091 1.7199730020
7.2407572083 37.6401331540 2.2223076569
6.8952279880 38.3405655352 1.4042125532
7.1998143785 38.3141923928 1.1676356990
6.9876203454 38.7018188089 1.6659292934
6.9870648218 38.2698119615 1.9156865998
6.9837221442 38.8069865426 1.3646511602
7.2017848000 38.8457587937 1.3305705149
6.9753153526 38.9466157722 1.6106589342
7.1658417449 39.1555098132 1.6390096625
7.6999166565 1.9057305257 18.4678373274
7.9930735182 1.7664390335 18.0157255258
8.2439384741 1.4706461218 18.3946016065
8.0296386584 1.5256324221 18.7545057326
7.5982720526 2.2822733468 17.8960758146
7.7576166229 2.6152573817 17.4715096093
8.1587935963 2.0774239470 17.6069693437
7.1885837161 2.7133778694 18.3934141562
7.8348365878 1.8131348332 18.9212189682
7.5494424312 2.3814006654 18.9226122576
8.0670107050 2.0574587549 19.2113116404
7.2099542883 3.0913750801 17.7559971751
7.6997327089 3.3129643313 17.2649456704
7.1385156419 3.1199461927 18.9442793852
7.8108431567 2.9770574911 19.3662523929
7.0756989010 3.9372042023 17.4845056524
7.5670008231 4.3715583269 17.1130564086
7.8260847929 4.0482407822 19.6703548228
7.6746948897 5.4302198156 16.9394960540
7.7966039700 5.1258458285 19.9694641663
7.5774207682 7.3379178458 8.6840080685
7.5822824481 7.3877978196 8.6191715748
7.5944851719 7.2178336422 8.6371739224
7.6463600416 7.3121275799 8.6812498554
7.7116735773 6.4936715553 16.8007302707
7.6253970801 5.9655983129 20.1629116948
7.4118193645 6.7353973245 20.1649464452
8.0804869918 6.3598047866 20.4488998734
7.4835051313 7.7226275438 8.7134429422
7.7060844712 7.9000143358 8.5236039494
7.6906205327 7.6565581655 8.8099784980
7.6699195504 7.6187521906 16.6071441960
7.2584551354 7.6755352597 20.1191517278
8.0573316032 7.3568146916 20.5555088778
7.4480135234 9.0789927263 7.3722788256
7.5696834450 8.5263126246 8.0097074485
7.4657405711 8.3051791761 9.1689232319
7.7458838030 8.9403988553 9.9344302042
7.4665895376 8.7299690308 16.5176575509
7.9705666954 8.9272729353 16.0434981457
7.9333121311 8.1521749149 16.2670368048
7.2056856745 8.5028585592 19.9728748269
7.7100827038 8.1650208524 20.3398154632
7.1112506967 10.1033840389 6.2865527826
7.4391882608 9.6194914033 6.7717278641
7.1580910398 9.4820761445 10.4292233563
7.6513433467 10.2260608853 11.1463288186
7.5148379281 9.7618423098 16.3009987184
7.9621353446 9.9202096842 15.6299918926
7.1219832707 9.5336454172 17.0561323699
7.3018031869 9.0971462987 19.7426490697
7.7635141782 8.8154784744 20.1198583104
7.1645413203 10.7518856862 5.8253823321
7.3467032326 10.6450432991 11.6332645347
6.9807550285 10.8324225540 11.7660739267
7.4176851069 11.0002754062 12.0406887299
7.5382087790 10.7957999538 15.8715180739
7.7129470429 10.8172770423 15.2641502303
7.4739884933 10.7186880563 16.7400175187
7.2968658930 10.2710302678 17.6470802969
7.5167803489 10.3095652812 18.1751266438
7.7712375831 9.9820449236 18.7557209415
7.8421038026 9.4358403016 19.5956124873
7.0579273712 11.9985634028 5.1936553797
7.5312809066 11.3414553464 5.6068560093
7.4879050820 11.4364163390 12.8917299177
6.8565478610 11.9925813164 13.3576198419
7.5002666162 11.5722621192 13.7850925376
7.0766614863 12.1167739250 14.1486557832
7.7720025583 11.2205329367 14.5752987248
7.4080329244 11.8078491218 15.1548431623
7.5757789381 11.7758831016 16.0549880794
7.9137041872 11.7012721099 16.7037897690
7.8606914857 11.0039586147 17.3892038597
7.6408380984 10.6077494196 17.8522563479
7.4262311070 12.6704199165 5.0460185929
6.9857690894 13.0242553456 14.5113911567
7.5531315574 12.9387285935 15.4739444544
7.9659781630 12.5704905694 16.1690194506
6.8259136229 14.4755149173 4.3730787158
7.3590180937 13.5805449635 4.7769185796
6.6874305526 14.0632164559 14.0750253970
7.3698125536 14.1063701362 14.7860624557
7.9444807515 13.8575861354 15.4759894565
7.9788881996 13.2842849819 15.8564901368
7.1452216708 15.1903527206 4.2705728913
7.6562339706 14.5687516170 4.6130209268
6.9822408281 15.1430231452 14.1012212349
7.7274494635 15.1003883417 14.6202251610
7.9229203253 14.5308904072 15.0444628369
7.0763025417 16.1198830113 4.0295534648
7.8010486356 15.4528798330 4.4314805258
7.0275261292 16.3175082049 13.8835853496
7.5643758561 15.8451067841 14.2712490274
7.4720192486 16.9015972308 3.9125086905
7.1194666103 17.3998517908 13.7956485208
7.7406199267 16.7450426818 14.1537330760
7.1044089033 18.4112469948 3.4061976092
7.4492013750 17.7439173924 3.6699660561
7.2201898887 18.5091563618 13.7455018647
7.8604360027 17.8539622676 14.0486282100
7.2274794892 19.0739063116 3.3995474514
7.7500054626 18.4879921314 3.5665230897
7.3237249936 19.4349481910 13.7267055642
8.0061167847 19.0664593407 13.9659331163
7.0796703536 19.9007708839 3.5598722714
7.2163796823 20.5691064572 3.9215152901
7.7538469782 19.9972014938 13.8332840892
7.1109838705 20.3381983201 13.5362152842
7.2354312976 21.1137781462 4.1807461679
6.8301261153 21.6595275553 4.2600117789
7.6788380448 21.5128661292 4.4529105304
7.2481284914 21.4748362599 13.5251283169
7.8873738457 22.6408837494 4.5662943736
7.3481161273 22.4136196189 13.5343872329
7.2454940869 24.2698297263 4.1889822399
7.7854798275 23.5301553807 4.4005555609
7.4855374709 22.9706533150 13.5791790683
7.4592942888 23.2683308680 13.5115097583
7.8953027328 23.1356982804 13.5986794718
7.1190980961 25.1693219231 3.9757643583
7.0985018873 24.4523751407 12.5327981008
7.4482262180 24.0173049078 12.9722852979
7.5421232785 23.5225355904 13.3854399716
7.3550783634 25.9592489975 3.7625786451
7.6270252496 25.1999968577 11.8525935658
7.1563350163 25.6305038688 11.4331683777
7.6736673293 24.6386947752 12.4191944702
7.5057878741 26.7489312953 3.4562152679
7.4035685045 26.3225754956 10.9741680634
7.5843410865 28.1383404385 2.8782477171
7.7079743740 27.2796483975 3.1708656739
7.6415707150 26.8671018308 10.6146601790
7.3645375601 27.5718570457 10.1893388933
7.4895405692 29.0426313030 2.5788730944
7.7989086054 29.4086743321 2.3144915640
8.0897478980 28.7333334328 2.4260118015
7.3686392695 28.4796548169 9.6834404473
7.3625686714 29.9058595178 2.6061663852
7.9392810736 30.0817307586 2.1936901284
7.3224003499 29.0152474102 9.3687696804
7.2581496641 29.4721595920 8.9281106021
7.6623945693 30.7128601560 2.4252314848
8.1643193503 30.9520181099 2.1275841511
7.3642911602 30.9338626469 3.0853317788
7.1425169675 31.0302077383 4.1176466659
7.1201161687 31.1373533015 5.1838022265
6.9835240422 30.9933243849 6.1041369741
7.3573275494 31.0244349174 6.8906013111
7.7634255890 30.6500040209 7.6859720389
7.5140294035 30.0755545803 8.2947431250
7.8961476980 31.5653742204 2.4614534125
8.4262717678 32.0651258266 2.1249450224
8.0069426159 32.0476902239 2.9119385547
7.7930791937 31.6471042339 3.6651087572
7.5930678289 31.4870332496 4.4961084467
7.7756788935 31.6553319010 5.1741288141
7.5789336650 31.4968639352 6.0258377716
8.0335023245 31.8284576207 5.6980037981
7.9191315965 31.5087818821 6.6745926764
8.1151980577 31.1852497395 7.2098970066
8.2214261144 32.4663545528 2.4183789328
8.1913909355 31.7979450049 6.2381328372
7.6903033096 35.9886148567 2.0346693186
7.8468057312 35.5699583713 1.7275698984
7.9233479164 35.3671785602 1.9932181704
8.1230889054 35.4469712823 2.2506131005
7.4296403183 36.4556663010 1.6106467563
7.6544775508 36.7480734521 1.1958660414
7.8535131594 35.9545882733 1.3978914720
7.3701431818 36.7485012837 2.0376256680
7.8948557960 36.5933204764 2.5599238305
7.7260613334 37.5567365224 1.0445856093
7.7129116331 37.5118059844 2.8678563546
7.7765043309 38.3413175646 1.1800285332
7.2139588730 38.7034649245 2.0367000622
7.5069416833 38.2211980266 2.7508104152
7.5143976810 38.9042471752 2.6727198120
7.7691359150 38.6112015466 3.1543639050
7.3722219162 38.8726707451 1.5235504835
7.1642906349 39.0503289805 1.5664424126
7.1208642830 39.0306963955 1.7598445608
7.5358477683 39.1710163986 1.7854438154
7.2695583377 39.1635139315 2.0621162893
7.8088549867 39.4595998381 2.7044796497
7.8527825202 39.0856562099 3.1407291429
7.5474303790 39.4086985699 2.0949815589
8.6000485300 1.6204038035 17.9426886961
8.9600699820 1.3464670625 18.4228095081
8.5143888889 1.3713864303 18.8152635916
8.1718772971 1.5893336283 19.0332148732
8.6548361315 1.6470746219 19.1782369918
8.3544515959 2.6616990729 17.2561052282
8.9244098324 2.0846816927 17.5148998879
8.6666858566 2.3069166157 19.4427252658
8.4182231238 3.5001598041 17.0231969271
8.6753244926 3.2368337423 19.6747083862
8.4606967370 4.4522640665 16.8705883585
8.7598309486 4.3187046352 19.9688431171
8.5580318919 5.4635381421 16.7484632944
8.4977754867 5.1648973375 20.2318094105
8.1019250527 5.6656318865 20.3010674505
8.6912596333 5.7629820920 20.4526509331
7.6512217216 7.3620075537 8.6164133617
8.6340332448 6.6088005825 16.5570492756
8.8248312467 6.6929096965 20.6699858947
7.7857363942 7.5962696730 8.6987276248
8.3184112361 7.5308707107 16.3142659668
8.5157237189 8.1374881459 16.0653700615
9.0217560097 7.3429287239 16.2947603330
8.5282713951 7.2395807983 20.7925186532
8.4455333715 7.6258821256 20.7445771860
7.9445112348 8.8500514904 7.7749638822
8.3552804477 8.7223328524 8.2721946089
8.2257651055 8.2646762607 8.9066713740
8.2256003611 8.6255588505 9.5214292236
8.6591201106 9.1739596572 10.0096754616
8.7653205166 9.0846664230 15.6837678117
8.7759038163 7.6263018042 20.7589559544
8.5085828544 8.1635482322 20.4620729683
7.8118695935 10.0399902260 6.5453986728
8.0599263421 9.7079227477 7.0187757354
8.3027912684 9.3091769434 7.6170090861
8.1488824832 9.5574220272 10.5242832944
8.6499350832 10.1906160612 10.8796674485
8.4668212488 9.8351580878 15.2969896560
8.6860017958 10.2196667117 14.9754798811
8.9142733974 9.7293680504 15.2750114504
8.2830473834 9.0111261869 20.0342255255
8.9524471009 8.8785709568 19.8940289159
8.4634500779 9.3583285087 19.6732606795
7.8892880857 10.7033886373 6.1587141430
8.3114689778 10.3224730683 6.6937917412
7.8932889082 10.7724540434 11.7266694734
8.6259528208 10.9014677868 11.4919742638
8.1371598836 10.4290581723 15.0521773950
8.3933099615 10.7310873769 14.6310709818
8.0855380166 10.5886171761 18.0319390343
8.5965572174 10.1136037872 18.4691044940
8.8059423062 10.5520979646 17.9071642431
8.4249163443 9.7131491509 19.1531916857
7.8638623543 12.0626165457 5.4192484088
8.1742960232 11.4559776566 5.8705761885
8.3388795635 11.2407784024 12.2845848775
8.6545715761 11.4422533250 13.1873424301
8.3118252825 11.1960863291 13.9526892026
8.3297856915 11.6133109160 17.0620301762
8.6096325062 11.1345529066 17.4563323897
8.1055567851 12.9028204505 5.2768474429
8.8152806873 11.6812239200 17.0195429852
8.5845336280 12.2447208301 16.5803785857
8.2591693285 13.8958203531 5.1020757274
8.1665859258 13.6040993098 15.8319215965
8.4651876538 13.2125916430 16.0353084305
8.3772741828 14.8974034548 4.9008082035
8.2326604558 15.0228099280 14.8921933875
8.4614561989 14.4204313252 15.2818034712
8.3888458822 13.8335283204 15.7067771261
7.9665908573 16.3030670050 4.2747283028
8.4049602368 15.7210653861 4.6809776860
8.7103264673 15.0572928223 14.8707535361
8.3922694538 15.8464434004 14.4894566877
8.1233449752 17.1587057230 4.1075669653
8.5385331346 17.1153593415 14.2196142802
8.2310768530 17.9995340272 3.9396499121
8.6427926555 18.2106128901 14.1035273511
7.9357721667 18.9725032583 3.5850507670
8.2753067406 18.6280942721 3.8128775289
8.8621624652 19.1729219754 14.0002320942
7.7743615474 19.4184494106 3.6207345530
7.7683517581 20.6926926103 4.2202454629
7.9702011718 19.9356482135 3.9846015063
8.5554491258 20.3966248542 4.5593458677
7.8670989138 20.9110080623 13.7756216482
8.5300844783 20.2054549760 13.9016366765
8.8710699575 21.6211326616 4.8842302535
7.8867662537 21.9061715082 13.7424839108
8.6620815941 21.5121064679 13.7758101269
8.7346840687 22.5724953218 4.7831154669
7.7932859398 22.6001037629 13.7143896130
8.3437237104 22.4705010935 13.7198054158
8.1574853159 24.0928233968 4.3082612310
8.7487679329 23.4390751476 4.6249178360
8.4251679601 23.8307257747 13.0899226071
8.0069630109 23.6830030232 13.2932217340
8.6707443735 23.1973394145 13.3703046370
8.2062081882 25.0684656554 4.0386992129
8.8000124243 24.3524774948 4.3759915996
8.0692725421 24.1566913131 12.8978949298
8.4488974420 24.1008802926 12.8478736676
8.3790387352 24.4194493861 12.4980229061
8.2587216920 26.1545951074 3.6356286251
8.1760719770 24.9355286755 12.0163296446
8.1711523875 25.5987332108 11.3718803194
8.1386100052 26.8012162689 3.3185713621
8.3560702203 27.3364787482 3.0457301841
8.8563543976 26.6737704806 3.3881818165
8.0843038721 26.3859023030 10.8385981003
8.6979489208 26.0348772497 10.8395753451
8.4595257580 26.8259613039 10.3991284569
8.5821150658 28.0023448337 2.6788851415
8.3883046178 27.8457620432 9.8256882286
8.3921279963 29.3633573805 2.1596388838
8.8740203759 28.6386652433 2.3474766998
8.0187808401 28.8489934987 9.3278657206
8.8118297084 28.3003152470 9.4256726260
8.8371944172 28.8961870868 9.0173901189
8.6249256487 30.1350127704 2.0260227026
8.1478840801 29.5482180566 8.7502089496
8.9276923382 29.5337354946 8.5256496483
8.3494560194 30.1539251202 8.1816761589
8.8338797748 31.0106416293 2.0033509002
8.5357694462 30.7253515075 7.6738072781
8.9831980306 31.8144607553 2.0320830558
8.0929813654 32.0261745966 3.2846947452
8.2850847235 31.9917015906 3.5286024232
8.2958397956 31.7791318022 4.3664803526
8.2434909836 31.8596553181 5.2128026381
8.6710394392 31.7864853040 5.0647079824
8.7125497896 31.1410765828 7.2807178773
8.5544070888 31.5624465248 6.7936267692
8.4436957054 33.3316169418 2.2101209060
8.8149651128 33.1037695507 2.0407165082
8.6163302198 33.1789821322 2.5523682878
8.3730061493 32.2891143656 3.1007289714
8.5580546977 31.8913576154 5.7385904515
8.6816898974 31.8507573835 6.3099889311
8.2839093898 34.6077956270 1.9554064839
8.6250290049 34.4444245221 1.7195216575
8.5183764440 34.5115846410 2.3060124566
8.2577323166 35.2387534774 1.5284185001
8.2959702595 35.9053612895 1.2349002864
8.7356721323 35.1105959009 1.4583445948
8.6936009058 35.8565275517 2.5372053474
8.3556145258 36.6909887879 1.0676532764
8.4974431197 36.6772159093 2.9775785465
8.2548555389 37.2995951414 3.2705643165
8.7856237824 37.2195373720 3.3370664144
8.4516395057 37.4864437658 1.0706393598
7.9509823372 38.0369522827 3.2964977578
8.6871651427 37.5693887794 3.6804559278
8.4519505462 37.9827724990 3.7199757847
8.8532351773 37.9730994351 3.9204632789
8.5918151095 38.1246115395 1.2915829559
8.2634810461 38.8380333427 3.6063007020
8.8007193639 38.5402881539 3.9780148071
8.0729071355 38.7714764143 1.5079062936
8.3091938216 39.1416921001 1.9362576698
8.1452266736 39.4803488686 3.2996670729
8.5477411685 39.6979550359 3.6373774039
8.8282127837 39.2909816530 3.9472779443
8.1816778012 39.6009702268 2.4109571947
8.4586508928 40.0432388671 3.1513225119
8.8319336268 40.0546398448 2.9289884735
8.7628196921 40.2245779709 3.5641129852
8.9542448808 39.9397061512 3.8337026251
8.7737809013 40.4290211709 3.1531904937
9.0292548936 40.5174857302 3.1946096448
8.8170825177 40.4924484431 3.3822613891
9.5242407963 1.6843138760 17.9908573604
9.7128168280 1.3573531063 18.5317710427
9.2077186043 1.3658650664 18.8974146961
9.3671246817 1.7732404001 19.2635448059
9.2483184707 2.8382469433 17.1838344737
9.6771118558 2.2375617944 17.5476558057
9.4697380506 2.5074462381 19.5140874240
9.1296285697 3.7006550519 16.9444344953
9.5800846365 3.4265241679 19.7241179578
9.3497823878 4.4852514982 16.8650858411
9.7667499300 4.3093420676 19.9522143497
9.5117192617 5.4951744250 16.7795464064
9.2166926534 5.0429063340 20.2515830271
9.4552398602 5.7983292018 20.4613700834
9.7471414279 6.5461435130 16.6656851458
9.6202355862 6.4838469449 20.5503064172
9.2726227417 8.0921062037 16.0560989947
9.6851636877 7.4295110245 16.3753709293
8.8586418399 7.2400004768 20.8068974217
9.2976414797 7.3539768365 20.5955807056
8.7087550833 8.6619751673 8.7129074308
8.9026652837 8.7655221973 9.0062758592
8.8246763545 8.8279942135 9.4296452741
9.1872327561 9.3133215786 9.7377251475
9.6573344635 8.7753206558 15.9036438814
9.4166310560 8.1614446645 20.2288879760
8.7654093131 10.1957187563 7.3362850981
8.9548211126 9.6056904224 8.1328169295
9.0342567354 9.1211409688 8.7051049509
8.8259908578 9.7093165779 10.4708028833
9.2212927106 9.7390554686 10.1576768677
9.1646989128 10.0938513791 15.0809397159
9.4951924806 9.6233191366 15.4993763502
9.0749800475 9.6370213523 18.8223020513
9.5453319442 9.4200828418 18.6239834210
9.4524110986 9.9529654014 18.0606853887
8.8824490117 9.3826502540 19.3846622534
9.4764015742 9.0774898001 19.2085039073
9.5981334911 8.5883329252 19.7840161929
8.7298889676 11.1920920174 6.5753738250
9.2114469568 10.9877238207 7.4014244731
9.3508200922 10.5229365613 8.0715646505
9.1543020807 10.1578643037 10.5652292692
9.2281331667 10.8348657859 10.8737010670
9.0460890694 10.7091096322 14.6510482066
9.5615168310 10.3448409007 15.1369067706
9.2731390825 10.7848437139 17.4855781604
8.5391422785 12.1460705508 5.8382023640
9.1260197150 12.2795408391 6.4232176776
9.3613072957 11.7475402633 7.1567900783
9.5819792874 11.4284383415 7.9456566345
9.0212264304 11.5258769207 12.0278233737
9.3728355207 11.6585560585 11.4383810552
9.0985231541 11.7016701083 12.6910108703
9.2989753466 11.7498799250 13.3866760783
9.1898367168 11.3828984122 14.0061802186
9.1576735465 11.3439352898 17.1595585794
9.5922790951 11.1109997396 17.0555959890
9.3831518970 11.7789794943 16.6956678038
8.8752766858 13.1781266618 5.7715901809
9.3890561052 13.0413801791 6.4212160103
9.5728433546 12.6019293071 7.0473995906
9.6948219725 12.1825605232 7.7094752942
9.8940220981 12.8954600289 10.7831719949
9.8903284105 12.6742927584 10.6929354333
9.9501999008 12.9587654523 10.5749187008
9.5064616935 12.1230147977 12.2815974732
9.8894828713 12.8725376530 10.9610393132
9.5549064877 12.1112671001 13.0778104112
9.2876990987 12.7587191631 16.0558114208
8.9417254727 14.3410286059 5.4992716541
9.4164100721 13.8569227866 6.1815057949
9.9333548807 13.0177725152 10.8851883678
8.9731190614 13.7854692140 15.5997580180
9.5360677091 13.3852031698 15.4540007026
9.4469397060 13.9820572456 15.1521570727
8.9975301760 15.4941804624 5.2537946008
9.4782904522 14.8693021670 5.9913169646
9.1050978818 14.5349456156 15.0551384101
9.5887231837 14.4298644809 14.6702500843
9.3255109269 15.2806457482 14.4450947926
8.7026208873 16.5400038775 4.6900740856
9.2628412329 16.3856330410 5.2992601642
9.5725133654 15.8526266733 5.8605592408
9.2776099164 16.4377623668 14.1688132460
8.6670689143 17.4893529700 4.3928562481
9.2156621318 17.3398498922 5.0049799533
9.6764730590 16.7939889698 5.7388901774
9.3000371639 17.5244093783 14.0450093379
8.8167234677 18.4385994649 4.3901118553
9.4209498939 18.2056828277 5.0868491797
9.7065332522 17.6150461969 5.5570984073
9.3335564566 18.4613914181 13.9726896439
8.3128823106 19.1502221860 3.8990526574
8.6528613179 19.4337067557 4.3281183410
9.2980480165 19.2605440866 4.9487678903
9.4370847071 19.1376946357 13.8791529045
9.8150336169 18.7233995922 13.7444693461
9.9013634455 19.4096404617 13.6104427118
9.4151407248 20.4137091964 5.1300320152
9.3130968784 19.8578331286 13.8195669264
9.8985630991 20.2944944074 13.5072944381
9.6197500913 21.1374188017 5.2670259423
9.6391378919 21.7764223599 5.2339254290
10.2164928302 21.3775076319 5.5821097999
9.3124125482 20.8130704574 13.7068609857
9.9006212938 21.0832991304 13.4061267250
9.4966641976 22.6594915094 5.0380982935
10.0722019900 22.1501756353 5.4004753466
9.5346362305 21.8103739471 13.4577820475
9.0424346741 22.3815128643 13.5899431497
9.5250872379 23.4910542376 4.8705682161
8.8362099276 23.8857137152 12.7650500538
9.2781183012 23.2599218227 12.9857692916
9.4785508779 23.6938565564 12.3994751428
9.3192371702 22.7998628134 13.3074549705
9.1882122540 24.9547407640 4.2834099960
9.6523480973 24.3323989730 4.7000440307
8.9596778715 24.5804634822 11.9391735110
9.5888543055 24.1021715125 11.9093551797
9.6901963908 24.4849132079 11.4650515569
9.4039862799 25.8981056982 3.9752140548
9.7605023660 25.2113762004 4.4243118586
9.1693791903 25.2894309165 11.1496818193
9.8649790930 24.9754350992 10.9146898598
9.5264085076 25.8661911272 10.4993624376
9.2602701743 27.3638563638 3.0359954996
9.5611488606 26.7335152789 3.4839440417
9.4366999258 26.9117468114 9.9233888739
9.3025945329 28.0504428955 2.6399094854
9.2118197547 27.7025010147 9.6030188447
9.7867161881 27.3160971678 9.5080801507
9.5591395515 28.0809876988 9.1654550968
9.1585166663 29.3195860260 2.1426377178
9.6199592392 28.5827382885 2.4484834150
9.4989688091 28.9161636993 8.6732474504
9.3806060496 30.0826889330 2.0699907145
9.4217331905 29.4535931972 8.3607504695
9.2185428326 30.0951217129 7.9433470428
9.5374990379 30.8775498617 2.1603987990
9.4499272222 31.3093102414 3.7002274266
9.7406068798 30.9291263698 3.5745056245
9.5766270533 31.3661110508 3.0848027290
9.2071141789 31.4233648403 4.5611515946
9.7660911557 30.7775659134 4.1370627022
9.5207839769 31.2355690852 5.4017539671
9.9356515529 30.5492486400 5.1496920892
9.8161376454 30.9055983402 5.8469650038
9.0555759855 30.7709680468 7.5164058943
9.4043516359 30.5532854156 7.4960635347
9.2679045782 31.0765041906 7.0292763495
9.3426758238 31.8570807358 2.2105761795
8.9129279231 32.0736076644 3.3037693434
9.2838114114 32.1509696908 2.6759413511
9.0928468696 31.6564111522 5.4717805052
9.4801476321 31.3804269602 5.9758902740
9.0197127505 31.6458813445 6.5613410100
9.2252697096 32.4110492453 2.3126823304
9.0175179482 33.0335231599 2.3831014248
9.0612702728 31.7524049618 6.0979509916
8.9944944586 34.2329882353 1.8466744684
9.0342812613 34.0086231071 2.1723362236
9.0130744594 34.7824620185 2.2576174513
8.8730089972 35.8627946504 1.2675256140
9.1186358454 35.1518798436 1.5521012612
9.2306897958 35.7732140506 2.2653839812
8.9919146172 36.6688508965 1.2099543693
8.9125283126 36.7640167225 2.9244520852
9.2503681318 36.6767582892 2.4628534449
9.0651373679 37.4200591299 1.2735609908
9.2212474639 37.6700956908 3.0661991334
9.3481999146 37.5137096503 2.3594777792
9.0896348294 37.7818512994 3.7072299331
9.3205123693 37.9644256831 3.5773788676
9.1596126678 38.3519244145 3.9701754872
9.1036485070 37.9064712900 1.4900881568
8.8224986138 38.5251747697 1.7937832399
9.1897910564 38.2741046182 2.4098396393
9.2894638801 37.8236294899 1.8912853631
9.2708425075 38.7134749540 2.9773873925
9.3953260195 38.3941603628 3.4735130622
9.1729625285 39.0313608220 4.0203301993
8.8643970323 39.1999729646 2.4662901348
9.2190305819 39.5409043517 3.0631851940
9.4107533852 39.0491606603 3.3739582935
9.1614627053 39.6020720176 3.9861406970
9.2146441084 40.1782895890 3.2527019669
9.2336780897 40.0026497790 3.8252933131
9.0750088050 40.3997767352 3.5915448801
9.1795241433 40.5149646680 3.3878466423
9.0458006311 40.6378863231 3.3830744593
10.1615480021 1.6223342217 18.3115279873
10.2221324498 1.4661209572 18.6451109667
9.8976103880 1.4705517627 18.9403437965
10.0654081749 1.9619774227 19.2087975958
10.0379790704 2.7221073219 17.4032201916
10.4501736143 2.3537574129 17.9676250520
10.2275641976 2.7521678115 19.3734443578
9.9604289534 3.5336359902 17.1337349562
10.5249380176 3.0740176343 17.4989411253
10.3687786978 3.6957713320 19.5594277478
10.2091057262 4.5569452385 17.0640202791
10.4152099917 4.4952251512 19.7957207089
10.3706792542 5.5359999687 17.0671874338
9.9999159341 5.0922448265 20.1473317474
10.1565635871 5.8901678520 20.2657790389
10.5006201867 6.3569600155 17.0974948629
10.1281430808 6.7397328965 20.2990048368
9.9610084653 8.0774592291 16.2809226866
10.3085612039 7.3025788424 16.7948238582
10.0185463271 7.5570599963 20.1659821401
9.2565396430 9.2620692726 9.2557148373
10.1609579142 8.6766628092 16.1743926324
10.4280950015 8.3679344891 16.6250325608
10.0683388254 8.9902254680 18.4226913750
10.5507929007 8.4076512046 18.0650820030
10.4401169753 8.9501281091 17.6961181062
10.0424946381 8.4629946796 19.3351934669
10.5023569505 8.0697150273 18.7901303522
9.9425951240 8.1466974125 19.9056309108
10.3801780239 7.7632568816 19.5821688768
9.4557207340 10.0036307791 8.8909517512
9.4921154095 9.8898608578 9.6746423577
10.0933641897 9.2737766361 15.9697817216
10.3545823077 8.9369268204 16.2811102720
10.2965484672 10.0715238179 16.8729053400
10.1606686997 9.6089365345 17.5634328630
10.4678366253 9.3041340851 17.1674908483
9.7092858909 11.0823407889 8.7691535765
9.7104733306 10.7905452466 9.6024952924
9.5042397971 10.4946904598 10.2534780825
9.7678686227 11.1363488468 14.8842292187
10.0618504136 10.2311040980 15.6712160432
9.8613941577 10.4406095112 17.2677601066
10.0282758413 11.0621959354 16.6292278161
9.8684880737 12.1735573185 8.6389569077
9.8577542805 11.6838197671 9.4738368229
9.7285708109 11.7085564185 10.4709799337
9.7658155745 12.1084389872 14.0356922868
10.0407219392 11.9514680931 15.0941757103
10.1974385593 11.2055886478 15.6212284299
9.9134000653 11.9397203889 16.1465979250
9.7311703325 13.4920332764 6.9296902198
9.9112512218 13.0828902961 7.8802067777
10.0570612104 13.1397910753 8.9012288698
9.9803181233 12.6988005847 9.8740353867
9.9001972681 12.8446059831 11.4566906873
9.8846909094 12.8278456915 13.0393242995
9.9518715925 12.9718199703 14.0481267045
9.9655791490 12.6648552831 14.6966374529
10.1544061463 11.8459811973 15.7154744046
9.8926201288 12.6208142614 15.4572213532
9.8186216240 14.4332158421 6.7192434148
10.0509973402 14.1586534686 7.5548089560
10.1964309235 13.9939823833 8.5483000601
10.2252411614 13.7701549664 9.6105654101
10.1145705517 13.4297607130 10.6203134256
10.3316141513 14.0606469035 11.4453173882
10.2008106619 13.9362254286 12.6434301053
10.0282264627 13.6032806510 13.6654761533
9.8546486322 13.5643485955 14.6660169512
9.9064105514 15.4016828821 6.5567887116
10.1202838036 15.0117820028 7.2278671643
10.3782180108 15.0903595438 8.1096995145
10.4806378790 14.7652456065 9.2574458685
10.4936271473 14.5292019196 10.4391540813
10.6369408102 14.8234107930 11.3137193405
10.5634136356 14.7278226458 12.0953512359
10.4350693059 14.8045279884 12.8597124284
10.4728481313 15.4885780174 13.1368795823
10.0285091530 14.6320789807 13.7749705077
9.9593581874 16.2864112399 6.3511478317
10.3395526063 16.0850455816 7.2109221861
10.6415997992 15.9857252436 8.0690216494
10.7555878125 15.7076044861 8.8655285228
10.8315022632 15.4729912885 9.9204842842
10.8227586787 15.2855686743 10.8208204564
9.9786773948 15.8698765011 13.7878119618
10.5379412698 16.4425154273 13.1902326645
10.2192481223 17.3655641180 6.3766891446
10.6625184559 17.0598237780 7.2377401131
10.7342557344 16.5676160284 7.7392388659
9.9680573181 16.9465401450 13.7418959432
10.5508317533 17.4891341864 13.2348385460
9.8863641945 18.4325205573 5.6271811139
10.4677653097 18.6450467412 6.2407558701
10.9544527593 18.0832186650 7.1100945806
9.9264363063 17.9588516271 13.7245526440
10.4356124002 18.6422799108 13.3047949049
10.0758493543 19.5954029700 5.6474232213
10.6678168593 19.4802827727 6.1905490882
10.9286970546 19.0054018639 6.6188202875
10.4953740332 19.7646984392 13.1555075520
10.0043420153 20.5845637557 5.5155407592
10.6850823989 20.4878396562 6.0133713031
10.4314468660 20.7671186332 13.0637775367
10.7452929595 21.3561944684 5.9146091465
10.2196039726 21.6702280202 13.0118868900
10.2617538219 22.7464108220 5.3813577279
10.7814562073 22.2191195563 5.8174690192
9.8726856319 22.6977930944 12.8336911986
10.5275514758 22.2059098960 12.4893276711
10.4744276505 22.7987688864 12.1695014580
9.4916818110 22.4308559515 13.3767620602
10.1754434865 23.5432373579 5.1623860982
10.7311524996 23.1575527817 5.5836592225
10.1248182139 23.5777982789 11.8839893951
10.6206284909 23.0690981264 11.7979700893
10.7260365875 23.4380941816 11.3766294782
10.4713025490 24.4171111147 5.1376060239
10.3199667728 24.2410715714 11.1307633361
10.8617593219 23.9741309582 10.8016120468
10.5255242681 24.8862239540 10.4377014560
10.0121336901 25.6256050272 4.4116391477
10.3721954709 25.2626149154 4.8592566034
10.3743471086 26.0032470898 9.8677389167
9.9130688876 27.1861925423 3.3394564999
10.1075705257 26.7450122535 3.8553644788
10.3295608163 26.1457372337 4.4873433122
10.1520602567 26.7592010072 9.6057217241
10.5399665357 26.4775228052 9.4888382557
10.4435423008 27.1474941121 9.0665654958
9.9508618017 27.8721301438 2.9660685148
10.3227704412 27.4202557385 3.5674377875
10.1634817756 28.2729585391 8.5662970151
9.8694555568 29.2408693376 2.3215846274
10.1625407046 28.5693983655 2.7070257557
10.4454968056 29.5437864585 4.3808835819
10.6544385566 29.0185749588 4.1060886468
10.5054849867 29.4943685988 3.7098860898
10.5493557601 29.3391441253 5.0786232480
10.7046388440 28.8631214697 4.7809304165
10.7153890277 28.9452509964 5.4288934925
9.9113281354 29.2433732752 8.1235337889
10.4671012902 28.6078577954 7.9695608472
10.3615905355 29.2314033503 7.6119110863
10.0261930714 29.8946607676 2.3339371232
10.1098333987 30.3363759389 3.5233901073
10.4470241673 29.7361215325 3.2110267557
10.2478914373 30.2166379548 2.8558391464
10.1211081883 30.1880889848 4.4317048192
10.3128056232 29.8344249827 4.9650974156
10.4644894479 29.6184088959 5.6643031139
9.8911340933 30.1092356810 7.3707649559
10.4318735203 29.5348225242 7.1423256980
10.2375725425 30.0887768233 6.7756591530
10.0868719810 30.3464711887 2.4667918736
9.8242334987 30.9801412341 2.6207817389
9.8043189229 30.8143857941 6.5321520936
10.1797122752 30.2860105144 6.1125049477
9.4946281870 31.7763069391 2.5202555857
9.3750245097 31.4293859646 6.4566265483
9.2336116083 34.8828034754 1.8808111302
9.3113303568 35.8378497911 1.5820062611
9.3531527277 35.4715183716 1.9895357512
9.3803663967 36.7802725520 1.5366347727
9.4378910315 36.2505157249 1.9581353385
9.3568402780 37.4277601340 1.5708119753
9.4418954418 37.0859733902 1.9463656821
9.3399464642 38.2221576490 3.7832374141
9.3995674654 38.8803902075 3.7744811615
9.4007139775 39.6141706414 3.4941569384
9.3610695278 39.5794679435 3.8421743448
9.3148035958 40.1404534762 3.5804356695
10.5287204732 1.8542063718 18.5490365852
10.3602084431 1.6743266543 18.8848874249
10.7977969650 2.4426525588 18.5608432846
10.5748225825 2.2113167019 18.9550875957
10.7345625524 3.8293173439 17.4159435590
10.9961461252 3.2926319682 17.8354981360
11.0596639939 3.0647546094 18.3504437798
11.2806086314 3.8412162011 18.6359023616
10.8506853485 3.1327089574 18.9837100024
10.9035333028 4.7360796955 17.4419872938
11.2371645643 4.0929438180 17.8096931906
10.9513301009 4.3373118729 19.2761397415
11.3768093113 4.7083270237 18.7226377838
10.9886480172 5.7033578959 17.6360053439
11.3386987570 4.8670511358 17.9155595817
11.0969026707 5.4870223276 19.1811631471
11.3758921233 5.3703683788 18.5774061262
10.6317277532 5.2164481141 19.8103114887
10.7973576459 6.8036627492 17.5273558028
11.3502381289 5.4337165284 18.1689451458
11.0997286200 6.2526326866 18.4508496975
10.9339602381 6.4211562334 19.3185578756
10.6735719417 6.1244090099 19.8509581865
10.6630988859 7.7009898535 17.2477642323
10.7932467134 7.5616749397 18.0714681925
10.7926737656 7.1915658375 19.0494754745
10.5706686535 6.9867046454 19.7929499302
10.6166694550 8.5205234955 17.3227552016
10.4190720674 9.4150284462 16.4913029301
10.3114018060 10.5756968591 16.2220876126
10.2300477143 11.3553289987 16.0857601553
10.8917024422 15.4969524273 11.6802116064
10.6916587689 15.2813289469 12.4831795677
10.9659619374 16.5218967699 8.3991722452
11.2071203860 16.4492887689 9.4080596997
11.1922591750 16.1101198119 10.6926856839
11.2286055780 16.3794884852 11.7267746191
10.8683559363 15.9866265298 12.4854187169
11.0154891776 17.2140803419 7.8023183881
11.3721107781 17.2617151096 8.5517357599
11.5957129170 17.2287753249 9.3201819337
11.5934679692 16.9758574629 10.1535087318
11.5611651147 16.8679431297 11.0999488502
11.4814025561 17.0198315173 11.7817820427
11.5226932484 17.6547633828 12.0182254594
11.0922304845 16.9784299561 12.4854068843
11.3198378079 17.7996304046 7.8844153720
11.6066075155 17.9536203196 8.3180449218
11.7189937152 17.7431680796 8.8803327379
11.0892133807 18.0622699408 12.6795401842
11.5643313154 18.5753346155 12.0746215151
11.1140330744 19.7586870161 6.5674524185
11.3588593796 19.1174087127 7.1318672030
11.5331146939 18.4736960115 7.7836330773
11.0841429557 19.1529096154 12.6734554014
11.5872640218 19.6061052702 12.0157592008
11.2966210888 20.4919677971 6.5561223625
11.6030426483 20.0329997425 7.1086675837
11.0918145424 20.3415177294 12.5117522042
11.5973640206 20.4565696930 11.8918832433
11.2471364818 21.3573906462 6.3576566808
11.6654405975 20.8572849105 6.9576323996
11.3662950784 21.2343289284 11.9357245419
11.7633739934 20.9544092260 11.4759619834
11.6538165515 21.7591783886 11.2465863879
10.8181342670 21.4398165529 12.5017192303
11.4622415840 22.3210781672 6.4268611278
11.0337674365 22.4247410829 11.7341348558
11.5445773888 22.5465990679 10.9569298357
10.9199405134 23.9669990379 5.5781994516
11.3442673819 23.2899001732 6.1418637685
11.2324439780 23.2497663322 10.9178354383
11.6486722126 23.0302973162 10.4071309677
11.3505867760 23.9723293789 10.1489347550
11.0177911241 24.9340565052 5.5302592439
11.4653622237 24.4140957089 6.1351409132
11.1452986674 25.1005268393 9.6836623122
11.0284328405 26.1384843466 5.5011630428
11.4854465019 25.3511626799 6.1692235037
11.0080694628 26.0644345265 9.2455851381
11.5094948605 25.3095538813 9.0659452885
11.4825327074 25.8421392796 8.6847540812
10.6972061566 27.2810598238 4.4807715979
11.0485944468 27.2541935654 5.6460481044
11.4850498234 26.0329971080 6.4260685456
11.2883592187 26.8482500715 6.5680821741
11.3181653955 26.8310334570 7.6167074592
11.5968585309 26.1511272950 7.1534063553
11.1678366064 26.6048945464 8.4990233031
11.5946256829 26.0238745522 7.9959591107
10.5054433251 28.2037421617 3.4021105936
10.7463706142 28.3897891878 4.2424504307
10.8780456229 28.1792159382 5.3119947884
11.0373040248 27.8812435924 6.3632136388
11.1035960601 27.5817221853 7.1954519842
10.8298974580 27.6712642147 8.0663759474
10.3669410054 29.0926416005 2.7530216773
10.6040873612 29.0549634123 3.4193687235
10.7881165696 28.7982410280 6.1204222616
10.7609957964 28.6153768277 7.1761434632
10.3939173322 29.7132199057 2.7707012291
10.5403529405 29.5160332882 6.5409143540
11.3244014359 3.6858798498 18.1655817861
11.4547062227 4.3384858194 18.2555976435
11.4832310342 4.9446489537 18.3233597728
11.9012611387 17.8661042458 9.6888856391
11.8384620255 17.5598775067 10.7375509271
11.7121374007 17.3965313462 11.4349111999
11.9133398749 18.5172635798 8.6376321188
12.2127794550 18.8712496013 9.5753136095
12.0554088735 18.4326048919 10.5663850659
11.8360872346 18.0742523649 11.4015344173
11.8369636110 19.3685650296 7.8170817253
12.2243267722 19.4705574982 8.5720050656
12.3622048884 19.2926573213 9.1708822991
12.3578631614 19.3437213788 9.8857285206
12.3655012034 19.9398163067 10.2443254134
12.2253362758 19.4253008357 10.5104478810
11.9317762182 19.0215218666 11.3517493588
12.0894168047 20.6326179072 7.8928629679
12.3230343643 20.1250886371 8.4022793307
12.3748564072 19.6110801594 8.6912519652
12.2571410627 20.4269741173 10.4881914191
12.3717867803 20.6737954757 10.0068424978
11.9629905183 20.1422260535 11.2673095504
11.8497851478 21.7966029310 7.1409588588
12.1569450826 21.8039476889 8.0205012887
12.3291583466 20.8203558456 8.5826042701
12.2801832260 21.4609052205 8.8198963393
12.2567557267 21.3001873585 9.9104489728
12.3694969869 21.0650924332 9.3247293852
12.0208092200 21.1356058464 10.8237193325
11.8341119949 22.9540127103 6.9398003664
12.0871171395 22.6852554884 7.7788505033
12.1767643953 22.4458736003 8.6733914277
12.1725558770 22.1137807044 9.4658250091
11.9398052567 22.1636924200 10.3590278891
11.8145126972 23.9769914861 6.8272895416
12.0375729300 23.6597688306 7.6171126566
12.0691462744 23.4339957821 8.4949793475
11.9324640398 23.0970289609 9.5403299111
11.7862246572 24.9104272656 6.7970674672
11.9582141191 24.5835719807 7.5421392380
12.0038657421 24.2565794672 8.2360582905
11.7580468843 24.3496927565 9.1077089986
11.7057157188 25.5978760820 6.7885382205
11.8157039871 25.4287444915 7.4465260733
11.8066762331 25.1385637016 8.3354143707
3 2 1 0
3 0 3 2
3 6 5 4
3 8 7 4
3 4 7 6
3 7 8 1
3 8 0 1
3 8 9 0
3 3 0 10
3 0 11 10
3 0 9 11
3 11 12 10
3 4 5 13
3 13 5 14
3 4 15 8
3 4 13 15
3 8 16 9
3 8 15 16
3 9 17 11
3 9 16 17
3 12 11 18
3 18 11 17
3 13 14 19
3 19 14 20
3 13 21 15
3 13 19 21
3 15 22 16
3 15 21 22
3 16 23 17
3 16 22 23
3 18 17 24
3 24 17 23
3 19 20 25
3 25 20 26
3 19 27 21
3 19 25 27
3 21 28 22
3 21 27 28
3 30 23 29
3 23 28 29
3 23 22 28
3 23 30 24
3 25 26 31
3 31 26 32
3 25 33 27
3 25 31 33
3 35 28 34
3 28 33 34
3 28 27 33
3 28 35 29
3 32 36 31
3 31 36 33
3 33 36 37
3 33 37 34
3 40 39 38
3 42 41 38
3 38 41 40
3 42 43 41
3 46 45 44
3 48 47 44
3 44 47 46
3 47 48 39
3 39 48 38
3 48 1 38
3 1 2 38
3 38 2 3
3 49 38 3
3 42 38 49
3 43 42 50
3 50 42 49
3 53 52 51
3 53 51 45
3 45 51 44
3 51 5 44
3 5 6 44
3 44 6 7
3 44 7 48
3 48 7 1
3 10 49 3
3 55 54 12
3 12 54 10
3 54 50 10
3 50 49 10
3 55 56 54
3 51 52 57
3 57 52 58
3 57 14 5
3 57 5 51
3 60 59 55
3 12 60 55
3 18 60 12
3 55 59 56
3 57 58 61
3 61 58 62
3 61 20 14
3 61 14 57
3 24 60 18
3 24 63 60
3 61 62 64
3 64 62 65
3 64 26 20
3 64 20 61
3 29 66 30
3 66 67 30
3 67 24 30
3 67 63 24
3 64 65 68
3 68 65 69
3 68 32 26
3 68 26 64
3 34 70 35
3 70 71 35
3 35 71 29
3 71 72 29
3 72 66 29
3 66 72 67
3 68 69 73
3 73 69 74
3 75 36 32
3 68 75 32
3 73 75 68
3 76 37 36
3 76 36 75
3 70 34 37
3 76 70 37
3 77 70 76
3 71 70 78
3 78 70 77
3 74 79 73
3 73 79 75
3 75 79 80
3 75 80 76
3 76 80 81
3 76 81 77
3 77 81 82
3 77 82 78
3 85 84 83
3 87 86 83
3 83 86 85
3 89 88 87
3 87 88 86
3 89 90 88
3 93 92 91
3 93 91 84
3 91 83 84
3 91 94 83
3 94 39 40
3 87 94 40
3 83 94 87
3 87 40 41
3 87 41 89
3 96 95 43
3 43 95 41
3 95 90 41
3 90 89 41
3 96 97 95
3 91 92 46
3 92 45 46
3 92 98 45
3 91 46 47
3 91 47 94
3 94 47 39
3 50 99 96
3 50 96 43
3 97 96 100
3 100 96 99
3 102 101 53
3 53 101 52
3 53 45 98
3 53 98 102
3 54 99 50
3 54 56 99
3 56 100 99
3 56 103 100
3 106 105 104
3 101 106 104
3 58 101 104
3 52 101 58
3 60 107 59
3 107 108 59
3 108 56 59
3 108 103 56
3 104 105 109
3 109 105 110
3 109 62 58
3 109 58 104
3 63 111 107
3 63 107 60
3 108 107 112
3 112 107 111
3 109 110 113
3 113 110 114
3 113 65 62
3 113 62 109
3 67 115 111
3 67 111 63
3 112 111 116
3 116 111 115
3 113 114 117
3 117 114 118
3 117 69 65
3 117 65 113
3 71 119 72
3 119 120 72
3 72 120 67
3 120 121 67
3 121 115 67
3 115 121 116
3 117 118 122
3 122 118 123
3 122 74 69
3 122 69 117
3 78 124 119
3 78 119 71
3 120 119 125
3 125 119 124
3 122 123 126
3 126 123 127
3 128 79 74
3 122 128 74
3 126 128 122
3 129 80 79
3 129 79 128
3 130 81 80
3 130 80 129
3 131 82 81
3 131 81 130
3 131 132 82
3 82 132 78
3 132 133 78
3 133 124 78
3 124 133 125
3 126 127 134
3 134 127 135
3 126 136 128
3 126 134 136
3 128 137 129
3 128 136 137
3 129 138 130
3 129 137 138
3 140 131 139
3 131 138 139
3 131 130 138
3 131 140 132
3 135 141 134
3 134 141 136
3 136 141 142
3 136 142 137
3 137 142 143
3 137 143 138
3 138 143 144
3 138 144 139
3 147 146 145
3 149 148 145
3 145 148 147
3 149 150 148
3 153 152 151
3 153 151 146
3 146 151 145
3 151 84 145
3 84 85 145
3 145 85 86
3 145 86 149
3 154 150 149
3 86 154 149
3 88 154 86
3 88 90 154
3 154 90 155
3 158 157 156
3 158 156 152
3 152 156 151
3 156 92 151
3 92 93 151
3 151 93 84
3 159 155 90
3 159 90 95
3 95 97 159
3 159 97 160
3 156 157 161
3 161 157 162
3 161 98 92
3 161 92 156
3 100 164 163
3 160 100 163
3 97 100 160
3 164 165 163
3 168 167 166
3 168 166 162
3 162 166 161
3 166 101 161
3 101 102 161
3 161 102 98
3 103 169 164
3 103 164 100
3 165 164 170
3 170 164 169
3 166 167 106
3 167 105 106
3 167 171 105
3 166 106 101
3 108 172 169
3 108 169 103
3 170 169 173
3 173 169 172
3 171 110 105
3 174 110 171
3 112 175 172
3 112 172 108
3 173 172 176
3 176 172 175
3 174 114 110
3 177 114 174
3 179 178 175
3 112 179 175
3 116 179 112
3 175 178 176
3 177 118 114
3 180 118 177
3 120 181 121
3 181 182 121
3 182 116 121
3 182 179 116
3 180 123 118
3 183 123 180
3 125 184 181
3 125 181 120
3 182 181 185
3 185 181 184
3 188 187 186
3 183 188 186
3 127 183 186
3 123 183 127
3 132 189 133
3 184 125 133
3 189 184 133
3 190 184 189
3 185 184 191
3 191 184 190
3 187 192 186
3 127 186 192
3 193 127 192
3 135 127 193
3 139 194 140
3 189 132 140
3 194 189 140
3 195 189 194
3 197 190 196
3 190 195 196
3 190 189 195
3 190 197 191
3 141 135 198
3 135 199 198
3 135 193 199
3 200 142 141
3 200 141 198
3 201 143 142
3 201 142 200
3 202 144 143
3 202 143 201
3 194 139 144
3 202 194 144
3 203 194 202
3 194 204 195
3 194 203 204
3 196 195 205
3 205 195 204
3 198 199 206
3 206 199 207
3 198 208 200
3 198 206 208
3 200 209 201
3 200 208 209
3 201 210 202
3 201 209 210
3 202 211 203
3 202 210 211
3 203 212 204
3 203 211 212
3 205 204 213
3 213 204 212
3 207 214 206
3 206 214 208
3 208 214 215
3 217 216 215
3 216 208 215
3 216 209 208
3 209 218 210
3 209 216 218
3 210 219 211
3 210 218 219
3 221 212 220
3 212 219 220
3 212 211 219
3 212 221 213
3 224 223 222
3 224 222 217
3 222 216 217
3 222 225 216
3 216 226 218
3 216 225 226
3 218 227 219
3 218 226 227
3 220 219 228
3 228 219 227
3 222 223 229
3 229 223 230
3 222 231 225
3 222 229 231
3 225 232 226
3 225 231 232
3 226 233 227
3 226 232 233
3 228 227 234
3 234 227 233
3 229 230 235
3 235 230 236
3 229 237 231
3 229 235 237
3 231 238 232
3 231 237 238
3 240 233 239
3 233 238 239
3 233 232 238
3 233 240 234
3 236 241 235
3 235 241 237
3 237 241 242
3 237 242 238
3 238 242 243
3 238 243 239
3 246 245 244
3 146 147 244
3 147 246 244
3 147 247 246
3 248 147 148
3 248 247 147
3 250 249 150
3 249 148 150
3 249 248 148
3 250 251 249
3 254 253 252
3 254 252 245
3 245 252 244
3 252 152 244
3 152 153 244
3 244 153 146
3 154 250 150
3 256 255 155
3 155 255 154
3 255 251 154
3 251 250 154
3 256 257 255
3 252 253 158
3 253 157 158
3 253 258 157
3 252 158 152
3 159 256 155
3 260 259 160
3 160 259 159
3 259 257 159
3 257 256 159
3 260 261 259
3 258 162 157
3 262 162 258
3 163 260 160
3 163 165 260
3 165 261 260
3 165 263 261
3 265 264 168
3 168 264 167
3 168 162 262
3 168 262 265
3 170 267 266
3 263 170 266
3 165 170 263
3 267 268 266
3 264 171 167
3 269 171 264
3 271 270 267
3 170 271 267
3 173 271 170
3 267 270 268
3 269 174 171
3 272 174 269
3 176 271 173
3 176 273 271
3 272 177 174
3 274 177 272
3 179 275 178
3 275 276 178
3 276 176 178
3 276 273 176
3 279 278 277
3 274 279 277
3 180 274 277
3 177 274 180
3 182 280 275
3 182 275 179
3 276 275 281
3 281 275 280
3 277 278 282
3 282 278 283
3 282 183 180
3 282 180 277
3 185 284 280
3 185 280 182
3 281 280 285
3 285 280 284
3 282 283 188
3 283 187 188
3 283 286 187
3 282 188 183
3 191 287 284
3 191 284 185
3 285 284 288
3 288 284 287
3 286 289 187
3 187 289 192
3 193 192 289
3 193 289 290
3 196 291 197
3 287 191 197
3 291 287 197
3 292 287 291
3 288 287 293
3 293 287 292
3 295 199 294
3 199 290 294
3 199 193 290
3 296 295 294
3 205 297 291
3 205 291 196
3 291 298 292
3 291 297 298
3 293 292 299
3 299 292 298
3 300 207 295
3 295 207 199
3 295 296 301
3 295 301 300
3 213 302 297
3 213 297 205
3 304 298 303
3 298 302 303
3 298 297 302
3 298 304 299
3 306 214 305
3 214 207 305
3 305 207 300
3 307 305 300
3 214 308 215
3 308 300 215
3 301 215 300
3 215 301 309
3 307 309 301
3 309 307 308
3 308 306 309
3 214 306 308
3 308 307 300
3 309 217 215
3 220 310 221
3 302 213 221
3 310 302 221
3 311 302 310
3 303 302 312
3 312 302 311
3 306 305 313
3 313 305 314
3 313 223 224
3 309 313 224
3 306 313 309
3 309 224 217
3 228 315 310
3 228 310 220
3 310 316 311
3 310 315 316
3 312 311 317
3 317 311 316
3 313 314 318
3 318 314 319
3 318 230 223
3 318 223 313
3 234 320 315
3 234 315 228
3 322 316 321
3 316 320 321
3 316 315 320
3 316 322 317
3 318 319 323
3 323 319 324
3 323 236 230
3 323 230 318
3 239 325 240
3 320 234 240
3 325 320 240
3 326 320 325
3 321 320 327
3 327 320 326
3 323 324 328
3 328 324 329
3 330 241 236
3 323 330 236
3 328 330 323
3 331 242 241
3 331 241 330
3 332 243 242
3 332 242 331
3 325 239 243
3 332 325 243
3 333 325 332
3 335 326 334
3 326 333 334
3 326 325 333
3 326 335 327
3 329 336 328
3 328 336 330
3 330 336 337
3 330 337 331
3 331 337 338
3 331 338 332
3 332 338 339
3 332 339 333
3 333 339 340
3 333 340 334
3 343 342 341
3 341 344 343
3 341 342 345
3 345 342 346
3 344 341 347
3 341 348 347
3 341 345 348
3 348 349 347
3 352 351 350
3 352 350 346
3 350 345 346
3 350 353 345
3 345 354 348
3 345 353 354
3 349 348 355
3 355 348 354
3 350 351 356
3 356 351 357
3 350 358 353
3 350 356 358
3 353 359 354
3 353 358 359
3 355 354 360
3 360 354 359
3 356 357 361
3 361 357 362
3 356 363 358
3 356 361 363
3 358 364 359
3 358 363 364
3 360 359 365
3 365 359 364
3 368 367 366
3 370 369 366
3 366 369 368
3 372 371 370
3 370 371 369
3 372 373 371
3 361 362 374
3 374 362 375
3 361 376 363
3 361 374 376
3 363 377 364
3 363 376 377
3 365 364 378
3 378 364 377
3 380 379 246
3 246 379 245
3 247 366 367
3 380 247 367
3 246 247 380
3 366 247 248
3 366 248 370
3 370 248 249
3 370 249 372
3 382 381 251
3 251 381 249
3 381 373 249
3 373 372 249
3 382 383 381
3 375 384 374
3 386 385 384
3 385 374 384
3 385 376 374
3 376 387 377
3 376 385 387
3 378 377 388
3 388 377 387
3 389 253 254
3 390 389 254
3 245 390 254
3 379 390 245
3 255 382 251
3 255 257 382
3 257 383 382
3 257 391 383
3 386 392 385
3 385 392 387
3 387 392 393
3 387 393 388
3 395 394 389
3 394 253 389
3 394 258 253
3 395 389 390
3 396 391 257
3 396 257 259
3 259 261 396
3 396 261 397
3 394 262 258
3 398 262 394
3 263 400 399
3 397 263 399
3 261 263 397
3 402 401 400
3 400 401 399
3 402 403 401
3 405 404 265
3 265 404 264
3 265 262 398
3 265 398 405
3 266 400 263
3 402 400 406
3 400 268 406
3 268 407 406
3 268 400 266
3 402 406 403
3 404 269 264
3 408 269 404
3 271 409 270
3 409 410 270
3 410 268 270
3 410 407 268
3 408 272 269
3 411 272 408
3 273 412 409
3 273 409 271
3 410 409 413
3 413 409 412
3 411 274 272
3 414 274 411
3 276 415 412
3 276 412 273
3 413 412 416
3 416 412 415
3 418 417 279
3 279 417 278
3 279 274 414
3 279 414 418
3 281 419 415
3 281 415 276
3 416 415 420
3 420 415 419
3 417 283 278
3 421 283 417
3 285 422 419
3 285 419 281
3 420 419 423
3 423 419 422
3 425 286 424
3 286 421 424
3 286 283 421
3 426 425 424
3 288 427 422
3 288 422 285
3 423 422 428
3 428 422 427
3 425 289 286
3 290 289 425
3 426 290 425
3 429 290 426
3 293 430 427
3 293 427 288
3 428 427 431
3 431 427 430
3 429 432 290
3 290 432 294
3 296 294 432
3 296 432 433
3 299 434 430
3 299 430 293
3 431 430 435
3 435 430 434
3 438 437 436
3 433 438 436
3 301 433 436
3 296 433 301
3 303 439 304
3 434 299 304
3 439 434 304
3 440 434 439
3 435 434 441
3 441 434 440
3 436 437 307
3 437 305 307
3 437 442 305
3 436 307 301
3 312 443 439
3 312 439 303
3 445 440 444
3 440 443 444
3 440 439 443
3 440 445 441
3 442 314 305
3 446 314 442
3 448 447 443
3 312 448 443
3 317 448 312
3 443 447 444
3 446 319 314
3 449 319 446
3 321 450 322
3 450 451 322
3 451 317 322
3 451 448 317
3 454 453 452
3 449 454 452
3 324 449 452
3 319 449 324
3 456 455 450
3 321 456 450
3 327 456 321
3 450 455 451
3 452 453 457
3 457 453 458
3 457 329 324
3 457 324 452
3 334 459 335
3 459 460 335
3 460 327 335
3 460 456 327
3 457 458 461
3 461 458 462
3 463 336 329
3 457 463 329
3 461 463 457
3 464 337 336
3 464 336 463
3 465 338 337
3 465 337 464
3 466 339 338
3 466 338 465
3 467 340 339
3 467 339 466
3 467 468 340
3 340 468 334
3 468 469 334
3 469 459 334
3 459 469 460
3 462 470 461
3 461 470 463
3 463 470 471
3 463 471 464
3 464 471 472
3 464 472 465
3 465 472 473
3 465 473 466
3 466 473 474
3 466 474 467
3 467 474 475
3 467 475 468
3 478 477 476
3 480 479 476
3 476 479 478
3 480 481 479
3 476 477 482
3 482 477 483
3 485 480 484
3 480 482 484
3 480 476 482
3 480 485 481
3 482 483 486
3 486 483 487
3 484 482 488
3 488 482 486
3 487 489 486
3 486 489 488
3 492 491 490
3 490 493 492
3 496 495 494
3 496 494 491
3 494 490 491
3 494 497 490
3 493 490 498
3 490 499 498
3 490 497 499
3 499 500 498
3 494 495 501
3 501 495 502
3 501 342 343
3 497 501 343
3 494 501 497
3 497 343 344
3 503 497 344
3 499 497 503
3 500 499 504
3 504 499 503
3 501 502 505
3 505 502 506
3 505 346 342
3 505 342 501
3 347 503 344
3 347 349 503
3 349 504 503
3 349 507 504
3 505 506 352
3 506 351 352
3 506 508 351
3 505 352 346
3 355 507 349
3 355 509 507
3 512 511 510
3 510 513 512
3 508 357 351
3 514 357 508
3 360 516 515
3 509 360 515
3 355 360 509
3 516 517 515
3 510 511 518
3 518 511 519
3 513 510 520
3 520 510 518
3 514 362 357
3 521 362 514
3 365 522 516
3 365 516 360
3 517 516 523
3 523 516 522
3 525 524 368
3 368 524 367
3 369 518 519
3 525 369 519
3 368 369 525
3 526 520 518
3 369 526 518
3 371 526 369
3 371 373 526
3 526 373 527
3 530 529 528
3 521 530 528
3 375 521 528
3 362 521 375
3 378 531 522
3 378 522 365
3 523 522 532
3 532 522 531
3 534 533 380
3 380 533 379
3 380 367 524
3 380 524 534
3 535 527 373
3 535 373 381
3 381 383 535
3 535 383 536
3 528 529 537
3 537 529 538
3 539 384 375
3 528 539 375
3 537 539 528
3 539 386 384
3 388 540 531
3 388 531 378
3 532 531 541
3 541 531 540
3 533 390 379
3 542 390 533
3 391 544 543
3 536 391 543
3 383 391 536
3 544 545 543
3 537 538 546
3 546 538 547
3 537 548 539
3 537 546 548
3 549 392 386
3 539 549 386
3 548 549 539
3 392 549 550
3 551 392 550
3 393 392 551
3 388 393 540
3 393 552 540
3 393 551 552
3 540 552 541
3 554 553 395
3 395 553 394
3 395 390 542
3 395 542 554
3 396 544 391
3 556 555 397
3 397 555 396
3 555 545 396
3 545 544 396
3 558 557 556
3 556 557 555
3 560 559 558
3 558 559 557
3 559 560 547
3 560 546 547
3 560 561 546
3 563 548 562
3 548 561 562
3 548 546 561
3 548 563 549
3 549 563 564
3 549 564 550
3 553 398 394
3 565 398 553
3 399 556 397
3 556 399 401
3 556 401 558
3 558 401 403
3 566 558 403
3 560 558 566
3 560 567 561
3 560 566 567
3 562 561 568
3 568 561 567
3 569 404 405
3 570 569 405
3 398 570 405
3 565 570 398
3 407 571 406
3 566 403 406
3 571 566 406
3 572 566 571
3 574 567 573
3 567 572 573
3 567 566 572
3 567 574 568
3 575 408 569
3 569 408 404
3 569 570 576
3 569 576 575
3 410 577 571
3 410 571 407
3 579 572 578
3 572 577 578
3 572 571 577
3 572 579 573
3 581 580 575
3 580 408 575
3 580 411 408
3 581 575 576
3 413 582 577
3 413 577 410
3 578 577 583
3 583 577 582
3 580 414 411
3 584 414 580
3 416 585 582
3 416 582 413
3 583 582 586
3 586 582 585
3 587 417 418
3 588 587 418
3 414 588 418
3 584 588 414
3 420 589 585
3 420 585 416
3 586 585 590
3 590 585 589
3 592 591 587
3 591 417 587
3 591 421 417
3 592 587 588
3 423 593 589
3 423 589 420
3 590 589 594
3 594 589 593
3 591 595 421
3 421 595 424
3 426 424 595
3 426 595 596
3 598 597 593
3 423 598 593
3 428 598 423
3 593 597 594
3 600 429 599
3 429 596 599
3 429 426 596
3 601 600 599
3 431 598 428
3 431 602 598
3 600 432 429
3 433 432 600
3 601 433 600
3 603 433 601
3 435 602 431
3 435 604 602
3 606 605 438
3 438 605 437
3 438 433 603
3 438 603 606
3 441 608 607
3 604 441 607
3 435 441 604
3 608 609 607
3 605 442 437
3 610 442 605
3 444 611 445
3 611 612 445
3 445 612 441
3 612 613 441
3 613 608 441
3 608 613 609
3 610 446 442
3 614 446 610
3 616 615 447
3 616 447 448
3 444 447 611
3 447 617 611
3 447 615 617
3 611 617 612
3 614 449 446
3 618 449 614
3 451 616 448
3 451 619 616
3 621 620 454
3 454 620 453
3 454 449 618
3 454 618 621
3 623 622 455
3 623 455 456
3 451 455 619
3 619 455 622
3 626 625 624
3 620 626 624
3 458 620 624
3 453 620 458
3 460 623 456
3 460 627 623
3 624 625 628
3 628 625 629
3 628 462 458
3 628 458 624
3 631 630 469
3 631 469 468
3 460 469 627
3 627 469 630
3 628 629 632
3 632 629 633
3 634 470 462
3 628 634 462
3 632 634 628
3 635 471 470
3 635 470 634
3 636 472 471
3 636 471 635
3 637 473 472
3 637 472 636
3 638 474 473
3 638 473 637
3 474 638 639
3 640 474 639
3 475 474 640
3 468 475 631
3 631 475 640
3 632 633 641
3 641 633 642
3 644 634 643
3 634 641 643
3 634 632 641
3 634 644 635
3 635 644 645
3 635 645 636
3 636 645 646
3 648 647 646
3 647 636 646
3 647 637 636
3 650 638 649
3 638 647 649
3 638 637 647
3 638 650 639
3 642 651 641
3 641 651 643
3 648 652 647
3 647 652 649
3 655 654 653
3 653 656 655
3 659 658 657
3 659 657 654
3 657 653 654
3 657 660 653
3 656 653 661
3 661 653 660
3 657 658 478
3 658 477 478
3 658 662 477
3 657 478 479
3 657 479 660
3 479 481 660
3 481 661 660
3 481 663 661
3 662 483 477
3 664 483 662
3 484 665 485
3 663 481 666
3 481 665 666
3 665 667 666
3 481 485 665
3 667 668 666
3 670 487 669
3 487 664 669
3 487 483 664
3 488 671 484
3 671 670 484
3 669 484 670
3 484 669 665
3 672 665 669
3 665 672 671
3 671 673 665
3 488 673 671
3 671 672 670
3 675 667 674
3 667 673 674
3 667 665 673
3 667 675 668
3 670 489 487
3 670 672 489
3 672 676 489
3 673 488 489
3 673 489 676
3 673 676 674
3 678 677 492
3 492 677 491
3 680 679 493
3 679 492 493
3 679 678 492
3 680 681 679
3 683 682 496
3 496 682 495
3 496 491 677
3 496 677 683
3 498 680 493
3 498 500 680
3 500 681 680
3 500 684 681
3 682 502 495
3 685 502 682
3 504 684 500
3 504 686 684
3 685 506 502
3 687 506 685
3 507 686 504
3 507 688 686
3 687 508 506
3 689 508 687
3 509 691 690
3 688 509 690
3 507 509 688
3 691 692 690
3 693 511 512
3 513 693 512
3 689 514 508
3 694 514 689
3 515 691 509
3 515 517 691
3 517 692 691
3 517 695 692
3 696 519 693
3 693 519 511
3 520 696 513
3 513 696 693
3 699 698 697
3 694 699 697
3 521 694 697
3 514 694 521
3 523 701 700
3 695 523 700
3 517 523 695
3 702 524 525
3 703 702 525
3 703 525 519
3 704 703 519
3 696 704 519
3 704 696 520
3 526 704 520
3 705 704 526
3 526 527 705
3 705 527 706
3 697 698 530
3 698 529 530
3 698 707 529
3 697 530 521
3 709 708 701
3 523 709 701
3 532 709 523
3 710 533 534
3 711 710 534
3 711 534 524
3 712 711 524
3 702 712 524
3 712 702 703
3 713 706 527
3 713 527 535
3 535 536 713
3 713 536 714
3 717 716 715
3 707 717 715
3 538 707 715
3 529 707 538
3 720 719 718
3 719 709 718
3 709 541 718
3 709 532 541
3 722 721 710
3 721 533 710
3 721 542 533
3 722 710 711
3 536 543 723
3 724 536 723
3 714 536 724
3 545 723 543
3 715 716 725
3 725 716 726
3 725 547 538
3 725 538 715
3 729 728 727
3 551 550 727
3 728 551 727
3 730 551 728
3 718 552 720
3 552 730 720
3 552 551 730
3 552 718 541
3 732 731 554
3 554 731 553
3 554 542 721
3 554 721 732
3 733 724 723
3 733 723 545
3 555 733 545
3 734 733 555
3 735 555 557
3 735 734 555
3 559 725 726
3 735 559 726
3 557 559 735
3 725 559 547
3 562 736 563
3 737 729 727
3 563 737 727
3 564 563 727
3 737 563 736
3 564 727 550
3 731 565 553
3 738 565 731
3 740 739 736
3 562 740 736
3 568 740 562
3 736 739 737
3 738 570 565
3 741 570 738
3 573 742 574
3 742 743 574
3 743 568 574
3 743 740 568
3 741 576 570
3 744 576 741
3 578 745 579
3 745 746 579
3 579 746 573
3 746 747 573
3 747 742 573
3 742 747 743
3 749 748 581
3 581 748 580
3 581 576 744
3 581 744 749
3 751 750 745
3 578 751 745
3 583 751 578
3 745 750 746
3 748 584 580
3 752 584 748
3 586 751 583
3 586 753 751
3 752 588 584
3 754 588 752
3 590 753 586
3 590 755 753
3 757 756 592
3 592 756 591
3 592 588 754
3 592 754 757
3 594 755 590
3 594 758 755
3 756 759 591
3 591 759 595
3 761 760 596
3 595 761 596
3 759 761 595
3 762 760 761
3 598 763 597
3 763 764 597
3 764 594 597
3 764 758 594
3 760 599 596
3 601 599 760
3 762 601 760
3 765 601 762
3 602 766 763
3 602 763 598
3 764 763 767
3 767 763 766
3 765 603 601
3 768 603 765
3 604 769 766
3 604 766 602
3 767 766 770
3 770 766 769
3 771 605 606
3 772 771 606
3 603 772 606
3 768 772 603
3 769 604 607
3 775 774 773
3 774 775 609
3 775 770 609
3 769 607 609
3 769 609 770
3 777 776 771
3 776 605 771
3 776 610 605
3 777 771 772
3 780 779 778
3 778 779 773
3 778 773 774
3 612 778 774
3 613 612 774
3 613 774 609
3 776 614 610
3 781 614 776
3 783 782 615
3 783 615 616
3 778 617 780
3 617 782 780
3 617 615 782
3 617 778 612
3 786 785 784
3 781 786 784
3 618 781 784
3 614 781 618
3 789 788 787
3 788 783 787
3 783 619 787
3 783 616 619
3 784 785 621
3 785 620 621
3 785 790 620
3 784 621 618
3 789 787 622
3 623 789 622
3 791 789 623
3 622 787 619
3 793 792 626
3 626 792 625
3 626 620 790
3 626 790 793
3 796 795 794
3 795 791 794
3 791 627 794
3 791 623 627
3 792 629 625
3 797 629 792
3 800 799 798
3 798 799 796
3 798 796 794
3 631 798 794
3 630 631 794
3 630 794 627
3 797 633 629
3 801 633 797
3 800 798 640
3 639 800 640
3 802 800 639
3 640 798 631
3 801 642 633
3 803 642 801
3 643 804 644
3 644 804 805
3 806 644 805
3 645 644 806
3 806 808 807
3 646 806 807
3 645 806 646
3 807 648 646
3 810 809 650
3 810 650 649
3 639 650 802
3 802 650 809
3 651 642 811
3 642 812 811
3 642 803 812
3 811 813 651
3 651 813 643
3 813 814 643
3 814 804 643
3 804 814 805
3 808 815 807
3 807 815 648
3 815 652 648
3 815 816 652
3 649 652 810
3 810 652 816
3 811 812 817
3 817 812 818
3 813 811 819
3 819 811 817
3 822 821 820
3 822 820 818
3 818 820 817
3 820 654 817
3 654 655 817
3 655 656 817
3 656 819 817
3 656 823 819
3 820 821 659
3 821 658 659
3 821 824 658
3 820 659 654
3 661 826 825
3 823 661 825
3 656 661 823
3 826 827 825
3 824 662 658
3 828 662 824
3 663 829 826
3 663 826 661
3 827 826 830
3 826 831 830
3 826 829 831
3 831 832 830
3 828 664 662
3 833 664 828
3 666 829 663
3 829 666 668
3 834 829 668
3 831 829 834
3 832 831 835
3 835 831 834
3 833 836 664
3 664 836 669
3 672 669 836
3 672 836 837
3 674 838 675
3 834 668 675
3 838 834 675
3 839 834 838
3 835 834 840
3 840 834 839
3 837 841 672
3 672 841 676
3 676 841 674
3 841 842 674
3 842 838 674
3 842 841 843
3 845 839 844
3 839 842 844
3 839 838 842
3 839 845 840
3 842 843 846
3 846 843 847
3 844 842 848
3 848 842 846
3 850 849 678
3 678 849 677
3 851 678 679
3 851 850 678
3 679 681 851
3 851 681 852
3 854 853 683
3 683 853 682
3 683 677 849
3 683 849 854
3 684 852 681
3 684 855 852
3 853 685 682
3 856 685 853
3 686 855 684
3 686 857 855
3 856 687 685
3 858 687 856
3 688 857 686
3 688 859 857
3 858 689 687
3 860 689 858
3 861 859 688
3 861 688 690
3 690 692 861
3 861 692 862
3 860 694 689
3 863 694 860
3 695 862 692
3 695 864 862
3 866 865 699
3 699 865 698
3 699 694 863
3 699 863 866
3 695 700 867
3 868 695 867
3 864 695 868
3 869 703 704
3 869 704 870
3 704 871 870
3 704 705 871
3 705 706 871
3 871 706 872
3 865 707 698
3 873 707 865
3 868 867 708
3 709 868 708
3 874 868 709
3 875 711 712
3 876 875 712
3 876 712 703
3 877 876 703
3 869 877 703
3 877 869 870
3 706 713 878
3 879 706 878
3 872 706 879
3 714 878 713
3 880 716 717
3 881 880 717
3 707 881 717
3 873 881 707
3 884 883 882
3 886 885 882
3 886 882 883
3 719 720 885
3 886 719 885
3 887 719 886
3 709 719 874
3 874 719 887
3 888 721 722
3 711 875 722
3 875 888 722
3 875 889 888
3 875 876 890
3 875 890 889
3 891 879 878
3 878 714 891
3 714 892 891
3 714 724 892
3 894 893 880
3 893 716 880
3 893 726 716
3 894 880 881
3 884 882 728
3 729 884 728
3 895 884 729
3 728 882 730
3 730 882 885
3 730 885 720
3 896 731 732
3 721 888 732
3 888 896 732
3 888 897 896
3 898 888 889
3 897 888 898
3 889 890 899
3 889 899 898
3 724 733 900
3 901 724 900
3 892 724 901
3 734 902 733
3 733 902 900
3 902 734 903
3 734 904 903
3 734 735 904
3 735 726 893
3 735 893 904
3 907 906 905
3 906 895 905
3 895 737 905
3 895 729 737
3 908 738 896
3 896 738 731
3 897 910 909
3 908 897 909
3 896 897 908
3 910 897 898
3 910 898 911
3 911 898 899
3 914 913 912
3 901 900 915
3 913 916 912
3 915 900 902
3 915 902 917
3 917 902 903
3 907 905 739
3 740 907 739
3 918 907 740
3 739 905 737
3 919 741 908
3 908 741 738
3 908 909 920
3 908 920 919
3 921 914 912
3 921 912 916
3 924 923 922
3 923 918 922
3 918 743 922
3 918 740 743
3 925 744 919
3 919 744 741
3 919 920 926
3 919 926 925
3 929 928 927
3 927 928 924
3 927 924 922
3 746 927 922
3 747 746 922
3 747 922 743
3 930 748 749
3 744 925 749
3 925 930 749
3 925 931 930
3 925 926 932
3 925 932 931
3 929 927 750
3 751 929 750
3 933 929 751
3 750 927 746
3 934 752 930
3 930 752 748
3 935 930 931
3 934 930 935
3 931 932 936
3 931 936 935
3 753 933 751
3 753 937 933
3 938 754 934
3 934 754 752
3 935 940 939
3 938 935 939
3 934 935 938
3 940 935 936
3 755 937 753
3 755 941 937
3 942 756 757
3 754 938 757
3 938 942 757
3 938 943 942
3 938 939 944
3 938 944 943
3 947 946 945
3 946 941 945
3 941 758 945
3 941 755 758
3 942 759 756
3 759 942 761
3 761 942 943
3 762 761 943
3 944 762 943
3 948 762 944
3 947 945 949
3 947 949 950
3 764 949 758
3 758 949 945
3 952 765 951
3 765 948 951
3 765 762 948
3 953 952 951
3 950 949 954
3 950 954 955
3 767 954 764
3 764 954 949
3 957 956 952
3 956 765 952
3 956 768 765
3 957 952 953
3 958 955 954
3 954 767 958
3 767 959 958
3 767 770 959
3 956 772 768
3 960 772 956
3 963 962 961
3 775 773 961
3 962 775 961
3 964 775 962
3 770 775 959
3 959 775 964
3 965 776 777
3 966 965 777
3 772 966 777
3 960 966 772
3 969 968 967
3 967 968 963
3 967 963 961
3 780 967 961
3 779 780 961
3 779 961 773
3 971 970 965
3 970 776 965
3 970 781 776
3 971 965 966
3 974 973 972
3 972 973 969
3 972 969 967
3 783 972 967
3 782 783 967
3 782 967 780
3 976 975 786
3 786 975 785
3 786 781 970
3 786 970 976
3 974 972 788
3 789 974 788
3 977 974 789
3 788 972 783
3 975 790 785
3 978 790 975
3 981 980 979
3 980 977 979
3 977 791 979
3 977 789 791
3 983 982 793
3 793 982 792
3 793 790 978
3 793 978 983
3 981 979 795
3 796 981 795
3 984 981 796
3 795 979 791
3 982 797 792
3 985 797 982
3 987 986 799
3 987 799 800
3 796 799 984
3 984 799 986
3 985 801 797
3 988 801 985
3 991 990 989
3 993 992 989
3 993 989 990
3 995 994 992
3 995 992 993
3 996 994 995
3 999 998 997
3 998 987 997
3 987 802 997
3 987 800 802
3 988 803 801
3 1000 803 988
3 991 989 1001
3 991 1001 1002
3 805 1001 806
3 1001 992 806
3 1001 989 992
3 806 992 808
3 992 1003 808
3 992 994 1003
3 994 996 1004
3 994 1004 1003
3 999 997 809
3 810 999 809
3 1005 999 810
3 809 997 802
3 1007 812 1006
3 812 1000 1006
3 812 803 1000
3 1007 1006 1002
3 1007 1002 1001
3 813 1007 1001
3 814 813 1001
3 814 1001 805
3 1003 815 808
3 1004 1008 1003
3 1008 815 1003
3 1008 816 815
3 810 816 1005
3 1005 816 1008
3 1010 1009 1007
3 1009 812 1007
3 1009 818 812
3 1007 813 1010
3 813 1011 1010
3 813 819 1011
3 1013 1012 822
3 822 1012 821
3 822 818 1009
3 822 1009 1013
3 823 1011 819
3 823 1014 1011
3 1012 824 821
3 1015 824 1012
3 823 825 1016
3 1017 823 1016
3 1014 823 1017
3 827 1016 825
3 1015 828 824
3 1018 828 1015
3 1017 1016 1019
3 1017 1019 1020
3 1019 1016 827
3 1021 1019 827
3 830 1021 827
3 1022 1019 1021
3 830 832 1021
3 1021 832 1023
3 1025 833 1024
3 833 1018 1024
3 833 828 1018
3 1027 1026 1025
3 1027 1025 1024
3 1026 1027 1020
3 1019 1026 1020
3 1028 1026 1019
3 1019 1022 1029
3 1019 1029 1028
3 835 1023 832
3 835 1030 1023
3 1025 836 833
3 836 1025 837
3 1025 1031 837
3 1025 1026 1031
3 1028 1033 1032
3 1031 1028 1032
3 1026 1028 1031
3 1033 1028 1029
3 840 1030 835
3 840 1034 1030
3 1031 841 837
3 843 841 1031
3 1032 843 1031
3 1035 843 1032
3 1037 1036 845
3 1037 845 844
3 840 845 1034
3 1034 845 1036
3 1039 847 1038
3 847 1035 1038
3 847 843 1035
3 1038 1037 1039
3 1037 848 1039
3 1037 844 848
3 1041 1040 850
3 850 1040 849
3 1042 850 851
3 1042 1041 850
3 851 852 1042
3 1042 852 1043
3 1044 853 854
3 1045 1044 854
3 849 1045 854
3 1040 1045 849
3 855 1043 852
3 855 1046 1043
3 1048 1047 1044
3 1047 853 1044
3 1047 856 853
3 1048 1044 1045
3 857 1046 855
3 857 1049 1046
3 1047 858 856
3 1050 858 1047
3 859 1049 857
3 859 1051 1049
3 1050 860 858
3 1052 860 1050
3 1053 1051 859
3 1053 859 861
3 861 862 1053
3 1053 862 1054
3 1052 863 860
3 1055 863 1052
3 864 1054 862
3 864 1056 1054
3 1057 865 866
3 1058 1057 866
3 863 1058 866
3 1055 1058 863
3 868 1056 864
3 868 1059 1056
3 1060 870 871
3 872 1060 871
3 1061 873 1057
3 1057 873 865
3 1057 1058 1062
3 1057 1062 1061
3 1065 1064 1063
3 1067 1066 1063
3 1067 1063 1064
3 1069 1068 1066
3 1069 1066 1067
3 1069 1059 1068
3 1059 874 1068
3 1059 868 874
3 1070 876 877
3 870 1060 877
3 1060 1070 877
3 1060 1071 1070
3 879 1071 872
3 872 1071 1060
3 1073 1072 1061
3 1072 873 1061
3 1072 881 873
3 1076 1075 1074
3 1062 1073 1061
3 1075 1076 1065
3 1075 1065 1063
3 884 1075 1063
3 883 884 1063
3 883 1063 886
3 886 1063 1066
3 886 1066 887
3 887 1066 1068
3 887 1068 874
3 1077 890 1070
3 1070 890 876
3 1078 1070 1071
3 1077 1070 1078
3 891 1079 879
3 1079 1071 879
3 1079 1078 1071
3 892 1079 891
3 1080 893 894
3 1081 1080 894
3 881 1081 894
3 1072 1081 881
3 1074 1075 1082
3 1074 1082 1083
3 895 1082 884
3 884 1082 1075
3 1084 899 1077
3 1077 899 890
3 1085 1077 1078
3 1084 1077 1085
3 1086 1078 1079
3 1085 1078 1086
3 901 1086 892
3 892 1086 1079
3 1087 903 904
3 893 1080 904
3 1080 1087 904
3 1080 1088 1087
3 1080 1081 1089
3 1080 1089 1088
3 1083 1082 906
3 907 1083 906
3 1090 1083 907
3 906 1082 895
3 1091 909 910
3 911 1092 910
3 910 1092 1091
3 899 1084 911
3 1084 1092 911
3 1084 1093 1092
3 1094 1084 1085
3 1093 1084 1094
3 914 1094 913
3 1094 1086 913
3 1094 1085 1086
3 916 913 1095
3 913 1086 1095
3 901 915 1095
3 901 1095 1086
3 917 1096 915
3 915 1096 1095
3 903 1087 917
3 1087 1096 917
3 1087 1097 1096
3 1098 1087 1088
3 1097 1087 1098
3 1088 1089 1099
3 1100 1088 1099
3 1098 1088 1100
3 1099 1090 1100
3 1090 918 1100
3 1090 907 918
3 1101 920 1091
3 1091 920 909
3 1102 1091 1092
3 1101 1091 1102
3 1103 1092 1093
3 1102 1092 1103
3 1104 1093 1094
3 1103 1093 1104
3 921 1105 914
3 1105 1094 914
3 1105 1104 1094
3 916 1095 921
3 1095 1105 921
3 1095 1106 1105
3 1107 1095 1096
3 1106 1095 1107
3 1108 1096 1097
3 1107 1096 1108
3 1109 1097 1098
3 1108 1097 1109
3 924 1109 923
3 1109 1100 923
3 1109 1098 1100
3 923 1100 918
3 1110 926 1101
3 1101 926 920
3 1111 1101 1102
3 1110 1101 1111
3 1112 1102 1103
3 1111 1102 1112
3 1113 1103 1104
3 1112 1103 1113
3 1114 1104 1105
3 1113 1104 1114
3 1106 1116 1115
3 1114 1106 1115
3 1105 1106 1114
3 1116 1106 1107
3 1116 1107 1117
3 1119 1118 1117
3 1107 1119 1117
3 1108 1119 1107
3 929 1119 928
3 1119 1109 928
3 1119 1108 1109
3 928 1109 924
3 1120 932 1110
3 1110 932 926
3 1121 1110 1111
3 1120 1110 1121
3 1112 1123 1122
3 1121 1112 1122
3 1111 1112 1121
3 1123 1112 1113
3 1123 1113 1124
3 1124 1113 1114
3 1124 1114 1125
3 1125 1114 1115
3 1118 1119 1126
3 1118 1126 1127
3 933 1126 929
3 929 1126 1119
3 1128 936 1120
3 1120 936 932
3 1121 1130 1129
3 1128 1121 1129
3 1120 1121 1128
3 1130 1121 1122
3 1127 1126 1131
3 1127 1131 1132
3 937 1131 933
3 933 1131 1126
3 1133 939 940
3 936 1128 940
3 1128 1133 940
3 1128 1134 1133
3 1128 1129 1135
3 1128 1135 1134
3 1132 1131 1136
3 1132 1136 1137
3 941 1136 937
3 937 1136 1131
3 1138 944 1133
3 1133 944 939
3 1134 1140 1139
3 1138 1134 1139
3 1133 1134 1138
3 1140 1134 1135
3 1137 1136 946
3 947 1137 946
3 1141 1137 947
3 946 1136 941
3 1142 948 1138
3 1138 948 944
3 1138 1139 1143
3 1138 1143 1142
3 950 1141 947
3 950 1144 1141
3 1142 951 948
3 953 951 1142
3 1143 953 1142
3 1145 953 1143
3 955 1144 950
3 955 1146 1144
3 1147 956 957
3 1148 1147 957
3 953 1148 957
3 1145 1148 953
3 1151 1150 1149
3 1152 1149 958
3 1149 1146 958
3 1146 955 958
3 1146 1149 1150
3 959 1152 958
3 1154 1153 1147
3 1153 956 1147
3 1153 960 956
3 1154 1147 1148
3 1157 1156 1155
3 1155 1156 1151
3 1155 1151 1149
3 963 1155 1149
3 962 963 1149
3 962 1149 964
3 964 1149 1152
3 964 1152 959
3 1153 966 960
3 1158 966 1153
3 1161 1160 1159
3 1159 1160 1157
3 1159 1157 1155
3 969 1159 1155
3 968 969 1155
3 968 1155 963
3 1162 970 971
3 1163 1162 971
3 966 1163 971
3 1158 1163 966
3 1161 1159 973
3 974 1161 973
3 1164 1161 974
3 973 1159 969
3 1165 975 976
3 1166 1165 976
3 1166 976 970
3 1167 1166 970
3 1162 1167 970
3 1167 1162 1163
3 1170 1169 1168
3 1169 1164 1168
3 1164 977 1168
3 1164 974 977
3 1172 1171 1165
3 1171 975 1165
3 1171 978 975
3 1172 1165 1166
3 1170 1168 980
3 981 1170 980
3 1173 1170 981
3 980 1168 977
3 1175 1174 983
3 983 1174 982
3 983 978 1171
3 983 1171 1175
3 1178 1177 1176
3 1180 1179 1176
3 1180 1176 1177
3 1181 1179 1180
3 1184 1183 1182
3 1183 1173 1182
3 1173 984 1182
3 1173 981 984
3 1174 985 982
3 1185 985 1174
3 1188 1187 1186
3 1186 1187 1178
3 1176 1186 1178
3 1189 1186 1176
3 1190 1176 1179
3 1189 1176 1190
3 1179 1181 1191
3 1179 1191 1190
3 1194 1193 1192
3 1192 1193 1184
3 1192 1184 1182
3 987 1192 1182
3 986 987 1182
3 986 1182 984
3 1196 988 1195
3 988 1185 1195
3 988 985 1185
3 1196 1195 1188
3 1196 1188 1186
3 991 1196 1186
3 990 991 1186
3 990 1186 993
3 993 1186 1189
3 993 1189 995
3 995 1189 1190
3 1198 1197 996
3 1198 996 995
3 1191 1198 995
3 1190 1191 995
3 1197 1198 1194
3 1197 1194 1192
3 999 1197 1192
3 998 999 1192
3 998 1192 987
3 1199 1000 1196
3 1196 1000 988
3 1002 1199 991
3 991 1199 1196
3 1200 1004 1197
3 1197 1004 996
3 1005 1200 999
3 999 1200 1197
3 1199 1006 1000
3 1006 1199 1002
3 1200 1008 1004
3 1008 1200 1005
3 1201 1009 1010
3 1011 1201 1010
3 1202 1012 1013
3 1009 1201 1013
3 1201 1202 1013
3 1201 1203 1202
3 1014 1203 1011
3 1011 1203 1201
3 1204 1015 1202
3 1202 1015 1012
3 1205 1202 1203
3 1204 1202 1205
3 1017 1205 1014
3 1014 1205 1203
3 1206 1018 1204
3 1204 1018 1015
3 1207 1204 1205
3 1206 1204 1207
3 1020 1207 1017
3 1017 1207 1205
3 1208 1022 1021
3 1023 1208 1021
3 1206 1024 1018
3 1024 1206 1027
3 1027 1206 1207
3 1027 1207 1020
3 1209 1029 1208
3 1208 1029 1022
3 1030 1209 1023
3 1023 1209 1208
3 1210 1032 1033
3 1029 1209 1033
3 1209 1210 1033
3 1209 1211 1210
3 1034 1211 1030
3 1030 1211 1209
3 1212 1035 1210
3 1210 1035 1032
3 1037 1212 1036
3 1212 1211 1036
3 1212 1210 1211
3 1036 1211 1034
3 1212 1038 1035
3 1038 1212 1037
3 1213 1040 1041
3 1042 1214 1041
3 1041 1214 1213
3 1043 1214 1042
3 1215 1045 1213
3 1213 1045 1040
3 1216 1213 1214
3 1215 1213 1216
3 1046 1216 1043
3 1043 1216 1214
3 1217 1047 1048
3 1218 1217 1048
3 1218 1048 1045
3 1219 1218 1045
3 1215 1219 1045
3 1221 1220 1219
3 1215 1221 1219
3 1216 1221 1215
3 1049 1221 1046
3 1046 1221 1216
3 1222 1050 1217
3 1217 1050 1047
3 1217 1218 1223
3 1217 1223 1222
3 1220 1221 1224
3 1220 1224 1225
3 1051 1224 1049
3 1049 1224 1221
3 1226 1052 1222
3 1222 1052 1050
3 1222 1223 1227
3 1222 1227 1226
3 1225 1224 1228
3 1225 1228 1229
3 1053 1230 1051
3 1230 1224 1051
3 1230 1228 1224
3 1054 1230 1053
3 1231 1055 1226
3 1226 1055 1052
3 1226 1227 1232
3 1233 1226 1232
3 1231 1226 1233
3 1233 1232 1229
3 1228 1233 1229
3 1234 1233 1228
3 1235 1228 1230
3 1234 1228 1235
3 1056 1235 1054
3 1054 1235 1230
3 1236 1058 1231
3 1231 1058 1055
3 1237 1231 1233
3 1236 1231 1237
3 1238 1233 1234
3 1237 1233 1238
3 1239 1234 1235
3 1238 1234 1239
3 1059 1239 1056
3 1056 1239 1235
3 1240 1062 1236
3 1236 1062 1058
3 1065 1240 1064
3 1240 1237 1064
3 1240 1236 1237
3 1064 1237 1067
3 1067 1237 1238
3 1067 1238 1069
3 1069 1238 1239
3 1069 1239 1059
3 1241 1072 1073
3 1073 1062 1241
3 1062 1240 1241
3 1076 1074 1241
3 1076 1241 1240
3 1076 1240 1065
3 1242 1081 1241
3 1241 1081 1072
3 1083 1242 1074
3 1074 1242 1241
3 1243 1089 1242
3 1242 1089 1081
3 1090 1243 1083
3 1083 1243 1242
3 1243 1099 1089
3 1099 1243 1090
3 1244 1115 1116
3 1117 1245 1116
3 1116 1245 1244
3 1118 1245 1117
3 1246 1122 1123
3 1124 1247 1123
3 1123 1247 1246
3 1125 1248 1124
3 1124 1248 1247
3 1115 1244 1125
3 1244 1248 1125
3 1244 1249 1248
3 1250 1244 1245
3 1249 1244 1250
3 1127 1250 1118
3 1118 1250 1245
3 1251 1129 1130
3 1122 1246 1130
3 1246 1251 1130
3 1246 1252 1251
3 1247 1254 1253
3 1252 1247 1253
3 1246 1247 1252
3 1254 1247 1248
3 1254 1248 1255
3 1255 1248 1249
3 1255 1249 1256
3 1258 1257 1256
3 1249 1258 1256
3 1250 1258 1249
3 1132 1258 1127
3 1127 1258 1250
3 1259 1135 1251
3 1251 1135 1129
3 1252 1261 1260
3 1259 1252 1260
3 1251 1252 1259
3 1261 1252 1253
3 1257 1258 1262
3 1257 1262 1263
3 1137 1262 1132
3 1132 1262 1258
3 1264 1139 1140
3 1265 1264 1140
3 1265 1140 1135
3 1266 1265 1135
3 1259 1266 1135
3 1266 1259 1260
3 1263 1262 1267
3 1263 1267 1268
3 1141 1267 1137
3 1137 1267 1262
3 1269 1143 1264
3 1264 1143 1139
3 1264 1265 1270
3 1264 1270 1269
3 1268 1267 1271
3 1268 1271 1272
3 1144 1271 1141
3 1141 1271 1267
3 1274 1273 1269
3 1273 1143 1269
3 1273 1145 1143
3 1274 1269 1270
3 1277 1276 1275
3 1275 1276 1272
3 1271 1275 1272
3 1278 1275 1271
3 1146 1278 1144
3 1144 1278 1271
3 1273 1148 1145
3 1279 1148 1273
3 1277 1275 1280
3 1277 1280 1281
3 1151 1280 1150
3 1280 1278 1150
3 1280 1275 1278
3 1150 1278 1146
3 1282 1153 1154
3 1283 1282 1154
3 1148 1283 1154
3 1279 1283 1148
3 1286 1285 1284
3 1284 1285 1281
3 1284 1281 1280
3 1157 1284 1280
3 1156 1157 1280
3 1156 1280 1151
3 1287 1158 1282
3 1282 1158 1153
3 1282 1283 1288
3 1282 1288 1287
3 1286 1284 1160
3 1161 1286 1160
3 1289 1286 1161
3 1160 1284 1157
3 1290 1163 1287
3 1287 1163 1158
3 1287 1288 1291
3 1287 1291 1290
3 1294 1293 1292
3 1293 1289 1292
3 1289 1164 1292
3 1289 1161 1164
3 1295 1166 1167
3 1163 1290 1167
3 1290 1295 1167
3 1290 1296 1295
3 1290 1291 1297
3 1298 1290 1297
3 1296 1290 1298
3 1300 1299 1298
3 1300 1298 1297
3 1302 1301 1299
3 1302 1299 1300
3 1301 1302 1294
3 1301 1294 1292
3 1170 1301 1292
3 1169 1170 1292
3 1169 1292 1164
3 1303 1171 1172
3 1166 1295 1172
3 1295 1303 1172
3 1295 1304 1303
3 1305 1295 1296
3 1304 1295 1305
3 1306 1296 1298
3 1305 1296 1306
3 1307 1298 1299
3 1306 1298 1307
3 1308 1299 1301
3 1307 1299 1308
3 1173 1308 1170
3 1170 1308 1301
3 1309 1174 1175
3 1171 1303 1175
3 1303 1309 1175
3 1303 1310 1309
3 1178 1310 1177
3 1310 1304 1177
3 1310 1303 1304
3 1177 1304 1180
3 1180 1304 1305
3 1180 1305 1181
3 1305 1311 1181
3 1305 1306 1311
3 1312 1306 1307
3 1311 1306 1312
3 1184 1312 1183
3 1312 1308 1183
3 1312 1307 1308
3 1183 1308 1173
3 1313 1185 1309
3 1309 1185 1174
3 1188 1313 1187
3 1313 1310 1187
3 1313 1309 1310
3 1187 1310 1178
3 1314 1191 1311
3 1311 1191 1181
3 1194 1314 1193
3 1314 1312 1193
3 1314 1311 1312
3 1193 1312 1184
3 1313 1195 1185
3 1195 1313 1188
3 1314 1198 1191
3 1198 1314 1194
3 1315 1218 1219
3 1220 1315 1219
3 1316 1223 1315
3 1315 1223 1218
3 1225 1316 1220
3 1220 1316 1315
3 1317 1227 1316
3 1316 1227 1223
3 1229 1317 1225
3 1225 1317 1316
3 1317 1232 1227
3 1232 1317 1229
3 1318 1253 1254
3 1255 1319 1254
3 1254 1319 1318
3 1256 1320 1255
3 1255 1320 1319
3 1257 1320 1256
3 1321 1260 1261
3 1253 1318 1261
3 1318 1321 1261
3 1318 1322 1321
3 1323 1318 1319
3 1322 1318 1323
3 1324 1319 1320
3 1323 1319 1324
3 1263 1324 1257
3 1257 1324 1320
3 1325 1265 1266
3 1260 1321 1266
3 1321 1325 1266
3 1321 1326 1325
3 1322 1328 1327
3 1326 1322 1327
3 1321 1322 1326
3 1330 1329 1328
3 1322 1330 1328
3 1323 1330 1322
3 1331 1323 1324
3 1330 1323 1331
3 1268 1331 1263
3 1263 1331 1324
3 1332 1270 1325
3 1325 1270 1265
3 1326 1334 1333
3 1332 1326 1333
3 1325 1326 1332
3 1334 1326 1327
3 1329 1330 1335
3 1329 1335 1336
3 1337 1330 1331
3 1335 1330 1337
3 1272 1337 1268
3 1268 1337 1331
3 1338 1273 1274
3 1270 1332 1274
3 1332 1338 1274
3 1332 1339 1338
3 1332 1333 1340
3 1341 1332 1340
3 1339 1332 1341
3 1343 1342 1341
3 1343 1341 1340
3 1342 1343 1336
3 1335 1342 1336
3 1344 1342 1335
3 1277 1344 1276
3 1344 1337 1276
3 1344 1335 1337
3 1276 1337 1272
3 1345 1279 1338
3 1338 1279 1273
3 1346 1338 1339
3 1345 1338 1346
3 1347 1339 1341
3 1346 1339 1347
3 1348 1341 1342
3 1347 1341 1348
3 1349 1342 1344
3 1348 1342 1349
3 1281 1349 1277
3 1277 1349 1344
3 1350 1283 1345
3 1345 1283 1279
3 1351 1345 1346
3 1350 1345 1351
3 1352 1346 1347
3 1351 1346 1352
3 1353 1347 1348
3 1352 1347 1353
3 1286 1353 1285
3 1353 1349 1285
3 1353 1348 1349
3 1285 1349 1281
3 1354 1288 1350
3 1350 1288 1283
3 1355 1350 1351
3 1354 1350 1355
3 1356 1351 1352
3 1355 1351 1356
3 1357 1352 1353
3 1356 1352 1357
3 1289 1357 1286
3 1286 1357 1353
3 1358 1291 1354
3 1354 1291 1288
3 1359 1354 1355
3 1358 1354 1359
3 1360 1355 1356
3 1359 1355 1360
3 1294 1360 1293
3 1360 1357 1293
3 1360 1356 1357
3 1293 1357 1289
3 1358 1297 1291
3 1297 1358 1300
3 1300 1358 1359
3 1300 1359 1302
3 1302 1359 1360
3 1302 1360 1294