OFF
751 1454 0
1.7932751779 5.5582890563 9.4423817803
1.7703841730 5.5602064927 9.2941400973
1.9342196225 5.4712427370 9.3813864124
2.1186801162 5.5910576262 9.7079460725
1.8134211676 6.2917768889 7.8746560976
1.9889335668 6.3581288019 7.7605903745
1.9290094830 6.1375119381 7.8258651157
1.8297114082 6.1745542270 8.0923426687
1.8401411624 5.7458847478 9.3045841328
1.9463176281 6.4183999000 8.1126340454
1.9781594361 5.6028337533 8.9802621748
2.5519774952 5.2254094951 9.3876782291
2.6657170229 5.3375525873 10.1388360374
2.2761290316 6.1559449695 7.6206395191
2.1575229906 5.9398519219 7.8054544178
2.0489805703 5.8533097082 8.2158226175
1.9124725916 6.1073930761 8.7149151708
2.1368355900 6.1761246195 9.6376531701
2.6500378962 5.7914887736 10.5353575139
2.4262518952 6.3863160306 10.3885696573
2.7594134688 6.3352801956 11.0019180267
2.4577088456 6.6969663938 7.7680756635
2.2668047152 6.7585648985 8.8468474705
2.4228359232 6.8479710885 9.9844053517
2.6172393576 6.7622841877 10.7583233322
2.6241345814 5.6331484484 7.8084893267
3.2551391015 5.4889380321 7.2581236572
3.1777442263 5.1938453745 7.7443755467
3.0838279445 5.0218025386 8.4606014190
2.4063439128 5.4374306327 8.5554598779
3.3389421102 4.7419957462 9.3906982901
3.4518573263 4.8713713594 10.3865408389
2.9657454080 5.3196933235 10.5583556950
3.3817998061 5.3455109125 11.0671363591
2.8871923332 6.1474214382 7.2205046637
3.4420415398 6.3324250045 6.6718802645
3.3250192001 5.8491847485 6.8728190252
3.4330840808 5.9163182367 11.6292484416
3.0836604048 6.8325974623 11.6168091047
3.6355374473 6.3846757206 12.2686659174
3.0866449598 6.9009754788 7.1197724975
2.9395948655 7.3077623396 7.6503461312
3.3211780745 7.5654242226 7.2905503072
2.7596203570 7.3962292316 8.4113036586
2.7510863601 7.5540224512 9.5648427853
2.8045165938 7.3814074164 10.7656882722
3.0135400312 7.4582296285 11.5213841942
3.6664943272 6.8874757772 12.6085658901
3.3017713415 7.5564051959 12.1762417885
3.6944469717 7.4835023611 12.8677028156
3.2347956965 7.8974590832 7.9928998702
3.1339975885 8.0717503970 8.9271149123
3.1256788091 8.2209400376 9.7128834290
3.0534259046 8.1010337149 10.4434006439
3.3358300448 8.6157378793 10.1990342374
3.1453544921 8.0237065640 11.4358792548
3.3998720078 8.2067840884 12.2045544343
3.5926008297 7.9866856142 12.7047020288
3.3932620041 8.6924574082 10.9985293910
3.4646718384 8.6322771850 11.8267581266
3.8422963867 4.7969425043 7.6084808636
4.2606286868 4.8634823813 6.7951145359
4.7478496992 4.3551237887 7.1115180014
4.7413431457 3.9617412921 8.2143394272
3.8948203766 4.4145329553 8.8337500479
4.6776370429 3.8739967479 9.5093915315
3.9436159257 4.3675711998 9.8418495893
4.5405025291 4.1091601325 10.4173892182
4.0301587562 4.4146845199 10.4210175227
4.3437268062 4.4412092451 10.9225833291
3.8216138099 5.5006138494 6.6599585395
4.3555213008 5.5139661236 6.0543112955
4.2721435350 5.1248081370 6.4182835737
4.3011412270 4.8981678424 11.5074222511
3.8101824484 5.3765132101 11.6063421861
4.2620340787 5.4209128736 12.0831262883
4.0370492507 6.3474289813 6.0522937614
4.5908509904 6.6197453416 5.3671653373
4.4521453771 5.9759604188 5.6816146404
4.3071481720 5.9534995988 12.6163279789
3.9296759522 6.4160451347 12.6838589518
4.2549751214 6.5249523033 13.0525822505
4.1760538554 7.3195318047 5.8412802477
4.5358552902 7.5492587505 5.3504631949
3.6766507235 7.2837218655 6.6053928843
4.1398255105 7.1213347854 13.2421563290
4.0857840687 7.9149921824 13.3061983884
4.7236380368 7.2929698568 13.7041454620
4.3612512863 8.0024037655 5.7399128833
4.0954168969 8.0942325870 6.3601554031
4.4392616717 8.5919922130 6.0682346708
3.7876243176 8.3607617750 7.3972566639
3.5784711426 8.6020072198 8.5384538306
3.4591408137 8.6951507643 9.4909111058
3.8226235579 8.7657044021 12.7167930871
4.2818017575 8.6799311409 13.5403890246
4.7616444910 8.0852668366 13.8955348853
4.3051745995 8.9194667374 6.8139474698
4.2050925237 9.1995047236 7.5801247807
4.0208982198 9.2038760418 8.2866413169
4.3860927199 9.7306429304 8.0994797796
3.8903476473 9.3054281271 9.2565280081
3.7497325734 9.2741586178 10.3789853927
3.8245365467 9.3627531521 11.6943613342
4.1182826663 9.7556636259 12.7050856208
4.3082625111 9.4876580741 13.4278418029
4.7567066628 9.0628965193 14.0190706596
4.3350181843 9.9317122240 8.9218110797
4.2419772175 10.0266934823 9.9726843086
4.2072909834 10.0899230302 11.0766777891
4.2648556463 10.2121808804 12.0969258785
4.3661873484 10.3680582379 12.7926027918
4.4420260906 10.2543777972 13.3061454137
4.6130202302 10.7224879400 13.1210320891
4.8280529109 10.2622115206 13.9056545816
4.7989620024 10.7682585143 13.5282902454
5.3037831866 3.4558321201 8.9767595465
5.4918284522 3.4668335298 8.1924003402
6.1087931020 3.1160271078 8.6670323459
5.8847790642 3.1726348645 9.5918635297
5.3373394887 3.4497310463 9.7590366696
5.7725749184 3.3102796974 10.2171860146
4.7582993869 4.8604072602 6.2992230113
5.3930177126 4.7791929872 5.8825569779
5.4974961398 4.2857572611 6.4782668389
5.6002143610 3.7546319726 7.3531489946
5.3586079519 3.6698033264 10.4987313977
5.1114251360 4.1047145147 11.1529047949
4.7921776635 4.4390131345 11.4178200906
5.4618666743 4.4371606048 11.9036661531
4.9887657950 5.5470885560 5.5151042272
5.6339737785 5.6228026114 4.9773824083
5.7915872022 5.0307345552 5.3787138286
5.0715843584 5.0596423196 12.3475199112
4.7518493354 5.4591017329 12.5527879071
5.3649543139 5.5121410059 12.9829520409
5.2446885147 6.3220726089 4.8546195807
5.5853116997 6.8275176806 4.3636669274
5.9390556706 6.0897296766 4.5004055586
4.9669563248 6.1887758091 13.3093106356
4.6704496214 6.7296245706 13.4887493253
5.3535617920 6.6344750713 13.7592317281
5.0329727521 7.4010998135 4.7811430898
5.6807790111 7.7005206638 4.0532246128
5.5318537516 7.3199772158 14.0615860396
5.2131825554 8.4634943400 4.5942677318
5.6356052770 8.7698909692 4.0218045496
4.7498876590 8.4013683331 5.3717146570
5.4819499030 8.1460151411 14.2806450517
5.3703705675 9.2058927810 4.5185617368
5.6552572199 9.5464766889 4.2111427984
5.1205786185 9.2717356276 5.1775616580
4.8251132516 9.4716254939 6.2565300552
4.5855811047 9.7117410539 7.3778572948
5.1408391226 8.8503886931 14.3128174669
4.8859928332 9.6805221509 14.1986246303
5.4787841807 9.8914934629 4.8491456323
5.3030429383 10.1061228076 5.7187842699
5.2165922824 10.3393527749 6.4912128367
5.0234018311 10.3463356116 7.2112404477
5.3881987652 10.8752457545 7.0029747084
4.8320696095 10.5374133726 8.3591727280
4.6903637348 10.6862572848 9.5792812637
4.6312201916 10.7657032572 10.6457843097
4.6251179769 10.8119983188 11.6683416673
4.6378044942 10.8208553390 12.5512731891
5.0374630119 10.3629425609 14.1715457494
5.3238912423 11.1166126616 7.7901002225
5.2685928947 11.3535198281 8.5789126982
5.1191211944 11.3307232443 9.2930131861
5.4819079666 11.8586702347 9.0616634156
5.0580671328 11.4142719340 10.2627856748
5.0530940000 11.4548443113 11.2779965364
5.0949592181 11.4318057300 12.2618212234
5.0977506444 11.2596566241 13.1503428581
5.3220989770 11.1377663739 13.7793959544
5.5688288460 11.0105374348 14.0957690740
5.4911717452 12.0240962434 9.8507717290
5.5002059574 12.0825587357 10.8513160786
5.5800816186 12.0721168430 11.8505985862
5.8021289496 11.9947579912 12.8451318429
5.7631297738 11.6674854913 13.5229634590
6.0339616005 3.3100456165 7.8533061398
6.4141755380 3.4148904330 7.2930001624
6.8518902466 3.0359230622 7.8911149619
6.9807983917 2.8080532029 8.7528001643
6.7026368677 2.8951722286 9.5369855860
6.4698757442 3.1057869543 10.4035244694
6.0593271098 3.3833858516 10.7722860448
6.5555120456 3.3056795742 11.0817605844
6.0614089317 4.4582834519 5.8531719859
6.5884144443 3.8734974191 6.4574209402
6.2726484565 3.7398626708 11.5103914417
6.4106160626 4.2368095316 12.2779953961
6.4013441432 5.3153013443 4.8607751470
6.4229188147 4.7379178340 5.3619358505
6.2630808513 4.8053949305 12.7790869081
6.2509050596 5.3950537868 13.3397772131
6.2895478096 6.7489115998 3.9565915078
6.7237531605 5.8946621937 4.2877273576
5.8443303020 5.9487387132 13.5713406557
6.4066939334 6.4398624721 13.9777472389
6.2689398659 7.5080916305 3.5895522275
6.6211755830 7.8086957220 3.2721065791
6.8601304495 7.1182657439 3.4514687604
6.5845417683 7.2763343062 14.3100912636
6.1180339197 8.2807817424 3.5354364955
6.6979093760 8.5759900274 3.0734330770
6.2051882339 7.8404841646 14.4283669605
5.5891713424 8.3276467160 14.4154786002
6.1188345638 9.3833003491 3.5856704597
6.7908261540 9.6707822814 2.8325140966
6.3914634916 10.3880595851 3.4526195845
6.7132238256 10.4423904040 2.9310702844
5.9340230656 10.3794619211 4.3300402138
5.7108860209 10.7081210234 5.3572665066
5.5644521283 10.8798954417 6.2984120171
6.7775912628 11.1272502196 3.1890433517
6.3660311789 11.2045272597 4.0678659200
6.7195884004 11.8033387912 3.8722251488
6.1253678902 11.3557937288 5.0106245675
5.9724342388 11.5235345604 6.0267724315
5.8092335145 11.6941589559 7.1993401423
5.6467826211 11.8695951265 8.3297101239
6.7054085850 11.5072920573 14.1702294255
6.1871381920 11.5877349119 13.9409709099
6.5378413888 12.0074952951 4.6799998515
6.3841747013 12.1533538673 5.6573367034
6.2629041306 12.2681959601 6.6092326157
6.2275580391 12.4774180974 7.3444776935
6.0843183989 12.4994505387 8.0641455044
6.4724934482 13.0252595507 7.6907606978
5.9831188416 12.6220358774 9.1819509405
5.9703501988 12.6792106443 10.3670210622
6.0574592461 12.6699328151 11.3820817771
6.2214513190 12.5914740582 12.2928414895
6.5366133872 12.5157292046 12.9476842596
6.6163535672 12.1388717790 13.5223432209
6.4368000990 13.1825989518 8.5071472925
6.7652710873 13.5355841942 7.9941132018
6.5069166540 13.3581237636 9.2229221084
6.4519981866 13.2551979838 9.9604344800
6.5437390642 13.2205957254 10.9059894617
6.7717572451 13.1548734554 11.8932832734
6.8308428438 12.8939949093 12.6169515599
6.9305665396 13.7807805342 8.8294558932
7.2041767859 3.3161158898 7.0409745197
7.7459516155 2.9436180558 7.4954205174
7.8546750650 2.6043229742 8.3166510254
7.7019046424 2.5811790795 9.4127987870
7.4044751087 2.8544715771 10.3531210304
7.1460980784 3.1474009592 11.0788476117
6.8736376919 3.3744247717 11.4126574019
7.5010709516 3.4811501499 11.7461968862
6.7723885360 4.3514161558 5.6857055484
7.1408768623 4.7593636700 5.1593255922
7.6766580530 4.1665825369 5.7220382610
7.6385874526 3.6179213791 6.4142332822
7.1387947770 4.0117035448 12.3175113835
6.8483061103 4.3616644042 12.6305138807
7.5010196541 4.5387219712 12.9426627992
7.2969118412 5.3457781792 4.5768400015
7.0313311014 5.1915467763 13.4068222040
6.6061862683 5.7141940056 13.6859621364
7.3594574587 5.7872892492 13.8411658042
7.2375467858 6.3031756861 3.8327391954
7.2969447821 5.7666772988 4.1979571093
7.5058553815 6.5115245558 14.1688487731
7.3544729674 7.6831009131 3.0122565763
7.5507027632 6.8519392063 3.3696037522
7.7987502529 7.0722273440 14.3804558197
7.4494434850 8.7137346104 2.5149569608
7.2093194393 7.4256149920 14.4475900785
7.4207902357 9.6439656789 2.1610210183
7.9445607091 9.6097976515 1.6888026281
7.8294263720 9.0909869898 2.0181363379
7.7108393179 10.2774402959 1.7516570486
8.2035923134 10.7218242780 1.4118417334
8.2248691379 10.0808462614 1.3624652173
7.1501705280 10.5242019241 2.4145971117
7.7189760615 11.0003815742 1.8697432321
7.3747885323 11.4244248601 2.5267671255
7.1453724444 11.9801682065 3.2957541845
7.7924330493 12.1873094509 2.6845124632
7.8250910489 11.4864761602 14.2427239475
7.3457800591 11.8540859915 14.0132018284
7.5103292493 12.6615083156 3.4463642979
7.9842986269 12.7608635901 3.0440752404
7.0334381572 12.5709377504 4.2175861932
6.8118191578 12.7643796832 5.2913686517
6.6531684865 12.8455646252 6.2848186130
6.5002526347 12.8318591272 7.0256856139
7.4704808196 12.3387625728 13.6989358736
7.3684802779 12.7415686025 13.2111662783
7.9099713340 13.0991598526 3.4950839742
7.5674274506 13.1970559665 4.0814125276
8.1923574615 13.5284989190 3.9163071644
7.3042019598 13.3207547322 4.9270823463
7.1012309745 13.4279640047 5.9499056698
6.8578710790 13.4212455946 7.0716290277
6.8623052119 13.6938401938 9.6506074911
7.0206296383 13.6955782445 10.4399479094
7.1867583012 13.6178787227 11.3349127453
7.3919488874 13.5323702668 11.9919962949
7.3936143767 13.2313852636 12.5272312272
7.8483542252 13.6718851108 4.5873586519
7.7231547057 13.9043805633 5.4510961047
7.3285491292 13.9272937569 6.6155161887
7.1640157842 13.9727645672 7.8269957994
7.3407746473 14.1578964300 8.7960317667
7.4925160421 14.0857083152 9.8535564567
7.6958335710 13.9708207188 10.9503855114
7.8240380804 13.8013353497 11.7292068227
8.3998093523 2.2322627615 8.9615956029
8.8155052632 2.1718479040 8.3330127242
9.0447514102 1.9027446759 8.8548789290
8.8397906363 2.0657424437 9.3131155076
8.4482697973 2.3098148642 9.5840992556
9.0497989082 2.2345514587 9.8309841968
8.1628929984 3.2181936506 6.8546103898
8.8435537729 2.6907609106 7.5157089992
8.4613607703 2.6107344402 10.3069231565
8.0847562792 3.0373960927 11.1398894821
8.7003726706 3.4125972919 11.8544697236
8.2848322720 4.9225539938 4.9032002843
8.6959514151 4.2787955900 5.4993061990
8.6243335002 3.7107800623 6.1333979160
8.2027460616 3.9447819009 12.4618889854
8.8356226250 4.5776027348 13.0992080085
7.9526767755 5.6767063009 4.1912189645
8.7543299496 5.9644584290 3.9689711546
8.7034017977 5.4674089804 4.3901711628
8.0362109446 5.1679484782 13.5253718827
8.4427944898 5.9040968426 13.9464657634
8.0744373181 6.3314861239 3.6352734876
8.2604370604 7.0383747643 3.1377733246
8.6654078164 6.4760062694 3.5129058880
8.4010615240 6.6147014238 14.2397668086
8.1671181584 7.9287521266 2.5940292365
8.8302321930 7.0958397594 14.3666504458
8.1185168007 8.5771640125 2.1633044833
8.4025873554 9.0264525846 1.7209195428
8.8110772677 8.3267463449 2.1214817760
8.2637058267 7.3254942756 14.4556437036
8.3833201647 9.5767994951 1.4047517533
8.7484243257 10.3786354830 1.1662701562
8.6561757488 9.8486769076 1.2056993146
8.2363799596 11.2707778381 1.5626089076
8.8970934245 11.1361862504 1.3252552938
7.9941830872 11.6394974439 2.0046730344
8.8313621611 11.0059956472 14.3014811313
8.4884101510 11.5230459550 14.1366230173
8.5831682736 11.6583181500 1.6714490930
8.5054273189 12.1256724906 2.1306607486
8.3550632615 12.5858135470 2.6321536715
7.8043281236 12.5476155844 13.6034329288
8.2014453795 12.2211195992 13.8036919704
8.6256740149 13.1299582537 3.1322655882
8.8431825385 13.6602706542 3.7506031680
7.8679914291 13.5555792083 12.3007124114
8.2066923084 13.1655722547 12.8744863570
8.1187560008 12.7028717139 13.4402245781
8.7396020941 14.0316274289 4.6461919176
8.2595495804 14.1967727082 5.3290938654
9.0355379263 14.3375132586 5.1369337986
7.6783689573 14.1485832171 6.1490609002
7.4171384840 14.1698648968 7.2143383509
7.4126238510 14.2398911048 8.2666212096
7.6044854431 14.2846220328 9.2553162105
8.0462680555 14.3036598747 10.1526255688
8.3597947672 14.2003031821 10.8358302134
8.2904480371 14.0120143269 11.4675329078
8.5365040206 13.7024610167 12.1496061134
9.5225027735 1.6657724121 8.8330176620
9.4339831949 1.7833985515 8.4875665523
9.8018062668 1.5842711719 8.6522194446
9.9119369906 1.6401034918 8.9586620841
9.5179272214 2.1136124747 8.0454541024
9.4642832630 1.8871033010 9.3003833964
9.8191081603 2.2434032929 9.9041607970
9.0410939799 3.2213274021 6.7170361491
9.6929908680 3.6278640617 6.2796024808
9.9478566548 3.0440596530 7.0221842704
9.8437549977 2.4905431025 7.6504323146
9.3872151478 2.5348967149 10.3947997897
9.2584152654 2.9628668906 11.1259740142
9.6118259216 3.3944627795 11.8191385927
9.3608929442 4.7169930881 5.2022139199
9.4898579511 4.1545018240 5.7064207393
9.4319187180 3.8995203232 12.4503170679
9.8161944091 4.4322659833 12.9513166328
9.0945251398 5.6673764169 4.2980238299
9.3770086315 5.4193489346 4.6834827235
8.9196458563 5.2528206817 13.6026019650
9.8274232689 5.0892811142 13.4082221400
8.9370222965 6.8571572268 3.2750506208
9.2232188446 6.4996550188 3.6855822616
9.4883015102 6.0673873529 4.2057218947
9.3774359010 5.6941801926 13.8082420348
9.3963119985 6.4659305877 14.1096013794
9.0033828987 7.5207313431 2.8193950615
9.4151370979 7.0530918339 3.3369728104
9.8825832146 7.4159929432 14.3059338435
8.9974436274 8.8661695946 1.6195318683
9.4022614589 9.2223380807 1.4064371521
9.4526568874 8.6382737225 1.8509661225
9.4482036489 8.1034877628 2.3945906197
9.2176289459 7.5229076100 14.4351755819
8.8394990192 9.3691928986 1.3446396048
9.1803322279 9.8458517876 1.1670218857
9.7810960067 9.6323916992 14.4477814000
10.0035439445 8.9750625613 14.4312439030
9.9643094315 9.6255197166 14.3527336337
9.4582747370 10.5195877594 1.1503135271
9.5066174807 10.2558327942 14.3773398265
9.6054071585 10.7049026238 14.1560962382
9.7550561368 11.2050135807 1.3065770852
9.1713721374 11.7402744185 13.8573920442
9.3978629429 11.8933018753 1.7785935753
9.0465026443 12.5738504580 2.4018356336
9.7568578391 12.4525948712 2.2779166009
8.9370338623 12.5648893303 13.3866417226
9.7339079335 11.9894869123 13.5311354661
9.8857258317 12.5539629192 13.0609681143
9.7240813504 12.9849751150 2.8486398251
9.3033196046 13.4708577101 3.3555635311
9.8836438687 13.4716482327 3.4087256850
9.1785941059 13.2042384371 12.7044898701
10.1269086859 13.1958101829 12.3228406450
9.3539240618 13.6577518113 12.1018644778
9.5972333060 13.8200328052 3.9567590035
9.8191569860 14.1228240296 4.6911265061
9.5854371283 14.4601884665 5.3770562308
9.7655255725 14.3556880491 5.2701463489
10.1270776703 14.4918880064 5.7402945323
8.5897786520 14.3060052089 10.7061597660
9.2463036695 14.1625315519 11.1490352262
8.9708596828 14.0048328452 11.5663676233
9.9430527498 1.7593500113 8.4040990578
10.1126227107 1.6141673580 8.6979655690
10.3018616254 1.7588886374 8.9422808613
10.2138095854 2.1378358804 8.1186093104
10.1435405916 1.9406288237 9.3466923618
10.4709453287 2.3566505095 9.7762846680
10.6021866579 3.6341767710 6.4985078461
10.9632272234 3.2620959891 7.1085018786
10.6620280341 2.6923685653 7.7798017690
10.3148093003 2.7963244757 10.5818894609
10.1236171454 3.2005718695 11.4023501789
10.8498222918 3.3427253567 11.2765108810
10.0389190170 4.6176010348 5.4644527164
10.4451257737 4.2730654334 5.9188545149
10.4195960910 3.6866833372 11.9976344480
10.2924741586 4.1414176228 12.6017213528
10.6049661456 4.6623157126 12.9697571542
10.1507726625 5.2226539766 5.1488096179
10.6047536828 4.9271536245 5.5414761135
10.8930655681 5.3659813975 13.3628600378
9.9542539534 6.9258289385 3.8853413563
10.4116894563 6.2318920880 4.7529530820
10.2222146068 5.8827114207 13.7735592420
10.5238064275 6.7074374171 14.0280910819
9.8304528187 7.7223927134 3.0717217443
10.4308430687 7.7900315728 3.7178183734
10.7399756273 7.3610362553 4.3875915493
10.7738705013 7.4751122464 14.1608025984
9.8607607535 9.0765331001 1.6798409104
10.0155538402 8.5772326656 2.3302305548
10.4025327800 8.3668761842 3.1123717232
10.7266723440 8.3725906077 3.6461369753
10.8930149873 8.0920418767 4.1018896809
9.8910970931 8.1161401048 14.4162271095
10.4876485282 8.4771742807 14.2795175193
9.8885597055 9.8112803799 1.3622293158
10.3233534794 9.3836224151 1.9307904029
10.5790533913 9.0498759730 2.6603582559
10.7765353114 8.8094577541 3.2961473612
10.5857422883 9.6514651546 14.0982895811
10.1442701267 10.6383884464 1.3071188092
10.3927282398 10.4795735085 13.9318749660
10.9259109847 10.0650538041 13.8556905708
10.8447395037 10.7080597225 13.6555837718
10.2973788588 11.1809575722 1.4024977156
10.0551470576 11.2350039138 13.7780725711
10.6165375817 11.6565317305 13.3227857859
10.1318260046 11.5878667269 1.5904825639
10.1249467476 12.5676267338 2.4821425130
10.4360485545 11.9839464031 2.2504112644
10.4985457872 12.6547858805 2.8234307426
10.7379773848 12.4233931811 12.7813115058
10.2667154685 13.6400225055 3.7910332339
10.5836659874 13.1664412079 3.4259027491
10.7594438233 13.5700410927 4.0024642561
9.9135985468 13.8461972186 11.5690360089
10.8201310772 13.4772339675 11.5365882727
10.5530700901 13.9161352039 11.1592803055
11.0302379683 12.8402690925 12.2191739866
10.5111511967 13.8903205351 4.4485090753
10.6115271396 14.1828488916 5.2910502232
10.6190002944 14.5114386111 6.1896695243
10.7429489441 14.4057002059 6.0619326605
11.1187942221 14.4644405297 6.6541985788
10.2615086857 14.0732731904 11.0737140946
10.6897789668 14.0404627414 10.9004015321
10.8749154039 14.0537611477 10.7099150180
10.3875378542 1.8730463922 8.6015800410
10.7068964020 2.2833860114 8.4316277856
10.6968783230 2.2037544281 9.0905130363
11.2690388553 3.7081088318 6.7175654778
11.7338317322 3.6684108065 7.2472633156
11.4639690032 3.1758087719 7.7767953488
11.2915772501 2.8268883627 8.6611635825
11.1548113757 2.8624106027 9.8283123994
11.1626477819 3.1742842636 10.6707418600
11.4781207744 3.5607191568 11.1008959278
11.2296175040 4.1952438768 6.3390343966
11.7014387928 4.0735705038 6.7387199107
11.3279622767 3.8623058718 11.7278634309
11.0522751608 4.2504330803 12.4155304574
11.5743441527 4.9533940921 12.8112696722
10.9150248307 5.6190390141 5.3922922408
11.2938216923 5.0363576476 5.9501970742
11.7537469328 5.6972583751 13.2637636742
11.2013999783 6.3390698021 5.2940977188
11.6071068962 6.0274993107 5.7637555096
11.1795430660 6.1302824221 13.6801465587
11.5326215108 6.9939862087 13.8458013899
11.2469530124 7.0591880796 5.0359847575
11.6693870104 6.7538209719 5.5356206265
11.3236583559 7.8682943489 14.0633927366
11.1428856752 8.8342156016 3.9074296481
11.4211502666 8.1178189607 4.7108401893
11.4726971113 8.7101459268 13.9815777824
10.5030260254 10.1597605179 1.6912048182
10.7954529848 9.8240396923 2.3619613908
11.0088954595 9.4534235369 3.1494389484
11.4363644810 9.7512170074 3.7763699134
11.7326233572 9.2400764879 4.5315339888
11.3038527996 9.5157851038 13.8834404157
11.9637910138 9.2318910324 13.7111956385
11.5160186395 10.0040331825 13.6367322438
10.6072274526 10.8590415935 1.6458477425
10.8615767258 10.4968082603 2.1068286233
11.2101965327 10.4628499206 2.9537169874
11.6302868645 10.4430860152 3.7704394028
11.8303346042 10.0609073173 4.2889186428
11.5627940448 10.7930191381 13.3021647803
10.5335471000 11.3969960403 1.7278374478
10.8682038544 11.1428141982 2.2068787948
11.1810319856 11.4825695910 2.9296609016
11.5714298493 11.0373354327 3.5336843609
11.4972785667 11.7270131389 12.8857651342
10.8871391892 12.7254012868 3.1986093671
11.0353639533 12.2626020784 3.0662935285
11.2486671644 12.6971812350 3.6465105916
11.3125119316 12.3360525947 12.5913870633
11.6563002933 12.0932387451 12.5915927175
11.6590146866 12.4186150602 12.2474590843
11.1164626562 13.6436459910 4.4611277786
11.2212510262 13.2487269997 4.0916980540
11.5599347611 13.4077260977 4.6896953031
11.0864018676 13.8516956548 10.8135827994
11.4949721249 13.4272779608 11.0174117174
11.7486356801 13.6760312178 10.3829781346
11.5819621789 12.9455521328 11.6168915949
11.3805806358 13.8179624445 5.1836013278
11.4825225611 14.1210950336 6.0986657918
11.5693793365 14.4000940445 7.1833127381
11.6541353419 14.2837517077 6.9799404748
11.9769033160 14.2311754926 7.7486120325
11.4951171005 13.9563369891 10.2417545996
11.8725928851 13.8735876360 9.9392790079
11.9788565594 13.9378350914 9.6237876094
11.9283779277 3.5180747265 7.7765370119
11.9797562173 3.4583640181 8.3807435575
11.9979847495 3.5037698595 9.4645430210
11.7496257392 3.5027690295 10.4606531860
11.8870264091 4.7132120913 6.5502903692
12.2016282434 4.3523658308 7.1316786414
12.3580727286 4.0361216824 7.8977637531
12.5349794232 4.0544828340 8.8994368690
12.5615225817 4.1131804859 9.6978936261
12.7644609151 4.5141363716 10.2307373014
12.3393117097 4.0363421422 10.3581794238
12.0289017671 4.0997650239 11.2512663728
11.8328189263 4.4598604217 12.1173207634
12.1108030005 5.6549972439 6.3653335434
12.5331287269 5.1860518734 7.0156087823
12.6483369431 4.6620289179 10.9842670298
12.4393022343 4.8068411858 11.8113689657
12.2215975316 4.9916299356 12.4094258730
12.3047727455 5.5159489018 12.7747819683
12.2637985823 6.7861796917 6.0961692694
12.8775551885 6.2830087392 6.9183233209
11.9180819292 6.3228907365 13.5045523536
12.3438355779 6.0860804333 13.1196438066
11.9098476599 7.5447415649 5.4724861033
12.5536178343 7.8725938489 6.0044214252
13.0053058946 7.4171669073 6.6078969581
12.5027937566 6.8483885070 13.3134288840
12.1811733712 7.8064868609 13.7385592784
12.2431673629 8.7000163437 5.3820631372
12.8270670070 8.6462974583 6.0114145375
13.0860885967 8.2227582185 6.4040598038
12.2680216194 8.5644692663 13.7341909227
12.3224663219 9.9969220952 5.0037340966
12.9537565024 9.5574061002 5.8439245292
12.6036826623 8.9388526702 13.4858556979
12.3967351230 9.8097287213 13.2838521329
12.0021833794 10.8896729261 4.3120501097
12.5546988301 11.0033179011 5.0549154061
12.9369787756 10.5859497753 5.5843260210
12.3951837585 10.8841882561 12.8405922745
11.6453430171 11.8644466222 3.7995790832
12.3352883171 11.8253669949 4.8052007044
12.7576493617 11.5231402909 5.2590751355
12.9287193445 11.2095384339 5.4677485606
12.1375340305 11.7762822365 12.4609613535
12.6361642328 11.2758427347 12.4941261671
12.7717845905 11.6026616564 12.0901554876
11.8325290305 12.7501039577 4.4972521588
12.9077598614 11.9999816040 5.5713793431
12.4790231070 12.6610489381 5.3240096225
12.9335879447 12.6621351074 5.9466612785
12.2863817982 12.9842755366 10.8134241996
13.0530094766 12.5515065380 10.6232054532
12.8716150980 13.0109811985 10.0808476728
12.2428134972 12.3227706715 11.7842735895
13.0038064099 12.0582763512 11.3428381826
12.0421498644 13.3139736530 5.2765547724
12.6134949437 13.1983708903 5.9705656726
12.3399314983 13.6120026611 9.6902207650
13.1130374949 13.2089022941 9.2204141598
12.6321481213 13.7248010657 8.8036340652
12.1234320574 13.7153104493 6.0213505346
12.2612578883 13.9139936853 6.8802214032
12.2687622046 13.9718647958 8.7622680213
12.4126686168 13.9499924690 7.8924747202
12.7123859077 4.7538105079 7.6151114806
13.0681222326 4.8880943034 8.5214755768
12.9533964290 4.6604182562 9.5609011134
13.1489437386 5.5654676733 7.6839684540
13.4884260975 5.5778185597 8.3352015902
13.5490440231 5.4969775652 8.8470652162
13.7520982200 5.8645273579 9.2413654422
13.4344976112 5.4127217748 9.5423411601
13.1303513873 5.2257264325 10.5322860285
12.9083773944 5.3736663779 11.5957616899
12.6263293250 5.3553161892 12.2577430311
13.4152358780 6.3682522817 7.5125142610
13.6518070725 6.1712628174 8.0507873677
13.7749734271 6.0472489474 9.7599471824
13.9340932283 6.5471938802 10.2117654961
13.6007113353 5.9944545977 10.4062075144
13.3658367945 6.0614425089 11.3487701277
12.9210357796 6.1501727727 12.4430060789
13.4865963321 7.1091751378 7.2395739268
13.7579359756 6.7996780216 7.7716265703
13.8272270996 6.7444475850 11.0147539396
13.5603359672 6.8679497263 11.9644685053
13.2342804086 7.1465242572 12.7773985175
12.9063434823 7.5816126455 13.3085615190
13.3727269571 7.9512164159 12.9223189730
13.3417349908 8.9599627002 6.3923451886
13.7262579164 8.2803357723 6.9952746418
12.8382222833 8.2725756465 13.4311988950
13.2430228736 8.9568756904 12.9579377439
13.5347928286 9.6889124146 6.3549118307
13.9229107874 9.4031583284 6.7784877601
13.1705964054 10.0270024407 12.7215478072
13.4797202166 10.3877200606 6.1967996407
13.9252253746 10.1258385971 6.6400625616
13.1260782124 10.8371433120 12.3960851736
13.5496174818 10.2398840730 12.3767457045
13.7174042430 10.5887034331 12.0344870993
12.9998379249 11.5383629542 5.5473344315
13.3391331919 11.3733839133 6.0246366829
13.3770620521 11.2713824650 11.8498309021
13.7920143432 10.9990014373 11.7060804664
13.7182604507 11.4572581135 11.3237165296
13.1396895082 12.9914397853 6.6600602908
13.3332734019 12.2767257521 6.3153668079
13.5932004212 12.5510838278 6.9623479507
13.5282468299 12.0626772059 10.8047041551
13.5626507619 12.5112210963 10.0413740977
12.6773614969 13.5208791591 6.6145420999
13.4845386505 12.9401302367 7.3996652486
12.9740397089 13.4688755430 7.4620360705
12.9645099149 13.5344323008 8.3590084852
13.5371526140 13.0005439862 8.2838921998
13.7728337593 12.6963714818 9.1830544527
13.7983145961 6.0440621592 8.7029436653
14.0679892575 6.8882664427 8.4367924474
14.0460799434 6.5811414153 9.4212558119
14.0179713601 7.5405366521 7.7163729399
14.4841124341 7.8150643822 8.3076776189
14.4792984252 7.4803599677 9.2043632541
14.3147252266 7.4573445047 10.4407921749
13.9851363484 7.5547646998 11.6204367645
13.6736474254 7.5568530610 12.3657411616
14.4115642784 8.4011894247 7.6540835007
14.8156553064 8.5359056643 8.1117994317
14.8595103613 8.1492429541 8.8544991357
14.8754077879 8.1714629099 9.8537494136
14.7148258259 8.3051578686 10.6945410314
14.7666691373 8.7859622379 11.1008937201
14.3640043189 8.4326120209 11.4374359444
13.8407663132 8.3182054386 12.2917834769
14.4007821832 9.1797027181 7.2651927952
14.7552257234 9.0356266559 7.6561393836
14.5716982450 9.1577699375 11.5116195430
14.5666486373 9.7421871901 11.5188583976
13.9774037334 9.5529910761 12.0994012027
14.0785427175 10.9622625857 6.8596403946
14.4551749451 10.1151334689 7.1322795659
14.2426759796 10.6140144607 11.4635730400
14.8560214886 10.0692825123 11.0997092930
14.7190930081 10.8082923463 10.9166652773
13.8292771440 11.9199858581 6.8959507218
14.7629362796 10.9172259924 7.5736292818
14.4255879981 11.7445700088 7.7404099172
14.9129710219 11.5164473994 8.0986277148
14.2343868750 11.6073090292 10.6158475713
14.8618490960 11.2434283578 10.4631392271
14.6691110823 11.7569385716 10.0170169201
13.9070607858 12.4539214897 7.6416423721
14.8132103117 11.8689198503 8.5595555358
14.2544830282 12.3221311378 8.6339483419
14.2463448854 12.1868897164 9.6554226173
14.7299727410 11.9632167371 9.3148338903
15.0213692420 8.5849927096 8.5053376775
15.1380175819 8.4545299818 9.3499296732
15.2384761227 8.7627476890 10.0128271367
15.3373252685 8.7449496979 9.7820402814
15.0142071215 8.7843270363 10.5657428853
14.8210191701 9.7291434375 7.4952635519
14.9688294503 9.2543892260 7.8685298082
15.3889205887 9.0933780610 10.1659306042
15.4059165161 9.4512839489 10.4350581853
15.2311430898 9.4614684710 10.5913970297
14.8964519344 9.3267517893 11.1078687510
14.8461877509 10.3036348847 7.4605609473
14.9920461468 10.3184634563 7.6921632697
15.3304270655 9.7897565798 10.5892675646
15.0900891584 10.4278251275 10.7128139523
15.0912221815 11.6342534804 8.4868270987
15.0790267221 11.2302394592 8.0966985206
15.1667267673 11.5847200689 8.5579089932
15.0566532742 11.1141063890 10.3943552754
14.9540595027 11.6039017911 9.8751314348
15.0379173835 11.7725725399 8.9918842522
3 2 1 0
3 0 3 2
3 6 5 4
3 4 7 6
3 1 8 0
3 0 8 3
3 5 9 4
3 4 9 7
3 11 10 2
3 2 10 1
3 2 3 11
3 11 3 12
3 14 13 6
3 6 13 5
3 16 15 7
3 15 6 7
3 15 14 6
3 16 17 8
3 10 16 8
3 1 10 8
3 16 10 15
3 12 3 18
3 3 17 18
3 17 19 18
3 3 8 17
3 19 20 18
3 13 21 5
3 5 21 9
3 7 9 16
3 9 22 16
3 9 21 22
3 16 22 17
3 17 22 23
3 17 23 19
3 19 23 24
3 19 24 20
3 27 26 25
3 29 28 25
3 25 28 27
3 10 11 29
3 11 28 29
3 11 30 28
3 32 31 12
3 31 11 12
3 31 30 11
3 32 33 31
3 36 35 34
3 36 34 26
3 26 34 25
3 34 13 25
3 13 14 25
3 25 14 15
3 25 15 29
3 29 15 10
3 18 32 12
3 38 37 20
3 20 37 18
3 37 33 18
3 33 32 18
3 38 39 37
3 35 40 34
3 40 42 41
3 40 41 21
3 34 40 21
3 13 34 21
3 43 22 21
3 43 21 41
3 44 23 22
3 44 22 43
3 45 24 23
3 45 23 44
3 38 20 24
3 45 38 24
3 46 38 45
3 39 38 47
3 38 48 47
3 38 46 48
3 48 49 47
3 42 50 41
3 41 50 43
3 43 50 51
3 43 51 44
3 44 51 52
3 54 53 52
3 53 44 52
3 53 45 44
3 45 55 46
3 45 53 55
3 57 48 56
3 48 55 56
3 48 46 55
3 48 57 49
3 54 58 53
3 53 58 55
3 55 58 59
3 55 59 56
3 62 61 60
3 64 63 60
3 60 63 62
3 66 65 64
3 64 65 63
3 68 67 66
3 66 67 65
3 68 69 67
3 72 71 70
3 72 70 61
3 61 70 60
3 70 26 60
3 26 27 60
3 60 27 28
3 60 28 64
3 64 28 30
3 64 30 66
3 66 30 31
3 66 31 68
3 74 73 33
3 33 73 31
3 73 69 31
3 69 68 31
3 74 75 73
3 78 77 76
3 78 76 71
3 71 76 70
3 76 35 70
3 35 36 70
3 70 36 26
3 37 74 33
3 80 79 39
3 39 79 37
3 79 75 37
3 75 74 37
3 80 81 79
3 76 77 82
3 82 77 83
3 84 40 35
3 76 84 35
3 82 84 76
3 84 42 40
3 47 80 39
3 86 85 49
3 49 85 47
3 85 81 47
3 81 80 47
3 86 87 85
3 83 88 82
3 90 89 88
3 89 82 88
3 89 84 82
3 91 50 42
3 84 91 42
3 89 91 84
3 92 51 50
3 92 50 91
3 93 52 51
3 93 51 92
3 93 54 52
3 56 94 57
3 86 49 57
3 94 86 57
3 95 86 94
3 87 86 96
3 96 86 95
3 90 97 89
3 89 97 91
3 91 97 98
3 100 99 98
3 99 91 98
3 99 92 91
3 92 101 93
3 92 99 101
3 102 58 54
3 93 102 54
3 101 102 93
3 103 59 58
3 103 58 102
3 94 56 59
3 103 94 59
3 104 94 103
3 94 105 95
3 94 104 105
3 96 95 106
3 106 95 105
3 100 107 99
3 99 107 101
3 101 107 108
3 101 108 102
3 102 108 109
3 102 109 103
3 103 109 110
3 103 110 104
3 104 110 111
3 113 112 111
3 112 104 111
3 112 105 104
3 106 105 114
3 114 105 112
3 113 115 112
3 112 115 114
3 118 117 116
3 120 119 116
3 116 119 118
3 120 121 119
3 124 123 122
3 61 62 122
3 62 124 122
3 62 125 124
3 63 116 117
3 125 63 117
3 62 63 125
3 116 63 65
3 116 65 120
3 126 121 120
3 65 126 120
3 67 126 65
3 128 127 69
3 127 67 69
3 127 126 67
3 128 129 127
3 132 131 130
3 132 130 123
3 123 130 122
3 130 71 122
3 71 72 122
3 122 72 61
3 73 128 69
3 134 133 75
3 75 133 73
3 133 129 73
3 129 128 73
3 134 135 133
3 138 137 136
3 138 136 131
3 131 136 130
3 136 77 130
3 77 78 130
3 130 78 71
3 79 134 75
3 140 139 81
3 81 139 79
3 139 135 79
3 135 134 79
3 140 141 139
3 136 137 142
3 142 137 143
3 142 83 77
3 142 77 136
3 85 140 81
3 85 87 140
3 87 141 140
3 87 144 141
3 142 143 145
3 145 143 146
3 147 88 83
3 142 147 83
3 145 147 142
3 147 90 88
3 96 144 87
3 96 148 144
3 145 146 149
3 149 146 150
3 145 151 147
3 145 149 151
3 152 97 90
3 147 152 90
3 151 152 147
3 153 98 97
3 153 97 152
3 153 100 98
3 106 155 154
3 148 106 154
3 96 106 148
3 150 156 149
3 149 156 151
3 151 156 157
3 151 157 152
3 152 157 158
3 160 159 158
3 159 152 158
3 159 153 152
3 161 107 100
3 153 161 100
3 159 161 153
3 162 108 107
3 162 107 161
3 163 109 108
3 163 108 162
3 164 110 109
3 164 109 163
3 165 111 110
3 165 110 164
3 165 113 111
3 114 166 155
3 114 155 106
3 160 167 159
3 159 167 161
3 161 167 168
3 170 169 168
3 169 161 168
3 169 162 161
3 162 171 163
3 162 169 171
3 163 172 164
3 163 171 172
3 164 173 165
3 164 172 173
3 174 115 113
3 165 174 113
3 173 174 165
3 174 175 115
3 115 175 114
3 175 176 114
3 176 166 114
3 170 177 169
3 169 177 171
3 171 177 178
3 171 178 172
3 172 178 179
3 172 179 173
3 173 179 180
3 173 180 174
3 174 180 181
3 174 181 175
3 184 183 182
3 117 118 182
3 118 184 182
3 118 185 184
3 186 118 119
3 186 185 118
3 188 187 121
3 187 119 121
3 187 186 119
3 188 189 187
3 191 190 124
3 124 190 123
3 125 182 183
3 191 125 183
3 124 125 191
3 182 125 117
3 126 188 121
3 192 189 188
3 126 192 188
3 127 192 126
3 127 129 192
3 192 129 193
3 195 194 132
3 132 194 131
3 132 123 190
3 132 190 195
3 196 193 129
3 196 129 133
3 133 135 196
3 196 135 197
3 199 198 138
3 138 198 137
3 138 131 194
3 138 194 199
3 200 197 135
3 200 135 139
3 139 141 200
3 200 141 201
3 204 203 202
3 198 204 202
3 143 198 202
3 137 198 143
3 144 201 141
3 144 205 201
3 202 203 206
3 206 203 207
3 206 146 143
3 206 143 202
3 148 209 208
3 205 148 208
3 144 148 205
3 206 207 210
3 210 207 211
3 210 150 146
3 210 146 206
3 154 209 148
3 210 211 212
3 212 211 213
3 214 156 150
3 210 214 150
3 212 214 210
3 215 157 156
3 215 156 214
3 216 158 157
3 216 157 215
3 216 160 158
3 213 217 212
3 219 218 217
3 218 212 217
3 218 214 212
3 214 220 215
3 214 218 220
3 215 221 216
3 215 220 221
3 222 167 160
3 216 222 160
3 221 222 216
3 223 168 167
3 223 167 222
3 223 170 168
3 225 224 176
3 225 176 175
3 219 226 218
3 218 226 220
3 220 226 227
3 220 227 221
3 221 227 228
3 221 228 222
3 222 228 229
3 231 230 229
3 230 222 229
3 230 223 222
3 232 177 170
3 223 232 170
3 230 232 223
3 233 178 177
3 233 177 232
3 234 179 178
3 234 178 233
3 235 180 179
3 235 179 234
3 180 235 236
3 237 180 236
3 181 180 237
3 175 181 225
3 225 181 237
3 230 231 238
3 238 231 239
3 241 232 240
3 232 238 240
3 232 230 238
3 232 241 233
3 233 241 242
3 233 242 234
3 234 242 243
3 234 243 235
3 235 243 244
3 235 244 236
3 239 245 238
3 238 245 240
3 247 246 184
3 184 246 183
3 248 184 185
3 248 247 184
3 249 185 186
3 249 248 185
3 250 186 187
3 250 249 186
3 252 251 189
3 251 187 189
3 251 250 187
3 252 253 251
3 256 255 254
3 190 191 254
3 191 256 254
3 191 257 256
3 191 183 246
3 191 246 257
3 192 252 189
3 259 258 193
3 193 258 192
3 258 253 192
3 253 252 192
3 259 260 258
3 254 255 195
3 255 194 195
3 255 261 194
3 254 195 190
3 196 259 193
3 263 262 197
3 197 262 196
3 262 260 196
3 260 259 196
3 263 264 262
3 266 265 199
3 199 265 198
3 199 194 261
3 199 261 266
3 200 263 197
3 200 201 263
3 201 264 263
3 201 267 264
3 269 268 204
3 204 268 203
3 204 198 265
3 204 265 269
3 205 267 201
3 205 270 267
3 268 207 203
3 271 207 268
3 272 270 205
3 272 205 208
3 275 274 273
3 271 275 273
3 211 271 273
3 207 271 211
3 278 277 276
3 278 276 274
3 276 273 274
3 276 279 273
3 279 213 211
3 279 211 273
3 277 280 276
3 276 280 279
3 279 280 281
3 281 283 282
3 281 282 217
3 279 281 217
3 213 279 217
3 282 219 217
3 285 284 224
3 285 224 225
3 282 283 286
3 286 283 287
3 288 226 219
3 282 288 219
3 286 288 282
3 289 227 226
3 289 226 288
3 290 228 227
3 290 227 289
3 291 229 228
3 291 228 290
3 291 231 229
3 293 292 237
3 293 237 236
3 225 237 285
3 285 237 292
3 287 294 286
3 296 295 294
3 295 286 294
3 295 288 286
3 288 297 289
3 288 295 297
3 289 298 290
3 289 297 298
3 290 299 291
3 290 298 299
3 299 239 231
3 299 231 291
3 240 300 241
3 301 242 241
3 301 241 300
3 302 243 242
3 302 242 301
3 243 302 303
3 304 243 303
3 244 243 304
3 236 244 293
3 293 244 304
3 296 305 295
3 295 305 297
3 297 305 306
3 297 306 298
3 298 306 307
3 298 307 299
3 299 307 308
3 299 308 239
3 308 245 239
3 308 309 245
3 240 245 300
3 245 310 300
3 245 309 310
3 300 310 301
3 301 310 311
3 301 311 302
3 302 311 312
3 302 312 303
3 315 314 313
3 317 316 313
3 313 316 315
3 317 318 316
3 320 319 247
3 247 319 246
3 248 313 314
3 320 248 314
3 247 248 320
3 313 248 249
3 313 249 317
3 321 318 317
3 249 321 317
3 250 321 249
3 322 250 251
3 322 321 250
3 251 253 322
3 322 253 323
3 325 324 256
3 256 324 255
3 326 256 257
3 326 325 256
3 257 246 319
3 257 319 326
3 327 323 253
3 327 253 258
3 258 260 327
3 327 260 328
3 331 330 329
3 324 331 329
3 261 324 329
3 255 324 261
3 332 328 260
3 332 260 262
3 262 264 332
3 332 264 333
3 336 335 334
3 336 334 330
3 330 334 329
3 334 265 329
3 265 266 329
3 329 266 261
3 267 333 264
3 267 337 333
3 334 335 269
3 335 268 269
3 335 338 268
3 334 269 265
3 270 337 267
3 270 339 337
3 342 341 340
3 338 342 340
3 271 338 340
3 268 338 271
3 343 339 270
3 343 270 272
3 340 341 275
3 341 274 275
3 341 344 274
3 340 275 271
3 346 345 278
3 278 345 277
3 278 274 344
3 278 344 346
3 280 277 347
3 277 348 347
3 277 345 348
3 349 281 280
3 349 280 347
3 349 283 281
3 351 350 284
3 351 284 285
3 348 352 347
3 347 352 349
3 349 352 353
3 283 349 353
3 354 283 353
3 287 283 354
3 293 355 292
3 355 356 292
3 356 285 292
3 356 351 285
3 354 357 287
3 287 357 294
3 296 294 357
3 296 357 358
3 303 359 304
3 359 360 304
3 304 360 293
3 360 361 293
3 361 355 293
3 355 361 356
3 358 362 296
3 296 362 305
3 362 364 363
3 306 362 363
3 305 362 306
3 365 307 306
3 365 306 363
3 366 308 307
3 366 307 365
3 367 309 308
3 367 308 366
3 368 310 309
3 368 309 367
3 310 368 369
3 370 310 369
3 311 310 370
3 311 371 312
3 370 371 311
3 303 312 359
3 312 372 359
3 312 371 372
3 359 372 360
3 375 374 373
3 373 376 375
3 373 374 315
3 374 314 315
3 374 377 314
3 378 376 373
3 315 378 373
3 316 378 315
3 316 318 378
3 378 318 379
3 382 381 380
3 319 320 380
3 320 382 380
3 320 383 382
3 320 314 377
3 320 377 383
3 384 379 318
3 384 318 321
3 385 321 322
3 385 384 321
3 322 323 385
3 385 323 386
3 388 387 325
3 325 387 324
3 326 380 381
3 388 326 381
3 325 326 388
3 380 326 319
3 389 386 323
3 389 323 327
3 327 328 389
3 389 328 390
3 391 330 331
3 392 391 331
3 324 392 331
3 387 392 324
3 328 332 393
3 394 328 393
3 390 328 394
3 333 393 332
3 395 335 336
3 396 395 336
3 396 336 330
3 397 396 330
3 391 397 330
3 397 391 392
3 398 394 393
3 393 333 398
3 333 399 398
3 333 337 399
3 401 400 395
3 400 335 395
3 400 338 335
3 401 395 396
3 339 399 337
3 339 402 399
3 405 404 403
3 341 342 403
3 342 405 403
3 342 406 405
3 342 338 400
3 342 400 406
3 407 402 339
3 407 339 343
3 403 404 408
3 408 404 409
3 408 344 341
3 408 341 403
3 412 411 410
3 408 409 346
3 409 345 346
3 409 413 345
3 408 346 344
3 412 410 414
3 412 414 415
3 413 348 345
3 416 348 413
3 415 414 350
3 351 415 350
3 417 415 351
3 416 418 348
3 348 418 352
3 418 420 419
3 353 418 419
3 352 418 353
3 419 354 353
3 423 422 421
3 422 417 421
3 417 356 421
3 417 351 356
3 420 424 419
3 424 426 425
3 424 425 357
3 419 424 357
3 354 419 357
3 425 358 357
3 429 428 427
3 427 428 423
3 427 423 421
3 360 427 421
3 361 360 421
3 361 421 356
3 426 430 425
3 425 430 358
3 430 362 358
3 430 431 362
3 433 432 364
3 362 433 364
3 431 433 362
3 434 432 433
3 369 435 370
3 370 435 436
3 437 370 436
3 371 370 437
3 427 372 429
3 372 437 429
3 372 371 437
3 372 427 360
3 439 438 375
3 375 438 374
3 375 376 439
3 439 376 440
3 438 377 374
3 441 377 438
3 442 440 376
3 442 376 378
3 378 379 442
3 442 379 443
3 445 444 382
3 382 444 381
3 446 382 383
3 446 445 382
3 383 377 441
3 383 441 446
3 447 443 379
3 447 379 384
3 449 447 448
3 447 385 448
3 447 384 385
3 386 448 385
3 450 387 388
3 451 450 388
3 381 451 388
3 444 451 381
3 452 449 448
3 452 448 386
3 389 452 386
3 453 452 389
3 389 390 453
3 453 390 454
3 456 455 450
3 455 387 450
3 455 392 387
3 456 450 451
3 394 454 390
3 394 457 454
3 458 396 397
3 459 458 397
3 392 459 397
3 455 459 392
3 460 457 394
3 460 394 398
3 398 399 460
3 460 399 461
3 462 400 401
3 396 458 401
3 458 462 401
3 458 463 462
3 458 459 464
3 458 464 463
3 402 461 399
3 402 465 461
3 466 404 405
3 406 467 405
3 405 467 466
3 400 462 406
3 462 467 406
3 462 468 467
3 463 470 469
3 468 463 469
3 462 463 468
3 470 463 464
3 402 407 471
3 472 402 471
3 465 402 472
3 474 473 466
3 473 404 466
3 473 409 404
3 474 466 467
3 474 467 475
3 475 467 468
3 475 468 476
3 476 468 469
3 472 471 411
3 412 472 411
3 477 472 412
3 473 413 409
3 478 413 473
3 481 480 479
3 480 477 479
3 477 415 479
3 477 412 415
3 478 416 413
3 482 416 478
3 481 479 483
3 481 483 484
3 417 483 415
3 415 483 479
3 482 485 416
3 416 485 418
3 487 486 420
3 418 487 420
3 485 487 418
3 488 486 487
3 484 483 422
3 423 484 422
3 489 484 423
3 422 483 417
3 486 424 420
3 491 490 426
3 491 426 424
3 488 491 424
3 486 488 424
3 492 490 491
3 495 494 493
3 428 429 493
3 494 428 493
3 496 428 494
3 423 428 489
3 489 428 496
3 490 430 426
3 492 497 490
3 497 430 490
3 497 431 430
3 431 498 433
3 497 498 431
3 500 499 434
3 433 500 434
3 498 500 433
3 501 499 500
3 504 503 502
3 502 503 495
3 502 495 493
3 436 502 493
3 437 436 493
3 437 493 429
3 505 438 439
3 440 505 439
3 506 441 505
3 505 441 438
3 442 507 440
3 507 505 440
3 507 506 505
3 443 507 442
3 508 444 445
3 508 445 509
3 445 510 509
3 445 446 510
3 446 441 506
3 511 446 506
3 510 446 511
3 511 506 507
3 511 507 512
3 512 507 443
3 447 512 443
3 513 512 447
3 447 449 513
3 513 449 514
3 516 515 508
3 515 444 508
3 515 451 444
3 516 508 509
3 517 514 449
3 517 449 452
3 518 452 453
3 518 517 452
3 453 454 518
3 518 454 519
3 520 455 456
3 521 520 456
3 451 521 456
3 515 521 451
3 457 519 454
3 457 522 519
3 523 459 520
3 520 459 455
3 520 521 524
3 520 524 523
3 525 522 457
3 525 457 460
3 460 461 525
3 525 461 526
3 528 527 523
3 527 459 523
3 527 464 459
3 528 523 524
3 465 526 461
3 465 529 526
3 530 469 470
3 531 530 470
3 464 531 470
3 527 531 464
3 472 529 465
3 472 532 529
3 533 473 474
3 475 534 474
3 474 534 533
3 476 535 475
3 475 535 534
3 469 530 476
3 530 535 476
3 530 536 535
3 530 531 537
3 530 537 536
3 540 539 538
3 539 532 538
3 532 477 538
3 532 472 477
3 541 478 533
3 533 478 473
3 542 533 534
3 541 533 542
3 543 534 535
3 542 534 543
3 536 545 544
3 543 536 544
3 535 536 543
3 545 536 537
3 540 538 480
3 481 540 480
3 546 540 481
3 480 538 477
3 547 482 541
3 541 482 478
3 548 541 542
3 547 541 548
3 543 550 549
3 548 543 549
3 542 543 548
3 550 543 544
3 484 546 481
3 484 551 546
3 547 485 482
3 485 547 487
3 487 547 548
3 553 552 488
3 553 488 487
3 549 553 487
3 548 549 487
3 554 552 553
3 557 556 555
3 556 551 555
3 551 489 555
3 551 484 489
3 552 491 488
3 559 558 492
3 559 492 491
3 554 559 491
3 552 554 491
3 560 558 559
3 563 562 561
3 494 495 561
3 562 494 561
3 564 494 562
3 555 496 557
3 496 564 557
3 496 494 564
3 496 555 489
3 558 497 492
3 560 565 558
3 565 497 558
3 565 498 497
3 498 566 500
3 565 566 498
3 568 567 501
3 500 568 501
3 566 568 500
3 569 567 568
3 572 571 570
3 570 571 563
3 570 563 561
3 504 570 561
3 503 504 561
3 503 561 495
3 573 509 510
3 511 574 510
3 510 574 573
3 512 575 511
3 511 575 574
3 513 576 512
3 512 576 575
3 514 576 513
3 577 515 516
3 578 577 516
3 578 516 509
3 579 578 509
3 573 579 509
3 579 573 574
3 579 574 580
3 580 574 575
3 580 575 581
3 583 582 581
3 575 583 581
3 576 583 575
3 517 584 514
3 584 576 514
3 584 583 576
3 518 585 517
3 517 585 584
3 519 585 518
3 586 521 577
3 577 521 515
3 577 578 587
3 577 587 586
3 588 582 583
3 588 583 584
3 588 584 589
3 589 584 585
3 589 585 590
3 585 519 590
3 519 591 590
3 519 522 591
3 592 524 586
3 586 524 521
3 586 587 593
3 586 593 592
3 522 525 594
3 595 522 594
3 591 522 595
3 526 594 525
3 596 527 528
3 524 592 528
3 592 596 528
3 592 597 596
3 592 593 598
3 592 598 597
3 599 595 594
3 594 526 599
3 526 600 599
3 526 529 600
3 601 531 596
3 596 531 527
3 597 603 602
3 601 597 602
3 596 597 601
3 603 597 598
3 532 600 529
3 532 604 600
3 605 537 601
3 601 537 531
3 601 602 606
3 601 606 605
3 608 607 539
3 608 539 540
3 532 539 604
3 604 539 607
3 609 544 545
3 537 605 545
3 605 609 545
3 605 610 609
3 605 606 611
3 605 611 610
3 546 608 540
3 546 612 608
3 613 549 550
3 544 609 550
3 609 613 550
3 609 614 613
3 610 616 615
3 614 610 615
3 609 610 614
3 616 610 611
3 619 618 617
3 618 612 617
3 612 551 617
3 612 546 551
3 613 553 549
3 553 613 554
3 613 620 554
3 613 614 620
3 614 615 621
3 622 614 621
3 620 614 622
3 623 622 621
3 626 625 624
3 628 627 624
3 628 624 625
3 627 628 619
3 627 619 617
3 557 627 617
3 556 557 617
3 556 617 551
3 620 559 554
3 559 620 560
3 620 629 560
3 620 622 629
3 622 623 630
3 622 630 629
3 633 632 631
3 631 632 626
3 631 626 624
3 563 631 624
3 562 563 624
3 562 624 564
3 564 624 627
3 564 627 557
3 629 565 560
3 630 634 629
3 634 565 629
3 634 566 565
3 566 635 568
3 634 635 566
3 637 636 569
3 568 637 569
3 635 637 568
3 636 637 633
3 636 633 631
3 572 636 631
3 571 572 631
3 571 631 563
3 638 578 579
3 580 639 579
3 579 639 638
3 581 640 580
3 580 640 639
3 582 640 581
3 641 587 638
3 638 587 578
3 639 643 642
3 641 639 642
3 638 639 641
3 645 644 643
3 639 645 643
3 640 645 639
3 588 646 582
3 646 640 582
3 646 645 640
3 589 647 588
3 588 647 646
3 590 648 589
3 589 648 647
3 591 648 590
3 649 593 641
3 641 593 587
3 641 642 650
3 641 650 649
3 651 644 645
3 653 652 651
3 645 653 651
3 646 653 645
3 654 646 647
3 653 646 654
3 655 647 648
3 654 647 655
3 595 655 591
3 591 655 648
3 657 656 649
3 656 593 649
3 656 598 593
3 657 649 650
3 658 652 653
3 658 653 654
3 658 654 659
3 659 654 655
3 659 655 660
3 662 660 661
3 661 660 599
3 660 655 599
3 655 595 599
3 600 661 599
3 663 602 603
3 664 663 603
3 598 664 603
3 656 664 598
3 662 661 665
3 662 665 666
3 604 665 600
3 600 665 661
3 667 606 663
3 663 606 602
3 663 664 668
3 663 668 667
3 666 665 607
3 608 666 607
3 669 666 608
3 607 665 604
3 671 670 667
3 670 606 667
3 670 611 606
3 671 667 668
3 674 673 672
3 673 669 672
3 669 612 672
3 669 608 612
3 675 615 616
3 676 675 616
3 611 676 616
3 670 676 611
3 679 678 677
3 677 678 674
3 677 674 672
3 619 677 672
3 618 619 672
3 618 672 612
3 675 621 615
3 681 680 623
3 681 623 621
3 676 681 621
3 675 676 621
3 682 680 681
3 684 683 625
3 684 625 626
3 677 628 679
3 628 683 679
3 628 625 683
3 628 677 619
3 685 630 680
3 680 630 623
3 680 682 686
3 687 680 686
3 685 680 687
3 689 688 687
3 689 687 686
3 632 633 688
3 689 632 688
3 690 632 689
3 626 632 684
3 684 632 690
3 685 634 630
3 634 685 635
3 635 685 687
3 635 687 637
3 637 687 688
3 637 688 633
3 691 642 643
3 644 691 643
3 692 650 691
3 691 650 642
3 651 693 644
3 693 691 644
3 693 692 691
3 652 693 651
3 694 656 657
3 650 692 657
3 692 694 657
3 692 695 694
3 696 692 693
3 695 692 696
3 658 697 652
3 697 693 652
3 697 696 693
3 659 698 658
3 658 698 697
3 660 699 659
3 659 699 698
3 662 699 660
3 700 664 694
3 694 664 656
3 695 702 701
3 700 695 701
3 694 695 700
3 702 695 696
3 702 696 703
3 703 696 697
3 703 697 704
3 706 705 704
3 697 706 704
3 698 706 697
3 707 698 699
3 706 698 707
3 666 707 662
3 662 707 699
3 709 708 700
3 708 664 700
3 708 668 664
3 709 700 701
3 710 705 706
3 712 711 710
3 706 712 710
3 707 712 706
3 669 712 666
3 666 712 707
3 713 670 671
3 714 713 671
3 668 714 671
3 708 714 668
3 717 716 715
3 715 716 711
3 715 711 712
3 674 715 712
3 673 674 712
3 673 712 669
3 718 676 713
3 713 676 670
3 713 714 719
3 720 713 719
3 718 713 720
3 721 720 719
3 724 723 722
3 722 723 717
3 722 717 715
3 679 722 715
3 678 679 715
3 678 715 674
3 718 681 676
3 681 718 682
3 718 725 682
3 718 720 725
3 720 721 726
3 727 720 726
3 725 720 727
3 729 728 727
3 729 727 726
3 728 729 724
3 728 724 722
3 684 728 722
3 683 684 722
3 683 722 679
3 725 686 682
3 686 725 689
3 689 725 727
3 689 727 690
3 690 727 728
3 690 728 684
3 731 730 702
3 702 730 701
3 733 731 732
3 731 703 732
3 731 702 703
3 704 734 703
3 703 734 732
3 705 734 704
3 735 708 709
3 736 735 709
3 701 736 709
3 730 736 701
3 737 733 732
3 739 738 737
3 732 739 737
3 734 739 732
3 710 740 705
3 740 734 705
3 740 739 734
3 711 740 710
3 741 714 735
3 735 714 708
3 735 736 742
3 735 742 741
3 743 738 739
3 717 744 716
3 744 739 716
3 739 740 716
3 744 743 739
3 716 740 711
3 741 719 714
3 746 745 721
3 746 721 719
3 742 746 719
3 741 742 719
3 747 745 746
3 749 748 723
3 749 723 724
3 717 723 744
3 744 723 748
3 745 726 721
3 747 750 745
3 750 726 745
3 750 729 726
3 724 729 749
3 749 729 750