OFF
540 1044 0
1.7394121614 7.3556576872 6.7571768586
1.7724409213 7.4798059857 6.5609418847
1.8407452844 7.2236602708 6.6108884635
1.9298982722 7.1898587156 6.8188357022
1.7905345807 7.6313479145 6.7211181509
2.0078199887 8.0136220278 6.4219323411
1.9918897739 7.5118258650 6.9383930135
2.0867582599 7.9546552586 6.8314815564
2.0654970884 7.4310947362 6.2317582154
2.2103186330 6.9977959948 6.5810658155
2.3920755835 7.1559948054 7.0359138447
2.1851956572 8.0746657956 5.9167710448
2.4697168482 8.3993130014 5.3798183121
2.3679924748 7.6687628079 5.6724700908
2.7102655339 7.9774020099 7.2640135460
2.3803246629 8.9931975657 5.9680067469
2.6184385181 9.3828421569 5.1615427822
2.4973378886 8.7113989137 6.7051859537
2.5706864744 9.3192258873 6.3999844158
2.6035196155 10.0324898529 5.6109699997
2.8042706408 10.3178036957 5.0615219984
2.7839475771 9.9660852350 6.1874313268
2.7956383295 10.6675240623 5.4491575117
3.0716694166 10.9582311158 5.1464115400
2.8614881602 10.5794979202 5.8093665387
3.2077297757 11.0851806777 5.5675693686
3.4126246547 5.3898582155 6.8133373106
3.5294087821 5.1802344453 6.1180689017
3.7420404398 4.7521049242 6.5528506381
3.7976973773 4.7355323834 7.0998768747
3.1914751461 5.9544040115 5.8859011795
3.4509009216 5.9526639454 5.1372131113
3.5792456024 5.4297555733 5.5122877415
2.8622598651 6.4425133788 6.7896654283
3.7115293210 5.1607450444 7.4813714610
3.4718597792 5.9653115749 7.5662717530
4.0653850938 5.3688914602 8.0663120476
3.1750968761 6.7062280438 5.0023424857
3.6195464101 6.6297767750 4.3283098938
3.5180139573 6.2136063888 4.7451110290
2.6162484245 6.9352678258 5.8792060970
3.1495703172 7.0827784087 7.5963045007
4.0147223730 6.5821849391 8.3904510126
3.3088735215 7.6713263548 4.2552047319
3.8350812213 7.9809735321 3.4787678290
3.8432088954 7.1481584436 3.7589906374
2.7597524558 7.6621817179 5.0954633354
3.2496704840 7.8285456592 7.7220027731
3.7978386024 7.7748808160 8.1048959817
3.3543751627 8.7995861884 3.9070450731
3.8577704999 8.9716466790 3.2665773784
2.8735713521 8.6320678502 4.6553205152
2.9483509110 9.5700880341 6.6981200219
3.3725588125 9.1667503918 7.2431595524
3.5785920915 8.4798394190 7.7483713922
3.5041121670 9.6097418891 3.7042658596
3.0702948403 9.7479319423 4.4027894167
3.5684893660 10.4367644836 3.8991226183
3.2860067247 10.2170493748 6.5713380029
3.5791374710 9.9614652627 6.9561724069
3.2658935828 10.7718408481 4.6138838153
3.7786538956 11.2417745169 4.1959511315
3.9883822418 10.6205286670 6.7466045413
3.4419118041 10.8208171079 6.1595066572
3.7989199235 11.5927497545 5.0168231511
3.8662058128 11.4574181110 5.7599353042
4.0983474754 15.9413804708 4.7703641985
4.3515915291 15.8256463612 4.4473769370
4.4678832908 15.5656703071 4.7058785299
4.2107276002 15.9274009089 5.0192866791
4.1027089481 16.0345759338 4.6322708704
4.4828887757 15.9788122286 4.3328901865
4.0862742851 16.1055586123 5.0396722422
4.5978446326 3.9216568694 5.7629496078
4.7775387006 3.9700162743 5.0741914626
5.2534705024 3.4718447937 5.3479630633
5.2655482234 3.1705846715 6.4618319890
4.3120160501 4.1170924614 6.8170628329
4.9276899902 3.5637977458 7.2962749569
4.6132549704 4.0461741539 7.6411219109
5.1432913372 3.7347607186 7.8518883416
4.4060187374 4.5025781824 5.0369412398
4.7094969588 4.8673720440 4.2808926530
4.7245514443 4.2797294906 4.7160040812
3.9645958368 4.7203713509 5.7877633273
4.1593083692 4.6041394621 7.6238445217
4.8789922898 4.5195400057 8.3116545733
3.9480337762 5.5837994876 4.6991839273
4.4497074786 5.7303850371 3.9181738016
4.5316249728 5.5561990231 8.7017099531
4.1217010169 6.3854202169 3.8567408766
4.5126172412 6.9516353674 3.2091431100
4.5158637349 6.1877113788 3.5507560661
4.4543521111 6.2068741909 8.9440438709
4.4871552276 6.9286592138 9.0164684570
4.6614911648 6.2771361923 9.1911406579
4.6669076253 7.0862877829 9.2655755958
4.4019115191 8.1939763242 2.8671054937
4.8216579087 7.6135169105 9.1950270244
4.5798004979 7.8365876361 8.7210558386
4.8983674025 7.5803041328 9.3414565120
4.4063064470 9.1822816956 2.7255682546
5.0811852067 9.3160865529 2.2155841798
4.9265837455 8.4778809701 2.3845724103
4.1120353867 9.2589253799 7.7279004347
4.4939114498 8.8034664726 8.1929872244
4.5457899618 10.1565707848 2.6895812058
5.2573474047 10.4434877283 2.1740195916
3.9595100551 9.9290545850 3.2373961934
4.7059633578 9.5935252155 7.8961392310
4.5218693088 10.1329566101 7.3906783305
4.7118052226 10.9385986738 2.6803974624
4.2207752334 11.0809940981 3.3659736849
4.7320243680 11.6314854867 2.9125572807
4.7278294978 10.9399319279 6.9142480989
4.6173611054 11.4598517287 6.3639352721
4.5711073717 11.9875465028 3.3799608446
4.8368496185 12.1702031923 3.0930373485
4.3791896467 12.0960508306 4.1226359740
4.8001665392 12.6458488772 5.0494146913
4.5919587389 12.0563404188 5.6464577517
4.9724908435 12.7996493984 3.4946149603
4.9011032418 13.0866325250 4.3707923789
4.7775497449 15.1432213157 4.5038075075
4.9500790131 15.3073134537 4.1865859970
4.9961253439 14.7654390519 4.2780289994
5.0439581241 14.9622006106 4.8235315454
4.8257200060 15.7983646202 4.2048751107
4.6176215760 15.7311855040 5.1217177595
4.3750701900 16.0949779801 5.2888898653
4.8972226801 16.0240670242 5.3670866137
5.1698627324 15.9142434038 4.2034607749
4.2829341562 16.2106607491 5.3287285142
4.6440638141 16.2064778278 5.4406855068
5.8276330578 2.5895874460 6.8645426235
6.0141114333 2.3978016093 6.3762168909
6.1411601933 2.2539523755 6.7512640666
6.4358857108 2.3646229005 7.0972519552
5.1868157232 4.0112853375 4.5574139015
5.7833602114 3.9327653926 4.1008634505
5.9423737730 3.4101562807 4.6727441856
6.1165080249 2.7529262929 5.5512359969
5.6810129102 3.0983852595 7.4235747103
5.9414447302 3.7377971166 8.2571270172
5.4090423233 4.5649109770 3.8423389448
5.7774972848 4.9073184189 3.3076261066
6.0714583264 4.2624451537 3.5892714687
5.7419813991 4.3808502222 8.8023693409
5.2614211427 5.0192011414 9.0278899940
6.1904289986 4.6136211959 9.1816194406
5.0627759382 5.6391849312 3.4167895775
5.8755108962 5.5123790172 2.8647179882
4.7733791762 5.7047404492 9.0965625627
5.8061439642 4.9594783850 9.2967950833
5.1027099530 5.4855221967 9.2412802630
5.4249757284 6.4240145163 2.7179923584
6.0232188500 6.8397957327 2.1938679489
6.1022920412 6.0237643991 2.4499928414
5.1495610860 7.5176283695 2.4896797987
5.8538547692 8.1679733622 1.8992238464
5.2229608365 8.2181386907 9.0914255415
5.3692330486 8.0961858495 9.3201778853
5.8552479934 9.4808114638 1.7336732572
6.0365981814 8.6497991058 9.2169441171
5.4890835046 8.8900496056 8.7256167027
6.0906862745 8.4713962900 9.3869980031
6.1529709364 10.4905259535 1.6810419088
5.0948151382 9.9762342139 7.8390374157
5.3400888528 9.6131075289 8.1774392494
5.0974930255 11.3210692515 2.4654375457
5.7708715687 11.3908658788 2.0977896858
5.1532336642 11.3248222413 6.8098050622
5.4562680159 11.0145310458 7.1780484468
5.8133997837 10.3932415562 7.7844693086
5.2923162339 12.1472553732 2.6906427799
6.3131082403 12.4704008495 2.2015493906
5.1221563455 12.5710643443 5.5821882062
5.5531700037 12.4149260931 6.0396390035
5.8622471352 11.7713644022 6.7318570611
5.6877463061 13.1037492164 2.8456421912
5.4039672085 13.6823135405 3.4200846844
6.0523594891 13.9944948383 3.0113754257
5.1214764218 13.9529705000 4.1584682597
5.4253971284 13.8632700293 4.9823476394
5.5903811031 13.0960848508 5.5243157022
5.4354031058 14.5019521886 3.7156829916
6.1496697702 14.6698138709 3.3777041710
5.5990753061 14.6926441035 5.0681412551
5.7646377905 15.0754951845 3.7595538042
5.6874958450 15.6017345825 4.0567810619
5.1413291548 15.6221475482 5.1984930923
5.6717367689 15.2589933379 5.1310642592
5.9776643381 15.8823971427 4.3932885553
5.5790152554 15.8991532830 5.2435110835
5.1924571272 16.1659591886 5.4128097420
6.5947186424 1.9497534693 6.5166578568
6.9316999319 1.7056668778 6.1205000438
7.2519660138 1.5913340764 6.3233859760
7.1884514208 1.8572750609 6.7863688166
6.5779646069 2.0668934690 5.9689743930
7.0175482397 2.2012947438 5.4382958524
7.0624581615 1.7891410077 5.8116024598
7.3440390704 2.3420745394 7.2529970547
6.4288297697 3.6890647503 3.9689267333
7.1024400621 2.9563047186 4.6051883249
6.7025914600 2.9744127368 7.7334088795
7.1479029986 3.6261679686 8.3560043484
6.5425427442 4.6616200768 3.0373515585
6.5547863482 4.0642819515 3.4936577338
6.5907177106 4.1492005182 8.8595805874
7.0998637451 4.5083139685 9.2152245324
6.4591365113 5.4269916607 2.5572864776
6.8573308862 5.8963773717 2.1894251389
6.9996304939 5.0782853827 2.5263339724
6.7368408777 4.7393866463 9.3473656521
6.9628889736 7.0050638987 1.7439068473
6.7349407270 7.9664458275 1.4642291268
7.1082629104 8.3272586915 1.2218344066
7.4989330379 7.6225836303 1.3350095511
6.5114463880 8.7744160451 1.4055460388
7.2295068795 9.0233789371 1.1278036375
6.4147463242 9.1667809712 8.9515089750
6.8926741471 8.9741748101 9.2096134598
6.9710371749 8.6717789018 9.3839139818
6.6323485568 9.6982636801 1.3488033960
7.4679775758 9.8928409382 1.1198355227
7.2681167326 9.4028878506 8.9182405209
6.4545069750 9.7694419924 8.4560459384
6.9018331265 10.4770781848 1.3643039291
6.8178382907 11.4125021022 1.6552021927
7.1312244513 10.6098933297 7.9627437044
6.6933140056 11.3304914656 7.3408590722
7.2345294803 12.3533489748 1.8028764561
6.9258036179 12.0733530456 6.8769297781
6.6569851039 12.5809092185 6.4172574981
6.3836812083 13.3960665046 2.5018782904
7.3200583544 13.3167702927 2.1438041140
6.1697666032 13.7770826286 5.4663306142
6.4494976837 13.2156056398 5.8923710744
6.7682122896 13.9208990669 2.5763359115
6.8417533159 14.4849644548 2.9774991118
7.0179491996 14.0041707949 5.5973212670
6.2506327883 14.5993772536 5.2136710443
6.8330279121 15.1102649875 3.6602895857
6.5928923137 15.5934926875 4.2720894172
6.3513851831 15.4858247558 5.0036508646
6.4102543839 15.7856317479 4.6420486322
6.0266725676 15.9554888941 4.9258593626
5.6309547678 16.1272810767 5.2550133709
7.3109496513 1.5788311306 5.9714947605
7.5353271901 1.7700327751 5.6489299490
7.7528933985 1.5430482965 6.0109921466
7.7888561160 1.5872167690 6.4413870483
7.8712300763 1.8999795464 6.8267630186
7.7755576395 2.2133783479 5.1955469436
8.1143860940 2.3637459391 7.0858446256
7.1924499830 3.8111132505 3.5400052279
8.0212142990 3.8926282025 3.2081257548
8.2432850361 3.2979814749 3.9956986099
8.1554043095 2.6692291617 4.7565563962
7.9083773950 3.0167007269 7.6583641361
8.3262841128 3.9400194091 8.3589771180
7.4695072679 4.4426786904 2.8270538205
7.7091112438 5.0947186362 2.3381131735
8.3622861158 4.3951697181 2.7165588518
7.5181604492 4.1976911077 8.8968675779
7.6930184222 4.5340147320 9.1798509073
7.8771008088 5.9232145539 1.9318360626
7.8734100589 4.8978276339 9.2986875850
8.1375191630 6.7522885485 1.5587787411
7.8304223265 8.3057985776 1.0922831216
8.4667556221 7.5110610921 1.2462360374
8.1253234505 9.1340973144 0.9783017516
8.0824318022 8.3316629996 9.4441829694
7.8533555080 8.8572679310 9.2512665269
8.5022347681 10.1160095891 1.0040071946
8.2859749833 9.4031439839 8.8830133476
7.7449194653 9.9998343266 8.4721489201
7.6575364639 10.8093511756 1.2533350080
7.9617187934 11.7717176382 1.4646852450
8.3157719100 10.6535077671 8.0132290796
7.7629322604 11.2222985906 7.6160953595
7.9267561502 12.6432766885 1.7373463267
7.5044144817 12.5625510120 6.6777328992
7.8947022889 11.9506059219 7.1417389088
8.3538076259 13.1823657548 1.8865452741
8.4244640641 12.7426804291 6.6830658802
7.5912988888 13.2765120780 6.1758886658
7.4390751772 14.1563986821 2.5479052140
8.4518051775 13.9863299346 2.3208675331
8.1270545856 14.1020215913 5.6300014706
7.3068515843 14.8416137795 5.0818075479
7.9802621178 14.7019724745 3.0438041872
8.0884632280 15.0427091818 3.7641287708
6.9061771576 15.4609600273 4.6681941167
7.6260018522 15.1639758484 4.3822517238
8.1363274825 1.7935303037 5.6473452739
8.2627806047 1.6301321621 6.0933879979
8.2574096760 1.7167224171 6.4700514104
8.6316584672 1.9054471742 6.2186706194
8.4990117045 2.2442690396 5.3235034968
8.4789227776 2.0786838188 6.6614430326
8.8096820375 2.2280364936 6.3983740290
8.8368967922 3.8163802942 3.3070939654
9.3220735743 3.4463803293 4.0497552968
9.0002281445 2.8776548565 4.8985472644
8.9355611491 2.7885882868 6.7956284848
8.8402796803 3.4385484970 7.6513615204
9.3945104667 4.1101689485 7.9427667743
8.7023345686 5.1094277992 2.2530997336
9.4207928539 4.4160048720 2.8134341773
8.2420608763 4.6044490703 8.9861779076
9.2211292197 4.9048560733 8.6100041293
8.9422392699 5.9322923630 1.8443106502
8.7574129096 5.3294339468 9.1574744181
8.6622220323 5.7544339823 9.3848917118
9.0847085532 6.1916988921 9.2895308335
9.1857737524 6.7340942974 1.5107849274
8.9037740180 6.6566431626 9.4587635512
9.1257964503 7.1236636408 9.3394419500
8.7879870818 8.3073143589 1.0229048985
9.4890400103 7.5257989445 1.2349362841
8.7285732350 7.5740498219 9.4767225094
8.7948281862 8.1354850329 9.3074159617
9.1168656511 9.1520872049 0.9182464835
8.7046970488 8.8487446448 9.1073526963
9.4650377683 9.8664105545 0.9327381936
9.1036098192 9.1599658488 8.8308660527
9.0163094477 9.8549375005 8.4349518753
8.4571517093 11.0363222121 1.1749324324
9.3439325505 10.7628407292 1.0777292035
9.4579364213 10.5978193411 7.9381123333
8.7808384827 11.3346568322 7.5678651135
8.8649803328 11.5458508756 1.2830860254
8.8930777694 12.3697557392 1.5659554788
9.1699047728 12.0845623534 7.1186031729
9.3261360578 13.2624435510 1.9006533976
9.5359545716 12.8411725003 6.6589013524
8.8304049886 13.4672181074 6.1805756407
9.7201778596 14.0452845502 2.3147366734
9.2706699360 14.0846674687 5.6156560929
8.5245701039 14.6634003720 5.0109226699
9.2448770151 14.6009941238 2.8554355375
9.0476330091 14.8998282297 3.5745550663
8.8574182587 14.9186624193 4.3159337797
8.5821589676 1.9051705999 5.8072369802
8.9426096002 2.3773300376 5.8738410408
9.6222746383 3.8772107317 3.4730499685
10.2195805185 3.8117747176 4.1404187031
9.8748813982 3.3688675733 4.8023183437
9.6482311576 3.0921904772 5.7667441994
9.7852745171 3.3386619569 6.5556415081
10.2548446289 3.5645878525 6.0949877923
9.5971150919 3.5807330118 7.2368100436
9.8607913602 5.2947879750 2.2708321616
10.2533991998 4.7100598110 2.7928677784
10.2458691469 4.2575683023 3.3452950807
10.3106910512 3.8426184514 6.7366929077
10.2035368870 4.2317495058 7.4427330006
10.1365584748 4.8775209701 8.0176038234
9.8560163879 6.1185503131 1.8266030071
9.3938753582 5.7757859900 8.9604706351
10.2273344877 5.9957058119 8.4737273372
10.2180648232 6.8335174161 1.5715371985
9.6122920119 6.6038851346 9.0212325077
10.1623612988 7.0546358872 8.7369274712
9.7841189815 8.3448176115 1.0323128610
10.4623828741 7.6580502244 1.2859711841
9.5781533473 7.5645626727 9.0565980292
10.2105310867 7.9396220661 8.6928495250
10.0606329200 9.1673746317 0.9597245357
9.4237268261 8.4714925191 8.9695438242
9.9968615730 8.9825470390 8.5473713761
10.2800476967 10.0557998627 1.0408016413
10.1436353336 9.8399836233 8.1666778217
10.1371242740 10.8920696553 1.1614760994
10.3768285063 10.4067043083 7.8473142562
10.0863528681 11.2169825031 7.4909358144
9.6640288691 11.5703704124 1.3064103854
10.2204528672 12.2401109416 1.6292605245
10.2974801987 12.1396227151 7.0144978963
10.4576676859 13.2735207102 2.0188585707
10.5285961088 12.8463935599 6.5877457948
9.9310029907 13.4730717597 6.1567894473
10.7231531117 14.0008952330 2.4187848582
10.3187222448 13.9677103162 5.5900632780
9.6680179808 14.5089643423 4.9689648893
10.2645218965 14.5164201156 2.7949475400
10.0622113818 14.7707470548 3.4314602355
9.9295564075 14.7475131596 4.2137614597
10.3976674358 3.6718373161 4.7694945096
10.3860965088 3.6090423303 5.3692212762
10.7495736779 5.2017661354 2.6236154091
10.9236295782 4.7709357877 3.2043876480
10.9339037140 4.3703877604 3.9493381556
10.9030651198 4.0812729742 4.8557514122
10.9081080424 4.1090916012 5.9629716685
10.9229670249 4.4670730805 6.8900005925
10.7673088379 4.8187485081 7.5103420133
11.5454084627 5.2742481729 7.1227102488
10.9895633640 6.1026248217 2.1494909777
11.6344050246 5.5050257647 2.9910757655
11.6156428288 4.9613293243 3.8195180324
10.9451236571 5.5146764915 7.8304760754
11.7250660014 6.1243899765 7.5827234478
11.1952787513 7.1801197284 1.6500329885
11.1537452707 6.2891608455 8.0415610006
11.0258406359 7.2185741561 8.2945989917
10.6863924788 8.4434015268 1.1253693048
11.1956469365 7.9087496612 1.3661514676
10.8354103928 8.2867537253 8.3715445257
10.8850679034 9.2151584953 1.1037572701
11.0147574549 9.0990065292 8.1420929339
11.0584289505 9.8295958230 1.1852225979
10.8418869733 10.5656687577 1.2583901808
11.5892216168 10.0108453118 1.4382030377
10.8793337446 9.8657108418 7.9429737520
11.4719923448 9.5190201047 7.8408620172
11.2479400411 10.3266312799 7.5891788080
10.4622806867 11.3253285566 1.3551688397
11.3505906876 11.1673106875 1.6180770126
11.2149522584 11.3549712190 7.1795454939
11.3644130546 12.3439800325 1.9547469753
11.1923219882 12.2467142548 6.7992065896
11.4594650045 13.2996372553 2.2922217157
11.1472905203 12.7843796190 6.5137625000
10.9664252362 13.3184597072 6.0814249569
11.5091513439 13.9257517409 2.7075533671
10.9672449063 14.3777403261 2.8125319222
11.3973837770 14.3261044050 3.1307590068
11.0163281205 13.8036396206 5.5611194404
10.7997786552 14.2371030484 4.9368161310
10.8782966792 14.5918074130 3.2892736039
10.8574010609 14.5607840970 4.0236991999
11.4987545891 4.6199108610 4.5205714494
11.6165120103 4.6462007332 5.3570322013
11.6166743196 4.8162357290 6.2996340795
12.0461289885 6.2227121488 2.5581192674
12.6313791548 6.1519322687 3.2033457409
12.3250180078 5.5606154735 3.7699146786
12.1919494496 5.2062401878 4.6935511685
12.2522743063 5.2498647510 5.7506959324
12.1692644278 5.4164357025 6.5007323436
12.4343308076 6.1178178767 6.9251947916
12.1347663567 7.0006730128 2.1199299432
12.6748804840 6.6770707460 2.6304126165
11.6795312303 6.7770944016 7.8877896141
12.3467781254 7.0262393957 7.4663456768
11.4508140195 8.5984959133 1.3238434899
11.8945242442 7.9147876514 1.6599312867
11.8737702410 7.3809237131 7.9080372037
11.6554830247 8.1638938195 8.0317633332
11.4877571388 9.3148974287 1.3003298130
12.1623937884 9.0240628103 1.6450340216
11.7847524072 8.9165445923 7.8770504893
12.2452918220 8.4681411215 7.6916487262
12.1983569775 9.3209457567 7.4994083533
12.3464476030 10.1871496583 1.8349033874
12.2869831434 10.4624097368 7.1121078471
12.4200645603 11.3636683026 2.1493742769
12.0252407983 11.5990168647 6.8067551371
12.1794155387 12.5072037174 2.3775534260
11.7968962084 12.5635290119 6.3445348926
12.5715037604 11.8636167627 6.4122828242
12.6304705318 12.4781556223 5.9013534873
12.0600917979 13.1659484175 2.5297509966
11.8161263871 13.5185300781 2.5330550637
12.1039269956 13.5038575206 2.8641465626
11.7906764976 13.4265278081 5.4555392274
12.8158628074 12.9104109828 5.1604883685
12.2846263008 13.5489573841 4.7299438567
11.5287931383 14.3124403593 3.7126418015
11.9173441873 13.9435976670 3.3002122661
11.6298943521 14.0680368697 4.5118826588
12.1607188084 13.8092461592 4.0226340794
12.8154408326 5.9637439671 3.7865483239
12.8526198570 5.8595922260 4.3926478864
12.8371811094 5.7878779800 5.3149688686
12.7350417756 5.8529768963 6.1736907144
12.9454091432 7.2515121009 2.4516693816
13.3628756325 7.0474794629 3.1210792113
13.2804693629 6.4687336304 3.9835830027
13.3436149634 6.3902896242 4.9748370951
13.2509747722 6.3556653602 5.8331137116
13.0536269317 6.4070877044 6.4554478563
13.0283876538 6.9987611981 6.8188388380
12.8138360446 8.0643960228 2.1001052046
13.3726122578 7.7243298169 2.5534618043
12.2878468211 7.8229527166 7.6915385065
12.8740238129 8.1491493923 7.1543631054
13.0455061341 9.2814770706 2.1143497806
13.0072435590 9.4023404929 6.9694550538
13.1465637315 10.3483010661 2.2828510009
13.0928891347 10.1968436836 6.7950907027
13.4820758898 9.6645633313 6.6131858863
13.4656619249 10.4901785816 6.4376419125
13.2208448513 11.0842713974 2.5308404398
13.0066137822 11.9087911497 2.8151263444
13.5456033646 11.2563000934 2.9032713390
12.8523047457 11.0289546257 6.6512806704
13.3094572345 11.5962127648 6.0583517295
12.5437940693 12.8572686592 2.9102777007
13.6407752412 11.6946377651 3.4695473367
13.1074415603 12.5729728901 3.6677230809
13.6025392619 12.1774991533 4.1840212703
13.2037252115 12.3231791169 5.6182462925
12.4895419470 13.3587722117 3.4946732665
13.2953131125 12.6067569026 4.5938283540
12.7495161300 13.1894768149 4.2974816985
13.3889662004 12.4335114228 5.2020082310
13.7538452732 7.0767041220 3.9765689727
13.7498218158 7.0187347118 4.7440459577
13.6269658127 6.9810587348 5.6259735662
13.3947435963 6.8476610016 6.2599267824
13.5359230645 8.5665554265 2.4523299132
13.7192244827 7.9117600920 2.8698265036
13.9009833549 7.4222211653 3.7331550968
14.1287638985 7.6129022002 4.3997482523
14.0328130553 7.4735202541 4.5343485681
13.9130854005 7.7371595719 5.5058741214
13.5147864321 7.5619315585 6.3344619348
13.7229370333 9.6916472439 2.5770262873
13.8768186841 8.9684541546 2.6819887710
14.1237411992 7.8596860554 5.0471262013
13.9679049678 8.4892547859 5.8223110275
13.7659897308 9.6351725688 6.2856660768
13.6103784811 8.6635516846 6.4131964134
13.6647909389 10.6173294920 2.7161596444
14.0464356140 9.8545672307 2.8684662591
14.0006201386 10.4310091222 2.9910332144
14.1201972782 10.4392524752 3.1316954516
13.7696837320 10.9256062724 6.0120185600
13.8510215591 11.0101875161 3.1043321473
13.9895893380 11.0720937801 3.4121587141
13.8191334408 11.6191870920 5.5579857687
13.9647653256 11.3988649469 5.5761878524
13.9548451866 11.7167713142 5.0933581963
13.7296093762 12.0778612718 4.9324105238
13.8730234333 11.7679463712 4.2322925255
13.5697324950 12.0322940355 5.5122334069
3 2 1 0
3 0 3 2
3 0 1 4
3 4 1 5
3 3 0 6
3 6 0 4
3 5 7 4
3 4 7 6
3 9 8 2
3 2 8 1
3 2 3 9
3 9 3 10
3 13 12 11
3 8 13 11
3 5 8 11
3 1 8 5
3 6 10 3
3 6 14 10
3 11 12 15
3 15 12 16
3 11 15 5
3 15 17 5
3 17 7 5
3 15 18 17
3 6 7 14
3 14 7 17
3 15 16 19
3 19 16 20
3 18 15 21
3 21 15 19
3 19 20 22
3 22 20 23
3 21 19 24
3 24 19 22
3 23 25 22
3 22 25 24
3 28 27 26
3 26 29 28
3 32 31 30
3 32 30 27
3 30 26 27
3 30 33 26
3 29 26 34
3 26 35 34
3 26 33 35
3 35 36 34
3 39 38 37
3 39 37 31
3 37 30 31
3 37 40 30
3 40 8 9
3 33 40 9
3 30 40 33
3 33 9 10
3 41 33 10
3 35 33 41
3 36 35 42
3 42 35 41
3 45 44 43
3 45 43 38
3 43 37 38
3 43 46 37
3 46 12 13
3 40 46 13
3 37 46 40
3 40 13 8
3 14 47 41
3 14 41 10
3 42 41 48
3 48 41 47
3 43 44 49
3 49 44 50
3 43 51 46
3 43 49 51
3 51 16 12
3 51 12 46
3 18 52 17
3 52 53 17
3 17 53 14
3 53 54 14
3 54 47 14
3 47 54 48
3 50 55 49
3 57 56 55
3 56 49 55
3 56 51 49
3 56 20 16
3 56 16 51
3 21 58 52
3 21 52 18
3 53 52 59
3 59 52 58
3 56 57 60
3 60 57 61
3 60 23 20
3 60 20 56
3 63 62 58
3 21 63 58
3 24 63 21
3 58 62 59
3 61 64 60
3 60 64 23
3 64 25 23
3 64 65 25
3 24 25 63
3 63 25 65
3 68 67 66
3 66 69 68
3 66 67 70
3 70 67 71
3 69 66 72
3 72 66 70
3 75 74 73
3 77 76 73
3 73 76 75
3 79 78 77
3 77 78 76
3 79 80 78
3 83 82 81
3 83 81 74
3 81 73 74
3 81 84 73
3 84 27 28
3 77 84 28
3 73 84 77
3 77 28 29
3 85 77 29
3 79 77 85
3 80 79 86
3 86 79 85
3 81 82 87
3 87 82 88
3 87 31 32
3 84 87 32
3 81 87 84
3 84 32 27
3 34 85 29
3 34 36 85
3 36 86 85
3 36 89 86
3 92 91 90
3 92 90 88
3 88 90 87
3 90 38 87
3 38 39 87
3 87 39 31
3 42 94 93
3 89 42 93
3 36 42 89
3 96 95 94
3 94 95 93
3 90 91 45
3 91 44 45
3 91 97 44
3 90 45 38
3 99 98 94
3 42 99 94
3 48 99 42
3 94 98 96
3 96 98 100
3 103 102 101
3 97 103 101
3 50 97 101
3 44 97 50
3 53 104 54
3 104 105 54
3 105 48 54
3 105 99 48
3 101 102 106
3 106 102 107
3 108 55 50
3 101 108 50
3 106 108 101
3 108 57 55
3 110 109 104
3 53 110 104
3 59 110 53
3 104 109 105
3 107 111 106
3 113 112 111
3 112 106 111
3 112 108 106
3 112 61 57
3 112 57 108
3 115 114 62
3 115 62 63
3 59 62 110
3 110 62 114
3 112 113 116
3 116 113 117
3 118 64 61
3 112 118 61
3 116 118 112
3 64 118 119
3 120 64 119
3 65 64 120
3 63 65 115
3 115 65 120
3 117 121 116
3 116 121 118
3 118 121 122
3 118 122 119
3 125 124 123
3 123 126 125
3 123 124 68
3 124 67 68
3 124 127 67
3 129 128 69
3 69 128 68
3 128 126 68
3 126 123 68
3 129 130 128
3 127 71 67
3 131 71 127
3 72 132 129
3 72 129 69
3 130 129 133
3 133 129 132
3 136 135 134
3 134 137 136
3 140 139 138
3 74 75 138
3 75 140 138
3 75 141 140
3 76 134 135
3 141 76 135
3 75 76 141
3 142 137 134
3 76 142 134
3 78 142 76
3 78 80 142
3 142 80 143
3 146 145 144
3 146 144 139
3 139 144 138
3 144 82 138
3 82 83 138
3 138 83 74
3 86 148 147
3 143 86 147
3 80 86 143
3 148 149 147
3 144 145 150
3 150 145 151
3 150 88 82
3 150 82 144
3 89 152 148
3 89 148 86
3 149 148 153
3 148 154 153
3 148 152 154
3 157 156 155
3 157 155 151
3 151 155 150
3 155 91 150
3 91 92 150
3 150 92 88
3 93 152 89
3 152 93 95
3 152 95 154
3 155 156 158
3 158 156 159
3 158 97 91
3 158 91 155
3 99 160 98
3 161 100 98
3 161 98 160
3 158 159 103
3 159 102 103
3 159 162 102
3 158 103 97
3 164 163 160
3 99 164 160
3 105 164 99
3 160 163 161
3 161 163 165
3 162 107 102
3 166 107 162
3 110 167 109
3 167 168 109
3 168 105 109
3 168 164 105
3 111 107 169
3 107 170 169
3 107 166 170
3 169 113 111
3 115 171 114
3 171 172 114
3 114 172 110
3 172 173 110
3 173 167 110
3 167 173 168
3 169 170 174
3 174 170 175
3 174 117 113
3 174 113 169
3 119 176 120
3 176 177 120
3 120 177 115
3 177 178 115
3 178 171 115
3 171 178 172
3 175 179 174
3 179 181 180
3 179 180 121
3 174 179 121
3 117 174 121
3 182 122 121
3 182 121 180
3 182 183 122
3 122 183 119
3 183 184 119
3 184 176 119
3 176 184 177
3 180 181 185
3 185 181 186
3 185 124 125
3 182 185 125
3 180 185 182
3 125 126 182
3 126 183 182
3 126 187 183
3 186 188 185
3 124 185 188
3 189 124 188
3 127 124 189
3 126 128 190
3 191 126 190
3 187 126 191
3 130 190 128
3 189 131 127
3 192 131 189
3 193 191 190
3 190 130 193
3 130 194 193
3 130 133 194
3 197 196 195
3 195 198 197
3 201 200 199
3 201 199 196
3 196 199 195
3 199 135 195
3 135 136 195
3 136 137 195
3 137 198 195
3 137 202 198
3 204 203 140
3 140 203 139
3 141 199 200
3 204 141 200
3 140 141 204
3 199 141 135
3 205 202 137
3 205 137 142
3 142 143 205
3 205 143 206
3 208 207 146
3 146 207 145
3 146 139 203
3 146 203 208
3 209 206 143
3 209 143 147
3 147 149 209
3 209 149 210
3 213 212 211
3 207 213 211
3 151 207 211
3 145 207 151
3 214 210 149
3 214 149 153
3 211 212 157
3 212 156 157
3 212 215 156
3 211 157 151
3 218 217 216
3 215 218 216
3 159 215 216
3 156 215 159
3 216 217 219
3 219 217 220
3 219 162 159
3 219 159 216
3 164 221 163
3 163 221 222
3 223 163 222
3 165 163 223
3 219 220 224
3 224 220 225
3 224 166 162
3 224 162 219
3 227 226 221
3 164 227 221
3 168 227 164
3 221 226 222
3 225 228 224
3 166 224 228
3 229 166 228
3 170 166 229
3 231 230 173
3 231 173 172
3 168 173 227
3 227 173 230
3 229 175 170
3 232 175 229
3 234 233 178
3 234 178 177
3 172 178 231
3 231 178 233
3 179 175 235
3 175 236 235
3 175 232 236
3 235 181 179
3 183 237 184
3 237 238 184
3 238 177 184
3 238 234 177
3 236 239 235
3 181 235 239
3 240 181 239
3 186 181 240
3 242 241 237
3 183 242 237
3 187 242 183
3 237 241 238
3 240 243 186
3 186 243 188
3 189 188 243
3 189 243 244
3 191 242 187
3 191 245 242
3 247 192 246
3 192 244 246
3 192 189 244
3 248 247 193
3 247 245 193
3 245 191 193
3 245 247 246
3 194 248 193
3 251 250 249
3 196 197 249
3 197 251 249
3 197 252 251
3 197 198 252
3 252 198 253
3 249 250 201
3 250 200 201
3 250 254 200
3 249 201 196
3 202 253 198
3 202 255 253
3 258 257 256
3 203 204 256
3 204 258 256
3 204 259 258
3 204 200 254
3 204 254 259
3 260 255 202
3 260 202 205
3 205 206 260
3 260 206 261
3 264 263 262
3 264 262 257
3 257 262 256
3 262 207 256
3 207 208 256
3 256 208 203
3 265 261 206
3 265 206 209
3 209 210 265
3 265 210 266
3 262 263 213
3 263 212 213
3 263 267 212
3 262 213 207
3 268 266 210
3 268 210 214
3 267 215 212
3 269 215 267
3 271 270 218
3 218 270 217
3 218 215 269
3 218 269 271
3 270 220 217
3 272 220 270
3 274 273 223
3 274 223 222
3 272 225 220
3 275 225 272
3 277 276 226
3 277 226 227
3 222 226 274
3 274 226 276
3 275 278 225
3 225 278 228
3 229 228 278
3 229 278 279
3 281 280 230
3 281 230 231
3 227 230 277
3 277 230 280
3 279 232 229
3 282 232 279
3 234 283 233
3 283 284 233
3 284 231 233
3 284 281 231
3 282 236 232
3 285 236 282
3 287 286 283
3 234 287 283
3 238 287 234
3 283 286 284
3 239 236 288
3 236 289 288
3 236 285 289
3 288 240 239
3 291 290 241
3 291 241 242
3 238 241 287
3 287 241 290
3 289 292 288
3 288 292 240
3 292 243 240
3 292 293 243
3 295 294 244
3 243 295 244
3 293 295 243
3 295 291 294
3 291 245 294
3 291 242 245
3 294 246 244
3 246 294 245
3 297 296 251
3 251 296 250
3 299 297 298
3 297 252 298
3 297 251 252
3 253 298 252
3 296 254 250
3 300 254 296
3 299 298 301
3 299 301 302
3 255 301 253
3 253 301 298
3 304 303 258
3 258 303 257
3 305 258 259
3 305 304 258
3 259 254 300
3 259 300 305
3 306 302 301
3 306 301 255
3 260 306 255
3 307 306 260
3 260 261 307
3 307 261 308
3 310 309 264
3 264 309 263
3 264 257 303
3 264 303 310
3 261 265 311
3 312 261 311
3 308 261 312
3 266 311 265
3 309 267 263
3 313 267 309
3 314 312 311
3 316 314 315
3 315 314 268
3 314 311 268
3 311 266 268
3 313 269 267
3 317 269 313
3 316 315 318
3 316 318 319
3 321 320 271
3 271 320 270
3 271 269 317
3 271 317 321
3 319 318 322
3 319 322 323
3 320 272 270
3 324 272 320
3 323 322 273
3 274 323 273
3 325 323 274
3 324 275 272
3 326 275 324
3 328 327 276
3 328 276 277
3 274 276 325
3 325 276 327
3 278 275 329
3 275 330 329
3 275 326 330
3 329 279 278
3 332 331 280
3 332 280 281
3 277 280 328
3 328 280 331
3 330 333 329
3 279 329 333
3 334 279 333
3 282 279 334
3 284 332 281
3 284 335 332
3 334 285 282
3 336 285 334
3 338 337 286
3 338 286 287
3 284 286 335
3 335 286 337
3 336 289 285
3 339 289 336
3 341 340 290
3 341 290 291
3 287 290 338
3 338 290 340
3 339 342 289
3 289 342 292
3 292 343 293
3 342 343 292
3 293 344 295
3 343 344 293
3 291 295 341
3 341 295 344
3 345 296 297
3 299 345 297
3 346 300 345
3 345 300 296
3 302 346 299
3 299 346 345
3 347 303 304
3 347 304 348
3 304 349 348
3 304 305 349
3 305 300 346
3 350 305 346
3 349 305 350
3 352 350 351
3 351 350 306
3 350 346 306
3 346 302 306
3 307 353 306
3 306 353 351
3 308 353 307
3 355 354 310
3 310 354 309
3 310 303 347
3 356 310 347
3 355 310 356
3 356 347 348
3 357 352 351
3 357 351 353
3 357 353 358
3 353 308 358
3 308 359 358
3 308 312 359
3 354 313 309
3 360 313 354
3 312 314 361
3 362 312 361
3 359 312 362
3 316 361 314
3 360 317 313
3 363 317 360
3 362 361 364
3 362 364 365
3 319 364 316
3 316 364 361
3 367 366 321
3 321 366 320
3 321 317 363
3 321 363 367
3 365 364 368
3 365 368 369
3 323 368 319
3 319 368 364
3 366 324 320
3 370 324 366
3 369 368 371
3 369 371 372
3 325 371 323
3 323 371 368
3 370 326 324
3 373 326 370
3 372 371 327
3 328 372 327
3 374 372 328
3 327 371 325
3 373 330 326
3 375 330 373
3 377 376 331
3 377 331 332
3 328 331 374
3 374 331 376
3 375 378 330
3 330 378 333
3 334 333 378
3 334 378 379
3 335 377 332
3 335 380 377
3 379 336 334
3 381 336 379
3 383 382 337
3 383 337 338
3 335 337 380
3 380 337 382
3 381 339 336
3 384 339 381
3 386 385 340
3 386 340 341
3 338 340 383
3 383 340 385
3 384 387 339
3 339 387 342
3 342 388 343
3 387 388 342
3 343 389 344
3 388 389 343
3 341 344 386
3 386 344 389
3 390 348 349
3 350 391 349
3 349 391 390
3 352 391 350
3 392 354 355
3 356 393 355
3 355 393 392
3 394 393 356
3 394 356 348
3 395 394 348
3 390 395 348
3 395 390 391
3 395 391 396
3 396 391 352
3 357 396 352
3 397 396 357
3 399 397 398
3 397 358 398
3 397 357 358
3 359 398 358
3 401 400 392
3 400 354 392
3 400 360 354
3 401 392 393
3 401 393 402
3 402 393 394
3 399 398 403
3 399 403 404
3 362 403 359
3 359 403 398
3 400 363 360
3 405 363 400
3 406 404 403
3 403 362 406
3 362 407 406
3 362 365 407
3 409 408 367
3 367 408 366
3 367 363 405
3 367 405 409
3 369 407 365
3 369 410 407
3 408 370 366
3 411 370 408
3 372 410 369
3 372 412 410
3 414 373 413
3 373 411 413
3 373 370 411
3 415 414 413
3 418 417 416
3 417 412 416
3 412 374 416
3 412 372 374
3 419 375 414
3 414 375 373
3 414 415 420
3 414 420 419
3 418 416 376
3 377 418 376
3 421 418 377
3 376 416 374
3 419 378 375
3 379 378 419
3 420 379 419
3 422 379 420
3 380 421 377
3 380 423 421
3 422 381 379
3 424 381 422
3 426 425 382
3 426 382 383
3 380 382 423
3 423 382 425
3 428 384 427
3 384 424 427
3 384 381 424
3 429 428 427
3 431 430 385
3 431 385 386
3 383 385 426
3 426 385 430
3 428 387 384
3 429 432 428
3 432 387 428
3 432 388 387
3 388 433 389
3 432 433 388
3 386 389 431
3 431 389 433
3 434 394 395
3 396 435 395
3 395 435 434
3 397 436 396
3 396 436 435
3 399 436 397
3 437 400 401
3 437 401 438
3 401 439 438
3 401 402 439
3 402 394 434
3 440 402 434
3 439 402 440
3 440 434 435
3 440 435 441
3 441 435 436
3 441 436 442
3 436 399 442
3 399 443 442
3 399 404 443
3 445 444 437
3 444 400 437
3 444 405 400
3 445 437 438
3 404 406 446
3 447 404 446
3 443 404 447
3 407 446 406
3 448 408 409
3 449 448 409
3 405 449 409
3 444 449 405
3 450 447 446
3 446 407 450
3 407 451 450
3 407 410 451
3 452 411 448
3 448 411 408
3 448 449 453
3 448 453 452
3 456 455 454
3 455 451 454
3 451 412 454
3 451 410 412
3 452 413 411
3 415 413 452
3 453 415 452
3 457 415 453
3 456 454 417
3 418 456 417
3 458 456 418
3 417 454 412
3 457 420 415
3 459 420 457
3 421 458 418
3 421 460 458
3 459 422 420
3 461 422 459
3 464 463 462
3 463 460 462
3 460 423 462
3 460 421 423
3 466 424 465
3 424 461 465
3 424 422 461
3 467 466 465
3 470 469 468
3 468 469 464
3 468 464 462
3 426 468 462
3 425 426 462
3 425 462 423
3 466 427 424
3 472 471 429
3 472 429 427
3 467 472 427
3 466 467 427
3 474 473 471
3 474 471 472
3 473 474 470
3 473 470 468
3 431 473 468
3 430 431 468
3 430 468 426
3 471 432 429
3 432 471 433
3 433 471 473
3 433 473 431
3 475 438 439
3 440 476 439
3 439 476 475
3 441 477 440
3 440 477 476
3 442 478 441
3 441 478 477
3 443 478 442
3 479 444 445
3 480 479 445
3 480 445 438
3 481 480 438
3 475 481 438
3 481 475 476
3 481 476 482
3 482 476 477
3 482 477 483
3 483 477 478
3 483 478 484
3 478 443 484
3 443 485 484
3 443 447 485
3 487 486 479
3 486 444 479
3 486 449 444
3 487 479 480
3 447 450 488
3 489 447 488
3 485 447 489
3 451 488 450
3 486 453 449
3 490 453 486
3 489 488 455
3 456 489 455
3 491 489 456
3 455 488 451
3 490 457 453
3 492 457 490
3 495 494 493
3 494 491 493
3 491 458 493
3 491 456 458
3 497 459 496
3 459 492 496
3 459 457 492
3 498 497 496
3 495 493 499
3 495 499 500
3 460 499 458
3 458 499 493
3 501 461 497
3 497 461 459
3 497 498 502
3 503 497 502
3 501 497 503
3 504 503 502
3 500 499 463
3 464 500 463
3 505 500 464
3 463 499 460
3 501 465 461
3 465 501 467
3 501 506 467
3 501 503 506
3 503 504 507
3 508 503 507
3 506 503 508
3 469 470 508
3 507 469 508
3 509 469 507
3 464 469 505
3 505 469 509
3 506 472 467
3 472 506 474
3 474 506 508
3 474 508 470
3 510 480 481
3 482 511 481
3 481 511 510
3 483 512 482
3 482 512 511
3 484 513 483
3 483 513 512
3 485 513 484
3 514 486 487
3 515 514 487
3 515 487 480
3 516 515 480
3 510 516 480
3 518 517 516
3 510 518 516
3 511 518 510
3 519 511 512
3 518 511 519
3 520 512 513
3 519 512 520
3 489 520 485
3 485 520 513
3 521 490 514
3 514 490 486
3 514 515 522
3 514 522 521
3 523 517 518
3 523 518 519
3 523 519 524
3 526 525 524
3 519 526 524
3 520 526 519
3 491 526 489
3 489 526 520
3 527 492 521
3 521 492 490
3 521 522 528
3 529 521 528
3 527 521 529
3 530 529 528
3 525 526 494
3 495 525 494
3 531 525 495
3 494 526 491
3 527 496 492
3 496 527 498
3 527 532 498
3 527 529 532
3 529 530 533
3 529 533 532
3 536 535 534
3 535 531 534
3 531 500 534
3 531 495 500
3 532 502 498
3 538 537 504
3 538 504 502
3 533 538 502
3 532 533 502
3 537 538 536
3 534 537 536
3 539 537 534
3 505 539 500
3 500 539 534
3 537 507 504
3 507 537 509
3 509 537 539
3 509 539 505