OFF
1352 2674 0
1.4863449253 20.8575682648 6.3236400051
1.6769993545 20.7423724969 5.6006753006
1.7910005432 20.2355840003 6.0784928460
1.6629026761 20.4779529781 6.5719207720
1.4177420968 21.4019714031 6.0542468850
1.5637427333 21.3191278559 5.5595003016
1.5420554762 20.9217430050 6.9445186895
1.3774384376 21.5303340201 6.8593729590
1.5122733470 21.3535259323 7.3760874948
1.4976339787 21.8227321925 7.5392993126
1.6994518555 21.5922351790 7.8243729396
1.5998491545 21.8921007512 5.7223016197
1.4255977745 22.0767810359 6.4579362468
1.5576920876 22.3775676059 6.1708051795
1.5089328574 22.2705104041 7.2501884006
1.8695143557 22.3179978951 8.1454910071
1.7168030772 22.8293531304 6.7023984197
1.7750080935 22.8597819813 7.5700366353
2.0389012733 19.9639350872 5.4830383309
2.3212156747 19.7560413645 5.0033086791
2.4216831063 19.4196142782 5.4040972806
2.2523462538 19.6168406154 6.0505614405
2.0923889907 20.3765543559 4.9757592752
2.4492926719 20.7611628873 4.4388053903
2.4940285468 20.0040410428 4.5773881211
2.0021315807 20.0723999691 6.6364193211
1.8000118559 20.5081651805 6.9848830182
2.1304161434 20.3001333590 7.2423676554
1.9134153421 21.2541730561 5.0823204845
2.3872129377 21.6129815786 4.5685697086
1.8568859342 20.9451979854 7.5484854415
2.0951350628 21.5193218839 8.2507827272
2.0618552017 22.1242293935 5.1585879733
1.8257582419 22.5716336037 5.8504093803
2.2388857739 22.8142836132 5.4118985804
2.2059360897 22.0699599186 8.6816599040
2.1685914771 22.4264968211 8.7225200431
2.4479945396 22.3660053595 8.9995914058
2.1210341017 23.2056603386 6.0864614139
2.0980984445 23.4880488431 6.7421596697
2.4255352342 23.7625526362 6.3708519306
2.0372759400 23.4191114414 7.3856819078
2.1390021312 23.2117102391 8.1271829194
2.3524783594 22.8343102072 8.7703902443
2.4385657145 23.9523171554 7.1126580630
2.4116745370 23.8144751772 7.8614615074
2.6360309527 31.0695074726 10.6946958060
2.8319666579 31.1075783567 10.3790697760
3.0554687468 30.6194121073 10.4914766302
2.8504754571 30.6832053755 10.8264829324
2.6866154761 31.0164799883 10.9751566675
3.0195437937 30.6963985793 11.0340026443
2.5858496482 31.5722110105 10.5409010561
2.9514028376 31.5296809948 10.2479659915
2.5975654540 31.4861728261 10.8872041625
2.9723532844 31.1844340926 11.1231727138
2.6843967761 31.9714106900 10.4299814739
3.0742508946 32.0178086153 10.2980243379
2.6198338918 31.9963244381 10.7110976432
2.8901526953 31.8244189291 11.0119177787
2.7923825299 32.2434408534 10.5301070974
2.9200460441 32.2541402017 10.7820438924
3.2581322201 18.4316166713 4.8373270645
3.6715035730 18.0811709465 4.3324097533
3.5809937573 17.8629063693 4.8241067356
3.4852948863 17.8806771555 5.4187541365
2.8978287443 18.8061220726 5.8395213159
3.4649157976 17.9745555685 6.3851607918
3.1663951607 18.7241776787 7.0295871975
3.5695144668 18.1224924732 7.2178537740
3.3543137694 18.9060030277 4.1141131021
3.7776272766 19.2539282247 3.4161251991
3.8537275361 18.4455724377 3.7382490519
2.7878659211 19.2898349729 4.7763814251
2.5730891898 19.6018578566 6.9807402748
3.4630383300 18.6451768162 7.7276944603
3.1800937892 19.4732893553 8.0496679129
3.6484627707 18.8855934964 8.3329417676
3.0543470893 20.0003756278 3.9726298838
3.8102893199 20.4444534945 3.0723495326
2.5143802359 20.5535990767 8.0395029696
3.8350222530 19.4849297283 9.0871724475
3.2565536741 20.5314069657 9.0838039128
3.8412882994 20.2216515089 9.6735376282
3.0470720799 21.3958679596 3.8647245798
3.9343448547 21.8190463876 2.9977700128
2.6702260710 21.6258516279 8.9554770829
3.6552846582 20.8092492578 9.8284723309
3.3737458349 21.5328821432 9.7457272333
3.9697480544 21.1979048601 10.3180110743
3.3426667820 22.5684640920 3.8021280030
3.8959807806 22.8859665570 3.3106559151
2.6762052831 22.5145408739 4.6333765577
3.0627801260 22.7544560943 9.5186921127
3.9336392023 22.2152281723 10.4749461980
3.5440502349 23.2461426459 3.8229512947
3.2243220701 23.4346960489 4.4560074818
3.5613957858 23.6237886327 4.0474964411
2.6774410190 23.5204182606 5.4978034557
2.7398299732 23.7114305691 8.6955456897
3.3656959471 23.9942967013 9.5600076316
4.0380194399 23.5761756854 10.4448028085
3.7328240148 24.0916696657 4.3375462278
3.3119712135 24.2420717434 5.2176197540
3.7036696159 24.5971103422 4.9406232471
2.9747782429 24.3910679865 6.4112619998
2.9327778327 24.4842121220 7.8023283054
3.2469451235 24.5948199379 8.8729976825
3.5845962927 24.7235192526 9.5049999887
3.8561607477 24.4751310851 9.9948863493
3.8070723871 25.1238464965 5.6743539758
3.4958247110 25.2856510949 7.1703138221
3.4989805819 25.2964423436 8.3454318616
3.6333608676 25.1837703242 9.1266131820
3.5049786302 30.7513129267 10.1034114435
3.6696851375 30.1073054760 10.2462866599
3.4276130280 30.1885135403 10.7187690023
3.6690450482 30.4989403476 11.1160943170
3.6404701077 31.4369764279 10.0894000777
3.5930620537 31.4136134930 11.1706211383
3.6960170711 31.9502944390 10.3038817088
3.2532682168 32.0549595447 10.9889505408
3.8643951711 31.9089099815 10.9058571329
3.3194061480 32.2788558160 10.7768993614
3.1763796240 32.2974589900 10.5238386647
4.4043669171 16.5318629568 6.0525392700
4.5542899009 16.3736875884 5.1505347822
4.8813392561 15.8487336784 5.6467049446
5.1762436222 15.5790237667 6.7147293749
4.6646897200 16.4451845817 7.2327846466
5.1622007704 15.8993386774 7.5524901093
4.0558421349 17.2187098116 4.9010873346
4.5628610074 16.9648600041 4.1824421271
4.5362286881 16.5869685265 4.6788211925
3.8466734780 17.3293592172 5.9199415649
4.0111000610 17.3444680555 6.9728851961
5.0801410210 16.3735139584 8.0707572800
4.5492573610 17.2122204605 8.0963128198
5.0520297330 16.8683567908 8.5732686112
4.1701321040 17.7311685775 3.9476446465
4.5098515431 18.2288884204 3.2292914256
4.5642483044 17.4696050342 3.6695286625
3.9175070318 18.1260803180 7.9926637022
5.0805975522 17.3901892524 9.0001038234
4.4645703142 18.0617159607 8.8105627567
4.9496719308 18.1017833963 9.4185360075
4.3709731375 19.4313316183 2.7678206436
4.0401355632 18.6870512589 8.7578369537
4.5572051973 18.8041753933 9.4804485124
4.4318791076 20.1640160142 2.4712013042
4.9475742193 20.2652894804 2.0549351244
4.8708208886 19.6135136752 2.2752220285
4.5918609506 19.7096792147 10.0850538623
4.0842649426 20.5202485953 10.1376024986
4.5793997227 20.6212409924 10.5995743972
4.4359869727 20.9274567031 2.4081760223
5.0005256095 20.9471384976 1.9403568821
4.4888939965 21.4377839001 10.8462269641
4.8469709397 21.7356264680 2.1805179069
4.5272735871 22.6195557092 2.6938689080
4.5401441180 22.0803985495 11.0397251725
4.4833712144 22.8055885985 11.0076515342
5.0939272607 22.2480298242 11.3615993469
3.9073797978 23.5839721271 3.6745068773
4.3773759461 23.3316852860 3.1375537098
4.5962060423 23.4201154367 11.0222034800
5.1286343227 23.1268337057 11.3472056220
4.5599256372 24.1254604726 3.5993896992
4.1441155471 24.7287573303 4.5377336255
4.6108449614 24.7926125389 4.0995687282
4.0815690119 25.3021671193 9.7561037412
4.5010358417 24.7296351986 10.4462912445
5.0339077309 24.0543162855 11.0608084283
4.7013476365 25.3742362424 4.6837039047
4.4444585895 25.9620926171 5.6970233007
4.8105834071 25.9665847385 5.1504579167
4.0746730186 26.0291672898 6.7601915442
3.9573554952 26.1275173335 8.0023083315
3.9869016685 25.9235239337 9.0204911688
4.5066229442 26.3307671473 9.6804656805
4.8332489301 25.7340163912 10.2676817322
5.0266579616 26.4238091504 5.5533602601
4.6312957859 26.5993428580 6.4493848088
5.1332746498 26.8949379075 6.1818670922
4.4748203953 26.8248567270 7.5891820685
4.5197004274 27.2428475491 9.1159187841
4.7870679481 27.1927701977 9.7192373949
5.0466839415 26.6401360571 10.0796424958
5.0591598077 27.1721655667 7.0201550656
4.9713152984 27.5680524900 8.2582408611
4.8539347715 27.7264046247 9.2611597630
4.7355738136 28.3359765549 9.5833205348
4.5376146183 28.5366764090 10.1323296768
4.7900786125 27.8374558333 9.8582694097
5.0116174925 28.4684117770 10.4121349808
4.1291087989 29.3850844839 10.2150326583
4.5300108852 29.7011641841 9.7218170436
4.6604005303 29.0797708021 10.7259959673
4.1207705965 29.5563716696 10.7395010285
4.5223842435 29.8161402280 11.0735713186
4.3267205109 30.6936432413 9.8878872821
4.4040113936 30.6631459811 11.2420670812
4.5875940116 31.2462704736 10.1122302758
4.4441710353 31.3175076884 11.1525698915
4.2598859671 31.8076168087 10.5248514726
3.6351277329 32.1819036860 10.5923451791
4.6861779689 31.5415159828 10.8630045776
5.6171923243 15.0034201207 4.9905510007
5.8928537941 15.1399086114 4.3170345883
5.9460560089 14.6396574072 4.8808801565
5.9831024323 14.4780797052 5.4686233004
5.4474238726 15.1072126496 5.7762994031
6.1975961932 14.3813659216 6.4820198426
5.6178701305 14.9324616942 6.5404258276
5.9135684761 14.8914441952 7.1332361092
5.0921546530 15.9556762329 4.6444153933
5.5630549949 16.0171720252 3.8144352196
5.8253127690 15.4142431688 7.7889910652
5.3835785775 15.8838060779 7.9507336698
5.6782123879 15.9719659383 8.3501212321
5.1163812589 16.9347387792 3.5414741338
5.7928973131 16.7568514165 2.9937207052
5.6462839551 16.3724351282 3.3897725790
5.4903526426 16.5117517760 8.7056003341
5.3497301071 16.9011166970 8.9227250247
5.9629448849 16.8472846653 9.3153712614
5.3988678549 17.6838018817 2.7681969641
5.9793351183 18.0581174239 2.1845360410
6.0740556920 17.2245760265 2.5026760123
5.5841643982 17.7311875862 9.6921826240
5.2714156895 18.4655343639 9.9389634093
5.9648720808 18.1299100686 10.2159986608
5.1059300578 18.7484148949 2.4609872672
5.7349934081 19.3189017279 1.8394181829
5.0097240758 18.9993912200 10.0484408033
5.7093730697 18.9686390915 10.5303966608
5.5391123921 20.4167168793 1.6484405298
5.3503173078 19.9796216729 10.8347452091
5.1848836686 20.8632878849 11.1113999172
6.0189541323 20.2277103809 11.3273221931
5.5210039810 21.1888076645 1.6430324703
6.2998032888 21.2237766374 1.3505478829
6.0677299239 20.6447564056 1.3604332726
4.9870026700 21.5991007191 11.2302272270
5.8361609871 21.3085736194 11.5411042950
5.6835799579 21.9091392256 1.7409211663
5.1908041367 22.4762849511 2.1890638310
5.9244330749 22.6419562475 1.9673979052
5.9292410555 22.4293293489 11.7014089590
5.1686832189 23.2768051733 2.6393484802
6.2087701311 23.3695226149 2.3122035985
6.0290505962 23.6312572376 11.6475249543
5.6177365097 24.0896359044 2.9793133255
5.1853309725 24.7840549940 3.7322207411
6.1601913499 24.7117387121 3.3226993781
5.8635349225 24.5633646669 11.3442374709
5.4485724410 25.2079932670 10.8921806838
5.6802758341 25.3744114985 4.0642467952
5.3188412899 25.9554047889 4.7899781393
6.2295648190 25.9206366702 4.4679994912
5.5643494507 26.2555212615 10.5915540377
5.7958984731 26.4465881095 5.1382409278
5.5208103627 26.8167798469 5.7138457901
6.1672471938 26.8603264219 5.6104185055
5.5293454881 26.9844491076 10.3307154795
5.1068717770 27.4596621150 9.8136700467
5.7594665459 27.1840835848 6.3600204297
5.7382962164 27.6747871968 7.4886169779
5.4027189428 28.1460867768 8.3773847270
5.9392286925 28.1734069669 8.1026681811
5.0395279733 28.0015191619 9.1587631200
4.8861611216 27.7385060179 9.7004086285
5.1220967759 27.9569197721 9.9455761408
5.8023848250 28.3836575346 10.6464459665
5.6786984896 28.5335439813 8.5272630682
5.1974242371 28.7425411906 9.0268363174
5.7026381970 28.9090041974 8.8504680734
5.1654853658 29.1823241487 10.8893379433
5.1341526709 30.0469834391 11.1219460498
5.3887355826 29.3664402013 9.2466432170
5.4699688439 30.0994450682 9.7018652401
5.0477191570 30.7927934826 11.1778630689
5.6048202451 30.7695299980 10.1618972257
5.0078488787 31.2060981870 11.0822597223
5.3282330236 30.9304463976 11.0631488653
5.3149535247 31.1145162698 10.8514864826
5.0744671872 31.3203839505 10.4909331671
6.5184509407 14.1981090603 4.8706952150
7.0596746291 14.0518214241 4.2428542426
7.3426803891 13.5861651098 4.8257251772
7.1874147073 13.5438809573 5.6566744676
6.5487052675 13.9467617408 5.8847553703
7.0727633233 13.6118393801 6.3409972889
6.6911313885 13.8800292715 6.4517753112
7.1611748305 13.8283410065 6.9969065513
6.6074778671 14.7172264104 3.9157228125
6.9237763558 15.0264298909 3.3154692822
7.2771110871 14.3522544322 3.6574249332
6.6700608469 14.4524243859 7.4430163489
6.2925749191 14.8750538320 7.6709256207
6.8620056538 14.8908785686 8.1787778205
6.2052418049 15.7589609389 3.3638928286
6.9704018648 15.6224129021 2.8425230549
6.4277067833 15.6103711592 8.5860830993
6.0604496440 16.1809082966 8.8672165159
6.8065698659 16.0357408902 9.2263423058
6.4787959562 16.4467486710 2.6645181520
6.8754404392 17.0368550950 2.1473284301
7.1246524531 16.1538668705 2.4215018069
7.0553800294 16.6240344673 9.8344543273
6.8900712776 18.1839334655 1.6720319981
6.4405628892 17.4271328812 10.0414943859
6.8622780110 18.0476902600 10.6850736083
6.6163874159 19.1430719919 1.4161161376
6.9908874654 19.4835138993 1.1822523630
7.3910046307 18.7306277330 1.2610267264
6.5731268415 18.9066517624 11.0250987489
6.0938140471 19.4990203856 11.0701806068
6.7987830366 19.4386225008 11.3974179939
6.2716996933 19.9111562460 1.3697628325
6.9487501729 20.2945389895 1.1354044250
6.8938437273 20.2934810192 11.7403421521
7.2645550666 21.1287084423 1.1812214603
6.9578511672 21.4420956101 12.0419834738
6.5779786034 21.9362352538 1.5046303277
6.9212313973 22.6333798053 1.8184479855
6.8101822167 22.7101954263 12.0889523420
7.1981091275 23.3088711261 2.2114227820
7.0081807929 23.7235532079 12.1229886725
6.6211156330 24.0086900950 2.6820760223
7.3406677946 24.4856857764 3.1425323329
6.2054677371 25.1937336465 11.3141979606
6.6904187375 24.6877385822 11.7433537059
6.7533905281 25.2736325634 3.8036694768
7.2785768010 25.8034391415 4.3921259678
6.7454490003 25.5644903431 11.5103589038
6.2241959744 25.9494204764 11.0934680770
6.8059527639 26.4266474355 5.0848109298
6.8346337965 26.8633118368 5.7079085420
5.5872249375 27.5591020449 10.3196317719
6.2383114858 27.1241579478 10.8370515057
6.4638319609 27.1171320592 6.0914173791
6.5082243870 27.3946103965 6.8105483249
6.2328041668 28.5500211510 8.5384185343
6.7501606599 27.8643520501 7.8236949862
6.6658484603 28.7919617146 8.9762921811
6.9405774466 28.3413791965 8.5659068860
7.3050605562 28.6283245360 9.0333757443
6.7039812003 28.1330586173 10.9376011993
6.0525282347 29.1928985278 9.1294305131
6.8613644025 29.3062186986 9.6369863977
5.7297843507 29.4602441850 10.9091517944
6.5914110934 29.3257451527 10.7070130364
6.2926967340 30.1056914953 10.0411648771
5.7040438145 30.3855263303 10.9089713732
6.2145757534 30.2685112032 10.5626987663
6.1467252881 30.4787061542 10.3083231961
5.7475309527 30.8122862463 10.5400776691
7.7568907922 13.6783819180 4.1634842767
7.8732449002 13.2897672670 4.7728297390
7.9134302889 13.1573672677 5.4278556846
8.0076479293 13.1817771507 6.6217480774
7.9470509579 13.5476146802 7.4527998946
7.7023512202 14.7480910237 3.0447360156
7.7970364524 14.0959696621 3.5626049934
7.7223890230 14.0888453444 7.9934587192
7.7134064003 14.6887375035 8.6318705666
7.5362264477 15.5547849869 2.5416112999
7.8728683263 16.0354087061 2.1622792513
8.0953114468 15.2005778726 2.5026519150
7.3318634358 15.2993907182 8.9270743105
7.9226050652 15.7018817768 9.6881623145
7.8852711243 17.0373203071 1.7433617989
7.8867155263 16.5479285887 10.3113125886
7.2295735815 17.1831811488 10.3408861035
7.8103011368 17.2762616406 10.7775122910
7.9600201162 17.8677265877 1.3834947982
7.7125683662 17.9172781761 11.1036329251
7.9212632161 19.2484170494 1.0360819605
8.1573187019 18.3928764306 1.1432678696
7.3257814904 18.6041688291 11.2587121350
7.8076506061 19.1252246212 11.7649480703
8.1058418276 20.2202455874 1.0102173219
7.9597543349 20.2170677335 12.2412504343
8.2761846026 21.0483486451 1.1650605474
7.8426300760 21.1265207953 12.4414145920
7.5983605956 21.9983639517 12.4811908051
8.3260398754 21.3943175097 12.8375409901
7.5895100462 21.8430626999 1.4274482645
8.2227654132 22.4726655440 1.9151393639
7.5368000303 22.9961515940 12.5103307232
8.2584298890 22.3835147203 13.0041400755
8.0005340215 23.3158329161 2.3770879562
7.4318832311 23.8265210189 2.5795781369
8.2050889298 23.8223268197 2.8340629542
7.6025483496 23.7622310715 12.4985634328
8.0777872473 23.4121029986 12.9029820999
8.4293563511 24.3720452234 3.3822992173
7.9597442682 24.1553450032 12.7229721676
7.4797550354 24.4887054407 12.2878524636
8.0792316602 25.0917906764 3.9263310380
8.1474426857 25.6960081557 4.5514142761
6.9865790575 26.4066148218 11.4435281049
7.4791263867 25.5785120958 12.0271391308
7.8239690736 26.1510806499 5.0085785925
7.0951926653 27.0701991585 6.3002813465
7.6520239989 26.6474347988 5.7993390039
7.2964663889 27.3177113604 7.0697103027
7.7570683848 26.9669042379 6.5923652743
7.6136336443 27.5212840185 7.6995223119
8.0247343952 27.1457996156 7.2325515445
8.1796919150 27.4254262480 7.8134088478
7.2303025717 27.4420455435 11.3355232626
7.7967452069 26.7792810167 11.9351692251
7.8463063287 28.0027734392 8.4255036089
8.3016852726 28.8433395886 9.4832848680
7.4792903786 28.4051933749 11.1360341117
8.0226889008 27.7848509674 11.7512644424
7.8748974547 29.1180957066 10.5578290919
6.8658813312 29.6024969854 10.2489958681
8.3526590725 28.5928057990 11.5093520433
6.4930643074 30.0138181807 10.3582838150
9.5245848304 1.6860694428 6.6112007966
9.8769025042 1.7178363006 6.1091287040
10.0499567039 1.3075501676 6.4284722429
9.7665015784 1.2995653051 7.0515273855
9.3512955632 1.7324713320 7.2518882441
9.5855108454 1.4012532049 7.5552617882
9.4108805326 1.7301583286 7.7684564573
9.7242439547 1.5049317334 7.9676324248
9.5375479773 2.1010441797 6.3400962390
9.3021897978 2.4188758384 6.9663491969
9.6821056953 2.7414844903 6.4192722057
9.2940368302 2.3152218372 7.7168520430
9.6760339468 2.0463226903 8.2758758579
9.3737894781 3.3920088493 7.0620021777
9.8081186416 3.5998739340 6.6947748288
9.2632476057 3.2236949617 7.6878644429
9.5143670999 2.9606848162 8.3331689850
9.5316342683 4.0832346730 7.1196910205
9.3740724597 4.2587028337 7.6970936873
9.7526104421 4.7925363337 7.3829644411
9.4833325401 3.9920808740 8.3945381701
9.5334998391 5.1234796773 7.9204670833
9.9254055777 5.6490371976 7.8780237800
9.5244666067 5.0042013046 8.4394487141
9.6623015000 5.6935735607 8.3607960762
8.6271543570 13.0033330112 4.7943597699
9.2953429857 13.0048101625 4.1189293079
9.7413446984 12.5062342073 4.7907357589
9.5122195859 12.4141164186 5.7273471611
8.6627361469 12.7547480373 5.9830568955
9.3577881157 12.4647644189 6.6950867714
8.7410497042 12.7248633488 6.6589981040
9.0105503379 12.7666943237 7.3162773822
8.5563744323 13.7443490564 3.5800361274
9.2493765020 13.9236652959 3.0260702310
9.6163426504 13.3364392932 3.5074615117
8.5518067750 13.2398495221 7.6782334858
8.2413340223 13.5957319204 7.8828452281
8.6158182387 13.6336143235 8.3579091457
8.6316997590 14.5174088133 2.7745269867
8.7859806330 15.2173740265 2.2689186353
9.4861247686 14.4596225880 2.5467415826
8.3802642154 14.3057204547 8.8449028673
8.0573741257 14.9500355990 9.1407293198
8.6707774797 14.7971616233 9.6078203453
8.8772748682 16.0812998482 1.8536429652
8.7469938022 15.3743151348 10.1518237615
8.9066672072 17.0382047230 1.4474294501
8.4815613597 15.9705539046 10.3312746255
8.6126207084 16.5141380661 10.9151808646
8.3572307349 17.4743208305 11.2935828808
8.9964094789 16.9334746196 11.5941079936
8.6374780262 17.8122798919 1.2069623284
8.9740872001 18.2867658422 1.0349502101
9.2277430049 17.5058798474 1.1857705739
8.0273128412 18.2220985773 11.4685165967
8.7426116576 18.0175905667 11.9090517095
9.0626504968 19.2507019708 0.9520423442
8.7309285042 19.0966640875 12.3128676547
9.3190267738 20.2129564188 1.1022419732
9.0043733278 19.8289070990 12.8007545235
8.4294186387 20.6429553266 12.6704579334
8.9892398473 20.7423666049 13.1501859329
9.0769928887 21.0748641885 1.3226574737
8.4569399729 21.6397559201 1.4352519043
9.2480747647 21.6253169689 1.6969645658
8.8846996574 21.6199628262 13.3721657748
9.4763313807 22.1934512164 2.2046170322
8.8418811669 22.3352495224 13.5227787523
8.6504430302 23.0740405924 13.4232752882
9.1219547395 22.7362888694 13.8588604753
9.1275880422 22.9900163760 2.6556131925
9.1326431897 23.7437064475 3.2447617666
8.5395029928 24.1326515966 13.2631070473
9.1372730687 23.5581396762 13.9046850555
9.3284079092 24.2202655654 3.7788965073
8.7132063080 24.6513291828 3.7566410757
9.1417968197 24.7793112012 4.1865140537
8.1051769532 24.9508426479 12.6995315168
8.7277023175 25.2061505740 13.2651847687
9.1689828092 24.6058808363 13.8465456470
8.5417021914 25.8833976516 5.0130989336
9.0762630212 25.3504496572 4.7694963117
9.0952846742 25.8341450348 5.3988523097
8.3930357797 26.0987334529 12.6802008698
8.9719201588 25.9824539682 13.3279975004
9.2115826015 25.4655448786 13.7311474226
8.5301594917 26.2320412317 5.6127282504
8.6369408745 26.6770184452 6.6108003129
8.6290063795 27.1101633379 7.4539982827
9.4797441350 26.9040807788 7.4012266087
8.5673976100 27.2838359238 12.4261546093
9.0675576874 26.8226409144 13.1207974604
8.8212709816 27.5086059392 8.0362661154
9.0060445087 28.1552959238 8.7138825254
9.5124757377 28.8231427280 9.2323733397
8.7061910100 28.1130277812 12.1483039431
9.4715598750 27.9593293117 12.8957567218
8.7102268537 29.3176467902 10.2415804824
9.4691914747 29.5621574257 9.9399955446
8.7951577628 29.4369137550 10.7400078152
8.8768471508 29.2609633976 11.3167889228
9.2131399571 28.8287301549 12.0858161840
9.2100647882 29.7058155726 10.5237084239
10.3793578705 1.4575910223 6.0282481434
10.7812530321 1.1715774435 6.3640177719
10.4998472653 1.0705256584 6.9908118281
10.1983556040 1.2127615837 7.7222530953
10.1728066995 1.5471280291 8.3465511963
9.8681831204 2.1709180168 6.0539518357
10.4530644183 1.9431879710 5.8906199110
10.1919215278 1.9707148576 8.6989234563
10.0431992909 2.6192121109 8.8077649425
10.6775913535 2.2142000644 9.0025713888
10.1889516289 2.4881246682 6.0322523966
10.3438966503 3.0838185307 6.2771424165
9.9551984374 3.5932038924 8.9616617940
10.6479426865 3.0590254643 9.2539506245
9.8931187948 4.2439834039 6.9314543037
10.5258548550 3.9329607931 6.6464604994
9.9206408705 4.7810759636 9.1928227841
10.5884380924 4.1121040302 9.5765311275
10.2519214243 4.6246574798 7.0179628417
10.4436337922 5.2558106224 7.3745383079
9.8329805438 5.9674537704 9.1469617322
10.4159673966 4.9482973471 9.8178471523
10.2294674927 5.7241697077 9.8894577329
10.7882597936 5.3954995787 10.2362489745
10.0304658689 6.5148703849 8.6019888137
10.6939189185 6.2087165144 7.9220124964
9.9764842254 7.0129683133 9.4601628206
10.1571823692 6.8612323000 10.1810265569
10.6954401021 6.3384541761 10.6006711271
10.5192902192 7.0974779559 8.5233571884
10.2312698445 7.7015007070 9.2831259799
10.7900707084 7.7888251329 8.8508589090
10.1071074323 7.9131065648 10.2155560887
10.5141854043 7.1293104922 10.8806403569
10.3507504920 7.8570730005 10.9585086458
10.8280744940 7.6145968183 11.3351021523
10.5374094497 8.4569716526 9.4277944368
10.2432831315 8.9570460947 10.2118767176
10.6715550530 9.2718933142 9.7868422381
10.2715653192 8.9979167646 11.2067543127
10.7358230546 8.5612832917 11.6976434407
10.3381248821 10.1640084481 10.4497835737
10.8486939324 10.3008832794 9.9741790338
10.1855109759 10.1273575887 11.1906380817
10.5588754560 9.3742277235 11.9564944962
10.4061812417 10.1079734139 11.9659474507
10.8801531000 9.9464014040 12.3995005146
10.3773716043 11.0143608830 10.4112954283
10.1565763496 11.3317186827 11.1348908568
10.2054014425 11.8489615268 10.5392217972
10.2949271992 11.1612171465 12.0078765195
10.8124620962 10.9975474938 12.6745337303
10.1195284111 12.7320136542 4.0938794391
10.5224630660 12.2745151235 4.6579926302
10.5894602034 12.0160673011 5.5087346341
10.2890348611 12.1676269303 6.6512741787
10.0354854647 12.3723802002 7.8196149922
9.3598863153 12.9721476550 8.3932896643
10.1037736514 12.4439589888 8.8536818914
9.8192221461 12.8615800794 9.3995106616
10.2951395054 12.2255451648 9.5610462675
10.0136019442 12.6965795551 11.1355019402
10.0482808767 12.5046141741 10.4223577729
10.1922986312 12.3227722073 12.0245444368
10.5594988598 12.0516245150 12.7262967269
10.0622321377 13.7784019458 2.9591386969
10.5840610994 13.1399797845 3.5117598886
9.1884668183 13.7764091469 9.3429551125
10.0459946320 12.5917879262 9.9629332302
9.7787898184 13.3005212305 10.3028541346
9.8527519316 14.0505146902 11.2782159793
10.1023928974 13.5485615669 12.0696627243
10.4496274955 13.1208303995 12.7695048780
9.7611648046 15.1917594591 2.0920468969
10.4627880543 14.3894528433 2.4701103995
9.3975105488 14.6922308236 10.5666346506
9.7813815216 14.6173991698 11.1766530904
9.8845408614 14.6565028979 11.5000784284
9.9809410205 14.8954935145 12.1186656296
9.8144130302 14.9935392402 11.5389888412
10.3809690721 14.1842525244 12.8265398904
10.0233610219 16.1318438549 1.6546350761
8.9910128884 15.6629485728 10.6708036434
9.7112536905 14.9544355122 11.2155635032
9.4689880562 15.7196658700 11.4736419156
9.8166963763 15.8845420563 12.2343023419
10.4029036018 15.0558974677 12.9815928029
10.2099888982 15.9652441651 12.8573885612
10.8934429713 15.5309399262 13.4573095261
9.7259112608 16.9648053109 1.3133515831
9.8724685100 17.5351171998 1.1223077719
10.5309487544 16.7952353780 1.3651445766
9.6356757468 16.9528516363 12.3742244792
10.2652383144 16.9175714490 13.1053485225
10.6802241595 16.4653660316 13.4089862462
9.9556996480 18.3340842211 0.9982906321
9.4139320878 18.3350058747 12.5930717597
10.1185055131 17.8494028149 13.1470091025
10.1293536757 19.1822474161 1.0246511420
9.2759189164 19.0696618312 12.7013090327
9.8202114177 19.0417531384 13.2331361805
10.4661267906 19.8513994925 1.2502989829
9.6513662093 20.1001058758 13.5144080434
9.5625529663 21.0570214063 13.8432100650
10.0476373920 20.4452070911 14.1238137456
10.1738204826 20.7265180127 1.5745613780
10.1891382816 21.5077835770 2.0909110633
9.3295536326 22.0179048042 13.9193571140
10.0697119824 21.0072162425 14.4194515110
9.8765907592 21.7332564458 14.4314556728
10.2978417641 21.3914721591 14.8350129042
10.3898399924 21.9829789017 2.6008811091
9.7892133354 22.4518786968 2.5694983282
10.2171738268 22.5608759579 2.9852165526
9.6974680550 22.8211050016 14.4100490087
10.3224598212 22.2433629343 14.9961318823
9.6921583660 23.7389259448 3.6061932554
10.1617328681 23.1704686742 3.5013396946
10.1867063252 23.7541298248 4.0346250169
9.7344867005 24.0501667908 14.4337800616
10.4645758202 23.4732221066 15.0450206448
9.6091420388 24.8653638946 4.6235223394
10.1334929625 24.3370812225 4.5462535266
10.0774757834 24.9302058517 5.1089423782
9.7651472158 25.2374688179 14.2950981012
10.3167028926 24.5613842102 14.8002834897
9.3211895892 26.0981611800 6.0626664346
9.9155044010 25.5319403547 5.6998325538
9.5761116336 26.3730127467 6.7060462316
10.0353600889 25.9558026588 6.3972711969
10.3291068702 26.2922852154 7.0119874978
9.5149179628 26.2808597721 13.8062138118
10.0807569105 26.1168122451 14.3564859012
10.5342440754 25.4587325861 14.7452643725
10.4992780233 26.8622964324 7.6611311040
9.5993346253 27.1870309542 13.5282737041
10.1219194598 26.9871225775 14.0694632557
10.6639464429 26.4190951951 14.5672321844
9.8622560318 27.5917470286 8.1972281009
9.8444506777 28.2794239602 8.7638395570
10.7610734467 28.1007550481 8.6082720525
10.0088716975 27.6711120111 13.6061686983
10.4940259160 27.6390462071 13.9338219800
10.8021856617 27.1862223844 14.3252529476
10.2351770824 28.7153961819 9.0144104237
10.4272835029 29.3977735514 9.4368460416
9.3733000091 29.8513985411 11.0930149246
9.7361603891 29.7683945854 11.8653289256
10.2722324266 29.1867418902 12.6462082368
10.5757291126 28.2672542198 13.4180192805
9.8349082738 30.4143951224 10.6798941781
10.5263299394 30.4408739581 10.0727927104
9.9300885202 30.5722234585 11.4569484811
10.2219825072 30.5414494277 11.9905815427
10.4331400627 30.1235433969 12.3263790732
10.3675125137 31.1990975079 10.5935628452
10.2473330655 31.5411165537 11.2335679709
10.6494601094 32.1383125970 10.8053368194
10.3920316743 31.3101244586 11.8762854443
10.4355013860 32.7597323524 11.4649161649
10.6257657925 33.1812400563 11.1346950089
10.5232512047 32.3105276801 11.8934001248
10.4556886058 33.9906802294 11.7760008796
10.7335209596 34.0931119530 11.1098437860
10.5770807754 33.3080059544 12.0930265677
10.3824471511 35.1604639138 11.6841167700
10.7913239111 35.2549214033 10.9622118470
10.7039592992 34.1928143689 12.5649531390
10.3891473497 35.1607992098 12.4944192862
10.6476339437 34.9401222331 12.9591187043
10.3474357371 36.2547807753 11.5671700960
10.7583509180 36.5613522476 10.9870110653
10.2546538921 36.1550646043 12.2650437863
10.5586020196 35.4591617274 13.0754215946
10.4600315464 36.0782641958 12.9327108853
10.8734239257 35.7868464757 13.3590050225
10.3727735447 37.2822833055 11.5290118295
10.6379379267 37.5435635900 11.1608888138
10.2530593238 37.0096057435 12.0385797072
10.4710555274 37.0861903755 12.6758612364
10.8709352880 36.5871773882 13.2702482333
10.4887063981 38.0583341109 11.4628751551
10.8526246009 38.3177702718 11.1659818549
10.5020475813 38.0716263400 12.0272301778
10.7897468379 37.9249002026 12.6303928156
11.0191803214 37.3813795103 13.0769302063
10.7046445130 38.8551164940 11.5298349099
11.1684573034 39.4260619551 11.2309264956
10.9206971360 39.2182936554 11.8604661657
11.0387670730 38.6773463622 12.2977908116
11.0226018203 39.6954213924 11.5305083993
11.0223133820 1.5007068774 5.9804040589
11.5687000425 1.2418262553 6.3877468266
11.3626096759 1.0365622085 6.9666516692
11.1278352002 1.0683054741 7.6738226811
10.8850154780 1.3373710557 8.3361569208
10.6301057927 1.6898047974 8.7245527522
11.2962013261 1.7646887199 8.8419142980
11.2443174678 1.9762314060 5.8798126116
11.3996936408 2.4909611435 9.2346173286
10.8287382100 2.5092306065 5.9738822993
11.2471570003 3.1192046842 6.2898137873
11.4418012698 3.4612568600 9.5911177677
11.4225297205 3.9361591007 6.6792842994
11.2026786752 4.2651429346 9.9102405339
10.8384100991 4.7137123172 9.9996009957
11.3480180412 4.9002137456 10.2039802411
10.9403217142 4.6391744126 6.9678241052
11.4422893050 5.2684802831 7.3732044930
11.4169432044 5.7986687371 10.6020275098
11.6890075511 6.2138638205 7.8637746777
11.2113031827 6.5385493369 10.9798860758
10.8809395628 6.9489102857 11.0831822359
11.3406985679 7.1576014470 11.3025326812
11.1657309326 7.0519223110 8.2965431190
11.4769835946 7.7389174439 8.7275763214
11.4142962545 8.0482088735 11.7083435864
11.0691320106 8.4943214246 9.2211393136
11.3118409101 9.2541319755 9.6084394432
11.2252335906 8.8059994111 12.0861569535
10.9076370250 9.2254688176 12.1821403187
11.3774649658 9.4747958419 12.3844389656
11.5823977509 10.0012395199 9.8935728087
11.5606945810 10.5457536322 12.7604729256
11.2675689008 11.7317172824 5.7574081287
11.2497770205 11.7278897617 5.3140790283
11.6578507414 11.6469160279 5.5071623742
11.7057310271 11.7771905971 6.0833924378
10.5824889288 11.4813962286 9.9338226043
11.2850689327 10.9972553832 9.8352836856
11.3503200767 11.3292718834 13.1212296497
11.0849347045 11.9261091012 13.1905107150
11.6488918147 11.9743435902 13.3702622796
11.1174945124 12.4891102951 4.2050026399
11.1406424569 11.9685025087 4.8726120141
11.1497797495 11.9398209844 6.4390299346
11.1678382036 12.2024402682 7.7057358884
10.9105108275 11.9756020139 9.0967076543
10.2343717971 12.1205627901 10.0960115497
10.9389636864 12.7966558352 13.2552744584
11.4463093840 12.5703411870 13.4657168036
11.0510291016 13.7045245891 2.9716733165
11.5951646040 13.1095923059 3.6078091166
10.8627006425 13.7786508073 13.3088071375
11.4646294492 13.3967583238 13.5631033812
10.8667143390 15.1404874725 2.0560886534
11.4963749247 14.3566027703 2.5092679076
9.8475855238 14.7913378266 11.3545335206
10.7495111335 14.6282084037 13.3197961188
11.3914982996 14.5030929056 13.6286507667
11.3600083319 16.0077267417 1.7701551593
11.6234315527 15.4598838140 13.7285873361
10.7146510430 17.5399686676 1.1903505876
11.3202442617 16.8795654845 1.4904834625
10.7822219508 17.3410393543 13.6201936553
11.4023742860 16.5233907822 13.7719893114
10.8578455784 18.3514500742 1.1452372250
10.7704728419 18.5425539900 13.9858935715
11.5390206815 17.7563177411 14.1730005005
11.0054284872 19.0962374493 1.2357277344
10.3372839043 19.6802733979 14.0809636417
11.6617989389 18.6997105033 14.7402648861
11.1218246261 19.5700503570 14.9026095735
11.7335804056 19.3085306873 15.2840030632
11.2717517237 19.6353977231 1.5550522115
10.7890071942 20.1495027890 1.4872615796
11.1440978324 20.2986906704 1.8271344120
10.5347787268 20.5663120636 14.7827541437
11.7106198762 19.8527739769 15.6584974202
11.1635561763 20.5627959065 15.5806630261
11.5593080858 20.3135372628 15.9786804106
10.7284759031 21.4927893349 2.4247426138
11.1031785529 20.9290146463 2.2991459621
11.1440890574 21.5135366333 2.8071717729
10.7362096663 21.4785542055 15.3402465046
11.3787905519 20.6966927981 15.9959618515
11.2591565149 21.5602823436 15.8647194408
10.6777793252 22.6192634206 3.4081971179
11.1291046061 22.0661575801 3.3222865221
11.1007472791 22.6490124860 3.8392291893
10.9922484180 22.5292729224 15.5736394807
11.6593064233 22.2247735971 15.9563175363
11.8222700630 21.7804503536 16.1357166311
10.6513403931 23.7882566129 4.4772142627
11.1012876249 23.2115405428 4.3764452493
11.0807706469 23.8353996744 4.9213521960
11.1522190573 23.4745456611 15.4875129954
11.5788268127 23.0117530294 15.7476373493
10.7300624491 25.0071228199 5.7496053700
10.9166800842 24.4443573066 5.3343188064
11.6937326603 24.5818807325 6.1004848262
11.6349186994 23.6624589791 15.5355039221
11.2208986453 24.4411046973 15.1606146046
10.9371226234 25.5337920348 6.4825058337
11.3848746794 26.1858266817 7.3686125700
11.3298966248 25.7312792437 14.8587369962
11.2092455480 26.8695272871 7.8554658028
10.7475329858 27.3561346799 8.1090379557
11.4681242016 27.3259142801 8.2423766893
11.3150094526 26.6880947363 14.5949598334
11.7409091207 27.8525599501 8.6079093080
11.2537986775 27.2334236889 14.3810287660
11.1713837766 27.6987548043 14.0097355107
10.8067891230 28.8652174497 9.0358149538
11.5649556051 28.6240644134 8.9538024655
11.4611280353 28.2686480722 13.5350012237
11.3593053458 29.0059721289 13.0614748870
11.1923209844 29.2568248208 9.2417419494
11.4751558640 29.8942381692 9.6382392355
10.7714144424 30.9181873181 12.3163305030
11.2731737188 30.1590677770 12.6403951947
10.8180417960 31.3757132403 10.3573500899
11.5130972417 31.0568612897 10.1096042447
10.9233503636 31.9146558894 12.3078626854
11.5364058259 31.4094004991 12.5594613809
11.1952019383 31.9146690040 10.4235582963
11.2263501008 32.9084951162 10.6888233554
10.9328965289 32.9054813228 12.4019044434
11.5902780398 32.5502245194 12.6521477307
11.4005057269 34.0793337973 10.6285538597
10.8497603017 33.5450683003 12.4954040470
11.3952569157 33.6865673967 12.8761964225
11.3022786744 34.9291718872 10.5138859617
11.6930809834 35.1265372164 10.3637449435
11.6798639250 34.5152673730 10.3977367886
11.0876736108 34.6025430078 13.1333476367
10.8670764274 35.2052123627 13.2778984464
11.4466869036 35.1780696974 13.4630115371
11.2148639670 35.6983408538 10.5657772868
11.7444673371 35.8557330107 10.4262525450
11.4356087990 36.0562593886 13.5314021654
11.3182547164 36.4320383135 10.6120388424
11.2134141338 37.3653985493 10.8637808218
11.4507399644 36.8322783697 13.4121218250
11.4534783639 38.4475252278 11.0138027346
11.5670661526 37.3954846793 13.1711254515
11.4240051176 38.0763373695 12.7428490726
11.6838474913 39.3697880322 11.0965419771
11.6786647445 38.9730682302 12.2641417319
11.3961743047 39.4555902303 12.0101232855
11.3698397650 40.4794407257 11.3950306135
11.6783566848 40.5041269056 11.1612363040
11.4636631920 40.1896631967 11.6940001152
11.6428122128 41.4694741557 11.2983038304
11.8924417667 41.6962663368 11.0974030069
11.7345751613 41.2167175569 11.5166009056
11.7734997904 42.3155479679 11.2210363503
12.0049038243 42.5004821109 11.0391246244
11.8843929156 42.0983701630 11.4021066652
11.8537391312 42.7346219417 11.1576411627
12.1060174049 42.8827722274 11.0644609496
11.9221438807 42.6578374219 11.3018041286
11.7158623851 1.6217710864 6.0686526651
12.1336199783 1.4655081214 6.4565545178
12.2155518517 1.2624176626 7.0453146239
11.8954205153 1.1048777556 7.5935917807
11.8639931488 1.3594051847 8.3181079513
12.1920838638 2.0215362711 8.9322391592
11.7877328741 2.0568374094 6.0179172304
11.4638280391 2.4293664302 6.0032985315
11.9516671709 2.5459690307 6.2713478286
12.0676939858 2.7851251351 9.3282110741
12.0045534373 3.2781139477 6.5936709366
12.3046309161 3.5255519285 9.5113589569
12.0233552901 3.9341743232 6.8512308647
11.6548413304 4.4739767169 6.9814536838
12.3161514078 4.3436325653 7.2366718468
11.8277177579 4.2526083841 9.9126510625
11.9946336391 5.1276564687 10.2206951432
12.3520637198 5.3240371486 7.6395965252
12.0613806219 5.9207531956 10.5634757069
12.4784676747 6.1076681249 8.0508586518
11.7507264946 6.5442703388 10.9794608006
11.9309142357 7.3693104703 11.3030665496
11.9538715531 6.9447835684 8.3397923415
12.0899652247 7.5761197734 8.8359912345
12.0196992471 8.1552193519 11.6476098815
11.7474426422 8.3724701616 9.2229409541
11.9633103715 9.0996791854 9.7546078425
11.7497611283 8.8072787333 12.0629152331
11.9687833144 9.6543111547 12.3074919326
12.0803623315 9.8081088048 10.1267770083
11.9247549617 10.6189889109 10.1701180821
12.2964458931 10.1898585203 10.5141981951
12.1745259422 10.4943855430 12.4828889510
11.5847653895 11.7387068282 5.0869432675
11.7450281593 12.0541938804 4.7346007524
11.9968487278 11.8096618517 5.2526368904
12.0135723694 11.7470453257 5.7263674590
12.1415781551 11.9842043756 6.1936158125
11.8481884676 11.7130445721 9.9792306148
12.2901544371 11.0890125234 10.6960221150
11.7732383158 11.3854947121 13.1614917649
12.1629909950 11.3102764110 12.8676076643
12.0605643181 12.6100670872 4.3152057332
11.8837761276 12.1851401340 6.9155670798
11.9497221850 12.5198742991 7.9042109678
12.3440211587 12.7389032725 7.4756350141
11.8899267824 12.6271414796 9.0629221619
12.1762888982 12.6554277026 10.1826240498
12.3535471372 12.1538855372 10.8058136854
12.1005214176 11.9714769012 13.2421136875
12.1329745875 12.9165206272 13.4805743910
12.0431661678 13.7519148813 3.0912286048
12.5746975303 13.3108174168 3.8911741337
12.3467490742 13.0672265838 8.3171745511
12.3371452421 13.4407741287 9.1244274313
12.5219741361 14.2373376932 9.3931084358
12.3249197435 13.6934804503 10.1344992366
12.4479911726 13.1585210781 10.9159583579
12.0015701337 13.9030340174 13.6851212193
11.9234488987 15.0617273619 2.1847036499
12.4214555544 14.4045002210 2.6685098131
12.4379389012 14.8846982671 10.2336248433
12.6406632882 15.2559707129 9.5108862383
12.4854213159 13.9690281534 11.0754294986
12.4504782522 14.6827842059 10.9768839284
12.6002882548 14.5112331492 11.5981156716
12.1530628357 14.7759178048 13.7181365211
12.3074843693 15.6835709719 2.0918269608
12.5033078541 15.8525217014 10.2712026536
12.6985499477 16.2455905628 9.6720037718
12.4728421558 15.6185988461 10.9731322666
12.5992562972 15.3429309764 11.7104357454
12.2357700463 15.8968418911 13.6671172882
11.5309532261 17.6098191164 1.4732538809
12.2405931839 16.6807698616 2.0134266335
12.5943572592 16.5759895067 10.2711116117
12.7755666735 16.9961930668 9.9259487062
12.5534205596 16.4751067507 10.8639115319
12.6231494515 16.3369878603 11.6380384633
12.1002994504 17.1475184954 13.9593097693
11.5577441610 18.4953191257 1.4693346252
12.1670715198 17.9372753623 2.0100899934
12.7569883126 17.1977443882 10.6001351246
12.7325583233 17.0792101104 11.3549579796
12.1131514703 17.9111389122 14.3589611167
11.9260647517 18.2129060902 14.5478441124
12.3474901457 18.5833616784 14.7599236044
11.4990841707 19.0613068937 1.4776352977
11.9300582150 19.0249934005 1.9541800260
12.1855186627 19.1545668486 15.2981088086
12.0205046918 19.4824528640 15.5676408383
12.4317758789 19.7974867038 15.7434345892
11.5254398117 20.3824551630 2.1948698452
11.7356417415 19.8942697559 2.1126390974
11.8536458838 20.4016602552 2.6332876741
11.9802932387 20.1778452942 16.0050785363
11.6297490359 20.3785296844 16.1146493280
11.5325898499 21.5291674344 3.2062447879
11.7111940346 21.0629506585 3.0198187378
11.8773745404 21.4844714992 3.6210088325
12.3049930911 21.6697593043 16.0079516718
12.1500376341 21.5945859163 16.2402515581
12.3372595032 21.3134334427 16.1986343836
11.5275148396 22.6454540698 4.2663211897
11.7278100271 22.1606191293 4.0602686305
11.9206443160 22.5539873624 4.6501760900
12.1435722154 22.5913335955 15.7909334300
11.6334535416 23.9414332844 5.5170621350
11.8381733774 23.2639119176 5.1584077900
12.4421587294 23.5334529919 5.9554442194
12.0200297809 23.2729836848 15.6404079056
12.4862365907 23.0125319444 15.4738523841
12.2541861752 23.8517988767 15.2720915804
12.6545952766 24.3400418722 6.5829232171
12.1637269122 24.9952414286 14.9499079711
12.3200312273 25.1927216925 7.0112671168
12.3382865312 25.9529724026 7.6265041718
12.1121366716 26.1426872190 14.6390764862
11.9375216325 26.6196223667 7.9199715678
12.4178035024 27.0986474972 8.4114068657
11.7995991878 27.0740200944 14.3295628376
12.3156537754 26.6628565910 14.3842298568
12.4348878043 27.0595188587 14.0646693860
12.4962337391 27.9821270687 8.9139151323
11.9618410951 27.7150498682 13.8247433412
12.5867975703 27.5558570525 13.6099859800
12.2817671891 28.3711150655 13.2296948828
12.2403721811 28.7522298000 9.1732240447
11.7883652931 29.2131056018 9.2812653360
12.4792677890 29.2601110014 9.5849551146
12.3290182104 29.5606071637 12.7209042997
12.4387744675 30.3130882868 10.0131573731
12.2578356301 30.8119865526 12.5745224619
12.2720583776 31.2376297465 10.2150737761
12.4321955884 32.0679562166 12.6119536804
11.8613185464 31.9879558398 10.3739446409
12.3354199865 32.9533065570 10.6293080758
12.3477587207 33.2987950298 12.9165109631
12.0056960874 33.9830495599 10.4577873244
12.1342876048 34.5494327196 10.3925436906
12.4731114656 33.9425102759 10.5589428475
12.0855884567 34.0011896413 13.2132153402
11.6642820917 34.4119178119 13.2957501894
12.2432800185 34.7041550924 13.4118840536
12.2279915394 35.2679777965 10.4399293891
12.0135780329 35.5223510413 13.5410582808
12.2291336428 35.9773908376 10.5537903922
12.0893570885 36.3047438407 13.4466284719
11.8229003943 36.6283920887 10.6287294039
11.9328352693 37.5299508247 10.9343052614
11.9114368537 36.9898002861 13.3226602921
12.2464925344 36.8053607530 13.2521504315
12.1563494346 37.4326192276 12.8473484062
12.0501651005 38.5772081356 11.1394453406
11.9910009143 38.3817454707 12.4348770227
12.1759782370 39.8036501664 11.2055575106
12.1706474073 39.0498322324 12.0518439614
12.0962900148 40.0044456249 11.8020992231
12.1638243195 40.9841814786 11.0824285624
12.0526340950 40.9074629191 11.6394874775
12.4410227620 41.9639118281 10.9800732330
12.2455133113 41.7441448422 11.5107603225
12.3858638311 42.7404600329 10.8912630033
12.5999122301 42.8201941457 10.7719498165
12.6272680029 42.5877155065 10.8204020372
12.3021366388 42.5397479732 11.3453262978
12.6064366364 42.8762724439 10.8623921382
12.4384918278 42.8716686539 11.0838693650
12.1526463718 42.8823944375 11.2214541726
12.2080556812 1.9390315530 6.3312430026
12.5887641566 1.7632341455 6.8509339276
12.8203361734 1.6182118306 7.4037068782
12.6093882488 1.4099133630 7.9033617533
12.6111717883 1.6105711934 8.5096306466
13.0037444866 1.7886599170 8.3413573580
12.5451655361 2.6071753043 6.7821568927
12.9945679239 2.2356245647 7.3549664677
12.8631350075 2.0333309652 8.7134843906
12.7612162519 2.7601682519 9.0275153864
12.4458051319 3.4924622643 6.9433900204
12.9257828222 3.2932090725 7.4125507452
12.9042757520 3.7630842380 9.1790992128
13.1741690291 3.2610993045 8.7139427497
13.2208247528 4.1256927784 8.6844451369
12.9308450939 4.4081031025 7.7235037946
12.9639434364 4.8000336778 9.2523436724
13.1915028379 5.0851057964 8.6659215607
12.4897393404 4.4708955090 9.7178976051
12.9403878565 5.3071005510 7.9548313745
12.9168357424 5.9729955192 9.2481595842
13.0660016506 5.7938540580 8.5695735203
12.5605475272 5.6478703450 10.0098653530
12.9474529930 5.8741309474 8.2400294954
12.6428826631 6.6893459898 8.7261637405
12.7295086979 7.0894724291 9.5499064089
12.6769758531 6.8386085431 10.1536715288
12.3077817582 6.6589981771 10.7253989767
12.3839199709 8.0026473289 9.4924159382
12.6126545962 7.9773508299 10.2874755439
12.4201220526 7.8155661354 11.0464351541
12.4107581264 9.1879317489 10.3550745426
12.5244818513 8.9945877197 11.1283619011
12.2603614949 8.8652153635 11.7527360776
12.5009164230 10.2992485715 11.2048514243
12.4022036062 9.8981420312 11.9067444536
12.3328828516 12.2627214118 5.0229623033
12.3532216153 12.0825071828 5.7079726619
12.5569218702 11.6155269968 11.4566943125
12.5125517976 11.1792023759 12.1901775346
12.7313683740 12.8849584558 4.7766775742
12.7527011790 12.6879866135 5.6326116487
12.5301260092 12.5940972833 6.5655757630
12.6390245647 12.7221838200 11.5839420605
12.6994267055 12.2647627410 12.1442871843
12.5987281661 12.4504667260 12.9039654181
12.8574395865 13.9822461725 3.2980423198
13.1801542179 13.8150071228 3.9548360410
13.1627152845 13.5084421178 4.6096876937
13.4411691272 13.9016665658 5.2452891149
13.1537058504 13.3473580636 5.4410785216
13.0554702378 13.3550158717 6.4007534236
12.8251347264 13.5484492574 7.6192999036
12.5975449609 13.7404181691 8.6299874265
12.6647438529 13.7509921885 11.6866276086
12.8472976807 13.3502890378 12.4316360497
12.9594169058 13.4048858131 13.0522412904
12.7698331811 13.3047040050 13.3368219781
12.6353716105 13.9825385338 13.5711676362
12.7446788098 15.0700228406 2.4717803619
13.0483630279 14.5636802383 2.9465639375
13.4221551065 14.0087934240 6.0761490016
13.3102994450 14.1304451883 7.0293184085
13.1954463082 14.4170513336 7.7782392742
13.2619326939 15.1331613333 8.0296036596
12.8801690819 14.5722873518 8.5697992547
12.8206095377 14.6933611041 12.4341665376
13.0371904097 14.0714841805 13.0077971123
12.7109184594 14.8849635443 13.5109778400
12.9097955953 15.7972644746 2.4393190078
12.9912935253 15.8280021761 8.7655094374
13.3075584517 15.8726985225 7.9657721939
12.7261934970 16.0344717989 12.4690948541
12.9585751739 14.7248818910 13.1502108745
12.7423028663 15.5382179215 13.1511280162
12.9904630165 16.4343874976 2.6216970948
12.8204815243 17.3819996183 2.8315923602
13.1897549058 17.3523286746 3.8970505695
13.2826622818 16.5370573892 3.2850320255
13.3226360762 17.3035455222 4.9370253473
13.4617106522 16.4998984477 4.2043311459
13.3606855325 17.2476403434 6.0060998809
13.5238364765 16.4387390596 5.2267730340
13.3349343049 17.1155759602 7.0806469461
13.5126689103 16.3502745416 6.2780484276
13.2013943600 16.8050505472 8.1616912863
13.4383685872 16.1830656444 7.2638903229
12.9603334226 16.9289140815 9.2092676337
12.8424401624 17.2736961134 12.3162762995
12.6242142113 16.8592942024 13.3491375709
12.5341640019 18.5999863231 2.7490603658
12.9359106489 18.3417636675 3.6777957982
13.1447193928 18.2117014104 4.6664086097
13.2434115274 18.1725920806 5.6839040731
13.2881742420 18.1096824185 6.7667037594
13.2639820971 17.9096059706 7.8606260249
13.1559095932 17.6753037417 8.7820767738
13.1038035249 17.9252802709 9.8778401563
13.0630469350 17.9620629779 11.3147141086
13.1829000615 18.4225791789 12.5219528189
12.9390754372 18.1189221030 13.4326766197
12.5515356778 17.9360039066 14.1210297684
12.2584302020 19.6344455605 2.7306775432
12.7040756537 19.4330935084 3.6012114223
13.0126096052 19.2217999547 4.5524628103
13.1686373604 18.9750365760 5.3637997257
13.3085034003 19.2052574731 6.3731538242
13.3845758387 18.9295047326 7.5384888062
13.3683160132 18.6690095592 8.7497421568
13.4784880269 18.9416394174 9.7467609598
13.4500581188 18.8526888760 10.7308504310
13.4433802530 18.9225374399 11.8426335232
13.4459065668 19.1337319119 12.6820317669
13.5435889289 19.6256585946 13.1108713506
13.2928293585 19.2016289988 13.5394188436
12.9928652967 19.0505185078 14.5746468666
12.8074125294 19.3141927684 15.3154482356
13.1225480865 19.4227134433 15.2041331477
12.9862305408 19.7587048829 15.6544923963
12.3103477523 20.5518527913 3.5167395574
12.8149984375 20.3588831906 4.5237761927
13.1802673918 20.0623374817 5.5676711109
13.4356193470 20.2013705386 6.4683941099
13.5525695803 19.8960905996 7.2154590574
13.6342934852 19.6441016270 8.2491878625
13.6559812359 19.4527962078 9.1992797409
13.4989727416 19.9993724764 13.7149564376
13.5561103956 20.7731531070 14.0293870021
13.2843979803 20.1607655026 14.6390948087
13.2279957731 19.7402671613 15.2044770566
12.5220691214 20.6767569149 15.9751425601
12.9415821403 20.2160488157 15.7341788432
12.3831066825 21.5591874879 4.4730317667
12.9759858294 21.3308283714 5.4165858045
13.4109313083 21.0709553360 6.2715438194
13.2785837235 21.2940444327 14.8131336816
13.5659530876 21.5741019615 14.2722895854
13.1825417757 20.2122235778 15.4015937722
12.9431711111 20.9251135915 15.5025904347
12.5269947499 22.4535796365 5.3431060589
13.2113102427 22.4019756433 6.2444635434
13.3204912037 22.0967900526 14.7622180117
13.0900846615 23.0685862750 14.9059311884
12.8205993553 22.1184929833 15.3942383542
13.1845373092 23.6294284423 6.6402686295
13.0033221068 24.3204984499 14.7299021524
13.1444545523 24.3024831359 6.8919091473
12.8736509593 24.6633049980 6.9178266581
13.1750886265 24.7250084693 7.2132785622
12.8757848596 25.4071323982 14.5567327871
12.6650025071 26.3058876055 8.0321787902
13.1642280183 25.4820670364 7.7700138146
13.1927383946 26.4317301216 8.3891305360
12.8072260685 26.3190888249 14.2576869189
13.3034446197 25.7718844238 14.1413723239
13.2995582539 26.3234493430 13.8669524010
13.1765861525 27.1764037080 8.8114520015
12.9895816127 26.9319853525 13.7474869312
13.4230681094 26.7447998232 13.4332128520
13.1335323790 27.6265675837 13.1010961600
13.3211966799 27.7647079634 9.2850221341
12.8026639382 28.4767751585 9.3186428418
13.2594760693 28.5470055427 9.8151389826
13.0089476827 28.7032510276 12.6365263731
13.1377150097 29.4200280676 10.1666071288
13.0466061273 29.4989080010 12.3673300465
13.3872917930 29.0591816479 12.1280840282
13.3473031451 29.9007237970 11.9253094209
13.0946533646 30.1992900002 10.3489644613
12.8373983439 30.9587648111 10.3764872872
13.2564649726 30.5934439975 10.6795949132
12.9129787742 30.3344374576 12.3329592516
13.2872443278 30.9493634770 11.9218522934
12.5248176864 31.7574724726 10.4425013243
13.0605085872 31.6121963965 10.8306103279
12.9313805286 31.3407239367 12.3405396152
13.2893417862 31.7784675402 12.0640601955
13.1243389219 32.6572570262 11.0882128662
13.0804839672 32.1442546741 12.3638596527
13.0195928727 32.9546947627 12.5661846916
12.6838506709 34.6213334284 10.6536850452
13.0251686210 33.7457565871 10.9983381974
12.5786408440 34.0576215775 13.2066808218
13.0021214310 33.8899154130 12.8911064688
12.7643552169 35.5745061129 10.8650772746
13.1807567402 34.7928376378 11.1584533916
12.8459709183 34.5510594771 13.2053601345
12.6861036731 35.4157503416 13.2857732919
12.4205223359 36.5936915751 10.9155574750
13.2233903395 35.5185118874 11.3766966839
12.9667538041 36.3099211436 11.5128992311
13.3397198278 35.7509415507 11.8142477749
12.6729567010 36.4045543054 13.0199516507
13.1257416258 35.6754130941 12.8828932473
13.1298600919 36.1632349145 12.5826019370
12.4864972834 37.5617876985 11.4339237824
13.2119613971 36.1628135849 12.1235395873
12.7920540102 36.9175045756 12.2529769551
12.3781176391 38.7517673210 11.4556465307
12.4085497312 38.2488008845 12.0286292522
12.4306781991 39.5977019228 11.5981664276
12.5939988857 40.8223532199 11.2185072400
12.6281330689 40.5568680633 11.4835525224
12.6063865069 41.2099376529 11.5064858575
12.8459056702 41.6486016995 11.1193625695
12.7138469631 42.1153993988 11.3759826211
12.7345179443 42.7445793435 10.8270094480
12.8404134130 42.3249616495 10.9910224048
12.7020141102 42.6210153679 11.2250889221
12.7742333789 42.7259045426 11.0090975368
13.1080855074 1.9338810837 7.9010396795
13.2270086379 2.6272014491 7.8528455093
13.1839867051 2.4783850758 8.4209553944
13.2478933267 3.5038966062 8.1386505779
13.2252357267 4.6172435396 8.1985868972
13.1746983696 5.3411402719 8.2646655171
13.4118664391 14.4814568358 3.6829545971
13.4980305601 14.1616862346 4.5777493599
13.0024506050 13.8204034521 13.3296618015
13.3272797642 15.2097564393 3.0426410193
13.6166370799 15.1793543722 3.8187082140
13.6664093840 14.9255465496 4.5747894854
13.6256989667 14.6708642263 5.5912568705
13.5533364992 14.7419978239 6.6948025489
13.4304036812 14.7599877063 7.4268692025
12.9896342191 14.3111717510 13.3770318995
13.3019240140 15.9233279993 2.9174618513
13.5276113350 15.8077537410 3.5708298850
13.6493410673 15.7121540438 4.4574937464
13.6600276966 15.5883522570 5.4472200525
13.6070735661 15.4921565774 6.4762595218
13.4926608149 15.3732205176 7.3616741735
13.8012372099 19.7177543944 10.2374349461
13.7456725999 19.6490941613 11.4645908633
13.6594512628 19.6438686943 12.4302339627
13.1556301792 19.6231663883 15.4652760402
13.6401210172 20.6949481590 6.9360350092
13.8416213871 20.5947915303 7.7761161154
13.9316466204 20.1796536056 9.0845795420
14.1111564423 20.4641714404 10.2855138497
14.0282217639 20.4215780546 11.2917338408
13.8908347030 20.4198582250 12.3456157382
13.6964735860 20.2791913918 13.1811814240
13.1866458603 19.9175001463 15.5721687837
13.7553027080 21.6457354628 7.0096792032
13.9802763503 21.3213885613 7.6106483514
14.0391543213 20.6816141125 8.4749398015
14.1397474326 20.5612396610 9.5543604114
14.2487831482 20.8065259288 10.5138176909
14.3021272491 21.0871406958 11.1492169299
14.2311892944 20.9407347910 11.2037744445
14.1272967764 21.2633616698 12.3067270127
13.8360490789 21.2918174391 13.4064321190
13.7362656311 23.0495153707 7.0293320685
13.9638763475 22.3331935233 7.2600977255
14.2731723835 21.3486123988 11.8218363497
14.2225882338 21.8956244290 12.6995344603
14.1964839483 22.4854175670 13.2673910355
14.0508620110 22.3195674525 13.3958271991
13.6571437485 22.3452057795 14.1800113497
13.5356408322 24.0489970667 7.1355058979
14.0023668615 23.3242552067 7.3734618915
13.8782980053 23.9562889368 7.4514821915
13.9967548324 24.0030732687 7.6008186862
14.1043663179 23.1533041566 13.6574679734
14.0982518131 24.1267759868 13.7474085208
13.7641048825 23.6549136545 14.0951756240
13.5981669080 24.5937586191 7.5078712271
13.7611293762 24.7803742329 7.7954389843
14.0131103553 24.9820571811 13.6002826113
14.1864417884 24.8074681983 13.5112232394
14.2063157745 25.4389312908 13.1422045089
13.5158139414 24.9885092643 14.1718140303
13.6161326528 26.7112280957 8.8080263179
13.6148286954 25.9605066916 8.3680681416
13.7726866997 26.5726901384 8.8390629729
14.0817026748 26.1552298224 12.8127570422
14.2358516838 26.0177200322 12.6809719786
14.1915033911 26.6355222681 12.1900606561
13.6915627057 25.9601266709 13.5712349708
13.5579076561 27.1777205151 9.0402467564
13.7060549664 27.1879344855 9.2081445862
13.9854517674 27.4049961501 11.8312476725
14.1398141868 27.1936790199 11.6225743809
13.9749308781 27.7050935532 11.0088483493
13.7192192596 26.9784323217 12.8150985843
13.7038797922 28.4876582757 10.7820045113
13.6901116300 27.9084445564 9.9919255030
13.8091278352 28.2672392479 11.5432971877
13.5933290036 28.1466417884 12.2062808634
13.4561637049 29.7133520869 10.7518950893
13.6141664208 29.1370778151 11.4946853380
13.4275145574 30.5272788946 11.2861699515
13.3724754417 31.8870453118 11.5422723901
13.3923296794 33.1411776975 11.5924627828
13.3589287985 32.6073736295 12.0827640215
13.4332865265 34.2137495742 11.6415031052
13.3940536599 33.7610461252 12.2766154433
13.4480387543 35.1032599246 11.7399529083
13.5014456029 34.6980413175 12.1801172871
13.2478200698 34.7933997873 12.7901168602
13.3919771551 35.5100484868 12.3402036529
12.8566579891 41.2105242471 11.3068029832
12.9301762764 41.8415069456 11.2512561309
12.9081202579 42.3890370653 11.1818256805
3 2 1 0
3 0 3 2
3 0 1 4
3 4 1 5
3 3 0 6
3 0 7 6
3 0 4 7
3 9 8 7
3 7 8 6
3 9 10 8
3 5 11 4
3 13 12 11
3 12 4 11
3 12 7 4
3 7 14 9
3 7 12 14
3 10 9 15
3 15 9 14
3 13 16 12
3 12 16 14
3 14 16 17
3 14 17 15
3 20 19 18
3 18 21 20
3 24 23 22
3 24 22 19
3 19 22 18
3 22 1 18
3 1 2 18
3 26 25 3
3 3 25 2
3 25 21 2
3 21 18 2
3 26 27 25
3 22 23 28
3 28 23 29
3 28 5 1
3 28 1 22
3 6 26 3
3 30 27 26
3 6 30 26
3 8 30 6
3 8 10 30
3 30 10 31
3 29 32 28
3 32 34 33
3 32 33 11
3 28 32 11
3 5 28 11
3 33 13 11
3 15 36 35
3 31 15 35
3 10 15 31
3 36 37 35
3 34 38 33
3 38 40 39
3 38 39 16
3 33 38 16
3 13 33 16
3 41 17 16
3 41 16 39
3 41 42 17
3 17 42 15
3 42 43 15
3 43 36 15
3 36 43 37
3 40 44 39
3 39 44 41
3 41 44 45
3 41 45 42
3 48 47 46
3 50 49 46
3 46 49 48
3 50 51 49
3 46 47 52
3 52 47 53
3 46 54 50
3 46 52 54
3 51 50 55
3 55 50 54
3 52 53 56
3 56 53 57
3 52 58 54
3 52 56 58
3 55 54 59
3 59 54 58
3 57 60 56
3 56 60 58
3 58 60 61
3 58 61 59
3 64 63 62
3 66 65 62
3 62 65 64
3 68 67 66
3 66 67 65
3 68 69 67
3 72 71 70
3 72 70 63
3 70 62 63
3 70 73 62
3 73 19 20
3 66 73 20
3 62 73 66
3 66 20 21
3 74 66 21
3 68 66 74
3 69 68 75
3 68 76 75
3 68 74 76
3 76 77 75
3 70 71 78
3 78 71 79
3 78 23 24
3 73 78 24
3 70 78 73
3 73 24 19
3 25 74 21
3 74 25 27
3 80 74 27
3 76 74 80
3 77 76 81
3 76 82 81
3 76 80 82
3 82 83 81
3 78 79 84
3 84 79 85
3 84 29 23
3 84 23 78
3 30 80 27
3 80 30 31
3 86 80 31
3 82 80 86
3 83 82 87
3 82 88 87
3 82 86 88
3 88 89 87
3 84 85 90
3 90 85 91
3 92 32 29
3 84 92 29
3 90 92 84
3 92 34 32
3 35 86 31
3 86 35 37
3 93 86 37
3 88 86 93
3 89 88 94
3 94 88 93
3 91 95 90
3 97 96 95
3 96 90 95
3 96 92 90
3 98 38 34
3 92 98 34
3 96 98 92
3 98 40 38
3 42 99 43
3 93 37 43
3 99 93 43
3 100 93 99
3 94 93 101
3 101 93 100
3 97 102 96
3 104 103 102
3 103 96 102
3 103 98 96
3 105 44 40
3 98 105 40
3 103 105 98
3 106 45 44
3 106 44 105
3 99 42 45
3 106 99 45
3 107 99 106
3 109 100 108
3 100 107 108
3 100 99 107
3 100 109 101
3 104 110 103
3 103 110 105
3 105 110 111
3 105 111 106
3 106 111 112
3 106 112 107
3 107 112 113
3 107 113 108
3 115 114 48
3 48 114 47
3 116 48 49
3 116 115 48
3 49 51 116
3 116 51 117
3 114 53 47
3 118 53 114
3 55 117 51
3 55 119 117
3 118 57 53
3 120 57 118
3 123 122 121
3 122 119 121
3 119 59 121
3 119 55 59
3 120 124 57
3 57 124 60
3 121 61 123
3 61 124 123
3 61 60 124
3 61 121 59
3 127 126 125
3 129 128 125
3 125 128 127
3 129 130 128
3 133 132 131
3 133 131 126
3 131 125 126
3 131 134 125
3 125 135 129
3 125 134 135
3 130 129 136
3 129 137 136
3 129 135 137
3 137 138 136
3 141 140 139
3 141 139 132
3 132 139 131
3 139 63 131
3 63 64 131
3 131 64 65
3 131 65 134
3 134 65 67
3 134 67 135
3 135 67 69
3 142 135 69
3 137 135 142
3 138 137 143
3 137 144 143
3 137 142 144
3 144 145 143
3 139 140 72
3 140 71 72
3 140 146 71
3 139 72 63
3 75 142 69
3 142 75 77
3 147 142 77
3 144 142 147
3 145 144 148
3 148 144 147
3 151 150 149
3 146 151 149
3 79 146 149
3 71 146 79
3 81 147 77
3 153 152 83
3 83 152 81
3 152 148 81
3 148 147 81
3 153 154 152
3 149 150 155
3 155 150 156
3 155 85 79
3 155 79 149
3 87 153 83
3 87 89 153
3 89 154 153
3 89 157 154
3 156 158 155
3 85 155 158
3 159 85 158
3 91 85 159
3 94 161 160
3 157 94 160
3 89 94 157
3 161 162 160
3 95 91 163
3 91 164 163
3 91 159 164
3 163 97 95
3 101 165 161
3 101 161 94
3 162 161 166
3 166 161 165
3 164 167 163
3 167 169 168
3 167 168 102
3 163 167 102
3 97 163 102
3 168 104 102
3 108 170 109
3 170 171 109
3 109 171 101
3 171 172 101
3 172 165 101
3 165 172 166
3 169 173 168
3 173 175 174
3 173 174 110
3 168 173 110
3 104 168 110
3 176 111 110
3 176 110 174
3 177 112 111
3 177 111 176
3 178 113 112
3 178 112 177
3 170 108 113
3 178 170 113
3 179 170 178
3 171 170 180
3 180 170 179
3 175 181 174
3 183 182 181
3 182 174 181
3 182 176 174
3 176 184 177
3 176 182 184
3 177 185 178
3 177 184 185
3 187 179 186
3 179 185 186
3 179 178 185
3 179 187 180
3 183 188 182
3 182 188 184
3 184 188 189
3 184 189 185
3 185 189 190
3 190 191 185
3 191 192 185
3 193 186 185
3 193 185 192
3 192 194 193
3 192 191 195
3 195 191 196
3 194 192 197
3 192 198 197
3 192 195 198
3 198 199 197
3 195 196 115
3 196 114 115
3 196 200 114
3 195 115 116
3 195 116 198
3 116 117 198
3 117 199 198
3 117 201 199
3 200 118 114
3 202 118 200
3 119 201 117
3 119 203 201
3 205 120 204
3 120 202 204
3 120 118 202
3 122 123 205
3 204 122 205
3 206 122 204
3 119 122 203
3 203 122 206
3 205 124 120
3 124 205 123
3 209 208 207
3 211 210 207
3 207 210 209
3 213 212 211
3 211 212 210
3 213 214 212
3 207 208 215
3 215 208 216
3 215 126 127
3 211 215 127
3 207 215 211
3 211 127 128
3 211 128 213
3 218 217 130
3 130 217 128
3 217 214 128
3 214 213 128
3 218 219 217
3 222 221 220
3 222 220 216
3 216 220 215
3 220 132 215
3 132 133 215
3 215 133 126
3 136 218 130
3 224 223 138
3 138 223 136
3 223 219 136
3 219 218 136
3 224 225 223
3 228 227 226
3 228 226 221
3 221 226 220
3 226 140 220
3 140 141 220
3 220 141 132
3 143 224 138
3 230 229 145
3 145 229 143
3 229 225 143
3 225 224 143
3 230 231 229
3 226 227 232
3 232 227 233
3 232 146 140
3 232 140 226
3 148 234 230
3 148 230 145
3 231 230 235
3 235 230 234
3 232 233 151
3 233 150 151
3 233 236 150
3 232 151 146
3 152 234 148
3 238 237 154
3 154 237 152
3 237 235 152
3 235 234 152
3 238 239 237
3 242 241 240
3 236 242 240
3 156 236 240
3 150 236 156
3 157 243 238
3 157 238 154
3 239 238 244
3 244 238 243
3 241 245 240
3 245 247 246
3 245 246 158
3 240 245 158
3 156 240 158
3 246 159 158
3 160 243 157
3 160 162 243
3 162 244 243
3 162 248 244
3 246 247 249
3 249 247 250
3 249 164 159
3 249 159 246
3 166 248 162
3 166 251 248
3 250 252 249
3 252 254 253
3 252 253 167
3 249 252 167
3 164 249 167
3 253 169 167
3 256 255 172
3 256 172 171
3 166 172 251
3 251 172 255
3 254 257 253
3 257 259 258
3 257 258 173
3 253 257 173
3 169 253 173
3 258 175 173
3 180 256 171
3 180 260 256
3 259 261 258
3 261 263 262
3 261 262 181
3 258 261 181
3 175 258 181
3 262 183 181
3 265 264 187
3 265 187 186
3 180 187 260
3 260 187 264
3 263 266 262
3 262 266 183
3 266 188 183
3 266 267 188
3 267 269 268
3 189 267 268
3 188 267 189
3 270 190 189
3 270 189 268
3 272 271 193
3 272 191 271
3 191 272 270
3 265 270 272
3 270 265 190
3 271 190 265
3 265 186 271
3 271 186 193
3 191 190 271
3 193 194 272
3 272 194 273
3 269 274 268
3 276 275 274
3 275 268 274
3 275 270 268
3 275 196 191
3 275 191 270
3 277 273 194
3 277 194 197
3 197 199 277
3 277 199 278
3 276 279 275
3 196 275 279
3 280 196 279
3 200 196 280
3 201 278 199
3 201 281 278
3 280 202 200
3 282 202 280
3 285 284 283
3 284 281 283
3 281 203 283
3 281 201 203
3 282 286 202
3 202 286 204
3 283 206 285
3 206 286 285
3 206 204 286
3 206 283 203
3 289 288 287
3 291 290 287
3 287 290 289
3 293 292 291
3 291 292 290
3 293 294 292
3 297 296 295
3 297 295 288
3 288 295 287
3 295 208 287
3 208 209 287
3 287 209 210
3 287 210 291
3 291 210 212
3 291 212 293
3 299 298 214
3 214 298 212
3 298 294 212
3 294 293 212
3 299 300 298
3 295 296 301
3 301 296 302
3 301 216 208
3 301 208 295
3 217 299 214
3 304 303 219
3 219 303 217
3 303 300 217
3 300 299 217
3 304 305 303
3 308 307 306
3 308 306 302
3 302 306 301
3 306 221 301
3 221 222 301
3 301 222 216
3 223 304 219
3 223 225 304
3 225 305 304
3 225 309 305
3 306 307 228
3 307 227 228
3 307 310 227
3 306 228 221
3 311 309 225
3 311 225 229
3 229 231 311
3 311 231 312
3 315 314 313
3 310 315 313
3 233 310 313
3 227 310 233
3 235 317 316
3 312 235 316
3 231 235 312
3 317 318 316
3 313 314 319
3 319 314 320
3 319 236 233
3 319 233 313
3 237 317 235
3 237 239 317
3 239 318 317
3 239 321 318
3 319 320 242
3 320 241 242
3 320 322 241
3 319 242 236
3 244 321 239
3 244 323 321
3 322 324 241
3 241 324 245
3 247 245 324
3 247 324 325
3 248 323 244
3 248 326 323
3 325 250 247
3 327 250 325
3 251 326 248
3 251 328 326
3 327 329 250
3 250 329 252
3 254 252 329
3 254 329 330
3 256 331 255
3 331 332 255
3 332 251 255
3 332 328 251
3 330 333 254
3 254 333 257
3 259 257 333
3 259 333 334
3 336 335 331
3 256 336 331
3 260 336 256
3 331 335 332
3 334 337 259
3 259 337 261
3 263 261 337
3 263 337 338
3 265 339 264
3 339 340 264
3 340 260 264
3 340 336 260
3 338 341 263
3 263 341 266
3 266 342 267
3 341 342 266
3 344 343 269
3 267 344 269
3 342 344 267
3 346 345 343
3 346 343 344
3 265 272 339
3 345 346 347
3 272 273 339
3 273 340 339
3 273 348 340
3 343 274 269
3 274 343 276
3 343 349 276
3 343 345 349
3 345 347 350
3 345 350 349
3 273 277 351
3 352 273 351
3 348 273 352
3 278 351 277
3 349 279 276
3 280 279 349
3 350 280 349
3 353 280 350
3 352 351 354
3 352 354 355
3 281 354 278
3 278 354 351
3 357 282 356
3 282 353 356
3 282 280 353
3 357 356 355
3 357 355 354
3 285 357 354
3 284 285 354
3 284 354 281
3 357 286 282
3 286 357 285
3 359 358 289
3 289 358 288
3 360 289 290
3 360 359 289
3 361 290 292
3 361 360 290
3 292 294 361
3 361 294 362
3 364 363 297
3 297 363 296
3 297 288 358
3 297 358 364
3 365 362 294
3 365 294 298
3 298 300 365
3 365 300 366
3 369 368 367
3 363 369 367
3 302 363 367
3 296 363 302
3 370 366 300
3 370 300 303
3 303 305 370
3 370 305 371
3 367 368 308
3 368 307 308
3 368 372 307
3 367 308 302
3 309 374 373
3 371 309 373
3 305 309 371
3 374 375 373
3 372 310 307
3 376 310 372
3 311 374 309
3 311 312 374
3 312 375 374
3 312 377 375
3 379 378 315
3 315 378 314
3 315 310 376
3 315 376 379
3 380 377 312
3 380 312 316
3 316 318 380
3 380 318 381
3 378 320 314
3 382 320 378
3 321 381 318
3 321 383 381
3 382 322 320
3 384 322 382
3 323 386 385
3 383 323 385
3 321 323 383
3 386 387 385
3 384 388 322
3 322 388 324
3 325 324 388
3 325 388 389
3 326 390 386
3 326 386 323
3 387 386 391
3 391 386 390
3 393 327 392
3 327 389 392
3 327 325 389
3 394 393 392
3 328 395 390
3 328 390 326
3 391 390 396
3 396 390 395
3 393 329 327
3 330 329 393
3 394 330 393
3 397 330 394
3 399 398 395
3 328 399 395
3 332 399 328
3 395 398 396
3 397 400 330
3 330 400 333
3 334 333 400
3 334 400 401
3 336 402 335
3 402 403 335
3 403 332 335
3 403 399 332
3 401 404 334
3 334 404 337
3 406 405 338
3 337 406 338
3 404 406 337
3 408 407 405
3 408 405 406
3 410 409 407
3 410 407 408
3 411 409 410
3 340 412 402
3 340 402 336
3 403 402 413
3 413 402 412
3 405 341 338
3 341 405 342
3 342 405 407
3 342 407 344
3 344 407 409
3 411 414 409
3 414 344 409
3 414 346 344
3 347 346 414
3 347 414 415
3 348 416 412
3 348 412 340
3 413 412 417
3 417 412 416
3 419 350 418
3 350 415 418
3 350 347 415
3 418 420 416
3 352 418 416
3 348 352 416
3 419 418 352
3 416 420 417
3 421 353 419
3 419 353 350
3 355 421 352
3 352 421 419
3 421 356 353
3 356 421 355
3 424 423 422
3 426 425 422
3 422 425 424
3 428 427 426
3 426 427 425
3 428 429 427
3 423 430 422
3 432 431 430
3 431 422 430
3 431 426 422
3 426 433 428
3 426 431 433
3 429 428 434
3 434 428 433
3 431 432 435
3 435 432 436
3 431 437 433
3 431 435 437
3 434 433 438
3 438 433 437
3 436 439 435
3 441 440 439
3 440 435 439
3 440 437 435
3 438 437 442
3 442 437 440
3 440 441 443
3 443 441 444
3 442 440 445
3 445 440 443
3 444 446 443
3 443 446 445
3 449 448 447
3 451 450 447
3 447 450 449
3 453 452 451
3 451 452 450
3 453 454 452
3 457 456 455
3 457 455 448
3 448 455 447
3 455 358 447
3 358 359 447
3 447 359 360
3 447 360 451
3 451 360 361
3 451 361 453
3 459 458 362
3 362 458 361
3 458 454 361
3 454 453 361
3 459 460 458
3 463 462 461
3 463 461 456
3 456 461 455
3 461 363 455
3 363 364 455
3 455 364 358
3 365 459 362
3 465 464 366
3 366 464 365
3 464 460 365
3 460 459 365
3 465 466 464
3 461 462 369
3 462 368 369
3 462 467 368
3 461 369 363
3 370 465 366
3 370 371 465
3 371 466 465
3 371 468 466
3 467 372 368
3 469 372 467
3 470 468 371
3 470 371 373
3 472 471 375
3 471 373 375
3 471 470 373
3 472 473 471
3 476 475 474
3 469 476 474
3 376 469 474
3 372 469 376
3 377 477 472
3 377 472 375
3 473 472 478
3 478 472 477
3 474 475 379
3 475 378 379
3 475 479 378
3 474 379 376
3 380 477 377
3 380 381 477
3 381 478 477
3 381 480 478
3 479 382 378
3 481 382 479
3 383 483 482
3 480 383 482
3 381 383 480
3 483 484 482
3 486 384 485
3 384 481 485
3 384 382 481
3 487 486 485
3 385 483 383
3 385 387 483
3 387 484 483
3 387 488 484
3 486 388 384
3 389 388 486
3 487 389 486
3 489 389 487
3 391 491 490
3 488 391 490
3 387 391 488
3 491 492 490
3 489 493 389
3 389 493 392
3 394 392 493
3 394 493 494
3 396 495 491
3 396 491 391
3 492 491 496
3 496 491 495
3 498 397 497
3 397 494 497
3 397 394 494
3 499 498 497
3 399 500 398
3 495 396 398
3 500 495 398
3 501 495 500
3 496 495 502
3 502 495 501
3 498 400 397
3 504 503 401
3 504 401 400
3 499 504 400
3 498 499 400
3 505 503 504
3 403 506 500
3 403 500 399
3 508 501 507
3 501 506 507
3 501 500 506
3 501 508 502
3 503 404 401
3 505 509 503
3 509 404 503
3 509 406 404
3 406 510 408
3 509 510 406
3 510 512 511
3 410 510 511
3 408 510 410
3 511 411 410
3 413 513 506
3 413 506 403
3 507 506 514
3 514 506 513
3 512 515 511
3 511 515 411
3 515 414 411
3 515 516 414
3 415 414 516
3 415 516 517
3 417 518 513
3 417 513 413
3 514 513 519
3 519 513 518
3 418 415 520
3 415 521 520
3 415 517 521
3 418 520 522
3 523 418 522
3 420 418 523
3 417 420 518
3 420 524 518
3 420 523 524
3 518 524 519
3 521 525 520
3 520 525 522
3 527 526 424
3 424 526 423
3 528 424 425
3 528 527 424
3 529 425 427
3 529 528 425
3 427 429 529
3 529 429 530
3 430 423 531
3 423 532 531
3 423 526 532
3 531 432 430
3 434 534 533
3 530 434 533
3 429 434 530
3 534 535 533
3 532 536 531
3 432 531 536
3 537 432 536
3 436 432 537
3 438 538 534
3 438 534 434
3 535 534 539
3 539 534 538
3 439 436 540
3 436 541 540
3 436 537 541
3 540 441 439
3 442 542 538
3 442 538 438
3 539 538 543
3 543 538 542
3 541 544 540
3 441 540 544
3 545 441 544
3 444 441 545
3 445 546 542
3 445 542 442
3 543 542 547
3 542 548 547
3 542 546 548
3 548 549 547
3 446 444 550
3 444 551 550
3 444 545 551
3 546 445 446
3 550 546 446
3 552 546 550
3 546 553 548
3 546 552 553
3 549 548 554
3 554 548 553
3 551 555 550
3 557 556 555
3 556 550 555
3 556 552 550
3 552 558 553
3 552 556 558
3 554 553 559
3 553 560 559
3 553 558 560
3 560 561 559
3 557 562 556
3 564 563 562
3 563 556 562
3 563 558 556
3 558 565 560
3 558 563 565
3 561 560 566
3 566 560 565
3 563 564 567
3 567 564 568
3 563 569 565
3 563 567 569
3 566 565 570
3 565 571 570
3 565 569 571
3 571 572 570
3 568 573 567
3 575 574 573
3 574 567 573
3 574 569 567
3 569 576 571
3 569 574 576
3 572 571 577
3 577 571 576
3 579 578 449
3 449 578 448
3 580 449 450
3 580 579 449
3 581 450 452
3 581 580 450
3 583 582 454
3 582 452 454
3 582 581 452
3 585 584 583
3 583 584 582
3 585 586 584
3 574 575 587
3 587 575 588
3 574 589 576
3 574 587 589
3 577 576 590
3 590 576 589
3 592 591 457
3 457 591 456
3 457 448 578
3 457 578 592
3 458 583 454
3 583 458 460
3 593 583 460
3 585 583 593
3 586 585 594
3 585 595 594
3 585 593 595
3 594 595 588
3 595 587 588
3 595 596 587
3 587 597 589
3 587 596 597
3 590 589 598
3 598 589 597
3 600 599 463
3 463 599 462
3 463 456 591
3 463 591 600
3 464 593 460
3 593 464 466
3 601 593 466
3 595 593 601
3 603 596 602
3 596 601 602
3 596 595 601
3 605 604 603
3 604 596 603
3 604 597 596
3 598 597 606
3 606 597 604
3 599 467 462
3 607 467 599
3 468 608 601
3 468 601 466
3 602 601 609
3 601 610 609
3 601 608 610
3 609 610 605
3 610 604 605
3 610 611 604
3 606 604 612
3 604 613 612
3 604 611 613
3 613 614 612
3 617 616 615
3 607 617 615
3 469 607 615
3 467 607 469
3 470 608 468
3 608 470 471
3 608 471 610
3 610 471 473
3 618 610 473
3 611 610 618
3 620 613 619
3 613 618 619
3 613 611 618
3 613 620 614
3 615 616 476
3 616 475 476
3 616 621 475
3 615 476 469
3 478 622 618
3 478 618 473
3 619 618 623
3 623 618 622
3 621 479 475
3 624 479 621
3 480 625 622
3 480 622 478
3 623 622 626
3 626 622 625
3 624 481 479
3 627 481 624
3 482 625 480
3 629 628 484
3 484 628 482
3 628 626 482
3 626 625 482
3 629 630 628
3 627 631 481
3 481 631 485
3 487 485 631
3 487 631 632
3 488 633 629
3 488 629 484
3 630 629 634
3 629 635 634
3 629 633 635
3 635 636 634
3 638 489 637
3 489 632 637
3 489 487 632
3 639 638 637
3 490 633 488
3 633 490 492
3 640 633 492
3 635 633 640
3 636 635 641
3 641 635 640
3 638 493 489
3 643 642 494
3 643 494 493
3 639 643 493
3 638 639 493
3 644 642 643
3 496 645 640
3 496 640 492
3 641 640 646
3 646 640 645
3 642 497 494
3 648 647 499
3 648 499 497
3 644 648 497
3 642 644 497
3 649 647 648
3 502 650 645
3 502 645 496
3 646 645 651
3 651 645 650
3 647 504 499
3 653 652 505
3 653 505 504
3 649 653 504
3 647 649 504
3 655 654 652
3 655 652 653
3 656 654 655
3 507 657 508
3 650 502 508
3 657 650 508
3 658 650 657
3 651 650 659
3 659 650 658
3 652 509 505
3 509 652 510
3 510 652 654
3 512 510 654
3 656 512 654
3 660 512 656
3 514 661 657
3 514 657 507
3 657 662 658
3 657 661 662
3 659 658 663
3 663 658 662
3 660 664 512
3 512 664 515
3 664 666 665
3 516 664 665
3 515 664 516
3 665 517 516
3 519 667 661
3 519 661 514
3 669 662 668
3 662 667 668
3 662 661 667
3 662 669 663
3 666 670 665
3 517 665 670
3 671 517 670
3 521 517 671
3 522 672 523
3 673 524 523
3 673 523 672
3 673 674 524
3 524 674 519
3 674 675 519
3 675 667 519
3 667 675 668
3 525 521 676
3 521 677 676
3 521 671 677
3 672 522 525
3 676 672 525
3 678 672 676
3 680 673 679
3 673 678 679
3 673 672 678
3 673 680 674
3 677 681 676
3 683 682 681
3 682 676 681
3 682 678 676
3 679 678 684
3 684 678 682
3 682 683 685
3 685 683 686
3 684 682 687
3 687 682 685
3 685 686 688
3 688 686 689
3 687 685 690
3 690 685 688
3 688 689 691
3 691 689 692
3 690 688 693
3 688 694 693
3 688 691 694
3 694 695 693
3 691 692 696
3 696 692 697
3 691 698 694
3 691 696 698
3 695 694 699
3 694 700 699
3 694 698 700
3 700 701 699
3 696 697 702
3 702 697 703
3 696 704 698
3 696 702 704
3 698 705 700
3 698 704 705
3 701 700 706
3 706 700 705
3 702 703 707
3 707 703 708
3 702 709 704
3 702 707 709
3 711 705 710
3 705 709 710
3 705 704 709
3 705 711 706
3 707 708 712
3 712 708 713
3 715 709 714
3 709 712 714
3 709 707 712
3 709 715 710
3 713 716 712
3 712 716 714
3 718 717 527
3 527 717 526
3 719 527 528
3 719 718 527
3 720 528 529
3 720 719 528
3 722 721 530
3 721 529 530
3 721 720 529
3 722 723 721
3 717 532 526
3 724 532 717
3 533 722 530
3 533 535 722
3 535 723 722
3 535 725 723
3 724 726 532
3 532 726 536
3 537 536 726
3 537 726 727
3 539 725 535
3 539 728 725
3 727 541 537
3 729 541 727
3 543 731 730
3 728 543 730
3 539 543 728
3 731 732 730
3 729 733 541
3 541 733 544
3 545 544 733
3 545 733 734
3 547 731 543
3 547 549 731
3 549 732 731
3 549 735 732
3 734 551 545
3 736 551 734
3 554 738 737
3 735 554 737
3 549 554 735
3 738 739 737
3 736 740 551
3 551 740 555
3 557 555 740
3 557 740 741
3 559 738 554
3 559 561 738
3 561 739 738
3 561 742 739
3 741 743 557
3 557 743 562
3 564 562 743
3 564 743 744
3 566 746 745
3 742 566 745
3 561 566 742
3 746 747 745
3 744 568 564
3 748 568 744
3 570 746 566
3 570 572 746
3 572 747 746
3 572 749 747
3 752 751 750
3 750 753 752
3 573 568 754
3 568 755 754
3 568 748 755
3 754 575 573
3 577 757 756
3 749 577 756
3 572 577 749
3 757 758 756
3 760 759 579
3 579 759 578
3 580 750 751
3 760 580 751
3 579 580 760
3 761 753 750
3 580 761 750
3 581 761 580
3 762 581 582
3 762 761 581
3 763 582 584
3 763 762 582
3 764 754 586
3 754 763 586
3 763 584 586
3 754 755 763
3 764 588 575
3 764 575 754
3 590 765 757
3 590 757 577
3 758 757 766
3 766 757 765
3 768 767 592
3 592 767 591
3 592 578 759
3 592 759 768
3 594 764 586
3 764 594 588
3 598 769 765
3 598 765 590
3 766 765 770
3 770 765 769
3 772 771 600
3 600 771 599
3 600 591 767
3 600 767 772
3 602 773 603
3 773 605 603
3 606 774 769
3 606 769 598
3 770 769 775
3 775 769 774
3 771 607 599
3 776 607 771
3 609 773 602
3 773 609 605
3 612 774 606
3 612 614 774
3 614 775 774
3 614 777 775
3 779 778 617
3 617 778 616
3 617 607 776
3 617 776 779
3 619 780 620
3 780 781 620
3 781 614 620
3 781 777 614
3 778 621 616
3 782 621 778
3 623 783 780
3 623 780 619
3 781 780 784
3 784 780 783
3 782 624 621
3 785 624 782
3 626 786 783
3 626 783 623
3 784 783 787
3 783 788 787
3 783 786 788
3 788 789 787
3 791 627 790
3 627 785 790
3 627 624 785
3 792 791 790
3 628 786 626
3 786 628 630
3 793 786 630
3 788 786 793
3 789 788 794
3 788 795 794
3 788 793 795
3 795 796 794
3 791 631 627
3 798 797 632
3 798 632 631
3 792 798 631
3 791 792 631
3 799 797 798
3 634 793 630
3 793 634 636
3 800 793 636
3 795 793 800
3 796 795 801
3 795 802 801
3 795 800 802
3 797 637 632
3 804 803 639
3 804 639 637
3 799 804 637
3 797 799 637
3 805 803 804
3 641 806 800
3 641 800 636
3 808 802 807
3 802 806 807
3 802 800 806
3 803 643 639
3 810 809 644
3 810 644 643
3 805 810 643
3 803 805 643
3 811 809 810
3 646 812 806
3 646 806 641
3 807 806 813
3 813 806 812
3 809 648 644
3 815 814 649
3 815 649 648
3 811 815 648
3 809 811 648
3 816 814 815
3 818 817 812
3 646 818 812
3 651 818 646
3 812 817 813
3 814 653 649
3 816 819 814
3 819 653 814
3 819 655 653
3 656 655 819
3 656 819 820
3 659 818 651
3 659 821 818
3 823 660 822
3 660 820 822
3 660 656 820
3 824 823 822
3 663 821 659
3 663 825 821
3 823 664 660
3 666 664 823
3 824 666 823
3 826 666 824
3 828 827 669
3 828 669 668
3 663 669 825
3 825 669 827
3 670 666 829
3 666 830 829
3 666 826 830
3 829 671 670
3 832 831 675
3 832 675 674
3 668 675 828
3 828 675 831
3 830 833 829
3 671 829 833
3 834 671 833
3 677 671 834
3 679 835 680
3 835 836 680
3 836 674 680
3 836 832 674
3 681 677 837
3 677 838 837
3 677 834 838
3 837 683 681
3 684 839 835
3 684 835 679
3 836 835 840
3 840 835 839
3 838 841 837
3 683 837 841
3 842 683 841
3 686 683 842
3 687 843 839
3 687 839 684
3 840 839 844
3 844 839 843
3 842 689 686
3 845 689 842
3 690 846 843
3 690 843 687
3 844 843 847
3 847 843 846
3 850 849 848
3 845 850 848
3 692 845 848
3 689 845 692
3 693 846 690
3 852 851 695
3 695 851 693
3 851 847 693
3 847 846 693
3 852 853 851
3 848 849 854
3 854 849 855
3 854 697 692
3 854 692 848
3 699 852 695
3 699 701 852
3 701 853 852
3 701 856 853
3 855 857 854
3 697 854 857
3 858 697 857
3 703 697 858
3 706 856 701
3 706 859 856
3 858 708 703
3 860 708 858
3 862 861 711
3 862 711 710
3 706 711 859
3 859 711 861
3 860 713 708
3 863 713 860
3 865 864 715
3 865 715 714
3 710 715 862
3 862 715 864
3 716 713 866
3 713 867 866
3 713 863 867
3 866 868 716
3 868 714 716
3 868 865 714
3 866 867 869
3 869 867 870
3 868 866 871
3 871 866 869
3 869 870 872
3 872 870 873
3 871 869 874
3 874 869 872
3 872 873 875
3 875 873 876
3 874 872 877
3 877 872 875
3 879 878 718
3 718 878 717
3 880 718 719
3 880 879 718
3 881 719 720
3 881 880 719
3 882 720 721
3 882 881 720
3 721 723 882
3 882 723 883
3 885 724 884
3 724 878 884
3 724 717 878
3 886 885 884
3 725 883 723
3 725 887 883
3 885 726 724
3 727 726 885
3 886 727 885
3 888 727 886
3 728 887 725
3 728 889 887
3 891 729 890
3 729 888 890
3 729 727 888
3 892 891 890
3 893 889 728
3 893 728 730
3 730 732 893
3 893 732 894
3 891 733 729
3 734 733 891
3 892 734 891
3 895 734 892
3 735 894 732
3 735 896 894
3 895 736 734
3 897 736 895
3 898 896 735
3 898 735 737
3 737 739 898
3 898 739 899
3 897 900 736
3 736 900 740
3 741 740 900
3 741 900 901
3 742 899 739
3 742 902 899
3 901 903 741
3 741 903 743
3 744 743 903
3 744 903 904
3 905 902 742
3 905 742 745
3 745 747 905
3 905 747 906
3 908 748 907
3 748 904 907
3 748 744 904
3 909 908 907
3 749 906 747
3 749 910 906
3 913 912 911
3 751 752 911
3 752 913 911
3 752 914 913
3 752 753 914
3 914 753 915
3 916 755 908
3 908 755 748
3 908 909 917
3 908 917 916
3 749 756 918
3 919 749 918
3 910 749 919
3 758 918 756
3 911 912 760
3 912 759 760
3 912 920 759
3 911 760 751
3 921 915 753
3 921 753 761
3 923 921 922
3 921 762 922
3 921 761 762
3 763 924 762
3 762 924 922
3 755 916 763
3 916 924 763
3 916 925 924
3 916 917 926
3 916 926 925
3 927 919 918
3 918 758 927
3 758 928 927
3 758 766 928
3 930 929 768
3 768 929 767
3 768 759 920
3 768 920 930
3 931 923 922
3 931 922 924
3 931 924 932
3 934 933 932
3 924 934 932
3 925 934 924
3 925 926 935
3 925 935 934
3 770 928 766
3 770 936 928
3 938 937 772
3 772 937 771
3 772 767 929
3 772 929 938
3 933 934 939
3 933 939 940
3 934 935 941
3 942 934 941
3 939 934 942
3 943 942 941
3 775 936 770
3 775 944 936
3 937 776 771
3 945 776 937
3 940 939 946
3 940 946 947
3 948 939 942
3 946 939 948
3 942 943 949
3 942 949 948
3 777 944 775
3 777 950 944
3 951 778 779
3 952 951 779
3 776 952 779
3 945 952 776
3 947 946 953
3 947 953 954
3 955 946 948
3 953 946 955
3 948 949 956
3 948 956 955
3 781 950 777
3 781 957 950
3 958 782 951
3 951 782 778
3 951 952 959
3 951 959 958
3 960 954 953
3 960 953 955
3 960 955 961
3 961 955 956
3 784 963 962
3 957 784 962
3 781 784 957
3 963 964 962
3 965 785 958
3 958 785 782
3 958 959 966
3 958 966 965
3 787 963 784
3 968 967 789
3 789 967 787
3 967 964 787
3 964 963 787
3 968 969 967
3 965 790 785
3 971 970 792
3 971 792 790
3 966 971 790
3 965 966 790
3 972 970 971
3 794 968 789
3 974 973 796
3 796 973 794
3 973 969 794
3 969 968 794
3 970 798 792
3 976 975 799
3 976 799 798
3 972 976 798
3 970 972 798
3 977 975 976
3 974 796 801
3 980 979 978
3 975 804 799
3 982 981 805
3 982 805 804
3 977 982 804
3 975 977 804
3 983 981 982
3 978 979 808
3 807 978 808
3 984 978 807
3 981 810 805
3 986 985 811
3 986 811 810
3 983 986 810
3 981 983 810
3 987 985 986
3 990 989 988
3 989 984 988
3 984 813 988
3 984 807 813
3 985 815 811
3 816 815 985
3 987 816 985
3 991 816 987
3 990 988 817
3 818 990 817
3 992 990 818
3 817 988 813
3 991 993 816
3 816 993 819
3 820 819 993
3 820 993 994
3 821 992 818
3 821 995 992
3 994 996 820
3 820 996 822
3 824 822 996
3 824 996 997
3 1000 999 998
3 999 995 998
3 995 825 998
3 995 821 825
3 997 826 824
3 1001 826 997
3 1004 1003 1002
3 1002 1003 1000
3 1002 1000 998
3 828 1002 998
3 827 828 998
3 827 998 825
3 1006 830 1005
3 830 1001 1005
3 830 826 1001
3 1007 1006 1005
3 1004 1002 831
3 832 1004 831
3 1008 1004 832
3 831 1002 828
3 1006 833 830
3 834 833 1006
3 1007 834 1006
3 1009 834 1007
3 836 1008 832
3 836 1010 1008
3 1009 838 834
3 1011 838 1009
3 840 1010 836
3 840 1012 1010
3 1011 1013 838
3 838 1013 841
3 842 841 1013
3 842 1013 1014
3 844 1012 840
3 844 1015 1012
3 1018 1017 1016
3 1014 1018 1016
3 845 1014 1016
3 842 1014 845
3 847 1020 1019
3 1015 847 1019
3 844 847 1015
3 1020 1021 1019
3 1016 1017 850
3 1017 849 850
3 1017 1022 849
3 1016 850 845
3 851 1020 847
3 851 853 1020
3 853 1021 1020
3 853 1023 1021
3 1022 855 849
3 1024 855 1022
3 856 1023 853
3 856 1025 1023
3 1024 1026 855
3 855 1026 857
3 858 857 1026
3 858 1026 1027
3 1030 1029 1028
3 1029 1025 1028
3 1025 859 1028
3 1025 856 859
3 1027 860 858
3 1031 860 1027
3 1030 1028 861
3 862 1030 861
3 1032 1030 862
3 861 1028 859
3 1031 863 860
3 1033 863 1031
3 1035 1034 864
3 1035 864 865
3 862 864 1032
3 1032 864 1034
3 1033 867 863
3 1036 867 1033
3 868 1035 865
3 868 1037 1035
3 1036 870 867
3 1038 870 1036
3 871 1037 868
3 871 1039 1037
3 1042 1041 1040
3 1038 1042 1040
3 873 1038 1040
3 870 1038 873
3 874 1039 871
3 874 1043 1039
3 1041 1044 1040
3 876 873 1040
3 1045 876 1040
3 1044 1045 1040
3 876 1045 1046
3 1045 1043 1046
3 1043 877 1046
3 1043 874 877
3 1047 878 879
3 880 1048 879
3 879 1048 1047
3 1048 880 1049
3 880 1050 1049
3 880 881 1050
3 1052 1050 1051
3 1050 882 1051
3 1050 881 882
3 883 1051 882
3 1047 884 878
3 884 1047 886
3 1047 1053 886
3 1047 1048 1053
3 1048 1049 1054
3 1048 1054 1053
3 1055 1052 1051
3 1051 883 1055
3 883 1056 1055
3 883 887 1056
3 1057 888 1053
3 1053 888 886
3 1053 1054 1058
3 1053 1058 1057
3 1061 1060 1059
3 1060 1056 1059
3 1056 889 1059
3 1056 887 889
3 1057 890 888
3 892 890 1057
3 1058 892 1057
3 1062 892 1058
3 1061 1059 1063
3 1061 1063 1064
3 893 1065 889
3 1065 1059 889
3 1065 1063 1059
3 894 1065 893
3 1062 895 892
3 1066 895 1062
3 1064 1063 1067
3 1064 1067 1068
3 1069 1063 1065
3 1067 1063 1069
3 896 1069 894
3 894 1069 1065
3 1071 897 1070
3 897 1066 1070
3 897 895 1066
3 1071 1070 1068
3 1067 1071 1068
3 1072 1071 1067
3 1073 1067 1069
3 1072 1067 1073
3 898 1074 896
3 1074 1069 896
3 1074 1073 1069
3 899 1074 898
3 1071 900 897
3 900 1071 901
3 1071 1075 901
3 1071 1072 1075
3 1076 1072 1073
3 1075 1072 1076
3 1077 1073 1074
3 1076 1073 1077
3 902 1077 899
3 899 1077 1074
3 1075 903 901
3 903 1075 904
3 1075 1078 904
3 1075 1076 1078
3 1079 1076 1077
3 1078 1076 1079
3 905 1080 902
3 1080 1077 902
3 1080 1079 1077
3 906 1080 905
3 1078 907 904
3 907 1078 909
3 1078 1081 909
3 1078 1079 1081
3 1082 1079 1080
3 1081 1079 1082
3 910 1082 906
3 906 1082 1080
3 1083 912 913
3 914 1084 913
3 913 1084 1083
3 915 1084 914
3 1085 917 1081
3 1081 917 909
3 1086 1081 1082
3 1085 1081 1086
3 919 1086 910
3 910 1086 1082
3 1087 920 1083
3 1083 920 912
3 1088 1083 1084
3 1087 1083 1088
3 921 1089 915
3 1089 1084 915
3 1089 1088 1084
3 923 1089 921
3 1090 926 1085
3 1085 926 917
3 1091 1085 1086
3 1090 1085 1091
3 927 1092 919
3 1092 1086 919
3 1092 1091 1086
3 928 1092 927
3 1094 1093 930
3 930 1093 929
3 930 920 1087
3 1095 930 1087
3 1094 930 1095
3 1097 1096 1095
3 1087 1097 1095
3 1088 1097 1087
3 1098 1088 1089
3 1097 1088 1098
3 931 1099 923
3 1099 1089 923
3 1099 1098 1089
3 932 1100 931
3 931 1100 1099
3 933 1100 932
3 1101 935 1090
3 1090 935 926
3 1102 1090 1091
3 1101 1090 1102
3 1092 1104 1103
3 1102 1092 1103
3 1091 1092 1102
3 1092 928 1104
3 928 1105 1104
3 928 936 1105
3 1107 1106 938
3 938 1106 937
3 938 929 1093
3 938 1093 1107
3 1108 1096 1097
3 1108 1097 1098
3 1108 1098 1109
3 1109 1098 1099
3 1109 1099 1110
3 1112 1111 1110
3 1099 1112 1110
3 1100 1112 1099
3 940 1112 933
3 933 1112 1100
3 1101 941 935
3 941 1101 943
3 1101 1113 943
3 1101 1102 1113
3 1102 1103 1114
3 1102 1114 1113
3 944 1105 936
3 944 1115 1105
3 1106 945 937
3 1116 945 1106
3 1111 1112 1117
3 1111 1117 1118
3 947 1117 940
3 940 1117 1112
3 1119 949 1113
3 1113 949 943
3 1113 1114 1120
3 1121 1113 1120
3 1119 1113 1121
3 1120 1115 1121
3 1115 950 1121
3 1115 944 950
3 1123 952 1122
3 952 1116 1122
3 952 945 1116
3 1125 1124 1123
3 1125 1123 1122
3 1127 1126 1124
3 1127 1124 1125
3 1129 1128 1126
3 1129 1126 1127
3 1131 1130 1128
3 1131 1128 1129
3 1133 1132 1130
3 1133 1130 1131
3 1132 1133 1118
3 1117 1132 1118
3 1134 1132 1117
3 954 1134 947
3 947 1134 1117
3 1135 956 1119
3 1119 956 949
3 1136 1119 1121
3 1135 1119 1136
3 957 1136 950
3 950 1136 1121
3 1137 959 1123
3 1123 959 952
3 1138 1123 1124
3 1137 1123 1138
3 1139 1124 1126
3 1138 1124 1139
3 1140 1126 1128
3 1139 1126 1140
3 1141 1128 1130
3 1140 1128 1141
3 1142 1130 1132
3 1141 1130 1142
3 1143 1132 1134
3 1142 1132 1143
3 960 1144 954
3 1144 1134 954
3 1144 1143 1134
3 961 1145 960
3 960 1145 1144
3 956 1135 961
3 1135 1145 961
3 1135 1146 1145
3 1147 1135 1136
3 1146 1135 1147
3 962 1148 957
3 1148 1136 957
3 1148 1147 1136
3 964 1148 962
3 1149 966 1137
3 1137 966 959
3 1150 1137 1138
3 1149 1137 1150
3 1151 1138 1139
3 1150 1138 1151
3 1152 1139 1140
3 1151 1139 1152
3 1153 1140 1141
3 1152 1140 1153
3 1154 1141 1142
3 1153 1141 1154
3 1155 1142 1143
3 1154 1142 1155
3 1144 1157 1156
3 1155 1144 1156
3 1143 1144 1155
3 1157 1144 1145
3 1157 1145 1158
3 1158 1145 1146
3 1158 1146 1159
3 1161 1160 1159
3 1146 1161 1159
3 1147 1161 1146
3 1162 1147 1148
3 1161 1147 1162
3 1162 1148 964
3 1163 1162 964
3 967 1163 964
3 1164 1162 1163
3 967 969 1163
3 1163 969 1165
3 1149 971 966
3 971 1149 972
3 1149 1166 972
3 1149 1150 1166
3 1167 1150 1151
3 1166 1150 1167
3 1168 1151 1152
3 1167 1151 1168
3 1153 1170 1169
3 1168 1153 1169
3 1152 1153 1168
3 1170 1153 1154
3 1170 1154 1171
3 1171 1154 1155
3 1171 1155 1172
3 1172 1155 1156
3 1173 1160 1161
3 1175 1174 1173
3 1161 1175 1173
3 1162 1175 1161
3 1162 1164 1176
3 1162 1176 1175
3 969 973 1177
3 1178 969 1177
3 1165 969 1178
3 1166 976 972
3 976 1166 977
3 1166 1179 977
3 1166 1167 1179
3 1180 1167 1168
3 1179 1167 1180
3 1168 1169 1181
3 1168 1181 1180
3 1174 1175 1182
3 1174 1182 1183
3 1175 1176 1184
3 1185 1175 1184
3 1182 1175 1185
3 1185 1184 1178
3 1185 1178 1177
3 978 1185 1177
3 980 978 1177
3 1179 982 977
3 982 1179 983
3 1179 1186 983
3 1179 1180 1186
3 1180 1181 1187
3 1180 1187 1186
3 1188 1183 1182
3 1190 1189 1188
3 1182 1190 1188
3 1185 1190 1182
3 984 1190 978
3 978 1190 1185
3 1186 986 983
3 987 986 1186
3 1187 987 1186
3 1191 987 1187
3 1189 1190 989
3 990 1189 989
3 1192 1189 990
3 989 1190 984
3 1194 991 1193
3 991 1191 1193
3 991 987 1191
3 1195 1194 1193
3 992 1192 990
3 992 1196 1192
3 1194 993 991
3 1198 1197 994
3 1198 994 993
3 1195 1198 993
3 1194 1195 993
3 1199 1197 1198
3 1202 1201 1200
3 1201 1196 1200
3 1196 995 1200
3 1196 992 995
3 1197 996 994
3 997 996 1197
3 1199 997 1197
3 1203 997 1199
3 1206 1205 1204
3 1204 1205 1202
3 1204 1202 1200
3 1000 1204 1200
3 999 1000 1200
3 999 1200 995
3 1208 1001 1207
3 1001 1203 1207
3 1001 997 1203
3 1209 1208 1207
3 1206 1204 1003
3 1004 1206 1003
3 1210 1206 1004
3 1003 1204 1000
3 1208 1005 1001
3 1007 1005 1208
3 1209 1007 1208
3 1211 1007 1209
3 1214 1213 1212
3 1213 1210 1212
3 1210 1008 1212
3 1210 1004 1008
3 1216 1009 1215
3 1009 1211 1215
3 1009 1007 1211
3 1217 1216 1215
3 1214 1212 1218
3 1214 1218 1219
3 1010 1218 1008
3 1008 1218 1212
3 1220 1011 1216
3 1216 1011 1009
3 1216 1217 1221
3 1216 1221 1220
3 1219 1218 1222
3 1219 1222 1223
3 1012 1222 1010
3 1010 1222 1218
3 1220 1013 1011
3 1014 1013 1220
3 1221 1014 1220
3 1224 1014 1221
3 1225 1223 1222
3 1222 1012 1225
3 1012 1226 1225
3 1012 1015 1226
3 1227 1017 1018
3 1228 1227 1018
3 1014 1228 1018
3 1224 1228 1014
3 1015 1019 1229
3 1230 1015 1229
3 1226 1015 1230
3 1021 1229 1019
3 1231 1022 1227
3 1227 1022 1017
3 1227 1228 1232
3 1227 1232 1231
3 1233 1230 1229
3 1229 1021 1233
3 1021 1234 1233
3 1021 1023 1234
3 1235 1024 1231
3 1231 1024 1022
3 1231 1232 1236
3 1237 1231 1236
3 1235 1231 1237
3 1238 1237 1236
3 1241 1240 1239
3 1240 1234 1239
3 1234 1025 1239
3 1234 1023 1025
3 1235 1026 1024
3 1026 1235 1027
3 1235 1242 1027
3 1235 1237 1242
3 1237 1238 1243
3 1244 1237 1243
3 1242 1237 1244
3 1244 1243 1241
3 1244 1241 1239
3 1030 1244 1239
3 1029 1030 1239
3 1029 1239 1025
3 1245 1031 1242
3 1242 1031 1027
3 1246 1242 1244
3 1245 1242 1246
3 1032 1246 1030
3 1030 1246 1244
3 1247 1033 1245
3 1245 1033 1031
3 1035 1247 1034
3 1247 1246 1034
3 1247 1245 1246
3 1034 1246 1032
3 1249 1248 1247
3 1248 1033 1247
3 1248 1036 1033
3 1247 1035 1249
3 1035 1250 1249
3 1035 1037 1250
3 1248 1038 1036
3 1251 1038 1248
3 1039 1250 1037
3 1039 1252 1250
3 1253 1041 1042
3 1254 1253 1042
3 1038 1254 1042
3 1251 1254 1038
3 1043 1252 1039
3 1043 1255 1252
3 1253 1044 1041
3 1254 1256 1253
3 1256 1044 1253
3 1256 1045 1044
3 1043 1045 1255
3 1255 1045 1256
3 1257 1049 1050
3 1052 1257 1050
3 1258 1054 1257
3 1257 1054 1049
3 1055 1259 1052
3 1259 1257 1052
3 1259 1258 1257
3 1056 1259 1055
3 1260 1058 1258
3 1258 1058 1054
3 1061 1260 1060
3 1260 1259 1060
3 1260 1258 1259
3 1060 1259 1056
3 1261 1062 1260
3 1260 1062 1058
3 1064 1261 1061
3 1061 1261 1260
3 1262 1066 1261
3 1261 1066 1062
3 1068 1262 1064
3 1064 1262 1261
3 1262 1070 1066
3 1070 1262 1068
3 1263 1093 1094
3 1095 1264 1094
3 1094 1264 1263
3 1096 1264 1095
3 1265 1103 1104
3 1105 1265 1104
3 1266 1106 1107
3 1093 1263 1107
3 1263 1266 1107
3 1263 1267 1266
3 1268 1263 1264
3 1267 1263 1268
3 1108 1269 1096
3 1269 1264 1096
3 1269 1268 1264
3 1109 1270 1108
3 1108 1270 1269
3 1110 1271 1109
3 1109 1271 1270
3 1111 1271 1110
3 1272 1114 1265
3 1265 1114 1103
3 1115 1272 1105
3 1105 1272 1265
3 1273 1116 1266
3 1266 1116 1106
3 1274 1266 1267
3 1273 1266 1274
3 1275 1267 1268
3 1274 1267 1275
3 1276 1268 1269
3 1275 1268 1276
3 1277 1269 1270
3 1276 1269 1277
3 1278 1270 1271
3 1277 1270 1278
3 1118 1278 1111
3 1111 1278 1271
3 1272 1120 1114
3 1120 1272 1115
3 1273 1122 1116
3 1122 1273 1125
3 1125 1273 1274
3 1125 1274 1127
3 1127 1274 1275
3 1127 1275 1129
3 1129 1275 1276
3 1129 1276 1131
3 1131 1276 1277
3 1131 1277 1133
3 1133 1277 1278
3 1133 1278 1118
3 1279 1156 1157
3 1158 1280 1157
3 1157 1280 1279
3 1159 1281 1158
3 1158 1281 1280
3 1160 1281 1159
3 1282 1164 1163
3 1165 1282 1163
3 1283 1169 1170
3 1171 1284 1170
3 1170 1284 1283
3 1172 1285 1171
3 1171 1285 1284
3 1156 1279 1172
3 1279 1285 1172
3 1279 1286 1285
3 1287 1279 1280
3 1286 1279 1287
3 1288 1280 1281
3 1287 1280 1288
3 1173 1289 1160
3 1289 1281 1160
3 1289 1288 1281
3 1174 1289 1173
3 1290 1176 1282
3 1282 1176 1164
3 1178 1290 1165
3 1165 1290 1282
3 1291 1181 1283
3 1283 1181 1169
3 1284 1293 1292
3 1291 1284 1292
3 1283 1284 1291
3 1293 1284 1285
3 1293 1285 1294
3 1294 1285 1286
3 1294 1286 1295
3 1297 1296 1295
3 1286 1297 1295
3 1287 1297 1286
3 1298 1287 1288
3 1297 1287 1298
3 1299 1288 1289
3 1298 1288 1299
3 1183 1299 1174
3 1174 1299 1289
3 1290 1184 1176
3 1184 1290 1178
3 1300 1187 1291
3 1291 1187 1181
3 1291 1292 1301
3 1291 1301 1300
3 1302 1296 1297
3 1302 1297 1298
3 1302 1298 1303
3 1305 1304 1303
3 1298 1305 1303
3 1299 1305 1298
3 1188 1306 1183
3 1306 1299 1183
3 1306 1305 1299
3 1189 1306 1188
3 1307 1191 1300
3 1300 1191 1187
3 1300 1301 1308
3 1309 1300 1308
3 1307 1300 1309
3 1310 1309 1308
3 1311 1304 1305
3 1313 1312 1311
3 1305 1313 1311
3 1306 1313 1305
3 1192 1313 1189
3 1189 1313 1306
3 1307 1193 1191
3 1193 1307 1195
3 1307 1314 1195
3 1307 1309 1314
3 1309 1310 1315
3 1309 1315 1314
3 1318 1317 1316
3 1316 1317 1312
3 1313 1316 1312
3 1319 1316 1313
3 1196 1319 1192
3 1192 1319 1313
3 1314 1198 1195
3 1321 1320 1199
3 1321 1199 1198
3 1315 1321 1198
3 1314 1315 1198
3 1322 1320 1321
3 1325 1324 1323
3 1323 1324 1318
3 1316 1323 1318
3 1326 1323 1316
3 1202 1326 1201
3 1326 1319 1201
3 1326 1316 1319
3 1201 1319 1196
3 1327 1203 1320
3 1320 1203 1199
3 1320 1322 1328
3 1320 1328 1327
3 1331 1330 1329
3 1329 1330 1325
3 1323 1329 1325
3 1332 1329 1323
3 1206 1332 1205
3 1332 1326 1205
3 1332 1323 1326
3 1205 1326 1202
3 1327 1207 1203
3 1334 1333 1209
3 1334 1209 1207
3 1328 1334 1207
3 1327 1328 1207
3 1333 1334 1331
3 1329 1333 1331
3 1335 1333 1329
3 1336 1329 1332
3 1335 1329 1336
3 1210 1336 1206
3 1206 1336 1332
3 1337 1211 1333
3 1333 1211 1209
3 1338 1333 1335
3 1337 1333 1338
3 1214 1338 1213
3 1338 1336 1213
3 1338 1335 1336
3 1213 1336 1210
3 1337 1215 1211
3 1215 1337 1217
3 1337 1339 1217
3 1337 1338 1339
3 1219 1339 1214
3 1214 1339 1338
3 1340 1221 1339
3 1339 1221 1217
3 1223 1340 1219
3 1219 1340 1339
3 1341 1224 1340
3 1340 1224 1221
3 1225 1342 1223
3 1342 1340 1223
3 1342 1341 1340
3 1226 1342 1225
3 1343 1228 1341
3 1341 1228 1224
3 1344 1341 1342
3 1343 1341 1344
3 1230 1344 1226
3 1226 1344 1342
3 1345 1232 1343
3 1343 1232 1228
3 1346 1343 1344
3 1345 1343 1346
3 1233 1347 1230
3 1347 1344 1230
3 1347 1346 1344
3 1234 1347 1233
3 1345 1236 1232
3 1236 1345 1238
3 1345 1348 1238
3 1345 1346 1348
3 1241 1348 1240
3 1348 1347 1240
3 1348 1346 1347
3 1240 1347 1234
3 1348 1243 1238
3 1243 1348 1241
3 1349 1248 1249
3 1250 1349 1249
3 1350 1251 1349
3 1349 1251 1248
3 1252 1350 1250
3 1250 1350 1349
3 1351 1254 1350
3 1350 1254 1251
3 1255 1351 1252
3 1252 1351 1350
3 1351 1256 1254
3 1256 1351 1255