OFF
1523 2910 0
nan nan nan
nan nan nan
nan nan nan
nan nan nan
nan nan nan
nan nan nan
nan nan nan
nan nan nan
nan nan nan
nan nan nan
nan nan nan
nan nan nan
nan nan nan
nan nan nan
nan nan nan
nan nan nan
nan nan nan
nan nan nan
nan nan nan
nan nan nan
nan nan nan
nan nan nan
nan nan nan
nan nan nan
nan nan nan
nan nan nan
nan nan nan
nan nan nan
nan nan nan
nan nan nan
nan nan nan
nan nan nan
nan nan nan
nan nan nan
nan nan nan
nan nan nan
nan nan nan
nan nan nan
nan nan nan
nan nan nan
nan nan nan
nan nan nan
nan nan nan
nan nan nan
nan nan nan
nan nan nan
nan nan nan
nan nan nan
nan nan nan
nan nan nan
nan nan nan
nan nan nan
nan nan nan
nan nan nan
nan nan nan
nan nan nan
nan nan nan
nan nan nan
nan nan nan
nan nan nan
nan nan nan
nan nan nan
nan nan nan
nan nan nan
nan nan nan
nan nan nan
nan nan nan
nan nan nan
nan nan nan
nan nan nan
nan nan nan
nan nan nan
nan nan nan
nan nan nan
nan nan nan
nan nan nan
nan nan nan
nan nan nan
nan nan nan
nan nan nan
nan nan nan
nan nan nan
nan nan nan
nan nan nan
nan nan nan
nan nan nan
nan nan nan
nan nan nan
nan nan nan
nan nan nan
nan nan nan
nan nan nan
nan nan nan
nan nan nan
nan nan nan
nan nan nan
nan nan nan
nan nan nan
nan nan nan
nan nan nan
nan nan nan
nan nan nan
nan nan nan
nan nan nan
nan nan nan
nan nan nan
nan nan nan
nan nan nan
nan nan nan
nan nan nan
nan nan nan
nan nan nan
nan nan nan
nan nan nan
nan nan nan
nan nan nan
nan nan nan
nan nan nan
nan nan nan
nan nan nan
nan nan nan
nan nan nan
nan nan nan
nan nan nan
nan nan nan
nan nan nan
nan nan nan
nan nan nan
nan nan nan
nan nan nan
nan nan nan
nan nan nan
nan nan nan
nan nan nan
nan nan nan
nan nan nan
nan nan nan
nan nan nan
nan nan nan
nan nan nan
nan nan nan
nan nan nan
nan nan nan
nan nan nan
nan nan nan
nan nan nan
nan nan nan
nan nan nan
nan nan nan
nan nan nan
nan nan nan
nan nan nan
nan nan nan
nan nan nan
nan nan nan
nan nan nan
nan nan nan
nan nan nan
nan nan nan
nan nan nan
nan nan nan
nan nan nan
nan nan nan
nan nan nan
nan nan nan
nan nan nan
nan nan nan
nan nan nan
nan nan nan
nan nan nan
nan nan nan
nan nan nan
nan nan nan
nan nan nan
nan nan nan
nan nan nan
nan nan nan
nan nan nan
nan nan nan
nan nan nan
nan nan nan
nan nan nan
nan nan nan
nan nan nan
nan nan nan
nan nan nan
nan nan nan
nan nan nan
nan nan nan
nan nan nan
nan nan nan
nan nan nan
nan nan nan
nan nan nan
nan nan nan
nan nan nan
nan nan nan
nan nan nan
nan nan nan
nan nan nan
nan nan nan
nan nan nan
nan nan nan
nan nan nan
nan nan nan
nan nan nan
nan nan nan
nan nan nan
nan nan nan
nan nan nan
nan nan nan
nan nan nan
nan nan nan
nan nan nan
nan nan nan
nan nan nan
nan nan nan
nan nan nan
nan nan nan
nan nan nan
nan nan nan
nan nan nan
nan nan nan
nan nan nan
nan nan nan
nan nan nan
nan nan nan
nan nan nan
nan nan nan
nan nan nan
nan nan nan
nan nan nan
nan nan nan
nan nan nan
nan nan nan
nan nan nan
nan nan nan
nan nan nan
nan nan nan
nan nan nan
nan nan nan
nan nan nan
nan nan nan
nan nan nan
nan nan nan
nan nan nan
nan nan nan
nan nan nan
nan nan nan
nan nan nan
nan nan nan
nan nan nan
nan nan nan
nan nan nan
nan nan nan
nan nan nan
nan nan nan
nan nan nan
nan nan nan
nan nan nan
nan nan nan
nan nan nan
nan nan nan
nan nan nan
nan nan nan
nan nan nan
nan nan nan
nan nan nan
nan nan nan
nan nan nan
nan nan nan
nan nan nan
nan nan nan
nan nan nan
nan nan nan
nan nan nan
nan nan nan
nan nan nan
nan nan nan
nan nan nan
nan nan nan
nan nan nan
nan nan nan
nan nan nan
nan nan nan
nan nan nan
nan nan nan
nan nan nan
nan nan nan
nan nan nan
nan nan nan
nan nan nan
nan nan nan
nan nan nan
nan nan nan
nan nan nan
nan nan nan
nan nan nan
nan nan nan
nan nan nan
nan nan nan
nan nan nan
nan nan nan
nan nan nan
nan nan nan
nan nan nan
nan nan nan
nan nan nan
nan nan nan
nan nan nan
nan nan nan
nan nan nan
nan nan nan
nan nan nan
nan nan nan
nan nan nan
nan nan nan
nan nan nan
nan nan nan
nan nan nan
nan nan nan
nan nan nan
nan nan nan
nan nan nan
nan nan nan
nan nan nan
nan nan nan
nan nan nan
nan nan nan
nan nan nan
nan nan nan
nan nan nan
nan nan nan
nan nan nan
nan nan nan
nan nan nan
nan nan nan
nan nan nan
nan nan nan
nan nan nan
nan nan nan
nan nan nan
nan nan nan
nan nan nan
nan nan nan
nan nan nan
nan nan nan
nan nan nan
nan nan nan
nan nan nan
nan nan nan
nan nan nan
nan nan nan
nan nan nan
nan nan nan
nan nan nan
nan nan nan
nan nan nan
nan nan nan
nan nan nan
nan nan nan
nan nan nan
nan nan nan
nan nan nan
nan nan nan
nan nan nan
nan nan nan
nan nan nan
nan nan nan
nan nan nan
nan nan nan
nan nan nan
nan nan nan
nan nan nan
nan nan nan
nan nan nan
nan nan nan
nan nan nan
nan nan nan
nan nan nan
nan nan nan
nan nan nan
nan nan nan
nan nan nan
nan nan nan
nan nan nan
nan nan nan
nan nan nan
nan nan nan
nan nan nan
nan nan nan
nan nan nan
nan nan nan
nan nan nan
nan nan nan
nan nan nan
nan nan nan
nan nan nan
nan nan nan
nan nan nan
nan nan nan
nan nan nan
nan nan nan
nan nan nan
nan nan nan
nan nan nan
nan nan nan
nan nan nan
nan nan nan
nan nan nan
nan nan nan
nan nan nan
nan nan nan
nan nan nan
nan nan nan
nan nan nan
nan nan nan
nan nan nan
nan nan nan
nan nan nan
nan nan nan
nan nan nan
nan nan nan
nan nan nan
nan nan nan
nan nan nan
nan nan nan
nan nan nan
nan nan nan
nan nan nan
nan nan nan
nan nan nan
nan nan nan
nan nan nan
nan nan nan
nan nan nan
nan nan nan
nan nan nan
nan nan nan
nan nan nan
nan nan nan
nan nan nan
nan nan nan
nan nan nan
nan nan nan
nan nan nan
nan nan nan
nan nan nan
nan nan nan
nan nan nan
nan nan nan
nan nan nan
nan nan nan
nan nan nan
nan nan nan
nan nan nan
nan nan nan
nan nan nan
nan nan nan
nan nan nan
nan nan nan
nan nan nan
nan nan nan
nan nan nan
nan nan nan
nan nan nan
nan nan nan
nan nan nan
nan nan nan
nan nan nan
nan nan nan
nan nan nan
nan nan nan
nan nan nan
nan nan nan
nan nan nan
nan nan nan
nan nan nan
nan nan nan
nan nan nan
nan nan nan
nan nan nan
nan nan nan
nan nan nan
nan nan nan
nan nan nan
nan nan nan
nan nan nan
nan nan nan
nan nan nan
nan nan nan
nan nan nan
nan nan nan
nan nan nan
nan nan nan
nan nan nan
nan nan nan
nan nan nan
nan nan nan
nan nan nan
nan nan nan
nan nan nan
nan nan nan
nan nan nan
nan nan nan
nan nan nan
nan nan nan
nan nan nan
nan nan nan
nan nan nan
nan nan nan
nan nan nan
nan nan nan
nan nan nan
nan nan nan
nan nan nan
nan nan nan
nan nan nan
nan nan nan
nan nan nan
nan nan nan
nan nan nan
nan nan nan
nan nan nan
nan nan nan
nan nan nan
nan nan nan
nan nan nan
nan nan nan
nan nan nan
nan nan nan
nan nan nan
nan nan nan
nan nan nan
nan nan nan
nan nan nan
nan nan nan
nan nan nan
nan nan nan
nan nan nan
nan nan nan
nan nan nan
nan nan nan
nan nan nan
nan nan nan
nan nan nan
nan nan nan
nan nan nan
nan nan nan
nan nan nan
nan nan nan
nan nan nan
nan nan nan
nan nan nan
nan nan nan
nan nan nan
nan nan nan
nan nan nan
nan nan nan
nan nan nan
nan nan nan
nan nan nan
nan nan nan
nan nan nan
nan nan nan
nan nan nan
nan nan nan
nan nan nan
nan nan nan
nan nan nan
nan nan nan
nan nan nan
nan nan nan
nan nan nan
nan nan nan
nan nan nan
nan nan nan
nan nan nan
nan nan nan
nan nan nan
nan nan nan
nan nan nan
nan nan nan
nan nan nan
nan nan nan
nan nan nan
nan nan nan
nan nan nan
nan nan nan
nan nan nan
nan nan nan
nan nan nan
nan nan nan
nan nan nan
nan nan nan
nan nan nan
nan nan nan
nan nan nan
nan nan nan
nan nan nan
nan nan nan
nan nan nan
nan nan nan
nan nan nan
nan nan nan
nan nan nan
nan nan nan
nan nan nan
nan nan nan
nan nan nan
nan nan nan
nan nan nan
nan nan nan
nan nan nan
nan nan nan
nan nan nan
nan nan nan
nan nan nan
nan nan nan
nan nan nan
nan nan nan
nan nan nan
nan nan nan
nan nan nan
nan nan nan
nan nan nan
nan nan nan
nan nan nan
nan nan nan
nan nan nan
nan nan nan
nan nan nan
nan nan nan
nan nan nan
nan nan nan
nan nan nan
nan nan nan
nan nan nan
nan nan nan
nan nan nan
nan nan nan
nan nan nan
nan nan nan
nan nan nan
nan nan nan
nan nan nan
nan nan nan
nan nan nan
nan nan nan
nan nan nan
nan nan nan
nan nan nan
nan nan nan
nan nan nan
nan nan nan
nan nan nan
nan nan nan
nan nan nan
nan nan nan
nan nan nan
nan nan nan
nan nan nan
nan nan nan
nan nan nan
nan nan nan
nan nan nan
nan nan nan
nan nan nan
nan nan nan
nan nan nan
nan nan nan
nan nan nan
nan nan nan
nan nan nan
nan nan nan
nan nan nan
nan nan nan
nan nan nan
nan nan nan
nan nan nan
nan nan nan
nan nan nan
nan nan nan
nan nan nan
nan nan nan
nan nan nan
nan nan nan
nan nan nan
nan nan nan
nan nan nan
nan nan nan
nan nan nan
nan nan nan
nan nan nan
nan nan nan
nan nan nan
nan nan nan
nan nan nan
nan nan nan
nan nan nan
nan nan nan
nan nan nan
nan nan nan
nan nan nan
nan nan nan
nan nan nan
nan nan nan
nan nan nan
nan nan nan
nan nan nan
nan nan nan
nan nan nan
nan nan nan
nan nan nan
nan nan nan
nan nan nan
nan nan nan
nan nan nan
nan nan nan
nan nan nan
nan nan nan
nan nan nan
nan nan nan
nan nan nan
nan nan nan
nan nan nan
nan nan nan
nan nan nan
nan nan nan
nan nan nan
nan nan nan
nan nan nan
nan nan nan
nan nan nan
nan nan nan
nan nan nan
nan nan nan
nan nan nan
nan nan nan
nan nan nan
nan nan nan
nan nan nan
nan nan nan
nan nan nan
nan nan nan
nan nan nan
nan nan nan
nan nan nan
nan nan nan
nan nan nan
nan nan nan
nan nan nan
nan nan nan
nan nan nan
nan nan nan
nan nan nan
nan nan nan
nan nan nan
nan nan nan
nan nan nan
nan nan nan
nan nan nan
nan nan nan
nan nan nan
nan nan nan
nan nan nan
nan nan nan
nan nan nan
nan nan nan
nan nan nan
nan nan nan
nan nan nan
nan nan nan
nan nan nan
nan nan nan
nan nan nan
nan nan nan
nan nan nan
nan nan nan
nan nan nan
nan nan nan
nan nan nan
nan nan nan
nan nan nan
nan nan nan
nan nan nan
nan nan nan
nan nan nan
nan nan nan
nan nan nan
nan nan nan
nan nan nan
nan nan nan
nan nan nan
nan nan nan
nan nan nan
nan nan nan
nan nan nan
nan nan nan
nan nan nan
nan nan nan
nan nan nan
nan nan nan
nan nan nan
nan nan nan
nan nan nan
nan nan nan
nan nan nan
nan nan nan
nan nan nan
nan nan nan
nan nan nan
nan nan nan
nan nan nan
nan nan nan
nan nan nan
nan nan nan
nan nan nan
nan nan nan
nan nan nan
nan nan nan
nan nan nan
nan nan nan
nan nan nan
nan nan nan
nan nan nan
nan nan nan
nan nan nan
nan nan nan
nan nan nan
nan nan nan
nan nan nan
nan nan nan
nan nan nan
nan nan nan
nan nan nan
nan nan nan
nan nan nan
nan nan nan
nan nan nan
nan nan nan
nan nan nan
nan nan nan
nan nan nan
nan nan nan
nan nan nan
nan nan nan
nan nan nan
nan nan nan
nan nan nan
nan nan nan
nan nan nan
nan nan nan
nan nan nan
nan nan nan
nan nan nan
nan nan nan
nan nan nan
nan nan nan
nan nan nan
nan nan nan
nan nan nan
nan nan nan
nan nan nan
nan nan nan
nan nan nan
nan nan nan
nan nan nan
nan nan nan
nan nan nan
nan nan nan
nan nan nan
nan nan nan
nan nan nan
nan nan nan
nan nan nan
nan nan nan
nan nan nan
nan nan nan
nan nan nan
nan nan nan
nan nan nan
nan nan nan
nan nan nan
nan nan nan
nan nan nan
nan nan nan
nan nan nan
nan nan nan
nan nan nan
nan nan nan
nan nan nan
nan nan nan
nan nan nan
nan nan nan
nan nan nan
nan nan nan
nan nan nan
nan nan nan
nan nan nan
nan nan nan
nan nan nan
nan nan nan
nan nan nan
nan nan nan
nan nan nan
nan nan nan
nan nan nan
nan nan nan
nan nan nan
nan nan nan
nan nan nan
nan nan nan
nan nan nan
nan nan nan
nan nan nan
nan nan nan
nan nan nan
nan nan nan
nan nan nan
nan nan nan
nan nan nan
nan nan nan
nan nan nan
nan nan nan
nan nan nan
nan nan nan
nan nan nan
nan nan nan
nan nan nan
nan nan nan
nan nan nan
nan nan nan
nan nan nan
nan nan nan
nan nan nan
nan nan nan
nan nan nan
nan nan nan
nan nan nan
nan nan nan
nan nan nan
nan nan nan
nan nan nan
nan nan nan
nan nan nan
nan nan nan
nan nan nan
nan nan nan
nan nan nan
nan nan nan
nan nan nan
nan nan nan
nan nan nan
nan nan nan
nan nan nan
nan nan nan
nan nan nan
nan nan nan
nan nan nan
nan nan nan
nan nan nan
nan nan nan
nan nan nan
nan nan nan
nan nan nan
nan nan nan
nan nan nan
nan nan nan
nan nan nan
nan nan nan
nan nan nan
nan nan nan
nan nan nan
nan nan nan
nan nan nan
nan nan nan
nan nan nan
nan nan nan
nan nan nan
nan nan nan
nan nan nan
nan nan nan
nan nan nan
nan nan nan
nan nan nan
nan nan nan
nan nan nan
nan nan nan
nan nan nan
nan nan nan
nan nan nan
nan nan nan
nan nan nan
nan nan nan
nan nan nan
nan nan nan
nan nan nan
nan nan nan
nan nan nan
nan nan nan
nan nan nan
nan nan nan
nan nan nan
nan nan nan
nan nan nan
nan nan nan
nan nan nan
nan nan nan
nan nan nan
nan nan nan
nan nan nan
nan nan nan
nan nan nan
nan nan nan
nan nan nan
nan nan nan
nan nan nan
nan nan nan
nan nan nan
nan nan nan
nan nan nan
nan nan nan
nan nan nan
nan nan nan
nan nan nan
nan nan nan
nan nan nan
nan nan nan
nan nan nan
nan nan nan
nan nan nan
nan nan nan
nan nan nan
nan nan nan
nan nan nan
nan nan nan
nan nan nan
nan nan nan
nan nan nan
nan nan nan
nan nan nan
nan nan nan
nan nan nan
nan nan nan
nan nan nan
nan nan nan
nan nan nan
nan nan nan
nan nan nan
nan nan nan
nan nan nan
nan nan nan
nan nan nan
nan nan nan
nan nan nan
nan nan nan
nan nan nan
nan nan nan
nan nan nan
nan nan nan
nan nan nan
nan nan nan
nan nan nan
nan nan nan
nan nan nan
nan nan nan
nan nan nan
nan nan nan
nan nan nan
nan nan nan
nan nan nan
nan nan nan
nan nan nan
nan nan nan
nan nan nan
nan nan nan
nan nan nan
nan nan nan
nan nan nan
nan nan nan
nan nan nan
nan nan nan
nan nan nan
nan nan nan
nan nan nan
nan nan nan
nan nan nan
nan nan nan
nan nan nan
nan nan nan
nan nan nan
nan nan nan
nan nan nan
nan nan nan
nan nan nan
nan nan nan
nan nan nan
nan nan nan
nan nan nan
nan nan nan
nan nan nan
nan nan nan
nan nan nan
nan nan nan
nan nan nan
nan nan nan
nan nan nan
nan nan nan
nan nan nan
nan nan nan
nan nan nan
nan nan nan
nan nan nan
nan nan nan
nan nan nan
nan nan nan
nan nan nan
nan nan nan
nan nan nan
nan nan nan
nan nan nan
nan nan nan
nan nan nan
nan nan nan
nan nan nan
nan nan nan
nan nan nan
nan nan nan
nan nan nan
nan nan nan
nan nan nan
nan nan nan
nan nan nan
nan nan nan
nan nan nan
nan nan nan
nan nan nan
nan nan nan
nan nan nan
nan nan nan
nan nan nan
nan nan nan
nan nan nan
nan nan nan
nan nan nan
nan nan nan
nan nan nan
nan nan nan
nan nan nan
nan nan nan
nan nan nan
nan nan nan
nan nan nan
nan nan nan
nan nan nan
nan nan nan
nan nan nan
nan nan nan
nan nan nan
nan nan nan
nan nan nan
nan nan nan
nan nan nan
nan nan nan
nan nan nan
nan nan nan
nan nan nan
nan nan nan
nan nan nan
nan nan nan
nan nan nan
nan nan nan
nan nan nan
nan nan nan
nan nan nan
nan nan nan
nan nan nan
nan nan nan
nan nan nan
nan nan nan
nan nan nan
nan nan nan
nan nan nan
nan nan nan
nan nan nan
nan nan nan
nan nan nan
nan nan nan
nan nan nan
nan nan nan
nan nan nan
nan nan nan
nan nan nan
nan nan nan
nan nan nan
nan nan nan
nan nan nan
nan nan nan
nan nan nan
nan nan nan
nan nan nan
nan nan nan
nan nan nan
nan nan nan
nan nan nan
nan nan nan
nan nan nan
nan nan nan
nan nan nan
nan nan nan
nan nan nan
nan nan nan
nan nan nan
nan nan nan
nan nan nan
nan nan nan
nan nan nan
nan nan nan
nan nan nan
nan nan nan
nan nan nan
nan nan nan
nan nan nan
nan nan nan
nan nan nan
nan nan nan
nan nan nan
nan nan nan
nan nan nan
nan nan nan
nan nan nan
nan nan nan
nan nan nan
nan nan nan
nan nan nan
nan nan nan
nan nan nan
nan nan nan
nan nan nan
nan nan nan
nan nan nan
nan nan nan
nan nan nan
nan nan nan
nan nan nan
nan nan nan
nan nan nan
nan nan nan
nan nan nan
nan nan nan
nan nan nan
nan nan nan
nan nan nan
nan nan nan
nan nan nan
nan nan nan
nan nan nan
nan nan nan
nan nan nan
nan nan nan
nan nan nan
nan nan nan
nan nan nan
nan nan nan
nan nan nan
nan nan nan
nan nan nan
nan nan nan
nan nan nan
nan nan nan
nan nan nan
nan nan nan
nan nan nan
nan nan nan
nan nan nan
nan nan nan
nan nan nan
nan nan nan
nan nan nan
nan nan nan
nan nan nan
nan nan nan
nan nan nan
nan nan nan
nan nan nan
nan nan nan
nan nan nan
nan nan nan
nan nan nan
nan nan nan
nan nan nan
nan nan nan
nan nan nan
nan nan nan
nan nan nan
nan nan nan
nan nan nan
nan nan nan
nan nan nan
nan nan nan
nan nan nan
nan nan nan
nan nan nan
nan nan nan
nan nan nan
nan nan nan
nan nan nan
nan nan nan
nan nan nan
nan nan nan
nan nan nan
nan nan nan
nan nan nan
nan nan nan
nan nan nan
nan nan nan
nan nan nan
nan nan nan
nan nan nan
nan nan nan
nan nan nan
nan nan nan
nan nan nan
nan nan nan
nan nan nan
nan nan nan
nan nan nan
nan nan nan
nan nan nan
nan nan nan
nan nan nan
nan nan nan
nan nan nan
nan nan nan
nan nan nan
nan nan nan
nan nan nan
nan nan nan
nan nan nan
nan nan nan
nan nan nan
nan nan nan
nan nan nan
nan nan nan
nan nan nan
nan nan nan
nan nan nan
nan nan nan
nan nan nan
nan nan nan
nan nan nan
nan nan nan
nan nan nan
nan nan nan
nan nan nan
nan nan nan
nan nan nan
nan nan nan
nan nan nan
nan nan nan
nan nan nan
nan nan nan
nan nan nan
nan nan nan
nan nan nan
nan nan nan
nan nan nan
nan nan nan
nan nan nan
nan nan nan
nan nan nan
nan nan nan
nan nan nan
nan nan nan
nan nan nan
nan nan nan
nan nan nan
nan nan nan
nan nan nan
nan nan nan
nan nan nan
nan nan nan
nan nan nan
nan nan nan
nan nan nan
nan nan nan
nan nan nan
nan nan nan
nan nan nan
nan nan nan
nan nan nan
nan nan nan
nan nan nan
nan nan nan
nan nan nan
nan nan nan
nan nan nan
nan nan nan
nan nan nan
nan nan nan
nan nan nan
nan nan nan
nan nan nan
nan nan nan
nan nan nan
nan nan nan
nan nan nan
nan nan nan
nan nan nan
nan nan nan
nan nan nan
nan nan nan
nan nan nan
nan nan nan
nan nan nan
nan nan nan
nan nan nan
nan nan nan
nan nan nan
nan nan nan
nan nan nan
nan nan nan
nan nan nan
nan nan nan
nan nan nan
nan nan nan
nan nan nan
nan nan nan
nan nan nan
nan nan nan
nan nan nan
nan nan nan
nan nan nan
nan nan nan
nan nan nan
nan nan nan
nan nan nan
nan nan nan
nan nan nan
nan nan nan
nan nan nan
nan nan nan
nan nan nan
nan nan nan
nan nan nan
nan nan nan
nan nan nan
nan nan nan
nan nan nan
nan nan nan
nan nan nan
nan nan nan
nan nan nan
nan nan nan
nan nan nan
nan nan nan
nan nan nan
nan nan nan
nan nan nan
nan nan nan
nan nan nan
nan nan nan
nan nan nan
nan nan nan
nan nan nan
nan nan nan
nan nan nan
nan nan nan
nan nan nan
nan nan nan
nan nan nan
nan nan nan
nan nan nan
nan nan nan
nan nan nan
nan nan nan
nan nan nan
nan nan nan
nan nan nan
nan nan nan
nan nan nan
nan nan nan
nan nan nan
nan nan nan
nan nan nan
nan nan nan
nan nan nan
nan nan nan
nan nan nan
nan nan nan
nan nan nan
nan nan nan
nan nan nan
nan nan nan
nan nan nan
nan nan nan
nan nan nan
nan nan nan
nan nan nan
nan nan nan
nan nan nan
nan nan nan
nan nan nan
nan nan nan
nan nan nan
nan nan nan
nan nan nan
nan nan nan
nan nan nan
nan nan nan
nan nan nan
nan nan nan
nan nan nan
nan nan nan
nan nan nan
nan nan nan
nan nan nan
nan nan nan
nan nan nan
nan nan nan
nan nan nan
nan nan nan
3 2 1 0
3 0 3 2
3 6 5 4
3 6 4 1
3 4 0 1
3 4 7 0
3 3 0 8
3 8 0 7
3 5 9 4
3 11 10 9
3 10 4 9
3 10 7 4
3 8 7 12
3 12 7 10
3 11 13 10
3 10 13 12
3 16 15 14
3 1 2 14
3 2 16 14
3 2 17 16
3 19 18 3
3 18 2 3
3 18 17 2
3 19 20 18
3 14 15 6
3 15 5 6
3 15 21 5
3 14 6 1
3 8 22 19
3 8 19 3
3 20 19 23
3 23 19 22
3 26 25 24
3 24 27 9
3 21 24 9
3 5 21 9
3 24 21 26
3 27 11 9
3 12 28 22
3 12 22 8
3 23 22 29
3 29 22 28
3 25 30 24
3 32 31 30
3 31 24 30
3 31 27 24
3 33 13 11
3 27 33 11
3 31 33 27
3 33 34 13
3 13 34 12
3 34 35 12
3 35 28 12
3 28 35 29
3 32 36 31
3 31 36 33
3 33 36 37
3 33 37 34
3 40 39 38
3 42 41 38
3 38 41 40
3 42 43 41
3 46 45 44
3 48 47 44
3 44 47 46
3 47 48 39
3 48 38 39
3 48 49 38
3 38 50 42
3 38 49 50
3 43 42 51
3 42 52 51
3 42 50 52
3 52 53 51
3 44 45 54
3 54 45 55
3 54 15 16
3 48 54 16
3 44 54 48
3 48 16 17
3 48 17 49
3 49 17 18
3 49 18 50
3 50 18 20
3 56 50 20
3 52 50 56
3 53 52 57
3 57 52 56
3 60 59 58
3 60 58 55
3 58 54 55
3 58 61 54
3 61 21 15
3 61 15 54
3 23 62 56
3 23 56 20
3 57 56 63
3 63 56 62
3 58 59 64
3 64 59 65
3 64 25 26
3 61 64 26
3 58 64 61
3 61 26 21
3 29 66 62
3 29 62 23
3 63 62 67
3 67 62 66
3 64 65 68
3 68 65 69
3 70 30 25
3 64 70 25
3 68 70 64
3 70 32 30
3 34 71 35
3 66 29 35
3 71 66 35
3 72 66 71
3 67 66 73
3 73 66 72
3 68 69 74
3 74 69 75
3 68 76 70
3 68 74 76
3 77 36 32
3 70 77 32
3 76 77 70
3 78 37 36
3 78 36 77
3 71 34 37
3 78 71 37
3 79 71 78
3 81 72 80
3 72 79 80
3 72 71 79
3 72 81 73
3 84 83 82
3 84 82 75
3 82 74 75
3 82 85 74
3 74 86 76
3 74 85 86
3 76 87 77
3 76 86 87
3 77 88 78
3 77 87 88
3 78 89 79
3 78 88 89
3 80 79 90
3 90 79 89
3 83 91 82
3 82 91 85
3 85 91 92
3 94 93 92
3 93 85 92
3 93 86 85
3 86 95 87
3 86 93 95
3 87 96 88
3 87 95 96
3 98 89 97
3 89 96 97
3 89 88 96
3 89 98 90
3 93 94 99
3 99 94 100
3 93 101 95
3 93 99 101
3 95 102 96
3 95 101 102
3 97 96 103
3 103 96 102
3 99 100 104
3 104 100 105
3 99 106 101
3 99 104 106
3 101 107 102
3 101 106 107
3 103 102 108
3 108 102 107
3 111 110 109
3 113 112 109
3 109 112 111
3 115 114 113
3 114 104 113
3 105 112 113
3 105 113 104
3 104 114 106
3 106 114 116
3 106 116 107
3 107 116 117
3 107 117 108
3 110 118 109
3 109 118 113
3 113 118 119
3 113 119 115
3 122 121 120
3 124 123 120
3 120 123 122
3 126 125 124
3 124 125 123
3 126 127 125
3 130 129 128
3 130 128 121
3 128 120 121
3 128 131 120
3 131 39 40
3 124 131 40
3 120 131 124
3 124 40 41
3 124 41 126
3 133 132 43
3 43 132 41
3 132 127 41
3 127 126 41
3 133 134 132
3 128 129 46
3 129 45 46
3 129 135 45
3 128 46 47
3 128 47 131
3 131 47 39
3 51 133 43
3 137 136 53
3 53 136 51
3 136 134 51
3 134 133 51
3 137 138 136
3 141 140 139
3 135 141 139
3 55 135 139
3 45 135 55
3 57 142 137
3 57 137 53
3 138 137 143
3 143 137 142
3 146 145 144
3 146 144 140
3 140 144 139
3 144 59 139
3 59 60 139
3 139 60 55
3 63 147 142
3 63 142 57
3 143 142 148
3 148 142 147
3 144 145 149
3 149 145 150
3 149 65 59
3 149 59 144
3 67 151 147
3 67 147 63
3 148 147 152
3 152 147 151
3 149 150 153
3 153 150 154
3 153 69 65
3 153 65 149
3 156 155 151
3 67 156 151
3 73 156 67
3 151 155 152
3 153 154 157
3 157 154 158
3 157 75 69
3 157 69 153
3 80 159 81
3 159 160 81
3 160 73 81
3 160 156 73
3 157 158 84
3 158 83 84
3 158 161 83
3 157 84 75
3 90 162 159
3 90 159 80
3 160 159 163
3 163 159 162
3 166 165 164
3 164 167 91
3 161 164 91
3 83 161 91
3 164 161 166
3 168 92 91
3 168 91 167
3 168 94 92
3 97 169 98
3 162 90 98
3 169 162 98
3 170 162 169
3 163 162 171
3 171 162 170
3 164 165 172
3 172 165 173
3 164 174 167
3 164 172 174
3 167 175 168
3 167 174 175
3 175 100 94
3 175 94 168
3 103 176 169
3 103 169 97
3 178 170 177
3 170 176 177
3 170 169 176
3 170 178 171
3 172 173 179
3 179 173 180
3 172 181 174
3 172 179 181
3 174 182 175
3 174 181 182
3 182 105 100
3 182 100 175
3 108 183 176
3 108 176 103
3 177 176 184
3 184 176 183
3 179 180 185
3 185 180 186
3 185 110 111
3 181 185 111
3 179 185 181
3 181 111 112
3 181 112 182
3 105 182 112
3 114 115 187
3 188 116 114
3 188 114 187
3 189 117 116
3 189 116 188
3 183 108 117
3 189 183 117
3 190 183 189
3 184 183 191
3 191 183 190
3 186 192 185
3 192 194 193
3 192 193 118
3 185 192 118
3 110 185 118
3 195 119 118
3 195 118 193
3 187 115 119
3 195 187 119
3 196 187 195
3 187 197 188
3 187 196 197
3 188 198 189
3 188 197 198
3 189 199 190
3 189 198 199
3 191 190 200
3 200 190 199
3 193 194 201
3 201 194 202
3 193 203 195
3 193 201 203
3 195 204 196
3 195 203 204
3 196 205 197
3 196 204 205
3 197 206 198
3 197 205 206
3 198 207 199
3 198 206 207
3 200 199 208
3 208 199 207
3 201 202 209
3 209 202 210
3 201 211 203
3 201 209 211
3 203 212 204
3 203 211 212
3 204 213 205
3 204 212 213
3 205 214 206
3 205 213 214
3 216 207 215
3 207 214 215
3 207 206 214
3 207 216 208
3 210 217 209
3 209 217 211
3 211 217 218
3 211 218 212
3 212 218 219
3 212 219 213
3 213 219 220
3 213 220 214
3 214 220 221
3 214 221 215
3 224 223 222
3 226 225 222
3 222 225 224
3 226 227 225
3 230 229 228
3 121 122 228
3 122 230 228
3 122 231 230
3 123 222 223
3 231 123 223
3 122 123 231
3 222 123 125
3 222 125 226
3 233 232 127
3 127 232 125
3 232 227 125
3 227 226 125
3 233 234 232
3 228 229 130
3 229 129 130
3 229 235 129
3 228 130 121
3 132 233 127
3 237 236 134
3 134 236 132
3 236 234 132
3 234 233 132
3 237 238 236
3 241 240 239
3 235 241 239
3 135 235 239
3 129 235 135
3 136 237 134
3 136 138 237
3 138 238 237
3 138 242 238
3 245 244 243
3 245 243 240
3 240 243 239
3 243 140 239
3 140 141 239
3 239 141 135
3 143 247 246
3 242 143 246
3 138 143 242
3 247 248 246
3 243 244 146
3 244 145 146
3 244 249 145
3 243 146 140
3 148 250 247
3 148 247 143
3 248 247 251
3 247 252 251
3 247 250 252
3 255 254 253
3 249 255 253
3 150 249 253
3 145 249 150
3 257 256 250
3 148 257 250
3 152 257 148
3 250 256 252
3 252 256 258
3 253 254 259
3 259 254 260
3 259 154 150
3 259 150 253
3 156 261 155
3 261 262 155
3 262 152 155
3 262 257 152
3 259 260 263
3 263 260 264
3 263 158 154
3 263 154 259
3 160 265 261
3 160 261 156
3 262 261 266
3 266 261 265
3 263 264 267
3 267 264 268
3 267 161 158
3 267 158 263
3 163 269 265
3 163 265 160
3 266 265 270
3 270 265 269
3 273 272 271
3 273 271 268
3 268 271 267
3 271 165 267
3 165 166 267
3 267 166 161
3 275 274 269
3 163 275 269
3 171 275 163
3 269 274 270
3 271 272 276
3 276 272 277
3 276 173 165
3 276 165 271
3 177 278 178
3 278 279 178
3 279 171 178
3 279 275 171
3 276 277 280
3 280 277 281
3 280 180 173
3 280 173 276
3 184 282 278
3 184 278 177
3 279 278 283
3 283 278 282
3 280 281 284
3 284 281 285
3 284 186 180
3 284 180 280
3 191 286 282
3 191 282 184
3 283 282 287
3 287 282 286
3 284 285 288
3 288 285 289
3 290 192 186
3 284 290 186
3 288 290 284
3 290 194 192
3 200 291 286
3 200 286 191
3 287 286 292
3 292 286 291
3 289 293 288
3 295 294 293
3 294 288 293
3 294 290 288
3 294 202 194
3 294 194 290
3 297 296 291
3 200 297 291
3 208 297 200
3 291 296 292
3 294 295 298
3 298 295 299
3 298 210 202
3 298 202 294
3 301 300 216
3 301 216 215
3 208 216 297
3 297 216 300
3 299 302 298
3 302 304 303
3 302 303 217
3 298 302 217
3 210 298 217
3 305 218 217
3 305 217 303
3 218 305 306
3 307 218 306
3 219 218 307
3 307 309 308
3 220 307 308
3 219 307 220
3 220 308 310
3 311 220 310
3 221 220 311
3 215 221 301
3 301 221 311
3 303 304 312
3 312 304 313
3 315 305 314
3 305 312 314
3 305 303 312
3 305 315 306
3 309 316 308
3 308 316 310
3 313 317 312
3 312 317 314
3 320 319 318
3 318 321 320
3 324 323 322
3 324 322 319
3 319 322 318
3 322 223 318
3 223 224 318
3 325 321 318
3 224 325 318
3 225 325 224
3 225 227 325
3 325 227 326
3 328 327 230
3 230 327 229
3 231 322 323
3 328 231 323
3 230 231 328
3 322 231 223
3 329 326 227
3 329 227 232
3 331 330 234
3 330 232 234
3 330 329 232
3 331 332 330
3 335 334 333
3 327 335 333
3 235 327 333
3 229 327 235
3 236 331 234
3 236 238 331
3 238 332 331
3 238 336 332
3 333 334 241
3 334 240 241
3 334 337 240
3 333 241 235
3 242 336 238
3 242 338 336
3 340 339 245
3 245 339 244
3 245 240 337
3 245 337 340
3 341 338 242
3 341 242 246
3 246 248 341
3 341 248 342
3 339 249 244
3 343 249 339
3 344 342 248
3 344 248 251
3 346 345 255
3 255 345 254
3 255 249 343
3 255 343 346
3 257 347 256
3 348 258 256
3 348 256 347
3 345 260 254
3 349 260 345
3 262 350 347
3 262 347 257
3 352 348 351
3 348 350 351
3 348 347 350
3 349 264 260
3 353 264 349
3 355 354 350
3 262 355 350
3 266 355 262
3 350 354 351
3 358 357 356
3 353 358 356
3 268 353 356
3 264 353 268
3 270 355 266
3 270 359 355
3 356 357 273
3 357 272 273
3 357 360 272
3 356 273 268
3 275 361 274
3 361 362 274
3 362 270 274
3 362 359 270
3 360 277 272
3 363 277 360
3 279 364 361
3 279 361 275
3 362 361 365
3 365 361 364
3 363 281 277
3 366 281 363
3 368 367 364
3 279 368 364
3 283 368 279
3 364 367 365
3 366 285 281
3 369 285 366
3 287 368 283
3 287 370 368
3 369 289 285
3 371 289 369
3 374 373 372
3 373 370 372
3 370 292 372
3 370 287 292
3 371 375 289
3 289 375 293
3 295 293 375
3 295 375 376
3 374 372 296
3 297 374 296
3 377 374 297
3 296 372 292
3 376 299 295
3 378 299 376
3 380 379 300
3 380 300 301
3 297 300 377
3 377 300 379
3 378 381 299
3 299 381 302
3 383 382 304
3 302 383 304
3 381 383 302
3 384 382 383
3 306 385 307
3 385 309 307
3 387 386 311
3 387 311 310
3 301 311 380
3 380 311 386
3 388 313 382
3 382 313 304
3 389 315 314
3 382 389 314
3 388 382 314
3 389 382 384
3 306 315 385
3 315 390 385
3 315 389 390
3 385 390 309
3 390 316 309
3 390 391 316
3 310 316 387
3 387 316 391
3 388 317 313
3 317 388 314
3 394 393 392
3 319 320 392
3 320 394 392
3 320 395 394
3 397 396 321
3 396 320 321
3 396 395 320
3 397 398 396
3 401 400 399
3 401 399 393
3 393 399 392
3 399 323 392
3 323 324 392
3 392 324 319
3 325 397 321
3 403 402 326
3 326 402 325
3 402 398 325
3 398 397 325
3 403 404 402
3 407 406 405
3 407 405 400
3 400 405 399
3 405 327 399
3 327 328 399
3 399 328 323
3 329 403 326
3 408 404 403
3 329 408 403
3 330 408 329
3 330 332 408
3 408 332 409
3 405 406 335
3 406 334 335
3 406 410 334
3 405 335 327
3 336 409 332
3 336 411 409
3 414 413 412
3 410 414 412
3 337 410 412
3 334 410 337
3 338 411 336
3 338 415 411
3 412 413 340
3 413 339 340
3 413 416 339
3 412 340 337
3 417 415 338
3 417 338 341
3 341 342 417
3 417 342 418
3 421 420 419
3 416 421 419
3 343 416 419
3 339 416 343
3 342 344 422
3 423 342 422
3 418 342 423
3 419 420 346
3 420 345 346
3 420 424 345
3 419 346 343
3 423 422 425
3 423 425 426
3 424 349 345
3 427 349 424
3 426 425 352
3 351 426 352
3 428 426 351
3 431 430 429
3 427 431 429
3 353 427 429
3 349 427 353
3 433 432 354
3 433 354 355
3 351 354 428
3 428 354 432
3 429 430 358
3 430 357 358
3 430 434 357
3 429 358 353
3 359 433 355
3 359 435 433
3 434 360 357
3 436 360 434
3 362 435 359
3 362 437 435
3 436 363 360
3 438 363 436
3 365 437 362
3 365 439 437
3 438 366 363
3 440 366 438
3 368 441 367
3 441 442 367
3 442 365 367
3 442 439 365
3 440 369 366
3 443 369 440
3 445 444 441
3 368 445 441
3 370 445 368
3 441 444 442
3 443 371 369
3 446 371 443
3 448 447 373
3 448 373 374
3 370 373 445
3 445 373 447
3 446 449 371
3 371 449 375
3 376 375 449
3 376 449 450
3 453 452 451
3 452 448 451
3 448 377 451
3 448 374 377
3 455 378 454
3 378 450 454
3 378 376 450
3 456 455 454
3 453 451 379
3 380 453 379
3 457 453 380
3 379 451 377
3 455 381 378
3 456 458 455
3 458 381 455
3 458 383 381
3 384 383 458
3 384 458 459
3 387 460 386
3 460 461 386
3 461 380 386
3 461 457 380
3 459 462 384
3 384 462 389
3 462 464 463
3 390 462 463
3 389 462 390
3 465 391 390
3 465 390 463
3 460 387 391
3 465 460 391
3 466 460 465
3 461 460 467
3 467 460 466
3 464 468 463
3 470 469 468
3 469 463 468
3 469 465 463
3 465 471 466
3 465 469 471
3 467 466 472
3 472 466 471
3 469 470 473
3 473 470 474
3 469 475 471
3 469 473 475
3 472 471 476
3 476 471 475
3 473 474 477
3 477 474 478
3 473 479 475
3 473 477 479
3 476 475 480
3 480 475 479
3 477 478 481
3 481 478 482
3 484 479 483
3 479 481 483
3 479 477 481
3 479 484 480
3 482 485 481
3 481 485 483
3 488 487 486
3 490 489 486
3 486 489 488
3 490 491 489
3 486 487 492
3 492 487 493
3 486 494 490
3 486 492 494
3 491 490 495
3 495 490 494
3 498 497 496
3 498 496 493
3 496 492 493
3 496 499 492
3 492 500 494
3 492 499 500
3 495 494 501
3 501 494 500
3 496 497 502
3 502 497 503
3 496 504 499
3 496 502 504
3 499 505 500
3 499 504 505
3 501 500 506
3 506 500 505
3 509 508 507
3 509 507 503
3 507 502 503
3 507 510 502
3 502 511 504
3 502 510 511
3 513 505 512
3 505 511 512
3 505 504 511
3 505 513 506
3 515 514 394
3 394 514 393
3 516 394 395
3 516 515 394
3 517 395 396
3 517 516 395
3 519 518 398
3 518 396 398
3 518 517 396
3 519 520 518
3 522 521 401
3 401 521 400
3 401 393 514
3 401 514 522
3 402 519 398
3 402 404 519
3 404 520 519
3 404 523 520
3 525 524 407
3 407 524 406
3 407 400 521
3 407 521 525
3 526 523 404
3 526 404 408
3 408 409 526
3 526 409 527
3 524 410 406
3 528 410 524
3 411 527 409
3 411 529 527
3 531 530 414
3 414 530 413
3 414 410 528
3 414 528 531
3 415 529 411
3 415 532 529
3 530 416 413
3 533 416 530
3 415 417 534
3 535 415 534
3 532 415 535
3 418 534 417
3 537 536 421
3 421 536 420
3 421 416 533
3 421 533 537
3 535 534 538
3 535 538 539
3 423 538 418
3 418 538 534
3 536 424 420
3 540 424 536
3 539 538 541
3 539 541 542
3 426 541 423
3 423 541 538
3 540 427 424
3 543 427 540
3 542 541 544
3 542 544 545
3 428 544 426
3 426 544 541
3 547 546 431
3 431 546 430
3 431 427 543
3 431 543 547
3 545 544 432
3 433 545 432
3 548 545 433
3 432 544 428
3 546 434 430
3 549 434 546
3 435 548 433
3 435 550 548
3 549 436 434
3 551 436 549
3 437 550 435
3 437 552 550
3 551 438 436
3 553 438 551
3 439 552 437
3 439 554 552
3 553 440 438
3 555 440 553
3 442 554 439
3 442 556 554
3 555 443 440
3 557 443 555
3 559 558 444
3 559 444 445
3 442 444 556
3 556 444 558
3 561 446 560
3 446 557 560
3 446 443 557
3 562 561 560
3 564 563 447
3 564 447 448
3 445 447 559
3 559 447 563
3 561 449 446
3 566 565 450
3 566 450 449
3 562 566 449
3 561 562 449
3 567 565 566
3 569 568 452
3 569 452 453
3 448 452 564
3 564 452 568
3 565 454 450
3 456 454 565
3 567 456 565
3 570 456 567
3 457 569 453
3 457 571 569
3 570 572 456
3 456 572 458
3 459 458 572
3 459 572 573
3 461 571 457
3 461 574 571
3 573 575 459
3 459 575 462
3 464 462 575
3 464 575 576
3 467 578 577
3 574 467 577
3 461 467 574
3 578 579 577
3 468 464 580
3 464 581 580
3 464 576 581
3 580 470 468
3 472 582 578
3 472 578 467
3 579 578 583
3 583 578 582
3 580 581 584
3 584 581 585
3 584 474 470
3 584 470 580
3 476 586 582
3 476 582 472
3 583 582 587
3 587 582 586
3 584 585 588
3 588 585 589
3 588 478 474
3 588 474 584
3 480 590 586
3 480 586 476
3 587 586 591
3 586 592 591
3 586 590 592
3 592 593 591
3 588 589 594
3 594 589 595
3 594 482 478
3 594 478 588
3 483 596 484
3 590 480 484
3 596 590 484
3 597 590 596
3 590 598 592
3 590 597 598
3 593 592 599
3 599 592 598
3 594 595 600
3 600 595 601
3 602 485 482
3 594 602 482
3 600 602 594
3 596 483 485
3 602 596 485
3 603 596 602
3 596 604 597
3 596 603 604
3 606 598 605
3 598 604 605
3 598 597 604
3 598 606 599
3 601 607 600
3 609 608 607
3 608 600 607
3 608 602 600
3 602 610 603
3 602 608 610
3 612 604 611
3 604 610 611
3 604 603 610
3 604 612 605
3 608 609 613
3 613 609 614
3 616 610 615
3 610 613 615
3 610 608 613
3 610 616 611
3 614 617 613
3 613 617 615
3 620 619 618
3 622 621 618
3 618 621 620
3 622 623 621
3 618 619 624
3 624 619 625
3 618 626 622
3 618 624 626
3 623 622 627
3 627 622 626
3 630 629 628
3 630 628 625
3 628 624 625
3 628 631 624
3 624 632 626
3 624 631 632
3 627 626 633
3 633 626 632
3 628 629 634
3 634 629 635
3 628 636 631
3 628 634 636
3 631 637 632
3 631 636 637
3 633 632 638
3 632 639 638
3 632 637 639
3 639 640 638
3 643 642 641
3 643 641 635
3 641 634 635
3 641 644 634
3 634 645 636
3 634 644 645
3 636 646 637
3 636 645 646
3 637 647 639
3 637 646 647
3 640 639 648
3 648 639 647
3 641 642 649
3 649 642 650
3 641 651 644
3 641 649 651
3 644 652 645
3 644 651 652
3 645 653 646
3 645 652 653
3 646 654 647
3 646 653 654
3 648 647 655
3 647 656 655
3 647 654 656
3 658 657 656
3 656 657 655
3 658 659 657
3 649 650 660
3 660 650 661
3 649 662 651
3 649 660 662
3 651 663 652
3 651 662 663
3 652 664 653
3 652 663 664
3 653 665 654
3 653 664 665
3 654 666 656
3 654 665 666
3 656 667 658
3 656 666 667
3 659 658 668
3 668 658 667
3 671 670 669
3 671 669 661
3 669 660 661
3 669 672 660
3 660 673 662
3 660 672 673
3 662 674 663
3 662 673 674
3 663 675 664
3 663 674 675
3 664 676 665
3 664 675 676
3 665 677 666
3 665 676 677
3 666 678 667
3 666 677 678
3 668 667 679
3 679 667 678
3 669 670 680
3 680 670 681
3 680 487 488
3 672 680 488
3 669 680 672
3 672 488 489
3 672 489 673
3 673 489 491
3 682 673 491
3 674 673 682
3 674 683 675
3 674 682 683
3 675 684 676
3 675 683 684
3 676 685 677
3 676 684 685
3 687 678 686
3 678 685 686
3 678 677 685
3 678 687 679
3 690 689 688
3 690 688 681
3 688 680 681
3 688 691 680
3 691 493 487
3 691 487 680
3 495 692 682
3 495 682 491
3 682 693 683
3 682 692 693
3 683 694 684
3 683 693 694
3 696 685 695
3 685 694 695
3 685 684 694
3 685 696 686
3 688 689 697
3 697 689 698
3 697 497 498
3 691 697 498
3 688 697 691
3 691 498 493
3 501 699 692
3 501 692 495
3 692 700 693
3 692 699 700
3 702 694 701
3 694 700 701
3 694 693 700
3 694 702 695
3 705 704 703
3 705 703 698
3 703 697 698
3 703 706 697
3 706 503 497
3 706 497 697
3 506 707 699
3 506 699 501
3 699 708 700
3 699 707 708
3 701 700 709
3 709 700 708
3 703 704 710
3 710 704 711
3 710 508 509
3 706 710 509
3 703 710 706
3 706 509 503
3 512 712 513
3 707 506 513
3 712 707 513
3 713 707 712
3 715 708 714
3 708 713 714
3 708 707 713
3 708 715 709
3 718 717 716
3 514 515 716
3 515 718 716
3 515 719 718
3 720 515 516
3 720 719 515
3 721 516 517
3 721 720 516
3 722 517 518
3 722 721 517
3 518 520 722
3 722 520 723
3 716 717 522
3 717 521 522
3 717 724 521
3 716 522 514
3 523 723 520
3 523 725 723
3 727 726 525
3 525 726 524
3 525 521 724
3 525 724 727
3 523 526 728
3 729 523 728
3 725 523 729
3 527 728 526
3 732 731 730
3 726 732 730
3 528 726 730
3 524 726 528
3 733 729 728
3 728 527 733
3 527 734 733
3 527 529 734
3 730 731 531
3 731 530 531
3 731 735 530
3 730 531 528
3 532 734 529
3 532 736 734
3 739 738 737
3 735 739 737
3 533 735 737
3 530 735 533
3 535 736 532
3 535 740 736
3 737 738 537
3 738 536 537
3 738 741 536
3 737 537 533
3 539 740 535
3 539 742 740
3 741 540 536
3 743 540 741
3 542 742 539
3 542 744 742
3 743 543 540
3 745 543 743
3 545 744 542
3 545 746 744
3 748 747 547
3 547 747 546
3 547 543 745
3 547 745 748
3 548 746 545
3 548 749 746
3 747 549 546
3 750 549 747
3 550 752 751
3 749 550 751
3 548 550 749
3 752 753 751
3 750 551 549
3 754 551 750
3 552 755 752
3 552 752 550
3 753 752 756
3 756 752 755
3 754 553 551
3 757 553 754
3 554 758 755
3 554 755 552
3 756 755 759
3 759 755 758
3 757 555 553
3 760 555 757
3 762 761 758
3 554 762 758
3 556 762 554
3 758 761 759
3 764 557 763
3 557 760 763
3 557 555 760
3 765 764 763
3 767 766 558
3 767 558 559
3 556 558 762
3 762 558 766
3 764 560 557
3 769 768 562
3 769 562 560
3 765 769 560
3 764 765 560
3 770 768 769
3 772 771 563
3 772 563 564
3 559 563 767
3 767 563 771
3 768 566 562
3 567 566 768
3 770 567 768
3 773 567 770
3 775 774 568
3 775 568 569
3 564 568 772
3 772 568 774
3 777 570 776
3 570 773 776
3 570 567 773
3 778 777 776
3 571 775 569
3 571 779 775
3 777 572 570
3 573 572 777
3 778 573 777
3 780 573 778
3 574 782 781
3 779 574 781
3 571 574 779
3 782 783 781
3 575 573 784
3 573 785 784
3 573 780 785
3 784 576 575
3 577 782 574
3 577 579 782
3 579 783 782
3 579 786 783
3 785 787 784
3 576 784 787
3 788 576 787
3 581 576 788
3 583 786 579
3 583 789 786
3 788 585 581
3 790 585 788
3 587 792 791
3 789 587 791
3 583 587 789
3 792 793 791
3 790 589 585
3 794 589 790
3 591 792 587
3 591 593 792
3 593 793 792
3 593 795 793
3 794 595 589
3 796 595 794
3 599 795 593
3 599 797 795
3 796 601 595
3 798 601 796
3 800 799 606
3 800 606 605
3 599 606 797
3 797 606 799
3 607 601 801
3 601 802 801
3 601 798 802
3 801 609 607
3 804 803 612
3 804 612 611
3 605 612 800
3 800 612 803
3 801 802 805
3 805 802 806
3 805 614 609
3 805 609 801
3 615 807 616
3 807 808 616
3 808 611 616
3 808 804 611
3 806 809 805
3 809 811 810
3 809 810 617
3 805 809 617
3 614 805 617
3 807 615 617
3 810 807 617
3 812 807 810
3 808 807 813
3 813 807 812
3 810 811 814
3 814 811 815
3 810 816 812
3 810 814 816
3 813 812 817
3 817 812 816
3 820 819 818
3 820 818 815
3 815 818 814
3 818 619 814
3 619 620 814
3 814 620 621
3 814 621 816
3 621 623 816
3 623 817 816
3 623 821 817
3 818 819 822
3 822 819 823
3 822 625 619
3 822 619 818
3 627 825 824
3 821 627 824
3 623 627 821
3 825 826 824
3 822 823 630
3 823 629 630
3 823 827 629
3 822 630 625
3 633 828 825
3 633 825 627
3 826 825 829
3 829 825 828
3 832 831 830
3 827 832 830
3 635 827 830
3 629 827 635
3 638 828 633
3 834 833 640
3 640 833 638
3 833 829 638
3 829 828 638
3 834 835 833
3 830 831 643
3 831 642 643
3 831 836 642
3 830 643 635
3 648 837 834
3 648 834 640
3 835 834 838
3 834 839 838
3 834 837 839
3 839 840 838
3 843 842 841
3 836 843 841
3 650 836 841
3 642 836 650
3 655 837 648
3 837 655 657
3 837 657 839
3 845 844 659
3 659 844 657
3 844 840 657
3 840 839 657
3 845 846 844
3 841 842 847
3 847 842 848
3 847 661 650
3 847 650 841
3 668 849 845
3 668 845 659
3 846 845 850
3 850 845 849
3 853 852 851
3 853 851 848
3 848 851 847
3 851 670 847
3 670 671 847
3 847 671 661
3 679 854 849
3 679 849 668
3 850 849 855
3 855 849 854
3 851 852 856
3 856 852 857
3 856 681 670
3 856 670 851
3 686 858 687
3 854 679 687
3 858 854 687
3 859 854 858
3 855 854 860
3 860 854 859
3 856 857 690
3 857 689 690
3 857 861 689
3 856 690 681
3 695 862 696
3 858 686 696
3 862 858 696
3 863 858 862
3 865 859 864
3 859 863 864
3 859 858 863
3 859 865 860
3 861 698 689
3 866 698 861
3 701 867 702
3 867 868 702
3 702 868 695
3 868 869 695
3 869 862 695
3 862 869 863
3 863 869 870
3 863 870 864
3 872 871 705
3 705 871 704
3 705 698 866
3 705 866 872
3 874 873 867
3 701 874 867
3 709 874 701
3 867 873 868
3 877 876 875
3 871 877 875
3 711 871 875
3 704 871 711
3 714 878 715
3 878 879 715
3 879 709 715
3 879 874 709
3 880 717 718
3 719 881 718
3 718 881 880
3 720 882 719
3 719 882 881
3 721 883 720
3 720 883 882
3 722 884 721
3 721 884 883
3 723 884 722
3 885 724 880
3 880 724 717
3 881 887 886
3 885 881 886
3 880 881 885
3 887 881 882
3 887 882 888
3 888 882 883
3 888 883 889
3 889 883 884
3 889 884 890
3 884 723 890
3 723 891 890
3 723 725 891
3 892 726 727
3 893 892 727
3 893 727 724
3 894 893 724
3 885 894 724
3 894 885 886
3 729 891 725
3 729 895 891
3 897 896 732
3 732 896 731
3 732 726 892
3 898 732 892
3 897 732 898
3 898 892 893
3 729 733 899
3 900 729 899
3 895 729 900
3 734 899 733
3 896 735 731
3 901 735 896
3 902 900 899
3 899 734 902
3 734 903 902
3 734 736 903
3 905 904 739
3 739 904 738
3 739 735 901
3 739 901 905
3 740 903 736
3 740 906 903
3 904 741 738
3 907 741 904
3 742 906 740
3 742 908 906
3 907 743 741
3 909 743 907
3 744 908 742
3 744 910 908
3 909 745 743
3 911 745 909
3 746 910 744
3 746 912 910
3 914 913 748
3 748 913 747
3 748 745 911
3 748 911 914
3 749 912 746
3 749 915 912
3 913 750 747
3 916 750 913
3 917 915 749
3 917 749 751
3 751 753 917
3 917 753 918
3 916 754 750
3 919 754 916
3 756 918 753
3 756 920 918
3 919 757 754
3 921 757 919
3 924 923 922
3 923 920 922
3 920 759 922
3 920 756 759
3 921 760 757
3 925 760 921
3 924 922 761
3 762 924 761
3 926 924 762
3 761 922 759
3 925 927 760
3 760 927 763
3 765 763 927
3 765 927 928
3 931 930 929
3 766 767 929
3 930 766 929
3 932 766 930
3 762 766 926
3 926 766 932
3 928 933 765
3 765 933 769
3 770 769 933
3 770 933 934
3 931 929 771
3 772 931 771
3 935 931 772
3 771 929 767
3 937 773 936
3 773 934 936
3 773 770 934
3 938 937 936
3 940 939 774
3 940 774 775
3 772 774 935
3 935 774 939
3 937 776 773
3 778 776 937
3 938 778 937
3 941 778 938
3 779 940 775
3 779 942 940
3 941 780 778
3 943 780 941
3 944 942 779
3 944 779 781
3 781 783 944
3 944 783 945
3 943 785 780
3 946 785 943
3 786 945 783
3 786 947 945
3 787 785 948
3 785 949 948
3 785 946 949
3 948 788 787
3 789 951 950
3 947 789 950
3 786 789 947
3 951 952 950
3 949 953 948
3 788 948 953
3 954 788 953
3 790 788 954
3 791 951 789
3 791 793 951
3 793 952 951
3 793 955 952
3 954 794 790
3 956 794 954
3 795 955 793
3 795 957 955
3 956 796 794
3 958 796 956
3 797 957 795
3 797 959 957
3 958 798 796
3 960 798 958
3 962 961 799
3 962 799 800
3 797 799 959
3 959 799 961
3 960 802 798
3 963 802 960
3 965 964 803
3 965 803 804
3 800 803 962
3 962 803 964
3 963 806 802
3 966 806 963
3 808 965 804
3 808 967 965
3 809 806 968
3 806 969 968
3 806 966 969
3 968 811 809
3 813 967 808
3 813 970 967
3 968 969 971
3 971 969 972
3 971 815 811
3 971 811 968
3 817 970 813
3 817 973 970
3 971 972 820
3 972 819 820
3 972 974 819
3 971 820 815
3 821 976 975
3 973 821 975
3 817 821 973
3 976 977 975
3 974 823 819
3 978 823 974
3 824 976 821
3 824 826 976
3 826 977 976
3 826 979 977
3 982 981 980
3 978 982 980
3 827 978 980
3 823 978 827
3 829 984 983
3 979 829 983
3 826 829 979
3 984 985 983
3 980 981 832
3 981 831 832
3 981 986 831
3 980 832 827
3 833 984 829
3 988 987 835
3 835 987 833
3 987 985 833
3 985 984 833
3 988 989 987
3 986 836 831
3 990 836 986
3 838 988 835
3 992 991 840
3 840 991 838
3 991 989 838
3 989 988 838
3 992 993 991
3 995 994 843
3 843 994 842
3 843 836 990
3 843 990 995
3 844 992 840
3 844 846 992
3 846 993 992
3 846 996 993
3 994 848 842
3 997 848 994
3 850 999 998
3 996 850 998
3 846 850 996
3 1001 1000 853
3 853 1000 852
3 853 848 997
3 853 997 1001
3 1003 1002 999
3 850 1003 999
3 855 1003 850
3 1000 857 852
3 1004 857 1000
3 860 1003 855
3 860 1005 1003
3 1004 861 857
3 1006 861 1004
3 1008 1007 865
3 1008 865 864
3 860 865 1005
3 1005 865 1007
3 1011 1010 1009
3 1006 1011 1009
3 866 1006 1009
3 861 1006 866
3 1013 1012 869
3 1013 869 868
3 869 1014 870
3 1012 1014 869
3 864 870 1008
3 1008 870 1014
3 1009 1010 872
3 1010 871 872
3 1010 1015 871
3 1009 872 866
3 1017 1016 873
3 1017 873 874
3 868 873 1013
3 1013 873 1016
3 1019 1018 877
3 877 1018 876
3 877 871 1015
3 877 1015 1019
3 879 1017 874
3 879 1020 1017
3 1021 886 887
3 888 1022 887
3 887 1022 1021
3 889 1023 888
3 888 1023 1022
3 890 1024 889
3 889 1024 1023
3 891 1024 890
3 1026 1025 894
3 894 1025 893
3 894 886 1021
3 1027 894 1021
3 1026 894 1027
3 1027 1021 1022
3 1027 1022 1028
3 1028 1022 1023
3 1028 1023 1029
3 1031 1030 1029
3 1023 1031 1029
3 1024 1031 1023
3 895 1031 891
3 891 1031 1024
3 1032 896 897
3 1032 897 1033
3 897 1034 1033
3 897 898 1034
3 898 893 1025
3 898 1025 1034
3 1030 1031 1035
3 1030 1035 1036
3 900 1035 895
3 895 1035 1031
3 1037 901 1032
3 1032 901 896
3 1032 1033 1038
3 1032 1038 1037
3 1036 1035 1039
3 1036 1039 1040
3 902 1041 900
3 1041 1035 900
3 1041 1039 1035
3 903 1041 902
3 1042 904 905
3 901 1037 905
3 1037 1042 905
3 1037 1043 1042
3 1037 1038 1044
3 1037 1044 1043
3 1045 1040 1039
3 1047 1046 1045
3 1039 1047 1045
3 1041 1047 1039
3 906 1047 903
3 903 1047 1041
3 1048 907 1042
3 1042 907 904
3 1049 1042 1043
3 1048 1042 1049
3 1043 1044 1050
3 1043 1050 1049
3 1046 1047 1051
3 1046 1051 1052
3 908 1051 906
3 906 1051 1047
3 1053 909 1048
3 1048 909 907
3 1054 1048 1049
3 1053 1048 1054
3 1049 1050 1055
3 1049 1055 1054
3 1052 1051 1056
3 1052 1056 1057
3 910 1056 908
3 908 1056 1051
3 1058 911 1053
3 1053 911 909
3 1059 1053 1054
3 1058 1053 1059
3 1054 1055 1060
3 1054 1060 1059
3 1061 1057 1056
3 1056 910 1061
3 910 1062 1061
3 910 912 1062
3 1063 913 914
3 911 1058 914
3 1058 1063 914
3 1058 1064 1063
3 1065 1058 1059
3 1064 1058 1065
3 1059 1060 1066
3 1059 1066 1065
3 915 1062 912
3 915 1067 1062
3 1068 916 1063
3 1063 916 913
3 1069 1063 1064
3 1068 1063 1069
3 1070 1064 1065
3 1069 1064 1070
3 1065 1066 1071
3 1065 1071 1070
3 915 917 1072
3 1073 915 1072
3 1067 915 1073
3 918 1072 917
3 1074 919 1068
3 1068 919 916
3 1069 1076 1075
3 1074 1069 1075
3 1068 1069 1074
3 1076 1069 1070
3 1076 1070 1077
3 1077 1070 1071
3 1073 1072 1078
3 1073 1078 1079
3 920 1078 918
3 918 1078 1072
3 1080 921 1074
3 1074 921 919
3 1074 1075 1081
3 1074 1081 1080
3 1079 1078 923
3 924 1079 923
3 1082 1079 924
3 923 1078 920
3 1083 925 1080
3 1080 925 921
3 1080 1081 1084
3 1085 1080 1084
3 1083 1080 1085
3 1086 1085 1084
3 1089 1088 1087
3 1088 1082 1087
3 1082 926 1087
3 1082 924 926
3 1083 927 925
3 927 1083 928
3 1083 1090 928
3 1083 1085 1090
3 1085 1086 1091
3 1092 1085 1091
3 1090 1085 1092
3 1093 1092 1091
3 1095 1094 930
3 1095 930 931
3 1087 932 1089
3 932 1094 1089
3 932 930 1094
3 932 1087 926
3 1090 933 928
3 933 1090 934
3 1090 1096 934
3 1090 1092 1096
3 1092 1093 1097
3 1092 1097 1096
3 1100 1099 1098
3 1099 1095 1098
3 1095 935 1098
3 1095 931 935
3 1096 936 934
3 938 936 1096
3 1097 938 1096
3 1101 938 1097
3 1100 1098 939
3 940 1100 939
3 1102 1100 940
3 939 1098 935
3 1101 941 938
3 1103 941 1101
3 942 1102 940
3 942 1104 1102
3 1103 943 941
3 1105 943 1103
3 1106 1104 942
3 1106 942 944
3 944 945 1106
3 1106 945 1107
3 1105 946 943
3 1108 946 1105
3 947 1107 945
3 947 1109 1107
3 1108 949 946
3 1110 949 1108
3 1111 1109 947
3 1111 947 950
3 950 952 1111
3 1111 952 1112
3 1110 1113 949
3 949 1113 953
3 954 953 1113
3 954 1113 1114
3 955 1112 952
3 955 1115 1112
3 1114 956 954
3 1116 956 1114
3 957 1115 955
3 957 1117 1115
3 1116 958 956
3 1118 958 1116
3 959 1117 957
3 959 1119 1117
3 1118 960 958
3 1120 960 1118
3 1122 1121 961
3 1122 961 962
3 959 961 1119
3 1119 961 1121
3 1120 963 960
3 1123 963 1120
3 1125 1124 964
3 1125 964 965
3 962 964 1122
3 1122 964 1124
3 1123 966 963
3 1126 966 1123
3 967 1125 965
3 967 1127 1125
3 1126 969 966
3 1128 969 1126
3 970 1127 967
3 970 1129 1127
3 1128 972 969
3 1130 972 1128
3 973 1129 970
3 973 1131 1129
3 1130 974 972
3 1132 974 1130
3 1133 1131 973
3 1133 973 975
3 975 977 1133
3 1133 977 1134
3 1132 978 974
3 1135 978 1132
3 979 1134 977
3 979 1136 1134
3 1138 1137 982
3 982 1137 981
3 982 978 1135
3 982 1135 1138
3 1139 1136 979
3 1139 979 983
3 983 985 1139
3 1139 985 1140
3 1137 986 981
3 1141 986 1137
3 1142 1140 985
3 1142 985 987
3 987 989 1142
3 1142 989 1143
3 1141 990 986
3 1144 990 1141
3 1145 1143 989
3 1145 989 991
3 991 993 1145
3 1145 993 1146
3 1148 1147 995
3 995 1147 994
3 995 990 1144
3 995 1144 1148
3 996 1146 993
3 996 1149 1146
3 1147 997 994
3 1150 997 1147
3 996 998 1151
3 1152 996 1151
3 1149 996 1152
3 1154 1153 1001
3 1001 1153 1000
3 1001 997 1150
3 1001 1150 1154
3 1152 1151 1002
3 1003 1152 1002
3 1155 1152 1003
3 1153 1004 1000
3 1156 1004 1153
3 1005 1155 1003
3 1005 1157 1155
3 1156 1006 1004
3 1158 1006 1156
3 1161 1160 1159
3 1163 1162 1159
3 1163 1159 1160
3 1007 1008 1162
3 1163 1007 1162
3 1164 1007 1163
3 1005 1007 1157
3 1157 1007 1164
3 1166 1165 1011
3 1011 1165 1010
3 1011 1006 1158
3 1011 1158 1166
3 1169 1168 1167
3 1167 1168 1161
3 1167 1161 1159
3 1013 1167 1159
3 1012 1013 1159
3 1012 1159 1014
3 1014 1159 1162
3 1014 1162 1008
3 1172 1171 1170
3 1165 1172 1170
3 1015 1165 1170
3 1010 1165 1015
3 1169 1167 1016
3 1017 1169 1016
3 1173 1169 1017
3 1016 1167 1013
3 1170 1171 1019
3 1171 1018 1019
3 1171 1174 1018
3 1170 1019 1015
3 1177 1176 1175
3 1176 1173 1175
3 1173 1020 1175
3 1173 1017 1020
3 1179 1178 1026
3 1026 1178 1025
3 1180 1026 1027
3 1180 1179 1026
3 1182 1180 1181
3 1180 1028 1181
3 1180 1027 1028
3 1029 1183 1028
3 1028 1183 1181
3 1030 1183 1029
3 1184 1033 1034
3 1185 1184 1034
3 1025 1185 1034
3 1178 1185 1025
3 1186 1182 1181
3 1188 1187 1186
3 1181 1188 1186
3 1183 1188 1181
3 1036 1188 1030
3 1030 1188 1183
3 1189 1038 1184
3 1184 1038 1033
3 1184 1185 1190
3 1184 1190 1189
3 1187 1188 1191
3 1187 1191 1192
3 1040 1191 1036
3 1036 1191 1188
3 1193 1044 1189
3 1189 1044 1038
3 1189 1190 1194
3 1189 1194 1193
3 1195 1192 1191
3 1197 1195 1196
3 1196 1195 1045
3 1195 1191 1045
3 1191 1040 1045
3 1046 1196 1045
3 1198 1050 1193
3 1193 1050 1044
3 1193 1194 1199
3 1193 1199 1198
3 1197 1196 1200
3 1197 1200 1201
3 1052 1200 1046
3 1046 1200 1196
3 1202 1055 1198
3 1198 1055 1050
3 1198 1199 1203
3 1198 1203 1202
3 1204 1201 1200
3 1200 1052 1204
3 1052 1205 1204
3 1052 1057 1205
3 1206 1060 1202
3 1202 1060 1055
3 1202 1203 1207
3 1202 1207 1206
3 1057 1061 1208
3 1209 1057 1208
3 1205 1057 1209
3 1062 1208 1061
3 1210 1066 1206
3 1206 1066 1060
3 1206 1207 1211
3 1206 1211 1210
3 1212 1209 1208
3 1208 1062 1212
3 1062 1213 1212
3 1062 1067 1213
3 1214 1071 1210
3 1210 1071 1066
3 1210 1211 1215
3 1210 1215 1214
3 1073 1213 1067
3 1073 1216 1213
3 1217 1075 1076
3 1077 1218 1076
3 1076 1218 1217
3 1071 1214 1077
3 1214 1218 1077
3 1214 1219 1218
3 1214 1215 1220
3 1214 1220 1219
3 1079 1216 1073
3 1079 1221 1216
3 1223 1222 1217
3 1222 1075 1217
3 1222 1081 1075
3 1225 1224 1223
3 1217 1225 1223
3 1218 1225 1217
3 1219 1227 1226
3 1225 1219 1226
3 1218 1219 1225
3 1227 1219 1220
3 1230 1229 1228
3 1232 1231 1228
3 1232 1228 1229
3 1232 1221 1231
3 1221 1082 1231
3 1221 1079 1082
3 1222 1233 1081
3 1081 1233 1084
3 1225 1234 1086
3 1233 1225 1086
3 1084 1233 1086
3 1224 1225 1233
3 1225 1226 1235
3 1225 1235 1234
3 1238 1237 1236
3 1236 1237 1230
3 1228 1236 1230
3 1239 1236 1228
3 1089 1239 1088
3 1239 1231 1088
3 1239 1228 1231
3 1088 1231 1082
3 1234 1091 1086
3 1093 1091 1234
3 1235 1093 1234
3 1240 1093 1235
3 1238 1236 1241
3 1238 1241 1242
3 1095 1241 1094
3 1241 1239 1094
3 1241 1236 1239
3 1094 1239 1089
3 1244 1097 1243
3 1097 1240 1243
3 1097 1093 1240
3 1245 1244 1243
3 1242 1241 1099
3 1100 1242 1099
3 1246 1242 1100
3 1099 1241 1095
3 1247 1101 1244
3 1244 1101 1097
3 1244 1245 1248
3 1244 1248 1247
3 1102 1246 1100
3 1102 1249 1246
3 1250 1103 1247
3 1247 1103 1101
3 1247 1248 1251
3 1247 1251 1250
3 1104 1249 1102
3 1104 1252 1249
3 1253 1105 1250
3 1250 1105 1103
3 1250 1251 1254
3 1250 1254 1253
3 1104 1106 1255
3 1256 1104 1255
3 1252 1104 1256
3 1107 1255 1106
3 1257 1108 1253
3 1253 1108 1105
3 1253 1254 1258
3 1253 1258 1257
3 1259 1256 1255
3 1255 1107 1259
3 1107 1260 1259
3 1107 1109 1260
3 1261 1110 1257
3 1257 1110 1108
3 1257 1258 1262
3 1257 1262 1261
3 1109 1111 1263
3 1264 1109 1263
3 1260 1109 1264
3 1112 1263 1111
3 1261 1113 1110
3 1114 1113 1261
3 1262 1114 1261
3 1265 1114 1262
3 1266 1264 1263
3 1263 1112 1266
3 1112 1267 1266
3 1112 1115 1267
3 1265 1116 1114
3 1268 1116 1265
3 1117 1267 1115
3 1117 1269 1267
3 1271 1118 1270
3 1118 1268 1270
3 1118 1116 1268
3 1272 1271 1270
3 1275 1274 1273
3 1274 1269 1273
3 1269 1119 1273
3 1269 1117 1119
3 1276 1120 1271
3 1271 1120 1118
3 1271 1272 1277
3 1271 1277 1276
3 1280 1279 1278
3 1278 1279 1275
3 1278 1275 1273
3 1122 1278 1273
3 1121 1122 1273
3 1121 1273 1119
3 1281 1123 1276
3 1276 1123 1120
3 1276 1277 1282
3 1276 1282 1281
3 1280 1278 1124
3 1125 1280 1124
3 1283 1280 1125
3 1124 1278 1122
3 1284 1126 1281
3 1281 1126 1123
3 1281 1282 1285
3 1281 1285 1284
3 1127 1283 1125
3 1127 1286 1283
3 1287 1128 1284
3 1284 1128 1126
3 1284 1285 1288
3 1284 1288 1287
3 1129 1286 1127
3 1129 1289 1286
3 1291 1290 1287
3 1290 1128 1287
3 1290 1130 1128
3 1291 1287 1288
3 1131 1289 1129
3 1131 1292 1289
3 1290 1132 1130
3 1293 1132 1290
3 1131 1133 1294
3 1295 1131 1294
3 1292 1131 1295
3 1134 1294 1133
3 1293 1135 1132
3 1296 1135 1293
3 1297 1295 1294
3 1294 1134 1297
3 1134 1298 1297
3 1134 1136 1298
3 1300 1299 1138
3 1138 1299 1137
3 1138 1135 1296
3 1138 1296 1300
3 1136 1139 1301
3 1302 1136 1301
3 1298 1136 1302
3 1140 1301 1139
3 1299 1141 1137
3 1303 1141 1299
3 1304 1302 1301
3 1304 1301 1140
3 1142 1304 1140
3 1305 1304 1142
3 1142 1143 1305
3 1305 1143 1306
3 1303 1144 1141
3 1307 1144 1303
3 1308 1306 1143
3 1308 1143 1145
3 1145 1146 1308
3 1308 1146 1309
3 1311 1310 1148
3 1148 1310 1147
3 1148 1144 1307
3 1148 1307 1311
3 1149 1309 1146
3 1149 1312 1309
3 1310 1150 1147
3 1313 1150 1310
3 1152 1312 1149
3 1152 1314 1312
3 1315 1153 1154
3 1316 1315 1154
3 1150 1316 1154
3 1313 1316 1150
3 1155 1314 1152
3 1155 1317 1314
3 1319 1318 1315
3 1318 1153 1315
3 1318 1156 1153
3 1319 1315 1316
3 1322 1321 1320
3 1324 1323 1320
3 1324 1320 1321
3 1324 1317 1323
3 1317 1157 1323
3 1317 1155 1157
3 1318 1158 1156
3 1325 1158 1318
3 1328 1327 1326
3 1160 1161 1326
3 1327 1160 1326
3 1329 1160 1327
3 1320 1163 1322
3 1163 1329 1322
3 1163 1160 1329
3 1163 1320 1164
3 1164 1320 1323
3 1164 1323 1157
3 1331 1330 1166
3 1166 1330 1165
3 1166 1158 1325
3 1166 1325 1331
3 1328 1326 1168
3 1169 1328 1168
3 1332 1328 1169
3 1168 1326 1161
3 1333 1171 1172
3 1334 1333 1172
3 1165 1334 1172
3 1330 1334 1165
3 1337 1336 1335
3 1336 1332 1335
3 1332 1173 1335
3 1332 1169 1173
3 1339 1338 1333
3 1338 1171 1333
3 1338 1174 1171
3 1339 1333 1334
3 1337 1335 1176
3 1177 1337 1176
3 1340 1337 1177
3 1176 1335 1173
3 1341 1178 1179
3 1180 1342 1179
3 1179 1342 1341
3 1182 1342 1180
3 1343 1185 1341
3 1341 1185 1178
3 1342 1345 1344
3 1343 1342 1344
3 1341 1342 1343
3 1347 1345 1346
3 1346 1345 1186
3 1345 1342 1186
3 1342 1182 1186
3 1187 1346 1186
3 1349 1348 1343
3 1348 1185 1343
3 1348 1190 1185
3 1349 1343 1344
3 1347 1346 1350
3 1347 1350 1351
3 1192 1350 1187
3 1187 1350 1346
3 1353 1194 1352
3 1194 1348 1352
3 1194 1190 1348
3 1354 1353 1352
3 1355 1351 1350
3 1357 1355 1356
3 1356 1355 1195
3 1355 1350 1195
3 1350 1192 1195
3 1197 1356 1195
3 1358 1199 1353
3 1353 1199 1194
3 1353 1354 1359
3 1353 1359 1358
3 1362 1361 1360
3 1360 1361 1357
3 1356 1360 1357
3 1363 1360 1356
3 1201 1363 1197
3 1197 1363 1356
3 1364 1203 1358
3 1358 1203 1199
3 1358 1359 1365
3 1358 1365 1364
3 1362 1360 1366
3 1362 1366 1367
3 1368 1360 1363
3 1366 1360 1368
3 1204 1369 1201
3 1369 1363 1201
3 1369 1368 1363
3 1205 1369 1204
3 1370 1207 1364
3 1364 1207 1203
3 1364 1365 1371
3 1364 1371 1370
3 1372 1367 1366
3 1374 1373 1372
3 1366 1374 1372
3 1368 1374 1366
3 1375 1368 1369
3 1374 1368 1375
3 1209 1375 1205
3 1205 1375 1369
3 1376 1211 1370
3 1370 1211 1207
3 1370 1371 1377
3 1370 1377 1376
3 1373 1374 1378
3 1373 1378 1379
3 1380 1374 1375
3 1378 1374 1380
3 1212 1381 1209
3 1381 1375 1209
3 1381 1380 1375
3 1213 1381 1212
3 1382 1215 1376
3 1376 1215 1211
3 1376 1377 1383
3 1376 1383 1382
3 1379 1378 1384
3 1379 1384 1385
3 1386 1378 1380
3 1384 1378 1386
3 1387 1380 1381
3 1386 1380 1387
3 1216 1387 1213
3 1213 1387 1381
3 1389 1388 1382
3 1388 1215 1382
3 1388 1220 1215
3 1389 1382 1383
3 1385 1384 1390
3 1385 1390 1391
3 1392 1384 1386
3 1390 1384 1392
3 1393 1386 1387
3 1392 1386 1393
3 1221 1393 1216
3 1216 1393 1387
3 1394 1222 1223
3 1224 1394 1223
3 1395 1226 1227
3 1396 1395 1227
3 1220 1396 1227
3 1388 1396 1220
3 1391 1390 1397
3 1391 1397 1398
3 1230 1397 1229
3 1397 1392 1229
3 1397 1390 1392
3 1229 1392 1232
3 1232 1392 1393
3 1232 1393 1221
3 1394 1233 1222
3 1233 1394 1224
3 1399 1235 1395
3 1395 1235 1226
3 1395 1396 1400
3 1395 1400 1399
3 1403 1402 1401
3 1401 1402 1398
3 1401 1398 1397
3 1238 1401 1397
3 1237 1238 1397
3 1237 1397 1230
3 1404 1240 1399
3 1399 1240 1235
3 1399 1400 1405
3 1399 1405 1404
3 1403 1401 1406
3 1403 1406 1407
3 1242 1406 1238
3 1238 1406 1401
3 1404 1243 1240
3 1245 1243 1404
3 1405 1245 1404
3 1408 1245 1405
3 1409 1407 1406
3 1406 1242 1409
3 1242 1410 1409
3 1242 1246 1410
3 1408 1248 1245
3 1411 1248 1408
3 1414 1413 1412
3 1413 1410 1412
3 1410 1249 1412
3 1410 1246 1249
3 1411 1251 1248
3 1415 1251 1411
3 1414 1412 1416
3 1414 1416 1417
3 1252 1416 1249
3 1249 1416 1412
3 1415 1254 1251
3 1418 1254 1415
3 1417 1416 1419
3 1417 1419 1420
3 1256 1419 1252
3 1252 1419 1416
3 1422 1258 1421
3 1258 1418 1421
3 1258 1254 1418
3 1423 1422 1421
3 1424 1420 1419
3 1426 1424 1425
3 1425 1424 1259
3 1424 1419 1259
3 1419 1256 1259
3 1260 1425 1259
3 1427 1262 1422
3 1422 1262 1258
3 1422 1423 1428
3 1422 1428 1427
3 1429 1426 1425
3 1425 1260 1429
3 1260 1430 1429
3 1260 1264 1430
3 1431 1265 1427
3 1427 1265 1262
3 1427 1428 1432
3 1433 1427 1432
3 1431 1427 1433
3 1434 1433 1432
3 1264 1266 1435
3 1436 1264 1435
3 1430 1264 1436
3 1267 1435 1266
3 1437 1268 1431
3 1431 1268 1265
3 1438 1431 1433
3 1437 1431 1438
3 1433 1434 1439
3 1440 1433 1439
3 1438 1433 1440
3 1442 1441 1440
3 1442 1440 1439
3 1441 1442 1436
3 1435 1441 1436
3 1443 1441 1435
3 1269 1443 1267
3 1267 1443 1435
3 1437 1270 1268
3 1270 1437 1272
3 1437 1444 1272
3 1437 1438 1444
3 1445 1438 1440
3 1444 1438 1445
3 1446 1440 1441
3 1445 1440 1446
3 1275 1446 1274
3 1446 1443 1274
3 1446 1441 1443
3 1274 1443 1269
3 1447 1277 1444
3 1444 1277 1272
3 1448 1444 1445
3 1447 1444 1448
3 1280 1448 1279
3 1448 1446 1279
3 1448 1445 1446
3 1279 1446 1275
3 1449 1282 1447
3 1447 1282 1277
3 1450 1447 1448
3 1449 1447 1450
3 1283 1450 1280
3 1280 1450 1448
3 1451 1285 1449
3 1449 1285 1282
3 1452 1449 1450
3 1451 1449 1452
3 1286 1452 1283
3 1283 1452 1450
3 1454 1453 1451
3 1453 1285 1451
3 1453 1288 1285
3 1456 1455 1454
3 1451 1456 1454
3 1452 1456 1451
3 1289 1456 1286
3 1286 1456 1452
3 1457 1290 1291
3 1458 1457 1291
3 1288 1458 1291
3 1453 1458 1288
3 1459 1455 1456
3 1456 1289 1459
3 1289 1460 1459
3 1289 1292 1460
3 1461 1293 1457
3 1457 1293 1290
3 1457 1458 1462
3 1457 1462 1461
3 1295 1460 1292
3 1295 1463 1460
3 1465 1464 1461
3 1464 1293 1461
3 1464 1296 1293
3 1465 1461 1462
3 1295 1297 1466
3 1467 1295 1466
3 1463 1295 1467
3 1298 1466 1297
3 1468 1299 1300
3 1469 1468 1300
3 1296 1469 1300
3 1464 1469 1296
3 1470 1467 1466
3 1466 1298 1470
3 1298 1471 1470
3 1298 1302 1471
3 1473 1472 1468
3 1472 1299 1468
3 1472 1303 1299
3 1473 1468 1469
3 1474 1471 1302
3 1474 1302 1304
3 1476 1474 1475
3 1474 1305 1475
3 1474 1304 1305
3 1306 1475 1305
3 1472 1307 1303
3 1477 1307 1472
3 1478 1476 1475
3 1480 1478 1479
3 1479 1478 1308
3 1478 1475 1308
3 1475 1306 1308
3 1309 1479 1308
3 1482 1481 1311
3 1311 1481 1310
3 1311 1307 1477
3 1311 1477 1482
3 1480 1479 1483
3 1480 1483 1484
3 1312 1483 1309
3 1309 1483 1479
3 1481 1313 1310
3 1485 1313 1481
3 1484 1483 1486
3 1484 1486 1487
3 1314 1486 1312
3 1312 1486 1483
3 1485 1316 1313
3 1488 1316 1485
3 1491 1490 1489
3 1493 1492 1489
3 1493 1489 1490
3 1495 1494 1492
3 1495 1492 1493
3 1494 1495 1487
3 1486 1494 1487
3 1496 1494 1486
3 1317 1496 1314
3 1314 1496 1486
3 1497 1318 1319
3 1498 1497 1319
3 1316 1498 1319
3 1488 1498 1316
3 1491 1489 1499
3 1491 1499 1500
3 1501 1489 1492
3 1499 1489 1501
3 1322 1501 1321
3 1501 1494 1321
3 1501 1492 1494
3 1321 1494 1324
3 1324 1494 1496
3 1324 1496 1317
3 1503 1502 1497
3 1502 1318 1497
3 1502 1325 1318
3 1503 1497 1498
3 1506 1505 1504
3 1504 1505 1500
3 1504 1500 1499
3 1328 1504 1499
3 1327 1328 1499
3 1327 1499 1329
3 1329 1499 1501
3 1329 1501 1322
3 1507 1330 1331
3 1508 1507 1331
3 1325 1508 1331
3 1502 1508 1325
3 1506 1504 1509
3 1506 1509 1510
3 1332 1509 1328
3 1328 1509 1504
3 1512 1511 1507
3 1511 1330 1507
3 1511 1334 1330
3 1512 1507 1508
3 1510 1509 1336
3 1337 1510 1336
3 1513 1510 1337
3 1336 1509 1332
3 1515 1514 1339
3 1339 1514 1338
3 1339 1334 1511
3 1339 1511 1515
3 1518 1517 1516
3 1519 1516 1517
3 1522 1521 1520
3 1521 1513 1520
3 1513 1340 1520
3 1513 1337 1340