OFF
1070 2082 0
2.6545002851 13.1600920349 14.3116033055
2.6829785551 13.3928256911 13.8957251233
3.0397743632 12.7225847862 13.9699720488
3.1588163565 12.6105284828 14.4668140247
2.4531051933 14.0796873869 14.4267855411
2.7604127755 14.2835730314 13.7126220380
2.9466359351 13.3656682458 14.9919608645
2.4806363237 15.0384657636 14.2372981378
2.9882308814 15.6776609637 13.7434794838
2.6176138108 14.3648176812 15.1509728870
2.4860010248 15.1263443535 14.9090491508
3.0378464218 15.1244330672 15.7520162430
2.6730977032 15.9458012970 14.5928716176
2.8281265588 15.9595385132 15.3169182226
3.4563716717 13.1095159949 13.3103781681
4.1073429784 11.7952294640 14.0721186073
3.8906816198 12.3675791423 15.1225017015
3.5082497538 14.6329340403 12.9869500382
3.9552446802 13.1442486939 15.8945923844
3.1260459625 14.0630539334 15.6467491431
3.8235167582 14.3020518035 16.3457691501
3.7148682247 15.9757399437 12.9937317236
3.8556936606 15.3488082907 16.5592679150
3.0933178553 16.7005262680 14.3543929237
3.6194121442 17.0426498525 13.7086983157
3.1443601508 16.8065205925 15.1491001569
3.5830022023 16.4463230666 16.1203819692
3.6339677047 17.7106046235 14.7884556765
3.7772247506 17.6083296386 15.7631514178
5.5223687916 9.7183129152 12.8943585064
5.7395756627 9.8610063416 12.1320915060
6.2576442244 9.1040899485 12.5724880463
6.0582862681 9.1531492718 13.4190955389
5.2101903548 10.4924399096 12.4575208049
5.6552991354 10.9296538277 11.5519672163
5.5215931860 9.7491225164 13.6706306922
4.9505636301 10.5839296659 13.3212575994
5.3020694115 10.4012335627 14.3803012472
4.6385740387 11.8227444598 12.5882250729
5.3182845284 12.7035799467 11.3716181698
5.3540368480 11.3024200104 15.5699052679
4.5295864311 12.2599071090 15.7686646099
5.2178676475 12.3679599123 16.4422592552
4.3507173855 13.6277668256 12.2584293086
5.1848850753 14.4457249055 11.2838486210
4.8515047501 13.4702268106 16.8370848188
4.7209440355 14.6885469653 17.1600787022
5.7894477570 13.7949849226 17.6770250052
4.3662700926 15.3207458296 12.2034138180
5.2550752666 16.1396418695 11.3176163830
4.6113435778 16.0996255724 17.1819828123
5.7896084943 15.2346641696 18.0522427023
4.4916388467 17.1918584656 12.5835142577
5.5605133781 17.8690206110 11.3839248502
4.5982955560 17.8011358909 16.8800717200
5.6066248028 17.0093738909 17.9890474702
5.0708611912 19.0976944727 12.6468662084
6.1270887941 19.5514867608 11.4374495615
4.3383761196 18.7470651104 14.0781718446
4.3856711014 18.9281557207 15.7966013506
5.0256567564 19.3101847395 17.0047950262
5.8181528748 18.8908069925 17.9322481443
5.5506777762 20.5205712590 12.6917323800
6.2962332519 20.7623396532 11.9915144060
4.9986028539 20.4099989814 13.8618367530
4.8472954317 20.3996161968 15.2607057398
5.1371715371 20.4066708552 16.5667430699
5.6739129401 20.2029974656 17.4768840941
6.0747350972 21.3764973719 12.7373414565
5.6015743314 21.5145646664 13.6438183820
6.4925523035 22.1538112277 13.3785736983
5.4230094804 21.6609363699 14.8645631024
5.5612093736 21.6541658443 16.1439639519
6.0131645139 21.3815823065 17.2198186081
6.0520821467 22.3750558127 14.4008963157
6.4201822281 22.9039623230 15.6788507425
6.3504246340 22.4418197983 16.7816066898
6.4661649145 9.6020177852 11.4180788638
7.0544249291 8.6011080275 12.1361305377
7.1924669451 8.4083192352 13.6388947211
6.2558880330 9.3245856778 14.3898290144
7.2651114887 8.7331769594 14.9140467481
6.8459858089 9.3554138139 15.3444853942
7.6520421070 8.9726226112 15.6973784060
6.4112040519 10.6401578032 10.6871920341
6.9108721491 11.0971161238 9.8074079150
6.9595080713 9.9724307481 10.3789602629
6.1301824344 10.0303007268 15.2205883783
7.1904170455 10.0283817774 16.2420885644
6.1897861404 11.9144900722 10.4803315812
6.8471238675 12.5996464888 9.4099955828
6.9732883633 11.5312534007 17.1339535930
5.9233522897 12.7529267900 17.2651509990
6.9027516566 12.8827600294 17.9807478686
6.1180274725 13.7127898807 10.2048782742
6.8605158649 13.9082197094 9.1505631657
6.7408242111 14.0494528396 18.4221081699
6.6785349747 15.1449964400 9.3764225373
7.2499524984 15.2961306009 8.5557879193
7.2194036815 14.5790967145 8.5796134878
5.8792731765 15.2465640017 10.4489200903
6.8112423124 14.9912886205 18.7387965635
6.6395080910 16.1744162938 18.7355329545
7.6286668511 15.3123855522 19.1503260369
7.3146655888 16.2909516326 8.7033987533
6.2987521865 16.7090485782 10.1161241113
7.1623918355 17.6839107702 9.3409559972
6.6900148191 17.7693584828 18.7281792473
7.7559447710 16.7328569562 19.2594070470
6.5571777249 18.3418081152 10.3257393361
7.2206580387 18.5439626563 9.6508786121
6.9181275863 19.1695936261 18.6893823902
7.9901369489 18.4408268065 19.2497955448
7.3968982446 19.4090016353 10.0763027895
7.1926464947 20.5168071725 11.1145917353
7.7051897149 19.8160514564 18.9123655531
6.8878429783 20.6267614846 18.1816413705
7.1831242925 21.5544265242 12.1497486111
7.7832431341 22.5025555695 13.0814738852
7.1277646311 22.2911295889 17.5359017087
7.1193753723 23.0614960038 14.4115527758
7.2266122362 23.6971640721 15.4073596886
7.9779054618 23.8162920252 15.0537924960
7.4935105714 23.9516903339 16.1848422247
7.2054844939 23.3135815310 16.8366006805
7.6873390139 24.0705746660 15.6442098862
8.5325704003 7.5521504414 10.7960584946
9.1015547220 7.2964194092 9.7236230012
9.1673721094 6.7941393544 10.7631765462
9.3211097286 6.5860210956 11.9957754526
8.1157618348 7.6598547795 12.4048866552
9.1822165536 6.8605317985 13.5649742404
8.4075597325 7.5273386198 13.9303533614
9.1365606584 7.1825292727 14.5848156919
8.3578547321 8.6863334150 9.2649381772
8.7648468215 9.0533071382 7.9615957584
9.0545494301 8.0695885612 8.5086808408
7.5379327042 8.7933411086 10.7895303265
8.6467997975 8.0141448159 15.2505370106
8.4881808936 9.0658790714 16.3880675994
8.2760710308 10.3197872056 8.0108845218
8.8125244115 11.0493659395 6.6550891988
8.9125652596 9.7708631174 7.1107925595
7.5769495291 10.0424245543 9.4342632559
8.4051651713 9.8813619781 16.9925362711
7.9246144396 10.4818861604 17.0978398803
9.1921160416 10.6665134628 17.7386350748
8.1720147532 12.0889122205 7.4516609388
8.8013264200 12.6190698145 6.3104164904
7.5392384940 11.5857729810 8.6836847586
8.2418539629 12.1839215653 18.2568001494
7.8118220187 13.3873887160 18.7065517479
9.0648913883 13.0264324242 18.9277021710
8.2159560534 13.4834130071 7.1568407065
8.8097536170 14.2158649474 6.3413896226
7.5209971225 13.3476665765 8.2676256995
7.4730445721 14.3446799121 18.9305801490
8.4797280419 14.2263603242 19.1903467986
7.8991464921 14.9593181187 7.6898616119
8.7843115569 15.5702880388 6.6625014216
8.9000522909 15.5019366176 19.4912190444
8.2782176132 16.4966745266 7.5904541851
7.8611119120 17.3944482928 8.4212664668
8.7083325957 17.7126315383 7.6917818589
9.1733443952 17.0602013930 19.6519172980
8.0113247831 18.5065607346 8.8756668649
9.1224750921 18.7085109185 8.0153374547
9.3738049517 18.3888920241 19.6362544801
8.9418516724 19.6467791406 9.0483134742
8.2358182906 20.3385608907 10.1941524485
9.4894150064 20.6634155110 9.8795443998
8.1977041095 20.7069429108 18.7439933359
8.9649644121 19.7221225861 19.2541917467
8.4766837215 21.1497687595 11.0131236451
8.7180337653 21.9854042782 11.9915308006
8.9932034622 22.6081675049 12.8187987105
9.4016397305 21.0321586520 18.7586120962
8.3251031661 21.8324477363 18.1754398040
8.7224650705 23.2220814964 13.9646551000
9.1685993328 23.8535134763 15.1009025235
7.8894639567 24.0030006422 16.9042985535
8.4165959444 23.3721202440 17.3941075386
8.3978268966 24.2157461787 15.8926912000
8.1821605412 24.3139082151 16.5844449445
8.9295421964 24.2749212278 16.5454684387
8.3266531884 24.1449458270 17.0798350572
10.0512112706 6.0956730415 10.5919151603
10.7009878074 5.8410323345 9.2611057709
11.3680128146 5.0328243958 10.2710616237
11.2013514618 5.1213948395 11.8675275111
10.3381686485 5.7470946858 12.2373483902
11.1290004750 5.3192928742 13.0380359645
10.3974479258 7.4108691784 6.9070955970
10.7327805118 7.6692915494 5.8503344378
11.4070426908 6.8158426141 6.2312735725
11.1652581091 6.1039950667 7.8403561675
9.9093071623 6.9951095944 8.5702554015
10.3764062197 6.0354305605 13.5389050031
10.0188682188 6.7127864681 14.6657955479
9.5677589781 7.2228403507 15.1501433497
10.5079794133 7.2908440236 15.7370779314
10.1918159873 8.6005818939 5.7979226254
10.8205904935 8.6535146115 4.7943816681
10.7000744814 8.1024376668 5.3369482114
9.4633124101 8.5230733082 7.2278279429
9.8176410985 8.4634435395 16.5452061379
9.2789094351 9.4132606025 17.0999218187
10.4733813613 9.2829811088 17.3801737498
10.3012838743 10.0700142197 4.7837347333
11.2289035875 10.5637071755 3.6676472776
11.1734120407 9.3264745899 4.0545856488
9.4672612050 9.9218219232 6.0872008278
11.0072172898 10.1723410919 17.9341807280
10.3108968266 11.8867533502 4.3509879491
11.3540020750 12.2426979553 3.3855786966
9.4788169442 11.4844065382 5.4724498989
9.5323410491 11.9665613610 18.5532143466
10.9497922499 11.4838853080 18.4883016897
10.5028005623 13.5965538493 4.2178531038
11.6924221732 13.9636754404 3.3616139042
9.5557337416 13.2044324236 5.2526708570
10.2367721726 12.6524250801 18.9549971539
10.0946461555 14.0140394975 19.3695403572
10.8668914033 14.8654068979 4.1818946399
9.8427100022 15.2003085246 5.3690045762
11.1686247221 16.1172541975 4.6160949509
10.5299614353 15.6663224499 19.7881340477
10.3362342126 16.9314190570 5.6954052649
11.3153249885 17.2537238918 5.2325199062
9.2686082555 16.7221177042 6.5912944060
10.9131101152 17.4184484595 19.9831216793
10.9025706616 17.8694067347 5.9448008293
9.9269621555 18.0604636290 6.8574935721
11.2645220795 18.7305417519 6.6857526766
10.1931662057 18.9768297286 19.6386420452
10.2445122693 19.2578923175 7.8088467025
10.4378956382 20.1752432797 8.7728012344
10.6763547997 20.8098916725 9.5813096487
10.3306497361 20.0633126678 19.2667518169
10.4104467905 21.5066239092 11.0062239362
9.7827938375 22.2685717657 12.1715975941
10.7231637309 22.2133750840 12.2112226737
10.6078686081 20.9851830197 18.7503742041
10.1260684711 22.2454235301 17.8859635950
10.1472602913 22.7568607268 13.1424545755
10.1696096123 23.3236136322 14.4431578213
10.1909806518 23.7177567506 15.3787953192
9.5914593356 23.7340070441 16.9230415815
10.8414353480 23.1333209827 16.6944086748
10.1771839047 23.8001967311 16.4429553859
9.5913384237 24.0555406913 16.0465473928
8.8336323669 24.0820882378 17.0646787298
11.4334156932 5.2901289552 8.9932094074
12.2337598983 5.0343549330 8.2333567309
12.0683249985 4.6914216662 9.3501370562
12.3875796431 4.3083394882 10.2284700700
12.2749143664 4.3690836964 11.5334087783
12.5036678187 4.6576981306 13.3243116381
11.5260911799 5.4265585322 13.9495261960
12.3323234008 5.3425672624 14.5418821843
11.3693102674 7.6368847476 5.0828068864
12.1459288643 7.5251328987 4.3873834176
12.5966587788 6.6949383006 5.0818026202
12.6079661567 5.6349151573 6.6680763939
11.4388467416 6.1386389334 14.9250540367
12.5473896097 6.8633725212 16.0983790049
11.6426518451 8.3242265087 4.1721357732
12.2531319135 9.0847499456 3.3903629832
12.4339652438 7.9598629784 3.8068246962
11.4478830433 8.1317562344 16.8300280412
12.0307918522 9.1931845435 17.5748819533
12.5264458917 10.7446764832 2.7379406444
12.4002254761 10.4203550677 18.1190518847
12.5249949178 12.5553549720 2.6268200634
12.7742899606 11.7716713277 18.6300623213
13.0761981962 13.8826663706 2.6671436709
11.5488141862 12.8736587325 19.0866257379
11.9501467756 14.2838354523 19.6344462170
11.6295881145 15.2399334866 3.7974727887
12.6763053777 15.0496793340 3.3190225852
12.3404939598 15.7222061702 20.1899460234
12.2308270548 15.9582495372 3.9526233811
12.5266060797 17.0176276645 4.6646125903
12.2992470641 16.7636781869 20.4288713373
12.2057188907 17.6244704971 20.2874884105
13.2137726049 16.9368504814 20.7110820744
11.9953076008 18.0462852668 5.6537499478
12.7823415104 18.9605850947 6.4612768392
13.3028919664 18.0066212694 20.2995095181
11.6335452064 18.9437008202 19.6983635447
12.0379304373 19.8238484515 7.8756078814
11.4454863602 20.5014612388 8.8949887147
12.4779545069 20.5250218940 8.9547836615
11.3217230596 20.2129635051 19.1002123333
12.1767828206 19.8350612296 19.1181539468
11.8207016996 20.9211927577 18.4170774300
11.7198404558 20.9397222321 9.7732820266
12.3222376207 21.2481239713 10.8754404038
11.2797636599 22.4226292644 12.8979144195
11.9424217454 21.8306451815 12.1873989308
12.1035060932 22.2428204468 13.3496021993
11.8452796740 22.0168208256 17.3838583859
11.2991765237 22.7594092075 13.9157001135
10.4824385483 23.6838887994 16.0016623965
11.3252855445 23.0549249657 15.4105477983
11.9575661292 22.5438382848 16.4842137875
13.2338318664 4.0505335307 9.0607813907
13.8432594285 4.0449401536 7.8161718774
14.4815995715 3.4224779092 8.3590518902
14.6703737410 2.9756397851 10.1516960371
13.3023948051 3.7256722031 10.9098206606
14.2897790405 3.2926563584 11.9483209340
13.2694979624 3.8495053365 12.3950569843
14.0443486305 3.6492717344 13.0073312945
13.4750960333 3.9867672126 13.2520167613
14.2128754262 4.2232896805 13.9088935699
13.2360018702 4.6276861656 7.5619266148
13.8456733829 4.7572671614 6.5819933706
13.8467397936 4.3349313000 7.2132424872
13.4582870370 5.0863359416 14.7372308378
12.7656348976 5.7957859209 15.3007988634
13.9728726851 5.9655969662 15.6806711759
12.8821340404 7.2911544614 4.0868506730
13.4013975838 7.8553095271 3.4057657184
13.9312963133 6.7170991292 4.0919906298
14.0999283239 5.5352323863 5.3085281050
14.3494636048 7.1649533938 16.4654250624
13.7565938858 9.0418196809 2.5967276900
13.1508750627 8.1175135049 17.0418447105
13.5994732760 9.3785239196 17.6493873220
13.6787655601 10.2561078434 2.1370462078
14.5217267664 10.5205525389 1.7712859474
14.4408049357 9.5638192175 1.9942749123
14.0221761807 10.7405690524 18.1176589495
13.5019013608 11.4647742302 2.0834527416
14.6521955455 11.7661444939 1.7314538231
14.4316478399 12.1302294948 18.6226233058
13.6686295603 12.7905302093 2.1087910525
14.7783461498 12.9584664494 1.8763554140
13.2631291208 13.1163508628 19.1997148697
13.9085100967 14.4442418953 19.9427206127
14.0838364820 13.7312165336 2.2506157105
14.4260410541 14.7920371273 2.8607017705
13.8327573181 15.4874327617 20.5639323307
13.1442282132 16.1742701000 20.6386963784
14.3028475906 16.1358241166 21.0023134603
13.5294952986 16.0813528346 3.7770750933
14.3232332533 17.1671703011 4.5372139500
14.4819435482 16.9896075102 21.2320729022
13.5064187652 18.1219505856 5.4261134709
14.4123252040 19.0960095468 6.2940942009
12.8590999166 19.0864999288 19.4878705176
14.0514910628 18.7234470772 19.4709345248
13.1649914216 19.8401292449 18.7188381816
15.0852531134 17.6592928598 20.9199537937
13.7070115097 19.7005822144 7.2930103402
13.0892882703 20.8075005186 9.8982560153
14.2262288849 20.3992590023 8.8004638621
13.4779829035 20.9714663465 10.9163616363
14.4376077292 20.6762450661 10.5580384014
14.2789283916 20.8575248026 11.6300903893
13.2461912398 20.8846097638 17.5872664420
13.3138769617 21.2545611336 11.9407722115
12.4533619314 22.3011747882 14.5039301441
13.2702469226 21.6101123511 13.4559711169
12.6950395047 22.1834436971 15.8282614773
13.6212464638 21.5583269024 15.0874277261
12.7449822644 21.8638409141 16.8094032372
13.6386049548 21.3283456076 16.3969318948
15.6796175339 2.3383931562 10.6543844231
15.6799037630 2.3434751632 9.7293294112
16.4842348518 2.0913730896 10.2028096790
16.1972503917 2.2218311776 11.2497001187
14.5274742254 3.9542066267 7.0844488385
15.5803246221 3.6565826159 6.4881635667
15.2985900652 3.2196197484 7.5570130744
15.4613450692 2.7163689072 8.6728225038
15.5487139743 2.7338323903 11.7799184935
15.1052706919 3.4682709497 13.0599544062
16.0063051195 4.3878906251 14.1808126050
14.8706625335 4.4561208336 5.9670774657
15.5585383082 4.7296466488 5.0972170626
15.6609263574 4.1232674951 5.7045171421
14.9342881605 5.1302729813 15.0261951373
15.6150474383 6.3426778327 15.8280274970
15.2603939921 7.3746557336 2.9880421646
15.4049177703 5.8151305988 4.1319494589
15.8529677806 7.8037910728 16.5060453603
15.0244384466 8.6988940247 2.1967330989
15.4652538238 9.4803137778 1.7768080429
16.3246647224 8.3224656209 2.1194439830
14.7131123556 8.4469206267 17.1062914637
15.1156480151 9.7577178475 17.5523431260
15.7868957442 10.6322018035 1.5677402658
15.6992606704 11.2792041086 17.9426424239
16.1193540650 12.0239440312 1.6595022916
15.8155441797 12.7364712953 18.6101443259
15.5013472849 13.0953880527 35.5928787194
15.9828757647 12.4728977064 34.2300990720
15.9968159362 12.0610981425 35.2188543946
16.0118784894 11.8558226852 36.2971091229
15.4458172203 12.9044957370 37.3498426995
15.9957067195 11.6791924475 37.9852416037
15.4437952196 12.8087550140 39.0682228037
16.0178587380 11.6136519874 39.7405578249
15.4948065085 12.7695754563 40.8046628306
16.1322129307 11.5920285941 41.5188554035
15.6175785404 12.7280242304 42.5455308419
16.4221341304 11.4748837766 43.4324264636
15.7285339068 12.7021050775 44.1438873018
16.1882107634 11.9002310770 44.7285276083
15.9438946010 12.8039941399 48.3343323231
15.8866947877 12.4960958031 47.5366301415
16.2063566110 11.9630937313 48.2546242123
16.4858168705 11.9769618073 49.1568736666
16.3363800845 13.0122509612 49.2974514552
17.0617189639 12.1668248381 50.0910098437
15.6983604023 13.2193588396 1.9350456786
14.9168376673 13.8215733503 2.1778850081
15.9487143061 14.0279194448 2.3957737523
14.8480888771 13.3588012686 19.2310159918
15.4293108136 14.2385617068 19.8459571184
15.5674512963 14.8365445223 30.3015880490
16.0497388216 14.4060091916 29.0792817328
16.0362230157 13.8686153404 30.0071945921
16.0307888644 13.5221277773 31.0386974655
15.4764601871 14.4793226324 32.0739363739
15.9783731621 13.0480438280 32.6598098351
15.3978274702 14.1075274155 33.9996346348
15.1485220330 14.5405995079 35.5821842479
15.1274009688 14.2927352855 36.9492430036
15.1172788903 14.1699544171 38.5867726067
15.1463490712 14.1089972278 40.2674152901
15.2254887551 14.0525917348 41.9645402866
15.3428502751 13.9181818950 43.6349524705
15.8627546453 12.5179780164 45.3129138412
15.5327792636 13.6361256398 45.3881787616
15.8587006521 12.5975340031 46.4463242822
15.6800445307 13.4657132377 47.0905187743
15.9621455338 14.0990533447 48.1812561315
16.6765087100 14.0244910365 49.3572089250
16.8352714102 13.1371511972 49.9569368647
16.3897152073 15.0285206104 3.1467007102
15.5556040561 15.2015616687 20.8723010217
15.8738783073 16.2237579394 21.7364192731
15.5776563447 15.9302549985 28.6331825747
16.0519631278 15.5447800093 27.1413783714
16.0210463806 14.9728171022 28.1382352524
15.2905964495 16.1636488315 30.1578999292
15.2594148825 15.9311115534 31.5094367691
15.2191840157 15.7914571417 33.2473044452
15.1221180132 15.7223655275 35.0094779517
15.0473791016 15.7131725729 36.6421194076
15.0310082804 15.6125730209 38.2516896515
15.0483190459 15.5052871166 39.8561130490
15.1440894263 15.4589893998 41.4639715206
15.2858149453 15.3157559000 43.1587248374
15.3920899795 14.9150471334 44.6611707017
15.6817341019 15.0640168331 46.3990851259
16.0316767312 15.2555113784 47.6945903313
16.3865754488 14.9329149982 48.5153091962
15.3091092991 16.1110239268 3.7759200222
16.0180719586 17.1710193058 4.6142411092
15.7688733207 17.4038822340 20.7919419140
16.2959641964 17.0243926674 20.4509580475
15.7065903568 17.5733105898 20.0994850304
16.2213702024 17.2769271775 21.7083940912
16.2882648374 16.4928040820 22.3860444325
15.5778982593 16.9729017008 22.4831831181
16.1350368600 16.4309522426 23.6886861935
15.8507111338 17.2542498046 24.4620027273
16.1031062429 16.1665792989 25.4586153519
15.7221845106 17.0036332447 26.7128491458
15.5182535280 17.3844159730 28.2669950307
15.3806600236 17.1848068187 29.6262758903
15.2773717482 16.9951696029 30.9243557670
15.3943998773 17.4436436006 32.5562558668
15.2917787675 17.1341019161 34.4977264137
15.2300938593 17.0587988849 36.2378213618
15.1985493282 17.0009471741 37.9239921572
15.2065197187 16.8699467035 39.5533271947
15.2303479752 16.6048170579 40.9074113403
15.5853451187 16.8547851170 42.4590643009
15.7628613975 16.2754910388 44.5953174088
16.0345128681 16.3128731043 46.1235085978
16.0861486575 15.9376858084 47.0645828484
15.1854733056 18.1941858030 5.3543976910
16.2037405603 19.3268060616 6.2137835318
15.3268596638 18.2190210521 19.2397372427
14.6468082481 19.4587660796 18.0506215628
15.9333304667 17.5630482992 22.8631660213
16.2811520102 18.0635473278 24.3293247048
16.0180552963 18.1094057055 25.7682541547
16.5034296719 18.5898825252 25.2633595614
15.8801751225 18.2044235513 27.4366096484
15.7518652785 18.2314863694 29.0718158166
15.6589540555 18.1035051321 30.8519086860
15.7918310563 18.4437258179 32.1793732428
15.7743387477 18.4591788407 33.0633445884
15.7267793250 18.2635726588 34.1091996263
16.2073808971 18.8246736606 33.6114454384
15.7154988792 18.1983660750 35.7475925258
15.6602058227 18.1625068038 37.4855106306
15.6482635117 18.0689651175 39.1638206286
15.7078694069 17.8320434901 40.8935229209
16.1732072080 18.0210954031 42.1662130983
16.5809739154 17.5936324505 43.5707503042
16.6099108180 17.0210630966 45.4417811352
15.2581960734 20.0931163000 7.3476566050
15.5688838115 20.6121193872 8.3116707292
16.4312622817 20.8403767721 7.7760648579
15.7805600448 20.6828500746 9.0846476598
16.0035945674 20.5854558247 10.3061705844
14.5109376603 20.9204243111 12.8646137983
15.6718242706 20.5237385295 12.0385966308
14.6245455088 20.9211124882 14.3710249321
15.7865371025 20.3554697138 13.7855846436
14.6756770961 20.7215087989 15.7720408422
15.6366789300 20.2404787100 15.1003489148
14.4517105265 20.4408988989 16.9095905598
15.7661795989 19.6298832267 16.4439659968
16.6474447436 18.8374689223 26.6118547773
16.4472175663 18.9126613414 28.3479711710
16.3960411702 18.8842648812 29.9791769996
16.3755525099 18.8671030606 31.6030451355
16.5796817817 18.9362644018 34.9983665758
16.4527401845 18.9273448571 36.9464679974
16.3631567288 18.8811723266 38.6112895772
16.3781590041 18.7361879717 40.1257814295
16.4567742765 18.5567001196 41.3250060755
16.4097182515 20.9050430380 8.5848165999
16.5031989152 2.7646855306 7.4404487224
17.5797746230 2.9010752601 6.4170598410
17.7776663941 2.4610517142 7.3765733641
17.4488232180 2.2162392536 8.9059501701
16.2923912240 2.2738638591 8.9666320752
17.3487341000 2.1616387055 10.4504645223
16.8897824949 2.2080327593 11.3228610695
16.4687771700 2.4730964783 11.9789463534
17.1154451399 2.6554136733 12.1567604665
16.6626711427 3.7301461307 5.6289514631
17.6583878532 4.0794395801 4.7289440792
18.1299837976 3.3960945896 5.4833653764
16.5394919708 3.2425417338 12.8959498265
17.4748794755 4.3511674924 13.6901268466
16.6960075810 4.8045413303 4.4009682322
16.8925647737 5.9207981825 3.4585486450
18.0133734650 4.8734798918 3.9614724176
16.1838316420 5.4422796258 15.1414080616
17.3349837652 5.5963735579 14.6866272552
17.3763605175 7.1052589616 2.6367430324
16.7856140967 6.2271358914 15.4513641337
16.9110825218 7.3086107700 15.8805680812
16.8943424255 9.4279405713 1.6748389254
17.9491867082 8.2778210887 2.0296020844
15.9395564558 8.9717216184 16.9986950551
17.2672279144 9.0454143412 16.3283618931
17.3092956949 10.6619813414 1.5356869282
16.4760502330 10.1590031987 17.2110088775
17.5904741513 10.8677303207 16.7641377639
16.8094860127 11.1883333064 34.9912288590
17.4090616592 10.9724341448 33.6500680989
18.0902141038 10.3172649693 34.4494776158
18.0115607187 9.9244920609 36.1856486912
16.8074877400 10.7625272853 36.9937266864
17.6924944613 9.8163852043 37.9973021407
16.7555325430 10.6342078103 38.7921970406
17.6604409365 9.7861810539 39.7247193292
16.8325722113 10.6184978718 40.5742498255
17.9493294702 9.8195724396 41.5970902101
16.9735909575 10.6710563316 42.2663237230
17.8495301199 10.1643932391 43.2837059785
17.1010969334 10.6854097742 43.2982805580
17.3907405327 10.6148972314 44.2422717033
17.1218276888 10.8745367876 47.0883405869
17.1658457584 10.8568355336 45.9666309283
17.9508195517 10.2341373864 46.4767855365
18.1506847656 9.9847650860 48.0990861383
17.0085017754 11.0597067715 48.5595392799
18.2247990486 10.1802690523 49.7176103815
17.2363456467 11.2341988937 49.7372727188
17.9930496079 11.1845759892 50.5072438378
17.8912541248 11.7573051462 1.7489759570
16.8983020253 11.3343783247 17.4394544948
16.8192607018 12.4369151499 17.9392723685
16.8711762029 13.0819127745 29.8256094715
17.7057639001 13.0555280479 28.6772637537
18.1073136300 12.3386002332 29.6063147551
18.0255264472 11.7025989092 30.9585477609
16.7903870064 12.3301907383 31.6627517121
17.5648290370 11.2933054171 32.4641811713
16.6889567932 11.8120044895 33.2433207094
16.8326661956 11.1503333826 44.9360911770
16.4258918517 11.6571000904 45.9647757136
16.3315203062 11.7442985302 47.3377284677
17.7915125280 11.9813528773 50.5912038838
17.0014253522 12.9809220401 2.0469985091
17.5309262012 13.9553373930 2.7063089689
15.9641049266 13.7126429307 19.2645293737
16.7730159447 13.7001609698 18.7677063046
16.8038831678 14.1738452811 27.8724063648
17.4182473231 14.2428982664 26.6435217110
18.1828031725 13.5145194561 27.4720469799
17.1245513741 13.5689164496 50.0021919837
17.6525986204 12.8707545858 50.3591057415
17.9707819620 14.8690610909 3.4706495575
16.5899673807 14.6756479926 20.0384446432
17.3142747827 15.3054128488 21.5714377834
17.0054899499 15.4584118879 22.3389336477
16.7064243118 15.9988463267 22.7163666860
17.6970291606 15.0698370849 23.9826389250
16.7545806898 15.5570060151 24.5822297787
17.4900941271 14.6751511409 25.4712863874
16.7020620266 15.0440705135 26.1890036362
16.6245627976 15.8982997681 47.9325384628
17.1774804154 15.1097019408 48.9294524811
17.7464485661 14.0805638998 49.8054255587
17.3115419392 16.0617186531 4.1392893762
17.2457824783 17.1845361274 4.8722534799
16.9763549436 17.2789216501 18.0972492568
17.6226166349 16.5829047355 17.6387771280
17.5245186371 17.4681671582 17.0266441293
16.2693060741 17.4913008432 19.1017727932
17.0400349363 16.4529931242 19.0150120398
16.7870015221 16.2175196486 20.9602628823
16.4335732520 16.6534250767 21.5523067243
17.2446622101 16.5960503932 22.1395043992
16.5765300090 16.6069612703 46.8394699506
17.1248006518 16.6036636651 47.5340032257
17.5174243136 16.0760455543 48.2915964154
16.7021018184 18.0849102557 5.3568801583
17.7011753990 18.7949616221 5.9572885554
16.2763014755 18.3218594003 17.7625045708
17.2267964120 18.5474601554 16.2940038737
17.0935159423 17.7678077478 23.3851956154
16.8652886516 18.4526928202 24.5061736382
17.5575223455 18.4119736097 24.5334654853
16.1902750247 18.8427987008 32.7205364548
17.7421943560 18.0746883573 43.0630986537
16.9906780010 18.4324812037 42.2094033862
17.7590333780 17.4378457441 44.7066996632
17.4551163083 17.0009009183 46.5161429984
17.6926634135 16.6712653083 47.6091674039
16.5757259754 20.4434939654 6.9766793963
17.7268937660 20.3453355361 6.5122400156
17.4450560794 20.7076725271 10.4064180871
16.8819330556 20.8818917220 9.4000987065
17.6837779272 20.3458035431 11.8026548126
16.9883748890 20.0426421503 13.2486736758
17.1297862434 19.4537967030 14.8779214526
17.1922513356 18.7928492620 25.4034543466
17.7206670229 19.0083125877 26.5107244893
17.4118095996 19.1702397503 27.8724951183
17.1573745644 19.1960515807 29.2171932564
17.4719658749 19.1175668910 30.7761307424
17.1634457509 19.0481996668 33.0399219625
17.8194559343 19.1355795196 34.8940469562
17.5162602646 19.2121021881 36.4778367287
17.3632062737 19.1960151365 38.1430826067
17.1394569316 19.1032694326 39.4928886307
17.3881780599 18.8486217460 40.8701367009
17.5032671745 21.2814100242 7.1864850107
18.3006547298 21.5619209272 6.5504372208
17.5922293020 21.3159676590 8.2819220053
17.9336079862 21.7338159587 7.4790085058
18.2608717658 21.9151044122 6.9578284823
18.8157166903 2.8990660687 6.5756218983
18.4936414617 2.4198732546 7.9114188476
18.4639614370 2.4131066289 8.9502331711
19.0385613631 2.7340664877 8.4583555028
18.2055301420 2.5440552100 10.2044310141
17.6733608268 2.5710339461 11.4464135067
18.7903012481 4.0633210500 4.6536763208
19.2071708143 3.4934426947 5.4445254105
18.9992124466 2.9827312993 9.5041667588
18.8607166799 3.2275361162 10.6049605520
19.0219290114 3.8699970657 11.3751459459
18.4408483084 3.2135200422 11.4897084675
17.8242586166 3.4324859939 12.5771198132
18.5256049246 5.9448934469 3.1984904860
19.3862245584 4.9597041737 3.8959600102
18.7277866372 4.1398980747 12.3372660694
18.3471471534 4.4435684381 13.2043159892
18.3643218030 5.4212837592 13.8243799603
19.1526661951 7.2530256194 2.5278304604
17.5700526287 6.7770111600 15.2760234224
18.4433582931 6.9398699873 14.5056597895
18.5386078612 9.5278371996 1.7036629708
19.2036861809 8.4609417037 2.0327032913
17.9748210945 7.9377456110 15.4599825781
18.7369394122 8.3896643510 14.8537939400
18.7388505166 9.1873287810 37.5391973710
19.1092816150 9.2305282541 36.4378632593
19.7171687580 8.8599898297 37.3160275739
19.5117355018 8.7899913961 38.6188184606
18.5521495896 9.1530636013 39.0351940113
19.3715291396 8.8166782792 40.0071019302
18.5879566469 9.1858233741 40.5255665787
19.3284496040 8.9263424887 41.0826620611
18.9389177193 9.2344232570 41.6933425786
19.7775728847 9.1011413913 41.9864594031
18.8910990899 9.3578738138 49.1636121275
19.1364631007 9.2748818634 48.2861647617
19.6792038627 8.9742320510 48.9936791274
19.3983992842 9.1415042415 49.6912452134
18.9410769659 9.4442971527 49.8221732848
19.3798841102 9.7057626325 50.3155510992
18.5994918485 10.7130284209 1.6247389842
18.3847450792 9.1089848571 15.5165758704
18.4142059172 10.3842502800 15.8302771395
18.6295100094 10.7713498332 32.2200352436
19.1774659905 11.0092847033 31.2102693245
19.7410307124 10.4178107268 32.1466134692
19.2179152806 10.0763282035 33.6095102672
18.1508543582 10.6128559654 33.2413705551
19.1224796754 9.5948273986 35.2667246288
19.1890805876 9.5740338692 43.0897323796
18.6954309255 9.9256329582 45.1306770385
17.6036992316 10.5196675238 45.3597033616
19.0042418239 9.5735791568 47.0967744081
18.7022458250 10.3822378208 50.6210686289
18.6563304534 10.9999898427 50.8965955488
19.2813752174 11.4021702239 1.9081483224
17.5750672812 12.0937945208 17.2380314986
18.4367940031 12.2490054045 16.3017807276
18.7930461020 12.6324643094 28.7056002204
19.3069971456 11.7147777412 30.0101891302
19.2058234107 10.8837210209 50.9776717532
18.7497050018 11.7609461902 50.7489322530
18.9251921990 12.6631074331 2.4257898494
18.9797414812 13.8957103371 3.2500210534
17.7069374664 13.6164566276 17.6581955582
18.6130575405 14.2892506069 16.3785316825
18.4136697032 14.3392123548 25.2588485952
18.7187643777 14.6123736818 24.4176503379
19.1579155572 14.2589503255 25.2160576140
19.2206205372 13.8482396879 26.4475930832
18.1310309971 14.0553530527 26.2450572616
19.3362476844 13.1502556494 27.7826744255
18.7506267016 13.2306669349 50.2707791441
19.2102920566 14.6945224337 4.0596715603
18.3535915977 15.3569597821 4.0082849675
18.8263625217 15.7145365955 4.6822463851
17.8548771478 15.3959622911 17.7176799573
18.4569474858 16.2446383115 16.3748067580
17.2300520000 15.1023723617 19.2728191782
17.3113855678 15.6259729658 20.9756622047
18.2364815628 15.8624142105 22.2286943796
18.7201380468 15.2274453837 23.3513770518
18.6601755938 14.1523746074 49.8190746227
18.4590254187 15.1261104768 48.9844258687
17.7681086015 17.7334873565 5.4063451476
18.2833772378 16.8069753566 5.1131723939
18.7299463215 17.8183119024 5.9577460357
18.2934012200 17.6863637831 15.9172376009
18.8062394712 16.5423186528 22.8342259263
18.4356287135 16.9548410736 45.9215280839
19.1051786793 16.6627713948 45.6856656722
18.9608245817 16.9863580196 44.8345515759
18.2996247374 16.6493836428 47.1439737343
19.1081852464 16.3632673951 46.5524715203
18.1869767087 16.2228201063 48.0710460523
18.9668718831 15.8768851908 47.8126122506
18.9819477721 19.3832531214 6.5880613765
18.0630147564 18.4978027058 15.4802028023
18.6786729099 18.0111538206 15.2824469161
18.6509492617 18.5488369672 14.6995760423
18.2647532542 17.2241304145 23.1841863659
18.1695223432 18.5941679424 25.4647329836
18.5420480039 17.8486145330 24.3482166256
18.5991482967 18.7611974908 26.4855951334
19.3636348079 18.0178008280 25.9494218428
19.1733141418 18.5815831631 27.1661922335
18.5116720024 18.8513118188 31.9483683470
19.4980802016 18.4476953705 30.8978460486
18.6174173358 18.9479150799 30.4849448324
18.5654196626 18.8545225902 33.6992032391
19.7918742549 18.1603421263 32.7910867203
18.7477170257 18.9474405703 34.9924169463
19.5115610988 18.4790948514 34.5328620473
19.3363259567 18.7277454780 35.6899685011
17.8727855293 18.5279938371 41.9581986924
18.5740882112 18.1292812961 42.3593720505
18.6301653040 18.4675501860 41.1914764549
18.7687058709 17.5681202546 43.4760651808
18.9247142361 21.1423342778 6.5633171945
18.4613060292 20.7458927995 10.7402992056
18.1195803024 21.0250675390 9.6036682126
18.9346969093 20.5357942172 11.4844773080
19.3005811718 20.7651343206 10.8099023956
19.2634875583 20.0753443333 12.2691945475
18.5366950143 19.4926074869 13.4652248351
18.4310276152 19.0115232855 27.5671103101
18.2491553094 19.1033261747 29.1339427294
18.5749546891 19.0811740372 36.1199315537
18.5055538267 19.0781430545 37.6474131908
18.3507484706 18.9203743610 39.4861922071
18.7727608147 21.8573264222 6.2441161592
18.8977725478 22.0415556859 6.2137037354
18.9504086716 21.8494045547 6.2379355509
19.0565906660 21.3295923169 8.6199688909
18.4660563328 21.8394780838 7.5660711909
19.7818464857 20.4928661782 11.3906006289
18.6858757144 22.0392877995 6.4473873087
18.7383591920 22.0566895763 6.8991701342
19.2499164540 2.8861859212 7.6380962100
20.1110343244 4.2901912158 4.9617293982
19.9036285443 3.5204925664 6.0062184754
19.8660922797 3.4088124045 7.0194007417
20.3378155228 3.7440197661 6.5038533152
19.7741115393 3.7400783926 8.6024639954
19.3976425492 3.9726812212 10.3659837097
19.9998174996 6.0631322769 3.1844210114
20.3716885117 5.1360816691 3.9099883481
20.6188145349 4.4229620982 7.2496213479
20.4790884709 4.9809048041 8.6873669093
20.6861545568 6.2054480167 9.2907327726
20.0257681575 5.3742329114 10.2250677900
19.3548522881 5.0435474236 11.8434800615
18.8825341281 5.0514731135 12.9841577541
20.1652698101 7.0724564653 2.7015684200
20.3344317907 7.2410338720 10.7130934580
20.8659262836 7.7366791437 9.5995683071
19.7565052847 6.7717211497 12.0170045110
19.1181371919 6.2406140839 13.2162242771
19.7157726002 9.1974008080 1.9134863745
20.2308799921 8.3052259363 2.3233054700
20.5028397587 8.9374798207 10.9094987575
20.9862534254 9.3537757397 9.7930792508
19.9946909297 8.5827707563 12.2176594827
19.3338317154 8.1186232399 13.6615024054
19.9418068008 9.0706068558 36.2203922808
20.4126035035 8.8134414101 37.1462143249
20.3732595023 8.7152920436 38.2712497632
20.2366661779 8.7323922916 39.7255625881
20.0245140627 8.8398090257 41.0011786593
20.3832681208 9.0379923961 41.8026910373
19.8867074714 9.0786521957 47.9329913295
20.3913135829 8.8625635536 48.8672620770
20.0456897888 9.0526282205 49.7402725022
20.2238483159 9.5668998793 50.3096764906
19.7069647228 10.2420502689 1.8268530517
20.3035264458 9.5672075959 2.0207984527
20.6426203159 10.4872840570 10.9664583246
21.0244213855 10.6882279195 10.0344377594
20.1800566717 10.3302959814 12.2571842101
19.6559669459 9.9923794089 13.6282171054
19.0485562456 9.5996116743 14.7982230862
20.1334761946 10.8782930092 31.0099055727
20.6224831326 10.3427413227 31.9179937999
20.3560874533 9.9100394017 33.2586700665
20.2451611993 9.4199828899 35.0350275235
20.6561985365 9.4398660386 42.8456429894
20.3397770887 9.6502949379 44.7307302439
19.9741225139 9.4069567290 46.4852090419
19.3409880094 10.3185004572 50.8297063836
19.8713459005 10.6905392511 50.6976280776
20.2697066330 11.0653702230 2.1872958507
19.7920571574 11.8433572716 2.2268129766
20.2471908318 12.1283625893 2.6667975921
20.8156963453 11.6039517721 10.8143432060
20.8470356292 12.9341234443 11.1155154694
20.3992059169 12.1061952754 12.1255997692
19.8260433792 11.7664704679 13.6450398295
19.1984724411 11.2341493283 14.9299292266
20.0734032713 12.5644237357 28.7857211322
20.6013467984 11.4759073486 30.0643826056
19.9561449418 12.4133334017 50.3342779400
19.7468365208 13.9404289315 3.7679686329
20.1931777777 13.1366743275 3.4765520328
20.2439725574 14.0534574784 4.4853159863
20.5106372279 13.9784708273 12.3780650691
20.9255782573 14.5108833305 11.3635834257
19.9689349506 13.5945307105 13.6610263177
19.3109564226 13.0675167023 15.0370731154
19.3706740959 14.6259049800 24.6206294214
19.8239015409 14.3810636942 25.6106845676
20.2031014119 14.1859909682 26.6089278402
20.1807048004 13.6040870804 27.5362275781
19.5676410596 13.8600828730 49.6861061048
20.3618963666 13.1978053752 49.8454798311
20.5057007595 13.7820674389 49.1379431566
19.5685626094 16.3902053178 5.9365357218
19.9556851495 15.0183068302 5.2197541639
20.4155948788 16.4661852221 7.2481655106
20.5579388032 15.2621531336 6.5766884455
20.8904354418 15.5824766016 7.7021482780
20.6887876985 15.2399458672 12.3694467899
20.9768611815 15.8523411475 11.7453825335
20.1856734575 15.4651246958 13.5467318964
19.3885457290 14.9969024861 15.0063050769
19.3828571758 15.9368550291 23.0903430163
19.8628748321 15.6138976097 23.8207375538
20.0182814853 15.1421715519 24.8679851519
20.4350710398 14.7927595824 26.1374551799
19.8799736509 16.1063939108 45.4626314557
20.7593886010 15.4192770945 45.0677142461
20.4695119923 16.0250787985 44.2465178065
19.8802643195 15.4776143731 47.1431596670
20.6934268725 15.0217321032 46.3610697118
19.7297434755 14.8189647054 48.5298793899
20.6258510045 14.4677326411 47.8723140073
19.8450163579 17.9005188401 7.0093652164
20.8276789271 16.4301968794 8.1780290429
20.5886904299 17.4354949924 8.0976495573
20.9550006929 17.0001678818 8.8703435648
20.7248258157 16.3918049813 12.7242244235
20.3215981056 16.8046985016 13.6321765602
20.2224251020 17.6145218814 13.7470186247
19.3960799874 17.1221481244 14.7444743032
19.6813626378 16.4407820692 23.3704542390
19.2954909126 17.0330842978 23.6827054286
19.7006957807 17.2927175880 24.7929999185
20.0501178132 16.5869955565 24.1628844862
20.0106550695 17.3309116022 25.6100761941
20.3037512336 16.7103374418 25.3032388861
20.2643889991 17.1822439255 26.4448466835
20.5618915333 17.5511977286 33.3241798803
20.9220403745 17.2205288794 33.2796429986
20.7618580091 17.3799322627 32.5963450138
20.8764707116 17.3016527579 33.8072091447
19.7040485595 17.4965503017 42.1397827344
20.6163679613 16.7941996648 42.0644567248
20.5930527326 17.2113819256 41.0304076810
19.7667272472 16.7937061102 43.8402194814
20.5593654644 16.4279977830 43.0360967436
19.9402544394 19.2226226776 7.3486563843
20.4523028548 18.6444402030 8.0886362600
20.8920050941 18.1216468530 9.0996688271
19.6506749388 18.4247637912 13.8557236682
20.5464620529 18.2418547850 12.9990292339
19.9750643405 19.2559147406 12.8925129062
19.2545516331 18.6552548876 28.3943716449
19.9018316227 17.9662869143 27.5357374202
19.2119156425 18.7143494858 29.6528613271
20.1062403842 17.9679751086 29.3360044161
20.4754299098 17.6641094602 31.1652911706
20.3577076815 17.8085762067 34.1846885384
19.5021993321 18.6711949606 36.9362489131
20.2499330582 18.0669204077 35.7878920806
19.5729486205 18.5292087234 38.5867493213
20.4672937990 17.9812162185 37.6471970451
19.6392644521 18.1517618697 40.3030432698
20.5472408637 17.7317605589 39.3867354343
19.7471992868 20.2785372817 7.2665048928
20.3759087637 19.7440907664 8.1091612210
20.7707929677 19.1992642707 8.9917519299
19.0540825093 20.9790688636 10.0100804499
20.3287372656 19.9101344988 11.9786215501
19.0316913769 21.8717656870 6.6095449514
19.5356314164 21.2314090133 7.5011334230
19.0462306697 21.8033320791 7.3634886382
19.9975384488 20.9055095583 8.6657074209
19.9774576894 20.7374830704 10.0892211104
20.4666565903 20.3179887311 11.1566042384
20.5121747338 4.0671973628 6.0725651010
20.7655424314 5.7316850148 3.5278133079
20.8210794567 5.0944271773 4.3349031759
20.9479394487 4.8922421059 6.0798297149
21.2378141055 5.7531317584 7.3637579247
21.5079512569 6.2673700318 7.0287097616
20.9255304504 5.5413459654 8.1675502358
20.6719124902 6.8549565304 2.9274703079
20.9721716752 5.8381563427 3.5483383477
21.5590093989 7.1228695336 7.6987885958
21.7703153788 7.5656299549 7.4356796255
21.1754472569 6.7078490323 8.4131970987
20.7182651089 8.3391049571 2.4869096995
21.7146174850 8.5156146833 7.9371288948
21.8528562836 8.5313600123 7.6610460062
21.3488293571 8.2373025802 8.6460836513
20.6193241558 8.9961157707 36.4559445681
20.8919290249 8.8462334795 37.6499607941
20.9248361785 8.8269451034 39.2594100087
20.7897420757 9.0121406605 41.0674754092
20.5050000467 9.0378172657 47.6770887200
20.6987162816 8.8498467841 48.8154902498
20.5665053978 9.1081885083 49.7234371420
20.5216591259 10.0849818976 50.4102866933
20.4025637399 10.2043598080 2.0236886085
20.6367588054 9.8639185822 2.2722450581
21.7619478603 9.6074642392 8.0726647674
21.6488045882 11.2780072493 8.3058415213
21.4502089828 10.2360901508 8.8676383014
20.8415407433 10.7763222451 31.0074263418
21.0187687678 10.4788251177 31.5566883545
20.8528510346 10.0163458548 32.7443851431
20.7549834953 9.5698061694 34.3307878148
20.9111699414 9.1173887467 36.3689156998
21.1694567219 8.9328685153 38.4091634598
21.2090781725 9.0460532969 40.2684075689
21.2819088777 9.4635993828 42.1637610818
21.4257212496 9.8009620140 43.2553360213
21.5942344245 9.8454820425 43.1140033337
21.2555884171 9.8616786429 44.0656009488
21.1060050067 9.8092240450 44.8976080485
20.6561408246 9.4683357065 46.0296354950
20.6686279362 11.5662942048 50.3464496187
20.6801204219 12.3696557265 3.1144071077
20.7243680428 11.6160450416 2.7525631525
20.8016735051 12.6309718722 3.5367413680
21.4497880005 12.5852233152 8.7926539400
21.5205345881 12.8681594752 7.7692522215
21.1667954251 11.9093913287 9.9285967145
20.7858612089 12.2475731728 29.2482312340
21.0034017458 11.5378554839 29.9596054279
21.0523181293 11.0174392903 30.6281765246
21.6033369378 9.9889978396 43.7689463054
21.4919352015 9.9956802117 44.3447898429
20.9056850633 12.7810611854 49.7159388938
21.1740670372 12.3523031034 49.8456443670
21.3554393173 13.0009404445 49.0925132831
20.8093659690 14.2222531279 5.8375637225
20.8271810763 13.4897271985 4.7562098483
21.2233788184 14.2202256372 7.6331311393
21.2484699515 13.6346326372 6.4824910585
21.3179974412 14.3026768022 9.1615384534
21.1991125747 13.6012379807 10.1222224137
20.8145169293 14.6910173647 27.3364101260
20.7778318779 13.5953166347 28.2404402056
21.5861495335 14.9683869385 43.8165346069
21.7765092498 14.7072913112 43.8260890503
21.6899387010 15.2272782761 42.9120723112
21.3310579915 14.7040523349 45.3554979057
21.6829003468 14.4636994372 44.8266881416
21.2539936572 14.1800773088 47.1015798886
21.5604586864 14.1223246692 46.3166230406
21.1597342930 13.5844470239 48.5490943449
21.4777971269 13.6306389045 47.8385642324
21.1383269905 15.7368595656 8.8619159514
21.1802679122 15.5339106362 10.4337304008
20.0431983618 16.0793975907 23.6987196465
20.3234913002 15.9667644672 24.6288501770
20.6472669789 15.9065711700 26.3403121041
21.1342410970 15.9620513886 28.1556010751
21.2142551195 15.0873970943 28.2607048089
21.3299109240 16.8754050961 33.4449988883
21.6360059399 16.5525610592 33.3137739980
21.5286846388 16.6781281423 32.2705998867
21.5476696814 16.7875361613 35.0809715830
21.6875671332 16.5402524669 34.2570567112
21.7523567017 16.5708096394 35.1790981869
21.2763992594 16.0585729785 42.1800999800
21.6282222608 15.7664236316 41.9668806330
21.5371273490 16.3383778214 40.9081869935
21.0832131204 15.5200609871 43.9307737831
21.1381679617 17.1874129974 9.9469004298
21.1046682099 17.5858042145 11.7358636911
20.6856839886 17.3462585378 13.0453309328
20.6562292610 17.0100230061 27.9339541037
21.3874969536 16.1608329466 29.2344501952
21.0545549507 16.9284074579 29.7467439934
21.2056589271 16.9925894621 31.6483131456
21.4422054556 16.6623419668 30.7231001230
20.9994685810 17.3054586665 34.8211522078
21.6320228767 16.8255419419 36.1444071499
21.1951066634 17.2952223669 36.5460625606
21.1951858316 17.3038921272 38.4860936047
21.5131968066 17.0325594874 37.6566938395
21.2262452260 16.9059181092 40.2169483852
21.5014207157 16.8671490777 39.3296889088
21.0986963743 18.9493389576 10.4632218511
21.3395951690 18.5972350598 11.4352294611
21.2801271376 18.4401751494 11.8459787934
20.9166887125 18.9728990378 12.1338046478
20.1791002288 20.5526680510 8.0788579532
20.5784123858 20.1333340508 9.2551089595
20.7443681515 20.0934852186 10.5175493506
21.2349584683 19.1457487437 11.4301761081
20.9396361078 19.6852908517 11.3683523808
3 2 1 0
3 0 3 2
3 0 1 4
3 4 1 5
3 3 0 6
3 6 0 4
3 4 5 7
3 7 5 8
3 6 4 9
3 4 10 9
3 4 7 10
3 10 11 9
3 8 12 7
3 7 12 10
3 10 12 13
3 10 13 11
3 15 14 2
3 2 14 1
3 2 3 15
3 15 3 16
3 14 5 1
3 17 5 14
3 6 19 18
3 16 6 18
3 3 6 16
3 19 20 18
3 17 8 5
3 21 8 17
3 9 19 6
3 9 11 19
3 11 20 19
3 11 22 20
3 12 8 23
3 8 24 23
3 8 21 24
3 25 13 12
3 25 12 23
3 25 26 13
3 26 11 13
3 26 22 11
3 24 27 23
3 23 27 25
3 25 27 28
3 25 28 26
3 31 30 29
3 29 32 31
3 29 30 33
3 33 30 34
3 32 29 35
3 29 36 35
3 29 33 36
3 36 37 35
3 33 34 38
3 38 34 39
3 38 14 15
3 36 38 15
3 33 38 36
3 41 40 16
3 16 40 15
3 40 37 15
3 37 36 15
3 41 42 40
3 38 39 43
3 43 39 44
3 43 17 14
3 43 14 38
3 18 41 16
3 46 45 20
3 20 45 18
3 45 42 18
3 42 41 18
3 46 47 45
3 43 44 48
3 48 44 49
3 48 21 17
3 48 17 43
3 22 50 46
3 22 46 20
3 47 46 51
3 51 46 50
3 48 49 52
3 52 49 53
3 52 24 21
3 52 21 48
3 26 54 50
3 26 50 22
3 51 50 55
3 55 50 54
3 52 53 56
3 56 53 57
3 58 27 24
3 52 58 24
3 56 58 52
3 59 28 27
3 59 27 58
3 54 26 28
3 59 54 28
3 60 54 59
3 55 54 61
3 61 54 60
3 56 57 62
3 62 57 63
3 56 64 58
3 56 62 64
3 58 65 59
3 58 64 65
3 59 66 60
3 59 65 66
3 61 60 67
3 67 60 66
3 63 68 62
3 70 69 68
3 69 62 68
3 69 64 62
3 64 71 65
3 64 69 71
3 65 72 66
3 65 71 72
3 67 66 73
3 73 66 72
3 70 74 69
3 69 74 71
3 71 74 75
3 71 75 72
3 72 75 76
3 72 76 73
3 78 77 31
3 31 77 30
3 80 79 32
3 79 31 32
3 79 78 31
3 82 81 80
3 80 81 79
3 82 83 81
3 86 85 84
3 77 86 84
3 34 77 84
3 30 77 34
3 35 80 32
3 80 35 37
3 87 80 37
3 82 80 87
3 83 82 88
3 88 82 87
3 84 85 89
3 89 85 90
3 89 39 34
3 89 34 84
3 40 87 37
3 92 91 42
3 42 91 40
3 91 88 40
3 88 87 40
3 92 93 91
3 89 90 94
3 94 90 95
3 94 44 39
3 94 39 89
3 45 92 42
3 45 47 92
3 47 93 92
3 47 96 93
3 99 98 97
3 99 97 95
3 97 94 95
3 97 100 94
3 100 49 44
3 100 44 94
3 51 102 101
3 96 51 101
3 47 51 96
3 102 103 101
3 98 104 97
3 106 105 104
3 105 97 104
3 105 100 97
3 105 53 49
3 105 49 100
3 55 107 102
3 55 102 51
3 103 102 108
3 108 102 107
3 105 106 109
3 109 106 110
3 109 57 53
3 109 53 105
3 61 111 107
3 61 107 55
3 108 107 112
3 112 107 111
3 110 113 109
3 57 109 113
3 114 57 113
3 63 57 114
3 116 115 111
3 61 116 111
3 67 116 61
3 111 115 112
3 114 117 63
3 63 117 68
3 70 68 117
3 70 117 118
3 73 116 67
3 73 119 116
3 118 120 70
3 70 120 74
3 120 122 121
3 75 120 121
3 74 120 75
3 75 121 123
3 124 75 123
3 76 75 124
3 73 76 119
3 119 76 124
3 122 125 121
3 121 125 123
3 128 127 126
3 130 129 126
3 126 129 128
3 132 131 130
3 130 131 129
3 132 133 131
3 136 135 134
3 136 134 127
3 134 126 127
3 134 137 126
3 137 77 78
3 130 137 78
3 126 137 130
3 130 78 79
3 130 79 132
3 138 133 132
3 79 138 132
3 81 138 79
3 81 83 138
3 138 83 139
3 142 141 140
3 142 140 135
3 140 134 135
3 140 143 134
3 143 85 86
3 137 143 86
3 134 143 137
3 137 86 77
3 88 145 144
3 139 88 144
3 83 88 139
3 145 146 144
3 140 141 147
3 147 141 148
3 140 149 143
3 140 147 149
3 149 90 85
3 149 85 143
3 91 145 88
3 151 150 93
3 93 150 91
3 150 146 91
3 146 145 91
3 151 152 150
3 147 148 153
3 153 148 154
3 147 155 149
3 147 153 155
3 155 95 90
3 155 90 149
3 96 156 151
3 96 151 93
3 152 151 157
3 157 151 156
3 153 154 158
3 158 154 159
3 158 98 99
3 155 158 99
3 153 158 155
3 155 99 95
3 101 156 96
3 101 103 156
3 103 157 156
3 103 160 157
3 159 161 158
3 161 163 162
3 161 162 104
3 158 161 104
3 98 158 104
3 162 106 104
3 108 160 103
3 108 164 160
3 162 163 165
3 165 163 166
3 165 110 106
3 165 106 162
3 112 164 108
3 112 167 164
3 166 168 165
3 168 170 169
3 168 169 113
3 165 168 113
3 110 165 113
3 169 114 113
3 116 171 115
3 171 172 115
3 172 112 115
3 172 167 112
3 170 173 169
3 169 173 114
3 173 117 114
3 173 174 117
3 118 117 174
3 118 174 175
3 177 176 171
3 116 177 171
3 119 177 116
3 171 176 172
3 175 178 118
3 118 178 120
3 122 120 178
3 122 178 179
3 123 180 124
3 180 181 124
3 181 119 124
3 181 177 119
3 179 182 122
3 122 182 125
3 125 182 123
3 182 183 123
3 183 180 123
3 183 182 184
3 181 180 185
3 185 180 183
3 188 187 186
3 190 189 186
3 186 189 188
3 190 191 189
3 194 193 192
3 196 195 192
3 192 195 194
3 195 196 187
3 187 196 186
3 196 127 186
3 127 128 186
3 186 128 129
3 186 129 190
3 197 191 190
3 129 197 190
3 131 197 129
3 199 198 133
3 198 131 133
3 198 197 131
3 199 200 198
3 203 202 201
3 203 201 193
3 201 192 193
3 201 204 192
3 204 135 136
3 196 204 136
3 192 204 196
3 196 136 127
3 138 199 133
3 206 205 139
3 139 205 138
3 205 200 138
3 200 199 138
3 206 207 205
3 210 209 208
3 210 208 202
3 208 201 202
3 208 211 201
3 211 141 142
3 204 211 142
3 201 211 204
3 204 142 135
3 144 206 139
3 144 146 206
3 146 207 206
3 146 212 207
3 208 209 213
3 213 209 214
3 208 215 211
3 208 213 215
3 215 148 141
3 215 141 211
3 146 150 216
3 217 146 216
3 212 146 217
3 152 216 150
3 213 214 218
3 218 214 219
3 213 220 215
3 213 218 220
3 220 154 148
3 220 148 215
3 221 217 216
3 216 152 221
3 152 222 221
3 152 157 222
3 219 223 218
3 225 224 223
3 224 218 223
3 224 220 218
3 224 159 154
3 224 154 220
3 160 222 157
3 160 226 222
3 224 225 227
3 227 225 228
3 229 161 159
3 224 229 159
3 227 229 224
3 229 163 161
3 164 226 160
3 164 230 226
3 228 231 227
3 233 232 231
3 232 227 231
3 232 229 227
3 232 166 163
3 232 163 229
3 167 230 164
3 167 234 230
3 233 235 232
3 232 235 166
3 235 168 166
3 235 236 168
3 170 168 236
3 170 236 237
3 172 234 167
3 172 238 234
3 237 239 170
3 170 239 173
3 239 241 240
3 174 239 240
3 173 239 174
3 240 175 174
3 243 242 176
3 243 176 177
3 172 176 238
3 238 176 242
3 241 244 240
3 240 244 175
3 244 178 175
3 244 245 178
3 179 178 245
3 179 245 246
3 249 248 247
3 248 243 247
3 243 181 247
3 243 177 181
3 246 250 179
3 179 250 182
3 247 251 184
3 250 247 184
3 182 250 184
3 249 247 250
3 185 251 181
3 181 251 247
3 254 253 252
3 187 188 252
3 188 254 252
3 188 255 254
3 256 188 189
3 256 255 188
3 258 257 191
3 257 189 191
3 257 256 189
3 258 259 257
3 262 261 260
3 193 194 260
3 194 262 260
3 194 263 262
3 195 252 253
3 263 195 253
3 194 195 263
3 252 195 187
3 197 258 191
3 264 259 258
3 197 264 258
3 198 264 197
3 198 200 264
3 264 200 265
3 268 267 266
3 268 266 261
3 261 266 260
3 266 202 260
3 202 203 260
3 260 203 193
3 269 265 200
3 269 200 205
3 205 207 269
3 269 207 270
3 266 267 210
3 267 209 210
3 267 271 209
3 266 210 202
3 212 270 207
3 212 272 270
3 271 214 209
3 273 214 271
3 217 272 212
3 217 274 272
3 273 219 214
3 275 219 273
3 276 274 217
3 276 217 221
3 221 222 276
3 276 222 277
3 223 219 278
3 219 279 278
3 219 275 279
3 278 225 223
3 226 277 222
3 226 280 277
3 279 281 278
3 225 278 281
3 282 225 281
3 228 225 282
3 230 284 283
3 280 230 283
3 226 230 280
3 284 285 283
3 282 286 228
3 228 286 231
3 233 231 286
3 233 286 287
3 289 288 284
3 230 289 284
3 234 289 230
3 284 288 285
3 287 290 233
3 233 290 235
3 290 292 291
3 236 290 291
3 235 290 236
3 291 237 236
3 295 294 293
3 294 289 293
3 289 238 293
3 289 234 238
3 292 296 291
3 291 296 237
3 296 239 237
3 296 297 239
3 299 298 241
3 239 299 241
3 297 299 239
3 300 298 299
3 295 293 242
3 243 295 242
3 301 295 243
3 242 293 238
3 298 244 241
3 300 302 298
3 302 244 298
3 302 245 244
3 304 303 246
3 245 304 246
3 302 304 245
3 248 249 303
3 304 248 303
3 305 248 304
3 243 248 301
3 301 248 305
3 303 250 246
3 250 303 249
3 308 307 306
3 310 309 306
3 306 309 308
3 312 311 310
3 310 311 309
3 314 313 312
3 312 313 311
3 314 315 313
3 318 317 316
3 318 316 307
3 307 316 306
3 316 253 306
3 253 254 306
3 306 254 255
3 306 255 310
3 310 255 256
3 310 256 312
3 312 256 257
3 312 257 314
3 320 319 259
3 259 319 257
3 319 315 257
3 315 314 257
3 320 321 319
3 324 323 322
3 261 262 322
3 262 324 322
3 262 325 324
3 263 316 317
3 325 263 317
3 262 263 325
3 316 263 253
3 264 320 259
3 264 265 320
3 265 321 320
3 265 326 321
3 322 323 268
3 323 267 268
3 323 327 267
3 322 268 261
3 328 326 265
3 328 265 269
3 269 270 328
3 328 270 329
3 332 331 330
3 327 332 330
3 271 327 330
3 267 327 271
3 272 329 270
3 272 333 329
3 330 331 334
3 334 331 335
3 334 273 271
3 334 271 330
3 274 333 272
3 274 336 333
3 334 335 337
3 337 335 338
3 337 275 273
3 337 273 334
3 339 336 274
3 339 274 276
3 276 277 339
3 339 277 340
3 338 341 337
3 275 337 341
3 342 275 341
3 279 275 342
3 280 344 343
3 340 280 343
3 277 280 340
3 344 345 343
3 342 346 279
3 279 346 281
3 282 281 346
3 282 346 347
3 283 344 280
3 283 285 344
3 285 345 344
3 285 348 345
3 347 349 282
3 282 349 286
3 287 286 349
3 287 349 350
3 353 352 351
3 288 289 351
3 352 288 351
3 354 288 352
3 285 288 348
3 348 288 354
3 350 355 287
3 287 355 290
3 357 356 292
3 290 357 292
3 355 357 290
3 359 358 356
3 359 356 357
3 360 358 359
3 353 351 294
3 295 353 294
3 361 353 295
3 294 351 289
3 356 296 292
3 296 356 297
3 297 356 358
3 360 362 358
3 362 297 358
3 362 299 297
3 364 363 300
3 299 364 300
3 362 364 299
3 366 365 363
3 366 363 364
3 368 367 365
3 368 365 366
3 368 361 367
3 361 301 367
3 361 295 301
3 363 302 300
3 302 363 304
3 304 363 365
3 304 365 305
3 305 365 367
3 305 367 301
3 371 370 369
3 369 372 371
3 375 374 373
3 307 308 373
3 308 375 373
3 308 376 375
3 309 369 370
3 376 309 370
3 308 309 376
3 377 372 369
3 309 377 369
3 311 377 309
3 378 311 313
3 378 377 311
3 313 315 378
3 378 315 379
3 382 381 380
3 382 380 374
3 374 380 373
3 380 317 373
3 317 318 373
3 373 318 307
3 383 379 315
3 383 315 319
3 319 321 383
3 383 321 384
3 386 385 324
3 324 385 323
3 325 380 381
3 386 325 381
3 324 325 386
3 380 325 317
3 326 384 321
3 326 387 384
3 390 389 388
3 385 390 388
3 327 385 388
3 323 385 327
3 391 387 326
3 391 326 328
3 328 329 391
3 391 329 392
3 388 389 332
3 389 331 332
3 389 393 331
3 388 332 327
3 333 392 329
3 333 394 392
3 393 335 331
3 395 335 393
3 336 394 333
3 336 396 394
3 399 398 397
3 401 400 397
3 397 400 399
3 403 402 401
3 401 402 400
3 405 404 403
3 403 404 402
3 407 406 405
3 405 406 404
3 409 408 407
3 407 408 406
3 409 410 408
3 413 412 411
3 415 414 411
3 411 414 413
3 415 416 414
3 418 338 417
3 338 395 417
3 338 335 395
3 419 418 417
3 420 396 336
3 420 336 339
3 339 340 420
3 420 340 421
3 424 423 422
3 426 425 422
3 422 425 424
3 428 427 426
3 426 427 425
3 427 428 398
3 428 397 398
3 428 429 397
3 397 430 401
3 397 429 430
3 401 431 403
3 401 430 431
3 403 432 405
3 403 431 432
3 405 433 407
3 405 432 433
3 407 434 409
3 407 433 434
3 410 409 435
3 409 436 435
3 409 434 436
3 438 437 436
3 436 437 435
3 437 438 412
3 438 411 412
3 438 439 411
3 441 415 440
3 415 439 440
3 415 411 439
3 415 441 416
3 418 341 338
3 342 341 418
3 419 342 418
3 442 342 419
3 443 421 340
3 443 340 343
3 343 345 443
3 443 345 444
3 447 446 445
3 447 445 423
3 445 422 423
3 445 448 422
3 422 449 426
3 422 448 449
3 426 450 428
3 426 449 450
3 428 451 429
3 428 450 451
3 429 452 430
3 429 451 452
3 430 453 431
3 430 452 453
3 431 454 432
3 431 453 454
3 432 455 433
3 432 454 455
3 433 456 434
3 433 455 456
3 434 457 436
3 434 456 457
3 436 458 438
3 436 457 458
3 460 439 459
3 439 458 459
3 439 438 458
3 439 460 440
3 442 461 342
3 342 461 346
3 347 346 461
3 347 461 462
3 465 464 463
3 463 464 466
3 444 468 467
3 468 444 348
3 345 348 444
3 470 469 468
3 468 469 467
3 472 471 470
3 470 471 469
3 471 472 446
3 472 445 446
3 472 473 445
3 445 474 448
3 445 473 474
3 448 475 449
3 448 474 475
3 449 476 450
3 449 475 476
3 450 477 451
3 450 476 477
3 451 478 452
3 451 477 478
3 452 479 453
3 452 478 479
3 453 480 454
3 453 479 480
3 454 481 455
3 454 480 481
3 455 482 456
3 455 481 482
3 456 483 457
3 456 482 483
3 485 458 484
3 458 483 484
3 458 457 483
3 458 485 459
3 462 486 347
3 347 486 349
3 350 349 486
3 350 486 487
3 489 488 352
3 489 352 353
3 463 354 465
3 354 488 465
3 354 352 488
3 463 466 354
3 466 490 354
3 468 348 354
3 468 354 490
3 468 490 470
3 470 490 491
3 493 492 491
3 492 470 491
3 492 472 470
3 472 494 473
3 472 492 494
3 473 495 474
3 473 494 495
3 474 496 475
3 474 495 496
3 498 476 497
3 476 496 497
3 476 475 496
3 500 499 498
3 499 476 498
3 499 477 476
3 477 501 478
3 477 499 501
3 478 502 479
3 478 501 502
3 479 503 480
3 479 502 503
3 480 504 481
3 480 503 504
3 506 482 505
3 482 504 505
3 482 481 504
3 482 506 483
3 483 506 507
3 483 507 484
3 487 508 350
3 350 508 355
3 508 510 509
3 357 508 509
3 355 508 357
3 357 509 511
3 512 357 511
3 359 357 512
3 514 513 360
3 359 514 360
3 512 514 359
3 516 515 513
3 516 513 514
3 518 517 515
3 518 515 516
3 520 519 517
3 520 517 518
3 520 489 519
3 489 361 519
3 489 353 361
3 493 521 492
3 492 521 494
3 494 521 522
3 494 522 495
3 495 522 523
3 495 523 496
3 496 523 524
3 496 524 497
3 500 525 499
3 499 525 501
3 501 525 526
3 501 526 502
3 502 526 527
3 502 527 503
3 503 527 528
3 503 528 504
3 504 528 529
3 504 529 505
3 510 530 509
3 509 530 511
3 513 362 360
3 362 513 364
3 364 513 515
3 364 515 366
3 366 515 517
3 366 517 368
3 368 517 519
3 368 519 361
3 533 532 531
3 535 534 531
3 531 534 533
3 370 371 535
3 371 534 535
3 371 536 534
3 538 537 372
3 537 371 372
3 537 536 371
3 538 539 537
3 542 541 540
3 542 540 532
3 532 540 531
3 540 374 531
3 374 375 531
3 531 375 376
3 531 376 535
3 535 376 370
3 377 538 372
3 543 539 538
3 377 543 538
3 378 543 377
3 378 379 543
3 543 379 544
3 547 546 545
3 547 545 541
3 541 545 540
3 545 381 540
3 381 382 540
3 540 382 374
3 379 383 548
3 549 379 548
3 544 379 549
3 384 548 383
3 545 546 386
3 546 385 386
3 546 550 385
3 545 386 381
3 551 549 548
3 548 384 551
3 384 552 551
3 384 387 552
3 554 553 390
3 390 553 389
3 390 385 550
3 390 550 554
3 387 391 555
3 556 387 555
3 552 387 556
3 392 555 391
3 553 393 389
3 557 393 553
3 556 555 558
3 556 558 559
3 394 558 392
3 392 558 555
3 562 561 560
3 564 563 560
3 560 563 562
3 566 565 564
3 564 565 563
3 568 567 566
3 566 567 565
3 570 569 568
3 568 569 567
3 572 571 570
3 570 571 569
3 572 573 571
3 576 575 574
3 578 577 574
3 574 577 576
3 580 579 578
3 578 579 577
3 580 581 579
3 557 395 393
3 582 395 557
3 583 559 558
3 558 394 583
3 394 584 583
3 394 396 584
3 587 586 585
3 589 588 585
3 585 588 587
3 591 590 589
3 589 590 588
3 590 591 561
3 561 591 560
3 591 398 560
3 398 399 560
3 560 399 400
3 560 400 564
3 564 400 402
3 564 402 566
3 566 402 404
3 566 404 568
3 568 404 406
3 568 406 570
3 570 406 408
3 570 408 572
3 593 592 410
3 410 592 408
3 592 573 408
3 573 572 408
3 592 593 575
3 593 574 575
3 593 594 574
3 594 412 413
3 578 594 413
3 574 594 578
3 578 413 414
3 578 414 580
3 414 416 580
3 416 581 580
3 416 595 581
3 582 596 395
3 395 596 417
3 419 417 596
3 419 596 597
3 396 420 598
3 599 396 598
3 584 396 599
3 421 598 420
3 602 601 600
3 602 600 586
3 586 600 585
3 600 423 585
3 423 424 585
3 585 424 425
3 585 425 589
3 589 425 427
3 589 427 591
3 591 427 398
3 435 593 410
3 593 435 437
3 593 437 594
3 594 437 412
3 440 603 441
3 603 604 441
3 604 416 441
3 604 595 416
3 597 442 419
3 605 442 597
3 606 599 598
3 606 598 421
3 443 606 421
3 607 606 443
3 609 608 444
3 608 443 444
3 608 607 443
3 611 610 609
3 609 610 608
3 613 612 611
3 611 612 610
3 612 613 601
3 601 613 600
3 613 446 600
3 446 447 600
3 600 447 423
3 459 614 460
3 614 615 460
3 460 615 440
3 615 616 440
3 616 603 440
3 603 616 604
3 605 617 442
3 442 617 461
3 462 461 617
3 462 617 618
3 621 620 619
3 623 622 619
3 623 619 620
3 464 465 622
3 623 464 622
3 624 464 623
3 624 625 464
3 624 444 625
3 444 624 609
3 626 609 624
3 609 626 467
3 625 467 626
3 626 466 625
3 625 466 464
3 444 467 625
3 609 467 469
3 609 469 611
3 611 469 471
3 611 471 613
3 613 471 446
3 484 627 485
3 614 459 485
3 627 614 485
3 628 614 627
3 615 614 629
3 629 614 628
3 618 630 462
3 462 630 486
3 487 486 630
3 487 630 631
3 621 619 632
3 621 632 633
3 489 632 488
3 632 622 488
3 632 619 622
3 488 622 465
3 626 634 466
3 466 634 490
3 634 636 635
3 491 634 635
3 490 634 491
3 635 493 491
3 497 637 498
3 637 500 498
3 639 638 506
3 639 506 505
3 506 640 507
3 638 640 506
3 484 507 627
3 507 641 627
3 507 640 641
3 627 641 628
3 628 641 642
3 628 642 629
3 508 487 643
3 487 644 643
3 487 631 644
3 643 510 508
3 646 645 512
3 646 512 511
3 512 647 514
3 645 647 512
3 514 648 516
3 647 648 514
3 516 649 518
3 648 649 516
3 632 520 633
3 520 649 633
3 520 518 649
3 520 632 489
3 636 650 635
3 635 650 493
3 650 521 493
3 650 651 521
3 521 652 522
3 651 652 521
3 522 653 523
3 652 653 522
3 523 654 524
3 653 654 523
3 497 524 637
3 524 655 637
3 524 654 655
3 637 655 500
3 655 525 500
3 655 656 525
3 525 657 526
3 656 657 525
3 526 658 527
3 657 658 526
3 527 659 528
3 658 659 527
3 528 660 529
3 659 660 528
3 505 529 639
3 639 529 660
3 643 644 661
3 661 644 662
3 643 661 510
3 661 663 510
3 663 530 510
3 661 664 663
3 511 530 646
3 646 530 663
3 662 665 661
3 661 665 664
3 667 666 533
3 533 666 532
3 669 667 668
3 667 534 668
3 667 533 534
3 536 670 534
3 534 670 668
3 537 671 536
3 536 671 670
3 539 671 537
3 673 672 542
3 542 672 541
3 542 532 666
3 542 666 673
3 674 669 668
3 674 668 670
3 674 670 675
3 677 676 675
3 670 677 675
3 671 677 670
3 543 678 539
3 678 671 539
3 678 677 671
3 544 678 543
3 680 679 547
3 547 679 546
3 547 541 672
3 547 672 680
3 681 676 677
3 681 677 678
3 681 678 682
3 678 544 682
3 544 683 682
3 544 549 683
3 679 550 546
3 684 550 679
3 549 551 685
3 686 549 685
3 683 549 686
3 552 685 551
3 688 687 554
3 554 687 553
3 554 550 684
3 554 684 688
3 686 685 689
3 686 689 690
3 556 689 552
3 552 689 685
3 693 692 691
3 695 694 691
3 691 694 693
3 697 696 695
3 695 696 694
3 699 698 697
3 697 698 696
3 699 700 698
3 703 702 701
3 705 704 701
3 701 704 703
3 705 706 704
3 687 557 553
3 707 557 687
3 708 690 689
3 689 556 708
3 556 709 708
3 556 559 709
3 712 711 710
3 714 713 710
3 710 713 712
3 561 562 714
3 562 713 714
3 562 715 713
3 563 691 692
3 715 563 692
3 562 563 715
3 691 563 565
3 691 565 695
3 695 565 567
3 695 567 697
3 697 567 569
3 697 569 699
3 716 700 699
3 569 716 699
3 571 716 569
3 718 717 573
3 717 571 573
3 717 716 571
3 575 576 718
3 576 717 718
3 576 719 717
3 577 701 702
3 719 577 702
3 576 577 719
3 701 577 579
3 701 579 705
3 721 720 581
3 581 720 579
3 720 706 579
3 706 705 579
3 707 582 557
3 722 582 707
3 559 583 723
3 724 559 723
3 709 559 724
3 584 723 583
3 726 725 587
3 587 725 586
3 588 710 711
3 726 588 711
3 587 588 726
3 710 588 590
3 710 590 714
3 714 590 561
3 592 718 573
3 718 592 575
3 728 727 721
3 581 728 721
3 595 728 581
3 722 729 582
3 582 729 596
3 597 596 729
3 597 729 730
3 724 723 731
3 724 731 732
3 599 731 584
3 584 731 723
3 735 734 733
3 737 736 733
3 733 736 735
3 601 602 737
3 602 736 737
3 602 738 736
3 602 586 725
3 602 725 738
3 604 728 595
3 604 739 728
3 741 605 740
3 605 730 740
3 605 597 730
3 742 741 740
3 732 731 743
3 732 743 744
3 606 745 599
3 745 731 599
3 745 743 731
3 607 746 606
3 606 746 745
3 746 607 747
3 607 748 747
3 607 608 748
3 610 733 734
3 748 610 734
3 608 610 748
3 733 610 612
3 733 612 737
3 737 612 601
3 750 749 616
3 750 616 615
3 604 616 739
3 739 616 749
3 741 617 605
3 752 751 618
3 752 618 617
3 742 752 617
3 741 742 617
3 753 751 752
3 744 743 620
3 621 744 620
3 754 744 621
3 620 743 623
3 623 743 745
3 623 745 624
3 624 745 746
3 626 624 746
3 747 626 746
3 755 626 747
3 758 757 756
3 760 759 756
3 760 756 757
3 762 761 759
3 762 759 760
3 762 750 761
3 750 629 761
3 750 615 629
3 751 630 618
3 631 630 751
3 753 631 751
3 763 631 753
3 766 765 764
3 765 754 764
3 754 633 764
3 754 621 633
3 755 767 626
3 626 767 634
3 769 768 636
3 634 769 636
3 767 769 634
3 771 770 768
3 771 768 769
3 772 770 771
3 775 774 773
3 777 776 773
3 777 773 774
3 779 778 776
3 779 776 777
3 780 778 779
3 783 782 781
3 638 639 781
3 782 638 781
3 784 638 782
3 756 640 758
3 640 784 758
3 640 638 784
3 640 756 641
3 641 756 759
3 641 759 642
3 642 759 761
3 642 761 629
3 763 644 631
3 785 644 763
3 787 786 645
3 787 645 646
3 786 789 788
3 647 786 788
3 645 786 647
3 647 788 790
3 791 647 790
3 648 647 791
3 764 649 766
3 649 791 766
3 649 648 791
3 649 764 633
3 768 650 636
3 650 768 651
3 651 768 770
3 772 792 770
3 792 651 770
3 792 652 651
3 652 793 653
3 792 793 652
3 773 654 775
3 654 793 775
3 654 653 793
3 654 773 655
3 655 773 776
3 655 776 656
3 656 776 778
3 780 794 778
3 794 656 778
3 794 657 656
3 657 795 658
3 794 795 657
3 658 796 659
3 795 796 658
3 781 660 783
3 660 796 783
3 660 659 796
3 660 781 639
3 799 798 797
3 785 799 797
3 662 785 797
3 644 785 662
3 801 800 663
3 801 663 664
3 646 663 787
3 787 663 800
3 789 802 788
3 788 802 790
3 798 803 797
3 797 803 662
3 803 665 662
3 803 804 665
3 664 665 801
3 801 665 804
3 805 666 667
3 669 805 667
3 807 806 673
3 673 806 672
3 807 673 666
3 808 807 666
3 805 808 666
3 807 808 809
3 674 810 669
3 810 805 669
3 810 808 805
3 675 811 674
3 674 811 810
3 676 811 675
3 813 812 680
3 680 812 679
3 680 672 806
3 680 806 813
3 814 809 808
3 814 808 810
3 814 810 815
3 817 816 815
3 810 817 815
3 811 817 810
3 681 818 676
3 818 811 676
3 818 817 811
3 682 819 681
3 681 819 818
3 683 819 682
3 812 684 679
3 820 684 812
3 816 817 821
3 816 821 822
3 823 817 818
3 821 817 823
3 824 818 819
3 823 818 824
3 686 824 683
3 683 824 819
3 825 687 688
3 826 825 688
3 684 826 688
3 820 826 684
3 822 821 827
3 822 827 828
3 829 821 823
3 827 821 829
3 830 823 824
3 829 823 830
3 690 830 686
3 686 830 824
3 832 831 693
3 693 831 692
3 833 693 694
3 833 832 693
3 834 694 696
3 834 833 694
3 835 696 698
3 835 834 696
3 698 700 835
3 835 700 836
3 838 837 703
3 703 837 702
3 839 703 704
3 839 838 703
3 704 706 839
3 839 706 840
3 842 841 825
3 841 687 825
3 841 707 687
3 842 825 826
3 828 827 843
3 828 843 844
3 845 827 829
3 843 827 845
3 846 829 830
3 845 829 846
3 708 847 690
3 847 830 690
3 847 846 830
3 709 847 708
3 849 848 712
3 712 848 711
3 850 712 713
3 850 849 712
3 851 713 715
3 851 850 713
3 715 692 831
3 715 831 851
3 852 836 700
3 852 700 716
3 853 716 717
3 853 852 716
3 854 717 719
3 854 853 717
3 719 702 837
3 719 837 854
3 706 720 855
3 856 706 855
3 840 706 856
3 858 722 857
3 722 841 857
3 722 707 841
3 859 858 857
3 860 844 843
3 862 861 860
3 843 862 860
3 845 862 843
3 863 845 846
3 862 845 863
3 864 846 847
3 863 846 864
3 724 864 709
3 709 864 847
3 866 865 726
3 726 865 725
3 726 711 848
3 726 848 866
3 856 855 727
3 728 856 727
3 867 856 728
3 858 729 722
3 869 868 730
3 869 730 729
3 859 869 729
3 858 859 729
3 870 868 869
3 861 862 871
3 861 871 872
3 873 862 863
3 871 862 873
3 874 863 864
3 873 863 874
3 732 874 724
3 724 874 864
3 875 734 735
3 736 876 735
3 735 876 875
3 876 736 877
3 736 878 877
3 736 738 878
3 738 725 865
3 738 865 878
3 881 880 879
3 880 867 879
3 867 739 879
3 867 728 739
3 868 740 730
3 883 882 742
3 883 742 740
3 870 883 740
3 868 870 740
3 885 884 882
3 885 882 883
3 886 884 885
3 872 871 887
3 872 887 888
3 889 871 873
3 887 871 889
3 890 873 874
3 889 873 890
3 744 890 732
3 732 890 874
3 892 891 748
3 748 891 747
3 748 734 875
3 893 748 875
3 892 748 893
3 893 875 876
3 893 876 894
3 894 876 877
3 897 896 895
3 899 898 895
3 899 895 896
3 901 900 898
3 901 898 899
3 900 901 881
3 900 881 879
3 750 900 879
3 749 750 879
3 749 879 739
3 882 752 742
3 752 882 753
3 882 902 753
3 882 884 902
3 884 886 903
3 904 884 903
3 902 884 904
3 905 904 903
3 906 888 887
3 906 887 889
3 906 889 907
3 909 908 907
3 889 909 907
3 890 909 889
3 754 909 744
3 744 909 890
3 911 755 910
3 755 891 910
3 755 747 891
3 913 912 911
3 913 911 910
3 915 914 912
3 915 912 913
3 916 914 915
3 919 918 917
3 920 917 918
3 923 922 921
3 925 924 921
3 925 921 922
3 924 925 897
3 924 897 895
3 758 924 895
3 757 758 895
3 757 895 760
3 760 895 898
3 760 898 762
3 762 898 900
3 762 900 750
3 926 763 902
3 902 763 753
3 927 902 904
3 926 902 927
3 904 905 928
3 904 928 927
3 931 930 929
3 929 930 908
3 929 908 909
3 766 929 909
3 765 766 909
3 765 909 754
3 911 767 755
3 767 911 769
3 769 911 912
3 769 912 771
3 771 912 914
3 933 932 772
3 933 772 771
3 916 933 771
3 914 916 771
3 935 934 932
3 935 932 933
3 774 775 934
3 935 774 934
3 936 774 935
3 917 777 919
3 777 936 919
3 777 774 936
3 920 937 917
3 937 777 917
3 937 779 777
3 939 938 780
3 779 939 780
3 937 939 779
3 941 940 938
3 941 938 939
3 943 942 940
3 943 940 941
3 942 943 923
3 942 923 921
3 783 942 921
3 782 783 921
3 782 921 784
3 784 921 924
3 784 924 758
3 945 944 926
3 944 763 926
3 944 785 763
3 945 926 927
3 945 927 946
3 786 787 947
3 927 928 946
3 947 789 786
3 931 929 791
3 790 931 791
3 948 931 790
3 791 929 766
3 932 792 772
3 792 932 793
3 793 932 934
3 793 934 775
3 938 794 780
3 794 938 795
3 795 938 940
3 795 940 796
3 796 940 942
3 796 942 783
3 949 798 799
3 785 944 950
3 949 785 950
3 951 949 950
3 799 785 949
3 800 801 951
3 950 800 951
3 952 800 950
3 787 800 947
3 800 953 947
3 800 952 953
3 947 953 789
3 953 802 789
3 953 954 802
3 790 802 948
3 948 802 954
3 949 803 798
3 803 949 804
3 804 949 951
3 804 951 801
3 955 806 807
3 809 955 807
3 956 812 813
3 957 956 813
3 957 813 806
3 958 957 806
3 955 958 806
3 960 958 959
3 959 958 814
3 958 955 814
3 955 809 814
3 815 961 814
3 814 961 959
3 816 961 815
3 963 962 956
3 962 812 956
3 962 820 812
3 963 956 957
3 960 959 964
3 960 964 965
3 966 959 961
3 964 959 966
3 822 966 816
3 816 966 961
3 962 826 820
3 967 826 962
3 965 964 968
3 965 968 969
3 970 964 966
3 968 964 970
3 828 970 822
3 822 970 966
3 971 831 832
3 833 972 832
3 832 972 971
3 834 973 833
3 833 973 972
3 835 974 834
3 834 974 973
3 836 974 835
3 976 975 838
3 838 975 837
3 977 838 839
3 977 976 838
3 839 840 977
3 977 840 978
3 979 841 842
3 980 979 842
3 826 980 842
3 967 980 826
3 981 969 968
3 983 982 981
3 968 983 981
3 970 983 968
3 844 983 828
3 828 983 970
3 984 848 849
3 984 849 985
3 849 986 985
3 849 850 986
3 987 850 851
3 987 986 850
3 851 831 971
3 988 851 971
3 987 851 988
3 988 971 972
3 988 972 989
3 989 972 973
3 989 973 990
3 990 973 974
3 990 974 991
3 993 991 992
3 992 991 852
3 991 974 852
3 974 836 852
3 853 994 852
3 852 994 992
3 994 853 995
3 853 996 995
3 853 854 996
3 854 837 975
3 854 975 996
3 856 978 840
3 856 997 978
3 979 857 841
3 999 998 859
3 999 859 857
3 980 999 857
3 979 980 857
3 1000 998 999
3 982 983 1001
3 982 1001 1002
3 860 1003 844
3 1003 983 844
3 1003 1001 983
3 861 1003 860
3 1005 1004 866
3 866 1004 865
3 866 848 984
3 1006 866 984
3 1005 866 1006
3 1006 984 985
3 1007 993 992
3 1007 992 994
3 1007 994 1008
3 1008 994 995
3 1011 1010 1009
3 1010 997 1009
3 997 867 1009
3 997 856 867
3 998 869 859
3 1013 1012 870
3 1013 870 869
3 1000 1013 869
3 998 1000 869
3 1015 1014 1012
3 1015 1012 1013
3 1014 1015 1002
3 1001 1014 1002
3 1016 1014 1001
3 1017 1001 1003
3 1016 1001 1017
3 872 1017 861
3 861 1017 1003
3 1018 877 878
3 1019 1018 878
3 865 1019 878
3 1004 1019 865
3 1022 1021 1020
3 1024 1023 1020
3 1024 1020 1021
3 1026 1025 1023
3 1026 1023 1024
3 1028 1027 1025
3 1028 1025 1026
3 1027 1028 1011
3 1027 1011 1009
3 881 1027 1009
3 880 881 1009
3 880 1009 867
3 1012 883 870
3 883 1012 885
3 885 1012 1014
3 885 1014 886
3 1014 1029 886
3 1014 1016 1029
3 1030 1016 1017
3 1029 1016 1030
3 888 1030 872
3 872 1030 1017
3 1031 891 892
3 893 1032 892
3 892 1032 1031
3 894 1033 893
3 893 1033 1032
3 877 1018 894
3 1018 1033 894
3 1018 1034 1033
3 1018 1019 1035
3 1018 1035 1034
3 1038 1037 1036
3 1040 1039 1036
3 1040 1036 1037
3 1041 1039 1040
3 1044 1043 1042
3 1042 1043 1022
3 1020 1042 1022
3 1045 1042 1020
3 897 1045 896
3 1045 1023 896
3 1045 1020 1023
3 896 1023 899
3 899 1023 1025
3 899 1025 901
3 901 1025 1027
3 901 1027 881
3 1029 903 886
3 903 1029 905
3 1029 1046 905
3 1029 1030 1046
3 906 1047 888
3 1047 1030 888
3 1047 1046 1030
3 907 1048 906
3 906 1048 1047
3 908 1048 907
3 1031 910 891
3 910 1031 913
3 913 1031 1032
3 913 1032 915
3 915 1032 1033
3 915 1033 916
3 1033 1049 916
3 1033 1034 1049
3 1034 1035 1050
3 1051 1034 1050
3 1049 1034 1051
3 1053 1052 1051
3 1053 1051 1050
3 1052 1053 1038
3 1052 1038 1036
3 919 1052 1036
3 918 919 1036
3 918 1036 920
3 1036 1054 920
3 1036 1039 1054
3 1039 1041 1055
3 1056 1039 1055
3 1054 1039 1056
3 1058 1057 1056
3 1058 1056 1055
3 1060 1059 1057
3 1060 1057 1058
3 1059 1060 1044
3 1059 1044 1042
3 923 1059 1042
3 922 923 1042
3 922 1042 925
3 925 1042 1045
3 925 1045 897
3 1061 928 1046
3 1046 928 905
3 1047 1063 1062
3 1061 1047 1062
3 1046 1047 1061
3 931 1064 930
3 1064 1047 930
3 1047 1048 930
3 1064 1063 1047
3 930 1048 908
3 1049 933 916
3 933 1049 935
3 935 1049 1051
3 935 1051 936
3 936 1051 1052
3 936 1052 919
3 1054 937 920
3 937 1054 939
3 939 1054 1056
3 939 1056 941
3 941 1056 1057
3 941 1057 943
3 943 1057 1059
3 943 1059 923
3 1065 944 945
3 946 1066 945
3 945 1066 1065
3 928 1061 946
3 1061 1066 946
3 1061 1067 1066
3 1061 1062 1068
3 1069 1061 1068
3 1067 1061 1069
3 1068 1064 1069
3 1064 948 1069
3 1064 931 948
3 1065 950 944
3 950 1065 952
3 952 1065 1066
3 952 1066 953
3 953 1066 1067
3 953 1067 954
3 954 1067 1069
3 954 1069 948