OFF
1238 2456 0
1.6903360511 34.5702652299 13.0864106073
1.7471331190 34.5537695642 13.0715803787
1.7270780315 34.5062678569 13.0805794143
1.7388860438 34.5278901013 13.1001112484
1.7271832772 34.5924047149 13.0921893905
1.7942475849 34.4390983034 13.0890368033
1.8158698293 34.4509063158 13.0695049692
1.8582449579 34.4023563231 13.0832056103
1.8417492922 34.4591533910 13.0980358389
1.8424775260 34.5089971415 13.0677172463
1.7969768695 34.5544977979 13.1018989713
1.7998111298 34.5751266767 13.0824077704
3.2464974288 27.9450241735 5.9318605118
3.5449359753 27.5731101493 5.2147115916
3.5047373217 27.3056928074 5.7482931040
3.5058005031 27.2447948898 6.3432813933
3.2408472662 27.8695315456 6.8666342218
3.4813531065 27.3413003507 7.0885938731
3.3035691552 28.5638083519 4.9904158804
3.7124566730 28.2521180734 4.2287661352
3.5824417702 27.8923386256 4.6847072777
3.0487355950 28.8142881233 5.9450659909
3.0393467969 28.6567117779 6.7637226560
3.3288184360 27.8022017546 7.5163396248
3.1366949550 28.5235079158 7.7337079566
3.3352419857 28.0497137729 8.0841508369
3.5838158070 29.0809261452 4.0916976017
4.1027685770 29.4668695953 3.4047946336
3.9561952943 28.7198791391 3.6788279272
3.3154195767 29.6335073528 4.7208567511
3.0762330023 29.5561241200 5.6388880236
2.9618227297 29.5337393786 6.6214664607
2.9847210777 29.4629016175 7.6424421417
3.2410424899 28.5539518736 8.5476980829
3.0956727324 29.3630644142 8.7583283777
3.3124763015 28.7666602640 9.3596507693
3.2085379292 29.6008618289 9.9069017118
3.4465188992 28.9025854563 10.3337654331
3.3698543524 29.7081733587 10.8552858070
3.6599168153 29.0295864064 11.2126921596
3.6060307026 29.7263684805 11.5352406298
4.0107248838 29.2650527388 11.9102155419
3.6796153453 29.8667201176 3.9949645296
3.5139545725 30.3015015324 4.5565846056
3.2716318943 30.4684597285 5.3811149474
3.7452296063 30.9908767874 4.8340213059
3.0605472286 30.3986519768 6.3910963649
3.0100960503 30.3750650300 7.4340447290
3.0533668364 30.3212895591 8.5132111018
3.1230494618 30.2236578172 9.4424070128
3.3121040939 30.5738694113 10.4318963843
3.4950451595 30.4045208285 11.3478564890
3.9543742333 30.2386616375 11.9950810771
3.4598587783 31.1739908913 5.5175270138
3.7617539613 31.5256589908 5.3835653756
3.2970885073 31.1571817395 6.1580545086
3.2263385370 31.2002769867 7.1203352547
3.2239653241 31.1937751393 8.2123461841
3.3183408143 31.1508697771 9.4168598723
3.6900809718 31.6320873778 10.5435692597
3.5426769958 31.1840277997 11.2126202288
3.7082699190 30.9481430386 11.7069878826
3.5772699076 31.5982796543 5.8919850121
3.6421322804 31.8904317753 6.6426908283
3.5765269130 31.9338411687 7.7653559085
3.6150202450 31.9265454761 8.8368435511
3.7394628544 31.9454456281 9.7129951495
3.7328996960 32.1589239870 11.7476659550
3.8324478144 32.1585019929 11.6040314339
3.7187490125 32.0015538910 11.6712369059
3.8887933617 31.9530715299 11.8200879649
3.7947049028 32.1899334229 11.7517667517
1.8803844429 34.4392035492 13.0774268271
1.8631064047 34.5118314018 13.0872084472
3.9520464956 26.7430664033 5.7032523453
4.5437189825 26.3233609102 5.1006700106
4.4677839161 26.0720516006 5.6599283306
4.4436546734 25.9378563206 6.3510723089
3.8926922687 26.6704663703 6.9545747414
4.4180295025 25.8673372369 7.4154899869
4.0473980741 26.5790922462 8.0826991503
4.4497484489 25.9031049988 8.4031919813
4.2105114856 26.5662541791 9.0389441701
4.5189795862 26.0021706083 9.1687072197
4.0923487543 27.3023924814 4.5939362703
4.8681930333 27.2332702312 4.0034848301
4.7863126042 26.6108471469 4.4953810112
3.6077804677 27.3714244077 7.8962251942
3.8313101879 27.3041372934 8.9044262166
4.4485591981 26.4499177886 9.7379680951
4.1269720255 27.2497047962 9.9879220013
4.7931139493 26.5776789381 10.6700845537
4.3819746247 27.5593756833 11.0790210016
4.8495909710 27.1709977416 11.4410627306
4.2986588899 28.0348402034 3.8034345504
4.5564967375 28.7696633722 3.2695149338
5.1130036950 28.0059903816 3.4539849230
3.4759216801 28.0254181018 8.7526173666
3.6406319434 28.0812958624 9.6930155775
3.8463312567 28.2039442944 10.6876099695
4.8542988486 27.7654374702 11.8932327324
4.1600979868 28.4052507686 11.5657541944
4.6345884655 28.6803239507 12.2693171154
4.8197133222 29.5114614802 2.8154077473
4.5516110008 29.5795218110 12.4692471297
4.1088490364 30.1451903635 3.5150536329
4.5873270197 30.1050308800 2.9890279692
3.9443156308 30.5327708801 4.0424466957
4.6847927586 30.4734824673 12.5039494977
4.5415810175 30.6554405145 3.4334720449
4.4219186539 31.1690718057 4.1486045662
4.2589877469 31.6867256220 4.9535420440
3.7539530229 31.8340479030 11.3492687407
3.7337365664 31.5696110520 11.6733398560
4.1829904105 31.2306520926 12.0482171122
4.0412729822 32.0497853942 5.7957563507
4.1327993291 32.4330232944 6.4463052026
4.3973520195 32.5117308302 6.0090645325
4.0819604766 32.5292452578 7.2684381808
4.0923836494 32.5655326673 8.3642589042
4.1671376140 32.4964233048 9.3841502906
4.2293658091 32.3237997699 10.2764782100
4.3777327260 32.1896289233 11.2478889058
4.0189466883 32.1465972140 11.6918482014
4.4987753898 31.8789696881 11.8798161725
4.7407603870 32.9570630775 6.5116240765
4.6702171686 33.1113077387 7.8009189126
4.8383672268 33.1251009098 9.0057537030
4.8370318206 32.8448176935 9.9983390104
5.3450201273 24.6346071029 8.0519629886
5.6378702212 24.4259462874 7.1171911694
6.0748421762 23.9883726983 7.6863156100
5.9142531906 24.1299427089 8.7262359443
5.3920577109 24.6219882112 9.1986303830
5.8768391190 24.2534997171 9.6394337344
5.5184973539 24.6451502677 10.0120000459
5.8486191230 24.3948841419 10.2219454550
5.0890710391 25.5140520662 5.6206584767
5.5407107517 25.4719003961 4.9553283124
5.9608921784 25.0409735877 5.2541452137
5.8566068900 24.6040299544 6.1932719409
5.0454988816 25.1256656167 6.9271953909
4.7927830915 25.3141698843 7.9185088055
4.8753366626 25.3174656398 8.8999520469
5.1403968050 25.1815383964 9.8203135657
5.7265060255 24.6812874890 10.4805522798
5.4761092355 25.1445797515 10.4927251541
5.9896333895 25.0022586585 10.8183931398
5.1547922031 25.9640474231 4.7873922687
5.5309646885 26.3842579050 4.2411933741
5.6661698225 25.7380008847 4.5767083613
4.7740751063 25.8637333823 9.7957759087
5.1234637898 25.7147611848 10.4132527654
5.6762706004 25.8583545757 11.1096919272
5.7669887201 27.2003420756 3.7462620034
5.3302218665 26.7487235716 11.5398645279
5.1575097872 27.2233778449 11.8087824136
5.7950513789 27.2566929386 12.1575558810
5.5378701886 28.9265526100 2.8684258858
6.0602870492 28.0011842613 3.3270507336
5.4054224832 28.1855452136 12.5676689760
5.2400907062 29.0321065837 12.8423802356
5.9069542070 28.6176218556 13.0613784586
5.3961335272 29.6814426602 2.3697077618
5.8324754008 29.9454605176 2.1393341147
5.8229353037 29.5124460276 2.4115494442
5.2228580498 29.8754298266 12.9307152344
6.0774900330 29.4453681172 13.4046633618
5.5059342442 30.1470249188 2.0376881238
5.6115333253 30.3593334016 1.8986445643
5.7373592434 30.2684551656 1.9233393306
5.1182388275 30.1028683717 2.4302908324
5.3403961037 30.5645806665 12.8554032822
5.8120264228 30.2290379661 13.2093385908
5.4920872054 30.4475057757 2.1692733126
5.1318793372 30.5944391274 2.7605837267
5.2589413514 31.2366531216 3.4352868802
4.9789671840 31.8289505412 4.3517397370
5.8386830435 31.9786568404 3.8866371249
6.0188507485 30.8980234084 13.0122845298
5.2234619173 31.2984518986 12.4265164456
5.4048759309 32.3392406904 4.5370524669
5.9428669564 32.5503550984 4.4055877498
4.8296069141 32.4446709991 5.3145103515
4.8426516109 32.6102879785 10.6862205159
5.3390342543 32.5729899514 11.1839838302
5.5559173608 32.1468277224 11.8458824006
5.5658810457 32.7511752057 4.9081541535
5.5097848822 33.1740060720 5.6187783625
5.4016208133 33.5075630828 6.4052402440
5.8341405366 33.6590010588 6.0183636260
5.2965065090 33.5989434377 7.2527903658
5.3523775281 33.6404016099 8.3271914545
5.5267276488 33.6028209337 9.1582027230
5.6053989277 33.3550701038 9.8903579401
5.5522266129 32.9516498979 10.6488954830
5.8864274310 33.9218204256 6.6917679176
6.1056883242 34.2006518500 7.7662112044
6.0554134015 33.9792215439 8.8996464803
6.0967015162 24.0857107366 6.8509601329
6.6177727049 23.9442096759 6.3417931333
6.5292396988 23.7386314146 7.0532783761
6.8181808537 23.5917997282 7.6915371281
6.5019817765 23.8027645796 8.4075929488
6.5691094566 23.9877488051 9.3133601486
6.3042469340 24.2758440757 10.1361204159
6.0655866851 24.5376689732 10.5421979674
6.6472919867 24.6974860320 10.6599686876
5.9885530270 25.3741328958 4.7466503799
6.2464846512 25.7602923441 4.3991894955
6.6393636124 25.1662768892 4.7842977751
6.8424868024 24.4490866832 5.4519898357
6.5629686484 25.3775305075 11.1568097948
6.4762716688 26.4581125040 4.0177914512
6.4594795885 25.9907276783 11.5398929964
5.9673063142 26.4626236078 11.7281272677
6.7158846101 26.5755824062 11.9417193131
6.8180461567 27.3037230681 3.6636206698
6.9113640765 27.3365212863 12.4682296626
6.5383801008 28.6716516264 3.0514860754
6.8478731034 28.0614661164 3.3543992003
6.2917097335 27.9733959294 12.8274747987
6.7181290842 28.6493516438 13.3618076625
6.0931105330 29.7067914848 2.3322744343
6.3986206656 29.4465234897 2.6535717253
6.8161000066 29.2790062745 13.8310553857
6.6089234484 29.7156456339 13.8881523969
6.8681699502 29.6321209296 14.1145040546
5.7542809940 30.4745409159 2.0178477580
6.0215188543 30.3549032446 2.1565698077
6.3554262808 30.0278962077 2.3709282412
6.8142557799 29.9555502920 14.0751459860
6.6556000172 30.3528394568 13.6263537694
5.8908844969 30.8104852379 2.5737446894
6.0778351163 31.4318853189 3.2214304240
6.8080915662 31.1488266721 2.9944387859
6.7550882701 31.1163378808 13.1555408231
6.5392248399 31.6940931560 12.5944286540
6.5736857718 31.8092319498 3.4888750689
6.7369372761 32.4415878310 4.0681836822
6.5853737786 32.3476453955 12.0182299957
6.4166673526 32.8117468912 11.3841537250
6.2856659724 33.0627688369 4.8681036912
6.1614046461 33.5325848018 5.5184791002
6.8970677776 33.6084835527 5.3091673819
6.0224361580 33.7506013125 9.5715152423
6.3063097854 33.6570325036 10.0695844246
6.3265357558 33.3376440304 10.5991609682
6.4198425028 33.9254217956 6.0137925521
6.5842464320 34.3660377797 6.8017407457
6.5989640318 34.6149010099 7.4178719215
6.8200241110 34.6927010425 7.1075957374
6.7111428579 34.6739035384 7.9517979477
6.8442752036 34.4653701648 8.7361017243
6.7646167480 33.9991283768 9.6890096503
7.0691168318 34.8808611705 7.4915117040
7.2650577937 23.3625682985 6.8078137142
7.7800165074 23.1513174969 6.1121382771
8.0407551360 22.8169286462 6.6036366596
7.8675572722 23.0386602554 7.2470550204
7.4578336349 23.3450492198 7.6549285248
8.2153438839 23.3305578074 7.9259198774
7.3869489065 23.6879302504 5.8776123747
8.0418909691 24.0618877724 5.1758083972
8.0524180648 23.3556464771 5.5784689541
7.3171453786 23.6951100618 8.5518041741
7.2636405534 24.0212734026 9.4042052058
7.7657050294 24.0413365667 9.1518998847
6.9888300990 24.2791896357 10.0157443003
7.2634675997 25.7914039470 4.3328144087
7.6371076469 24.9350940466 4.7956879315
7.6942603708 24.3474682909 9.7573115800
7.4607955963 24.7016330497 10.4174400617
7.2210043569 25.1187938496 10.9373493399
7.3170407082 26.5855724844 3.9715751298
7.4495203050 25.8344514453 11.3629833455
7.7850098529 26.7763729068 11.9552973468
7.7011708265 27.1108323451 3.8304784840
7.7800095938 27.6215946661 12.5734129601
7.2557136737 28.5172491813 3.2508849401
7.6753858719 27.9146344952 3.5697552383
7.1459428937 28.0271197358 12.9909206191
7.3239666404 28.4653385665 13.3229326113
7.2615696124 29.2074280238 3.0241749055
7.9787870672 28.7922129970 3.3603848774
7.5597066679 28.9868159329 13.6263856495
7.1961831275 29.4285079852 14.0660202026
7.0352245357 29.8893420009 14.2150911575
6.4874025251 30.5324879137 2.5138575900
7.2279919798 30.2170729310 2.8428568237
7.0540637879 30.1972730671 14.0955849871
7.3314367308 30.2264007372 14.1932867510
7.8510440286 31.1316008546 3.2200128828
7.1354140908 31.4343444938 13.0117463610
7.5049941840 31.0303732124 13.3538391147
7.5204509106 30.4420865817 13.9121977002
7.7328778578 30.2228993092 14.1231185028
7.4065378505 31.8393052631 3.5329425405
7.8413192181 32.4722210618 4.0550422095
7.0237761651 32.6223332474 11.8647286314
7.3514423333 32.3072704544 12.2360731482
7.7401956889 31.7266851700 12.7958162843
7.3297942577 33.0747762714 4.6152795837
7.9152804520 33.5859809252 5.1833813080
6.8470148162 33.6800040022 10.3882694257
7.1955755274 33.3757341636 10.9540685167
7.6646819073 32.8826612320 11.6545156244
7.3552151688 34.1748739642 6.0091497207
7.2333389676 34.6815129852 6.8065658362
7.9909306861 34.6085905526 6.4861403884
7.2144247427 34.9352951090 8.2618868394
7.5375194343 34.7814602358 8.8327493179
7.7735190752 34.3508761169 9.4737212752
7.5886923341 33.8340978336 10.3492906553
7.7747744707 34.9804586775 7.1872767826
7.4600303501 35.1042233853 7.7556198911
7.9817297546 35.1620976074 7.5858438696
7.4299002917 35.1096688048 8.2373011887
7.7084947827 35.0253457578 8.5751357351
8.9282788261 22.1587433140 5.8720298091
9.1029347576 22.4032423993 5.2927338399
9.5745726988 21.7883812944 5.5399011037
9.2525063844 21.8536903948 6.3335681048
8.6486401192 22.3189572774 6.4592554304
9.0335237024 22.1039818316 6.8717796529
8.4276571383 22.7371276998 5.8296313451
8.8761584246 23.2786137003 5.0802703688
8.5938266000 22.6400334100 7.1783315725
9.4134484473 23.0366192153 7.6378785870
8.8271657139 24.0317319958 4.9155338196
8.1270716801 23.8723359196 8.6660545441
8.9669171383 24.0107800882 8.3707493114
8.2173229197 25.5368954511 4.4890497861
8.8998552318 24.8558344619 4.7739491637
8.4163818505 24.4131006519 9.2497638639
8.1713345509 24.8134806687 10.0606836661
7.9179636324 25.1985704020 10.6894577783
8.4336983582 25.1976523710 10.3293650917
8.3040800605 26.4730682774 4.1814139554
8.9594000784 25.8166491182 4.5396271294
8.5851434383 25.7115102939 10.7108427748
8.2814765220 26.2098370104 11.3808906042
8.7321876068 26.1877050613 11.1247169936
8.3477742283 27.4097239018 3.8865412639
8.7905362175 26.6865367114 11.4332229953
8.5358403590 27.3930301360 12.0751303678
8.7555855442 28.3043459595 3.7780119430
7.8275838348 28.3175100215 13.0621099727
8.4081540263 28.0395743834 12.5854026320
8.1070504184 29.6464503891 3.1958370426
8.7066744629 29.1962992052 3.5171996949
8.6298528531 28.8988158851 12.9510337115
8.1405486723 29.5591893376 13.7354868901
8.7294818315 29.9298911178 13.3098058461
7.7294180302 29.4621838481 13.9894808320
8.3320533187 30.4896593675 3.2158463593
8.0798576106 30.1443558490 13.8752230349
8.2545172086 30.6141722012 13.4993274252
7.9451583459 29.8784722646 14.0534678555
8.5904490632 31.1075842103 3.3876817255
8.4193420526 31.2347226614 13.0908266230
8.5495555975 31.7391131626 3.7135218195
8.6362183215 32.4513630640 4.1708214856
8.6375369965 31.7452699315 12.7106383686
8.4341891944 32.3279710813 12.2273182500
8.3135032235 32.9837857554 4.5582647838
9.0135024623 33.2923957022 5.1085632491
8.8241841572 32.9601496082 11.5392553035
8.1853898111 33.4435479587 11.0003331399
8.5483665092 34.0551461026 5.8653930169
8.6665012251 34.5108598143 6.5032074076
8.7735139494 34.3342074664 9.2548141476
8.2098967797 34.8156481832 8.8237407962
8.6492194001 33.8513377979 10.2128821192
8.3728609888 34.8246293888 6.9062111730
8.2966091190 35.1573608229 7.9477928370
8.4286558910 35.0038879399 7.5267194998
8.1992850456 35.0841720849 8.4348807010
8.5223605517 34.9827429220 8.2251681833
9.6353610632 22.1040986431 4.9566461358
10.0687621738 22.1974892420 4.6308232441
10.1765654905 21.7335369328 4.9047101272
10.3480183009 21.3027647119 5.4211660785
10.0653163623 21.3801357527 6.2490872146
9.6510462710 21.7852277401 6.8979300541
9.2958760445 22.2720299718 7.2490690355
10.0207531363 22.1023315350 7.3217007545
9.5728932582 22.6239872546 4.7794789819
10.3062069197 22.7100778879 4.4768421711
10.3144915980 23.3985577575 7.3160608473
9.9576469097 23.1222218823 7.5177805527
10.4145009765 22.6902714977 7.3653658567
9.7276462164 23.2047628254 4.6638148864
9.5761666985 23.9669296561 4.7454215921
9.8942145345 23.4993023558 7.5637604401
9.7408392789 24.0122456423 7.8222237882
9.9443159077 24.7311900468 4.7987275505
9.1714063486 24.7385552648 8.9304662871
9.7385018419 24.7602555746 8.3117768910
8.8991053344 25.1469329881 9.7559850672
9.2859364148 26.4563001573 4.4628762518
10.0276047236 25.8555713008 4.9245645279
9.7163296002 25.3627855033 9.0386526894
9.5295853860 25.8701330858 9.9760571862
9.1952147662 26.2460082887 10.7681606098
9.6637035330 26.3185116738 10.3901364162
9.1952820120 27.3340819029 4.2008338233
9.8187445711 26.8660481414 4.6041073229
9.6887954420 26.8621743152 10.8105884151
9.2022039448 27.3102638494 11.5748285191
9.7261335142 27.6602849704 11.3404367004
9.5962246966 28.2401304111 4.1597949882
9.1595943518 28.0440692583 12.0579378331
9.7316600477 28.1882939817 11.6516736560
8.9256458981 29.9543459916 3.4843556735
9.5788431576 29.2941990597 3.9595119056
9.7043845800 28.9023865223 12.0339829939
9.2707668669 29.4872867743 12.7585387547
9.7118192816 29.7127264228 12.4171627475
9.0282452270 30.7416526215 3.5160242303
9.5046206823 30.3106106536 3.7996105905
9.3708643715 30.0505316525 12.8300796876
9.0780320972 30.7032258894 12.9888853516
8.9722576376 31.2357169689 3.5867395272
9.5206138962 31.1993869029 3.9660596149
9.0515558099 31.3710388428 12.7977658183
9.5254203749 31.1771964388 12.5207525898
9.2958439825 31.8579312625 12.3136970771
9.0398748988 32.7149689955 4.5344738385
9.2881569156 32.1034637122 4.2335837754
9.7699310480 32.5081645892 4.8290472423
9.2148580780 32.4715197554 11.9302893928
9.8885723492 33.1335902694 5.4378860900
8.9680763526 33.4028968276 10.9276493382
9.4358683859 33.0574893357 11.1316650816
9.5115779816 33.3653080968 10.4996276245
9.5139272073 32.7090164389 11.5135299786
9.4042229560 33.6771429384 5.7341215162
8.9339218115 34.6227925349 7.0880057991
9.3614338226 34.0938120400 6.4688547727
8.9994756904 34.6766523767 7.9020681007
9.5570705718 34.2028430849 7.4508574037
8.8340491175 34.6615750022 8.5835099530
9.4733399100 34.1743736220 8.5399655350
9.4957601076 33.7936586927 9.6002949024
10.7754898292 20.9648186939 5.9147890516
10.9588343235 20.9885664171 5.3186092783
11.5661868466 20.7205252450 5.6457754600
11.2827354350 20.7749510245 6.3849256892
10.7078559633 21.0281665694 6.5198080751
11.0709783643 20.9661051715 6.8559740525
10.8865218203 21.9807862409 4.4753521909
10.8775536918 21.3241795877 4.8718178452
10.5176699553 21.3923378121 6.9792002072
11.0679032906 21.7525075884 7.2947390012
11.3135571002 22.8437714153 4.2662013950
11.5233649966 22.4330992417 7.0412974773
10.9229829446 23.2353978230 6.9568673953
10.4107159539 23.4638870081 4.5053925263
10.3858988307 24.1642838297 4.6740166415
10.2461318667 24.0395938390 7.3774504543
10.6960450449 23.9382605038 6.9254274796
10.7778368614 24.7229558596 4.9471409888
10.6576670397 24.6399884511 6.9867186476
10.9507444083 24.4515046297 6.4874173536
10.9489922534 25.0791645580 6.4733860774
10.2813974791 24.7710931569 7.6210645000
10.7587850723 25.5839175591 5.4437539753
10.5784693420 25.9943509828 5.3538493097
10.7868694143 25.4860246347 7.1327371121
10.7770220195 26.0374166755 5.5978311831
10.4475202529 25.6569560760 8.1952979637
10.2542675062 26.0553144429 9.2118553826
10.0700867450 26.4209738909 9.9910708088
10.5569461655 26.6213829336 9.4916529275
10.0223938546 27.6768729618 4.5500670221
10.3925888578 27.0116553073 5.0084708370
10.6532357744 26.3871031880 5.4375571713
10.3938441089 27.0219413192 10.1305571573
10.1763378934 27.4694548429 10.7438905681
10.6435211448 27.7512981980 10.2923859142
10.2170386628 28.6101389106 4.4840121541
10.6559903143 27.9957569896 5.0289262309
10.2084584715 28.1972494644 11.1297794500
10.7325544158 28.4837056662 10.5709646162
10.3574106056 29.4205569587 4.4656049951
10.8038239493 29.0077386918 4.9693399646
10.4529683020 29.0631654773 11.2293336184
10.1627289596 29.7398997468 11.8658305589
10.6599371807 29.9190403098 11.1840960401
10.1730946525 30.3003985968 4.3210659200
10.7426317048 29.8535861183 4.8240698716
10.3315916223 30.4698807109 11.7203493489
10.6699140122 30.8332719717 11.1306115667
9.8085251223 30.4622512077 12.3647075704
10.2435561725 31.1780724828 4.5058497623
9.9173944568 31.7756737910 4.4539904042
10.4260281051 31.7717427069 4.9588466872
10.0626255893 31.4212495734 11.7796631943
10.5635279778 31.6492749611 10.9848288172
10.4273825084 32.5008177676 5.4069870479
10.0830703391 32.5237574256 10.9503166522
10.7010297168 32.0523260243 10.4509767574
10.5723283267 32.5737753056 10.0922801649
9.7009387091 32.2413419550 11.7559044716
10.3867765087 33.0097365191 5.8016379281
10.0060886628 33.4987874173 6.0746704399
10.1062255726 33.6526046161 6.9010215078
10.5423315970 33.0872484034 6.3977926244
10.1615262184 33.6499235901 7.9016153158
10.6548751348 33.0670562464 7.2727776964
10.1545249178 33.4914751748 8.9464280874
10.6907246405 32.9850395442 8.2902301590
10.1336145115 33.1597403272 9.9285993137
10.6598293132 32.8079346968 9.2885063733
11.4497487206 20.9569043956 5.0195533479
11.6813854558 21.3181037656 4.5884770070
12.3145951262 20.7684810434 5.0449496126
12.3540054114 20.5182829350 5.7217712326
12.0342349764 20.5906719615 6.2954499365
11.6823661984 20.8219894326 6.8654749434
11.2377625729 21.1568927781 7.1469676505
11.8792097551 21.1524029804 7.2089738020
11.9735053840 21.9565034927 4.2318069504
12.0489035776 21.6385538478 7.2594370016
12.3143010979 22.5732691345 4.0627860059
11.6175756074 23.1827266654 6.4796589386
12.3182526748 22.6605294506 6.4681910387
12.1777180086 23.1988470385 5.9996296516
12.5412819190 21.9993964300 6.9386343910
11.1561711162 23.7994825163 4.4951492530
12.1836980322 23.3323754447 4.1501532413
12.4784053038 23.4742541896 5.3399095826
11.9620991065 23.9627722149 5.2296633856
11.7669257560 23.7363440061 5.8522114396
11.1867407404 23.8699824201 6.4045598763
11.7996299578 24.0289260094 4.7196311530
11.2506245753 24.6421409111 5.7233279359
11.0053737113 26.0710849798 6.1452079426
11.1973795300 26.6681658439 7.5126060764
10.8473755741 26.5823732948 8.7287295428
10.9447121984 27.2216758242 5.6193190009
11.4180169010 27.4096240428 6.4811231606
11.6433522417 27.4353418794 7.1995274124
11.6337201804 27.4639578870 7.7649038509
11.7859533088 28.0588286446 8.1229248892
11.3611033882 27.4899641532 8.5903212512
10.8871782957 27.2471517640 9.4817352926
11.2683044581 28.3954470991 5.7300604425
11.6882129999 28.2805517360 6.4412262721
11.7792844419 27.9112677697 6.8867599391
11.6184350645 28.4845896128 8.8419395746
11.8837494419 28.6797748564 8.3346131282
11.1456904458 28.2837128523 9.6869149167
11.2646226293 29.7175073655 5.5493588937
11.7059582375 29.1085860878 6.2846489101
11.7845878936 29.1212436299 8.7354182540
11.7717743530 29.7196935950 8.7409905001
11.4483210900 29.5218986386 9.4796049419
10.9654726363 29.2353305133 10.4604527489
10.8092392768 30.7773918300 5.0776253927
11.3686680910 30.7669505691 5.9859851096
11.7127568609 30.0330966406 6.3384886275
11.5754148222 30.6014454273 8.8930836109
11.8604436571 30.0531302078 8.3020220995
11.7768399959 30.5871971813 8.0400757675
11.3161611296 30.5859899852 9.7834164326
11.0586193241 30.2286776707 10.4414131135
10.9456465057 31.7823617887 5.7818595821
11.6869730263 30.6878457004 6.6453116409
11.3892796933 31.4820344553 6.8292072346
11.4788139795 31.4006789591 8.0509340996
11.7550776365 30.7635728322 7.3314646787
11.3292897964 31.5416113861 8.9860452273
11.2866556606 31.2358588370 9.5658404688
10.9947013637 31.2580329989 10.3366268002
10.7271911542 32.5962288959 5.9516456775
10.9612524772 32.4249415959 6.6095347273
11.0998099774 32.3125698430 7.6118187009
11.0915728546 32.2328874853 8.6617633152
10.9988156353 32.0115754663 9.6593457699
12.6905365085 21.2463171774 4.4319718061
13.4183425274 20.6730776865 4.8035523669
13.1389400861 20.4369723489 5.5207827015
12.7722527425 20.4569020172 6.1464657263
12.5855402790 20.7047255572 6.7830389046
12.6348652278 21.1271483562 7.1935701353
12.9935873900 21.9084109360 4.1065259089
12.7506946195 21.4857475723 7.1872775251
13.2319789391 21.1439744410 7.0976750872
13.3675181306 21.5387439328 6.8934816334
13.1110039458 22.7358991632 3.9875144955
13.4275749364 22.2324913501 6.2733323416
12.8301918363 22.9188640345 5.8126755241
12.8683207103 23.3433689156 3.9243114643
13.0421616488 23.4587917245 3.9182511417
13.2769582048 23.1827831348 3.9309407959
12.4944714680 23.7338236806 4.7087108506
12.9519701948 23.4493931313 4.7859480191
13.0077791802 23.5254732398 4.3907045435
13.1780130412 23.1288204720 5.1731261234
12.6837338152 23.6165324216 4.1769527001
11.8642084929 27.9674524951 7.4405943209
11.9345422267 28.6435693674 7.0002571499
11.9822508731 28.6113025446 7.7512085329
11.9486506723 29.5491767915 6.9072148268
12.0342500764 29.2158711453 7.4709768396
11.9583979063 29.3266796451 8.1479138352
11.8826885901 30.2336225110 6.9334362948
11.9561664436 29.9797650137 7.5874800360
13.7742501544 21.1521090166 4.3152555311
14.3388520458 20.5718120971 4.6101523535
14.2570511162 20.2301132547 5.2531907387
13.7295288178 20.3892325323 6.2513735655
13.2758465043 20.8028802019 6.9148841555
14.1349000184 20.8301081727 6.7815627823
14.0798066508 21.8545175538 4.1250139940
14.2338485035 21.5170407633 6.5912048491
14.0139492518 22.6673930505 4.2641634554
13.4882189820 22.7374960656 5.5664725463
14.2517854427 22.4256520478 5.4839864664
13.7373018983 22.8637207219 5.0971373598
14.5507973639 21.9323722529 6.1269176435
13.2783950961 23.3412541511 4.1098613652
13.5030461817 23.1477680750 4.5972485263
14.8809930956 19.9302128080 5.8528592841
15.1673135523 19.8587957438 5.2273074867
15.8586950022 19.5282497268 5.5887381772
15.5940665827 19.7694275632 6.3389237709
14.7489431186 20.1805907997 6.4450303103
15.4559267115 20.2722159520 6.7848749123
15.0981071768 20.8904643958 4.2731003494
15.1405158256 20.1629641198 4.7192140879
15.0888377172 21.0053541928 6.7123095672
15.4454398379 21.7598643580 4.2870994801
14.9488550899 21.5116825912 6.4494666740
15.6825568216 21.3086959152 6.4828885770
15.2781189249 21.7189224215 6.1672776119
15.1168891101 22.2540956652 4.9069827154
14.1504015129 22.7108208566 4.8200452812
15.2399942796 22.0308937717 5.6776128830
15.7659048129 19.7264307864 4.9210311967
16.2576819625 19.9963452113 4.3962460938
16.5027669732 19.3659108445 4.9696456732
16.7996023914 19.1098676089 5.6460398267
16.4899698402 19.3697390803 6.3180584023
16.2715777200 19.7230494232 6.8443776409
16.3165446463 20.0722372211 7.0611199984
16.8279417514 19.7756843075 7.1786239027
16.6737046977 20.9229235726 3.9651064712
16.9985094207 20.1626306372 7.2197494272
16.1901669352 20.6586749598 6.8732443231
16.7184318898 21.6419915579 4.2185880048
16.6604609442 21.2283408172 6.4920882729
16.0207840592 21.6826633056 6.0297118630
16.4188739376 21.9592176851 4.7149052773
16.2130101032 21.9683069054 5.3982265601
17.2652510957 18.9298987822 5.1127255602
17.2673745403 19.2935761374 4.5071646391
18.0143637223 18.7757732849 4.8348963518
17.8439344055 18.6537483217 5.3640322360
17.4431336189 18.8134187534 5.6607994328
18.0632688512 18.6423651957 5.9301179889
17.5003929261 19.9492655086 3.9189716881
17.4803495544 19.0017529471 6.3566562264
17.1218937399 19.4211164028 6.9511653994
17.5911007557 19.7154686130 7.3591960493
17.5551152306 20.6100703166 3.6218347164
18.1183019592 20.8623576445 3.4562421545
18.1751553603 20.2697525734 3.5038953649
17.9608911378 20.2155055413 7.4074089334
17.3066803980 20.7147687926 6.9803765536
17.5364244020 21.0641485314 3.6409154907
17.4893504893 21.4805042699 3.9247644115
17.7707740940 21.2874584632 6.5205366895
17.0668833297 21.6886138502 5.9292654239
17.6383489022 21.9163600645 4.4822689317
17.3779945938 21.9658953209 5.2303604482
18.2686087014 19.1824733745 4.2126266343
19.0072272568 18.6451164328 4.6620745864
18.6797233678 18.4316158713 5.4508563161
18.7195903409 18.4492199882 6.1593118628
18.5397270838 19.6791449284 3.7057437552
18.4246942084 18.7206032937 6.6053128938
18.2212732093 19.1705768652 7.2068315302
18.5763805858 19.6862561783 7.6776578861
18.7777567088 20.5669037287 3.3475642222
18.8032939634 20.0574348833 3.4240594966
19.0686981018 20.2934479649 7.7160947992
18.4167147931 20.8123469326 7.1203234968
18.0616428197 21.3228528078 3.6272164202
18.8705857579 21.2132942956 3.5219346937
18.8836706872 21.4079154098 6.6240705884
18.3469432414 21.8385139331 5.8817442908
18.4712589038 21.7572691936 4.0176513341
18.4879057969 22.0613865271 4.4962478631
18.5570616012 22.1402180239 5.0481217052
20.2482057105 15.3308095604 9.8454127887
20.3214021964 15.4052097557 9.6123435854
20.4765057033 15.1113897468 9.7086248470
20.3438612303 15.3664808217 10.0057835610
20.2918777465 15.5364310474 9.8833482630
19.4490551364 19.2095242103 3.9895464172
19.9157985269 18.5950706031 4.5249598871
19.8819132373 18.1247057759 5.1998572506
19.4712660225 18.0933468065 6.1555803220
19.0437163220 18.4327323489 6.6218797926
19.5169982258 18.2084083846 6.9019611625
19.1893793760 19.7239349614 3.5528540685
19.4523931026 20.1932475355 3.3779520123
19.7382690559 19.7261611173 3.5849682108
19.0698865255 18.6490237573 7.1727628101
19.3581439555 19.0404114294 7.8540850047
19.4010936831 19.7022449462 8.0663016032
20.2455108047 19.3389056503 8.5006922294
19.4127822899 20.7695345856 3.3544401093
19.8004509499 20.5528596557 7.8650888178
19.6479971555 20.9997053638 7.3035878731
19.9023771026 20.0965083735 8.2098709222
19.8424904735 21.1802209666 3.5802970214
19.7075848210 21.5603002829 6.6743025909
19.4237242005 21.8982811513 6.1746084550
19.5548564250 21.6977792789 3.9661445633
19.2934724522 22.1311280920 4.5842862173
19.4127549243 22.3517341426 5.1369562511
20.0014881912 22.3677042713 5.0591525708
19.2962481408 22.2231925292 5.5938972128
19.8367274405 22.4247077978 5.4185952475
20.8358048545 14.4946144852 8.2959262895
20.9707120226 14.5593102877 7.6770584988
21.1281777866 14.1150910468 7.8136045206
21.1730987196 13.9681877421 8.5361734580
20.7873272397 14.4735251129 8.8723800479
21.0182356929 14.3035251177 9.1963544676
20.7148457375 14.7102866285 9.3344929191
21.1056655229 14.7585181934 9.7764708798
20.7613438143 14.9596047005 8.0472420998
20.5632781983 15.1878845404 8.9040903451
20.6983402958 15.6071520459 8.0152578607
20.6622416051 15.2912792312 10.1218334388
20.5200432678 15.6832210769 10.1378691618
20.8174414959 15.6436832718 10.3190159603
20.5733625720 16.2279929491 8.5895393439
20.6388446260 16.3503101853 7.8363695678
20.5220200776 15.9437026764 9.5636946772
20.6903312181 16.0625622186 10.1149232547
20.7894214910 15.9254345040 10.3204980805
20.3856220162 17.5122618434 5.8830476088
21.1094366390 17.5511656633 5.1875824345
21.0458807914 16.9533698359 5.6668549429
20.7633182871 16.8354885109 6.3145019132
20.1496883484 17.5642011734 6.8739773535
20.6519800343 16.6752628279 7.1640362224
20.4603638948 17.3165900808 8.0960445503
20.7567107714 16.8989672859 9.0697547248
20.7121050187 17.4472307668 8.7189371438
20.9713574542 16.4455963196 9.8564362052
20.8884532187 16.1419704981 10.2327353357
20.5330926149 18.9629269967 4.2487395217
20.7799178301 18.3343966494 4.7074172595
19.8055691822 18.2193900170 7.5696132999
20.6744666156 17.8715156212 8.6384122176
20.2480583996 18.4006374459 8.3080668229
20.9973332698 18.4738887138 8.9256768818
20.0944317788 20.0584483448 3.4997144537
20.4362631371 19.6703248259 3.8264339219
21.2566329871 19.4341895816 9.0367069967
20.1368310002 20.5804636152 3.4670895235
20.5582405858 20.2263107849 3.6191602791
20.1489835248 20.7896938472 7.7649938155
20.3866215251 20.5315906156 8.1237324064
20.7200318944 20.0361839075 8.5912592567
20.7058519297 20.9865242492 3.8346465005
20.3216674066 21.5238686542 3.9617547691
20.8951702604 21.4709174734 4.2308666127
20.1096657359 21.8806800678 6.3594637369
20.4131427046 21.5219084444 6.8478156709
20.8384121715 20.9933020916 7.6279622423
21.0515143924 20.5087230156 8.3473283402
20.5145960256 21.9344999307 4.6360421860
20.5373986558 22.3048534361 5.2434430256
20.7662195084 21.9557059084 6.1871843182
20.0794505966 22.2383782294 5.8417337993
20.2522022036 22.4314783205 5.4386536859
22.2414228283 9.8143479332 3.3005717004
22.3746874455 9.9207003090 3.1928565322
22.3496593491 9.6682087993 3.2107913796
22.3027949586 9.7199950699 3.4581219647
22.3278230549 9.9724865797 3.4401871173
21.7260342699 13.3965593182 6.8792481379
21.8979122980 13.6488478147 6.1782446266
22.0297354663 12.9573579050 6.4332266665
21.9621266184 12.7747826416 7.1549202889
21.5392975164 13.4873308441 7.7024932459
22.0413369312 12.8073130824 7.9938865507
21.6975710298 13.4122164461 8.4987934017
22.3407308600 13.1743441382 8.7890202859
21.3805014007 14.3306555066 6.9330539139
21.7886529813 14.4016415147 5.9897640548
21.6235060940 13.9483911913 9.2072881860
21.8668016335 14.4948980451 9.7292039873
21.5345812697 15.2463726997 6.0942421844
22.1057309996 15.6262231336 5.2717853362
22.0295150683 14.8041451305 5.4905351518
21.1463443058 15.3067865561 6.8458475545
20.9502188522 15.0877283078 7.4474395817
21.0854499301 15.3634439150 10.2062993032
21.7464761387 15.2697860861 10.0352302254
21.3541374706 16.2291618113 5.8291265381
21.7235648774 16.6430489601 5.2695607153
21.0472946841 16.0334439804 6.5718210104
20.8532989649 15.8515663039 7.3046504984
21.2263164832 15.9626075126 10.2132231986
21.9275613437 16.0308612226 10.0340191035
22.1035694511 17.1829681584 4.9869329125
20.9995329744 17.6048485547 9.0560312747
21.2130623584 17.1047907072 9.4805472516
21.6760868640 16.7182493357 9.8405613629
21.3035392892 18.7798605097 4.4693962393
22.0073302696 18.1675217870 4.8064865454
21.6886976249 17.6654955533 9.3905594869
21.9306738489 18.8233446077 9.2111145228
21.2598152611 19.4189962007 4.2208540052
21.8877305356 19.0572380491 4.5381684681
21.7174915507 19.4176860171 9.3322078406
21.6527137899 19.6716300637 9.2674602900
21.8029539457 19.5878885741 9.3866451049
20.6968945074 20.5409452302 3.6542647036
21.1983634610 20.2725611961 4.0178417190
21.8776699314 19.7053968498 9.2467105059
21.6104290270 20.0372685882 8.8565150997
21.1663056460 21.5692638887 4.5542900102
21.5978800137 20.9991948571 4.5170887595
21.4854894360 21.5889429892 5.0465288528
22.0033248485 21.0533199896 7.3051963302
21.2735523747 21.5184361314 6.8086629953
21.7275276365 20.6411300315 8.1790512692
20.5988702947 22.2815620739 5.6464671995
21.0923507242 21.9949518513 5.5295813636
21.4484568949 21.7649676718 6.1908639629
22.8745447848 8.2493806284 3.6946548756
23.1797990613 7.8230132898 3.0802303598
23.1438851037 7.5497608618 3.5779690030
23.1645736173 7.4984741502 4.1143582630
22.9876930633 8.1821616489 4.6065624631
23.2475643754 7.5390728901 4.7779851158
22.9089372584 8.6586667823 2.9106170828
23.3637012605 8.8707894920 2.2159039525
23.2191882410 8.2287894033 2.5931618376
22.5456367684 9.2620298601 3.4589021611
22.7049075871 9.0954053382 4.3844438975
23.3565948383 8.0111384898 5.4201117083
22.9797706990 8.9350769980 5.3001539153
23.3273274388 8.7675153800 5.9453335101
22.7606489096 9.6818921379 2.8162113375
23.5261186686 10.0969123901 2.0271032037
22.5010698637 9.9503180788 3.9901520541
22.7380857619 10.2050980595 5.3334352596
23.0977519004 9.5180166105 6.0638684688
23.0624383072 10.5374557209 2.6348642076
23.6123581586 11.0987195520 2.3388103534
22.6545214122 10.4755100836 3.3834199206
22.6907133674 11.0231532973 4.5836086838
22.7081778313 10.7495170706 5.1909589057
22.7126490709 10.6687778757 5.3756565502
22.6814932655 10.9082241095 5.5593561483
22.6706879049 11.1389322209 6.4228309658
22.9342834309 10.2456627538 6.3453332639
23.1123018058 10.6104324807 7.0521676832
22.8677012930 11.4583428758 7.5503303973
23.5962889237 11.0976496165 7.7924624847
23.1402959493 11.2642036428 2.9988264167
22.8985849545 11.4135259969 3.7511298177
22.8289227281 11.6419931725 4.2409180501
22.7744064512 12.1149899848 4.6449200113
22.5914693118 11.6155244198 5.4986178138
22.6805260649 11.0274825049 5.2506786600
22.3092768145 12.2168500311 6.4169908301
22.3681081490 12.0663808388 7.3342084108
23.1143612344 11.8365027846 8.1634193581
22.6054588984 12.2734594618 8.1495271723
23.1449723490 12.6207620368 8.6233751786
22.4044405869 12.9089705071 5.5035722081
22.8421943523 12.9703221144 4.6266185831
23.0474592683 13.5811888042 9.0954036631
22.7245091495 13.7165451486 4.8124066083
23.1608612729 14.1357076407 4.4059992475
23.2459430896 13.3964190206 4.1804549472
22.2187753123 14.0321963954 5.4433810287
22.3950535999 13.9939643302 9.4194346565
22.4643068212 14.7765689269 9.7469152928
22.6157705082 14.6726945179 4.8935052204
23.3722603997 14.7731381574 4.4275792781
22.4952905294 15.6658923896 9.8352552962
22.8687240102 15.4011600292 4.7628620379
22.7559415630 16.2696156849 4.9088408668
22.3832047422 16.4795161900 9.7935229199
23.0130167553 17.2104363503 4.9283731489
22.2452126403 17.1045635127 9.6324041847
22.6432688565 16.9074878218 9.5844502436
22.6951626060 17.6304747785 9.2711412565
23.1380352635 18.0591399869 4.9948277823
22.7426100385 18.7295471273 8.9563358278
21.9956764217 19.7668544625 4.4809798992
22.7467137427 19.0543950040 4.8905565309
21.9424476922 19.4514528032 9.3114580564
22.3145623001 19.5867602721 8.9412519726
21.9239839927 20.3627147971 4.4597575935
22.6578279230 20.2118557053 5.0115265498
22.2170833350 20.2458943675 8.5464436309
21.8876033456 21.5461494350 5.8472853451
22.3086930509 21.0506632934 5.4050732824
21.9156391251 21.4462469986 6.5322122955
22.6663661730 20.9879645925 6.4296391157
22.7978757979 20.7105170073 7.3130653583
22.4969656061 20.5498182618 7.9748371726
23.9383532713 6.0278253342 4.5442715252
24.1833290113 5.7253434363 3.9183778349
24.2450301610 5.3808625144 4.4069418328
24.3819007656 5.2453905547 4.8434919471
24.2188432425 5.8350024232 5.1952387866
24.7204854808 5.2759514520 5.4188067837
23.6244912663 6.8322991751 3.5914152025
24.1938045815 6.5419432514 2.9132567893
24.1368310930 6.1214157337 3.4126113747
23.5044329232 6.9169054525 4.5687485937
23.8895586791 6.5673926511 5.2054625641
24.5208513424 6.2492304628 5.7622156224
23.7359438847 7.6497042397 2.4698965953
24.4415697648 7.6036286872 1.8501546877
24.3898073503 6.9802475444 2.3202225888
23.5390487182 7.2445022600 5.1753813978
23.9880401567 7.2890899243 5.8146682643
24.0302633955 8.4345637441 1.7156242276
24.4465879874 8.8857927615 1.3068127227
24.6998267164 8.1931545142 1.3911992861
23.8163593497 8.2714856493 6.2048701879
23.6223422862 9.2131166431 6.6223094962
24.4298882912 8.6918792978 6.8051120031
23.9578960014 9.3600346105 1.5632276385
24.7097251588 9.6268498365 1.2035000209
23.2361364939 9.8954360651 6.6960657393
24.0805753545 9.5093899739 7.1522673017
23.6029639619 10.0511307187 7.1999165432
24.1659888614 10.2244535146 7.5433625140
24.1712866988 10.1097519959 1.4846725391
24.3363581041 10.8743220954 1.7715609886
22.7078777942 10.8373919384 5.3591339832
24.3381672350 10.9704846988 7.8300790810
23.6796013704 11.9201460677 2.8180037684
24.3274851722 11.7308114787 2.3197476276
23.2426551839 12.0228030766 3.4667166309
22.9704034978 11.9727529245 4.0148439883
23.5555366606 11.9775315014 8.3204621690
24.2761423684 11.9940269961 8.1325698516
24.2505607106 12.3828681594 2.8042400847
23.7750949521 12.8364504331 3.4344313625
24.5827009907 12.8983537711 3.1413204079
23.1307795314 12.5812043028 4.0427346180
23.7715112590 12.5354671535 8.5306420695
23.7031096011 13.2851893507 8.7851180401
24.3108118219 13.3004899558 3.4868586518
23.9620533391 13.8982845412 3.9510839632
22.9712922299 14.3286866390 9.4409816868
23.6490162361 14.3533682190 9.0659516100
24.1322825432 14.7865041032 4.2953042611
23.1204920795 15.1441138945 9.4969524244
23.7669734530 15.5150150623 9.0687589621
23.5719393858 15.4866992070 4.5851171343
23.9852978444 16.1564129872 4.8517705769
23.1008332903 16.3570080989 9.4183519016
23.8098283036 16.3547285568 8.9542857477
24.1118641074 17.2587275236 5.2128670425
23.5693361907 17.1470790235 8.9164592130
24.1209069477 16.7630933963 8.6006334024
24.0844502262 17.5580022883 8.3631170450
23.7676374629 18.4274261684 5.3076242469
23.4121805202 18.1801325813 8.6896973068
23.9718716364 18.6171363317 8.0016032511
23.5400879439 19.3962689501 5.3741348824
23.2009504200 19.2903280321 8.4096555837
23.7007968367 19.4592858188 7.7918257852
23.4821718862 20.0268635379 5.5671736014
23.3374666755 20.4457235376 6.9489680926
23.7728108892 20.0940439719 6.6262454244
23.4078851585 20.5023959216 6.3450604662
23.2061248966 20.1154169353 7.7577493199
23.7821116675 19.8277246782 7.2072159592
22.7384648215 20.0294620002 8.3906380890
23.1267775629 20.5480226242 5.7678668691
25.2021289724 3.8602885890 4.7178492851
25.5510750228 3.7100194064 4.1360895448
25.7707829254 3.2319872355 4.5612624457
25.5003013934 3.5178168616 4.9741512556
25.2342098393 3.9471267979 5.1442006523
25.6059309441 3.7664092170 5.2489037659
24.7582972455 4.7441780157 4.2678996835
25.4165938529 4.4365292143 3.6470431258
24.8677561071 4.5277068361 5.0245846929
25.3677789301 4.5065167567 5.4662254085
24.7678427708 5.5231283335 3.3262980968
25.3807246342 5.6107377470 2.8064934492
25.6423840954 4.9269889187 3.1515217638
25.3573200817 5.5918014286 5.8757470841
24.8457396314 6.2672647495 2.5893666401
25.0117593446 6.8740784764 2.0308873356
25.6155601918 6.1161414744 2.3343881650
25.0989992557 6.3845159579 6.1809198537
24.7158047102 7.0289672701 6.2617512253
25.2937768537 6.8992873413 6.4245239469
25.1370879763 7.4922778416 1.5618531046
24.3944998506 7.7831903581 6.3957602808
25.1382660845 7.7689017319 6.6247586362
25.1903112901 8.7168229098 1.1341396793
25.2920699746 7.9856281224 1.2625264783
25.3732895195 8.9657075929 6.9521474008
25.4746107328 9.4361503817 1.0711138347
24.6834544779 9.5747289764 7.2868923359
24.8025323758 10.4130313072 7.5815210849
24.7038835147 10.3908272806 1.3430531576
25.4447895571 10.2183651466 1.2256695446
24.9080458458 11.3113997812 7.7579503888
25.1381134159 10.8390155823 1.5168779717
25.2918758632 11.5182783415 2.0280288705
25.0278559414 12.1748227654 7.8278444777
25.0661145910 12.3384445842 2.6852729295
25.2147178162 12.8924285712 3.1718260514
24.1966545930 12.9421558632 8.4659702885
24.8439617718 13.1300583144 8.0603132268
24.9852125706 13.4272870766 3.6337679939
24.7847321459 14.2296648042 4.1272696968
24.3119203410 13.8325084156 8.5583845623
24.9274078921 14.3849547063 8.0926151737
24.7212229127 14.8275797809 4.4052304630
24.3059473118 15.3211972653 4.5456921895
24.9919753036 15.2331114920 4.7739670218
24.3511033558 14.9352551280 8.6115665815
24.8823351138 15.5525595556 8.0627552329
25.0301393510 16.1324883762 5.2423184432
24.3068037126 15.9815150526 8.5887317111
24.6557153697 16.7589026847 8.0380985650
25.1147805366 16.8136858570 5.6786048135
24.5888865200 17.7865182078 5.7148981748
25.1311217555 17.2930813690 6.1032540405
24.5458755482 17.8410885771 7.7564154559
24.2871827095 18.7552223819 5.9140958742
24.8775134864 17.9497212946 6.2749984153
24.4464150208 18.6202093883 7.3531991656
24.7931392388 18.0814141862 7.2637018949
24.6887656938 18.5328561342 6.9234022458
23.9320586793 19.5680185227 5.8667019398
24.6737130462 18.5403944601 6.5013584325
24.2259673475 19.2945974818 6.6399243525
24.0822487497 19.2032743790 7.4181505571
23.7419663070 20.0727895413 6.0915966422
26.2845393075 2.8460155769 4.4891815021
26.4366707705 2.7838516673 3.9459036479
26.6418985476 2.5986627849 4.2613552493
26.7831960677 2.9003692878 4.5879067785
26.0816594715 3.6333282496 3.6210657207
26.0548201680 3.2929384623 4.9513371077
26.1532956370 4.0451492813 5.3697385445
25.9739908871 4.2600066322 3.3505112242
25.9718757870 4.9041845950 5.6881728834
26.2223486309 5.2220554430 2.7090570856
26.2833908312 4.5085817715 3.0715790080
26.2753487455 5.8177531278 5.8849023360
25.8837195501 6.8004360839 1.8178226371
26.5061023810 5.9082946468 2.2454292388
25.6948871223 6.3740057932 6.2402000127
25.8169436561 7.1785249188 6.4596413353
25.6989820546 7.5108823828 1.4044421022
25.8685400487 8.0261530088 1.2237172544
26.3407050261 7.2984114368 1.5283272240
25.9375692064 8.1168919515 6.6128196636
26.0899953452 8.7833461650 1.1520810882
26.1258889863 8.9921086444 6.6926569134
26.0590169217 9.6797971235 1.1540273292
25.2647981005 9.8960704605 7.2867968516
25.9608107989 9.9688107223 6.9219180050
26.1240336436 10.2848149960 1.2989588245
25.4383520106 10.7285741164 7.3803966341
26.0638295641 11.1866960551 6.9621230356
26.0789847311 10.8508451839 1.6838265737
26.2268711310 11.5208109373 2.2146610201
25.5207695933 11.7308911118 7.4479878878
26.0385528224 12.2807411950 6.9943808420
25.9876913636 12.0308305931 2.5956924884
25.5169931936 13.0385309339 3.4333819116
25.8949279143 12.6087476960 3.2299574687
25.8711692800 13.1397679311 3.8572141146
25.5107430577 12.7503137445 7.5137091153
25.9675963644 13.3247949343 7.0066949740
25.2007399562 14.5077511963 4.4508912613
25.5279675029 13.8455557240 4.2493960975
25.7065526564 14.4058651138 4.8296052195
25.4763150527 13.8380711291 7.5528430277
25.8956987312 14.3910960018 6.9649925361
25.6426695398 15.2224846888 5.2764487887
25.4385310154 14.9872155897 7.5127453527
25.7795344354 15.4494506856 6.8872269717
25.6066375334 15.8470023426 5.5269718613
25.4140734947 16.2583894363 5.5530073639
25.6495867266 16.1476214939 5.8425300121
25.3052559099 16.2310090576 7.3486067162
25.6293802877 16.2753867851 6.7132680178
25.2723524174 17.1271634855 6.6995449177
25.5170027625 16.6113935149 6.2259211038
24.9889096631 17.3502827369 7.3462697666
24.9532358759 17.9621079896 6.8383031992
27.0553609386 2.1306997196 3.6212649513
27.2667705873 2.1702150697 3.4014104277
27.2665469161 1.9299431896 3.5010656453
27.2524220412 1.9668548162 3.6208873949
26.9281831789 2.4402886949 3.4968213837
27.1702603682 2.6152527864 3.2980139710
27.2141816193 2.3548953172 3.9466325671
27.5340851009 2.8883423042 4.3367357229
26.7268089539 3.0334856734 3.4288361978
27.1867129289 3.2580038246 3.1576797816
26.6155123437 3.4878403450 5.0433952994
27.2746070465 3.6086838814 4.7636043384
26.5556214828 3.8162239550 3.2436687931
27.0447706775 4.2661424286 2.9208918447
26.8320989959 4.0558753452 5.1951443814
26.6994348316 4.8964130518 5.4640296839
27.1273486437 5.1407523099 2.5498595370
26.9066596979 5.8323499266 5.5116480988
26.9123396023 6.4333651861 2.0180056140
27.2131045958 5.6917746597 2.2883812201
27.3775749098 6.9768991746 4.1218230694
27.4683045614 6.5020454994 4.0297214781
27.4277083703 6.9120697133 3.7353355044
27.4139585842 6.5189589675 4.4479127702
26.2500355757 6.6904924433 6.1820079688
26.8248556390 6.8115468657 5.7292743488
26.5683410235 7.9246013840 1.4104192160
26.9575323423 7.1852424770 1.7937902019
27.3931772379 7.3685636946 3.7488174883
27.4517140354 7.2171798408 3.3920924970
27.4572843261 7.7061445671 3.3786477580
27.3743096915 7.4533833239 4.1358537531
27.3561698075 7.1356561078 4.5564653107
26.4425721831 7.5139072177 6.2453741273
26.9929062306 7.9984960411 5.7868654248
26.7461759353 8.4950975292 1.4136942738
26.6249768155 9.2004862365 1.3456904372
27.0427154870 8.7651392101 1.6868249250
27.4619004691 7.9321712978 3.8497473698
27.4255656039 7.8000425186 4.3865637532
26.5844024466 8.5078176333 6.3135087252
27.1386781684 9.0344578502 5.8279107368
26.5556441340 9.9427752554 1.4074785467
27.0209877256 9.4844546795 1.7633467764
26.6553870553 9.5314900595 6.3831660288
27.2788925853 10.1436019370 5.8155993637
26.4351146166 10.4172648085 1.4853985135
26.8780146889 10.3220671283 1.8844338466
26.6466642957 10.6204354641 6.4412138612
27.1041131905 11.0854906393 5.9649634791
26.6494749325 11.7472469173 2.6377289552
27.0093093132 11.0964431139 2.4944851328
27.1160261585 11.6599229703 3.0135695109
26.6070307293 11.8266415837 6.3520368946
27.1357368106 11.8199850954 5.6192917302
26.6699026943 12.1057255076 3.1529322260
26.3000012851 13.3534493135 4.7439059458
26.7158832815 12.4860490195 3.9993378417
26.6086660371 12.9069186818 5.7516711727
27.0253584090 12.3635967270 4.9611333778
26.3441931586 12.8359907046 6.5143104112
26.1506694499 14.2834352745 5.5850220835
26.2413877315 13.7828186899 6.3716326456
25.9178064032 15.3823896046 5.8075371141
26.0611606350 14.8695564832 6.3322304241
25.8509720176 15.8161409525 6.3119719736
27.4488048390 2.0972011035 3.5227035647
27.6054681030 2.6032374861 3.2751889723
27.8949079232 2.4435250675 3.6039572415
27.8423181925 2.5827363994 3.9843948093
28.2766918659 2.8121443284 3.7982008680
27.7481913430 3.4678800687 3.0412726813
28.0306688047 2.9641230540 4.1188995435
27.8980434881 3.4925922322 4.3268364612
27.8987314592 4.4582702370 2.8639425871
27.2777580890 4.6104092924 4.9517545095
27.7648272001 4.3343740336 4.4292689707
27.6311324123 5.2328515852 2.4865048578
27.6639020789 5.6965760690 2.4065523979
27.8997867220 5.1366543526 2.5854912007
27.8678638252 5.6930937694 3.3538463604
28.1266119775 5.1063671269 3.2421030596
27.9762023054 5.6266686882 2.8562036393
27.5832378637 5.6314445043 4.3276580248
28.0362972265 4.8315068617 3.8284300460
27.2018209795 5.4369055590 5.1197060725
27.5530165797 6.4776605254 2.5176919279
27.8905214408 5.7353289977 2.5851174347
27.5644617380 6.5574387205 3.4370538406
27.2652701505 6.4103119839 5.0163620924
27.1585558236 7.8738309019 1.9234460339
27.4718380619 7.5728277143 2.8424448315
27.3029830481 7.6415541323 5.0413597001
27.3757922719 8.7878212252 2.3608624384
27.5415472389 8.4075026569 3.2729619740
27.6361335648 8.7693256909 4.2899256143
27.3922714589 8.5853390709 5.2534678204
27.3302124767 9.7389632548 2.2878113411
27.6780727118 9.5926798392 3.1512348647
27.9447737444 9.7125943453 3.9699970819
27.9411270098 9.6640389685 4.5191415884
27.9836444482 10.0615343877 4.8402908597
27.6566655088 9.4998176283 5.1456761543
27.3857214944 10.3182642328 2.5376637350
27.6887934605 10.5832179952 3.1199169605
27.9721421717 10.2091468022 3.6436596054
27.7827197757 10.2613992288 5.2501543090
27.5959407250 10.9856357645 5.3787757615
27.3112500358 11.8181312379 3.6538625634
27.5791282681 11.2549244998 3.3274342884
27.4559552406 11.8422167549 4.4365302491
27.8105578156 11.3267561316 4.0590323717
27.4924603128 11.6686532457 5.0704477925
27.8368320338 11.2354789627 4.7325329730
28.0484589106 2.8660015457 3.2643526756
28.2892542554 2.6362071937 3.5670331571
28.4621703147 2.8582246023 3.6652021285
28.1300866401 3.6315165706 3.0562782744
28.2712709439 3.4475763522 3.9265875463
28.4410930604 3.4039096882 3.6228776094
28.3131233311 3.9118379717 3.2290319822
28.2666364885 4.2740142210 3.4459335355
28.1349580143 4.0476719769 4.0342650322
28.0526996903 5.1456444632 2.8094902557
28.0861415721 10.2781065910 4.2901732723
27.9761170228 10.7772713313 3.7897348102
28.0566724747 10.8620620975 4.3640269647
27.9936775054 10.6191965418 4.8478562924
3 2 1 0
3 0 3 2
3 1 4 0
3 0 4 3
3 7 6 5
3 5 8 7
3 5 6 2
3 6 1 2
3 6 9 1
3 2 3 5
3 3 8 5
3 3 10 8
3 9 11 1
3 1 11 4
3 3 4 10
3 10 4 11
3 14 13 12
3 16 15 12
3 12 15 14
3 16 17 15
3 20 19 18
3 20 18 13
3 18 12 13
3 18 21 12
3 12 22 16
3 12 21 22
3 17 16 23
3 16 24 23
3 16 22 24
3 24 25 23
3 28 27 26
3 28 26 19
3 26 18 19
3 26 29 18
3 18 30 21
3 18 29 30
3 21 31 22
3 21 30 31
3 22 32 24
3 22 31 32
3 25 24 33
3 24 34 33
3 24 32 34
3 36 35 34
3 34 35 33
3 38 37 36
3 36 37 35
3 40 39 38
3 38 39 37
3 40 41 39
3 27 42 26
3 26 42 29
3 29 42 43
3 45 44 43
3 44 29 43
3 44 30 29
3 30 46 31
3 30 44 46
3 31 47 32
3 31 46 47
3 32 48 34
3 32 47 48
3 34 49 36
3 34 48 49
3 36 50 38
3 36 49 50
3 38 51 40
3 38 50 51
3 41 40 52
3 52 40 51
3 44 45 53
3 53 45 54
3 44 55 46
3 44 53 55
3 46 56 47
3 46 55 56
3 47 57 48
3 47 56 57
3 48 58 49
3 48 57 58
3 60 50 59
3 50 58 59
3 50 49 58
3 50 60 51
3 51 60 61
3 51 61 52
3 54 62 53
3 53 62 55
3 55 62 63
3 55 63 56
3 56 63 64
3 56 64 57
3 57 64 65
3 57 65 58
3 58 65 66
3 58 66 59
3 69 68 67
3 67 70 69
3 68 71 67
3 72 6 7
3 71 70 67
3 8 72 7
3 73 9 72
3 72 9 6
3 10 73 8
3 8 73 72
3 73 11 9
3 11 73 10
3 76 75 74
3 78 77 74
3 74 77 76
3 80 79 78
3 78 79 77
3 82 81 80
3 80 81 79
3 82 83 81
3 86 85 84
3 86 84 75
3 75 84 74
3 84 13 74
3 13 14 74
3 74 14 15
3 74 15 78
3 78 15 17
3 87 78 17
3 80 78 87
3 80 88 82
3 80 87 88
3 83 82 89
3 82 90 89
3 82 88 90
3 92 91 90
3 90 91 89
3 92 93 91
3 96 95 94
3 96 94 85
3 85 94 84
3 94 19 84
3 19 20 84
3 84 20 13
3 23 87 17
3 87 23 25
3 97 87 25
3 88 87 97
3 88 98 90
3 88 97 98
3 90 99 92
3 90 98 99
3 93 92 100
3 92 101 100
3 92 99 101
3 101 102 100
3 94 95 28
3 95 27 28
3 95 103 27
3 94 28 19
3 33 97 25
3 97 33 35
3 97 35 98
3 98 35 37
3 98 37 99
3 99 37 39
3 99 39 101
3 39 41 101
3 41 102 101
3 41 104 102
3 42 27 105
3 27 106 105
3 27 103 106
3 107 43 42
3 107 42 105
3 107 45 43
3 52 104 41
3 52 108 104
3 106 109 105
3 105 109 107
3 107 109 110
3 45 107 110
3 111 45 110
3 54 45 111
3 59 112 60
3 113 61 60
3 113 60 112
3 113 114 61
3 114 52 61
3 114 108 52
3 111 115 54
3 54 115 62
3 115 117 116
3 63 115 116
3 62 115 63
3 118 64 63
3 118 63 116
3 119 65 64
3 119 64 118
3 120 66 65
3 120 65 119
3 120 121 66
3 66 121 59
3 121 122 59
3 122 112 59
3 124 123 122
3 68 122 123
3 122 68 112
3 69 112 68
3 112 69 113
3 123 124 70
3 124 114 70
3 113 69 70
3 113 70 114
3 117 125 116
3 116 125 118
3 118 125 126
3 118 126 119
3 119 126 127
3 119 127 120
3 120 127 128
3 120 128 121
3 123 71 68
3 71 123 70
3 131 130 129
3 133 132 129
3 129 132 131
3 135 134 133
3 133 134 132
3 135 136 134
3 139 138 137
3 141 140 137
3 137 140 139
3 140 141 130
3 141 129 130
3 141 142 129
3 129 143 133
3 129 142 143
3 133 144 135
3 133 143 144
3 136 135 145
3 135 146 145
3 135 144 146
3 146 147 145
3 150 149 148
3 150 148 138
3 138 148 137
3 148 75 137
3 75 76 137
3 137 76 77
3 137 77 141
3 141 77 79
3 141 79 142
3 142 79 81
3 142 81 143
3 143 81 83
3 151 143 83
3 144 143 151
3 144 152 146
3 144 151 152
3 147 146 153
3 153 146 152
3 148 149 86
3 149 85 86
3 149 154 85
3 148 86 75
3 89 151 83
3 151 89 91
3 151 91 152
3 156 155 93
3 93 155 91
3 155 153 91
3 153 152 91
3 156 157 155
3 159 158 96
3 96 158 95
3 96 85 154
3 96 154 159
3 100 156 93
3 161 160 102
3 102 160 100
3 160 157 100
3 157 156 100
3 161 162 160
3 165 164 163
3 158 165 163
3 103 158 163
3 95 158 103
3 104 166 161
3 104 161 102
3 162 161 167
3 167 161 166
3 170 169 168
3 170 168 164
3 168 163 164
3 168 171 163
3 171 106 103
3 171 103 163
3 108 172 166
3 108 166 104
3 167 166 173
3 173 166 172
3 169 174 168
3 168 174 171
3 171 174 175
3 171 175 106
3 175 109 106
3 175 176 109
3 176 178 177
3 110 176 177
3 109 176 110
3 177 111 110
3 180 179 172
3 108 180 172
3 114 180 108
3 172 179 173
3 177 178 181
3 181 178 182
3 183 115 111
3 177 183 111
3 181 183 177
3 183 117 115
3 121 184 122
3 122 184 185
3 186 122 185
3 124 122 186
3 114 124 180
3 180 124 186
3 182 187 181
3 181 187 183
3 183 187 188
3 188 190 189
3 188 189 125
3 183 188 125
3 117 183 125
3 191 126 125
3 191 125 189
3 192 127 126
3 192 126 191
3 127 192 193
3 194 127 193
3 128 127 194
3 121 128 184
3 128 195 184
3 128 194 195
3 184 195 185
3 190 196 189
3 189 196 191
3 191 196 197
3 191 197 192
3 192 197 198
3 192 198 193
3 201 200 199
3 130 131 199
3 131 201 199
3 131 202 201
3 203 131 132
3 203 202 131
3 204 132 134
3 204 203 132
3 206 205 136
3 205 134 136
3 205 204 134
3 206 207 205
3 210 209 208
3 138 139 208
3 139 210 208
3 139 211 210
3 140 199 200
3 211 140 200
3 139 140 211
3 199 140 130
3 145 206 136
3 145 147 206
3 147 207 206
3 147 212 207
3 208 209 150
3 209 149 150
3 209 213 149
3 208 150 138
3 153 215 214
3 212 153 214
3 147 153 212
3 215 216 214
3 213 154 149
3 217 154 213
3 155 215 153
3 155 157 215
3 157 216 215
3 157 218 216
3 220 219 159
3 159 219 158
3 159 154 217
3 159 217 220
3 221 218 157
3 221 157 160
3 160 162 221
3 221 162 222
3 223 164 165
3 224 223 165
3 158 224 165
3 219 224 158
3 167 226 225
3 222 167 225
3 162 167 222
3 226 227 225
3 228 169 170
3 229 228 170
3 229 170 164
3 230 229 164
3 223 230 164
3 230 223 224
3 232 231 226
3 167 232 226
3 173 232 167
3 226 231 227
3 228 174 169
3 229 233 228
3 233 174 228
3 233 175 174
3 233 235 234
3 176 233 234
3 175 233 176
3 234 178 176
3 237 236 179
3 237 179 180
3 173 179 232
3 232 179 236
3 235 238 234
3 178 234 238
3 239 178 238
3 182 178 239
3 241 240 186
3 241 186 185
3 180 186 237
3 237 186 240
3 239 242 182
3 182 242 187
3 242 244 243
3 188 242 243
3 187 242 188
3 243 190 188
3 193 245 194
3 194 245 246
3 247 194 246
3 195 194 247
3 185 195 241
3 241 195 247
3 244 248 243
3 243 248 190
3 248 196 190
3 248 249 196
3 249 251 250
3 197 249 250
3 196 249 197
3 197 250 252
3 253 197 252
3 198 197 253
3 193 198 245
3 198 254 245
3 198 253 254
3 245 254 246
3 251 255 250
3 250 255 252
3 258 257 256
3 260 259 256
3 256 259 258
3 260 261 259
3 264 263 262
3 264 262 257
3 257 262 256
3 262 200 256
3 200 201 256
3 256 201 202
3 256 202 260
3 265 261 260
3 202 265 260
3 203 265 202
3 267 265 266
3 265 204 266
3 265 203 204
3 205 268 204
3 204 268 266
3 207 268 205
3 270 269 210
3 210 269 209
3 211 262 263
3 270 211 263
3 210 211 270
3 262 211 200
3 271 267 266
3 271 266 268
3 271 268 272
3 268 207 272
3 207 273 272
3 207 212 273
3 269 213 209
3 274 213 269
3 275 273 212
3 275 212 214
3 214 216 275
3 275 216 276
3 274 217 213
3 277 217 274
3 218 276 216
3 218 278 276
3 279 219 220
3 280 279 220
3 217 280 220
3 277 280 217
3 281 278 218
3 281 218 221
3 221 222 281
3 281 222 282
3 284 283 279
3 283 219 279
3 283 224 219
3 284 279 280
3 285 282 222
3 285 222 225
3 287 286 227
3 286 225 227
3 286 285 225
3 288 229 230
3 289 288 230
3 224 289 230
3 283 289 224
3 232 290 231
3 287 227 231
3 290 287 231
3 291 287 290
3 288 233 229
3 235 233 288
3 289 235 288
3 292 235 289
3 237 293 236
3 293 294 236
3 236 294 232
3 294 295 232
3 295 290 232
3 290 295 291
3 291 295 296
3 292 297 235
3 235 297 238
3 239 238 297
3 239 297 298
3 241 299 240
3 299 300 240
3 240 300 237
3 300 301 237
3 301 293 237
3 293 301 294
3 298 302 239
3 239 302 242
3 244 242 302
3 244 302 303
3 246 304 247
3 304 305 247
3 247 305 241
3 305 306 241
3 306 299 241
3 299 306 300
3 303 307 244
3 244 307 248
3 307 309 308
3 249 307 308
3 248 307 249
3 308 251 249
3 252 310 253
3 253 310 311
3 312 253 311
3 254 253 312
3 246 254 304
3 254 313 304
3 254 312 313
3 304 313 305
3 309 314 308
3 314 316 315
3 314 315 255
3 308 314 255
3 251 308 255
3 310 252 255
3 315 310 255
3 317 310 315
3 311 310 318
3 318 310 317
3 321 320 319
3 323 322 319
3 319 322 321
3 323 324 322
3 319 320 325
3 325 320 326
3 325 257 258
3 323 325 258
3 319 325 323
3 327 324 323
3 258 327 323
3 259 327 258
3 259 261 327
3 327 261 328
3 325 326 264
3 326 263 264
3 326 329 263
3 325 264 257
3 261 265 330
3 331 261 330
3 328 261 331
3 267 330 265
3 332 269 270
3 333 332 270
3 263 333 270
3 329 333 263
3 334 331 330
3 334 330 267
3 271 334 267
3 335 334 271
3 337 335 336
3 335 272 336
3 335 271 272
3 273 336 272
3 339 338 332
3 338 269 332
3 338 274 269
3 339 332 333
3 340 337 336
3 342 340 341
3 341 340 275
3 340 336 275
3 336 273 275
3 276 341 275
3 338 277 274
3 343 277 338
3 344 342 341
3 341 276 344
3 276 345 344
3 276 278 345
3 343 280 277
3 346 280 343
3 278 281 347
3 348 278 347
3 345 278 348
3 282 347 281
3 350 349 284
3 284 349 283
3 284 280 346
3 284 346 350
3 351 348 347
3 353 351 352
3 352 351 285
3 351 347 285
3 347 282 285
3 286 354 285
3 285 354 352
3 349 289 283
3 355 289 349
3 353 352 356
3 353 356 357
3 358 352 354
3 356 352 358
3 355 292 289
3 359 292 355
3 357 356 295
3 294 357 295
3 360 357 294
3 295 356 296
3 296 356 358
3 359 361 292
3 292 361 297
3 298 297 361
3 298 361 362
3 364 363 301
3 364 301 300
3 294 301 360
3 360 301 363
3 362 365 298
3 298 365 302
3 303 302 365
3 303 365 366
3 368 367 306
3 368 306 305
3 300 306 364
3 364 306 367
3 366 369 303
3 303 369 307
3 309 307 369
3 309 369 370
3 372 371 312
3 372 312 311
3 312 373 313
3 371 373 312
3 305 313 368
3 368 313 373
3 370 374 309
3 309 374 314
3 376 375 316
3 314 376 316
3 374 376 314
3 378 377 375
3 378 375 376
3 378 372 377
3 372 318 377
3 372 311 318
3 381 380 379
3 320 321 379
3 321 381 379
3 321 382 381
3 383 321 322
3 383 382 321
3 385 384 324
3 384 322 324
3 384 383 322
3 385 386 384
3 379 380 387
3 387 380 388
3 387 326 320
3 387 320 379
3 385 324 327
3 391 390 389
3 390 391 328
3 391 386 328
3 385 327 328
3 385 328 386
3 388 392 387
3 326 387 392
3 393 326 392
3 329 326 393
3 394 389 390
3 390 328 394
3 328 395 394
3 328 331 395
3 393 333 329
3 396 333 393
3 331 334 397
3 398 331 397
3 395 331 398
3 335 399 334
3 334 399 397
3 337 399 335
3 400 338 339
3 401 400 339
3 333 401 339
3 396 401 333
3 402 398 397
3 402 397 399
3 402 399 403
3 405 403 404
3 404 403 340
3 403 399 340
3 399 337 340
3 342 404 340
3 407 406 400
3 406 338 400
3 406 343 338
3 407 400 401
3 408 405 404
3 410 408 409
3 409 408 344
3 408 404 344
3 404 342 344
3 345 409 344
3 406 346 343
3 411 346 406
3 410 409 412
3 410 412 413
3 348 412 345
3 345 412 409
3 414 349 350
3 415 414 350
3 346 415 350
3 411 415 346
3 416 413 412
3 418 416 417
3 417 416 351
3 416 412 351
3 412 348 351
3 353 417 351
3 419 355 414
3 414 355 349
3 414 415 420
3 414 420 419
3 421 418 417
3 417 353 421
3 353 422 421
3 353 357 422
3 423 359 419
3 419 359 355
3 419 420 424
3 419 424 423
3 427 426 425
3 426 422 425
3 422 360 425
3 422 357 360
3 423 361 359
3 429 428 362
3 429 362 361
3 424 429 361
3 423 424 361
3 430 428 429
3 427 425 363
3 364 427 363
3 431 427 364
3 363 425 360
3 428 365 362
3 366 365 428
3 430 366 428
3 432 366 430
3 435 434 433
3 367 368 433
3 434 367 433
3 436 367 434
3 364 367 431
3 431 367 436
3 432 437 366
3 366 437 369
3 439 438 370
3 369 439 370
3 437 439 369
3 441 440 438
3 441 438 439
3 443 442 440
3 443 440 441
3 371 372 442
3 443 371 442
3 444 371 443
3 433 373 435
3 373 444 435
3 373 371 444
3 373 433 368
3 438 374 370
3 374 438 376
3 376 438 440
3 376 440 378
3 378 440 442
3 378 442 372
3 447 446 445
3 449 448 445
3 445 448 447
3 449 450 448
3 452 451 381
3 381 451 380
3 382 445 446
3 452 382 446
3 381 382 452
3 445 382 383
3 445 383 449
3 453 450 449
3 383 453 449
3 384 453 383
3 384 386 453
3 453 386 454
3 451 388 380
3 455 388 451
3 457 456 391
3 457 391 389
3 386 391 454
3 454 391 456
3 455 458 388
3 388 458 392
3 393 392 458
3 393 458 459
3 389 394 460
3 461 389 460
3 457 389 461
3 395 460 394
3 459 396 393
3 462 396 459
3 465 464 463
3 463 464 461
3 460 463 461
3 466 463 460
3 398 466 395
3 395 466 460
3 468 401 467
3 401 462 467
3 401 396 462
3 465 463 469
3 467 470 468
3 469 463 466
3 469 466 471
3 471 466 398
3 402 471 398
3 472 471 402
3 474 472 473
3 472 403 473
3 472 402 403
3 405 473 403
3 475 406 407
3 476 475 407
3 476 407 401
3 477 476 401
3 468 477 401
3 477 468 470
3 478 474 473
3 480 478 479
3 479 478 408
3 478 473 408
3 473 405 408
3 410 479 408
3 481 411 475
3 475 411 406
3 475 476 482
3 475 482 481
3 480 479 483
3 480 483 484
3 413 483 410
3 410 483 479
3 485 415 481
3 481 415 411
3 481 482 486
3 481 486 485
3 487 484 483
3 489 487 488
3 488 487 416
3 487 483 416
3 483 413 416
3 418 488 416
3 491 490 485
3 490 415 485
3 490 420 415
3 491 485 486
3 489 488 492
3 489 492 493
3 421 494 418
3 494 488 418
3 494 492 488
3 422 494 421
3 496 424 495
3 424 490 495
3 424 420 490
3 497 496 495
3 493 492 498
3 493 498 499
3 427 498 426
3 498 494 426
3 498 492 494
3 426 494 422
3 496 429 424
3 430 429 496
3 497 430 496
3 500 430 497
3 503 502 501
3 501 502 499
3 498 501 499
3 504 501 498
3 431 504 427
3 427 504 498
3 506 432 505
3 432 500 505
3 432 430 500
3 508 507 506
3 508 506 505
3 510 509 507
3 510 507 508
3 512 511 509
3 512 509 510
3 514 513 511
3 514 511 512
3 513 514 503
3 513 503 501
3 435 513 501
3 434 435 501
3 434 501 436
3 436 501 504
3 436 504 431
3 506 437 432
3 437 506 439
3 439 506 507
3 439 507 441
3 441 507 509
3 441 509 443
3 443 509 511
3 443 511 444
3 444 511 513
3 444 513 435
3 517 516 515
3 446 447 515
3 447 517 515
3 447 518 517
3 519 447 448
3 519 518 447
3 521 520 450
3 520 448 450
3 520 519 448
3 521 522 520
3 515 516 452
3 516 451 452
3 516 523 451
3 515 452 446
3 453 521 450
3 453 454 521
3 454 522 521
3 454 524 522
3 523 455 451
3 525 455 523
3 528 527 526
3 456 457 526
3 527 456 526
3 529 456 527
3 454 456 524
3 524 456 529
3 458 455 530
3 455 531 530
3 455 525 531
3 459 458 530
3 534 533 532
3 534 532 528
3 526 534 528
3 535 534 526
3 461 535 457
3 457 535 526
3 531 536 530
3 459 530 462
3 536 462 530
3 462 536 537
3 533 537 536
3 537 533 534
3 465 537 464
3 537 535 464
3 537 534 535
3 464 535 461
3 537 467 462
3 470 467 538
3 467 537 538
3 465 469 538
3 465 538 537
3 471 539 469
3 469 539 538
3 472 540 471
3 471 540 539
3 474 540 472
3 541 476 477
3 470 538 477
3 538 541 477
3 538 542 541
3 539 544 543
3 542 539 543
3 538 539 542
3 546 545 544
3 539 546 544
3 540 546 539
3 478 547 474
3 547 540 474
3 547 546 540
3 480 547 478
3 548 482 541
3 541 482 476
3 542 550 549
3 548 542 549
3 541 542 548
3 550 542 543
3 545 546 551
3 545 551 552
3 553 546 547
3 551 546 553
3 484 553 480
3 480 553 547
3 554 486 548
3 548 486 482
3 548 549 555
3 548 555 554
3 556 552 551
3 558 557 556
3 551 558 556
3 553 558 551
3 487 559 484
3 559 553 484
3 559 558 553
3 489 559 487
3 560 490 491
3 486 554 491
3 554 560 491
3 554 561 560
3 554 555 562
3 554 562 561
3 565 564 563
3 563 564 557
3 558 563 557
3 566 563 558
3 567 558 559
3 566 558 567
3 493 567 489
3 489 567 559
3 560 495 490
3 495 560 497
3 560 568 497
3 560 561 568
3 561 562 569
3 570 561 569
3 568 561 570
3 572 571 570
3 572 570 569
3 571 572 565
3 563 571 565
3 573 571 563
3 574 563 566
3 573 563 574
3 575 566 567
3 574 566 575
3 499 575 493
3 493 575 567
3 576 500 568
3 568 500 497
3 577 568 570
3 576 568 577
3 578 570 571
3 577 570 578
3 579 571 573
3 578 571 579
3 580 573 574
3 579 573 580
3 503 580 502
3 580 575 502
3 580 574 575
3 502 575 499
3 576 505 500
3 505 576 508
3 508 576 577
3 508 577 510
3 510 577 578
3 510 578 512
3 512 578 579
3 512 579 514
3 514 579 580
3 514 580 503
3 582 581 517
3 517 581 516
3 583 517 518
3 583 582 517
3 584 518 519
3 584 583 518
3 585 519 520
3 585 584 519
3 520 522 585
3 585 522 586
3 581 523 516
3 587 523 581
3 590 589 588
3 589 586 588
3 586 524 588
3 586 522 524
3 587 525 523
3 591 525 587
3 593 592 527
3 593 527 528
3 588 529 590
3 529 592 590
3 529 527 592
3 529 588 524
3 596 595 594
3 599 598 597
3 596 594 591
3 531 591 594
3 591 531 525
3 532 533 597
3 598 532 597
3 600 532 598
3 528 532 593
3 593 532 600
3 595 601 594
3 599 597 601
3 597 536 601
3 531 594 601
3 531 601 536
3 536 597 533
3 602 543 544
3 545 602 544
3 603 549 550
3 543 602 550
3 602 603 550
3 602 604 603
3 552 604 545
3 545 604 602
3 605 555 603
3 603 555 549
3 606 603 604
3 605 603 606
3 556 607 552
3 607 604 552
3 607 606 604
3 557 607 556
3 608 562 605
3 605 562 555
3 609 605 606
3 608 605 609
3 565 609 564
3 609 607 564
3 609 606 607
3 564 607 557
3 608 569 562
3 569 608 572
3 572 608 609
3 572 609 565
3 611 610 582
3 582 610 581
3 612 582 583
3 612 611 582
3 613 583 584
3 613 612 583
3 615 613 614
3 613 585 614
3 613 584 585
3 586 614 585
3 610 587 581
3 616 587 610
3 615 614 589
3 590 615 589
3 617 615 590
3 589 614 586
3 616 591 587
3 618 591 616
3 621 620 619
3 592 593 619
3 620 592 619
3 622 592 620
3 590 592 617
3 617 592 622
3 623 595 596
3 598 599 624
3 623 624 599
3 624 623 618
3 596 618 623
3 618 596 591
3 619 600 621
3 600 624 621
3 600 598 624
3 600 619 593
3 623 601 595
3 601 623 599
3 627 626 625
3 629 628 625
3 625 628 627
3 629 630 628
3 632 631 611
3 611 631 610
3 612 625 626
3 632 612 626
3 611 612 632
3 625 612 613
3 625 613 629
3 613 615 629
3 615 630 629
3 615 633 630
3 631 616 610
3 634 616 631
3 637 636 635
3 636 633 635
3 633 617 635
3 633 615 617
3 639 618 638
3 618 634 638
3 618 616 634
3 620 621 639
3 638 620 639
3 640 620 638
3 635 622 637
3 622 640 637
3 622 620 640
3 622 635 617
3 639 624 618
3 624 639 621
3 643 642 641
3 626 627 641
3 627 643 641
3 627 644 643
3 645 627 628
3 645 644 627
3 647 646 630
3 646 628 630
3 646 645 628
3 647 648 646
3 641 642 632
3 642 631 632
3 642 649 631
3 641 632 626
3 651 650 647
3 630 651 647
3 633 651 630
3 647 650 648
3 649 634 631
3 652 634 649
3 654 653 636
3 654 636 637
3 633 636 651
3 651 636 653
3 652 655 634
3 634 655 638
3 638 656 640
3 655 656 638
3 637 640 654
3 654 640 656
3 659 658 657
3 661 660 657
3 657 660 659
3 661 662 660
3 657 658 643
3 658 642 643
3 658 663 642
3 657 643 644
3 657 644 661
3 664 662 661
3 644 664 661
3 645 664 644
3 665 645 646
3 665 664 645
3 646 648 665
3 665 648 666
3 669 668 667
3 663 669 667
3 649 663 667
3 642 663 649
3 671 670 650
3 671 650 651
3 648 650 666
3 666 650 670
3 668 672 667
3 649 667 672
3 673 649 672
3 652 649 673
3 675 674 653
3 675 653 654
3 651 653 671
3 671 653 674
3 673 676 652
3 652 676 655
3 655 677 656
3 676 677 655
3 654 656 675
3 675 656 677
3 679 678 659
3 659 678 658
3 680 659 660
3 680 679 659
3 660 662 680
3 680 662 681
3 678 663 658
3 682 663 678
3 683 681 662
3 683 662 664
3 684 664 665
3 684 683 664
3 665 666 684
3 684 666 685
3 687 686 669
3 669 686 668
3 669 663 682
3 669 682 687
3 689 688 670
3 689 670 671
3 666 670 685
3 685 670 688
3 672 668 690
3 668 691 690
3 668 686 691
3 690 673 672
3 693 692 674
3 693 674 675
3 671 674 689
3 689 674 692
3 691 694 690
3 690 694 673
3 694 676 673
3 694 695 676
3 676 696 677
3 695 696 676
3 675 677 693
3 693 677 696
3 699 698 697
3 697 700 699
3 698 701 697
3 697 701 700
3 703 702 679
3 679 702 678
3 704 679 680
3 704 703 679
3 706 705 681
3 705 680 681
3 705 704 680
3 706 707 705
3 710 709 708
3 702 710 708
3 682 702 708
3 678 702 682
3 683 706 681
3 711 707 706
3 683 711 706
3 684 711 683
3 713 712 685
3 712 684 685
3 712 711 684
3 713 714 712
3 708 709 687
3 709 686 687
3 709 715 686
3 708 687 682
3 717 716 688
3 717 688 689
3 685 688 713
3 688 718 713
3 688 716 718
3 713 718 714
3 715 691 686
3 719 691 715
3 721 720 692
3 721 692 693
3 689 692 717
3 717 692 720
3 719 722 691
3 691 722 694
3 694 723 695
3 722 723 694
3 723 725 724
3 696 723 724
3 695 723 696
3 724 726 696
3 726 693 696
3 726 721 693
3 725 727 724
3 724 727 726
3 730 729 728
3 732 731 728
3 728 731 730
3 734 733 732
3 732 733 731
3 734 735 733
3 729 736 728
3 738 737 736
3 737 728 736
3 737 732 728
3 737 698 699
3 734 737 699
3 732 737 734
3 740 739 700
3 700 739 699
3 739 735 699
3 735 734 699
3 740 741 739
3 737 738 742
3 742 738 743
3 744 701 698
3 737 744 698
3 742 744 737
3 740 700 701
3 744 740 701
3 745 740 744
3 741 740 746
3 746 740 745
3 749 748 747
3 751 750 747
3 747 750 749
3 753 752 751
3 751 752 750
3 755 754 753
3 754 742 753
3 743 752 753
3 743 753 742
3 742 754 744
3 744 754 756
3 744 756 745
3 745 756 757
3 745 757 746
3 759 758 703
3 703 758 702
3 704 747 748
3 759 704 748
3 703 704 759
3 747 704 705
3 747 705 751
3 751 705 707
3 760 751 707
3 753 751 760
3 755 753 761
3 753 762 761
3 753 760 762
3 762 763 761
3 764 709 710
3 765 764 710
3 702 765 710
3 758 765 702
3 711 760 707
3 760 711 712
3 760 712 762
3 712 714 762
3 714 763 762
3 714 766 763
3 768 767 764
3 767 709 764
3 767 715 709
3 768 764 765
3 717 769 716
3 770 718 716
3 770 716 769
3 770 771 718
3 771 714 718
3 771 766 714
3 773 719 772
3 719 767 772
3 719 715 767
3 774 773 772
3 721 775 720
3 775 776 720
3 720 776 717
3 776 777 717
3 777 769 717
3 769 777 770
3 770 777 778
3 770 778 771
3 773 722 719
3 774 779 773
3 779 722 773
3 779 723 722
3 725 723 779
3 725 779 780
3 782 781 775
3 721 782 775
3 726 782 721
3 775 781 776
3 780 783 725
3 725 783 727
3 726 727 782
3 782 727 783
3 786 785 784
3 784 787 786
3 785 788 784
3 784 788 787
3 791 790 789
3 793 792 789
3 789 792 791
3 795 794 793
3 793 794 792
3 795 796 794
3 789 790 797
3 797 790 798
3 797 729 730
3 793 797 730
3 789 797 793
3 793 730 731
3 793 731 795
3 799 796 795
3 731 799 795
3 733 799 731
3 733 735 799
3 799 735 800
3 803 802 801
3 803 801 798
3 801 797 798
3 801 804 797
3 805 736 729
3 797 805 729
3 804 805 797
3 805 738 736
3 735 739 806
3 807 735 806
3 800 735 807
3 741 806 739
3 801 802 808
3 808 802 809
3 801 810 804
3 801 808 810
3 804 811 805
3 804 810 811
3 811 743 738
3 811 738 805
3 807 806 812
3 807 812 813
3 746 812 741
3 741 812 806
3 808 809 749
3 809 748 749
3 809 814 748
3 808 749 750
3 808 750 810
3 810 750 752
3 810 752 811
3 743 811 752
3 754 755 815
3 816 756 754
3 816 754 815
3 817 813 812
3 756 817 812
3 757 756 812
3 817 756 816
3 757 812 746
3 818 758 759
3 819 818 759
3 748 819 759
3 814 819 748
3 761 815 755
3 816 815 820
3 815 763 820
3 763 821 820
3 763 815 761
3 816 820 817
3 823 822 818
3 822 758 818
3 822 765 758
3 823 818 819
3 766 825 824
3 821 766 824
3 763 766 821
3 825 826 824
3 827 767 768
3 828 827 768
3 765 828 768
3 822 828 765
3 830 829 825
3 766 830 825
3 771 830 766
3 825 829 826
3 827 772 767
3 832 831 774
3 832 774 772
3 828 832 772
3 827 828 772
3 833 831 832
3 835 834 777
3 835 777 776
3 777 836 778
3 834 836 777
3 771 778 830
3 830 778 836
3 831 779 774
3 838 837 780
3 838 780 779
3 833 838 779
3 831 833 779
3 781 782 837
3 838 781 837
3 839 781 838
3 776 781 835
3 835 781 839
3 837 783 780
3 783 837 782
3 842 841 840
3 844 843 840
3 840 843 842
3 844 845 843
3 848 847 846
3 848 846 841
3 846 840 841
3 846 849 840
3 840 850 844
3 840 849 850
3 845 844 851
3 844 852 851
3 844 850 852
3 852 853 851
3 846 847 854
3 854 847 855
3 854 785 786
3 849 854 786
3 846 854 849
3 849 786 787
3 856 849 787
3 850 849 856
3 850 857 852
3 850 856 857
3 853 852 858
3 858 852 857
3 854 855 859
3 859 855 860
3 861 788 785
3 854 861 785
3 859 861 854
3 856 787 788
3 861 856 788
3 862 856 861
3 864 857 863
3 857 862 863
3 857 856 862
3 864 865 857
3 865 866 857
3 867 858 857
3 867 857 866
3 869 868 866
3 866 868 867
3 869 870 868
3 860 871 859
3 859 871 861
3 861 871 872
3 861 872 862
3 862 872 873
3 873 874 862
3 874 875 862
3 876 863 862
3 876 862 875
3 876 875 865
3 875 866 865
3 875 877 866
3 866 878 869
3 866 877 878
3 870 869 879
3 869 880 879
3 869 878 880
3 880 881 879
3 875 874 882
3 882 874 883
3 882 790 791
3 877 882 791
3 875 882 877
3 877 791 792
3 877 792 878
3 878 792 794
3 878 794 880
3 794 796 880
3 796 881 880
3 796 884 881
3 887 886 885
3 887 885 883
3 885 882 883
3 885 888 882
3 888 798 790
3 888 790 882
3 889 884 796
3 889 796 799
3 799 800 889
3 889 800 890
3 885 886 891
3 891 886 892
3 891 802 803
3 888 891 803
3 885 891 888
3 888 803 798
3 807 890 800
3 807 893 890
3 892 894 891
3 802 891 894
3 895 802 894
3 809 802 895
3 813 893 807
3 813 896 893
3 895 814 809
3 897 814 895
3 900 899 898
3 899 896 898
3 896 817 898
3 896 813 817
3 897 819 814
3 901 819 897
3 900 898 820
3 821 900 820
3 902 900 821
3 820 898 817
3 903 822 823
3 904 903 823
3 819 904 823
3 901 904 819
3 821 824 905
3 906 821 905
3 902 821 906
3 826 905 824
3 907 828 903
3 903 828 822
3 903 904 908
3 903 908 907
3 906 905 829
3 830 906 829
3 909 906 830
3 829 905 826
3 907 832 828
3 911 910 833
3 911 833 832
3 908 911 832
3 907 908 832
3 913 912 910
3 913 910 911
3 834 835 912
3 913 834 912
3 914 834 913
3 834 915 836
3 914 915 834
3 830 836 909
3 909 836 915
3 910 838 833
3 838 910 839
3 839 910 912
3 839 912 835
3 918 917 916
3 920 919 916
3 916 919 918
3 920 921 919
3 924 923 922
3 924 922 917
3 922 916 917
3 922 925 916
3 916 926 920
3 916 925 926
3 921 920 927
3 927 920 926
3 930 929 928
3 930 928 923
3 923 928 922
3 928 841 922
3 841 842 922
3 922 842 843
3 922 843 925
3 925 843 845
3 931 925 845
3 926 925 931
3 927 926 932
3 932 926 931
3 935 934 933
3 935 933 929
3 929 933 928
3 933 847 928
3 847 848 928
3 928 848 841
3 851 931 845
3 937 936 853
3 853 936 851
3 936 932 851
3 932 931 851
3 937 938 936
3 933 934 939
3 939 934 940
3 939 855 847
3 939 847 933
3 858 941 937
3 858 937 853
3 938 937 942
3 937 943 942
3 937 941 943
3 943 944 942
3 940 945 939
3 855 939 945
3 946 855 945
3 860 855 946
3 863 947 864
3 867 941 858
3 865 864 947
3 941 867 868
3 941 868 943
3 868 870 943
3 870 944 943
3 870 948 944
3 871 860 949
3 860 950 949
3 860 946 950
3 951 872 871
3 951 871 949
3 952 873 872
3 952 872 951
3 876 947 863
3 874 873 952
3 947 876 865
3 870 879 953
3 954 870 953
3 948 870 954
3 881 953 879
3 950 955 949
3 957 956 955
3 956 949 955
3 956 951 949
3 951 958 952
3 951 956 958
3 958 883 874
3 958 874 952
3 959 954 953
3 953 881 959
3 881 960 959
3 881 884 960
3 957 961 956
3 962 886 887
3 956 962 887
3 958 956 887
3 961 962 956
3 958 887 883
3 884 889 963
3 964 884 963
3 960 884 964
3 890 963 889
3 962 892 886
3 965 892 962
3 964 963 966
3 964 966 967
3 893 966 890
3 890 966 963
3 965 968 892
3 892 968 894
3 895 894 968
3 895 968 969
3 967 966 970
3 967 970 971
3 896 970 893
3 893 970 966
3 969 897 895
3 972 897 969
3 975 974 973
3 973 974 971
3 973 971 970
3 900 973 970
3 899 900 970
3 899 970 896
3 972 901 897
3 976 901 972
3 975 973 977
3 975 977 978
3 902 977 900
3 900 977 973
3 976 904 901
3 979 904 976
3 978 977 980
3 978 980 981
3 906 980 902
3 902 980 977
3 979 908 904
3 982 908 979
3 985 984 983
3 987 986 983
3 987 983 984
3 986 987 981
3 980 986 981
3 988 986 980
3 909 988 906
3 906 988 980
3 982 989 908
3 908 989 911
3 983 913 985
3 913 989 985
3 913 911 989
3 913 983 914
3 914 983 986
3 914 986 915
3 915 986 988
3 915 988 909
3 992 991 990
3 994 993 990
3 990 993 992
3 994 995 993
3 990 991 996
3 996 991 997
3 990 998 994
3 990 996 998
3 995 994 999
3 999 994 998
3 1002 1001 1000
3 1002 1000 997
3 997 1000 996
3 1000 917 996
3 917 918 996
3 996 918 919
3 996 919 998
3 919 921 998
3 921 999 998
3 921 1003 999
3 1006 1005 1004
3 1006 1004 1001
3 1001 1004 1000
3 1004 923 1000
3 923 924 1000
3 1000 924 917
3 927 1008 1007
3 1003 927 1007
3 921 927 1003
3 1008 1009 1007
3 1004 1005 930
3 1005 929 930
3 1005 1010 929
3 1004 930 923
3 932 1011 1008
3 932 1008 927
3 1009 1008 1012
3 1012 1008 1011
3 1014 1013 935
3 935 1013 934
3 935 929 1010
3 935 1010 1014
3 936 1011 932
3 936 938 1011
3 938 1012 1011
3 938 1015 1012
3 1013 940 934
3 1016 940 1013
3 1017 1015 938
3 1017 938 942
3 942 944 1017
3 1017 944 1018
3 945 940 1019
3 940 1020 1019
3 940 1016 1020
3 1019 946 945
3 948 1018 944
3 948 1021 1018
3 1020 1022 1019
3 946 1019 1022
3 1023 946 1022
3 950 946 1023
3 954 1021 948
3 954 1024 1021
3 1023 1025 950
3 950 1025 955
3 957 955 1025
3 957 1025 1026
3 954 959 1027
3 1028 954 1027
3 1024 954 1028
3 960 1027 959
3 1026 1029 957
3 957 1029 961
3 962 961 1029
3 962 1029 1030
3 1028 1027 1031
3 1028 1031 1032
3 964 1031 960
3 960 1031 1027
3 1034 965 1033
3 965 1030 1033
3 965 962 1030
3 1035 1034 1033
3 1032 1031 1036
3 1032 1036 1037
3 967 1036 964
3 964 1036 1031
3 1034 968 965
3 969 968 1034
3 1035 969 1034
3 1038 969 1035
3 1037 1036 1039
3 1037 1039 1040
3 971 1039 967
3 967 1039 1036
3 1042 972 1041
3 972 1038 1041
3 972 969 1038
3 1043 1042 1041
3 1040 1039 974
3 975 1040 974
3 1044 1040 975
3 974 1039 971
3 1045 976 1042
3 1042 976 972
3 1042 1043 1046
3 1042 1046 1045
3 1049 1048 1047
3 1048 1044 1047
3 1044 978 1047
3 1044 975 978
3 1050 979 1045
3 1045 979 976
3 1045 1046 1051
3 1052 1045 1051
3 1050 1045 1052
3 1052 1051 1049
3 1047 1052 1049
3 1053 1052 1047
3 981 1053 978
3 978 1053 1047
3 1054 982 1050
3 1050 982 979
3 985 1054 984
3 1054 1052 984
3 1054 1050 1052
3 984 1052 987
3 987 1052 1053
3 987 1053 981
3 1054 989 982
3 989 1054 985
3 1057 1056 1055
3 1055 1058 1057
3 1055 1056 992
3 1056 991 992
3 1056 1059 991
3 1060 1058 1055
3 992 1060 1055
3 993 1060 992
3 993 995 1060
3 1060 995 1061
3 1059 997 991
3 1062 997 1059
3 999 1061 995
3 999 1063 1061
3 1065 1064 1002
3 1002 1064 1001
3 1002 997 1062
3 1002 1062 1065
3 1003 1063 999
3 1003 1066 1063
3 1068 1067 1006
3 1006 1067 1005
3 1006 1001 1064
3 1006 1064 1068
3 1069 1066 1003
3 1069 1003 1007
3 1007 1009 1069
3 1069 1009 1070
3 1073 1072 1071
3 1067 1073 1071
3 1010 1067 1071
3 1005 1067 1010
3 1012 1070 1009
3 1012 1074 1070
3 1071 1072 1014
3 1072 1013 1014
3 1072 1075 1013
3 1071 1014 1010
3 1015 1074 1012
3 1015 1076 1074
3 1075 1016 1013
3 1077 1016 1075
3 1015 1017 1078
3 1079 1015 1078
3 1076 1015 1079
3 1018 1078 1017
3 1077 1020 1016
3 1080 1020 1077
3 1079 1078 1081
3 1079 1081 1082
3 1021 1081 1018
3 1018 1081 1078
3 1080 1083 1020
3 1020 1083 1022
3 1023 1022 1083
3 1023 1083 1084
3 1082 1081 1085
3 1082 1085 1086
3 1024 1085 1021
3 1021 1085 1081
3 1084 1087 1023
3 1023 1087 1025
3 1089 1088 1026
3 1025 1089 1026
3 1087 1089 1025
3 1090 1088 1089
3 1086 1085 1091
3 1086 1091 1092
3 1028 1091 1024
3 1024 1091 1085
3 1088 1029 1026
3 1094 1093 1030
3 1094 1030 1029
3 1090 1094 1029
3 1088 1090 1029
3 1095 1093 1094
3 1092 1091 1096
3 1092 1096 1097
3 1032 1096 1028
3 1028 1096 1091
3 1093 1033 1030
3 1035 1033 1093
3 1095 1035 1093
3 1098 1035 1095
3 1097 1096 1099
3 1097 1099 1100
3 1037 1099 1032
3 1032 1099 1096
3 1102 1038 1101
3 1038 1098 1101
3 1038 1035 1098
3 1103 1102 1101
3 1100 1099 1104
3 1100 1104 1105
3 1040 1104 1037
3 1037 1104 1099
3 1102 1041 1038
3 1107 1106 1043
3 1107 1043 1041
3 1103 1107 1041
3 1102 1103 1041
3 1106 1107 1105
3 1104 1106 1105
3 1108 1106 1104
3 1044 1108 1040
3 1040 1108 1104
3 1109 1046 1106
3 1106 1046 1043
3 1049 1109 1048
3 1109 1108 1048
3 1109 1106 1108
3 1048 1108 1044
3 1109 1051 1046
3 1051 1109 1049
3 1112 1111 1110
3 1110 1113 1112
3 1110 1111 1114
3 1114 1111 1115
3 1057 1116 1056
3 1116 1110 1056
3 1110 1114 1056
3 1110 1116 1113
3 1057 1058 1116
3 1116 1058 1117
3 1114 1115 1118
3 1118 1115 1119
3 1118 1059 1056
3 1118 1056 1114
3 1058 1060 1120
3 1121 1058 1120
3 1117 1058 1121
3 1061 1120 1060
3 1118 1119 1122
3 1122 1119 1123
3 1122 1062 1059
3 1122 1059 1118
3 1124 1121 1120
3 1120 1061 1124
3 1061 1125 1124
3 1061 1063 1125
3 1122 1123 1065
3 1123 1064 1065
3 1123 1126 1064
3 1122 1065 1062
3 1066 1125 1063
3 1066 1127 1125
3 1129 1128 1068
3 1068 1128 1067
3 1068 1064 1126
3 1068 1126 1129
3 1132 1131 1130
3 1133 1130 1131
3 1066 1069 1134
3 1135 1066 1134
3 1127 1066 1135
3 1070 1134 1069
3 1137 1136 1073
3 1073 1136 1072
3 1073 1067 1128
3 1073 1128 1137
3 1140 1139 1138
3 1138 1139 1132
3 1130 1138 1132
3 1141 1138 1130
3 1130 1133 1142
3 1130 1142 1141
3 1135 1134 1143
3 1135 1143 1144
3 1074 1143 1070
3 1070 1143 1134
3 1146 1075 1145
3 1075 1136 1145
3 1075 1072 1136
3 1147 1146 1145
3 1148 1140 1138
3 1148 1138 1141
3 1148 1141 1149
3 1149 1141 1142
3 1144 1143 1150
3 1144 1150 1151
3 1076 1150 1074
3 1074 1150 1143
3 1152 1077 1146
3 1146 1077 1075
3 1146 1147 1153
3 1146 1153 1152
3 1151 1150 1154
3 1151 1154 1155
3 1079 1154 1076
3 1076 1154 1150
3 1156 1080 1152
3 1152 1080 1077
3 1152 1153 1157
3 1152 1157 1156
3 1155 1154 1158
3 1155 1158 1159
3 1082 1158 1079
3 1079 1158 1154
3 1156 1083 1080
3 1161 1160 1084
3 1161 1084 1083
3 1157 1161 1083
3 1156 1157 1083
3 1162 1160 1161
3 1159 1158 1163
3 1159 1163 1164
3 1086 1163 1082
3 1082 1163 1158
3 1160 1087 1084
3 1162 1165 1160
3 1165 1087 1160
3 1165 1089 1087
3 1167 1166 1090
3 1089 1167 1090
3 1165 1167 1089
3 1169 1168 1166
3 1169 1166 1167
3 1168 1169 1164
3 1163 1168 1164
3 1170 1168 1163
3 1092 1170 1086
3 1086 1170 1163
3 1166 1094 1090
3 1094 1166 1095
3 1166 1171 1095
3 1166 1168 1171
3 1172 1168 1170
3 1171 1168 1172
3 1097 1172 1092
3 1092 1172 1170
3 1173 1098 1171
3 1171 1098 1095
3 1174 1171 1172
3 1173 1171 1174
3 1100 1174 1097
3 1097 1174 1172
3 1173 1101 1098
3 1101 1173 1103
3 1173 1175 1103
3 1173 1174 1175
3 1105 1175 1100
3 1100 1175 1174
3 1175 1107 1103
3 1107 1175 1105
3 1176 1111 1112
3 1113 1176 1112
3 1178 1177 1176
3 1177 1111 1176
3 1177 1115 1111
3 1180 1178 1179
3 1179 1178 1116
3 1178 1176 1116
3 1176 1113 1116
3 1117 1179 1116
3 1177 1119 1115
3 1181 1119 1177
3 1182 1180 1179
3 1179 1117 1182
3 1117 1183 1182
3 1117 1121 1183
3 1181 1123 1119
3 1184 1123 1181
3 1121 1124 1185
3 1186 1121 1185
3 1183 1121 1186
3 1125 1185 1124
3 1189 1188 1187
3 1192 1191 1190
3 1189 1187 1184
3 1126 1184 1187
3 1184 1126 1123
3 1194 1193 1190
3 1194 1190 1191
3 1193 1194 1186
3 1185 1193 1186
3 1195 1193 1185
3 1127 1195 1125
3 1125 1195 1185
3 1197 1196 1188
3 1196 1128 1188
3 1129 1187 1188
3 1129 1188 1128
3 1187 1129 1126
3 1197 1192 1196
3 1190 1196 1192
3 1196 1190 1198
3 1132 1198 1131
3 1198 1193 1131
3 1198 1190 1193
3 1131 1193 1133
3 1193 1199 1133
3 1193 1195 1199
3 1135 1199 1127
3 1127 1199 1195
3 1200 1136 1137
3 1128 1196 1137
3 1196 1200 1137
3 1196 1201 1200
3 1140 1201 1139
3 1201 1198 1139
3 1201 1196 1198
3 1139 1198 1132
3 1202 1142 1199
3 1199 1142 1133
3 1144 1202 1135
3 1135 1202 1199
3 1200 1145 1136
3 1145 1200 1147
3 1200 1203 1147
3 1200 1201 1203
3 1148 1204 1140
3 1204 1201 1140
3 1204 1203 1201
3 1149 1205 1148
3 1148 1205 1204
3 1142 1202 1149
3 1202 1205 1149
3 1202 1206 1205
3 1151 1206 1144
3 1144 1206 1202
3 1207 1153 1203
3 1203 1153 1147
3 1208 1203 1204
3 1207 1203 1208
3 1205 1210 1209
3 1208 1205 1209
3 1204 1205 1208
3 1212 1211 1210
3 1205 1212 1210
3 1206 1212 1205
3 1155 1212 1151
3 1151 1212 1206
3 1213 1157 1207
3 1207 1157 1153
3 1208 1215 1214
3 1213 1208 1214
3 1207 1208 1213
3 1215 1208 1209
3 1216 1211 1212
3 1212 1155 1216
3 1155 1217 1216
3 1155 1159 1217
3 1213 1161 1157
3 1219 1218 1162
3 1219 1162 1161
3 1214 1219 1161
3 1213 1214 1161
3 1221 1220 1218
3 1221 1218 1219
3 1223 1222 1220
3 1223 1220 1221
3 1223 1217 1222
3 1217 1164 1222
3 1217 1159 1164
3 1218 1165 1162
3 1165 1218 1167
3 1167 1218 1220
3 1167 1220 1169
3 1169 1220 1222
3 1169 1222 1164
3 1225 1224 1178
3 1178 1224 1177
3 1178 1180 1225
3 1225 1180 1226
3 1224 1181 1177
3 1227 1181 1224
3 1180 1182 1228
3 1229 1180 1228
3 1226 1180 1229
3 1183 1228 1182
3 1231 1184 1230
3 1184 1227 1230
3 1184 1181 1227
3 1231 1230 1229
3 1228 1231 1229
3 1232 1231 1228
3 1186 1232 1183
3 1183 1232 1228
3 1233 1188 1189
3 1189 1184 1233
3 1184 1231 1233
3 1191 1192 1233
3 1191 1233 1231
3 1191 1231 1194
3 1194 1231 1232
3 1194 1232 1186
3 1233 1197 1188
3 1197 1233 1192
3 1234 1209 1210
3 1211 1234 1210
3 1235 1214 1215
3 1209 1234 1215
3 1234 1235 1215
3 1234 1236 1235
3 1216 1237 1211
3 1237 1234 1211
3 1237 1236 1234
3 1217 1237 1216
3 1235 1219 1214
3 1219 1235 1221
3 1221 1235 1236
3 1221 1236 1223
3 1223 1236 1237
3 1223 1237 1217