OFF
981 1926 0
1.5247202552 15.7464001736 10.7746304502
1.7458570498 15.7386875666 10.3539863213
1.6993673452 15.2051783472 10.2514189700
1.6014476797 15.2796086133 10.8806724022
1.5448345196 15.8006169140 11.1711226415
1.7824361484 15.4783181519 11.3706071988
1.6895175299 16.1041544533 10.6948984612
1.5894722696 16.1907481992 11.0935673376
1.9049554252 16.4931483449 10.9186172269
1.8103250455 16.1269914980 11.4664277699
1.7868715334 16.5043158471 11.2909107034
2.0430383476 10.0140834446 7.7349376641
2.2198000227 9.8691223623 6.9979384181
2.3425090974 9.3611117447 7.3467919716
2.2868285950 9.2211005706 8.1098907361
2.0578769142 9.8583607519 8.6142662194
2.2906073328 9.2496776126 8.9377158824
2.1450460415 9.8209137339 9.2530008154
2.3515715717 9.5027639743 9.5996158634
2.0393125517 10.6460207700 7.0495329912
2.3967143274 10.7029162597 6.2371029233
2.2763151443 10.1270267922 6.6338789827
1.8683612830 10.8568792984 7.8139615734
1.9011960783 10.6575080291 8.4815416453
2.0287941352 10.4864401051 9.2233897881
2.2618550585 10.2193300827 9.8557073409
2.0542453597 11.6185286736 6.7469190833
2.3953006254 11.8156108056 6.0018704869
1.8586922240 11.5962054027 7.5873987948
1.8274123165 11.5456450286 8.4226455199
1.9447924911 11.3761485341 9.2041996282
2.1715013795 11.1421783560 9.9384512305
2.1385115054 12.5055543027 6.5334112319
2.4731611675 12.6689590008 5.9196320167
1.9350729561 12.5033824807 7.3766188105
1.8440399525 12.5035997109 8.3517547254
1.9031130700 12.3487074444 9.2324075740
2.1031315067 12.1076082423 9.9777049962
2.3024503595 13.0875448405 6.3566981725
2.5941341783 13.2423354958 5.9876418311
2.1577066664 13.2335014523 7.0326238232
2.0101430848 13.5215210265 8.1630777086
1.8937134032 13.4675908136 9.4003841675
2.0376381896 13.0239948405 10.0667120447
2.5442003641 13.6015809670 6.4926891019
2.4672860138 14.0219591573 7.3904026779
2.2255363363 14.2896048521 8.3188482217
1.9911971599 14.5167282575 9.2456782719
2.2755696762 14.6408041014 8.6543743844
1.9669253094 13.7602385655 10.3140506441
1.8058270460 14.4858614742 10.3388023608
2.0506299032 14.2276577455 10.9402618976
1.8365984386 14.8832102125 11.0746867257
2.2502896103 14.9151072134 11.5544718031
2.4272212111 15.0409307200 8.8976817969
2.0688530033 15.3956455411 9.7268841016
2.1493224112 15.7147725796 11.6794927284
2.2548735494 16.1348275973 10.2219075223
2.3026845438 16.5581837310 10.6846508707
2.3050029444 16.1736608340 11.7157307886
1.9795084679 16.6759099773 11.2259282439
2.4162362473 16.7179734726 11.0196864354
2.1461040757 16.5444087636 11.5124370288
2.9841151450 7.9638202272 8.7098391162
3.1639606879 7.7021411131 7.8739903546
3.4686580823 7.1993375347 8.4507706476
3.4662594097 7.3162127180 9.3491034047
3.1070284697 7.9777190553 9.7507196577
3.4921346530 7.5119426591 10.0910901051
3.0121263994 8.4680864651 6.7462466051
3.3016920858 8.5860503894 6.1149101081
3.2959304582 8.0694340964 6.6036745657
3.2256763780 7.8681891551 7.1329521024
2.7399907401 8.5354172921 7.5918647345
2.5483420515 8.6819884868 8.5563747791
2.6587050825 8.7631709370 9.4927452527
3.2945806267 7.9771560010 10.4193886518
3.0016318469 8.6718669082 10.4885672421
3.3410189556 8.2908258120 10.9128095371
2.6625926031 9.4450126308 6.5075611851
3.1368586116 9.4306403599 5.7221183466
2.6387632815 9.6832228356 10.4144467654
3.2361344583 8.8060375214 11.1855772985
3.0467899995 9.4531625995 11.2215914904
3.3700534521 9.1906935271 11.6637576954
2.9139905030 10.2089991750 5.6521584449
3.2688982605 10.6557569655 5.1046380692
3.4373941480 9.8579935167 5.1652444911
2.4943447073 10.8371877061 10.6604214297
2.9509295427 10.5234814629 11.5159585817
3.3437306371 9.8703207297 11.9566418627
2.8361078584 11.1840253122 5.4902291015
3.4731752786 11.5129512176 4.8626564091
2.3885498269 11.8746859277 10.7121024387
2.7483710149 11.6541289572 11.4858544676
3.5039866737 10.6402871168 12.4723186781
3.1755241645 11.5128453660 12.2618495013
3.5916564918 11.4505784707 12.8514120528
2.8974503501 12.1673078178 5.4051415457
3.6223854496 12.6738783397 4.9577731193
2.2882513539 12.8365305564 10.7301497291
2.6300975673 12.6953706103 11.4638094577
3.0575328190 12.5083234410 12.2043670923
3.5159550245 12.2481919665 12.8482031602
2.9627303686 13.0068782157 5.5268689167
3.5124455128 13.4327350502 5.3576140784
2.1532191614 13.5305108062 10.7101515571
2.4464676889 13.7650118315 11.4023361357
2.9775500837 13.5563488047 12.1278523665
3.5814868745 13.3646620471 12.8359462398
3.0265770563 13.6270052807 5.8824051823
3.0868892864 14.1637426948 6.5021928089
2.9638719676 14.5008466017 7.2107153511
3.4243312398 14.6274352552 6.7585034757
2.6517945010 14.6842401796 8.0414606581
2.8750874796 14.5835477202 12.0453037577
3.4719485780 14.3856517099 12.5658794287
3.3367974851 14.9210180719 7.4008757515
3.1278852427 15.3098385932 8.3108666884
2.7166557303 15.6610685105 9.2528272583
3.3888610196 15.8003890163 8.7404034585
3.3672398928 15.1249104885 12.3532858842
2.8704062070 15.6601451595 11.9499861586
3.2948961479 16.2308068280 9.5113509244
2.9340992403 16.5982480848 10.5053867783
3.7863117730 16.6611887158 10.0570520469
2.7740321067 16.4358542004 11.6572169543
3.6864320041 16.7746201267 10.7219185334
3.1580141812 16.6941853256 11.2291549240
2.5879524172 16.7074812523 11.3946185709
4.0098159882 6.6543907209 7.4253515268
4.3006956206 6.5523938278 6.8771186289
4.3513770675 6.2317984113 7.3936192143
4.3528531927 6.1413415554 7.9454769760
3.9035046640 6.6342107539 8.1876649217
4.2796371009 6.2064055294 8.6628825901
3.7636673199 7.4669461128 6.5863836003
4.2650480427 7.3609749921 5.8670235350
4.2422749860 6.9361959934 6.3695595401
3.5607622018 7.2078132321 7.5933427290
3.9122125711 6.6882696865 9.0360718291
4.0421004734 6.8758903569 10.0834701601
3.7538759922 7.6545036361 10.8742019651
4.6179457758 6.8984982040 11.2747565346
4.1550686864 7.7610638599 11.7161206277
4.5960125185 7.3981634311 11.9721031552
3.9227729819 8.2504816329 5.5447502523
4.4176096891 8.2226587232 4.9585430174
4.3129431489 7.7884613611 5.3746601431
3.6439941353 8.4800851977 11.5705111981
4.4488594346 7.8287129402 12.2175602154
4.1806840866 8.4023693257 12.2430380926
4.7564781818 8.0798338990 12.6225415352
4.0812617148 9.2627135271 4.7837804905
4.7801177726 9.5400814278 4.1304530763
4.6798445072 8.7035158994 4.4488027206
3.5424364343 9.0805661027 5.4188810505
3.7973655692 9.2944339971 12.2659533722
4.5819223633 8.9567203140 12.8763020042
4.2748631521 9.8996448371 4.3768812485
3.8977708965 10.4650396305 4.5862310877
3.6483283092 9.9890193265 12.4322673678
4.1106813108 10.0159323476 12.8954087150
4.0511420350 11.2875784132 4.3881561915
4.6044540623 11.4998034615 4.0899985634
4.4202427201 10.8537549300 4.1639644115
4.0309979747 10.9475159345 13.1438198423
4.0235918907 11.8134908145 13.3153311415
4.6626409623 11.1906725885 13.6383264378
4.0978707469 12.0272934749 4.4470561217
4.8004342161 12.3069066099 4.1569539306
4.0511709966 12.7630610345 13.3583825804
4.6686720661 12.1825173634 13.7688426785
4.3518398500 12.7620738672 4.5260943927
4.4105974107 13.6110131007 4.9860766783
4.1774660589 13.5890097672 13.3505561398
4.7517034528 13.2745269584 13.7625536229
3.7203754348 14.0721234026 5.7495713009
3.6671875930 14.4927968934 6.2657065492
3.9929334692 14.5191608920 5.9992039164
4.6043117840 14.0326240054 13.5071308983
4.2080501825 14.3813426582 13.0838782741
4.1308105601 14.9649725832 6.5422169647
3.8093978191 15.3813203999 7.5814033843
3.7105003648 15.6654958803 8.1783619347
4.0567876054 15.7160894727 7.8479370559
3.6807243969 15.6712045640 12.2887147470
4.0141792591 15.1641053075 12.6572928412
4.2059370978 16.1234885436 8.3971549389
4.0615136464 16.5040486175 9.3441415925
4.4377580647 16.7657084605 9.7315807845
4.4610788362 15.8917463309 12.4094678743
3.7092173653 16.2909238611 11.8533246368
4.5277187204 16.8834692011 10.4949910141
4.1759507090 16.7348467995 11.2682148974
4.8665790955 5.8169201792 7.3077101422
5.2254188566 5.7829107934 6.4717475158
5.6726974524 5.2091877176 6.8334124928
5.6656542924 4.9237336775 7.9750129459
4.8921678820 5.6270233707 8.6427883042
5.7674009418 4.8609141830 9.3249696016
5.0991631687 5.5794308039 9.7462039848
5.5819927412 5.2313804697 10.1296719010
4.7343078037 6.5119364119 6.2053818363
5.1161901641 6.5630994446 5.5486119872
5.2636338577 6.0796962072 5.9155168264
4.4767996943 6.1561726301 9.4485856245
5.2857009738 5.6143630522 10.4165122868
4.8177233359 6.1545216168 10.4538206380
5.3714564899 5.8515942504 10.9583736036
5.0778792558 6.2628882447 11.1165095822
5.6544680224 6.2265992628 11.6502242964
4.7650619324 7.3170072163 5.2676512321
5.2270606601 7.3199489128 4.7227170181
5.2802960911 6.8378079501 5.0614778019
5.1865408499 7.0403158831 12.1221712699
4.8278050574 7.5587130198 12.3632792470
5.3874274655 7.5234047571 12.6872834346
4.9571183087 7.9549195412 4.5802715150
5.3680534940 8.4697421354 4.0171961803
5.4859758553 7.6137964500 4.2996030760
5.3762171946 8.2350929453 13.1144598779
5.5900173540 9.4148446379 3.6350033477
5.2231029216 8.9255831968 13.3404980797
4.9011597360 9.6472795061 13.3730919284
5.6742162475 9.2005376225 13.6431080038
4.4898364205 10.2938890043 4.1686852667
5.2645694947 10.6721275647 3.7696951605
4.5886119845 10.4326760112 13.4163078232
5.4433244300 10.2552329243 13.8024152387
5.2787545214 11.7820334402 3.8621285645
5.5331041446 11.4309582302 14.1138101301
5.6931944339 12.6064704302 3.9375097480
5.3717446437 12.5546492413 14.1743581874
5.0531950399 13.0842511337 4.3542419442
5.4844919442 13.7967045467 4.5872413634
5.5805870704 13.4949246269 14.1605717492
4.4358782657 14.4556018538 5.6553548602
5.2830379447 14.4201141055 5.1534705341
4.9037435873 14.6003864354 13.4040486020
5.2450794821 14.1569616599 13.7661997709
5.0733936908 15.0137580090 5.8381084400
4.9180053938 15.4386298426 6.4575469992
5.6437763168 15.5899887082 6.1151445824
4.5056666411 15.6849877929 7.2656515980
5.6550553443 14.9407645208 13.5303192262
4.9908494802 15.3065388026 12.9985013787
5.2380124543 15.8463560914 6.7506623459
5.1907373448 16.2422714731 7.4611283029
5.0460716081 16.5351296086 8.2461155962
5.5855618398 16.6471665527 7.8204900806
4.7384045444 16.6565147328 9.0078621444
5.5067554948 16.1391207783 12.5570716697
4.8528298437 16.5004021524 11.9263714398
5.5908823310 16.8973201281 8.5904744398
5.2014366380 16.9842339221 9.7325594310
5.3395930463 17.0519182434 10.6126765316
5.1539631688 16.8852329565 11.2757829666
6.2429022259 4.3134980534 8.6073806124
6.2895601192 4.3418396712 7.8502313508
6.8078023293 3.9020302771 8.0738999272
6.9807965445 3.7438344107 9.0840800969
6.3165175445 4.2808291252 9.2193378979
6.5300128843 4.3258154721 9.7681148963
6.1768023764 5.5301983921 5.2893484305
6.4707505753 5.5659236214 4.7672074935
6.7822885689 5.1876059910 5.0291284531
6.5107538927 4.8840372372 6.0029635308
5.7171718529 5.5656668603 5.9834889936
6.2653207710 4.5848926275 7.1279129762
6.2142122207 4.8763360878 10.3781309480
5.7279936726 5.3729468301 10.7131374625
6.2258657038 5.2304302035 11.0200678109
5.8603631450 5.6155044490 11.2142154308
6.4497552354 5.5491455245 11.5303732470
6.1522183025 6.0252763521 4.7195058220
6.4751848916 6.3807878164 4.1770976159
6.5718548237 5.8145332279 4.4245167913
5.6175195980 6.1803265937 5.2916306659
6.6501114890 6.0250819720 12.1131810211
5.7633434669 6.8262325831 4.5530028988
6.2518928828 7.4372539487 3.8163138042
6.2634139895 6.7659956491 12.5552006941
6.0863549102 7.5664027771 13.1030592593
6.0950403944 8.5434216095 3.4976448973
6.0324344403 8.0900683518 13.4031779895
5.7307240272 8.5668773083 13.4782068220
6.4404245701 8.4447118168 13.6709683927
6.1868695313 9.2167952303 3.2979273095
6.7681916859 9.3683920456 3.0435917493
6.6084617009 8.7109111066 3.1691815645
6.4739779629 9.3840446193 13.9347501662
6.1196348778 9.9863633434 3.3148903511
6.9717701687 10.3523233662 3.0135373906
6.5467089664 10.4710821153 14.2224395415
6.2419431610 10.8177778047 3.3340330216
6.2367734869 11.7923644353 3.5435063655
6.3444079283 11.3474895170 14.4445088172
6.0456410994 12.0479791996 14.4980970611
6.6865768299 11.7562091495 14.6750959174
6.4079732409 12.6082792044 3.7168383235
5.9969945036 12.8808537115 14.5246606219
6.6129374186 12.4267175024 14.8079408715
5.7669289664 13.3279686215 4.2019687020
6.5162906054 13.2869598967 3.9645266836
6.1787815578 13.5869069428 14.4720991733
6.4780844147 13.1830622293 14.7672726151
6.1759491127 13.8005268877 4.3289975090
6.2839757253 14.4333074410 4.7305068998
6.8061510952 13.8759711025 14.6307404987
6.2481464111 14.4047510541 14.0758798922
6.0227210985 15.0944182931 5.4054953479
6.6848177956 15.8442255516 5.8605175367
6.3981023431 15.1932586802 13.6534086553
6.2919102204 15.7538093814 13.1808387426
5.9589508556 16.1777584045 6.6562020802
5.8750377117 16.5384021049 7.2714982911
6.4053568797 16.5976233202 6.9540746396
6.3515319826 16.3839301875 12.6633830654
6.0293154978 16.7401383038 12.0687955808
6.2932849616 16.8696473271 7.6358416891
6.3667417290 17.1551822933 8.3902081655
5.9370773239 17.1765666750 9.3267002594
5.8182664823 17.1803113285 10.2895779593
5.8869515243 17.0742597549 11.1766075410
7.4407118936 3.3048233485 9.2116353760
7.6042572625 3.1315160785 8.8308313547
7.6822525057 3.1237122426 9.2264416054
7.7328902598 3.3521975935 9.5675675937
6.9773611805 4.2364687566 6.6350937100
7.2818596124 4.3810487220 5.9077196436
7.7519844919 3.9782591818 6.1997467470
7.5339592332 3.6265041508 7.2187806969
6.7304252408 4.1180377285 7.3871098477
7.3924075757 3.3830021698 8.2288317309
7.2907137472 3.9461023768 10.0036969601
6.9064470937 4.4395638677 10.4212804128
7.6583306251 4.2958100491 10.6935915901
6.8317982684 5.4760530937 4.5352918887
7.0533899862 5.8111062812 4.1496137863
7.4017465199 5.2482599553 4.5125521567
7.4740519202 4.7096857246 5.2147619124
6.9805886547 4.9165763927 11.0721162620
7.4391571649 5.4685006597 11.8535632547
7.1667257866 6.5007700762 3.6744871177
7.2917550407 6.0048320891 12.3651548341
6.8981186760 6.2927982626 12.4904111754
7.4228308301 6.4852354092 12.7840201298
7.0449442859 7.2165040352 3.3771227973
7.5251031656 7.4400558993 3.0740955170
7.5506052256 6.8253785290 3.2741852639
6.9280613287 7.1925088887 13.1739033907
6.5566032058 7.7693918752 13.4332479723
7.2642231963 7.7547365894 13.5893448647
6.7954072218 7.9605426871 3.2689989273
7.4075413620 8.4269468716 2.9110903131
7.4118669095 8.5489327373 13.9107857509
7.6195831940 9.4511266214 2.7587811356
7.4847126404 9.4816144008 14.1626309359
7.8105000612 10.2769268661 2.7440239188
7.6834127152 10.3515415228 14.3902460973
6.8342782479 11.2229615964 3.1858417740
7.7569126983 11.2229546384 2.9324420789
7.1034677157 11.1451964093 14.5587131455
7.4803559685 11.9504594670 14.8493524919
7.1521493574 11.8380074435 3.2451029913
7.2640950403 12.7178103312 3.5210616301
7.1075844510 12.4328799671 14.9731613303
6.7165529609 12.8614596507 14.9314626547
7.5284890235 13.7875146026 3.9216095355
6.7836230137 13.4268219257 14.8651340580
6.8448365359 14.0854937881 4.2922855453
6.9749275300 14.5711494357 4.5697268746
7.6128625508 14.0265506155 14.7071669496
7.3104480011 14.5524348234 14.3339435887
7.2649069232 13.7071445000 14.8454528304
7.1810955640 15.1558949306 4.9683881163
7.7713458228 15.9147205043 5.4816890250
6.8031078078 15.5166612649 13.5560173068
7.0668593361 15.1398244781 13.8736258551
6.7482165325 16.4024339244 6.4748638193
7.5526045735 16.4071089080 6.1805235498
6.6677524204 16.6451029735 12.5386303170
7.1559012282 16.4078610830 12.9236749262
7.4801399667 15.7870847448 13.4897575664
7.1987513072 16.8146010197 6.9406961562
7.0725053289 17.1377131590 7.6590787734
6.8774629745 17.2652511041 8.1660932304
7.6566034510 17.2589229750 7.6425683438
6.3579303630 17.2729412167 8.9614563581
6.1207228970 17.2664774727 9.8856271750
6.1543925948 17.2018754825 10.8290554456
6.5257658836 17.0287024564 11.8140706093
6.9929033490 16.8186057626 12.4522872849
8.1914942621 2.7232872208 8.4266105560
8.4581189002 2.6315062160 7.8513188938
8.9927971889 2.3333490992 8.1746035709
8.6803363810 2.4634145648 8.7913912541
7.9762274940 2.9974838885 7.8038463772
8.3718409133 3.0501189792 7.1485397190
8.3969801870 2.7782952386 7.5243197174
7.7459041255 3.0268362435 8.3265975418
8.1696243248 2.8602587113 9.1541257064
8.7216549671 3.0357485110 9.7660163038
7.8292473670 4.2633127961 5.5861244443
8.2412154011 4.4067806657 5.1557376081
8.4836421445 4.0083620066 5.6448228586
8.5523620152 3.4979185314 6.3912050864
8.1658673878 3.6935050700 10.2515476315
8.6283140610 4.1489342741 10.8385703847
7.9437096363 5.7147047459 3.8676864735
8.3948377142 4.9079081257 4.5275362862
8.0740008178 4.7805209172 11.3210263181
8.6032629356 5.2989261294 11.8903672348
7.8887675913 6.3430573255 3.3983774092
8.1437931568 6.7912023567 3.0783910712
8.6132051352 6.1149045587 3.3280685167
8.0806473618 5.8917561363 12.4045577784
8.5536692378 6.4320300777 12.9123222073
8.2863122242 7.5472305784 2.7799515002
7.9213607590 7.0724723817 13.3163589480
8.2745081651 7.7903411032 13.7580603853
8.4832099330 8.5374566164 2.5219078208
8.5789299137 8.6618133924 14.1393147728
8.5573978583 9.6933403962 2.4960808389
8.3410176157 9.6015399534 14.2950293204
8.3817291475 10.5719574572 2.6491905887
8.7199111478 10.3596985507 14.4697597387
8.7036970745 11.1460304163 2.7103092005
8.0233770589 11.1172741684 14.6288243198
8.4691898887 11.7626981763 14.7974873300
7.7973305163 12.1300406391 3.1580960030
8.6969048499 12.0305200000 2.9436016220
7.6916790193 12.5599671506 14.9942151525
8.2454402569 12.5122277033 14.9383721966
8.2234522737 12.7008167057 3.2482733251
8.3556922501 13.4744389418 3.5311742423
7.9692664145 13.3399902748 14.9168672403
8.6391984565 13.1112474626 14.8862196723
7.5558138679 14.5566302049 4.3607183004
8.6416589497 14.5246189402 3.9810709184
8.0252147358 14.4695963015 14.4896104156
8.4476977981 13.8956918314 14.7291113237
8.1437550549 15.1284191986 4.5479795428
8.0457412494 15.5653360410 4.9660353857
8.6044074760 15.5640381742 4.7492846217
8.6110496333 14.4737217226 14.4593506497
8.2398914245 15.0729864285 14.0632279023
8.6175285681 15.9365634910 5.1839013263
8.6640933979 16.4094982043 5.8841820550
8.6882208809 15.8672415644 13.5598778805
8.1025680418 16.3141328976 13.2133136944
8.3432936007 16.8294242112 6.6592308511
8.0255129500 17.1276053865 7.2662040446
8.6383534594 17.2584185094 7.4954773924
7.2449099951 16.9372970485 12.3988590997
8.0382158329 16.6900478695 12.8624840710
8.9007635892 2.6161972683 7.4066881673
9.5663368358 2.6654989208 6.9926074494
9.6481000294 2.2863383883 7.6184179850
9.9158601784 1.9631295752 8.2984598386
9.3543651239 2.2245006678 8.8358218474
8.8671730693 2.5535028289 9.2380960866
9.5387721194 2.5356027673 9.4455224583
9.0254168124 2.9783481330 6.7516578025
9.2823099392 3.2644890229 6.2971596327
9.5455005268 2.9847676539 6.5466996077
9.6257432105 3.0381928393 10.0215190324
9.0523380396 4.3365552315 5.0467297445
9.5240881941 3.7339437119 5.7886714422
9.0895501991 3.5365865314 10.3898149383
9.6413958302 4.0052100805 10.8025571710
9.0541907602 5.4371095697 3.8098618785
9.5714593927 4.8339949890 4.4145097229
9.1605820990 4.6750591831 11.3323977869
9.6975161955 5.2549525532 11.7985810189
8.9836587293 6.7284450933 2.8587799819
9.5915150325 5.9918896491 3.1931990162
9.1687859528 5.8424455388 12.3967678707
9.6737241903 6.4703970832 12.9132806588
9.2408241176 7.5237875233 2.4283524691
8.9980645427 7.0896526431 13.4165695581
9.4128013318 7.9298761307 13.9277407683
9.2760668397 8.2300965089 2.2319756232
9.8352330826 8.3674723445 2.0142177893
9.7547307181 7.8130449916 2.1006500890
9.2231464795 8.3651003155 14.2281546074
9.1968865142 8.6336972089 14.2982666594
9.3666836955 8.4551532913 14.3145197576
9.2131502799 8.9228622437 2.2335371061
9.9372213147 9.0422582196 2.0511894884
9.4891216996 8.6128196277 14.3011940770
9.3024747939 9.2262747295 14.3196279435
9.3906847357 9.5849270708 2.2623262685
9.2684518803 10.3994780179 2.4643272412
9.6853482673 10.1358160248 14.4745951785
9.5694309291 11.3497744096 2.6508062153
8.7250322554 11.1517885427 14.6447849390
9.3076822104 10.9158061827 14.6028174157
9.9320903494 12.4124008558 2.8580463251
9.0757303189 11.5251427896 14.7275933374
9.2304511109 12.2514748822 14.8170801987
9.0766905363 13.0208939007 3.1729349997
9.4510499716 13.9822918303 3.4477124147
9.3206655786 13.3549693495 14.7379709139
9.5457139810 14.6353541843 3.7371609948
9.0568360710 14.0834592537 14.5854470799
9.5933785254 13.8906819540 14.5481825785
9.3518909928 14.5175506567 14.2976383659
8.8917250998 15.2664112146 4.3998837450
9.7273172346 15.1863705732 4.0921682933
9.4592985862 15.2654678649 13.8708571912
9.4220928633 15.7561638006 4.7833401362
9.3397449693 16.1887991769 5.4007629192
9.7353145933 16.4891457949 5.9405092327
9.7609838211 15.9090766476 13.4604450582
9.0775348759 16.4052872036 13.1787649793
9.4179359193 16.7909040182 6.5622129396
9.2552729844 17.1126119419 7.2891063542
9.6279592666 17.2819835517 7.7699938256
9.4691788996 16.6939411782 12.9218919465
10.3537909623 1.6870364270 8.5057796722
10.5135867731 1.7754652383 8.2805530643
10.5223300022 1.5702867213 8.4543588630
10.5332692624 1.6716665809 8.5838724756
10.2086165613 2.5067740542 7.2107821762
10.3343385067 2.1113725171 7.7807762568
10.2379938565 2.0451063835 8.9002216132
10.4339660489 2.7642183846 9.6533115174
9.7648179257 3.2399667678 6.2644390752
10.0575210499 2.9264981283 6.6651662340
10.1512990341 3.2032508243 10.1937080103
9.7610111488 3.4535929548 10.4216693990
10.2179123664 3.6464558483 10.5036727752
10.0591737687 4.3353513953 5.0753785586
10.5857979072 3.9681971710 5.7419110243
10.3350140240 3.3951246300 6.2690233766
10.2517452083 4.0508211167 10.7559914439
10.1203528699 5.3641019958 3.7792594072
10.6536553037 4.8702664373 4.5290075804
10.2947178377 4.6222506060 11.1073901987
10.5471536964 5.2881439966 11.6022237583
9.9892072174 6.6720146340 2.5301896821
10.6996334032 5.9383128730 3.0546407451
10.3823693401 5.8830994309 12.2246396804
10.8245382535 6.6685161963 12.8654213599
9.9949376273 7.3131367223 2.1532640829
10.5295023296 7.6730571499 1.8375074552
10.5019903881 6.9932755269 2.0361243371
10.0643486215 7.1686203155 13.4154907570
10.5180678360 7.8625625542 13.7536547081
10.4641311795 8.4590888414 1.8681930864
9.5153816649 8.3442227343 14.2310820251
10.0071102687 8.5516851089 14.1472119892
10.7370829598 9.0202563575 1.9610374666
10.3746867245 9.4067919135 14.3346914204
10.1051886599 9.7407423882 2.1947092927
10.3345009669 10.5175254956 2.4070873799
10.3610449145 10.1341536267 14.5127379864
10.0109478518 10.7941930066 14.6113297390
10.8852280761 10.5888533976 14.5650057515
10.6217459025 11.4019315676 2.6049135818
9.5769627845 11.4273677336 14.7117486935
10.1800149326 11.5555554049 14.7049101538
10.9293931673 12.2082821733 2.7287029090
10.2360045290 12.5689497830 14.6888266553
9.9129185180 13.3609953625 3.1042758448
10.9201139820 13.2820871438 2.9169493836
10.0235744731 13.3991611703 14.6038709792
10.6908900548 13.1670693661 14.4821762812
10.2010589949 13.9019326909 14.3739532819
10.3082325106 13.9535623126 3.2091543862
10.4205009659 14.7260110777 3.5191989431
10.3079289333 14.5894904717 14.0361574000
10.7346578226 15.3804969024 3.9187020310
10.3989135789 15.3007852806 13.6872302847
10.5578223891 15.7134710379 4.5075039876
10.3607101898 16.1199512938 5.3784256459
10.5147823273 16.4371677226 6.1151099898
10.5733873716 15.7913794601 13.3675528692
10.3588950507 16.4107681326 12.9616451144
10.1813461157 16.6864688918 6.4987592511
10.3657556789 16.8944240525 7.2451242302
10.2542269568 17.3141226523 8.1680733654
10.3908328873 17.1839602600 8.0356389382
10.7685769683 17.2721257684 8.5792118728
10.3902927286 16.8613614183 12.6291830368
10.9892198361 16.8736004954 12.3166427859
10.8164459737 17.0521780249 12.2901485834
10.6240450904 1.6383433115 8.4672641227
10.7096283560 2.4364261034 7.4661886935
10.8603470687 2.2129793266 7.9641117414
10.8149489369 2.0122474904 8.5605942171
10.8106001826 2.3239669734 9.1007587527
11.0828296650 2.7569188380 9.3104427473
10.7700442113 2.9618241238 6.9627809063
11.1057087403 2.6894155518 7.5702572618
10.5799967711 3.3584404695 10.1507894601
11.1463532617 3.4289967098 9.7252555881
10.8589335642 4.4476296338 5.2272026791
11.4518690956 4.3580815302 5.8990908326
11.1073048861 3.6563149332 6.4549315519
10.7593279387 3.9790801161 10.4564859762
11.4167177869 4.2079576610 10.0465329261
11.0370055231 5.3863284559 3.8955317468
11.3554219009 5.1367466437 4.4813997833
11.4043259104 4.8342963926 5.0767835096
11.1788027320 4.6699973114 10.6428251424
10.9931379609 5.0855899649 11.1751795446
11.5402945451 5.2085248177 10.8508075293
11.4199209073 6.5007601681 1.8701217902
11.6236335962 6.6794398027 1.5554897579
11.8692450551 6.4544112616 1.8413488936
11.5781486223 6.2056032359 2.5273839586
10.8874514951 6.4976172111 2.2221616866
11.5932575413 5.8003102077 3.5162117656
11.3129623926 5.6335707956 11.5225263736
11.4005417990 6.2062965574 12.1960209585
11.7537409103 6.7123001637 12.5630127139
11.1293212338 6.9424929924 1.6963935475
11.6487707875 7.0197016266 1.4346415912
10.8715984056 7.2953062440 13.3651100526
11.5459781847 7.2254134374 13.0767421016
11.2851170119 7.4235705850 1.5485877052
11.3301498922 8.0944695763 1.7317422021
11.3147412332 7.7714835041 13.5012574629
11.2938088823 8.7386212104 13.9237872138
11.5418258020 8.9210270282 1.9969418932
11.0469936292 9.4288434408 14.3288314132
10.7877606941 9.8448600260 14.4756509759
11.1620587638 9.8573708102 14.4473979643
11.0052966061 9.6956986780 2.1778073462
11.4644678489 10.3514781403 2.4344690984
11.8408362576 10.7074232794 14.2514984991
11.4150919793 10.5677420542 14.4725743702
11.5006271474 10.1238501620 14.3673289361
11.6008111578 11.4130177890 2.6280254580
11.3803218055 10.9697889543 14.5031769439
11.0203404442 11.6719311334 14.5857285962
11.7198486166 12.3822525988 2.7305820382
11.0154084205 12.4904745302 14.5375913095
11.9465787353 13.1927544239 2.7966053043
11.3333771328 12.8843660790 14.3192670779
11.1306917560 13.7238046926 14.1049126162
10.9532649316 14.2348264014 3.1453789229
11.9178487647 14.1966477229 2.9478967426
11.1980516765 14.6674406053 13.7191285720
11.3323941343 14.7665933932 3.2393831075
11.4644289834 15.2974793737 3.5195171082
11.0193257417 15.3444719109 13.4852982324
11.5246347482 15.0925941946 13.3796328820
11.2820768597 15.7357958593 13.0799809709
11.5993764507 15.6794375266 4.0635225783
11.6106627352 15.8193219563 4.9695455965
10.8778625623 16.5670666698 6.7523122451
11.4349704717 16.0917874126 6.1356295730
11.1552054256 16.6876990765 7.4306162768
11.5785263969 16.3493476993 7.1522099063
11.6318248143 16.5516198517 7.8072850979
11.3286809663 16.3747941795 12.5578954233
11.2473843003 16.8591634965 8.1567701870
11.2216732510 17.1971922039 9.0920939615
11.2172345033 17.0994939723 8.8385679955
11.6628239084 16.9812171174 9.7263977675
11.1544570747 17.1006235269 11.9463607790
11.4565845306 16.9691659750 11.7158914759
11.4390545360 17.0979546308 11.5262765706
11.5146035228 16.6988240320 12.0695968023
11.3391824399 2.7315461344 8.2186668855
11.1859752294 2.5090595454 8.8668329653
11.4913511151 3.3595621092 7.3413353230
11.8907945158 3.6524037052 8.2109909411
11.4953234159 3.1405035366 8.9579296346
11.7105686236 4.0017177717 6.7160118999
12.0464742160 4.0465395596 7.3631008361
12.2718188836 4.2045011648 7.8918279897
12.2513757495 4.2487672701 8.4190601525
12.4406373608 4.7419939110 8.7060856198
11.9039736250 4.1231897447 9.2021464752
11.6477236297 5.4602473429 4.1919628657
11.8714205241 5.2981814640 4.8194716073
12.0235300894 5.0455728607 5.6333938088
12.1782729529 4.6684341142 6.6299363932
12.3856159333 4.5379286398 7.4294696863
12.3324516614 4.8928458883 9.2940624535
12.5981958407 5.1622470836 8.9502573757
11.9174924384 4.9144393637 10.0564782146
11.9860257578 6.7419603976 1.5274796703
12.2301166136 6.6060964446 1.8320412200
12.2388043405 6.4635465642 2.3760718917
12.2266803114 6.2507814691 3.2845548106
12.2106895363 5.8636190301 4.3417348805
12.3450065497 5.6021924204 5.2487707583
12.6791119885 5.6067550456 9.4937951119
12.1801936936 5.7363271987 10.7559562760
12.0102139914 6.1177210605 11.6533255980
12.0122759132 6.4129243656 12.1150733032
12.3144340976 6.4131825776 11.8395441452
11.9969043218 7.0998208994 1.4704817680
11.7072617724 7.4201937534 1.4827851887
12.0699377153 7.5419016814 1.6987317885
12.4257327854 6.7879443728 12.1417518037
12.1706210685 7.1863325425 12.7233239294
12.0935658773 8.2443654766 1.9719627608
12.1938201454 7.9388317983 13.1704144352
12.2956043443 8.8092951879 13.5384865147
12.1165869167 8.9004413565 2.1531981231
11.7448139131 9.4633483350 2.2198644016
12.3961828298 9.3770846741 2.4555245149
11.4566985428 9.5279609399 14.2463267199
12.1096421041 9.7254758764 13.9071930807
12.4265464534 10.4935114915 2.6557257927
12.4370061013 10.6848813660 13.8276089404
12.4805885704 11.5528048261 2.7267485236
11.6438370137 11.4162464270 14.3788525119
12.2248362623 11.6371276098 13.9558244905
12.5767780926 12.5018175891 2.7525554281
11.5861949421 12.1600335564 14.3322557138
11.9944503787 12.8979838503 13.8875419540
12.7401288293 13.4241636076 2.8031733945
11.8943702635 13.9518581835 13.6420429605
12.9053965765 14.2215304461 2.8294571817
11.8505989938 14.6110543475 13.4275718876
12.2955600686 14.3086959707 13.2033028746
12.0678341719 15.0529313919 12.9731431706
12.0273089633 15.0650705642 3.1664468588
12.7527879011 14.9534264113 2.9249479423
12.2252070555 15.6118886190 5.6268133819
12.8382666339 15.2110393918 5.4724041847
12.6412260812 15.4712846641 4.9493238025
12.1994544805 15.6752535158 6.2723026681
12.6752121940 15.2729440350 6.0679987680
12.5470673618 15.4401445289 6.6576831926
11.9115406173 15.8279069942 12.5502724996
12.8016153598 15.7542426422 3.3096850561
12.5326986068 15.7086398842 4.2518380924
12.1102247875 15.8774007472 6.9100543290
11.8917839446 16.5354358420 8.3643447723
12.1613835394 16.1127962105 7.8382519442
12.3040825398 16.2272118253 8.6875885209
12.1124380923 16.6151838652 10.3782734616
12.5220166396 16.1716184739 10.2353151965
12.3244851017 16.4351523444 9.8448792317
11.9346073890 16.5735494210 11.4829584225
12.4739643344 16.0500183458 11.0191222857
11.8227470339 16.3366063109 12.1545076587
12.2780324574 15.9362932703 11.8995150748
11.9476930740 16.6640848207 9.2096548551
11.7310327419 16.9321303266 10.9704037072
12.5188962725 4.7039010547 8.0058802229
12.6233866508 5.6035447120 6.1735037283
12.6546510470 5.1853287830 7.2602190168
12.8461849658 5.4908392325 8.2817842552
12.3004623783 6.9964088948 1.7364306776
12.4987826103 6.8340995721 2.1763421662
12.7804802899 6.9644771755 3.0275720170
12.7504274478 6.5906915561 4.1328382081
12.7853169169 6.2775964463 5.2687088094
12.9773638088 6.2857038939 6.1129812781
13.1106398142 6.2210106345 7.0292983322
13.2870425754 6.3163682472 8.0068263032
13.2140997583 6.2032952625 8.8048657911
13.1846795548 6.3090013021 9.5339233578
13.4797048341 6.7342230193 9.2132801925
12.9377722931 6.3000460664 10.3168245431
12.6425961129 6.4647730448 11.3423772665
12.6169962835 7.5863170325 2.2622302685
13.0602667588 7.6400949249 2.8784348247
13.2143560629 7.5398112117 3.3389426620
13.4415642997 8.0172833035 3.6718995260
13.2038410671 7.3912578446 4.0336566955
13.1078137795 7.0126209610 4.8785659159
13.2791069539 7.0377325656 5.9375081492
13.4811406116 7.0992191001 6.8901973651
13.4877730461 6.8505501711 7.5537952854
13.4316751567 6.8692968678 9.9746198821
13.2601276147 6.9684634990 10.8909435149
13.0295773453 7.1278985328 11.7432633431
12.7391358511 7.4325304433 12.4540488899
13.2293600852 7.6739777695 12.1016293968
12.5182897518 8.4867793221 2.2801146134
13.0067093056 8.4492013550 2.7281822424
13.5142181160 8.0566017189 4.2472615012
13.6759224291 8.5682246889 3.9728427794
13.4591318092 7.7801607909 4.9864470948
13.6068420235 7.8849186283 5.8068320363
13.6266458310 7.6534626108 6.4714731399
13.0219378623 8.0777356986 12.6513122817
12.7867600592 8.5488230769 13.1291988349
13.2788424659 8.8027321410 12.7214609912
13.1116093321 9.5769022804 2.8805399107
13.7683347525 8.5829717546 4.6345329825
13.7735385666 8.3930821704 5.3820391262
12.8494268456 9.2727812006 13.3008449523
13.4128711580 9.7020846981 12.7809780370
13.3188314277 10.7433251353 2.9504949360
12.9081554263 10.2093542025 13.3897858019
13.4673338092 10.7323442598 12.8060979310
13.1805181340 11.7906392140 2.8322262221
12.9258421467 11.2386968221 13.3911813734
13.4229129153 11.7743696712 12.7831583897
13.4243239961 12.5997144397 2.8552235738
12.8528441206 12.4279793730 13.2798616864
13.3757807889 12.5829732689 12.6704321346
13.7589228804 13.6722858580 2.8692792076
13.5234999597 14.1067035113 9.3161004430
13.7283878741 13.5250167287 9.0683846968
13.5852534585 13.9037300394 8.7117765595
13.7123491124 13.6227858285 9.6218139825
13.1333313326 13.3027556089 12.6944966166
13.5226075695 13.0191925201 12.2235707934
13.3843547377 13.7384659715 11.9921027490
12.5546057027 13.5470109659 13.2463334561
13.4567658179 14.6613343275 2.7875250828
13.2097454642 14.8071188428 5.8127800228
13.6189002103 14.4309679719 5.6053479051
13.4875503235 14.8580223378 5.0479067599
13.0624538220 14.8737263294 6.6899044486
13.6170888443 14.2404039477 6.2009482465
13.1534380129 14.7842775946 7.7303236706
13.5587943309 14.1305809464 7.1224689123
13.2718195290 14.6424648676 8.7550102611
13.5520300163 14.0297650884 8.0321975308
13.2880007657 14.7589756732 9.6940928917
13.5475372071 14.1878194885 10.0064977943
12.7999743965 14.3927659342 12.5064047144
13.2256552504 14.4677702427 11.6887616159
13.5611343140 15.4689035246 2.7028084676
13.1931012739 15.4342148964 4.4450536397
12.6507914073 15.4546127479 7.3806502315
12.7562467978 15.5396556184 8.4631930189
12.9910944436 15.3135038542 9.3516738183
13.3537836865 14.7214595275 10.3450757121
12.9499008592 15.4264818720 10.3542524784
12.8297829506 15.2349166147 11.5800929768
13.2879492964 14.7408592017 10.9894981275
12.4335159593 15.3179462911 12.3479118119
13.5963341476 16.1852075457 2.6189390743
14.0807325041 16.3751853084 2.2438993064
13.9315394387 15.9803318831 2.3683980511
13.6161213927 16.4567495799 2.8976685516
13.7089285556 16.2180463880 3.2826312571
13.3950404307 15.7424858926 3.8289117196
12.5770488678 16.0236213785 9.4660529194
13.8581226606 16.5773775902 2.4893273752
14.3202412975 16.5964197224 2.1648143271
13.9420769691 16.7194895169 2.7881074509
14.0327268486 16.6368706636 2.9934727592
13.5987533931 6.9884169572 8.4251025555
13.3130444714 8.0235749082 3.1745349547
13.8087111622 7.7721323201 7.4684158657
13.8933375925 7.8311175770 8.5974162544
13.7714068459 7.5235437746 9.4762890580
13.6790703531 7.6053481203 10.5681664809
13.4875172940 7.6380192822 11.4583998265
13.5167957664 8.8020897780 3.3698385421
13.9314609822 8.4387309651 6.2695587828
14.2075340916 8.9280069432 7.2750874344
14.0954269378 8.6118251826 8.3466054056
14.0548998400 8.4895647429 9.3351056522
13.9821296316 8.4497309705 10.3410585248
13.8062273556 8.3848803743 11.3079305608
13.4969076515 8.2542815718 12.0852285963
13.6668934270 9.7983048119 3.3021436545
14.0509771814 9.4974315427 4.0638743275
14.1571953508 9.1625945592 5.2764704857
14.3347717445 9.2612597007 6.2892369362
14.4535264239 9.4630576123 6.8765842286
14.4353800211 9.5812204390 7.4254787375
14.5059886000 10.1945464780 7.6839743049
14.3145259777 9.6275676722 8.2877044049
14.2131684716 9.2814615538 9.1405825002
14.2323569304 9.4624115405 10.1286318720
14.0985402558 9.3960926489 11.2005930984
13.7307791775 9.1037435045 12.0705003404
14.0948971712 10.5530335722 3.4408053010
14.7019970814 10.6251466518 4.0380567985
14.6053777496 10.0583269481 4.7773752543
14.6030587200 9.8915048641 5.6973909483
14.5835573656 9.7852188640 6.4247773528
14.3677701211 10.7384293032 8.5198830776
14.5274488496 11.0282374602 7.6921888643
14.3202706255 10.3764460880 9.5995457905
14.3976738624 10.2678922370 10.3706986681
14.3702687095 10.0832751531 10.8776321554
14.2834093280 10.1928827964 11.4327371158
14.2797989442 10.7641457491 11.6376720789
13.9393415407 10.1705199872 12.0545588866
13.9737766917 11.6203976752 3.0878059597
14.5645802685 11.2293097851 3.4870853122
14.2762844739 11.8498409051 8.3563273576
14.4858229622 11.7559791281 7.5144332031
14.2194141440 11.5796855241 9.4462314850
14.4213931689 10.7619933097 10.4202551086
14.2991745322 11.3746915409 10.4663244932
14.4469166072 11.0577204203 10.8249835788
13.9350210270 11.2991205894 12.0961205681
14.2776202857 11.2984037835 11.5283947592
14.2096250451 12.6124966208 3.0405097200
14.2217481266 12.6217020215 7.5759740252
14.5658805944 12.0750594151 7.0145321272
14.4700291439 12.6178098245 6.7216749382
14.0871537300 12.6145934094 8.4009788245
13.9676036320 12.7871995358 9.2695368587
14.0406482528 12.3848875122 10.4096695463
14.3605886223 11.3652887152 11.1095997048
14.0976539120 11.9023900367 11.3482119808
13.7282311127 12.2966383894 12.1374549764
14.4408847121 13.1890918725 3.0736958486
14.4730359526 13.7708177911 3.0351742302
14.8662196726 13.2326837939 3.2934120332
14.1823946688 13.8575095295 5.5155599040
14.8398572618 13.0807742624 5.3645134052
14.8356428307 13.5949111223 4.8512222908
14.0797953312 13.4022299600 6.6543552303
14.6003879697 12.8914271047 6.0176605486
13.8603852250 13.4832652281 7.5430281601
13.8602705886 13.2677711867 8.3747907445
13.7584882262 13.4970981347 10.3828677307
13.7657787328 13.0178330714 11.4194376089
14.3521330474 14.8313917866 2.8029496903
14.8106531424 13.9240201033 3.2335886421
14.6185909186 14.7495672636 3.8575856401
14.3332566328 14.3892452410 4.6127185313
14.8786981573 14.0224525893 4.3339252995
13.5373271961 14.2756476403 10.6060856773
13.5426023145 14.0045492956 11.2078400708
14.1628360824 15.6050157016 2.4234183386
14.3701179104 16.0392043087 2.1997186847
14.5548441809 15.6422170462 2.3577910319
13.8906499847 15.1918117155 4.2015513294
14.2089735490 15.7828210627 3.4687537314
14.5928033019 16.4156259631 2.0976696151
14.2192679534 16.4124972083 3.1362351798
14.8211646952 16.6251400163 2.1597016129
14.3551128086 16.6309372671 2.9716249209
14.3950041216 16.7107458941 2.8232828995
14.6030266904 9.9642840720 6.9808136234
14.9370971998 10.5970580269 4.5845437570
15.0007355851 10.6802106079 5.2259019659
14.7924640716 10.4880697523 6.3065276799
14.6664683279 10.5559491746 7.1202864930
14.4727356766 10.6339451615 10.8318397453
14.4341614192 10.5422765295 11.2250568266
14.6843252726 11.9955706103 3.3305890451
15.0443420544 11.5181695454 3.7807717012
15.2317171001 11.1399048969 4.4552426791
15.3939224948 11.3564817145 5.0765167933
15.4101851565 11.7594522804 5.3267078041
15.0872684117 11.4083095444 5.8197033064
14.7368177560 11.3218357802 6.8487708540
14.4406812324 10.9753168204 11.2226149797
14.7311811227 12.6846187928 3.2392302824
15.1575098445 12.4622109930 3.5749402702
15.1245779391 12.2956473405 5.5663636869
15.4903485839 12.1317067396 5.1401411773
15.3138271593 12.7973918525 4.9492425238
14.7953763022 12.0977440227 6.3410359524
15.2532291672 13.3813256158 3.6770835241
15.2663094135 13.4360379264 4.4444466224
14.8714028410 14.3808014356 3.4215147724
15.1269512955 13.8977628792 3.9709557860
14.8107725966 16.0706607922 2.1891356776
14.8403600627 15.7009962201 2.4926770843
14.7207832209 15.4352373974 3.0519746734
15.0246645160 16.1120234841 2.5472947027
15.0076398366 16.4231079344 2.1443288409
14.6686806439 16.3509498165 2.8686776314
15.0585464090 16.4868560269 2.4637140866
15.0741365594 16.5936004823 2.2592998903
14.8713009808 16.6499989161 2.4862696609
15.4033855181 11.8516434510 4.0332541492
15.5529609396 11.6177291019 4.6684905582
15.5882814019 11.7686447294 5.0092739060
15.6029798392 12.2141004850 4.8449034179
15.4633500642 12.6853529030 3.8163400606
15.5459821979 12.9628454963 4.4764581491
15.5522694940 13.0917287379 4.0233214338
15.4532695521 13.3544410170 4.1199201956
15.0770140372 16.1509586411 2.2795688185
15.1608644096 16.3956441177 2.2935442170
3 2 1 0
3 4 3 0
3 0 3 2
3 4 5 3
3 1 6 0
3 8 7 6
3 7 0 6
3 7 4 0
3 5 4 9
3 9 4 7
3 8 10 7
3 7 10 9
3 13 12 11
3 15 14 11
3 11 14 13
3 17 16 15
3 15 16 14
3 17 18 16
3 21 20 19
3 21 19 12
3 19 11 12
3 19 22 11
3 11 23 15
3 11 22 23
3 15 24 17
3 15 23 24
3 18 17 25
3 25 17 24
3 19 20 26
3 26 20 27
3 19 28 22
3 19 26 28
3 22 29 23
3 22 28 29
3 23 30 24
3 23 29 30
3 25 24 31
3 31 24 30
3 26 27 32
3 32 27 33
3 26 34 28
3 26 32 34
3 28 35 29
3 28 34 35
3 29 36 30
3 29 35 36
3 31 30 37
3 37 30 36
3 32 33 38
3 38 33 39
3 32 40 34
3 32 38 40
3 34 41 35
3 34 40 41
3 35 42 36
3 35 41 42
3 37 36 43
3 43 36 42
3 39 44 38
3 38 44 40
3 40 44 45
3 40 45 41
3 41 45 46
3 48 47 46
3 47 41 46
3 47 42 41
3 43 42 49
3 42 50 49
3 42 47 50
3 52 51 50
3 50 51 49
3 52 53 51
3 48 54 47
3 55 1 2
3 47 55 2
3 50 47 2
3 54 55 47
3 50 2 3
3 50 3 52
3 3 5 52
3 5 53 52
3 5 56 53
3 55 57 1
3 1 57 6
3 8 6 57
3 8 57 58
3 9 56 5
3 9 59 56
3 10 8 60
3 8 61 60
3 8 58 61
3 60 62 10
3 62 9 10
3 62 59 9
3 65 64 63
3 67 66 63
3 63 66 65
3 67 68 66
3 71 70 69
3 73 72 69
3 69 72 71
3 72 73 64
3 73 63 64
3 73 74 63
3 63 75 67
3 63 74 75
3 68 67 76
3 67 77 76
3 67 75 77
3 77 78 76
3 69 70 79
3 79 70 80
3 79 12 13
3 73 79 13
3 69 79 73
3 73 13 14
3 73 14 74
3 74 14 16
3 74 16 75
3 75 16 18
3 81 75 18
3 77 75 81
3 78 77 82
3 77 83 82
3 77 81 83
3 83 84 82
3 87 86 85
3 87 85 80
3 80 85 79
3 85 20 79
3 20 21 79
3 79 21 12
3 25 88 81
3 25 81 18
3 81 89 83
3 81 88 89
3 84 83 90
3 90 83 89
3 85 86 91
3 91 86 92
3 91 27 20
3 91 20 85
3 31 93 88
3 31 88 25
3 88 94 89
3 88 93 94
3 90 89 95
3 89 96 95
3 89 94 96
3 96 97 95
3 91 92 98
3 98 92 99
3 98 33 27
3 98 27 91
3 37 100 93
3 37 93 31
3 93 101 94
3 93 100 101
3 94 102 96
3 94 101 102
3 97 96 103
3 103 96 102
3 98 99 104
3 104 99 105
3 104 39 33
3 104 33 98
3 43 106 100
3 43 100 37
3 100 107 101
3 100 106 107
3 101 108 102
3 101 107 108
3 103 102 109
3 109 102 108
3 105 110 104
3 104 110 39
3 110 44 39
3 110 111 44
3 111 113 112
3 45 111 112
3 44 111 45
3 114 46 45
3 114 45 112
3 114 48 46
3 49 106 43
3 106 49 51
3 106 51 107
3 107 51 53
3 115 107 53
3 108 107 115
3 109 108 116
3 116 108 115
3 113 117 112
3 112 117 114
3 114 117 118
3 118 120 119
3 118 119 54
3 114 118 54
3 48 114 54
3 119 55 54
3 122 121 115
3 53 122 115
3 56 122 53
3 115 121 116
3 120 123 119
3 123 125 124
3 123 124 57
3 119 123 57
3 55 119 57
3 124 58 57
3 59 122 56
3 59 126 122
3 125 127 124
3 61 58 124
3 128 61 124
3 127 128 124
3 61 128 129
3 128 126 129
3 126 62 129
3 126 59 62
3 132 131 130
3 134 133 130
3 130 133 132
3 134 135 133
3 138 137 136
3 138 136 131
3 136 130 131
3 136 139 130
3 139 64 65
3 134 139 65
3 130 139 134
3 140 135 134
3 65 140 134
3 66 140 65
3 142 141 68
3 141 66 68
3 141 140 66
3 144 143 142
3 142 143 141
3 144 145 143
3 148 147 146
3 148 146 137
3 137 146 136
3 146 70 136
3 70 71 136
3 136 71 72
3 136 72 139
3 139 72 64
3 76 142 68
3 142 76 78
3 149 142 78
3 144 142 149
3 145 144 150
3 144 151 150
3 144 149 151
3 151 152 150
3 155 154 153
3 155 153 147
3 153 146 147
3 153 156 146
3 156 80 70
3 156 70 146
3 82 149 78
3 149 82 84
3 157 149 84
3 151 149 157
3 152 151 158
3 158 151 157
3 154 159 153
3 160 86 87
3 153 160 87
3 156 153 87
3 159 160 153
3 156 87 80
3 90 161 157
3 90 157 84
3 158 157 162
3 162 157 161
3 165 164 163
3 160 165 163
3 92 160 163
3 86 160 92
3 95 161 90
3 167 166 97
3 97 166 95
3 166 162 95
3 162 161 95
3 167 168 166
3 163 164 169
3 169 164 170
3 169 99 92
3 169 92 163
3 103 171 167
3 103 167 97
3 168 167 172
3 172 167 171
3 170 173 169
3 99 169 173
3 174 99 173
3 105 99 174
3 109 175 171
3 109 171 103
3 172 171 176
3 176 171 175
3 174 177 105
3 105 177 110
3 177 179 178
3 111 177 178
3 110 177 111
3 178 113 111
3 181 180 175
3 109 181 175
3 116 181 109
3 175 180 176
3 179 182 178
3 178 182 113
3 182 117 113
3 182 183 117
3 183 185 184
3 118 183 184
3 117 183 118
3 184 120 118
3 122 186 121
3 186 187 121
3 187 116 121
3 187 181 116
3 185 188 184
3 184 188 120
3 188 123 120
3 188 189 123
3 125 123 189
3 125 189 190
3 192 191 186
3 122 192 186
3 126 192 122
3 186 191 187
3 190 193 125
3 125 193 127
3 127 194 128
3 193 194 127
3 126 128 192
3 192 128 194
3 197 196 195
3 199 198 195
3 195 198 197
3 201 200 199
3 199 200 198
3 201 202 200
3 205 204 203
3 205 203 196
3 196 203 195
3 203 131 195
3 131 132 195
3 195 132 133
3 195 133 199
3 199 133 135
3 206 199 135
3 201 199 206
3 202 201 207
3 201 208 207
3 201 206 208
3 210 209 208
3 208 209 207
3 210 211 209
3 214 213 212
3 214 212 204
3 204 212 203
3 212 137 203
3 137 138 203
3 203 138 131
3 140 206 135
3 206 140 141
3 206 141 208
3 208 141 143
3 208 143 210
3 216 215 145
3 145 215 143
3 215 211 143
3 211 210 143
3 216 217 215
3 220 219 218
3 220 218 213
3 213 218 212
3 218 147 212
3 147 148 212
3 212 148 137
3 150 216 145
3 150 152 216
3 152 217 216
3 152 221 217
3 218 219 155
3 219 154 155
3 219 222 154
3 218 155 147
3 158 224 223
3 221 158 223
3 152 158 221
3 224 225 223
3 159 154 226
3 154 227 226
3 154 222 227
3 226 160 159
3 162 228 224
3 162 224 158
3 225 224 229
3 229 224 228
3 226 227 165
3 227 164 165
3 227 230 164
3 226 165 160
3 166 228 162
3 166 168 228
3 168 229 228
3 168 231 229
3 230 170 164
3 232 170 230
3 172 231 168
3 172 233 231
3 232 234 170
3 170 234 173
3 174 173 234
3 174 234 235
3 176 233 172
3 176 236 233
3 177 174 237
3 174 238 237
3 174 235 238
3 237 179 177
3 181 239 180
3 239 240 180
3 240 176 180
3 240 236 176
3 238 241 237
3 241 243 242
3 241 242 182
3 237 241 182
3 179 237 182
3 244 183 182
3 244 182 242
3 244 185 183
3 246 245 239
3 181 246 239
3 187 246 181
3 239 245 240
3 243 247 242
3 242 247 244
3 244 247 248
3 248 250 249
3 248 249 188
3 244 248 188
3 185 244 188
3 251 189 188
3 251 188 249
3 251 190 189
3 253 252 191
3 253 191 192
3 187 191 246
3 246 191 252
3 250 254 249
3 249 254 251
3 251 254 255
3 251 255 190
3 255 193 190
3 255 256 193
3 193 257 194
3 256 257 193
3 192 194 253
3 253 194 257
3 260 259 258
3 262 261 258
3 258 261 260
3 262 263 261
3 266 265 264
3 268 267 264
3 264 267 266
3 196 197 268
3 197 267 268
3 197 269 267
3 198 258 259
3 269 198 259
3 197 198 269
3 258 198 200
3 258 200 262
3 271 270 202
3 202 270 200
3 270 263 200
3 263 262 200
3 273 272 271
3 271 272 270
3 273 274 272
3 277 276 275
3 277 275 265
3 275 264 265
3 275 278 264
3 278 204 205
3 268 278 205
3 264 278 268
3 268 205 196
3 207 271 202
3 271 207 209
3 271 209 273
3 209 211 273
3 211 274 273
3 211 279 274
3 275 276 280
3 280 276 281
3 280 213 214
3 278 280 214
3 275 280 278
3 278 214 204
3 282 279 211
3 282 211 215
3 215 217 282
3 282 217 283
3 280 281 220
3 281 219 220
3 281 284 219
3 280 220 213
3 221 286 285
3 283 221 285
3 217 221 283
3 286 287 285
3 290 289 288
3 284 290 288
3 222 284 288
3 219 284 222
3 223 286 221
3 223 225 286
3 225 287 286
3 225 291 287
3 288 289 292
3 292 289 293
3 292 227 222
3 292 222 288
3 229 291 225
3 229 294 291
3 293 295 292
3 227 292 295
3 296 227 295
3 230 227 296
3 231 298 297
3 294 231 297
3 229 231 294
3 298 299 297
3 296 232 230
3 300 232 296
3 233 301 298
3 233 298 231
3 299 298 302
3 302 298 301
3 234 232 303
3 232 304 303
3 232 300 304
3 303 235 234
3 236 305 301
3 236 301 233
3 302 301 306
3 306 301 305
3 304 307 303
3 235 303 307
3 308 235 307
3 238 235 308
3 310 309 305
3 236 310 305
3 240 310 236
3 305 309 306
3 308 311 238
3 238 311 241
3 243 241 311
3 243 311 312
3 314 313 245
3 314 245 246
3 240 245 310
3 310 245 313
3 312 315 243
3 243 315 247
3 315 317 316
3 248 315 316
3 247 315 248
3 316 250 248
3 319 318 252
3 319 252 253
3 246 252 314
3 314 252 318
3 317 320 316
3 316 320 250
3 320 254 250
3 320 321 254
3 254 322 255
3 321 322 254
3 255 323 256
3 322 323 255
3 256 324 257
3 323 324 256
3 253 257 319
3 319 257 324
3 327 326 325
3 325 328 327
3 331 330 329
3 333 332 329
3 329 332 331
3 259 260 333
3 260 332 333
3 260 334 332
3 261 325 326
3 334 261 326
3 260 261 334
3 336 335 263
3 263 335 261
3 335 328 261
3 328 325 261
3 336 337 335
3 340 339 338
3 265 266 338
3 266 340 338
3 266 341 340
3 267 329 330
3 341 267 330
3 266 267 341
3 329 267 269
3 329 269 333
3 333 269 259
3 270 336 263
3 342 337 336
3 270 342 336
3 272 342 270
3 272 274 342
3 342 274 343
3 338 339 277
3 339 276 277
3 339 344 276
3 338 277 265
3 279 346 345
3 343 279 345
3 274 279 343
3 346 347 345
3 350 349 348
3 344 350 348
3 281 344 348
3 276 344 281
3 282 346 279
3 352 351 283
3 283 351 282
3 351 347 282
3 347 346 282
3 352 353 351
3 348 349 354
3 354 349 355
3 354 284 281
3 354 281 348
3 285 352 283
3 285 287 352
3 287 353 352
3 287 356 353
3 354 355 290
3 355 289 290
3 355 357 289
3 354 290 284
3 291 356 287
3 291 358 356
3 357 293 289
3 359 293 357
3 294 358 291
3 294 360 358
3 295 293 361
3 293 362 361
3 293 359 362
3 361 296 295
3 363 360 294
3 363 294 297
3 297 299 363
3 363 299 364
3 362 365 361
3 296 361 365
3 366 296 365
3 300 296 366
3 302 368 367
3 364 302 367
3 299 302 364
3 366 304 300
3 369 304 366
3 306 370 368
3 306 368 302
3 369 371 304
3 304 371 307
3 308 307 371
3 308 371 372
3 374 373 309
3 374 309 310
3 306 309 370
3 309 375 370
3 309 373 375
3 372 376 308
3 308 376 311
3 312 311 376
3 312 376 377
3 314 378 313
3 378 379 313
3 379 310 313
3 379 374 310
3 315 312 380
3 312 381 380
3 312 377 381
3 380 317 315
3 319 382 318
3 382 383 318
3 318 383 314
3 383 384 314
3 384 378 314
3 378 384 379
3 381 385 380
3 380 385 317
3 385 320 317
3 385 386 320
3 386 388 387
3 321 386 387
3 320 386 321
3 389 322 321
3 389 321 387
3 390 323 322
3 390 322 389
3 391 324 323
3 391 323 390
3 391 392 324
3 324 392 319
3 392 393 319
3 393 382 319
3 382 393 383
3 396 395 394
3 394 397 396
3 400 399 398
3 400 398 395
3 398 394 395
3 398 401 394
3 327 402 326
3 402 394 326
3 394 401 326
3 394 402 397
3 327 328 402
3 402 328 403
3 406 405 404
3 330 331 404
3 331 406 404
3 331 407 406
3 332 398 399
3 407 332 399
3 331 332 407
3 398 332 334
3 398 334 401
3 401 334 326
3 408 403 328
3 408 328 335
3 335 337 408
3 408 337 409
3 411 410 340
3 340 410 339
3 341 404 405
3 411 341 405
3 340 341 411
3 404 341 330
3 412 409 337
3 412 337 342
3 342 343 412
3 412 343 413
3 416 415 414
3 410 416 414
3 344 410 414
3 339 410 344
3 417 413 343
3 417 343 345
3 345 347 417
3 417 347 418
3 414 415 350
3 415 349 350
3 415 419 349
3 414 350 344
3 420 418 347
3 420 347 351
3 351 353 420
3 420 353 421
3 419 355 349
3 422 355 419
3 356 421 353
3 356 423 421
3 422 357 355
3 424 357 422
3 358 423 356
3 358 425 423
3 424 359 357
3 426 359 424
3 360 425 358
3 360 427 425
3 426 362 359
3 428 362 426
3 429 427 360
3 429 360 363
3 363 364 429
3 429 364 430
3 365 362 431
3 362 432 431
3 362 428 432
3 431 366 365
3 364 367 433
3 434 364 433
3 430 364 434
3 432 435 431
3 366 431 435
3 436 366 435
3 369 366 436
3 434 433 437
3 434 437 438
3 371 369 439
3 369 440 439
3 369 436 440
3 439 372 371
3 374 441 373
3 442 438 437
3 373 442 437
3 375 373 437
3 442 373 441
3 440 443 439
3 443 445 444
3 443 444 376
3 439 443 376
3 372 439 376
3 444 377 376
3 447 446 441
3 374 447 441
3 379 447 374
3 441 446 442
3 445 448 444
3 377 444 448
3 449 377 448
3 381 377 449
3 451 450 384
3 451 384 383
3 379 384 447
3 447 384 450
3 449 452 381
3 381 452 385
3 385 453 386
3 452 453 385
3 388 386 453
3 388 453 454
3 392 455 393
3 455 456 393
3 456 383 393
3 456 451 383
3 459 458 457
3 395 396 457
3 396 459 457
3 396 460 459
3 462 461 397
3 461 396 397
3 461 460 396
3 462 463 461
3 466 465 464
3 466 464 458
3 458 464 457
3 464 399 457
3 399 400 457
3 457 400 395
3 402 462 397
3 402 403 462
3 403 463 462
3 403 467 463
3 469 468 406
3 406 468 405
3 407 464 465
3 469 407 465
3 406 407 469
3 464 407 399
3 470 467 403
3 470 403 408
3 408 409 470
3 470 409 471
3 473 472 411
3 411 472 410
3 411 405 468
3 411 468 473
3 474 471 409
3 474 409 412
3 412 413 474
3 474 413 475
3 477 476 416
3 416 476 415
3 416 410 472
3 416 472 477
3 478 475 413
3 478 413 417
3 417 418 478
3 478 418 479
3 476 419 415
3 480 419 476
3 481 479 418
3 481 418 420
3 420 421 481
3 481 421 482
3 485 484 483
3 480 485 483
3 422 480 483
3 419 480 422
3 423 487 486
3 482 423 486
3 421 423 482
3 487 488 486
3 483 484 489
3 489 484 490
3 489 424 422
3 489 422 483
3 492 491 487
3 423 492 487
3 425 492 423
3 487 491 488
3 490 493 489
3 424 489 493
3 494 424 493
3 426 424 494
3 427 492 425
3 427 495 492
3 494 428 426
3 496 428 494
3 427 429 497
3 498 427 497
3 495 427 498
3 430 497 429
3 496 432 428
3 499 432 496
3 500 498 497
3 497 430 500
3 430 501 500
3 430 434 501
3 499 502 432
3 432 502 435
3 436 435 502
3 436 502 503
3 438 501 434
3 438 504 501
3 503 440 436
3 505 440 503
3 508 507 506
3 507 504 506
3 504 442 506
3 504 438 442
3 443 440 509
3 440 510 509
3 440 505 510
3 509 445 443
3 508 506 446
3 447 508 446
3 511 508 447
3 446 506 442
3 510 512 509
3 509 512 445
3 512 448 445
3 512 513 448
3 449 448 513
3 449 513 514
3 516 515 450
3 516 450 451
3 447 450 511
3 511 450 515
3 514 517 449
3 449 517 452
3 452 518 453
3 517 518 452
3 454 453 518
3 454 518 519
3 456 516 451
3 456 520 516
3 523 522 521
3 521 524 523
3 526 525 459
3 459 525 458
3 460 521 522
3 526 460 522
3 459 460 526
3 527 524 521
3 460 527 521
3 461 527 460
3 461 463 527
3 527 463 528
3 529 465 466
3 530 529 466
3 458 530 466
3 525 530 458
3 467 532 531
3 528 467 531
3 463 467 528
3 532 533 531
3 535 534 469
3 469 534 468
3 469 465 529
3 536 469 529
3 535 469 536
3 536 529 530
3 470 532 467
3 470 471 532
3 471 533 532
3 471 537 533
3 539 538 473
3 473 538 472
3 473 468 534
3 473 534 539
3 540 537 471
3 540 471 474
3 474 475 540
3 540 475 541
3 543 542 477
3 477 542 476
3 477 472 538
3 477 538 543
3 544 541 475
3 544 475 478
3 478 479 544
3 544 479 545
3 548 547 546
3 542 548 546
3 480 542 546
3 476 542 480
3 549 545 479
3 549 479 481
3 481 482 549
3 549 482 550
3 546 547 485
3 547 484 485
3 547 551 484
3 546 485 480
3 482 486 552
3 553 482 552
3 550 482 553
3 488 552 486
3 551 490 484
3 554 490 551
3 553 552 491
3 492 553 491
3 555 553 492
3 491 552 488
3 554 556 490
3 490 556 493
3 494 493 556
3 494 556 557
3 495 559 558
3 555 495 558
3 492 495 555
3 559 560 558
3 557 496 494
3 561 496 557
3 498 562 559
3 498 559 495
3 560 559 563
3 563 559 562
3 561 499 496
3 564 499 561
3 500 562 498
3 500 501 562
3 501 563 562
3 501 565 563
3 502 499 566
3 499 567 566
3 499 564 567
3 566 503 502
3 570 569 568
3 569 565 568
3 565 504 568
3 565 501 504
3 567 571 566
3 503 566 571
3 572 503 571
3 505 503 572
3 570 568 507
3 508 570 507
3 573 570 508
3 507 568 504
3 572 510 505
3 574 510 572
3 511 573 508
3 511 575 573
3 574 576 510
3 510 576 512
3 512 577 513
3 576 577 512
3 514 513 577
3 514 577 578
3 580 579 515
3 580 515 516
3 511 515 575
3 575 515 579
3 578 581 514
3 514 581 517
3 517 582 518
3 581 582 517
3 584 583 519
3 518 584 519
3 582 584 518
3 585 583 584
3 588 587 586
3 587 580 586
3 580 520 586
3 580 516 520
3 589 522 523
3 524 589 523
3 590 525 526
3 591 590 526
3 591 526 522
3 592 591 522
3 589 592 522
3 592 589 524
3 527 592 524
3 593 592 527
3 527 528 593
3 593 528 594
3 596 595 590
3 595 525 590
3 595 530 525
3 596 590 591
3 528 531 597
3 598 528 597
3 594 528 598
3 533 597 531
3 599 534 535
3 599 535 600
3 535 601 600
3 535 536 601
3 536 530 595
3 536 595 601
3 598 597 602
3 598 602 603
3 537 602 533
3 533 602 597
3 605 604 539
3 539 604 538
3 539 534 599
3 606 539 599
3 605 539 606
3 606 599 600
3 607 603 602
3 609 607 608
3 608 607 540
3 607 602 540
3 602 537 540
3 541 608 540
3 612 611 610
3 614 613 610
3 610 613 612
3 542 543 614
3 543 613 614
3 543 615 613
3 543 538 604
3 543 604 615
3 616 609 608
3 616 608 541
3 544 616 541
3 617 616 544
3 544 545 617
3 617 545 618
3 610 611 619
3 619 611 620
3 619 547 548
3 614 619 548
3 610 619 614
3 614 548 542
3 545 549 621
3 622 545 621
3 618 545 622
3 550 621 549
3 620 623 619
3 547 619 623
3 624 547 623
3 551 547 624
3 625 622 621
3 621 550 625
3 550 626 625
3 550 553 626
3 624 554 551
3 627 554 624
3 555 629 628
3 626 555 628
3 553 555 626
3 629 630 628
3 627 631 554
3 554 631 556
3 557 556 631
3 557 631 632
3 629 555 558
3 635 634 633
3 634 635 560
3 635 630 560
3 629 558 560
3 629 560 630
3 632 561 557
3 636 561 632
3 637 633 634
3 634 560 637
3 560 638 637
3 560 563 638
3 636 564 561
3 639 564 636
3 565 638 563
3 565 640 638
3 639 567 564
3 641 567 639
3 643 642 569
3 643 569 570
3 565 569 640
3 640 569 642
3 571 567 644
3 567 645 644
3 567 641 645
3 644 572 571
3 573 643 570
3 573 646 643
3 645 647 644
3 572 644 647
3 648 572 647
3 574 572 648
3 651 650 649
3 650 646 649
3 646 575 649
3 646 573 575
3 648 652 574
3 574 652 576
3 576 653 577
3 652 653 576
3 655 654 578
3 577 655 578
3 653 655 577
3 657 656 654
3 657 654 655
3 658 656 657
3 651 649 579
3 580 651 579
3 659 651 580
3 579 649 575
3 654 581 578
3 581 654 582
3 582 654 656
3 658 660 656
3 660 582 656
3 660 584 582
3 662 661 585
3 584 662 585
3 660 662 584
3 663 661 662
3 666 665 664
3 587 588 664
3 665 587 664
3 667 587 665
3 580 587 659
3 659 587 667
3 668 591 592
3 593 669 592
3 592 669 668
3 594 669 593
3 670 595 596
3 591 668 596
3 668 670 596
3 668 671 670
3 672 668 669
3 671 668 672
3 598 672 594
3 594 672 669
3 673 600 601
3 595 670 601
3 670 673 601
3 670 674 673
3 671 676 675
3 674 671 675
3 670 671 674
3 678 677 676
3 671 678 676
3 672 678 671
3 603 678 598
3 598 678 672
3 679 604 605
3 606 680 605
3 605 680 679
3 681 680 606
3 681 606 600
3 682 681 600
3 673 682 600
3 682 673 674
3 682 674 683
3 683 674 675
3 677 678 684
3 677 684 685
3 607 686 603
3 686 678 603
3 686 684 678
3 609 686 607
3 688 687 612
3 612 687 611
3 689 612 613
3 689 688 612
3 690 613 615
3 690 689 613
3 615 604 679
3 691 615 679
3 690 615 691
3 691 679 680
3 691 680 692
3 692 680 681
3 693 685 684
3 693 684 686
3 693 686 694
3 694 686 609
3 616 694 609
3 695 694 616
3 697 695 696
3 695 617 696
3 695 616 617
3 618 696 617
3 699 620 698
3 620 687 698
3 620 611 687
3 700 699 698
3 701 697 696
3 696 618 701
3 618 702 701
3 618 622 702
3 699 623 620
3 624 623 699
3 700 624 699
3 703 624 700
3 704 702 622
3 704 622 625
3 625 626 704
3 704 626 705
3 707 627 706
3 627 703 706
3 627 624 703
3 708 707 706
3 626 628 709
3 710 626 709
3 705 626 710
3 630 709 628
3 707 631 627
3 632 631 707
3 708 632 707
3 711 632 708
3 710 709 635
3 633 710 635
3 712 710 633
3 635 709 630
3 711 636 632
3 713 636 711
3 633 637 714
3 715 633 714
3 712 633 715
3 638 714 637
3 713 639 636
3 716 639 713
3 715 714 717
3 715 717 718
3 640 717 638
3 638 717 714
3 716 641 639
3 719 641 716
3 718 717 642
3 643 718 642
3 720 718 643
3 642 717 640
3 719 645 641
3 721 645 719
3 724 723 722
3 723 720 722
3 720 646 722
3 720 643 646
3 647 645 725
3 645 726 725
3 645 721 726
3 725 648 647
3 729 728 727
3 731 730 727
3 731 727 728
3 732 730 731
3 724 722 650
3 651 724 650
3 733 724 651
3 650 722 646
3 726 734 725
3 725 734 648
3 734 652 648
3 734 735 652
3 727 653 729
3 653 735 729
3 653 652 735
3 653 727 655
3 655 727 730
3 732 736 730
3 736 655 730
3 736 657 655
3 738 737 658
3 657 738 658
3 736 738 657
3 739 737 738
3 742 741 740
3 744 743 740
3 744 740 741
3 746 745 743
3 746 743 744
3 746 733 745
3 733 659 745
3 733 651 659
3 737 660 658
3 739 747 737
3 747 660 737
3 747 662 660
3 740 748 663
3 747 740 663
3 662 747 663
3 742 740 747
3 666 748 665
3 748 743 665
3 748 740 743
3 665 743 667
3 667 743 745
3 667 745 659
3 749 675 676
3 677 749 676
3 750 681 682
3 683 751 682
3 682 751 750
3 675 749 683
3 749 751 683
3 749 752 751
3 685 752 677
3 677 752 749
3 753 687 688
3 689 754 688
3 688 754 753
3 690 755 689
3 689 755 754
3 691 756 690
3 690 756 755
3 692 757 691
3 691 757 756
3 681 750 692
3 750 757 692
3 750 758 757
3 759 750 751
3 758 750 759
3 752 761 760
3 759 752 760
3 751 752 759
3 763 761 762
3 762 761 693
3 761 752 693
3 752 685 693
3 694 764 693
3 693 764 762
3 695 765 694
3 694 765 764
3 697 765 695
3 753 698 687
3 698 753 700
3 753 766 700
3 753 754 766
3 755 768 767
3 766 755 767
3 754 755 766
3 770 769 768
3 755 770 768
3 756 770 755
3 771 756 757
3 770 756 771
3 772 757 758
3 771 757 772
3 759 774 773
3 772 759 773
3 758 759 772
3 774 759 760
3 775 763 762
3 775 762 764
3 775 764 776
3 776 764 765
3 776 765 777
3 779 777 778
3 778 777 701
3 777 765 701
3 765 697 701
3 702 778 701
3 780 703 766
3 766 703 700
3 766 767 781
3 766 781 780
3 769 770 782
3 769 782 783
3 784 770 771
3 782 770 784
3 772 786 785
3 784 772 785
3 771 772 784
3 786 772 773
3 787 779 778
3 789 787 788
3 788 787 704
3 787 778 704
3 778 702 704
3 705 788 704
3 780 706 703
3 708 706 780
3 781 708 780
3 790 708 781
3 791 783 782
3 791 782 784
3 791 784 792
3 792 784 785
3 789 788 793
3 789 793 794
3 710 793 705
3 705 793 788
3 790 711 708
3 795 711 790
3 794 793 796
3 794 796 797
3 712 796 710
3 710 796 793
3 795 713 711
3 798 713 795
3 797 796 799
3 797 799 800
3 715 799 712
3 712 799 796
3 798 716 713
3 801 716 798
3 800 799 802
3 800 802 803
3 718 802 715
3 715 802 799
3 801 719 716
3 804 719 801
3 807 806 805
3 808 805 806
3 811 810 809
3 809 810 803
3 802 809 803
3 812 809 802
3 720 812 718
3 718 812 802
3 804 721 719
3 813 721 804
3 816 815 814
3 818 817 814
3 818 814 815
3 820 819 817
3 820 817 818
3 822 821 819
3 822 819 820
3 821 822 807
3 805 821 807
3 823 821 805
3 805 808 824
3 805 824 823
3 811 809 825
3 811 825 826
3 724 825 723
3 825 812 723
3 825 809 812
3 723 812 720
3 813 726 721
3 827 726 813
3 816 814 728
3 729 816 728
3 828 816 729
3 728 814 731
3 731 814 817
3 731 817 732
3 817 829 732
3 817 819 829
3 830 819 821
3 829 819 830
3 831 821 823
3 830 821 831
3 823 824 832
3 833 823 832
3 831 823 833
3 835 834 833
3 835 833 832
3 834 835 826
3 825 834 826
3 836 834 825
3 733 836 724
3 724 836 825
3 839 838 837
3 837 840 734
3 827 837 734
3 726 827 734
3 837 827 839
3 734 840 841
3 842 734 841
3 735 734 842
3 729 735 828
3 828 735 842
3 829 736 732
3 736 829 738
3 738 829 830
3 738 830 739
3 830 843 739
3 830 831 843
3 742 843 741
3 843 833 741
3 843 831 833
3 741 833 744
3 744 833 834
3 744 834 746
3 746 834 836
3 746 836 733
3 837 838 844
3 844 838 845
3 847 840 846
3 840 844 846
3 840 837 844
3 840 847 841
3 843 747 739
3 747 843 742
3 848 760 761
3 763 848 761
3 849 767 768
3 769 849 768
3 850 773 774
3 760 848 774
3 848 850 774
3 848 851 850
3 775 852 763
3 852 848 763
3 852 851 848
3 776 853 775
3 775 853 852
3 777 854 776
3 776 854 853
3 779 854 777
3 855 781 849
3 849 781 767
3 783 855 769
3 769 855 849
3 856 785 786
3 773 850 786
3 850 856 786
3 850 857 856
3 858 850 851
3 857 850 858
3 859 851 852
3 858 851 859
3 860 852 853
3 859 852 860
3 861 853 854
3 860 853 861
3 787 862 779
3 862 854 779
3 862 861 854
3 789 862 787
3 863 790 855
3 855 790 781
3 791 864 783
3 864 855 783
3 864 863 855
3 792 865 791
3 791 865 864
3 785 856 792
3 856 865 792
3 856 866 865
3 857 868 867
3 866 857 867
3 856 857 866
3 870 869 868
3 857 870 868
3 858 870 857
3 871 858 859
3 870 858 871
3 872 859 860
3 871 859 872
3 873 860 861
3 872 860 873
3 874 861 862
3 873 861 874
3 794 874 789
3 789 874 862
3 875 795 863
3 863 795 790
3 864 877 876
3 875 864 876
3 863 864 875
3 877 864 865
3 877 865 878
3 878 865 866
3 878 866 879
3 879 866 867
3 869 870 880
3 869 880 881
3 882 870 871
3 880 870 882
3 872 884 883
3 882 872 883
3 871 872 882
3 884 872 873
3 884 873 885
3 887 886 885
3 873 887 885
3 874 887 873
3 797 887 794
3 794 887 874
3 889 888 875
3 888 795 875
3 888 798 795
3 889 875 876
3 881 880 890
3 881 890 891
3 892 880 882
3 890 880 892
3 882 883 893
3 894 882 893
3 892 882 894
3 895 894 893
3 886 887 896
3 886 896 897
3 800 896 797
3 797 896 887
3 888 801 798
3 898 801 888
3 901 900 899
3 899 900 891
3 890 899 891
3 902 899 890
3 903 890 892
3 902 890 903
3 904 892 894
3 903 892 904
3 894 895 905
3 906 894 905
3 904 894 906
3 906 905 897
3 896 906 897
3 907 906 896
3 803 907 800
3 800 907 896
3 909 804 908
3 804 898 908
3 804 801 898
3 910 909 908
3 913 912 911
3 915 914 911
3 915 911 912
3 914 915 901
3 899 914 901
3 916 914 899
3 917 899 902
3 916 899 917
3 807 917 806
3 917 903 806
3 917 902 903
3 806 903 808
3 903 918 808
3 903 904 918
3 919 904 906
3 918 904 919
3 811 919 810
3 919 907 810
3 919 906 907
3 810 907 803
3 921 920 909
3 920 804 909
3 920 813 804
3 924 923 922
3 910 921 909
3 923 924 913
3 923 913 911
3 816 923 911
3 815 816 911
3 815 911 818
3 818 911 914
3 818 914 820
3 820 914 916
3 820 916 822
3 822 916 917
3 822 917 807
3 925 824 918
3 918 824 808
3 926 918 919
3 925 918 926
3 826 926 811
3 811 926 919
3 929 928 927
3 920 929 927
3 827 920 927
3 813 920 827
3 922 923 930
3 922 930 931
3 828 930 816
3 816 930 923
3 925 832 824
3 832 925 835
3 835 925 926
3 835 926 826
3 927 928 839
3 928 838 839
3 928 932 838
3 927 839 827
3 931 930 842
3 841 931 842
3 933 931 841
3 842 930 828
3 932 845 838
3 934 845 932
3 936 935 847
3 936 847 846
3 841 847 933
3 933 847 935
3 937 867 868
3 869 937 868
3 938 876 877
3 878 939 877
3 877 939 938
3 879 940 878
3 878 940 939
3 867 937 879
3 937 940 879
3 937 941 940
3 881 941 869
3 869 941 937
3 942 883 884
3 885 943 884
3 884 943 942
3 886 943 885
3 944 888 889
3 945 944 889
3 945 889 876
3 946 945 876
3 938 946 876
3 946 938 939
3 946 939 947
3 949 948 947
3 939 949 947
3 940 949 939
3 950 940 941
3 949 940 950
3 891 950 881
3 881 950 941
3 942 893 883
3 893 942 895
3 942 951 895
3 942 943 951
3 897 951 886
3 886 951 943
3 952 898 944
3 944 898 888
3 944 945 953
3 944 953 952
3 956 955 954
3 954 955 948
3 949 954 948
3 957 954 949
3 901 957 900
3 957 950 900
3 957 949 950
3 900 950 891
3 951 905 895
3 905 951 897
3 952 908 898
3 910 908 952
3 953 910 952
3 958 910 953
3 956 954 912
3 913 956 912
3 959 956 913
3 912 954 915
3 915 954 957
3 915 957 901
3 960 920 921
3 924 922 961
3 960 961 922
3 961 960 958
3 921 958 960
3 958 921 910
3 913 924 959
3 959 924 961
3 963 962 929
3 929 962 928
3 963 929 920
3 964 963 920
3 960 964 920
3 963 964 965
3 931 964 922
3 922 964 960
3 962 932 928
3 966 932 962
3 965 964 967
3 965 967 968
3 933 967 931
3 931 967 964
3 970 934 969
3 934 966 969
3 934 932 966
3 970 969 968
3 970 968 967
3 936 970 967
3 935 936 967
3 935 967 933
3 972 971 946
3 946 971 945
3 974 972 973
3 972 947 973
3 972 946 947
3 948 973 947
3 971 953 945
3 975 953 971
3 974 973 955
3 956 974 955
3 976 974 956
3 955 973 948
3 978 958 977
3 958 975 977
3 958 953 975
3 977 976 978
3 976 959 978
3 976 956 959
3 978 961 958
3 961 978 959
3 979 962 963
3 965 979 963
3 980 966 979
3 979 966 962
3 968 980 965
3 965 980 979
3 980 969 966
3 969 980 968