OFF
773 1494 0
1.0462713868 8.2667350247 8.7425400236
1.1630997295 8.0673161830 7.9264428990
1.3081943568 7.6184336232 8.3555621747
1.2862965174 7.6514421271 9.0086212335
0.9268857349 8.9894703551 7.9001121320
1.1019376471 8.9068289801 6.9213690947
1.1977992093 8.3023374038 7.2886524175
0.8369375268 9.0750528155 8.9425116485
1.1331168782 8.0834789539 9.4554000155
0.9468532304 8.7959632502 9.7194071123
1.1356585937 8.2860196513 10.0294103176
0.9273319780 9.8854973516 6.9242160587
1.1408687287 9.8449203387 5.9968253221
1.1837176487 9.2314894155 6.2884342360
0.7575432129 10.0071672809 7.9400541761
0.7333647811 9.8242317483 8.7497502800
0.7795819860 9.7220661875 9.6910278586
1.0508380184 8.7670514838 10.4806327413
0.9306041538 9.5579771794 10.7030898725
1.1265399247 8.9609233702 11.2003462558
1.0594713166 9.6216600881 11.5843059166
1.2584178839 9.1807298184 11.9990670318
1.1898147757 9.9117908014 12.1947300718
1.4154860209 9.5386871131 12.5969624765
1.0412377777 10.6505186575 6.1200329794
1.2531137772 10.8542893115 5.4691834755
1.2618479747 10.2135354360 5.4964942944
0.8602530955 10.8925392639 6.9136424972
0.7587295234 10.7737583533 7.6832644856
0.7042888808 10.7139328606 8.6061855834
0.7247727691 10.6119526642 9.5284157399
0.8451156133 10.5515550241 10.4907857624
1.0705572536 10.4644554187 11.5592511404
1.3010008607 10.5343894810 12.3462489692
1.4169488656 10.1058408221 12.7029313334
1.1417338695 11.3309129502 5.8783345563
0.9930581967 11.5750671589 6.5828878241
1.1932859561 11.9043098806 6.0933561282
0.8511723128 11.5996345930 7.4782231667
0.8020228381 11.5776901205 8.4107063796
0.8156262792 11.4947984130 9.3830754130
0.8580681688 11.3117899769 10.1888539952
1.1130917755 11.5174448252 11.1005714565
1.5260068933 11.4043204856 12.1682171882
1.1520162027 12.2631986988 6.6003953444
1.0475395415 12.2979528574 7.2485931676
1.2851603171 12.7745291904 6.9742689259
1.0149842779 12.3667623466 8.1416496512
1.0737801927 12.3602432731 9.1659014816
1.1604105887 12.1860045417 10.2826236720
1.3694942387 12.2873393236 11.1141887629
1.4701564936 12.0695309871 11.6171955868
1.3093636322 13.0032549271 7.7502479716
1.4007572383 13.1101388990 8.7509034100
1.6906680521 13.1363256747 9.8990153444
1.7347372636 12.8014105102 10.8960499316
1.9635399679 6.8779780180 6.7447866175
2.3022537360 6.6914013560 6.0677045789
2.3140640916 6.3525974847 6.6109766203
2.3121024294 6.1778934332 7.2242016862
1.9186080181 6.6595352543 7.6619987134
2.2558567772 6.0909875597 8.2324422630
1.6924036146 6.9502651127 8.7266541422
2.2320871905 6.0957232682 9.3450756669
1.8316349336 6.8194783193 10.0329291230
2.2831826413 6.1099376442 10.4557695301
1.9450793618 6.8427137322 11.0914297175
2.3532409024 6.2224862162 11.4810332182
2.0704666570 6.9403057476 12.0026967978
2.3937374953 6.4610733096 12.2636122369
1.9131465363 7.6025826687 5.8017837271
2.2811048336 7.5470657707 5.0359009246
2.2760089192 7.0810491963 5.5384519337
1.6811087554 7.5342547358 6.5623475179
1.5165672842 7.4870799299 7.4377730509
1.3977010299 7.6231012838 9.8156286484
1.5773876007 7.5670581368 10.8268962929
1.7396256078 7.6608286900 11.8026421391
2.2391687629 6.9836584991 12.6503614759
2.0001131517 7.7230539925 12.7386963907
2.3117821251 7.3485438114 13.1707041073
1.9245802338 8.5487500160 4.8426640374
2.3222250294 8.5309899138 4.0837228051
2.2854132153 8.0288668838 4.5293867430
1.6585570775 8.4356628609 5.5672555202
1.4385450416 8.3226614912 6.3792154219
1.2640634832 8.2534078286 10.6634464806
1.4059717849 8.3748982810 11.5362730021
1.6346513921 8.6968446310 12.5202157915
2.2470514623 7.9432152807 13.4498321496
2.0701758682 8.6734349198 13.3692728831
2.4419422159 8.4570269564 13.8972521028
2.0134376945 9.5052686397 4.0755546236
2.4797394077 9.7676988381 3.2376583459
2.3655352663 9.0824065525 3.6317962907
1.7110411041 9.4520843482 4.7138855069
1.4594171465 9.3054823735 5.4490782239
1.8637957691 9.8234049106 13.2179682439
2.5400751300 9.4487810299 14.0271503059
2.0095295932 10.6769438741 3.7992498607
2.4287759339 10.9804124320 3.0581749785
1.5760653852 10.4185759279 4.7864457539
1.6381973911 10.7036590445 12.8330073690
2.1325895276 10.8854576233 13.3349409914
2.5140473255 10.4945729390 13.8114528747
2.0963344134 11.6881064853 3.6250024528
2.4169256160 11.8101116477 3.0872648844
1.7668793121 11.6235556729 4.4476616455
1.4114736329 11.6391106665 5.3889150484
1.9591097531 11.3511061931 12.8910827247
2.5534779623 11.6041780756 13.2452564597
2.5857435458 11.1581556316 13.6431849883
2.2642212502 12.3201360497 3.4759541341
2.0430077738 12.5909507405 4.1876314141
2.4292233770 12.9313171702 3.6340458108
1.7372100659 12.5930242963 5.1613720283
1.4448694639 12.6237447148 6.1701654610
1.7208441183 12.5324902439 11.4884992115
1.9274671437 12.2879740806 12.0108023996
2.1995174753 11.9577263161 12.6189558615
2.3062469463 13.3067768820 4.2055154177
2.6719824625 13.4848072311 3.8646062572
2.1162465638 13.3854208500 4.9147028759
1.8916819599 13.4645843993 5.9297844060
1.6710132177 13.4835608755 7.0858557523
1.7331522311 13.7083736465 8.2321259191
1.9495787879 13.7943411518 9.2000355257
2.4988828672 13.9257655737 10.0235597629
2.4591956200 13.4252366489 10.7773246923
2.3745939771 12.8746581853 11.6170215531
2.6002132789 13.8335388583 4.5142455561
2.4320153746 14.1752536827 5.5270405002
2.1475009285 14.2035090105 6.6886556930
2.0842372296 14.2541082266 7.7637783314
2.2002445138 14.3037858558 8.7134796580
2.4388546351 14.3003083166 9.4049450064
2.8025817450 5.9047536182 6.4687107176
3.1364858471 5.9316613382 5.6833829275
3.5141561788 5.3937323091 6.0592619958
3.5115712531 5.0108967906 7.0701403730
2.8012759297 5.5363735592 7.6735999205
3.3435358175 4.8921547472 8.2431131731
2.7470661164 5.4452098404 8.7858149332
3.2731965221 4.8515319539 9.3374280186
2.7372400559 5.4436019291 9.8819558596
3.2745817220 4.8647716159 10.4271044711
2.7826158379 5.5132616566 10.9825813080
3.3830410831 4.9210786656 11.5510615358
2.8902665802 5.7474041659 12.1837880769
3.7559875328 4.9274444060 12.7949565459
3.2640655602 5.8180190504 13.2707784333
3.7677839503 5.3222411090 13.5810868322
2.7126338201 6.6330025700 5.3875313440
3.1709664941 6.5783132368 4.7976076162
3.1395072470 6.1920232079 5.2707355010
2.6537998927 6.6247211914 13.0587289827
3.6733490583 5.8031404201 14.0516825774
3.1806104640 6.6306265950 14.0267323051
3.5949396801 6.2915358479 14.4723166560
2.7341675818 7.5185628463 4.3856329458
3.2464504514 7.4677430843 3.8134552719
3.2063043717 6.9978208235 4.3003578516
2.6606997545 7.5933096422 13.8496191882
3.5547153318 6.7875867259 14.7635265421
3.1945781854 7.5947034820 14.5940819166
3.5314931384 7.5162973945 15.0321374315
2.8304245801 8.4925351771 3.4506626150
3.4096361065 8.3356960587 2.9159176893
3.2952207325 7.9305758557 3.3308026603
2.9555059605 8.6434938265 14.4835582054
3.5478394007 8.4161808546 15.0482154877
3.1098157287 9.2331677544 2.7034799193
3.6368560048 9.5734131028 2.1270490920
3.6516575609 8.7941626578 2.4184208235
3.1064771362 9.5888973244 14.5717307822
3.5410410298 9.3396981167 14.9003415817
2.9855561867 10.3117448455 2.5111045418
3.6994526755 10.6582132680 1.8869112336
3.5247030789 9.9961802396 14.7366144999
3.1805470596 10.3498683598 14.3316176490
2.9643285344 11.5259596164 2.5259126631
3.8226350525 11.8096194992 2.0349210108
2.8805888784 11.4716952555 13.6106162508
3.0639932287 11.1035362615 13.8948393487
3.2504385296 12.4655845344 2.5794757636
3.8490598928 12.5737321768 2.3723804685
2.6582334607 12.4109723772 3.0349622542
2.5185747805 12.5010901665 12.2960044693
2.9177871144 12.2450614217 12.8101988924
3.4448771137 11.7858078008 13.4236482005
3.6123825697 12.9886464125 2.7415757785
3.0403641482 13.1504299028 3.2232465194
3.8059307067 13.4561698903 3.1995353899
2.8371995547 13.8470158035 10.5344806423
3.1296229900 13.7393439913 10.8378835695
3.2032224755 13.3385849261 11.3856024260
3.2640478284 12.8068156849 12.1889197053
3.3033810291 13.8588219810 3.9255128560
3.0914095789 14.3691118322 4.8062127934
2.8972855029 14.7503267417 5.5236893041
3.5127169769 14.7917592429 5.0605587195
2.5187855300 14.7111959234 6.3665596299
2.3820087915 14.7136037936 7.3692032390
2.4365628818 14.7172683826 8.3248907421
2.6681420182 14.6838364256 9.1231322946
2.9950347890 14.5145441400 9.7348294982
3.3564233615 14.1497100551 10.3347763655
3.2181685073 14.9689010416 5.4353614304
3.7991748397 14.9921116385 5.2152337237
2.7786706527 14.9435691506 6.0704417511
2.5543321941 14.9283979678 6.9583713007
2.5357615344 14.9207782378 7.9076283772
2.7267340831 14.9018618408 8.7645767051
3.2307871299 14.8773597506 9.4330106306
4.0068180842 4.3967728176 7.7529655855
4.1620155495 4.4852406567 6.9543608724
4.6654838233 4.0556505069 7.1837146619
4.6307108935 3.8105908646 8.2238235748
3.8869479343 4.3181440576 8.8037078172
4.4349692133 3.7891938645 9.3698722928
3.8191507574 4.3007542460 9.8881302701
4.3950783823 3.7785957408 10.4494536025
3.8523998789 4.3110410937 10.9695356890
4.4759357942 3.7907254371 11.5248377414
4.0199059923 4.3263911062 12.0235910620
4.7627875236 3.8113813948 12.6485724881
4.2112901423 4.3243337622 12.6844654573
4.5345264377 4.3153210166 13.2714899793
3.5586111940 5.8611238147 5.2229935976
4.2129047123 5.6028191610 4.8635556714
4.0336007505 5.2248128909 5.5885073445
4.0970050220 4.8164586384 6.2770979269
4.4136866646 4.8289598575 13.8684258432
3.9876086846 5.3219372885 13.9712027611
4.2452370103 5.3842860618 14.3843694783
3.7186664914 6.5133919867 4.2877018387
4.3228026479 6.4492783871 3.7836522387
4.2819636091 5.9967923969 4.3001213672
3.9485250861 5.9416379701 14.6294552722
3.7586120827 6.3222961138 14.7527283806
3.9765201404 6.2730897603 14.9550109769
3.8208685844 7.3764162545 3.3282515048
4.4275409508 7.3044843228 2.8800114235
4.3559259863 6.8959071510 3.2933037629
3.8015894798 6.9071886983 15.1085131895
3.6968357918 7.8791105547 15.2213870836
4.0004427313 8.0646304169 2.6123767700
4.3542586852 8.6503605345 2.0703227818
4.5706683981 7.8156732004 2.4004558948
4.0070199376 8.6669624179 15.2974035165
4.3906657979 9.6670496928 1.6137001161
4.7386269913 9.1217301553 15.3318908111
4.1760435375 9.2056028119 15.1813668589
4.3114350130 10.4234269949 1.4297121426
4.8043004059 10.5437280819 1.2491637527
4.7218140298 10.0355175250 1.2863009411
3.7802907243 10.4495381252 14.6174025377
4.1546644483 9.9964196192 14.8838086350
4.3158963760 11.0770021689 1.5303182532
4.9838931225 11.0865039148 1.3740437218
4.1596434699 10.5630220592 14.6157712218
3.9506924357 11.0156599051 14.1717437116
4.7481614900 11.6749186847 1.7538118459
4.4683726575 12.3355283709 2.2030217069
3.5910350484 12.4171473507 12.7963183999
4.2328050826 12.2327510349 12.9467716256
4.0475457453 12.6840334346 12.4204651853
4.4291599482 11.6651389498 13.5390129541
4.4306574139 12.9663545036 2.7435951470
4.4974273421 13.4915199670 3.2875504815
4.1640327015 13.1544747588 11.7079443673
3.8409426299 13.7405498184 10.9429582259
4.1986301199 13.8671339674 3.7421617784
3.9992478489 14.3526079602 4.5248573625
4.2128887290 14.8036654759 5.1414423286
4.3898035985 14.1891024074 10.1824795626
3.8241274936 14.7355315069 9.7424539373
4.3400072677 15.0225431727 5.4372166571
3.9108625828 15.0597608881 9.4666920023
4.2607672343 15.0329536912 9.3133698020
4.2890408766 15.1402578810 9.1730705797
5.0901040432 3.3404935008 8.9315647837
5.2813966106 3.3561416740 8.1395839284
5.8405537647 2.9593191696 8.4976450094
5.5693197606 2.9545110981 9.4537869601
5.0106767257 3.2960788116 9.9522987380
5.8089635207 2.7425984640 10.5212484780
5.0306714464 3.2888526189 11.0328685843
5.6918812264 2.9029958194 11.7305797242
5.0928185740 3.3497780880 12.0412041134
5.6788122261 3.0842376359 12.6285364335
5.2158776098 3.3774713125 12.6392064026
5.5140022966 3.3859530962 13.1664179611
4.8013366629 4.7576130542 5.5001752715
5.5087269260 4.7530856708 4.8330877728
5.6693756981 4.2600809461 5.4000986670
5.4340254975 3.9041715275 6.3236582991
4.6192894259 4.3585570539 6.4480169657
5.2656962196 3.5796595696 7.4053188316
5.4252227328 3.8131443900 13.7467631779
4.8983864990 4.3007253984 13.8246866779
5.3135457355 4.3083975896 14.3168523623
4.9136496657 5.5615316731 4.3023749130
5.4996640882 5.7023630852 3.7064330172
5.8640237701 5.0928899707 4.1893880134
5.0239342995 4.8621390519 14.6950482922
4.4749180094 5.6050293234 14.9244258018
5.0207314646 5.1370705692 15.0412684540
4.6345656764 5.6010664294 15.1259817577
4.9535463096 6.4526283187 3.3010326297
5.5212071997 6.5948392596 2.8221591249
5.7366776317 6.0503323026 3.2078066154
4.2557942940 6.0905003349 15.1218099045
5.0456211535 7.1738379016 2.6048634966
5.1922137207 7.8412113516 2.1197475054
5.7651976425 7.0564085429 2.3850749772
5.3369881214 8.7255084363 1.6536925076
5.0802186411 9.5278112008 1.3438293211
5.3261181206 9.9595840337 1.1960584973
5.8348767495 9.2769994210 1.3310296792
5.6414776668 9.0136300039 15.3933352090
5.2516047185 9.5471310200 15.0658529166
5.5585535844 10.5186924981 1.2252738198
4.7755571526 10.5256695766 14.5193708573
5.8442211638 10.2336750020 14.3489912281
5.2883785238 10.8427927730 14.1137218177
5.6763084320 11.0508495848 1.4987300517
5.1731416992 11.3934001798 1.5351586406
5.5008763702 11.5642291627 1.8405484729
4.8168520947 11.1591541054 13.9861768341
5.2587663956 11.1496165407 13.8408332586
5.1548564526 11.4790710355 13.4932035840
4.8797346262 12.5652216329 2.4681796154
5.4072373630 12.0913220716 2.3435796007
5.3371197928 12.6680574726 2.8678407900
4.8989860662 11.9672437327 13.0322712899
4.8656042312 12.5146666269 12.3157867319
4.8299327121 13.6796863697 3.6865304421
5.2872318250 13.1872347846 3.4486738453
5.2920304454 13.6106983832 4.0288012490
5.0309427645 13.0442557632 11.5215646757
4.7037943162 13.5817946283 10.9484423624
4.8105262044 13.9815052383 4.2525406391
4.7506582118 14.8525533498 5.8009780347
4.9136281933 14.3323884740 5.1427393475
5.0348001150 14.7956570910 6.7857188992
5.2886060529 14.3875008894 6.1958649522
5.0584800934 14.7502723520 7.8357932586
5.4167742166 14.3665258226 7.2460600300
4.9727976612 14.6562860628 8.7104806792
5.3894974165 14.3030498362 8.2892082213
4.5596453504 14.7118597043 9.3588816984
5.1673124389 14.1775132961 9.3802106783
5.1317184889 13.7856161545 10.2799607091
4.6337060553 15.0614466226 5.8274849338
4.8231614046 15.0140599026 6.4107849730
4.8914556347 14.9744193087 7.3979578355
4.6739294104 14.9753629379 8.6424489152
6.4546671161 2.3272477516 10.8585790818
6.4594677895 2.3396637292 10.2442415702
7.0801059392 2.0439855777 10.6571537640
6.8535456094 2.1674797142 11.3728583336
5.9879021677 3.3156987370 6.9471629254
6.2855876179 3.4453365031 6.2357607626
6.9129515154 3.0376948781 6.6190249927
6.4064070277 2.9146988065 7.5777229071
5.7315670762 3.2011976574 7.6942536532
6.7260555739 2.5563804546 8.3743134737
6.3086230164 2.5396107537 9.4141423439
6.3359087500 2.4742380689 11.5360526612
6.4752577936 2.6358428285 12.5874750947
6.3047217373 3.0456995289 13.4707366066
5.8776487415 3.3751194207 13.6725920072
6.3093982109 3.3885544501 14.1144962893
6.3816857288 4.3463070683 4.8071304640
6.2874158901 3.7936435665 5.6142179429
6.3178187519 3.8077699871 14.6443339139
5.7747812344 4.3156327094 14.8354365105
6.2843991144 4.1205716215 15.0620582881
6.1447067078 5.5214874677 3.5595064777
6.8645125879 4.9385025354 3.9407226545
5.7495954486 4.5144456106 15.0586379031
6.2073985458 6.3213008822 2.7767657377
6.2100667320 5.8662579267 3.1661053905
6.2241388656 7.6705605532 1.9525129673
6.4841883527 6.8492925390 2.3210729124
6.4630573046 8.5297101899 1.5937240630
6.2710202157 8.6399990939 15.4923116031
6.8420998857 8.2180226363 15.5059765177
6.4212194243 8.7538665927 15.3234272259
6.1839511911 9.8428773269 1.2468039092
6.7027621806 9.1679622586 1.4019141581
6.4289796332 9.3736076549 14.8691705351
6.1858631697 10.3580147322 1.2948131113
5.9578274534 10.6640487043 1.3302345988
6.4375687419 10.6534305936 1.6014328584
5.7389416578 11.0138956353 13.6311619265
6.6533439556 10.4854245447 13.4986199265
6.2397230863 11.1280411357 13.0722975737
6.8360977319 9.7364388875 14.3015240775
5.8816674012 11.6806325792 2.1875357346
6.3073468184 11.2377042017 2.0799601484
6.3410783273 11.6914446412 2.6257149279
5.6890006857 11.7227507634 12.7791021008
6.2877335039 11.3955743316 12.6816229920
6.3851105155 11.6950695804 12.1628227746
5.7803529104 12.7384123923 3.3041269255
6.2629586808 12.2215505945 3.2228025332
6.1502928821 12.7616805218 3.8314810847
6.1682736801 12.8067263487 10.6510193390
6.8185523775 12.4518919106 10.2234562353
6.3879976902 12.9542521954 9.9195873708
5.7802850472 12.4732221113 11.6639679988
6.7032607558 12.0482494342 11.2255366924
5.5003167305 13.7542194390 4.7232458127
5.8724188744 13.2590798234 4.2859998690
5.7067660584 13.8545636063 5.6666440869
6.1814342815 13.3130015355 5.1914033354
5.8507799816 13.8744454725 6.7022616250
6.3463860941 13.3443671749 6.1992148751
5.8829885994 13.8451764448 7.7538536225
6.4024307350 13.3499026842 7.2424811295
5.8359144962 13.7438994112 8.8060579884
6.3897326016 13.3086844291 8.2651290009
5.7998880441 13.4551721209 9.8909133610
6.3540160250 13.1864621600 9.2076242606
5.4633707550 13.2414356301 10.8503765470
7.1460769167 2.2060116583 9.0751515633
7.4461170162 2.2734547788 8.3112585027
7.9802728871 1.9655300099 8.7959515770
7.7230968101 1.8579818001 9.8431479429
6.8978238360 2.1719168036 9.8301110789
7.8887165333 1.7400148639 10.8324256402
7.6333663073 1.9112486598 11.6897546240
7.0049805692 2.2300668444 12.1349309773
7.7154803982 2.0685634200 12.6737698561
7.2213891442 2.3239052260 12.8800681770
7.7157880609 2.2594420181 13.2878357847
6.8700398846 3.3823174749 5.8671868567
7.1516293151 3.7129749715 5.2417364067
7.7686882938 3.1551641738 5.8517163484
7.8073570520 2.7349413492 6.6472664497
7.3742382261 2.5609587724 7.4871341411
7.2779507351 2.6183831716 13.5648372572
7.0629876216 3.0861760312 14.2198303559
6.8138419585 3.3970026478 14.5336631787
7.4586327101 3.4329398067 14.8072102144
7.4388601880 4.2163433261 4.5351902436
6.9419010791 3.8354907021 15.0775416114
6.3833798384 4.1542934662 15.1789985482
6.8058719418 5.7028750625 3.1659075247
7.6136029136 5.9177296938 2.8540894833
7.6552337816 5.3054835814 3.4175316376
7.8736977809 4.6881811441 3.9732640139
6.9982657033 6.3329000215 2.5787244430
7.2232127823 7.0285119540 2.1585659567
7.6232711596 6.4290606468 2.4509816978
7.1137250158 7.8497592267 1.8479453119
7.3502334906 7.7403082331 15.5254104767
7.8430874183 7.2742215936 15.4718498602
7.4299996039 7.8944532218 15.3626025705
7.5314862842 8.6266649905 1.7822718890
7.2316121415 8.6929320792 15.0048318830
6.8983734190 9.5834280367 1.4125280699
7.1936014258 9.2422857749 1.5284449827
7.0702547433 9.2263761247 14.7248330779
7.4103335824 8.9855943472 14.7374014063
7.4682552962 9.2684615151 14.3924095037
6.7482356104 10.0675234901 1.4625539381
7.0816881898 10.3063636789 1.8189959609
6.7785088876 11.0779268981 12.6040787331
7.5310915160 10.4806495797 12.6060105977
7.2899417138 11.0230414100 12.1246297584
7.6029283781 9.7317404302 13.6255711753
6.9679323810 10.7471726048 2.1184574967
6.8045421365 11.6886226887 3.1079859213
7.2871482847 11.0662616417 2.9131153490
7.1809673639 11.6930053531 3.6769702369
6.9882845293 11.4244203645 11.8876479855
7.3534635590 11.2193745559 11.7665836863
7.3489762168 11.4778617963 11.3335124047
6.5830292534 12.7867187015 4.7109255204
6.8954270699 12.2524774706 4.1936045026
6.8518253283 12.8023873678 5.7124752398
7.2864731194 12.2627184283 5.1768249503
6.9561448528 12.8302839540 6.7754724667
7.5716000242 12.2338873855 6.3037950643
6.9382747488 12.8525366190 7.8020880769
7.5266450935 12.3542319750 7.4300899750
6.8971127030 12.7916684716 8.7607545656
7.3972836226 12.4186010273 8.3303074171
6.7884392628 12.7298389878 9.5169810895
7.4738839622 12.1570080705 9.3818567499
7.3789843439 11.8507921933 10.5251004197
8.1134887983 2.1687356487 7.9309886298
8.8197773834 1.8476773850 8.3658941277
8.7871676230 1.5734454859 9.3880809340
8.5715981844 1.5001004658 10.4525522568
8.6523242670 1.5531018937 11.5466229727
8.4909061723 1.8323389100 12.5497660857
8.3271470116 2.1123482028 13.3231370623
8.0516803454 2.4018743687 13.7672680295
8.7737079798 2.4007410696 13.9771143064
8.2228658904 3.6863758689 4.9966513881
8.7599444022 3.1747240047 5.5994326112
8.7228632695 2.6977359436 6.3435099578
8.3250200729 2.3925070530 7.1447922471
8.0981166307 2.8638500197 14.3527573664
8.6956894807 3.5271058025 14.9621234986
8.2114413600 4.2051791931 4.3913109366
8.6582832075 4.5849725819 4.0871876953
8.8801206380 4.0829115812 4.5453695319
8.0256016523 3.7326995925 15.1320542341
8.3208995586 5.7167038983 3.1154578026
8.4546774093 5.1338056214 3.6191253693
7.9667853307 6.7982942959 2.2950943584
8.2085548449 6.2995646136 2.6439685415
8.2569466919 6.7886371460 15.4464763459
8.5589366139 6.3665060948 15.3791147959
8.3832912437 6.9170861668 15.2311373312
8.0136443768 7.5386761512 2.0868659097
8.5764737614 6.8930893780 2.4735507552
8.0095737101 7.9610836627 14.9465805131
8.5118933014 8.1916781756 2.1671268230
7.8509358461 8.7033393230 14.5988117576
8.3727323783 8.2184734933 14.4901437349
8.3255584146 8.6498665415 14.2192842208
7.4925173303 9.6270258809 1.8399398336
8.4591523589 8.9750765556 2.3747603072
8.1182372127 9.8296716996 2.5271854561
8.6074918349 9.5544557701 2.9147048825
8.0208899866 9.0881022118 14.0796013283
8.4130981083 8.8330155680 13.9401566592
8.3699462417 9.1572534189 13.5398532372
7.5317206406 10.3455927539 2.3167077434
8.3836727704 10.0291424280 3.0623789888
7.9514371328 10.3730558896 2.8477800707
8.2067081390 10.5021157256 3.4670653550
7.7202603181 10.9520594304 11.6743103348
8.2769876177 10.3409146249 11.8291955893
8.2260422010 10.8061879709 11.1487772389
8.3035569787 9.7482830460 12.7361312115
7.6353507491 11.7130358828 4.6066524194
7.9193857546 11.1199533596 4.0078223592
7.9433387947 11.7322020947 5.5707319978
8.3017798483 11.1497577448 4.9892080301
8.1532612670 11.7139859130 6.3446310545
8.5059277199 11.2391095276 5.9536749408
8.5104352798 11.4132628023 6.7198422066
8.0046273153 11.5171463113 10.0665368325
8.4534489770 11.1822324263 9.8911772674
8.3345140344 11.4368070128 9.3142613778
7.8674724021 11.2877373357 10.8637860677
8.4015854291 10.9960160590 10.4414454636
8.1074173757 11.8413478550 7.1013129950
8.0775754834 11.8335815659 8.2360651389
9.3544173762 1.2430211979 10.1701794739
9.6322474328 1.2888046449 9.4976157939
10.1321546811 1.0719549834 10.0310386300
9.9204633767 1.0572307340 10.7780012557
9.2566803549 1.2510851436 11.0083310779
9.7975316581 1.1345965352 11.3930807878
9.4317119861 1.3157971760 11.7075316308
10.0544102764 1.2831806947 11.9858175356
9.1766959084 2.2672388270 7.0485630819
9.5486850780 2.5028005561 6.5404111542
10.0081410466 2.2581897026 7.0904786741
9.6746512789 1.9116727382 7.8436836239
8.8152442168 2.0904629615 7.6324074298
9.6238234193 1.5366496589 8.7817808903
9.4863460689 1.6120116711 12.4870879508
9.1760979998 2.0196547579 13.3530599899
9.6465548098 2.4384083318 14.0446640050
9.3503675012 3.6391618246 5.1508692914
9.7167696849 2.9968729115 5.9716912291
9.1647016886 2.8965538654 14.5483923557
9.5337444016 3.4593920394 14.8592566355
9.2377354501 4.5112068745 4.3065568757
9.5042240015 4.1921656629 4.6810449031
8.8373841242 4.2536628335 15.1987022728
9.4597041399 4.3401806599 15.0393518065
8.9021755007 5.6044861998 3.4196277997
9.2250168235 5.1555289409 3.9656083210
9.0262858022 5.5674704920 15.1885248166
9.6046660011 5.3964654157 14.9006613154
8.9322551160 6.2996713624 3.0454918105
9.3729226118 5.9180384061 3.6586387191
9.2036146038 6.3874182112 14.8085986860
9.6439633280 5.9383017611 14.6952015028
9.6762961160 6.4196407429 14.3615132565
8.8406910230 7.5629363347 2.4103192697
9.1377118828 7.0478137249 2.8308135646
9.3044419433 7.1753281402 14.2217179064
9.6918637214 6.9195144549 13.9866253668
9.6338427710 7.5523520052 13.5239109246
8.7043680333 7.4782343544 14.6371714446
9.0069883472 8.0688270997 2.4466637279
8.8401031036 8.4225507718 2.3582769387
9.0962276381 8.4573745021 2.7240085122
8.8460211417 8.2967473526 13.8589537201
9.3661115555 8.3738302615 13.0921856755
8.8077026283 9.8297017329 3.6177131632
9.0207211395 9.0826505487 3.1336793290
9.1432740282 9.8838359648 4.5262738454
9.3296982901 9.2103547835 3.9479876756
9.4965512869 9.3725311245 4.6733535811
9.3529105349 9.8357253149 10.6565135190
9.9067512612 9.3320395866 10.1692023587
9.5468672999 9.9453046102 9.8630149811
9.0130333693 9.6051001248 11.8223098911
9.8311483087 8.9758559648 11.2630184359
8.9255587448 9.0243825649 12.9083468896
9.5309689557 8.7410687380 12.3339025569
8.6023330187 10.5095195262 4.3396351756
9.3783914611 9.8263590825 5.1840293390
8.9459984880 10.5046328487 5.3825809644
8.9939779916 10.7958835915 6.6101792957
9.4161036867 10.0041260423 5.9719604410
9.1930766106 10.7311218109 7.6357020163
9.5054020142 10.1267392669 6.9729843537
9.5623387198 10.2255063415 7.7946030727
8.9735717117 10.6476875090 9.7676399653
9.5111634318 10.1854020074 9.2938258753
9.3172842646 10.5393422186 8.8995401978
8.7315234935 10.3886150121 10.9472415666
8.6565883066 11.3206170672 7.4900997741
9.3638268998 10.5672642188 8.2959938398
8.8770795637 11.0578590353 8.5321854944
10.3355619129 1.2392160272 9.2870933116
10.8909511261 1.0072730005 9.9162950991
10.6609192403 0.9591712522 10.6876605659
10.4067932210 1.0693945772 11.4108341893
10.8005438895 1.3363535597 12.1092587826
10.1272369002 2.5888543437 6.5808077112
10.7473228898 2.5351649175 7.1116335730
10.7380474435 2.0759209111 7.7518445561
10.5080383481 1.5813834955 8.5190156704
10.3554864963 1.5854901703 12.6084513029
10.1828564593 2.0551589531 13.3552756584
10.3186519378 2.6047075072 14.0349348667
10.0848815111 3.5681350530 5.5742335494
10.4349516061 3.3681136044 6.0521031670
10.5631061300 2.9825535270 6.5213504114
9.9594353721 3.0080909892 14.4993025815
10.1218805987 3.7732550946 14.6925299498
9.7629767987 4.7876899595 4.5670517833
10.0904102274 4.2262630343 5.1883066092
10.1130452881 4.6999421116 14.6933347387
9.9192011798 5.8489952853 4.5242364486
10.2936789401 5.0887659208 5.1433320645
10.0364868712 5.6498234256 14.4527760468
10.4787104211 5.0642938794 14.2801785955
10.4513619942 5.6846476191 13.9907439394
9.6051059623 6.8797845114 3.6800882055
10.0084237314 6.8971124566 4.7074887371
10.3855264610 5.7694992489 5.3724939134
10.2899129956 6.6231424083 5.5681270768
10.5323524354 6.8119205629 6.5525146979
10.5976041787 6.0566563879 6.0802632625
10.7455396518 6.3388118643 6.7905536112
10.1190452200 6.5298624895 13.7605960355
10.6042975008 6.0506254496 13.5081357154
10.5205009418 6.6358229145 13.1292176255
9.3435468591 7.7458922381 2.9639912872
9.6742467342 7.8618454876 3.7457208700
9.8915490264 7.7034562215 4.5255490948
10.1094644817 7.6126118975 5.4872117489
10.3116027343 7.5698004323 6.4610508504
10.7058867279 6.8737653625 7.1905036790
10.5345307535 7.4880277372 7.2611831314
10.7554577417 7.2525694925 7.7488963227
10.2119672168 7.3729181933 12.8753694023
10.6385669169 6.9891054862 12.5840406350
10.5161778807 7.5228420071 12.2052769839
9.4391902368 8.4838757613 3.4397546763
9.6941745258 8.6234321082 4.4082689727
9.9112952653 8.5062056183 5.3908712666
10.0716488842 8.4901290551 6.4250839051
10.2945101809 8.4128337509 7.5173106396
10.6123303468 7.9270741456 8.0765051570
10.1392713550 8.1581928252 12.0586424593
10.5756101997 7.8180656861 11.6344459318
10.3709248549 8.3115663325 11.2458010248
9.7944241797 8.0741686745 12.7859615405
9.6611962350 9.2892977112 5.3175930027
9.7784546862 9.3319289920 6.2630586518
9.8885940346 9.4378271209 7.4376297809
10.4254722816 8.5666308681 8.4558399039
10.1139792154 9.1936296852 8.4498846725
9.8787214527 9.6195670992 9.3017425442
10.3295892449 8.8426075609 9.3438487073
10.3635858797 8.5931661269 10.4254510028
9.6948196480 10.0130423565 8.5200735591
11.1009980345 1.2524212569 9.1743725431
11.4821753941 0.9963499185 9.8287031442
11.3181342957 0.9302188882 10.5978398616
11.1148847790 1.0681800981 11.4043129844
11.5007786972 1.4664360936 12.1684668611
11.1158196457 2.3975630206 7.5411078138
11.4869613686 2.4575805985 7.9296420456
11.3498294960 1.7409635166 8.4754838282
11.0584972646 1.9229732228 12.8825865479
10.8762643497 2.6039667869 13.6472215386
11.4998053236 2.7470969839 13.2512195875
10.6000021670 3.9685312069 5.9104266666
10.9935350359 3.6797695970 6.6497467632
11.1737066292 3.1209170457 7.1270692069
11.3010597259 2.7305532994 7.4886956564
11.1577114197 3.4048786059 13.7713191972
11.5566531095 3.6124382857 13.3916279539
10.5942089537 3.2142283015 14.2272153039
10.6390290345 4.7584748670 5.8074437927
11.0145250506 4.5887096650 6.6038155267
11.4458015199 3.7120099341 7.3388292727
11.3982885480 4.3894147927 7.3328108348
11.7036878031 4.1579947357 7.8356571713
11.2918229795 4.3094582962 13.5392027128
11.7043390534 4.3145308682 13.0585867627
10.7168409235 4.2049582633 14.2060174176
10.6078125080 5.4092312770 5.7550317973
10.8738632700 5.5525233747 6.5768312581
11.3018483536 5.4216346814 7.5961477560
11.6905743912 4.9210069452 8.1071826318
11.4349201297 5.2587848767 12.8269656343
11.8806154932 5.0218346802 12.4286438365
11.7044621444 5.6003347030 12.1240184809
10.8795711762 5.2360877434 13.6516780947
10.9668697324 6.4690591100 7.5878248731
11.6112963006 5.6580225182 8.4426684115
11.3540364090 6.3947087407 8.6348022447
11.6895488029 6.0178324092 9.0117842098
11.4083304556 6.1805004724 11.9371421147
11.7119740222 5.9114109592 11.7228443088
11.6981643232 6.1774210995 11.1798183103
10.9359350036 6.2138464136 12.8080203696
10.9250496212 7.3886532948 8.6122235220
11.5866851171 6.4427252843 9.4617017107
11.2279568063 7.1067469010 9.7661985644
11.3103735657 6.8474254155 10.9666390775
11.6473498180 6.4516261184 10.2618228610
10.9088128902 7.0879276469 11.8510762981
10.6405862798 8.2086213805 8.8322350489
10.7514168831 8.0420759133 9.6356676486
10.8165226010 7.7483558814 10.7930217573
11.5819116605 1.2790304510 9.1640306031
11.7029874585 0.9981885493 9.7878406622
11.6457038162 0.9270606106 10.3913354973
11.5823930326 1.0876297888 11.3348233944
11.7585402371 1.3985834360 12.0189294427
11.7200999279 2.1809242147 8.3003165372
11.6730854903 1.6876756733 8.6326883075
11.6433614656 2.0406770393 12.7664747121
11.8024048740 1.8036535188 12.4891067725
11.7140958459 3.3832304377 7.8537446350
11.9358490748 3.0116271745 8.1907348699
12.1017462973 3.6753516650 8.3696707984
12.1815917036 3.5615341520 8.4412689130
11.7949080646 2.4783384839 12.9282704929
11.7806663698 3.4713778913 13.1199422007
12.0237240370 4.4686003440 8.5716040655
12.2206524250 4.1036996587 8.6683885433
11.9206922962 4.3842386077 12.7984755245
11.8776486487 5.4200048954 8.8924521021
12.2360123335 4.7904849789 9.1553640281
12.1296102202 5.3409993148 9.5568100998
12.2643757834 5.2335012021 9.6905365917
11.9272838017 5.6278866253 11.5970285322
12.0533838214 5.2521354151 11.9233433274
12.1100580405 5.5656424711 11.1056922911
12.0243970386 4.8569603145 12.4242241183
11.8632345686 5.9633856662 9.6290738757
12.1967355174 5.5155775992 10.2527396539
11.9931010164 5.8366946478 10.5322148538
3 2 1 0
3 0 3 2
3 6 5 4
3 6 4 1
3 4 0 1
3 4 7 0
3 3 0 8
3 0 9 8
3 0 7 9
3 9 10 8
3 13 12 11
3 13 11 5
3 11 4 5
3 11 14 4
3 4 15 7
3 4 14 15
3 7 16 9
3 7 15 16
3 10 9 17
3 9 18 17
3 9 16 18
3 20 19 18
3 18 19 17
3 22 21 20
3 20 21 19
3 22 23 21
3 26 25 24
3 26 24 12
3 24 11 12
3 24 27 11
3 11 28 14
3 11 27 28
3 14 29 15
3 14 28 29
3 15 30 16
3 15 29 30
3 16 31 18
3 16 30 31
3 18 32 20
3 18 31 32
3 34 22 33
3 22 32 33
3 22 20 32
3 22 34 23
3 25 35 24
3 37 36 35
3 36 24 35
3 36 27 24
3 27 38 28
3 27 36 38
3 28 39 29
3 28 38 39
3 29 40 30
3 29 39 40
3 30 41 31
3 30 40 41
3 31 42 32
3 31 41 42
3 33 32 43
3 43 32 42
3 37 44 36
3 46 45 44
3 45 36 44
3 45 38 36
3 38 47 39
3 38 45 47
3 39 48 40
3 39 47 48
3 40 49 41
3 40 48 49
3 51 42 50
3 42 49 50
3 42 41 49
3 42 51 43
3 46 52 45
3 45 52 47
3 47 52 53
3 47 53 48
3 48 53 54
3 48 54 49
3 49 54 55
3 49 55 50
3 58 57 56
3 60 59 56
3 56 59 58
3 62 61 60
3 60 61 59
3 64 63 62
3 62 63 61
3 66 65 64
3 64 65 63
3 68 67 66
3 66 67 65
3 68 69 67
3 72 71 70
3 72 70 57
3 70 56 57
3 70 73 56
3 56 74 60
3 56 73 74
3 74 1 2
3 62 74 2
3 60 74 62
3 62 2 3
3 75 62 3
3 64 62 75
3 64 76 66
3 64 75 76
3 66 77 68
3 66 76 77
3 69 68 78
3 68 79 78
3 68 77 79
3 79 80 78
3 83 82 81
3 83 81 71
3 81 70 71
3 81 84 70
3 70 85 73
3 70 84 85
3 85 5 6
3 74 85 6
3 73 85 74
3 74 6 1
3 8 75 3
3 75 8 10
3 86 75 10
3 76 75 86
3 76 87 77
3 76 86 87
3 77 88 79
3 77 87 88
3 80 79 89
3 79 90 89
3 79 88 90
3 90 91 89
3 94 93 92
3 94 92 82
3 92 81 82
3 92 95 81
3 81 96 84
3 81 95 96
3 96 12 13
3 85 96 13
3 84 96 85
3 85 13 5
3 17 86 10
3 86 17 19
3 86 19 87
3 87 19 21
3 87 21 88
3 88 21 23
3 97 88 23
3 90 88 97
3 91 90 98
3 98 90 97
3 92 93 99
3 99 93 100
3 92 101 95
3 92 99 101
3 101 25 26
3 96 101 26
3 95 101 96
3 96 26 12
3 33 102 34
3 97 23 34
3 102 97 34
3 103 97 102
3 98 97 104
3 104 97 103
3 99 100 105
3 105 100 106
3 99 107 101
3 99 105 107
3 108 35 25
3 101 108 25
3 107 108 101
3 108 37 35
3 43 109 102
3 43 102 33
3 111 103 110
3 103 109 110
3 103 102 109
3 103 111 104
3 106 112 105
3 114 113 112
3 113 105 112
3 113 107 105
3 107 115 108
3 107 113 115
3 116 44 37
3 108 116 37
3 115 116 108
3 116 46 44
3 50 117 51
3 117 118 51
3 51 118 43
3 118 119 43
3 119 109 43
3 109 119 110
3 113 114 120
3 120 114 121
3 113 122 115
3 113 120 122
3 115 123 116
3 115 122 123
3 124 52 46
3 116 124 46
3 123 124 116
3 125 53 52
3 125 52 124
3 126 54 53
3 126 53 125
3 54 126 127
3 128 54 127
3 55 54 128
3 50 55 117
3 55 129 117
3 55 128 129
3 117 129 118
3 121 130 120
3 120 130 122
3 122 130 131
3 122 131 123
3 123 131 132
3 123 132 124
3 124 132 133
3 124 133 125
3 125 133 134
3 125 134 126
3 126 134 135
3 126 135 127
3 138 137 136
3 140 139 136
3 136 139 138
3 142 141 140
3 140 141 139
3 144 143 142
3 142 143 141
3 146 145 144
3 144 145 143
3 148 147 146
3 146 147 145
3 150 149 148
3 148 149 147
3 150 151 149
3 154 153 152
3 154 152 137
3 137 152 136
3 152 57 136
3 57 58 136
3 136 58 59
3 136 59 140
3 140 59 61
3 140 61 142
3 142 61 63
3 142 63 144
3 144 63 65
3 144 65 146
3 146 65 67
3 146 67 148
3 148 67 69
3 155 148 69
3 150 148 155
3 151 150 156
3 150 157 156
3 150 155 157
3 157 158 156
3 161 160 159
3 161 159 153
3 153 159 152
3 159 71 152
3 71 72 152
3 152 72 57
3 78 155 69
3 155 78 80
3 162 155 80
3 157 155 162
3 158 157 163
3 157 164 163
3 157 162 164
3 164 165 163
3 168 167 166
3 168 166 160
3 160 166 159
3 166 82 159
3 82 83 159
3 159 83 71
3 89 162 80
3 162 89 91
3 169 162 91
3 164 162 169
3 165 164 170
3 170 164 169
3 173 172 171
3 173 171 167
3 167 171 166
3 171 93 166
3 93 94 166
3 166 94 82
3 98 174 169
3 98 169 91
3 170 169 175
3 175 169 174
3 171 172 176
3 176 172 177
3 176 100 93
3 176 93 171
3 179 178 174
3 98 179 174
3 104 179 98
3 174 178 175
3 176 177 180
3 180 177 181
3 180 106 100
3 180 100 176
3 110 182 111
3 182 183 111
3 183 104 111
3 183 179 104
3 180 181 184
3 184 181 185
3 186 112 106
3 180 186 106
3 184 186 180
3 186 114 112
3 118 187 119
3 187 188 119
3 119 188 110
3 188 189 110
3 189 182 110
3 182 189 183
3 185 190 184
3 192 191 190
3 191 184 190
3 191 186 184
3 191 121 114
3 191 114 186
3 127 193 128
3 128 193 194
3 195 128 194
3 129 128 195
3 118 129 187
3 129 196 187
3 129 195 196
3 187 196 188
3 192 197 191
3 191 197 121
3 197 130 121
3 197 198 130
3 198 200 199
3 131 198 199
3 130 198 131
3 201 132 131
3 201 131 199
3 202 133 132
3 202 132 201
3 203 134 133
3 203 133 202
3 204 135 134
3 204 134 203
3 204 205 135
3 135 205 127
3 205 206 127
3 206 193 127
3 193 206 194
3 199 200 207
3 207 200 208
3 199 209 201
3 199 207 209
3 201 210 202
3 201 209 210
3 202 211 203
3 202 210 211
3 203 212 204
3 203 211 212
3 205 204 213
3 213 204 212
3 216 215 214
3 218 217 214
3 214 217 216
3 220 219 218
3 218 219 217
3 222 221 220
3 220 221 219
3 224 223 222
3 222 223 221
3 226 225 224
3 224 225 223
3 226 227 225
3 230 229 228
3 137 138 228
3 138 230 228
3 138 231 230
3 139 214 215
3 231 139 215
3 138 139 231
3 214 139 141
3 214 141 218
3 218 141 143
3 218 143 220
3 220 143 145
3 220 145 222
3 222 145 147
3 222 147 224
3 224 147 149
3 224 149 226
3 233 232 151
3 151 232 149
3 232 227 149
3 227 226 149
3 233 234 232
3 237 236 235
3 237 235 229
3 229 235 228
3 235 153 228
3 153 154 228
3 228 154 137
3 156 233 151
3 239 238 158
3 158 238 156
3 238 234 156
3 234 233 156
3 239 240 238
3 243 242 241
3 243 241 236
3 236 241 235
3 241 160 235
3 160 161 235
3 235 161 153
3 163 239 158
3 245 244 165
3 165 244 163
3 244 240 163
3 240 239 163
3 248 247 246
3 248 246 242
3 242 246 241
3 246 167 241
3 167 168 241
3 241 168 160
3 170 249 245
3 170 245 165
3 246 247 173
3 247 172 173
3 247 250 172
3 246 173 167
3 252 251 249
3 170 252 249
3 175 252 170
3 255 254 253
3 250 255 253
3 177 250 253
3 172 250 177
3 179 256 178
3 256 257 178
3 257 175 178
3 257 252 175
3 253 254 258
3 258 254 259
3 258 181 177
3 258 177 253
3 261 260 256
3 179 261 256
3 183 261 179
3 256 260 257
3 259 262 258
3 181 258 262
3 263 181 262
3 185 181 263
3 266 265 264
3 189 188 264
3 265 189 264
3 267 189 265
3 183 189 261
3 261 189 267
3 263 268 185
3 185 268 190
3 192 190 268
3 192 268 269
3 271 270 195
3 271 195 194
3 264 196 266
3 196 270 266
3 196 195 270
3 196 264 188
3 269 272 192
3 192 272 197
3 197 273 198
3 272 273 197
3 200 198 273
3 200 273 274
3 276 275 206
3 276 206 205
3 194 206 271
3 271 206 275
3 274 208 200
3 277 208 274
3 280 279 278
3 279 276 278
3 276 213 278
3 276 205 213
3 283 282 281
3 285 284 281
3 281 284 283
3 287 286 285
3 285 286 284
3 289 288 287
3 287 288 286
3 291 290 289
3 289 290 288
3 291 292 290
3 295 294 293
3 297 296 293
3 293 296 295
3 215 216 297
3 216 296 297
3 216 298 296
3 217 281 282
3 298 217 282
3 216 217 298
3 281 217 219
3 281 219 285
3 285 219 221
3 285 221 287
3 287 221 223
3 287 223 289
3 289 223 225
3 289 225 291
3 300 299 227
3 227 299 225
3 299 292 225
3 292 291 225
3 300 301 299
3 304 303 302
3 304 302 294
3 294 302 293
3 302 229 293
3 229 230 293
3 293 230 231
3 293 231 297
3 297 231 215
3 232 300 227
3 306 305 234
3 234 305 232
3 305 301 232
3 301 300 232
3 308 307 306
3 306 307 305
3 311 310 309
3 311 309 303
3 303 309 302
3 309 236 302
3 236 237 302
3 302 237 229
3 238 306 234
3 306 238 240
3 312 306 240
3 308 306 312
3 315 314 313
3 315 313 310
3 310 313 309
3 313 242 309
3 242 243 309
3 309 243 236
3 244 312 240
3 313 314 248
3 314 247 248
3 314 316 247
3 313 248 242
3 319 318 317
3 316 319 317
3 250 316 317
3 247 316 250
3 321 320 251
3 321 251 252
3 317 318 255
3 318 254 255
3 318 322 254
3 317 255 250
3 325 324 323
3 324 321 323
3 321 257 323
3 321 252 257
3 327 259 326
3 259 322 326
3 259 254 322
3 328 327 326
3 331 330 329
3 329 330 325
3 329 325 323
3 261 329 323
3 260 261 323
3 260 323 257
3 327 262 259
3 333 332 263
3 333 263 262
3 328 333 262
3 327 328 262
3 334 332 333
3 336 335 265
3 336 265 266
3 329 267 331
3 267 335 331
3 267 265 335
3 267 329 261
3 332 268 263
3 338 337 269
3 338 269 268
3 334 338 268
3 332 334 268
3 339 337 338
3 341 340 270
3 341 270 271
3 266 270 336
3 336 270 340
3 337 272 269
3 339 342 337
3 342 272 337
3 342 273 272
3 344 343 274
3 273 344 274
3 342 344 273
3 346 345 343
3 346 343 344
3 348 347 345
3 348 345 346
3 350 349 347
3 350 347 348
3 352 351 349
3 352 349 350
3 275 276 351
3 352 275 351
3 353 275 352
3 271 275 341
3 341 275 353
3 354 277 343
3 343 277 274
3 355 343 345
3 354 343 355
3 356 345 347
3 355 345 356
3 357 347 349
3 356 347 357
3 280 357 279
3 357 351 279
3 357 349 351
3 279 351 276
3 360 359 358
3 358 361 360
3 364 363 362
3 366 365 362
3 362 365 364
3 282 283 366
3 283 365 366
3 283 367 365
3 368 283 284
3 368 367 283
3 286 358 359
3 368 286 359
3 284 286 368
3 369 361 358
3 286 369 358
3 288 369 286
3 370 288 290
3 370 369 288
3 372 371 292
3 371 290 292
3 371 370 290
3 372 373 371
3 375 374 295
3 295 374 294
3 296 362 363
3 375 296 363
3 295 296 375
3 362 296 298
3 362 298 366
3 366 298 282
3 299 372 292
3 377 376 301
3 301 376 299
3 376 373 299
3 373 372 299
3 377 378 376
3 380 379 304
3 304 379 303
3 304 294 374
3 304 374 380
3 305 377 301
3 381 378 377
3 305 381 377
3 307 381 305
3 383 382 311
3 311 382 310
3 311 303 379
3 311 379 383
3 385 384 315
3 315 384 314
3 315 310 382
3 315 382 385
3 384 316 314
3 386 316 384
3 389 388 387
3 391 390 319
3 319 390 318
3 319 316 386
3 319 386 391
3 389 387 320
3 321 389 320
3 392 389 321
3 394 322 393
3 322 390 393
3 322 318 390
3 395 394 393
3 398 397 396
3 324 325 396
3 397 324 396
3 399 324 397
3 321 324 392
3 392 324 399
3 394 326 322
3 401 400 328
3 401 328 326
3 395 401 326
3 394 395 326
3 402 400 401
3 405 404 403
3 403 404 398
3 403 398 396
3 331 403 396
3 330 331 396
3 330 396 325
3 400 333 328
3 407 406 334
3 407 334 333
3 402 407 333
3 400 402 333
3 408 406 407
3 411 410 409
3 413 412 409
3 413 409 410
3 412 413 405
3 412 405 403
3 336 412 403
3 335 336 403
3 335 403 331
3 406 338 334
3 415 414 339
3 415 339 338
3 408 415 338
3 406 408 338
3 417 416 414
3 417 414 415
3 419 418 416
3 419 416 417
3 421 420 418
3 421 418 419
3 423 422 420
3 423 420 421
3 425 424 422
3 425 422 423
3 424 425 411
3 409 424 411
3 426 424 409
3 341 426 340
3 426 412 340
3 426 409 412
3 340 412 336
3 414 342 339
3 342 414 344
3 344 414 416
3 344 416 346
3 346 416 418
3 346 418 348
3 348 418 420
3 348 420 350
3 350 420 422
3 350 422 352
3 352 422 424
3 352 424 353
3 353 424 426
3 353 426 341
3 429 428 427
3 431 430 427
3 427 430 429
3 359 360 431
3 360 430 431
3 360 432 430
3 434 433 361
3 433 360 361
3 433 432 360
3 436 435 434
3 434 435 433
3 436 437 435
3 440 439 438
3 363 364 438
3 364 440 438
3 364 441 440
3 442 364 365
3 442 441 364
3 367 427 428
3 442 367 428
3 365 367 442
3 427 367 368
3 427 368 431
3 431 368 359
3 369 434 361
3 434 369 370
3 434 370 436
3 443 437 436
3 370 443 436
3 371 443 370
3 445 444 373
3 444 371 373
3 444 443 371
3 445 446 444
3 438 439 375
3 439 374 375
3 439 447 374
3 438 375 363
3 376 445 373
3 449 448 378
3 378 448 376
3 448 446 376
3 446 445 376
3 452 451 450
3 379 380 450
3 380 452 450
3 380 453 452
3 380 374 447
3 380 447 453
3 381 449 378
3 456 455 454
3 456 454 451
3 451 454 450
3 454 382 450
3 382 383 450
3 450 383 379
3 454 455 385
3 455 384 385
3 455 457 384
3 454 385 382
3 460 459 458
3 457 386 384
3 461 386 457
3 460 458 388
3 389 460 388
3 462 460 389
3 464 463 391
3 391 463 390
3 391 386 461
3 391 461 464
3 467 466 465
3 466 462 465
3 462 392 465
3 462 389 392
3 463 468 390
3 390 468 393
3 395 393 468
3 395 468 469
3 472 471 470
3 397 398 470
3 471 397 470
3 473 397 471
3 465 399 467
3 399 473 467
3 399 397 473
3 399 465 392
3 469 474 395
3 395 474 401
3 476 475 402
3 401 476 402
3 474 476 401
3 477 475 476
3 480 479 478
3 478 479 472
3 478 472 470
3 405 478 470
3 404 405 470
3 404 470 398
3 475 407 402
3 482 481 408
3 482 408 407
3 477 482 407
3 475 477 407
3 484 483 481
3 484 481 482
3 486 485 483
3 486 483 484
3 488 487 485
3 488 485 486
3 490 489 487
3 490 487 488
3 492 491 489
3 492 489 490
3 410 411 491
3 492 410 491
3 493 410 492
3 478 413 480
3 413 493 480
3 413 410 493
3 413 478 405
3 481 415 408
3 415 481 417
3 417 481 483
3 417 483 419
3 419 483 485
3 419 485 421
3 421 485 487
3 421 487 423
3 423 487 489
3 423 489 425
3 425 489 491
3 425 491 411
3 495 494 429
3 429 494 428
3 496 429 430
3 496 495 429
3 497 430 432
3 497 496 430
3 498 432 433
3 498 497 432
3 499 433 435
3 499 498 433
3 501 500 437
3 500 435 437
3 500 499 435
3 501 502 500
3 504 503 440
3 440 503 439
3 505 440 441
3 505 504 440
3 506 441 442
3 506 505 441
3 442 428 494
3 442 494 506
3 443 501 437
3 507 502 501
3 443 507 501
3 444 507 443
3 444 446 507
3 507 446 508
3 511 510 509
3 503 511 509
3 447 503 509
3 439 503 447
3 512 508 446
3 512 446 448
3 514 513 452
3 452 513 451
3 453 509 510
3 514 453 510
3 452 453 514
3 509 453 447
3 515 455 456
3 516 515 456
3 451 516 456
3 513 516 451
3 519 518 517
3 521 520 515
3 520 455 515
3 520 457 455
3 521 515 516
3 519 517 459
3 460 519 459
3 522 519 460
3 520 461 457
3 523 461 520
3 526 525 524
3 525 522 524
3 522 462 524
3 522 460 462
3 527 463 464
3 461 523 528
3 527 461 528
3 529 527 528
3 464 461 527
3 530 529 528
3 533 532 531
3 531 532 526
3 531 526 524
3 467 531 524
3 466 467 524
3 466 524 462
3 527 468 463
3 468 527 469
3 527 534 469
3 527 529 534
3 529 530 535
3 536 529 535
3 534 529 536
3 537 536 535
3 540 539 538
3 471 472 538
3 539 471 538
3 541 471 539
3 531 473 533
3 473 541 533
3 473 471 541
3 473 531 467
3 534 474 469
3 474 534 476
3 476 534 536
3 543 542 477
3 543 477 476
3 537 543 476
3 536 537 476
3 545 544 542
3 545 542 543
3 547 546 544
3 547 544 545
3 548 546 547
3 551 550 549
3 553 552 549
3 553 549 550
3 552 553 540
3 552 540 538
3 480 552 538
3 479 480 538
3 479 538 472
3 542 482 477
3 482 542 484
3 484 542 544
3 484 544 486
3 486 544 546
3 548 554 546
3 554 486 546
3 554 488 486
3 488 555 490
3 554 555 488
3 549 492 551
3 492 555 551
3 492 490 555
3 492 549 493
3 493 549 552
3 493 552 480
3 558 557 556
3 560 559 556
3 556 559 558
3 562 561 560
3 560 561 559
3 562 563 561
3 566 565 564
3 568 567 564
3 564 567 566
3 494 495 568
3 495 567 568
3 495 569 567
3 496 556 557
3 569 496 557
3 495 496 569
3 556 496 497
3 556 497 560
3 560 497 498
3 560 498 562
3 570 563 562
3 498 570 562
3 499 570 498
3 571 499 500
3 571 570 499
3 500 502 571
3 571 502 572
3 574 573 504
3 504 573 503
3 505 564 565
3 574 505 565
3 504 505 574
3 564 505 506
3 564 506 568
3 568 506 494
3 575 572 502
3 575 502 507
3 507 508 575
3 575 508 576
3 578 577 511
3 511 577 510
3 511 503 573
3 511 573 578
3 508 512 579
3 580 508 579
3 576 508 580
3 581 513 514
3 582 581 514
3 510 582 514
3 577 582 510
3 580 579 583
3 580 583 584
3 586 585 581
3 585 513 581
3 585 516 513
3 586 581 582
3 589 588 587
3 587 588 584
3 587 584 583
3 519 587 583
3 518 519 583
3 591 590 521
3 521 590 520
3 521 516 585
3 521 585 591
3 594 593 592
3 592 593 589
3 587 592 589
3 595 592 587
3 522 595 519
3 519 595 587
3 597 523 596
3 523 590 596
3 523 520 590
3 598 597 596
3 594 592 599
3 594 599 600
3 526 599 525
3 599 595 525
3 599 592 595
3 525 595 522
3 597 528 523
3 602 601 530
3 602 530 528
3 598 602 528
3 597 598 528
3 604 603 601
3 604 601 602
3 605 603 604
3 608 607 606
3 610 609 606
3 610 606 607
3 612 611 609
3 612 609 610
3 611 612 600
3 611 600 599
3 533 611 599
3 532 533 599
3 532 599 526
3 601 535 530
3 535 601 537
3 601 613 537
3 601 603 613
3 603 605 614
3 615 603 614
3 613 603 615
3 617 616 615
3 617 615 614
3 619 618 616
3 619 616 617
3 620 618 619
3 623 622 621
3 621 622 608
3 606 621 608
3 624 621 606
3 540 624 539
3 624 609 539
3 624 606 609
3 539 609 541
3 541 609 611
3 541 611 533
3 613 543 537
3 543 613 545
3 545 613 615
3 545 615 547
3 547 615 616
3 547 616 548
3 616 625 548
3 616 618 625
3 618 620 626
3 627 618 626
3 625 618 627
3 627 626 623
3 627 623 621
3 551 627 621
3 550 551 621
3 550 621 553
3 553 621 624
3 553 624 540
3 625 554 548
3 554 625 555
3 555 625 627
3 555 627 551
3 629 628 558
3 558 628 557
3 630 558 559
3 630 629 558
3 631 559 561
3 631 630 559
3 561 563 631
3 631 563 632
3 633 565 566
3 633 566 634
3 566 635 634
3 566 567 635
3 636 567 569
3 636 635 567
3 569 557 628
3 569 628 636
3 637 632 563
3 637 563 570
3 638 570 571
3 638 637 570
3 571 572 638
3 638 572 639
3 641 640 574
3 574 640 573
3 574 565 633
3 642 574 633
3 641 574 642
3 642 633 634
3 643 639 572
3 643 572 575
3 575 576 643
3 643 576 644
3 645 577 578
3 646 645 578
3 573 646 578
3 640 646 573
3 580 644 576
3 580 647 644
3 648 582 645
3 645 582 577
3 645 646 649
3 645 649 648
3 652 651 650
3 651 647 650
3 647 584 650
3 647 580 584
3 653 585 586
3 582 648 586
3 648 653 586
3 648 654 653
3 648 649 655
3 656 648 655
3 654 648 656
3 658 657 656
3 658 656 655
3 659 657 658
3 662 661 660
3 660 661 652
3 660 652 650
3 589 660 650
3 588 589 650
3 588 650 584
3 663 590 591
3 585 653 591
3 653 663 591
3 653 664 663
3 665 653 654
3 664 653 665
3 666 654 656
3 665 654 666
3 667 656 657
3 666 656 667
3 657 659 668
3 669 657 668
3 667 657 669
3 670 669 668
3 673 672 671
3 671 672 662
3 671 662 660
3 594 671 660
3 593 594 660
3 593 660 589
3 663 596 590
3 596 663 598
3 663 674 598
3 663 664 674
3 675 664 665
3 674 664 675
3 676 665 666
3 675 665 676
3 677 666 667
3 676 666 677
3 678 667 669
3 677 667 678
3 669 670 679
3 669 679 678
3 682 681 680
3 680 681 673
3 671 680 673
3 683 680 671
3 600 683 594
3 594 683 671
3 674 602 598
3 602 674 604
3 604 674 675
3 604 675 605
3 675 684 605
3 675 676 684
3 685 676 677
3 684 676 685
3 686 677 678
3 685 677 686
3 678 679 687
3 688 678 687
3 686 678 688
3 690 689 688
3 690 688 687
3 607 608 689
3 690 607 689
3 691 607 690
3 680 610 682
3 610 691 682
3 610 607 691
3 610 680 612
3 612 680 683
3 612 683 600
3 684 614 605
3 614 684 617
3 617 684 685
3 617 685 619
3 619 685 686
3 619 686 620
3 686 692 620
3 686 688 692
3 623 692 622
3 692 689 622
3 692 688 689
3 622 689 608
3 692 626 620
3 626 692 623
3 694 693 629
3 629 693 628
3 695 629 630
3 695 694 629
3 696 630 631
3 696 695 630
3 631 632 696
3 696 632 697
3 698 634 635
3 698 635 699
3 635 700 699
3 635 636 700
3 636 628 693
3 636 693 700
3 701 697 632
3 701 632 637
3 703 701 702
3 701 638 702
3 701 637 638
3 639 702 638
3 704 640 641
3 642 705 641
3 641 705 704
3 706 705 642
3 706 642 634
3 707 706 634
3 698 707 634
3 707 698 699
3 703 702 708
3 703 708 709
3 643 710 639
3 710 702 639
3 710 708 702
3 644 710 643
3 711 646 704
3 704 646 640
3 712 704 705
3 711 704 712
3 705 706 713
3 714 705 713
3 712 705 714
3 715 714 713
3 709 708 716
3 709 716 717
3 718 708 710
3 716 708 718
3 647 718 644
3 644 718 710
3 719 649 711
3 711 649 646
3 720 711 712
3 719 711 720
3 721 712 714
3 720 712 721
3 714 715 722
3 714 722 721
3 725 724 723
3 723 724 717
3 716 723 717
3 726 723 716
3 652 726 651
3 726 718 651
3 726 716 718
3 651 718 647
3 719 655 649
3 655 719 658
3 658 719 720
3 658 720 659
3 720 727 659
3 720 721 727
3 721 722 728
3 729 721 728
3 727 721 729
3 730 729 728
3 733 732 731
3 731 732 725
3 723 731 725
3 734 731 723
3 662 734 661
3 734 726 661
3 734 723 726
3 661 726 652
3 727 668 659
3 668 727 670
3 727 735 670
3 727 729 735
3 729 730 736
3 737 729 736
3 735 729 737
3 739 738 737
3 739 737 736
3 738 739 733
3 731 738 733
3 740 738 731
3 673 740 672
3 740 734 672
3 740 731 734
3 672 734 662
3 741 679 735
3 735 679 670
3 742 735 737
3 741 735 742
3 743 737 738
3 742 737 743
3 682 743 681
3 743 740 681
3 743 738 740
3 681 740 673
3 741 687 679
3 687 741 690
3 690 741 742
3 690 742 691
3 691 742 743
3 691 743 682
3 745 744 694
3 694 744 693
3 746 694 695
3 746 745 694
3 747 695 696
3 747 746 695
3 696 697 747
3 747 697 748
3 750 749 700
3 700 749 699
3 700 693 744
3 700 744 750
3 697 701 751
3 752 697 751
3 748 697 752
3 703 751 701
3 753 706 707
3 699 749 754
3 753 699 754
3 755 753 754
3 707 699 753
3 756 755 754
3 757 752 751
3 751 703 757
3 703 758 757
3 703 709 758
3 753 713 706
3 713 753 715
3 753 759 715
3 753 755 759
3 755 756 760
3 755 760 759
3 717 758 709
3 717 761 758
3 762 722 759
3 759 722 715
3 759 760 763
3 764 759 763
3 762 759 764
3 765 764 763
3 768 767 766
3 724 725 766
3 767 724 766
3 769 724 767
3 717 724 761
3 761 724 769
3 762 728 722
3 728 762 730
3 762 770 730
3 762 764 770
3 764 765 771
3 772 764 771
3 770 764 772
3 772 771 768
3 772 768 766
3 733 772 766
3 732 733 766
3 732 766 725
3 770 736 730
3 736 770 739
3 739 770 772
3 739 772 733