OFF
1184 2346 0
1.1251916268 14.4669452521 26.0302504607
1.1747237600 14.2053546795 25.1097324168
1.4050816825 13.6901467059 25.5782153181
1.6668000504 13.5728514664 26.6013577118
1.2718528849 14.3728281610 26.8671106226
1.5743061786 14.0867186651 27.3479571254
1.0722687112 15.2513270828 24.1238941597
1.3072889402 15.3472126503 23.3038811824
1.2999885349 14.6651942510 23.5354975605
1.2022390340 14.4033895489 24.3020714936
0.9550078859 15.0995449362 25.1551689965
0.8752102280 15.3758335386 26.1286119467
1.0276430755 15.1984707304 26.9625712168
1.3242871280 14.7213181381 27.5023640241
1.1226399182 16.0066933215 23.8698506622
1.3361262744 15.9045103720 23.2660056016
0.9092209843 16.0565444447 24.8042818161
0.8031305382 16.1050010734 25.8222263097
0.8455375533 16.1415626497 26.8195131771
1.1860120413 15.3565160449 27.7205851135
1.0824903307 16.1075962534 27.8282644087
1.3308869054 15.6733285124 28.2355260285
1.4235967127 16.5576348671 23.4346619309
1.0750491678 16.9332609763 24.4694857805
1.3905279791 17.3902645175 23.9519194308
0.8698635826 16.9736887393 25.5380054529
0.8239981201 17.0415767987 26.6033945586
0.9274273059 17.0603711581 27.6358143352
1.5510458445 16.2158353974 28.8490347013
1.2049426794 17.0404423358 28.5787910040
1.6099980791 17.0282931155 29.3512219337
1.2335414707 17.6937141138 24.5195085166
1.4305739936 17.8770190112 24.2332369738
1.0957030194 17.7632110392 25.2451229896
0.9762201451 17.8690839365 26.3015397698
0.9796359382 18.0310078723 27.4596061681
1.0944484161 17.8907521368 28.4196651042
1.4110636835 17.7868904657 29.2446597818
1.5478000492 18.3792576860 24.7231118898
1.3156867447 18.5701767107 25.9018401774
1.1904333970 18.6825963190 26.9647656041
1.1676234841 18.8131836981 27.7533283209
1.1557458091 18.6494664174 28.3223930298
1.3353273046 19.1916810694 28.2332948059
1.3389104369 18.5710830089 29.0391825974
1.3959713772 19.1399173188 28.7516632509
1.6253408178 24.6361315819 28.1257512415
1.8973335886 24.4336710181 27.9113341347
1.9548952103 24.1332659549 28.0244337116
1.7769726788 24.5945400797 28.2423787551
1.6129982804 24.7062879531 28.0476140696
1.8772147841 24.6704134403 28.0059303047
1.6730573991 24.7865754672 28.3147550831
1.5761473751 24.7897507039 28.2440729443
1.8954443617 24.7012779832 28.4255130671
2.1062925434 12.2157810236 23.9414492544
2.3733087754 11.9173965949 23.1327082098
2.4517611852 11.6381540608 23.7534842571
2.6379781712 11.4290013536 24.4899270489
2.1621475733 12.1541337473 24.9225081606
2.5394207635 11.7060516974 25.3147778016
2.0919016889 13.1253937011 21.9906611176
2.3273803340 13.4225007947 21.1480572935
2.4096205744 12.6853744097 21.4581303638
2.3536261866 12.3175995233 22.2263115334
1.9510935442 12.8388675202 22.9919105006
1.7315660993 12.9990094672 23.8887934518
1.8190850181 12.7249414982 24.5758628181
2.3411559571 12.1242605141 25.6838486428
1.8851833896 12.8467617684 25.6206432281
2.6069807371 12.2768918584 26.5718710899
2.0748773658 12.8821013218 26.4976487438
2.3778330416 12.9216052302 27.2021709726
1.9795207734 13.9862515613 21.8210607079
2.3074860192 14.3712906133 21.0317274652
1.7923277230 13.6499588235 22.5448182200
1.5387982363 13.7942647143 23.4712713057
1.4851322977 13.5052877304 24.6240693763
2.1261104119 13.5903095032 27.7486636047
1.7825986205 14.3613073433 28.0741163089
2.2361609355 13.9382468687 28.4077343222
2.1458413978 14.3641783823 28.6684239701
2.4971624744 14.0637451657 28.8639494295
1.9733262419 14.8884997845 21.8017308841
2.3054989992 15.1774062147 21.1817563240
1.6158442918 14.5709457024 22.6798957802
1.4775145260 15.0916162728 28.1401446729
1.9012474282 14.9213229880 28.6855151555
2.4550860766 14.6596069971 29.2134436244
2.1105889660 15.5860673261 21.7344209313
1.7010063237 15.7131063202 22.5872725135
2.1533887021 16.1825482093 22.0221919544
1.6331268581 15.5093893128 28.6479865963
2.1169828328 15.5424179894 29.2969835763
1.9595537188 16.7014610744 22.6912077675
1.7436551393 17.2438046090 23.3346965004
2.3184690836 17.6152164369 22.8599802441
2.2553344707 16.4338058892 29.9158033727
1.9409339079 17.5513128817 30.0367185278
2.4485549153 17.0932096102 30.5175218965
1.8129959592 17.9596781487 23.7765885637
2.4503898240 18.4619760017 23.3778716674
1.7135979713 18.4800438475 29.7974269994
2.3592361987 17.6478577000 30.6501582486
2.2026762181 18.3213381652 30.5152635100
2.7217435688 17.9822186733 31.0421756970
2.0953017683 18.6914830567 24.0568009071
2.0090859297 19.0312133134 24.6383986636
2.3653849372 19.2031027805 24.2412915614
1.8524964708 19.2515131630 25.4994441625
1.5851835894 19.3052755096 26.6166944171
1.4463926521 19.3271470508 27.6000035500
1.6712823452 19.2431595833 29.3825525311
2.1227032157 19.2759487853 30.2357435443
2.7395690374 18.9682533444 30.9983447364
2.3619095716 19.5342746809 24.8079565343
2.3652052908 19.9054734682 25.5306302180
2.0671462451 19.8845923691 26.3122104045
2.4811945670 20.2915755512 26.0638318984
1.8982780775 19.9546159408 27.3173528466
1.7603166924 19.8140800458 28.5239740123
2.0519434807 19.9600570844 29.6010034497
2.3450489321 20.0413843025 30.2247426743
2.5770082269 19.7643604086 30.6652440348
2.3936568013 20.4929274786 26.8018510946
2.3217026672 20.7555986612 27.9239169059
2.2979484790 20.6540944317 29.0603339463
2.4299044715 20.5349420692 29.8381674209
2.2201709289 23.6921294226 27.8716367179
2.4347092309 23.8170542029 27.6856098858
2.4876245895 23.3313196500 27.7569950207
2.2730087198 23.5393963178 28.0668638955
2.5104343895 24.3380863844 27.7960317893
2.0835667461 24.0822684687 28.3167873538
1.8986261512 24.6082300857 28.3772659632
2.4468995461 24.1104357377 28.5529990362
2.0685670000 24.6815532029 28.1814115358
1.7766618611 24.8115853755 28.2562227816
1.8730009634 24.8031330969 28.3463504232
2.3568023386 24.5777776878 28.3914151020
1.9046559113 24.8189119596 28.3912529334
2.9014661814 11.1376877697 23.4851223235
3.1615858572 10.9959660310 22.6695523230
3.5355544027 10.5428212780 23.0277292521
3.5516660708 10.4195991956 23.9960350838
3.0494098166 10.8918765726 24.2140820793
3.2876986684 10.7230346450 24.8120192746
3.2427428198 12.2254668715 18.4974943165
3.4745974765 11.9981715606 17.9565353722
3.4429977311 11.7678710694 18.3524354253
3.4130742361 11.7076997322 18.7179439690
3.0264719332 12.0328164437 20.3522503100
3.2016281031 11.9356745958 19.6509964628
3.3313318638 11.5021889496 20.1431717563
3.2742856752 11.3574063142 20.9577404652
2.7851133483 11.9581680700 21.4300671862
3.1815145947 11.1906451022 21.9105613628
2.7612327150 11.5552617778 22.4836129298
3.0353153043 11.2016824871 25.4798540863
2.8044584293 11.6945531186 26.0254569682
3.5673798262 11.1706353365 26.5114492300
3.0513019926 11.7225847586 26.5740658737
3.4156013060 11.7617060991 27.1487890580
3.2886204558 12.6618427161 17.8959399102
3.5203167485 12.7787074260 17.2929482458
3.4872903120 12.3204555332 17.5601286800
3.1350883962 12.7450938790 18.4529001991
3.2441694853 12.0010455709 19.0925514525
3.0234123891 12.8038775702 19.3069645470
2.6825286127 12.7552767731 20.6263465343
3.3090932213 12.3588073298 27.8012695543
2.7536629823 13.0185497609 27.9813574709
3.3023642870 12.8991807432 28.5306449116
3.3217092724 13.2757677097 17.6395982105
3.1699775235 13.2801778505 18.2922557600
3.2901730565 13.8120795389 17.8482821890
3.1050152093 13.6051137151 18.8085420193
2.9907314205 13.7576292128 19.3191961747
2.7010982492 13.7847513916 20.1573806060
2.9626602288 14.4338927873 19.4871253225
2.7687708447 13.5059156513 28.6067642202
2.9654010604 14.0173004985 29.3119316126
3.4993571965 14.8586914633 15.4365887321
3.7160342384 14.9253547462 15.1484799560
3.6033609538 14.6179861618 15.2941010944
3.5483468388 14.5402070413 15.5923638816
3.4508406659 14.9102424676 15.7175629723
3.4860903352 14.6947096234 16.0102524315
3.2070079057 13.9380918198 18.3411418408
2.7146636421 15.1058102464 20.2512104413
3.0110406166 15.0757317253 19.3734268883
2.9677181132 14.5800476873 29.7193252237
2.6997055864 15.1913076839 29.7848848611
3.1865299634 14.9166335507 30.1400259479
3.5552732571 15.2368502656 15.5852665711
3.4816187080 15.1123164604 16.0260576660
3.2344941578 16.0784092002 18.5793406258
3.4391476272 16.2940928341 17.8236175696
3.3153045701 15.6401736858 18.0810276621
3.1725757741 15.3443632953 18.7329048035
3.0371239202 15.7683114898 19.3850584022
2.9621341855 16.3413354075 20.1873791582
2.5189523150 16.0160757379 21.1946889633
2.5050182293 15.7285826740 29.8557113863
2.9940629609 15.6559982658 30.3346754221
3.3854472090 16.6474862913 18.3345858284
3.6226544879 16.8907640111 17.8015099515
3.2547888255 16.6419154361 19.1351661780
3.2691802392 16.9985953046 19.8356675759
3.1755451362 17.0365916270 20.4342591978
2.9219623288 16.8699487898 21.0487237809
3.2674670490 17.4373354886 20.8883160653
2.5434867340 16.9359014971 21.9522790370
3.1319001213 16.5085870609 30.8957157786
2.7488646656 17.3181314380 30.9306881742
3.2694732093 17.3946617849 31.3557729475
3.6115435374 17.1763949871 18.4339419767
3.5677459526 17.3822092682 19.2663503680
3.0856614652 17.5411394064 21.5622818669
2.8395405807 17.7089101625 22.2230572104
2.9300830764 18.3495221969 22.6669137898
3.3194754669 18.2851004138 31.5014361939
2.5594977826 19.0341877591 23.7744060205
3.0298160527 19.1188722399 23.2573491480
3.4991907851 19.1906013608 31.5142761334
2.8817207668 19.6590390754 24.1240688964
2.7999318313 20.0838251577 24.9725063194
2.7303155360 20.3357018482 25.5861599161
3.0887156233 20.5951340909 25.3257211050
2.8339304185 20.5178299028 30.4374207648
3.1413425004 19.8847958260 31.0577391530
2.9017101009 20.8127868296 26.0981390452
2.7594373718 21.2103469922 27.0595535558
2.6868698061 21.7172344665 27.9182537965
3.0104336783 22.0417930108 27.1695800830
2.5748726876 21.3580401152 28.6632107563
2.8646339239 21.3349668184 29.5758251431
3.3087925544 21.1401429310 30.3281609281
3.5333153759 20.6525259918 30.8602642805
2.6751231857 22.7263934671 27.9176958959
3.0552927270 22.9866394000 27.2836043523
2.7988741676 22.2647704206 28.7009947492
3.2489659840 22.2262168555 29.2890396483
3.6907138440 21.7375791935 29.8697801616
3.8357776850 21.2134839108 30.5216292461
3.3362966595 23.7383217783 27.3599059399
2.5350331711 23.3184232917 28.4415921518
3.1054073562 23.1009630515 28.8552627466
3.3088715125 24.1956985087 27.6570204875
3.1986147025 24.1731879916 28.3794289798
2.7897389420 24.2357842248 28.5413324539
3.2046385076 23.7866743811 28.6453387226
2.9938699529 24.3983839415 28.0278017012
4.9095602993 7.3766996391 26.3327545283
4.9807347500 7.3821946029 26.1777522831
4.9267633978 7.2310310346 26.3163644763
5.1060566876 7.2351374920 26.3105787262
5.0835970666 7.6358104335 26.2419277585
4.0532237546 9.9783958817 24.9126041784
4.1663146790 9.8643750737 24.0478086570
4.6936216380 9.4054941373 24.3332323020
4.9417065578 9.0323784525 25.4969819898
4.3388509116 9.9435763930 25.9089678784
4.8280632326 9.5783847610 26.2219995219
3.8093306419 11.2593596840 18.3982335545
4.2083149923 11.1149569738 17.6262759329
4.4069691421 10.5916617870 18.1086749767
4.3236882290 10.3563373317 18.9402033746
3.9108746351 10.7947591700 19.3903937322
4.2553253001 10.2236322822 19.9150139029
3.7293505704 10.8614890801 20.3350864324
4.2147100965 10.1554779415 21.0002140137
3.6645669497 10.7197318420 21.4798834264
4.0777571913 10.1577816447 22.2356013030
3.5195460061 10.6995487504 22.2969026534
4.0854870646 10.0110978134 23.3055101383
3.6811937771 10.5712344780 25.6833972822
4.7494997729 10.0580155474 26.6599726568
4.1050664495 10.4799000856 26.3819530148
4.4371723128 10.6868444861 27.0404725072
3.8475623724 11.8852028044 17.3593651921
4.3570480135 11.6857933296 16.7117669103
4.2819851687 11.3174983656 17.1946063795
3.5004998731 11.4152270248 19.3836111211
4.3601104433 11.2939057513 27.6262366291
3.8148513863 11.8070937234 27.7281280225
4.2675149721 11.8854131365 28.2797483223
4.1729418350 13.1155403431 15.6115294432
4.5786439590 13.2051235550 14.9081446807
4.6681748731 12.5342325429 15.3335359199
4.4934431069 12.2040275562 15.9475192459
3.9058758734 12.7644200081 16.5405314348
4.1310211999 12.5054353620 28.9240292613
3.6030739238 13.3097802546 29.3288585981
4.3866725852 12.9104195013 29.7122430677
4.1933289038 13.4714453468 30.1404639217
4.8701283894 13.0569533733 30.3264771593
3.9482921457 14.1483602534 15.1545587005
4.5396904562 14.0024732588 14.4218557779
3.6828574539 13.9809948950 16.0735646247
3.4859955892 13.7497805086 17.1177907751
3.1386455403 14.2003462140 18.8189893589
3.5440864966 14.1716725556 30.0249878220
4.6727549782 13.5465551144 30.6702915272
4.2325605154 14.1002446754 30.6841019853
4.8159820083 13.9249242024 31.0679139218
4.2124094122 14.9183447910 14.5342539921
4.8567503497 15.2125975881 13.7588093104
4.5956849024 14.5522359441 14.0880180503
3.4915870719 14.8304928373 16.6622673846
3.3093937527 14.6818918857 17.9794097166
3.1394923896 14.7498884370 18.9025242031
3.7218037673 14.9892687224 30.7045470406
4.5996524940 14.6658876681 31.3170479853
4.3757311129 15.8743611285 14.3806914868
4.8634262639 16.2367951613 13.9575058307
3.9173512372 15.7135406927 15.1599747927
3.6473278361 15.7239077032 16.1831759673
3.4841865394 15.6692263638 17.2754393589
3.4759811418 15.7261629937 30.8548435520
4.0501471169 15.7159103518 31.3517746520
4.5129170337 16.4997069290 14.3745327471
4.2819467747 16.4957525169 14.8529501299
4.5145202116 16.8154265020 14.6266148784
4.0685440060 16.5762036387 15.7409653494
3.7884391397 16.6253266664 16.9477341184
3.5243976505 17.6070104046 20.1840586924
3.9229693181 16.6998018817 31.6344180209
3.9508629263 17.6229038622 31.8633630356
4.6091752703 16.8755929146 32.1461134139
4.6560343467 17.1892400014 15.1421623674
4.3819329188 17.3777854815 16.3562880331
4.0882433065 17.5183984226 17.5958735964
3.9900658028 17.8152254132 18.6371221441
3.9266387206 18.0112376473 19.5025097740
4.3279718018 18.3845573931 19.0265411328
3.9064834459 18.2441947640 20.2513639028
3.6136448200 18.2203192036 21.1596684043
3.2395960421 18.1664450713 21.9933029600
4.0046352366 18.5674200730 31.9089605584
4.7325296250 17.9402446210 32.3115153818
4.3041738125 18.6434685356 19.8077704989
4.1417594611 18.7971630898 20.6764675587
4.0026893598 19.0129100906 21.4050264526
3.6135926166 19.0727561865 22.2794910995
4.2057291987 19.6415577364 21.7992339666
4.0971460364 19.3153891630 31.8150043316
4.6507930516 18.9941909022 32.0900478157
4.0592521224 19.9710245541 22.5137771524
4.4468452957 20.2979605018 22.1739119462
3.6807065532 20.1234302718 23.4419775873
3.3429469940 20.4656873240 24.5913410044
4.5431495512 19.6685435611 31.8099451817
3.9685084318 20.0114358194 31.4183596785
4.3251922352 20.6464648882 22.9114295556
4.1922728122 20.9382776375 23.6311801211
3.9228704663 21.0094675565 24.3336885753
4.3881430049 21.4198341504 24.0860768283
3.5861313645 21.2979772675 25.4482405403
3.1986426188 21.5042784724 26.4338025013
4.3637980985 20.8220242304 30.9029942922
4.2892876324 21.6928551684 24.8208792658
4.1618082109 22.0480046957 25.5941738983
3.6406709143 22.2289186506 26.3969743090
4.4857894192 22.6381173442 26.0688275080
4.4166063079 21.9847080380 29.4956715465
3.8436504508 22.5541999233 29.1970474256
4.4386191539 21.4205954261 30.2399577889
3.8932345865 23.0744449957 26.7811427212
4.5396515874 23.1379152100 26.6018863430
3.6836671256 23.2211303028 28.8232565514
4.1776443763 22.9444304687 28.7827401097
3.9457471705 23.5475989302 28.4460714082
4.2276102819 23.5198685165 27.0509718919
3.9453372570 23.9309588629 27.4670659753
3.8063527672 24.0397772564 28.0515130362
3.6966406944 24.1882321973 27.7729163231
5.4218513378 6.6237894074 25.8752521205
5.6565899821 6.7627537238 25.6292908131
5.7133703288 6.1219574414 25.6633848532
5.5915952303 6.2497030436 25.8865508058
5.1553818990 6.9366721089 26.1508279845
5.3833174039 6.7653795625 26.1627754557
5.2416249969 7.1825647676 25.8904719922
5.4624548285 7.5262236997 25.5679668257
5.3280559971 7.5950800804 26.2763364007
5.5914585612 7.1576219249 26.1371062619
5.6482919885 7.6912647109 26.1840747696
5.2333916638 9.0659867738 19.6521393310
5.6148501921 8.8216377275 18.9399463176
5.6618484575 8.5538161169 19.5406737950
5.9015448761 8.4259311002 20.2278548265
5.3298091684 8.9798744042 20.7430770223
5.8858690739 8.6232623733 21.0816916929
5.1799117990 7.8996876050 25.8392321833
5.4639719861 8.1861841291 25.2149990154
5.5616256588 8.2747465859 26.1881442583
5.3760653876 9.8508560361 17.6071511448
5.5433087772 10.1697826015 17.0790045861
5.8785522258 9.7012111285 17.4073249215
5.8133300010 9.2121150347 18.0869980454
4.9991994103 9.7422322496 18.4694733323
4.6837657805 9.7542860343 19.4538925495
4.7388831349 9.5820957698 20.3824545226
5.5826565487 8.9127291772 21.6405265708
4.8469004997 9.4884774499 21.6095830621
5.3694552643 9.1190948291 22.5307096354
4.6770568567 9.5937118405 22.8002849980
5.1147855602 9.2121045548 23.5012937254
4.5443397110 9.6071451883 23.6062649104
5.4531821411 8.7674450031 24.3960436093
5.3132505125 9.2234388100 26.3778641391
5.0724155835 9.6453528443 26.5788994479
5.5951871832 9.7376174626 26.9699607735
4.8235533712 10.6889035567 17.2479101263
5.5347085521 10.6800234870 16.5406630634
5.2008832663 10.3799133315 27.3504527929
4.8593708753 10.7920004256 27.5436229879
5.5333131955 10.8616284152 28.0334336037
5.0902329760 11.8984558259 15.5385483332
5.1776588973 12.4611777699 14.9342916532
5.6766519853 11.8454169882 15.2297704421
5.7113287281 11.2350496204 15.8419900255
4.9727591592 11.3702002626 16.2582539562
5.1734255045 11.5033699647 28.5461502523
4.8971532587 12.0016885046 28.9844160846
5.7212937810 11.8256743305 29.3202776196
5.1940222053 13.2443814881 14.2885719131
5.2163526639 12.4523795966 29.8006491765
5.4707809471 12.8560184761 30.5186959380
5.0074730204 14.1460470776 13.8327034001
5.5029968263 13.9810375652 13.4420477885
5.3678710973 13.6137314370 13.8051839910
5.4145052816 13.3822572002 30.9866732664
5.2975432583 14.0909076698 31.4796862919
5.3052034421 14.6265087710 13.3029528907
5.7287943452 14.8217691272 12.8501311161
5.6077708052 14.3566452937 13.1134819839
5.2507963475 14.6449582719 31.7713793264
4.9316923156 15.3252802455 31.8455758496
5.7211294725 14.9582936377 32.0785881450
5.4272295165 15.2818177813 13.0929634191
5.5155878754 16.0227694215 13.3062330146
4.5830064844 16.1077008009 31.9111050446
5.4010877545 15.9562786147 32.2989171345
4.8236003760 16.8549861325 14.3677106253
5.3821443228 16.7602689005 13.9382801834
5.0952700098 16.9485487524 32.4885534238
5.7156330328 18.4663629449 8.9235723556
6.0592567347 18.4640186302 8.3409884962
5.9229609150 17.9540174576 8.6429816855
5.8014634112 17.9819264900 9.2164454373
5.6787131205 18.5170210908 9.3974076867
5.8186254609 18.2501061369 9.7157559871
5.2588189295 17.3116010942 14.5527726568
5.2273192834 17.7030755047 15.1455528014
5.7016486255 17.7190725693 14.8528207810
5.0086867370 17.8588722788 15.8829432680
4.8740104502 18.1578599873 17.0031302524
4.5509646160 18.3196120036 18.1874564125
5.0695532570 17.5204389821 32.5623722915
5.2171156589 18.1837914742 32.5265273515
5.8253395070 18.9212651980 8.7681240273
6.1939331671 19.2021407897 8.4371524522
5.7180210661 18.9356372430 9.2286340999
5.8859281285 18.9255465478 9.7958644513
5.6157532985 18.0436809138 15.5658261247
5.4567653979 18.2619659574 16.3045002302
5.5855189990 18.6153390532 16.9917025878
5.2157419470 18.7898612136 17.8716104900
5.7406257957 18.9889456415 17.5894508439
4.9314427649 19.0827116599 19.1500771213
4.6094399957 19.3384389493 20.3812412757
4.3445694873 19.3749479070 21.1125282908
5.7819801231 19.2842613487 26.8155580475
5.9106267344 19.1616474964 26.7015327918
5.8559598571 19.4060863145 26.6955591468
5.8903531403 19.2105953901 26.9947065262
5.7237849306 18.4960912154 32.5572253953
5.3982525194 18.7271542998 32.3494299838
6.0089938274 19.3564333944 8.9974171902
5.8621305803 19.2159905690 9.4295339941
5.7501262619 19.2973237960 18.4279789573
5.5978941700 19.6876353889 19.3744902473
5.2532103020 19.9844258933 20.3025384722
5.9689469480 20.1303213164 19.9510695181
4.7218308878 20.0792123982 21.3362746263
5.8356862630 19.4550342082 26.9887328811
4.8296495637 20.2129302270 31.4329897748
5.2844853934 19.5698362216 31.9160755445
5.8160779008 20.5875573872 20.7418923198
5.3313905070 20.7098766363 21.3185150490
5.8048293498 21.0038171917 21.3552116825
4.9662637105 21.0152278679 22.3620649495
4.6534694617 21.3342084114 23.4107474865
5.5729765492 21.4033273621 27.6996907461
5.6645250420 21.2267486161 27.5739423109
5.6030636657 21.4621410820 27.5540185208
5.5677512704 21.3522583764 27.8882627404
4.7757837180 21.0971172863 30.5893971745
5.2684635209 20.6856915090 30.6878507205
5.0067439275 21.1916053362 30.2227801206
5.5864504755 20.1226359638 31.3939095208
5.6453214934 21.2608607001 21.9563113500
5.5715084528 21.5935067642 22.6405882527
5.2381859134 21.7453912370 23.2865968301
5.8541098896 21.9580999496 23.2136393997
4.8967941598 21.9173469570 24.2250400589
4.7412554425 22.2553412459 25.1949945558
5.5321766027 21.5415499339 27.7459730681
4.7092733451 22.7930035776 28.3419235282
4.4651727594 22.4788578113 28.9623739429
4.9524769182 22.0152706601 28.8360299426
4.9854537486 21.5127071246 29.5745852668
5.5939191593 22.1573873089 23.9475153799
5.3965708467 22.3329924993 24.8235239097
5.1478391179 22.5571527237 25.5889969688
5.1306333254 22.8383458756 26.3119731402
4.4742554396 23.5244134434 27.9143069663
4.7898072387 23.2969872846 26.8417965052
4.1858733709 23.9290734920 27.7118138562
4.6243435414 23.5324658323 27.3458922902
6.6934977557 2.4743211149 23.0230201928
6.8134154354 2.3770215194 22.6917372370
6.9257237877 1.9735412912 22.6628569082
6.8451507982 2.0333036813 23.0474858354
6.7081576053 2.5414741201 23.3549297490
6.9159806557 2.1987501081 23.3457994096
6.6895081825 2.7895008286 22.9882813131
6.8870001108 2.6495225002 22.7470331026
6.5999903756 3.2722927090 23.6236896246
6.7729600131 2.8843140172 23.6524649603
6.7510527209 3.0961150118 23.1832692365
6.6729605934 3.4246511538 23.5746701501
6.5636298354 3.8872994012 24.0768070501
6.3388072740 4.5166134158 24.6823661426
6.5896749695 3.7375271030 24.1594450078
6.4035931886 4.4715138793 24.7251749437
6.3628531329 4.6283355780 24.7310310007
6.0317729093 5.6339742486 25.3451489168
5.9720108992 5.5038972268 25.4295324741
6.1992352422 5.0191330523 25.1525803259
5.9668250334 5.6490787757 25.5737232965
5.9305460483 6.8035414574 25.7100219900
5.9978733913 5.8735632740 25.5809504310
5.7342851520 6.3834812450 25.9127215088
6.0916143501 8.2308245139 19.4573980495
6.5846394583 8.2550821522 19.1307257051
6.5033981546 7.9913229019 19.5482300678
6.3848769815 7.9702596761 19.8231206441
6.1853060734 8.0752877845 19.9469885967
6.4947217545 8.1132771086 20.2771611452
5.9692839523 7.5971660498 25.3055489489
6.1720566284 7.4643510277 25.5917673278
6.2816050222 7.7852080552 25.9251345644
6.1460372189 8.5734202061 18.6771151146
6.3478020497 8.8520847859 18.1955459771
6.5561745568 8.5639811757 18.5591556516
6.6623153011 8.3912477472 21.2449425345
6.1336751308 8.6091835418 21.6668863751
6.5922282554 8.5037145879 22.1343699363
5.9412325954 8.2340784530 24.7365386787
6.1321444662 8.4691055196 24.1726704121
6.6675722107 8.1231333694 24.6561790778
6.5585726693 8.5286842445 26.3832263174
6.2332211878 10.1725705382 16.8546587228
6.5317309581 9.3991091878 17.7156710965
6.0482794327 8.7319224945 22.3605288000
5.9271149967 8.7560109744 23.3699956275
6.1520109755 9.0738600617 26.6995492974
6.6997293919 9.6178379451 27.2926298963
6.0419977277 10.6839482658 16.2485577411
6.2824010297 10.9505748876 15.9416666298
6.4577026763 10.6167564949 16.3160032570
6.1905881041 10.2129275849 27.6860264098
6.7263189781 10.6752416110 28.3883947204
5.9769971609 12.4105867992 14.6124662752
6.4543388573 11.5385518999 15.4812813467
6.2994421575 11.2957964511 28.9371252909
6.4743100896 11.7290720123 29.5791071060
5.8683337608 13.2856382133 13.7836549100
6.4457419262 13.3514588193 13.4920882275
6.5628474440 12.7994611796 14.0805517263
6.2404250345 12.1482763744 29.9838148501
6.0400217717 12.6372155487 30.4992036201
5.8395445657 12.9635434572 30.8188231891
6.4070188319 13.1529077338 31.0928414741
6.0651147788 14.0598072039 13.0441649222
6.5518513147 14.2970984092 12.6393591744
6.7106172301 13.7503393922 13.1033241849
6.0311412261 13.8137936086 31.5715061944
5.7384957721 14.3381081338 31.8433577695
6.3771949911 14.4078063745 31.9854108416
6.2598128061 14.9585683867 12.3600482685
6.5773050707 15.3514851642 11.9153376284
6.7420838116 14.7452621055 12.2916322627
6.5972782062 15.2750951463 32.3005739872
6.9504897805 16.0324157949 4.6888878563
7.0899802922 16.1825489026 4.1380072529
7.0423477168 15.8648099942 4.3899040053
7.1296625494 15.8409405375 5.0797303613
6.9456065299 16.1264027259 5.1021623466
7.0638804135 16.3151719045 5.7188917944
6.4646618436 16.8363255551 9.7307288505
6.5796964642 16.6785637082 8.9902584237
6.8254367946 16.4972119960 9.3021220933
6.8648038923 16.6833471915 9.9057268422
6.3478360364 15.9006944530 11.7300400795
6.6505785560 16.0554437189 11.4695688860
5.9605085239 15.6689543080 12.4832381222
6.1215424515 15.8445699767 32.4839083253
5.4810620867 16.4233201835 32.5521331833
7.0330595834 16.2486021134 4.7964477218
6.9991291659 16.2828176661 5.2474564309
6.4958414144 17.0865689782 8.0494085166
6.7615821842 17.0437188447 7.4213137262
6.7268965355 16.8664231414 7.8336389207
6.6885819557 16.7436135792 8.3461170376
6.2235013028 17.2690003544 8.8274540562
6.0605203769 17.5700581440 9.7614766406
6.5956269117 16.6283814201 10.5415674774
6.3700425029 16.9850296058 10.7307491305
6.4023391411 16.4217642285 11.6201405922
6.5347033489 17.2461402098 10.8318487742
6.2400809131 16.2047478067 12.6906428647
6.0621054212 16.6207962069 13.5734656935
5.2320321924 16.9677640495 32.6136920357
6.3156497912 17.6466988413 8.0305513091
6.7439893212 17.5559040089 7.3925562887
6.1006954435 18.2649622026 10.2265056819
6.4380955809 18.0388193585 10.5208489586
5.8623360512 17.2336707958 14.2544783343
6.1619935071 17.5925456691 14.7044562884
6.4922225709 18.5220476710 26.1853908950
6.8294933837 18.0916333357 25.8148643517
6.7163961119 18.7212223824 25.5310540196
6.2418183096 18.7872139489 26.8992005426
6.7852003897 17.9878174099 26.5992843840
6.4474127601 18.7140521785 27.6138703736
6.6374083355 18.2671420318 27.2876406375
6.7953483235 18.3185585881 27.8188308687
6.1476495839 18.6113574935 32.4240323595
6.1653339896 18.4686605514 32.5629721307
6.6077541721 18.3609005851 32.4091929482
6.4622272821 18.1286240444 7.8304809684
6.6175376404 18.7544531024 7.9877222555
6.1253098908 19.0340925968 10.2587206223
6.3232962173 18.8564008712 10.3977663250
6.0701662845 17.9448775891 15.2532658003
6.2737008232 18.2877750443 16.2201883967
6.0449786188 18.8290023095 17.0910794624
6.4450375802 18.7996685279 17.1092287202
6.2125409723 19.2829956717 26.2533404738
6.7455125379 19.6716751380 25.3226474266
6.0851999820 19.5040021059 27.6724040737
6.6766220062 18.8655952542 28.3560298869
6.1024741803 19.1490818998 32.0377431300
6.3909006194 19.6749347525 8.5601700968
6.7439641848 19.6777896410 8.1402402611
6.4961713134 19.6689986242 8.9710838076
6.1833461104 19.3941218318 9.6063557460
6.1769527843 19.3794739208 10.1258313844
6.3819282772 19.4511156524 10.0408096975
6.2801114292 19.3234507954 10.3478682063
6.1968353941 19.1039400188 17.6791936052
6.4724419522 19.3434098954 18.3451418882
6.2150941620 19.7172186933 19.1317967995
6.6128815717 20.0270664359 19.7639492401
6.2801697127 20.2923013141 26.0970745215
6.6765295482 20.6458446318 25.3790340601
5.9435815557 19.9627809097 26.8915624284
5.7799882121 20.7002764651 27.7818010460
6.3632512671 19.5965897927 28.7320809155
5.9326198229 20.3568968864 28.8554822585
6.3238920628 19.9179949967 29.4167055111
5.8991437225 19.7318112566 31.7405244733
6.3084542585 19.5604308884 31.6146329036
6.1062762775 19.9127572485 31.3712358021
6.8032484779 20.0253716369 8.3680927220
6.3282759769 19.4875697024 10.2713896272
6.4318799635 20.4632099720 20.4828172657
6.1125875078 21.2441900857 21.7240354648
6.2850694319 20.8973513051 21.1685049549
6.6344337248 21.1354645046 21.7563734953
6.3281234474 21.0601378206 25.9712110611
6.1667431129 21.7113204324 26.0806591681
5.8739135719 21.1905244543 26.9243603784
5.4661302719 21.2784202201 28.6571738595
5.9469207724 20.3703721359 29.9603515419
5.4644689706 20.9472683284 29.6997859653
6.0226994767 20.1585506769 30.8050663593
6.2597369819 21.5675413186 22.4897923868
6.3638748026 21.9231954764 23.2841031530
5.6413471616 22.3153208876 26.6326136252
6.0449407618 22.1384051965 25.9562405609
5.4124624382 21.8980168485 27.7996664501
6.1042245949 22.1529488261 23.7468103201
6.0390693143 22.2319154631 24.4564519244
5.8303812597 22.3539295407 25.5232757903
5.1277295923 23.0546154887 26.9296855336
5.0769307204 22.9105215334 27.5048845026
7.2244091754 1.6045380423 22.3629904771
7.3520194688 1.5241670862 22.1721930404
7.3750302476 1.5023450271 22.3215205002
7.3097834118 1.4960533231 22.6180928209
7.0836665614 1.6428534698 22.7715746053
7.2140955830 1.5704265341 22.9404324048
7.0383552017 1.7684421788 23.0978071062
7.1776345237 1.8587115854 23.1811307667
7.2951779384 1.6464512065 22.1981575469
7.1222773364 2.0503414303 22.4520744998
7.0624089779 2.4392969961 23.4260853613
7.1064609188 2.5272536701 22.7050271503
6.9588879419 2.9066697941 22.9690063581
7.1215651089 2.7411493047 22.9954344659
6.8594422098 3.1866524941 23.7559311847
6.8524671166 3.2829870769 23.5051023161
6.5731664557 4.0497474482 24.3218719702
6.2421976723 5.0359733441 25.1056263289
6.7378021509 8.0573217712 19.5184042202
6.7386025317 8.0396716575 19.8772547974
6.4595207326 7.7856351398 25.3770678916
6.7210141705 8.8704981236 18.2641062346
6.9563729794 8.6701192635 18.8162751689
7.0751983385 8.3986779500 19.5893288244
7.2109134439 8.3894246338 20.5232074216
7.7660383851 8.5458423957 21.6153147735
7.4482411750 8.4120291324 22.5489223803
6.6842472188 8.5085784961 22.9769225575
7.4006119070 8.3091123262 23.8162534216
6.5879308128 8.4276719786 23.7791918184
7.5431722620 8.2043037179 24.7499104623
7.1164687349 8.0901685875 25.3764460459
7.5244046779 8.4791005927 26.1204807319
6.8877532255 9.9821209397 17.2776748229
7.1492943246 9.7203587146 17.8341917425
7.1176842729 9.2334262533 18.3542838668
7.3106203273 9.0878263812 26.8866287948
7.5325193582 9.5753768457 27.4635736119
6.6854383133 10.9470000905 16.0766170825
6.9457582633 10.6091427512 16.7313853718
7.4493140274 10.0933753281 27.9737808126
7.5619597349 10.6382142644 28.6002983510
6.8298109341 12.2571683819 14.8306031496
7.1436149633 11.9022809125 15.5651607813
7.1149367871 11.3368234268 16.1889268420
7.2989168539 11.0815846404 29.0233290390
7.1135467666 11.5677033146 29.5603545015
6.9038241795 11.9549179541 29.9902974196
7.5509295425 12.0112959384 30.1107696001
6.9525916350 13.2427568512 13.7192588897
7.1101161016 12.8005095517 14.3679875040
6.9715060157 12.5010634263 30.5431659595
7.4919647471 13.2955473338 31.1647642503
6.9761899283 14.2177741336 12.7853625388
7.1511199254 13.7600280648 13.3680846815
6.8797463007 13.8189835634 31.6537355699
7.1741130747 14.5272000005 32.0017892712
7.4467251295 15.5741686364 3.6504055371
7.5871643813 15.7013859052 3.1428286398
7.7844820433 15.4149204063 3.7270354706
7.6670077788 15.2934754914 4.2875862545
7.2886395865 15.5339827934 4.4052630390
7.5558094197 15.3447331832 4.7858264908
7.3607169799 15.4971868907 4.9313650036
7.6090519678 15.6537795083 5.3220690418
6.9055199328 15.2179180146 12.0682901031
7.0943134515 14.6899826327 12.5166196884
7.5311557331 15.2053379098 32.1197237267
7.4314495531 16.4075917262 2.1315130928
7.4922090546 16.6128431849 1.8022304974
7.5563918934 16.3784732968 2.0565085022
7.5711726186 16.0605993030 2.5612322293
7.3757146887 16.0959568730 2.8717980144
7.1972470162 15.9416248193 3.7204495686
7.2861931590 16.1714033504 5.9789775960
7.0847603092 16.5900392566 6.6826247137
7.2990657426 16.5618325468 6.8059007423
6.8490833386 16.4816206581 8.7949344386
7.0276032665 16.5499589281 8.4409629253
7.1024457205 16.4560843678 8.9379492151
7.0897328131 16.4878088767 9.3907213167
7.1931836768 16.7497408068 9.5228090688
6.9623906490 15.6011064475 12.1298096347
6.7157430442 16.1335055249 12.0810516106
6.7606728598 16.2692290478 13.2742994011
7.1116502713 15.6500465636 12.7624626392
7.1110440634 16.4480964060 14.1922436312
7.2861235973 15.7766653382 13.6119155962
7.4344422718 15.9983754167 14.3436803186
6.9338448621 15.7743435784 32.4289250623
7.3429434427 15.6930140767 32.3040143534
7.4214927095 16.8115334620 1.8849134396
7.5100752512 16.8679896195 1.7349714633
7.3569860612 16.6279703088 2.3448750034
7.3549124637 16.5967063417 3.0957907114
7.4188939546 16.3757889341 4.2793729564
7.6416866693 16.5579857868 3.3658499664
7.2412362629 16.4379095704 5.3955789525
7.0948575228 16.8907579865 6.5409350996
7.4363330314 16.6527724992 6.0878859749
7.0503126272 16.7362066112 7.6765151413
6.7128551814 16.7883302285 10.8347989435
7.1007369559 17.3241423020 9.8202846616
6.5354909105 17.0317741112 14.2692664218
7.3576774089 16.5007110514 14.7912642808
7.0407374448 17.1078663112 15.0039651996
7.3929175982 16.8363141130 15.3432541912
7.4974049257 17.2846756682 25.0479628210
7.8023310378 16.8787620442 24.6168258162
7.6575632550 17.5656292614 24.3678196822
7.2506321580 17.4383972528 25.8702546158
7.7948722515 16.6534198046 25.4456523692
7.2655104446 17.4092968405 26.7373248533
7.6874133246 16.8813162143 26.4769573060
7.5955242517 17.1661105597 27.2350785004
7.5716230188 16.2929518820 32.2248232331
7.4773654145 17.0783023291 1.8393869821
7.4156578699 17.0625758043 2.1964031873
7.5064616625 17.2281274156 2.0147204563
7.4667071713 17.1153981088 2.4829726503
7.5510320163 16.9162113014 2.7761569809
7.3089800506 17.0003830508 6.6110510614
7.1498294221 17.4162086190 7.1443503850
6.8119929097 18.0432535784 7.5942690899
7.1109510593 18.1606668192 7.7460682979
6.7686492252 17.9531627819 10.2798370133
7.0954325774 18.2567567825 9.6535017056
6.5220955262 17.6747629380 15.1555061156
7.2247213199 17.3422668866 15.6876998582
6.8660113084 17.7042891820 15.6651017838
7.0757459957 17.8386074146 16.2967462472
7.1900079526 18.0418760849 25.0606433423
7.5382789056 18.4754272627 24.2420407715
7.1308311037 17.7694192855 27.4592311728
7.1874454447 18.1309509455 28.3051014164
7.1863722600 17.9502958745 32.1809226661
6.8274045817 18.4955598087 32.0586817452
7.4872611302 17.2687861319 2.2015183744
7.1418274364 19.2649109992 8.0424033084
6.7580817625 19.1465479936 9.6303148539
7.2090750589 18.7985666861 9.2068693749
7.1729433245 19.3813767512 8.9211316495
6.5654281726 18.7218818826 10.2868865198
6.7244135353 18.9724670507 17.6771289240
6.8945231531 18.4630752410 17.0158281776
6.9581895503 19.1305625942 18.2567463580
7.1965850374 18.6401663224 17.7853546137
7.2836963253 18.9505069471 18.5198770633
7.1251812725 18.9442330768 24.8106930669
7.4567333537 19.2231679207 24.2566038902
7.1303429579 18.5715914689 28.9625699596
6.7724381945 19.2493755927 29.3785797118
6.9555793238 19.1819869318 30.3318765200
7.3192696901 18.5744862366 29.7410676093
7.0101268393 19.0309645837 31.0267798007
7.3839858587 18.5420541540 30.6269985635
6.7126153371 19.0973751846 31.5879891719
7.2339496771 18.5111185482 31.4028688709
7.1176445134 19.9544949258 7.9192946181
7.2518860026 20.2037687464 7.8652301468
7.2474013530 19.9248210588 7.9062263871
7.0137494779 19.8718601411 8.6569434722
7.2766939668 19.7611013811 8.4651058403
7.2604572313 20.1681147168 8.2077037195
6.4540464330 19.2738154679 10.2420003686
6.9110441885 19.4938199960 19.0133403057
7.1087535019 19.8022382648 19.7601002828
7.1981442248 19.6094958479 24.6435534834
7.1001085621 20.2823804629 24.7342699435
6.4667530128 19.8054853867 30.1599400350
6.5522197069 19.5991467893 31.0197930822
7.1029185036 20.2739008103 7.9589856216
7.2879587168 20.3926279845 7.8692777994
7.1502963561 20.3304018588 8.1219017814
6.9330339529 20.2092899041 20.2852371684
6.9490111443 20.5681943288 21.0468005392
7.1459280342 20.8438649481 21.8132817898
6.5359386179 21.4177017765 25.4333053964
6.9273037282 21.0862380167 24.7663281900
7.2484154779 20.4891397585 7.9019546429
6.9136616505 21.2484135445 22.3311826624
6.5472567146 21.9374137274 23.9086530963
6.9052468358 21.4731171729 23.1245394914
6.5205777484 21.8424125628 24.8197580394
7.0217047665 21.3809302543 24.0296170699
6.2842607496 21.9488153366 25.5683507464
7.3557046758 1.6939424375 22.3094576403
7.3952055407 1.6728185739 22.6118937123
7.3374545102 1.6280435879 22.8979979552
7.2850867751 2.1748951789 22.7209128930
7.3025241185 2.0206504953 23.0387650798
7.1420320104 2.6485245981 23.2533300364
7.5153234625 9.1859808834 19.2873541700
7.6152214447 8.8472746672 20.1189069988
8.0704822422 8.9897464761 20.9780391372
8.5723612696 8.9343491055 21.8673760270
8.5554296538 8.5997753704 22.6382391288
8.3652163184 8.4109781624 23.5697141709
8.2852416290 8.3468182584 24.5257314706
8.0677609116 8.3536858395 25.3551620838
8.7371835544 8.6923889812 26.0129149265
7.3748198456 10.3653732702 17.6006594332
7.5951891250 9.9883059489 18.5631757960
7.9119677894 10.0096017084 19.5163233476
8.0738977991 9.6241876749 20.2881028114
8.4653188128 9.6412713195 21.0435622925
8.6534329585 9.3797775225 21.5016894909
8.4585988224 9.0151931463 26.7568660742
8.1949103294 9.4456332809 27.3835542262
7.9576837882 9.7385675994 27.7162575242
8.5862147508 9.9628911512 27.9650465673
7.5584185574 11.3135816055 17.2237875243
7.7856532024 11.0015571191 18.3320494150
7.9970438418 10.8396526849 19.3485119639
8.2390701782 10.6326910836 20.2352127485
8.5479354060 10.3623772826 20.9763696343
8.2626296786 10.5385363950 28.5539421620
7.9915158296 10.9646276056 28.9906397788
8.7120005396 11.2368861545 29.0859397192
7.4477905794 12.6607703050 15.2301982292
7.5969156498 12.1519256111 16.3892116020
7.8299705029 12.2119487620 17.4152179610
7.9101873039 11.9738020721 18.2261434897
8.0563522367 11.8456557781 19.2382027565
8.2869025030 11.7672135165 20.3420328050
8.5646653186 11.3160075373 21.0517561161
7.9723862640 11.5413848597 29.5576080783
8.1699007556 12.1545283325 30.1243290117
7.4724150908 13.5456182066 14.2985893368
7.7451971416 13.4587261428 15.3661472467
7.8095990093 13.1559305896 16.2122938159
7.9071502372 12.9913989647 17.2192324003
7.9984777611 12.8836289026 18.1576646674
8.0955332500 12.8209900796 19.0945133685
8.2415045704 12.8072066586 20.1225050099
8.5334641758 12.1169230920 21.2308283026
8.4428072333 12.8468682210 21.1694701008
8.6366157995 12.6225755719 21.7487059527
7.8741251538 12.6130238902 30.5904557636
8.1951143486 13.2283139166 30.8571640816
7.3840419154 14.4599757616 13.3274715231
7.6692630228 14.4635639709 14.3558331678
7.8034153244 14.2329217251 15.1920427274
7.9122110204 14.0968129146 16.1630166727
7.9830607008 13.9680543888 17.1541402756
8.0606239348 13.8295860440 18.1320574749
8.1252132910 13.6131237201 18.9026156288
8.2734246783 13.8612190972 19.8913578806
8.4045578087 13.6865974486 20.9098662064
8.6142333767 13.1777309084 21.9359364183
8.5332526094 13.6667082144 21.7175540926
8.6749872180 13.7613508830 22.3750167804
7.5657836314 14.0254875440 31.6539155814
8.1552427303 14.0273360204 31.2618375539
7.8334592094 15.7961497262 3.2386171482
8.0459558833 15.4810499021 3.9037178176
8.0192102058 15.2926609702 4.3260935818
7.8878346947 15.3031179279 4.8069550452
8.0209853037 15.4966149983 5.0957658847
7.2065848154 15.0892071464 12.5887283260
7.3842952059 15.1996652452 13.2186535924
7.5698508937 15.2634416741 14.1148366358
7.7797698276 15.1592310331 15.1352554219
7.9092047507 15.0686185486 16.1208335899
8.0004753693 15.0013562716 17.1409395226
8.0992440495 14.9096653040 18.1797727406
8.2322400565 14.6683661679 19.2186831740
8.4055607394 14.8271693685 20.1336153423
8.4793176937 14.5462171794 20.8135849639
8.5500087366 14.3119198676 21.6154824825
8.5989493314 14.1142336887 22.0815547606
8.5213738210 15.4803821388 23.1369626609
8.4351911711 15.3990590719 23.9434078272
8.6185197781 14.8241875065 23.4246653811
8.4304083605 15.3741046246 24.7376577704
8.6678858451 14.7158407807 24.1937250971
8.6883850295 14.8633746000 24.9728620266
7.8499419524 14.6316648123 31.8032210356
8.2734878779 14.8225378020 31.4884863152
7.5964691328 16.6724016634 1.9118673725
7.7045979335 16.3578251108 2.4911615968
7.8491294071 16.2365095045 3.2778922285
8.0634766268 15.8111739605 3.8949282601
7.5623028910 16.3679499875 6.1387299082
7.8992099968 15.8355077650 5.3709132656
7.3001972559 16.7800400940 8.4959583301
7.2761591296 16.6093318073 9.1318493275
7.5997241684 16.1109592341 15.1218484068
7.7933003847 16.0717186791 16.1143772454
7.9338750363 16.0489901285 17.1385598260
8.0627460798 16.0230175756 18.1894850144
8.2504993564 15.9707739057 19.2923191556
8.4296172621 15.5970192884 20.0332748734
8.3173535054 16.0255988656 23.6694961023
8.4373987672 16.3529772243 23.0067847256
8.1344210725 16.1347986055 24.5098280355
8.5178354413 15.3390987431 25.3750077557
8.2358087860 15.8855188729 25.3796139677
8.4578926224 15.6238682691 25.9026833221
8.0457078016 15.2247968542 31.8309169048
7.9076003380 15.8877632526 31.9492725708
7.5692006360 17.0280984323 1.9008199577
7.6569953205 16.8162249555 2.1907303175
7.6929603512 16.7175203056 2.7069863919
7.8696386833 16.1869218399 4.0794193508
7.7719544064 16.1801197801 5.1185075430
7.4168408657 16.9299858487 6.7021070238
7.3622607322 17.1509491623 7.5085742269
7.4386681647 17.4015914586 8.5244502228
7.3590439405 17.0807702648 9.1378672508
7.5134234324 17.0426586228 16.1135618489
7.7423060331 17.0656625861 17.1380954870
7.9220473395 17.0989004157 18.1935295227
8.1217345405 17.0828206985 19.2333252800
8.4431873137 16.3711220514 20.1482275585
8.3448151505 17.0370707039 20.0925411769
8.5179555415 16.8992628878 20.6463081828
8.0904542763 16.8777217742 23.8029416032
8.3491013529 17.3341937889 22.9516054220
8.1477182905 16.2121512642 26.2090093555
7.7487863204 17.3460693201 28.1320345084
8.1289065816 16.5296474420 27.2708753949
8.0942178207 17.2643216859 29.1141661132
8.3455097608 16.6038468908 28.3841281340
8.4575961992 16.6878128812 29.2047001990
8.0385079002 17.2186585363 31.0562689122
8.4132793342 16.5998165212 30.6739389049
8.2898988074 17.0574533241 30.3211534391
7.8707897567 16.8098841345 31.8217547947
8.2613984120 16.3296067009 31.3135705659
7.5916578423 17.2141764286 32.0974955098
7.5762512431 17.1188925274 2.2852646926
7.3659977213 18.1798024121 8.2575114618
7.3540788979 18.0041459772 9.0667084060
7.3953580168 17.9025603387 17.0900193974
7.6102484623 18.1594921653 18.1958526799
7.8921472596 18.1436850657 19.2865694021
8.1891964245 18.1098061246 20.3607128030
8.4596954316 17.6306243367 20.8910707111
7.9739295476 17.9583923659 23.6092023593
8.2667866861 18.3252861195 22.8705774887
7.5910007910 17.9571550043 29.0606077744
8.3038196701 17.0781748471 29.7415427652
7.8772411658 17.7451257717 30.1031239097
7.6605203312 17.9845228531 31.0317953149
7.5371029571 17.7560359828 31.7466553462
7.3329768336 19.0829289755 8.5773177689
7.4801141639 19.1215910969 19.3620332240
7.8192807881 19.1231685133 20.3780449314
8.3759585124 18.3749337159 21.2133071452
8.1183052648 19.1113267519 21.4178824265
8.3903965415 18.7036234968 21.7378588939
7.8483064466 19.1446001938 23.4967986027
8.1912799078 19.0513105692 22.6786547863
7.3172603728 19.9808573960 8.0575361822
7.3673859099 19.8770413141 20.3814185625
7.5809691271 20.0904442686 21.4464284921
8.2567571111 19.1170869142 22.1443536745
7.8736649419 19.8456830741 22.5818023009
7.6642701785 20.1229533651 23.5565709267
7.4823390104 19.8758294222 24.1453759096
7.3017602858 20.3974359289 7.9621122594
7.3783072105 20.7979401824 22.4520607507
7.4404591799 20.7929371176 23.3329637423
7.3424661142 20.6510967883 24.1181801511
9.0557303196 8.9745370937 22.4849080295
9.2446203322 8.8534852459 23.0202420416
9.1472553246 8.6618674914 23.5715370313
9.0863255354 8.5800235830 24.3885174369
8.9689579248 8.5844193797 25.2312661471
9.5448311306 8.8831980925 25.8448520247
8.8794282832 10.0399817844 21.5933287416
9.1347531706 9.5531649156 22.1819383224
9.6162499327 9.1091404703 26.6144778156
9.1911746904 9.4854324508 27.3703131953
9.7256788952 10.1400533749 27.9820457416
8.9755651353 11.0381168818 21.8036164308
9.3144738230 10.4609964226 22.2844698731
9.1114625000 10.6030120618 28.5238561437
9.3929758706 11.2166330050 28.7889594504
8.7967865240 12.0005514209 21.8198206585
9.3657535444 11.1982148914 22.5039102827
9.1942129950 11.9768877543 22.6319319167
9.5161824876 11.6064103531 23.0138459546
8.6587508972 12.0842131290 29.7240087628
9.2873185861 12.0383335213 29.1297554588
8.8533916099 12.9244058980 22.4995061593
9.4699297167 12.1544648004 23.3588645841
9.2136347652 12.9360603267 23.5559380567
9.5408931102 12.4825198544 23.9294261584
8.9876065917 13.0175945335 29.7818968311
9.3772239922 12.8908672786 29.0736015067
8.4847570990 12.7508416460 30.3393371106
8.8229862091 13.9661286942 23.3346651743
9.4291017772 13.0372283140 24.4187165914
9.0526629747 13.9777794475 24.7059310289
9.2221808138 14.0988084933 26.0295665409
9.5099946659 13.2468961074 25.2833423201
9.3166434300 14.1154112761 27.1412816736
9.6327638629 13.2938798263 26.3630333079
9.3187995430 14.0500123401 28.1950423656
9.6712047549 13.2491192891 27.4548845968
9.1938257509 13.8412645128 29.2249102083
9.5638911883 13.1443663190 28.4274923542
8.9206949575 13.9987235884 30.0954150078
8.6252515064 13.6058208202 30.5796752999
8.1897093569 15.5212488840 4.4017092315
8.1487014098 15.3760907272 4.7547084150
8.5614874178 15.4095975138 20.7755108585
8.6173949574 15.1247573557 21.5749420761
8.6420035284 14.6626365167 22.4929464778
8.7896863376 14.9419083044 25.7970576065
8.9500222598 14.9451490377 26.8724017245
9.0290822881 14.9612952253 27.9435347802
9.0369362030 14.8810413897 28.9648658111
8.9177973430 14.8144758161 29.9099574985
8.6178210431 14.6630363836 30.8078387072
8.1068030590 15.8605710430 4.5020473233
8.1311700632 15.6733976308 4.9183256297
8.5754993917 16.2517957384 20.7319400391
8.6476481557 16.0615706280 21.4882818388
8.6156498519 15.7315383236 22.3130229216
8.5478661640 15.6869144979 26.6387705578
8.6594048140 15.7860926684 27.6673934053
8.7449423895 15.8793938895 28.8258454602
8.8266904486 15.5875618386 29.6507800563
8.6257455768 15.7422338835 30.5646141106
8.3551575657 15.4799505906 31.3955447948
8.6006528910 17.0752869333 21.4000413647
8.5831539715 16.7226129200 22.2247439925
8.5734907217 16.4222833976 29.8813759408
8.5152749483 18.0569771825 21.6235374193
8.5162232536 17.7112976230 22.2218970017
8.4173008864 18.5492921290 22.2270508577
9.4983385552 9.3544742884 22.9517543700
9.6450646136 9.1417751502 23.6608710066
9.6117412379 8.9252059643 24.2659694766
9.7761665827 9.0110927966 25.1381102487
9.6210781978 10.1402047471 22.9327334694
9.8865556700 9.9185475668 23.7386379829
10.0626727201 9.6139883630 24.6130060333
10.3607149835 9.6195802586 25.4626679896
10.3471847163 9.2902855380 26.1324210114
10.3538347433 9.2319122796 26.7189320242
10.3051245548 9.5134076684 27.2943838513
10.5085375994 10.1155558118 27.7713627814
9.6252173387 10.9809000690 22.9946290180
9.8972197178 10.8442287987 23.7672471058
10.2126681517 10.7088985705 24.7595917957
10.5044785119 10.2955026540 25.4132994771
9.7256230076 10.8270385946 28.4385265836
10.2373552889 10.7864916904 28.0985235691
9.7220269189 11.7480846496 23.7389960386
9.9940713756 11.6691741080 24.6704588434
10.5164062339 10.9899813307 25.5981192904
10.2911243821 11.6616690110 25.6922129138
10.6022016001 11.3530236002 26.1071586009
9.8750218475 11.5682606362 28.4564391783
10.4243776765 11.4205452910 27.8166180248
9.7134189860 12.4671071436 24.5969822825
9.8975533313 12.4898104998 25.5521352776
10.4835934277 11.7598628522 26.4809397531
10.0935245569 12.4094704363 26.6732490182
10.0062854863 12.3155216549 27.8466009124
10.4802390274 11.7855414594 27.1649310342
9.6626164454 12.4011164835 28.6314464036
10.8458733390 9.2556491813 26.7782627319
11.0608978004 9.2332347109 26.6447081060
11.0975240681 9.1362428525 26.7821601639
11.0440397121 9.2031892256 26.9489658162
10.7783938864 10.0655420671 26.0872460505
10.9112655292 9.5637356000 26.4167243050
10.8492228810 9.4754003093 27.2711432866
10.7175102241 9.7273485436 27.5440362904
10.7493839560 10.8174972341 26.0855102203
11.0425707948 10.2395690459 26.5007230334
10.9797526174 10.7469640492 26.6724520621
10.8048559833 9.9812347264 27.6293574274
11.1114786161 10.6229705912 26.8082954179
10.7244611973 10.7282219902 27.6907584432
10.7460233956 11.3200264793 26.6533628031
11.0050730927 10.8435768269 27.1581408193
10.8087759395 11.1786622712 27.2478223557
3 2 1 0
3 4 3 0
3 0 3 2
3 4 5 3
3 8 7 6
3 10 9 6
3 6 9 8
3 9 10 1
3 10 0 1
3 10 11 0
3 0 12 4
3 0 11 12
3 5 4 13
3 13 4 12
3 6 7 14
3 14 7 15
3 6 16 10
3 6 14 16
3 10 17 11
3 10 16 17
3 11 18 12
3 11 17 18
3 13 12 19
3 12 20 19
3 12 18 20
3 20 21 19
3 15 22 14
3 24 23 22
3 23 14 22
3 23 16 14
3 16 25 17
3 16 23 25
3 17 26 18
3 17 25 26
3 18 27 20
3 18 26 27
3 21 20 28
3 20 29 28
3 20 27 29
3 29 30 28
3 23 24 31
3 31 24 32
3 23 33 25
3 23 31 33
3 25 34 26
3 25 33 34
3 26 35 27
3 26 34 35
3 27 36 29
3 27 35 36
3 30 29 37
3 37 29 36
3 32 38 31
3 31 38 33
3 33 38 39
3 33 39 34
3 34 39 40
3 34 40 35
3 35 40 41
3 43 42 41
3 42 35 41
3 42 36 35
3 37 36 44
3 44 36 42
3 43 45 42
3 42 45 44
3 48 47 46
3 46 49 48
3 46 47 50
3 50 47 51
3 49 46 52
3 46 53 52
3 46 50 53
3 53 54 52
3 57 56 55
3 59 58 55
3 55 58 57
3 59 60 58
3 63 62 61
3 65 64 61
3 61 64 63
3 64 65 56
3 65 55 56
3 65 66 55
3 55 67 59
3 55 66 67
3 60 59 68
3 59 69 68
3 59 67 69
3 71 70 69
3 69 70 68
3 71 72 70
3 61 62 73
3 73 62 74
3 61 75 65
3 61 73 75
3 65 76 66
3 65 75 76
3 66 77 67
3 66 76 77
3 77 1 2
3 69 77 2
3 67 77 69
3 69 2 3
3 69 3 71
3 79 78 5
3 5 78 3
3 78 72 3
3 72 71 3
3 81 80 79
3 79 80 78
3 81 82 80
3 73 74 83
3 83 74 84
3 73 85 75
3 73 83 85
3 85 7 8
3 76 85 8
3 75 85 76
3 76 8 9
3 76 9 77
3 77 9 1
3 13 86 79
3 13 79 5
3 79 87 81
3 79 86 87
3 82 81 88
3 88 81 87
3 84 89 83
3 91 90 89
3 90 83 89
3 90 85 83
3 90 15 7
3 90 7 85
3 19 86 13
3 86 19 21
3 92 86 21
3 87 86 92
3 88 87 93
3 93 87 92
3 91 94 90
3 94 96 95
3 94 95 22
3 90 94 22
3 15 90 22
3 95 24 22
3 28 92 21
3 98 97 30
3 30 97 28
3 97 93 28
3 93 92 28
3 98 99 97
3 95 96 100
3 100 96 101
3 100 32 24
3 100 24 95
3 37 102 98
3 37 98 30
3 99 98 103
3 98 104 103
3 98 102 104
3 104 105 103
3 101 106 100
3 106 108 107
3 106 107 38
3 100 106 38
3 32 100 38
3 109 39 38
3 109 38 107
3 110 40 39
3 110 39 109
3 111 41 40
3 111 40 110
3 111 43 41
3 44 112 102
3 44 102 37
3 102 113 104
3 102 112 113
3 105 104 114
3 114 104 113
3 108 115 107
3 107 115 109
3 109 115 116
3 118 117 116
3 117 109 116
3 117 110 109
3 110 119 111
3 110 117 119
3 120 45 43
3 111 120 43
3 119 120 111
3 112 44 45
3 120 112 45
3 121 112 120
3 123 113 122
3 113 121 122
3 113 112 121
3 113 123 114
3 118 124 117
3 117 124 119
3 119 124 125
3 119 125 120
3 120 125 126
3 120 126 121
3 121 126 127
3 121 127 122
3 130 129 128
3 128 131 130
3 128 129 48
3 129 47 48
3 129 132 47
3 134 133 49
3 49 133 48
3 133 131 48
3 131 128 48
3 134 135 133
3 137 51 136
3 51 132 136
3 51 47 132
3 139 138 136
3 138 134 136
3 49 136 134
3 136 49 137
3 52 137 49
3 137 52 138
3 138 140 137
3 139 140 138
3 138 52 134
3 140 139 54
3 139 135 54
3 134 52 54
3 134 54 135
3 143 142 141
3 145 144 141
3 141 144 143
3 145 146 144
3 149 148 147
3 147 150 149
3 153 152 151
3 155 154 151
3 151 154 153
3 157 156 155
3 155 156 154
3 156 157 142
3 142 157 141
3 157 56 141
3 56 57 141
3 141 57 58
3 141 58 145
3 159 158 60
3 60 158 58
3 158 146 58
3 146 145 58
3 161 160 159
3 159 160 158
3 161 162 160
3 165 164 163
3 165 163 148
3 163 147 148
3 163 166 147
3 150 147 167
3 147 168 167
3 147 166 168
3 167 168 152
3 168 151 152
3 168 169 151
3 169 62 63
3 155 169 63
3 151 169 155
3 155 63 64
3 155 64 157
3 157 64 56
3 68 159 60
3 159 68 70
3 159 70 161
3 171 170 72
3 72 170 70
3 170 162 70
3 162 161 70
3 171 172 170
3 164 173 163
3 175 174 173
3 174 163 173
3 174 166 163
3 177 168 176
3 168 174 176
3 168 166 174
3 179 178 177
3 178 168 177
3 178 169 168
3 178 74 62
3 178 62 169
3 78 171 72
3 180 172 171
3 78 180 171
3 80 180 78
3 80 82 180
3 180 82 181
3 184 183 182
3 186 185 182
3 182 185 184
3 186 187 185
3 175 188 174
3 174 188 176
3 178 179 189
3 189 179 190
3 189 84 74
3 189 74 178
3 88 192 191
3 181 88 191
3 82 88 181
3 192 193 191
3 183 194 182
3 182 194 186
3 186 194 195
3 186 195 187
3 198 197 196
3 200 199 196
3 196 199 198
3 199 200 190
3 200 189 190
3 200 201 189
3 202 89 84
3 189 202 84
3 201 202 189
3 202 91 89
3 93 203 192
3 93 192 88
3 193 192 204
3 204 192 203
3 196 197 205
3 205 197 206
3 196 207 200
3 196 205 207
3 209 201 208
3 201 207 208
3 201 200 207
3 211 210 209
3 210 201 209
3 210 202 201
3 212 94 91
3 202 212 91
3 210 212 202
3 212 96 94
3 97 203 93
3 214 213 99
3 99 213 97
3 213 204 97
3 204 203 97
3 214 215 213
3 206 216 205
3 205 216 207
3 207 216 217
3 207 217 208
3 211 218 210
3 210 218 212
3 212 218 219
3 96 212 219
3 220 96 219
3 101 96 220
3 103 214 99
3 103 105 214
3 105 215 214
3 105 221 215
3 106 101 222
3 101 223 222
3 101 220 223
3 222 108 106
3 114 221 105
3 114 224 221
3 223 225 222
3 222 225 108
3 225 115 108
3 225 226 115
3 226 228 227
3 116 226 227
3 115 226 116
3 227 118 116
3 122 229 123
3 229 230 123
3 230 114 123
3 230 224 114
3 228 231 227
3 227 231 118
3 231 124 118
3 231 232 124
3 232 234 233
3 125 232 233
3 124 232 125
3 235 126 125
3 235 125 233
3 236 127 126
3 236 126 235
3 229 122 127
3 236 229 127
3 237 229 236
3 230 229 238
3 238 229 237
3 233 234 239
3 239 234 240
3 233 241 235
3 233 239 241
3 243 236 242
3 236 241 242
3 236 235 241
3 236 243 237
3 237 243 244
3 237 244 238
3 239 240 130
3 240 129 130
3 240 245 129
3 239 130 131
3 246 239 131
3 241 239 246
3 242 241 247
3 247 241 246
3 245 132 129
3 248 132 245
3 246 131 133
3 251 250 249
3 250 251 135
3 251 247 135
3 246 133 135
3 246 135 247
3 248 252 132
3 132 252 136
3 250 139 249
3 139 252 249
3 139 136 252
3 139 250 135
3 255 254 253
3 253 256 255
3 254 257 253
3 253 257 256
3 260 259 258
3 262 261 258
3 258 261 260
3 262 263 261
3 266 265 264
3 268 267 264
3 264 267 266
3 270 269 268
3 268 269 267
3 272 271 270
3 270 271 269
3 274 273 272
3 272 273 271
3 142 143 274
3 143 273 274
3 143 275 273
3 144 258 259
3 275 144 259
3 143 144 275
3 258 144 146
3 276 258 146
3 262 258 276
3 263 262 277
3 262 278 277
3 262 276 278
3 278 279 277
3 282 281 280
3 282 280 265
3 265 280 264
3 280 148 264
3 148 149 264
3 264 149 150
3 283 264 150
3 268 264 283
3 283 152 153
3 270 283 153
3 268 283 270
3 270 153 154
3 270 154 272
3 272 154 156
3 272 156 274
3 274 156 142
3 158 276 146
3 276 158 160
3 276 160 278
3 285 284 162
3 162 284 160
3 284 279 160
3 279 278 160
3 285 286 284
3 289 288 287
3 291 290 287
3 287 290 289
3 290 291 281
3 281 291 280
3 291 164 280
3 164 165 280
3 280 165 148
3 167 283 150
3 283 167 152
3 170 285 162
3 293 292 172
3 172 292 170
3 292 286 170
3 286 285 170
3 295 294 293
3 293 294 292
3 295 296 294
3 287 288 297
3 297 288 298
3 287 299 291
3 287 297 299
3 300 173 164
3 291 300 164
3 299 300 291
3 300 175 173
3 176 301 177
3 301 179 177
3 180 293 172
3 293 180 181
3 302 293 181
3 295 293 302
3 296 295 303
3 295 304 303
3 295 302 304
3 304 305 303
3 308 307 306
3 308 306 298
3 298 306 297
3 306 183 297
3 183 184 297
3 297 184 185
3 297 185 299
3 299 185 187
3 309 299 187
3 300 299 309
3 310 188 175
3 300 310 175
3 309 310 300
3 301 176 188
3 310 301 188
3 311 301 310
3 311 190 179
3 311 179 301
3 191 302 181
3 302 191 193
3 312 302 193
3 304 302 312
3 305 304 313
3 313 304 312
3 306 307 314
3 314 307 315
3 316 194 183
3 306 316 183
3 314 316 306
3 317 195 194
3 317 194 316
3 309 187 195
3 317 309 195
3 318 309 317
3 318 197 198
3 310 318 198
3 309 318 310
3 310 198 199
3 310 199 311
3 311 199 190
3 204 319 312
3 204 312 193
3 313 312 320
3 320 312 319
3 315 321 314
3 323 322 321
3 322 314 321
3 322 316 314
3 316 324 317
3 316 322 324
3 317 325 318
3 317 324 325
3 325 206 197
3 325 197 318
3 208 326 209
3 326 211 209
3 213 319 204
3 328 327 215
3 215 327 213
3 327 320 213
3 320 319 213
3 328 329 327
3 323 330 322
3 322 330 324
3 324 330 331
3 324 331 325
3 325 331 332
3 325 332 206
3 332 216 206
3 332 333 216
3 333 335 334
3 217 333 334
3 216 333 217
3 326 208 217
3 334 326 217
3 336 326 334
3 337 218 211
3 326 337 211
3 336 337 326
3 338 219 218
3 338 218 337
3 338 220 219
3 221 339 328
3 221 328 215
3 329 328 340
3 340 328 339
3 335 341 334
3 334 341 336
3 336 341 342
3 336 342 337
3 337 342 343
3 345 344 343
3 344 337 343
3 344 338 337
3 344 223 220
3 344 220 338
3 224 346 339
3 224 339 221
3 340 339 347
3 347 339 346
3 344 345 348
3 348 345 349
3 350 225 223
3 344 350 223
3 348 350 344
3 351 226 225
3 351 225 350
3 351 228 226
3 353 352 346
3 224 353 346
3 230 353 224
3 346 352 347
3 349 354 348
3 348 354 350
3 350 354 355
3 357 356 355
3 356 350 355
3 356 351 350
3 358 231 228
3 351 358 228
3 356 358 351
3 359 232 231
3 359 231 358
3 359 234 232
3 238 353 230
3 238 360 353
3 357 361 356
3 356 361 358
3 358 361 362
3 364 363 362
3 363 358 362
3 363 359 358
3 363 240 234
3 363 234 359
3 366 365 243
3 366 243 242
3 243 367 244
3 365 367 243
3 238 244 360
3 360 244 367
3 363 364 368
3 368 364 369
3 368 245 240
3 368 240 363
3 372 371 370
3 371 366 370
3 366 247 370
3 366 242 247
3 369 373 368
3 245 368 373
3 374 245 373
3 248 245 374
3 372 370 251
3 249 372 251
3 375 372 249
3 251 370 247
3 374 376 248
3 248 376 252
3 249 252 375
3 375 252 376
3 379 378 377
3 381 380 377
3 377 380 379
3 381 382 380
3 377 378 383
3 383 378 384
3 387 386 385
3 381 254 255
3 254 381 383
3 377 383 381
3 385 386 256
3 386 382 256
3 381 255 256
3 381 256 382
3 390 389 388
3 392 391 388
3 388 391 390
3 392 393 391
3 383 384 394
3 394 384 395
3 387 385 396
3 257 396 385
3 396 257 394
3 254 394 257
3 394 254 383
3 257 385 256
3 399 398 397
3 401 400 397
3 397 400 399
3 400 401 389
3 401 388 389
3 401 402 388
3 388 403 392
3 388 402 403
3 393 392 404
3 392 405 404
3 392 403 405
3 407 406 405
3 405 406 404
3 409 408 407
3 407 408 406
3 259 260 409
3 260 408 409
3 260 410 408
3 261 394 395
3 410 261 395
3 260 261 410
3 412 411 263
3 263 411 261
3 411 396 261
3 396 394 261
3 412 413 411
3 397 398 414
3 414 398 415
3 414 265 266
3 401 414 266
3 397 414 401
3 401 266 267
3 401 267 402
3 402 267 269
3 402 269 403
3 403 269 271
3 403 271 405
3 405 271 273
3 405 273 407
3 407 273 275
3 407 275 409
3 409 275 259
3 277 412 263
3 417 416 279
3 279 416 277
3 416 413 277
3 413 412 277
3 417 418 416
3 421 420 419
3 423 422 419
3 419 422 421
3 422 423 415
3 415 423 414
3 423 281 414
3 281 282 414
3 414 282 265
3 284 417 279
3 425 424 286
3 286 424 284
3 424 418 284
3 418 417 284
3 425 426 424
3 419 420 289
3 420 288 289
3 420 427 288
3 419 289 290
3 419 290 423
3 423 290 281
3 292 425 286
3 428 426 425
3 292 428 425
3 294 428 292
3 294 296 428
3 428 296 429
3 432 431 430
3 427 432 430
3 298 427 430
3 288 427 298
3 433 429 296
3 433 296 303
3 303 305 433
3 433 305 434
3 437 436 435
3 437 435 431
3 431 435 430
3 435 307 430
3 307 308 430
3 430 308 298
3 313 439 438
3 434 313 438
3 305 313 434
3 439 440 438
3 436 441 435
3 307 435 441
3 442 307 441
3 315 307 442
3 320 443 439
3 320 439 313
3 440 439 444
3 444 439 443
3 321 315 445
3 315 446 445
3 315 442 446
3 445 323 321
3 327 443 320
3 327 329 443
3 329 444 443
3 329 447 444
3 450 449 448
3 452 451 448
3 448 451 450
3 452 453 451
3 446 454 445
3 454 456 455
3 454 455 330
3 445 454 330
3 323 445 330
3 457 331 330
3 457 330 455
3 458 332 331
3 458 331 457
3 459 333 332
3 459 332 458
3 459 335 333
3 340 461 460
3 447 340 460
3 329 340 447
3 448 449 462
3 462 449 463
3 448 464 452
3 448 462 464
3 453 452 465
3 465 452 464
3 456 466 455
3 455 466 457
3 457 466 467
3 457 467 458
3 458 467 468
3 470 469 468
3 469 458 468
3 469 459 458
3 471 341 335
3 459 471 335
3 469 471 459
3 472 342 341
3 472 341 471
3 473 343 342
3 473 342 472
3 473 345 343
3 476 475 474
3 477 474 475
3 479 478 461
3 340 479 461
3 347 479 340
3 463 480 462
3 462 480 464
3 464 480 481
3 464 481 465
3 470 482 469
3 469 482 471
3 471 482 483
3 485 484 483
3 484 471 483
3 484 472 471
3 472 486 473
3 472 484 486
3 486 349 345
3 486 345 473
3 487 476 474
3 487 474 477
3 353 488 352
3 488 489 352
3 489 347 352
3 489 479 347
3 485 490 484
3 492 491 490
3 491 484 490
3 491 486 484
3 493 354 349
3 486 493 349
3 491 493 486
3 494 355 354
3 494 354 493
3 494 357 355
3 497 496 495
3 498 495 496
3 501 500 499
3 500 502 488
3 360 500 488
3 353 360 488
3 499 500 360
3 488 502 489
3 492 503 491
3 491 503 493
3 493 503 504
3 506 505 504
3 505 493 504
3 505 494 493
3 507 361 357
3 494 507 357
3 505 507 494
3 508 362 361
3 508 361 507
3 508 364 362
3 509 497 495
3 512 511 510
3 498 509 495
3 365 366 511
3 512 365 511
3 513 365 512
3 499 367 501
3 367 513 501
3 367 365 513
3 367 499 360
3 506 514 505
3 505 514 507
3 507 514 515
3 507 515 508
3 508 515 516
3 364 508 516
3 517 364 516
3 369 364 517
3 510 511 371
3 372 510 371
3 518 510 372
3 371 511 366
3 517 519 369
3 369 519 373
3 521 520 374
3 373 521 374
3 519 521 373
3 521 518 520
3 518 375 520
3 518 372 375
3 520 376 374
3 376 520 375
3 524 523 522
3 526 525 522
3 522 525 524
3 526 527 525
3 522 523 528
3 528 523 529
3 522 530 526
3 522 528 530
3 527 526 531
3 531 526 530
3 529 532 528
3 528 532 530
3 530 532 533
3 533 534 530
3 534 535 530
3 536 531 530
3 536 530 535
3 535 537 536
3 534 538 535
3 538 539 535
3 539 540 535
3 541 537 535
3 541 535 540
3 540 542 541
3 544 543 539
3 543 378 539
3 379 540 539
3 379 539 378
3 380 540 379
3 540 380 542
3 545 542 380
3 542 545 544
3 543 544 545
3 382 545 380
3 548 547 546
3 550 549 546
3 546 549 548
3 550 551 549
3 553 552 543
3 552 378 543
3 552 384 378
3 387 554 386
3 554 543 386
3 543 545 386
3 554 553 543
3 386 545 382
3 557 556 555
3 557 555 547
3 547 555 546
3 555 389 546
3 389 390 546
3 546 390 391
3 546 391 550
3 559 558 393
3 393 558 391
3 558 551 391
3 551 550 391
3 559 560 558
3 563 562 561
3 552 563 561
3 395 552 561
3 384 552 395
3 396 554 387
3 396 564 554
3 566 565 399
3 399 565 398
3 400 555 556
3 566 400 556
3 399 400 566
3 555 400 389
3 404 559 393
3 567 560 559
3 404 567 559
3 406 567 404
3 568 406 408
3 568 567 406
3 410 561 562
3 568 410 562
3 408 410 568
3 561 410 395
3 569 564 396
3 569 396 411
3 411 413 569
3 569 413 570
3 573 572 571
3 565 573 571
3 415 565 571
3 398 565 415
3 574 570 413
3 574 413 416
3 416 418 574
3 574 418 575
3 577 576 421
3 421 576 420
3 422 571 572
3 577 422 572
3 421 422 577
3 571 422 415
3 578 575 418
3 578 418 424
3 424 426 578
3 578 426 579
3 582 581 580
3 576 582 580
3 427 576 580
3 420 576 427
3 583 579 426
3 583 426 428
3 585 584 429
3 584 428 429
3 584 583 428
3 585 586 584
3 589 588 587
3 589 587 581
3 581 587 580
3 587 431 580
3 431 432 580
3 580 432 427
3 433 585 429
3 591 590 434
3 434 590 433
3 590 586 433
3 586 585 433
3 591 592 590
3 595 594 593
3 595 593 588
3 588 593 587
3 593 436 587
3 436 437 587
3 587 437 431
3 438 591 434
3 438 440 591
3 440 592 591
3 440 596 592
3 599 598 597
3 601 600 597
3 597 600 599
3 601 602 600
3 605 604 603
3 603 606 605
3 593 594 607
3 607 594 608
3 609 441 436
3 593 609 436
3 607 609 593
3 609 442 441
3 444 611 610
3 596 444 610
3 440 444 596
3 598 612 597
3 597 612 601
3 601 612 613
3 601 613 602
3 616 615 614
3 618 617 614
3 614 617 616
3 617 618 604
3 618 603 604
3 618 619 603
3 606 603 620
3 603 621 620
3 603 619 621
3 623 622 621
3 622 607 621
3 608 620 621
3 608 621 607
3 607 622 609
3 609 622 624
3 442 609 624
3 625 442 624
3 446 442 625
3 447 626 611
3 447 611 444
3 614 615 627
3 627 615 628
3 627 449 450
3 618 627 450
3 614 627 618
3 618 450 451
3 618 451 619
3 619 451 453
3 629 619 453
3 621 619 629
3 623 621 630
3 630 621 629
3 625 631 446
3 446 631 454
3 456 454 631
3 456 631 632
3 635 634 633
3 637 636 633
3 637 633 634
3 639 638 636
3 639 636 637
3 640 638 639
3 626 447 460
3 643 642 641
3 628 644 627
3 449 627 644
3 645 449 644
3 463 449 645
3 465 646 629
3 465 629 453
3 630 629 647
3 647 629 646
3 632 648 456
3 456 648 466
3 466 649 467
3 648 649 466
3 649 651 650
3 468 649 650
3 467 649 468
3 650 470 468
3 635 633 652
3 635 652 653
3 476 652 475
3 652 636 475
3 652 633 636
3 475 636 477
3 636 654 477
3 636 638 654
3 638 640 655
3 638 655 654
3 641 642 478
3 479 641 478
3 656 641 479
3 480 463 657
3 463 658 657
3 463 645 658
3 480 657 659
3 660 480 659
3 481 480 660
3 481 660 465
3 660 661 465
3 661 646 465
3 661 660 662
3 647 646 663
3 663 646 661
3 651 664 650
3 650 664 470
3 664 482 470
3 664 665 482
3 482 666 483
3 665 666 482
3 485 483 666
3 485 666 667
3 653 652 668
3 653 668 669
3 487 670 476
3 670 652 476
3 670 668 652
3 477 654 487
3 654 670 487
3 654 671 670
3 654 655 672
3 673 654 672
3 671 654 673
3 674 673 672
3 677 676 675
3 676 656 675
3 656 489 675
3 656 479 489
3 658 678 657
3 657 678 659
3 662 679 661
3 661 679 663
3 667 680 485
3 485 680 490
3 682 681 492
3 490 682 492
3 680 682 490
3 683 681 682
3 684 669 668
3 686 685 684
3 668 686 684
3 670 686 668
3 497 686 496
3 686 671 496
3 686 670 671
3 496 671 498
3 671 687 498
3 671 673 687
3 673 674 688
3 689 673 688
3 687 673 689
3 500 501 689
3 688 500 689
3 690 500 688
3 675 502 677
3 502 690 677
3 502 500 690
3 502 675 489
3 681 503 492
3 683 691 681
3 691 503 681
3 691 504 503
3 506 504 691
3 506 691 692
3 685 686 693
3 685 693 694
3 509 695 497
3 695 686 497
3 695 693 686
3 509 498 695
3 498 687 695
3 512 510 695
3 512 695 687
3 512 687 513
3 513 687 689
3 513 689 501
3 692 696 506
3 506 696 514
3 514 697 515
3 696 697 514
3 515 698 516
3 697 698 515
3 693 699 517
3 698 693 517
3 516 698 517
3 694 693 698
3 700 693 695
3 699 693 700
3 518 700 510
3 510 700 695
3 699 519 517
3 519 699 521
3 521 699 700
3 521 700 518
3 703 702 701
3 705 704 701
3 701 704 703
3 707 706 705
3 705 706 704
3 707 708 706
3 702 709 701
3 710 523 524
3 701 710 524
3 705 701 524
3 709 710 701
3 705 524 525
3 705 525 707
3 525 527 707
3 527 708 707
3 527 711 708
3 713 529 712
3 529 710 712
3 529 523 710
3 714 713 712
3 531 711 527
3 531 715 711
3 713 532 529
3 714 716 713
3 716 532 713
3 716 533 532
3 531 536 715
3 717 715 536
3 715 717 716
3 534 716 717
3 716 534 533
3 537 717 536
3 717 538 534
3 539 538 718
3 538 717 718
3 537 541 718
3 537 718 717
3 542 718 541
3 718 544 539
3 544 718 542
3 719 547 548
3 549 720 548
3 548 720 719
3 551 720 549
3 721 552 553
3 554 721 553
3 722 556 557
3 723 722 557
3 723 557 547
3 724 723 547
3 719 724 547
3 724 719 720
3 724 720 725
3 725 720 551
3 558 725 551
3 726 725 558
3 728 727 560
3 727 558 560
3 727 726 558
3 730 729 728
3 728 729 727
3 562 563 730
3 563 729 730
3 563 731 729
3 563 552 721
3 732 563 721
3 731 563 732
3 721 554 732
3 554 733 732
3 554 564 733
3 735 734 566
3 566 734 565
3 566 556 722
3 736 566 722
3 735 566 736
3 736 722 723
3 567 728 560
3 728 567 568
3 728 568 730
3 730 568 562
3 737 733 564
3 737 564 569
3 569 570 737
3 737 570 738
3 739 572 573
3 740 739 573
3 565 740 573
3 734 740 565
3 741 738 570
3 741 570 574
3 574 575 741
3 741 575 742
3 744 743 577
3 577 743 576
3 577 572 739
3 745 577 739
3 744 577 745
3 745 739 740
3 746 742 575
3 746 575 578
3 748 747 579
3 747 578 579
3 747 746 578
3 748 749 747
3 751 750 582
3 582 750 581
3 582 576 743
3 582 743 751
3 583 748 579
3 752 749 748
3 583 752 748
3 584 752 583
3 584 586 752
3 752 586 753
3 755 754 589
3 589 754 588
3 589 581 750
3 589 750 755
3 756 753 586
3 756 586 590
3 590 592 756
3 756 592 757
3 760 759 758
3 762 761 758
3 758 761 760
3 764 763 762
3 762 763 761
3 764 765 763
3 767 766 595
3 595 766 594
3 595 588 754
3 595 754 767
3 596 757 592
3 596 768 757
3 771 770 769
3 773 772 769
3 769 772 771
3 772 773 759
3 773 758 759
3 773 774 758
3 774 598 599
3 762 774 599
3 758 774 762
3 762 599 600
3 762 600 764
3 776 775 602
3 602 775 600
3 775 765 600
3 765 764 600
3 776 777 775
3 780 779 778
3 604 605 778
3 605 780 778
3 605 781 780
3 605 606 781
3 781 606 782
3 784 608 783
3 608 766 783
3 608 594 766
3 786 785 784
3 786 784 783
3 788 787 785
3 788 785 786
3 789 787 788
3 596 610 790
3 791 596 790
3 768 596 791
3 769 770 792
3 792 770 793
3 769 794 773
3 769 792 794
3 773 795 774
3 773 794 795
3 774 795 598
3 795 796 598
3 796 612 598
3 795 797 796
3 612 798 613
3 796 798 612
3 613 798 602
3 798 799 602
3 799 776 602
3 799 798 800
3 616 801 615
3 801 776 615
3 776 799 615
3 776 801 777
3 617 778 779
3 801 617 779
3 616 617 801
3 778 617 604
3 606 620 802
3 803 606 802
3 782 606 803
3 620 608 802
3 608 784 802
3 622 623 802
3 622 802 784
3 622 784 624
3 624 784 785
3 624 785 625
3 785 804 625
3 785 787 804
3 787 789 805
3 806 787 805
3 804 787 806
3 807 806 805
3 810 809 808
3 812 811 808
3 812 808 809
3 814 813 811
3 814 811 812
3 815 813 814
3 816 791 790
3 793 817 792
3 819 818 817
3 818 792 817
3 818 794 792
3 821 795 820
3 795 818 820
3 795 794 818
3 795 821 797
3 800 822 799
3 628 615 799
3 823 628 799
3 822 823 799
3 628 823 824
3 825 824 823
3 803 802 826
3 803 826 827
3 630 826 623
3 623 826 802
3 804 631 625
3 631 804 632
3 804 828 632
3 804 806 828
3 806 807 829
3 830 806 829
3 828 806 830
3 831 830 829
3 810 808 832
3 810 832 833
3 635 832 634
3 832 811 634
3 832 808 811
3 634 811 637
3 637 811 813
3 815 834 813
3 834 637 813
3 834 639 637
3 640 639 834
3 640 834 835
3 837 836 643
3 837 643 641
3 819 838 818
3 818 838 820
3 824 644 628
3 645 644 824
3 825 645 824
3 839 645 825
3 842 841 840
3 840 841 827
3 826 840 827
3 843 840 826
3 647 843 630
3 630 843 826
3 828 648 632
3 648 828 649
3 649 828 830
3 845 844 651
3 845 651 649
3 831 845 649
3 830 831 649
3 847 846 844
3 847 844 845
3 848 846 847
3 833 832 849
3 833 849 850
3 653 849 635
3 635 849 832
3 852 655 851
3 655 835 851
3 655 640 835
3 854 853 852
3 854 852 851
3 856 855 853
3 856 853 854
3 858 857 855
3 858 855 856
3 858 837 857
3 837 656 857
3 837 641 656
3 861 860 859
3 864 863 862
3 861 859 839
3 658 839 859
3 839 658 645
3 862 863 842
3 862 842 840
3 659 862 840
3 660 659 840
3 660 840 662
3 840 865 662
3 840 843 865
3 663 865 647
3 647 865 843
3 844 664 651
3 664 844 665
3 665 844 846
3 848 866 846
3 866 665 846
3 866 666 665
3 667 666 866
3 667 866 867
3 868 850 849
3 849 653 868
3 653 869 868
3 653 669 869
3 852 672 655
3 672 852 674
3 852 870 674
3 852 853 870
3 871 853 855
3 870 853 871
3 677 871 676
3 871 857 676
3 871 855 857
3 676 857 656
3 859 860 872
3 872 860 873
3 864 862 874
3 678 874 862
3 874 678 872
3 658 872 678
3 872 658 859
3 678 862 659
3 865 679 662
3 679 865 663
3 867 875 667
3 667 875 680
3 680 876 682
3 875 876 680
3 683 682 876
3 683 876 877
3 669 684 878
3 879 669 878
3 869 669 879
3 685 878 684
3 870 688 674
3 688 870 690
3 690 870 871
3 690 871 677
3 873 880 872
3 872 880 874
3 877 881 683
3 683 881 691
3 883 882 692
3 691 883 692
3 881 883 691
3 885 884 882
3 885 882 883
3 884 885 879
3 878 884 879
3 886 884 878
3 694 886 685
3 685 886 878
3 882 696 692
3 696 882 697
3 697 882 884
3 697 884 698
3 698 884 886
3 698 886 694
3 887 702 703
3 704 888 703
3 703 888 887
3 706 889 704
3 704 889 888
3 708 889 706
3 887 709 702
3 709 887 710
3 887 890 710
3 887 888 890
3 891 888 889
3 890 888 891
3 711 891 708
3 708 891 889
3 890 712 710
3 712 890 714
3 890 892 714
3 890 891 892
3 715 892 711
3 711 892 891
3 892 716 714
3 716 892 715
3 893 723 724
3 725 894 724
3 724 894 893
3 726 895 725
3 725 895 894
3 895 726 896
3 726 897 896
3 726 727 897
3 898 727 729
3 898 897 727
3 899 729 731
3 899 898 729
3 900 731 732
3 900 899 731
3 732 733 900
3 900 733 901
3 902 734 735
3 736 903 735
3 735 903 902
3 723 893 736
3 893 903 736
3 893 904 903
3 905 893 894
3 904 893 905
3 895 907 906
3 905 895 906
3 894 895 905
3 907 895 896
3 908 901 733
3 908 733 737
3 910 909 738
3 909 737 738
3 909 908 737
3 910 911 909
3 912 740 902
3 902 740 734
3 913 902 903
3 912 902 913
3 914 903 904
3 913 903 914
3 915 904 905
3 914 904 915
3 905 906 916
3 905 916 915
3 741 910 738
3 918 917 742
3 742 917 741
3 917 911 741
3 911 910 741
3 918 919 917
3 920 743 744
3 745 921 744
3 744 921 920
3 740 912 745
3 912 921 745
3 912 922 921
3 923 912 913
3 922 912 923
3 924 913 914
3 923 913 924
3 925 914 915
3 924 914 925
3 915 916 926
3 915 926 925
3 746 918 742
3 927 919 918
3 746 927 918
3 747 927 746
3 747 749 927
3 927 749 928
3 929 750 751
3 743 920 751
3 920 929 751
3 920 930 929
3 931 920 921
3 930 920 931
3 932 921 922
3 931 921 932
3 933 922 923
3 932 922 933
3 934 923 924
3 933 923 934
3 935 924 925
3 934 924 935
3 925 926 936
3 937 925 936
3 935 925 937
3 938 937 936
3 939 928 749
3 939 749 752
3 752 753 939
3 939 753 940
3 941 754 755
3 750 929 755
3 929 941 755
3 929 942 941
3 943 929 930
3 942 929 943
3 944 930 931
3 943 930 944
3 945 931 932
3 944 931 945
3 946 932 933
3 945 932 946
3 947 933 934
3 946 933 947
3 948 934 935
3 947 934 948
3 949 935 937
3 948 935 949
3 937 938 950
3 951 937 950
3 949 937 951
3 952 951 950
3 753 756 953
3 954 753 953
3 940 753 954
3 757 953 756
3 955 759 760
3 955 760 956
3 760 957 956
3 760 761 957
3 958 761 763
3 958 957 761
3 763 765 958
3 958 765 959
3 960 766 767
3 754 941 767
3 941 960 767
3 941 961 960
3 962 941 942
3 961 941 962
3 963 942 943
3 962 942 963
3 964 943 944
3 963 943 964
3 965 944 945
3 964 944 965
3 966 945 946
3 965 945 966
3 967 946 947
3 966 946 967
3 948 969 968
3 967 948 968
3 947 948 967
3 969 948 949
3 969 949 970
3 970 949 951
3 970 951 971
3 974 973 972
3 952 971 951
3 976 975 973
3 976 973 974
3 977 975 976
3 954 953 978
3 954 978 979
3 768 978 757
3 757 978 953
3 980 770 771
3 772 981 771
3 771 981 980
3 759 955 772
3 955 981 772
3 955 982 981
3 955 956 983
3 955 983 982
3 765 775 984
3 985 765 984
3 959 765 985
3 777 984 775
3 986 779 780
3 781 987 780
3 780 987 986
3 782 987 781
3 960 783 766
3 783 960 786
3 786 960 961
3 786 961 788
3 788 961 962
3 788 962 789
3 962 988 789
3 962 963 988
3 989 963 964
3 988 963 989
3 990 964 965
3 989 964 990
3 991 965 966
3 990 965 991
3 992 966 967
3 991 966 992
3 967 968 993
3 967 993 992
3 972 973 994
3 972 994 995
3 996 973 975
3 994 973 996
3 975 977 997
3 998 975 997
3 996 975 998
3 999 998 997
3 1000 979 978
3 978 768 1000
3 768 1001 1000
3 768 791 1001
3 1002 793 980
3 980 793 770
3 1003 980 981
3 1002 980 1003
3 1004 981 982
3 1003 981 1004
3 1005 796 797
3 982 1005 797
3 1004 982 797
3 1005 982 983
3 796 1006 798
3 1005 1006 796
3 984 1007 800
3 1006 984 800
3 798 1006 800
3 985 984 1006
3 801 1008 777
3 1008 984 777
3 1008 1007 984
3 779 986 801
3 986 1008 801
3 986 1009 1008
3 1010 986 987
3 1009 986 1010
3 803 1010 782
3 782 1010 987
3 988 805 789
3 805 988 807
3 988 1011 807
3 988 989 1011
3 1012 989 990
3 1011 989 1012
3 1013 990 991
3 1012 990 1013
3 1014 991 992
3 1013 991 1014
3 992 993 1015
3 1016 992 1015
3 1014 992 1016
3 1017 1016 1015
3 995 994 1018
3 995 1018 1019
3 810 1018 809
3 1018 996 809
3 1018 994 996
3 809 996 812
3 812 996 998
3 999 1020 998
3 1020 812 998
3 1020 814 812
3 1022 1021 815
3 814 1022 815
3 1020 1022 814
3 1024 1023 1021
3 1024 1021 1022
3 1025 1023 1024
3 1028 1027 1026
3 1030 1029 1026
3 1030 1026 1027
3 1031 1029 816
3 1029 1001 816
3 1001 791 816
3 1001 1029 1030
3 1002 817 793
3 817 1002 819
3 1002 1032 819
3 1002 1003 1032
3 820 1032 821
3 1032 1004 821
3 1032 1003 1004
3 821 1004 797
3 1007 822 800
3 822 1007 823
3 823 1007 1008
3 823 1008 825
3 1008 1033 825
3 1008 1009 1033
3 1034 1009 1010
3 1033 1009 1034
3 827 1034 803
3 803 1034 1010
3 1011 829 807
3 829 1011 831
3 1011 1035 831
3 1011 1012 1035
3 1036 1012 1013
3 1035 1012 1036
3 1037 1013 1014
3 1036 1013 1037
3 1038 1014 1016
3 1037 1014 1038
3 1016 1017 1039
3 1016 1039 1038
3 1019 1018 1040
3 1019 1040 1041
3 833 1040 810
3 810 1040 1018
3 1021 834 815
3 834 1021 835
3 1021 1042 835
3 1021 1023 1042
3 1023 1025 1043
3 1044 1023 1043
3 1042 1023 1044
3 1044 1043 1028
3 1026 1044 1028
3 1045 1044 1026
3 1046 1026 1029
3 1045 1026 1046
3 837 1046 836
3 1046 1031 836
3 1046 1029 1031
3 1032 838 819
3 838 1032 820
3 1047 839 1033
3 1033 839 825
3 842 1047 841
3 1047 1034 841
3 1047 1033 1034
3 841 1034 827
3 1035 845 831
3 845 1035 847
3 847 1035 1036
3 847 1036 848
3 1036 1048 848
3 1036 1037 1048
3 1049 1037 1038
3 1048 1037 1049
3 1038 1039 1050
3 1051 1038 1050
3 1049 1038 1051
3 1052 1051 1050
3 1041 1040 1053
3 1041 1053 1054
3 850 1053 833
3 833 1053 1040
3 1042 851 835
3 851 1042 854
3 854 1042 1044
3 854 1044 856
3 856 1044 1045
3 856 1045 858
3 858 1045 1046
3 858 1046 837
3 1055 860 861
3 861 839 1055
3 839 1047 1055
3 863 864 1055
3 863 1055 1047
3 863 1047 842
3 1048 866 848
3 866 1048 867
3 1048 1056 867
3 1048 1049 1056
3 1057 1049 1051
3 1056 1049 1057
3 1051 1052 1058
3 1059 1051 1058
3 1057 1051 1059
3 1059 1058 1054
3 1053 1059 1054
3 1060 1059 1053
3 868 1061 850
3 1061 1053 850
3 1061 1060 1053
3 869 1061 868
3 1062 873 1055
3 1055 873 860
3 874 1062 864
3 864 1062 1055
3 1056 875 867
3 875 1056 876
3 876 1056 1057
3 876 1057 877
3 1057 1063 877
3 1057 1059 1063
3 1064 1059 1060
3 1063 1059 1064
3 1065 1060 1061
3 1064 1060 1065
3 879 1065 869
3 869 1065 1061
3 1062 880 873
3 880 1062 874
3 1063 881 877
3 881 1063 883
3 883 1063 1064
3 883 1064 885
3 885 1064 1065
3 885 1065 879
3 1067 1066 897
3 897 1066 896
3 1068 897 898
3 1068 1067 897
3 1069 898 899
3 1069 1068 898
3 1070 899 900
3 1070 1069 899
3 900 901 1070
3 1070 901 1071
3 1072 906 907
3 1073 1072 907
3 896 1073 907
3 1066 1073 896
3 1074 1071 901
3 1074 901 908
3 1075 908 909
3 1075 1074 908
3 909 911 1075
3 1075 911 1076
3 1077 916 1072
3 1072 916 906
3 1072 1073 1078
3 1072 1078 1077
3 1079 1076 911
3 1079 911 917
3 917 919 1079
3 1079 919 1080
3 1081 926 1077
3 1077 926 916
3 1077 1078 1082
3 1083 1077 1082
3 1081 1077 1083
3 1084 1083 1082
3 919 927 1085
3 1086 919 1085
3 1080 919 1086
3 928 1085 927
3 1081 936 926
3 936 1081 938
3 1081 1087 938
3 1081 1083 1087
3 1083 1084 1088
3 1089 1083 1088
3 1087 1083 1089
3 1090 1089 1088
3 1086 1085 1091
3 1086 1091 1092
3 939 1093 928
3 1093 1085 928
3 1093 1091 1085
3 940 1093 939
3 1087 950 938
3 950 1087 952
3 1087 1094 952
3 1087 1089 1094
3 1089 1090 1095
3 1096 1089 1095
3 1094 1089 1096
3 1098 1097 1096
3 1098 1096 1095
3 1100 1099 1097
3 1100 1097 1098
3 1102 1101 1099
3 1102 1099 1100
3 1104 1103 1101
3 1104 1101 1102
3 1103 1104 1092
3 1091 1103 1092
3 1105 1103 1091
3 1106 1091 1093
3 1105 1091 1106
3 954 1106 940
3 940 1106 1093
3 1107 956 957
3 958 1108 957
3 957 1108 1107
3 959 1108 958
3 1109 968 969
3 970 1110 969
3 969 1110 1109
3 971 1111 970
3 970 1111 1110
3 971 952 1111
3 952 1094 1111
3 974 972 1111
3 974 1111 1094
3 974 1094 976
3 976 1094 1096
3 976 1096 977
3 1096 1112 977
3 1096 1097 1112
3 1113 1097 1099
3 1112 1097 1113
3 1114 1099 1101
3 1113 1099 1114
3 1115 1101 1103
3 1114 1101 1115
3 1116 1103 1105
3 1115 1103 1116
3 1117 1105 1106
3 1116 1105 1117
3 979 1117 954
3 954 1117 1106
3 1118 983 1107
3 1107 983 956
3 1119 1107 1108
3 1118 1107 1119
3 985 1119 959
3 959 1119 1108
3 1120 993 1109
3 1109 993 968
3 1121 1109 1110
3 1120 1109 1121
3 1122 1110 1111
3 1121 1110 1122
3 995 1122 972
3 972 1122 1111
3 1112 997 977
3 997 1112 999
3 1112 1123 999
3 1112 1113 1123
3 1124 1113 1114
3 1123 1113 1124
3 1125 1114 1115
3 1124 1114 1125
3 1126 1115 1116
3 1125 1115 1126
3 1127 1116 1117
3 1126 1116 1127
3 1000 1128 979
3 1128 1117 979
3 1128 1127 1117
3 1001 1128 1000
3 1118 1005 983
3 1005 1118 1006
3 1006 1118 1119
3 1006 1119 985
3 1120 1015 993
3 1015 1120 1017
3 1120 1129 1017
3 1120 1121 1129
3 1130 1121 1122
3 1129 1121 1130
3 1019 1130 995
3 995 1130 1122
3 1123 1020 999
3 1020 1123 1022
3 1022 1123 1124
3 1022 1124 1024
3 1024 1124 1125
3 1024 1125 1025
3 1125 1131 1025
3 1125 1126 1131
3 1028 1131 1027
3 1131 1127 1027
3 1131 1126 1127
3 1027 1127 1030
3 1030 1127 1128
3 1030 1128 1001
3 1132 1039 1129
3 1129 1039 1017
3 1133 1129 1130
3 1132 1129 1133
3 1041 1133 1019
3 1019 1133 1130
3 1131 1043 1025
3 1043 1131 1028
3 1132 1050 1039
3 1050 1132 1052
3 1132 1134 1052
3 1132 1133 1134
3 1054 1134 1041
3 1041 1134 1133
3 1134 1058 1052
3 1058 1134 1054
3 1135 1066 1067
3 1068 1136 1067
3 1067 1136 1135
3 1069 1137 1068
3 1068 1137 1136
3 1070 1138 1069
3 1069 1138 1137
3 1071 1138 1070
3 1139 1073 1135
3 1135 1073 1066
3 1140 1135 1136
3 1139 1135 1140
3 1141 1136 1137
3 1140 1136 1141
3 1138 1143 1142
3 1141 1138 1142
3 1137 1138 1141
3 1143 1138 1071
3 1074 1143 1071
3 1144 1143 1074
3 1145 1074 1075
3 1145 1144 1074
3 1075 1076 1145
3 1145 1076 1146
3 1147 1078 1139
3 1139 1078 1073
3 1148 1139 1140
3 1147 1139 1148
3 1149 1140 1141
3 1148 1140 1149
3 1141 1142 1150
3 1141 1150 1149
3 1076 1079 1151
3 1152 1076 1151
3 1146 1076 1152
3 1080 1151 1079
3 1147 1082 1078
3 1082 1147 1084
3 1147 1153 1084
3 1147 1148 1153
3 1154 1148 1149
3 1153 1148 1154
3 1149 1150 1155
3 1156 1149 1155
3 1154 1149 1156
3 1157 1156 1155
3 1152 1151 1158
3 1152 1158 1159
3 1086 1158 1080
3 1080 1158 1151
3 1153 1088 1084
3 1088 1153 1090
3 1153 1160 1090
3 1153 1154 1160
3 1161 1154 1156
3 1160 1154 1161
3 1156 1157 1162
3 1163 1156 1162
3 1161 1156 1163
3 1165 1164 1163
3 1165 1163 1162
3 1164 1165 1159
3 1158 1164 1159
3 1166 1164 1158
3 1092 1166 1086
3 1086 1166 1158
3 1160 1095 1090
3 1095 1160 1098
3 1098 1160 1161
3 1098 1161 1100
3 1100 1161 1163
3 1100 1163 1102
3 1102 1163 1164
3 1102 1164 1104
3 1104 1164 1166
3 1104 1166 1092
3 1169 1168 1167
3 1167 1170 1169
3 1171 1142 1143
3 1168 1172 1167
3 1172 1143 1167
3 1143 1144 1167
3 1143 1172 1171
3 1144 1145 1167
3 1145 1173 1167
3 1173 1170 1167
3 1145 1174 1173
3 1146 1174 1145
3 1175 1150 1171
3 1171 1150 1142
3 1171 1172 1176
3 1177 1171 1176
3 1175 1171 1177
3 1173 1174 1178
3 1176 1179 1177
3 1174 1146 1178
3 1146 1180 1178
3 1146 1152 1180
3 1175 1155 1150
3 1155 1175 1157
3 1175 1181 1157
3 1175 1177 1181
3 1177 1179 1182
3 1183 1177 1182
3 1181 1177 1183
3 1182 1180 1183
3 1180 1159 1183
3 1180 1152 1159
3 1181 1162 1157
3 1162 1181 1165
3 1165 1181 1183
3 1165 1183 1159