OFF
637 1254 0
1.2081396934 5.9375728344 4.8846198071
1.4444057348 5.6056156376 4.1406539611
1.4884717243 5.3493277946 4.6788613147
1.6968598655 5.1879631585 5.4358945399
1.2415814994 5.9574419257 5.8459427474
1.5853928544 5.5218827998 6.2263641409
1.2500448247 6.3277363464 4.0430036224
1.5469917198 6.1375608124 3.4400006917
1.4376267801 5.8709561922 3.6962049484
1.0214799502 6.7276723565 4.8093920065
0.9931466084 6.7042352088 5.6388934661
1.3604755443 5.9791247989 6.5012244386
1.1535839042 6.6756665060 6.6526954555
1.4365064856 6.2253316029 7.0084679581
1.5460344289 6.8338218416 3.4783725158
1.1882749139 7.2594109370 4.3364703257
1.4310961722 7.3818589194 3.7883270841
0.9736870880 7.4785469658 5.3901149814
0.9647705266 7.5918664339 6.4837316455
1.4977661606 6.7528245467 7.6264821789
1.1757288127 7.6474579429 7.6620173884
1.4771387734 7.3444741346 8.1826335196
1.5137110921 7.8864373448 4.1069376151
1.2034900213 8.0837679526 4.9977514123
1.4493047445 8.3640262847 4.6738684069
1.0657399459 8.4837738297 6.1813518903
1.0076285268 8.5675492040 7.4241373978
1.4842961964 7.8722424949 8.6945920976
1.1744756487 8.6956624466 8.5933823984
1.4595604739 8.5133436860 9.2940452546
1.5373400550 8.8815226193 5.2918740724
1.2734286724 9.2425655410 6.3455997144
1.1402595744 9.4029536221 7.2059426089
1.3286395805 9.6287066811 6.7442952466
1.1015716649 9.4765411773 8.2789345501
1.3324724399 9.0686903722 9.4471919411
1.2352550423 9.6126712992 9.2149628551
1.4473162042 9.5869899561 9.9147805441
1.5193513859 10.0695294476 7.1252237707
1.3240713226 10.1312299412 8.0284410539
1.6796475374 10.5404425007 7.7549634763
1.3281143156 10.2397485011 8.9255621625
1.5753380693 10.4352053222 9.8857708434
1.7278350196 10.7779902412 8.5519372453
1.5777330848 10.7129538954 9.2528212415
1.9614989749 4.9019386334 4.4544708328
2.2857411766 4.8035840925 3.6348715985
2.8190746363 4.2341431157 4.1205242154
2.6187964092 4.3251764395 5.1745547922
2.0985990035 4.6862423121 5.2212881138
2.4093978003 4.5932457534 5.8723243467
1.8482425654 5.4833062941 3.4656180711
2.2859234778 5.5078258811 2.8333848227
2.3465375162 5.0596034198 3.0940348982
2.2258546276 5.0417489070 6.5710165897
1.7794929901 5.6844720496 6.9558412631
2.4587103240 5.3405559538 7.5090820113
2.0732688549 5.7968915661 7.6145639393
2.5186026574 5.7038873672 8.1084394486
2.0497510622 6.1870119486 2.9093215394
2.8119148395 6.5499153705 2.3538181420
2.6510984597 5.7911669762 2.4449836560
1.7255626415 6.1301657435 7.4478002967
2.0903686978 6.2865978859 8.1464659947
2.1031711731 6.9963537318 2.9029745027
1.7672597488 7.4505542527 3.4002375244
2.1322788773 7.4766229648 3.0381921654
1.8009531347 6.9969980196 8.4081568087
1.6411902262 7.4148494823 8.5628400789
1.9063025294 7.4088936854 8.9945074312
2.1993676508 7.9929971664 3.4159710072
1.8222429068 8.4784349168 4.2794055130
2.2325808500 8.5394890247 3.8640464136
1.8719590178 8.0197068949 9.5884975461
1.7191519455 8.8792896354 10.1259687583
2.4451011555 8.0701441994 10.7002213795
2.1108130139 9.0234678633 11.1439028505
2.5126856609 8.5451910074 11.5368636589
2.3105326752 9.0410494344 4.3895050975
2.0276106706 9.4544838873 5.2310892762
2.3793678622 9.5442224299 4.8824850249
1.6861117837 9.6806806945 6.1257075555
1.7623114496 9.8604519086 10.7640153454
2.4087160416 9.0337599221 11.8878237762
2.1857577376 9.7990878744 11.8441874484
2.7471449902 9.2801647414 12.6623484162
2.5104575021 10.1227324906 12.6088869966
2.9420412820 10.0320263729 13.1733186491
2.4880364776 9.9897741415 5.4536323826
2.0633233990 10.2963362582 6.5106609711
1.9205489745 10.5500797688 7.2106191881
2.3445900217 10.7110321242 6.8811077224
1.8469555724 10.7156122569 10.8170862169
1.9958189939 10.5212805402 11.4426601591
2.3703914469 10.8176320060 12.2116829600
2.7921390319 10.7605302479 12.9226048503
2.2635782813 10.9457195777 7.6453979763
2.4317285519 11.3335618330 8.4987968240
2.0153650577 11.1880011399 9.4251581861
2.0530858186 11.2672949208 10.3992742586
2.4614705987 11.7275569733 9.9271608774
2.2603345645 11.3528810741 11.3805903301
2.7497698442 11.7700669372 12.2558464888
2.7529120836 11.3398655228 12.6887796600
2.5757314841 11.9420239077 10.6836194659
2.7856618679 12.2082545663 11.5247689335
3.1720876433 4.5045509121 2.6797759126
3.4129136821 4.7871748562 2.2506641184
3.5960542898 4.3128995501 2.4531841260
3.4758333653 3.9794672159 3.1737549448
2.7688599690 4.5687505677 3.1820007218
3.5479914947 3.6687653317 4.1371235352
3.5070865423 3.7371253337 5.1589680109
3.3000164483 4.1265209156 6.2242182885
2.8724777478 4.5334696066 6.6429401684
3.4632182986 4.3480333401 7.0678101360
2.8329080785 5.0966927477 2.5742236777
3.5529301782 5.6515063252 1.9347471421
3.1533002042 4.7786738978 7.4737916746
3.2302111044 5.2937618431 8.4040644881
2.8984402435 5.9920572929 8.9245698167
3.5441187925 5.5536645279 9.1804975468
3.5210709523 6.5259810965 1.9567312151
2.3417155363 6.7683642866 9.0057961657
3.6960904712 5.9231722361 9.8043856506
3.0530773947 6.6254051710 9.8758468793
3.7000612950 6.3585465580 10.3968885983
2.6071384013 7.3941982697 2.7120335694
3.5183086076 7.2724695595 2.2086079164
2.4061359533 7.3571814676 9.7621269950
3.5760216813 6.7979638440 10.8320106112
2.9256746959 7.2587319845 10.4785227143
3.2587243482 7.4499317913 11.2718506823
3.0611946539 7.9961431792 2.8183502813
2.7334531160 8.5578051151 3.4891054814
3.5192216076 8.5762386567 3.0026993707
3.0125111113 8.0495494306 11.7627430088
2.8233890278 8.6022338845 12.2194744835
3.5060591142 8.1394204597 12.6893937067
3.0561086358 8.6715423676 12.7107214770
3.3552796898 8.7621621794 13.1494868128
3.2075447091 9.0942800732 3.7105035907
2.8752503780 9.5884475663 4.5064287571
3.7293840107 9.6265077869 3.9742639581
3.3051776713 9.4072593342 13.4271871729
3.4162940597 10.0049887071 13.6298835392
4.0102360334 9.5962949150 13.9441285552
3.3814291971 10.0886263477 4.7842945139
3.1539206632 10.4498029372 5.4860425963
3.9134783095 10.5662872487 5.1706447882
2.7117327399 10.5846718654 6.1788984075
3.8128565775 10.3296379885 13.8487049420
3.4196436711 10.7258947358 13.4741429561
3.4840799596 10.8584677507 5.9947400048
2.9459348931 11.0093730537 6.8357789963
3.1054037080 11.4295141687 7.6650296639
3.0088727287 11.6940334934 8.4202035195
3.4776722492 11.7995435150 8.0577879229
2.7192040654 11.7454237752 9.1520187085
2.9634877226 11.7251121533 12.7286635616
3.2881618173 11.5156209097 13.0625836415
3.4142638096 12.0334088569 8.7187637677
3.1782325394 12.2968963783 9.7899764590
3.0363252520 12.5492722050 10.8321771171
3.1491252486 12.7738408779 11.5139426620
3.3295972963 12.9606250817 10.9042261486
3.2925007663 12.5346166753 12.2039995322
3.3172632043 12.1134098242 12.7110705629
3.2966381158 13.0246115022 11.3698323440
3.4481178382 13.1044972463 10.8803709365
3.4167017121 12.8912240159 11.9411042799
4.1129800113 3.3626188253 3.6470995420
4.1815026940 3.5992150232 2.9032956526
4.8169516791 3.1959928590 3.0840922427
4.8591015710 2.7651273845 4.0875040804
4.1288881617 3.2183181702 4.6223126563
4.8793865732 2.6780249606 5.2454636452
4.2545492519 3.2395508598 5.4782811861
4.7592798057 3.0566993400 6.0070948719
4.1257232793 4.5598342402 1.9276868165
3.9849257478 3.9844823432 2.5014158537
4.2894710078 3.5573233123 6.3121091890
4.2259908491 4.0444363997 7.2664223746
3.8729911570 4.4219255546 7.6723780196
4.4502300711 4.3314627215 8.0370184166
4.3036411991 5.2377343688 1.5007578072
4.9687399249 5.4281099479 1.2005597884
4.7211863795 4.8250993575 1.4138100845
4.1216103776 4.7475178913 8.4235062328
4.0824294205 5.2245291788 9.1844841263
3.9461887127 5.5203041249 9.5539983696
4.5635980193 5.5102404828 9.9962316973
4.3741032757 5.8079801990 1.4332558933
4.3571463963 6.6109681790 1.6536672315
4.3693846429 6.0766980188 10.6945723177
3.9581854292 6.4260317068 10.8050651446
4.2933622887 6.5088225954 11.3028881655
4.5574413366 7.6431439410 2.0361916235
4.0087770087 7.0005754627 11.7205412300
3.7084983723 7.5499232769 12.1438736315
4.5538351934 7.1535835849 12.6181841853
4.0047807034 7.6142923513 12.6848564730
4.3006521717 7.7338866115 13.1372018540
3.8807964293 8.0958302544 2.4775621992
4.0559026518 8.5571860577 2.7169874650
4.0177979842 8.3300765977 13.4483658825
3.8101736381 8.9224341007 13.6625210182
4.6268373720 8.6620712395 14.0248227378
4.2246759116 9.0541477562 3.1371264144
4.4903443137 9.6446638865 3.6259140954
5.0385083829 9.4912289235 14.4731156720
4.3958253579 10.1388996180 4.3115785725
4.8660799093 10.6627623753 4.9312083837
4.0355304501 10.8598701255 13.8153183747
4.5293143328 10.4286972811 14.1229267093
4.4422547876 11.0133008219 5.7599077401
3.9100511684 11.3429149433 6.7492771408
3.8284894178 11.6998953457 7.5282136065
4.5915784757 11.7960279808 7.2831959649
4.5240807492 11.1547181706 13.8892261224
4.1336371304 11.5054370026 13.5238998421
4.0741012746 12.0385398342 8.0514786306
4.0994418862 12.4781768384 8.8739693139
3.8785196840 12.8092513478 9.6401283656
4.3182546900 12.8392981973 9.1753995261
3.4267549224 12.7921704978 10.3100440957
3.8453373620 12.5616660302 12.6999659916
4.0178448805 12.1639821196 13.0687531303
4.4871650319 13.0785881722 9.3974385364
3.8118046152 13.0678529864 10.1769976871
4.4053614267 13.2142245188 9.6508906968
4.6121929668 12.6491967922 12.8775666862
4.0776265213 12.8220586935 12.4961483498
5.2169212026 2.2621265409 4.6988686301
5.5665997210 2.1998496002 4.1585894364
5.5641387180 1.9777402289 4.6100331022
5.5675283788 1.9523760482 5.0343203476
5.2323375053 2.2301348046 5.1431803068
5.5034554466 2.1604740551 5.5764196771
4.7145234426 3.7570126650 2.2940420844
5.5061302670 3.8074783497 1.9136232899
5.5864035758 3.3266882194 2.4900075715
5.7148874188 2.6949959379 3.3197155581
5.5595807444 2.6348683473 6.2978686858
5.0510895288 3.1881432486 6.6119714303
5.6082273163 3.1148079331 6.9975558311
5.0202754125 4.2746858450 1.6335398464
5.3846868390 4.7918524126 1.2336414239
5.8517851479 4.2586503540 1.4893443163
5.1924003540 3.5824871298 7.3076416974
5.1159249777 4.0851314484 8.0729786173
4.9291907325 4.4700889422 8.5992689995
5.7703276153 4.3654070429 8.8408760331
5.6800168354 5.3092656147 1.0533385219
5.1920229351 4.9226960740 9.4330560579
5.4575827875 5.3444821598 10.3039248408
4.8986186021 6.0925979169 1.2692685261
5.6710619075 5.9694903183 1.1150523982
5.3162409156 5.7301357635 10.8577605867
5.1992287346 6.2103135583 11.6300249322
4.7351345599 6.6488577920 12.0635189164
5.3228025663 6.5056723203 12.3537123884
5.0442765660 6.7339606454 12.5394537892
5.5535113506 6.8295341272 12.9062954552
5.2725311880 6.5448837339 1.3346314290
5.3945007709 7.1998300150 1.6487579701
5.1045469559 7.4335315147 13.3862801418
4.6834133714 7.9734474818 13.6649332275
5.4348941944 7.9354538043 13.9821784939
4.6073861574 8.4194267877 2.4855498972
5.6615555255 8.0905082768 2.1689908665
5.6520537697 8.5969551007 14.5295414894
5.3017507632 8.8950766780 2.7629344729
4.9998696764 9.4066686120 3.2300726802
5.8479492992 9.4075474062 3.2045166491
5.8215578373 9.1688204127 14.9121429193
5.5936949737 9.7099506675 14.8451517366
5.9467889457 9.5785782638 15.0757158539
5.2387375630 9.8452068921 3.7039041138
5.4204229973 10.3252431471 4.2901732027
5.6560572630 10.6944462193 4.7901066666
6.0201227387 9.9606657708 14.9146347063
5.4114250063 10.2553431836 14.5068751956
5.5781789134 11.0527041226 5.5402291090
5.0462372933 11.4365641980 6.4363525698
5.6413642379 11.8527857833 7.1599928464
4.8201409733 11.5940186940 13.7432498131
5.2264399415 11.1174835458 14.0367250833
5.0331301353 12.3058718964 8.0402048700
4.8146007708 12.8022017765 8.8002938792
5.6650950034 12.7387034288 8.4880880906
5.2307993555 11.7021893854 13.7311062757
5.0030324661 12.1200800602 13.3528179170
5.2746624556 13.0863920954 8.9646053070
4.9524068277 13.2349200018 9.2765778035
5.6693575827 13.2008477256 9.0595408833
5.4187177891 12.6379591692 12.9162991017
5.2937510939 12.8698806614 12.6432330254
6.1211891789 1.7241833686 4.6472128360
6.7299469236 1.7118777816 4.1508461436
6.8626953584 1.4218048533 4.7347197061
6.6273204995 1.3961495295 5.3345314785
6.0761115697 1.6890484756 5.5441802828
6.5551776892 1.4481578675 5.8563033437
6.3833806045 1.6947385044 6.0966719010
6.7546542258 1.5910446654 6.1795850140
6.2465939969 2.0918563982 3.8181517734
6.7599502046 2.5308326138 3.2983219034
6.8069888256 2.0444922210 3.6942299725
5.9984777027 2.0115943075 6.0560945016
6.6299182192 2.1354237068 6.5163445605
6.4728913643 3.7799070076 2.0036697675
6.4668174198 3.1189303692 2.6668976817
6.3234272918 2.8621320564 7.0767374996
6.0101501856 3.3260044443 7.4961852876
6.8234109778 3.2999819417 7.7094101903
6.2317312453 4.8950727716 1.1633739680
6.5901339878 4.3952075098 1.4794629034
6.1441450991 3.8067106093 8.1481643795
6.8081147912 4.2625145339 8.9339935451
6.2307280316 5.5312972249 1.0366575164
6.4385399320 4.7271759005 9.5732215283
6.2082400018 5.1577247366 10.2490226767
6.0265342420 5.4959640192 10.8104439182
6.8308328522 5.4649185721 10.9029435196
6.6043298224 6.0621801913 1.1643259210
6.3055855685 5.8756647780 11.5285387924
6.0490456128 6.3540478347 12.3554166786
6.6381537270 6.7228979273 13.0239046375
6.1180184510 6.6722310623 1.3568353606
6.4575321305 7.3859066496 1.7685854749
6.0991327712 7.2943929840 13.5965915214
6.4802143695 7.9536800256 14.2574091779
6.8249580048 8.0306223720 2.2326748395
6.2888055983 8.4639845672 14.7310281517
6.0228671909 8.7304547018 14.8535373724
6.3814713300 8.8160249302 14.9588664460
6.5575133473 8.7455068470 2.7488981123
6.6692706484 9.3620168920 3.3026043308
6.3507219463 9.3145849713 15.1298894939
6.1514970125 9.6685645168 15.1538024783
6.4476621473 9.9249546091 3.8933724966
6.1156953348 10.4684457352 4.4366318761
6.7429575270 10.4070835471 4.5108573710
6.5503750552 9.9489534331 14.8541605232
6.3179803456 10.6173325413 14.3064410615
6.3970526883 9.7433641710 15.1194712927
6.4471692739 10.7825790455 5.0267584672
6.5701457008 11.1294488683 5.7836812614
6.1403064264 11.4497419976 6.3975912963
6.6885912363 11.7727889549 7.1613208517
5.8544256460 11.6675495809 13.6468764731
6.8938689003 11.3721173172 13.5198683615
6.3841356780 12.0080981637 13.2211138835
6.3000294812 12.2562205493 7.9321037271
6.4625476018 12.6775006384 8.5858538290
5.8868985394 12.3173381033 13.1185986459
6.3572127904 12.3374978717 12.9305578057
6.2268902824 12.6753099048 12.5651336330
6.0620762732 13.0162488208 8.8808372050
6.3896347143 13.1065650374 9.2080380567
6.0770611261 12.9262736939 12.3630468136
7.1528874739 1.5382859062 4.3789649030
7.3246182295 1.4386935414 4.7780267061
7.1943429789 1.3739950623 5.2724802028
6.9825953598 1.4035842227 5.8256838802
7.2200813424 1.7348035078 6.2038363552
7.1215512619 2.2303713760 3.5781378655
7.2692216472 1.9184584326 3.9800412236
7.4749414996 2.1968521846 6.5440495515
6.9526829714 3.4529200217 2.4006239343
7.4137419240 3.2418461654 2.8626351858
7.6721896380 2.5878925363 3.6161489196
7.3658816261 2.7589434036 7.1167693342
7.7769442963 3.3431008496 7.7536975866
6.9457613791 4.8313801145 1.3275301875
7.4136742954 4.5159953564 1.7968526316
7.4486531234 3.8587455590 2.3149047219
7.3057043112 3.7948269631 8.3227419752
7.8311774822 4.2942202397 8.9149924094
6.9351177177 5.4382678737 1.1678522480
7.4219644692 5.1323325826 1.4231993411
7.3555638831 4.6417224359 9.4866017440
7.2944047259 5.0823138578 10.1981590273
7.6473375193 5.4691146797 10.8565454679
7.2567819509 6.0057327884 1.2663233731
7.4518972904 5.8082287921 11.4815546928
7.1871981334 6.2590014165 12.3226357572
7.5042555883 6.6758472185 12.9589827803
7.2694847897 6.6106701425 1.5716192396
7.4432453081 7.4140671341 2.0629144070
7.3009560040 7.2496585607 13.5736962118
7.5879800949 8.0819740355 14.1802855430
7.7033311715 7.9237118162 2.5254371667
7.1557790446 8.3355319794 2.5388258229
7.5697441362 8.4670751216 2.9067344078
6.8723805867 8.4428402292 14.6969622711
6.8846290581 8.9580824052 14.9503240564
7.0348612820 9.5041172423 3.5889595141
7.5391592462 9.0118796886 3.4280654100
7.5294003778 9.5641022772 3.9861934598
6.7724978510 9.4983757749 15.0193549221
7.3065167212 9.1631453262 14.7468165878
7.2235050312 9.8125943832 14.5220295197
6.5162712907 9.5298427821 15.1893552881
7.1902831397 10.5683727680 4.9371761227
7.6181343091 10.0714764157 4.6177844598
7.8090850071 10.4887809741 5.2382943518
7.3891367454 10.5285225163 13.9996578014
7.4073531834 10.8724267646 5.6332948626
7.2961737299 11.3302481140 6.5774890182
7.4956172991 11.6602013575 7.3800153758
6.8850087385 12.1212398111 12.7772102822
7.6006338951 11.5330229822 12.9267279520
7.5476257608 12.0441587890 12.2897747866
7.7617787655 10.9187971123 13.4941542767
7.1646105990 11.9746935836 7.7950843994
6.8786857390 12.8512432648 9.2328883161
7.3475432739 12.2877592960 8.6533822851
7.2906700897 12.8654311611 10.0827396879
7.6024296492 12.5339890704 9.6963894163
7.6659264764 12.6544633711 10.3504402270
7.1217343517 12.5776921300 11.8728947406
7.8361711166 12.2539038368 11.5000512373
7.4714282169 12.6946157299 11.1523794766
6.9334213667 13.0136600373 9.8198869837
7.4696410488 12.8109248137 10.6543705962
7.1618388095 12.8917012638 10.9000794261
6.6593936372 12.8700707036 11.9141750733
7.5006993729 1.6573808298 4.4893263004
7.7556794168 1.7267252687 5.1105796215
7.4472674188 1.5524440317 5.7301374930
7.8283266267 2.0646028065 4.3569844286
8.2128212183 2.1955772686 4.8231904299
8.2651961524 2.1778976815 5.3670016195
8.5621101565 2.6001125192 5.8226704438
7.8849358320 2.0160664330 5.9602625254
8.1251357104 3.2835570174 3.2693944579
8.3705632909 3.0589218076 3.7419355391
8.3178120857 2.6206702514 4.2756713794
8.1353310590 2.6012180684 6.5725197040
8.2781284321 3.1013686928 7.2159783110
8.3555947348 3.4148846802 7.6805600953
7.9201557986 4.2972284553 2.2682616009
8.3710111261 4.0704451639 2.8955721227
8.4084417457 3.8482102883 8.1492744076
8.6641668274 4.4027956848 8.7446873575
7.6039450151 5.6865284749 1.4052062656
7.9534174687 5.3063785907 1.7698911392
8.2557961153 4.8233312582 2.2650813177
8.3833167004 4.8858756817 9.5648324613
8.1481557070 5.3092381985 10.4191865825
8.8910888408 5.4232379236 10.2307641270
7.6112351672 6.1225075425 1.4376188488
8.0508776235 6.0783998645 1.7991889325
8.4402329322 5.7516312850 11.0541592740
8.1730045178 6.1610679570 11.9399365907
7.9993321837 6.4778081852 12.5633305811
8.7039735663 6.5787200730 12.3447710240
7.9924018578 7.4473420754 2.3548840718
8.2715593536 6.8378615703 2.2844999437
8.4050317628 7.4932171703 2.7213920519
8.2269679473 6.9080995137 12.9884046296
8.3325694740 7.5240807613 13.5059497569
8.4004654172 8.1554592108 13.8507763327
8.0101183315 8.5470123669 3.2812141666
8.4261924390 8.0405012032 3.1970420912
8.4276655307 8.5783155827 3.6932772049
7.3874655572 8.6807907451 14.6357873650
7.9925179588 8.9821287950 14.2090277388
8.0596394729 9.6062132004 4.4072331904
8.4937237251 9.0715917979 4.2723615535
8.5747752489 9.6089226788 4.8860965424
7.9841106766 9.9301541178 14.0317451259
8.2068403102 10.6171445285 5.7652069742
8.6513797651 10.1119899242 5.5168645080
8.7920505202 10.5060094541 6.1620049269
7.9982715199 10.4167646096 13.7980933462
8.3077049255 10.1422357249 13.7576972735
8.3468132016 10.4900924949 13.4407527809
8.3444498123 10.9097249611 6.4870395770
7.8840473810 11.7952276207 8.0659855614
8.3214205696 11.3258254872 7.4826227433
8.1662964769 11.8919817382 8.7579380245
8.6338013901 11.5110665484 8.4950121873
8.6543483163 11.6903172551 9.1986701194
8.1918924144 11.0446410085 13.0164126478
8.2309351554 11.5376138813 12.2820239696
8.1573191239 12.0716952497 9.4608170111
7.7352638275 12.5803684567 10.8392173160
8.1758387019 12.1809370996 10.5339425392
8.4522719805 11.7915695495 11.4458254583
8.6253926904 2.6560880604 4.9946051131
8.5993140718 3.5306120776 3.5079055891
8.9113571538 3.3602002991 4.2680334762
9.1452845486 3.2472192942 5.4000582325
8.9812965222 3.2261243119 6.4827811131
9.4148681112 3.4907368627 5.9259078471
8.8145069394 3.5106661197 7.4198869241
9.3631874282 3.7585166160 7.0686443190
8.9472305175 3.9234922006 3.6089592173
9.3232845607 4.0883318288 4.0668405923
9.5147100960 3.9276867854 4.8008859784
9.6164043511 3.7842792689 5.5431678046
9.2076026253 3.9806219622 7.7362280149
9.0826131323 4.2517063923 8.2826919062
9.4506529911 4.3339807280 8.0168923358
8.5446142502 5.6363047890 2.2586592851
8.9154811655 5.1587554498 2.8821951050
9.2175133548 4.5905572502 3.5422606234
9.4924164765 4.8231101820 8.6379213972
9.2450637362 5.2216760211 9.6050597154
9.4229233897 5.5195957902 9.9992395547
8.5562982741 6.2047222021 2.2543711793
8.9954566467 6.1917284063 2.8389379810
9.5328552733 5.9643559033 10.6006592236
9.0243073958 6.2669267846 11.6214597698
9.2409752621 6.6523244937 12.0709160824
8.7917955109 7.5375353468 3.1088232050
8.9307744380 7.0641856124 3.0089979649
9.1370084710 7.5227940965 3.5402706303
9.2456491155 7.2443197167 12.6274864638
8.9216490823 7.8811133759 13.3869918624
9.4568830557 8.1795457123 12.9918553643
8.8587909917 8.5686024074 4.1060931896
9.0315018220 8.1316039740 3.9098999789
9.2945684166 8.4417657587 4.5056277207
8.8746721724 8.6146799009 13.5824161876
9.4088159921 9.0770573839 13.0619073682
9.0717824068 9.6178459446 5.3681275801
9.4636831229 9.0301274557 5.2521348268
9.4943567670 9.6365388689 5.8468958873
8.6934724092 9.7023497047 13.5330761372
9.2969369866 9.8415863687 12.9252363743
9.1133669283 10.6052715955 6.6964813711
9.5333966131 10.1024330136 6.4712360790
9.5898346121 10.4664397982 7.1324906776
8.8625166394 10.6155950172 12.7514289950
9.4646537484 10.2127960377 12.4906301170
9.3515559956 10.6729695519 12.1219550532
9.1145718071 10.8504871295 7.3017228426
9.2377341421 11.0338884759 8.2088742514
8.8229486277 11.6580960216 9.9894927287
9.3046894482 11.1906910549 9.2973707527
8.9290785088 11.5171989002 10.9628086062
9.4805018929 11.0608166830 10.4384363363
8.9265844194 11.2179812168 11.8563764784
9.4675024881 10.8813517686 11.4088640491
9.6906607793 3.9214921973 6.2941835902
9.7096989491 4.6913026302 4.3350565256
10.0451703950 4.5679403444 5.3898470300
10.1844567266 4.5821126698 6.3629771458
9.8324635724 4.4128634109 7.3598488139
9.6062777845 5.6191245991 3.7607046484
10.1683263655 5.4375338514 4.7386336721
10.4880930825 5.3351319469 5.3686532152
10.5629585034 5.1457970903 6.0018822881
10.5257904165 5.1010091349 6.9168155105
10.3238619705 5.1610723704 7.8910562907
10.2302084933 5.4189425664 8.6768884177
10.6817564256 5.7176622252 8.3104449252
9.8716230418 5.5659500546 9.5153073810
9.5073671689 6.7525854783 3.6687748600
10.1874009010 6.5193002549 4.6334019577
10.6320797385 5.9691837040 5.2698821208
10.5639831951 5.9878893433 9.0876001721
10.3141199078 6.2208779987 9.9979263897
10.1779798027 6.5030718085 10.7392348959
10.5805705139 6.7596195706 10.4074516204
9.7435810262 6.6845542212 11.5468496308
9.7007534311 7.5857323615 4.3640962099
10.8868235239 6.7762799601 5.6476364476
10.3918681218 7.5051639158 5.2481065583
10.9244432494 7.5856431146 5.9874220852
10.4109689557 7.0396657785 11.0990828792
10.1162700322 7.3862071125 11.8762862769
9.9078043029 7.8715589482 12.4297649195
10.3719318462 8.0795116640 11.9011555249
9.9101187883 8.1928049370 5.0580186942
10.4439725411 8.3566165912 5.8914181180
10.0024638136 8.6914657760 12.4164328345
10.4539476256 8.7232431798 11.7769766481
9.9001101087 9.6437761076 6.3202338644
10.1029763448 9.1983101902 6.1565762882
10.2473382547 9.5679338025 6.7887112985
10.2199208172 9.4708671939 11.7600241565
10.6134211299 9.0508414581 11.3048846278
10.5057442994 9.5798553523 11.0145093250
9.7533725320 9.5907755260 12.4901409386
9.8000396747 10.5364817693 7.8526650366
10.1166116732 10.0472732823 7.3564358300
9.9475307558 10.5869547663 8.8120220984
10.4304638042 9.9954181014 8.2733473188
10.0272829926 10.5387875943 9.8697215052
10.5422323647 9.9679905592 9.2835977417
10.0506717535 10.2785656966 10.9883375839
10.5317453136 9.8466889056 10.2605966420
9.7720077446 10.2217815516 11.9198641946
10.7899015234 5.6648217092 5.7415914398
11.0450847302 5.8397481681 6.5305564936
10.9011170966 5.7234750017 7.5506285971
10.9828061771 6.1388472564 5.8466659538
11.3114909129 6.5208925680 6.3373817389
11.4834796877 6.3987161893 6.8519485778
11.6715319558 6.6532770428 7.2925823260
11.3721874250 6.2721730443 7.3840831089
11.1602334894 6.4656636640 8.4381333152
10.8418682330 6.7125304213 9.6445319977
11.2247378609 8.0660536236 6.7447588738
11.4235405048 7.2446637711 6.5140590359
11.6046733462 6.7339834190 7.8125776148
11.6709954737 7.6842374762 7.0538574449
11.6234754532 7.2521406746 8.3725232638
11.5957986830 7.9841771581 8.7888272016
11.2526345224 7.5177602469 9.3858829767
10.8451545692 7.4437768535 10.5065851500
10.5732819351 7.6324144269 11.3568210341
10.7347669724 8.8848428980 6.8054762726
11.6357865919 8.0710302916 7.3871949096
11.3008848710 8.6432199907 7.6411092457
11.7279435941 8.1823696106 7.9203890256
11.2321712278 8.5730896296 9.4779211636
11.4916250089 8.5363229708 8.7674626545
11.0466479313 8.1931055724 10.2558337949
10.7461071281 8.3143514356 11.1488240303
10.7171908649 9.4127983469 7.5958211005
11.5277243665 8.5806979959 8.3077421509
11.0780595423 9.1730186208 8.6548432238
10.9019143714 9.3662926401 9.6756205431
10.8529391024 9.0283481572 10.5028540442
11.6691054554 6.8560574627 6.9234042330
11.7867379245 7.3213192945 7.1184797638
11.8313639379 7.1389149449 7.6216742963
11.8495705128 7.7277103066 8.0878539249
11.9551425108 7.5364297848 7.7708835106
11.8671847815 7.7541391445 7.5635708073
11.7117123054 8.2229649946 8.4104041967
3 2 1 0
3 4 3 0
3 0 3 2
3 4 5 3
3 8 7 6
3 8 6 1
3 6 0 1
3 6 9 0
3 0 10 4
3 0 9 10
3 5 4 11
3 4 12 11
3 4 10 12
3 12 13 11
3 7 14 6
3 16 15 14
3 15 6 14
3 15 9 6
3 9 17 10
3 9 15 17
3 10 18 12
3 10 17 18
3 13 12 19
3 12 20 19
3 12 18 20
3 20 21 19
3 16 22 15
3 24 23 22
3 23 15 22
3 23 17 15
3 17 25 18
3 17 23 25
3 18 26 20
3 18 25 26
3 21 20 27
3 20 28 27
3 20 26 28
3 28 29 27
3 24 30 23
3 23 30 25
3 25 30 31
3 33 32 31
3 32 25 31
3 32 26 25
3 26 34 28
3 26 32 34
3 29 28 35
3 28 36 35
3 28 34 36
3 36 37 35
3 33 38 32
3 40 39 38
3 39 32 38
3 39 34 32
3 34 41 36
3 34 39 41
3 37 36 42
3 42 36 41
3 40 43 39
3 39 43 41
3 41 43 44
3 41 44 42
3 47 46 45
3 49 48 45
3 45 48 47
3 49 50 48
3 53 52 51
3 53 51 46
3 46 51 45
3 51 1 45
3 1 2 45
3 45 2 3
3 45 3 49
3 55 54 5
3 5 54 3
3 54 50 3
3 50 49 3
3 57 56 55
3 55 56 54
3 57 58 56
3 61 60 59
3 61 59 52
3 52 59 51
3 59 7 51
3 7 8 51
3 51 8 1
3 11 55 5
3 55 11 13
3 62 55 13
3 57 55 62
3 58 57 63
3 63 57 62
3 60 64 59
3 64 66 65
3 64 65 14
3 59 64 14
3 7 59 14
3 65 16 14
3 19 62 13
3 68 67 21
3 21 67 19
3 67 63 19
3 63 62 19
3 68 69 67
3 66 70 65
3 70 72 71
3 70 71 22
3 65 70 22
3 16 65 22
3 71 24 22
3 27 68 21
3 74 73 29
3 29 73 27
3 73 69 27
3 69 68 27
3 76 75 74
3 74 75 73
3 76 77 75
3 72 78 71
3 78 80 79
3 78 79 30
3 71 78 30
3 24 71 30
3 81 31 30
3 81 30 79
3 81 33 31
3 35 74 29
3 74 35 37
3 82 74 37
3 76 74 82
3 77 76 83
3 76 84 83
3 76 82 84
3 86 85 84
3 84 85 83
3 86 87 85
3 80 88 79
3 79 88 81
3 81 88 89
3 89 91 90
3 89 90 38
3 81 89 38
3 33 81 38
3 90 40 38
3 42 92 82
3 42 82 37
3 82 93 84
3 82 92 93
3 84 94 86
3 84 93 94
3 87 86 95
3 95 86 94
3 91 96 90
3 90 96 40
3 96 43 40
3 96 97 43
3 43 98 44
3 97 98 43
3 44 98 42
3 98 99 42
3 99 92 42
3 99 98 100
3 92 101 93
3 92 99 101
3 103 94 102
3 94 101 102
3 94 93 101
3 94 103 95
3 100 104 99
3 99 104 101
3 101 104 105
3 101 105 102
3 108 107 106
3 110 109 106
3 106 109 108
3 46 47 110
3 47 109 110
3 47 111 109
3 112 47 48
3 112 111 47
3 114 113 50
3 113 48 50
3 113 112 48
3 114 115 113
3 106 107 116
3 116 107 117
3 116 52 53
3 110 116 53
3 106 116 110
3 110 53 46
3 54 114 50
3 118 115 114
3 54 118 114
3 56 118 54
3 120 119 58
3 119 56 58
3 119 118 56
3 120 121 119
3 116 117 61
3 117 60 61
3 117 122 60
3 116 61 52
3 63 123 120
3 63 120 58
3 121 120 124
3 120 125 124
3 120 123 125
3 125 126 124
3 64 60 127
3 60 128 127
3 60 122 128
3 127 66 64
3 67 123 63
3 123 67 69
3 129 123 69
3 125 123 129
3 126 125 130
3 125 131 130
3 125 129 131
3 131 132 130
3 128 133 127
3 133 135 134
3 133 134 70
3 127 133 70
3 66 127 70
3 134 72 70
3 73 129 69
3 129 73 75
3 129 75 131
3 137 136 77
3 77 136 75
3 136 132 75
3 132 131 75
3 139 138 137
3 137 138 136
3 139 140 138
3 135 141 134
3 141 143 142
3 141 142 78
3 134 141 78
3 72 134 78
3 142 80 78
3 83 137 77
3 137 83 85
3 137 85 139
3 145 144 87
3 87 144 85
3 144 140 85
3 140 139 85
3 145 146 144
3 143 147 142
3 147 149 148
3 147 148 88
3 142 147 88
3 80 142 88
3 150 89 88
3 150 88 148
3 150 91 89
3 152 151 145
3 87 152 145
3 95 152 87
3 145 151 146
3 149 153 148
3 148 153 150
3 150 153 154
3 150 154 91
3 154 96 91
3 154 155 96
3 155 157 156
3 97 155 156
3 96 155 97
3 158 98 97
3 158 97 156
3 158 100 98
3 102 159 103
3 159 160 103
3 160 95 103
3 160 152 95
3 157 161 156
3 156 161 158
3 158 161 162
3 158 162 100
3 162 104 100
3 162 163 104
3 163 165 164
3 105 163 164
3 104 163 105
3 164 166 105
3 105 166 102
3 166 167 102
3 167 159 102
3 159 167 160
3 164 165 168
3 168 165 169
3 166 164 170
3 170 164 168
3 173 172 171
3 175 174 171
3 171 174 173
3 177 176 175
3 175 176 174
3 177 178 176
3 180 179 108
3 108 179 107
3 109 171 172
3 180 109 172
3 108 109 180
3 171 109 111
3 171 111 175
3 175 111 112
3 175 112 177
3 181 178 177
3 112 181 177
3 113 181 112
3 183 182 115
3 182 113 115
3 182 181 113
3 183 184 182
3 187 186 185
3 179 187 185
3 117 179 185
3 107 179 117
3 118 183 115
3 188 184 183
3 118 188 183
3 119 188 118
3 190 189 121
3 189 119 121
3 189 188 119
3 190 191 189
3 186 192 185
3 117 185 192
3 193 117 192
3 122 117 193
3 124 190 121
3 195 194 126
3 126 194 124
3 194 191 124
3 191 190 124
3 195 196 194
3 193 128 122
3 197 128 193
3 130 195 126
3 199 198 132
3 132 198 130
3 198 196 130
3 196 195 130
3 201 200 199
3 199 200 198
3 201 202 200
3 197 203 128
3 128 203 133
3 135 133 203
3 135 203 204
3 136 199 132
3 199 136 138
3 199 138 201
3 206 205 140
3 140 205 138
3 205 202 138
3 202 201 138
3 206 207 205
3 204 208 135
3 135 208 141
3 143 141 208
3 143 208 209
3 144 206 140
3 144 146 206
3 146 207 206
3 146 210 207
3 209 211 143
3 143 211 147
3 149 147 211
3 149 211 212
3 152 213 151
3 213 214 151
3 214 146 151
3 214 210 146
3 212 215 149
3 149 215 153
3 153 216 154
3 215 216 153
3 216 218 217
3 155 216 217
3 154 216 155
3 217 157 155
3 220 219 213
3 152 220 213
3 160 220 152
3 213 219 214
3 218 221 217
3 217 221 157
3 221 161 157
3 221 222 161
3 222 224 223
3 162 222 223
3 161 222 162
3 225 163 162
3 225 162 223
3 225 165 163
3 166 226 167
3 226 227 167
3 227 160 167
3 227 220 160
3 224 228 223
3 230 229 228
3 229 223 228
3 229 225 223
3 229 169 165
3 229 165 225
3 232 231 226
3 166 232 226
3 170 232 166
3 226 231 227
3 235 234 233
3 237 236 233
3 233 236 235
3 237 238 236
3 241 240 239
3 172 173 239
3 173 241 239
3 173 242 241
3 174 233 234
3 242 174 234
3 173 174 242
3 233 174 176
3 233 176 237
3 244 243 178
3 178 243 176
3 243 238 176
3 238 237 176
3 244 245 243
3 248 247 246
3 248 246 240
3 240 246 239
3 246 179 239
3 179 180 239
3 239 180 172
3 181 244 178
3 249 245 244
3 181 249 244
3 182 249 181
3 251 250 184
3 250 182 184
3 250 249 182
3 251 252 250
3 246 247 187
3 247 186 187
3 247 253 186
3 246 187 179
3 188 251 184
3 254 252 251
3 188 254 251
3 189 254 188
3 189 191 254
3 254 191 255
3 192 186 256
3 186 257 256
3 186 253 257
3 256 193 192
3 258 255 191
3 258 191 194
3 260 259 196
3 259 194 196
3 259 258 194
3 262 261 260
3 260 261 259
3 262 263 261
3 257 264 256
3 193 256 264
3 265 193 264
3 197 193 265
3 198 260 196
3 260 198 200
3 260 200 262
3 267 266 202
3 202 266 200
3 266 263 200
3 263 262 200
3 267 268 266
3 203 197 269
3 197 270 269
3 197 265 270
3 269 204 203
3 205 267 202
3 205 207 267
3 207 268 267
3 207 271 268
3 270 272 269
3 272 274 273
3 272 273 208
3 269 272 208
3 204 269 208
3 273 209 208
3 210 276 275
3 271 210 275
3 207 210 271
3 276 277 275
3 274 278 273
3 273 278 209
3 278 211 209
3 278 279 211
3 212 211 279
3 212 279 280
3 282 281 276
3 210 282 276
3 214 282 210
3 276 281 277
3 280 283 212
3 212 283 215
3 215 284 216
3 283 284 215
3 218 216 284
3 218 284 285
3 220 286 219
3 286 287 219
3 287 214 219
3 287 282 214
3 285 288 218
3 218 288 221
3 288 290 289
3 222 288 289
3 221 288 222
3 289 224 222
3 292 291 286
3 220 292 286
3 227 292 220
3 286 291 287
3 290 293 289
3 293 295 294
3 293 294 228
3 289 293 228
3 224 289 228
3 294 230 228
3 297 296 231
3 297 231 232
3 227 231 292
3 292 231 296
3 300 299 298
3 302 301 298
3 298 301 300
3 304 303 302
3 302 303 301
3 304 305 303
3 308 307 306
3 308 306 299
3 299 306 298
3 306 234 298
3 234 235 298
3 298 235 236
3 298 236 302
3 302 236 238
3 309 302 238
3 304 302 309
3 305 304 310
3 310 304 309
3 312 311 241
3 241 311 240
3 242 306 307
3 312 242 307
3 241 242 312
3 306 242 234
3 243 309 238
3 314 313 245
3 245 313 243
3 313 310 243
3 310 309 243
3 314 315 313
3 317 316 248
3 248 316 247
3 248 240 311
3 248 311 317
3 249 314 245
3 318 315 314
3 249 318 314
3 250 318 249
3 250 252 318
3 318 252 319
3 316 253 247
3 320 253 316
3 321 319 252
3 321 252 254
3 323 322 255
3 322 254 255
3 322 321 254
3 323 324 322
3 320 257 253
3 325 257 320
3 258 323 255
3 326 324 323
3 258 326 323
3 259 326 258
3 327 259 261
3 327 326 259
3 261 263 327
3 327 263 328
3 325 329 257
3 257 329 264
3 265 264 329
3 265 329 330
3 331 328 263
3 331 263 266
3 266 268 331
3 331 268 332
3 330 270 265
3 333 270 330
3 271 335 334
3 332 271 334
3 268 271 332
3 335 336 334
3 333 337 270
3 270 337 272
3 274 272 337
3 274 337 338
3 275 335 271
3 340 339 277
3 277 339 275
3 339 336 275
3 336 335 275
3 338 341 274
3 274 341 278
3 341 343 342
3 279 341 342
3 278 341 279
3 342 280 279
3 345 344 281
3 345 281 282
3 277 281 340
3 281 346 340
3 281 344 346
3 343 347 342
3 342 347 280
3 347 283 280
3 347 348 283
3 283 349 284
3 348 349 283
3 285 284 349
3 285 349 350
3 353 352 351
3 352 345 351
3 345 287 351
3 345 282 287
3 350 354 285
3 285 354 288
3 290 288 354
3 290 354 355
3 358 357 356
3 356 357 353
3 356 353 351
3 292 356 351
3 291 292 351
3 291 351 287
3 355 359 290
3 290 359 293
3 295 293 359
3 295 359 360
3 358 356 296
3 297 358 296
3 361 358 297
3 296 356 292
3 363 362 300
3 300 362 299
3 364 300 301
3 364 363 300
3 365 301 303
3 365 364 301
3 303 305 365
3 365 305 366
3 367 307 308
3 368 367 308
3 299 368 308
3 362 368 299
3 310 366 305
3 310 369 366
3 370 311 312
3 371 370 312
3 371 312 307
3 372 371 307
3 367 372 307
3 372 367 368
3 373 369 310
3 373 310 313
3 313 315 373
3 373 315 374
3 375 316 317
3 376 375 317
3 376 317 311
3 377 376 311
3 370 377 311
3 377 370 371
3 378 374 315
3 378 315 318
3 318 319 378
3 378 319 379
3 381 380 375
3 380 316 375
3 380 320 316
3 381 375 376
3 382 379 319
3 382 319 321
3 383 321 322
3 383 382 321
3 322 324 383
3 383 324 384
3 380 325 320
3 385 325 380
3 386 384 324
3 386 324 326
3 387 326 327
3 387 386 326
3 327 328 387
3 387 328 388
3 385 389 325
3 325 389 329
3 330 329 389
3 330 389 390
3 391 388 328
3 391 328 331
3 331 332 391
3 391 332 392
3 394 333 393
3 333 390 393
3 333 330 390
3 395 394 393
3 396 392 332
3 396 332 334
3 334 336 396
3 396 336 397
3 394 337 333
3 399 398 338
3 399 338 337
3 395 399 337
3 394 395 337
3 400 398 399
3 403 402 401
3 404 401 339
3 401 397 339
3 397 336 339
3 397 401 402
3 398 341 338
3 406 405 343
3 406 343 341
3 400 406 341
3 398 400 341
3 407 405 406
3 403 401 344
3 345 403 344
3 408 403 345
3 344 401 346
3 346 401 404
3 405 347 343
3 407 409 405
3 409 347 405
3 409 348 347
3 348 410 349
3 409 410 348
3 350 349 410
3 350 410 411
3 414 413 412
3 352 353 412
3 413 352 412
3 415 352 413
3 345 352 408
3 408 352 415
3 411 416 350
3 350 416 354
3 418 417 355
3 354 418 355
3 416 418 354
3 420 419 417
3 420 417 418
3 421 419 420
3 424 423 422
3 422 423 414
3 422 414 412
3 358 422 412
3 357 358 412
3 357 412 353
3 417 359 355
3 359 417 360
3 417 425 360
3 417 419 425
3 419 421 426
3 427 419 426
3 425 419 427
3 427 426 424
3 422 427 424
3 428 427 422
3 361 428 358
3 358 428 422
3 429 362 363
3 364 430 363
3 363 430 429
3 365 431 364
3 364 431 430
3 366 431 365
3 432 368 429
3 429 368 362
3 430 434 433
3 432 430 433
3 429 430 432
3 436 435 434
3 430 436 434
3 431 436 430
3 369 436 366
3 366 436 431
3 438 437 372
3 372 437 371
3 372 368 432
3 439 372 432
3 438 372 439
3 439 432 433
3 440 435 436
3 440 436 369
3 373 440 369
3 441 440 373
3 373 374 441
3 441 374 442
3 443 376 377
3 444 443 377
3 371 444 377
3 437 444 371
3 445 442 374
3 445 374 378
3 378 379 445
3 445 379 446
3 447 380 381
3 448 447 381
3 448 381 376
3 449 448 376
3 443 449 376
3 449 443 444
3 450 446 379
3 450 379 382
3 452 450 451
3 450 383 451
3 450 382 383
3 384 451 383
3 453 385 447
3 447 385 380
3 447 448 454
3 447 454 453
3 455 452 451
3 455 451 384
3 386 455 384
3 456 455 386
3 458 456 457
3 456 387 457
3 456 386 387
3 388 457 387
3 453 389 385
3 460 459 390
3 460 390 389
3 454 460 389
3 453 454 389
3 461 459 460
3 462 458 457
3 462 457 388
3 391 462 388
3 463 462 391
3 391 392 463
3 463 392 464
3 459 393 390
3 466 465 395
3 466 395 393
3 461 466 393
3 459 461 393
3 467 465 466
3 392 396 468
3 469 392 468
3 464 392 469
3 397 468 396
3 465 399 395
3 471 470 400
3 471 400 399
3 467 471 399
3 465 467 399
3 472 470 471
3 469 468 402
3 403 469 402
3 473 469 403
3 402 468 397
3 470 406 400
3 475 474 407
3 475 407 406
3 472 475 406
3 470 472 406
3 476 474 475
3 479 478 477
3 478 473 477
3 473 408 477
3 473 403 408
3 474 409 407
3 476 480 474
3 480 409 474
3 480 410 409
3 482 481 411
3 410 482 411
3 480 482 410
3 484 483 481
3 484 481 482
3 485 483 484
3 487 486 413
3 487 413 414
3 477 415 479
3 415 486 479
3 415 413 486
3 415 477 408
3 481 416 411
3 416 481 418
3 418 481 483
3 485 488 483
3 488 418 483
3 488 420 418
3 490 489 421
3 420 490 421
3 488 490 420
3 423 424 489
3 490 423 489
3 491 423 490
3 414 423 487
3 487 423 491
3 489 426 421
3 426 489 424
3 492 433 434
3 435 492 434
3 493 437 438
3 439 494 438
3 438 494 493
3 433 492 439
3 492 494 439
3 492 495 494
3 495 492 435
3 496 495 435
3 440 496 435
3 497 495 496
3 499 496 498
3 496 441 498
3 496 440 441
3 442 498 441
3 500 444 493
3 493 444 437
3 494 502 501
3 500 494 501
3 493 494 500
3 502 494 495
3 502 495 503
3 503 495 497
3 504 499 498
3 506 504 505
3 505 504 445
3 504 498 445
3 498 442 445
3 446 505 445
3 507 448 449
3 508 507 449
3 508 449 444
3 509 508 444
3 500 509 444
3 509 500 501
3 510 506 505
3 510 505 446
3 450 510 446
3 511 510 450
3 450 452 511
3 511 452 512
3 513 454 507
3 507 454 448
3 507 508 514
3 507 514 513
3 515 512 452
3 515 452 455
3 516 455 456
3 516 515 455
3 456 458 516
3 516 458 517
3 513 460 454
3 519 518 461
3 519 461 460
3 514 519 460
3 513 514 460
3 520 518 519
3 521 517 458
3 521 458 462
3 523 521 522
3 521 463 522
3 521 462 463
3 464 522 463
3 518 466 461
3 525 524 467
3 525 467 466
3 520 525 466
3 518 520 466
3 526 524 525
3 523 522 527
3 523 527 528
3 469 527 464
3 464 527 522
3 524 471 467
3 530 529 472
3 530 472 471
3 526 530 471
3 524 526 471
3 531 529 530
3 528 527 532
3 528 532 533
3 473 532 469
3 469 532 527
3 529 475 472
3 535 534 476
3 535 476 475
3 531 535 475
3 529 531 475
3 536 534 535
3 539 538 537
3 537 538 533
3 537 533 532
3 479 537 532
3 478 479 532
3 478 532 473
3 534 480 476
3 536 540 534
3 540 480 534
3 540 482 480
3 482 541 484
3 540 541 482
3 543 542 485
3 484 543 485
3 541 543 484
3 545 544 542
3 545 542 543
3 547 546 544
3 547 544 545
3 546 547 539
3 546 539 537
3 487 546 537
3 486 487 537
3 486 537 479
3 542 488 485
3 488 542 490
3 490 542 544
3 490 544 491
3 491 544 546
3 491 546 487
3 548 497 496
3 499 548 496
3 549 501 502
3 503 550 502
3 502 550 549
3 497 548 503
3 548 550 503
3 548 551 550
3 504 552 499
3 552 548 499
3 552 551 548
3 506 552 504
3 553 508 509
3 501 549 509
3 549 553 509
3 549 554 553
3 550 556 555
3 554 550 555
3 549 550 554
3 556 550 551
3 556 551 557
3 557 551 552
3 557 552 558
3 560 558 559
3 559 558 510
3 558 552 510
3 552 506 510
3 511 561 510
3 510 561 559
3 512 561 511
3 562 514 553
3 553 514 508
3 563 553 554
3 562 553 563
3 554 555 564
3 554 564 563
3 565 560 559
3 565 559 561
3 565 561 566
3 568 566 567
3 567 566 515
3 566 561 515
3 561 512 515
3 516 569 515
3 515 569 567
3 517 569 516
3 562 519 514
3 519 562 520
3 562 570 520
3 562 563 570
3 563 564 571
3 572 563 571
3 570 563 572
3 573 572 571
3 574 568 567
3 574 567 569
3 574 569 575
3 577 575 576
3 576 575 521
3 575 569 521
3 569 517 521
3 523 576 521
3 570 525 520
3 525 570 526
3 570 578 526
3 570 572 578
3 572 573 579
3 572 579 578
3 577 576 580
3 577 580 581
3 528 580 523
3 523 580 576
3 578 530 526
3 583 582 531
3 583 531 530
3 579 583 530
3 578 579 530
3 584 582 583
3 587 586 585
3 585 586 581
3 580 585 581
3 588 585 580
3 533 588 528
3 528 588 580
3 582 535 531
3 590 589 536
3 590 536 535
3 584 590 535
3 582 584 535
3 592 591 589
3 592 589 590
3 594 593 591
3 594 591 592
3 596 595 593
3 596 593 594
3 595 596 587
3 585 595 587
3 597 595 585
3 539 597 538
3 597 588 538
3 597 585 588
3 538 588 533
3 589 540 536
3 540 589 541
3 541 589 591
3 541 591 543
3 543 591 593
3 543 593 545
3 545 593 595
3 545 595 547
3 547 595 597
3 547 597 539
3 598 555 556
3 557 599 556
3 556 599 598
3 558 600 557
3 557 600 599
3 560 600 558
3 601 564 598
3 598 564 555
3 599 603 602
3 601 599 602
3 598 599 601
3 605 604 603
3 599 605 603
3 600 605 599
3 565 606 560
3 606 600 560
3 606 605 600
3 566 607 565
3 565 607 606
3 568 607 566
3 601 571 564
3 609 608 573
3 609 573 571
3 602 609 571
3 601 602 571
3 604 605 610
3 609 611 608
3 610 605 606
3 610 606 612
3 614 613 612
3 606 614 612
3 607 614 606
3 574 615 568
3 615 607 568
3 615 614 607
3 575 616 574
3 574 616 615
3 577 616 575
3 617 579 608
3 608 579 573
3 608 611 618
3 619 608 618
3 617 608 619
3 620 619 618
3 613 614 621
3 613 621 622
3 623 614 615
3 621 614 623
3 624 615 616
3 623 615 624
3 581 624 577
3 577 624 616
3 617 583 579
3 583 617 584
3 617 625 584
3 617 619 625
3 619 620 626
3 627 619 626
3 625 619 627
3 627 626 622
3 621 627 622
3 628 627 621
3 629 621 623
3 628 621 629
3 587 629 586
3 629 624 586
3 629 623 624
3 586 624 581
3 625 590 584
3 590 625 592
3 592 625 627
3 592 627 594
3 594 627 628
3 594 628 596
3 596 628 629
3 596 629 587
3 630 602 603
3 604 630 603
3 630 609 602
3 611 609 631
3 630 631 609
3 631 630 632
3 604 632 630
3 632 604 610
3 634 632 633
3 632 612 633
3 632 610 612
3 613 633 612
3 631 635 611
3 611 635 618
3 633 636 620
3 635 633 620
3 618 635 620
3 634 633 635
3 622 636 613
3 613 636 633
3 636 626 620
3 626 636 622