OFF
641 1224 0
1.4470002505 6.2464183109 9.0072650147
1.4715407016 6.0642559472 8.2078305041
1.8875962709 5.5664686459 8.5831824648
1.8190527328 5.7256605949 9.3535527826
1.3485477210 6.7029777007 7.3680078637
1.5038700695 6.9560426901 6.9596832153
1.5682664662 6.4668681355 6.9685718653
1.4736713570 6.2328415800 7.5375711841
1.2506406415 6.7673654458 8.1726705535
1.2101865171 6.9247076579 9.0382712376
1.8258390510 6.1344369635 9.8727353597
1.4050323713 6.7983053535 9.6877080361
1.7396783769 6.7612089676 10.2689078632
1.3392600012 7.2622112422 7.5290404104
1.2414021200 7.4817613438 8.1519148461
1.1977212887 7.4416984349 8.7742866985
1.3201984877 7.9646782666 8.5581116699
1.2856795198 7.4364869043 9.5117955128
1.5764176562 7.3716899910 10.1897729943
1.3893103258 8.0752320162 9.2679750221
1.5258968331 7.9653119387 9.9573911786
2.2960752179 5.9499083181 6.2761575381
2.4982834680 6.2534585867 5.7529695685
2.8692571385 5.6614159235 5.9452061575
2.5216324403 5.5033852843 6.6584211224
1.9392894412 5.9244640585 6.9810644527
2.4809295701 5.2327232755 7.6344100749
1.7706255942 5.7481544618 7.7746737171
2.4828173945 5.0568189073 8.6200059859
2.3309559386 5.2800980402 9.3573759331
2.0782811289 5.6370159190 9.7342332347
2.6737934652 5.5915636298 10.1295898518
1.9464349314 6.7367104419 6.3458228848
2.5377423869 7.0584611513 5.3768788478
2.2849722217 6.4171527620 10.5468049460
2.0805813229 7.1679009500 10.7245670938
2.6812329539 6.8264713031 11.0073919537
2.0601087463 7.8870787344 6.0591319099
2.4650215858 8.2092472377 5.3207983784
1.6488340923 7.7696035990 6.9745474686
1.4357352175 8.0131065853 7.9084047212
1.9889465339 8.0867211653 10.6398874231
2.6581268953 7.6061500494 11.2090988706
2.1706592928 8.8785739726 5.9480320507
2.4476584056 9.0488029134 5.4042059905
1.9017185143 8.7982636192 6.7341223051
1.7314645655 8.8240218343 7.6724531990
1.6447105909 8.7674760614 8.7590197128
1.8130183403 8.7539142170 9.9455409648
2.1877036848 8.9293499451 10.7126163168
2.6002536480 8.7048988085 11.1983646110
2.3113433514 9.5514483204 5.8304319126
2.1506183485 9.7684475245 6.5449829156
2.4210337206 10.2294005825 6.0046624171
1.9803649691 9.5983712875 7.3498170906
2.0927257692 9.8870892182 8.3657588069
2.1366864570 9.6734021318 9.5179945926
2.3205333656 9.5377423187 10.4123390972
2.5756113860 9.3735791375 10.9622019705
2.3738912749 10.5602815371 6.5725753041
2.5435951230 10.7550834956 6.2044617376
2.3369864178 10.5403473469 7.3934382024
2.6975248651 10.9955681896 8.4817846062
2.5518086485 10.5225315032 9.2489044487
2.7855432471 10.3074000428 10.1470966633
2.8465873541 9.8886811680 10.7931833548
2.7651668143 11.2632240748 6.6784773370
2.7845007501 11.3559067348 7.6537061071
3.0816727590 4.7289265352 8.3247946095
3.3241891283 4.7471254813 7.5593150639
3.8826480749 4.4391203861 8.0732298853
3.6217540949 4.5075428559 8.9073777725
2.9298011812 4.8003396450 9.0950361912
3.3910186636 4.6849736543 9.4831177979
2.9269487172 4.9951863174 9.6642861077
3.5220263034 4.9743769105 9.9780804036
3.0981484093 6.1920131654 5.1528487305
3.7697898029 5.4003583241 5.4546268233
3.2905014790 5.0680935285 6.6399352281
3.7425014699 5.4974632907 10.5385566269
3.0609092636 6.8254191648 4.7616588956
3.5319503959 7.0260060851 4.2289390990
3.3541103691 6.4793464284 4.6168922916
3.1286129305 6.1843883025 10.8317745114
3.5039603700 6.8607448068 11.2886771607
2.9514319622 7.6548170052 4.6992309194
3.4417408478 8.1709146710 4.0673961247
3.2490574694 7.4452087242 11.4675106493
2.8548494720 8.1942959186 11.4453560740
2.8852584344 8.8665412951 4.7562919232
3.4539140429 9.3289377255 4.0268521577
3.0988092098 9.0092898697 11.4637103939
3.0651371531 9.9882235202 4.7178767701
3.5258116378 10.3747155519 4.0976726217
2.6236035174 9.7556093116 5.3528863232
3.8830803248 9.4788916351 11.5306201898
3.2619582731 9.5786510217 11.2588699746
3.2578344169 10.7770596190 4.7169798442
3.6052834919 11.1549010694 4.3388053185
2.8682388497 10.7805924915 5.5637398903
2.8816019993 11.0419604863 9.1619837981
3.0572145750 10.9568398228 9.6740107593
3.3755531756 10.8474589736 10.2435826566
3.5971992709 10.3991567257 10.8229818054
3.4220815728 11.4842858433 5.0366320350
3.2356485889 11.7364516106 5.9374281256
3.2789690066 12.0244062714 6.6739770002
3.6177174973 12.3551695723 6.2597865951
3.2186288624 11.9416844310 7.4028245352
3.2220146448 11.7571191228 8.2536759519
3.3957860733 11.5212744057 9.1856442810
3.5768966938 11.2621302589 9.9201587678
3.8378874881 12.5872038770 7.0924622065
3.7510340440 12.3435714629 8.0311600596
4.0377137526 4.5445025383 7.1422782027
4.8495570769 4.1647592965 7.6777732472
4.4969844962 4.3089576902 8.7667197987
4.0837388478 4.5682299618 9.5244422468
4.4544990949 4.9469193282 10.1634584683
3.8387602650 6.1160214707 4.5017710439
4.5163439671 5.9639806273 3.9691587143
4.5050654030 5.4455214315 4.5904960791
4.6613832804 4.8930347514 5.3059198868
4.2401261691 4.7489256385 6.1913359757
4.6854751097 5.4954290658 10.7198649716
4.2403565572 6.6438144221 3.7284029980
4.6855314293 7.1109424911 3.0776610626
4.9904593711 6.2202557604 3.3002931722
4.1061266902 6.1102511610 11.0316585343
4.7800062064 6.8323409677 11.3494212983
4.0411964108 7.5980973430 3.5318727615
4.5650629386 8.0666364670 2.9248926016
4.0997526121 7.1702020443 11.5069817700
3.9771071989 8.6902691378 3.4142853205
4.5312737653 9.0921150226 2.8261936046
4.0357656598 9.9073128417 3.3409183854
4.5839111526 9.9298125393 2.7286554431
4.7388882575 9.2792670732 11.6147285483
4.5984096255 9.9624652939 11.4182237293
4.5115416235 10.8056491912 2.9064143186
5.2738598940 11.0450291764 2.4032437999
4.9944544934 10.2628745006 2.4375414161
3.9743134175 11.0147771076 3.6830598785
4.5644114780 10.8457957260 11.0104200869
4.0140629025 11.1433703817 10.4656669502
4.7406727302 11.5321874433 2.8217755225
4.4075214263 11.6706157434 3.3349878393
4.7102819394 11.9490042277 3.0482265406
4.0529124859 11.9930624565 4.3370475287
3.7621372217 12.2630614120 5.4618985904
3.7272036430 12.0835819338 8.7067846527
4.0561824724 12.0772654403 9.2617522048
4.1205773643 11.7045641121 9.8908236975
4.8028347422 12.4372189214 3.5254921075
4.5111893740 12.7626675773 4.3961968841
4.2844838255 12.8022283364 5.0827612217
4.6095866809 13.1036006233 4.7774048471
4.2083744334 12.9362748472 6.1176847269
4.6855202260 13.2683539557 7.1599154358
4.3967996277 12.8951430009 7.9441304556
4.2797350227 12.5225063105 8.7346808121
4.7770437072 13.3976847792 5.2866968781
4.7446345616 13.4622303251 6.3184734608
4.9852138485 4.4117356326 5.9181349328
5.2440398233 4.5149714265 5.1885543810
5.5283485584 4.1108369514 5.5732846746
5.4789849887 3.9256935790 6.5720153127
4.7166119122 4.3372116213 6.7042727301
5.8781401444 3.7760052456 7.7026885136
5.5142870412 4.1112539589 8.6684224174
5.0670890538 4.4950178778 9.5429850748
5.6335278945 5.0923250069 10.3235467695
5.0731816131 5.5146560553 3.8839927529
5.1769315956 4.9265644547 4.5512405105
5.3031473070 5.6568814886 10.8573745953
4.8644253997 6.0173651581 11.0685938345
5.4418459123 6.2181592177 11.1032632244
5.2740962174 6.7200633796 2.7368639790
5.9040708664 6.7609347325 2.3206360473
5.7533695259 6.0330221679 2.7537020010
5.5461961568 5.5796920903 3.2955433451
5.6833648714 6.9116877096 11.2481258542
5.2125096906 7.4691566485 2.5433535696
5.9121234485 7.7048230015 2.1191784213
4.9226064495 7.6040735953 11.5570382215
5.6840226423 7.9408198318 11.4458405168
5.1618507149 8.4316045913 2.4245443933
5.8733608816 8.7436292466 2.0480580925
5.1716789774 8.4944496643 11.6200297792
5.4105453713 9.1288327061 11.5757039310
5.1092575170 9.4247534700 2.3737369103
5.7997868500 9.9181771389 2.0643838168
5.7846745198 9.8951888812 11.5421611440
6.1373318439 10.7918381341 2.0124874271
4.9401625228 11.6965761533 10.6324119992
5.7718761873 10.9752469589 11.4067775468
5.1386365542 11.9333496469 2.7648588691
6.0646954935 11.7759522408 2.3005955453
4.7663448748 12.4244228052 9.6695942130
5.5114474288 12.5911396132 10.4872786596
5.9332523205 12.1322115464 11.1030718100
5.6087967396 12.5497469975 2.9108131999
5.3724518245 13.0065234927 3.4869427967
6.0125192593 13.1588284538 3.1693176587
4.9892846429 13.1797178143 4.2381327600
4.9231489670 13.2777839982 7.8927923320
5.0346676550 13.1132819311 8.6794327434
5.4893338137 13.1245632491 9.7252193655
6.0100652112 13.2084110586 10.5185449274
6.0939059338 12.7972576051 10.9288395413
5.5856249491 13.3988612814 3.7646978692
5.4376301462 13.6605753982 4.3977747294
5.1637528296 13.7355043785 5.0971589809
5.5037339652 13.8397880201 4.5609320054
4.9581162510 13.6553254995 5.9462287168
5.2183451507 13.6603875133 6.8885928670
5.6493953624 13.6504692190 7.7385258252
5.8475763430 13.6253226802 8.8914590460
5.9142350428 13.5220949714 9.8417787641
6.7514685119 2.8475166466 5.1498349388
6.9570319935 2.8891538765 4.4555098685
7.3246515739 2.3923054063 4.8706931836
7.2236741954 2.3783681008 5.6331038060
6.7192199520 2.8348980255 6.0289206993
7.1869866153 2.4852420731 6.2733049029
6.4541901140 3.4793234343 4.5349202477
6.8845025624 3.3930423828 3.8751469137
6.1261775748 3.5055848149 5.5982344593
7.0042541561 2.8212424779 6.7843603259
6.3460979121 3.3219328175 6.8338300913
6.9158360286 3.1513432498 7.3835217660
6.5660428732 3.4720018624 7.7375747576
7.2200622057 3.3945647664 8.0367998737
6.3797351001 4.1852549757 3.7205911390
6.8332955622 4.2599628472 3.0599833286
6.8238532610 3.8330787622 3.4414805062
5.8014230630 4.2375182020 4.6767030218
6.6149956147 3.8575123847 8.5780395324
6.1773316311 4.4010662112 9.4815536331
6.7481708056 4.8811003175 10.0208506774
6.2551497798 5.0988280459 3.0017602397
6.7003117926 5.7509731640 2.2652766720
6.9698136146 4.7897911000 2.5537291523
5.7069684580 4.9421340341 3.8095840104
5.8525188415 5.7481641200 10.8090495210
6.6863282930 5.6600494811 10.5403163371
6.7653069014 6.8713032371 1.9035052466
6.1700324092 6.3752977338 10.9764243367
7.0049195620 6.6138532831 10.8002332983
6.7471887839 7.9314077171 1.7949193279
6.3992466902 7.2655355376 11.1324378884
7.3430515494 7.6330655727 10.9418277824
6.7275845345 8.9745609694 1.7737133592
6.6340919660 8.1174333138 11.2398171640
6.5876518919 9.1539926937 11.4372270198
6.8521933337 10.0093291563 1.7536550201
6.6060654307 10.2380390416 11.5742536563
7.0000343600 11.0783697730 1.8284293636
6.5238558561 10.7620937035 11.6308220288
6.5009036955 11.3406219456 11.6246133659
7.1762377273 12.1029837234 2.0731206701
7.1295630644 11.7286853139 11.6453960039
6.6128707145 11.8586793408 11.5019890743
6.5093111543 12.6786840675 2.5772291413
6.9273731919 13.3307367063 2.9234232829
6.3598441805 13.0850490007 10.9656827309
6.8117594407 12.7261854876 11.2543810512
6.1563772391 13.6273419545 3.5978710300
5.8763647159 13.8253324114 4.0699532416
6.3196183677 13.7942985078 3.6476814809
6.1475069087 13.8963190144 7.1775848465
6.9146568796 14.0015759928 7.1981629793
6.8611504275 14.0405062844 6.9697349843
6.5584207236 13.9288836468 7.9710251381
6.3613383397 13.8940114391 8.5971812091
7.0410252029 14.0404073762 7.9174514556
6.0775692414 13.7293445776 9.4691459064
6.2732547156 13.5509913068 10.3773723786
6.6259667860 13.3140677141 10.9206816878
7.5749123041 2.6443261440 4.0681110804
7.7783480531 2.1287176322 4.7222557654
7.9342814675 1.9887628857 5.3770757627
7.7497456066 2.2117045329 6.1833451741
7.5166893048 2.5118449191 6.7235967481
8.2237769318 2.4124129181 6.8513223893
7.2828290945 3.4923203534 3.3069936511
7.8544967184 3.3913798933 2.9318662726
7.7637096563 2.9745845542 3.4180588775
7.6428435600 2.8997521613 7.3971338888
8.1383216500 3.3851414322 8.1854293665
7.4047156810 4.0857304154 2.6810400769
7.7633555704 4.6902922617 2.1015746925
7.8604971729 3.9036442276 2.4855051171
7.5796928372 3.7756932289 8.6802896936
7.4070203087 4.3591581759 9.3955075251
7.7542216812 5.2260726651 10.0672381567
7.6570382479 5.9721677099 1.7081704302
7.6072651082 6.0451260152 10.4799116355
7.8018422138 7.1381011301 1.5382511343
7.9095952130 6.8218589528 10.6185007230
7.5192295165 8.1949424762 1.5946951507
8.1976408360 7.5723479722 10.7130849452
7.7392383150 9.0579405157 1.5460407993
7.2569811778 8.5263823656 11.1591161604
8.1555933993 8.4759533368 10.9229092627
7.9751678414 10.1991392043 1.4900988400
7.6399583259 9.1741007249 11.2273974952
7.7195401295 10.1528286607 11.4386915240
8.1124204592 11.5049888315 1.6083007797
7.1994326093 10.5064973242 11.6248486568
8.1753598051 12.5308631891 2.0050250928
7.7966846044 11.5399715186 11.6089970453
7.5936712218 12.0947659951 11.5232567072
7.4430726820 12.9042745562 2.4236004997
7.6449800875 13.3112079616 2.6829050697
7.8006804301 12.7748400297 11.3762003405
6.8419743140 13.6573429951 3.2718598637
7.8947086233 13.5540521760 2.9793122306
8.0809528581 14.0371056546 6.6425283486
7.5560476811 14.0753966038 6.6777276538
7.6369195065 14.0514895175 7.3824222996
7.6691517967 14.0885354803 7.5856008524
6.8159985497 13.4842243647 10.8821868951
7.5443834045 13.2318688608 11.1849780109
8.4118041181 1.8760849238 4.6577063436
8.9685021964 1.8371663618 4.2222834219
9.1475675358 1.5142210559 4.7916163727
8.9654264453 1.4941275189 5.1959905438
8.6233293073 1.6669174228 5.4329770859
9.1841976123 1.5561809997 5.6815320064
8.4348537006 2.5590667015 3.5336401597
9.1264517030 2.7008552989 3.0332115626
9.4483429694 2.0963405757 3.8092521575
8.6579251135 1.9328415578 6.1145971316
9.2109653596 2.3504016254 6.8645918600
8.5252647787 3.5126162994 2.4671099510
9.2072335021 3.7148829766 1.9503482425
9.5010082318 3.1243603891 2.4752661851
8.7083648898 2.8743121005 7.5473323000
9.2160430492 3.4896498822 8.2163579609
8.7287582144 4.3349327650 1.7268511474
9.1186607363 4.8056987811 1.3252762846
9.5017909927 4.2204285255 1.5145188584
8.5362976200 4.0696030695 8.9414387944
8.3562583513 4.6985336604 9.5896641608
9.3221910726 4.8874461650 9.4111626441
8.4792097551 5.2356398570 1.4811243823
9.2216945357 5.4913648054 1.1631448760
8.7012349411 5.2469420641 9.8733594928
8.6767360948 6.1238695642 10.2305508641
8.5512944662 6.1775205087 1.3233060597
9.4238699411 6.2919437470 1.1168279661
8.6854927112 7.0825020963 10.4917332512
8.8074407140 6.9377950704 1.2793173243
8.6254865120 7.9483428091 1.3886564510
8.9581039354 7.8905490108 10.5976611173
8.8583360995 9.1073425003 1.3288891713
9.2810672885 8.9853120682 10.7143813048
8.8079586618 9.9440723446 1.2465895363
9.3615449776 10.2197195471 1.0950428826
9.3083697730 9.5621824794 1.1706264198
8.4696850835 9.5151830387 11.0943836611
8.7015878635 10.3571856686 11.2035197559
8.7507220556 10.7438056943 1.2648047616
9.5717720163 11.0976314245 1.0668417906
7.8436019886 10.8963117710 11.5822410353
8.5011953171 11.3868771415 11.3743604084
8.9633571049 11.5149642797 1.2974348192
9.0569154829 12.2636108778 1.5532261023
8.3698602923 12.4001493155 11.3819401080
8.3373801020 13.2348164086 2.5400740896
9.0880106386 12.9625493255 2.0667796941
8.5653350396 13.0602786110 11.2130790827
9.2278411802 13.3589717958 2.6053977130
8.9578541109 13.6063394625 3.2369696026
8.6541644204 13.7386707548 3.3626823189
9.1146747070 13.7888154783 3.9227421091
8.4077618005 14.0429568065 6.1013703724
9.1080385424 13.8671049224 5.7372888683
8.9048042085 13.9917573597 5.5247772981
8.9120442058 13.9081343996 6.9140777938
8.3694157589 14.0361622529 7.3490100129
9.3099629200 13.8849731393 7.3993323967
8.5692221494 13.3966837459 11.1326317310
8.9298750153 13.3804389514 11.0722095503
9.1630002472 13.4520501725 10.9231272136
9.4532951234 1.6455300371 4.4593809603
9.6169118305 1.4921789142 4.9239654425
9.4250423098 1.4224735565 5.3043187657
9.5916467898 1.5222675255 5.6661938638
9.8833886718 2.5346768805 3.1588435686
10.3016692641 2.1729911979 3.8857990780
10.0545021564 1.8004234629 4.6534221784
9.7338921202 1.8783906094 6.0981479071
10.0309018882 2.3673449987 6.7782066732
9.9803426337 3.6164295511 1.9439643231
10.4958133916 3.0103770936 2.6899292465
9.8774808826 2.9209220066 7.4576056354
10.3234724533 3.6919364061 8.1121010796
9.8160295257 4.8648547039 1.1913239095
10.3454622103 4.2454150259 1.4748546413
9.7159002809 4.1992719456 8.7526692784
10.3700027851 4.9382471453 8.9959693538
10.0454139002 5.6173425165 1.0451019193
9.3262023525 5.6011994137 9.8492944401
10.1899190890 5.7962363629 9.5593022716
10.2803003876 6.3625086822 1.0681637641
9.6523490780 6.2112104830 9.9860895774
9.6611134595 7.1471780372 10.2426956381
9.6408853150 7.1298126259 1.1965549591
10.0193362690 8.1722784401 1.3043809267
9.7303093617 8.1792398207 10.4461229172
9.6828389467 9.0548139495 1.2109106944
9.9972081500 9.6706098905 1.0970035366
10.3116144954 8.9661722298 1.2389173427
10.1221987267 8.8797020827 10.4143136401
9.9756209478 10.4392843603 0.9916969973
9.2382511294 9.9419263900 10.9227311707
10.2082806077 10.0725264658 10.4711543528
10.2931657225 10.9896132459 0.9578183893
9.4168247066 10.8051243180 10.9730476651
10.1174671859 11.3959056379 10.5961241607
9.5318783261 11.8556304665 1.2063553865
10.3527375957 11.8377214457 1.0699814320
9.4896718519 11.6988523525 10.9886950743
9.1762060855 12.4613954199 11.0986204526
9.8382810403 12.3386517755 1.3113889231
9.8602751044 12.8005351388 1.6643559662
9.3359081887 13.1815596877 10.9091231279
9.6411618016 12.8381252787 10.8286916044
9.8956958968 13.1036310551 10.5323519048
9.9311442455 13.1920180896 2.2485151015
9.8398552912 13.4104326334 3.0716783800
9.1967297963 13.8811493328 4.8488125303
9.6455169248 13.5841772492 4.3113584808
9.8865010418 13.4753357829 5.3867521352
9.8194421535 13.5470209593 6.3350054629
9.8947733621 13.7678606743 7.7439037700
10.1030044507 13.5317389867 7.4877109480
10.2841371816 13.5998405921 8.2678061624
9.7534549143 13.3967195120 10.5182684569
10.0820939305 13.3281509047 10.2468691409
10.1965782143 13.3918687933 9.9831263368
9.8742535231 1.5995274007 5.3934193748
10.5596336840 2.5001958555 3.3815756368
10.8951423874 2.3483308431 3.8920098502
10.9264191109 2.1768944771 4.6165565496
10.5726966842 2.0146445783 5.5500069268
10.4839417987 2.2307643896 6.3374964175
11.1298952516 2.4824137804 6.1829286613
10.9737773345 3.7310719921 2.0223109104
11.4035694576 3.2648791643 2.7755678053
11.2248897638 2.7422273077 3.4973028146
10.6898976768 2.6784923651 6.8716531888
10.8454222967 3.2444919926 7.4519658011
11.0520631268 3.7329773579 7.8277588587
10.7279199002 4.9956026048 1.1981157770
11.0706223809 4.3680246875 1.5204991279
10.5215757615 4.3300763093 8.5460656069
10.9535422288 4.1265670440 8.1835059444
10.7479082764 5.7550454000 1.0702886757
11.2226132813 4.8061254136 8.4349853167
11.2004449466 5.7741556762 8.9864053526
11.0548864955 6.2992682120 1.1685626286
10.2610893124 6.6074269791 9.8858030094
11.0197736602 6.7946177908 9.5159121434
10.6169473030 7.0566718099 1.2181359522
11.1732353319 7.5696055814 1.4702590266
10.5596541062 7.2465251863 9.9481111078
10.4970087401 8.1016994195 10.1405880200
10.6993057886 9.4212835025 1.2020204336
11.1580770698 8.7138768293 1.4953576118
10.7544832468 9.1339712209 10.1433048181
10.7609097905 10.3111381066 1.0643938622
11.2131015298 9.6259573267 1.3125447857
10.9652219261 9.8510514327 10.0384458785
11.2822801297 9.3899310414 9.7971479930
11.4659536916 10.1696199661 9.5870677279
10.8280251662 11.2127266543 0.9830484942
11.2465065688 11.6714479873 5.7335985371
11.4666395200 11.2291437483 5.4878205428
11.2608201804 11.7307304127 5.1463251395
11.4844096132 11.2628814443 6.0393473195
10.9729552518 10.4866141452 10.0007008487
10.7544367434 11.2037798951 10.1070648102
11.1385785775 11.7462191027 1.0590197178
10.8885767982 12.3993314166 5.7291669816
11.0227804484 12.2895628649 4.7963715795
11.2610185566 11.8295949228 6.3411903670
9.9541191656 12.4120807888 10.6315477151
10.5761119027 12.1358116646 10.1229538588
10.4188271789 12.5680422773 1.3419010978
11.1368802698 12.4196857723 1.2504883081
11.2956643083 12.9529794480 2.3133429936
11.1096643969 13.0796349750 2.0773503202
10.7107255421 13.1342980458 2.5472500296
10.5211723630 13.1065825566 3.6047684780
11.2763006271 12.6810107791 2.9770523754
10.4881818982 12.9689232024 4.7959883861
11.0688637628 12.4980031285 3.9949755617
10.3318239521 13.1276953108 5.7845668608
10.9990982171 12.4200980184 6.6110850654
10.5459966787 13.0199987162 6.6693338004
10.6368946326 13.1025328790 7.3704926692
10.9807194656 12.6422897761 7.2769725955
10.8381476734 12.9346803856 7.9405914647
10.3848807149 13.0137727327 9.9669929223
10.8229232701 12.6176606183 9.5965623702
10.7213076893 13.0715166264 9.2618488343
10.8008321206 12.9620935115 1.7553614407
10.4723787479 13.3831537723 9.2164667577
10.6138314586 13.2845318783 8.5331852073
11.3338312602 2.4575219078 4.1961673075
11.5676012419 2.5044455566 4.7480142303
11.4014438581 2.4245068833 5.4026219976
11.7111078479 2.8111743014 5.9819247784
11.6901620075 3.7380272168 2.3818215758
11.9573726219 3.5717230035 2.9025819885
11.8908770167 3.2176926290 3.5128361337
11.7865234385 2.8265528536 4.2533483948
11.4714481035 3.0882392536 6.7697934051
11.4201023241 3.5659918644 7.4094060605
11.9020710049 3.7550672505 7.0572750748
11.4189527916 4.8186316524 1.4384655062
11.6966764828 4.3444140052 1.9205106219
11.5653075270 4.1554737502 7.7563136851
12.0452093558 4.2572509599 7.3474204647
11.4247279472 5.5629891015 1.3231746571
11.8548361333 5.0768674808 1.6927340027
12.0637837289 4.9443775548 7.7989814122
11.7340834830 5.4505336052 8.4716760384
12.1268905427 5.7328241268 8.2797559813
11.6087171206 6.2806856679 1.4188162828
11.3126241979 6.8125085806 1.3459530147
11.8003960526 6.8977363448 1.7097646563
11.8658259609 6.0121864492 8.6598057334
11.7761038676 6.7002449423 8.9313125268
11.8487852229 7.8494268412 1.9219230591
11.0690996069 7.6981530308 9.7635698482
11.6953613668 7.8452962912 9.2263250586
11.9291954993 8.7113542274 1.9976988578
11.2378649860 8.5613929283 9.7637955867
11.7750669379 9.2291015735 9.2415081716
11.4738040557 10.2027153386 1.3099000106
11.7837754730 9.5884451431 1.7164324822
12.0115986436 10.4016854362 4.5887914510
12.2774820433 9.8215364016 4.1667205657
12.1582119525 10.3664938975 3.8243800853
11.8500770324 10.5438476442 5.7287408265
12.2605703881 9.6510894520 5.0420896734
12.0532789674 10.2260108814 6.6799160163
12.2856049886 9.5584557821 6.1342992756
12.1101640607 10.3324690032 7.3648172879
12.3128053904 9.6092149977 7.0982884898
12.2744341618 9.8485377771 7.7455849920
11.9007593025 10.1695576223 9.0466523922
11.4556243901 11.0410112156 1.1977359882
11.8576604174 10.4716491323 1.5612110973
11.8735913026 11.1099807800 3.9006189139
12.1605184866 10.7425714196 3.2810216273
11.9969931358 11.4824304505 3.0017550038
11.6333322214 11.1054334693 4.8572571076
11.7158597180 11.1483253538 6.9618521328
12.0250736501 10.7792201548 7.6624325936
12.1755567831 10.3289399784 7.9011663703
11.2984933237 11.0863150198 9.5984119653
11.7330788432 10.8640194465 9.0949540605
11.6552821993 11.9064465557 1.2665025193
11.6004414289 11.9712478939 3.4840243599
11.7778313894 12.1626547581 2.7561074851
11.4129505808 11.7833159610 4.3525677778
11.2915996571 12.0410186095 7.0281962916
11.8654363802 11.2188738306 7.8516010975
11.4274165595 11.9912114129 7.9372289139
11.4691556837 11.6712419415 8.9605116818
11.8350709266 11.2327491823 8.4738507606
11.0611937237 11.9321241977 9.5852506276
11.7047224546 12.4472490462 1.3717988294
11.6790828030 12.5905618974 2.2647910057
11.4339987871 12.9100064022 1.8833097118
11.0530875421 12.5789648672 8.8645960330
11.4624708919 12.7680340501 1.5152266770
11.9996807241 2.9679035999 5.2117688175
12.1715126931 4.1490260440 2.6475366450
12.3487481895 3.8474659823 3.4645184533
12.2858294470 3.4318482318 4.3542211147
12.5088296518 3.7797415045 5.3995633262
12.0893708247 3.3958797913 6.2097549043
12.2590212623 4.9794989985 2.3048672848
12.6673168516 4.7874601387 3.2523724707
12.7080779211 4.2127985233 4.2655793804
12.7840838069 4.2042544197 5.0097757087
12.6710432895 4.1683091456 5.9416170475
12.6238383130 4.4941246318 6.6485376958
12.3898701272 4.2232889117 6.7179937620
12.0714590309 5.9293833900 1.8956612187
12.6184130755 5.8965858020 2.7941774820
12.8305820793 5.4839630285 3.1957854093
12.9183478679 5.0532547470 3.5765438318
13.0056389398 4.9961911784 3.9018465339
12.9302825893 4.8109605986 3.9340257835
12.9214354456 4.5882337525 4.3610610366
12.5213079153 5.1344512886 7.3432966168
12.4407784526 5.8659870052 7.9240198054
12.6542491739 6.2369661359 7.7131631495
12.3588705031 7.0844169638 2.4899249765
12.8486716635 6.2707309138 3.2407992770
12.7754850983 7.0231046448 3.4371726300
13.0070242297 4.8869472397 4.1046520656
12.9018161055 6.8460095687 3.6084001192
12.5698713239 6.8264471121 8.0024055871
12.7274996063 7.2236685308 7.6521319348
12.2438858503 6.4134423604 8.4121568728
12.3048131134 8.2591235445 2.5375139599
12.5899673185 7.9923594227 3.3611354973
12.8944137286 7.3890944539 4.1496357692
12.7724051658 8.0014578384 4.4662474945
12.8158890469 8.2353877898 5.6324258045
12.9004007177 7.8789700840 5.0202421566
12.9049467047 8.0677049539 5.6964410831
12.5853980602 7.9462318632 7.7747435095
12.7598599477 7.9852683381 7.1275055013
12.2608866669 7.3785408127 8.5129059024
12.2322040218 9.2350200249 2.4377391822
12.4559930281 8.8396672012 3.1287171742
12.5069025493 8.9670378391 4.1231608257
12.5738652228 8.8135766537 5.3809620669
12.8317946082 8.2064067621 6.3198927616
12.6173770353 8.6585807551 6.6875694216
12.4175419321 9.0778719948 7.7503671787
12.2245027692 8.5583781128 8.5295662700
12.1517151755 10.2265663587 2.1615928743
12.3263143506 9.8735396956 3.2023932404
12.1722985007 9.8400812468 8.4230922665
11.9971540554 11.2576812319 1.7171898338
12.1912843461 10.9245731275 2.5566679934
12.0781131367 10.7118957366 8.1841382732
12.0186281732 10.6069589969 8.6774259767
11.9488763588 12.0871138865 1.5691774532
12.0116945866 11.9092867240 2.1774051639
11.8106727088 12.5417911992 1.7248526537
3 2 1 0
3 0 3 2
3 6 5 4
3 8 7 4
3 4 7 6
3 7 8 1
3 8 0 1
3 8 9 0
3 3 0 10
3 0 11 10
3 0 9 11
3 11 12 10
3 5 13 4
3 4 13 8
3 8 13 14
3 16 15 14
3 15 8 14
3 15 9 8
3 9 17 11
3 9 15 17
3 12 11 18
3 18 11 17
3 16 19 15
3 15 19 17
3 17 19 20
3 17 20 18
3 23 22 21
3 25 24 21
3 21 24 23
3 27 26 25
3 25 26 24
3 1 2 27
3 2 26 27
3 2 28 26
3 30 29 3
3 29 2 3
3 29 28 2
3 30 31 29
3 21 22 32
3 32 22 33
3 32 5 6
3 25 32 6
3 21 32 25
3 25 6 7
3 25 7 27
3 27 7 1
3 10 30 3
3 35 34 12
3 12 34 10
3 34 31 10
3 31 30 10
3 35 36 34
3 32 33 37
3 37 33 38
3 39 13 5
3 32 39 5
3 37 39 32
3 40 14 13
3 40 13 39
3 40 16 14
3 18 41 35
3 18 35 12
3 36 35 42
3 42 35 41
3 37 38 43
3 43 38 44
3 37 45 39
3 37 43 45
3 39 46 40
3 39 45 46
3 47 19 16
3 40 47 16
3 46 47 40
3 48 20 19
3 48 19 47
3 41 18 20
3 48 41 20
3 49 41 48
3 42 41 50
3 50 41 49
3 44 51 43
3 53 52 51
3 52 43 51
3 52 45 43
3 45 54 46
3 45 52 54
3 46 55 47
3 46 54 55
3 47 56 48
3 47 55 56
3 48 57 49
3 48 56 57
3 50 49 58
3 58 49 57
3 52 53 59
3 59 53 60
3 52 61 54
3 52 59 61
3 63 55 62
3 55 61 62
3 55 54 61
3 55 63 56
3 56 63 64
3 56 64 57
3 57 64 65
3 57 65 58
3 60 66 59
3 59 66 61
3 61 66 67
3 61 67 62
3 70 69 68
3 72 71 68
3 68 71 70
3 74 73 72
3 72 73 71
3 74 75 73
3 77 76 23
3 23 76 22
3 78 23 24
3 78 77 23
3 26 68 69
3 78 26 69
3 24 26 78
3 68 26 28
3 68 28 72
3 72 28 29
3 72 29 74
3 29 31 74
3 31 75 74
3 31 79 75
3 82 81 80
3 76 82 80
3 33 76 80
3 22 76 33
3 83 79 31
3 83 31 34
3 34 36 83
3 83 36 84
3 80 81 85
3 85 81 86
3 85 38 33
3 85 33 80
3 42 88 87
3 84 42 87
3 36 42 84
3 85 86 89
3 89 86 90
3 89 44 38
3 89 38 85
3 50 91 88
3 50 88 42
3 89 90 92
3 92 90 93
3 94 51 44
3 89 94 44
3 92 94 89
3 94 53 51
3 96 95 91
3 50 96 91
3 58 96 50
3 92 93 97
3 97 93 98
3 92 99 94
3 92 97 99
3 99 60 53
3 99 53 94
3 62 100 63
3 101 64 63
3 101 63 100
3 64 101 102
3 103 64 102
3 65 64 103
3 58 65 96
3 96 65 103
3 98 104 97
3 97 104 99
3 99 104 105
3 105 107 106
3 105 106 66
3 99 105 66
3 60 99 66
3 108 67 66
3 108 66 106
3 108 109 67
3 67 109 62
3 109 110 62
3 110 100 62
3 100 110 101
3 101 110 111
3 101 111 102
3 107 112 106
3 106 112 108
3 108 112 113
3 108 113 109
3 115 114 70
3 70 114 69
3 116 70 71
3 116 115 70
3 117 71 73
3 117 116 71
3 73 75 117
3 117 75 118
3 121 120 119
3 76 77 119
3 77 121 119
3 77 122 121
3 123 77 78
3 123 122 77
3 78 69 114
3 78 114 123
3 79 118 75
3 79 124 118
3 127 126 125
3 127 125 120
3 120 125 119
3 125 81 119
3 81 82 119
3 119 82 76
3 128 124 79
3 128 79 83
3 83 84 128
3 128 84 129
3 125 126 130
3 130 126 131
3 130 86 81
3 130 81 125
3 132 129 84
3 132 84 87
3 130 131 133
3 133 131 134
3 133 90 86
3 133 86 130
3 133 134 135
3 135 134 136
3 135 93 90
3 135 90 133
3 138 137 95
3 138 95 96
3 141 140 139
3 141 139 136
3 139 135 136
3 139 142 135
3 142 98 93
3 142 93 135
3 144 143 103
3 144 103 102
3 96 103 138
3 138 103 143
3 140 145 139
3 147 146 145
3 146 139 145
3 146 142 139
3 148 104 98
3 142 148 98
3 146 148 142
3 149 105 104
3 149 104 148
3 149 107 105
3 109 150 110
3 110 150 151
3 152 110 151
3 111 110 152
3 102 111 144
3 144 111 152
3 147 153 146
3 146 153 148
3 148 153 154
3 156 155 154
3 155 148 154
3 155 149 148
3 157 112 107
3 149 157 107
3 155 157 149
3 112 157 158
3 159 112 158
3 113 112 159
3 109 113 150
3 113 160 150
3 113 159 160
3 150 160 151
3 156 161 155
3 155 161 157
3 157 161 162
3 157 162 158
3 165 164 163
3 167 166 163
3 163 166 165
3 114 115 167
3 115 166 167
3 115 168 166
3 169 115 116
3 169 168 115
3 170 116 117
3 170 169 116
3 117 118 170
3 170 118 171
3 173 172 121
3 121 172 120
3 122 163 164
3 173 122 164
3 121 122 173
3 163 122 123
3 163 123 167
3 167 123 114
3 124 175 174
3 171 124 174
3 118 124 171
3 175 176 174
3 179 178 177
3 126 127 177
3 127 179 177
3 127 180 179
3 127 120 172
3 127 172 180
3 128 175 124
3 128 129 175
3 129 176 175
3 129 181 176
3 177 178 182
3 182 178 183
3 182 131 126
3 182 126 177
3 129 132 184
3 185 129 184
3 181 129 185
3 182 183 186
3 186 183 187
3 186 134 131
3 186 131 182
3 185 184 188
3 185 188 189
3 186 187 190
3 190 187 191
3 190 136 134
3 190 134 186
3 189 188 137
3 138 189 137
3 192 189 138
3 190 191 141
3 191 140 141
3 191 193 140
3 190 141 136
3 144 194 143
3 194 195 143
3 195 138 143
3 195 192 138
3 145 140 196
3 140 197 196
3 140 193 197
3 196 147 145
3 151 198 152
3 194 144 152
3 198 194 152
3 199 194 198
3 195 194 200
3 200 194 199
3 197 201 196
3 201 203 202
3 201 202 153
3 196 201 153
3 147 196 153
3 204 154 153
3 204 153 202
3 204 156 154
3 158 205 159
3 206 160 159
3 206 159 205
3 198 151 160
3 206 198 160
3 207 198 206
3 209 199 208
3 199 207 208
3 199 198 207
3 199 209 200
3 203 210 202
3 202 210 204
3 204 210 211
3 211 213 212
3 211 212 161
3 204 211 161
3 156 204 161
3 214 162 161
3 214 161 212
3 214 215 162
3 162 215 158
3 215 216 158
3 216 205 158
3 205 216 206
3 206 216 217
3 206 217 207
3 207 217 218
3 207 218 208
3 221 220 219
3 223 222 219
3 219 222 221
3 223 224 222
3 219 220 225
3 225 220 226
3 219 227 223
3 219 225 227
3 224 223 228
3 223 229 228
3 223 227 229
3 231 230 229
3 229 230 228
3 231 232 230
3 235 234 233
3 235 233 226
3 233 225 226
3 233 236 225
3 236 164 165
3 227 236 165
3 225 236 227
3 227 165 166
3 227 166 229
3 229 166 168
3 229 168 231
3 237 232 231
3 168 237 231
3 169 237 168
3 238 169 170
3 238 237 169
3 170 171 238
3 238 171 239
3 242 241 240
3 242 240 234
3 240 233 234
3 240 243 233
3 243 172 173
3 236 243 173
3 233 243 236
3 236 173 164
3 171 174 244
3 245 171 244
3 239 171 245
3 176 244 174
3 240 241 179
3 241 178 179
3 241 246 178
3 240 179 180
3 240 180 243
3 243 180 172
3 245 244 247
3 245 247 248
3 181 247 176
3 176 247 244
3 246 183 178
3 249 183 246
3 248 247 250
3 248 250 251
3 185 250 181
3 181 250 247
3 249 187 183
3 252 187 249
3 253 251 250
3 250 185 253
3 185 254 253
3 185 189 254
3 252 191 187
3 255 191 252
3 192 254 189
3 192 256 254
3 255 193 191
3 257 193 255
3 195 259 258
3 256 195 258
3 192 195 256
3 257 197 193
3 260 197 257
3 262 261 259
3 195 262 259
3 200 262 195
3 260 263 197
3 197 263 201
3 203 201 263
3 203 263 264
3 208 265 209
3 265 266 209
3 266 200 209
3 266 262 200
3 264 267 203
3 203 267 210
3 267 269 268
3 211 267 268
3 210 267 211
3 268 213 211
3 272 271 270
3 216 215 270
3 271 216 270
3 273 216 271
3 273 275 274
3 217 273 274
3 216 273 217
3 276 218 217
3 276 217 274
3 276 277 218
3 218 277 208
3 277 278 208
3 278 265 208
3 265 278 266
3 280 279 221
3 221 279 220
3 281 221 222
3 281 280 221
3 283 282 224
3 282 222 224
3 282 281 222
3 283 284 282
3 287 286 285
3 279 287 285
3 226 279 285
3 220 279 226
3 228 283 224
3 288 284 283
3 228 288 283
3 230 288 228
3 230 232 288
3 288 232 289
3 292 291 290
3 292 290 286
3 286 290 285
3 290 234 285
3 234 235 285
3 285 235 226
3 293 289 232
3 293 232 237
3 294 237 238
3 294 293 237
3 238 239 294
3 294 239 295
3 290 291 242
3 291 241 242
3 291 296 241
3 290 242 234
3 245 295 239
3 245 297 295
3 296 246 241
3 298 246 296
3 248 297 245
3 248 299 297
3 298 249 246
3 300 249 298
3 251 299 248
3 251 301 299
3 300 252 249
3 302 252 300
3 251 253 303
3 304 251 303
3 301 251 304
3 254 303 253
3 302 255 252
3 305 255 302
3 306 304 303
3 303 254 306
3 254 307 306
3 254 256 307
3 305 257 255
3 308 257 305
3 309 307 256
3 309 256 258
3 308 260 257
3 310 260 308
3 312 311 261
3 312 261 262
3 310 313 260
3 260 313 263
3 264 263 313
3 264 313 314
3 266 312 262
3 266 315 312
3 267 264 316
3 264 317 316
3 264 314 317
3 316 269 267
3 319 318 271
3 319 271 272
3 271 320 273
3 318 320 271
3 275 273 320
3 275 320 321
3 277 322 278
3 322 323 278
3 323 266 278
3 323 315 266
3 326 325 324
3 328 327 324
3 324 327 326
3 328 329 327
3 332 331 330
3 332 330 325
3 325 330 324
3 330 279 324
3 279 280 324
3 324 280 281
3 324 281 328
3 333 329 328
3 281 333 328
3 282 333 281
3 282 284 333
3 333 284 334
3 337 336 335
3 337 335 331
3 331 335 330
3 335 286 330
3 286 287 330
3 330 287 279
3 338 334 284
3 338 284 288
3 288 289 338
3 338 289 339
3 342 341 340
3 342 340 336
3 336 340 335
3 340 291 335
3 291 292 335
3 335 292 286
3 343 339 289
3 343 289 293
3 345 343 344
3 343 294 344
3 343 293 294
3 295 344 294
3 340 341 346
3 346 341 347
3 346 296 291
3 346 291 340
3 348 345 344
3 344 295 348
3 295 349 348
3 295 297 349
3 346 347 350
3 350 347 351
3 350 298 296
3 350 296 346
3 299 349 297
3 299 352 349
3 351 353 350
3 298 350 353
3 354 298 353
3 300 298 354
3 301 352 299
3 301 355 352
3 354 302 300
3 356 302 354
3 304 355 301
3 304 357 355
3 360 359 358
3 356 360 358
3 305 356 358
3 302 356 305
3 361 357 304
3 361 304 306
3 306 307 361
3 361 307 362
3 358 359 363
3 363 359 364
3 363 308 305
3 363 305 358
3 307 309 365
3 366 307 365
3 362 307 366
3 364 367 363
3 308 363 367
3 368 308 367
3 310 308 368
3 366 365 311
3 312 366 311
3 369 366 312
3 313 310 370
3 310 371 370
3 310 368 371
3 370 314 313
3 315 369 312
3 315 372 369
3 371 373 370
3 317 314 370
3 374 317 370
3 373 374 370
3 317 374 375
3 376 375 374
3 379 378 377
3 318 319 377
3 378 318 377
3 380 318 378
3 380 382 381
3 320 380 381
3 318 380 320
3 381 321 320
3 385 384 383
3 384 372 383
3 372 323 383
3 372 315 323
3 386 325 326
3 386 326 387
3 326 388 387
3 326 327 388
3 327 329 388
3 388 329 389
3 391 390 332
3 332 390 331
3 332 325 386
3 392 332 386
3 391 332 392
3 392 386 387
3 393 389 329
3 393 329 333
3 333 334 393
3 393 334 394
3 396 395 337
3 337 395 336
3 337 331 390
3 337 390 396
3 397 394 334
3 397 334 338
3 338 339 397
3 397 339 398
3 400 399 342
3 342 399 341
3 342 336 395
3 342 395 400
3 401 398 339
3 401 339 343
3 343 345 401
3 401 345 402
3 399 347 341
3 403 347 399
3 345 348 404
3 405 345 404
3 402 345 405
3 349 404 348
3 403 351 347
3 406 351 403
3 407 405 404
3 404 349 407
3 349 408 407
3 349 352 408
3 406 409 351
3 351 409 353
3 354 353 409
3 354 409 410
3 355 408 352
3 355 411 408
3 414 413 412
3 410 414 412
3 356 410 412
3 354 410 356
3 357 411 355
3 357 415 411
3 412 413 360
3 413 359 360
3 413 416 359
3 412 360 356
3 357 361 417
3 418 357 417
3 415 357 418
3 362 417 361
3 416 364 359
3 419 364 416
3 418 417 420
3 418 420 421
3 366 420 362
3 362 420 417
3 367 364 422
3 364 423 422
3 364 419 423
3 422 368 367
3 424 421 420
3 420 366 424
3 366 425 424
3 366 369 425
3 423 426 422
3 368 422 426
3 427 368 426
3 371 368 427
3 430 429 428
3 429 425 428
3 425 372 428
3 425 369 372
3 427 431 371
3 371 431 373
3 373 432 374
3 431 432 373
3 434 433 376
3 374 434 376
3 432 434 374
3 378 379 433
3 434 378 433
3 435 378 434
3 378 436 380
3 435 436 378
3 438 437 382
3 380 438 382
3 436 438 380
3 439 437 438
3 442 441 440
3 440 441 430
3 440 430 428
3 385 440 428
3 384 385 428
3 384 428 372
3 443 387 388
3 389 443 388
3 444 390 391
3 444 391 445
3 391 446 445
3 391 392 446
3 392 387 443
3 447 392 443
3 446 392 447
3 449 447 448
3 448 447 393
3 447 443 393
3 443 389 393
3 394 448 393
3 451 450 396
3 396 450 395
3 396 390 444
3 452 396 444
3 451 396 452
3 452 444 445
3 453 449 448
3 453 448 394
3 397 453 394
3 454 453 397
3 397 398 454
3 454 398 455
3 457 456 400
3 400 456 399
3 400 395 450
3 400 450 457
3 398 401 458
3 459 398 458
3 455 398 459
3 402 458 401
3 456 403 399
3 460 403 456
3 461 459 458
3 458 402 461
3 402 462 461
3 402 405 462
3 460 406 403
3 463 406 460
3 405 407 464
3 465 405 464
3 462 405 465
3 408 464 407
3 463 466 406
3 406 466 409
3 410 409 466
3 410 466 467
3 468 465 464
3 464 408 468
3 408 469 468
3 408 411 469
3 470 413 414
3 471 470 414
3 410 471 414
3 467 471 410
3 415 469 411
3 415 472 469
3 474 473 470
3 473 413 470
3 473 416 413
3 474 470 471
3 477 476 475
3 476 472 475
3 472 418 475
3 472 415 418
3 473 419 416
3 478 419 473
3 481 480 479
3 482 479 480
3 483 477 475
3 475 418 483
3 418 484 483
3 418 421 484
3 478 423 419
3 485 423 478
3 481 479 486
3 481 486 487
3 479 482 488
3 479 488 486
3 421 424 489
3 490 421 489
3 484 421 490
3 425 489 424
3 426 423 491
3 423 492 491
3 423 485 492
3 427 426 491
3 495 494 493
3 497 496 495
3 497 495 493
3 499 498 496
3 499 496 497
3 498 499 487
3 486 498 487
3 500 498 486
3 486 488 501
3 502 486 501
3 500 486 502
3 504 503 502
3 504 502 501
3 505 503 504
3 508 507 506
3 506 507 490
3 506 490 489
3 430 506 489
3 429 430 489
3 429 489 425
3 492 509 491
3 494 495 509
3 495 431 509
3 427 491 509
3 427 509 431
3 431 495 432
3 432 495 496
3 432 496 434
3 434 496 498
3 434 498 435
3 435 498 500
3 435 500 436
3 436 500 502
3 436 502 438
3 438 502 503
3 511 510 439
3 511 439 438
3 505 511 438
3 503 505 438
3 510 511 508
3 510 508 506
3 442 510 506
3 441 442 506
3 441 506 430
3 512 445 446
3 512 446 513
3 446 514 513
3 446 447 514
3 447 449 514
3 514 449 515
3 517 516 451
3 451 516 450
3 518 451 452
3 518 517 451
3 452 445 512
3 519 452 512
3 518 452 519
3 519 512 513
3 520 515 449
3 520 449 453
3 522 520 521
3 520 454 521
3 520 453 454
3 455 521 454
3 523 456 457
3 524 523 457
3 450 524 457
3 516 524 450
3 522 521 525
3 522 525 526
3 459 525 455
3 455 525 521
3 528 527 523
3 527 456 523
3 527 460 456
3 528 523 524
3 529 526 525
3 531 529 530
3 530 529 461
3 529 525 461
3 525 459 461
3 462 530 461
3 533 463 532
3 463 527 532
3 463 460 527
3 534 533 532
3 535 531 530
3 530 462 535
3 462 536 535
3 462 465 536
3 533 466 463
3 467 466 533
3 534 467 533
3 537 467 534
3 465 468 538
3 539 465 538
3 536 465 539
3 469 538 468
3 537 471 467
3 540 471 537
3 539 538 541
3 539 541 542
3 472 541 469
3 469 541 538
3 543 473 474
3 544 543 474
3 471 544 474
3 540 544 471
3 547 546 545
3 549 548 545
3 549 545 546
3 551 550 548
3 551 548 549
3 553 552 550
3 553 550 551
3 554 552 553
3 542 541 476
3 477 542 476
3 555 542 477
3 476 541 472
3 557 556 543
3 556 473 543
3 556 478 473
3 557 543 544
3 560 559 558
3 558 559 547
3 545 558 547
3 561 558 545
3 481 561 480
3 561 548 480
3 561 545 548
3 480 548 482
3 548 562 482
3 548 550 562
3 552 564 563
3 562 552 563
3 550 552 562
3 564 552 554
3 477 483 565
3 566 477 565
3 555 477 566
3 484 565 483
3 556 485 478
3 567 485 556
3 560 558 568
3 560 568 569
3 570 558 561
3 568 558 570
3 487 570 481
3 481 570 561
3 571 488 562
3 562 488 482
3 562 563 572
3 573 562 572
3 571 562 573
3 575 574 573
3 575 573 572
3 574 575 566
3 565 574 566
3 576 574 565
3 490 576 484
3 484 576 565
3 567 492 485
3 577 492 567
3 579 578 493
3 579 493 494
3 568 497 569
3 497 578 569
3 497 493 578
3 497 568 499
3 499 568 570
3 499 570 487
3 571 501 488
3 501 571 504
3 504 571 573
3 504 573 505
3 573 580 505
3 573 574 580
3 508 580 507
3 580 576 507
3 580 574 576
3 507 576 490
3 577 581 492
3 492 581 509
3 494 509 579
3 579 509 581
3 580 511 505
3 511 580 508
3 582 513 514
3 515 582 514
3 583 516 517
3 518 584 517
3 517 584 583
3 519 585 518
3 518 585 584
3 513 582 519
3 582 585 519
3 582 586 585
3 520 587 515
3 587 582 515
3 587 586 582
3 522 587 520
3 588 524 583
3 583 524 516
3 589 583 584
3 588 583 589
3 590 584 585
3 589 584 590
3 586 592 591
3 590 586 591
3 585 586 590
3 594 593 592
3 586 594 592
3 587 594 586
3 526 594 522
3 522 594 587
3 595 527 528
3 524 588 528
3 588 595 528
3 588 596 595
3 589 598 597
3 596 589 597
3 588 589 596
3 600 599 598
3 589 600 598
3 590 600 589
3 590 591 601
3 590 601 600
3 602 593 594
3 604 602 603
3 603 602 529
3 602 594 529
3 594 526 529
3 531 603 529
3 595 532 527
3 532 595 534
3 595 605 534
3 595 596 605
3 596 597 606
3 607 596 606
3 605 596 607
3 599 600 608
3 606 609 607
3 608 600 601
3 604 603 610
3 604 610 611
3 535 612 531
3 612 603 531
3 612 610 603
3 536 612 535
3 613 537 605
3 605 537 534
3 614 605 607
3 613 605 614
3 607 609 615
3 616 607 615
3 614 607 616
3 618 617 616
3 618 616 615
3 619 617 618
3 611 610 620
3 611 620 621
3 622 610 612
3 620 610 622
3 539 622 536
3 536 622 612
3 623 540 613
3 613 540 537
3 624 613 614
3 623 613 624
3 625 614 616
3 624 614 625
3 626 616 617
3 625 616 626
3 617 619 627
3 628 617 627
3 626 617 628
3 628 627 621
3 620 628 621
3 629 628 620
3 630 620 622
3 629 620 630
3 542 630 539
3 539 630 622
3 631 544 623
3 623 544 540
3 632 623 624
3 631 623 632
3 547 632 546
3 632 625 546
3 632 624 625
3 546 625 549
3 549 625 626
3 549 626 551
3 551 626 628
3 551 628 553
3 553 628 629
3 553 629 554
3 629 633 554
3 629 630 633
3 555 633 542
3 542 633 630
3 634 556 557
3 544 631 557
3 631 634 557
3 631 635 634
3 560 635 559
3 635 632 559
3 635 631 632
3 559 632 547
3 636 563 564
3 554 633 564
3 633 636 564
3 633 637 636
3 566 637 555
3 555 637 633
3 638 567 634
3 634 567 556
3 639 634 635
3 638 634 639
3 569 639 560
3 560 639 635
3 636 572 563
3 572 636 575
3 575 636 637
3 575 637 566
3 640 577 638
3 638 577 567
3 579 640 578
3 640 639 578
3 640 638 639
3 578 639 569
3 640 581 577
3 581 640 579