OFF
1527 2946 0
nan nan nan
nan nan nan
nan nan nan
nan nan nan
nan nan nan
nan nan nan
nan nan nan
nan nan nan
nan nan nan
nan nan nan
nan nan nan
nan nan nan
nan nan nan
nan nan nan
nan nan nan
nan nan nan
nan nan nan
nan nan nan
nan nan nan
nan nan nan
nan nan nan
nan nan nan
nan nan nan
nan nan nan
nan nan nan
nan nan nan
nan nan nan
nan nan nan
nan nan nan
nan nan nan
nan nan nan
nan nan nan
nan nan nan
nan nan nan
nan nan nan
nan nan nan
nan nan nan
nan nan nan
nan nan nan
nan nan nan
nan nan nan
nan nan nan
nan nan nan
nan nan nan
nan nan nan
nan nan nan
nan nan nan
nan nan nan
nan nan nan
nan nan nan
nan nan nan
nan nan nan
nan nan nan
nan nan nan
nan nan nan
nan nan nan
nan nan nan
nan nan nan
nan nan nan
nan nan nan
nan nan nan
nan nan nan
nan nan nan
nan nan nan
nan nan nan
nan nan nan
nan nan nan
nan nan nan
nan nan nan
nan nan nan
nan nan nan
nan nan nan
nan nan nan
nan nan nan
nan nan nan
nan nan nan
nan nan nan
nan nan nan
nan nan nan
nan nan nan
nan nan nan
nan nan nan
nan nan nan
nan nan nan
nan nan nan
nan nan nan
nan nan nan
nan nan nan
nan nan nan
nan nan nan
nan nan nan
nan nan nan
nan nan nan
nan nan nan
nan nan nan
nan nan nan
nan nan nan
nan nan nan
nan nan nan
nan nan nan
nan nan nan
nan nan nan
nan nan nan
nan nan nan
nan nan nan
nan nan nan
nan nan nan
nan nan nan
nan nan nan
nan nan nan
nan nan nan
nan nan nan
nan nan nan
nan nan nan
nan nan nan
nan nan nan
nan nan nan
nan nan nan
nan nan nan
nan nan nan
nan nan nan
nan nan nan
nan nan nan
nan nan nan
nan nan nan
nan nan nan
nan nan nan
nan nan nan
nan nan nan
nan nan nan
nan nan nan
nan nan nan
nan nan nan
nan nan nan
nan nan nan
nan nan nan
nan nan nan
nan nan nan
nan nan nan
nan nan nan
nan nan nan
nan nan nan
nan nan nan
nan nan nan
nan nan nan
nan nan nan
nan nan nan
nan nan nan
nan nan nan
nan nan nan
nan nan nan
nan nan nan
nan nan nan
nan nan nan
nan nan nan
nan nan nan
nan nan nan
nan nan nan
nan nan nan
nan nan nan
nan nan nan
nan nan nan
nan nan nan
nan nan nan
nan nan nan
nan nan nan
nan nan nan
nan nan nan
nan nan nan
nan nan nan
nan nan nan
nan nan nan
nan nan nan
nan nan nan
nan nan nan
nan nan nan
nan nan nan
nan nan nan
nan nan nan
nan nan nan
nan nan nan
nan nan nan
nan nan nan
nan nan nan
nan nan nan
nan nan nan
nan nan nan
nan nan nan
nan nan nan
nan nan nan
nan nan nan
nan nan nan
nan nan nan
nan nan nan
nan nan nan
nan nan nan
nan nan nan
nan nan nan
nan nan nan
nan nan nan
nan nan nan
nan nan nan
nan nan nan
nan nan nan
nan nan nan
nan nan nan
nan nan nan
nan nan nan
nan nan nan
nan nan nan
nan nan nan
nan nan nan
nan nan nan
nan nan nan
nan nan nan
nan nan nan
nan nan nan
nan nan nan
nan nan nan
nan nan nan
nan nan nan
nan nan nan
nan nan nan
nan nan nan
nan nan nan
nan nan nan
nan nan nan
nan nan nan
nan nan nan
nan nan nan
nan nan nan
nan nan nan
nan nan nan
nan nan nan
nan nan nan
nan nan nan
nan nan nan
nan nan nan
nan nan nan
nan nan nan
nan nan nan
nan nan nan
nan nan nan
nan nan nan
nan nan nan
nan nan nan
nan nan nan
nan nan nan
nan nan nan
nan nan nan
nan nan nan
nan nan nan
nan nan nan
nan nan nan
nan nan nan
nan nan nan
nan nan nan
nan nan nan
nan nan nan
nan nan nan
nan nan nan
nan nan nan
nan nan nan
nan nan nan
nan nan nan
nan nan nan
nan nan nan
nan nan nan
nan nan nan
nan nan nan
nan nan nan
nan nan nan
nan nan nan
nan nan nan
nan nan nan
nan nan nan
nan nan nan
nan nan nan
nan nan nan
nan nan nan
nan nan nan
nan nan nan
nan nan nan
nan nan nan
nan nan nan
nan nan nan
nan nan nan
nan nan nan
nan nan nan
nan nan nan
nan nan nan
nan nan nan
nan nan nan
nan nan nan
nan nan nan
nan nan nan
nan nan nan
nan nan nan
nan nan nan
nan nan nan
nan nan nan
nan nan nan
nan nan nan
nan nan nan
nan nan nan
nan nan nan
nan nan nan
nan nan nan
nan nan nan
nan nan nan
nan nan nan
nan nan nan
nan nan nan
nan nan nan
nan nan nan
nan nan nan
nan nan nan
nan nan nan
nan nan nan
nan nan nan
nan nan nan
nan nan nan
nan nan nan
nan nan nan
nan nan nan
nan nan nan
nan nan nan
nan nan nan
nan nan nan
nan nan nan
nan nan nan
nan nan nan
nan nan nan
nan nan nan
nan nan nan
nan nan nan
nan nan nan
nan nan nan
nan nan nan
nan nan nan
nan nan nan
nan nan nan
nan nan nan
nan nan nan
nan nan nan
nan nan nan
nan nan nan
nan nan nan
nan nan nan
nan nan nan
nan nan nan
nan nan nan
nan nan nan
nan nan nan
nan nan nan
nan nan nan
nan nan nan
nan nan nan
nan nan nan
nan nan nan
nan nan nan
nan nan nan
nan nan nan
nan nan nan
nan nan nan
nan nan nan
nan nan nan
nan nan nan
nan nan nan
nan nan nan
nan nan nan
nan nan nan
nan nan nan
nan nan nan
nan nan nan
nan nan nan
nan nan nan
nan nan nan
nan nan nan
nan nan nan
nan nan nan
nan nan nan
nan nan nan
nan nan nan
nan nan nan
nan nan nan
nan nan nan
nan nan nan
nan nan nan
nan nan nan
nan nan nan
nan nan nan
nan nan nan
nan nan nan
nan nan nan
nan nan nan
nan nan nan
nan nan nan
nan nan nan
nan nan nan
nan nan nan
nan nan nan
nan nan nan
nan nan nan
nan nan nan
nan nan nan
nan nan nan
nan nan nan
nan nan nan
nan nan nan
nan nan nan
nan nan nan
nan nan nan
nan nan nan
nan nan nan
nan nan nan
nan nan nan
nan nan nan
nan nan nan
nan nan nan
nan nan nan
nan nan nan
nan nan nan
nan nan nan
nan nan nan
nan nan nan
nan nan nan
nan nan nan
nan nan nan
nan nan nan
nan nan nan
nan nan nan
nan nan nan
nan nan nan
nan nan nan
nan nan nan
nan nan nan
nan nan nan
nan nan nan
nan nan nan
nan nan nan
nan nan nan
nan nan nan
nan nan nan
nan nan nan
nan nan nan
nan nan nan
nan nan nan
nan nan nan
nan nan nan
nan nan nan
nan nan nan
nan nan nan
nan nan nan
nan nan nan
nan nan nan
nan nan nan
nan nan nan
nan nan nan
nan nan nan
nan nan nan
nan nan nan
nan nan nan
nan nan nan
nan nan nan
nan nan nan
nan nan nan
nan nan nan
nan nan nan
nan nan nan
nan nan nan
nan nan nan
nan nan nan
nan nan nan
nan nan nan
nan nan nan
nan nan nan
nan nan nan
nan nan nan
nan nan nan
nan nan nan
nan nan nan
nan nan nan
nan nan nan
nan nan nan
nan nan nan
nan nan nan
nan nan nan
nan nan nan
nan nan nan
nan nan nan
nan nan nan
nan nan nan
nan nan nan
nan nan nan
nan nan nan
nan nan nan
nan nan nan
nan nan nan
nan nan nan
nan nan nan
nan nan nan
nan nan nan
nan nan nan
nan nan nan
nan nan nan
nan nan nan
nan nan nan
nan nan nan
nan nan nan
nan nan nan
nan nan nan
nan nan nan
nan nan nan
nan nan nan
nan nan nan
nan nan nan
nan nan nan
nan nan nan
nan nan nan
nan nan nan
nan nan nan
nan nan nan
nan nan nan
nan nan nan
nan nan nan
nan nan nan
nan nan nan
nan nan nan
nan nan nan
nan nan nan
nan nan nan
nan nan nan
nan nan nan
nan nan nan
nan nan nan
nan nan nan
nan nan nan
nan nan nan
nan nan nan
nan nan nan
nan nan nan
nan nan nan
nan nan nan
nan nan nan
nan nan nan
nan nan nan
nan nan nan
nan nan nan
nan nan nan
nan nan nan
nan nan nan
nan nan nan
nan nan nan
nan nan nan
nan nan nan
nan nan nan
nan nan nan
nan nan nan
nan nan nan
nan nan nan
nan nan nan
nan nan nan
nan nan nan
nan nan nan
nan nan nan
nan nan nan
nan nan nan
nan nan nan
nan nan nan
nan nan nan
nan nan nan
nan nan nan
nan nan nan
nan nan nan
nan nan nan
nan nan nan
nan nan nan
nan nan nan
nan nan nan
nan nan nan
nan nan nan
nan nan nan
nan nan nan
nan nan nan
nan nan nan
nan nan nan
nan nan nan
nan nan nan
nan nan nan
nan nan nan
nan nan nan
nan nan nan
nan nan nan
nan nan nan
nan nan nan
nan nan nan
nan nan nan
nan nan nan
nan nan nan
nan nan nan
nan nan nan
nan nan nan
nan nan nan
nan nan nan
nan nan nan
nan nan nan
nan nan nan
nan nan nan
nan nan nan
nan nan nan
nan nan nan
nan nan nan
nan nan nan
nan nan nan
nan nan nan
nan nan nan
nan nan nan
nan nan nan
nan nan nan
nan nan nan
nan nan nan
nan nan nan
nan nan nan
nan nan nan
nan nan nan
nan nan nan
nan nan nan
nan nan nan
nan nan nan
nan nan nan
nan nan nan
nan nan nan
nan nan nan
nan nan nan
nan nan nan
nan nan nan
nan nan nan
nan nan nan
nan nan nan
nan nan nan
nan nan nan
nan nan nan
nan nan nan
nan nan nan
nan nan nan
nan nan nan
nan nan nan
nan nan nan
nan nan nan
nan nan nan
nan nan nan
nan nan nan
nan nan nan
nan nan nan
nan nan nan
nan nan nan
nan nan nan
nan nan nan
nan nan nan
nan nan nan
nan nan nan
nan nan nan
nan nan nan
nan nan nan
nan nan nan
nan nan nan
nan nan nan
nan nan nan
nan nan nan
nan nan nan
nan nan nan
nan nan nan
nan nan nan
nan nan nan
nan nan nan
nan nan nan
nan nan nan
nan nan nan
nan nan nan
nan nan nan
nan nan nan
nan nan nan
nan nan nan
nan nan nan
nan nan nan
nan nan nan
nan nan nan
nan nan nan
nan nan nan
nan nan nan
nan nan nan
nan nan nan
nan nan nan
nan nan nan
nan nan nan
nan nan nan
nan nan nan
nan nan nan
nan nan nan
nan nan nan
nan nan nan
nan nan nan
nan nan nan
nan nan nan
nan nan nan
nan nan nan
nan nan nan
nan nan nan
nan nan nan
nan nan nan
nan nan nan
nan nan nan
nan nan nan
nan nan nan
nan nan nan
nan nan nan
nan nan nan
nan nan nan
nan nan nan
nan nan nan
nan nan nan
nan nan nan
nan nan nan
nan nan nan
nan nan nan
nan nan nan
nan nan nan
nan nan nan
nan nan nan
nan nan nan
nan nan nan
nan nan nan
nan nan nan
nan nan nan
nan nan nan
nan nan nan
nan nan nan
nan nan nan
nan nan nan
nan nan nan
nan nan nan
nan nan nan
nan nan nan
nan nan nan
nan nan nan
nan nan nan
nan nan nan
nan nan nan
nan nan nan
nan nan nan
nan nan nan
nan nan nan
nan nan nan
nan nan nan
nan nan nan
nan nan nan
nan nan nan
nan nan nan
nan nan nan
nan nan nan
nan nan nan
nan nan nan
nan nan nan
nan nan nan
nan nan nan
nan nan nan
nan nan nan
nan nan nan
nan nan nan
nan nan nan
nan nan nan
nan nan nan
nan nan nan
nan nan nan
nan nan nan
nan nan nan
nan nan nan
nan nan nan
nan nan nan
nan nan nan
nan nan nan
nan nan nan
nan nan nan
nan nan nan
nan nan nan
nan nan nan
nan nan nan
nan nan nan
nan nan nan
nan nan nan
nan nan nan
nan nan nan
nan nan nan
nan nan nan
nan nan nan
nan nan nan
nan nan nan
nan nan nan
nan nan nan
nan nan nan
nan nan nan
nan nan nan
nan nan nan
nan nan nan
nan nan nan
nan nan nan
nan nan nan
nan nan nan
nan nan nan
nan nan nan
nan nan nan
nan nan nan
nan nan nan
nan nan nan
nan nan nan
nan nan nan
nan nan nan
nan nan nan
nan nan nan
nan nan nan
nan nan nan
nan nan nan
nan nan nan
nan nan nan
nan nan nan
nan nan nan
nan nan nan
nan nan nan
nan nan nan
nan nan nan
nan nan nan
nan nan nan
nan nan nan
nan nan nan
nan nan nan
nan nan nan
nan nan nan
nan nan nan
nan nan nan
nan nan nan
nan nan nan
nan nan nan
nan nan nan
nan nan nan
nan nan nan
nan nan nan
nan nan nan
nan nan nan
nan nan nan
nan nan nan
nan nan nan
nan nan nan
nan nan nan
nan nan nan
nan nan nan
nan nan nan
nan nan nan
nan nan nan
nan nan nan
nan nan nan
nan nan nan
nan nan nan
nan nan nan
nan nan nan
nan nan nan
nan nan nan
nan nan nan
nan nan nan
nan nan nan
nan nan nan
nan nan nan
nan nan nan
nan nan nan
nan nan nan
nan nan nan
nan nan nan
nan nan nan
nan nan nan
nan nan nan
nan nan nan
nan nan nan
nan nan nan
nan nan nan
nan nan nan
nan nan nan
nan nan nan
nan nan nan
nan nan nan
nan nan nan
nan nan nan
nan nan nan
nan nan nan
nan nan nan
nan nan nan
nan nan nan
nan nan nan
nan nan nan
nan nan nan
nan nan nan
nan nan nan
nan nan nan
nan nan nan
nan nan nan
nan nan nan
nan nan nan
nan nan nan
nan nan nan
nan nan nan
nan nan nan
nan nan nan
nan nan nan
nan nan nan
nan nan nan
nan nan nan
nan nan nan
nan nan nan
nan nan nan
nan nan nan
nan nan nan
nan nan nan
nan nan nan
nan nan nan
nan nan nan
nan nan nan
nan nan nan
nan nan nan
nan nan nan
nan nan nan
nan nan nan
nan nan nan
nan nan nan
nan nan nan
nan nan nan
nan nan nan
nan nan nan
nan nan nan
nan nan nan
nan nan nan
nan nan nan
nan nan nan
nan nan nan
nan nan nan
nan nan nan
nan nan nan
nan nan nan
nan nan nan
nan nan nan
nan nan nan
nan nan nan
nan nan nan
nan nan nan
nan nan nan
nan nan nan
nan nan nan
nan nan nan
nan nan nan
nan nan nan
nan nan nan
nan nan nan
nan nan nan
nan nan nan
nan nan nan
nan nan nan
nan nan nan
nan nan nan
nan nan nan
nan nan nan
nan nan nan
nan nan nan
nan nan nan
nan nan nan
nan nan nan
nan nan nan
nan nan nan
nan nan nan
nan nan nan
nan nan nan
nan nan nan
nan nan nan
nan nan nan
nan nan nan
nan nan nan
nan nan nan
nan nan nan
nan nan nan
nan nan nan
nan nan nan
nan nan nan
nan nan nan
nan nan nan
nan nan nan
nan nan nan
nan nan nan
nan nan nan
nan nan nan
nan nan nan
nan nan nan
nan nan nan
nan nan nan
nan nan nan
nan nan nan
nan nan nan
nan nan nan
nan nan nan
nan nan nan
nan nan nan
nan nan nan
nan nan nan
nan nan nan
nan nan nan
nan nan nan
nan nan nan
nan nan nan
nan nan nan
nan nan nan
nan nan nan
nan nan nan
nan nan nan
nan nan nan
nan nan nan
nan nan nan
nan nan nan
nan nan nan
nan nan nan
nan nan nan
nan nan nan
nan nan nan
nan nan nan
nan nan nan
nan nan nan
nan nan nan
nan nan nan
nan nan nan
nan nan nan
nan nan nan
nan nan nan
nan nan nan
nan nan nan
nan nan nan
nan nan nan
nan nan nan
nan nan nan
nan nan nan
nan nan nan
nan nan nan
nan nan nan
nan nan nan
nan nan nan
nan nan nan
nan nan nan
nan nan nan
nan nan nan
nan nan nan
nan nan nan
nan nan nan
nan nan nan
nan nan nan
nan nan nan
nan nan nan
nan nan nan
nan nan nan
nan nan nan
nan nan nan
nan nan nan
nan nan nan
nan nan nan
nan nan nan
nan nan nan
nan nan nan
nan nan nan
nan nan nan
nan nan nan
nan nan nan
nan nan nan
nan nan nan
nan nan nan
nan nan nan
nan nan nan
nan nan nan
nan nan nan
nan nan nan
nan nan nan
nan nan nan
nan nan nan
nan nan nan
nan nan nan
nan nan nan
nan nan nan
nan nan nan
nan nan nan
nan nan nan
nan nan nan
nan nan nan
nan nan nan
nan nan nan
nan nan nan
nan nan nan
nan nan nan
nan nan nan
nan nan nan
nan nan nan
nan nan nan
nan nan nan
nan nan nan
nan nan nan
nan nan nan
nan nan nan
nan nan nan
nan nan nan
nan nan nan
nan nan nan
nan nan nan
nan nan nan
nan nan nan
nan nan nan
nan nan nan
nan nan nan
nan nan nan
nan nan nan
nan nan nan
nan nan nan
nan nan nan
nan nan nan
nan nan nan
nan nan nan
nan nan nan
nan nan nan
nan nan nan
nan nan nan
nan nan nan
nan nan nan
nan nan nan
nan nan nan
nan nan nan
nan nan nan
nan nan nan
nan nan nan
nan nan nan
nan nan nan
nan nan nan
nan nan nan
nan nan nan
nan nan nan
nan nan nan
nan nan nan
nan nan nan
nan nan nan
nan nan nan
nan nan nan
nan nan nan
nan nan nan
nan nan nan
nan nan nan
nan nan nan
nan nan nan
nan nan nan
nan nan nan
nan nan nan
nan nan nan
nan nan nan
nan nan nan
nan nan nan
nan nan nan
nan nan nan
nan nan nan
nan nan nan
nan nan nan
nan nan nan
nan nan nan
nan nan nan
nan nan nan
nan nan nan
nan nan nan
nan nan nan
nan nan nan
nan nan nan
nan nan nan
nan nan nan
nan nan nan
nan nan nan
nan nan nan
nan nan nan
nan nan nan
nan nan nan
nan nan nan
nan nan nan
nan nan nan
nan nan nan
nan nan nan
nan nan nan
nan nan nan
nan nan nan
nan nan nan
nan nan nan
nan nan nan
nan nan nan
nan nan nan
nan nan nan
nan nan nan
nan nan nan
nan nan nan
nan nan nan
nan nan nan
nan nan nan
nan nan nan
nan nan nan
nan nan nan
nan nan nan
nan nan nan
nan nan nan
nan nan nan
nan nan nan
nan nan nan
nan nan nan
nan nan nan
nan nan nan
nan nan nan
nan nan nan
nan nan nan
nan nan nan
nan nan nan
nan nan nan
nan nan nan
nan nan nan
nan nan nan
nan nan nan
nan nan nan
nan nan nan
nan nan nan
nan nan nan
nan nan nan
nan nan nan
nan nan nan
nan nan nan
nan nan nan
nan nan nan
nan nan nan
nan nan nan
nan nan nan
nan nan nan
nan nan nan
nan nan nan
nan nan nan
nan nan nan
nan nan nan
nan nan nan
nan nan nan
nan nan nan
nan nan nan
nan nan nan
nan nan nan
nan nan nan
nan nan nan
nan nan nan
nan nan nan
nan nan nan
nan nan nan
nan nan nan
nan nan nan
nan nan nan
nan nan nan
nan nan nan
nan nan nan
nan nan nan
nan nan nan
nan nan nan
nan nan nan
nan nan nan
nan nan nan
nan nan nan
nan nan nan
nan nan nan
nan nan nan
nan nan nan
nan nan nan
nan nan nan
nan nan nan
nan nan nan
nan nan nan
nan nan nan
nan nan nan
nan nan nan
nan nan nan
nan nan nan
nan nan nan
nan nan nan
nan nan nan
nan nan nan
nan nan nan
nan nan nan
nan nan nan
nan nan nan
nan nan nan
nan nan nan
nan nan nan
nan nan nan
nan nan nan
nan nan nan
nan nan nan
nan nan nan
nan nan nan
nan nan nan
nan nan nan
nan nan nan
nan nan nan
nan nan nan
nan nan nan
nan nan nan
nan nan nan
nan nan nan
nan nan nan
nan nan nan
nan nan nan
nan nan nan
nan nan nan
nan nan nan
nan nan nan
nan nan nan
nan nan nan
nan nan nan
nan nan nan
nan nan nan
nan nan nan
nan nan nan
nan nan nan
nan nan nan
nan nan nan
nan nan nan
nan nan nan
nan nan nan
nan nan nan
nan nan nan
nan nan nan
nan nan nan
nan nan nan
nan nan nan
nan nan nan
nan nan nan
nan nan nan
nan nan nan
nan nan nan
nan nan nan
nan nan nan
nan nan nan
nan nan nan
nan nan nan
nan nan nan
nan nan nan
nan nan nan
nan nan nan
nan nan nan
nan nan nan
nan nan nan
nan nan nan
nan nan nan
nan nan nan
nan nan nan
nan nan nan
nan nan nan
nan nan nan
nan nan nan
nan nan nan
nan nan nan
nan nan nan
nan nan nan
nan nan nan
nan nan nan
nan nan nan
nan nan nan
nan nan nan
nan nan nan
nan nan nan
nan nan nan
nan nan nan
nan nan nan
nan nan nan
nan nan nan
nan nan nan
nan nan nan
nan nan nan
nan nan nan
nan nan nan
nan nan nan
nan nan nan
nan nan nan
nan nan nan
nan nan nan
nan nan nan
nan nan nan
nan nan nan
nan nan nan
nan nan nan
nan nan nan
nan nan nan
nan nan nan
nan nan nan
nan nan nan
nan nan nan
nan nan nan
nan nan nan
nan nan nan
nan nan nan
nan nan nan
nan nan nan
nan nan nan
nan nan nan
nan nan nan
nan nan nan
nan nan nan
nan nan nan
nan nan nan
nan nan nan
nan nan nan
nan nan nan
nan nan nan
nan nan nan
nan nan nan
nan nan nan
nan nan nan
nan nan nan
nan nan nan
nan nan nan
nan nan nan
nan nan nan
nan nan nan
nan nan nan
nan nan nan
nan nan nan
nan nan nan
nan nan nan
nan nan nan
nan nan nan
nan nan nan
nan nan nan
nan nan nan
nan nan nan
nan nan nan
nan nan nan
nan nan nan
nan nan nan
nan nan nan
nan nan nan
nan nan nan
nan nan nan
nan nan nan
nan nan nan
nan nan nan
nan nan nan
nan nan nan
nan nan nan
nan nan nan
nan nan nan
nan nan nan
nan nan nan
nan nan nan
nan nan nan
nan nan nan
nan nan nan
nan nan nan
nan nan nan
nan nan nan
nan nan nan
nan nan nan
nan nan nan
nan nan nan
nan nan nan
nan nan nan
nan nan nan
nan nan nan
nan nan nan
nan nan nan
nan nan nan
nan nan nan
nan nan nan
nan nan nan
nan nan nan
nan nan nan
nan nan nan
nan nan nan
nan nan nan
nan nan nan
nan nan nan
nan nan nan
nan nan nan
nan nan nan
nan nan nan
nan nan nan
nan nan nan
nan nan nan
nan nan nan
nan nan nan
nan nan nan
nan nan nan
nan nan nan
nan nan nan
nan nan nan
nan nan nan
nan nan nan
nan nan nan
nan nan nan
nan nan nan
nan nan nan
nan nan nan
nan nan nan
nan nan nan
nan nan nan
nan nan nan
nan nan nan
nan nan nan
nan nan nan
nan nan nan
nan nan nan
nan nan nan
nan nan nan
nan nan nan
nan nan nan
nan nan nan
nan nan nan
nan nan nan
nan nan nan
nan nan nan
nan nan nan
nan nan nan
nan nan nan
nan nan nan
nan nan nan
3 2 1 0
3 4 3 0
3 0 3 2
3 6 5 4
3 4 5 3
3 8 7 6
3 6 7 5
3 10 9 8
3 8 9 7
3 10 11 9
3 14 13 12
3 14 12 1
3 12 0 1
3 12 15 0
3 0 16 4
3 0 15 16
3 4 17 6
3 4 16 17
3 6 18 8
3 6 17 18
3 8 19 10
3 8 18 19
3 11 10 20
3 20 10 19
3 13 21 12
3 12 21 15
3 15 21 22
3 15 22 16
3 16 22 23
3 16 23 17
3 17 23 24
3 17 24 18
3 18 24 25
3 18 25 19
3 19 25 26
3 19 26 20
3 29 28 27
3 31 30 27
3 27 30 29
3 33 32 31
3 31 32 30
3 35 34 33
3 33 34 32
3 37 36 35
3 35 36 34
3 39 38 37
3 37 38 36
3 41 40 39
3 39 40 38
3 43 42 41
3 41 42 40
3 43 44 42
3 47 46 45
3 49 48 45
3 45 48 47
3 48 49 28
3 49 27 28
3 49 50 27
3 27 51 31
3 27 50 51
3 51 1 2
3 33 51 2
3 31 51 33
3 33 2 3
3 33 3 35
3 35 3 5
3 35 5 37
3 37 5 7
3 37 7 39
3 39 7 9
3 39 9 41
3 41 9 11
3 52 41 11
3 43 41 52
3 44 43 53
3 43 54 53
3 43 52 54
3 54 55 53
3 58 57 56
3 58 56 46
3 56 45 46
3 56 59 45
3 45 60 49
3 45 59 60
3 49 61 50
3 49 60 61
3 61 13 14
3 51 61 14
3 50 61 51
3 51 14 1
3 20 62 52
3 20 52 11
3 52 63 54
3 52 62 63
3 55 54 64
3 64 54 63
3 57 65 56
3 67 66 65
3 66 56 65
3 66 59 56
3 59 68 60
3 59 66 68
3 60 69 61
3 60 68 69
3 70 21 13
3 61 70 13
3 69 70 61
3 71 22 21
3 71 21 70
3 72 23 22
3 72 22 71
3 73 24 23
3 73 23 72
3 74 25 24
3 74 24 73
3 75 26 25
3 75 25 74
3 75 76 26
3 26 76 20
3 76 77 20
3 77 62 20
3 62 77 63
3 63 77 78
3 63 78 64
3 67 79 66
3 66 79 68
3 68 79 80
3 68 80 69
3 69 80 81
3 69 81 70
3 70 81 82
3 70 82 71
3 71 82 83
3 71 83 72
3 72 83 84
3 72 84 73
3 73 84 85
3 73 85 74
3 74 85 86
3 74 86 75
3 75 86 87
3 75 87 76
3 90 89 88
3 92 91 88
3 88 91 90
3 94 93 92
3 92 93 91
3 96 95 94
3 94 95 93
3 98 97 96
3 96 97 95
3 100 99 98
3 98 99 97
3 102 101 100
3 100 101 99
3 104 103 102
3 102 103 101
3 104 105 103
3 108 107 106
3 108 106 89
3 106 88 89
3 106 109 88
3 109 28 29
3 92 109 29
3 88 109 92
3 92 29 30
3 92 30 94
3 94 30 32
3 94 32 96
3 96 32 34
3 96 34 98
3 98 34 36
3 98 36 100
3 100 36 38
3 100 38 102
3 102 38 40
3 102 40 104
3 110 105 104
3 40 110 104
3 42 110 40
3 112 111 44
3 111 42 44
3 111 110 42
3 112 113 111
3 116 115 114
3 118 117 114
3 114 117 116
3 117 118 107
3 107 118 106
3 118 46 106
3 46 47 106
3 106 47 48
3 106 48 109
3 109 48 28
3 53 112 44
3 120 119 55
3 55 119 53
3 119 113 53
3 113 112 53
3 120 121 119
3 124 123 122
3 124 122 115
3 122 114 115
3 122 125 114
3 125 57 58
3 118 125 58
3 114 125 118
3 118 58 46
3 64 126 120
3 64 120 55
3 121 120 127
3 127 120 126
3 123 128 122
3 130 129 128
3 129 122 128
3 129 125 122
3 131 65 57
3 125 131 57
3 129 131 125
3 131 67 65
3 76 132 77
3 133 78 77
3 133 77 132
3 133 134 78
3 78 134 64
3 134 135 64
3 135 126 64
3 126 135 127
3 130 136 129
3 138 137 136
3 137 129 136
3 137 131 129
3 139 79 67
3 131 139 67
3 137 139 131
3 79 139 140
3 141 79 140
3 80 79 141
3 80 142 81
3 141 142 80
3 81 143 82
3 142 143 81
3 82 144 83
3 143 144 82
3 144 146 145
3 84 144 145
3 83 144 84
3 147 85 84
3 147 84 145
3 148 86 85
3 148 85 147
3 86 148 149
3 150 86 149
3 87 86 150
3 76 87 132
3 87 151 132
3 87 150 151
3 132 151 133
3 133 151 152
3 133 152 134
3 138 153 137
3 137 153 139
3 139 153 154
3 139 154 140
3 146 155 145
3 145 155 147
3 147 155 156
3 147 156 148
3 148 156 157
3 148 157 149
3 160 159 158
3 162 161 158
3 158 161 160
3 164 163 162
3 162 163 161
3 164 165 163
3 168 167 166
3 89 90 166
3 90 168 166
3 90 169 168
3 170 90 91
3 170 169 90
3 171 91 93
3 171 170 91
3 172 93 95
3 172 171 93
3 97 158 159
3 172 97 159
3 95 97 172
3 158 97 99
3 158 99 162
3 162 99 101
3 162 101 164
3 173 165 164
3 101 173 164
3 103 173 101
3 175 174 105
3 174 103 105
3 174 173 103
3 175 176 174
3 179 178 177
3 181 180 177
3 177 180 179
3 180 181 167
3 167 181 166
3 181 107 166
3 107 108 166
3 166 108 89
3 110 175 105
3 182 176 175
3 110 182 175
3 111 182 110
3 111 113 182
3 182 113 183
3 186 185 184
3 186 184 178
3 178 184 177
3 184 115 177
3 115 116 177
3 177 116 117
3 177 117 181
3 181 117 107
3 187 183 113
3 187 113 119
3 119 121 187
3 187 121 188
3 191 190 189
3 191 189 185
3 185 189 184
3 189 123 184
3 123 124 184
3 184 124 115
3 127 188 121
3 127 192 188
3 195 194 193
3 193 196 195
3 190 197 189
3 197 199 198
3 197 198 128
3 189 197 128
3 123 189 128
3 198 130 128
3 202 201 200
3 135 134 200
3 201 135 200
3 203 135 201
3 127 135 192
3 192 135 203
3 194 204 193
3 193 204 196
3 199 205 198
3 205 207 206
3 205 206 136
3 198 205 136
3 130 198 136
3 206 138 136
3 209 208 141
3 209 141 140
3 141 210 142
3 208 210 141
3 142 211 143
3 210 211 142
3 143 212 144
3 211 212 143
3 214 213 146
3 144 214 146
3 212 214 144
3 215 213 214
3 149 216 150
3 150 216 217
3 218 150 217
3 151 150 218
3 200 152 202
3 152 218 202
3 152 151 218
3 152 200 134
3 206 207 219
3 219 207 220
3 221 153 138
3 206 221 138
3 219 221 206
3 153 221 222
3 223 153 222
3 154 153 223
3 140 154 209
3 209 154 223
3 213 155 146
3 156 155 213
3 224 156 213
3 215 224 213
3 225 156 224
3 226 157 156
3 226 156 225
3 216 149 157
3 226 216 157
3 227 216 226
3 217 216 228
3 228 216 227
3 231 230 229
3 229 232 231
3 220 233 219
3 219 233 221
3 221 233 234
3 221 234 222
3 224 235 225
3 225 235 226
3 226 235 236
3 226 236 227
3 227 236 237
3 227 237 228
3 240 239 238
3 242 241 238
3 238 241 240
3 241 242 230
3 242 229 230
3 242 243 229
3 232 229 244
3 244 229 243
3 247 246 245
3 249 248 245
3 245 248 247
3 251 250 249
3 249 250 248
3 250 251 239
3 251 238 239
3 251 252 238
3 238 253 242
3 238 252 253
3 255 243 254
3 243 253 254
3 243 242 253
3 243 255 244
3 245 246 256
3 256 246 257
3 245 258 249
3 245 256 258
3 260 251 259
3 251 258 259
3 251 249 258
3 251 260 252
3 252 260 261
3 252 261 253
3 253 261 262
3 253 262 254
3 257 263 256
3 256 263 258
3 258 263 264
3 258 264 259
3 267 266 265
3 269 268 265
3 265 268 267
3 159 160 269
3 160 268 269
3 160 270 268
3 271 160 161
3 271 270 160
3 272 161 163
3 272 271 161
3 274 273 165
3 273 163 165
3 273 272 163
3 274 275 273
3 278 277 276
3 280 279 276
3 276 279 278
3 280 281 279
3 284 283 282
3 167 168 282
3 168 284 282
3 168 285 284
3 286 168 169
3 286 285 168
3 287 169 170
3 287 286 169
3 171 265 266
3 287 171 266
3 170 171 287
3 265 171 172
3 265 172 269
3 269 172 159
3 173 274 165
3 288 275 274
3 173 288 274
3 174 288 173
3 290 289 176
3 289 174 176
3 289 288 174
3 290 291 289
3 294 293 292
3 294 292 277
3 292 276 277
3 292 295 276
3 276 296 280
3 276 295 296
3 281 280 297
3 297 280 296
3 299 298 179
3 179 298 178
3 180 282 283
3 299 180 283
3 179 180 299
3 282 180 167
3 182 290 176
3 301 300 183
3 183 300 182
3 300 291 182
3 291 290 182
3 301 302 300
3 305 304 303
3 307 306 303
3 303 306 305
3 306 307 293
3 307 292 293
3 307 308 292
3 310 295 309
3 295 308 309
3 295 292 308
3 295 310 296
3 296 310 311
3 296 311 297
3 314 313 312
3 185 186 312
3 186 314 312
3 186 315 314
3 186 178 298
3 186 298 315
3 187 301 183
3 187 188 301
3 188 302 301
3 188 316 302
3 319 318 317
3 321 320 317
3 317 320 319
3 320 321 304
3 321 303 304
3 321 322 303
3 303 323 307
3 303 322 323
3 307 324 308
3 307 323 324
3 309 308 325
3 325 308 324
3 328 327 326
3 330 329 326
3 326 329 328
3 332 331 330
3 330 331 329
3 332 333 331
3 336 335 334
3 336 334 313
3 313 334 312
3 334 190 312
3 190 191 312
3 312 191 185
3 339 338 337
3 338 316 337
3 316 192 337
3 316 188 192
3 342 341 340
3 342 340 318
3 340 317 318
3 340 343 317
3 317 344 321
3 317 343 344
3 321 345 322
3 321 344 345
3 322 346 323
3 322 345 346
3 323 347 324
3 323 346 347
3 325 324 348
3 348 324 347
3 351 350 349
3 353 352 349
3 349 352 351
3 352 353 327
3 327 353 326
3 353 194 326
3 194 195 326
3 326 195 196
3 354 326 196
3 330 326 354
3 330 355 332
3 330 354 355
3 333 332 356
3 332 357 356
3 332 355 357
3 356 357 335
3 357 334 335
3 357 358 334
3 359 197 190
3 334 359 190
3 358 359 334
3 359 199 197
3 362 361 360
3 364 363 360
3 364 360 361
3 365 363 364
3 367 366 201
3 367 201 202
3 337 203 339
3 203 366 339
3 203 201 366
3 203 337 192
3 340 341 368
3 368 341 369
3 340 370 343
3 340 368 370
3 343 371 344
3 343 370 371
3 344 372 345
3 344 371 372
3 345 373 346
3 345 372 373
3 346 374 347
3 346 373 374
3 348 347 375
3 347 376 375
3 347 374 376
3 378 377 376
3 376 377 375
3 380 379 378
3 378 379 377
3 382 381 380
3 380 381 379
3 381 382 350
3 382 349 350
3 382 383 349
3 349 384 353
3 349 383 384
3 385 204 194
3 353 385 194
3 384 385 353
3 354 196 204
3 385 354 204
3 386 354 385
3 354 387 355
3 354 386 387
3 355 388 357
3 355 387 388
3 390 358 389
3 358 388 389
3 358 357 388
3 358 390 359
3 359 390 391
3 359 391 199
3 391 205 199
3 391 392 205
3 394 393 207
3 205 394 207
3 392 394 205
3 395 393 394
3 398 397 396
3 208 209 396
3 397 208 396
3 399 208 397
3 208 400 210
3 399 400 208
3 360 211 362
3 211 400 362
3 211 210 400
3 211 360 212
3 212 360 363
3 365 401 363
3 401 212 363
3 401 214 212
3 403 402 215
3 214 403 215
3 401 403 214
3 404 402 403
3 407 406 405
3 218 217 405
3 406 218 405
3 408 218 406
3 202 218 367
3 367 218 408
3 411 410 409
3 411 409 369
3 409 368 369
3 409 412 368
3 368 413 370
3 368 412 413
3 370 414 371
3 370 413 414
3 371 415 372
3 371 414 415
3 372 416 373
3 372 415 416
3 373 417 374
3 373 416 417
3 374 418 376
3 374 417 418
3 376 419 378
3 376 418 419
3 378 420 380
3 378 419 420
3 380 421 382
3 380 420 421
3 382 422 383
3 382 421 422
3 424 384 423
3 384 422 423
3 384 383 422
3 384 424 385
3 385 424 425
3 385 425 386
3 386 425 426
3 386 426 387
3 387 426 427
3 387 427 388
3 388 427 428
3 388 428 389
3 429 220 393
3 393 220 207
3 393 395 430
3 431 393 430
3 429 393 431
3 431 430 398
3 431 398 396
3 222 431 396
3 223 222 396
3 223 396 209
3 432 224 402
3 402 224 215
3 402 404 433
3 434 402 433
3 432 402 434
3 434 433 407
3 405 434 407
3 435 434 405
3 228 435 217
3 217 435 405
3 438 437 436
3 438 436 410
3 436 409 410
3 436 439 409
3 409 440 412
3 409 439 440
3 412 441 413
3 412 440 441
3 413 442 414
3 413 441 442
3 414 443 415
3 414 442 443
3 443 230 231
3 416 443 231
3 415 443 416
3 416 231 232
3 444 416 232
3 417 416 444
3 417 445 418
3 417 444 445
3 418 446 419
3 418 445 446
3 419 447 420
3 419 446 447
3 420 448 421
3 420 447 448
3 450 422 449
3 422 448 449
3 422 421 448
3 422 450 423
3 429 233 220
3 233 429 234
3 234 429 431
3 234 431 222
3 432 235 224
3 235 432 236
3 236 432 434
3 236 434 237
3 237 434 435
3 237 435 228
3 453 452 451
3 455 454 451
3 451 454 453
3 454 455 437
3 455 436 437
3 455 456 436
3 436 457 439
3 436 456 457
3 439 458 440
3 439 457 458
3 440 459 441
3 440 458 459
3 459 239 240
3 442 459 240
3 441 459 442
3 442 240 241
3 442 241 443
3 443 241 230
3 244 460 444
3 244 444 232
3 444 461 445
3 444 460 461
3 445 462 446
3 445 461 462
3 446 463 447
3 446 462 463
3 465 448 464
3 448 463 464
3 448 447 463
3 448 465 449
3 468 467 466
3 470 469 466
3 466 469 468
3 469 470 452
3 470 451 452
3 470 471 451
3 451 472 455
3 451 471 472
3 455 473 456
3 455 472 473
3 473 246 247
3 457 473 247
3 456 473 457
3 457 247 248
3 457 248 458
3 458 248 250
3 458 250 459
3 459 250 239
3 254 474 255
3 460 244 255
3 474 460 255
3 475 460 474
3 460 476 461
3 460 475 476
3 461 477 462
3 461 476 477
3 479 463 478
3 463 477 478
3 463 462 477
3 463 479 464
3 482 481 480
3 482 480 467
3 480 466 467
3 480 483 466
3 466 484 470
3 466 483 484
3 470 485 471
3 470 484 485
3 471 486 472
3 471 485 486
3 472 487 473
3 472 486 487
3 487 257 246
3 487 246 473
3 259 488 260
3 489 261 260
3 489 260 488
3 490 262 261
3 490 261 489
3 474 254 262
3 490 474 262
3 491 474 490
3 474 492 475
3 474 491 492
3 475 493 476
3 475 492 493
3 476 494 477
3 476 493 494
3 478 477 495
3 495 477 494
3 498 497 496
3 498 496 481
3 496 480 481
3 496 499 480
3 480 500 483
3 480 499 500
3 483 501 484
3 483 500 501
3 484 502 485
3 484 501 502
3 485 503 486
3 485 502 503
3 486 504 487
3 486 503 504
3 505 263 257
3 487 505 257
3 504 505 487
3 506 264 263
3 506 263 505
3 488 259 264
3 506 488 264
3 507 488 506
3 488 508 489
3 488 507 508
3 489 509 490
3 489 508 509
3 490 510 491
3 490 509 510
3 491 511 492
3 491 510 511
3 492 512 493
3 492 511 512
3 514 494 513
3 494 512 513
3 494 493 512
3 494 514 495
3 497 515 496
3 496 515 499
3 499 515 516
3 499 516 500
3 500 516 517
3 500 517 501
3 501 517 518
3 501 518 502
3 502 518 519
3 521 520 519
3 520 502 519
3 520 503 502
3 503 522 504
3 503 520 522
3 504 523 505
3 504 522 523
3 505 524 506
3 505 523 524
3 506 525 507
3 506 524 525
3 507 526 508
3 507 525 526
3 508 527 509
3 508 526 527
3 509 528 510
3 509 527 528
3 510 529 511
3 510 528 529
3 511 530 512
3 511 529 530
3 513 512 531
3 531 512 530
3 521 532 520
3 520 532 522
3 522 532 533
3 535 534 533
3 534 522 533
3 534 523 522
3 523 536 524
3 523 534 536
3 524 537 525
3 524 536 537
3 525 538 526
3 525 537 538
3 526 539 527
3 526 538 539
3 527 540 528
3 527 539 540
3 528 541 529
3 528 540 541
3 529 542 530
3 529 541 542
3 531 530 543
3 543 530 542
3 535 544 534
3 546 545 544
3 545 534 544
3 545 536 534
3 536 547 537
3 536 545 547
3 537 548 538
3 537 547 548
3 538 549 539
3 538 548 549
3 539 550 540
3 539 549 550
3 540 551 541
3 540 550 551
3 541 552 542
3 541 551 552
3 543 542 553
3 553 542 552
3 546 554 545
3 556 555 554
3 555 545 554
3 555 547 545
3 547 557 548
3 547 555 557
3 548 558 549
3 548 557 558
3 549 559 550
3 549 558 559
3 550 560 551
3 550 559 560
3 551 561 552
3 551 560 561
3 553 552 562
3 552 563 562
3 552 561 563
3 563 564 562
3 567 566 565
3 569 568 565
3 565 568 567
3 569 570 568
3 573 572 571
3 575 574 571
3 571 574 573
3 577 576 575
3 575 576 574
3 577 578 576
3 581 580 579
3 583 582 579
3 579 582 581
3 266 267 583
3 267 582 583
3 267 584 582
3 268 565 566
3 584 268 566
3 267 268 584
3 565 268 270
3 565 270 569
3 585 570 569
3 270 585 569
3 271 585 270
3 586 271 272
3 586 585 271
3 587 272 273
3 587 586 272
3 273 275 587
3 587 275 588
3 591 590 589
3 591 589 572
3 589 571 572
3 589 592 571
3 592 277 278
3 575 592 278
3 571 592 575
3 575 278 279
3 575 279 577
3 279 281 577
3 281 578 577
3 281 593 578
3 596 595 594
3 283 284 594
3 284 596 594
3 284 597 596
3 598 284 285
3 598 597 284
3 286 579 580
3 598 286 580
3 285 286 598
3 579 286 287
3 579 287 583
3 583 287 266
3 599 588 275
3 599 275 288
3 600 288 289
3 600 599 288
3 289 291 600
3 600 291 601
3 604 603 602
3 606 605 602
3 602 605 604
3 605 606 590
3 606 589 590
3 606 607 589
3 607 293 294
3 592 607 294
3 589 607 592
3 592 294 277
3 297 593 281
3 297 608 593
3 611 610 609
3 611 609 595
3 595 609 594
3 609 298 594
3 298 299 594
3 594 299 283
3 612 601 291
3 612 291 300
3 614 613 302
3 613 300 302
3 613 612 300
3 617 616 615
3 617 615 603
3 615 602 603
3 615 618 602
3 618 304 305
3 606 618 305
3 602 618 606
3 606 305 306
3 606 306 607
3 607 306 293
3 309 619 310
3 620 311 310
3 620 310 619
3 620 621 311
3 621 297 311
3 621 608 297
3 624 623 622
3 626 625 622
3 622 625 624
3 628 627 626
3 626 627 625
3 628 629 627
3 632 631 630
3 313 314 630
3 314 632 630
3 314 633 632
3 315 609 610
3 633 315 610
3 314 315 633
3 609 315 298
3 636 635 634
3 635 637 614
3 316 635 614
3 302 316 614
3 634 635 316
3 640 639 638
3 640 638 616
3 616 638 615
3 638 318 615
3 318 319 615
3 615 319 320
3 615 320 618
3 618 320 304
3 325 641 619
3 325 619 309
3 643 620 642
3 620 641 642
3 620 619 641
3 620 643 621
3 646 645 644
3 646 644 623
3 623 644 622
3 644 327 622
3 327 328 622
3 622 328 329
3 622 329 626
3 626 329 331
3 626 331 628
3 648 647 333
3 333 647 331
3 647 629 331
3 629 628 331
3 647 648 631
3 631 648 630
3 648 335 630
3 335 336 630
3 630 336 313
3 651 650 649
3 649 650 636
3 649 636 634
3 339 649 634
3 338 339 634
3 338 634 316
3 638 639 342
3 639 341 342
3 639 652 341
3 638 342 318
3 348 653 641
3 348 641 325
3 642 641 654
3 641 655 654
3 641 653 655
3 657 656 655
3 655 656 654
3 659 658 657
3 657 658 656
3 350 351 659
3 351 658 659
3 351 660 658
3 352 644 645
3 660 352 645
3 351 352 660
3 644 352 327
3 356 648 333
3 648 356 335
3 663 662 661
3 664 661 662
3 667 666 665
3 669 668 665
3 669 665 666
3 361 362 668
3 669 361 668
3 670 361 669
3 361 671 364
3 670 671 361
3 673 672 365
3 364 673 365
3 671 673 364
3 675 674 672
3 675 672 673
3 676 674 675
3 679 678 677
3 681 680 677
3 681 677 678
3 680 681 651
3 680 651 649
3 367 680 649
3 366 367 649
3 366 649 339
3 684 683 682
3 652 684 682
3 369 652 682
3 341 652 369
3 375 653 348
3 653 375 377
3 653 377 655
3 655 377 379
3 655 379 657
3 657 379 381
3 657 381 659
3 659 381 350
3 389 685 390
3 390 685 686
3 687 390 686
3 391 390 687
3 661 392 663
3 392 687 663
3 392 391 687
3 664 688 661
3 688 392 661
3 688 394 392
3 690 689 395
3 394 690 395
3 688 690 394
3 397 398 689
3 690 397 689
3 691 397 690
3 665 399 667
3 399 691 667
3 399 397 691
3 399 665 400
3 400 665 668
3 400 668 362
3 672 401 365
3 401 672 403
3 403 672 674
3 693 692 404
3 693 404 403
3 676 693 403
3 674 676 403
3 692 693 679
3 692 679 677
3 407 692 677
3 406 407 677
3 406 677 408
3 408 677 680
3 408 680 367
3 696 695 694
3 696 694 683
3 683 694 682
3 694 410 682
3 410 411 682
3 682 411 369
3 698 697 424
3 698 424 423
3 424 699 425
3 697 699 424
3 425 700 426
3 699 700 425
3 426 701 427
3 700 701 426
3 427 702 428
3 701 702 427
3 389 428 685
3 428 703 685
3 428 702 703
3 685 703 686
3 689 430 395
3 430 689 398
3 692 433 404
3 433 692 407
3 706 705 704
3 708 707 704
3 704 707 706
3 707 708 695
3 695 708 694
3 708 437 694
3 437 438 694
3 694 438 410
3 710 709 450
3 710 450 449
3 423 450 698
3 698 450 709
3 713 712 711
3 715 714 711
3 711 714 713
3 717 716 715
3 715 716 714
3 719 718 717
3 717 718 716
3 721 720 719
3 719 720 718
3 720 721 705
3 705 721 704
3 721 452 704
3 452 453 704
3 704 453 454
3 704 454 708
3 708 454 437
3 464 722 465
3 722 723 465
3 723 449 465
3 723 710 449
3 726 725 724
3 726 724 712
3 724 711 712
3 724 727 711
3 711 728 715
3 711 727 728
3 715 729 717
3 715 728 729
3 729 467 468
3 719 729 468
3 717 729 719
3 719 468 469
3 719 469 721
3 721 469 452
3 478 730 479
3 730 731 479
3 479 731 464
3 731 732 464
3 732 722 464
3 722 732 723
3 724 725 733
3 733 725 734
3 724 735 727
3 724 733 735
3 727 736 728
3 727 735 736
3 736 481 482
3 729 736 482
3 728 736 729
3 729 482 467
3 738 737 730
3 478 738 730
3 495 738 478
3 730 737 731
3 733 734 739
3 739 734 740
3 733 741 735
3 733 739 741
3 741 497 498
3 736 741 498
3 735 741 736
3 736 498 481
3 513 742 514
3 742 743 514
3 743 495 514
3 743 738 495
3 739 740 744
3 744 740 745
3 739 746 741
3 739 744 746
3 747 515 497
3 741 747 497
3 746 747 741
3 748 516 515
3 748 515 747
3 749 517 516
3 749 516 748
3 750 518 517
3 750 517 749
3 751 519 518
3 751 518 750
3 751 521 519
3 531 752 742
3 531 742 513
3 743 742 753
3 753 742 752
3 745 754 744
3 744 754 746
3 746 754 755
3 746 755 747
3 747 755 756
3 747 756 748
3 748 756 757
3 748 757 749
3 749 757 758
3 749 758 750
3 750 758 759
3 750 759 751
3 751 759 760
3 760 762 761
3 760 761 532
3 751 760 532
3 521 751 532
3 763 533 532
3 763 532 761
3 763 535 533
3 543 764 752
3 543 752 531
3 753 752 765
3 765 752 764
3 762 766 761
3 761 766 763
3 763 766 767
3 763 767 535
3 767 544 535
3 767 768 544
3 546 544 768
3 546 768 769
3 553 770 764
3 553 764 543
3 765 764 771
3 764 772 771
3 764 770 772
3 772 773 771
3 769 774 546
3 546 774 554
3 556 554 774
3 556 774 775
3 562 770 553
3 770 562 564
3 776 770 564
3 772 770 776
3 773 772 777
3 777 772 776
3 780 779 778
3 782 781 778
3 778 781 780
3 784 783 782
3 782 783 781
3 784 785 783
3 787 786 567
3 567 786 566
3 788 567 568
3 788 787 567
3 790 789 570
3 789 568 570
3 789 788 568
3 792 791 790
3 790 791 789
3 792 793 791
3 796 795 794
3 796 794 779
3 779 794 778
3 794 572 778
3 572 573 778
3 778 573 574
3 778 574 782
3 782 574 576
3 782 576 784
3 576 578 784
3 578 785 784
3 578 797 785
3 800 799 798
3 802 801 798
3 798 801 800
3 804 803 802
3 802 803 801
3 580 581 804
3 581 803 804
3 581 805 803
3 806 581 582
3 806 805 581
3 807 582 584
3 807 806 582
3 584 566 786
3 584 786 807
3 585 790 570
3 790 585 586
3 790 586 792
3 808 793 792
3 586 808 792
3 587 808 586
3 810 809 588
3 809 587 588
3 809 808 587
3 810 811 809
3 814 813 812
3 814 812 795
3 795 812 794
3 812 590 794
3 590 591 794
3 794 591 572
3 593 797 578
3 593 815 797
3 818 817 816
3 818 816 799
3 799 816 798
3 816 595 798
3 595 596 798
3 798 596 597
3 798 597 802
3 802 597 598
3 802 598 804
3 804 598 580
3 599 810 588
3 819 811 810
3 599 819 810
3 600 819 599
3 821 820 601
3 820 600 601
3 820 819 600
3 821 822 820
3 825 824 823
3 603 604 823
3 604 825 823
3 604 826 825
3 605 812 813
3 826 605 813
3 604 605 826
3 812 605 590
3 829 828 827
3 828 815 827
3 815 608 827
3 815 593 608
3 832 831 830
3 830 833 832
3 836 835 834
3 836 834 817
3 817 834 816
3 834 610 816
3 610 611 816
3 816 611 595
3 612 821 601
3 612 613 821
3 613 837 821
3 837 822 821
3 613 838 837
3 841 840 839
3 841 839 824
3 824 839 823
3 839 616 823
3 616 617 823
3 823 617 603
3 842 829 827
3 827 608 842
3 608 843 842
3 608 621 843
3 845 844 624
3 624 844 623
3 625 830 831
3 845 625 831
3 624 625 845
3 846 833 830
3 625 846 830
3 627 846 625
3 848 847 629
3 847 627 629
3 847 846 627
3 631 632 848
3 632 847 848
3 632 849 847
3 633 834 835
3 849 633 835
3 632 633 849
3 834 633 610
3 852 851 850
3 635 636 850
3 851 635 850
3 853 635 851
3 838 637 837
3 637 853 837
3 637 635 853
3 839 840 640
3 840 639 640
3 840 854 639
3 839 640 616
3 642 855 643
3 843 621 856
3 621 855 856
3 855 857 856
3 621 643 855
3 857 858 856
3 861 860 859
3 645 646 859
3 646 861 859
3 646 862 861
3 646 623 844
3 646 844 862
3 647 848 629
3 848 647 631
3 865 864 863
3 867 866 863
3 867 863 864
3 869 868 866
3 869 866 867
3 871 870 868
3 871 868 869
3 873 872 870
3 873 870 871
3 875 874 872
3 875 872 873
3 876 874 875
3 879 878 877
3 877 878 852
3 877 852 850
3 651 877 850
3 650 651 850
3 650 850 636
3 882 881 880
3 854 882 880
3 652 854 880
3 639 854 652
3 654 855 642
3 855 654 656
3 855 656 857
3 883 858 857
3 656 883 857
3 658 883 656
3 660 859 860
3 883 660 860
3 658 660 883
3 859 660 645
3 886 885 884
3 662 663 884
3 885 662 884
3 887 662 885
3 889 888 664
3 662 889 664
3 887 889 662
3 891 890 888
3 891 888 889
3 893 892 890
3 893 890 891
3 892 893 865
3 892 865 863
3 667 892 863
3 666 667 863
3 666 863 669
3 669 863 866
3 669 866 670
3 670 866 868
3 670 868 671
3 671 868 870
3 671 870 673
3 673 870 872
3 673 872 675
3 675 872 874
3 895 894 676
3 895 676 675
3 876 895 675
3 874 876 675
3 678 679 894
3 895 678 894
3 896 678 895
3 877 681 879
3 681 896 879
3 681 678 896
3 681 877 651
3 899 898 897
3 899 897 881
3 881 897 880
3 897 683 880
3 683 684 880
3 880 684 652
3 902 901 900
3 903 900 901
3 906 905 904
3 904 905 886
3 904 886 884
3 686 904 884
3 687 686 884
3 687 884 663
3 888 688 664
3 688 888 690
3 690 888 890
3 690 890 691
3 691 890 892
3 691 892 667
3 894 693 676
3 693 894 679
3 909 908 907
3 909 907 898
3 898 907 897
3 907 695 897
3 695 696 897
3 897 696 683
3 911 910 697
3 911 697 698
3 900 699 902
3 699 910 902
3 699 697 910
3 903 912 900
3 912 699 900
3 912 700 699
3 700 913 701
3 912 913 700
3 701 914 702
3 913 914 701
3 904 703 906
3 703 914 906
3 703 702 914
3 703 904 686
3 917 916 915
3 919 918 915
3 915 918 917
3 919 920 918
3 923 922 921
3 925 924 921
3 921 924 923
3 705 706 925
3 706 924 925
3 706 926 924
3 707 907 908
3 926 707 908
3 706 707 926
3 907 707 695
3 928 927 709
3 928 709 710
3 698 709 911
3 911 709 927
3 931 930 929
3 931 929 916
3 916 929 915
3 929 712 915
3 712 713 915
3 915 713 714
3 915 714 919
3 932 920 919
3 714 932 919
3 716 932 714
3 718 921 922
3 932 718 922
3 716 718 932
3 921 718 720
3 921 720 925
3 925 720 705
3 723 928 710
3 723 933 928
3 929 930 726
3 930 725 726
3 930 934 725
3 929 726 712
3 936 935 732
3 936 732 731
3 723 732 933
3 933 732 935
3 939 938 937
3 934 939 937
3 734 934 937
3 725 934 734
3 941 940 737
3 941 737 738
3 731 737 936
3 936 737 940
3 937 938 942
3 942 938 943
3 942 740 734
3 942 734 937
3 743 941 738
3 743 944 941
3 943 945 942
3 740 942 945
3 946 740 945
3 745 740 946
3 949 948 947
3 950 947 948
3 753 944 743
3 753 951 944
3 754 745 952
3 745 953 952
3 745 946 953
3 754 952 954
3 955 754 954
3 755 754 955
3 947 756 949
3 756 955 949
3 756 755 955
3 950 956 947
3 956 756 947
3 956 757 756
3 757 957 758
3 956 957 757
3 758 958 759
3 957 958 758
3 759 959 760
3 958 959 759
3 961 960 762
3 760 961 762
3 959 961 760
3 962 960 961
3 765 951 753
3 765 963 951
3 953 964 952
3 952 964 954
3 960 766 762
3 962 965 960
3 965 766 960
3 965 767 766
3 767 966 768
3 965 966 767
3 769 768 966
3 769 966 967
3 968 963 765
3 968 765 771
3 771 773 968
3 968 773 969
3 967 970 769
3 769 970 774
3 775 774 970
3 775 970 971
3 777 969 773
3 777 972 969
3 975 974 973
3 977 976 973
3 973 976 975
3 977 978 976
3 973 974 780
3 974 779 780
3 974 979 779
3 973 780 781
3 973 781 977
3 980 978 977
3 781 980 977
3 783 980 781
3 783 785 980
3 980 785 981
3 984 983 982
3 786 787 982
3 787 984 982
3 787 985 984
3 986 787 788
3 986 985 787
3 987 788 789
3 987 986 788
3 988 789 791
3 988 987 789
3 791 793 988
3 988 793 989
3 991 990 796
3 796 990 795
3 796 779 979
3 796 979 991
3 797 981 785
3 797 992 981
3 994 993 800
3 800 993 799
3 995 800 801
3 995 994 800
3 996 801 803
3 996 995 801
3 997 803 805
3 997 996 803
3 998 805 806
3 998 997 805
3 807 982 983
3 998 807 983
3 806 807 998
3 982 807 786
3 999 989 793
3 999 793 808
3 1000 808 809
3 1000 999 808
3 809 811 1000
3 1000 811 1001
3 1004 1003 1002
3 813 814 1002
3 814 1004 1002
3 814 1005 1004
3 814 795 990
3 814 990 1005
3 815 992 797
3 815 1006 992
3 1008 1007 818
3 818 1007 817
3 818 799 993
3 818 993 1008
3 1009 1001 811
3 1009 811 819
3 1011 1009 1010
3 1009 820 1010
3 1009 819 820
3 822 1010 820
3 1014 1013 1012
3 824 825 1012
3 825 1014 1012
3 825 1015 1014
3 826 1002 1003
3 1015 826 1003
3 825 826 1015
3 1002 826 813
3 1017 1016 828
3 1017 828 829
3 815 828 1006
3 1006 828 1016
3 1020 1019 1018
3 831 832 1018
3 832 1020 1018
3 832 1021 1020
3 832 833 1021
3 1021 833 1022
3 1024 1023 836
3 836 1023 835
3 836 817 1007
3 836 1007 1024
3 1027 1026 1025
3 1025 1026 1011
3 1010 1025 1011
3 1028 1025 1010
3 837 1028 822
3 822 1028 1010
3 1012 1013 841
3 1013 840 841
3 1013 1029 840
3 1012 841 824
3 1030 1017 829
3 1030 829 842
3 842 843 1030
3 1030 843 1031
3 1034 1033 1032
3 1034 1032 1019
3 1019 1032 1018
3 1032 844 1018
3 844 845 1018
3 1018 845 831
3 1035 1022 833
3 1035 833 846
3 1036 846 847
3 1036 1035 846
3 1037 847 849
3 1037 1036 847
3 849 835 1023
3 849 1023 1037
3 1040 1039 1038
3 1042 1041 1038
3 1042 1038 1039
3 1044 1043 1041
3 1044 1041 1042
3 1046 1045 1043
3 1046 1043 1044
3 1048 1047 1045
3 1048 1045 1046
3 1049 1047 1048
3 1052 1051 1050
3 1050 1051 1027
3 1050 1027 1025
3 852 1050 1025
3 851 852 1025
3 851 1025 853
3 853 1025 1028
3 853 1028 837
3 1055 1054 1053
3 1029 1055 1053
3 854 1029 1053
3 840 1029 854
3 1056 1031 843
3 1056 843 856
3 856 858 1056
3 1056 858 1057
3 1059 1058 861
3 861 1058 860
3 862 1032 1033
3 1059 862 1033
3 861 862 1059
3 1032 862 844
3 1062 1061 1060
3 1064 1063 1060
3 1064 1060 1061
3 1066 1065 1063
3 1066 1063 1064
3 1068 1067 1065
3 1068 1065 1066
3 1070 1069 1067
3 1070 1067 1068
3 864 865 1069
3 1070 864 1069
3 1071 864 1070
3 1038 867 1040
3 867 1071 1040
3 867 864 1071
3 867 1038 869
3 869 1038 1041
3 869 1041 871
3 871 1041 1043
3 871 1043 873
3 873 1043 1045
3 873 1045 875
3 875 1045 1047
3 1073 1072 876
3 1073 876 875
3 1049 1073 875
3 1047 1049 875
3 1075 1074 1072
3 1075 1072 1073
3 1074 1075 1052
3 1074 1052 1050
3 879 1074 1050
3 878 879 1050
3 878 1050 852
3 1053 1054 882
3 1054 881 882
3 1054 1076 881
3 1053 882 854
3 1077 1057 858
3 1077 858 883
3 883 860 1058
3 883 1058 1077
3 1062 1060 885
3 886 1062 885
3 1078 1062 886
3 885 1060 887
3 887 1060 1063
3 887 1063 889
3 889 1063 1065
3 889 1065 891
3 891 1065 1067
3 891 1067 893
3 893 1067 1069
3 893 1069 865
3 1072 895 876
3 895 1072 896
3 896 1072 1074
3 896 1074 879
3 1080 1079 899
3 899 1079 898
3 899 881 1076
3 899 1076 1080
3 1083 1082 1081
3 1085 1084 1081
3 1085 1081 1082
3 901 902 1084
3 1085 901 1084
3 1086 901 1085
3 1088 1087 903
3 901 1088 903
3 1086 1088 901
3 1090 1089 1087
3 1090 1087 1088
3 1091 1089 1090
3 1093 1092 905
3 1093 905 906
3 886 905 1078
3 1078 905 1092
3 1096 1095 1094
3 908 909 1094
3 909 1096 1094
3 909 1097 1096
3 909 898 1079
3 909 1079 1097
3 1083 1081 1098
3 1083 1098 1099
3 911 1098 910
3 1098 1084 910
3 1098 1081 1084
3 910 1084 902
3 1087 912 903
3 912 1087 913
3 913 1087 1089
3 1091 1100 1089
3 1100 913 1089
3 1100 914 913
3 906 914 1093
3 1093 914 1100
3 1102 1101 917
3 917 1101 916
3 1103 917 918
3 1103 1102 917
3 1105 1104 920
3 1104 918 920
3 1104 1103 918
3 922 923 1105
3 923 1104 1105
3 923 1106 1104
3 1107 923 924
3 1107 1106 923
3 926 1094 1095
3 1107 926 1095
3 924 926 1107
3 1094 926 908
3 1099 1098 927
3 928 1099 927
3 1108 1099 928
3 927 1098 911
3 1110 1109 931
3 931 1109 930
3 931 916 1101
3 931 1101 1110
3 932 1105 920
3 1105 932 922
3 1113 1112 1111
3 1112 1108 1111
3 1108 933 1111
3 1108 928 933
3 1109 934 930
3 1114 934 1109
3 1113 1111 935
3 936 1113 935
3 1115 1113 936
3 935 1111 933
3 1117 1116 939
3 939 1116 938
3 939 934 1114
3 939 1114 1117
3 1119 1118 940
3 1119 940 941
3 936 940 1115
3 1115 940 1118
3 1116 943 938
3 1120 943 1116
3 944 1119 941
3 944 1121 1119
3 1120 1122 943
3 943 1122 945
3 946 945 1122
3 946 1122 1123
3 1126 1125 1124
3 948 949 1124
3 1125 948 1124
3 1127 948 1125
3 1129 1128 950
3 948 1129 950
3 1127 1129 948
3 1131 1130 1128
3 1131 1128 1129
3 1133 1132 1130
3 1133 1130 1131
3 1135 1134 1132
3 1135 1132 1133
3 1136 1134 1135
3 951 1121 944
3 951 1137 1121
3 1139 953 1138
3 953 1123 1138
3 953 946 1123
3 1139 1138 1126
3 1139 1126 1124
3 954 1139 1124
3 955 954 1124
3 955 1124 949
3 1128 956 950
3 956 1128 957
3 957 1128 1130
3 957 1130 958
3 958 1130 1132
3 958 1132 959
3 959 1132 1134
3 1136 1140 1134
3 1140 959 1134
3 1140 961 959
3 1142 1141 962
3 961 1142 962
3 1140 1142 961
3 1143 1141 1142
3 963 1137 951
3 963 1144 1137
3 1139 964 953
3 964 1139 954
3 1141 965 962
3 1143 1145 1141
3 1145 965 1141
3 1145 966 965
3 967 966 1145
3 967 1145 1146
3 1147 1144 963
3 1147 963 968
3 968 969 1147
3 1147 969 1148
3 1146 1149 967
3 967 1149 970
3 971 970 1149
3 971 1149 1150
3 972 1148 969
3 972 1151 1148
3 1153 1152 975
3 975 1152 974
3 1154 975 976
3 1154 1153 975
3 976 978 1154
3 1154 978 1155
3 1152 979 974
3 1156 979 1152
3 1157 1155 978
3 1157 978 980
3 980 981 1157
3 1157 981 1158
3 1161 1160 1159
3 983 984 1159
3 984 1161 1159
3 984 1162 1161
3 1163 984 985
3 1163 1162 984
3 1164 985 986
3 1164 1163 985
3 1165 986 987
3 1165 1164 986
3 1166 987 988
3 1166 1165 987
3 988 989 1166
3 1166 989 1167
3 1170 1169 1168
3 990 991 1168
3 991 1170 1168
3 991 1171 1170
3 991 979 1156
3 991 1156 1171
3 992 1158 981
3 992 1172 1158
3 1173 993 994
3 1173 994 1174
3 994 1175 1174
3 994 995 1175
3 1176 995 996
3 1176 1175 995
3 1177 996 997
3 1177 1176 996
3 998 1159 1160
3 1177 998 1160
3 997 998 1177
3 1159 998 983
3 1178 1167 989
3 1178 989 999
3 1180 1178 1179
3 1178 1000 1179
3 1178 999 1000
3 1001 1179 1000
3 1182 1181 1004
3 1004 1181 1003
3 1005 1168 1169
3 1182 1005 1169
3 1004 1005 1182
3 1168 1005 990
3 1185 1184 1183
3 1184 1172 1183
3 1172 1006 1183
3 1172 992 1006
3 1187 1186 1008
3 1008 1186 1007
3 1008 993 1173
3 1188 1008 1173
3 1187 1008 1188
3 1188 1173 1174
3 1180 1179 1189
3 1180 1189 1190
3 1009 1191 1001
3 1191 1179 1001
3 1191 1189 1179
3 1011 1191 1009
3 1193 1192 1014
3 1014 1192 1013
3 1194 1014 1015
3 1194 1193 1014
3 1015 1003 1181
3 1015 1181 1194
3 1197 1196 1195
3 1195 1196 1185
3 1195 1185 1183
3 1017 1195 1183
3 1016 1017 1183
3 1016 1183 1006
3 1199 1198 1020
3 1020 1198 1019
3 1200 1020 1021
3 1200 1199 1020
3 1021 1022 1200
3 1200 1022 1201
3 1202 1023 1024
3 1203 1202 1024
3 1007 1203 1024
3 1186 1203 1007
3 1206 1205 1204
3 1208 1207 1204
3 1208 1204 1205
3 1210 1209 1207
3 1210 1207 1208
3 1212 1211 1209
3 1212 1209 1210
3 1213 1211 1212
3 1190 1189 1214
3 1190 1214 1215
3 1027 1214 1026
3 1214 1191 1026
3 1214 1189 1191
3 1026 1191 1011
3 1192 1029 1013
3 1216 1029 1192
3 1197 1195 1217
3 1197 1217 1218
3 1030 1219 1017
3 1219 1195 1017
3 1219 1217 1195
3 1031 1219 1030
3 1220 1033 1034
3 1221 1220 1034
3 1019 1221 1034
3 1198 1221 1019
3 1222 1201 1022
3 1222 1022 1035
3 1223 1035 1036
3 1223 1222 1035
3 1224 1036 1037
3 1224 1223 1036
3 1224 1037 1023
3 1225 1224 1023
3 1202 1225 1023
3 1224 1225 1226
3 1202 1203 1227
3 1228 1202 1227
3 1225 1202 1228
3 1230 1229 1228
3 1230 1228 1227
3 1232 1231 1229
3 1232 1229 1230
3 1234 1233 1231
3 1234 1231 1232
3 1236 1235 1233
3 1236 1233 1234
3 1039 1040 1235
3 1236 1039 1235
3 1237 1039 1236
3 1204 1042 1206
3 1042 1237 1206
3 1042 1039 1237
3 1042 1204 1044
3 1044 1204 1207
3 1044 1207 1046
3 1046 1207 1209
3 1046 1209 1048
3 1048 1209 1211
3 1239 1238 1049
3 1239 1049 1048
3 1213 1239 1048
3 1211 1213 1048
3 1241 1240 1238
3 1241 1238 1239
3 1240 1241 1215
3 1240 1215 1214
3 1052 1240 1214
3 1051 1052 1214
3 1051 1214 1027
3 1243 1242 1055
3 1055 1242 1054
3 1055 1029 1216
3 1055 1216 1243
3 1244 1218 1217
3 1244 1217 1219
3 1244 1219 1245
3 1247 1245 1246
3 1246 1245 1056
3 1245 1219 1056
3 1219 1031 1056
3 1057 1246 1056
3 1248 1058 1059
3 1249 1248 1059
3 1249 1059 1033
3 1250 1249 1033
3 1220 1250 1033
3 1250 1220 1221
3 1226 1225 1061
3 1062 1226 1061
3 1251 1226 1062
3 1061 1225 1064
3 1064 1225 1228
3 1064 1228 1066
3 1066 1228 1229
3 1066 1229 1068
3 1068 1229 1231
3 1068 1231 1070
3 1070 1231 1233
3 1070 1233 1071
3 1071 1233 1235
3 1071 1235 1040
3 1238 1073 1049
3 1073 1238 1075
3 1075 1238 1240
3 1075 1240 1052
3 1242 1076 1054
3 1252 1076 1242
3 1253 1247 1246
3 1253 1246 1057
3 1077 1253 1057
3 1254 1253 1077
3 1254 1077 1058
3 1255 1254 1058
3 1248 1255 1058
3 1254 1255 1256
3 1248 1249 1257
3 1258 1248 1257
3 1255 1248 1258
3 1260 1259 1258
3 1260 1258 1257
3 1262 1261 1259
3 1262 1259 1260
3 1264 1263 1261
3 1264 1261 1262
3 1265 1263 1264
3 1268 1267 1266
3 1267 1251 1266
3 1251 1078 1266
3 1251 1062 1078
3 1271 1270 1269
3 1079 1080 1269
3 1080 1271 1269
3 1080 1272 1271
3 1080 1076 1252
3 1080 1252 1272
3 1256 1255 1082
3 1083 1256 1082
3 1273 1256 1083
3 1082 1255 1085
3 1085 1255 1258
3 1085 1258 1086
3 1086 1258 1259
3 1086 1259 1088
3 1088 1259 1261
3 1088 1261 1090
3 1090 1261 1263
3 1275 1274 1091
3 1275 1091 1090
3 1265 1275 1090
3 1263 1265 1090
3 1274 1275 1268
3 1274 1268 1266
3 1093 1274 1266
3 1092 1093 1266
3 1092 1266 1078
3 1278 1277 1276
3 1276 1279 1278
3 1280 1095 1096
3 1270 1281 1269
3 1281 1096 1269
3 1096 1097 1269
3 1096 1281 1280
3 1269 1097 1079
3 1284 1283 1282
3 1283 1273 1282
3 1273 1099 1282
3 1273 1083 1099
3 1274 1100 1091
3 1100 1274 1093
3 1276 1277 1102
3 1277 1101 1102
3 1277 1285 1101
3 1286 1279 1276
3 1102 1286 1276
3 1103 1286 1102
3 1288 1286 1287
3 1286 1104 1287
3 1286 1103 1104
3 1287 1104 1289
3 1104 1290 1289
3 1104 1106 1290
3 1291 1106 1107
3 1291 1290 1106
3 1107 1095 1280
3 1292 1107 1280
3 1291 1107 1292
3 1292 1280 1281
3 1284 1282 1293
3 1284 1293 1294
3 1108 1293 1099
3 1099 1293 1282
3 1296 1295 1110
3 1110 1295 1109
3 1110 1101 1285
3 1110 1285 1296
3 1297 1288 1287
3 1297 1287 1289
3 1300 1299 1298
3 1298 1299 1294
3 1298 1294 1293
3 1113 1298 1293
3 1112 1113 1293
3 1112 1293 1108
3 1295 1114 1109
3 1301 1114 1295
3 1300 1298 1302
3 1300 1302 1303
3 1115 1302 1113
3 1113 1302 1298
3 1304 1116 1117
3 1305 1304 1117
3 1114 1305 1117
3 1301 1305 1114
3 1303 1302 1118
3 1119 1303 1118
3 1306 1303 1119
3 1118 1302 1115
3 1307 1120 1304
3 1304 1120 1116
3 1304 1305 1308
3 1304 1308 1307
3 1311 1310 1309
3 1313 1312 1309
3 1313 1309 1310
3 1315 1314 1312
3 1315 1312 1313
3 1317 1316 1314
3 1317 1314 1315
3 1318 1316 1317
3 1121 1306 1119
3 1121 1319 1306
3 1307 1122 1120
3 1321 1320 1123
3 1321 1123 1122
3 1308 1321 1122
3 1307 1308 1122
3 1125 1126 1320
3 1321 1125 1320
3 1322 1125 1321
3 1309 1127 1311
3 1127 1322 1311
3 1127 1125 1322
3 1127 1309 1129
3 1129 1309 1312
3 1129 1312 1131
3 1131 1312 1314
3 1131 1314 1133
3 1133 1314 1316
3 1318 1323 1316
3 1323 1133 1316
3 1323 1135 1133
3 1325 1324 1136
3 1135 1325 1136
3 1323 1325 1135
3 1326 1324 1325
3 1137 1319 1121
3 1137 1327 1319
3 1320 1138 1123
3 1138 1320 1126
3 1324 1140 1136
3 1326 1328 1324
3 1328 1140 1324
3 1328 1142 1140
3 1330 1329 1143
3 1142 1330 1143
3 1328 1330 1142
3 1331 1329 1330
3 1144 1327 1137
3 1144 1332 1327
3 1329 1145 1143
3 1334 1333 1146
3 1334 1146 1145
3 1331 1334 1145
3 1329 1331 1145
3 1335 1333 1334
3 1336 1332 1144
3 1336 1144 1147
3 1147 1148 1336
3 1336 1148 1337
3 1333 1149 1146
3 1339 1338 1150
3 1339 1150 1149
3 1335 1339 1149
3 1333 1335 1149
3 1340 1338 1339
3 1151 1337 1148
3 1151 1341 1337
3 1342 1152 1153
3 1342 1153 1343
3 1153 1344 1343
3 1153 1154 1344
3 1154 1155 1344
3 1344 1155 1345
3 1347 1346 1342
3 1346 1152 1342
3 1346 1156 1152
3 1347 1342 1343
3 1348 1345 1155
3 1348 1155 1157
3 1157 1158 1348
3 1348 1158 1349
3 1350 1160 1161
3 1162 1351 1161
3 1161 1351 1350
3 1163 1352 1162
3 1162 1352 1351
3 1164 1353 1163
3 1163 1353 1352
3 1165 1354 1164
3 1164 1354 1353
3 1166 1355 1165
3 1165 1355 1354
3 1167 1355 1166
3 1356 1169 1170
3 1171 1357 1170
3 1170 1357 1356
3 1358 1357 1171
3 1156 1358 1171
3 1346 1358 1156
3 1361 1360 1359
3 1360 1349 1359
3 1349 1172 1359
3 1349 1158 1172
3 1362 1174 1175
3 1176 1363 1175
3 1175 1363 1362
3 1177 1364 1176
3 1176 1364 1363
3 1160 1350 1177
3 1350 1364 1177
3 1350 1365 1364
3 1366 1350 1351
3 1365 1350 1366
3 1367 1351 1352
3 1366 1351 1367
3 1368 1352 1353
3 1367 1352 1368
3 1369 1353 1354
3 1368 1353 1369
3 1370 1354 1355
3 1369 1354 1370
3 1178 1371 1167
3 1371 1355 1167
3 1371 1370 1355
3 1180 1371 1178
3 1373 1372 1182
3 1182 1372 1181
3 1182 1169 1356
3 1374 1182 1356
3 1373 1182 1374
3 1374 1356 1357
3 1374 1357 1375
3 1378 1377 1376
3 1358 1375 1357
3 1380 1379 1377
3 1380 1377 1378
3 1379 1380 1361
3 1379 1361 1359
3 1185 1379 1359
3 1184 1185 1359
3 1184 1359 1172
3 1381 1186 1187
3 1188 1382 1187
3 1187 1382 1381
3 1174 1362 1188
3 1362 1382 1188
3 1362 1383 1382
3 1384 1362 1363
3 1383 1362 1384
3 1385 1363 1364
3 1384 1363 1385
3 1386 1364 1365
3 1385 1364 1386
3 1387 1365 1366
3 1386 1365 1387
3 1388 1366 1367
3 1387 1366 1388
3 1389 1367 1368
3 1388 1367 1389
3 1390 1368 1369
3 1389 1368 1390
3 1391 1369 1370
3 1390 1369 1391
3 1392 1370 1371
3 1391 1370 1392
3 1190 1392 1180
3 1180 1392 1371
3 1393 1192 1193
3 1393 1193 1394
3 1193 1395 1394
3 1193 1194 1395
3 1194 1181 1372
3 1194 1372 1395
3 1376 1377 1396
3 1376 1396 1397
3 1197 1396 1196
3 1396 1379 1196
3 1396 1377 1379
3 1196 1379 1185
3 1398 1198 1199
3 1200 1399 1199
3 1199 1399 1398
3 1201 1399 1200
3 1400 1203 1381
3 1381 1203 1186
3 1401 1381 1382
3 1400 1381 1401
3 1402 1382 1383
3 1401 1382 1402
3 1403 1383 1384
3 1402 1383 1403
3 1404 1384 1385
3 1403 1384 1404
3 1405 1385 1386
3 1404 1385 1405
3 1206 1405 1205
3 1405 1387 1205
3 1405 1386 1387
3 1205 1387 1208
3 1208 1387 1388
3 1208 1388 1210
3 1210 1388 1389
3 1210 1389 1212
3 1212 1389 1390
3 1212 1390 1213
3 1390 1406 1213
3 1390 1391 1406
3 1407 1391 1392
3 1406 1391 1407
3 1215 1407 1190
3 1190 1407 1392
3 1409 1408 1393
3 1408 1192 1393
3 1408 1216 1192
3 1409 1393 1394
3 1397 1396 1410
3 1397 1410 1411
3 1218 1410 1197
3 1197 1410 1396
3 1412 1221 1398
3 1398 1221 1198
3 1399 1414 1413
3 1412 1399 1413
3 1398 1399 1412
3 1416 1414 1415
3 1415 1414 1222
3 1414 1399 1222
3 1399 1201 1222
3 1223 1417 1222
3 1222 1417 1415
3 1224 1418 1223
3 1223 1418 1417
3 1226 1418 1224
3 1400 1227 1203
3 1227 1400 1230
3 1230 1400 1401
3 1230 1401 1232
3 1232 1401 1402
3 1232 1402 1234
3 1234 1402 1403
3 1234 1403 1236
3 1236 1403 1404
3 1236 1404 1237
3 1237 1404 1405
3 1237 1405 1206
3 1406 1239 1213
3 1239 1406 1241
3 1241 1406 1407
3 1241 1407 1215
3 1419 1242 1243
3 1420 1419 1243
3 1216 1420 1243
3 1408 1420 1216
3 1411 1410 1421
3 1411 1421 1422
3 1244 1423 1218
3 1423 1410 1218
3 1423 1421 1410
3 1245 1424 1244
3 1244 1424 1423
3 1247 1424 1245
3 1425 1249 1250
3 1221 1412 1250
3 1412 1425 1250
3 1412 1426 1425
3 1412 1413 1427
3 1428 1412 1427
3 1426 1412 1428
3 1428 1427 1416
3 1415 1428 1416
3 1429 1428 1415
3 1430 1415 1417
3 1429 1415 1430
3 1431 1417 1418
3 1430 1417 1431
3 1251 1431 1226
3 1226 1431 1418
3 1432 1252 1419
3 1419 1252 1242
3 1419 1420 1433
3 1419 1433 1432
3 1422 1421 1434
3 1422 1434 1435
3 1423 1437 1436
3 1434 1423 1436
3 1421 1423 1434
3 1437 1423 1424
3 1437 1424 1438
3 1440 1438 1439
3 1439 1438 1253
3 1438 1424 1253
3 1424 1247 1253
3 1254 1441 1253
3 1253 1441 1439
3 1256 1441 1254
3 1425 1257 1249
3 1257 1425 1260
3 1260 1425 1426
3 1260 1426 1262
3 1262 1426 1428
3 1262 1428 1264
3 1264 1428 1429
3 1264 1429 1265
3 1429 1442 1265
3 1429 1430 1442
3 1268 1442 1267
3 1442 1431 1267
3 1442 1430 1431
3 1267 1431 1251
3 1443 1270 1271
3 1443 1271 1444
3 1271 1445 1444
3 1271 1272 1445
3 1272 1252 1432
3 1446 1272 1432
3 1445 1272 1446
3 1446 1432 1433
3 1447 1435 1434
3 1447 1434 1436
3 1448 1440 1439
3 1450 1449 1448
3 1439 1450 1448
3 1441 1450 1439
3 1273 1450 1256
3 1256 1450 1441
3 1442 1275 1265
3 1275 1442 1268
3 1451 1277 1278
3 1279 1451 1278
3 1453 1452 1443
3 1452 1270 1443
3 1452 1281 1270
3 1453 1443 1444
3 1456 1455 1454
3 1454 1455 1449
3 1454 1449 1450
3 1284 1454 1450
3 1283 1284 1450
3 1283 1450 1273
3 1458 1457 1451
3 1457 1277 1451
3 1457 1285 1277
3 1460 1458 1459
3 1459 1458 1286
3 1458 1451 1286
3 1451 1279 1286
3 1288 1459 1286
3 1461 1289 1290
3 1291 1462 1290
3 1290 1462 1461
3 1462 1291 1463
3 1291 1464 1463
3 1291 1292 1464
3 1292 1281 1452
3 1292 1452 1464
3 1456 1454 1465
3 1456 1465 1466
3 1294 1465 1284
3 1284 1465 1454
3 1467 1295 1296
3 1468 1467 1296
3 1285 1468 1296
3 1457 1468 1285
3 1469 1460 1459
3 1469 1459 1288
3 1297 1469 1288
3 1470 1469 1297
3 1297 1289 1461
3 1471 1297 1461
3 1470 1297 1471
3 1471 1461 1462
3 1471 1462 1472
3 1472 1462 1463
3 1466 1465 1299
3 1300 1466 1299
3 1473 1466 1300
3 1299 1465 1294
3 1474 1301 1467
3 1467 1301 1295
3 1467 1468 1475
3 1467 1475 1474
3 1478 1477 1476
3 1477 1473 1476
3 1473 1303 1476
3 1473 1300 1303
3 1479 1305 1474
3 1474 1305 1301
3 1474 1475 1480
3 1481 1474 1480
3 1479 1474 1481
3 1483 1482 1481
3 1483 1481 1480
3 1485 1484 1482
3 1485 1482 1483
3 1487 1486 1484
3 1487 1484 1485
3 1489 1488 1486
3 1489 1486 1487
3 1491 1490 1488
3 1491 1488 1489
3 1492 1490 1491
3 1478 1476 1493
3 1478 1493 1494
3 1306 1493 1303
3 1303 1493 1476
3 1495 1308 1479
3 1479 1308 1305
3 1496 1479 1481
3 1495 1479 1496
3 1311 1496 1310
3 1496 1482 1310
3 1496 1481 1482
3 1310 1482 1313
3 1313 1482 1484
3 1313 1484 1315
3 1315 1484 1486
3 1315 1486 1317
3 1317 1486 1488
3 1317 1488 1318
3 1488 1497 1318
3 1488 1490 1497
3 1490 1492 1498
3 1499 1490 1498
3 1497 1490 1499
3 1501 1500 1499
3 1501 1499 1498
3 1502 1500 1501
3 1494 1493 1503
3 1494 1503 1504
3 1319 1503 1306
3 1306 1503 1493
3 1495 1321 1308
3 1321 1495 1322
3 1322 1495 1496
3 1322 1496 1311
3 1497 1323 1318
3 1323 1497 1325
3 1325 1497 1499
3 1325 1499 1326
3 1499 1505 1326
3 1499 1500 1505
3 1500 1502 1506
3 1507 1500 1506
3 1505 1500 1507
3 1508 1507 1506
3 1504 1503 1509
3 1504 1509 1510
3 1327 1509 1319
3 1319 1509 1503
3 1505 1328 1326
3 1328 1505 1330
3 1330 1505 1507
3 1512 1511 1331
3 1512 1331 1330
3 1508 1512 1330
3 1507 1508 1330
3 1513 1511 1512
3 1510 1509 1514
3 1510 1514 1515
3 1332 1514 1327
3 1327 1514 1509
3 1511 1334 1331
3 1517 1516 1335
3 1517 1335 1334
3 1513 1517 1334
3 1511 1513 1334
3 1518 1516 1517
3 1519 1515 1514
3 1521 1519 1520
3 1520 1519 1336
3 1519 1514 1336
3 1514 1332 1336
3 1337 1520 1336
3 1516 1339 1335
3 1523 1522 1340
3 1523 1340 1339
3 1518 1523 1339
3 1516 1518 1339
3 1524 1522 1523
3 1525 1521 1520
3 1520 1337 1525
3 1337 1526 1525
3 1337 1341 1526