OFF
483 908 0
nan nan nan
nan nan nan
nan nan nan
nan nan nan
nan nan nan
nan nan nan
nan nan nan
nan nan nan
nan nan nan
nan nan nan
nan nan nan
nan nan nan
nan nan nan
nan nan nan
nan nan nan
nan nan nan
nan nan nan
nan nan nan
nan nan nan
nan nan nan
nan nan nan
nan nan nan
nan nan nan
nan nan nan
nan nan nan
nan nan nan
nan nan nan
nan nan nan
nan nan nan
nan nan nan
nan nan nan
nan nan nan
nan nan nan
nan nan nan
nan nan nan
nan nan nan
nan nan nan
nan nan nan
nan nan nan
nan nan nan
nan nan nan
nan nan nan
nan nan nan
nan nan nan
nan nan nan
nan nan nan
nan nan nan
nan nan nan
nan nan nan
nan nan nan
nan nan nan
nan nan nan
nan nan nan
nan nan nan
nan nan nan
nan nan nan
nan nan nan
nan nan nan
nan nan nan
nan nan nan
nan nan nan
nan nan nan
nan nan nan
nan nan nan
nan nan nan
nan nan nan
nan nan nan
nan nan nan
nan nan nan
nan nan nan
nan nan nan
nan nan nan
nan nan nan
nan nan nan
nan nan nan
nan nan nan
nan nan nan
nan nan nan
nan nan nan
nan nan nan
nan nan nan
nan nan nan
nan nan nan
nan nan nan
nan nan nan
nan nan nan
nan nan nan
nan nan nan
nan nan nan
nan nan nan
nan nan nan
nan nan nan
nan nan nan
nan nan nan
nan nan nan
nan nan nan
nan nan nan
nan nan nan
nan nan nan
nan nan nan
nan nan nan
nan nan nan
nan nan nan
nan nan nan
nan nan nan
nan nan nan
nan nan nan
nan nan nan
nan nan nan
nan nan nan
nan nan nan
nan nan nan
nan nan nan
nan nan nan
nan nan nan
nan nan nan
nan nan nan
nan nan nan
nan nan nan
nan nan nan
nan nan nan
nan nan nan
nan nan nan
nan nan nan
nan nan nan
nan nan nan
nan nan nan
nan nan nan
nan nan nan
nan nan nan
nan nan nan
nan nan nan
nan nan nan
nan nan nan
nan nan nan
nan nan nan
nan nan nan
nan nan nan
nan nan nan
nan nan nan
nan nan nan
nan nan nan
nan nan nan
nan nan nan
nan nan nan
nan nan nan
nan nan nan
nan nan nan
nan nan nan
nan nan nan
nan nan nan
nan nan nan
nan nan nan
nan nan nan
nan nan nan
nan nan nan
nan nan nan
nan nan nan
nan nan nan
nan nan nan
nan nan nan
nan nan nan
nan nan nan
nan nan nan
nan nan nan
nan nan nan
nan nan nan
nan nan nan
nan nan nan
nan nan nan
nan nan nan
nan nan nan
nan nan nan
nan nan nan
nan nan nan
nan nan nan
nan nan nan
nan nan nan
nan nan nan
nan nan nan
nan nan nan
nan nan nan
nan nan nan
nan nan nan
nan nan nan
nan nan nan
nan nan nan
nan nan nan
nan nan nan
nan nan nan
nan nan nan
nan nan nan
nan nan nan
nan nan nan
nan nan nan
nan nan nan
nan nan nan
nan nan nan
nan nan nan
nan nan nan
nan nan nan
nan nan nan
nan nan nan
nan nan nan
nan nan nan
nan nan nan
nan nan nan
nan nan nan
nan nan nan
nan nan nan
nan nan nan
nan nan nan
nan nan nan
nan nan nan
nan nan nan
nan nan nan
nan nan nan
nan nan nan
nan nan nan
nan nan nan
nan nan nan
nan nan nan
nan nan nan
nan nan nan
nan nan nan
nan nan nan
nan nan nan
nan nan nan
nan nan nan
nan nan nan
nan nan nan
nan nan nan
nan nan nan
nan nan nan
nan nan nan
nan nan nan
nan nan nan
nan nan nan
nan nan nan
nan nan nan
nan nan nan
nan nan nan
nan nan nan
nan nan nan
nan nan nan
nan nan nan
nan nan nan
nan nan nan
nan nan nan
nan nan nan
nan nan nan
nan nan nan
nan nan nan
nan nan nan
nan nan nan
nan nan nan
nan nan nan
nan nan nan
nan nan nan
nan nan nan
nan nan nan
nan nan nan
nan nan nan
nan nan nan
nan nan nan
nan nan nan
nan nan nan
nan nan nan
nan nan nan
nan nan nan
nan nan nan
nan nan nan
nan nan nan
nan nan nan
nan nan nan
nan nan nan
nan nan nan
nan nan nan
nan nan nan
nan nan nan
nan nan nan
nan nan nan
nan nan nan
nan nan nan
nan nan nan
nan nan nan
nan nan nan
nan nan nan
nan nan nan
nan nan nan
nan nan nan
nan nan nan
nan nan nan
nan nan nan
nan nan nan
nan nan nan
nan nan nan
nan nan nan
nan nan nan
nan nan nan
nan nan nan
nan nan nan
nan nan nan
nan nan nan
nan nan nan
nan nan nan
nan nan nan
nan nan nan
nan nan nan
nan nan nan
nan nan nan
nan nan nan
nan nan nan
nan nan nan
nan nan nan
nan nan nan
nan nan nan
nan nan nan
nan nan nan
nan nan nan
nan nan nan
nan nan nan
nan nan nan
nan nan nan
nan nan nan
nan nan nan
nan nan nan
nan nan nan
nan nan nan
nan nan nan
nan nan nan
nan nan nan
nan nan nan
nan nan nan
nan nan nan
nan nan nan
nan nan nan
nan nan nan
nan nan nan
nan nan nan
nan nan nan
nan nan nan
nan nan nan
nan nan nan
nan nan nan
nan nan nan
nan nan nan
nan nan nan
nan nan nan
nan nan nan
nan nan nan
nan nan nan
nan nan nan
nan nan nan
nan nan nan
nan nan nan
nan nan nan
nan nan nan
nan nan nan
nan nan nan
nan nan nan
nan nan nan
nan nan nan
nan nan nan
nan nan nan
nan nan nan
nan nan nan
nan nan nan
nan nan nan
nan nan nan
nan nan nan
nan nan nan
nan nan nan
nan nan nan
nan nan nan
nan nan nan
nan nan nan
nan nan nan
nan nan nan
nan nan nan
nan nan nan
nan nan nan
nan nan nan
nan nan nan
nan nan nan
nan nan nan
nan nan nan
nan nan nan
nan nan nan
nan nan nan
nan nan nan
nan nan nan
nan nan nan
nan nan nan
nan nan nan
nan nan nan
nan nan nan
nan nan nan
nan nan nan
nan nan nan
nan nan nan
nan nan nan
nan nan nan
nan nan nan
nan nan nan
nan nan nan
nan nan nan
nan nan nan
nan nan nan
nan nan nan
nan nan nan
nan nan nan
nan nan nan
nan nan nan
nan nan nan
nan nan nan
nan nan nan
nan nan nan
nan nan nan
nan nan nan
nan nan nan
nan nan nan
nan nan nan
nan nan nan
nan nan nan
nan nan nan
nan nan nan
nan nan nan
nan nan nan
nan nan nan
nan nan nan
nan nan nan
nan nan nan
nan nan nan
nan nan nan
nan nan nan
nan nan nan
nan nan nan
nan nan nan
nan nan nan
nan nan nan
nan nan nan
nan nan nan
nan nan nan
nan nan nan
nan nan nan
nan nan nan
nan nan nan
nan nan nan
nan nan nan
nan nan nan
nan nan nan
nan nan nan
nan nan nan
nan nan nan
nan nan nan
nan nan nan
nan nan nan
nan nan nan
nan nan nan
nan nan nan
nan nan nan
nan nan nan
nan nan nan
nan nan nan
nan nan nan
nan nan nan
nan nan nan
nan nan nan
nan nan nan
nan nan nan
nan nan nan
nan nan nan
nan nan nan
nan nan nan
nan nan nan
nan nan nan
nan nan nan
nan nan nan
nan nan nan
nan nan nan
nan nan nan
nan nan nan
3 2 1 0
3 4 3 0
3 0 3 2
3 6 5 4
3 4 5 3
3 8 7 6
3 6 7 5
3 10 9 8
3 8 9 7
3 10 11 9
3 1 12 0
3 14 13 12
3 13 0 12
3 13 4 0
3 4 15 6
3 4 13 15
3 17 8 16
3 8 15 16
3 8 6 15
3 8 17 10
3 10 17 18
3 10 18 11
3 14 19 13
3 13 19 15
3 15 19 20
3 15 20 16
3 23 22 21
3 21 24 23
3 27 26 25
3 29 28 25
3 25 28 27
3 28 29 22
3 29 21 22
3 29 30 21
3 24 21 31
3 21 32 31
3 21 30 32
3 34 33 32
3 32 33 31
3 34 35 33
3 25 26 36
3 36 26 37
3 25 38 29
3 25 36 38
3 29 39 30
3 29 38 39
3 30 40 32
3 30 39 40
3 32 41 34
3 32 40 41
3 35 34 42
3 34 43 42
3 34 41 43
3 45 44 43
3 43 44 42
3 45 46 44
3 36 37 47
3 47 37 48
3 47 1 2
3 38 47 2
3 36 47 38
3 38 2 3
3 38 3 39
3 39 3 5
3 39 5 40
3 40 5 7
3 40 7 41
3 41 7 9
3 41 9 43
3 43 9 11
3 49 43 11
3 45 43 49
3 46 45 50
3 50 45 49
3 47 48 51
3 51 48 52
3 53 12 1
3 47 53 1
3 51 53 47
3 53 14 12
3 16 54 17
3 55 18 17
3 55 17 54
3 49 11 18
3 55 49 18
3 56 49 55
3 50 49 57
3 49 58 57
3 49 56 58
3 58 59 57
3 51 52 60
3 60 52 61
3 51 62 53
3 51 60 62
3 63 19 14
3 53 63 14
3 62 63 53
3 64 20 19
3 64 19 63
3 54 16 20
3 64 54 20
3 65 54 64
3 54 66 55
3 54 65 66
3 55 67 56
3 55 66 67
3 69 58 68
3 58 67 68
3 58 56 67
3 58 69 59
3 61 70 60
3 72 71 70
3 71 60 70
3 71 62 60
3 62 73 63
3 62 71 73
3 63 74 64
3 63 73 74
3 64 75 65
3 64 74 75
3 65 76 66
3 65 75 76
3 66 77 67
3 66 76 77
3 68 67 78
3 78 67 77
3 72 79 71
3 81 80 79
3 80 71 79
3 80 73 71
3 73 82 74
3 73 80 82
3 74 83 75
3 74 82 83
3 75 84 76
3 75 83 84
3 76 85 77
3 76 84 85
3 78 77 86
3 86 77 85
3 81 87 80
3 80 87 82
3 82 87 88
3 90 89 88
3 89 82 88
3 89 83 82
3 92 84 91
3 84 89 91
3 84 83 89
3 84 92 85
3 85 92 93
3 85 93 86
3 90 94 89
3 89 94 91
3 97 96 95
3 95 98 97
3 101 100 99
3 103 102 99
3 99 102 101
3 102 103 96
3 103 95 96
3 103 104 95
3 23 105 22
3 105 95 22
3 95 104 22
3 95 105 98
3 107 106 24
3 106 23 24
3 106 105 23
3 109 108 107
3 107 108 106
3 109 110 108
3 99 100 111
3 111 100 112
3 111 26 27
3 103 111 27
3 99 111 103
3 103 27 28
3 103 28 104
3 104 28 22
3 31 107 24
3 107 31 33
3 107 33 109
3 114 113 35
3 35 113 33
3 113 110 33
3 110 109 33
3 114 115 113
3 118 117 116
3 118 116 112
3 116 111 112
3 116 119 111
3 119 37 26
3 119 26 111
3 42 114 35
3 120 115 114
3 42 120 114
3 44 120 42
3 44 46 120
3 120 46 121
3 117 122 116
3 124 123 122
3 123 116 122
3 123 119 116
3 123 48 37
3 123 37 119
3 50 126 125
3 121 50 125
3 46 50 121
3 126 127 125
3 123 124 128
3 128 124 129
3 128 52 48
3 128 48 123
3 57 126 50
3 57 59 126
3 59 127 126
3 59 130 127
3 128 129 131
3 131 129 132
3 131 61 52
3 131 52 128
3 68 133 69
3 133 134 69
3 134 59 69
3 134 130 59
3 132 135 131
3 135 137 136
3 135 136 70
3 131 135 70
3 61 131 70
3 136 72 70
3 78 138 133
3 78 133 68
3 134 133 139
3 139 133 138
3 136 137 140
3 140 137 141
3 142 79 72
3 136 142 72
3 140 142 136
3 142 81 79
3 86 143 138
3 86 138 78
3 139 138 144
3 144 138 143
3 141 145 140
3 140 145 142
3 142 145 146
3 146 148 147
3 146 147 87
3 142 146 87
3 81 142 87
3 149 88 87
3 149 87 147
3 149 90 88
3 91 150 92
3 151 93 92
3 151 92 150
3 151 152 93
3 93 152 86
3 152 153 86
3 153 143 86
3 143 153 144
3 148 154 147
3 156 155 154
3 155 147 154
3 155 149 147
3 157 94 90
3 149 157 90
3 155 157 149
3 150 91 94
3 157 150 94
3 158 150 157
3 150 159 151
3 150 158 159
3 152 151 160
3 160 151 159
3 156 161 155
3 155 161 157
3 157 161 162
3 157 162 158
3 158 162 163
3 158 163 159
3 159 163 164
3 159 164 160
3 167 166 165
3 96 97 165
3 97 167 165
3 97 168 167
3 170 169 98
3 169 97 98
3 169 168 97
3 172 171 170
3 170 171 169
3 172 173 171
3 175 174 101
3 101 174 100
3 102 165 166
3 175 102 166
3 101 102 175
3 165 102 96
3 105 170 98
3 170 105 106
3 170 106 172
3 176 173 172
3 106 176 172
3 108 176 106
3 108 110 176
3 176 110 177
3 180 179 178
3 182 181 178
3 178 181 180
3 174 181 182
3 112 174 182
3 100 174 112
3 183 177 110
3 183 110 113
3 185 184 115
3 184 113 115
3 184 183 113
3 185 186 184
3 178 179 187
3 187 179 188
3 187 117 118
3 182 187 118
3 178 187 182
3 182 118 112
3 120 185 115
3 120 121 185
3 121 186 185
3 121 189 186
3 187 188 190
3 190 188 191
3 192 122 117
3 187 192 117
3 190 192 187
3 192 124 122
3 193 189 121
3 193 121 125
3 125 127 193
3 193 127 194
3 191 195 190
3 197 196 195
3 196 190 195
3 196 192 190
3 196 129 124
3 196 124 192
3 130 194 127
3 130 198 194
3 197 199 196
3 129 196 199
3 200 129 199
3 132 129 200
3 134 202 201
3 198 134 201
3 130 134 198
3 202 203 201
3 200 204 132
3 132 204 135
3 137 135 204
3 137 204 205
3 139 206 202
3 139 202 134
3 203 202 207
3 207 202 206
3 205 141 137
3 208 141 205
3 144 209 206
3 144 206 139
3 207 206 210
3 206 211 210
3 206 209 211
3 208 212 141
3 141 212 145
3 145 213 146
3 212 213 145
3 148 146 213
3 148 213 214
3 152 215 153
3 209 144 153
3 215 209 153
3 216 209 215
3 209 217 211
3 209 216 217
3 214 218 148
3 148 218 154
3 156 154 218
3 156 218 219
3 160 220 215
3 160 215 152
3 222 216 221
3 216 220 221
3 216 215 220
3 216 222 217
3 217 222 223
3 219 224 156
3 156 224 161
3 224 226 225
3 162 224 225
3 161 224 162
3 227 163 162
3 227 162 225
3 163 227 228
3 229 163 228
3 164 163 229
3 160 164 220
3 164 230 220
3 164 229 230
3 220 230 221
3 233 232 231
3 231 234 233
3 237 236 235
3 166 167 235
3 167 237 235
3 167 238 237
3 168 231 232
3 238 168 232
3 167 168 238
3 239 234 231
3 168 239 231
3 169 239 168
3 240 169 171
3 240 239 169
3 242 241 173
3 241 171 173
3 241 240 171
3 242 243 241
3 246 245 244
3 246 244 236
3 236 244 235
3 244 174 235
3 174 175 235
3 235 175 166
3 176 242 173
3 248 247 177
3 177 247 176
3 247 243 176
3 243 242 176
3 248 249 247
3 251 250 180
3 180 250 179
3 181 244 245
3 251 181 245
3 180 181 251
3 244 181 174
3 183 248 177
3 252 249 248
3 183 252 248
3 184 252 183
3 184 186 252
3 252 186 253
3 250 188 179
3 254 188 250
3 189 256 255
3 253 189 255
3 186 189 253
3 256 257 255
3 254 191 188
3 258 191 254
3 193 256 189
3 193 194 256
3 194 257 256
3 194 259 257
3 258 260 191
3 191 260 195
3 197 195 260
3 197 260 261
3 198 259 194
3 198 262 259
3 261 263 197
3 197 263 199
3 200 199 263
3 200 263 264
3 265 262 198
3 265 198 201
3 201 203 265
3 265 203 266
3 264 267 200
3 200 267 204
3 205 204 267
3 205 267 268
3 207 270 269
3 266 207 269
3 203 207 266
3 272 208 271
3 208 268 271
3 208 205 268
3 273 272 271
3 210 270 207
3 272 212 208
3 273 274 272
3 274 212 272
3 274 213 212
3 214 213 274
3 214 274 275
3 275 276 214
3 214 276 218
3 219 218 276
3 219 276 277
3 279 278 222
3 279 222 221
3 222 280 223
3 278 280 222
3 277 281 219
3 219 281 224
3 226 224 281
3 226 281 282
3 228 283 229
3 229 283 284
3 285 229 284
3 230 229 285
3 221 230 279
3 279 230 285
3 288 287 286
3 232 233 286
3 233 288 286
3 233 289 288
3 291 290 234
3 290 233 234
3 290 289 233
3 293 292 291
3 291 292 290
3 293 294 292
3 297 296 295
3 236 237 295
3 237 297 295
3 237 298 297
3 238 286 287
3 298 238 287
3 237 238 298
3 286 238 232
3 239 291 234
3 291 239 240
3 291 240 293
3 299 294 293
3 240 299 293
3 241 299 240
3 301 300 243
3 300 241 243
3 300 299 241
3 301 302 300
3 305 304 303
3 305 303 296
3 296 303 295
3 303 245 295
3 245 246 295
3 295 246 236
3 247 301 243
3 247 249 301
3 249 302 301
3 249 306 302
3 308 307 304
3 307 250 304
3 251 303 304
3 251 304 250
3 251 245 303
3 307 308 309
3 310 306 249
3 310 249 252
3 252 253 310
3 310 253 311
3 312 254 307
3 307 254 250
3 307 309 313
3 307 313 312
3 314 311 253
3 314 253 255
3 255 257 314
3 314 257 315
3 316 258 312
3 312 258 254
3 312 313 317
3 312 317 316
3 259 315 257
3 259 318 315
3 316 260 258
3 261 260 316
3 317 261 316
3 319 261 317
3 262 318 259
3 262 320 318
3 319 321 261
3 261 321 263
3 264 263 321
3 264 321 322
3 323 320 262
3 323 262 265
3 265 266 323
3 323 266 324
3 322 325 264
3 264 325 267
3 327 326 268
3 267 327 268
3 325 327 267
3 328 326 327
3 329 324 266
3 329 266 269
3 326 271 268
3 331 330 273
3 331 273 271
3 328 331 271
3 326 328 271
3 332 330 331
3 335 334 333
3 330 274 273
3 275 274 330
3 332 275 330
3 336 275 332
3 339 338 337
3 337 338 335
3 333 337 335
3 340 337 333
3 336 341 275
3 275 341 276
3 343 342 277
3 276 343 277
3 341 343 276
3 344 342 343
3 339 337 278
3 279 339 278
3 345 339 279
3 278 337 280
3 280 337 340
3 342 281 277
3 347 346 282
3 347 282 281
3 344 347 281
3 342 344 281
3 349 348 346
3 349 346 347
3 351 350 348
3 351 348 349
3 285 284 350
3 351 285 350
3 352 285 351
3 279 285 345
3 345 285 352
3 354 353 288
3 288 353 287
3 356 354 355
3 354 289 355
3 354 288 289
3 290 357 289
3 289 357 355
3 292 358 290
3 290 358 357
3 294 358 292
3 361 360 359
3 296 297 359
3 297 361 359
3 297 362 361
3 363 297 298
3 363 362 297
3 298 287 353
3 298 353 363
3 364 356 355
3 364 355 357
3 364 357 365
3 365 357 358
3 365 358 366
3 366 358 294
3 299 366 294
3 367 366 299
3 368 299 300
3 368 367 299
3 300 302 368
3 368 302 369
3 359 360 305
3 360 304 305
3 360 370 304
3 359 305 296
3 306 369 302
3 306 371 369
3 370 372 304
3 304 372 308
3 309 308 372
3 309 372 373
3 306 310 374
3 375 306 374
3 371 306 375
3 311 374 310
3 373 313 309
3 376 313 373
3 375 374 377
3 375 377 378
3 314 379 311
3 379 374 311
3 379 377 374
3 315 379 314
3 376 317 313
3 380 317 376
3 381 378 377
3 383 382 381
3 377 383 381
3 379 383 377
3 318 383 315
3 315 383 379
3 385 319 384
3 319 380 384
3 319 317 380
3 386 385 384
3 387 382 383
3 383 318 387
3 318 388 387
3 318 320 388
3 385 321 319
3 390 389 322
3 390 322 321
3 386 390 321
3 385 386 321
3 391 389 390
3 320 323 392
3 393 320 392
3 388 320 393
3 324 392 323
3 389 325 322
3 391 394 389
3 394 325 389
3 394 327 325
3 328 327 394
3 328 394 395
3 393 392 396
3 393 396 397
3 329 398 324
3 398 392 324
3 398 396 392
3 395 399 328
3 328 399 331
3 332 331 399
3 332 399 400
3 397 396 401
3 397 401 402
3 335 401 334
3 401 398 334
3 401 396 398
3 404 336 403
3 336 400 403
3 336 332 400
3 405 404 403
3 402 401 338
3 339 402 338
3 406 402 339
3 338 401 335
3 404 341 336
3 405 407 404
3 407 341 404
3 407 343 341
3 409 408 344
3 343 409 344
3 407 409 343
3 411 410 408
3 411 408 409
3 413 412 410
3 413 410 411
3 415 414 412
3 415 412 413
3 415 406 414
3 406 345 414
3 406 339 345
3 408 347 344
3 347 408 349
3 349 408 410
3 349 410 351
3 351 410 412
3 351 412 352
3 352 412 414
3 352 414 345
3 416 353 354
3 356 416 354
3 418 417 361
3 361 417 360
3 419 361 362
3 419 418 361
3 420 362 363
3 420 419 362
3 420 363 353
3 421 420 353
3 416 421 353
3 420 421 422
3 364 423 356
3 423 416 356
3 423 421 416
3 365 424 364
3 364 424 423
3 366 425 365
3 365 425 424
3 367 426 366
3 366 426 425
3 368 427 367
3 367 427 426
3 369 427 368
3 429 370 428
3 370 417 428
3 370 360 417
3 430 429 428
3 431 422 421
3 431 421 423
3 431 423 432
3 432 423 424
3 432 424 433
3 435 434 433
3 424 435 433
3 425 435 424
3 436 425 426
3 435 425 436
3 437 426 427
3 436 426 437
3 371 437 369
3 369 437 427
3 429 372 370
3 439 438 373
3 439 373 372
3 430 439 372
3 429 430 372
3 440 438 439
3 441 434 435
3 441 435 436
3 441 436 442
3 444 443 442
3 436 444 442
3 437 444 436
3 375 444 371
3 371 444 437
3 445 376 438
3 438 376 373
3 438 440 446
3 447 438 446
3 445 438 447
3 448 447 446
3 443 444 449
3 443 449 450
3 378 449 375
3 375 449 444
3 451 380 445
3 445 380 376
3 452 445 447
3 451 445 452
3 447 448 453
3 447 453 452
3 454 450 449
3 454 449 378
3 381 454 378
3 455 454 381
3 381 382 455
3 455 382 456
3 451 384 380
3 384 451 386
3 451 457 386
3 451 452 457
3 452 453 458
3 452 458 457
3 382 387 459
3 460 382 459
3 456 382 460
3 388 459 387
3 457 390 386
3 391 390 457
3 458 391 457
3 461 391 458
3 460 459 462
3 460 462 463
3 393 462 388
3 388 462 459
3 461 464 391
3 391 464 394
3 395 394 464
3 395 464 465
3 463 462 466
3 463 466 467
3 397 466 393
3 393 466 462
3 465 468 395
3 395 468 399
3 470 469 400
3 399 470 400
3 468 470 399
3 471 469 470
3 467 466 472
3 467 472 473
3 402 472 397
3 397 472 466
3 469 403 400
3 475 474 405
3 475 405 403
3 471 475 403
3 469 471 403
3 477 476 474
3 477 474 475
3 479 478 476
3 479 476 477
3 481 480 478
3 481 478 479
3 480 481 473
3 472 480 473
3 482 480 472
3 406 482 402
3 402 482 472
3 474 407 405
3 407 474 409
3 409 474 476
3 409 476 411
3 411 476 478
3 411 478 413
3 413 478 480
3 413 480 415
3 415 480 482
3 415 482 406