OFF
678 1302 0
1.9903633654 11.5758518454 7.7455768160
2.2129397338 11.6058441785 7.4083040761
2.3488075556 11.2296314068 7.5009960774
2.1369263960 11.2974948203 7.9266372435
2.0078727675 11.6647754404 8.1628560719
2.2749928939 11.4265434840 8.3438913061
2.0576874059 11.8981461105 7.6499207181
1.9997561838 12.0025055967 8.0616270031
2.2269838400 12.3242113532 7.8927324395
2.3420203410 12.1617021043 8.7289217667
2.1721717690 12.3679072501 8.2728386712
2.7478196775 11.4779942061 7.1021701536
2.9304456482 10.9069757526 7.2084113685
2.7109054351 10.8834026704 7.9630821909
2.7662343643 11.3266372753 8.8843531822
2.4552713505 12.0410416260 7.4102604849
2.7081942674 12.6363796543 7.7374867742
2.7641212338 12.0062149936 9.4725693774
2.7191955555 12.6110496639 9.5471669224
3.0259893455 12.4378583068 10.0608048052
2.5633975754 12.8342907765 8.3954215227
2.7547917459 13.0801799836 9.1961004847
2.9347336710 13.3984453016 8.7977735544
3.0923628957 13.2205596391 10.0689709247
3.3044089231 13.9219699082 9.4375623464
4.2465330264 9.2366917647 7.4537206470
4.5730037028 8.9653114460 6.5375794749
5.0297769578 8.3828691223 6.9945110348
4.8449095282 8.5403827870 7.9665647898
4.1870601748 9.7168673294 6.5040209797
4.7680143081 10.0228188907 5.7669041785
4.7653770837 9.1901380648 5.9941244928
3.5043194165 10.2564915547 7.3291869961
4.4620707006 9.0816897036 8.5407995341
3.6704952626 10.1866174128 8.7516409037
4.8035040340 9.2424577092 9.8146550812
4.1119075577 10.4221040296 10.3007464700
4.7469622195 9.8689103985 10.8514357986
3.7371852556 10.9820157619 6.5155351300
4.8375727560 11.2121257501 5.6536995208
3.3520453492 11.4974321939 9.9898135324
4.4472649444 10.5197358200 11.2048343548
4.0651767162 11.4704362934 11.3714431175
4.5899792941 10.8662422041 11.8673012073
4.2313246179 12.1866937692 6.2561982199
5.1357963051 12.2454780289 5.6851234428
3.2715304379 12.3122622821 7.0790487818
3.5368033379 12.8128665911 11.0664870165
4.6830430947 11.5708108776 12.6492006021
4.2027360397 12.7544359965 12.6111133499
4.6835325983 12.3556347199 13.3329821420
4.7520250219 12.9988735577 6.2180128414
4.1091066052 13.2689552337 6.9492275487
5.1132756586 13.9950413415 6.7160361024
3.3429785738 13.4839967895 8.1017627211
3.5974076895 14.2576749892 10.9077090623
3.8931209877 14.0427463827 12.3240174645
4.7139334114 13.0783949433 13.8779900737
4.3075725085 13.9749862133 13.5538262003
4.7237954916 13.9833765869 14.4316817624
4.3344107975 14.3993887800 7.7607864359
3.9121616951 14.6831227097 8.8898950218
3.8373700491 14.9796504683 10.0550410430
4.2476483572 15.5734263182 9.5685225655
3.9325663811 15.3485313876 11.0883797971
3.9822176717 15.3361965158 12.2276511949
4.1763529435 15.0688713254 13.4206542961
4.5714987321 14.8942373603 14.4658664767
4.2355308161 15.9563476462 10.5848413761
4.2064984808 16.1665960457 11.7368888630
4.2243717163 16.3044964408 12.6557266400
4.2440934752 16.0793755231 13.3731540187
4.4095290365 16.8396741155 13.3343638292
4.5031681568 15.9887535239 14.3881831123
4.5122882917 16.8116421545 14.0757545242
5.0336738026 8.6555025412 6.1667095134
5.6502254462 8.8998352836 5.4909993369
5.5083156590 8.1915169016 6.2282158181
5.7549139743 7.7690832210 6.8725409374
5.7275375192 7.8043811396 8.1182531817
5.1204283657 8.4917621000 8.9170994351
5.9218512584 8.0173272671 9.5241096305
5.3622059633 8.5272435295 9.6563915980
5.8520243975 8.4919875643 10.4123015872
5.8764823136 10.3678309231 5.0710764231
5.6403025935 9.2238602330 11.3098563566
5.0630203089 10.1400448996 11.8054951469
5.9568787180 9.6955296892 12.5189439077
5.4606935057 10.3103824220 12.6541541458
6.0204124633 10.2047914730 13.2747551280
5.7334196344 11.5086264605 5.2398832201
5.0034592731 10.7462009779 12.4384237192
5.4766274097 10.9805252176 13.3262417779
6.1544690091 12.3287880183 5.3732076120
5.1175233788 11.9278611394 13.6549425023
4.9187092688 12.4743338614 13.8213850918
5.2753749392 12.5707651957 14.3637828448
5.5700710939 13.1315767505 5.9112808000
6.0646501391 13.8659637202 6.2106799682
5.2087431720 13.4810070088 14.8732447739
5.0850749471 14.5145022344 15.2400956228
5.6413221712 13.9876817319 15.7490197995
5.2245273640 15.2005534175 7.6272985027
6.2330174326 14.8313271642 6.8596717977
4.6152193331 15.5173558156 8.6591447650
5.0128863599 15.7995927855 15.5763534977
5.5823316969 15.0102625941 16.2290419331
5.9857677710 15.8009039569 7.6348858896
5.4554824024 16.4431478893 8.5857522325
6.4073998917 16.5736597125 8.0927247901
4.7760860300 16.6373041249 9.9105079560
4.5669541699 16.9861136321 11.3749284572
4.4769960493 17.0443743323 12.5773780898
4.8681760025 17.1721133117 15.2429020681
5.4804521625 15.9997651074 16.6257273447
5.3088189301 17.0220772377 16.7043440803
5.6727334462 16.5362564653 17.3142162159
6.0907555636 17.3125514053 8.8289993097
5.5644870334 17.8445501195 9.8142454878
6.5225808116 18.1924508366 9.3695076636
5.0376999208 18.0106807810 11.1265841076
4.8297334322 18.0373971504 12.4479637807
4.7887676388 17.8652507956 13.9143624721
5.0820153636 18.4112495100 15.3423086000
5.2438141681 18.2146298549 16.4804235211
5.6563286700 17.2420267587 17.7025861188
5.5796424082 18.1413953178 17.7438076035
5.8752279084 17.6730179760 18.3276840060
6.0440060554 18.8628692364 10.1366576024
5.5986777163 19.1987829090 11.0495894538
6.3665353986 19.7503475727 10.7014305754
5.2423059655 19.1611021446 12.2671533215
5.1141626543 18.9863315612 13.3823634386
5.3784621833 19.4311339175 14.7209317220
5.4457443343 19.2728084742 16.1596358613
5.6158502554 19.1489886462 17.3726376960
5.9853617836 18.3440567443 18.6524420733
5.9493112649 19.0779428236 18.4213927162
6.5933941675 18.8156100032 19.2694222592
5.9442420576 20.1567792369 11.3736936747
6.4506522466 20.5182063627 11.3463298814
5.7038340879 20.1820393287 12.1180232396
5.6425565100 20.2034328722 13.4277112930
6.1597905389 20.7674088826 14.7822039014
5.8941175061 20.2165536497 15.8112411177
5.9353348570 20.0176388505 16.9429919618
6.1128368926 19.8812371505 18.0200088673
6.4424454264 19.6918433764 18.8161358704
6.1891405491 20.7242619419 11.8837415925
6.2621123293 21.1370313523 12.7917527119
6.2381909233 21.2292466851 13.8017201340
6.3694004710 7.5956620183 5.9292878688
7.0224276791 7.4501954054 4.9975032073
7.2059419497 6.8865125307 5.5129230521
7.1018513833 6.6308915608 6.5909826470
6.3950930602 7.1874868769 7.2608347629
7.1052224047 6.5567762759 7.8403671120
6.5513335613 7.0860653681 8.2610129542
7.0853817242 6.7358577991 8.7877545712
6.7120693610 8.2233833320 4.8580491121
7.6586577781 8.4746462635 4.0599673837
7.2492371218 7.7640818713 4.5223509370
6.6150819929 7.3183971248 9.2224616518
7.1615901178 7.6300613410 10.7879546876
6.5416208697 8.4710618567 11.4040418068
7.3718099792 8.2065930789 12.0036418579
6.6812013981 9.3365602051 4.6060819868
7.6315647792 9.7724838742 4.1427031211
6.8812897504 8.9051473179 12.4931595172
6.9081143502 9.6709097848 13.6453268958
6.4565350236 10.6430677811 14.2529024834
7.2090499880 10.0986883988 14.5676607316
6.9125352243 10.3096895004 4.5275453484
6.9855266924 11.3580089165 4.8478343732
5.8280234207 11.7233066574 14.4159124419
7.1674851146 10.6376567092 15.0616597055
6.7876101866 11.5767428463 15.4079371523
7.8668129965 10.9126541224 15.8077657307
7.2035946462 12.4260738409 5.2587557864
5.9966984805 12.8593776287 15.4589636165
7.5450269209 11.8255248311 16.3101216598
6.9802895533 12.6809958201 16.4354922856
7.7945486827 12.4022647137 16.9522435169
6.6137885532 13.1818560101 5.7064727860
7.0939162217 14.0247473827 6.1752426634
6.4674968732 14.1737856709 16.8934696104
7.6446433829 13.3195977343 17.5118489455
7.6315564834 14.8989718144 6.7501546194
5.9794148745 15.6631226984 17.2544174473
7.4822181047 14.4046862117 18.2132749851
6.7482659434 15.5347133399 18.2324177860
7.4086016999 15.2170516146 18.8024725691
6.9682859175 15.7695693699 7.3857717734
7.4574177611 16.5691998277 7.9488252961
6.1202834792 16.7343726226 18.1691697799
7.2416019148 15.8349546690 19.0506843003
6.8702005346 16.6331960485 19.0571697077
7.6893892420 16.2086581906 19.6358217216
6.9074287313 17.3349717782 8.5692077968
7.4451672743 17.9105900746 8.9935135095
6.3956625176 17.6872000494 18.9854585823
7.3813783871 17.5779274757 19.9199614487
6.6838013449 19.0749352098 9.9781540887
7.5207673069 18.7093975935 9.6060932983
7.3553924946 18.8695379680 19.9737470440
7.4326397266 19.5868007500 10.3397799555
7.1310059569 20.3905148958 11.0803902972
6.3803120453 20.8093263434 15.6537545250
6.4850171453 20.7081811752 16.4321286979
6.5568372550 20.5310444723 17.5252111446
6.7654037243 20.3244051654 18.4698315981
7.2909472966 19.8638894667 19.3061191472
7.1290753723 21.1624470360 12.0218896737
6.9074126360 21.8770237915 12.8526360057
7.4075142162 21.9094659582 12.6596098514
6.6855600602 21.8527550510 13.5359386902
6.8244284835 21.6781013225 14.3833411567
7.1926531312 21.3030819818 15.5202211440
7.2783330487 20.9713703201 16.9550854470
7.1723484680 20.7572462727 17.9342441533
7.4750841660 20.5752944457 18.6107745043
7.3106977532 22.2333507537 12.9691290061
7.0971328305 22.2406672511 13.3152909671
7.6775566947 22.3481462382 13.2438501816
7.1813213661 22.1802269504 14.0183835755
8.3810112034 5.9525127627 4.7779837627
8.6263693223 6.1866434536 4.1079540262
8.9083732839 5.5996473414 4.4287549197
8.8810862105 5.2322891950 5.3296163165
7.9389227679 6.0441337749 5.7829445800
8.6842129567 5.1796972537 6.6941535195
7.8635803958 5.8919354900 7.3143642263
8.8066304516 5.2375922183 8.2290733406
7.8606306086 6.0989643451 8.7704083488
8.7353562068 5.6338144438 9.3903733975
8.2985343489 6.2071550309 9.9928607584
9.1906457266 5.7898355636 10.3145002192
7.8593132442 7.0030760480 4.4659923645
8.7925673217 6.7938088395 3.5066744444
7.4649965564 6.7706005535 9.7270981571
8.8284163727 6.3988479342 10.9556899257
8.0067148968 6.7852245307 10.6326378662
8.4852306561 7.0381933012 11.5162990644
8.4659252078 7.7477542340 3.4676750904
9.1225832198 8.1232718673 3.0045133269
9.2615679465 7.4105546553 2.8733881954
8.5272660304 7.7195742840 12.4301080533
7.8819489889 8.3837508505 12.8242099015
8.6429401923 8.2862441239 13.3768719930
8.6015987510 8.5338347229 3.3904337391
8.5941469272 9.3225003394 3.6834849411
8.0521571892 8.9028918620 13.7132646468
7.9147933779 9.6296747750 14.5908588435
7.7159849229 10.2142726860 15.1351065938
8.5773313471 10.0357534224 15.4419109894
7.6192454686 10.6282058356 4.3539816018
8.5929378973 10.3760173539 4.0816141011
8.9983323102 10.6779655428 16.2314732366
8.1206740312 11.1334461285 4.4876073226
8.5444062537 11.9738003422 4.9750769428
8.6366875507 11.6173008605 16.8391573898
8.5053752341 12.5720027059 17.5732271821
7.8415155053 13.1469917109 5.6263944454
8.4212542765 14.0224891736 6.1992488228
8.6544689337 13.2566339382 18.2366676269
7.9972262235 13.7519179994 18.1806508633
8.3624731485 14.0349701984 18.6858679375
8.8826455873 14.8129671757 6.7827623496
8.0439023823 14.7917227710 19.0404378682
7.7579991174 15.4714747301 19.3001272216
8.6108582996 15.2390122434 19.7307190362
8.4439663456 15.7259424868 7.4183932233
8.3702641555 16.5875608371 8.0462579622
8.5451793872 16.3208980559 20.3918674267
7.9077322282 17.2422662310 8.4913261832
8.6489471478 17.8805512854 9.1363260609
8.1805569418 17.3124521946 20.6804005766
7.9069275358 18.3323348178 20.6113907285
8.3792883921 17.5011909763 20.9919989273
8.1493097296 18.3250558296 20.9232864538
8.4051742242 18.7871530500 9.7542958235
7.9608877475 19.1745549731 9.9769048940
8.6983246552 19.3785698652 10.3825603051
7.9766971639 19.3463193217 20.1522605037
8.3079894705 19.0090232062 20.7262040296
7.6863286125 20.7097495242 11.4455664707
8.1359040289 20.2035284149 11.0375146879
8.5011959440 20.8221769817 11.9110813101
7.7915895108 20.3836216724 19.0340124160
8.4797971044 20.0716220264 19.2154098012
8.0683152017 20.5901701359 18.6348552890
8.8832404663 19.4398472921 20.3458934195
8.9269775157 19.2680336011 20.8892456091
7.7408622751 22.1499957735 12.9626186088
8.1997379572 21.6020886970 12.7609903884
8.2351434678 22.1012449173 13.4195936603
8.4186141507 21.6168203940 14.9740513672
7.6942820151 22.0635408666 14.5010077610
8.4159968977 21.1564044667 16.3386860379
8.0103345248 20.8585286405 17.7540129077
8.1037225720 22.3559499710 13.7093288491
7.6715683028 22.3491974199 14.2437776274
9.5462075603 4.5585095804 6.1806222237
9.7041777309 4.6771101180 5.1502254982
10.6053761823 4.0731251105 5.5956712138
10.3442353417 4.0826902273 7.0118380173
9.4639907035 4.5824019427 7.4187899826
10.1626612576 4.2659847511 7.9892718326
9.6786540617 4.6530969982 8.4257622774
10.4849065612 4.4360567769 8.8795284628
9.5190411399 5.7894637280 3.6301595058
9.4201506725 5.1432717725 4.5237692312
9.7990222422 5.1151491330 9.5555421424
9.9941846340 5.5783334698 10.6110377544
10.0619409552 7.0567415441 2.3158639214
10.6769387105 7.0658974158 1.9372557755
10.6786205570 6.6342205289 2.0090101372
10.3366635838 6.1653992634 2.5591804070
9.5081594659 6.6492890676 2.8997178543
9.7595063949 6.0782302824 11.1999234849
9.4584426901 6.6870560871 11.8242340001
9.1020401069 7.1408877331 12.1853395940
9.9963818542 7.2230959252 12.7473573708
10.4294380471 7.3966810498 2.1074973523
10.1612633501 7.9070575649 2.5658651654
9.6872861387 8.0199617231 13.6832909731
9.0595325168 8.5441344976 14.0575752820
9.7583919818 8.5534777595 14.4890042430
9.5107445735 8.7757685102 3.1746856851
9.8220482422 9.7358113003 3.7019151028
9.0866200620 9.1600374365 14.7908248238
10.0161215941 9.8515582429 15.8119429918
9.5456212722 10.6067487796 4.1610545962
8.9288356364 11.1072266660 4.4221436648
9.8430801332 11.2162773573 4.5876062967
9.8027327648 10.6976238218 16.5520670808
9.3228873201 11.0766036343 16.7256678406
10.0002556419 11.3706869141 17.1763145617
10.2082608422 12.0361038796 5.1868859387
9.4584767861 12.1834593947 17.7372012437
9.0956286609 12.6931344522 18.0388930166
9.8075760334 12.8482228850 18.5056568612
9.2734823746 13.0495995732 5.6756757284
9.9333662468 13.9962630632 6.4343627572
9.3024121812 13.6825087115 18.9851314316
8.8045143437 14.3934187434 19.2695468449
9.6946179116 14.3150542391 19.6712441510
9.7683674289 14.8422348522 6.9962587186
9.2320499507 15.2276365029 7.1514374135
9.8890466464 15.4576673397 7.5515834485
9.8079465480 15.1733439672 20.4192218785
8.8016056881 17.0049687022 8.4729218485
9.3056821214 16.3027856706 8.0648569349
9.7968093002 16.9340034075 8.7340392413
9.4042009942 15.9327568268 20.8681488463
8.8352718041 16.6590551058 20.9687014078
9.5458409749 16.0605620615 21.1389355107
8.9310898285 16.7475839272 21.1472990206
10.1224768662 17.6603005198 9.4107181324
9.3995645290 18.5323950849 9.8469221462
10.2149363517 18.9925470938 10.6103174788
9.3993090212 19.1874770047 20.8732532540
9.8548939714 18.9482786371 20.8354369128
9.7716517117 19.1317824938 20.3922965389
9.3521500147 19.1575624057 21.0596950150
9.8847248848 18.8538452413 21.0019209223
9.5454797703 19.9740655876 11.4155342905
9.6578362007 20.5806190408 12.3161069187
9.0405582609 20.7635708758 17.2738891169
9.8243723114 20.5869096435 16.8883379910
9.4169138654 20.9238273350 16.3847424942
8.6692469709 20.5621083728 18.2145829368
9.7197563083 20.1478307576 18.0045539394
9.6506529193 19.5609710571 19.4257375040
9.1694564383 21.0936371172 12.7767139219
8.3362228403 22.0963160846 14.1057726626
9.2220891371 21.4102938848 13.9362191071
9.3796675065 21.1654369558 15.4274934281
8.0114970789 22.3557598882 14.1448609573
10.3438886545 4.7434113700 4.2812109778
11.3235915680 4.5994207205 3.6662797790
11.4396906301 3.9919525258 4.5258969771
11.7284239219 3.3977211987 5.4556064747
11.5180834815 3.5020631669 6.7340784481
11.1654592626 3.9572039398 8.1454039466
11.3216812207 4.2845516206 9.1846872356
10.7070365968 5.2993796145 3.1807182720
11.1391665985 5.6358093881 2.4736961757
11.8330328232 5.0420632095 2.8654024797
11.0395499523 4.7433641639 9.8098896328
10.8102641105 5.3233533676 10.5841632746
10.5430275947 5.8099703472 11.2153199561
11.4952344321 5.8485180526 11.4337103285
11.4439073824 6.6992919172 1.8204964709
11.2136663345 6.1291367489 2.0343022645
10.6773274260 6.4295073608 12.0040312899
11.4362908042 7.0858956048 12.9420681842
11.1195439047 7.4153795855 2.0795141489
11.2296785873 7.9939911202 2.5351023618
11.0469486684 7.7404703782 13.7494340005
10.6751184123 8.3832258762 14.5457499514
10.1663962978 8.9389974875 15.0556628341
11.1826087970 9.0718023533 15.3049042487
11.0188652374 8.7346379185 3.1554959846
10.9924433071 9.6625569257 3.7918722131
11.5363517322 9.9796685192 16.0578361042
10.5114976037 10.3993902506 4.1791767149
11.2660780418 10.9564015478 4.7504400433
10.7734036926 10.6529038026 16.6631602365
11.2902933164 11.4340725437 17.4111721240
11.5801265830 11.9070580785 5.4674577071
10.7385333865 12.1655549421 18.1272784101
10.8210186193 12.8170664537 18.8670909241
10.7307403208 12.8898606394 5.8522186616
11.5683750639 13.5248851676 6.5819785761
10.3814600483 13.4521170679 19.2830633383
11.0544522068 14.1507775625 19.9873618012
10.9337906764 14.6295218527 7.2302891861
10.9896832021 15.3689371610 7.8768989861
10.9262871130 14.9218004989 20.7559219077
10.1678071015 15.4505599161 21.0086960712
10.7795550804 15.1964786362 21.0823228381
10.2223722280 15.5450287350 21.1894577529
10.4980077517 16.0661580204 8.2819966786
11.3629465272 16.6347327397 9.1189711411
11.1267388613 17.6058431194 9.7861543473
10.4283469397 18.2326251058 9.9759713620
11.3076555692 18.1930680307 10.3984721600
10.4929590954 18.4971530624 20.6554092640
11.1625635711 17.8832075647 20.6067797988
11.2248617573 18.1138360243 20.0670411773
10.4914323187 18.3619895020 20.9590764154
11.1371186789 17.7713283146 20.8201130211
11.3908178749 18.8224277443 11.1058321178
10.6088069800 19.3479992542 18.5695257340
11.4537408642 19.0676359765 17.6684343853
10.7700222125 19.7090982011 17.5298903270
10.5260290438 18.8884329821 19.7259315459
11.4497047461 18.4852120469 18.9271894146
10.7339104478 19.4596212005 11.4616804324
10.0835651880 20.7574309488 13.1714606088
10.8119299676 19.9802199085 12.5212435097
10.3888637770 20.7867269668 14.0337149265
10.8988499796 20.3479331622 13.6110842648
11.0899526421 20.2924816721 14.5659867561
10.5195991244 20.2032177867 16.7852689449
10.1369126208 20.7021543028 16.0150412570
10.2746788495 20.8242343057 14.9406757228
12.2377211550 2.9186605494 6.0667628539
12.4112090572 2.8879555346 5.3393248093
12.7474049959 2.5383838314 5.6929554301
12.8424575536 2.5292825681 6.3613127654
12.4158115311 2.9851891378 6.8759835551
13.1724603691 2.7724792787 7.1249331110
12.4125978372 4.1173934262 3.7751388173
12.3942035516 3.2989546945 4.6902509452
12.4618173124 3.4970630388 7.9123784944
12.1177660929 4.0907323057 9.0714422834
11.8553262774 4.5076612562 9.7829728300
12.6865265214 4.5738585853 9.9327469638
11.7850414489 5.6356155361 2.2000375180
12.1012641087 6.0453112494 1.8851080675
12.6520822242 5.4502579805 2.3217166454
12.8339971811 4.7836880440 3.0250922998
12.0170147890 5.1432537713 10.6051777185
12.7923790256 6.1121203607 11.5917149179
12.4375187511 6.4930937718 1.8152738906
11.9965167448 6.5504603899 12.2722617811
12.4307965947 7.1652619683 12.9271391646
11.9961463036 7.0305587287 1.9358775825
11.7654186651 8.1380533302 2.7864232591
12.0969343443 7.5676328084 2.4032655008
12.5889864101 8.1205436987 3.1832127650
12.2665655709 7.6917421596 13.6286097945
12.0095738933 8.3942311900 14.5712683208
12.4900855429 9.3490802000 15.3813524688
11.4738218019 10.0688506498 4.1991117737
11.9869441950 9.2722426684 3.8105780219
12.4071214521 10.0029333511 4.4868580208
12.6540763131 10.4843880493 16.1153484358
12.6634538570 10.9361402471 5.2513861697
11.9135029988 10.9008861837 16.7889857278
12.1748689660 11.6860677541 17.4429596022
12.7117505362 11.8793373318 5.9312496657
11.8398436163 12.6173413911 6.0220172092
12.5851351556 12.7876483715 6.4845584559
11.8632736000 12.1956779643 18.1089526632
11.5605797337 12.7264685929 18.8162482004
11.2367010885 13.2491952553 19.3358203336
11.8929207298 13.4691429070 19.3746311833
12.5986449377 13.4501605765 6.9547098303
12.0511993363 14.2584812285 19.8750834802
12.2901041193 14.1491815653 7.3817955782
11.4976566876 15.7240922358 8.3952990391
11.9645975936 14.9944363510 7.9714173148
12.4595190624 15.5989888647 8.7422428028
11.7720543317 14.7678791019 20.4828071463
11.4877652433 15.0024816426 20.8824402255
12.8035592213 16.2626311331 9.5296247894
11.7703977393 17.2301642595 20.4081385928
12.3293349042 16.3593293207 20.0827872053
12.2717095620 16.9515843798 19.7558561587
11.7214568211 17.0314515471 20.7551722516
12.1346918109 16.1978226136 20.5333836021
12.3666988818 17.1982052288 10.1859703714
12.2289666017 18.0969727770 11.0139864549
11.9060242212 17.6599268830 19.5808427971
12.3933917736 17.2159835972 19.1218465780
12.1529339253 17.8169731342 18.7591331476
12.1164530224 18.6628983615 11.5948721722
11.5824247524 19.2422394078 11.9093340440
11.8372974789 19.3903868291 12.7344395495
12.3482066770 18.8191946068 12.3605161284
12.3911432231 19.0082849283 13.2262181139
11.7851628307 19.5799764897 15.2925721544
12.4415694377 18.8932746759 15.2373377756
12.2317799750 19.2607354560 14.6506829510
11.3379058622 19.6300841663 16.5790653417
12.1854447745 18.7747897799 16.4568531935
12.1477868423 18.2488562825 17.8398872497
11.7783191801 19.6299496783 13.8414259487
10.9388846165 20.2490626324 15.6968393278
13.5361968425 2.1178584875 5.2359828042
13.5860371302 2.3957377860 4.8532261039
13.8266335374 2.1485855780 5.1732233822
13.7461263345 2.0171633432 5.6736218211
13.2777462952 2.1771570647 5.7989675979
13.6158975532 2.0636312341 6.1973035356
13.3246630961 2.2712817630 6.4817816827
13.6730184876 2.3727011058 6.6840246060
13.0559334839 2.5605626015 5.0666753461
13.3311874950 3.1459726470 4.4133096251
13.7098567860 2.7845665160 7.1547683334
13.6097326411 4.2356494528 3.7372764702
13.7162609703 3.4722995759 7.9555734251
13.1262241958 4.0769746994 9.0839336517
13.4869025402 4.6751040962 9.9196356191
12.9153759094 5.9813546202 1.9452762145
13.3035090862 5.6948565393 2.2720328241
13.4095441496 5.2533571584 2.8068914201
13.2102306888 5.2630265768 10.6613344546
13.7812692899 6.0852481111 11.2253698320
13.0697608965 6.3673838207 1.9711269586
12.7326056569 6.8724600296 2.1001495767
12.9546128342 7.2116040546 2.5863661410
13.3366420463 6.5491843968 2.3533373218
13.5386513986 6.9393029062 3.0232834694
12.9053619892 6.9346044571 12.4492869761
13.7099793470 7.2724694710 12.1563294385
13.6270828270 8.0310893615 3.6882479271
13.2605883318 7.8130746227 13.1716539298
13.0394899089 8.3204875608 14.1409513759
12.9478420904 8.7558307196 14.7908004902
13.4641123499 8.8690330244 14.5416040283
13.0997622260 8.9953605368 4.0545599867
13.5517262418 9.8095579825 4.8331145562
13.2994195573 9.2463549092 15.0065151140
13.3614190215 10.0654564007 15.3760556284
13.5585783912 10.8083799163 5.6067988514
13.1787179079 11.2523076741 5.7290150407
13.5182124646 11.4988550497 6.1221529044
12.7778636269 11.5721902532 16.8836150387
13.5029062067 11.4291421783 15.9566959155
13.2754699034 13.0141972746 7.0262687155
13.3673038034 12.2272070576 6.5542875565
13.8426994111 12.5335272815 7.0714368192
13.3477300831 12.6059759440 16.9396466937
13.7970445931 12.6482235862 16.1699276658
12.6867383209 12.6544964928 17.8837833995
12.2227852645 12.9226184077 18.7082374243
13.1125915372 13.7166379374 7.4425148042
13.7680177625 13.4387904501 7.6422239563
13.6814726480 13.4320755208 16.7584102305
13.7171939631 14.2424911478 16.8036465269
13.2585703238 14.0522702627 17.7602914599
12.5871694699 13.8969227006 19.0107895627
13.2949725296 14.5157219283 8.2337697298
13.4302027242 15.5078011535 9.1968290140
13.5002258327 15.3231121100 17.1375155422
13.8942812371 14.7365678866 16.2238450138
13.8001309351 15.7341707424 15.9765590980
13.1529208536 15.3719001678 18.2153339542
12.9024058848 14.9532732132 18.8924971273
12.4151540955 15.2230078244 19.9576203289
12.0598639845 15.2686072712 20.6280730719
13.6381662199 16.0841703865 9.9552544260
13.1441357880 16.5670914403 10.0525415054
13.4505340276 16.7189674792 10.6329811796
13.2572950618 16.7494587746 16.7706117092
13.6176526387 16.7337703172 15.5765915768
13.1121528302 16.2158822959 17.9074570270
12.7201779675 16.2150754573 19.0874498018
12.7955575389 18.1268481549 11.8943374623
13.1208836695 17.3965925990 11.2494442184
13.0278735780 18.2163841563 13.0890133049
13.5341649391 17.3917499179 12.3551789873
13.2875668316 17.8826639903 14.1993421290
13.7071244712 17.2774604016 13.5114650779
13.0372622819 17.8806839792 15.5223262636
13.6913485096 17.0805752389 14.6177680599
12.7132193463 17.8266614733 16.9606469438
12.6901593032 17.2338427257 18.1038539075
12.6608892413 18.7319182613 14.2443212174
13.9142888712 2.6156887036 4.8890686317
14.0330377881 2.3376632479 5.6006055348
13.8918219946 2.1840228241 6.1760547086
13.9601903018 3.2809366680 4.4925387005
14.2464043394 3.0064422056 5.2654134596
14.0818557691 2.7943460256 6.5819481025
14.1907098580 3.6479784457 4.4688494544
14.3725610456 3.5230062918 4.9513439600
14.3764975752 3.1960653772 6.0754658104
14.3257278672 3.5453607582 7.5161111483
14.3781613700 4.1748878792 8.5885711510
14.5550924326 4.1265015321 8.3375104360
13.9608798706 4.3999123055 9.2636886904
13.3744553371 6.0690197235 2.1419482077
13.6015406658 5.9803396245 2.5983592338
13.8369731207 5.6194044764 3.2718040893
14.1369239418 4.2557987162 4.0802505390
14.6229844904 4.5676915703 8.9535820301
14.6344272459 4.9463318425 9.4834613840
14.4630915562 4.8054107955 9.4499631374
14.0451688273 5.2038342499 10.2552396873
13.9047228831 7.1865612237 3.5114498561
14.4595435983 5.2587943229 10.0348190475
14.2180134517 5.8762916061 10.8203494526
14.1205675493 6.9070071818 11.5912326941
13.9981349174 8.2512256910 4.0128752986
13.8043849763 8.8086505693 4.2426349468
13.9975882849 9.1070112555 4.5287390696
14.1320090336 8.8676201887 12.9284649102
14.3390664496 8.4914930939 12.1375276185
13.7421187851 8.8187104423 13.8984737171
13.9761084312 9.7122992419 4.9491004676
14.6086307083 10.0104785623 12.3657802893
14.6550929956 9.6494664197 12.0040411060
14.7869655583 10.6267364077 11.9386313508
14.4547029386 10.1682092733 13.1734566788
14.1661385586 9.8224883300 13.9023648683
13.7685118077 9.5347679943 14.6344402384
13.8939317469 10.3474083090 5.4193746413
13.8539662065 11.8536364094 6.6096910976
13.9073047660 11.2524114396 6.1738555348
14.0557661946 12.0640632807 6.8870892690
14.7864056315 11.3742163972 12.2217643028
14.8735844426 11.6757734898 11.8663917593
14.6242402709 11.2196876513 13.0091510031
14.3764266166 11.0585395398 13.9754103621
13.9686589454 10.6610370744 14.8523222949
14.0718995817 12.8696756352 7.4447432197
14.8570155102 12.4247970501 12.1674644233
14.9072264853 12.3838869641 11.9012773569
14.7170278165 12.4418711294 12.9082083743
14.5038744252 12.3265853215 13.9192653158
14.1348145462 12.1636069848 15.1060238435
14.0686798737 13.6077045869 7.9454886397
13.9072147230 13.9429253531 8.0958469222
13.9303180533 14.2726187867 8.3852927248
14.8823083729 13.0651062670 12.2222830779
14.8373527886 13.7791525355 12.5669756405
14.7616152401 13.6089420729 12.8207669615
14.5439947130 13.6196801026 13.8466261616
14.3347213589 13.3112499969 14.7926324822
14.0194089997 13.6176626224 15.8920573701
13.8667644486 15.5824439553 9.5528247322
13.8467165208 15.1000341540 9.0828017319
13.9805346083 15.7423735390 9.8788347503
14.7060516883 14.5770818750 12.9375151958
14.4905332202 15.6385448878 12.8763392620
14.4458156097 15.1576160393 13.6493344071
14.2074714501 14.6377260095 15.0679801329
13.8625299514 16.7617884185 11.6534379174
13.9707194179 16.3073952629 10.8365829641
14.1547214248 16.4431756349 12.8648508912
14.2469682377 16.2908575905 12.0599774239
14.0837329157 16.4328280439 13.9182855788
14.0356940774 16.0064266557 14.8363634449
3 2 1 0
3 4 3 0
3 0 3 2
3 4 5 3
3 1 6 0
3 8 7 6
3 7 0 6
3 7 4 0
3 5 4 9
3 9 4 7
3 8 10 7
3 7 10 9
3 12 11 2
3 2 11 1
3 13 2 3
3 13 12 2
3 3 5 13
3 13 5 14
3 11 15 1
3 1 15 6
3 8 6 15
3 8 15 16
3 9 18 17
3 14 9 17
3 5 9 14
3 18 19 17
3 16 20 8
3 8 20 10
3 10 20 9
3 20 21 9
3 21 18 9
3 21 20 22
3 19 18 23
3 23 18 21
3 22 24 21
3 21 24 23
3 27 26 25
3 25 28 27
3 31 30 29
3 31 29 26
3 29 25 26
3 29 32 25
3 28 25 33
3 25 34 33
3 25 32 34
3 36 35 34
3 34 35 33
3 36 37 35
3 29 30 38
3 38 30 39
3 38 11 12
3 32 38 12
3 29 38 32
3 32 12 13
3 32 13 34
3 34 13 14
3 40 34 14
3 36 34 40
3 37 36 41
3 36 42 41
3 36 40 42
3 42 43 41
3 38 39 44
3 44 39 45
3 46 15 11
3 38 46 11
3 44 46 38
3 46 16 15
3 17 40 14
3 40 17 19
3 47 40 19
3 42 40 47
3 43 42 48
3 42 49 48
3 42 47 49
3 49 50 48
3 45 51 44
3 53 52 51
3 52 44 51
3 52 46 44
3 54 20 16
3 46 54 16
3 52 54 46
3 54 22 20
3 23 55 47
3 23 47 19
3 47 56 49
3 47 55 56
3 50 49 57
3 49 58 57
3 49 56 58
3 58 59 57
3 53 60 52
3 52 60 54
3 54 60 61
3 61 63 62
3 61 62 24
3 54 61 24
3 22 54 24
3 55 23 24
3 62 55 24
3 64 55 62
3 55 65 56
3 55 64 65
3 56 66 58
3 56 65 66
3 59 58 67
3 67 58 66
3 63 68 62
3 62 68 64
3 64 68 69
3 64 69 65
3 65 69 70
3 72 71 70
3 71 65 70
3 71 66 65
3 67 66 73
3 73 66 71
3 72 74 71
3 71 74 73
3 77 76 75
3 26 27 75
3 27 77 75
3 27 78 77
3 80 79 28
3 79 27 28
3 79 78 27
3 82 81 80
3 80 81 79
3 82 83 81
3 75 76 31
3 76 30 31
3 76 84 30
3 75 31 26
3 33 80 28
3 80 33 35
3 80 35 82
3 86 85 37
3 37 85 35
3 85 83 35
3 83 82 35
3 88 87 86
3 86 87 85
3 88 89 87
3 84 39 30
3 90 39 84
3 41 86 37
3 86 41 43
3 91 86 43
3 88 86 91
3 89 88 92
3 92 88 91
3 90 45 39
3 93 45 90
3 48 91 43
3 95 94 50
3 50 94 48
3 94 92 48
3 92 91 48
3 95 96 94
3 93 97 45
3 45 97 51
3 53 51 97
3 53 97 98
3 57 95 50
3 100 99 59
3 59 99 57
3 99 96 57
3 96 95 57
3 100 101 99
3 60 53 102
3 53 103 102
3 53 98 103
3 104 61 60
3 104 60 102
3 104 63 61
3 67 105 100
3 67 100 59
3 101 100 106
3 106 100 105
3 103 107 102
3 109 108 107
3 108 102 107
3 108 104 102
3 110 68 63
3 104 110 63
3 108 110 104
3 111 69 68
3 111 68 110
3 112 70 69
3 112 69 111
3 112 72 70
3 73 113 105
3 73 105 67
3 106 105 114
3 105 115 114
3 105 113 115
3 115 116 114
3 109 117 108
3 119 118 117
3 118 108 117
3 118 110 108
3 110 120 111
3 110 118 120
3 111 121 112
3 111 120 121
3 122 74 72
3 112 122 72
3 121 122 112
3 113 73 74
3 122 113 74
3 123 113 122
3 113 124 115
3 113 123 124
3 116 115 125
3 115 126 125
3 115 124 126
3 126 127 125
3 119 128 118
3 130 129 128
3 129 118 128
3 129 120 118
3 120 131 121
3 120 129 131
3 121 132 122
3 121 131 132
3 122 133 123
3 122 132 133
3 123 134 124
3 123 133 134
3 124 135 126
3 124 134 135
3 127 126 136
3 126 137 136
3 126 135 137
3 137 138 136
3 129 130 139
3 139 130 140
3 129 141 131
3 129 139 141
3 131 142 132
3 131 141 142
3 144 133 143
3 133 142 143
3 133 132 142
3 133 144 134
3 134 144 145
3 134 145 135
3 135 145 146
3 135 146 137
3 137 146 147
3 137 147 138
3 140 148 139
3 139 148 141
3 141 148 149
3 141 149 142
3 142 149 150
3 142 150 143
3 153 152 151
3 155 154 151
3 151 154 153
3 157 156 155
3 155 156 154
3 157 158 156
3 161 160 159
3 161 159 152
3 152 159 151
3 159 76 151
3 76 77 151
3 151 77 78
3 151 78 155
3 155 78 79
3 155 79 157
3 162 158 157
3 79 162 157
3 81 162 79
3 164 163 83
3 163 81 83
3 163 162 81
3 164 165 163
3 159 160 166
3 166 160 167
3 166 84 76
3 166 76 159
3 85 164 83
3 168 165 164
3 85 168 164
3 87 168 85
3 170 169 89
3 169 87 89
3 169 168 87
3 170 171 169
3 167 172 166
3 84 166 172
3 173 84 172
3 90 84 173
3 92 174 170
3 92 170 89
3 171 170 175
3 170 176 175
3 170 174 176
3 176 177 175
3 173 93 90
3 178 93 173
3 94 174 92
3 174 94 96
3 179 174 96
3 176 174 179
3 177 176 180
3 176 181 180
3 176 179 181
3 181 182 180
3 178 183 93
3 93 183 97
3 98 97 183
3 98 183 184
3 99 179 96
3 179 99 101
3 185 179 101
3 181 179 185
3 182 181 186
3 186 181 185
3 184 103 98
3 187 103 184
3 106 188 185
3 106 185 101
3 186 185 189
3 185 190 189
3 185 188 190
3 190 191 189
3 187 192 103
3 103 192 107
3 109 107 192
3 109 192 193
3 114 188 106
3 188 114 116
3 194 188 116
3 190 188 194
3 191 190 195
3 190 196 195
3 190 194 196
3 196 197 195
3 193 198 109
3 109 198 117
3 119 117 198
3 119 198 199
3 125 194 116
3 194 125 127
3 200 194 127
3 196 194 200
3 197 196 201
3 201 196 200
3 128 119 202
3 119 203 202
3 119 199 203
3 202 130 128
3 136 200 127
3 136 138 200
3 138 201 200
3 138 204 201
3 203 205 202
3 130 202 205
3 206 130 205
3 140 130 206
3 143 207 144
3 208 145 144
3 208 144 207
3 209 146 145
3 209 145 208
3 210 147 146
3 210 146 209
3 210 211 147
3 211 138 147
3 211 204 138
3 206 212 140
3 140 212 148
3 212 214 213
3 149 212 213
3 148 212 149
3 215 150 149
3 215 149 213
3 215 216 150
3 150 216 143
3 216 217 143
3 217 207 143
3 207 217 208
3 208 217 218
3 208 218 209
3 209 218 219
3 209 219 210
3 210 219 220
3 210 220 211
3 214 221 213
3 223 222 221
3 222 213 221
3 222 215 213
3 216 215 224
3 224 215 222
3 227 226 225
3 229 228 225
3 225 228 227
3 231 230 229
3 229 230 228
3 233 232 231
3 231 232 230
3 235 234 233
3 233 234 232
3 235 236 234
3 225 226 237
3 237 226 238
3 237 152 153
3 229 237 153
3 225 237 229
3 229 153 154
3 229 154 231
3 231 154 156
3 231 156 233
3 233 156 158
3 239 233 158
3 235 233 239
3 236 235 240
3 235 241 240
3 235 239 241
3 241 242 240
3 245 244 243
3 245 243 238
3 238 243 237
3 243 160 237
3 160 161 237
3 237 161 152
3 162 239 158
3 239 162 163
3 239 163 241
3 247 246 165
3 165 246 163
3 246 242 163
3 242 241 163
3 247 248 246
3 244 249 243
3 160 243 249
3 250 160 249
3 167 160 250
3 168 247 165
3 251 248 247
3 168 251 247
3 169 251 168
3 253 252 171
3 252 169 171
3 252 251 169
3 253 254 252
3 172 167 255
3 167 256 255
3 167 250 256
3 255 173 172
3 175 253 171
3 175 177 253
3 177 254 253
3 177 257 254
3 256 258 255
3 173 255 258
3 259 173 258
3 178 173 259
3 260 257 177
3 260 177 180
3 180 182 260
3 260 182 261
3 259 262 178
3 178 262 183
3 184 183 262
3 184 262 263
3 186 265 264
3 261 186 264
3 182 186 261
3 265 266 264
3 263 187 184
3 267 187 263
3 189 265 186
3 269 268 191
3 191 268 189
3 268 266 189
3 266 265 189
3 269 270 268
3 267 271 187
3 187 271 192
3 193 192 271
3 193 271 272
3 195 269 191
3 195 197 269
3 197 270 269
3 197 273 270
3 272 274 193
3 193 274 198
3 199 198 274
3 199 274 275
3 201 277 276
3 273 201 276
3 197 201 273
3 279 278 277
3 277 278 276
3 281 203 280
3 203 275 280
3 203 199 275
3 282 281 280
3 204 283 277
3 204 277 201
3 277 284 279
3 277 283 284
3 281 205 203
3 286 285 206
3 286 206 205
3 282 286 205
3 281 282 205
3 287 285 286
3 290 289 288
3 289 291 283
3 211 289 283
3 204 211 283
3 288 289 211
3 283 291 284
3 284 291 292
3 285 212 206
3 294 293 214
3 294 214 212
3 287 294 212
3 285 287 212
3 295 293 294
3 297 296 217
3 297 217 216
3 217 298 218
3 296 298 217
3 218 299 219
3 298 299 218
3 288 220 290
3 220 299 290
3 220 219 299
3 220 288 211
3 293 221 214
3 223 221 293
3 295 223 293
3 300 223 295
3 224 297 216
3 224 301 297
3 304 303 302
3 306 305 302
3 302 305 304
3 308 307 306
3 306 307 305
3 308 309 307
3 311 310 227
3 227 310 226
3 228 302 303
3 311 228 303
3 227 228 311
3 302 228 230
3 302 230 306
3 306 230 232
3 306 232 308
3 312 309 308
3 232 312 308
3 234 312 232
3 234 236 312
3 312 236 313
3 316 315 314
3 318 317 314
3 314 317 316
3 310 317 318
3 238 310 318
3 226 310 238
3 319 313 236
3 319 236 240
3 321 320 242
3 320 240 242
3 320 319 240
3 321 322 320
3 315 323 314
3 324 244 245
3 314 324 245
3 318 314 245
3 323 324 314
3 318 245 238
3 246 321 242
3 326 325 248
3 248 325 246
3 325 322 246
3 322 321 246
3 326 327 325
3 324 328 244
3 244 328 249
3 250 249 328
3 250 328 329
3 251 326 248
3 330 327 326
3 251 330 326
3 252 330 251
3 252 254 330
3 330 254 331
3 333 256 332
3 256 329 332
3 256 250 329
3 334 333 332
3 257 336 335
3 331 257 335
3 254 257 331
3 336 337 335
3 333 258 256
3 259 258 333
3 334 259 333
3 338 259 334
3 260 336 257
3 340 339 261
3 261 339 260
3 339 337 260
3 337 336 260
3 340 341 339
3 338 342 259
3 259 342 262
3 263 262 342
3 263 342 343
3 264 340 261
3 345 344 266
3 266 344 264
3 344 341 264
3 341 340 264
3 345 346 344
3 348 267 347
3 267 343 347
3 267 263 343
3 349 348 347
3 268 345 266
3 268 270 345
3 270 346 345
3 270 350 346
3 348 271 267
3 352 351 272
3 352 272 271
3 349 352 271
3 348 349 271
3 353 351 352
3 273 355 354
3 350 273 354
3 270 273 350
3 357 356 355
3 355 356 354
3 351 274 272
3 275 274 351
3 353 275 351
3 358 275 353
3 276 355 273
3 355 276 278
3 355 278 357
3 358 359 275
3 275 359 280
3 282 280 359
3 282 359 360
3 363 362 361
3 365 364 361
3 365 361 362
3 360 366 282
3 282 366 286
3 287 286 366
3 287 366 367
3 370 369 368
3 372 371 368
3 372 368 369
3 289 290 371
3 372 289 371
3 373 289 372
3 361 291 363
3 291 373 363
3 291 289 373
3 291 361 292
3 292 361 364
3 367 374 287
3 287 374 294
3 376 375 295
3 294 376 295
3 374 376 294
3 296 297 375
3 376 296 375
3 377 296 376
3 368 298 370
3 298 377 370
3 298 296 377
3 298 368 299
3 299 368 371
3 299 371 290
3 378 300 375
3 375 300 295
3 301 378 297
3 297 378 375
3 381 380 379
3 303 304 379
3 304 381 379
3 304 382 381
3 383 304 305
3 383 382 304
3 384 305 307
3 384 383 305
3 307 309 384
3 384 309 385
3 388 387 386
3 388 386 380
3 380 386 379
3 386 310 379
3 310 311 379
3 379 311 303
3 389 385 309
3 389 309 312
3 391 390 313
3 390 312 313
3 390 389 312
3 391 392 390
3 394 393 316
3 316 393 315
3 317 386 387
3 394 317 387
3 316 317 394
3 386 317 310
3 319 391 313
3 395 392 391
3 319 395 391
3 320 395 319
3 320 322 395
3 395 322 396
3 393 397 315
3 315 397 323
3 324 323 397
3 324 397 398
3 399 396 322
3 399 322 325
3 401 400 327
3 400 325 327
3 400 399 325
3 401 402 400
3 398 403 324
3 324 403 328
3 329 328 403
3 329 403 404
3 330 401 327
3 330 331 401
3 331 402 401
3 331 405 402
3 404 406 329
3 329 406 332
3 334 332 406
3 334 406 407
3 408 405 331
3 408 331 335
3 335 337 408
3 408 337 409
3 407 338 334
3 410 338 407
3 411 409 337
3 411 337 339
3 339 341 411
3 411 341 412
3 410 413 338
3 338 413 342
3 343 342 413
3 343 413 414
3 415 412 341
3 415 341 344
3 344 346 415
3 415 346 416
3 414 417 343
3 343 417 347
3 349 347 417
3 349 417 418
3 350 420 419
3 416 350 419
3 346 350 416
3 422 421 420
3 420 421 419
3 418 423 349
3 349 423 352
3 353 352 423
3 353 423 424
3 354 420 350
3 420 354 356
3 420 356 422
3 426 358 425
3 358 424 425
3 358 353 424
3 427 426 425
3 430 429 428
3 432 431 428
3 432 428 429
3 426 359 358
3 360 359 426
3 427 360 426
3 433 360 427
3 436 435 434
3 438 437 434
3 438 434 435
3 437 438 430
3 437 430 428
3 363 437 428
3 362 363 428
3 362 428 365
3 365 428 431
3 433 439 360
3 360 439 366
3 441 440 367
3 366 441 367
3 439 441 366
3 443 442 440
3 443 440 441
3 444 442 443
3 446 445 369
3 446 369 370
3 434 372 436
3 372 445 436
3 372 369 445
3 372 434 373
3 373 434 437
3 373 437 363
3 440 374 367
3 374 440 376
3 376 440 442
3 444 447 442
3 447 376 442
3 447 377 376
3 370 377 446
3 446 377 447
3 450 449 448
3 452 451 448
3 448 451 450
3 452 453 451
3 455 454 381
3 381 454 380
3 382 448 449
3 455 382 449
3 381 382 455
3 448 382 383
3 448 383 452
3 456 453 452
3 383 456 452
3 384 456 383
3 458 457 385
3 457 384 385
3 457 456 384
3 458 459 457
3 462 461 460
3 387 388 460
3 388 462 460
3 388 463 462
3 388 380 454
3 388 454 463
3 389 458 385
3 464 459 458
3 389 464 458
3 390 464 389
3 390 392 464
3 464 392 465
3 460 461 394
3 461 393 394
3 461 466 393
3 460 394 387
3 467 465 392
3 467 392 395
3 395 396 467
3 467 396 468
3 466 469 393
3 393 469 397
3 471 470 398
3 397 471 398
3 469 471 397
3 472 470 471
3 473 468 396
3 473 396 399
3 474 399 400
3 474 473 399
3 400 402 474
3 474 402 475
3 470 403 398
3 477 476 404
3 477 404 403
3 472 477 403
3 470 472 403
3 478 476 477
3 405 475 402
3 405 479 475
3 476 406 404
3 407 406 476
3 478 407 476
3 480 407 478
3 481 479 405
3 481 405 408
3 408 409 481
3 481 409 482
3 484 410 483
3 410 480 483
3 410 407 480
3 485 484 483
3 486 482 409
3 486 409 411
3 488 487 412
3 487 411 412
3 487 486 411
3 488 489 487
3 484 413 410
3 414 413 484
3 485 414 484
3 490 414 485
3 415 488 412
3 415 416 488
3 416 489 488
3 416 491 489
3 490 492 414
3 414 492 417
3 494 493 418
3 417 494 418
3 492 494 417
3 495 493 494
3 496 491 416
3 496 416 419
3 497 419 421
3 497 496 419
3 493 423 418
3 424 423 493
3 495 424 493
3 498 424 495
3 501 500 499
3 503 502 499
3 503 499 500
3 498 504 424
3 424 504 425
3 427 425 504
3 427 504 505
3 508 507 506
3 506 507 501
3 506 501 499
3 430 506 499
3 429 430 499
3 429 499 432
3 432 499 502
3 510 433 509
3 433 505 509
3 433 427 505
3 512 511 510
3 512 510 509
3 513 511 512
3 516 515 514
3 518 517 514
3 518 514 515
3 435 436 517
3 518 435 517
3 519 435 518
3 506 438 508
3 438 519 508
3 438 435 519
3 438 506 430
3 510 439 433
3 439 510 441
3 441 510 511
3 513 520 511
3 520 441 511
3 520 443 441
3 514 521 444
3 520 514 444
3 443 520 444
3 516 514 520
3 446 521 445
3 521 517 445
3 521 514 517
3 445 517 436
3 521 447 444
3 447 521 446
3 524 523 522
3 526 525 522
3 522 525 524
3 528 527 526
3 526 527 525
3 528 529 527
3 522 523 530
3 530 523 531
3 530 449 450
3 526 530 450
3 522 530 526
3 526 450 451
3 526 451 528
3 451 453 528
3 453 529 528
3 453 532 529
3 530 531 455
3 531 454 455
3 531 533 454
3 530 455 449
3 534 532 453
3 534 453 456
3 535 456 457
3 535 534 456
3 457 459 535
3 535 459 536
3 538 537 462
3 462 537 461
3 539 462 463
3 539 538 462
3 463 454 533
3 463 533 539
3 540 536 459
3 540 459 464
3 464 465 540
3 540 465 541
3 543 466 542
3 466 537 542
3 466 461 537
3 545 544 543
3 545 543 542
3 546 544 545
3 465 467 547
3 548 465 547
3 541 465 548
3 468 547 467
3 543 469 466
3 469 543 471
3 471 543 544
3 472 471 544
3 546 472 544
3 549 472 546
3 550 548 547
3 550 547 468
3 473 550 468
3 551 550 473
3 553 551 552
3 551 474 552
3 551 473 474
3 475 552 474
3 549 554 472
3 472 554 477
3 478 477 554
3 478 554 555
3 556 553 552
3 552 475 556
3 475 557 556
3 475 479 557
3 559 480 558
3 480 555 558
3 480 478 555
3 560 559 558
3 479 481 561
3 562 479 561
3 557 479 562
3 482 561 481
3 559 483 480
3 564 563 485
3 564 485 483
3 560 564 483
3 559 560 483
3 565 563 564
3 562 561 566
3 562 566 567
3 486 568 482
3 568 561 482
3 568 566 561
3 487 569 486
3 486 569 568
3 489 569 487
3 570 490 563
3 563 490 485
3 563 565 571
3 563 571 570
3 572 567 566
3 574 573 572
3 566 574 572
3 568 574 566
3 575 568 569
3 574 568 575
3 491 575 489
3 489 575 569
3 570 492 490
3 571 576 570
3 576 492 570
3 576 494 492
3 495 494 576
3 495 576 577
3 580 579 578
3 578 579 573
3 574 578 573
3 581 578 574
3 582 574 575
3 581 574 582
3 496 583 491
3 583 575 491
3 583 582 575
3 497 584 496
3 496 584 583
3 586 498 585
3 498 577 585
3 498 495 577
3 587 586 585
3 580 578 588
3 580 588 589
3 590 578 581
3 588 578 590
3 591 581 582
3 590 581 591
3 501 591 500
3 591 583 500
3 591 582 583
3 500 583 503
3 503 583 584
3 586 504 498
3 593 592 505
3 593 505 504
3 587 593 504
3 586 587 504
3 595 594 592
3 595 592 593
3 597 596 594
3 597 594 595
3 599 598 596
3 599 596 597
3 598 599 589
3 588 598 589
3 600 598 588
3 601 588 590
3 600 588 601
3 508 601 507
3 601 591 507
3 601 590 591
3 507 591 501
3 592 509 505
3 509 592 512
3 512 592 594
3 512 594 513
3 594 602 513
3 594 596 602
3 516 602 515
3 602 598 515
3 602 596 598
3 515 598 518
3 518 598 600
3 518 600 519
3 519 600 601
3 519 601 508
3 602 520 513
3 520 602 516
3 603 523 524
3 525 604 524
3 524 604 603
3 527 605 525
3 525 605 604
3 529 605 527
3 606 531 603
3 603 531 523
3 607 603 604
3 606 603 607
3 608 604 605
3 607 604 608
3 532 608 529
3 529 608 605
3 609 533 606
3 606 533 531
3 607 611 610
3 609 607 610
3 606 607 609
3 611 607 608
3 611 608 612
3 614 612 613
3 613 612 534
3 612 608 534
3 608 532 534
3 535 615 534
3 534 615 613
3 536 615 535
3 616 537 538
3 539 617 538
3 538 617 616
3 618 617 539
3 618 539 533
3 619 618 533
3 609 619 533
3 619 609 610
3 620 614 613
3 622 621 620
3 613 622 620
3 615 622 613
3 540 623 536
3 623 615 536
3 623 622 615
3 541 623 540
3 616 542 537
3 542 616 545
3 545 616 617
3 546 545 617
3 618 546 617
3 624 546 618
3 625 621 622
3 625 622 623
3 625 623 626
3 623 541 626
3 541 627 626
3 541 548 627
3 629 549 628
3 549 624 628
3 549 546 624
3 630 629 628
3 548 550 631
3 632 548 631
3 627 548 632
3 551 633 550
3 550 633 631
3 553 633 551
3 629 554 549
3 555 554 629
3 630 555 629
3 634 555 630
3 637 636 635
3 635 636 632
3 631 635 632
3 638 635 631
3 639 631 633
3 638 631 639
3 556 640 553
3 640 633 553
3 640 639 633
3 557 640 556
3 634 641 555
3 555 641 558
3 643 642 560
3 558 643 560
3 641 643 558
3 644 642 643
3 637 635 645
3 637 645 646
3 647 635 638
3 645 635 647
3 648 638 639
3 647 638 648
3 649 639 640
3 648 639 649
3 562 649 557
3 557 649 640
3 642 564 560
3 565 564 642
3 644 565 642
3 650 565 644
3 646 645 651
3 646 651 652
3 653 645 647
3 651 645 653
3 654 647 648
3 653 647 654
3 655 648 649
3 654 648 655
3 567 655 562
3 562 655 649
3 657 571 656
3 571 650 656
3 571 565 650
3 658 657 656
3 659 652 651
3 661 660 659
3 651 661 659
3 653 661 651
3 662 653 654
3 661 653 662
3 663 654 655
3 662 654 663
3 572 664 567
3 664 655 567
3 664 663 655
3 573 664 572
3 657 576 571
3 666 665 577
3 666 577 576
3 658 666 576
3 657 658 576
3 667 665 666
3 668 660 661
3 670 669 668
3 661 670 668
3 662 670 661
3 671 662 663
3 670 662 671
3 580 671 579
3 671 664 579
3 671 663 664
3 579 664 573
3 665 585 577
3 673 672 587
3 673 587 585
3 667 673 585
3 665 667 585
3 675 674 672
3 675 672 673
3 674 675 669
3 670 674 669
3 676 674 670
3 677 670 671
3 676 670 677
3 589 677 580
3 580 677 671
3 672 593 587
3 593 672 595
3 595 672 674
3 595 674 597
3 597 674 676
3 597 676 599
3 599 676 677
3 599 677 589