OFF
594 1120 0
1.8515416774 10.8193617839 15.1038602857
1.9970952377 10.8840100161 14.9252752209
1.9278379939 10.6561401812 15.0952373149
1.9531619969 10.7512233215 15.2795970712
1.9455072999 11.0473028077 15.2202895371
2.3021002330 10.2652388860 15.1775054306
2.6419637594 9.9089038683 14.2331256371
2.8692372146 9.3449527889 14.8325526599
2.9092721577 9.1762200369 15.8840640506
2.5465631829 10.0460286339 16.4530702170
2.9784029383 9.1809956862 17.1063187384
2.7896210519 10.0191112698 17.5099095103
3.0850373213 9.3907377409 17.9739768028
2.7375270035 11.6473872297 8.6368957722
2.9311731651 11.6058982671 7.5926625143
3.2897808728 10.9179025052 7.8592461186
3.2888296309 10.4881679551 9.0973845196
2.6613494373 11.3770098048 10.0508702720
3.0793181349 10.3653676158 10.5703289543
2.5694080250 11.2423933535 11.4239683844
2.9475057327 10.2135578003 11.9373027370
2.4735482013 11.0912082057 12.7623622275
2.7930889311 10.0539150024 13.2351132588
2.3149398330 10.8432825123 14.1161946034
2.2386184685 11.0591675365 15.8706040598
2.5745609125 10.7712033835 16.9734569872
3.1104296906 9.9669394309 18.2619170228
3.0344423042 10.8410077032 17.8877381116
3.5962439912 10.2422060903 18.7493074199
2.6804874030 12.4510847514 7.7079165335
3.0360519966 12.5900638921 6.6687990631
2.9344007602 11.9562098927 7.1503128636
2.4569892739 12.7023672411 8.7174810571
2.4087400569 12.4832044631 9.7292801574
2.3658992027 12.3425134222 11.0230578804
2.3278966145 12.2163434243 12.3517746001
2.2694341025 12.0141158340 13.6506160311
2.1909845148 11.7335006352 14.9683242398
2.3847296933 11.9588596458 15.8598261616
2.7986907538 11.8910170466 16.8078245500
3.3809542824 11.6929386832 17.7936238159
3.7863679577 11.1022485802 18.4640065589
2.7127693540 13.4798935283 7.2917289208
2.9691577146 13.6338411584 6.5474040829
2.5126255911 13.5671413328 8.2846598111
2.4046050945 13.5933790457 9.4328553993
2.3642231952 13.4767209030 10.6819361475
2.3695094995 13.3620413269 11.9954236356
2.3874519821 13.1788882598 13.3037137610
2.3831028030 12.8447375583 14.4040227927
2.7174188944 12.9834396314 15.5936401116
3.2814591552 12.9850453486 16.5694633525
3.6624988843 12.4829849924 17.3169762457
2.8420259057 14.2437815363 6.9934606570
2.7008086436 14.4631990472 7.7715131330
3.0169452115 15.0690397600 7.1203116385
2.6681870523 14.8031595046 8.9608806270
2.5714150991 14.5993926432 10.3069901449
2.5967981279 14.4711066948 11.5947894083
2.6980069260 14.3160595395 12.9323473153
2.8033372530 13.9823646911 14.3453785294
3.1807296596 14.0932098739 15.3089275099
3.5006099935 13.7860382233 16.0333952690
2.9617652586 15.4789460088 8.0186264613
3.2994058524 15.8678812646 7.3173460195
3.1920242669 16.1135187039 8.9206745093
2.9388254659 15.6485786704 9.9795082887
2.9672378756 15.4882513796 11.1196108078
3.1354171247 15.3649126048 12.3756620870
3.4471393828 15.1503138821 13.7506423156
3.4687535499 14.6993220309 14.7823930399
3.3650181853 16.2487103032 7.9575426218
3.9341813805 7.4586090122 17.9704849543
4.2607478109 6.9739224967 17.0501630267
4.3308451170 6.7303566065 17.7830698660
4.4029275423 6.6717900293 18.4413728189
4.1247993276 7.2967474113 18.8400695130
4.4494071134 6.8217090613 19.1802839340
3.8940890770 8.3904014205 13.5968979818
4.1490593813 8.4203075491 12.6127049771
4.6768300206 7.7902053757 13.0308058401
4.5543254520 7.4483110361 14.4003736099
3.5577563491 8.3922172320 15.0164473393
4.2467535943 7.3162392813 15.8172555700
3.5604500036 8.1092160370 16.6901536950
3.4271446766 8.5744156705 17.9386449251
3.8830475349 8.1722006007 18.9239238013
4.2999822105 7.5125863835 19.4761992298
3.7897217868 9.6414749853 9.8524138913
3.9814030418 9.7490671891 8.8361204939
4.5852464372 9.1642873701 9.0803459341
4.4932368503 8.8268955281 10.3635919308
3.6163129188 9.4660860276 11.1628884025
4.1958523007 8.6824505131 11.6766012478
3.4947397273 9.1876262141 12.5868915327
3.1693660660 9.1866100254 13.9061067298
3.5518714892 9.2709971232 18.7530436609
4.2719167847 8.2292307421 19.6506518726
4.0684432060 8.8328495469 19.4317767300
4.7081418587 8.7200390246 19.9294117388
3.3458061479 11.4605562227 6.8766470043
4.0895887630 10.9668911617 6.1997356976
3.8450479967 10.6222940990 7.1433893661
3.9134082894 10.1487758018 7.9891000522
4.2652037506 9.5669258159 19.4385273359
4.3930008209 10.4535925900 19.0895998304
3.9504512375 12.5505429339 4.7832152381
4.3643501234 12.7877282474 3.8300148718
4.4771990602 11.9374466509 4.2344821380
4.2963348603 11.4852871663 5.1050437441
3.6368025855 12.0360369778 5.8341171554
4.7113597356 11.1852509745 18.6575867751
4.1851806411 11.8789847897 18.0474178572
3.9089007682 13.7813616861 4.3865879118
4.3674747116 13.6005423850 3.5016468852
3.4030157656 13.3869143087 5.6497107762
4.6930115325 12.6480601805 17.4988945549
4.2044466861 13.4256616820 16.7480410925
4.3563056941 14.5037019340 3.6029043584
5.1251481729 14.4932509334 2.8995558063
4.7762256522 13.8458443583 3.0251273851
3.9357007327 14.8476562874 4.4424683753
3.5857449366 14.6568280685 5.3233328212
3.1672111974 14.4650740261 6.3053499369
4.2392149072 14.1848442514 16.1092245382
3.8538670568 14.5396305081 15.4984137057
4.8203413636 15.1729720845 3.4265498838
4.3498165167 15.4149719376 4.1151084202
5.0991069705 15.8317585410 3.9232377449
3.9913193747 15.5883128734 5.0559976481
3.5678126762 15.6000404045 6.2808229490
3.3608170482 16.4455545097 9.8610913401
3.3129173127 16.2395095923 10.6340269166
3.7139774234 16.3793359007 11.6864010691
3.8947306535 16.0437604440 12.9529941570
4.2395572854 15.8375053891 13.7967881778
4.4597775155 15.2679838817 14.7320259841
4.5943114061 16.0678782472 4.6810119214
4.4612718772 16.4750056163 5.7448309049
3.9214213043 16.6002356233 7.1630942234
3.7608665357 16.8431429334 8.3298777561
3.7480735012 16.9601634262 9.2722844294
4.0861659949 17.2912009229 8.7142785880
3.9105240355 17.0121154236 10.4311592185
4.6091972581 17.2825433905 11.5563209556
4.6264415729 16.8080485424 12.5361665932
4.6138402436 16.3444181678 13.3374026671
4.4512395506 17.6199951618 9.2843573943
4.5368486776 17.6186814838 10.5482010418
4.9612351336 6.0778573273 17.6171884132
5.3745902372 5.8758700385 16.6173288515
5.9284372022 5.3536839326 17.0325401075
5.9475381566 5.0481419820 18.3298265618
5.0048936707 6.0006090361 19.0606430893
5.7550567067 5.0397284661 19.5541678671
5.2226675517 5.9301756054 19.9981678006
5.7409748219 5.0472817025 20.1720747337
5.3135622676 5.9530374692 20.3177750128
4.9553084739 6.6890358835 15.3557694585
5.3992006431 6.6009127711 14.5423945038
5.4480811435 6.2991376674 15.1875855923
5.4114936221 6.1061006189 15.7991286273
4.8340752463 6.4663694977 16.3859486942
4.7496716547 6.8152399090 19.7780233357
5.1823780812 7.0329834289 20.3138081490
4.9732319199 8.1558761031 11.1592604344
5.2471428680 8.2458509543 10.2216117387
5.7800877864 7.7284295070 10.5646551588
5.5987118347 7.3828402625 11.9825428281
4.6842813809 8.0843649488 12.1059717027
5.3924571548 7.0266516319 13.4317925918
4.7166425329 7.7466810786 20.0287078203
5.4209332164 8.0934150388 20.3419875275
5.9956542440 7.7901605309 20.5807205975
4.7650191415 9.9412286456 6.8817922672
5.4839042979 9.8827111683 5.8019193511
5.9974584335 9.3068085707 6.3682019231
5.6167993814 8.8694347927 7.9156419202
4.5418819807 9.5344193199 8.1443227326
5.2890375790 8.5254976240 9.3434247346
5.0764352093 9.8163556623 19.5635824667
4.8915821262 9.3126609819 19.8374895957
5.6634261321 8.9994787177 19.9944997374
5.5135648645 11.1593398134 3.5180288194
5.7421328762 11.5096129778 3.0311410378
6.2143186670 10.9110698008 3.2526309218
5.8331170341 10.6499204923 3.8997021224
5.0598571733 11.0863180107 4.3128695258
5.7986860669 10.1948721410 4.7878199786
4.8740619590 10.5518020679 5.5034420140
5.2917683917 10.5185962220 19.1158901076
5.0412591163 11.9309121877 3.4509892095
5.7023461477 12.3006437083 2.7217165192
5.5604244351 11.0460758056 18.6922226522
5.3682369335 11.8052557732 18.1233694724
4.9008710996 12.9893999351 3.0811504273
5.6152147101 13.4730058084 2.5078844792
5.8016908435 12.6308728234 17.4435702072
5.2560300006 13.2991335512 16.9862031911
6.0325510819 14.3667481146 2.3674779421
4.6579491380 14.6836348370 15.6664996918
5.2308018268 14.1021748463 16.2917122203
5.7695812145 15.2418474556 3.0731601985
6.1346036141 16.0073392149 3.8915354699
5.6293137727 15.6468864991 14.5403693131
5.0559317669 16.0542443607 13.9652989404
5.6841823332 14.9546377607 15.3822468376
5.5505756075 16.5887153595 4.9182002865
5.2304456436 17.0719604764 5.8029816732
5.8695752123 17.1918369315 5.6983422895
4.8268272882 17.2014335705 6.6614319793
4.5104174953 17.3974478842 7.9237327175
5.0195592589 17.2759078975 12.2049452169
5.3649682863 17.1546465485 12.5723145584
5.4446639798 16.6814599494 13.2202716771
5.6754830029 17.4726428535 6.3974440697
5.3667345826 17.6483646291 7.2315719662
5.3333417870 17.9240688414 8.1338256334
4.9787057865 18.0198897770 8.9891912463
5.4573966695 18.1378166680 8.3590498679
4.7505187857 17.8766848368 10.0546625628
5.1521421303 17.7103080288 11.2291394056
5.5809812003 17.4873380995 12.0557291365
6.6088852789 4.2891244157 19.1318612860
6.8398812527 4.3384865002 18.2609416842
7.5060257072 3.8216596798 18.5950196829
7.5855229878 3.5114910756 19.5974723094
6.4460457516 4.2832679110 19.9493647517
7.1155836628 3.8085846736 20.1267187412
6.3525691846 4.3254452899 20.2543914675
6.0966646690 5.8703519645 15.0591998007
6.6922803576 5.7945788663 14.1075412317
7.2962925944 5.2650261491 14.7941764510
6.6691732320 5.1834252859 16.0556912866
5.8782247766 5.6309381997 16.1337357584
6.9276259326 4.6489237947 17.2446205101
6.1962769689 6.6089297531 12.8192721718
6.6736263029 6.5922754119 11.9611553753
6.7713219442 6.2777627166 12.5981202065
6.7458148742 6.0633176927 13.2340092667
6.0740766868 6.3176489650 13.8508629505
6.1182538944 8.1013335186 8.8400452258
6.7806326430 8.0351158811 8.0196242104
6.7394561584 7.7219758781 8.7242066825
6.5650751421 7.5230809334 9.5800241504
5.7907272399 8.0177347792 9.6880491411
6.5792814537 7.0624673602 10.8493815820
7.0181660085 7.8417783327 20.6682045249
6.4763264280 8.2364485293 20.4210463811
6.1633137994 9.6169739997 5.4368757650
6.6223221087 9.7057852512 4.7838759604
7.0857590462 9.1845672329 5.4304027416
7.0526938979 8.5381214124 6.7659723186
7.0822054936 8.8558772837 19.7859691542
6.1178408047 9.8579514225 19.3711659196
6.5225955753 11.5422638796 2.6641628441
7.1052272343 10.8328036725 2.9798469342
6.8537508603 10.1855494704 3.8549152329
5.9969819546 10.5617589278 18.9400484034
6.4712386491 10.3238551311 18.9270568326
6.4867542033 10.9850623607 18.4066215361
6.7088710349 12.5455506778 2.1741874653
6.3286940902 11.9231004451 17.8124695259
6.5347964394 13.6190794077 1.9844256977
6.7452274347 12.4102165129 17.3104490286
6.4792648762 13.3841218562 16.6877364645
6.7094228823 14.2193916940 1.9695004463
7.2484693137 14.2094726038 1.9046407437
7.1045483882 13.7916610251 1.7643274367
6.2459354780 14.3236363859 16.0271222265
7.1005199512 14.1275225403 15.9651064521
6.7211344059 14.7529707360 15.4797046224
6.8799114964 14.7774873756 2.4338372188
6.9354506587 15.5157062161 3.3246015664
7.0713502853 16.0140663040 4.0288993794
6.9081056847 15.4838831589 14.4636626687
6.0534202526 16.2179364789 13.8401849751
6.7942211255 16.4397161227 4.6725654140
6.3428216139 17.4409759948 6.2035787571
6.7232262270 17.0082207110 5.6325321044
6.9517297925 17.4122169925 6.4455082334
6.1953859729 16.6770094176 13.2933105358
6.1835158006 17.1066750430 12.7054520638
6.5518652253 17.7670808580 7.2441348994
6.0838992667 18.0835407338 7.9162437316
6.9850864109 18.0340865748 7.9971493975
6.3598608191 17.4715242411 12.1925572545
6.3814974613 17.6273490526 11.7708601405
8.3107556240 2.9867191569 19.8582937867
8.4152129347 2.8211970285 19.4399639272
8.7330564536 2.6544986360 19.6839648638
8.7299248099 2.9228649743 19.9635193409
7.4736365739 4.1184809838 17.8012795321
7.8607101178 4.2147387371 17.1005491281
8.3874445471 3.7627702269 17.7597346584
8.4285900746 3.1596508317 18.8179224665
8.3829433830 3.3029739727 20.0759105373
7.5062839212 5.8944971510 12.5225385561
8.1732249281 5.8732766414 11.5615937467
8.7829576784 5.4469401782 12.4254262174
8.2322090350 5.2024121688 13.8444001174
7.2882071049 5.6047507877 13.6758839103
8.1505379049 4.8887509235 14.9008857711
7.9606675139 4.6136803729 15.9908256045
7.5446363168 7.3123384384 8.6980763180
8.3013186012 7.3113724003 7.9909993050
8.6321080872 6.9008350513 8.7522009554
8.2882989570 6.6736789852 9.5269657088
7.4610984057 6.8252169902 10.0162652150
8.3932042250 6.1937370006 10.5710008622
7.4545062742 6.3775239213 11.1998386797
7.7419230094 7.7952036252 7.4999296365
8.1481967949 8.1156338197 6.6441636455
8.8016057388 7.6197422513 7.2635519743
7.8857289578 7.5146976889 20.6990327848
7.7668204296 7.8608965813 20.4104209909
7.3593330282 9.5573683126 4.4726972433
7.9326266912 9.7369042671 3.8769988435
8.3719487045 9.1813902806 4.5805996022
8.1890222293 8.6012359388 5.7545679645
7.2003198133 9.8857221601 18.8790268570
8.1668797589 8.9347797873 19.1082303288
8.3088065314 9.7059949293 18.3236779575
8.1790385617 8.2474977058 19.8077425366
7.8439100879 11.5252898240 2.3716336561
8.1663746229 10.3448897116 3.1310481015
7.6592813519 10.6080039250 18.0627628438
8.5536880220 10.3548265003 17.6713453873
8.0812683103 11.1646314950 17.4301962973
7.6097575007 12.4112162368 1.8918388544
7.9283804769 12.8096949267 1.7413432229
8.2387103359 12.2518984388 1.9281404795
7.2093990659 11.5895079335 17.6510814688
7.8350697703 12.3190952242 16.8168815920
7.2863706438 13.1232543365 1.7786819186
7.8960587144 13.5615088654 1.8039856696
7.5580044179 13.4409129336 16.2730353142
7.8461369117 14.3650757401 2.2083733029
8.6385257964 13.8253880830 2.2061926339
8.5743985987 14.4240854697 2.6157767879
7.8778084075 13.9309592205 15.7443460301
7.6115680341 14.5978117443 15.2272041741
8.0086686753 14.9927364921 3.0175076054
7.6187752196 16.1770836012 4.5830123808
8.0539989905 15.6637607734 4.0919534159
8.3706618177 16.0350291079 4.9700654339
6.9574457698 16.5089254543 13.2283283172
8.1202478669 15.8912175925 13.2507317528
7.7664903991 16.6620593620 12.5896078879
8.3100169110 14.9528210741 14.2944734581
7.8567075804 16.5179770452 5.4607954303
7.2986249994 17.4842937111 6.8918121794
7.7864660957 17.0711550283 6.5476566530
7.7932760937 17.4575022430 7.4933661938
7.1783004682 17.2269121414 12.1665822844
7.8965679710 16.9612888247 12.0933284921
8.0233565969 17.2133092618 11.4748544048
7.6530683785 17.9936566993 8.7913560756
7.6065719699 17.8312564443 8.1887619823
7.8792837846 17.8550016214 9.8722521076
8.0934995298 17.7499716621 9.2420938429
7.5494432887 17.6111218983 11.1359198481
8.1775478564 17.5384649293 10.3974614518
8.8807736053 2.4327004737 19.3155514354
9.0501435840 2.3706141843 19.0812539389
9.1148167489 2.2987807035 19.1935394989
9.1493640362 2.4915194289 19.3759563733
8.7759526434 2.6058115888 19.0939476913
9.0769788905 2.6830857582 18.8746657343
9.4129748086 2.8428427417 19.4671350826
9.0712472452 2.7511630533 19.7507395784
8.5769861304 4.1134553777 16.7690876785
9.0501595185 4.2667801189 16.1289814522
9.4926018352 3.8858646847 17.0395552011
9.3450055930 3.2890932664 18.3239398789
9.3239877955 3.2070606931 19.8762809163
9.4892531807 3.6697996157 20.1938488088
8.7856526100 5.7205345862 11.3500522841
9.1736545752 5.8713405415 10.8382387917
9.4341768337 5.5573523190 11.6370235643
9.8456972198 5.2933068696 12.6273220030
9.4898308192 5.0046349584 13.7351192145
9.0569207625 4.6520072092 15.0556728595
9.5207358265 5.9470215772 20.7716802442
9.9141284895 5.2496910267 20.6606481455
9.7594414259 5.8962150118 20.6042436248
8.9282341940 7.1545022156 8.0714229804
9.3641269772 6.9020915381 8.6854066558
9.4474923609 6.4009005157 9.8973855543
8.8995772544 6.8694946657 20.6049394552
9.6292351330 6.6369520602 20.2808194135
9.0715948100 8.1184322503 6.2177863976
9.9040808715 7.7908823197 6.8909432691
9.6319106583 7.3164824260 7.9420006402
9.0153280513 8.1089342685 19.3063665831
9.8738440690 7.9306583767 18.6527520956
9.1742312768 8.9085853516 18.3554749898
8.8775002577 7.4875409334 20.0863988947
9.7966017413 7.2023942011 19.5781717656
8.8821665054 9.6526596883 3.6180055151
9.6134558614 9.1936791557 4.0963912490
9.4522888511 8.5932725099 5.1695993527
8.9955579018 9.7082062597 17.8292649277
9.1456990253 10.8127677242 2.6745201847
9.2452718240 10.0824888441 3.0750419556
9.1029454883 10.1280341613 17.4463151038
9.0324892839 10.9417157557 16.9396643090
8.5576296187 12.8086885624 1.8963370796
9.1209619874 11.9251887847 2.2839301055
9.0168819456 12.1888742133 16.1396920787
9.7060200708 11.3479498508 16.1471200971
9.8152881535 12.1205248795 15.5227619864
8.6314253638 13.3300657386 1.9497255085
9.3829322670 13.0445374542 2.3615576548
9.2216699628 13.0504870898 15.3894935345
9.9396549220 12.8907872080 14.8221198846
9.4589941584 13.6259039844 14.7031548995
8.3766168621 13.2019228886 15.9368995617
8.9320990663 14.6612049958 3.1699096128
9.4904857014 13.9570819609 2.9497898149
9.5596716169 14.5643727195 3.6762832356
8.6160276227 14.0121763039 15.0950799955
9.2797805321 14.3408368040 14.1473841643
8.9957814944 15.0807171880 3.9088760952
8.8203309438 16.1364525488 5.6620823573
9.4303366405 15.5106253759 5.2298831583
9.4591306101 15.9940360553 6.2641626293
8.4464921991 16.5428997343 12.0746070552
9.0312616761 15.7712828091 12.5165780375
9.3001247555 16.1142750587 11.5301769814
9.1301416086 15.1149387101 13.3340265818
8.7955927168 16.4824150200 6.4660921739
8.4276836657 17.3812896316 8.5644195838
8.8642667571 16.8277406667 7.6879454166
8.7061390223 17.2228029433 9.7599221276
9.2719131220 16.7452672521 9.0900661005
8.7033172402 16.9237593282 10.9365876801
9.3872396927 16.5006359864 10.3395077914
9.2138251793 2.4091181414 19.0832288069
9.4091700763 2.7655642747 19.0267964079
9.8994636736 4.2473248225 15.9833639684
10.3561554269 4.0113077568 16.7479444370
10.3345379684 3.7670788402 17.8080018650
9.8895214346 3.3608568747 19.0765024931
10.1455255053 4.0086114781 19.8616019904
10.0053369404 4.4148255568 20.3927075520
10.2882961509 5.0537222309 20.2743639350
9.7656367117 5.8264368877 11.0115216347
10.1700668787 5.5753953301 11.8400088686
10.4881478931 5.3698302871 12.6463120309
10.4679527029 5.0800321816 13.5825936787
10.2734561922 4.6085236426 14.9861499571
10.2277140912 5.9410282464 20.2184471409
10.1581564381 7.0658503698 9.0002403615
10.5937323375 6.7262956590 10.0588428633
10.4305303296 6.0218602485 11.0417572392
10.7284266457 5.6198833781 12.1520840561
10.1538081619 6.5154055604 19.9628017763
10.5338334434 6.1792587145 19.8046114682
10.4100570554 6.6535548022 19.5277539696
9.9033343963 8.1495673904 5.9194115322
10.2969093345 8.3518323462 5.3985704445
10.5538896073 8.0842522706 6.2024144211
10.5673417858 7.8821163237 7.0457393472
10.5691287471 7.7343516785 8.0277280084
10.0161448751 8.5840560128 17.8665197302
10.5976407609 7.8334777491 17.9082000993
10.5361653006 8.8399013793 17.1250307122
10.4957244357 7.0977315732 18.8400952463
9.7144627599 9.6819095115 3.3963110774
9.9949297405 10.2228780058 3.0144686854
10.4314250126 9.5646221647 3.6163318736
10.4218442221 8.7796253817 4.6137696622
9.7039610776 9.6231127349 17.3365856969
10.4133987596 9.6967790666 16.6511716508
10.1114110350 11.1377101229 2.7403832327
10.0275503941 10.4496551845 16.4860993806
10.5343683874 10.1585293432 16.2138840925
10.4917390849 10.9868481305 15.5833795528
10.1664225717 12.1724949430 2.6917790298
10.3745341392 12.0855152520 14.9249651719
10.1884259424 12.9116898375 2.8108310428
9.9109834220 13.3452233522 2.7899253021
10.3407431840 13.3724136045 3.2401793053
10.4932076838 12.6262192542 14.2664206809
10.0981064187 13.5710857089 13.9308253409
9.8871023234 14.8318505223 4.5058443880
10.3110994489 14.0912586527 3.9833157269
10.1486863165 15.0146023814 5.1722096243
10.5265121730 14.6180557349 5.0287658934
10.4431406688 15.0961417417 5.8119697923
9.9377212087 15.0558860496 12.2656598029
10.6080217507 14.3448263114 12.0579832461
10.6560373010 14.7394794203 11.3720381718
9.8350421373 14.4568752184 13.3298320172
10.4729087325 13.9791974586 12.7798771135
9.6824767943 16.1639332719 7.2456754747
10.2456659838 15.5815464262 6.7070945159
9.8954664259 16.2057327754 8.4483987982
10.3671892157 15.7798508275 7.8537988530
10.0575566424 16.0188775635 9.7115919879
10.6849944928 15.5478632438 9.0397623423
10.0549936597 15.6512046550 10.9444231880
10.6982730137 15.2565060198 10.3222375555
10.5875207997 4.2401435884 16.1011502583
10.8396578702 4.0623642517 16.8673167264
10.8857375102 3.9755219003 17.6468971690
10.6691217876 4.0688269645 18.9024606545
10.8112545707 4.7956774051 19.5673864366
11.1525273317 4.8988330334 19.1314390803
10.8258750443 5.3674048575 12.9390524103
10.8913774977 5.2068686935 13.4665616686
10.7645669568 4.8122380875 14.5202530965
10.8626592725 4.3629233126 15.8975790993
11.0413584496 4.1239704992 16.8499172230
11.4274240285 6.0606978852 18.3757167429
11.1897569918 5.6257277420 19.0245366057
11.3879312525 5.4431335975 18.8571014956
10.7342728924 5.5935558427 19.7570647670
11.0845144614 7.7659516849 9.6213439059
11.0887984922 7.1251773219 10.1932270885
10.8578473346 6.3918850883 10.7361353658
10.8671600959 5.8827599845 11.6610407456
10.9620275966 5.5323293570 12.6089436900
11.4749298901 7.1701342789 17.2268723510
11.5854908320 7.0857043268 17.0969584936
11.4812148347 7.6617441306 16.7957591280
11.1727227953 6.7913857871 18.1120776484
11.5123385192 6.6948313503 17.6180514400
10.8341245719 6.2927493352 19.2067850001
10.7276417202 8.3598770831 5.3622072470
10.9007867632 8.2484785829 5.8994493724
10.9694852761 8.2118092688 7.2959556518
11.2879187517 8.6676332173 8.7583665284
11.4335442481 9.1416260844 8.2518010073
11.4499204272 8.8473656154 9.9424940804
11.4163561948 7.9394713152 10.3972680212
11.5481998789 8.7323069161 10.7924230741
11.6163333836 8.5038234286 10.9509920549
11.1601538400 8.0172794209 17.0133052623
11.3232002696 8.6867000565 16.2648296179
10.7138606244 10.4721327910 3.1389201747
10.9151987614 9.9321047349 3.4720265587
10.8005652237 9.1507161488 4.1047121424
10.8545949904 8.5820348162 4.9469132272
11.5784199020 9.8300783829 8.8646664539
11.6599436783 10.1551485906 8.4982877507
11.5370475774 9.7300440253 9.7742317935
11.5668526990 9.7336416969 10.9067282935
11.6786475557 9.0942139053 11.5664127859
11.6260253504 9.7755463548 12.0522915226
11.6960116450 9.6087499250 12.2808452266
10.9492149316 9.5470179469 16.1186662790
11.3209772249 9.7172290053 15.3606773511
10.8994811050 11.5738201184 3.1271020346
11.1107312797 10.8581711062 3.2660333253
11.7092514486 10.7809043781 8.8414609018
11.7625978271 10.9649120883 8.5541747538
11.6237909770 10.7759099072 9.6503000952
11.5451650944 10.8141216367 10.8091604516
11.5040721509 10.7521172715 12.0532872078
11.6174396880 10.0579788847 13.0448178159
11.4316095149 10.6539863125 13.4032720117
11.1755548786 10.4680979414 14.8484723330
11.4661309922 10.2280191953 14.2073615525
10.7337740846 12.5960640210 3.2002426766
11.3063110722 11.7458393798 3.4530044414
11.2206467361 12.3881700566 3.5914199256
11.4030451391 12.3454209362 3.7422698558
11.7715060516 11.3403003957 8.7824237402
11.7930587184 11.4119777596 8.6689600271
11.7031046015 11.4995606325 9.3984459067
11.5362185244 11.9647191085 10.5810771859
11.3537092365 11.9183432245 11.9150473823
11.2727447044 11.5723087664 13.0100686733
10.9326906955 11.6242944759 14.2258108062
10.9096935694 13.2278665898 3.8031412092
11.2451429583 12.9679149806 3.9986995849
11.7610063825 11.6755693959 9.0885443272
11.6597971149 12.0813805798 9.9216692818
11.4812377406 12.8908238895 10.7848350981
11.3610067430 13.8658942976 10.9385891818
11.1198328260 13.4699504433 11.6400129711
10.8784856812 12.7266307361 13.1668645450
10.8955967099 13.9325545485 4.5900522294
10.8116732488 15.1565269019 6.6330514352
10.8687757352 14.7574186059 5.8385460705
10.9874484089 15.0722757685 6.7976505272
11.1580156021 14.9783512549 9.9405054549
11.3280837485 14.8842820542 9.8410742994
11.1193401154 15.1820666972 9.1526995495
11.1430819132 14.4875603481 10.7986043837
11.3532646057 14.5470728387 10.4001268963
10.8302055451 15.3741279363 7.7323143689
3 2 1 0
3 0 3 2
3 1 4 0
3 0 4 3
3 7 6 5
3 9 8 5
3 5 8 7
3 11 10 9
3 9 10 8
3 11 12 10
3 15 14 13
3 17 16 13
3 13 16 15
3 19 18 17
3 17 18 16
3 21 20 19
3 19 20 18
3 23 22 21
3 21 22 20
3 22 23 6
3 6 23 5
3 23 1 5
3 1 2 5
3 5 2 3
3 24 5 3
3 9 5 24
3 9 25 11
3 9 24 25
3 12 11 26
3 11 27 26
3 11 25 27
3 27 28 26
3 31 30 29
3 31 29 14
3 29 13 14
3 29 32 13
3 13 33 17
3 13 32 33
3 17 34 19
3 17 33 34
3 19 35 21
3 19 34 35
3 21 36 23
3 21 35 36
3 37 4 1
3 23 37 1
3 36 37 23
3 24 3 4
3 37 24 4
3 38 24 37
3 24 39 25
3 24 38 39
3 41 27 40
3 27 39 40
3 27 25 39
3 27 41 28
3 29 30 42
3 42 30 43
3 29 44 32
3 29 42 44
3 32 45 33
3 32 44 45
3 33 46 34
3 33 45 46
3 34 47 35
3 34 46 47
3 35 48 36
3 35 47 48
3 36 49 37
3 36 48 49
3 37 50 38
3 37 49 50
3 52 39 51
3 39 50 51
3 39 38 50
3 39 52 40
3 43 53 42
3 55 54 53
3 54 42 53
3 54 44 42
3 44 56 45
3 44 54 56
3 45 57 46
3 45 56 57
3 46 58 47
3 46 57 58
3 47 59 48
3 47 58 59
3 48 60 49
3 48 59 60
3 62 50 61
3 50 60 61
3 50 49 60
3 50 62 51
3 54 55 63
3 63 55 64
3 66 56 65
3 56 63 65
3 56 54 63
3 56 66 57
3 57 66 67
3 57 67 58
3 58 67 68
3 58 68 59
3 59 68 69
3 59 69 60
3 60 69 70
3 60 70 61
3 64 71 63
3 63 71 65
3 74 73 72
3 76 75 72
3 72 75 74
3 76 77 75
3 80 79 78
3 82 81 78
3 78 81 80
3 84 83 82
3 82 83 81
3 83 84 73
3 84 72 73
3 84 85 72
3 72 86 76
3 72 85 86
3 77 76 87
3 87 76 86
3 90 89 88
3 92 91 88
3 88 91 90
3 94 93 92
3 92 93 91
3 93 94 79
3 94 78 79
3 94 95 78
3 95 6 7
3 82 95 7
3 78 95 82
3 82 7 8
3 82 8 84
3 84 8 10
3 84 10 85
3 85 10 12
3 96 85 12
3 86 85 96
3 87 86 97
3 86 98 97
3 86 96 98
3 98 99 97
3 102 101 100
3 14 15 100
3 15 102 100
3 15 103 102
3 16 88 89
3 103 16 89
3 15 16 103
3 88 16 18
3 88 18 92
3 92 18 20
3 92 20 94
3 94 20 22
3 94 22 95
3 95 22 6
3 26 96 12
3 98 96 104
3 96 28 104
3 28 105 104
3 28 96 26
3 98 104 99
3 108 107 106
3 110 109 106
3 106 109 108
3 109 110 101
3 101 110 100
3 110 30 100
3 30 31 100
3 100 31 14
3 112 111 41
3 112 41 40
3 28 41 105
3 105 41 111
3 106 107 113
3 113 107 114
3 106 115 110
3 106 113 115
3 115 43 30
3 115 30 110
3 117 116 52
3 117 52 51
3 40 52 112
3 112 52 116
3 120 119 118
3 120 118 114
3 118 113 114
3 118 121 113
3 113 122 115
3 113 121 122
3 123 53 43
3 115 123 43
3 122 123 115
3 123 55 53
3 125 124 62
3 125 62 61
3 51 62 117
3 117 62 124
3 119 126 118
3 128 127 126
3 127 118 126
3 127 121 118
3 121 129 122
3 121 127 129
3 122 130 123
3 122 129 130
3 130 64 55
3 130 55 123
3 65 131 66
3 132 67 66
3 132 66 131
3 133 68 67
3 133 67 132
3 134 69 68
3 134 68 133
3 69 134 135
3 136 69 135
3 70 69 136
3 61 70 125
3 125 70 136
3 128 137 127
3 127 137 129
3 129 137 138
3 129 138 130
3 130 138 139
3 130 139 64
3 139 71 64
3 139 140 71
3 71 140 65
3 140 141 65
3 141 131 65
3 141 140 142
3 131 143 132
3 131 141 143
3 145 133 144
3 133 143 144
3 133 132 143
3 133 145 134
3 134 145 146
3 134 146 135
3 142 147 141
3 141 147 143
3 143 147 148
3 143 148 144
3 151 150 149
3 153 152 149
3 149 152 151
3 155 154 153
3 153 154 152
3 157 156 155
3 155 156 154
3 160 159 158
3 162 161 158
3 158 161 160
3 161 162 150
3 150 162 149
3 162 73 149
3 73 74 149
3 149 74 75
3 149 75 153
3 153 75 77
3 163 153 77
3 155 153 163
3 155 164 157
3 155 163 164
3 167 166 165
3 169 168 165
3 165 168 167
3 79 80 169
3 80 168 169
3 80 170 168
3 81 158 159
3 170 81 159
3 80 81 170
3 158 81 83
3 158 83 162
3 162 83 73
3 87 171 163
3 87 163 77
3 173 164 172
3 164 171 172
3 164 163 171
3 176 175 174
3 178 177 174
3 174 177 176
3 89 90 178
3 90 177 178
3 90 179 177
3 91 165 166
3 179 91 166
3 90 91 179
3 165 91 93
3 165 93 169
3 169 93 79
3 171 87 97
3 182 181 180
3 181 182 99
3 182 172 99
3 171 97 99
3 171 99 172
3 185 184 183
3 187 186 183
3 183 186 185
3 189 188 187
3 187 188 186
3 188 189 175
3 175 189 174
3 189 101 174
3 101 102 174
3 174 102 103
3 174 103 178
3 178 103 89
3 180 181 104
3 105 180 104
3 190 180 105
3 104 181 99
3 183 184 191
3 191 184 192
3 191 107 108
3 187 191 108
3 183 191 187
3 187 108 109
3 187 109 189
3 189 109 101
3 194 193 111
3 194 111 112
3 105 111 190
3 190 111 193
3 191 192 195
3 195 192 196
3 195 114 107
3 195 107 191
3 198 197 116
3 198 116 117
3 112 116 194
3 194 116 197
3 195 196 120
3 196 119 120
3 196 199 119
3 195 120 114
3 125 200 124
3 200 201 124
3 201 117 124
3 201 198 117
3 199 202 119
3 119 202 126
3 128 126 202
3 128 202 203
3 205 204 136
3 205 136 135
3 125 136 200
3 136 206 200
3 136 204 206
3 200 206 201
3 203 207 128
3 128 207 137
3 207 209 208
3 138 207 208
3 137 207 138
3 210 139 138
3 210 138 208
3 211 140 139
3 211 139 210
3 211 142 140
3 144 212 145
3 145 212 213
3 214 145 213
3 146 145 214
3 135 146 205
3 205 146 214
3 209 215 208
3 208 215 210
3 210 215 216
3 210 216 211
3 211 216 217
3 217 219 218
3 217 218 147
3 211 217 147
3 142 211 147
3 220 148 147
3 220 147 218
3 220 221 148
3 148 221 144
3 221 222 144
3 222 212 144
3 212 222 213
3 225 224 223
3 227 226 223
3 223 226 225
3 229 228 227
3 227 228 226
3 232 231 230
3 234 233 230
3 230 233 232
3 150 151 234
3 151 233 234
3 151 235 233
3 152 223 224
3 235 152 224
3 151 152 235
3 223 152 154
3 223 154 227
3 227 154 156
3 227 156 229
3 238 237 236
3 240 239 236
3 236 239 238
3 239 240 231
3 231 240 230
3 240 159 230
3 159 160 230
3 230 160 161
3 230 161 234
3 234 161 150
3 243 242 241
3 245 244 241
3 241 244 243
3 166 167 245
3 167 244 245
3 167 246 244
3 168 236 237
3 246 168 237
3 167 168 246
3 236 168 170
3 236 170 240
3 240 170 159
3 248 247 173
3 248 173 172
3 251 250 249
3 175 176 249
3 176 251 249
3 176 252 251
3 177 241 242
3 252 177 242
3 176 177 252
3 241 177 179
3 241 179 245
3 245 179 166
3 254 253 182
3 254 182 180
3 172 182 248
3 248 182 253
3 256 255 185
3 185 255 184
3 257 185 186
3 257 256 185
3 188 249 250
3 257 188 250
3 186 188 257
3 249 188 175
3 260 259 258
3 259 254 258
3 254 190 258
3 254 180 190
3 255 192 184
3 261 192 255
3 260 258 193
3 194 260 193
3 262 260 194
3 193 258 190
3 261 196 192
3 263 196 261
3 265 264 197
3 265 197 198
3 194 197 262
3 262 197 264
3 268 267 266
3 263 268 266
3 199 263 266
3 196 263 199
3 271 270 269
3 270 265 269
3 265 201 269
3 265 198 201
3 267 272 266
3 266 272 199
3 272 202 199
3 272 273 202
3 203 202 273
3 203 273 274
3 276 275 204
3 276 204 205
3 269 206 271
3 206 275 271
3 206 204 275
3 206 269 201
3 274 277 203
3 203 277 207
3 279 278 209
3 207 279 209
3 277 279 207
3 280 278 279
3 282 281 214
3 282 214 213
3 205 214 276
3 276 214 281
3 278 215 209
3 280 283 278
3 283 215 278
3 283 216 215
3 283 285 284
3 217 283 284
3 216 283 217
3 284 219 217
3 287 286 222
3 287 222 221
3 213 222 282
3 282 222 286
3 290 289 288
3 288 291 290
3 294 293 292
3 224 225 292
3 225 294 292
3 225 295 294
3 226 288 289
3 295 226 289
3 225 226 295
3 296 291 288
3 226 296 288
3 228 296 226
3 299 298 297
3 301 300 297
3 297 300 299
3 231 232 301
3 232 300 301
3 232 302 300
3 303 232 233
3 303 302 232
3 235 292 293
3 303 235 293
3 233 235 303
3 292 235 224
3 306 305 304
3 308 307 304
3 304 307 306
3 310 309 308
3 308 309 307
3 309 310 298
3 298 310 297
3 310 237 297
3 237 238 297
3 297 238 239
3 297 239 301
3 301 239 231
3 313 312 311
3 313 311 305
3 305 311 304
3 311 242 304
3 242 243 304
3 304 243 244
3 304 244 308
3 308 244 246
3 308 246 310
3 310 246 237
3 315 314 247
3 315 247 248
3 318 317 316
3 250 251 316
3 251 318 316
3 251 319 318
3 252 311 312
3 319 252 312
3 251 252 319
3 311 252 242
3 322 321 320
3 253 254 320
3 321 253 320
3 323 253 321
3 248 253 315
3 315 253 323
3 325 324 256
3 256 324 255
3 257 316 317
3 325 257 317
3 256 257 325
3 316 257 250
3 328 327 326
3 326 327 322
3 326 322 320
3 260 326 320
3 259 260 320
3 259 320 254
3 331 330 329
3 324 331 329
3 261 324 329
3 255 324 261
3 328 326 332
3 328 332 333
3 262 332 260
3 260 332 326
3 329 330 334
3 334 330 335
3 334 263 261
3 334 261 329
3 333 332 264
3 265 333 264
3 336 333 265
3 264 332 262
3 338 337 335
3 337 267 335
3 268 334 335
3 268 335 267
3 268 263 334
3 337 338 339
3 341 340 270
3 341 270 271
3 265 270 336
3 336 270 340
3 337 272 267
3 339 342 337
3 342 272 337
3 342 273 272
3 344 343 274
3 273 344 274
3 342 344 273
3 345 343 344
3 348 347 346
3 275 276 346
3 347 275 346
3 349 275 347
3 271 275 341
3 341 275 349
3 343 277 274
3 345 350 343
3 350 277 343
3 350 279 277
3 352 351 280
3 279 352 280
3 350 352 279
3 353 351 352
3 356 355 354
3 354 355 348
3 354 348 346
3 282 354 346
3 281 282 346
3 281 346 276
3 351 283 280
3 358 357 285
3 358 285 283
3 353 358 283
3 351 353 283
3 360 359 357
3 360 357 358
3 362 361 359
3 362 359 360
3 361 362 356
3 361 356 354
3 287 361 354
3 286 287 354
3 286 354 282
3 365 364 363
3 363 366 365
3 363 364 367
3 367 364 368
3 366 370 369
3 370 366 290
3 363 290 366
3 290 363 289
3 367 289 363
3 291 370 290
3 373 372 371
3 293 294 371
3 294 373 371
3 294 374 373
3 295 367 368
3 374 295 368
3 294 295 374
3 370 375 369
3 289 367 295
3 375 370 291
3 296 375 291
3 376 375 296
3 379 378 377
3 298 299 377
3 299 379 377
3 299 380 379
3 381 299 300
3 381 380 299
3 382 300 302
3 382 381 300
3 303 371 372
3 382 303 372
3 302 303 382
3 371 303 293
3 385 384 383
3 386 305 306
3 386 306 387
3 306 388 387
3 306 307 388
3 309 377 378
3 388 309 378
3 307 309 388
3 377 309 298
3 385 383 389
3 385 389 390
3 392 391 313
3 313 391 312
3 313 305 386
3 393 313 386
3 392 313 393
3 393 386 387
3 396 395 394
3 398 397 394
3 398 394 395
3 397 398 390
3 397 390 389
3 315 397 389
3 314 315 389
3 400 399 318
3 318 399 317
3 401 318 319
3 401 400 318
3 319 312 391
3 319 391 401
3 396 394 321
3 322 396 321
3 402 396 322
3 321 394 323
3 323 394 397
3 323 397 315
3 404 403 325
3 325 403 324
3 325 317 399
3 325 399 404
3 406 405 327
3 406 327 328
3 322 327 402
3 402 327 405
3 407 330 331
3 408 407 331
3 324 408 331
3 403 408 324
3 411 410 409
3 410 406 409
3 406 333 409
3 406 328 333
3 412 335 407
3 407 335 330
3 407 408 413
3 407 413 412
3 416 415 414
3 414 415 411
3 409 414 411
3 417 414 409
3 336 417 333
3 333 417 409
3 412 338 335
3 419 418 339
3 419 339 338
3 413 419 338
3 412 413 338
3 420 418 419
3 416 414 421
3 416 421 422
3 341 421 340
3 421 417 340
3 421 414 417
3 340 417 336
3 418 342 339
3 420 423 418
3 423 342 418
3 423 344 342
3 425 424 345
3 344 425 345
3 423 425 344
3 426 424 425
3 429 428 427
3 347 348 427
3 428 347 427
3 430 347 428
3 421 349 422
3 349 430 422
3 349 347 430
3 349 421 341
3 424 350 345
3 426 431 424
3 431 350 424
3 431 352 350
3 433 432 353
3 352 433 353
3 431 433 352
3 435 434 432
3 435 432 433
3 437 436 434
3 437 434 435
3 436 437 429
3 436 429 427
3 356 436 427
3 355 356 427
3 355 427 348
3 432 358 353
3 358 432 360
3 360 432 434
3 360 434 362
3 362 434 436
3 362 436 356
3 438 364 365
3 366 438 365
3 439 368 438
3 438 368 364
3 369 439 366
3 366 439 438
3 441 440 373
3 373 440 372
3 442 373 374
3 442 441 373
3 374 368 439
3 443 374 439
3 442 374 443
3 443 439 369
3 375 443 369
3 444 443 375
3 446 444 445
3 444 376 445
3 444 375 376
3 447 378 379
3 380 448 379
3 379 448 447
3 448 380 449
3 380 450 449
3 380 381 450
3 451 381 382
3 451 450 381
3 382 372 440
3 382 440 451
3 446 445 384
3 385 446 384
3 452 446 385
3 454 453 388
3 388 453 387
3 388 378 447
3 455 388 447
3 454 388 455
3 455 447 448
3 455 448 456
3 456 448 449
3 459 458 457
3 458 452 457
3 452 390 457
3 452 385 390
3 462 461 460
3 391 392 460
3 392 462 460
3 392 463 462
3 464 392 393
3 464 463 392
3 393 387 453
3 393 453 464
3 467 466 465
3 395 396 465
3 466 395 465
3 468 395 466
3 457 398 459
3 398 468 459
3 398 395 468
3 398 457 390
3 471 470 469
3 399 400 469
3 400 471 469
3 400 472 471
3 401 460 461
3 472 401 461
3 400 401 472
3 460 401 391
3 467 465 473
3 467 473 474
3 402 473 396
3 396 473 465
3 469 470 404
3 470 403 404
3 470 475 403
3 469 404 399
3 478 477 476
3 476 477 474
3 476 474 473
3 406 476 473
3 405 406 473
3 405 473 402
3 475 408 403
3 479 408 475
3 478 476 410
3 411 478 410
3 480 478 411
3 410 476 406
3 482 413 481
3 413 479 481
3 413 408 479
3 483 482 481
3 485 484 415
3 485 415 416
3 411 415 480
3 480 415 484
3 482 419 413
3 487 486 420
3 487 420 419
3 483 487 419
3 482 483 419
3 489 488 486
3 489 486 487
3 490 488 489
3 493 492 491
3 495 494 491
3 495 491 492
3 495 485 494
3 485 422 494
3 485 416 422
3 486 423 420
3 423 486 425
3 425 486 488
3 497 496 426
3 497 426 425
3 490 497 425
3 488 490 425
3 499 498 496
3 499 496 497
3 501 500 498
3 501 498 499
3 503 502 500
3 503 500 501
3 502 503 493
3 502 493 491
3 429 502 491
3 428 429 491
3 428 491 430
3 430 491 494
3 430 494 422
3 496 431 426
3 431 496 433
3 433 496 498
3 433 498 435
3 435 498 500
3 435 500 437
3 437 500 502
3 437 502 429
3 504 440 441
3 442 505 441
3 441 505 504
3 505 442 506
3 442 507 506
3 442 443 507
3 509 507 508
3 507 444 508
3 507 443 444
3 446 508 444
3 510 449 450
3 510 450 511
3 450 512 511
3 450 451 512
3 451 440 504
3 513 451 504
3 512 451 513
3 513 504 505
3 513 505 514
3 517 516 515
3 506 514 505
3 516 517 509
3 508 516 509
3 518 516 508
3 452 518 446
3 446 518 508
3 519 453 454
3 519 454 520
3 454 521 520
3 454 455 521
3 522 455 456
3 522 521 455
3 456 449 510
3 523 456 510
3 522 456 523
3 523 510 511
3 526 525 524
3 528 527 524
3 528 524 525
3 527 528 515
3 516 527 515
3 529 527 516
3 459 529 458
3 529 518 458
3 529 516 518
3 458 518 452
3 530 461 462
3 530 462 531
3 462 532 531
3 462 463 532
3 534 532 533
3 532 464 533
3 532 463 464
3 453 519 464
3 519 533 464
3 519 535 533
3 519 520 536
3 537 519 536
3 535 519 537
3 538 537 536
3 526 524 539
3 526 539 540
3 467 539 466
3 539 527 466
3 539 524 527
3 466 527 468
3 468 527 529
3 468 529 459
3 541 470 471
3 541 471 542
3 471 543 542
3 471 472 543
3 472 461 530
3 544 472 530
3 543 472 544
3 544 530 531
3 534 533 545
3 534 545 546
3 547 533 535
3 545 533 547
3 548 535 537
3 547 535 548
3 537 538 549
3 550 537 549
3 548 537 550
3 551 550 549
3 540 539 552
3 540 552 553
3 474 552 467
3 467 552 539
3 554 475 541
3 541 475 470
3 541 542 555
3 541 555 554
3 546 545 556
3 546 556 557
3 558 545 547
3 556 545 558
3 559 547 548
3 558 547 559
3 560 548 550
3 559 548 560
3 550 551 561
3 562 550 561
3 560 550 562
3 564 563 562
3 564 562 561
3 563 564 553
3 563 553 552
3 478 563 552
3 477 478 552
3 477 552 474
3 565 479 554
3 554 479 475
3 554 555 566
3 567 554 566
3 565 554 567
3 568 567 566
3 557 556 569
3 557 569 570
3 571 556 558
3 569 556 571
3 572 558 559
3 571 558 572
3 573 559 560
3 572 559 573
3 574 560 562
3 573 560 574
3 575 562 563
3 574 562 575
3 480 575 478
3 478 575 563
3 565 481 479
3 481 565 483
3 565 576 483
3 565 567 576
3 567 568 577
3 567 577 576
3 578 570 569
3 578 569 571
3 578 571 579
3 579 571 572
3 579 572 580
3 582 581 580
3 572 582 580
3 573 582 572
3 583 573 574
3 582 573 583
3 485 583 484
3 583 575 484
3 583 574 575
3 484 575 480
3 576 487 483
3 577 584 576
3 584 487 576
3 584 489 487
3 586 585 490
3 489 586 490
3 584 586 489
3 587 585 586
3 590 589 588
3 592 591 588
3 592 588 589
3 591 592 581
3 591 581 582
3 493 591 582
3 492 493 582
3 492 582 495
3 495 582 583
3 495 583 485
3 585 497 490
3 587 593 585
3 593 497 585
3 593 499 497
3 588 501 590
3 501 593 590
3 501 499 593
3 501 588 503
3 503 588 591
3 503 591 493