OFF
761 1484 0
1.0590590565 8.0369591364 11.8227452417
1.1440785115 7.7748267737 11.0518768099
1.3061149732 7.4066892377 11.5012644628
1.3157455073 7.4715213638 12.0965643039
1.1428705098 8.7236005851 9.1681334393
1.3277264556 8.7901427683 8.5924709730
1.3444967071 8.2927590882 8.6812156224
1.2420237512 8.0708985527 9.3502506737
1.0217202386 8.6593759967 9.9965630278
1.1747540333 7.8968509959 10.2618505219
0.9506841290 8.5413454451 11.0302151854
0.8979148194 8.7589939994 11.8960158103
1.1906481058 7.8992332967 12.5175649131
1.0455484496 8.6187804865 12.6358593899
1.3339963502 8.1213375024 13.1810877869
1.2769359858 8.8271179164 13.3892536359
1.5593139496 8.5011562864 13.8012284220
1.2011542546 9.2141288063 8.9878439671
1.0527948988 9.4076638590 9.7036992749
1.2394073928 9.7151587048 9.2162711757
0.9314782661 9.3742346997 10.6550933505
0.8900513194 9.3655732456 11.5934766990
0.9336768085 9.2710136771 12.3311749873
1.1833896157 9.5240159171 13.0788583388
1.6870444080 9.4126620457 13.9728085995
1.1819366956 10.0485210226 9.7313102914
1.0722384239 10.0681655199 10.3887054854
1.3060389419 10.5289752157 10.1084090684
1.0294178765 10.1009638854 11.2881757107
1.0748336210 10.0377769850 12.2915379175
1.3125374458 10.2777789895 13.0172795132
1.5387690293 10.1297762415 13.5321602428
1.3096069635 10.7284923516 10.8833519270
1.3345050144 10.7700056010 11.8501508137
1.3943770535 10.6980655793 12.6267491695
1.9065735033 6.7863162996 8.8070694933
2.1619690431 6.6069647281 8.0336946154
2.3092368952 6.2016928728 8.4764781557
2.2914999891 6.0529385979 9.2998405941
1.8613252146 6.5883209078 9.9084543327
2.2926723846 5.9447209598 10.3432162249
1.9085412334 6.4556029033 10.8338227327
2.3364493820 5.9669205944 11.4113814874
1.7647063832 6.7968571192 11.8681231543
2.5831382188 6.0000059058 12.6408725509
2.0215866196 6.8111137371 13.0393339865
2.4735077648 6.3979867516 13.4400914032
2.1579024160 7.5133827673 7.1481015202
2.5718769886 7.5280982047 6.4518003775
2.5603054942 6.9321842327 6.7729250876
2.3196917864 6.7662340442 7.3839544356
1.9221011555 7.2589568487 7.9337743110
1.5592701806 7.6556945385 8.6630621315
1.4995037603 7.3303308295 9.5849111232
1.4829173077 7.1458298582 10.7001058507
1.5229273559 7.4168809466 12.7575384100
2.2292628771 6.8556753397 13.7263619333
1.8607695183 7.6173607931 13.7542268840
2.3981562416 7.0988486541 14.2694575802
2.3309866815 7.7540857482 14.5410490021
2.8438935967 7.2790864743 14.8287681829
2.2059749671 8.3158023524 6.8646729837
2.6264464280 8.1652814603 6.2203729607
1.7014299728 8.3242842881 7.9160511370
2.0526993807 8.5862407584 14.4337126270
2.8912422790 8.2714991871 15.1722379708
2.5358866731 8.9906680821 6.4231202535
2.0084605989 9.3687926038 7.4245123537
2.3835780369 9.8308080334 6.8629895135
1.5089911760 9.4635588843 8.4928988419
2.0725931559 9.2960552182 14.5156505737
2.5389247540 9.2448872629 14.8824220658
2.1818317016 10.1884116965 7.4283824372
2.3913480047 10.3406945041 7.1157207219
1.9271399244 10.4071612209 8.2623555038
1.5029375821 10.3892335293 9.3106371397
1.7468924694 10.8249704797 13.2743778099
2.1220972428 10.4711480564 13.9910988362
2.3090483512 9.8563098830 14.5211261327
2.4456847669 10.9129241426 7.5937342025
2.2044333698 11.2076922629 8.4846599226
1.9501032469 11.1613450604 9.1907482182
2.3158936927 11.6913366378 9.0153086908
1.7169892746 11.1932387396 10.2263251779
1.7464347546 11.3856225535 11.3779619241
1.8479648741 11.3377699249 12.4753809419
2.1689854313 11.4090124715 13.2054636104
2.2707049328 11.1371620391 13.6638060823
2.2634330394 11.8537684161 9.8089979250
2.2477949758 11.9606415183 10.8428745298
2.3387743514 11.9803198398 11.8830843509
2.6154116973 11.9063999415 12.8500084860
2.6294197294 11.5594390243 13.5022537259
3.0994943274 5.6266974080 7.5540473483
3.2756484586 5.7725977361 6.8980549942
3.7177803619 5.3072110985 7.1160200569
3.6397530987 4.9584727814 8.0894507344
2.8228902947 5.5772806024 8.5909051540
3.3834693805 4.8943934920 9.2467275802
2.7826708070 5.4165943219 9.7818877716
3.3514502485 4.8435510918 10.3663259507
2.8160309855 5.3768950396 10.8911830885
3.4890044340 4.8376355259 11.5390629803
2.9161429781 5.4231170966 11.9292354070
3.4995032205 5.0812565840 12.5135996962
3.0464852903 5.4561638547 12.5632864397
3.3555931737 5.4515546648 13.1296632098
2.8408288184 6.2542263238 6.9846899428
3.1599332347 6.6779907434 6.2573623228
3.2081258350 6.0894190899 6.5913328023
2.5515562375 6.1418090512 7.7988995208
3.0829108625 5.9841728499 13.7109064827
2.6524124919 6.5298502888 14.0265707847
3.1284346205 6.3309397678 14.3368290693
2.8392788083 6.7409804858 14.5017062078
3.4031500493 6.6422701953 14.8179866592
3.0571708099 7.6052202320 5.9056738301
3.5880872450 7.3093092490 15.3603751253
3.0528602780 8.3905651641 5.8121416224
3.7495927928 8.5911998384 5.3670661028
3.5272334680 7.8316985487 5.5171999389
3.6884323224 8.0231992407 15.7912392165
3.3930319342 8.6830002139 15.7078045990
3.7897156009 8.6893741763 16.0534014271
3.1040085835 9.1854977483 5.8490043570
2.7449926339 9.6719314841 6.3166120044
3.1653577459 9.9886071050 6.0016033909
3.6265112679 9.1088592129 15.8350441815
3.2817148676 9.3037642176 15.4023742999
2.7292912094 10.3828919029 6.6898506120
3.2111098635 10.7219621206 6.2895061474
2.7446376827 10.4939635931 14.4792621116
3.0249202093 10.0001104038 14.9144216936
2.9769455372 11.2000097591 6.9254940181
2.8684918511 11.7236555779 7.6352878306
3.2022346079 11.8632471332 7.1384019579
2.5661383819 11.7215443328 8.3610768688
3.5173983193 10.7235874538 14.6450601219
2.9190725672 11.1552960860 14.0439523443
3.1700285585 12.2437859170 7.6350500277
2.9790651840 12.3008075018 8.2609054123
3.3359190314 12.6912096372 7.9877197347
2.7666854827 12.3296589151 9.1952504498
2.8074916358 12.5129692639 10.3279273093
2.8805275813 12.5231871175 11.3670053132
3.0017460423 12.4283553785 12.2585694998
3.2755838897 12.3200570637 12.8711787285
3.3824893808 11.8882015279 13.4889020291
3.3127460174 12.9065608808 8.7647944493
3.3503522508 13.0331841572 9.7930643435
3.5763927395 13.0897170962 10.9200664758
3.5865688944 12.8547584640 11.8972130911
3.5913260306 12.6369544798 12.5388712473
4.0521742509 4.4141454815 8.8287587502
4.3065168851 4.4466205930 8.0499562764
4.8382613306 4.0230595717 8.4085860560
4.5047779161 4.0034493914 9.3493036772
3.9456957108 4.3544375646 9.8468561888
4.7144940019 3.7891470622 10.3845593171
3.9816138721 4.3424778384 10.9008427081
4.5858903737 3.9902184811 11.5115420793
4.0900930306 4.3718802535 11.7254338224
4.5158061187 4.1981883545 12.2066458282
3.6999586486 5.8243534759 6.4266843220
4.3846564456 5.7147159775 6.0436417761
4.3994941434 5.2305409313 6.5629783672
4.4080496888 4.7273371841 7.3088510347
4.0768375098 4.5940958106 12.4022724958
4.3304371717 4.9038228813 13.4114927600
3.7618227545 5.4986901014 13.8048521248
4.2924269725 5.3959269648 14.1613824955
3.9721706858 6.3156642999 5.8378071100
4.3182941847 6.7213906092 5.4424618597
4.7440425307 6.0937497265 5.6185189999
3.8004689056 5.9557030906 14.4201909925
4.4347080263 6.4430614690 15.1504308909
3.6865389388 7.0923359240 5.6261841318
4.2755016902 7.5308560663 5.2385503755
4.2620826563 7.1595857368 15.6337777610
3.9549409888 7.5084893811 15.7415110047
4.4608112379 7.6355153699 15.9385618378
4.5636064324 8.3258074714 5.0020793706
4.1229639373 8.1695298959 16.1074556210
3.9455971532 8.6082486339 16.2049724284
3.5977968650 9.5253941409 5.5292785973
4.3460976267 9.4167253088 5.0607876253
3.8716293734 9.5263017681 15.7106560634
4.0301113370 9.2555044196 16.0111612169
4.0256422911 8.9930422485 16.1749553299
3.7519966324 10.4900087274 5.6503044649
4.5115700715 10.7003630766 4.9624905353
4.5824411897 9.6822943624 15.7883225805
3.9912008291 10.0874628885 15.2557930062
4.0546142337 11.5364881523 5.6199937319
4.4547411104 11.6823056074 5.1160417053
3.5160000415 11.5571647140 6.4060445712
4.5693368177 10.8350359161 14.7472354638
3.9784593280 11.4048625626 14.1691760434
4.2658227020 12.2203956605 5.5274396730
3.9755268286 12.4865533144 6.2234899609
4.3656558846 12.8692969252 5.6814533318
3.5518385860 12.5168153200 7.1971321746
4.4849382490 12.0104331479 13.6494635275
3.9749079062 12.4332878451 13.0526413333
4.2313018029 13.1939647199 6.2165879471
4.4493199868 13.3356051237 5.8596719091
4.0171920880 13.2324885513 6.9427300244
3.7634001675 13.2833556702 8.0675783213
3.8345051527 13.5026998699 9.2485339305
4.0095896426 13.5515721574 10.2708165044
4.2640597518 13.5325263602 11.0111601212
4.4084842931 13.2793298179 11.7092788525
4.2909031803 12.8591593544 12.4774487697
4.4821797280 13.7002079925 6.3045451614
4.2058062097 13.7900994132 7.5549068805
4.1914271150 13.8762768351 8.6928080710
4.5066234395 13.9677908708 9.8538381318
4.7074219350 13.8403357187 10.7547971030
5.3251187483 3.3406368817 10.6893509447
5.3453278471 3.3433355949 10.0823887066
5.9193668058 2.9738704898 10.4103199243
5.6958609459 3.1542871806 11.1513164614
4.8054642963 4.2917519931 7.6647158478
5.0791027474 4.3999054712 7.1657510340
5.5397507032 4.0403463354 7.5043572947
5.7201943303 3.6064292242 8.2745687404
5.2320578404 3.5657766168 9.2802553290
5.1924432048 3.5404656573 11.3551680089
5.2558747315 3.8268440600 12.3911486390
4.7161950496 4.3239946648 12.8707212812
5.2764877970 4.1660045674 13.1868677359
4.9360330300 4.4415810759 13.3673396853
5.4418732929 4.5272783655 13.7757968996
5.2103137264 5.3497554231 6.0325415889
5.0998229609 4.7567639222 6.6736052493
4.9903191341 5.1553572433 14.2820341698
4.5712898577 5.6809382867 14.6329593240
5.3194933366 5.6787330205 14.8717332631
5.0191434774 6.7328795077 5.2389373413
5.6497597007 5.9773300327 5.4768067896
5.6195076840 6.3702285150 15.3457845502
5.2229811001 7.5611095865 4.9334933238
5.0201461791 7.0413353908 15.6857596452
5.4419816302 7.7216452619 15.9819841707
5.3245370736 8.6022884157 4.6614753735
4.8925151246 7.9782031195 16.1205405885
5.0847557654 9.7383514843 4.5658533774
4.4397630190 9.3739901219 16.0752132004
5.1122837319 10.5350903556 4.4288351333
5.5862522931 10.7630797905 4.0239592357
5.5573783256 10.0040910367 4.1874308268
5.4022858667 9.5970931360 15.7584412118
5.2436697092 10.1493331519 15.2895907748
5.1529388324 9.3966116593 16.0073175695
4.9675125490 11.4949517448 4.5318662404
5.6139689098 11.8017036920 3.8496195133
5.6658813133 10.8167598960 14.7139602344
5.0927795780 11.4510545607 14.2210320488
5.1095828217 12.5282876647 4.4614557404
5.5763321315 12.7870204634 3.9072590755
4.6311271525 12.3809348862 5.0682707828
5.6007822853 12.0094701632 13.6798028753
4.9568737897 12.5431476451 13.0937638193
5.2858459145 13.1873295381 4.3674629700
5.5751934996 13.3040341319 4.0252681855
4.8310131623 13.2779652933 5.1860472514
4.7766893901 13.6561349524 11.3318310052
5.1871009138 13.5370864448 11.7630292151
5.3564730872 13.1024933278 12.4053105236
5.5517309493 13.7039992641 4.3751527023
5.0090490189 13.9321768345 5.3869991012
4.7567650314 14.0618047290 6.0753478048
5.0636226577 14.1387317071 5.4557208036
4.4526702922 14.0134953578 7.0463841356
4.3470382656 14.0560662588 8.1443442075
4.5098376052 14.1222798941 9.2030223766
4.9758892173 14.2103745083 10.0738765983
5.3880597254 14.1305808671 10.6666756207
5.4273839206 13.8464507370 11.3013271735
6.0448361955 3.2028607999 8.8807589313
6.3612290114 3.3182567070 8.1928788253
6.7935566837 3.0093836980 8.5487694097
6.6010354270 2.7110714488 9.5334916172
5.7839278081 3.1398435760 9.6274449711
6.5633398758 2.5291560305 10.4399756705
6.4377993784 2.7577315950 11.3301855956
5.8153973301 3.2758092846 11.8681685073
6.4357952248 3.0946761497 12.2024136529
6.0505663497 3.4562220914 12.5612524135
6.7582817316 3.3623474833 12.8395631512
5.6005804854 4.3784515514 6.8651798949
5.9264379002 4.7190265688 6.3719881295
6.3440926341 4.1826751383 6.8724110489
6.5039351981 3.6458041515 7.5632741916
6.0616749505 3.9008187247 13.2455103384
6.5258484918 4.4127820826 14.0172090404
6.2991698091 5.2740806122 5.8331588069
5.9372951726 5.0273867637 14.4822535284
6.3080621317 5.6774156307 14.9894154615
5.9677880288 6.7142231270 5.0630485161
6.6652052663 5.9377936387 5.3573020115
6.6587380934 6.5224807851 15.3565981309
6.2443957833 7.6086164085 4.6517374586
5.9231041851 7.0836126795 15.7005565390
6.1374147966 7.6671675361 15.8549832856
6.1169730999 8.4538593137 4.3610964307
6.4598815174 8.8375133188 4.0651650804
6.8149542896 8.1035074342 4.2414303630
5.5489847976 8.4224044209 16.1042468490
6.0120290160 8.2661366061 15.9540752350
5.7946286578 9.2260412862 4.2513280078
6.3291093997 9.8252823863 3.7619231123
5.7701033582 9.0187840087 15.9463024020
6.3784794591 8.6661579757 15.7413543426
6.2162092936 9.4174479643 15.4914763636
5.5140136873 9.0003983240 16.1017386153
6.1182822222 10.9697377018 3.5171512575
6.3017692897 10.1700196535 15.0220983235
6.1324547545 11.6244125177 3.3386783666
6.6350879581 11.7357858978 2.9125712489
6.3964239167 11.2358229841 3.1859472629
6.5167501204 10.6505797233 14.6501701792
6.3195961393 11.2856567702 14.2035342528
6.0938088530 12.3620554603 3.3665711132
6.8224153711 12.7797020149 2.8359802167
6.7059957563 11.9153421820 13.6326872725
6.0862471728 12.5475139490 13.1098283115
6.0749413070 13.2530365130 3.5762161731
6.8128459280 13.5128464869 3.1450780797
6.5860262646 13.0618974359 12.5416881674
6.0286832045 13.5642066604 11.9039869634
6.4347486140 13.8423610858 3.6378195403
6.0482582065 14.0308955988 4.0977957113
6.9152687448 14.0850301002 3.5896433573
5.4086969131 14.0648547637 4.8364203867
5.4902590295 14.2778262431 10.5321189220
6.1027935239 14.2449866927 10.8215957491
6.5482364791 14.0063629929 11.2236611971
7.4333498485 1.8566982993 10.7735618250
7.5942457420 1.7438390425 10.2984989792
7.7858464488 1.5992351202 10.5664194254
7.8876188096 1.6809972463 10.9244511827
7.1414626169 2.1286678520 10.1522543290
7.3636754264 2.2896927501 9.5333034104
7.7018798208 1.9295252770 9.8826704579
6.9201945973 2.2534624450 10.8175578024
7.6773430311 1.9306564549 11.2629855607
7.2203394883 2.2583750360 11.3816666161
7.8117576786 2.3024774837 11.7499963579
6.8785980523 3.2629112882 7.9360364419
7.2509161187 3.4273519655 7.5667129485
7.5510969096 3.0797513771 8.1281437356
7.4466792759 2.6583907664 8.9423996693
7.2179210729 2.8044584743 12.1704490086
7.6810578935 3.3230815521 12.9782385614
6.9417897154 4.6357040005 6.2920537788
7.5106020617 3.9264811304 6.9993060414
7.1264206721 3.8469568632 13.5246578642
7.5460098338 4.4538851311 14.1113596042
7.3379034146 5.2710070467 5.7487251603
6.9341855387 5.0226414858 14.5807547999
7.2540947284 5.7348035927 14.9658701379
6.9978653697 6.6685250478 4.9226693497
7.6813825535 5.9351239306 5.2803787858
7.5076590243 6.4130499719 15.1494363838
7.2780902539 7.3418846423 4.5046423888
6.5505737446 7.2986624306 15.6433443675
7.2666788222 7.3041420462 15.3626671502
7.3045206291 8.7033071053 3.7586155638
7.5102309938 7.8413009903 4.1507408494
6.6136962325 7.9608326637 15.7020171306
7.1228920027 8.4866896130 15.3689878867
7.1321214732 9.6367335921 3.3351630250
7.4790498474 9.9334547050 2.9449055987
7.7761450236 9.2304199381 3.1882630332
7.1681929821 9.4822057504 15.0421804697
6.8301465959 10.6362893280 3.0682287154
7.5332575894 10.5508042650 2.5584658539
6.9813372394 10.1840587566 14.7892078504
7.5535191713 9.8702936762 14.7077374240
7.3321520818 10.5363251867 14.4095894487
7.2203230781 11.2887415807 2.4881425102
7.7220081776 11.5523191631 2.0158353687
7.5915814620 11.0400410917 2.2538744168
7.3695094745 11.2585401083 13.9496552333
7.2500942715 12.0900650620 2.3462997231
7.6835718536 12.1676690926 1.9836610878
7.5604923927 11.7305395854 13.5762406290
7.3200460748 12.3711329417 13.1076142444
7.7346688015 12.7099779912 2.1672536954
7.5182567073 13.3881284608 2.6794297893
7.6161788220 12.9760983043 12.5172793318
7.0844129149 13.5113113708 11.9694803292
7.4505804211 13.9075303559 3.2122383071
7.8801898733 14.1550562516 3.5034585845
7.0084675642 14.2553022499 10.8229204645
7.8192398616 14.1510990104 10.7214687225
7.6318323357 14.3211658183 10.5584960866
7.5903776402 13.8031284326 11.4339298534
7.9674683770 1.6767967204 10.2570789469
8.0756610238 1.6055931402 10.6145962418
8.2530006603 1.7682606653 10.8950695800
7.9583064217 2.2634693404 9.4249826495
8.1478041523 1.9271031342 9.9113507468
8.1236555318 1.9630098042 11.3150453345
8.3930118315 2.3802193530 11.7189569136
7.8040783500 3.4137474451 7.5582198291
8.2329960931 3.2234463500 7.9698289037
8.4041703679 2.8325142943 8.8409497228
8.2493271720 2.8549960558 12.3521333192
8.5383925957 3.4439011000 13.0447793468
8.1253697565 4.6933897678 6.2636100477
8.6005431860 4.1278094528 6.9245561806
8.3878005888 3.6177154836 7.4695585498
8.0917375006 3.9136144635 13.5848649838
8.5438818911 4.6864166095 14.0343641484
8.2095309708 5.3670062892 5.6879817142
7.8559021313 5.1565966131 14.5579932907
8.0530215714 5.9124706382 14.8363531892
8.0968763066 6.6609992721 4.7708460986
8.6907295127 5.8916212893 5.3121689569
8.1143361694 6.7710283938 14.9840382130
7.9689717096 7.3452666925 4.3280422330
8.1681849474 7.8731683034 3.9362767108
8.7426017062 7.1759573824 4.2945820203
8.0293434828 7.7549591495 15.0387039548
8.2769724572 8.5453856371 3.4264850220
7.9336089426 8.6907199553 14.9513525004
8.1902135825 9.7331890677 2.6289010611
8.2944975109 9.0420463530 3.0496037712
7.9099500605 9.3384789451 14.7735267071
8.4505877445 8.9030587584 14.6282655389
8.2850652007 9.6747288603 14.4083106071
8.0404060089 10.6880169238 2.1114822794
8.6479973023 10.4980864632 1.8032954774
8.4697713014 10.1350293146 2.1502055367
8.2565166749 10.5691838254 14.0033603885
8.3551966876 11.2320402831 1.6611069931
8.8625398339 11.4887385266 1.3569810976
8.8672692700 10.9099746235 1.4578467810
8.0395494287 11.2605506418 13.7264200272
8.6148667627 10.9436963508 13.6534831580
8.3562581720 11.6355294968 13.3220508014
8.2543959335 12.0566498365 1.6879539715
8.9910070921 12.0903172241 1.3947562918
8.2845046900 12.4186922433 12.8025873703
8.7827927831 12.7263365479 1.8454951952
8.1941403225 13.2518521711 2.2828089492
8.7680718413 13.3399190622 2.3116008412
8.2333567321 12.8839266102 12.4538107375
8.1176167216 13.2988957162 11.9681041577
8.3571958384 13.6940515765 2.7702242285
8.5001356074 14.0506739265 3.4222600643
8.7985433645 14.2088231312 3.8878126646
8.1386398100 14.3357221149 10.2427131708
8.5912735742 14.2447095155 10.0464857396
8.5845665954 14.3383652687 9.8878566454
8.7683779879 13.9702013516 10.4191889425
8.4087836130 13.7136435853 11.1746100859
8.3978799442 1.8840513955 10.4137236854
8.5349043959 2.2913902377 9.7689117786
8.8494522263 2.3542998644 10.3944441649
8.6494818823 2.2193238315 11.0940032348
8.8676469100 3.3910026551 8.1540893290
9.1966088797 3.2538251651 8.9201765352
9.1465382630 2.8922170867 9.8204256364
9.2215206110 2.8305233759 10.8923727250
8.9800717453 2.8830432357 11.8475391726
8.9178023772 3.2230212349 12.5831105559
9.1138894743 3.6336089940 12.9751623460
9.0025959882 4.5891910932 6.5501000687
9.2787030383 4.3029155937 7.0356918138
9.1201566647 3.8834689574 7.5583577796
8.8955328519 4.0304890622 13.4513321658
9.2667575649 4.6391469645 13.6220939448
9.1108814146 5.2006120048 5.9914860781
9.7560765922 4.8028490933 6.7845102793
8.5466075290 5.4490382231 14.4616262881
9.2652507775 5.4941170619 14.0084431628
9.2248350253 6.4861006129 4.8227194376
9.7075297845 5.8734863003 5.4588825024
8.7634909778 6.2170963804 14.5703845062
9.5120869704 6.6767559466 14.1447572862
9.1600930452 7.8589241468 3.6669821856
9.7576681883 7.0549060085 4.2850941128
8.7819606180 7.1828843899 14.6678195801
9.2881615546 7.6407290020 14.3430554846
8.9317137126 8.8143489372 2.9455927204
9.6378845233 8.8815815271 2.5868792482
9.8758502675 8.2664492285 3.0942282817
8.6712609275 8.1336514045 14.6712949303
9.2430169766 8.6646380593 14.1958576583
9.0934507450 9.6588243841 2.1819319051
9.7534733937 9.8284516199 1.8059748447
9.9937738953 9.2463677379 2.1800315780
9.0514206199 9.7506598704 13.9743939330
9.2542690033 10.3449512970 1.6012484962
9.3886637695 10.9156924951 1.3072338004
9.9040262790 10.3323238135 1.4818075477
8.9863246820 10.4038274540 13.7446968635
9.5243567597 9.9660271846 13.6299331187
9.3396806461 10.7603270323 13.3431410244
9.5291453894 11.5246917447 1.2395291670
9.2260005292 11.7727703247 12.8129436692
9.4808119010 12.0614281290 1.3524073713
9.2396307266 12.3640307957 1.4901191482
9.8187617576 12.3378112102 1.7429791842
8.8477055180 12.6450130329 12.3407950872
9.4151143926 12.2015765033 12.4256303333
9.5487853858 12.5135657211 11.9917513481
9.0833740176 13.5555217780 2.6622768445
9.5448788376 13.0951030989 2.3681581106
9.6388366008 13.4974903193 2.9571693971
9.2134899361 13.5283966239 10.8022158367
9.9292790569 13.3584842048 10.2216421416
9.4014758528 13.7763878142 10.1262108593
8.9963193507 13.1499037357 11.6098971988
9.8488393422 12.8793531720 11.1787912460
9.1625561485 13.8129265160 3.2193010806
9.4393471972 14.2632899841 4.5577367594
9.5050287605 14.0450704305 4.1278223122
9.7407842742 14.3043805578 5.1284525562
9.8676244818 14.1943632021 5.0848937137
10.0495793630 14.2221698867 5.7109342066
9.2441073633 14.0474479376 9.7438459871
9.0479049352 14.2225982400 9.6075345340
9.6051709004 3.8136597092 8.4296222648
9.7141219875 3.5861839886 9.4988982181
9.7199251016 3.4717356849 10.5424208547
9.6272180318 3.4907104983 11.5768964085
9.4115619788 3.5676659380 12.4433572626
9.7506000154 4.3019820781 7.5914461673
10.1350568088 4.3630730445 8.2891655914
10.1733888223 4.2072906997 9.1422497648
10.1920626754 4.1274493125 10.1760115866
10.1342630570 4.1419338161 11.2351749780
9.9550245286 4.2944353385 12.3216940946
9.4809683660 4.1571822063 13.0665021567
10.1081956968 5.4050125272 6.1648723011
10.4263816311 5.1864486270 6.8114974807
10.4088608897 4.8618847618 7.6322780051
10.6037315807 4.7849650172 8.7091464534
10.6422640174 4.7446055223 9.7503926132
10.6063076814 4.7772726530 10.8208006277
10.4777915825 4.8564781134 11.8219770927
10.3204495614 5.0420141189 12.5681238328
10.4193409927 5.6807724552 12.9449493799
9.8667352080 5.0167190098 13.2185378292
10.2463186413 6.4554272871 4.9330248402
10.7170793357 5.9866559122 5.7359499712
9.9964890984 5.9785181844 13.5864185050
10.4672407973 6.3475606636 13.2295931282
10.2992039455 7.5885275634 3.7108699826
10.7694124829 7.0022025432 4.3871889094
10.1581064084 6.7274119717 13.6574752474
9.9723680085 7.5947771000 13.8474305385
10.3253564094 8.6356051049 2.6047124538
10.8692664249 8.1003332822 3.1131748717
10.0551510350 8.4434156957 13.7338836417
10.5998447199 8.0002634544 13.3294207857
10.4108631846 8.7996411559 13.4007338666
10.5660621755 9.7198541209 1.8712039133
10.6134625506 9.0025627624 2.2543824287
9.8012486085 9.2152066036 13.7233499571
10.2425890522 9.7320581237 13.2259012941
9.9963860731 10.8953905435 1.2879709513
10.4430724549 10.4505084371 1.5075618802
10.1968424190 10.8636947756 12.7741321795
10.1154126588 11.3227997815 1.3069095698
9.9045026000 11.7731119410 1.3688642317
10.5363299437 11.5005089629 1.6387728851
9.9576521915 11.7875456072 12.3683976704
10.4348050966 11.2729721373 12.4183076098
10.5454203029 11.6122707983 12.0517788742
10.7784902793 12.1070915106 2.1444161716
10.1807400929 12.2044983383 11.7846776873
10.5976162602 11.9433265798 11.6825218489
10.5659179829 12.2899995571 11.2395137659
10.3294452516 12.6814382661 2.3736317145
9.9423940528 13.6490422187 3.6284590151
10.4605064012 13.1032376144 3.1566207375
10.2095189594 13.7630853815 4.3299522115
10.6489308438 13.4016584224 4.1321662833
10.6647416528 13.6041326731 4.7988684171
10.3662738596 13.7288773933 8.5665378786
10.8981415492 13.4428542807 8.1040899413
10.6092378165 13.7771620985 7.7751716297
9.8999246187 13.7295001662 9.4775044388
10.7143512136 13.1938728614 9.2566910680
10.5676878338 12.7770979085 10.4174872508
10.2488530946 13.9183908366 4.9833450874
10.3209433474 14.0904878057 6.6281449043
10.3996871175 13.9970628227 5.9490110766
10.3227492810 13.9592880155 7.7962311705
10.5780553418 13.9002286765 7.0200767659
9.7748607219 13.9954675267 9.0083972817
10.7514290278 5.5708513345 6.4572425805
10.9579922124 5.4468183638 7.1969657808
11.0571396315 5.3425616771 8.1946190606
11.1084226735 5.3210667502 9.2648178036
11.0839850006 5.3689413021 10.3452858401
10.9742439215 5.5557609788 11.4897561429
10.6637384207 5.4699852988 12.2985748474
11.1521162532 6.5478744223 5.1017792382
11.4433602290 6.3132038705 5.7501737663
11.3859142090 5.9981595600 6.5602892579
11.5518744891 5.8987856038 7.6727165493
11.5986148499 5.8759666122 8.7537220135
11.5796096699 5.9272697404 9.8389094348
11.4803150699 6.0293972204 10.8596473412
11.3581655591 6.2540435857 11.6471503266
11.5060741708 6.9190203959 11.9920746233
10.9349682273 6.3262183249 12.4801579827
11.2592767374 7.5204194992 3.8308914666
11.7383345802 7.1078342249 4.6435371220
11.1622725024 7.4897590580 12.6940537215
11.6192413022 7.5874869031 12.1972360921
10.5968122151 7.0704051925 13.2495865665
10.9390345181 8.6039044575 2.5710616159
11.1864656364 9.0510773296 2.2940005345
11.5977818219 8.4925910165 2.8332216495
11.6367398196 7.9477396286 3.3809414584
11.4550036157 7.9812142562 12.5066284831
11.1013397356 8.6862245958 12.7937640916
11.3695237080 9.6385924644 2.1131034154
10.9849565053 9.9440053435 12.6184516362
10.4803220825 10.9238407377 1.4388325095
11.1160092539 10.5296921231 1.8651284732
10.9113159133 10.8506474216 12.2722983444
11.3520559943 10.1921260734 12.2567000376
11.5231515553 10.5720333856 11.8437305220
11.3367186294 11.4081210925 2.1418844282
11.0825056272 11.5322022263 11.5339220054
11.6950091826 11.0474554037 11.2957365492
11.5782040241 11.5739433420 10.8853325216
11.5088475059 11.9547106763 2.6060213640
11.0194302942 12.5160108474 2.7614564798
11.2397713779 12.7122350205 3.3537903077
11.6744649189 12.2876950427 3.2239786173
11.6892389072 12.5445513947 3.7880776038
11.2590250896 12.5330120075 9.8000316121
11.8664526032 12.2634692133 9.1950880368
11.4233680498 12.7306727193 9.0403990184
11.1454621959 12.1383939493 10.6858971600
11.8219112042 11.8486773045 10.0840603358
11.2253028882 12.9465743269 3.9754595954
10.8476319933 13.6151743284 5.5684146983
11.2734292647 13.1643773352 4.9560391039
10.9399430080 13.6192766380 6.5572745055
11.4434802601 13.1702498068 6.1031207343
10.8910636383 13.6209204613 7.3577526056
11.3875229052 13.1769507286 7.2730186263
11.3861959499 12.9705397447 8.3348566440
11.7895534707 6.6890929929 5.3905936851
11.9856487017 6.5683688011 6.1432411854
12.0622272429 6.4645822531 7.1661258830
12.0942404958 6.4374030867 8.2588342830
12.0702531376 6.4770961293 9.3403121653
11.9883687683 6.6636338460 10.4731082251
11.7071147293 6.6197000794 11.3011064694
12.0424911058 7.6762778047 3.9489846806
12.4391117788 7.5287222812 4.5997269304
12.4260980052 7.1655046721 5.4856328622
12.5798762818 7.0673795576 6.6655532068
12.5827185088 7.0501809648 7.8049773383
12.5188443022 7.0517561491 8.8921755442
12.4359920059 7.1092767604 9.8660898903
12.3570614979 7.3240628438 10.6178143422
12.4726647116 7.9464112799 10.9407097136
11.9992867989 7.4339900240 11.4372308124
11.8402687960 9.1600400783 2.5131261609
12.2157282360 8.7490042217 2.9631658019
12.2024592270 8.2245164982 3.3957243218
12.2084732825 8.4320443659 11.5783623085
12.5443015888 8.5831553907 11.1259140341
11.7466038751 8.2412585783 12.1401310152
11.9238220376 9.9340488840 2.3862557045
12.4426673714 9.3759229552 2.9095264959
12.3587216743 9.0351982625 11.4865207199
12.3352397711 9.5710175944 11.4038170384
11.7959041542 9.4394601134 12.0075551213
11.9236730542 10.7831191510 2.4166016254
12.5263706256 10.2460786757 2.9292415286
12.4388530639 10.4601755853 10.6993702261
12.7181945493 10.1339908333 10.3000710803
12.5833017261 10.7309950037 10.0970821051
12.0964616268 10.3142438686 11.3170783987
12.5541129969 9.8534165802 10.8670458410
11.9088402364 11.4277860627 2.5921660233
12.4089934262 11.0804837612 2.9937939825
12.1002771349 11.0859913441 10.6541812461
12.3482722819 11.3227416806 9.9150702325
12.1128636424 11.7411119669 3.1103192451
11.8660684556 12.5946253346 4.5325689504
12.2570558708 12.0402602174 3.9333060328
11.9932502951 12.6479714539 5.5603188691
12.5144332160 12.0773500110 5.0088331634
12.0271672698 12.6463457774 6.6606451681
12.5959021297 12.1013563036 6.0921098999
11.9614812386 12.5913205319 7.7278917312
12.5627020425 12.0541308631 7.1884613408
11.8297176318 12.5413291970 8.5380332627
12.3814827264 12.0080268919 8.3326934037
12.3567039326 11.6836471892 9.2685974236
12.6781518742 8.0766657317 4.0712447939
13.0561745032 7.9197263221 5.0028641922
13.0885349787 7.6740969289 6.1292520566
13.1088493555 7.7799064687 7.3583022853
12.9168959786 7.7445405419 8.5570504986
12.7614435679 7.7118224827 9.5716613227
12.6167799953 7.6640800790 10.2928409011
12.7105786091 8.7451973377 3.4736824643
13.2762475965 8.6971484467 4.2381161205
13.5665738622 8.4449241651 4.9766098032
13.5520146180 8.2235068508 5.7038667841
13.5340327819 8.2186267914 6.6309725716
13.5020621457 8.4441948957 7.4072430468
13.6108991046 9.1055767017 7.6698711448
13.2705775248 8.5968805658 8.3161567800
12.9988884140 8.4894746628 9.3832160217
12.7567636199 8.3990976872 10.3815597461
13.0899813590 9.5958793168 3.5886285451
13.6028706860 9.3719251880 4.1632347211
13.8081865959 8.9429751511 4.7239123943
13.3350797001 9.5901800162 8.5052149835
13.5964461252 9.9329529070 7.7516899547
13.1300644570 9.2280892213 9.1925224330
12.8681468889 9.3498219495 10.1272374636
12.6245196485 9.1409487101 10.9640033748
13.0218457266 10.6800678597 3.6736888703
13.6212933952 10.0998364752 4.1697081079
13.1810030205 10.5839238508 8.4554041446
13.4760032072 10.6003096683 7.6312175430
12.9745311567 10.1150269578 9.4646247869
12.6153501719 11.4218802187 3.5880932398
13.4721183535 10.7575671403 4.3936712903
12.9904686618 11.3870839096 4.4368679957
13.1099680516 11.5323377577 5.5416353763
13.5522846147 10.9831898790 5.1125388523
13.1211023423 11.4987472676 6.5922190709
13.5889937293 10.9829231106 6.0428553034
13.0520086129 11.3097146049 7.6979597597
13.5414746854 10.8467811655 6.9504641751
12.7848141034 11.3603754587 8.6337668635
12.7423404497 11.0102924106 9.3304256775
13.8335543630 8.6216343810 5.3809559791
13.8794179679 8.7410044174 6.1849147442
13.7479529506 8.7574087059 6.9772874268
13.8717303615 9.5403586721 4.4217977251
13.9800401061 9.1233542614 4.8056661737
13.9981990386 8.9079573663 5.4428122140
14.0578048787 9.2160641106 6.2446387844
14.0852888744 9.8157264814 6.4024810339
13.9057686076 9.4960781552 6.8861035329
13.9324244352 10.1448819806 4.5904723147
13.8387926860 10.5092201628 4.8005897432
13.9208195061 10.5879006644 5.5804231699
14.0396575904 10.3864790813 5.1977202216
13.9190203728 10.3245053368 6.4450980132
14.0864288614 10.2777251120 5.9174704746
13.7514568111 10.2438107688 7.1657968874
3 2 1 0
3 0 3 2
3 6 5 4
3 8 7 4
3 4 7 6
3 10 9 8
3 8 9 7
3 9 10 1
3 10 0 1
3 10 11 0
3 3 0 12
3 0 13 12
3 0 11 13
3 15 14 13
3 13 14 12
3 15 16 14
3 5 17 4
3 19 18 17
3 18 4 17
3 18 8 4
3 8 20 10
3 8 18 20
3 10 21 11
3 10 20 21
3 11 22 13
3 11 21 22
3 13 23 15
3 13 22 23
3 16 15 24
3 24 15 23
3 19 25 18
3 27 26 25
3 26 18 25
3 26 20 18
3 20 28 21
3 20 26 28
3 21 29 22
3 21 28 29
3 31 23 30
3 23 29 30
3 23 22 29
3 23 31 24
3 27 32 26
3 26 32 28
3 28 32 33
3 28 33 29
3 29 33 34
3 29 34 30
3 37 36 35
3 39 38 35
3 35 38 37
3 41 40 39
3 39 40 38
3 43 42 41
3 41 42 40
3 45 44 43
3 43 44 42
3 45 46 44
3 49 48 47
3 51 50 47
3 47 50 49
3 50 51 36
3 51 35 36
3 51 52 35
3 35 53 39
3 35 52 53
3 39 54 41
3 39 53 54
3 54 1 2
3 43 54 2
3 41 54 43
3 43 2 3
3 55 43 3
3 45 43 55
3 46 45 56
3 45 57 56
3 45 55 57
3 59 58 57
3 57 58 56
3 59 60 58
3 47 48 61
3 61 48 62
3 47 63 51
3 47 61 63
3 63 5 6
3 52 63 6
3 51 63 52
3 52 6 7
3 52 7 53
3 53 7 9
3 53 9 54
3 54 9 1
3 12 55 3
3 55 12 14
3 55 14 57
3 57 14 16
3 64 57 16
3 59 57 64
3 60 59 65
3 65 59 64
3 62 66 61
3 68 67 66
3 67 61 66
3 67 63 61
3 69 17 5
3 63 69 5
3 67 69 63
3 69 19 17
3 24 70 64
3 24 64 16
3 65 64 71
3 71 64 70
3 67 68 72
3 72 68 73
3 67 74 69
3 67 72 74
3 75 25 19
3 69 75 19
3 74 75 69
3 75 27 25
3 30 76 31
3 76 77 31
3 31 77 24
3 77 78 24
3 78 70 24
3 70 78 71
3 73 79 72
3 72 79 74
3 74 79 80
3 82 81 80
3 81 74 80
3 81 75 74
3 83 32 27
3 75 83 27
3 81 83 75
3 84 33 32
3 84 32 83
3 85 34 33
3 85 33 84
3 76 30 34
3 85 76 34
3 86 76 85
3 77 76 87
3 87 76 86
3 82 88 81
3 81 88 83
3 83 88 89
3 83 89 84
3 84 89 90
3 84 90 85
3 85 90 91
3 85 91 86
3 86 91 92
3 86 92 87
3 95 94 93
3 97 96 93
3 93 96 95
3 99 98 97
3 97 98 96
3 101 100 99
3 99 100 98
3 103 102 101
3 101 102 100
3 105 104 103
3 103 104 102
3 105 106 104
3 109 108 107
3 109 107 94
3 107 93 94
3 107 110 93
3 110 36 37
3 97 110 37
3 93 110 97
3 97 37 38
3 97 38 99
3 99 38 40
3 99 40 101
3 101 40 42
3 101 42 103
3 103 42 44
3 103 44 105
3 112 111 46
3 46 111 44
3 111 106 44
3 106 105 44
3 114 113 112
3 112 113 111
3 114 115 113
3 107 108 49
3 108 48 49
3 108 116 48
3 107 49 50
3 107 50 110
3 110 50 36
3 56 112 46
3 112 56 58
3 112 58 114
3 58 60 114
3 60 115 114
3 60 117 115
3 120 119 118
3 116 120 118
3 62 116 118
3 48 116 62
3 65 122 121
3 117 65 121
3 60 65 117
3 122 123 121
3 119 124 118
3 124 126 125
3 124 125 66
3 118 124 66
3 62 118 66
3 125 68 66
3 128 127 122
3 65 128 122
3 71 128 65
3 122 127 123
3 125 126 129
3 129 126 130
3 129 73 68
3 129 68 125
3 77 131 78
3 131 132 78
3 132 71 78
3 132 128 71
3 130 133 129
3 133 135 134
3 133 134 79
3 129 133 79
3 73 129 79
3 136 80 79
3 136 79 134
3 136 82 80
3 138 137 131
3 77 138 131
3 87 138 77
3 131 137 132
3 135 139 134
3 141 140 139
3 140 134 139
3 140 136 134
3 142 88 82
3 136 142 82
3 140 142 136
3 143 89 88
3 143 88 142
3 144 90 89
3 144 89 143
3 145 91 90
3 145 90 144
3 91 145 146
3 147 91 146
3 92 91 147
3 87 92 138
3 138 92 147
3 141 148 140
3 140 148 142
3 142 148 149
3 142 149 143
3 143 149 150
3 143 150 144
3 144 150 151
3 144 151 145
3 145 151 152
3 145 152 146
3 155 154 153
3 157 156 153
3 153 156 155
3 159 158 157
3 157 158 156
3 161 160 159
3 159 160 158
3 161 162 160
3 165 164 163
3 94 95 163
3 95 165 163
3 95 166 165
3 96 153 154
3 166 96 154
3 95 96 166
3 153 96 98
3 153 98 157
3 157 98 100
3 157 100 159
3 159 100 102
3 159 102 161
3 167 162 161
3 102 167 161
3 104 167 102
3 169 168 106
3 168 104 106
3 168 167 104
3 169 170 168
3 173 172 171
3 173 171 164
3 164 171 163
3 171 108 163
3 108 109 163
3 163 109 94
3 111 169 106
3 174 170 169
3 111 174 169
3 113 174 111
3 113 115 174
3 174 115 175
3 171 172 176
3 176 172 177
3 176 116 108
3 176 108 171
3 117 179 178
3 175 117 178
3 115 117 175
3 179 180 178
3 176 177 120
3 177 119 120
3 177 181 119
3 176 120 116
3 121 179 117
3 183 182 123
3 123 182 121
3 182 180 121
3 180 179 121
3 124 119 184
3 119 185 184
3 119 181 185
3 184 126 124
3 128 186 127
3 186 187 127
3 127 187 123
3 187 188 123
3 188 183 123
3 184 185 189
3 189 185 190
3 189 130 126
3 189 126 184
3 192 191 186
3 128 192 186
3 132 192 128
3 186 191 187
3 189 190 193
3 193 190 194
3 195 133 130
3 189 195 130
3 193 195 189
3 195 135 133
3 197 196 137
3 197 137 138
3 132 137 192
3 192 137 196
3 194 198 193
3 200 199 198
3 199 193 198
3 199 195 193
3 201 139 135
3 195 201 135
3 199 201 195
3 201 141 139
3 203 202 147
3 203 147 146
3 138 147 197
3 197 147 202
3 199 200 204
3 204 200 205
3 199 206 201
3 199 204 206
3 207 148 141
3 201 207 141
3 206 207 201
3 208 149 148
3 208 148 207
3 209 150 149
3 209 149 208
3 150 209 210
3 211 150 210
3 151 150 211
3 151 212 152
3 211 212 151
3 146 152 203
3 203 152 212
3 205 213 204
3 204 213 206
3 206 213 214
3 206 214 207
3 207 214 215
3 207 215 208
3 208 215 216
3 208 216 209
3 209 216 217
3 209 217 210
3 220 219 218
3 218 221 220
3 224 223 222
3 154 155 222
3 155 224 222
3 155 225 224
3 226 155 156
3 226 225 155
3 158 218 219
3 226 158 219
3 156 158 226
3 227 221 218
3 158 227 218
3 160 227 158
3 229 228 162
3 228 160 162
3 228 227 160
3 231 230 229
3 229 230 228
3 231 232 230
3 234 233 165
3 165 233 164
3 166 222 223
3 234 166 223
3 165 166 234
3 222 166 154
3 167 229 162
3 229 167 168
3 229 168 231
3 236 235 170
3 170 235 168
3 235 232 168
3 232 231 168
3 236 237 235
3 239 238 173
3 173 238 172
3 173 164 233
3 173 233 239
3 174 236 170
3 174 175 236
3 175 237 236
3 175 240 237
3 238 177 172
3 241 177 238
3 242 240 175
3 242 175 178
3 178 180 242
3 242 180 243
3 241 181 177
3 244 181 241
3 245 243 180
3 245 180 182
3 244 185 181
3 246 185 244
3 187 247 188
3 250 249 248
3 246 250 248
3 190 246 248
3 185 246 190
3 252 251 191
3 252 191 192
3 187 191 247
3 191 253 247
3 191 251 253
3 248 249 254
3 254 249 255
3 254 194 190
3 254 190 248
3 257 256 196
3 257 196 197
3 192 196 252
3 252 196 256
3 254 255 258
3 258 255 259
3 260 198 194
3 254 260 194
3 258 260 254
3 260 200 198
3 262 261 202
3 262 202 203
3 197 202 257
3 257 202 261
3 258 259 263
3 263 259 264
3 258 265 260
3 258 263 265
3 265 205 200
3 265 200 260
3 210 266 211
3 211 266 267
3 268 211 267
3 212 211 268
3 203 212 262
3 262 212 268
3 264 269 263
3 263 269 265
3 265 269 270
3 270 272 271
3 270 271 213
3 265 270 213
3 205 265 213
3 273 214 213
3 273 213 271
3 274 215 214
3 274 214 273
3 275 216 215
3 275 215 274
3 216 275 276
3 277 216 276
3 217 216 277
3 210 217 266
3 217 278 266
3 217 277 278
3 266 278 267
3 281 280 279
3 283 282 279
3 279 282 281
3 219 220 283
3 220 282 283
3 220 284 282
3 286 285 221
3 285 220 221
3 285 284 220
3 288 287 286
3 286 287 285
3 288 289 287
3 292 291 290
3 223 224 290
3 224 292 290
3 224 293 292
3 225 279 280
3 293 225 280
3 224 225 293
3 279 225 226
3 279 226 283
3 283 226 219
3 227 286 221
3 286 227 228
3 286 228 288
3 294 289 288
3 228 294 288
3 230 294 228
3 230 232 294
3 294 232 295
3 290 291 234
3 291 233 234
3 291 296 233
3 290 234 223
3 297 295 232
3 297 232 235
3 235 237 297
3 297 237 298
3 300 299 239
3 239 299 238
3 239 233 296
3 239 296 300
3 240 298 237
3 240 301 298
3 299 241 238
3 302 241 299
3 303 301 240
3 303 240 242
3 242 243 303
3 303 243 304
3 307 306 305
3 302 307 305
3 244 302 305
3 241 302 244
3 243 245 308
3 309 243 308
3 304 243 309
3 305 306 310
3 310 306 311
3 310 246 244
3 310 244 305
3 314 313 312
3 312 313 309
3 308 312 309
3 315 312 308
3 310 311 250
3 311 249 250
3 311 316 249
3 310 250 246
3 314 312 251
3 252 314 251
3 317 314 252
3 251 312 253
3 253 312 315
3 320 319 318
3 316 320 318
3 255 316 318
3 249 316 255
3 322 321 256
3 322 256 257
3 252 256 317
3 317 256 321
3 318 319 323
3 323 319 324
3 323 259 255
3 323 255 318
3 326 325 261
3 326 261 262
3 257 261 322
3 322 261 325
3 323 324 327
3 327 324 328
3 327 264 259
3 327 259 323
3 330 329 268
3 330 268 267
3 262 268 326
3 326 268 329
3 328 331 327
3 331 333 332
3 331 332 269
3 327 331 269
3 264 327 269
3 334 270 269
3 334 269 332
3 334 272 270
3 276 335 277
3 277 335 336
3 337 277 336
3 278 277 337
3 267 278 330
3 330 278 337
3 340 339 338
3 338 341 340
3 344 343 342
3 344 342 339
3 342 338 339
3 342 345 338
3 341 338 346
3 338 347 346
3 338 345 347
3 347 348 346
3 351 350 349
3 280 281 349
3 281 351 349
3 281 352 351
3 282 342 343
3 352 282 343
3 281 282 352
3 342 282 284
3 342 284 345
3 345 284 285
3 345 285 347
3 353 348 347
3 285 353 347
3 287 353 285
3 287 289 353
3 353 289 354
3 356 355 292
3 292 355 291
3 293 349 350
3 356 293 350
3 292 293 356
3 349 293 280
3 357 354 289
3 357 289 294
3 294 295 357
3 357 295 358
3 355 296 291
3 359 296 355
3 360 358 295
3 360 295 297
3 297 298 360
3 360 298 361
3 363 362 300
3 300 362 299
3 300 296 359
3 300 359 363
3 301 361 298
3 301 364 361
3 362 302 299
3 365 302 362
3 301 303 366
3 367 301 366
3 364 301 367
3 304 366 303
3 369 368 307
3 307 368 306
3 307 302 365
3 307 365 369
3 367 366 370
3 367 370 371
3 309 370 304
3 304 370 366
3 374 373 372
3 368 374 372
3 311 368 372
3 306 368 311
3 371 370 313
3 314 371 313
3 375 371 314
3 313 370 309
3 372 373 376
3 376 373 377
3 376 316 311
3 376 311 372
3 380 379 378
3 379 375 378
3 375 317 378
3 375 314 317
3 383 382 381
3 383 381 377
3 377 381 376
3 381 319 376
3 319 320 376
3 376 320 316
3 380 378 321
3 322 380 321
3 384 380 322
3 321 378 317
3 381 382 385
3 385 382 386
3 385 324 319
3 385 319 381
3 388 387 325
3 388 325 326
3 322 325 384
3 384 325 387
3 386 389 385
3 324 385 389
3 390 324 389
3 328 324 390
3 392 391 329
3 392 329 330
3 326 329 388
3 388 329 391
3 390 393 328
3 328 393 331
3 333 331 393
3 333 393 394
3 397 396 395
3 337 336 395
3 396 337 395
3 398 337 396
3 330 337 392
3 392 337 398
3 400 399 340
3 340 399 339
3 340 341 400
3 400 341 401
3 403 402 344
3 344 402 343
3 344 339 399
3 344 399 403
3 404 401 341
3 404 341 346
3 346 348 404
3 404 348 405
3 406 350 351
3 406 351 407
3 351 408 407
3 351 352 408
3 352 343 402
3 352 402 408
3 409 405 348
3 409 348 353
3 353 354 409
3 409 354 410
3 412 411 356
3 356 411 355
3 356 350 406
3 413 356 406
3 412 356 413
3 413 406 407
3 414 410 354
3 414 354 357
3 357 358 414
3 414 358 415
3 411 359 355
3 416 359 411
3 417 415 358
3 417 358 360
3 360 361 417
3 417 361 418
3 420 419 363
3 363 419 362
3 363 359 416
3 363 416 420
3 364 418 361
3 364 421 418
3 424 423 422
3 419 424 422
3 365 419 422
3 362 419 365
3 367 421 364
3 367 425 421
3 422 423 369
3 423 368 369
3 423 426 368
3 422 369 365
3 371 425 367
3 371 427 425
3 429 428 374
3 374 428 373
3 374 368 426
3 374 426 429
3 432 431 430
3 431 427 430
3 427 375 430
3 427 371 375
3 435 434 433
3 428 435 433
3 377 428 433
3 373 428 377
3 432 430 379
3 380 432 379
3 436 432 380
3 379 430 375
3 439 438 437
3 439 437 434
3 434 437 433
3 437 382 433
3 382 383 433
3 433 383 377
3 442 441 440
3 441 436 440
3 436 384 440
3 436 380 384
3 437 438 443
3 443 438 444
3 443 386 382
3 443 382 437
3 442 440 387
3 388 442 387
3 445 442 388
3 387 440 384
3 444 446 443
3 446 448 447
3 446 447 389
3 443 446 389
3 386 443 389
3 447 390 389
3 450 449 391
3 450 391 392
3 388 391 445
3 445 391 449
3 448 451 447
3 447 451 390
3 451 393 390
3 451 452 393
3 394 393 452
3 394 452 453
3 456 455 454
3 396 397 454
3 455 396 454
3 457 396 455
3 396 458 398
3 457 458 396
3 392 398 450
3 450 398 458
3 459 399 400
3 401 459 400
3 460 402 403
3 399 459 403
3 459 460 403
3 459 461 460
3 404 462 401
3 462 459 401
3 462 461 459
3 405 462 404
3 464 463 408
3 408 463 407
3 408 402 460
3 465 408 460
3 464 408 465
3 465 460 461
3 465 461 466
3 466 461 462
3 466 462 467
3 467 462 405
3 409 467 405
3 468 467 409
3 409 410 468
3 468 410 469
3 470 411 412
3 470 412 471
3 412 472 471
3 412 413 472
3 413 407 463
3 413 463 472
3 473 469 410
3 473 410 414
3 414 415 473
3 473 415 474
3 476 475 470
3 475 411 470
3 475 416 411
3 476 470 471
3 415 417 477
3 478 415 477
3 474 415 478
3 418 477 417
3 480 479 420
3 420 479 419
3 420 416 475
3 420 475 480
3 478 477 481
3 478 481 482
3 421 481 418
3 418 481 477
3 484 483 424
3 424 483 423
3 424 419 479
3 424 479 484
3 482 481 485
3 482 485 486
3 425 485 421
3 421 485 481
3 489 488 487
3 483 489 487
3 426 483 487
3 423 483 426
3 486 485 490
3 486 490 491
3 427 490 425
3 425 490 485
3 494 493 492
3 494 492 488
3 488 492 487
3 492 428 487
3 428 429 487
3 487 429 426
3 491 490 431
3 432 491 431
3 495 491 432
3 431 490 427
3 498 497 496
3 498 496 493
3 493 496 492
3 496 434 492
3 434 435 492
3 492 435 428
3 501 500 499
3 500 495 499
3 495 436 499
3 495 432 436
3 496 497 439
3 497 438 439
3 497 502 438
3 496 439 434
3 501 499 441
3 442 501 441
3 503 501 442
3 441 499 436
3 505 444 504
3 444 502 504
3 444 438 502
3 506 505 504
3 509 508 507
3 508 503 507
3 503 445 507
3 503 442 445
3 505 446 444
3 511 510 448
3 511 448 446
3 506 511 446
3 505 506 446
3 512 510 511
3 515 514 513
3 517 516 513
3 517 513 514
3 516 517 509
3 516 509 507
3 450 516 507
3 449 450 507
3 449 507 445
3 510 451 448
3 512 518 510
3 518 451 510
3 518 452 451
3 520 519 453
3 452 520 453
3 518 520 452
3 522 521 519
3 522 519 520
3 523 521 522
3 525 524 455
3 525 455 456
3 513 457 515
3 457 524 515
3 457 455 524
3 457 513 458
3 458 513 516
3 458 516 450
3 526 463 464
3 465 527 464
3 464 527 526
3 466 528 465
3 465 528 527
3 467 529 466
3 466 529 528
3 468 530 467
3 467 530 529
3 469 530 468
3 531 471 472
3 463 526 472
3 526 531 472
3 526 532 531
3 533 526 527
3 532 526 533
3 534 527 528
3 533 527 534
3 535 528 529
3 534 528 535
3 536 529 530
3 535 529 536
3 473 537 469
3 537 530 469
3 537 536 530
3 474 537 473
3 539 538 476
3 476 538 475
3 476 471 531
3 540 476 531
3 539 476 540
3 540 531 532
3 540 532 541
3 541 532 533
3 541 533 542
3 542 533 534
3 542 534 543
3 543 534 535
3 543 535 544
3 544 535 536
3 544 536 545
3 547 546 545
3 536 547 545
3 537 547 536
3 478 547 474
3 474 547 537
3 549 548 480
3 480 548 479
3 480 475 538
3 480 538 549
3 546 547 550
3 546 550 551
3 482 550 478
3 478 550 547
3 553 552 484
3 484 552 483
3 484 479 548
3 484 548 553
3 554 551 550
3 550 482 554
3 482 555 554
3 482 486 555
3 557 556 489
3 489 556 488
3 489 483 552
3 489 552 557
3 560 559 558
3 559 555 558
3 555 491 558
3 555 486 491
3 562 561 494
3 494 561 493
3 494 488 556
3 494 556 562
3 560 558 563
3 560 563 564
3 495 563 491
3 491 563 558
3 566 565 498
3 498 565 497
3 498 493 561
3 498 561 566
3 564 563 500
3 501 564 500
3 567 564 501
3 500 563 495
3 569 502 568
3 502 565 568
3 502 497 565
3 570 569 568
3 573 572 571
3 572 567 571
3 567 503 571
3 567 501 503
3 569 504 502
3 506 504 569
3 570 506 569
3 574 506 570
3 577 576 575
3 575 576 573
3 575 573 571
3 509 575 571
3 508 509 571
3 508 571 503
3 574 578 506
3 506 578 511
3 580 579 512
3 511 580 512
3 578 580 511
3 582 581 579
3 582 579 580
3 583 581 582
3 586 585 584
3 588 587 584
3 588 584 585
3 514 515 587
3 588 514 587
3 589 514 588
3 575 517 577
3 517 589 577
3 517 514 589
3 517 575 509
3 579 518 512
3 518 579 520
3 520 579 581
3 583 590 581
3 590 520 581
3 590 522 520
3 592 591 523
3 522 592 523
3 590 592 522
3 594 593 591
3 594 591 592
3 593 594 586
3 584 593 586
3 595 593 584
3 525 595 524
3 595 587 524
3 595 584 587
3 524 587 515
3 596 538 539
3 540 597 539
3 539 597 596
3 541 598 540
3 540 598 597
3 542 599 541
3 541 599 598
3 543 600 542
3 542 600 599
3 544 601 543
3 543 601 600
3 545 602 544
3 544 602 601
3 546 602 545
3 604 603 549
3 549 603 548
3 549 538 596
3 605 549 596
3 604 549 605
3 605 596 597
3 605 597 606
3 606 597 598
3 606 598 607
3 607 598 599
3 607 599 608
3 608 599 600
3 608 600 609
3 609 600 601
3 609 601 610
3 612 611 610
3 601 612 610
3 602 612 601
3 551 612 546
3 546 612 602
3 614 613 553
3 553 613 552
3 553 548 603
3 553 603 614
3 611 612 615
3 611 615 616
3 554 617 551
3 617 612 551
3 617 615 612
3 555 617 554
3 620 619 618
3 556 557 618
3 557 620 618
3 557 621 620
3 557 552 613
3 557 613 621
3 622 616 615
3 560 623 559
3 623 615 559
3 615 617 559
3 623 622 615
3 559 617 555
3 618 619 562
3 619 561 562
3 619 624 561
3 618 562 556
3 564 623 560
3 564 625 623
3 626 565 566
3 627 626 566
3 561 627 566
3 624 627 561
3 630 629 628
3 629 625 628
3 625 567 628
3 625 564 567
3 626 568 565
3 570 568 626
3 627 570 626
3 631 570 627
3 634 633 632
3 632 633 630
3 632 630 628
3 573 632 628
3 572 573 628
3 572 628 567
3 636 574 635
3 574 631 635
3 574 570 631
3 638 637 636
3 638 636 635
3 639 637 638
3 642 641 640
3 644 643 640
3 644 640 641
3 643 644 634
3 643 634 632
3 577 643 632
3 576 577 632
3 576 632 573
3 636 578 574
3 578 636 580
3 580 636 637
3 639 645 637
3 645 580 637
3 645 582 580
3 647 646 583
3 582 647 583
3 645 647 582
3 649 648 646
3 649 646 647
3 651 650 648
3 651 648 649
3 585 586 650
3 651 585 650
3 652 585 651
3 640 588 642
3 588 652 642
3 588 585 652
3 588 640 589
3 589 640 643
3 589 643 577
3 646 590 583
3 590 646 592
3 592 646 648
3 592 648 594
3 594 648 650
3 594 650 586
3 653 603 604
3 605 654 604
3 604 654 653
3 606 655 605
3 605 655 654
3 607 656 606
3 606 656 655
3 608 657 607
3 607 657 656
3 609 658 608
3 608 658 657
3 610 659 609
3 609 659 658
3 611 659 610
3 661 660 614
3 614 660 613
3 614 603 653
3 662 614 653
3 661 614 662
3 662 653 654
3 662 654 663
3 663 654 655
3 663 655 664
3 664 655 656
3 664 656 665
3 665 656 657
3 665 657 666
3 666 657 658
3 666 658 667
3 669 668 667
3 658 669 667
3 659 669 658
3 616 669 611
3 611 669 659
3 670 619 620
3 670 620 671
3 620 672 671
3 620 621 672
3 621 613 660
3 621 660 672
3 668 669 673
3 668 673 674
3 622 675 616
3 675 669 616
3 675 673 669
3 623 675 622
3 676 624 670
3 670 624 619
3 670 671 677
3 670 677 676
3 678 674 673
3 680 679 678
3 673 680 678
3 675 680 673
3 625 680 623
3 623 680 675
3 681 627 676
3 676 627 624
3 676 677 682
3 676 682 681
3 685 684 683
3 687 686 683
3 687 683 684
3 686 687 679
3 686 679 680
3 630 686 680
3 629 630 680
3 629 680 625
3 688 631 681
3 681 631 627
3 681 682 689
3 681 689 688
3 685 683 690
3 685 690 691
3 634 690 633
3 690 686 633
3 690 683 686
3 633 686 630
3 688 635 631
3 689 692 688
3 692 635 688
3 692 638 635
3 694 693 639
3 638 694 639
3 692 694 638
3 696 695 693
3 696 693 694
3 698 697 695
3 698 695 696
3 700 699 697
3 700 697 698
3 702 701 699
3 702 699 700
3 641 642 701
3 702 641 701
3 703 641 702
3 690 644 691
3 644 703 691
3 644 641 703
3 644 690 634
3 693 645 639
3 645 693 647
3 647 693 695
3 647 695 649
3 649 695 697
3 649 697 651
3 651 697 699
3 651 699 652
3 652 699 701
3 652 701 642
3 704 660 661
3 662 705 661
3 661 705 704
3 663 706 662
3 662 706 705
3 664 707 663
3 663 707 706
3 665 708 664
3 664 708 707
3 666 709 665
3 665 709 708
3 667 710 666
3 666 710 709
3 668 710 667
3 711 671 672
3 660 704 672
3 704 711 672
3 704 712 711
3 705 714 713
3 712 705 713
3 704 705 712
3 714 705 706
3 714 706 715
3 715 706 707
3 715 707 716
3 718 717 716
3 707 718 716
3 708 718 707
3 719 708 709
3 718 708 719
3 720 709 710
3 719 709 720
3 674 720 668
3 668 720 710
3 721 677 711
3 711 677 671
3 712 723 722
3 721 712 722
3 711 712 721
3 723 712 713
3 717 718 724
3 717 724 725
3 726 718 719
3 724 718 726
3 727 719 720
3 726 719 727
3 678 728 674
3 728 720 674
3 728 727 720
3 679 728 678
3 729 682 721
3 721 682 677
3 721 722 730
3 721 730 729
3 725 724 731
3 725 731 732
3 733 724 726
3 731 724 733
3 685 733 684
3 733 727 684
3 733 726 727
3 684 727 687
3 687 727 728
3 687 728 679
3 734 689 729
3 729 689 682
3 729 730 735
3 736 729 735
3 734 729 736
3 738 737 736
3 738 736 735
3 740 739 737
3 740 737 738
3 742 741 739
3 742 739 740
3 741 742 732
3 731 741 732
3 743 741 731
3 744 731 733
3 743 731 744
3 691 744 685
3 685 744 733
3 734 692 689
3 692 734 694
3 694 734 736
3 694 736 696
3 696 736 737
3 696 737 698
3 698 737 739
3 698 739 700
3 700 739 741
3 700 741 702
3 702 741 743
3 702 743 703
3 703 743 744
3 703 744 691
3 745 713 714
3 715 746 714
3 714 746 745
3 716 747 715
3 715 747 746
3 717 747 716
3 749 748 723
3 723 748 722
3 723 713 745
3 750 723 745
3 749 723 750
3 750 745 746
3 750 746 751
3 753 752 751
3 746 753 751
3 747 753 746
3 725 753 717
3 717 753 747
3 755 730 754
3 730 748 754
3 730 722 748
3 757 756 755
3 757 755 754
3 759 758 756
3 759 756 757
3 758 759 752
3 753 758 752
3 760 758 753
3 732 760 725
3 725 760 753
3 755 735 730
3 735 755 738
3 738 755 756
3 738 756 740
3 740 756 758
3 740 758 742
3 742 758 760
3 742 760 732