OFF
558 1078 0
1.8505058206 2.6793046241 6.9206570750
1.8934183566 2.7322706153 6.6589929959
2.0553134516 2.4859000528 6.7850454017
2.1214215122 2.4887075570 7.0940640616
1.8550032543 2.9451320118 6.8673044777
2.0446769761 3.0843434960 6.5344018018
2.0896846729 2.8471809002 7.2800329542
2.1320201749 3.3698347483 7.0637072764
2.3909925196 2.5641884707 6.3257415618
2.6976911074 2.1690699350 6.9955469704
2.5580454131 2.4390713720 7.4989664604
2.3283869262 3.1568485955 6.1040333006
2.6385874286 3.4770104413 5.7556271865
2.6410984726 2.9398759159 5.7346686390
2.6629579040 2.8141029780 7.8921542120
2.3249475289 3.2192946660 7.6177070634
2.7054301329 3.3097378376 8.0560176168
2.4104975885 3.7063697769 6.4098907502
2.4696752834 3.9340164265 7.1377558879
2.5260917270 3.6745033085 7.6907538787
3.2024031864 1.8954174391 6.3648164128
3.6116646256 1.7046322650 5.8213918722
4.0195118686 1.4226835622 6.2605973552
3.8210406581 1.6229086491 7.0880094788
3.5305863518 2.4624649540 4.8811166148
3.7330134843 2.8761363096 4.3334773385
4.0911209532 2.2457991307 4.3845191920
3.9067041737 1.8337916084 5.1389116630
3.1257053505 2.3297305265 5.6092344367
3.3686772964 2.0997037441 7.7409016919
2.9271815786 2.4279815832 7.8761084657
3.3243023975 2.5086945909 8.2187715734
3.1515726103 3.2435487828 5.0894641285
3.6522100141 3.6055325234 4.3003460914
3.2146201821 3.0389873824 8.4280774640
3.1552624618 3.7648145502 8.4019683173
3.8830292629 3.2523280009 8.9214331852
3.4072038888 4.0315324678 4.7811495661
3.6934139386 4.1449622829 4.3550174011
3.0575109839 4.2731255031 5.6972230141
2.8220319618 4.4395311934 6.8384156162
2.8662448657 4.2824253153 7.7078947993
3.3651514263 4.5981708977 8.4133527764
3.9422295582 4.1383377965 9.1404402584
3.7913415333 4.7633432196 4.7287185971
3.4849715609 5.1382121976 5.7249737477
3.2619059794 5.1048160670 6.5321792534
3.6419297886 5.6484479397 6.2495624362
3.2522722636 5.0616562994 7.5869699699
3.5553956162 5.2323274071 8.3760052467
3.7903414126 4.9418048183 8.9179382995
3.6300641414 5.7513474207 7.1001763469
3.6593006485 5.6708636277 7.9559385591
4.1451352855 1.4292864384 5.6452703738
4.5236889013 1.4165304296 5.1847507987
4.9400904806 1.1845405444 5.7330015346
4.7132478539 1.2430186371 6.7320786668
4.6517387358 1.3855198280 7.4024135505
4.2148641963 2.6479817237 3.8990563676
4.6146810454 2.8355662359 3.5075591261
4.7453724782 2.2793328685 3.8075784109
4.7501732176 1.7050144949 4.4828184425
4.3898267240 1.7235752174 7.8518975751
4.1336676940 2.2158750453 8.3621046752
3.8160974990 2.6925995861 8.6521846657
4.6068924810 2.6496407273 8.9154236185
4.1407104926 3.2375575964 3.7822222716
4.7824711186 3.5120937030 3.2529862919
4.7696511003 3.3784397859 9.4643724446
4.1518302751 4.0680741517 3.8509561214
4.6820559651 4.1894637428 3.3445753477
4.6327330471 4.1081097276 9.7297675245
4.4044410480 4.9525460827 9.5640031816
5.1620390644 4.4209126796 10.1161057675
4.6619442102 4.9110806813 3.6929390522
4.3627283794 5.5790146869 4.5601558213
4.7209203630 5.5753876365 4.0106059976
3.9322883632 5.6622533938 5.4772706559
4.0139975821 5.6865795729 8.7623170540
4.5746298951 5.9319130394 9.5345618408
5.1999246776 5.4526940119 10.2320475946
4.8800046645 6.0901097973 4.3290505722
4.4678397888 6.2463709160 5.2262359055
4.8418141698 6.5472257965 4.9299397257
4.1461275202 6.3128915264 6.3804944083
4.1202016792 6.3643311044 7.7908957238
4.4406717476 6.5038696853 8.8473651329
4.7758759483 6.6203637609 9.4834357721
5.0474225250 6.3331428795 9.9747926348
4.9415089046 7.0254333940 5.6305744630
4.6386433825 7.1250130706 7.0803114835
4.6860987626 7.1674315257 8.2274966834
4.8513758275 7.1014729448 9.0547869692
5.0879098644 1.3068533083 4.9328797857
5.4937990995 1.4311255861 4.3983952398
5.8304787992 1.1760748598 4.9466683818
5.7466418329 1.0647940330 5.6577760659
5.6885340044 1.1231285592 6.3901311298
5.3135134876 1.2644893593 7.2630057741
5.0744814236 1.4906255820 7.7944535263
5.6510488016 1.4850596573 7.7462941710
5.3753440362 2.6968868365 3.1818262430
5.6100494623 1.8699959620 3.7411899308
5.3242740070 1.9571117121 8.3560127391
5.7533642149 2.6884809953 9.2027095377
5.4814665243 3.4201268956 2.8028684404
5.9729442908 3.7455615639 2.5068331500
6.1376174215 3.0214630868 2.6343377516
5.6203774706 3.3040987135 9.7785105005
5.1716168840 3.7629513858 9.9359997790
5.8876319976 3.8006313658 10.1637782123
5.2953473325 4.2137771639 2.9170963740
6.2672824793 4.6019267674 2.4442070600
6.0285799648 4.6239271823 10.5945696561
5.4747013454 5.1000138422 3.0282767751
5.1305998081 5.6029676500 3.5872825180
5.5654352004 5.6289947302 3.1871431434
5.9390135692 5.5276748081 10.8041386327
5.6374290506 6.1883365654 3.5837927858
5.2640060583 6.6761521942 4.5022611534
5.6924270782 6.7511152649 4.0349784087
5.3190355130 7.1844091221 9.7742850652
5.7411222625 6.4821767298 10.5781723910
5.7958017140 7.2903808672 4.5503306398
5.5737923372 7.8354776888 5.5987593323
5.9215242427 7.8590600181 5.0011127437
5.2098921857 7.8332911245 6.6570971191
5.0496967100 7.7593257804 7.6710962048
5.3577640828 7.9373820873 8.7703896359
5.7468749463 7.9987848047 9.7295146896
6.2009686272 7.7652733208 10.5364477947
6.1569918933 8.3213801963 5.3162494168
5.7809672211 8.4450605799 6.3055092941
6.2779578866 8.8089919602 5.9019157310
5.6605961780 8.5234681234 7.4973114235
6.0990324935 8.9795618508 8.6044749032
5.9693826496 8.5875656918 9.3802758529
6.2185698388 8.4580766766 10.0163903515
6.2570636502 9.0496258119 6.6666519961
6.3751872133 9.3428438411 7.6007319587
6.1833932174 1.4422823606 4.0613923865
6.7762811326 1.2511337859 4.4318619915
6.5622438984 1.1254222477 5.5155395764
6.5023063244 1.2192794345 6.4244788657
7.0839926310 1.2824670984 6.0276465497
6.1042975312 1.3276366423 7.1405690729
6.3781999332 2.2033365318 3.0813535325
6.3050900142 1.7255544118 3.5526288776
7.0671502284 1.5326962440 6.8530417246
6.3623914649 1.7028184245 7.8031285116
6.5117937053 2.1740265610 8.5373180578
6.7950842708 2.5874551755 9.0757511390
6.8522741696 3.5467239743 2.2308677914
6.8735267764 2.6967310104 2.5419366239
6.6159031770 3.1433052584 9.7049229369
6.9097646781 3.8456822142 10.3751108520
7.2256991605 4.4454861078 1.9985365895
6.8669167943 4.4744435260 10.8623410441
6.5789692233 5.1398284861 11.1037459444
7.2126735407 4.8136882992 11.1791330388
6.0827643497 5.5762799662 2.8301112900
7.1883193012 5.6209180109 2.2514268425
6.4739461831 6.0750347851 11.2139301976
7.2725520902 5.5890665280 11.5604669032
6.4614042353 6.2809634804 2.9688492783
6.1478272560 6.7820226645 3.6066816889
6.6160264690 6.7811488238 3.1767755204
6.4957548152 7.0846841562 11.1557727976
7.1920106724 6.7716961202 11.7475167538
6.7221090139 7.3352908387 3.5977223048
6.3651922348 7.8704594818 4.4866646904
6.8324521795 7.8911347342 4.0115923325
6.6332048101 7.7137871263 11.1048290075
7.0866467833 7.6918749276 11.4756022009
6.9737758326 8.3899568832 4.4671452482
6.6359458897 8.7714068585 5.3043120828
7.1389662610 8.9186426594 4.9813497983
6.2703858705 9.0386782299 9.2598956551
6.4900257592 9.0003456714 9.7483449695
6.9706485944 8.8440478051 10.5172017896
6.9527503645 8.2337633748 11.0773632306
6.9250611443 9.2092912460 5.7687993377
6.9823154518 9.6596734652 6.7478549872
6.9332729029 9.8570091852 7.5953648214
7.3755303744 10.0888434392 7.1837355359
6.7672897847 9.7050826803 8.3392168515
6.7408935985 9.4849345583 9.2201398413
7.0564761561 9.4239328665 9.9233252230
7.5283294484 10.2621478810 8.0052813907
6.9240177230 1.6218220757 3.5485012071
7.6864365639 1.6947659732 3.2937388633
7.5548102095 1.3949298697 3.9330496651
7.4173188936 1.2312880526 4.7480253109
7.3858874220 1.2505414485 5.4250957752
7.9078037849 1.3652796825 5.0026683377
7.3276302636 2.1253178869 2.8678802587
7.6907460533 2.7922669994 2.3149177125
8.3040247707 2.0975162457 2.8701666934
7.8713755318 1.5281223276 5.8001520652
8.0812235179 1.9070815701 6.6998366215
7.4033883395 2.0331344059 7.7712073301
7.2985600799 2.3716258047 8.5764710180
7.9625704025 2.4572126469 8.1960088203
7.9890839809 3.7198975489 1.8074514136
7.6898681208 2.8230081624 9.0026786609
7.6161015541 3.3521832444 9.8218652249
7.6464424190 3.7101244523 10.2801731849
8.0099224479 4.8134442215 1.6755187863
7.7625795370 4.2267214416 10.6841532600
7.7678095498 4.9127027348 11.2987647087
8.3808134176 5.7834112544 1.6973657949
8.2297416802 5.4611757736 11.7084557321
7.8294977694 6.2530762153 12.1522567597
8.4187875618 5.9712131051 12.2286296901
7.1216171448 6.6968038742 2.7875172096
8.1425267963 6.7342736018 2.2432941764
7.7319757544 7.0291156547 12.2470494023
8.3939989560 6.3218786401 12.4698212315
7.9840403240 6.8930105707 12.4832597160
7.6134510197 7.3652533893 2.9181997599
7.3449190237 7.8982399763 3.5854612762
8.0003456154 7.8815806392 3.0836387913
8.0731547462 7.5476486796 12.4628996507
7.8248359393 7.7906978146 12.0106724605
8.1538311933 7.4698021917 12.6060569810
7.9719653175 8.4126369493 3.6891943493
7.6111807929 8.8139198640 4.4252275106
8.3316322903 8.9796330943 4.1447841325
7.3800271415 8.7286169468 11.0841463736
7.6583852953 8.4510404220 11.4845426720
7.7608329631 9.2274039330 4.9344534447
7.8270707899 9.7225111185 5.7462264720
7.6488257458 10.0435107818 6.5567927948
8.2047086097 10.1531574497 6.1390131202
7.3125648273 10.0417786598 8.8780221427
7.5240110493 9.9425300318 9.6123650551
7.7205076045 9.6387361071 10.3461197472
8.0069379551 9.1945454946 11.0839862903
8.1078737148 10.4256930410 6.9534325863
8.3699500533 10.8290868030 7.8823422244
8.2439406482 10.5864268809 9.0989605506
8.2517385681 10.1900573164 10.0240969981
8.1505194741 1.6116941127 3.5595752669
8.1258180892 1.4420388151 4.2631461978
8.8480625863 2.8806741066 2.0636383147
9.4095691023 2.2638818795 2.7805874704
8.9003193474 1.8179750727 3.6977636787
8.5926183269 1.6479602267 4.8085546249
8.8807562472 1.9595047194 5.6899803584
8.8043031230 2.1960367551 6.5431587910
9.3544286734 2.2995707124 6.0588456886
8.4143959745 2.3213510745 7.3719596218
8.8404701290 3.5725863024 1.5349365079
9.2726980065 3.9114494617 1.2776584848
9.5732903393 3.3749682919 1.5390162484
9.2793882194 2.5488516991 6.7996896710
8.8997834609 2.8960925076 8.0414006998
8.4604880553 3.2747412819 9.2400245655
8.2345650406 3.6606666789 9.9749343039
8.7864724825 3.6103730598 9.5411902257
8.6819492136 4.2526829745 1.3887511071
9.3925728262 4.5598605627 1.1498934668
8.9832149764 4.1090581493 9.9745371824
8.5346588834 4.7415234185 10.9624528837
9.3442184910 4.7095063104 10.4793788819
8.8321254427 5.0991731434 1.3372590712
9.6336594261 5.3487382185 1.1402322734
9.2510829898 5.3195388535 11.2217843838
8.8758214791 5.7782413483 11.9533804387
9.6688853412 6.1054458087 11.8190122252
9.1478804851 5.8053113921 1.3735940019
9.1680602566 6.5220842128 1.6955379146
9.0475634702 6.2525746028 12.3753125958
8.9624529361 6.4156926443 12.5828552955
8.3473275144 7.5324345725 2.6117217275
9.2623770566 7.4651021630 2.2550785218
8.4198419598 8.1574340558 12.3554342119
8.5071388809 8.0343203416 12.5867879305
8.7124324168 8.0823707698 2.9329907122
8.8809571774 8.6799110130 3.4858511329
8.9159429637 9.0762529241 3.9320679314
8.9294558714 8.5367203280 12.4601616286
8.7707059691 8.8313403873 11.9034054103
8.9881623727 8.4631454778 12.6058495261
8.9046251376 9.5304061977 4.6225257476
8.6162644246 10.0066626533 5.5085753329
9.2475758380 10.0673762233 5.1852549365
8.9375010250 9.5767165671 11.2646054208
8.5953219497 9.9287915122 10.6852431147
8.9806666805 10.4235216642 5.9959400653
8.9636336489 10.9417220759 6.9301827909
8.8343680814 11.2260337029 7.7044796039
9.2232484801 11.3534873527 7.2226809719
8.8147584196 11.2562444521 8.5588591641
9.1702270065 11.1603716949 9.4505774233
9.2277894750 10.5868227675 10.2185899528
9.0117275807 11.4530607624 7.9050903470
9.3116574756 11.4857525765 7.3157145114
9.0769094943 11.5450525837 8.6886649469
9.2232191949 11.4957485437 9.1072004667
10.2128792208 2.8280387273 2.1467333374
10.2898497890 2.3423252821 2.8545449365
9.8043802391 2.0840768404 3.4322497330
9.6887981052 2.0518580403 4.4675489839
9.6741008238 2.2378377392 5.3971084688
10.2400573843 2.3670167325 4.9468571121
10.0483594557 4.0430820383 1.1898806846
10.3478580496 3.4393400747 1.5154381675
10.1017705093 2.6040778443 5.8150792568
10.0676182039 3.0358610470 6.8858974014
9.8350972693 3.3295935923 7.8130429021
10.4791255515 3.4615897801 7.2470418477
9.3504613386 3.5662286007 8.8384753040
10.1082678349 4.8258943283 1.0422436301
10.3217203142 3.7614909713 8.0239784950
10.0234027697 4.1764888601 9.1015421804
9.7561346574 4.4977189401 9.8792316174
10.1719301100 4.5678487029 9.5684121463
10.6203284963 5.5862984800 1.0666825143
10.2628686710 5.0632919257 10.1144541285
10.0738927430 5.6797490058 11.0679901159
10.5327587617 6.3106821889 11.3195125321
9.9090202611 6.1440029000 1.3054645868
10.3111757879 7.0042361907 1.6844928300
9.7302954854 6.6451477356 12.3302591708
10.3673192955 7.0097701160 11.9763818193
9.5512854476 6.7404159020 12.5836612780
10.4026530633 7.7871380963 2.2464033724
10.0736897616 7.1926640608 12.4972560198
9.9812199034 7.2171249872 12.6533613981
9.7951678184 8.3629379169 2.8870941859
9.5496931872 9.0390785342 3.6762554963
10.5753732319 8.9393805697 3.3746929284
9.2938545224 8.8205918947 12.3271001560
9.4705301045 8.7471505906 12.4854942105
10.2217593218 9.5249172851 4.1430680027
9.7532035167 9.9117080799 4.7253478300
10.3930132131 9.9792495018 4.6794479970
9.3577329825 10.0555855988 10.9481238501
9.8095936334 9.6069379754 11.4708933016
9.8552104443 8.9734484530 12.1378376029
10.0914098161 8.6907773767 12.4264772497
10.0171117985 10.3283978886 5.3199969407
9.8288846004 10.8321067245 6.1604821606
9.6205091456 11.2000642806 6.6853520779
10.3788088531 11.1838174509 6.4139893528
10.2545917631 10.8595895909 10.4318325420
9.7856618933 11.1456314746 9.9937056398
10.0477497348 10.3113496395 10.8844500478
9.8213054849 11.4015730073 6.8286570795
10.7155408174 11.3995549435 6.6296602102
9.3473648637 11.6009824617 9.1536888802
9.7424764935 11.4554366321 9.6499461043
10.7077118016 2.5716928049 2.5816652262
10.8625587392 2.4788075681 2.9416067766
10.5503897579 2.2905503448 3.5742789013
10.5630083316 2.3543403578 4.3187726114
11.0783837093 2.5492766552 3.9157517000
10.8256240428 3.8855720960 1.3168020786
11.1285961927 3.4375478170 1.7827491535
11.3443113989 2.9440510210 2.6237132620
10.9770757887 2.7186767047 4.7697296379
10.9718044855 3.1151475390 5.8551422429
10.8232009442 3.3730997382 6.6249483694
11.2152140562 3.4509741575 6.2768578414
10.9721770411 4.6685893952 1.0856772498
11.6516763984 4.1519115695 1.4137016822
11.3060900321 3.8558010399 6.9012073857
10.8653377252 4.2650566776 8.2276833715
10.6419318116 4.6198285408 9.0913131233
11.1452486147 4.6399125118 8.5053916222
11.4909493013 5.4251114596 1.0196226062
11.3571292254 5.1056620620 8.9488719438
11.1109398756 5.5085248516 9.8466136051
11.6844487849 5.6533428720 9.3678287760
10.7820675352 5.8011702666 10.5772576323
10.7358778104 6.3971111251 1.2685977869
11.6117654901 6.1850694477 1.1668302940
11.5329631618 6.0034931066 10.0171591299
11.2672573621 6.4321151465 10.7655221623
11.0974039583 7.0612132828 11.3315830664
11.3099190284 6.8556096656 1.4786358202
11.4956434052 7.5573757326 2.0167965776
10.4525126453 7.8088924056 12.3297720962
10.9558058787 8.0282095960 11.7139386694
10.2558384274 7.6530141697 12.5880015367
11.1734348846 8.3595270714 2.7551578323
11.4428037441 8.8969976699 3.3407750911
10.4634091171 8.5383987620 12.2006321603
10.7345117846 9.1735754730 11.5741653822
10.3663712584 8.2332226687 12.4854706811
11.2739327538 9.3206385863 3.8878654218
10.8615970613 10.2072007664 5.0471225801
11.1219479016 9.8037225630 4.5209111075
11.6972571320 10.1188651838 5.1720252779
10.6131090323 9.9662630317 11.1593692929
11.0707891057 10.6719576755 5.8650670100
11.2901884035 11.2151359645 6.5787267244
10.4019389361 11.2937510344 10.1270317145
11.0673674126 10.9440247911 10.3690943019
10.7391946860 10.4772866727 10.7778706061
11.4421864966 11.4598533959 6.8984012098
10.3935655475 11.4679860210 10.0011447135
10.8964554808 11.3340002622 10.1572204102
11.1856500697 2.5980094703 3.3177460436
12.3198375787 3.7982442556 2.1137710976
12.2314313143 3.3447727185 2.8369344263
11.7863390741 3.0246607136 3.7272377926
11.7308596778 3.2287398661 4.9281376764
11.6624534011 3.5153797116 5.7755902685
12.1299731882 3.5621024825 5.1648596805
12.0875159454 4.9727185903 1.1524199421
12.4774165893 4.4718285072 1.4987700554
12.4015030186 3.9920525877 5.6185883369
12.1661527461 4.3609819691 6.6386260890
12.7805145501 4.5171656026 6.0688450983
11.6864804640 4.6139687269 7.7308222928
12.1374284443 5.6887722603 1.0678325387
12.6072912379 4.8504554166 6.8875585609
12.3040478090 5.2706064029 7.9984710396
12.0363618353 5.5600833073 8.7905340285
12.4129343575 5.6707402622 8.4781522078
12.5438576101 6.1964480771 1.2221827263
12.4114450404 6.1411094237 9.0748147099
11.9578280988 6.6174213299 10.1721372534
11.6682155707 7.0101177296 10.7947200843
12.2082794925 7.3693325274 10.3505672039
12.4338957524 6.8821115351 1.6096883687
12.5446263767 7.5921997414 2.1622411740
11.6765297608 7.7448406659 11.0151230085
12.2868076480 8.3342865584 10.4239338365
12.3152960355 8.1013716723 2.6463183162
12.0063871347 9.0977758148 3.7541044415
12.1918447789 8.6560944165 3.2574942515
12.8308551564 8.9646674984 3.9560018457
11.6001894371 8.7936445401 11.0518550027
12.1967770521 9.4137610397 10.3881840744
12.2829400260 9.5352565454 4.5771962930
12.5245748100 9.9651277891 5.3926404477
11.4270656343 10.0236244055 10.7588340410
12.1277020735 10.2249634442 10.2028344221
12.2624663534 10.3463847496 5.9114569390
11.9679157235 11.3201874364 7.2618493315
12.1838004613 10.7938119019 6.7197014793
12.4927890392 10.9614010207 7.5414895137
11.8725334464 10.8331089980 10.0140900489
12.3287323618 10.6103225940 9.7703475849
12.2799240796 10.9911478915 9.4213293138
11.8402827917 11.5077458258 7.3616134738
12.3659092080 11.2097404762 7.9663930738
12.1313048393 11.4011963070 8.0860874635
12.0625964052 11.2305574166 9.2616687010
12.3885024088 11.1391292912 8.7153916774
11.5173669431 11.1964541097 9.9895178043
12.7218912571 3.6605088912 2.6947243577
12.7138891231 3.5736229941 3.3105027569
12.5266722942 3.6125174449 4.4153596786
12.8552340291 4.9778875890 1.3567346544
13.2670447081 4.6952300246 1.8382704147
13.3872350763 4.1437175444 2.7698154771
13.2340594629 3.9442085828 3.7249290040
13.2763184889 4.1981570092 4.6399502763
13.1232757618 4.4340705555 5.4349770442
13.4915269029 4.5452014388 5.1091412929
12.8360707686 5.5906841706 1.2145977610
13.3306599081 5.3143375797 1.4665295370
13.5343230130 4.9730610659 5.7906682926
13.1032018893 5.3976343812 7.1250461251
12.8572218710 5.7543906229 8.0117971597
13.3407354414 5.8047391144 7.4353751638
13.1137886259 6.1428683811 1.3387416901
12.9496803520 6.4705524230 1.4107972450
13.5484968503 6.4839902138 1.7511071663
13.4463242688 6.3365804287 7.9541923041
13.1121259895 6.9086966168 8.9378115699
13.5700991351 6.9130432072 8.4020088484
12.5454988708 6.9315164284 9.6828800697
13.0982264207 7.8659221998 2.6110318876
13.3334615472 7.3242905316 2.2023144936
13.8439009328 7.7654666910 2.8563868277
13.6299719515 7.5385770586 8.6632556341
13.4363302024 8.4583587714 9.0665895356
12.9048611657 7.7665513428 9.6103260296
13.3513739014 8.3547798859 3.3856081111
13.6532340066 8.7882077047 4.2085735423
12.8630774830 9.0179848919 9.6947815698
13.3302467031 9.2165139426 9.0721593482
13.4051047903 9.1784294271 4.7215810068
12.9511955438 10.0356315293 5.9234004147
13.3023632758 9.5928559957 5.5094454447
13.4685850390 9.8003081307 6.2925027612
13.0111961736 9.9387061093 9.0575212647
13.4196818231 9.6135790718 8.6652749448
13.2179985317 10.1036207819 8.3523354131
12.5657009820 10.0109389691 9.7756344026
12.9861672695 10.2210056786 6.5750429379
12.7670749852 10.7016304816 8.3429821827
13.0425174623 10.3601112121 7.5300136663
12.5933554645 10.6412438839 9.2087267697
14.0886758045 4.8753420735 2.3399593279
14.2097645164 4.5981764198 2.9543820188
13.9147981761 4.4013665169 3.7152363299
13.8811696292 4.6388178398 4.6410019857
14.2786114481 4.7236761502 4.0999057099
13.4197393676 5.8276294829 1.4522521927
13.8980732286 5.5656784595 1.8345730339
14.4282349243 5.1398085082 4.7002950168
14.2644952340 5.5269726809 5.6300927978
14.6170716104 5.6147708250 5.2438596924
13.8346291193 5.8069442907 6.6867145583
14.3981719423 6.3050357800 2.1266893029
14.6449818871 6.1637236184 5.9093452615
14.2246357927 6.5690007092 7.0851534684
13.9602090013 7.0014792515 7.9330758553
14.4075893675 7.1993843132 7.3916890125
14.3063872716 7.1169598492 2.4870721143
14.4449777446 7.7022129453 3.1237324320
14.2038801090 7.6576565380 7.9493060108
13.9450493985 8.2907116735 8.3791969795
14.3229317051 8.2389582109 7.8151979738
14.2175922932 8.0567960175 3.4610151027
14.0669524287 8.8706967555 4.7446179719
14.4079074525 8.4079150488 4.2605953620
14.4866942488 8.7066161216 5.0990241852
14.0643856102 8.9272706158 7.8313214644
14.4501223038 8.5199303783 7.4004784203
14.2635488289 9.0034788986 7.1237861657
13.6848287442 9.0300708314 8.5694790051
14.0719268104 9.0732916231 5.3874209149
13.7120201561 9.6478235572 7.1230353106
14.0888114474 9.2233749749 6.3138373455
13.5852889511 9.6502087262 8.0463322460
14.5606077874 4.9532808490 2.7755218802
14.5409731236 4.8494557254 3.5636544955
14.5390379134 5.5161545056 2.3415171817
14.7564705263 5.1172897407 3.1129343941
14.8338164539 5.2767234333 4.1263129572
14.8550805278 5.6798620053 4.9444877555
15.0175248182 5.7206423025 4.7320101397
14.7236976735 6.3748571411 2.2973883048
14.6688232041 6.7010399040 2.3354067564
14.7348438916 6.9448626421 2.5489245128
15.0422039965 6.2536562326 5.3857498641
15.0356716925 6.9117410750 5.9591289753
15.1754782862 6.8501348203 5.7166424631
14.7189525972 7.0628081458 6.6507526960
14.6901844502 7.9649340085 3.6784138299
14.7284911635 7.5392106980 3.1473277780
14.8238970490 8.1296107319 4.0844985655
14.8941115805 7.9528748315 3.8598176237
15.1380109896 7.4039616617 5.9467381452
14.8440341112 8.2244220627 4.3756942886
14.9881018379 8.0632137989 5.8351464649
14.9197788534 7.7778576328 6.3319964184
14.5983267175 7.8463378919 7.2232275807
14.6610976940 8.5760131121 5.8615873701
14.7851523769 8.4177169249 5.1208063035
14.5898804598 8.5183132387 6.7472378350
3 2 1 0
3 0 3 2
3 0 1 4
3 4 1 5
3 3 0 6
3 6 0 4
3 5 7 4
3 4 7 6
3 9 8 2
3 2 8 1
3 2 3 9
3 9 3 10
3 13 12 11
3 8 13 11
3 5 8 11
3 1 8 5
3 6 15 14
3 10 6 14
3 3 6 10
3 15 16 14
3 12 17 11
3 11 17 5
3 17 7 5
3 17 18 7
3 6 7 15
3 7 19 15
3 7 18 19
3 15 19 16
3 22 21 20
3 20 23 22
3 26 25 24
3 28 27 24
3 24 27 26
3 27 28 21
3 21 28 20
3 28 8 20
3 8 9 20
3 30 29 10
3 10 29 9
3 29 23 9
3 23 20 9
3 30 31 29
3 24 25 32
3 32 25 33
3 32 12 13
3 28 32 13
3 24 32 28
3 28 13 8
3 14 30 10
3 35 34 16
3 16 34 14
3 34 31 14
3 31 30 14
3 35 36 34
3 32 33 37
3 37 33 38
3 39 17 12
3 32 39 12
3 37 39 32
3 40 18 17
3 40 17 39
3 41 19 18
3 41 18 40
3 35 16 19
3 41 35 19
3 42 35 41
3 36 35 43
3 43 35 42
3 38 44 37
3 37 44 39
3 39 44 45
3 47 46 45
3 46 39 45
3 46 40 39
3 40 48 41
3 40 46 48
3 50 42 49
3 42 48 49
3 42 41 48
3 42 50 43
3 47 51 46
3 46 51 48
3 48 51 52
3 48 52 49
3 55 54 53
3 21 22 53
3 22 55 53
3 22 56 55
3 22 23 56
3 56 23 57
3 60 59 58
3 25 26 58
3 26 60 58
3 26 61 60
3 27 53 54
3 61 27 54
3 26 27 61
3 53 27 21
3 62 57 23
3 62 23 29
3 64 63 31
3 63 29 31
3 63 62 29
3 64 65 63
3 58 59 66
3 66 59 67
3 66 33 25
3 66 25 58
3 34 64 31
3 34 36 64
3 36 65 64
3 36 68 65
3 66 67 69
3 69 67 70
3 69 38 33
3 69 33 66
3 43 72 71
3 68 43 71
3 36 43 68
3 72 73 71
3 70 74 69
3 74 76 75
3 74 75 44
3 69 74 44
3 38 69 44
3 77 45 44
3 77 44 75
3 77 47 45
3 49 78 50
3 72 43 50
3 78 72 50
3 79 72 78
3 73 72 80
3 80 72 79
3 76 81 75
3 83 82 81
3 82 75 81
3 82 77 75
3 84 51 47
3 77 84 47
3 82 84 77
3 85 52 51
3 85 51 84
3 78 49 52
3 85 78 52
3 86 78 85
3 88 79 87
3 79 86 87
3 79 78 86
3 79 88 80
3 83 89 82
3 82 89 84
3 84 89 90
3 84 90 85
3 85 90 91
3 85 91 86
3 86 91 92
3 86 92 87
3 95 94 93
3 54 55 93
3 55 95 93
3 55 96 95
3 97 55 56
3 97 96 55
3 99 98 57
3 98 56 57
3 98 97 56
3 99 100 98
3 102 101 60
3 60 101 59
3 61 93 94
3 102 61 94
3 60 61 102
3 93 61 54
3 62 99 57
3 103 100 99
3 62 103 99
3 63 103 62
3 63 65 103
3 103 65 104
3 107 106 105
3 101 107 105
3 67 101 105
3 59 101 67
3 68 109 108
3 104 68 108
3 65 68 104
3 109 110 108
3 105 106 111
3 111 106 112
3 111 70 67
3 111 67 105
3 71 109 68
3 71 73 109
3 73 110 109
3 73 113 110
3 112 114 111
3 114 116 115
3 114 115 74
3 111 114 74
3 70 111 74
3 115 76 74
3 80 113 73
3 80 117 113
3 116 118 115
3 118 120 119
3 118 119 81
3 115 118 81
3 76 115 81
3 119 83 81
3 87 121 88
3 121 122 88
3 122 80 88
3 122 117 80
3 120 123 119
3 123 125 124
3 123 124 89
3 119 123 89
3 83 119 89
3 126 90 89
3 126 89 124
3 127 91 90
3 127 90 126
3 128 92 91
3 128 91 127
3 121 87 92
3 128 121 92
3 129 121 128
3 122 121 130
3 130 121 129
3 125 131 124
3 133 132 131
3 132 124 131
3 132 126 124
3 126 134 127
3 126 132 134
3 136 128 135
3 128 134 135
3 128 127 134
3 128 136 129
3 129 136 137
3 129 137 130
3 133 138 132
3 132 138 134
3 134 138 139
3 134 139 135
3 141 140 95
3 95 140 94
3 142 95 96
3 142 141 95
3 144 142 143
3 142 97 143
3 142 96 97
3 98 145 97
3 97 145 143
3 100 145 98
3 147 146 102
3 102 146 101
3 102 94 140
3 102 140 147
3 148 144 143
3 148 143 145
3 148 145 149
3 149 145 100
3 103 149 100
3 150 149 103
3 103 104 150
3 150 104 151
3 153 152 107
3 107 152 106
3 107 101 146
3 107 146 153
3 154 151 104
3 154 104 108
3 108 110 154
3 154 110 155
3 152 112 106
3 156 112 152
3 113 158 157
3 155 113 157
3 110 113 155
3 158 159 157
3 114 112 160
3 112 161 160
3 112 156 161
3 160 116 114
3 117 162 158
3 117 158 113
3 159 158 163
3 163 158 162
3 161 164 160
3 164 166 165
3 164 165 118
3 160 164 118
3 116 160 118
3 165 120 118
3 122 167 162
3 122 162 117
3 163 162 168
3 168 162 167
3 166 169 165
3 169 171 170
3 169 170 123
3 165 169 123
3 120 165 123
3 170 125 123
3 130 172 167
3 130 167 122
3 168 167 173
3 173 167 172
3 171 174 170
3 174 176 175
3 174 175 131
3 170 174 131
3 125 170 131
3 175 133 131
3 135 177 136
3 178 137 136
3 178 136 177
3 178 179 137
3 137 179 130
3 179 180 130
3 180 172 130
3 172 180 173
3 176 181 175
3 175 181 133
3 181 138 133
3 181 182 138
3 182 184 183
3 139 182 183
3 138 182 139
3 183 185 139
3 139 185 135
3 185 186 135
3 186 177 135
3 177 186 178
3 178 186 187
3 178 187 179
3 184 188 183
3 183 188 185
3 191 190 189
3 140 141 189
3 141 191 189
3 141 192 191
3 194 192 193
3 192 142 193
3 192 141 142
3 144 193 142
3 197 196 195
3 197 195 190
3 190 195 189
3 195 146 189
3 146 147 189
3 189 147 140
3 198 194 193
3 198 193 144
3 148 198 144
3 199 198 148
3 200 148 149
3 200 199 148
3 202 200 201
3 200 150 201
3 200 149 150
3 151 201 150
3 195 196 153
3 196 152 153
3 196 203 152
3 195 153 146
3 204 202 201
3 204 201 151
3 154 204 151
3 205 204 154
3 154 155 205
3 205 155 206
3 203 156 152
3 207 156 203
3 208 206 155
3 208 155 157
3 157 159 208
3 208 159 209
3 207 161 156
3 210 161 207
3 163 212 211
3 209 163 211
3 159 163 209
3 212 213 211
3 164 161 214
3 161 215 214
3 161 210 215
3 214 166 164
3 168 216 212
3 168 212 163
3 213 212 217
3 212 218 217
3 212 216 218
3 215 219 214
3 219 221 220
3 219 220 169
3 214 219 169
3 166 214 169
3 220 171 169
3 223 222 216
3 168 223 216
3 173 223 168
3 216 222 218
3 218 222 224
3 221 225 220
3 225 227 226
3 225 226 174
3 220 225 174
3 171 220 174
3 226 176 174
3 179 228 180
3 228 229 180
3 229 173 180
3 229 223 173
3 227 230 226
3 226 230 176
3 230 181 176
3 230 231 181
3 231 233 232
3 182 231 232
3 181 231 182
3 232 184 182
3 185 234 186
3 235 187 186
3 235 186 234
3 235 236 187
3 187 236 179
3 236 237 179
3 237 228 179
3 228 237 229
3 233 238 232
3 232 238 184
3 238 188 184
3 238 239 188
3 185 188 234
3 188 240 234
3 188 239 240
3 234 240 235
3 235 240 241
3 235 241 236
3 242 190 191
3 192 243 191
3 191 243 242
3 194 243 192
3 245 244 197
3 197 244 196
3 197 190 242
3 246 197 242
3 245 197 246
3 246 242 243
3 246 243 247
3 247 243 194
3 198 247 194
3 248 247 198
3 250 248 249
3 248 199 249
3 248 198 199
3 200 251 199
3 199 251 249
3 202 251 200
3 254 253 252
3 244 254 252
3 203 244 252
3 196 244 203
3 255 250 249
3 255 249 251
3 255 251 256
3 256 251 202
3 204 256 202
3 257 256 204
3 259 257 258
3 257 205 258
3 257 204 205
3 206 258 205
3 252 253 260
3 260 253 261
3 260 207 203
3 260 203 252
3 262 259 258
3 264 262 263
3 263 262 208
3 262 258 208
3 258 206 208
3 209 263 208
3 260 261 265
3 265 261 266
3 265 210 207
3 265 207 260
3 267 264 263
3 269 267 268
3 268 267 211
3 267 263 211
3 263 209 211
3 213 268 211
3 266 270 265
3 210 265 270
3 271 210 270
3 215 210 271
3 272 269 268
3 272 268 213
3 217 272 213
3 273 272 217
3 219 215 274
3 215 275 274
3 215 271 275
3 274 221 219
3 223 276 222
3 277 224 222
3 277 222 276
3 275 278 274
3 274 278 221
3 278 225 221
3 278 279 225
3 227 225 279
3 227 279 280
3 282 281 276
3 223 282 276
3 229 282 223
3 276 281 277
3 277 281 283
3 280 284 227
3 227 284 230
3 284 286 285
3 231 284 285
3 230 284 231
3 285 233 231
3 288 287 237
3 288 237 236
3 229 237 282
3 282 237 287
3 286 289 285
3 285 289 233
3 289 238 233
3 289 290 238
3 290 292 291
3 239 290 291
3 238 290 239
3 293 240 239
3 293 239 291
3 240 293 294
3 295 240 294
3 241 240 295
3 236 241 288
3 288 241 295
3 291 292 296
3 296 292 297
3 299 293 298
3 293 296 298
3 293 291 296
3 293 299 294
3 301 300 245
3 245 300 244
3 302 245 246
3 302 301 245
3 303 246 247
3 303 302 246
3 305 303 304
3 303 248 304
3 303 247 248
3 250 304 248
3 307 306 254
3 254 306 253
3 254 244 300
3 254 300 307
3 308 305 304
3 308 304 250
3 255 308 250
3 309 308 255
3 311 309 310
3 309 256 310
3 309 255 256
3 257 312 256
3 256 312 310
3 259 312 257
3 306 261 253
3 313 261 306
3 314 311 310
3 314 310 312
3 314 312 315
3 317 315 316
3 316 315 262
3 315 312 262
3 312 259 262
3 264 316 262
3 313 266 261
3 318 266 313
3 319 317 316
3 319 316 264
3 267 319 264
3 320 319 267
3 267 269 320
3 320 269 321
3 318 322 266
3 266 322 270
3 271 270 322
3 271 322 323
3 269 272 324
3 325 269 324
3 321 269 325
3 273 326 272
3 272 326 324
3 323 275 271
3 327 275 323
3 328 325 324
3 328 324 326
3 328 326 329
3 327 330 275
3 275 330 278
3 330 332 331
3 279 330 331
3 278 330 279
3 331 280 279
3 282 333 281
3 334 283 281
3 334 281 333
3 332 335 331
3 335 337 336
3 335 336 284
3 331 335 284
3 280 331 284
3 336 286 284
3 288 338 287
3 338 339 287
3 287 339 282
3 339 340 282
3 340 333 282
3 333 340 334
3 334 340 341
3 337 342 336
3 336 342 286
3 342 289 286
3 342 343 289
3 343 345 344
3 290 343 344
3 289 343 290
3 344 292 290
3 347 346 295
3 347 295 294
3 288 295 338
3 295 348 338
3 295 346 348
3 338 348 339
3 344 345 349
3 349 345 350
3 349 297 292
3 349 292 344
3 298 351 299
3 351 352 299
3 352 294 299
3 352 347 294
3 353 300 301
3 353 301 354
3 301 355 354
3 301 302 355
3 357 355 356
3 355 303 356
3 355 302 303
3 305 356 303
3 358 306 307
3 359 358 307
3 359 307 300
3 360 359 300
3 353 360 300
3 360 353 354
3 361 357 356
3 361 356 305
3 308 361 305
3 362 361 308
3 364 362 363
3 362 309 363
3 362 308 309
3 311 363 309
3 366 365 358
3 365 306 358
3 365 313 306
3 366 358 359
3 367 364 363
3 367 363 311
3 314 367 311
3 368 367 314
3 370 368 369
3 368 315 369
3 368 314 315
3 317 369 315
3 365 318 313
3 371 318 365
3 372 370 369
3 374 372 373
3 373 372 319
3 372 369 319
3 369 317 319
3 320 375 319
3 319 375 373
3 321 375 320
3 322 318 376
3 318 377 376
3 318 371 377
3 376 323 322
3 378 374 373
3 378 373 375
3 378 375 379
3 375 321 379
3 321 380 379
3 321 325 380
3 377 381 376
3 323 376 381
3 382 323 381
3 327 323 382
3 325 328 383
3 384 325 383
3 380 325 384
3 329 385 328
3 328 385 383
3 382 386 327
3 327 386 330
3 332 330 386
3 332 386 387
3 384 383 388
3 384 388 389
3 390 383 385
3 388 383 390
3 387 391 332
3 332 391 335
3 393 392 337
3 335 393 337
3 391 393 335
3 394 392 393
3 389 388 340
3 339 389 340
3 395 389 339
3 340 388 341
3 341 388 390
3 392 342 337
3 394 396 392
3 396 342 392
3 396 343 342
3 345 343 396
3 345 396 397
3 347 398 346
3 346 398 399
3 400 346 399
3 348 346 400
3 339 348 395
3 395 348 400
3 397 350 345
3 401 350 397
3 352 402 398
3 352 398 347
3 399 398 403
3 403 398 402
3 404 354 355
3 357 404 355
3 406 405 360
3 360 405 359
3 360 354 404
3 407 360 404
3 406 360 407
3 407 404 357
3 361 407 357
3 408 407 361
3 410 408 409
3 408 362 409
3 408 361 362
3 364 409 362
3 412 411 366
3 366 411 365
3 366 359 405
3 366 405 412
3 413 410 409
3 415 413 414
3 414 413 367
3 413 409 367
3 409 364 367
3 368 416 367
3 367 416 414
3 370 416 368
3 411 371 365
3 417 371 411
3 418 415 414
3 418 414 416
3 418 416 419
3 421 419 420
3 420 419 372
3 419 416 372
3 416 370 372
3 374 420 372
3 417 377 371
3 422 377 417
3 423 421 420
3 423 420 374
3 378 423 374
3 424 423 378
3 426 424 425
3 424 379 425
3 424 378 379
3 380 425 379
3 422 427 377
3 377 427 381
3 382 381 427
3 382 427 428
3 426 425 429
3 426 429 430
3 384 429 380
3 380 429 425
3 428 431 382
3 382 431 386
3 433 432 387
3 386 433 387
3 431 433 386
3 434 432 433
3 430 429 435
3 430 435 436
3 389 435 384
3 384 435 429
3 432 391 387
3 434 437 432
3 437 391 432
3 437 393 391
3 394 393 437
3 394 437 438
3 436 435 439
3 436 439 440
3 395 439 389
3 389 439 435
3 438 441 394
3 394 441 396
3 443 442 397
3 396 443 397
3 441 443 396
3 444 442 443
3 447 446 445
3 445 446 440
3 445 440 439
3 399 445 439
3 400 399 439
3 400 439 395
3 448 401 442
3 442 401 397
3 442 444 449
3 450 442 449
3 448 442 450
3 452 451 450
3 452 450 449
3 451 452 447
3 445 451 447
3 453 451 445
3 403 453 399
3 399 453 445
3 454 405 406
3 407 455 406
3 406 455 454
3 408 456 407
3 407 456 455
3 410 456 408
3 457 411 412
3 458 457 412
3 458 412 405
3 459 458 405
3 454 459 405
3 459 454 455
3 459 455 460
3 460 455 456
3 460 456 461
3 463 461 462
3 462 461 413
3 461 456 413
3 456 410 413
3 415 462 413
3 465 464 457
3 464 411 457
3 464 417 411
3 465 457 458
3 466 463 462
3 466 462 415
3 418 466 415
3 467 466 418
3 469 467 468
3 467 419 468
3 467 418 419
3 421 468 419
3 471 422 470
3 422 464 470
3 422 417 464
3 472 471 470
3 473 469 468
3 475 473 474
3 474 473 423
3 473 468 423
3 468 421 423
3 424 476 423
3 423 476 474
3 426 476 424
3 471 427 422
3 478 477 428
3 478 428 427
3 472 478 427
3 471 472 427
3 479 477 478
3 480 475 474
3 482 481 480
3 474 482 480
3 476 482 474
3 430 482 426
3 426 482 476
3 477 431 428
3 479 483 477
3 483 431 477
3 483 433 431
3 434 433 483
3 434 483 484
3 481 482 485
3 481 485 486
3 436 485 430
3 430 485 482
3 484 487 434
3 434 487 437
3 489 488 438
3 437 489 438
3 487 489 437
3 490 488 489
3 493 492 491
3 491 492 486
3 485 491 486
3 494 491 485
3 440 494 436
3 436 494 485
3 488 441 438
3 490 495 488
3 495 441 488
3 495 443 441
3 497 496 444
3 443 497 444
3 495 497 443
3 496 497 493
3 491 496 493
3 498 496 491
3 447 498 446
3 498 494 446
3 498 491 494
3 446 494 440
3 496 449 444
3 449 496 452
3 452 496 498
3 452 498 447
3 500 499 459
3 459 499 458
3 501 459 460
3 501 500 459
3 503 501 502
3 501 461 502
3 501 460 461
3 463 502 461
3 504 464 465
3 505 504 465
3 458 505 465
3 499 505 458
3 506 503 502
3 508 506 507
3 507 506 466
3 506 502 466
3 502 463 466
3 467 509 466
3 466 509 507
3 469 509 467
3 504 470 464
3 472 470 504
3 505 472 504
3 510 472 505
3 511 508 507
3 511 507 509
3 511 509 512
3 514 512 513
3 513 512 473
3 512 509 473
3 509 469 473
3 475 513 473
3 510 515 472
3 472 515 478
3 479 478 515
3 479 515 516
3 517 514 513
3 519 517 518
3 518 517 480
3 517 513 480
3 513 475 480
3 481 518 480
3 516 520 479
3 479 520 483
3 522 521 484
3 483 522 484
3 520 522 483
3 523 521 522
3 526 525 524
3 524 525 519
3 518 524 519
3 527 524 518
3 486 527 481
3 481 527 518
3 521 487 484
3 523 528 521
3 528 487 521
3 528 489 487
3 530 529 490
3 489 530 490
3 528 530 489
3 529 530 526
3 524 529 526
3 531 529 524
3 493 531 492
3 531 527 492
3 531 524 527
3 492 527 486
3 529 495 490
3 495 529 497
3 497 529 531
3 497 531 493
3 532 499 500
3 501 533 500
3 500 533 532
3 503 533 501
3 535 534 532
3 534 499 532
3 534 505 499
3 535 532 533
3 535 533 536
3 538 536 537
3 537 536 506
3 536 533 506
3 533 503 506
3 508 537 506
3 540 510 539
3 510 534 539
3 510 505 534
3 541 540 539
3 542 538 537
3 544 542 543
3 543 542 511
3 542 537 511
3 537 508 511
3 512 545 511
3 511 545 543
3 514 545 512
3 540 515 510
3 547 546 516
3 547 516 515
3 541 547 515
3 540 541 515
3 549 548 546
3 549 546 547
3 544 543 550
3 549 551 548
3 553 552 550
3 543 553 550
3 545 553 543
3 517 554 514
3 554 545 514
3 554 553 545
3 519 554 517
3 546 520 516
3 520 546 522
3 522 546 548
3 556 555 523
3 556 523 522
3 551 556 522
3 548 551 522
3 555 556 552
3 553 555 552
3 557 555 553
3 526 557 525
3 557 554 525
3 557 553 554
3 525 554 519
3 555 528 523
3 528 555 530
3 530 555 557
3 530 557 526