OFF
1069 2110 0
1.6350966478 6.3302654487 7.3825547780
1.6910752439 6.5327217176 7.2745680871
1.7964686688 6.2004974760 7.1968624873
1.7863596895 6.1349270370 7.6140877374
1.6845445889 6.5116449030 7.5607965567
2.0818791987 5.7050315587 8.1181193327
2.3513263516 5.2396866403 7.9779485900
2.3274467681 5.2339032688 8.3192323180
2.3136612366 5.3825566172 8.6170949778
1.9256120599 6.5723389059 6.9239198032
2.3935478575 6.5439968644 6.3434149212
2.1268764168 6.0872854617 6.8322358417
2.1566677110 5.6759874196 7.3831294997
1.8790159822 6.4771033543 8.1508811170
2.1352143840 5.9660238258 8.7875011105
2.2460015746 6.7028214940 10.2835092358
2.1641802789 6.7368468033 9.8783912334
2.3048347120 6.3171863991 10.1518899109
2.4097790414 6.3806113829 10.5352562694
2.1202982584 7.0427023785 6.7335034807
2.4431101128 7.3142263031 6.3247536826
1.9037962544 7.0982397172 7.5102406289
1.9660905565 7.2042311330 8.5704532023
2.0287744345 6.6656289452 8.9611247709
2.1883663518 7.1847226145 10.0438985115
2.0955254152 7.1627608329 9.6096988759
2.3911967609 6.9690648317 10.6317239377
2.2669583388 7.6656772706 6.8953067683
2.1599964791 7.9004903078 7.5537901887
2.0884417767 7.8393372833 8.2744339246
2.3169136192 8.3594532813 7.9769018053
2.0369899389 7.1638822158 9.2023757559
2.1535849113 7.7486556845 9.3767616725
2.3568555718 7.7105714260 10.3232697576
2.3311928843 8.1617811558 9.9561992847
2.3534239187 8.4724298707 8.7780159732
2.3911158385 8.4641361321 9.6006857131
2.7354051950 4.7757711848 8.5664294493
3.2030872552 4.3131187200 7.8917305403
3.2485962625 4.1206631468 8.5215697554
3.3737934390 4.0163109725 9.2152685999
2.9889054892 4.6935598728 9.7699457806
3.7339770454 3.8680263203 10.3984110140
3.2770462160 4.7198143660 10.8184038023
3.7602693930 4.1870199111 11.1874433994
2.7027254719 5.5657201481 6.5702121402
3.1693618426 5.5359277576 5.8429434168
3.2941888509 5.0373406537 6.2003263253
3.1991044151 4.6750159508 6.9697355543
2.6861634792 5.0042969239 7.5434567546
2.4765712950 5.4140470175 9.2814857085
2.6520265913 5.6681217651 10.3559349208
3.7395805492 4.6318961031 11.6992899865
3.2011511638 5.5028759123 11.5284822487
3.7034137453 5.1264924072 12.1768671743
2.9523040145 6.1635207736 5.7814831241
3.5174568048 6.4439193818 5.1075624624
3.3129034768 5.8212361988 5.4825577146
2.2397978005 6.2179567454 9.5678816596
2.7055591216 6.3934918228 11.0903093688
3.6297265301 5.6913203848 12.4864830682
3.1527181392 6.4971458012 12.0214726026
3.5632692748 6.3550115912 12.7447858082
2.8992694803 7.1278571683 5.7113359279
3.3559370628 7.3565104375 5.1333179880
2.0928813683 6.8158393957 9.4586764029
2.7601263692 7.5073691794 11.3223997363
3.1622157981 7.3153543728 12.2104855068
3.4104848546 6.9032347443 12.6374788707
3.1802436405 7.8534444844 5.4707139691
3.5476818583 7.8950222352 5.0317671608
2.8216080649 8.1346449032 6.2760507013
2.4924136374 8.3718487137 7.2816671532
2.6289788132 8.5945406772 10.5042731214
2.9089312231 8.5416891283 11.5184025074
3.1466079101 8.1095538631 12.1497773746
3.5404795291 8.6083905740 5.4844337403
3.2114391836 8.9473985924 6.3383775537
2.9346900578 8.9568264712 7.0578615356
3.3370664811 9.4337948713 6.8177864530
2.7161920109 9.0016763010 8.1039201612
2.7249390159 9.1599459715 9.4017818074
2.9240556042 9.6197643965 10.4335221186
3.0128915876 9.4710439378 11.4205092064
3.2016631761 9.0221618858 12.1571458225
3.2580717989 9.6254515513 7.6143685255
3.1785930916 9.7991999702 8.6918012085
3.1424567105 9.9869887344 9.7144464694
3.1587678162 10.2170929019 10.4132068880
3.1492963556 10.2331207406 11.0688887407
3.3982005725 10.6985643324 10.6879894871
3.3124687084 9.7878051789 12.2266847093
3.3455370360 10.4242379091 11.9141163517
3.7277972499 10.3976705635 12.7515892399
3.4443774537 10.8743400652 11.3802495962
3.7362118203 11.1862061318 10.9216796936
3.5889460795 11.0545741681 11.9308223068
3.7192794678 10.9525014019 12.3920108650
3.9252040656 11.4457041911 11.5684572729
3.8355730574 3.5863503399 8.4222911709
4.1478243081 3.4468793739 7.5943138597
4.5816073094 3.0193493799 7.9854909766
4.7275274313 2.7816890827 9.1351640477
4.0056344233 3.3764259840 9.6197940358
4.5898024606 2.9601565652 10.2054344112
4.1301977558 3.3252877070 10.2762600553
4.4541671723 3.2674469166 10.8200377885
4.1734016366 4.2839609350 5.6880043702
4.5136042826 4.3937410475 5.1634437312
4.5931054970 3.8837655625 5.5624774927
4.3875802000 3.7617172262 6.1280258920
3.7882321410 4.3376036626 6.3576895681
4.2006689362 3.6284122331 6.8817546646
3.7022596633 3.9660977200 7.3536944597
4.4087984235 3.7046142031 11.4671267095
4.0041162498 4.1553270841 11.5947306194
4.3734015727 4.1755212790 12.0559454548
3.7882465331 5.1828842684 5.4228077968
4.5180800284 5.0469326094 4.7160709416
4.3304724491 4.7127493517 12.5861738475
3.9230466846 5.1963249152 12.5798579528
4.2307763700 5.3371632956 13.0458853283
4.1952495051 5.8662161056 4.6491077747
4.7917751616 6.3262568832 4.1245647929
4.7262667320 5.5291534589 4.3240709914
4.0084609107 6.0138497814 13.2046984173
3.8422459551 6.8309497961 13.2564713696
4.3276378496 6.3880121862 13.7362189927
4.1282031671 6.6332701513 4.4990334490
3.8860018668 7.3501082735 4.6543313054
3.5309760055 7.6625221378 12.8662810303
3.9583918825 7.5825851001 13.5144534707
4.3422446180 7.1151392652 13.9217366281
4.0262789303 8.1566088592 4.7027752288
4.7765002733 8.3728612684 4.2844001385
4.4601221266 7.7079401242 4.2842335554
3.5073071111 8.6567577960 12.7974574078
3.8943229701 8.3551337645 13.4312714051
4.3341947595 8.0171438037 14.0021042622
4.2289408308 8.8368130790 4.8330572678
4.0688457266 9.3480154028 5.4180103225
4.4964550323 9.3233536928 4.9193193948
3.6485431147 9.4182765030 6.1548200051
3.5512325357 9.5298140720 12.7787832790
3.8847359565 9.2383766353 13.3634658084
4.3154687187 8.9539281671 13.9606284409
4.6181227006 9.7655271873 5.3217246510
4.1943249403 9.9111072440 6.0176372715
4.8342058488 10.2696784152 5.8398932731
3.8316393715 10.0206242070 6.9429412221
3.7401389354 10.3144232357 8.0742068083
3.6434861930 10.5502795928 9.2318158215
3.4023079037 10.5113848927 10.0546865122
3.9115790376 9.9531053364 13.2722905582
4.3155526472 9.8485372920 13.8282007853
4.4674711715 10.3961590366 6.5196625175
4.4635304651 10.7557070612 7.4037480258
4.2290436732 10.9490530266 8.5257995400
4.1333156704 11.1196821451 9.3475676597
3.8356482273 11.0542782748 10.1274278289
4.3943820588 11.4810450000 9.7913220145
3.9450822414 11.3653197861 12.2276315681
4.3825134829 11.3213815259 12.9574590985
4.2875644652 10.5827597747 13.5019804923
4.3847774400 11.6934786620 10.7235382394
4.3799791845 11.8211329610 11.4866595181
4.4893396942 11.8294142718 12.1289421800
5.3289190759 2.3159746060 9.5012685844
5.3704616710 2.3137157623 8.9273705414
5.9484218156 2.0120525843 9.2499166055
5.6845011498 2.1608782381 9.9636649820
4.9875927209 3.4040776436 5.8445132885
5.0948361483 3.7750124134 5.2132000181
5.5940975079 3.2490929283 5.4911906446
5.6527082170 2.8005354128 6.3077108214
4.7864477589 3.2336080496 6.6000261789
5.0983385635 2.8187115672 7.2596454486
4.5418788339 3.1987595800 7.2706704518
5.3050486981 2.4848198257 8.1561383190
5.1952876107 2.4986782980 10.1200093661
5.3698159380 2.7521413047 11.1063043940
4.8303580656 3.2105563308 11.3333893477
5.2575986054 3.2388388893 11.8198931971
5.1523431335 4.3657027572 4.6577349054
5.2728873013 3.7420085517 12.4491726885
4.7674545921 4.2113456248 12.5405770600
5.1979375202 4.2907420290 13.0417868046
5.0029082109 4.9972591869 4.3484303408
5.3656078213 5.3920233574 4.0004405683
5.4414632068 4.7016741134 4.2406138686
5.0234116112 4.8969635885 13.5143890839
4.6864629644 5.6854535882 13.7921818593
5.2688678992 5.2547499749 14.1054559030
5.2171696936 5.7062109912 14.3381482492
5.6675850099 5.3578910083 14.4679025898
5.6306317027 6.2306874443 3.6563455899
4.9304183439 6.4505513015 14.3316894487
5.6935895092 5.9461268038 14.7277655387
4.4794567094 7.1097008188 4.2279086493
5.3460989335 7.4439343407 3.8372087633
4.8739216605 7.5231030490 14.5055951280
5.6417457020 6.9358015187 15.0004582168
5.4593814229 8.3324232633 3.9753961329
4.8230824554 8.5601446366 14.5301802542
5.4189036885 8.0658909656 15.0404316858
4.7581479993 9.0204724187 4.5434811875
5.4547107190 8.9520818652 4.2480769238
4.8405536136 9.5837715371 14.4542957868
5.3952881797 9.1326910094 15.0250939296
5.0411148971 9.4816272389 4.7546723326
5.3444578670 10.0540782406 5.1980800062
5.3873391802 10.4627655179 5.6783115251
4.8845717324 10.5731592467 14.2279471725
5.5568591296 10.2697004928 14.9392726864
5.2341466234 10.8158161098 6.4282586283
5.1206382994 11.2060629270 7.2821935465
5.7522012216 11.3842037606 6.9297587568
4.8689037001 11.3336098260 8.0531853674
4.6694954872 11.4738263030 8.9913299431
4.7934726662 11.1604995221 13.7701933294
5.2193120392 11.2686914556 14.2108460134
5.4995314439 11.0247420722 14.6247241222
5.4639460916 11.5686595397 7.6331112702
5.4601184603 11.8650725583 8.4824713893
5.0684050594 11.9598394264 9.7069647422
5.1253959046 12.2000052329 10.6207757976
4.9168657686 12.1692039644 11.4482807055
5.1246297290 12.3004528923 12.1828434536
5.5035486739 12.5686406881 11.8115162091
5.1258972215 12.1086209352 12.8458569542
5.4358430825 11.8432102823 13.7786335894
5.7172474509 11.5273080991 14.4687315797
5.7739368947 12.6744087007 12.5435970834
6.2135599389 2.3335122442 6.6436104626
6.4334299629 2.4583188837 6.1531303905
6.8044998363 2.1404394872 6.6142777236
6.4334631522 2.1133179776 7.0749713144
5.7714140709 2.1389512764 8.5277704305
5.9275086318 2.1560525182 7.9636063628
6.4538729130 1.8736741236 8.3237346675
6.9235176857 1.6214821437 9.2128173985
6.4274239094 1.9277869833 10.1738096711
5.7868337936 2.2581305524 10.6121912930
6.3213644824 2.1395564503 10.9245847067
5.9662769526 2.3434036006 11.0974273993
6.4995895165 2.4157079083 11.5099720193
5.8937418889 3.6433521873 4.8362015672
6.4438316231 2.9044115174 5.4637744841
5.8393059443 2.3634502968 7.2645013830
6.0723085676 2.9253245666 12.0377734822
5.7469068593 3.2739756735 12.3132953896
6.4239747780 3.3100893177 12.7827904625
5.7768332200 4.2246420454 4.3684272527
6.0072992461 4.6467468663 3.9981135049
6.4031029546 3.9704958831 4.2649019112
6.1451673551 3.9315473352 13.3837645535
5.6999850253 4.4165557533 13.6519435967
6.2561154433 4.3280950087 13.9617354229
6.1999577121 5.3486176953 3.5663161044
5.8436181501 4.8254915169 14.1611136729
6.4299323091 5.2314533044 14.7079609582
6.2127367956 6.0542388499 3.3180831844
6.6932182393 6.2353975138 3.0327917693
6.6201033213 5.6414233953 3.1915357897
6.4875177702 6.1290296117 15.1961518542
6.1302759315 6.7607007784 3.3222643457
6.8176452643 6.9734302207 2.9827628186
6.3154670664 6.8663224807 15.4355950482
6.0771526938 7.6062077794 15.4636080798
6.7483669722 7.1539187221 15.7255341015
6.3666708439 7.4993174413 3.3388648036
6.4092406132 8.4961286254 3.7421645241
5.9744747671 8.5895681508 15.4878341461
6.6155747750 8.0245545988 15.8212946360
6.1714060638 9.2220055444 4.1986394197
5.7802983079 9.6243718511 4.6127562601
6.5520047062 9.7227268304 4.4676580966
6.0294856098 9.6194011731 15.4627106052
6.5619481076 9.0376069951 15.8429048614
6.2051787999 10.2358040720 5.0529191189
5.7066108247 10.3749578365 5.3725713937
6.2206894823 10.4560404120 15.4115700310
6.7280762956 10.1132305843 15.7942682834
5.9217065681 10.6668465747 5.6837024664
6.1587587220 11.1217702647 6.2065266695
6.4076003148 11.5194594805 6.6485112141
6.6571060461 10.8371537193 15.5598889152
6.3530523699 11.2799547535 15.0770212491
6.2934144341 11.8978621979 7.4583963255
6.1958287593 12.2715664960 8.3784895980
6.8983182876 12.4427571018 7.9645187289
5.8732005254 12.3567176504 9.1915643623
5.7230059784 12.4899858070 10.1279283757
5.6304984322 12.5859602951 11.0557383927
5.8132148166 12.4622902027 13.2962195142
6.4813156735 12.5692173064 13.9400687040
6.2928596977 12.0076330043 14.4693297960
6.6240401383 12.6610831734 8.8517669354
6.3233763487 12.7395883081 9.6498794509
6.4174040345 12.9777097948 10.5422181738
6.2113945201 12.9993723568 11.7116664979
6.4524707101 13.1345197118 12.5371465953
6.4354789821 12.9453237539 13.1968652548
7.4615969713 1.3849270326 9.3754277688
7.4977212510 1.3373382602 8.8984502813
7.7249688022 1.2651764857 9.1497005782
7.8127918935 1.3581135862 9.4854290147
7.1639083848 2.3741203826 5.9541322208
7.6523597529 1.9869941755 6.6940754395
7.0289573202 1.8611136690 7.4461090904
6.3308296181 2.0448739389 7.5904353541
7.3785704601 1.5232676324 8.3393364833
7.5392152954 1.6281706550 10.0302303485
7.0668774903 2.0058663354 10.9271668220
7.6074175334 2.2834683153 11.6530348957
6.8298475786 3.3940233794 4.6425660951
7.6279319810 2.8166637980 5.1277767382
7.2017608675 2.7787864686 12.3852275767
7.3561459769 3.1747579503 13.0825453783
6.8897123681 4.4203874491 3.7177942197
6.9506112663 3.7897716233 4.1730096876
7.1518700861 3.5823766505 13.4997925986
6.9492784966 4.1030910062 14.0040100757
6.5728291187 4.5764749683 14.3368460779
7.3479046533 4.6067383988 14.5339040798
6.8351268303 5.1187369733 3.2993723711
7.3140983969 5.4433786714 2.9167356483
7.2177464382 4.8158072990 3.2601536750
7.4925123229 5.4127152868 15.1149131944
7.3172390939 6.4397644069 2.7038662291
7.2310871834 6.0981611035 15.4851267669
6.8148494933 6.5478892207 15.5665047617
7.4248527213 6.5871807949 15.7615108913
7.3203099804 7.0357464735 2.7391328606
7.4052716725 7.3727823397 16.0040237806
7.3377719356 7.7087664778 2.9920906775
7.6729172287 8.6602561610 3.3978197030
7.0776614814 8.4245730671 16.0829693983
6.7295987763 9.2810903298 4.0938173580
7.3792380584 9.2550358674 3.8938087026
7.0998570112 9.4256877113 16.0888264100
7.1554756596 9.6870318060 4.2699910110
7.2454036841 10.2455208277 4.7241144039
7.4826147259 10.3355735305 16.0601822468
6.8608985409 10.8583855484 5.5120044511
6.8136836715 11.3440695459 6.1428142402
7.5308735875 11.3880516384 5.8477178915
6.9175285221 11.2162021416 15.5137069625
7.2593246648 10.9197192636 15.7788813834
7.0804564466 11.7369811387 6.5729100188
7.3138159480 12.1950146482 7.1412666761
7.6108729767 12.5908596254 7.5925668013
6.8345512299 12.4311811061 14.4641182382
7.1261767882 12.1625596100 14.8772582386
7.5361368919 11.6432435661 15.4703649391
7.5412652849 12.9171629172 8.4162083528
7.0884392319 13.1014005468 9.5713081428
7.1466797835 13.3739452522 10.4352166105
7.7555025365 13.5532503095 9.9863693871
6.9482306337 13.4135003050 11.2265381598
6.9595716887 13.4798798946 12.1203462475
7.0664724995 13.4334593520 12.9365051539
7.2348708400 13.2120776990 13.6833757305
7.5259493002 12.8442638570 14.4279896417
7.6468271196 13.7266093666 10.8481774680
7.4979015186 13.7759200931 11.6429599497
7.8120089351 13.9467553563 12.5002280930
7.7282338713 13.6872653194 13.3240353745
7.6844338445 1.3155271828 8.5637831390
7.9153649033 1.3689581297 8.3419415953
7.9393908103 1.2692070883 8.7708638618
8.3739450053 1.3518406583 8.9225339861
8.0465648370 1.2905623201 9.1845517248
8.1143579842 2.2673395896 5.9506768851
8.6510945879 1.9463940496 6.7563466215
8.1834630855 1.6332547418 7.7487148398
8.4348822350 1.5033785616 9.5864239718
8.2721728357 1.6794734668 10.2677117567
8.1236849395 1.9248235928 10.9119760138
8.4610522153 2.2327479588 11.5957880461
7.6140376084 3.5833893932 4.1492200984
8.4441471014 3.6136203444 3.7526197684
8.6774546681 3.0297947211 4.5898718148
8.5945562417 2.5443379814 5.4019768194
8.3060580309 2.5780455536 12.2277007960
8.1247244684 3.0291934278 13.0067509948
7.8158395013 3.3583043155 13.4664016196
8.2303409896 3.3506081901 13.5038574480
7.8632207523 4.3792900773 3.2351487581
8.4916820874 4.4643761295 2.7124457791
8.9013386893 3.9541666165 3.1234412419
8.1359445433 3.8448945979 13.9541636847
8.4925621750 4.7070436773 14.7273854462
8.1562129927 5.0391979892 2.5667197592
8.7393358650 5.3856348499 2.1363057348
8.7013768062 4.7778789965 2.3678988976
8.5095716444 5.3916611349 15.2539765729
8.0277266650 5.9209769409 2.3874125571
8.8924413729 6.2822974866 1.9231013066
8.0148618357 5.9538998378 15.5656363776
8.4030320439 6.5557434928 15.9259963906
7.9645453786 6.9056888527 2.4476214393
8.7704186145 7.0914886122 2.1774586114
8.1011600070 7.1154814923 16.1177188870
7.4841795474 7.9166294966 16.1687900489
8.3357733736 7.6759943709 2.5831959218
8.0906695434 8.2324589438 2.9697515295
8.8176116285 8.2865965700 2.8002473083
7.2975839742 8.8686015639 16.1993597694
8.4322331769 8.7308311694 3.1890169751
8.5081292755 9.4627737214 3.7058991188
7.4755640803 9.7857334178 16.1937014386
7.8073910708 9.8955629850 4.2429131399
7.9302199726 10.3471306699 4.5826652892
8.0102404247 10.5298202177 16.1768622221
8.0360411195 10.8823804322 5.0640374479
8.1395886964 11.4386157547 5.6162082290
8.7256400366 10.8299407510 16.2322839256
8.4002233271 11.1518257896 15.9947695841
8.1498774464 11.9686012086 6.2673285871
7.9642023966 12.4341400281 7.0369192032
8.3596707240 12.4585882948 6.7903209608
8.5136331070 11.9369838298 15.6330768844
8.3443646303 12.5263189838 15.1384449664
8.4581163330 12.8931339820 7.4297296709
8.3075381225 13.2633044777 8.3877043624
7.9553556634 13.3724255989 9.1403458320
8.4024245187 13.7263298503 9.5717692653
8.4388979091 13.1638887524 14.6176943548
8.3308676889 13.5895424663 14.0043882118
8.3901404838 13.9476265489 10.3300490450
8.3171016292 14.1653147434 11.4378735492
8.4519942437 14.3448351339 12.2438717974
8.8748876542 14.5026886596 11.8849472131
8.4605390825 14.3138931736 12.7583925451
8.3478501617 14.0634190704 13.2590720535
9.0399680594 14.5598120688 12.5133508504
8.3181430797 1.3863108172 8.4609923319
9.0365766283 2.2361128674 6.0614887955
9.5375064685 2.0370716698 6.7780844092
9.3447133910 1.8058044960 7.6058812614
9.0679631830 1.5826222715 8.6881000262
9.3543737936 1.6835319132 9.6198749281
9.0069859882 1.8152292790 10.4016151684
8.9340336477 2.0828064696 11.1654778666
9.7252194611 2.1241988186 10.9592480813
9.2340779259 3.3804390630 3.8597625787
9.7405668898 3.0158223709 4.6111224199
9.5525803425 2.6041210633 5.4912589808
9.3063235103 2.4379670200 11.7841739082
9.0824054907 2.8907544211 12.6555108439
8.7823311341 3.3202385769 13.3653968674
9.7239599591 3.2720687685 13.0722481451
8.9994517957 4.3839465274 2.5629534642
9.3054618112 4.8129080617 2.2174947260
9.7674454367 4.1739152799 2.7408110636
9.6902806571 3.6574721697 3.3825680145
9.3298841214 3.7232471634 13.7382113068
9.0469655467 4.1760167443 14.2645973737
9.8796004120 4.1660378444 14.1242081476
9.5586507126 5.5985628059 1.8116558122
9.4325113640 4.5618424248 14.5839477222
9.5127260486 5.1732290626 15.0765310932
9.3640457122 6.1107901270 1.5740780265
9.4823712101 6.2229710419 1.4698322167
9.6329554528 6.0595583045 1.5427028379
9.0513545547 5.8683974219 15.5917903151
9.7385851230 6.4415549640 15.9448582902
9.3701992673 6.3606911634 1.5910226669
9.5821700655 6.7793623616 1.8819088598
9.0774069010 6.7228109139 16.1025671110
9.2184229207 7.6483335629 2.3548372886
9.8090753914 8.3354286095 2.7160151193
9.1771945759 8.9307416494 3.1506596595
9.6786228579 9.5676720472 3.4989315468
8.4938872640 10.3025191663 4.3634515798
9.4294628729 10.2315065743 4.0413764700
9.2700740078 10.7819191158 16.3102323332
9.8500447286 10.7208298015 16.3103370806
9.3047120265 10.9079107735 16.2440365321
9.0942907280 10.8897744522 4.6667297659
8.7499959792 11.4551386761 5.3568217126
9.6770783865 11.4573562631 4.9821055062
9.5204303804 11.2331088922 16.1109291511
9.2823607351 11.9996811527 5.7098734504
8.9026355158 12.4895871611 6.4830724176
9.8208510831 12.5555425086 6.0743405097
8.9529842509 12.2842921576 15.5374823227
9.3962390726 11.8501746283 15.8245867521
9.3974771036 12.9838459933 6.7937053131
9.2487875942 13.3168104036 7.4096587126
9.8842527069 13.4320464452 7.0806627224
8.9375686767 13.4563874662 8.0667077830
8.6919992771 13.6320158479 8.8719139894
8.8652106702 13.4719450787 14.4785912039
9.1478816521 13.1850889541 14.8490796788
9.5821067294 12.6177185297 15.3931300740
9.6582343798 13.7022374177 7.8025132127
9.3151271796 13.8280776915 8.5368116559
9.2416133525 14.0938699521 9.4862093745
9.0748957456 14.3332711682 10.6194021292
9.0870374493 14.5009330808 11.3472798342
9.6337466183 14.6150682559 10.9645197877
8.8640697284 14.3879032916 13.0851488045
9.0586507374 14.1630012404 13.6088130262
9.5359228480 13.7772653855 14.2924147296
9.7045922182 14.7102893516 11.8310087734
9.6509990857 14.6963194795 12.5393452362
9.5571023240 14.5370565609 13.0925064561
9.7670922045 2.2772412404 6.2627334251
10.1569286710 2.1880760758 6.7783777503
10.1937445524 2.0226973402 7.4289456333
10.3132181630 1.8811887666 8.4425565449
10.0245401304 1.7750797492 9.2804248234
10.1219758301 1.9213041783 10.1330110396
10.5104717028 2.1645415448 10.7586683522
10.0569540877 3.3298498391 3.9816140505
10.4241292872 3.1255697516 4.5927306710
10.5588338790 2.8912488185 5.3876253109
10.5210939658 2.5023685225 6.3642980419
10.3748001208 2.4317725573 11.4194548155
10.1758968230 2.8583126464 12.2806544498
10.5178948012 3.2579018881 12.8159683986
10.2355650452 4.8403403589 2.1651046256
10.8021214835 4.2626937409 2.7332083814
10.5992876719 3.7310631758 3.4953644640
10.4189523708 3.7002546275 13.4480069350
10.8334516499 4.2388590123 13.9951489745
10.2399857297 5.4156115108 1.8602903754
10.2894979622 4.6890823688 14.5676911980
10.7221598497 5.3171870576 15.0484400371
9.6391090079 6.3094593409 1.5596474783
10.1831107192 6.0432255097 1.7619143243
10.1346845245 5.8444038474 15.5337950390
10.6665467914 6.3864830910 15.8208197976
10.5538645238 6.7690235227 1.9995623347
10.0672210988 6.8178754889 16.1567669409
10.8018605302 6.9447143450 16.0909348237
10.1332343240 7.4898314360 2.2491994590
10.8152425769 7.8953888905 2.5620531626
10.6949188241 7.1045302008 16.2182433903
9.9325944569 9.0440198016 3.1122957829
10.7213379954 8.7746895581 2.9954157732
10.3834985172 9.4223721211 3.3227424176
10.7060046319 10.1266699145 3.8084249768
10.7155331944 10.5073000839 16.2719089350
10.1688325738 10.8692675988 16.2309144739
10.0403911307 10.8804409814 4.3830013687
10.4424561193 11.3978400170 4.7121782299
10.3700664908 11.3711374938 16.0407311966
10.3711390214 11.9835859373 5.3106030125
10.8564243240 12.6737675850 5.9069040740
10.4587085580 12.0978071633 15.7494413623
10.1824609511 13.1004358876 6.4993205292
10.3636523146 13.4641865567 6.8381720314
10.6501838026 12.7596753563 15.3925515096
10.0939107816 13.2653208207 14.9455718262
10.5834112575 13.8492096955 7.3814804289
10.0643030707 14.1561942460 8.4823553573
10.1348678504 14.4515994432 9.3226717257
10.6600321526 14.5429507637 8.8579192968
9.8976356382 14.5415953935 10.1566499778
9.7715651521 14.2847888913 13.6894471407
10.4774094328 14.1486619462 13.9498964991
10.2087165560 14.4939319528 13.3735837930
10.4755452513 13.6964179288 14.5384471098
10.8580808899 14.7623203875 9.6948460595
10.5209098357 14.8106949072 10.9011946376
10.6543785838 14.8491402484 11.8126198936
10.4141238511 14.7048698452 12.6665503135
10.6996328153 2.2691443753 7.1534913563
10.9988249352 2.1684829133 7.9028887949
11.2758239193 2.0734376664 8.6913499784
11.1207400774 1.9859648292 9.5354474064
10.9492800193 2.0862905767 10.3308277103
11.6089052780 2.1350338712 10.2798390025
10.7340154372 3.3647591987 4.2366274410
11.0681044662 3.2182825314 4.9175076586
11.3195490703 3.0895611145 5.6068023607
11.3150898498 2.8671523459 6.2505563977
11.5664572489 2.5772363387 7.2801202610
11.8638775736 2.3050484691 8.3309692019
11.2884226664 2.3372037368 10.9435326415
11.1530491573 2.7318974958 11.7720807271
10.9901366085 3.0715663177 12.3883339783
11.8025121402 3.0988471261 12.2334399948
11.0520140765 4.6901974096 2.3284499359
11.5217303387 4.4561497591 2.7013697989
11.6746193848 4.0933062045 3.3892792218
11.5693690217 3.6212716969 4.3800622063
11.8447210377 3.3659424779 5.3998742558
11.2526283872 3.4376705360 12.8694954653
11.4227449214 3.8876419088 13.4394664315
11.6220181126 4.2781290225 13.8776371590
10.9471343218 5.3150348983 2.0305632280
11.6844774513 4.9079212076 2.3915954818
11.4285855559 4.7745931737 14.4401952244
11.8672700885 5.5545777148 15.0176006325
11.2381634153 6.1128963876 2.0287826422
11.1395972789 5.9962081072 15.4854698092
11.5452466883 6.7515005556 15.8071839841
11.2319293518 6.7738207717 2.1507408636
10.8788903374 7.2552136717 2.2453979642
11.6303316321 7.1621159062 2.4549491862
11.7061794149 7.5543651497 16.0609958475
11.7775449804 8.1026441553 2.9103877587
11.2605191952 7.4650377604 16.1981094163
11.5021848158 8.9323152115 3.2112863659
10.9715371676 9.3920164752 3.3439517558
11.6335123804 9.4987215796 3.5467232610
11.7690114337 10.0648162530 3.8776323705
11.5596855495 9.9644250391 16.2147332681
11.2732449608 10.6466539160 16.1341306924
10.8273256984 10.9768825581 4.3420732491
11.6720148579 10.7416789417 4.2677700689
11.3612544715 11.4976099850 15.8982724989
11.2509705844 11.5122358210 4.7844447049
11.2613523038 12.1120108540 5.3241261225
11.7545792646 12.4128955001 5.6568564735
11.3171826663 12.2919423192 15.6156742854
10.8964442664 13.3452533314 6.5829497028
11.8174031127 13.0183194573 6.2240273940
11.2581296729 12.7743360265 15.3648876258
11.0828406643 13.2431671807 14.9551323627
11.7236384958 13.7568297475 6.9554072947
11.3245843651 14.2188670018 7.5379111471
11.8595306953 14.2784823191 7.4932296395
10.9274596296 14.3916215982 8.1351099715
10.8051658246 14.4668316952 13.3800317295
11.3529978711 14.1318402780 13.8272648720
11.0915582866 13.7848865625 14.3822240618
11.6613274912 14.5465519233 8.0270018173
11.3832782338 14.7294807611 8.7824749306
11.9154016615 14.9750580348 9.4962514390
11.5764049577 14.9482662340 10.4522293464
11.4156330099 14.9005739504 11.4290186663
11.2599724712 14.8062990819 12.2097076469
11.5290155300 14.5335492454 12.9837739816
12.0153467823 2.1362172946 9.1347836585
12.5079098931 2.1228891981 9.9061527954
12.5621438190 2.1547199039 9.3387226196
12.1153882601 2.2834203441 10.6655843455
12.9295460854 2.3276384020 10.7738130190
11.8365712724 3.1492177892 6.0584951421
12.0945526750 3.0135363471 6.7195442683
12.4372359976 2.8774184051 7.3339553144
12.5683960419 2.6100973297 7.9581493562
12.7300060777 2.3055890786 8.8023523797
12.2139449930 2.6353911172 11.4143155703
12.8153290883 3.1023136760 12.1086942190
12.3261646659 4.6852498730 2.9976812698
12.4586195480 4.2955309482 3.5669301980
12.4382893447 4.0359029935 4.1837143585
12.6909846453 3.7764787591 5.1892604695
12.6314147963 3.3764249383 6.2048659206
12.7852993245 3.1336488787 6.9728946466
12.3363334770 3.6380744780 12.9250273864
12.0800970462 4.0653748154 13.5292532449
12.6327584314 4.0841831096 13.4655500702
11.7846483714 5.4863221426 2.2006500604
12.2335998413 5.1938062927 2.5058198169
12.3589327070 4.4688080512 13.9610536605
12.3470812943 4.9962387664 14.4919848415
12.7438849953 5.4463579698 14.7670793990
11.9398520932 5.9854386580 2.2252135031
11.7222043754 6.4701568157 2.2330204329
12.3335865536 6.3185832192 2.5191011076
11.9227176138 6.2468832435 15.4631695930
12.7883539867 6.2806681035 15.2293182227
12.5139610927 7.1645635969 2.8198325812
12.2745340059 6.7526052199 15.6057482678
12.3067343974 7.4293975488 15.8114645624
12.7978415615 7.8431116802 3.1564310612
11.8663209379 8.1644192544 16.1575906278
12.4355540367 8.5177313303 15.9694406104
12.4805126354 8.7086904959 3.4251648999
12.4334845431 9.5615388897 3.8240228070
12.0247654227 9.0854973273 16.1605173774
12.1548253852 9.7374554824 16.0714848522
12.4289971627 10.2046287963 4.1469295825
12.4659316141 10.7412454740 15.8422628527
12.6591054357 10.7174783245 4.5549188000
12.0591321726 11.2636196059 4.6948304593
12.5981075919 11.3023278801 4.9131851049
12.1409262434 11.8158416660 15.6487166253
12.0910594896 11.8164098094 5.1778778732
12.8141809863 12.2731457483 5.8562551815
11.8845039684 12.6656838624 15.2549291918
12.6795868527 12.1801152777 15.3432299717
12.5500423428 12.7683397026 14.9625664197
12.6425856672 13.0256730299 6.3921110775
12.2216501866 13.3695798587 6.5661729214
12.8305686251 13.5006594303 6.9224188939
11.9772364470 13.4546108296 14.4810503165
12.8923045139 13.0751450548 14.5237975102
12.7040264647 13.6088128422 14.0058566641
12.2330002926 14.4886507714 7.8694150141
12.4868674257 14.0997703167 7.4258114009
12.8724122311 14.4148925784 8.0378098218
12.1667825994 14.0698385842 13.6154463624
13.0329105851 13.9848831339 13.2547961907
12.3879740538 14.3982069931 12.9287487910
12.3583237676 14.8058723513 8.6958446907
12.3215401449 15.0466266559 9.2277084612
12.6211357249 15.0084228746 9.1953905412
12.3741500580 15.0875261546 9.5986700190
12.5413163251 14.9752538902 10.1199399321
12.1865506582 14.9141636774 11.0580796969
12.2537756689 14.7133043241 12.0605553263
12.9946452564 2.1610674603 9.3576920495
13.4594553901 2.2701855467 8.9906109584
13.7111222639 2.1306953147 9.5915676702
13.4859738442 2.1502391684 10.2874785211
13.9090185862 2.3348480755 10.8611152256
13.1570886721 2.9446990956 7.5237599544
13.6314965984 2.6018677270 8.2469707339
13.3509100985 2.6764555650 11.4554120764
13.8294954364 3.1190276733 12.0856786391
12.7777725614 4.5421349476 3.4780908970
13.0083872816 4.4429052465 3.9653496837
13.2434834172 4.2457971512 4.7097457685
13.5689435798 4.0952544976 5.3663938249
13.5944199075 3.7737632123 6.0212086402
13.5911043870 3.3357185817 6.8947496736
13.3118335155 3.4941506227 12.6125270519
13.2912860993 3.9678924823 13.2304576931
13.0251168115 4.3274683175 13.7027513516
13.4219170464 4.3425163107 13.6590929220
12.2858752650 5.6589431448 2.4032742333
12.7644938412 5.5250364042 2.8413787096
13.2123803103 5.0135019965 3.5315395014
13.8457650988 4.8394423939 4.4415810758
13.9284382501 4.4411513963 5.0954720315
13.3305089669 4.8649754142 14.1681262300
13.3806821973 5.6867476830 14.7903560008
13.0775486254 6.3763267379 2.9728860805
13.8582725556 6.3908252714 15.0529291405
13.2887888887 7.1093480887 3.1707459323
12.7819441072 7.1108512852 15.5541373623
13.4605128060 7.2180464191 15.3456501100
13.5516988391 7.6597076697 3.4711727540
13.0753923833 8.1625207617 3.3985726302
13.4034103999 8.3419634984 3.6828571945
13.0262526384 7.8919433434 15.6497578451
13.8402918312 8.3425497812 15.3749188176
13.0918835816 9.7213468755 4.2069643456
13.2050627493 9.0141641558 3.9182654079
13.8797105673 9.1313802805 4.3809982291
13.2162081127 8.7065225654 15.6929112818
13.0116040702 9.5694321595 15.7952603626
12.9533440352 10.2102030515 4.3767977713
13.6250656126 10.0771749332 4.7161714362
13.3040458166 10.3113379577 15.6513254206
13.6589126273 9.8165838895 15.5378544710
13.9381234272 10.5340005681 15.3219223496
12.9031703039 11.5657641831 5.2839709967
13.2541672634 10.9533000450 5.0218327663
13.7628165821 11.3120764210 5.5875726753
13.2866279953 10.9280856388 15.5613843506
12.9302142289 11.5177484791 15.5464869272
13.9975990611 11.9772919373 6.1822100715
13.1488870734 11.9144564575 15.3203304749
13.2134687769 12.3982359431 14.9561424044
13.6659405197 12.7537621465 6.6440233106
13.7131424713 13.3362796314 7.1987471065
13.4084155112 12.8083633320 14.5224035999
13.4673487325 13.2657706529 13.9749998124
13.5003244176 13.8582460543 7.6817215917
13.4917036660 14.2996138340 8.2976222116
12.9110501437 14.4110762548 12.5443913285
13.6574138648 14.1698814976 12.3444226474
13.1301184767 14.5426275744 11.9565502825
13.9307369614 13.6504435611 13.1270626871
13.1277749132 14.6091656408 8.6233026694
12.6737456380 15.0493223733 9.5663520991
13.0623089654 14.8220346035 9.3808300726
13.3131120354 14.7444732806 10.2470272861
13.0255951145 14.7372499676 11.1301775089
14.2087813447 2.3263735406 8.8490806799
14.9261298459 2.1710334328 9.4271908067
14.3843036702 2.1361825456 10.2170777817
14.9147285992 2.3415520103 10.8633048002
13.8786982385 3.0107737776 7.5546433631
14.3573977547 3.2676645995 7.2409247400
14.5799807339 2.9051297182 7.8456427120
14.3896183672 2.5545242577 8.3483844562
14.3995768060 2.6953607733 11.4925040678
14.8292720194 3.1593851386 12.1150980722
14.4021466144 4.2781214058 5.7568371499
14.6584800234 3.7710891211 6.6418144689
14.2152198896 3.6835406259 12.7695292988
13.9564064658 4.3009892737 13.4996603662
14.8905217646 4.2305362084 13.2378526503
13.4377637113 5.7734203788 3.3065825437
14.0610124973 5.6800057224 3.9314800483
14.8002736808 5.4640536306 4.7555678708
14.5765035755 4.8180667142 5.1788444165
14.4737486529 4.8701124922 13.8970552689
14.1706461231 5.6116177923 14.5740089049
15.0255623243 5.5655614072 14.2061698647
13.7928887627 6.4805672421 3.4612255081
14.3640307053 6.3807316543 3.9180116028
14.7091516711 6.0686147559 4.3009139194
14.6830340630 5.9533086371 14.6881981134
14.4013731656 6.1969672696 14.9632908719
14.3760509783 6.5891947353 15.1043219676
14.5464857874 6.4420518248 15.0774716174
13.7560661324 7.0869927484 3.4284184345
14.2018011069 7.0841856842 3.7823437812
14.6372941272 6.7010215327 15.0292785253
14.4062126914 7.3104591928 15.0597007332
13.8739343666 8.5262577771 4.0708561771
14.0998440655 7.8811222515 3.9324375675
14.6571258687 8.2115352390 4.4693150990
14.7275595348 8.5512764591 14.9526309309
14.7390220870 9.1647182407 4.9524183787
13.6277724717 9.1874691159 15.5482068836
14.2640599457 9.4833934020 15.2280144261
14.4217861127 9.9872682635 5.1671468052
13.9573820085 10.5693480910 5.2083631349
14.7030899376 10.4392088243 5.6268672544
14.6716713419 10.3257307764 14.9737941188
14.7252897539 11.2321744427 6.1032246946
13.6184365761 11.5723616522 15.1955172159
14.5501349184 11.2949072306 14.8174016028
14.8069677653 11.8066683336 6.5703781347
14.2689068852 12.2700321913 6.5474981502
14.6370429182 12.3785784557 6.9501994836
14.0358888766 12.4026426044 14.4716596871
14.9089455262 12.0090513617 14.3217794926
14.7340821842 12.5959492408 13.9414538650
14.0452116585 13.4389865244 7.5395770141
14.5170911837 12.9438073586 7.4563863345
14.3799399958 13.4870644573 8.0109704819
14.2977549130 13.0856497111 13.6679304981
15.0593728409 12.9547904097 13.2474604694
14.5757052518 13.4041241188 13.0265727176
13.7197840038 14.4097896071 8.9510364898
14.0923434728 13.9688378176 8.4736793497
13.8715937850 14.4553014233 9.8370877849
14.4143903937 14.0174624005 9.3526490256
13.8316797750 14.4606838878 10.7819999275
14.5919048201 14.0051629893 10.4445177507
13.6251223718 14.4477249231 11.5556073224
14.2586241918 14.1207950909 11.4779204953
14.5493270457 13.7367948944 12.3157485457
15.0906225124 2.5449332833 8.5038516932
15.9324691160 2.7430622003 8.3991746103
15.9221851379 2.3707856526 9.0237188053
15.7738875729 2.1363739725 9.6689847302
15.3515179865 2.1399975075 10.1947382048
15.8624303997 2.3661298243 10.7841273614
14.9807840935 3.3613145503 7.3161841363
15.6172882572 3.1850529733 7.8249348713
15.5292462653 2.7636207385 11.5337911217
15.6381355986 3.2229798527 12.1603736341
15.1196144332 4.2919143363 6.2158404128
15.4580988899 4.1454699406 6.6207468339
15.5791685823 3.7925357578 7.1221342009
15.2740976455 3.6470427457 12.6315005047
15.9215158729 4.2187749492 12.9800024914
15.1342659268 5.1590213383 5.2907191329
15.2756843076 4.7971637556 5.7814142780
15.3880349841 4.8596943904 13.6021200779
15.7182057954 5.4753468519 13.8040714684
14.8257066862 6.7165302964 4.2583488210
15.3130102072 6.2441136282 4.7682649789
15.8014713682 5.5906039567 5.5228205377
15.0389771681 6.1778533559 14.5589315048
15.6162309462 6.2581521382 14.1209552164
14.7393454616 6.3679296430 14.8961153524
14.6843016923 7.4170404646 4.2136367640
15.4100016890 7.2063773256 4.7245105317
15.0718901482 6.8546646063 14.6738782699
15.7875518633 7.3663621866 14.1295875149
15.6909565309 8.1192705431 5.1124731405
15.1881566597 7.8453188641 14.6351290180
15.6897880067 8.2549176867 14.2768350558
15.7386052379 8.9370313100 5.5433674822
15.0464994346 9.6545736570 5.4125033949
15.5595622578 9.7739908931 5.8926482717
15.3461868547 8.6746440929 14.5746710680
15.1848288618 9.5825246822 14.6893699815
15.3767399319 10.5367586338 6.1739948417
15.2591464561 10.6918520727 14.5809873519
15.2933844749 11.0585266115 6.3828321885
15.0767575921 11.3803494781 6.4118672424
15.4097416432 11.3463618126 6.7142755850
15.2151265045 11.4299090328 14.4625513698
15.0309091106 12.4366690186 7.3748604485
15.4699521049 11.8423865217 7.3049662575
15.3745519771 12.4597817512 7.8839044610
15.4579548473 11.8078208859 14.1190572572
15.3346116383 12.3362874825 13.7664052338
14.8149130402 13.5317676009 8.8340820504
15.1116879613 13.0115412362 8.3338618508
15.1171157306 13.5381305972 9.7798070769
15.5105004039 13.0268899349 9.2472262144
15.2802714874 13.5292655580 10.5952059340
15.8378733741 12.9675712165 10.3171796747
15.5959581878 13.3000221391 11.0863106112
15.0158555389 13.3680760570 12.6341668071
15.5884945524 13.0376288508 12.3761873141
15.1888883772 13.4711739671 12.0920584286
15.7722233053 12.5144981714 13.0735039886
15.0455759052 13.6774454923 11.3863090096
16.4386563500 2.7208348495 8.6475620023
16.7983873359 2.6274679254 9.1745699902
16.4226705900 2.2805669234 9.6029013589
16.1618457696 2.2116482236 10.1612853741
16.5480687086 2.4472546975 10.6137953508
16.5590935993 3.2392006884 8.2121057264
16.9199993400 2.9965917982 8.6789546431
16.4859736493 2.7315950208 11.2266640096
16.4104207647 3.1872435385 11.9661660648
16.0259647074 3.5739129998 12.4717077221
16.7340074852 3.8362964162 12.4759097482
15.6425184256 4.5162772298 6.3346535895
16.1089812776 4.4214068694 6.8363627739
16.4689903531 3.9851799198 7.5635062268
16.7593796615 4.6499045878 12.8680579400
16.0586501334 4.9577616952 6.2706614715
16.5622221516 4.9287183745 6.7647257063
16.7195833044 4.6452682193 7.1910387659
16.1764115119 5.0468094821 13.3601448602
16.2610915209 5.8513454110 13.5776387547
16.0995270622 6.5287237449 5.2386256586
16.7013576791 6.1625983564 5.8639134518
16.7293412215 5.4844814340 6.4527741545
16.2693351745 6.6960273295 13.6774422995
16.2784119805 7.2627906741 5.2508814097
16.3456543887 7.4247104085 13.6191072960
16.6706489919 7.0728683450 13.2701153043
16.6933316989 7.8054777922 13.1832734816
16.5761306937 7.7541952376 5.6154979321
16.1685385605 8.3051791013 5.5081834558
16.5026905606 8.4301494007 5.9543347522
16.2116381093 8.2739172068 13.7608276112
16.6813772843 8.7211627290 13.1615480947
16.0781954040 10.0034324211 6.5493002004
16.2658098527 9.1811609805 6.2261040622
16.5752493934 9.4355287605 6.8268552690
16.3393879274 9.2941923898 13.6700536619
16.6972723107 9.4978830369 13.1809308056
15.8188678131 9.0595346535 14.1970299012
15.7493842626 10.7647267391 6.6532573933
16.5194176900 9.9451468835 7.1167800502
16.2317246129 10.5361895879 7.1184532194
16.6010684721 10.3119135205 7.5920921446
16.4922293119 9.9626014025 13.5183492022
16.4703755446 10.5062317042 13.5284456121
15.9802164604 10.1957344373 14.0462036206
15.8746286879 11.1271214776 7.0992416107
16.2806946741 11.0897720658 7.7584026163
16.2487728869 11.0763350208 13.6547012319
16.6198862238 10.9146515049 13.2127627852
16.4832827761 11.5164606862 13.1000050020
15.7252530204 11.2110788757 14.1385833719
15.8043626286 12.4902640760 8.7150489569
16.0307746891 11.8841638865 8.2145232188
16.1049438142 12.5031851171 9.5717621362
16.3639308451 11.9349215886 9.0652430766
16.2764386946 12.4719731745 10.1302810625
16.5491166412 11.9959968629 9.9062219533
16.4378450136 12.3099943911 10.6607461640
15.9404515445 11.8495549435 13.5901446692
16.2656893539 12.0908965186 12.9268376287
15.5414748160 13.3078236594 11.6841823244
16.0320384876 12.8213478922 11.4371739393
16.2132492919 12.4453682251 12.3124323626
16.8799717587 2.4627766697 9.6439826034
16.8018938774 2.4368973434 10.0893814090
17.1823579896 3.4156505929 8.5000092558
17.4576540785 3.2631020547 9.0995019695
17.2938236218 2.8343986555 9.8266199560
17.1602723378 2.8625166969 10.7413229156
17.0945345740 3.1433432133 11.5712429812
17.0571645858 3.4362572224 12.0717263140
17.4217461696 3.5188013531 11.8672895754
17.1741628902 3.9387643294 8.1288226991
17.5401102870 3.8068368003 8.5626672212
17.3063701310 3.7848000563 12.2040753104
17.3235609313 4.3632519145 12.3903685000
16.9783403785 5.0863369716 7.0682997337
17.2441519261 4.7647689072 7.6867369774
16.8045257182 5.4950586640 13.0863781782
17.3217388450 5.1858400250 12.5757799708
16.7636905773 6.7976907771 5.6030666573
17.1540611985 6.5663795294 6.0851844119
17.2636424326 6.1126354739 6.5803595845
17.3626833049 5.5557219083 7.2340660698
17.2636412161 6.0723573802 12.6488941394
17.6522514983 5.7344128388 12.1758238524
17.6123679981 6.5272460136 12.0357197252
16.7727658704 6.3682650977 13.1783352503
16.7627601495 7.2288167138 5.5545902607
17.1225358802 7.1542852897 6.0107579767
17.6050948194 7.9276553936 8.5875437007
17.7536030679 7.3204571092 8.1888940734
17.5898555906 7.7019797314 7.8126111655
17.8076002301 7.3259739306 8.7684890849
17.1424512426 7.1900620286 12.5889204334
17.5510735699 7.2862600396 11.7890889344
16.9078482007 8.6534727934 6.8008821448
17.0636759910 7.8355874336 6.3108136522
17.3131510646 8.5128126037 7.8596165230
17.3948488364 7.8234284874 7.1114972159
17.4080144316 8.6978405190 8.7598433752
17.7358768406 7.6843964485 9.2782934678
17.5480687996 8.4437470545 9.5602497524
17.5358619422 8.4683975055 10.6902912026
17.7547225066 7.6843477580 10.0814968438
17.3513715945 8.2074099465 11.8089485165
17.6922257919 7.5692043460 11.0496970466
16.9988221983 8.2288412692 12.6483427734
16.8901258756 9.5242060084 7.5782481140
17.1948825185 9.4458176765 8.5808265449
17.3688214647 9.2535880598 9.3429281518
17.4464643759 9.4367615102 10.2632274540
17.3820964741 9.4077262279 11.3687247376
17.0380362373 9.2334808756 12.4657459716
16.8373758004 10.4713950889 8.4348806914
17.2207501235 10.2623026456 9.6650321570
17.4533096432 10.1641939091 10.4046210051
17.5006987497 10.0070022238 10.8894485927
17.4410231412 10.1481235899 11.3915874874
17.3783018998 10.5772338712 11.4709577329
17.1849236675 10.2787161779 12.0168166680
16.8041315848 10.2285751380 12.9669350922
16.5271607102 11.3478262577 8.5703755650
16.8051941013 11.2493516750 9.3687173885
17.3670103109 10.6170009354 10.4813789679
16.9910177016 11.3364842200 10.5490383374
17.0724588879 11.1593168554 11.6766268814
17.3712632444 10.7793975993 11.0266548042
16.8562880092 11.0268625186 12.5937413482
16.6288059993 12.0310880822 11.5238944092
16.6490809083 11.7771340838 12.3841549492
17.6848022753 3.2153762097 9.7528889366
17.7580534665 3.3912152694 10.4691440999
17.6005167669 3.4733667290 11.3335051700
17.6872122533 4.5103304574 8.3463724078
17.8009007443 3.9996268750 8.8550705683
17.8526228794 3.5277498461 9.7415552364
18.0467411987 3.9107914382 10.6607361717
18.1786716315 4.6377045906 11.1679526218
17.9725086504 4.1754911715 11.2916036546
17.6515470445 4.0063493406 11.8904483618
17.8483233602 5.6172865489 8.2510318066
17.9725644635 4.9745618940 8.6075911681
18.1105111572 5.0304733743 11.4431332274
18.1959582645 5.4618809496 11.2431239204
17.7907049686 4.9142581506 11.9368163144
17.4806083657 6.7278846101 6.6549127756
17.6715208488 6.2848960161 7.4094951442
17.8901352416 6.7137145847 8.3963610931
18.1409834578 5.7958641786 8.9368223059
18.1140396073 6.3810707306 9.3068408293
18.2444615113 6.2064144119 9.4673409323
17.9855768118 5.9536466944 11.4665033282
18.1744088368 6.1776087834 10.8300851716
17.4362042503 7.3040067463 6.6618855144
17.6756896505 7.0961309304 7.4378902331
17.9226008148 7.0953062735 9.3958744967
18.2127052800 6.4092256418 10.0492406790
18.0104484684 6.7875752245 10.4675312199
17.8127752008 6.8506389183 11.3824262655
17.5024015474 10.4135169338 10.7839903646
17.5035636480 10.4015970173 11.1249470328
3 2 1 0
3 0 3 2
3 1 4 0
3 0 4 3
3 7 6 5
3 5 8 7
3 11 10 9
3 1 2 9
3 2 11 9
3 2 12 11
3 13 5 3
3 5 12 3
3 12 2 3
3 5 6 12
3 8 5 14
3 14 5 13
3 17 16 15
3 15 18 17
3 9 10 19
3 19 10 20
3 21 4 1
3 9 21 1
3 19 21 9
3 13 3 4
3 21 13 4
3 22 13 21
3 14 13 23
3 23 13 22
3 15 16 24
3 24 16 25
3 18 15 26
3 26 15 24
3 20 27 19
3 19 27 21
3 21 27 28
3 30 29 28
3 29 21 28
3 29 22 21
3 23 22 31
3 22 32 31
3 22 29 32
3 34 33 32
3 33 24 32
3 25 31 32
3 25 32 24
3 24 33 26
3 30 35 29
3 29 35 32
3 32 35 36
3 32 36 34
3 39 38 37
3 41 40 37
3 37 40 39
3 43 42 41
3 41 42 40
3 43 44 42
3 47 46 45
3 49 48 45
3 45 48 47
3 48 49 38
3 38 49 37
3 49 6 37
3 6 7 37
3 37 7 8
3 50 37 8
3 41 37 50
3 41 51 43
3 41 50 51
3 44 43 52
3 43 53 52
3 43 51 53
3 53 54 52
3 57 56 55
3 57 55 46
3 46 55 45
3 55 10 45
3 10 11 45
3 45 11 12
3 45 12 49
3 49 12 6
3 14 58 50
3 14 50 8
3 58 16 17
3 51 58 17
3 50 58 51
3 51 17 18
3 59 51 18
3 53 51 59
3 54 53 60
3 53 61 60
3 53 59 61
3 61 62 60
3 55 56 63
3 63 56 64
3 63 20 10
3 63 10 55
3 23 65 58
3 23 58 14
3 65 25 16
3 65 16 58
3 26 66 59
3 26 59 18
3 68 61 67
3 61 66 67
3 61 59 66
3 61 68 62
3 63 64 69
3 69 64 70
3 71 27 20
3 63 71 20
3 69 71 63
3 72 28 27
3 72 27 71
3 72 30 28
3 31 65 23
3 25 65 31
3 33 34 73
3 66 26 33
3 73 66 33
3 74 66 73
3 67 66 75
3 75 66 74
3 70 76 69
3 69 76 71
3 71 76 77
3 79 78 77
3 78 71 77
3 78 72 71
3 80 35 30
3 72 80 30
3 78 80 72
3 81 36 35
3 81 35 80
3 73 34 36
3 81 73 36
3 82 73 81
3 73 83 74
3 73 82 83
3 75 74 84
3 84 74 83
3 79 85 78
3 78 85 80
3 80 85 86
3 80 86 81
3 81 86 87
3 81 87 82
3 82 87 88
3 90 89 88
3 89 82 88
3 89 83 82
3 84 83 91
3 83 92 91
3 83 89 92
3 92 93 91
3 89 90 94
3 94 90 95
3 97 92 96
3 92 94 96
3 92 89 94
3 92 97 93
3 95 98 94
3 94 98 96
3 101 100 99
3 103 102 99
3 99 102 101
3 105 104 103
3 103 104 102
3 105 106 104
3 109 108 107
3 111 110 107
3 107 110 109
3 113 112 111
3 111 112 110
3 112 113 100
3 100 113 99
3 113 38 99
3 38 39 99
3 99 39 40
3 99 40 103
3 103 40 42
3 103 42 105
3 115 114 44
3 44 114 42
3 114 106 42
3 106 105 42
3 115 116 114
3 107 108 117
3 117 108 118
3 117 46 47
3 111 117 47
3 107 117 111
3 111 47 48
3 111 48 113
3 113 48 38
3 52 115 44
3 120 119 54
3 54 119 52
3 119 116 52
3 116 115 52
3 120 121 119
3 124 123 122
3 124 122 118
3 118 122 117
3 122 56 117
3 56 57 117
3 117 57 46
3 60 120 54
3 126 125 62
3 62 125 60
3 125 121 60
3 121 120 60
3 126 127 125
3 123 128 122
3 56 122 128
3 129 56 128
3 64 56 129
3 67 130 68
3 126 62 68
3 130 126 68
3 131 126 130
3 127 126 132
3 132 126 131
3 135 134 133
3 129 135 133
3 70 129 133
3 64 129 70
3 75 136 130
3 75 130 67
3 130 137 131
3 130 136 137
3 132 131 138
3 138 131 137
3 134 139 133
3 139 141 140
3 139 140 76
3 133 139 76
3 70 133 76
3 142 77 76
3 142 76 140
3 142 79 77
3 84 143 136
3 84 136 75
3 136 144 137
3 136 143 144
3 138 137 145
3 145 137 144
3 141 146 140
3 148 147 146
3 147 140 146
3 147 142 140
3 149 85 79
3 142 149 79
3 147 149 142
3 150 86 85
3 150 85 149
3 151 87 86
3 151 86 150
3 152 88 87
3 152 87 151
3 152 90 88
3 91 143 84
3 143 91 93
3 153 143 93
3 144 143 153
3 145 144 154
3 154 144 153
3 148 155 147
3 147 155 149
3 149 155 156
3 149 156 150
3 150 156 157
3 150 157 151
3 151 157 158
3 160 159 158
3 159 151 158
3 159 152 151
3 159 95 90
3 159 90 152
3 96 161 97
3 161 162 97
3 97 162 93
3 162 163 93
3 163 153 93
3 153 163 154
3 160 164 159
3 159 164 95
3 164 98 95
3 164 165 98
3 96 98 161
3 98 166 161
3 98 165 166
3 161 166 162
3 169 168 167
3 167 170 169
3 173 172 171
3 175 174 171
3 171 174 173
3 177 176 175
3 175 176 174
3 100 101 177
3 101 176 177
3 101 178 176
3 102 167 168
3 178 102 168
3 101 102 178
3 179 170 167
3 102 179 167
3 104 179 102
3 181 180 106
3 180 104 106
3 180 179 104
3 181 182 180
3 171 172 109
3 172 108 109
3 172 183 108
3 171 109 110
3 171 110 175
3 175 110 112
3 175 112 177
3 177 112 100
3 114 181 106
3 185 184 116
3 116 184 114
3 184 182 114
3 182 181 114
3 185 186 184
3 189 188 187
3 183 189 187
3 118 183 187
3 108 183 118
3 119 185 116
3 191 190 121
3 121 190 119
3 190 186 119
3 186 185 119
3 193 192 191
3 191 192 190
3 193 194 192
3 187 188 124
3 188 123 124
3 188 195 123
3 187 124 118
3 125 191 121
3 191 125 127
3 196 191 127
3 193 191 196
3 194 193 197
3 197 193 196
3 128 123 198
3 123 199 198
3 123 195 199
3 198 129 128
3 132 200 196
3 132 196 127
3 197 196 201
3 201 196 200
3 198 199 135
3 199 134 135
3 199 202 134
3 198 135 129
3 138 203 200
3 138 200 132
3 201 200 204
3 204 200 203
3 139 134 205
3 134 206 205
3 134 202 206
3 205 141 139
3 145 207 203
3 145 203 138
3 204 203 208
3 208 203 207
3 206 209 205
3 205 209 141
3 209 146 141
3 209 210 146
3 148 146 210
3 148 210 211
3 154 212 207
3 154 207 145
3 208 207 213
3 213 207 212
3 211 214 148
3 148 214 155
3 214 216 215
3 156 214 215
3 155 214 156
3 217 157 156
3 217 156 215
3 218 158 157
3 218 157 217
3 218 160 158
3 162 219 163
3 212 154 163
3 219 212 163
3 220 212 219
3 213 212 221
3 221 212 220
3 216 222 215
3 215 222 217
3 217 222 223
3 217 223 218
3 218 223 224
3 218 224 160
3 224 164 160
3 224 225 164
3 164 226 165
3 225 226 164
3 226 228 227
3 166 226 227
3 165 226 166
3 227 229 166
3 166 229 162
3 229 230 162
3 230 219 162
3 219 230 220
3 220 230 231
3 220 231 221
3 228 232 227
3 227 232 229
3 235 234 233
3 233 236 235
3 239 238 237
3 168 169 237
3 169 239 237
3 169 240 239
3 242 241 170
3 241 169 170
3 241 240 169
3 244 243 242
3 242 243 241
3 244 245 243
3 247 246 173
3 173 246 172
3 174 233 234
3 247 174 234
3 173 174 247
3 248 236 233
3 174 248 233
3 176 248 174
3 178 237 238
3 248 178 238
3 176 178 248
3 237 178 168
3 179 242 170
3 242 179 180
3 242 180 244
3 250 249 182
3 182 249 180
3 249 245 180
3 245 244 180
3 250 251 249
3 254 253 252
3 246 254 252
3 183 246 252
3 172 246 183
3 184 250 182
3 256 255 186
3 186 255 184
3 255 251 184
3 251 250 184
3 256 257 255
3 252 253 189
3 253 188 189
3 253 258 188
3 252 189 183
3 190 256 186
3 259 257 256
3 190 259 256
3 192 259 190
3 192 194 259
3 259 194 260
3 263 262 261
3 258 263 261
3 195 258 261
3 188 258 195
3 197 260 194
3 197 264 260
3 261 262 265
3 265 262 266
3 265 199 195
3 265 195 261
3 201 268 267
3 264 201 267
3 197 201 264
3 268 269 267
3 266 270 265
3 199 265 270
3 271 199 270
3 202 199 271
3 204 272 268
3 204 268 201
3 269 268 273
3 273 268 272
3 275 206 274
3 206 271 274
3 206 202 271
3 276 275 274
3 208 277 272
3 208 272 204
3 273 272 278
3 278 272 277
3 275 209 206
3 210 209 275
3 279 210 275
3 276 279 275
3 280 210 279
3 280 211 210
3 213 281 277
3 213 277 208
3 278 277 282
3 282 277 281
3 279 283 280
3 280 283 211
3 283 214 211
3 283 284 214
3 216 214 284
3 216 284 285
3 287 286 281
3 213 287 281
3 221 287 213
3 281 286 282
3 285 288 216
3 216 288 222
3 288 290 289
3 223 288 289
3 222 288 223
3 291 224 223
3 291 223 289
3 292 225 224
3 292 224 291
3 293 226 225
3 293 225 292
3 293 228 226
3 229 294 230
3 230 294 295
3 296 230 295
3 231 230 296
3 221 231 287
3 287 231 296
3 290 297 289
3 289 297 291
3 291 297 298
3 291 298 292
3 292 298 299
3 292 299 293
3 293 299 300
3 293 300 228
3 300 232 228
3 300 301 232
3 229 232 294
3 232 302 294
3 232 301 302
3 294 302 295
3 305 304 303
3 303 306 305
3 308 307 235
3 235 307 234
3 310 309 236
3 309 235 236
3 309 308 235
3 238 239 310
3 239 309 310
3 239 311 309
3 240 303 304
3 311 240 304
3 239 240 311
3 312 306 303
3 240 312 303
3 241 312 240
3 313 241 243
3 313 312 241
3 243 245 313
3 313 245 314
3 316 315 247
3 247 315 246
3 247 234 307
3 247 307 316
3 248 310 236
3 310 248 238
3 317 314 245
3 317 245 249
3 249 251 317
3 317 251 318
3 320 319 254
3 254 319 253
3 254 246 315
3 254 315 320
3 321 318 251
3 321 251 255
3 323 322 257
3 322 255 257
3 322 321 255
3 323 324 322
3 327 326 325
3 319 327 325
3 258 319 325
3 253 319 258
3 259 323 257
3 259 260 323
3 260 324 323
3 260 328 324
3 325 326 263
3 326 262 263
3 326 329 262
3 325 263 258
3 264 331 330
3 328 264 330
3 260 264 328
3 331 332 330
3 329 266 262
3 333 266 329
3 267 331 264
3 267 269 331
3 269 332 331
3 269 334 332
3 333 335 266
3 266 335 270
3 271 270 335
3 271 335 336
3 273 334 269
3 273 337 334
3 274 271 338
3 271 339 338
3 271 336 339
3 338 276 274
3 278 337 273
3 278 340 337
3 339 341 338
3 276 338 341
3 342 276 341
3 279 276 342
3 282 340 278
3 282 343 340
3 342 344 279
3 279 344 283
3 344 346 345
3 284 344 345
3 283 344 284
3 345 285 284
3 287 347 286
3 347 348 286
3 348 282 286
3 348 343 282
3 346 349 345
3 345 349 285
3 349 288 285
3 349 350 288
3 290 288 350
3 290 350 351
3 295 352 296
3 352 353 296
3 296 353 287
3 353 354 287
3 354 347 287
3 347 354 348
3 351 355 290
3 290 355 297
3 297 356 298
3 355 356 297
3 356 358 357
3 299 356 357
3 298 356 299
3 359 300 299
3 359 299 357
3 360 301 300
3 360 300 359
3 361 302 301
3 361 301 360
3 361 362 302
3 302 362 295
3 362 363 295
3 363 352 295
3 352 363 353
3 358 364 357
3 357 364 359
3 359 364 365
3 359 365 360
3 360 365 366
3 360 366 361
3 361 366 367
3 361 367 362
3 370 369 368
3 368 304 370
3 304 305 370
3 372 371 370
3 372 370 305
3 306 372 305
3 374 373 308
3 308 373 307
3 375 308 309
3 375 374 308
3 311 368 369
3 375 311 369
3 309 311 375
3 372 376 371
3 304 368 311
3 376 372 306
3 312 376 306
3 377 376 312
3 378 312 313
3 378 377 312
3 313 314 378
3 378 314 379
3 382 381 380
3 315 316 380
3 316 382 380
3 316 383 382
3 316 307 373
3 316 373 383
3 384 379 314
3 384 314 317
3 386 385 318
3 385 317 318
3 385 384 317
3 386 387 385
3 390 389 388
3 390 388 381
3 381 388 380
3 388 319 380
3 319 320 380
3 380 320 315
3 321 386 318
3 391 387 386
3 321 391 386
3 322 391 321
3 322 324 391
3 391 324 392
3 395 394 393
3 395 393 389
3 389 393 388
3 393 326 388
3 326 327 388
3 388 327 319
3 328 392 324
3 328 396 392
3 393 394 397
3 397 394 398
3 397 329 326
3 397 326 393
3 399 396 328
3 399 328 330
3 330 332 399
3 399 332 400
3 397 398 401
3 401 398 402
3 401 333 329
3 401 329 397
3 334 404 403
3 400 334 403
3 332 334 400
3 402 405 401
3 405 407 406
3 405 406 335
3 401 405 335
3 333 401 335
3 406 336 335
3 337 408 404
3 337 404 334
3 407 409 406
3 336 406 409
3 410 336 409
3 339 336 410
3 340 411 408
3 340 408 337
3 410 412 339
3 339 412 341
3 342 341 412
3 342 412 413
3 343 414 411
3 343 411 340
3 413 415 342
3 342 415 344
3 346 344 415
3 346 415 416
3 418 417 414
3 343 418 414
3 348 418 343
3 416 419 346
3 346 419 349
3 419 421 420
3 350 419 420
3 349 419 350
3 420 351 350
3 423 422 354
3 423 354 353
3 348 354 418
3 418 354 422
3 421 424 420
3 420 424 351
3 424 355 351
3 424 425 355
3 355 426 356
3 425 426 355
3 358 356 426
3 358 426 427
3 429 428 363
3 429 363 362
3 353 363 423
3 423 363 428
3 427 430 358
3 358 430 364
3 364 431 365
3 430 431 364
3 431 433 432
3 366 431 432
3 365 431 366
3 366 432 434
3 435 366 434
3 367 366 435
3 362 367 429
3 429 367 435
3 433 436 432
3 432 436 434
3 437 369 370
3 371 437 370
3 439 438 374
3 374 438 373
3 440 374 375
3 440 439 374
3 375 369 437
3 441 375 437
3 440 375 441
3 441 437 371
3 376 441 371
3 442 441 376
3 443 376 377
3 443 442 376
3 445 443 444
3 443 378 444
3 443 377 378
3 379 444 378
3 447 446 382
3 382 446 381
3 448 382 383
3 448 447 382
3 383 373 438
3 383 438 448
3 449 445 444
3 449 444 379
3 384 449 379
3 450 449 384
3 452 450 451
3 450 385 451
3 450 384 385
3 387 451 385
3 455 454 453
3 389 390 453
3 390 455 453
3 390 456 455
3 390 381 446
3 390 446 456
3 457 452 451
3 459 457 458
3 458 457 391
3 457 451 391
3 451 387 391
3 392 458 391
3 453 454 395
3 454 394 395
3 454 460 394
3 453 395 389
3 461 459 458
3 458 392 461
3 392 462 461
3 392 396 462
3 465 464 463
3 460 465 463
3 398 460 463
3 394 460 398
3 466 462 396
3 466 396 399
3 399 400 466
3 466 400 467
3 464 468 463
3 398 463 468
3 469 398 468
3 402 398 469
3 470 467 400
3 470 400 403
3 469 471 402
3 402 471 405
3 407 405 471
3 407 471 472
3 472 473 407
3 407 473 409
3 410 409 473
3 410 473 474
3 412 410 475
3 410 476 475
3 410 474 476
3 475 413 412
3 479 478 477
3 476 480 475
3 480 482 481
3 480 481 415
3 475 480 415
3 413 475 415
3 481 416 415
3 479 477 417
3 418 479 417
3 483 479 418
3 482 484 481
3 484 486 485
3 484 485 419
3 481 484 419
3 416 481 419
3 485 421 419
3 423 487 422
3 487 488 422
3 488 418 422
3 488 483 418
3 486 489 485
3 489 491 490
3 489 490 424
3 485 489 424
3 421 485 424
3 492 425 424
3 492 424 490
3 493 426 425
3 493 425 492
3 493 427 426
3 429 494 428
3 494 495 428
3 428 495 423
3 495 496 423
3 496 487 423
3 487 496 488
3 491 497 490
3 490 497 492
3 492 497 498
3 492 498 493
3 493 498 499
3 493 499 427
3 499 430 427
3 499 500 430
3 500 502 501
3 431 500 501
3 430 500 431
3 501 433 431
3 434 503 435
3 503 504 435
3 435 504 429
3 504 505 429
3 505 494 429
3 494 505 495
3 502 506 501
3 501 506 433
3 506 436 433
3 506 507 436
3 434 436 503
3 436 508 503
3 436 507 508
3 503 508 504
3 509 438 439
3 509 439 510
3 439 511 510
3 439 440 511
3 512 440 441
3 512 511 440
3 513 441 442
3 513 512 441
3 514 442 443
3 514 513 442
3 443 445 514
3 514 445 515
3 517 516 447
3 447 516 446
3 518 447 448
3 518 517 447
3 448 438 509
3 519 448 509
3 518 448 519
3 519 509 510
3 520 515 445
3 520 445 449
3 521 449 450
3 521 520 449
3 450 452 521
3 521 452 522
3 524 523 455
3 455 523 454
3 525 455 456
3 525 524 455
3 456 446 516
3 456 516 525
3 526 522 452
3 526 452 457
3 457 459 526
3 526 459 527
3 523 460 454
3 528 460 523
3 529 527 459
3 529 459 461
3 461 462 529
3 529 462 530
3 531 464 465
3 532 531 465
3 460 532 465
3 528 532 460
3 533 530 462
3 533 462 466
3 466 467 533
3 533 467 534
3 531 468 464
3 469 468 531
3 532 469 531
3 535 469 532
3 467 470 536
3 537 467 536
3 534 467 537
3 535 538 469
3 469 538 471
3 472 471 538
3 472 538 539
3 540 537 536
3 473 472 541
3 472 542 541
3 472 539 542
3 541 474 473
3 542 543 541
3 474 541 543
3 544 474 543
3 476 474 544
3 546 545 478
3 546 478 479
3 544 547 476
3 476 547 480
3 482 480 547
3 482 547 548
3 483 546 479
3 483 549 546
3 548 550 482
3 482 550 484
3 486 484 550
3 486 550 551
3 488 549 483
3 488 552 549
3 551 553 486
3 486 553 489
3 491 489 553
3 491 553 554
3 556 555 496
3 556 496 495
3 488 496 552
3 552 496 555
3 554 557 491
3 491 557 497
3 497 558 498
3 557 558 497
3 558 560 559
3 499 558 559
3 498 558 499
3 561 500 499
3 561 499 559
3 561 502 500
3 564 563 562
3 505 504 562
3 563 505 562
3 565 505 563
3 495 505 556
3 556 505 565
3 560 566 559
3 559 566 561
3 561 566 567
3 561 567 502
3 567 506 502
3 567 568 506
3 506 569 507
3 568 569 506
3 562 508 564
3 508 569 564
3 508 507 569
3 508 562 504
3 570 510 511
3 512 571 511
3 511 571 570
3 571 512 572
3 512 573 572
3 512 513 573
3 575 573 574
3 573 514 574
3 573 513 514
3 515 574 514
3 576 516 517
3 518 577 517
3 517 577 576
3 577 518 578
3 518 579 578
3 518 519 579
3 519 510 570
3 580 519 570
3 579 519 580
3 580 570 571
3 580 571 581
3 581 571 572
3 582 575 574
3 582 574 515
3 520 582 515
3 583 582 520
3 585 583 584
3 583 521 584
3 583 520 521
3 522 584 521
3 586 523 524
3 586 524 587
3 524 588 587
3 524 525 588
3 525 516 576
3 589 525 576
3 588 525 589
3 589 576 577
3 589 577 590
3 590 577 578
3 591 585 584
3 591 584 522
3 526 591 522
3 592 591 526
3 526 527 592
3 592 527 593
3 595 594 586
3 594 523 586
3 594 528 523
3 595 586 587
3 596 593 527
3 596 527 529
3 529 530 596
3 596 530 597
3 594 532 528
3 598 532 594
3 599 597 530
3 599 530 533
3 533 534 599
3 599 534 600
3 602 535 601
3 535 598 601
3 535 532 598
3 603 602 601
3 537 600 534
3 537 604 600
3 602 538 535
3 539 538 602
3 603 539 602
3 605 539 603
3 606 604 537
3 606 537 540
3 608 542 607
3 542 605 607
3 542 539 605
3 609 608 607
3 608 543 542
3 544 543 608
3 609 544 608
3 610 544 609
3 612 611 545
3 612 545 546
3 547 544 613
3 544 614 613
3 544 610 614
3 613 548 547
3 549 612 546
3 549 615 612
3 614 616 613
3 613 616 548
3 616 550 548
3 616 617 550
3 551 550 617
3 551 617 618
3 552 615 549
3 552 619 615
3 553 551 620
3 551 621 620
3 551 618 621
3 620 554 553
3 623 622 555
3 623 555 556
3 552 555 619
3 619 555 622
3 621 624 620
3 624 626 625
3 624 625 557
3 620 624 557
3 554 620 557
3 627 558 557
3 627 557 625
3 627 560 558
3 564 628 563
3 563 628 629
3 630 563 629
3 565 563 630
3 556 565 623
3 623 565 630
3 626 631 625
3 625 631 627
3 627 631 632
3 627 632 560
3 632 566 560
3 632 633 566
3 566 634 567
3 633 634 566
3 567 635 568
3 634 635 567
3 568 636 569
3 635 636 568
3 564 569 628
3 569 637 628
3 569 636 637
3 628 637 629
3 638 572 573
3 640 638 639
3 638 573 639
3 575 641 639
3 575 639 573
3 641 642 639
3 643 578 579
3 580 644 579
3 579 644 643
3 644 580 645
3 580 646 645
3 580 581 646
3 581 572 638
3 647 581 638
3 646 581 647
3 575 582 641
3 638 640 647
3 648 642 641
3 582 648 641
3 583 648 582
3 583 585 648
3 648 585 649
3 651 650 588
3 588 650 587
3 652 588 589
3 652 651 588
3 653 589 590
3 653 652 589
3 590 578 643
3 654 590 643
3 653 590 654
3 654 643 644
3 654 644 655
3 655 644 645
3 656 649 585
3 656 585 591
3 658 656 657
3 656 592 657
3 656 591 592
3 593 657 592
3 660 659 595
3 595 659 594
3 595 587 650
3 595 650 660
3 661 658 657
3 661 657 593
3 596 661 593
3 662 661 596
3 596 597 662
3 662 597 663
3 665 598 664
3 598 659 664
3 598 594 659
3 666 665 664
3 597 599 667
3 668 597 667
3 663 597 668
3 600 667 599
3 665 601 598
3 603 601 665
3 666 603 665
3 669 603 666
3 670 668 667
3 667 600 670
3 600 671 670
3 600 604 671
3 669 605 603
3 672 605 669
3 604 606 673
3 674 604 673
3 671 604 674
3 672 675 605
3 605 675 607
3 609 607 675
3 609 675 676
3 674 673 677
3 674 677 678
3 676 610 609
3 679 610 676
3 678 677 611
3 612 678 611
3 680 678 612
3 682 614 681
3 614 679 681
3 614 610 679
3 683 682 681
3 615 680 612
3 615 684 680
3 682 616 614
3 683 685 682
3 685 616 682
3 685 617 616
3 618 617 685
3 618 685 686
3 689 688 687
3 688 684 687
3 684 619 687
3 684 615 619
3 691 621 690
3 621 686 690
3 621 618 686
3 692 691 690
3 695 694 693
3 693 694 689
3 693 689 687
3 623 693 687
3 622 623 687
3 622 687 619
3 691 624 621
3 697 696 626
3 697 626 624
3 692 697 624
3 691 692 624
3 698 696 697
3 701 700 699
3 699 700 695
3 699 695 693
3 629 699 693
3 630 629 693
3 630 693 623
3 696 631 626
3 698 702 696
3 702 631 696
3 702 632 631
3 702 704 703
3 633 702 703
3 632 702 633
3 633 703 705
3 706 633 705
3 634 633 706
3 634 707 635
3 706 707 634
3 635 708 636
3 707 708 635
3 699 637 701
3 637 708 701
3 637 636 708
3 637 699 629
3 711 710 709
3 640 639 709
3 639 711 709
3 639 712 711
3 639 642 712
3 712 642 713
3 715 714 646
3 646 714 645
3 647 709 710
3 715 647 710
3 646 647 715
3 709 647 640
3 716 713 642
3 716 642 648
3 648 649 716
3 716 649 717
3 718 650 651
3 652 719 651
3 651 719 718
3 653 720 652
3 652 720 719
3 720 653 721
3 653 722 721
3 653 654 722
3 723 654 655
3 723 722 654
3 655 645 714
3 655 714 723
3 724 717 649
3 724 649 656
3 726 725 658
3 725 656 658
3 725 724 656
3 726 727 725
3 728 659 660
3 729 728 660
3 729 660 650
3 730 729 650
3 718 730 650
3 730 718 719
3 730 719 731
3 731 719 720
3 731 720 732
3 732 720 721
3 661 726 658
3 733 727 726
3 661 733 726
3 662 733 661
3 662 663 733
3 733 663 734
3 728 664 659
3 666 664 728
3 729 666 728
3 735 666 729
3 668 734 663
3 668 736 734
3 735 669 666
3 737 669 735
3 668 670 738
3 739 668 738
3 736 668 739
3 671 738 670
3 741 672 740
3 672 737 740
3 672 669 737
3 742 741 740
3 739 738 743
3 739 743 744
3 674 743 671
3 671 743 738
3 741 675 672
3 746 745 676
3 746 676 675
3 742 746 675
3 741 742 675
3 747 745 746
3 748 744 743
3 743 674 748
3 674 749 748
3 674 678 749
3 750 679 745
3 745 679 676
3 745 747 751
3 745 751 750
3 754 753 752
3 753 749 752
3 749 680 752
3 749 678 680
3 750 681 679
3 756 755 683
3 756 683 681
3 751 756 681
3 750 751 681
3 757 755 756
3 758 754 752
3 752 680 758
3 680 759 758
3 680 684 759
3 755 685 683
3 686 685 755
3 757 686 755
3 760 686 757
3 762 761 688
3 762 688 689
3 684 688 759
3 759 688 761
3 760 763 686
3 686 763 690
3 692 690 763
3 692 763 764
3 766 765 694
3 766 694 695
3 689 694 762
3 762 694 765
3 764 767 692
3 692 767 697
3 698 697 767
3 698 767 768
3 771 770 769
3 700 701 769
3 770 700 769
3 772 700 770
3 695 700 766
3 766 700 772
3 768 773 698
3 698 773 702
3 775 774 704
3 702 775 704
3 773 775 702
3 706 705 774
3 775 706 774
3 776 706 775
3 706 777 707
3 776 777 706
3 769 708 771
3 708 777 771
3 708 707 777
3 708 769 701
3 779 778 711
3 711 778 710
3 780 711 712
3 780 779 711
3 712 713 780
3 780 713 781
3 784 783 782
3 714 715 782
3 715 784 782
3 715 785 784
3 715 710 778
3 715 778 785
3 786 781 713
3 786 713 716
3 716 717 786
3 786 717 787
3 789 788 722
3 722 788 721
3 723 782 783
3 789 723 783
3 722 723 789
3 782 723 714
3 790 787 717
3 790 717 724
3 792 790 791
3 790 725 791
3 790 724 725
3 727 791 725
3 793 729 730
3 731 794 730
3 730 794 793
3 794 731 795
3 731 796 795
3 731 732 796
3 732 721 788
3 732 788 796
3 797 792 791
3 799 797 798
3 798 797 733
3 797 791 733
3 791 727 733
3 734 798 733
3 800 735 793
3 793 735 729
3 794 802 801
3 800 794 801
3 793 794 800
3 802 794 795
3 803 799 798
3 734 736 798
3 736 804 798
3 804 803 798
3 804 736 805
3 805 806 804
3 807 737 800
3 800 737 735
3 800 801 808
3 800 808 807
3 810 809 805
3 736 810 805
3 739 810 736
3 805 809 806
3 807 740 737
3 812 811 742
3 812 742 740
3 808 812 740
3 807 808 740
3 813 811 812
3 744 810 739
3 744 814 810
3 811 746 742
3 747 746 811
3 813 747 811
3 815 747 813
3 744 748 816
3 817 744 816
3 814 744 817
3 749 816 748
3 819 751 818
3 751 815 818
3 751 747 815
3 820 819 818
3 817 816 753
3 754 817 753
3 821 817 754
3 753 816 749
3 819 756 751
3 757 756 819
3 820 757 819
3 822 757 820
3 754 758 823
3 824 754 823
3 821 754 824
3 759 823 758
3 826 760 825
3 760 822 825
3 760 757 822
3 827 826 825
3 830 829 828
3 828 829 824
3 828 824 823
3 762 828 823
3 761 762 823
3 761 823 759
3 826 763 760
3 832 831 764
3 832 764 763
3 827 832 763
3 826 827 763
3 833 831 832
3 836 835 834
3 834 835 830
3 834 830 828
3 766 834 828
3 765 766 828
3 765 828 762
3 831 767 764
3 838 837 768
3 838 768 767
3 833 838 767
3 831 833 767
3 840 839 837
3 840 837 838
3 842 841 839
3 842 839 840
3 844 843 841
3 844 841 842
3 770 771 843
3 844 770 843
3 845 770 844
3 834 772 836
3 772 845 836
3 772 770 845
3 772 834 766
3 837 773 768
3 773 837 775
3 775 837 839
3 775 839 776
3 776 839 841
3 776 841 777
3 777 841 843
3 777 843 771
3 848 847 846
3 778 779 846
3 779 848 846
3 779 849 848
3 850 779 780
3 850 849 779
3 780 781 850
3 850 781 851
3 852 783 784
3 847 853 846
3 853 784 846
3 784 785 846
3 784 853 852
3 846 785 778
3 854 851 781
3 854 781 786
3 786 787 854
3 854 787 855
3 857 856 789
3 789 856 788
3 789 783 852
3 858 789 852
3 857 789 858
3 858 852 853
3 859 855 787
3 859 787 790
3 790 792 859
3 859 792 860
3 861 795 796
3 862 861 796
3 788 862 796
3 856 862 788
3 863 860 792
3 863 792 797
3 797 799 863
3 863 799 864
3 865 801 802
3 866 865 802
3 866 802 795
3 867 866 795
3 861 867 795
3 867 861 862
3 799 803 868
3 869 799 868
3 864 799 869
3 804 870 803
3 803 870 868
3 806 870 804
3 871 808 865
3 865 808 801
3 865 866 872
3 865 872 871
3 869 868 873
3 869 873 874
3 810 873 809
3 873 870 809
3 873 868 870
3 809 870 806
3 871 812 808
3 813 812 871
3 872 813 871
3 875 813 872
3 874 873 876
3 874 876 877
3 814 876 810
3 810 876 873
3 879 815 878
3 815 875 878
3 815 813 875
3 880 879 878
3 881 877 876
3 876 814 881
3 814 882 881
3 814 817 882
3 879 818 815
3 820 818 879
3 880 820 879
3 883 820 880
3 821 882 817
3 821 884 882
3 886 822 885
3 822 883 885
3 822 820 883
3 887 886 885
3 824 884 821
3 824 888 884
3 886 825 822
3 890 889 827
3 890 827 825
3 887 890 825
3 886 887 825
3 891 889 890
3 893 892 829
3 893 829 830
3 824 829 888
3 888 829 892
3 889 832 827
3 895 894 833
3 895 833 832
3 891 895 832
3 889 891 832
3 897 896 894
3 897 894 895
3 899 898 896
3 899 896 897
3 900 898 899
3 903 902 901
3 835 836 901
3 902 835 901
3 904 835 902
3 830 835 893
3 893 835 904
3 894 838 833
3 838 894 840
3 840 894 896
3 840 896 842
3 842 896 898
3 900 905 898
3 905 842 898
3 905 844 842
3 901 845 903
3 845 905 903
3 845 844 905
3 845 901 836
3 906 847 848
3 906 848 907
3 848 908 907
3 848 849 908
3 909 849 850
3 909 908 849
3 850 851 909
3 909 851 910
3 912 911 906
3 911 847 906
3 911 853 847
3 912 906 907
3 913 910 851
3 913 851 854
3 915 914 855
3 914 854 855
3 914 913 854
3 915 916 914
3 917 856 857
3 858 918 857
3 857 918 917
3 919 918 858
3 853 919 858
3 911 919 853
3 859 915 855
3 859 860 915
3 860 916 915
3 860 920 916
3 921 862 917
3 917 862 856
3 918 923 922
3 921 918 922
3 917 918 921
3 923 918 919
3 924 920 860
3 924 860 863
3 863 864 924
3 924 864 925
3 927 926 867
3 867 926 866
3 867 862 921
3 928 867 921
3 927 867 928
3 928 921 922
3 869 925 864
3 869 929 925
3 926 872 866
3 930 872 926
3 933 932 931
3 932 929 931
3 929 874 931
3 929 869 874
3 935 875 934
3 875 930 934
3 875 872 930
3 936 935 934
3 933 931 937
3 933 937 938
3 877 937 874
3 874 937 931
3 935 878 875
3 940 939 880
3 940 880 878
3 936 940 878
3 935 936 878
3 941 939 940
3 938 937 942
3 938 942 943
3 881 944 877
3 944 937 877
3 944 942 937
3 882 944 881
3 945 883 939
3 939 883 880
3 939 941 946
3 947 939 946
3 945 939 947
3 948 947 946
3 949 943 942
3 951 950 949
3 942 951 949
3 944 951 942
3 884 951 882
3 882 951 944
3 945 885 883
3 885 945 887
3 945 952 887
3 945 947 952
3 947 948 953
3 947 953 952
3 956 955 954
3 954 955 950
3 951 954 950
3 957 954 951
3 888 957 884
3 884 957 951
3 952 890 887
3 959 958 891
3 959 891 890
3 953 959 890
3 952 953 890
3 961 960 958
3 961 958 959
3 963 962 960
3 963 960 961
3 964 962 963
3 956 954 965
3 956 965 966
3 893 965 892
3 965 957 892
3 965 954 957
3 892 957 888
3 958 895 891
3 895 958 897
3 897 958 960
3 897 960 899
3 899 960 962
3 968 967 900
3 968 900 899
3 964 968 899
3 962 964 899
3 902 903 967
3 968 902 967
3 969 902 968
3 965 904 966
3 904 969 966
3 904 902 969
3 904 965 893
3 967 905 900
3 905 967 903
3 970 907 908
3 909 971 908
3 908 971 970
3 910 971 909
3 972 911 912
3 973 972 912
3 973 912 907
3 974 973 907
3 970 974 907
3 974 970 971
3 974 971 975
3 975 971 910
3 913 975 910
3 976 975 913
3 978 976 977
3 976 914 977
3 976 913 914
3 916 977 914
3 980 979 972
3 979 911 972
3 979 919 911
3 980 972 973
3 981 978 977
3 977 916 981
3 916 982 981
3 916 920 982
3 983 922 923
3 984 983 923
3 919 984 923
3 979 984 919
3 920 924 985
3 986 920 985
3 982 920 986
3 925 985 924
3 987 926 927
3 987 927 988
3 927 989 988
3 927 928 989
3 928 922 983
3 990 928 983
3 989 928 990
3 990 983 984
3 993 992 991
3 991 992 986
3 985 991 986
3 994 991 985
3 929 994 925
3 925 994 985
3 995 930 987
3 987 930 926
3 987 988 996
3 987 996 995
3 999 998 997
3 1000 997 998
3 993 991 1001
3 993 1001 1002
3 933 1001 932
3 1001 994 932
3 1001 991 994
3 932 994 929
3 995 934 930
3 1004 1003 936
3 1004 936 934
3 996 1004 934
3 995 996 934
3 1006 1005 1003
3 1006 1003 1004
3 1005 1006 999
3 997 1005 999
3 1007 1005 997
3 997 1000 1008
3 1009 997 1008
3 1007 997 1009
3 1011 1010 1009
3 1011 1009 1008
3 1013 1012 1010
3 1013 1010 1011
3 1012 1013 1002
3 1001 1012 1002
3 1014 1012 1001
3 938 1014 933
3 933 1014 1001
3 1003 940 936
3 940 1003 941
3 1003 1015 941
3 1003 1005 1015
3 1016 1005 1007
3 1015 1005 1016
3 1017 1007 1009
3 1016 1007 1017
3 1018 1009 1010
3 1017 1009 1018
3 1019 1010 1012
3 1018 1010 1019
3 1020 1012 1014
3 1019 1012 1020
3 943 1020 938
3 938 1020 1014
3 1015 946 941
3 946 1015 948
3 1015 1021 948
3 1015 1016 1021
3 1022 1016 1017
3 1021 1016 1022
3 1018 1024 1023
3 1022 1018 1023
3 1017 1018 1022
3 1024 1018 1019
3 1024 1019 1025
3 1027 1026 1025
3 1019 1027 1025
3 1020 1027 1019
3 949 1028 943
3 1028 1020 943
3 1028 1027 1020
3 950 1028 949
3 1029 953 1021
3 1021 953 948
3 1030 1021 1022
3 1029 1021 1030
3 1022 1023 1031
3 1032 1022 1031
3 1030 1022 1032
3 1034 1033 1032
3 1034 1032 1031
3 1033 1034 1026
3 1027 1033 1026
3 1035 1033 1027
3 956 1035 955
3 1035 1028 955
3 1035 1027 1028
3 955 1028 950
3 1029 959 953
3 959 1029 961
3 961 1029 1030
3 961 1030 963
3 963 1030 1032
3 963 1032 964
3 1032 1036 964
3 1032 1033 1036
3 1037 1033 1035
3 1036 1033 1037
3 966 1037 956
3 956 1037 1035
3 1036 968 964
3 968 1036 969
3 969 1036 1037
3 969 1037 966
3 1038 973 974
3 975 1039 974
3 974 1039 1038
3 976 1040 975
3 975 1040 1039
3 978 1040 976
3 1041 979 980
3 1042 1041 980
3 1042 980 973
3 1043 1042 973
3 1038 1043 973
3 1043 1038 1039
3 1043 1039 1044
3 1046 1045 1044
3 1039 1046 1044
3 1040 1046 1039
3 981 1047 978
3 1047 1040 978
3 1047 1046 1040
3 982 1047 981
3 1048 984 1041
3 1041 984 979
3 1041 1042 1049
3 1041 1049 1048
3 1045 1046 1050
3 1045 1050 1051
3 1052 1046 1047
3 1050 1046 1052
3 986 1052 982
3 982 1052 1047
3 1053 988 989
3 990 1054 989
3 989 1054 1053
3 984 1048 990
3 1048 1054 990
3 1048 1055 1054
3 1048 1049 1056
3 1057 1048 1056
3 1055 1048 1057
3 1058 1057 1056
3 1051 1050 1059
3 1051 1059 1060
3 993 1059 992
3 1059 1052 992
3 1059 1050 1052
3 992 1052 986
3 1061 996 1053
3 1053 996 988
3 1062 1053 1054
3 1061 1053 1062
3 999 1062 998
3 1062 1055 998
3 1062 1054 1055
3 998 1055 1000
3 1055 1063 1000
3 1055 1057 1063
3 1057 1058 1064
3 1065 1057 1064
3 1063 1057 1065
3 1065 1064 1060
3 1059 1065 1060
3 1066 1065 1059
3 1002 1066 993
3 993 1066 1059
3 1061 1004 996
3 1004 1061 1006
3 1006 1061 1062
3 1006 1062 999
3 1063 1008 1000
3 1008 1063 1011
3 1011 1063 1065
3 1011 1065 1013
3 1013 1065 1066
3 1013 1066 1002
3 1067 1023 1024
3 1025 1068 1024
3 1024 1068 1067
3 1026 1068 1025
3 1067 1031 1023
3 1031 1067 1034
3 1034 1067 1068
3 1034 1068 1026