OFF
1309 2512 0
1.2424109179 13.7568224492 8.2528758748
1.2880143970 13.8342231919 7.8613194899
1.3149161098 13.3657907097 8.0100955873
1.3146656097 13.4811146885 8.4648695665
1.2409906636 14.1111818142 8.2661072451
1.3074007643 14.3974019370 8.0621213466
1.2885827384 14.0346438553 8.6598495986
1.3083396421 14.5111417542 8.5194786432
2.1731414195 11.0227793562 4.5053204844
2.3402300410 10.9810061123 3.7535079868
2.7748198577 10.4511382875 4.0361956455
2.5054093106 10.4566889444 4.8180192413
2.0676653097 10.9404147059 7.6484696579
2.1890603348 10.6999856826 6.7132929320
2.6261305836 10.1710847284 7.1356677060
2.5879869004 10.2668287711 8.3094852901
2.1262034098 10.9155798272 8.8158573803
2.6148074967 10.3718160857 9.3330072009
2.2709891869 10.9261605511 9.7754226667
2.6452628110 10.4977196039 10.0049435152
2.0628112180 11.6292423247 3.8693550852
2.4037724565 11.7319853163 3.1038023537
2.3126344141 11.2454180059 3.4201389777
1.8643317292 11.7761742134 4.6850883935
2.2017731255 10.7793632762 5.2275477973
1.8911483943 11.4788760051 5.4975091955
2.1482902319 10.8099553243 5.9582590319
1.8506705967 11.4295776073 6.6776048862
1.7103885109 11.7600563511 7.6104585408
1.7624860937 11.7049927727 8.4919299977
1.8911043376 11.6564573775 9.5373765899
2.6507098473 10.8312291249 10.5509653314
2.1847819252 11.6078575423 10.5922343621
2.6288284073 11.2714640144 11.1119487366
2.0209512994 12.5289356397 3.6277550182
2.3562918693 12.6749229888 2.9586643317
1.7921463705 12.5098648930 4.4666881515
1.6860247152 12.4502485818 5.3808376183
1.6345349339 12.3245438899 6.3555378568
1.5930138938 12.2433269448 7.1992538112
1.4882028269 12.7061921109 8.1880270184
1.6212915745 12.5820255933 9.3332151843
1.8093324123 12.5194689727 10.3897143975
2.4960303786 11.7766034092 11.4833655279
2.0927839834 12.5128807604 11.4103193745
2.4531356756 12.2330634865 11.9372907334
2.2825177590 12.7348258396 12.0938191673
2.6065389980 12.4459294251 12.3298188269
2.0852557729 13.3779218802 3.4613267320
2.3530614838 13.2787479445 2.9526184414
1.8065884938 13.4388583267 4.3144289244
1.6379655173 13.4135220201 5.2752555170
1.5358907073 13.3214581358 6.2832674550
1.4392340009 13.1369775627 7.3001407333
1.4415104686 13.6357542673 9.1993141219
1.6247085876 13.5051731567 10.2599718727
1.8351919416 13.4404927840 11.2146732916
2.1094195302 13.3995749175 12.0008250422
2.4734620064 13.1301785478 12.5148875609
2.3918277721 13.9817686500 3.1056500038
1.9384037453 14.4648684122 4.1312617494
2.2696900831 14.9930280290 3.5230032582
1.6751321242 14.4318309595 5.1936701563
1.5462355882 14.3748126539 6.2262389383
1.4203907585 14.2453115979 7.3215582876
1.4295120119 14.7313237680 9.2371973785
1.5643858509 14.5306345758 10.1971403630
1.7468866772 14.4262754605 11.1114748334
1.9958216522 14.3370598182 11.8962836642
2.3374408393 14.2717043170 12.5172299885
1.9602257912 15.6445781060 4.3267205655
2.2894192969 15.9359840931 3.6945902164
1.7369677255 15.4803789379 5.1667157847
1.6111108295 15.4253045060 6.1513025224
1.5369714165 15.3623868728 7.2052603008
1.4584827664 15.2249940267 8.3828126304
1.5465048358 15.6490653243 9.4318120393
1.5976816209 15.4823161523 10.1691289649
1.7467335003 15.3951382913 11.0011662214
1.9976369756 15.3198880265 11.7833743753
2.2546097076 15.1230633174 12.3355286663
2.0388138888 16.5722633928 4.3545142402
2.3498086940 16.7636895600 3.7958004272
1.8227360462 16.4908710069 5.1448714827
1.6968837601 16.4160655612 6.0510236425
1.6645507407 16.4073387073 7.0233693108
1.6581205458 16.3821656717 8.0866683173
1.6653593686 16.3673400871 9.1533646019
1.7111182333 16.3316749796 10.0976824146
1.7759726967 16.1423984520 10.8045595336
2.0484319824 16.3480664572 11.5683255032
2.4627661172 16.1712303592 12.3234289323
2.1785637177 17.1830943190 4.2512340311
2.3815624982 17.2775119418 3.9299923781
2.0175898893 17.4184194796 4.9771928934
1.8479706430 17.3598115736 5.9405144932
1.7876118494 17.2184095042 6.7480097263
1.9096423768 17.4943207416 7.7582494798
1.8911005017 17.2801901204 8.8850393194
1.9074757836 17.1621505904 9.8972244484
1.9848367875 16.9926550517 10.8849907001
2.2452272038 17.1973709691 11.6015956733
2.4421674024 16.9858220738 12.0427831122
2.4343578245 17.8341746636 4.2942043308
2.2083587361 18.1658255844 5.0597038581
2.0690535541 18.1779955205 5.7540460476
2.3705407107 18.7320330306 5.4260674568
2.0789532366 18.2578593909 6.8141433006
2.3559442584 18.5774689279 7.9210347916
2.2115973148 18.1343150647 8.6860514225
2.2021415613 17.9692847636 9.6188359705
2.2226952542 17.8110190076 10.5609351139
2.3029287945 17.6616592395 11.2764623331
2.3292788024 18.8866963694 6.1779932338
2.6801183267 19.2669571846 5.7433198587
2.4023625002 19.0476882340 6.7788621287
2.4140329403 18.9459580874 7.2750928015
2.8171545668 19.4986550816 6.4881542891
2.7180954712 10.9186949636 3.2282763404
3.2588177333 10.7903029689 2.7837209015
3.3885306384 10.3711284584 3.2846126560
3.6037771284 9.9150277176 4.0035940776
3.1088953858 9.9459597229 4.9514067360
2.5332282133 10.3301435855 5.5373983318
3.0136739890 9.8556756106 6.1409607874
2.4649275792 10.3416102641 6.2769158332
3.2105008839 9.6408040900 7.0449916200
3.1673157367 9.7062387680 7.9325609345
3.3024498670 9.7909059570 9.1056784137
3.1862714541 10.1536555824 10.1047792631
2.8626844656 10.4444140093 10.3501857022
3.2020901274 10.4526527019 10.7681009010
2.9707838030 11.3382982992 2.6353864367
3.3372363720 11.6704238142 2.2502387026
3.5773898372 11.0855286280 2.3747463072
3.2198423140 10.8698509314 11.3539410745
2.9072080202 11.3722693581 11.6151045458
3.3037277623 11.2371323914 11.8866698487
2.8344784961 12.1292671807 2.5160716747
3.4507110510 12.3970571216 2.0990586477
3.1010318918 11.7435294893 12.1693630029
2.9373794661 12.4079175764 12.6080531048
2.8114804320 13.1349199082 2.5236189857
3.6611655566 13.4972498318 1.9697849284
2.7579960849 12.9200044227 12.7493560456
2.5203295830 13.7520862038 12.7401794468
2.9832912707 14.0917538476 2.4950403920
2.6454400194 14.6566103831 2.9235625825
3.0927812365 14.9269816443 2.5392617254
2.5661734110 14.7059906130 12.8134284926
2.6757920443 15.4171404847 3.0671957014
3.2294364045 15.8087542992 2.6226733191
2.7612959500 15.3886601155 12.9058682799
2.6399230847 15.4638644347 12.7382228133
2.7620757870 16.3335634931 3.2078151571
3.4991669650 16.8650143965 2.7225423369
3.0649919450 16.5892553876 12.7689089066
2.8077335859 17.2991967544 3.5020299169
3.5609161736 17.8962656053 3.1031236027
2.6824229165 17.7935827798 11.8786726062
2.9579088107 17.2663943430 12.4399397638
3.0142992728 18.1367659629 3.7174521706
2.8381572955 18.5633333290 4.2691796245
3.1480103279 18.6046414461 3.8679061270
2.4863064256 18.5112847928 4.7990950473
2.4825552421 18.6485762682 8.6101700845
2.6038447111 18.7101940498 9.3007824530
2.5891960569 18.5368681388 10.3058432550
2.6142552283 18.2907799190 11.1811948794
3.0699591567 18.6229201775 11.7727033293
3.4142186382 18.2686304320 12.3619800033
3.3444017597 19.0924305442 4.1353752258
2.8725772326 19.1222507916 4.9609700699
3.4336454604 19.6263024589 4.7627540994
2.6852321735 19.3520491655 7.1214845101
2.7705903737 19.2551066897 7.7300031317
2.8297133864 19.1126612504 8.5601780504
3.0385274380 19.2604051661 9.2998706622
3.0353863696 19.1712028628 10.0329644775
3.4058954750 19.5876359112 9.6773146313
3.1054685517 19.0460858040 11.0334799097
3.3797197163 19.1359247558 11.7257890462
3.4986607575 18.9074636918 12.1117389215
3.3497320485 19.8329216077 5.6806077534
3.4268204650 19.9637586573 6.6119802963
3.2290795380 19.7467869577 7.3717022476
3.6813571121 19.6936579617 10.5213225138
3.7331382312 19.5132805883 11.4605618364
3.9445571358 9.4905623016 4.7117094457
4.2995379743 9.5721192062 4.0219305254
4.7390625946 9.2336057402 4.5318415732
4.4734543930 9.1070482446 5.3426103146
3.7100995430 9.4331461068 5.6106516178
4.2468824232 9.0643106262 6.1041084393
3.6939231876 9.3290036820 6.5536439304
4.4411847123 8.8578478628 6.9959485960
3.7457529923 9.2562962923 7.5137477684
4.3890571707 8.8438188888 8.0746574025
3.8305111289 9.2790430279 8.5270077375
4.6547381309 8.8651949869 9.1622552406
4.0315369796 9.3397482932 9.3768448513
4.5287693622 9.2157699024 9.8871243842
3.8595891039 10.5449731821 2.6946466175
4.3988833662 9.9953243697 3.2371102184
4.0715655132 9.6453583130 10.1646192315
3.9319887414 10.1373526531 10.9855289018
3.5644831604 10.4700219589 11.2045758016
3.9355376956 10.5276643551 11.5969527029
4.0543010749 11.5823495039 2.0164241006
4.1744084765 10.8889620447 2.2818413845
3.7773651416 10.9433859879 11.9646954530
3.5955830244 11.2688631443 12.1624062146
4.2002759539 11.1333722105 12.4202122639
4.2438414275 12.5056041032 1.7378517961
3.6122207301 11.7943594157 12.6240139674
3.1156410243 12.3837560382 12.7558031057
4.5505263620 13.3816125819 1.4984493523
3.5200331969 14.4603704528 2.1253519963
4.3331249246 14.5933069691 1.6443878256
3.6862760022 15.2534881146 2.1339581720
4.2509942264 15.6284220762 1.8190129952
3.0135553634 16.0676057688 12.9146669774
3.8677166073 16.1486294517 2.1953365954
4.5669019427 16.4431246473 1.8028586116
3.4701247545 16.9428477524 12.9325436964
4.1630622309 16.8820572615 2.2035677141
4.3747177705 17.7228648657 2.4268919438
3.8991060281 17.5415395874 12.9578257985
3.7502575774 17.7098654348 12.7977191562
3.5366410941 18.6248217548 3.5205528740
4.3451016606 18.7670482751 2.9784520460
3.9833386203 18.4177290566 12.6487542078
3.9972620375 19.2888683117 3.5995762178
3.8777038179 19.7500932230 4.2152946469
4.4900162443 19.9699936699 3.7482324701
3.2177818308 19.5861978646 8.1746934697
3.3897492505 19.6296154020 8.9319257301
3.7573921783 19.2779803896 11.9892486823
4.0551721287 18.9606188576 12.3877271260
4.3117747095 20.2217029331 4.3203063866
4.7837253793 20.4542393183 4.1426974760
3.9900312416 20.1823747732 4.9634859901
4.0315688205 20.3470105215 5.7173686416
3.9452412351 20.2952462603 6.3729193764
3.9432617096 20.2309201980 7.2464768710
3.8704717418 20.0645417124 8.3185931553
4.0014841021 20.0485231134 9.5705897005
4.3341294406 20.1735190644 10.4607842353
4.4529254633 19.9932439872 11.2671446296
4.3179050841 19.5540496428 11.9674457196
4.7084859892 20.5909389829 4.7592755374
4.6008863858 20.6260314904 5.5444301831
5.0049909290 8.4765282363 7.7281518286
5.1980677776 8.4865428564 6.9712993378
5.7577397967 8.1960965273 7.4752754340
5.5761269962 8.2089504754 8.3378558907
4.9648322813 8.4927653189 8.5521811179
5.4200496639 8.3151636078 8.9407850438
5.0897885366 8.5002849798 9.0632067651
5.5445077955 8.4977856318 9.5622048463
5.0230089874 9.4681321500 3.8098579283
5.5832026582 9.1066090057 4.3404085351
5.3340901934 8.8930634414 5.1192783014
5.0780368925 8.7279259682 6.0998011939
5.2609231703 8.9688369401 10.2025551933
4.8023550121 9.3444927069 10.4624525826
5.3292157876 9.2841184020 10.8434143476
4.5288271356 10.4875254176 2.5373288719
4.9290206362 11.0082721565 2.0963686015
5.3510656959 10.2678262894 2.6366601395
5.3760750280 9.7512212717 3.2394491007
4.9040388135 9.6873020818 11.1028485288
4.6900605103 10.2145774521 11.7258476063
4.3673665758 10.6569952875 12.0715321673
5.1008841623 10.5055451947 12.3202957007
4.8191986594 11.8031484255 1.7390001170
5.2450629751 10.8247313118 12.7188372896
5.0996945866 12.5186371668 1.4305138430
4.6241378883 11.2128896333 12.7446190259
5.1287368525 13.2444635328 1.2330411811
5.6177677014 13.5059643265 1.0599877388
5.5125754103 12.8915364465 1.1686099885
5.0691150356 13.9824553903 1.2317651935
5.7731438836 14.2982984414 0.9947964220
5.2505173411 14.8643165696 1.2053046406
4.9345001235 15.6577533063 1.4409339499
5.1801220986 16.4506220013 1.4657129854
4.6689536834 17.1763643855 1.9738082053
5.0766500793 16.9879585767 1.6697771969
4.3396007958 18.0896581319 12.9301570758
5.3009908479 17.7193511374 1.8521814549
5.2885156665 18.7063678037 2.3224740567
4.8651191558 18.5567059453 12.9147088131
4.6549744136 18.6803085616 12.7563798715
4.5863621047 19.5297925894 3.2619449643
5.2269691568 19.6257575994 2.8695754243
4.8070930642 19.3351118652 12.3939844946
4.9722146620 19.9885885069 3.3199408494
5.1702547633 20.4484456413 3.6980175624
4.4624391577 20.5821503136 6.1768183456
4.5986261356 20.5901558922 6.9444950195
4.6521421006 20.5339859857 7.9515310414
4.6908552118 20.4829788534 9.0220983437
4.7924800856 20.4724936955 10.0146695850
4.9297516728 20.4171175319 10.8220739923
5.1808372271 20.2997626712 11.3930689652
5.2413132366 19.8948859655 11.9535275983
5.4897667954 20.8845757432 4.4279702762
5.4008101900 20.9382863881 5.4215262335
5.2550176439 20.8669589087 6.4382245753
5.4091428915 20.8516803400 7.5882027314
5.4546670494 20.8061847596 8.6422736321
5.4717419761 20.7533987606 9.6310590509
5.4976304891 20.6718144513 10.4918684632
5.5114593929 20.5413067811 11.0988330664
5.8929780784 8.3280350080 6.5780484121
6.7054117761 7.9580627732 7.0546980953
6.4270324122 7.9367231217 8.1684333630
6.1927290225 8.1157741834 9.1415937242
6.3278282318 8.3193082265 9.9170119532
5.9129885341 9.3915056179 3.6617883899
6.4904433457 9.0224460540 4.1625670012
6.1277478069 8.8111055600 4.8117686246
6.1560794544 8.5355695979 5.6133555475
6.1513109972 8.6521094487 10.4077605709
5.9955832923 9.0625818412 10.9719271591
5.7049982741 9.4342709316 11.3392324063
6.4870664641 9.3272667920 11.6601568687
5.7886826262 10.7686651788 2.1508691095
6.2278818964 10.3386502655 2.4556825218
6.2709890872 9.8183740872 2.9949200595
5.7538010953 9.8679980290 11.9286798694
6.1318227090 10.2855112801 12.6109487446
5.8352518649 11.5974800501 1.6712114034
6.6259674812 10.8263295602 2.0639706006
5.8663488071 10.6363830828 12.8442109980
5.2913793948 10.9435198121 12.8599264288
5.7890297210 12.3957995829 1.2818687064
6.0854346764 12.9238896176 1.0829863103
6.5020094312 12.2410740367 1.2922540105
6.3450997183 13.7873895496 0.9356101408
6.1400322729 14.2702365482 0.8991232614
6.0869332183 14.5479262758 0.9080730664
6.2107554470 14.4303165678 0.8818476910
6.0755507746 15.1189732371 0.9740016743
5.4609303404 15.4406791814 1.1670897260
6.2940948831 14.5876114214 0.8838860873
5.6314626075 16.0100137592 1.1975917399
6.4268966807 16.2122790629 1.0145725352
5.7757222274 16.9562304721 1.3626672939
6.7285260635 17.1574877921 1.1138336493
6.2067697966 17.8634039388 1.4823333989
5.8712401854 18.4233414686 1.8528159621
6.5990479007 18.7343593253 1.6321820476
5.4563443035 18.9835199246 12.8242905763
6.0369946974 19.0000779449 2.0206268495
5.9611978995 19.6099811249 2.3515682742
6.4335028995 19.3431076082 12.7498369045
5.7247915993 19.4151366204 12.5496036020
5.4660783174 20.3036414926 3.2242735885
6.0188651884 20.4044929989 2.8184545746
6.3689088588 19.9816566359 12.0935264725
5.8727971194 20.3511156316 11.5670529139
5.9850710576 20.9463656387 3.5809639621
6.2896766522 21.3119789913 4.3753585880
6.3506824884 21.3076786505 5.2836046781
6.2089201719 21.1784592759 6.2694827986
6.2492850251 21.1078788947 7.2731622654
6.3262753485 21.0455142785 8.3375160631
6.2720990319 20.9556074537 9.3329457793
6.2421884054 20.8385811252 10.2207151125
6.1676747960 20.6492019171 10.9906394087
6.6269519027 8.2039239272 6.1987690003
6.9925968746 8.2978694884 5.6026205884
7.4772183785 7.9681194992 6.0487676078
7.6945084737 7.6093071050 6.9278884284
7.3153301762 7.6277760603 7.9020695590
7.2838568911 7.7389034887 9.0395496436
7.0502020732 8.0821953514 9.9302219074
6.8263623764 8.4050744303 10.4596699762
7.6073725135 8.2796015431 10.7368436588
6.7907524030 9.3514214345 3.5026169187
7.4046928354 9.0027497878 3.8621376636
7.1319277779 8.5973628491 4.7773520415
7.0545176100 8.7912476033 11.2225560236
7.2538009632 9.1967946371 11.9193560906
7.1188822707 10.1485486681 2.5443256021
7.1154589327 9.6481596229 3.0402013869
7.0514083391 9.6272533208 12.3407166960
6.9746425960 10.0245754474 12.7451090922
7.1955327579 11.5319010528 1.6317255078
7.6164643485 10.7120786129 2.0660773972
6.5903540504 10.2940983481 12.8432171366
6.8643750598 12.9456974288 1.0697077238
7.3012374048 12.3115738177 1.2825579372
7.2697047844 13.7191021256 0.9593248073
6.3471939377 14.3099216938 0.8749362823
6.7586568127 14.5062235362 0.8784038177
7.0626626613 15.4354011269 0.8702161368
7.2227943688 15.4784961987 13.2857114216
7.2232982261 15.4779923414 13.2857114216
7.2232982261 15.4784961987 13.2857026840
7.3334185736 16.3972467608 0.9002235068
7.2232982261 15.4790000560 13.2857114216
7.6423840022 17.3139472350 0.9913370337
7.0727947609 18.0235449815 1.2429495896
7.3490850821 18.7304374931 1.3438776631
6.5009652481 19.4659566141 1.9529423998
7.2076832976 19.5587854577 1.5950075945
7.5083744731 19.4024151154 12.7534841201
6.9716339873 19.6129586628 12.5339207210
6.7171214981 20.3639218602 2.1669054765
7.4892930136 20.6468937100 1.5979049788
7.5666739495 20.0189050399 12.0289868100
6.7905489302 20.4055946595 11.5291985530
7.1307352504 21.2500234081 2.0740408012
7.5369746061 21.6190616766 1.6944709436
6.7985441227 21.4319652585 2.8228597751
6.8034497299 21.6636889880 3.8833282344
6.9544421273 21.6803263900 4.8025920932
7.1372596297 21.6188488692 5.5392616548
7.1286776317 21.4726873144 6.2595705591
6.9494512157 21.3171146741 7.0051443656
7.4108750025 21.3035481002 8.0070306340
7.2317333318 21.0973439176 9.1447128334
6.9700240630 20.9469039777 9.9459210418
7.1182331852 20.7295234036 10.7766553584
7.2921048008 21.9605431369 2.1530331406
7.5746021742 22.1631193415 1.7934392189
7.3236070741 22.3049413106 2.6139742000
7.3466745699 22.2892328770 3.3593970591
7.6179997824 22.2344616520 4.3970581587
7.6785357772 21.9211058554 5.3535597689
7.6842233727 22.6625343949 2.0049326582
8.1108996232 7.3142257048 7.6270500659
8.3687934506 7.3286527055 6.8533340419
8.9669412495 7.0196492760 7.2472351742
8.7064396060 7.0749591385 8.2991073035
7.9601232385 7.3748307132 8.5394814152
8.5422908163 7.2179495614 9.0233715220
8.1159066928 7.4636096850 9.3122753714
8.8033184719 7.3393259801 9.7234719724
7.6013710204 8.2296050736 5.2746778433
8.0071245303 8.3371159139 4.7412069438
8.4013444340 7.9968282304 5.1513611119
8.4557201815 7.5654098413 6.0556761807
8.1952874883 7.7935120143 10.1976173813
8.3972330718 8.1566292969 11.0490553696
7.4877819292 9.3458709820 3.3210119630
7.8265510931 9.6542631195 2.8839402491
8.1826018045 9.1614110299 3.3543298448
8.2403006625 8.6487026375 4.0621207870
8.1582469607 8.5143436226 11.4742607777
7.9170086232 8.9433045164 11.9516065296
7.6367272589 9.2630859407 12.2180885473
8.1793782593 9.2225658401 12.4570464556
8.1031678718 10.1266593758 2.4057601168
7.6493334342 9.6743394703 12.6997205511
7.1407567354 10.0436211588 12.8443266415
8.2828840073 11.1246240635 1.7893267710
8.3749351754 10.5431217336 2.0736509517
7.7329052271 12.9474545022 1.1484466192
8.2551488201 12.0709054271 1.4504269004
8.0354021615 13.6726724166 1.0528861740
8.7304733216 13.1351123192 1.2674941368
7.8874942365 14.6300708231 0.9313406709
8.5903001559 14.0188076986 1.1032407708
7.8583626356 15.6802445271 0.8650970937
7.2238020834 15.4784961987 13.2857114216
8.2941566066 16.4731381344 0.9228497883
8.5067183342 17.4955299957 0.9769836130
7.9637263778 18.2701251196 1.0935643981
7.8839432795 19.0743092515 1.2296273049
7.9203315780 19.8480996584 1.2796635638
8.4435127561 19.2254879009 12.8275507488
8.1787423696 19.5062100069 12.5664051808
8.0662693968 20.4794063782 1.2154041947
8.5725455393 20.6128579319 1.0048935349
8.4186387404 19.9964598061 1.0660098825
7.6036981222 20.4346673406 11.4083234898
8.4592135772 20.2388202742 11.5391608673
8.0089356612 20.6085247334 10.9636255395
8.5422810143 19.8134446571 12.1356216959
8.0178896227 21.2065033038 1.2829581077
8.6548196753 21.5024362499 1.0022201321
7.6387907944 21.7180333032 5.9810475523
7.8663347835 21.6668686776 6.5216826190
7.7567210929 21.5195017379 7.1595344019
8.0917997820 21.5188425236 7.7579909542
8.4480548195 21.6353577090 7.4243254848
8.2752699757 21.4670820436 8.1877475828
8.4496353335 21.2640613327 8.9857463133
7.9665389151 20.9053650369 10.1234249388
8.0130993179 22.1634770883 1.4235775888
8.7838111342 22.5625531417 1.0131621452
7.7256414963 22.9873825655 2.7401262809
8.0467191274 23.0147754203 3.6610502619
8.2896003301 22.7101826597 4.4670915572
8.4304714442 22.3549871929 5.1633495304
8.3948683560 21.9211489508 6.1597589652
8.6093001224 21.6065436634 7.8058085308
8.1892556196 23.0718465159 1.4549042579
8.0548333590 23.6341462191 1.9720664852
8.3114020891 23.7136592149 1.3995090279
8.2079942671 23.8713107897 2.7981299934
8.6547108239 23.7955836620 3.5098292060
8.7885205396 23.1974480494 4.2257163199
8.3806489816 24.2707862663 1.4794871197
8.8474771874 24.4644661085 1.0959727103
8.6239628952 23.9283541094 1.1470294052
8.3089004631 24.5592294070 2.0376847990
8.4426855307 24.6035999394 2.5749882385
8.6181267369 24.3671100040 3.0127557783
8.5602046331 24.9336354299 1.4706356071
9.0993453724 25.1808618998 1.1201032007
8.4994833078 25.1681193720 1.8476650907
8.5142798163 25.0284413707 2.2486919959
8.7119385954 25.3868317034 1.5609771468
8.8787241738 7.2254453338 6.4503151604
9.1989337483 7.3114238044 5.8789035333
9.6377442280 6.9921634507 6.3138655422
9.8461988902 6.6681588720 7.1494557808
9.6402231552 6.7146097345 8.1496879043
9.3785389111 6.9962565776 9.2270523017
9.5187694332 7.2031350539 10.0489553205
8.6100424111 8.2805173873 4.4480246320
9.0345281257 8.4320307720 3.9653717522
9.2836123703 8.0817341790 4.3994796921
9.3908423372 7.6204195238 5.1465309367
9.2824431701 7.5021616401 10.5103595355
9.1795430866 7.9221203639 11.1999074118
8.8474246794 8.2887538386 11.5677737978
9.3763007308 8.2169460265 11.8197939268
8.8091504599 9.5713340463 2.7272416861
9.1484283309 8.8584215618 3.3630817163
9.0517886351 8.6067195458 12.1676892015
9.0009563594 8.9867401327 12.6263168165
8.7882756660 10.1503826338 2.2596018823
9.0510747683 10.5904567953 1.9681188549
9.5116186522 9.9408479320 2.2739930201
8.5729181147 9.2639388079 12.7209725784
9.2119345853 11.3124480207 1.6879803741
9.3988573101 12.2056789152 1.4932053230
9.6822380873 12.9880771372 1.4132636687
8.8012036369 14.6252659376 1.0702465262
9.5333738233 14.0283663010 1.2818809126
8.6590331629 15.4434214927 0.9817804829
9.3162249042 14.9741676652 1.1499585648
9.0042187846 16.1094838391 1.0278111094
9.0589723008 16.8229667008 1.0327484552
9.6421741340 16.1765197102 1.1750819281
9.2081651362 17.5736209607 1.0353955497
9.8037632687 17.0465392512 1.1704400973
8.9249212392 18.5084060506 1.0005600417
8.3243973025 18.7785076265 1.0762292879
9.8511034239 17.9710287566 1.0979377471
9.0430106802 19.0222664597 12.8911697475
9.6340492012 18.8814186504 12.8237758869
9.0686525966 19.1333349961 12.7611871919
8.4430034537 19.3119082031 1.0711961411
9.0788971899 19.7218941589 0.9245713429
9.1558368609 19.4341721475 12.4100834679
9.2811159261 20.6962297622 0.8331405406
9.2562230276 20.2334573060 11.3051675895
8.7850487642 20.5763173381 10.8114646599
9.3158814639 19.8344613326 11.8676061474
9.4278537629 21.6145397778 0.8023573796
8.3808459712 21.7075338103 6.9371622631
9.2596235987 21.4877129484 8.6256180746
9.2799353155 21.6321292971 8.0938694479
8.8721775640 21.5575506527 8.1904499206
9.4855938506 21.2148705610 9.3413722560
9.0804554677 20.9003663115 10.0279600859
9.5750404825 22.4262801621 0.7881800605
8.7227680460 22.7688477725 4.7641108103
9.0641049067 22.6412288535 5.0944059026
9.3687189870 22.2924025966 5.7298731208
9.4241913712 21.7580054303 7.2764705184
8.5908368698 23.4031580496 1.1311587773
9.2703528543 23.4997583805 0.8885297646
9.5137901492 23.3080288680 4.4058072195
9.3461200221 23.8235819179 3.8863565605
9.1447095170 22.9519119902 4.7153633868
9.5492405277 24.4960844929 0.8528225597
8.8623368954 25.0068594970 2.7316293322
9.1705627124 24.4469418946 3.3379899095
9.7800975237 25.1042803657 0.8451009692
8.7851094273 25.4663219119 2.0930000125
9.2606318496 25.5930967134 2.6388628864
9.6014856291 25.1313504757 3.1073977710
9.0143336362 25.5867358641 1.5422515437
9.7320720124 25.4760217092 0.9835347246
9.1001284060 25.7560633015 2.2237184707
9.5879264606 25.8749618257 2.6703478380
9.9300020026 25.7037674106 2.9273604319
10.2470072815 6.4150043166 7.7074873693
10.4644361844 6.4238938136 7.1346338937
10.8864336614 6.2459320727 7.5545796122
10.6960919448 6.2676139615 8.0604302795
10.3334992785 6.4311773849 8.3348650393
10.9546507438 6.3159784057 8.6459096314
9.7929142049 7.2420339957 5.5583712414
10.2521594579 7.3948533682 5.0070777944
10.6138788824 6.9988743812 5.6227158143
10.4734855080 6.6431619684 6.5158393453
10.4391027741 6.6229088837 9.1584991632
10.3210053354 6.9818342505 10.1824292441
9.9445796214 7.2790468844 10.5933099570
10.5181923402 7.2131209677 10.9330766117
9.7511799803 8.4081034328 3.6781670955
10.4354405868 7.8984346554 4.1597837293
10.1410016484 7.5404479105 11.2612952701
9.9836538018 7.9662917366 11.8591803146
9.6976340351 8.2627458250 12.1123562631
10.2286948395 8.2074048039 12.3803028987
9.8963260079 9.2118183287 2.7483092318
9.8753956635 8.7428460043 3.2045846975
9.6856289445 8.6456998494 12.6097634204
9.1660931454 9.0087149779 12.7483638869
10.0593267638 10.4979376321 1.9214318755
10.3047422067 9.7283187334 2.2610626037
10.1950583852 11.4053658091 1.6612922026
10.3658165384 12.2780826206 1.5423951010
10.4644256475 13.1871327608 1.4731868436
10.5763468443 14.0133570071 1.4420107010
9.3679925724 15.5793436398 1.1254263090
10.1987002874 15.1110906140 1.3329128936
10.5092241311 16.2657016473 1.3626365417
10.7283729093 17.3724657499 1.3431684456
9.9787102129 19.0145408038 0.9805363010
10.5617139975 18.3078672010 1.1801146257
10.4515605673 18.6006398068 12.7334232858
9.9690147868 18.9867812321 12.5626854197
9.8444849606 19.9806144410 0.8436738713
9.8220502944 19.4102332471 12.1841606011
10.5575661906 19.1780017366 12.0244289971
10.0272542498 19.6492949079 11.7903525357
10.0809975575 20.7597543995 0.7976932769
9.8051866900 20.0010012447 11.4232576896
9.7599043620 20.4212862903 10.7475207048
10.2136304883 21.6939554658 0.7761504726
10.2740793267 21.6843779669 7.1482027584
10.8247360203 21.5912170225 6.9073530511
10.3193774551 21.7520862467 6.7602718882
9.5974728973 21.6233344278 8.2146022895
10.5952450861 21.5897947049 7.6024225173
9.8912089392 21.4554376039 8.8014734914
10.2796501263 21.1093276390 9.4559514785
9.8957821994 20.8510616349 9.9891546564
10.2177134322 22.6828790611 0.7887754321
9.6954417447 22.8347370616 4.9466158301
10.2532109942 22.5051933432 5.2506635161
10.2634255430 22.8582056806 4.8340596676
10.3214274614 22.0065645838 6.0666263067
10.1533485510 21.6035669367 8.1948318153
10.5591929779 21.3945518577 8.8463309383
10.2255838811 23.6965975104 0.8039812585
9.9354180064 23.7198786477 4.0958999719
10.2241880259 23.2485741408 4.4614860574
10.3264610991 24.5894113343 0.8146847476
10.4575081266 23.7232040718 4.0398178758
10.1401885255 24.3591998807 3.6218334585
10.4125126364 25.2575507802 0.8694369005
10.4225611541 25.2455607074 3.1977153099
10.5939867136 25.5967901011 0.9564929125
10.6362445920 25.7720607594 2.9317215710
10.2425298176 25.9484689507 2.8311653503
11.1303239916 6.3561522149 6.9229848880
11.7233736047 6.1529677151 7.5333705949
11.3583972190 6.1580007994 8.1460992830
11.7545679475 6.1857294072 8.8363099126
11.1080442227 7.3485796378 4.7407286169
11.8403963467 6.9479926592 5.3302313692
11.3942148401 6.6075966293 6.1884811642
11.4262553675 6.3947644929 9.3880548826
11.3075393127 6.6551008100 10.1749631206
11.2767522350 6.9867818887 11.0834821093
10.9137853256 7.3109479198 11.4624882950
11.4522312201 7.2237053078 11.7551390486
10.5582352719 8.6177262991 3.1712973365
11.4877353110 8.8503286470 2.7713237666
11.4706159605 8.2713432275 3.3934727066
11.6566667818 7.7253806806 4.0347878307
11.1063618313 7.5982407646 12.1030569491
11.0577105773 7.9624104304 12.5912365525
10.8308949160 9.2334461481 2.5185230371
11.0756342962 9.9299323876 2.0837117766
11.5102964585 9.3481186105 2.3564014862
10.6263929921 8.2375442251 12.6769695965
10.8963257160 10.7351935231 1.8076212811
11.1454877547 11.4584884526 1.6778800039
11.2980616543 12.3689010500 1.5951184569
11.3753091440 13.3034252071 1.5615820516
11.3482246108 14.2908235331 1.5446040267
11.3565681592 15.3468370304 1.5554846059
11.4598029874 16.3952144466 1.5797421644
11.6145894967 17.2457231904 1.6045489091
10.8177778497 18.9217118828 1.1384465316
11.4546898461 18.2949926780 1.4819563095
11.1437633882 18.2116551182 12.7111175390
11.0340227491 18.4833134038 12.4836792601
10.6693683534 19.8193546332 0.9811562396
11.3256708556 19.2759603286 1.2805594284
10.5068687185 19.7911804661 11.2691442355
11.1253239525 19.2047667132 11.5631968299
11.3347715437 19.5546830190 10.9369805657
11.2937446301 18.7459177000 11.9928024510
10.8799252310 20.8708234037 0.9433641996
10.7739918559 20.4144648023 10.2432143165
11.6458531889 19.8666875264 10.3263327291
11.6647973963 20.3933680645 9.7228570008
10.9606088100 21.8795339176 0.9334353675
10.8207149040 21.7118025467 6.3564681842
11.5922452801 21.4217374498 6.2195459603
11.0718313650 21.8215723521 5.8126542537
11.4192963856 21.3612702088 7.3133707104
11.2490355527 21.4121409131 7.9658836552
11.0249212348 20.9884192351 9.3611294859
11.7280307238 20.9151722952 8.9489120036
11.1209500952 21.2950675957 8.8066597889
10.9800127090 22.8938860190 0.9402388647
10.9629373817 22.2186423184 5.2317790090
10.7970243241 22.8170237348 4.6487382947
10.8535588471 21.4967590269 8.3255571985
11.0014839552 23.8769942632 0.9637302951
10.8021241264 23.3530770378 4.2103312060
11.2689031061 23.0906901724 4.1308707733
11.0921581482 23.7798616314 3.7566825741
11.0374708079 24.7554192755 1.0260375033
11.0780958006 24.6553852535 3.3345396035
11.0754080172 25.4191914310 1.1104016149
11.1331942764 25.3648475646 3.0004378780
11.1659136759 25.7349037636 1.2259910845
11.1698427913 25.7589073221 2.7141189892
10.8870797033 25.9340733720 2.6904410457
12.0454280146 6.3094489264 6.8370512426
12.7023486161 6.0924485332 7.5463259027
12.3878502770 6.0306351466 8.3654515385
12.4579472164 6.0754497082 9.1198354747
11.9759871019 7.3262675502 4.5586780953
12.6660158582 7.6288365786 4.1217493622
12.7562549885 7.1703224111 4.8193801059
12.8150572296 6.8249283295 5.5577463277
12.4177683408 6.5675669204 6.1460510925
12.0961048978 6.2311413168 9.4360457342
12.1354522376 6.3689614655 10.0911195963
12.3068728735 6.5787119384 11.0727132324
12.0734358000 6.9674889171 11.7962023656
11.7677080276 7.2501313696 12.0710327162
12.2869584207 7.1790174442 12.3581223011
12.2960676623 8.6976515112 2.9601542054
12.3863372982 8.1388056803 3.5059307070
11.7415347338 7.6171940694 12.5882468350
11.2242360654 7.9801837936 12.7253106064
11.8721738712 9.7495538275 2.1605482507
12.1841795956 9.2688733582 2.4818402046
11.8458188310 10.5498349795 1.9064157651
12.6095683616 9.9393019637 2.2068487187
12.1016877247 11.5327713255 1.7406767078
12.2283541809 12.4570642392 1.6856368355
12.2854085781 13.4205296394 1.6935787050
12.2775811757 14.4342538223 1.7280490083
12.3787507733 15.4738965193 1.8248902426
12.2636697546 16.5833484849 1.8513428566
12.4890055519 16.9098267795 12.8594815437
12.9120791625 16.4131395286 12.9230397453
12.7038265927 16.8244675222 12.7512326899
12.2297204597 17.5507981311 1.8720559649
11.9391122656 17.6407053174 12.6462924430
12.4903409357 17.4151266882 12.3815978996
12.2829406376 18.3971489502 1.9435344067
11.8699456479 18.7047568879 11.4843443518
12.4207480808 18.2360237283 11.4629536169
12.4990749294 18.5072885049 11.0425843633
11.8372624657 18.1518511784 12.1978434993
12.4026343885 17.9391339860 11.8653253328
11.4824153998 20.1235342739 1.2777566271
12.0313480974 19.3413184083 1.7599862001
12.0636617445 19.2026711097 10.7071180446
12.6738467670 18.8511333164 10.4971694183
12.4231219940 19.5811353504 10.0122535697
11.5829033706 21.1373540794 1.2658009713
12.0913886427 20.4860847088 1.7613622411
12.4089689746 20.2709879591 9.3354532110
11.6177142166 22.1545877030 1.2630873912
12.1024890964 21.5119745209 1.7545600896
12.0353613738 21.7675429035 4.5175938074
12.3960525403 21.4041280112 4.1344484767
12.1665692369 22.0796233556 3.8120076372
11.6061780656 21.7965461325 5.2056997435
12.2611747318 21.2080234347 5.0768613580
12.3929893569 20.9455385090 6.0292963164
12.3032275737 20.9464701015 7.0410431227
11.3915511532 21.3033979200 8.4434214503
11.9313041181 21.0700987373 8.0763767790
12.4912434096 20.6232900039 8.7014462830
11.6233315556 23.1584735725 1.2776603921
12.0894940535 22.5202758065 1.7477727055
11.5699101910 22.3988877374 4.4391397789
11.8330001939 23.0519731617 3.6090405235
11.6230136201 24.1092152505 1.3375472139
12.0656298080 23.4864714113 1.7600276482
11.7395074533 24.0401338919 3.2301564893
11.6235606578 24.9748688675 1.5104081022
12.0316032988 24.3235466339 1.8314419620
11.6732120782 24.8388275526 2.9313566756
11.4574773567 25.6118198337 1.5599685919
11.9849885346 24.8638035990 2.0094540779
11.7414197127 25.3389301170 2.0436432310
11.5812549349 25.4167502004 2.5887659716
11.9588576202 24.9323720656 2.4472093340
11.4003525012 25.8237109641 1.6032434355
11.4252200023 25.7584729467 2.1940991550
13.0053430170 6.2930738505 6.8732135673
13.6156153468 6.0842769782 7.5179586375
13.5002005772 5.9056562935 8.2628968869
13.3534862357 5.8600895783 9.2394913977
12.7538095234 6.1030267321 9.8006157786
13.5636066601 5.8601315544 10.3023770529
12.9376725282 6.1957635400 10.6573593996
13.6957740161 5.9468580984 11.2021832301
13.1700340907 6.2845561442 11.4019913330
13.6913421349 6.1217241444 11.8055500953
13.1022984816 7.4162789170 4.4185846471
13.4440766526 7.3024902115 4.7048082825
13.6731249691 7.0008181693 5.4015659569
13.5097901902 6.5769396664 6.2879438471
13.1746730913 6.5543251375 12.0885798571
13.0732787831 6.9153105969 12.5880921739
12.9999714958 8.6046447471 3.1585691220
13.3025066251 8.1962477592 3.6248965702
13.6647522058 7.7244956904 4.2458451209
12.6629516496 7.1969034718 12.6710669986
13.2316294607 9.3749726885 2.6860507345
13.7952630768 8.8462122427 3.2106619141
12.9451045085 10.8255187889 1.9828406955
13.3775648745 10.1837662399 2.2811858555
12.8883614595 11.7168634838 1.8245219394
13.2083867103 12.4855113437 1.8840031643
13.1267409850 13.5730411829 1.9135464414
13.0827156123 14.4974244649 1.9759945969
13.1685985466 15.1422034726 2.0940577665
13.0178325467 15.9256335990 2.1482747971
13.6828451311 15.2674466657 2.4116702685
13.2823867234 16.0239829827 12.9374986770
13.7087083442 15.7267447876 12.8262977610
13.2974301463 16.1644933247 12.8045300230
12.9203001080 16.9099606515 2.2332040773
13.6878324742 16.2269075864 2.6374541043
13.2236984351 16.6694110661 12.3981178825
12.8477510651 17.8947276708 2.3296735286
13.4925428968 17.3179658660 2.7712304698
12.9455860466 17.7587551807 11.4327331827
13.4389993727 17.2656560033 11.4197226289
13.5187103398 17.5192835182 11.0125243983
12.8827893198 17.3536508872 12.0266401802
13.3706784121 17.0266812933 11.8170635310
12.7791607460 18.9452433277 2.4899130986
13.3437217262 18.2878196985 2.9357456542
13.0971970467 18.2042116001 10.7395113915
13.6628652308 17.8651225636 10.4844432493
13.3520939596 18.6485888570 10.0662529456
12.5524652969 19.9893964836 2.4064187806
13.2402602656 19.0140822437 3.1379551378
12.9868506694 19.7442515469 3.2266320257
13.3617394853 19.3366875153 3.6192594269
13.1987095520 19.5789977031 9.3927411679
12.4512256862 20.9669885640 2.3947868829
12.7091826866 20.5332751698 3.0469032768
13.2399078286 19.8029230389 3.9883451613
12.8143232228 20.5823009591 4.1005018171
12.8596999709 20.5594554744 5.3800415345
13.3156165726 19.9603409869 4.8046850361
12.9013376737 20.5450052978 6.3985494472
13.3915901858 20.0385840751 5.8521482137
12.9743103126 20.5192384670 7.1804451468
13.4136726676 20.1229115680 6.8280278977
13.3371854770 20.2206314764 7.5678011545
12.9090836513 20.2102170063 9.0329862005
13.3071475942 19.9672086941 8.8788611977
13.0310525365 20.3341443653 8.6147506914
12.3712134706 21.9626465497 2.3809334581
12.5163186916 21.4211623090 3.2468776276
12.8186985082 20.5803747521 7.9547949961
12.3005021409 22.9575169730 2.3197083723
12.3092767260 22.4832348328 3.0232413822
12.2369822373 23.8533544504 2.2811609843
12.1820484313 23.4577499817 2.8652309962
12.1573144202 24.4925504137 2.2590256007
12.0906867844 24.3014939046 2.6959854809
13.7698032708 6.2886342850 7.0036802992
14.2729791365 6.1601614802 7.4163937218
14.4369886063 5.9171136758 8.0138451211
14.5488036250 5.6072173712 8.9311922962
14.3282882097 5.5208267088 9.9443591625
14.3546542185 5.5403658894 10.9274193401
14.4620556631 5.6710093210 11.9291662240
13.8826944447 6.1276703724 12.1303424665
14.0788400174 6.1312456700 12.3984180929
14.1535503339 7.3982623446 4.8885423218
14.6431020555 7.1767964002 5.5660335987
14.5124731465 6.7963852248 6.2301386240
14.4244691936 6.4190748431 6.9197599034
13.6334383325 6.5585879983 12.5865577089
13.2147457763 6.9281579683 12.7266611939
14.3680690211 8.4860575698 3.7734867558
14.7316597068 7.9327504188 4.5369136547
14.2849069445 9.5329053342 2.9470597080
14.5380306826 9.1091175769 3.3106246340
13.7343154809 10.7144921792 2.1909405206
14.1408854537 10.2866464936 2.5458381854
13.6815635119 11.4527823164 2.0442599818
14.2185433035 11.0182605852 2.3152768006
13.9911927377 12.0841044929 2.1261035350
13.9180874278 12.8664233027 2.1678554430
14.5268890326 12.1791636882 2.4306481500
13.8007192305 13.8334175411 2.2310253493
14.6035202387 13.1711008728 2.6146537397
13.6229539195 14.6102982769 2.2443347109
14.2924266810 14.3904894958 2.6419334768
14.2636498624 15.3738291469 2.8463335197
14.2337684800 15.2782717515 12.7172726483
14.0542814973 15.6974534563 12.4849270542
14.3044184327 16.0366627150 3.0597425655
14.1500096848 16.7863248574 3.1897847686
14.7201350802 16.2216327316 3.4999408550
13.9419029448 16.7744322928 11.3695695172
14.5453397988 16.1995368682 11.2141845284
14.4280625023 16.6457002916 10.8503465362
13.7967302471 16.4039456254 12.0299329616
14.3712674014 15.9407076282 11.8029774674
14.0151967864 17.8132596917 3.5446270179
14.6864274465 17.0685447494 3.8300300973
14.0741789612 17.2296442108 10.6738774834
14.6089425262 16.8746127352 10.3747476174
14.2908535038 17.6719241091 9.9990597970
13.6275716036 18.7425750808 3.6163827956
14.6521694366 17.7970849276 4.3322935099
14.1177934564 18.6099624790 4.4169734433
14.5947269595 18.3238981740 4.8911568266
14.1080881552 18.6385509216 9.3309630810
13.6069688775 19.3199823088 4.2656703143
14.3612244788 18.7614280026 5.2019690580
13.8812896837 19.3425224655 5.2636035723
13.9054952437 19.5598874481 6.3932772795
14.3775282219 18.9654863683 5.9603947768
13.8749297726 19.6684331029 7.4674842719
14.4057543541 19.0600896027 6.9257772857
14.0069653952 19.4500564456 8.2500056015
14.4204291129 19.0307454774 7.8436426273
13.7711555453 19.4620749888 8.8376863913
14.3448412128 18.9163758874 8.6093222740
13.4802050021 20.0013656388 8.2664323124
15.1802228447 5.1752554535 9.6796002241
15.5198944525 5.2698604929 9.0475785315
15.8935892318 4.9080669781 9.4527805200
15.8758092543 4.6540223530 10.1944605112
15.0610582224 5.1133798168 10.5630357971
15.7014180455 4.6743504796 11.1240060759
15.0799111605 5.1400216756 11.4629351560
15.8172426960 4.6956801435 11.9764904585
15.1684675421 5.1682409993 11.9985130936
15.3057532426 5.1779029606 12.3301953425
15.0775022450 6.1632767295 7.5690619492
15.6002660907 5.6710373672 8.3419994128
14.7520317175 5.6651533819 12.4705028653
14.2303673008 6.1344849183 12.5996432660
14.8283738228 7.5147461662 5.1212319562
15.2398455477 7.4550255619 5.5991982412
15.4570348624 7.1552513761 6.2782749252
15.3583918501 6.6108278235 6.9639161000
15.2629708400 8.6031185548 4.1831518814
15.4461022435 8.2680360673 4.7023261062
15.3614335177 7.8617838435 5.1672853920
14.9047888920 9.5789839460 3.1960002773
15.2170831113 9.2594645075 3.6396138082
14.9077475949 10.1860274534 2.9617477543
15.3616653140 9.9384911523 3.3352458755
14.3252876080 11.5660305670 2.2877554133
14.8697227110 11.2176292979 2.7069152807
15.1345255448 12.2731253310 2.8593038356
15.7883843490 12.6978278287 12.9023005983
16.0794951777 12.2071559751 12.9006583907
15.9103753953 12.6892860469 12.7779539994
15.2564181023 12.9689365621 3.0394521902
15.0791855465 13.7759116160 3.0966337964
15.6852849823 13.1840050593 3.4780064801
15.5355824012 13.3388187209 12.7692645548
15.6481368842 13.5414668747 12.4824583462
14.8845890224 14.7844008309 3.2051301552
15.6249976384 14.2158751812 3.7439383183
14.9351496550 14.5407992992 12.5545647322
15.3129471270 14.3687527322 12.2346658042
14.6962604379 15.5676936614 3.2557911492
15.2607774271 15.4327020211 3.8012078547
15.3765686875 15.4456058966 10.7188075110
15.7447135398 15.0531550745 10.4588441346
15.5905488808 15.6464552460 10.1370476278
15.0111305831 15.4928329699 11.3401291033
15.5649011160 14.8881819683 11.0276128261
14.8508182498 15.1189960173 12.0903731478
15.3907494392 14.6782026260 11.7048046156
15.1601873147 16.4143441264 4.0615007108
14.9753804829 16.1406830662 10.6271639236
15.2380837662 16.6548785095 9.7360826418
15.0880950447 17.0092898700 4.2316573806
14.9121913807 17.3345098481 4.2118955286
15.1095848015 17.3737735458 4.5934828755
14.8844352632 17.7058002850 9.2681539442
14.7525235465 18.4172502494 5.5575303343
14.9827607348 17.8825688690 5.0630597769
14.8450422772 18.4839900133 6.4172477977
15.1807150515 17.9018823361 5.8614967498
14.8822357562 18.4892665495 7.3487733455
15.2847883343 17.8952160912 6.7726108263
14.8476098804 18.4291180473 8.2082231484
15.3009607452 17.8593313849 7.7054514647
14.7174490134 18.3199113410 8.8534752371
15.2007232080 17.7825454238 8.5461085776
16.3208522854 4.2203189626 10.8803245358
16.6621061698 4.0844796962 10.2312763478
16.8715764240 3.8350349581 10.8072518221
16.8160016634 3.9033811329 11.4176997884
16.2511748083 4.2853669440 11.5817912154
16.7099995199 4.0461278163 11.9202658848
16.3469257080 4.2912843085 12.0061216480
16.6952062239 4.2054367247 12.3098388327
16.4643480083 4.9883031245 8.8887853782
16.5597477528 4.4527954022 9.5700396419
16.0621720757 4.6905097161 12.4626040917
15.4174280579 5.1797674302 12.5407033493
16.3206421037 6.2388346935 7.6725126296
16.8612225077 5.5011681757 8.2592391455
15.8755579912 7.8105807989 5.9284693446
16.2156956471 7.5003119402 6.5911688428
16.2914879479 6.9773981655 7.0385875354
15.7878451081 8.7007155832 4.5858268745
15.9944287676 8.4873013089 5.2841259951
16.3073544045 8.3947960823 6.0249301906
16.5230540665 8.0753113293 6.5463012535
15.8537146315 9.2388365513 4.2125426778
16.2153587372 9.1451257999 4.8362156960
16.4048437966 9.1080312064 5.3834136161
16.6628605518 9.4254337704 5.7777065194
16.4695110349 8.9120697393 5.8628381505
16.7253860145 8.7680350127 6.4648642158
15.5489180335 10.6951764169 3.2774234149
15.9317653252 10.0929578520 3.8354235238
16.8013490876 9.3346147471 6.2468626816
15.6443218396 11.6818359171 3.2595869611
16.1665882044 11.1738870002 3.8312213213
16.3436940999 11.7985764613 12.8949707643
16.5950985876 11.5283989737 12.8421063437
16.4647526072 11.8927936007 12.7032453069
15.6204829273 12.4795690173 3.2655202195
16.1570703771 12.3390330174 3.8475849238
16.1744021978 12.7000611023 12.4229516625
16.1691081440 13.3965256672 4.0743004738
16.3060783282 13.7196034760 10.8283218996
16.7100100953 13.3006069392 10.3731292034
16.4848416607 13.9792148818 10.0700528631
16.1614186143 13.4823105262 11.5535481923
16.6198114506 12.9771310575 11.1093134842
16.0273710420 13.2859241353 12.1097717582
16.4351297480 12.7745363605 11.8643404882
16.1541323854 14.1136993891 4.3088500183
15.9457222768 14.9247037434 4.4980019585
16.3362893701 14.3756797950 4.7521385914
16.0207936691 14.4424351571 10.5840192904
16.1546867378 14.8659152516 9.8610167822
15.8608901544 14.1950422539 11.2953419283
15.7330826404 13.9343917504 11.9522921073
15.6284944109 15.9549049596 4.5945279371
16.3088260705 14.8495420242 5.1355552612
16.0675710603 15.6490384665 5.4222439872
16.2694124636 15.7551658461 6.4139615193
16.4502394913 15.0396672898 5.8392585278
16.5375214448 15.2178751830 6.5630247391
15.9663776625 15.7181606229 9.4220310994
15.3935875395 16.7801703131 4.6482143360
15.7093950697 16.5758505402 5.3607714859
15.9321438622 16.4838238492 6.2766514856
16.4102215387 15.6728777968 7.0743365077
16.0804500378 16.3844932731 7.3051680977
16.0016897601 16.4411553577 8.3218259265
16.3832175423 15.7648664504 7.8059499232
15.8420968373 16.3447473545 9.0368022676
16.2682360527 15.7437861958 8.6488483467
15.3774671761 17.3124923094 5.2538043272
15.5748903907 17.2501739728 6.0999009670
15.6800849618 17.2018540921 7.0561777649
15.6713568483 17.1541996588 8.0143161583
15.5173560292 17.0420785320 8.8687655830
17.3722070197 3.5665529015 10.4068154216
17.6763054003 3.4844856030 9.8711042958
18.1620250795 3.1420912991 10.2669425457
17.8836563138 3.2416118523 10.9210613608
17.2055180800 3.8916696311 9.7388191842
17.4180650745 4.2241965891 9.1262953529
17.7040725918 3.6779777782 9.4792939688
17.3901944173 3.5403242163 11.1992474501
17.5510196885 3.6470746407 12.0347384694
17.3913100214 3.9187981510 12.5400044880
17.4951155573 4.8443973540 8.5622638787
16.9504548709 4.1922508156 12.6139299575
17.5792770190 5.8840554868 7.9138237021
17.7341385776 5.2740339993 8.2071358562
16.9034164737 7.6027606330 7.0774607827
17.4382807536 6.8272934156 7.5533104946
17.1706777662 8.4344613230 7.0706584863
17.8073034480 7.8095942381 7.5552206429
16.4011731852 9.8871721736 4.5681933470
16.6328050119 9.7017732496 5.2860803032
17.2332796369 9.4077007505 6.9287369193
17.9777734873 8.8624941002 7.7484070783
16.5107932498 10.6781954115 4.3718411468
16.9325031776 10.6996993137 5.2019671790
17.0373414559 10.0994337359 6.1547350234
17.3926914930 10.2523635863 7.0328100283
17.7485076469 9.9335253641 7.6924259917
17.0498572119 11.1380092136 12.6891842429
17.5574119349 10.5552968715 12.6867743244
17.5696832967 10.6836008624 12.5232219405
16.8018369912 11.7099015657 4.7040328620
17.1835016151 11.4455971547 5.2715645732
17.2808836023 11.2634769729 5.5888342373
17.4173689057 11.5560678939 6.0027062670
17.2819791667 11.0160727705 6.0331120751
17.4074215296 10.8814557712 6.7812560358
17.6547488754 10.7726587163 7.5615931642
17.1187463035 11.3982433467 12.3039947626
17.5781451246 10.8891947229 12.2561838564
17.5649800543 11.2032095858 11.8034601475
16.6431476374 12.8877002121 4.6440239565
17.2650774370 12.0123449124 5.4717862427
17.1027939443 12.6801091469 5.4323484526
17.4898819041 11.5592581961 6.6200253421
17.3424150135 12.4212041054 5.7685014674
17.6013412700 11.3876386415 7.2919533745
17.3771105270 12.5295470054 9.6032293437
17.6338208830 12.1291083233 9.2425839774
17.4453181973 12.7294888850 8.8989605170
17.1296157884 12.5373875782 10.4356373038
17.6218215220 11.8959956658 9.9857272280
17.0072537665 12.0902661340 11.5519340810
17.5688842063 11.6340375505 10.9440190429
16.6345557890 12.1474857026 12.2185114808
16.4967401010 13.7600480895 4.7045260177
16.8347489666 13.5831678527 5.4066747911
17.3395199374 12.7713426265 6.0390554548
17.1559393410 13.4661417797 6.2802368836
17.4013957640 13.0008076892 6.5550772047
17.0204148315 13.3532496133 9.4722449689
17.2865790141 13.3403863502 8.5492232980
16.5728171085 14.3293353034 5.3202934531
16.7805753504 14.4324065257 6.2681003911
17.3215530825 13.4632781797 7.0299734542
17.0196297681 14.2003051739 7.3223667550
16.9579677892 14.1279214311 8.5244946044
17.3110799145 13.5226272054 7.7858575489
16.6476645784 14.2654756084 9.3820573313
16.6637561701 15.0878674483 7.2044747899
16.6697253522 15.0233305403 8.1067171088
16.4840950919 14.9781471616 9.0044957469
18.0677857081 3.3515507571 9.6586249858
18.2228780352 3.6004787537 9.2216245376
18.6472467068 3.0843822516 9.6533875342
19.0440028719 2.6872936168 10.3417337939
18.6115253235 2.9281616596 11.1586156282
18.0166054603 3.2497627689 11.5607385910
18.5382349332 3.0816715793 11.8253953257
18.1939509365 3.2770261143 11.9882456524
18.6481856719 3.2350622693 12.2552656698
18.3389485627 4.1716896768 8.6758972495
18.0892331066 3.5983796635 12.5219289076
17.5199247214 3.9180421398 12.6793905463
18.1789989560 4.8166126429 8.3309183187
18.5730923530 5.2056767499 8.0240361863
18.7488885725 4.5028114061 8.2793566403
18.5473290857 6.1408916451 7.7879688783
18.6114920733 7.0613634345 7.7909107653
18.8338146633 7.9711510153 8.0718995273
18.9171253709 8.7448086980 8.5385280556
18.3433239224 9.5874285510 8.3993680158
18.9080457781 9.3521657197 8.9907697563
18.0677367873 10.0892922358 12.5865918291
18.5769152340 9.5208301530 12.6384877359
18.5764480274 9.6556963524 12.4687640775
18.0573196807 10.5373971724 8.4663489592
18.5857455629 9.9836909338 9.0599150010
18.0689254921 10.3917003165 12.1757272004
18.5746968376 9.8578451297 12.1952146754
18.5668398601 10.1186361333 11.7328278289
17.3734785935 11.6885626401 5.6732381415
17.7783160357 11.4093279862 8.0788086939
18.3630695748 10.5579104609 9.2757903442
17.9658857738 11.3285850711 9.2436200577
18.0397147235 11.1591904468 10.4178451847
18.4495729236 10.6383054824 9.9897315927
18.0594975582 10.8441347012 11.3605202982
18.5371014662 10.4483589436 10.8992283771
17.4626596382 12.2390477375 6.2787806277
17.6122513521 12.1014477228 7.4238070697
17.6874943524 12.1134970600 8.4892746539
17.4878220832 12.9029433045 7.1877511382
17.5152613635 12.8234345342 8.0572116221
19.6227867156 2.3444528699 10.5310302901
19.5755487636 2.4217155114 10.0261596388
20.0730577607 2.1474767957 10.2550725799
19.9414627498 2.2249937529 10.8523057369
19.1622661071 3.2794587374 8.9825169212
19.2648354403 2.7392838451 9.6566077093
19.5151680777 2.5255439291 11.1650440318
19.1875856549 2.8735223837 11.8467059264
19.6153882895 2.9889412341 12.3683665920
19.1009817822 3.9576743963 8.4440881034
19.5060673773 4.3332946701 8.0537145695
19.6633146376 3.5495859405 8.4062292051
19.1435763650 3.2352889072 12.5542847191
19.6740617646 5.3838743550 7.7270261435
19.3582364056 6.3923513277 7.7992589473
19.6632325397 7.1272814950 8.0501582958
19.6706602059 7.8498616126 8.4811918207
19.2537160663 8.2315533310 8.4616321188
19.6175802151 8.3247425561 8.8514914649
19.0879141613 9.0608085594 12.5627445861
19.5973486996 8.4999165950 12.6222080237
19.5932265937 8.6379141895 12.4495855928
19.1431385852 9.5743364229 9.6874019561
19.5926800745 8.8074695563 9.4057112068
19.6654575694 9.1240918183 10.0613742997
19.0813640254 9.3546197742 12.1505408318
19.5869313896 8.8407849040 12.1788482644
19.5644731040 9.0934011968 11.7401456837
18.7182315085 10.1721110109 9.6720017289
19.4621581389 9.4491658068 10.3592258420
18.9976099294 9.9572847172 10.4220585344
19.0551362931 9.7547122198 11.3530412981
19.5136807212 9.3825677821 11.0021581182
19.8950896930 2.4898666298 9.4350953850
20.5029062429 2.3361599347 8.9536484498
20.4978222263 2.0124547201 9.6817724237
20.5220380165 1.9289597644 10.3502666692
20.3361230855 2.0832485611 10.8912426978
20.0984161094 2.2997593121 11.3037463339
20.4607905811 2.2621908370 11.4892648132
20.0477841500 2.9135067878 8.6825906930
20.3617912818 3.3794615863 8.0858034879
20.4960819068 2.7126296740 8.4911694843
20.0250480971 2.6120382652 11.8848002471
20.2900503153 2.8600865321 12.4391116184
20.2576609116 4.3933946438 7.6699175601
19.9643303578 3.0465095524 12.6118433935
20.3714348706 4.9419348152 7.4844080185
20.6746755302 4.9813900452 7.3686357212
20.6379976730 4.5078808415 7.4212912905
20.3588522200 5.4284347094 7.5182072268
20.1641934831 6.1887876565 7.7613231717
20.4523738150 6.9004758391 8.1141475152
20.0868190223 8.0617521015 12.5358393896
20.5365285943 7.5491154472 12.5879498093
20.5411595081 7.6787226847 12.3962242641
20.2972179373 7.4417576696 8.4923080041
19.9610286188 8.3417690227 9.2604343955
20.2144629783 7.9560229414 9.0751049833
20.2543187831 8.2848472850 9.7533246508
20.0619287477 8.3792329643 12.1103266058
20.5593941256 7.9055081016 12.0100865984
20.3726653818 8.2925977310 11.6507299308
19.8818079801 9.0116431013 10.6840794266
20.1116174291 8.6431080915 10.2640912322
19.9879707614 8.7922543940 11.3955685481
20.3357883501 8.4715855183 11.0432595916
20.9116783289 1.8816599612 9.1845518264
21.0756482471 1.9548832059 8.7605357628
21.0901361287 1.7081867133 9.1327577829
21.0184261869 1.6740217868 9.4308119483
20.8758848086 2.4485364906 8.4187490937
21.0781129025 2.6308251941 8.0147109802
21.0921744960 2.2445348771 8.3606314488
20.7924019705 1.8004525002 9.9270626949
20.6340933702 1.9976024188 10.8858563912
20.6441695760 2.2388177937 11.5435987356
20.9289867098 3.1012898247 7.8167192685
20.9805776946 3.5603674009 7.5292972733
21.0827659865 3.0400458322 7.7065905798
20.5085957474 2.5600620874 12.0516000072
20.5350282514 2.8269105605 12.4739991106
20.7351452464 3.8642304905 7.5732605998
20.8434388272 4.3744681702 7.3629575269
20.3949026374 2.9566012618 12.6208345796
20.7934056961 4.9940154499 7.3368992976
20.6011290295 5.6105494583 7.5121188524
20.5921759163 6.4202671424 7.8661903377
20.8672658513 7.2504065740 12.4935101350
21.0265093981 7.0517693925 12.5290960575
21.0422055748 7.1454949808 12.3381983614
20.7580844077 6.9537916580 8.2146417928
20.7028039007 7.2249072498 8.4325640977
20.8202860878 7.2480649823 8.5045219461
20.9761467935 7.6085751700 11.4372519393
21.0934540190 7.4810918345 11.4205163429
20.9315164060 7.7229098286 10.8642655267
20.8907026711 7.4640701852 12.0791575342
21.0855634764 7.3292772569 11.8739567290
20.6344026124 7.5550948985 8.8725480872
20.6411475251 8.0683519916 10.6849884611
20.6264588591 7.9044120243 9.8551362717
20.6947113654 7.9409603623 11.5164773434
3 2 1 0
3 0 3 2
3 0 1 4
3 4 1 5
3 3 0 6
3 6 0 4
3 5 7 4
3 4 7 6
3 10 9 8
3 8 11 10
3 14 13 12
3 16 15 12
3 12 15 14
3 18 17 16
3 16 17 15
3 18 19 17
3 22 21 20
3 22 20 9
3 20 8 9
3 20 23 8
3 11 8 24
3 8 25 24
3 8 23 25
3 27 26 25
3 25 26 24
3 26 27 13
3 27 12 13
3 27 28 12
3 12 29 16
3 12 28 29
3 16 30 18
3 16 29 30
3 19 18 31
3 18 32 31
3 18 30 32
3 32 33 31
3 20 21 34
3 34 21 35
3 20 36 23
3 20 34 36
3 23 37 25
3 23 36 37
3 25 38 27
3 25 37 38
3 27 39 28
3 27 38 39
3 28 40 29
3 28 39 40
3 29 41 30
3 29 40 41
3 30 42 32
3 30 41 42
3 33 32 43
3 32 44 43
3 32 42 44
3 46 45 44
3 44 45 43
3 46 47 45
3 34 35 48
3 48 35 49
3 34 50 36
3 34 48 50
3 36 51 37
3 36 50 51
3 37 52 38
3 37 51 52
3 38 53 39
3 38 52 53
3 53 1 2
3 40 53 2
3 39 53 40
3 40 2 3
3 54 40 3
3 41 40 54
3 41 55 42
3 41 54 55
3 42 56 44
3 42 55 56
3 44 57 46
3 44 56 57
3 47 46 58
3 58 46 57
3 49 59 48
3 61 60 59
3 60 48 59
3 60 50 48
3 50 62 51
3 50 60 62
3 51 63 52
3 51 62 63
3 52 64 53
3 52 63 64
3 64 5 1
3 64 1 53
3 6 65 54
3 6 54 3
3 54 66 55
3 54 65 66
3 55 67 56
3 55 66 67
3 56 68 57
3 56 67 68
3 58 57 69
3 69 57 68
3 60 61 70
3 70 61 71
3 60 72 62
3 60 70 72
3 62 73 63
3 62 72 73
3 63 74 64
3 63 73 74
3 75 7 5
3 64 75 5
3 74 75 64
3 65 6 7
3 75 65 7
3 76 65 75
3 65 77 66
3 65 76 77
3 66 78 67
3 66 77 78
3 67 79 68
3 67 78 79
3 69 68 80
3 80 68 79
3 70 71 81
3 81 71 82
3 70 83 72
3 70 81 83
3 72 84 73
3 72 83 84
3 73 85 74
3 73 84 85
3 74 86 75
3 74 85 86
3 75 87 76
3 75 86 87
3 76 88 77
3 76 87 88
3 77 89 78
3 77 88 89
3 78 90 79
3 78 89 90
3 80 79 91
3 91 79 90
3 81 82 92
3 92 82 93
3 81 94 83
3 81 92 94
3 83 95 84
3 83 94 95
3 84 96 85
3 84 95 96
3 85 97 86
3 85 96 97
3 86 98 87
3 86 97 98
3 87 99 88
3 87 98 99
3 88 100 89
3 88 99 100
3 102 90 101
3 90 100 101
3 90 89 100
3 90 102 91
3 93 103 92
3 92 103 94
3 94 103 104
3 106 105 104
3 105 94 104
3 105 95 94
3 95 107 96
3 95 105 107
3 109 97 108
3 97 107 108
3 97 96 107
3 97 109 98
3 98 109 110
3 98 110 99
3 99 110 111
3 99 111 100
3 100 111 112
3 100 112 101
3 105 106 113
3 113 106 114
3 116 107 115
3 107 113 115
3 107 105 113
3 107 116 108
3 114 117 113
3 113 117 115
3 120 119 118
3 9 10 118
3 10 120 118
3 10 121 120
3 123 122 11
3 122 10 11
3 122 121 10
3 125 124 123
3 123 124 122
3 13 14 125
3 14 124 125
3 14 126 124
3 127 14 15
3 127 126 14
3 128 15 17
3 128 127 15
3 130 129 19
3 129 17 19
3 129 128 17
3 130 131 129
3 134 133 132
3 134 132 119
3 119 132 118
3 132 21 118
3 21 22 118
3 118 22 9
3 24 123 11
3 123 24 26
3 123 26 125
3 125 26 13
3 31 130 19
3 136 135 33
3 33 135 31
3 135 131 31
3 131 130 31
3 136 137 135
3 132 133 138
3 138 133 139
3 138 35 21
3 138 21 132
3 43 136 33
3 140 137 136
3 43 140 136
3 45 140 43
3 45 47 140
3 140 47 141
3 138 139 142
3 142 139 143
3 142 49 35
3 142 35 138
3 58 145 144
3 141 58 144
3 47 58 141
3 143 146 142
3 146 148 147
3 146 147 59
3 142 146 59
3 49 142 59
3 147 61 59
3 69 149 145
3 69 145 58
3 147 148 150
3 150 148 151
3 150 71 61
3 150 61 147
3 153 152 149
3 69 153 149
3 80 153 69
3 150 151 154
3 154 151 155
3 154 82 71
3 154 71 150
3 91 153 80
3 91 156 153
3 154 155 157
3 157 155 158
3 157 93 82
3 157 82 154
3 101 159 102
3 159 160 102
3 160 91 102
3 160 156 91
3 158 161 157
3 161 163 162
3 161 162 103
3 157 161 103
3 93 157 103
3 164 104 103
3 164 103 162
3 164 106 104
3 108 165 109
3 166 110 109
3 166 109 165
3 167 111 110
3 167 110 166
3 168 112 111
3 168 111 167
3 159 101 112
3 168 159 112
3 169 159 168
3 160 159 170
3 170 159 169
3 163 171 162
3 173 172 171
3 172 162 171
3 172 164 162
3 172 114 106
3 172 106 164
3 115 174 116
3 174 175 116
3 116 175 108
3 175 176 108
3 176 165 108
3 165 176 166
3 166 176 177
3 179 178 177
3 178 166 177
3 178 167 166
3 167 180 168
3 167 178 180
3 182 169 181
3 169 180 181
3 169 168 180
3 169 182 170
3 173 183 172
3 172 183 114
3 183 117 114
3 183 184 117
3 115 117 174
3 117 185 174
3 117 184 185
3 174 185 175
3 179 186 178
3 178 186 180
3 180 186 187
3 180 187 181
3 190 189 188
3 192 191 188
3 188 191 190
3 194 193 192
3 192 193 191
3 196 195 194
3 194 195 193
3 198 197 196
3 196 197 195
3 200 199 198
3 198 199 197
3 200 201 199
3 203 202 120
3 120 202 119
3 121 188 189
3 203 121 189
3 120 121 203
3 188 121 122
3 188 122 192
3 192 122 124
3 192 124 194
3 194 124 126
3 194 126 196
3 196 126 127
3 196 127 198
3 198 127 128
3 198 128 200
3 204 201 200
3 128 204 200
3 129 204 128
3 206 205 131
3 205 129 131
3 205 204 129
3 206 207 205
3 209 208 134
3 134 208 133
3 134 119 202
3 134 202 209
3 135 206 131
3 211 210 137
3 137 210 135
3 210 207 135
3 207 206 135
3 211 212 210
3 208 139 133
3 213 139 208
3 140 211 137
3 215 214 141
3 141 214 140
3 214 212 140
3 212 211 140
3 213 143 139
3 216 143 213
3 144 215 141
3 146 143 217
3 143 218 217
3 143 216 218
3 217 148 146
3 217 218 219
3 219 218 220
3 219 151 148
3 219 148 217
3 153 221 152
3 219 220 222
3 222 220 223
3 222 155 151
3 222 151 219
3 156 224 221
3 156 221 153
3 223 225 222
3 155 222 225
3 226 155 225
3 158 155 226
3 228 227 224
3 156 228 224
3 160 228 156
3 161 158 229
3 158 230 229
3 158 226 230
3 229 163 161
3 170 228 160
3 170 231 228
3 230 232 229
3 232 234 233
3 232 233 171
3 229 232 171
3 163 229 171
3 233 173 171
3 175 235 176
3 236 177 176
3 236 176 235
3 236 179 177
3 181 237 182
3 237 238 182
3 238 170 182
3 238 231 170
3 233 234 239
3 239 234 240
3 241 183 173
3 233 241 173
3 239 241 233
3 183 241 242
3 243 183 242
3 184 183 243
3 184 244 185
3 243 244 184
3 175 185 235
3 185 245 235
3 185 244 245
3 235 245 236
3 236 245 246
3 236 246 179
3 246 186 179
3 246 247 186
3 186 248 187
3 247 248 186
3 181 187 237
3 187 249 237
3 187 248 249
3 237 249 238
3 240 250 239
3 239 250 241
3 241 250 251
3 241 251 242
3 254 253 252
3 256 255 252
3 252 255 254
3 258 257 256
3 256 257 255
3 258 259 257
3 261 260 190
3 190 260 189
3 262 190 191
3 262 261 190
3 263 191 193
3 263 262 191
3 195 252 253
3 263 195 253
3 193 195 263
3 252 195 197
3 252 197 256
3 256 197 199
3 256 199 258
3 265 264 201
3 201 264 199
3 264 259 199
3 259 258 199
3 265 266 264
3 269 268 267
3 202 203 267
3 203 269 267
3 203 270 269
3 203 189 260
3 203 260 270
3 204 265 201
3 271 266 265
3 204 271 265
3 205 271 204
3 273 272 207
3 272 205 207
3 272 271 205
3 273 274 272
3 267 268 209
3 268 208 209
3 268 275 208
3 267 209 202
3 210 273 207
3 210 212 273
3 212 274 273
3 212 276 274
3 275 213 208
3 277 213 275
3 278 276 212
3 278 212 214
3 281 280 279
3 277 281 279
3 216 277 279
3 213 277 216
3 279 280 282
3 282 280 283
3 282 218 216
3 282 216 279
3 283 284 282
3 218 282 284
3 285 218 284
3 220 218 285
3 285 223 220
3 286 223 285
3 225 223 287
3 223 288 287
3 223 286 288
3 287 226 225
3 228 289 227
3 288 290 287
3 226 287 290
3 291 226 290
3 230 226 291
3 293 292 289
3 228 293 289
3 231 293 228
3 232 230 294
3 230 295 294
3 230 291 295
3 294 234 232
3 238 293 231
3 238 296 293
3 295 297 294
3 234 294 297
3 298 234 297
3 240 234 298
3 242 299 243
3 300 244 243
3 300 243 299
3 301 245 244
3 301 244 300
3 302 246 245
3 302 245 301
3 303 247 246
3 303 246 302
3 304 248 247
3 304 247 303
3 248 304 305
3 306 248 305
3 249 248 306
3 238 249 296
3 296 249 306
3 298 307 240
3 240 307 250
3 250 308 251
3 307 308 250
3 242 251 299
3 251 309 299
3 251 308 309
3 299 309 300
3 300 309 310
3 300 310 301
3 301 310 311
3 301 311 302
3 302 311 312
3 302 312 303
3 303 312 313
3 303 313 304
3 304 313 314
3 304 314 305
3 316 315 254
3 254 315 253
3 317 254 255
3 317 316 254
3 318 255 257
3 318 317 255
3 257 259 318
3 318 259 319
3 321 320 261
3 261 320 260
3 322 261 262
3 322 321 261
3 323 262 263
3 323 322 262
3 263 253 315
3 263 315 323
3 324 319 259
3 324 259 264
3 326 325 266
3 325 264 266
3 325 324 264
3 326 327 325
3 328 268 269
3 328 269 329
3 269 330 329
3 269 270 330
3 270 260 320
3 270 320 330
3 271 326 266
3 331 327 326
3 271 331 326
3 272 331 271
3 272 274 331
3 331 274 332
3 334 333 328
3 333 268 328
3 333 275 268
3 334 328 329
3 276 336 335
3 332 276 335
3 274 276 332
3 339 338 337
3 333 339 337
3 277 333 337
3 275 333 277
3 278 336 276
3 337 338 281
3 338 280 281
3 338 340 280
3 337 281 277
3 342 283 341
3 283 340 341
3 283 280 340
3 343 342 341
3 345 284 344
3 284 283 344
3 344 283 342
3 346 344 342
3 342 343 346
3 284 345 285
3 345 344 347
3 347 344 348
3 347 286 285
3 347 285 345
3 347 348 349
3 349 348 350
3 349 288 286
3 349 286 347
3 350 351 349
3 351 353 352
3 351 352 290
3 349 351 290
3 288 349 290
3 352 291 290
3 293 354 292
3 353 355 352
3 291 352 355
3 356 291 355
3 295 291 356
3 358 357 354
3 293 358 354
3 296 358 293
3 297 295 359
3 295 360 359
3 295 356 360
3 359 298 297
3 362 361 306
3 362 306 305
3 296 306 358
3 358 306 361
3 360 363 359
3 359 363 298
3 363 307 298
3 363 364 307
3 307 365 308
3 364 365 307
3 308 366 309
3 365 366 308
3 309 367 310
3 366 367 309
3 310 368 311
3 367 368 310
3 311 369 312
3 368 369 311
3 312 370 313
3 369 370 312
3 313 371 314
3 370 371 313
3 305 314 362
3 362 314 371
3 374 373 372
3 315 316 372
3 316 374 372
3 316 375 374
3 376 316 317
3 376 375 316
3 377 317 318
3 377 376 317
3 379 378 319
3 378 318 319
3 378 377 318
3 379 380 378
3 382 381 321
3 321 381 320
3 383 321 322
3 383 382 321
3 323 372 373
3 383 323 373
3 322 323 383
3 372 323 315
3 324 379 319
3 384 380 379
3 324 384 379
3 325 384 324
3 325 327 384
3 384 327 385
3 387 386 330
3 330 386 329
3 330 320 381
3 330 381 387
3 388 385 327
3 388 327 331
3 331 332 388
3 388 332 389
3 391 390 334
3 334 390 333
3 334 329 386
3 334 386 391
3 392 389 332
3 392 332 335
3 394 393 339
3 339 393 338
3 339 333 390
3 339 390 394
3 393 340 338
3 395 340 393
3 341 340 396
3 340 397 396
3 340 395 397
3 396 343 341
3 396 397 346
3 397 344 346
3 397 398 344
3 396 346 343
3 401 400 399
3 398 348 344
3 402 348 398
3 403 401 399
3 402 350 348
3 404 350 402
3 404 405 350
3 350 405 351
3 353 351 405
3 353 405 406
3 355 353 407
3 353 408 407
3 353 406 408
3 407 356 355
3 410 409 357
3 410 357 358
3 407 408 411
3 411 408 412
3 411 360 356
3 411 356 407
3 414 413 361
3 414 361 362
3 358 361 410
3 410 361 413
3 411 412 415
3 415 412 416
3 417 363 360
3 411 417 360
3 415 417 411
3 418 364 363
3 418 363 417
3 419 365 364
3 419 364 418
3 365 419 420
3 421 365 420
3 366 365 421
3 366 422 367
3 421 422 366
3 367 423 368
3 422 423 367
3 368 424 369
3 423 424 368
3 369 425 370
3 424 425 369
3 370 426 371
3 425 426 370
3 362 371 414
3 414 371 426
3 415 416 427
3 427 416 428
3 430 417 429
3 417 427 429
3 417 415 427
3 417 430 418
3 418 430 431
3 418 431 419
3 419 431 432
3 419 432 420
3 428 433 427
3 427 433 429
3 436 435 434
3 438 437 434
3 434 437 436
3 440 439 438
3 438 439 437
3 440 441 439
3 444 443 442
3 373 374 442
3 374 444 442
3 374 445 444
3 375 434 435
3 445 375 435
3 374 375 445
3 434 375 376
3 434 376 438
3 438 376 377
3 438 377 440
3 446 441 440
3 377 446 440
3 378 446 377
3 378 380 446
3 446 380 447
3 450 449 448
3 381 382 448
3 382 450 448
3 382 451 450
3 383 442 443
3 451 383 443
3 382 383 451
3 442 383 373
3 452 447 380
3 452 380 384
3 454 453 385
3 453 384 385
3 453 452 384
3 454 455 453
3 448 449 387
3 449 386 387
3 449 456 386
3 448 387 381
3 388 454 385
3 458 457 389
3 389 457 388
3 457 455 388
3 455 454 388
3 460 459 391
3 391 459 390
3 391 386 456
3 391 456 460
3 392 458 389
3 461 393 394
3 462 461 394
3 390 462 394
3 459 462 390
3 463 395 461
3 461 395 393
3 461 462 464
3 461 464 463
3 466 465 463
3 465 395 463
3 465 397 395
3 466 463 464
3 465 398 397
3 467 398 465
3 401 468 400
3 467 402 398
3 469 402 467
3 403 468 401
3 469 404 402
3 470 404 469
3 470 471 404
3 404 471 405
3 406 405 471
3 406 471 472
3 472 408 406
3 473 408 472
3 475 474 409
3 475 409 410
3 478 477 476
3 473 478 476
3 412 473 476
3 408 473 412
3 481 480 479
3 413 414 479
3 480 413 479
3 482 413 480
3 410 413 475
3 475 413 482
3 476 477 483
3 483 477 484
3 483 416 412
3 483 412 476
3 420 485 421
3 421 485 486
3 487 421 486
3 422 421 487
3 487 489 488
3 423 487 488
3 422 487 423
3 423 488 490
3 491 423 490
3 424 423 491
3 424 492 425
3 491 492 424
3 479 426 481
3 426 492 481
3 426 425 492
3 426 479 414
3 483 484 493
3 493 484 494
3 493 428 416
3 493 416 483
3 429 495 430
3 496 431 430
3 496 430 495
3 431 496 497
3 498 431 497
3 432 431 498
3 420 432 485
3 432 499 485
3 432 498 499
3 485 499 486
3 489 500 488
3 488 500 490
3 494 501 493
3 501 503 502
3 501 502 433
3 493 501 433
3 428 493 433
3 495 429 433
3 502 495 433
3 504 495 502
3 506 496 505
3 496 504 505
3 496 495 504
3 496 506 497
3 509 508 507
3 509 507 503
3 507 502 503
3 507 510 502
3 512 504 511
3 504 510 511
3 504 502 510
3 504 512 505
3 507 508 513
3 513 508 514
3 516 510 515
3 510 513 515
3 510 507 513
3 510 516 511
3 514 517 513
3 513 517 515
3 520 519 518
3 435 436 518
3 436 520 518
3 436 521 520
3 522 436 437
3 522 521 436
3 523 437 439
3 523 522 437
3 439 441 523
3 523 441 524
3 527 526 525
3 443 444 525
3 444 527 525
3 444 528 527
3 445 518 519
3 528 445 519
3 444 445 528
3 518 445 435
3 529 524 441
3 529 441 446
3 531 530 447
3 530 446 447
3 530 529 446
3 531 532 530
3 534 533 450
3 450 533 449
3 451 525 526
3 534 451 526
3 450 451 534
3 525 451 443
3 452 531 447
3 535 532 531
3 452 535 531
3 453 535 452
3 453 455 535
3 535 455 536
3 539 538 537
3 533 539 537
3 456 533 537
3 449 533 456
3 540 536 455
3 540 455 457
3 537 538 460
3 538 459 460
3 538 541 459
3 537 460 456
3 541 462 459
3 542 462 541
3 542 464 462
3 543 464 542
3 544 465 466
3 545 544 466
3 464 545 466
3 543 545 464
3 547 546 544
3 546 465 544
3 546 467 465
3 547 544 545
3 549 469 548
3 469 546 548
3 469 467 546
3 550 549 548
3 551 470 549
3 549 470 469
3 549 550 552
3 549 552 551
3 554 471 553
3 471 470 553
3 553 470 551
3 555 553 551
3 551 552 555
3 471 554 472
3 558 557 556
3 554 553 559
3 559 553 560
3 559 473 472
3 559 472 554
3 558 556 474
3 475 558 474
3 561 558 475
3 559 560 478
3 560 477 478
3 560 562 477
3 559 478 473
3 564 563 480
3 564 480 481
3 480 565 482
3 563 565 480
3 475 482 561
3 561 482 565
3 562 484 477
3 566 484 562
3 486 567 487
3 489 487 567
3 570 569 568
3 491 490 570
3 568 491 570
3 571 491 568
3 491 572 492
3 571 572 491
3 481 492 564
3 564 492 572
3 566 494 484
3 573 494 566
3 497 574 498
3 498 574 575
3 576 498 575
3 499 498 576
3 486 499 567
3 499 577 567
3 499 576 577
3 569 570 577
3 570 500 577
3 489 567 577
3 489 577 500
3 500 570 490
3 501 494 578
3 494 579 578
3 494 573 579
3 578 503 501
3 581 580 506
3 581 506 505
3 497 506 574
3 506 582 574
3 506 580 582
3 574 582 575
3 578 579 509
3 579 508 509
3 579 583 508
3 578 509 503
3 511 584 512
3 584 585 512
3 585 505 512
3 585 581 505
3 583 514 508
3 586 514 583
3 515 587 516
3 584 511 516
3 587 584 516
3 588 584 587
3 585 584 589
3 589 584 588
3 517 514 590
3 514 591 590
3 514 586 591
3 587 515 517
3 590 587 517
3 592 587 590
3 594 588 593
3 588 592 593
3 588 587 592
3 588 594 589
3 597 596 595
3 599 598 595
3 595 598 597
3 599 600 598
3 603 602 601
3 519 520 601
3 520 603 601
3 520 604 603
3 521 595 596
3 604 521 596
3 520 521 604
3 595 521 522
3 595 522 599
3 605 600 599
3 522 605 599
3 523 605 522
3 607 606 524
3 606 523 524
3 606 605 523
3 607 608 606
3 610 609 527
3 527 609 526
3 528 601 602
3 610 528 602
3 527 528 610
3 601 528 519
3 529 607 524
3 611 608 607
3 529 611 607
3 530 611 529
3 613 612 532
3 612 530 532
3 612 611 530
3 613 614 612
3 616 615 534
3 534 615 533
3 534 526 609
3 534 609 616
3 535 613 532
3 618 617 536
3 536 617 535
3 617 614 535
3 614 613 535
3 620 619 539
3 539 619 538
3 539 533 615
3 539 615 620
3 540 618 536
3 619 541 538
3 621 541 619
3 621 542 541
3 622 542 621
3 622 543 542
3 623 543 622
3 623 545 543
3 624 545 623
3 625 546 547
3 626 625 547
3 545 626 547
3 624 626 545
3 625 548 546
3 550 548 625
3 626 550 625
3 627 550 626
3 627 552 550
3 628 552 627
3 630 629 555
3 555 629 553
3 555 552 628
3 555 628 630
3 632 631 557
3 632 557 558
3 629 560 553
3 633 560 629
3 636 635 634
3 635 632 634
3 632 561 634
3 632 558 561
3 633 562 560
3 637 562 633
3 639 638 563
3 639 563 564
3 634 565 636
3 565 638 636
3 565 563 638
3 565 634 561
3 637 566 562
3 640 566 637
3 643 642 641
3 644 568 569
3 645 641 642
3 646 571 568
3 646 568 644
3 571 646 647
3 648 571 647
3 572 571 648
3 564 572 639
3 639 572 648
3 640 573 566
3 649 573 640
3 652 651 650
3 576 575 650
3 651 576 650
3 653 576 651
3 641 577 643
3 577 653 643
3 577 576 653
3 641 645 577
3 645 654 577
3 644 569 577
3 644 577 654
3 644 654 646
3 646 654 655
3 646 655 647
3 649 579 573
3 656 579 649
3 581 657 580
3 658 652 650
3 580 658 650
3 582 580 650
3 658 580 657
3 582 650 575
3 656 583 579
3 659 583 656
3 661 660 657
3 581 661 657
3 585 661 581
3 657 660 658
3 659 586 583
3 662 586 659
3 589 661 585
3 589 663 661
3 662 591 586
3 664 591 662
3 666 665 594
3 666 594 593
3 589 594 663
3 663 594 665
3 668 667 597
3 597 667 596
3 669 597 598
3 669 668 597
3 598 600 669
3 669 600 670
3 672 671 603
3 603 671 602
3 673 603 604
3 673 672 603
3 604 596 667
3 604 667 673
3 674 670 600
3 674 600 605
3 675 605 606
3 675 674 605
3 677 676 608
3 676 606 608
3 676 675 606
3 677 678 676
3 681 680 679
3 609 610 679
3 610 681 679
3 610 682 681
3 610 602 671
3 610 671 682
3 611 677 608
3 683 678 677
3 611 683 677
3 612 683 611
3 612 614 683
3 683 614 684
3 687 686 685
3 687 685 680
3 680 685 679
3 685 615 679
3 615 616 679
3 679 616 609
3 688 684 614
3 688 614 617
3 685 686 620
3 686 619 620
3 686 689 619
3 685 620 615
3 689 621 619
3 690 621 689
3 690 622 621
3 691 622 690
3 691 623 622
3 692 623 691
3 692 624 623
3 693 624 692
3 693 626 624
3 694 626 693
3 694 627 626
3 695 627 694
3 695 628 627
3 696 628 695
3 697 629 630
3 698 697 630
3 628 698 630
3 696 698 628
3 700 699 631
3 700 631 632
3 702 701 697
3 701 629 697
3 701 633 629
3 702 697 698
3 705 704 703
3 635 636 703
3 704 635 703
3 706 635 704
3 632 635 700
3 700 635 706
3 701 637 633
3 707 637 701
3 710 709 708
3 708 709 705
3 708 705 703
3 639 708 703
3 638 639 703
3 638 703 636
3 707 640 637
3 711 640 707
3 714 713 712
3 642 643 712
3 713 642 712
3 715 642 713
3 645 642 715
3 645 715 716
3 719 718 717
3 717 718 710
3 717 710 708
3 647 717 708
3 648 647 708
3 648 708 639
3 711 649 640
3 720 649 711
3 722 721 651
3 722 651 652
3 712 653 714
3 653 721 714
3 653 651 721
3 653 712 643
3 716 723 645
3 645 723 654
3 717 655 719
3 655 723 719
3 655 654 723
3 655 717 647
3 720 656 649
3 724 656 720
3 727 726 725
3 726 722 725
3 722 658 725
3 722 652 658
3 724 659 656
3 728 659 724
3 727 725 660
3 661 727 660
3 729 727 661
3 660 725 658
3 728 662 659
3 730 662 728
3 663 729 661
3 663 731 729
3 730 664 662
3 732 664 730
3 734 733 665
3 734 665 666
3 663 665 731
3 731 665 733
3 736 735 668
3 668 735 667
3 737 668 669
3 737 736 668
3 669 670 737
3 737 670 738
3 741 740 739
3 671 672 739
3 672 741 739
3 672 742 741
3 743 672 673
3 743 742 672
3 673 667 735
3 673 735 743
3 744 738 670
3 744 670 674
3 745 674 675
3 745 744 674
3 746 675 676
3 746 745 675
3 748 747 678
3 747 676 678
3 747 746 676
3 748 749 747
3 751 750 681
3 681 750 680
3 682 739 740
3 751 682 740
3 681 682 751
3 739 682 671
3 683 748 678
3 753 752 684
3 684 752 683
3 752 749 683
3 749 748 683
3 754 686 687
3 755 754 687
3 680 755 687
3 750 755 680
3 688 753 684
3 757 756 754
3 756 686 754
3 756 689 686
3 757 754 755
3 756 690 689
3 758 690 756
3 758 691 690
3 759 691 758
3 759 692 691
3 760 692 759
3 760 693 692
3 761 693 760
3 761 694 693
3 762 694 761
3 762 695 694
3 763 695 762
3 766 765 764
3 763 696 695
3 767 696 763
3 766 764 768
3 766 768 769
3 767 698 696
3 770 698 767
3 773 772 771
3 775 774 771
3 775 771 772
3 774 775 769
3 774 769 768
3 700 774 768
3 699 700 768
3 776 701 702
3 777 776 702
3 698 777 702
3 770 777 698
3 780 779 778
3 778 779 773
3 778 773 771
3 705 778 771
3 704 705 771
3 704 771 706
3 706 771 774
3 706 774 700
3 781 707 776
3 776 707 701
3 776 777 782
3 776 782 781
3 780 778 709
3 710 780 709
3 783 780 710
3 709 778 705
3 784 711 781
3 781 711 707
3 781 782 785
3 781 785 784
3 788 787 786
3 790 789 786
3 790 786 787
3 713 714 789
3 790 713 789
3 791 713 790
3 713 792 715
3 791 792 713
3 794 793 716
3 715 794 716
3 792 794 715
3 718 719 793
3 794 718 793
3 795 718 794
3 710 718 783
3 783 718 795
3 796 720 784
3 784 720 711
3 784 785 797
3 784 797 796
3 788 786 798
3 788 798 799
3 722 798 721
3 798 789 721
3 798 786 789
3 721 789 714
3 793 723 716
3 723 793 719
3 800 724 796
3 796 724 720
3 796 797 801
3 796 801 800
3 799 798 726
3 727 799 726
3 802 799 727
3 726 798 722
3 803 728 800
3 800 728 724
3 800 801 804
3 800 804 803
3 729 802 727
3 729 805 802
3 806 730 803
3 803 730 728
3 803 804 807
3 808 803 807
3 806 803 808
3 810 809 808
3 810 808 807
3 810 805 809
3 805 731 809
3 805 729 731
3 811 732 806
3 806 732 730
3 812 806 808
3 811 806 812
3 734 812 733
3 812 809 733
3 812 808 809
3 733 809 731
3 814 813 736
3 736 813 735
3 815 736 737
3 815 814 736
3 817 816 738
3 816 737 738
3 816 815 737
3 819 818 817
3 817 818 816
3 821 820 819
3 819 820 818
3 821 822 820
3 823 740 741
3 823 741 824
3 741 825 824
3 741 742 825
3 826 742 743
3 826 825 742
3 743 735 813
3 743 813 826
3 744 817 738
3 817 744 745
3 817 745 819
3 819 745 746
3 819 746 821
3 827 822 821
3 746 827 821
3 747 827 746
3 747 749 827
3 827 749 828
3 829 750 751
3 830 829 751
3 830 751 740
3 831 830 740
3 823 831 740
3 831 823 824
3 832 828 749
3 832 749 752
3 834 833 829
3 833 750 829
3 833 755 750
3 834 829 830
3 836 835 757
3 757 835 756
3 757 755 833
3 757 833 836
3 835 758 756
3 837 758 835
3 837 759 758
3 838 759 837
3 838 760 759
3 839 760 838
3 839 761 760
3 840 761 839
3 842 762 841
3 762 840 841
3 762 761 840
3 843 842 841
3 846 845 844
3 847 763 842
3 842 763 762
3 842 843 848
3 842 848 847
3 846 844 765
3 766 846 765
3 849 846 766
3 850 767 847
3 847 767 763
3 847 848 851
3 847 851 850
3 854 853 852
3 856 855 852
3 856 852 853
3 856 849 855
3 849 769 855
3 849 766 769
3 857 770 850
3 850 770 767
3 850 851 858
3 850 858 857
3 861 860 859
3 859 860 854
3 859 854 852
3 773 859 852
3 772 773 852
3 772 852 775
3 775 852 855
3 775 855 769
3 862 777 857
3 857 777 770
3 857 858 863
3 864 857 863
3 862 857 864
3 865 864 863
3 861 859 779
3 780 861 779
3 866 861 780
3 779 859 773
3 867 782 862
3 862 782 777
3 868 862 864
3 867 862 868
3 864 865 869
3 870 864 869
3 868 864 870
3 872 871 870
3 872 870 869
3 874 873 871
3 874 871 872
3 876 875 873
3 876 873 874
3 877 875 876
3 880 879 878
3 879 866 878
3 866 783 878
3 866 780 783
3 881 785 867
3 867 785 782
3 882 867 868
3 881 867 882
3 788 882 787
3 882 870 787
3 882 868 870
3 787 870 790
3 790 870 871
3 790 871 791
3 791 871 873
3 791 873 792
3 792 873 875
3 877 883 875
3 883 792 875
3 883 794 792
3 878 795 880
3 795 883 880
3 795 794 883
3 795 878 783
3 884 797 881
3 881 797 785
3 885 881 882
3 884 881 885
3 799 885 788
3 788 885 882
3 886 801 884
3 884 801 797
3 887 884 885
3 886 884 887
3 802 887 799
3 799 887 885
3 888 804 886
3 886 804 801
3 889 886 887
3 888 886 889
3 805 889 802
3 802 889 887
3 888 807 804
3 807 888 810
3 810 888 889
3 810 889 805
3 890 813 814
3 890 814 891
3 814 892 891
3 814 815 892
3 893 815 816
3 893 892 815
3 894 816 818
3 894 893 816
3 895 818 820
3 895 894 818
3 897 896 822
3 896 820 822
3 896 895 820
3 897 898 896
3 900 899 825
3 825 899 824
3 901 825 826
3 901 900 825
3 826 813 890
3 902 826 890
3 901 826 902
3 902 890 891
3 827 897 822
3 904 903 828
3 828 903 827
3 903 898 827
3 898 897 827
3 906 905 831
3 831 905 830
3 831 824 899
3 831 899 906
3 832 904 828
3 908 907 834
3 834 907 833
3 834 830 905
3 834 905 908
3 909 835 836
3 910 909 836
3 833 910 836
3 907 910 833
3 912 911 909
3 911 835 909
3 911 837 835
3 912 909 910
3 914 838 913
3 838 911 913
3 838 837 911
3 915 914 913
3 916 839 914
3 914 839 838
3 914 915 917
3 914 917 916
3 918 840 916
3 916 840 839
3 916 917 919
3 916 919 918
3 918 841 840
3 843 841 918
3 919 843 918
3 920 843 919
3 922 921 845
3 922 845 846
3 924 848 923
3 848 920 923
3 848 843 920
3 925 924 923
3 928 927 926
3 930 929 926
3 930 926 927
3 930 922 929
3 922 849 929
3 922 846 849
3 931 851 924
3 924 851 848
3 924 925 932
3 924 932 931
3 935 934 933
3 933 934 928
3 933 928 926
3 854 933 926
3 853 854 926
3 853 926 856
3 856 926 929
3 856 929 849
3 936 858 931
3 931 858 851
3 931 932 937
3 938 931 937
3 936 931 938
3 939 938 937
3 935 933 860
3 861 935 860
3 940 935 861
3 860 933 854
3 936 863 858
3 863 936 865
3 936 941 865
3 936 938 941
3 938 939 942
3 943 938 942
3 941 938 943
3 945 944 943
3 945 943 942
3 947 946 944
3 947 944 945
3 949 948 946
3 949 946 947
3 951 950 948
3 951 948 949
3 951 940 950
3 940 866 950
3 940 861 866
3 941 869 865
3 869 941 872
3 872 941 943
3 872 943 874
3 874 943 944
3 874 944 876
3 876 944 946
3 876 946 877
3 946 952 877
3 946 948 952
3 880 952 879
3 952 950 879
3 952 948 950
3 879 950 866
3 952 883 877
3 883 952 880
3 955 954 953
3 957 956 953
3 953 956 955
3 959 958 957
3 957 958 956
3 961 960 959
3 959 960 958
3 961 962 960
3 964 963 892
3 892 963 891
3 893 953 954
3 964 893 954
3 892 893 964
3 953 893 894
3 953 894 957
3 957 894 895
3 957 895 959
3 959 895 896
3 959 896 961
3 966 965 898
3 898 965 896
3 965 962 896
3 962 961 896
3 967 899 900
3 967 900 968
3 900 969 968
3 900 901 969
3 970 901 902
3 970 969 901
3 902 891 963
3 902 963 970
3 903 966 898
3 972 971 906
3 906 971 905
3 906 899 967
3 973 906 967
3 972 906 973
3 973 967 968
3 974 907 908
3 975 974 908
3 905 975 908
3 971 975 905
3 977 976 974
3 976 907 974
3 976 910 907
3 977 974 975
3 978 911 912
3 979 978 912
3 910 979 912
3 976 979 910
3 978 913 911
3 915 913 978
3 979 915 978
3 980 915 979
3 983 982 981
3 985 917 984
3 917 980 984
3 917 915 980
3 986 985 984
3 983 981 987
3 983 987 988
3 989 919 985
3 985 919 917
3 985 986 990
3 985 990 989
3 988 987 991
3 988 991 992
3 993 920 989
3 989 920 919
3 989 990 994
3 989 994 993
3 997 996 995
3 999 998 995
3 999 995 996
3 1001 1000 998
3 1001 998 999
3 1000 1001 992
3 1000 992 991
3 922 1000 991
3 921 922 991
3 993 923 920
3 925 923 993
3 994 925 993
3 1002 925 994
3 997 995 1003
3 997 1003 1004
3 928 1003 927
3 1003 998 927
3 1003 995 998
3 927 998 930
3 930 998 1000
3 930 1000 922
3 1006 932 1005
3 932 1002 1005
3 932 925 1002
3 1007 1006 1005
3 1004 1003 934
3 935 1004 934
3 1008 1004 935
3 934 1003 928
3 1006 937 932
3 1010 1009 939
3 1010 939 937
3 1007 1010 937
3 1006 1007 937
3 1012 1011 1009
3 1012 1009 1010
3 1014 1013 1011
3 1014 1011 1012
3 1016 1015 1013
3 1016 1013 1014
3 1018 1017 1015
3 1018 1015 1016
3 1018 1008 1017
3 1008 940 1017
3 1008 935 940
3 1009 942 939
3 942 1009 945
3 945 1009 1011
3 945 1011 947
3 947 1011 1013
3 947 1013 949
3 949 1013 1015
3 949 1015 951
3 951 1015 1017
3 951 1017 940
3 1021 1020 1019
3 1023 1022 1019
3 1019 1022 1021
3 1025 1024 1023
3 1023 1024 1022
3 1025 1026 1024
3 1028 1027 955
3 955 1027 954
3 956 1019 1020
3 1028 956 1020
3 955 956 1028
3 1019 956 958
3 1019 958 1023
3 1023 958 960
3 1023 960 1025
3 1030 1029 962
3 962 1029 960
3 1029 1026 960
3 1026 1025 960
3 1032 1031 964
3 964 1031 963
3 964 954 1027
3 964 1027 1032
3 965 1030 962
3 1033 968 969
3 1033 969 1034
3 969 1035 1034
3 969 970 1035
3 970 963 1031
3 970 1031 1035
3 1036 971 972
3 973 1037 972
3 972 1037 1036
3 968 1033 973
3 1033 1037 973
3 1033 1038 1037
3 1033 1034 1039
3 1033 1039 1038
3 1041 1040 1036
3 1040 971 1036
3 1040 975 971
3 1041 1036 1037
3 1041 1037 1042
3 1044 1043 1042
3 1037 1044 1042
3 1038 1044 1037
3 1038 1039 1045
3 1038 1045 1044
3 1046 976 977
3 1047 1046 977
3 975 1047 977
3 1040 1047 975
3 1048 1043 1044
3 1048 1044 1045
3 1049 979 1046
3 1046 979 976
3 1046 1047 1050
3 1046 1050 1049
3 1053 1052 1051
3 1054 980 1049
3 1049 980 979
3 1049 1050 1055
3 1049 1055 1054
3 1053 1051 982
3 983 1053 982
3 1056 1053 983
3 1054 984 980
3 986 984 1054
3 1055 986 1054
3 1057 986 1055
3 1060 1059 1058
3 1062 1061 1058
3 1062 1058 1059
3 1064 1063 1061
3 1064 1061 1062
3 1064 1056 1063
3 1056 988 1063
3 1056 983 988
3 1066 990 1065
3 990 1057 1065
3 990 986 1057
3 1067 1066 1065
3 1060 1058 1068
3 1060 1068 1069
3 1070 1058 1061
3 1068 1058 1070
3 1071 1061 1063
3 1070 1061 1071
3 992 1071 988
3 988 1071 1063
3 1072 994 1066
3 1066 994 990
3 1066 1067 1073
3 1074 1066 1073
3 1072 1066 1074
3 1076 1075 1074
3 1076 1074 1073
3 1077 1075 1076
3 1069 1068 996
3 997 1069 996
3 1078 1069 997
3 996 1068 999
3 999 1068 1070
3 999 1070 1001
3 1001 1070 1071
3 1001 1071 992
3 1079 1002 1072
3 1072 1002 994
3 1080 1072 1074
3 1079 1072 1080
3 1081 1074 1075
3 1080 1074 1081
3 1075 1077 1082
3 1083 1075 1082
3 1081 1075 1083
3 1085 1084 1083
3 1085 1083 1082
3 1087 1086 1084
3 1087 1084 1085
3 1087 1078 1086
3 1078 1004 1086
3 1078 997 1004
3 1079 1005 1002
3 1005 1079 1007
3 1079 1088 1007
3 1079 1080 1088
3 1089 1080 1081
3 1088 1080 1089
3 1090 1081 1083
3 1089 1081 1090
3 1091 1083 1084
3 1090 1083 1091
3 1092 1084 1086
3 1091 1084 1092
3 1008 1092 1004
3 1004 1092 1086
3 1088 1010 1007
3 1010 1088 1012
3 1012 1088 1089
3 1012 1089 1014
3 1014 1089 1090
3 1014 1090 1016
3 1016 1090 1091
3 1016 1091 1018
3 1018 1091 1092
3 1018 1092 1008
3 1095 1094 1093
3 1093 1096 1095
3 1099 1098 1097
3 1099 1097 1094
3 1094 1097 1093
3 1097 1020 1093
3 1020 1021 1093
3 1100 1096 1093
3 1021 1100 1093
3 1022 1100 1021
3 1101 1022 1024
3 1101 1100 1022
3 1024 1026 1101
3 1101 1026 1102
3 1097 1098 1028
3 1098 1027 1028
3 1098 1103 1027
3 1097 1028 1020
3 1104 1102 1026
3 1104 1026 1029
3 1106 1105 1032
3 1032 1105 1031
3 1032 1027 1103
3 1032 1103 1106
3 1107 1034 1035
3 1108 1107 1035
3 1031 1108 1035
3 1105 1108 1031
3 1109 1039 1107
3 1107 1039 1034
3 1107 1108 1110
3 1107 1110 1109
3 1111 1040 1041
3 1042 1112 1041
3 1041 1112 1111
3 1043 1112 1042
3 1113 1045 1109
3 1109 1045 1039
3 1109 1110 1114
3 1109 1114 1113
3 1115 1047 1111
3 1111 1047 1040
3 1116 1111 1112
3 1115 1111 1116
3 1048 1117 1043
3 1117 1112 1043
3 1117 1116 1112
3 1045 1113 1048
3 1113 1117 1048
3 1113 1118 1117
3 1113 1114 1119
3 1113 1119 1118
3 1122 1121 1120
3 1123 1050 1115
3 1115 1050 1047
3 1116 1125 1124
3 1123 1116 1124
3 1115 1116 1123
3 1127 1126 1125
3 1116 1127 1125
3 1117 1127 1116
3 1128 1117 1118
3 1127 1117 1128
3 1118 1119 1129
3 1118 1129 1128
3 1132 1131 1130
3 1130 1131 1122
3 1130 1122 1120
3 1053 1130 1120
3 1052 1053 1120
3 1133 1055 1123
3 1123 1055 1050
3 1123 1124 1134
3 1135 1123 1134
3 1133 1123 1135
3 1126 1127 1136
3 1134 1137 1135
3 1136 1127 1128
3 1136 1128 1138
3 1138 1128 1129
3 1141 1140 1139
3 1143 1142 1139
3 1143 1139 1140
3 1145 1144 1142
3 1145 1142 1143
3 1144 1145 1132
3 1130 1144 1132
3 1146 1144 1130
3 1056 1146 1053
3 1053 1146 1130
3 1147 1057 1133
3 1133 1057 1055
3 1148 1133 1135
3 1147 1133 1148
3 1135 1137 1149
3 1150 1135 1149
3 1148 1135 1150
3 1151 1150 1149
3 1141 1139 1152
3 1141 1152 1153
3 1060 1152 1059
3 1152 1142 1059
3 1152 1139 1142
3 1059 1142 1062
3 1062 1142 1144
3 1062 1144 1064
3 1064 1144 1146
3 1064 1146 1056
3 1147 1065 1057
3 1065 1147 1067
3 1147 1154 1067
3 1147 1148 1154
3 1155 1148 1150
3 1154 1148 1155
3 1150 1151 1156
3 1157 1150 1156
3 1155 1150 1157
3 1159 1158 1157
3 1159 1157 1156
3 1158 1159 1153
3 1152 1158 1153
3 1160 1158 1152
3 1069 1160 1060
3 1060 1160 1152
3 1154 1073 1067
3 1073 1154 1076
3 1076 1154 1155
3 1076 1155 1077
3 1155 1161 1077
3 1155 1157 1161
3 1162 1157 1158
3 1161 1157 1162
3 1163 1158 1160
3 1162 1158 1163
3 1078 1163 1069
3 1069 1163 1160
3 1161 1082 1077
3 1082 1161 1085
3 1085 1161 1162
3 1085 1162 1087
3 1087 1162 1163
3 1087 1163 1078
3 1166 1165 1164
3 1094 1095 1164
3 1095 1166 1164
3 1095 1167 1166
3 1169 1168 1096
3 1168 1095 1096
3 1168 1167 1095
3 1171 1170 1169
3 1169 1170 1168
3 1171 1172 1170
3 1164 1165 1099
3 1165 1098 1099
3 1165 1173 1098
3 1164 1099 1094
3 1100 1169 1096
3 1169 1100 1101
3 1169 1101 1171
3 1175 1174 1102
3 1102 1174 1101
3 1174 1172 1101
3 1172 1171 1101
3 1178 1177 1176
3 1173 1178 1176
3 1103 1173 1176
3 1098 1173 1103
3 1104 1175 1102
3 1176 1177 1106
3 1177 1105 1106
3 1177 1179 1105
3 1176 1106 1103
3 1179 1108 1105
3 1180 1108 1179
3 1180 1110 1108
3 1181 1110 1180
3 1183 1114 1182
3 1114 1181 1182
3 1114 1110 1181
3 1184 1183 1182
3 1187 1186 1185
3 1188 1119 1183
3 1183 1119 1114
3 1183 1184 1189
3 1183 1189 1188
3 1192 1191 1190
3 1190 1191 1187
3 1190 1187 1185
3 1122 1190 1185
3 1121 1122 1185
3 1193 1124 1125
3 1126 1193 1125
3 1194 1129 1188
3 1188 1129 1119
3 1188 1189 1195
3 1196 1188 1195
3 1194 1188 1196
3 1198 1197 1196
3 1198 1196 1195
3 1200 1199 1197
3 1200 1197 1198
3 1199 1200 1192
3 1199 1192 1190
3 1132 1199 1190
3 1131 1132 1190
3 1131 1190 1122
3 1193 1134 1124
3 1137 1134 1201
3 1134 1193 1201
3 1126 1136 1201
3 1126 1201 1193
3 1138 1202 1136
3 1136 1202 1201
3 1129 1194 1138
3 1194 1202 1138
3 1194 1203 1202
3 1141 1203 1140
3 1203 1196 1140
3 1203 1194 1196
3 1140 1196 1143
3 1143 1196 1197
3 1143 1197 1145
3 1145 1197 1199
3 1145 1199 1132
3 1201 1149 1137
3 1149 1201 1151
3 1201 1204 1151
3 1201 1202 1204
3 1205 1202 1203
3 1204 1202 1205
3 1153 1205 1141
3 1141 1205 1203
3 1204 1156 1151
3 1156 1204 1159
3 1159 1204 1205
3 1159 1205 1153
3 1208 1207 1206
3 1206 1209 1208
3 1211 1210 1166
3 1166 1210 1165
3 1167 1206 1207
3 1211 1167 1207
3 1166 1167 1211
3 1212 1209 1206
3 1167 1212 1206
3 1168 1212 1167
3 1213 1168 1170
3 1213 1212 1168
3 1170 1172 1213
3 1213 1172 1214
3 1217 1216 1215
3 1210 1217 1215
3 1173 1210 1215
3 1165 1210 1173
3 1218 1214 1172
3 1218 1172 1174
3 1215 1216 1178
3 1216 1177 1178
3 1216 1219 1177
3 1215 1178 1173
3 1219 1179 1177
3 1220 1179 1219
3 1220 1180 1179
3 1221 1180 1220
3 1223 1181 1222
3 1181 1221 1222
3 1181 1180 1221
3 1224 1223 1222
3 1227 1226 1225
3 1223 1182 1181
3 1229 1228 1184
3 1229 1184 1182
3 1224 1229 1182
3 1223 1224 1182
3 1230 1228 1229
3 1233 1232 1231
3 1231 1232 1227
3 1231 1227 1225
3 1187 1231 1225
3 1186 1187 1225
3 1234 1189 1228
3 1228 1189 1184
3 1228 1230 1235
3 1236 1228 1235
3 1234 1228 1236
3 1238 1237 1236
3 1238 1236 1235
3 1237 1238 1233
3 1237 1233 1231
3 1192 1237 1231
3 1191 1192 1231
3 1191 1231 1187
3 1234 1195 1189
3 1195 1234 1198
3 1198 1234 1236
3 1198 1236 1200
3 1200 1236 1237
3 1200 1237 1192
3 1241 1240 1239
3 1207 1208 1239
3 1208 1241 1239
3 1208 1242 1241
3 1244 1243 1209
3 1243 1208 1209
3 1243 1242 1208
3 1244 1245 1243
3 1248 1247 1246
3 1248 1246 1240
3 1240 1246 1239
3 1246 1210 1239
3 1210 1211 1239
3 1239 1211 1207
3 1212 1244 1209
3 1249 1245 1244
3 1212 1249 1244
3 1213 1249 1212
3 1213 1214 1249
3 1249 1214 1250
3 1246 1247 1217
3 1247 1216 1217
3 1247 1251 1216
3 1246 1217 1210
3 1252 1250 1214
3 1252 1214 1218
3 1255 1254 1253
3 1251 1255 1253
3 1219 1251 1253
3 1216 1251 1219
3 1254 1256 1253
3 1219 1253 1256
3 1257 1219 1256
3 1220 1219 1257
3 1257 1221 1220
3 1258 1221 1257
3 1261 1260 1259
3 1258 1262 1221
3 1221 1262 1222
3 1264 1263 1224
3 1222 1264 1224
3 1262 1264 1222
3 1265 1263 1264
3 1268 1267 1266
3 1266 1267 1261
3 1266 1261 1259
3 1227 1266 1259
3 1226 1227 1259
3 1263 1229 1224
3 1270 1269 1230
3 1270 1230 1229
3 1265 1270 1229
3 1263 1265 1229
3 1272 1271 1269
3 1272 1269 1270
3 1271 1272 1268
3 1271 1268 1266
3 1233 1271 1266
3 1232 1233 1266
3 1232 1266 1227
3 1269 1235 1230
3 1235 1269 1238
3 1238 1269 1271
3 1238 1271 1233
3 1275 1274 1273
3 1273 1276 1275
3 1279 1278 1277
3 1279 1277 1274
3 1274 1277 1273
3 1277 1240 1273
3 1240 1241 1273
3 1280 1276 1273
3 1241 1280 1273
3 1242 1280 1241
3 1281 1242 1243
3 1281 1280 1242
3 1243 1245 1281
3 1281 1245 1282
3 1285 1284 1283
3 1285 1283 1278
3 1278 1283 1277
3 1283 1247 1277
3 1247 1248 1277
3 1277 1248 1240
3 1286 1282 1245
3 1286 1245 1249
3 1249 1250 1286
3 1286 1250 1287
3 1283 1284 1288
3 1288 1284 1289
3 1288 1251 1247
3 1288 1247 1283
3 1290 1287 1250
3 1290 1250 1252
3 1288 1289 1255
3 1289 1254 1255
3 1289 1291 1254
3 1288 1255 1251
3 1291 1292 1254
3 1254 1292 1256
3 1257 1256 1292
3 1257 1292 1293
3 1296 1295 1294
3 1298 1258 1297
3 1258 1293 1297
3 1258 1257 1293
3 1299 1298 1297
3 1302 1301 1300
3 1304 1303 1300
3 1304 1300 1301
3 1303 1304 1296
3 1303 1296 1294
3 1261 1303 1294
3 1260 1261 1294
3 1298 1262 1258
3 1299 1305 1298
3 1305 1262 1298
3 1305 1264 1262
3 1307 1306 1265
3 1264 1307 1265
3 1305 1307 1264
3 1306 1307 1302
3 1300 1306 1302
3 1308 1306 1300
3 1268 1308 1267
3 1308 1303 1267
3 1308 1300 1303
3 1267 1303 1261
3 1306 1270 1265
3 1270 1306 1272
3 1272 1306 1308
3 1272 1308 1268