OFF
576 1088 0
1.6151430130 12.2874275243 5.4777911890
1.9005089067 12.4852319896 4.8501470258
1.9898425883 11.7040360751 4.9072290353
1.8583541605 11.5742058207 5.8983514201
1.5232564282 12.3367472997 6.2367920772
1.7541242155 11.8870638942 6.6532195976
1.6195171626 12.3888110374 6.8590533535
1.9214362229 12.0288371714 7.1724634147
1.6270420744 12.8395769376 5.2900511030
1.4934619271 12.9262457932 5.8539476299
1.7533252930 13.4635219954 5.4962930872
1.5758806582 13.0329110151 6.6402457300
1.9197467619 12.6798434958 7.4196760491
1.5995571159 13.5610555595 6.1193513407
1.8542940873 13.9618899131 5.9101643249
1.7175659575 13.6922245321 6.6296090456
1.9876829086 13.4979866568 7.2881034429
1.8163401236 14.0026447353 6.3180513967
2.4493648750 11.0453122617 4.1488196677
2.7785077626 10.7874948871 3.5348444007
2.7607483824 10.4058806165 3.6883796248
2.5741082511 10.2503275317 4.4061074001
2.1946669961 10.9224594463 5.1063764073
2.5066510349 10.2228487195 5.3764698636
2.2362940161 10.8526374109 5.9282607467
2.5441642296 10.3970078291 6.2065398729
2.8836553996 11.3014567102 3.4938668844
2.4744532552 12.0777211117 4.1460369447
2.3791207166 11.1788300984 6.9439978906
2.3704765581 12.0313481278 7.7514084862
1.8814798470 13.0806326345 4.9985337453
2.3306965337 13.0442811215 4.5756344555
2.3554122873 12.6251558790 8.0352508383
2.2180126731 13.0902327333 7.8705759745
2.6073878424 12.9897897814 8.3221265205
2.1497766019 13.5691368319 5.0403557546
2.2366699140 14.1151299188 5.5480871197
2.4080498374 14.0854094345 7.4534867106
2.0696253762 14.0960378345 6.8105329372
2.5344991203 13.5899502193 8.0245096075
2.2093971219 14.3623938409 6.2371521470
3.5921115983 7.7020425976 3.1503920934
3.9446509446 7.7589568385 2.3094882743
4.0085010216 7.0037554705 2.6602675278
3.8621487406 6.8838836946 3.4734943038
3.4781218453 7.6606471228 4.1306869660
3.8421165770 6.9048229794 4.4762834193
3.5526361308 7.6560353572 5.1329302272
3.9074507368 7.0258190235 5.3159997234
3.4738394397 8.5945001442 2.8737241175
3.9673382004 8.6986448520 2.1178915747
3.2121973164 8.5475728809 3.8446579008
3.1963121235 8.5189184939 4.9460270412
3.8065345339 7.5517889483 5.9118170484
3.4786770626 8.4345100344 6.1214788881
4.2120392317 7.7617381538 6.9454169354
3.7537920535 8.6745007798 7.0994967191
4.2166168593 8.4995948611 7.6948818908
3.5172225774 9.4043192837 2.6645737966
4.1650339162 9.7036375594 2.1096950702
3.0372330664 9.5671388763 3.5495776488
2.8592258930 9.4240703197 4.6567975443
2.9269280026 9.5149698601 5.8693494441
3.3222747669 9.4057343013 6.9028368237
3.8435477762 9.2773599709 7.7516269211
3.2980305156 10.4354423875 2.9968212567
4.2067176596 10.8061754933 2.4185546951
2.8659539911 10.1744483995 6.7549559614
3.3049865424 10.3035715063 7.6903348095
3.5557951269 11.4543597597 2.9664698084
3.1269575355 12.0500044462 3.4747573053
3.8751880269 12.3974053944 3.1251964311
3.0169805795 11.3599590333 8.1030293941
2.9239804891 12.3090993533 8.5089186700
3.5554467081 11.5454891983 8.8921825609
3.5180285386 12.3080870462 9.1466946337
4.0446934069 11.7175125293 9.4950446388
3.1035136678 13.0106731914 3.9091365222
3.8874687646 13.3206787288 3.5090662044
3.2126366437 13.3007234033 8.8515279374
3.8939271266 12.6638485322 9.5899433145
3.5689332780 14.0540918172 4.0926595098
4.3415728388 13.9784215595 3.6365708527
2.7981504167 14.0187450211 4.8196558151
2.6114962264 14.6060839505 6.9742424909
3.0401400144 14.4773472421 8.0846531644
3.4899466954 14.2615970705 8.9880833785
3.8554836658 13.7412761939 9.5738799205
4.0537250296 14.6764295080 4.1483792736
3.5778991396 15.0520313230 4.8794327596
4.3500770832 15.3296717179 4.5031337268
2.9382565126 15.0027955487 6.0073035170
3.1804766864 15.3280695384 7.2655157355
3.4583568017 15.4191542446 8.0929123191
3.6064451204 15.0667082065 8.7694790350
3.8067323889 14.6742286336 9.3314121960
4.0988778867 15.8632136567 5.1071523795
3.7057733115 15.9681938223 5.7809809386
4.4770061229 16.5924892070 5.6577382986
3.5265125886 16.0572671369 6.7314689792
3.6671923268 16.1217658636 7.6782678121
4.0467910231 16.7469658871 6.4721119251
3.9274064247 16.7208636847 7.2372213600
4.7673375643 5.4583750235 3.9862441230
4.9662385615 5.1489562342 3.0925836745
5.4538668941 4.5979236077 3.7904759441
5.2995806742 4.9027876173 4.5393472792
4.8745149138 5.8777378145 1.9494806929
5.3150658345 6.0017613446 1.4422751640
5.3411710988 5.3449355304 1.7078607409
5.0623683995 5.2465451345 2.3169540504
4.4649445671 6.0517261935 2.8441077157
4.2081374614 6.2550067333 3.9259514661
5.0178453625 5.3602914561 4.9231610650
4.4510738488 6.1918999447 5.0819895713
5.3620093134 5.5180240913 5.8740733834
4.8321100311 6.3207639053 6.2700875591
5.3806081046 5.9732982808 6.6370148156
4.5562950861 6.7830513311 1.9223175993
5.2787709350 6.9574155772 1.2934747842
4.2370159183 6.9493268416 6.0550732565
5.3436969516 6.4598910134 7.1354366914
4.6616123257 6.9269209348 6.8079612134
5.0520529173 7.1852881651 7.5543797108
4.5366129599 7.8493428836 1.6501986031
5.2976424516 7.9596691856 1.2535552262
5.0495128689 7.9409223318 8.1925089203
4.5246929560 8.8898012313 8.3839072743
5.1578101497 8.5765419368 8.8466582705
4.6268793062 8.7903492317 1.5925956922
5.3353054528 8.8073994015 1.3304317930
4.1850926092 9.8879383749 8.6123402537
4.9340062443 9.2211021508 9.0556532915
4.8812042865 9.4191953386 1.6065858739
5.1350746184 10.0970575156 1.8688661442
3.6503972290 10.7825664889 8.5391498739
4.9309723917 9.9344672830 9.4499075808
4.1790263850 10.8089766912 9.1809583496
4.6370346556 10.9959308003 9.7424297776
4.2557726536 11.6482257248 2.6413446796
5.1519865202 11.2661416985 2.3069426787
4.4021544093 11.9887424494 9.9238228437
4.6945825815 12.1321610713 2.6971906296
4.7929674745 12.9913680151 3.0889808077
4.2612045029 12.8821775926 9.9870103921
5.3115510732 13.8470807806 3.4386515143
4.1895524349 13.5885079475 9.9465156778
4.0809431153 14.7367855230 9.6606750260
4.7786864899 14.6766553544 3.9259674659
5.2431951870 15.3236741399 4.3404759318
3.8901977347 15.9788679115 8.5574566283
4.0455222865 15.5435009878 9.2725646595
4.4998468889 16.1334114215 9.6894432247
4.7850227054 16.0030734393 4.9131660562
5.2386106771 16.5470452913 5.2999254483
4.2192865162 16.9214693584 8.1122290661
4.4810758971 16.6805298786 9.1773857732
5.0256680510 17.0027339992 9.8507295270
4.9592952045 16.7750416613 9.9944472465
4.6271736930 17.2212981671 6.3708332662
5.3881718460 17.1966182261 5.9471420585
4.4511288518 17.3596310300 7.1994438223
4.6578079727 17.6423562963 7.9884038341
4.7603785540 17.5331103952 8.7407500919
5.1269594824 17.5146614898 9.4926973892
5.1399420536 17.7071107151 6.7852781100
4.9690055823 17.8896167378 7.5146026259
5.1414218922 18.0579649741 8.2468164685
5.1814207769 17.9452770000 9.0468907446
6.0382784236 4.0185325229 2.6052790851
6.2432632998 4.0083264089 1.9979846508
6.8242803729 3.5096478698 2.4236021203
6.5636777267 3.6151360521 3.3826810011
5.8790317415 4.0962493273 3.3181510317
6.2643548612 3.9506066306 4.1274774872
5.7166939910 4.6149650417 1.9746423579
6.0657798152 5.0420537393 1.3569788027
6.2717848204 4.3016888724 1.5945882427
5.4453808071 4.5785428696 2.7997255529
6.0353522412 4.4022104945 4.8716177324
5.5482467760 4.9313758530 5.2539770488
6.1332027103 4.6644421166 5.6114601353
5.8005493929 4.9882081047 5.7591502942
6.3754965712 4.9793896974 6.2784966802
6.1495991946 5.9982865973 1.0889781031
6.0027583895 5.6274706804 6.7894843201
5.7035412535 6.0204111688 7.0454943652
6.3250365232 6.0722155338 7.5326652300
6.1854228828 7.0244902212 1.0484796654
5.8947468784 6.7942883536 7.9421666038
5.5134637598 7.2974037932 8.1254203858
6.2309679285 7.3321525638 8.6587341918
6.1706459415 8.0620235794 1.1596475271
5.8678028400 8.1138974043 9.0672966017
5.5614455938 8.7913965338 9.3530495777
6.2420896111 8.4288579731 9.5825240577
5.9020989624 8.8742978618 1.3216689517
5.4500112072 9.3710729153 1.4839983265
6.2331084162 9.3354911428 1.5746353793
5.3275241409 9.2790955558 9.4649324981
5.8543793227 9.1631336678 9.7863407335
6.2002642802 10.3656576829 1.9786126280
5.2749689449 10.1754268330 9.8868498179
4.7718490067 11.3627800173 10.0166069312
6.2551318149 11.3016582810 2.3189902706
4.5294807192 12.2982068572 10.1205638447
5.5587183208 12.1269371193 2.6191017082
6.1462190225 12.8150243526 3.0100579050
4.3970635997 12.9369171223 10.1290670925
6.3345707401 13.7428908958 3.4732760507
5.7347279309 14.5497069884 3.8381357759
6.4155996416 15.0702940096 4.3166340346
5.7242499207 15.9602824522 4.8247729288
6.1396222999 16.6209616076 5.3859927010
5.4121672727 17.2596395471 10.1234806864
6.4973855571 17.2658125245 5.9621163525
5.9139624194 17.6209053594 10.2180811852
5.8022452235 17.6459261100 10.0322350790
6.0409955593 17.7880485318 6.5394890561
5.7113756247 18.1410571796 7.3608555502
5.6278096661 18.3020196491 7.9959887247
6.4202377232 18.3280036263 7.4636920892
5.3742656963 18.1809978229 8.7849244505
5.6756020920 17.9465770884 9.5775840157
6.6754112070 3.8526307163 1.7426832530
6.8872130467 4.2155134430 1.3641301139
7.3748573017 3.5090528353 1.7485603164
7.7622918020 2.9388517655 2.4180034176
7.5510333417 3.0185289648 3.4373597077
7.2377560005 3.4386532162 4.4705740985
6.7731296984 3.8900724759 4.9435723983
7.3819691866 3.6860654415 5.3096501129
7.0706154507 4.9810315120 1.0758167283
7.1326586723 4.2142223366 5.8554338558
7.2936986880 4.7267446618 6.6840513228
7.1870850188 5.9881388787 0.9735529062
7.1699772280 5.3103616476 7.2574155507
7.2690879120 5.8807492420 7.9325815263
7.2202798246 7.0637299003 1.0726373584
7.1357361036 6.4914337877 8.4354390414
7.2348991080 7.0877492827 9.0652677904
6.9592324294 7.9258686287 1.2181329214
6.5003268221 8.5425827297 1.3132206561
7.3375386681 8.3755190888 1.4665773061
7.0428825385 7.6946057382 9.4630919148
6.7861608619 8.3939352100 9.8883960855
7.3126688820 9.4145654420 1.8377719238
6.4755097635 8.8451498203 10.0283668125
5.9301420008 9.4056565586 9.9976487972
7.2806099838 10.4784136995 2.2084975005
6.9985678883 11.3361877834 2.4590855051
6.4544472526 11.9284361907 2.6054038180
7.3890747420 11.8284773057 2.8261658334
7.3530187386 12.9143989845 3.3407937445
7.0663568495 13.7450401055 3.6507689610
6.5742650342 14.3024308446 3.8298866195
7.4664348592 14.1787804513 4.0743748728
7.5904747144 14.9969658607 4.6484553884
6.8165545576 15.8476380096 4.9472762777
7.4607620119 16.5181843614 5.6384726764
7.3637332770 17.2940260702 6.1772014335
6.8708153036 17.7124217833 6.4320378165
7.7258941384 17.6813780480 6.7103331741
6.5384387730 17.8789518312 10.2325792260
6.9191719807 18.0968367448 7.0320113552
7.5290101749 18.2843918854 7.4667367540
7.4410101813 18.0378242584 10.2609715662
6.9887026702 18.0010057528 10.1073974348
8.2644593187 2.5061897453 3.0944709912
8.5910639752 2.4235616753 2.4166449008
8.9082105725 2.1259148192 3.0504713258
8.8622188376 2.2318617177 3.7143027603
8.3050604451 2.5765629326 3.8172015619
8.8041855401 2.4448544544 4.3189246606
7.9914872109 3.9018406612 1.2820151497
8.2938937528 2.9871475088 1.7852265013
8.3332278143 2.8745090821 4.6001873929
8.0972918191 3.3723488276 5.3852884364
7.7729420455 3.7216419401 5.7350689247
8.5142201576 3.7566025118 6.2354686339
8.1634806918 4.9306426609 1.0344848772
8.0981523453 4.4202498872 6.8040286496
7.7494900143 4.8250394717 7.0969915088
8.4286368110 4.9215497574 7.5345569580
8.3203463027 5.9950628107 1.0703252604
8.0139002802 5.5803032870 8.0105624980
7.7187037273 5.9975047502 8.2858908083
8.4145713453 6.0704204393 8.6390176456
8.1024889575 6.9039152214 1.1890247389
7.6011063710 7.5394208863 1.2496897422
8.3388623897 7.4539035236 1.4281043005
8.0215081672 6.7653388183 9.1257227357
7.6946956306 7.1889169320 9.3817858179
8.3895533692 7.2146858548 9.6192973679
8.4503117650 8.3447156077 1.7760934379
7.7265453702 7.8211199758 9.8776722271
7.0644533350 8.3657722086 10.0362501108
8.4541911174 9.4407269682 2.1670812826
8.1582353173 10.3271935897 2.4061521884
7.6700305160 10.9686847302 2.5079125382
8.5618694512 10.7963744517 2.7742498958
8.6210294658 11.8646480160 3.3110999647
8.3205964192 12.7948178162 3.6456436057
7.7207435357 13.4205108496 3.7186336204
8.4840434409 13.3751164139 4.0469009868
8.5677384035 14.1503136576 4.5564873735
8.6537131374 14.9177892007 5.0932587789
7.7701838307 15.6426996559 5.1336855677
8.4576870820 15.7868278814 5.5535130847
8.4564354801 16.3583066727 5.9314119857
8.4383355956 16.9539097802 6.4183560832
8.5769359389 17.5513953800 7.0180933896
8.0908270376 18.0199272762 10.2618936134
8.6889074611 17.8684132420 10.1484307090
8.1245122000 18.0158372259 10.1602100763
8.3228680158 18.0004035197 7.4471236705
8.4946948480 18.2468981010 7.9740426487
8.3295978605 18.0472474652 9.9420690570
9.4764289333 1.9249027863 2.6762430141
9.9336063487 2.0619054198 2.1495869198
10.3204185601 1.6273004881 2.7634184034
10.0910554040 1.5707965179 3.2405619048
9.1453075346 2.4313951331 1.9420069495
9.0156636420 3.1063569241 1.4719365202
9.6682788546 2.5751938357 1.7014859423
9.6481664893 1.8360394997 3.6193114507
9.5681363265 2.1740808542 4.5209391262
9.1538360765 2.5510166178 4.9158804654
9.7284590564 2.4586847473 5.2469550403
9.0621725497 3.9833502923 1.2150484850
9.4247078516 2.9810394584 5.7301553056
9.6109944872 3.5833426266 6.6140627770
9.1686771905 4.9567295115 1.1512052867
9.4436241598 4.2368948385 7.2312683977
9.4094668038 4.8589801500 7.8992393725
9.2579917213 5.7214156207 1.2212110815
8.9945694085 5.3780043127 8.2373782989
9.7222904592 5.7892399878 8.8101470656
8.9094073404 6.5222839111 1.3046958636
9.5156539121 7.0728841115 1.7047733877
9.1369382262 6.5542948222 9.2839384415
9.7818420481 7.0490857042 9.7424279707
9.6989237505 8.2868862076 2.1769597266
9.1055047241 7.3896126620 9.9003367386
9.4297946459 9.2684358849 2.4488988666
8.8431879968 9.9356623563 2.4948524623
9.5891096098 9.8906109730 2.7965703654
9.6683664261 10.7690418622 3.2479634844
9.6169118624 11.5452309906 3.5868358358
9.4741084945 12.3394728922 3.9760692015
9.4082817071 13.3092775506 4.5056622578
9.3680915032 13.9004748839 4.8316268117
9.0897360045 14.3076158003 4.9266876577
9.7980955466 14.2522395583 5.3455015758
9.1165007251 15.9561204322 6.0315451793
9.4023991230 15.2065071881 5.7211014563
9.8606785263 15.5556630262 6.2571608827
8.9063003467 16.4216167504 6.2276588342
9.6539641151 16.2905733299 6.6769643628
8.9349654205 17.6574994154 7.3859012278
9.4736246832 17.1053029114 7.3104455174
9.3115070258 17.6684319791 7.8759316607
9.3520059855 17.5174811382 10.0374064486
9.1463998301 17.7623405631 9.8271995017
9.0065062762 18.1909731778 8.7119343400
9.0719819906 18.0417932581 8.2956088478
8.9883306254 18.0818187015 9.4333851329
9.3604596913 17.9265607386 9.0873681374
10.6960412829 1.9039781121 2.3834450241
11.0355895608 1.5554155455 2.9309170980
10.8020790131 1.4374019427 3.4948629025
10.3745394872 1.5294630307 3.7937787414
10.8792569098 1.4826399726 4.1187516037
9.8236257205 3.2055260384 1.4954520670
10.3536222477 2.5101962023 1.8947737666
10.5241106837 1.7842549509 4.4593659134
10.3893925149 2.2389281349 5.2043013742
10.0981115205 2.5453872640 5.5901725327
10.7881684320 2.6708816287 5.8937803912
9.9534457230 4.1399515112 1.4004938107
10.6387367688 3.3404048168 1.7852532239
10.4676979293 3.3485443817 6.6026477699
10.1387928670 3.7798144125 7.0195630587
10.9578597081 4.1132065743 7.4366267842
9.9528291288 5.1653035763 1.4129547004
10.7429893438 4.4466126172 1.7703330558
10.2254739640 4.7470482314 8.0020320813
9.7852155609 5.1764487528 8.3307439500
10.3755570986 5.2730428033 8.5305309964
9.6899941267 6.0474172210 1.4502777701
10.5752460162 5.7992622488 1.8398414064
10.7870212709 5.7629460384 8.9453046303
10.7217862062 7.0829246331 2.2009223797
10.3293968971 6.4469602713 9.3854942130
11.2003377204 7.2239220490 9.7714808850
10.6770189428 7.9787237033 2.4378916195
10.3960617904 7.4141046392 9.9629555640
10.4876729850 8.8339230271 2.7548399292
10.4444873723 9.8275856849 3.2084957362
10.4987221880 10.4267689351 3.5262829109
10.2679365805 11.0822611110 3.7124241945
10.9768237997 10.5823977137 3.9412229473
10.0294557370 11.6356036604 3.8555780644
10.7066338934 11.5410773750 4.2820493353
9.9671946816 13.4959616021 4.9636670146
10.5437058659 12.6032800718 4.8320931899
10.6173780955 13.4580399945 5.4151117405
10.6633405853 14.0252275816 5.8000501407
10.5191759939 14.7201769966 6.1877824782
10.5263243261 15.5266457327 6.7529789468
10.8122486405 15.9144783227 10.0355223671
11.2693082337 15.1263585829 10.0134344358
10.9947169968 15.8086376675 9.8749004800
10.6668612781 16.0007113092 7.3262933791
10.1041200082 16.5390726806 7.2663409186
10.4561326422 16.5883046928 7.7952479896
10.1806462494 16.8314540461 9.8781159863
10.7007806081 16.5296997433 9.5335823885
9.7632476382 17.5889162908 8.6619750982
10.1098265185 17.1334825663 8.2064372056
9.9757224536 17.3250333253 9.3895157962
10.4644607163 16.9618015852 8.9647217520
11.2542478567 1.8316545874 2.6281783783
11.5198337436 1.6990314433 2.9976349441
11.5038472405 1.5916170726 3.5076764765
11.3921550609 1.5332010708 4.1135740938
11.2261191480 1.6319850497 4.5397794041
11.6129749665 1.7224241934 4.5590041336
11.1836114123 2.4885669876 2.2987273753
11.6211786118 2.0654068462 2.7616146362
11.5250582588 2.1130406719 5.1264977347
11.6432100129 2.5987179167 5.9179562456
11.4463983731 3.5782147776 2.2496380808
11.7605807593 3.2147705701 6.5713390527
12.2282824968 4.0542521251 7.3444478400
11.5414327650 4.8198278478 2.2962747093
11.1706462751 5.0690351205 8.3723423361
11.9834083750 4.7793476479 8.0236460397
11.5167559418 6.0446187554 2.4155305309
11.8858649711 5.2697626699 8.4922098972
11.7308368442 5.8167665036 8.9255702767
11.2153038695 6.3613480624 9.3534415486
11.9324734125 6.6758292589 9.4167299025
11.5297133279 6.8786251932 2.5767637386
11.2604648192 7.5769794509 2.6127559948
11.8143549585 7.2914873158 2.9516273191
12.2737573491 7.5461847117 9.6772165902
11.0297271471 8.1320903534 2.6861319395
11.5185749981 8.1692394665 3.1224015371
11.4413244838 7.9297319869 10.0286069404
12.1419643643 8.3716205579 9.9247054146
10.9922160645 9.9540807139 3.6199659273
11.2294893474 9.2160021530 3.4353916450
11.5940946281 9.8413718079 4.0695593117
12.0151409458 8.6341744656 10.0531626387
11.5753344438 10.7387377302 4.5519186404
11.4238688511 11.4695121577 4.8147674325
11.0868839002 11.8996917138 4.7741495484
11.4683856983 12.0219290786 5.2481845266
12.1191385932 12.5271650094 9.9983382291
12.3378049576 11.9207421063 9.8536301123
12.1881107360 12.6072886525 9.8358964870
11.1753291728 13.6042229103 5.9842647910
11.3193189375 12.8327682476 5.6560391164
11.6868014353 13.1882340361 6.3362148768
11.9566371553 13.1662401590 10.0017378209
11.9636824553 13.5430369034 9.7784919280
10.9981784340 14.1040750270 6.1372522207
11.4112447914 14.0585513858 6.6210654027
11.6852265540 14.1185778270 9.9820973383
11.6038740249 14.7231216337 9.7093028920
10.9969665261 15.4936804006 7.1518172169
11.1615133297 14.9670533739 6.9632103641
11.3232997672 15.3754540646 7.5592597152
11.3033007672 15.7126180310 9.4352685991
10.8456629624 16.5140975158 8.5389757404
11.1513664307 15.9471763347 8.0749403131
11.0147589505 16.3468717109 9.1296433614
11.3846753977 15.8046566596 8.8039263291
11.9259759178 2.0557139381 3.2813123786
12.0789751617 2.0190502147 4.1920099064
11.9009434649 2.7473208205 2.7924752971
12.5144602498 2.8408904099 3.5093583520
12.8922145911 2.6969549372 4.2188138106
12.6789015559 2.4063311382 4.9977780030
12.2981164244 2.6253496359 5.8081684091
12.9900879311 2.6900037253 5.6973230890
12.2853630191 3.8932335196 2.9062466426
12.8913098994 3.7060186977 3.4795865160
13.0701442663 3.3021136882 3.8361428245
12.7338880754 3.0872651876 6.3247545699
12.5984028124 3.5626900160 6.8574766247
13.0654547143 3.5669983418 6.7509628026
12.3348013941 5.3152568103 2.9523478928
12.9008461990 4.5759968814 3.4074239858
12.8692407850 4.0146583024 7.2064986262
12.8738933603 4.7916917315 7.8221019285
12.1012224002 6.5002581976 2.9696061329
12.9211996634 5.4050141483 3.5050246306
12.7046544186 6.1896411124 3.4937116069
13.1262247806 5.9033595078 3.8711362688
12.4833238071 5.5549613965 8.5341017558
12.3989512185 6.2684851499 9.0609392680
12.9721129877 6.4442736532 8.8980036435
12.4231581455 7.4399222199 3.6776385368
13.0462887427 6.7055496921 4.0711340971
12.6326773925 6.9950537667 9.3479372436
13.0924990089 7.4505902414 9.2772789278
12.0481372368 8.8124776444 3.9628061797
13.0093748368 7.5257067175 4.3651108077
12.7798048805 8.4391448097 4.5422663993
13.2582860534 7.9297267427 4.8330266424
12.8249050148 7.6992622101 9.5314838942
12.7493949889 8.3531358536 9.6967177719
12.4477895169 9.8841265312 4.9920633282
13.1988126372 9.0540637537 5.3094640601
12.4568192730 9.5295464649 9.9174549310
12.7557022498 9.2713320354 9.7608077782
12.0138372975 11.2092030523 5.3216161082
13.1968469893 10.0594106396 5.9532648811
12.7629694883 11.0330979533 6.2213609632
13.2618945923 10.7091685614 6.5865431971
12.7725809415 10.3672220275 9.6664373507
13.0506406646 9.8719820069 9.5227184124
13.0458373854 10.7747376597 9.2499241682
12.5417032273 10.8942320848 9.7932079901
12.0760627269 12.2130485063 6.1888089227
13.2194193566 11.2111611688 7.1392494785
12.7488407502 12.0121672451 7.3279665421
13.1647866702 11.6258947280 7.7618088002
12.6028421161 11.7341604782 9.4393887170
12.9967976345 11.6537354528 8.7415070967
12.1071322429 13.2661597361 7.2645512850
12.9891684301 11.9401201526 8.1396386990
12.5335324104 12.7010959471 8.5102498189
12.2867363886 12.8871176031 9.4147370261
11.7183936779 14.5090512684 7.5088912899
12.0624988297 14.0909641276 8.3238063775
12.0801315637 13.8276343575 9.1886986562
11.6708685144 15.1446848688 8.2522133987
11.7627177493 14.9141068669 9.0192304144
13.1186849904 2.6885969875 4.6406868349
13.1340876384 2.5557454952 5.2315244199
13.2322061071 2.7227043073 5.6813188620
13.3106357072 4.1911623342 3.8940733932
13.2961307647 3.3936124826 4.1601099636
13.1735176360 3.0959954313 6.2121070250
13.2537253264 3.5912109998 6.7127590043
13.2760978490 5.1868559462 3.8895887415
13.5689889250 4.3975558206 4.2179363192
13.5729482088 5.1028644848 4.2601712994
13.6920654431 5.0778436135 4.4032049800
13.1657865380 4.1487877551 7.2316689574
13.2112928669 4.7790515395 7.7135474940
13.4177586085 6.1168877352 4.3233590423
13.6308475988 5.8268988724 4.5130057601
13.0695595906 5.6629326107 8.3905898227
13.2264953425 5.3596852089 8.1194829525
13.3013486444 7.0801093686 4.5258617311
13.4798613543 7.0657620110 4.7488426327
13.2514951232 6.1485224878 8.5968180745
13.2548039378 7.0935921462 9.0174577850
13.4186256475 8.3237586575 5.1880743809
13.0891731344 8.1708821707 9.4875508411
13.2588749447 8.3178262910 9.3185547686
13.4426823100 9.1835833239 5.6229425826
13.3953956925 9.5257455319 5.7701404705
13.4417789034 9.8037407329 6.0233114656
13.1055405642 8.9894627538 9.5293938444
13.2335390256 9.8243585908 9.2736285012
13.4002282834 10.8258262724 6.9020823742
13.4176960938 10.4605637554 6.5662632082
13.4185983513 10.9480480115 7.1521321167
13.2463712972 11.0468545767 8.6923153155
13.2170406803 11.5448000501 8.2578235790
13.3306304756 11.2949725969 7.8316401753
3 2 1 0
3 4 3 0
3 0 3 2
3 6 5 4
3 4 5 3
3 6 7 5
3 1 8 0
3 10 9 8
3 9 0 8
3 9 4 0
3 4 11 6
3 4 9 11
3 7 6 12
3 12 6 11
3 9 10 13
3 13 10 14
3 16 11 15
3 11 13 15
3 11 9 13
3 11 16 12
3 14 17 13
3 13 17 15
3 20 19 18
3 22 21 18
3 18 21 20
3 24 23 22
3 22 23 21
3 24 25 23
3 19 26 18
3 27 1 2
3 18 27 2
3 22 18 2
3 26 27 18
3 22 2 3
3 22 3 24
3 28 25 24
3 3 28 24
3 5 28 3
3 5 7 28
3 28 7 29
3 8 1 30
3 1 31 30
3 1 27 31
3 30 10 8
3 12 33 32
3 29 12 32
3 7 12 29
3 33 34 32
3 31 35 30
3 10 30 35
3 36 10 35
3 14 10 36
3 38 37 16
3 38 16 15
3 12 16 33
3 16 39 33
3 16 37 39
3 33 39 34
3 36 40 14
3 14 40 17
3 15 17 38
3 38 17 40
3 43 42 41
3 45 44 41
3 41 44 43
3 47 46 45
3 45 46 44
3 47 48 46
3 41 42 49
3 49 42 50
3 41 51 45
3 41 49 51
3 45 52 47
3 45 51 52
3 48 47 53
3 47 54 53
3 47 52 54
3 56 55 54
3 54 55 53
3 56 57 55
3 49 50 58
3 58 50 59
3 49 60 51
3 49 58 60
3 51 61 52
3 51 60 61
3 52 62 54
3 52 61 62
3 54 63 56
3 54 62 63
3 57 56 64
3 64 56 63
3 58 59 65
3 65 59 66
3 65 19 20
3 60 65 20
3 58 65 60
3 60 20 21
3 60 21 61
3 61 21 23
3 61 23 62
3 62 23 25
3 67 62 25
3 63 62 67
3 64 63 68
3 68 63 67
3 66 69 65
3 69 71 70
3 69 70 26
3 65 69 26
3 19 65 26
3 70 27 26
3 28 67 25
3 73 72 29
3 29 72 28
3 72 68 28
3 68 67 28
3 75 74 73
3 73 74 72
3 75 76 74
3 70 71 77
3 77 71 78
3 77 31 27
3 77 27 70
3 32 73 29
3 73 32 34
3 79 73 34
3 75 73 79
3 76 75 80
3 80 75 79
3 77 78 81
3 81 78 82
3 83 35 31
3 77 83 31
3 81 83 77
3 83 36 35
3 38 84 37
3 85 39 37
3 85 37 84
3 79 34 39
3 85 79 39
3 86 79 85
3 80 79 87
3 87 79 86
3 82 88 81
3 90 89 88
3 89 81 88
3 89 83 81
3 91 40 36
3 83 91 36
3 89 91 83
3 84 38 40
3 91 84 40
3 92 84 91
3 94 85 93
3 85 92 93
3 85 84 92
3 85 94 86
3 86 94 95
3 86 95 87
3 90 96 89
3 98 97 96
3 97 89 96
3 97 91 89
3 91 99 92
3 91 97 99
3 93 92 100
3 100 92 99
3 98 101 97
3 97 101 99
3 99 101 102
3 99 102 100
3 105 104 103
3 103 106 105
3 109 108 107
3 111 110 107
3 107 110 109
3 110 111 104
3 111 103 104
3 111 112 103
3 106 103 113
3 103 114 113
3 103 112 114
3 116 115 114
3 114 115 113
3 116 117 115
3 107 108 118
3 118 108 119
3 118 42 43
3 111 118 43
3 107 118 111
3 111 43 44
3 111 44 112
3 112 44 46
3 112 46 114
3 114 46 48
3 120 114 48
3 116 114 120
3 117 116 121
3 116 122 121
3 116 120 122
3 122 123 121
3 118 119 124
3 124 119 125
3 124 50 42
3 124 42 118
3 53 120 48
3 120 53 55
3 120 55 122
3 127 126 57
3 57 126 55
3 126 123 55
3 123 122 55
3 127 128 126
3 124 125 129
3 129 125 130
3 129 59 50
3 129 50 124
3 64 131 127
3 64 127 57
3 128 127 132
3 132 127 131
3 130 133 129
3 59 129 133
3 134 59 133
3 66 59 134
3 68 135 131
3 68 131 64
3 132 131 136
3 131 137 136
3 131 135 137
3 137 138 136
3 69 66 139
3 66 140 139
3 66 134 140
3 139 71 69
3 72 135 68
3 135 72 74
3 135 74 137
3 74 76 137
3 76 138 137
3 76 141 138
3 140 142 139
3 71 139 142
3 143 71 142
3 78 71 143
3 80 141 76
3 80 144 141
3 143 82 78
3 145 82 143
3 87 147 146
3 144 87 146
3 80 87 144
3 145 148 82
3 82 148 88
3 90 88 148
3 90 148 149
3 93 150 94
3 151 95 94
3 151 94 150
3 147 87 95
3 151 147 95
3 152 147 151
3 149 153 90
3 90 153 96
3 98 96 153
3 98 153 154
3 100 155 150
3 100 150 93
3 150 156 151
3 150 155 156
3 158 152 157
3 152 156 157
3 152 151 156
3 101 98 159
3 98 160 159
3 98 154 160
3 161 102 101
3 161 101 159
3 155 100 102
3 161 155 102
3 162 155 161
3 155 163 156
3 155 162 163
3 157 156 164
3 164 156 163
3 160 165 159
3 159 165 161
3 161 165 166
3 161 166 162
3 162 166 167
3 162 167 163
3 163 167 168
3 163 168 164
3 171 170 169
3 173 172 169
3 169 172 171
3 173 174 172
3 177 176 175
3 177 175 170
3 175 169 170
3 175 178 169
3 178 104 105
3 173 178 105
3 169 178 173
3 180 179 106
3 106 179 105
3 179 174 105
3 174 173 105
3 182 181 180
3 180 181 179
3 182 183 181
3 175 176 109
3 176 108 109
3 176 184 108
3 175 109 110
3 175 110 178
3 178 110 104
3 113 180 106
3 180 113 115
3 180 115 182
3 186 185 117
3 117 185 115
3 185 183 115
3 183 182 115
3 186 187 185
3 184 119 108
3 188 119 184
3 121 186 117
3 190 189 123
3 123 189 121
3 189 187 121
3 187 186 121
3 190 191 189
3 188 125 119
3 192 125 188
3 126 190 123
3 194 193 128
3 128 193 126
3 193 191 126
3 191 190 126
3 194 195 193
3 197 130 196
3 130 192 196
3 130 125 192
3 198 197 196
3 132 199 194
3 132 194 128
3 195 194 200
3 200 194 199
3 197 133 130
3 134 133 197
3 198 134 197
3 201 134 198
3 136 199 132
3 203 202 138
3 138 202 136
3 202 200 136
3 200 199 136
3 201 140 134
3 204 140 201
3 141 205 203
3 141 203 138
3 204 206 140
3 140 206 142
3 143 142 206
3 143 206 207
3 144 208 205
3 144 205 141
3 207 145 143
3 209 145 207
3 146 208 144
3 209 210 145
3 145 210 148
3 149 148 210
3 149 210 211
3 211 212 149
3 149 212 153
3 154 153 212
3 154 212 213
3 157 214 158
3 213 160 154
3 215 160 213
3 217 216 214
3 157 217 214
3 164 217 157
3 215 218 160
3 160 218 165
3 165 219 166
3 218 219 165
3 219 221 220
3 167 219 220
3 166 219 167
3 222 168 167
3 222 167 220
3 222 223 168
3 223 164 168
3 223 217 164
3 226 225 224
3 170 171 224
3 171 226 224
3 171 227 226
3 228 171 172
3 228 227 171
3 230 229 174
3 229 172 174
3 229 228 172
3 230 231 229
3 224 225 177
3 225 176 177
3 225 232 176
3 224 177 170
3 179 230 174
3 233 231 230
3 179 233 230
3 181 233 179
3 181 183 233
3 233 183 234
3 232 184 176
3 235 184 232
3 236 234 183
3 236 183 185
3 185 187 236
3 236 187 237
3 235 188 184
3 238 188 235
3 239 237 187
3 239 187 189
3 189 191 239
3 239 191 240
3 242 192 241
3 192 238 241
3 192 188 238
3 243 242 241
3 244 240 191
3 244 191 193
3 193 195 244
3 244 195 245
3 242 196 192
3 198 196 242
3 243 198 242
3 246 198 243
3 200 248 247
3 245 200 247
3 195 200 245
3 246 201 198
3 249 201 246
3 202 248 200
3 251 204 250
3 204 249 250
3 204 201 249
3 252 251 250
3 251 206 204
3 207 206 251
3 252 207 251
3 253 207 252
3 255 209 254
3 209 253 254
3 209 207 253
3 256 255 254
3 255 210 209
3 211 210 255
3 256 211 255
3 257 211 256
3 257 258 211
3 211 258 212
3 213 212 258
3 213 258 259
3 261 215 260
3 215 259 260
3 215 213 259
3 262 261 260
3 217 263 216
3 261 218 215
3 262 264 261
3 264 218 261
3 264 219 218
3 221 219 264
3 221 264 265
3 267 266 263
3 217 267 263
3 223 267 217
3 270 269 268
3 272 271 268
3 268 271 270
3 272 273 271
3 275 274 226
3 226 274 225
3 227 268 269
3 275 227 269
3 226 227 275
3 268 227 228
3 268 228 272
3 276 273 272
3 228 276 272
3 229 276 228
3 278 277 231
3 277 229 231
3 277 276 229
3 278 279 277
3 274 232 225
3 280 232 274
3 233 278 231
3 282 281 234
3 234 281 233
3 281 279 233
3 279 278 233
3 282 283 281
3 280 235 232
3 284 235 280
3 236 282 234
3 286 285 237
3 237 285 236
3 285 283 236
3 283 282 236
3 286 287 285
3 289 238 288
3 238 284 288
3 238 235 284
3 290 289 288
3 239 286 237
3 292 291 240
3 240 291 239
3 291 287 239
3 287 286 239
3 292 293 291
3 289 241 238
3 243 241 289
3 290 243 289
3 294 243 290
3 244 292 240
3 296 295 245
3 245 295 244
3 295 293 244
3 293 292 244
3 294 246 243
3 297 246 294
3 247 296 245
3 299 249 298
3 249 297 298
3 249 246 297
3 300 299 298
3 299 250 249
3 252 250 299
3 300 252 299
3 301 252 300
3 303 253 302
3 253 301 302
3 253 252 301
3 304 303 302
3 303 254 253
3 256 254 303
3 304 256 303
3 305 256 304
3 307 257 306
3 257 305 306
3 257 256 305
3 308 307 306
3 307 258 257
3 259 258 307
3 308 259 307
3 309 259 308
3 309 310 259
3 259 310 260
3 262 260 310
3 262 310 311
3 314 313 312
3 311 315 262
3 262 315 264
3 265 264 315
3 265 315 316
3 314 312 266
3 267 314 266
3 317 314 267
3 320 319 318
3 318 321 320
3 324 323 322
3 324 322 319
3 319 322 318
3 322 269 318
3 269 270 318
3 325 321 318
3 270 325 318
3 271 325 270
3 327 326 273
3 326 271 273
3 326 325 271
3 327 328 326
3 322 323 275
3 323 274 275
3 323 329 274
3 322 275 269
3 276 327 273
3 330 328 327
3 276 330 327
3 277 330 276
3 277 279 330
3 330 279 331
3 329 280 274
3 332 280 329
3 333 331 279
3 333 279 281
3 281 283 333
3 333 283 334
3 332 284 280
3 335 284 332
3 336 334 283
3 336 283 285
3 285 287 336
3 336 287 337
3 335 338 284
3 284 338 288
3 290 288 338
3 290 338 339
3 340 337 287
3 340 287 291
3 291 293 340
3 340 293 341
3 339 294 290
3 342 294 339
3 343 341 293
3 343 293 295
3 345 297 344
3 297 342 344
3 297 294 342
3 346 345 344
3 345 298 297
3 300 298 345
3 346 300 345
3 347 300 346
3 347 301 300
3 348 301 347
3 348 349 301
3 301 349 302
3 304 302 349
3 304 349 350
3 352 305 351
3 305 350 351
3 305 304 350
3 353 352 351
3 352 306 305
3 355 354 308
3 355 308 306
3 353 355 306
3 352 353 306
3 356 354 355
3 357 309 354
3 354 309 308
3 354 356 358
3 354 358 357
3 357 310 309
3 360 359 311
3 360 311 310
3 358 360 310
3 357 358 310
3 361 359 360
3 363 362 313
3 363 313 314
3 359 315 311
3 365 364 316
3 365 316 315
3 361 365 315
3 359 361 315
3 367 366 364
3 367 364 365
3 367 363 366
3 363 317 366
3 363 314 317
3 369 368 320
3 320 368 319
3 371 370 321
3 370 320 321
3 370 369 320
3 371 372 370
3 373 323 324
3 374 373 324
3 319 374 324
3 368 374 319
3 325 371 321
3 375 372 371
3 325 375 371
3 326 375 325
3 377 376 328
3 376 326 328
3 376 375 326
3 377 378 376
3 379 329 373
3 373 329 323
3 373 374 380
3 373 380 379
3 330 377 328
3 382 381 331
3 331 381 330
3 381 378 330
3 378 377 330
3 382 383 381
3 384 332 379
3 379 332 329
3 379 380 385
3 379 385 384
3 333 382 331
3 387 386 334
3 334 386 333
3 386 383 333
3 383 382 333
3 387 388 386
3 389 335 384
3 384 335 332
3 384 385 390
3 384 390 389
3 336 387 334
3 336 337 387
3 337 388 387
3 337 391 388
3 389 338 335
3 339 338 389
3 390 339 389
3 392 339 390
3 393 391 337
3 393 337 340
3 340 341 393
3 393 341 394
3 392 342 339
3 395 342 392
3 396 394 341
3 396 341 343
3 395 397 342
3 342 397 344
3 346 344 397
3 346 397 398
3 400 347 399
3 347 398 399
3 347 346 398
3 401 400 399
3 402 348 400
3 400 348 347
3 400 401 403
3 400 403 402
3 402 349 348
3 405 404 350
3 405 350 349
3 403 405 349
3 402 403 349
3 406 404 405
3 404 351 350
3 353 351 404
3 406 353 404
3 407 353 406
3 407 408 353
3 353 408 355
3 356 355 408
3 356 408 409
3 412 411 410
3 414 358 413
3 358 409 413
3 358 356 409
3 415 414 413
3 412 410 416
3 412 416 417
3 414 360 358
3 419 418 361
3 419 361 360
3 415 419 360
3 414 415 360
3 421 420 418
3 421 418 419
3 420 421 417
3 420 417 416
3 363 420 416
3 362 363 416
3 418 365 361
3 365 418 367
3 367 418 420
3 367 420 363
3 422 368 369
3 422 369 423
3 369 424 423
3 369 370 424
3 426 425 372
3 425 370 372
3 425 424 370
3 426 427 425
3 429 428 422
3 428 368 422
3 428 374 368
3 429 422 423
3 375 426 372
3 430 427 426
3 375 430 426
3 376 430 375
3 376 378 430
3 430 378 431
3 428 380 374
3 432 380 428
3 433 431 378
3 433 378 381
3 381 383 433
3 433 383 434
3 432 385 380
3 435 385 432
3 383 386 436
3 437 383 436
3 434 383 437
3 388 436 386
3 435 390 385
3 438 390 435
3 439 437 436
3 388 391 436
3 391 440 436
3 440 439 436
3 440 391 441
3 441 442 440
3 444 392 443
3 392 438 443
3 392 390 438
3 445 444 443
3 393 441 391
3 393 394 441
3 394 442 441
3 394 446 442
3 447 395 444
3 444 395 392
3 444 445 448
3 444 448 447
3 394 396 449
3 450 394 449
3 446 394 450
3 447 397 395
3 452 451 398
3 452 398 397
3 448 452 397
3 447 448 397
3 453 451 452
3 454 450 449
3 451 399 398
3 401 399 451
3 453 401 451
3 455 401 453
3 457 403 456
3 403 455 456
3 403 401 455
3 458 457 456
3 461 460 459
3 457 405 403
3 463 462 406
3 463 406 405
3 458 463 405
3 457 458 405
3 464 462 463
3 461 459 465
3 461 465 466
3 467 407 462
3 462 407 406
3 462 464 468
3 462 468 467
3 466 465 469
3 466 469 470
3 467 408 407
3 472 471 409
3 472 409 408
3 468 472 408
3 467 468 408
3 473 471 472
3 470 469 411
3 412 470 411
3 474 470 412
3 471 413 409
3 476 475 415
3 476 415 413
3 473 476 413
3 471 473 413
3 478 477 475
3 478 475 476
3 478 474 477
3 474 417 477
3 474 412 417
3 475 419 415
3 419 475 421
3 421 475 477
3 421 477 417
3 479 423 424
3 425 480 424
3 424 480 479
3 427 480 425
3 481 428 429
3 423 479 429
3 479 481 429
3 479 482 481
3 480 484 483
3 482 480 483
3 479 480 482
3 486 484 485
3 485 484 430
3 484 480 430
3 480 427 430
3 431 485 430
3 487 432 481
3 481 432 428
3 482 489 488
3 487 482 488
3 481 482 487
3 489 482 483
3 490 486 485
3 492 490 491
3 491 490 433
3 490 485 433
3 485 431 433
3 434 491 433
3 493 435 487
3 487 435 432
3 487 488 494
3 487 494 493
3 495 492 491
3 491 434 495
3 434 496 495
3 434 437 496
3 497 438 493
3 493 438 435
3 493 494 498
3 499 493 498
3 497 493 499
3 500 499 498
3 501 496 437
3 501 437 439
3 503 501 502
3 501 440 502
3 501 439 440
3 442 502 440
3 497 443 438
3 443 497 445
3 497 504 445
3 497 499 504
3 499 500 505
3 499 505 504
3 503 502 506
3 503 506 507
3 446 506 442
3 442 506 502
3 508 448 504
3 504 448 445
3 504 505 509
3 510 504 509
3 508 504 510
3 511 510 509
3 512 507 506
3 506 446 512
3 446 513 512
3 446 450 513
3 508 452 448
3 452 508 453
3 508 514 453
3 508 510 514
3 510 511 515
3 510 515 514
3 450 454 516
3 517 450 516
3 513 450 517
3 518 455 514
3 514 455 453
3 514 515 519
3 520 514 519
3 518 514 520
3 521 520 519
3 524 523 522
3 522 523 517
3 516 522 517
3 525 522 516
3 518 456 455
3 456 518 458
3 518 526 458
3 518 520 526
3 520 521 527
3 528 520 527
3 526 520 528
3 529 528 527
3 524 522 530
3 524 530 531
3 461 530 460
3 530 525 460
3 530 522 525
3 526 463 458
3 463 526 464
3 526 532 464
3 526 528 532
3 528 529 533
3 534 528 533
3 532 528 534
3 534 533 531
3 530 534 531
3 535 534 530
3 466 535 461
3 461 535 530
3 536 468 532
3 532 468 464
3 537 532 534
3 536 532 537
3 538 534 535
3 537 534 538
3 470 538 466
3 466 538 535
3 536 472 468
3 472 536 473
3 536 539 473
3 536 537 539
3 540 537 538
3 539 537 540
3 474 540 470
3 470 540 538
3 539 476 473
3 476 539 478
3 478 539 540
3 478 540 474
3 542 541 484
3 484 541 483
3 484 486 542
3 542 486 543
3 544 488 489
3 545 544 489
3 483 545 489
3 541 545 483
3 546 543 486
3 546 486 490
3 490 492 546
3 546 492 547
3 548 494 544
3 544 494 488
3 544 545 549
3 550 544 549
3 548 544 550
3 551 550 549
3 552 547 492
3 552 492 495
3 495 496 552
3 552 496 553
3 548 498 494
3 498 548 500
3 548 554 500
3 548 550 554
3 550 551 555
3 550 555 554
3 496 501 556
3 557 496 556
3 553 496 557
3 503 556 501
3 558 505 554
3 554 505 500
3 554 555 559
3 554 559 558
3 560 557 556
3 556 503 560
3 503 561 560
3 503 507 561
3 558 509 505
3 511 509 558
3 559 511 558
3 562 511 559
3 507 512 563
3 564 507 563
3 561 507 564
3 513 563 512
3 566 515 565
3 515 562 565
3 515 511 562
3 567 566 565
3 564 563 568
3 564 568 569
3 517 568 513
3 513 568 563
3 566 519 515
3 571 570 521
3 571 521 519
3 567 571 519
3 566 567 519
3 572 570 571
3 569 568 523
3 524 569 523
3 573 569 524
3 523 568 517
3 570 527 521
3 575 574 529
3 575 529 527
3 572 575 527
3 570 572 527
3 575 573 574
3 573 531 574
3 573 524 531
3 574 533 529
3 533 574 531