OFF
983 1910 0
1.3943901802 8.8220006161 4.8788270004
1.5220792714 8.8580216616 4.4560264682
1.5971426649 8.5698639346 4.5477252726
1.5859600743 8.2836640309 5.1339957854
1.3056325120 8.7929346335 5.5500544417
1.4880563670 8.3364115964 5.9505192695
1.3180820353 8.8248901041 6.1335775662
1.5074358170 8.5812360175 6.5104287757
1.5267144970 9.2943944220 4.5418203473
1.3184050656 9.2944268449 5.2454225854
1.4843140818 9.7398251638 4.9981097814
1.2967337576 9.2811159162 5.9316292618
1.4617521326 9.1552531247 6.5565039830
1.4570652280 9.8173843780 5.6530217567
1.4945271443 9.7064623634 6.3188385089
1.8381172821 7.7659743649 5.6953787100
1.9725551060 7.7648546133 5.0081312473
2.2098678085 7.3159981667 5.3724755501
2.1997349875 7.2239989480 6.1374130229
1.8287214827 7.9467958361 6.5589199349
2.2441815477 7.3204524486 6.9898134324
2.0576718511 7.9514975429 7.2826684302
2.3553010500 7.5916575813 7.6612230301
1.8317942865 8.8764252273 4.0765843063
1.9391500301 8.2013407023 4.4319265518
1.8174015441 8.7158135494 7.1446081715
2.2480419542 8.3559432182 7.8752231693
1.9233662277 9.6692286745 3.9356508078
2.2911459259 9.8361290022 3.3690784788
2.1950914568 9.2605117330 3.4874524561
1.6916519176 9.8815162015 4.5362533259
1.8141079153 9.7487904586 7.0434607162
2.1746892088 9.3367230572 7.8765338814
2.2059443990 10.2186577581 3.6910781317
2.0057540664 10.3121786135 4.2745049690
2.3631190259 10.6888616364 3.9175262279
1.8046945448 10.3364383170 5.1409335507
1.8266754752 10.3679182746 6.2634410343
2.0604952812 10.5196797988 7.1034584991
2.2322599105 10.2762479734 7.7754389449
2.3061426764 10.9377262031 4.6604048914
2.2544246612 11.0815377071 5.7178054482
2.2840495839 11.1036718903 6.7727376220
2.3459943372 10.9394985172 7.5330460431
2.9951679919 5.9776819757 6.7314657527
3.1695003005 5.7493848640 5.8577551525
3.4043653888 5.2993573267 6.4022150439
3.5139375085 5.1935636669 7.3038536045
3.1474753779 5.9233434301 7.7975533840
3.4750831131 5.4241576843 8.0693224580
3.3546147829 5.8571092038 8.4218949582
3.6502845875 5.4773201934 8.5317444748
2.9756037103 6.7112824531 4.3780072960
3.2363097183 6.7538448719 3.6696794612
3.3810671198 6.1915010721 4.1645793389
3.2613884316 5.9283864155 5.0011074250
2.7058000698 6.5889120328 5.5655377245
2.5406123849 6.7222684804 6.6034199064
2.6940750703 6.7915715998 7.5605778832
3.1364666149 6.6187483147 8.5606770087
3.6283558126 6.0205845539 8.9630266161
2.9262499691 7.5055504271 3.4615443349
3.2349231894 7.6700342326 2.6956276112
3.3244179686 7.0988495601 3.0879439620
2.4333266705 7.4724388287 4.5119117056
2.7269970281 7.7297250701 8.4410153119
3.5088797621 6.7051859436 9.2413950028
3.3028150511 7.4454507768 9.2651468172
3.9040355487 6.9982410813 9.7464196593
3.0021858386 8.4536746566 2.5797098274
3.3855286295 8.5707104295 1.8751562681
3.3902212124 8.0135294266 2.1778017196
2.4052660557 8.4533138420 3.5692841126
2.5935583995 8.9177767912 8.6061038722
3.1016932058 8.5039583361 9.3241361354
3.8342412771 8.0488952384 10.0671214786
3.2545746085 9.3650417928 1.9028887376
3.8480716897 9.4606521141 1.2985925975
3.6878568614 8.8311639926 1.4775271780
2.6641121010 9.4837068682 2.8424791567
2.5654402946 9.9788533495 8.5586919606
2.9791539014 9.6061999339 9.3223945121
3.5030104125 9.2206555824 10.0319561316
3.4993824071 10.0659578499 1.6007637832
4.0404594548 10.2010913377 1.2927783147
3.1399448692 10.3779701780 2.2620989036
2.6304595899 10.4791796702 3.2192880423
2.6363662785 11.0038250788 8.3119183508
2.9681811481 10.6597283111 9.1999608532
3.3908695925 10.2833356524 9.9632383379
3.6205587970 10.6062466736 1.7062225500
3.5775379145 11.0849063764 2.1489837636
3.1839043564 11.1586731034 2.8727233425
3.6494213586 11.5403993844 2.5925820332
2.8625971081 11.3213691944 3.9083068790
2.7876498708 11.6683157197 5.1139683991
2.7550934371 11.8630760775 6.3780847894
2.6792118035 11.6439406480 7.5682981225
2.8277610442 11.6825115064 8.3094725163
3.0545769064 11.6619452932 8.9598691547
3.3877638678 11.2994721610 9.7940058928
3.5527196464 11.8003570773 3.2989742070
3.4885323748 12.2187412581 4.4106721937
3.2530817614 12.4015871758 5.6558071948
3.1801309692 12.5424472652 6.5284139571
3.0522116203 12.4026142687 7.2724507222
3.3871124756 12.9183847073 7.0276962002
3.0751710994 12.2717924870 8.2487177340
3.3034341273 12.3831407389 8.9929738276
3.4260211086 12.0775301137 9.5328960890
3.4136507874 12.9562450832 7.8197090773
3.4387190136 12.8404226707 8.6155718394
4.0813027973 4.5826810733 5.5081296357
4.4441260127 4.3813559578 4.8873890118
4.4524512777 4.1204151315 5.4815055492
4.4352394822 4.0388500331 6.1067060767
3.8896073919 4.6539982606 6.4912917057
4.4117988090 4.0575636045 7.0594166155
3.9938641398 4.5695674910 7.3837025691
4.3607302220 4.2869881235 7.8257395697
4.2515195299 5.5117629242 3.4001118825
4.7304744781 5.4490128135 2.8060367277
4.7178427631 4.9572213254 3.3696460220
4.5158165120 4.7488655125 4.0270225402
3.8681170701 5.3368032846 4.4826844253
3.5871728694 5.2134612601 5.6189241624
3.9258566493 4.9208020795 8.1207026414
4.0714938020 5.3105401906 8.8648650473
4.2578035732 6.3063598195 2.5122801077
4.6619699907 6.5131606097 1.8850699647
4.8789704220 5.9094205585 2.2124844898
3.6793629287 6.3407148425 3.3636102014
4.1283001446 5.8236588899 9.3415791072
3.8951062193 6.3628905100 9.4686542552
4.5736307025 6.1292202966 9.8404010380
4.2562154064 7.1374011271 1.8039368779
4.5011298226 7.6557857511 1.3306986657
4.8854214632 6.9578279527 1.4422265620
3.6742257662 7.2399459513 2.4180329671
4.6893409771 7.1098143552 10.3973284615
3.8513912694 8.0256917621 1.6612398679
4.4170008905 8.5287446449 1.1383355339
4.6586390614 8.0138835058 10.8405226479
4.1214421825 8.9045776926 10.6825148994
4.6678833855 8.7283419041 11.1783184775
4.6417101579 9.4569364959 0.9901453216
3.9078401511 9.8892033895 10.6366946975
4.4833499054 9.4869652824 11.2099304135
4.8696155160 10.2807338675 1.1092760051
3.8386851855 10.9262472934 10.5380669744
4.3736690116 10.4686879178 11.2149951673
4.2279659259 10.9523814970 1.6161448896
4.0126539763 11.4690940907 2.1519648248
4.6841895841 11.5774246599 1.9948676255
3.8530270971 12.0379958284 10.2677265935
4.3216499132 11.5053438276 11.1085512273
4.1583295759 11.8835520171 2.6547575649
4.2046998420 12.3956465798 3.4930195873
4.0891053553 12.7648590745 4.2752078896
4.4141867212 12.8401156173 3.8997955139
3.8862298103 12.9931800043 5.2257281283
3.5775576716 13.0102725422 6.2961389837
3.7034454661 12.8166937511 9.4091254964
4.1295691722 12.9949488470 10.2224116240
4.3852508977 12.4881181581 10.9620136850
4.6022352294 13.3005323471 4.4608515570
4.3359209808 13.5866309166 5.3997116940
4.0642044591 13.5630299607 6.1351238618
4.4962390805 13.9885805800 5.9407622195
3.8455234617 13.5077868305 7.1945081807
3.8751935006 13.4929597608 8.4825973529
4.1417281632 13.5753722084 9.5224559795
4.3956783958 13.6237176566 10.2177956771
4.5083857576 13.2604381397 10.7655012590
4.4256574538 14.1217007426 6.7525143774
4.3778778348 14.1831571042 7.8240737623
4.4411023349 14.1858461525 8.9205415621
4.5296435301 14.0721625193 9.7905448063
4.9851161631 3.6451244602 5.4357192504
5.3988991466 3.5256709612 4.6965995039
5.7279220705 3.0793891173 5.1336382248
5.7193818360 2.8183066352 6.1387920730
4.9866437562 3.4638306993 6.6425982584
5.5994723685 2.8676079282 7.2746544441
4.9817387075 3.6407533179 7.8130652442
5.8427191773 2.9274230064 8.3600222454
5.2953124657 3.7263340839 8.7691294359
5.7588325765 3.3641264946 9.0333101992
5.0717067594 4.3908300207 3.6928462300
5.2155912965 4.7775306680 3.0524482490
5.5862331145 4.2146069029 3.3787703154
5.5881409007 3.7530152372 4.0235017660
4.9709162904 4.0454528325 4.4458294462
4.6176632038 4.4702394207 8.6138940471
5.5849124071 3.7877741271 9.2806180032
5.2226403255 4.3793377584 9.3055500898
5.8760457518 4.0864307019 9.6666576106
5.3019848431 5.2806592121 2.4664565710
4.6579317650 5.2058189657 9.3529421494
5.5042803273 5.0842796927 9.9183880365
5.2653497331 6.1689293886 1.7303572589
5.2881623230 5.6950637232 2.0836852569
5.5288925814 6.1185799211 10.4445381153
5.3302397265 7.5043687339 1.0478003854
5.5427538704 6.6434924162 1.2890486795
5.6290978096 6.8621862785 10.9030202733
5.0501971208 7.4086101927 10.8405350806
5.3979618342 7.5893277180 11.1939036134
5.4430685064 8.5305234000 0.8382498884
5.2034145887 8.2541781978 11.4184628810
5.1099081597 9.0144022878 11.6431975733
5.7985205386 8.4220308945 11.9081722755
5.6109707942 9.4630984509 0.8335434416
4.9849040402 9.9436476739 11.7704439386
5.7566178573 9.3197045413 12.2273973776
5.8405133150 10.2850966694 1.0130712833
4.9191190433 11.0592237414 11.8469591451
5.4961154605 10.3408168262 12.3174720128
5.2039075162 10.9987852925 1.4142200002
5.6562463257 11.6333263240 1.8431417103
4.7396407276 12.0221268777 11.5883911792
5.4781344317 11.1252230460 12.4363907483
5.2796885080 12.0067448175 12.2370958971
5.9654597597 11.5032437545 12.8400376462
5.0450945042 12.2321067405 2.6391823363
4.8755746195 12.8440253303 3.5046862139
5.7174800628 12.8354225296 3.0053907818
4.9498590357 13.0409121882 11.5860615163
5.4156252419 12.8491436037 12.3374811866
5.7146099913 12.4063135263 12.7008714540
5.4181285755 13.3722323426 3.7751553116
5.2803427319 13.9046679069 4.5368754031
5.9590699233 13.8921816084 4.0217698805
4.8138072142 13.9848244138 5.2745142081
4.8741912355 14.0540132459 10.6913174732
5.2273444983 13.9611689517 11.6083225729
5.4612921736 13.5786831671 12.2031042073
5.7950804434 14.2969227102 4.6200425369
5.4268893391 14.4320610820 5.2432442269
6.1592058371 14.7131464145 5.0860138197
5.0361856079 14.5098421642 6.1704940220
4.9368100406 14.6890845997 7.2793769083
4.9377684216 14.7641041721 8.3437433448
5.0128331915 14.7115818358 9.5674252939
5.3247077856 14.8658881967 10.5254732497
5.4411089934 14.6359314843 11.3348262015
5.6432798293 14.3360829095 12.0718337734
5.8582655550 14.9236877166 5.9275956297
5.6214806701 15.0772968144 6.8976920082
5.4361864264 15.1352002845 7.7833374641
5.6526433328 15.3502854294 8.7729255059
5.6829926537 15.3653265585 9.9665080250
5.9199420648 15.3463618545 11.0498488146
5.9951963336 14.9911204286 11.9342867630
6.1636589606 2.2845665022 6.9257706128
6.4660007437 2.1475076650 6.2457138103
6.5855025090 1.9294016033 6.8007912067
6.6970307427 1.8818686235 7.4138065654
6.1494205568 2.3578729248 7.7289653383
6.5714227473 2.1063293942 8.0633238966
6.2769554898 2.3949288221 8.2334070474
6.7020233544 2.3981293394 8.6370564736
5.8299351091 3.2672791692 4.5130921112
6.2728483496 3.2450323839 4.0961042709
6.2213772272 2.8974040897 4.7218513418
6.3373746973 2.5369257077 5.3938427512
6.3035880913 3.0503880951 9.1284452908
5.9796098243 3.5280390982 9.4070872035
6.5604196222 3.5179385544 9.6695610474
6.0323111794 4.4992350028 2.7571884720
6.0830232692 3.7959300575 3.5000700028
6.5977987630 4.3357468843 10.1491599361
5.8044653317 5.3910186901 2.0368625686
6.4907207079 5.2450350427 1.7722436794
6.3353873028 4.8739053894 2.1794705071
6.2678791413 5.2964316479 10.4616259937
6.0034898362 5.9635306083 1.4881772719
6.3493416734 6.5487829744 1.0699283018
6.6470556131 5.7341936478 1.3472181088
6.2390573344 5.9004913013 10.7340296231
6.0046721017 6.2961695383 10.8048306155
6.7093087474 6.2290155093 11.1497053235
6.3868093722 7.5578843294 0.8022889181
6.2360392741 7.1751451604 11.4663055024
5.8077979030 7.8216372586 11.6151536519
6.5147524084 7.7302778941 11.9692938130
6.4921599333 8.5411429210 0.7158787015
6.5551650212 8.4785313735 12.4015984399
6.6395447823 9.4763049448 0.7977662380
6.4330559082 9.1731708477 12.6399959512
6.1562924670 9.8942555905 12.6891175684
6.8930712657 9.3949621481 12.9303644767
6.7741900810 10.2837109212 1.0080731722
5.9139785635 10.6694857631 12.7148979809
6.6564788188 10.3976618904 13.0573558769
6.1781301141 10.9683439051 1.3198510698
6.7935418741 11.5687815624 1.6936608489
6.6784194905 11.3315008623 13.2547129489
6.1476230514 12.2607940746 2.3107981211
6.6223367984 12.8479275996 2.7032719296
5.8054209102 13.1533684623 12.7224861424
6.2003649675 12.4474697810 13.0848258036
6.2801303889 13.3819453331 3.3332221814
6.7836788817 13.9123005860 3.6720503646
5.9015084711 13.9701888486 12.6251171390
6.1862345576 13.5231947296 13.0239800608
6.4810622115 14.3771071301 4.3490604755
7.0300345512 14.8538381706 4.8321176969
6.0615095323 14.6090339523 12.4757044490
6.3004910514 14.3714705385 12.8764096707
6.7470383061 15.1481513842 5.6884260223
6.4812345947 15.3602600928 6.6351610980
6.2228851256 15.5266719289 7.7401125220
6.3772742862 15.7903033124 8.6686706356
7.0622577301 15.9404559402 8.2836533461
6.2575010649 15.8095784544 9.5043207617
6.3127283652 15.8129237920 10.4584709434
6.4989860564 15.8136785113 11.1989183162
6.5866385308 15.6006583819 11.8759370633
6.5436185340 15.1155347540 12.5556195721
6.9801565702 16.0872462070 9.2045824674
6.9360898869 16.1276571044 10.1287183057
6.9599413986 16.0873146259 10.9926690708
7.1543726934 1.6261673887 6.6734269520
7.5900020133 1.5546476915 5.9721995887
7.9866400659 1.2858047904 6.5409837201
7.8014718556 1.2891222356 7.2870918709
7.2876173461 1.5169993807 7.4992917550
7.6903909249 1.4062530600 7.8651301484
6.9927511868 2.5404069076 4.6059600403
7.6414768583 2.6581722053 3.9795276763
7.9244798405 2.1200973527 4.6004506853
7.6576144753 1.8236616547 5.2688412890
7.0149685691 1.9830575185 5.6684024536
7.2027580848 1.7817101530 8.1335078418
7.7316501740 2.0654706287 8.8413806282
6.9616528902 3.4348272864 3.3935876333
7.7079744680 3.6401723771 2.8086655044
8.0338816684 3.0325009150 3.4293632932
7.1634971319 2.8164189660 9.3539936353
7.5745237887 3.4780098087 10.0013252095
7.0429057789 4.4097911441 2.2792138069
7.7198502891 4.6271645749 1.8101520493
8.0679211239 4.0822100400 2.2744042251
7.4475877769 4.1876483939 10.4423848840
7.0701042462 4.8310421724 10.6316765723
7.7792946467 4.5204375914 10.7438276622
7.1687397191 5.1367028781 1.5675025281
7.2590485336 5.8163504173 1.1453840931
7.9253079374 5.1557160323 1.3947960201
6.7689550472 5.5004265656 10.8118301261
7.6154859197 5.2554815095 11.0470280069
7.3252411639 6.6520293257 0.8643091197
7.8348181388 5.9620853662 11.5197018986
7.4295062301 7.5993353275 0.7123519014
7.4585459029 6.8355994382 11.8781833919
7.2965374511 7.7354210218 12.3844236134
7.5504607896 8.5782019415 0.7071273975
7.2493429589 8.2857697840 12.6823369714
6.9437205628 8.7794347825 12.7621872026
7.6625220241 8.6080794552 12.9539401895
7.7267164838 9.5913963992 0.8618045635
7.6396922628 9.4716293390 13.2091868818
7.4574826985 10.4032372724 1.0846750307
6.9531771158 10.8551739851 1.2586872475
7.6570846630 10.9887978551 1.3601808263
7.4903911065 10.3444600868 13.3997801364
7.9553234978 11.8351831428 1.7813029219
7.1179551778 11.0887607723 13.4359889404
6.6176146741 12.0057769432 13.3258483629
7.0881529643 12.3515333164 2.2052063687
7.2071025024 12.8316061960 2.5378811749
6.3839229624 13.0182173538 13.2258727466
7.2939062819 13.3804596041 2.9723376373
7.3669082870 13.9354389156 3.4573293335
6.4048480811 13.9609817626 13.1151185351
7.4750204127 14.4442034503 3.9671259469
7.8087820522 14.9741377970 4.5811180991
6.6072981541 14.7641393741 12.9332463468
7.7773183416 15.3044194481 5.3953887616
7.4366144605 15.5224208544 6.3598394915
7.2178591766 15.7336326926 7.3231869094
8.0029720846 16.0558577115 7.9812704350
6.9469237418 15.9692140188 11.5936550253
7.1922116610 15.9376293270 12.0549412399
7.1631862713 15.7130718625 12.4617367467
7.0672989601 15.4236094573 12.7622195826
7.8664648482 16.2281802303 8.9361762589
7.7586947455 16.3147601822 9.9042503510
7.7069405735 16.2960706398 10.8540306148
7.6132193285 16.1662451649 11.7330829161
8.2001246063 1.4303215969 5.7835731028
8.7983934518 1.2266528065 6.3948547191
8.4148538306 1.1671882117 7.1124283239
8.3414300516 1.3170437569 7.8713238806
7.8633614209 1.5641817595 8.3064876477
8.3519765680 1.6335944074 8.5294649379
8.3857543043 2.4238016711 4.0927243176
8.6561314969 1.9165763381 4.7510469617
8.2675996990 1.6913440939 5.1445625932
8.6788162399 2.0175927094 9.0047982856
8.5873731521 3.4907737172 2.8897009366
9.0985927801 2.8561601644 3.7092233014
8.1785284719 2.6293093488 9.5117895197
8.8684525134 3.1641699137 10.0527254487
8.5066552761 4.5875827656 1.7979890462
9.0372876669 4.0585378191 2.3445769871
8.2439487131 3.9260292833 10.5063753352
8.5348987098 4.5438650279 10.9473250876
8.1313121135 5.8654853920 1.0481763591
8.8038608861 5.2248081333 1.3825304510
8.6590100021 5.2892861153 11.4204089828
8.3222579556 6.7304844448 0.8303392677
8.4819436244 5.9059175163 11.7417299704
8.1332841179 6.2660863800 11.8225486745
8.7805391798 6.3681626596 12.0987150494
8.4447221193 7.6876567914 0.7292414320
8.1899771817 7.2805222225 12.4644915721
7.7926291947 7.9290367354 12.7132712507
8.5154670004 7.8631380377 12.8731336535
8.5914484880 8.6293420506 0.7517738220
8.6159722415 8.6062342096 13.1851785649
8.9000787887 9.4959166304 0.8918840713
8.5450712559 9.3792439287 13.4294192700
8.2575225158 10.2851655624 1.0891853149
8.5969274144 11.0106857378 1.3717640593
8.1117501372 9.9738582875 13.5179640770
7.6000095467 10.5121204176 13.5078078606
8.9359483366 11.6728634936 1.6108266213
7.7952372936 12.7271469599 2.3341299741
8.8589745415 12.5688413930 1.9953756185
8.3445120870 13.3939610807 2.6076540783
7.9518415351 13.9847499220 3.2346644586
8.8714663521 14.1854642083 2.9147617412
8.3658932221 14.5492534587 3.5620390265
8.1998122141 14.8659651379 4.1109549592
8.7319263555 14.9791542456 3.8718923954
8.6846941699 15.3175178887 4.6391227539
8.6293260699 15.5772214330 5.5657649045
8.2364800988 15.6278767874 6.1335661685
8.2702365632 15.8605904848 7.0042687593
8.8335658310 16.1271061272 7.7228975250
7.6504714745 16.0266303738 12.3382911803
7.8603806650 15.9318332562 12.6645150625
8.9666451096 16.3109499647 8.6514664225
8.7256607065 16.4025344412 9.7137294653
8.6293366777 16.4033454519 10.7019145327
8.5405949973 16.3135215231 11.6474050251
8.3517421092 16.1708489453 12.3678911356
8.9706776995 16.1212980116 12.8502583623
8.8863219138 1.4937369926 5.4751253797
9.3667168345 1.5034739758 5.4753881699
9.3918803954 1.3634211179 5.9304370469
9.4651716703 1.2839479513 6.5908247184
9.1227803522 1.2591514502 7.3386596605
9.1074239595 1.5658437329 8.3161965887
9.6935560279 1.4820821996 7.7970252890
9.0784759973 2.2551915985 4.3944607464
9.3923828787 1.8308106261 5.0676010875
9.8479028558 1.7230038607 8.3270264211
9.6179629496 2.0652693401 8.9849866754
9.0533737428 2.4738286180 9.4960988200
9.9190635085 2.7020810341 9.6713296112
9.8059011394 3.5916566547 3.0770532407
10.0975175180 3.0439371470 3.8516558467
9.9162479899 2.4382356643 4.6231708616
9.8498814547 3.3189691341 10.2559954249
9.5967367499 4.7509182941 1.9022327976
9.8315190081 4.1972507227 2.4211965559
9.2522555805 3.8614600237 10.6345418394
9.6436630557 4.5716161011 11.1799121053
9.0543941737 5.9795295453 1.0882732734
9.5622791939 5.4451870912 1.4252427101
9.4794672006 5.2275200568 11.6106459421
9.0257175069 5.6765739933 11.7815192352
9.7211290382 5.6873460607 11.9396851098
9.3920234800 6.9379140142 0.9259491320
9.9786574812 6.3272531491 12.3416392184
9.2707372699 7.8912533971 0.7883839933
9.2311193821 7.0879255451 12.6290976117
9.5284847285 7.7935813662 13.0206830218
9.6212338354 8.6812581693 0.8341867921
9.7602185720 8.5217609323 13.3317282824
9.9494615321 9.6202146578 0.9398454770
9.3811774131 9.0480453437 13.4839786198
8.7052317459 9.5019917351 13.5271787890
9.2492350507 10.3055470890 1.1032176536
9.5505922454 11.1052233713 1.3404930288
9.7301581823 11.9573341935 1.5937071537
9.9794571767 12.9490351264 1.8304766626
9.2695637149 13.5229764179 2.3091762531
9.5854699871 14.2144402747 2.5106431954
8.9949178360 14.7804640818 3.3898500040
9.5727782439 14.8016757806 2.9775354365
9.4384798141 15.3001048216 3.7787679226
9.5753555041 15.6629519804 4.5629050857
9.3593600833 15.7517805093 5.3455949487
9.0651761529 15.8632007799 6.2970244576
9.1552088730 16.0551592983 7.1411443124
9.7507576590 16.1081018227 6.8113460421
9.5418162896 16.0719097112 13.1550156336
10.0111983855 15.9625382624 13.1979484069
9.6564547326 16.0701582455 13.0348364924
9.8639176430 16.2707422854 7.7956123197
9.9679023066 16.4039700974 8.8307103249
9.7068834862 16.4374373932 9.5848060458
9.6087557469 16.4193799469 10.5078770980
9.5495631651 16.3234401865 11.4901397428
9.4140098080 16.1797598880 12.4465663297
9.6695494919 1.5843749932 5.5948211422
9.9613086257 1.5679113299 6.2074403736
9.8867165599 1.4578565121 7.0907567550
10.0701187630 1.9310067293 5.4921962183
10.4994928955 1.9467384840 6.0908415436
10.5007945818 1.8048103741 6.8075231620
10.3768305764 1.7843741033 7.7475343746
10.3581175228 2.0239198808 8.5834389047
10.3248031798 2.3121729659 9.1439562309
10.8540355197 2.3222385020 8.8688746298
10.3734929543 3.3713913081 3.5391569597
10.6942179901 3.2511166824 3.8976560621
10.8831456716 2.9173754992 4.5933820144
10.8638169503 2.3903338201 5.6046562998
10.8623001312 2.6438009681 9.3976106138
10.8581967340 3.1913978994 10.0707773081
10.1589770707 4.5121602484 2.2764077846
10.6439100449 4.3317550564 2.7281520267
11.0305228148 3.7172684995 3.5466194172
10.3301079752 3.8286705800 10.6857136358
10.8613931915 4.4013878955 11.1724128079
9.9539306817 6.1255156048 1.2815184911
10.3111991620 5.5157984860 1.7197096734
10.5832073684 4.9600569273 2.2005599628
10.3104258120 5.0510651510 11.6195661566
10.7105533746 5.6311169798 12.0258330209
10.2965354287 6.8427888138 1.1727518062
10.9679083252 6.4273510739 1.6111810757
11.0608156816 6.2971002838 12.4172280257
10.2128655455 7.7486147843 0.9707990013
10.8675202506 7.2517362887 1.2622455653
10.3218688354 7.0236322242 12.7483681480
10.6580597958 7.7317420933 13.0873839330
10.7555196685 8.9218855525 0.9583818515
11.0852092759 8.3346195602 13.3257237065
10.9125649142 10.0284255628 0.9783606069
10.4494367406 8.6767469584 13.4455875956
10.2114162094 10.4991243563 1.1019534707
10.5251704850 11.3956331043 1.2888083198
10.4766818006 12.2257400338 1.5126215986
10.7936223199 12.8346067543 1.5559308846
9.9611951964 13.8339673641 2.1367447154
10.7131020746 13.7842043290 1.7813460876
10.2590526719 14.6575243858 2.3640622160
10.9952033719 14.8214324967 1.8673766892
10.7547270090 15.3847942340 2.3715123351
11.2381031474 15.5808792435 1.9471305000
10.3167187863 15.5013185372 3.1124030207
10.2247468848 15.8347175252 4.1048618126
10.1593354421 15.9730021387 5.0276727486
9.9852576673 16.0386691600 5.9845961066
10.5078959477 15.7753589783 13.1812540045
10.3475699313 15.8954130070 12.9241109863
11.1168343354 15.9942339631 2.7513900388
10.9623975512 16.1043763166 3.6897712209
10.9175337996 16.1625750444 4.6060491042
10.8559939734 16.1786067043 5.6138985648
10.6582852088 16.2219909096 6.7879783330
10.9080975616 16.3070084322 7.7808753846
10.7341274192 16.3726930908 8.6000020053
10.6109812181 16.4082366060 9.4772047224
10.4118597498 16.3951602046 10.2260428484
10.6381954954 16.2376189233 11.1392829148
10.4334890596 16.0625002252 12.1593890705
10.9758115378 2.1477147261 6.4716516144
11.1166688060 2.1349319564 7.2881142513
11.0512025142 2.1951753147 8.2134883724
11.2314349258 3.3099936903 4.1941799441
11.6325479047 3.1757433592 4.7253944994
11.8647101899 2.8913305431 5.5107509160
11.7889578595 2.5154703447 6.6601767959
11.8547944248 2.4724472669 7.8450454431
11.6215483699 2.5924532195 8.8470620288
11.5607962432 2.9219042077 9.5754398278
11.9823230832 3.3239903345 10.0460379654
11.5354730620 4.3977624447 3.1601141361
12.1223817802 4.1201507898 3.7201520586
12.0210988755 3.5550179791 4.3630228922
11.4411245439 3.7951838401 10.6365403013
11.9684651353 4.3601751430 11.1151647358
11.1301635109 5.6892403025 2.0676133201
11.6454232778 5.1762639268 2.6509741766
11.3633185031 4.9743112135 11.6172100958
11.7674922479 5.6117105114 12.0226798014
11.4740883813 6.1847491900 1.9882536314
11.7766682471 5.9618819149 2.2601885775
12.1226549194 6.3035077501 12.3866903186
11.2042336991 8.0547743827 1.1702453738
11.6338097531 7.3818357200 1.5191251877
12.0220534201 6.6655235569 1.9911626142
11.4183421261 7.0065362793 12.7697566987
11.8040112318 7.7409135336 13.0632493745
11.6130310278 8.8340812413 1.1073788840
12.1821771417 8.3751831444 1.3760283773
12.3036358278 8.5550145357 13.2827803405
11.7774974914 9.7331261156 1.0136540349
12.2259562358 9.1902519460 1.1751216131
11.5700858131 8.7033670683 13.4273406097
10.9669371993 10.7785893137 1.0791190285
11.7261752498 10.8202790541 1.0068384085
11.2952163893 11.3319731722 1.1335338426
11.2372180678 12.1333766010 1.2898875965
11.4455031057 13.1433161933 1.3764309382
11.5296962334 14.1519497805 1.4406357872
11.6093967054 15.0486041341 1.4666112873
11.1621386212 15.4717815725 13.0623175794
11.8482380712 14.9892063901 13.1246978175
11.9049589531 15.0925809723 12.9049697110
11.7430184044 15.6710006564 1.4456820603
12.3744734272 15.6198837748 1.0535605631
12.1277599567 15.2044551285 1.1614382545
11.3662748662 15.8677133360 11.8448433114
12.1504462182 15.7020877646 11.3838281500
11.5539937189 16.0362733599 11.1185165832
11.2246874328 15.6352673327 12.6156573280
12.1380159274 15.3242814303 12.2413858316
11.9944238693 15.9243067660 1.3121737939
12.6849406646 15.8766663479 0.9638735533
11.4759004107 16.0163894944 2.0187812044
11.5488116863 16.3211379916 2.8742996109
11.7094620518 16.3616775791 3.5334029225
11.5266832639 16.3069548918 4.2179648565
11.7578690215 16.2356410714 5.0869780847
11.6213741750 16.1853172155 6.2317499052
11.6017973620 16.2033211711 7.3143777582
11.6629899547 16.2395307975 8.4161970937
11.3424184608 16.3204538851 9.2461227245
11.4163525557 16.2259289864 10.2279796589
12.2222350431 3.2357279228 5.0444108673
12.7011912276 3.1337994841 5.5753033648
12.9481226976 2.9097919910 6.4453825312
12.7680553156 2.7273697349 7.5217976956
12.6212762266 2.7733910772 8.5032887598
12.3946649440 2.9903563185 9.3609481838
12.9628068278 3.3906852202 9.8846690306
12.3017101713 4.7360519851 3.2756397588
12.8487878154 4.4595668575 3.7399744606
13.0885953543 3.9654522648 4.3626241320
12.9056732428 3.4456507268 5.0535231473
12.5298891147 3.8223146956 10.5294549618
13.0152050070 4.3666572574 10.9617645470
12.6118300463 5.3333134403 3.0053942532
13.1319241109 4.9964655956 3.4397302024
12.4535728363 4.9636106810 11.5253656182
12.8157427511 5.6485613356 11.9210409053
12.6258889123 6.0635113762 2.5617144151
13.4205961942 5.6927685589 3.0877262899
13.1066362073 6.3467351972 12.2583701304
12.5914356625 7.6145333721 1.7684373653
13.1049284902 7.0147984414 2.2044422035
12.5086359612 7.0283330269 12.6776696255
12.8642164053 7.8239807300 12.9358949149
13.0191289174 8.3609919884 1.6170470245
13.1727368047 8.5756232007 13.1076338704
12.5695149659 9.7925272510 1.1249009207
13.0861441949 9.2353144412 1.3818923236
12.5080536799 9.1426890016 13.4164179836
13.2345484765 9.4947566308 13.2689822227
12.6661435616 10.6554918545 1.0263358097
13.1525405633 10.1159822309 1.1888282647
13.0297852187 9.7008199414 13.4147007800
11.7979462112 11.6719302619 1.0830723461
12.4504873680 11.6637465829 0.9947609432
12.0362011374 12.4611257969 1.1171886894
12.8228290652 12.6605685546 0.9813194350
12.1922999955 13.4578152934 1.1371419558
12.9448219916 13.7315047366 0.9578379042
12.5270919822 14.4584119750 13.0672937720
13.2272358516 13.5450288906 13.1341483187
13.1387822518 14.0213794733 12.9272850658
12.2122289356 14.4527793874 1.1431697393
12.8975522455 14.8343952699 0.9388101867
12.6201705856 14.7072013503 12.7168621202
13.2751118754 14.3997989102 12.4447850224
12.8340265994 14.9104654920 12.2236823232
13.1649317368 15.5562722979 0.8755498403
12.4718690342 16.0309930476 5.8016390705
13.3439033224 15.7565141146 5.3269455712
12.6172999650 16.1241354794 4.9460557148
12.3716579179 16.0029545564 6.8474140801
13.1352718469 15.7080633180 6.4359105360
12.3574283143 16.0193846742 7.8665817297
13.0459627197 15.7075032799 7.4863000272
12.4131992123 16.0299716559 8.6727640982
12.9696163034 15.7482123205 8.4808046936
12.7761887473 15.8556958906 9.1708852596
12.0702862043 15.9518859593 10.7312769433
12.7612157538 15.6248930792 10.5608809123
12.2741936509 15.9875983311 10.1676100482
12.8971103640 15.2096113078 11.5276454967
13.4778820354 15.8896025158 0.9105675260
11.9545195864 16.4580803513 3.3607324731
12.5843146536 16.3791540865 3.7773275813
12.2511495540 16.3138936892 4.2892876169
12.1343059533 16.1117431977 9.4013387129
13.5164925850 3.2364899586 5.8022114366
14.0736528237 3.0892136686 6.6124462396
13.7436398407 2.9462744043 7.4252750135
13.4381572704 2.9152444095 8.2066915670
13.4103437894 3.1296191491 9.1085970193
13.5806375553 3.4278558276 9.7259078332
13.6676874588 4.5730443785 3.9710194875
14.2198181505 4.1340283984 4.6171302620
13.8528899015 3.6276555291 5.1755783796
13.6192398865 3.8702454774 10.2650231928
13.6653117804 4.3727797462 10.7958616726
14.0255385600 5.2483993174 3.5926799818
13.6487055516 4.9839196399 11.2252016120
13.6776625075 5.8288151287 11.8075922525
13.8384192412 6.5556591721 2.6953452573
14.3421781614 5.9693979840 3.2345417267
13.7216644047 6.3476318002 12.0884601797
13.5967563813 7.8930235136 1.9397963277
13.9198547246 7.2904563250 2.2979142225
13.6917784847 7.0555394998 12.3581652714
13.7078076850 8.0826382314 12.7642453796
13.6373323562 8.6587999128 1.6814451032
13.7970716191 8.9670231681 12.9472663413
13.9880136070 9.2106993086 1.6263427714
13.9297207772 9.7996904077 12.9870712325
13.4910019018 10.7378660336 1.1503053908
13.9586400421 10.0670331058 1.4336412902
13.4315145457 10.3660727384 13.3349098254
13.8469218241 10.7251975295 13.0946188213
13.4065236841 11.6859470056 1.0326887464
14.1926053285 11.0873659365 1.3182695281
13.6944067503 11.4335261250 13.2438598629
13.9144855995 12.0178584849 13.0098153545
13.6549608026 12.8740638258 0.9777607990
13.6214827667 12.5490365792 13.1813181607
13.6720929747 13.1711415745 12.9390618182
13.7357419165 13.9515050956 0.9380712123
13.5692659982 13.8322992795 12.7070887769
13.8041628061 14.9080716981 0.9152170574
13.2572478245 14.7828206777 11.9320981552
13.7063059183 14.3895857752 11.8726014899
13.5051430160 14.8210214934 11.4437967523
13.7726953685 13.9855097963 12.3227566335
13.9596652591 15.6160211757 0.9611902100
13.2472292149 16.0864105040 4.2878499001
14.0498047879 15.5375995729 4.5207459124
14.1583405159 15.8649318099 3.7019025991
14.0714953355 15.3229717599 5.2765542511
13.8655432312 15.3318409416 6.0799003314
13.7474578095 15.3208187718 7.1008311419
13.6525628676 15.3283996708 8.1915689154
12.7252515312 15.8302686242 9.7727387590
13.4054854599 15.3870485194 9.4802087169
13.5085518393 15.0538894345 10.7058304677
14.2307266299 16.0341957448 1.1967735993
13.7104328247 16.2614158736 3.5216996132
14.3820593589 16.1848575550 2.9284528150
14.1779946246 16.3739981754 2.9439093548
14.4561129352 3.3850995370 5.9483741332
14.9272602401 3.2807018099 6.7218399994
14.5447979241 3.1188194061 7.3415305935
14.3798551858 3.2402385367 8.3691153436
14.1038650036 3.5038577086 9.4533363821
14.7510847989 3.6953849799 9.1633180533
14.7025515343 4.7917465894 4.1899700921
15.0921288642 4.2915569961 4.8347054447
14.7857444797 3.8049591735 5.3418850668
14.4940899345 3.9823076140 9.8661823179
14.2055195884 4.3948854946 10.5137585537
14.7241041613 4.3815586057 10.1298217536
14.8844946909 5.5784252585 3.7315101489
14.7730726409 4.9857991300 10.5443940746
14.2943937783 5.5431114878 11.3197031139
14.8658482338 5.8064184913 11.0852322690
14.7915746536 6.6376679316 2.9964574883
15.0293374801 6.1759492244 3.4012234742
14.3145583728 6.2535311904 11.7149519090
14.8829509621 6.3272750899 11.3674462397
14.3471448128 7.7772348827 2.1921579253
14.5880854573 7.2465571340 2.5540872279
14.8364651909 7.0467230116 11.6645795967
14.3197446900 7.7210321906 12.3162242519
14.8918210406 8.0745420112 11.9753099684
14.4135312281 8.5382202751 1.9511929882
15.0013241919 7.9602101691 2.3883405031
14.3491776913 8.5122658977 12.5230919897
14.8860257893 8.9850514884 12.1361297467
14.7273153136 9.4693525646 1.8410446750
14.3828202784 9.4152637893 12.6325137553
14.8630003381 9.9177667209 12.1958263558
14.9478586791 10.4988784449 1.8104765094
14.3857672824 10.3798121127 12.6703404567
14.8453388712 10.9192113918 12.1448935147
14.3102516635 12.0838445308 1.2377768254
14.8414899743 11.4555897454 1.6157439865
14.3588775743 11.4624762698 12.6316180729
14.7816163473 11.9591092886 12.0238674207
14.4242470594 13.1387303878 1.1979267907
14.2577942897 12.6741750967 12.4581471246
14.6869426459 12.8087922745 11.8056478355
14.4567276054 14.1745362290 1.1538120107
14.5565287963 13.9449001370 10.8161379506
14.9609362159 13.5430768299 10.5269095112
14.7929315250 13.9792790270 10.1296284449
14.2576004087 13.6571499453 11.8009688554
14.8407905067 13.2359666741 11.1713701265
13.9321852582 13.4892281467 12.5151410081
14.4854873768 15.0741971844 1.1621856824
14.6191206515 15.0008699034 4.8093876478
15.0365218537 14.6630112835 4.5000604649
14.8641982701 15.0164941541 3.7586524938
14.5226024213 14.9143298859 5.6918123725
15.1376003375 14.4366399824 5.1716764945
14.4162339634 14.8875853877 6.6695753216
15.0292476537 14.4174215443 6.1958376447
14.3438656263 14.8575276148 7.7262823019
14.9623077362 14.3687428989 7.2232217046
14.2650465187 14.7983179488 8.8525020277
14.9106687962 14.2745096696 8.2975339284
14.2376407772 14.5786088866 10.0646305955
14.8377574834 14.1454645946 9.3494787777
14.0029111755 14.4513535341 11.1251761165
14.5382064489 15.7426406193 1.2694420104
14.6565631376 15.7349861102 3.1768902011
14.5896746596 16.1116764783 1.5305633306
14.5097464360 16.2767165481 1.7543437097
14.4471442092 16.3582239372 2.4107236516
14.6706891588 16.1463704179 2.1211030860
14.7661694031 15.8972963781 2.6360990956
15.2604485425 3.6250502983 6.1173982136
15.5153604843 3.5509356288 6.8148179348
15.2500132920 3.4343215893 7.5709222488
15.2389411453 3.7350953751 8.5439701933
15.7523180752 3.9535499838 7.9806953296
15.3872396741 4.7192449410 4.5752097497
15.6355505282 4.5371140368 5.0337713117
15.5243153322 4.1342849855 5.5412059975
15.6635605638 4.2013953689 8.6758507155
15.9757121518 4.4998675678 8.3482610106
15.1884802083 4.3166379901 9.4886195531
15.4502270759 5.2889429376 4.2896248136
15.7813863413 4.9841426113 4.8260458141
15.8150932288 4.7846428442 9.0507415522
15.5287435725 5.1361100054 9.8576840351
15.3102457357 5.5914346840 10.5091725715
15.7520882694 5.8700864711 10.0971489813
15.3676374300 6.6313169741 3.3145396324
15.5911654331 6.1627608183 3.8837418727
15.3491928900 6.3069525960 10.8810679152
15.8399473302 6.5582478300 10.3497849230
15.3797803667 7.3284349799 2.9454834643
15.7861709465 6.9571255394 3.5414442591
15.5896227876 7.1247292448 10.9372600238
15.3493130199 7.7399421994 11.4290552102
15.7961737005 7.9589484292 10.8748065337
15.2772327134 8.7883281181 2.2765981818
15.6186786923 8.1596074743 2.7216925477
15.4245338501 8.6349948697 11.4750412288
15.8753000692 8.7492386459 10.8256772179
15.4933348117 9.6919793905 2.2583502694
15.6873038906 9.6145534900 11.0619591077
16.0788480992 9.2718071697 10.4136132361
16.0441101940 10.1526638627 10.3058014852
15.2549983274 9.4867151917 11.7302627210
15.6246054527 10.4499842710 2.3199858847
15.4950224579 11.3563003752 2.2804584986
15.9064855151 10.7824022350 2.7176171406
15.6588117903 10.7548483943 10.8770902339
15.9777087031 11.1484681740 10.1032766071
15.2836895120 10.3462647024 11.6097710904
15.0428503639 12.3870821584 1.7603759303
15.5187240777 12.2956291667 2.4503889593
15.9411393785 11.3066742166 2.9479746256
15.8178149308 11.9556798824 2.9616870451
16.0884646961 11.6799513386 3.4456099104
15.5676103806 11.8984533850 10.5788091868
15.9135567722 11.9249155806 9.8156847572
15.2365246498 11.3880404369 11.4621786815
14.9790531950 13.5387065820 1.6499424974
15.3647761693 13.1394730965 2.3557954917
15.6893993933 12.8130023129 3.0653493910
15.9994602877 12.4002038481 3.6543635915
15.6330815506 12.7111685228 9.7224393897
16.0053344688 12.2727044508 9.2818083959
15.8681195208 12.7990621129 8.9352341933
15.2478030332 12.9026083005 10.5586890683
15.0970787519 12.3858187724 11.3106495852
14.9340860442 14.5194638627 1.6011820206
15.2315534525 14.1058321746 2.2632981892
15.4144860923 13.8807520113 3.1919668926
15.7993635594 13.2503722658 3.8651125852
15.5545836492 13.9210519955 5.7557023830
15.8925332973 13.4820318521 5.3585653866
15.6245086385 13.8962352203 5.0398476731
15.5085733785 13.8543032003 6.7003739850
15.9529540010 13.3017586763 6.1295615364
15.4670226918 13.7475602165 7.7421347594
15.9411942660 13.2002825024 7.1677935450
15.4294833977 13.5017072439 8.8768987693
15.8930725978 13.0588084023 8.1668217667
15.1833684899 13.4974641596 9.8720369610
14.8741303069 15.3345235910 1.6087899960
15.0985053161 14.9616511885 2.1783684532
15.1767848397 14.6849705948 2.8293342891
15.4356313287 14.1045990802 4.3042915024
14.7863038525 15.8685829547 1.6751029513
14.9310318412 15.6543413656 2.1447594505
14.9720485631 15.3728684993 2.7920582795
15.8751799819 4.1095642303 6.4992693366
15.7936366743 3.8140668531 7.2647236407
16.0559192430 4.9126100580 5.6838763234
16.2416180357 4.8587688530 6.7399886071
16.1087956634 4.5073727848 7.5428608428
16.0433325065 5.7753079128 4.8496163309
16.3514414442 5.8377694255 5.7662694975
16.4083726568 5.6231177647 6.5678076897
16.3805513432 5.4840815004 7.5287477178
16.1824134853 5.3173153250 8.5444451985
15.9526741000 5.4588765662 9.4140094169
16.2061274170 6.9476322405 4.3570843826
16.4366086142 6.6137002323 5.4588947299
16.5390903904 6.4732460940 6.4098228186
16.5439151783 6.4270685597 7.3716229469
16.4295151151 6.3938152046 8.4215256960
16.1480975152 6.3070458366 9.4995389909
16.0649124070 7.8417539480 3.4339700787
16.5366473280 7.9628094629 4.3347130059
16.5823123630 7.4682432243 5.2505820934
16.6361651741 7.2560703019 6.2167508923
16.6407509047 7.1165844768 7.0616824905
16.6213198040 7.4840666771 8.1382870685
16.3841275502 7.3630307800 9.3041057627
16.0518228182 7.2674231231 10.2162794906
15.9803795412 8.9886293026 2.8863966084
16.4429702904 8.7191665262 3.6259111427
16.6356152109 8.5356819950 4.0651561541
16.7157162638 8.2043334740 4.6626061041
16.7778408622 8.1841428703 5.1757190748
16.7241929518 8.0225569758 5.1811652901
16.7320091364 7.8640937668 5.9993615062
16.7292606623 7.7660929597 7.0184316001
16.7337243316 7.9556929159 7.7785748411
16.6681749288 8.2328863996 8.6121924230
16.6049532580 9.0326528659 9.1594884308
16.5305279221 8.3447830178 9.1972168262
16.2074036816 8.3516537019 10.1058276540
16.0058833493 10.0761183474 2.8042602866
16.4166575872 9.8390862506 3.5322737019
16.6005319549 9.2932111920 3.7936503468
16.7832993294 8.1265483744 5.7216537988
16.7813581958 8.0612371825 6.5033991943
16.7769271303 8.0378334365 7.1466643451
16.4048231768 9.5694271182 9.6229214368
16.6046173136 10.0119631996 9.1059231327
16.2222131918 10.9030929521 3.4187035407
16.6362285068 10.1886770694 4.0851729443
16.5607519078 10.9279780297 4.3412649780
16.7128616712 11.2164039308 5.0186584367
16.7219776996 10.8328744231 4.6765027017
16.7663484081 11.1509344001 5.1008538357
16.5227758956 10.8779961523 8.9031290165
16.6547165606 10.6775301101 8.7480462878
16.6490402639 11.2447339772 8.3012624835
16.2745650448 10.6442100353 9.6523207080
16.2905037139 11.8919522258 4.2541903300
16.5480015493 11.8076974911 5.3063304716
16.7126598336 11.5095306036 5.4322934096
16.5141163085 11.8433443050 7.9242911258
16.6518238988 11.6767582747 7.7416957867
16.5999986765 11.9779468580 7.0803673283
16.4184505577 11.6386982732 8.6644693890
16.2286178634 11.5432074402 9.2907397394
16.0870849347 12.7645456153 4.3367057899
16.2009385018 12.7502722309 5.2359004987
16.6152869460 11.9368971209 6.1173432402
16.3771386711 12.4441781867 6.5808700061
16.2321771762 12.5931726347 7.6796781466
16.2086726731 12.2741231237 8.5662721252
15.8926336222 13.4053616162 4.6807099021
3 2 1 0
3 4 3 0
3 0 3 2
3 6 5 4
3 4 5 3
3 6 7 5
3 1 8 0
3 10 9 8
3 9 0 8
3 9 4 0
3 4 11 6
3 4 9 11
3 7 6 12
3 12 6 11
3 10 13 9
3 9 13 11
3 11 13 14
3 11 14 12
3 17 16 15
3 19 18 15
3 15 18 17
3 21 20 19
3 19 20 18
3 21 22 20
3 24 23 2
3 2 23 1
3 3 15 16
3 24 3 16
3 2 3 24
3 15 3 5
3 15 5 19
3 19 5 7
3 25 19 7
3 21 19 25
3 22 21 26
3 26 21 25
3 29 28 27
3 27 30 8
3 23 27 8
3 1 23 8
3 27 23 29
3 30 10 8
3 12 31 25
3 12 25 7
3 26 25 32
3 32 25 31
3 28 33 27
3 35 34 33
3 34 27 33
3 34 30 27
3 36 13 10
3 30 36 10
3 34 36 30
3 37 14 13
3 37 13 36
3 31 12 14
3 37 31 14
3 38 31 37
3 32 31 39
3 39 31 38
3 35 40 34
3 34 40 36
3 36 40 41
3 36 41 37
3 37 41 42
3 37 42 38
3 38 42 43
3 38 43 39
3 46 45 44
3 48 47 44
3 44 47 46
3 50 49 48
3 48 49 47
3 50 51 49
3 54 53 52
3 56 55 52
3 52 55 54
3 55 56 45
3 56 44 45
3 56 57 44
3 44 58 48
3 44 57 58
3 48 59 50
3 48 58 59
3 51 50 60
3 60 50 59
3 63 62 61
3 63 61 53
3 61 52 53
3 61 64 52
3 64 16 17
3 56 64 17
3 52 64 56
3 56 17 18
3 56 18 57
3 57 18 20
3 57 20 58
3 58 20 22
3 65 58 22
3 59 58 65
3 60 59 66
3 59 67 66
3 59 65 67
3 67 68 66
3 71 70 69
3 71 69 62
3 69 61 62
3 69 72 61
3 72 23 24
3 64 72 24
3 61 72 64
3 64 24 16
3 26 73 65
3 26 65 22
3 65 74 67
3 65 73 74
3 68 67 75
3 75 67 74
3 78 77 76
3 78 76 70
3 76 69 70
3 76 79 69
3 79 28 29
3 72 79 29
3 69 79 72
3 72 29 23
3 32 80 73
3 32 73 26
3 73 81 74
3 73 80 81
3 75 74 82
3 82 74 81
3 76 77 83
3 83 77 84
3 76 85 79
3 76 83 85
3 86 33 28
3 79 86 28
3 85 86 79
3 86 35 33
3 39 87 80
3 39 80 32
3 80 88 81
3 80 87 88
3 82 81 89
3 89 81 88
3 84 90 83
3 83 90 85
3 85 90 91
3 93 92 91
3 92 85 91
3 92 86 85
3 94 40 35
3 86 94 35
3 92 94 86
3 95 41 40
3 95 40 94
3 96 42 41
3 96 41 95
3 97 43 42
3 97 42 96
3 87 39 43
3 97 87 43
3 98 87 97
3 87 99 88
3 87 98 99
3 89 88 100
3 100 88 99
3 93 101 92
3 92 101 94
3 94 101 102
3 94 102 95
3 95 102 103
3 95 103 96
3 96 103 104
3 106 105 104
3 105 96 104
3 105 97 96
3 97 107 98
3 97 105 107
3 109 99 108
3 99 107 108
3 99 98 107
3 99 109 100
3 106 110 105
3 105 110 107
3 107 110 111
3 107 111 108
3 114 113 112
3 116 115 112
3 112 115 114
3 118 117 116
3 116 117 115
3 118 119 117
3 122 121 120
3 124 123 120
3 120 123 122
3 123 124 113
3 124 112 113
3 124 125 112
3 125 45 46
3 116 125 46
3 112 125 116
3 116 46 47
3 116 47 118
3 126 119 118
3 47 126 118
3 49 126 47
3 49 51 126
3 126 51 127
3 130 129 128
3 130 128 121
3 128 120 121
3 128 131 120
3 131 53 54
3 124 131 54
3 120 131 124
3 124 54 55
3 124 55 125
3 125 55 45
3 60 133 132
3 127 60 132
3 51 60 127
3 133 134 132
3 137 136 135
3 137 135 129
3 135 128 129
3 135 138 128
3 138 62 63
3 131 138 63
3 128 138 131
3 131 63 53
3 66 133 60
3 66 68 133
3 68 134 133
3 68 139 134
3 135 136 140
3 140 136 141
3 140 70 71
3 138 140 71
3 135 140 138
3 138 71 62
3 75 143 142
3 139 75 142
3 68 75 139
3 143 144 142
3 140 141 78
3 141 77 78
3 141 145 77
3 140 78 70
3 82 146 143
3 82 143 75
3 144 143 147
3 147 143 146
3 145 84 77
3 148 84 145
3 89 149 146
3 89 146 82
3 147 146 150
3 150 146 149
3 148 151 84
3 84 151 90
3 151 153 152
3 91 151 152
3 90 151 91
3 152 93 91
3 100 154 149
3 100 149 89
3 150 149 155
3 155 149 154
3 153 156 152
3 152 156 93
3 156 101 93
3 156 157 101
3 157 159 158
3 102 157 158
3 101 157 102
3 160 103 102
3 160 102 158
3 161 104 103
3 161 103 160
3 161 106 104
3 108 162 109
3 154 100 109
3 162 154 109
3 163 154 162
3 155 154 164
3 164 154 163
3 159 165 158
3 158 165 160
3 160 165 166
3 168 167 166
3 167 160 166
3 167 161 160
3 169 110 106
3 161 169 106
3 167 169 161
3 170 111 110
3 170 110 169
3 162 108 111
3 170 162 111
3 171 162 170
3 173 163 172
3 163 171 172
3 163 162 171
3 163 173 164
3 168 174 167
3 167 174 169
3 169 174 175
3 169 175 170
3 170 175 176
3 170 176 171
3 171 176 177
3 171 177 172
3 180 179 178
3 182 181 178
3 178 181 180
3 184 183 182
3 182 183 181
3 186 185 184
3 184 185 183
3 186 187 185
3 190 189 188
3 192 191 188
3 188 191 190
3 191 192 179
3 179 192 178
3 192 113 178
3 113 114 178
3 178 114 115
3 178 115 182
3 182 115 117
3 182 117 184
3 184 117 119
3 193 184 119
3 186 184 193
3 187 186 194
3 186 195 194
3 186 193 195
3 195 196 194
3 188 189 122
3 189 121 122
3 189 197 121
3 188 122 123
3 188 123 192
3 192 123 113
3 126 193 119
3 193 126 127
3 198 193 127
3 195 193 198
3 196 195 199
3 199 195 198
3 201 200 130
3 130 200 129
3 130 121 197
3 130 197 201
3 132 198 127
3 132 134 198
3 134 199 198
3 134 202 199
3 204 203 137
3 137 203 136
3 137 129 200
3 137 200 204
3 139 206 205
3 202 139 205
3 134 139 202
3 206 207 205
3 203 141 136
3 208 141 203
3 142 206 139
3 210 209 144
3 144 209 142
3 209 207 142
3 207 206 142
3 210 211 209
3 208 145 141
3 212 145 208
3 147 213 210
3 147 210 144
3 211 210 214
3 214 210 213
3 212 148 145
3 215 148 212
3 150 216 213
3 150 213 147
3 214 213 217
3 217 213 216
3 215 218 148
3 148 218 151
3 153 151 218
3 153 218 219
3 155 220 216
3 155 216 150
3 217 216 221
3 216 222 221
3 216 220 222
3 222 223 221
3 219 224 153
3 153 224 156
3 224 226 225
3 157 224 225
3 156 224 157
3 225 159 157
3 164 227 220
3 164 220 155
3 229 222 228
3 222 227 228
3 222 220 227
3 222 229 223
3 226 230 225
3 230 232 231
3 230 231 165
3 225 230 165
3 159 225 165
3 233 166 165
3 233 165 231
3 233 168 166
3 172 234 173
3 227 164 173
3 234 227 173
3 235 227 234
3 228 227 236
3 236 227 235
3 232 237 231
3 239 238 237
3 238 231 237
3 238 233 231
3 240 174 168
3 233 240 168
3 238 240 233
3 241 175 174
3 241 174 240
3 242 176 175
3 242 175 241
3 243 177 176
3 243 176 242
3 234 172 177
3 243 234 177
3 244 234 243
3 234 245 235
3 234 244 245
3 236 235 246
3 246 235 245
3 239 247 238
3 238 247 240
3 240 247 248
3 240 248 241
3 241 248 249
3 241 249 242
3 242 249 250
3 242 250 243
3 243 250 251
3 243 251 244
3 244 251 252
3 244 252 245
3 245 252 253
3 245 253 246
3 256 255 254
3 258 257 254
3 254 257 256
3 260 259 258
3 258 259 257
3 260 261 259
3 264 263 262
3 179 180 262
3 180 264 262
3 180 265 264
3 181 254 255
3 265 181 255
3 180 181 265
3 254 181 183
3 254 183 258
3 258 183 185
3 258 185 260
3 267 266 187
3 187 266 185
3 266 261 185
3 261 260 185
3 267 268 266
3 270 269 190
3 190 269 189
3 191 262 263
3 270 191 263
3 190 191 270
3 262 191 179
3 194 267 187
3 194 196 267
3 196 268 267
3 196 271 268
3 274 273 272
3 269 274 272
3 197 269 272
3 189 269 197
3 199 271 196
3 199 275 271
3 278 277 276
3 278 276 273
3 273 276 272
3 276 200 272
3 200 201 272
3 272 201 197
3 202 280 279
3 275 202 279
3 199 202 275
3 280 281 279
3 276 277 204
3 277 203 204
3 277 282 203
3 276 204 200
3 205 280 202
3 284 283 207
3 207 283 205
3 283 281 205
3 281 280 205
3 284 285 283
3 282 208 203
3 286 208 282
3 209 284 207
3 209 211 284
3 211 285 284
3 211 287 285
3 286 212 208
3 288 212 286
3 214 290 289
3 287 214 289
3 211 214 287
3 290 291 289
3 288 215 212
3 292 215 288
3 217 293 290
3 217 290 214
3 291 290 294
3 294 290 293
3 292 295 215
3 215 295 218
3 219 218 295
3 219 295 296
3 221 293 217
3 221 223 293
3 223 294 293
3 223 297 294
3 296 298 219
3 219 298 224
3 226 224 298
3 226 298 299
3 228 300 229
3 300 301 229
3 301 223 229
3 301 297 223
3 299 302 226
3 226 302 230
3 232 230 302
3 232 302 303
3 236 304 300
3 236 300 228
3 301 300 305
3 305 300 304
3 303 306 232
3 232 306 237
3 239 237 306
3 239 306 307
3 246 308 304
3 246 304 236
3 305 304 309
3 309 304 308
3 307 310 239
3 239 310 247
3 247 311 248
3 310 311 247
3 248 312 249
3 311 312 248
3 312 314 313
3 250 312 313
3 249 312 250
3 315 251 250
3 315 250 313
3 316 252 251
3 316 251 315
3 252 316 317
3 318 252 317
3 253 252 318
3 246 253 308
3 253 319 308
3 253 318 319
3 308 319 309
3 314 320 313
3 313 320 315
3 315 320 321
3 315 321 316
3 316 321 322
3 316 322 317
3 325 324 323
3 327 326 323
3 323 326 325
3 327 328 326
3 331 330 329
3 333 332 329
3 329 332 331
3 332 333 324
3 324 333 323
3 333 255 323
3 255 256 323
3 323 256 257
3 323 257 327
3 334 328 327
3 257 334 327
3 259 334 257
3 259 261 334
3 334 261 335
3 338 337 336
3 338 336 330
3 330 336 329
3 336 263 329
3 263 264 329
3 329 264 265
3 329 265 333
3 333 265 255
3 339 335 261
3 339 261 266
3 266 268 339
3 339 268 340
3 343 342 341
3 343 341 337
3 337 341 336
3 341 269 336
3 269 270 336
3 336 270 263
3 271 345 344
3 340 271 344
3 268 271 340
3 345 346 344
3 349 348 347
3 349 347 342
3 342 347 341
3 347 273 341
3 273 274 341
3 341 274 269
3 275 350 345
3 275 345 271
3 346 345 351
3 351 345 350
3 347 348 278
3 348 277 278
3 348 352 277
3 347 278 273
3 279 350 275
3 279 281 350
3 281 351 350
3 281 353 351
3 352 282 277
3 354 282 352
3 355 353 281
3 355 281 283
3 283 285 355
3 355 285 356
3 354 286 282
3 357 286 354
3 287 359 358
3 356 287 358
3 285 287 356
3 359 360 358
3 357 288 286
3 361 288 357
3 289 359 287
3 289 291 359
3 291 360 359
3 291 362 360
3 364 292 363
3 292 361 363
3 292 288 361
3 365 364 363
3 294 362 291
3 294 366 362
3 364 295 292
3 296 295 364
3 365 296 364
3 367 296 365
3 297 369 368
3 366 297 368
3 294 297 366
3 367 370 296
3 296 370 298
3 299 298 370
3 299 370 371
3 301 372 369
3 301 369 297
3 371 373 299
3 299 373 302
3 303 302 373
3 303 373 374
3 305 375 372
3 305 372 301
3 374 376 303
3 303 376 306
3 307 306 376
3 307 376 377
3 309 378 375
3 309 375 305
3 377 379 307
3 307 379 310
3 310 380 311
3 379 380 310
3 311 381 312
3 380 381 311
3 314 312 381
3 314 381 382
3 317 383 318
3 318 383 384
3 385 318 384
3 319 318 385
3 309 319 378
3 319 386 378
3 319 385 386
3 382 387 314
3 314 387 320
3 320 388 321
3 387 388 320
3 321 389 322
3 388 389 321
3 317 322 383
3 322 390 383
3 322 389 390
3 383 390 384
3 392 391 325
3 325 391 324
3 393 325 326
3 393 392 325
3 395 394 328
3 394 326 328
3 394 393 326
3 395 396 394
3 398 397 331
3 331 397 330
3 399 331 332
3 399 398 331
3 332 324 391
3 332 391 399
3 334 395 328
3 334 335 395
3 335 396 395
3 335 400 396
3 402 401 338
3 338 401 337
3 338 330 397
3 338 397 402
3 403 400 335
3 403 335 339
3 339 340 403
3 403 340 404
3 406 405 343
3 343 405 342
3 343 337 401
3 343 401 406
3 407 404 340
3 407 340 344
3 344 346 407
3 407 346 408
3 410 409 349
3 349 409 348
3 349 342 405
3 349 405 410
3 351 408 346
3 351 411 408
3 409 352 348
3 412 352 409
3 353 414 413
3 411 353 413
3 351 353 411
3 414 415 413
3 412 354 352
3 416 354 412
3 355 414 353
3 418 417 356
3 356 417 355
3 417 415 355
3 415 414 355
3 418 419 417
3 416 357 354
3 420 357 416
3 358 418 356
3 358 360 418
3 360 419 418
3 360 421 419
3 420 361 357
3 422 361 420
3 362 421 360
3 362 423 421
3 422 424 361
3 361 424 363
3 365 363 424
3 365 424 425
3 366 427 426
3 423 366 426
3 362 366 423
3 425 367 365
3 428 367 425
3 368 427 366
3 370 367 429
3 367 430 429
3 367 428 430
3 429 371 370
3 430 431 429
3 431 433 432
3 431 432 373
3 429 431 373
3 371 429 373
3 432 374 373
3 433 434 432
3 434 436 435
3 434 435 376
3 432 434 376
3 374 432 376
3 435 377 376
3 436 437 435
3 435 437 377
3 437 379 377
3 437 438 379
3 379 439 380
3 438 439 379
3 380 440 381
3 439 440 380
3 382 381 440
3 382 440 441
3 384 442 385
3 443 386 385
3 443 385 442
3 441 444 382
3 382 444 387
3 387 445 388
3 444 445 387
3 388 446 389
3 445 446 388
3 389 447 390
3 446 447 389
3 384 390 442
3 390 448 442
3 390 447 448
3 442 448 443
3 443 448 449
3 452 451 450
3 391 392 450
3 392 452 450
3 392 453 452
3 454 392 393
3 454 453 392
3 456 454 455
3 454 394 455
3 454 393 394
3 396 455 394
3 457 397 398
3 451 458 450
3 458 398 450
3 398 399 450
3 398 458 457
3 450 399 391
3 459 456 455
3 396 400 455
3 400 460 455
3 460 459 455
3 460 400 461
3 461 462 460
3 464 463 402
3 402 463 401
3 402 397 457
3 465 402 457
3 464 402 465
3 465 457 458
3 403 461 400
3 403 404 461
3 404 462 461
3 404 466 462
3 468 467 406
3 406 467 405
3 406 401 463
3 406 463 468
3 469 466 404
3 469 404 407
3 407 408 469
3 469 408 470
3 472 471 410
3 410 471 409
3 410 405 467
3 410 467 472
3 411 474 473
3 470 411 473
3 408 411 470
3 474 475 473
3 471 412 409
3 476 412 471
3 413 474 411
3 413 415 474
3 415 475 474
3 415 477 475
3 476 416 412
3 478 416 476
3 479 477 415
3 479 415 417
3 417 419 479
3 479 419 480
3 478 420 416
3 481 420 478
3 421 480 419
3 421 482 480
3 481 422 420
3 483 422 481
3 423 485 484
3 482 423 484
3 421 423 482
3 483 486 422
3 422 486 424
3 425 424 486
3 425 486 487
3 426 485 423
3 487 428 425
3 488 428 487
3 488 430 428
3 489 430 488
3 489 490 430
3 430 490 431
3 433 431 490
3 433 490 491
3 434 433 492
3 433 493 492
3 433 491 493
3 492 436 434
3 493 494 492
3 492 494 436
3 494 437 436
3 494 495 437
3 437 496 438
3 495 496 437
3 438 497 439
3 496 497 438
3 497 499 498
3 440 497 498
3 439 497 440
3 498 441 440
3 502 501 500
3 499 503 498
3 498 503 441
3 503 444 441
3 503 504 444
3 444 505 445
3 504 505 444
3 445 506 446
3 505 506 445
3 446 507 447
3 506 507 446
3 447 508 448
3 507 508 447
3 500 449 502
3 449 508 502
3 449 448 508
3 509 451 452
3 453 510 452
3 452 510 509
3 454 511 453
3 453 511 510
3 456 511 454
3 512 458 509
3 509 458 451
3 510 514 513
3 512 510 513
3 509 510 512
3 514 510 511
3 514 511 515
3 515 511 456
3 459 515 456
3 516 515 459
3 518 516 517
3 516 460 517
3 516 459 460
3 462 517 460
3 519 463 464
3 519 464 520
3 464 521 520
3 464 465 521
3 465 458 512
3 522 465 512
3 521 465 522
3 522 512 513
3 523 518 517
3 517 462 523
3 462 524 523
3 462 466 524
3 525 467 468
3 526 525 468
3 526 468 463
3 527 526 463
3 519 527 463
3 527 519 520
3 528 524 466
3 528 466 469
3 469 470 528
3 528 470 529
3 530 471 472
3 531 530 472
3 531 472 467
3 532 531 467
3 525 532 467
3 532 525 526
3 533 529 470
3 533 470 473
3 473 475 533
3 533 475 534
3 535 476 530
3 530 476 471
3 530 531 536
3 530 536 535
3 477 534 475
3 477 537 534
3 539 538 535
3 538 476 535
3 538 478 476
3 539 535 536
3 540 537 477
3 540 477 479
3 479 480 540
3 540 480 541
3 538 481 478
3 542 481 538
3 482 541 480
3 482 543 541
3 542 483 481
3 544 483 542
3 545 543 482
3 545 482 484
3 544 546 483
3 483 546 486
3 487 486 546
3 487 546 547
3 547 488 487
3 548 488 547
3 548 489 488
3 549 489 548
3 490 489 550
3 489 551 550
3 489 549 551
3 550 491 490
3 550 551 552
3 552 551 553
3 552 493 491
3 552 491 550
3 552 553 554
3 554 553 555
3 556 494 493
3 552 556 493
3 554 556 552
3 557 495 494
3 557 494 556
3 558 496 495
3 558 495 557
3 559 497 496
3 559 496 558
3 559 499 497
3 561 560 501
3 561 501 502
3 555 562 554
3 554 562 556
3 556 562 563
3 556 563 557
3 557 563 564
3 557 564 558
3 558 564 565
3 558 565 559
3 559 565 566
3 559 566 499
3 566 503 499
3 566 567 503
3 503 568 504
3 567 568 503
3 504 569 505
3 568 569 504
3 505 570 506
3 569 570 505
3 506 571 507
3 570 571 506
3 507 572 508
3 571 572 507
3 502 508 561
3 561 508 572
3 573 513 514
3 515 574 514
3 514 574 573
3 516 575 515
3 515 575 574
3 518 575 516
3 576 520 521
3 576 521 577
3 521 578 577
3 521 522 578
3 522 513 573
3 579 522 573
3 578 522 579
3 579 573 574
3 579 574 580
3 580 574 575
3 580 575 581
3 581 575 518
3 523 581 518
3 582 581 523
3 523 524 582
3 582 524 583
3 585 584 527
3 527 584 526
3 527 520 576
3 586 527 576
3 585 527 586
3 586 576 577
3 587 583 524
3 587 524 528
3 528 529 587
3 587 529 588
3 589 531 532
3 590 589 532
3 526 590 532
3 584 590 526
3 591 588 529
3 591 529 533
3 533 534 591
3 591 534 592
3 593 536 589
3 589 536 531
3 589 590 594
3 589 594 593
3 537 592 534
3 537 595 592
3 596 538 539
3 597 596 539
3 597 539 536
3 598 597 536
3 593 598 536
3 598 593 594
3 599 595 537
3 599 537 540
3 540 541 599
3 599 541 600
3 601 542 596
3 596 542 538
3 596 597 602
3 596 602 601
3 543 600 541
3 543 603 600
3 605 604 601
3 604 542 601
3 604 544 542
3 605 601 602
3 606 603 543
3 606 543 545
3 546 544 607
3 544 608 607
3 544 604 608
3 607 547 546
3 608 609 607
3 547 607 609
3 610 547 609
3 548 547 610
3 610 549 548
3 611 549 610
3 611 551 549
3 612 551 611
3 612 553 551
3 613 553 612
3 616 615 614
3 619 618 617
3 613 619 617
3 555 613 617
3 553 613 555
3 622 621 620
3 624 623 620
3 624 620 621
3 623 624 616
3 623 616 614
3 561 623 614
3 560 561 614
3 617 618 625
3 625 618 626
3 627 562 555
3 617 627 555
3 625 627 617
3 562 627 628
3 629 562 628
3 563 562 629
3 563 630 564
3 629 630 563
3 564 631 565
3 630 631 564
3 565 632 566
3 631 632 565
3 566 633 567
3 632 633 566
3 567 634 568
3 633 634 567
3 568 635 569
3 634 635 568
3 569 636 570
3 635 636 569
3 620 571 622
3 571 636 622
3 571 570 636
3 571 620 572
3 572 620 623
3 572 623 561
3 637 577 578
3 637 578 638
3 578 639 638
3 578 579 639
3 640 579 580
3 640 639 579
3 641 580 581
3 641 640 580
3 642 581 582
3 642 641 581
3 582 583 642
3 642 583 643
3 644 584 585
3 644 585 645
3 585 646 645
3 585 586 646
3 586 577 637
3 647 586 637
3 646 586 647
3 647 637 638
3 648 643 583
3 648 583 587
3 587 588 648
3 648 588 649
3 650 590 644
3 644 590 584
3 644 645 651
3 644 651 650
3 652 649 588
3 652 588 591
3 591 592 652
3 652 592 653
3 655 654 650
3 654 590 650
3 654 594 590
3 655 650 651
3 595 653 592
3 595 656 653
3 658 657 598
3 598 657 597
3 598 594 654
3 598 654 658
3 659 656 595
3 659 595 599
3 599 600 659
3 659 600 660
3 657 602 597
3 661 602 657
3 603 660 600
3 603 662 660
3 663 604 605
3 664 663 605
3 602 664 605
3 661 664 602
3 603 606 665
3 666 603 665
3 662 603 666
3 668 667 663
3 667 604 663
3 667 608 604
3 668 663 664
3 669 666 665
3 609 608 670
3 608 671 670
3 608 667 671
3 670 610 609
3 670 671 672
3 672 671 673
3 672 611 610
3 672 610 670
3 672 673 674
3 674 673 675
3 674 612 611
3 674 611 672
3 678 677 676
3 674 675 679
3 679 675 680
3 679 613 612
3 679 612 674
3 683 682 681
3 681 682 678
3 681 678 676
3 616 681 676
3 615 616 676
3 679 680 619
3 680 618 619
3 680 684 618
3 679 619 613
3 687 686 685
3 689 688 685
3 689 685 686
3 691 690 688
3 691 688 689
3 693 692 690
3 693 690 691
3 694 692 693
3 697 696 695
3 621 622 695
3 696 621 695
3 698 621 696
3 681 624 683
3 624 698 683
3 624 621 698
3 624 681 616
3 684 626 618
3 699 626 684
3 628 700 629
3 629 700 701
3 702 629 701
3 630 629 702
3 685 631 687
3 631 702 687
3 631 630 702
3 631 685 632
3 632 685 688
3 632 688 633
3 633 688 690
3 633 690 634
3 634 690 692
3 694 703 692
3 703 634 692
3 703 635 634
3 695 636 697
3 636 703 697
3 636 635 703
3 636 695 622
3 705 704 639
3 639 704 638
3 706 639 640
3 706 705 639
3 707 640 641
3 707 706 640
3 708 641 642
3 708 707 641
3 642 643 708
3 708 643 709
3 711 710 646
3 646 710 645
3 712 646 647
3 712 711 646
3 647 638 704
3 647 704 712
3 713 709 643
3 713 643 648
3 648 649 713
3 713 649 714
3 710 651 645
3 715 651 710
3 716 714 649
3 716 649 652
3 652 653 716
3 716 653 717
3 719 718 655
3 655 718 654
3 655 651 715
3 655 715 719
3 656 717 653
3 656 720 717
3 722 721 658
3 658 721 657
3 658 654 718
3 658 718 722
3 723 720 656
3 723 656 659
3 659 660 723
3 723 660 724
3 721 661 657
3 725 661 721
3 662 724 660
3 662 726 724
3 725 664 661
3 727 664 725
3 666 726 662
3 666 728 726
3 729 667 668
3 730 729 668
3 664 730 668
3 727 730 664
3 666 669 731
3 732 666 731
3 728 666 732
3 734 733 729
3 733 667 729
3 733 671 667
3 734 729 730
3 732 731 735
3 732 735 736
3 733 673 671
3 737 673 733
3 736 735 738
3 736 738 739
3 737 675 673
3 740 675 737
3 739 738 677
3 678 739 677
3 741 739 678
3 740 680 675
3 742 680 740
3 745 744 743
3 682 683 743
3 744 682 743
3 746 682 744
3 678 682 741
3 741 682 746
3 742 684 680
3 747 684 742
3 750 749 748
3 686 687 748
3 749 686 748
3 751 686 749
3 686 752 689
3 751 752 686
3 689 753 691
3 752 753 689
3 691 754 693
3 753 754 691
3 756 755 694
3 693 756 694
3 754 756 693
3 696 697 755
3 756 696 755
3 757 696 756
3 743 698 745
3 698 757 745
3 698 696 757
3 698 743 683
3 747 699 684
3 758 699 747
3 761 760 759
3 759 760 750
3 759 750 748
3 701 759 748
3 702 701 748
3 702 748 687
3 755 703 694
3 703 755 697
3 763 762 705
3 705 762 704
3 764 705 706
3 764 763 705
3 765 706 707
3 765 764 706
3 767 765 766
3 765 708 766
3 765 707 708
3 709 766 708
3 769 768 711
3 711 768 710
3 770 711 712
3 770 769 711
3 712 704 762
3 712 762 770
3 771 767 766
3 773 771 772
3 772 771 713
3 771 766 713
3 766 709 713
3 714 772 713
3 768 715 710
3 774 715 768
3 775 773 772
3 777 775 776
3 776 775 716
3 775 772 716
3 772 714 716
3 717 776 716
3 779 778 719
3 719 778 718
3 719 715 774
3 719 774 779
3 777 776 780
3 777 780 781
3 720 780 717
3 717 780 776
3 782 721 722
3 783 782 722
3 718 783 722
3 778 783 718
3 784 781 780
3 786 784 785
3 785 784 723
3 784 780 723
3 780 720 723
3 724 785 723
3 788 787 782
3 787 721 782
3 787 725 721
3 788 782 783
3 786 785 789
3 786 789 790
3 726 789 724
3 724 789 785
3 787 727 725
3 791 727 787
3 790 789 792
3 790 792 793
3 728 792 726
3 726 792 789
3 791 730 727
3 794 730 791
3 793 792 795
3 793 795 796
3 732 795 728
3 728 795 792
3 798 797 734
3 734 797 733
3 734 730 794
3 734 794 798
3 796 795 799
3 796 799 800
3 736 799 732
3 732 799 795
3 797 737 733
3 801 737 797
3 800 799 802
3 800 802 803
3 739 802 736
3 736 802 799
3 801 740 737
3 804 740 801
3 807 806 805
3 809 808 805
3 809 805 806
3 808 809 803
3 802 808 803
3 810 808 802
3 741 810 739
3 739 810 802
3 804 742 740
3 811 742 804
3 814 813 812
3 816 815 812
3 816 812 813
3 818 817 815
3 818 815 816
3 820 819 817
3 820 817 818
3 822 821 819
3 822 819 820
3 824 823 821
3 824 821 822
3 823 824 807
3 805 823 807
3 825 823 805
3 745 825 744
3 825 808 744
3 825 805 808
3 744 808 746
3 746 808 810
3 746 810 741
3 811 747 742
3 826 747 811
3 814 812 749
3 750 814 749
3 827 814 750
3 749 812 751
3 751 812 815
3 751 815 752
3 752 815 817
3 752 817 753
3 753 817 819
3 753 819 754
3 754 819 821
3 754 821 756
3 756 821 823
3 756 823 757
3 757 823 825
3 757 825 745
3 829 758 828
3 758 826 828
3 758 747 826
3 831 830 829
3 831 829 828
3 760 761 830
3 831 760 830
3 832 760 831
3 750 760 827
3 827 760 832
3 834 833 763
3 763 833 762
3 835 763 764
3 835 834 763
3 837 835 836
3 835 765 836
3 835 764 765
3 767 836 765
3 838 768 769
3 838 769 839
3 769 840 839
3 769 770 840
3 770 762 833
3 770 833 840
3 837 836 841
3 837 841 842
3 771 843 767
3 843 836 767
3 843 841 836
3 773 843 771
3 845 844 838
3 844 768 838
3 844 774 768
3 845 838 839
3 846 842 841
3 846 841 843
3 846 843 847
3 849 847 848
3 848 847 775
3 847 843 775
3 843 773 775
3 777 848 775
3 850 778 779
3 851 850 779
3 774 851 779
3 844 851 774
3 849 848 852
3 849 852 853
3 781 852 777
3 777 852 848
3 855 854 850
3 854 778 850
3 854 783 778
3 855 850 851
3 856 853 852
3 858 856 857
3 857 856 784
3 856 852 784
3 852 781 784
3 786 857 784
3 860 859 788
3 788 859 787
3 788 783 854
3 788 854 860
3 858 857 861
3 858 861 862
3 790 861 786
3 786 861 857
3 859 791 787
3 863 791 859
3 866 865 864
3 864 865 862
3 861 864 862
3 867 864 861
3 793 867 790
3 790 867 861
3 869 794 868
3 794 863 868
3 794 791 863
3 870 869 868
3 866 864 871
3 866 871 872
3 873 864 867
3 871 864 873
3 796 873 793
3 793 873 867
3 874 797 798
3 794 869 798
3 869 874 798
3 869 875 874
3 869 870 876
3 877 869 876
3 875 869 877
3 878 877 876
3 872 871 879
3 872 879 880
3 881 871 873
3 879 871 881
3 800 881 796
3 796 881 873
3 882 801 874
3 874 801 797
3 883 874 875
3 882 874 883
3 884 875 877
3 883 875 884
3 877 878 885
3 877 885 884
3 888 887 886
3 886 887 880
3 879 886 880
3 889 886 879
3 890 879 881
3 889 879 890
3 803 890 800
3 800 890 881
3 891 804 882
3 882 804 801
3 892 882 883
3 891 882 892
3 893 883 884
3 892 883 893
3 884 885 894
3 884 894 893
3 897 896 895
3 899 898 895
3 899 895 896
3 901 900 898
3 901 898 899
3 903 902 900
3 903 900 901
3 902 903 888
3 886 902 888
3 904 902 886
3 807 904 806
3 904 889 806
3 904 886 889
3 806 889 809
3 809 889 890
3 809 890 803
3 905 811 891
3 891 811 804
3 906 891 892
3 905 891 906
3 907 892 893
3 906 892 907
3 908 813 814
3 893 908 814
3 907 893 814
3 908 893 894
3 895 816 897
3 816 908 897
3 816 813 908
3 816 895 818
3 818 895 898
3 818 898 820
3 820 898 900
3 820 900 822
3 822 900 902
3 822 902 824
3 824 902 904
3 824 904 807
3 909 826 905
3 905 826 811
3 910 905 906
3 909 905 910
3 911 906 907
3 910 906 911
3 827 911 814
3 814 911 907
3 909 828 826
3 828 909 831
3 831 909 910
3 831 910 832
3 832 910 911
3 832 911 827
3 912 833 834
3 835 913 834
3 834 913 912
3 837 913 835
3 914 839 840
3 833 912 840
3 912 914 840
3 912 915 914
3 916 912 913
3 915 912 916
3 842 916 837
3 837 916 913
3 917 844 845
3 839 914 845
3 914 917 845
3 914 918 917
3 919 914 915
3 918 914 919
3 920 915 916
3 919 915 920
3 846 921 842
3 921 916 842
3 921 920 916
3 847 922 846
3 846 922 921
3 849 922 847
3 923 851 917
3 917 851 844
3 924 917 918
3 923 917 924
3 925 918 919
3 924 918 925
3 926 919 920
3 925 919 926
3 927 920 921
3 926 920 927
3 928 921 922
3 927 921 928
3 853 928 849
3 849 928 922
3 929 854 855
3 851 923 855
3 923 929 855
3 923 930 929
3 931 923 924
3 930 923 931
3 932 924 925
3 931 924 932
3 933 925 926
3 932 925 933
3 934 926 927
3 933 926 934
3 935 927 928
3 934 927 935
3 856 936 853
3 936 928 853
3 936 935 928
3 858 936 856
3 937 859 860
3 854 929 860
3 929 937 860
3 929 938 937
3 930 940 939
3 938 930 939
3 929 930 938
3 942 941 940
3 930 942 940
3 931 942 930
3 943 931 932
3 942 931 943
3 944 932 933
3 943 932 944
3 934 946 945
3 944 934 945
3 933 934 944
3 948 947 946
3 934 948 946
3 935 948 934
3 949 935 936
3 948 935 949
3 862 949 858
3 858 949 936
3 950 863 937
3 937 863 859
3 951 937 938
3 950 937 951
3 938 939 952
3 938 952 951
3 953 941 942
3 953 942 943
3 953 943 954
3 954 943 944
3 954 944 955
3 955 944 945
3 947 948 956
3 947 956 957
3 866 956 865
3 956 949 865
3 956 948 949
3 865 949 862
3 950 868 863
3 868 950 870
3 950 958 870
3 950 951 958
3 951 952 959
3 960 951 959
3 958 951 960
3 962 961 960
3 962 960 959
3 963 961 962
3 966 965 964
3 964 965 957
3 956 964 957
3 967 964 956
3 872 967 866
3 866 967 956
3 958 876 870
3 876 958 878
3 958 968 878
3 958 960 968
3 969 960 961
3 968 960 969
3 961 963 970
3 961 970 969
3 973 972 971
3 971 972 966
3 964 971 966
3 974 971 964
3 975 964 967
3 974 964 975
3 880 975 872
3 872 975 967
3 976 885 968
3 968 885 878
3 977 968 969
3 976 968 977
3 969 970 978
3 979 969 978
3 977 969 979
3 979 978 973
3 971 979 973
3 980 979 971
3 981 971 974
3 980 971 981
3 888 981 887
3 981 975 887
3 981 974 975
3 887 975 880
3 982 894 976
3 976 894 885
3 897 982 896
3 982 977 896
3 982 976 977
3 896 977 899
3 899 977 979
3 899 979 901
3 901 979 980
3 901 980 903
3 903 980 981
3 903 981 888
3 982 908 894
3 908 982 897